<svg width="152" height="80" viewBox="0 0 152 80" fill="none" xmlns="http://www.w3.org/2000/svg">
<path fill-rule="evenodd" clip-rule="evenodd" d="M0 0H151.758V6.14645H0V0ZM0 12.2929H151.758V18.4394H0V12.2929ZM0 24.5702H151.758V30.7323H0V24.5702ZM0 36.8631H151.758V43.0096H0V36.8631ZM0 49.156H151.758V55.3025H0V49.156ZM0 61.4333H151.758V67.5798H0V61.4333ZM0 73.7262H151.758V79.8727H0V73.7262Z" fill="#BD3D44"/>
<path fill-rule="evenodd" clip-rule="evenodd" d="M0 6.14844H151.758V12.2949H0V6.14844ZM0 18.4413H151.758V24.5722H0V18.4413ZM0 30.7186H151.758V36.8651H0V30.7186ZM0 43.0116H151.758V49.158H0V43.0116ZM0 55.3045H151.758V61.4509H0V55.3045ZM0 67.5818H151.758V73.7282H0V67.5818Z" fill="white"/>
<path fill-rule="evenodd" clip-rule="evenodd" d="M0 0H60.7001V43.0096H0V0Z" fill="#192F5D"/>
<path fill-rule="evenodd" clip-rule="evenodd" d="M5.05486 1.84375L5.61647 3.54416H7.39488L5.95967 4.58937L6.50568 6.30539L5.05486 5.24458L3.61965 6.28979L4.16566 4.58937L2.71484 3.54416H4.52446L5.05486 1.84375ZM15.1794 1.84375L15.7254 3.54416H17.5194L16.0686 4.58937L16.6146 6.30539L15.1794 5.24458L13.7285 6.28979L14.2745 4.58937L12.8393 3.54416H14.6177L15.1794 1.84375ZM25.2882 1.84375L25.8498 3.54416H27.6127L26.1774 4.58937L26.7234 6.30539L25.2726 5.24458L23.8374 6.28979L24.3834 4.58937L22.9326 3.54416H24.7266L25.2882 1.84375ZM35.4127 1.84375L35.9587 3.54416H37.7527L36.3019 4.58937L36.8635 6.30539L35.4127 5.24458L33.9619 6.28979L34.5235 4.58937L33.0727 3.54416H34.8511L35.4127 1.84375ZM45.5216 1.84375L46.0832 3.54416H47.8616L46.4264 4.58937L46.9724 6.30539L45.5216 5.24458L44.0864 6.28979L44.6324 4.58937L43.1972 3.54416H44.9756L45.5216 1.84375ZM55.6461 1.84375L56.1921 3.54416H57.9861L56.5353 4.58937L57.0969 6.30539L55.6461 5.24458L54.1953 6.28979L54.7569 4.58937L53.3061 3.54416H55.1001L55.6461 1.84375ZM10.1249 6.14939L10.6709 7.8498H12.4649L11.0141 8.89501L11.5445 10.5954L10.1405 9.55022L8.6897 10.5954L9.2045 8.89501L7.80049 7.8498H9.5789L10.1249 6.14939ZM20.2338 6.14939L20.7954 7.8498H22.5738L21.123 8.89501L21.6846 10.5954L20.2338 9.55022L18.783 10.5954L19.3446 8.89501L17.8938 7.8498H19.6878L20.2338 6.14939ZM30.3583 6.14939L30.9043 7.8498H32.6983L31.2475 8.89501L31.7935 10.5954L30.3583 9.55022L28.9075 10.5954L29.4535 8.89501L28.0183 7.8498H29.7967L30.3583 6.14939ZM40.4672 6.14939L41.0288 7.8498H42.8072L41.3564 8.89501L41.918 10.5954L40.4672 9.55022L39.032 10.5954L39.578 8.89501L38.1271 7.8498H39.9368L40.4672 6.14939ZM50.5917 6.14939L51.1377 7.8498H52.9317L51.4809 8.89501L52.0269 10.5954L50.5917 9.55022L49.1408 10.5954L49.6868 8.89501L48.2516 7.8498H50.03L50.5917 6.14939ZM5.05486 10.4394L5.61647 12.171H7.39488L5.95967 13.2162L6.50568 14.9167L5.05486 13.8559L3.61965 14.9167L4.16566 13.2006L2.71484 12.1554H4.52446L5.05486 10.4394ZM15.1794 10.4394L15.7254 12.1554H17.5194L16.0686 13.2006L16.6146 14.9011L15.1794 13.8403L13.7285 14.9011L14.2745 13.185L12.8393 12.1398H14.6177L15.1794 10.4394ZM25.2882 10.4394L25.8498 12.1554H27.6127L26.1774 13.2006L26.7234 14.9011L25.2726 13.8403L23.8374 14.9011L24.3834 13.185L22.9326 12.1398H24.7266L25.2882 10.4394ZM35.4127 10.4394L35.9587 12.1554H37.7527L36.3019 13.2006L36.8635 14.9011L35.4127 13.8403L33.9619 14.9011L34.5235 13.185L33.0727 12.1398H34.8511L35.4127 10.4394ZM45.5216 10.4394L46.0832 12.1554H47.8616L46.4264 13.2006L46.9724 14.9011L45.5216 13.8403L44.0864 14.9011L44.6324 13.185L43.1972 12.1398H44.9756L45.5216 10.4394ZM55.6461 10.4394L56.1921 12.1554H57.9861L56.5353 13.2006L57.0969 14.9011L55.6461 13.8403L54.1953 14.9011L54.7569 13.185L53.3061 12.1398H55.1001L55.6461 10.4394ZM10.1249 14.7451L10.6709 16.4455H12.4649L11.0141 17.4907L11.5601 19.2067L10.1249 18.1459L8.67409 19.1911L9.2201 17.4907L7.78489 16.4455H9.5633L10.1249 14.7451ZM20.2338 14.7451L20.7954 16.4455H22.5738L21.123 17.4907L21.6846 19.2067L20.2338 18.1459L18.783 19.1911L19.3446 17.4907L17.8938 16.4455H19.6878L20.2338 14.7451ZM30.3583 14.7451L30.9043 16.4455H32.6983L31.2475 17.4907L31.7935 19.2067L30.3583 18.1459L28.9075 19.1911L29.4535 17.4907L28.0183 16.4455H29.7967L30.3583 14.7451ZM40.4672 14.7451L41.0288 16.4455H42.8072L41.372 17.4907L41.918 19.2067L40.4672 18.1459L39.032 19.1911L39.578 17.4907L38.1271 16.4455H39.9368L40.4672 14.7451ZM50.5917 14.7451L51.1377 16.4455H52.9317L51.4809 17.4907L52.0269 19.2067L50.5917 18.1459L49.1408 19.1911L49.6868 17.4907L48.2516 16.4455H50.03L50.5917 14.7451ZM5.05486 19.0507L5.61647 20.7511H7.39488L5.95967 21.7963L6.50568 23.5123L5.05486 22.4515L3.61965 23.4967L4.16566 21.7963L2.71484 20.7511H4.52446L5.05486 19.0507ZM15.1794 19.0507L15.7254 20.7511H17.5194L16.0686 21.7963L16.6146 23.4967L15.1794 22.4515L13.7285 23.4967L14.2745 21.7963L12.8393 20.7511H14.6177L15.1794 19.0507ZM25.2882 19.0507L25.8498 20.7511H27.6127L26.1774 21.7963L26.7234 23.5123L25.2726 22.4515L23.8374 23.4967L24.3834 21.7963L22.9326 20.7511H24.7266L25.2882 19.0507ZM35.4127 19.0507L35.9587 20.7511H37.7527L36.3019 21.7963L36.8635 23.5123L35.4127 22.4515L33.9619 23.4967L34.5235 21.7963L33.0727 20.7511H34.8511L35.4127 19.0507ZM45.5216 19.0507L46.0832 20.7511H47.8616L46.4264 21.7963L46.9724 23.5123L45.5216 22.4515L44.0864 23.4967L44.6324 21.7963L43.1972 20.7511H44.9756L45.5216 19.0507ZM55.6461 19.0507L56.1921 20.7511H57.9861L56.5353 21.7963L57.0969 23.5123L55.6461 22.4515L54.1953 23.4967L54.7569 21.7963L53.3061 20.7511H55.1001L55.6461 19.0507ZM10.1249 23.3563L10.6709 25.0567H12.4649L11.0141 26.102L11.5601 27.8024L10.1249 26.7416L8.67409 27.8024L9.2201 26.0864L7.78489 25.0411H9.5633L10.1249 23.3563ZM20.2338 23.3563L20.7954 25.0567H22.5738L21.123 26.102L21.6846 27.8024L20.2338 26.7416L18.783 27.8024L19.3446 26.0864L17.8938 25.0411H19.6878L20.2338 23.3563ZM30.3583 23.3563L30.9043 25.0567H32.6983L31.2475 26.102L31.7935 27.8024L30.3583 26.7416L28.9075 27.8024L29.4535 26.0864L28.0183 25.0411H29.7967L30.3583 23.3563ZM40.4672 23.3563L41.0288 25.0567H42.8072L41.372 26.102L41.918 27.8024L40.4672 26.7416L39.032 27.8024L39.578 26.0864L38.1271 25.0411H39.9368L40.4672 23.3563ZM50.5917 23.3563L51.1377 25.0567H52.9317L51.4809 26.102L52.0269 27.8024L50.5917 26.7416L49.1408 27.8024L49.6868 26.0864L48.2516 25.0411H50.03L50.5917 23.3563ZM5.05486 27.6464L5.61647 29.3624H7.39488L5.95967 30.4076L6.50568 32.0924L5.05486 31.0472L3.61965 32.0924L4.16566 30.392L2.71484 29.3468H4.52446L5.05486 27.6464ZM15.1794 27.6464L15.7254 29.3624H17.5194L16.0686 30.4076L16.6302 32.0924L15.1794 31.0472L13.7285 32.0924L14.2901 30.392L12.8393 29.3468H14.6177L15.1794 27.6464ZM25.2882 27.6464L25.8498 29.3624H27.6127L26.1774 30.4076L26.7234 32.0924L25.2726 31.0472L23.8374 32.0924L24.3834 30.392L22.9326 29.3468H24.7266L25.2882 27.6464ZM35.4127 27.6464L35.9587 29.3624H37.7527L36.3019 30.4076L36.8635 32.0924L35.4127 31.0472L33.9619 32.0924L34.5235 30.392L33.0727 29.3468H34.8511L35.4127 27.6464ZM45.5216 27.6464L46.0832 29.3624H47.8616L46.4264 30.4076L46.9724 32.0924L45.5216 31.0472L44.0864 32.0924L44.6324 30.392L43.1972 29.3468H44.9756L45.5216 27.6464ZM55.6461 27.6464L56.1921 29.3624H57.9861L56.5353 30.4076L57.0969 32.0924L55.6461 31.0472L54.1953 32.0924L54.7569 30.392L53.3061 29.3468H55.1001L55.6461 27.6464ZM10.1249 31.952L10.6709 33.6524H12.4649L11.0141 34.6976L11.5601 36.4136L10.1249 35.3528L8.67409 36.398L9.2201 34.6976L7.78489 33.6524H9.5633L10.1249 31.952ZM20.2338 31.952L20.7954 33.6524H22.5738L21.123 34.6976L21.6846 36.4136L20.2338 35.3528L18.783 36.398L19.3446 34.6976L17.8938 33.6524H19.6878L20.2338 31.952ZM30.3583 31.952L30.9043 33.6524H32.6983L31.2475 34.6976L31.7935 36.4136L30.3583 35.3528L28.9075 36.398L29.4535 34.6976L28.0183 33.6524H29.7967L30.3583 31.952ZM40.4672 31.952L41.0288 33.6524H42.8072L41.372 34.6976L41.918 36.4136L40.4672 35.3528L39.032 36.398L39.578 34.6976L38.1271 33.6524H39.9368L40.4672 31.952ZM50.5917 31.952L51.1377 33.6524H52.9317L51.4809 34.6976L52.0269 36.4136L50.5917 35.3528L49.1408 36.398L49.6868 34.6976L48.2516 33.6524H50.03L50.5917 31.952ZM5.05486 36.2576L5.61647 37.9581H7.39488L5.95967 39.0033L6.50568 40.7037L5.05486 39.6585L3.61965 40.7037L4.16566 38.9877L2.71484 37.9425H4.52446L5.05486 36.2576ZM15.1794 36.2576L15.7254 37.9581H17.5194L16.0686 39.0033L16.6302 40.7037L15.1794 39.6585L13.7285 40.7037L14.2901 38.9877L12.8393 37.9425H14.6177L15.1794 36.2576ZM25.2882 36.2576L25.8498 37.9581H27.6127L26.2086 39.0033L26.7546 40.7037L25.3038 39.6585L23.8686 40.7037L24.4146 38.9877L22.9638 37.9425H24.7578L25.2882 36.2576ZM35.4127 36.2576L35.9587 37.9581H37.7527L36.3019 39.0033L36.8635 40.7037L35.4127 39.6585L33.9619 40.7037L34.5235 38.9877L33.0727 37.9425H34.8511L35.4127 36.2576ZM45.5216 36.2576L46.0832 37.9581H47.8616L46.4264 39.0033L46.9724 40.7037L45.5216 39.6585L44.0864 40.7037L44.6324 38.9877L43.1972 37.9425H44.9756L45.5216 36.2576ZM55.6461 36.2576L56.1921 37.9581H57.9861L56.5353 39.0033L57.0969 40.7037L55.6461 39.6585L54.1953 40.7037L54.7569 38.9877L53.3061 37.9425H55.1001L55.6461 36.2576Z" fill="white"/>
</svg>
