<svg width="80" height="60" viewBox="0 0 80 60" fill="none" xmlns="http://www.w3.org/2000/svg">
<g clip-path="url(#clip0_1292_33895)">
<mask id="mask0_1292_33895" style="mask-type:luminance" maskUnits="userSpaceOnUse" x="-1" y="0" width="82" height="61">
<path d="M-0.0117188 0H80.2055V60.16H-0.0117188V0Z" fill="white"/>
</mask>
<g mask="url(#mask0_1292_33895)">
<path fill-rule="evenodd" clip-rule="evenodd" d="M-0.0117188 0H90.2283V60.16H-0.0117188V0Z" fill="#002A8F"/>
<path fill-rule="evenodd" clip-rule="evenodd" d="M-0.0117188 12.0312H90.2283V24.0633H-0.0117188V12.0312ZM-0.0117188 36.0953H90.2283V48.1273H-0.0117188V36.0953Z" fill="white"/>
<path fill-rule="evenodd" clip-rule="evenodd" d="M-0.0117188 0L51.7705 30.0447L-0.0117188 60.0425V0Z" fill="#CB1515"/>
<path fill-rule="evenodd" clip-rule="evenodd" d="M22.7615 38.2429L17.1803 34.0716L11.6342 38.2781L13.7022 31.4514L8.15625 27.2214L15.0065 27.1744L17.1333 20.3594L19.307 27.1509L26.1572 27.1626L20.6465 31.4279L22.7615 38.2429Z" fill="white"/>
</g>
</g>
<defs>
<clipPath id="clip0_1292_33895">
<rect width="80" height="60" fill="white"/>
</clipPath>
</defs>
</svg>
