<svg width="614" height="686" viewBox="0 0 614 686" fill="none" xmlns="http://www.w3.org/2000/svg">
<path d="M107.179 160.92L109.239 161.46L111.459 161.26L113.629 161.54L114.759 161.16L119.319 161.55L121.459 161.35L122.539 161.71L123.499 162.84L123.469 163.93L124.539 164.88L125.619 165.25L126.439 166.39L127.529 167.17L131.359 171.97L132.449 172.75L134.789 173.4L137.179 174.83L140.649 175.17L147.959 173.63L150.369 173.93L151.509 174.88L151.759 176.16L151.149 180.9L151.329 184.2L150.999 185.31L147.969 189.89L147.329 192.19L147.259 194.73L148.159 197.5L144.999 199.16L138.479 199.26L136.849 198.83L134.659 198.9L132.279 200.65L131.209 200.88L129.599 202.27L128.999 204.16V205.36L129.569 206.5L132.129 208.41L132.769 209.62L134.449 214.23L134.589 216.52L132.759 219.68L129.299 222.13L125.649 223.56L121.149 223.84L119.959 225.92L119.819 227.04L122.049 228.06L123.119 229.09L123.599 231.52L122.749 232.6L120.439 233.14L119.319 233.9L118.899 235.11L120.009 236.17L123.679 236.24L124.829 237.03L125.469 238.18L124.309 239.22L124.169 240.37L126.239 242.59L126.059 243.82L123.839 245.77L123.289 246.87L122.609 250.28L120.399 255.44L121.769 255.83L122.029 256.2L123.089 259.9L124.339 260.75L125.479 260.98L128.789 260.77L129.519 261.36L130.029 262.95L131.429 263.68L135.669 263.21L138.859 264.84L139.869 266.58L141.429 267.08L142.399 268.2L144.159 267.43L144.849 277.11L142.419 280.23L142.699 281.71L144.979 285.42L145.009 286.53L143.749 287.39L143.199 288.47L143.309 289.53L143.999 290.88L146.259 292.69L146.879 294.97L145.669 298.25L144.659 299.77L143.429 300.86L141.099 300.25L139.869 299.53L136.009 294.93L133.669 294.6L131.439 293.12L130.389 292.89L126.889 292.56L125.739 292.96L123.339 294.1L120.329 297.23L118.489 298.01L117.449 299.03L116.339 299.17L115.379 298.09L113.399 297.28L108.089 297.97L107.719 297.65L107.769 297.1L104.779 297.09L102.979 296.14L102.429 296.2L102.819 297.07L101.849 297.32L99.1492 293.19L96.0492 291.43H94.9192L94.5792 291.11L94.5092 290.05L92.3992 289.55L91.1692 291.04L91.0592 290.55L90.5292 290.52L89.9292 289.84L89.1092 288.33L89.0992 287.06L88.3292 286.02L88.2592 285.08L86.6692 283.1L86.4192 283.2L84.4492 281.38L84.3492 280.62L81.9992 278.15L81.8892 277.74L82.7692 277.81L83.4392 276.68L81.9592 273.7L82.0392 272.5L80.7692 269.94L76.2092 263.45L76.1692 262.86L76.6392 262.99L77.3092 262.6L78.2592 260.94L77.7292 259.37L76.0692 257.04L76.5392 256.74L76.3292 255.98L76.7392 255.44L74.9692 252.45L75.3892 251.28L75.3392 249.8L73.9392 246.66L74.5092 246.26L74.7292 245.34L75.6492 245.69L75.8992 244.7L76.3092 244.44L76.0692 243.86L76.7092 243.71L77.3992 242.61L77.3692 242.06L77.8792 239.7L78.9692 238.59L80.4592 238.25L82.0092 236.84L82.5092 236.76L84.6192 237.75L85.1392 237.63L85.5792 238.23L85.8592 238L85.7692 236.97L88.9692 237.31L89.5592 237.7L89.9992 237.43L89.5792 232.76L91.0692 228.11L92.5692 227.01L92.5492 224.26L92.9692 223.78L96.4292 222.23L97.8492 222.17L97.8092 221.58L92.3192 211.94L90.0392 213.27L86.4492 210.92L84.9392 208.73L84.7992 206.34L83.6392 203.15L84.1092 202.82L84.9892 203.1L85.7692 202.5L85.9592 201.72L85.9992 200.37L86.1792 199.96L85.8492 198.68L83.8092 194.62L81.2192 191.05L80.8892 189.84L79.6292 188.44L79.7492 186.54L77.1092 183.48L76.4792 181.45L75.4092 179.71L74.0992 177.29L73.8092 175.46L72.7992 174.42L71.3492 171.84L71.7292 171.65L72.0892 172.16L72.3492 171.89L73.0992 172.55L72.9792 172.03L73.8292 172.18L73.4892 171.71L73.9592 171.57L74.1692 171.06L72.6192 170.53L71.7592 170.87L70.9492 170.01L75.4192 169.13L77.3392 168.33L79.0992 166.67L80.9892 167.4L82.0592 165.78L86.3192 164.6L87.3292 164.94L89.5892 166.81H91.9092L93.0692 165.93L95.7292 165.58L96.5592 165.03L97.5092 165.13L98.9792 163.86L100.479 163.49L101.419 163.9L102.579 163.79L107.179 160.92Z" fill="#CCCCCC" stroke="white" stroke-width="0.5"/>
<path d="M105.852 367.22L111.062 366.85L114.492 368.39L117.902 367.3L120.342 367.84L120.752 368.93L121.042 372.7L121.802 373.78L124.272 374.54L125.482 375.47L126.832 377.82L127.872 378.85L130.362 377.78L133.172 373.18L134.262 372.42L137.822 370.43L139.112 370.11L140.242 370.32L142.422 372.59L145.982 377.34L148.952 383.31L153.652 383.89L154.802 383.57L155.962 382.71H157.112L162.882 385.52L163.932 386.27L164.212 388.62L166.482 389.09L166.312 396.71L168.222 401.42L167.582 402.47L168.842 404.64L167.942 405.96L164.212 406.55L161.722 407.67L160.372 408.81L159.932 410.05L156.472 411.91L155.222 413.03L156.502 415.51L155.712 416.56V417.84L157.582 421.58L157.622 423.9L161.172 429.9L162.012 434.78L160.722 438.37L163.292 443.39L164.342 444.63L167.642 446.13L167.822 447.22L168.762 448.38L170.872 449.23L169.912 453.67L167.932 453.63L165.542 454.64L164.362 455.75L163.282 455.65L162.232 454.75L161.102 454.44L159.642 455.52L155.542 460.04L150.642 461.82L148.222 462.45L141.902 459.47L140.832 459.19L139.612 459.89L139.762 462.1L138.642 462.49L133.772 472.44L132.672 472.79L131.342 473L126.712 472.72L122.892 472.13L120.502 471.36L118.082 472.02L114.712 470.47L113.222 470.25L112.032 470.46L109.642 471.99H108.522L103.872 471.22L101.632 469.39L100.482 469.28L94.6919 471.63L93.2819 471.94L92.2119 471.7L90.0519 470.38L88.8019 470.13L86.5919 471.4L85.4019 470.64L83.8919 467.05L81.1019 463.51L80.7619 462.43L80.9819 461.25L82.1119 458.9L81.8019 457.71L80.7119 457.09L77.3619 456.1L73.6119 455.8L71.3819 454.72L70.1619 454.92L69.3119 457.22L65.6619 458.24L61.3819 460.22L60.3119 459.77L58.2219 457.9L55.6819 457.85L53.4319 456.75L49.9219 456.42L47.6719 455.55L44.2419 455.52L43.9819 455.1L44.3419 454.32L43.5219 454.04L43.8819 453.23L43.6119 453.02L43.8719 451.93L43.1719 451.64L43.6019 450.95L43.4619 450L44.2019 450.14L44.4619 449.13L44.8819 449.06L45.1419 449.65L45.9319 448.85L46.2719 448.95L47.5319 447.01L49.4119 446.07L49.4719 444.74L48.7719 443.52L49.6119 443.79L49.8019 443.48L49.0719 443.21L49.5819 441.25L50.4019 441.91L52.1319 440.88L52.3519 440.13L52.0919 439.56L52.6419 439.76L52.8219 440.61L53.2619 440.64L54.2119 439.9L53.9419 439.52L54.3119 438.96L55.0619 439.14L55.3919 438.75L55.9419 438.77L56.5019 437.11L55.7519 436.73L57.7119 435.5L57.8319 436.03L58.1919 435.95L58.7819 434.76L60.5119 434.23L61.3319 432.19L62.4719 431.18L62.5819 430.5L63.7719 429.87L63.8719 429.28L64.9419 428.06L65.5819 428.08L65.5019 426.84L63.6719 422.36L63.6819 420.62L65.1719 419.91L67.2119 417.48L69.4319 415.96L70.4619 414.59L71.3919 414.28L72.4219 412.9L73.5319 412.36L74.0519 410.67L76.0919 408.97L76.7119 408.78L76.6119 409.46L77.3919 409.84L77.7919 409.59L78.2119 410.01L79.7719 408.89L79.6919 408.04L80.6919 408.35L81.5119 407.88L81.5219 408.34L82.4219 409.34L83.5219 409.54L85.3719 408.51L86.6719 406.84L90.0119 404.36L90.5419 402.7L90.1619 401.59L92.0619 397.45L93.6619 396.13L94.0619 396.51L94.8719 396.13L98.6619 390.95L98.7619 389.29L99.7219 386.01L100.832 385.11L101.452 383.96L102.312 378.2L104.152 376.55L105.852 367.22Z" fill="#CCCCCC" stroke="white" stroke-width="0.5"/>
<path d="M244.431 307.27L245.791 308.12L245.981 308.64L245.111 309.13L244.931 309.65L245.381 311.24L246.861 311.5L247.271 312.98L249.911 313.87L252.831 317.11L255.081 317.43L258.361 316.75L262.491 317.48L265.501 318.64L267.811 320.43L268.791 320.79L269.481 319.43L271.721 319.42L272.061 321.07L274.971 322.05L278.051 321.87L279.361 323.3L282.131 325.38L282.631 326.28L282.741 329.27L284.271 330.53L284.791 332.04L285.811 333.1L286.301 334.69L285.831 337.6L284.171 337.98L283.741 338.94L282.731 339.3L282.921 339.78L284.331 340.46L285.991 340.38L286.371 340.7L286.401 342.39L287.011 344.49L289.541 348.15L289.051 350.41L288.021 351.45L287.861 352.93L288.201 353.29L289.501 352.55L289.901 353.48L288.221 354.59L287.491 355.95L287.571 357.12L288.701 358.76L289.421 360.77L288.301 363.09L288.571 363.51L290.951 363.9L292.031 365.08L292.991 365.48L293.701 364.84L295.881 364.59L296.871 363.55L297.201 362.38L298.351 361.79L299.461 361.77L300.551 360.62L300.681 359.56L305.381 355.55L305.711 354.08L305.431 350.12L304.631 346.73L307.351 349.08L308.421 351.44L308.311 353.87L308.811 354.74L311.081 355.16L313.251 354.64L314.131 355.14L314.531 356.1L315.391 356.64L317.201 355.7L320.691 356.38L327.011 354.79L329.511 355.89L330.711 355.64L333.201 355.96L334.281 355.67L335.361 354.82L339.401 350.64L343.541 348.71L349.821 346.81L352.041 346.97L353.131 347.5L354.281 347.28L354.811 346.22L354.141 344.5L354.161 343.25L352.871 341.8L351.501 341.09L350.981 340.23L351.981 336.38L350.561 334.37L350.171 332L350.491 329.67L351.231 328.34L350.851 327.29L357.101 330.66L362.841 334.3L366.751 338.89L369.301 339.36L371.561 339.32L372.791 339.93L374.311 342.28L374.511 343.39L372.751 345.83L372.831 347.15L371.951 348.37L371.671 351.48L370.291 351.83L369.301 353.33L367.061 355.49L366.571 356.55L366.221 360.93L365.801 362.02L364.711 363.11L361.291 363.26L360.201 363.83L360.401 364.9L361.461 365.85L361.661 366.92L360.941 368.04L359.771 368.13L358.521 367.57L357.721 368.72L356.951 372.02L355.871 372.59L354.911 373.88L354.451 375.08L354.641 376.4L356.091 378.84L355.961 380.69L355.011 381.95L348.581 387.72L348.541 388.88L349.591 389.83L349.261 391.14L348.391 392.2L345.751 392.71L344.511 393.62L343.651 395.17L342.431 396.16L339.731 396.56L334.651 401.28L333.671 402.33L334.081 404.71L333.751 405.88L332.121 408.14L328.201 412.4L328.711 414.75L328.311 415.81L326.041 417.03L322.271 420.66L321.601 419.54L320.391 420.6L320.411 421.91L322.291 425.4L322.461 426.48L322.021 427.61L320.791 427.97L319.691 429.05L319.241 431.26L315.741 432.83L316.381 434.19L314.561 436.48L317.131 441.05L317.401 443.4L317.081 444.48L313.191 445.86L309.901 448.74L311.441 451.02L311.821 452.42L310.111 455.19L310.711 456.31L310.801 457.39L309.611 461.73L308.411 462.75L306.031 463.4L304.771 463.48L303.631 463.12L302.511 463.48L302.691 464.8L303.801 467.25L303.511 471.78L302.161 474.5L300.341 475.48L299.481 476.67L298.001 477.23L295.531 478.93L293.201 478.96L290.741 479.91L288.821 479.67L286.961 480.61L284.371 484.39L281.161 486.76L280.811 487.85L280.911 490.39L280.031 492.32L279.031 493.44L279.521 494.91L279.071 495.15L276.701 494.72L274.311 493.71L272.711 491.56L270.481 491.26L265.601 487.77L264.551 482.75L263.431 481.62L263.061 480.5L261.981 479.29L260.621 478.65L259.131 478.44L255.491 480.98L249.731 477.63L245.011 479.69L239.091 479.28L237.991 479.84L237.801 479.33L238.481 472.57L237.841 469.82L238.751 468.07L238.881 465.76L240.321 462.21L240.731 457.72L240.911 453.94L240.021 450.05L240.601 446.97L241.291 440.01L240.771 438.47L241.291 436.85L239.951 430.12L239.521 424.62L239.751 423.44L239.341 421.88L239.571 416.44L237.281 415.79L232.661 413.23L232.201 410.61L231.181 409.51L230.081 409.24L229.521 408.01L229.401 405.7L232.981 403.37L233.321 402.2L233.871 398.01L233.481 396.82L232.191 395.58L232.111 394.46L231.281 393.22L231.441 392.06L232.661 390.5L234.901 389.3L238.641 386.14L239.621 384.38L240.131 381.55L241.961 378.56L243.121 377.59L243.411 375.81L243.061 374.11L241.141 371.9L238.451 369.77L238.161 367.42L237.421 366.08L233.761 364.17L233.731 362.73L231.481 361.5L231.291 360.46L230.271 359.45L228.911 352.95L224.301 353.26L223.251 352.17L222.111 351.96L219.651 352.3L217.421 350.42L216.141 350.77L214.051 352.76L212.911 352.69L209.301 353.47L206.911 352.34L205.691 352.62L202.301 350.93L204.461 346.17L204.161 342.59L205.231 341.55L210.071 334.28L210.921 331.85L211.601 327.47L212.301 326.11L215.691 328.54L217.001 328.63L219.271 327.23L222.781 328.96L223.851 329.23L225.001 328.84L228.441 322.74L230.181 320.58L231.501 319.61L237.621 316.59L239.341 314.5L239.361 313.71L242.251 312.47L242.511 311.34L243.751 309.85L243.221 309.02L243.261 308.44L244.431 307.27Z" fill="#CCCCCC" stroke="white" stroke-width="0.5"/>
<path d="M56.3892 2.28L57.2992 3.3L61.7292 2.8L61.8892 5.66L65.8292 9.29L67.1692 11.78L71.6392 14.45L71.7892 16.13L71.3292 16.56H70.6292L69.4192 16.03L68.2392 16.77L65.8292 17.23L62.7392 18.67H60.5892L59.7692 19L59.5292 19.78L58.5992 19.8L58.1892 20.73L57.3992 21.3L56.2792 23.57L56.7292 23.92L56.6692 24.26L55.6092 25.4L54.4192 25.76L53.1992 27.06L52.5892 29.34L50.3292 29.81L48.7492 29.41L48.4092 29.93L48.7892 31.43L48.2192 32.91L47.5292 32.9L46.6692 33.81L46.1392 33.8L45.5492 34.33L44.4392 34.31L43.2992 35.17L40.8492 35.23L40.4492 36.41L41.2392 37.53L43.7092 38.57L43.5992 67.92L30.3092 68.39L27.3992 69.67L27.8592 70.86L25.5892 67.59L24.8192 65.84L24.3992 63.26L26.2092 58.88L27.6192 59.27L28.5292 58.61L28.6992 57.27L28.1992 54.66L25.4792 48.07L26.0092 47.87V47.31L23.7392 43.74L24.2092 42.51L23.7792 41.61L24.4792 41.21L23.9292 40.64L23.7992 40.4L23.4292 39.75L22.9692 39.92L22.9592 39.54L22.6292 39.52L22.5092 39.92L23.1092 40.22L23.5492 41.58L18.0392 33.87L17.6992 33.33L25.7592 26.81L27.5792 20.41L29.7292 22.85L32.0792 22.66L34.8892 19.89L39.7192 12.2L47.5892 10.42L49.8892 6.63L54.6892 6.57L53.0292 4.28L53.1092 2.33L54.2592 1L55.7192 1.53L56.3892 2.28Z" fill="#CCCCCC" stroke="white" stroke-width="0.5"/>
<path d="M310.802 457.39L324.432 465.26L325.582 465.32L328.892 464.57L331.152 465.72L335.872 469.18L337.002 469.59L339.312 468.72L340.422 469.14L341.242 470.23L343.282 471.55L343.972 472.39L344.742 472.12L345.572 472.76L345.932 474.12L348.142 475.46L349.002 476.69L349.352 478.39L351.822 481.93L352.022 482.42L351.502 483.97L352.952 487.85L352.482 488.84L352.702 490.51L353.852 492.89L354.802 493.43L354.882 495.02L356.012 496.09L356.032 496.95L357.112 498.04L357.022 498.66L357.592 498.65L358.992 499.63L359.492 499.57L364.402 497.69L365.562 497.61L372.532 501.37L370.862 495.44L370.782 493.29L373.422 491.86L374.502 491.5L375.652 491.93L377.822 493.76L379.022 494.02L380.622 493.76L382.802 494.47L388.512 493.29L389.242 494.11L390.192 496.62L392.852 498.8L393.412 501.72L394.932 502.99L396.502 506.96L398.712 508.21L399.152 509.78L400.622 510.45L401.052 511.37L402.232 512.31L402.572 513.22L405.872 515.49L406.532 516.98L407.632 516.92L407.662 518.17L408.182 518.36L409.212 518.02L409.692 518.85L410.842 519.14L412.242 521.55L414.232 523L415.712 525L419.782 527.24L422.012 527.75L424.802 529.23L428.582 528.87L433.082 529.93L436.002 528.73L438.762 529.38L441.112 528.25L442.762 528.62L444.662 527.72L445.632 528.08L446.562 529.24L451.282 530.21L451.822 530.04L452.272 529.1L453.432 529.11L455.242 530.79L456.452 530.77L457.372 530.35L457.892 531.27L459.112 532.11L461.652 532.79L463.822 535.48L465.062 536.4L466.322 538.62L467.332 539.02L468.212 538.47L468.662 538.57L468.272 540.17L468.922 541.05L471.302 540.89L473.022 541.94L474.492 546.69L476.182 548.54L477.292 548.84L478.792 550.16L481.182 550.49L481.742 551.29L482.682 551.71L483.512 553.68L483.222 556.84L483.452 557.96L484.152 558.69L485.322 558.7L485.732 559.01L486.602 560.91L488.212 562.14L487.922 564.3L489.492 565.53L490.812 569.09L492.952 571.16L494.252 571.2L496.072 572.21L495.742 573.12L496.192 574.1V575.26L496.552 575.61H497.772L498.482 576.28L498.672 577.88L499.412 579.25L500.992 580.51L500.882 581.7L501.572 582.41L501.852 584.18L508.522 587.94L510.212 589.55L510.382 591.32L513.042 593.98L513.922 594.34L513.642 595.76L515.572 598.22L515.952 599.18L516.792 602.68L516.632 604.04L517.112 605.28L516.432 606.1L517.832 606.23L519.032 607.98L520.782 609.23L521.352 610.16L523.202 610.65L524.182 612.57L525.792 613.18L527.652 615.62L527.732 616.41L529.172 617.14L533.252 621.55L534.712 622.49L534.722 623.44L535.662 624.5L538.972 627.06L540.842 629.73L544.392 632.91L544.372 633.83L545.722 634.21L546.562 635.98L549.172 638.03L550.122 639.49L549.802 640.19L550.012 640.7L554.732 642.51L555.662 643.61L559.972 646.61L560.042 647.49L561.502 649.15L562.492 649.49L563.702 652.85L564.682 653.58L565.872 653.81L565.912 654.68L566.782 655.43L566.512 655.82L568.582 656.43L571.392 660.03L573.552 659.79L574.972 660.65L576.172 660.27L577.482 661.54L578.832 661.7L580.422 663.25L580.632 664.63L482.292 684.43L481.012 683.71L479.732 683.64L478.512 682.45L476.812 682.43L474.972 681.47L474.182 681.48L472.852 680.87L471.752 679.7L468.642 679.86L467.712 680.2L466.732 679.99L465.952 680.68L464.212 680.48L463.812 680.84L460.932 681.18L459.982 680.88L458.182 681.51L457.402 682.45L455.692 682.89L455.552 683.51L454.542 683.67L454.252 684.33L454.422 684.96L451.972 685.34L449.542 684.32L448.812 684.42L448.632 683.62L446.402 684.08L445.092 682.81L443.482 682.08L442.182 681.99L441.452 681.92L440.272 682.32L438.012 682.09L435.952 680.78L434.912 680.53L433.972 678.9L430.842 677.89L429.862 677.97L427.242 676.25L425.982 676.99L424.812 676.49L423.482 677.83L423.122 677.49L420.022 677.09L417.242 678.65L415.752 677.81L414.572 677.59L412.952 678.22L411.502 677.53L410.192 677.71L409.452 676.95L407.322 676.28L406.242 677.13L405.482 677.28H404.252L402.532 676.73L401.632 676.86L400.352 677.76L399.972 678.6L399.272 678.75L397.892 677.1L397.032 677.45L396.002 676.12L394.952 675.61L390.412 676.64L387.532 676.17L387.142 676.66L384.802 676.14L382.252 676.53L380.592 675.58L380.192 675.56L379.932 676.06L378.982 675.69L378.342 675.92L378.102 675.63L377.952 675.06L377.272 674.64L376.722 674.87L375.832 674.2L375.002 674.35L374.392 673.93L373.302 674.48L370.772 673.6L370.432 673.84L369.252 673.51L368.772 673.63L367.632 674.95L357.912 674.07L356.532 673.22L355.762 673.33L354.612 672.46L354.492 671.83L352.312 671.47L351.272 669.93L349.992 670.05L349.052 668.65L343.802 664.81L343.342 664.01L343.412 663.12L342.532 662.19L340.892 661.87L340.052 660.9L339.382 658.98L338.582 658.33L338.232 657.54L336.622 656.73L336.222 655.02L333.832 652.02L277.262 651.82L278.662 644.44L274.612 631.39L274.632 625.6L275.222 619.1L278.122 613.54L278.862 609.64L279.382 608.5L282.802 605.09L284.292 599.99L284.352 593.69L282.702 584.23L282.902 576.18L281.782 573.89L278.402 570.87L274.942 565.08L271.882 558.29L268.392 557.38L267.372 556.21L266.602 552.73L265.672 553.29L264.962 551.87L262.142 551.08L260.892 549.56L259.872 549.16L259.672 547.48L257.622 546.4L256.282 545.04L256.652 544L256.292 542.98L253.472 541.6L252.632 540.37L253.122 538.91L251.312 538.1L249.952 536.76L248.902 534.93L248.992 533.85L249.682 533.13L249.392 531.38L247.652 529.65L246.712 527.84L246.642 526.04L247.082 523.67L246.382 520.94L244.382 519.06L245.072 516.71L245.562 516.55L245.602 516.1L242.822 515.31L243.362 514.65L243.172 514.2L242.042 514.08L239.402 511.59L239.342 507.03L239.712 504.6L239.262 503L239.672 501.34L238.212 498.04L238.042 494.88L237.352 492.84L237.412 492.19L238.262 491.65L238.442 491.1L239.162 486.87L237.992 483.28L238.632 481.22L237.992 479.84L239.092 479.28L245.012 479.69L249.732 477.63L255.492 480.98L259.132 478.44L260.622 478.65L261.982 479.29L263.062 480.5L263.432 481.62L264.552 482.75L265.602 487.77L270.482 491.26L272.712 491.56L274.312 493.71L276.702 494.72L279.072 495.15L279.522 494.91L279.032 493.44L280.032 492.32L280.912 490.39L280.812 487.85L281.162 486.76L284.372 484.39L286.962 480.61L288.822 479.67L290.742 479.91L293.202 478.96L295.532 478.93L298.002 477.23L299.482 476.67L300.342 475.48L302.162 474.5L303.512 471.78L303.802 467.25L302.692 464.8L302.512 463.48L303.632 463.12L304.772 463.48L306.032 463.4L308.412 462.75L309.612 461.73L310.802 457.39Z" fill="#CCCCCC" stroke="white" stroke-width="0.5"/>
<path d="M148.141 197.48L148.781 199.43L150.611 199.12L152.541 199.97L154.301 200.12L156.691 199.16L158.631 197L159.151 195.11L160.911 193.45L163.431 193.69L165.921 195.32L168.491 194.09L171.211 194.41L171.871 192.32L173.171 192.21L173.511 191.17L174.441 191.03L174.881 189.74L175.291 189.54L175.341 186.45L176.411 184.81L176.461 184.23L175.391 183.19L174.421 183.53L174.101 183.19L174.261 181.94L175.301 180.26L174.911 177.66L179.411 176.59L185.391 176.44L186.841 177.22L187.661 178.46L187.521 180.1L187.931 181.75L189.681 182.49L191.411 182.6L194.311 181.69L196.061 180.04L200.591 179.97L201.591 181.06L203.361 182.02L203.371 182.46L201.941 182.72L201.951 183.25L202.591 185.06L203.141 185.21L203.391 184.75L203.911 184.65L204.581 185.35L204.821 190.13L204.711 192.81L205.361 194.14L205.101 196.18L205.711 196.94L205.391 198.34L206.071 199.3L204.751 200.84L198.361 202.42L198.621 204.64L195.361 209.26L196.731 212.13L197.811 212.86L200.271 213.02L201.341 215.47L199.881 217.72L198.071 223.4L197.491 228.09L196.681 230.29L197.251 233.78L196.841 236.74L195.161 237.85L192.701 237.76L191.771 238.12L190.841 238.09L189.631 237.21L189.011 237.19L187.031 238.61L185.311 238.71L183.901 240.08L182.971 240.49L180.561 240.46L179.051 241L177.671 242.34L177.191 243.92L176.941 247.03L174.151 247.54L172.411 247.22L170.851 247.83L173.741 249.92L174.301 252.32L170.861 255.35L170.971 256.41L172.121 257.25L172.811 258.37L173.411 261.9L173.111 262.95L170.501 265.23L169.071 265.27L167.111 263.75L165.541 263.68L162.911 262.86L162.691 263.26L163.261 264.07L162.231 265.06L160.521 264.71L158.531 264.83L157.651 265.32L155.411 265.73L154.151 265.59L153.591 265.72L152.771 267L152.281 267.2L146.931 267.93L144.151 267.39L142.391 268.15L141.421 267.04L139.861 266.54L138.841 264.8L135.661 263.18L131.411 263.65L130.021 262.92L129.511 261.33L128.781 260.74L125.471 260.95L124.341 260.71L123.091 259.86L122.031 256.16L121.771 255.79L120.401 255.4L122.611 250.24L123.291 246.83L123.841 245.73L126.061 243.78L126.231 242.55L124.171 240.33L124.301 239.19L125.461 238.15L124.821 237.01L123.671 236.22L120.001 236.15L118.891 235.09L119.321 233.88L120.441 233.12L122.751 232.58L123.601 231.5L123.121 229.08L122.051 228.04L119.821 227.02L119.961 225.91L121.151 223.82L125.651 223.55L129.301 222.11L132.761 219.66L134.591 216.5L134.451 214.22L132.771 209.6L132.121 208.39L129.571 206.48L128.991 205.34V204.14L129.591 202.25L131.201 200.86L132.271 200.63L134.651 198.88L136.831 198.81L138.461 199.24L144.981 199.14L148.141 197.48Z" fill="#CCCCCC" stroke="white" stroke-width="0.5"/>
<path d="M144.153 267.39L146.933 267.93L152.283 267.2L152.773 267L153.593 265.72L154.153 265.59L155.413 265.73L157.653 265.32L158.533 264.83L160.523 264.71L162.233 265.06L163.263 264.07L162.693 263.26L162.913 262.86L165.543 263.68L167.113 263.75L169.073 265.27L170.503 265.23L171.253 266.19L172.233 266.59L173.233 267.64L174.203 267.67L175.683 268.89L177.773 269.18L178.913 268.95L179.823 269.42L181.853 269.46L183.573 269.36L186.073 268.37L188.273 267.95L190.433 268.2L192.693 267.67L193.853 267.95L196.163 267.49L199.513 268.11L203.123 267.89L205.403 264.73L206.633 264.59L210.073 265.6L214.973 264.92L218.393 265.69L223.643 266.24L225.453 268.44L226.193 270.78L227.233 271.62L229.373 272.54L230.243 273.71L229.833 276.75L231.943 279.46L232.253 282.55L233.543 285.2L233.243 285.96L231.243 287.46L230.893 288.44L231.523 292.23L232.303 292.8L234.123 293L235.403 294.43L235.763 295.46L236.613 296L236.383 298.47L236.663 299.46L238.693 300.06L239.763 301.76L241.903 304.4L243.123 305.29L244.433 307.27L243.263 308.44L243.223 309.02L243.753 309.85L242.513 311.34L242.253 312.47L239.363 313.71L239.343 314.5L237.623 316.59L231.503 319.61L230.183 320.58L228.443 322.74L225.003 328.84L223.853 329.23L222.783 328.96L219.273 327.23L217.003 328.63L215.693 328.54L212.303 326.11L211.603 327.47L210.923 331.85L210.073 334.28L205.233 341.55L204.163 342.59L204.463 346.17L202.303 350.93L201.623 352.11L200.473 352.61L191.133 354.12L188.923 355.62L185.313 356.39L183.163 358.1L182.783 361.8L184.123 363.76L184.273 366.07L185.453 366.96L184.783 368.36V370.21L183.583 371.07L184.483 372.24L183.593 375.83L184.313 377.05L180.603 376.83L178.873 378.92L177.753 379.54L176.553 379.06L174.023 380.59L171.003 380.95L168.933 383.01L166.503 389.08L164.233 388.6L163.953 386.25L162.903 385.5L157.133 382.69H155.983L154.823 383.55L153.673 383.87L148.973 383.29L146.003 377.32L142.443 372.57L140.253 370.3L139.123 370.1L137.833 370.42L134.283 372.41L133.183 373.17L130.373 377.77L127.893 378.84L126.853 377.82L125.503 375.47L124.293 374.54L121.813 373.77L121.053 372.69L120.763 368.92L120.353 367.84L117.913 367.3L114.503 368.39L111.063 366.85L105.853 367.22L105.063 361.11L105.003 359.99L105.333 359.35L104.403 357.6L105.033 357.15L105.263 356.32L104.943 355.1L105.073 353.71L105.813 351.59L105.593 350.24L106.243 348.53L105.773 345.88L106.433 344.62L107.283 344.47L107.413 344.12L107.173 341.04L107.613 340.25L107.893 336L109.153 329.21L108.633 326.72L107.353 323.83L101.953 316.55L103.223 316.09L103.843 314.75L104.633 314.44L105.113 313.57L105.063 312.95L104.313 311.52L97.1628 302.83L92.6428 298.26L93.5328 296.89L93.3028 295.4L92.4728 292.45L91.1328 290.97L92.3628 289.48L94.4828 289.99L94.5528 291.05L94.8928 291.36H96.0228L99.1328 293.13L101.833 297.26L102.803 297.01L102.413 296.14L102.963 296.08L104.763 297.04L107.753 297.05L107.703 297.6L108.073 297.92L113.383 297.23L115.373 298.04L116.333 299.12L117.433 298.98L118.473 297.96L120.313 297.19L123.333 294.06L125.733 292.93L126.883 292.53L130.383 292.85L131.433 293.09L133.663 294.57L136.003 294.9L139.863 299.5L141.093 300.21L143.423 300.82L144.653 299.73L145.663 298.21L146.873 294.93L146.253 292.65L143.993 290.84L143.313 289.49L143.193 288.42L143.743 287.35L145.003 286.49L144.973 285.38L142.693 281.67L142.413 280.19L144.843 277.07L144.153 267.39Z" fill="#CCCCCC" stroke="white" stroke-width="0.5"/>
<path d="M90.3019 593.38L93.1719 595.77L95.1419 598.26L97.3819 599.72L99.6619 598.98L103.262 597.32L104.632 596.23L110.722 587.95L112.242 587.69L113.372 588.32L115.142 590.6L116.202 591.13L117.302 590.98L118.672 589.91L119.982 587.57L121.042 586.48L127.582 585.13L128.642 583.95L134.332 581.07L141.782 573.04L145.232 573.94L147.522 573.83L148.772 573.38L154.532 574.51L162.902 576.76L164.012 577.24L166.192 579.51L167.162 582.92L171.942 584.09L173.072 583.91L174.762 580.46L177.732 577.15L180.472 571.47L181.222 568.96L184.282 565.89L185.832 561.99L188.372 557.42L189.622 556.96L191.772 554.56L192.992 554.01L195.502 552.05L197.042 552.12L200.652 549.63L202.882 550.06L206.262 549.38L209.212 550.49L215.212 550.56L216.322 550.93L221.302 549.62L225.072 550.34L226.242 549.45L228.822 545.85L232.262 542.41L232.742 541.26L233.892 540.08L235.032 539.47L241.042 537.27L245.742 538.13L251.312 538.1L253.122 538.91L252.632 540.37L253.472 541.6L256.292 542.98L256.652 544L256.282 545.04L257.622 546.4L259.672 547.48L259.872 549.16L260.892 549.56L262.142 551.08L264.962 551.87L265.672 553.29L266.602 552.73L267.372 556.21L268.392 557.38L271.882 558.29L274.942 565.08L278.402 570.87L281.782 573.89L282.902 576.18L282.702 584.23L284.352 593.69L284.292 599.99L282.802 605.09L279.382 608.5L278.862 609.64L278.122 613.54L275.222 619.1L274.632 625.6L274.612 631.39L278.662 644.44L277.262 651.82L277.162 652.24L268.892 652.28L257.432 652.1L257.322 651.81L151.862 651.84L126.382 651.51L125.902 652.94L123.992 653.35L123.322 654.05L121.332 653.68L120.462 654.51L116.752 653.35L115.472 653.96L113.692 654.04L112.312 653.25L111.632 651.26L109.932 649.81L106.632 648.44L103.522 646.18L101.912 645.65L100.602 644.44L99.9219 644.45L97.7919 642.26L93.3819 639.39L91.6919 638.74L91.4019 638.29L92.2519 637.22L92.2719 636.46L89.6519 632.8L86.9119 631.73L85.1819 630.55L83.7019 630.52L83.2419 630.43L83.0419 627.82L81.7019 625.32L74.5619 618.19L73.5519 616.93L73.1719 615.69L74.1719 613.4L75.3119 612.3L76.4319 612.15L77.6719 611.31L79.4419 608.77L79.2219 607.62L78.5119 606.47L76.5019 604.56L77.6319 602.81L78.4319 602.2L79.9019 602L81.0219 600.28L82.5819 600.2L83.3619 598.65L83.9119 599.36L85.3619 598.01L86.3119 597.94L90.3019 593.38Z" fill="#CCCCCC" stroke="white" stroke-width="0.5"/>
<path d="M202.3 350.93L205.69 352.62L206.91 352.34L209.3 353.47L212.91 352.69L214.05 352.76L216.14 350.77L217.42 350.42L219.65 352.3L222.11 351.96L223.25 352.17L224.3 353.26L228.91 352.95L230.27 359.45L231.29 360.46L231.48 361.5L233.73 362.73L233.76 364.17L237.42 366.08L238.16 367.42L238.45 369.77L241.14 371.9L243.06 374.11L243.41 375.81L243.12 377.59L241.96 378.56L240.13 381.55L239.62 384.38L238.64 386.14L234.9 389.3L232.66 390.5L231.44 392.06L231.28 393.22L232.11 394.46L232.19 395.58L233.48 396.82L233.87 398.01L233.32 402.2L232.98 403.37L229.4 405.7L229.52 408.01L230.08 409.24L231.18 409.51L232.2 410.61L232.66 413.23L237.28 415.79L239.57 416.44L239.34 421.88L239.75 423.44L239.52 424.62L239.95 430.12L241.29 436.85L240.77 438.47L241.29 440.01L240.6 446.97L236.88 447.56L234.57 446.5L233.5 446.41L229.75 447.57L228.48 446.92L227.95 445.63L226.73 445.81L225.32 446.16L224.12 447.21L221.73 450.99L218.31 451.58L217.07 451.13L214.96 448.84L212.67 448.71L205.27 456.5L202.53 460L201.4 460.87L197.83 461.96L197.06 463.1L197.03 464.16L196.03 465.21L192.5 467.17L191.2 467.53L190.12 467.33L190.36 462.34L190.11 460.91L185.54 461.11L184.34 460.66L183.74 459.57L183.24 452.22L182.15 449.83L181.2 448.71L180.11 448.22L175.24 449.21L173.02 450.05L170.86 449.2L168.76 448.35L167.81 447.19L167.64 446.1L164.34 444.6L163.29 443.36L160.72 438.34L162.01 434.75L161.17 429.87L157.62 423.87L157.58 421.55L155.71 417.81L155.72 416.53L156.51 415.48L155.23 413L156.47 411.88L159.93 410.03L160.37 408.79L161.73 407.64L164.22 406.53L167.95 405.94L168.85 404.62L167.6 402.45L168.24 401.4L166.33 396.69L166.5 389.08L168.93 383.01L171 380.95L174.02 380.59L176.55 379.06L177.75 379.54L178.87 378.92L180.6 376.83L184.31 377.05L183.59 375.83L184.48 372.24L183.58 371.07L184.78 370.21V368.36L185.45 366.96L184.27 366.07L184.12 363.76L182.78 361.8L183.16 358.1L185.31 356.39L188.92 355.62L191.13 354.12L200.47 352.61L201.62 352.11L202.3 350.93Z" fill="#CCCCCC" stroke="white" stroke-width="0.5"/>
<path d="M170.86 449.2L173.02 450.05L175.24 449.21L180.11 448.22L181.2 448.71L182.15 449.83L183.24 452.22L183.74 459.57L184.34 460.66L185.54 461.11L190.11 460.91L190.36 462.34L190.12 467.33L191.2 467.53L192.5 467.17L196.03 465.21L197.03 464.16L197.06 463.1L197.83 461.96L201.4 460.87L202.53 460L205.27 456.5L212.67 448.71L214.96 448.84L217.07 451.13L218.31 451.58L221.73 450.99L224.12 447.21L225.32 446.16L226.73 445.81L227.95 445.63L228.48 446.92L229.75 447.57L233.5 446.41L234.57 446.5L236.88 447.56L240.6 446.97L240.02 450.05L240.91 453.94L240.73 457.72L240.32 462.21L238.88 465.76L238.75 468.07L237.84 469.82L238.48 472.57L237.8 479.33L237.99 479.84L238.63 481.22L237.99 483.28L239.16 486.87L238.44 491.1L238.26 491.65L237.41 492.19L237.35 492.84L238.04 494.88L238.21 498.04L239.67 501.34L239.26 503L239.71 504.6L239.34 507.03L239.4 511.59L242.04 514.08L243.17 514.2L243.36 514.65L242.82 515.31L245.6 516.1L245.56 516.55L245.07 516.71L244.38 519.06L246.38 520.94L247.08 523.67L246.64 526.04L246.71 527.84L247.65 529.65L249.39 531.38L249.68 533.13L248.99 533.85L248.9 534.93L249.95 536.76L251.31 538.1L245.74 538.13L241.04 537.27L235.03 539.47L233.89 540.08L232.74 541.26L232.26 542.41L228.82 545.85L226.24 549.45L225.07 550.34L221.3 549.62L216.32 550.93L215.21 550.56L209.21 550.49L206.26 549.38L202.88 550.06L200.65 549.63L197.04 552.12L195.5 552.05L192.99 554.01L191.77 554.56L189.62 556.96L188.37 557.42L185.83 561.99L184.28 565.89L181.22 568.96L180.47 571.47L177.73 577.15L174.76 580.46L173.07 583.91L171.94 584.09L167.16 582.92L166.19 579.51L164.01 577.24L162.9 576.76L154.53 574.51L148.77 573.38L147.52 573.83L145.23 573.94L141.78 573.04L134.33 581.07L128.64 583.95L127.58 585.13L121.04 586.48L119.98 587.57L118.67 589.91L117.3 590.98L116.2 591.13L115.14 590.6L113.37 588.32L112.24 587.69L110.72 587.95L104.63 596.23L103.26 597.32L99.66 598.98L97.38 599.72L95.14 598.26L93.17 595.77L90.3 593.38L91.59 592.68L92.02 591.58L93.12 590.53L93.19 589.44L91.2 585.78L90.71 583.48L92.55 578.83L96.42 571.93L94.04 568.29L93.8 567.17L94.11 555L90.36 553.59L88.01 551.74L87.27 550.59L87.92 548.14L87.16 545.81L85.79 545.48L85.27 546.56L84.05 547.39L82.89 547.49L81.85 546.23L82.2 544.89L82.02 543.24L80.59 542.96L78.21 543.61L77.09 542.59L77 541.4L80.68 539.29L81.07 538.09L78.15 534.65L78.5 533.41L80.55 531L79.31 527.41V526.01L81.31 523.85L83.68 523.48L84.63 522.21L88.22 519.42L91.92 517.79L94.85 515.76L97.32 509.97L97.59 505.18L100.34 501.44L100.15 497.23L99.66 495.03L100.06 492.54L98.9 492.02L97.79 492.61L96.63 491.81L96.15 490.59L96.96 488.03L96.28 485.62L95.09 483.26L95.53 481.68L97.72 478.1L98.03 476.97L97.68 475.78L95.53 474.32L94.64 471.59L100.44 469.23L101.59 469.35L103.83 471.18L108.49 471.95H109.61L112 470.42L113.19 470.21L114.68 470.44L118.05 471.99L120.47 471.33L122.87 472.1L126.69 472.69L131.31 472.97L132.64 472.76L133.74 472.41L138.61 462.46L139.74 462.07L139.59 459.85L140.81 459.15L141.87 459.43L148.19 462.42L150.61 461.78L155.51 460.01L159.61 455.48L161.08 454.41L162.21 454.71L163.26 455.61L164.34 455.71L165.52 454.6L167.92 453.59L169.9 453.64L170.86 449.2Z" fill="#CCCCCC" stroke="white" stroke-width="0.5"/>
<path d="M72.7425 224.55L72.8925 225.27L72.5125 226.43L71.6825 226.62L71.5825 226.03L72.7425 224.55ZM74.0525 222.44L74.5725 222.8L73.5025 223.01L73.5325 223.74L72.4825 224.14L71.6925 224.97L71.6225 225.52L71.1725 225.58L70.7925 226.28L69.7225 226.96L69.0425 228.26L68.4525 228.34L68.9025 227.29L73.4925 222.64L74.0525 222.44ZM89.9625 213.17L92.2425 211.84L97.7325 221.48L97.7725 222.07L96.3625 222.14L92.9025 223.69L92.4925 224.17L92.5125 226.92L91.0125 228.02L89.5225 232.67L89.9425 237.34L89.5025 237.61L88.9125 237.22L85.7125 236.88L85.8025 237.91L85.5225 238.14L85.0825 237.54L84.5625 237.66L82.4525 236.67L81.9525 236.75L80.4025 238.16L78.9125 238.5L77.8225 239.61L77.3125 241.97L77.3525 242.46L76.6525 243.62L76.0125 243.77L76.2525 244.35L75.8525 244.61L75.6025 245.6L74.6825 245.26L74.4625 246.18L73.8925 246.58L69.0625 238.54L67.9925 236.16L66.3125 234.11L66.3525 230.85L67.1725 230.55L67.4625 230.91L66.6525 231.08L67.0525 231.41L66.6825 232.55L66.8925 232.94L67.1625 233.74L66.8325 234.29L67.3025 234.48L67.4925 233.27L69.1325 231.87L70.1625 229.4L71.0225 228.9L71.6625 227.23L73.8225 227.15L74.3725 225.76L74.3225 224.74L76.4425 222.44L76.5425 221.21L77.0925 220.91L77.1025 219.96L77.5125 219.59L78.1825 219.82L78.6025 219.1L79.7925 219.22L80.5325 218.53L80.7925 217.55L81.4125 217.14L84.5125 218.14L85.5725 217.34L86.1925 216.67L87.0525 213.12L86.7925 211.1L89.9625 213.17Z" fill="#CCCCCC" stroke="white" stroke-width="0.5"/>
<path d="M434.878 126.02L442.538 126.05L442.108 129.11L440.678 130.62L439.978 133.75L438.808 135.88L438.418 137.43L438.058 141.14L438.318 144.21L499.398 144.33L499.728 145.27L501.328 146.49L502.248 149.36L501.778 150.21L502.998 151.37L503.098 152.16L502.478 152.98L503.168 153.77L502.148 155.99L502.988 157.82L502.898 158.61L502.458 159.11L502.708 160.19L501.748 161.04L501.528 162.57L500.868 163L500.898 164.01L500.138 166.41L499.668 166.89L499.548 167.85L498.778 168.71L499.268 170.68L498.598 171.37L498.488 172.07L498.908 174.46L498.788 175.14L497.668 176.16V176.69L498.378 177.74L498.938 179.74L499.768 181.26L501.048 182.5L503.058 186.84L504.628 188.38L504.698 188.97L504.198 189.48L505.088 192.45L505.098 194.12L506.748 195.26L505.548 196.2L502.818 197.49L500.578 201.15L499.508 201.38L496.908 200.74L492.128 202.51L490.998 203.36L488.788 206.81L479.348 208.47L474.528 207.25L473.158 207.51L472.068 208.32L468.558 207.89L465.848 209.45L464.368 209.81L462.248 209.72L457.668 212.14L456.698 214.35L452.938 216.13L451.878 217.14L448.638 222.33L446.688 228.55L444.328 229.9L440.658 230.38L438.118 232.03L436.758 233.34L433.158 233.79L431.908 234.5L430.478 237.97L430.218 240.1L429.318 241.19L428.248 241.96L423.358 242.23L422.198 242.79L416.878 247.01L411.048 252.39L409.388 264.84L408.788 266.37L407.208 268.68L403.738 272.4L402.518 273.32L395.848 274.38L394.418 275L390.878 278.04L389.808 278.35L385.858 278.38L384.548 278.9L379.608 283.12L373.958 284.53L370.748 287.97L367.068 289.81L364.508 290.78L357.378 291.43L356.298 291.9L352.598 296.3L346.668 298.89L345.568 299.32L337.368 298.68L336.268 298.94L336.738 299.87L337.658 300.33L336.848 300.91L336.918 301.31L338.168 301.34L339.428 302.37L338.098 303.32L335.838 304.11L334.498 306.35L334.868 307.55L335.948 308.19L336.598 309.43L335.418 311.82L329.418 312.3L328.348 312.15L323.848 309.27L322.668 309.05L321.518 307.67L318.178 305.27L317.128 304.77L314.928 304.68L313.768 304.21L313.778 303.15L311.778 301.05L311.618 300.25L316.678 295.59L316.648 294.14L314.408 293.34L313.658 292.7L312.768 291.18L311.728 290.63L310.618 287.7L309.398 287.07L309.078 286.21L309.418 285.09L309.218 284.62L310.018 283.52L309.988 282.55L307.928 279.49L307.628 277.79L306.178 277.43L305.248 276.33L303.608 271.06L298.868 268.83L295.188 269.39L294.378 268.31L294.558 266.06L293.538 264.94L293.138 263.78L288.698 262.64L287.618 261.84L286.908 259.63L284.538 259.15L283.838 258.04L284.278 256.86L283.888 254.59L282.738 252.32L281.658 251.27L281.288 248.94L280.248 247.86L280.008 245.51L282.308 243.58L288.188 241.36L290.418 241.02L291.438 239.67L291.368 237.36L293.058 235L293.348 233.91L292.398 231.5L292.168 229.19L291.668 227.98L293.138 220.17L293.268 218.06L292.818 214.81L293.398 212.68L292.778 210.38L293.088 208.14L290.818 206.68L289.598 202.77L290.298 199.35L292.008 197.16L291.268 196.34L290.558 191.67L290.718 190.52L290.418 189.53L291.188 188.9L291.128 188.33L290.258 187.16L289.708 187.05L289.588 186.51L290.118 185.06L291.338 186.02L293.858 186.07L297.498 184.74L299.268 184.51L302.998 185.2L304.398 184.24L307.348 183.62L310.048 183.79L312.128 185.29L313.018 184.55L317.968 184.62L318.118 184.04L317.328 183.08L317.858 181.71L319.678 181.44L320.568 180.14L323.718 179.2L325.898 179.42L327.508 179.13L328.188 179.41L327.798 179.72L328.018 180.4L328.758 180.59L329.108 180.35L330.468 181.03L331.008 180.78L331.538 181.07L332.658 180.37L332.298 179.72H339.018L339.428 177.74L339.258 175.78L351.448 175.84L351.638 177.62L351.378 177.92L352.468 179.72L380.708 179.49L379.898 175.4L379.228 174.74L379.868 173.75L379.818 173.13L380.278 172.86L380.148 170.42L381.378 168.97L382.078 165.57L382.498 164.93L381.928 162.46L380.938 160.78L380.488 159.1L381.048 158.82L381.098 158.4L385.668 158.3L386.668 156.63L386.268 155.13L387.548 154.47L388.048 153.71L389.458 153.62L389.178 152.88L388.268 152.27L388.588 151.63L387.998 151.28L386.688 148.48L387.138 147.86L386.338 145.79L387.218 140.64L386.748 139.09L388.608 134.67L390.058 133.15L389.298 131.81L389.128 130.29L426.488 130.22L427.248 126.03L434.878 126.02Z" fill="#CCCCCC" stroke="white" stroke-width="0.5"/>
<path d="M507.4 200.82L508.24 204.31L507.38 205.98L507.51 207.69L506.4 209.42L507.08 210.1L505.96 211.77L506.09 213.01L505.22 215.31L505.51 217.67L504.35 220.89L504.46 221.37L503.73 222.71L503.85 223.52L503.4 224.76L503.63 225.61L502.85 230.37L503.42 231.8L502.5 232.62L502.51 235.15L503.37 237.78L503.47 240.5L501.93 243.82L501.79 245.29L501.11 245.98L500.47 249.31L500.01 250.1L502.08 252.31L501.84 253.92L503.72 257.32L503.64 258.91L504.08 259.76L503.85 260.55L504.2 261.07L504.1 261.66L506.98 263.33L507.25 264.61L508.54 265.52L509.07 267.18L509.55 267.27L510.39 266.56L510.33 268.19L510.83 269.74L511.47 270.71L512.42 270.77L513.82 272.81L514.94 273.23L515.97 272.7L516.64 273.64L517.75 273.51L519.65 275.27L519.55 276.28L520.51 278.25L519.99 278.85L521 280L520.7 280.72L521.31 282.43L521.2 286.8L521.84 288.03L521.87 289.32L524.03 291.88L524.32 293.06L524.13 293.92L525.35 295.21L526.39 298.07L526.14 299.82L524.81 302.14L524.65 303.67L523.92 304.21L523.91 304.6L525.76 305.78L525.83 309.2L523.81 310.05L521.53 310.02L519.83 308.95L517.24 308.23L515.41 308.4L514.41 308.08L512.23 310.03L505.09 310.22L503.64 309.59L500.67 309.83L499.35 311.23L498.02 314.04L497.46 316.91L497.56 320L495.86 321.09L493.98 323.29L493.65 327.54L493.02 328.29L492.95 328.91L494.32 331.63L495.39 331.7L495.08 332.7L495.46 333.63L495.31 335.61L492.57 336.32L492.36 336.81L490.33 337.25L489.63 337.86L487.45 337.54L486.88 336.82L486.7 337.33L485.29 337.09L484.35 338.83L483.37 338.72L482.44 339.17L481.44 338.99L480.47 339.6V339.99L478.26 340.3L475.09 341.98L472.19 342.42L471.63 343.05L471.6 343.98L470.62 344.98L469.62 345.27L468.33 347.44L466.42 348.15L465.46 347.8L463.38 349.19L462.3 349.33L462.46 350.54L462.98 351.4L462.63 352.29L461.66 352.69L456.44 351.8L455.5 352.18L454.68 351.65L452.84 351.8L450.91 351.34L449.6 350.58L448.11 350.98L447.1 349.26L445.92 349.11L445.04 349.48L442.61 347.82L441.43 347.94L440.02 347.28L439.2 346.03L438.65 345.86L437.61 346.19L436.12 345.63L434.38 343.93L431.77 342.46L430.66 342.56L429.38 343.34L428.49 342.85L427.27 342.74L426.35 341.59L424.94 340.96L423.9 341.23L423.42 341.02L422.84 340.23L421.33 339.62L420.67 338.9L419.61 339.16L416.46 342.88L414.83 342.89L412.87 341.53L411.42 342.08L409.8 341.74L408.74 343.45L407.77 343.85L406.6 343.74L405.62 341.98L404.58 341.97L403.9 341.27L402.19 342.12L401.38 343.38L398.06 344.17L395.17 342.94L393.19 341.47L391.46 341.38L389.93 342.22L389.11 344.17L386.98 346.17L385.06 347.74L383.43 348.16L381.9 349.35L380.79 349.62L377.51 348.81L376.2 348.87L375.33 349.37L374.49 350.6L371.67 351.48L371.95 348.37L372.83 347.15L372.75 345.83L374.51 343.39L374.31 342.28L372.79 339.93L371.56 339.32L369.3 339.36L366.75 338.89L362.84 334.3L357.1 330.66L350.85 327.29L350.1 324.7L348.37 322.98L346.96 322.27L345.53 320.98L343.63 316.7L343.47 313.68L343.06 312.83L343.77 312.15L345.27 312.44L344.64 311.16L345.5 310.73L345.49 309.74L346.21 309.43L345.28 308.98L345.91 308.34L344.76 307.42L344.5 306.33L343.9 307.11L342.49 306.47L341.92 305.67L341.6 306.04L341.38 304.91L340.52 304.93L340.21 302.71L339.43 302.37L338.17 301.34L336.92 301.31L336.85 300.91L337.66 300.33L336.74 299.87L336.27 298.94L337.37 298.68L345.57 299.32L346.67 298.89L352.6 296.3L356.3 291.9L357.38 291.43L364.51 290.78L367.07 289.81L370.75 287.97L373.96 284.53L379.61 283.12L384.55 278.9L385.86 278.38L389.81 278.35L390.88 278.04L394.42 275L395.85 274.38L402.52 273.32L403.74 272.4L407.21 268.68L408.79 266.37L409.39 264.84L411.05 252.39L416.88 247.01L422.2 242.79L423.36 242.23L428.25 241.96L429.32 241.19L430.22 240.1L430.48 237.97L431.91 234.5L433.16 233.79L436.76 233.34L438.12 232.03L440.66 230.38L444.33 229.9L446.69 228.55L448.64 222.33L451.88 217.14L452.94 216.13L456.7 214.35L457.67 212.14L462.25 209.72L464.37 209.81L465.85 209.45L468.56 207.89L472.07 208.32L473.16 207.51L474.53 207.25L479.35 208.47L488.79 206.81L491 203.36L492.13 202.51L496.91 200.74L499.51 201.38L500.58 201.15L502.82 197.49L505.55 196.2L506.75 195.26L507.13 196.12L506.24 197.36L506.18 198.7L507.4 200.82Z" fill="#CCCCCC" stroke="white" stroke-width="0.5"/>
<path d="M204.82 190.13L210.25 190.92L211.5 190.07L212.41 188.83L213.65 188.25L215.98 188.38L217.06 187.79L219.01 185.65L219.68 183.39L219.84 180.57L221.26 178.46L221.35 177.31L220.53 172.43L217.3 162.98L217.32 160.46L220.18 159.06L221.69 158.87L223.87 159.19L225.07 158.73L226.1 157.56L227.24 157.38L228.48 156.67L230.84 153.33L231.95 151.04L234.05 149.5L243.25 146.1L245.41 146.52L246.52 147.36L247.91 151.01L248.95 151.96L252.89 157.63L255.06 159.48L258.35 160.13L260.55 159.52L261.79 158.46L262.48 156.29L262.54 152.69L263.35 151.63L265.67 149.73L266.88 149.21L268.41 149.05L269.36 149.64L269.06 150.93L269.32 151.32L270.27 151.29L270.87 150.34L271.65 151.31L272.54 151.38L273.01 151.93L272.84 152.47L271.6 152.74L271.32 153.52L271.93 154.2L273.57 154.98L273.84 155.61L273.48 156.63L274.59 158.86L276.04 160.11L278.31 161.09L278.82 161.77L278.5 163.89L278.06 164.37L278.82 165.05L279.37 164.93L279.49 165.69L280.04 165.72L279.57 167.78L280.68 168.75L282.87 169.45L282.78 170.86L283.98 170.95L283.58 171.89L284.43 171.67L284.99 171.93L284.66 173.27L285.68 173.42L286.15 173.95L285.53 176.13L286.3 176.95L286.97 176.99L286.81 177.72L287.6 177.27L287.87 177.44L287.98 179.64L287.57 179.72L288.74 180.37L289.97 181.89L289.9 182.13L289.22 182.02L288.6 183.12L288.64 183.82L289.76 184.29L290.12 185.06L289.59 186.51L289.71 187.05L290.26 187.16L291.13 188.33L291.19 188.9L290.42 189.53L290.72 190.52L290.56 191.67L291.27 196.34L292.01 197.16L290.3 199.35L289.6 202.77L290.82 206.68L293.09 208.14L292.78 210.38L293.4 212.68L292.82 214.81L293.27 218.06L293.14 220.17L291.67 227.98L292.17 229.19L292.4 231.5L293.35 233.91L293.06 235L291.37 237.36L291.44 239.67L290.42 241.02L288.19 241.36L282.31 243.58L280.01 245.51L280.25 247.86L281.29 248.94L281.66 251.27L282.74 252.32L283.89 254.59L284.28 256.86L283.84 258.04L284.54 259.15L286.91 259.63L287.62 261.84L288.7 262.64L293.14 263.78L293.54 264.94L294.56 266.06L294.38 268.31L295.19 269.39L298.87 268.83L303.61 271.06L305.25 276.33L306.18 277.43L307.63 277.79L307.93 279.49L309.99 282.55L310.02 283.52L309.22 284.62L309.42 285.09L309.08 286.21L309.4 287.07L310.62 287.7L311.73 290.63L312.77 291.18L313.66 292.7L314.41 293.34L316.65 294.14L316.68 295.59L311.62 300.25L311.78 301.05L313.78 303.15L313.77 304.21L314.93 304.68L317.13 304.77L318.18 305.27L321.52 307.67L322.67 309.05L323.85 309.27L328.35 312.15L329.42 312.3L335.42 311.82L336.6 309.43L335.95 308.19L334.87 307.55L334.5 306.35L335.84 304.11L338.1 303.32L339.43 302.37L340.21 302.71L340.52 304.93L341.38 304.91L341.6 306.04L341.92 305.67L342.49 306.47L343.9 307.11L344.5 306.33L344.76 307.42L345.91 308.34L345.28 308.98L346.21 309.43L345.49 309.74L345.5 310.73L344.64 311.16L345.27 312.44L343.77 312.15L343.06 312.83L343.47 313.68L343.63 316.7L345.53 320.98L346.96 322.27L348.37 322.98L350.1 324.7L350.85 327.29L351.23 328.34L350.49 329.67L350.17 332L350.56 334.37L351.98 336.38L350.98 340.23L351.5 341.09L352.87 341.8L354.16 343.25L354.14 344.5L354.81 346.22L354.28 347.28L353.13 347.5L352.04 346.97L349.82 346.81L343.54 348.71L339.4 350.64L335.36 354.82L334.28 355.67L333.2 355.96L330.71 355.64L329.51 355.89L327.01 354.79L320.69 356.38L317.2 355.7L315.39 356.64L314.53 356.1L314.13 355.14L313.25 354.64L311.08 355.16L308.81 354.74L308.31 353.87L308.42 351.44L307.35 349.08L304.63 346.73L305.43 350.12L305.71 354.08L305.38 355.55L300.68 359.56L300.55 360.62L299.46 361.77L298.35 361.79L297.2 362.38L296.87 363.55L295.88 364.59L293.7 364.84L292.99 365.48L292.03 365.08L290.95 363.9L288.57 363.51L288.3 363.09L289.42 360.77L288.7 358.76L287.57 357.12L287.49 355.95L288.22 354.59L289.9 353.48L289.5 352.55L288.2 353.29L287.86 352.93L288.02 351.45L289.05 350.41L289.54 348.15L287.01 344.49L286.4 342.39L286.37 340.7L285.99 340.38L284.33 340.46L282.92 339.78L282.73 339.3L283.74 338.94L284.17 337.98L285.83 337.6L286.3 334.69L285.81 333.1L284.79 332.04L284.27 330.53L282.74 329.27L282.63 326.28L282.13 325.38L279.36 323.3L278.05 321.87L274.97 322.05L272.06 321.07L271.72 319.42L269.48 319.43L268.79 320.79L267.81 320.43L265.5 318.64L262.49 317.48L258.36 316.75L255.08 317.43L252.83 317.11L249.91 313.87L247.27 312.98L246.86 311.5L245.38 311.24L244.93 309.65L245.11 309.13L245.98 308.64L245.79 308.12L244.43 307.27L243.12 305.29L241.9 304.4L239.76 301.76L238.69 300.06L236.66 299.46L236.38 298.47L236.61 296L235.76 295.46L235.4 294.43L234.12 293L232.3 292.8L231.52 292.23L230.89 288.44L231.24 287.46L233.24 285.96L233.54 285.2L232.25 282.55L231.94 279.46L229.83 276.75L230.24 273.71L229.37 272.54L227.23 271.62L226.19 270.78L225.45 268.44L223.64 266.24L218.39 265.69L214.97 264.92L210.07 265.6L206.63 264.59L205.4 264.73L203.12 267.89L199.51 268.11L196.16 267.49L193.85 267.95L192.69 267.67L190.43 268.2L188.27 267.95L186.07 268.37L183.57 269.36L181.85 269.46L179.82 269.42L178.91 268.95L177.77 269.18L175.68 268.89L174.2 267.67L173.23 267.64L172.23 266.59L171.25 266.19L170.5 265.23L173.11 262.95L173.41 261.9L172.81 258.37L172.12 257.25L170.97 256.41L170.86 255.35L174.3 252.32L173.74 249.92L170.85 247.83L172.41 247.22L174.15 247.54L176.94 247.03L177.19 243.92L177.67 242.34L179.05 241L180.56 240.46L182.97 240.49L183.9 240.08L185.31 238.71L187.03 238.61L189.01 237.19L189.63 237.21L190.84 238.09L191.77 238.12L192.7 237.76L195.16 237.85L196.84 236.74L197.25 233.78L196.68 230.29L197.49 228.09L198.07 223.4L199.88 217.72L201.34 215.47L200.27 213.02L197.81 212.86L196.73 212.13L195.36 209.26L198.62 204.64L198.36 202.42L204.75 200.84L206.07 199.3L205.39 198.34L205.71 196.94L205.1 196.18L205.36 194.14L204.71 192.81L204.82 190.13Z" fill="#CCCCCC" stroke="white" stroke-width="0.5"/>
<path d="M371.668 351.48L374.488 350.6L375.328 349.37L376.198 348.87L377.508 348.81L380.788 349.62L381.898 349.35L383.428 348.16L385.058 347.74L386.978 346.17L389.108 344.17L389.928 342.22L391.458 341.38L393.188 341.47L395.168 342.94L398.058 344.17L401.378 343.38L402.188 342.12L403.898 341.27L404.578 341.97L405.618 341.98L406.598 343.74L407.768 343.85L408.738 343.45L409.798 341.74L411.418 342.08L412.868 341.53L414.828 342.89L416.458 342.88L419.608 339.16L420.668 338.9L421.328 339.62L422.838 340.23L423.418 341.02L423.898 341.23L424.938 340.96L426.348 341.59L427.268 342.74L428.488 342.85L429.378 343.34L430.658 342.56L431.768 342.46L434.378 343.93L436.118 345.63L437.608 346.19L438.648 345.86L439.198 346.03L440.018 347.28L441.428 347.94L442.608 347.82L445.038 349.48L445.918 349.11L447.098 349.26L448.108 350.98L449.598 350.58L450.908 351.34L452.838 351.8L454.678 351.65L455.498 352.18L456.438 351.8L461.658 352.69L462.628 352.29L462.978 351.4L462.458 350.54L462.298 349.33L463.378 349.19L465.458 347.8L466.418 348.15L468.328 347.44L469.618 345.27L470.618 344.98L471.598 343.98L471.628 343.05L472.188 342.42L475.088 341.98L478.258 340.3L480.468 339.99V339.6L481.438 338.99L482.438 339.17L483.368 338.72L484.348 338.83L485.288 337.09L486.698 337.33L486.878 336.82L487.448 337.54L489.628 337.86L490.328 337.25L492.358 336.81L492.568 336.32L495.308 335.61L495.458 333.63L495.078 332.7L495.388 331.7L494.318 331.63L492.948 328.91L493.018 328.29L493.648 327.54L493.978 323.29L495.858 321.09L497.558 320L497.458 316.91L498.018 314.04L499.348 311.23L500.668 309.83L503.638 309.59L505.088 310.22L512.228 310.03L514.408 308.08L515.408 308.4L517.238 308.23L519.828 308.95L521.528 310.02L523.808 310.05L525.828 309.2L525.708 312.57L526.208 313.26L526.698 315.79L526.378 317.37L525.088 318.35L523.368 318.52L521.638 319.37L519.128 321.34L518.808 322.47L519.188 324.1L520.378 325.98L520.418 328.62L521.068 330.49L521.108 333.93L523.218 337L523.528 338.46L522.988 340.05L523.938 341.18L524.998 340.9L526.708 339.06L527.538 337.53L531.768 337.45L534.618 334.73L534.768 333.61L534.328 332.14L534.748 331.29L535.368 330.83L537.938 330.24L539.078 330.51L542.438 332.84L545.878 334.21L549.338 334.28L550.188 332.87L551.298 332.76L552.978 331.81L554.778 332.78L557.478 333.62L560.218 333.72L563.658 334.91L567.018 333.37L569.538 333.82L573.768 330.27L580.988 325.63L584.448 326.04L586.158 326.7L588.378 328.38L590.528 328.25L592.658 329.13L594.418 329.11L596.268 328.33L599.718 330.11L601.528 330.1L602.528 329.59L603.378 328.13L606.088 326.47L606.868 325.65L607.818 323.57L608.608 323.31L608.158 324.4L609.588 325.67L609.818 326.11L609.568 326.75L610.078 327.19L609.388 331.19L609.738 333.49L609.098 334.78L610.378 335.62L610.548 336.19L610.648 342.47L611.788 344.38L612.868 348.58L612.318 349.61L611.108 350.07L610.348 350.93L610.128 352.17L610.618 354.89L608.988 357.89L608.368 360.53L607.398 361.47L608.588 364.24L608.728 366.09L610.038 369.82L609.818 370.42L608.948 371.06L608.328 373.81L607.988 384.29L608.118 386.43L609.518 389.51L612.208 392L611.988 392.53L612.428 393.92L611.448 395.12L612.478 395.91L612.668 397.07L612.408 399.52L610.118 401.24L609.428 402.8L608.608 403.25L608.388 404.11L607.408 404.5L607.208 405.4L606.638 406.07L606.858 409.26L605.388 411.85L605.528 414.01L604.538 416.49L604.068 420.52L604.138 421.11L605.158 421.91L605.418 422.6L607.698 423.77L610.068 426.2L610.808 428.41L510.218 429.12L510.208 589.55L508.518 587.94L501.848 584.18L501.568 582.41L500.878 581.7L500.988 580.51L499.408 579.25L498.668 577.88L498.478 576.28L497.768 575.61H496.548L496.188 575.26V574.1L495.738 573.12L496.068 572.21L494.248 571.2L492.948 571.16L490.808 569.09L489.488 565.53L487.918 564.3L488.208 562.14L486.598 560.91L485.728 559.01L485.318 558.7L484.148 558.69L483.448 557.96L483.218 556.84L483.508 553.68L482.678 551.71L481.738 551.29L481.178 550.49L478.788 550.16L477.288 548.84L476.178 548.54L474.488 546.69L473.018 541.94L471.298 540.89L468.918 541.05L468.268 540.17L468.658 538.57L468.208 538.47L467.328 539.02L466.318 538.62L465.058 536.4L463.818 535.48L461.648 532.79L459.108 532.11L457.888 531.27L457.368 530.35L456.448 530.77L455.238 530.79L453.428 529.11L452.268 529.1L451.818 530.04L451.278 530.21L446.558 529.24L445.628 528.08L444.658 527.72L442.758 528.62L441.108 528.25L438.758 529.38L435.998 528.73L433.078 529.93L428.578 528.87L424.798 529.23L422.008 527.75L419.778 527.24L415.708 525L414.228 523L412.238 521.55L410.838 519.14L409.688 518.85L409.208 518.02L408.178 518.36L407.658 518.17L407.628 516.92L406.528 516.98L405.868 515.49L402.568 513.22L402.228 512.31L401.048 511.37L400.618 510.45L399.148 509.78L398.708 508.21L396.498 506.96L394.928 502.99L393.408 501.72L392.848 498.8L390.188 496.62L389.238 494.11L388.508 493.29L382.798 494.47L380.618 493.76L379.018 494.02L377.818 493.76L375.648 491.93L374.498 491.5L373.418 491.86L370.778 493.29L370.858 495.44L372.528 501.37L365.558 497.61L364.398 497.69L359.488 499.57L358.988 499.63L357.588 498.65L357.018 498.66L357.108 498.04L356.028 496.95L356.008 496.09L354.878 495.02L354.798 493.43L353.848 492.89L352.698 490.51L352.478 488.84L352.948 487.85L351.498 483.97L352.018 482.42L351.818 481.93L349.348 478.39L348.998 476.69L348.138 475.46L345.928 474.12L345.568 472.76L344.738 472.12L343.968 472.39L343.278 471.55L341.238 470.23L340.418 469.14L339.308 468.72L336.998 469.59L335.868 469.18L331.148 465.72L328.888 464.57L325.578 465.32L324.428 465.26L310.798 457.39L310.708 456.31L310.108 455.19L311.818 452.42L311.438 451.02L309.898 448.74L313.188 445.86L317.078 444.48L317.398 443.4L317.128 441.05L314.558 436.48L316.378 434.19L315.738 432.83L319.238 431.26L319.688 429.05L320.788 427.97L322.018 427.61L322.458 426.48L322.288 425.4L320.408 421.91L320.388 420.6L321.598 419.54L322.268 420.66L326.038 417.03L328.308 415.81L328.708 414.75L328.198 412.4L332.118 408.14L333.748 405.88L334.078 404.71L333.668 402.33L334.648 401.28L339.728 396.56L342.428 396.16L343.648 395.17L344.508 393.62L345.748 392.71L348.388 392.2L349.258 391.14L349.588 389.83L348.538 388.88L348.578 387.72L355.008 381.95L355.958 380.69L356.088 378.84L354.638 376.4L354.448 375.08L354.908 373.88L355.868 372.59L356.948 372.02L357.718 368.72L358.518 367.57L359.768 368.13L360.938 368.04L361.658 366.92L361.458 365.85L360.398 364.9L360.198 363.83L361.288 363.26L364.708 363.11L365.798 362.02L366.218 360.93L366.568 356.55L367.058 355.49L369.298 353.33L370.288 351.83L371.668 351.48Z" fill="#CCCCCC" stroke="white" stroke-width="0.5"/>
<path d="M2.54 606.62L3.32 606.78L3.46 607.28L3.42 609.11L3.69 609.58L3.27 610.5L3.87 611.76L3.83 614.67L4.32 615.45L4.4 617.06L3.07 615.77L1 610.09L1.01 608.06L1.72 607.08L2.54 606.62ZM44.17 455.47L47.6 455.5L49.85 456.37L53.36 456.7L55.62 457.8L58.16 457.85L60.25 459.72L61.32 460.17L65.6 458.19L69.25 457.17L70.1 454.87L71.32 454.67L73.55 455.75L77.3 456.05L80.65 457.04L81.75 457.66L82.06 458.85L80.94 461.2L80.72 462.38L81.06 463.46L83.85 467L85.37 470.59L86.56 471.35L88.77 470.08L90.02 470.33L92.18 471.65L93.25 471.89L94.66 471.58L95.55 474.31L97.7 475.77L98.05 476.96L97.73 478.1L95.55 481.67L95.11 483.25L96.3 485.61L96.98 488.02L96.17 490.57L96.65 491.79L97.81 492.59L98.92 492L100.08 492.52L99.68 495L100.17 497.21L100.36 501.42L97.62 505.16L97.35 509.95L94.88 515.74L91.95 517.76L88.25 519.39L84.66 522.19L83.71 523.46L81.34 523.82L79.34 525.99V527.39L80.58 530.98L78.54 533.39L78.18 534.63L81.1 538.07L80.72 539.27L77.04 541.38L77.13 542.57L78.25 543.59L80.63 542.94L82.05 543.22L82.24 544.87L81.88 546.21L82.92 547.47L84.08 547.37L85.3 546.54L85.82 545.47L87.19 545.8L87.95 548.13L87.3 550.59L88.04 551.73L90.39 553.58L94.14 554.99L93.83 567.16L94.07 568.28L96.45 571.93L92.59 578.82L90.75 583.48L91.24 585.78L93.23 589.44L93.16 590.53L92.06 591.58L91.63 592.69L90.34 593.39L86.34 597.96L85.4 598.03L83.95 599.38L83.4 598.67L82.62 600.22L81.06 600.31L79.95 602.03L78.47 602.23L77.68 602.84L76.55 604.59L78.56 606.51L79.27 607.66L79.5 608.81L77.73 611.35L76.49 612.19L75.37 612.33L74.23 613.44L73.23 615.73L73.61 616.97L74.62 618.24L81.76 625.36L83.1 627.87L83.3 630.48L83.77 630.57L80.77 631.14L79.87 631.66L77.78 630.93L76.7 631.02L76.16 630L75.65 630.29L73.61 629.81L71.29 630.73L69.87 630.51L65.76 631.03L63.91 632.77L62.55 632.92L61.5 634.03L60.46 634.21L60.23 635.18L58.83 636.1L57.84 636.29L57.01 637.76L55.62 638.07L52.29 640.5L51.7 640.39L49.53 641.34L47.56 642.58L47.03 643.68L45.88 643.66L45.18 644.28L44.33 644.16L43.38 644.61L41.83 644.6L41.35 644.25L39.52 645.41L38.96 645.18L38.73 642.97L38.29 642.6L37.29 642.47L36.94 643.16L36.36 643.13L35.85 643.68L34.72 643.11L31.65 644.11L30.68 643.75L29.62 644.01L26.57 641.99L25.56 640.01L24.17 640.27L22.7 640.03L21.4 639.27L20.54 639.86L19.6 639.68L17.41 640.65L14.72 641.21L12.65 642.41L11.47 643.73L10.32 644.2L9.18 643.96L8.37 645.34L7.92 645.52L6.85 645.55L4.98 644.62L4.99 633.38L5.52 628.74L6.47 625.57L5.92 620.47L6.74 619.84L6.52 620.3L6.95 620.34L6.59 620.7L6.28 622.73L6.85 622.67L7.58 621.83L7.92 620.62L8.47 616.88L8.11 615.5L8.26 615.32L8.49 615.23L8.5 613.34L8.06 612.64L8.49 612.23L8.08 611.07L8.33 611L8.66 603.94L6.85 587.44L6.84 585.4L7.62 581.82L6.42 579.27L4.22 576.06L4 574.41L4.93 571.65L6.27 569.7L6.67 569.59L6.66 570.01L7.19 570.24L8.88 569.56L10.1 569.59L9.98 569.9L8.87 569.67L7.87 570.14L7.93 570.47L8.64 570.71L9.83 570.6L11.45 569.75L12.11 568.18L12.8 567.77L13.62 564.26L15.59 563.37L17 561.96L17.45 560L18.2 558.76L18.75 554.61L18.71 549.99L19.35 547.76L19.86 547.24L19.94 541.75L21.76 540.13L22.46 540.12L23.43 539.35L24.18 539.9L24.8 539.21L24.95 538.08L24.29 536.46L23.96 536.28L23.55 536.83L22.74 536.8L23.03 535.5L23.48 534.16L24.01 533.75L24.53 531.96L25.57 530.99L25.3 529.14L25.67 527.87L26.74 527.32L27.3 524.86L27.83 524.66L27.67 522.24L28.16 521.58L29.47 521.23L30.28 518.95L31.39 517.49L31.27 516.05L30.59 514.66L31.81 513.13L31.6 511.16L32.04 510.47L32.38 508.3L32.94 505.07L33.78 503.33L33.84 501.95L34.31 501.84L34.93 497.81L34.6 496.41L35.44 495.13L35.18 494.22L35.45 493.83L34.7 492.9L34.74 491.65L33.74 490.23L33.59 489.05L33.63 488.57L34.19 488.85L35.07 488.44L35.54 487.16L34.65 484.45L35.05 482.3L35.84 481.95L36.58 480.97L37.02 478.22L36.76 478.08L36.84 477.15L37.32 476.79L37.5 477.11L38.24 476.35L37.83 474.16L38.02 473.14L41.59 472.61L41.23 473.26L42.44 473.36L43.3 471.59L42.83 471.39L42.93 469.71L43.19 468.46L42.96 467.47L43.47 466.53L43.18 466.32L43.6 463.84L43.39 462.9L43.83 460.93L43.26 460.59L43.32 459.71L43.55 459.05L44.4 458.53L44.39 457.63L44.58 456.9L44.02 456.7L43.83 456.17L44.17 455.47Z" fill="#CCCCCC" stroke="white" stroke-width="0.5"/>
<path d="M233.411 74.55L234.361 75.53L236.271 75.91L239.641 75.04L243.981 77.02L244.031 78.18L243.461 79.39L243.581 79.96L244.301 80.28L243.911 81.12L244.381 83.03L243.951 83.92L244.121 84.25L245.381 84.04L245.621 84.37L245.241 84.73L244.391 84.74L244.331 85.25L246.161 85.8L246.421 86.29L246.241 87.3L246.931 87.15L247.481 87.82L248.421 87.9L249.991 89.2L249.971 89.89L250.451 90.58L249.441 92.63L249.841 93.81L249.391 95.35L250.161 97.98L249.711 98.83L248.431 98.54L248.351 98.97L249.091 99.59L248.471 101.01L249.821 101.22L250.521 101.99L249.481 103.01L250.631 104.38L250.271 105.7L252.031 107.06L251.351 108.91L251.461 109.56L252.701 110.29L253.551 114.66L253.911 115.48L255.381 116.28L255.671 119.04L257.391 120.71L257.621 122.76L258.561 123.32L259.551 123.06L260.781 124.14L260.611 126.13L261.111 126.89L260.701 128.65L261.261 129.37L262.381 129.63L262.871 131.47L261.931 134.19L261.201 134.03L260.931 133.35L260.211 133.7L260.171 134.48L261.291 136.55L261.431 137.85L262.261 138.72L261.491 139.63L261.441 140.36L263.161 141.71L263.911 143.32L263.991 145.13L265.221 145.02L265.951 146.17L266.911 146.48L267.491 147.24L269.121 147.41L269.461 147.97L269.361 149.64L268.411 149.05L266.881 149.21L265.671 149.73L263.351 151.63L262.541 152.69L262.481 156.29L261.791 158.46L260.551 159.52L258.351 160.13L255.061 159.48L252.891 157.63L248.951 151.96L247.911 151.01L246.521 147.36L245.411 146.52L243.251 146.1L234.051 149.5L231.951 151.04L230.841 153.33L228.481 156.67L227.241 157.38L226.101 157.56L225.071 158.73L223.871 159.19L221.691 158.87L220.181 159.06L217.321 160.46L217.301 162.98L220.531 172.43L221.351 177.31L221.261 178.46L219.841 180.57L219.681 183.39L219.011 185.65L217.061 187.79L215.981 188.38L213.651 188.25L212.411 188.83L211.501 190.07L210.251 190.92L204.821 190.13L204.581 185.35L203.911 184.65L203.391 184.75L203.141 185.21L202.591 185.06L201.951 183.25L201.941 182.72L203.371 182.46L203.361 182.02L201.591 181.06L200.591 179.97L196.061 180.04L194.311 181.69L191.411 182.6L189.681 182.49L187.931 181.75L187.521 180.1L187.661 178.46L186.841 177.22L185.391 176.44L179.411 176.59L174.911 177.66L175.301 180.26L174.261 181.94L174.101 183.19L174.421 183.53L175.391 183.19L176.461 184.23L176.411 184.81L175.341 186.45L175.291 189.54L174.881 189.74L174.441 191.03L173.511 191.17L173.171 192.21L171.871 192.32L171.211 194.41L168.491 194.09L165.921 195.32L163.431 193.69L160.911 193.45L159.151 195.11L158.631 197L156.691 199.16L154.301 200.12L152.541 199.97L150.611 199.12L148.781 199.43L148.141 197.48L147.251 194.71L147.311 192.17L147.951 189.87L150.991 185.29L151.311 184.18L151.131 180.88L151.751 176.14L151.501 174.86L150.361 173.91L147.961 173.61L140.651 175.15L137.181 174.81L134.781 173.38L132.451 172.73L131.351 171.95L127.531 167.15L126.431 166.37L125.611 165.23L124.541 164.85L123.471 163.91L123.501 162.82L122.541 161.69L121.461 161.34L119.321 161.54L114.761 161.15L113.631 161.54L111.461 161.26L109.241 161.46L107.181 160.92L108.231 157.82L109.671 157.23L111.821 157.1L113.371 155.24L113.861 155.32L114.311 154.45L113.671 153.35L111.571 151.99L111.021 150.89V149.81L109.061 147.84L108.991 146.62L109.811 144.4L112.771 141.04L112.941 139.85L110.791 138.43L108.821 136.38L107.681 131.73L106.141 129.28L106.741 128.76L108.521 128.51L110.791 128.58L111.231 128.87L112.871 128.61L117.261 124.84L123.161 123.29L125.621 121.7L127.711 121.15L128.691 118.68L129.581 117.55L129.741 116.48L132.621 114.6L133.671 114.32L137.211 114.7L140.521 113.23L142.561 110.64L146.001 110.78L149.421 110.12L154.241 108.16L159.801 99.36L161.761 97.85L164.401 94.2L160.611 91.64L159.751 90.56L159.711 86.68L159.091 84.4L157.871 82.14L153.841 76.72L153.391 75.18L170.971 74.7L191.041 74.96L198.151 74.63L207.361 75.15L226.691 74.48L233.411 74.55Z" fill="#CCCCCC" stroke="white" stroke-width="0.5"/>
<path d="M33.5697 84.83L33.0397 86.29L31.8397 86.39L32.4597 86.58L32.9097 86.62L32.5997 87.97L32.3497 88.34L31.6497 88.11L30.9497 88.6L30.6797 87.81L30.8197 86.41L33.5697 84.83ZM115.14 73.23L117.7 75.33L119.71 74.44L123.9 74.57L124.55 74.22L127.23 75.58L130.37 75.24L133.86 75.92L138.43 76.17L140.92 75.64L145.16 76.62L150.28 75.18L153.39 75.19L153.84 76.74L157.87 82.16L159.09 84.42L159.72 86.71L159.76 90.58L160.61 91.66L164.4 94.22L161.76 97.88L159.8 99.39L154.24 108.19L149.42 110.15L146 110.81L142.56 110.67L140.51 113.26L137.2 114.73L133.67 114.35L132.62 114.64L129.74 116.52L129.58 117.59L128.69 118.73L127.71 121.2L125.62 121.75L123.16 123.34L117.26 124.89L112.87 128.66L111.23 128.92L110.79 128.63L108.52 128.56L106.74 128.81L106.14 129.33L107.68 131.78L108.82 136.42L110.79 138.48L112.94 139.89L112.77 141.08L109.81 144.44L109 146.66L109.07 147.88L111.03 149.84V150.92L111.58 152.02L113.68 153.38L114.32 154.48L113.87 155.36L113.38 155.28L111.83 157.13L109.69 157.27L108.25 157.86L107.2 160.96L102.49 163.69L101.33 163.8L100.39 163.39L98.8897 163.76L97.4197 165.03L96.4697 164.93L95.6397 165.48L92.9897 165.84L91.8297 166.72H89.5097L87.2497 164.85L86.2397 164.51L81.9797 165.69L80.9097 167.31L79.0197 166.58L77.2697 168.24L75.3497 169.04L70.8797 169.92L69.8397 168.4L69.4797 166.28L69.4297 165.86L67.8697 162.83L67.5297 161.16L66.4397 159.92L66.9297 158.74L65.8997 157.71L64.1297 153.04L63.3597 151.72L62.2797 146.86L59.3097 143.64L59.1597 142.47L59.4897 141.33L59.1797 140.48L58.8097 137.83L59.1697 135.8L58.0697 131.72L58.1497 130.01L56.9697 128.17L56.8897 127.79L54.6397 125.2L54.0497 123.72L44.9697 113.75L44.6297 112.23L41.9497 108.18L36.7297 97.01L31.3297 89.13L31.9197 89.16L32.4697 88.7L33.0397 87.72L34.0097 87.98L34.2297 87.84L33.1397 87.43L33.2497 86.9L34.5597 87.07L35.7097 86.54L37.1997 86.87L37.2397 86.82L36.9297 86.48L38.5297 86.17L39.5997 86.54L40.0797 86.81L39.5897 85.05L43.9797 83.82L47.8597 81.97L51.7397 81.58L54.4097 79.99L57.9897 79.73L61.3397 78.48L67.9297 74.87L70.4697 74.84L71.6097 75.9L72.5997 76.23L75.6297 74.95L78.7697 74.47L84.2597 76.22L85.3797 75L86.0697 74.73L91.5497 74.65L93.5997 75.15L94.8097 74.91L107.45 74.96L110.69 73.99L113.48 74.12L115.14 73.23Z" fill="#CCCCCC" stroke="white" stroke-width="0.5"/>
</svg>
