<svg width="614" height="315" viewBox="0 0 614 315" fill="none" xmlns="http://www.w3.org/2000/svg">
<path d="M605.79 109.35L607.55 112L606.05 113.1L607.03 115.24L605.65 116.5L607.1 117.65L605.71 119.28L607.46 120.55L609.13 119.35L613 122.21L607.72 126.56L609.45 127.78L607.52 130.77L609.26 131.87L607 137.89L601.57 138.72L600.97 139.87L604.29 142.32L603.92 143.51L606.03 145.82L604.27 147.67L605.74 155.44L607.35 157.69L590.78 160.05L589.86 159.87L589.38 156.2L586.3 160.71L580.02 160.86L577.67 154.79L572.66 153.8L570.81 151.71L568.67 151.45L563.94 152.62L563.38 157.35L559.89 158.41L558.06 160.93L555.89 159.06L555.56 161.82L553.97 162.77L558.63 164.58L559.19 165.79L562.41 165.5L566.44 168.28L570.3 167.16L572.21 167.79L573.77 169.94L574.11 173.04L573.16 174.31L577.26 177.63L575.16 181.11L572.21 182.33L573.6 185.39L572.96 187.51L567.14 191.4L566.23 193.26L561 193.03L559.9 195.33L558.98 193.32L555.85 193.19L557.07 196.22L556.31 199.18L554.81 199.67L557.2 201.72L559.24 208.16L557.47 211.4L554.6 211.5L555.18 215.55L553.34 216.97L554.33 219.37L556.37 219.01L557.14 221.33L556.43 224.36L561.39 223.69L562.43 226.21L560.21 226.57L560.09 228.19L557.07 230.04L557.91 232.42L561.71 234.3L555.46 236.6L555.2 237.54L555.92 238.35L557.41 237.44L561.11 240.76L558.82 241.69L556 240.4L555.84 241.65L554.53 241.86L553.05 240.42L549.88 241.21L548.04 239.87L547.38 241.53L544.23 241.19L543.46 239.4L542.04 245.37L540.36 245.38L537.86 248.41L535.88 248.01L534.45 251.78L530.73 255.48L527.41 256.94L524.88 259.91L519.99 260.27L521.34 254.58L525.08 251.2L525.85 248.74L527.61 248.43L529.82 242.37L532.66 241.89L530.45 239.65L529.21 237.26L529.86 235.92L527.28 231.85L529.41 223.84L526.36 214.55L527.15 213.68L526.31 210.77L526.59 210.37L522.83 200.6V199.4L522.68 196.45L525.37 195.88L526.82 193.25L527.73 193.4L526.71 194.62L527.59 195.42L528.87 192.49L533.67 191.43L537.99 190.89L542.57 187.58L547.25 180.51L544.91 176.97L545.23 174.59L546.54 170.7L549.8 167.79L549.95 165.34L548.25 162.12L548.7 161.11L544.71 160.21L543.31 155.43L544.37 148.74L541.57 147.75L542.97 145.6L545.18 146.17L544.65 148.06L546.1 148.24L551.13 141.82L548.12 139.08L551.11 137.06L553.09 137.26L553.65 135.15L553.99 134.47L553.5 133.75L555.95 130.92L561.61 129.88L566.45 136.57L570.61 131.52L570.5 129.56L575.99 127.16L576.67 121.59L580.51 121.62L583.8 119.62L586.39 119.81L587.64 116.68L591.33 114.2L593.47 114.98L593.59 117.06L597.8 118.18L597.53 119.92L598.48 120.28L601.27 114.24L597.6 111.61L598.04 110.6L598.99 109.78L600.5 111.24L601.81 110.66L600.4 112.21L602.88 112.85L605.45 108.94L605.79 109.35Z" fill="#CCCCCC" stroke="white" stroke-width="0.5"/>
<path d="M252.289 229.11L253.689 226.7L258.909 225.62L259.329 228.91L263.549 230.04L266.019 229.52L268.019 231.45L273.879 231.48L275.249 232.01L277.559 236.42L281.289 235.86L282.239 237.66L284.959 238.9L300.199 235.39L300.139 231.51L302.359 229.94L305.209 231L309.399 229.59L312.229 232.89L314.569 231.56L317.199 231.74L326.509 234.92L330.989 234.46L332.149 236.39L335.759 236.37L335.919 240.31L338.889 242.26L340.709 241.99L342.999 247.51L345.659 250.55L348.269 251.49L349.569 250.28L354.809 250.18L353.659 248.15L356.389 247.75V245.84L360.959 244.18L361.549 240.47L365.529 240.04L370.219 236.03L370.809 233.81L373.359 234.9L376.559 232.32L378.999 237.88L380.379 236.86L381.429 238.05L389.609 238.22L390.849 239.28L390.919 243.22L392.299 243.39L394.659 241.04L396.769 241.67L396.789 239.76L398.039 240.1L398.399 238.33L400.479 237.94L401.419 239.84L407.139 239.56L409.389 241.36L410.419 239.28L427.679 235.23L428.249 237.47L432.649 241.06L436.889 242.25L439.579 248.27L442.339 251.49L440.659 255.52L441.289 260.33L439.289 261.57L438.219 265.87L442.489 267.87L443.749 274.3L441.959 279.06L444.239 279.5L445.469 281.52L441.419 282.81L438.399 287.21L436.539 284.22L434.739 285.72L433.989 285.1L433.719 287.56L431.339 286.26L429.529 287.21L426.929 291.64L425.579 298.11L420.139 299.45L419.499 298.56L418.469 300.42L417.339 298.94L416.209 303.3L414.919 302.89L413.179 305.56L407.129 307.33L407.199 311.39L405.279 313.84L402.009 307.88L399.699 309.2L395.929 308.17L394.659 305.35L385.249 307.21L383.109 305.69L379.329 306.95L377.779 305.72L372.919 306.74L369.679 301.81L364.419 300.01L360.959 301.3L353.249 296.66L346.899 296.85L343.889 298.46L338.039 296.48L334.739 296.76L329.769 294.5L326.039 294.95L325.109 293.35L321.669 293.87L320.469 291.63L314.389 292.72L312.879 292.23L313.039 290.99L310.169 290.18L309.999 291.6L307.929 291.37L306.079 293.37L302.109 292.25L299.459 293.35L293.759 289.06L287.259 287.47L284.239 288.31L274.659 286.46L268.099 286.89L267.099 284.08L261.389 282.03L258.849 283.47L255.669 280.88L255.739 276.32L256.279 275.45L258.109 275.78L257.009 274.36L257.629 271.49L264.859 269.17L267.819 270.15L272.309 267.2L274.849 268.58L277.679 265.14L268.079 257.4L267.339 250.97L264.189 249.89L260.099 245.55L258.319 241.49L262.179 236.2L257.709 235.75L256.369 232.24L252.289 229.11Z" fill="#CCCCCC" stroke="white" stroke-width="0.5"/>
<path d="M442.979 1.07L445.419 1L445.719 2.92L448.449 3.58L450.869 2.74L452.759 3.68L452.259 5.19L453.789 7.51L453.099 9.81L455.409 9.73L458.209 7.67L461.169 8.47L462.549 3.46L464.029 5.23L469.579 5.06L474.249 8.74L476.699 9.49L477.709 8.7L480.299 10.57L481.379 13.37L486.449 15.43L489.209 15.24L495.429 20.35L496.919 19.73L500.329 20.84L502.469 18.03L507.299 17.7L508.309 18.9L507.549 19.86L509.369 20.72L510.169 19.8L511.009 22L511.979 21.21L512.559 22.36L511.569 21.88L511.629 22.86L513.659 22.35L514.789 24.71L515.539 23.71L516.739 24.25L516.199 26.43L519.629 29.63L527.669 33.52L542.289 34.14L546.659 35.34L547.449 33.5L548.919 35.81L550.479 35.64L554.909 31.19L556.049 27.09L557.639 26.3L561.649 27.21L563.339 25.4L567.599 29.25L573.159 29.36L574.509 32.01L574.649 35.78L578.079 34.6L579.849 35.26L580.689 37.23L584.099 38.46L586.759 37.12L589.439 37.76L590.429 36.36L592.219 37.02L594.229 46.09L593.529 48.49L595.319 49.24L594.949 54.71L596.279 57.71L595.529 60.56L593.119 61.67L593.499 63.62L591.669 63.67L591.809 64.98L588.189 69.23L588.809 74.99L588.179 77.15L586.819 77.53L587.629 80.94L589.959 81.32L589.919 82.59L592.799 84.03L591.779 86.03L594.009 90.41L596.689 91.46L595.909 94.76L598.089 102.54L602.299 106.22L604.539 105.97L605.439 108.97L602.869 112.88L600.389 112.24L601.799 110.69L600.479 111.27L598.979 109.8L598.019 110.62L597.589 111.63L601.259 114.25L598.459 120.29L597.519 119.93L597.789 118.19L593.569 117.07L593.459 114.98L591.319 114.21L587.629 116.69L586.379 119.82L583.789 119.63L580.509 121.63L576.669 121.59L575.989 127.16L570.499 129.56L570.599 131.52L566.439 136.57L561.599 129.88L555.939 130.91L553.499 133.74L553.989 134.46L553.649 135.14L553.089 137.25L551.109 137.05L548.109 139.07L551.119 141.81L546.089 148.23L544.639 148.05L545.169 146.16L542.959 145.59L541.559 147.74L544.359 148.72L543.299 155.41L544.709 160.19L548.699 161.09L548.239 162.1L549.939 165.33L549.789 167.78L546.529 170.69L545.229 174.59L544.909 176.96L547.239 180.5L542.559 187.57L537.979 190.88L533.669 191.42L531.739 189.91L529.889 185.81L529.909 180.92L529.169 181.43L528.999 179.83L527.979 179.54L524.589 183.82L522.229 180.8L516.469 180.22L513.549 178.5L511.319 173.77L508.009 174.31L508.909 168.09L507.419 168.28L505.939 166.16L502.609 165.55L499.689 166.81L498.209 164.81L497.749 157.64L495.909 157.3L494.379 158.9L492.489 156.73L491.149 156.98L489.169 152.76L481.239 153.26L481.499 151.14L476.259 150.38L475.279 147.9L473.129 148.77L472.629 145.26L467.859 143.73L464.219 144.7L463.319 148.17L457.619 147.62L456.479 150.56H457.019L456.189 152.5L451.479 151.55L450.709 153.21L447.279 154L445.069 154.05L443.019 152.46L439.999 153.87L438.109 153.5L434.549 157.38L432.919 157.5L430.379 156.75L429.109 153.67L427.319 154.66L425.939 153.25L421.669 155.57L419.449 152.99L420.039 152.13L417.389 148.03L418.979 146.86L417.159 144.52L418.469 141.98L417.169 140.82L421.519 138.15L422.139 136.89L421.159 134.72L418.599 130.83L416.639 131.94L410.709 129.98L404.889 125.25L400.519 123.91L396.899 118.29L396.859 113.56L398.029 112.94L397.059 112.46L399.979 109.91L397.929 108.6L399.469 97.09L402.249 94.77L406.439 96.13L413.019 103.42L415.729 104.39L417.789 101.8L419.679 102.42L427.029 100.33L428.799 96.27L430.969 95.29L435.319 95.49L437.079 98.79L438.459 99.14L436.769 96.2L439.439 92.3L439.009 84.94L435.589 84.4L437.339 76.49L433.549 76.6L435.769 74.51L435.449 72.59L430.499 68.42L429.559 65.45L434.009 62.53L432.279 60.44L427.739 59.55L428.229 58.74L424.969 56.42L422.199 56.7L421.069 55.4L419.229 57L415.619 52.98L416.379 53.34L417.949 51.06L417.249 45.11L418.419 40.69L424.909 35.05L425.009 29.59L430.689 29.42L431.279 30.65L436.679 32.1L438.609 30.44L436.479 28.22L437.699 22.66L438.989 21.91L437.939 18.17L438.959 17.99L439.579 14.59L438.499 5.24L440.039 3.82L439.889 1L442.979 1.07ZM547.929 88.55L546.709 89.28L543.229 90.81L540.589 94.32L539.179 94.4L537.199 92.2L536.539 91.83L535.809 95.73L534.719 96.4L535.969 96.6L536.269 99.09L534.759 102.73L536.009 104.62L537.579 104.76L536.869 105.46L537.799 107L539.089 106.93L537.849 108.34L541.759 107.21L545.099 108.87L546.359 106.77L554.969 108.87L554.719 106.81L561.179 104.2L565.639 106.83L566.309 106.13L566.029 104.04L564.259 103.8L564.029 101.89L562.979 101.5L563.809 91.89L561.839 91.72L560.719 90.51L561.109 88.97L559.779 88.28L558.579 88.2L558.139 90.26L555.549 88.3L555.409 86.84L555.279 86.38L554.129 84.83L552.239 85.11L552.179 85.3L551.569 85.08L549.959 85.63L550.389 87.04L550.159 88.8L548.409 89.31L547.929 88.55Z" fill="#CCCCCC" stroke="white" stroke-width="0.5"/>
<path d="M348.179 30.6801L350.279 31.0001L356.859 37.5101L360.609 38.1201L363.079 41.9501L365.109 42.2501L364.579 44.8201L362.329 44.8101L361.179 46.4701L362.709 48.0001L364.119 47.7701L363.679 49.6301L365.829 50.3901L365.689 51.7801L368.049 51.2201L367.999 52.1301L369.609 52.4901L370.869 51.4701L375.649 52.0501L379.679 53.9301L382.059 53.4601L387.109 56.9701L388.919 54.2601L391.429 54.5501L391.269 52.0201L394.719 52.5901L396.729 48.2201L395.809 46.0401L397.899 45.4101L400.499 49.1601L403.879 49.4201L405.189 50.6901L409.179 47.7501L410.199 50.4201L412.129 50.0301L413.439 53.4001L415.609 52.9801L419.219 57.0001L421.059 55.4001L422.199 56.7001L424.969 56.4201L428.229 58.7401L427.739 59.5501L432.279 60.4401L434.009 62.5301L429.559 65.4501L430.499 68.4201L435.449 72.5901L435.769 74.5101L433.549 76.5901L437.339 76.4901L435.589 84.4001L439.009 84.9401L439.449 92.3001L436.779 96.2001L438.469 99.1401L437.089 98.7901L435.329 95.4901L430.979 95.2901L428.809 96.2701L427.039 100.33L419.689 102.42L417.789 101.8L415.729 104.39L413.019 103.43L406.439 96.1401L402.249 94.7701L399.469 97.0901L397.919 108.61L399.969 109.92L397.039 112.47L398.009 112.95L396.849 113.57L396.889 118.3L400.499 123.92L404.879 125.27L410.689 130L416.619 131.96L418.579 130.86L421.129 134.74L422.109 136.92L421.489 138.18L417.139 140.85L418.439 142.01L417.129 144.55L418.949 146.89L417.359 148.06L420.009 152.16L419.419 153.03L415.809 151.09L414.279 153.87L412.029 155.13L409.379 154.99L406.899 156.89L402.459 157.52L401.899 161.03L399.269 161.1L395.199 164.35L392.389 164.22L391.979 166.21L385.349 169.75L380.819 169.07L378.369 165.82L378.929 164.55L364.409 168.48L364.739 162.47L361.079 158.54L353.849 158.05L350.479 155.54L349.169 155.45L348.409 156.97L342.639 156.68L339.179 160.5L339.269 161.75L337.509 162.42L335.969 167.14L335.839 172.46L339.189 173.26L340.789 176.1L340.019 177.78L341.169 179.99L337.749 185.55L338.219 186.8L327.229 185.5L321.899 182.83L319.429 180.68L318.549 178.1L318.619 174.29L320.829 172.65L322.189 168.42L321.669 166.96L319.919 167L319.099 165.64L323.959 157.04L315.439 154.28L316.119 150.13L317.539 148.47L321.759 150.11L323.459 148.94L322.589 147.04L319.559 148.01L317.709 146.45L311.649 147.49L303.309 143.28L304.039 140.19L302.029 136.12L302.869 135.38L302.739 129.05L305.089 127.49L308.959 130.32L309.889 125.93L306.829 124.65L304.219 121.81L303.009 123.45L292.199 126.69L292.439 123.91L290.149 124.45L286.339 122.46L284.289 117.85L278.649 120.3L275.109 118.83L272.089 123.52L269.289 123.36L267.809 120.29L261.119 113.8L260.439 110.08L261.219 107.9L263.329 108.4L264.439 105.62L268.289 103.09L270.099 98.97L277.079 98.0401L282.139 92.3001L294.989 87.8501L300.839 88.1101L307.139 84.1501L313.249 78.3101L315.499 71.5901L314.489 68.4401L316.989 61.8201L315.499 56.2401L316.439 55.5301L318.479 56.4901L320.899 54.1701L321.089 52.4501L326.269 56.0201L328.889 55.2401L332.699 57.4401L333.629 59.1401L338.879 61.5001L340.199 59.3701L339.979 56.8001L340.959 55.5001L341.849 56.7101L344.389 54.2901L344.349 51.7001L346.189 49.5101L345.339 40.2201L347.329 39.3701L345.299 38.9901L343.909 37.3301L348.179 30.6801Z" fill="#CCCCCC" stroke="white" stroke-width="0.5"/>
<path d="M419.42 153.03L421.64 155.61L425.91 153.29L427.29 154.69L429.08 153.7L430.35 156.78L432.89 157.52L434.52 157.41L438.09 153.52L439.98 153.89L443 152.48L445.05 154.07L447.26 154.02L450.69 153.23L451.46 151.57L456.17 152.52L457.01 150.57H456.47L457.61 147.63L463.32 148.18L464.21 144.7L467.86 143.73L472.63 145.26L473.13 148.77L475.28 147.91L476.26 150.38L481.5 151.14L481.25 153.26L489.17 152.76L491.15 156.98L492.5 156.73L494.39 158.9L495.92 157.3L497.76 157.64L498.22 164.81L499.7 166.81L502.62 165.55L505.95 166.16L507.43 168.28L508.91 168.09L508.01 174.31L511.32 173.77L513.55 178.5L516.47 180.22L522.23 180.8L524.59 183.82L527.98 179.54L529 179.83L529.17 181.44L529.91 180.93L529.89 185.82L531.75 189.92L533.67 191.43L528.87 192.49L527.59 195.42L526.71 194.62L527.73 193.4L526.82 193.25L525.37 195.88L522.68 196.45L522.83 199.4V200.6L526.59 210.37L526.31 210.77L527.15 213.68L526.36 214.55L529.41 223.84L527.28 231.85L529.86 235.92L529.21 237.26L530.45 239.65L532.66 241.89L529.82 242.37L527.61 248.43L525.85 248.74L525.08 251.2L521.34 254.58L519.99 260.27L519.03 261.21L520.09 263.23L519.07 271.29L520.39 273.82L522.62 274.59L522.89 281.11L519.56 277.98L515.64 276.9L510.3 273.54L507.46 273.3L500.8 276.03L492.72 275.13L492.38 276.81L490.22 278.22L488.93 277.81L488.6 278.99L487.58 278.3L488.76 277.35L487.89 277.1L483.87 279.45L484.17 282.99L480.41 285.86L477.33 285.75L476.66 282.97L473.34 281.11L463.62 281.47L458.95 282.96L451.87 280.58L450.61 281.63L448.67 280.63L446.68 282.17L445.47 281.52L444.24 279.5L441.96 279.06L443.75 274.3L442.49 267.87L438.22 265.87L439.29 261.57L441.29 260.33L440.66 255.52L442.34 251.49L439.58 248.27L436.89 242.25L432.65 241.06L428.25 237.47L427.68 235.23L410.42 239.28L409.39 241.36L407.14 239.56L401.42 239.84L400.48 237.94L398.4 238.33L398.04 240.1L396.79 239.76L396.77 241.67L394.66 241.04L392.3 243.39L390.92 243.22L390.85 239.28L389.61 238.22L381.43 238.05L380.38 236.86L379 237.88L376.56 232.32L373.36 234.9L370.81 233.81L370.22 236.03L365.53 240.04L361.55 240.47L360.96 244.18L356.39 245.84V247.75L353.66 248.15L354.81 250.18L349.57 250.28L348.27 251.49L345.66 250.55L343 247.51L345.52 246.54L347.96 242.32L349.58 241.47L349.6 238.43L352.94 233.29L350.52 229.72L350.72 228.33L355.45 225.11L357.04 226.53L359.26 226.33L359.86 224.57L352.18 219.58L352.62 218.29L348.49 214.12L349.77 212.86L349.43 211.41L346.38 209.79L346.22 206.58L345.27 206.28L341.59 209.58L338.19 208.51L337.28 210.66L334.42 208.91L328.95 207.78L327.96 203.99L328.71 202.57L325.48 191.64L327.71 187.05L327.23 185.5L338.22 186.8L337.75 185.55L341.17 179.99L340.02 177.78L340.79 176.1L339.19 173.26L335.84 172.46L335.97 167.14L337.51 162.42L339.27 161.75L339.18 160.5L342.64 156.68L348.41 156.97L349.17 155.45L350.48 155.54L353.85 158.05L361.08 158.54L364.74 162.47L364.41 168.48L378.93 164.55L378.37 165.82L380.82 169.07L385.35 169.75L391.98 166.21L392.39 164.22L395.2 164.35L399.27 161.1L401.9 161.03L402.46 157.52L406.9 156.89L409.38 154.99L412.03 155.13L414.28 153.87L415.81 151.09L419.42 153.03Z" fill="#CCCCCC" stroke="white" stroke-width="0.5"/>
<path d="M269.29 123.36L272.09 123.52L275.11 118.83L278.65 120.3L284.29 117.85L286.34 122.46L290.15 124.45L292.44 123.91L292.2 126.69L303.01 123.45L304.22 121.81L306.83 124.65L309.89 125.93L308.96 130.32L305.09 127.49L302.74 129.05L302.87 135.38L302.03 136.12L304.04 140.19L303.31 143.28L311.65 147.49L317.71 146.45L319.56 148.01L322.59 147.04L323.46 148.94L321.76 150.11L317.54 148.47L316.12 150.13L315.44 154.28L323.96 157.04L319.1 165.64L319.92 167L321.67 166.96L322.19 168.42L320.83 172.65L318.62 174.29L318.55 178.1L319.43 180.68L321.9 182.83L327.23 185.5L327.71 187.05L325.48 191.64L328.71 202.57L327.96 203.99L328.95 207.78L334.42 208.91L337.28 210.66L338.19 208.51L341.59 209.58L345.27 206.28L346.22 206.58L346.38 209.79L349.43 211.41L349.77 212.86L348.49 214.12L352.62 218.29L352.18 219.58L359.86 224.57L359.26 226.33L357.04 226.53L355.45 225.11L350.72 228.33L350.52 229.72L352.94 233.29L349.6 238.43L349.58 241.47L347.96 242.32L345.52 246.54L343 247.51L340.71 241.99L338.89 242.26L335.92 240.31L335.76 236.37L332.15 236.39L330.99 234.46L326.51 234.92L317.2 231.74L314.57 231.56L312.23 232.89L309.4 229.59L305.21 231L302.36 229.94L300.14 231.51L300.2 235.39L284.96 238.9L282.24 237.66L281.29 235.86L277.56 236.42L275.25 232.01L273.88 231.48L268.02 231.45L266.02 229.52L263.55 230.04L259.33 228.91L258.91 225.62L253.69 226.7L252.29 229.11L250.49 227.04L246.24 225.37L244.57 226.01L239.98 222.69L233.8 224.37L232.41 223.2L229.73 224.57L228.82 228.19L225.87 228.68L225.16 230.14L223.66 229.95L221.4 232.54L219.45 232.96L218.44 231.3L215.27 230.12L211.32 231.53L207 218.19L209.23 212.42L206.57 208.98L209.27 205.42L212.09 206.96L214.01 205.4L217.05 205.69L218.32 204.45L219.45 205.76L220.77 204.96L221.69 205.63L224.15 202.14L230.4 204.56L233.25 204.32L235.91 202.58L238.06 203.08L240.28 200.7L238.77 197.58L240.91 194.89L245.43 194.13L246.65 195.03L250.28 192.12L251.49 189.57L251.15 186.29L253.64 186.46L256.36 184.96L250.93 176.78L253.75 173.28L252.52 171.93L246.48 170.26V166.68L248.91 161.9L252.44 162.19L254.94 160.71L259.01 160.97L261.2 162.92L263.14 161.81L261.24 164.45L266.47 169.02L264.34 169.85L262.97 172.68L264.26 175.72L268.29 176.79L268.75 178.71L271.08 179.72L273.19 182.63L277.9 185.31L278.37 184.04L279.98 184.78L280.69 186.59L284.23 183.18L284.26 179.6L283.04 178.15L285.12 174.97L283.89 173.3L286.16 171.96L285.46 170.27L288.34 166.37L286.61 162.23L286.9 160.22L281.82 155.9L278.28 157.76L274.73 157.41L273.11 155.9L275.89 151.08L274.7 150.13L280.75 140.98L275.52 129.85L274.24 130.29L273.58 128.29L270.44 127.49L269.29 123.36Z" fill="#CCCCCC" stroke="white" stroke-width="0.5"/>
<path d="M219.449 232.96L221.399 232.54L223.659 229.96L225.159 230.15L225.869 228.69L228.819 228.2L229.729 224.58L232.409 223.21L233.799 224.38L239.979 222.69L244.569 226.02L246.229 225.38L250.479 227.05L252.289 229.12L256.359 232.24L257.699 235.76L262.169 236.2L258.309 241.49L260.089 245.55L264.179 249.89L267.329 250.96L268.069 257.39L277.669 265.13L274.829 268.57L272.299 267.19L267.809 270.14L264.849 269.16L257.619 271.47L256.999 274.34L258.089 275.77L256.259 275.43L255.719 276.3L255.659 280.86L251.679 281.32L250.379 280.25L245.569 281.44L242.009 278.4L239.089 278.55L233.679 275.86L230.879 273.64L228.849 267.12L223.159 266.07L223.249 262.45L225.019 259.57L222.579 254.58L219.819 253.9L217.679 255.57L215.429 251.96L211.899 251.28L213.929 248.29L211.419 245.87L210.129 239.93L212.169 238.01L216.759 237.57L217.639 234.15L219.449 232.96ZM220.219 157.41L219.759 159.41L221.239 161.3L227.339 159.09L229.859 160.59L235.639 159.3L235.569 161.61L240.329 167.56L243.499 166.26L246.479 166.69L246.469 170.27L252.519 171.94L253.739 173.3L250.929 176.79L256.349 184.97L253.629 186.47L251.139 186.3L251.479 189.57L250.269 192.12L246.639 195.03L245.419 194.14L240.899 194.89L238.769 197.58L240.269 200.7L238.059 203.09L235.909 202.58L233.249 204.32L230.399 204.57L224.149 202.15L221.689 205.64L220.759 204.97L219.439 205.77L218.309 204.45L217.039 205.7L213.999 205.41L212.079 206.97L209.259 205.43L206.559 208.99L209.219 212.43L206.989 218.2L211.309 231.55L208.079 231.77L206.329 234L203.479 233.7L202.059 235.38L198.489 235.11L196.219 236.91L193.759 237.02L187.439 241.87L183.149 242.04L180.329 244.64L178.719 244.18L177.359 241.97L173.629 241.87L170.069 239.51L163.519 242.99L158.959 239.69L155.839 243.94L152.939 245.17L149.209 242.13L147.549 242.87L146.219 241.96L137.219 245.44L135.789 244.48L133.839 245.06L133.629 248.09L131.779 249.47L129.739 249.19L128.329 251.22L128.549 254.02L126.319 258.11L127.289 261.9L123.729 263.77L122.259 268.22L114.089 267.35L111.499 268.71L107.629 266.44L105.789 267.21L103.619 264.85L101.079 266.13L98.9892 265.77L101.719 261.65L101.019 260.39L96.0692 258.38L96.0892 256.81L93.9692 255.61L84.4692 260.04L85.0492 258.67L80.6892 258.97L78.4392 257.82L77.9992 254.3L79.9292 248.04L74.9392 245.75V243.65L71.8592 240.81L67.9792 242.95L66.9792 246.26L65.4392 246.99L66.0892 249.59L64.5892 250.23L60.1392 248.97L58.9092 252.96L59.3292 256.53L56.3692 256.51L54.3692 258.39L52.4392 258.34L48.4492 249.69L50.5792 248.03L52.3092 242.98L53.4792 243L53.4492 241.23L51.0592 238.44L53.1792 235.26L52.8092 233.92L51.4392 233.6L51.3692 231.46L53.2992 227.65L55.6192 227.15L55.3192 226.17L57.6292 223.64L56.4192 218.37L57.5092 214.55L56.5392 213.58L58.3892 211.41L56.2892 210.88L55.1592 209.27L56.8792 208.54L59.4592 209.27L67.2092 205.18L72.5092 196.86L75.6592 196.24L75.6992 192.77L78.8292 190.18L78.2792 185.06L76.2492 184.12L75.2892 181.94L76.9892 175.95L75.2092 173.24L75.8392 172.39L79.2492 172.3L77.2092 175.79L82.6392 178.21L86.5192 178.36L88.6092 174.23L95.9392 175.36L96.2992 177.07L101.379 178.3L102.889 180.66L111.609 177.97L113.999 180.79L110.429 182.12L110.129 184.42L115.419 184.6L114.919 185.74L119.289 190.55L118.169 192.35L118.729 194.3L129.839 194.51L130.809 192.65L137.029 190.11L140.829 190.79L138.499 194.66L142.059 194.42L143.749 193.18L143.859 190.87L147.589 188.27L154.319 188.81L153.209 186.08L151.319 185.54L155.259 180.72L161.119 181.69L166.429 180.52L167.669 179.29L168.949 173.01L171.359 172.81L171.549 171.14L173.669 172.38L183.209 171.53L188.159 172.64L189.059 170.27L193.669 168.86L198.649 168.91L201.249 167.54L202.209 169.35L205.489 168.29L211.589 169.89L214.709 168.87L214.469 170.44L216.719 169.8L216.489 166.05L213.549 158.72L217.629 157.31L220.959 153.64L221.629 154.84L220.219 157.41Z" fill="#CCCCCC" stroke="white" stroke-width="0.5"/>
<path d="M25 171.19L26.87 172.94L26.05 176.69L30.72 178.95L31.22 176.59L34.39 178.77L37.78 178.17L38.37 176.81L37.95 179.73L40.36 181.92L39.7 182.53L40.79 184.28L44.21 183.74L46.32 187.46L47.95 187.14L49.15 190.71L46.42 193.11L48.64 199.31L50.21 197.02L53.92 197.76L55.4 194.88L57.81 196.43L58.94 195.45L59.73 196.13L56.73 202.55L57.57 205.2L54.72 207.09L55.14 209.25L56.26 210.86L58.36 211.38L56.51 213.55L57.49 214.53L56.4 218.35L57.61 223.62L55.3 226.15L55.6 227.13L53.28 227.64L51.35 231.45L51.42 233.59L52.8 233.91L53.16 235.25L51.05 238.43L53.43 241.22L53.47 243L52.3 242.97L50.57 248.03L48.45 249.68L52.44 258.33L49.23 259.45L47.82 257.14L45.25 257.06L42.33 252.45L40.08 252.35L39.02 250.76L35.95 251.07L31.06 248.55L30.56 245.16L32.26 242.16L30.6 239.75L31.2 238.5L27.81 239.4L23.51 236.43L18.37 235.8L15.3 233.58L11.55 234.89L9.52 233.79L9.67 231.88L11.42 230.88L11.39 225.67L10.69 223.58L6.37 220.64L7.38 217.1L5.64 214.6L6.47 212.7L3.36 209.2L7.59 204.17L9.29 199.59L10.81 197.88L14 197.15L14.74 195.1L13.08 193.38L12.46 190.03L13.54 187.65L9.71 185.68L8.54 186.39L1 175.15L19.42 178.35L22.03 171.88L25 171.19Z" fill="#CCCCCC" stroke="white" stroke-width="0.5"/>
<path d="M551.841 85.19L552.181 85.2701L552.241 85.08L554.131 84.8L555.281 86.3501L555.411 86.8L555.551 88.26L558.141 90.23L558.581 88.1701L559.771 88.2501L561.111 88.9501L560.721 90.4901L561.841 91.7001L563.811 91.87L562.981 101.48L564.031 101.87L564.261 103.79L566.041 104.02L566.321 106.11L565.651 106.82L561.191 104.19L554.721 106.81L554.971 108.87L546.361 106.77L545.101 108.87L541.761 107.21L537.851 108.35L539.091 106.94L537.791 107.01L536.861 105.47L537.571 104.76L536.001 104.62L534.751 102.73L536.261 99.09L535.961 96.6001L534.711 96.4L535.811 95.73L536.531 91.83L537.191 92.2001L539.171 94.4L540.581 94.3201L543.221 90.8101L546.701 89.2801L547.891 88.54L548.421 89.29L550.171 88.7801L550.401 87.0201L549.971 85.61L551.581 85.0601L551.841 85.19Z" fill="#CCCCCC" stroke="white" stroke-width="0.5"/>
</svg>
