<svg width="711" height="614" viewBox="0 0 711 614" fill="none" xmlns="http://www.w3.org/2000/svg">
<path d="M57.02 431.16L62.77 431.17L63 429.98L68.7 430.25L68.81 428.82L71.09 428.08L74.04 429.67L73.8 432.69L74.89 433.61L76.45 433.25L77.84 434.06L77.96 433.13L78.8 435.57L79.5 435.09V433.14L81.3 431.96L82.23 432.47L81.59 434.24L82.82 432.85L86.67 434.89L90.68 432.56L91.81 432.84L91.79 435.25L100.73 435.06L103.86 433.34L104.65 434.28L104.72 431.67L103.66 429.46L105.21 425.39L105.83 425.36L106.43 422.58L104.7 422.97L105.63 422.15L104.17 420.64L106.79 416.54L109.73 415.61L108.05 414.63L108.31 413.85L106.86 413.42L107.17 411.92L111.27 409.09L111.46 407.73L113.74 407.18L114.17 405.77L115.69 405.94L115.2 410.26L117.51 411.26L120.01 410.15L121.35 411.6L123.39 409.34L123.98 409.61L123.57 410.92L124.63 411.3L125.31 410.53L128.92 410.91L130.44 409.15L131.6 409.13L132.24 409.95L132.9 409.55L135.02 413.45L133.81 414.89L136.78 418.13L137.72 417.74L139.46 413.3L140.71 413.73L140.86 415.75L139.98 418.08L140.69 418.91L139.7 420.76L140.65 421.85L139.75 423.2L140.46 424.45L141.48 424.24L142.25 422.14L144.16 423.46L144 422.56L146.23 421.58L146.06 420.86L147.63 420.91L148.23 422.98L149.14 422.59L150.61 423.64L151.41 422.85L150.89 422.36L151.98 419.94L155.94 418.26L156.9 422.97L159.66 424.02L161.85 421.29L161.35 419.97L158.82 420.23L158.31 417.64L160.78 415.44L159.28 413.97L158.46 411.32L162.48 411.38L162.62 412.02L167.01 411.11L166.77 407.12L167.84 406.64L168.66 404.23L173.88 401.72L175.57 399.07L179.27 398.26L178.68 397.7L178.96 396.67L180.47 394.88L178.2 392.76L178.08 391.52L179.69 391.1L180.84 387.73H179.9L180.27 384.12L178.27 382.94L177.42 381.39L179.11 379.89L179.27 377.33L180.66 377.32L179.35 374.68L180.24 371.09L181.01 370.8L180 368.77L181.58 369.28L183.05 368.27L182.43 367.66L182.96 365.41L184.24 365.14L183.92 362.92L184.62 362.04L184.1 358.66L185.17 358.87L185.71 356.87L186.76 357.14L187.27 355.36L189.45 355.13L191.1 355.61L191.67 356.77L194.36 357.2L196.41 355.82L199.11 356.76L200.27 354.77L203.08 354.5L202.75 355.9L204.15 355.41L205.85 356.31L207.91 356.29L207.92 357.58H210.71L211.54 358.08L211.1 358.93L212.77 359.55L214.16 359.32L215.87 357L215.92 358.87L216.52 359.27L219.01 357.72L220.96 358.74L231.13 358.78L232.42 361.16L233.4 360.02L235.04 359.41L235.62 360.23L235.94 359.66L237.52 365L238.93 365.23L237.84 372.49L234.76 372.6L234.64 374.88L232.74 375.34L231.81 376.55L232.27 378.01L229.46 378.74L230.26 381.52L233.1 382.57L234.08 383.94L234.1 385.54L235.74 385.23L237.06 386.36L237.2 388.54L239.42 390.05L244.01 389.97L244.88 393.83L246.96 393.97L248.16 398.28L247.67 398.78L244.04 397.66L242.85 399.42L243.48 399.83L242.85 400.46L243.25 404.23L240.39 403.93L239.69 405.16L238.23 405.44L237.85 406.75L239.49 410.99L241.33 412.97L241.98 414.92L243.19 415.67L237.77 421.1L237.41 422.7L238.03 424.78L242.09 427.12L242.2 428.47L247.03 421.46L247.96 424.92L250.23 423.73L252.49 417.6L255.73 420.74L255.35 421.08L257.67 421.47L258.19 420.85L259.93 423.58L261.96 424.12L261.55 422.98L263.44 423.06L263.56 422.35L264.61 422.75L265.43 429.24L268.14 432.77L270.85 433.05L273.2 432.07L274.6 434.14L275.45 434.02L279.98 436.82L283.94 431.38L285.62 435.77L284.96 438.96L286.94 439.88L287.78 443.48L284.74 444.42L284.28 446.13L285.32 446.52L285.54 451.2L283.46 451.23L283.56 453.67L284.43 454.89L285.78 454.8L286.05 458.17L287.25 458.28L287.32 462.97L286.57 463.03L287.44 463.78L287.43 466.68L292.3 466.89L293.04 471.33L295.07 471.13L295.4 475.25L300.04 475.17L300.16 477.57L303.58 478.51L302.37 482.57L302.86 486.95L310.78 486.87L310.87 488.85L313.44 490.97L317.84 491.17L319.59 493.6L321.17 493.48L322.63 494.49L322.69 496.16L323.46 496.38L323.79 497.94L323.5 499.51L324.45 500.41L322.03 503.38L323.6 505.72L322.89 506.22L321.29 511.98L322 513.35L321.63 517.76L323.45 518.6L325.27 518.29L324.95 519.36L325.93 521.65H328.47L328.55 524.66L328.16 525.91L323.02 529.3L321.32 531.84L322.95 534.98L323.04 537.92L321.99 540.77L320.28 542.84L322.38 545.99L324.77 548.07L322.9 552.58L324.16 553.9L324.25 555.13L322.23 557.69L320.54 557.4L319.59 558.67L319.23 561.04L320 562.79L319.15 564.99L321.69 568.1L321.37 568.88L320.74 569.7L321 572.34L322.1 572.28L320.4 574.67L318.53 573.6L319.27 571.92L318.83 571.24L317.45 572.19L316.6 570.68L314.76 571.64L314.67 572.6L312.14 572.3L309.87 571.1L308.39 572.5L301.22 572.81L301.28 570.55L303.41 566.74L301.64 565.22L298.61 565.55L298.09 552.57L282.7 553.16L279.32 557.14L276.96 555.66L274.23 555.52L271.88 553.48L267.94 554.55L267.49 553.41L264.92 552.16L265.33 550.01L264.7 549.04L261.64 547.92L260.3 546.45L254.68 546.62L253.04 545.97L252.78 546.99L250.28 547.84L249.36 549.7L244.12 549.5L243.88 547.86L242 547.38L240.43 544.98L238.62 545.23L238.4 540.41L236.34 541.86L231.88 542.16L230.72 541.17L225.77 540.78L223.4 541.96L222.5 541.3L221 541.61L220.83 540.01L219.65 540.22L216.22 536.21L213.02 535.66L212.67 534.43L209.99 533.59L203.57 535.72L196.54 534.54L196.34 532.32L193.04 531.47L192.19 531.75L193.16 534.82L191.63 534.52L187.86 535.48L180.25 534.78L174.66 532.75L173.44 534.85L171.52 533.86L170.72 535.13H165.96L165.33 534.23L160.46 533.24L154.83 529.4L152.46 530.34L149.83 529.26L145.77 531.35L142.55 531.37L136.96 535.28L135.3 535.51L132.88 537.86L130.42 537.87L129.47 536.17L123.95 537.85L123.44 536.18L122.53 535.94L117.59 539.46H116.47L114.54 537.91L111.25 538.36L108.1 537.18L103.74 538.62L96.81 539.64L90.16 539.57L86.56 542.24L86.9 543.57L83.4 549.11L85.07 555.36L81.59 559.21L70.61 565.25L67.22 570.64L63.26 572.95L61.41 575.37L55.94 573.27L52.89 574.13L52.69 572.13L55.15 569.31L48.89 567.61L46.3 568.41L46.22 566L45.46 565.13L40.17 567.15L37.85 566.7L36.83 568.17L32.67 570.19L34.49 573.9L36.8 575.22L36.52 576.9L34.83 578.78L37.76 584.24L36.97 585.02L33.75 584.42L32.77 581.55L29.44 580.72L29.29 579.43L30.34 578.11L29.38 576.59L29.63 575.49L28.67 575.07L27.62 572.76L28.08 570.64L27.52 569.01L28.12 568.33L27.43 567.86L27.76 566.01L28.67 565.43L28.07 563.04L29 561.38L28.13 560.8L28.67 560.35L27.94 558.23L27.24 558.56L26.7 557.75L26.9 556.28L29.02 553.94L29.94 554.54L31.02 554.23L31.81 552.65L34.24 551.76L34.08 550.39L34.7 550.37L34.97 549.29L33.65 545.99L32.28 545.74L32.14 544.49L33.06 542.62L32.48 540.23L34.29 540.7L33.64 539.18L34.82 538.31L33.3 537.02L32.91 535.41L33.31 534.72L34.28 535.02L34.39 533.79L35.35 533.47L34.97 531.59L33.95 531.57L35.9 529.76L37.19 529.87L36.84 528.22L38.52 526.47L36.44 523.35L36.62 520.75L35.97 518.87L35.12 518.5L36.04 518.29L35.21 517.64L35.85 515.82L33.25 514.38L32.8 513.28L33.52 512.68L31.89 511.39L28.91 511.22L28.21 512.23L27.63 510.18L25.69 508.97L25.55 507.72L23.71 507.15L24.1 504.55L25.1 504.71L24.72 503.94L23.56 503.66L22.17 504.53L21.47 503.27L19.07 504.76L18.42 503.59L17.27 504.16L16.85 501.39L15.39 502.01L14.68 500.54L10.7 500.38L9.96 500.04L10.03 498.83L7.32 499.68L2.91 498.3L2.13 496.67L2.78 492.39L1 491.37L5.64 482.41L10.44 476.03L11.09 473.59L18.89 462.73L22.94 458.65L30.79 454.05L34.84 452.45L40.27 451.49L41.95 452.42L52.57 443.66L53.58 443.6L56.97 439.59L57.02 431.16Z" fill="#CCCCCC" stroke="white" stroke-width="0.5"/>
<path d="M391.57 443.4L392.59 444.12L394.69 442.09L395.36 443.18L397.3 442.48L400.34 443.21L401.14 442.14L402.65 442.36L404.61 441.18L408.1 442.5L409.96 441.1L412.59 442.45L414.92 439.84L414.89 438.84L418.77 438.82L418.67 436.76L417.27 437.14L417.02 435.86L416.04 435.82L416.68 432.56L420.16 433.69L421.78 431.72L423.43 432.01L429.3 423.81L428.89 420.79L438.36 419.52L438.69 420.06L440.4 419.17L439.43 414.84L443.79 407.93L445.29 407.1L447.18 408.25L449.97 408.41L451.14 410.2L456.58 410.75L458.41 411.42L458.5 412.23L459.13 410.74L460.44 410.91L460.31 412.49L461.62 412.48L462.43 413.56L465.95 411.97L469.14 408.49L469.89 409.06L472.54 408.83L473.06 409.44L475.51 408.69L477.67 408.96L479.24 410.33L479.4 409.61L480.01 409.96L480.62 411.11L484.72 409.8L484.06 408.39L485.57 406.69L481.55 404.94L480.58 404.14L480.03 401.9L479.04 401.36L482.11 397.49L481.25 395.61L479.05 396.38L477.41 393.06L479.32 391.77L478.32 389.33L478.57 388.42L479.62 388.63L479.65 387.55L480.36 387.49L481.21 389.43L483.3 388.88L484.37 389.69L488.45 387.57L487.2 387.3L486.94 385.96L488.48 384.46L487.65 384.65L487.39 383.45L488.45 382.64L486.36 381.6L489.92 380.32L487.81 374.63L488.55 374.42L488.28 373.08L486.85 371.36L486.78 366.27L490.42 362.6L493.85 360.91L494.66 364.83L496.79 363.93L496.13 363.04L497.09 362.55L498.52 363.61L498.82 364.65L497.78 365.17L497.39 366.66L500.88 367.18L502.03 365.18L501.91 363.85L511.13 366.02L512.09 367.2L511.93 368.2L513.8 369.38L515.93 376.28L517.02 377.2L518.88 376.2L519.44 376.77L520.87 375.92L522.35 376.34L524.4 373.68L524.48 374.94L528.03 374.19L529.32 372.89L532.71 373.42L532.92 371.41L535.18 369.62L538.6 370.68L539.66 369.34L539.46 368.32L541.26 368.63L542.19 366.05L544.86 366.32L546.48 363.83L546.79 361.72L548.02 362.4L546.57 365.08L547.94 365.82L547.31 367.24L554.3 368.6L553.25 370.76L555.16 372.6L558.22 372.24L558.17 370.48L560.7 370.25L561.37 369.35L566.5 370.08L567.83 368.91L567.51 367.53L569.04 367.01L572.05 366.41L572.48 367.32L579.28 366.76L579.65 367.46L578.75 369.42L576.67 371.4L577.83 373.22L579.26 372.2L580.35 373.35L581.24 372.82L581.85 373.6L581.21 375.91L583.14 377.12L583.25 380.02L585.72 379.53L586.33 381.55L587.69 381.93L587.84 383.92L586.23 385.47L587.32 387.47L593.77 386.89L595.03 390.38L595.58 389.66L596.68 390.22L597.09 389.62L597.11 390.49L602.8 390.61L603.82 392.87H605.32L603.31 393.47L602.93 399.53L601.2 400.13L598.13 399.43L596.56 401.07L601.49 404.28L602.41 405.63L604.88 406.5L605.5 409.11L606.53 410.26L606.26 413.57L614.35 421.71L618.39 421.94L618.46 424.11L617.1 425.32L617.96 426.86L620.18 428.26L620.39 429.48L622.04 429.96L622.21 433.97L623.02 436.01L621.11 437.81L620.15 440.33L615.36 442.03L619.97 447.62L620.62 449.2L620.3 453.79L621.45 454.11L625.32 457.83L628.35 458.17L625.63 460.61L624.73 459.18L623.89 459.52L623.79 460.99L622.63 461.63L622.53 463.7L619.93 463.39L621.05 465.97L623.18 464.98L624.72 466.67L623.34 469.71L621.55 470.53L623.49 471.11L623.62 472.46L622.71 472.96L623.18 474.65L622.46 475.57L624.49 475.39L625.2 477.77L624.81 485.96L621.71 486.23V486.91L624.83 490.83L625.2 490.04L626.83 492.29L629.22 492.43L631.17 493.84L630.12 494.96L631.03 497.25L630.99 499.81L629.43 502.32L630.86 503.29L632.74 502.65L636.31 503.31L636.6 509.58L637.6 511.19L631.95 514.16L631.37 512.79L628.28 511.87L623.34 511.92L617.01 510.55L614.21 511.59L612.79 511.1L612.08 508.77L608.46 508.66L606.47 509.7L607.06 511.12L602.55 513.03L601.66 515.22L602.18 515.88L600.54 519.32L597.38 520.55L595.32 519.53L594.25 518.21L594.35 517.01L590.47 516.1L589.12 513.39L585.85 514.83L583.52 514.77L577.64 516.32L575.79 515.66L575.86 514.75L574.94 514.92L575.07 516.67L573.68 516.87L574.77 519.63L574.04 519.57L573.62 518.35L572.99 518.63L574.1 520.26L572.94 520.91L573.83 521.77L572.91 521.64L573.44 522.79L572.25 523.02L572.74 523.78L572.24 524.61L573.52 525.1L573.55 526.3L572.41 526.59L571.32 525.1L570.63 526.14L571.91 527.22L570.09 527.63L570.38 529.33L569.14 529.65L568.46 529.07L566.68 530.23L566.65 531.08L567.75 531.12L567.06 531.97L565.5 530.99L564.54 531.83L565.64 535.1L564.05 537.79L559.95 537.36L559.29 539.58L556.96 541.57L556.14 545.21L552.92 546.63L554.23 550.04L553 551.39L553.24 552.39L551.39 552.35L550.05 553.18L550.3 554.06L552.11 553.55L552.67 554.12L551.16 556.99L550.81 559.59L546.39 560.53L547.31 563.88L546.87 565.77L545.35 565.6L543.85 564.15L542.88 564.86L544.22 566.37L542.46 568.54L542.27 569.89L544.25 570.42L544.14 571.22L545.8 572.33L545.1 573.01L543.09 572.51L542.35 573.4L543.73 574.95L545.64 575.51L543.8 576.42L543.77 577.42L545.14 579.99L546.82 578.84L547.68 579.36L546.7 583.62L547.76 584.63L548.28 587.55L550.63 588.89L550.54 589.65L547.59 590.75L547.93 593.37L548.57 594.06L550.35 593.59L550.45 594.85L552.99 598.97L551.71 601.33L552.71 603.88L550.7 604.72L548.51 606.87L549.88 607.66L549.22 608.47L550.7 607.92L549.6 610.66L548.51 610.6L544.64 612.95L542.12 610.74L538.1 611.59L538.82 607.72L534.46 607.4L528.72 601.5L530.97 599.44L529.79 594.51L530.56 594.03L529.3 593.74L526.03 589.39L522.86 586.77L519.59 585.66L517.46 583.66L516.61 586.31L514.02 584.16L513.53 584.4L514.03 586.12L513.41 586.46L505.83 584.52L505.48 586.24L503.94 587.22L502.93 586.89L502.13 588.45L499.32 586.26L496.94 586.88L496.08 587.71L496.57 588.37L495.66 591.49L493.04 590.11L491.03 590.97L490.23 589.8L489.39 590.07L489.38 591.9L485.81 590.02L484.51 586.32L485.87 585.72L485.74 583.26L485.2 581.52L483.66 581.54L483.14 582.53L480.49 583.75L480.25 584.71L479.3 584.39L478.24 585.16L477.51 584.5L476.7 585.85L475.68 586.06L475.63 588L473.84 589.44L470.63 587.37L468.99 591.3L469.19 594.04L467.83 596.99L461.18 595.41L459.06 596.5L456.95 598.86L454.63 599.4L454.75 596.45L453.27 590.37L450.6 589.51V587.93L449.06 585.47L450.02 581.47L449.49 577.12L446.4 576.37L445.99 573.53L443.84 571.77L444.36 570.51L442.85 569.86L443.79 567.59L443.07 566.89L438.75 567.09L432.94 574.52L430.74 576.23L429.01 576.38L428.49 574.39L424.06 574.53L420.05 577.41L417.87 577.85L413.29 586.49L414.38 587.94L414.78 590.62L414.19 590.87L413.94 593.55L412.63 594.93L411.49 592.53L411.51 588.91L408.89 591.71L407.53 591.13L404.51 578.64L405.37 577.75L403.96 578.31L403.72 577.79L405.74 576.82L398.22 576.61L398.21 575.4L395.95 575.1L395.4 574.18L391.89 573.9L386.18 578.88L383.29 580.28L382.64 576.16L378.03 570.35L376.19 570.61L376.94 564.11L376.22 563.37L369.94 567.63L369.64 570.22L368.5 572.15L366.6 572.46L364.85 575.54L363.54 576.11L362.29 575.6L359.92 577.18L352.77 578.09L355.38 573.79L353.91 573.86L352.99 575.44L351.4 575.84L351.5 572.6L350.67 571.15L346.56 569.53L344.54 570.54L343.9 571.22L345.3 572.26L344.35 576.52L346 580L344.92 580.89L342.36 581.27L339.12 588.07L337.76 587.72L332.3 583.08L333.25 582.67L333.43 580.35L336.44 577.45L337.11 574.6L336.71 572.79L334.41 572.71L333.6 571.85L331.02 571.36L329.2 572.65L323.96 568.95L323.03 570.58L321.51 568.97L321.84 568.19L319.3 565.08L320.15 562.88L319.38 561.12L319.73 558.75L320.68 557.48L322.37 557.78L324.39 555.21L324.31 553.98L323.05 552.66L324.92 548.15L322.53 546.08L320.43 542.92L322.14 540.86L323.2 538.01L323.1 535.07L321.48 531.93L323.18 529.38L328.32 526L328.71 524.74L328.63 521.74H326.09L325.11 519.45L325.44 518.37L323.62 518.68L321.8 517.84L322.17 513.43L321.46 512.06L323.06 506.3L323.77 505.8L322.21 503.46L324.63 500.49L323.68 499.59L323.98 498.03L323.65 496.47L322.88 496.25L322.82 494.58L321.37 493.57L319.78 493.69L318.04 491.26L313.64 491.06L311.06 488.94L310.97 486.96L303.06 487.05L302.57 482.66L303.78 478.61L303.81 477.89L305.98 476.82L306.84 475.23L310.07 472.58L310.74 471.31L308.89 466.74L310.5 466.55L310.53 465.57L311.31 465.52L312.84 461.71L317.43 462.62L317.68 461.49L321.78 462.14L323.29 461.54L323.49 460.09L325.39 461.88L327.21 459.98L327.61 461.03L328.91 460.38L328.81 462.21L330.27 462.27L329.03 467.85L331.02 467.91L336.82 471.5L337.2 473.8L343.15 473.2L349.88 475.04L351.96 473.82H354.01L354.09 470.52L355.79 469.54L354.93 464.92L356.75 463.93L366.24 462.7L367.13 467.17L371.75 466.3L372.19 468.56L382.66 466.89L389.39 460.19L389.5 447.75L391.57 443.4ZM618.15 468.43L617.97 467.15L620.64 467.28L621.42 467.99L620.9 469.8L620.02 468.32L618.15 468.43Z" fill="#CCCCCC" stroke="white" stroke-width="0.5"/>
<path d="M224.38 154.2L226.1 154.53L227.49 155.76L228.8 159.1L228.45 160.38L230.3 161.47L230.04 162.42L236.35 168.23L235.07 169.02L235.02 171.12L233.94 172L234.92 175.71L234.44 176.91L235.87 176.02L237.06 176.53L238.35 175.55L240.81 175.26L242.35 176.62L246.63 183.8L249.94 185.18L250.43 187.17L249.53 190.76L251.53 194.53L251.96 197.65L253.27 198.39L253.78 199.69L255.15 198.42L256.47 198.71L256.83 199.54L259.57 198.87L258.52 200.73L258.59 204.97L261.04 205.91L260.73 207.19L258.38 207.14L258.45 211.28L254.78 209.78L255.83 210.96L255.04 211.85L254.95 213.63L256.15 214.15L255.74 215.52L257.05 215.32L256.82 217.81L257.8 219.07L256.21 222.61L256.61 223.28L255.34 223.89L257.26 224.97L253.7 229.59L251.1 229.48L250.14 231.73L248.97 231.82L249.47 234.11L248.3 234.1L245.61 240.28L245.89 242.63L244.24 242.88L243.47 243.8L242.58 243.23L242.2 244.18L241.12 244.26L239.76 247.54L239.1 247.41L237.46 250.08L237.88 251.24L236.47 251.47L236.86 252.2L235.24 254.28L233.74 253.81L232.48 254.5L229.45 252.99L228.68 253.61L228.4 252.25L226.89 250.89L225.59 252.08L224.31 251.08L220.87 254.26L218.19 255.7L217.01 257.61L214.77 257.76L213.71 256.73L214.12 255.46L213.46 255.12L212.64 255.94L212.27 258.29L209.55 261.91L209.94 263.29L216.26 266.8L216.71 265.53L214.7 263.7L215.72 262.73L217.07 263.27L218.86 262.1L220.34 262.13L220.36 263.34L218.95 264.02L218.51 267.36L219.74 268.6L219.16 269.29L220.31 271.56L219.98 273.31L221.47 274.95L221.73 276.92L224.23 277.85L226.87 275.94L227.62 276.27L229.22 274.7L232.97 273.62L233.52 279.5L231.93 283.79L235.24 283.03L238.7 280.27L241.49 286.72L239.35 289.45L237.32 290.2L235.59 289.9L237.55 293.46L233.4 294.94L231.16 297.29L230.13 296.02L229.17 297.48L226.4 297.67L228.32 302.13L226.15 302.4L226.8 303.94L226.01 304.21L227.24 305.43L228.7 304.54L229.92 306L228.41 307.25L229.71 309.17L228.77 310.11L232.09 315.74L232.34 317.45L236.73 318.72L235.93 322.17L237.76 322.16L239.06 323.32L238.93 324.81L241.97 327.48L242.8 330.29L245.64 332.86L245.14 333.47L249.58 335.66L249.48 339.02L246 341.63L247.29 342.62L247.92 341.27L248.69 341.26L249.19 342.73L250.28 342.4L250.57 350.88L252.33 355L248.15 355.83L247.43 356.81L243.46 356.29L240.96 357.72L240.1 357.02L238.09 359.42L236.76 359.04L235.97 359.68L235.65 360.25L235.07 359.44L233.43 360.05L232.45 361.2L231.16 358.82L220.99 358.78L219.04 357.76L216.55 359.32L215.95 358.91L215.91 357.05L214.2 359.37L212.81 359.59L211.14 358.97L211.58 358.12L210.75 357.63H207.96L207.95 356.33L205.89 356.35L204.19 355.45L202.79 355.94L203.12 354.53L200.31 354.8L199.15 356.79L196.46 355.85L194.41 357.23L191.72 356.8L191.15 355.64L189.5 355.16L187.32 355.39L186.81 357.17L185.76 356.9L185.22 358.9L184.15 358.69L184.67 362.07L183.98 362.95L184.29 365.17L183.01 365.44L182.48 367.7L183.1 368.3L181.63 369.31L180.05 368.8L181.06 370.83L180.29 371.11L179.4 374.71L180.71 377.34L179.31 377.35L179.16 379.91L177.47 381.41L178.32 382.96L180.32 384.14L179.95 387.75H180.89L179.75 391.13L178.14 391.55L178.25 392.79L180.52 394.91L179.01 396.7L178.72 397.73L179.32 398.29L175.62 399.1L173.92 401.75L168.71 404.26L167.89 406.67L166.82 407.15L167.06 411.15L162.67 412.05L162.54 411.41L158.52 411.35L159.34 414L160.84 415.47L158.37 417.67L158.88 420.26L161.41 420L161.91 421.32L159.72 424.05L156.96 423L156 418.29L152.04 419.97L150.95 422.39L151.47 422.88L150.67 423.67L149.2 422.62L148.29 423.01L147.69 420.94L146.13 420.89L146.3 421.61L144.07 422.59L144.23 423.49L142.32 422.17L141.55 424.27L140.52 424.48L139.81 423.24L140.71 421.89L139.77 420.8L140.75 418.95L140.04 418.12L140.93 415.79L140.78 413.77L139.53 413.34L137.79 417.77L136.85 418.16L133.88 414.93L135.09 413.49L132.97 409.59L132.31 409.99L131.68 409.17L130.52 409.18L129 410.94L125.38 410.56L124.71 411.33L123.65 410.95L124.06 409.64L123.46 409.37L121.42 411.63L120.08 410.18L117.58 411.29L115.28 410.29L115.77 405.97L114.25 405.8L113.81 407.21L111.54 407.76L111.35 409.12L107.25 411.96L106.94 413.46L108.39 413.89L108.13 414.67L109.81 415.65L106.87 416.58L104.25 420.68L105.71 422.19L104.78 423.01L106.51 422.62L105.91 425.4L105.3 425.42L103.74 429.49L104.8 431.71L104.73 434.31L103.94 433.37L100.81 435.09L91.8701 435.28L91.8901 432.87L90.7701 432.59L86.7601 434.91L82.9101 432.88L81.6801 434.27L82.3201 432.5L81.3901 431.99L79.6001 433.17L79.5901 435.12L78.8901 435.6L78.0601 433.17L77.9401 434.1L76.5401 433.3L74.9801 433.65L73.9001 432.74L74.1401 429.72L71.1901 428.12L68.9101 428.86L68.8001 430.29L63.1001 430.02L62.8701 431.21L57.1201 431.2V427.45L56.0701 425.33L55.4501 412.22L57.6501 409.66L56.5201 407.53L56.1001 401.63L54.0801 398.61L54.3001 397.45L53.1401 397.1L52.1801 394.76L55.5301 385.4L54.4501 383.2L51.6201 380.8L50.9801 376.29L48.2201 374.69L36.5501 340.57L31.0601 317.86L30.8001 312.97L28.3401 309.68L28.5901 299.53L26.5001 298.08L25.5801 291.96L25.8501 286.34H26.8001L27.3801 287.81L30.6901 287.94L32.8101 290.02L35.6601 288.93L39.7701 289.02L40.3301 288.37L44.5001 290.35L45.6301 291.91L45.1301 293.25L46.2401 293.4L48.2801 292.05L46.8801 289.81L47.0501 288.88L50.3701 286.39L52.9301 288.03L54.0901 287.75L55.5201 284.7L59.0701 286.78L59.5501 289.81L61.0101 289.99L69.1501 288.39L70.1301 286.15L72.2101 286.54L73.2601 285.4L76.6101 284.54L77.5501 286.06L77.2901 287.07L78.8801 287.7L80.3801 286.71L80.8801 288.17L84.8901 292.62L86.1401 292.95L87.2901 291.59L88.0801 292.99L92.7201 292.28L92.4701 292.87L93.1801 293.27L93.0501 292.18L93.6901 292.21L93.7301 292.99L95.3601 292.18L96.7001 289.55L100.05 285.8L103.81 282.54L106.08 281.71L107.6 279.48L109.63 280.01L111.74 278.31L113.48 278.76L112.57 285.39L116.19 284.96L115.99 284L118.53 281.62L120.37 280.96L121.91 281.41L122.73 280.91L122.8 279.67L123.82 279.87L123.52 277.28L125.78 277.33L126.14 276.41L125.56 275.93L123.97 276.51L122.46 275.08L122.29 271.83L118.75 266.69L118.94 266L120.34 266.33L123.1 264.18L122.18 262.42L126.05 262.28L132.58 259.15L134.15 260.03L133.86 260.77L135.2 262.8L136.88 263.66L139.36 263.23L141.12 263.85L144.34 259.5L150.65 253.05L150.55 250.93L152.02 248.14L152.87 247.62L154.23 249.06L155.45 246.37L158.04 247.83L158.39 247.07L159.42 247.83L160.42 247.16L161.74 247.53L162.45 246.53L165.87 245.22L166.85 243.23L169.24 243.32L169.08 244.18L170.18 244.19L171.26 243.58L171.14 242.75L172.31 242.71L172.54 241.62L173.75 242.14L173.94 245.03L177.21 246.33L176.71 247.23L177.91 248.57L177.67 249.68L179.18 252.14L175.78 251.84L175.91 253.11L177.15 253.84L177.12 256.01L173.66 257.45L173.34 258.76L175.11 261.16L176.53 262.22L177.48 261.74L180.2 263.02L181.97 262.71L181.74 263.36L183.01 264.62L184.69 263.14H186.23L186.34 261.08L187.63 261.07L187.76 259.61L190.28 261.23L191.43 260.6L191.48 259.24L192.23 260.45L194.28 261L194.72 260.33L193.18 259.71L192.63 257.76L193.3 256.5L192.84 255.3L191.3 253.11L190.76 253.25L194.33 250.77L193.65 251.25L192.2 250.31L191.07 246.72L188.95 246.05L188.26 246.56L187.51 245.78L188.07 243.29L186.39 240.51L184.61 240.31L183.13 241.65L182.16 240.87L181.39 241.79L179.29 241.11L179.14 240.24L176.46 241.23L176.27 239.07L175.17 238.88L175.29 237.73L176.7 237.57L177.28 234.86L179.33 233.46L178.89 231.34L179.41 230.09L180.37 230.74L182.2 227.59L181.43 224.28L182.04 223.25L180.39 222.9L182.82 221.56L186.06 213.28L191.19 209.63L191.94 208.02L191.39 202.56L190.32 200.87L190.75 199.95L189.81 194.73L190.48 194.26L190.05 192.04L191.03 186.11L190.05 179.34L191.22 176.51L193.05 176.25L193.49 172.23L195.04 171.44L195.97 169.42L198.67 167.04L199.16 163.13L200.56 163.05L201.18 162.14L202.65 162.73L204.33 162.1L205.62 160.6L208.27 159.38L209.43 160.59L214.26 161.44L213.57 160.62L215.56 159.91L215.35 158.05L217.62 157.76L218.46 155.66L219.67 156.1L221.38 155L223.11 155.39L224.38 154.2ZM171.29 245.89L170.24 245.63L170.88 244.7L172.33 244.64L171.29 245.89Z" fill="#CCCCCC" stroke="white" stroke-width="0.5"/>
<path d="M460.07 249.92L462.16 249.41L463.38 250.52L464.35 248.97L465.23 249.28L465.49 248.13L466.61 248.7L468.16 246.35L467.95 244.62L469.4 244.25L469.82 241.94L473.04 242.2L472.19 239.43L473.1 237.71L476.72 236.35L476.69 237.81L479.84 238.98L481.92 241.21L483.47 240.28L487.71 240.76L491 239.96L492.9 238.22L495.04 239.65L496.35 237.84L496.02 237.24L496.92 236.82L497.75 237.5L496.49 239.28L498.47 241.3L497.65 242.42L500.98 244.09L501.15 243.36L502.7 243.51L504.36 242.11L503.2 245.74L505.91 245.73L506.8 245.26L505.07 242.44L505.21 240.93L508.61 242.01L508.6 240.85L510.54 240.2L508.44 239.22L507.52 237.41L509.95 237.56L511.36 239.48L513.21 236.4L511.36 234.39L511.89 232.74L514.77 232.2L514.96 233.06L514.05 234.08L513.12 234.05L513.23 235.01L516.24 233.98L518.09 236.55L517.99 238.69L519.65 238.58L520.71 236.2L519.92 235.07L520.78 234.43L523.21 236.31L523.89 235.7L525.15 237L526.09 236.55L527.09 231.38L529.05 232.41L527.9 234.93L528.46 236.63L525.63 239.1L524.31 243.16L529.71 244.57L532.02 240.88L535.17 241.16L534.71 239.28L535.4 237.94L536.09 239.04L537.04 239.05L537.61 242.71L539.02 243.86L539.59 246.56L541.55 245.13L541.91 247.41L543.3 247.33L542.64 248.23L544.56 248.67L543.6 247.41L543.73 245.96L546.52 245.92L543.81 244.97L547.05 242.35L545.81 241.72L547.29 238.45L548.3 237.78L549 238.17L549.66 236.8L548.59 235.16L547.13 235.03L546.55 234.14L547.97 233.24L549.53 233.48L552.11 231.87L552.83 232.36L555.64 231.37L554.56 228.47L555.16 227.39L557.17 226.74L559.4 227.59L559.71 228.35L562.35 228.33L562.82 230.61L565.63 229.74L568.75 230.76L570.65 229.81L570.48 227.64L571.58 227.1L571.48 225.38L573.31 223.93L574.75 226.82L576.64 226.55L577.42 227.58L579.36 227.25L580.65 230.52L583.23 227.76L583.74 226.14L586.03 225.77L586.56 224.76L589.39 223.48L588.23 221.28L590.04 221L591.13 222.16L593.6 221.47L595.78 222.01L596.07 225.86L596.91 226.31L597.22 228.52L598.54 230.12L597.24 233.02L600.81 234.59L602.38 238.03L599.74 240.52L602.28 241.4L601.51 245.39L601.92 249.79L603.43 249.55L605.24 250.75L606.55 249.28L607.09 252.5L609.04 252.26L608.8 253.45L607.34 253.03L606.76 254.15L610.84 254.56L613.88 258.03L615.3 257.85L615.73 258.6L614.97 260.42L617.62 261.62L619.46 261.6L620.18 263.41L624.84 263.89L626.9 262.79L626.67 263.65L628.43 265.68L628.49 267.54L632.07 266.29L632.74 267.55L633.7 266.66L635.81 266.36L635.26 269.62L634.29 270.78L636.76 270.94L639.39 268.79L640.53 270.25L641.77 269.35L642.51 270.6L643.47 269.71L644.86 270.21L643.73 271.9L644.69 273.95L644.34 276.05L641.82 279.82L642.62 281.24L644.27 281.72L644.38 284.86L641.65 286.75L641.86 289L641.18 289.24L639.88 293.16L640.05 295.16L637.71 296.02L638.61 296.81L639.12 296.47L639.18 297.39L638.53 298.46L637.07 298.63L636.39 300.2L637.34 300.57L637.1 301.29L634.67 301.54L635.78 302.94L635.03 306.21L635.62 306.64L636.18 305.03L636.9 305.61L637.15 304.83L638.16 304.75L638.5 305.58L639.39 305.37L645 308.7L645.55 307.35L647.13 306.94L648.84 307.62L651.63 305.16L655.93 305.83L655.65 304.93L658.54 305.27L659.7 303.89L661.76 303.37L663.36 305.53L665.15 305.71L665.48 306.58L666.13 305.81H667.81L669.18 309.77L671.29 309.93L671.75 309.04L673.47 308.64L673.7 309.39L672.57 310.62L676.29 310.47L677.89 312.03L678.61 315.38L679.6 315.99L681.54 314.43L683.9 314.58L686.31 313.38L686.51 315.45L688.61 316.35L689.17 317.38L689.33 319.89L685.94 322.13L684 321.85L682.94 322.63L682.89 323.9L683.25 326.2L684.14 326.69L684.09 324.21L685.49 325.94L683.94 329.85L686.31 333.71L687.86 334.59L687.37 336.82L690.15 337.3L693.12 339.46L692.33 340.81L696.89 341.38L697.06 345.67L698.73 346.02L700.14 342.41L700.68 343.59L703.14 345.02L701.18 345.55L700.92 346.79L706.89 347.97L707.73 347.2L709.2 347.45L707.73 349.54L708.81 352.49L707.17 352.68L707.11 354.17L707.85 355.4L709.09 355.16L709.71 356.55L708.47 355.76L707.04 355.97L707.29 357.13L705.96 358.58L707.9 363.26L704.29 363.93L703.02 362.72L701.55 363.69L700.48 365.94L697.9 362.79L698.1 365.81L696.63 365.88L695.52 368.75L692.68 367.4L691.22 368.44L691.03 366.75L688.37 367.23L688.51 367.95L690.36 368.54L690.26 369.64L685.44 378.88L684.3 379.22L682.79 381.6L680.82 381.18L678.76 381.79L677.39 383.29L677.69 384.93L676.85 386.67L674.66 388.73L670.3 388.81L669.49 390.42L669.83 392.33L666.08 391.27L665.04 393.68L659.38 395.09L653.74 393.46L653.61 392.34L651.94 393.19L651.63 394.14L647.48 394.38L645.98 393.75L646.52 391.69L645.67 391.19L643.8 390.43L642.68 391.36L639.87 390.92L637.46 387.25L636.78 382.83L635.46 382.38L633.61 380.26L632.52 380.79L624.98 376.41L621.39 380.87L618.66 381.15L618.18 380.12L616.17 380.07L615.67 379.43L608.31 378.49L609.32 382.92L607.87 383.71L607.74 385.55L605.37 387.25L605.51 389.02L606.45 389.05L607.94 391.04L607.29 392.6L605.24 392.8H603.74L602.72 390.54L597.04 390.42L597.02 389.54L596.6 390.15L595.5 389.58L594.95 390.3L593.68 386.82L587.24 387.4L586.15 385.39L587.76 383.85L587.61 381.85L586.25 381.47L585.64 379.46L583.17 379.95L583.06 377.05L581.13 375.84L581.77 373.53L581.17 372.75L580.28 373.28L579.19 372.14L577.76 373.16L576.6 371.33L578.67 369.35L579.57 367.39L579.21 366.69L572.4 367.24L571.98 366.33L568.97 366.94L567.44 367.45L567.76 368.83L566.43 370L561.3 369.28L560.64 370.18L558.1 370.41L558.15 372.17L555.1 372.53L553.18 370.69L554.23 368.54L547.24 367.18L547.88 365.76L546.5 365.02L547.95 362.35L546.72 361.67L546.41 363.78L544.78 366.27L542.11 366L541.18 368.57L539.38 368.27L539.58 369.29L538.51 370.63L535.1 369.57L532.84 371.36L532.63 373.37L529.24 372.84L527.95 374.14L524.4 374.89L524.31 373.64L522.27 376.3L520.79 375.88L519.37 376.73L518.81 376.16L516.95 377.16L515.85 376.23L513.73 369.34L511.86 368.16L512.02 367.16L511.06 365.97L501.84 363.8L501.96 365.14L500.81 367.13L497.33 366.62L497.72 365.12L498.76 364.61L498.46 363.57L497.03 362.51L496.07 363L496.74 363.89L494.6 364.79L493.79 360.87L490.36 362.56L486.72 366.23L486.78 371.32L488.22 373.05L488.48 374.39L487.74 374.6L489.85 380.29L486.3 381.57L488.39 382.62L487.32 383.43L487.58 384.63L488.41 384.45L486.86 385.95L487.12 387.29L488.37 387.55L484.3 389.68L483.22 388.87L481.14 389.42L480.29 387.48L479.58 387.54L479.55 388.62L478.5 388.42L478.25 389.32L479.24 391.76L477.34 393.05L478.98 396.38L481.18 395.6L482.04 397.48L478.97 401.35L479.96 401.89L480.51 404.13L481.48 404.93L485.51 406.68L484 408.38L484.66 409.78L480.57 411.09L479.95 409.94L479.35 409.59L479.19 410.31L477.62 408.94L475.46 408.67L473.01 409.42L472.5 408.8L469.85 409.04L469.1 408.46L465.91 411.95L462.39 413.53L461.58 412.46L460.28 412.47L460.4 410.89L459.09 410.72L458.46 412.22L458.37 411.41L456.54 410.74L451.1 410.19L449.93 408.4L447.14 408.24L445.25 407.09L443.75 407.92L439.39 414.83L440.35 419.16L438.65 420.05L438.32 419.52L428.86 420.79L429.27 423.81L423.4 432.01L421.76 431.72L420.14 433.69L416.66 432.56L416.02 435.82L417.01 435.86L417.26 437.14L418.66 436.76L418.76 438.81L414.87 438.84L414.9 439.84L412.58 442.45L409.95 441.1L408.09 442.5L404.6 441.17L402.63 442.35L401.12 442.13L400.33 443.2L397.29 442.47L395.35 443.18L394.69 442.08L392.59 444.11L391.57 443.4L391.96 443.07L390.38 440.98L387.63 439.07L384 438.07L384.08 435.98L384.42 434.12L388.18 431.56L390.12 426.88L388.54 423.36L387.65 423L387.77 421.59L391.24 420.67L390.96 419.77L392.31 418.03L391.44 414.96L390.78 414.79L388.76 410.47L389.79 407.91L390.47 407.32L391.5 408.05L393.24 406.1L395.38 407.65L397.1 407.8L398.61 404.83L396.38 402.27L396.24 399.12L395.49 398.39L396.54 396.22L395.37 392.38L396.54 391.12L395.42 390.58L394.56 388.27L393.41 388.82L394.67 386.72L393.2 384.67L387.24 386.3L385.93 386.03L385.87 385.23L386.77 385.1L384.59 384.08L385.05 385.9L382.6 386.66L382.11 385.23L382.6 384.4L380 385.12L381.73 384.1L382.67 381.51L382.38 380.55L379.76 379.53L377.9 382.54L376.43 380.6L375.05 380.74L374.7 382.17L373.75 381.99L373.26 380.6L370.68 381.7L370.2 379.27L368.92 379.57L365 377.27L365.41 375.4L363.72 374.23L363.01 370.89L365.16 371.64L367.38 370.21L367.97 371.2L371.48 372.42L378.65 373.06L381.13 372.91L381.12 370.98L387.51 370.78L388.86 370.13L388.79 365.1L386.48 362.34L383.18 361.05L382.93 359.68L383.64 356.85L385.13 357.14L385.2 356.11L386.82 355.19L386.85 348.68L384.47 346.49L381.76 345.62L382.81 345.63L383.2 344.38L384.49 344.12L386.73 345.45L387.68 343.66L388.9 343.88L391.67 340.33L392.25 341.19L393.14 340.49V338.58L393.92 338.89L395.06 341.43L395.83 340.12L398.9 339.86L399.04 338.51L397.77 338.84L396.92 337.59L397.49 339.39L393.28 338.32L396.01 335.8L400.07 336L400.34 333.25L402.93 333.36L402.18 332.17L402.89 329.08L409.53 333.17L414.48 333.37L414.19 331.21L417.23 330.12L418.42 333.09L421.38 333.39L424.02 336.87L424.13 338.73L427.65 339.32L427.7 340.33L428.42 340.55L427.2 334.94L428.73 334.59L427.07 333.99L426.98 333.05L430.49 331.36L430.9 332.38L436.35 332.93L437.24 331.34L435.96 330.28L436.15 327.72L435.29 327.05L435.88 325.65L437.55 326.49L438.42 325.15L437.87 322.28L438.32 319.81L440.1 319.99L440.24 321.62L442.03 320.96L443.82 323.98L445.31 323.61L446.05 322.07L448.9 321.44L449.62 319.73L452.97 318.76L454 317.04L453.81 314.24L454.49 312.46L456.03 312.45L457.91 315.33L459.7 314.85L459.4 311.3L460.39 311.48L461.83 310.36L458.84 309.4L459.47 307.27L465.67 307.74L466.85 307.07L467.15 305.15L465 304.73L464.41 303.52L462.11 303.97L461.41 301.46L457.87 302.4L456.96 301.76L459.07 300.85L461.76 297.41L459.17 298.92L457.79 297.91L457.85 297.23L459.52 297.01L460.22 295.89L458.19 295.06L460.12 291.03L458.27 289.91L458.45 286.48L456.5 284.9L457.89 283.3L457.48 281.42L455.06 279.03L456.07 277.3L459.94 275.18L462.57 275.22L461.71 273.98L463.38 259.53L462.33 258.42L464.13 256.86L464.53 255.07L463.83 254.74L464.93 254.08L463.63 253.66L463.89 252.82L462.96 252.93L462.89 251.66H460.51L460.07 249.92Z" fill="#CCCCCC" stroke="white" stroke-width="0.5"/>
<path d="M367.751 1.06L368.301 1.11L368.551 4.76L371.521 5.46L374.911 8.78L374.961 12.24L376.511 12.6L377.561 11.54L378.211 13.94L380.181 15.71L382.271 15.17L384.901 15.62L385.601 12.9L384.551 10.79L384.791 9.34L385.521 9.07L388.321 10.68L388.021 11.95L391.431 9.6L395.961 9.67L396.141 8.87L397.511 8.45L402.531 10.55L404.221 9.78L407.081 10.14L407.131 11.21L405.841 12.8L404.621 12.43L404.071 13.94L405.561 15.96L405.641 17.63L408.691 20.22L409.031 23.97L411.511 27.88L411.951 27.35L413.231 27.88L416.381 27.3L419.401 29.6L420.421 25.34L424.491 24.59L425.341 23.8L426.721 24.53L426.711 22.31L431.241 22.1L431.871 20.26L437.281 19.24L439.101 21.62L440.751 20.04L442.441 20.25L446.981 25.35L449.801 24.21L451.981 25.15L453.391 24.75L457.181 27.47L459.611 27.06L462.041 27.83L464.161 29.54L462.451 30.37L462.191 31.43L464.711 32.14L466.181 34.46L463.891 35.73L462.551 35.67L462.401 36.48L459.971 36.81L462.251 40.49L460.731 40.5L459.651 42.46L459.831 46.97L457.781 49.78L458.271 52.74L457.331 54.55L457.691 55.69L460.461 56.19L464.321 58.96L464.791 60.73L466.601 62.17L469.091 62.6L473.631 58.54L474.251 55.31L476.651 52.64L477.841 53.15L480.741 51.08L483.511 51.18L486.221 49.66L487.441 51.29L487.291 52.47L488.301 52.96L490.081 52.49L492.931 49.32L492.821 47.62L493.581 47.96L495.591 44.66L494.861 43.38L496.881 41.83L500.811 43.19L502.601 42.42L502.621 40.88L504.431 40.75L508.211 42.37L509.531 44.19L510.401 43.76L512.491 45.83L514.491 45.79L515.251 43.4L517.081 43.35L517.171 41.28L516.501 40.23L517.001 39.62L517.981 41.79L520.001 41.16L521.481 41.57L522.561 40.75L525.061 41.72L525.301 41L525.981 45.86L529.731 45.41L531.821 48.53L534.251 47.8L535.071 48.88L540.631 48.22L540.971 49.47L542.941 50.88L541.301 52.34L543.781 56.49L547.711 56.62L551.271 59.48L552.791 63.13L551.941 64.75L552.141 66.47L554.351 66.66L553.271 68.52L554.541 68.61L554.321 71.35L555.481 71.47L556.221 68.7L558.721 68.28L560.771 75.47L560.341 76.27L561.321 77.4L564.581 77.38L564.541 76.13L565.961 76L566.381 74.04L567.731 73.49L566.691 72.24L568.771 72L572.061 74.4L573.501 73.09L573.771 77.76L575.261 83.58L572.321 84.86L572.141 85.74L573.441 86.59L573.311 87.55L574.511 87.45L575.601 89.35L572.661 91.89L570.941 92.15L572.011 94.33L571.471 96.52L573.741 102.32L572.741 105.2L571.121 105.55L568.991 108.76L566.991 109.82L565.721 111.62L565.131 112.84L565.331 117.73L569.941 118.89L569.961 120.65L571.631 121.35L572.831 127.64L575.601 128.85L576.401 131.7L577.601 131.92L576.671 134.98L578.431 135.33L577.821 138.09L578.411 139.26L577.371 141.95L578.481 144.97L578.551 149.81L577.761 150.48L577.271 149.72L574.021 148.85L571.861 151.1L574.551 153.32L576.041 156.23L574.021 156.86L574.161 158.97L571.581 159.02L571.591 160.49L568.081 160.24L565.441 161.55L565.391 163.29L565.991 163.42L566.491 165.67L564.971 167.66L565.581 169.11L563.761 169.55L560.301 178.51L566.971 181.21L570.101 184.62L572.081 185.03L575.221 187.45L576.921 190.46L578.441 189.26L578.481 192.69L577.651 193.93L578.041 195.83L580.571 195.48L585.451 197.18L587.171 195.71L588.411 196.71L592.131 196.36L593.381 198.34L593.971 201.57L591.211 206.28L589.121 207.76L588.281 209.61L588.451 212.08L585.601 213.54L585.951 215.28L584.951 216.59L586.341 218.48L588.491 218.79L590.541 220.74L591.701 221.03L593.411 220.23L593.601 221.47L591.131 222.16L590.041 221L588.231 221.28L589.391 223.48L586.561 224.76L586.031 225.77L583.741 226.14L583.231 227.76L580.651 230.52L579.361 227.25L577.421 227.58L576.641 226.55L574.751 226.82L573.311 223.93L571.481 225.38L571.581 227.1L570.481 227.64L570.651 229.81L568.751 230.76L565.631 229.74L562.821 230.61L562.351 228.33L559.711 228.35L559.401 227.59L557.171 226.74L555.161 227.39L554.561 228.47L555.641 231.37L552.831 232.36L552.111 231.87L549.531 233.48L547.971 233.24L546.551 234.14L547.131 235.03L548.591 235.16L549.661 236.8L549.001 238.17L548.301 237.78L547.291 238.45L545.811 241.72L547.051 242.35L543.811 244.97L546.521 245.92L543.731 245.96L543.601 247.41L544.561 248.67L542.641 248.23L543.301 247.33L541.911 247.41L541.551 245.13L539.591 246.56L539.021 243.86L537.611 242.71L537.041 239.05L536.091 239.04L535.401 237.94L534.711 239.28L535.171 241.16L532.021 240.88L529.711 244.57L524.311 243.16L525.631 239.1L528.461 236.63L527.901 234.93L529.051 232.41L527.091 231.38L526.091 236.55L525.151 237L523.891 235.7L523.211 236.31L520.781 234.43L519.921 235.07L520.711 236.2L519.651 238.58L517.991 238.69L518.091 236.55L516.241 233.98L513.231 235.01L513.121 234.05L514.051 234.08L514.961 233.06L514.771 232.2L511.891 232.74L511.361 234.39L513.211 236.4L511.361 239.48L509.951 237.56L507.521 237.41L508.441 239.22L510.541 240.2L508.601 240.85L508.611 242.01L505.211 240.93L505.071 242.44L506.801 245.26L505.911 245.73L503.201 245.74L504.361 242.11L502.701 243.51L501.151 243.36L500.981 244.09L497.651 242.42L498.471 241.3L496.491 239.28L497.751 237.5L496.921 236.82L496.021 237.24L496.351 237.84L495.041 239.65L492.901 238.22L491.001 239.96L487.711 240.76L483.471 240.28L481.921 241.21L479.841 238.98L476.691 237.81L476.721 236.35L473.101 237.71L472.191 239.43L473.041 242.2L469.821 241.94L469.401 244.25L467.951 244.62L468.161 246.35L466.611 248.7L465.491 248.13L465.231 249.28L464.351 248.97L463.381 250.52L462.161 249.41L460.071 249.92L457.771 251.12L455.551 249.73L457.111 247.57L456.521 246.58L456.891 245.53L457.741 246.97L458.981 245.48L459.011 242.11L460.191 240.76L461.441 240.55L458.781 239.84L457.301 237.19L457.971 235.61L456.391 235.34L456.151 233.64L460.231 233.72L460.991 233.45L461.691 231.63L463.281 232.07L463.641 231.54L461.831 229.15L462.011 226.33L463.141 226.04L461.621 223.73L461.831 222.56L461.101 222.82L460.441 221.99L464.061 217.28L464.161 215.92L463.301 214.87L465.001 211.14L464.741 208.11L467.061 206.21L465.081 202.22L462.251 202.91L462.421 204.48L461.311 204.83L460.691 207L458.051 206.44L459.271 204.61L456.581 207.88L455.981 206.6L454.771 206.43L452.721 208.54L450.641 208.02L449.581 208.65L449.171 207.74L447.401 207.64L447.071 204.06L446.251 203.35L447.691 201.93L445.991 201.1L446.631 199.78L443.591 200.12L442.691 201.13L439.811 200.76L438.411 199.67L433.271 202.6L432.761 203.44L433.161 205.73L432.001 206.95L430.781 206.54L430.561 205.48L429.781 205.73L427.341 204.17L424.551 204.05L423.731 202.93L421.061 203.94L422.211 205.32L422.251 206.79L421.951 207.79L420.451 208.43L416.851 208.83L415.791 208.49L415.741 207.41L412.881 206.71L413.321 207.33L409.651 208.27L407.111 207.65L407.311 206.67L406.291 205.46L407.251 204.36L407.241 202.49L403.751 196.48L401.961 196.83L401.361 195.55L400.261 195.39L399.571 196.81L390.841 196.72L390.071 203.4L388.881 207.28L387.101 210.37L385.601 210.39L382.101 205.35L380.261 204.68L379.681 202.14L378.211 202.95L377.581 200.71L376.991 201.18L377.681 202.16L377.361 203.47L376.361 201.9L376.601 199.32L373.691 197.37L372.741 195.84L371.321 195.51L366.981 197.59L367.211 196.67L366.241 198.06L367.031 199.9L364.721 200.57L363.791 202.09L363.271 201L362.151 200.95L358.191 203.16L357.731 206.24L355.661 207.05L353.651 203.63L350.441 204.05L347.951 202.6L348.761 200.64L347.251 199.47L344.561 202.49L343.831 202.61L343.581 201.8L340.921 203.44L339.461 203.38L338.881 201.07L337.201 199.95L337.911 197.43L334.851 194.72L334.801 186.15L331.531 184.63L329.941 183.05L328.621 183.65L322.651 183.35L324.101 178.05L322.061 177.26L319.761 178.34L319.361 174.28L317.081 173.19L316.631 171.92L315.141 172.08L314.621 171.24L313.101 172.26L309.311 169.93L307.641 166.51L305.651 165.96L306.491 161.43L304.291 160.61L304.141 159.07L303.591 158.76L303.131 159.42L302.401 158.33L302.701 156.48L303.421 156.03L302.321 154L298.581 154.74L297.921 153.02L296.551 154.13L295.661 152.91L294.131 155.13L293.361 153.1L290.441 154.13L288.801 153.45L287.171 154.2L287.701 155.01L289.081 154.79L288.731 156.23L284.361 156.26L283.331 157.45L280.831 158L280.321 155.24L277.441 153.11L275.851 150.79L274.661 151.61L273.831 151.21L271.881 154.05L270.961 153.02L271.061 151.8L269.521 151.65L268.381 152.46L268.141 153.9L269.151 155.46L270.201 155.49L270.311 157.25L269.621 157.85L268.381 156.71L267.371 157.93L265.541 157.05L264.081 157.57L264.061 159.08L262.411 159.2L261.311 158.79L260.421 156.59L259.291 157.02L257.161 155.18L255.861 156.55L253.221 156.03L252.881 156.55L254.561 158.22L251.241 161.34L246.821 158.5L245.371 159.85L242.761 157.93L241.271 158.52L240.651 157.03L238.951 156.03L234.751 154.91L233.771 156.52L234.561 157.14L235.221 156.75L235.081 158.16L233.991 158.83L232.511 157.67L230.291 161.48L228.451 160.39L228.801 159.11L227.491 155.77L226.101 154.54L224.381 154.2L224.821 152.03L226.871 148.58L227.231 145.19L228.761 144.92L228.571 144.21L229.241 143.92L226.341 139.84L228.811 138.19L231.611 137.69L232.321 137.12L231.631 136.54L233.511 136.28L233.311 135.08L235.711 134.45L238.321 135.41L238.791 136.58L239.921 135.64L243.451 137.09L244.621 136.1L244.771 134.68L247.421 133.15L249.351 135.28L252.481 133.96L255.241 134.79L257.621 132.99L259.191 133.48L259.501 132L260.681 132.45L261.341 131.54L260.141 130.89L259.331 128.19L260.631 127.29L261.401 127.95L263.251 125.97L263.351 122.27L264.391 121.05L266.791 120.33L268.341 118.52L270.841 117.64L270.611 114.22L267.711 112.39L262.501 112.25L258.491 110.01L258.091 111.26L257.061 110.63L256.071 112.3L255.781 110.62L254.711 111.01L254.991 111.76L254.171 112.64L252.621 112.55L252.471 111.73L250.931 112.62L249.561 111.27L242.831 109.71L242.081 108.88L244.091 107.87L244.491 106.11L246.411 106.07L248.561 103.69L250.251 103.65L249.841 101.27L250.621 100.61L249.321 96.79L250.541 96.94L249.491 95.44L251.211 92.92L250.431 91.54L249.451 91.34L248.291 88.14L249.551 85.72L252.381 84.41L254.581 80.79L255.271 81.08L256.961 79.68L256.891 75.94L256.231 74.94L257.521 72.76L257.021 69.24L255.981 69.09L255.961 65.88L257.541 63.37L257.191 62.77L262.431 63.21L264.391 65.7L267.291 66.3L268.561 63.71L273.801 61.52L274.211 58.79L275.891 56.71L277.661 51.63L279.431 51.82L281.341 48.57L284.351 46.46L285.701 47.17L286.801 46.32L290.431 46.74L291.061 44.48L292.551 43.71L293.841 44.11L294.641 43.38L295.971 45.37L298.381 46.04L301.321 49.5L301.661 50.85L304.081 52.06L308.971 50.24L310.281 48.28L315.161 50.92L323.661 52.2L328.771 51.78L330.541 43.88L329.411 38.1L331.531 35.34V33.29L337.741 27.58L340.221 27.34L342.281 26.26L343.381 23.98L342.391 22.73L343.221 22.66L344.701 20.83L343.041 19.13L346.371 18.25L347.731 16.9L349.861 17.77L352.191 14.24L353.421 10.09L354.701 9.4L355.241 8L356.711 7.26L360.171 8.32L360.371 7.11L362.131 5.59L363.851 6.02L364.101 4.19L367.041 1L367.751 1.06Z" fill="#CCCCCC" stroke="white" stroke-width="0.5"/>
<path d="M327.4 307.12L326.66 306.92L325.61 304.47L326.31 303.45L327.08 303.7L327.4 307.12ZM350.2 297.97L349.48 297.9L349.43 296.15L350.69 296.89L350.2 297.97ZM360.49 295.08L362.1 297.08L360.72 298.12L358.18 295.13L360.49 295.08ZM326.84 285.31L329.3 286.65L330.86 285.95L330.51 287.25L331.92 288.13L333.61 287.81L334.72 286.65L337.04 287.02L337.57 286.18L338.52 286.44L337.76 290.09L333.63 292.18L335 296.84L334 299.53L337.24 301.9L337.72 298.53L342.14 298.74L343.61 300.32L341.4 302.01L341.3 303.7L339.3 304.12L336.62 302.22L335.62 303.59L335.94 305.12L333.52 306.28L332.99 305.7L333.62 304.65L332.41 303.81L333.62 302.97L332.99 301.65L331.41 302.81L329.3 303.07L319.14 302.07L318.25 302.7L317.78 301.65L315.57 300.91L314.73 298.33L312.99 298.96L313.04 299.7L311.09 298.49L312.99 296.7H313.99V291.75L315.41 288.85L317.57 286.69L319.94 285.85L326.84 285.31Z" fill="#CCCCCC" stroke="white" stroke-width="0.5"/>
<path d="M230.291 161.48L232.511 157.67L233.991 158.83L235.081 158.16L235.221 156.75L234.561 157.15L233.771 156.52L234.761 154.92L238.951 156.04L240.661 157.04L241.281 158.53L242.761 157.94L245.371 159.87L246.821 158.52L251.241 161.36L254.571 158.24L252.891 156.57L253.231 156.04L255.871 156.57L257.161 155.2L259.291 157.04L260.421 156.62L261.311 158.81L262.411 159.22L264.061 159.11L264.081 157.6L265.541 157.09L267.361 157.96L268.371 156.74L269.611 157.88L270.301 157.28L270.191 155.52L269.141 155.5L268.141 153.93L268.381 152.49L269.521 151.68L271.061 151.83L270.961 153.05L271.881 154.08L273.831 151.24L274.661 151.64L275.851 150.82L277.451 153.15L280.331 155.28L280.841 158.04L283.341 157.49L284.371 156.3L288.741 156.27L289.091 154.83L287.721 155.05L287.191 154.24L288.821 153.48L290.451 154.16L293.371 153.13L294.141 155.16L295.681 152.94L296.571 154.16L297.941 153.06L298.611 154.78L302.351 154.04L303.441 156.07L302.721 156.52L302.421 158.37L303.151 159.46L303.621 158.81L304.171 159.12L304.321 160.66L306.521 161.48L305.681 166.01L307.671 166.56L309.341 169.98L313.131 172.31L314.661 171.3L315.181 172.13L316.671 171.98L317.121 173.25L319.401 174.34L319.791 178.41L322.091 177.32L324.141 178.11L322.691 183.41L328.661 183.7L329.981 183.1L331.571 184.68L334.851 186.2L334.891 194.77L337.951 197.48L337.251 200L338.931 201.12L339.511 203.42L340.971 203.48L343.641 201.84L343.891 202.65L344.611 202.52L347.301 199.5L348.811 200.67L348.001 202.63L350.501 204.08L353.711 203.66L355.711 207.08L357.791 206.27L358.251 203.19L362.211 200.98L363.331 201.03L363.851 202.13L364.781 200.6L367.081 199.94L366.291 198.09L367.271 196.7L367.031 197.62L371.371 195.54L372.801 195.87L373.751 197.4L376.671 199.35L376.431 201.93L377.431 203.5L377.751 202.19L377.061 201.21L377.651 200.74L378.281 202.98L379.761 202.18L380.341 204.71L382.181 205.38L385.691 210.43L387.181 210.41L388.961 207.32L390.161 203.44L390.931 196.76L399.671 196.85L400.361 195.44L401.461 195.59L402.061 196.88L403.851 196.52L407.341 202.53L407.351 204.4L406.401 205.51L407.421 206.72L407.221 207.7L409.761 208.32L413.431 207.38L412.991 206.76L415.851 207.46L415.901 208.54L416.961 208.88L420.561 208.47L422.061 207.83L422.361 206.83L422.321 205.37L421.181 203.98L423.851 202.98L424.681 204.1L427.461 204.22L429.901 205.78L430.681 205.53L430.891 206.6L432.121 207.01L433.281 205.79L432.871 203.5L433.391 202.66L438.531 199.73L439.931 200.81L442.811 201.18L443.711 200.18L446.751 199.84L446.111 201.16L447.811 201.99L446.371 203.42L447.201 204.13L447.531 207.7L449.301 207.8L449.711 208.72L450.771 208.09L452.851 208.61L454.901 206.5L456.101 206.67L456.711 207.95L459.401 204.68L458.171 206.51L460.811 207.07L461.431 204.9L462.541 204.56L462.381 202.98L465.211 202.29L467.191 206.28L464.871 208.17L465.131 211.21L463.431 214.93L464.291 215.98L464.191 217.34L460.561 222.06L461.231 222.88L461.951 222.63L461.741 223.8L463.261 226.11L462.131 226.4L461.951 229.22L463.761 231.61L463.411 232.14L461.821 231.7L461.131 233.52L460.371 233.79L456.291 233.71L456.531 235.4L458.111 235.68L457.441 237.26L458.921 239.9L461.571 240.62L460.321 240.82L459.141 242.17L459.111 245.54L457.871 247.03L457.021 245.59L456.651 246.64L457.241 247.64L455.681 249.8L457.901 251.19L460.201 249.99L460.641 251.73H463.021L463.091 253L464.021 252.89L463.761 253.73L465.061 254.15L463.971 254.82L464.661 255.15L464.261 256.94L462.461 258.5L463.511 259.61L461.841 274.06L462.701 275.3L460.071 275.26L456.201 277.38L455.181 279.11L457.601 281.49L458.011 283.37L456.611 284.97L458.571 286.55L458.391 289.98L460.241 291.11L458.311 295.14L460.341 295.98L459.631 297.09L457.961 297.32L457.901 297.99L459.281 299L461.871 297.49L459.181 300.94L457.071 301.85L457.981 302.49L461.521 301.55L462.221 304.06L464.521 303.61L465.111 304.82L467.261 305.23L466.971 307.15L465.781 307.82L459.591 307.35L458.961 309.48L461.951 310.44L460.511 311.56L459.531 311.39L459.831 314.94L458.041 315.41L456.161 312.53L454.631 312.54L453.951 314.32L454.141 317.12L453.111 318.84L449.771 319.81L449.051 321.51L446.201 322.15L445.461 323.69L443.981 324.06L442.191 321.04L440.401 321.7L440.271 320.07L438.491 319.88L438.031 322.36L438.581 325.23L437.711 326.57L436.041 325.73L435.451 327.13L436.311 327.8L436.121 330.36L437.401 331.42L436.511 333.01L431.051 332.46L430.641 331.44L427.131 333.13L427.221 334.07L428.871 334.67L427.351 335.02L428.571 340.64L427.851 340.42L427.811 339.42L424.291 338.82L424.181 336.96L421.541 333.48L418.581 333.18L417.391 330.21L414.361 331.3L414.651 333.46L409.701 333.26L403.051 329.16L402.341 332.25L403.091 333.44L400.511 333.33L400.241 336.08L396.181 335.88L393.461 338.4L397.671 339.47L397.101 337.67L397.951 338.92L399.211 338.59L399.071 339.94L396.011 340.2L395.241 341.51L394.101 338.97L393.321 338.66L393.331 340.57L392.441 341.28L391.861 340.41L389.101 343.97L387.871 343.75L386.931 345.55L384.691 344.21L383.411 344.47L383.011 345.72L381.971 345.71L384.681 346.59L387.061 348.78L387.031 355.28L385.411 356.21L385.341 357.23L383.851 356.95L383.141 359.78L383.391 361.15L386.681 362.43L388.991 365.19L389.061 370.22L387.711 370.87L381.321 371.07L381.331 373L378.851 373.15L371.681 372.51L368.171 371.29L367.581 370.31L365.361 371.74L363.211 370.99L363.921 374.33L365.611 375.5L365.201 377.37L369.121 379.67L370.401 379.38L370.881 381.8L373.461 380.71L373.961 382.1L374.911 382.28L375.261 380.84L376.641 380.7L378.111 382.64L379.961 379.63L382.581 380.65L382.881 381.61L381.941 384.2L380.211 385.22L382.811 384.5L382.321 385.34L382.811 386.77L385.261 386.01L384.801 384.19L386.991 385.21L386.091 385.35L386.151 386.15L387.461 386.42L393.431 384.79L394.901 386.84L393.641 388.94L394.791 388.39L395.651 390.7L396.771 391.24L395.601 392.5L396.771 396.34L395.721 398.51L396.471 399.25L396.601 402.4L398.831 404.96L397.321 407.93L395.601 407.78L393.461 406.23L391.721 408.17L390.691 407.45L390.011 408.04L388.981 410.6L391.001 414.93L391.671 415.1L392.531 418.16L391.191 419.91L391.461 420.8L388.001 421.73L387.881 423.13L388.771 423.5L390.361 427.02L388.421 431.7L384.651 434.26L384.311 436.12L384.241 438.21L387.871 439.21L390.621 441.12L392.201 443.21L391.811 443.54L389.521 447.75L389.411 460.19L382.681 466.9L372.211 468.57L371.771 466.31L367.161 467.18L366.271 462.72L356.781 463.95L354.961 464.94L355.821 469.56L354.121 470.54L354.041 473.84H352.001L349.921 475.06L343.191 473.22L337.241 473.82L336.861 471.52L331.061 467.93L329.071 467.87L330.311 462.29L328.861 462.23L328.961 460.4L327.661 461.05L327.261 460L325.441 461.9L323.541 460.11L323.341 461.56L321.831 462.17L317.731 461.52L317.481 462.65L312.901 461.74L311.371 465.55L310.591 465.6L310.561 466.58L308.951 466.77L310.801 471.34L310.131 472.61L306.901 475.26L306.041 476.85L303.871 477.92L303.841 478.65L300.421 477.71L300.301 475.31L295.661 475.4L295.331 471.28L293.301 471.47L292.551 467.03L287.681 466.82L287.691 463.92L286.821 463.17L287.571 463.11L287.501 458.42L286.301 458.31L286.031 454.94L284.691 455.02L283.821 453.8L283.721 451.36L285.801 451.34L285.581 446.66L284.551 446.27L285.011 444.56L288.051 443.62L287.201 440.02L285.231 439.1L285.891 435.91L284.211 431.52L280.251 436.96L275.721 434.16L274.861 434.28L273.461 432.21L271.111 433.18L268.411 432.9L265.701 429.37L264.881 422.89L263.821 422.49L263.701 423.2L261.811 423.13L262.221 424.27L260.191 423.73L258.451 421L257.931 421.62L255.601 421.23L255.981 420.89L252.741 417.75L250.481 423.88L248.211 425.08L247.291 421.62L242.461 428.63L242.351 427.28L238.281 424.94L237.671 422.87L238.031 421.27L243.441 415.84L242.231 415.08L241.591 413.14L239.741 411.16L238.101 406.92L238.481 405.61L239.941 405.33L240.641 404.1L243.501 404.39L243.111 400.62L243.741 400L243.111 399.58L244.311 397.83L247.941 398.95L248.441 398.45L247.241 394.15L245.161 394L244.291 390.15L239.711 390.22L237.491 388.71L237.351 386.54L236.041 385.41L234.401 385.72L234.381 384.12L233.401 382.74L230.561 381.7L229.761 378.92L232.571 378.18L232.111 376.73L233.041 375.51L234.941 375.06L235.071 372.78L238.151 372.67L239.241 365.41L237.831 365.18L236.261 359.84L237.051 359.2L238.381 359.58L240.391 357.18L241.251 357.88L243.751 356.45L247.721 356.97L248.441 355.99L252.621 355.16L250.861 351.04L250.571 342.56L249.491 342.89L248.991 341.42L248.221 341.43L247.591 342.78L246.001 341.63L249.431 338.97L249.531 335.61L245.091 333.42L245.591 332.81L242.761 330.24L241.931 327.43L238.901 324.76L239.031 323.27L237.731 322.11L235.901 322.12L236.701 318.68L232.311 317.41L232.061 315.71L228.751 310.08L229.691 309.15L228.391 307.23L229.901 305.98L228.681 304.52L227.231 305.41L226.001 304.19L226.791 303.92L226.141 302.39L228.311 302.12L226.391 297.66L229.161 297.47L230.121 296.01L231.151 297.28L233.401 294.93L237.551 293.46L235.591 289.9L237.331 290.2L239.361 289.45L241.501 286.72L238.711 280.27L235.251 283.03L231.941 283.79L233.531 279.5L232.981 273.62L229.231 274.7L227.631 276.27L226.881 275.94L224.241 277.85L221.741 276.92L221.481 274.95L219.991 273.31L220.321 271.57L219.171 269.3L219.751 268.61L218.521 267.37L218.961 264.03L220.371 263.35L220.351 262.14L218.871 262.12L217.081 263.29L215.731 262.75L214.711 263.72L216.721 265.56L216.271 266.83L209.951 263.32L209.561 261.94L212.281 258.32L212.651 255.97L213.471 255.15L214.131 255.49L213.721 256.76L214.781 257.79L217.021 257.64L218.201 255.73L220.881 254.29L224.321 251.11L225.611 252.11L226.911 250.93L228.421 252.29L228.701 253.65L229.471 253.03L232.501 254.54L233.761 253.85L235.261 254.32L236.891 252.24L236.501 251.51L237.911 251.28L237.491 250.12L239.131 247.45L239.801 247.58L241.161 244.3L242.251 244.22L242.631 243.27L243.521 243.84L244.301 242.92L245.951 242.67L245.671 240.32L248.371 234.14L249.541 234.15L249.051 231.86L250.221 231.77L251.181 229.52L253.781 229.63L257.341 225.01L255.421 223.93L256.691 223.32L256.291 222.65L257.881 219.11L256.901 217.85L257.131 215.36L255.821 215.56L256.231 214.19L255.031 213.67L255.121 211.89L255.911 211L254.861 209.82L258.531 211.32L258.461 207.18L260.821 207.23L261.131 205.95L258.681 205.01L258.611 200.77L259.661 198.91L256.921 199.59L256.561 198.76L255.241 198.47L253.871 199.74L253.361 198.44L252.051 197.7L251.621 194.58L249.621 190.81L250.521 187.23L250.031 185.24L246.721 183.86L242.441 176.68L240.901 175.33L238.441 175.62L237.161 176.61L235.971 176.1L234.551 177L235.031 175.8L234.061 172.09L235.141 171.21L235.191 169.11L236.471 168.32L230.161 162.51L230.291 161.48ZM326.841 285.31L329.301 286.65L330.861 285.95L330.511 287.25L331.921 288.13L333.611 287.81L334.721 286.65L337.041 287.02L337.571 286.18L338.521 286.44L337.761 290.09L333.631 292.18L335.001 296.84L334.001 299.53L337.241 301.9L337.721 298.53L342.141 298.74L343.611 300.32L341.401 302.01L341.301 303.7L339.301 304.12L336.621 302.22L335.621 303.59L335.941 305.12L333.521 306.28L332.991 305.7L333.621 304.65L332.411 303.81L333.621 302.97L332.991 301.65L331.411 302.81L329.301 303.07L319.141 302.07L318.251 302.7L317.781 301.65L315.571 300.91L314.731 298.33L312.991 298.96L313.041 299.7L311.091 298.49L312.991 296.7H313.991V291.75L315.411 288.85L317.571 286.69L319.941 285.85L326.841 285.31ZM360.491 295.08L362.101 297.08L360.721 298.12L358.301 294.8L360.491 295.08ZM350.201 297.97L349.481 297.9L349.431 296.15L350.691 296.89L350.201 297.97ZM327.031 307.35L325.611 304.47L326.311 303.45L327.081 303.7L327.611 306.51L327.031 307.35Z" fill="#CCCCCC" stroke="white" stroke-width="0.5"/>
</svg>
