<svg width="753" height="613" viewBox="0 0 753 613" fill="none" xmlns="http://www.w3.org/2000/svg">
<path d="M469.18 16.32L466.18 17.75L466.32 23.04L461.9 21.11L462.62 17.78L464.49 19.77L466.14 17.34L464.56 16.28L469.18 16.32ZM436.75 1L447.82 6.98L448.7 13.99L444.54 17.73L445.96 25.32L449.13 25.07L446.95 26.84L435.06 22.17L434.75 27.43L452.86 29.11L457.02 26.56L463.26 33.93L479.5 18.09L480.14 10.8L484.42 5.44L487.67 9.68L494.09 10.08L499.19 22.28L492.85 34.26L504.56 48.43L505.09 58.62L510.56 60.27L517.82 56.89L525.66 62.07L522.8 73.52L525.04 75.54L520.96 80.1L520.55 88.19L529.58 99.52L529.85 109.73L524.44 115.14L518.94 113.07L516.55 118.39L511.38 119.04L509.8 119.32L504.28 119.66L497.49 129.48L481.31 132.88L480.84 138.31L475.22 145.35L472.2 141.99L466.15 144.67H465.24L458.92 149.33L443.3 152.6L438.24 144.03L432.25 148.44L426.86 147.95L419.86 156.37L421.79 151.5L417.3 148.32L402.01 152.73L400.84 158.13L397.69 158.78L391.33 154.62L387.4 158.26L379.64 153.39L377.6 158.66L372.39 154.31L361.17 157.42L360.06 152.76L356.87 151.71L358.29 146.65L351.17 151L351.81 147.76L338.93 142.76L330.97 144.52L329.51 142.58L325.62 145.79L321.34 143.51L322.84 138.08L320.56 137.06L318.28 124.74L325.42 118.34L332.52 120.57L345.32 117.05L348.67 107.99L348.53 99.23L346.08 98.02L347.5 93.5L343.26 92.2L340.48 77.45L346.72 68.18L338.61 62.6L336.61 50.37L330.33 46.77L326.25 40.21L349.34 39.22L350.84 45.06L358.76 46.08L368.14 43.31L358.92 25.8L361.37 19.45L357.77 17.71L376.21 7.96L388.87 6.68L390.68 9.51L387.33 16.83L388.38 24.92L396.14 22.03L408.63 25.05L414.29 23.9L413.94 18.27L418.98 15.97L430.55 1.17L436.75 1Z" fill="#CCCCCC" stroke="white" stroke-width="0.5"/>
<path d="M303.66 246.27L314.34 238.97L319.1 246.24L324.61 245.62L332.33 251.63L335.23 248.41H343.85L345.4 242.1L349.47 243.17L347.43 239.59L349.45 237.69L352.7 243.02L356.88 243.11V239.28L380.34 231.1L380.17 235.11L386.53 239.62L386.66 236.15L396.19 233.7L400.24 228.52L401.91 235.51L407.81 235.05L411.93 231.06L408.43 225.94L409.44 217.72L419.21 220.73L422.84 218.76L423.62 220.85L425.47 216.83L432.34 215.42L438.45 217.96L442.61 224.59L447.02 224.87L447.06 228.79L459.34 227.05H460.82L460.8 232.87L464.43 234.9L475.48 226.65L482.78 232.72L482.1 238.09L477.53 240.69L482.17 247.15L479.12 249.7L479.32 258.91L475.66 265.92L469.39 264.45L464.75 270.57L459.16 270.08L459.45 272.19L437.4 278.58L438.15 282L434.01 278.55L428.84 282.43L426.97 275.8L422.96 276.53L421.27 280.81L413.45 277.05L411.74 281.3L414.42 289.33L409.66 291.23L401.16 288.45L396.16 290.8L396.72 296.88L383.96 301.61L381.82 297.27L376.84 298.1L375.09 300.9L375.69 291.59L371.84 292.85L364.45 289.61L353.94 290.43L348.91 296.08L349.51 288.72L343.23 288.78L337.49 280.6L332.39 280.53L333.58 273.96L323.27 271.61L324.12 264.63L319.55 259.95L312.04 269.07L304.87 268.95L301.93 262.68L302.47 247.58L306.15 246.6L303.66 246.27Z" fill="#CCCCCC" stroke="white" stroke-width="0.5"/>
<path d="M367.21 187.3L367.99 187.88L369.37 193.08L366.51 196.52L373.77 201.35L376.7 210.35L371.96 213.39L372.72 215.57L375.81 215.91L379.5 219.9L376.74 220.14L374.21 221.22L359 228.3L349.12 224.99L343.69 213.64L339.16 214.99L332.57 211.67L332.08 212.16L331.96 211.79L333.93 209.24L334.49 206.48L339.49 206.23L338.99 196.8L342.25 191.97L345.6 188.87L346.67 188.25L349.45 186.28L350.7 186.01L357.93 187.33L362.08 182.71L364.6 184.56L366.59 185.91L367.21 187.3Z" fill="#CCCCCC" stroke="white" stroke-width="0.5"/>
<path d="M179.07 227.54L185.72 230.64L194.38 228.58L195.02 238.05L208.33 238.51L211.19 241.54L212.26 241.88L221.48 226.12L227.88 223.14L228.68 227.59L237.34 223.42L236.39 226.49L240.55 233.7L247.51 232.99L253 235.63L260.96 232.69L264.11 238.42L262.96 245.35L267.22 251.17L275.49 251.81H276.79L294.16 247.95L295.87 250.16L300.91 243.85V244.56L303.67 246.28L306.16 246.62L302.48 247.6L301.94 262.69L304.88 268.96L312.06 269.08L319.57 259.96L324.14 264.64L323.28 271.61L333.59 273.96L332.4 280.53L337.5 280.59L343.24 288.78L349.52 288.72L348.92 296.08L353.96 290.43L364.46 289.61L371.85 292.85L375.7 291.6L375.1 300.91L376.85 298.1L381.83 297.28L383.97 301.61L396.73 296.88L392.96 308.6V309.61L393.72 312.81L399.75 309.7L398.19 311.56L400.82 317.66L395.37 327.47L404.28 332.59L401.61 339.2L397.97 340.42L401.94 344.38L398.77 345.87L397.06 352.71L399.73 362.07L385.16 365.32L382.26 361.43L378.16 361.49L373.59 368.57L362.72 366.75L361.77 371.34L356.3 372.71L354.18 377.69L348.34 377.14L340.27 383.69L351.46 392.4L355.68 387.64L357.57 388.73H359.48L362.24 390.73L362.08 391.76L361.69 396.73H361.01L361.46 405.34L354.87 410.07L362.36 423.84L359.48 428.23L360.41 445.7L364.07 446.97L365 461.37L370.85 473.59L368.54 478.44L352.61 475L344.48 470.15L322.28 474.1L321.72 469.85L312.05 467.26L315.96 460.74L310.9 455.16L315.57 446.49L322.01 446.13L329.21 440.12L322.79 429.2L323.33 420.85L314.25 420.7L314.48 422.82L309.36 420.64L314.53 411.68L313.69 396.59L317.99 395.59L327.39 384.49L324.92 378.63L318.97 377.63L315.94 373.44L313.51 377.75L316.89 382.82L311.13 382.91L307.1 369.1L303.05 365.94L299.2 366.85L289.12 352.23L281.81 357.19L279.2 355.55L278.19 357.62L278.03 355.43L265.27 361.96L255.17 354.33L250.5 354.18L248.2 356.89L246.9 353.67L235.19 354.61L232.51 357.01L231.69 366.13L227.66 363.91L229.37 368.13L227.48 368.62L220.77 359.63L217.79 349.02L221.02 338.89L218.1 322.63L207.97 310.62L203.05 312.3L200.21 309.28L186.96 313.31L186.07 309.83L190.51 302.23L181.93 299.3L176.6 307.45L174.6 306.26L162.73 312.12L159.89 308.22L146.29 302L143.84 297.64L143.86 280.38L136.14 261.21L141.2 255.58L138.79 251.66L140.31 247.86L127.14 241.03L128.35 237.72L124.15 231.13L132.4 228L140.65 232.39L149.15 231.32L152.79 241.68L159.66 245.36L168.69 234.08L174.1 233.28V232.08L179.07 227.54ZM62.9202 246.08L64.2802 244.3L58.6602 237.4L60.7002 235.71L58.8502 232.74L64.0402 229.73L65.7502 231.42L65.8102 229.21L69.1802 231.88L74.3302 230.62L74.2102 228.29L82.0102 225.5L77.4002 219.42L89.7902 214.23L92.5902 216.56L91.3802 222.73L95.4502 223.59L93.4102 225.74L85.2002 232.55L77.9402 234.6L79.1702 238.65L72.1302 250.35L62.9202 246.08Z" fill="#CCCCCC" stroke="white" stroke-width="0.5"/>
<path d="M613.63 213.85L615.19 222.87L611.61 230.3L617.78 233.58L618.73 233.7L621.4 231.22L623.87 233.06L624.14 233.92H631.59L638.61 244L646.33 243.05L650.55 245.26L656 237.47L652.44 231.06L657.27 232.44L665.92 228.83L669.68 231.68L677.4 231.16L681.6 234.53L681.21 242.38L682.4 239.46L696.23 241.3L709.15 263.07L706.4 265.61L709.3 268.89L707.98 270.69L711.99 268.67L725.8 270.66L720.86 282.09L717.32 281.76L707.75 291.72L708.19 296.39L711.63 297.97L710.16 301.12L713.93 302.86L717.45 310.67L726.03 307.65L741.65 312.68L739.67 320.76L745.77 323.16L746.63 328.77L739.78 345.91L752.62 359.53L752.04 363.42L743.87 365.88L743.63 369.01L738.01 363.33L733.13 364.48L727.84 380.15L715.25 383.15L711.71 389.07L707.71 389.77L705.86 394.13L710.53 405.68L701.83 407.89L699.3 414.46L703.37 418L700.57 421.73L695.35 419.91L697.8 415.98L695.51 410.71L689.26 409.22L688.97 413.77L685.3 414.67L679.5 411.43L678.22 405.53L680.06 398.68L675.98 398.77L675.4 365.79L670.18 363.84L669.4 360.96L646.7 355.76L644.49 361.87L647.99 365.85L643.32 375.93H644.35L650.3 376.39L642.66 382.06L636.72 381L636 384L634.39 380.85L628.11 379.91L619.72 381.85L624.57 369.86L620.03 369.77L615.81 361.29L619.31 352.72L609.63 353.08L610.5 349.43L602.02 348.61L594.26 340.22L583.29 342.22L578.5 332.33L569.96 337.69L560.72 330.93L557.98 336.11H561.05L562.55 339.58L555.49 346.36L547.36 343.62L536.82 350.68L533.67 346.76L534.79 341.95L524.66 338.97L522.05 334.98L524.76 328.37L517.4 315.85L510.59 319.02L508.14 314.66L510.13 313.07L504.82 312.16L503.88 308.41L506.33 305.6L501.49 308.16L497.23 304.99L496.82 300.14L485.73 299.35L489.12 296.97L488.03 290.89L484.04 282.4L474.65 273.29L475.66 265.92L479.32 258.91L479.12 249.7L482.17 247.15L477.53 240.69L482.1 238.09L482.78 232.72L487.93 235.88L487.45 240.72L492.41 245.96L498.46 245.35L511.08 249.42L514.06 246.73L511.57 243.57L512.87 240.69L523.69 242.68L525.32 239.8L529.21 243.36L532.67 239.34L538.14 243.05L546.8 234.01L554.19 233.43L560.18 242.31L565.88 242.01L568.6 236.34L571.62 240.84L580.76 235.27L581.25 230.11L582.35 230.67L597.39 225.05L605.85 215.72L612.1 216.15L612.54 213.82L613.63 213.85Z" fill="#CCCCCC" stroke="white" stroke-width="0.5"/>
<path d="M631.3 227.08L636.16 230.85L643.24 228.24L644.21 231.34L651.1 226.8L652.44 231.06L656 237.47L650.55 245.25L646.33 243.04L638.61 243.99L631.59 233.91H624.14L623.87 233.05L621.4 231.21L618.73 233.69L617.78 233.57L611.61 230.29L622.68 229.55L628.26 222.8L631.3 227.08ZM582.9 70.14L587.22 74.2L588 87.35L605.6 94.81L606.86 98.74L627.64 99.17L629.92 109.07L639.02 104.09L644.91 111.45L636.1 119.64L640.44 125.82L633.42 127.83L634.26 137.12L629.18 136.75L626.13 145.55L629.65 148.85L627.72 156.68L618.91 167.62L620.41 169.9L624.81 168.42L626.04 171.41L619.33 183.97L614.82 183.63L610.7 192.64L604.16 195.56L605.02 209.11L612.57 213.81L612.12 216.14L605.88 215.71L597.42 225.04L582.38 230.65L581.27 230.1L580.78 235.25L571.64 240.83L568.62 236.32L565.9 241.99L560.2 242.3L554.21 233.41L546.82 233.99L538.16 243.03L532.69 239.32L529.23 243.33L525.34 239.78L523.71 242.66L512.87 240.69L511.57 243.57L514.06 246.73L511.08 249.43L498.45 245.36L502.2 237.24L498.68 235.43L499.89 230.62L501.51 228.53L500.21 221.66L508.5 214.72L507.12 214.66L504.14 213.03L505.33 202.71L508.89 193.33L513.21 193.91L515.02 185.73L511.34 182.68L505.23 182.83L504.63 180.28L500.66 181.79L496.63 184.07L493.98 180.25L491.47 181.7L487.19 173.76L493.77 168.4L494.41 160.48L503.28 156.97L501.53 149.72L503.67 148.64L504.08 151.29L509.58 148.61L501.74 140.71L494.35 141.64L494.99 148.77L490.09 151.55L487.35 148.5L483.36 149.92L480.77 143.94L475.19 145.36L480.81 138.32L481.28 132.89L497.46 129.49L504.25 119.67L509.77 119.33L511.35 119.05L516.52 118.4L518.91 113.08L524.41 115.15L529.82 109.74L529.55 99.53L520.52 88.2L520.93 80.11L525.01 75.55L544.11 75.05L546.04 71.27L559.95 74.99L573.29 63.17L579.22 64.72L582.9 70.14Z" fill="#CCCCCC" stroke="white" stroke-width="0.5"/>
<path d="M555.49 346.36L562.55 339.58L561.05 336.11H557.98L560.72 330.93L569.96 337.69L578.5 332.33L583.29 342.22L594.26 340.22L602.02 348.61L610.5 349.43L609.63 353.08L619.31 352.72L615.81 361.29L620.03 369.77L624.57 369.86L619.72 381.85L628.11 379.91L634.39 380.85L636 384L636.72 381L642.66 382.06L650.3 376.39L644.35 375.93H643.32L647.99 365.85L644.49 361.87L646.7 355.76L669.4 360.96L670.18 363.84L675.4 365.79L675.98 398.77L680.06 398.68L678.22 405.53L666.93 408.65L665.83 421.15L653.43 427.08L651.57 437.39L645.13 443.07L648.08 446.79L646.18 452.2L638.26 457.12L641.65 466.71L635.77 472.02L629.76 472.78L627.23 486.19L621.9 491.37L631.38 497.51L629.53 501L625.75 499.47L626.78 504.13L624.14 505.19L626.34 507.05L622.89 510.39L625.58 523.98L632.17 522.69L640.28 537.13L639.51 544.55L646.96 543.59L650.96 548.6L646.96 558.34L655.79 562.15L654.91 570.12L651.2 570.75L648.8 578.8L643.71 582.54L644.47 585.15L647.99 584.97L648.01 589.06L642.29 595.28L637.52 597.59L626.43 592.62L623.83 599.44L605.11 595.7L598.48 602.52L597.64 608.88L593.87 604.28L586.98 602.1L584.05 606.04L573.13 608.4L570.66 611.69L566.31 605.54L569.61 602.82L569.36 599.2L564.77 595.34L567.3 590.83L564.01 590.02L562.26 582.36L546.6 571.91L544.62 576.08L539.79 577.81L538.29 572.33L543.2 564.99L532.4 553.45L530.59 552.19L525.96 555.61L518.67 552.49L511.04 553.21L510.24 546.5L503.46 547.19L497 532.36L491.16 532.72L480.25 526.5L477.78 521.15L472.58 520.7L476.32 514L476.61 505.22L489.88 496.16L487.13 493.27L492.8 487.51L502.07 484.32L497.83 480.1L498.59 473.05L490.48 465.81L480.54 467.02L480.89 462.01L473.54 452.41L476.53 452.86L478.19 447.7L480.97 449.66L486.96 445.01L487.83 438.18L490.46 438.03L488.94 434.67L491.61 424.06L493.61 433.07L517.87 432.01L531.23 426.93V425.72L526.02 420.79L534.19 416.31L533.53 413.01L526.41 404.5L527.71 402.77L524.33 401.95L526.74 399.1L519.21 395.83L528.94 392.56L527.69 389.19L533.22 386.43L536.16 388.52L539.68 386.73L555.55 373.99L554.48 365.57L549.85 365L546.68 368.73L545.53 365.97L555.59 359.5L553 354.85L556.85 349.95L555.49 346.36Z" fill="#CCCCCC" stroke="white" stroke-width="0.5"/>
<path d="M396.72 296.88L396.16 290.8L401.16 288.45L409.66 291.23L414.42 289.33L411.74 281.3L413.45 277.05L421.27 280.81L422.96 276.53L426.97 275.8L428.84 282.43L434.01 278.55L438.15 282L437.4 278.58L459.45 272.19L459.16 270.08L464.75 270.57L469.39 264.45L475.66 265.92L474.65 273.29L484.04 282.4L488.03 290.89L489.12 296.97L485.73 299.35L496.82 300.14L497.23 304.99L501.49 308.16L506.33 305.6L503.88 308.41L504.82 312.16L510.13 313.07L508.14 314.66L510.59 319.02L517.4 315.85L524.76 328.37L522.05 334.98L524.66 338.97L534.79 341.95L533.67 346.76L536.82 350.68L547.36 343.62L555.49 346.36L556.85 349.95L553 354.85L555.59 359.5L545.53 365.97L546.68 368.73L549.85 365L554.48 365.57L555.55 373.99L539.68 386.73L536.16 388.52L533.22 386.43L527.69 389.19L528.94 392.56L519.21 395.83L526.74 399.1L524.33 401.95L527.71 402.77L526.41 404.5L533.53 413.01L534.19 416.31L526.02 420.79L531.23 425.72V426.93L517.87 432.01L493.61 433.07L491.61 424.06L488.94 434.67L490.46 438.03L487.83 438.18L486.96 445.01L480.97 449.66L478.19 447.7L476.53 452.86L473.54 452.41L480.89 462.01L480.54 467.02L490.48 465.81L498.59 473.05L497.83 480.1L502.07 484.32L492.8 487.51L487.13 493.27L489.88 496.16L476.61 505.22L476.32 514L472.58 520.7L464.84 525.03L449.75 523.23L454.28 515.26L448.89 501.09L451.54 501L456.89 488.21L448.93 476.55L437.96 473.56L437.69 470.36L438.33 466.23L443.25 462.67L443.54 453.19L447.72 449.45L443.62 441.32L447.12 440.66L449.65 430.26L453.72 434.37L452.88 424.78L458.44 419.64L454.65 414.73L446.63 414.34L444.92 410.04L432.51 419.67L430.06 427.2L419.03 435.25L416.39 440.84L420.18 445.49L417.17 453.13L418.86 462.19L400.46 464.84L389.43 470.12L386.2 475.73L368.51 478.41L370.83 473.56L364.97 461.34L364.04 446.94L360.38 445.67L359.45 428.2L362.33 423.82L354.84 410.04L361.43 405.32L360.99 396.71H361.67L362.06 391.74L362.21 390.71L359.45 388.7H357.54L355.66 387.61L351.44 392.37L340.25 383.67L348.32 377.11L354.16 377.66L356.28 372.68L361.74 371.32L362.7 366.73L373.57 368.55L378.14 361.47L382.25 361.41L385.15 365.3L399.72 362.05L397.05 352.69L398.76 345.85L401.93 344.35L397.97 340.4L401.6 339.18L404.27 332.57L395.36 327.46L400.81 317.65L398.18 311.55L399.74 309.69L393.71 312.8L392.95 309.6V308.59L396.72 296.88Z" fill="#CCCCCC" stroke="white" stroke-width="0.5"/>
<path d="M330.29 46.74L336.57 50.34L338.58 62.57L346.69 68.16L340.44 77.43L343.23 92.18L347.47 93.48L346.05 98L348.5 99.21L348.63 107.96L345.29 117.02L332.49 120.55L325.39 118.32L318.25 124.72L320.53 137.04L322.8 138.06L321.3 143.49L325.58 145.77L329.47 142.57L330.93 144.51L330.21 150.25L327.39 151.45L329.51 155.49L322.78 161.1L320.68 161.16L315.45 159.25L312.39 165.75L314.98 174.56L315.97 176.84L311.34 181.24L302.77 176.71L303.72 183.95L299.09 186.81L301.81 190.01L300.7 194.06L292.34 205.68L297.73 206.85L296.42 220.7L287.36 226.83L284.05 224.32L281.62 228.12L274.44 224.96L271.1 230.3L274.99 238.42L269.35 239.37L267.63 239.28L264.09 238.42L260.94 232.69L252.99 235.63L247.5 233L240.54 233.7L236.37 226.49L237.33 223.43L228.67 227.6L227.87 223.15L221.47 226.13L212.25 241.89L211.18 241.55L208.32 238.51L195.02 238.05L194.38 228.58L185.72 230.64L179.07 227.54L191.13 215.78L186.85 210.1L189.28 206.66L177.73 196.71L182.78 187.51L179.11 184.38L173.85 187.45L170.64 185.3L174.09 181.21L172.59 177.48L177.61 177.45L175.16 174.13L179.32 173.45L170.26 169.17L176.11 166.4L172.73 161.71L177.71 154.04L172.63 143.86H173.8L176.56 141.3L174.46 139.26L154.21 125.37L162.55 119.81L169.63 106.35L164.73 98.37L159.77 96.67L164.46 93.23L161.04 85.61L167.06 82.67L163.91 71.04L173.06 80.31L192.26 79.94L190 67.17L194.32 68.13L199.12 64.78L202.97 67.23L204.73 61.3L225.03 70.64L241 74.55L244.52 76.97L243.65 89.58L256.72 90.6L262.36 86.91L262.27 93.94L270.2 87.84L271.72 90.26L276.13 88.99L287.15 80.03L296.13 80.41L316.87 64.84L330.29 46.74Z" fill="#CCCCCC" stroke="white" stroke-width="0.5"/>
<path d="M475.19 145.34L480.77 143.92L483.36 149.9L487.35 148.48L490.09 151.53L494.99 148.75L494.35 141.62L501.74 140.69L509.58 148.59L504.08 151.27L503.67 148.62L501.53 149.7L503.28 156.95L494.41 160.46L493.77 168.38L487.19 173.74L491.47 181.68L493.98 180.23L496.63 184.05L500.66 181.77L504.63 180.26L505.23 182.81L511.34 182.66L515.02 185.71L513.21 193.89L508.89 193.31L505.33 202.69L504.14 213.01L507.12 214.64L508.5 214.7L500.21 221.64L501.51 228.51L499.89 230.6L498.68 235.41L502.2 237.22L498.45 245.34L492.4 245.95L487.44 240.71L487.93 235.87L482.77 232.71L475.48 226.64L464.43 234.89L460.79 232.87L460.81 227.04H459.33L447.06 228.79L447.02 224.86L442.6 224.58L438.44 217.95L432.33 215.4L425.46 216.81L423.61 220.83L422.83 218.74L419.19 220.7L409.43 217.69L408.42 225.91L411.92 231.03L407.8 235.02L401.91 235.48L400.24 228.49L396.19 233.67L386.66 236.12L386.52 239.58L380.16 235.07L380.34 231.05L356.88 239.24V243.07L352.7 242.98L349.45 237.65L347.43 239.55L349.47 243.14L345.4 242.07L343.84 248.38H335.22L332.32 251.6L324.6 245.6L319.09 246.21L314.32 238.95L303.64 246.24L300.88 244.52V243.81L295.84 250.12L294.13 247.91L276.76 251.77H275.46L267.19 251.13L262.93 245.31L264.08 238.38L267.62 239.24L269.33 239.33L274.97 238.38L271.08 230.26L274.43 224.92L281.61 228.08L284.04 224.28L287.35 226.8L296.41 220.66L297.71 206.81L292.32 205.64L300.68 194.02L301.79 189.96L299.07 186.76L303.7 183.9L302.75 176.67L311.33 181.19L315.96 176.79L314.97 174.51L312.38 165.7L315.43 159.2L320.66 161.11L322.76 161.05L329.49 155.44L327.37 151.4L330.19 150.2L330.91 144.46L338.87 142.7L351.75 147.7L351.11 150.94L358.23 146.59L356.81 151.65L360 152.7L361.11 157.36L372.33 154.25L377.54 158.6L379.58 153.33L387.34 158.2L391.27 154.56L397.63 158.72L400.78 158.07L401.95 152.67L417.24 148.26L421.73 151.44L419.8 156.31L426.8 147.89L432.19 148.38L438.18 143.97L443.24 152.54L458.86 149.27L465.18 144.61H466.09L472.14 141.93L475.19 145.34ZM350.7 186.01L349.45 186.29L346.67 188.26L345.6 188.88L342.25 191.99L338.98 196.82L339.49 206.25L334.49 206.5L333.93 209.26L331.97 211.81L332.09 212.18L332.58 211.69L339.17 215.01L343.7 213.66L349.13 225.02L359.01 228.33L374.22 221.24L376.75 220.17L379.51 219.92L375.81 215.93L372.72 215.59L371.96 213.41L376.71 210.37L373.77 201.37L366.51 196.54L369.37 193.1L367.99 187.9L366.59 185.93L364.61 184.58L362.08 182.73L357.94 187.34L350.7 186.01Z" fill="#CCCCCC" stroke="white" stroke-width="0.5"/>
<path d="M161.4 42.08L164.5 52.67L159.6 58.6L162.92 62.64L161.19 63.85L163.91 71.04L167.06 82.67L161.04 85.61L164.46 93.23L159.77 96.67L164.73 98.37L169.63 106.35L162.55 119.81L154.21 125.37L174.46 139.26L176.56 141.3L173.8 143.86H172.63L177.71 154.04L172.73 161.71L176.11 166.4L170.26 169.17L179.32 173.45L175.16 174.13L177.61 177.45L172.59 177.48L174.09 181.21L170.64 185.3L173.85 187.45L179.11 184.38L182.78 187.51L177.73 196.71L189.28 206.66L186.85 210.1L191.13 215.78L179.07 227.54L174.07 232.02V233.21L168.66 234.01L159.63 245.29L152.77 241.61L149.13 231.25L140.63 232.32L132.38 227.94L124.13 231.06L118.84 220.67L114.06 221.77L111.35 219.47L105.83 226.13L101.28 223.7L96.2 227.08L93.42 225.76L95.46 223.61L91.4 222.75L92.6 216.58L89.8 214.25L77.41 219.44L82.02 225.51L74.22 228.3L74.34 230.64L69.18 231.89L65.82 229.22L65.76 231.43L64.05 229.75L58.85 232.75L60.7 235.73L58.66 237.41L64.28 244.31L62.92 246.08L59.86 241.33L54.22 243.48L48.74 240.14L46.95 232.63L36.07 219.84L35.84 214.43L27.07 213.42L25.28 210.84L18.8 213.79L15.03 202.82L11.85 202.36L14.31 197.6L13.66 187.45L13.22 182.75L10.05 180.81L18.14 172.28L13.33 159.06L6.84 155.27L1 128.55L43.87 104.56L104.33 62.54L125.26 53.51L122.52 46.96L125.77 43.35L123.45 45.9L126.49 49.69L129.25 47.92L125.85 52.21L127.81 50.59L128.12 53.98L129.46 50.16L131.37 51.43L130.07 49.32L133.33 50.16L131.93 45.44L130.44 46.4L132.77 44.22L128.18 43.1L133 44.29L133.98 50.31L161.4 42.08Z" fill="#CCCCCC" stroke="white" stroke-width="0.5"/>
</svg>
