<svg width="614" height="398" viewBox="0 0 614 398" fill="none" xmlns="http://www.w3.org/2000/svg">
<path d="M111.46 285.93L114.11 284.95L117.27 285.7L119.87 283.67L121.16 281.45L122.59 273.58L123.77 272.07L126.16 271.98L127.48 272.88L130.34 272.07L132.26 275.9L135.64 277.43L137.17 277.51L138.17 276.7L136.84 274.3L137.37 272.97H140.09L139.09 275.38L139.36 277.95L141.57 279.28L141.28 282.9L142.97 287.96L142.62 290.66L144.98 292.5L144.92 293.12L141.04 294.83L137.83 298.13L137.48 299.42L139.95 316.62L142.3 319.26L148.32 321.38L158.65 328.04L166.16 335.65L171.98 340.22L173.04 342.49L169.87 346.94L170.22 350.22L167.76 356.28L167.89 359.15L167.72 364.17L168.93 366.71L166.61 368.55L164.28 368.38L163.46 366.65L159.1 370.47L156.24 368.91L155.01 366L153.28 364.95L152.63 367.86L151.15 368.88L149.93 368.44L147.75 368.99L147.14 370.21L142.19 370.65L141.09 373.44L138.83 375.94L138.19 375.15L135.29 374.45L131.82 374.9L129.85 374.14L127.39 376.11L126.97 378.19L124.16 378.62L122.34 378.38L120.55 376.72L117.63 377.13L115.43 374.87L111.41 375.63L106.72 374.67L105.09 375.57L103.42 375.26L97.3899 380.04L95.3999 375.49L91.5999 375.42L89.1099 377.76L86.6399 378.7L86.0699 379.75L86.4999 382.18L84.1299 385.34L77.4999 386.82L72.2099 386.69L66.6699 384.05L64.6099 384.73L58.0499 383.48L57.6699 383.16L58.8599 381.8L60.5399 381.39L60.1999 377.96L60.7199 376.24L59.2999 373.16L61.9099 369.44L60.5299 367.17L60.7999 365.75L60.1799 365.46L59.9299 363.15L60.9499 361.93L61.0499 360.35L59.9199 357.81L61.0499 356.75L61.3199 354.42L60.5899 352.14L59.3099 351.06L59.5199 347.03L58.8899 345.12L59.9299 343.35L62.4399 343.17L62.1599 342.1L63.2799 339.92L67.2399 334.91L67.0499 332.47L64.9199 327.6L60.4799 326.67L60.5699 324.86L58.1899 321.03L57.7699 317.1L55.7499 313.31L54.4199 313.2L53.6799 308.11L51.7199 305.47L52.0299 300.23L51.8599 297.57L50.9199 296.63L51.1699 295.19L55.0899 293.3L57.1799 283.69L59.0599 282.32L60.0299 283.41L61.5399 288.31L65.2899 288.14L67.5399 291.08L77.0099 288.7L81.8399 284.28L83.0599 284L95.3499 288.11L98.7099 288.38L101.75 290.57L108.43 288.76L111.46 285.93Z" fill="#CCCCCC" stroke="white" stroke-width="0.5"/>
<path d="M465.56 173.77L471.54 170.44L481.44 171.4L484.49 172.59L490.78 178.02L495.85 181.33L501.42 180.64L503.77 182.24L508.18 179.25L518.15 180.82L522.83 180.55L525.1 181.34L524.45 183.1L524.82 183.97L529.76 186.87L533.86 187.89L538.21 186.35L541.77 186.56L543.53 195.21L542.4 198.07L543.61 202.76L543.28 204.75L526.61 203.74L525.41 205.48L525.01 208.15L526.32 209.87L527.99 210.25L525.89 210.41L525.04 212.08L523.21 211.31L521.72 213.23L518.87 212.93L517.5 215L517.44 220.94L519.08 224.05L518.39 224.25L515.78 222.68L514.15 223.57L512.52 222.82L510.14 224.58L508.06 223.48L506.15 223.96L503.43 227.64L502.72 233.37L501.83 232.63L501.5 233L500.9 232.72L500.29 233.45L500.12 232.88L499.33 233.86L499.25 236.21L500.92 237.89L500.95 238.88L500.26 239.47L501.22 241.07L502.15 240.08L501.3 238.93L502.29 236.3L505.86 240.61L507.34 239.43L508.21 236.92L510.38 238.26L512.12 238.39L511.88 237.39L512.73 236.11L515.08 238.55L516.68 238.19L516.85 236.64L517.8 238.11L519.19 237.79L518.84 239.3L519.43 239.74L518.61 241.42L520.06 242.98L521.56 243.28L523.07 242.04L523.39 241.16L523.84 240.95L523.6 241.81L524.31 241.89L524.46 243.2L526.85 243.1L526.4 244.51L524.8 244.83L524.9 246.55L526.31 247.37L525.02 248.24L525.17 249.39L527.68 253.85L529.37 254.09L529.69 253.18L532.36 252.93L531.98 254.55L531.09 254.95L533.19 256.74L530.82 257.65L531.11 258.35L529.41 259.39L529.39 260.73L530.43 262.27L529.19 262.63L529.2 264.53L531.41 265.31L532.28 266.26L531.68 266.34L531.66 267.51L535.5 269.96L536.65 271.76L537.63 271.84L538.02 273.51L539.55 274.45L538.98 275.45L539.87 275.56L540.37 276.51L541.04 276.17L541.3 277.7L543.16 278.56L544.69 280.65L545 282.71L546.28 283.81L548.16 283.63L549.84 286.39L550.33 289.1L550.37 288.23L552.55 289.19L552.06 290.19L554.64 293.51L554.29 294.19L556.47 297.41L556.79 299.3L554.25 300.03L551.21 298.56L549.54 300.25L549.15 299.57L547.73 300.17L547.02 299.21L546.62 300.22L545.92 299.53L544.86 300.84L543.76 299.66L543.67 298.24L541.57 297.9L539.79 296.47L540 297.8L539.4 298.36L538.95 296.89L538.32 298.5L536.97 297.5L535.8 299.04L535.79 300.31L536.48 300.66L535.95 302.01L537.17 302.19L537.41 304.08L535.39 303.28L535.38 304.83L534.23 303.43L533.31 304.1L533.02 303.26L531.83 303.43L532.52 301.96L531.66 301.75L531.21 302.6L530.67 301.5L528.39 301.45L528.94 300.91L527.86 299.93L527.41 300.73L524.05 300.15L524.52 301.06L522.77 301L521.47 303.07L521.21 302.27L520.21 303L519.87 302.23L518.56 303.08L518.18 302.5L517.78 303.04L516.63 302.57L517.36 303.67L515.93 304.98L515.26 305.16L515.01 304.06L513.43 306.18L513.32 305.47L512 305.4L511.27 307.17L512.18 307.68L510.86 308.27L511.81 309.46L510.68 309.7L508.65 308.12L505.62 302.52L504.85 303.37L501.66 302.56L501.31 301.34L499.53 301.37L497.91 298.33L496.42 298.38L495.77 297.02L494.07 296.51L491.5 289.84L488.39 289.43L487.41 286.67L486.56 286.88L485.98 285.86L484.83 285.77L484.17 284.44L482.51 284.49L481.97 283.62L479.96 284.15L479.03 283.41L477.26 284.28L476.66 286.08L474.98 286.79L475.28 289.35L473.79 288.93L473.32 287.98L472.08 288.64L470.6 287.73L468.48 288.37L466.23 285.86L462.22 284.95L459.24 286.29L457.02 283.31L451.9 280.31L449.2 276.68L448.86 274.56L451.65 271.27L451.49 269.66L449.17 265.06L449.2 263.41L450.76 260.01L448.26 258.14L446.45 254.21L442.91 251.18L441.94 246.94L443.22 245.42L450.42 244.19L452.26 241.91L452.33 239.43L451.49 238.58L447.26 239.76L445.28 238.88L443.94 234.99L441.4 231.94L439.8 227.54L436.46 223.33L432.6 214.39L428.91 211L424.38 205.04L424.75 201.42L421.84 195.9L420.47 194.61L416.49 194.16L413.76 190.81L413.73 187.85L414.86 184.88L412.88 177.83L413.32 175.25L410.21 175.2L411.89 174.37L416.46 174.96L417.1 175.68L416.05 177.54L416.97 178.9L424.57 178.83L430.89 174.36L435.84 174.61L438.92 174L442.83 175.64L448.38 174.55L449.61 174.87L451.41 177.76L453.42 178.33L460.66 174.44L465.56 173.77Z" fill="#CCCCCC" stroke="white" stroke-width="0.5"/>
<path d="M497.07 85.9399L499.9 87.7599L502.75 91.4899L503.58 97.1799L504.4 98.0599L506.8 97.9999L512.6 93.2799L514.68 93.0099L516.52 94.6599L516.55 99.7899L521.72 102.39L527.02 102.14L529.06 106.19L531.27 107.97L539.27 117.97L540.54 117.5L545.01 112.29L549.13 112.5L550.61 113.1L553.77 116.53L556.45 121.6L558.7 123.48L556.9 129.64L553.81 135.38L547.7 136.6L545.92 137.76L545.67 139.76L545.45 138.71L544.03 138.83L545.17 139.25L544.35 140.09L544.99 141.67L547.89 141.87L548.08 142.43L544.77 156.58L542.44 159.72L542.45 164.74L544.04 174.23L543.1 176.03L543.7 184.12L542.42 184.52L541.79 186.54L538.23 186.33L533.88 187.87L529.78 186.85L524.84 183.95L524.46 183.08L525.11 181.33L522.84 180.54L518.16 180.81L508.19 179.24L503.77 182.23L501.43 180.64L495.86 181.33L490.79 178.01L484.49 172.58L481.44 171.4L471.54 170.44L465.56 173.77L465.84 169.86L464.15 168.92L463.55 166.24L460.63 165.13L460.81 164.28L462.03 163.73L463.49 161.74H466.96L469.57 160.34L477.03 158.85L475.47 153.68V150.1L473 147.4L474 143.59L482.98 138.29L481.13 134.22L480.93 130.32L479.83 127.88L479.44 124.29L479.89 123.1L482.64 123.98L484.56 122.26L484.2 117.47L483.29 114.76L483.55 111.43L488.64 103.71L488.18 101.94L486.3 101.53L488.22 97.9699V96.4999L485.57 95.3199L485.58 91.7799L486.29 90.9899L489.03 90.7599L495.11 88.7399L496.35 87.8799L497.07 85.9399Z" fill="#CCCCCC" stroke="white" stroke-width="0.5"/>
<path d="M297.17 82.02L303.22 80.69L305.55 82.61L307 82.56L308.08 81.42L308.43 83.81L306.71 86.1L306.51 87.64L310.15 96.84L312.05 98.08L312.68 100.04L314.41 100.59L315.31 101.73L315.4 104.11L313.85 107.98L323.69 113.36L326.69 110.95L328.17 110.8L332.15 114.45L335.51 116.03L340.06 115.79L345.8 118.05L350.39 116.19L352.27 120.65L357.25 121.77L363.89 128.13L362.94 131.03L365.26 132.93L365.51 134.31L367.83 136.68L368.25 138.02L368.2 139.74L365.09 141.91L364.45 145.45L363.17 148.06L362.8 154.76L363.61 158.19L364.26 159.64L367.89 162.72L367.44 164.18L364.7 165.61L364.17 167.54L375.32 171.45L372.68 175.47L361.23 181.55L360.73 182.58L361.86 184.64L361.54 187.15L354.72 192.57L353.25 192.65L349.11 191.1L343.28 192.54L338.03 191.57L335.31 191.85L331.4 191.14L325.1 193.47L322.01 195.5L319.08 193.18L318.5 189.8L316.86 186.98L318.11 185.21L320.74 183.42L321.08 181.37L319.05 180.37L318.98 176.74L314.75 176.2L312.75 174.06L312.84 169.33L316.86 165.48L317.02 164.08L316.22 162.65L312.25 161.6L309.62 159.38L307.47 159.81L303.36 158.03L300.07 158.74L297.62 156.63L290.6 156.98L289.84 154.95L291.19 150.72L290.16 149.45L287.45 149.48L282.44 151.77L276.21 150.16L273.2 146.23L270.09 144.12L269.57 140.22L271.71 140.52L272.99 139.62L273.1 135.78L275.92 131.59L276.16 128.13L283.35 120.81L284.4 117.29L283.61 115.18L279.72 114.42L279.95 112.2L281.31 109.31L280.79 107.79L273.87 108.54L272.92 108.07L272.58 106.46L273.68 104.64L279.15 102.81L280.24 101.63L281.57 93.28L279.14 89.25L280.52 86.55L280.83 82.87L279.65 78.84L280.8 76.9L285.39 74.04L293.46 80.92L297.17 82.02Z" fill="#CCCCCC" stroke="white" stroke-width="0.5"/>
<path d="M32.51 1.53L34.05 2.7L39.02 3.46L45.08 9.2L50.94 12.19L56.14 16.21L66.43 18.05L67.9 19.35L68.32 23.19L64.94 28.89L57.18 30.19L54.68 31.21L52.33 33.4L48.37 46.46L49.88 51.13L51.95 53.05L58.64 54.83L60.9 56.21L69.24 58.25L68.42 59.98L67.43 60.45L59.41 61.49L59.21 63.57L59.78 64.33L68.25 67.58L69.06 68.65L69.37 71.04L68.42 72.21L63.88 73.03L56.59 76.78L54.76 79.31L52.51 87.44L48.97 90.99L45.95 98.08L42.44 99.79L41.62 100.91L41.16 107.09L39.09 111.15L37.53 112.36L32.57 112.08L31.66 111.15L30.66 107.7L24.73 106.5L22.53 102.92L20.11 102.88L18.46 101.85L13.88 89.36L14.35 84.31L12.97 81.47L14.11 79.13L12.86 76.83L10.18 75.93L7.57 73.81L5.94 71.35L5.46 68.18L4.64 66.96L5.27 63.03L3.11 60.9L1 55.91L3.8 48.04L4.58 42.75L4.02 40.37L5.92 38.59L5.95 32.74L6.66 31.43L6.13 29.83L9.08 28.99L9.52 28.08L17.83 27.62L19.26 25.76L18.27 23.4L21.04 22.58L22.74 23.03L23.25 21.86L26.84 21.74L27.12 20.46L26.3 19.73L26.77 17.18L25.82 15.79L26.73 10.18L27.56 10.47L27.57 8.9L26.12 7.86L26.77 6.66L27.36 7.05L28.25 6.51L27.48 5.34L28.7 5.11L28.33 4.51L29.29 3.3L29.15 1.99L30.05 2.52L31.14 1.2L31.63 2.28L32.01 1L32.51 1.53Z" fill="#CCCCCC" stroke="white" stroke-width="0.5"/>
<path d="M154.45 64.94L159.17 65.22L167.49 68.53L170.54 70.94L178.83 73.49L191.6 71.37L195.55 71.41L193.44 80.94L191.78 79.88L191.41 81.9L189.6 79.34L187.86 79.45L182.16 86.7L178.93 85.4L177.56 86.2L179.18 91.65L179.33 99.13L186.28 102.07L185.05 104.27L184.66 108.91L183.23 109.22L181.56 108.6L174.32 110.21L173.45 110.96L173.68 112.24L172.51 115.44L161.55 116.41L159.19 118.15L157.37 133.4L158.68 135.3L159.44 135.41L163.48 134.15L165.48 136.54L166.44 149.15L161.01 149.14L161.11 155.8L161.21 158.73L160.13 159.81L155.33 157.37L145.75 157.11L143.2 155.22L139.38 156.03L133.85 159.51H132.53L128.81 157.11L119.03 165.73L116.38 164L110.48 155L109.63 149.88L113.4 144.58L113.22 143.27L110.82 142.39L104.59 141.83L103.53 139.53L103.5 136.57L104.9 134.85L108.6 134.9L109.2 133.56L108.84 131.43L105.52 129.2L98.6998 127.78L96.3398 125.99L96.2598 124.56L101.57 119.19L105.39 111.79L104.8 104.97L108.67 98.7L110.52 97.81L113.36 98.94L118.84 99.54L121.53 95.36H126.15L125.49 92.05L121.42 88.67L120.7 87.25L121.35 85.2L124.46 81.96L127.06 75.77L127.38 67.84L125.88 63.05L126.37 58.59L131.46 57.22L135.43 57.1L137.63 57.85L138.91 59.75L143.47 61.17L147.09 63.22L154.45 64.94Z" fill="#CCCCCC" stroke="white" stroke-width="0.5"/>
<path d="M269.57 140.22L270.09 144.12L273.2 146.23L276.21 150.16L282.44 151.77L287.45 149.48L290.16 149.45L291.19 150.72L289.84 154.95L290.6 156.98L297.62 156.63L300.07 158.74L303.36 158.03L307.47 159.81L309.62 159.38L312.25 161.6L316.22 162.65L317.02 164.08L316.86 165.48L312.84 169.33L312.75 174.06L314.75 176.2L318.98 176.74L319.05 180.37L321.08 181.37L320.74 183.42L318.11 185.21L316.86 186.98L318.5 189.8L319.08 193.18L322.01 195.5L321.82 197.16L319.49 198.12L316.26 195.32L313.35 197.53L311.52 197.71L307.97 196.91L305.09 193.99L301.95 193.75L302.38 197.37L301.22 198.4L289.3 195.1L285.6 195.66L279.36 191.89L276.52 194.08L273 194.35L268.78 196.86L261.59 195.95L262.11 191.86L259.28 186.28L254.76 180.22L250.99 179.2L249.82 177.83L248.11 172.01V168.1L249.28 164.3L251.04 161.78L255.51 160.2L255.46 156.83L254.46 154.4L254.53 150.48L255.56 148.18L258.34 146.27L258.06 137.32L263.75 139.38L269.57 140.22Z" fill="#CCCCCC" stroke="white" stroke-width="0.5"/>
<path d="M548.41 35.92L552.69 51.6L564.23 57.6L576.43 63.06L587.26 63.88L596.98 66.41L609.99 65.71L609.45 67.73L609.93 70.27L608.52 72.52L609.02 77.04L610.02 79.17L609.01 84.27L613 92.29L611.85 96.14L607.7 104.68L603.59 109.36L602.01 109.86L599.39 113.54L598.98 116.48L597.15 113.63L593.83 112.73L591.14 110.55L586.1 108.97L580.28 109.36L577.63 110.76L572.74 111.48L568.54 110.4L562.15 114.68L558.7 123.48L556.45 121.6L553.77 116.53L550.61 113.1L549.13 112.5L545.01 112.29L540.54 117.5L539.27 117.97L531.27 107.97L529.06 106.19L527.02 102.14L521.72 102.39L516.55 99.79L516.52 94.66L514.68 93.01L512.6 93.28L506.8 98L504.4 98.06L503.58 97.18L502.75 91.49L499.9 87.76L497.07 85.94L494.48 81.19L493.37 81.25L487.53 85.24L486.03 84.66L481.77 78.73L477.25 78.1L474.76 75.14L476.3 74.91L476.67 74.06L476.71 72.68L475.39 70.01L475.6 67.94L482.56 59.99L488.26 58.79L497.97 49.64L499.16 49.4L501.19 51.71L503.18 51.34L506.22 47.69L508.16 42.78L510.62 45.42L513.67 45.8L513.68 43.02L517.41 37.67L519.56 35.97L524.37 34.31L525.01 35.9L527.43 36.63L538.08 34.9L545.19 29.26L547.84 32.54L548.41 35.92Z" fill="#CCCCCC" stroke="white" stroke-width="0.5"/>
<path d="M287.57 305.32L286.25 309.75L289.36 322.05L291.27 319.88L292.69 319.34L293.62 317.22L294.88 316.9L297.23 322.54L301.17 324.05L304.61 326.71L313.09 329.32L317.8 327.3L319.01 327.57L321.22 330.35L322.12 336.27L324.19 340.41L323.8 343.2L322.81 344.93L323.83 347.51L326.22 345.98L329.96 347.64L332.7 345.81L333.5 343.53L335.46 342.67L341.3 343.45L342.95 348.79L340.53 350.04L338.76 352.06L336.83 358.5L336.95 360.79L339.08 361.73L340.76 364.32L342.14 364.98L341.31 368.29L341.49 371.71L349.95 379.77L350.97 381.54L351.44 385.75L348.62 387.34L346.26 387.74L344.88 386.65L345.07 384.71L343.32 384.79L340.39 382.3L339.7 383.58L337.05 384.12L335.95 385.61L334.28 385.19L332.75 386.36L330.24 386.08L328.96 389.48L326.68 387.52L324.13 386.56L319.74 387.84L314.63 386.13L312.97 387.32L311.65 391.31L308.89 390.13L306.23 389.94L301.92 391.63L301.53 392.88L300.31 392.71L297.23 393.93L295.62 393.52L292.51 395.91L288.9 395.37L287.64 396.74L285.61 395.51L282.47 395.16L281.39 390.9L279.83 389.39L277.66 388.57L277.33 387.18L276.29 386.67L276.61 384.38L274.58 383.32L274.35 379.61L273.4 377.57L277.15 372.75L276.72 371.76L274.8 372.03L274.13 371.45L275.44 366.84L274.74 364.38L273.8 363.04L271.01 361.79L265.47 364.45L260.42 362.57L260.16 359.12L258.57 354.43L258.4 352.5L259.4 351.21L266.56 348.59L268.66 346.14L268.39 340.02L269.68 335.25L267.53 329.37L266.79 326.25L267.19 325.06L269.39 323.99L271.19 321.36L272.97 320.4L274.67 315.91L278.29 310.82L287.57 305.32Z" fill="#CCCCCC" stroke="white" stroke-width="0.5"/>
<path d="M12.5 207.57L14.27 208.39L16.51 210.92L20.2 211.68L22.45 212.89L23.8 218.2L26.06 222.38L31.66 225.35L32.08 231.67L36.29 238.31L37.53 242.88L38.55 243.52L43.23 243.9L45.34 247.06H48.19L48.62 249.76L49.56 250.14L51.61 248.06L52.92 248.38L54.56 250.53H55.77L57.03 246.87L60.36 245.73L61.39 243.65L62.55 242.95L64.52 243.4L65.55 245.29L69.33 247.24L72.45 246.71L74.73 242.96L75.53 242.8L76.59 247.17L80.01 248.6L82.29 250.43L85.4 250.87L88.38 248.61L91.03 249.75L94.49 249.55L96.8 250.24L99.1 257.32L105.65 262.63V263.99L100.75 265.81L98.27 271.74L98.53 272.56L100.15 273.32L106.73 271.15L108.44 276.78L115.55 279.83L115.34 282.23L113.43 282.92L111.46 285.93L108.43 288.76L101.75 290.57L98.71 288.38L95.35 288.11L83.06 284L81.84 284.28L77.01 288.7L67.54 291.08L65.29 288.14L61.54 288.31L60.03 283.41L59.06 282.32L57.18 283.69L55.09 293.3L51.17 295.19L50.81 294.27L49.54 293.79L46.87 294.23L44.42 291.16L42.16 292.15L38.03 291.07L36.07 288.32L32.2 288.63L27.49 284.68L24.83 284.2L23.76 282.7L21.62 281.78L19.7 279.51L18.07 278.91L16.3 277.15L15.27 271.7L12.15 270.62L10.07 265.19L8.53996 263.28H7.62996L5.44996 260.22L5.26996 258.87L3.14996 256.5L1.45996 255.88L1.87996 254.76L5.13996 254.25L5.75996 253.49L7.67996 253.51L8.47996 254.54L10.38 253.22L11.3 251.69L11.01 249.59L13.05 247.11L12.87 245.29L16.9 244.61L17.16 242.6L18.34 241.4L19.21 236.13L20.66 233.88L19.46 230.15L17.05 227.69L14.72 226.48L12.02 223.14L8.93996 222.41L9.08996 219.6L11.66 212.83L10.6 211.8L12.58 208.93L12.5 207.57Z" fill="#CCCCCC" stroke="white" stroke-width="0.5"/>
<path d="M165.48 136.54L166.98 135.8L172.48 135.22L175.67 132.73L178.98 131.81L185.34 133.47L191.44 132.85L195.52 130.91L197.32 131.03L200.69 127.43L201.83 129.58L204.65 130.2L208.05 133.49L225.53 135.73L226.27 134.2L226.09 129.72L226.64 128.62L229.8 132.09L232.22 127.68L236.74 124.04L240.7 122.35L245.28 122.59L247.9 124.43L252.56 126.09L255.4 124.41H257.61L261.29 120.82L263.78 115.31L265.29 115.82L267.26 122.08L268.38 123.54L273.74 125.99L276.16 128.13L275.92 131.59L273.1 135.78L272.99 139.62L271.71 140.52L269.57 140.22L263.75 139.38L258.06 137.32L258.34 146.27L255.56 148.18L254.53 150.48L254.46 154.4L255.46 156.83L255.51 160.2L251.04 161.78L249.28 164.3L248.11 168.1V172.01L249.82 177.83L250.99 179.2L254.76 180.22L259.28 186.28L262.11 191.86L261.59 195.95L251.89 200.22L249.7 200.16L245.69 198.36L236.51 199.88L233.86 199.11L231.55 194.74L227.33 191.42L214.56 189.91L210.86 194.47L201.58 194.64L191.69 191.79L186.29 192.22L179.32 190.94L179.11 189.59L182.37 187.42L182.42 185.64L183.36 184.1L180.75 182.14L180.37 177.4L177.24 175.19L177.92 173.83L180.37 172.03L173.53 168.37L172.67 162.09L167.78 159.65L167.2 156.11L161.11 155.8L161.01 149.14L166.44 149.15L165.48 136.54Z" fill="#CCCCCC" stroke="white" stroke-width="0.5"/>
<path d="M105.79 50.8L110.18 52.4901L114.34 53.03L117.36 56.2001L121.04 58.1L124.98 58.9901L126.37 58.59L125.88 63.05L127.38 67.84L127.06 75.77L124.46 81.96L121.35 85.2L120.7 87.25L121.42 88.67L125.49 92.0501L126.15 95.3601H121.53L118.84 99.5401L113.36 98.9401L110.52 97.81L108.67 98.7L104.8 104.97L105.39 111.79L101.57 119.19L96.2603 124.56L96.3403 125.99L98.7003 127.78L105.52 129.2L108.84 131.43L109.2 133.56L108.6 134.9L104.9 134.85L103.5 136.57L103.53 139.53L104.59 141.83L98.1903 141.46L95.9603 143.18L93.8003 146.21L89.6603 146.31L85.4603 147.62L74.3203 147.55L72.0203 146.17L68.9703 141.72L65.0303 139.53L62.5303 136.25L60.6603 136.13L57.9803 137.58L53.8803 134.65L51.2103 130.48L51.0803 129.2L49.1503 128.04L48.8003 125.14L46.9903 120.67L43.9903 118.97L41.5403 116.21L41.1803 114.41L37.5303 112.36L39.0903 111.15L41.1603 107.09L41.6203 100.91L42.4403 99.7901L45.9503 98.0801L48.9703 90.99L52.5103 87.4401L54.7603 79.31L56.5903 76.78L63.8803 73.03L68.4203 72.21L69.3703 71.0401L69.0603 68.6501L68.2503 67.5801L59.7803 64.3301L59.2103 63.57L59.4103 61.4901L67.4303 60.4501L68.4203 59.98L69.2403 58.25L78.0303 56.67L85.4603 52.9501L90.6103 51.41L105.79 50.8Z" fill="#CCCCCC" stroke="white" stroke-width="0.5"/>
<path d="M140.09 272.97L143.46 269.57L147.85 266.99L152.99 260.18L155.17 262.92L158.36 261.21L158.64 260L156.89 256.54L158.89 250.35L160.16 249.46L164.15 249.01L166.04 247.35L169.73 239.61L169.55 237.29L168.27 236.4L163.23 238.58L161.15 238.64L159.68 237.54L155.93 231.6L154.56 224.09L155.13 222.49L160.92 221.21L165.13 223.97L167.31 224.16L173.35 217.62L176.15 218.17L178.1 217.71L179.2 212.79L183.47 212.41L188.04 210.43L190.91 212.05L194.17 212.85L196.1 220.29L197.33 222.54L200.21 220.84L202.76 223.22L202.92 225.88L202.16 227.88L198.93 231.28L198.38 233.94L202.17 243.27L202.57 247.07L207.11 252L207.3 256.01L205.43 257.54L207 262.22L207.15 268.41L207.52 270.14L211.92 275.85L212.4 277.62L211.66 278.86L209.02 278.66L206.59 279.89L206.38 284.97L205.06 288.59L206.02 293.75L205.69 298.46L203.15 306.38L202.86 310.68L201.83 313.3L200.66 314.85L195.94 316.88L193.55 320.09L192.86 324.29L193.77 328.6L192.18 328.98L190.83 330.88L187.92 332.48L182.05 331.01L173.19 332.22L171.98 340.22L166.16 335.65L158.65 328.04L148.32 321.38L142.3 319.26L139.95 316.62L137.48 299.42L137.83 298.13L141.04 294.83L144.92 293.12L144.98 292.5L142.62 290.66L142.97 287.96L141.28 282.9L141.57 279.28L139.36 277.95L139.09 275.38L140.09 272.97Z" fill="#CCCCCC" stroke="white" stroke-width="0.5"/>
<path d="M27.0203 179.08L28.7303 181.12L30.4103 180.5L32.0803 181.35L32.6803 182.57L34.2903 180.33L35.1403 180.93L35.9303 179.96L38.5703 180.17L39.8503 178.91L40.9803 180.02L41.6303 183.38L45.6403 183.1L47.0803 184.5L48.8203 188.31L53.5903 189.06L56.4803 191.7L60.7403 192.47L62.7203 195.61L68.0603 197.91L69.4103 200.04L70.5303 202.29L73.7503 204.05L75.7303 207.45L78.0403 208.27L79.7203 209.89L80.8903 216.33L79.9403 218.53L84.4603 219.31L88.2503 224.99L90.8403 224.45L91.0903 226.09L89.1603 228.69L87.2403 235.27L87.4803 243.44L88.3803 248.61L85.4003 250.87L82.2903 250.43L80.0103 248.6L76.5903 247.17L75.5303 242.8L74.7303 242.96L72.4503 246.71L69.3303 247.24L65.5503 245.29L64.5203 243.4L62.5503 242.95L61.3903 243.65L60.3603 245.73L57.0303 246.87L55.7703 250.53H54.5603L52.9203 248.38L51.6103 248.06L49.5603 250.14L48.6203 249.76L48.1903 247.06H45.3403L43.2303 243.9L38.5503 243.52L37.5303 242.88L36.2903 238.31L32.0803 231.67L31.6603 225.35L26.0603 222.38L23.8003 218.2L22.4503 212.89L20.2003 211.68L16.5103 210.92L14.2703 208.39L12.5003 207.57L11.1003 206.24L12.1803 205.68L13.9303 201.92L14.8103 201.77L15.1003 199.38L11.2503 194.48L10.8503 192.58L9.42027 190.7L9.28027 188.34L12.6203 187.26L15.6803 184.8L16.6003 183.75L16.9603 181.62L18.3303 180.77L22.2503 182.94L22.2203 181.21L23.2203 179.27L27.0203 179.08Z" fill="#CCCCCC" stroke="white" stroke-width="0.5"/>
<path d="M233.65 73.26L235.88 72.84L240.76 69.77L248.56 70.31L252.4 68.69L253.42 67.6L255.89 67.18L259.67 67.51L265.29 72.19L269.58 73.23L271.47 73.05L273.6 71.78L277.7 71.31L285.39 74.04L280.8 76.9L279.65 78.84L280.83 82.87L280.52 86.55L279.14 89.25L281.57 93.28L280.24 101.63L279.15 102.81L273.68 104.64L272.58 106.46L272.92 108.07L273.87 108.54L280.79 107.79L281.31 109.31L279.95 112.2L279.72 114.42L283.61 115.18L284.4 117.29L283.35 120.81L276.16 128.13L273.74 125.99L268.38 123.54L267.26 122.08L265.29 115.82L263.78 115.31L261.29 120.82L257.61 124.41H255.4L252.56 126.09L247.9 124.43L245.28 122.59L240.7 122.35L236.74 124.04L232.22 127.68L229.8 132.09L226.64 128.62L226.09 129.72L226.27 134.2L225.53 135.73L208.05 133.49L204.65 130.2L201.83 129.58L200.69 127.43L197.32 131.03L195.52 130.91L191.44 132.85L185.34 133.47L178.98 131.81L175.67 132.73L172.48 135.22L166.98 135.8L165.48 136.54L163.48 134.15L159.44 135.41L158.68 135.3L157.37 133.4L159.19 118.15L161.55 116.41L172.51 115.44L173.68 112.24L173.45 110.96L174.32 110.21L181.56 108.6L183.23 109.22L184.66 108.91L185.05 104.27L186.28 102.07L179.33 99.13L179.18 91.65L177.56 86.2L178.93 85.4L182.16 86.7L187.86 79.45L189.6 79.34L191.41 81.9L191.78 79.88L193.44 80.94L195.55 71.41L198.79 69.48L201.5 66.3L211.8 62.67L223.37 65.45L229.35 71.24L233.65 73.26Z" fill="#CCCCCC" stroke="white" stroke-width="0.5"/>
<path d="M201.58 194.64L210.86 194.47L214.56 189.91L227.33 191.42L231.55 194.74L233.86 199.11L236.51 199.88L245.69 198.36L249.7 200.16L251.89 200.22L261.59 195.95L260.57 198.3L261.02 210.06L257.84 217.14L259.61 224.64L262.6 229.9L266.04 231.28H268.13L276.48 227.71L277.9 228.38L278.8 231.24L278.4 233.79L274.25 237.98L274.41 239.3L277.17 242.42L277.12 244.31L276.3 244.67L273.01 243.32L272.3 244.92L272.29 257.12L273.37 257.09L276.24 259.03L276.89 260.56L269.29 263.29L266.98 264.84L265.92 269.82L266.36 273.4L268.63 275.56L273.44 277.35L278.51 275.74L282.86 275.8L286.68 273.33L289.5 277.6L293.69 281.36L289.71 291.7L290.36 295.75L290.13 302.16L287.57 305.32L278.29 310.82L274.67 315.91L272.97 320.4L271.19 321.36L269.39 323.99L267.19 325.06L263.83 322.04L262.45 319.37L261.27 319.23L259.41 320.9L259.11 327.49L255.34 331.86L252.2 332.62L248.46 331.65L246.64 334.55L244.21 335.52L242.3 338.61L239.25 332.03L239.31 329.88L240.57 327.07L239.79 326.73L239.21 324.73L237.63 326.07L236.3 323.62L237.79 321.72L238.71 316.61L238.55 314.83L236.63 312.48L235.57 311.85L231.83 312.33L226.23 310.92L218.79 313.83L214.83 314.12L213.49 313.27L210.11 307.98L207.42 308.27L203.15 306.38L205.69 298.46L206.02 293.75L205.06 288.59L206.38 284.97L206.59 279.89L209.02 278.66L211.66 278.86L212.4 277.62L211.92 275.85L207.52 270.14L207.15 268.41L207 262.22L205.43 257.54L207.3 256.01L207.11 252L202.57 247.07L202.17 243.27L198.38 233.94L198.93 231.28L202.16 227.88L202.92 225.88L202.76 223.22L208.52 222.21L210.89 216.11L205.82 211.07L199.71 208.58L198.01 206.76L197.65 203.64L201.58 194.64Z" fill="#CCCCCC" stroke="white" stroke-width="0.5"/>
<path d="M393.44 38.78L399.88 38.54L402.65 39.34L405 43.12L411.73 42.32L414.23 45.63L415.02 49.96L422.27 52.3L425.73 52.51L427.77 53.75L430.42 53.15L431.69 55.37L432.45 55.57L436 51.91L439.77 56.52L444.18 57.89L447.02 63.22L450.53 63.6L451.9 67.68L456.07 71.56L457.05 73.1L457 76.17L455.53 78.38L451.24 80.5L449.99 83.42L448.02 84.57L445.41 84.61L442.31 82.95L441.37 87.18L435.65 92.04L435.21 94.15L436.39 94.49L435.96 98.09L432.32 100.73L432.39 102.5L429.92 103.44L429.44 104.39L430.29 106.32L429.76 107.9L433.66 110.14L434.62 112.1L433.34 114.44L430.37 116.46L427.75 116.93L426.59 115.89L425.09 116.88L423.1 115.23L421.73 118.94L420.85 119.64L419.24 118.8L415.2 119.1L409.8 116.74L404.98 118.92L402.01 118.39L402.34 120.47L401.11 121.13L398.35 125.82L398.17 128.43L394.03 130.42L392.86 128.5L394.22 125.87L392.93 123.85L389.77 122.73L389.06 120.33L396.03 115.5L398.88 112.46L398.61 109.08L399.63 107.19L399.46 106.13L394.16 104.86L393 103.23L391.68 98.51L387.64 97.63L384.84 93.95L382.38 92.71L381.01 91.11L379.53 90.95L377.73 91.76L375.46 94.92L374.47 94.49L368.22 95.01L366.45 93.81L364.73 89.36L362.91 86.88L363.85 85.59L363.31 83.56L367.57 81.98L369.93 81.83L374.25 76.56L377.96 77.39L384.96 82.72L393.54 79.87L399.05 81.12L404.95 80.39L408.2 75.41L408.19 68.59L406.63 64.64L404.6 62.84L400.62 62.11L396.96 58.87L395.84 58.7L393.76 60.41L392.97 59.14L388.53 59.87L386.04 59.51L383.56 58.16L383.63 55.17L384.41 53.91L387.29 52.29L390.18 43.47L392.98 40.41L393.44 38.78Z" fill="#CCCCCC" stroke="white" stroke-width="0.5"/>
<path d="M390.17 26.11L391.3 30.57L395.44 34.6L393.44 38.78L392.98 40.41L390.18 43.47L387.29 52.29L384.41 53.91L383.63 55.17L383.56 58.16L386.04 59.51L388.53 59.87L392.97 59.14L393.76 60.41L395.84 58.7L396.96 58.87L400.62 62.11L404.6 62.84L406.63 64.64L408.19 68.59L408.2 75.41L404.95 80.39L399.05 81.12L393.54 79.87L384.96 82.72L377.96 77.39L374.25 76.56L369.93 81.83L367.57 81.98L363.31 83.56L363.85 85.59L362.91 86.88L364.73 89.36L366.45 93.81L360.13 96.84L358.44 105.4L356.47 107.78L355.01 111L352.74 112.69L357.69 116.91L357.25 121.77L352.27 120.65L350.39 116.19L345.8 118.05L340.06 115.79L335.51 116.03L332.15 114.45L328.17 110.8L326.69 110.95L323.69 113.36L313.85 107.98L315.4 104.11L315.31 101.73L314.41 100.59L312.68 100.04L312.05 98.08L310.15 96.84L306.51 87.64L306.71 86.1L308.43 83.81L308.08 81.42L307 82.56L305.55 82.61L303.22 80.69L307.04 78.78L314.34 78.65L324.26 72.63L331.21 72.4L336.32 69.67L339.11 64.75L342.91 63.05L345.66 60.36L352.99 49.15L363.15 42.91L365.57 37.71L368.15 34.81L372.17 32.33L377.32 32.32L387.58 26.8L390.17 26.11Z" fill="#CCCCCC" stroke="white" stroke-width="0.5"/>
<path d="M464.76 12.04L468.1 11.78L475.46 14.88L478.54 15.06L482.07 13.8L483.42 16.25L482.72 17.75L484.09 20.87L490.52 23.21L494.77 29.31L501.83 27.94L515.47 29.26L518.6 24.43L521.48 26.83L524.37 34.31L519.56 35.97L517.41 37.67L513.68 43.02L513.67 45.8L510.62 45.42L508.16 42.78L506.22 47.69L503.18 51.34L501.19 51.71L499.16 49.4L497.97 49.64L488.26 58.79L482.56 59.99L475.6 67.94L475.39 70.01L476.71 72.68L476.67 74.06L476.3 74.91L474.76 75.14L472.66 74.45L470.47 75.31L466.94 71.99L464.96 68.51L463.92 68.34L458.58 71.25L456.07 71.56L451.9 67.68L450.53 63.6L447.02 63.22L444.18 57.89L439.77 56.52L436 51.91L432.45 55.57L431.69 55.37L430.42 53.15L427.77 53.75L425.73 52.51L422.27 52.3L415.02 49.96L414.23 45.63L411.73 42.32L405 43.12L402.65 39.34L399.88 38.54L393.44 38.78L395.44 34.6L391.3 30.57L390.17 26.11L395.01 24.78L400.88 25.93L409.98 23.42L416.22 23.8L422.01 22.3L425.33 20.61L428.5 21.06L431.71 20.4L440.88 15.1L446.36 12.87L454.53 12.64L461.66 10.51L464.76 12.04Z" fill="#CCCCCC" stroke="white" stroke-width="0.5"/>
<path d="M375.32 171.45L380.3 167.2L382.27 161.37L384.56 161.78L387.44 160.34L388.2 160.85L387.79 164.45L388.5 165.2L391.03 162.81L393.3 164.77L395.85 165.7L399.14 165.52L405.75 163.61L415.85 165.16L409.43 170.84L408.88 173.66L410.08 175.11L413.19 175.17L412.75 177.75L414.73 184.8L413.6 187.77L413.63 190.73L416.36 194.08L420.35 194.53L421.72 195.82L424.62 201.34L424.25 204.97L422.3 203.47L421.67 203.81L421.63 204.97L423.55 208.27L423.52 212.26L420.63 215.87L419.56 215.36L418.53 213.56L415.69 218.12L410.85 218.61L402.08 224.09L396.61 223.19L392.64 226.46L394.54 227.76L394.88 229.94L392.34 231.82L390.35 234.87L386.25 235.4L384.79 237.41L378.03 235.54L376.71 236.37L376.98 242.3L376.03 242.68L374.01 240.9L372.85 240.74L372.79 242.59L375.07 245.66L376.96 244.74L379.28 242.13L380.12 243.78L379.49 251.85L376.08 257.58L373.71 264.75L363.45 258.6L361.63 258.91L359.76 261.09L359.73 259.08L357.94 258.27L356.1 256.15L352.52 254.93L351.36 253.6L348.55 243.93L344.79 239.35L344.98 237.58L347.19 233.49L343.62 225.22L346.16 221.07L346.65 218.69L343.61 213.58L342.43 206.48L338.41 198.46L338.03 191.57L343.28 192.54L349.11 191.1L353.25 192.65L354.72 192.57L361.54 187.15L361.86 184.64L360.73 182.58L361.23 181.55L372.68 175.47L375.32 171.45Z" fill="#CCCCCC" stroke="white" stroke-width="0.5"/>
<path d="M203.15 306.38L207.42 308.27L210.11 307.98L213.49 313.27L214.83 314.12L218.79 313.83L226.23 310.92L231.83 312.33L235.57 311.85L236.63 312.48L238.55 314.83L238.71 316.61L237.79 321.72L236.3 323.62L237.63 326.07L239.21 324.73L239.79 326.73L240.57 327.07L239.31 329.88L239.25 332.03L242.3 338.61L244.21 335.52L246.64 334.55L248.46 331.65L252.2 332.62L255.34 331.86L259.11 327.49L259.41 320.9L261.27 319.23L262.45 319.37L263.83 322.04L267.19 325.06L266.79 326.25L267.53 329.37L269.68 335.25L268.39 340.02L268.66 346.14L266.56 348.59L259.4 351.21L258.4 352.5L258.57 354.43L260.16 359.12L260.42 362.57L265.47 364.45L271.01 361.79L273.8 363.04L274.74 364.38L275.44 366.84L274.13 371.45L274.8 372.03L276.72 371.76L277.15 372.75L273.4 377.57L274.35 379.61L274.58 383.32L276.61 384.38L276.29 386.67L272.91 385.49L271.04 383.22L269.51 384L267.34 383.09L265 380.02L257.61 378.61L254.01 377.23L251.21 374.44L249.31 374.72L248.11 376.46L247.32 376.58L241.92 375.37L242.31 377.18L241.67 381.3L240.32 382.36L234.8 377.88L233.15 373.42L229.73 373.03L228.66 372.24L226.25 373.25L226.66 371.38L225.87 370.91L221.54 372.04L220.29 370.09L220.19 367.1L217.88 365.59L216.6 362.1L216.86 360.28L215.28 357.22L215.98 355.92L214.98 354.98L214.11 355.17L214.13 354.13L213.41 353.65L208.26 355.77L207.14 356.82L207.02 358.85L205.93 359.67L204.81 358.74L202.43 358.63L201.45 357.34L199.43 357.74L197.63 360.25L194.98 359.06L191.48 361L190.82 359.04L191.36 357.53L188.26 354.91L188.69 353.66L187.47 352.95L185.37 354.28L184.31 356.13L182.36 355.85L180.49 358.35L180.72 359.75L179.99 360.48L178.67 360.27L178.83 359.58L177.58 358.71L177.36 357.7L174.92 358L174.64 357.12L172.3 356.8L171.91 355.88L169.43 356.99L168.99 358.37L167.89 359.15L167.76 356.28L170.22 350.22L169.87 346.94L173.04 342.49L171.98 340.22L173.19 332.22L182.05 331.01L187.92 332.48L190.83 330.88L192.18 328.98L193.77 328.6L192.86 324.29L193.55 320.09L195.94 316.88L200.66 314.85L201.83 313.3L202.86 310.68L203.15 306.38Z" fill="#CCCCCC" stroke="white" stroke-width="0.5"/>
<path d="M57.9796 137.58L60.6596 136.13L62.5296 136.25L65.0296 139.53L68.9696 141.72L72.0196 146.17L74.3196 147.55L85.4596 147.62L89.6596 146.31L93.7996 146.21L95.9596 143.18L98.1896 141.46L104.59 141.83L110.82 142.39L113.22 143.27L113.4 144.58L109.63 149.88L110.48 155L116.38 164L119.03 165.73L128.81 157.11L132.53 159.51H133.85L139.38 156.03L143.2 155.22L145.75 157.11L155.33 157.37L160.13 159.81L161.21 158.73L161.11 155.8L167.2 156.11L167.78 159.65L172.67 162.09L173.53 168.37L180.37 172.03L177.92 173.83L177.24 175.19L180.37 177.4L180.75 182.14L183.36 184.1L182.42 185.64L182.37 187.42L179.11 189.59L179.32 190.94L186.29 192.22L191.69 191.79L201.58 194.64L197.65 203.64L198.01 206.76L199.71 208.58L205.82 211.07L210.89 216.11L208.52 222.21L202.76 223.22L200.21 220.84L197.33 222.54L196.1 220.29L194.17 212.85L190.91 212.05L188.04 210.43L183.47 212.41L179.2 212.79L178.1 217.71L176.15 218.17L173.35 217.62L167.31 224.16L165.13 223.97L160.92 221.21L155.13 222.49L154.56 224.09L155.93 231.6L159.68 237.54L161.15 238.64L163.23 238.58L168.27 236.4L169.55 237.29L169.73 239.61L166.04 247.35L164.15 249.01L160.16 249.46L158.89 250.35L156.89 256.54L158.64 260L158.36 261.21L155.17 262.92L152.99 260.18L147.85 266.99L143.46 269.57L140.09 272.97H137.37L136.84 274.3L138.17 276.7L137.17 277.51L135.64 277.43L132.26 275.9L130.34 272.07L127.48 272.88L126.16 271.98L123.77 272.07L122.59 273.58L121.16 281.45L119.87 283.67L117.27 285.7L114.11 284.95L111.46 285.93L113.43 282.92L115.34 282.23L115.55 279.83L108.44 276.78L106.73 271.15L100.15 273.32L98.5296 272.56L98.2696 271.74L100.75 265.81L105.65 263.99V262.63L99.0996 257.32L96.7996 250.24L94.4896 249.55L91.0296 249.75L88.3796 248.61L87.4796 243.44L87.2396 235.27L89.1596 228.69L91.0896 226.09L92.1496 227.18L96.3496 228.21L97.4196 229.85L99.9396 231.42L104.29 237.68L105.47 238.06L107.16 237.07L107.61 233.17L109.42 228.14L112.14 228.45L112.98 228.98L115.76 235.36L116.22 237.62L115.8 241.07L116.48 243.91L118.34 243.2L122.91 244.92L128.87 242.76L126.64 235.36L124.19 231.41L124.35 229.48L122.97 228.69L119.78 223.58L120.26 217.46L119.41 212.7L118.79 211.93L115.56 211.12L114.83 210.19L115.47 207.75L117.67 206.89L118.82 202.94L122.41 201.68L123.66 200.44L126.48 189.76L125.22 184.83L123.63 184.6L121.8 186.38L119.55 187.05L111.69 181.95L100.31 184.84L98.4996 184.55L96.9796 182.97L95.4496 179.01L93.4196 176.9L92.5496 176.99L87.4496 189.63L87.2596 192.15L85.5796 194.67L85.5096 195.86L87.0296 197.03L86.3196 199.35L83.4996 198.44L81.1696 199.77L73.0296 199.5L69.4096 200.04L68.0596 197.91L62.7196 195.61L60.7396 192.47L56.4796 191.7L53.5896 189.06L48.8196 188.31L47.0796 184.5L45.6396 183.1L41.6296 183.38L40.9796 180.02L39.8496 178.91L42.3696 173.99L41.4296 171.85L42.7096 170.37L42.7996 167.28L49.0496 164.41L50.6096 161.9L53.8096 160.22L56.1596 154.03L59.1696 152.71L62.2196 150.06L63.6396 143.94L62.5596 142.69L64.5296 139.3L61.5496 137.56L57.9796 137.58Z" fill="#CCCCCC" stroke="white" stroke-width="0.5"/>
<path d="M69.4102 200.04L73.0302 199.5L81.1702 199.77L83.5002 198.44L86.3202 199.35L87.0302 197.03L85.5102 195.86L85.5802 194.67L87.2602 192.15L87.4501 189.63L92.5502 176.99L93.4202 176.9L95.4501 179.01L96.9802 182.97L98.5002 184.55L100.31 184.84L111.69 181.95L119.55 187.05L121.8 186.38L123.63 184.6L125.22 184.83L126.48 189.76L123.66 200.44L122.41 201.68L118.82 202.94L117.67 206.89L115.47 207.75L114.83 210.19L115.56 211.12L118.79 211.93L119.41 212.7L120.26 217.46L119.78 223.58L122.97 228.69L124.35 229.48L124.19 231.41L126.64 235.36L128.87 242.76L122.91 244.92L118.34 243.2L116.48 243.91L115.8 241.07L116.22 237.62L115.76 235.36L112.98 228.98L112.14 228.45L109.42 228.14L107.61 233.17L107.16 237.07L105.47 238.06L104.29 237.68L99.9402 231.42L97.4202 229.85L96.3502 228.21L92.1502 227.18L91.0901 226.09L90.8401 224.45L88.2502 224.99L84.4602 219.31L79.9402 218.53L80.8902 216.33L79.7202 209.89L78.0402 208.27L75.7302 207.45L73.7502 204.05L70.5302 202.29L69.4102 200.04Z" fill="#CCCCCC" stroke="white" stroke-width="0.5"/>
<path d="M322.01 195.5L325.1 193.47L331.4 191.14L335.31 191.85L338.03 191.57L338.41 198.46L342.43 206.48L343.61 213.58L346.65 218.69L346.16 221.07L343.62 225.22L347.19 233.49L344.98 237.58L344.79 239.35L348.55 243.93L351.36 253.6L352.52 254.93L356.1 256.15L357.94 258.27L359.73 259.08L359.76 261.09L361.63 258.91L363.45 258.6L373.71 264.75L377.31 266.99L369.22 274.95L369.08 277.93L370.93 282.16L372.61 290.37L368.88 291.32L366.67 290.82L363.42 294.27L361.33 293.68L357.15 285.14L352.89 284.61L350.54 282.34L347.14 282.24L344.38 280.14L343.03 281.04L341.5 286.8L337.48 289.1L335.24 289.2L333.9 290.4L331.91 290.29L330.24 284.74L327.85 282.23L325.94 277.76L324.11 277.81L320.38 281.21L319.29 281.27L319.15 272.48L317.91 270.02L316.72 270.62L315.05 273.3L310.82 276.1L311 276.85L312.65 276.7L311.72 278.51L310.08 278.44L307.39 276.39L306.09 276.69L305.68 279.95L302.24 284.51L301.16 284.57L296.45 281.66L293.69 281.36L289.5 277.6L286.68 273.33L282.86 275.8L278.51 275.74L273.44 277.35L268.63 275.56L266.36 273.4L265.92 269.82L266.98 264.84L269.29 263.29L276.89 260.56L276.24 259.03L273.37 257.09L272.29 257.12L272.3 244.92L273.01 243.32L276.3 244.67L277.12 244.31L277.17 242.42L274.41 239.3L274.25 237.98L278.4 233.79L278.8 231.24L277.9 228.38L276.48 227.71L268.13 231.28H266.04L262.6 229.9L259.61 224.64L257.84 217.14L261.02 210.06L260.57 198.3L261.59 195.95L268.78 196.86L273 194.35L276.52 194.08L279.36 191.89L285.6 195.66L289.3 195.1L301.22 198.4L302.38 197.37L301.95 193.75L305.09 193.99L307.97 196.91L311.52 197.71L313.35 197.53L316.26 195.32L319.49 198.12L321.82 197.16L322.01 195.5Z" fill="#CCCCCC" stroke="white" stroke-width="0.5"/>
<path d="M366.45 93.81L368.22 95.01L374.47 94.49L375.46 94.92L377.73 91.76L379.53 90.95L381.01 91.11L382.38 92.71L384.84 93.95L387.64 97.63L391.68 98.51L393 103.23L394.16 104.86L399.46 106.13L399.63 107.19L398.61 109.08L398.88 112.46L396.03 115.5L389.06 120.33L389.77 122.73L392.93 123.85L394.22 125.87L392.86 128.5L394.03 130.42L398.17 128.43L398.35 125.82L401.11 121.13L402.34 120.47L402.01 118.39L404.98 118.92L409.8 116.74L415.2 119.1L419.24 118.8L420.85 119.64L421.73 118.94L423.1 115.23L425.09 116.88L426.59 115.89L427.75 116.93L430.37 116.46L429.14 118.05L429.8 125.91L433.06 128.89L433.55 131.41L432.08 133.61L427.74 137.54L427.31 140.36L425.58 143.61L423.33 144.48L421.6 143.88L422.42 147.79L424.35 151.93L424.32 153.55L422.31 154.76L421.79 157.18L419.02 158.98L418.39 161.85L419.06 163.56L415.85 165.16L405.75 163.61L399.14 165.52L395.85 165.7L393.3 164.77L391.03 162.81L388.5 165.2L387.79 164.45L388.2 160.85L387.44 160.34L384.56 161.78L382.27 161.37L380.3 167.2L375.32 171.45L364.17 167.54L364.7 165.61L367.44 164.18L367.89 162.72L364.26 159.64L363.61 158.19L362.8 154.76L363.17 148.06L364.45 145.45L365.09 141.91L368.2 139.74L368.25 138.02L367.83 136.68L365.51 134.31L365.26 132.93L362.94 131.03L363.89 128.13L357.25 121.77L357.69 116.91L352.74 112.69L355.01 111L356.47 107.78L358.44 105.4L360.13 96.84L366.45 93.81Z" fill="#CCCCCC" stroke="white" stroke-width="0.5"/>
<path d="M377.31 266.99L380.32 269.14L384.64 270.08L387.92 273.07L390.73 273.28L393.89 274.63L396.35 273.22L398.86 275.22L402.75 274.3L404.31 277.06L407.94 276.66L406.89 284.15L407.49 290.42L405.05 292.79L404.98 295.56L406.34 296.4L407.14 298.9L408.33 299.99L408.56 302.08L412.46 306.81L414.58 309.72L413.03 312.1L414.31 313.85L412.9 314.59L412.78 316.15L411.42 317.29L410.31 320.23L395.31 320.29L393.32 321.03L389.74 329.71L389.69 331.57L392.56 334.78L389.76 334.3L387.59 335.16L385.35 334.8L382.22 333.4L380.01 331.05L378.88 332.01L377.11 331.82L375.25 331.07L374.38 329.86L369.61 332.34L368.52 334.6L365.91 334.14L364.33 335.12L363.53 337.79L364.66 343.17L366.37 343.84L366.94 345.83L369.16 346.26L369.61 345.32L370.97 345.04L371.08 347.39L372.6 348.62L372.02 355.11L374.94 355.44L375.73 359.98L374.45 361.61L374.28 363.3L372.69 364.06L372.62 364.94L373.09 366.39L374.74 367.11L377.23 370.76L374.18 371.21L373.06 372.71L373.61 374.37L373.13 376.5L372.12 378.28L370.95 378.65L370.36 381.21L367.18 381.1L366.15 382.39L361.06 381.9L358.31 382.82L357.42 385.09L354.57 386.02L351.44 385.75L350.97 381.54L349.95 379.77L341.49 371.71L341.31 368.29L342.14 364.98L340.76 364.32L339.08 361.73L336.95 360.79L336.83 358.5L338.76 352.06L340.53 350.04L342.95 348.79L341.3 343.45L335.46 342.67L333.5 343.53L332.7 345.81L329.96 347.64L326.22 345.98L323.83 347.51L322.81 344.93L323.8 343.2L324.19 340.41L322.12 336.27L321.22 330.35L319.01 327.57L317.8 327.3L313.09 329.32L304.61 326.71L301.17 324.05L297.23 322.54L294.88 316.9L293.62 317.22L292.69 319.34L291.27 319.88L289.36 322.05L286.25 309.75L287.57 305.32L290.13 302.16L290.36 295.75L289.71 291.7L293.69 281.36L296.45 281.66L301.16 284.57L302.24 284.51L305.68 279.95L306.09 276.69L307.39 276.39L310.08 278.44L311.72 278.51L312.65 276.7L311 276.85L310.82 276.1L315.05 273.3L316.72 270.62L317.91 270.02L319.15 272.48L319.29 281.27L320.38 281.21L324.11 277.81L325.94 277.76L327.85 282.23L330.24 284.74L331.91 290.29L333.9 290.4L335.24 289.2L337.48 289.1L341.5 286.8L343.03 281.04L344.38 280.14L347.14 282.24L350.54 282.34L352.89 284.61L357.15 285.14L361.33 293.68L363.42 294.27L366.67 290.82L368.88 291.32L372.61 290.37L370.93 282.16L369.08 277.93L369.22 274.95L377.31 266.99Z" fill="#CCCCCC" stroke="white" stroke-width="0.5"/>
<path d="M424.25 204.97L428.78 210.92L432.47 214.32L436.34 223.26L439.68 227.47L441.27 231.87L443.82 234.93L445.16 238.81L447.14 239.7L451.36 238.52L452.2 239.37L452.14 241.85L450.3 244.14L443.09 245.37L441.81 246.88L442.78 251.12L446.32 254.15L448.13 258.08L450.63 259.96L449.07 263.36L449.04 265L451.36 269.6L451.52 271.2L448.73 274.49L449.07 276.61L451.77 280.24L456.89 283.24L459.11 286.22L457.68 286.51L458.16 289.14L456.22 291.9L453.63 292.12L453.91 294.4L451.73 297.46L448.45 296.94L446.21 298.76L442.73 298.4L440.74 299.55L440.07 301.19L437.04 300.43L434.77 298.51L431.73 301.36L431.24 302.65L427.32 301.34L422.7 301.66L418.63 299.82L418.03 301.72L412.46 306.81L408.56 302.08L408.33 299.99L407.14 298.9L406.34 296.4L404.98 295.56L405.05 292.79L407.49 290.42L406.89 284.15L407.94 276.66L404.31 277.06L402.75 274.3L398.86 275.22L396.35 273.22L393.89 274.63L390.73 273.28L387.92 273.07L384.64 270.08L380.32 269.14L377.31 266.99L373.71 264.75L376.08 257.58L379.49 251.85L380.12 243.78L379.28 242.13L376.96 244.74L375.07 245.66L372.79 242.59L372.85 240.74L374.01 240.9L376.03 242.68L376.98 242.3L376.71 236.37L378.03 235.54L384.79 237.41L386.25 235.4L390.35 234.87L392.34 231.82L394.88 229.94L394.54 227.76L392.64 226.46L396.61 223.19L402.08 224.09L410.85 218.61L415.69 218.12L418.53 213.56L419.56 215.36L420.63 215.87L423.52 212.26L423.55 208.27L421.63 204.97L421.67 203.81L422.3 203.47L424.25 204.97Z" fill="#CCCCCC" stroke="white" stroke-width="0.5"/>
<path d="M456.07 71.56L458.58 71.25L463.92 68.34L464.96 68.51L466.94 71.99L470.47 75.31L472.66 74.45L474.76 75.14L477.25 78.1L481.77 78.73L486.03 84.66L487.53 85.24L493.37 81.25L494.48 81.19L497.07 85.94L496.35 87.88L495.11 88.74L489.03 90.76L486.29 90.99L485.58 91.78L485.57 95.32L488.22 96.5V97.97L486.3 101.53L488.18 101.94L488.64 103.71L483.55 111.43L483.29 114.76L484.2 117.47L484.56 122.26L482.64 123.98L479.89 123.1L479.44 124.29L479.83 127.88L480.93 130.32L481.13 134.22L482.98 138.29L474 143.59L473 147.4L475.47 150.1V153.68L477.03 158.85L469.57 160.34L466.96 161.74H463.49L462.03 163.73L460.81 164.28L460.63 165.13L463.55 166.24L464.15 168.92L465.84 169.86L465.56 173.77L460.54 174.35L453.3 178.24L451.29 177.67L449.49 174.78L448.26 174.46L442.71 175.55L438.81 173.91L435.72 174.53L430.77 174.27L424.45 178.75L416.84 178.81L415.92 177.46L416.97 175.59L416.33 174.87L411.76 174.29L410.08 175.11L408.88 173.66L409.43 170.84L415.85 165.16L419.06 163.56L418.39 161.85L419.02 158.98L421.79 157.18L422.31 154.76L424.32 153.55L424.35 151.93L422.42 147.79L421.6 143.88L423.33 144.48L425.58 143.61L427.31 140.36L427.74 137.54L432.08 133.61L433.55 131.41L433.06 128.89L429.8 125.91L429.14 118.05L430.37 116.46L433.34 114.44L434.62 112.1L433.66 110.14L429.76 107.9L430.29 106.32L429.44 104.39L429.92 103.44L432.39 102.5L432.32 100.73L435.96 98.09L436.39 94.49L435.21 94.15L435.65 92.04L441.37 87.18L442.31 82.95L445.41 84.61L448.02 84.57L449.99 83.42L451.24 80.5L455.53 78.38L457 76.17L457.05 73.1L456.07 71.56Z" fill="#CCCCCC" stroke="white" stroke-width="0.5"/>
</svg>
