<svg width="1088" height="793" viewBox="0 0 1088 793" fill="none" xmlns="http://www.w3.org/2000/svg">
<path d="M317.251 195.63L320.571 197.2L327.601 195.76L331.891 196.03L336.591 200.31L338.961 205.81L340.651 205.16L342.891 201.09L345.121 199.69L352.361 205.4L355.791 204.07L361.591 211.65L366.511 216.25L385.881 220.95L386.311 223.42L388.631 226.91L394.601 228.22L396.931 230.99L397.731 244.19L400.211 246.21L402.121 252.11L411.481 257.06L413.271 255.11L418.101 255.55L421.451 256.61L423.361 258.82L415.571 268.84L409.241 279.29L406.411 281.6L399.731 281.73L390.621 280.3L388.321 281.93L387.111 288.01L389.141 301.21L385.381 318.41L385.931 321.34L388.241 321.35L395.751 329.96L391.051 337.43L385.731 339.89L381.451 344.32L379.731 347.5L380.481 352.72L384.701 362.61L380.551 366.27L380.511 369.92L368.651 380.94L370.611 382.97L370.571 385.86L364.061 393.23L363.441 396.35L364.501 398.86L370.371 405.82L374.081 419.23L373.011 421.91L369.581 423.44L357.911 422.77L356.381 425.77L359.291 429.1L363.061 431.16L365.161 434.52L365.531 438.06L364.471 441.1L368.381 449.14L367.001 456.59L358.271 459.57L356.951 462.68L358.981 465.51L364.211 466.28L370.511 465.66L374.001 466.9L379.611 472.87L388.151 486.09L389.851 486.84L391.521 492.75L391.971 500.53L399.701 506.47L410.061 512.67L412.081 516.33L408.321 520.56L401.241 521.76L400.261 526.51L394.841 526.83L383.211 524.41L376.551 530.95L371.231 541.39L370.041 538.99L363.291 537.37L366.351 531.89L370.171 524.84L371.821 518.56L370.891 509.1L369.781 506.99L371.831 501.09L367.461 497.91L363.661 495.76L362.411 498.44L360.921 499.1L356.381 495.98L349.791 497.46L344.661 492.85L340.351 491.55L336.501 492.62L329.541 498.43L323.111 500.33L317.591 506.16L315.671 504.34L313.251 503.93L309.951 509.15L306.141 506.39L304.311 503.51L304.271 496.02L296.531 494.48L292.881 490.39L290.681 490.55L288.231 489.26L292.501 477.74L282.071 473.39L278.441 473.74L269.721 469.53L265.561 466.4L251.461 468.15L246.281 471.74L239.001 470.72L232.021 466.05L225.591 463.62L226.361 459.8L220.401 456.2L220.751 454.29L214.511 453.54L215.561 448.71L214.871 444.84L214.041 442.91L212.851 443.58L210.721 441.98L208.381 443.55L201.971 440L198.111 439.53L194.431 442.25L191.721 442.73L180.921 442.16L175.731 447.01L171.621 457.13L169.701 464.72L165.361 470.1L159.841 470.81L157.771 468.07L146.481 472.32L143.071 471.17L141.291 467.11L146.781 453.06L147.411 441.64L150.071 433.43L144.851 433.04L144.041 431.32L145.421 424.65L144.931 422.76L141.011 420.83L138.711 421.41L137.031 423.67L134.641 424.67L128.941 424.23L125.441 425.71L122.301 425.05L120.551 423.19L123.241 416.77L130.981 413.85L132.011 411.39L128.541 408.75L127.991 406.14L139.991 395.32L142.101 391.55L142.581 387.62L144.971 387.18L150.901 389.59L151.271 388.81L147.161 380.1L146.901 374.81L150.111 365.21L155.041 358.47L150.301 348.68L143.481 344.23L142.161 341.76L141.881 333.55L143.291 331.97L158.321 330.63L163.161 334.36L168.611 335.12L174.941 331.4L176.991 327.27L177.821 320.83L176.281 313.09L177.181 300.12L170.381 291.81L166.061 282.27L160.551 276.85L160.851 273.4L169.581 267.85L175.211 267.58L175.571 265.51L173.281 262.41L173.561 260.99L178.451 257.01L188.801 251.38L192.151 247.51L194.911 239.14L201.661 234.63L209.181 231.58L211.081 228.8L211.091 223.75L212.811 223L214.891 223.82L216.331 228.87L220.501 230.93L219.961 232.74L214.681 234.15L212.411 236.11L212.561 238.03L214.331 239.57L236.691 242.97L241.211 246.47L246.981 253.51L253.991 256.41L263.811 264.84L273.071 269.07L282.311 271.02L286.641 270.35L288.511 266.06L286.501 258.29L286.881 256.28L312.571 252.58L313.331 248.83L312.521 245.73L310.431 242.91L309.981 233.84L307.361 218.38L310.301 212.55L310.891 199.37L306.971 194.26L307.691 192.93L310.161 192.55L317.251 195.63Z" fill="#CCCCCC" stroke="white" stroke-width="0.5"/>
<path d="M3.97 564.82L17.94 565.97L34.46 581.32L37.52 588.51L44.82 597.08L47.86 598.67L58.62 594.91L63.45 594.81L67.83 593.4L73.47 590.6L75.39 587.59L78.12 586.42L87.31 588.03L98.08 587.45L106.68 599.41L110.7 599.8L116.86 603.19L126.03 596.57L126.88 594.72L134.46 589.85L144.02 589.84L147.84 592.34L151.59 601.94L154.82 606.69L157.04 606.22L162.03 607.25L168.3 609.5L170.06 612.71L171.77 613.6L183.04 606.96L196.01 602.04L198.49 603.42L203.68 609.15L217.08 612.4L217.15 614.6L219.91 615.29L223.89 612.96L226.75 612.53L230.51 609.93L229.59 606.89L239.32 595.76L246.55 595.52L246.47 597.86L249.1 599.59L250.69 602.18L251.67 607.78L239.97 607.67L238.27 608.78L237.2 611.28L237.14 612.91L240.25 615.92L247.73 617.02L250.84 620.88L251.14 622.89L249.88 628.59L249.9 641.32L250.97 644.77L247.42 647.63L245.52 653.6L238.78 662.45L241.07 666.53L242.44 673.76L243.7 675.96L243.02 678.47L238.83 684.16L234.89 692.59L231.15 694.76L222.12 697.41L213.99 695.56L211.69 699.93L209.84 706.71L217.95 713.05L223.93 719.5L223.84 723.9L222.61 723.77L220.11 726.77L217.59 727.81L212.68 728.07L211.96 730.44L212.69 731.66L210.67 733.58L207.79 732.62L204.77 732.94L202.86 735.13L203.09 737.44L200.27 737.8L191.13 733.25L186.07 738.05L184.24 741.08L176.72 743.96L171.81 743.61L170.91 746.01L172.55 746.83L171.26 751.4L169.99 752.7L170.58 753.71L169.29 755.74L169.11 760.06L165.29 765.35L160.89 761.7L159.46 761.67L158.15 762.69L157.59 765.78L154.92 765.71L153.55 764.41L151.38 758.08L149.56 756.7L139.36 758.84L137.86 757.13L137.25 753.11L137.42 750.76L139.1 749.35L139.71 746.86L137.8 745.13L132.32 745.89L132.94 748.04L134.23 748.77L130.71 753.23L128.09 752.31L126.3 749.37L124.31 748.37L122.86 751.26L119.51 749.53L117.72 753.03L116.51 752.78L115.47 754.36L114.08 754.65L113.57 753.36L111.35 752.27L107.41 744.55L103.24 744.05L103.3 746.4L101.9 746.18L101.2 743.91L99.3 743.86L99.25 741.92L97.98 742.08L96.85 739.79L100.88 739.72L99.84 737.59L100.87 733.05L98.74 731.45L96.52 731.83L95.02 728.84L88.32 727.9L83.73 724.74L81.78 725.77L80.91 727.51L76.33 724.89L75.67 722.78L77.21 720.8L76.77 718.56L79.2 716.59L76.97 715.22L76.49 713.64L73.59 712.19L73.35 709.11L73.81 708.41L76.8 709.47L76.25 708.12L77.2 706.76L75.8 704.18L74.33 703.81L72.78 701.62L69.01 700.3L71.41 695.65L68.18 696.4L65.74 698.82L63.29 698.86L63.26 697.62L65.38 695.35L61.43 695.29L61.14 692.89L64.08 693.79L65.88 692.91L65.17 691.81L60.98 690.35L61.84 684.89L57.52 685.75L56.2 684.95L58.42 684.05L59.42 682.23L59.71 679.73L58.93 678.65L54.12 681.47L54.59 678.68L52.89 680.14L50.16 679.6L49.46 675.29L52.16 669.65L52.01 666.65L50.98 665.42L48.16 665.87L45.55 668.24L43.41 666.99L43.57 665.44L41.43 667.23L40.11 666.38L35.42 667.16L33.75 666.36L32.71 667.23L30.77 665.78L29.7 666.39L30.28 667.87L29.55 667.44L26.07 669.46L23.31 667.59L21.88 670.26L20.64 670.49L19.55 669.28L16.11 669.14L13.93 667.38L13.24 665.35L11.51 665.76L10.71 663.29L7.77 662.18L7.69 658.39L5.03001 657.75L2.15 651.2L1 651.46L1.44 646.05L3.47 643.33L6.5 634.41L8.14 632.31L7.11 629.64L8.18 627.37L5.74001 623.75L7.51 608.24L6.98 605.04L10.36 603.36L11.06 598.84L13.13 596.02L14.05 591.99L10.47 589.26L8.2 584.65L7.7 576.86L4.83 575.26L5.24001 572.27L3.97 564.82Z" fill="#CCCCCC" stroke="white" stroke-width="0.5"/>
<path d="M507.638 384.86L518.708 379.3L526.868 378.29L520.718 354.45L524.108 352.6L534.168 351.5L538.468 338.76L541.108 340.81L544.738 347.41L541.838 352.71L541.968 356.47L543.408 358.32L550.828 356.03L552.858 353.55L554.778 354.02L555.328 356.42L556.998 357.02L558.818 359.83L554.388 368.41L567.698 367.64L572.558 363.38L576.098 362.46L577.908 364.3L581.998 363.8L584.078 365.8L586.408 373.45L582.988 382.64L583.168 387.08L586.698 385.52L593.268 393.52L594.828 391.71L601.288 397.92L606.798 395.86L606.918 402.4L612.048 403.73L611.208 408.71L602.968 410.46L601.108 412.02L597.428 411.35L589.958 412.05L585.488 413.33L582.288 415.89L577.308 412.36L570.298 414.6L564.578 418.16L561.498 414.17L558.928 405.25L552.508 405.93L551.488 405.07L544.778 407.66L540.918 414.37L537.858 414.22L530.948 419.25L528.508 418.93L525.388 420.81L521.108 425.33L516.278 421.74L508.648 421L500.828 412.4L503.998 407.14L508.278 404.64L511.298 400.94L511.538 395.33L510.198 392.6L506.718 390.41L509.978 387.37L507.638 384.86Z" fill="#CCCCCC" stroke="white" stroke-width="0.5"/>
<path d="M728.719 354.48L725.659 362.68L724.349 369.51L728.569 373.98L735.439 375.79L739.079 381.28L734.929 385.35L730.729 392.3L733.269 396.85L745.549 400.46L749.479 405.04L754.439 406.96L755.689 412.26L759.809 411.66L762.089 418.76L756.209 420.33L752.719 423.04L747.269 423.14L740.979 435.08L743.209 438.48L742.029 443.31L745.819 444.27L747.919 445.92L748.609 453.67L756.889 452.1L761.459 456.34L763.949 467.37L768.169 467.62L769.089 462.24L777.329 464.13L781.979 463.72L784.809 467.83L798.439 467.68L805.309 473.07L816.329 479.62L829.699 479.93L828.649 487.8L830.209 504.25L834.389 512.33L836.809 521.04L832.479 522.85L829.879 525.68L832.039 534.34L833.919 535.73L832.509 540.22L833.769 542.06L825.669 552.16L825.219 559.87L822.869 560.82L817.349 553.96H814.739L808.899 566.83L744.179 553.8L719.699 547.5L717.209 551.62L719.299 553.04L719.599 554.63L710.909 557.13L709.879 559.88L707.659 562.1L705.199 557.56L705.529 555.45L702.379 554.9L697.849 557.91L696.449 563.96L697.189 567.43L694.619 568.86L691.009 568.2L685.959 573.74L683.909 572.71L681.549 575.32L680.609 574.09L679.079 574.14L675.599 579.38L675.519 583.68L673.489 584.89L672.019 585.11L670.269 580.07L668.129 579.58L667.799 577.9L667.059 577.39L666.269 578.77L664.899 577.95L667.189 574.2L665.109 573.9L663.719 574.97L662.749 574.15L662.979 572.83L660.839 572.82L660.459 566.43L663.129 564.37L661.399 559L656.839 558.09L656.929 554.22L653.539 551.19L650.679 544.28L654.579 539.2L654.889 533.94L657.849 533.31L662.369 530.17L667.539 525.14L672.799 523.83L675.269 517.63L680.789 520.62L683.489 520.59L681.069 515.6L682.819 512.99L682.019 506.34L676.939 505.64L667.839 500.7L663.279 494.29L661.009 494.47L656.879 499.53L653.099 498.84L644.649 492.52L640.299 493.94L636.129 486.51L630.219 479.44L633.939 468.78L638.539 467.65L644.669 457.12L650.969 454.59L658.419 454.7L665.479 450.16L674.699 436.55L682.629 433.53L695.959 434.15L698.709 428.95L700.179 423.59L697.669 413.61L699.579 409.85L692.509 406.2L689.409 393.3L686.439 389.58L686.199 385.29L689.109 378.88L684.519 378.39L685.009 370.72L675.309 370.63L673.049 362.11L702.569 368.58L705.089 365.93L728.719 354.48Z" fill="#CCCCCC" stroke="white" stroke-width="0.5"/>
<path d="M517.73 191.03L521.37 182.63L527.83 172.41L532.47 173.8L547.79 166.19L548.98 173.3L551.28 179.73L559.25 184.77L573.38 188.01L574.46 189.67L582.77 189.08L589.41 186.12L595.03 187.1L603.54 185.94L606.96 181.9L613.63 182.97L619.42 178.77L637.04 175.46L656.92 165.07L662.62 163.12L664.76 157.37L669.17 157.14L671.79 162.18L684.43 168.97L691.5 176.52L694.95 180.75L696.9 193.64L701.63 195.11L704.32 199.8L709.03 204.1L715.18 205.53L727.04 204.99L726.29 212.78L722.21 216.34L726.14 223.64L727.31 225.92L717.42 231.81L716.16 238.09L718.55 241.14L720.04 245.3L717.42 252.37L713.46 259.19L716.31 268.14L708.61 278.58L706.91 285.76L707.55 292.85L706.44 295.92L709.59 300.21L714.11 312.54L728.85 320.96L730.95 324.51L726.02 331.72L730.82 345.86L728.72 354.48L705.09 365.93L702.57 368.58L673.05 362.11L672.29 357.25L673.45 352.65L672.01 346.65L668.24 338.76L658.36 337.46L654.4 339.62L654.32 344.19L655.88 349.29L652.79 352.32L648.62 355.91L642.03 359.54L633.88 357.67L619.51 339.86L605.48 340.68L603.67 345.01L600.24 347.99L600.51 343.89L602.18 342.48L602.4 338.98L599.59 336.69L599.84 331.4L587.29 321.86L573.48 318.5L571.27 317.06L570.04 312.97L565.21 312.89L558.75 310.92L555.47 312.48L551.62 311.4L544.38 306.51L547.07 304.58L547.66 295.78L541.92 292.1L537.38 287.33L531.59 285.61L518.42 275.99L518.95 272.68L522.02 271.13L520.88 266.97L521.85 262.67L518.32 259.66L517.3 254.04L511.56 254.99L509.69 249.95L504.69 246.96L505.26 243.98L504 240.34L505.6 235.9L503.84 233.55L505.75 229.82L499.78 217.31L499.59 211.1L502.78 205.56L509.11 203.11L513.89 199.64L519.39 200.12L520.52 195.27L517.73 191.03Z" fill="#CCCCCC" stroke="white" stroke-width="0.5"/>
<path d="M395.753 329.96L408.863 319.82L410.633 319.01L414.193 319.3L417.283 322.93L413.203 329.31L412.873 333.32L414.393 335.43L426.223 334.68L427.203 336.26L420.373 342.04L420.353 346.23L424.053 346.96L435.673 343.8L439.063 342L440.543 342.26L447.193 337.73L452.903 337.25L456.933 335.33L465.063 335.09L469.743 336.32L472.453 335.93L475.783 333.43L479.863 334.36L483.773 333.53L487.823 340.51L491.133 338.18L493.603 341.1L492.523 345.22L494.823 346.85L504.123 349.36L508.803 352.16L512.413 367.86L501.413 372.55L492.463 368.07L482.293 368.41L482.203 372.65L478.623 374.67L478.553 380.95L472.393 390.36L472.433 391.93L477.603 395.61L481.283 394.91L492.033 386.86L502.433 384.47L507.643 384.86L509.983 387.37L506.723 390.41L510.203 392.6L511.543 395.33L511.303 400.94L508.283 404.64L504.003 407.14L500.833 412.4L494.263 412.92L493.203 416.93L487.243 419.25L488.743 424.69L480.283 431.37L477.343 435.12L483.643 439.47L486.363 445.74L489.543 446L492.933 442.99L499.473 446.49L503.113 442.57L510.223 441.05L531.883 463.84L538.803 466.05L545.323 472.31L552.553 474.48L556.883 478.28L558.603 482.24L564.393 486.94L571.383 488.86L577.113 497.29L570.463 503.96L568.343 507.41H566.793L564.013 510.55L561.133 510.35L553.723 515.79L551.593 520.24L545.583 522.65L543.793 521.39L539.513 526.8L539.333 534.91L536.603 537.14L536.583 542.31L530.703 551.14L537.743 554.21L539.713 557.06L542.193 556.86L543.513 558.56L547.783 560.25L550.173 560.49L551.173 561.52L554.533 560.32L557.153 561.15L555.993 563.12L557.923 565.43L560.403 565.59L563.363 564.37L563.453 571.11L560.933 569.05L539.683 568.92L538.883 573.17L529.673 571.97L521.993 574.74L518.453 574.86L511.743 573.97L461.403 574.62L448.113 573.16L413.793 573.84L399.593 572.1L383.243 572.02L383.513 568.92L385.863 564.55L392.863 564.5L394.173 563.17L395.813 557.97L395.823 554.49L383.853 544.88L381.243 546.47L380.523 550.62L374.483 553.49L373.443 552L373.713 547.71L372.593 542.67L371.233 541.39L376.553 530.95L383.213 524.41L394.843 526.83L400.263 526.51L401.243 521.76L408.323 520.56L412.083 516.33L410.063 512.67L399.703 506.47L391.973 500.53L391.523 492.75L389.853 486.84L388.153 486.09L379.613 472.87L374.003 466.9L370.513 465.66L364.213 466.28L358.983 465.51L356.953 462.68L358.273 459.57L367.003 456.59L368.383 449.14L364.473 441.1L365.533 438.06L365.163 434.52L363.063 431.16L359.293 429.1L356.383 425.77L357.913 422.77L369.583 423.44L373.013 421.91L374.083 419.23L370.373 405.82L364.503 398.86L363.443 396.35L364.063 393.23L370.573 385.86L370.613 382.97L368.653 380.94L380.513 369.92L380.553 366.27L384.703 362.61L380.483 352.72L379.733 347.5L381.453 344.32L385.733 339.89L391.053 337.43L395.753 329.96Z" fill="#CCCCCC" stroke="white" stroke-width="0.5"/>
<path d="M500.83 412.4L508.65 421L516.28 421.74L521.11 425.33L525.39 420.81L528.51 418.93L530.95 419.25L537.86 414.22L540.92 414.37L544.78 407.66L551.49 405.07L552.51 405.93L558.93 405.25L561.5 414.17L564.58 418.16L570.3 414.6L577.31 412.36L582.29 415.89L585.49 413.33L589.96 412.05L597.43 411.35L601.11 412.02L602.97 410.46L611.21 408.71L610.88 410.69L616.51 415.05L622.08 427.02L627.56 433.16L633.25 437.76L635.88 446.43L635.2 450.08L637.21 451.55L643.8 453.39L644.67 457.12L638.54 467.65L633.94 468.78L630.22 479.44L636.13 486.51L640.3 493.94L644.65 492.52L653.1 498.84L656.88 499.53L661.01 494.47L663.28 494.29L667.84 500.7L676.94 505.64L682.02 506.34L682.82 512.99L681.07 515.6L683.49 520.59L680.79 520.62L675.27 517.63L672.8 523.83L667.54 525.14L662.37 530.17L657.85 533.31L654.89 533.94L654.58 539.2L650.68 544.28L653.54 551.19L656.93 554.22L656.84 558.09L661.4 559L663.13 564.37L660.46 566.43L660.84 572.82L646.29 572.55L645.57 571.16H642.99L642.44 572.73L639.18 573.02L636.73 577.22L630.85 575.2L629.29 572.35L620.33 572.85L618.78 571.75L603.72 571.41L603.4 573.94L577.6 572.54L565.64 572.9L563.45 571.11L563.36 564.37L560.4 565.59L557.92 565.43L555.99 563.12L557.15 561.15L554.53 560.32L551.17 561.52L550.17 560.49L547.78 560.25L543.51 558.56L542.19 556.86L539.71 557.06L537.74 554.21L530.7 551.14L536.58 542.31L536.6 537.14L539.33 534.91L539.51 526.8L543.79 521.39L545.58 522.65L551.59 520.24L553.72 515.79L561.13 510.35L564.01 510.55L566.79 507.41H568.34L570.46 503.96L577.11 497.29L571.38 488.86L564.39 486.94L558.6 482.24L556.88 478.28L552.55 474.48L545.32 472.31L538.8 466.05L531.88 463.84L510.22 441.05L503.11 442.57L499.47 446.49L492.93 442.99L489.54 446L486.36 445.74L483.64 439.47L477.34 435.12L480.28 431.37L488.74 424.69L487.24 419.25L493.2 416.93L494.26 412.92L500.83 412.4Z" fill="#CCCCCC" stroke="white" stroke-width="0.5"/>
<path d="M726.138 223.64L730.767 219.29L731.847 213.61L735.328 212.71L741.258 213.9L751.167 218.26L765.578 212.2L766.677 217.21L766.767 224.96L771.787 225.19L779.647 242.77L791.897 254.94L792.897 262.22L814.147 268.49L818.688 270.87L820.008 276.2L826.878 278.14L827.378 284.06L836.438 290.64L839.657 298.86L835.867 299.54L840.117 300.73L842.557 297.92L846.638 296.61L849.967 299.65L851.117 295.29L854.837 297.85L862.818 298.53L864.547 292.94L871.777 293.33L873.297 289.28L877.078 288.72L882.267 284.37L893.078 280L893.198 284.84L901.297 285.02L903.207 286.42L947.388 323.94L973.137 344.35L1013.96 346.43L1020.92 334.38L1024.23 335.36L1028.99 330.03L1042.58 332.06L1045.51 330.7L1046.42 334.05L1053.25 336.7L1052 342.12L1058.1 345.61L1062.19 351.34L1062.52 359.88L1067.94 366.42L1067.81 371.82L1068.82 372.91L1065.94 374.73L1063.57 373.25L1060.77 374.89L1058.95 373.73L1052.5 374.08L1052.35 375.25L1048.52 377.06L1045.96 379.78L1043.81 377.73L1042.49 377.77L1040.1 382.97L1086.79 446.29L1085.3 448.01L1086.41 450.6L1083.21 452.9L1082.53 455.27L1083.75 456.58L1081.63 458.56L1082.27 461.38L1077.88 462.46L1077.59 464.57L1072.85 469.42L1072.24 471.44L1073.66 477L1073.13 477.89L1066.52 481.57L1059.49 488.1L1056.65 488.62L1032.66 512.78L1025.25 513.22L1013.79 509.67L1010.37 510.69L1009.54 509.86L1007.69 511.27L1004.17 511.04L1003.18 512.35L997.297 513.7L992.057 511.98L990.078 514.92L987.848 514.06L985.068 516.52L982.287 515.69L979.218 517.36L975.448 516.28L975.027 513.08L972.917 511.87L973.527 509.99L972.088 509.51L972.017 508.07L970.157 506.09L968.377 509L967.068 509.45L962.877 506.81L959.397 508.51L958.307 506.78L956.068 507.33L954.497 505.77L952.527 506.83L951.628 508.74L950.068 508.49L946.878 510.16L946.237 512.78L947.397 516.1L945.607 516.39L943.797 518.15L942.677 517.36L941.367 520.62L937.767 521.71L940.907 528.34L938.967 531.16L936.407 529.76L935.517 531.04L933.987 530.85L932.957 528.49L929.698 527L928.807 528.25L929.097 531.31L930.737 533.19L930.318 531.53L931.307 531.37L932.047 534.88L928.737 537.5L925.438 535.57L916.047 535.3L914.448 533.97L911.897 535.95L912.867 538.67L915.617 540.47L914.547 543.35L914.807 547.18L916.128 548.74L914.818 549.16L913.537 547.44L910.407 547.74L907.477 551.1L901.797 551.69L901.167 553.83L903.057 555.07L903.407 553.66L906.057 555.82L907.008 561.98L909.987 565.83L909.287 567.33L903.727 563.36L899.008 564.68L895.987 559.97L892.707 560.4L891.258 559L890.068 563.5L883.438 569.12L882.147 572.03L847.087 571.91L824.938 581.12L826.467 574.31L824.297 573.46L826.057 570.29L808.897 566.83L814.737 553.96H817.347L822.867 560.82L825.217 559.87L825.667 552.16L833.767 542.06L832.508 540.22L833.917 535.73L832.037 534.34L829.878 525.68L832.477 522.85L836.807 521.04L834.388 512.33L830.207 504.25L828.647 487.8L829.698 479.93L816.328 479.62L805.307 473.07L798.438 467.68L784.807 467.83L781.977 463.72L777.328 464.13L769.087 462.24L768.167 467.62L763.948 467.37L761.457 456.34L756.888 452.1L748.607 453.67L747.917 445.92L745.818 444.27L742.027 443.31L743.207 438.48L740.977 435.08L747.267 423.14L752.717 423.04L756.207 420.33L762.087 418.76L759.807 411.66L755.688 412.26L754.438 406.96L749.477 405.04L745.547 400.46L733.267 396.85L730.727 392.3L734.927 385.35L739.078 381.28L735.438 375.79L728.568 373.98L724.347 369.51L725.657 362.68L728.717 354.48L730.818 345.86L726.017 331.72L730.948 324.51L728.847 320.96L714.107 312.54L709.587 300.21L706.438 295.92L707.547 292.85L706.907 285.76L708.607 278.58L716.307 268.14L713.457 259.19L717.417 252.37L720.037 245.3L718.547 241.14L716.157 238.09L717.417 231.81L727.307 225.92L726.138 223.64Z" fill="#CCCCCC" stroke="white" stroke-width="0.5"/>
<path d="M120.549 423.19L122.299 425.05L125.439 425.71L128.939 424.23L134.639 424.67L137.029 423.67L138.709 421.41L141.009 420.83L144.929 422.76L145.419 424.65L144.039 431.32L144.849 433.04L150.069 433.43L147.409 441.64L146.779 453.06L141.289 467.11L143.069 471.17L146.479 472.32L157.769 468.07L159.839 470.81L165.359 470.1L169.699 464.72L171.619 457.13L175.729 447.01L180.919 442.16L191.719 442.73L194.429 442.25L198.109 439.53L201.969 440L208.379 443.55L210.719 441.98L212.849 443.58L214.039 442.91L214.869 444.84L215.559 448.71L214.509 453.54L220.749 454.29L220.399 456.2L226.359 459.8L225.589 463.62L232.019 466.05L238.999 470.72L246.279 471.74L251.459 468.15L265.559 466.4L269.719 469.53L278.439 473.74L282.069 473.39L292.499 477.74L288.229 489.26L290.679 490.55L292.879 490.39L296.529 494.48L304.269 496.02L304.309 503.51L306.139 506.39L309.949 509.15L313.249 503.93L315.669 504.34L317.589 506.16L323.109 500.33L329.539 498.43L336.499 492.62L340.349 491.55L344.659 492.85L349.789 497.46L356.379 495.98L360.919 499.1L362.409 498.44L363.659 495.76L367.459 497.91L371.829 501.09L369.779 506.99L370.889 509.1L371.819 518.56L370.169 524.84L366.349 531.89L357.179 527.67L347.519 525.79L343.079 522.77L331.909 526.34H328.449L327.599 522.46L321.369 523.47L316.349 525.67L306.569 538.37L304.529 547.78L300.639 549.52L297.549 547.98L291.329 551.96L286.119 551.33L285.119 547.71L284.549 550.34L282.609 552.97L277.729 553.51L273.109 560.2L269.459 561.43L266.979 565.47L264.189 566.81L264.309 568.27L266.689 570.72L265.689 575.41L261.279 579.86L258.279 580.56L255.789 585.63L256.939 589.34L252.749 589.82L251.949 591.9L247.349 591.79L246.549 595.52L239.319 595.76L229.589 606.89L230.509 609.93L226.749 612.53L223.889 612.96L219.909 615.29L217.149 614.6L217.079 612.4L203.679 609.15L198.489 603.42L196.009 602.04L183.039 606.96L171.769 613.6L170.059 612.71L168.299 609.5L162.029 607.25L157.039 606.22L154.819 606.69L151.589 601.94L147.839 592.34L144.019 589.84L134.459 589.85L126.879 594.72L126.029 596.57L116.859 603.19L110.699 599.8L106.679 599.41L98.0788 587.45L87.3087 588.03L78.1188 586.42L75.3887 587.59L73.4688 590.6L67.8288 593.4L63.4487 594.81L58.6188 594.91L47.8587 598.67L44.8187 597.08L37.5188 588.51L34.4588 581.32L17.9388 565.97L3.96875 564.82L4.66875 561.57L17.8988 557.96L25.1288 552.59L26.9488 544.14L34.6288 539.01L35.6588 534.62L35.5088 521.74L42.2788 516.62L44.5788 511.51L42.5387 506.76L42.4588 500.4L43.9788 498.07L41.8587 494.05L41.3288 490.28L38.8587 487.56L32.9388 487.58L30.9287 485.55L34.6988 476.3L34.0687 472.99L35.7388 465.47L32.7887 466.04L31.1488 464.46L30.8788 462.42L23.7788 459.66L22.9588 460.94L18.8488 458L17.6188 458.36L15.9888 457.17L16.2388 455.45L19.5687 454.51L23.3887 456.97L26.8788 454.18L29.7988 455.09L30.2388 453.95L32.6988 452.89L33.5188 454.7L35.2288 455.47L37.2088 454.49L37.5888 451.61L41.1588 449.5L43.0387 447.1L46.0687 445.85L47.4287 442.35L50.2688 441.89L50.7388 439.63L52.7288 439.61L61.1588 435.16L72.6188 434.96L78.3188 432.44L88.2188 432.42L93.7388 430.17L95.7588 431.53L104.339 431.58L108.329 433.04L112.029 425.62L115.339 424.61L118.749 425.09L120.549 423.19Z" fill="#CCCCCC" stroke="white" stroke-width="0.5"/>
<path d="M462.079 118.6L475.329 137.41L483.919 142.02L494.879 150.5L502.469 154.12L500.719 158.39L500.139 165.19L501.439 169.5L505.059 174.5L507.179 179.8L517.729 191.03L520.519 195.27L519.389 200.12L513.889 199.64L509.109 203.11L502.779 205.56L499.589 211.1L499.779 217.31L505.749 229.82L503.839 233.55L505.599 235.9L503.999 240.34L505.259 243.98L504.689 246.96L509.689 249.95L511.559 254.99L517.299 254.04L518.319 259.66L521.849 262.67L520.879 266.97L522.019 271.13L518.949 272.68L518.419 275.99L531.589 285.61L537.379 287.33L541.919 292.1L547.659 295.78L547.069 304.58L544.379 306.51L542.639 307.67L531.399 302.13L519.859 306.98L501.409 311.47L497.599 316.01L492.909 319.04L489.479 323.89L487.319 329.13L488.709 334.25L491.129 338.18L487.819 340.51L483.769 333.53L479.859 334.36L475.779 333.43L472.449 335.93L469.739 336.32L465.059 335.09L456.929 335.33L452.899 337.25L447.189 337.73L440.539 342.26L439.059 342L435.669 343.8L424.049 346.96L420.349 346.23L420.369 342.04L427.199 336.26L426.219 334.68L414.389 335.43L412.869 333.32L413.199 329.31L417.279 322.93L414.189 319.3L410.629 319.01L408.859 319.82L395.749 329.96L388.239 321.35L385.929 321.34L385.379 318.41L389.139 301.21L387.109 288.01L388.319 281.93L390.619 280.3L399.729 281.73L406.409 281.6L409.239 279.29L415.569 268.84L423.359 258.82L421.449 256.61L418.099 255.55L413.269 255.11L411.479 257.06L402.119 252.11L400.209 246.21L397.729 244.19L396.929 230.99L394.599 228.22L388.629 226.91L386.309 223.42L385.879 220.95L366.509 216.25L361.589 211.65L355.789 204.07L358.519 201.32L356.329 191.83L355.909 177.43L362.719 162.85L364.829 155.52L367.439 152.37L413.519 133.52L449.149 121.9L462.079 118.6Z" fill="#CCCCCC" stroke="white" stroke-width="0.5"/>
<path d="M491.131 338.18L488.711 334.25L487.321 329.13L489.481 323.89L492.911 319.04L497.601 316.01L501.411 311.47L519.861 306.98L531.401 302.13L542.641 307.67L544.381 306.51L551.621 311.4L555.471 312.48L558.751 310.92L565.211 312.89L570.041 312.97L571.271 317.06L573.481 318.5L587.291 321.86L599.841 331.4L599.591 336.69L602.401 338.98L602.181 342.48L600.511 343.89L600.241 347.99L603.671 345.01L605.481 340.68L619.511 339.86L633.881 357.67L642.031 359.54L648.621 355.91L652.791 352.32L655.881 349.29L654.321 344.19L654.401 339.62L658.361 337.46L668.241 338.76L672.011 346.65L673.451 352.65L672.291 357.25L673.051 362.11L675.311 370.63L685.011 370.72L684.521 378.39L689.111 378.88L686.201 385.29L686.441 389.58L689.411 393.3L692.511 406.2L699.581 409.85L697.671 413.61L700.181 423.59L698.711 428.95L695.961 434.15L682.631 433.53L674.701 436.55L665.481 450.16L658.421 454.7L650.971 454.59L644.671 457.12L643.801 453.39L637.211 451.55L635.201 450.08L635.881 446.43L633.251 437.76L627.561 433.16L622.081 427.02L616.511 415.05L610.881 410.69L611.211 408.71L612.051 403.73L606.921 402.4L606.801 395.86L601.291 397.92L594.831 391.71L593.271 393.52L586.701 385.52L583.171 387.08L582.991 382.64L586.411 373.45L584.081 365.8L582.001 363.8L577.911 364.3L576.101 362.46L572.561 363.38L567.701 367.64L554.391 368.41L558.821 359.83L557.001 357.02L555.331 356.42L554.781 354.02L552.861 353.55L550.831 356.03L543.411 358.32L541.971 356.47L541.841 352.71L544.741 347.41L541.111 340.81L538.471 338.76L534.171 351.5L524.111 352.6L520.721 354.45L526.871 378.29L518.711 379.3L507.641 384.86L502.431 384.47L492.031 386.86L481.281 394.91L477.601 395.61L472.431 391.93L472.391 390.36L478.551 380.95L478.621 374.67L482.201 372.65L482.291 368.41L492.461 368.07L501.411 372.55L512.411 367.86L508.801 352.16L504.121 349.36L494.821 346.85L492.521 345.22L493.601 341.1L491.131 338.18Z" fill="#CCCCCC" stroke="white" stroke-width="0.5"/>
<path d="M694.698 1L701.828 10.5L703.878 11.32L722.368 1.55L734.128 5.37L755.878 14.49L770.108 15.49L788.578 13.85L789.448 28.46L784.828 35.03L789.498 47.7L788.838 51.61L781.478 71.18L780.168 79.53L783.458 88.35L785.888 90.69L786.558 89.92L794.888 99.91L801.398 102.22L807.858 109.78L810.778 115.73L810.678 118.8L806.898 126.96L806.078 132.23L806.938 135.35L811.288 140.94L809.778 143.17L811.798 149.15L818.848 156.19L819.528 160.09L822.998 157.87L823.368 159.9L822.028 161.87L822.018 164.61L824.558 167.92L828.518 170.75L829.838 175.42L836.378 179.3L837.918 182.87L841.178 184.09L841.248 183.04L842.178 183L842.878 185.99L839.338 190.88L840.098 193.77L841.978 195.27L844.238 196.06L863.028 196.13L866.348 198.32L863.828 200.15L864.268 203.17L870.508 206.54L873.138 205.82L881.458 206.54L888.508 211.88L892.818 212.46L895.008 214.99L896.218 218.82L895.198 220.45L896.118 224.93L899.778 225.52L903.478 228.55L906.238 228.66L912.918 235.2L915.588 235.39L916.088 236.29L924.568 238.94L927.208 238.37L932.698 242.96L932.448 244.18L925.888 246.44L923.908 241.27L921.918 240.83L922.198 244.24L919.198 248.81L914.568 248.05L912.318 245.99L910.588 246.54L901.468 241.56L893.068 241.24L893.078 280L882.268 284.37L877.078 288.72L873.298 289.28L871.778 293.33L864.548 292.94L862.818 298.53L854.838 297.85L851.118 295.29L849.968 299.65L846.638 296.61L842.558 297.92L840.118 300.73L835.868 299.54L839.658 298.86L836.438 290.64L827.378 284.06L826.878 278.14L820.008 276.2L818.688 270.87L814.148 268.49L792.898 262.22L791.898 254.94L779.648 242.77L771.788 225.19L766.768 224.96L766.678 217.21L765.578 212.2L751.168 218.26L741.258 213.9L735.328 212.71L731.848 213.61L730.768 219.29L726.138 223.64L722.208 216.34L726.288 212.78L727.038 204.99L715.178 205.53L709.028 204.1L704.318 199.8L701.628 195.11L696.898 193.64L694.948 180.75L691.498 176.52L684.428 168.97L671.788 162.18L669.168 157.14L664.758 157.37L662.618 163.12L656.918 165.07L637.038 175.46L619.418 178.77L613.628 182.97L606.958 181.9L603.538 185.94L595.028 187.1L589.408 186.12L582.768 189.08L574.458 189.67L573.378 188.01L559.248 184.77L551.278 179.73L548.978 173.3L547.788 166.19L532.468 173.8L527.828 172.41L521.368 182.63L517.728 191.03L507.178 179.8L505.058 174.5L501.438 169.5L500.138 165.19L500.718 158.39L502.468 154.12L494.878 150.5L483.918 142.02L475.328 137.41L462.078 118.6L468.318 106.85L480.958 74.46L484.158 70.56L563.268 43.91L575.108 41.15L615.738 35.78L626.708 28.61L644.258 10.53L658.578 1.06L694.698 1Z" fill="#CCCCCC" stroke="white" stroke-width="0.5"/>
<path d="M246.55 595.52L247.35 591.79L251.95 591.9L252.75 589.82L256.94 589.34L255.79 585.63L258.28 580.56L261.28 579.86L265.69 575.41L266.69 570.72L264.31 568.27L264.19 566.81L266.98 565.47L269.46 561.43L273.11 560.2L277.73 553.51L282.61 552.97L284.55 550.34L285.12 547.71L286.12 551.33L291.33 551.96L297.55 547.98L300.64 549.52L304.53 547.78L306.57 538.37L316.35 525.67L321.37 523.47L327.6 522.46L328.45 526.34H331.91L343.08 522.77L347.52 525.79L357.18 527.67L366.35 531.89L363.29 537.37L370.04 538.99L371.23 541.39L372.59 542.67L373.71 547.71L373.44 552L374.48 553.49L380.52 550.62L381.24 546.47L383.85 544.88L395.82 554.49L395.81 557.97L394.17 563.17L392.86 564.5L385.86 564.55L383.51 568.92L383.24 572.02L378.59 571.8L377.23 570.9L368.72 570.97L367.29 577.11L370.26 581.11L369.99 583.57L367.84 587.02L363.91 588.4L363.95 591.97L362.06 595.54L360.57 602.86L354.05 610.95L353.89 612.61L357.45 613.79L358.17 615.05L357.42 617.86L354.13 620.95L353.47 622.9L363.84 647.5L369.5 650.71L376.66 652.24L374.6 654.76L369.69 655.73L368.65 656.74L366.02 665.98L368.02 669.32L376.56 673.69L378.55 677.03L377.46 680L373.48 685.03L374.83 691.31L373.91 695.36L374.55 702.88L379.9 716.04L377.52 721.93L377.41 724.89L378.13 728.05L382.23 733.76L381.34 735.59L377.74 738.35L374.07 744.89L374.02 750.76L375.03 752.71L378.51 755.1L379.69 759.49L376.59 765.67L377.34 770.23L382.4 774.74L385.24 775.96L388.51 780.65L386.14 782.58L379.81 791.58L377.38 792.61L373.59 790.24L359.55 774.82L350.65 758.85L345.09 746.32L343.65 745.5L339.4 748.88L337.78 748.79L333.46 743.04L333 738.92L328.81 731.51L320.39 731.46L319.37 729.83L319.22 720.05L316.64 720.96L315.17 723.97L313.15 724.52L307.48 730.53L302.36 729.5L303.51 725.47L302.8 723.64L298.1 725.08L291.57 721.56L288.35 722.27L281.63 720.38L270.72 720.21L263.88 721.13L258.07 715.95L253.67 718.31L248.9 717.97L242.96 719.47L237.93 722.2L235.12 725.47L223.84 723.9L223.93 719.5L217.95 713.05L209.84 706.71L211.69 699.93L213.99 695.56L222.12 697.41L231.15 694.76L234.89 692.59L238.83 684.16L243.02 678.47L243.7 675.96L242.44 673.76L241.07 666.53L238.78 662.45L245.52 653.6L247.42 647.63L250.97 644.77L249.9 641.32L249.88 628.59L251.14 622.89L250.84 620.88L247.73 617.02L240.25 615.92L237.14 612.91L237.2 611.28L238.27 608.78L239.97 607.67L251.67 607.78L250.69 602.18L249.1 599.59L246.47 597.86L246.55 595.52Z" fill="#CCCCCC" stroke="white" stroke-width="0.5"/>
</svg>
