<svg width="614" height="713" viewBox="0 0 614 713" fill="none" xmlns="http://www.w3.org/2000/svg">
<path d="M182.231 263.59L180.961 266.32L177.701 269.28L178.321 271.87L177.611 272.57L179.491 274.89L180.781 274.94L181.191 276.17L185.731 279.76L186.211 280.53L185.591 281.25L186.601 282.89L185.891 284.22L184.551 283.89L183.071 285.18L183.361 286.52L182.561 290.22L180.131 293.92L179.521 298.55L176.561 302.01L175.381 305.7L174.481 306.81L173.951 306.73L173.761 309.82L174.601 310.24L173.581 311.16L171.521 315.08L170.881 315.43L169.381 314.78L167.121 314.95L162.831 310.17L160.651 312.69L159.131 313.3L157.701 312.52L156.691 312.66L154.931 314.37L153.091 314.54L150.081 313.74L147.431 314.23L144.221 314.02L142.851 315.41L138.691 317.56L139.041 316.43L138.101 312.32L115.251 315.24L113.821 315.79L113.081 317.42L109.871 319.26L108.181 319.68L107.351 319.33L103.371 322.82L101.541 323.62L100.051 323.35L97.9706 324.93L96.7106 328.18L93.5806 332.08L93.2606 333.27L92.3106 331.92L90.1106 330.88L87.9006 328.38L87.1606 324.31L85.3806 321.23L84.5206 320.94L84.5806 319.75L83.3706 319.56L83.5506 317L82.4106 317.04L81.6006 316.38L80.3706 316.82L77.5006 313.47L76.8206 309.46L77.2206 308.29L75.6006 304.95L75.8906 301.64L77.5106 300.44L77.2806 299.41L78.4006 298.34L78.0006 297.2L76.2306 295.43L76.2506 294.37L75.0006 294.45L74.3906 293.31L75.3306 289.78L76.5106 289.8L77.3906 288.89L75.0906 287.57L77.8106 283.13L76.4206 281.71L76.4606 280.43L77.4706 280.24L78.1906 279.52L78.5206 277.9L80.1206 277.14L80.2306 274.06L81.6006 273.78L81.4806 271.71L82.0206 270.3L83.3606 270.78L82.4506 268.82L82.9506 268.46L84.3806 269.24L85.6606 266.43L87.0906 266.03L85.7006 265.61L83.7406 263.62L84.3706 262.88L84.4006 261.57L86.0106 261.68L89.0806 261.41L91.4406 262.4L92.9906 260.81L94.2906 261.41L96.3306 261.36L98.6606 260.04L97.5006 253L98.4906 249.58L99.6506 249.6L97.8206 245.58L96.7506 244.56L96.4406 238.83L98.7706 237.73L101.101 234.5L100.971 231.1L102.441 230.66L103.691 231L104.481 229.99L105.841 229.62L106.641 230.67L108.661 231.12L113.481 227.92L114.871 228.93L116.091 228.37L116.831 229.01L117.911 228.18L118.151 227.19L119.171 226.45L117.751 224.21L117.711 223L120.031 214.49L122.461 213.33L123.341 211.6L124.541 211.87L127.361 210.29L131.591 210.68L132.701 212L132.411 213.83L133.261 214.2L132.961 215.17L133.481 216.43L135.191 216.05L136.261 217.01L136.891 216.23L137.071 214.33L138.751 214.38L139.901 213.45L140.881 213.51L142.191 211.87L142.611 210.21L145.881 209.38L148.711 207.58L149.921 207.19L152.711 208.09L156.481 207.1L157.141 207.9L157.511 207.47L158.561 208.08L159.081 203.1L161.401 200.71L164.611 200.97L166.001 200.24L166.951 200.38L167.721 201.05L168.071 202.88L169.451 203.05L170.511 204.22L168.671 209.69L169.621 211.05L169.161 213.95L170.181 215.63L170.821 219.02L171.941 219.56L172.601 221.17L172.611 222.67L173.751 224.97L172.901 226.99L173.911 228.84L174.521 232.03L175.351 232.94L175.451 234.52L177.431 236.62L177.051 237.27L178.661 238.73L178.831 239.68L179.801 239.96L179.371 242.07L178.401 242.86L179.111 243.16L179.191 243.93L180.601 244.25L181.321 246.51L180.771 247.72L184.311 252.86L184.291 254.68L183.071 256.3L183.851 258.41L182.231 263.59Z" fill="#CCCCCC" stroke="white" stroke-width="0.5"/>
<path d="M167.119 314.95L168.849 317.37L168.929 319.42L170.909 321.62L172.109 321.67L173.769 323.84L174.909 329.66L177.439 333.1L177.559 333.87L176.459 335.78L174.549 337.04L173.519 340.02L175.989 341.34L177.159 344.07L181.209 347.23L182.969 349.48L184.129 352.29L184.959 356.81L185.859 357.99L185.939 359.63L186.949 359.64L189.439 355.45L193.239 354.11L196.109 356.33L196.519 357.6L195.209 359.05L193.839 363.39L192.719 364.67L193.479 366.67L192.269 369.39L192.529 370.93L191.959 371.95L192.759 373.13L194.179 373.86L194.859 375.55L194.499 376.61L198.639 380.3L198.909 383.21L198.559 384.39L194.109 387.58L192.959 389.85L193.179 393.74L192.699 393.88L192.919 397.1L192.159 398.02L192.289 400.53L195.759 401.48L195.089 407.34L194.119 408.07L190.789 407.02L190.059 407.92L190.309 408.91L189.649 410.31L188.999 410.46L188.179 411.88L186.659 412.67L185.159 412.41L182.219 415.14L182.839 417.8L182.499 418.85L181.229 419.35L177.249 423.13L176.639 427.66L172.839 432.38L171.939 434.69L172.019 437.24L170.679 439.4L170.999 444.09L169.869 445.95L170.229 447.29L169.149 448.01L168.489 450.17L167.569 450.77L165.129 450.46L164.939 451.37L163.859 451.7L162.579 454.86L163.209 456.68L164.799 458.03L164.129 459.72L164.509 460.8L163.869 461.54H162.189L161.609 462.63L160.099 462.44L158.829 460.43L157.519 462.69L156.029 462.43L156.169 463.01L155.009 464.25L152.059 463.83L151.809 464.35L149.999 463.74L149.529 461.73L148.729 461.54L147.539 462.62L146.529 462.35L144.769 463.34L143.709 464.55L143.499 466.02L142.809 466.62L141.389 466.43L140.579 467.61L139.649 466.57L138.469 466.71L138.189 465.45L137.709 466.34L136.139 466.66L132.679 465.81L128.659 466.81L126.889 465.83L117.689 467.36L116.169 466.79L114.059 467.58L110.859 467.53L106.329 468.88L104.159 468.98L103.619 463.93L104.719 462.1L106.919 460.22L106.879 457.08L107.989 455.81L109.399 452.34L109.169 451.65L110.659 449.29L110.809 446.51L112.659 442.75L112.009 441.23L113.439 438.32L114.339 433.59L114.199 431.45L115.909 430.13L115.389 428.92L116.519 426.42L115.469 422.3L114.429 420.44L114.489 417.73L116.139 416.45L116.659 412.51L114.559 410.44L114.709 408.93L112.799 406.59L113.139 405.05L112.509 403.59L113.439 399.67L112.379 397.42L114.949 391.32L113.339 389.02L111.479 388.19L111.589 387.52L112.519 388.04L113.519 387.09L114.609 387.56L115.709 386.72L116.769 387.19L120.209 386.07L121.479 384.99L123.149 385.99L125.059 385.77L124.269 385.4L123.559 381.22L124.759 379.61L125.019 376.76L123.219 374.83L124.409 368.11L128.439 368.92L132.109 367.76L132.349 367.26L130.899 367.04L129.439 365.96L127.349 366.15L127.959 364.01L127.259 363.02L128.949 362.69L127.489 360.36L127.479 359.46L128.049 358.24L129.929 357.84L133.589 358.88L134.399 360.21L134.419 357.93L133.709 356.79L134.659 356.01L133.469 352.91L134.329 353.09L135.859 347.75L135.299 341.94L137.019 339.18L140.069 337.73L139.789 336.48L141.429 335.8L141.719 335.07L138.939 333.27L130.839 330.97L126.809 331.72L122.449 330.34L119.639 330.61L115.479 329.61H114.189L110.189 334.86L107.709 328.01L103.759 328.59L105.699 340.29L105.059 340.55L105.799 342.86L98.0994 341.75L96.1494 341.98L97.1594 342.8L94.7194 345.27L95.7694 345.6L94.7194 346.68L90.9594 346.11L90.0194 345.27L89.3694 345.96L87.4994 345.37L77.0094 345.22L75.4294 344.62L82.4394 344.82L85.3894 344.22L86.4394 343.82L86.9194 342.61L86.8794 341.67L86.1094 341.01L83.5694 340.79L79.9794 341.63L78.7794 341.17L78.4894 342.86L76.2494 341.17L75.7194 341.55L74.3494 340.84L73.9494 341.33L72.7394 340.84L71.7294 341.84L70.8594 339.71L71.7394 338.04L72.9694 337.65L73.3394 336.84L72.3594 335.59L72.4194 333.61L70.9794 330.73L70.8994 326.03L71.4294 325.25L72.8994 325.19L73.7194 324.31L75.8494 324.15L76.2194 321.75L79.8494 319.47L79.2494 317.71L80.3694 316.82L81.5994 316.38L82.4094 317.04L83.5494 317L83.3694 319.56L84.5794 319.75L84.5194 320.94L85.3794 321.23L87.1594 324.31L87.8994 328.38L90.1094 330.88L92.3094 331.92L93.2594 333.27L93.5794 332.08L96.7094 328.18L97.9694 324.93L100.049 323.35L101.539 323.62L103.369 322.82L107.349 319.33L108.179 319.68L109.869 319.26L113.079 317.42L113.819 315.79L115.249 315.24L138.099 312.32L139.039 316.43L138.689 317.56L142.849 315.41L144.219 314.02L147.429 314.23L150.079 313.74L153.089 314.54L154.929 314.37L156.689 312.66L157.699 312.52L159.129 313.3L160.649 312.69L162.829 310.17L167.119 314.95Z" fill="#CCCCCC" stroke="white" stroke-width="0.5"/>
<path d="M111.588 387.52L110.828 384.06L111.368 383.14L112.848 382.74L114.648 378.7L114.388 377.62L115.018 375.38L114.308 372.61L115.488 371.02L115.608 369.98L113.798 366.76L114.198 362.36L114.468 361.68L115.428 361.87L116.258 360.4L115.818 358.17L116.778 356.81L116.688 354.62L113.898 350.92L112.618 350.53L113.628 349.9L113.828 348.2L112.808 346.8L110.138 345.9L109.358 346.29L108.598 345.16L103.388 343.38L97.1584 342.8L96.1484 341.98L98.0984 341.75L105.798 342.86L105.058 340.55L105.698 340.29L103.758 328.59L107.708 328.01L110.188 334.86L114.188 329.61H115.478L119.638 330.61L122.448 330.34L126.808 331.72L130.838 330.97L138.938 333.27L141.718 335.07L141.428 335.8L139.788 336.48L140.068 337.73L137.018 339.18L135.298 341.94L135.858 347.75L134.328 353.09L133.468 352.91L134.658 356.01L133.708 356.79L134.418 357.93L134.398 360.21L133.588 358.88L129.928 357.84L128.048 358.24L127.478 359.46L127.488 360.36L128.948 362.69L127.258 363.02L127.958 364.01L127.348 366.15L129.438 365.96L130.898 367.04L132.348 367.26L132.108 367.76L128.438 368.92L124.408 368.11L123.218 374.83L125.018 376.76L124.758 379.61L123.558 381.22L124.268 385.4L125.058 385.77L123.148 385.99L121.478 384.99L120.208 386.07L116.768 387.19L115.708 386.72L114.608 387.56L113.518 387.09L112.518 388.04L111.588 387.52Z" fill="#CCCCCC" stroke="white" stroke-width="0.5"/>
<path d="M239.56 443.2L243.73 443.06L246.44 444.05L248.65 443.7L251.1 440.78L253.41 441.35L253.88 442.79L255.44 444.53L258.42 446.11L259.09 448.05L257.83 450.35L257.9 452.18L259.04 452.98L259.2 453.8L257.89 456.35L257.19 460.08L256.98 465.22L255.52 471.2L255.94 473.13L255.26 475.84L255.58 477.38L253.09 480.42L252.42 485.68L252.78 487.66L250.61 491.21L250.99 493.53L249.61 496.04L249.02 498.42L249.37 499.73L250.72 500.23L252.29 499.58L255.8 500.81L256.64 500.6L257.29 499.58L258.7 499.43L261.38 496.01L262.27 493.84L265.72 490.83L267.59 486.65L268.97 484.92L268.26 483.25L268.98 482.63L268.31 482.09L268.53 481L267.84 480.62L269.59 479.57L271.54 479.77L272.61 478.49L273.69 472.08L276.26 467.75L276.94 467.95L277.92 467.28L278.42 467.37L278.48 469.8L277.82 473.11L279.73 474.36L282.52 474.99L284.33 476.75L283.42 479.96L284.23 481.18L284.09 482.29L282.27 484.36L282.85 485.91L283.49 486.39L286.01 485.91L285.88 489.33L294.37 492.07L298.58 491.96L299.23 492.48L299.98 496.04L303.41 496.83L303.93 498.31L303.98 498.97L301.93 499.54L300.73 502.17L295.36 505.55L297.3 507.92L298.64 508.62L298.84 509.21L297.5 510.76L298.86 511.47L298.78 512.83L300.42 517.1L294.37 518.11L293.11 521.11L292.84 528.02L292.11 530.62L290.38 531.08L288.15 534.26L287.19 539.49L285.37 543.57L284.92 543.95L283.9 543.63L283.53 545.41L281.68 547.32L281.12 549.5L280.23 549.76L279.2 551.66L278.54 556.25L275.92 557.68L275.44 559.66L276.21 562.65L275.92 563.81L274.55 565.15L273.01 568.34L270.88 570.04L270.41 571.17L267.2 568.33L264.73 562.45L263.45 562.41L263.23 561.31L262.11 560.54L259.11 561.95L254.77 558.44L254.17 560.68L253.15 561.36L252.18 563.48L249.87 564.25L248.27 563.46L246.45 574.4L245.73 576.37L243.52 578.53L243.46 579.19L241.57 578.91L240.46 577.96L234.24 579.01L231.91 581.37L229.76 582.03L226.2 580.51L224.93 581.63L224.3 583.14L222.27 583.08L221.11 584.32L219.47 584.38L218.52 585.83L218.13 587.89L217.51 588.04L217.46 589.51L216.61 590.03L216.73 590.67L214.23 594.18L214.39 594.72L212.62 596.19L210.93 600.28L209.3 601.71L208.23 601.4L207.9 602.32L207.2 602.54L206.62 604.67L204.14 605.2L201.39 608.06L198.14 608.18L196.03 607.42L195.56 607.78L195.91 608.47L194.83 609.35L191.68 608.78L189.44 609.94L189.11 610.69L185.08 608.99L181.91 611.25L179.65 612.12L178.51 614.88L178.83 617.46L179.38 617.78L178.5 620.5L172.43 616.85L169.24 612.41L169.56 609.5L169.03 605.04L164.72 596.13L164.33 593.09L163.1 591.48L162.46 588.49L161.16 586.58L158.26 584.07L156.93 579.94L153.95 578.4L152.39 571.5L150.08 569.04L147.4 563.27L145.74 561.6L141.91 560.09L142.29 558.76L141.84 556.2L142.7 555.16L142.88 553.3L143.46 553.4L144.93 550.62L144.67 548.8L143.38 546.75L141.77 545.49L139.88 545.37L137.78 543.93L137.53 543.18L138.13 542.22L136.21 538.04L135.78 534.39L136.25 532.82L133.71 529.37L133.13 525.54L132.59 524.75L129.96 523.5L129.09 520.55L126.85 517.3L125.52 513.82L124.65 513.18L124.05 511.5L122.4 510.74L121.25 509.09L121.87 507.28L120.99 506.13L120.81 504.39L119.92 503.84L119.27 500.93L118.13 499.74L115.92 498.69L115.15 496.87L115.07 496.07L115.8 495.21L115.55 493.15L114.68 490.71L113.49 489.42L113.02 485.37L110.28 482.12L111.58 480.67L110.79 476.73L110.01 475.53L110.28 474.59L108.81 473.02L108.58 471.87L106.62 470.72L106.34 469.86L104.16 468.98L106.33 468.88L110.86 467.53L114.06 467.58L116.17 466.79L117.69 467.36L126.89 465.83L128.66 466.81L132.68 465.81L136.14 466.66L137.71 466.34L138.19 465.45L138.47 466.71L139.65 466.57L140.58 467.61L141.39 466.43L142.81 466.62L143.5 466.02L143.71 464.55L144.77 463.34L146.53 462.35L147.54 462.62L148.73 461.54L149.53 461.73L150 463.74L151.81 464.35L152.06 463.83L155.01 464.25L156.17 463.01L156.03 462.43L157.52 462.69L158.83 460.43L160.1 462.44L161.61 462.63L162.19 461.54H163.87L164.51 460.8L164.13 459.72L164.8 458.03L163.21 456.68L162.58 454.86L163.86 451.7L164.94 451.37L165.13 450.46L167.57 450.77L168.49 450.17L169.15 448.01L170.23 447.29L169.87 445.95L171 444.09L170.68 439.4L172.02 437.24L171.94 434.69L172.84 432.38L176.64 427.66L177.25 423.13L181.23 419.35L182.5 418.85L182.84 417.8L182.22 415.14L185.16 412.41L186.66 412.67L188.18 411.88L189.24 413.43L191.77 413.56L195.29 414.97L196.27 414.35L197.12 414.67L197.6 416.88L198.67 417.43L199.52 418.92L203.7 421.34L203.98 427.7L208.7 433.51L210.39 434.23L211.46 434.07L213.49 432.36L214.45 432.46L215.3 433.33L213.87 435.19L214.94 436.83L214.8 439.35L215.46 440.29L216.7 440.26L216.35 441.23L217.17 442.54L219.64 442.73L221.61 443.91L223.59 443.76L225.32 442.72L224.32 448.65L224.79 450.36L223.61 451.86L222.7 452L223.74 455.36L220.58 460.04L222.28 465.27L226.22 463.64L229.58 460.69L230.76 460.53L232.68 458.39L233.94 455.09L235.62 453.45L236.34 450.31L237.21 449.52L237.27 447.37L238.12 447L239.56 443.2Z" fill="#CCCCCC" stroke="white" stroke-width="0.5"/>
<path d="M541.84 347.31L538.14 348.79L536.64 350.31L533.9 350.66L531.27 351.79L528.11 353.85L527.54 355.28L522.71 358.81L522.13 358.31L523.13 355.87L522.62 355.18L522.98 352.9L522.28 352.1L522.55 351.5L516.08 349.22L512.98 343.16L507.19 341.77L503.76 342.74L503.45 340.27L503.99 335.8L508.24 332.81L510.57 333.21L511.28 332.57L507.72 331.42L507.41 330.61L504.9 329.66L504.42 328.05L501.78 328.5L501.49 327.72L499.17 328.5L499.39 327.56L497.39 327.61L495.82 326.47L494.41 327.5L493.08 330.92L492.25 331.51L488.94 331.36L487.51 329.82L484.63 329.88L483.8 326.92L480.46 323.14L481.21 322.47L478.54 320.37L479.78 315.85L479.47 313.34L475.88 311.87L473.08 306.64L469.07 304.99L466.89 305.55L466.19 304.46L464.85 304.1L463.13 301.38L459.66 304.05L459.44 302.54L455.44 299.15L455.4 300.83L454.93 301.18L452.43 296.22L448.38 298.11L443.22 297.28L441.87 298.71L439.36 299.99L438.05 299.83L436.41 296.19L436.72 294.04L438.05 293.12L437.56 290.31L438.09 289.25L439.21 288.75L438.54 287.01L439.32 285.69L441.69 283.48L445.06 283.54L445.24 282.31L444.66 280.87L447.47 278.96L450.73 279.73L451.43 280.43L452.39 279.9L452.65 278.76L451.73 277.37L452.11 274.97L450.64 273.35L452.59 273.29L453.19 272.57L452.96 271.48L455.88 271.19L457.03 268.59L457.84 268.68L458.41 267.73L458.23 267.13L456.94 266.84L457.51 264.68L459.12 265.35L460.2 264.78L459.7 263.44L457.71 261.34L456.99 259L456.14 258.36L456.18 257.16L457.72 256.28L457.5 255.18L458.5 253.3L460.61 251.87L462.99 251.76L463.9 250.67L466.45 250.73L466.61 249.68L465.72 248.45L467.65 246.82L468.63 247.48L471.06 247.12L471.72 244.24L470.93 241.59L471.64 240.52L470.15 236.78L471.68 235.36L472.21 233.96L473.72 234.11L473.58 232.8L474.33 231.43L474.02 230.17L475.62 229.1L476.39 229.47L477.26 228.26L477.86 229.58L479.32 228.76L479.39 226.1L478.84 225.6L479.24 223.9L481.78 224.12L482.92 225.52L483.73 225.62L484.19 224.48L484.62 224.84L486.53 224.38L486.72 223.61L488.28 222.95L488.58 218.11L489.56 217.56L489.76 216.79L492.37 216.27L492.3 215.38L490.76 213.34L493.44 212.18L492.9 211.19L494.85 211.15L498.97 212.73L502.42 209.59L504.68 209.01L507.66 205.31L510.2 206.05L514.76 199.02L518.77 195.26L518.56 193.63L521.67 192.94L522.94 193.37L524.15 195.19L524.33 196.84L526.14 197.29L526.43 199.31L528.94 199.82L530.24 202.69L532.29 202.15L534.54 203.69L536.79 203.99L540.74 207.72L543.76 211.62L545.91 212.82L545.5 217.89L546.77 220.17L548.93 221.07L551.24 224.24L553.5 226.01L556.5 224.03L558.5 222.13L558.61 221.13L561.16 219.35L562.83 219.43L564.94 218.2L566.45 218.73L568.49 221.51L568.07 221.71L569.59 222.91L570.35 222.73L572.12 224.87L573.82 224.63L576.01 225.16L577.78 226.96L579.11 227.29L584.94 225.86L587.03 226.52L591.32 224.89L596.68 224.36L597.33 223.82L598.39 224.18L601.09 222.04L605.32 221.63L608.58 220.18L609.53 220.25L610.43 221.25L611.2 220.83L613 221.47L611.52 222.76L610.99 224.28L609.79 224.61L608.71 227.01L609.03 227.63L605.18 231.86L603.76 235.97L602 237.49L602.43 238.68L601.31 242.33L594.82 246.06L596.89 249.16L597.07 250.65L599.46 251.97L600.99 254.95L606.21 255.86L608.45 259.34L607.11 262.29L607.08 264.96L607.64 265.91L606.22 269.84L606.38 270.64L604.78 274.05L602.29 276.53L603.46 277.68L607.7 275.31L611.54 281.72L611.82 282.6L609.05 291.63L612.32 296.35L610.06 296.48L605.58 298.78L603.27 298.49L601.53 300.29L600.82 302L603.3 306.41L603.33 307.49L604.96 309.41L608.72 311.53L610.54 311.82L606.06 314.97L601.95 315.9L600.04 317.28L597.25 318.17L595.73 320.04L589.67 321.09L587.92 322.26L585.11 323.11L584.1 324.17L582.39 324.5L579.04 322.56L578.01 316.72L575.96 316.6L573.33 318.54L573.29 322.66L571.09 325.35L570.29 327.6L568.06 328.36L565.77 330.1L564.2 330.2L558.47 332.63L554.89 333.62L552.53 333.35L550.58 336.23L550.4 337.48L546.43 341.42L546.1 342.64L543.01 344.62L541.84 347.31Z" fill="#CCCCCC" stroke="white" stroke-width="0.5"/>
<path d="M143.24 163.81L144.27 164.99L143.78 165.56L143.97 166.74L145.42 167.1L147.52 166.38L150.78 171.3L150.42 175.08L152.06 177.24L151.41 178.61L152.03 181.76L153.31 184.27L155.45 186.4L154.5 188.4L154.93 190.09L155.85 190.32L157.29 192.03L157.72 196.12L159.41 197.27L161.4 200.71L159.08 203.1L158.56 208.08L157.51 207.47L157.14 207.9L156.48 207.1L152.71 208.09L149.92 207.19L148.71 207.58L145.88 209.38L142.61 210.21L142.19 211.87L140.88 213.51L139.9 213.45L138.75 214.38L137.07 214.33L136.89 216.23L136.26 217.01L135.19 216.05L133.48 216.43L132.96 215.17L133.26 214.2L132.41 213.83L132.7 212L131.59 210.68L127.36 210.29L124.54 211.87L123.34 211.6L122.46 213.33L120.03 214.49L117.71 223L117.75 224.21L119.17 226.45L118.15 227.19L117.91 228.18L116.83 229.01L116.09 228.37L114.87 228.93L113.48 227.92L108.66 231.12L106.64 230.67L105.84 229.62L104.48 229.99L103.69 231L102.44 230.66L100.97 231.1L101.1 234.5L98.77 237.73L96.44 238.83L96.75 244.56L97.82 245.58L99.65 249.6L98.49 249.58L97.5 253L98.66 260.04L96.33 261.36L94.29 261.41L92.99 260.81L91.44 262.4L89.08 261.41L86.01 261.68L84.55 261.39L82.4 259.67L84.79 259.34L84.15 257.68L85.81 257.15L86.08 255.72L84.57 253.83L85.25 253.17L85.95 253.78L85.3 252.57L86.62 250.58L85.38 250.61L85.3 249.71L83.5 248.82L83.46 247.91L85.11 247.54L84.14 246.37L84.91 245.39L80.14 241.86L80.67 240.22L78.22 239.95L77.42 238.94L78.81 237.75L78.94 236.57L76.61 236.85L75.27 234.99L73.65 235.8L72.01 235.37L69.58 235.62L68.73 235.1L68.32 235.77L67.41 235.47L65.54 233.54L64.7 231.16L62.09 231.19L61.6 229.43L62.13 228.38L59.53 225.62L58.56 226.79L57.22 227.3L56.4 227.03L55.74 225.88L57.58 222.32L55.71 218.7L56.68 217.68L55.83 216.53L56.38 214.94L54.21 213.98L53.88 212.89L53.19 213.21L52.12 212.41L52.21 211.58L51.41 210.73L50.71 211.51L48.06 210.73L47.08 208.47L44.61 207.15L43.39 205.19L41.33 205.48L38.03 203.73L37.25 202.76L36.52 202.7L35.48 203.63L34.41 203.19L33.99 202.11L32.88 202.08L30.28 195.74L30.57 192.09L32.03 189.5L31.62 187.45L30.67 185.79L29.32 186.53L28.54 185.3L26.41 184.66L25.84 183.4L23.84 183.55L23.36 182.26L24.15 181.39L22.61 180.24L23.64 178.69L23.05 177.43L22.15 177.55L20.91 176.4L21.14 174.96L20.61 173.72L19.73 172.12L18.02 171.11L17.47 168.98L16.19 168.84L14.16 170.23L10.08 171.15L8.39 169.49L6.44 169.68L4.39 168.89L2.86 167.87L1.46 165.76L1 159.13L1.71 156.23L3.32 155.39L4.77 153.44L7.04 152.27L9.73 149.21L11.48 148.71L13.54 149.25L14.64 140.76L14.33 138.91L14.8 138.77L14.37 138.31L15.23 137.18L15.67 137.53L16.27 136.11L19.13 133.03L19.01 131.51L17.59 131.07L17.16 130.13L18.07 128.95L17.43 127.15L18.91 126.96L18.79 125.9L17.99 126.09L16.48 125.24L17.07 124.37L18.03 124.59L19.41 123.89L19.72 122.24L19.57 121.75L17.94 121.78L17.32 120.51L16.13 119.94L17.03 119.11L16.62 117.78L18.04 115.11L18.8 115.14L18.83 113.69L19.72 113.85L20.95 112.94L20.54 112.91L20.42 111.63L18.56 109.78L18.8 107.36L18.07 104.72L18.39 102.84L20.07 102.23L19.98 100L21.32 97.12L24.8 97.64L27.65 94.86L29.8 93.84L31.63 93.65L32.8 95.32L36.9 94.66L38.16 95.54L39.27 95.39L39.28 96.13L40.63 96.76L41.16 97.68L42.02 97.72L42.16 99.01L43.19 99.79L45.5 97.97L46.86 98.31L47.5 97.78L46.78 96.08L48.72 94.72L49.79 94.76L49.92 93.78L50.56 93.6L51.1 95.03L51.73 94.66L52.46 95.35L54.8 94.86V96.44L56.84 97.46L56.96 98.79L57.86 98.97L58.6 99.93L58.7 101.65L61.23 101.03L61.6 100.16L62.78 99.76L63.48 100.9L62.6 101.68L66.3 102.29L68.34 101.48L70.12 103.8L71.44 103.37L72.36 104.85L73.47 105.14L73.77 107.02L74.64 106.9V105.97L75.81 104.82L77.19 106.01L78.7 105.55L78.85 104.5L80.02 105.41L80.28 104.55L81.71 104.01L82.18 104.67L82.7 103.73L83.73 105.39L84.68 104.07L87.95 102.47L88.75 102.56L89.66 104.31L92.19 103.9L92.71 104.75L94.22 105.06L95.07 106.83L98.22 109.8L104.08 111.22L106.72 113.7L108.29 113.47L109.95 115.53L109.84 116.23L111 117.36L110.95 118.66L111.87 119.5L111.77 121L109.9 123.65L109.25 125.79L109.93 126.52L111.4 126.09L112.49 127.12L113.25 129.16L114.8 130.28L116.68 129.65L116.98 133.59L116.05 134.92L116.04 135.95L116.52 137.33L117.25 137.45L117.06 140.44L117.5 141.01L113.77 143.73L111.67 144.24L111.27 145.15L113.84 146.79L112.85 150.53L114.79 150.79L115.79 152.11L116.93 151.75L116.11 154.62L117.98 156.73L119.03 160.13L118.23 161.46L117.32 161.86L117.4 163.59L119.68 165.9L120.69 168.37L120.27 170.04L121.61 171.29L120.83 173.04L122.5 172.76L123.6 175.32L125.38 174.76L125.27 172.75L126.47 172.53L128.06 169.47L129.39 168.99L129.66 168.34L131.77 167.65L132.02 168.63L133.09 169.42L135.68 167.08L137.26 166.95L139.41 165.15L143.24 163.81Z" fill="#CCCCCC" stroke="white" stroke-width="0.5"/>
<path d="M307.071 256.94L306.721 259.88L305.151 260.19L303.291 262.19L302.641 266.5L303.441 267.66L302.401 269.05L301.531 268.71L300.791 270.54L301.461 271.45L300.451 271.83L297.571 275.71L297.921 277.5L299.041 277.82L298.281 279.12L299.341 281.82L298.991 283.28L299.671 286.59L302.341 287.82L303.001 287.52L303.681 288.46L304.541 288.21L304.681 288.61L305.951 287.72L306.521 288.08L308.461 286.6L308.251 285.86L309.661 285.42L310.681 284.39L311.591 282.5L313.261 282.99L312.751 280.94L313.591 279.61L318.701 280.74L319.671 283.47L320.151 283.07L319.871 284.03L321.641 286.87L323.361 288.36L325.061 292.47L329.531 296.17L330.661 295.75L330.131 296.94L330.311 299.2L331.631 301.84L333.311 301.52L336.021 302.03L336.321 302.25L335.491 303L337.741 305.1L339.351 305.67L338.151 305.9L337.151 307.56L338.281 307.96L338.411 309.07L338.971 308.36L341.161 310.53L340.961 311.48L340.041 311.73L340.031 312.61L339.051 312.7L338.921 313.28L339.171 314.25L340.471 314.59L340.131 317.46L339.541 317.88L340.321 319.26L339.261 321.57L340.511 323.39L339.961 323.15L336.041 326.04L336.181 327.3L333.451 329.29L333.531 330.58L332.691 330.85L331.911 329.87L331.671 332.03L332.511 334.81L331.321 336.66L331.231 338.86L330.671 339.79L329.381 339.65L328.841 342.97L326.771 342.22L325.531 344.32L326.651 346.56L329.501 347.59L329.751 349.09L332.371 349.81L332.701 350.95L334.311 352.34L334.361 353.11L335.211 353.03L335.031 356.68L336.201 357.85L339.231 357.1L339.101 355.73L338.131 355.58L338.351 355.25L341.071 352.9L345.571 350.69L345.471 351.87L347.021 351.88L347.081 352.79L346.491 353.24L347.141 353.52L346.911 355.13L347.851 355.59L347.541 356.92L350.611 358.6L350.261 360.78L350.911 362.31L351.941 362.23L352.241 363.44L353.321 363.9L353.561 364.94L358.031 368.03L358.511 370.22L359.071 370.45L358.221 371.94L357.441 372.06L355.381 373.99L353.731 377.74L354.021 378.7L353.131 381.03L353.541 381.87L351.921 382.73L350.821 384.61L350.341 384.32L349.801 384.91L353.771 390.77L354.401 393.78L354.111 395.35L355.401 397.28L354.851 398.12L355.111 398.62L357.141 399.97L359.461 402.9L360.001 405.04L358.451 406.05L358.971 406.13L358.501 408.39L359.371 410.04L359.301 411.11L360.441 412.28L360.671 413.87L363.781 417.39L363.071 419.85L364.281 422.03L365.511 422.24L365.101 423.41L366.231 423.76L365.931 427.61L366.441 429.12L364.281 432.05L364.461 432.85L363.831 433.74L364.231 436.69L363.831 437.26L364.341 438.08L362.151 441.42L362.461 447.09L358.511 449.14L356.921 453L355.321 454.1L355.451 455.38L354.131 455.89L353.631 458.24L351.511 459.87L351.761 460.66L351.091 461.79L348.421 462.31L347.171 461.66L345.161 462.54L342.541 462.39L342.471 463.44L341.761 464.08L339.231 464.66L338.431 465.67L332.601 466.67L328.951 469.65L328.781 471.56L326.231 473.25L323.071 476.56L323.391 477.89L325.681 478.55L331.021 481.75L330.791 482.89L328.551 484.13L325.861 484.1L322.151 486.62L319.451 487.2L318.961 487.9L317.891 487.81L316.641 489.06L315.081 488.95L314.871 489.8L314.171 490L313.741 492.11L314.291 492.81L312.851 494.13L312.631 495.48L310.671 498.06L314.131 501.13L313.701 504.34L314.461 505.15L313.371 506.41L312.181 506.42L310.221 504.86L308.631 505.3L306.921 504.44L304.311 500.54L304.481 498.4L303.931 498.31L303.411 496.83L299.981 496.04L299.231 492.48L298.581 491.96L294.371 492.07L285.881 489.33L286.011 485.91L283.491 486.39L282.851 485.91L282.271 484.36L284.091 482.29L284.231 481.18L283.421 479.96L284.331 476.75L282.521 474.99L279.731 474.36L277.821 473.11L278.481 469.8L278.421 467.37L277.921 467.28L276.941 467.95L276.261 467.75L273.691 472.08L272.611 478.49L271.541 479.77L269.591 479.57L267.841 480.62L268.531 481L268.311 482.09L268.981 482.63L268.261 483.25L268.971 484.92L267.591 486.65L265.721 490.83L262.271 493.84L261.381 496.01L258.701 499.43L257.291 499.58L256.641 500.6L255.801 500.81L252.291 499.58L250.721 500.23L249.371 499.73L249.021 498.42L249.611 496.04L250.991 493.53L250.611 491.21L252.781 487.66L252.421 485.68L253.091 480.42L255.581 477.38L255.261 475.84L255.941 473.13L255.521 471.2L256.981 465.22L257.191 460.08L257.891 456.35L259.201 453.8L259.041 452.98L257.901 452.18L257.831 450.35L259.091 448.05L258.421 446.11L255.441 444.53L253.881 442.79L253.411 441.35L251.101 440.78L248.651 443.7L246.441 444.05L243.731 443.06L239.561 443.2L238.301 441.44L238.501 440.61L240.411 438.79L242.261 438L244.771 434.34L247.471 432.54L248.581 432.85L249.801 431.99L250.661 432.39L253.361 431.71L254.951 432.21L256.011 431.65L257.911 432.44L258.041 431.7L259.461 431.04L259.931 432.26L261.141 431.78L263.081 434.36L266.671 434.59L267.071 431.81L264.471 430.67L264.431 428.06L262.821 427.29L262.451 426.53L263.061 426.05L262.941 425.37L262.491 425.34L261.651 421.65L260.861 421.67L260.461 420.46L261.021 419.27L259.591 418.37L258.471 416.09L257.721 415.77L255.451 412.49L256.171 407.72L257.661 406.25L258.611 406.19L258.961 404.4L261.821 404.55L261.771 403.48L262.821 402.75L262.581 402.05L263.661 402.36L264.021 401.81L263.561 401.2L264.461 400.82L265.291 401.48L267.141 400.04L272.991 402.23L273.071 401.65L274.751 400.6L276.321 401.01L277.051 400.43L278.791 400.64L278.931 399L281.711 397.26L281.351 397.33L282.371 395.27L282.271 392.72L282.921 390.38L282.471 389.51L282.681 387.29L284.541 387.2L283.681 386.26L284.301 385.3L283.001 385.01L283.241 383.71L282.441 382.81L284.111 381.3L283.661 379.17L284.241 379L284.311 377.68L285.961 377.37L284.231 376.14L284.121 375.75L285.501 375.45L284.211 374.36L285.501 373.33L283.121 371.22L283.131 370.45L284.741 367.98L284.541 366.63L285.491 366.24L285.041 365.35L285.381 363.59L286.551 362.67L288.121 362.9L289.061 362.45L289.301 362.88L290.371 361.36L289.791 360.65L288.141 360.23L289.941 359.26L289.411 357.14L283.941 354.72L284.411 353.67L282.721 352.55L282.561 351.8L280.301 351.53L279.141 352.33L278.171 351.24L276.031 351.22L274.031 348.88L274.691 346.8L276.411 346.6L277.191 345.19L276.941 344.32L278.151 343.74L277.991 341.99L278.821 341.73L278.481 341.33L278.891 340.68L275.301 337.44L275.361 336.41L271.671 334.26L271.311 333.4L271.701 332.5L270.791 330.32L265.461 330.42L264.191 327.13L263.431 326.49L261.231 326.94L260.011 326.23L258.991 323.15L261.601 320.59L261.541 320.03L264.361 318.32L265.521 316.31L268.801 313.29L268.871 311.85L269.981 309.63L271.361 309.19L271.531 308.34L274.551 306.28L276.331 307.09L276.511 306.3L277.181 306.56L278.041 306.04L279.371 306.59L280.671 306.38L282.101 305.75L282.691 304.86L277.951 301.95L273.001 301.29L268.271 295.34L268.501 292.78L269.781 288.13L275.401 283.49L278.991 279.02L281.971 277.73L282.431 275.64L282.331 269.7L280.451 270.28L276.941 267.85L274.821 267.36L274.571 265.64L273.801 265.26L273.001 263.32L273.041 260.31L275.501 258.83L280.771 251.84L282.791 250.68L284.041 248.77L286.171 248.37L292.031 247.52L294.701 248.85L295.401 249.85L298.481 250L300.971 253.17L302.611 256.85L305.241 256.09L305.781 256.83L307.071 256.94Z" fill="#CCCCCC" stroke="white" stroke-width="0.5"/>
<path d="M454.912 16.01L455.672 26.62L458.842 32.23L458.992 35.04L461.182 37.17L462.962 44.43L467.332 48.46L469.482 52.68L469.032 57.39L463.432 62.96L464.192 67.73L469.982 73.41L467.012 77.97L466.522 79.77L466.762 81.6L467.792 83.76L466.282 89.93L464.132 94.72L462.842 96L460.312 95.77L455.992 96.46L452.332 95.79L450.172 96.39L446.502 101L445.442 104.86L444.392 106.38L443.162 107.26L440.352 106.48L438.182 107.42L435.332 113.05L432.422 115.07L431.422 116.88L427.902 119.88L423.872 126.18L421.182 127L418.782 121.98L414.212 122.7L407.582 125.38L404.252 128.23L403.152 127.78L394.562 136.23L391.502 138.23L388.372 141.48L385.072 140.47L382.872 138.35L380.642 138.67L378.572 144.11L374.712 148.2L374.822 150.97L370.972 155.82L367.932 155.51L364.822 152.76L363.832 152.68L357.242 156.85L354.192 157.2L352.152 156.78L352.652 153.79L351.292 152.36L350.282 149.72L348.702 149.16L347.862 147.83L349.192 145.65L348.882 144.88L347.802 143.65L345.022 142.9L338.902 138.18L334.912 135.89L335.252 135.23L337.292 134.58L338.392 132.5L334.202 127.16L333.692 126.19L334.072 125.45L330.842 126.54L330.852 123.46L330.012 122.38L326.472 120.91L323.332 120.43L322.412 118.75L319.682 116.84L314.692 114.98L309.532 115.8L308.752 114.72L310.332 110.24L309.922 109.25L308.522 108.58L307.892 107.56L308.722 104.12L308.392 99.44L308.922 93.06L308.282 90.52L306.872 89.2L307.232 88.53L305.612 85.29L305.352 82.61L306.672 81.08L307.152 79.45L308.232 78.7L308.172 76.96L309.842 74.72L310.212 71.95L309.762 70.24L310.612 69.83L311.272 68.52L311.032 67.51L312.532 63.19L315.282 62.24L317.022 60.07L319.492 60.04L320.792 58.87L321.152 55.81L320.492 54.23L321.732 50.96L320.942 49.6L321.022 48.21L320.122 47.16L320.822 45.99L319.122 42.7L318.642 38.97L318.962 35.6L316.632 29.9L316.542 27.3L315.172 24.08L313.062 21.99L312.802 20.97L313.082 18.81L317.202 14.09L316.702 10.84L316.972 7.48997L317.952 6.84998L325.612 9.53997L331.012 12.35L337.472 12.15L341.942 13.83L345.762 16.72L348.412 20.07L352.862 28.81L363.492 38.28L367.532 39.57L373.172 42.86L375.292 43.24L378.492 42.83L381.342 41.32L383.322 41.29L386.822 39.49L391.062 40.65L392.562 40.01L396.502 34.38L397.482 29.93L397.082 28.36L397.542 26.59L399.772 26.21L402.202 24.93L402.612 20.95L403.842 19.73L404.232 16.2L405.782 14.28L408.432 14.47L410.122 16.28L412.692 17.62L413.942 18.87L414.622 21.36L415.412 21.79L423.652 22.63L429.452 22.06L454.912 16.01Z" fill="#CCCCCC" stroke="white" stroke-width="0.5"/>
<path d="M447.47 278.96L444.66 280.87L445.24 282.31L445.06 283.54L441.69 283.48L439.32 285.69L438.54 287.01L439.21 288.75L438.09 289.25L437.56 290.31L435.98 290.23L433.55 292.16L430.94 291.23L430.55 292.24L430.8 295.84L427.36 296.63L423.41 300.63L420.89 302L418.31 305.52L417.11 305.98L417.04 308.21L415.28 308.76L413.54 310.83L414.48 311.88L413.96 313.41L413.2 313.38L412.64 314.8L408.05 319.85L409.22 321.62L409.73 324.44L407.47 325.29L407.09 324.58L406.62 324.98L405.98 324.09L403.76 323.36L403.36 323.77L404.15 326.13L404.09 328.19L402.48 329.12L402.09 329.97L401.49 329.14L399.95 328.75L398.83 330.14L397.61 330.11L395.64 332L396.41 333.86L396.51 335.7L396.03 336.04L394.51 335.45L394.3 335.99L390.97 336.57L389.99 335.97L389.42 333.83L386.35 333.62L386.1 335.05L387.19 335.93L388.3 335.72L388.55 336.83L387.88 337.33L384.62 336.85L384.15 337.75L384.78 339.17L384.54 340.05L382.04 338.18L380.49 338.21L380.06 337.74L379.68 338.86L376.47 340.58L375.86 340.48L375.4 339.24L374.47 339.54L374.7 341.01L373.56 342.3L369.95 339.57L368.17 340.34L366.24 339.86L367.26 340.85L366.07 342.99L365.18 342.08L362.86 341.5L360.92 342.85L359.25 342.39L357.11 344.13L352.19 344.6L351.92 343.63L350.98 343.73L351.42 344.56L350.61 346.29L350.75 348.12L349.25 348.63L347.22 347.6L346.81 350.22L345.57 350.69L341.07 352.9L338.35 355.25L338.13 355.58L339.1 355.73L339.23 357.1L336.2 357.85L335.03 356.68L335.21 353.03L334.36 353.11L334.31 352.34L332.7 350.95L332.37 349.81L329.75 349.09L329.5 347.59L326.65 346.56L325.53 344.32L326.77 342.22L328.84 342.97L329.38 339.65L330.67 339.79L331.23 338.86L331.32 336.66L332.51 334.81L331.67 332.03L331.91 329.87L332.69 330.85L333.53 330.58L333.45 329.29L336.18 327.3L336.04 326.04L339.96 323.15L340.51 323.39L339.26 321.57L340.32 319.26L339.54 317.88L340.13 317.46L340.47 314.59L339.17 314.25L338.92 313.28L339.05 312.7L340.03 312.61L340.04 311.73L340.96 311.48L341.16 310.53L338.97 308.36L338.41 309.07L338.28 307.96L337.15 307.56L338.15 305.9L339.35 305.67L337.74 305.1L335.49 303L336.32 302.25L336.02 302.03L333.31 301.52L331.63 301.84L330.31 299.2L330.13 296.94L330.66 295.75L329.53 296.17L325.06 292.47L323.36 288.36L321.64 286.87L319.87 284.03L320.15 283.07L319.67 283.47L318.7 280.74L313.59 279.61L312.75 280.94L313.26 282.99L311.59 282.5L310.68 284.39L309.66 285.42L308.25 285.86L308.46 286.6L306.52 288.08L305.95 287.72L304.68 288.61L304.54 288.21L303.68 288.46L303 287.52L302.34 287.82L299.67 286.59L298.99 283.28L299.34 281.82L298.28 279.12L299.04 277.82L297.92 277.5L297.57 275.71L300.45 271.83L301.46 271.45L300.79 270.54L301.53 268.71L302.4 269.05L303.44 267.66L302.64 266.5L303.29 262.19L305.15 260.19L306.72 259.88L307.07 256.94L307.64 257.04L308.18 256.05L309.55 255.33L311.47 254.84L311.55 252.22L310.46 249.98L311.75 247.99L312.19 248.25L314.8 246.95L318.47 247.62L320.96 246.07L321.14 244.08L323.66 239.92L324.3 237.35L326.72 234.23L326.82 231.99L328.03 230.77L331.16 229.64L334.26 227.32L336.87 223.48L338.44 223.16L340.62 224.43L343.19 224.64L344.79 224.29L347.98 221.46L353.74 222.38L355.21 221.82L358.18 221.91L361.57 220.45L365.03 217.17L372.01 212.4L377.73 210.53L380.98 208.32L384.02 205.63L386.53 201.9L390.12 198.01L403.03 196.67L407.06 199.39L409.24 199.53L410.28 200.65L412.67 201.65L414.51 204.97L417.04 206.47L419.36 209.39L420.53 209.84L423.76 214.54L424.09 216.15L423.32 217.1L423.04 220.3L423.64 224.59L422.76 227.54L423.6 230.34L422.05 237.31L422.85 238.71L420.73 243.57L420.7 245.9L417.03 249.88L416.54 251.58L413.93 255.33L413.72 257.49L410.64 260.59L408.24 265.39L408.03 266.49L408.73 268.24L411.22 270.06L411.36 272.56L413.04 274L414 274.05L414.17 273.6L415.7 274.22L416.81 275.01L418.54 278.01L421.21 278.21L421.91 279.09L424.6 278.77L428.67 276.08L431.42 275.25L433.26 275.27L435.92 276.54L435.96 278.85L437.84 279.68L439.09 279.64L441.97 277.18L443.21 277.3L444.47 276.32L447.47 278.96Z" fill="#CCCCCC" stroke="white" stroke-width="0.5"/>
<path d="M222.192 159.43L221.042 160.54L220.592 160.33L219.162 163.39L220.572 167.6L219.822 172.07L219.082 173.17L215.172 171.57L215.132 172.45L213.212 173.7L211.402 176.91L211.292 178.07L215.262 182.82L215.762 184.82L218.522 184.35L220.852 186.25L221.852 185.89L223.332 186.61L225.082 186.39L225.832 187.98L226.382 188.06L228.272 187.95L228.962 186.92L229.452 187.22L231.292 186.49L231.302 187.25L232.072 187.62L233.162 187.14L232.572 189.74L233.962 191.69L235.452 191.77L236.762 197.8L235.202 198.32L234.052 200.06L233.672 203.67L238.872 207.64L242.802 206.21L243.702 204.25L245.562 203.63L249.082 199.64L248.412 201.64L248.972 202.63L251.812 203.93L251.202 214.83L252.832 215.72L255.832 221.26L259.712 223.32L265.112 228L265.622 230.29L264.672 233.08L266.292 233.85L271.372 233.16L275.092 231.76L277.102 230.3L279.282 230.7L280.932 232.67L285.882 231.47L288.472 230.09L291.772 229.97L290.362 231.5L289.572 233.98L288.252 234.76L287.742 237.33L288.092 238.54L286.952 241L287.022 245.18L285.962 246.3L286.172 248.37L284.042 248.77L282.792 250.68L280.772 251.84L275.502 258.83L273.042 260.31L273.002 263.32L273.802 265.26L274.572 265.64L274.822 267.36L276.942 267.85L280.452 270.28L282.332 269.7L282.432 275.64L281.972 277.73L278.992 279.02L275.402 283.49L269.782 288.13L268.502 292.78L265.432 291.34L261.272 291.55L252.992 297.3L252.422 297.55L251.902 296.19L251.122 296.32L249.922 297.26L248.812 302.03L246.912 303.18L244.232 303.42L242.542 301.21L236.042 299.49L235.812 298.47L234.122 297.61L232.932 294.19L230.172 289.65L227.612 287.94L225.982 285.75L224.752 285.3L223.992 282.51L224.162 280.68L224.952 279.84L224.182 279.16L221.832 279.65L221.312 280.43L219.872 280.37L219.202 281.29L216.652 282.47L215.282 282.12L214.602 283.34L213.932 282.9L209.052 283.16L208.922 281.84L207.302 281.55L205.822 278.73L204.462 277.64L204.162 276.38L195.092 275.29L191.742 270.15L191.002 265.07L190.082 265.5L186.932 264.18L184.422 264.27L182.232 263.59L183.852 258.41L183.072 256.3L184.292 254.68L184.312 252.86L180.772 247.72L181.322 246.51L180.602 244.25L179.192 243.93L179.112 243.16L178.402 242.86L179.372 242.07L179.802 239.96L178.832 239.68L178.662 238.73L177.052 237.27L177.432 236.62L175.452 234.52L175.352 232.94L174.522 232.03L173.912 228.84L172.902 226.99L173.752 224.97L172.612 222.67L172.602 221.17L171.942 219.56L170.822 219.02L170.182 215.63L169.162 213.95L169.622 211.05L168.672 209.69L170.512 204.22L169.452 203.05L168.072 202.88L167.722 201.05L166.952 200.38L166.002 200.24L164.612 200.97L161.402 200.71L159.412 197.27L157.722 196.12L157.292 192.03L155.852 190.32L154.932 190.09L154.502 188.4L155.452 186.4L153.312 184.27L152.032 181.76L151.412 178.61L152.062 177.24L150.422 175.08L150.782 171.3L147.522 166.38L145.422 167.1L143.972 166.74L143.782 165.56L144.272 164.99L143.242 163.81L143.762 162.63L145.582 161.45L146.892 162.01L149.182 161.52L150.172 162.35L152.182 162.45L152.192 163.68L154.682 165.66L156.632 164.69L157.682 165.31L158.152 164.6L158.802 165.03L160.822 162.76L161.752 162.79L163.282 164.77L166.342 166.27L168.552 168.49L168.902 169.6L170.722 169.96L171.812 171.58L173.742 172.07L177.802 171.26L180.282 171.92L179.942 168.54L180.592 167.83L183.432 168.06L187.002 166.35L190.722 166.05L193.162 164.03L195.262 163.15L195.912 163.16L196.452 164.8L197.152 164.39L198.232 164.74L198.522 164.21L199.812 164.67L201.402 164.36L203.482 165.86L206.182 163.87L207.202 164.21L209.132 163.36L212.332 158.54L215.332 157.95L218.952 158.14L222.192 159.43Z" fill="#CCCCCC" stroke="white" stroke-width="0.5"/>
<path d="M270.41 571.17L271.45 571.91L271.02 572.8L271.63 574.6L273.58 575.37L273.2 576.45L270.99 577.96L270 581.57L271.48 581.82L272.26 582.64L271.93 584.05L275.54 584.84L277.17 583.78L277.72 584.3L280.4 584.27L279.33 583.34L279.54 582.88L281.03 583.54L281.51 582.26L282.32 582.34L283.27 583.69L285.02 582.28L287.07 582.52L287.1 581.61L288.68 581.05L289.41 582.52L288.66 583.12L289.8 583.43L289.01 584.37L291.8 584.82L291.33 585.84L292.81 586.45L292.15 587.74L292.88 588.2L292.96 587.61L293.56 587.94L293.7 589.08L294.74 589.28L294.39 588.92L296.76 587.94L297.36 588L297.17 588.38L298.09 588.11L300.01 586.38L300.66 587.11L299.96 587.73L301.09 588.87L300.77 589.31L302.1 589.67L301.94 588.77L302.5 588.52L302.11 587.49L303.63 587.97L304.3 587.62L304.03 585.96L306.25 585.07L307.15 585.7L308.6 585.18L310 585.46L311.04 584.09L313 585.13L312.56 586.18L313.72 586.68L313.94 589.43L316.69 588.5L318.38 588.91L321.01 586.24L322.09 585.81L323.24 587.47L324.15 587.51L324.44 585.98L324.92 585.88L325.95 587.14L327.38 586.93L330.19 585.45L330.73 582.96L331.56 583.3L332.67 582.57L333.71 583.2L334.2 582.12L337.78 580.01L337.19 579.03L337.49 578.34L339.1 577.72L341.18 578.26L343.98 577.23L344.05 576.58L345.5 576.74L345.22 577.75L346.83 578.7L347.96 577.87L348.79 578.77L350.11 577.95L351.95 578.51L355.27 577.77L358.56 578.3L358.88 578.81L359.89 578.58L364.29 580.92L366.13 580.22L366.61 580.68L371.78 577.64L373.51 575.21L375.84 574.03L376.12 572.74L377.37 572.56L380.14 570.65L381.12 571.1L383.47 570.82L385.45 572.57L386.14 574.17L388.07 574.66L390.06 577.48L391.33 577.45L394.13 574.1L394.83 574.54L395.14 575.27L393.81 576.28L394.03 578.4L392.25 581.12L392.88 582.07L392.28 582.67L392.51 583.16L391.89 583.4L391.65 584.36L390.97 584.41L390.46 586.24L391.13 585.85L391.33 586.62L389.97 588.25L388.45 588.65L388.21 590.26L387.76 590.15L386.28 591.69L386 592.88L385.17 593.08L385.42 593.77L384.26 595.47L381.16 596.73L381.13 597.49L377.83 599.38L377.49 600.25L375.89 601.18L375.83 601.83L374.92 601.15L373.47 602.32L372.6 602.23L372.71 602.71L372.06 602.9L372.73 603.25L372.64 603.89L370.82 604.11L370.39 603.35L369.67 605.45L369.12 605.41L369.04 607L367.66 607.92L366.03 607.52L363.13 609.41L363.03 610.01L360.02 610.35L359.38 611.78L357.64 612.97L357.36 614.47L356.58 614.28L356.91 616.37L355.43 617.57L355.87 618.9L354.98 620.45L355.13 622.04L352.55 623.71L351.96 626.83L350.48 629.12L350.63 630.54L349.2 630.95L350.04 632.24L349.83 632.9L350.5 633.38L349.62 635.7L349.83 637.15L348.62 637.55L347.47 637.08L347.29 637.75L348.81 637.94L348.22 639.18L349.24 640.12L349.7 641.38L349.08 641.61L349.6 642.21L349.28 643L348.42 643.13L347.21 641.75L346.18 642.05L347.37 643.11L346.08 645.53L346.19 646.91L345.74 646.99L346.21 648.12L345.68 648.74L343.79 648.93L341.99 647.42L342.02 648.75L340.43 649.34L339.97 650.13L339.63 648.7L338.41 648.41L336.93 648.98L337.11 650.63L336.15 651.42L333.66 649.93L332.94 650.03L333.05 650.99L332.28 651.72L332.09 654.98L331.29 656.24L330.35 656.13L329.86 654.14L328.96 655.5L328.99 657.12L328.27 656.8L327.45 655.24L326.25 656.36L322.72 656.65L321.57 657.46L321.16 660.37L320.43 660.91L320.12 661.84L320.51 662.46L319.56 664.04L317.95 665.88L315.57 666.47L312.69 669.52L311.59 669.23L309.96 670.66L307.98 670.59L307.92 671.73L304.41 672.83L303.32 672.68L302.93 673L303.44 673.38L302.59 673.76L301.78 672.43L301.34 673.52L299.15 673.84L299.47 674.11L298.97 674.88L298.14 674.87L297.61 673.7L297.24 674.15L296.48 673.73L296.26 674.7L294.7 675.03L294.59 675.61L293.59 676L294 676.91L293.32 677.48L293.85 677.91L293.57 679.29L292.86 679.54L292.3 678.36L291.77 678.95L291.01 678.69L291.1 679.23L290.25 679.56L289.88 679.08L289.25 681.18L290.59 681.99L290.13 683.16L289.1 682.46L289.47 683.21L287.67 684.03L287.23 683.03L282.49 683.29L282.38 682.29L281.1 682.17L281.02 681.71L281.66 681.58L279.82 679.6L280.47 679.07L276.61 678.84L276.38 678.26L275.75 678.48L275.8 677.64L274.98 677.84L274.25 676.44L272.63 676.95L272.69 677.72L271.61 678.38L270.26 677.64L269.64 678.13L269.56 679.44L266.31 683.85L266.33 685.01L265.56 687L264.63 687.64L264.18 690L262.77 690.68L259.99 694.01L257.35 693.46L256.8 695.34L254.06 698.34L253.5 700.02L254.15 703.06L253.58 705.58L254.95 706.28L255.39 707.7L252.71 711.22L252.46 710.69L251.57 711.9L250.26 712.33L247.07 711.15L246.65 708.38L244.27 707.62L243.05 709.01L241.07 709.76L239.14 708.9L238.32 707.49L234.81 709.84L232.28 708.84L229.48 705.91L228.13 706.46L223.83 704.77L221.83 705.49L219.86 705.08L221.31 702.83L220.19 698.12L221.7 694.03L219.84 687.07L215.93 682.56L210.69 678.55L199.96 672.85L197.72 672.53L197.37 671.82L197.98 670.5L196.64 668.53L195.11 667.6L195.15 666.63L193.9 665.01L194.52 663.91L194.42 661.55L190.08 657.49L187.68 651.78L187.14 649.65L188.32 643.81L185.57 641.58L185.23 638.72L181.58 635.81L182.76 632.35L181.26 629.63L182.2 625.91L181.91 622.01L178.5 620.5L179.38 617.78L178.83 617.46L178.51 614.88L179.65 612.12L181.91 611.25L185.08 608.99L189.11 610.69L189.44 609.94L191.68 608.78L194.83 609.35L195.91 608.47L195.56 607.78L196.03 607.42L198.14 608.18L201.39 608.06L204.14 605.2L206.62 604.67L207.2 602.54L207.9 602.32L208.23 601.4L209.3 601.71L210.93 600.28L212.62 596.19L214.39 594.72L214.23 594.18L216.73 590.67L216.61 590.03L217.46 589.51L217.51 588.04L218.13 587.89L218.52 585.83L219.47 584.38L221.11 584.32L222.27 583.08L224.3 583.14L224.93 581.63L226.2 580.51L229.76 582.03L231.91 581.37L234.24 579.01L240.46 577.96L241.57 578.91L243.46 579.19L243.52 578.53L245.73 576.37L246.45 574.4L248.27 563.46L249.87 564.25L252.18 563.48L253.15 561.36L254.17 560.68L254.77 558.44L259.11 561.95L262.11 560.54L263.23 561.31L263.45 562.41L264.73 562.45L267.2 568.33L270.41 571.17Z" fill="#CCCCCC" stroke="white" stroke-width="0.5"/>
<path d="M268.497 292.78L268.267 295.34L272.997 301.29L277.947 301.95L282.687 304.86L282.097 305.75L280.667 306.38L279.367 306.59L278.037 306.04L277.177 306.56L276.507 306.3L276.327 307.09L274.547 306.28L271.527 308.34L271.357 309.19L269.977 309.63L268.867 311.85L268.797 313.29L265.517 316.31L264.357 318.32L261.537 320.03L261.597 320.59L258.987 323.15L260.007 326.23L257.717 327.21L256.597 332.38L256.737 334.51L257.667 335.41L257.297 338.52L254.797 341.14L254.997 343.09L252.897 345.41L253.237 347.4L251.547 350.31L250.707 350.49L250.097 349.14L246.127 347.14L243.687 344.84L237.817 347.36L236.377 350.48L236.617 351.82L234.417 354.83L231.987 361.54L224.437 361.78L224.047 363.29L221.677 364.46L221.537 366.03L220.617 367.68L219.117 368.5L215.867 368.38L214.867 366.8L213.427 362.69L214.797 359.63L213.007 353.67L210.657 354.1L208.687 352.41L208.657 351.19L208.007 350.56L206.487 351.58L205.797 351.21L205.627 345.27L203.637 344.73L202.217 345.5L201.037 344.66L199.517 344.84L198.237 343.42L193.277 343.09L192.357 347.42L193.307 350.17L193.237 354.11L189.437 355.45L186.947 359.64L185.937 359.63L185.857 357.99L184.957 356.81L184.127 352.29L182.967 349.48L181.207 347.23L177.157 344.07L175.987 341.34L173.517 340.02L174.547 337.04L176.457 335.78L177.557 333.87L177.437 333.1L174.907 329.66L173.767 323.84L172.107 321.67L170.907 321.62L168.927 319.42L168.847 317.37L167.117 314.95L169.377 314.78L170.877 315.43L171.517 315.08L173.577 311.16L174.597 310.24L173.757 309.82L173.947 306.73L174.477 306.81L175.377 305.7L176.557 302.01L179.517 298.55L180.127 293.92L182.557 290.22L183.357 286.52L183.067 285.18L184.547 283.89L185.887 284.22L186.597 282.89L185.587 281.25L186.207 280.53L185.727 279.76L181.187 276.17L180.777 274.94L179.487 274.89L177.607 272.57L178.317 271.87L177.697 269.28L180.957 266.32L182.227 263.59L184.417 264.27L186.927 264.18L190.077 265.5L190.997 265.07L191.737 270.15L195.087 275.29L204.157 276.38L204.457 277.64L205.817 278.73L207.297 281.55L208.917 281.84L209.047 283.16L213.927 282.9L214.597 283.34L215.277 282.12L216.647 282.47L219.197 281.29L219.867 280.37L221.307 280.43L221.827 279.65L224.177 279.16L224.947 279.84L224.157 280.68L223.987 282.51L224.747 285.3L225.977 285.75L227.607 287.94L230.167 289.65L232.927 294.19L234.117 297.61L235.807 298.47L236.037 299.49L242.537 301.21L244.227 303.42L246.907 303.18L248.807 302.03L249.917 297.26L251.117 296.32L251.897 296.19L252.417 297.55L252.987 297.3L261.267 291.55L265.427 291.34L268.497 292.78Z" fill="#CCCCCC" stroke="white" stroke-width="0.5"/>
<path d="M239.56 443.2L238.12 447L237.27 447.37L237.21 449.52L236.34 450.31L235.62 453.45L233.94 455.09L232.68 458.39L230.76 460.53L229.58 460.69L226.22 463.64L222.28 465.27L220.58 460.04L223.74 455.36L222.7 452L223.61 451.86L224.79 450.36L224.32 448.65L225.32 442.72L223.59 443.76L221.61 443.91L219.64 442.73L217.17 442.54L216.35 441.23L216.7 440.26L215.46 440.29L214.8 439.35L214.94 436.83L213.87 435.19L215.3 433.33L214.45 432.46L213.49 432.36L211.46 434.07L210.39 434.23L208.7 433.51L203.98 427.7L203.7 421.34L199.52 418.92L198.67 417.43L197.6 416.88L197.12 414.67L196.27 414.35L195.29 414.97L191.77 413.56L189.24 413.43L188.18 411.88L189 410.46L189.65 410.31L190.31 408.91L190.06 407.92L190.79 407.02L194.12 408.07L195.09 407.34L195.76 401.48L192.29 400.53L192.16 398.02L192.92 397.1L192.7 393.88L193.18 393.74L192.96 389.85L194.11 387.58L198.56 384.39L198.91 383.21L198.64 380.3L194.5 376.61L194.86 375.55L194.18 373.86L192.76 373.13L191.96 371.95L192.53 370.93L192.27 369.39L193.48 366.67L192.72 364.67L193.84 363.39L195.21 359.05L196.52 357.6L196.11 356.33L193.24 354.11L193.31 350.17L192.36 347.42L193.28 343.09L198.24 343.42L199.52 344.84L201.04 344.66L202.22 345.5L203.64 344.73L205.63 345.27L205.8 351.21L206.49 351.58L208.01 350.56L208.66 351.19L208.69 352.41L210.66 354.1L213.01 353.67L214.8 359.63L213.43 362.69L214.87 366.8L215.87 368.38L219.12 368.5L220.62 367.68L221.54 366.03L221.68 364.46L224.05 363.29L224.44 361.78L231.99 361.54L234.42 354.83L236.62 351.82L236.38 350.48L237.82 347.36L243.69 344.84L246.13 347.14L250.1 349.14L250.71 350.49L251.55 350.31L253.24 347.4L252.9 345.41L255 343.09L254.8 341.14L257.3 338.52L257.67 335.41L256.74 334.51L256.6 332.38L257.72 327.21L260.01 326.23L261.23 326.94L263.43 326.49L264.19 327.13L265.46 330.42L270.79 330.32L271.7 332.5L271.31 333.4L271.67 334.26L275.36 336.41L275.3 337.44L278.89 340.68L278.48 341.33L278.82 341.73L277.99 341.99L278.15 343.74L276.94 344.32L277.19 345.19L276.41 346.6L274.69 346.8L274.03 348.88L276.03 351.22L278.17 351.24L279.14 352.33L280.3 351.53L282.56 351.8L282.72 352.55L284.41 353.67L283.94 354.72L289.41 357.14L289.94 359.26L288.14 360.23L289.79 360.65L290.37 361.36L289.3 362.88L289.06 362.45L288.12 362.9L286.55 362.67L285.38 363.59L285.04 365.35L285.49 366.24L284.54 366.63L284.74 367.98L283.13 370.45L283.12 371.22L285.5 373.33L284.21 374.36L285.5 375.45L284.12 375.75L284.23 376.14L285.96 377.37L284.31 377.68L284.24 379L283.66 379.17L284.11 381.3L282.44 382.81L283.24 383.71L283 385.01L284.3 385.3L283.68 386.26L284.54 387.2L282.68 387.29L282.47 389.51L282.92 390.38L282.27 392.72L282.37 395.27L281.35 397.33L281.71 397.26L278.93 399L278.79 400.64L277.05 400.43L276.32 401.01L274.75 400.6L273.07 401.65L272.99 402.23L267.14 400.04L265.29 401.48L264.46 400.82L263.56 401.2L264.02 401.81L263.66 402.36L262.58 402.05L262.82 402.75L261.77 403.48L261.82 404.55L258.96 404.4L258.61 406.19L257.66 406.25L256.17 407.72L255.45 412.49L257.72 415.77L258.47 416.09L259.59 418.37L261.02 419.27L260.46 420.46L260.86 421.67L261.65 421.65L262.49 425.34L262.94 425.37L263.06 426.05L262.45 426.53L262.82 427.29L264.43 428.06L264.47 430.67L267.07 431.81L266.67 434.59L263.08 434.36L261.14 431.78L259.93 432.26L259.46 431.04L258.04 431.7L257.91 432.44L256.01 431.65L254.95 432.21L253.36 431.71L250.66 432.39L249.8 431.99L248.58 432.85L247.47 432.54L244.77 434.34L242.26 438L240.41 438.79L238.5 440.61L238.3 441.44L239.56 443.2Z" fill="#CCCCCC" stroke="white" stroke-width="0.5"/>
<path d="M492.902 211.19L493.442 212.18L490.762 213.34L492.302 215.38L492.372 216.27L489.762 216.79L489.562 217.56L488.582 218.11L488.282 222.95L486.722 223.61L486.532 224.38L484.622 224.84L484.192 224.48L483.732 225.62L482.922 225.52L481.782 224.12L479.242 223.9L478.842 225.6L479.392 226.1L479.322 228.76L477.862 229.58L477.262 228.26L476.392 229.47L475.622 229.1L474.022 230.17L474.332 231.43L473.582 232.8L473.722 234.11L472.212 233.96L471.682 235.36L470.152 236.78L471.642 240.52L470.932 241.59L471.722 244.24L471.062 247.12L468.632 247.48L467.652 246.82L465.722 248.45L466.612 249.68L466.452 250.73L463.902 250.67L462.992 251.76L460.612 251.87L458.502 253.3L457.502 255.18L457.722 256.28L456.182 257.16L456.142 258.36L456.992 259L457.712 261.34L459.702 263.44L460.202 264.78L459.122 265.35L457.512 264.68L456.942 266.84L458.232 267.13L458.412 267.73L457.842 268.68L457.032 268.59L455.882 271.19L452.962 271.48L453.192 272.57L452.592 273.29L450.642 273.35L452.112 274.97L451.732 277.37L452.652 278.76L452.392 279.9L451.432 280.43L450.732 279.73L447.472 278.96L444.472 276.32L443.212 277.3L441.972 277.18L439.092 279.64L437.842 279.68L435.962 278.85L435.922 276.54L433.262 275.27L431.422 275.25L428.672 276.08L424.602 278.77L421.912 279.09L421.212 278.21L418.542 278.01L416.812 275.01L415.702 274.22L414.172 273.6L414.002 274.05L413.042 274L411.362 272.56L411.222 270.06L408.732 268.24L408.032 266.49L408.242 265.39L410.642 260.59L413.722 257.49L413.932 255.33L416.542 251.58L417.032 249.88L420.702 245.9L420.732 243.57L422.852 238.71L422.052 237.31L423.602 230.34L422.762 227.54L423.642 224.59L423.042 220.3L423.322 217.1L424.092 216.15L423.762 214.54L420.532 209.84L419.362 209.39L417.042 206.47L414.512 204.97L412.672 201.65L410.282 200.65L409.242 199.53L407.062 199.39L403.032 196.67L390.122 198.01L389.232 196.25L390.692 193.8L389.582 192.59L389.482 191.42L390.072 190.56L389.002 189.04L387.492 188.32L388.282 187.13L392.592 185.07L393.682 182.7L395.502 182.4L395.702 181.93L394.232 180.3L392.012 179.07L386.962 178.01L382.472 175.38L380.512 177.66L377.222 179.84L376.802 181.31L370.582 175.7L372.122 174.91L371.842 173.94L371.332 173.12L369.562 172.64L368.972 169.99L366.942 169.26L366.042 168.28L365.842 166.93L364.942 166.06L366.112 163.82L365.772 163.23L358.012 158.56L357.242 156.85L363.832 152.68L364.822 152.76L367.932 155.51L370.972 155.82L374.822 150.97L374.712 148.2L378.572 144.11L380.642 138.67L382.872 138.35L385.072 140.47L388.372 141.48L391.502 138.23L394.562 136.23L403.152 127.78L404.252 128.23L407.582 125.38L414.212 122.7L418.782 121.98L421.182 127L423.872 126.18L427.902 119.88L431.422 116.88L432.422 115.07L435.332 113.05L438.182 107.42L440.352 106.48L443.162 107.26L444.392 106.38L445.442 104.86L446.502 101L450.172 96.39L452.332 95.79L455.992 96.46L460.312 95.77L462.842 96L464.132 94.72L466.282 89.93L467.792 83.76L466.762 81.6L466.522 79.77L467.012 77.97L469.982 73.41L464.192 67.73L463.432 62.96L469.032 57.39L469.482 52.68L467.332 48.46L462.962 44.43L461.182 37.17L458.992 35.04L458.842 32.23L455.672 26.62L454.912 16.01L455.312 13.89L454.932 12.78L456.442 10.54L457.302 6.49L459.672 4.41L461.142 2.14L465.332 1.73L467.202 1L471.402 5.53L471.432 6.33L472.762 5.87L473.992 7.1L476.522 7.47L478.212 4.97L481.092 3.73L483.492 3.81L484.832 4.63L485.172 6.1L483.782 8.96L484.432 10.63L483.612 12.44L484.092 13.27L487.492 14.86L487.702 17.04L487.232 18.51L487.832 19.62L489.552 20.26L491.202 19.41L492.532 19.44L494.062 23.17L495.472 23.12L497.312 25.62L500.092 27.22L500.692 30.83L504.072 32.11L508.652 32.27L511.542 35.14L509.612 38.2L510.072 39.36L509.152 41.98L507.262 43.41L506.902 45.18L505.202 46.49L505.042 48.09L503.922 50.12L504.172 52.49L503.702 55.3L502.262 56.54L499.502 65.44L495.902 69.76L495.922 71.37L492.422 71.71L491.612 73.21L492.392 78.74L492.102 82.49L490.342 83.96L489.342 87.28L487.332 88.76L486.052 92.41L483.152 95.34L482.262 97.55L478.662 102.7L476.722 108.3L475.072 110.72L473.002 112.39L471.482 114.64L470.732 116.99L470.902 117.98L474.312 122.56L476.292 121.97L478.422 122.26L481.562 125.82L483.612 126.58L486.542 124.8L488.112 123.04L493.532 120.94L498.432 118.01L500.952 115.15L504.792 114.96L505.522 114.25L506.512 114.32L506.132 116.46L507.082 118.14L505.442 121.95L505.602 123.23L504.202 123.69L504.542 125.53L503.232 125.95L502.842 127.15L502.072 126.88L501.122 127.7L500.442 127.27L500.042 129.43L498.722 128.75L498.532 130.62L496.482 132.28L496.492 133.48L494.272 134.52L491.862 137.06L489.612 134.74L488.592 134.9L487.552 136.03L486.012 136L486.112 137.55L485.362 137.31L485.512 137.93L484.802 137.83L484.882 138.9L485.952 140.18L485.372 141.26L484.712 141.17L482.282 143.34L477.602 144.37L478.122 146.92L476.312 148.15L478.682 149.85L479.912 152.07L478.322 155.12L479.172 156.52L478.192 157.5L478.432 158.37L477.762 159.23L478.182 160.55L477.362 161.33L476.832 163.65L476.372 163.67L476.172 162.64L475.142 162.92L475.952 163.64L475.382 163.96L475.822 164.88L474.982 165.4L474.912 166.62L473.442 166.1L472.542 168.01L473.292 168.83L472.822 170.92L472.202 171.4L472.662 172.82L471.232 173.11L471.492 175.61L470.722 175.47L470.412 176.76L469.142 176.68L468.492 178.02L469.432 179.32L468.632 179.24L467.032 181.76L467.122 182.55L469.292 182.05L469.332 183.51L468.152 183.77L468.882 185.18L469.572 185.37L470.042 186.85L472.682 185.12L475.662 186.96L475.962 187.83L475.382 189.03L476.372 190.18L476.662 192.92L476.142 193.92L477.132 194.95L476.642 196.33L478.292 196.78L478.902 198.27L479.502 197.9L480.402 198.45L480.792 199.71L481.422 198.91L483.252 198.46L485.012 200.21L485.412 201.86L483.342 202.54L484.292 203.31L485.452 202.53L487.002 203.28L488.622 205.82L490.502 206.73L491.172 209.8L492.902 211.19Z" fill="#CCCCCC" stroke="white" stroke-width="0.5"/>
<path d="M357.239 156.85L358.009 158.56L365.769 163.23L366.109 163.82L364.939 166.06L365.839 166.93L366.039 168.28L366.939 169.26L368.969 169.99L369.559 172.64L371.329 173.12L371.839 173.94L372.119 174.91L370.579 175.7L376.799 181.31L377.219 179.84L380.509 177.66L382.469 175.38L386.959 178.01L392.009 179.07L394.229 180.3L395.699 181.93L395.499 182.4L393.679 182.7L392.589 185.07L388.279 187.13L387.489 188.32L388.999 189.04L390.069 190.56L389.479 191.42L389.579 192.59L390.689 193.8L389.229 196.25L390.119 198.01L386.529 201.9L384.019 205.63L380.979 208.32L377.729 210.53L372.009 212.4L365.029 217.17L361.569 220.45L358.179 221.91L355.209 221.82L353.739 222.38L347.979 221.46L344.789 224.29L343.189 224.64L340.619 224.43L338.439 223.16L336.869 223.48L334.259 227.32L331.159 229.64L328.029 230.77L326.819 231.99L326.719 234.23L324.299 237.35L323.659 239.92L321.139 244.08L320.959 246.07L318.469 247.62L314.799 246.95L312.189 248.25L311.749 247.99L310.459 249.98L311.549 252.22L311.469 254.84L309.549 255.33L308.179 256.05L307.639 257.04L307.069 256.94L305.779 256.83L305.239 256.09L302.609 256.85L300.969 253.17L298.479 250L295.399 249.85L294.699 248.85L292.029 247.52L286.169 248.37L285.959 246.3L287.019 245.18L286.949 241L288.089 238.54L287.739 237.33L288.249 234.76L289.569 233.98L290.359 231.5L291.769 229.97L288.469 230.09L285.879 231.47L280.929 232.67L279.279 230.7L277.099 230.3L275.089 231.76L271.369 233.16L266.289 233.85L264.669 233.08L265.619 230.29L265.109 228L259.709 223.32L255.829 221.26L252.829 215.72L251.199 214.83L251.809 203.93L248.969 202.63L248.409 201.64L249.079 199.64L245.559 203.63L243.699 204.25L242.799 206.21L238.869 207.64L233.669 203.67L234.049 200.06L235.199 198.32L236.759 197.8L235.449 191.77L233.959 191.69L232.569 189.74L233.159 187.14L232.069 187.62L231.299 187.25L231.289 186.49L229.449 187.22L228.959 186.92L228.269 187.95L226.379 188.06L225.829 187.98L225.079 186.39L223.329 186.61L221.849 185.89L220.849 186.25L218.519 184.35L215.759 184.82L215.259 182.82L211.289 178.07L211.399 176.91L213.209 173.7L215.129 172.45L215.169 171.57L219.079 173.17L219.819 172.07L220.569 167.6L219.159 163.39L220.589 160.33L221.039 160.54L222.189 159.43L225.579 162.07L227.769 162.23L230.339 165.02L230.959 164.38L233.779 165.77L234.379 166.31L234.189 167.39L235.229 168.65L237.369 167.43L238.609 168.12L239.749 167.31L240.159 168.13L242.499 166.07L245.529 165.71L247.019 164.65L248.129 164.63L249.219 165.82L250.549 165.13L251.669 163.15L251.539 162.42L252.989 160.42L253.689 155.53L254.899 154.68L254.579 153.02L255.119 151.25L256.369 150.41L261.299 150.9L263.819 148.36L266.589 148.64L268.929 149.43L270.229 153.31L272.479 154.22L274.239 153.97L275.879 155.66L276.269 153.95L277.039 153.77L278.499 151.87L279.089 152.23L282.889 151.18L283.639 149.85L285.209 150.22L286.459 149.21L287.769 148.96L289.989 149.5L291.249 149.07L291.989 148.02L291.379 147.04L291.689 146.44L294.399 145.76L295.029 146.05L296.269 144.68L295.439 144.08L296.139 143.52L296.379 142.56L295.839 141.96L296.319 140.92L298.599 138.58L299.199 136.26L301.899 134.14L302.699 131.97L304.509 130.24L304.939 126.97L306.329 125.09L308.449 117.8L307.929 115.5L308.749 114.72L309.529 115.8L314.689 114.98L319.679 116.84L322.409 118.75L323.329 120.43L326.469 120.91L330.009 122.38L330.849 123.46L330.839 126.54L334.069 125.45L333.689 126.19L334.199 127.16L338.389 132.5L337.289 134.58L335.249 135.23L334.909 135.89L338.899 138.18L345.019 142.9L347.799 143.65L348.879 144.88L349.189 145.65L347.859 147.83L348.699 149.16L350.279 149.72L351.289 152.36L352.649 153.79L352.149 156.78L354.189 157.2L357.239 156.85Z" fill="#CCCCCC" stroke="white" stroke-width="0.5"/>
<path d="M460.71 466.79L461.01 467.92L463.5 468.88L463.85 470.97L463.29 471.48L464.42 472.87L464.37 473.91L465.61 476.04L465.55 478.85L467.22 479.76L467.55 480.53L466.99 482.9L467.46 483.06L467.48 486.43L465.89 487.63L465.6 489.49L462.99 490.82L462.15 489.83L462.81 489.5L462.77 488.59L461.21 489.04L460.9 487.98L459.27 487.67L458.71 485.81L459.37 485.02L457.53 484.61L457.47 483.94L456.08 483.58L453.13 483.54L451.61 484.22L450.64 485.46L449.55 484.69L449.94 483.93L449.34 483.55L446.68 483.07L443.47 485.44L442.93 485.22L442.81 486.51L440.96 486.67L441.25 487.75L439.08 489.93L439.66 491.73L438.89 491.9L439.7 492.6L438.78 493.22L439.15 493.85L438.15 493.89L437.98 494.59L439.22 494.9L438.22 495.91L438.66 496.93L437.88 496.78L437.77 497.6L436.67 497.77L436.81 499.41L435.92 499.35L436.44 499.71L435.64 500.21L435.98 501.25L433.83 502.3L434.63 502.73L434.94 504.33L433.89 506.49L433.04 506.78L432.36 507.9L430.49 508.59L430.48 510.51L428.34 512.24L427.73 511.45L427.5 512.3L425.79 513.4L425.96 514.25L425.17 514.21L424.09 515.33L424.07 516.05L423.4 515.76L422.64 516.62L422.06 516.02L421.5 517.18L420.54 516.47L419.81 516.96L419.52 518.15L417.86 518.06L418.24 519.3L416.6 519.2L417.72 521.98L416.82 522.85L416.99 523.37L416.35 523.48L416.22 525.62L415.44 526.01L415.64 526.86L414.73 527.99L414.46 530.72L411.16 532.3L411.5 534.12L410.14 535.28L410.33 535.98L408.47 538.04L409.43 538.75L408.94 539.01V541.78L407.74 542.15L408.13 545.37L407.56 545.19L407.2 547.18L406.55 547.86L407.07 548.1L406.92 549.02L404.63 552.61L402.59 554.46L404.15 557.53L403.93 558.32L404.65 559.06L404.28 559.37L405.45 559.83L405.51 560.58L407.87 561.02L407.26 561.81L407.59 562.44L407.12 563.33L405.91 563.42L406.29 564.39L405.48 566.03L403.57 566.59L403.04 569.29L400.72 570.95L399.63 572.61L398.96 572.41L399.42 573.27L396.58 572.69L394.83 574.54L394.13 574.1L391.33 577.45L390.06 577.48L388.07 574.66L386.14 574.17L385.45 572.57L383.47 570.82L381.12 571.1L380.14 570.65L377.37 572.56L376.12 572.74L375.84 574.03L373.51 575.21L371.78 577.64L366.61 580.68L366.13 580.22L364.29 580.92L359.89 578.58L358.88 578.81L358.56 578.3L355.27 577.77L351.95 578.51L350.11 577.95L348.79 578.77L347.96 577.87L346.83 578.7L345.22 577.75L345.5 576.74L344.05 576.58L343.98 577.23L341.18 578.26L339.1 577.72L337.49 578.34L337.19 579.03L337.78 580.01L334.2 582.12L333.71 583.2L332.67 582.57L331.56 583.3L330.73 582.96L330.19 585.45L327.38 586.93L325.95 587.14L324.92 585.88L324.44 585.98L324.15 587.51L323.24 587.47L322.09 585.81L321.01 586.24L318.38 588.91L316.69 588.5L313.94 589.43L313.72 586.68L312.56 586.18L313 585.13L311.04 584.09L310 585.46L308.6 585.18L307.15 585.7L306.25 585.07L304.03 585.96L304.3 587.62L303.63 587.97L302.11 587.49L302.5 588.52L301.94 588.77L302.1 589.67L300.77 589.31L301.09 588.87L299.96 587.73L300.66 587.11L300.01 586.38L298.09 588.11L297.17 588.38L297.36 588L296.76 587.94L294.39 588.92L294.74 589.28L293.7 589.08L293.56 587.94L292.96 587.61L292.88 588.2L292.15 587.74L292.81 586.45L291.33 585.84L291.8 584.82L289.01 584.37L289.8 583.43L288.66 583.12L289.41 582.52L288.68 581.05L287.1 581.61L287.07 582.52L285.02 582.28L283.27 583.69L282.32 582.34L281.51 582.26L281.03 583.54L279.54 582.88L279.33 583.34L280.4 584.27L277.72 584.3L277.17 583.78L275.54 584.84L271.93 584.05L272.26 582.64L271.48 581.82L270 581.57L270.99 577.96L273.2 576.45L273.58 575.37L271.63 574.6L271.02 572.8L271.45 571.91L270.41 571.17L270.88 570.04L273.01 568.34L274.55 565.15L275.92 563.81L276.21 562.65L275.44 559.66L275.92 557.68L278.54 556.25L279.2 551.66L280.23 549.76L281.12 549.5L281.68 547.32L283.53 545.41L283.9 543.63L284.92 543.95L285.37 543.57L287.19 539.49L288.15 534.26L290.38 531.08L292.11 530.62L292.84 528.02L293.11 521.11L294.37 518.11L300.42 517.1L298.78 512.83L298.86 511.47L297.5 510.76L298.84 509.21L298.64 508.62L297.3 507.92L295.36 505.55L300.73 502.17L301.93 499.54L303.98 498.97L303.93 498.31L304.48 498.4L304.31 500.54L306.92 504.44L308.63 505.3L310.22 504.86L312.18 506.42L313.37 506.41L314.46 505.15L313.7 504.34L314.13 501.13L310.67 498.06L312.63 495.48L312.85 494.13L314.29 492.81L313.74 492.11L314.17 490L314.87 489.8L315.08 488.95L316.64 489.06L317.89 487.81L318.96 487.9L319.45 487.2L322.15 486.62L325.86 484.1L328.55 484.13L330.79 482.89L331.02 481.75L325.68 478.55L323.39 477.89L323.07 476.56L326.23 473.25L328.78 471.56L328.95 469.65L332.6 466.67L338.43 465.67L339.23 464.66L341.76 464.08L342.47 463.44L342.54 462.39L345.16 462.54L347.17 461.66L348.42 462.31L351.09 461.79L351.76 460.66L351.51 459.87L353.63 458.24L354.13 455.89L355.45 455.38L355.32 454.1L356.92 453L358.51 449.14L362.46 447.09L362.15 441.42L364.34 438.08L363.83 437.26L364.23 436.69L365.6 436.46L369.86 439.37L371.9 439.67L377.6 446.28L379.17 446.91L380.95 450.66L383.56 453.15L384.63 452.51L386.83 449.51L388.47 448.86L392.91 445.2L400.06 442.19L403.52 442.82L407.36 442.06L411.25 442.89L413.44 442.6L417.13 445.94L418 449.1L421.35 452.27L424.19 456.44L424.86 456.25L426.47 454.08L426.51 453.11L428.94 452.88L432.72 455.47L436.42 455.76L437.29 456.6L439.56 464.1L447.58 466.07L449.66 467.78L451.73 467.07L455.14 463.62L456.58 464.09L457.6 465.76L460.71 466.79Z" fill="#CCCCCC" stroke="white" stroke-width="0.5"/>
<path d="M437.559 290.31L438.049 293.12L436.719 294.04L436.409 296.19L438.049 299.83L439.359 299.99L441.869 298.71L443.219 297.28L448.379 298.11L452.429 296.22L454.929 301.18L455.399 300.83L455.439 299.15L459.439 302.54L459.659 304.05L463.129 301.38L464.849 304.1L466.189 304.46L466.889 305.55L469.069 304.99L473.079 306.64L475.879 311.87L479.469 313.34L479.779 315.85L478.539 320.37L481.209 322.47L480.459 323.14L483.799 326.92L484.629 329.88L487.509 329.82L488.939 331.36L492.249 331.51L493.079 330.92L494.409 327.5L495.819 326.47L497.389 327.61L499.389 327.56L499.169 328.5L501.489 327.72L501.779 328.5L504.419 328.05L504.899 329.66L507.409 330.61L507.719 331.42L511.279 332.57L510.569 333.21L508.239 332.81L503.989 335.8L503.449 340.27L503.759 342.74L507.189 341.77L512.979 343.16L516.079 349.22L522.549 351.5L522.279 352.1L522.979 352.9L522.619 355.18L523.129 355.87L522.129 358.31L522.709 358.81L527.539 355.28L528.109 353.85L531.269 351.79L533.899 350.66L536.639 350.31L538.139 348.79L541.839 347.31L545.439 351.54L546.039 353.05L545.739 354.91L549.929 354.92L554.759 357.42L555.949 359.08L555.759 360.85L554.379 362.69L554.789 364.41L554.029 366.28L552.169 367.53L550.389 370.55L548.629 371.48L546.609 373.82L545.119 374.07L543.239 375.49L542.539 377.53L537.479 381.09L531.709 382.73L529.539 383.87L524.859 387.78L519.749 389.59L518.539 390.97L512.059 392.52L508.809 394.02L507.579 395.64L506.259 396.12L505.239 397.26L504.479 399.7L502.229 402.44L500.799 402.87L500.409 400.06L497.239 398.44L494.539 399.56L493.529 402.02L492.079 402.72L490.399 404.85L487.729 405.95L485.829 408.94L484.329 410.08L484.389 411.38L481.599 412.69L481.479 413.39L479.289 415.2L480.289 417.82L481.419 418.18L481.449 417.29L482.749 417.67L482.999 418.86L482.369 419.54L482.969 420.26L482.189 420.86V422.19L481.349 422.1L480.869 422.95L481.379 423.4L482.059 422.83L483.249 423.54L482.579 424.63L482.939 427.8L481.139 428.43L481.609 429.07L481.009 430.04L480.289 430.37L479.669 429.7L479.829 430.87L478.499 432.2L477.629 432.75L476.299 432.35L474.009 433.82L474.169 434.61L475.239 434.88L474.979 436.55L473.929 437.01L474.169 438.04L473.149 438.31L473.349 439.43L471.409 439.29L470.769 443.47L469.349 443.58L469.329 447.53L467.489 447.82L466.849 449.14L468.009 450.42L467.999 451.15L466.929 452.12L465.899 451.98L467.139 453.62L467.029 454.77L466.099 454.15L465.219 454.88L465.289 456.42L464.059 458.31L464.329 458.63L463.239 459.01L463.699 459.58L463.249 460.3L460.899 460.44L461.409 461.51L459.759 463.35L461.419 463.97V464.72L460.449 465.32L460.709 466.79L457.599 465.76L456.579 464.09L455.139 463.62L451.729 467.07L449.659 467.78L447.579 466.07L439.559 464.1L437.289 456.6L436.419 455.76L432.719 455.47L428.939 452.88L426.509 453.11L426.469 454.08L424.859 456.25L424.189 456.44L421.349 452.27L417.999 449.1L417.129 445.94L413.439 442.6L411.249 442.89L407.359 442.06L403.519 442.82L400.059 442.19L392.909 445.2L388.469 448.86L386.829 449.51L384.629 452.51L383.559 453.15L380.949 450.66L379.169 446.91L377.599 446.28L371.899 439.67L369.859 439.37L365.599 436.46L364.229 436.69L363.829 433.74L364.459 432.85L364.279 432.05L366.439 429.12L365.929 427.61L366.229 423.76L365.099 423.41L365.509 422.24L364.279 422.03L363.069 419.85L363.779 417.39L360.669 413.87L360.439 412.28L359.299 411.11L359.369 410.04L358.499 408.39L358.969 406.13L358.449 406.05L359.999 405.04L359.459 402.9L357.139 399.97L355.109 398.62L354.849 398.12L355.399 397.28L354.109 395.35L354.399 393.78L353.769 390.77L349.799 384.91L350.339 384.32L350.819 384.61L351.919 382.73L353.539 381.87L353.129 381.03L354.019 378.7L353.729 377.74L355.379 373.99L357.439 372.06L358.219 371.94L359.069 370.45L358.509 370.22L358.029 368.03L353.559 364.94L353.319 363.9L352.239 363.44L351.939 362.23L350.909 362.31L350.259 360.78L350.609 358.6L347.539 356.92L347.849 355.59L346.909 355.13L347.139 353.52L346.489 353.24L347.079 352.79L347.019 351.88L345.469 351.87L345.569 350.69L346.809 350.22L347.219 347.6L349.249 348.63L350.749 348.12L350.609 346.29L351.419 344.56L350.979 343.73L351.919 343.63L352.189 344.6L357.109 344.13L359.249 342.39L360.919 342.85L362.859 341.5L365.179 342.08L366.069 342.99L367.259 340.85L366.239 339.86L368.169 340.34L369.949 339.57L373.559 342.3L374.699 341.01L374.469 339.54L375.399 339.24L375.859 340.48L376.469 340.58L379.679 338.86L380.059 337.74L380.489 338.21L382.039 338.18L384.539 340.05L384.779 339.17L384.149 337.75L384.619 336.85L387.879 337.33L388.549 336.83L388.299 335.72L387.189 335.93L386.099 335.05L386.349 333.62L389.419 333.83L389.989 335.97L390.969 336.57L394.299 335.99L394.509 335.45L396.029 336.04L396.509 335.7L396.409 333.86L395.639 332L397.609 330.11L398.829 330.14L399.949 328.75L401.489 329.14L402.089 329.97L402.479 329.12L404.089 328.19L404.149 326.13L403.359 323.77L403.759 323.36L405.979 324.09L406.619 324.98L407.089 324.58L407.469 325.29L409.729 324.44L409.219 321.62L408.049 319.85L412.639 314.8L413.199 313.38L413.959 313.41L414.479 311.88L413.539 310.83L415.279 308.76L417.039 308.21L417.109 305.98L418.309 305.52L420.889 302L423.409 300.63L427.359 296.63L430.799 295.84L430.549 292.24L430.939 291.23L433.549 292.16L435.979 290.23L437.559 290.31Z" fill="#CCCCCC" stroke="white" stroke-width="0.5"/>
</svg>
