<svg width="1176" height="794" viewBox="0 0 1176 794" fill="none" xmlns="http://www.w3.org/2000/svg">
<path d="M419.92 222.33L420.07 226.55L418.64 227.48L418.47 228.61L419.94 230.24L418.74 231.52L418.42 233.13L419.32 235.89L420.12 236.42L419.72 237.3L418.09 237.48L418.57 240.72L416.67 241.7L417.39 243.4L417.04 245.61L414.99 246.64L414.64 249.3L415.24 251.14L417.12 252.39L418.42 252.42L418.47 254.15L419.09 254.75L418.59 257.34L419.27 259.12L417.47 260.93L418.62 264.04L416.84 265.87L418.47 267.93L417.27 269.26L417.19 270.99L415.92 271.39L415.49 272.27L415.92 274.9L414.94 277.06L416.09 278.37L415.82 279.37L414.62 280.7L411.97 281.75L413.84 284.24L411.02 286.97L412.52 289.18L411.09 291.53L411.39 294.19L412.34 295.09L414.22 294.72L415.14 295.45L391.53 306.55L388.83 308.01L387.81 309.76L399.36 341.36L398.51 342.71L393.06 344.99L392.43 345.74L392.26 349.67L391.28 350.77L387.06 352.98L387.13 354.53L390.36 355.2L390.28 357.01L387.46 358.61L385.88 364.72L382.18 367.02L381.75 369.4L386.91 374.03L388.63 380.48L391.33 380.71L389.68 384.09L390.31 386.29L395.81 390.47L400.81 392.12L402.04 393.99L401.79 395.57L400.74 396.72L395.79 398.92L392.88 401.2L391.53 404.2L390.91 407.7L389.93 409.45L390.01 411.12L400.94 421.92L400.54 428L400.99 432.75L402.19 434.35L405.21 435.3L405.46 436.55L404.64 437.97L400.31 439.3L398.89 441.57L395.26 443.32L392.46 446.79L390.33 448.59L386.38 450.34L385.61 451.84L379.1 454.36L379.2 456.28L380.4 459.08L377.88 464.73L379.75 469.4L379.18 472.99L380.23 478.2L379.28 477.51L378.3 477.91L378.6 482.13L376.85 485.93L368.4 490.32L359.79 493.57L358.82 492.24L358.94 486.88L356.49 482.18L359.4 479.46L359.07 477.54L354.27 475.67L350.19 475.64L347.97 476.86L347.09 475.72L346.86 472.77L344.69 471.57L336.46 472.24L334.31 473.09L330.93 470.65L325.66 472.24L323.78 470.85L323.48 467.18L322.03 467.37L314.75 462.55L312.45 462.61L309.98 463.9L307.95 467.05L305.55 468.95L287.04 479.51L235.75 480.21L230.69 471.42L231.47 468.5L231.17 466.72L229.94 465.15L229.99 462.5L227.07 458.71L227.34 457.03L226.07 452.31L226.64 450.49L225.34 448.72L224.52 444.17L225.17 442.97L226.99 443.67L228.99 441.97L227.87 439.6L227.49 434.27L229.04 427.3L230.47 426.27L231.89 427.32L232.74 426.42L234.54 426.45L234.29 425.03L235.7 424L234.6 422.62L234.92 421.18L235.54 420.57L236.85 420.95L239.02 418.15L241.37 418.37L242.22 413.4L236.72 410.02L234.82 411.17L229.69 410.25L228.97 410.8L228.47 412.87L227.47 412.57L225.34 413.22L223.29 412.15L222.29 410.65L220.74 410.55L219.71 409.67L217.71 405.05L215.04 404.5L214.46 403.85L214.14 399.99L216.13 397.92L213.96 399.72L212.16 399.12L211.66 398.12L210.91 395.47L211.06 390.49L208.41 384.64L208.33 374.65L207.28 373.25L207.08 370.3L204.86 368.82L205.11 366.84L203.98 364.84L206.31 363.47L205.86 360.44L208.64 359.81L209.78 357.21L211.54 355.85L212.39 352.85L210.86 346.16L211.61 343.11L213.19 340.28L213.54 331.89L214.76 330.66L214.39 328.76L217.31 326.78L218.06 325.02L218.01 323.42L216.14 320.99L217.12 315.96L219.06 316.22L221.22 315.43L221.79 313.83L223.75 314.38L224.84 313.66L224.78 312.65L223.72 312.18L224.63 310.14L224.2 308.4L226.67 307.83L229.25 306.64L231.96 306.68L236.75 306.72L237.55 304.91L239.18 305.24L241.28 304.43L241.34 301.57L243.53 301.98L245.01 304.18L247.57 303.86L247.78 302.56L248.8 301.9L248.04 300.61L252.8 298.46L252.66 297.05L254.06 295.14L256.77 296.62L257.38 295.3L256.95 293.27L258.68 291.51L260.91 289.33L264.22 288.13L266.32 287.35L269.93 285.86L272.12 284.86L274.5 284.27L275.23 283.34L279.49 285.63L280.25 283.62L281.45 283.96L282.38 280.88L283.69 280.76L284.39 282.07L286.83 279.85L288.63 280.38L290.13 278.71L291.54 278.68L292.39 276.11L293.59 275.33L295.6 275.43L299.13 275.73L316.1 277.51L318.2 277.13L322.76 274.43L326.04 272.93L347.5 271.87L378.38 269.24L379.39 268.38L380.51 265.55L379.71 261.02L383.18 255.18L387.13 252.85L395.58 250.22L398.53 247.66L400.33 244.51L399.73 242.39L402.05 242.95L403.08 241.52L404.15 240.87L405.15 238.8L406.34 238.49L406.62 237.5L405.75 237.05L406.14 235.44L406.92 235.29L407.1 234.32L409.33 232.21L410.53 231.82L410.75 230.24L412.95 228.59L412.25 227.41L415.81 225.65L417.22 222.24L419.92 222.33Z" fill="#CCCCCC" stroke="white" stroke-width="0.5"/>
<path d="M575.663 143.23L579.382 148.72L581.462 148.52L583.262 149.23L587.492 143.96L590.012 142.81L591.613 143.18L593.842 141.7L597.342 135.63L602.692 132.95L606.043 133.11L608.502 131.87L612.122 132.12L616.572 130.46L619.853 127.46L621.353 123.78L623.752 122.5L625.252 120.23L631.832 116.95L633.913 113.24L638.033 113.62L639.212 117.08L638.632 119.77L639.882 124.03L640.262 128.82L642.062 130.03L645.192 129.38L649.062 129.63L651.012 133.31L656.872 138.37L658.142 142.55L663.242 146.63L664.622 156.03L667.592 159.58L669.793 166.85L674.402 169.09L677.152 173.32L683.202 176.94L685.053 182.7L691.353 186.05L690.682 189.12L694.332 204.73L695.752 206.14L700.233 208.15L702.283 210.31L708.692 212.17L712.642 212.15L717.492 213.48L718.712 214.94L718.512 220.29L716.812 222.45L715.142 222.68L698.483 221.17L695.303 220.32L691.702 217.68L690.082 217.43L682.582 219.81L680.803 221.75L679.353 226.4L680.002 230.27L682.603 234.29L683.452 237.1L683.332 238.83L679.553 247.6L679.923 249.55L682.853 252.54L682.372 254.05L674.223 256.08L670.752 255.5L668.522 249.98L664.223 247.14L662.673 243.68L661.192 243.3L653.462 247.75L648.992 248.35L647.092 252.72L641.983 250.66L636.483 250.96L635.983 254.12L633.363 256.28L628.733 258.42L627.353 260.22L629.353 265.29L634.033 273.72L604.242 273.8L604.923 282.58L602.423 287.55L604.572 291.93L605.043 300.56L603.092 302.01L601.742 307.73L598.242 310.34L598.223 313.22L600.492 317.71L595.012 322.44L589.163 331.29L586.293 334.54L585.212 337.27L583.262 338.4L582.233 339.88L579.033 340.91L574.882 343.66L568.332 341.58L564.733 342.16L563.533 344.09L562.382 349.14L560.983 352.15L554.353 357.88L552.372 358.36L549.402 358.03L547.402 360.41L545.492 360.91L543.793 362.29L541.742 362.24L539.942 360.31L538.742 361.64L536.242 361.21L534.342 362.36L531.363 360.86L524.062 361.01L522.242 358.56L518.182 357.46L517.512 355.65L516.882 355.08L515.663 355.7L514.882 355.35L514.512 352.98L512.483 353.35L510.082 351.97L509.812 351.02L506.332 348.87L506.132 347.24L504.702 346.72L503.682 345.31L501.152 344.59L499.783 343.46L497.603 343.53L497.432 342.53L494.072 339.6L493.402 336.22L493.702 333.49L492.322 332.34L491.702 330.58L490.872 330.23L490.152 331.36L488.723 330.96L486.003 327.48L485.152 324.67L483.473 325.32L481.772 324.5L481.792 319.23L481.022 318.23L479.092 318.08L479.022 315.25L477.642 315.4L476.372 313.6L473.592 315.1L472.193 313.42L470.193 313.32L469.693 312.62L465.512 312.44L465.242 309.28L466.512 308.03L466.742 305.37L463.962 304.17L465.842 302.29L466.012 301.19L463.342 301.91L460.392 300.06L460.512 299.16L458.832 297.68L455.232 298.78L452.482 295.92L452.033 297.73L451.262 298.2L447.913 294.72L446.312 296.93L442.882 292.99L441.982 290.86L444.702 288.67L444.402 287.77L442.702 286.94L442.102 285.11L444.982 281.85L443.232 279.27L445.452 276.61L444.182 272.44L447.332 270.11L444.783 268.23L446.112 264.16L444.982 263.41L445.182 262.03L443.982 261.35L443.533 258.79L438.332 254.58L436.802 251.46L435.152 250.83L435.602 249.35L434.283 248.78L435.332 246.67L433.872 245.59L433.072 242.85L430.372 239.99L427.672 238.86L426.322 237.1L424.422 232.28L422.702 231.42L421.202 223.21L419.922 222.33L417.223 222.24L417.342 219.8L418.902 217.97L419.122 216.16L424.052 213.32L424.132 212.72L422.652 210.61L416.952 208.01L414.492 204.54L409.622 202.52L408.382 200.29L406.262 201.4L405.062 200.81L404.753 197.21L404.262 196.86L403.163 196.79L402.512 197.78L400.812 196.68L401.332 194.59L403.533 193.33L404.672 192.58L406.232 190.04L409.622 189.89L411.033 188.63L412.072 185.58L414.072 185.32L415.292 183.78L418.473 183.72L421.452 181.48L422.612 182.56L425.362 182.93L428.952 181.12L430.522 181.38L432.852 180.48L435.943 180.99L437.962 182.26L441.033 182.63L443.612 181.49L446.122 182.15L452.732 180.51L454.542 181.73L456.332 182.03L457.682 181.67L458.112 180.44L458.822 180.24L460.283 181.86L463.102 180.14L465.202 179.71L467.392 181.58L473.702 181.45L476.392 180.84L478.152 179.31L487.242 177.51L488.173 179.26L489.002 179.35L491.033 177.49L492.983 177.81L494.673 177.15L496.673 177.83L497.772 175.45L501.452 175L503.043 172.79L504.353 171.92L506.452 171.72L507.973 170.42L510.562 171.26L512.363 169.15L514.992 170.82L520.442 170.73L523.152 169.58L527.872 172.27L531.872 172.14L535.033 171.72L538.603 169.7L542.322 169.39L543.772 168.33L548.072 158.68L547.483 156.86L547.872 155.51L550.402 155.46L550.822 152.79L554.312 153.41L555.533 152.27L557.642 154.66L560.663 154.54L560.902 154.06L561.553 152.32L562.902 147.51L571.733 146.98L572.392 146.37V144.54L575.663 143.23Z" fill="#CCCCCC" stroke="white" stroke-width="0.5"/>
<path d="M383.26 602.01L379.51 602.43L377.79 601.51L374.34 603.5L372.32 599.92L373.13 597.5L374.55 595.89L380.41 595.28L382.02 597.5L383.26 602.01Z" fill="#CCCCCC" stroke="white" stroke-width="0.5"/>
<path d="M543.969 585.99L548.269 584.6L554.949 580.64L562.499 572.66L567.249 566.18L570.729 565.26L576.079 561.72L581.279 562.62L584.089 561.17L584.789 560.05L584.909 556.21L583.689 549.3L584.789 546.43L587.559 542.47L587.739 541.05L584.309 532.97L585.709 529.22L587.939 527.25L589.139 524.66L590.009 515.6L589.059 509.66L592.289 505.77L591.389 500.08L588.359 498.71L587.709 497.34L588.659 496.09L593.009 495.64L595.639 494.29L595.139 489.97L598.019 486.98L598.489 485.43L595.959 481.48L596.389 479.54L599.089 479.51L600.569 480.19L601.839 481.18L604.369 485.33L608.019 484.9L609.439 483.51L614.449 485.88L619.869 483.38L623.679 479.54L624.779 480.14L625.549 481.73L626.529 481.76L629.099 478.21L630.879 481.31L633.859 482.13L635.079 485.53L636.679 487.08L637.329 490.1L636.629 491.54L638.879 495.31L639.429 498.48L642.309 498.96L643.859 501.88L645.939 502.23L650.559 500.56L652.939 494.54L660.939 495.21L665.519 497.71L667.189 497.63L674.319 500.98L674.749 502.95L673.619 506.1L674.919 511.01L673.499 515.43L673.699 522.86L673.149 526.58L670.569 531.29L664.669 535.71L664.919 537.65L667.589 541.05L668.119 544.14L663.119 551.3L662.639 560.87L660.489 564.81L660.669 568L659.889 569.02L659.819 571.07L660.189 571.89L663.469 572.14L664.469 571.42L665.189 572.51L667.019 572.14L668.919 574.76L670.369 575.13L672.219 574.63L673.199 576.68L675.569 576.15L675.019 578.02L675.449 579.44L679.269 582.88L677.899 585.5L678.949 586.3L683.429 587.24L687.049 585.37L688.629 585.62L690.099 584.88L694.249 585.22L696.409 586.74L696.929 588.02L695.459 590.21L695.299 591.85L692.299 595.54L691.879 597.56L689.049 601.45L689.999 607.45L686.749 610.29L686.499 613.71L682.679 612.02L679.649 613.52L677.479 612.72L670.629 612.06L665.709 609.37L662.749 609.36L659.399 606.33L654.199 607.07L652.729 605.86H651.839L644.119 611.4L637.859 610.45L635.459 609.47L631.789 610.21L623.369 607.22L618.669 603.28L615.819 604.05L614.599 607.09L612.289 607.84L610.519 606.28L609.059 606.47L603.969 603.44L602.369 600.37L600.049 598.39L595.459 597.52L590.529 595.19L582.889 594.34L581.149 593.6L574.759 596.46L571.419 596.51L568.789 595.82L558.389 597.56L553.209 594.32L551.209 593.9L549.029 590.87L546.249 590.04L544.819 588.48L543.969 585.99Z" fill="#CCCCCC" stroke="white" stroke-width="0.5"/>
<path d="M818.632 186.77L821.172 186.64L824.622 182.59L826.122 183.58L826.342 189.29L825.652 192.14L822.542 197.21L819.622 199.08L819.122 200.1L819.092 203.99L820.142 205.16L820.172 208.05L822.372 208.89L823.542 209.03L825.332 206.82L830.032 206.46L834.282 208.21L839.872 209.03L843.852 207.5L846.992 207.15L851.982 209L858.022 207.77L860.502 208.24L862.872 209.77L866.762 209.59L875.242 211.18L878.182 209.78L881.912 211.56L884.462 209.53L886.122 209.43L886.872 210.21L886.772 211.96L884.272 216.66L885.362 218.61L887.662 220.56L884.372 223.53L878.792 230.25L877.052 238.75L877.182 240.34L881.702 246.31L888.312 249.15L889.612 252.37L895.942 257.64L900.712 259.12L901.212 263.56L906.442 267.3L906.972 268.5L905.592 277.34L903.812 279.72L904.992 281.88L905.442 288.45L907.342 292.16L906.772 296.62L908.572 299.71L907.792 304.22L908.042 306.88L908.722 309.21L911.092 312.27L912.172 316.08L914.272 316.98L913.372 318.26L917.042 320.04L916.972 320.56L915.992 320.69L914.322 326.25L912.942 326.68L912.692 328.83L911.572 329.41L909.222 335.49L910.292 339.18L909.322 340.5L909.392 341.53L912.192 341.63L911.622 343.99L913.992 345.91L913.042 347.24L913.242 352.15L911.942 355.63L912.992 357.63L913.372 361.14L912.142 363.54L909.872 362.96L907.692 366.22L904.212 366.77L900.512 365.99L897.712 367.47L894.862 367.24L894.382 369.17L892.082 369.92L893.212 373.53L894.592 373.95L894.842 374.78L892.712 375.48L892.912 378.41L888.812 380.38L889.032 381.33L890.012 381.58L890.262 383.14L891.182 383.19L891.312 384.19L889.582 384.91L887.532 384.06L886.852 386.28L824.382 420.3L816.602 425.62L813.252 427.17L810.782 430.75L810.302 433.87L808.732 435.17L804.902 435.5L803.502 434.45L801.802 435.17L801.372 437.52L799.972 437.97L799.552 438.75L800.152 440.57L799.622 441.84L799.952 444.49L797.822 446.62L761.982 437.17L758.812 430.62L756.462 429.37L750.802 430.62L744.602 429.32L732.342 431.87L729.022 437.7L727.922 442.72L725.372 446.64L717.512 450.79L714.492 449.87L709.312 450.74L707.512 448.19L704.962 448.29L703.962 450.07L697.862 452.04L692.882 456.36L694.182 457.53L694.352 459.06L689.982 464.4L689.452 471.3L689.782 475.79L687.582 478.44L688.132 480.93L690.282 483.66L690.702 486.6L689.952 487.13L686.132 486.68L685.282 488.25L686.982 488.37L687.402 489.15L686.452 490.62L680.222 494.71L678.402 497.76L675.272 499.51L674.322 500.98L667.192 497.63L665.522 497.71L660.942 495.21L652.942 494.54L652.862 490.22L661.942 483.08L663.492 483.18L670.542 488.55L671.272 486.3L674.402 483.53L674.872 479.09L676.552 476.27L677.922 470.12L678.372 462.13L678.052 461.13L675.152 458.41L673.202 450.66L667.692 450.12L666.972 449.52L667.192 445.87L665.442 443.19L664.372 437.82L660.472 435.6L659.622 434.2L664.792 426.6L666.342 423.2L666.122 420.8L663.922 417.4L662.942 414.3L664.792 403.52L662.792 401.4L657.592 401.22L656.392 400.65L655.542 397.9L653.292 396.39L650.842 392.19L650.312 386.86L647.942 384.81L647.992 383.24L651.212 380.98L651.442 379.16L650.692 377.38L652.142 374.8L650.242 370.75L650.462 365.74L647.692 364.74L646.842 355.18L645.112 348.12L645.792 339.95L645.082 337.22L643.112 335.9L638.062 336.75L633.532 336.57L631.132 335.77L630.102 333.14L631.432 320.94L628.602 315.22L622.232 310.29L615.322 309.28L612.522 308.11L607.942 302.39L605.042 300.56L604.572 291.93L602.422 287.55L604.922 282.58L604.242 273.8L634.032 273.72L629.352 265.29L627.352 260.22L628.732 258.42L633.362 256.28L635.982 254.12L636.482 250.96L641.982 250.66L647.092 252.72L648.992 248.35L653.462 247.75L661.192 243.3L662.672 243.68L664.222 247.14L668.522 249.98L670.752 255.5L674.222 256.08L682.372 254.05L682.852 252.54L679.922 249.55L679.552 247.6L683.332 238.83L683.452 237.1L682.602 234.29L680.002 230.27L679.352 226.4L680.802 221.75L682.582 219.81L690.082 217.43L691.702 217.68L695.302 220.32L698.482 221.17L715.142 222.68L716.812 222.45L718.512 220.29L722.442 219.54L726.772 221.12L730.292 220.79L735.622 215.42L743.752 210.49L756.682 210.39L767.782 205.84L774.112 204.83L776.762 205.82L778.462 205.61L779.862 204.41L780.562 202.55V194.12L781.672 192.06L791.422 184.94L797.602 184.09L802.172 180.84L804.602 167.63L806.872 163.88L810.782 161.64L813.202 161.41L815.632 162.04L814.552 163.38L813.752 167.03L814.682 169.87L816.002 171.67L816.112 174.79L815.042 177.31L815.162 179.2L813.662 181.79L815.062 182.91L815.252 185.03L818.632 186.77Z" fill="#CCCCCC" stroke="white" stroke-width="0.5"/>
<path d="M903.902 248.99L906.192 248.9L907.792 252.3L908.682 252.2L909.832 253.62L913.252 255.32L921.632 253.34L924.762 253.93L926.612 255.09L929.972 254.9L931.922 257.18L938.272 256.54L939.532 257.78L940.192 257.18L941.232 257.47L943.392 261.34L944.932 269.12L948.512 271.23L950.862 275.25L958.702 280.33L961.802 284.28L969.622 282.54L972.632 285.78L974.202 285.72L974.102 286.72L977.412 290.7L977.452 291.88L979.482 291.86L979.812 296.74L978.732 298.64L979.232 299.64L978.642 301.05L980.902 303.35L980.862 303.99L979.432 304.24L979.322 306.37L976.502 307.97L974.742 308.01L974.282 308.94L972.712 309.02L972.372 310.1L969.202 311.75L969.072 312.62L970.252 313.39L971.182 315.65L971.452 319.9L973.792 320.34L974.912 321.42L977.752 321.84L978.232 321.13L979.282 322.44L978.932 323.18L981.042 324.76L981.332 325.88L982.552 325.49L983.712 325.97L985.922 332.93L987.432 333.29L988.472 334.78L989.792 333.99L992.842 336.69L994.082 336.38L994.182 338.48L995.302 338.1L996.402 339.72L997.772 339.08L998.352 339.89L999.032 339.85L999.362 338.86L1000.81 339.02L1002.88 341.29L1003.69 340.69L1004.81 341.45L1004.64 342.99L1005.53 343.42L1006.38 342.31L1007.07 342.76L1007.25 344.28L1011.74 344.92L1013.32 346.5L1016.49 346.57L1018.22 348.7L1020.17 347.96L1021.02 348.3L1021.04 349.66L1027.07 350.54L1027.67 351.19L1026.48 353.65L1026.96 354L1031.1 354.34L1032.22 355.25L1033.46 355.26L1035.03 356.5L1033.91 358.07L1036.5 358.7L1037.08 360.19L1041.45 360.66L1042.15 363.37L1046.21 363.32L1047.82 363.94L1048.32 365.31L1047.5 367.11L1048.39 368.96L1047.12 370.74L1049.09 370.86L1048.9 372.07L1049.56 372.94L1051.14 372.26L1051.47 372.63L1051.15 377.12L1052.86 379.86L1053.77 380.63L1058.53 380.82L1059.61 381.95L1059.36 383.27L1062.21 385.35L1062.1 386.76L1066.64 387.95L1067.11 390.2L1071.7 390.73L1073.21 391.85L1075.63 392L1078.69 394.99L1080.1 395.35L1080.82 396.66L1079.8 398.97L1077.81 400.48L1077.82 401.93L1075.21 402.25L1074.94 404.51L1073.7 405.42L1072.3 407.92L1072.88 409.2L1070.21 409.57L1069.25 412.4L1070.78 412.14L1071.21 412.66L1070.51 414.33L1071.87 415.35L1069.92 417.85L1070.27 419.13L1074.38 421.9L1078.08 425.92L1082.81 427.07L1086.26 429.07L1085.98 432.69L1087.45 434.72L1090.06 433.65L1091.65 434.67L1091.5 436.51L1089.34 439.81L1084.78 442.88L1084.07 446.3L1084.89 447.02L1087.25 444.77L1090.18 443.62L1091.31 444.89L1091.98 448.26L1093.16 448.91L1093.88 451.02L1095.68 451.62L1097.96 451.32L1099.28 452.5L1102.42 453.57L1104.99 452.31L1106.85 452.48L1108.25 453.48L1111.13 452.82L1112.72 454.13L1114.81 454.59L1115.41 455.49L1116.42 455.14L1118.03 457.42L1118.45 462.65L1119.27 463.65L1122.06 464.59L1123.7 463.7L1125.91 463.58L1127.04 465.7L1129.77 467.69L1133.21 466.75L1134.92 467.65L1135.79 468.62L1135.53 470.15L1137.78 471.23L1138.07 472.87L1139.04 472.5L1139.97 473.23L1140.7 472.26L1142.83 471.93L1144.21 472.64L1144.29 474.21L1147.93 474.93L1148.23 475.45L1146.54 476.56L1150.44 478.52L1153.07 482.08L1152.63 483.67L1154.84 486.08L1154.23 489.01L1154.9 490.98L1156.85 489.93L1159 491.14L1157.96 493L1158.38 496.24L1156.76 498.35L1154.48 505.53L1155.08 509.65L1156.65 511.41L1155.61 512.69L1155.89 514.51L1158.25 518.86L1159.84 520.19L1160.57 523.38L1161.93 525.2L1162.63 525.97L1165.01 526.49L1165.89 527.98L1169.19 530.17L1170.03 533.19L1174.47 537.42L1174.42 540.64L1175.21 542.42L1173.19 541.89L1173.33 538.17L1170.81 535.98L1154.35 530.19L1147.65 525.94L1143.58 525.3L1140.56 525.54L1136.1 527.07L1127.64 531.82L1127.72 532.97L1126.65 533.8L1125.58 536.68L1123.68 537.26L1123.13 539.78L1121.97 540.83L1118.31 538.55L1117.38 539.58L1116.21 539.46L1114.86 537.36L1112.89 536.18L1112.99 534.73L1111.32 535.13L1109.4 535.36L1108.41 535.63L1107.31 535.47L1105.62 536.01L1105.47 535.16L1104.79 535.22L1104.77 536.32L1103.74 536.92L1102.46 537.02L1101.16 535.91L1100.91 536.55L1099.94 536.66L1100.48 537.67L1100.07 538.17L1098.78 536.66L1097.15 537.24L1096.53 536.46L1095.23 536.61L1095.17 538.18L1094.26 538.16L1093.62 537L1093 538.12L1093.37 538.61L1092.09 539.69L1092.21 537.77L1091.51 537.83L1090.87 539.9L1089.28 539.92L1087.38 539.7L1085.19 538.61L1084.49 537.97L1084.22 537.31L1085.02 536.94L1084.77 535.32L1083.14 535.68L1083.16 533.63L1081.63 533.72L1081.48 532.87L1080.53 532.77L1080.73 531.92L1079.95 531.95L1079.41 532.98L1078.63 531.99L1078.64 530.63L1076.43 531.04L1075.07 529.91L1074.24 530.68L1073 530.54L1072.9 531.63L1071.89 530.1L1070.75 531.22L1070.02 529.43L1068.93 529.86L1069.16 528.66L1066.37 528.46L1066.9 527.18L1066.3 526.09L1065.58 526.3L1065.35 527.39L1064.35 526.07L1064.83 525.14L1063.55 525.29L1063.36 526.45L1062.33 525.14L1063.11 524.63L1062.18 522.58L1060.26 524.3L1060.69 523.48L1060.27 522.17L1058.23 523.32L1057.65 522.53L1058.16 520.88L1056.14 520.24L1055.54 520.33L1055.5 521.36L1053.95 523.22L1052.73 522.42L1051.64 522.63L1052.53 523.64L1052.41 525.17L1050.36 524.72L1049.56 526.44L1048.3 525.72L1048.27 524.71L1046.89 525.7L1044.43 525.17L1044.28 523.35L1043.54 523.23L1042.78 524.1L1042.11 522.34L1040.44 523.84L1040.2 526.65L1038.25 525.31L1036.83 526.16L1035.3 525.88L1036.01 528.17L1035.21 529.06L1034.31 526.4L1032.65 525.37L1033.29 524.68L1032.98 524.23L1031.02 524.13L1029.68 524.84L1028.67 527.09L1027.3 524.37L1026.24 524.54L1027.25 521.79L1024.54 522.52L1025.51 521.13L1024.76 519.38L1022.74 520.19L1024.08 520.6L1023.94 521.28L1020.87 522.61L1020.03 520.07L1018.25 519.89L1017.23 517.19L1014.13 515.83L1012.91 516.37L1012.72 514.41L1011.48 514.5L1010.78 515.41L1011.03 516.67L1010.18 516.61L1009.58 515L1007.59 514.88L1009.64 513.53L1009.47 512.66L1007.17 512.84L1005.76 510.17L1003.38 510.06L1002.57 509.19L1001.61 510.04L1002.71 512.02L999.452 512.98L998.202 511.17L997.252 511.01L996.302 512.64L994.862 512.52L992.052 515.08L990.772 515.04L989.792 513.1L988.972 514.92L986.522 515.53L986.682 516.48L987.762 516.21L988.012 516.93L986.822 518.26L985.572 518.16L984.382 520.48L983.662 524.96L982.402 526.35L983.322 529.82L985.392 530.48L985.032 533.62L983.082 536.52L983.172 539.2L982.042 540.61L975.702 541.65L974.242 542.58L971.572 542.3L970.622 543.53L969.612 543.43L968.142 541.45L967.292 541.33L965.692 543.87H953.412L953.442 544.48L949.212 545.1L947.442 547.35L943.572 547.31L942.472 549.46L937.472 549.32L934.652 552.22L933.602 552.12L933.362 550.76L931.782 552.05L929.532 552.28L928.282 550.7L922.622 551.09L923.992 548.34L924.052 546.6L920.352 546.1L918.612 541.13L914.272 540.61L912.742 539.46L911.482 536.64L906.432 535L908.592 532.74L909.622 532.79L911.722 534.34L913.592 533.19L913.572 531.84L911.742 531.62L911.322 530.22L912.522 529.15L911.572 528.28L912.642 526.36L914.592 528.03L914.972 527.78L914.892 525.21L916.242 523.49L916.222 521.67L917.342 520.99L918.022 519.22L919.322 520.39L923.202 519.99L926.002 520.59L927.722 519.84L929.302 517.8L931.122 517.15L933.552 518.37L934.182 517.75L934.232 516.13L936.902 515.13L938.682 512.58L939.882 513.61L941.752 514.03L942.552 511.19L941.782 508.39L943.682 509.17L943.502 507.54L945.662 506.62L945.032 504.45L948.012 505.32L948.832 504.35L951.032 503.55L949.662 501.15L950.712 500.36L952.162 500.33L954.412 498.43L955.532 494.62L957.712 493.17L955.032 492.34L957.492 490.62L956.182 490.07L955.832 488.62L955.862 487.5L957.162 486.45L956.262 483.78L957.242 481.73L956.962 479.66L957.962 477.59L956.462 475.62L959.192 474.22L961.742 473.94L963.142 471.7L963.992 471.35L966.442 474.72L967.392 471.45L967.112 469.55L967.862 465.7L970.492 462.43V461.53L967.312 457.01L962.212 457.78L960.892 454.21L957.792 451.66L958.242 449.94L957.562 448.64H953.912L951.832 445.04L939.432 434.47L940.332 433.47L946.862 435.6L948.262 435.32L949.912 433.5L952.812 432.82L953.462 432.37L954.512 428L958.442 427.92L960.042 427.12L960.192 423.4L959.112 421.03L951.182 414.65L947.582 413.6L944.532 410.27L942.532 409.32L933.702 410.3L926.452 418.35L920.472 417.73L917.122 419.53L904.762 406.6L894.762 394.54L886.852 386.28L887.532 384.06L889.582 384.91L891.312 384.19L891.182 383.19L890.262 383.14L890.012 381.58L889.032 381.33L888.812 380.38L892.912 378.41L892.712 375.48L894.842 374.78L894.592 373.95L893.212 373.53L892.082 369.92L894.382 369.17L894.862 367.24L897.712 367.47L900.512 365.99L904.212 366.77L907.692 366.22L909.872 362.96L912.142 363.54L913.372 361.14L912.992 357.63L911.942 355.63L913.242 352.15L913.042 347.24L913.992 345.91L911.622 343.99L912.192 341.63L909.392 341.53L909.322 340.5L910.292 339.18L909.222 335.49L911.572 329.41L912.692 328.83L912.942 326.68L914.322 326.25L915.992 320.69L916.972 320.56L917.042 320.04L913.372 318.26L914.272 316.98L912.172 316.08L911.092 312.27L908.722 309.21L908.042 306.88L907.792 304.22L908.572 299.71L906.772 296.62L907.342 292.16L905.442 288.45L904.992 281.88L903.812 279.72L905.592 277.34L906.972 268.5L906.442 267.3L901.212 263.56L900.712 259.12L895.942 257.64L889.612 252.37L888.312 249.15L890.402 249.79L893.852 249.28L894.852 250.61L896.822 251.06L900.672 248.42L903.902 248.99Z" fill="#CCCCCC" stroke="white" stroke-width="0.5"/>
<path d="M190.277 519.25L194.577 517.12L207.107 508.79L214.087 512.73L218.557 512.36L223.437 510.49L225.837 510.59L236.347 517.87L238.247 519.79L240.917 525.16L244.117 529.02L243.517 530.8L242.667 531.32L239.297 532.07L235.437 534.96L232.567 535.74L236.537 541.8L236.947 544.44L235.597 546.83L231.117 547.78L229.967 548.48L228.967 550.25L226.287 551.37L225.437 552.44L220.807 554.74L218.177 555.03L218.687 558.4L217.857 560.02L218.387 561.3L217.707 568.35L219.337 575.01L222.687 578.4L226.517 585.45L226.737 587.62L231.537 590.53L234.867 598.16L237.117 600.77L239.547 601.17L239.747 603.32L231.967 602.52L228.237 598.86L223.167 595.89L221.407 596.09L213.187 603.44L209.477 611.67L202.907 609.8L197.097 620.78L196.707 624.99L197.127 629.87L195.897 633.46L192.347 638.21L185.877 643.67L185.017 647.23L183.067 649.09L181.867 648.62L177.717 643.76L175.717 643.19L170.687 643.47L168.287 641.13L163.487 638.74L153.937 636.44L150.857 634.33L136.327 635.6L132.247 636.17L120.567 640.5L111.167 645.31L107.417 648.82L105.117 654.67L103.467 656.21L100.567 657.04L98.0572 656.96L96.7072 653.53L93.2372 653.18L91.1372 654.05L88.7572 656.46L78.3472 662.47L75.3572 659.22L66.6072 645.17L62.6872 638.51L61.1772 633.95L58.2472 633.83L59.1272 632.42L66.1972 630.58L69.5672 628.72L68.6772 627.42L66.4672 627.68L65.4672 624.62L63.3472 622.96L62.6672 621.39L63.2872 620.22L63.2172 618.18L62.6172 617.64L62.7072 614.17L61.7672 612.46L62.1872 610.62L60.8172 606.08L59.1472 604.73L57.2372 600.95L56.0372 601.03L54.4972 596.22L51.8772 595.74L51.4072 594.83L50.2972 594.51L48.4172 594.63L47.9372 593.66L43.2172 591.71L41.6772 589.51L40.3072 588.97L40.0272 588L38.3572 587.79L36.4172 586.53L32.5072 581.67L31.2472 581.44L30.3772 579.78L28.9172 578.93L29.1672 578.09L28.1972 576.06L27.8672 567.18L26.2872 565.05L27.3572 564.5L27.9572 562.91L26.6972 556.92L27.4772 556.16L24.7472 550.37L25.6672 547.4L24.1172 545.04L24.6072 542.34L41.0372 544.66L47.6372 542.89L49.6672 544.21L53.6172 548.68L55.0472 549.28L56.9172 548.38L60.1472 543.99L81.2772 543.87L82.3572 542.37L83.5072 542.27L86.7572 544.19L89.5572 543.89L91.3872 543.32L97.8172 538.93L103.237 541.82L111.667 542.42L113.267 541.6L115.897 542.37L116.167 540.82L114.867 532.57L113.117 530.22L116.847 524.81L116.567 523.54L119.017 522.61L122.897 523.09L122.947 524.71L124.897 529.6L124.367 532.94L126.977 538.48L132.647 536.73L137.757 533.79L138.727 534.61L139.357 536.68L141.107 538.3L143.927 538.6L150.007 536.58L166.737 528.73L181.067 523.74L190.277 519.25Z" fill="#CCCCCC" stroke="white" stroke-width="0.5"/>
<path d="M419.92 222.33L421.2 223.21L422.7 231.42L424.42 232.28L426.32 237.1L427.67 238.86L430.37 239.99L433.07 242.85L433.87 245.59L435.33 246.67L434.28 248.78L435.6 249.35L435.15 250.83L436.8 251.46L438.33 254.58L443.53 258.79L443.98 261.35L445.18 262.03L444.98 263.41L446.11 264.16L444.78 268.23L447.33 270.11L444.18 272.44L445.45 276.61L443.23 279.27L444.98 281.85L442.1 285.11L442.7 286.94L444.4 287.77L444.7 288.67L441.98 290.86L442.88 292.99L446.31 296.93L447.91 294.72L451.26 298.2L452.03 297.73L452.48 295.92L455.23 298.78L458.83 297.68L460.51 299.16L460.39 300.06L463.34 301.91L466.01 301.19L465.84 302.29L463.96 304.17L466.74 305.37L466.51 308.03L465.24 309.28L465.51 312.44L469.69 312.62L470.19 313.32L472.19 313.42L473.59 315.1L476.37 313.6L477.64 315.4L479.02 315.25L479.09 318.08L481.02 318.23L481.79 319.23L481.77 324.5L483.47 325.32L485.15 324.67L486 327.48L488.72 330.96L490.15 331.36L490.87 330.23L491.7 330.58L492.32 332.34L493.7 333.49L493.4 336.22L494.07 339.6L497.43 342.53L497.6 343.53L499.78 343.46L501.15 344.59L503.68 345.31L504.7 346.72L506.13 347.24L506.33 348.87L509.81 351.02L510.08 351.97L512.48 353.35L514.51 352.98L514.88 355.35L515.66 355.7L516.88 355.08L517.51 355.65L516.36 358.78L517.01 363.26L516.08 366.74L514.36 369.07L512.88 374.65L507.78 378.81L507.43 380.96L506.08 383.19L504.55 383.51L499.1 389.42L497.2 390.44L491.02 397.92L490.42 401.22L492.4 413.3L490.75 413.75L486.7 410.85L482.39 410.6L480.09 411.17L458.91 408.5L453.23 409.52L443.43 412.6L438.5 413.28L435.18 412.9L430.85 414.7L427.87 415.03L424.12 414.03L420.8 412.22L419.62 411.07L416.69 405.42L414.52 404.25L411.97 404.27L397.36 407.37L390.91 407.7L391.53 404.2L392.88 401.2L395.79 398.92L400.74 396.72L401.79 395.57L402.04 393.99L400.81 392.12L395.81 390.47L390.31 386.29L389.68 384.09L391.33 380.71L388.63 380.48L386.91 374.03L381.75 369.4L382.18 367.02L385.88 364.72L387.46 358.61L390.28 357.01L390.36 355.2L387.13 354.53L387.06 352.98L391.28 350.77L392.26 349.67L392.43 345.74L393.06 344.99L398.51 342.71L399.36 341.36L387.81 309.76L388.83 308.01L391.53 306.55L415.14 295.45L414.22 294.72L412.34 295.09L411.39 294.19L411.09 291.53L412.52 289.18L411.02 286.97L413.84 284.24L411.97 281.75L414.62 280.7L415.82 279.37L416.09 278.37L414.94 277.06L415.92 274.9L415.49 272.27L415.92 271.39L417.19 270.99L417.27 269.26L418.47 267.93L416.84 265.87L418.62 264.04L417.47 260.93L419.27 259.12L418.59 257.34L419.09 254.75L418.47 254.15L418.42 252.42L417.12 252.39L415.24 251.14L414.64 249.3L414.99 246.64L417.04 245.61L417.39 243.4L416.67 241.7L418.57 240.72L418.09 237.48L419.72 237.3L420.12 236.42L419.32 235.89L418.42 233.13L418.74 231.52L419.94 230.24L418.47 228.61L418.64 227.48L420.07 226.55L419.92 222.33Z" fill="#CCCCCC" stroke="white" stroke-width="0.5"/>
<path d="M390.913 407.7L397.363 407.37L411.973 404.27L414.523 404.25L416.693 405.42L419.623 411.07L420.803 412.22L424.123 414.03L427.873 415.03L430.853 414.7L435.183 412.9L438.503 413.28L443.433 412.6L453.233 409.52L458.913 408.5L480.093 411.17L479.543 413.62L480.973 416.2L483.723 418.35L488.453 419.87L490.303 421.3L492.023 423.85L488.903 432.77L491.003 436.7L487.673 439.6L487.723 441.02L489.253 443.04L487.453 444.47L483.843 450.44L483.353 450.81L479.793 450.16L478.023 450.74L476.323 454.23L467.963 459.46L466.613 460.91L466.393 461.78L469.313 472.22L467.793 473.47L467.613 474.49L468.313 475.29L473.423 477.04L474.043 478.49L473.643 482.08L472.123 484.85L463.313 491.94L455.783 493.19L455.063 494.91L457.633 497.49L459.213 500.46L504.603 499.76L504.253 504.87L502.103 507.52L499.083 514.93L499.603 519.97L498.533 522.94L498.953 525.88L497.633 532.57L495.253 535.88L490.133 538.12L487.493 535.48L483.023 534.72L475.903 531.92L468.353 532.38L463.163 530.78L457.283 532.88L451.903 532.19L448.483 533.74L445.503 537.31L434.923 543.25L431.423 549.06L426.543 549.09L423.623 549.8L422.563 548.7L423.053 544.56L421.473 542.29L421.373 539.77L418.073 537.63L416.893 534.04L413.773 531.47L412.193 528.9L411.873 527.05L412.523 522.66L415.793 513.51L414.493 510.04L411.293 504.8L408.793 503.82L405.113 501.23L402.543 498.13L402.343 489.2L401.563 487.45L400.343 486.75L390.263 485.08L385.363 484.88L383.353 483.21L380.233 478.2L379.183 472.99L379.753 469.4L377.883 464.73L380.403 459.08L379.203 456.28L379.103 454.36L385.613 451.84L386.383 450.34L390.333 448.59L392.463 446.79L395.263 443.32L398.893 441.57L400.313 439.3L404.643 437.97L405.463 436.55L405.213 435.3L402.193 434.35L400.993 432.75L400.543 428L400.943 421.92L390.013 411.12L389.933 409.45L390.913 407.7Z" fill="#CCCCCC" stroke="white" stroke-width="0.5"/>
<path d="M236.54 541.8L245.27 540.27L247.4 544.46L253.43 546.76L255.63 550.52L259.23 551.97L260.56 555.11L267.13 558.75L273.79 561.14L275.54 563.12L275.61 564.41L279.14 567.28L281.71 581.14L283.24 583.01L283.69 584.73L286.22 586.52L292.17 587.94L293.57 586.3L298.25 586.57L301.55 585.22L306.97 587.52L308.07 591.48L308.7 591.88L311.18 591.13L314.25 593.25L316.45 591.03L318.65 590.66L323.41 591.98L327.03 592.13L327.11 593.77L328.73 594.42L333.98 592.1L335.34 593L337.74 595.89L340.94 602.77L343.81 604.04L349.12 604.61L351.14 607.3L354.17 613.55L353.67 617.04L354.64 621.15L353.37 624.74L353.62 626.53L354.72 628.28L359.22 631.76L360.62 635.3L361.8 635.22L362.52 636.12L364.95 636.94L365 638.96L366 640.13L368.8 642.2L370.82 641.82L375.07 644.17L376.86 646.53L376.98 651.24L376.02 655.87L376.4 660.14L377.73 664.13L378.84 675.41L380.34 680.99L376.73 680.45L374.96 675.64L372.79 672.7L371.38 668.53L366.98 664.66L364.13 667.32L363.55 669.33L360.94 668.62L360.43 669.08L360.12 671.41L354.3 668.75L350.95 670.6L347.26 670.19L344.9 678.36L344 679.23L340.17 680.08L339.01 679.45L337.87 675.93L336.18 673.62L332.62 671.99L329.53 671.64L327.55 672.28L323.16 671.33L322.77 673.81L320.4 672.98L317.55 669.21L315.89 671.81L310.47 675.44L307.76 667.04L304.77 666.82L299.12 664.84L296.6 666.34L295.03 665.72L287.71 665.74L286.02 664.21L283.32 663.23L282.07 661.74L278.73 661.19L277.39 660.28L274.71 660.54L272.83 662.23L270.49 662.94L266.23 654.95L261.86 649.94L247.9 643.62L241.22 642.35L236.1 638.96L230.47 638.44L227.44 635.95L225.94 634.35L224.14 630.04L220.16 624.89L217.44 619.76L213.79 616.69L211.84 613.21L209.48 611.67L213.19 603.44L221.41 596.09L223.17 595.89L228.24 598.86L231.97 602.52L239.75 603.32L239.55 601.17L237.12 600.77L234.87 598.16L231.54 590.53L226.74 587.62L226.52 585.45L222.69 578.4L219.34 575.01L217.71 568.35L218.39 561.3L217.86 560.02L218.69 558.4L218.18 555.03L220.81 554.74L225.44 552.44L226.29 551.37L228.97 550.25L229.97 548.48L231.12 547.78L235.6 546.83L236.95 544.44L236.54 541.8Z" fill="#CCCCCC" stroke="white" stroke-width="0.5"/>
<path d="M886.85 386.28L894.76 394.54L904.76 406.6L917.12 419.53L920.47 417.73L926.45 418.35L933.7 410.3L942.53 409.32L944.53 410.27L947.58 413.6L951.18 414.65L959.11 421.03L960.19 423.4L960.04 427.12L958.44 427.92L954.51 428L953.46 432.37L952.81 432.82L949.91 433.5L948.26 435.32L946.86 435.6L940.33 433.47L939.43 434.47L951.83 445.04L953.91 448.64H957.56L958.24 449.94L957.79 451.66L960.89 454.21L962.21 457.78L967.31 457.01L970.49 461.53V462.43L967.86 465.7L967.11 469.55L967.39 471.45L966.44 474.72L963.99 471.35L963.14 471.7L961.74 473.94L959.19 474.22L956.46 475.62L957.96 477.59L956.96 479.66L957.24 481.73L956.26 483.78L957.16 486.45L955.86 487.5L955.83 488.62L956.18 490.07L957.49 490.62L955.03 492.34L957.71 493.17L955.53 494.62L954.41 498.43L952.16 500.33L950.71 500.36L949.66 501.15L951.03 503.55L948.83 504.35L948.01 505.32L945.03 504.45L945.66 506.62L943.5 507.54L943.68 509.17L941.78 508.39L942.55 511.19L941.75 514.03L939.88 513.61L938.68 512.58L936.9 515.13L934.23 516.13L934.18 517.75L933.55 518.37L931.12 517.15L929.3 517.8L927.72 519.84L926 520.59L923.2 519.99L919.32 520.39L918.02 519.22L917.34 520.99L916.22 521.67L916.24 523.49L914.89 525.21L914.97 527.78L914.59 528.03L912.64 526.36L911.57 528.28L912.52 529.15L911.32 530.22L911.74 531.62L913.57 531.84L913.59 533.19L911.72 534.34L909.62 532.79L908.59 532.74L906.43 535L904.25 534.53L902.91 535.14L903.66 538.09L902.46 538.55L900.02 533.88L898.43 534.07L897.18 537.38L895.95 537.7L895.6 538.48L896.02 539.46L897.01 539.81L899.23 539.06L900.22 539.86L900.36 541.06L897.17 543.12L890.23 543.6L888.13 545.55L887.92 546.39L888.91 548.36L888.21 549.52L886.1 549.71L886.2 548.2L884.65 547.5L880.58 550.08L877.82 553.3L875.69 553.44L873.36 551.83L871.5 551.92L866.87 554.89L861.23 556.78L860.38 554.94L859.76 554.9L858.94 555.83L859.35 559.79L858.86 560.97L855.82 560.29L855.01 559.24L853.67 558.89L849.97 560.85L848.38 559.18L842.72 563.65L837.19 563.4L829.15 567.15L825.74 567.83L822.98 570.48L818.42 573.19L815.19 573.18L812.14 575.26L811.6 576.88L811.98 579.69L811.24 580.76H807.79L805.78 579.06L803.16 579.57L799.89 577.31L798.59 577.47L797.02 574.05L794.79 573.64L792.1 571.49L790.94 568.99L788.79 567.37L783.54 570.08L780.55 569.4L776.43 566.37L774.49 566L771.87 559.73L770.38 558.43L768.05 560.44L764.93 560.22L763.9 561.19L763.22 563.21L764.57 565.67L762.07 567.37L761.25 570.1L759.44 570.64L757.9 568.88L756.15 568.54L753.84 570.4L751.94 575.22L749.88 577.53L749.36 583.71L746.91 587.33L746.97 589.52L746.23 591.27L744.54 592.17L742.97 590.48L739.77 590.11L737.25 591.27L737.14 595.51L736.02 597.72L736.42 598.67L739.13 599.72L739.07 602.15L735.07 604.1L732.46 608.61L732.05 610.76L733 612.22L732.86 614.26L724.19 622.11L713.93 623.39L707.28 623.33L703.03 622.24L698.04 619.76L694.69 616.38L691.88 614.6L686.5 613.71L686.75 610.29L690 607.45L689.05 601.45L691.88 597.56L692.3 595.54L695.3 591.85L695.46 590.21L696.93 588.02L696.41 586.74L694.25 585.22L690.1 584.88L688.63 585.62L687.05 585.37L683.43 587.24L678.95 586.3L677.9 585.5L679.27 582.88L675.45 579.44L675.02 578.02L675.57 576.15L673.2 576.68L672.22 574.63L670.37 575.13L668.92 574.76L667.02 572.14L665.19 572.51L664.47 571.42L663.47 572.14L660.19 571.89L659.82 571.07L659.89 569.02L660.67 568L660.49 564.81L662.64 560.87L663.12 551.3L668.12 544.14L667.59 541.05L664.92 537.65L664.67 535.71L670.57 531.29L673.15 526.58L673.7 522.86L673.5 515.43L674.92 511.01L673.62 506.1L674.75 502.95L674.32 500.98L675.27 499.51L678.4 497.76L680.22 494.71L686.45 490.62L687.4 489.15L686.98 488.37L685.28 488.25L686.13 486.68L689.95 487.13L690.7 486.6L690.28 483.66L688.13 480.93L687.58 478.44L689.78 475.79L689.45 471.3L689.98 464.4L694.35 459.06L694.18 457.53L692.88 456.36L697.86 452.04L703.96 450.07L704.96 448.29L707.51 448.19L709.31 450.74L714.49 449.87L717.51 450.79L725.37 446.64L727.92 442.72L729.02 437.7L732.34 431.87L744.6 429.32L750.8 430.62L756.46 429.37L758.81 430.62L761.98 437.17L797.82 446.62L799.95 444.49L799.62 441.84L800.15 440.57L799.55 438.75L799.97 437.97L801.37 437.52L801.8 435.17L803.5 434.45L804.9 435.5L808.73 435.17L810.3 433.87L810.78 430.75L813.25 427.17L816.6 425.62L824.38 420.3L886.85 386.28Z" fill="#CCCCCC" stroke="white" stroke-width="0.5"/>
<path d="M231.168 466.72L231.468 468.5L230.688 471.42L235.748 480.21L287.038 479.51L305.548 468.95L307.948 467.05L309.978 463.9L312.448 462.61L314.748 462.55L322.028 467.37L323.478 467.18L323.778 470.85L325.658 472.24L330.928 470.65L334.308 473.09L336.458 472.24L344.688 471.57L346.858 472.77L347.088 475.72L347.968 476.86L350.188 475.64L354.268 475.67L359.068 477.54L359.398 479.46L356.488 482.18L358.938 486.88L358.818 492.24L359.788 493.57L368.398 490.32L376.848 485.93L378.598 482.13L378.298 477.91L379.278 477.51L380.228 478.2L383.348 483.21L385.358 484.88L390.258 485.08L400.338 486.75L401.558 487.45L402.338 489.2L402.538 498.13L405.108 501.23L408.788 503.82L411.288 504.8L414.488 510.04L415.788 513.51L412.518 522.66L411.868 527.05L412.188 528.9L413.768 531.47L416.888 534.04L418.068 537.63L421.368 539.77L421.468 542.29L423.048 544.56L422.558 548.7L423.618 549.8L420.078 553.3L418.538 557.88L414.918 563.03L414.068 566.01L408.458 571.15L407.068 573.84L404.718 574.74L402.788 578.5L398.048 583.51L396.188 592.25L394.348 596.17L389.178 600.98L386.438 601.96L383.258 602.01L382.018 597.5L380.408 595.28L374.548 595.89L373.128 597.5L372.318 599.92L374.338 603.5L372.588 605.22L372.328 606.54L378.838 618.64L381.578 626.73L381.878 635.56L380.418 639.04L377.878 641.72L376.858 646.53L375.068 644.17L370.818 641.82L368.798 642.2L365.998 640.13L364.998 638.96L364.948 636.94L362.518 636.12L361.798 635.22L360.618 635.3L359.218 631.76L354.718 628.28L353.618 626.53L353.368 624.74L354.638 621.15L353.668 617.04L354.168 613.55L351.138 607.3L349.118 604.61L343.808 604.04L340.938 602.77L337.738 595.89L335.338 593L333.978 592.1L328.728 594.42L327.108 593.77L327.028 592.13L323.408 591.98L318.648 590.66L316.448 591.03L314.248 593.25L311.178 591.13L308.698 591.88L308.068 591.48L306.968 587.52L301.548 585.22L298.248 586.57L293.568 586.3L292.168 587.94L286.218 586.52L283.688 584.73L283.238 583.01L281.708 581.14L279.138 567.28L275.608 564.41L275.538 563.12L273.788 561.14L267.128 558.75L260.558 555.11L259.228 551.97L255.628 550.52L253.428 546.76L247.398 544.46L245.268 540.27L236.538 541.8L232.568 535.74L235.438 534.96L239.298 532.07L242.668 531.32L243.518 530.8L244.118 529.02L240.918 525.16L238.248 519.79L236.348 517.87L225.838 510.59L223.438 510.49L218.558 512.36L214.088 512.73L207.108 508.79L194.578 517.12L190.278 519.25L189.798 514.58L187.148 508.72L189.778 497.74L189.428 492.82L192.428 491.89L194.798 489.2L197.848 487.85L200.178 484.16L204.308 481.21L204.208 478.41L205.028 477.21L208.538 475.44L211.808 472.22L215.158 472.45L221.688 469.82L227.138 469.4L229.068 467.28L231.168 466.72Z" fill="#CCCCCC" stroke="white" stroke-width="0.5"/>
<path d="M47.85 392.01L52.27 392.44L60.28 388.54L62.98 388.16L68.95 385.86L69.95 386.06L70.43 386.96L69.78 390.89L70.3 392.17L78.51 398.1L80.46 402.3L82.53 416L84.53 418.3L84.86 420.95L87.79 424.8L91.39 427.4L95.76 425.05L101.72 426.57L103.62 423.75L106.12 423.25L112.25 420.2L116.77 419.28L120.87 415.68L123.1 417.25L124.37 418.85L124.12 420.93L117.3 427.27L116.22 429.7L122.3 436.25L124.4 440.45L124.62 451.89L126.7 454.46L126.23 459.88L126.68 460.43L131.58 464.7L137.96 466.85L141.63 471.52L142.88 472.2L146.18 471.99L149.09 473.19L152.54 472.39L157.39 469.2L160.42 462.18L162.82 461.95L165.94 462.61L166.47 463.28L166.24 467.03L167.44 469.17L171.64 474.49L177.07 476.89L178.15 478.86L183.9 482.88L184.85 486.83L188.6 490.95L189.43 492.82L189.78 497.74L187.15 508.72L189.8 514.58L190.28 519.25L181.07 523.74L166.74 528.73L150.01 536.58L143.93 538.6L141.11 538.3L139.36 536.68L138.73 534.61L137.76 533.79L132.65 536.73L126.98 538.48L124.37 532.94L124.9 529.6L122.95 524.71L122.9 523.09L119.02 522.61L116.57 523.54L116.85 524.81L113.12 530.22L114.87 532.57L116.17 540.82L115.9 542.37L113.27 541.6L111.67 542.42L103.24 541.82L97.82 538.93L91.39 543.32L89.56 543.89L86.76 544.19L83.51 542.27L82.36 542.37L81.28 543.87L60.15 543.99L56.92 548.38L55.05 549.28L53.62 548.68L49.67 544.21L47.64 542.89L41.04 544.66L24.61 542.34L25.31 541.9L24.01 537.48L24.22 536.45L25.63 535.25L23.39 526.53L21.77 524.92L15.14 523.6L10.97 520.02L10.54 518.9L12.86 516.76L12.43 515.87L15.04 510.79L15.05 509.12L17.2 507.95L17.42 502.06L19.82 498.37L18.11 495.55L16.59 491.1L19.55 481.13L18.95 463.35L17.94 461.47L17.03 461.15L13.84 463.12L13.03 462.54L9.37 463.17L7.45 461.71L5.44 456.83L2.28 453.78L1 451.15L1.79 447.57L1.34 446.37L5.54 445.21L8.53 442.57L11.14 438.85L13.61 436.91L28.22 432.02L30.6 430.53L36.47 421.59L35.85 419.42L36.24 417.21L47.85 392.01Z" fill="#CCCCCC" stroke="white" stroke-width="0.5"/>
<path d="M196.602 286.23L195.642 288.78L196.912 291.39L196.612 294.64L198.222 295.61L199.922 295.24L203.232 297.41L203.162 303.69L205.222 305.3L208.522 305.35L214.572 311.21L214.782 313.34L217.122 315.96L216.142 320.99L218.012 323.42L218.062 325.02L217.312 326.78L214.392 328.76L214.762 330.66L213.542 331.89L213.192 340.28L211.612 343.11L210.862 346.16L212.392 352.85L211.542 355.85L209.782 357.21L208.642 359.81L205.862 360.44L206.312 363.47L203.982 364.84L205.112 366.84L204.862 368.82L207.082 370.3L207.282 373.25L208.332 374.65L208.412 384.64L211.062 390.49L210.912 395.47L211.662 398.12L212.162 399.12L213.962 399.72L216.132 397.92L214.142 399.99L214.462 403.85L215.042 404.5L217.712 405.05L219.712 409.67L220.742 410.55L222.292 410.65L223.292 412.15L225.342 413.22L227.472 412.57L228.472 412.87L228.972 410.8L229.692 410.25L234.822 411.17L236.722 410.02L242.222 413.4L241.372 418.37L239.022 418.15L236.852 420.95L235.542 420.57L234.922 421.18L234.602 422.62L235.702 424L234.292 425.03L234.542 426.45L232.742 426.42L231.892 427.32L230.472 426.27L229.042 427.3L227.492 434.27L227.872 439.6L228.992 441.97L226.992 443.67L225.172 442.97L224.522 444.17L225.342 448.72L226.642 450.49L226.072 452.31L227.342 457.03L227.072 458.71L229.992 462.5L229.942 465.15L231.172 466.72L229.072 467.28L227.142 469.4L221.692 469.82L215.162 472.45L211.812 472.22L208.542 475.44L205.032 477.21L204.212 478.41L204.312 481.21L200.182 484.16L197.852 487.85L194.802 489.2L192.432 491.89L189.432 492.82L188.602 490.95L184.852 486.83L183.902 482.88L178.152 478.86L177.072 476.89L171.642 474.49L167.442 469.17L166.242 467.03L166.472 463.28L165.942 462.61L162.822 461.95L160.422 462.18L157.392 469.2L152.542 472.39L149.092 473.19L146.182 471.99L142.882 472.2L141.632 471.52L137.962 466.85L131.582 464.7L126.682 460.43L126.232 459.88L126.702 454.46L124.622 451.89L124.402 440.45L122.302 436.25L116.222 429.7L117.302 427.27L124.122 420.93L124.372 418.85L123.102 417.25L120.872 415.68L116.772 419.28L112.252 420.2L106.122 423.25L103.622 423.75L101.722 426.57L95.7616 425.05L91.3916 427.4L87.7916 424.8L84.8616 420.95L84.5316 418.3L82.5316 416L80.4616 402.3L78.5116 398.1L70.3016 392.17L69.7816 390.89L70.4316 386.96L69.9516 386.06L68.9516 385.86L62.9816 388.16L60.2816 388.54L52.2716 392.44L47.8516 392.01L50.4216 386.61L54.9716 385.08L57.6916 385.52L59.0416 384.16L59.7916 380.62L61.1616 378.68L63.7916 371.86L66.0416 368.8L65.6316 366.98L66.4316 361.47L68.3316 357.98L70.7516 357.64L73.3316 351.6L72.5116 350.97L72.2516 348.16L74.5216 344.71L72.5116 343.73L73.2816 342.38L74.4916 341.6L75.7216 339.24L76.6716 339.04L91.5716 326.58L94.4216 322.99L94.9916 320.69L97.8116 318.36L98.3216 316.64L103.502 317.96L118.592 317.18L118.562 318.46L119.942 320.85L121.062 321.2L122.052 322.72L123.752 322.35L125.072 322.98L125.942 324.22L134.922 321.88L136.872 320.83L140.812 320.41L146.602 315.86L147.522 312.53L149.042 311.52L152.502 310.64L157.812 310.37L159.792 308.58L164.282 309.29L168.872 306.94L170.232 305.21L178.452 303.47L181.852 299.17L180.672 298.36L180.612 297.2L181.462 296.64L180.232 294.73L182.612 291.37L184.082 291.62L184.482 293.2L187.122 292.71L187.712 291.06L189.372 289.37L189.802 287.71L191.902 286.79L193.552 286.9L193.832 285.66L196.742 284.59L196.602 286.23Z" fill="#CCCCCC" stroke="white" stroke-width="0.5"/>
<path d="M209.482 611.67L211.842 613.21L213.792 616.69L217.442 619.76L220.162 624.89L224.142 630.04L225.942 634.35L227.442 635.95L230.472 638.44L236.102 638.96L241.222 642.35L247.902 643.62L261.862 649.94L266.232 654.95L270.492 662.94L268.612 663.91L265.772 668.81L264.512 668.99L260.022 666.73L255.852 668.47L255.472 670.93L254.672 671.3L248.622 672.54L247.262 671.66L238.352 674.08L237.852 675.67L236.302 677.19L234.092 675.78L233.522 674.22L230.962 674.77L229.272 673.03L225.022 673.91L221.742 673.24L221.722 675.96L220.582 677.36L219.782 677.44L216.972 676.47L215.352 674.51L211.022 673.28L203.592 674.65L198.062 678.64L196.502 681.38L195.042 692.49L193.012 695.8L192.622 697.87L193.362 700.48L188.622 708.87L189.212 712.39L192.112 717.3L187.512 722.8L187.222 731.31L190.332 733.89L189.912 737.31L160.372 792.97L157.922 790.74L158.492 788.22L156.472 781.42L153.502 777.52L152.382 774.37L150.632 772.94L149.892 771.07L150.742 768.73L149.142 765.55L150.722 759.25L149.152 755.44L149.852 752.27L151.162 750.02L148.682 749.05L148.922 745.41L147.682 741.9L149.682 740.9L151.112 739.17L151.222 738L149.672 731.84L148.422 730.74L146.392 726.88L146.322 725.48L144.652 724.85L143.542 723.12L141.502 723.19L140.302 724.3L136.462 720.02L133.022 714.56L131.522 714.43L130.592 713.44L126.182 714.06L125.552 714.82L124.912 714.23L98.7216 683.73L78.3516 662.47L88.7616 656.46L91.1416 654.05L93.2416 653.18L96.7116 653.53L98.0616 656.96L100.572 657.04L103.472 656.21L105.122 654.67L107.422 648.82L111.172 645.31L120.572 640.5L132.252 636.17L136.332 635.6L150.862 634.33L153.942 636.44L163.492 638.74L168.292 641.13L170.692 643.47L175.722 643.19L177.722 643.76L181.872 648.62L183.072 649.09L185.022 647.23L185.882 643.67L192.352 638.21L195.902 633.46L197.132 629.87L196.712 624.99L197.102 620.78L202.912 609.8L209.482 611.67Z" fill="#CCCCCC" stroke="white" stroke-width="0.5"/>
<path d="M605.043 300.56L607.942 302.39L612.522 308.11L615.322 309.28L622.233 310.29L628.603 315.22L631.432 320.94L630.103 333.14L631.132 335.77L633.533 336.57L638.062 336.75L643.113 335.9L645.082 337.22L645.793 339.95L645.113 348.12L646.842 355.18L647.692 364.74L650.462 365.74L650.242 370.75L652.142 374.8L650.692 377.38L651.442 379.16L651.212 380.98L647.992 383.24L647.942 384.81L650.312 386.86L650.842 392.19L653.293 396.39L655.543 397.9L656.392 400.65L657.592 401.22L662.793 401.4L664.793 403.52L662.942 414.3L663.923 417.4L666.122 420.8L666.342 423.2L664.793 426.6L659.622 434.2L660.473 435.6L664.372 437.82L665.442 443.19L667.192 445.87L666.973 449.52L667.692 450.12L673.202 450.66L675.152 458.41L678.053 461.13L678.372 462.13L677.923 470.12L676.553 476.27L674.872 479.09L674.402 483.53L671.272 486.3L670.543 488.55L663.492 483.18L661.942 483.08L652.863 490.22L652.942 494.54L650.562 500.56L645.942 502.23L643.863 501.88L642.312 498.96L639.432 498.48L638.882 495.31L636.632 491.54L637.332 490.1L636.682 487.08L635.082 485.53L633.863 482.13L630.882 481.31L629.103 478.21L626.533 481.76L625.553 481.73L624.783 480.14L623.682 479.54L619.872 483.38L614.452 485.88L609.442 483.51L608.022 484.9L604.372 485.33L601.842 481.18L600.572 480.19L599.092 479.51L596.392 479.54L595.962 481.48L598.492 485.43L598.022 486.98L595.142 489.97L595.642 494.29L593.012 495.64L588.663 496.09L587.712 497.34L588.363 498.71L591.392 500.08L592.293 505.77L589.062 509.66L590.012 515.6L589.142 524.66L587.942 527.25L585.712 529.22L584.312 532.97L587.742 541.05L587.562 542.47L584.793 546.43L583.692 549.3L584.913 556.21L584.793 560.05L584.092 561.17L581.283 562.62L576.082 561.72L570.733 565.26L567.252 566.18L562.502 572.66L554.952 580.64L548.272 584.6L543.973 585.99L543.723 582.99L544.762 579.85L544.053 577.31L537.842 571.29L534.122 566.2L530.932 564.22L528.512 564.04L520.902 559.37L517.353 555.01L511.533 552.27L505.392 546.93L500.692 545.76L497.923 546.37L495.582 545.7L491.872 542.33L490.132 538.12L495.252 535.88L497.632 532.57L498.952 525.88L498.533 522.94L499.603 519.97L499.082 514.93L502.103 507.52L504.252 504.87L504.603 499.76L459.212 500.46L457.632 497.49L455.062 494.91L455.783 493.19L463.312 491.94L472.122 484.85L473.642 482.08L474.042 478.49L473.422 477.04L468.312 475.29L467.612 474.49L467.792 473.47L469.312 472.22L466.392 461.78L466.612 460.91L467.962 459.46L476.322 454.23L478.022 450.74L479.792 450.16L483.352 450.81L483.842 450.44L487.452 444.47L489.252 443.04L487.723 441.02L487.672 439.6L491.002 436.7L488.902 432.77L492.022 423.85L490.303 421.3L488.452 419.87L483.723 418.35L480.973 416.2L479.542 413.62L480.092 411.17L482.392 410.6L486.702 410.85L490.752 413.75L492.402 413.3L490.423 401.22L491.022 397.92L497.202 390.44L499.103 389.42L504.553 383.51L506.082 383.19L507.432 380.96L507.783 378.81L512.882 374.65L514.363 369.07L516.082 366.74L517.012 363.26L516.363 358.78L517.512 355.65L518.182 357.46L522.242 358.56L524.062 361.01L531.363 360.86L534.342 362.36L536.242 361.21L538.742 361.64L539.942 360.31L541.742 362.24L543.793 362.29L545.492 360.91L547.402 360.41L549.402 358.03L552.372 358.36L554.353 357.88L560.983 352.15L562.382 349.14L563.533 344.09L564.733 342.16L568.332 341.58L574.882 343.66L579.033 340.91L582.233 339.88L583.262 338.4L585.212 337.27L586.293 334.54L589.163 331.29L595.012 322.44L600.492 317.71L598.223 313.22L598.242 310.34L601.742 307.73L603.092 302.01L605.043 300.56Z" fill="#CCCCCC" stroke="white" stroke-width="0.5"/>
<path d="M732.15 1.83L734.5 3.1L738.43 1.93L742.34 3.53L749.42 3.99L751.37 5.13L752.51 6.75L762.65 7.96L762.28 9.18L763.01 11.25L766.2 14.18L766.27 15.67L771.2 21.87L773.2 26.73L785.04 34.45L787.7 38.35L790.54 40.69L792.19 43.04L795.06 44.76L797.09 47.68L800.52 49.49L833.5 102.49L836.17 122.8L829.93 134.2L832.37 134.71L831.09 136.59L830.38 140.39L831.31 142.94L833.47 141.93L834.33 143.57L833.09 146.5L831.93 147.63L830.88 152.23L830.93 154L832.34 157.45L831.97 158.6L830.28 158.73L829.18 159.84L828.34 162.45L822.48 167.24L820.84 167.59L818.84 167.64L817.63 167.69L817.46 169.75L816 171.67L814.68 169.87L813.75 167.03L814.55 163.38L815.63 162.04L813.2 161.41L810.78 161.64L806.87 163.88L804.6 167.63L802.17 180.84L797.6 184.09L791.42 184.94L781.67 192.06L780.56 194.12V202.55L779.86 204.41L778.46 205.61L776.76 205.82L774.11 204.83L767.78 205.84L756.68 210.39L743.75 210.49L735.62 215.42L730.29 220.79L726.77 221.12L722.44 219.54L718.51 220.29L718.71 214.94L717.49 213.48L712.64 212.15L708.69 212.17L702.28 210.31L700.23 208.15L695.75 206.14L694.33 204.73L690.68 189.12L691.35 186.05L685.05 182.7L683.2 176.94L677.15 173.32L674.4 169.09L669.79 166.85L667.59 159.58L664.62 156.03L663.24 146.63L658.14 142.55L656.87 138.37L651.01 133.31L649.06 129.63L645.19 129.38L642.06 130.03L640.26 128.82L639.88 124.03L638.63 119.77L639.21 117.08L638.03 113.62L633.91 113.24L631.83 116.95L625.25 120.23L623.75 122.5L621.35 123.78L619.85 127.46L616.57 130.46L612.12 132.12L608.5 131.87L606.04 133.11L602.69 132.95L597.34 135.63L593.84 141.7L591.61 143.18L590.01 142.81L587.49 143.96L583.26 149.23L581.46 148.52L579.38 148.72L575.66 143.23L576.82 144.55L577.72 144.33L577.68 141.39L579.28 139.44L581.24 139.16L581.02 138.12L582.15 136.65L581.97 135.9L585.64 135.71L586.73 131.57L588.24 132.26L588.91 131.86L588.9 127.46L592.19 127.07L592.13 125.84L590.73 125.71L590.31 125.09L592.7 124.81L592.69 123.98L591.59 123.02L593.14 121.24L590.37 119.67L593.66 119.36L592.63 117.41L592.81 115.61L594.19 116.95L596.01 117.29L596.73 116.47L595.5 114.56L596.01 113.16L596.8 112.92L598.96 113.94L599.94 112.74L601.6 112.91L603.65 111.53L603.84 109.1L605.25 106.45L609.81 102.47L611.18 102.14L611.52 98.93L612.33 98.48L612.61 97.06L615.1 95.78L616.14 93.51L616.93 93.21L618.71 93.94L620.08 95.54L621.13 93.54L622.15 95.16L623.55 95.79L625.2 95.34L625.89 93.64L627.23 93.98L628.72 92.53L629.98 88.9L631.12 88.08L633.01 85.29L634.23 84.74L633.79 81.4L635.49 80.27L635.41 78.81L637.17 77.68L637.73 75.65L639.19 75.39L640.35 73.05L642.24 71.93L643.8 73.52L646.27 73.44L648.27 72.81L649.3 71.61L650.6 72.04L651.74 71.38L653.44 71.57L654.1 71.05L652.75 69.64L654.73 68.62L654.17 67.37L656.79 67.53L658.83 65.22L659.66 63.54L658.37 61.1L658.81 60.22L659.96 60.44L660.16 57.95L662.68 55.22L661.16 53.84L661.56 52.29L660.87 50.47L659.23 49.2L657.87 46.47L659.25 42.25L658.72 38.35L659.29 37.02L659.32 33.17L659.94 33L661.57 34.24L664.27 31.77L663.78 28.68L664.37 26.08L663.88 24.25L664.26 20.37L666.56 18.94L668.23 16.28L669.29 15.55L671.16 15.64L672.57 13.51L674.23 14.17L676.19 13.33L678.04 13.57L679.05 14.67L679.72 14.58L679.9 13.39L681.73 14.08L683.46 13.19L684.79 12.13L686.55 12.31L689.98 11.15L692.75 12.53L696.97 12.96L699.03 12.25L700.91 9.99L704.57 9.17L707.21 8.67L709.4 7.91L712.73 5.69L716.63 5.45L717.91 5.13L719.53 4.33H721.5L723.17 2.71L724.41 2.77L725.49 1.73L727.78 1.91L729.13 1L732.15 1.83Z" fill="#CCCCCC" stroke="white" stroke-width="0.5"/>
</svg>
