<svg width="614" height="710" viewBox="0 0 614 710" fill="none" xmlns="http://www.w3.org/2000/svg">
<path d="M521.22 473.64L521.44 473.59L521.9 472.62L521.75 472.22L520.88 472.04L520.57 472.36L520.19 472.42L518.77 471.75L518.01 470.84L517.33 470.13L516.2 469.22L515.74 469.04L515.43 469.13L515.01 469.61L514.74 469.98L514.21 470.05L513.54 469.97L513.19 469.89L512.93 469.66L512.87 469.2L513.08 468.16L513.44 468.07L514.3 468.03L514.58 467.9L515.09 467.09L514.11 465.62L513.7 464.75L513.8 464.02L514.11 463.49L514.53 463.3L514.82 463.27L515.71 463.47H516.15L517.41 463.02L520.26 461.43L521.03 460.76L522.76 459.19L523.32 458L523.74 456.92L524.93 453.61L525.02 451.74L524.24 452.46L523.11 453.28L521.62 452.14L520.48 451.11V450.55L519.16 449.93L518.25 449.64L517.8 449.58L517.21 449.46L516.82 449.23L515.43 447.76L515.33 447.14L515.47 446.51L516.45 445.59L517.49 444.7L517.5 443.95L517.99 442.91L519.19 440.49L519.56 440.5L520.2 440.34L521.63 439.85L521.54 439.31L522.48 439.33L522.77 439.56L523.66 439.79L526.41 440.26L526.61 439.48L527.08 438.78L527.69 438.15L528.16 437.82L528.84 438.09L528.91 438.92L530 440.74L530.3 440.87L530.94 440.93L531.36 441.22L531.83 441.82L532.09 442.35L532.2 443.12L534.19 442.9L534.39 442.11L536.39 441.13L536.87 441.11L537.94 441.61L538.65 442.58L538.68 443.01L538.55 443.37L537.25 445.39L536.79 445.88L536.24 447.43L536.49 447.98L536.58 448.48L536.53 450.71L535.88 451.18L535.73 451.58L536.1 452.13L536.8 452.29L538.97 452.33H540.12L541.04 452.18L542.17 452.14L545.09 452.73L545.57 453.15L546.32 454.82L546.14 455.49L545.81 455.85L545.17 455.95L544.57 457.37L544.63 457.87L544.73 458.44L544.65 459.03L543.91 460.06L543.52 460.17H543.03L542.6 460.03L542.23 459.84L541.56 459.33L541.15 459.04L540.86 458.97H540.48L539.95 459.18L539.2 459.58L538.91 459.69L538.56 459.75L538.28 459.64L537.99 459.5L537.69 459.38L536.88 459.2L536.54 459.36L536.28 459.8L535.89 459.95L534.32 459.76L534 459.62L533.71 459.48L533.35 459.28L532.95 459.18L532.55 459.43L532.46 459.84L532.67 462.13L534.55 462.54L536.37 462.71L537.31 462.84L539.56 463.61L540.04 464.09L540.77 465.62L543.17 468.75L543.61 470.24L541.21 473.72L539.24 474.63L538.91 474.61L538.62 474.66L538.3 474.74L537.73 474.96L537.19 475.36L536.74 477.31L536.59 478.81L537.14 481.25L537.56 481.51L537.99 481.65L538.63 481.95L538.92 482.36L539.27 483.86L538.78 484.27L538.69 484.32L538.39 484.59L537.91 485.24L537.61 485.73L537.33 486.31L536.97 486.73L536.59 486.9L536.15 487L535.77 487.04L535.05 487.38L536 488.44L536.49 488.62L536.97 488.86L537.26 489.38L537.34 489.88L537.57 493.15L538.07 494.39L538.34 495.37L538.4 497.73L538.31 498.38L538.12 498.77L536.31 500.49L535.79 500.71L534.83 500.78L534.52 501.11L533.99 505.64L535.18 507.33L535.61 507.83L535.75 508.52L535.53 509.48L535.32 509.78L533.41 510.71L532.5 512.29L531.4 513.51L530.9 513.67L530.39 513.5L530.01 513.51L529.49 513.7L529.2 513.83L528.89 514.02L528.68 514.33L528.55 514.92L528.8 515.17L529.28 515.5L528.98 517.4L528.84 517.86L528.65 518.26L527.92 519.42L527.57 520.03L527.18 520.92L526.05 524.14L526.1 524.69L526.33 525.11L526.85 525.69L527.25 525.96L527.86 526.11L529.07 527.6L529.38 529.98L529.5 533.33L527.59 534.56L526.67 534.93L525.73 535.45L525.43 535.66L525.18 536.01L525.06 536.46L525.4 537.97L525.49 538.45L525.67 539.83L525.8 541.54V542.52L525.67 543.01L525.3 543.55L523.57 545.26L523.17 545.61L522.91 545.79L522.54 546L522.12 546.17L521.47 546.3L520.91 546.27L520.63 546.35L520.12 546.57L519.68 546.87L519.34 547.3L518.33 548.8L516.92 552.14L516.95 552.6L517.05 552.81L516.81 552.64L512.6 549.01L509.21 546.08L504.29 541.8L504.25 541.6L503.56 541.16L502.78 541L502.39 541.02L501.87 541.22L501.57 541.36L501.26 541.49L500.74 541.45L499.92 540.37L499.55 538.97L500.19 538.04L501.59 536.59L502.34 536.07L503.07 536.51L504.54 537.59L504.82 537.29L504.91 534.72L503.65 534.31L503.28 533.83L503.03 533.58L502.71 533.52L501.9 533.4L502.26 533.02L503.51 532.72L501.44 531.93L499.53 530.2L498.24 528.71L496.91 527.73L496.37 527.72L496 527.56L495.85 526.56L496.21 525.94L497.71 525.02L499.3 525.67L500.23 526.41L500.52 526.91L500.72 527.35L500.98 528.15L501.26 529.95L502.14 530.86L502.57 530.73L501.48 528.02L500.61 526.45L500.53 526.04L500.9 525.83L502.37 525.77L504.12 525.84L504.48 526.1L504.92 526.64L505.72 526.95L507.22 526.93L508.44 526.57L510.98 528.86L511.03 529.88L511.54 531.17L511.74 530.38L512.41 529.68L513.1 529.74L513.43 529.86L513.8 530.1L514.44 530.14L515.13 529.51L515.36 529.22L515.47 528.64L515.51 527.93L515.32 527.46L515.21 528.6L514.94 529L514.36 529.45L514.08 529.51L513.71 529.35L512.49 528.55L511.17 527.02L510.23 525.63L510.1 524.02H511.29L511.41 524.7L511.88 525.32L512.14 525.5L512.45 525.64L513.17 525.84L516.16 526.02L515.54 525.49L514.55 525.18L514.06 525.16L513.69 525.21L513.19 525.34L512.65 525.24L512.03 524.78L509.22 521.31L508.8 520.25L508.88 519.7L509.17 519.27L509.61 518.83L510.02 518.22L509.75 516.83L509.05 516.08L508.4 517.42L508.95 517.82L509.03 518.29L508.42 521.45L508.14 521.76L507.79 521.99L506.1 522.73L504.95 522.5L504.68 522.36L504.32 521.47L503.87 521.39L503.17 521.36L500.78 520.87L499.65 520.61L498.43 520.96L498.07 521.17L497.38 521.29L496.36 521.13L495.97 520.99L495.01 520.49L494.62 519.86L496.57 516.9L497.19 516.48L497.48 516.43L498.71 516.56L499.1 516.7L499.88 517.36L500.2 518.44L500.7 519.78L501.28 520.47L501.78 520.72L502.31 520.79L502.65 520.64L502.25 520.65L501.53 520.42L501.14 520.01L500.91 519.21L501.5 518.2L502.77 517.87L503.52 518.19H503.89L504.5 517.93L504.28 516.24L503.3 516.75L502.78 517.29L501.11 517.65L500.83 517.58L497.82 514.42L497.66 514.03L498.44 512.62L499.91 511.15L500.23 510.5L500.43 510.04L500.62 509.55L502.41 509.26L502.71 509.42L502.85 510L502.87 510.72L503.54 512.09L503.66 512.21L503.54 511.91L503.15 510.66V510.13L503.29 509.43L503.47 509.09L504.51 508.07L506.04 505.67L504.95 504.58L504.63 504.44L504.31 504.41L504.03 504.56L503.61 504.82L503.19 504.68L501.64 502.29L501.39 501.06L501.37 500.55L500.32 500.11L496.35 500.51L496.3 501.68L496.74 501.57L497.32 501.55L498.93 502.04L498.76 502.6L498.36 502.92L497.98 502.94L497.08 502.83L495.96 502.33L492.53 500.69L490.81 499.82L489.86 497.88L489.82 497.28L490.01 496.8L490.78 495.82L491.77 494.81L491.7 493.43L491.38 493.95L491.15 494.61L489.76 496.13L489.22 496.58L488.24 497.22L485.93 497.88L485.35 497.75L484.78 497.7L483.74 498.03L482.81 498.48L482.42 498.8L481.64 500.12L481.93 500.44L482.62 499.86L484.18 498.79L484.57 498.82L484.95 499.06L486.05 502.45L485.92 502.97L485.05 503.59L484.28 503.93L483.98 504.05L483.86 504.07L483.72 504.05L482.85 503.76L481.8 502.5L480.82 500.69L480.72 499.28L480.9 497.4L481.79 496.07L482.07 496.02L482.42 496.05L482.88 496.12L483.54 495.77L485.31 494.21L485.21 493.49L485.86 492.73L486.2 492.42L487.15 491.91L487.78 492.5L487.81 492.75L487.87 491.52L488.09 490.52L489.67 488.78L490.26 488.72L491.54 488.77L493.46 486.67L493.93 485.53L494.86 482.8L495.35 481.13L495.56 480.84L498.66 480.45L499.92 480.14L500.4 480.31L500.67 481.02L501.41 480.52L502.94 480.28L503.22 480.5L503.58 481.03L504.33 483.28L503.94 485.43L503.73 486.02L503.4 486.64L503.09 486.97L502.85 487.2L503.17 487.16L504.07 486.42L504.34 485.35L504.31 484.92L504.19 484.47L504.37 484.09L505.48 485.18L505.58 485.62L505.54 486.21L505.35 486.75L505.16 487.07L504.79 487.48L504.08 488.11L503.33 488.55L502.39 488.99L500.72 489.49L500.28 489.53L499.85 489.34L499.23 488.88L498.89 488.58L498.26 488.16L499.45 489.39L499.77 489.64L500.04 489.81L500.42 489.83L501.83 489.46L502.96 489.13L503.41 488.88L504.15 488.52L504.49 488.45L505.08 490.34L506.56 491.32L506.97 491.5L507.1 491.52L507.25 491.31L506.86 490.72L506.51 490.49L506.05 490.16L504.9 488.77L505.37 487.64L505.7 487.33L506.67 487.24L508.52 489.34L508.46 490.47L508.32 491.23L508.11 491.83L507.87 492.32L506.85 493.6L506.4 494.08L505.23 495.88L506.39 496.77L506.93 496.79L507.33 496.55L507.55 496.26L508.3 494.6L508.48 494.13L508.8 493.03L511.24 489.99L511.8 488.27L513.32 485.92L513.07 485.69L511.7 487.63L511.12 488.64L510.87 489.33L510.44 490.2L510.06 490.67L509.58 490.84L509.53 489.93L509.63 489.51L510.12 488.46L510.34 487.66L510.51 486.79L510.55 486.11L510.19 484.89L509.9 483.99L511.64 480.52L513.09 478.84L513.36 478.55L513.81 478.16L514.19 477.99L514.48 477.95H515.2L515.99 478.04L516.44 477.95L516.74 477.63L514.79 476.97L514.24 477.03L513.63 477.24L513.14 477.65L512.74 478.4L512.54 478.7L511.4 479.8L511.11 479.87L511.25 478L512.04 473.33L513.71 471.76L515.17 470.7L516.3 470.22L516.74 470.64L516.84 471.28L517.28 471.74L517.88 472.26L519.14 473.19L520.05 473.51L521.22 473.64ZM521.29 458.88L521.23 458.96L520.53 459.5L519.87 459.85L518.91 460.88L518.76 461.19L518.6 461.45L518.47 461.59L517.52 462.35L516.65 462.76L516.25 462.9L515.74 462.98L515.51 462.94L515.3 462.8L513.79 461.05L513.68 460.83L513.65 460.6L513.75 460.41L515.15 459.9L515.4 460L515.55 460.12L515.78 460.37L516.38 460.23L516.51 460.13L516.13 459.78L515.21 459.38L514.62 459.75L514.46 459.94L514.31 460.07L514.14 460.08L513.92 459.95L513.77 459.76L513.31 458.81L513.12 458.33L512.86 457.06L513.42 456.22L513.54 456.07L513.97 455.98L514.13 456.01L515.52 455.75L515.7 454.83L515.76 454.05L515.73 453.76L515.78 453.52L516.06 452.74L516.21 452.54L516.39 452.46L518.2 451.86L519.47 451.55L519.63 451.6L521.32 452.98L522.45 453.38L522.72 453.6L523.34 454.66L523.44 454.89L523.4 455.12L522.3 456.73L522.17 456.87L522.01 456.98L521.74 457.04L520.84 456.95L520.68 456.83L520.49 456.61L519.74 456.33L519.76 456.6L519.89 456.81L520.75 457.4L521.18 457.54L521.75 457.66L521.87 457.97L521.67 458.4L521.45 458.74L521.29 458.88ZM488.14 540.87L487.97 540.99L487.63 541.09L486.99 539.55L486.78 538.51L486.47 536.48L486.51 536.14L486.82 535.24L485.38 534.38L484.47 534.85L484.26 534.92L483.92 535H483.63L483.44 534.95L483.17 534.77L483.07 534.58L483.04 534.33L483.11 534.08L483.39 533.84L483.65 533.66L484.05 533.49L484.56 533.45L484.92 533.4L485.14 533.33L485.42 533.18L485.65 532.97L485.89 532.61L486.06 532.27L485.87 532.21L485.21 532.61L483.33 532.84L483.17 532.59L482.65 527.96L482.74 527.72L483.33 526.97L483.74 526.65L485.81 526.07L486.06 526.12L486.23 526.32L487.1 529.06L487.2 529.43L487.3 530.68L487.81 532.32L488.15 533.26L488.56 533.73L489.08 534.65L489.82 536.76L489.98 538.61L489.88 539.01L489.76 539.2L488.14 540.87ZM496.36 540.71L494.62 539.46H494.37L494.13 539.58L493.91 539.65L493.64 539.66L491.98 539.31L491.06 538.78L490.86 538.61L490.78 538.4L490.55 536.83L490.61 536.43L490.74 536.18L490.86 536L491.88 534.86L492.11 534.73L493.04 534.62L493.21 534.66L493.33 534.95L493.63 535.44L493.69 535.73L493.81 535.97L494.44 536.5L495.12 535.66L495.16 535.43L494.98 535.17L494.84 535.08L494.43 534.99L493.94 534.06L493.83 533.81L493.66 533.01V532.74L493.69 532.45L494.3 529.29L494.43 528.96L494.54 528.77L494.72 528.59L494.89 528.68L495.16 529.06L495.26 529.25L495.32 529.6V530L495.4 530.83L495.57 532.33L496.87 534.65L496.58 535.66V536.9L496.65 537.86L496.74 538.23L497.44 539.18L497.64 539.23L497.77 539.06V538.85L497.69 538.64L497.7 538.39L497.88 538.31L498.03 538.38L498.2 538.51L498.33 538.67L498.36 538.98L498.25 539.58L498.16 539.96L498.04 540.14L497.88 540.28L497.15 540.74L496.89 540.84L496.59 540.86L496.36 540.71ZM490.63 535.4L490.43 535.39L490.24 535.29L488.22 530.8L487.33 528.09L487.38 527.47L487.86 527.42L488.78 527.62L490.44 528.03L490.83 528.24L492.02 529.21L493.62 529.62L493.78 529.82L493.81 530.17L493.77 530.61L493.29 533.69L493.17 533.87L492.96 533.95L492.56 533.93L491.82 534.43L491.48 534.68L491.08 535.01L490.63 535.4ZM509.04 469.84L508.17 469.56L507.64 468.93L507.04 468.91L506.24 469.12L505.99 469.13L505.44 469.09L505.25 469L505.09 468.88L504.94 468.62L503.66 467.13L503.22 467.37L502.26 467.59L502.03 467.54L501.89 467.4L501.8 466.9L501.72 466.26L501.73 466.06L501.83 465.65L502.04 465.37L502.53 464.88L502.72 464.72L502.99 464.66L503.32 464.68L503.46 464.76L503.72 464.85L504.37 464.79L505.48 464.59L505.79 464.5L506.32 464.16L506.49 464.03L506.71 463.98L507.02 464.03L507.28 464.12L507.43 464.2L508.3 464.87L508.44 465.01L508.57 465.16L508.68 465.32L509.25 466.25L509.47 466.83L509.49 467.07L509.48 467.33L509.44 467.88L509.04 469.84ZM500.7 525.6L500.17 525.32L498.42 524.6L498.15 524.36L498.14 524.12L499.29 522.84L499.44 522.69L499.7 522.53L501.05 521.81L501.33 521.74L504.53 522.81L506.24 523.51L506.62 523.56L506.83 523.49L507.26 523.12L507.44 523.01L507.59 523.02L507.77 523.14L508 523.42L508.06 523.64L507.98 523.94L507.71 524.74L507.45 524.91L506.98 525.08L506.78 525.1L506.25 525.12L504.72 525.11L504.44 525.07L504.11 524.94L503.91 524.83L503.6 524.77L503.41 524.79L501.11 525.45L500.7 525.6ZM501.48 460.27L501.22 460.23L500.83 460.09L500.57 459.93L500.42 459.81L500.21 459.6L499.9 459.19L499.34 457.97L499.33 457.72L499.37 456.87L499.54 456.7L501.48 456.19L501.7 456.15L502.95 456.16L505.22 456.29L505.7 456.45L505.89 456.54L506.23 456.76L506.37 456.89L506.56 457.11L506.93 457.69L507.01 457.99L504.99 458.54L502.58 459.61L502.23 459.8L501.48 460.27ZM489.98 486.34L489.81 486.16L489.71 485.92L489.55 485.28L489.63 485.06L489.79 484.94L491.47 484.47L491.67 484.56L491.56 484.12L491.2 484.03L490.81 484.18L490.29 484.22L490.06 484.16L489.93 483.87L489.41 482.04L489.49 481.84L489.72 481.65L490.03 481.56L491.33 482.08L491.52 482.18L491.76 482.37L492.64 481.87L493.85 480.76L494.59 480.4L494.92 480.35L495.07 480.69V481.02L495.01 481.34L494.35 484.17L494.26 484.37L494.15 484.55L493.77 485.03L492.25 486.5L492.02 486.62L491.01 486.7L490.67 486.66L490.16 486.49L489.98 486.34ZM482.39 540.64L482.76 540.13L483.2 540.22L483.6 540.1L483.82 540.05L484.2 539.85L484.36 539.72L484.63 539.39L484.71 539.1L484.58 538.97L484.32 539.22L484.08 539.43L483.89 539.53L483.59 539.58H483.39L482.42 539.47L481.75 539.13L481.47 538.49L481.74 536.2L482.16 535.44L482.44 535.37L485.47 535.08L486.16 535.22L486.24 535.53L486.52 538.56L486.45 538.79L485.79 539.39L485.47 539.66L484.56 540.37L484.13 540.67L483.94 540.77L483.72 540.84L483.29 540.89L482.78 540.85L482.5 540.74L482.39 540.64ZM498.7 479.85L498.48 479.77L498.32 479.5L498.17 479.12L498.14 478.85L498.26 478.61L498.59 478.23L498.84 477.87L498.85 477.09L498.71 476.23L498.57 475.59V475.27L498.6 474.99L498.67 474.62L498.73 474.39L498.88 473.95L499.07 473.56L499.3 473.19L499.62 473.07L500.93 473.7L501.17 473.89L501.32 474.08L501.61 474.67L501.75 475.08L502.08 476.13L502.25 476.96L501.98 477.71L501.86 477.88L499.66 479.6L499.49 479.71L498.7 479.85ZM492.6 527.43L492.4 527.42L491.63 527.18L490.76 526.79L490.57 526.68L490.46 526.43L490.67 526.01L490.38 525.76L490 525.67L489.62 525.7L489.34 525.87L489.02 526.26L488.78 526.63L488.57 526.7L488.22 526.77L487.73 526.82L487.43 526.76L487.23 526.57L488.05 525.38L488.45 525.05L488.62 524.93L489.59 524.64L490.04 524.53L490.32 524.54L491.6 523.66L492.58 522.27L493.41 521.85L493.62 522L493.73 522.72L493.75 522.97L493.77 523.76L493.74 526.74L492.99 527.31L492.85 527.39L492.6 527.43ZM510.16 479.48L510.03 479.46L509.78 479.31L508.31 477.64L508.24 475.49V475.17L508.28 474.84L508.36 474.62L508.51 474.34L509.28 473.2L509.43 473.08L509.72 473.03L509.97 473.05L511.01 473.39L511.16 473.62L511.2 474.33L510.73 478.2L510.4 479.26L510.25 479.47L510.16 479.48ZM501.28 464.74L501.14 464.73L500.1 464.45L500.03 464.27L500.23 463.76L502.38 461.68L502.59 461.53L502.85 461.45L503.11 461.46L505.68 462.13L505.86 462.3L506.4 462.99L506.5 463.23L506.34 463.41L505.83 463.72L505.53 463.82L504.65 464.07L504.41 464.09L503.28 464.08L502.55 464.02L502.29 464.1L502.12 464.19L501.28 464.74ZM508.84 458.99L508.65 458.98L507.75 457.72L507.7 455.82L507.76 455.51L507.97 455.32L509.35 454.98L509.59 455L509.83 455.12L510.06 455.34L510.51 456.49L511.05 458.15L511.02 458.36L510.86 458.47L509.31 458.95L508.84 458.99ZM505.32 443.06L504.94 442.62L503.52 442.19L502.86 441.93L502.75 441.77L503.04 440.7L503.22 440.51L503.45 440.4L504.31 440.51L504.54 440.57L506.42 440.29L507.21 439.59L508.21 440.72L508.5 441.61L508.58 442.05L507.3 442.16L507.11 441.98L506.87 441.88L506.8 441.68L507.01 441.51L507.15 441.33L506.94 441.18L506.56 441.13L505.73 441.34L505.65 441.77L505.82 441.97L505.87 442.19L506.22 442.39L505.77 442.95L505.53 443.04L505.32 443.06ZM505.21 471.3L505.02 471.27L503.32 470.62L503.17 470.43L502.85 469.15L503.17 468.73L504.04 468.35L504.26 468.33L504.46 468.42L504.59 468.57L504.77 469.12L504.9 469.27L505.07 469.38L505.3 469.44L505.55 469.48L506.08 469.5L506.33 469.49L506.84 469.39L507.24 469.33L507.62 469.39L507.81 469.49L507.95 469.62L508.15 469.97L508.28 470.37L508.31 470.75L508.16 471.06L508.02 471.12L506.98 471.13L505.75 471.17L505.21 471.3ZM497.74 533.17L497.61 533.08L496.73 531.18L496.69 530.94L496.67 530.56L496.66 530.03L496.68 529.23L497.17 528.51H497.41L497.69 528.75L498.14 529.19L499.68 530.75L500.02 531.44L499.44 532.29L499.28 532.43L497.74 533.17ZM508.45 488.68L507.99 488.25L507.86 488.1L506.15 485.81L506.16 485.47L506.35 484.92L506.51 484.73L506.71 484.66L507.38 484.63L507.64 484.66L508.91 485.22L509.52 485.68L509.72 485.91L509.8 486.26L509.7 486.63L508.93 488.16L508.73 488.54L508.56 488.65L508.45 488.68ZM499.51 455.15L497.93 454.77L497.68 454.54L497.6 454.35L497.42 453.68L497.51 453.39L497.82 453.05L498.02 452.91L500.74 452.08L501.45 452.32L501.94 453.13L502.1 453.44L502.09 453.65L501.75 453.77L500.49 454.09L499.53 454.3L499.34 454.38L499.51 455.15ZM505.41 478.74H505.28L504.53 478.6L504.35 478.43L503.91 477.3L503.64 476.56L503.63 476.14L504.34 475.25L504.81 474.96L505.05 474.94L505.73 475.3L506.39 475.97L506.68 476.57L506.69 476.89L506.57 477.51L506.29 478.28L505.41 478.74ZM482.28 542.96L482.15 542.94L481.98 542.86L481.76 542.61L481.69 542.3L481.79 540.99L482.13 540.95L482.77 541.24L483.41 541.4L483.69 541.44L483.92 541.39L484.08 541.26L484.93 540.48L486.04 539.5L486.71 539.97L486.91 540.55L486.97 540.78L487 541.09L486.72 541.51L486.48 541.71L484.02 542.62L482.28 542.96ZM503.24 475.8L503.17 475.67L503.19 475.44L503.26 474.9L503.33 474.59L503.46 474.43L503.67 474.27L503.68 473.84L503.8 473.57L503.99 473.31L504.13 473.05L504.21 472.83L504.38 472.65L504.59 472.62L504.79 472.75L504.98 472.85L505.24 472.88L505.56 472.87L505.72 472.93L505.88 473.05L506.01 473.2L506.4 473.39L506.59 473.55L506.78 473.65L506.99 473.6L507.34 473.32L507.58 473.23L507.8 473.4L507.86 473.71L507.76 474.12L507.61 474.47L507.51 474.74L507.26 475.16L507.18 475.56L506.99 475.61L506.7 475.41L506.56 475.4L506.34 475.33L506.09 474.96L505.8 474.88L505.52 474.86L505.06 474.66L504.59 474.55L504.44 474.6L504.21 474.79L503.89 474.88L503.67 475.11L503.52 475.5L503.39 475.73L503.24 475.8ZM502.79 508.58L502.61 508.46L501.98 507.65L501.96 507.37L501.98 507.09L502.44 505.74L502.57 505.51L502.72 505.38L502.88 505.33L504.73 505.43L505.54 506.06L504.38 507.71L504.06 508.05L503.9 508.18L503.72 508.28L503.01 508.53L502.79 508.58ZM507.43 463.27L506.89 462.74L506.44 462.22L506.29 461.96L506.21 461.78L506.11 460.3L506.2 459.99L506.42 459.73L506.63 459.6L506.84 459.55L507.15 459.53L507.44 459.66L507.58 459.86L508.48 462.17L508.55 462.78L508.47 463.05L508.37 463.24L508.15 463.43L507.87 463.48L507.69 463.44L507.5 463.35L507.43 463.27ZM501.34 535.9L501.14 535.6L500.99 535.46L500.73 535.27L499.73 534.6L499.43 534.44L498.71 534.16L498.51 533.99L498.3 533.69L498.24 533.47L500.08 532.07L500.32 531.95L500.51 531.93L500.82 532.01L501.02 532.25L501.01 532.6L500.81 533.21L500.8 533.47L500.97 533.8L501.38 534.43L501.65 534.74L501.95 534.97L502.15 535.18L502.08 535.47L501.92 535.61L501.52 535.86L501.34 535.9ZM495.24 478.89L495.2 478.66L495.19 478.28L495.24 478.03L495.5 476.96L495.59 476.76L495.69 476.57L495.88 476.33L496.03 476.21L496.21 476.11L497.01 475.73L497.35 475.74L497.51 475.87L497.57 476.08L497.38 478.01L496.95 479.08L496.76 479.25L496.59 479.36L496.31 479.41L496.12 479.39L495.39 479.22L495.25 479.08L495.24 478.89ZM506.52 484.13L506.36 484.07L506.23 483.86L506.01 483.21L505.99 482.9L506.12 482.58L506.21 482.39L506.6 481.77L506.82 481.5L508.9 480.26L509.1 480.3L509.28 480.61L509.35 480.81L509.42 481.14L509.48 482.18L509.26 482.03L509.13 481.88L508.9 481.83L508.3 481.89L508.02 482.01L507.76 482.97L507.3 483.86L506.52 484.13ZM488.39 522.51L488.45 522.15L488.41 521.91L488.28 521.75L487.67 521.52L487.41 521.47L487.12 521.44L486.87 521.37L486.7 521.12L487.24 520.54L489.01 519.56L489.26 519.68L489.69 520.26L489.87 520.65L490.13 521.49L490.06 521.81L489.85 522.17L489.72 522.33L489.53 522.51L489.12 522.74L488.14 522.93L488.39 522.51ZM504.89 482.69L504.23 481.12L503.89 480.52L503.72 480.01L503.88 479.65L504 479.49L504.52 479.05L504.72 479L505.7 479.35L505.74 480.04L505.69 481.54L505.62 481.84L505.42 482.36L504.98 482.67L504.89 482.69ZM499.74 461.32L499.48 461.28L498.6 460.72L497.72 459.33L497.7 459.04L497.85 458.8L498.01 458.69L498.86 458.41L499.14 458.54L500.76 460.86L500.75 461.07L499.85 461.3L499.74 461.32ZM499.7 472.12L498.36 471.32L498.21 471.2L498 470.99L497.74 470.63L497.68 470.42L497.78 470.14L497.97 469.95L498.26 469.84L498.49 469.81L498.74 469.8H499.38L499.66 469.89L499.85 470.06L500.09 470.37L500.26 470.68L500.8 472.03L500.65 472.19L500.41 472.29L500.13 472.35L499.77 472.24L499.7 472.12ZM504.58 455.29L504.23 455.21L503.78 455.08L503.5 454.93L503.37 454.79L503.3 454.53L503.37 453.12L504.85 453.33L505.22 453.4L505.51 453.53L505.66 453.65L505.81 453.84L505.9 454.08L505.98 454.39L506.01 454.75L505.95 455.05L505.75 455.19L504.58 455.29ZM517.09 444.82L516.67 444.73L515.57 444.18L515.4 443.91L515.32 443.53L515.36 443.21L515.6 442.69L515.78 442.45L516.72 441.94L517 441.89L517.18 441.93L517.33 442.05L517.44 442.2L517.48 442.54L517.27 444.63L517.09 444.82ZM505.12 450.81L504.87 450.79L504.7 450.71L504.15 450.23L503.91 449.9L503.45 448.19L504.32 447.23L504.53 447.28L505.42 448.35L505.92 448.99L505.1 449.29L505.05 449.6L505.06 449.85L505.12 450.81ZM510.11 446.96L509.11 445.16L508.7 444.19L508.69 443.87L508.77 443.56L508.96 443.2L509.08 443.05L509.4 443.06L510.42 444.45L510.73 445.83L510.65 446.35L510.25 446.85L510.11 446.96ZM499.04 537.13L498.75 536.42L498.04 535.12L497.97 534.91L497.95 534.68L498.2 534.41L498.43 534.42L498.8 534.59L499.86 535.2L500.57 535.69L500.82 535.89L500.94 536.13L500.92 536.37L500.73 536.55L500.45 536.7L499.68 537.09L499.32 537.24L499.14 537.21L499.04 537.13ZM500.44 470.12L499.7 469.52L499.48 469.32L499.35 469.17L499.24 468.95L499.26 468.64L499.46 467.58L499.64 467.23L500.01 467.2L500.2 467.3L501.35 468.38L500.92 470.15L500.76 470.27L500.58 470.23L500.44 470.12ZM498.58 458.11L498.04 458.08L496.27 458.09L495.62 457.76L495.63 457.5L495.71 457.3L496.28 456.7L496.49 456.57L496.77 456.52L496.97 456.53L497.33 456.6L498.4 456.84L498.63 456.96L498.74 457.92L498.58 458.11ZM498.6 508.29L498.26 507.57V506.83L498.37 506.65L499.23 506.17L499.44 506.1L499.92 506.04L500.35 506.08L500.66 506.16L500.78 506.32L500.74 506.63L500.61 507.03L500.49 507.21L498.92 508.51L498.69 508.65L498.57 508.42L498.6 508.29ZM489.78 462.66L489.64 462.65L489.43 462.51L488.96 461.12L488.9 460.92L488.87 460.7L488.91 460.44L489.06 460.17L489.37 459.74L489.7 459.65L489.91 459.79L490.68 461.08V462L490.02 462.62L489.78 462.66ZM505.69 452.84L504.21 452.05L504 451.82L503.71 450.7L503.96 450.6L506.21 451.31L506.28 452.94L506.19 453.13L505.91 453.06L505.69 452.84ZM500.59 455.76L500.47 455.73L500.31 455.59L500.1 455.32L499.99 455.1L499.98 454.86L500.07 454.67L501.07 454.2L502.49 454.08L503.25 455.15L502.53 455.35L500.59 455.76ZM504.28 536.4L504.16 536.39L503.86 536.2L502.65 535.37L501.79 534.49L501.66 534.15L501.75 533.85L502.04 533.74L502.3 533.73L502.45 533.74L502.76 533.82L504.14 534.78L504.31 534.91L504.45 535.13L504.51 535.36L504.28 536.4ZM509.65 484.96L509.51 484.95L508.13 484.56L507.78 484.29L507.67 484.03L507.69 483.75L508.37 482.41L508.57 482.26L508.73 482.21L509.36 482.82L509.77 484.84L509.65 484.96ZM509.6 460.86L509.1 460.55L508.83 460.33L508.72 459.52L508.82 459.24L510.42 458.83H510.62L510.81 458.99L510.85 459.21L510.63 460.69L510.38 460.96L510.11 461.02L509.75 460.96L509.6 460.86ZM507.12 448.18L506.03 447.97L505.54 447.82L505.34 447.67L505.21 447.52L505.12 447.35L505.06 447.1L505.59 446.55L505.96 446.25L506.27 446.19L506.42 446.25L507.03 446.68L507.66 447.48L507.56 447.85L507.47 448.04L507.31 448.12L507.12 448.18ZM504.62 461.29L504.26 461.26L502.79 460.65L502.59 460.42L502.85 460.24L503.65 460.12L504.08 460.03L504.28 459.96L504.63 459.77L504.88 459.6L505.14 459.53L505.71 459.67L505.84 459.91L505.75 460.7L505.59 460.89L505.42 460.99L504.91 461.22L504.62 461.29ZM491.04 521.42L490.92 521.41L490.36 520.94L490.24 520.77L489.9 519.54L490.05 519.4L490.38 519.39L491.54 519.64L491.68 519.72L491.94 520.04L492.26 520.58L492.34 520.83L492.18 521.12L491.62 521.34L491.04 521.42ZM494.04 457.88L493.9 457.8L493.61 457.34L493.55 457.14L493.48 456.69L493.47 456.32L493.5 455.54L493.6 455.28L493.73 455.13H493.94L494.7 455.59L494.83 455.8L494.88 456.08L494.86 456.35L494.66 457.56L494.33 457.78L494.16 457.87L494.04 457.88ZM506.35 472.86L505.34 472.56L504.96 472.43L504.88 472.24L504.96 471.97L505.16 471.82L505.8 471.59L506.09 471.55L507.54 471.58L507.72 471.68L507.76 471.97L507.73 472.34L506.73 472.84L506.57 472.87L506.35 472.86ZM507.27 450.93L505.86 450.66L505.69 450.46L505.62 449.78L507.82 449.57L508.05 449.64L508.16 450.37L508.13 450.67L507.93 450.81L507.72 450.86L507.39 450.92L507.27 450.93ZM518.85 439.01L519.47 438.58L520.18 438.44L520.72 439.01L521.08 439.15L521.32 439.17L521.11 439.37L520.21 439.45L518.85 439.01Z" fill="#CCCCCC" stroke="white" stroke-width="0.5"/>
<path d="M516.82 616.45L516.5 616.42L516.02 616.28L515.53 615.03L515.28 612.46L515.18 609.95L514.9 607.98L514.68 607.43L514.03 606.7L514.17 607.24L514.61 608.45L514.77 609.61L515.5 617.17L515.37 617.97L514.95 618.21L514.49 617.95L511.7 615.58L511.42 615.22L511.21 614.54L511.27 613.66L510.83 612.15L510.22 610.47L510.93 610.03L511.08 610.57L512.23 613.06L513.31 614.83L513.77 614.67L512.67 612.24L511.1 608.67L511.64 608.41L512.1 608.09L512.74 607.25L510.68 607.84L509.48 609.43L508.6 607.71L508.19 606.1L507.28 605.87L506.56 605.61L506.23 601.33L506.29 600.79L506.57 600.03L507.87 600.44L509.33 602.12L509.72 603.03L510.45 604.86L510.64 605.87L510.83 605.74L510.92 605.15L509.54 600.98L508.34 596.47L508.91 596.08L509.45 596.93L509.6 597.57L509.31 595.08L508.99 594.71L508.64 594.94L507.26 596.6L506.91 596.87L506.62 596.95L504.01 596.19L503.37 595.68L503.03 593.13L502.17 592.51L501.84 592.25L501.68 589.84L502.02 589.27L502.64 588.81L503.23 588.58L506.5 588.57L506.82 588.79L507.31 589.6L508.33 586.77L508.31 584.48L508.73 583.88L509.95 583.5H510.41L511.23 584.06L511.42 584.76L511.84 585.06L512.27 584.07L511.4 583.19L510.72 583.06L510.14 582.88L509.19 581.79L509.15 581.29L509.42 580.77L509.76 580.66L510.24 580.55L510.61 580.31L510.86 580.01L511.31 578.13L508.67 580.74L508.44 581.22L508.07 582.64L507.67 584.54L507.79 585.09L507.88 585.73L507.73 586.14L506.23 587.6L505.96 587.75L504.59 587.59L503.51 586.32L502.93 584.86L501.91 582.57L501.11 579.82L502.18 579.45L503.48 579.95L503.84 580.21L504.16 580.52L504.5 580.8L504.92 581.01L506.77 581.31L506.06 580.81L505.34 580.57L504.13 579.67L503.51 578.91L501.07 578.69L498.48 576.84L495.42 573.75L495.36 573.09L495.69 572.51L496.19 571.93L496.89 571.43L498.23 570.98L499.07 571.27L500.26 571.13L501.05 572.15L501.34 572.86L502.32 573.99L505.74 575.55L506.65 575.74L506.91 575.75L507.11 575.57L503.34 573.78L503.03 573.8L502.7 573.65L502.26 573.17L499.94 569L500.08 568.09L500.41 567.58L501.39 567.71L502.06 567.92L503.44 569.45L506.77 570.83L506.82 570.17L506.63 569.55L505.09 568.87L503.81 568.32L500.99 566.85L500.6 566.27L500.26 564.8L501.72 563.96L502.47 563.69L503.16 563.57L503.6 563.74L504.18 563.6L504.32 562.92L502.51 563.18L501.25 563.52L500.97 563.44L500.65 562.53L500.56 561.42L500.65 560.89L501.76 559.76L503.63 559.12L503.97 559.02L505.96 559.5L506.21 559.97L506.52 561.22L506.9 561.87L507.42 562.13L507.84 562.26L508.77 563.22L509.14 564.52L509.3 563.82L509.01 562.83L508.66 562L508.39 561.74L507.31 561.64L506.95 560.14L507 558.89L506.42 558.47L505.34 558.61L503.86 558.12L503.63 557.82L503.47 556.31L504.02 553.35L504.23 553.02L504.67 553.03L505.19 553.5L505.36 553.95L505.66 554.43L506.38 554.86L506.82 555L507.37 554.85L506.73 554.47L506.28 554.36L506.02 554.16L505.22 552.84L504.79 549.34L504.96 548.92L505.41 548.31L505.66 548.04L506 547.87L506.45 547.85L506.86 548.13L507.14 548.44L507.63 548.5L507.59 548.02L506.71 547.55L504.57 547.79L504.46 548.68L504.6 550.64L503.65 552.41L503.06 554.24L502.92 555.45L502.43 558.42L502.12 558.88L501.79 558.94L501.43 558.69L499.88 556.6L499.55 554.74L499.52 550.82L499.57 546.53L499.35 545.81L499.05 545.12L498.8 544.03V543.35L498.95 542.88L499.82 541.45L500.4 541.84L500.83 542L501.17 541.92L501.73 541.49L502.17 541.34L503.34 541.45L504.28 541.82L509.2 546.1L512.59 549.03L516.8 552.66L517.04 552.83L518.19 553.15L517.49 553.95L513.41 554.07L512.82 554.11L511.75 556.98L511.15 559.11L511.34 559.51L512.1 560.52L513.08 564.59L512.8 564.99L512.29 565.47L511.9 565.95L511.54 567.89L512.1 568.51L512.45 568.84L512.73 569.24L512.67 569.91L512.28 570.45L511.95 571.14L511.79 571.86L511.99 572.49L513.22 573.44L514.46 574.44L514.7 574.74L514.91 575.13L515.48 576.49L515.64 577.09L515.88 580.31L516.17 582.49L516.92 585.66L517.18 586.09L517.48 586.34L517.88 586.4L518.24 586.31L518.69 586.15L519.18 585.88L519.67 585.44L520.5 584.31L520.78 584.05L521.25 583.76L522.77 583.01H523.18L523.58 583.39L523.83 583.73L524.11 583.98L524.57 584.16L525.03 584.1L525.31 583.89L525.63 583.26L525.94 582.87L526.29 582.69L526.67 582.63L528.39 582.88L529.48 583.74L529.39 584.29L528.85 585.5L528.91 586.05L529.36 586.6L529.68 587.05L530.05 587.75L530.21 588.26L529.88 591.77L529.65 592.22L528.91 592.31L528.04 593.98L528.31 595.13L528.65 595.61L529.01 595.88L529.52 596.16L530.1 596.92L529.91 597.54L529.49 597.98L529.22 598.59L529.2 599.68L529.25 600.58L528.71 602.53L528.4 602.85L527.96 603.18L529.54 607.35L529.98 607.6L530.69 607.72L531.07 607.9L531.36 608.09L531.72 608.36L532.4 608.92L534.22 610.99L534.47 611.6V612.36L534.92 614.24L537.99 614.27L544.55 614.28H555.91L560.52 614.25H562.11L562.9 614.58L565.42 615.73L569.75 617.65L572.22 617.66L572.99 617.65L575.85 618.84L576.44 619.1L577.23 619.67L578.75 620.81L580.19 621.05L581.31 621.22L582.35 621.41L584.34 621.95L584.26 623.09L583.74 622.07L583.3 621.87L580.87 621.46L579.17 621.37L578.88 621.4L577.12 621.06L576.55 620.83L576.26 620.63L575.68 620.1L575.33 619.81L574.64 619.38L574.14 619.15L573.63 619.1L573.31 619.09L572.49 619.17L569.98 620.3L569.62 620.58L569.44 620.97L569.4 621.63L569.33 623.24L568.38 624.83L568.03 625.29L567.29 626.03L567.04 626.39L566.71 626.62L565.2 626.39L564.79 625.98L563.32 626.31L560.09 627.74L559.67 627.96L555.04 630.75L554.59 630.79L552.37 631.07L550.56 631.4L550.11 634.83L550.3 635.5L550.57 635.81L550.56 637.53L549.46 640.76L549.19 641.24L548.88 641.6L548.65 642.11L548.52 642.82L547.99 646.85L548.01 647.62L548.06 648.2L548.22 648.99L548.44 649.6L548.63 650.38L548.74 651.06L548.81 651.95L548.74 652.71L548.24 655.77L547.94 656.39L547.24 657.27L544.57 658.52L543.86 658.79L541.47 657.57L541.04 657.44L540.43 657.36L539.78 657.31H539.46L538.89 657.24L537.97 656.96L535.77 655.33L534.61 655.02L532.97 654.52L532.05 654.01L529.59 651.45L528.74 650.18L528.06 649.07L527.72 648.44L527.26 647.23L527.68 645.21L529.66 643.45L532.1 643.75L532.51 644.86L532.6 645.4L532.54 646.27L532.35 646.84L531.44 647.46L530.45 647.99L531 648.22L532.19 647.86L532.68 647.54L533.51 646.92L533.6 646.42L533.52 645.64L533.39 644.67L533.35 644.16L533.48 643.4L533.82 642.95H535.58L536 643.46L536.72 647.86L536.55 648.44L536.27 648.73L535.82 649.11L534.48 649.88L534.09 650.05L533.59 650.41L533.58 651.1L533.71 651.22L534.41 650.78L536.1 650.13L536.54 649.84L537.14 648.64L537.06 647.07L536.87 645.92L536.96 644.46L537.37 642.77L541.09 640.82L541.52 640.86L541.9 640.85L542.34 640.73L542.64 640.55L542.93 640.33L543.2 640.03L546.05 635.05L546.2 634.46L545.51 633.21L544.26 632.84L542.9 632.75L539.28 634.73L536.26 636.66L535.09 637.64L534.86 638.28L533.37 640.59L532.57 640.82L532.16 640.79L531.64 640.44L531.34 640.05L531.05 639.5L530.79 639.04L530.51 638.75L529.34 638.34L526.3 639.12L525.9 639.59L527.05 639.44L528.47 639.45L530.66 641.34L530.96 641.96L530.79 642.4L528.8 643.01L528.34 642.91L527.79 642.42L526.76 642.1L526.07 642.46L526.43 643.08L526.95 643.31L527.25 643.32L527.69 643.55L526.29 646.3L525.84 646.49L525.1 646.25L524.68 645.66L524.43 645.37L524.55 646.27L525.74 647.67L526.13 647.32L526.54 647.23L527.99 649.45L528.2 650.04L527.95 650.48L526.58 650.7L526.43 650.71L526.04 650.24L523.26 647.94L521.36 646.87L520.27 646.1L519.95 645.65L518.45 644.43L518.16 644.3L517.73 644.28L517.37 644.14L516.4 643.22L515.17 641.47L518.34 641.67L519.46 641.43L520.22 641.55L521.59 642.68L522.6 644.38L522.92 644.71L523.54 644.63L523.77 643.39L522.97 642.67L522.38 642.02L522.87 641.04L523.51 641.19H524.32L523.64 640.71L522.67 640.52L522.27 640.64L521.91 641.06L521.54 641.18L520.31 640.11L520.68 639.66L520.85 639.42L521.16 638.35L520.58 637.55L520.15 636.17L520.03 634.32L520.63 633.55L523.42 631.71L525.36 632.9L527.02 633.45L527.66 633.27L529.35 631.82L531.03 629.84L531.23 629.38L533.56 629.04L535.16 630.19L535.84 630.35L536.63 630.4L537.67 630.36L538.22 630.29L538.63 630.23L539.1 630.07L541.13 629.06L540.52 627.61L540.16 627.32L539.6 627.3L539.25 627.42L538.81 627.41L536.97 627.11L534.85 626.63L531.81 626.25L529.74 626.35L529.24 626.46L528.78 627.05L528.42 627.93L527.69 629.58L525.9 628.06L526.58 627.06L526.97 626.77L527.41 626.8L528.05 626.46L527.75 626.06L526.22 626.56L525.92 626.82L524.72 626.97L522.44 626.96L520.89 628.89L521.14 629.18L522.16 628.51L523.99 629.21L524.03 629.75L522.95 631.33L522.31 631.98L521.37 632.81L520.51 632.99L520.15 633.1L519.73 633.65L519.38 634.26L519.84 635.72L520.22 637.3L520.17 638.32L519.75 639.23L518.25 639.77L518.16 639.85L517.69 640.11L516.57 640.22L514.93 639.53L513.07 637.76L515.03 636.27L516.12 635.11L514.38 634.86L511.55 633.05L512.27 632.47L513.59 632.57L513.94 632.97L516.17 632.7L515.87 631.97L515.82 631.08L518.03 626.15L518.63 625.81L519.85 626.04L520.6 626.27L521.03 626.38L520.64 625.84L519.29 625.54L518.85 625.48L518.43 625.52L517.35 625.74L516.97 626.13L517.18 627.37L517.06 627.82L515.7 629.94L515.16 629.96L514.82 629.73L514.71 629.26L514.67 628.24L514.28 628.01L513.93 628.16L512.33 629.55L511.53 630.38L511.01 631.26L510.78 631.73L509.61 631.17L509.76 628.3L510.52 627.35L511.09 627.18L511.47 627.37L511.65 626.97L510.97 626.75L510.72 626.3L510 624.18L510.01 623.48L510.24 623.05L510.66 623.16L511.08 623.23L511.45 622L511.19 619.83L510.33 618.31L509.21 616.64L508.98 616.02L509.09 615.26L509.49 614.93L509.86 615.34L510.08 616.19L511.78 618.85L512.21 618.91L512.88 618.38L514.58 619.48L514.91 619.57L515.74 619.39L516.06 619.12L516.42 618.11L517.14 616.98L518.1 616.47L519.14 615.95L519.68 616.03L519.72 617.67L519.67 618.74L520.74 620.18L521.38 620.51L521.87 619.95L522.7 616.71L522.54 615.85L522.08 616.33L521.63 617.56L521.65 618.14L521.24 619.11L520.29 618.42L520.28 616.44L521.45 613.47L522.3 613.03L523.83 614.16L523.77 615.47L524.33 616.45L524.89 616.74L525.15 617L525.84 618.35L526.12 619.04L525.53 621.85L525.05 622.42L523.17 623.19L520.51 624.87L520.93 625.03L522.05 624.62L524.69 623.57L525.46 623.07L526.74 621.74L527.07 619.12L526.86 618.62L525.9 617.44L524.49 615.59L524.24 613.61L524.7 613.18L526.34 613.44L526.71 613.26L527.02 612.94L527.22 612.57L527.05 609.56L526.51 608.17L524.35 605.6L523.58 604.87L523.21 604.67L522.59 604.56L521.92 604.54L520.69 603.99L518.73 602.66L518.42 602.12L517.85 601.66L517.24 601.77L516.06 602.11L515.67 602.58L515.86 602.98L516.42 603.22L516.77 603.11L517.33 602.7L518.58 603.08L519.82 603.75L521.62 605.34L523.64 607.39L523.96 607.55L525.6 608.01L525.9 608.41L525.67 609.55L524.81 610.54L523.48 610.66L522.48 609.97L522.13 609.22L519.79 608.16L516.96 606.04L516.05 605.45L515.45 605.53L516.26 607.73L516.73 608.02L517.28 608.13L517.67 608.12L518.17 607.87L518.68 608.19L519.06 608.6L519.53 609.41L518.65 610.89L518.32 611.11L517.76 611.23L516.79 611.55L518.5 611.3L519.39 610.57L519.91 610.25L520.39 610.59L520.54 611.2L520.07 611.7L519.09 612.11L518.22 612.55L517.5 613.02L517.27 613.61L516.82 616.45ZM581.52 680.66L581.5 683.04L581.42 683.13L581.32 683.16L581.08 683.14L580.91 683.05L580.61 682.75L580.1 682.16L579.81 681.94L577.9 681.01L578.47 682.01L578.62 682.2L578.81 682.43L579.16 682.68L579.76 682.93L579.91 683.42L579.61 683.83L579.15 684.05L576.9 684.5L575.39 684.67L575.05 684.66L574.76 684.6L569.51 682.67L568.53 682.28L567.04 681.47L566.9 680.91L566.98 680.64L567.4 680.18L567.47 679.91L567.41 678.38L567.26 678.4L566.17 679.15L566.07 680.61L565.81 681.15L560.85 682.24L559.1 682.36L558.63 682.38L558.15 682.25L557.79 682.01L557.59 681.53L557.54 680.72L557.77 680.35L558.07 679.97L558.82 678.67L558.88 678.34L558.71 678.2L557.48 679.78L557.1 680.61L556.96 681.01L556.95 681.26L556.52 681.42L555.98 681.27L553.19 681.09L551.64 681.89L551.44 681.94L551.27 681.93L550.72 681.79L550.42 681.58L550.22 681.25L550.9 680.38L551.14 680.19L551.36 680.11L551.93 679.99L552.36 679.83L553.22 679.32L554.44 678.52L554.7 678.28L555.53 677.07L555.61 676.78L555.49 676.65L555.2 676.62L554.34 676.66L554.15 676.72L553.2 677.77L553.42 677.99L553.78 678.22L553.68 678.43L553.02 678.85L551.74 679.3L550.72 679.57L549.34 679.51L549.02 678.74L549.22 678.61L549.85 678.62L550.97 678.25L551.12 678.08L550.96 677.91L550.75 677.86L550.6 677.87L549.71 678.14L548.79 678.89L547.7 680.29L547.34 680.39L547.2 680.21L547.21 679.91L547.34 679.61L547.47 679.4L547.68 679.11L547.81 678.89L547.92 678.64L548.3 677.05L548.27 676.53L547.65 676.39L547.27 676.68L547.32 677.03L547.24 677.3L547.03 677.6L545.52 678.47L545.29 678.58L543.98 678L543.7 677.85L543.56 677.65L543.55 677.38L543.73 677.22L543.94 677.19L544.14 676.43L544.08 675.52L543.07 674.16L542.8 674.18L542.12 674.95L541.05 677.75L540.95 678.29L540.8 678.27L540.58 678.14L538.32 676.43L538.15 676.21L537.75 676.16L537.33 676.31L536.73 676.85L536.43 677.27L536.16 677.38L534.8 677.47L534.65 677.45L534.31 677.35L534.09 677.11L533.94 676.65L533.61 675.22L533.5 673.78L533.61 672.64L533.78 672.47L533.99 672.44L534.75 672.73L535.42 673.48L535.62 674L535.67 674.27L535.86 674.58L536.13 674.74L537.19 675.16L538.08 675.47L538.25 675.48L539.58 674.79L537.93 672.87L537.61 672.69L537.42 672.73L536.93 672.98L536.7 672.99L536.08 672.6L535.9 672.35L535.79 671.59L536.6 671.12L536.97 671.08L537.29 671.11L537.44 671.14L537.7 671.41L537.85 672.04L538.83 673.47L539.07 673.66L539.3 673.77L539.83 673.9L540.85 673.49L540.92 673.25L540.67 673L539.83 672.88L539.6 672.76L539.44 672.59L539.21 672.16L539.06 671.62L539.29 671.32L539.48 671.3L541.48 672.18L542.49 671.71L541.82 671.31L542.09 670.93L542.63 670.54L542.85 670.55L545.22 671.99L548.33 672.94L548.8 671.63L548.81 671.3L548.79 671L548.75 670.72L548.62 670.11L548.77 669.83L549.37 669.45L549.93 669.27L550.55 669.24L551.04 669.27L552.58 669.43L552.73 669.46L553.28 669.67L553.36 669.88L552.53 671.16L551.96 672.53L551.66 673.98L551.37 675.93L551.86 675.35L552.94 676.3L552.29 675.08L552.18 674.86L552.04 674.31L552.1 673.9L552.56 672.45L552.67 672.22L552.97 671.76L553.16 671.53L553.71 670.99L553.95 670.98L554.13 671.42L554.33 671.76L555.82 673.05L556.31 673.27L556.49 673.39L556.65 673.54L557.4 674.17L557.55 674.36L557.68 674.56L557.84 674.9L558.03 675.21L558.33 675.34L558.62 675.37L560.2 674.68L558.88 673.68L558.54 673.43L557.94 673.1L557.59 672.94L556.88 672.56L556.62 672.41L556.31 672.2L555.75 671.8L555.58 671.55L554.87 670.29L555 669.82L554.95 669.45L554.74 669.08L554.56 668.84L554.33 668.57L553.98 668.33L553.14 668.05L552.86 668L552.24 667.93L551.02 668L550.52 667.98L550.26 667.91L550.06 667.77L549.79 667.5L549.59 667.16L549.04 664.89L549.58 664.72L549.93 665.03L551 665.82L552.88 666.8L557.19 669.24L559.86 671.73L560.11 671.85L561.09 670.73L561.14 670.48L560.97 670.31L559.95 670.06L559.7 669.97L559.37 669.63L559.24 669.35L559.27 669.08L560.19 668.18L560.72 667.71L560.96 667.53L561.16 667.49L561.31 667.51L562 668L562.49 668.68L563.94 671.86L564.98 674.55L565.33 674.99L565.59 674.86L565.79 673.09L564.85 670.79L564.31 669.55L564.07 669.37L563.76 669.05L563.99 668.44L564.12 668.32L564.44 668.31L565.01 668.47L566.61 669.31L566.94 669.65L567.31 670.15L570.81 671.02L572.7 672.15L572.9 672.29L573.03 672.49L573.1 672.84L573.06 673.11L572 674.42L571.85 674.53L571.32 674.84L571.12 675.07L570.55 676.28L570.38 676.7L570.83 678.02L570.98 678.18L571.13 677.33L571.64 676.05L572.01 675.23L572.17 674.88L572.35 674.64L572.79 674.31L573.09 674.22L573.26 674.29L573.39 674.49L573.58 674.96L573.81 675.57L573.88 675.5L574.22 674.91L574.01 674.07L573.86 673.72L573.84 673.22L573.94 672.85L574.14 672.46L574.3 672.37L574.94 672.38L575.09 672.4L575.51 672.58L576.04 673.05L576.23 673.02L576.42 672.81L576.44 671.92L576.23 671.67L576.03 671.53L575.1 670.95L572.46 669.4L570.51 668.48L570.13 668.35L568.95 667.84L568.75 667.7L568.56 667.47L568.27 667L566.71 666.37L566.31 666.26L566.03 666.21L565.71 666.18L565.43 666.13L565.05 666L563.79 665.5L561.46 663.86L561.21 663.59L561.09 663.3L559.98 659.59L559.58 657.52L559.49 656.96L559.45 656.51L559.5 656.02L559.78 655.5L560.03 655.26L563.27 653.17L563.46 653.12L563.9 653.18L564.21 653.2L564.38 653.21L564.67 653.18L565.41 652.93L571.11 649.74L571.3 649.6L571.49 649.25L571.56 648.78V648.53L571.33 646.09L571.2 645.77L570.93 645.51L568.21 645.28L567.75 645.3L563.64 645.93L563.5 645.97L562.91 646.19L562.4 646.51L561.82 646.99L561.64 647.22L561.32 647.77L561.05 647.94L559.21 648.78L559 648.82L558.85 648.8L558.62 648.69L558.33 648.48L555.73 646.3L555.64 646.06L555.24 644.22L555.15 643.04L555.16 642.72L555.58 638.46L555.66 638.13L555.75 637.89L555.95 637.61L557.03 636.31L557.21 636.48L557 637.04L556.97 637.41L557.25 638.56L557.49 638.62L559.13 638.09L559.36 638L559.66 637.81L559.83 637.65L559.98 637.48L560.11 637.29L560.21 637.06L560.59 635.71L560.63 635.42L560.6 635.04L560.46 634.79L558.98 634.53L558.31 633.46L558.29 633.17L558.16 632.83L557.9 632.54L557.56 632.38L557.13 632.31H556.97L556.69 632.35L556.3 632.43L556.1 632.38L556.02 632.17L556.35 631.69L556.75 631.45L559.36 630.97L559.63 630.93L559.98 631L560.34 631.21L560.49 631.37L560.68 631.66L560.89 632.17L561.37 632.89L561.59 633.16L561.94 633.46L562.29 633.6L562.58 633.64L562.87 633.61L563.21 633.47L565.68 632L565.98 631.73L566.24 631.35L567.53 629.15L567.66 628.71L567.68 628.4L567.6 626.52L567.9 626.17L568.21 625.92L569.82 625.06L570.32 624.9L571.12 625.94L571.25 626.13L571.34 626.36L571.4 626.62L571.43 626.91L571.55 627.19L573.13 629.36L573.29 629.52L573.72 629.9L574.1 630.16L574.49 630.26L574.72 630.25L575.11 630.08L576.72 629.28L578.57 628.06L578.75 627.92L578.95 627.63L580.61 628.3L581.71 629.15L581.7 629.36L581.67 632.74L581.62 644.1L581.63 645.57L581.61 649.66L581.57 657.57L581.54 661.37L581.5 669.53L581.52 670.03L581.5 674.69L581.52 680.66ZM494.37 570.41L494.2 570.37L493.13 569.77L492.85 569.41L493.25 568.64L493.69 568.23L494.59 567.63L494.96 567.47L495.27 567.68L495.76 568.02L495.08 567.1L494.7 567.02L494.29 567.2L493.12 568.16L492.63 568.26L492.27 567.63L492.36 566.59L492.64 564.53L492.14 562.28L492.64 559.02L493.23 558.4L494.07 557.72L495.9 555.17L495.34 555.37L494.47 556.53L492.89 558.39L491.75 559.15L491.53 558.7L491.42 557.81L490.92 558.45L490.87 559.05L490.89 560.17L490.92 561.01L491.16 561.57L491.52 562.07L491.21 564.97L490.77 566.96L490.29 566.85L488.97 565.85L487.94 563.77L486.79 561.11L487.13 559.82L486.85 558.28L486.36 557.39L485.76 556.77L485.27 557L484.83 557.26L484.48 556.09L484.41 555.42L484.39 554.2L484.93 553.51L485.25 553.39L485.56 553.46L486.31 554.8L486.48 555.39L486.99 556.46L488.13 557.94L488.54 558.23L488.66 558.27L488.68 558.09L488.15 557.15L487.64 556.44L487.38 556.1L487.08 555.62L486.47 554.17L486.52 553.13L487.19 552.96L487.5 553.33L488.27 554.61L488.71 554.76L489.92 553.11L490.07 552.69L489.74 551.79L490.22 552.15L491.36 553.55L492.19 554.65L492.6 553.65L493.48 549.44L492.59 548.38L492.07 547.83L491.75 547.61L491.46 547.13L490.69 545.4L490.16 543.92L490.33 542.97L491.36 542.19L493.31 540.83L494.71 540.47L497.56 541.15L497.81 542.03L498.16 545.24L498.5 546.19L498.56 546.64L498.45 549.35L498.9 551.69L498.97 552.16L498.96 554.01L498.58 556.66L498.31 557.66L497.97 558.25L497.84 559.09L498.17 560.07L497.46 560.85L496.76 562.36L496.8 563L497.74 562.04L497.68 561.61L497.72 561.15L498.61 560.96L498.96 561.37L499.29 562.07L499.37 563.45L498.64 567.7L498.45 568.05L497.55 569.15L496.33 570.24L495.88 570.37L494.37 570.41ZM582.51 693.68L582.2 693.64L581.87 693.54L581.58 693.14L581.31 692.47L580.96 692.14L580.54 692.15L580.04 692.55L582.03 694.69L582.82 694.46L583.24 694.19L583.59 694.03L584.03 693.96L584.73 694.09L585.69 694.51L588.26 695.77L588.52 696.28L588.41 696.98L588.18 697.49L588.78 697.68L589.63 697.57L589.04 698.89L589.92 700.37L590.35 700.55L591.04 700.64L590.87 702.65L589.82 703.67L589.64 703.82L589.57 703.85L589.18 703.76L588.99 703.39L588.52 702.65L587.4 701.36L586.84 700.12L587.01 699.19L585.45 697.87L585.17 697.78L584.69 698.38L583.87 698.44L582.91 697.57L581.93 697.51L580.21 697.53L579.64 698.24L578.86 698.58L578.5 698.57L577.87 698.08L577.23 697.32L576.82 696.5L577.29 695.79L578.24 695.5L578.61 695.44L578.96 695.59L579.44 695.48L579.64 694.22L577.82 694.87L577.61 694.39L577.88 692.97L578.31 691.71L578.89 691.08L579.03 690.61L576.79 692.35L575.9 692.57L574.29 692.07L573.93 691.85L573.54 691.47L573.22 690.93L572.82 689.29L570.98 689.63L570.6 689.76L570.28 689.99L571.18 689.91L572.16 690.02L572.56 691.51L571.05 692.08L570.83 693.11L572.05 695L572.09 696.53L573.34 696.82L574.33 696.89L574.21 698.37L573.96 698.63L571.75 698.06L570.28 698.34L569.35 696.16L569.73 695.29L570.48 695.11L570.74 694.87L569.73 694.31L569.34 694.28L568.2 695.28L567.65 694.21L566.36 693.62L566.44 692.85L566.87 692.01L567.97 691.14L568.36 691.02L568.83 690.81L569.17 690.32H568.59L567.96 690.71L566.66 691.71L564.53 692.33L564.17 692.35L563.29 691.5L564.07 691.36L564.37 691.11L563.5 690.17L561.92 690.09L561.68 689.83L561.99 689.12L563.11 687.85L563.62 687.6L565.08 687.26L567.21 687.02L571.19 686.27L573.6 685.64L576.48 685.39L578.75 685.48L579.08 685.41L580.08 684.63L581.22 684.42L583.31 684.2L584.82 684.8L585.71 686.01L585.94 686.99L585.77 687.64L582.51 689.15L582.26 689.53L581.42 689.75L579.67 689.27L578.94 688.8L578.43 688.28L577.98 687.88L577.69 687.66L576.09 686.54H575.79L575.52 687.14L576.88 688.67L577.88 689.29L579.55 690.27L582.1 690.38L584.24 690.42L585.18 690.49L586.65 691.47L587.63 692.56L587.55 693.04L583.32 693.67L582.51 693.68ZM515.05 657.32L515.75 656.83L515.89 654.52L514.01 654.63L513.4 655.08L512.88 655.33L512.46 655.46L511.23 655.49L511.88 654.96L512.29 654.72L512.56 654.4L512.43 653.43L512.01 653.4L511.44 653.46L511 653.4L510.69 653.09L510.71 652.13L510.9 651.64L511.15 651.4L511.76 651.3L512.13 651.6L512.42 651.63L512.75 651.39L513.2 650.95L513.49 650.98L514.58 651.57L514.85 651.95L515.03 652.41L515.39 653.02L515.8 653.28L517.04 653.67L517.45 653.7L518.77 653.66L520.06 653.44L520.04 652.81L519.61 652.82L519.31 653.1L518.34 653.18L517.4 653.07L516.94 653L515.92 652.73L515.47 652.42L513.72 649.59L513.4 648.67L514.02 648.6L514.52 648.78L515.31 649.18L517.93 649.69L517.55 648.47L516.94 647.58L518.32 647.12L519.39 647.24L520.65 647.76L521.19 650.36L520.96 651.44L520.7 652.36L521.15 653.71L522 651.2L522.12 650.45L521.73 649.56L521.39 648.65L522.43 649.03L523.17 649.96L524.04 651.96L525.26 650.98L526.71 651.19L527.36 651.61L527.91 652.56L527.85 653.23L527.42 653.18L527.01 653.33L526.75 653.82L527.35 655.42L527.83 654.72L528.35 654.08L529.92 654.72L530.25 654.98L531.61 656.75L531.11 657.1L530.86 657.17L530.59 658.16L530.12 658.47L529.76 658.43L528.63 658.18L527.71 658.97L527.73 660.69L528 660.92L528.58 661.19L529.04 661.33L528.98 662.45L527.52 662.6L526.02 663.9H525.66L525.35 663.76L524.76 663.03L523.55 663.67L521.93 664.73L521.2 664.72L519.49 663.86L519.06 663.38L519.35 662.97L520.97 662.94L522.61 661.85L523.31 657.71L522.26 657.15L521.87 657.4L520.95 658.21L520.5 658.41L519.25 658.33L519.16 657.78L519.11 657.15L518.59 656.93L517.99 659.44L517.97 660.03L517.54 661.7L516.25 661.11L515.75 659.86L515.26 658.51L514.95 657.56L515.05 657.32ZM589.62 683.59L590.99 683.6L592.45 683.77L593.69 683.89L595.66 683.98L596.56 683.89L596.88 683.87L598.68 683.86L599.29 683.92L600.26 684.15L600.79 684.3L601.27 684.5L601.61 684.67L602.16 684.97L602.42 685.22L604.01 687.67L604.04 689.26L603.67 690.34L603.48 690.74L603.35 690.95L601.48 693.44L601.34 693.55L600.72 693.63H600.55L599.11 693.19L598.87 693.09L598.56 692.89L598.37 692.65L598.28 692.4L598.32 691.99L598.61 691.63L598.77 691.37L598.81 691.1L598.71 690.87L598.42 690.56L598.13 690.34L597.76 690.21L597.34 690.11L597.05 690.1L596.78 690.17L596.3 690.38L596.13 690.55L596 690.76L595.85 691.12L595.71 691.74L595.75 692.36L595.59 692.54L595.37 692.58L593.33 692.43L593.08 692.34L592.32 691.88L592.53 691.61H592.72L592.7 691.17L592.27 690.4L592 690.5L590.13 691.51L589.67 691.79L589.57 691.8L589.26 691.76L589.02 691.66L588.81 691.52L588.55 691.26L588.45 691.02L587.89 688.36L587.98 687.94L587.66 685.59L587.38 685.66L586.08 685.73L585.65 685.19L585.46 684.33L585.69 684.01L585.85 683.92L587.74 683.6L589.62 683.59ZM514.21 643.96L515.16 643.78L515.33 643.84L516.37 644.54L517.98 645.68L518.14 645.95L517.99 646.29L517.78 646.41L517.63 646.42L516.01 646.32L512.47 645.38L512.34 644.73L512.25 644.45L511.27 644L510.86 643.13L509.22 641.56L508.99 641.62L507.61 640.25L506.73 639.11L505.53 639.38L504.93 639.7L504.25 640.13L500.91 640L500.58 639.8L500.23 638.41L499.18 637.1L498.9 637.09L498.01 636.86L496.86 635.95L496.74 635.68L496.86 635.27L497.13 634.14L496.74 633.51L496.6 633.41L496.24 633.33L495.57 633L495.37 632.87L494.64 631.89L495.24 630.98L495.42 630.96L496.08 631.41L498.13 633.42L498.93 634.37L499.48 635.66L500.1 636.37L501.68 636.73L501.86 636.41L502.44 636.25L503.4 636.07L504.89 636.65L506.71 637.72L507.6 638.5L508.19 638.87L509.26 639.41L510.15 639.44L510.17 638.99L510.85 639.16L511.45 639.96L511.55 640.15L511.8 641.16L511.66 641.44L511.44 641.72L511.31 642.04L511.83 643.46L511.98 643.71L512.2 643.83L512.74 642.85L512.59 642.41L512.45 641.88L512.31 641.06L512.49 640.81L512.7 640.79L512.96 640.87L513.37 641.05L514.93 643L514.99 643.27L514.21 643.96ZM543.89 661.77L544.23 663.28L545.38 663.53L546.65 662.97L547.62 663.65L547.75 663.93L548.01 665.77L548.07 667.99L546.35 670.65L546.18 670.81L545.92 670.79L545.67 670.54L545.13 669.83L544.32 669.64L542.98 669.02L541.62 666.47L541.55 666.06L541.66 665.66L541.83 665.5L542.28 665.46L542.49 665.34L542.59 665.15L542.04 664.25L540.87 665.22L540.33 666.82L540.25 667.08L540.21 667.62L538.77 667.29L538.52 667.12L538.22 666.36L538.07 665.85L537.96 665.39L538.02 665.06L538.86 664.04L538.5 661.24L538.67 660.7L538.97 660.33L539.2 660.15L539.8 660.03L541.23 660.06L542.55 660.64L543.64 661.24L543.77 661.36L543.89 661.77ZM554.66 666.98L554.53 666.94L553.33 666.45L552.75 666.18L552.21 665.88L552.03 665.73L550.74 664.52L550.47 664.21L549.63 662.65L549.36 660.22L549.34 659.92L549.36 658.56L549.47 658.33L550.24 657.76L550.95 657.49L551.18 657.53L552.41 657.95L552.72 658.23L552.9 658.3L553.05 658.32L553.31 658.17L553.5 657.85L553.51 657.55L553.37 657.2L553.12 656.88L552.93 656.74L552.31 656.44L552.18 656.24L552.1 655.92L552.04 654.35L552.12 654.01L552.55 653.88L552.75 653.75L552.94 653.61L553.19 653.37L553.51 653.02L553.71 652.73L553.82 652.5L553.94 652.11L554.05 651.63L554.16 651.32L554.28 651.11L554.5 650.92L555.16 650.81L555.38 651.04L555.31 652.81L555.25 653.08L555.17 653.35L555.13 653.64L555.11 654.13L555.12 654.44L555.16 654.73L555.86 658.07L556.68 660.17L557.2 661.61L557.15 661.98L556.86 662.31L556.56 662.41L556.03 662.44L555.88 662.42L555.61 662.35L555.38 662.24L554.99 661.96L554.55 661.56L554.17 660.95L553.99 660.72L552.65 659.39L552.56 659.65V659.96L552.73 660.76L552.82 661L552.93 661.21L553.22 661.59L553.47 661.84L553.61 662.03L553.89 662.49L554.5 664.48L554.6 664.87L554.83 666.69L554.66 666.98ZM538.35 660.09L537.64 660.83L537.79 661.1L538.1 661.42L538.61 663.41L538.56 663.8L537.73 665.03L537.47 665.36L537.27 665.41L537.12 665.39L536.59 665.23L536.38 665.1L536.2 664.94L535.98 664.66L534.78 662.74L534.75 662.36L534.81 661.84L534.69 661.63L534.47 661.64L534.31 661.99L534.29 662.31L534.36 662.64L534.85 664.34L535.37 664.99L535.57 665.11L535.91 665.3L537.3 667.06L537.31 667.43L537.18 667.72L536.05 669.57L535.9 669.67L535.69 669.66L534.48 669.38L534.22 668.88L534.41 667.57L532.17 665.3L530.88 663.9L530.69 663.67L530.55 663.4L530.46 663.16L530.05 660.6L529.99 660.06L530.06 659.67L530.66 659.55L530.81 659.54L530.96 659.57L531.83 659.94L532.03 660.16L532.2 660.64L532.8 660.63L533.54 658.86L533.77 658.19L534.14 657.99L534.43 657.87L537.57 659.03L538.54 659.53L538.48 659.92L538.35 660.09ZM490.21 575.81L489.91 576.28L488.17 578.62L487.99 578.83L487.67 578.95L486.63 578.87L486.48 578.81L486.42 578.6V578.27L486.58 577.91L487.08 577.59L487.48 577.09L488.11 576.17L487.91 575.98L486.95 576.25L486.25 576.71L484.8 577.34H484.61L484.46 577.19L484.47 576.83L484.66 575.28L485.01 574.05L485.39 572.97L485.5 572.68L485.67 572.46L485.86 572.36L486.12 572.34L486.36 572.43L487.31 572.83L487.37 573.05L487.22 573.29L487.08 573.38L486.68 573.46H486.11L486.02 573.64L486.23 574.03L486.44 574.21L487.04 574.53L488.18 574.81L488.94 574.69L488.89 573.6L488.73 572.92L487.75 572.61L486.68 571.92L485.55 570.96L485.3 570.16L486.46 569.24L486.7 569.21L488.95 569.77L489.12 569.91L490.99 572.19L490.29 572.88L490.08 573.13L489.97 573.36L490.58 573.39L492.92 572.82L493.17 572.26L493.03 572L493.63 571.73L493.84 571.98L493.98 572.46L493.94 573.21L493.69 573.91L490.96 575.52L490.76 575.63L490.21 575.81ZM494.97 594.01L492.63 592.89L491.56 590.95L491.5 590.71V590.35L491.56 590L491.94 589L492.11 588.87L492.93 588.94L494.59 589.38L495.38 589.7L496.45 589.11L496.53 587.34L496.49 586.9L496.35 586.58L495.97 586.18L495.8 586.1L495.56 585.95L495.47 585.74L495.54 585.5L495.85 585.31L496.36 585.43L497.34 585.89L498.23 586.49L499.37 587.64L499.49 587.93L499.55 588.31L499.91 591.99L499.62 593.29L499.47 593.46L499.29 593.37L499.23 592.92L499.01 592.11L498.61 591.5L498.39 591.41L498.23 591.46L496.61 592.44L496.33 593.38L496.22 593.57L495.05 593.98L494.97 594.01ZM557.13 683.38L557.53 683.43L557.67 683.58L555.82 684.44L555.21 684.5L554.93 684.74L554.89 685.14L554.94 685.56L554.81 685.79L553.24 686.04L552.75 686L552.37 685.87L552.05 685.67L551.88 685.77L551.71 686.19L552.84 686.67L555.15 686.97L556.97 686.67L557.19 686.65L557.93 686.62L558.07 686.7L558.16 687.19L558.37 688.69L557.95 689.1L557.57 689.14L557.38 689.07L557.21 688.91L557.08 688.53L556.72 688.13L556.43 688.07L556.28 688.01L555.8 688.4L555.75 688.97L555.88 689.18L556.26 689.39L556.57 689.44L556.73 689.54L556.82 689.78L556.67 690.13L554.57 691.1L554.31 691.07L554.17 690.87L554.09 690.53L554.05 690.07V689.44L554.3 688.89L553.49 687.93L552.17 689.04L551.86 688.97L548.78 687.8L547.77 686.97L547.66 685.03L547.85 684.79L548.06 684.66L549.63 684.32L550.8 684.59L551.4 684.78L552.06 685.11L553.83 685.17L554.08 685.03L553.3 684.69L553.4 684.44L554.84 683.61L555.03 683.55L555.9 683.51L557.13 683.38ZM502.24 588.15L501.86 587.11L501.69 586.9L501.38 586.67L500.74 587.01L500.67 587.25L499.44 586.78L498.03 585.65L497.89 585.48L497.21 583.96L497.1 583.63L497.03 583.19L497.09 582.93L498.16 581.89L499.16 580.86L498.09 580.41L497.94 580.4L497.44 580.58H497.23L495.72 579.8L496.57 579.02L496.75 578.88L497.21 578.58L497.47 578.47L497.66 578.5L500.04 580.08L501.31 583L501.84 584.26L502.63 586.31L502.7 586.76L502.67 587.29L502.5 588.02L502.36 588.12L502.24 588.15ZM563.45 686.95L563.56 686.24L563.54 685.94L563.29 685.39L562.87 685.25L562.79 684.88L563.11 683.33L563.25 683.22L564.1 682.91L564.24 682.88L565.81 682.61L566.57 682.64L570.59 683.5L571 683.6L573.4 684.37L573.94 684.88L573.69 685.05L573.23 685.09L570.57 685.76L569.18 686.18L567.08 686.56L565.51 686.83L563.45 686.95ZM506.4 631.17L506.27 631.16L506.07 631.03L504.22 628.86L504.1 628.59L504.11 628.36L504.42 627.5L504.56 627.32L505.38 626.36L507.65 624.21L508.53 623.63L508.73 623.6L508.93 623.66L509.11 623.81L509.26 624.07L509.87 625.36L509.05 628.27L508.26 630L508.15 630.22L507.95 630.51L507.7 630.63L507.46 630.55L507.31 630.57L506.83 630.86L506.4 631.17ZM491.15 602.28L491.02 602.27L490.7 602.05L490.78 601.46L491.78 600.67L492.52 600.34L492.82 600.18L493.87 599.02L493.99 598.74L493.84 598.7L492.31 599.56L492.01 599.8L491.72 599.7L491.56 599.44L491.5 599.13L491.55 598.86L491.67 598.65L493.94 596.21L495.05 595.89L496.5 595.83L497.14 596.59L497.25 596.79L497.61 597.8L497.5 599.68L497.32 599.99L496.73 600.67L496.59 600.76H496.26L496.08 600.62L495.58 598.95L495 599.26L494.7 599.94L494.08 601.27L493.88 601.38L493.27 601.51L492.73 601.55L491.95 601.65L491.7 601.79L491.15 602.28ZM486.33 586.82L484.95 586.44L484.66 586.32L484.51 586.15L483.68 583.84L483.8 583.56L484.45 582.89L484.91 582.6L485.11 582.58L485.32 582.62L485.68 582.87L485.76 582.23L485.32 581.17L484.91 580.82L484.42 580.47L484.45 580.16L485.13 579.54L485.45 579.5L488.35 580.14L489.58 580.21L489.72 580.36L489.63 580.66L488.21 582.54L487.98 582.6L487.82 582.58L487.56 582.51L487.34 582.41L487.09 582.19L487.05 582.82L487.11 584.27L487.17 585.92L486.94 586.63L486.69 586.8L486.46 586.88L486.33 586.82ZM488.44 567.08L488.2 566.66L487.38 565.66L487.04 565.54L487.16 566.21L487.27 566.61L487.28 566.84L487.09 566.94L486.75 566.81L486.3 566.35L486.03 566.02L485.66 565.28L485.65 565.01L485.71 564.74L484.9 564.11L483.31 565.63L483.03 565.52L482.64 564.63L482.57 564.41L482.41 561.73L482.99 560.96L485.54 560.72L485.71 560.77L485.88 560.91L486.09 561.16L486.61 561.91L488.18 565.13L488.25 565.35L488.54 566.94L488.44 567.08ZM491.43 617L491.18 616.53L490.14 613.6L491.38 610.25L491.62 609.92L492.05 610.39L492.1 610.63L491.93 610.95L491.96 611.2L492.31 611.27L492.78 611.2L493.08 611.1L493.41 610.7L492.98 607.94L492.56 606.8L492.18 606.61L491.98 606.42L491.95 606.17L492.11 605.92L492.38 605.72L492.58 605.62L492.87 605.55L493.77 605.89L494 606.2L494.06 606.44L494.27 608.47L494.34 609.22L494.12 610.18L493.41 612.99L492.66 615.33L491.95 616.59L491.74 616.86L491.57 617H491.43ZM487.33 549.11L486.54 546.66L486.41 546.35L484.99 547.06L484.53 547.95L484.41 548.13L484.2 548.3L483.89 548.34L481.9 546.78L481.8 546.59L481.72 546.39L481.67 546.02V545.76L481.7 545.46L481.75 545.2L482 544.51L482.16 544.29L483.26 543.92L485.76 544.09L485.99 544.17L486.53 544.4L486.7 544.54L487 544.97L488.13 548.07V548.34L487.59 548.93L487.43 549.06L487.33 549.11ZM491.68 553.37L490.35 551.79L488.25 551.08L487.61 550.64L487.64 550.28L487.77 549.99L488.16 549.29L488.35 549.02L489.28 547.84L491.34 547.97L491.72 548.27L492.5 549.15L492.56 549.92L492.55 550.2L492.04 553.79L491.84 553.63L491.68 553.37ZM486.58 605.88L486.47 605.54L486.51 603.76L487.1 603.12L487.71 602.15L487.84 601.01L487.88 599.41L487.86 599.03L487.89 598.71L487.96 598.45L488.07 598.24L488.73 597.64L488.96 597.48L489.14 597.47L490.93 599.06L491.05 599.75L491 600.41L490.93 600.67L490.71 600.84H490.52L490.31 600.65L490.05 600.6L489.91 600.7L489.03 602.7L489.09 603.09L489.11 603.5L489.08 603.87L488.98 604.19L488.81 604.59L486.89 605.82L486.73 605.88H486.58ZM503.16 623.37L502.52 622.87L501.99 621.84L501.89 620.02L501.99 619.79L502.21 619.62L502.37 619.55L502.67 619.59L503.01 619.76L503.17 619.92L503.53 620.13L503.7 620.07L503.13 618.82L502.98 618.65L502.62 618.37L501.38 617.95L500.57 618.07L500.34 618.15L500.01 618.12L499.73 617.99L499.33 617.66L499.3 617.36L500.26 616.45L500.51 616.31L500.79 616.21L500.94 616.2L501.15 616.32L501.33 616.46L502.45 617.43L503.39 618.4L503.98 619.09L506.14 621.75L506.13 622.07L505.53 622.52L503.73 623.46L503.27 623.48L503.16 623.37ZM483.68 553.24L483.55 553.22L481.96 552.35L481.74 552.19L481.66 551.98L482.44 550.43L483.2 549.91L483.4 549.86L483.67 549.99L484.39 549.31L484.79 548.22L485.46 547.35L485.71 547.15L485.96 547.04L486.13 547.1L486.34 547.61L486.88 549.15L486.94 549.45L486.66 550.03L486.42 550.4L486.29 550.56L484.26 552.77L483.68 553.24ZM495.28 589.03L494.14 588.93L493.57 588.76L492.07 588.23L491.89 587.95L491.53 586.39L491.6 585.63L491.68 585.38L492.54 584.27L493.53 583.92L493.74 583.99L494.62 584.83L495.79 587.43L495.82 587.69L495.67 588.53L495.47 588.98L495.28 589.03ZM502.9 613.19L501.93 613.01L499.9 611.77L499.14 610.8L498.07 607.67L499.91 608.29L502.78 610.64L503.94 611.44L503.92 611.69L503.32 612.97L503.17 613.14L502.9 613.19ZM547.03 684.78L546.79 684.76L545.75 684.26L544.96 683.58L543.26 684.66L543.04 684.77L542.09 684.5L541.42 683.01L542.17 681.61L542.85 681.67L545.04 682.14L545.96 682.43L546.35 682.72L546.83 682.93L547.18 682.86L547.49 682.67L547.71 682.38L547.88 682.34L548.62 682.89L549.06 684.06L548.77 684.19L548.3 684.2L547.03 684.78ZM509.14 619.46L509.06 619.26L508.67 618.54L508.02 617.54L507.04 616.5L506.77 616.29L505.91 615.69L504.08 614.59L503.88 614.46L503.63 614.24L503.61 613.43L503.87 612.5L504.37 612.12L504.55 612.16L504.82 612.37L507.23 614.58L507.97 615.29L508.48 615.81L508.61 616.07L509.34 617.74L509.65 619L509.66 619.37L509.58 619.79L509.36 619.78L509.14 619.46ZM504.9 609.72L504.58 609.63L504.37 609.52L502.39 608.05L502.09 607.79L501.86 607.48L501.84 607.06L501.95 606.85L502.61 606.71L503.23 606.72L503.97 605.45L503.74 604.07L503.83 603.84L503.96 603.74L504.17 603.78L504.4 603.99L506.29 608.78L506.28 609.14L506.08 609.38L505.9 609.51L505.54 609.7L505.24 609.78L505.09 609.79L504.9 609.72ZM599.97 705.65L599.99 704.88L599.86 704.75L599.1 704.55L598.25 704.77L596.93 704.3L596.87 703.66L597.06 702.44L598.68 700.65L599.51 700.22L599.76 700.21L600.97 703.89L601.2 704.89L601.13 705.17L600.81 705.45L600.5 705.57L599.97 705.65ZM492.84 617.54L492.75 617.5L492.46 616.95L493.92 611.99L494.03 611.68L494.33 610.99L494.49 610.65L494.65 610.41L494.83 610.39L496.68 610.65L496.62 611L494.28 616.18L494.13 616.36L492.94 617.46L492.84 617.54ZM529.48 663.35L530.27 664.08L530.7 664.96L530.08 666.3L529.37 667.58L529.08 667.69L527.55 667.78L527.01 667.7L526.7 667.5L526.54 667.32L526.4 666.34L528.17 663.64L528.46 663.35L528.95 663.1L529.32 663.13L529.45 663.24L529.48 663.35ZM507.49 623.39L506.9 622.64L506.43 621.29L505.21 620.25L504.11 618.82L504 618.62L503.88 618.12L504.09 617.81L504.54 617.55L504.7 617.56L505.37 618.01L505.96 618.96L507.93 620.05L508.22 620.39L508.39 620.69L508.45 620.94L508.81 622.52L508.75 622.89L508.56 623.14L507.95 623.48L507.6 623.47L507.49 623.39ZM513.33 646.99L513.64 647.13L513.82 647.43L512.81 648.8L513.72 650.09L513.82 650.45L512.48 651.2L512.19 651.09L510.28 649.95L508.53 648.62L508.31 648.28L508.06 647.81L508.11 647.56L508.35 647.57L508.86 648.13L509.33 648.49L509.63 648.7L509.87 648.8L510.02 648.83L510.61 648.88L511.82 648.42L511.8 648.17L511.67 648.05L511.23 647.82L511.43 646.91L513.06 646.95L513.22 646.96L513.33 646.99ZM488.06 547.23L487.78 546.63L486.6 543.03L487.06 543L487.77 543.23L487.98 543.33L488.38 543.54L488.86 543.84L489.34 544.2L489.51 544.39L489.63 544.56L489.83 544.94L489.9 545.16L490.16 546.25L490.12 546.5L490 546.69L488.55 547.31L488.3 547.32L488.06 547.23ZM499.13 596.15L497.23 595.24L497.03 595.05L496.61 593.82L496.67 593.18L498.18 592.07L498.42 592.04L498.58 592.12L498.75 592.41L499.63 594.24L499.71 594.46L499.75 594.72V595.35L499.41 596.14L499.23 596.18L499.13 596.15ZM501.21 596.42L500.62 593.41L500.42 592.14L500.27 590.01L500.37 589.79L500.74 589.77L501.02 590.37L501.87 593.12L502.37 595.15L502.48 595.98L501.67 596.99L501.47 597.1L501.27 597.08L501.16 596.88L501.19 596.5L501.21 596.42ZM558.11 668.12H557.94L557.64 668.07L555.73 667.28L555.46 667.13L554.9 666.28L554.79 666.06L554.76 665.76L554.85 665.33L554.98 665.04L555.17 664.99L555.45 665.05L557.95 666.05L558.78 666.58L559.03 666.98L558.99 667.36L558.82 667.65L558.46 668.04L558.27 668.1L558.11 668.12ZM515.57 664.72L514.69 664.24L512.94 663.43L512.79 663.18L513.91 662.15L514.44 662.13L514.91 662.16L515.88 662.29L516.06 662.37L516.85 662.81L516.92 663.06L517.16 664.25L516.95 664.5L516.7 664.56L515.57 664.72ZM606.64 691.65L606.92 691.95L607.24 693.19L607.02 693.78L606.57 694.14L606.3 694.22L604.76 694.14L604.05 694.08L603.91 693.96L603.76 692.73L604.17 692.07L604.49 691.88L605.6 691.44L606 691.4L606.27 691.46L606.51 691.56L606.64 691.65ZM517.83 615.47L517.77 614.99L517.85 614.56L517.95 614.25L518.05 614.02L518.65 612.74L518.78 612.64L519.92 612.06L521.05 611.64L520.98 612.38L519.6 615.27L519.21 615.43L518.41 615.71L518.11 615.76L517.96 615.67L517.83 615.47ZM504.11 600.03L503.94 599.91L503.77 599.68L503.52 598.15L503.53 597.92L503.69 596.83L503.8 596.62L503.96 596.54L504.23 596.51L505.27 596.68L505.63 596.92L505.72 597.24L505.9 598.4L505.86 598.92L504.51 600.07L504.11 600.03ZM489.16 543.77L489.06 543.72L487.52 542.72L487.48 542.39L488.34 541.26L489.84 539.54L490.03 539.5L490.13 539.76L490.18 539.99L490.24 540.35L490.23 540.63L490.2 540.93L489.83 542.5L489.48 543.48L489.33 543.72L489.16 543.77ZM494.44 580.28L494.13 580.18L494.03 580.01L494.47 577.87L495.27 577.26L495.43 577.2L495.69 577.21L496.55 577.31L497.44 577.6L497.48 577.83L497.28 578.18L496.09 579.22L494.92 580.19L494.71 580.28H494.44ZM499.12 560.71L498.98 559.86L498.82 557.88L498.92 557.01L498.99 556.67L499.16 556.6L500.01 557.35L500.37 557.69L500.51 557.92L501.14 559.28L501.07 559.48L499.31 561.01L499.12 560.71ZM489.45 611.97L489.33 611.85L489.26 611.62L489.64 609.46L489.9 608.55L489.99 608.31L490.21 608.04L490.52 607.8L490.8 607.7L491.16 607.77L491.46 608.07L491.51 608.43L491.38 609.29L491.13 610.22L490.91 610.91L490.77 611.18L490.61 611.35L489.98 611.9L489.65 612.02L489.45 611.97ZM503.3 601.71L502.44 601.22L501.87 600.81L501.7 600.6L501.5 599.39L501.46 598.7L501.52 598.28L502.62 597.89L502.81 598.01L503.56 600.06L503.64 600.29L503.67 601.5L503.59 601.75L503.41 601.79L503.3 601.71ZM610.74 692.97L610.08 692.8L609.94 692.6L609.86 692.17L609.85 691.92L610.09 690.9L611.33 690L611.66 689.98L611.88 690.01L612.86 690.47L613.03 690.91L611.74 692.56L610.89 692.97H610.74ZM555.49 681.93L555.84 682.03L556.12 682.17L556.46 682.64L556.31 682.91L556.13 682.97L553.51 683.51H552.45L551.71 683.07L551.51 682.72L551.71 682.52L552.19 682.24L553.72 681.8L554.78 681.68L555.41 681.9L555.49 681.93ZM490.07 586.96L489.89 586.76L489.78 586.56L489.44 585.56L489.41 585.15L489.88 583.79L490.07 583.68L491.15 583.72L491.27 583.9L491.31 584.22L491.2 587.18L491.03 587.31L490.57 587.26L490.07 586.96ZM527.08 671.88L526.91 671.8L526.2 670.84L525.98 669.82L527.57 668.91L527.88 668.94L529.41 669.57L529.48 669.83L529.34 670.34L528.35 670.79L528.18 670.78L527.08 671.88ZM494.92 615.78L495.05 615.27L495.14 615.02L495.3 614.78L497.49 612.57L497.99 612.88L498.27 613.24L498.26 613.92L498.1 614.38L497.28 614.94L495.59 615.99L494.97 616.3L494.82 616.17L494.92 615.78ZM557.08 665.22L556.93 665.2L555.67 664.28L555.27 663.85L555.08 663.55L555.01 663.21L555.11 662.97L555.25 662.86L557.66 662.4L557.79 662.61L557.95 663.07L558.03 663.56L557.7 664.51L557.49 664.97L557.32 665.13L557.08 665.22ZM507.47 651.63L507.31 651.54L507.01 650.37L507.17 648.5L507.31 648.3L507.5 648.33L509.34 649.62L509.64 649.89L509.61 650.2L509.49 650.42L508.05 651.4L507.84 651.51L507.61 651.59L507.47 651.63ZM513.59 636.5L513.18 636.55L512.99 636.52L512.51 636.02L512.4 635.81L512.55 635.5L512.79 635.47L512.93 635.39L512.43 635.06L511.87 634.86L510.72 634.76L510.46 634.8L509.2 635.06L508.9 635.24L508.75 635.06L509.5 634.35L511.25 633.93L513.34 634.53L513.52 634.67L514.1 635.39L513.92 636.44L513.59 636.5ZM508.11 610.12H507.97L507.63 610.05L507.37 609.9L507.26 609.7L506.04 607.18L506.02 606.73L506.13 606.52L506.46 606.5L507.4 607.01L508.14 607.99L508.56 608.95L508.54 609.23L508.11 610.12ZM596.08 708.46L595.62 707.23L595.46 707.12L594.63 707.13L592.95 707.62L592.76 707.54L592.62 707.33L592.6 706.93L592.81 706.41L593.26 706.29L593.42 706.27L593.8 706.41L594.08 706.48L594.65 706.59L596.14 706.63L596.68 706.22L596.84 706.14L597.48 706.33L597.72 706.65L597.3 707.83L597.14 708.02L596.47 707.79L596.3 707.81L596.08 708.46ZM604.56 685.81L605.25 686L606.8 686.58L606.98 686.82L607.54 688.71L607.33 688.82L607.05 688.69L603.88 686.5L603.72 686.16L603.79 685.9L603.91 685.76L604.19 685.71L604.46 685.78L604.56 685.81ZM494.57 621.63L493.7 620.75L493.55 619.58L496.03 618.95L496.36 619.04L496.43 619.28L495.41 621.22L494.98 621.51L494.7 621.62L494.57 621.63ZM508.25 599.91L507.22 599.68L507.08 599.58L506.73 599.23L506.43 598.33L506.52 598.1L506.85 597.72L507.41 597.18L507.65 597.12L507.9 597.2L508.15 597.35L508.34 597.55L508.47 597.73L508.58 597.93L508.67 598.32L508.64 598.8L508.43 599.66L508.34 599.89L508.25 599.91ZM490.91 541.83L490.57 541.8L490.38 541.65L490.36 541.37L490.87 540.11L491.11 539.78L492.32 539.79L493.03 539.89L493.45 540.1L492.15 541.35L491.91 541.55L491.72 541.65L491.29 541.79L490.91 541.83ZM494.23 618.63L493.98 618.56L493.85 618.37L493.79 618.13L493.81 617.65L494 617.15L496.51 615.67L496.69 616.13L495.5 618.18L494.62 618.56L494.37 618.62L494.23 618.63ZM594.42 701.46L594.28 701.27L594.79 698.69L595 698.38L595.31 698.18L595.52 698.19L595.76 698.45L595.91 698.64L596.13 698.93L596.27 699.13L596.42 699.54L596.38 700.4L595.66 700.96L595.35 701.18L594.97 701.32L594.42 701.46ZM559.8 686.12L559.65 686.1L559.44 685.98L559.23 685.76V685.5L559.42 685.27L559.59 685.11L561.64 684L561.88 683.9L562.09 683.91L562.23 684.03L562.4 684.29L562.41 684.66L561.92 685.41L560.58 685.95L559.8 686.12ZM504.42 643.55L504.35 643.83L503.72 644.9L503.32 645.16L502.43 645.45L502.18 645.42L502.03 645.32L501.78 645L501.74 644.74L502.52 643.96L503.12 643.42L503.72 642.97H503.89L504.09 643.1L504.39 643.38L504.42 643.55ZM601.28 708.28L599.82 707.49L598.94 706.75L599.03 706.4L599.18 706.29L599.44 706.2L600.23 706.26L601.27 706.6L601.76 707.3L601.81 708.19L601.28 708.28ZM507.22 612.03L506.08 611.81L505.92 611.65L505.8 610.58L506.23 609.71L506.41 609.57L506.59 609.6L506.75 609.75L506.89 609.92L507.16 610.27L507.78 611.29L507.72 611.62L507.42 611.91L507.22 612.03Z" fill="#CCCCCC" stroke="white" stroke-width="0.5"/>
<path d="M558.1 26.98L560.39 26.87L562.62 25.48L564.84 23.81H568.74L570.97 25.48L573.19 25.2L573.47 23.53L574.86 22.14H577.01L576.83 22.55L577.76 24.22L579.43 25.38L580.03 25.91L581.2 27.25L581.43 27.47L581.91 27.7L582.28 27.8L582.72 28.03L583.57 28.78L584.25 29.75L582.72 31.34L582.42 31.74L582 32.36L580.79 33.8L580.75 34.38L581.66 35.03L582.5 35.75L583.12 37L582.35 39.06L581.88 39.03L581.31 39.11L579.51 39.6L579.4 39.98L579.66 40.31L580.31 41.83L580.56 43.35L580.11 43.56L579.83 43.88L579.86 44.64L580.05 45.04L580.26 45.35L580.74 45.86L581.15 46.14L581.61 46.37L582.03 46.54L582.45 46.68L582.75 46.81L583.56 47.37L583.92 47.76L583.85 48.06L583.32 48.38L583.04 48.62L582.53 49.32L582.52 51.39L582.6 51.71L582.63 51.75L581.56 51.68L578.98 51.34L577.73 51.5L577.41 51.58L577.14 51.74L576.99 52.1L577.2 52.4L577.6 52.64L578.72 53.08H579.11L579.47 53.05L580.25 52.88L580.66 52.98L580.83 53.36L580.72 54.01L580.58 54.42L580 55.49L579.77 55.85L579.59 56.24L579.5 56.67V57.15L578.18 57.72L576.4 57.91L572.58 59.06L568.02 60.13L566.95 60.37L565.96 60.01L565.08 59.86L563.48 59.68L563.12 59.65L561.57 59.73L561.36 59.81L560.9 58.92L560.83 58.44L561.16 57.93L560.38 54.96L560.04 54.19L559.73 53.54L559.97 52.71L560.23 52.22L560.12 51.43L559.89 51.01L559.65 50.82L559.12 50.35L559.71 44.2L560.13 42.83L560.2 42.42L559.83 41.48L559.99 40.34L560.18 39.9L560.32 39.46L560.35 38.29L560.34 37.87L560.14 36.87L559.63 32.91L559.2 30.6L558.7 28.77L558.07 27.62L558.1 26.98Z" fill="#CCCCCC" stroke="white" stroke-width="0.5"/>
<path d="M583.37 52.41L583.75 52.47L584.11 52.43L584.53 52.42L587.3 56.88L587.88 57.85L587.92 62.6L588.15 62.88L588.59 63.48L588.83 63.95L589.07 64.67L589.28 65.81L589.32 66.15L589.34 66.72L589.32 67.22L589.35 67.96L590.61 69.27L590.95 69.47L591.36 70.15L591.66 72.2V72.73L591.52 73.13L592.12 75.06L592.7 77.03L592.21 79.45L592.32 81.22L593.5 81.98L596.55 82.34L600.02 81.6L602.18 81.12L603.3 82.33L604.78 83.9L604.11 85.77L603.46 87.57L602.82 89.37L602.64 89.89L600.01 99.62L595.69 101.57L592 103.22L587.86 105.04L586.96 105.46L586.62 106.22L586.03 106.99L585.36 106.88L585.01 107.1L583.98 108.67L583.34 109.69L582.87 110.61L582.49 111.43L582.44 111.92L582.77 112.79L583.45 113.19L585.51 116.72L584.59 117.21L583.65 117.36L583.5 117.5L583.24 117.93L582.96 119.04L582.19 119.03L581.61 119.18L581.16 119.46L580.58 119.95L580.1 120.4L579.76 120.65L579.41 120.73L578.7 120.69L578.15 120.61L577.69 120.68L577.19 120.88L576.78 121.1L576.47 121.31L575.75 121.88L575.46 122.66L575.32 123.75L575.03 124.3L574.72 124.31L574.86 127.07H570.69L570.13 128.74L568.74 129.02L567.35 130.69L565.12 129.02L563.99 127.5L563.8 127.52L562.84 127.43L562.42 127.35L561.9 127.31L561.39 127.52L561.12 127.67L560.59 128.01L560.26 128.3L558.45 129.39L557.44 129.49L556.12 129.69L555.51 129.81L555.11 129.91L554.75 130.04L554.48 130.18L554.22 130.34L553.43 130.93L552.75 131.87L553.14 131.17L553.2 130.86L553.15 130.35L552.87 129.49L552.47 129.07L552.19 128.75L551.72 127.6L552.17 125.95L552.41 125.22L553.11 123.7L553.96 122.58L554.48 122.19L555.71 120.54L555.95 118.89L555.96 117.99L555.64 117.13L554.97 116.21L555.05 114.14L554.6 113.22L554.34 112.37L553.82 110.4L554.05 107.94L554.33 105.44L554.45 104.69L554.27 104.37L554.52 103.09L554.74 102.3L554.9 102L555.01 100.93L554.94 100L554.7 99.45L554.69 98.92L554.83 96.99L555.02 95.93L555.45 95.36L555.82 95.07L556.05 94.65L556.34 93.93L556.47 93.51L556.56 93.15L556.55 92.51L556.43 92.03L556.25 91.55L556.06 91.32L555.58 90.98L555.18 90.78L554.87 90.91L554.48 91.77L553.27 91.55L553.59 89.68L553.66 87.43L553.94 84.89L554.44 84.32L554.95 84.09L555.06 84.77L555.34 85.14L556.19 84.98L556.65 84.75L556.93 84.5L557.17 84.21L557.34 83.94L557.75 82.97L558.05 82.12L557.97 81.67L557.85 81.34L557.71 80.64L558.09 78.42L558.45 75.45L558.67 73.34L558.95 71.03L559.16 70.06L559.46 68.93L560 65.07L559.94 64.6L559.92 63.57L560.17 62.75L560.82 62.19L560.9 61.43L561.36 59.81L561.57 59.73L563.12 59.65L563.48 59.68L565.08 59.86L565.96 60.01L566.95 60.37L568.02 60.13L572.58 59.06L576.4 57.91L578.18 57.72L579.5 57.15V56.67L579.59 56.24L579.77 55.85L580 55.49L580.58 54.42L580.72 54.01L580.83 53.36L580.66 52.98L580.25 52.88L579.47 53.05L579.11 53.08H578.72L577.6 52.64L577.2 52.4L576.99 52.1L577.14 51.74L577.41 51.58L577.73 51.5L578.98 51.34L581.56 51.68L582.63 51.75L582.7 51.91L583 52.24L583.37 52.41Z" fill="#CCCCCC" stroke="white" stroke-width="0.5"/>
<path d="M582.42 120.24L582.13 121.45L582.07 121.76L582.03 122.24L582.08 122.62L582.69 124.49L583.44 126.07L583.55 126.46L584.1 129.01L584.88 133.01L584.6 133.46L583.74 134.25L583.17 134.65L582.81 134.94L582.54 135.29L582.35 136.03L582.3 136.52L582.24 137.39V137.71L582.26 138.47L582.34 138.79L582.48 139.11L582.87 139.72L584.36 141.49L586.36 144.59L586.47 144.92L585.97 146.68L585.53 146.95L584.99 147.24L584.72 147.37L581.38 148.51L580.68 148.05L580.05 147.95L579.44 147.99L579.08 148.19L578.51 149.11L578.23 149.64L578.07 150.13L578.2 150.74L577.71 152.1L575.7 155.89L575.3 156.35L574.73 157.99L574.63 158.65L574.13 160.7L574 161.07L573.81 161.49L573.59 161.79L573.18 161.89L572.66 161.94L572.13 162.21L571.7 163.21L571.54 163.92L571.35 164.28L570.67 165.15L568.77 167.3L567.73 168.17L567.02 168.7L566.92 170.96L566.82 171.51L566.37 171.76L565.73 173.03L565.72 173.83L565.82 174.19L565.96 174.55L566.05 175.09L565.57 176.53L565.12 178.64L565.15 179.51L565.06 179.91L564.88 180.2L564.42 180.51L563.52 180.61L562.68 181.62L561.7 183.08L561.62 184.07L561.7 184.44L562.07 185.24L562.61 187.05L562.66 187.24L560.95 187.08L558.44 185.97L557.33 185.41L555.36 184.85L555.44 184.41L555.47 183.78L555.27 183.11L555.1 182.85L553.23 180.67L552.9 180.33L552.51 179.96L552.05 179.65L551.64 179.4L551.18 179.27L550.09 180.12L549.53 181.24L548.42 184.02L546.19 184.3L545.08 182.63L544.15 180.61L543.95 180.73L543.66 180.86L541.94 181.25L541.4 181.36L540.87 181.34L541.09 180.11L540.67 177.96L540.63 176.66L540.75 176.26L541.24 175.71L542.53 174.46L543.68 173.05L543.8 172.19L543.87 171.22L544.22 170.52L544.62 169.89L545.57 167.87L545.65 166.03L545.66 164.73L545.9 161.64L546.4 159.76L546.72 158.82L547.25 157.83L547.78 157.09L548.39 156.8L549.12 156.25L549.43 154.07L549.19 153.22L548.8 151.62L548.37 149.16L548.49 148.77L548.67 148.34L548.99 148.09L549.83 147.91L550.54 146.93L550.95 146.13L550.72 145.15L550.48 144.62L550.4 144.2L552.12 139.91L552.26 139.37L552.41 137.38L553.04 135.25L552.61 133.65V133.12L552.75 131.87L553.43 130.93L554.22 130.34L554.48 130.18L554.75 130.04L555.11 129.91L555.51 129.81L556.12 129.69L557.44 129.49L558.45 129.39L560.26 128.3L560.59 128.01L561.12 127.67L561.39 127.52L561.9 127.31L562.42 127.35L562.84 127.43L563.8 127.52L563.99 127.5L565.12 129.02L567.35 130.69L568.74 129.02L570.13 128.74L570.69 127.07H574.86L574.72 124.31L575.03 124.3L575.32 123.75L575.46 122.66L575.75 121.88L576.47 121.31L576.78 121.1L577.19 120.88L577.69 120.68L578.15 120.61L578.7 120.69L579.41 120.73L579.76 120.65L580.1 120.4L580.58 119.95L581.16 119.46L581.61 119.18L582.19 119.03L582.96 119.04L582.89 119.11L582.6 119.75L582.42 120.24Z" fill="#CCCCCC" stroke="white" stroke-width="0.5"/>
<path d="M540.87 181.34L541.4 181.36L541.94 181.25L543.66 180.86L543.95 180.73L544.15 180.61L545.08 182.63L546.19 184.3L548.42 184.02L549.53 181.24L550.09 180.12L551.18 179.27L551.64 179.4L552.05 179.65L552.51 179.96L552.9 180.33L553.23 180.67L555.1 182.85L555.27 183.11L555.47 183.78L555.44 184.41L555.36 184.85L557.33 185.41L558.44 185.97L560.95 187.08L562.66 187.24L562.69 187.38L562.73 188.11L562.63 188.56L562.56 189L562.65 189.37L562.83 189.63L563.29 189.94L563.33 190.06L563.47 191.35L563.43 193.29L563.27 194.2L563.18 194.62L564.06 196.32L564.37 196.59L564.55 196.98L564.51 197.74L563.55 199.94L562.99 200.72L562.14 201.09L561.69 201.14L561.38 201.09L560.21 201.83L559.11 203.79L558.53 205.08L558.29 205.75L557.62 208.16L557.46 209.25L557.4 209.92L557.45 210.34L557.97 210.98L557.92 211.54L556.97 212.59L556 212.93L555.7 212.61L554.71 213.68L554.56 214.05L554.15 216.38L554.04 218.82L553.88 219.83L553.77 220.39L555.59 224.86L555.76 225.13L556 225.46L556.26 225.63L556.81 225.75L557.79 225.69L558.07 225.85L558.74 226.62L558.81 227.07L558.35 228.36L557.75 228.45L557.15 229.1L557.61 231.47L557.55 232.09L556.21 232.26L555.81 232.02L555.69 231.63L555.47 230.83L555.07 230.49L554.68 230.37L554.39 230.36L554 230.37L553.35 230.26L552.69 229.78L552.67 229.37L552.62 228.82L551.64 228.22L547.3 228.35L546.86 229.06L546.18 229.82L545.88 230.02L542.92 230.7L542.32 230.67L541.93 230.53L541.28 230.2L540.88 230.21L540.55 230.43L540.24 230.77L540.33 229.18L540.48 228.38L540.57 227.99L540.69 227.32L540.7 225.88L540.62 223.86L540.21 222.88L539.86 221.19L539.85 220.16L539.79 219.72L539.06 216.27L538.51 214.05L538.41 213.74V213.22L538.59 212.33L538.66 210.82L538.49 210.24L538.27 209.85L538.2 209.48L537.89 207.12L537.9 205.41L537.95 203.8L537.99 202.92L538.24 200.23L538.71 199.1L539.14 198.94L539.31 199.21L539.78 199.39L540.12 199.41L540.63 199.16L542.12 197.66L542.4 197.16L543.06 193.87L543.77 193.15L543.74 191.92L543.31 191.47L543.05 190.5L543.11 187.3L543.32 186.07L543.5 185.52L543.49 185.15L543.03 183.62L542.83 183.28L542.48 182.94L541.72 182.39L541.37 182.19L541.07 181.96L540.91 181.6L540.87 181.34Z" fill="#CCCCCC" stroke="white" stroke-width="0.5"/>
<path d="M561.44 266.31L561.43 265.95L561.33 265.61L560.97 265.35L560.29 265.08L559.83 264.59L559.76 264.24L559.81 263.11L559.64 262.41L559.39 262.22L559 262.25L558.6 262.54L558.26 262.63L557.26 262.29L557.39 261.42L556.83 259.57L556.51 259.28L556.01 259.11H555.51L553.84 259.76L553.28 260.11L552.24 260.19L551.85 260.06L550.68 260.79L548.81 262.96L548.75 263.35L548.8 264.07L547.63 264.34L546.27 264.38L546.23 264.36L545.07 262.66L543.28 261.89L542.38 260.23L540.08 260.36L538.67 259.78L539.43 259.29L539.89 257.72L540.2 257.71L541.01 257.75L541.73 257.97L542.2 257.94L542.9 257.19L543.52 254.85L542.99 253.55L542.78 252.38L542.79 252.04L543.17 251.84L544.17 250.83L544.61 250.26L544.73 249.87L544.7 248.67L544.89 248.31L545.77 248.16L546.64 248.14L547.63 247.47L547.58 245.35L547.4 244.58L547.53 243.95L547.82 243.81L549.46 243.18H551.42L552.76 243.51L553.49 243.78L554.07 244.33L554.26 244.99L554.75 245.7L555.09 245.73L556.01 244.95L556.34 244.99L557.33 246.09L558.79 246.74L559.98 245.7L560.7 245.31L560.91 245.73L560.82 246.51L560.68 247.02L560.76 247.47L562.11 249.49L562.46 249.44L562.75 248.92L563.15 248.51L563.5 248.45L563.89 248.58L564.91 249.15L565.32 250.99L565.2 251.42L564.83 251.85L563.97 253.84L563.47 257.64L563.48 258.47L563.76 259.57L564.27 263.08L564.71 265.43L563.71 266.18L563.05 266.13L562.72 266.04L562.31 266.03L561.7 266.15L561.44 266.31Z" fill="#CCCCCC" stroke="white" stroke-width="0.5"/>
<path d="M542.32 230.67L542.92 230.7L545.88 230.02L546.19 229.82L546.87 229.06L547.31 228.35L551.65 228.22L552.63 228.82L552.69 229.37L552.71 229.78L553.37 230.26L554.02 230.37L554.4 230.36L554.7 230.37L555.09 230.49L555.49 230.83L555.71 231.63L555.83 232.01L556.23 232.25L557.57 232.08L557.68 232.4L558.66 232.83L558.85 233.36L559.94 235.61L560.05 236.12L559.97 236.74L560.54 237.37L561.43 238.26L562.71 239.92L562.84 241.33L562.23 242.35L561.83 243.58L561.11 244.54L560.71 245.32L559.99 245.71L558.8 246.75L557.34 246.1L556.35 245L556.02 244.96L555.1 245.74L554.76 245.71L554.27 245L554.08 244.34L553.5 243.78L552.77 243.52L551.44 243.18H549.47L547.83 243.81L547.54 243.96L547.41 244.59L547.59 245.35L547.65 247.47L546.66 248.14L545.79 248.16L544.9 248.31L544.71 248.67L544.74 249.87L544.62 250.26L544.19 250.83L543.18 251.83L542.8 252.03L542.79 252.37L543 253.54L543.54 254.85L542.92 257.18L542.22 257.93L541.75 257.96L541.03 257.74L540.22 257.71L539.91 257.72L539.45 259.29L538.11 260.16L537.61 260.79L537.11 260.7L536.57 260.58L536.2 260.27L535.53 260.29L535.96 258.73L536.45 257.57L536.83 257.43L537.33 257.33L537.74 257.12L538.24 256.68L538.5 256.01L538.58 255.67L538.67 255.13L538.8 253.84L538.02 250.73L537.85 248.76L537.14 246.23L537.28 245.92L537.96 245.96L539.79 244.61L540.45 242.76L540.8 240.45L541.39 239.29L541.55 238.8L541.61 238.28L541.62 235.87L542.12 234.24L541.22 232.68L540.63 231.79L540.24 230.78L540.56 230.43L540.89 230.21L541.29 230.2L541.94 230.53L542.32 230.67ZM3.98003 148.41L3.24003 148.7L2.80003 148.69L2.63003 148.73L1.85003 149.14L1.47003 149.4L1.30003 149.54L1.05003 149.48L1.03003 149.14L1.38003 147.97L1.46003 147.78L1.55003 147.65L1.77003 147.38L2.12003 147.32L4.24003 147.86L4.27003 148.04L4.18003 148.24L3.98003 148.41Z" fill="#CCCCCC" stroke="white" stroke-width="0.5"/>
<path d="M512.26 337.25L512.32 337.26L512.6 337.4L513.04 337.64L514.21 338.42L517.95 334.74L518.18 334.29L518.28 333.94L518.39 333.39L518.13 332.96L517.63 332.71L517.11 331.3L518.81 328.7L519.22 328.21L519.38 326.59L519.19 326.23L518.29 326.15L517.98 325.77L519.29 324.13L521.24 323.84L521.84 324.17L522.44 324.56L522.95 324.86L524.9 325.33L526.11 325.3L526.98 326.32L527.38 327.3L528.26 328.56L528.91 328.96L529.21 329.08L529.69 329.16L530.2 329.29L530.56 329.47L531.78 330.52L531.95 330.95L532.41 331.52L532.71 331.73L534.85 332.09L536.61 331.92L537.03 331.8L537.52 331.99L537.98 332.66V333.4L537.92 333.95L537.89 334.54L537.95 334.96L538.23 336.02L538.41 336.38L538.92 336.75L539.15 336.29L539.34 335.84L539.57 335.59L540.83 334.99L541.76 334.5L542 334.27L542.22 333.66L543.7 333.34L546.99 333.27L547.9 333.42L547.88 334.24L547.7 335.56L547.85 336.6L548.3 338.95L548.6 339.59L549.21 340.23L549.59 340.46L550.11 340.88L550.37 341.49L550.31 342.08L549.86 343.93L548.98 344.85L548.66 345L547.97 344.98L547.52 344.93L547.13 344.99L546.5 345.31L544.49 346.49L543.14 347.3L542.76 347.54L542.29 347.99L542.05 348.39L541.94 348.85L541.88 349.82L541.89 350.29L542.03 350.77L542.17 351.93L542.38 353.95L542.16 355.6L541.49 357.53L540.99 359.84L540.88 360.53L540.68 360.87L539.37 360.94L539 360.77L538.41 359.94L538.19 359.95L538.15 359.55L538.06 359.09L537.89 358.65L537.59 358.6L536.63 358.58L535.83 358.02L535.44 357.64L534.99 357.33L534.63 357.21L532.36 357.01L531.98 357.08L531.62 357.26L531.2 357.66L530.92 357.97L530.56 358.17L529.21 358.69L528.67 358.61L528.01 358.28L525.91 357.55L525.49 357.54L524.42 357.74L524.01 357.76L523.57 357.72L523.16 357.63L522.8 357.38L522.38 356.91L521.96 356.14L521.81 355.09L521.49 354.84L519.43 354.88L518.73 355.75L518.45 356.23L518.07 356.62L517.63 356.85L517.19 356.9L516.79 356.85L516.43 356.76L515.95 356.62L516.31 355.98L516.21 353.96L515.41 351.12L512.9 343.94L512.07 341.16L511.73 339L511.75 338.42L512 337.37L512.26 337.25Z" fill="#CCCCCC" stroke="white" stroke-width="0.5"/>
<path d="M522.56 295.3L524.15 296.01L524.37 296.25L524.47 296.86L526.53 298.68L529.25 300.1L529.61 300.22L531.36 300.27L532.38 299.12L532.35 298.68L532.46 298.14L533.56 299.3L533.75 299.74L533.85 300.07L534.1 300.29L534.87 300.47L535.19 300.49L535.55 300.34L535.89 300.24L536.82 300.39L537.18 301.17L537.36 301.61L537.71 301.95L538.23 302.28L539.12 302.63L540.31 302.99L541.84 304.25L542.13 304.54L543.54 305.32L544.12 305.4L544.53 304.94L544.57 304.56L544.68 304.11L545.81 302.67L546.08 302.47L546.41 302.42L546.9 302.67L547 303.19L547.15 303.81L547.57 304.3L547.66 304.35L547.4 304.49L547.11 305.6L545.94 309.04L545.24 310.87L545.78 313.17L546.29 315.64L546.04 317.02L545.79 317.8L545.29 318.38L545.1 318.98L545.52 320.35L545.82 320.82L546.21 321.35L546.35 321.77L546.14 324.08L545.65 324.45L545.39 324.76L545.3 325.35L545.33 326.02L545.6 326.9L545.94 327.71L546.13 328.55L546.54 329.35L547.92 332.73L547.9 333.42L546.99 333.27L543.7 333.34L542.22 333.66L542 334.27L541.76 334.5L540.83 334.99L539.57 335.59L539.34 335.84L539.15 336.29L538.92 336.75L538.41 336.38L538.23 336.02L537.95 334.96L537.89 334.54L537.92 333.95L537.98 333.4V332.66L537.52 331.99L537.03 331.8L536.61 331.92L534.85 332.09L532.71 331.73L532.41 331.52L531.95 330.95L531.78 330.52L530.56 329.47L530.2 329.29L529.69 329.16L529.21 329.08L528.91 328.96L528.26 328.56L527.38 327.3L526.98 326.32L526.11 325.3L524.9 325.33L522.95 324.86L522.44 324.56L521.84 324.17L521.24 323.84L519.29 324.13L517.98 325.77L518.29 326.15L519.19 326.23L519.38 326.59L519.22 328.21L518.81 328.7L517.11 331.3L517.63 332.71L518.13 332.96L518.39 333.39L518.28 333.94L518.18 334.29L517.95 334.74L514.21 338.42L513.04 337.64L512.6 337.4L512.32 337.26L512.26 337.25L512.04 336.31L512.26 335.86L512.54 335.56L512.72 335.19L512.97 332.49L512.79 331.75L512.47 330.81L511.83 329.27L510.82 327.53L509.94 326.56L509.69 324.36L509.87 323.89L510.4 323.21L510.83 322.78L511 322.09L510.93 321.42L510.66 320.87L510.33 320.45L509.96 320.12L509.81 319.78L510.35 317.15L510.51 316.75L511.1 316.32L511.72 317.03L512.09 317.27L513.23 317.79L513.84 317.78L514.13 317.77L514.5 317.71L515.27 317.48L515.86 317.21L516.21 316.94L516.55 316.48L516.76 316L517.11 314.63L517.38 311.41L517.6 307.99L518.11 308.22L518.44 308.55L518.88 308.66H519.23L519.51 308.53L519.71 308.28L519.99 306.95L520.53 304.98L521.17 303.27L521.77 301.7L522.07 298.11L522.35 295.55L522.56 295.3Z" fill="#CCCCCC" stroke="white" stroke-width="0.5"/>
<path d="M538.67 259.78L540.08 260.36L542.38 260.23L543.28 261.89L545.07 262.66L546.23 264.36L546.27 264.38L547.63 264.34L548.8 264.07L548.75 263.35L548.81 262.96L550.68 260.79L551.85 260.06L552.24 260.19L553.28 260.11L553.84 259.76L555.51 259.11H556.01L556.51 259.28L556.83 259.57L557.39 261.42L557.26 262.29L558.26 262.63L558.6 262.54L559 262.25L559.39 262.22L559.64 262.41L559.81 263.11L559.76 264.24L559.83 264.59L560.29 265.08L560.97 265.35L561.33 265.61L561.43 265.95L561.44 266.31L561.37 266.48V267.49L561.47 268.27L559.99 270.52L558.81 272.76L557.88 276.07L557 278.54L556.89 278.55L556.05 278.49L553.47 278.23L551.87 277L551.27 276.39L550.99 276.22L547 275.03L546.46 274.89H546.06L543.53 275.09L542.35 276.11L542.4 276.49L542.46 277.08L540.28 276.69L538.12 276.55L536.67 276.11L534.71 275.31L534.22 274.57L533.4 273.56L533.14 273.38L532.72 273.21L532.86 272.54L533.07 270.25L532.96 269.24L532.92 268.57L533.22 268.08L533.75 267.78L533.89 267.34L533.88 266.46L533.79 265.19L533.49 264.79L533.38 264.45L533.43 263.88L535.13 260.79L535.52 260.29L536.19 260.27L536.56 260.58L537.1 260.7L537.59 260.78L538.09 260.16L538.67 259.78Z" fill="#CCCCCC" stroke="white" stroke-width="0.5"/>
<path d="M496.19 436.42L495.92 436.68L495.6 436.71L495.22 436.66L495.01 436.71L494.73 436.82L494.56 436.91L494.05 437.33L493.93 437.31L493.71 437.18L493.22 436.4L493.13 436.23L493.05 436.04L492.99 435.85L493.03 435.53L494.23 434.93L494.4 434.94L495.61 435.55L495.75 435.68L496.07 436.03L496.19 436.42ZM513.53 415.5L513.5 416.16L513.23 416.11L513.1 415.6L513.03 415.41L512.94 415.24L512.72 415.06L511.39 414.36L511.2 414.28L510.74 414.18L510.54 414.04L510.15 412.93L510.19 412.74L510.42 412.65L510.75 412.61L511.24 412.6L511.58 412.68L511.85 412.88L513.53 415.5ZM506.84 402.11L506.56 402.5H506.16L505.8 402.24L505.51 402.15L505.29 402.55L505.78 403.09L507.04 403.54L507.41 403.25L507.99 402.85L509.49 401.92L510.89 401.73L511.31 401.78L512.3 402.45L511.98 404.95L513.07 406.66L512.84 407.29L512.45 407.44L512.35 407.86L512.52 408.39L513.48 409.04L513.85 409.13L514.21 410.23L514.05 410.92L513.87 411.35L512.38 411.7L511.6 411.59L511.26 411.62L510.29 412.14L509.97 412.34L509.74 412.71L509.64 414.33L510.09 414.8L510.47 415L510.7 415.26L509.16 415.9L508.37 415.19L508.64 414.43L508.18 414.57L507.8 415.34L507.97 417.1L510.65 419.79L511.34 420.03L512.12 420.59L512.36 420.85L512.56 421.88L512.45 422.32L511.35 422.5L510.81 422.45L510.34 422.71L510.21 423.46L510.65 424.01L511.38 424.6L511.46 424.9L511.95 425.84L512.32 426.36L512.49 426.96L512.16 427.24L508.97 426.96L508.39 427.19L508.6 428.82L508.94 429.21L509.34 429.49L509.6 430.19L509.31 431.92L509.03 432.04L507.15 432.47L506.65 432.09L506.27 431.72L505.9 431.6L504.58 431.54L503.08 431.34L501.25 430.81L499.98 430.13L499.72 429.91L499.48 429.5L500.51 426.84L501.86 425.19L501.66 424.56L502.1 424.13L502.72 422.54L503.19 417.93L503.11 416.57L502.84 415.57L502.59 415.36L502.24 415.11L502.49 413.48L502.78 409.99L502.92 409.65L503.19 409.25L503.48 408.88L504.15 408.23L504.59 406.73L505.07 403.85L504.52 402.74L504.36 402.33L504.37 401.95L504.84 401.2L506.5 401.35L506.84 402.11ZM508.8 372.91L513.07 373.27L513.91 374.66L515.3 374.94L517.53 373.27L519.76 374.1L521.15 376.6L523.1 377.99L525.6 380.22L528.38 381.33L530.05 379.38L531.16 377.71L533.39 377.43L535.98 377.78L535.93 378.57L535.95 379.08L535.67 379.88L535.39 380.28L535.09 380.59L534.66 380.96L534.38 381.44L534.89 382.92L535.8 384.91L535.97 385.72L535.67 386.77L535.94 387.66L535.64 391.1L535.58 391.56L535.33 392.09L535.11 393.27L535.19 393.84L535.55 394.71L535.8 396.92L535.2 397.95L534.88 398.32V398.86L535.79 401.03L536.68 402.83L536.83 403.32L537.03 404.44L537.08 405.46L537.48 406.03L537.55 407.28L536.83 407.95L534.98 408.83L534.54 408.75L534.4 408.26L534.2 407.93L533.74 407.84L533.4 408.02L533.1 408.31L531.79 410.92L532.09 411.5L532.83 412.14L533 412.52L532.05 415.55L531.84 415.95L531.71 416.37L531.65 416.78L531.8 418.28L532.05 419.28L532.1 420.05L532.17 421.87L532.13 422.39L532 423.02L531.82 423.45L531.72 423.83L531.67 424.79L531.93 425.44L532.5 426.4L532.86 426.71L533.62 427.04L534.19 427.03L534.59 427.05L535.48 427.14L535.94 427.26L537.3 428.1L537.39 430.09L537.29 430.46L537.02 430.65L536.5 430.52L535.07 431L534.59 432.2L534.51 433.5L535.74 434.42L537.83 436.4L537.99 437.66L537.81 438.11L536.91 438.71L536.63 438.82L536.33 438.99V439.56L537.06 440.66L537.88 441.59L536.81 441.09L536.33 441.11L534.33 442.09L534.13 442.88L532.14 443.1L532.03 442.33L531.77 441.8L531.3 441.2L530.88 440.91L530.24 440.85L529.94 440.72L528.85 438.9L528.78 438.07L528.1 437.8L527.63 438.13L527.02 438.76L526.55 439.46L526.35 440.24L523.6 439.77L522.71 439.54L522.42 439.31L521.48 439.29V438.48L521.26 439.15L521.02 439.13L520.66 438.99L520.12 438.42L519.41 438.56L518.79 438.99L518.73 438.31L518.83 436.01L517.88 433.74L517.74 433.29L518.23 430.78L518.53 430.43L519.08 430.06L519.49 429.81L519.82 429.62L520.11 429.52L520.61 429.3L520.59 427.88L520.34 427.06L520.45 426.58L521.02 425.52L521.53 424.94L522 424.96L523 425.64L523.04 423.01L522.6 422.46L522.18 422.2L521.77 421.78L521.55 421.22L521.35 420.09L521.33 419.06L521.4 416.34L521.9 415.07L522.22 414.94L523.49 415.01L523.9 415.09L524.2 415.48L525.31 416.21L525.73 416.33L525.91 416.09L525.55 415.5L524.88 415.32L524.42 415.1L523.85 414.63L521.51 410.99L522.2 410.17L522.9 409.66L524.99 408.99L525.44 409.24L525.85 409.99L525.84 410.41L527.13 414.16L527.38 414.35L527.58 414L527.46 412.57L526.96 410.03L526.77 409.21L526.59 407.81L526.62 407.28L526.71 406.55L526.81 406.04L526.94 405.56L526.98 404.95L526.72 404.75L526.11 404.76L525.62 405.32L524.69 405.87L522.9 405.6L521.8 405L521.21 404.16L521.33 403.67L522.09 402.46L524.24 400.27L524.83 400.29L525.31 400.39L526.78 400.04L527.78 399.54L528.57 398.83L528.82 398.52L529.14 394.73L528.62 394.92L528.12 398.3L527.8 398.9L526.78 399.41L525.32 399.89L524.84 399.9L524.51 399.76L523.94 399.31L523.52 398.04L523.04 397.36L522.1 396.24L521.55 395.93L520.24 395.6L519.15 395.93L518.68 396.13L517.8 397.52L518 398.27L518.27 398.52L518.47 399.63L517.47 400.68L516.53 401.39L516.05 401.47L515.05 401.24L514.59 401.09L513.65 401.12L513.37 401.24L512.68 401.57L512.3 401.7L512.06 401.71L511.15 401.13L509.46 400.79L508.72 400.75L508.94 399.3L509.58 398.33L509.84 398.15L510.31 398.13L510.78 398.2L511.31 398.04L512.24 396.31L511.8 396.73L511.51 397.38L511.23 397.76L510.82 397.89L509.11 397.72L508.24 397.16L506.92 395.55L506.89 394.85L507.15 394.24L507.1 392.97L506.93 392.24L506.44 390.86L505.99 390.29L505.77 389.81L505.48 388.01L505.17 385.9L505.85 383.85L507.48 379.45L508.13 378.6L508.71 377.35L508.6 376.66L508.2 375.64L508.8 372.91Z" fill="#CCCCCC" stroke="white" stroke-width="0.5"/>
<path d="M547.66 304.35L547.57 304.3L547.15 303.81L547 303.19L546.9 302.67L546.41 302.42L546.08 302.47L545.81 302.67L544.68 304.11L544.57 304.56L544.53 304.94L544.12 305.4L543.54 305.32L542.13 304.54L541.84 304.25L540.31 302.99L539.12 302.63L538.23 302.28L537.71 301.95L537.36 301.61L537.18 301.17L536.82 300.39L535.89 300.24L535.55 300.34L535.19 300.49L534.87 300.47L534.1 300.29L533.85 300.07L533.75 299.74L533.56 299.3L532.46 298.14L532.35 298.68L532.38 299.12L531.36 300.27L529.61 300.22L529.25 300.1L526.53 298.68L524.47 296.86L524.37 296.25L524.15 296.01L522.56 295.3L522.83 295.12L523.54 294.46L525.08 292.9L525.26 292.54L525.38 291.99L525.35 291.35L525.01 290.52L524.41 289.04L524.45 288.55L524.77 288.17L525.36 287.84L526.34 287.01L527.25 284.71L527.75 283.26L527.96 282.84L528.56 282.12L529.02 281.82L529.57 281.5L530.38 280.71L530.67 280.07L530.8 279.3L530.84 278.78L530.86 278.17L530.88 277.67L531 276.73L531.78 275L532.1 274.66L532.38 274.23L532.72 273.21L533.14 273.38L533.4 273.56L534.22 274.57L534.71 275.31L536.67 276.11L538.12 276.55L540.28 276.69L542.46 277.08L542.4 276.49L542.35 276.11L543.53 275.09L546.06 274.89H546.46L547 275.03L550.99 276.22L551.27 276.39L551.87 277L553.47 278.23L556.05 278.49L556.89 278.55L557 278.54L556.97 278.67L556.95 279.33L556.97 279.97L557.03 280.33L556.95 281.1L556.7 281.52L555.7 282.03L555.26 282.12L554.77 282.14L554.43 282.23L554.08 282.78L554.05 283.23L554.29 283.73L554.54 283.93L556.11 284.91L556.48 287.53L556.37 289.26L556.16 289.62L556.3 290.27L556.79 291.36L557.23 292.69L556.78 293.07L556.4 293.73L556.26 294.12L556.32 295.49L556.48 297.31L556.08 298.37L555.88 298.64L555.47 298.87L554.94 298.83L553.74 298.88L552.09 300.74L551.9 302.03L552.21 302.85L552.06 303.27L548.56 304.54L548.15 304.48L547.66 304.35Z" fill="#CCCCCC" stroke="white" stroke-width="0.5"/>
<path d="M577.01 22.14H574.86L573.47 23.53L573.19 25.2L570.97 25.48L568.74 23.81H564.84L562.62 25.48L560.39 26.87L558.1 26.98L558.12 26.37L558.29 26L558.25 25.37L557.52 21.32L557.29 20.71L557.14 17.79L557.28 16.93L557.68 14.86L557.31 14.31L556.95 13.94L556.48 13.58L556.35 13.53L556.57 13.33L556.9 13.15L557.45 13.1L558.57 13.22L559.26 13.26L559.58 13.24L560.23 13.12L562.25 12.36L562.71 12.05L564 10.69L564.33 10.31L565.01 8.93L565.32 8.13L565.39 7.64L564.78 5.39L564.65 5.11L564.42 4.89L564.25 4.62L564.31 4.01L564.47 3.61L564.75 3.18L565.38 3.25L566.61 3.35L569.23 1L569.41 2.89L570.99 4.29L571.28 4.56L571.68 5.34L571.81 5.75L571.77 6.74L571.86 7.26L571.99 7.69L572.2 8.04L574.44 8.77L575.32 8.92L575.3 9.36L575.17 9.64L574.65 9.96L574.36 10.21L574.22 10.58L574.41 11.02L574.71 11.33L575.05 11.74L575.28 14.18L575.48 14.51L575.78 14.91L575.91 15.18L576.01 15.54L575.98 15.9L575.88 16.68L575.93 17.45L575.99 18.15L576.33 19.41L577.03 20.95L577.3 21.5L577.01 22.14Z" fill="#CCCCCC" stroke="white" stroke-width="0.5"/>
<path d="M535.98 377.79L533.39 377.44L531.16 377.72L530.05 379.39L528.38 381.34L525.6 380.22L523.09 378L521.14 376.6L519.75 374.1L517.53 373.27L515.3 374.94L513.91 374.66L513.07 373.27L508.8 372.91L509.1 371.17L510.06 370.01L509.99 368.93L509.84 368.44L509.47 367.99L509.28 367.59L509.57 367.13L509.78 366.89L512.46 365.58L513.7 365.8L514.07 365.24L514.04 363.06L515.09 360.37L515.31 359.96L515.82 358.65L516.26 357.19L515.95 356.62L516.43 356.76L516.79 356.85L517.19 356.9L517.63 356.85L518.07 356.62L518.45 356.23L518.73 355.75L519.43 354.88L521.49 354.84L521.81 355.09L521.96 356.14L522.38 356.91L522.8 357.38L523.16 357.63L523.57 357.72L524.01 357.76L524.42 357.74L525.49 357.54L525.91 357.55L528.01 358.28L528.67 358.61L529.21 358.69L530.56 358.17L530.92 357.97L531.2 357.66L531.62 357.26L531.98 357.08L532.36 357.01L534.63 357.21L534.99 357.33L535.44 357.64L535.83 358.02L536.63 358.58L537.59 358.6L537.89 358.65L538.06 359.09L538.15 359.55L538.19 359.95L538.08 360.1L537.81 361.04L537.86 362.9L538.37 365.24L538.88 367.01L538.41 368.8L537.22 369.58L536.64 370.05L536.26 371.71L536.64 372.48L537.66 373.53L537.9 373.1L538.38 373.43L538.45 374.13L537.91 375.43L537.71 375.78L537.43 375.86L537.1 375.54L536.8 375.51L535.98 377.79Z" fill="#CCCCCC" stroke="white" stroke-width="0.5"/>
</svg>
