<svg width="614" height="695" viewBox="0 0 614 695" fill="none" xmlns="http://www.w3.org/2000/svg">
<path d="M303.94 544.31L305.35 543.96L306.17 543.69L311.51 541.76L318.05 539.54L323.11 537.86L325.98 537L329.39 537.2L331.62 537.16L332.55 537.64L335.35 539.4L337.16 542.12L340.92 542.55L344.98 542.44L347.6 542.42L350.4 544.54L351.16 545.1L352.64 545.78L357.25 545.4L357.91 544.22L358.29 543.33L359.57 542H361.07L362 542.55L363.02 543.79L363.53 544.83L364.67 545.14L365.77 545.19L367.03 545.14L368.05 544.84L369.27 543.6L371.32 543.31L372.55 544.79L374.09 546.55L377.76 548.75L378.98 548.82L379.74 547.36L383.14 543.75L384.82 543.62L385.3 545.02L388.37 546.51H389.27L390.28 546.03L391.58 544.94L391.45 542.62L391.74 541.78L392.48 539.79L393.17 538.39L393.66 537.63L394.5 536.7L400.01 531.39L401.09 530.88L402.22 530.86L403.34 531.09L405.74 531.74L407.54 531.85L409.07 530.74L409.87 529.54L410.43 528.57L410.81 527.78L411.33 526.77L411.79 525.93L412.53 524.96L415.97 522.14L420.06 517.8L421.67 515.9L422.17 514.72L421.95 513.08L422.71 512.46L425.75 512.6L427.64 513.53L428.62 514.28L437.14 519.46L441.25 520.76L442.83 520.11L444.91 522.31L445.95 524.27L447.64 531.85L449.26 534.49L452.27 533.27L452.97 531.94L463.38 535.3L464.99 536.96L465.59 537.9L466.91 539.14L469.66 540.04L471.12 539.71L470.4 538.5L472.86 536.65L474.88 537.71L475.59 538.63L474.09 544.17L474.15 548.99L472.82 551.11L472.88 552.68L473.92 553.58L474.87 554.56L475.21 556.32L474.13 557.16L472.71 557.99L472.44 558.88L472.76 559.86L473.27 560.72L478.34 564.74L479.49 564.83L480.33 564.47L481.02 563.7L481.34 562.75L480.74 562.14L479.55 561.84L478.96 561.18L479.02 560.34L479.67 559.46L481.03 558.58L486.86 558.19L487.06 559.71L485.94 562.89L486.23 563.73L487.59 563.96L488.41 563.66L491.26 562.34L495.49 561.32L498.74 564.13L498.68 565.04L499.46 568.58L506.18 567.68L506.04 564.52L507.05 562.33L507.49 563.28L508.29 567L509.19 571.68L509.66 575.44L509.15 577.22L506.61 583.14L503.73 599.04L500.78 615.3L500.22 618.38L499.47 622.31L499.08 624.45L492.58 660.72L488.92 681.28L486.39 693.26L485.83 694.27L485.84 693.14L484.52 691.77L483.18 690.86L482.37 690.32L478.98 687.52L478.44 686.63L478.11 685.85L477.77 684.79L477.35 683.52L476.56 681.98L474.39 679.26L470.74 676.31L469.97 675.93L469.12 675.84L467.3 676.44L466.58 677L464.29 678.39L463.41 678.77H462.29L459.01 677.55L454.21 675.51L456.35 672.15L458.19 669.33L460.73 665.41L465.62 657.86L467.06 655.62L481.27 633.51L479.99 631.17L479.08 631.3L476.03 628.94L475.44 627.52L475.03 625.92L471.88 623.09L470.22 622.73L469.39 622.96L468.48 623.52L460.79 622.77L460.05 622.38L457.28 618.99L456.95 617.23L448.65 611.79L443.81 613.96L438.67 615.33L435.09 617.33L427.93 616.77L425.85 614.08L421.4 612.16L419.07 612.25L415.05 611.77L414.64 610.59L414.68 609.38L414.27 608.61L413.09 609.07L409.52 612.01L406.93 615.68L406.17 618.03L404.45 618.08L402.36 617.69L398.74 619.26L392.25 622.99L389.28 622.69L388.12 622.34L383.05 620.64L377.3 619.24L373.46 620.58L368.05 622.63L365.28 623.3L364.43 621.14L363.11 618.94L361.44 619.01L360.29 619.37L357.37 617.77L356.1 616.77L355.66 616.02L354.98 612.64L356.24 612.06L357.21 610.76L358.01 608.52L356.69 599.43L354.94 596.38L352.29 594.63L350.57 596.23L348.18 597.38L343.25 595.04L340.2 593.01L339.5 592.25L340.34 588.4L340.76 587.67L341.99 586.59L340.76 584.23L338.98 581.81L338.04 580.77L337.85 579.48L337.51 576.97L333.48 573.25L331.03 573.03L329.41 573.47L325.75 572.46L324.64 570.14L315.99 564.58L310.32 563.03L309.28 562.13L308.68 561.06L307.55 558.75L308.31 557.46L308.99 555.61L307.24 553.81L306.17 552.66L305.23 549.58L304.44 546.58L303.94 544.31Z" fill="#CCCCCC" stroke="white" stroke-width="0.5"/>
<path d="M291.93 284.09L290.74 283.89L284.42 285.73L279.11 286.33L277.16 286.79L276.12 288.15L275.41 289.16L271.42 291.95L270.15 291.37L268.77 290.31L267.42 289.06L266.58 288.71L262.15 288.37L255.7 286.46L254.12 285.95L252.76 285.75L252.7 286.93L253.31 290.75L253.48 293.76L252.78 294.28L250.17 294.02L248.32 293.84L246.01 294.13L244.89 294.42L241.83 296.04L240.99 296.15L237.48 296.23L236.89 295.89L235.33 294.44L234.46 293.46L232.53 290.98L232.17 289.96L232.91 288.32L233.02 287.06L232.78 285.88L232.15 284.34L231.53 283.2L231.1 282.12L230.92 281.13L231.1 280.15L231.73 278.95L231.94 275.8L229.57 275.33L228.73 275.05L227.99 274.39L227.38 272.74L227.23 271.49L227.18 270.17L226.97 267.32L226.37 266.62L224.49 265.61L223.53 265.47L213.96 267.16L212.77 267.53L211.87 267.64L207.55 267.45L204.16 262.69L203.87 261.73L203.88 260.64L203.87 257.27L203.59 255.72L199.92 247.95L199.04 247.13L196.94 245.79L196.55 240.37L198.82 239.61L200.39 239.72L201.87 240.25L203.8 238.64L203.88 237.13L203.37 235.72L202.62 234L203.29 232.99L209.15 232.77L212.09 233.37L213.49 234.07L214.32 234.3L215.09 233.88L216.26 226.86L215.85 225.2L215.29 223.84L214.69 222.93L212.62 220.12L211.07 219.69L210.17 219.23L207.67 217.23L200.09 209.51L199.21 208.59L198.4 207.72L195.92 204.91L194.63 203.31L191.57 202.63L191 198.83L192.5 198.38L193.45 197.79L194.34 196.83L194.94 195.3L195.17 193.84L195.61 191.66L196.14 190.91L198.49 189.25L199.59 188.91L200.98 188.5L202.21 186.57L202.4 186.74L202.46 188.51L202.29 190.99L200.9 190.65L199.97 190.15L198.99 190.78L198.55 192.68L198.7 194.73L200.84 195.83L203.11 196.01L205.54 195.42L206.09 194.74L206.61 190.46L206.32 188.34L205.73 183.92L205.23 177.99L204.88 175.07L202.9 172.13L200.64 170.51L198.52 169.86L198.51 168.57L200.31 166.34L203.06 165.85L209 164.08L218.95 155.8L219.19 154.56L219.89 155.11L220.31 155.84L220.6 156.65L220.68 157.49L220.7 158.99L220.82 160.08L221.04 161.36L221.6 163.38L222.18 164.45L222.77 165.21L223.56 165.95L224.49 166.53L225.69 167.15L226.76 167.57L228.23 168.31L228.84 169.04L229.03 170.09L229 171.86L228.93 173.21L228.73 174.58L228.39 175.66L227.76 176.74L227.01 177.61L225.82 178.79L225.01 179.36L223.05 181.36L222.02 182.55L221.03 184.61L220.56 186.03L220.25 187.45L219.89 189.61L219.75 190.74L219.66 192.82L219.19 194.43L217.62 195.99L216.64 196.95L215.86 198.28L215.48 202.55L215.46 204.01L215.52 204.94L215.85 207.1L216.19 208.59L216.53 209.74L217.14 210.86L218.7 213.25L222.58 218.29L223.99 218.52L225.22 218.47L226.13 218.37L228.95 218.26L237 218.21L239.01 218.24L242 218.39L243.28 218.07L250.19 209.5L250.72 206.44L251.92 204.4L252.43 203.67L253.48 202.65L254.76 202.42L255.66 202.9L256.95 204.04L257.82 204.32L258.51 203.7L258.94 201.74L259.77 199.43L260.78 199.08L262.14 198.63L263.24 198.11L264.17 196.83L264.46 196.01L264.94 194.84L269.51 190.49L270.65 190.19L273.1 190.29L275.27 190.46H277.61L278.74 190.41L279.76 190.12L280.61 189.71L281.43 189.09L282.07 188.33L282.55 187.6L283.84 185.75L285.1 184.4L287.18 186.17L289.41 188.05L290.21 188.64L291.91 189.76L294.07 191.05L295.18 191.75L295.99 192.37L296.95 193.42L297.32 194.2L297.53 195.21L297.55 196.1L297.53 199.19L297.72 201.18L298.6 202.26L297.64 206.82L294.88 213.71V214.68L295.3 215.43L295.91 216.16L299.24 219.58L301.42 217.89L301.93 217.08L302.88 215.13L303.76 213.98L304.57 213.45L305.35 213.78L305.86 214.82L305.97 216.26L305.49 217.06L304.56 218.16L303.77 219.65L303.56 220.65L303.29 224.6L303.42 225.81L305.81 232.92L307.27 233.14L308.48 233.12L310.05 232.73L314.41 228.96L315.67 227.81L317.6 225.9L319.92 223.57L322.16 221.32L321.94 222.07L321.73 223.29L321.74 224.14L322.23 228.5L322.76 229.54L323.53 230.47L323.99 232.11L323.92 233.16L322.06 234.86L320.19 235.7L318.79 236.45L316.67 238.72L315.59 240.52L314.81 241.88L314.17 242.51L312.9 243.52L308.03 247.31L305.32 248.57L304.02 248.61L302.53 250.46L302.14 251.87L302.47 255.4L303.52 257.13L303.17 257.99L299.28 262.32L298.31 263.04L296.67 263.74L296.17 264.31L295.56 265.13L294.44 268.57V270.29L294.61 275.4L293.91 276.11L292.5 281.15L291.93 284.09Z" fill="#CCCCCC" stroke="white" stroke-width="0.5"/>
<path d="M490.51 273.13L487.99 271.59L481.14 266.08L478.66 263.84L475.42 262.41L468.09 262.27L465.97 262.94L463.79 264.18L463.01 264.53L461.91 264.98L455.87 265.38H453.36L447.67 265.2L444.89 265.04L443.3 264.87L434.96 263.05L433.8 262.59L431.51 263.18L430.18 263.72L429.11 264.35L422.3 266.3L421.47 266.37L418.36 266.36L417.18 265.43L411.67 265.73L402.75 267.6L401.2 268.69L400.45 269.35L397.46 271.15L396.6 271.12L394.93 270.77L391.43 269.19L388.09 264.79L387.72 263.33L387.64 262.33L387.86 260.54L391.31 256.65L395.42 254.55L396.44 253.67L396.78 252.42L396.87 251.28L399.22 245.84L401.11 242.51L401.4 241.64L401.53 240.83L401.74 239.45L401.84 238.1L402.17 236.88L402.75 235.83L404.64 232.98L406.7 233.93L408.52 233.91L409.68 233.25L413.91 231.47L416.24 230.88L418.05 230.99L420.05 231.52L422.72 232.19L423.72 232.42L429.14 232.46L432.02 233.9L435.37 234.89L441.81 234.02L442.62 233.68L444.04 233.04L446.62 231.39L447.52 230.28L448.71 229.98L450.28 229.77L454.39 229.33L461.28 230.97L465.85 232.92L468.14 234.08L469.18 234.87L469.88 235.34L470.71 235.65L471.91 235.92L473.24 235.62L474.02 234.99L474.91 234.45L477.52 234.1L479.14 234.38L495.4 254.54L507.57 269.7L505.94 271.02L504.81 271.59L502.63 272.35L500.99 272.48L498.58 272.51L496.22 272.25L493.66 271.99L492.41 272.21L491.03 272.8L490.51 273.13Z" fill="#CCCCCC" stroke="white" stroke-width="0.5"/>
<path d="M267.93 75.85L268.81 75.63L276.36 71.45L276.68 70.2L277.04 68.92L281.24 64.65L283.43 62.53L283.72 62.29L283.69 62.53L284.5 64.54L285.82 65.38L286.79 66.3L287.32 67.19L289.53 71.26L289.64 76.98L289.57 79.7L289.35 83.99L288.97 85.79L287.07 87.05L286.18 87.89L285.44 88.84L283.2 93.95L281.47 98.16L278.32 95.49L273.41 92.52L268.35 88.86L268.01 87.09L268.32 85.74L268.55 84.69L268.63 83.48L268.39 82.12L267.61 79.77L268.65 78.82L268.28 77.45L267.65 78.11L267.73 76.67L267.93 75.85Z" fill="#CCCCCC" stroke="white" stroke-width="0.5"/>
<path d="M327.96 185.66L326.86 186.32L325.29 187.76L324.66 189.27L324.45 190.2L324.46 191.59L324.49 192.85L325.7 196.89L326.44 198.44L327.08 201.67L326.3 208.34L324.59 211.05L322.89 214.95L322.15 221.33L319.91 223.58L317.59 225.91L315.67 227.82L314.41 228.97L310.04 232.75L308.47 233.14L307.26 233.16L305.79 232.94L303.41 225.83L303.27 224.61L303.54 220.66L303.75 219.67L304.53 218.17L305.46 217.07L305.95 216.27L305.84 214.83L305.33 213.79L304.55 213.47L303.74 214L302.85 215.15L301.9 217.1L301.4 217.9L299.22 219.59L295.89 216.18L295.27 215.45L294.86 214.7L294.85 213.73L297.62 206.85L298.58 202.29L297.7 201.21L297.51 199.22L297.53 196.13L297.51 195.23L297.3 194.22L296.92 193.45L295.97 192.4L295.16 191.78L294.05 191.08L291.89 189.79L290.2 188.66L289.4 188.07L287.17 186.19L285.09 184.42L286.89 183.57L287.54 182.83L287.9 181.37L288.25 181.09L289.41 180.69L290.94 180.41L292.93 180.15L293.85 179.05L295.53 175.66L296.64 172.65L296.05 171.67L295.44 169.77L295.07 168.17L295.08 160.69L296.61 159.36L294.4 154.4L293.07 152.29L291.88 151.2L289.51 149.54L288.43 148.93L287.64 148.6L286.79 148.29L284.37 146.76L282.67 144.68L281.28 141.92L280.6 140.32L280.43 139.16L280.54 138.18L280.87 135.94L280.82 134.8L280.66 133.85L280 132.88L278.98 131.65L278.22 130.81L267.59 122.04L264.44 119.78L264.52 118.91L264.38 115.93L264 114.85L262.18 114.06L258.4 109.39L256.39 104.76L254.66 105.18L253.96 105.5L254.41 103.59L255.96 101.6L256.06 99.33L255.43 91.8L257.98 90.6L257.92 88.75L257.2 86.29L258.35 84.51L261.12 81.77L266.1 79.03L267.2 79.16L267.59 79.78L268.38 82.13L268.61 83.5L268.54 84.7L268.31 85.75L268 87.1L268.34 88.86L273.4 92.52L278.31 95.49L281.46 98.16L280.09 102.68L280.49 103.98L282.41 104.89L283.93 105.31L286.13 108.4L285.84 110.01L284.53 110.79L283.3 111.34L282.91 112.43L283.04 115L283.15 115.9L285.08 122.26L285.48 123L286.5 127.38L286.04 130.23L285.98 132.19L288.43 133.27L289.3 133.17L290.21 133.04L292.81 134.81L295.62 137.84L299.75 139.54L301.13 139.52L304.93 141.22L306.69 142.32L309.8 145.11L310.86 146.82L313.11 149.06L318.91 150.96L322.22 151.63L324.32 151.66L324.06 154.47L324.74 155.91L325.79 156.87L326.37 162.08L326.12 165.37L327.3 167.76L327.83 168.62L328.86 172.16L329.31 176.21L329.08 180.79L327.96 185.66ZM267.65 78.11L266.93 77.82L267.1 75.9L267.93 75.84L267.73 76.65L267.65 78.11Z" fill="#CCCCCC" stroke="white" stroke-width="0.5"/>
<path d="M380.53 237.98H383.05L385.79 237.89L386.77 237.57L387.98 236.5L388.57 235.38L389.23 234.01L393.37 231.65L394.22 231.34L395.29 231.44L396.66 231.81L397.81 231.84L398.61 231.47L399.41 230.82L401.94 232.71L404.64 232.98L402.75 235.83L402.17 236.88L401.84 238.1L401.74 239.45L401.53 240.83L401.4 241.64L401.11 242.51L399.22 245.84L396.87 251.28L396.78 252.42L396.44 253.67L395.42 254.55L391.31 256.65L387.86 260.54L387.53 260.77L386.31 261.97L385.68 263.01L385.38 264.07L385.28 265.23L385.04 270.43L387.11 272.66L385.95 277.57L385.38 278.19L384.7 281L389.17 282.92L391.11 286.23L391.16 287.19L389.34 291.63L386.03 293L385.26 292.53L384.41 292.86L383.78 293.46L383.01 294.54L382.26 295.66L381.15 297.24L380.4 298.15L375.02 302.04L371 302.59L369.74 301.17L367.67 299.65L362.47 306.12L361.35 309.26L361.76 310.09L363.85 311.99L364.29 312.92L364.15 313.73L362.98 315.04L361.73 315.75L360.33 316.06L359.27 316.94L358.55 318.13L357.21 322.6L356.96 323.64L357.09 324.47L358.4 326.67L356.66 329.59L354.87 329.82L352.79 329.47L351.86 328.96L351.29 328.18L349.97 326.5L347.41 324.7L346.44 324.23L345.59 323.94L344.34 323.46L343.35 323.04L342.12 322.27L339.71 320.67L338.33 319.35L338.02 318.17L338.73 315.45L339.38 314.41L340.88 312.81L340.17 308.74L339.37 307.12L338.59 305.71L336.8 300.02L333.95 296.62L331.04 295.87L327.83 292.7L326.12 293.08L324.13 294.48L323.57 295.97L323.5 297.17L321.7 299.07L320.85 299.88L320.08 300.26L318.66 300.82L317.69 300.75L312.34 296.76L309.58 295.8L306.09 291.35L305.67 289.82L306.83 288.49L307.61 287.45L306.93 283.51L305.85 282.27L304.19 283.53L301.86 284.64L300.29 284.38L298.46 283.83L293.44 284.89L292.7 285.5L292.68 284.91L291.93 284.09L292.5 281.15L293.91 276.11L294.61 275.4L294.44 270.29V268.57L295.56 265.13L296.17 264.31L296.67 263.74L298.06 265.37L300.23 268.88L301.82 271.26L303.24 272.56L304.41 272.9L305.19 272.56L305.94 272.15L307.02 271.82L308.07 272.2L309.97 276.25L313.69 279.7L318.16 282.2L318.85 282.87L319.62 284.9L320.43 285.57L325.34 284.36L330.75 283.74L332.06 284.78L333.31 285.61L334.31 284.94L335 282.56L335.17 281.7L335.96 276.96L338.4 271.05L339.67 269.34L344.49 271.88L345.28 272.62L345.68 273.57L345.76 274.69L345.66 275.59L345.35 276.71L344.25 278.78L344.09 279.8L344.36 281.49L344.98 282.68L345.87 283.37L347.25 283.76L348.49 283.62L350.79 282.54L351.49 281.79L351.66 280.8L351.15 279.37L351.32 278.15L351.98 277.42L353.1 276.87L353.98 276.64L355.15 276.51L356.27 276.73L358.86 277.14L361.87 274.17L369.51 264.72L370.61 262.7L371.23 260.98L371.12 258.9L370.48 257.71L369.83 256.68L369.54 255.24L369.57 251.1L370.78 250.91L373.15 252.38L373.68 253.56L374.44 256.29L376.6 256.22L377.56 256.01L378.35 255.54L379.02 254.74L379.49 253.79L381.4 248.28L381.65 247.19L381.72 245.98L381.25 239.94L380.84 238.66L380.53 237.98Z" fill="#CCCCCC" stroke="white" stroke-width="0.5"/>
<path d="M234.04 478.05L233.59 479.09L229.32 480.66L228.17 480.91L222.91 480.87L221.55 480.68L220.63 480.38L215.98 478.45L214.97 477.34L213.89 475.1L214.4 471.11L214.66 470.3L215.07 469.58L215.52 468.69L215.48 467.86L215.03 466.71L213.45 463.62L212.34 462.62L210.56 462.46L209.36 463.18L208.26 464.98L206.77 466.16L205.58 466.45L202.7 467.01L203.81 465.04L204.7 457.87L204.59 456.78L203.73 455.56L195.94 450.75L195.11 450.84L193.52 451.42L192.61 451.62L186.89 452.04L185.32 452.05L184.06 451.89L184.46 446.39L184.93 445.67L186.16 444.4L187.1 443.93L188.04 442.53L188.4 441.53L187.32 440.55L185.58 439.01L182.21 434.89L180.4 431.84L179.75 430.92L178.99 430.52L174.61 431.01L172.69 431.06H171.84L169.63 430.76L168.45 430.49L167.6 430.21L166.51 429.62L164.82 428.21L164.31 427.33L162.73 423.88L161.31 421.35L158.92 417.79L157.81 416.38L157.3 415.49L156.88 414.5L156.77 413.75L156.93 412.1L158.32 414.01L158.58 415.09L160.07 415.83L163.1 415.44L164.84 413.76L164.05 412.44L163.37 407.78L166.13 403.26L172.23 395.73L172.99 395.35L178.35 387.11L178.73 385.98L180.13 387.57L181.96 390.21L188.49 394.97L195.87 395.65L196.8 394.33L199.21 395.48L201.65 398.21L207.15 395.43L210.85 393.21L212.7 393L217.71 390.78L218.65 389.03L218.55 387.4L217.86 386.48L218.79 384.88L220.74 384.65L224.24 385.3L225.74 386.09L226.78 386.73L228.05 387.45L229.8 388.22L231.27 388.75L233.02 388.98L233.08 389.68L232.89 391.05L232.81 392.05L233.28 392.86L234.43 394.51L235.65 396.65L236.25 397.95L236.81 398.74L239.4 406.37L241.47 410.88L242.57 412.6L243.18 413.67L244.91 418.06L245.36 419.3L245.51 420.17L242.42 420.97L241.62 420.75L239.64 419.11L237.84 417.95L236.04 417.37L234.71 418.17L233.87 419.33L232.64 421.01L231.87 421.69L230.83 422.13L229.62 422.3L227.6 421.75L226.71 421.67L225.76 422.19L221.74 426.73L221.62 427.55L222.37 429.82L222.77 430.77L223.22 431.69L223.56 433.06V434.28L222.94 434.82L221.82 435.12L220.18 435.02L218.5 434.45L217.27 433.78L215.9 433.16L214.56 432.87L212.77 433.27L211.57 434.12L211.53 436.21L212.11 442.61L212.92 443.55L213.85 443.59L215.23 443.54L217.13 444.37L218.93 446.91L219.16 448.17L219.01 449.68L218.83 451.13L219.27 452.1L222.29 454.96L226.61 457.66L227.46 457.96L228.49 457.91L230.48 457.45L230.5 459.21L228.53 463.37L227.12 465.92L225.73 467.28L225.49 468.56L226.24 472.8L228.65 474.37L231.1 475.23L232.18 475.81L234.04 478.05Z" fill="#CCCCCC" stroke="white" stroke-width="0.5"/>
<path d="M327.96 185.66L329.08 180.78L329.31 176.2L328.86 172.15L327.83 168.61L327.31 167.75L326.13 165.36L326.38 162.07L325.81 156.86L324.76 155.89L324.08 154.46L324.34 151.65L324.73 150.98L326.14 148.95L327 147.41L326.14 146.04L324.89 144.73L323.68 143.66L321.52 138.98L321.17 137.75L320.34 136.36L318.4 133.33L317.86 132.53L316.64 131.44L315.31 130.9L314.44 130.12L317.05 126.58L318.21 125.94L322.6 126.18L328.07 125.86L325.82 119.45L320.91 112.58L316.17 106.3L317.17 102.47L317.55 101.38L321.44 94.7L323.68 93.47L324.52 93.19L330.03 91.11L338.15 87.21L337.65 85.77L336.1 84.24L335.79 83.11L335.76 82.27L335.87 81.4L336.44 80.45L337.27 78.47L335.79 76.75L334.21 75.03L333.65 74.2L333.46 72.94L333.74 72.02L334.51 70.99L335.22 72.11L335.93 72.84L337.12 73.16L338.17 73.26L341.83 73.32L345.11 73.3L347.03 73.21L348.27 73.42L349.7 74.3L356.58 81.69L357.19 83.27L356.73 86.09L356.23 87.16L354.93 87.73L352.66 90.6L354.94 92.15L356.35 92.07L357.79 91.81L358.7 91.56L360.32 91.21L361.59 91.1L363.7 91.3L364.18 91.42L363.92 94.59L362.93 104.33L362.2 105.76L361.34 109.09L360.97 113.12L360.22 118.8L357.05 125.4L355.57 127.39L350.31 133.74L345.42 141.32L344.83 143.58L344.58 143.97L344.17 144.81L343.66 146.1L343.47 146.92L342.49 153.62L342.34 156.74L342.7 158.84L342.79 161.28L342.2 162.79L341.55 163.62L340.17 164.96L339.6 165.95L339.29 167L338.96 169.99L340.7 176.82L341.17 177.85L342.32 178.2L343.48 177.24L343.53 176.1L343.47 175.2L343.32 173.86L343.86 173.11L345.3 173L346.23 173.43L346.67 174.19L346.86 175.11L346.89 176.46L346.78 178.39L346.44 180.08L345.27 180.8L344.35 180.92L343.71 181.65V182.63L344.31 184.1L345.86 186.25L346.81 188.25L347.24 189.42L348.21 193.35L347.97 194.76L345.46 199.99L344.46 201.56L343.38 202.57L341.61 203.5L340.45 203.79L335.96 204.34L335.76 203.82L334.7 202.86L332.95 202.72L330.42 202.55L329.88 201.46L330.26 199.97L331.22 198.53L332.03 197.22L332.34 195.53L330.93 191.52L330.12 189.73L328.51 186.65L327.96 185.66Z" fill="#CCCCCC" stroke="white" stroke-width="0.5"/>
<path d="M180.45 164.15L181.26 164.68L183.18 168.15L183.82 170.71L185.62 172.86L186.48 173.42L187.33 173.73L188.8 174.12L190.01 175.11L190.65 176.1L192.18 178.59L196.84 182.22L197.38 184.22L197.67 185.5L200.18 187.05L202.21 186.57L200.97 188.49L199.58 188.91L198.48 189.24L196.12 190.91L195.59 191.66L195.15 193.84L194.92 195.3L194.31 196.83L193.43 197.79L192.47 198.38L190.98 198.83L191.54 202.63L194.61 203.31L195.89 204.91L198.37 207.72L199.18 208.59L200.06 209.51L207.64 217.23L210.13 219.23L211.03 219.69L212.58 220.11L214.65 222.92L215.25 223.84L215.81 225.19L216.22 226.86L215.05 233.88L214.29 234.3L213.46 234.07L212.05 233.36L209.11 232.76L203.25 232.98L202.58 233.99L203.33 235.7L203.85 237.12L203.76 238.63L201.83 240.24L200.35 239.71L198.79 239.6L196.52 240.36L196.91 245.78L199.01 247.12L199.89 247.94L203.55 255.71L203.84 257.25L203.85 260.63L203.83 261.72L204.12 262.68L207.51 267.44L211.84 267.63L212.74 267.52L213.93 267.15L223.5 265.46L224.46 265.6L226.34 266.61L226.94 267.31L227.15 270.16L227.2 271.47L227.35 272.72L227.96 274.38L228.7 275.04L229.55 275.33L231.92 275.79L231.7 278.95L231.07 280.15L230.9 281.12L231.07 282.11L231.5 283.19L232.12 284.33L232.75 285.87L232.99 287.05L232.88 288.31L232.14 289.95L232.49 290.97L234.43 293.44L235.3 294.42L236.86 295.87L236.07 296.12L235.09 296.49L233.73 297L226.95 300.22L226.18 300.72L222.72 304.32L222.98 305.57L226.89 314.11L227.35 314.85L228.08 315.61L228.89 316.13L229.81 316.61L230.49 316.86L230.4 317.51L230.14 318.53L229.6 319.72L228.82 320.28L227.86 320.7L227.01 321.2L222.39 324.99L221.81 325.66L221.35 326.64L218.34 333.49L215.25 339.22L214.73 339.99L214.51 340.95L214.43 341.85L214.6 343.67L214.85 344.82L215.1 345.63L215.44 346.42L216.44 347.61L218.29 349.44L217.73 350.91L213.12 354.6L206.73 356.63L205.62 356.78L204.48 356.71L203.58 356.35L200.64 354.53L194.94 352.63L190.82 349.11L189.49 348.56L188.54 348.61L186.96 349L186.21 348.4L185.29 346.67L185.53 346.03L183.57 345.61L181.61 345.68L179.75 342.69L181.22 338.55L181.39 338.28L181.73 337.39L182.6 334.29L182.45 330.12L182.24 327.19L181.5 323.21L181.17 322.14L180.94 321.11L180.6 318.11L180.17 312.27L180.21 309.31L180.93 307.34L181.17 305.79L180.67 303.41L179.15 296.92L175.69 294.95L173.57 294.35L174.71 291.66L178.17 290.02L179.74 290.28L180.7 290.84L182.03 290.34L185.18 286.53L185.58 284.51L185.41 283.27L181.54 275.07L178.69 271.24L176.78 269.18L175.9 268.04L175.36 266.93L175.9 262.91L178.72 264.69L179.63 262.97L180.84 258.45L181.48 251.2L178.69 246.12L177.22 245.24L176.28 245.14L168.04 238.45L168.6 234.3L168.46 233.33L167.45 231.06L162.81 227.1L158.84 223.92L162.23 213.61L163.54 213.74L164.66 213.37L165.34 212.48L165.8 211.22L165.45 209.88L164.41 208.09L164.22 207.22L164.21 205.82L164.23 204.75L164.84 203.64L168.14 205.32L169.78 208.46L170.35 210.15L170.77 211.11L171.71 211.65L181.87 204.4L181.91 203.39L180.26 201.23L182.68 196.75L183.35 196.01L186.63 194.67L187.34 192.1L186.64 188.44L185.47 186.07L184.25 183.86L183.32 183.15L181.14 181L180.58 180.29L180.35 178.13L180.33 177.01L180.07 175.58L178.8 173.4L177.84 172.52L176.21 172.55L175.91 170.5L176.88 169.02L177.44 168.62L180.19 165.33L180.45 164.15ZM179.1 343.55L180.05 344.09L180.88 345.98L182.38 346.44L181.83 346.94L174.94 348.16L172.95 348.71L173.36 347.22L177.7 343.15L178.12 343.04L178.64 343.23L179.1 343.55Z" fill="#CCCCCC" stroke="white" stroke-width="0.5"/>
<path d="M261.55 323.44L258.24 320.58L256.56 319.54L255.71 319.49L252.52 319.32L248.23 317.76L243.63 318.84L242.17 318.85L241.28 318.12L239.64 313.69L240.24 312.28L244.74 308.1L248.82 305.79L250.26 304.12L251.23 302.23L247.76 299.76L244.95 300.4L243.36 301.19L242.27 301.54L241.57 300.64L241.83 296.04L244.89 294.42L246.01 294.13L248.32 293.84L250.17 294.02L252.78 294.28L253.48 293.76L253.31 290.75L252.7 286.93L252.76 285.75L254.12 285.95L255.7 286.46L262.15 288.37L266.58 288.71L267.42 289.06L268.77 290.31L270.15 291.37L271.42 291.95L275.41 289.16L276.12 288.15L277.16 286.79L279.11 286.33L284.42 285.73L290.74 283.89L291.93 284.09L292.68 284.91L292.7 285.5L292.39 286.04L291.67 294.95L291.96 296.79L290.69 300.02L290.11 301.18L289.48 302.24L288.37 303.81L288.34 303.78L287.44 303.46L285.83 303.05L284.11 302.94H281.62L280.69 303.13L277.78 303.83L276.68 304.42L275.42 305.42L274.44 306.42L274.03 307.14L273.52 308.33L272.82 308.78L269.11 309.16H267.71L266.38 309.36L265.23 310.65L264.94 311.49L263.18 317.92L263.69 319.06L264.43 320.03L264.41 320.94L263.76 321.71L261.55 323.44Z" fill="#CCCCCC" stroke="white" stroke-width="0.5"/>
<path d="M285.1 184.4L283.84 185.75L282.55 187.6L282.07 188.33L281.43 189.09L280.61 189.71L279.76 190.12L278.74 190.41L277.61 190.46H275.27L273.1 190.29L270.65 190.19L269.51 190.49L264.94 194.84L264.46 196.01L264.17 196.83L263.24 198.11L262.14 198.63L260.78 199.08L259.77 199.43L258.94 201.74L258.51 203.7L257.82 204.32L256.95 204.04L255.66 202.9L254.76 202.42L253.48 202.65L252.43 203.67L251.92 204.4L250.72 206.44L250.19 209.5L243.28 218.07L242 218.39L239.01 218.24L237 218.21L228.95 218.26L226.13 218.37L225.22 218.47L223.99 218.52L222.58 218.29L218.7 213.25L217.14 210.86L216.53 209.74L216.19 208.59L215.85 207.1L215.52 204.94L215.46 204.01L215.48 202.55L215.86 198.28L216.64 196.95L217.62 195.99L219.19 194.43L219.66 192.82L219.75 190.74L219.89 189.61L220.25 187.45L220.56 186.03L221.03 184.61L222.02 182.55L223.05 181.36L225.01 179.36L225.82 178.79L227.01 177.61L227.76 176.74L228.39 175.66L228.73 174.58L228.93 173.21L229 171.86L229.03 170.09L228.84 169.04L228.23 168.31L226.76 167.57L225.69 167.15L224.49 166.53L223.56 165.95L222.77 165.21L222.18 164.45L221.6 163.38L221.04 161.36L220.82 160.08L220.7 158.99L220.68 157.49L220.6 156.65L220.31 155.84L219.89 155.11L219.19 154.56L219.51 154.55L220.33 154.39L221.38 154.16L223.69 153.23L225.89 150.88L229.33 142.73L229.66 140.91L232.22 137.6L233.08 136.76L233.83 136.35L240.13 133.17L244.36 132.49L248.1 133.21L248.78 134.62L249.46 135.52L250.21 136.34L250.98 136.99L256.29 140.47L260.12 144.46L260.9 145.12L264.03 145.89L264.88 146.24L265.69 146.69L268.12 148.78L269.68 153.03L269.73 154.07L269.19 156.6L267.94 156.1L266.6 156.23L264.83 156.48L261.66 157.68L261.6 158.84L264 165.09L265.18 172.13L266.38 172.48L268.02 171.93L268.91 171.8L269.92 172.39L270.08 174.62L270.32 176.33L273.42 175.5L275.77 173.88L276.58 173.08L277.7 171.86L283.53 174.3L286.51 176.96L286.69 178.54L286.97 180.09L287.9 181.34L287.54 182.81L286.89 183.55L285.1 184.4Z" fill="#CCCCCC" stroke="white" stroke-width="0.5"/>
<path d="M400.23 493.11L401.03 493.8L403.8 497L406.54 501.78L407.98 506.19L410.57 506.85L413.57 509.58L416.84 511.65L420.65 513.75L421.56 513.5L421.95 513.08L422.17 514.72L421.67 515.9L420.06 517.8L415.97 522.14L412.53 524.96L411.79 525.93L411.33 526.77L410.81 527.78L410.43 528.57L409.87 529.54L409.07 530.74L407.54 531.85L405.74 531.74L403.34 531.09L402.22 530.86L401.09 530.88L400.01 531.39L394.5 536.7L393.66 537.63L393.17 538.39L392.48 539.79L391.74 541.78L391.45 542.62L391.58 544.94L390.28 546.03L389.27 546.51H388.37L385.3 545.02L384.82 543.62L383.14 543.75L379.74 547.36L378.98 548.82L377.76 548.75L374.09 546.55L372.55 544.79L371.32 543.31L369.27 543.6L368.05 544.84L367.03 545.14L365.77 545.19L364.67 545.14L363.53 544.83L363.02 543.79L362 542.55L361.07 542H359.57L358.29 543.33L357.91 544.22L357.25 545.4L352.64 545.78L351.16 545.1L350.4 544.54L347.6 542.42L344.98 542.44L340.92 542.55L337.16 542.12L335.35 539.4L332.55 537.64L331.62 537.16L329.39 537.2L325.98 537L322.47 536.15L320.99 535.63L318.24 534.14L316.26 532.17L314.83 530.67L311.76 529.82L308.19 527.79L307.4 526.7L305.54 525.26L301.18 523.93L300.51 524.53L300.66 525.36L299.87 526.09L294.99 525.18L291.75 523.24L290.85 520.02L291.75 519.29L292.38 518.62L290.82 514.11L290.16 513.06L289.35 512.45L284.92 511.82L283.67 511.53L279.33 509.71L278.29 504.96L278.84 503.85L278.95 503.03L278.43 501.95L277.78 501.32L273.87 499.51L272.72 500.26L271.47 500.97L270.31 500.71L269.04 498.09L268.89 496.83L269.27 495.41L267.64 491.01L266.47 490.11L264.82 489.71L263.65 490.07L262.84 490.24L260.63 490.39L257.19 489.47L256.25 488.52L255.71 487.2L251.9 485.06L250.15 485.7L247.32 486.12L243.56 484.76L240.79 481.71L240.32 480.87L240.46 479.42L239.47 478.17L234.62 477.82L234.04 478.05L232.18 475.81L231.1 475.23L228.65 474.37L226.24 472.8L225.49 468.56L225.73 467.28L227.12 465.92L228.53 463.37L230.5 459.21L230.48 457.45L231.02 457.15L235.33 456.81L236.98 456.69H238.33L239.66 455.74L247.51 445.59L251.81 440.54L255.27 435.91L256.04 433.55L262.61 425.81L264.43 424.25L266.14 421.06L266.56 418.77L266.91 417.39L267.44 416.58L268.77 415.34L270.25 415.73L271.07 416.06L272.28 415.75L276.65 412.18L278.51 409.86L278.27 408.55L277.77 407.66L276.98 406.46L276.88 404.92L277.41 403.75L280.52 399.86L280.77 399.55L284.48 400.47L286.14 400.95L287.01 401.31L287.87 401.77L291.93 404.6L292.78 405.22L293.65 406.06L294.15 406.73L294.64 407.88L294.75 408.75L294.66 409.72L294.36 410.8L293.84 411.9L292.89 413.02L292.31 413.6L291.06 415.38L290.72 416.52L291.34 424.55L291.54 425.59L292.39 428.03L293.09 429.62L293.4 430.69L293.8 433.49L293.76 434.83L293.74 436.52L293.8 437.36L294.07 438.53L295.49 441.07L296.84 442.75L298.09 444.21L299.33 445.05L301.24 445.83L303 446.2L304.28 446.45L305.27 446.57L306.33 446.66L307.63 446.87L310.15 447.49L312.78 450.08L313.79 451.69L318.86 455.35L320.17 455.59L322.21 455.35L323.31 455.16L325.22 454.43L326.66 453.97L329.75 453.07L331.08 452.88L332.18 452.96L333.54 453.44L333.48 453.8L333.42 455.31L333.79 457.46L334.57 458.72L337.77 462.67L339.52 464.15L341 465.83L342.48 468.98L342.74 470.19L342.8 471.53L343.47 472.74L344.26 473.58L345.08 474.37L346.51 475.38L347.59 476.07L348.84 476.92L352.51 480.03L353.28 481.34L356.44 482.67L357.93 482.78L358.91 482.56L365.26 477.79L365.77 476.95L365.3 476.05L365.14 475.08L366.64 472.86L368.52 471.96L372.09 471.28L374.79 471.96L375.66 473.37L379.1 475.63L379.94 475.87L381.51 475.57L384.03 478.02L389.02 484.64L390.07 487.41L391.9 490.95L392.78 490.68L393.7 490.27L397.57 491.62L399.51 493.13L400.23 493.11Z" fill="#CCCCCC" stroke="white" stroke-width="0.5"/>
<path d="M358.4 326.67L357.09 324.47L356.96 323.64L357.21 322.6L358.55 318.13L359.27 316.94L360.33 316.06L361.73 315.75L362.98 315.04L364.15 313.73L364.29 312.92L363.85 311.99L361.76 310.09L361.35 309.26L362.47 306.12L367.67 299.65L369.74 301.17L371 302.59L375.02 302.04L380.4 298.15L381.15 297.24L382.26 295.66L383.01 294.54L383.78 293.46L384.41 292.86L385.26 292.53L386.03 293L389.34 291.63L391.16 287.19L391.11 286.23L389.17 282.92L384.7 281L385.38 278.19L385.95 277.57L387.11 272.66L385.04 270.43L385.28 265.23L385.38 264.07L385.68 263.01L386.31 261.97L387.53 260.77L387.86 260.54L387.64 262.33L387.72 263.33L388.09 264.79L391.43 269.19L394.93 270.77L396.6 271.12L397.46 271.15L400.45 269.35L401.2 268.69L402.75 267.6L411.67 265.73L417.18 265.43L418.36 266.36L421.47 266.37L422.3 266.3L429.11 264.35L430.18 263.72L431.51 263.18L433.8 262.59L434.96 263.05L443.3 264.87L444.89 265.04L447.67 265.2L453.36 265.38H455.87L461.91 264.98L463.01 264.53L463.79 264.18L465.97 262.94L468.09 262.27L475.42 262.41L478.66 263.84L481.14 266.08L487.99 271.59L490.51 273.13L490.01 273.48L488.66 275.11L488.04 276.05L487.03 278.19L486.47 279.93L485.46 282.65L481.2 288.25L480.13 289.45L477.2 291.32L476.14 291.66L473.66 292.26L472.71 292.43L470.68 292.37L469.57 292.5L465.72 294.01L458.25 298.45L457.38 299L456.23 299.76L455.8 300.82V301.66L455.72 302.51L449.2 308.51L448.02 309.21L446.3 310.04L441.8 317.64L441.05 318.61L440.14 319.38L439.44 319.82L439.04 320.26L435.73 322.3L434.2 323.17L432.62 323.69L431.47 323.79L428.9 324.73L427.92 325.15L419.78 328.85L417.01 330.9L416.21 331.37L415.01 331.86L411.4 333.08L407.04 335.86L406.16 336.83L402.6 339.61L400 340.8L398.81 340.7L397.91 339.71L397.05 338.87L395.78 338.45L392.03 338.89L388.58 340.19L387.41 341.73L386.73 342.35L385.23 343.26L381.43 343.81L377.16 344.28L371.83 344.75L371.02 344.02L363.92 336.32L361.9 333.55L361.44 332.06L361.01 330.95L359.77 329.22L358.4 327.49V326.67Z" fill="#CCCCCC" stroke="white" stroke-width="0.5"/>
<path d="M288.34 303.78L288.37 303.81L289.48 302.24L290.11 301.18L290.69 300.02L291.96 296.79L291.67 294.95L292.39 286.04L292.7 285.5L293.44 284.89L298.46 283.83L300.29 284.38L301.86 284.64L304.19 283.53L305.85 282.27L306.93 283.51L307.61 287.45L306.83 288.49L305.67 289.82L306.09 291.35L309.58 295.8L312.34 296.76L317.69 300.75L318.66 300.82L320.08 300.26L320.85 299.88L321.7 299.07L323.5 297.17L323.57 295.97L324.13 294.48L326.12 293.08L327.83 292.7L331.04 295.87L333.95 296.62L336.8 300.02L338.59 305.71L339.37 307.12L340.17 308.74L340.88 312.81L339.38 314.41L338.73 315.45L338.02 318.17L338.33 319.35L339.71 320.67L342.12 322.27L343.35 323.04L344.34 323.46L345.59 323.94L346.44 324.23L347.41 324.7L349.97 326.5L351.29 328.18L351.86 328.96L352.79 329.47L354.87 329.82L356.66 329.59L358.4 326.67V327.49L358.09 328.39L357.37 332.25L355.19 344.17L351.91 345.88L345.19 344.19L343.09 344.72L342.06 345.4L341.17 345.59L339.11 345.14L338.19 344.37L337.37 342.09L337.17 341.15L336.94 339.71L336.42 338.27L335.62 337.63L334.49 337.05L329.27 335.72L327.97 336.71L326.5 338.96L325.9 340.46L326.63 341.43L327.84 341.73L329.61 345.44L329.78 346.36V348.42L328.68 348.98L327.75 348.97L326.02 349.03L319.35 352.43L318.57 353.04L317.71 353.91L316.82 354.61L315.05 355.73L314.07 356.08L313.01 356.16L312.94 353.57L314.13 348.74L315 344.42L315.28 340.33L315.51 339.29L316.02 338.09L316.39 337.33L317.16 336.11L318.16 335.14L318.93 334.21L319.69 332.98L319.81 326.11L319.48 324.14L317.36 323.02L316.34 323.19L312.01 330.68L310.62 340.27L310.83 343.13L311.25 345.76L311.05 347.26L308.85 352.62L307.8 353.01L305.73 353.08L303.41 356.34L303.52 359.15L302.69 362.32L302.33 363.08L301.08 365.24L299.78 367.04L298.77 367.87L298.88 367.65L299.33 366.42L299.19 365.47L297.56 364.57L296.96 363.81L296.91 363.55L297.94 360.98L298.05 359.73L298.2 355L299.57 352.21L299.53 350.97L299.11 350.01L297.75 347.96L296.77 346.83L295.62 346.49L294.16 346.98L293.18 348.55L292.01 349.08L291 348.97L282.99 345.88L282.17 345.23L282.84 343.41L285.73 337.94L286.45 335.74L285.94 334.59L285.67 333.09L285.5 331.77L285.08 327.3L287.28 322.52L289.09 310.97L288.51 304.23L288.34 303.78Z" fill="#CCCCCC" stroke="white" stroke-width="0.5"/>
<path d="M298.77 367.87L299.78 367.04L301.08 365.24L302.33 363.08L302.69 362.32L303.52 359.15L303.41 356.34L305.73 353.08L307.8 353.01L308.85 352.62L311.05 347.26L311.25 345.76L310.83 343.13L310.62 340.27L312.01 330.68L316.34 323.19L317.36 323.02L319.48 324.14L319.81 326.11L319.69 332.98L318.93 334.21L318.16 335.14L317.16 336.11L316.39 337.33L316.02 338.09L315.51 339.29L315.28 340.33L315 344.42L314.13 348.74L312.94 353.57L313.01 356.16L311.51 356.09L310.28 356.35L309.24 357.13L303.36 363.54L302.61 364.84L302.02 366.33L301.16 368.23L300.48 368.98L299.65 369.15L298.88 368.73L298.77 367.87Z" fill="#CCCCCC" stroke="white" stroke-width="0.5"/>
<path d="M578.49 354.85L579.14 358.02L579.64 360.01L581.51 365.08L582.3 366.67L582.97 367.42L583.91 367.76L585.36 367.59L586.6 367.53L587.45 368.09L589.68 371.21L590.04 372.86L591.39 376.78L591.98 377.87L592.73 378.4L593.61 378.67L595.06 379.23L595.62 381.56L593.41 384.93L592.45 385.3L589.74 387.39L587.08 389.98L580.63 396.04L573.36 402.85L573.75 404.88L576.13 404.66L581.54 405.61L582.72 406.27L583.39 407.46L585.63 410.91L587.68 412L594.29 419.35L596.09 420.79L597.06 421.2L598.64 421.85L599.76 422.69L600.51 424.99L600.08 425.82L599.14 426.69L598.75 427.5L598.97 428.79L599.5 430.27L600.47 432.49L601.07 433.34L603.02 437.68L608.03 451.23L610.72 460.9L611.85 468.09L612.16 469.43L612.84 470.47L613.03 470.68L612.42 470.67L606.34 472.25L604.59 472.66L604.22 471.79L604.07 468.82V468L604.38 463.95L604.65 462.75L605.07 461.78L605.35 458.43L604.76 454.32L603.01 449.63L601.06 446.2L599.18 443.86L598.29 443.2L596.78 440.95L594.96 437.43L594.51 436.19L594.28 435.15L593.69 434.14L590.28 432.92L586.84 434.39L584.37 436.02L583.54 436.6L580.23 439.86L579.79 441.36L579.37 442.07L575.91 446.19L574.24 447.61L571.73 448.8L569.99 449.21L568.88 449.32L567.81 449.18L566.86 448.86L566.06 448.26L565.02 446.91L563.78 444.78L563.38 444.01L562.83 441.76L562.16 440.75L561.37 440.26L559.29 439.69H558.38L557.14 441.49L556.71 442.47L555.88 444.8L556.88 447.97L557.76 448.12L558.95 448.34L560.17 450.07L532.32 449.99L521.02 449.93L515.37 449.91H509.91L508.77 449.24L506.34 448.59L502.44 447.62L496.39 449.21L492.91 450.75L490.4 450.63L489.03 449.51L485.25 448.59L484.11 448.42L482.83 448.34L481.64 447.93L480.02 446.66L477.95 444.88L476.98 443.51L476.7 439.79L477.69 439.3L478.32 438.37L477.81 436L477.7 435.77L478.36 434.43L480.7 432.71L481.73 432.13L483.97 429.46L482.64 427.21L480.79 426.34L479.03 427.37L471.33 428.82L463.94 428.89L457.75 425.98L456.61 423.65L455.4 420.93L452.28 417.06L449.66 417.04L448.78 415.87L450.7 414.22L452.86 412.88L455.9 411.08L457.2 410.26L462.57 406.65L463.4 405.46L465.37 405.11L467.3 404.6L468.34 404.14L471.42 399.92L471.32 398.65L471.01 396.91L471.3 393.65L473.36 390.18L475.05 389.74L476.69 389.73L478.49 389.41L478.22 386.38L477.56 385.42L476.96 384.07L478.31 382.29L481.7 381.08L482.85 381.76H484.89L489.76 377.48L494.29 375.71L496.21 375.39L498.77 374.14L500.3 372.64L500.4 371.63L500.13 370.21L500.96 369.32L504.73 369.11L506.78 370.17L509.52 369.8L510.67 368.82L514.1 368.33L515.91 369.09L517 369.98L517.25 371.36L523.51 370.13L528.39 369.09L530.57 370.02L532.52 368.33L534.73 366.18L537.3 365.44L539.3 365.61L542.24 365.81L544.27 365.16L544.98 363.82L545.49 363.16L551.22 358.11L552.12 357.66L559.27 356.83H564.69L568.05 358.48L568.64 359.27L568.73 360.34L569.47 360.97L571.47 359.49L572.84 358L573.8 356.81L574.57 356.26L577.57 355.14L578.49 354.85Z" fill="#CCCCCC" stroke="white" stroke-width="0.5"/>
<path d="M477.7 435.77L476.66 435.73L469.18 438.6L456.69 442.03L454.52 442.24L452.21 442.2L447.54 441.82L442.15 446.01L441.26 446.44L439.39 446.37L438.14 446.63L434.11 449.12L431.33 452.85L426.25 458.57L423.4 460.54L422.71 461.72L420.22 467.92L420.29 468.99L420.46 470.13L420.44 472.33L417.36 476.55L414.74 479.1L413.74 479.22L412.38 479.54L411.07 480.55L410.52 481.38L410.16 482.63L409.91 483.75L406.32 487.13L401.03 492.18L400.3 492.99L400.23 493.11L399.51 493.13L397.57 491.62L393.7 490.27L392.78 490.68L391.9 490.95L390.07 487.41L389.02 484.64L384.03 478.02L381.51 475.57L379.94 475.87L379.1 475.63L375.66 473.37L374.79 471.96L372.09 471.28L368.52 471.96L366.64 472.86L365.14 475.08L365.3 476.05L365.77 476.95L365.26 477.79L358.91 482.56L357.93 482.78L356.44 482.67L353.28 481.34L352.51 480.03L348.84 476.92L347.59 476.07L346.51 475.38L345.08 474.37L344.26 473.58L343.47 472.74L342.8 471.53L342.74 470.19L342.48 468.98L341 465.83L339.52 464.15L337.77 462.67L334.57 458.72L333.79 457.46L333.42 455.31L333.48 453.8L333.54 453.44L333.53 452.23L333.65 442.39L333.67 441.07L334.13 426.99L335.23 423.31L344.2 424.45L347.28 424.09L353.33 422.75L361.01 420.14L362.65 418.14L363.92 415.32L364.59 414.71L366.07 414.05L367.28 413.74L369 414.73L376.84 412.82L378.07 410.99L379.98 409.24L386.99 405.66L398.03 404.65L401.57 405.36L409.76 404.11L412.39 403.36L417.97 403.67L425.48 403.56L430.45 402.44L435.03 402.41H437.03L439.03 402.61L439.57 402.99L439.87 405.13L443.59 404.46L448.14 405.81L450.49 407.08L454.69 407.29L455.82 406.28L456.24 404.51L456.87 403.52L459.54 404.51L461.64 405.45L462.71 405.78L463.4 405.46L462.57 406.65L457.2 410.26L455.9 411.08L452.86 412.88L450.7 414.22L448.78 415.87L449.66 417.04L452.28 417.06L455.4 420.93L456.61 423.65L457.75 425.98L463.94 428.89L471.33 428.82L479.03 427.37L480.79 426.34L482.64 427.21L483.97 429.46L481.73 432.13L480.7 432.71L478.36 434.43L477.7 435.77Z" fill="#CCCCCC" stroke="white" stroke-width="0.5"/>
<path d="M230.48 457.45L228.49 457.91L227.46 457.96L226.61 457.66L222.29 454.96L219.27 452.1L218.83 451.13L219.01 449.68L219.16 448.17L218.93 446.91L217.13 444.37L215.23 443.54L213.85 443.59L212.92 443.55L212.11 442.61L211.53 436.21L211.57 434.12L212.77 433.27L214.56 432.87L215.9 433.16L217.27 433.78L218.5 434.45L220.18 435.02L221.82 435.12L222.94 434.82L223.56 434.28V433.06L223.22 431.69L222.77 430.77L222.37 429.82L221.62 427.55L221.74 426.73L225.76 422.19L226.71 421.67L227.6 421.75L229.62 422.3L230.83 422.13L231.87 421.69L232.64 421.01L233.87 419.33L234.71 418.17L236.04 417.37L237.84 417.95L239.64 419.11L241.62 420.75L242.42 420.97L245.51 420.17L245.36 419.3L244.91 418.06L243.18 413.67L242.57 412.6L241.47 410.88L239.4 406.37L236.81 398.74L236.25 397.95L236.49 398.01L237.31 398.03L238.35 397.96L240.83 397.35L242.44 396.71L245.06 394.83L246.04 393.83L248.27 391.66L249.37 391.22L250.98 391.17L252.34 391.11L253.57 390.95L254.38 390.62L254.6 389.72L254.46 388.36L256.66 384.6L257.28 383.81L263.44 381.23L264.57 380.87L275.78 379.18L276.97 379.53L277.42 380.42L277.19 382.09L276.62 382.89L275.79 383.56L275.28 384.75L276.17 385.76L277.98 386.22L279.22 386.17L280.37 385.9L283.12 383.9L286.65 379.66L286.58 378.43L286.22 377.44L286.51 376.59L288.75 372.87L290.35 370.55L293.34 366.75L294.36 365.5L295.61 364.46L296.59 363.72L296.91 363.55L296.96 363.81L297.56 364.57L299.19 365.47L299.33 366.42L298.88 367.65L298.77 367.87L297.15 371.95L296.69 372.88L296.07 373.69L295.04 374.9L294.55 375.83L293.85 378.26L293.17 380.98L293.4 381.85L293.54 382.83L293.65 385.16L291.37 389.12L290.64 390.12L289.73 391.19L288.62 392.03L287.91 392.48L286.85 393.07L285.15 394.22L282.9 395.87L281.84 396.79L280.77 399.55L280.52 399.86L277.41 403.75L276.88 404.92L276.98 406.46L277.77 407.66L278.27 408.55L278.51 409.86L276.65 412.18L272.28 415.75L271.07 416.06L270.25 415.73L268.77 415.34L267.44 416.58L266.91 417.39L266.56 418.77L266.14 421.06L264.43 424.25L262.61 425.81L256.04 433.55L255.27 435.91L251.81 440.54L247.51 445.59L239.66 455.74L238.33 456.69H236.98L235.33 456.81L231.02 457.15L230.48 457.45Z" fill="#CCCCCC" stroke="white" stroke-width="0.5"/>
<path d="M364.18 91.42L363.7 91.3L361.59 91.1L360.32 91.21L358.7 91.56L357.79 91.81L356.35 92.07L354.94 92.15L352.66 90.6L354.93 87.73L356.23 87.16L356.73 86.09L357.19 83.27L356.58 81.69L349.7 74.3L348.27 73.42L347.03 73.21L345.11 73.3L341.83 73.32L338.17 73.26L337.12 73.16L335.93 72.84L335.22 72.11L334.51 70.99L333.84 68.42L334.62 62.82L335.85 61.02L336.61 60.33L337.27 59.26L338 57.99L338.28 57.12L338.27 56.2L339.44 56.27L344.57 56.1L346.2 55.86L347.35 55.6L348.69 55.19L349.39 54.74L351.91 52.96L352.34 51.81L354.52 49.81L358.98 46.54L369.94 38.8L371.5 38.01L380.29 34.63L381.54 34.77L382.77 34.74L384.47 34.2L390.1 30.94L390.97 30.38L392.04 29.29L395.91 21.28L395.9 20.42L395.62 17.06L394.67 16.46L395.12 15.64L395.91 15.29L400.45 14.94L403.08 15.19L402.35 16.29L401.14 17.67L402.2 19.16L403.15 19.31L404.19 18.92L407.22 16.91L409.47 12.61L414.28 10.39L416.82 8.07999L415.84 7.34999L413.81 7.52999L412.48 8.38999L412.99 7.25999L414.37 6.48999L415.57 6.29999L419.61 6.72999L421.05 7.04999L431.48 11.24L432.82 12.26L433.74 13.09L438.11 21.61L438.27 22.58L438.13 23.69L437.43 25.01L435.68 26.39L433.28 27.77L431.2 29.15L429.67 31.38L429.46 31.89L426.22 33.57L423.55 34.29L417.02 35.97L413.1 37.37L411.12 38.26L402.93 39.7L398.63 46.84L393 57.09L388.53 60.66L387.21 60.71L382.17 61.91L381.38 62.4L379.37 66.19L375.51 71.85L372.58 77.09L368.24 84.59L367.14 86.1L364.39 90.68L364.18 91.42Z" fill="#CCCCCC" stroke="white" stroke-width="0.5"/>
<path d="M324.34 151.65L322.24 151.62L318.93 150.95L313.13 149.05L310.88 146.82L309.82 145.1L306.71 142.32L304.95 141.22L301.14 139.52L299.76 139.53L295.63 137.84L292.82 134.8L290.21 133.03L289.3 133.16L288.44 133.26L285.99 132.19L286.05 130.22L286.51 127.38L285.5 123L285.1 122.26L283.16 115.9L283.05 115L282.93 112.43L283.32 111.34L284.55 110.79L285.86 110L286.15 108.39L283.95 105.31L282.43 104.88L280.51 103.98L280.1 102.68L281.47 98.16L283.2 93.95L285.44 88.84L286.18 87.89L287.07 87.05L288.97 85.79L289.35 83.99L289.57 79.7L289.64 76.98L289.53 71.26L287.32 67.19L286.79 66.3L285.82 65.38L284.5 64.54L283.69 62.53L283.72 62.29L284.8 63.12L298.39 67.8L299.58 68.06L300.62 68.2L301.74 68.23H303.55L305.12 68.08L306.18 67.87L307.16 67.57L306.64 68.22L305.71 68.57L304.58 68.73L301.93 68.95L300.02 68.72L294.81 72.63L294.16 74.88L294.75 76.56L297.8 75.33L300.02 77.28L300.33 78.26L302.92 78.28L303.73 77.72L304.43 76.56L305.51 73.21L307.23 68.88L308.34 66.82L309.73 62.58L309.36 59.32L309.43 57.72L310.32 56.29L311.41 54.6L312.81 53.69L317.67 52.65L318.67 52.7L320.45 53.38L321.21 54.21L324.68 55.64L327.82 56.44L332.7 56.46L334.39 56.21L335.9 56.13L337.45 56.1L338.27 56.2L338.28 57.12L338 57.99L337.27 59.26L336.61 60.33L335.85 61.02L334.62 62.82L333.84 68.42L334.51 70.99L333.74 72.02L333.46 72.94L333.65 74.2L334.21 75.03L335.79 76.75L337.27 78.47L336.44 80.45L335.87 81.4L335.76 82.27L335.79 83.11L336.1 84.24L337.65 85.77L338.15 87.21L330.03 91.11L324.52 93.19L323.68 93.47L321.44 94.7L317.55 101.38L317.17 102.47L316.17 106.3L320.91 112.58L325.82 119.45L328.07 125.86L322.6 126.18L318.21 125.94L317.05 126.58L314.44 130.12L315.31 130.9L316.64 131.44L317.86 132.53L318.4 133.33L320.34 136.36L321.17 137.75L321.52 138.98L323.68 143.66L324.89 144.73L326.14 146.04L327 147.41L326.14 148.95L324.73 150.98L324.34 151.65Z" fill="#CCCCCC" stroke="white" stroke-width="0.5"/>
<path d="M439.44 319.82L439.36 320.19L439.38 341.34L439.4 350.49L439.44 361.03L439.47 386.34L439.5 396.86L439.52 402.46L439.57 402.99L439.03 402.61L437.03 402.41H435.03L430.45 402.44L425.48 403.56L417.97 403.67L412.39 403.36L409.76 404.11L401.57 405.36L398.03 404.65L386.99 405.66L379.98 409.24L378.07 410.99L376.84 412.82L369 414.73L367.28 413.74L366.07 414.05L364.59 414.71L363.92 415.32L362.65 418.14L361.01 420.14L353.33 422.75L347.28 424.09L344.2 424.45L335.23 423.31L334.13 426.99L333.67 441.07L333.65 442.39L333.53 452.23L333.54 453.44L332.18 452.96L331.08 452.88L329.75 453.07L326.66 453.97L325.22 454.43L323.31 455.16L322.21 455.35L320.17 455.59L318.86 455.35L313.79 451.69L312.78 450.08L310.15 447.49L307.63 446.87L306.33 446.66L305.27 446.57L304.28 446.45L303 446.2L301.24 445.83L299.33 445.05L298.09 444.21L296.84 442.75L295.49 441.07L294.07 438.53L293.8 437.36L293.74 436.52L293.76 434.83L293.8 433.49L293.4 430.69L293.09 429.62L292.39 428.03L291.54 425.59L291.34 424.55L290.72 416.52L291.06 415.38L292.31 413.6L292.89 413.02L293.84 411.9L294.36 410.8L294.66 409.72L294.75 408.75L294.64 407.88L294.15 406.73L293.65 406.06L292.78 405.22L291.93 404.6L287.87 401.77L287.01 401.31L286.14 400.95L284.48 400.47L280.77 399.55L281.84 396.79L282.9 395.87L285.15 394.22L286.85 393.07L287.91 392.48L288.62 392.03L289.73 391.19L290.64 390.12L291.37 389.12L293.65 385.16L293.54 382.83L293.4 381.85L293.17 380.98L293.85 378.26L294.55 375.83L295.04 374.9L296.07 373.69L296.69 372.88L297.15 371.95L298.77 367.87L298.88 368.73L299.65 369.15L300.48 368.98L301.16 368.23L302.02 366.33L302.61 364.84L303.36 363.54L309.24 357.13L310.28 356.35L311.51 356.09L313.01 356.16L314.07 356.08L315.05 355.73L316.82 354.61L317.71 353.91L318.57 353.04L319.35 352.43L326.02 349.03L327.75 348.97L328.68 348.98L329.78 348.42V346.36L329.61 345.44L327.84 341.73L326.63 341.43L325.9 340.46L326.5 338.96L327.97 336.71L329.27 335.72L334.49 337.05L335.62 337.63L336.42 338.27L336.94 339.71L337.17 341.15L337.37 342.09L338.19 344.37L339.11 345.14L341.17 345.59L342.06 345.4L343.09 344.72L345.19 344.19L351.91 345.88L355.19 344.17L357.37 332.25L358.09 328.39L358.4 327.49L359.77 329.22L361.01 330.95L361.44 332.06L361.9 333.55L363.92 336.32L371.02 344.02L371.83 344.75L377.16 344.28L381.43 343.81L385.23 343.26L386.73 342.35L387.41 341.73L388.58 340.19L392.03 338.89L395.78 338.45L397.05 338.87L397.91 339.71L398.81 340.7L400 340.8L402.6 339.61L406.16 336.83L407.04 335.86L411.4 333.08L415.01 331.86L416.21 331.37L417.01 330.9L419.78 328.85L427.92 325.15L428.9 324.73L431.47 323.79L432.62 323.69L434.2 323.17L435.73 322.3L439.04 320.26L439.44 319.82Z" fill="#CCCCCC" stroke="white" stroke-width="0.5"/>
<path d="M202.7 467.01L201.9 467.13L200.68 467.4L199.78 467.76L196.03 469.96L195.13 470.49L193.84 471.3L192.67 472.14L192.21 472.85L192.44 480.63L192.66 481.7L193.1 482.77L194.37 486.68L195.72 492.57L195.65 493.54L194.2 494.34L192.97 494.74L191.81 494.99L191.17 498.09L191.67 499.58L192.06 501.1L192.32 503.4L192.39 504.75L192.3 505.95L187.68 506.96L186.56 506.91L182.74 505.81L179.95 504.92L178.19 503.77L176.99 498.51L177.19 496.71L177.3 495.21L176.46 493.83L175.24 493.43L174.41 493.71L173.49 493.82L172.28 493.07L171.67 492.57L169.83 491.56L168.91 490.82L168.4 489.93L168.3 488.67L168.52 487.52L167.61 486.38L166.77 486.05L163.42 486.76L162.01 487.56L160.37 487.34L159.16 486.85L157.25 484.83L154.38 483.64L153.03 483.8L151.47 483.64L150.23 483.17L147.13 480.93L144.87 478.99L144.11 478.51L142.66 478.14L141.57 477.94L140.66 477.58L139.77 476.93L136.15 473.42L135.56 472.59L135.12 471.86L132.09 471.17L131.26 471.61L129.97 469.79L128.31 469.01L127.29 468.61L126.43 468.05L120.98 461.82L118.96 457.31L116.09 455.97L115.25 455.81L113.73 455.77L111.86 455.22L111.06 453.87L114.28 448.93L118.05 445.93L119.52 445.48L122.97 446.12L124.16 446.74L128.75 448.42L130.14 448.32L131.7 443.61L131.85 442.18L129.78 438.05L128.82 437.56L127.39 436.17L126.3 432.45L126.04 430.86L127.87 426.93L130.34 422.34L131.05 421.2L131.4 422.78L132.05 421.48L132.8 421L135.17 420.63L135.57 418.13L136.71 417.96L138.31 419.18L139.16 420.02L140.07 420.85L143.43 417.52L148.4 418.68L149.3 418.82L154.89 417.38L156.4 415.93L156.78 413.76L156.88 414.51L157.3 415.49L157.81 416.38L158.91 417.79L161.3 421.35L162.72 423.88L164.3 427.33L164.82 428.21L166.51 429.63L167.6 430.22L168.45 430.49L169.63 430.76L171.84 431.06H172.69L174.61 431.01L178.99 430.51L179.75 430.91L180.41 431.84L182.22 434.89L185.59 439L187.34 440.55L188.42 441.53L188.06 442.53L187.12 443.94L186.19 444.41L184.95 445.67L184.48 446.39L184.08 451.89L185.34 452.05L186.91 452.04L192.62 451.62L193.54 451.43L195.13 450.85L195.96 450.75L203.75 455.56L204.61 456.78L204.71 457.88L203.82 465.04L202.7 467.01ZM149.17 418.31L148.82 418.24L145.49 415.16L145.46 414.6L145.57 413.94L145.9 413.34L146.47 412.59L147.71 412.28L148.19 412.2L148.87 412.3L150 414.35L150.17 414.74L150.56 416.79L150.43 417.22L149.44 418.19L149.17 418.31Z" fill="#CCCCCC" stroke="white" stroke-width="0.5"/>
<path d="M399.41 230.82L398.61 231.47L397.81 231.84L396.66 231.81L395.29 231.44L394.22 231.34L393.37 231.65L389.23 234.01L388.57 235.38L387.98 236.5L386.77 237.57L385.79 237.89L383.05 237.98H380.53L379.98 238.18H379.13L378.58 237.53L378.74 235.91L378.69 234.39L378.02 233.76L375.04 234.59L374.13 235.21L365.88 231.72L365.64 225.08L366.04 220.32V219.37L365.88 218.39L364.78 215.43L364.23 214.34L360.74 208.3L359.73 208.02L351.95 207.99L351.11 208.44L350.62 209.24L349.75 210.69L347.03 210.92L341.33 209.18L340.52 208.92L339.59 208.14L339.07 206.69L337.44 205.06L335.96 204.34L340.45 203.79L341.61 203.5L343.38 202.57L344.46 201.56L345.46 199.99L347.97 194.76L348.21 193.35L347.24 189.42L346.81 188.25L345.86 186.25L344.31 184.1L343.71 182.63V181.65L344.35 180.92L345.27 180.8L346.44 180.08L346.78 178.39L346.89 176.46L346.86 175.11L346.67 174.19L346.23 173.43L345.3 173L343.86 173.11L343.32 173.86L343.47 175.2L343.53 176.1L343.48 177.24L342.32 178.2L341.17 177.85L340.7 176.82L338.96 169.99L339.29 167L339.6 165.95L340.17 164.96L341.55 163.62L342.2 162.79L342.79 161.28L342.7 158.84L342.34 156.74L342.49 153.62L343.47 146.92L343.66 146.1L344.17 144.81L344.58 143.97L344.83 143.58L346.17 143.79L351.27 143.59L353.59 142.57L354.5 141.4L360 138.16L361.19 139.87L362.13 142.35L361.96 143.3L365.13 145.74L369.49 147.36L371.25 154.12L374.24 165.56L384.19 175.96L384.92 176.12L385.07 176.19L385.63 176.8L386.13 178.15L387.75 185.8L388.23 188.4L388.08 189.53L387.37 190.11L385.58 190.12L382.68 195.37L382.11 206.29L382.16 212.83L384.35 216.02L385.07 216.57L385.23 216.61L388.28 217.16L390.81 217.31L395.25 219.96L394.87 221.44L394.84 222.55L395.64 225.18L396.15 226.23L396.95 227.67L397.81 229.1L398.9 230.8L399.41 230.82Z" fill="#CCCCCC" stroke="white" stroke-width="0.5"/>
<path d="M234.04 478.05L234.62 477.82L239.47 478.17L240.46 479.42L240.32 480.87L240.79 481.71L243.56 484.76L247.32 486.12L250.15 485.7L251.9 485.06L255.71 487.2L256.25 488.52L257.19 489.47L260.63 490.39L262.84 490.24L263.65 490.07L264.82 489.71L266.47 490.11L267.64 491.01L269.27 495.41L268.89 496.83L269.04 498.09L270.31 500.71L271.47 500.97L272.72 500.26L273.87 499.51L277.78 501.32L278.43 501.95L278.95 503.03L278.84 503.85L278.29 504.96L279.33 509.71L283.67 511.53L284.92 511.82L289.35 512.45L290.16 513.06L290.82 514.11L292.38 518.62L291.75 519.29L290.85 520.02L291.75 523.24L294.99 525.18L299.87 526.09L300.66 525.36L300.51 524.53L301.18 523.93L305.54 525.26L307.4 526.7L308.19 527.79L311.76 529.82L314.83 530.67L316.26 532.17L318.24 534.14L320.99 535.63L322.47 536.15L325.98 537L323.11 537.86L318.05 539.54L311.51 541.76L306.17 543.69L305.35 543.96L303.94 544.31L303.7 543.92L302.97 542.91L296.25 537.77L294.16 536.37L293.12 537.31L289.99 535.47L289.7 534.32L289.65 533.42L289.48 532.52L288.97 531.35L288.32 530.31L287.37 529.17L286.56 528.86L285.71 529.08L284.53 529.89L283.75 530.18L280.54 528.81L279.61 527.65L277.11 525.7L272.34 522.52L269.54 522.17L269.06 523.46L268.68 524.59L267.31 525.68L266.21 525.56L265.62 524.85L264.57 524.28L263.57 523.87L261.54 523.61L260.08 523.1L256.6 520.99L254.27 519.36L249.38 518.9L248 519.21L246.63 518.75L240.37 513.98L237.59 510.17L235.75 507.56L235.12 506.84L230.79 505.48L226.76 504.47L220.25 504.6L219.97 509.54L218.28 510.55L214.31 511.69L213.42 511.63L212.67 511.21L211.55 510.07L207.24 509.07L206.81 509.89L205.03 510.47L203.33 510.78L201.06 510.86L194.11 508.13L192.28 505.94L192.37 504.75L192.3 503.4L192.04 501.1L191.65 499.58L191.15 498.09L191.78 494.99L192.94 494.74L194.16 494.34L195.62 493.54L195.69 492.58L194.34 486.68L193.07 482.77L192.64 481.7L192.42 480.63L192.18 472.85L192.65 472.15L193.82 471.31L195.11 470.5L196.02 469.97L199.77 467.77L200.68 467.41L201.9 467.13L202.7 467.01L205.58 466.45L206.77 466.16L208.26 464.98L209.36 463.18L210.56 462.46L212.34 462.62L213.45 463.62L215.03 466.71L215.48 467.86L215.52 468.69L215.07 469.58L214.66 470.3L214.4 471.11L213.89 475.1L214.97 477.34L215.98 478.45L220.63 480.38L221.55 480.68L222.91 480.87L228.17 480.91L229.32 480.66L233.59 479.09L234.04 478.05Z" fill="#CCCCCC" stroke="white" stroke-width="0.5"/>
<path d="M248.94 328.38L249.54 328.1L253.84 328.41L256.53 328.82L257.76 329.15L258.89 329.11L261.49 327.62L261.78 328.17L258.51 332.96L255.67 336.37L254.43 337.96L253.96 338.88L254.05 340.82L253.95 342.46L253.64 343.3L253.29 344.09L252.9 344.82L252.39 345.47L251.36 346.67L248.87 350.4L248.45 352.52L248.5 353.62L247.58 352.97L246.83 351.64L246.21 349.56L245.45 346.87L242.57 334.16L242.28 332.75L242.38 331.8L243.04 331.21L245.11 331.39L247.09 331.35L248.95 330.97L249.43 330.17L248.94 328.38Z" fill="#CCCCCC" stroke="white" stroke-width="0.5"/>
<path d="M261.49 327.62L258.89 329.11L257.76 329.15L256.53 328.82L253.84 328.41L249.54 328.1L248.94 328.38L246.46 327.23L241.07 325.88L237.9 321.31L234.63 318.13L233.16 316.91L232.29 316.6L230.51 316.91L229.84 316.65L228.92 316.17L228.11 315.65L227.38 314.88L226.92 314.14L223.01 305.6L222.75 304.35L226.21 300.74L226.97 300.24L233.75 297.02L235.11 296.51L236.1 296.14L236.89 295.89L237.48 296.23L240.99 296.15L241.83 296.04L241.57 300.64L242.27 301.54L243.36 301.19L244.95 300.4L247.76 299.76L251.23 302.23L250.26 304.12L248.82 305.79L244.74 308.1L240.24 312.28L239.64 313.69L241.28 318.12L242.17 318.85L243.63 318.84L248.23 317.76L252.52 319.32L255.71 319.49L256.56 319.54L258.24 320.58L261.55 323.44L259.95 325.54L260.12 326.35L261.49 327.62Z" fill="#CCCCCC" stroke="white" stroke-width="0.5"/>
<path d="M322.16 221.32L322.9 214.94L324.6 211.05L326.31 208.34L327.09 201.67L326.45 198.44L325.71 196.89L324.5 192.85L324.47 191.59L324.45 190.2L324.66 189.27L325.29 187.76L326.86 186.32L327.96 185.66L328.51 186.65L330.12 189.73L330.93 191.52L332.34 195.53L332.03 197.22L331.22 198.53L330.26 199.97L329.88 201.46L330.42 202.55L332.95 202.72L334.7 202.86L335.76 203.82L335.96 204.34L337.44 205.06L339.07 206.69L339.59 208.14L340.52 208.92L341.33 209.18L347.03 210.92L349.75 210.69L350.62 209.24L351.11 208.44L351.95 207.99L359.73 208.02L360.74 208.3L364.23 214.34L364.78 215.43L365.88 218.39L366.04 219.37V220.32L365.64 225.08L365.88 231.72L374.13 235.21L375.04 234.59L378.02 233.76L378.69 234.39L378.74 235.91L378.58 237.53L379.13 238.18H379.98L380.53 237.98L380.84 238.66L381.25 239.94L381.72 245.98L381.65 247.19L381.4 248.28L379.49 253.79L379.02 254.74L378.35 255.54L377.56 256.01L376.6 256.22L374.44 256.29L373.68 253.56L373.15 252.38L370.78 250.91L369.57 251.1L369.54 255.24L369.83 256.68L370.48 257.71L371.12 258.9L371.23 260.98L370.61 262.7L369.51 264.72L361.87 274.17L358.86 277.14L356.27 276.73L355.15 276.51L353.98 276.64L353.1 276.87L351.98 277.42L351.32 278.15L351.15 279.37L351.66 280.8L351.49 281.79L350.79 282.54L348.49 283.62L347.25 283.76L345.87 283.37L344.98 282.68L344.36 281.49L344.09 279.8L344.25 278.78L345.35 276.71L345.66 275.59L345.76 274.69L345.68 273.57L345.28 272.62L344.49 271.88L339.67 269.34L338.4 271.05L335.96 276.96L335.17 281.7L335 282.56L334.31 284.94L333.31 285.61L332.06 284.78L330.75 283.74L325.34 284.36L320.43 285.57L319.62 284.9L318.85 282.87L318.16 282.2L313.69 279.7L309.97 276.25L308.07 272.2L307.02 271.82L305.94 272.15L305.19 272.56L304.41 272.9L303.24 272.56L301.82 271.26L300.23 268.88L298.06 265.37L296.67 263.74L298.31 263.04L299.28 262.32L303.17 257.99L303.52 257.13L302.47 255.4L302.14 251.87L302.53 250.46L304.02 248.61L305.32 248.57L308.03 247.31L312.9 243.52L314.17 242.51L314.81 241.88L315.59 240.52L316.67 238.72L318.79 236.45L320.19 235.7L322.06 234.86L323.92 233.16L323.99 232.11L323.53 230.47L322.76 229.54L322.23 228.5L321.74 224.14L321.73 223.29L321.94 222.07L322.16 221.32Z" fill="#CCCCCC" stroke="white" stroke-width="0.5"/>
<path d="M248.1 133.21L249.64 133.62L250.92 133.02L251.84 132.09L252.43 131.1L253.34 129L253.63 127.99L253.85 126.49L253.87 125.53L253.61 124.35L253.2 123.07L252.15 121.68L250.75 119.13L251.81 116.46L253.42 110.94L253.66 110.02L254.08 107.27V106.18L253.98 105.48L254.68 105.16L256.41 104.75L258.42 109.38L262.19 114.05L264.01 114.83L264.4 115.91L264.54 118.89L264.46 119.76L267.6 122.02L278.24 130.79L278.99 131.63L280.01 132.86L280.68 133.83L280.84 134.77L280.88 135.92L280.55 138.15L280.44 139.13L280.61 140.29L281.28 141.9L282.68 144.66L284.37 146.73L286.79 148.27L287.64 148.58L288.43 148.91L289.5 149.52L291.87 151.18L293.06 152.27L294.39 154.38L296.6 159.34L295.08 160.67L295.07 168.15L295.43 169.75L296.05 171.65L296.64 172.63L295.53 175.64L293.84 179.03L292.93 180.13L290.94 180.39L289.41 180.66L288.26 181.07L287.9 181.34L286.97 180.09L286.69 178.54L286.51 176.96L283.53 174.3L277.7 171.86L276.58 173.08L275.77 173.88L273.42 175.5L270.32 176.33L270.08 174.62L269.92 172.39L268.91 171.8L268.02 171.93L266.38 172.48L265.18 172.13L264 165.09L261.6 158.84L261.66 157.68L264.83 156.48L266.6 156.23L267.94 156.1L269.19 156.6L269.73 154.07L269.68 153.03L268.12 148.78L265.69 146.69L264.88 146.24L264.03 145.89L260.9 145.12L260.12 144.46L256.29 140.47L250.98 136.99L250.21 136.34L249.46 135.52L248.78 134.62L248.1 133.21Z" fill="#CCCCCC" stroke="white" stroke-width="0.5"/>
<path d="M1.32003 5.2L1.03003 4.94V2.89L1.29003 2.06L1.67003 1.42L2.18003 1L2.63003 1.19L2.23003 3.44L1.76003 4.48L1.44003 5.17L1.32003 5.2Z" fill="#CCCCCC" stroke="white" stroke-width="0.5"/>
<path d="M248.5 353.62L248.45 352.52L248.87 350.4L251.36 346.67L252.39 345.47L252.9 344.82L253.29 344.09L253.64 343.3L253.95 342.46L254.05 340.82L253.96 338.88L254.43 337.96L255.67 336.37L258.51 332.96L261.78 328.17L261.49 327.62L260.12 326.35L259.95 325.54L261.55 323.44L263.76 321.71L264.41 320.94L264.43 320.03L263.69 319.06L263.18 317.92L264.94 311.49L265.23 310.65L266.38 309.36L267.71 309.16H269.11L272.82 308.78L273.52 308.33L274.03 307.14L274.44 306.42L275.42 305.42L276.68 304.42L277.78 303.83L280.69 303.13L281.62 302.94H284.11L285.83 303.05L287.44 303.46L288.34 303.78L288.51 304.23L289.09 310.97L287.28 322.52L285.08 327.3L285.5 331.77L285.67 333.09L285.94 334.59L286.45 335.74L285.73 337.94L282.84 343.41L282.17 345.23L282.99 345.88L291 348.97L292.01 349.08L293.18 348.55L294.16 346.98L295.62 346.49L296.77 346.83L297.75 347.96L299.11 350.01L299.53 350.97L299.57 352.21L298.2 355L298.05 359.73L297.94 360.98L296.91 363.55L296.59 363.72L295.61 364.46L294.36 365.5L293.34 366.75L290.35 370.55L288.75 372.87L286.51 376.59L286.22 377.44L286.58 378.43L286.65 379.66L283.12 383.9L280.37 385.9L279.22 386.17L277.98 386.22L276.17 385.76L275.28 384.75L275.79 383.56L276.62 382.89L277.19 382.09L277.42 380.42L276.97 379.53L275.78 379.18L264.57 380.87L263.44 381.23L257.28 383.81L256.66 384.6L254.46 388.36L254.6 389.72L254.38 390.62L253.57 390.95L252.34 391.11L250.98 391.17L249.37 391.22L248.27 391.66L246.04 393.83L245.06 394.83L242.44 396.71L240.83 397.35L238.35 397.96L237.31 398.03L236.49 398.01L236.25 397.95L235.65 396.65L234.43 394.51L233.28 392.86L232.81 392.05L232.89 391.05L233.08 389.68L233.02 388.98L233.52 388.58L236.69 377.9L238.95 369.09L239.87 364.05L240.18 363.19L241.3 361.2L242.43 359.52L243.36 358.48L244.19 358.3L244.96 358.65L245.74 358.96L248.27 356.93L248.5 355.73L248.58 354.1L248.5 353.62Z" fill="#CCCCCC" stroke="white" stroke-width="0.5"/>
<path d="M233.02 388.98L231.27 388.75L229.8 388.22L228.05 387.45L226.78 386.73L225.74 386.09L224.24 385.3L220.74 384.65L218.79 384.88L217.86 386.48L218.55 387.4L218.65 389.03L217.71 390.78L212.7 393L210.85 393.21L207.15 395.43L201.65 398.21L199.21 395.48L196.8 394.33L195.87 395.65L188.49 394.97L181.96 390.21L180.13 387.57L178.73 385.98L177.77 385.45L176.27 384.26L177.01 383.14L180.56 380.88L185.5 374.57L186.84 374.21L189.75 370.49L190.27 368.72L190.38 366.27L194.21 360.13L192.14 360.61L190.92 361.11L188.98 362.42L187.79 363.2L185.79 363.39L184.62 363.34L183.74 362.86L183.29 360.23L183.78 358.8L184.84 358.15L186.72 357.93L187.84 354.31L186.88 353.62L184.82 352.86L183.41 354.18L182.68 355.1L182 357.34L181.37 358.79L180.47 359.82L178.15 356.84L177.66 355.49L177.55 350.95L178.02 349.45L181.66 347.87L184.18 347.96L185.33 346.71L186.25 348.43L187 349.04L188.58 348.65L189.53 348.61L190.86 349.15L194.98 352.68L200.68 354.58L203.62 356.4L204.53 356.77L205.67 356.84L206.78 356.69L213.17 354.66L217.78 350.97L218.33 349.5L216.49 347.67L215.48 346.47L215.14 345.69L214.89 344.88L214.63 343.73L214.46 341.9L214.54 341L214.76 340.04L215.28 339.27L218.37 333.54L221.38 326.69L221.83 325.71L222.41 325.04L227.03 321.25L227.88 320.75L228.84 320.33L229.62 319.77L230.16 318.57L230.42 317.55L230.51 316.91L232.29 316.6L233.16 316.91L234.63 318.13L237.9 321.31L241.07 325.88L246.46 327.23L248.94 328.38L249.43 330.17L248.95 330.97L247.09 331.35L245.11 331.39L243.04 331.21L242.38 331.8L242.28 332.75L242.57 334.16L245.45 346.87L246.21 349.56L246.83 351.64L247.58 352.97L248.5 353.62L248.58 354.1L248.5 355.73L248.27 356.93L245.74 358.96L244.96 358.65L244.19 358.3L243.36 358.48L242.43 359.52L241.3 361.2L240.18 363.19L239.87 364.05L238.95 369.09L236.69 377.9L233.52 388.58L233.02 388.98Z" fill="#CCCCCC" stroke="white" stroke-width="0.5"/>
<path d="M439.44 319.82L440.14 319.38L441.05 318.61L441.8 317.64L446.3 310.04L448.02 309.21L449.2 308.51L455.72 302.51L455.8 301.66V300.82L456.23 299.76L457.38 299L458.25 298.45L465.72 294.01L469.57 292.5L470.68 292.37L472.71 292.43L473.66 292.26L476.14 291.66L477.2 291.32L480.13 289.45L481.2 288.25L485.46 282.65L486.47 279.93L487.03 278.19L488.04 276.05L488.66 275.11L490.01 273.48L490.51 273.13L491.03 272.8L492.41 272.21L493.66 271.99L496.22 272.25L498.58 272.51L500.99 272.48L502.63 272.35L504.81 271.59L505.94 271.02L507.57 269.7L508.61 269.2L509.96 268.58L512.24 268.47L512.87 269.53L514.11 270.84L515.3 271.12L517.22 270.45L518.95 268.78L520.5 267.21L521.64 266.22L522.94 265.69L524.2 265.74L532.36 266.91L535.42 267.61L537.13 268.12L538.2 268.76L540.17 269.01L543.81 267.81L546.82 266.91L547.77 266.74L549.2 266.69L551.05 267.19L553.31 267.67L554.31 267.35L557.01 266.4L558.48 265.9L560.08 265.41L561.03 265.38L562.21 265.46L563.75 265.8L565.02 266.12L566.56 266.05L568.23 265.62L569.85 264.78L573.44 261.92L579.12 262.52L581.51 262.84L584.46 263.78L585.66 264.58L587.24 266.13L588.21 266.58L588.96 266.64L587.53 268.25L587.39 269.59L587.68 270.56L588.34 271.72L589.76 272.99L590.63 274.77L590.12 275.54L588.66 276.42L587.95 276.99L585.77 279.06L583.08 281.8L582.14 283.14L581.19 285.64L580.83 287.62L580.95 288.9L581.22 290.54L581.57 291.94L582.31 293.18L580.93 296.05L579.32 297.27L576.88 298.77L575.99 298.99L574.56 299.96L572.72 303.11L573.5 310.31L573.88 311.88L574.61 314.09L574.66 316.81L574.16 322.65L574.03 323.87L573.7 326.53L572.3 333.74L575.35 343.04L574.67 344.46L574.49 345.58L574.46 347.27L575.27 349.95L577.64 353.19L578.49 354.85L577.57 355.14L574.57 356.26L573.8 356.81L572.84 358L571.47 359.49L569.47 360.97L568.73 360.34L568.64 359.27L568.05 358.48L564.69 356.83H559.27L552.12 357.66L551.22 358.11L545.49 363.16L544.98 363.82L544.27 365.16L542.24 365.81L539.3 365.61L537.3 365.44L534.73 366.18L532.52 368.33L530.57 370.02L528.39 369.09L523.51 370.13L517.25 371.36L517 369.98L515.91 369.09L514.1 368.33L510.67 368.82L509.52 369.8L506.78 370.17L504.73 369.11L500.96 369.32L500.13 370.21L500.4 371.63L500.3 372.64L498.77 374.14L496.21 375.39L494.29 375.71L489.76 377.48L484.89 381.76H482.85L481.7 381.08L478.31 382.29L476.96 384.07L477.56 385.42L478.22 386.38L478.49 389.41L476.69 389.73L475.05 389.74L473.36 390.18L471.3 393.65L471.01 396.91L471.32 398.65L471.42 399.92L468.34 404.14L467.3 404.6L465.37 405.11L463.4 405.46L462.71 405.78L461.64 405.45L459.54 404.51L456.87 403.52L456.24 404.51L455.82 406.28L454.69 407.29L450.49 407.08L448.14 405.81L443.59 404.46L439.87 405.13L439.57 402.99L439.52 402.46L439.5 396.86L439.47 386.34L439.44 361.03L439.4 350.49L439.38 341.34L439.36 320.19L439.44 319.82Z" fill="#CCCCCC" stroke="white" stroke-width="0.5"/>
<path d="M507.05 562.33L506.04 564.52L506.18 567.68L499.46 568.58L498.68 565.04L498.74 564.13L495.49 561.32L491.26 562.34L488.41 563.66L487.59 563.96L486.23 563.73L485.94 562.89L487.06 559.71L486.86 558.19L481.03 558.58L479.67 559.46L479.02 560.34L478.96 561.18L479.55 561.84L480.74 562.14L481.34 562.75L481.02 563.7L480.33 564.47L479.49 564.83L478.34 564.74L473.27 560.72L472.76 559.86L472.44 558.88L472.71 557.99L474.13 557.16L475.21 556.32L474.87 554.56L473.92 553.58L472.88 552.68L472.82 551.11L474.15 548.99L474.09 544.17L475.59 538.63L474.88 537.71L472.86 536.65L470.4 538.5L471.12 539.71L469.66 540.04L466.91 539.14L465.59 537.9L464.99 536.96L463.38 535.3L452.97 531.94L452.27 533.27L449.26 534.49L447.64 531.85L445.95 524.27L444.91 522.31L442.83 520.11L441.25 520.76L437.14 519.46L428.62 514.28L427.64 513.53L425.75 512.6L422.71 512.46L421.95 513.08L421.56 513.5L420.65 513.75L416.84 511.65L413.57 509.58L410.57 506.85L407.98 506.19L406.54 501.78L403.8 497L401.03 493.8L400.23 493.11L400.3 492.99L401.03 492.18L406.32 487.13L409.91 483.75L410.16 482.63L410.52 481.38L411.07 480.55L412.38 479.54L413.74 479.22L414.74 479.1L417.36 476.55L420.44 472.33L420.46 470.13L420.29 468.99L420.22 467.92L422.71 461.72L423.4 460.54L426.25 458.57L431.33 452.85L434.11 449.12L438.14 446.63L439.39 446.37L441.26 446.44L442.15 446.01L447.54 441.82L452.21 442.2L454.52 442.24L456.69 442.03L469.18 438.6L476.66 435.73L477.7 435.77L477.81 436L478.32 438.37L477.69 439.3L476.7 439.79L476.98 443.51L477.95 444.88L480.02 446.66L481.64 447.93L482.83 448.34L484.11 448.42L485.25 448.59L489.03 449.51L490.4 450.63L490.55 451.14V476.77L495.66 476.76L499.98 476.53L507.33 478.15L509.74 477.41L511.32 476.74L514.35 478.34L515.87 479.76L519.48 485.31L518.7 489.84L520 494.3L516.62 495.43L513.42 495.16L511.71 493.79L506.34 490.51L497.1 492.94L494.36 494.71L492.47 496.04L487.25 496.19H484.73L482.21 496.71L482.14 499.73L482.06 505.58L482.01 508.1L481.89 514.78L481.76 520.66L481.68 524.27L481.66 527.11L483.16 529L486.79 533.12L494.79 539.32L495.71 539.53L496.89 539.77L499.28 540.89L500.27 541.95L501.63 546.66L501.25 548.01L500.69 549.34L499.91 550.32L500.02 551.61L503.93 558.88L505.45 559.76L507.37 561.65L507.05 562.33Z" fill="#CCCCCC" stroke="white" stroke-width="0.5"/>
</svg>
