<svg width="614" height="713" viewBox="0 0 614 713" fill="none" xmlns="http://www.w3.org/2000/svg">
<path d="M221.35 500.2L221.62 500.8L222.73 501.94L225.77 503.15L227.83 502.84L229.62 501.64L231.03 501.37L231.95 501.65L234.13 503.7L235.75 502.38H236.22L237.78 503.89L238.91 504.5L240.54 503.88L241.23 502.86L241.3 506.09L241.87 507.9L242.49 508.47L244.31 508.94L244.88 509.48L244.94 510.1L244.53 511.29L243.94 511.68L242.08 511.63L241.8 512.34L242.87 513.42L244.76 514.67L245.35 514.85L245.81 513.67L246.42 513.38L247.63 513.85L247.99 514.44L247.95 515.1L247.49 515.71L245.65 516.7L244.67 517.92L243.4 518.56L242.87 519.15L243.6 520.32L244.15 520.93L246.79 520.82L247.99 521.43L248.45 522L249.06 522.18L251.2 520.96L252.41 520.73L252.98 521L253.95 522.13L255.89 521.02H256.55L257.09 521.7L256.93 523.06L255.14 526.27L254.86 527.5L255.46 527.99L256 527.43L256.52 526.25L257.12 526.23L257.21 528.31L257.84 529.6L258.1 532.23L259.48 533.9L259.55 535.05L260.42 536.8L260.23 537.41L259.62 538.09L257.25 539.29L256.52 540.39V541.3L256.12 542.09L254.23 543.59L253.47 545.26L252.68 545.96L248.63 547.57L246.42 549.29L245.38 551.05L243.94 556.42L242.53 559.52L242.62 561.56L241.19 562.37L240.6 564.59L238.94 565.81L239.44 566.88L239.3 567.33L237.14 567.96L236.21 569.3L236.05 570.25L234.04 571.63L232.93 573.9L231.34 574.98L230.29 576.21L229.72 577.34L227.83 578.29L225.83 580.23L225.53 581.07L225.76 581.39L225.74 581.98L224.83 583.29L224.05 585.35L223.46 586.48L222.39 587.07L221.92 587.73L222.23 589.43L221.71 590.04L220.83 590.5L219.94 591.06L217.91 594.68L217.11 595.57L216.25 595.84L215.18 595.77L214.5 596.2L213.66 598.19L214.16 599.85L213 601.52L210.79 602.09L209.63 603.18L208.92 604.74L209.36 605.98L209.13 606.89L208.6 606.94L207.83 606.57L206.97 606.85L204.83 606.26L203.23 606.35L202.92 606.55L203.55 607.59L203.44 607.91L202.26 608.39L201.35 609.18L200.44 609.27L198.41 608.45L197.89 608.5L196.86 609.16L196.7 609.54L196.82 611.62L198.25 611.58L198.64 611.76L198.21 612.92L198.27 613.32L199.55 613.73L199.03 615.29L197.96 616.52L196.68 617.06L196.84 620.14L196.39 620.75L193.91 622.57L193 623.84L192.81 624.99L192.93 626.87L192.38 630.09L191.22 631.27L189.99 631.83L186.33 632.67L185.12 632.11L181.98 631.83L181.37 631.61L180.8 631.02L179 625.83L179.09 625.19L179.87 623.97L178.91 622.77L178.71 622.14L178.09 621.8V622.41L177.66 623L175.79 621.91L175.16 621.89L173.97 622.52L172.63 622.68L170.26 621L168.47 620.46L167.12 620.84L164.69 622.45L163.44 622.66L161.48 621.75L160.75 621.68L156.38 621.93L153.93 622.59L152.7 622.48L151.99 622.14L151.22 620.35L149.42 619.85L148.9 617.88L148.31 617.58L146.35 617.65L143.57 614.71L142.98 614.57L141.82 615.05L141.53 614.91L141.3 614L141.32 611.96L141.64 610.58L141.48 610.2L140.52 609.99L140.05 608.82L140.84 607.93L140.93 606.41L139.91 606.39L139.64 606.12L139.48 605.15L139.66 604.19L139.18 603.58L138.93 601.59L136.79 600.34L136.82 599.33L135.77 598.69L134.93 597.83L134.79 596.88L135 595.48L134.02 595.5L133.63 595.34L133.47 594.95L134.45 594.23L134.49 593.84L134.22 593.55L133.38 593.26L131.76 592.06L130.17 592.6H127.08L126.76 591.78L126.92 590.95L128.12 590.47L127.74 589.72L127.35 589.57L125.26 589.47L124.57 590.45L124.05 590.52L122.46 590.47L122.09 590.31L121.9 589.78L122.14 587.62L121.59 587.03L120.05 587.07L119.73 586.82L119.61 586.39L119.86 585.49L119.7 585.1L119.14 584.52L118.18 584.45L118.09 584.11L119 583.34L119.11 582.91L117.34 581.28L118.04 580.35L118.77 579.96L120.71 580.01L121.5 579.69L122.91 576.57L123.07 574.46L123.94 573.06L125.53 572.42L126.78 571.43L128.15 571.11L132.22 571.54L133.11 571.34L134.59 570.57L136.63 570.39L137.98 571.31L138.93 571.5L139.73 571.18L141.21 569.87L141.66 569.75L142.05 569.91L142.66 571L143.51 571.18L143.91 570.45L143.8 567.26L143.96 566.86L146.46 567.47L149.63 566.33L150.83 566.54L151.47 566.2L151.42 565.56L152.26 564.34L152.88 563.91L154.75 563.71L155.38 563.28L156.18 561.47L158.57 560.04L158.89 559.38L159.09 557.42L158.79 553.32L159.64 549.61L161.05 545.78L160.71 545.1L158.98 543.29L157.04 542L155.84 540.67L155.25 540.53L154.06 540.76L153.43 540.33L152.81 540.12L152.24 540.26L151.63 539.94L151.17 538.79L151.01 537.45L149.99 536.32L149.74 535.69L149.99 535.01L152.47 534.01L153.59 532.77L154.18 532.43L156 532.68L156.59 532.31L156.43 531.09L154.59 527.31L153.95 524.03L153.27 513.17L154.02 505.78L153.4 503.71L153.19 498.75L152.77 496.68L152.64 491.47L153.55 492.46L156.12 493.22L157.48 493.2L160.17 494.09L163.83 496.13L164.58 496.18L165.1 495.94L167.4 492.91L167.88 492.8L168.48 493.14L169.18 494.54L170.68 495.75L171.75 496.16L176.1 496.71L177.4 497.23L180.83 499.55L181.72 499.86L182.95 499.99L185.46 499.1L186.44 499L187.37 499.08L188.76 499.58L190.56 500.58L191.41 500.4L194.11 496.56L198.03 491.7L206.83 481.18L209.56 478.5L211.53 475.08L211.92 474.55L212.3 474.52L213.35 474.91L216.86 477.78L218.75 481.31L222.31 486.51L222.83 490.08L223.28 490.79L225.28 492.47L225.47 493.28L225.27 494.49L221.83 498.25L221.33 499.53L221.35 500.2Z" fill="#CCCCCC" stroke="white" stroke-width="0.5"/>
<path d="M56.16 694.98L60.85 695.02V673.81H51.32L47.86 670.01L44.47 667.23L44.9 667.29L45.06 666.89H44.6L43.33 666.05L42.56 665.09L36.69 660.61L28.36 653.19L18.8 645.69L18.21 645.08L17.85 644.06L16.94 642.88L17.14 642.56L16.96 641.29L17.19 640.82L17 640.05L14.91 637.62L15.14 637.42L14.82 637.44L11.06 633.91L11.34 633.59L10.97 633.79L6.9 630.44L5.33 629.44L4.9 628.88L2.83 627.52L2.97 627.07L1 624.86L3.84 621.47L4.12 615.26L6.78 614.11L6.96 612.9L6.47 609.08L6.53 606.76L16.63 596.81L19.59 596.1L23.35 596.02L24.55 595.06L25.44 592.88L26.27 592.07L27.68 589.26L28.73 589.19L29.73 588.52L31.13 589.04L36.48 588.7L45.98 602.88L50.8 604.41L57.13 607.67L58.22 608.05L60.77 607.95L61.5 608.32L64.96 611.81L69.51 614.59L72.65 617.08L74.47 617.65L76.38 618.69L80.13 618.96L82.11 619.42L83.02 620.64L83.68 621.07L85.5 621.57V624.08L86.12 624.31L87.39 624.13L88.6 624.27L89.83 625.24L90.56 625.49L91.83 625.47L94.47 626.42L96.45 626.35L99.61 627.51L100.23 627.96L100.39 628.53L100.02 629.7L100.3 630.36L101.52 630.81L103.41 630.79L104.78 631.63L109.53 637.29L112.35 640.15L112.76 641.4L113.86 642.3L113.13 646L112.92 648.44L113.72 650.46L116.84 654.72L118.09 655.29L119.36 655.45L124.62 655.13L125.78 655.27L127.71 656.06L130.83 658.71L132.25 659.53L133.6 661.04L132.05 661.17L131.68 662.63L129.22 661.22L129.76 663.29L133.39 666.66L133.6 667.9L133.18 669.06L132.6 669.6L131.22 669.48L129.64 668.86L127.09 668.73L123.84 671.76L121.13 674.96L118.26 674.4L109.65 676.33L106.16 676.9L105.67 677.27L104.56 678.91L102.15 683.08L97.65 690.04L94.8 693.11L92.98 694.65L89.07 694.96L88.27 694.25L85.8 693.42L84.83 694.56L84.55 696.88L83.51 697.69L82.47 701.55L69.09 712.38L65.58 707.14L61.78 702.54L62.51 702.06L62.47 701.79L61.65 702.38L59.92 700.43L59.37 698.63L56.16 694.98Z" fill="#CCCCCC" stroke="white" stroke-width="0.5"/>
<path d="M527.519 6.04L531.369 6.21999L534.179 6.02L535.609 6.59L537.899 5.23L538.329 5.31L538.899 5.89L542.349 6.56L543.039 7.03L545.759 7.21999L546.119 7.50999L546.669 8.96999L546.689 10.45L547.039 11.13L547.109 12.41L548.229 14.87L548.849 14.85L550.789 12.91L551.769 12.72L553.159 11.56L554.029 10.23L554.249 9.48L554.669 9.21L555.169 9.42L555.619 10.78L557.269 12.63L559.419 13.39L559.659 13.16L559.769 11.13L563.769 11.99L565.559 11.42L566.899 11.72L568.379 11.73L570.699 12.54L572.269 13.9L573.159 15.32L573.679 17.49L574.189 18.52L575.249 19.09L577.369 18.78L578.739 18.32L579.549 17.52L580.239 16.41L581.049 13.53L581.449 10.38L581.699 10.09L583.289 10.06L585.059 10.46L587.079 9.11L588.109 8.79L589.219 9.46999L591.809 10.32L593.019 11.21H593.399L593.679 9.07999L594.149 8.67L595.579 9.43L596.109 9.52L596.519 9.31L596.949 8.78L597.049 7.48L598.099 6.82L598.709 5.59L599.229 5.06H599.639L599.979 5.18999L601.869 7.39L603.649 8.57999L604.349 9.71999L604.929 12.38L605.499 13.56L606.899 15.05L608.509 19.43L609.219 19.78L611.789 19.91L612.179 21.75L612.229 23.48L611.549 25.94L611.579 26.84L612.609 29.08L612.999 31.37L612.599 33.47L612.069 34.66L611.759 37.08L612.409 40.32L612.339 41.28L611.009 45.36L608.469 49.64L607.669 50.36L604.329 51.82L603.409 52.58L602.109 57.17L601.129 58.62L598.669 60.79L598.089 61.71L597.729 63.01L596.869 64.22L595.769 67.88L595.749 70.08L596.289 71.61L596.259 72.77L594.919 77.19L593.459 79.51L592.619 80.04L592.069 81.92L591.229 82.86L587.899 89.07L587.519 90.99L586.799 92.15L585.359 93.04L583.949 94.76L581.749 95.92L579.569 98.47L578.449 101.98L578.359 103.89L577.259 105.78L577.129 107.26L576.759 108.01L575.359 109.63L575.349 110.55L574.949 111.66L572.369 114.96L568.449 118.04L567.519 120.35L567.239 123.28L567.039 132.46L566.219 134.55L565.569 135.56L565.629 136.59L565.119 137.55L565.269 138.02L566.669 139.36L566.849 141.08L567.349 142.84L567.269 143.7L566.119 146.16L565.909 147.74L565.299 149.48L565.309 151.3L564.679 152.04L564.529 154.32L564.539 155.73L565.039 157.37L565.169 159.05L566.589 163.86L566.979 165.97L566.909 167.02L566.189 167.9L565.999 169.59L566.269 170.9L565.689 173.09L565.629 175.75L565.209 177.22L565.339 178.71L564.649 180.2L562.889 182.33L561.709 184.26L560.819 186.2L560.389 188.07L557.819 193.62L557.359 196L556.309 199.46L556.069 202.3L554.999 207.77L553.919 210.15L552.819 211.8L550.189 214.31L548.599 216.89L548.259 218.72L547.769 219.27L547.489 220.14L547.739 221.36L547.659 222.98L547.079 226.34L547.059 227.73L548.399 231.64L550.199 234.32L550.519 237.18L551.189 239.45L550.339 242.41L550.829 245.03L550.879 246.78L549.959 247.59L549.479 248.84L549.389 252.69L549.629 254.15L550.449 255.95L551.959 257.86L555.209 260.85L556.089 262.65L556.489 264.59L556.709 269.28L556.489 270.89L555.999 272.79L555.019 274.66L553.479 276.82L551.139 279.05L547.879 281.36L545.119 284.98L542.319 290.85L540.789 296.02L540.479 299.14L539.949 301.05L541.039 302.52L539.069 306.89L537.209 310.27L536.319 312.94L536.149 315.26L536.479 318.68L536.439 321.46L536.999 324.92L538.259 328.44L538.619 333.52L538.499 334.88L537.509 338.5L536.729 343.46L535.979 346.51L535.199 348.7L533.849 350.96L531.499 353.39L530.119 355.92L523.199 364.3L521.559 363.57L517.699 363.66L499.199 363.14L497.629 363.27L497.469 361.76L497.829 360.45L497.559 359.59L496.809 359.21L494.969 359.64L494.619 359.41L494.509 356.02L495.439 353.01L494.829 350.82L493.779 348.54L494.079 347.7L494.829 347.32L494.649 346.91L494.989 346.14L495.989 345.49L496.129 344.49L495.879 342.53L495.259 340.9L493.919 340.02L493.209 339.04L492.479 338.66L491.979 338.59L491.189 338.91L490.209 340.2L489.709 340.11L489.279 338.89L489.459 337.06L491.669 334.25L492.259 332.56L491.939 331.79L491.209 331.38L489.639 331.49L488.839 331.13L488.409 329.91L488.909 329.3L490.849 328.42L492.079 327.45L492.139 326.95L491.919 326.61L490.409 325.87L490.209 323.86L490.409 320.78L490.259 319.29L490.599 318.52L492.279 317.41L492.759 316.76L493.119 314.86L492.899 313.41L491.799 311.18L491.259 308.94L491.459 305.21L490.909 304.1L491.119 301.48L490.729 300.19L489.549 298.56L489.529 298.04L490.139 297L493.579 294.88L493.669 293.93L492.989 292.37L492.899 290.92L491.919 288.55V287.99L492.599 287.58L494.599 287.38L495.059 286.7L495.029 286.2L492.799 282.2L489.749 277.77L487.139 274.52L485.859 272.1L484.019 271.01L481.929 270.45L479.719 267.98L475.649 262.6L469.709 255.35L458.309 240.29L455.939 237.47L453.779 233.94L452.729 231.32L452.479 229.99L452.709 225.49L452.619 221.83L453.729 220.04L455.009 218.78L458.789 216.9L459.809 215.72L460.129 213.85L459.329 210.61L459.879 209.42L461.679 206.86L461.179 204.22L459.719 199.81L459.649 197.3L459.259 196.71L458.059 196.03L456.989 194.86L455.989 192.26L455.759 190.4L454.529 188.55L454.259 187.1L455.009 184.14L454.489 183.55L453.299 183.33L452.849 182.74L453.259 181.56L455.439 178.96L455.989 177.72L454.649 171.19L455.189 169.99L455.029 169.4L454.299 168.7L453.529 167.43V166.78L454.899 164.97L455.959 161.21L458.489 154.99L458.329 154.34L457.239 153.23L456.149 148.08L456.099 147.33L456.689 146.09L456.119 144.82L456.309 142.4L455.649 140.45L455.049 135.52L455.209 133.47L455.759 131.54L456.349 131.09L458.169 130.48L458.259 128.65L458.509 127.95L458.219 127.36L456.989 126.7L456.369 124.94L456.099 119.4L456.869 114.87L456.489 112.11L456.809 108.92L456.599 108.34L454.259 105.33L451.439 99.9L450.819 99.44L447.749 98.49L447.179 97.93L446.539 97.73L444.789 98.59L442.929 99.15L442.269 99.13L441.679 98.68L441.629 94.92L441.269 94.33L439.919 93.63L438.539 91.25L435.549 89.83L435.149 88.49L435.169 87.32L435.349 86.66L435.939 86.28L436.279 85.69L436.169 85.06L434.599 82.07L433.029 81.45L438.549 71.15L438.929 68.04L438.609 67.44L436.099 65.7L436.349 57.95L437.159 56.57L440.549 52.95L440.079 51.83L438.689 50.19L437.909 48.49L437.369 45.28L437.629 44.36L439.549 41.53L440.079 40.01L441.679 37.65L441.009 35.27L441.369 33.4L442.869 31.45L443.209 30.38L443.689 24.4L444.809 19.41L445.949 17.78L448.979 15.18L450.989 14.15L455.419 13.56L457.749 12.9L461.689 14.02L463.159 15.8L464.209 15.9L465.709 16.69L466.449 16.62L467.479 15.34L467.559 14.59L467.169 13.56L467.509 12.87L468.759 12.8L469.339 13.32L470.489 13.48L472.349 13.31L474.349 12.68L475.889 14.26L476.359 14.37L477.669 13.73L478.219 13.75L478.609 14.37L478.739 15.18L480.279 16.44L480.749 16.46L482.159 15.08L482.609 13.63L484.359 13.24L485.899 12.61L487.129 12.72L490.719 11.43L491.959 12.23L492.329 12.21L497.459 11.1L498.189 10.76L498.139 8.96L498.539 8.53L502.329 6.95L502.799 7.04L503.719 7.82999L506.419 9L507.559 8.84L510.149 4.38L511.049 3.74L513.979 2.85L514.809 1.75999L516.689 1L518.129 1.07999L519.349 1.91L522.389 2.39999L523.529 3.75999L525.989 4.64999L526.809 5.85L527.519 6.04Z" fill="#CCCCCC" stroke="white" stroke-width="0.5"/>
<path d="M337.71 269.25L337.35 270.9L337.51 271.28L337.92 271.46L338.92 270.81L339.49 270.83L341.49 271.62L344.01 271.94L344.79 271.62L345.99 270.56L348.95 271.58L349.95 271.46L351.96 272.16L352.52 272.73L353 272.78L354.21 272.3L355.16 272.48L356.32 273.54L357.71 273.84L358.4 273.41L359.31 272.03L360.94 270.88L361.63 268.77L362.26 267.71L364.13 267.37L365.43 266.45L367.34 266.13L368.29 265.43L369.7 265.5L371.09 265.23L372.16 264.64L373 264.8L374.25 264.48L374.91 264.93L375.12 265.84L375.62 266.47H376.62L378.78 265.27L379.67 265.5L380.15 266.13L383.2 265.77L385.97 266.42L386.47 267.03L387.63 267.55L388.09 268.23L389.09 268.89L391.93 269.99L392.48 270.54L392.66 270.94L392.62 273.05L393.07 273.75L394.57 274.47L396.26 274.18L397.08 275.01L400.47 276.1L401.54 277.3L402.58 277.91L404.56 281.54L404.45 286.63L404.68 287.51L406.04 288.35L406.48 289.05L406.63 290.54L406.45 292.64L406.22 292.91L407.79 292.94L409.64 293.91L411.09 294.16L413.57 292.73L414.51 292.71L416.28 294.29L417.85 294.95L419.31 296.87L419.67 297.03L421.38 296.48L422.77 296.73L423.34 298.59L424.29 299.4L456.37 283.31L456.75 283.44L462.02 280.41L468.12 277.54L481.93 270.45L484.02 271.01L485.86 272.1L487.14 274.52L489.75 277.77L492.8 282.2L495.03 286.2L495.06 286.7L494.6 287.38L492.6 287.58L491.92 287.99V288.55L492.9 290.92L492.99 292.37L493.67 293.93L493.58 294.88L490.14 297L489.53 298.04L489.55 298.56L490.73 300.19L491.12 301.48L490.91 304.1L491.46 305.21L491.26 308.94L491.8 311.18L492.9 313.41L493.12 314.86L492.76 316.76L492.28 317.41L490.6 318.52L490.26 319.29L490.41 320.78L490.21 323.86L490.41 325.87L491.92 326.61L492.14 326.95L492.08 327.45L490.85 328.42L488.91 329.3L488.41 329.91L488.84 331.13L489.64 331.49L491.21 331.38L491.94 331.79L492.26 332.56L491.67 334.25L489.46 337.06L489.28 338.89L489.71 340.11L490.21 340.2L491.19 338.91L491.98 338.59L492.48 338.66L493.21 339.04L493.92 340.02L495.26 340.9L495.88 342.53L496.13 344.49L495.99 345.49L494.99 346.14L494.65 346.91L494.83 347.32L494.08 347.7L493.78 348.54L494.83 350.82L495.44 353.01L494.51 356.02L494.62 359.41L494.97 359.64L496.81 359.21L497.56 359.59L497.83 360.45L497.47 361.76L497.63 363.27L499.2 363.14L517.7 363.66L521.56 363.57L523.2 364.3L518.2 370.79L509.4 379.2L505.8 383.12L504.89 383.83L502.06 385.05L498.73 387.21L497.31 387.73L492.82 387.82L491.31 388.09L488.53 389.1L485.1 391.17L481.23 393.91L477.07 395.53L475.95 396.21L469.38 401.27L468.16 402.72L465.22 405.34L461.13 410.81L456.68 419.13L455.43 422.12L450.61 431.93H447.02L445.61 432.18L444.7 431.98L444.59 431.07L445.34 429.56L445.5 427.68L443.63 427.93L442.86 427.03L442.06 426.66L440.15 427.05L438.17 426.96L437.51 427.41L436.87 428.47L436.49 428.63H436.03L435.01 427.93L434.51 428L433.96 428.54L431.87 428.47L431.44 428.34L431.32 427.91L432.37 427.3L432.35 426.8L432 426.57L429.87 426.44L428.75 425.85L428.64 425.4L428.91 425.15L429.84 424.92L429.43 424.2L427.82 424.79L427.32 424.72L426.41 423.93L425.95 423.84L424.88 424.42L424.34 423.86L423.52 421.44L422.2 418.82L421.9 415.79L421.01 413.89L420.74 413.57L419.85 413.37L419.19 411.79L418.06 411.22L417.99 408.64L417.72 408.37L417.21 408.3L416.05 409.41L414.85 408.37L414.32 408.44L413.41 409.21L412.91 409.14L412.53 408.42L412.71 407.58L411.64 406.95L411.5 406L411.21 405.73L409.52 405.93L408.75 405.57L408.04 404.08L406.36 403.49L404.9 402.13L404.4 402.07L403.2 402.54L402.77 402.43L402.56 402.11V401.09L401.72 401.16L401.42 401.41L401.1 401.3L400.38 400.35L399.03 400.12L398.47 399.53L397.51 399.49L395.73 399.92L394.37 398.99L393.3 399.6L392.07 399.35L391.62 398.67L391.82 397.18L391.5 395.83L391.16 395.6L390.77 395.76L390.25 396.93L389.8 396.8L388.82 394.47L387.98 393.61L387.59 393.43L386.06 393.47L384.86 392.46L383.29 392.55L382.72 391.98L382.56 391.03L382.13 390.36L380.38 389.83L378.56 388.86L377.1 388.61L375.42 388.95L374.98 387.69L373.6 386.29L373.75 385.34L373.09 383.78L373.69 382.67L373.14 381.65L373.09 380.59L367.5 379.96L365.24 379.37L364.29 378.74L363.45 379.01L362.56 378.78L360.15 379.12L358.94 380.57L358.55 380.75L356.12 381L354.62 380.25L354.23 380.27L352.75 381.61L351.91 381.88L348.91 382.13L347.5 382.94L347.15 383.71L347.36 385.61L347.11 386.51L344.72 389.04L343.92 389.36L342.08 389.04L341.74 389.27L340.53 391.98L338.55 392.8L337.19 393.68L335.1 394.38L332.32 396.62L331.5 398.06L330.98 399.8L329.34 400.96L327.45 402.97L326.93 404.15L326.68 405.59L325.47 407.76L325.04 410.7L324.63 411.99L323.92 413.01L322.74 414.59L321.85 420.33L321.01 421.15L319.26 422.19L318.85 422.89L318.55 424.31L315.71 427.05L314.32 429.6L311.39 431.64L310.77 431.43L308.2 432.13L305.06 431.8L302.99 432.27L298.42 434.46L294.18 437.45L293.64 438.08L292.79 440.03L292.48 442.54L290.47 445.52L288.61 446.42L288.04 447.04L286.81 449.79L285.04 451.51L284.17 453.39L283.9 454.59L281.26 458.41L279.69 460.24L277.75 461.85L276 462.89H274.71L274.11 463.36L273.27 465.26L272.13 466.55L267.81 467.43L265.76 467.25L263.9 466.82L263.28 466.42L262.94 465.8L262.58 463.82L262.6 460.04L262.94 456.47L264.93 454.86L265.13 453.78L265.03 452.56L266.01 449.32L266.58 443.19L267.06 442.47L268.31 441.46L269.07 440.25L268.77 439.5L268.06 438.75L265.07 437.17L264.21 436.36L263.34 435.16L262.79 433.53L262.99 432.86L263.59 432.48L270.91 428.86L271.86 427.32L271.89 426.25L271.61 425.21L270.13 422.72L270 422.13L270.3 421.28L272.94 419.12L273.2 418.5L273.14 417.64L272.71 417.01L269.57 414.49L269.16 413.6L269.22 411.63L269.76 410.23L271.67 406.96L271.89 405.05L280.39 404.98L285.44 402.72L294.54 397.95L297.82 395.95L301.2 393.28L307.68 389.42L316.14 390.31L317.25 389.47L318.46 386.3L321.23 383.24L325.25 379.78L334.2 368.59L323.32 348.87L325.07 344.79L325.77 343.85L328.65 333.25L328.9 319.7L321.57 315.43L319.05 311.16L316.27 301.38L316.77 299.57L320.84 296.36L325.89 294.6L328.17 295.1L330.44 292.84L333.69 293.06L336.25 292.34L338.78 293.85H341.56L344.34 292.09L346.86 289.33L341.56 282.05L336.76 279.79L331.45 276.78L330.15 275.37L331.9 274.47L335.32 272.08L336.13 270.52L337.71 269.25Z" fill="#CCCCCC" stroke="white" stroke-width="0.5"/>
<path d="M132.13 456.63L136.19 459.26L137.22 460.36L139.5 466.39L140.01 470.04L140.79 473.39L143.09 476.46L144.51 477.91L147.46 480.02L150.09 481.18L150.78 481.76L152.29 484L152.97 485.78L153.04 487.01L152.4 490.87L152.64 491.47L152.77 496.68L153.19 498.75L153.4 503.71L154.02 505.78L153.27 513.17L153.95 524.03L154.59 527.31L156.43 531.09L156.59 532.31L156 532.68L154.18 532.43L153.59 532.77L152.47 534.01L149.99 535.01L149.74 535.69L149.99 536.32L151.01 537.45L151.17 538.79L151.63 539.94L152.24 540.26L152.81 540.12L153.43 540.33L154.06 540.76L155.25 540.53L155.84 540.67L157.04 542L158.98 543.29L160.71 545.1L161.05 545.78L159.64 549.61L158.79 553.32L159.09 557.42L158.89 559.38L158.57 560.04L156.18 561.47L155.38 563.28L154.75 563.71L152.88 563.91L152.26 564.34L151.42 565.56L151.47 566.2L150.83 566.54L149.63 566.33L146.46 567.47L143.96 566.86L143.8 567.26L143.91 570.45L143.51 571.18L142.66 571L142.05 569.91L141.66 569.75L141.21 569.87L139.73 571.18L138.93 571.5L137.98 571.31L136.63 570.39L134.59 570.57L133.11 571.34L132.22 571.54L128.15 571.11L126.78 571.43L125.53 572.42L123.94 573.06L123.07 574.46L122.91 576.57L121.5 579.69L120.71 580.01L118.77 579.96L118.04 580.35L117.34 581.28L119.11 582.91L119 583.34L118.09 584.11L118.18 584.45L119.14 584.52L119.7 585.1L119.86 585.49L119.61 586.39L119.73 586.82L120.05 587.07L121.59 587.03L122.14 587.62L121.9 589.78L119.73 591.69L118.86 593.53L118.75 594.75L119.73 600.16L121 602.54L120.84 603.13L119.66 603.81L119.57 604.44L119.93 605.08L120.3 606.98L121.62 608.79L121 609.36L119.82 609.61L119.23 609.99L118.41 611.24L117.09 611.96L117 612.55L117.25 613.12L120.34 614.89L122.89 616.83L125.53 620.53L127.58 624.33L131.97 629.36L136.29 632.58L138.61 635.03L140.68 638.93L142.12 640.83L145.73 646.65L146.78 648.69L148.26 652.95L149.72 655.38L152.88 655.95L153.47 656.54L154.25 658.87L154.84 659.1L156.79 658.87L158.11 659.39L160 658.85L160.59 659.03L161.75 659.94L164.12 659.62L166.01 660.71L167.21 660.46L168.51 661.27L170.42 660.89L171.58 661.21L172.15 661.89L173.7 664.99L175.98 668.17L176.57 668.55L176.84 669.25L176.75 670.46L177.14 671.09L178.39 671.73L178.64 673L179 673.58L179.91 674.74L181.12 675.42L181.5 676.08L181.55 678.55L182.32 679.84L184.92 680.3L191.02 684.61L194.06 686.01L196.54 687.62L197.3 689.44L197.6 695.22L196.45 695.26L195.3 694.66L192.03 695.96L190.87 696.96L190.61 697.45L190.71 698.47L190.18 699.28L186.95 698.72L185.01 699.16L184.71 699.63L185.83 701.06L186.1 702.16L185.95 703.1L185.5 703.33L183.06 700.78L181.93 699.96L181.25 699L181.38 697.72L181.93 697.4L181.5 695.79L181.1 695.45L181.44 694.89L181.2 694.03L180.73 693.42L179.64 693.33L178.88 692.47L178.45 692.33L177.42 692.65L176.38 692.15L175.86 692.45L174.98 692.09L174.64 691.51L173.94 691.13L173.51 691.21L172.57 690.18L172.23 689.46L171.06 688.5L171.12 687.88L171.91 687.75L171.2 686.96L170.41 685.05L169.28 683.73L167.38 682.85L166.61 681.89L165.95 681.52L165.61 680.73L164.31 679.67L163.99 679.07L161.08 676.42L160.56 676.12L159.56 676.29L158.58 677.29L158.9 677.63L158.56 678.21L158.81 678.73L158.53 678.98L158.59 681.01H158.33L155.18 678.78L151.29 676.58L150.48 675.51L149.06 672.43L142.51 666.4L142.25 661.65L134.89 662.47L132.25 659.53L130.83 658.71L127.71 656.06L125.78 655.27L124.62 655.13L119.36 655.45L118.09 655.29L116.84 654.72L113.72 650.46L112.92 648.44L113.13 646L113.86 642.3L112.76 641.4L112.35 640.15L109.53 637.29L104.78 631.63L103.41 630.79L101.52 630.81L100.3 630.36L100.02 629.7L100.39 628.53L100.23 627.96L99.6102 627.51L96.4502 626.35L94.4702 626.42L91.8302 625.47L90.5602 625.49L89.8302 625.24L88.6002 624.27L87.3902 624.13L86.1202 624.31L85.5002 624.08V621.57L83.6802 621.07L83.0202 620.64L82.1102 619.42L80.1302 618.96L76.3802 618.69L74.4702 617.65L72.6502 617.08L69.5102 614.59L64.9602 611.81L61.5002 608.32L60.7702 607.95L58.2202 608.05L57.1302 607.67L58.1302 607.9L58.8002 607.65L64.6702 601.72L63.2302 599.52L58.2302 596.06L56.7102 592.1V590.78L59.1802 586.44L62.5902 577.96L63.5302 576.45L67.1402 574.37V571.55L59.7502 570.04L54.4402 565.32L46.4802 561.55L45.3402 560.8L47.2402 556.65L51.2202 556.84L55.9602 550.62L46.1002 539.69L42.5402 533.26L40.1002 532.13L38.9902 531.32L38.1402 534.03L37.0102 535.17L35.1102 535.54L33.9702 535.17L33.4102 530.27L38.9102 522.14L39.4502 521.64L40.5802 521.4L41.1902 516.72L41.1602 514.59L40.5802 513.43L39.8902 510.93L39.4802 509.99L37.3202 507.3L37.5202 505.09L37.3202 500.48L36.5502 497.4L36.1002 491.75L36.5802 491.34L37.3302 491.38L39.4902 492.91L43.1202 494.04L44.7702 494.8L48.9202 500.19L49.9902 499.9L51.4402 498.65L52.7902 496.63L54.8202 495.29L58.3002 494.61L63.3802 494.46L66.2102 493.07L68.0102 492.96L68.7202 493.16L70.1302 494.15L73.0002 496.72L74.3902 499.47L109.47 499.68L109.73 498.93L109.37 496.21L109.74 495.26L110.94 493.51L111.63 491.86L111.42 491.24L109.07 488.04L109 487.11L111.87 482.7L111.47 480.44L110.12 478.21L111.05 474.73L111.18 473.04L110.87 472.35L108.75 470.12L107.21 466.83L106.56 460.69L104.66 455.08L104.77 454.7H106.14L106.9 455.05L108.01 456.21L110.94 457.26L112.11 457.22L112.81 456.86L113.37 455.92L113.85 454.39L114.3 453.82L115.12 453.75L117.98 451.63L121.77 451.13L126.07 451.63L128.34 454.28L130.82 455.62L132.13 456.63Z" fill="#CCCCCC" stroke="white" stroke-width="0.5"/>
<path d="M220.83 590.5L225.9 592.26L226.88 592.4L228.65 593.73L229.27 593.89L233.73 593.66L235.55 593.21L236.09 592.01L239.98 587.53L242.94 585.58L243.35 583.65L243.96 583.41L245.35 585.13L247.24 585.87L248.4 586.64L249.08 586.92L251.06 586.69L251.68 586.94L252.77 588.7L253.36 588.68L253.77 589.29L254.43 591.15L255.57 592.15L255.3 593.87L255.61 594.5L255.82 596.36L256.96 597.36L257.39 598.46L256.25 598.71L253.18 600.14L253.04 601.59L252.25 601.93L251.22 602.02L249.15 601.93L248.79 602.13V602.59L251.11 605.33L251.47 607.19L251.88 607.91L254 609.18L254.57 611.94L255.96 613.37L256.07 614.25L255.68 615.61L255.87 616.02L256.37 616.63L257.21 616.93L258.37 617.99L259.46 618.08L260.19 618.49L260.76 620.12L261.67 620.91L261.9 621.71L261.8 622.66L262.74 624.52L262.51 624.86L260.85 625.44L260.58 625.74L260.39 626.73L259.8 627.28L258.96 627.57L258.85 628.57L258.25 629.11L256.07 628.46L254.86 628.93L254.02 628.66L252.34 627.51L251.5 627.78L250.93 628.32L250.68 629.77L250.15 630.38L248.65 631.72L246.83 632.15L246.72 633.15L245.13 633.8L244.9 634.12L244.12 636.18L244.62 636.82L244.72 638.27L245.49 639.2L245.58 640.22L245.17 640.92L244.19 641.65L244.01 642.94L243.12 643.03L242.19 642.78L239.89 643.25L238.8 644.43L236.91 645.91L236.14 647.47L235.34 648.38L230.79 649.85L229.7 650.46L228.95 651.39L228.29 653.79L228.08 655.68L227.7 656.88L227.95 658.85L227.76 660.14L226.65 662L225.99 664.47L224.87 665.65L223.96 669.74L222.56 669.15L222.02 668.61L221.24 666.38L220.05 664.82L217.3 662.73L214.22 662.94L212.65 664.55L210.39 665.04L209.89 666.15L209.84 668.05L210.7 670.32L211.64 671.67L211.5 673.15L211.65 673.77L210.44 676.65L208.77 678.76L209.19 679.85L208.31 681.39L208.7 683.38L210.01 683.88L210.17 685.01L209.93 686.12L209.44 686.48L208.86 686.52L206.66 686.09L206.3 686.34L206.27 686.96L207.42 688.76L206.73 690.96L205.34 690.49L203.42 688.69L202.23 688.61L201.86 688.83L199.95 691.99L199.45 693.74L198.89 694.66L197.6 695.22L197.3 689.44L196.54 687.62L194.06 686.01L191.02 684.61L184.92 680.3L182.32 679.84L181.55 678.55L181.5 676.08L181.12 675.42L179.91 674.74L179 673.58L178.64 673L178.39 671.73L177.14 671.09L176.75 670.46L176.84 669.25L176.57 668.55L175.98 668.17L173.7 664.99L172.15 661.89L171.58 661.21L170.42 660.89L168.51 661.27L167.21 660.46L166.01 660.71L164.12 659.62L161.75 659.94L160.59 659.03L160 658.85L158.11 659.39L156.79 658.87L154.84 659.1L154.25 658.87L153.47 656.54L152.88 655.95L149.72 655.38L148.26 652.95L146.78 648.69L145.73 646.65L142.12 640.83L140.68 638.93L138.61 635.03L136.29 632.58L131.97 629.36L127.58 624.33L125.53 620.53L122.89 616.83L120.34 614.89L117.25 613.12L117 612.55L117.09 611.96L118.41 611.24L119.23 609.99L119.82 609.61L121 609.36L121.62 608.79L120.3 606.98L119.93 605.08L119.57 604.44L119.66 603.81L120.84 603.13L121 602.54L119.73 600.16L118.75 594.75L118.86 593.53L119.73 591.69L121.9 589.78L122.09 590.31L122.46 590.47L124.05 590.52L124.57 590.45L125.26 589.47L127.35 589.57L127.74 589.72L128.12 590.47L126.92 590.95L126.76 591.78L127.08 592.6H130.17L131.76 592.06L133.38 593.26L134.22 593.55L134.49 593.84L134.45 594.23L133.47 594.95L133.63 595.34L134.02 595.5L135 595.48L134.79 596.88L134.93 597.83L135.77 598.69L136.82 599.33L136.79 600.34L138.93 601.59L139.18 603.58L139.66 604.19L139.48 605.15L139.64 606.12L139.91 606.39L140.93 606.41L140.84 607.93L140.05 608.82L140.52 609.99L141.48 610.2L141.64 610.58L141.32 611.96L141.3 614L141.53 614.91L141.82 615.05L142.98 614.57L143.57 614.71L146.35 617.65L148.31 617.58L148.9 617.88L149.42 619.85L151.22 620.35L151.99 622.14L152.7 622.48L153.93 622.59L156.38 621.93L160.75 621.68L161.48 621.75L163.44 622.66L164.69 622.45L167.12 620.84L168.47 620.46L170.26 621L172.63 622.68L173.97 622.52L175.16 621.89L175.79 621.91L177.66 623L178.09 622.41V621.8L178.71 622.14L178.91 622.77L179.87 623.97L179.09 625.19L179 625.83L180.8 631.02L181.37 631.61L181.98 631.83L185.12 632.11L186.33 632.67L189.99 631.83L191.22 631.27L192.38 630.09L192.93 626.87L192.81 624.99L193 623.84L193.91 622.57L196.39 620.75L196.84 620.14L196.68 617.06L197.96 616.52L199.03 615.29L199.55 613.73L198.27 613.32L198.21 612.92L198.64 611.76L198.25 611.58L196.82 611.62L196.7 609.54L196.86 609.16L197.89 608.5L198.41 608.45L200.44 609.27L201.35 609.18L202.26 608.39L203.44 607.91L203.55 607.59L202.92 606.55L203.23 606.35L204.83 606.26L206.97 606.85L207.83 606.57L208.6 606.94L209.13 606.89L209.36 605.98L208.92 604.74L209.63 603.18L210.79 602.09L213 601.52L214.16 599.85L213.66 598.19L214.5 596.2L215.18 595.77L216.25 595.84L217.11 595.57L217.91 594.68L219.94 591.06L220.83 590.5Z" fill="#CCCCCC" stroke="white" stroke-width="0.5"/>
<path d="M343.47 646.07L340.51 643.12L335.77 642.93L332.21 643.32L330.24 646.47L330.04 650.01L331.03 653.55L333.6 655.32L335.85 654.93L328.26 664.37L323.73 667.46L321.43 669.82L318.32 672.32L317.1 672.87L316.64 673.62L313.57 676.68L313.39 677.64L312.6 678.56L306.85 683.92L306.12 685.28L305.55 687.09L303.83 689.93L303.32 692.22L302.42 692.92L302.16 694.26L301.23 695.54L299.82 696.51L298.7 697.06L297.7 697.04L292.68 699.73L288.67 703.11L285.05 703.6L282.24 702.32L280.6 701.99L277.79 698.88L273.76 698.28L272.24 697.47L270.83 698.12L270.36 698.99L269.5 699.74L267.55 700.65L267.08 701.35L266.2 701.5L265.86 701.2L265.63 699.63L265.12 698.52L265.2 696L264.97 694.07L265.34 693.18L266.24 692.16L265.52 690.78L265.67 687.34L267.12 683.14L267.26 681.71L266.94 680.93L266.03 680.22L263.68 680.3L263.32 679.87L263.07 678.48L263.37 676.88L261.37 675.82L260.73 674.28L260.83 673.63L261.51 672.61L263.38 671.08L264.99 670.27L265.37 670.43L265.85 670.18L266.02 670.64L266.83 670.19L267.49 670.7L267.76 668.95L267.58 668.5L268.02 668.42L268.36 667.65L269.79 666.6L270.58 664.64L270.96 664.63L271.61 663.91L269.64 663.15L268.05 661.91L263.84 656.09L263.78 655.77L265.13 654.62L266.09 651.82L265.96 651.29L265.47 651.03L264.9 651.11L264.25 651.53L262.15 651.87L261.83 652.19L261.74 653.55L261.46 653.89L258.44 653.9L257.41 654.94L256.79 654.98L256.39 654.64L255.89 654.77L255.12 655.68L253.96 656.3L253.14 657.45L251.34 658.47L250.47 658.46L248.73 659.95L246.73 660.86L245.83 660.91L245.13 660.37H244.66L240.23 661.78L238.99 661.35L238.39 661.47L236.05 662.28L235.11 663.04L234.23 662.91L233.55 663.67L232.19 666.92L229.58 669.97L228.81 670.54L227.53 670.56L225.5 669.84L223.96 669.74L224.87 665.65L225.99 664.47L226.65 662L227.76 660.14L227.95 658.85L227.7 656.88L228.08 655.68L228.29 653.79L228.95 651.39L229.7 650.46L230.79 649.85L235.34 648.38L236.14 647.47L236.91 645.91L238.8 644.43L239.89 643.25L242.19 642.78L243.12 643.03L244.01 642.94L244.19 641.65L245.17 640.92L245.58 640.22L245.49 639.2L244.72 638.27L244.62 636.82L244.12 636.18L244.9 634.12L245.13 633.8L246.72 633.15L246.83 632.15L248.65 631.72L250.15 630.38L250.68 629.77L250.93 628.32L251.5 627.78L252.34 627.51L254.02 628.66L254.86 628.93L256.07 628.46L258.25 629.11L258.85 628.57L258.96 627.57L259.8 627.28L260.39 626.73L260.58 625.74L260.85 625.44L262.51 624.86L262.74 624.52L261.8 622.66L261.9 621.71L261.67 620.91L260.76 620.12L260.19 618.49L259.46 618.08L258.37 617.99L257.21 616.93L256.37 616.63L255.87 616.02L255.68 615.61L256.07 614.25L255.96 613.37L254.57 611.94L254 609.18L251.88 607.91L251.47 607.19L251.11 605.33L248.79 602.59V602.13L249.15 601.93L251.22 602.02L252.25 601.93L253.04 601.59L253.18 600.14L256.25 598.71L257.39 598.46L256.96 597.36L255.82 596.36L255.61 594.5L255.3 593.87L255.57 592.15L254.43 591.15L253.77 589.29L253.36 588.68L252.77 588.7L251.68 586.94L251.06 586.69L249.08 586.92L248.4 586.64L247.24 585.87L245.35 585.13L243.96 583.41L243.35 583.65L242.94 585.58L239.98 587.53L236.09 592.01L235.55 593.21L233.73 593.66L229.27 593.89L228.65 593.73L226.88 592.4L225.9 592.26L220.83 590.5L221.71 590.04L222.23 589.43L221.92 587.73L222.39 587.07L223.46 586.48L224.05 585.35L224.83 583.29L225.74 581.98L225.76 581.39L225.53 581.07L225.83 580.23L227.83 578.29L229.72 577.34L230.29 576.21L231.34 574.98L232.93 573.9L234.04 571.63L236.05 570.25L236.21 569.3L237.14 567.96L239.3 567.33L239.44 566.88L238.94 565.81L240.6 564.59L241.19 562.37L242.62 561.56L242.53 559.52L243.94 556.42L245.38 551.05L246.42 549.29L248.63 547.57L252.68 545.96L253.47 545.26L253.77 545.44L254.7 547.61L255.5 548.36L257.16 548.68L258.8 548.38H261.1L261.69 549.47L262.83 550.04L264.63 549.61L267.67 549.45L268.7 550.15L269.52 551.55L270.4 552.32L272.32 552.71L273.59 553.68L274.5 553.57L274.84 553.36L276.12 551.26L277.32 550.22L278.94 547.32L280.94 546.05L283.17 543.79L284.94 542.66L285.88 540.76L288.49 538.9L290.54 537.02L292.11 534.62L294.71 533.88L296.87 532.13L297.64 530.07L297.57 527.92L297.8 527.59L298.37 527.04L300.69 525.96L301.78 524.78L303.08 523.85L304.4 523.49L305.36 523.67L306.33 525.48L306.95 526L307.18 526.88L306.86 528.29L308.47 530.05L308.59 533.7L309.22 536.39L308.86 537.72L309.18 538.52L310.43 538.99L312.64 538.95L314.84 538.38L316.6 537.34L317.1 537.27L320.12 538.22L321.49 537.9L323.08 537.93L323.81 538.31L324.35 539.44L325.58 540.46L325.99 543.4L326.47 544.65L326.97 545.26L329.73 545.92L330.61 547.16L331.57 547.32L333.25 548.47L334.37 548.72L337.98 548.95L340.53 548.13L342.17 548.2L345.49 549.42L348.31 548.9L353.98 546.73L357.05 544.76L360.31 541.84L362.01 540.73L365.4 539.65L366.61 538.61L368.57 538.47L368.82 538.13V537.57L369.45 536.53L372.18 534.67L373.37 534.15L376.67 533.54L379.19 532.72L379.69 533.92H380.15L380.94 532.47L381.7 532.09L382.01 533.42L383.77 533.17L384.31 534.19L384.7 534.35L385.95 533.92L386.56 534.44L387.86 534.85L390.05 536.5L391.73 537.07L392.12 537.81L392.98 538.61L393.21 540.05L394.78 540.78L395.73 542.05L398.69 542.36L400.81 541.1L402.79 540.87L406.45 541.19L408.52 541.93L410.74 542L410.88 543.24L411.54 544.88L411.94 548.03L410.88 552.41L410.54 555.05L410.71 557.94L411.58 561.29L411.72 562.94L411.21 564.86L411.02 567.14L411.44 568.52L412.15 569.25L413.91 570.37L414.16 570.88L413.24 574.41L411.27 578.96L409.45 581.86L407.81 583.8L406.79 585.59L405.19 590.44L403.03 593.72L400.7 596.36L398.98 600.55L397.87 602.34L396.02 606.93L394.44 609.32L391.33 615.29L390.24 617.89L389.38 622.32L389.01 622.94L387.16 624.87L384.19 626.05L377.11 627.29L372.5 627.77L369.65 628.56L368.9 628.99L366.48 629.51L360.02 632.08L343.47 646.07Z" fill="#CCCCCC" stroke="white" stroke-width="0.5"/>
<path d="M433.03 81.45L434.6 82.07L436.17 85.06L436.28 85.69L435.94 86.28L435.35 86.66L435.17 87.32L435.15 88.49L435.55 89.83L438.54 91.25L439.92 93.63L441.27 94.33L441.63 94.92L441.68 98.68L442.27 99.13L442.93 99.15L444.79 98.59L446.54 97.73L447.18 97.93L447.75 98.49L450.82 99.44L451.44 99.9L454.26 105.33L456.6 108.34L456.81 108.92L456.49 112.11L456.87 114.87L456.1 119.4L456.37 124.94L456.99 126.7L458.22 127.36L458.51 127.95L458.26 128.65L458.17 130.48L456.35 131.09L455.76 131.54L455.21 133.47L455.05 135.52L455.65 140.45L456.31 142.4L456.12 144.82L456.69 146.09L456.1 147.33L456.15 148.08L457.24 153.23L458.33 154.34L458.49 154.99L455.96 161.21L454.9 164.97L453.53 166.78V167.43L454.3 168.7L455.03 169.4L455.19 169.99L454.65 171.19L455.99 177.72L455.44 178.96L453.26 181.56L452.85 182.74L453.3 183.33L454.49 183.55L455.01 184.14L454.26 187.1L454.53 188.55L455.76 190.4L455.99 192.26L456.99 194.86L458.06 196.03L459.26 196.71L459.65 197.3L459.72 199.81L461.18 204.22L461.68 206.86L459.88 209.42L459.33 210.61L460.13 213.85L459.81 215.72L458.79 216.9L455.01 218.78L453.73 220.04L452.62 221.83L452.71 225.49L452.48 229.99L452.73 231.32L453.78 233.94L455.94 237.47L458.31 240.29L469.71 255.35L475.65 262.6L479.72 267.98L481.93 270.45L468.12 277.54L462.02 280.41L456.75 283.44L456.37 283.31L424.29 299.4L423.34 298.59L422.77 296.73L421.38 296.48L419.67 297.03L419.31 296.87L417.85 294.95L416.28 294.29L414.51 292.71L413.57 292.73L411.09 294.16L409.64 293.91L407.79 292.94L406.22 292.91L406.45 292.64L406.63 290.54L406.48 289.05L406.04 288.35L404.68 287.51L404.45 286.63L404.56 281.54L402.58 277.91L401.54 277.3L400.47 276.1L397.08 275.01L396.26 274.18L394.57 274.47L393.07 273.75L392.62 273.05L392.66 270.94L392.48 270.54L391.93 269.99L389.09 268.89L388.09 268.23L387.63 267.55L386.47 267.03L385.97 266.42L383.2 265.77L380.15 266.13L379.67 265.5L378.78 265.27L376.62 266.47H375.62L375.12 265.84L374.91 264.93L374.25 264.48L373 264.8L372.16 264.64L371.09 265.23L369.7 265.5L368.29 265.43L367.34 266.13L365.43 266.45L364.13 267.37L362.26 267.71L361.63 268.77L360.94 270.88L359.31 272.03L358.4 273.41L357.71 273.84L356.32 273.54L355.16 272.48L354.21 272.3L353 272.78L352.52 272.73L351.96 272.16L349.95 271.46L348.95 271.58L345.99 270.56L344.79 271.62L344.01 271.94L341.49 271.62L339.49 270.83L338.92 270.81L337.92 271.46L337.51 271.28L337.35 270.9L337.71 269.25L337.51 268.8L337.17 268.66L336.76 268.84L336.23 269.99L335.91 269.88L335.71 267.87L335.21 267.26L334.44 266.9L333.39 266.85L332.05 266.04L331.48 266.58L331.07 266.65L330.7 265.93L330.89 264.98L330.45 264.3L328 263.94L328.22 262.06L327.11 262.26L326.74 261.54L326.02 261.13L324.45 261.23L323.44 260.52L321.99 260.3L321.33 259.28L320.92 256.39L321.06 254.83L322.49 252.34L322.4 251.33L321.26 248.05L321.01 246.65L320.96 240.63L321.78 235.82L321.56 234.91L320.08 232.5L319.71 230.12L319.92 229.74L320.69 229.4L321.26 228.29L322.4 227.77L322.97 226.66L323.65 226.21L325.56 225.92L326.33 225.58L326.7 224.27L326.47 223.36L324.97 220.56L323.58 219.72L322.06 219.52L321.33 219.14L320.42 217.85L320.24 216.9L320.19 217.35L315.02 217.6L311.27 216.88L309.93 216.27L308.63 215.47L306.08 213.21L304.76 213.08L303.51 212.15L301.76 211.79L301.1 211.36L299.14 208.13L297.23 206.79L294.77 206.23L293.46 206.45L292.23 207L291.02 206.95L287.15 205.48L280.99 203.79L279.03 202.95L277.14 201.46L275.87 200.85L275.52 200.26L274.8 194.45L274.07 192.53L274.18 190.56L273.91 189.86L273.34 189.3L270.86 189.52L268.52 190.09L267.4 190.06L266.2 189.61L262.6 190.45L257.39 190.18L251.43 191.56L250.96 191.07L249.88 191.03L248.94 190.66L247.45 188.95L246.47 189.01L246.06 189.3L242.73 189.02L241.85 189.26L240.56 190.58L237.56 190.17L236.91 189.81L236.2 188.8L235.6 188.7L234.59 187.75L234.44 186.34L233.06 185.48L232.48 185.99L232.06 186.96L230.75 187.27L229.37 186.78L227.93 187.16L226.07 187.19L223.27 185.93L221.17 186.53L220.79 186.49L220.35 185.85L218.53 186.34L217.74 186.09L217.13 186.34L216.86 186.26L216.56 185.53L216.21 185.59L215.8 186.76L215.93 186.93L216.41 186.67L216.58 187.63L216.32 187.98L215.7 187.94L215.25 188.95L214.99 189.06L214.56 188.84L214.39 189.32L214.84 190.22L214.82 190.95L213.97 191.74L213.11 191.79L212.64 192.46L212.38 192.43L211.71 191.77L211.02 191.81L211.17 191.19L210.1 191.04L209.78 191.17L209.61 191.71L208.34 192.29L208.17 192.59L207.05 192.68L206.52 192.79L205.79 192.34L204.67 192.45L203.83 193.03L203.25 192.71L202.09 193.14L202.16 194.36L200.03 194.34L199.69 195.07L198.58 195.36L198.56 196.13L197.52 196.86L197.38 197.51L195.79 198.46L195.42 198.5L194.52 198.03L192.22 198.87L191.23 198.76L190.72 199.24L190.21 199.17L189.3 198.81L189.11 198.36L187.69 197.88L186.75 197.22L186.12 197.31L185.97 196.71L184.79 197.12L184.1 196.94L183.76 197.46L183.14 197.53L182.77 198.17L180.91 197.48L180.18 198.43L180.2 198.71L180.88 199.36L180.71 199.55L179.02 199.49L178.59 200.11L178.29 200.19L177.64 199.75L176.57 199.81L176.81 201.77L176.7 201.96L175.97 201.66L175.86 202.82L175.54 203.15L175.24 203.14L174.21 202.63L172.98 202.85L171.93 202.61L171.12 202.57L170.09 202.93L168.07 202.68L166.22 203.41L165.08 202.55L163 202.08V201.65L163.96 200.75L164.85 201.02L164.98 200.71L164.7 200.01L165.19 199.33L165.17 198.36L165.66 197.35L166 197.24L166.39 197.8L167.72 197.44L168.54 197.95L169.01 197.54L168.96 196.7L169.14 196.44L169.85 196.32L171.28 195.43L171.82 193.76L171.63 193.31L170.7 193.74L170.17 193.09L170.25 192.75L171.02 192.14L170.38 191.24L171.26 189.5L171.19 189.22L170.62 189.27L170.89 188.15L170.59 187.68H170.16L169.65 187.08L169.77 186.34L169.37 185.47L168.75 185.4L168.34 185.03L168.48 183.7L167.91 183.25L168.27 182.57L167.71 181.92L167.07 181.26L166.15 181.47L165.99 180.59L166.44 179.47L165.89 179.2L165.76 178.49L165.26 178.21L164.83 177.54L164.57 177.59L164.36 178.04L163.61 178.38L163.24 177.99L162.66 176.92L162.34 176.3L162.04 175.57L161.44 175.46L161.76 174.75L161.72 174.15L160.92 173.38L161.03 173.05L162.11 173.18L161.83 172.47L161.93 171.46L162.42 170.89L162.57 170.3L162.55 169.47L162.1 169L161.67 168.01L161.91 166.4L161.61 166.05L161.43 164.03L162.08 163.48L162.7 162.44L163.11 162.29L163.02 161.5L163.23 160.77L164.24 160.45L165.14 159.54V158.55L164.87 158.19L165.08 156.75L165.19 156.53L165.46 156.58L165.62 156.97L166.22 156.73L166.69 155.48L166.21 154.69L165.94 154.64L165.79 154.15L166.24 153.61L165.93 151.66L165.53 151.32L164.35 151.28L164.26 150.39L163.27 149.88L163.1 149.37L163.36 148.98L163.16 148.44L163.46 147.78L164.34 147.82L165.05 147.32L165.33 147.04L165.25 146.44L165.84 145.54L166.68 145.15L167.93 144.12L167.3 142.56L167.17 141.78L167.37 141.23L168.1 140.75L169.45 139.89L169.53 139.35L169.64 138.86L170.37 138.09L171.01 137.74L172.62 137.72L172.96 136.9L173.67 136.56L173.84 136.22L173.22 135.6L173.24 135.34L173.93 135.66L173.95 135.1L174.31 134.76L174.23 132.91L174.72 131.77L174.63 130.94H174.25L174.03 130.12L174.31 129.26L173.73 128.9L174.69 128.12L174.05 127.01L174.61 126.58L174.69 125.87L183.36 126.04L201.97 125.72L204.05 125.89L220.81 125.69L231.49 125.95L234.17 125.78H252.23L253.11 125.72L254.2 124.67L257.49 124.24L260.94 124.85L261.8 124.68L264.61 124.89L265.81 125.56L267.07 127.06H267.63L276.83 123.71L277.73 122.53L278.59 123.18L279.07 123.23L279.88 122.51L280.16 122.62L280.53 123.33L281.81 123.73L282.26 124.22L283.77 127.03L284.74 127.13L285.17 127.45L285.3 127.8L285 128.53L285.43 129.24L285.84 129.38L288.3 129.12L289.36 130L289.66 130.86L290.67 130.94L291.35 131.3H291.65L291.67 130.96L291.29 130.06L291.42 129.82L291.87 129.8L294.1 131.55L293.99 132.02L293.03 132L293.08 132.63L293.53 132.69L294.47 132.04L295.35 131.98L295.78 132.73L295.2 134.19L295.59 134.74L296 134.78L297.17 133.9L297.45 133.92L298.49 135.03L298.85 135.06L299.9 134.67L301.01 133.24L301.78 133.03L303.13 133.3L303.3 132.72L302.7 131.59L303.64 130.9L304.05 130.98L304.29 131.41L304.25 133.13L304.47 133.94L305.03 134.35L307.06 134.88L307.28 135.29L306.96 136.77L305.66 138.27L307.04 139.65L307.72 139.94L310.3 139.72L311.41 139.39L311.88 139.03L312.39 137.59L312.97 137.05L314.78 138.7L316.05 139.21L316.82 139.81L316.91 141.01L317.51 141.6L317.86 141.67L318.26 141.35L319.46 139.64L320.21 139.99L320.19 141.38L322.85 141.52L324 138.83L325.59 139.11L326.04 138.65L326.29 136.81L326.51 136.59L327.32 136.5L328.06 138.13L328.64 138.58L330.13 136.97L331.59 136.85L332.32 137.17L333.89 137.3L334.66 137.66L333.96 139.01L335.31 139.24L335.95 140.1L337.05 140.5L337.85 141.15L338.97 142.39L339.27 143.27L339 144.66L339.17 145.09L340.2 145.39L341.48 144.65L341.42 145.55L342.27 146.99L346.29 144.95L347.54 144.74L348.65 143.68L349.5 143.27L353.28 142.26L353.92 141.75L354.47 141.74L357.08 143.52L357.48 143.58L358.11 142.98L358.7 142.93L360.28 144.06L362.59 143.6L363.84 144.35L367.6 145.25L368.97 145.5L370.28 145.2L373.22 146.24L373.7 146.82L375.47 146.61L377.09 147.59L378.56 149.3L379.12 150.7L380.17 151.75L382.43 152.64L383.55 153.84L385.18 154L385.55 154.43L386.38 156.98L386.16 157.67L386.64 157.69L387.58 156.87L388.63 156.9L389.1 158L390.61 158.18L392.63 159.12L395.65 159.21L398.12 158.84L398.6 159.09L398.83 159.69L398.71 160.18L397.43 162.66L397.45 163.13L398.01 163.58L398.14 163.99L397.79 165.84L398.29 167.36L398.59 167.64L401.24 167.98L402.81 165.36L405.77 164.5L406.26 164.56L407 165.36L407.79 165.63L408.47 163.8L407.42 162.15L407.4 160.58L407.99 159.13L407.43 156.19L406.38 154.77L405.42 151.57L405.19 150.57L405.34 148.95L404.97 148.74L403.94 149L403.4 148.7L402.5 144.15L400.5 142.22L400.72 141.38L400.5 139.65L401.08 138.74L402.3 137.69L402.87 136.53L402.85 135.97L401.65 135.22L401.33 134.47L402.72 133.61L403.21 132.92L403.31 131.66L403.11 130.8L402.54 129.9L402.5 128.33L403.01 124.1L403.8 123.61L406.78 123.76L407.56 125.49H408.02L409.05 124.3L410.73 123.58L411.38 122.77L411.67 121.8L413.04 119.67L433.03 81.45Z" fill="#CCCCCC" stroke="white" stroke-width="0.5"/>
<path d="M262.94 456.47L262.6 460.04L262.58 463.82L262.94 465.8L263.28 466.42L263.9 466.82L265.76 467.25L267.81 467.43L272.13 466.55L273.27 465.26L274.11 463.36L274.71 462.89H276L277.75 461.85L279.69 460.24L281.26 458.41L283.9 454.59L284.17 453.39L285.04 451.51L286.81 449.79L288.04 447.04L288.61 446.42L290.47 445.52L292.48 442.54L292.79 440.03L293.64 438.08L294.18 437.45L298.42 434.46L302.99 432.27L305.06 431.8L308.2 432.13L310.77 431.43L311.39 431.64L314.32 429.6L315.71 427.05L318.55 424.31L318.85 422.89L319.26 422.19L321.01 421.15L321.85 420.33L322.74 414.59L323.92 413.01L324.63 411.99L325.04 410.7L325.47 407.76L326.68 405.59L326.93 404.15L327.45 402.97L329.34 400.96L330.98 399.8L331.5 398.06L332.32 396.62L335.1 394.38L337.19 393.68L338.55 392.8L340.53 391.98L341.74 389.27L342.08 389.04L343.92 389.36L344.72 389.04L347.11 386.51L347.36 385.61L347.15 383.71L347.5 382.94L348.91 382.13L351.91 381.88L352.75 381.61L354.23 380.27L354.62 380.25L356.12 381L358.55 380.75L358.94 380.57L360.15 379.12L362.56 378.78L363.45 379.01L364.29 378.74L365.24 379.37L367.5 379.96L373.09 380.59L373.14 381.65L373.69 382.67L373.09 383.78L373.75 385.34L373.6 386.29L374.98 387.69L375.42 388.95L377.1 388.61L378.56 388.86L380.38 389.83L382.13 390.36L382.56 391.03L382.72 391.98L383.29 392.55L384.86 392.46L386.06 393.47L387.59 393.43L387.98 393.61L388.82 394.47L389.8 396.8L390.25 396.93L390.77 395.76L391.16 395.6L391.5 395.83L391.82 397.18L391.62 398.67L392.07 399.35L393.3 399.6L394.37 398.99L395.73 399.92L397.51 399.49L398.47 399.53L399.03 400.12L400.38 400.35L401.1 401.3L401.42 401.41L401.72 401.16L402.56 401.09V402.11L402.77 402.43L403.2 402.54L404.4 402.07L404.9 402.13L406.36 403.49L408.04 404.08L408.75 405.57L409.52 405.93L411.21 405.73L411.5 406L411.64 406.95L412.71 407.58L412.53 408.42L412.91 409.14L413.41 409.21L414.32 408.44L414.85 408.37L416.05 409.41L417.21 408.3L417.72 408.37L417.99 408.64L418.06 411.22L419.19 411.79L419.85 413.37L420.74 413.57L421.01 413.89L421.9 415.79L422.2 418.82L423.52 421.44L424.34 423.86L424.88 424.42L425.95 423.84L426.41 423.93L427.32 424.72L427.82 424.79L429.43 424.2L429.84 424.92L428.91 425.15L428.64 425.4L428.75 425.85L429.87 426.44L432 426.57L432.35 426.8L432.37 427.3L431.32 427.91L431.44 428.34L431.87 428.47L433.96 428.54L434.51 428L435.01 427.93L436.03 428.63H436.49L436.87 428.47L437.51 427.41L438.17 426.96L440.15 427.05L442.06 426.66L442.86 427.03L443.63 427.93L445.5 427.68L445.34 429.56L444.59 431.07L444.7 431.98L445.61 432.18L447.02 431.93H450.61L444.19 444.54L440.02 451.35L435.9 456.78L429.16 464.64L425.36 468.41L422.44 470.9L415.76 475.27L412.4 481.38L411.62 483.61L411.11 491.33L411.03 496.46L411.43 499.79L413.07 507.35L415.18 514.4L415.38 516.16L415.01 519.75L412.87 524.44L412.54 526.06L412.68 529.86L410.7 536.55L410.74 542L408.52 541.93L406.45 541.19L402.79 540.87L400.81 541.1L398.69 542.36L395.73 542.05L394.78 540.78L393.21 540.05L392.98 538.61L392.12 537.81L391.73 537.07L390.05 536.5L387.86 534.85L386.56 534.44L385.95 533.92L384.7 534.35L384.31 534.19L383.77 533.17L382.01 533.42L381.7 532.09L380.94 532.47L380.15 533.92H379.69L379.19 532.72L376.67 533.54L373.37 534.15L372.18 534.67L369.45 536.53L368.82 537.57V538.13L368.57 538.47L366.61 538.61L365.4 539.65L362.01 540.73L360.31 541.84L357.05 544.76L353.98 546.73L348.31 548.9L345.49 549.42L342.17 548.2L340.53 548.13L337.98 548.95L334.37 548.72L333.25 548.47L331.57 547.32L330.61 547.16L329.73 545.92L326.97 545.26L326.47 544.65L325.99 543.4L325.58 540.46L324.35 539.44L323.81 538.31L323.08 537.93L321.49 537.9L320.12 538.22L317.1 537.27L316.6 537.34L314.84 538.38L312.64 538.95L310.43 538.99L309.18 538.52L308.86 537.72L309.22 536.39L308.59 533.7L308.47 530.05L306.86 528.29L307.18 526.88L306.95 526L306.33 525.48L305.36 523.67L304.4 523.49L303.08 523.85L301.78 524.78L300.69 525.96L298.37 527.04L297.8 527.59L297.57 527.92L297.64 530.07L296.87 532.13L294.71 533.88L292.11 534.62L290.54 537.02L288.49 538.9L285.88 540.76L284.94 542.66L283.17 543.79L280.94 546.05L278.94 547.32L277.32 550.22L276.12 551.26L274.84 553.36L274.5 553.57L273.59 553.68L272.32 552.71L270.4 552.32L269.52 551.55L268.7 550.15L267.67 549.45L264.63 549.61L262.83 550.04L261.69 549.47L261.1 548.38H258.8L257.16 548.68L255.5 548.36L254.7 547.61L253.77 545.44L253.47 545.26L254.23 543.59L256.12 542.09L256.52 541.3V540.39L257.25 539.29L259.62 538.09L260.23 537.41L260.42 536.8L259.55 535.05L259.48 533.9L258.1 532.23L257.84 529.6L257.21 528.31L257.12 526.23L256.52 526.25L256 527.43L255.46 527.99L254.86 527.5L255.14 526.27L256.93 523.06L257.09 521.7L256.55 521.02H255.89L253.95 522.13L252.98 521L252.41 520.73L251.2 520.96L249.06 522.18L248.45 522L247.99 521.43L246.79 520.82L244.15 520.93L243.6 520.32L242.87 519.15L243.4 518.56L244.67 517.92L245.65 516.7L247.49 515.71L247.95 515.1L247.99 514.44L247.63 513.85L246.42 513.38L245.81 513.67L245.35 514.85L244.76 514.67L242.87 513.42L241.8 512.34L242.08 511.63L243.94 511.68L244.53 511.29L244.94 510.1L244.88 509.48L244.31 508.94L242.49 508.47L241.87 507.9L241.3 506.09L241.23 502.86L245.71 494.61L246.77 493.14L249.61 490.86L250.15 490.02L250.24 489.44L249.88 488.48L245.58 482.3L244.92 481.1L245.05 480.56L245.55 479.7L248.27 478.75L249.39 478.11L250.56 475.63L252.14 474.61L252.85 473.88L253.03 472.44L252.34 468L252.37 466.8L252.63 465.06L253.19 463.92L256.21 460.89L257.77 459.65L262.94 456.47Z" fill="#CCCCCC" stroke="white" stroke-width="0.5"/>
<path d="M337.71 269.25L336.13 270.52L335.32 272.08L331.9 274.47L330.15 275.37L331.45 276.78L336.76 279.79L341.56 282.05L346.86 289.33L344.34 292.09L341.56 293.85H338.78L336.25 292.34L333.69 293.06L330.44 292.84L328.17 295.1L325.89 294.6L320.84 296.36L316.77 299.57L316.27 301.38L319.05 311.16L321.57 315.43L328.9 319.7L328.65 333.25L325.77 343.85L325.07 344.79L323.32 348.87L334.2 368.59L325.25 379.78L321.23 383.24L318.46 386.3L317.25 389.47L316.14 390.31L307.68 389.42L301.2 393.28L297.82 395.95L294.54 397.95L285.44 402.72L280.39 404.98L271.89 405.05L270.21 398.94L266.76 383.94L266.48 379.25L265.71 376.48L266.16 374.78L267.37 373.52L268.22 371.89L269.68 367.71L270.19 364.46L270.68 362.83L271.96 360.79L272.96 357.92L273.03 356L272.49 352.63L271.64 350.43L270.05 347.41L267.3 344.69L264.94 341.34L263.74 340.65L261.08 339.88L257.87 339.76L252.83 337.74L250.87 337.73L247.84 338.45L246.59 338.29L246.28 336.95L246.22 332.09L245.45 329.36L244.41 327.95L240.38 325.16L233.64 321.69L230.87 320.67L229.75 320.53L228.91 320.68L228.31 321.28L227.7 322.72L227.16 322.87L224.31 320.79L223.54 319.78L222.84 317.82L222.91 315.41L223.37 314.27L224.67 312.87L225.17 311.97L226.11 309.31L226.77 305.14L226.67 302.52L227.95 302.16L228.71 300.01V299.15L228.34 298.8L227.29 298.56L226.28 298.88L225.87 298.41L225.7 296.58L225.14 295.67L225.12 295.14L225.83 294.15L226.2 292.69L226.08 291.84L225.31 289.95L224.36 288.83L224.41 288.03L222.99 286.03L223.98 285.43L223.46 284.98L223.4 284.59L223.73 283.15L225.66 281.88L226.05 281.02L227.36 280.71L226.68 279.26L226.77 279.03L227.6 278.94L227.02 278.4L227.95 277.52L227.37 277.24L227.33 276.83L227.84 276.04L228.62 275.72L228.96 275.13L229.44 275.14L229.76 273.97L231.25 271.91L232.95 270.93L233.96 270.71L235.23 269.6L236.31 269.4L237.55 268.37L238.11 267.54L238.22 266.12L239.73 264.33L239.69 263.92L238.02 262.68L237.91 262.33L238.88 260.1L240.84 257.78L241.91 257.09L244.56 257.35L246.75 258.34L248.4 257.7L249.27 257.81L249.76 258.56L250.36 258.87L251.35 258.85L253.24 257.9L255.8 258.27L255.33 257.3L256.17 256.14L256.28 255.3L257.57 254.38L258.53 254.27L259.87 252.88L260.77 252.83L261.46 252.3L262.06 251.33L263.61 250.65L262.47 248.71L261.57 247.8L262.26 245.68L263.12 245.31L264.33 243.34L265.04 243.1L266.13 242.13L266.07 241.28L267.41 239.43L270.13 238.29L270.83 236.38L271.84 235.8L272.14 235.37L271.73 233.46L271.19 232.3L270.7 232.15L270.23 231.37L272.06 231.18L272.38 230.92L272.51 230.06L273.26 228.81L272.9 226.96L271.2 226.22L270.41 225.13L268.58 224.36L267.99 223.59L267.52 222.02L266.85 221.03L266.53 219.81L266 219L265.88 218.28L264.86 216.48L265.03 215.3L264.77 213.84L260.51 209.29L260.27 206.71L259.58 205.83L259.06 204.54L258.65 204.03L257.53 203.47L257.44 202.72L256.76 202.53L256.37 202.14L256.28 201.52L257.14 199.2L256.98 198.1L257.24 197.2L257.13 196.75L256.42 196.3L254.96 193.38L253.32 192.57L252.36 191.73L251.43 191.56L257.39 190.18L262.6 190.45L266.2 189.61L267.4 190.06L268.52 190.09L270.86 189.52L273.34 189.3L273.91 189.86L274.18 190.56L274.07 192.53L274.8 194.45L275.52 200.26L275.87 200.85L277.14 201.46L279.03 202.95L280.99 203.79L287.15 205.48L291.02 206.95L292.23 207L293.46 206.45L294.77 206.23L297.23 206.79L299.14 208.13L301.1 211.36L301.76 211.79L303.51 212.15L304.76 213.08L306.08 213.21L308.63 215.47L309.93 216.27L311.27 216.88L315.02 217.6L320.19 217.35L320.24 216.9L320.42 217.85L321.33 219.14L322.06 219.52L323.58 219.72L324.97 220.56L326.47 223.36L326.7 224.27L326.33 225.58L325.56 225.92L323.65 226.21L322.97 226.66L322.4 227.77L321.26 228.29L320.69 229.4L319.92 229.74L319.71 230.12L320.08 232.5L321.56 234.91L321.78 235.82L320.96 240.63L321.01 246.65L321.26 248.05L322.4 251.33L322.49 252.34L321.06 254.83L320.92 256.39L321.33 259.28L321.99 260.3L323.44 260.52L324.45 261.23L326.02 261.13L326.74 261.54L327.11 262.26L328.22 262.06L328 263.94L330.45 264.3L330.89 264.98L330.7 265.93L331.07 266.65L331.48 266.58L332.05 266.04L333.39 266.85L334.44 266.9L335.21 267.26L335.71 267.87L335.91 269.88L336.23 269.99L336.76 268.84L337.17 268.66L337.51 268.8L337.71 269.25Z" fill="#CCCCCC" stroke="white" stroke-width="0.5"/>
<path d="M56.1598 694.98L55.9098 694.78L55.4798 694.97L55.7498 694.55L53.8398 692.6L53.7998 692.28L53.9098 691.44L54.4098 691.76H53.9798V692.26L54.3198 692.46L54.4998 692.15L54.9598 692.53L54.8398 692.9L55.4098 692.94L55.9998 692.42L56.2798 690.29L55.9098 689.11L54.3198 687.25L51.1998 684.64L50.3398 682.67L50.3798 682.05L51.9298 682.15L52.3898 681.83L53.7298 680.01L53.9798 679.31L54.0498 678.2L53.7098 677.36L52.1798 674.8L51.3198 673.81H60.8498V695.02L56.1598 694.98Z" fill="#CCCCCC" stroke="white" stroke-width="0.5"/>
<path d="M343.469 646.07L339.489 650.18L335.849 654.93L333.599 655.32L331.029 653.55L330.039 650.01L330.239 646.47L332.209 643.32L335.769 642.93L340.509 643.12L343.469 646.07Z" fill="#CCCCCC" stroke="white" stroke-width="0.5"/>
</svg>
