<svg width="735" height="726" viewBox="0 0 735 726" fill="none" xmlns="http://www.w3.org/2000/svg">
<path d="M85.363 371.892L84.759 372.581L86.736 375.31L88.405 376.246L87.918 376.589L87.549 377.508L86.511 378.399L86.468 379.429L85.701 379.185L84.543 379.61L83.665 380.326L83.299 381.112L83.601 381.833L84.538 382.332L84.4 383.08L84.686 383.933L85.787 383.893L86.363 384.595L85.617 387.233L85.545 388.844L85.883 389.494L85.288 390.387L85.359 392.475L85.867 393.874L88.697 391.984L89.413 392.36L91.3 392.643L92.62 394.099L94.703 394.856L96.403 394.629L98.282 393.043L100.637 391.781L101.632 391.529L102.519 390.821L102.849 389.85L103.27 389.521L103.512 388.446L104.925 385.63L107.626 383.115L108.08 382.232L109.736 380.445L112.412 378.406L114.053 375.748L117.925 381.569L120.691 384.258L122.055 384.864L123.434 384.418L124.029 383.109L123.825 381.281L124.509 380.44L125.354 379.919L127.24 379.653L130.931 380.705L133.643 380.334L134.561 380.546L134.722 381.408L133.463 383.651L133.805 384.129L136.536 385.066L137.015 385.46L137.249 386.789L136.374 388.959L135.936 392.234L134.699 393.128L132.352 393.457L131.902 394.351L132.747 395.713L136.012 398.085L139.35 399.031L141.324 398.798L142.199 397.564L142.326 394.766L142.56 394.298L146.797 397.798L157.351 397.903L156.357 400.649L156.303 402.691L156.753 406.118L155.193 413.441L155.835 421.097L155.535 423.738L153.849 427.817L151.046 429.724L150.267 431.279L141.207 431.554L134.031 431.145L128.491 431.405L106.872 431.27L96.734 431.564L92.742 432.684L89.438 431.923L87.498 432.336L83.941 432.14L81.221 431.614L78.778 431.88L76.691 430.82L76.182 431.095L72.915 430.992L71.347 431.685L69.355 430.052L68.016 430.675L65.845 430.576L63.325 431.335L53.48 431.3L52.541 431.488L50.943 431.095L46.673 431.161L46.135 431.374L45.265 432.32L40.99 430.957L38.546 431.334L36.185 432.328L35.416 432.073L34.531 431.247L33.286 431.162L32.166 431.403L27.418 434.082L24.806 435.061L22.019 435.263L19.937 436.503L16.916 436.805L13.894 438.247L10.471 439.208L10.29 438.341L9.81 438.193L9.799 437.532L10.407 437.212L11.027 437.255L12.125 435.966L12.041 435.273L9.213 435.359L8.456 435.625L8.264 435.764L8.584 437.107L8.2 436.052L6.268 433.857L6.13 433.186L5.948 433.292L4.358 431.991L1.744 428.902L1 427.28L3.268 426.284L13.616 425.922L13.706 403.053L12.036 402.437L11.146 401.202L11.473 400.454L13.386 400.402L14.277 399.733L15.141 399.752L16.015 399.347L16.685 398.634L17.223 398.644L17.664 397.49L17.365 396.327L17.629 395.922L18.865 396.234L20.628 395.869L21.101 394.086L22.049 393.072L22.974 392.797L23.801 391.909L23.564 391.16L25.309 388.43L26.86 387.55H28.535L30.94 386.432L32.817 386.072L33.74 385.498L35.222 385.907L35.686 385.113L35.366 384.049L35.406 382.524L36.331 381.978L39.53 385.131L40.42 385.544L41.637 387.351L41.259 387.783L42.405 389.051L43.507 389.633L44.723 389.58L45.278 390.046L45.789 390.091L46.352 391.956L46.097 392.106L46.037 392.706L48.168 394.726L48.307 394.189L47.66 393.001L47.801 392.78L48.708 392.574L50.224 392.834L50.547 391.75L51.092 391.281L52.623 390.669L53.55 390.982L54.307 390.672L55.874 387.829L56.429 387.873L57.331 388.714L57.984 388.934L58.306 387.901L57.783 386.767L59.482 386.665L59.523 385.616L58.906 385.379L58.726 384.446L59.137 383.722L58.942 383.212L59.722 382.223L60.289 380.874L60.286 379.888L59.443 378.191L59.527 377.045L59.834 376.691L60.758 376.548L61.496 375.797L62.94 375.694L64.23 376.676L65.41 378.705L68.337 379.355L69.925 377.659L70.878 375.78L71.293 375.84L72.831 375.104L73.695 375.25L75.771 374.59L76.741 374.816L79.746 373.219L81.036 371.963L81.749 372.039L82.231 371.554L83.649 371.548L83.971 370.605L85.528 370.211L85.82 370.579L85.363 371.892ZM11.606 435.462L11.657 435.957L10.908 436.732L10.993 436.316L9.926 437.041L9.424 436.69L9.467 436.903L8.944 437.051L8.816 436.348L9.381 435.815L11.606 435.462Z" fill="#CCCCCC" stroke="white" stroke-width="0.5"/>
<path d="M565.824 12.725L568.365 16.832L570.557 21.305V22.766L568.913 23.405L569.826 25.778L569.644 27.878L568.73 30.343L568 33.903L570.009 34.816L574.847 35.911L578.498 35.272L580.507 35.638L577.221 46.227L576.764 50.152L577.586 53.348L579.32 55.356L579.411 58.917L582.15 60.925L583.793 70.419L583.063 73.34L580.872 75.714L579.32 79.347L579.229 80.899L580.78 82.816L583.245 83.09L585.527 80.899L587.719 80.534L589.271 80.808L590.914 79.895L593.196 79.621L594.931 80.442L595.569 82.086L594.748 87.928L595.296 90.119L591.279 91.763L590.822 93.588L593.927 94.775L594.565 95.962L594.839 98.153L590.092 98.518L586.35 101.074L583.245 101.804L578.681 98.335L576.49 96.236L574.299 95.962L573.568 97.057L573.203 98.609L572.199 100.526L570.282 102.261L568.092 103.722L565.262 108.651L566.356 109.655L568.913 109.29L570.83 108.651L573.934 108.742L575.577 109.747L575.76 111.755L575.303 114.402L576.216 116.137V118.51L575.212 121.158L574.116 123.075L572.656 124.718L571.561 126.727L570.721 132.6L568.438 132.052L566.887 128.583L566.247 125.844L565.151 124.749L560.952 124.383L559.583 123.379L557.574 123.927L556.205 125.205L554.653 125.296V126.392L553.832 127.579L551.367 128.674L549.925 128.309L549.468 126.848L548.556 126.209L546.729 127.944L544.63 127.761L543.078 125.935L543.717 119.545L543.169 116.167L541.161 115.894L538.787 117.628L536.688 117.902L533.492 119.454L530.845 120.001L529.933 121.279L528.197 122.284L526.463 121.188L524.638 120.732L521.99 120.915L519.525 122.01L518.064 123.288L515.417 123.744L512.039 123.562L508.57 122.192L507.109 121.097L502.089 118.724L500.172 118.541L497.433 121.006L495.881 121.371L493.051 120.367L490.221 120.641L473.497 119.728L468.202 120.458L466.65 120.001L457.887 122.192L456.882 122.923L456.791 124.109L455.969 125.114L454.326 125.662L452.774 126.939L450.31 126.757L444.192 124.931L441.545 123.105L439.445 122.923L438.293 122.519L437.653 120.602V115.307L436.649 112.933L434.642 111.107L432.541 110.742L431.264 109.738L430.259 108.46L429.164 108.917L428.251 111.29L425.877 111.655L421.86 109.556L419.122 109.008L416.109 107.364L413.188 105.356L411.636 102.8L411.271 100.062L412.731 99.331L414.192 97.779L414.558 96.227L417.205 92.137L417.296 90.585L415.562 89.125L413.462 88.76L412.001 88.942L410.449 90.585L409.171 91.225L407.437 90.403L406.889 88.668L405.611 86.66L398.765 85.382L401.25 81.532L401.469 79.852L401.323 78.172L401.762 76.785L403.076 75.178L405.559 73.425L411.401 70.504L414.25 69.847L417.609 68.605L420.75 65.611L422.43 63.493L424.693 61.959L425.716 62.179L427.761 63.201L429.659 64.734L431.412 65.027L434.918 63.347L435.794 62.032L435.502 60.353L433.822 59.769L431.777 59.623L430.024 60.718L426.154 59.403L421.115 58.308L418.997 58.454L416.222 59.257L412.497 59.477H410.525L407.823 58.965L407.312 56.482L408.554 53.488L406.362 52.246L404.171 49.471L397.453 48.667L395.701 48.163L398.293 45.823L398.353 44.951L397.945 44.327L397.971 43.798L399.016 41.727L400.942 40.657L400.967 39.617L399.812 39.17L399.643 38.765L400.117 37.821L400.166 36.016L401.239 35.52L402.605 35.676L403.276 36.397L403.998 36.017L404.313 35.267L404.285 34.333L405.332 32.789L405.556 30.154L406.435 29.166L407.241 27.111L408.227 26.316L408.977 26.464L409.63 27.212L410.405 26.981L410.755 25.817L411.82 25.093L411.245 24.045L411.535 23.182L411.976 22.767L413.306 22.861L414.301 22.004L414.936 22.559L416.051 25.236L416.879 25.393L418.635 26.686L419.913 26.974L422.15 25.816L423.068 26.511L423.563 27.576L424.71 28.491L425.662 28.666L426.333 30.128L426.888 30.057L428.281 31.024L429.399 30.804L430.256 31.533L431.728 31.531L432.044 31.072L431.885 29.874L432.112 29.187L433.416 28.295L434.79 28.303L436.736 27.146L437.916 26.017L439.37 25.725L442.798 24.126L445.16 24.23L447.573 22.325L448.252 23.038L449.829 22.2L450.402 22.349L450.747 22.799L452.043 23.089L452.253 22.586L452.076 20.894L452.429 20.497L452.693 20.515L453.055 21.299L455.461 20.496L457.436 19.226L458.228 19.19L459.224 19.877L460.132 19.815L461.309 18.445L463.046 17.341L463.707 17.638L463.665 18.284L464.565 18.205L464.863 17.708L464.439 16.87L464.529 16.509L465.427 15.679L468.385 15.472L469.747 14.595L469.686 14.084L469.264 13.741L468.319 14.061L467.897 13.912L467.717 13.493L467.865 13.162L468.39 13.024L468.641 12.093L469.18 11.475L469.601 11.533L470.645 13.525L471.154 13.328L470.835 12.068L471.404 11.811L474.492 12.708L475.027 13.914L475.682 14.404L477.534 14.625L478.274 16.746L479.853 16.96L479.829 17.7L479.244 18.875L481.657 18.707L482.189 19.382L484.374 19.356L485.576 18.117L487.709 18.179L488.183 17.26L489.83 17.28L490.584 16.316L492.378 15.792H497.617L498.298 14.709L498.66 14.76L499.288 15.604L499.721 15.647L500.124 15.125L501.262 15.245L501.886 14.846L504.59 14.405L505.073 13.804L505.033 12.658L505.867 11.42L506.021 10.08L505.138 9.801L504.744 8.321L505.28 7.729L505.591 5.814L506.099 4.825L506.769 4.796L507.137 4.301L507.03 3.993L506.573 4.109L506.5 3.703L507.549 3.444L508.862 3.51L510.058 2.422L510.676 2.473L511.078 1.774L511.484 1.844L512.016 2.618L513.408 2.208L512.999 1.125L513.351 1L513.695 1.369L514.711 1.419L515.313 2.555L516.292 2.481L516.339 3.478L516.852 3.652L517.15 3.263L517.678 3.226L518.279 3.833L519.604 4.41L520.04 5.564L520.799 5.641L521.154 6.725L522.466 6.157L521.953 5.691L522.816 5.345L523.136 6.093L523.877 6.374L523.898 7.475L524.483 8.637L524.912 7.675L525.484 7.374L526.322 7.415L526.889 8.339L527.139 9.467L527.613 9.096L527.312 8.118L527.964 8.24L528.571 7.876L529.401 8.447L529.504 7.248L530.217 6.611L531.143 7.041L531.207 7.817L533.395 8.357L533.736 7.625L534.61 7.817L534.66 7.164L535.269 6.986L535.928 6.191L536.024 5.679L536.968 5.888L536.935 6.902L537.279 7.016L537.965 6.539L538.777 6.713L539.361 7.866L539.908 7.803L540.534 8.208L540.792 8.674L540.563 9.221L541.754 9.307L543.924 10.166L545.802 10.144L547.726 11.427L548.415 12.148L548.595 13.549L549.53 14.015L551.02 14.1L551.291 13.218L552.851 13.365L552.877 12.694L553.432 12.632L553.697 12.966L555.301 12.672L556.508 12.829L559.591 11.827L560.455 11.896L561.825 13.912L562.327 13.964L562.723 13.523L564.285 14.499L564.777 14.049L565.014 12.973L565.824 12.725Z" fill="#CCCCCC" stroke="white" stroke-width="0.5"/>
<path d="M296.723 129.832L294.532 133.46L269.542 146.743L269.884 154.754L278.511 151.194L282.482 148.25L288.151 145.032L294.04 143.388L297.052 142.293L300.407 140.649L304.446 139.486L307.938 139.075L311.156 140.034L315.949 142.019L318.688 142.704L324.644 141.882L326.424 141.197L327.041 141.813L326.972 144.484L325.124 150.358V153.234L325.808 155.151L327.041 157L327.383 159.738L326.904 160.971L321.769 159.054L320.947 159.67L317.455 165.147L317.181 168.365L316.36 171.926L316.018 175.28L317.25 178.841L316.702 181.1L314.374 184.25L314.237 186.03L313.347 188.152L312.457 189.316L311.909 191.028L312.046 192.165L313.689 194.287L316.907 196.546L319.509 199.148L321.769 200.38L322.316 201.955L321.426 203.051L319.235 203.735L318.208 204.625L318.551 206.2H321.974L322.522 206.954L321.974 208.391L320.742 209.35L316.634 210.103L314.785 211.404L313.553 213.458V215.512L312.525 216.539L310.266 217.018L308.897 215.786L308.623 213.663L309.034 212.431L308.349 211.472L306.637 210.925L304.172 211.335L303.625 212.5L302.187 212.842L300.817 211.335L299.928 210.993L298.353 211.404L297.6 210.719L296.504 210.514L294.792 210.993L293.902 212.568L294.792 213.663L296.847 213.8L298.147 215.101L298.832 216.265L301.845 218.661L303.077 220.031L305.679 226.384L310.334 231.52L310.266 234.121L309.513 236.175L308.417 238.435L306.774 240.899L305.953 242.954L306.227 245.008L305.063 246.788L303.009 248.089L292.875 251.375L290.479 251.512L289.041 250.827L288.22 249.595L288.356 245.555L287.74 244.392L286.097 243.638L285.07 244.802L284.796 251.307L283.906 252.813L282.332 253.977L280.551 257.469L278.511 260.47L277.142 258.21L275.978 255.472L275.156 251.912L273.992 249.378L272.896 247.872L271.39 247.256L270.021 246.229L269.953 243.901L269.199 240.34L267.967 238.013L265.708 235.411L264.817 235.548L263.859 236.849L261.668 238.149L259.409 237.875L254.89 238.149L252.904 239.587L252.014 242.737L253.863 245.955L256.122 248.009L257.081 250.2L257.04 251.912L254.643 251.09L253.342 250.063H252.042L251.631 251.5L252.932 252.87L252.794 254.239L247.796 254.376L246.016 254.855L243.483 254.65L238.964 251.774L236.91 250.063L233.897 248.283L231.775 247.872L230.063 248.693L228.968 249.994L228.352 251.98L223.97 256.499L220.341 258.553L212.193 261.497L208.647 262.25L202.622 265.057L194.269 271.562L192.899 273.123L191.393 274.149L188.586 275.382H186.189L183.588 274.766L178.864 274.492L177.289 275.245L177.357 276.34L182.218 278.121L182.903 279.764L182.698 282.16L181.945 283.324L175.646 284.283L172.428 284.214L170.031 283.05L169.073 281.476L167.162 276.737L169.322 273.389L177.264 257.573L179.185 255.007L181.136 253.098L184.215 250.726L186.689 249.646L189.386 247.784L191.415 246.918L194.229 246.748L198.212 244.586L204.024 238.806L211.365 229.508L212.364 227.423L213.601 221.331L213.432 218.948L212.58 215.678L212.519 211.684L214.735 206.796L214.222 206.105L214.881 202.691L216.647 198.57L217.941 196.875L220.568 194.746L221.75 192.857L221.98 191.964L221.791 188.104L221.378 187.256L219.146 184.961L218.764 184.118L218.692 181.628L219.347 180.661L219.094 178.61L219.494 177.225L219.028 174.815L218.184 173.56L217.559 171.726L217.759 168.167L218.279 166.645L219.027 165.434L220.257 164.257L221.279 162.367L222.604 155.735L224.425 151.348L226.126 148.745L226.527 143.676L226.897 142.77L225.75 137.308L226.11 135.04L227.07 131.923L226.75 130.292L244.01 130.372L245.981 130.81L247.351 131.96L249.542 133.22L251.35 133.055L251.963 132.277L258.481 129.703L264.068 126.088L265.985 125.267L269.162 125.157L273.051 125.979L280.829 128.991L285.156 129.594L296.723 129.832Z" fill="#CCCCCC" stroke="white" stroke-width="0.5"/>
<path d="M668.279 527.546L642.245 531.316L644.024 534.947L644.626 537.563L643.826 540.741L642.039 543.68L636.314 550.977L634.321 552.925L632.461 554.366L626.149 558.208L623.646 560.182L622.735 561.074L621.57 563.508L621.483 566.148L622.381 567.283L623.615 567.834L625.42 567.186L627.063 565.276L627.85 565.559L628.111 566.407L627.408 568.757L629.49 570.584L630.093 574.018L631.228 574.872L631.132 576.119L631.773 577.383L631.57 579.833L632.296 580.694L633.269 580.849L633.478 581.691L634.376 582.781L633.389 583.357L632.721 586.298L631.606 588.631L632.047 591.145L631.587 593.112L631.485 596.376L629.966 598.504L629.771 599.229L631.177 601.331L632.046 602.155L631.48 604.857L632.294 607.247L631.958 610.394L632.054 610.794L633.385 612.032L633.179 614.303L633.993 615.023L634.367 615.991L634.056 616.675L633.251 617.231L633.033 618.183L631.816 618.039L631.035 618.444L630.784 620.075L628.864 622.588L628.258 626.888L627.123 628.13L627.103 630.302L625.884 633.2L626.661 634.951L626.68 636.187L626.102 637.672L626.303 638.599L625.646 640.203L625.105 640.523L624.818 641.755L625.212 643.54L623.992 644.077L624.09 645.168L623.704 646.455L622.735 647.57L622.913 648.706L622.25 651.878L624.158 654.234L623.648 655.479L624.297 656.34L623.522 657.354L624.313 658.034L624.776 659.05L624.376 660.526L624.452 661.44L626.109 661.299L626.873 662.534L626.956 663.341L629.748 664.564L631.212 664.641L632.187 666.179L635.298 667.683L636.361 667.424L636.771 667.669L637.5 670.206L639.577 671.988L640.462 673.438L643.978 676.316L645.966 679.267L646.196 680.639L647.81 683.064L648.559 683.24L650.135 682.854L650.981 683.479L653.348 682.513L654.959 682.673L656.265 682.263L657.379 683.251L657.365 684.016L658.801 684.386L660.074 684.164L664.252 686.454L665.195 686.392L666.247 685.373L666.654 684.539L666.531 683.741L665.051 683.427L663.532 681.063L663.975 678.711L664.804 677.356L668.104 675.571L668.913 675.583L670.343 676.112L671.636 676.133L673.789 675.472L675.285 674.302L677.007 674.152L677.084 724.979L675.852 724.266L673.374 725L672.118 724.022L670.843 724.281L669.467 723.161L669.365 722.577L669.601 722.12L669.235 721.38L671.066 720.867L671.487 719.298L671.119 718.448L672.219 717.507L671.758 716.01L670.404 716.478L668.637 715.511L667.538 716.054L666.294 716.059L662.982 719.438L660.042 719.933L659.407 720.783L658.151 720.146L657.504 721.846L655.54 722.538L653.03 724.504L652.171 722.867L651.499 722.076L650.679 721.63L649.367 721.932L646.785 723.509L646.153 723.438L645.089 721.877L644.797 720.574L643.924 719.064L643.768 717.795L642.308 713.481L641.227 713.509L640.134 712.822L640.094 710.309L639.664 709.352L639.373 707.563L637.984 705.738L636.635 704.724L635.498 702.301L632.671 700.04L631.663 700.1L630.829 700.969L630.207 702.616L629.594 702.949L629.396 702.338L628.499 701.508L627.906 699.338L625.481 696.727L625.119 695.337L625.938 694.767L627.15 694.578L627.7 692.815L627.431 692.19L626.418 691.216L624.709 690.045L624.87 688.747L624.564 688.202L623.108 687.604L619.699 684.406L617.557 684.166L616.636 684.548L615.8 683.912L614.862 683.71L614.294 682.989L613.255 683.919L613.203 684.757L612.381 685.047L610.929 682.055L610.512 681.817L608.083 681.696L607.197 681.269L605.884 681.859L605.625 681.324L605.811 680.306L604.443 677.431L602.441 677.572L600.628 677.021L600.441 677.175L600.59 678.179L598.979 678.737L598.312 679.339L596.528 679.027L594.402 679.25L593.443 678.795L592.747 676.791L590.881 676.237L588.971 674.184L588.294 670.653L587.148 669.392L587.332 666.473L586.985 665.229L584.441 663.221L580.358 660.627L578.66 660.276L578.107 659.726L577.886 654.626L577.098 651.22L575.227 652.448L573.782 652.266L572.621 652.67L570.899 652.562L570.284 652.891L570.146 654.47L570.919 655.583L571.061 656.288L569.509 658.973L569.145 660.896L569.483 662.072L568.087 663.365L567.41 664.896L565.673 666.286L564.723 667.442L563.671 667.291L562.58 667.784L561.44 666.755L560.541 666.617L559.773 667.019L558.373 668.389L557.967 668.396L557.347 667.74L555.208 667.487L553.894 666.933L552.262 667.233L549.474 665.279L547.854 664.735L546.482 664.925L543.463 666.723L538.93 665.219L538.152 665.663L530.389 665.728L529.957 665.425L530.436 664.525L530.289 664.068L529.236 663.268L528.24 663.38L527.673 663.15L526.879 662.086L526.566 660.752L526.196 660.26L525.515 660.327L524.013 661.34L519.982 660.857L519.189 659.91L518.397 659.527L517.537 657.64L517.429 656.589L516.389 655.548V654.781L518.634 652.864L520.113 649.03L522.194 646.894L521.537 644.101L521.592 642.074L523.838 639.335L522.961 635.337L523.181 634.351L526.74 629.969L527.124 628.522L528.329 627.263H529.973L533.368 628.03L534.902 627.975L536.929 625.346L538.518 624.908L539.887 625.51L540.544 627.537L543.063 632.412L544.214 631.262L544.926 628.961L546.952 626.058L549.362 625.729L551.608 625.072L552.539 623.429L554.073 619.54L553.854 618.499L552.868 617.349L551.225 616.363L552.101 614.063L549.417 611.652L548.596 610.447L548.814 609.406L553.087 608.312L562.453 608.53L564.315 609.352L566.178 612.693L567.164 612.912L569.793 612.529L572.642 611.652L574.996 609.899L575.653 608.859L575.818 606.175L574.777 604.86L570.505 601.136L569.081 599.383V597.686L572.367 593.029L573.024 591.715L572.477 589.962L571.107 588.757L569.464 588.154L565.739 589.305L560.646 589.25L553.908 588.1L551.772 587.224L545.474 585.7L543.775 586.084H541.968L541.146 584.934V583.455L543.282 579.785L543.775 578.416L543.666 576.882L543.775 575.403L545.254 573.157L547.555 571.35L548.814 569.762L549.91 563.024L548.979 560.285L549.801 558.763L552.923 555.97L556.045 552.464L558.29 546.22L558.729 544.357L558.783 541.618L559.715 539.812L561.084 539.264L561.851 539.756L562.18 541.729L562.672 542.823L564.425 542.934L565.959 541.947L569.464 538.277L571.601 536.524L571.929 535.594L570.834 534.443L570.286 532.8L570.45 531.42L575.489 525.395L576.749 523.423L578.918 521.889L584.231 520.246L586.478 518.932L590.749 517.288L592.502 517.069L594.474 517.233L596.501 519.479L597.651 519.753L599.075 520.849L601.047 521.451L602.197 523.313L603.73 523.916L605.758 523.642L607.072 525.668L607.729 527.695L609.613 528.735L610.6 527.476L612.462 526.818L614.16 525.34L615.968 524.299H618.158L620.295 523.696L623.745 520.958L624.731 518.712L624.566 516.904L627.524 512.413L627.579 509.675L625.937 507.977L622.157 505.566L622.431 503.649L624.786 502.772L625.225 500.604L627.086 499.837H628.894L630.701 500.494L631.414 501.535L631.742 504.219L632.345 505.972L633.275 507.45L633.527 509.423L635.719 511.23L637.745 512.436L639.17 512.873L640.539 512.38L642.401 507.834L643.771 508.108L645.194 508.82L647.604 509.148L649.576 509.039L650.398 507.67L650.344 505.917L651.604 504.657L655.054 505.205L656.095 504L657.848 503.836L659.49 504.438L662.12 503.945L663.599 505.424L664.42 507.122L665.68 508.218L667.159 507.45L668.43 507.67L669.196 508.601L669.307 509.915L671.224 512.216L671.661 514.188L671.168 516.27L670.292 517.2L668.648 518.132L667.882 519.172L667.991 521.309L667.115 524.047L666.458 525.055L668.279 527.546Z" fill="#CCCCCC" stroke="white" stroke-width="0.5"/>
<path d="M535.299 448.652L535.045 449.823L533.364 451.868L528.982 455.066L528.18 457.696L528.398 460.398L531.758 462.005L532.196 464.123L533.219 465.438L533.949 468.285L532.707 469.308L533.438 471.207L535.774 473.617L539.28 474.347L540.449 476.027L542.274 476.611L547.313 477.195L549.285 478.071L549.358 479.679L548.556 480.993L545.81 483.359L544.933 485.623L545.006 487.96L546.394 489.786L548.365 491.539L553.77 493.803L556.253 495.848L560.927 496.797L563.264 499.572L566.843 499.864L574.876 499.499L577.067 498.988L577.797 497.966L578.017 495.117L579.111 494.314L581.011 495.921L582.472 495.994L585.466 494.533L587.438 495.264L588.679 494.387L590.65 494.241L593.28 497.893L594.303 500.156V501.764L593.572 503.078L593.791 505.561L594.887 508.044L596.493 508.774L598.246 508.993L600.145 508.117L601.095 508.556L601.752 510.527L600.875 514.032L599.634 515.785L598.1 516.881L596.501 519.479L594.474 517.233L592.502 517.069L590.749 517.288L586.478 518.932L584.231 520.246L578.918 521.889L576.749 523.423L575.489 525.395L570.45 531.42L570.286 532.8L570.834 534.443L571.929 535.594L571.601 536.524L569.464 538.277L565.959 541.947L564.425 542.934L562.672 542.823L562.18 541.729L561.851 539.756L561.084 539.264L559.715 539.812L558.783 541.618L558.729 544.357L558.29 546.22L556.045 552.464L552.923 555.97L549.801 558.763L548.979 560.285L549.91 563.024L548.814 569.762L547.555 571.35L545.254 573.157L543.775 575.403L543.666 576.882L541.406 578.46L538.781 579.602L533.418 580.172L532.277 578.574L528.968 578.46L523.49 576.635L520.523 574.809L517.1 571.271L514.476 570.814L512.193 571.157L511.166 572.755L511.736 576.406L513.334 581.655L512.649 583.024L506.602 584.736L497.244 589.072L495.076 589.644L494.163 590.556L494.734 592.725L492.794 594.55L490.969 595.234L489.143 594.778L487.316 592.61L484.692 593.181L481.269 590.898L476.818 594.094L474.879 593.751L474.08 591.926L472.025 590.214L470.771 591.926L469.857 593.751L468.374 592.382V590.784L466.32 590.67L464.494 591.013L461.413 590.67L459.131 591.013L457.647 589.644L458.218 588.388L457.191 586.563L455.251 585.192L455.023 583.139L457.99 579.259L459.131 577.205L458.902 574.238L459.245 572.298L460.158 570.244L459.815 566.707L460.5 564.995L462.896 564.538L464.608 563.626L466.891 562.94L471.798 563.968L473.509 564.082L475.221 563.626L475.905 562.713L473.852 561.001L471.569 560.431L467.804 557.464L466.092 555.638L465.293 552.899L463.468 550.73L457.533 549.59L455.251 545.596L453.426 544.455L451.714 543.77L447.834 543.313H444.753L442.699 542.286V538.978L441.558 534.983L441.443 533.34L441.672 530.145L442.356 527.862L443.384 520.331L442.242 515.082L441.102 512.686L443.019 510.7L443.292 508.646L444.388 507.277L446.579 508.372L447.812 510.152L451.509 508.235L452.604 506.045L450.823 501.389L450.961 497.418L451.509 493.31L452.878 490.434L454.658 487.559L461.23 478.932L464.654 477.288L471.227 477.699L473.966 476.33L478.073 475.371L481.36 473.454L484.373 470.853L486.427 467.703L489.303 464.964L492.041 463.868L495.875 462.91L500.394 463.047L502.448 465.101L505.598 467.429L508.474 465.786L509.706 464.006L510.391 461.403L509.706 459.35L504.365 455.516L503.544 454.01L504.365 449.901L505.323 448.806L506.967 448.258L511.485 448.942L516.963 447.71L521.482 445.52L524.084 442.918L526.822 443.055L528.329 446.341L529.562 446.752L530.383 445.245L531.889 445.383L532.3 447.025L535.299 448.652Z" fill="#CCCCCC" stroke="white" stroke-width="0.5"/>
<path d="M705.877 69.51L699.674 70.452L698.578 73.446L699.674 75.71L698.359 79.07L697.702 82.722L696.095 85.351L691.129 89.66L690.253 91.924L690.325 95.575L691.859 96.524L692.662 97.547L691.859 98.423L691.275 100.468V102.951L692.809 105.289L692.298 107.771L689.814 112.081L688.792 116.097L687.039 116.462L686.09 118.653L684.629 120.523L682.438 120.815L679.59 124.759L680.831 126.584L680.102 128.995L678.202 128.337L676.742 126.876L675.354 124.394L673.528 123.517L671.118 123.079L669.438 122.129L669.804 120.377L671.045 118.989L671.118 114.461L670.461 112.563L669.073 111.613L666.371 111.978L663.669 113.292L661.113 114.169L658.557 114.315L657.096 113.146L656.366 110.81L655.416 109.641L654.029 110.079L653.664 111.394L652.495 113.585L647.675 113.877L645.63 114.68L645.703 117.31L644.973 118.551L642.49 119.5L639.13 119.135L636.939 117.894L635.113 117.236L634.091 118.259L636.647 119.866L637.45 121.326L637.158 122.787L635.552 123.006L633.872 121.983L632.484 121.691L631.666 119.573L630.06 118.04L628.088 118.332L626.627 119.427L624.363 120.523L622.465 119.354L621.88 117.894L620.347 118.259L619.981 122.86L620.492 127.242L619.763 132.646L618.229 135.641L616.695 136.809L615.673 139.584L614.65 141.483L613.336 142.286L611.729 141.337L608.953 140.606L605.448 140.314L603.914 138.927L599.387 136.225L596.757 136.298L592.74 137.466L591.426 136.955L590.33 137.904L590.769 140.241L592.303 141.702L593.032 143.382L593.252 146.303L595.005 146.376L597.414 145.354L599.094 145.865L600.044 147.18L599.824 149.443L599.313 151.269L598.145 151.708L596.392 151.05L594.785 150.831L592.156 151.342L590.477 147.764L589.089 147.033L586.971 147.106L586.195 147.83L585.783 147.224L584.779 146.311L577.841 146.22L577.658 144.851L578.298 143.938H579.758L580.763 142.568L581.492 140.012L582.68 139.19L583.318 138.187V136.981L582.314 136.068L582.405 135.247L584.505 133.604L584.049 131.778L583.228 130.135L581.767 129.404L579.94 128.948L578.389 129.13L577.933 130.043V132.508L577.385 133.786L575.924 134.151L573.276 133.969L570.721 132.6L571.561 126.727L572.656 124.718L574.116 123.075L575.212 121.158L576.216 118.51V116.137L575.303 114.402L575.76 111.755L575.577 109.747L573.934 108.742L570.83 108.651L568.913 109.29L566.356 109.655L565.262 108.651L568.092 103.722L570.282 102.261L572.199 100.526L573.203 98.609L573.568 97.057L574.299 95.962L576.49 96.236L578.681 98.335L583.245 101.804L586.35 101.074L590.092 98.518L594.839 98.153L594.565 95.962L593.927 94.775L590.822 93.588L591.279 91.763L595.296 90.119L594.748 87.928L595.569 82.086L594.931 80.442L593.196 79.621L590.914 79.895L589.271 80.808L587.719 80.534L585.527 80.899L583.245 83.09L580.78 82.816L579.229 80.899L579.32 79.347L580.872 75.714L583.063 73.34L583.793 70.419L582.15 60.925L579.411 58.917L579.32 55.356L577.586 53.348L576.764 50.152L577.221 46.227L580.507 35.638L578.498 35.272L574.847 35.911L570.009 34.816L568 33.903L568.73 30.343L569.644 27.878L569.826 25.778L568.913 23.405L570.557 22.766V21.305L568.365 16.832L565.824 12.725L566.28 11.499L566.738 11.145L566.703 10.652L570.313 8.62699L571.759 8.09699L573.504 7.87399L575.24 8.14499L578.099 9.95799L581.414 10.95L582.278 11.548L585.771 12.814L586.336 13.766L586.137 14.951L586.994 15.173L588.449 16.521L589.136 16.762L589.657 18.624L590.642 19.218L591.239 20.031L594.447 19.956L595.466 20.832L596.444 22.986L596.222 23.567L596.607 23.992L598.336 23.805L598.932 24.547L599.438 25.89L599.477 27.07L598.894 27.562L598.883 27.879L599.385 30.013L599.301 31.22L601.159 31.686L602.544 33.101L604.922 33.252L605.27 32.329L608.368 33.197L609.214 33.104L608.831 35.789L609.164 36.7L609.872 36.989L610.493 38.351L611.759 37.193L612.683 37.383L613.085 37.966L612.676 38.995L614.336 39.707L615.326 40.769L617.334 40.999L617.927 40.534L621.088 40.69L621.665 41.653L621.71 43.239L622.148 43.558L623.426 43.669L625.189 43.15L626.182 42.177L626.256 41.341L627.197 39.945L628.775 39.583L629.771 39.738L630.73 38.21L631.663 38.338L633.038 38.011L634.355 35.568L634.051 34.792L634.871 34.558L635.147 34.163L634.974 33.704L636.702 33.431L637.49 32.713L637.815 32.706L638.541 33.723L638.577 35.3L639.481 35.939L645.067 35.881L646.374 35.219L647.333 35.612L647.838 36.61L649.098 36.75L648.986 37.665L651.151 37.836L651.131 38.532L653.296 40.324L653.872 41.12L655.441 40.874L655.72 40.065L655.478 39.28L656.131 39.028L657.369 39.564L658.357 39.35L659.005 38.71L659.768 36.408L661.711 35.573L662.831 34.021L662.893 32.673L664.134 31.403L663.816 28.564L664.62 28.375L665.162 27.682L666.158 29.019L667.262 28.577L668.88 29.266L669.623 28.777L673.207 30.483L674.402 32.226L675.524 31.766L676.128 32.511L677.519 32.687L677.539 33.506L676.571 37.341L676.677 39.976L678.263 41.184L680.318 40.819L682.187 42.021L683.022 43.453L682.273 44.822L682.421 45.087L683.933 45.397L685.886 46.842L686.316 48.464L687.451 49.751L689.271 49.725L690.4 50.354L690.512 51.959L692.145 53.783L692.178 55.447L692.971 56.456L694.931 55.732L695.916 56.701L699.283 57.562L701.498 58.491L702.581 59.439L703.357 59.54L704.408 59.066L705.415 59.105L705.688 59.471L705.644 60.894L706.298 62.765L706.888 66.291L706.502 67.784L705.787 69.115L705.877 69.51Z" fill="#CCCCCC" stroke="white" stroke-width="0.5"/>
<path d="M586.195 147.83L586.971 147.106L589.089 147.033L590.477 147.764L592.156 151.342L594.785 150.831L596.392 151.05L598.145 151.708L599.313 151.269L599.824 149.443L600.044 147.18L599.094 145.865L597.414 145.354L595.005 146.376L593.252 146.303L593.032 143.382L592.303 141.702L590.769 140.241L590.33 137.904L591.426 136.955L592.74 137.466L596.757 136.298L599.387 136.225L603.914 138.927L605.448 140.314L608.953 140.606L611.729 141.337L613.336 142.286L614.65 141.483L615.673 139.584L616.695 136.809L618.229 135.641L619.763 132.646L620.492 127.242L619.981 122.86L620.347 118.259L621.88 117.894L622.465 119.354L624.363 120.523L626.627 119.427L628.088 118.332L630.06 118.04L631.666 119.573L632.484 121.691L633.872 121.983L635.552 123.006L637.158 122.787L637.45 121.326L636.647 119.866L634.091 118.259L635.113 117.236L636.939 117.894L639.13 119.135L642.49 119.5L644.973 118.551L645.703 117.31L645.63 114.68L647.675 113.877L652.495 113.585L653.664 111.394L654.029 110.079L655.416 109.641L656.366 110.81L657.096 113.146L658.557 114.315L661.113 114.169L663.669 113.292L666.371 111.978L669.073 111.613L670.461 112.563L671.118 114.461L671.045 118.989L669.804 120.377L669.438 122.129L671.118 123.079L673.528 123.517L675.354 124.394L676.742 126.876L678.202 128.337L680.102 128.995L680.831 126.584L679.59 124.759L682.438 120.815L684.629 120.523L686.09 118.653L687.039 116.462L688.792 116.097L689.814 112.081L692.298 107.771L692.809 105.289L691.275 102.951V100.468L691.859 98.423L692.662 97.547L691.859 96.524L690.325 95.575L690.253 91.924L691.129 89.66L696.095 85.351L697.702 82.722L698.359 79.07L699.674 75.71L698.578 73.446L699.674 70.452L705.877 69.51L707.155 69.577L710.056 67.967L712.035 68.569L712.635 68.429L713.425 66.817L714.053 66.502L714.531 67.194L714.601 68.567L715.122 69.724L717.531 70.768L716.918 72.862L717.206 73.701L717.547 73.921L718.157 73.786L718.709 73.094L720.405 72.833L720.641 74.375L720.332 75.308L720.441 76.826L718.51 79.24L718.704 80.256L717.863 81.559L716.618 82.217L716.726 83.14L715.23 87.104L714.933 89.637L713.92 90.294L714.408 91.411L717.377 93.742L718.003 96.443L718.5 96.842L718.611 97.692L718.381 99.377L717.424 100.927L716.583 101.178L716.023 101.838L716.169 102.623L714.636 105.823L714.799 106.224L714.303 107.417L713.233 108.082L713.683 110.992L713.558 111.462L713.089 111.708L712.878 113.279L713.293 114.444L714.302 113.719L716.397 114.539L717.011 115.803L717.942 116.381L718.296 117.457L719.417 117.798L720.213 117.683L720.595 117.346L720.886 116.645L720.596 116.174L721.077 115.182L722.438 114.96L723.125 115.164L725.632 117.251L725.494 117.743L726.094 118.597L725.492 118.814L727.626 120.299L727.93 120.335L728.25 119.65L729.128 119.854L730.626 119.234L730.631 122.037L732.37 122.846L734.571 124.479L734.567 126.028L730.496 131.73L723.909 140.033L713.229 148.511L705.535 158.482L704.385 158.486L702.686 160.527L701.813 160.937L699.401 161.371L698.249 160.812L697.53 161.783L697.313 162.768L696.419 162.696L696.271 162.142L695.658 161.934L694.944 162.177L694.447 162.971L693.468 163.49L693.635 164.81L693.181 165.281L692.853 167.936L690.389 172.913L688.053 172.997L685.298 173.712L683.926 174.529L683.25 175.669L682.183 176.14L681.014 175.775L679.991 174.46L678.859 171.54L677.801 171.32L676.632 171.795L674.259 173.803L672.011 172.988L670.595 173.274L668.493 173.168L668.066 174.037L667.028 173.84L666.371 174.424L665.531 174.46L664.29 174.168L662.537 174.972L661.697 175.885L658.962 180.701L657.8 181.615L656.325 183.654L652.162 181.682L650.738 181.938L648.27 184.019L646.444 185.005L644.326 184.932L640.127 185.37L635.818 185.005L633.481 185.224L631.947 185.735L630.414 186.794L628.844 187.086L625.535 184.384L624.477 182.997L622.139 181.098L618.89 180.075L614.179 180.514L608.445 182.449L607.054 181.093L606.05 179.175L605.319 176.893V174.885L606.598 173.333L606.78 171.416L604.863 171.507L603.768 170.594L604.406 166.669L599.294 166.212L597.742 165.482L598.929 158.818L598.563 157.175L597.377 155.988L595.916 155.531L594.364 155.349L591.078 155.531L588.248 151.606L587.335 149.506L586.195 147.83Z" fill="#CCCCCC" stroke="white" stroke-width="0.5"/>
<path d="M288.769 450.452L289.346 458.679L297.836 468.813L299.206 472.099L299.47 474.48L282.811 474.511L282.947 475.695L283.541 476.74L282.405 477.921L280.959 481.369L281.323 482.572L280.636 486.589L280.915 488.684L281.935 490.863L282.848 492.111L281.583 493.35L280.587 493.863L280.894 495.035L280.117 496.336L276.56 496.409L276.515 496.735L276.083 496.955L276.431 498.263L277.206 499.576L277.645 501.497L277.324 501.999L276.777 504.646L275.814 505.772L275.623 509.655L276.25 512.836L254.25 513.019L253.402 511.621L253.604 511.381L253.457 509.997L243.962 509.95L244.094 511.479L243.77 513.019H238.537L238.82 513.527L237.945 514.072L235.202 513.551L235.333 512.781L234.805 512.563L233.553 512.783L231.85 512.612L229.401 513.348L228.708 514.358L227.288 514.567L226.876 515.639L227.491 516.384L227.371 516.836L223.516 516.779L222.824 517.362L221.207 516.193L219.096 516.062L216.804 516.544L215.712 517.292L212.805 516.751L211.427 516.93L208.587 517.97L206.629 517.93L205.44 516.944L205.397 516.583L204.522 516.211L204.493 515.671L204.973 514.812L205.563 514.711L204.602 513.527L203.688 513.019L203.845 511.131L202.703 510.861L202.098 510.22L202.583 508.528L201.422 507.994L201.682 506.949L200.585 506.92L199.961 506.118L200.026 505.021L198.324 504.474L197.454 503.718L197.825 502.115L197.3 501.499L196.281 501.062L196.675 498.717L194.228 497.456L193.578 496.771L192.711 495.033L192.99 494.235L192.785 493.742L191.108 492.805L191.246 492L192.332 491.633L192.223 491.155L191.284 490.886L190.68 490.128L190.215 490.873L189.339 490.788L189.589 488.552L189.318 487.847L188.044 487.715L186.845 486.885L186.281 485.987L185.319 486.071L185.259 484.657L184.669 483.406L183.33 482.352L183.371 481.786L183.969 481.076L183.329 480.398L183.218 479.384L182.351 477.382L182.764 476.867L183.288 477.527L183.879 477.393L183.989 476.226L184.444 475.429L184.066 473.999L183.19 473.792L182.754 473.228L183.075 471.858L182.683 471.269L182.719 469.536L181.859 468.878L181.091 469.076L180.355 468.646L180.18 467.049L178.838 465.743L178.609 463.597L177.465 462.969L177.187 462.336L176.526 458.932L175.554 458.363L175.472 457.852L176.002 456.415L174.631 455.355L174.909 454.322L174.011 453.258L174.829 452.46L174.093 451.775L173.333 451.875L173.105 449.986L173.201 449.774L174.191 450.001L174.437 449.796L174.54 449.133L173.949 447.292L174.296 446.09L173.983 445.173L174.771 443.573L174.412 442.497L173.189 441.488L171.492 441.019L171.585 439.96L170.002 439.419L169.706 438.388L170.039 437.689L169.329 434.852L169.767 433.915L169.733 433.007L166.352 431.467L163.727 432.147L162.234 431.848L161.461 431.051L150.264 431.281L151.043 429.727L153.846 427.819L155.532 423.74L155.832 421.1L155.19 413.443L156.75 406.12L156.301 402.693L156.355 400.651L157.349 397.905L157.304 394.428L156.612 389.938L159.013 386.845L163.191 379.401L163.641 378.976L165.615 378.924L167.94 379.856L169.401 380.807L170.569 380.368L170.715 376.497L172.03 375.256L175.682 374.379L178.165 374.525L181.451 374.233L183.058 374.891L184.884 378.396L186.417 379.638L188.17 380.003L191.676 380.076L193.501 376.57L199.11 373.722L201.155 372.188L202.835 370.362L204.734 369.34H207.217L208.896 369.852L209.627 371.97L210.649 373.064L214.52 371.531L216.054 371.239L216.492 372.554L215.834 374.015L214.009 375.329L211.891 376.278L211.015 377.812L211.526 379.272L211.38 380.879L210.43 381.828L208.97 384.238L205.829 390.228L205.099 392.638L205.318 395.632L204.953 398.991L205.756 402.424L205.537 404.906L204.588 406.966L203.419 408.646V414.05L203.784 416.752L205.245 419.747L205.902 424.932L208.239 425.954L213.206 425.882L214.885 425.662L216.346 424.274L217.733 423.472L219.267 422.96L220.363 423.252L221.823 425.005L223.649 425.735L225.037 425.443L226.716 426.319L228.25 429.752L228.469 431.87L229.784 431.943L230.806 429.971L232.851 430.264L234.75 431.14L236.21 430.848L238.986 428.949L240.154 429.387L243.294 431.943L244.974 432.746L244.609 435.813L245.778 436.398L247.384 436.105L249.137 436.252L250.817 436.909L250.54 440.269L251.124 441.291L253.899 441.51L255.14 440.999L256.455 441.729L256.893 445.234L258.427 446.257L259.376 447.645L261.567 447.864L263.539 446.987L266.387 444.505L267.921 443.92L269.309 442.679L270.039 441.146L272.083 441.072L274.786 441.364L275.881 441.875L275.955 443.409L273.836 446.111L273.252 447.353L273.471 449.105L275.151 452.173L277.196 451.297L278.146 449.397L279.825 448.229L281.651 448.595L285.595 450.566L287.274 450.201L288.769 450.452Z" fill="#CCCCCC" stroke="white" stroke-width="0.5"/>
<path d="M142.945 357.608L145.162 358.976L151.169 358.562L153.09 358.795L154.638 359.368L158.958 362.036L161.847 363.321L164.517 367.603L166.168 368.496L167.066 369.569L167.566 370.664V371.344L167.193 371.79L167.8 373.045V373.512L167.248 374.299L167.513 374.819L166.906 375.267L166.456 377.233L165.615 378.242V378.924L163.641 378.976L163.191 379.401L159.013 386.845L156.612 389.938L157.304 394.428L157.349 397.905L146.795 397.8L142.558 394.3L142.324 394.768L142.197 397.565L141.321 398.8L139.347 399.033L136.009 398.087L132.745 395.715L131.899 394.353L132.349 393.459L134.696 393.13L135.933 392.236L136.371 388.961L137.246 386.791L137.012 385.462L136.532 385.068L133.801 384.132L133.459 383.654L134.719 381.411L134.558 380.549L133.64 380.337L130.928 380.708L127.237 379.656L125.351 379.922L124.506 380.442L123.822 381.283L124.026 383.111L123.431 384.42L122.052 384.866L120.688 384.26L117.922 381.57L114.051 375.749L115.146 374.625L115.753 372.826L117.079 372.044L118.512 371.623L119.896 370.304L122.575 370.598L123.546 370.997L124.751 370.673L126.103 369.839L127.646 367.216L127.493 365.236L128.047 363.604L129.112 361.943L129.856 361.324L135.708 359.302L141.188 358.495L142.945 357.608Z" fill="#CCCCCC" stroke="white" stroke-width="0.5"/>
<path d="M454.338 429.978L454.032 432.574L454.375 434.856V437.71L459.396 439.307L460.309 441.361L459.624 443.301L458.141 444.898L455.516 445.013L454.261 445.926L454.375 447.751L457.228 450.604V452.43H454.717L452.663 452.887L448.555 451.518L447.3 451.745L446.045 453.114L445.36 457.451L444.562 459.848L444.447 464.298L442.85 465.553L441.595 465.324L438.057 466.352L436.345 465.896L432.009 460.76L432.123 459.505L432.693 458.136L431.553 457.337H429.727L427.559 458.136L425.961 459.276L424.249 460.075L422.651 460.532L421.738 459.276L421.967 457.793L421.511 456.082L419.99 456.223L420.789 453.827L420.903 451.545L418.165 449.263L418.393 444.47L415.997 442.644L414.285 437.737L414.171 435.112L414.741 432.031L413.715 430.548L414.513 429.179L418.051 427.353L421.132 426.326L423.756 426.668L429.348 426.554L434.597 427.011H438.705L442.813 428.266L444.297 427.353L446.579 427.923L448.519 429.064L451.6 428.95L454.338 429.978Z" fill="#CCCCCC" stroke="white" stroke-width="0.5"/>
<path d="M339.657 301.715L340.89 302.742L343.012 302.948L346.847 302.879L351.845 301.784L353.83 301.646L354.652 301.236L354.583 295.553L355.474 295.416L366.771 302.058L369.455 303.427L371.017 303.423L372.455 305.066L376.631 307.874L377.316 309.503L381.561 315.87L383.684 317.719L384.779 319.226L384.163 320.731L382.52 322.307L381.287 324.292L381.014 327.921L379.918 330.454L378.549 332.097L376.7 336.753L374.509 340.724L374.646 343.257L375.947 344.489L378.138 344.216L379.644 343.6L381.356 343.805L382.657 345.243L383.136 347.845L382.314 352.952L381.082 354.459L376.563 357.677L376.905 358.772L378.48 359.457L380.055 359.73L381.63 360.621L383.821 361.031L385.669 360.278L387.655 360.21L389.298 360.895L390.804 362.332L391.763 364.112L397.72 368.015L397.925 372.808L397.24 376.231L394.775 379.997L393.68 382.256L392.311 384.174L390.736 384.447L388.956 384.379L387.655 384.858L386.422 386.501L385.532 388.761L383.205 392.321L380.945 393.348L380.05 394.587L381.876 396.048L382.168 397.509L382.095 399.188L381.146 401.16L380.196 402.329L378.736 402.84L377.348 401.744L373.332 401.233L372.382 399.846L371.213 399.991L369.753 401.599L368.438 401.525L367.416 400.795L365.809 400.941L364.787 402.183L363.691 407.66L362.961 409.121L364.86 413.94L365.955 415.401L368.292 416.277L369.68 415.985L371.213 415.036L372.382 415.401L372.747 416.862L375.522 420.222L375.814 422.924L375.595 425.626L374.719 427.598L372.163 431.249L370.848 431.979L369.388 431.541L367.708 428.839L366.466 428.401L362.012 435.339L361.354 438.261L360.989 442.35L362.158 447.302L362.669 451.757L362.084 454.459L360.77 455.627L360.04 457.015V458.986L361.865 459.06L363.034 459.425L365.006 460.521L366.101 462.2L365.59 463.807L364.203 464.245L362.596 463.441L361.208 464.537L360.989 465.486L360.04 466.363L357.629 467.166L356.169 467.97L355.22 469.723L355.584 470.599L358.944 473.082L364.641 478.852L368.724 485.449L321.139 485.354L320.929 482.966L321.213 480.072L321.52 478.864L322.428 477.208L322.976 474.764L324.088 473.593L324.422 471.204L312.509 471.188L311.922 474.457L299.47 474.48L299.206 472.099L297.836 468.813L289.346 458.679L288.25 443.068L295.919 436.496L299.822 436.222L301.602 434.031L302.697 430.882L304.888 430.744L305.025 428.006L307.271 426.596L306.902 425.027L307.413 423.785V422.397L306.755 421.375L305.952 417.14L306.171 414.072L307.267 408.229L307.486 405.235L306.755 400.27L303.98 393.988L302.52 387.196V384.567L303.031 382.741L305.003 379.499L304.784 377.746L303.907 375.92L302.374 373.729L302.008 370.954L304.26 371.319L306.04 371.936L309.874 374.469L310.216 375.29L314.051 375.427L315.694 372.277L316.926 371.524L320.35 370.977L323.431 368.648L324.937 366.938L325.69 364.951L325.827 359.816L325.005 352.901L324.869 336.086L325.348 331.088L328.223 321.297L330.346 316.847L333.153 312.67L336.029 305.481L338.425 302.194L339.657 301.715Z" fill="#CCCCCC" stroke="white" stroke-width="0.5"/>
<path d="M302.008 370.954L302.374 373.729L303.907 375.92L304.784 377.746L305.003 379.499L303.031 382.741L302.52 384.567V387.196L303.98 393.988L306.755 400.27L307.486 405.235L307.267 408.229L306.171 414.072L305.952 417.14L306.755 421.375L307.413 422.397V423.785L306.902 425.027L307.271 426.596L305.025 428.006L304.888 430.744L302.697 430.882L301.602 434.031L299.822 436.222L295.919 436.496L288.25 443.068L288.769 450.452L287.274 450.201L285.595 450.566L281.651 448.595L279.825 448.229L278.146 449.397L277.196 451.297L275.151 452.173L273.471 449.105L273.252 447.353L273.836 446.111L275.955 443.409L275.881 441.875L274.786 441.364L272.083 441.072L270.039 441.146L269.309 442.679L267.921 443.92L266.387 444.505L263.539 446.987L261.567 447.864L259.376 447.645L258.427 446.257L256.893 445.234L256.455 441.729L255.14 440.999L253.899 441.51L251.124 441.291L250.54 440.269L250.817 436.909L249.137 436.252L247.384 436.105L245.778 436.398L244.609 435.813L244.974 432.746L243.294 431.943L240.154 429.387L238.986 428.949L236.21 430.848L234.75 431.14L232.851 430.264L230.806 429.971L229.784 431.943L228.469 431.87L228.25 429.752L226.716 426.319L225.037 425.443L223.649 425.735L221.823 425.005L220.363 423.252L219.267 422.96L217.733 423.472L216.346 424.274L214.885 425.662L213.206 425.882L208.239 425.954L205.902 424.932L205.245 419.747L203.784 416.752L203.419 414.05V408.646L204.588 406.966L205.537 404.906L205.756 402.424L204.953 398.991L205.318 395.632L205.099 392.638L205.829 390.228L208.97 384.238L210.43 381.828L211.38 380.879L211.526 379.272L211.015 377.812L211.891 376.278L214.009 375.329L215.834 374.015L216.492 372.554L216.054 371.239L214.52 371.531L210.649 373.064L209.627 371.97L208.896 369.852L207.217 369.34H204.734L202.835 370.362L201.155 372.188L199.11 373.722L193.501 376.57L191.676 380.076L188.17 380.003L186.417 379.638L184.884 378.396L183.058 374.891L181.451 374.233L178.165 374.525L175.682 374.379L172.03 375.256L170.715 376.497L170.569 380.368L169.401 380.807L167.94 379.856L165.615 378.924V378.242L166.456 377.233L166.906 375.267L167.513 374.819L167.248 374.299L167.8 373.512V373.045L167.193 371.79L167.566 371.344V370.664L172.611 366.134L175.897 364.601L177.358 363.505L179.768 362.921L182.835 359.927L184.588 359.707L186.414 360.729L190.138 360.949L191.745 359.562L193.396 356.976L193.907 354.128L196.244 349.6L197.339 348.212L197.631 346.313L195.732 341.055L197.193 339.521L198.143 338.061L198.581 336.527L198.946 334.263L198.581 329.37L202.013 329.735L204.497 331.123L206.03 332.803L208.878 333.679L210.996 333.971L212.384 334.555L215.524 336.234L217.788 337.842L220.49 337.695L222.243 336.819L224.726 336.454L226.698 336.746L229.473 338.061L231.957 337.111L234.22 337.55L236.046 339.813L238.164 341.274L244.007 344.049L253.282 346.24L259.635 348.358L265.127 350.797L270.24 352.478L277.689 356.713L283.02 360.146L286.087 361.533L295.582 364.454L297.7 365.696L300.548 368.617L302.008 370.954Z" fill="#CCCCCC" stroke="white" stroke-width="0.5"/>
<path d="M422.597 505.156L421.931 507.095L423.186 510.746L424.783 511.887L431.516 512.229L433.798 512.8L435.853 512.458L437.449 511.431L438.819 511.545L441.102 512.686L442.242 515.082L443.384 520.331L442.356 527.862L441.672 530.145L441.443 533.34L441.558 534.983L442.699 538.978V542.286L444.753 543.313H447.834L451.714 543.77L453.426 544.455L455.251 545.596L457.533 549.59L463.468 550.73L465.293 552.899L466.092 555.638L467.804 557.464L471.569 560.431L473.852 561.001L475.905 562.713L475.221 563.626L473.509 564.082L471.798 563.968L466.891 562.94L464.608 563.626L462.896 564.538L460.5 564.995L459.815 566.707L460.158 570.244L459.245 572.298L458.902 574.238L459.131 577.205L457.99 579.259L455.023 583.139L455.251 585.192L457.191 586.563L458.218 588.388L457.647 589.644L459.131 591.013L461.413 590.67L464.494 591.013L466.32 590.67L468.374 590.784V592.382L469.857 593.751L470.771 591.926L472.025 590.214L474.08 591.926L474.879 593.751L476.818 594.094L481.269 590.898L484.692 593.181L487.316 592.61L489.143 594.778L490.969 595.234L492.794 594.55L494.734 592.725L494.163 590.556L495.076 589.644L497.244 589.072L506.602 584.736L512.649 583.024L513.334 581.655L511.736 576.406L511.166 572.755L512.193 571.157L514.476 570.814L517.1 571.271L520.523 574.809L523.49 576.635L528.968 578.46L532.277 578.574L533.418 580.172L538.781 579.602L541.406 578.46L543.666 576.882L543.775 578.416L543.282 579.785L541.146 583.455V584.934L541.968 586.084H543.775L545.474 585.7L551.772 587.224L553.908 588.1L560.646 589.25L565.739 589.305L569.464 588.154L571.107 588.757L572.477 589.962L573.024 591.715L572.367 593.029L569.081 597.686V599.383L570.505 601.136L574.777 604.86L575.818 606.175L575.653 608.859L574.996 609.899L572.642 611.652L569.793 612.529L567.164 612.912L566.178 612.693L564.315 609.352L562.453 608.53L553.087 608.312L548.814 609.406L548.596 610.447L549.417 611.652L552.101 614.063L551.225 616.363L552.868 617.349L553.854 618.499L554.073 619.54L552.539 623.429L551.608 625.072L549.362 625.729L546.952 626.058L544.926 628.961L544.214 631.262L543.063 632.412L540.544 627.537L539.887 625.51L538.518 624.908L536.929 625.346L534.902 627.975L533.368 628.03L529.973 627.263H528.329L527.124 628.522L526.74 629.969L523.181 634.351L522.961 635.337L523.838 639.335L521.592 642.074L521.537 644.101L522.194 646.894L520.113 649.03L518.634 652.864L516.389 654.781V655.548L517.429 656.589L517.537 657.64L515.18 657.766L514.556 658.747L511.483 659.664L510.961 659.164L511.405 658.05L511.365 656.832L510.716 655.866L508.795 655.415L505.31 653.5L504.901 651.861L504.093 651.12L504.294 649.848L503.494 649.205L504.926 648.52L504.063 647.376L503.993 645.28L503.064 643.501L503.135 643.134L504.334 642.656L504.366 641.832L503.729 641.126L503.835 640.831L504.721 640.622L505.256 640.11L504.661 639.056L505.89 636.717L504.046 636.544L501.052 637.948L497.65 638.351L495.084 639.011L491.825 638.839L490.832 639.19L489.704 639.067L488.766 639.597L487.52 639.294L486.734 640.495L484.621 640.937L483.673 640.751L482.321 641.002L482.107 641.889L480.818 642.078L479.547 643.028L478.331 644.812L476.961 645.385L476.703 646.55L476.38 646.855L475.116 646.47L474.052 647.08L472.08 647.026L471.077 647.608L470.754 647.295L470.7 646.462L468.667 645.02L466.222 644.956L465.058 644.24L465.327 643.666L467.396 643.354L469.07 640.222L469.365 636.668L468.82 635.934L468.999 633.51L468.678 632.696L466.271 631.147L464.84 630.754L463.723 630.86L461.147 630.232L460.278 630.849L459.403 630.517L459 630.024L459.575 628.21L458.638 626.957L458.979 626.063L458.764 625.616L458.479 625.393L457.602 625.427L456.217 624.8L454.349 624.637L453.187 625.091L452.45 626.707L451.841 627.35L449.729 628.643L449.064 629.776L448.285 630.177L446.882 630.183L444.192 628.799L442.751 629.404L441.374 629.418L439.722 628.733L438.039 628.837L436.317 627.525L434.979 627.012L432.288 626.698L426.658 630.307L423.363 633.074L421.405 632.726L418.787 633.92L416.107 632.994L413.971 632.921L411.862 632.266L410.462 631.506L409.152 632.25L408.292 632.334L407.625 633.43L404.932 633.378L402.254 632.314L399.637 630.5L398.744 630.288L396.746 630.748L396.26 631.103L395.933 631.762L396.274 632.909L396.16 633.786L393.935 635.898L390.643 635.964L389.998 637.158L388.662 638.589L388.293 638.863L387.595 638.671L387.1 637.932L387.521 636.691L387.28 635.554L385.635 633.161L385.602 630.477L385.095 629.024L385.067 626.967L384.14 625.503L383.846 624.231L384.095 623.348L386.047 621.818L388.734 621.025L389.741 620.257L389.978 619.687L389.215 616.519L389.308 611.376L387.816 610.312L389.549 606.586L389.747 605.222L388.935 602.994L387.987 601.987L387.912 600.399L386.222 598.407L385.704 596.441L385.793 593.038L384.764 590.249L384.501 587.459L382.151 586.192L379.958 585.545L378.865 583.955L377.626 583.152L374.839 579.157L374.625 578.158L372.385 576.857L372.088 573.473L370.618 570.826L370.807 569.575L369.197 567.852L369.557 567.234L370.054 564.643L371.794 560.918L371.811 558.254L371.115 554.738L372.014 548.773L372.097 546.511L373.481 542.584L374.179 536.154L374.938 533.476L375.605 532.18L374.051 526.761L374.699 525.527L373.161 524.238L372.46 520.62L370.005 515.182L369.007 514.217L367.375 510.245L368.343 508.921L368.094 506.51L368.241 504.444L369.626 501.615L371.662 501.324L375.313 502.579L378.28 501.78L380.22 504.861L381.247 507.258L382.959 508.97L385.583 509.312L390.604 507.942L392.202 507.144L396.196 507.372L397.679 506.23L398.364 504.634L400.761 504.291L402.357 505.889L402.586 509.312L405.553 507.372L407.721 506.916L410.117 507.942L411.601 508.97L414.454 509.426L417.078 508.97L421.301 505.318L422.597 505.156Z" fill="#CCCCCC" stroke="white" stroke-width="0.5"/>
<path d="M438.704 427.011H434.596L429.347 426.554L423.755 426.668L421.131 426.326L418.05 427.353L414.512 429.179L413.714 430.548L414.74 432.031L414.17 435.112L414.284 437.737L415.996 442.644L418.392 444.47L418.164 449.263L420.902 451.545L420.788 453.827L419.989 456.223L418.62 459.076L418.164 462.043L417.022 466.037L418.392 469.46L419.762 470.259L421.815 469.803L422.956 471.514L426.494 473.203L425.353 474.801L424.44 478.224L424.098 480.849L424.554 484.386L425.353 487.239L425.238 491.005L424.098 496.938L423.869 500.476L423.185 503.442L422.596 505.156L421.3 505.318L417.077 508.97L414.453 509.426L411.6 508.97L410.116 507.942L407.72 506.916L405.552 507.372L402.585 509.312L402.356 505.889L400.76 504.291L398.363 504.634L397.678 506.23L396.195 507.372L392.201 507.144L390.603 507.942L385.582 509.312L382.958 508.97L381.246 507.258L380.219 504.861L378.279 501.78L375.312 502.579L371.661 501.324L369.625 501.615L370.466 499.419L370.552 498.466L371.329 497.61L371.515 495.834L370.865 494.534L371.654 492.803L371.607 491.551L370.227 487.129L368.975 486.18L368.723 485.449L364.64 478.852L358.943 473.082L355.583 470.599L355.219 469.723L356.168 467.97L357.628 467.166L360.039 466.363L360.988 465.486L361.207 464.537L362.595 463.441L364.202 464.245L365.589 463.807L366.1 462.2L365.005 460.521L363.033 459.425L361.864 459.06L360.039 458.986V457.015L360.769 455.627L362.083 454.459L362.668 451.757L362.157 447.302L360.988 442.35L361.353 438.261L362.011 435.339L366.465 428.401L367.707 428.839L369.387 431.541L370.847 431.979L372.162 431.249L374.718 427.598L375.594 425.626L375.813 422.924L375.521 420.222L372.746 416.862L372.381 415.401L371.212 415.036L369.679 415.985L368.291 416.277L365.954 415.401L364.859 413.94L362.96 409.121L363.69 407.66L364.786 402.183L365.808 400.941L367.415 400.795L368.437 401.525L369.752 401.599L371.212 399.991L372.381 399.846L373.331 401.233L377.347 401.744L378.735 402.84L380.195 402.329L381.145 401.16L382.094 399.188L382.167 397.509L381.875 396.048L380.049 394.587L380.944 393.348L383.204 392.321L385.531 388.761L386.421 386.501L387.654 384.858L388.955 384.379L390.735 384.447L392.31 384.174L393.679 382.256L394.774 379.997L397.239 376.231L397.924 372.808L397.719 368.015L402.916 371.133L404.924 372.958L406.933 375.788L411.132 380.262L413.323 380.353L415.97 379.987L418.344 380.262L419.53 381.083L422.178 387.564L422.36 390.395L419.895 391.855L413.87 394.503L413.597 395.324L414.145 396.146L413.687 397.333L412.228 398.337L412.501 399.523L413.962 401.258L416.609 403.084L419.805 406.918L420.809 408.835L421.995 410.022L424.187 410.113L426.012 409.109L428.934 408.562L431.033 408.652L434.685 411.209L440.07 411.392L441.896 411.939L443.175 413.856L444.179 417.6L443.083 420.429L438.704 427.011Z" fill="#CCCCCC" stroke="white" stroke-width="0.5"/>
<path d="M535.299 448.652L532.3 447.025L531.889 445.383L530.383 445.245L529.562 446.752L528.329 446.341L526.822 443.055L524.084 442.918L521.482 445.52L516.963 447.71L511.485 448.942L506.967 448.258L505.323 448.806L504.365 449.901L503.544 454.01L504.365 455.516L509.706 459.35L510.391 461.403L509.706 464.006L508.474 465.786L505.598 467.429L502.448 465.101L500.394 463.047L495.875 462.91L492.041 463.868L489.303 464.964L486.427 467.703L484.373 470.853L481.36 473.454L478.073 475.371L473.966 476.33L471.227 477.699L464.654 477.288L461.23 478.932L454.658 487.559L452.878 490.434L451.509 493.31L450.961 497.418L450.823 501.389L452.604 506.045L451.509 508.235L447.812 510.152L446.579 508.372L444.388 507.277L443.292 508.646L443.019 510.7L441.102 512.686L438.819 511.545L437.449 511.431L435.853 512.458L433.798 512.8L431.516 512.229L424.783 511.887L423.186 510.746L421.931 507.095L423.186 503.442L423.87 500.476L424.099 496.938L425.239 491.005L425.354 487.239L424.555 484.386L424.099 480.849L424.441 478.224L425.354 474.801L426.495 473.203L422.957 471.514L421.816 469.803L419.763 470.259L418.393 469.46L417.023 466.037L418.165 462.043L418.621 459.076L419.99 456.223L421.511 456.082L421.967 457.793L421.738 459.276L422.651 460.532L424.249 460.075L425.961 459.276L427.559 458.136L429.727 457.337H431.553L432.693 458.136L432.123 459.505L432.009 460.76L436.345 465.896L438.057 466.352L441.595 465.324L442.85 465.553L444.447 464.298L444.562 459.848L445.36 457.451L446.045 453.114L447.3 451.745L448.555 451.518L452.663 452.887L454.717 452.43H457.228V450.604L454.375 447.751L454.261 445.926L455.516 445.013L458.141 444.898L459.624 443.301L460.309 441.361L459.396 439.307L454.375 437.71V434.856L454.032 432.574L454.338 429.978L456.849 429.406L459.588 429.179L460.614 427.923L460.843 425.869L460.5 423.93L457.306 422.104L456.05 418.794L455.365 416.056L456.278 414.115L459.131 413.203H461.983L464.608 414.458L468.146 414.002L469.516 413.089L470.428 411.947L472.025 413.545L473.509 413.659L474.765 412.632L475.563 410.122L475.221 407.611L474.422 405.899L474.879 404.074L475.791 403.047L476.134 400.993L482.524 396.999L486.404 395.857V393.575L487.089 392.891L491.881 392.549L493.091 394.831L493.434 396.771L494.232 398.025L495.487 398.368H497.541L502.105 399.053L510.208 398.368L540.668 398.672L540.376 400.132L539.134 401.666L538.185 403.419L537.089 407.946L536.066 410.576L535.629 413.789L535.774 416.302L536.797 419.369L536.87 421.049L535.556 422.729L535.19 424.7L535.921 426.818L537.746 428.133L537.893 430.98L538.988 436.678L539.062 439.452L537.966 444.419L536.286 446.244L535.409 448.144L535.299 448.652Z" fill="#CCCCCC" stroke="white" stroke-width="0.5"/>
<path d="M339.657 301.715L338.425 302.194L336.029 305.481L333.153 312.67L330.346 316.847L328.223 321.297L325.348 331.088L324.869 336.086L325.005 352.901L325.827 359.816L325.69 364.951L324.937 366.938L323.431 368.648L320.35 370.977L316.926 371.524L315.694 372.277L314.051 375.427L310.216 375.29L309.874 374.469L306.04 371.936L304.26 371.319L302.008 370.954L300.548 368.617L297.7 365.696L295.582 364.454L286.087 361.533L283.02 360.146L277.689 356.713L270.24 352.478L265.127 350.797L259.635 348.358L253.282 346.24L244.007 344.049L238.164 341.274L236.046 339.813L234.22 337.55L231.957 337.111L229.473 338.061L226.698 336.746L224.726 336.454L222.243 336.819L220.49 337.695L217.788 337.842L215.524 336.234L212.384 334.555L210.996 333.971L208.878 333.679L206.03 332.803L204.497 331.123L202.013 329.735L198.581 329.37L198.946 334.263L198.581 336.527L198.143 338.061L197.193 339.521L195.732 341.055L197.631 346.313L197.339 348.212L196.244 349.6L193.907 354.128L193.396 356.976L191.745 359.562L190.138 360.949L186.414 360.729L184.588 359.707L182.835 359.927L179.768 362.921L177.358 363.505L175.897 364.601L172.611 366.134L167.566 370.664L167.066 369.569L166.168 368.496L164.517 367.603L161.847 363.321L158.958 362.036L154.638 359.368L153.09 358.795L151.169 358.562L145.162 358.976L142.945 357.608L143.624 356.747L144.536 353.45L146.737 349.53L148.932 344.572L151.035 341.797L151.785 339.523L153.885 336.415L155.24 332.624L153.969 331.519L153.769 330.874L154.099 328.903L153.546 325.205L154.202 321.913L153.581 318.541L153.62 316.528L154.549 313.394L154.638 310.854L155.643 308.65L155.816 306.971L153.776 297.734L154.053 291.707L155.994 287.794L160.496 284.578L163.478 281.451L167.162 276.737L169.073 281.476L170.031 283.05L172.428 284.214L175.646 284.283L181.945 283.324L182.698 282.16L182.903 279.764L182.218 278.121L177.357 276.34L177.289 275.245L178.864 274.492L183.588 274.766L186.189 275.382H188.586L191.393 274.149L192.899 273.123L194.269 271.562L202.622 265.057L208.647 262.25L212.193 261.497L220.341 258.553L223.97 256.499L228.352 251.98L228.968 249.994L230.063 248.693L231.775 247.872L233.897 248.283L236.91 250.063L238.964 251.774L243.483 254.65L246.016 254.855L247.796 254.376L252.794 254.239L252.932 252.87L251.631 251.5L252.042 250.063H253.342L254.643 251.09L257.04 251.912L257.081 250.2L256.122 248.009L253.863 245.955L252.014 242.737L252.904 239.587L254.89 238.149L259.409 237.875L261.668 238.149L263.859 236.849L264.817 235.548L265.708 235.411L267.967 238.013L269.199 240.34L269.953 243.901L270.021 246.229L271.39 247.256L272.896 247.872L273.992 249.378L275.156 251.912L275.978 255.472L277.142 258.21L278.511 260.47L280.387 265.413L281.688 272.26L281.756 275.272L283.537 276.163L285.043 275.272L287.918 272.26L288.877 269.316L289.767 267.741L290.931 267.262L294.491 271.233L296.75 277.874L299.079 279.244L304.761 280.065L309.623 283.762L316.059 287.665L318.455 286.843L321.467 284.721L323.248 284.242L325.165 282.872H327.15L331.806 288.966L335.092 292.184L339.816 299.441L339.657 301.715Z" fill="#CCCCCC" stroke="white" stroke-width="0.5"/>
<path d="M491.881 392.549L491.319 391.137L488.033 387.303L486.869 383.879L488.786 382.099L491.388 378.607L492.21 376.348L492.278 373.746L493.168 368.474L491.524 363.435L489.95 361.038L482.624 351.521L483.24 349.398L484.473 347.413L483.993 342.552L485.089 339.061L487.69 337.417L489.334 334.815L491.594 332.146L493.236 328.311L493.1 325.983L493.511 323.86L493.47 322.229L494.236 319.052L495.879 316.313L496.646 313.957L496.701 311.603L495.879 307.604L492.647 304.262L493.606 303.14L493.4 299.647L491.142 297.936L487.992 297.73L484.295 298.073L481.898 297.388L480.187 295.403L480.461 292.116L480.118 290.076L478.543 286.447L477.448 285.009L477.088 283.191H477.161L490.398 282.734L495.003 282.921L497.356 282.426L499.273 282.974L500.369 284.343L500.232 285.712L504.272 286.615L507.626 286.534L511.598 281.878L514.063 281.056L518.23 278.396L519.274 278.534L521.354 277.623L523.596 277.77L524.567 276L524.725 272.055L525.439 269.065V267.051L525.014 264.571L525.282 263.267L525.332 259.839L526.646 261.146L527.095 262.037L528.278 262.715L528.225 263.447L530.732 263.711L531.385 263.235L531.577 262.27L532.203 261.592L531.619 260.309L531.673 259.843L533.463 258.973L533.732 257.256L532.812 254.549L534.856 249.948L533.98 248.415L533.469 246.735V245.055L534.71 243.741L536.997 243.137L540.334 240.965L540.479 238.994L539.677 236.583L539.75 232.859L539.822 231.325L541.064 227.382L540.771 225.775L537.997 223.73L536.244 222.927L535.514 221.393L536.682 219.348L536.828 217.522L532.812 213.213L531.716 208.612L532.738 207.152L534.638 207.079L537.193 208.54L542.704 214.14L543.622 216.333L544.229 216.207L544.602 216.917L545.573 217.775L546.971 218.22L547.566 219.969L548.677 220.965L552.606 220.753L554.258 219.789L555.26 218.686L558.236 218.273L560.811 216.46L562.601 216.705L563.05 216.101L562.58 214.977L563.08 214.426L564.789 215.603L565.707 215.401L567.179 216.599L569.076 216.779L569.837 217.595L571.211 218.294L571.714 218.898L571.572 219.704L571.968 220.361L573.546 221.378L574.262 222.533L576.078 223.317L580.207 223.763L581.42 224.124L582.23 224.653L582.968 225.724L583.525 225.957L584.954 225.978L586.502 225.172L587.416 225.066L588.018 227.011L588.82 227.596L590.354 227.742L594.663 229.275L597.22 229.859L598.997 229.46L601.153 229.986L599.91 236.209L598.746 239.837L597.72 241.275L595.871 242.508L591.969 242.645L589.572 241.96L586.971 241.892L581.767 243.466L580.329 244.767L579.713 247.164L580.397 249.834L581.562 251.34L581.082 252.709L579.645 252.572L578.822 253.257L579.165 254.764L583.136 257.434L583.273 260.309L583.958 261.884L588.203 265.116L589.641 267.581L591.283 269.635L593.406 271.141L595.392 273.537L597.377 275.112L597.993 277.029L597.925 283.328L591.831 283.602L587.449 282.644L584.711 282.575L583.82 283.396L584.437 284.423L586.423 284.834L587.039 285.93V287.504L584.711 289.353L583.136 290.175L580.329 292.776L579.097 293.53L572.523 291.476L571.428 290.791L570.195 289.216L569.101 288.737L567.32 288.668L565.54 289.079L564.513 289.969L563.828 294.967L563.007 296.542L562.254 297.227L562.186 299.555L563.075 300.869L564.103 303.54L564.787 307.168L566.361 309.496L566.567 311.619L566.252 313.398L567.484 315.727L568.375 318.466L569.813 319.561L571.182 319.972L573.03 324.97L573.646 327.982L573.578 329.968L574.605 332.364L572.649 334.247L573.105 337.1L574.133 339.382L572.535 349.767L573.448 353.418L575.959 355.7L582.349 357.526L584.518 358.781L587.027 359.694L589.31 359.809L592.276 360.722L597.868 360.379L600.379 360.949L600.835 362.661L602.091 364.259L607.796 364.943L608.366 367.111L613.388 368.823L615.1 364.943L616.811 365.172L617.838 367.682L621.604 370.649L622.973 372.703L626.511 375.898L628.108 377.724L628.679 380.805L630.391 384.114L635.754 392.9L637.123 396.78L638.405 399.024L540.668 398.672L510.208 398.368L502.105 399.053L497.541 398.368H495.487L494.232 398.025L493.434 396.771L493.091 394.831L491.881 392.549Z" fill="#CCCCCC" stroke="white" stroke-width="0.5"/>
<path d="M390.601 139.154L379.282 139.017L375.288 139.929L373.12 141.07L371.751 143.923L371.865 148.146L372.778 156.361L373.69 157.503L374.147 159.214L374.261 161.04L375.06 162.752L376.658 164.121L378.711 165.034L380.195 166.518L381.679 169.827L380.309 170.968L377.799 170.055L374.147 171.082L373.006 172.565L371.066 173.592L369.126 173.707L367.757 172.565L366.159 171.995L365.018 172.337L364.448 173.364L363.877 177.952L361.823 178.864L358.057 177.837L352.58 174.985L349.271 173.958L345.505 171.79L341.967 171.447L340.142 170.763L338.658 168.708L339.799 164.144L339.685 162.661L338.658 161.063L336.833 160.835L334.208 161.976L331.469 161.291L326.905 160.971L327.384 159.738L327.042 157L325.809 155.151L325.125 153.234V150.358L326.973 144.484L327.042 141.813L326.425 141.197L324.645 141.882L318.689 142.704L315.95 142.019L311.157 140.034L307.939 139.075L304.447 139.486L300.408 140.649L297.053 142.293L294.041 143.388L288.152 145.032L282.483 148.25L278.512 151.194L269.885 154.754L269.543 146.743L294.533 133.46L296.724 129.832L298.71 127.915L299.052 125.587L299.942 123.875L301.394 122.383L303.105 119.712L304.954 117.658L305.159 116.563L307.213 115.262L309.473 114.235L315.087 113.14H317.141L319.606 114.303L329.397 113.414L331.451 112.455L334.258 109.374L335.011 107.32L334.327 103.896L331.588 100.199L330.355 97.734L328.37 95.406L328.507 84.246L330.494 81.791L334.716 86.355L337.341 87.611L339.737 88.295L341.335 90.35L343.275 94.115L344.872 94.914L344.758 92.29L345.443 84.986L355.827 92.062L358.908 93.431L363.815 94.344L367.353 94.458L372.944 95.371L376.732 95.143L380.612 93.773L384.15 93.202L388.372 91.719L391.909 91.263L394.191 91.719L395.219 92.632H396.36L397.044 91.376V89.323L398.071 87.725L398.766 85.382L405.612 86.66L406.89 88.668L407.438 90.403L409.172 91.225L410.45 90.585L412.002 88.942L413.463 88.76L415.563 89.125L417.297 90.585L417.206 92.137L414.559 96.227L414.193 97.779L412.732 99.331L411.272 100.062L411.637 102.8L413.189 105.356L416.11 107.364L419.123 109.008L421.861 109.556L425.878 111.655L428.252 111.29L429.165 108.917L430.26 108.46L431.265 109.738L432.542 110.742L434.643 111.107L436.65 112.933L437.654 115.307V120.602L438.294 122.519L436.468 123.066L433.82 122.61L429.713 119.506L428.252 119.871L427.248 121.058L426.974 122.792L428.16 123.979L427.795 126.262L426.608 126.992H424.326L421.314 125.623L420.036 123.706L417.845 122.61L415.837 122.701L414.284 124.162L413.372 125.623L410.45 128.087L406.799 128.817L405.338 127.266L403.969 126.9L400.773 124.801L397.305 122.975L394.383 122.792L391.736 123.34V125.623L392.558 127.448L394.109 129.183L395.57 131.556L395.388 133.564L394.566 135.482L393.47 136.76L392.375 137.308L390.601 139.154Z" fill="#CCCCCC" stroke="white" stroke-width="0.5"/>
<path d="M657.057 268.52L655.323 268.357L650.668 268.973L648.34 270.206L647.449 271.37L645.532 272.808L642.521 273.287L640.466 272.876L639.233 273.971L637.043 274.999L633.277 278.49L631.771 279.449L629.169 279.859L627.457 279.243H624.376L622.459 280.75L620.953 283.488L615.407 283.694L614.106 285.131L612.668 285.748L611.71 284.995L610.683 283.42L607.944 283.214L604.657 283.762L602.535 284.447L600.55 284.584L598.838 284.31L597.925 283.328L597.993 277.029L597.377 275.112L595.392 273.537L593.406 271.141L591.283 269.635L589.641 267.581L588.203 265.116L583.958 261.884L583.273 260.309L583.136 257.434L579.165 254.764L578.822 253.257L579.645 252.572L581.082 252.709L581.562 251.34L580.397 249.834L579.713 247.164L580.329 244.767L581.767 243.466L586.971 241.892L589.572 241.96L591.969 242.645L595.871 242.508L597.72 241.275L598.746 239.837L599.91 236.209L601.153 229.986H603.271L604.878 229.402L605.974 228.599L606.777 227.065L606.85 225.604L606.047 223.924L605.827 221.515L606.996 220.346L611.305 218.374L612.766 216.84L613.204 215.087L611.871 211.755L611.006 206.054L611.613 202.631L612.766 201.953L613.107 200.755L612.766 200.045L612.159 199.579L612.267 198.349L610.976 197.819L610.238 196.961L609.59 194.735L609.716 192.701L609.32 190.528L608.349 189.172L603.924 188.334L602.898 188.461L600.906 187.666L601.361 185.771L602.969 184.932L604.21 184.749L608.445 182.449L614.179 180.514L618.89 180.075L622.139 181.098L624.477 182.997L625.535 184.384L628.844 187.086L630.414 186.794L631.947 185.735L633.481 185.224L635.818 185.005L640.127 185.37L644.326 184.932L646.444 185.005L648.27 184.019L650.738 181.938L652.162 181.682L656.325 183.654L657.8 181.615L658.962 180.701L661.697 175.885L662.537 174.972L664.29 174.168L665.531 174.46L666.371 174.424L667.028 173.84L668.066 174.037L668.493 173.168L670.595 173.274L672.011 172.988L674.259 173.803L676.632 171.795L677.801 171.32L678.859 171.54L679.991 174.46L681.014 175.775L682.183 176.14L683.25 175.669L682.946 176.966L683.467 178.341L682.669 182.225L683.342 183.857L683.229 185.104L683.604 186.968L679.5 191.996L677.62 200.128L677.299 200.471L676.305 200.225L675.535 200.456L674.236 201.947L674.22 203.302L673.531 203.886L674.033 210.261L671.005 224.366L671.758 224.797L671.604 227.442L672.227 228.185L670.023 233.611L670.234 234.99L670.014 236.934L670.57 238.353L670.033 239.581L670.466 241.028L668.315 241.222L668.51 242.647L668.356 245.611L668.637 246.867L668.097 249.759L668.467 250.784L667.963 251.955L669.315 253.311L668.73 255.17L669.272 256.947L668.633 259.669L665.961 260.974L663.463 264.092L660.736 264.12L659.9 264.586L658.012 267.632L657.057 268.52Z" fill="#CCCCCC" stroke="white" stroke-width="0.5"/>
<path d="M395.702 48.163L397.454 48.667L404.172 49.471L406.363 52.246L408.555 53.488L407.313 56.482L407.824 58.965L410.526 59.477H412.498L416.223 59.257L418.998 58.454L421.116 58.308L426.155 59.403L430.025 60.718L431.778 59.623L433.823 59.769L435.503 60.353L435.795 62.032L434.919 63.347L431.413 65.027L429.66 64.734L427.762 63.201L425.717 62.179L424.694 61.959L422.431 63.493L420.751 65.611L417.61 68.605L414.251 69.847L411.402 70.504L405.56 73.425L403.077 75.178L401.763 76.785L401.324 78.172L401.47 79.852L401.251 81.532L398.766 85.382L398.071 87.725L397.044 89.323V91.376L396.36 92.632H395.219L394.191 91.719L391.909 91.263L388.372 91.719L384.15 93.202L380.612 93.773L376.732 95.143L372.944 95.371L367.353 94.458L363.815 94.344L358.908 93.431L355.827 92.062L345.443 84.986L344.758 92.29L344.872 94.914L343.275 94.115L341.335 90.35L339.737 88.295L337.341 87.611L334.716 86.355L330.494 81.791L328.507 84.246L324.084 88.258L320.578 92.787L316.927 96.803L315.174 97.826L312.034 97.022L308.382 93.079L307.359 89.281L308.236 87.017L309.696 85.045L311.011 82.197L310.865 79.714L309.55 77.742L308.747 72.922L306.921 71.023L305.534 69.051L305.46 66.422L306.045 64.231L306.848 62.843L308.017 62.332L308.236 61.31L306.775 59.63L303.343 58.987L300.202 57.6L298.23 56.358L296.989 54.824V52.122L296.478 50.442L294.068 49.566L287.568 50.735L284.209 50.589L280.411 52.049L279.461 54.313L276.978 54.386L272.742 51.83L272.815 50.15L279.169 37.662L280.191 34.156L281.652 31.819L281.725 29.848L279.973 28.241L278.658 27.803L276.613 28.168L275.006 28.022L269.412 26.05L268.17 25.247L267.148 24.151L265.322 23.494L263.088 23.359L264.207 21.77L264.865 19.817L265.993 18.515L267.154 18.066L269.702 18.006L271.193 15.528L275.709 12.997L277.418 11.152L278.439 10.811L280.177 11.1L281.42 10.996L282.192 10.453L283.24 10.209L285.051 10.754L288.675 10.698L291.714 11.889L293.621 12.213L294.506 12.948L295.488 15.138L297.074 16.575L298.071 16.86L299.251 16.598L301.255 17.099L303.876 19.377L306.359 20.545L307.875 22.405L311.12 24.399L312.151 24.473L313.513 25.321L315.101 27.49L317.748 30.059L318.052 31.141L317.63 33.213L318.078 34.823L318.689 35.49L319.872 35.846L320.803 37.136L321.658 37.317L323.62 38.629L328.303 37.956L329.423 38.25L330.85 38.227L333.576 37.008L334.317 37.322L337.579 37.687L339.679 38.683L341.636 39.053L342.626 39.895L343.31 41.205L345.481 42.499L346.106 42.418L346.858 43.084L347.843 42.763L348.366 41.467L349.581 41.136L351.586 42.819L355.176 44.092L356.743 43.778L357.766 44.198L360.436 44.602L363.731 42.239L364.11 42.237L364.737 42.755L366.956 42.44L368.386 43.73L369.646 43.734L371.746 44.882L374.671 45.163L375.597 45.504L376.467 45L377.409 44.926L378.354 45.584L380.812 45.964L382.012 46.727L383.442 48.167L385.566 49.228L387.382 49.689L390.218 49.717L392.877 49.261L394.25 49.302L395.702 48.163Z" fill="#CCCCCC" stroke="white" stroke-width="0.5"/>
<path d="M657.057 268.52L656.207 269.309L655.404 271.822L653.768 273.604L651.382 277.324L650.869 278.633L650.994 280.25L652.783 286.772L652.488 288.765L649.384 293.811L648.297 294.258L646.373 294.211L644.443 297.419L642.777 297.325L641.887 297.673L641.039 299.115L640.896 299.98L641.144 300.879L641.821 301.559L640.513 303.349L641.979 304.939L642.283 307.452L642.007 308.455L644.64 310L645.941 310.196L646.641 310.755L647.302 312.091L646.072 313.033L646.241 314.298L647.189 314.69L647.938 314.428L649.581 316.571L649.425 317.535L649.727 318.27L650.948 318.632L652.455 319.764L652.457 321.167L653.81 322.18L655.075 322.274L655.966 323.9L656.021 325.694L655.481 326.018L654.787 327.366L654.546 328.861L654.687 330.213L655.219 331.577L653.997 332.393L653.729 333.098L653.852 335.137L654.951 339.96L655.281 342.736L655.44 345.846L654.916 351.518L655.406 354.761L656.159 357.334L656.931 358.507L658.573 359.988L659.372 361.109L660.137 363.354L660.562 366.255L661.157 378.863L660.854 380.217L658.903 384.452L658.579 386.271L658.961 392.192L660.698 399.104L638.405 399.024L637.123 396.78L635.754 392.9L630.391 384.114L628.679 380.805L628.108 377.724L626.511 375.898L622.973 372.703L621.604 370.649L617.838 367.682L616.811 365.172L615.1 364.943L613.388 368.823L608.366 367.111L607.796 364.943L602.091 364.259L600.835 362.661L600.379 360.949L597.868 360.379L592.276 360.722L589.31 359.809L587.027 359.694L584.518 358.781L582.349 357.526L575.959 355.7L573.448 353.418L572.535 349.767L574.133 339.382L573.105 337.1L572.649 334.247L574.605 332.364L573.578 329.968L573.646 327.982L573.03 324.97L571.182 319.972L569.813 319.561L568.375 318.466L567.484 315.727L566.252 313.398L566.567 311.619L566.361 309.496L564.787 307.168L564.103 303.54L563.075 300.869L562.186 299.555L562.254 297.227L563.007 296.542L563.828 294.967L564.513 289.969L565.54 289.079L567.32 288.668L569.101 288.737L570.195 289.216L571.428 290.791L572.523 291.476L579.097 293.53L580.329 292.776L583.136 290.175L584.711 289.353L587.039 287.504V285.93L586.423 284.834L584.437 284.423L583.82 283.396L584.711 282.575L587.449 282.644L591.831 283.602L597.925 283.328L598.838 284.31L600.55 284.584L602.535 284.447L604.657 283.762L607.944 283.214L610.683 283.42L611.71 284.995L612.668 285.748L614.106 285.131L615.407 283.694L620.953 283.488L622.459 280.75L624.376 279.243H627.457L629.169 279.859L631.771 279.449L633.277 278.49L637.043 274.999L639.233 273.971L640.466 272.876L642.521 273.287L645.532 272.808L647.449 271.37L648.34 270.206L650.668 268.973L655.323 268.357L657.057 268.52Z" fill="#CCCCCC" stroke="white" stroke-width="0.5"/>
<path d="M469.778 272.217L471.866 273.773L473.162 277.713L475.934 281.061L477.087 283.191L477.447 285.009L478.542 286.447L480.117 290.076L480.46 292.116L480.186 295.403L481.897 297.388L484.294 298.073L487.991 297.73L491.141 297.936L493.399 299.647L493.605 303.14L492.646 304.262L495.878 307.604L496.7 311.603L496.645 313.957L495.878 316.313L494.235 319.052L493.469 322.229L493.51 323.86L493.099 325.983L493.235 328.311L491.593 332.146L489.333 334.815L487.689 337.417L485.088 339.061L483.992 342.552L484.472 347.413L483.239 349.398L482.623 351.521L489.949 361.038L491.523 363.435L493.167 368.474L492.277 373.746L492.209 376.348L491.387 378.607L488.785 382.099L486.868 383.879L488.032 387.303L491.318 391.137L491.88 392.549L487.088 392.891L486.403 393.575V395.857L482.523 396.999L476.133 400.993L475.79 403.047L474.878 404.074L474.421 405.899L475.22 407.611L475.562 410.122L474.764 412.632L473.508 413.659L472.024 413.545L470.427 411.947L469.515 413.089L468.145 414.002L464.607 414.458L461.982 413.203H459.13L456.277 414.115L455.364 416.056L456.049 418.794L457.305 422.104L460.499 423.93L460.842 425.869L460.613 427.923L459.587 429.179L456.848 429.406L454.337 429.978L451.599 428.95L448.518 429.064L446.578 427.923L444.296 427.353L442.812 428.266L438.704 427.011L443.083 420.429L444.179 417.6L443.175 413.856L441.896 411.939L440.07 411.392L434.685 411.209L431.033 408.652L428.934 408.562L426.012 409.109L424.187 410.113L421.995 410.022L420.809 408.835L419.805 406.918L416.609 403.084L413.962 401.258L412.501 399.523L412.228 398.337L413.687 397.333L414.145 396.146L413.597 395.324L413.87 394.503L419.895 391.855L422.36 390.395L422.178 387.564L419.53 381.083L418.344 380.262L415.97 379.987L413.323 380.353L411.132 380.262L406.933 375.788L404.924 372.958L402.916 371.133L397.719 368.015L391.762 364.112L390.803 362.332L389.297 360.895L387.654 360.21L385.668 360.278L383.82 361.031L381.629 360.621L380.054 359.73L378.479 359.457L376.904 358.772L376.562 357.677L381.081 354.459L382.313 352.952L383.135 347.845L382.656 345.243L381.355 343.805L379.643 343.6L378.137 344.216L375.946 344.489L374.645 343.257L374.508 340.724L376.699 336.753L378.548 332.097L379.917 330.454L381.013 327.921L381.286 324.292L382.519 322.307L384.162 320.731L384.778 319.226L383.683 317.719L381.56 315.87L377.315 309.503L376.63 307.874L372.454 305.066L371.016 303.423L373.311 302.063L377.109 297.023L378.423 295.855L379.884 295.198L380.833 296.439L381.637 298.85L382.513 300.091L383.462 300.821L385.069 300.602L385.799 299.068L385.435 294.613L382.951 285.192L382.732 280.226L383.462 277.816L384.485 276.429L387.041 276.721L389.743 277.597L391.642 279.058L394.49 279.861L396.316 279.423L397.704 278.181L398.945 274.457L399.895 274.092L400.844 275.552L404.642 276.867L406.248 278.181L412.237 278.912L418.737 280.299L421.146 281.395L424.726 285.266L426.551 286.069L429.911 284.024L434.293 284.389L436.279 283.878L437.812 282.052L437.959 278.035L437.667 276.501L438.543 275.625L441.026 276.501L443.217 275.771L444.604 274.53L446.504 273.799L450.958 273.361L452.857 272.266L455.048 272.12L459.723 272.85H468.413L469.778 272.217Z" fill="#CCCCCC" stroke="white" stroke-width="0.5"/>
<path d="M296.722 129.832L285.155 129.594L280.828 128.991L273.05 125.979L269.161 125.157L265.984 125.267L264.067 126.088L258.48 129.703L251.962 132.277L251.349 133.055L249.541 133.22L247.35 131.96L245.98 130.81L244.009 130.372L226.749 130.292L226.023 129.445L226.927 127.058L227.148 121.381L227.587 120.297L229.421 118.851L230.632 117.304L230.827 116.354L231.48 115.593L232.23 113.663L232.8 111.119L236.528 107.61L236.706 106.712L238.66 103.358L238.917 102.477L239.668 101.75L240.145 100.771L240.625 99.071L240.397 96.778L241.485 93.886L243.369 91.752L243.978 89.603L245.977 88.559L246.614 87.913L247.543 86.218L248.164 84.304L247.895 82.336L248.475 79.658L247.809 77.533L248.091 75.147L247.269 71.906L246.978 68.115L246.229 65.392L246.066 63.571L246.475 61.597L246.626 58.048L247.944 56.393L248.568 54.909L248.437 51.141L247.268 47.688L244.672 43.004L244.603 41.965L245.723 40.901L246.821 40.381L247.995 40.805L251.059 40.44L253.241 38.849L254.028 37.883L254.67 36.434L255.464 32.702L257.485 30.564L258.312 28.964L259.314 28.579L259.906 27.429L262.297 25.237L263.086 23.359L265.32 23.494L267.146 24.151L268.168 25.247L269.41 26.05L275.004 28.022L276.611 28.168L278.656 27.803L279.971 28.241L281.723 29.848L281.65 31.819L280.189 34.156L279.167 37.662L272.813 50.15L272.74 51.83L276.976 54.386L279.459 54.313L280.409 52.049L284.207 50.589L287.566 50.735L294.066 49.566L296.476 50.442L296.987 52.122V54.824L298.228 56.358L300.2 57.6L303.341 58.987L306.773 59.63L308.234 61.31L308.015 62.332L306.846 62.843L306.043 64.231L305.458 66.422L305.532 69.051L306.919 71.023L308.745 72.922L309.548 77.742L310.863 79.714L311.009 82.197L309.694 85.045L308.234 87.017L307.357 89.281L308.38 93.079L312.032 97.022L315.172 97.826L316.925 96.803L320.576 92.787L324.082 88.258L328.505 84.246L328.368 95.406L330.353 97.734L331.586 100.199L334.325 103.896L335.009 107.32L334.256 109.374L331.449 112.455L329.395 113.414L319.604 114.303L317.139 113.14H315.085L309.471 114.235L307.211 115.262L305.157 116.563L304.952 117.658L303.103 119.712L301.392 122.383L299.94 123.875L299.05 125.587L298.708 127.915L296.722 129.832Z" fill="#CCCCCC" stroke="white" stroke-width="0.5"/>
<path d="M660.698 399.104L662.859 405.562L666.359 413.702L668.12 419.095L669.007 423.257L669.34 427.245L669.064 430.588L668.22 434.706L668.263 441.764L668.861 445.812L671.172 451.999L674.689 457.377L676.418 459.508L680.82 463.327L687.688 468.232L691.479 472.238L693.584 475.371L698.205 484.063L700.662 490.617L705.169 499.975L709.448 512.274L710.53 513.02L712.792 517.25L713.472 520.138L714.159 521.665L689.157 525.048L684.421 525.207L668.279 527.546L666.458 525.055L667.115 524.047L667.991 521.309L667.882 519.172L668.648 518.132L670.292 517.2L671.168 516.27L671.661 514.188L671.224 512.216L669.307 509.915L669.196 508.601L668.43 507.67L667.159 507.45L665.68 508.218L664.42 507.122L663.599 505.424L662.12 503.945L659.49 504.438L657.848 503.836L656.095 504L655.054 505.205L651.604 504.657L650.344 505.917L650.398 507.67L649.576 509.039L647.604 509.148L645.194 508.82L643.771 508.108L642.401 507.834L640.539 512.38L639.17 512.873L637.745 512.436L635.719 511.23L633.527 509.423L633.275 507.45L632.345 505.972L631.742 504.219L631.414 501.535L630.701 500.494L628.894 499.837H627.086L625.225 500.604L624.786 502.772L622.431 503.649L622.157 505.566L625.937 507.977L627.579 509.675L627.524 512.413L624.566 516.904L624.731 518.712L623.745 520.958L620.295 523.696L618.158 524.299H615.968L614.16 525.34L612.462 526.818L610.6 527.476L609.613 528.735L607.729 527.695L607.072 525.668L605.758 523.642L603.73 523.916L602.197 523.313L601.047 521.451L599.075 520.849L597.651 519.753L596.501 519.479L598.1 516.881L599.634 515.785L600.875 514.032L601.752 510.527L601.095 508.556L600.145 508.117L598.246 508.993L596.493 508.774L594.887 508.044L593.791 505.561L593.572 503.078L594.303 501.764V500.156L593.28 497.893L590.65 494.241L588.679 494.387L587.438 495.264L585.466 494.533L582.472 495.994L581.011 495.921L579.111 494.314L578.017 495.117L577.797 497.966L577.067 498.988L574.876 499.499L566.843 499.864L563.264 499.572L560.927 496.797L556.253 495.848L553.77 493.803L548.365 491.539L546.394 489.786L545.006 487.96L544.933 485.623L545.81 483.359L548.556 480.993L549.358 479.679L549.285 478.071L547.313 477.195L542.274 476.611L540.449 476.027L539.28 474.347L535.774 473.617L533.438 471.207L532.707 469.308L533.949 468.285L533.219 465.438L532.196 464.123L531.758 462.005L528.398 460.398L528.18 457.696L528.982 455.066L533.364 451.868L535.045 449.823L535.409 448.144L536.286 446.244L537.966 444.419L539.062 439.452L538.988 436.678L537.893 430.98L537.746 428.133L535.921 426.818L535.19 424.7L535.556 422.729L536.87 421.049L536.797 419.369L535.774 416.302L535.629 413.789L536.066 410.576L537.089 407.946L538.185 403.419L539.134 401.666L540.376 400.132L540.668 398.672L660.698 399.104Z" fill="#CCCCCC" stroke="white" stroke-width="0.5"/>
<path d="M608.446 182.449L604.211 184.749L602.97 184.932L601.362 185.771L600.907 187.666L602.899 188.461L603.925 188.334L608.35 189.172L609.321 190.528L609.717 192.701L609.591 194.735L610.239 196.961L610.977 197.819L612.268 198.349L612.16 199.579L612.767 200.045L613.108 200.755L612.767 201.953L611.614 202.631L611.007 206.054L611.872 211.755L613.205 215.087L612.767 216.84L611.306 218.374L606.997 220.346L605.828 221.515L606.048 223.924L606.851 225.604L606.778 227.065L605.975 228.599L604.879 229.402L603.272 229.986H601.154L598.998 229.46L597.221 229.859L594.664 229.275L590.355 227.742L588.821 227.596L588.019 227.011L587.417 225.066L586.503 225.172L584.955 225.978L583.526 225.957L582.969 225.724L582.231 224.653L581.421 224.124L580.208 223.763L576.079 223.317L574.263 222.533L573.547 221.378L571.969 220.361L571.573 219.704L571.715 218.898L571.212 218.294L569.838 217.595L569.077 216.779L567.18 216.599L565.708 215.401L564.79 215.603L563.081 214.426L562.581 214.977L563.051 216.101L562.602 216.705L560.812 216.46L558.237 218.273L555.261 218.686L554.259 219.789L552.607 220.753L548.678 220.965L547.567 219.969L546.972 218.22L545.574 217.775L544.603 216.917L544.23 216.207L543.623 216.333L542.705 214.14L537.194 208.54L534.639 207.079L532.739 207.152L531.717 208.612L532.813 213.213L536.829 217.522L536.683 219.348L535.515 221.393L536.245 222.927L537.998 223.73L540.772 225.775L541.065 227.382L539.823 231.325L539.751 232.859L539.678 236.583L540.48 238.994L540.335 240.965L536.998 243.137L534.711 243.741L533.47 245.055V246.735L533.981 248.415L534.857 249.948L532.813 254.549L533.733 257.256L533.464 258.973L531.674 259.843L531.62 260.309L532.204 261.592L531.578 262.27L531.386 263.235L530.733 263.711L528.226 263.447L528.279 262.715L527.096 262.037L526.647 261.146L525.333 259.839L525.283 263.267L525.015 264.571L525.44 267.051V269.065L524.726 272.055L524.568 276L523.597 277.77L521.355 277.623L519.275 278.534L518.231 278.396L514.064 281.056L511.599 281.878L507.627 286.534L504.273 286.615L500.233 285.712L500.37 284.343L499.274 282.974L497.357 282.426L495.004 282.921L490.399 282.734L477.162 283.191L476.009 281.061L473.236 277.713L471.868 273.773L469.78 272.217L469.46 269.648L469.751 262.296L468.245 259.147L466.876 257.915L456.88 256.956L454.718 258.146L453.171 259.51L451.346 259.145L449.52 257.502L445.868 253.12L443.494 251.111L441.577 250.929L440.756 250.016L440.847 249.103L441.486 248.464L441.133 246.613L435.748 243.989L434.64 244.173L433.088 243.352L429.893 241.252L427.428 238.787L426.697 236.322L427.701 234.679L429.893 232.123L432.175 231.849L435.735 230.389L435.826 228.928L434.913 227.924L433.271 226.92L432.713 223.493L425.9 225.691L424.898 225.332L424.321 223.423L422.863 221.442L420.764 220.438H414.282L416.29 218.795L418.024 217.791L420.969 217.351L426.605 217.426L428.158 216.239L428.797 214.322L428.249 212.679L426.88 210.761L422.224 206.927L418.664 204.462L417.568 201.358L414.1 196.337L413.277 194.42L413.46 193.143L414.464 192.54L414.792 191.468L413.472 188.546L413.053 186.426L413.076 185.017L412.266 183.607L410.651 181.827L409.896 180.227L410.11 176.199L408.478 172.596L408.84 171.97L408.316 171.005L408.582 169.691L408.444 168.78L406.973 166.84L406.865 165.695L406.703 165.325L406.162 165.091L405.125 162.219L403.973 160.47L403.024 159.579L402.79 158.318L402.16 157.64L402.106 156.495L401.127 154.841L400.102 154.586L399.525 153.59L398.842 153.251L398 152.233L395.919 150.897L394.466 150.611L393.818 149.954L391.629 149.688L391.148 149.381L390.392 149.636L389.604 149.381L388.152 149.435L388.593 145.909L388.501 143.444L389.141 141.893L390.51 141.071L390.601 139.154L392.375 137.308L393.47 136.76L394.566 135.482L395.388 133.564L395.57 131.556L394.109 129.183L392.558 127.448L391.736 125.623V123.34L394.383 122.792L397.305 122.975L400.773 124.801L403.969 126.9L405.338 127.266L406.799 128.817L410.45 128.087L413.372 125.623L414.284 124.162L415.837 122.701L417.845 122.61L420.036 123.706L421.314 125.623L424.326 126.992H426.608L427.795 126.262L428.16 123.979L426.974 122.792L427.248 121.058L428.252 119.871L429.713 119.506L433.82 122.61L436.468 123.066L438.294 122.519L439.446 122.923L441.546 123.105L444.193 124.931L450.311 126.757L452.775 126.939L454.327 125.662L455.97 125.114L456.792 124.109L456.883 122.923L457.888 122.192L466.651 120.001L468.203 120.458L473.498 119.728L490.222 120.641L493.052 120.367L495.882 121.371L497.434 121.006L500.173 118.541L502.09 118.724L507.11 121.097L508.571 122.192L512.04 123.562L515.418 123.744L518.065 123.288L519.526 122.01L521.991 120.915L524.639 120.732L526.464 121.188L528.198 122.284L529.934 121.279L530.846 120.001L533.493 119.454L536.689 117.902L538.788 117.628L541.162 115.894L543.17 116.167L543.718 119.545L543.079 125.935L544.631 127.761L546.73 127.944L548.557 126.209L549.469 126.848L549.926 128.309L551.368 128.674L553.833 127.579L554.654 126.392V125.296L556.206 125.205L557.575 123.927L559.584 123.379L560.953 124.383L565.152 124.749L566.248 125.844L566.888 128.583L568.439 132.052L570.722 132.6L573.277 133.969L575.925 134.151L577.386 133.786L577.934 132.508V130.043L578.39 129.13L579.941 128.948L581.768 129.404L583.229 130.135L584.05 131.778L584.506 133.604L582.406 135.247L582.315 136.068L583.319 136.981V138.187L582.681 139.19L581.493 140.012L580.764 142.568L579.759 143.938H578.299L577.659 144.851L577.842 146.22L584.78 146.311L585.784 147.224L587.336 149.506L588.249 151.606L591.079 155.531L594.365 155.349L595.917 155.531L597.378 155.988L598.564 157.175L598.93 158.818L597.743 165.482L599.295 166.212L604.407 166.669L603.769 170.594L604.864 171.507L606.781 171.416L606.599 173.333L605.32 174.885V176.893L606.051 179.175L607.055 181.093L608.446 182.449Z" fill="#CCCCCC" stroke="white" stroke-width="0.5"/>
<path d="M390.601 139.154L390.51 141.071L389.141 141.893L388.501 143.444L388.593 145.909L388.152 149.435L389.604 149.381L390.392 149.636L391.148 149.381L391.629 149.688L393.818 149.954L394.466 150.611L395.919 150.897L398 152.233L398.842 153.251L399.525 153.59L400.102 154.586L401.127 154.841L402.106 156.495L402.16 157.64L402.79 158.318L403.024 159.579L403.973 160.47L405.125 162.219L406.162 165.091L406.703 165.325L406.865 165.695L406.973 166.84L408.444 168.78L408.582 169.691L408.316 171.005L408.84 171.97L408.478 172.596L410.11 176.199L409.896 180.227L410.651 181.827L412.266 183.607L413.076 185.017L413.053 186.426L413.472 188.546L414.792 191.468L414.464 192.54L413.46 193.143L413.277 194.42L414.1 196.337L417.568 201.358L418.664 204.462L422.224 206.927L426.88 210.761L428.249 212.679L428.797 214.322L428.158 216.239L426.605 217.426L420.969 217.351L418.024 217.791L416.29 218.795L414.282 220.438H420.764L422.863 221.442L424.321 223.423L424.898 225.332L425.9 225.691L432.713 223.493L433.271 226.92L434.913 227.924L435.826 228.928L435.735 230.389L432.175 231.849L429.893 232.123L427.701 234.679L426.697 236.322L427.428 238.787L429.893 241.252L433.088 243.352L434.64 244.173L435.748 243.989L441.133 246.613L441.486 248.464L440.847 249.103L440.756 250.016L441.577 250.929L443.494 251.111L445.868 253.12L449.52 257.502L451.346 259.145L453.171 259.51L454.718 258.146L456.88 256.956L466.876 257.915L468.245 259.147L469.751 262.296L469.46 269.648L469.78 272.217L468.415 272.85H459.725L455.05 272.12L452.859 272.266L450.96 273.361L446.506 273.799L444.606 274.53L443.219 275.771L441.028 276.501L438.545 275.625L437.669 276.501L437.961 278.035L437.814 282.052L436.281 283.878L434.295 284.389L429.913 284.024L426.553 286.069L424.728 285.266L421.148 281.395L418.739 280.299L412.239 278.912L406.25 278.181L404.644 276.867L400.846 275.552L399.897 274.092L398.947 274.457L397.706 278.181L396.318 279.423L394.492 279.861L391.644 279.058L389.745 277.597L387.043 276.721L384.487 276.429L383.464 277.816L382.734 280.226L382.953 285.192L385.437 294.613L385.801 299.068L385.071 300.602L383.464 300.821L382.515 300.091L381.639 298.85L380.835 296.439L379.886 295.198L378.425 295.855L377.111 297.023L373.313 302.063L371.018 303.423L369.456 303.427L366.772 302.058L355.475 295.416L354.584 295.553L354.653 301.236L353.831 301.646L351.846 301.784L346.848 302.879L343.013 302.948L340.891 302.742L339.658 301.715L339.817 299.441L335.093 292.184L331.807 288.966L327.151 282.872H325.166L323.249 284.242L321.468 284.721L318.456 286.843L316.06 287.665L309.624 283.762L304.762 280.065L299.08 279.244L296.751 277.874L294.492 271.233L290.932 267.262L289.768 267.741L288.878 269.316L287.919 272.26L285.044 275.272L283.538 276.163L281.757 275.272L281.689 272.26L280.388 265.413L278.512 260.47L280.552 257.469L282.333 253.977L283.907 252.813L284.797 251.307L285.071 244.802L286.098 243.638L287.741 244.392L288.357 245.555L288.221 249.595L289.042 250.827L290.48 251.512L292.876 251.375L303.01 248.089L305.064 246.788L306.228 245.008L305.954 242.954L306.775 240.899L308.418 238.435L309.514 236.175L310.267 234.121L310.335 231.52L305.68 226.384L303.078 220.031L301.846 218.661L298.833 216.265L298.148 215.101L296.848 213.8L294.793 213.663L293.903 212.568L294.793 210.993L296.505 210.514L297.601 210.719L298.354 211.404L299.929 210.993L300.818 211.335L302.188 212.842L303.626 212.5L304.173 211.335L306.638 210.925L308.35 211.472L309.035 212.431L308.624 213.663L308.898 215.786L310.267 217.018L312.526 216.539L313.554 215.512V213.458L314.786 211.404L316.635 210.103L320.743 209.35L321.975 208.391L322.523 206.954L321.975 206.2H318.552L318.209 204.625L319.236 203.735L321.427 203.051L322.317 201.955L321.77 200.38L319.51 199.148L316.908 196.546L313.69 194.287L312.047 192.165L311.91 191.028L312.458 189.316L313.348 188.152L314.238 186.03L314.375 184.25L316.703 181.1L317.251 178.841L316.019 175.28L316.361 171.926L317.182 168.365L317.456 165.147L320.948 159.67L321.77 159.054L326.905 160.971L331.469 161.291L334.208 161.976L336.833 160.835L338.658 161.063L339.685 162.661L339.799 164.144L338.658 168.708L340.142 170.763L341.967 171.447L345.505 171.79L349.271 173.958L352.58 174.985L358.057 177.837L361.823 178.864L363.877 177.952L364.448 173.364L365.018 172.337L366.159 171.995L367.757 172.565L369.126 173.707L371.066 173.592L373.006 172.565L374.147 171.082L377.799 170.055L380.309 170.968L381.679 169.827L380.195 166.518L378.711 165.034L376.658 164.121L375.06 162.752L374.261 161.04L374.147 159.214L373.69 157.503L372.778 156.361L371.865 148.146L371.751 143.923L373.12 141.07L375.288 139.929L379.282 139.017L390.601 139.154Z" fill="#CCCCCC" stroke="white" stroke-width="0.5"/>
</svg>
