<svg width="614" height="600" viewBox="0 0 614 600" fill="none" xmlns="http://www.w3.org/2000/svg">
<path d="M286.92 71.84L287.61 74.8L288.93 75.66L289.27 78.56L291.08 80.07L295.23 77.95L297.35 79.88L297.95 78.9L299.34 79.25L302.15 81.87L304.35 81.13L305.91 82.31L306.29 84.35L308.5 85.4L308.99 89.78L312.51 87.7L313.35 89.1L316.35 88.71L321.87 94.44L323.32 93.37L325.6 94.81L328.05 94.28L328.75 93.22L332.59 94.13L332.39 99.06L333.21 101.91L331.45 105.86L332.02 108.1L330.13 106.68L327.41 107.45L326.81 105.75L326.11 107.7L322.62 109.4L323.03 113.25L320.18 111.59L312.89 112.3L313.67 114.33L312.3 115.59L314.45 117.23L312.66 119.29L312.46 122.15L314.68 122.8L316.5 125.2L319.65 125.26L321.01 126.48L321.18 128.93L322.69 128.31L324.99 131.34H325.07L322.26 138.08L317.47 139.24L312.86 143.5L311.29 146.77L310.12 146.95L308.31 143.04L306.5 141.87L304.05 141.81L303.17 138.66L301.71 137.26L297.28 138.37V135.98L296.28 134.69L291.74 136.9L290.52 138.97L290.01 138.05L289.01 138.16L287.64 139.5L287.92 140.46L285.77 141.98L284.75 140.64L282.27 141.12L275.05 136.31L269.67 141.84L270.35 143.92L267.31 146.46L271.24 150.41L271.68 155L270.57 156.28L271.2 161.05L269.26 161.8L268.63 163.17L264.87 158.09L262.4 157.38L259.16 160.05L253.63 159.72L253.39 159.69L251.91 157.85L252.77 155.94L252.46 153.68L250.51 151.33L247.24 151.51L247 149.07L244 148.79L241.28 152.23L239.28 152.75L238.37 150.35L237.08 150.54L234.21 146.72L235.13 144.79L234.66 141.4L232.59 143.14L229.63 141.12L226.34 141.34L220.99 138L212.49 145.07L211.63 143.53L212.96 140.43L210.86 141.31L209.91 140.38L211.02 137.48L210.47 135.64L206.24 132.57L204.87 132.46L204.67 130.13L203.05 127.8L199.66 127.41L198.03 123.53L194.17 121L191.9 120.69L191.81 119.49L193.01 118.35L192.92 115.57L196.69 114.39L199.69 112.23L206.11 111.85L205.34 108.66L207.95 106.83L209.1 108.26L211.53 108.04L212.94 104.35L215.14 105.82L216.42 103.78L222.23 106.77L223.64 108.65L226.05 105.57L230.14 105.02L230.23 104.12L228.05 102.4L228.74 101.44L227.57 96.37L230.39 93.46L230.44 86.34L232.05 87.08L236.01 86.28L236.84 87.51L238.21 84.23L241.66 84.19L250.55 88.61L254.9 92.69L255.22 96.01L243.58 103.66L241.84 107L243.62 113.01L241.53 115.59L246.95 119.17L246.23 122.18L244.45 123.56L243.21 121.81L240.56 121.92L239.54 120.38L238.05 121.35L236.44 124.59L237.3 128.4L241.88 131.25L246.53 132.79L250.25 136.46L249.89 139.76H253.63L255.73 138.02L259.29 130.45L260.2 124.51L262.67 124.06L263.85 119.95L269.33 117.12L271.25 114.39L274.48 113.27L275.72 112.02L275.56 110.96L281.1 112.54L281.61 107.63L284.68 106.04L281.51 98.71L278.99 97.55L278.09 93.94L278.82 91.64L276.5 86.84L275.99 85.63L276.63 83.76L279.95 81.31L279.45 79.49L282.91 78.91L281.01 74.26L283.24 74.48L286.92 71.84Z" fill="#CCCCCC" stroke="white" stroke-width="0.5"/>
<path d="M246.47 41.24L247.56 42.82L247.95 47.5L252.66 49.07L253.9 50.17L254.21 51.96L258.4 52.92L259.72 54.15L262.72 54.21L269.54 52.74L271.66 52.96L272.5 54.99L275.82 55.12L277.85 52.13L281.27 50.86L282.14 51.89L280.81 53.39L286.31 53.96L284.59 56.31L286.83 59.19L285.59 67.99L286.92 71.84L283.24 74.48L281.01 74.26L282.91 78.91L279.45 79.49L279.95 81.31L276.63 83.76L275.99 85.63L276.5 86.84L272.52 86.75L271.82 88.65L268.32 89.01L265.24 91.47L255.22 96.01L254.9 92.69L250.55 88.61L241.66 84.19L238.21 84.23L236.84 87.51L236.01 86.28L232.05 87.08L230.44 86.34L229.74 81.87L230.85 81.31L230.93 79.86L231.41 79L231.26 76.76L232.89 75.39L231.14 73.15L226.63 70.93L225.39 71.5L225.27 69.96L224.17 69.01L222.59 69.52L221.49 68.79L221.74 67.51L220.66 67.11L219.75 64.82L220.49 61.68L218.98 60.32L220.76 59.29L219.75 57.7L223.97 54.03L224.24 51.56L223.54 50.99L224.33 49.59L227.55 48.01L232.41 48.76L232.6 49.73L234.81 48.95L234.79 50.56L236.49 50.75L238.54 49.67L240.02 46.39L239.17 43.77L242.44 43.37L243.3 42.21L245.08 42.33L246.47 41.24Z" fill="#CCCCCC" stroke="white" stroke-width="0.5"/>
<path d="M243.96 196.18L240.94 194.53L239.4 192.06L240.52 188.19L242.63 186.72L238.48 178.41L239.04 176.02L243.48 174.26L244.64 172.95L243.46 166.49L245.12 162.36L243.24 161.43L245.17 159.13L246.5 157.86L249.11 157.51L252.56 160.6L253.39 159.69L253.63 159.72L259.16 160.05L262.4 157.38L264.87 158.09L268.63 163.17L269.26 161.8L271.2 161.05L270.57 156.28L271.68 155L271.24 150.41L267.31 146.46L270.35 143.92L269.67 141.84L275.05 136.31L282.27 141.12L284.75 140.64L285.77 141.98L287.92 140.46L287.64 139.5L289.01 138.16L290.01 138.05L290.52 138.97L291.74 136.9L296.28 134.69L297.28 135.98V138.37L301.71 137.26L303.17 138.66L304.05 141.81L306.5 141.87L308.31 143.04L310.12 146.95L311.29 146.77L312.86 143.5L317.47 139.24L322.26 138.08L325.07 131.34L325.25 131.35L329.04 130.63L329.66 132.74L331.8 133.07L333.21 132.73L335.11 133.95L336.72 137.21L338.82 138.11L340.54 138.25L341.87 137.1L343.34 137.73L343.87 142.4L345.25 145.41L349.3 148.03L350.87 151.45L349.44 153.96L347.21 153.35L346.55 154.41L349.04 156.63L350.72 155.69L350.87 157.07L354.33 158.34L355.02 160.49L357.14 159.8L357.61 158.41L359.84 162.14L363.94 162.09L365.98 163.75L367.36 167.99L368.17 167.93L368.01 166.46L369.63 166.24L369.36 164.08L370.77 164.34L371.49 166.61L370.12 167.47L369.55 170.49L376.2 173.51L377.86 175.2L378.38 177.65L382.8 176.93L382.35 178.97L383.36 180.34L382.13 182.54L382.77 185.03L380.73 185.94L376.32 191.4L372.16 193.07L371.31 195.4L375.7 198.87L379.1 205.44L369.3 199.72L367.78 196.22L366.18 197.7L365.03 197.65L366.21 194.65L364.62 194.31L364.51 196.08L363.37 196.77L362.44 195.69L362.39 193.54L361.03 192.51L360.27 193.55L361.53 194.43L361.62 195.84L359.96 195.26L357.97 196.03L357.61 193.48L359.38 191.62L357.24 188.8L355.87 189.3L355.06 192L352.77 193.26L351.62 195.29L350.56 194.69L349.48 195.85L348.38 196.8L347.08 197.7L347.98 200.76L345.51 202.22L336.33 198.97L332.55 200.52L327.42 198.74L322.87 195.59L317.91 196.92L315.67 196.04L311.55 198.65L309.72 202.6L309.73 205.92L308.46 208.55L301.59 212.81L302.42 216L300.84 217.94L300.3 221.74L299.38 221.77L297.63 224.67L297.35 228.83L292.74 229.35L288.51 228.92L287.81 227.56L284.15 227.76L283.32 224.96L281.21 223.9L275.88 217.81L269.06 214.58L268.5 210.68L266.96 208.79L266.86 206.92L265.44 206.76L264.78 203.76L261.57 203.51L262.95 201.19L262.21 198.69L259.78 198.15L257.51 196.38L253.7 199.25L252.54 197.81L252.4 195.26L251.62 196.06L249.3 195.63L249.45 197.18L243.96 196.18Z" fill="#CCCCCC" stroke="white" stroke-width="0.5"/>
<path d="M192.92 115.57L193.01 118.35L191.81 119.49L191.9 120.69L194.17 121L198.03 123.53L199.66 127.41L203.05 127.8L204.67 130.13L204.87 132.46L206.24 132.57L210.47 135.64L211.02 137.48L209.91 140.38L210.86 141.31L212.96 140.43L211.63 143.53L212.49 145.07L220.99 138L226.34 141.34L229.63 141.12L232.59 143.14L234.66 141.4L235.13 144.79L234.21 146.72L237.08 150.54L238.37 150.35L239.28 152.75L241.28 152.23L244 148.79L247 149.07L247.24 151.51L250.51 151.33L252.46 153.68L252.77 155.94L251.91 157.85L253.39 159.69L252.56 160.6L249.11 157.51L246.5 157.86L245.17 159.13L243.24 161.43L245.12 162.36L243.46 166.49L244.64 172.95L243.48 174.26L239.04 176.02L238.48 178.41L242.63 186.72L240.52 188.19L239.4 192.06L240.94 194.53L243.96 196.18L242.58 198.78L240.71 198.44L240.18 199.98L237.73 201.56L235.8 204.8L237.96 212.56L234.19 219.9L238.2 228.46L238.38 233.13L234.91 233.77L234.9 236.43L233.45 239.53L230.65 241.77L228.58 241.28L225.34 238.19L220.1 240.32L218.75 239.31L217.75 236.66L215.63 235.57L213.7 239.08L211.84 240.58L212.6 242.66L215.5 245.18L214.78 246.65L212.74 244.02L211.77 244.34L210.64 241.53L205.08 241.02L202.81 239.88L194.87 228.17L192.92 227.15L191.37 227.56L188.35 225.85L186.8 223.02L181.54 220.16L178.58 217.03L177.3 213.53L173.65 214.84L171.3 218.32L166.45 216.73L166.14 215.34L163.98 213.35L158.16 210.95L153.93 204.65L155.66 199.39L154.77 196.14L155.6 195.26L155.7 192.31L153.23 189.34L155.27 187.97L155.19 185.74L156.32 183.61L158.84 182.57L160.83 185.61L165.4 186L165.75 188.01L167.5 188.52L169.81 185.3L172.87 185.18L175.45 183.82L175.88 182.31L175.01 181.19L180.64 171.35L180.28 169.16L181.19 168.08L180.21 166.65L182.34 162.75L185.33 160.9L191.37 162.8L193.01 162.24L194.33 159.44L197.17 157.69L191.46 154.09L189.63 152.16L189.72 151.07L188.37 150.47L188.09 143.57L185.85 140.52L188.99 139.12L188.48 136.51L193.52 135.62L193.11 134.15L195.66 134.23L197.3 135.44L199.39 133.86L198.34 133.26L195.48 127.56L194.63 129.52L193.39 130.19L193.56 128.27L194.54 128L194.82 126.78L194.23 123.94L192.35 123.99L190.34 126.56L190.55 129.89L189.04 127.69L189.38 126.28L188.37 126.32L188.08 127.86L186.53 124.53L185.36 124.93L184.7 123.45L183.11 123.66L181.95 122.8L184.35 121.95L188.14 118L192.92 115.57Z" fill="#CCCCCC" stroke="white" stroke-width="0.5"/>
<path d="M279.731 24.77L280.601 25.88L282.371 25.92L283.921 24.98L285.791 25.49L287.361 24.29L288.751 26.69L290.551 26.37L294.741 28.57L297.951 33.88L301.741 33.9L302.961 35.29L304.141 34.56L305.081 35.19L306.691 33.29L307.351 35.16L310.471 35.1L313.171 36.37L313.351 35.31L316.301 35.47L318.181 32.9L322.721 36.37L325.001 36.65L327.111 34.47L329.131 35.64L330.681 34.29L332.851 36.32L336.311 33.73L335.741 36.56L338.301 37.31L339.361 37.4L339.741 37.31L340.361 40.63L339.311 44.07L331.261 52.51L326.341 52.89L323.391 51.54L316.271 55.38L316.861 57.74L305.141 58.4L304.391 60.57L299.491 64.01L299.371 67.17L298.151 68.19L297.341 72.46L295.571 74.72L295.231 77.95L291.081 80.07L289.271 78.56L288.931 75.66L287.611 74.8L286.921 71.84L285.591 67.99L286.831 59.19L284.591 56.31L286.311 53.96L280.811 53.39L282.141 51.89L281.271 50.86L277.851 52.13L275.821 55.12L272.501 54.99L271.661 52.96L269.541 52.74L262.721 54.21H259.901L258.401 52.92L254.211 51.96L253.901 50.17L252.661 49.07L247.951 47.5L247.561 42.82L246.471 41.24L247.121 39.71L250.171 38.42L254.931 38.45L257.331 37.28L258.631 35.25L262.131 35.22L264.561 31.74L268.191 31.38L268.141 28.09L266.301 24.22L269.061 25.15L270.681 24.43L272.201 24.85L273.441 22.74L275.531 21.36L279.121 23.52L279.731 24.77Z" fill="#CCCCCC" stroke="white" stroke-width="0.5"/>
<path d="M349.68 30.39L351.38 32.11L351.05 35.74L352.04 37.53L352.03 40.91L356.36 43.34L359.02 46.22L361.06 45.85L361.42 48.58L365.09 49.14L370.69 52.04L372.65 54.33L373.4 53.57L374.64 54.05L375.59 55.82L376.61 55.48L377.04 56.89L378.29 56.21L380.5 56.69L380.47 58.37L382.84 59.53L382.28 65.87L385.97 65.04L386.59 65.95L385.67 67.27L387.98 67.24L386.59 69.8L388.33 70.26L388.88 72.19L387.93 73.06L391.98 73.58L390.62 75.14L390.25 77.55L391.98 77.07L394.53 78.04L390.7 79.95L393.14 81.82L395.65 81.68L394.42 83.29L394.63 84.32L390.89 85.21L386.08 84.59L384.06 88.82L377.6 97.12L376.76 100.1H375.12L373.46 97.17L370.89 96.31L369.22 91.68L366.56 92.78L364.17 91.9L362.47 92.5L363.43 88.74L362.66 86.9L360.09 85.17L357.82 84.22L352.75 84.62L355.99 79.18L353.73 79.17L353.22 77.25L351.74 76.09L352.02 74.51L350.52 73.62L350.91 71.18L348.19 70.5L346.94 68.76L346.04 69.21L346.81 72.75L345.68 74.86L341.06 76.52L341.81 74.65L340.42 73.99L334.87 77.37L334.81 80.06L333.18 82.72L332.59 94.13L328.75 93.22L328.05 94.28L325.6 94.81L323.32 93.37L321.87 94.44L316.35 88.71L313.35 89.1L312.51 87.7L308.99 89.78L308.5 85.4L306.29 84.35L305.91 82.31L304.35 81.13L302.15 81.87L299.34 79.25L297.95 78.9L297.35 79.88L295.23 77.95L295.57 74.72L297.34 72.46L298.15 68.19L299.37 67.17L299.49 64.01L304.39 60.57L305.14 58.4L316.86 57.74L316.27 55.38L323.39 51.54L326.34 52.89L331.26 52.51L339.31 44.07L340.36 40.63L339.74 37.31L339.86 36.5L340.41 37.34L341.54 36.38L342.09 37.77L343.56 35.86L344.08 39.64L346.49 39.28L347.18 35.53L348.65 33.74L348.94 29.3L349.68 30.39Z" fill="#CCCCCC" stroke="white" stroke-width="0.5"/>
<path d="M332.59 94.13L333.18 82.72L334.81 80.06L334.87 77.37L340.42 73.99L341.81 74.65L341.06 76.52L345.68 74.86L346.81 72.75L346.04 69.21L346.94 68.76L348.19 70.5L350.91 71.18L350.52 73.62L352.02 74.51L351.74 76.09L353.22 77.25L353.73 79.17L355.99 79.18L352.75 84.62L357.82 84.22L360.09 85.17L362.66 86.9L363.43 88.74L362.47 92.5L364.17 91.9L366.56 92.78L369.22 91.68L370.89 96.31L373.46 97.17L375.12 100.1H376.76L383.04 103.26L384.61 106.87L387.12 107.89L389.23 110.28L392.55 110.91L392.41 112.91L393.67 115.75L396.59 116.42L396.83 118.95L398.57 119.74L399.6 117.27L401.4 118.86L401.6 120.51L399.95 123.39L400.44 125L402.9 123.02L404.24 126.98L406.15 126.07L406.94 124.4L409.78 123.28L410.81 124.16L410.75 125.37L413.35 125.71L415.59 127.65L413.63 130.51L413.81 132.51L410.49 136.77L410.51 140.56L408.11 141.96L408.15 145.13L409.98 144.56L410.89 145.94L409.66 148.33L409.55 151.67L406.45 154.29L401.67 153.48L401.25 152.07L394.76 152.87L393.71 154.18L387.6 154L383.18 150.24L382.04 150.36L382.03 151.97L380.92 152.84L376.81 151.66L372.6 154.4L369.86 152.01L368.28 152.64L367.8 153.9L366.1 154.25L362.79 152.59L360.85 152.62L359.97 151.41L360.16 148.4L357.13 153.54L357.61 158.41L357.14 159.8L355.02 160.49L354.33 158.34L350.87 157.07L350.72 155.69L349.04 156.63L346.55 154.41L347.21 153.35L349.44 153.96L350.87 151.45L349.3 148.03L345.25 145.41L343.87 142.4L343.34 137.73L341.87 137.1L340.54 138.25L338.82 138.11L336.72 137.21L335.11 133.95L333.21 132.73L331.8 133.07L329.66 132.74L329.04 130.63L325.25 131.35L324.99 131.34L322.69 128.31L321.18 128.93L321.01 126.48L319.65 125.26L316.5 125.2L314.68 122.8L312.46 122.15L312.66 119.29L314.45 117.23L312.3 115.59L313.67 114.33L312.89 112.3L320.18 111.59L323.03 113.25L322.62 109.4L326.11 107.7L326.81 105.75L327.41 107.45L330.13 106.68L332.02 108.1L331.45 105.86L333.21 101.91L332.39 99.06L332.59 94.13Z" fill="#CCCCCC" stroke="white" stroke-width="0.5"/>
<path d="M110.58 307.5L112.57 308.18L113.76 310.19L111.53 309.32L111.24 310.14L109.65 309.89L108.57 308.16L109.94 306.66L110.58 307.5ZM87.65 300.13L85.24 302.14L83.26 298.86L85.74 299.45L87.65 300.13ZM82.4 274.94L83.26 276.22L83.14 278.34L82.36 279.05L80.4 277.51L81.24 281.48L82.67 285.26L82.57 286.55L80.01 284.45L78.11 284.38L77.75 283.16L79.38 282.28L78.49 278.55L80.97 275.2L82.54 274.34L82.4 274.94ZM88.94 271.12L89.7 270.98L90.83 273.01L91.71 272.56L92.72 272.6L94.34 273.92L95.19 278.68L94.85 284.62L99.86 293.6L102.69 296.37L103.52 296.18L103.76 297.84L106.82 298.74L107.87 301.46L109.4 302.26L109.87 303.43L108.55 305.21L107.3 305.33L105.4 303.29L104.44 301.99L104.65 301.02L100.39 298.34L101.34 297.41L100.02 297.45L99.42 294.99L102.25 296.96L98.56 292.24L97.76 291.89L97.77 292.92L96.37 290.97L95.77 291.06L96.07 293.12L95.06 292.99L94.67 293.9L92.06 292.87L92.88 290.8L92.47 288.93L93.2 288.09L93.71 288.77L94.54 286.79L92.79 282.89L90.17 280.77L88.59 273.72L88.94 271.12ZM140.7 274.79L132.96 266.63L138.91 271.51L140.7 274.79ZM123.43 258.6L126.78 260.29L131.84 265.46L129.7 264.05L127.28 264.38L125.69 264.35L123.89 263.19L122.95 260.91L121.45 259.91L122.52 258.11L123.43 258.6ZM140 250.67L140.42 252.43L139.31 252.53L139.26 254.48L138.25 252.63L136.95 252.46L136.5 250.73L140 250.67ZM128.83 250.79L131.35 250.63L131.48 252.07L132.59 252.11L131.98 254.28L130.23 255.56L139.44 264.44L142.67 270.25L143.11 269.47L143.5 271.91L142.6 271.45L141.69 272.77L140.3 272.58L134.35 265.65L132.93 265.42L133.02 264.59L127.02 260.67L125.96 257.01L128.89 257.96L123.86 251.85L126.27 251.84L128.5 253.28L127.95 251.97L128.83 250.79ZM132.72 247.18L134.71 249.81L131.24 249.62L129.68 247.39L130.79 247.27L130.66 245.79L132.72 247.18ZM134.22 238.85L138.21 241.43L140.29 246.06L133.27 241.82L132.94 238.69L134.22 238.85ZM108.81 231.95L110.94 235.49L109.1 235.65L103.81 231.74L106.37 231.96L107.71 230.78L108.81 231.95ZM87.38 204L90.64 205.36L92.03 207.89L91.14 208.34L90.22 212.33L94.99 227.43L98.51 232.08L102.25 231.66L103.98 235.66L102.23 236.61L101.33 236.04L101.21 243.06L99.81 247.15L102.15 259.65L100.43 258.85L99.94 260.2L102.28 263.16L103.2 266.18L101.58 268.81L103.06 273.6L105.43 276.24L106.73 278.14L105.77 281.64L107.21 280.99L107.59 282.7L108.94 282.28L110.11 282.72L108.44 283.04L108.27 284.69L107.05 285.86L106.13 285.88L105.25 286.95L102.38 284.59L101.08 283.76L101.13 282.3L99.93 281.81L98.99 279.14L97.08 276.91L96.68 276.4L94.13 273.69L94.98 271.28L94.04 267.4L94.8 267.46L94.78 266.39L93.37 265.39L93.11 266.25L91.96 264.77L92.03 261.41L91.11 260.04L91.58 257.85L90.19 255.63L89.39 256.69L88.41 256.15L88.12 250.38L86.68 247.45L86.82 245.73L85.67 242.4L85.12 241.83L84.83 238.38L86.22 236.06L91.13 243.19L91.96 242.42L94.04 243.4L95.23 241.94L94.27 238.04L93.4 237.5L94.19 235.58L96.75 236.95L95.97 235.06L94.21 234.99L92.76 230.53L89.97 228.79L90.92 225.22L89.71 221.43L85.24 218.95L83.74 214.6L82.24 213.9L81.77 211.49L83.69 209.4L84.76 205.3L85.66 204L87.33 203.49L87.38 204ZM112 193.7L113.35 194.87L113.39 193.74L114.85 194.24L115.92 196.14L113.93 195.76L119.05 204.88L116.42 204.12L115.4 207L116.26 207.28L119.47 205.48L122.68 207.54L123.9 209.57L122.57 211.41L122.83 213.73L122.14 215.67L123.24 217.7L126.28 219.58L127.81 218.65L128.8 219.86L129.55 220.61L130.71 221.22L130.46 223.83L138.44 232.05L138.38 233.26L137.59 233.38L137.16 234.4L131.56 233.51L130.98 235L132.44 236.82L132.16 237.85L129.55 238.48L124.84 236.42L123.66 234.15L121.04 234.3L117.69 232.26L117.31 231.33L118.55 230.62L118.22 223.3L116.44 225.11L117.64 225.87L117.71 227.1L113.45 225.25L111.67 227.25L107.94 226.84L106.16 225.54L105.19 225.91L104.19 225.28L98.67 219.18L98.61 215.67L102.17 214.73L101.75 211.91L102.82 210.42L105.84 212.2L108.13 211L108.4 208.12L107.67 207.16L108.76 207.09L110.12 204.72L108.98 202.51L108.97 199.96L110.23 199.76L110.71 198.82L110.69 196.32L109.2 194.64L110.57 194.67L110.97 193.26L112 193.7ZM113.36 130.79L114.19 131.32L115.69 130.67L117.27 131.73L115.38 137.09L118.46 139.05L121.19 142.28L124.01 142.68L125.37 144.46L126.08 146.52L124.93 147.83L124.5 150.67L125.2 151.86L126.07 151.77L126.42 150.59L127.99 150.71L132.05 154.04L136.09 155.38L138.16 161.62L147.56 159.13L148.13 152.99L150.01 151.47L155.3 155.98L158.38 156.33L159.9 157.95L162.81 156.71L166.02 158.36L166.12 160.79L171.44 164.22L173.57 166.95L175.94 167.19L177.2 165.26L178.32 166.69L180.2 166.65L181.17 168.08L180.26 169.17L180.62 171.36L174.99 181.2L175.86 182.32L175.44 183.83L172.86 185.19L169.8 185.31L167.49 188.54L165.74 188.03L165.39 186.02L160.82 185.62L158.83 182.58L156.32 183.62L155.18 185.75L155.26 187.98L153.22 189.36L155.69 192.32L155.59 195.28L154.76 196.16L155.65 199.41L153.92 204.66L158.14 210.96L159.65 216.32L157.55 219.71L154.03 219.39L151.23 220.43L150.29 217.98L148.23 219.48L148.12 220.82L145.76 221.19L146.06 223.22L144.79 224.36L140.85 215.09L141.37 212.18L139.9 213.32L139.94 212.2L137.86 212.38L127.4 207.16L127.17 205.61L121.24 199.59L116.87 197.2L117.29 196.03L115.86 194.39L112.91 192.78L113.13 191.67L112.34 189.43L111.91 187.92L113.62 188.08L112.52 186.41L109.14 184.22L111.47 187.61L110.76 188.55L109.72 188.39L105.06 185.88L102.87 183.67L103.37 182.92L102.6 183.55L101.02 182.14L90.84 178.96L87.59 176.98L82.78 184.41L78.85 198.27L78.98 201.65L77 206.89L74.46 205.22L75.19 198.3L73.59 191.71L74.24 185.13L74.94 183.3L76.35 182.71L74.83 176.11L73.18 174.29L73.26 172.72L75.16 170.94L67.25 165.91L65.52 162.87L66.1 160.94L65.5 158.53L67.21 159.27L71.39 158.49L74.47 159.64L74.54 157.83L76.3 155.18L78.68 154.39L80.56 157.28L82.93 156.28L84.7 157.75H86.1L87.16 159.63L89.1 157.82L94.14 156.57L96.4 154.32L97.96 154.72L103.79 150.19L105.69 142.84L105.37 140.2L108.77 139.11L111.44 135.22L112.81 130.45L113.36 130.79Z" fill="#CCCCCC" stroke="white" stroke-width="0.5"/>
<path d="M146.331 308.15L154.021 315.89L151.081 314.84L146.461 310.62L145.051 308.47L146.331 308.15ZM144.041 306.53L141.461 303.68L143.311 304.65L144.041 306.53ZM136.641 280.81L145.421 291.42L143.851 286.42L147.811 285.57L148.541 286.53L147.641 286.95L148.881 286.97L151.561 290.27L152.811 290.47L155.571 296.8L160.231 297.97L161.731 299.72L162.531 299.55L163.171 302.43L165.281 305.18L162.081 303.53L162.211 302.19L159.381 301.42L158.451 302.3L157.681 299.96L153.671 298.4L152.221 296.43L148.551 294.9L148.531 296.32L150.401 296.8L161.581 310.1L162.521 308.76L161.451 304.65L167.241 309.59L168.881 310L171.431 314.48L175.231 316.47L176.281 319.44L177.881 319.28L182.621 323.41L183.841 326.05L183.571 327.3L174.631 321L181.341 327.71L178.911 327.78L180.091 330.04L179.101 328.93L171.071 325.86L171.061 327.24L175.721 331.51L175.411 332.09L168.601 328L166.651 325.04L167.931 324.65L167.981 323.53L166.091 321.71L166.981 320.25L168.751 320.31L169.001 319.24L165.451 316.37L163.891 316.31L163.921 317.75L161.171 317.16L160.871 314.76L156.451 309.37L153.441 306.86L152.381 307.19L152.591 305.96L152.331 306.97L150.861 306.86L147.631 304.11L146.831 302.36L149.021 301.85L148.491 299.78L143.841 294.96L144.181 294.08L145.171 294.3L144.931 293.49L142.861 292.51L143.361 292.03L142.521 290.8L140.171 289.4L139.891 287.92L135.281 283.14L129.571 274.4L129.391 272.3L136.641 280.81ZM158.161 210.95L163.991 213.35L166.141 215.34L166.451 216.73L171.301 218.32L173.651 214.84L177.301 213.53L178.571 217.04L181.531 220.17L186.791 223.03L188.341 225.86L191.361 227.57L192.911 227.16L194.861 228.18L202.801 239.89L205.071 241.03L210.641 241.54L211.771 244.35L212.741 244.03L214.781 246.67L215.491 245.2L212.591 242.68L211.831 240.6L213.681 239.1L215.621 235.59L217.741 236.68L218.731 239.33L220.091 240.33L225.331 238.2L228.571 241.29L230.641 241.79L233.441 239.55L234.681 248.07L238.161 251.51L235.211 254.04L231.651 254.14L230.981 255.8L234.211 259.67L237.391 265.83L240.451 267.4L241.541 269.64L245.081 269.1L245.941 267.5L246.941 267.83L248.781 265.99L249.891 265.98L252.451 269.57L256.021 271.08L256.091 273.11L258.021 276.74L261.671 279.15L263.751 279.51L264.871 282.8L266.371 284.15L266.321 285.7L264.371 285.93L264.641 288.6L261.971 288.53L261.451 289.38L263.691 293.96L271.891 298.82L273.521 298.91L275.461 304.02L274.191 308.15L274.811 308.48L272.591 310.06L270.211 310.13L268.811 308.66L266.851 308.38L266.571 312.93L264.611 311.04L264.821 308.03L261.531 303.83L258.661 302.57L255.091 302.29L252.991 303.76L249.701 307.05H247.531L246.901 309.22L238.851 313L237.801 315.03L235.211 316.15L238.571 317.06L239.551 318.88L236.961 321.96L237.941 323.92L241.441 323.85L242.631 325.81L242.211 331.9L240.881 334.14L238.991 335.4L230.171 335.68L226.671 334.77L224.361 332.95L219.111 333.02L216.101 331.55L213.651 326.44L209.441 323.23L198.591 319.02L195.101 316.97L194.901 316.87L190.571 314.44L186.931 321.67L185.761 321.3L176.161 309.46L175.121 309.4L173.441 307.07L171.041 305.77L167.411 299.8L164.201 297.62L164.011 298.3L163.941 296.85L159.971 292.94L158.751 293.1L157.601 291.51L155.991 291.02L156.231 290.21L155.841 290.66L153.691 286.56L153.131 282.82L149.741 279.56L149.601 277.07L146.411 273.24L145.821 268.39L146.601 266.39L144.721 259.36L144.931 251.78L145.181 249.48L146.101 246.64L147.471 242.55L149.541 236.18L148.641 233L146.361 231.21L146.591 229.49L144.841 224.37L146.111 223.23L145.811 221.2L148.171 220.84L148.281 219.5L150.341 218L151.281 220.45L154.091 219.41L157.611 219.73L159.711 216.34L158.161 210.95Z" fill="#CCCCCC" stroke="white" stroke-width="0.5"/>
<path d="M400.44 85.88L401.07 86.44L401.05 87.73L400.62 88.98L399.25 87.99L399.62 90.57L403.57 89.81L404.37 92.24L406.32 91.01L406.6 92.38L408.79 92.7L408.23 90.03L408.97 89.43L418.59 91.8L422.58 91.41L428.35 96.37L431.46 104.69L432.76 106.21L435.83 106.09L437.56 107.15L440.46 107.35L442.44 110.01L444.59 109.3L448.11 111.19L449.23 110.29L450.46 113.68L451.97 114.48L453.18 116.88L456.34 113.58L458.75 113.47L458.73 116.03L460.95 121.8L467.63 124.24L470.64 135.99L472.59 136.3L471.4 139.51L466.9 145.37L467.2 148.24L464.34 149.49L462.91 153.63L460.98 156.02L455.84 158.46L455.26 158.22L453.51 157.57L450.59 159.28L445.52 159.46L446.95 158.08L444.7 156.18L437.68 155.6L434.85 153.85L429.24 153.65L427.39 152.16L425.43 148.65L422.92 148.37L418.89 144.63L416.92 144.66L415.62 147.12L412.32 145.57L411.5 143.76L409.98 144.56L408.15 145.13L408.11 141.96L410.51 140.56L410.49 136.77L413.81 132.51L413.63 130.51L415.59 127.65L413.35 125.71L410.75 125.37L410.81 124.16L409.78 123.28L406.94 124.4L406.15 126.07L404.24 126.98L402.9 123.02L400.44 125L399.95 123.39L401.6 120.51L401.4 118.86L399.6 117.27L398.57 119.74L396.83 118.95L396.59 116.42L393.67 115.75L392.41 112.91L392.55 110.91L389.23 110.28L387.12 107.89L384.61 106.87L383.04 103.26L376.76 100.1L377.6 97.12L384.06 88.82L386.08 84.59L390.89 85.21L394.63 84.32L395.72 84.81L396.21 83.55L397.32 83.62L395.81 86.46L397.77 86.83L398.81 84.87L397.68 83.46L398.33 82.58L400.44 85.88Z" fill="#CCCCCC" stroke="white" stroke-width="0.5"/>
<path d="M455.27 158.23L455.48 162.06L456.42 162.82L461.03 163.59L461.71 165.29L464.01 166.06L465.37 167.77L468.27 168.45L469.29 170.41L471.34 171.18L473.9 170.15L476.37 170.83L477.9 172.28L478.67 173.73L478.28 176.68L475.87 178.46L478.18 180.18L479.88 185.15L475.57 189.93L466.33 187.44L456.99 187.66L455.37 191.25L454.2 191.37L454.99 193.18L452.92 194.77L450.92 198.33L447.19 197.24L446.65 199.37L445.12 200.3L446.05 201.3L442.02 201.78L437.25 199.94L439.2 197.39L438.13 195.15L438.51 192.57L437.14 189.9L427.53 189.75L424.31 188.55L421.69 185.62L416.85 183.29L415.51 181.65L415.19 178.74L412.42 177.95L410.61 174.91L406.38 171.78L400.13 172.44L399.64 174.55L397.58 175.29L393.94 174.01L392.5 171.87L389.74 171.59L382.8 176.93L378.38 177.65L377.86 175.2L376.2 173.51L369.55 170.49L370.12 167.47L371.49 166.61L370.77 164.34L369.36 164.08L369.63 166.24L368.01 166.46L368.17 167.93L367.36 167.99L365.98 163.75L363.94 162.09L359.84 162.14L357.61 158.41L357.13 153.54L360.16 148.4L359.97 151.41L360.85 152.62L362.79 152.59L366.1 154.25L367.8 153.9L368.28 152.64L369.86 152.01L372.6 154.4L376.81 151.66L380.92 152.84L382.03 151.97L382.04 150.36L383.18 150.24L387.6 154L393.71 154.18L394.76 152.87L401.25 152.07L401.67 153.48L406.45 154.29L409.55 151.67L409.66 148.33L410.89 145.94L409.98 144.56L411.5 143.76L412.32 145.57L415.62 147.12L416.92 144.66L418.89 144.63L422.92 148.37L425.43 148.65L427.39 152.16L429.24 153.65L434.85 153.85L437.68 155.6L444.7 156.18L446.95 158.08L445.52 159.46L450.59 159.28L453.51 157.57L455.26 158.22L455.27 158.23Z" fill="#CCCCCC" stroke="white" stroke-width="0.5"/>
<path d="M382.8 176.93L389.74 171.59L392.5 171.87L393.94 174.01L397.58 175.29L399.64 174.55L400.13 172.44L406.38 171.78L410.61 174.91L412.42 177.95L415.19 178.74L415.51 181.65L416.85 183.29L421.69 185.62L424.31 188.55L427.53 189.75L437.14 189.9L438.51 192.57L438.13 195.15L439.2 197.39L437.25 199.94L442.02 201.78L446.05 201.3L445.12 200.3L446.65 199.37L447.19 197.24L450.92 198.33L452.92 194.77L454.99 193.18L454.2 191.37L455.37 191.25L456.99 187.66L466.33 187.44L475.57 189.93L476.68 191.38L478.88 192.14L481.89 191.81L482.94 193.62L484.23 193.02L487.28 193.98L488.4 196.2L490.17 196.86L495.42 196.01L498.61 193.49L504.94 192.86L508.09 193.64L509.31 195.32L512.78 197.23L520.93 198.55L524.26 200.99L518.79 210.85L520.7 214.9L522.81 215.56L522.34 216.55L524.4 218.36L522.98 219.93L522.41 222.61L521.71 220.23L519.62 220.63L516.19 219.59L511.21 213.15L500.58 214.14L499.17 212.11L496.58 212.27L495.87 209.48L493.95 208.67L489.42 211.03L489.22 212.74L490.42 214.86L488.58 217.22L486.39 217.94L482.04 216.59L480.03 217.35L474.94 213.38L476.46 211.52L474.79 208.41L472.55 208.38L471.25 210.81L469.62 207.28L468.42 206.9L466.16 207.85L463.98 212.25L460.68 213.29L461.08 217.21L456.79 220.63L451.87 222.61L449.57 221.56L445.32 217.09L442.29 216.49L433.35 209.46L431.3 209.9L428.62 212.4L425.93 213.56L423.67 212.28L421.43 213.25L421.66 211.06L420.85 210.18L418.96 213.23L417.16 213.28L416.15 212.31L414.18 213.2L413.69 212.49L415.05 210.91L415.03 209.23L413.17 210.51L410.72 210.53L411.28 207.78L410.43 205.72L409.49 205.88L408.84 207.98L407.15 209.43L401.55 208.95L398.05 206.86L397.99 204.78L396.2 204.88L396.08 203.08L393.64 203.41L392.38 201.58L389.32 207.9L382.39 207.68L379.1 205.44L375.7 198.87L371.31 195.4L372.16 193.07L376.32 191.4L380.73 185.94L382.77 185.03L382.13 182.54L383.36 180.34L382.35 178.97L382.8 176.93Z" fill="#CCCCCC" stroke="white" stroke-width="0.5"/>
<path d="M209.53 394.34L210.63 395.58L208.69 395.81L207.16 393.61L208.55 394.35L208.64 393.45L209.53 394.34ZM184.83 371.6L186.84 371.83L187.61 373.34L190.64 374.57L194.19 378.64L195.88 378.41L197.31 380.07L197.37 382.68L204.15 388.57L203.73 390.02L202.65 388.79L201.18 389.56L196.8 386L196.82 387.09L195.68 387.06L194.28 386.44L193.51 384.46L193.41 383.34L192.87 382.85L191.98 381.86L188.92 380.23L187.89 377.72L184.5 373.78L184.59 372.8L183.11 371.88L184.33 370.79L184.83 371.6ZM162.95 367.88L163.77 367.92L163.45 369.04L165.26 370.56L165.88 372.68L162.62 370.44L163.33 369.46L162.22 367.51L162.95 367.88ZM164.97 362.16L167.75 364.2L168.27 366.5L169.06 366.54L170.54 369.11L172.17 369.81L172.35 371.43L174.3 374.36L164.94 366.1L164.31 361.79L164.97 362.16ZM167.22 354.05L167.91 355.14L170.1 355.53L172.93 358.2L173.92 358.73L174.63 359.18L176.35 360.36L175.97 361.65L177.94 364.28L180.25 365.36L183.33 368.45L182.52 368.87L183.88 370.61L182.77 371.87L182.03 372.23L182.21 370.37L180.82 370L179.57 367.07L178.93 366.65L178.47 368.52L177.6 369.17L170.34 361.19L168.97 358.42L167.02 357.96L163.8 354.91L164.48 353.66L163.26 351.88L163.55 350.87L167.22 354.05ZM161.88 351.58L162.77 351.84L162.9 353.44L160.61 352.33L158.94 349.69L159.61 349.07L161.88 351.58ZM149.28 350.34L151.5 353L148.56 351.71L145.59 348.72L149.28 350.34ZM142.9 349.27L143.69 350.28L145.04 350.29L144.93 351.08L147.79 353.34L149 356.2L151.45 356.8L150.85 357.96L151.61 359.11L156.71 362.41L156.69 361.13L157.94 361.72L158.02 362.9L157.12 363.03L159.5 364.57L160.13 368.46L163.29 373.55L164.46 373.82L167.05 376.82L167.15 375.06L169.45 376.72L169.02 378.01L172.05 380.13L173.53 382.55L174.51 382.39L174.97 384.41L180.15 387.42L180.47 388.61L179.25 388.24L179.78 389.41L178.82 389.8L177.11 388.7L176.7 388.57L175.4 387.51L174.24 387.7L174.12 386.58L172.24 385.78L171.5 384.32L170.46 384.98L170.99 385.98L171.85 386.76L173.48 388.46L174.41 388.43L175.83 390.43L177.73 391.07L177.83 393.03L167.75 384.21L156.3 365.82L150.66 361.48L145.43 355.26L144.02 354.47L144.11 356.08L138.98 352.92L138.42 351.32L139.76 350.16L140.32 350.66L139.01 351.19L140 352.83L142.73 354.3L141.13 352.3L142.22 352.07L144.69 353.67L142.31 349.72L142.37 348.47L142.9 349.27ZM150.44 348.79L150.67 349.58L147.15 346.6L148.37 346.4L150.44 348.79ZM151.51 345.11L156.27 350.62L157.61 350.55L159.89 352.76L160.61 353.91L160.2 355.49L157.79 353.65L157.51 354.4L154.24 351.11L151.34 346.98L151.51 345.11ZM137.03 336.01L138.73 338.34L143.2 340.62L144.66 342.53L145.26 340.63L146.87 341.72L146.02 342.35L147.9 343.42L146.67 343.79L146.23 345.47L143.47 344.16L143.93 343.27L141.37 342.77L140.38 341.2L137.81 340L140.7 344.59L140.59 345.27L139.4 345.03L135.07 336.83L137.03 336.01ZM126.08 332.11L127.22 331.94L129.04 334.32L127.94 334.64L126.94 334.4L124.91 332.37L126.08 332.11ZM134.91 333.73L136.42 335.06L134.95 336.03L132.75 334.6L133.16 337L130.85 335.76L129.9 333.53L132.39 333.88L131.48 331.49L134.91 333.73ZM160.75 327.15L161.7 326.75L162.85 328.11L163.74 327.53L165.3 328.9L167.22 328.87L170.81 331.7L170.79 332.48L169.37 333.23L169.33 331.76L166.81 330.74L165.03 331.35L165.13 332.5L162.25 332.83L158.9 328.04L159.14 326.86L160.75 327.15ZM118.04 325.63L120.23 326.74L123.04 330.27L120.11 329.2L117.78 327.17L117.98 326.51L115.55 325.75L114 323.24L114.91 322.46L118.04 325.63ZM124.93 314.45L126.86 316.6L126.45 320.35L128.4 321.32L129.09 323.77L128.29 324.04L125.98 322.44L124.66 317.98L122.23 317.14L122.51 315.09L124.93 314.45ZM136 313.73L137.65 316.17L135.87 318.57L138.65 322.78L138.02 324.68L135.95 324.61L133.29 321.97L130.83 320.89L134.11 319.3L132.34 313.87L133.58 314.3L134.97 313.01L136 313.73ZM265.49 311.63L266.54 312.89L266.82 308.34L268.78 308.62L270.18 310.09L272.56 310.02L274.79 308.44L275.15 312.34L277.45 315.45L274.94 316.74L272.49 316.19L272.97 318.6L281.63 321.66L282.5 323.33L281.82 325.57L282.21 332.66L284.23 342.63L278.6 344.52L276.01 344.59L274.75 347.32L275.59 351.94L274.68 354.25L272.3 356.14L269.99 357.47L260.12 352.92L259.91 350.96L258.09 348.37L256.13 348.23L251.86 355.44L249.97 356.21L248.78 357.96L247.38 359.99L245 360.48L243.74 363.42L239.96 362.16L238.7 362.93L239.89 364.68L241.85 364.82L245.42 367.2L245.56 369.37L243.67 371.89L244.65 374.13L241.71 376.86L239.19 377.56L241.88 381.42L239.96 382.64L239.12 382.33L236.93 383.55L237.22 384.27L238.04 384.61L238.34 385.01L238.29 385.31L237.56 385.81L237.22 386.28L236.49 388.1L235.36 388.7L234.09 389.3L235.02 390.35L234.45 391.62L234.19 392.74L233.9 394.64L230.41 392.65L229.85 392.49L227.29 391.37L222.87 393.46L220.84 392.83L217.42 389.75L214.73 392.11L213.79 391.91L212.35 390.98L211.82 390.01L212.45 389.72L211.12 388.19L204.16 384.67L202.58 382.71L202.93 381.26L199.27 378.68L192.65 369.63L188.02 367.42L189.05 367.36L189.12 366.27L186.41 364.89L184.51 360.21L182.94 359.33L182.81 360.13L180.31 357.65L179.96 356.6L179.93 355.25L178.05 354.78L179.03 353.85L178.72 352.67L171.85 345.62L173.68 344.41L174.51 340.84L170.86 339.17L170.29 336.88L168.67 336.36L170.19 333.68L172.22 333.61L175.68 337.59L175 337.79L175.9 339.14L176.69 338.19L177.83 338.09L179.26 336.69L176.87 333.05L177.92 332.39L179.16 333.25L178.71 331.58L186.54 338.28L188.24 337.68L186.27 333.3L188.11 333.62L188.8 332.27L184.16 327.57L185.59 325.78L185.86 326.91L190.93 329.87L191.6 330.75L191.09 331.6L198.66 336.44L200.36 336.96L203.06 335.84L209.33 337.61L210.38 340.73L210.24 343.53L206.18 345.14L210.73 349.27L216.47 347.87L219.34 351.44L220.39 356.06L222 355.57L222.49 353.89L220.04 349.76L220.32 347.94L218.15 345.21L214.51 344.37L211.85 341.43L211.64 338L212.79 338.01L212.67 336.3L209.32 334.44L206.55 335.13L205.53 333.08L203.99 333.53L200.41 328.91L192.34 325.31L187.02 321.68L190.62 314.42L194.95 316.85L195.15 316.95L198.64 319L209.49 323.21L213.7 326.42L216.15 331.53L219.16 333L224.41 332.93L226.72 334.75L230.22 335.66L239.04 335.38L240.93 334.12L242.26 331.88L242.68 325.79L241.49 323.83L237.99 323.9L237.01 321.94L239.6 318.86L238.62 317.04L235.26 316.13L237.85 315.01L238.9 312.98L246.95 309.2L247.58 307.03H249.75L253.04 303.74L255.14 302.27L258.71 302.55L261.58 303.81L264.87 308.01L264.66 311.02L265.49 311.63Z" fill="#CCCCCC" stroke="white" stroke-width="0.5"/>
<path d="M540.95 94.93L549.77 100.1L551.26 99.9L551.71 95.49L552.87 96.41L553.62 100.95L556.41 103.14L555.79 111.27L559.35 115.26L561.75 125.45L563.85 127.77L567.71 129.75L564.85 137.61L562.11 137.76L561.17 138.73L562.35 140.92L560.07 144.56L560.36 146.31L564.59 150.27L566.63 150.75L570.07 149.67L570.99 147.53L573.34 147.42L574.57 150.67L578.01 151.19L581.54 153.73L581.27 155.91L579.66 157.77L575.57 158.14L572.35 156.53L570.96 156.79L569.85 162.77L570.84 164.7L569.94 165.36L565.72 165.19L562.21 160.4L558.83 158.28L555.99 158.25L555.47 159.59L551.6 159.94L549.96 161.08L551.97 167.49L549.98 167.64L549.87 169.58L547.22 170.15L546.47 168.66L545.24 168.34L540.87 169.13L538.52 171.31L534.42 171.93L534.4 177.12L531.68 178.64L532.38 182.66L528.25 182.97L526.5 185.72L523.6 185.21L520.74 186.95L520.73 193.52L525.1 196.14L527.18 195.94L526.37 200.3L524.26 200.99L520.93 198.55L512.78 197.23L509.31 195.32L508.09 193.64L504.94 192.86L498.61 193.49L495.42 196.01L490.17 196.86L488.4 196.2L487.28 193.98L484.23 193.02L482.94 193.62L481.89 191.81L478.88 192.14L476.68 191.38L475.57 189.93L479.88 185.15L478.18 180.18L475.87 178.46L478.28 176.68L478.67 173.73L477.9 172.28L476.37 170.83L473.9 170.15L471.34 171.18L469.29 170.41L468.27 168.45L465.37 167.77L464.01 166.06L461.71 165.29L461.03 163.59L456.42 162.82L455.48 162.06L455.27 158.23L455.84 158.46L460.98 156.02L462.91 153.63L464.34 149.49L467.2 148.24L466.9 145.37L471.4 139.51L472.59 136.3L470.64 135.99L467.63 124.24L460.95 121.8L458.73 116.03L458.75 113.47L464.65 113.44L467.34 112.42L470.17 114.85L476.06 116.76L478.29 116.19L480.23 113.18L483.12 113.38L485.04 115.09L486.87 113.41L491.34 114.69L492.81 117.2L496.25 118.19L498.29 117.39L502.11 118.49L502.51 119.46L504.55 116.39L505.26 115.54L508.41 117.67L508.69 119.7L509.67 120.38L513.87 120.87L513.73 117.26L514.81 116.15L517.41 116.64L518.37 112.45L521.52 114.09L522.82 112.57L524.78 112.56L525.34 111.14L526.97 111.53L526.96 109.43L528.99 108.6L529.82 106.6L532.04 105.79L532.11 103.63L532.89 100.38L533.69 101.67L535.25 100.49L533.98 98.61L536.16 97.35L537.05 95.2L540.95 94.93Z" fill="#CCCCCC" stroke="white" stroke-width="0.5"/>
<path d="M220.38 420.31L221.52 421.07L223.05 420.74L225.2 422.17L225.76 421.5L228.15 424.72L231.08 425.2L232.85 426.77L230.8 426.84L229.67 426.33L228.85 426.79L225.35 425.42L222.1 421.81L219.92 421.5L219.46 419.77L220.38 420.31ZM234.91 416.83L237 417.79L237.26 419.37L234.2 418.16L234.05 415.41L234.91 416.83ZM245.62 417.04L246.9 418.89L247 422.14L241.97 416.88L243.51 417.05L243.9 415.38L245.62 417.04ZM224.59 416.84L227.14 417.57L228.8 419.74L227.2 419.7L224.59 416.84ZM226.89 414L228.67 414.14L229.5 415.65L231.27 418.1L232.48 417.89L231.32 419.4L231.79 420.77L229.33 419.47L229.09 418.4L230.71 418.63L227.65 416.28L226.89 414ZM235.8 412.55L237.93 414.33L236.68 414.2L237.34 415.7L234.79 412.83L235.35 411.87L235.8 412.55ZM240.72 413.13L239.3 413.84L238.2 410.53L240.72 413.13ZM191.95 406.44L194.44 408.03L193.62 408.46L189.41 406.06L190.43 405.57L191.95 406.44ZM219.84 398.52L219.71 400.24L222.27 402.36L222.17 403.28L223.8 402.71L224.67 404.32L223.81 404.85L225.32 405.57L226.09 407.54L221.86 406.17L221.87 404.8L217.02 400.81L215.57 397.78L216.63 397.45L218.13 399.25L218.9 397.35L219.84 398.52ZM181.62 391.57L181.73 392.27L184.42 392.49L184.87 393.21L183.19 393.41L183.54 394.08L192.1 400.7L196.87 406.22L194.3 405L191.2 404.24L188.34 402.24L188.52 400.87L183.97 398.38L182 394.42L179.92 392.4L180.06 391.54L181.62 391.57ZM184.79 389.04L187.82 390.13L186.59 390.39L187.77 391.72L188.45 391.15L189.75 391.98L189.86 390.02L191.24 391.64L190.66 393L193.27 395.49L193.41 397.06L195.6 399.52L194.91 399.83L193.79 397.91L189.04 394.85L185.87 391.43L183.96 391.24L183.26 390.24L184.79 389.04ZM295.41 357.42L298.25 361.57L304.22 361.44L305.81 369.02L311.93 369.51L315.57 375.82L316.03 379.17L311.64 378.93L306.64 382.41L304.76 381.95L302.65 382.94L302.39 384.09L303.8 385.04L303.6 385.97L300.58 386.31L297.16 385.14L295.5 390.51L305.69 400.15L301.73 403.11L300.79 404.9L296.39 407.4L297.62 410.27L295.62 412.42L297.64 414.09L297.68 415.12L294.64 418.54L286.71 417.96L284.81 420.64L280.16 420.26L278.94 423.57L274.49 423.7L271.34 428.73L268.42 429.39L267.85 431.13L265.35 432.71L266.68 436.07L269.5 436.54L270.17 440.27L268.9 441.37L265.6 441.4L264.97 443.88L262.47 445L260.73 446.95L259.93 446.25L260.76 445.24L258.85 445.27L257.44 445.95L256.66 445.31L255.44 443.95L256.79 443.74L257.94 443.75L259.48 442.48L258.55 439.95L259.91 439.61L258.21 439.37L257.84 440.39L256.67 440.33L256.62 442.11L255.73 441.2L256.49 439.41L253.79 438.74L252.89 437.59L253.34 436.65L254.94 436.82L254.82 435.18L253.65 436.02L252.17 435.12L253.59 432.91L252.08 432.23L252.86 431.8L252.26 429.93L253.02 429.22L251.61 427.05L252.29 426.17L257.62 426.38L250.54 424.16L252.96 424.25L253.18 423.21L255.48 425.22L255.15 422.53L251.88 419.92L249.83 416.78L248.48 417.42L245.62 413.8L238.21 408.48L237.06 409.37L234.28 408.64L234.24 409.21L232.45 408.28L232.68 407.44L229.03 407.38L227.97 404.79L225.58 402.49L223.3 402.3L220.97 400.41L220.76 399.07L222.43 400.91L223.24 399.92L224.77 400.03L227.23 401.5L227.64 402.84L227.68 400.07L225.87 399.96L221.79 396.13L218.22 395.52L216.5 394.13L216.64 392.83L215.04 393.9L214.81 392.44L217.44 389.79L220.86 392.87L222.89 393.5L227.31 391.41L229.87 392.53L230.43 392.69L233.92 394.68L234.21 392.78L234.47 391.66L235.04 390.39L234.11 389.35L235.38 388.75L236.51 388.15L237.25 386.33L237.59 385.86L238.33 385.36L238.38 385.06L238.08 384.66L237.26 384.32L236.97 383.6L239.16 382.38L240 382.7L241.92 381.48L239.23 377.62L241.75 376.92L244.69 374.19L243.71 371.95L245.6 369.43L245.46 367.26L241.89 364.88L239.93 364.74L238.74 362.99L240 362.22L243.78 363.48L245.04 360.54L247.42 360.05L248.82 358.02L250.01 356.27L251.9 355.5L256.17 348.29L258.13 348.43L259.95 351.02L260.16 352.98L270.04 357.53L272.35 356.2L274.73 354.31L275.64 352L274.8 347.38L276.06 344.65L278.65 344.58L284.28 342.69L288.1 348.75L293.7 353.47L294.43 356.62L295.41 357.42Z" fill="#CCCCCC" stroke="white" stroke-width="0.5"/>
<path d="M524.26 200.99L526.37 200.3L527.18 195.94L525.1 196.14L520.73 193.52L520.74 186.95L523.6 185.21L526.5 185.72L528.25 182.97L532.38 182.66L531.68 178.64L534.4 177.12L534.42 171.93L538.52 171.31L540.87 169.13L545.24 168.34L546.47 168.66L547.22 170.15L549.87 169.58L549.98 167.64L551.97 167.49L549.96 161.08L551.6 159.94L555.47 159.59L555.99 158.25L558.83 158.28L562.21 160.4L565.72 165.19L569.94 165.36L570.84 164.7L573.34 166.77L573.3 168.65L572.48 170.16L570.62 170.5L568.4 173.98L573.6 178.67L580.68 180.21L582.68 185.93L597.09 193.46L612.4 195.09L612.93 200.17L611.92 202.03L612.27 203.98L608.08 204.58L604.02 199.91L601.58 200.14L600.81 204.09H598.45L589.64 199.61L589.23 200.51L590.71 202.21L590.35 204.06L586.14 210.22L584.7 210.92L580.58 210.4L580.49 213.13L582.11 215.57L581.19 217.34L583.07 219.46L583.01 221.82L581.19 223.72L581.92 227.91L580.93 229.76L576.65 232.43L582.83 233.41L585.83 231.92L587.1 235.64L585.88 237.37L581.88 239.08L579.34 242.17L572.22 243.19L573.66 249.97L568.07 250.8L555.77 250.15L546.69 242.63L547.55 240.46L545.45 237.45L546.37 237L549.15 238.41L550.98 237.4L548.9 233.73L549.92 230.05L546.01 228.98L542.98 229.66L543.82 226.45L541.59 223.65L539.36 223.08L536.82 219.87L538.75 217.75L537.71 215.6L536.6 215.4L535.54 216.65L536.03 220.07L535.31 220.85L530.31 219.62L530.38 218.73L533.2 216.57L532.8 215.22L531.82 215.29L530.55 217.27L526.63 215.34L526.25 216.13L527.71 217.81L526.97 219.4L525.9 217.15L522.81 215.56L520.7 214.9L518.79 210.85L524.26 200.99Z" fill="#CCCCCC" stroke="white" stroke-width="0.5"/>
<path d="M279.73 504.39L279.6 505.14L281.1 505.32L279.72 507.23L280.74 507.67L283.17 505.41L285.13 505.59L285.57 506.65L287 505.49L286.91 508.5L284.52 510.12L284.39 511.59L282.56 512.84L280.94 513.19L278.35 513.7L272.3 514.87L267.78 514.77L270.08 512.54L270.17 510.44L269.19 509.04L267.38 510L266.04 507.94L270.74 505.33L279.73 504.39ZM332.36 501.89L334.37 502.1L336.4 502.38L337.41 503.55L334.62 504.69L329.29 503.67L330.38 502.2L332.36 501.89ZM297.06 491.22L300.09 492.92L302.07 492.27L302.26 493.9L300.28 494.34L298.55 494.27L296.4 493.02L294.95 492.51L295.79 491.01L297.06 491.22ZM319.01 483.19L320.07 483.13L319.43 484.97L319.77 485.86L321 485.7L320.84 486.86L323.58 485.12L324.27 486.04L326.98 485.96L327.49 485.86L328.05 485.15L329.89 485.97L329.59 488.05L333.12 490.82L330.38 490.33L332.72 491.84L333.71 493.07L335.84 493.83L338.19 492.63L339.32 492.6L341.25 493.66L346.5 493.1L347.89 493.89L351.63 493.04L353.78 494.52L360.05 494.48L375.18 497.08L379.33 496.15L384.59 498.3L376.04 499.87L374.29 499.25L369.87 500.01L368.5 499.29L365.02 500.01L362.12 499.8L357.71 500.13L340.85 497.91L329.48 498.77L319.4 495.89L316.83 496.12L310.34 492.88L308.91 493.73L306.25 492.77L306.54 491.65L304.82 491.62L304.28 490.64L298.53 488.42L299.95 487.77L303.99 488.55L305.97 487.31L307.59 486.56L308.86 486.9L309.61 486.17L315.2 487.2L319.42 490.68L322.48 489.93L320.38 489.18L320.19 487.4L318.73 487.1L318.32 485.04L316.48 486.12L314.53 484.13L315.5 483.42L316 484.27L317.7 484.3L317.27 483.01L319.01 483.19ZM306.72 460.61L313.69 461.56L317.51 460.75L323.7 461.93L331.03 463.25L336.82 464.66L341.38 465.18L341.63 466.37L343.27 465.6L345.35 466.76L343.22 467.4L343.36 468.22L345.62 467.61L346.67 468.76L346.77 467.55L347.62 467.35L352.77 470.65L353.83 471.88L352.5 472.4L353.36 473.65L352 474.1L351.95 476L350.19 475.46L349.28 477.56L342.64 478.86L338.81 478.42L326.47 479.79L324.36 478.8L315.54 477.75L313.5 476.9L312.54 476.56L311.28 475.58L310.94 474.57L309.69 474.39L308.71 473.74L307.61 473.63L308.13 472.58L307.36 471.9L306.48 472.07L306.66 472.95L305.63 472.58L305.02 472.1L303.12 471.16L302.92 468.72L304.64 470.35L307.03 469.92L305.63 469.18L305.5 467.15L308.4 466.04L306.97 465.26L307.39 463.7L305.2 461.59L305.02 460.75L306.72 460.61ZM285.89 457.31L291.24 458.79L291.79 460.28L292.77 459.53L293.55 460.21L294.6 459.98L297.12 463.51L298.07 463.21L298.36 465.24L301.26 467.48L301.9 469.39L300.03 469.76L299.7 468.67L298.59 468.73L297.57 468.59L296.82 467.51L293.53 466.57L292.26 465.83L292.55 464.81L290.43 464.41L289.32 464.01L284.5 461.29L281.9 461.19L281.73 460.14L282.1 458.56L281.42 457.64L285.89 457.31ZM269.92 451.47L270.75 452.68L269.64 454.12L268.85 452.86L266.15 452.56L266.36 451.91L269.92 451.47ZM275.22 451.07L277.84 451.3L278.78 453.18L278.02 454.59L276.48 453.84L275.53 455.02L271.91 455.12L272.92 453.23L273.65 453.37L273.58 452.02L274.41 451.54L275.22 451.07ZM289.69 443.1L292 443.17L297.22 446.06L301.22 447.03L293.21 447.76L288.76 446.28L288.26 447.36L285.98 448.16L281.78 446L283.21 445.19L287.06 446.11L287.35 444.02L285.46 443.29L289.69 443.1ZM262.44 444.96L264.95 443.84L265.58 441.37L268.88 441.34L270.15 440.24L269.48 436.51L266.67 436.04L265.35 432.68L267.86 431.1L268.43 429.36L271.35 428.71L274.5 423.68L278.95 423.55L280.17 420.24L284.82 420.63L286.72 417.95L294.65 418.53L297.69 415.11L297.65 414.08L295.63 412.41L297.63 410.26L296.4 407.39L300.8 404.89L301.74 403.1L305.7 400.14L295.52 390.5L297.18 385.13L300.6 386.3L303.62 385.96L303.82 385.03L302.41 384.09L302.67 382.94L304.78 381.95L306.66 382.41L311.66 378.93L316.05 379.17L321.01 382.52L324.46 387.39L332.89 393.42L333.73 394.91L333.77 399.36L336.47 403.79L338.17 405.55L342.71 406.58L345.56 411.56L349.17 414.06L351.08 417.19L353.71 418.75L355.96 423.03L359.78 426.48L367.95 437.26L369.23 436.31L371.08 437.05L373.14 439.41L376.33 441.22L378.8 444.48L387.2 444.15L390.51 446.4L392.75 449.47L393.24 452.11L392.86 455.08L390.24 460.79L398.14 475.52L398.98 480L404.34 481L407.07 483.11L409.36 487.27L408.84 490.3L410.35 490.68L406.78 494.02L401.52 492.72L399.35 493.81L399.52 495.83L403.09 496.98L403.03 499.86L400.36 502.85L398.94 500.22L394.13 498.02L393.54 496.51L391.01 494.59L382.19 491.38L379.98 488.73L378.5 488.59L375.81 486.53L375.18 483.9L372.34 482.98L369.51 477.77L366.28 475.49L365.26 474.46L358.68 465.06L353.61 460.96L352.65 459.23L342.59 458.86L335.7 457.43L332.18 453.13L327.24 453.87L324.94 451.84L320.72 450.28L316.47 446.57L315.15 445.52L310.21 444.72L307.34 445.25L304.76 445.14L300.75 443.96L302.35 442.94L304.15 442.06L305.97 441.11L306.79 440.94L309.74 441.34L309.8 440.67L309.14 439.97L297.02 437.82L293.06 439.5L291.01 441.51L283.66 442.69L282.43 443.64L279.66 444.11L279.33 443.34L277.15 443.5L274.35 442.35L272.75 443.46L278.69 444.97L278.99 446.24L277.03 447.66L274.51 447.86L274.02 448.2L272.53 449.34L270.3 449.07L267.66 447.38L266.86 448.77L265.54 447.92L264.61 448.3L265.14 446.61L263.31 446.28L262.24 447.28L262.44 444.96Z" fill="#CCCCCC" stroke="white" stroke-width="0.5"/>
<path d="M27.69 239.78L28.62 240.71L29.47 240.4L30.46 240.82L30.18 242.02L31.13 242.5L29.4 243.33L29.34 242.56L28.56 242.66L28.06 245.41L27.39 242.83L28.24 241.11L26.2 240.02L27.69 239.78ZM55.43 154.03L60.68 158.05L65.48 158.49L66.08 160.9L65.5 162.83L67.23 165.87L75.14 170.9L73.25 172.68L73.17 174.25L74.82 176.07L76.34 182.67L74.93 183.26L74.23 185.09L73.58 191.67L75.18 198.26L74.46 205.18L77 206.85L76.81 209.07L75.01 212.05L74.08 213.44L71.98 217.15L70.7 218.45L69.49 217.46L68.76 219.17L70.05 220.48L70.42 223.06L70.18 224.26L69.66 224.99L70.97 227.53L71.39 231.09L69.01 235.25L67.74 233.73L66.34 234.66L65.79 233.45L64.71 233.38L60.34 237.1L61.19 233.46L63.4 232.52L61.95 231.14L61.61 228.4L60.53 229.1L59.21 228.53L59.73 226.41L58.32 222.89L57.65 224.66L58.44 226.98L57.51 229.07L60.7 229.9L61.47 232.22L60.24 232.25L60.33 233.78L59.04 234.42L59.01 236.67L56.93 235.77L58.78 238.1L57.58 241.09L56.67 241.7L56.44 242.89L54.16 244.67L51.61 243.27L51.62 244.67L54.02 245.89L52.74 246.72L53.74 248.96L51.61 250.53L51.42 252.33L52.44 254.05L52.7 255.19L53.89 257.71L48.32 257.72L46.85 255.66L45.61 255.86L45.78 254.65L44.23 253.82L43.19 254.68L43.4 255.64L44.69 256.12L45.81 257.75L44.74 259.31L45.43 261.14L45.46 261.68L45.14 262.45L43.94 262.77L43.61 256.9L41.13 256.8L39.35 256.31L38.71 255.98L37.86 254.77L39.5 254.12L39.17 253.41L37.56 253.67L37.43 252.07L36.32 253.39L35.8 252.81L36.73 250.89L34.35 250.28L32.68 249.03L32.59 247.17L34.75 248.84H36.77L37.3 248.21L37.68 247.63L37.97 245.97L36.64 245.78L36.2 246.76L34.88 246.94L33.5 245.95L32.53 245.03L33.96 243.68L34.47 241.55L33.44 241.32L33.29 239.38L29.22 231.2H26.32L24.72 227.99L23.76 227.8L23.97 225.82L21.63 225.66L21.7 223.41L20.67 222.75L21.52 221.7L17.73 219.38L15.43 219.89L14.98 218.93L16.18 218.71L15.41 216.91L16.37 216.47L16.5 214.95L15.56 214.53L13.75 213.73L12.93 212.3L11.95 208.5L12.18 207.43V206.77L13.42 205.94L11.12 203.41L12.75 202.84L10.27 200.13L11.02 199.25V198.52L11.88 196.6L12.06 195.68L12.36 193.54L11.78 191.91L9.84 191.69L9.53 190.44L10.52 188.56L12.76 188.62L12.44 187.37L10.94 187.46L9.04 185.39L11.32 185.58L11.33 184.42L13.76 183.13L11.85 182.85L11.32 182.94L8.09 183L7.6 182.71L8.49 181.92L6.02 180.92L5.89 177.66L7.63 176.72L6.33 176.32L6.47 174.57L6.38 173.79L5.39 172.72L5.66 170.4L3.59 168.28L4.41 165.12L3 164.55L3.67 162.73L2.83 162.16L2.94 159.93L1 157.5L2.3 155.28L4.72 155.82L12.91 161.03L17.18 162.12L20.05 164.37L24.93 162.08L26.14 160.45L27.84 160.23L32.49 162.13L32.57 164.45L33.76 165.8L36.57 165.76L37.85 167.04H40.36L43.68 163.04L47.96 162.31L50.12 163.62L51.71 162.31L52.13 158.32L48.96 155.29L49.69 153.98L52.9 154.63L52.77 153.29L53.66 152.89L55.43 154.03Z" fill="#CCCCCC" stroke="white" stroke-width="0.5"/>
<path d="M469.13 561.19L470.11 562.62L469.54 563.43L468.94 562.35L466.03 561.48L468.17 561.21L468.02 560.38L469.13 561.19ZM463.79 560L464.95 561.25L462.78 560.8L463.08 561.52L462.27 561.79L459.73 559.66L461.21 560.05L462.17 558.45L463.79 560ZM447.33 551.24L451.11 552.79V554.21L447.49 552.41L445.87 550.42L447.33 551.24ZM450.18 550.27L452.33 550.37L458.6 554.91L459.27 555.89L458.28 558.28L453.38 554.35L450.18 550.27ZM350.52 548.15L351.77 547.48L352.11 548.46L354.32 547.79L357.36 548.32L358.11 548.91L357.7 550.75L354.25 554.29L352.38 554.82L351.96 554.4L351.61 552.83L350.45 552.87L348 553.7L347.74 554.87L344.78 551.33L346.04 551.71L346.03 548.83L347.28 548.24L347.03 547.3L348.16 547.57L349.09 547.26L350.52 548.15ZM402.6 543.95L405.3 543.84L404.12 545.23L402.64 545.16L403.42 545.95L409.77 545.84L410.67 546.98L425.92 551.77L426.2 552.95L430.67 552.8L431.42 553.98L433.36 553.03L433.65 554.55L435.18 554.05L441.51 556.82L440.99 557.76L442.01 559.66L440.5 559.69L439.89 558.92L438.78 558.15L437.03 558.52L431.06 555.8L427.09 555.01L425.11 555.49L419.3 553.47L416.92 553.58L411.58 550.62L410.07 551.84L409.43 550.39L407.09 550.38L406.52 549.31L404.38 548.73L404.49 549.78L404.33 550.2L398.38 547.62L398.72 546L402.6 543.95ZM332.71 517.04L332.8 517.76L335.55 517.44L337.3 519.02L341.28 519.81L341.71 520.68L348.73 521.96L353.76 521.14L354.82 519.98L365.6 518.91L369.24 518.61L368.97 519.58L374.86 521.3L375.68 521.67L378.35 521.01L379.3 521.88L381.2 525.05L380.86 526.02L385.3 527.57L377.92 528.82L376.6 528.99L369.08 526.6L361.45 526.16L353.27 530.57L349.97 531.05L348.29 530.46L349.52 529.69L348.83 529.2L340.7 529.51L329.96 525.98L329.27 527.88L326.91 526.44L327.51 525.99L326.84 524.93L329.94 524.03L329.29 522.61L334.21 522.06L333.86 521.4L333.43 520.5L330.47 520.47L330.82 519.64L328.48 518.09L327.47 519.68L326.95 518.33L325.67 518.13L327.03 517.23L328.05 517.85L330.38 516.81L332.71 517.04ZM365.15 509.38L367.84 510.1L367.66 510.66L371.56 512.5L381.68 512.27L395.38 515.5L401.94 518.53L404.46 520.66L410.15 522.7L410.8 526.03L413.8 527.16L414.98 528.65L417.29 528.33L419.05 529.64L417.67 526.67L418.75 526.59L424.69 530.11L427.2 530.67L431.32 534.09L434.54 534.26L434.71 535.41L439.93 539.35L441.24 539.22L437.14 535.93L436.57 534.52L435.67 534.58L431.64 531.91L432.59 530.26L435.95 526.58L439.49 527.19L445.94 531.47L448.49 527.44L452.13 530.48L452.35 534.77L454.32 538.75L456.73 539.52L456.18 542.84L458.17 542.8L462.23 544.47L464.65 546.91L466.91 547.4L468.19 550.49L471.64 551.25L478.3 556.23L478.19 559.64L482.47 560.82L483.7 564.09L486.51 563.74L490.27 568.62L492.39 569.8L493.8 572.45L498.45 570.98L499.08 569.62L501.2 569.03L505.71 569.62L507.47 572.65L512.83 576.89L514.67 584.94L513.58 586.86L513.78 588.96L520.82 597L520.02 599.5L514.29 592.72L513.38 593.46L511.95 592.58L511.12 591.07L504.32 586.26L497.56 582.79L491.96 577.98L490.7 575.65L490.63 574.5L491.4 572.16L489.13 569.02L488.19 568.75L486.28 570.08L480.65 566.48L478.11 566.54L476.88 566.01L473.89 564.97L473.66 563.78L473.99 563.11L475.65 563.1L475.06 562.44L472.42 560.38L464.26 556.37L463.02 554.38L457.61 551.66L454.93 549.33L454.64 547.88L455.63 547.82L456.07 545.84L453.9 547.44L451.82 545.73L451.49 543.59L449.18 544.11L446.57 543.01L446.85 543.95L445.24 545.85L443.21 543.46L436.48 539.12L436.87 540.26L441.52 543.56L443.85 547.06L442.82 549.46L441.6 548.2L442.37 547.19L441.2 544.58L440.27 545.31L438.11 544.12L437.43 544.54L434.43 542.99L434.29 541.72L432.26 542.3L410.59 534.58L408.77 533.51L409.57 532.27L410.79 532.21L411.04 531.1L407.65 528.48L405.75 527.58L405.68 528.16L401.87 528.12L399.09 525.64L389.65 521.4L386.84 518.58L382.86 519.71L378.2 519.61L374.38 518.07L371.45 518.13L368.25 515.56L365.97 515L366.84 512.67L367.9 512.49L367.39 511.62L365.92 512L365.7 510L364.45 509.39L365.15 509.38ZM413.63 493.24L430.44 503.51L433.02 510.64L437.9 519.93L433.25 521.09L429.66 523.39L428.29 523.05L427.71 524.3L419.77 524.24L413.07 517.59L414.01 515.59L412.87 514.91L411.76 512.43L408.98 513.8L407.84 512.01L408.54 509.36L409.15 508.49L408.05 506.44L407.8 509.15L406.56 510.24L400.3 502.83L402.97 499.84L403.03 496.96L399.46 495.81L399.3 493.79L401.47 492.7L406.73 494L410.3 490.66L413.63 493.24Z" fill="#CCCCCC" stroke="white" stroke-width="0.5"/>
<path d="M302.39 2.88L305.01 2.91L305.93 4.87L308.03 4.38L308.7 5.71L311.49 6.22L311.47 7.42L314.52 8.71L314.01 9.88L314.79 10.45L316.04 9.85L320.59 12.45L325.12 12.06L325.67 13.16L328.36 12.98L329.49 13.91L330.09 15.07L334.86 23.38L336.6 22.3L337.1 24.17L339.2 25.35L341.06 25.43L341.93 24.37L343.16 24.44L345.98 27.22L347.03 27.49L348.94 29.3L348.65 33.74L347.18 35.53L346.49 39.28L344.08 39.64L343.56 35.86L342.09 37.77L341.54 36.38L340.41 37.34L339.86 36.5L339.74 37.31L339.36 37.4L338.3 37.31L335.74 36.56L336.31 33.73L332.85 36.32L330.68 34.29L329.13 35.64L327.11 34.47L325 36.65L322.72 36.37L318.18 32.9L316.3 35.47L313.35 35.31L313.17 36.37L310.47 35.1L307.35 35.16L306.69 33.29L305.08 35.19L304.14 34.56L302.96 35.29L301.74 33.9L297.95 33.88L294.74 28.57L290.55 26.37L292.34 22.56L288.55 17.89L286.43 8.66L288.28 5.17L291.2 5.18L294.41 2.85L295.62 3.38L296.18 1.5L297.46 2.08L298.24 1.3L299.28 3.01L301.24 1L302.39 2.88Z" fill="#CCCCCC" stroke="white" stroke-width="0.5"/>
<path d="M276.5 86.84L278.82 91.64L278.09 93.94L278.99 97.55L281.51 98.71L284.68 106.04L281.61 107.63L281.1 112.54L275.56 110.96L275.72 112.02L274.48 113.27L271.25 114.39L269.33 117.12L263.85 119.95L262.67 124.06L260.2 124.51L259.29 130.45L255.73 138.02L253.63 139.76H249.89L250.25 136.46L246.53 132.79L241.88 131.25L237.3 128.4L236.44 124.59L238.05 121.35L239.54 120.38L240.56 121.92L243.21 121.81L244.45 123.56L246.23 122.18L246.95 119.17L241.53 115.59L243.62 113.01L241.84 107L243.58 103.66L255.22 96.01L265.24 91.47L268.32 89.01L271.82 88.65L272.52 86.75L276.5 86.84Z" fill="#CCCCCC" stroke="white" stroke-width="0.5"/>
</svg>
