<svg width="799" height="274" viewBox="0 0 799 274" fill="none" xmlns="http://www.w3.org/2000/svg">
<path d="M241.65 9.70997L230.14 9.63997L228.5 10.18L226.31 9.63997L221.59 9.16997L219.4 8.54997L216.63 6.57997L215.91 6.21997L215.11 6.35997L214.31 6.67997L213.57 6.84997L211.85 7.02997L210.98 7.24997L211.22 8.02997L211.09 8.82997L211.5 9.54997L212.74 11.12L212.36 11.44L211.67 11.47L211.49 11.75L211.52 12.21L211.72 12.92L211.65 13.27L211.26 13.61L211.07 13.83L210.99 14.2L210.89 15.55L210.18 16.87L207.59 13.8L207.17 13.5L206.51 13.17L206.21 13.27L205.95 13.51L205.82 13.78L205.74 14.2L205.37 15.21L204.89 15.66L204.46 15.95L204.21 15.91L203.69 15.16L203.28 14.71L202.86 14.74L202.78 14.86L202.82 15.08L202.94 15.39L202.95 15.78L202.9 16.18L202.72 16.86L202.69 17.37L202.81 18.07L203.43 19.35L203.53 19.73L203.46 20.03L200.96 22.83L200.39 23.86L199.95 24.48L199.31 24.73L198.43 24.74L197.7 24.64L196.92 24.29L195.02 24.42L192.14 24.15L191.47 24.81L191.19 25.37L190.22 26.23L189.71 26.45L189.3 26.36L188.51 25.38L187.99 25.04L187.43 25.21L186.23 25.7L186.13 28.47V30.6L185.22 32.56L184.62 35.17V38.11L186.13 41.21L187.63 43.34L188.56 43.88L189.52 44.49L189.77 45.5L189.5 47.19L191.84 47.8L193.38 47.97L194.98 47.79L198.1 47.42L203.7 47.41L208.71 48.84L211.08 49.87L218.91 48.53L224.81 47.98L227.38 47.89L233.95 50.26L236.53 51.22L239.07 53.16L240.46 54.29L242.48 56.04L243.58 56.07L244.1 56.24L244.2 56.08L244.29 55.95L244.35 55.89L244.6 55.78L244.92 55.54L245.17 55.31L246.11 53.77L246.75 52.95L247.16 52.25L247.4 51.66L247.55 51.1L248.11 47.06L247.97 45.87L246.78 44.8L243.99 43.08L243.56 42.33L243.59 41.11L244.4 39.09V38.59L244.08 38.15L243.13 37.47L242 36.4L240.8 34.23L241.75 31.24L241.93 28.96L242.01 28.63L241.95 28.08L241.89 27.83L241.03 26.57L239.83 25L239.25 24.46L238.72 24.04L238.18 23.83L237.37 23.73L237.11 23.59L236.99 23.33L237.17 22.72L237.29 22.42L237.38 22.26L237.41 22.2L237.83 21.84L239.32 20.81L240.01 19.85L240.3 19.72L240.48 19.49L240.46 19.27L240.13 18.83L239.5 18.32L239.46 18.02L239.6 17.62L240.12 16.89L240.5 16.66L240.88 16.65L241.59 17.07L241.79 17.15L241.9 17.12L241.88 16.56L241.75 15.54L240.81 11.34L241.55 10.37L241.65 9.70997Z" fill="#CCCCCC" stroke="white" stroke-width="0.5"/>
<path d="M397.42 37.95L396.2 37.38L394.7 37.46L392.61 38.11L392.73 39.57L393.71 39.63L395.9 38.71L397.29 39.22L397.93 40.34L398.31 41.46L398.92 41.98L399.28 42.16L400.45 43.05L400.7 43.36L400.81 44.27L401.1 44.62L401.58 44.8L403.26 46.11L404.51 46.72L405.87 46.89L407.19 46.39L409.67 49.17L410.77 50.16L411.75 50.8L412.43 51.11L413.08 51.25L413.67 51.44L415.34 52.94L414.69 51.49L413.49 49.68L412.01 48.13L409 46.96L406.24 44.68L402.85 43.62L401.26 42.31L397.42 37.95ZM389.31 33.53L388.88 33.06L388.43 32.37L387.01 32.06L386.49 31.88L386.7 30.59L386.21 29.71L385.81 29.97L385.76 30.66L385.91 31.16L384.99 31.42L384.9 32.22L385.57 32.99L386.99 34.01L387.5 34.14L387.91 34.08L388.2 34.24L388.41 34.51L388.4 35.07L388.93 35.59L390.07 35.38L390.73 34.67L390.32 34.11L389.31 33.53ZM372.29 24.97L371.1 24.98L369.93 25.39L368.87 26.04L369.44 28.01L370.17 27.66L370.94 26.56L371.64 26.34L373.21 27.35L374 26.58L374.05 25.51L373.44 25.55L372.29 24.97ZM377.9 29.34L378.46 28.75L378.34 28.3L377.7 28.19L377.37 27.74L377.89 27.17L378.77 26.89L379.22 26.5L379.11 25.94L378.54 25.11L377.63 24.84L375.97 25.27L375.23 26.47L375.91 26.85L376.57 26.95L376.4 27.35L375.94 27.73L375.72 28.21L376.2 28.93L377.05 29.46L377.9 29.34ZM347.19 23.36L347.56 23.13L348.27 22.5L348.65 22.27L347.33 21.41L345.7 21.58L342.11 23.36L341.49 22.9L340.99 22.81L340.56 23L340.11 23.36L341.23 24.26L348.65 25.55L348.6 24.77L348.34 24.14L347.87 23.68L347.19 23.36ZM332.2 24.52L331.51 23.86L330.38 23.43L327.39 22.85L326.22 22.76L324.71 21.69L322.03 16.83L321.57 17.02L320.39 19.3L320.18 21.14L320.24 21.96L320.19 23.3L319.83 23.93L319.3 24.36L318.55 24.59L318.12 24.64L317.79 24.57L317.15 24.12L316.85 23.98L316.56 23.93L316.17 23.95L315.81 24.04L314.78 24.44L314.46 24.47L312.63 24.42L312.24 24.62L311.99 24.97L311.79 25.73L311.74 26.36L311.78 27.26L312.07 28.47L312.16 29.12L311.97 30.28L311.57 30.86L311.2 31.24L310.68 31.54L310.58 31.84L310.7 32.07L310.98 32.22L311.25 32.42L311.4 32.68L311.48 33.2L311.62 33.57L311.87 33.96L312.63 34.79L313.09 35.46L313.31 35.9L313.52 36.21L313.83 36.49L315.06 37.3L316.55 38.6L317.73 38.52L318.27 38.28L319.73 37.21L321.17 36.65L321.89 36.64L322.43 36.88L322.63 37.19L322.94 37.88L323.03 38.15L323.35 38.85L323.87 40.5L324.99 42.42L325.18 43.02L325.07 43.43L324.69 43.66L324 43.96L323.59 44.56L323.5 45.01L323.63 45.37L324.16 45.93L324.5 46.48L324.62 47L324.65 47.7L324.27 51.45L324.34 52.03L324.52 52.37L324.85 52.74L325.21 53.36L325.38 54.93L325.59 55.74L325.92 56.54L326.38 57.04L327.44 58.88L330.5 57.09L331.4 56.05L331.6 55.74L331.88 55.48L332.23 55.28L332.85 55.34L333.23 55.47L334.99 56.93L336.82 56.58L337.44 56.7L337.79 57.13L337.75 58.29L337.6 59.04L337.24 60.1L337.18 60.45L337.23 60.67L337.35 60.84L337.67 60.95L338.07 60.94L338.91 60.65L339.38 60.42L340.2 59.87L340.55 59.74L340.95 59.7L341.52 59.73L341.92 59.71L342.16 59.58L342.3 59.36L342.86 57.58L343.13 57.05L343.37 56.76L343.63 56.66L344.06 56.65L345.09 56.74H345.56L346 56.66L346.22 56.51L346.57 56.12L346.76 55.97L346.91 56.2L347.02 56.73V58.14L346.91 58.81L346.73 59.2L346.52 59.31L346.22 59.4L345.99 59.51L345.76 59.71L345.74 60.12L345.82 60.81L346.64 62.74L346.9 63.15L348.31 63.95L348.53 64.76L348.24 65.46L348.12 66.03L348.16 66.48L348.46 67.06L348.99 67.34L349.26 67.64L349.46 67.99L349.23 69.04L347.83 70.58L347.87 71.43L348.12 71.95L348.57 72.57L351.25 75.2L352.16 75.68L352.69 75.78L353.21 75.73L354.32 75.39L354.69 75.36L355 75.42L355.18 75.57L355.3 75.86L355.54 77.64L355.74 78.36L356.14 79.27L356.79 80.45L357.69 81.64L359.54 82.5L358.74 85.07L358.47 85.53L358.19 86.19L358.1 86.92L358.38 89.99L358.33 91.56L358.38 92.23L359.15 95.38L359.54 96.46L360.03 97.44L361.4 98.59L361.8 99.14L361.99 99.79L362.1 101.9L362.06 103.09L362.17 103.85L362.42 104.54L363.91 105.68L364.02 105.85L363.96 106.93L366.58 105.71L367.95 104.58L368.46 104.44L369.55 104.52L369.92 104.29L370.12 103.88L370.28 103.21L370.56 102.58L371.29 101.65L372.04 101.33L372.74 101.23L377.02 102.26L377.56 102.49L377.91 102.77L378.96 103.32L381.16 103.49L382.98 101.92L384.43 99.54L385.65 97.08L386.04 95.61L386.11 94.58L385.82 94.14L385.5 93.98L385.06 93.96L384.69 94L384.37 93.93L384.14 93.69L383.88 93.17L383.55 92.28L382.47 90.17L382 88.8L381.97 87.97L382.13 87.43L382.93 86.71L385.37 86.77L386.22 87.48L386.49 88L386.86 88.54L387.63 89.22L388.4 89.41L389.03 89.38L389.57 89.08L390.62 88.37L391.6 88.26L392.28 88.31L395.3 89.24L396.8 88.74L397.8 89.2L398.44 89.64L399.49 90.06L400.53 89.93L401.35 89.58L402.01 88.98L402.63 88.13L403.18 87.02L403.56 86.01L403.96 84.59L405.28 83.23L406.16 82.76L407.46 82.28L408.36 82.21L409.08 82.38L410.91 83.35L412.81 83.65L413.04 82.22L412.96 80.96L413.14 80L413.43 79.01L413.38 78.43L411.29 75.52L408.82 70.57L408.2 69.56L407.34 68.89L408.71 66.34L408.67 64.51L408.72 64.43L408.13 63.93L407.75 63.01L405.78 59.96L404.94 59.73L402.81 59.68L401.71 59.47L401.29 59.11L399.42 57L398.74 55.83L397.73 53.36L396.89 52.09L396.06 51.18L395.26 50.54L394.36 50.08L393.26 49.71L393.22 49.66L391.4 41.57L390.77 41.17L389.09 41.38L389.01 41.56L388.68 41.95L388.24 42.34L387.83 42.52L387.39 42.37L387.11 42.03L386.87 41.65L382.54 38.55L381.24 38.11L378.21 37.83L377.42 37.61L376.72 37.15L376.26 36.62L375.46 35.38L376.42 32.48L377.24 31.83L378.93 32.65L380.3 31.71L380.99 31.07V30.46L380.34 30.3L375.82 31.59L373.42 33.87L371.89 34.34V34.16L371.85 33.77L371.64 33.38L371.13 33.19L369.82 33.26L369.42 33.19L366.63 31.55L366.47 31.03L364.8 28.01L364.55 27.24L363.92 26.55L363.12 25.97L362.33 25.55L362.05 27.46L360.57 27.74L358.84 27.2L354.92 25.24L353.68 25.28L354.23 27.19L349.84 28.92L347.56 29.4L345.13 29.32L343.87 29.03L342.65 28.58L341.46 27.9L340.35 26.92L339.43 26.63L335.28 26.64L333.94 26.29L332.96 25.45L332.2 24.52ZM360.97 17.64L360.08 16.68L359.28 16.88L359.14 17.84L359.03 18.28L358.77 18.22L358.75 18.41L359.01 18.85L359.45 19.21L360.04 19.29L360.52 19.19L360.83 19.17L361.17 19.54L361.59 20.14L361.79 19.94L361.49 18.88L361.21 18.29L360.97 17.64ZM355.24 16.21L355.85 15.65L356.06 15.32L355.67 15.15L354.49 15.11L353.47 14.88L352.48 14.25L351.68 13.36L351.22 12.33H350.67L350.2 13.11L349.72 13.7L349.33 14.29L349.16 15.11L352.27 16.6L353.77 16.89L355.24 16.21ZM347.71 15.45L348.09 14.99L348.19 14.46L347.89 13.93L347.7 13.67L347.25 13.05L346.17 12.07L345.65 11.51L345.66 11.06L345.02 10.88L344.47 10.93L343.92 11.03L343.21 11.51L343.41 12.16L343.89 12.46L344.02 12.64L344.14 13L344.47 13.14L345.56 13.77L346.14 13.97L346.44 14.58L346.79 15.13L347.29 15.48L347.71 15.45ZM337.88 10.45L338.01 10.09L337 9.91002L336.15 9.90002L334.46 10.04L333.92 10.06L332.86 10.22L332.5 10.66L332.62 11.37L331.96 11.29L331.67 11.45L331.85 11.98L331.98 12.13L332.99 11.85L334.1 11.37L334.81 10.8L336.71 10.55L337.28 10.6L337.88 10.45Z" fill="#CCCCCC" stroke="white" stroke-width="0.5"/>
<path d="M251.56 97.4L251.06 96.8L250.7 96.54L249.93 96.15L249.12 95.95L248.65 96.26V96.93L248.84 97.53L249.17 98.02L249.62 98.14L250.38 98.08L251.15 98.54L251.74 98.5L251.56 97.4ZM303.56 8.01L303.24 7.45L302.73 7.95L303.04 8.37L303.45 9.21L303.74 9.64L302.18 9.29L300.75 9.24L299.43 9.53L294.96 12.5L294.13 13.42L297.78 11.56L299.58 10.93L301.95 10.69L302.87 10.93L303.64 11.33L304.53 11.42L305.75 10.69L306.43 10.03V9.66L305.97 9.12L305.25 7.95H304.7V9.05L303.56 8.01ZM326.98 6.85L326.58 6.62L325.99 5.91L325.7 5.76L324.49 5.85L323.7 6.18L323.22 6.85L322.95 7.95L323.85 7.45L324.17 7.48L324.46 7.95L325.72 7.69L327.2 8.12L328.5 8.68L329.24 8.79L329.86 8.35L330.44 8.07L330.88 7.74L331.04 7.15L330.85 6.58L330.41 6.55L329.89 6.76L329.49 6.85L327.61 6.92L326.98 6.85ZM316.83 6.15L316.67 5.52L316.47 5.28L315.8 5.43L314.53 5.94L313.79 6.81L313.84 7.84L314.09 8.09L314.24 7.55L314.79 7.24L315.64 7.41L316.02 7.31L316.09 6.74L316.33 6.67L316.65 6.7L316.83 6.15ZM278.42 18.11L274.22 13.17L270.95 12.33V11.83L271.99 10.91L275.99 8.45L279.34 7.57L281.38 6.72L282.42 5.81L281.05 5.26L279.84 5.63L276.58 7.56L274.79 8.95L272.05 10.3L270.95 10.69L267.48 11.21L265.65 11.73L264.86 12.6L264.04 12.96L257.84 14.04L257.17 14.06L256.62 14.25L256.01 14.81L255.75 15.48L255.29 17.44L255 17.85L253.9 18.29L253.08 18.5L252.24 18.39L251.33 17.93L251.34 17.69L251.8 17.38L252.24 16.75L252.6 15.37L252.84 13.53L252.58 11.92L251.02 11L249.73 9.95L249.22 9.64L248.23 9.52L247.36 9.56L246.54 9.5L245.7 9.05L244.71 9.56L243.55 9.72L241.65 9.71L241.55 10.37L240.81 11.34L241.75 15.54L241.88 16.56L241.9 17.12L241.79 17.15L241.59 17.07L240.88 16.65L240.5 16.66L240.12 16.89L239.6 17.62L239.46 18.02L239.5 18.32L240.13 18.83L240.46 19.27L240.48 19.49L240.3 19.72L240.01 19.85L239.32 20.81L237.83 21.84L237.41 22.2L237.38 22.26L237.29 22.42L237.17 22.72L236.99 23.33L237.11 23.59L237.37 23.73L238.18 23.83L238.72 24.04L239.25 24.46L239.83 25L241.03 26.57L241.89 27.83L241.95 28.08L242.01 28.63L241.93 28.96L241.75 31.24L240.8 34.23L242 36.4L243.13 37.47L244.08 38.15L244.4 38.59V39.09L243.59 41.11L243.56 42.33L243.99 43.08L246.78 44.8L247.97 45.87L248.11 47.06L247.55 51.1L247.4 51.66L247.16 52.25L246.75 52.95L246.11 53.77L245.17 55.31L244.92 55.54L244.6 55.78L244.35 55.89L244.29 55.95L244.2 56.08L244.1 56.24L244.65 56.43L244.69 57.29L244.05 59.53L244.24 60.77L243.94 61.53L244.03 63.2L243.34 63.49L242.65 64.15L241.68 65.14L240.62 65.46L239.82 65.65H238.36L237.6 66.05L236.77 65.9L233.86 67.15L230.06 67.76L228.39 67.61L226.42 67.13L225.06 67.38L222.82 67.56L220.86 67.25L218.09 67.96L209.61 67.67L208.69 67.96L207.57 68.44L206.69 69.21L206.27 70.46L206.97 71.81L208.22 72.43L209.57 72.59L210.57 72.58L210.65 72.9L211.49 74.36L211.85 74.81L212.47 75.04L213.94 75.2L214.6 75.58L215.71 76.5L216.78 77.11L227.22 81.33L228.5 82.67L228.77 83.83L229.43 84.94L231.29 87.02L232.34 87.42L235.78 87.85L236.59 87.86L236.39 87.3L236.27 87.09L236.05 86.77L237.44 86.96L237.91 86.71L238.11 85.74H238.57L239.58 86.2L241.3 86.39L242.92 86.3L243.64 85.98L244.04 85.1L244.92 85.12L245.78 85.5L246.16 85.74L249.22 86.77L249.54 87.02L249.72 87.72L249.96 87.86L250.4 87.77L250.62 87.56L250.76 87.36L250.96 87.27L251.82 87.02L252.9 85.98L253.47 85.74L254.26 85.98L255.68 87.02L256.52 87.27H260.06L262.86 88.47L264.48 93.76L267.15 94.97L268.05 94.75L268.26 94.26L268.35 93.72L268.89 93.33L269.49 93.51L269.99 93.99L270.58 94.29L271.45 93.88L271.76 93.28L271.68 91.79L271.91 91.12L272.37 90.78L274.43 90.03L275.11 90.6L276.17 92.9L276.48 95.41L275.43 97.14L276.96 97.25L277.54 94.79L277.49 85.14L276.46 81.73L276.44 80.74L276.93 79.92L277.75 79.64L278.74 79.86L279.73 80.5L281.68 83.53L282.02 83.76L281.46 87.14L281.51 88.4L281.77 89.17L283.66 93.2L284.41 94.42L285.53 95.22L288.42 95.81L291.19 97.23L292.63 97.73L299.03 98.38L309.65 97.19L318.72 97.83L322.01 97.73V97.72L321.46 96.85L321.3 96.36L321.17 95.46L321.14 94.08L321.06 93.66L320.92 93.3L320.71 92.98L320.18 92.4L319.7 92.22L318.9 92.15L317.36 92.35L316.31 92.63L315.62 92.67L315.28 92.53L314.8 92.06L314.43 91.89L313.74 91.9L313.2 91.99L312.03 92.03L311.73 92.13L311.53 92.31L311.33 92.55L311.12 92.74H310.85L310.32 92.53L309.3 91.91L306.73 90.85L304.41 89.52L303.61 88.29L302.71 87.42L299.6 85.22L299.91 83.74L299.84 83.08L299.73 82.78L299.69 82.42L299.62 82.24L299.46 82.15L299.17 82.14L297.98 82.28L297.68 82.2L297.47 82.04L297.33 81.77L297.21 81.36L297.13 80.63L297.21 80.04L297.36 79.35L297.75 78.24L297.85 77.61V77.2L297.62 76.68L297.53 76.36L297.63 75.94L297.85 75.46L298.43 74.6L298.52 74.19L298.43 73.87L298.16 73.71L297.95 73.62H297.74L297.5 73.7L297.15 73.86L296.8 73.98L296.51 74.01L296.33 73.96L296.25 73.8L296.41 73.38L297.56 71.51L297.81 70.96L298.28 69.66L298.32 69.32L298.21 69.14L297.92 69.01L297.54 68.94L297.32 68.82L297.3 68.67L297.85 68.01L298.74 67.37L299.14 67.01L299.36 66.75L300.23 65.92L300.68 65.63L302.24 64.9L303.12 64.35L303.41 64.11L304.05 63.67L304.63 63.56L305.44 63.59L309.15 64.58L309.71 64.61L311.44 64.47L318.24 65.2L318.95 65.44L319.3 65.49L319.78 65.46L321.41 64.69L321.91 64.52L322.37 64.42L322.98 64.34L323.28 64.28L323.61 63.94L324.08 63.28L325.7 60.23L325.96 59.9L327.44 58.88L326.38 57.04L325.92 56.54L325.59 55.74L325.38 54.93L325.21 53.36L324.85 52.74L324.52 52.37L324.34 52.03L324.27 51.45L324.65 47.7L324.62 47L324.5 46.48L324.16 45.93L323.63 45.37L323.5 45.01L323.59 44.56L324 43.96L324.69 43.66L325.07 43.43L325.18 43.02L324.99 42.42L323.87 40.5L323.35 38.85L323.03 38.15L322.94 37.88L322.63 37.19L322.43 36.88L321.89 36.64L321.17 36.65L319.73 37.21L318.27 38.28L317.73 38.52L316.55 38.6L315.06 37.3L313.83 36.49L313.52 36.21L313.31 35.9L313.09 35.46L312.63 34.79L311.87 33.96L311.62 33.57L311.48 33.2L311.4 32.68L311.25 32.42L310.98 32.22L310.7 32.07L310.58 31.84L310.68 31.54L311.2 31.24L311.57 30.86L311.97 30.28L312.16 29.12L312.07 28.47L311.78 27.26L311.74 26.36L311.79 25.73L311.99 24.97L312.24 24.62L312.63 24.42L314.46 24.47L314.78 24.44L315.81 24.04L316.17 23.95L316.56 23.93L316.85 23.98L317.15 24.12L317.79 24.57L318.12 24.64L318.55 24.59L319.3 24.36L319.83 23.93L320.19 23.3L320.24 21.96L320.18 21.14L320.39 19.3L321.57 17.02L322.03 16.83L321.94 16.66L319.88 15.11L321.82 11.27L322.44 10.69V10.18L321.72 9.78L320.8 9.61L319.79 9.73L318.83 10.18L320.19 11.73L319.79 13.24L318.41 14.45L316.87 15.11L315.03 15.18L311.59 14.46L309.78 14.51L298.21 16.75L296.71 17.24L295.04 17.55L293.68 17.12L293.13 15.36L293.1 14.09L292.96 13.8L292.68 13.95L292.17 13.97L289.11 13.42L288.64 13.48L287.13 13.87L286.29 13.97L285.92 14.38L285.14 16.34L284.78 17L283.67 18.34L283.15 19.16L282.52 19.52L281.05 19.49L278.42 18.11ZM313.23 6.27L308.63 5.73L306.05 5.15L303.99 4.37L302.56 4.19L302.26 4.63L302.69 4.84L303.23 5.58L303.95 5.76L306.04 6.53L306.84 6.59L308.2 6.44L308.71 6.53L309.58 6.8L311.14 7.52L311.44 7.32L311.77 6.81L312.3 6.84L312.84 7.14L313.28 6.99L313.34 6.5L313.23 6.27ZM298.46 1L296.77 1.2L296.27 1.67L296.93 1.89L297.25 2.24L297.61 2.8L298.45 3.15L299.32 3.27L300.14 3.54L300.99 3.68L301.56 3.02L301.32 2.33L300.98 2.21L300.48 2.24L298.46 1Z" fill="#CCCCCC" stroke="white" stroke-width="0.5"/>
<path d="M168.32 55.77V55.36L167.77 54.51L167.43 54.96L166.88 55.42L167.54 56.4L168.32 55.77ZM180.13 56.99L180.51 56.45L180.94 55.05L180.72 53.2L180.45 52.25L180.34 51.93L180.06 51.33L179.7 50.99L179.43 51.06L179.46 51.48L179.65 52.15L179.49 57.17L179.83 57.5L180.13 56.99ZM178.98 16.94L178.66 16.39L175.95 17.96L174.44 17.85L172.67 18.59L165.84 19.49L159.16 19.17L157.54 19.76L155.77 20.06L153.13 19.63L150.74 19.68L149.7 21.4L148.91 23.38L148.76 23.47L148.69 23.92L149.03 26.81V27.17L148.77 28.76L150.62 32.38L150.96 34.32L150.86 35.04L149.49 36.66L149.11 36.99L148.53 37.21L146.74 37.41L146.39 37.56L146.29 37.71L146.41 37.86L146.57 37.98L147.39 38.35L147.68 38.63L148.05 39.13L149.27 41.24L150.16 42.44L150.42 42.64L151.1 43.02L151.52 43.33L151.99 43.99L152.54 44.97L153.99 48.38L154.33 49.01L156.77 51.76L157.34 52.63L157.56 53.1L157.59 53.41L158.27 53.18L159.36 52.44L159.8 51L159.83 49.43L160.08 47.88L160.83 46.58L162.36 45.79L163.94 45.76L171.72 47.85L174.33 47.23L177.76 47.97L178.49 47.8L179.91 47.05L180.78 46.89L184.66 47.84L189.5 47.19L189.77 45.5L189.52 44.49L188.56 43.88L187.63 43.34L186.13 41.21L184.62 38.11V35.17L185.22 32.56L186.13 30.6V28.47L186.23 25.7L185.56 23.03L185.4 22.84L185.14 22.64L184.98 22.72L184.79 22.74L182.08 21.58L181.53 21.17L181.29 20.82L181.36 20.65L182.83 19.4L183.45 18.46L183.36 17.73L182.62 16.71L182.03 16.55L181.52 16.68L181.12 17.04L180.24 17.5L178.98 16.94Z" fill="#CCCCCC" stroke="white" stroke-width="0.5"/>
<path d="M210.98 7.24997L208.89 7.77997L207.28 7.94997L202.19 6.71997L199.85 7.68997L194.7 8.54997L191.31 10.02L188.37 10.47L187.23 11.16L185.05 12.87L183.89 13.59L183.19 13.86L182.28 13.97L181.92 14.22L181.18 15.35L180.78 15.61L179.15 16.11L178.66 16.39L178.98 16.94L180.24 17.5L181.12 17.04L181.52 16.68L182.03 16.55L182.62 16.71L183.36 17.73L183.45 18.46L182.83 19.4L181.36 20.65L181.29 20.82L181.53 21.17L182.08 21.58L184.79 22.74L184.98 22.72L185.14 22.64L185.4 22.84L185.56 23.03L186.23 25.7L187.43 25.21L187.99 25.04L188.51 25.38L189.3 26.36L189.71 26.45L190.22 26.23L191.19 25.37L191.47 24.81L192.14 24.15L195.02 24.42L196.92 24.29L197.7 24.64L198.43 24.74L199.31 24.73L199.95 24.48L200.39 23.86L200.96 22.83L203.46 20.03L203.53 19.73L203.43 19.35L202.81 18.07L202.69 17.37L202.72 16.86L202.9 16.18L202.95 15.78L202.94 15.39L202.82 15.08L202.78 14.86L202.86 14.74L203.28 14.71L203.69 15.16L204.21 15.91L204.46 15.95L204.89 15.66L205.37 15.21L205.74 14.2L205.82 13.78L205.95 13.51L206.21 13.27L206.51 13.17L207.17 13.5L207.59 13.8L210.18 16.87L210.89 15.55L210.99 14.2L211.07 13.83L211.26 13.61L211.65 13.27L211.72 12.92L211.52 12.21L211.49 11.75L211.67 11.47L212.36 11.44L212.74 11.12L211.5 9.54997L211.09 8.82997L211.22 8.02997L210.98 7.24997Z" fill="#CCCCCC" stroke="white" stroke-width="0.5"/>
<path d="M664 220.53L662.71 220.41L662.17 220.19L661.93 219.88L662.25 219.06L661.55 217.91L658.06 215.3L657.05 214.85L656.87 214.95L656.7 215.44L656.88 216.12L657.41 217.38L657.47 217.91L657.29 218.32L655.97 218.86L655.6 219.09L654.67 219.92L653.52 220.69L653.35 220.96L653.39 221.17L653.65 221.27L653.84 221.52L653.98 222.26L654.47 223.44L654.27 225.21L653.82 226.89L653.67 227.14L652.29 228.46L652.03 227.85L652.6 226.61L652.67 226.28L652.62 226.13L652.26 226.25L651.92 226.27L651.55 226.16L650.88 225.82L650.31 225.61L649.7 225.47L649.04 225.45L647.25 225.55L645.34 228.16L644.31 228.99L643.74 229.04L643.48 228.7L643.11 227.67L642.74 226.92L642.67 226.5V226.01L642.73 225.54L642.74 225.06L642.57 224.58L642.19 224.16L641.45 223.71L640.89 223.75L640.57 223.86L640.5 224.21L640.78 225.67L640.79 226.38L640.68 227.07L640.43 227.6L640.08 228.07L639.64 228.53L639.38 228.88L639.25 229.19L639.18 229.93L639.12 230.29L638.87 230.82L638.48 230.98H637.79L636.19 230.67L635.47 230.61L634.29 230.64L633.73 231.13L633.27 231.92L631.72 238.23L631.73 238.6L631.71 238.84L631.82 239.61L630.69 240.77L630.05 241.49L629.57 241.78L629.51 242.18L629.73 242.72L630.14 245.05L630.41 251.66L629.64 253.12L627.52 255.12L626.41 255.9L625.36 256.46L624.48 256.82L623.77 256.99L623.25 257.04L621.53 256.93L619.44 256.57L618.95 256.87L618.96 257.09L619.06 257.53L619.64 259.11L619.55 259.48L619.04 259.62L616.99 259.12L616.38 258.89L615.94 258.78L615.8 258.91L615.54 259.6L615.28 259.74L613.55 259.77L612.25 259.97L611.6 259.98L611.2 259.93L611.06 259.85L610.79 259.74L609.57 259.46L608.99 259.22L608.53 258.89L607.88 258.14L607.43 257.77L607 257.78L605.6 258.14L605.2 258.3L604.94 258.48L604.8 258.74L604.53 259.02L604.28 259.03L604.01 258.85L603.82 258.63L603.63 258.48L603.43 258.39L603.17 258.33L602.93 258.25L602.68 258.09L602.38 257.81L602.22 257.62L601.49 256.94L600.29 257.68L599.07 258.94L598.35 259.26L597.22 259.48L595.6 259.5L594.57 259.41L592.81 259.52L592.27 259.65L591.91 259.83L589.12 263.6L588.73 263.87L588.21 264.03L583.92 264.5L583.28 264.71V264.94L583.32 265.19L583.55 265.56L584.21 266.93L584.25 268.71L589.83 268.46L591.57 268.01L593.13 267.23L595.51 265.3L596.64 264.8L598.18 264.91L599.8 265.28L601.41 265.35L602.93 264.56L612.48 263.75L621.85 264.31L623.48 263.96L626.57 262.89L628.16 262.66H633.51L636.32 262.26L642.2 260.65L645.59 260.52L652.23 261.29L661.96 263.65L663.03 263.49L664.01 262.88L665.49 262.45L668.32 262.12L669.82 262.3L672.7 263.07L674.1 263.25L679.38 263.06L680.99 263.25L683.56 264.59L686.61 266.77L689.62 268.38L692.06 268.01L693.59 268.92L695.8 269.35L698.15 269.39L700.15 269.13L700.6 268.89L701.22 268.17L701.43 268.01L701.94 268.1L702.67 268.48L705.13 269.05L705.94 269.13L706.02 269.12L701.55 262.83L699.97 261.34L699.51 260.79L698.54 259.17L698.2 257.99L698.1 255.07L699.1 254.65H699.33L699.63 254.45L700.51 253.36L702.25 252.49L702.46 252.21L702.58 251.79L702.52 251.09L702.34 250.74L701.88 250.47L701.57 250.45L701.35 250.39L701.16 250.23L700.93 249.33L700.98 247.25L700.28 246.74L700.15 246.58L700.08 246.47L699.71 245.42L699.53 245.09L699.16 243.96L698.74 242.08L698.7 241.58L698.78 241.22L699.11 240.59L699.3 240.3L699.5 240.11L699.74 239.92L699.9 239.75L700.03 239.33L700.13 236.79L699.95 235.5L699.17 233.89L698.87 233.22L699.01 233L699.36 232.7L700.29 232.32L701.13 231.79L701.98 231.09L702.72 229.96L703.01 229.33L703.1 228.81L703.11 228.43L703.16 228.14L703.29 227.89L703.48 227.79L703.86 227.87L704.13 228L704.82 228.24L705.18 228.18L705.49 227.93L705.83 227.27L706.51 226.71L704.6 224.1L703.44 223.09L702.97 222.47L702.89 222.18L703.2 222L703.47 221.78L703.65 221.5L703.77 221.24L703.84 220.98L703.99 220.69L704.17 220.47L704.45 220.3L704.94 220.1L705.07 219.98L705.19 219.61L705.43 217.68L705.39 217.16L705.24 216.91L704.56 217.24L704.19 217.37L703.89 217.43L702.98 217.44L699.75 218.05L698.38 217.62L697.2 216.67L696.79 216.56L696.48 216.64L696.23 216.86L695.95 217.01L695.51 217.16L695.23 217.3L695 217.48L694.72 217.83L693.25 219.35L692.14 220.24L691.59 220.59L691.25 220.68L690.31 220.17L689.83 219.99L689.29 219.72L689.12 219.81L688.92 220.08L688.82 220.4L688.8 220.64L688.87 220.89L689.26 221.75L689.04 222.45L688.82 223.02L685.63 225.25L682.5 225.53L680.15 225.2L679.33 225.28L678.74 225.44L673.41 227.91L671.08 227.71L669.85 227.07L669.58 226.8L669.48 226.59L669.37 226.32L669.07 225.05L667.85 224.73L665.67 223.23L665.12 222.77L664.87 222.44L664.96 222.28L665.15 222.05L665.34 221.72L665.52 221.35L665.59 220.81L665.41 220.61L664.9 220.51L664 220.53Z" fill="#CCCCCC" stroke="white" stroke-width="0.5"/>
<path d="M637.39 161.34L637.17 161.16L634.79 160.22L633.74 159.35L631.93 158.78L623.11 158.52L621.76 158.96L621.26 160.02L621.51 161.29L622.4 162.34L623.33 162.7L625.74 163.02L626.88 163.43L626.03 163.76L623.86 165.04L623.47 165.07L622.99 165.01L622.57 165.03L622.4 165.28L622.21 165.66L621.77 166.11L621.26 166.5L620.89 166.66L620.2 166.41L619.46 165.03L618.83 164.5L617.95 164.55L617.13 164.94L616.41 164.98L615.81 163.97L616.1 163.85L616.82 163.43H615.31V162.89L619.23 162.72L620.08 161.68L620.34 158.52H619.84V160.18H619.38L618.43 158.93L616.8 157.95L615.04 157.4L613.75 157.43L612.33 158L612.3 158.51L612.79 159.65L613.22 160.34L613.7 160.7L615.31 161.26V161.75L613.74 161.65L612.35 161.34L611.11 160.78L610 159.92L608.82 159.45L607.34 159.2L606.35 158.68L606.71 157.43L606.59 156.6L607.32 156.63L608 157.33L607.72 158.52L611.85 156.62L613.04 156.35L613.58 155.85L613.15 154.73L612.15 153.62L611.01 153.11L610.21 153.06L608.22 152.57L606.98 151.74L606.66 151.61L606.08 151.96L605.66 151.98L601.13 150.41L601 151.36L600.7 152.16L599.67 153.7H600.17L599.88 154.65L599.7 155.61L599.37 156.42L598.66 156.94L598.87 154.97L595.11 156.96L594.08 155.01L594.36 153.89L595.1 153.14L596.15 152.71L598.76 152.54L599.66 152.27L600.24 151.46L600.67 149.82H599.16L599.67 148.74L598.71 148L594.63 147.12L591.97 145.83L590.87 145.06L590.69 145.21L590.09 145.79L588.92 146.27L586.82 147.92L585.89 148.35L583.89 148.85L582.57 148.91L580.86 148.49L579.4 148.32L578.23 151.95L577.62 152.68L577.17 153.7L577.11 154.45L577.43 155.74L577.79 156.21L578.12 156.44L580.94 156.42L581.37 156.54L581.52 156.82L581.4 157.1L577.24 160.97L576.87 161.89L576.82 162.44L577.14 167.54L574.45 172.02L573.98 172.59L573.02 173.42L572.55 173.58L570.39 174.04L570.02 174.2L569.33 174.64L568.46 175.06L567.42 176.51L565.3 181.64L564.69 181.94L564.08 181.76L563.64 181.54L562.91 180.83L562.56 180.57L562.22 180.49L561.77 180.72L561.28 181.12L560.53 182.77L559.78 182L559.55 181.47L559.56 181.22L559.61 181L560.1 180.26L560.16 180.04L560.14 179.86L559.99 179.66L559.63 179.54L559 179.43L557.77 179.33L556.49 179L556.32 178.84L556.26 178.64L556.29 178.17L556.23 177.8L556.08 177.44L555.44 176.46L555.22 176.21L554.9 175.79L554.78 175.58L554.7 175.39L554.66 175.22L554.55 175.24L554.3 175.41L553.79 176.03L552.73 176.56L552.47 176.75L552.32 177.01L552.33 177.47L552.38 177.81L552.56 178.41L552.55 178.51L552.25 179.2L552.17 179.75L551.93 180.3L551.45 180.92L550.11 181.19L549.12 181.29L548.18 181.23H547.98L547.79 181.49L547.59 182.64L546.52 182.8L545.03 183.24L544.28 183.66L543.89 184.72L543.9 185.71L543.75 185.96L543.52 186.15L542.96 186.09L542.58 186L541.74 185.94L541.33 185.87L541.06 185.63L540.68 185.13L540.39 184.64L539.99 184.08L539.58 183.91L539.09 183.99L538.53 184.39L538.52 185.02L538.64 185.52L538.71 186.03L538.66 186.48L538.35 187.76L538.28 188.37L538.26 188.92L538.31 189.38L537.72 189.8L536.61 190.26L532.11 191.13L530.37 191.01L526.54 196.44L525.56 202.88V202.89L526.22 203.08L528.18 204.44L529.44 204.84L533.06 205.06L534.01 204.99L534.28 204.81L534.77 205.1L536.2 205.53L536.78 205.6L538.96 205.48L539.51 205.6L540.01 205.85L541.08 206.67L541.73 206.6L544.6 205.06L548.34 206.45L549.63 206.67H550.44L550.94 206.54L551.41 206.33L552.19 206.13L552.7 205.92L553.08 205.7L553.5 205.69L554.2 206.13L555.16 205.02L557.09 204.18L559.41 203.63L561.52 203.44L561.99 203.61L562 203.6L562.31 203.38L563.45 202.85L563.76 202.66L563.9 202.49L563.99 202.3L564.16 201.8L564.42 201.36L565.16 200.51L565.33 200.12L565.48 199.67L565.57 198.83L565.78 198.47L566.04 198.38L566.44 198.83L566.74 199.58H567.04L567.51 199.34L568.66 198.51L569.22 198.26H569.69L569.97 198.74L570.16 199.21L571.88 199.69L579.11 199.9L581.79 200.91L582.86 201.68L583.35 201.85L584 201.83L585.21 201.44L586.21 201.39L587.3 201.24L588.94 200.68L592.02 201.23L592.61 201.15L594.08 201.13L597.22 201.5L598.88 201.49L599.97 201.77L600.65 202.33L602.02 205.27L602.8 205.61L604.02 204.56L604.33 204.35L607.29 203.14L608 202.88L608.74 202.37L608.95 202.02L609 201.54L608.72 200.77L608.33 200.21L607.53 199.32L607.37 198.88L607.35 198.26L607.46 197.23L607.67 196.51L608.2 195.47L609.55 193.71L609.8 192.96L609.91 191.86L609.84 186.28L610.78 183.58L611.65 183.98L612.39 184.65L612.79 184.93L613.12 185.07L613.57 185.1L614.09 185.06L615.28 184.78L619.16 183.09L620.12 182.84L620.82 182.79L621.25 182.95L621.61 183.01L622.12 182.95L622.38 182.72L622.59 181.54L623.47 179.33L624.86 177.9L626.68 176.46L627.1 176.22L628.29 175.21L631.56 173.1L633.16 172.42L635.15 171.18L635.55 170.66L635.67 170.16L635.41 168.75L635.44 168.25L635.82 167.73L636.11 167.47L636.49 167.22L637.05 165.9L637.34 161.44L637.39 161.34Z" fill="#CCCCCC" stroke="white" stroke-width="0.5"/>
<path d="M698.39 200.97L697.8 200.09L696.73 198.08L696.08 197.47L695.19 197.35L691.55 198.01L691.61 199.42L692.36 200.43L693.52 201.04L694.82 201.24L697.27 201.91L698.65 201.92L698.39 200.97ZM651.16 173.18L650.86 172.23L650.91 170.54L650.66 169.9L650.34 168.04L647.99 166.46L640.16 163.47L639.1 162.78L637.39 161.34L637.34 161.44L637.05 165.9L636.49 167.22L636.11 167.47L635.82 167.73L635.44 168.25L635.41 168.75L635.67 170.16L635.55 170.66L635.15 171.18L633.16 172.42L631.56 173.1L628.29 175.21L627.1 176.22L626.68 176.46L624.86 177.9L623.47 179.33L622.59 181.54L622.38 182.72L622.12 182.95L621.61 183.01L621.25 182.95L620.82 182.79L620.12 182.84L619.16 183.09L615.28 184.78L614.09 185.06L613.57 185.1L613.12 185.07L612.79 184.93L612.39 184.65L611.65 183.98L610.78 183.58L609.84 186.28L609.91 191.86L609.8 192.96L609.55 193.71L608.2 195.47L607.67 196.51L607.46 197.23L607.35 198.26L607.37 198.88L607.53 199.32L608.33 200.21L608.72 200.77L609 201.54L608.95 202.02L608.74 202.37L608 202.88L607.29 203.14L607.65 203.76L607.96 204.14L608.37 204.41L608.92 204.54L609.65 204.27L610.36 203.86H610.59L610.85 204.06L611.53 205.2L612.01 205.61L612.6 205.87L613.67 206.09L614.22 206.28L614.93 206.33L615.68 206.17L617.66 205.13L618.47 205.18L618.89 206.47L618.97 207.05L619.02 207.98L618.9 209.14V209.48L619.24 209.76L619.91 210.11L623.36 210.94L624.69 211.53L628.1 213.57L630.66 214.35L631.3 214.63L631.53 214.62L631.74 214.5L631.95 214.32L632.1 214.21L632.43 214.13L632.64 214.16L632.9 214.25L633.17 214.45L633.39 214.98L633.45 215.38L633.04 217.04L633.94 217.14L635.58 217.78L637.44 218.12L638.35 218.4L639.85 219.1L641.84 219.57L642.48 219.9L643.25 220.43L645.43 222.66L647.25 225.55L649.04 225.45L649.7 225.47L650.31 225.61L650.88 225.82L651.55 226.16L651.92 226.27L652.26 226.25L652.62 226.13L652.67 226.28L652.6 226.61L652.03 227.85L652.29 228.46L653.67 227.14L653.82 226.89L654.27 225.21L654.47 223.44L653.98 222.26L653.84 221.52L653.65 221.27L653.39 221.17L653.35 220.96L653.52 220.69L654.67 219.92L655.6 219.09L655.97 218.86L657.29 218.32L657.47 217.91L657.41 217.38L656.88 216.12L656.7 215.44L656.87 214.95L657.05 214.85L658.06 215.3L661.55 217.91L662.25 219.06L661.93 219.88L662.17 220.19L662.71 220.41L664 220.53L664.9 220.51L665.41 220.61L665.59 220.81L665.52 221.35L665.34 221.72L665.15 222.05L664.96 222.28L664.87 222.44L665.12 222.77L665.67 223.23L667.85 224.73L669.07 225.05L669.37 226.32L669.48 226.59L669.58 226.8L669.85 227.07L671.08 227.71L673.41 227.91L678.74 225.44L679.33 225.28L680.15 225.2L682.5 225.53L685.63 225.25L688.82 223.02L689.04 222.45L689.26 221.75L688.87 220.89L688.8 220.64L688.82 220.4L688.92 220.08L689.12 219.81L689.29 219.72L689.83 219.99L690.31 220.17L691.25 220.68L691.59 220.59L692.14 220.24L693.25 219.35L694.72 217.83L695 217.48L695.23 217.3L695.51 217.16L695.95 217.01L696.23 216.86L696.48 216.64L696.79 216.56L697.2 216.67L698.38 217.62L699.75 218.05L702.98 217.44L703.89 217.43L704.19 217.37L704.56 217.24L705.24 216.91L705.39 217.16L705.43 217.68L705.19 219.61L705.07 219.98L704.94 220.1L704.45 220.3L704.17 220.47L703.99 220.69L703.84 220.98L703.77 221.24L703.65 221.5L703.47 221.78L703.2 222L702.89 222.18L702.97 222.47L703.44 223.09L704.6 224.1L706.51 226.71L707.35 226.48L708.77 225.47L709.33 225.37L709.81 225.52L710.12 225.81L710.82 226.29L711.23 226.69L711.49 227.12L711.58 227.26L712.08 227.71L712.73 228.12L713.05 228.25L713.38 228.21L714.73 227.55L715.01 227.52L715.28 227.71L715.38 227.95L716.46 228.76L717.13 227.56L717.36 225.2L717.54 224.76L718.53 223.85L720.2 222.87L720.69 222.74L721.08 222.82L721.69 223.35L722.05 223.42L722.51 223.35L723.87 222.61L725.57 221.96L726.04 221.84L726.44 221.89L726.9 222.27L728.99 224.51L730.62 225.86L733.01 226.06L735.01 227.47L735.49 227.56L735.78 227.48L735.85 227.2L735.86 226.98L735.8 226.76L735.71 226.53L735.52 226.18L735.25 225.84L734.81 225.48L734.23 225.41L734.14 225.38L734.13 225.26L734.17 225.01L734.32 224.46L734.3 224.26L734.22 224.03L733.93 223.41L734.09 223.26L734.49 223.14L736.48 222.84L737.16 222.91L737.88 223.29L740.36 225.1L743.05 226.36L743.86 226.85L744.61 227.41L745.6 227.86L746.07 227.98L746.36 227.84L746.47 227.59L746.55 227.14L746.66 226.82L746.77 226.59L746.97 226.36L747.18 226.21L750.16 224.99L749.54 222.88L749.63 221.35L750.04 220.12L750.42 219.37L750.94 218.6L751.34 218.14L751.9 217.65L752.16 217.52L752.46 217.48L753.04 217.5L753.27 217.44L753.52 217.3L754.24 216.72L755.17 216.23L754.67 215.86L754.2 215.57L753.89 215.54L753.71 215.32L753.66 214.46L752.61 212.58L752.92 212.46L753.66 212.04L752.51 211.23L750.99 210.74L745.17 210.05L743.81 209.16L742.76 208.09L741.54 207.21L739.73 207.42L738.55 207.39L738.02 206.94L737.78 206.19L737.19 205.9L736.45 205.72L735.74 205.33L734.3 204.84L728.38 205.6L729.42 206.67L728.88 207.01L728.26 206.97L727.59 206.66L726.91 206.13L726.84 206.66L726.51 207.37L726.36 207.79L725.68 205.96L724.47 205.89L723.19 206.23L722.33 205.6L722.1 205.75L722.03 205.86L722.01 205.97L721.88 206.13L719.82 205.6V205.06L721.02 204.72L720.77 204.18L719.86 203.67L716.42 202.95L715.29 202.85L715.79 203.44L714.43 203.06L712.49 203.08L710.69 203.55L709.76 204.56L711.22 204.94L714.01 206.35L715.29 207.21L711.13 207.68L709.33 207.29L708.7 205.6L708.29 206.33L708.2 206.67H707.7L707.33 205.58L706.69 204.56L708.45 204.23L707.94 203.33L706.43 202.37L705.14 201.83L703.7 201.66L701.78 201.7L700.02 202.21L699.1 203.44L699.85 203.38L700.49 203.48L701.71 203.98L701.16 205.6L700.51 205.25L699.94 204.85L699.45 204.42L699.1 203.98H698.64L697.5 205.42L693.16 204.39L693.57 206.13L691.93 205.58L691.18 205.04L691.3 204.27L691.62 203.45L690.94 203.21L689.04 203.44L689.55 202.06L689.4 200.71L688.69 199.49L687.53 198.55L686.78 200.11L683.26 203.1L682.45 204.81L681.95 205.64L680.79 205.25L677.95 203.64L677.1 201.94L676.41 201.24L676.75 200.42L676.95 199.49L677.02 198.49L676.96 198.01L677.71 196.11L677.81 195.1L677.42 194.19L682.25 194.76L683.68 194.25L687.71 193.62L687.95 193.75L688.49 194.19L688.81 194.68L688.98 195.25L689.22 195.71L689.77 195.91L690.77 196.41L691.95 197.2H692.98L693.57 195.32L692.55 195.33L691.93 194.85L691.63 194.02L691.55 192.92L691.08 192.54L688.03 190.97L686.42 190.75L684.21 190.85L682.27 191.43L681.44 192.68H680.99L680.35 191.33L679.4 189.97L679.35 189.01L681.44 188.86L681.31 188.32L681.02 187.99L680.58 187.83L679.98 187.74L680.43 187.44L680.86 187.29L681.34 187.36L681.95 187.74L682.86 187.17L683.32 187.94L683.59 189.13L683.96 189.89L685.17 189.92L686.37 189.18L687.4 188.14L688.03 187.24L688.19 186.78L688.35 185.6L688.49 185.09L688.78 184.66L689.61 183.97L690.04 183.43L691.55 180.19L689 176.3L687.32 175.21L684.41 175.83L683.75 173.1L682.3 171.85L680.22 171.51H677.67L676.39 171.88L675.67 171.84L675.36 171.25L675.14 171.03L674.03 170.53L673.62 170.44L669.82 173.18L670.2 173.89L669.81 174.23L669.19 174.12L668.58 172.74L667.87 172.34L666.94 172.15L666.03 172.11L665.39 172.33L664.25 173.36L663.78 173.67L662.86 173.82L660.89 173.78L660.27 173.67L660.33 175.08L659.89 175.69L659.26 175.43L658.76 174.21L658.59 174.57L658.36 174.96L658.21 175.34H657.75V174.35L657.47 173.61L656.95 173.05L656.2 172.59L655.14 172.32L654.32 172.52L653.13 173.18L652.4 173.96L651.89 174.02L651.16 173.18Z" fill="#CCCCCC" stroke="white" stroke-width="0.5"/>
<path d="M535.77 273.41L537.19 273.32L541.74 272.09L544.85 272.34L547.5 272.07L552.17 270.92L559 270.74L560.38 270.54L562.45 269.73L563.76 269.66V269.13H561.75L562.92 267.73L564.82 267.23L566.97 267.4L568.84 268.01L569.33 267.22L570.05 266.89L570.8 267L571.36 267.53H571.86L572.88 266.77L574.76 267.12L578.44 268.59L580.31 268.9L584.25 268.71L584.21 266.93L583.55 265.56L583.32 265.19L583.28 264.94V264.71L583.92 264.5L588.21 264.03L588.73 263.87L589.12 263.6L591.91 259.83L592.27 259.65L592.81 259.52L594.57 259.41L595.6 259.5L597.22 259.48L598.35 259.26L599.07 258.94L600.29 257.68L601.49 256.94L602.22 257.62L602.38 257.81L602.68 258.09L602.93 258.25L603.17 258.33L603.43 258.39L603.63 258.48L603.82 258.63L604.01 258.85L604.28 259.03L604.53 259.02L604.8 258.74L604.94 258.48L605.2 258.3L605.6 258.14L607 257.78L607.43 257.77L607.88 258.14L608.53 258.89L608.99 259.22L609.57 259.46L610.79 259.74L611.06 259.85L611.2 259.93L611.6 259.98L612.25 259.97L613.55 259.77L615.28 259.74L615.54 259.6L615.8 258.91L615.94 258.78L616.38 258.89L616.99 259.12L619.04 259.62L619.55 259.48L619.64 259.11L619.06 257.53L618.96 257.09L618.95 256.87L619.44 256.57L621.53 256.93L623.25 257.04L623.77 256.99L624.48 256.82L625.36 256.46L626.41 255.9L627.52 255.12L629.64 253.12L630.41 251.66L630.14 245.05L629.73 242.72L629.51 242.18L629.57 241.78L630.05 241.49L630.69 240.77L631.82 239.61L631.71 238.84L631.73 238.6L631.72 238.23L633.27 231.92L633.73 231.13L634.29 230.64L635.47 230.61L636.19 230.67L637.79 230.98H638.48L638.87 230.82L639.12 230.29L639.18 229.93L639.25 229.19L639.38 228.88L639.64 228.53L640.08 228.07L640.43 227.6L640.68 227.07L640.79 226.38L640.78 225.67L640.5 224.21L640.57 223.86L640.89 223.75L641.45 223.71L642.19 224.16L642.57 224.58L642.74 225.06L642.73 225.54L642.67 226.01V226.5L642.74 226.92L643.11 227.67L643.48 228.7L643.74 229.04L644.31 228.99L645.34 228.16L647.25 225.55L645.43 222.66L643.25 220.43L642.48 219.9L641.84 219.57L639.85 219.1L638.35 218.4L637.44 218.12L635.58 217.78L633.94 217.14L633.04 217.04L633.45 215.38L633.39 214.98L633.17 214.45L632.9 214.25L632.64 214.16L632.43 214.13L632.1 214.21L631.95 214.32L631.74 214.5L631.53 214.62L631.3 214.63L630.66 214.35L628.1 213.57L624.69 211.53L623.36 210.94L619.91 210.11L619.24 209.76L618.9 209.48V209.14L619.02 207.98L618.97 207.05L618.89 206.47L618.47 205.18L617.66 205.13L615.68 206.17L614.93 206.33L614.22 206.28L613.67 206.09L612.6 205.87L612.01 205.61L611.53 205.2L610.85 204.06L610.59 203.86H610.36L609.65 204.27L608.92 204.54L608.37 204.41L607.96 204.14L607.65 203.76L607.29 203.14L604.33 204.35L604.02 204.56L602.8 205.61L602.02 205.27L600.65 202.33L599.97 201.77L598.88 201.49L597.22 201.5L594.08 201.13L592.61 201.15L592.02 201.23L588.94 200.68L587.3 201.24L586.21 201.39L585.21 201.44L584 201.83L583.35 201.85L582.86 201.68L581.79 200.91L579.11 199.9L571.88 199.69L570.16 199.21L569.97 198.74L569.69 198.26H569.22L568.66 198.51L567.51 199.34L567.04 199.58H566.74L566.44 198.83L566.04 198.38L565.78 198.47L565.57 198.83L565.48 199.67L565.33 200.12L565.16 200.51L564.42 201.36L564.16 201.8L563.99 202.3L563.9 202.49L563.76 202.66L563.45 202.85L562.31 203.38L562 203.6L561.99 203.61L563.6 204.19L565.05 205.92L566.3 207.89L567.79 209.36L568.3 207.88L569.73 208.19L572.4 209.9V210.43L570.85 212.58L570.34 212.87L569.67 213.09L569.09 213.4L568.84 213.93L569.12 215.68L569.89 216.48L571.03 217.01L572.4 217.96L572.86 217.42L572.38 216.54L573.1 216.64L575.74 217.66L577.72 219L578.44 219.67L580.73 223.38L579.74 226.14L579.17 226.65L578.68 227.22L578.44 230.99L575.41 232.91L574.88 233.36L574.7 234.63L574.19 235.8L573.41 236.77L572.4 237.43L571.32 237.71L570.37 237.67L569.93 237.22L570.35 236.31L569.86 236.26L569.6 236.27L569.39 236.31L568.33 237.21L567.17 240.04L566.07 240.65L564.65 240.87L557.23 244.37L555.84 245.4L554.63 247.17L551.46 248.87L550.18 249.76L548.87 251.72L548.67 252.19L548.35 252.5L546.93 252.95L546.2 253.66L544.26 253.02L543.59 252.97L543.46 253.45L544.45 254.44L544.6 255.12L541.08 258.32L540.83 258.92L540.71 259.3L539.06 261.59L537.67 262.86L537.33 263.46L537.55 264.31L537.04 264.63L536.54 265.44L536.04 265.92L535.51 266.19L534.57 266.29L534.03 266.46L533.94 267.19L532.57 269.78L532.48 271.23L532.97 272.08L533.78 272.78L534.77 273.24L535.77 273.41Z" fill="#CCCCCC" stroke="white" stroke-width="0.5"/>
<path d="M796.1 238.46L793.59 236.84L792.13 235.51L791.4 235L790.48 234.7L788.92 234.82L787.51 235.49L786.23 236.29L784.99 236.84L783.57 236.74L781.94 236.33H780.44L779.46 237.43H778.91L778.31 235.8L776.67 234.2L774.69 232.98L773.08 232.5L772.07 232.37L771.39 232.03L767.79 228.23L767.54 227.72L766.99 227.37L764.65 224.12L763.86 222.47L763.27 221.77L759.92 219.61L758.5 218.47L758.24 217.42L755.56 216.53L755.17 216.23L754.24 216.72L753.52 217.3L753.27 217.44L753.04 217.5L752.46 217.48L752.16 217.52L751.9 217.65L751.34 218.14L750.94 218.6L750.42 219.37L750.04 220.12L749.63 221.35L749.54 222.88L750.16 224.99L747.18 226.21L746.97 226.36L746.77 226.59L746.66 226.82L746.55 227.14L746.47 227.59L746.36 227.84L746.07 227.98L745.6 227.86L744.61 227.41L743.86 226.85L743.05 226.36L740.36 225.1L737.88 223.29L737.16 222.91L736.48 222.84L734.49 223.14L734.09 223.26L733.93 223.41L734.22 224.03L734.3 224.26L734.32 224.46L734.17 225.01L734.13 225.26L734.14 225.38L734.23 225.41L734.81 225.48L735.25 225.84L735.52 226.18L735.71 226.53L735.8 226.76L735.86 226.98L735.85 227.2L735.78 227.48L735.49 227.56L735.01 227.47L733.01 226.06L730.62 225.86L728.99 224.51L726.9 222.27L726.44 221.89L726.04 221.84L725.57 221.96L723.87 222.61L722.51 223.35L722.05 223.42L721.69 223.35L721.08 222.82L720.69 222.74L720.2 222.87L718.53 223.85L717.54 224.76L717.36 225.2L717.13 227.56L716.46 228.76L715.38 227.95L715.28 227.71L715.01 227.52L714.73 227.55L713.38 228.21L713.05 228.25L712.73 228.12L712.08 227.71L711.58 227.26L711.49 227.12L711.23 226.69L710.82 226.29L710.12 225.81L709.81 225.52L709.33 225.37L708.77 225.47L707.35 226.48L706.51 226.71L705.83 227.27L705.49 227.93L705.18 228.18L704.82 228.24L704.13 228L703.86 227.87L703.48 227.79L703.29 227.89L703.16 228.14L703.11 228.43L703.1 228.81L703.01 229.33L702.72 229.96L701.98 231.09L701.13 231.79L700.29 232.32L699.36 232.7L699.01 233L698.87 233.22L699.17 233.89L699.95 235.5L700.13 236.79L700.03 239.33L699.9 239.75L699.74 239.92L699.5 240.11L699.3 240.3L699.11 240.59L698.78 241.22L698.7 241.58L698.74 242.08L699.16 243.96L699.53 245.09L699.71 245.42L700.08 246.47L700.15 246.58L700.28 246.74L700.98 247.25L700.93 249.33L701.16 250.23L701.35 250.39L701.57 250.45L701.88 250.47L702.34 250.74L702.52 251.09L702.58 251.79L702.46 252.21L702.25 252.49L700.51 253.36L699.63 254.45L699.33 254.65H699.1L698.1 255.07L698.2 257.99L698.54 259.17L699.51 260.79L699.97 261.34L701.55 262.83L706.02 269.12L713.2 268.68L717.02 267.75L717.31 264.82L721 262.21L722.38 262.22L722.45 261.66L723.35 261.15L723.04 260.34L722.88 259.98L722.73 260.31L722.53 260.59L722.23 260.67L721.75 260.55L721.35 260.43L721.11 259.6L721.25 258.84L721.7 257.91L722.81 257.47L723.58 257.88L724.17 258.25L724.7 257.29L725.16 256.47L725.87 255.41L727.37 255.11L727.49 257.13L727.93 257.89L727.54 258.81L726.66 260.47L725.7 260.65L724.62 261.39L724.22 261.78L724.08 262.15L727.18 262.14V267.97L727.42 267.98L729.29 267.37V266.63L729.5 266.06L729.89 265.96L730.42 266.24L730.81 267.16L733.44 266.85L735.81 265.95L737.01 264.07L737.46 262.44L738.06 261.8L739.08 261.62L740.81 261.59L742.45 261.16L743.71 260.15L744.86 258.92L746.12 257.84L747.96 256.99L749.77 256.82L755.32 255.85L759.96 256.61L762.28 255.64L765.09 256.18L771.15 254.77L774.27 254.53L778.91 253.56L782.33 253.67L785.43 254.48L788.16 254.56L790.48 252.49L790.9 249.69L791.28 249.27L791.78 249.1L793.27 248.24L794.3 247.15L795.86 246.53L797.41 245.59L798.08 243.86L797.92 242.35L797.58 240.9L797 239.57L796.1 238.46Z" fill="#CCCCCC" stroke="white" stroke-width="0.5"/>
<path d="M484.8 215.75L484.12 215.14L483.03 213.66L482.24 212.84L481.17 212.02L480.01 211.76L478.96 212.58L481.59 213.9L482.92 214.85L483.89 216.99L484.83 217.45L485.92 217.77L486.78 218.25L488.13 219.23L488.92 218.97L489.08 217.88L488.57 216.35L487.8 215.35L486.93 214.87L486.25 215.12L486.05 216.35L484.8 215.75ZM470.49 208.23L470.25 207.92L470.28 208.13L470.32 208.26L470.38 208.52L468.6 208.18L468.23 207.99L467.91 208.21L468.04 208.55L468.43 208.82L468.83 209.21L469.34 209.4L469.95 209.34L470.5 208.96L470.49 208.23ZM466.6 208.59L466.71 208.14L465.68 207.79L465.1 207.66L464.87 207.75L464.76 208.17L465.48 208.66L466.6 208.59ZM477.86 202.6L477.85 202.52L477.45 202.37L476.39 203.31L473.82 203.89L472.92 204.56L474.22 204.96L475.4 205.6L476.58 204.8L480.02 203.98L480.97 202.85L479.53 202.4L478.78 202.44L478 202.85L477.86 202.6ZM508.32 95.13L507.23 95.51L507.08 95.46L506.96 96.17L507.59 96.57L507.75 96.86L507.89 97.28L507.91 97.74L507.84 98.2L507.57 99.05L507.3 99.42L506.88 99.71L505.89 100.07L505.04 100.55L503.72 101.67L501.94 103.55L501.12 104.13L500.49 104.47L499.58 104.65L498.44 104.68L497.24 105.06L496.8 105.14L496.3 105.16L495.79 105.41L495.4 105.64L494.55 107.95L495 109.34L495.27 109.62L498.88 112.67L500.13 113.98L501.61 116.49L500.69 117.16L499.63 117.72L499.4 117.94L499.29 118.17L499.28 118.48L499.59 120.1L499.61 120.37L499.2 120.53L496.33 120.91L495.31 120.87L494.55 120.52L493.43 118.96L493.18 118.53L492.73 118.07L492.51 117.67L492.41 117.29L492.4 116.81L492.33 116.54L492.21 116.37L492.01 116.29L491.69 116.27L491.08 116.49L490.31 116.96L489.21 118.05L488.76 118.7L488.52 119.15L488.76 120.63L489.14 121.9L489.21 122.38L489.23 123.01L489.18 123.5L489.05 123.79L488.87 123.91L488.48 123.95L488.23 124.11L487.77 124.86L487.41 125.29L486.52 126.63L486.63 127.19L486.87 127.57L487.2 127.78L487.34 127.95L487.14 128.15L486.61 128.24L485.23 128.3L484.24 128.11L482.52 128L482.12 127.92L481.46 128.25L480.73 130.2L479.89 132.53L479.67 132.87L479.26 133.32H478.96L478.78 133.23L478.63 133.03L478.49 132.82L478.11 132.36L477.95 132.23L477.76 132.18L476.5 132.57L474.83 133.35L474 133.85L473.14 134.64L472.89 134.96L472.38 135.41L468.54 137.84L465.84 139.02L465.83 139.03L466.82 140.04L468.32 142.21L469.46 144.73L469.91 147.4L470.22 148.53L471.6 150.94L471.92 152.28L472.08 153.78L472.77 156.35L472.92 157.73L473.47 158.3L475.86 159.1L476.4 159.92L476.11 161.05L475.42 161.59L474.61 161.47L473.93 160.67L473.45 162.95L474.24 165.19L475.36 167.41L475.95 169.63L476.2 174.76L476.66 177.46L477.16 178.2L477.82 178.28L480.52 180.36L481.43 181.27L482.53 183.37L483.35 184.56L484.27 185.09L486.85 184.95L487.86 185.24L493.07 189.05L493.6 190.19L493.8 190.86L494.27 191.61L495.15 192.68L495.29 193.24L495.33 193.98L495.6 194.39L496.39 193.95L497.56 193.91L499.05 194.84L500.41 196.09L501.19 196.98L502.49 199.52L503.38 200.38L504.99 200.7L505.86 201.11L508.28 203.98L508.74 202.85H509.29L510.08 204.55L512.59 205.2L517.38 205.06L518.5 204.51L519.44 203.61L520.54 202.75L522.14 202.37L524.84 202.67L525.56 202.89V202.88L526.54 196.44L530.37 191.01L532.11 191.13L536.61 190.26L537.72 189.8L538.31 189.38L538.26 188.92L538.28 188.37L538.35 187.76L538.66 186.48L538.71 186.03L538.64 185.52L538.52 185.02L538.53 184.39L539.09 183.99L539.58 183.91L539.99 184.08L540.39 184.64L540.68 185.13L541.06 185.63L541.33 185.87L541.74 185.94L542.58 186L542.96 186.09L543.52 186.15L543.75 185.96L543.9 185.71L543.89 184.72L544.28 183.66L545.03 183.24L546.52 182.8L547.59 182.64L547.79 181.49L547.98 181.23H548.18L549.12 181.29L550.11 181.19L551.45 180.92L551.93 180.3L552.17 179.75L552.25 179.2L552.55 178.51L552.56 178.41L552.38 177.81L552.33 177.47L552.32 177.01L552.47 176.75L552.73 176.56L553.79 176.03L554.3 175.41L554.55 175.24L554.66 175.22L554.7 175.39L554.78 175.58L554.9 175.79L555.22 176.21L555.44 176.46L556.08 177.44L556.23 177.8L556.29 178.17L556.26 178.64L556.32 178.84L556.49 179L557.77 179.33L559 179.43L559.63 179.54L559.99 179.66L560.14 179.86L560.16 180.04L560.1 180.26L559.61 181L559.56 181.22L559.55 181.47L559.78 182L560.53 182.77L561.28 181.12L561.77 180.72L562.22 180.49L562.56 180.57L562.91 180.83L563.64 181.54L564.08 181.76L564.69 181.94L565.3 181.64L567.42 176.51L568.46 175.06L569.33 174.64L570.02 174.2L570.39 174.04L572.55 173.58L573.02 173.42L573.98 172.59L574.45 172.02L577.14 167.54L576.82 162.44L576.87 161.89L577.24 160.97L581.4 157.1L581.52 156.82L581.37 156.54L580.94 156.42L578.12 156.44L577.79 156.21L577.43 155.74L577.11 154.45L577.17 153.7L577.62 152.68L578.23 151.95L579.4 148.32L580.86 148.49L582.57 148.91L583.89 148.85L585.89 148.35L586.82 147.92L588.92 146.27L590.09 145.79L590.69 145.21L590.87 145.06L590.72 144.95L589.56 143.88L581.65 134.12L580.3 133.3L578.9 133.55L578.29 134.33L576.43 137.88L575.52 142.09L574.88 143.28L574.18 143.38L573.48 143.78L573.41 143.88L571.58 144.81L570.85 145.01L571.44 143.61L570.27 143.47L568.62 143.75L567.79 143.58L567.46 143.05L566.82 141.67L566.35 140.25L566.55 139.6L567.85 139L568.38 137.68L568 136.37L566.55 135.76L564.49 135.93L563.76 135.76L563.07 135.35L562.51 134.81L561.9 134.35L561.04 134.14L560.2 133.73L559.96 132.86L560.55 132.07L562.25 131.93L562.89 132.18L563.69 132.9L564.35 133.2L564.78 133.47L565.15 133.59L565.31 133.3L565.43 133.22L565.67 132.95L565.86 132.66L565.82 132.52L567.2 132.66L568.4 133.01L573.14 135.23L573.5 135.53L574.78 136.96L575.42 137.39L575.91 136.01L577.68 134.09L577.94 132.52L577.5 131.83L576.76 131.13L576.36 130.18L576.93 128.68L575.61 129.03L574.52 129.02L573.49 128.69L572.4 128.14L568.06 124.84L567.07 124.47L564.58 122.42L563.53 121.35L562.48 120.6L558.73 119.42L557.23 118.68L549.4 112.97L549.14 112.55L548.67 110.54L548.39 109.89L545.83 107.72L544.68 107.54L543.33 108.46L542.16 109.89L541.53 111.24L542.55 110.75L543.06 110.88L543.84 112.11L546.61 114.5L548.59 116.99L549.63 117.65L550.63 116.72L551.69 117.85L552.97 117.19L553.73 117.78L554.11 118.86L554.2 119.69L554.5 119.92L555.96 120.52L556.46 120.83L556.8 121.37L557.22 123.22L558.13 125.56L558.92 126.61L560.83 127.49L561.54 128.43L561.98 129.38L562 129.81L561.79 129.98L561.59 130.36L561.22 130.73L560.51 130.89L560.03 130.76L558.27 129.81L556.04 129.53L555.09 129.22L554.7 128.41L554.45 127.14L553.37 124.67L553.2 123.22L553.45 121.84L553.92 121.88L554.65 122.32L555.71 122.18L554.21 120.58L553.23 119.76L552.19 119.42L552.35 119.69L552.54 120.26L552.69 120.56L551.86 120.7L551.18 120.61L550.75 120.21L550.63 119.42L548.74 119.94L548.16 120.49L548.12 121.59L544.83 119.47L543.59 118.89L542.3 118.74L537.82 119.42L537.19 119.14L536.6 118.59L535.97 118.25L534.89 118.78L534.48 118.71L532.39 118.03L531.42 117.56L530.73 116.87L530.46 115.9L530.35 114.96L530.03 113.6L529.48 112.37L528.68 111.84L526.87 111.86L526.23 111.55L525.38 110.76L524.74 109.99L524.27 109.15L523.98 108.08L523.88 106.66L524.39 105.98L526.74 105.56L527.4 104.73L526.21 104.71L524.23 104.38L523.42 104.73L523.02 105.52L522.67 111.45L522.25 112.25L521.36 112.38L520.85 111.82L519.6 109.51L519.35 108.86L515.96 105.36L515.07 104.73L514.2 104.42L513.61 103.66L512.29 101.31L511.8 99.85L511.4 99.31L510 97.97L509.02 95.88L508.32 95.13ZM521.36 96L520.21 95.43L519.28 94.58L518.26 93.92L516.84 93.88L517.38 94.42L517.01 96.25L517.94 97.58L519.21 98.61L519.85 99.56L520.35 100.83L521.47 101.31L522.68 100.99L523.42 99.85H523.88L524.38 101.48L524.78 100.82L524.9 100.14L524.75 99.45L524.38 98.77L525.79 99.17L526.59 99.55L526.94 100.13L526.72 100.96L526.29 101.85L526 102.69L526.19 103.38L527.21 104.14L528.79 104.9L530.37 105.24L531.42 104.73L532.34 105.44L532.79 106.16L533.14 106.91L534.05 108.16L534.29 108.64L534.56 109.02L534.99 109.13L535.56 108.78L535.5 108.22L535.19 107.69L534.99 107.45L535.58 106.17L536.38 105.92L536.85 106.57L536.5 107.99L538.05 106.8L538.93 106.45L540.07 106.41L539.23 105.1L539 104.34L540.59 100.76L540.79 99.68L540.63 98.7L540.07 97.73L538.78 96.46L538.06 96.53L537.45 97.2L536.5 97.73L535.65 97.43L533.28 95.87L532.48 95.51L531.93 95.68L530.86 96.43L530.23 96.6L529.92 96.37L529.23 95.3L528.95 94.97L528.12 94.49L527.22 94.13L526.19 94.05L524.93 94.42L524.11 94.99L523.4 95.61L522.57 96.03L521.36 96ZM530.97 87.86L529.91 86.45L528.58 85.22L527.43 83.89L526.49 80.47L525.33 78.5L523.72 77.18L521.91 77.48L522.8 78.04L524.12 79.07L524.93 80.26L524.38 81.33L527.33 85.93L529.2 87.9L530.97 87.86ZM514.04 83.21L513.6 81.91L514.11 80.92L514.91 80.12L515.33 79.38L514.96 78.26L514.06 77.55L512.92 77.16L511.8 76.99L512.61 78.36L512.87 79.26L512.76 82.15L512.53 83.44L511.9 84.75L510.94 85.77L509.74 86.23L510.46 87.46L512.81 89.14L513.31 90.32L513.84 90.76L516.43 92.32L517.38 92.75L516.74 90.74L517.98 90.1L519.54 90.65L519.85 92.25L520.43 92.94L520.62 93.27L520.86 93.88L521.18 93.72L522.03 93.49L522.37 93.33L523.18 94.16L524.28 92.82L525.94 89.49L525.17 88.98L523.65 88.67L522.87 88.4L522.33 87.99L521.79 87.47L521.16 87L520.31 86.77L521.32 86.26L522.66 85.96L523.46 85.37L522.87 84.01L522.32 84.84L521.6 84.96L520.86 84.48L520.31 83.51L519.89 83.83L519.51 84.2L519.18 84.64L518.89 85.14L519.85 85.74L518.76 85.63L518.23 85.03L517.89 84.22L517.38 83.51L516.51 83.23L514.69 83.49L514.04 83.21ZM498.55 67.24L497.52 67.29L495.15 68.23L492.55 68.18L491.1 68.58L490.08 69.87L490.52 69.97L490.88 69.95L491.21 70.04L491.59 70.46L493.23 69.4L494.96 70.16L496.13 71.74L496.11 73.13L495.46 72.84L495.12 73.46L495.15 74.46L495.62 75.31L496.3 75.51L496.79 74.99L497.07 74.17L497.17 73.43L497.99 72.76L499.49 73.54L500.19 74.86L498.63 75.85L500.47 77.32L502.33 77.71H504.11L505.72 78.02L509.31 80.39L511.07 80.88L512.3 79.66L511.39 79.53L510.37 79.13L509.74 79.11L508.17 77.34L507.83 76.51L507.55 73.87L507.07 72.62L506.43 71.44L505.72 70.46L504.34 69.11L502.49 67.9L500.6 67.41L499.14 68.23L498.55 67.24Z" fill="#CCCCCC" stroke="white" stroke-width="0.5"/>
<path d="M457.78 202.85L455.2 201.04L453.64 200.39L452.2 200.7L453.07 201.95L454.73 203.33L456.52 203.94L457.78 202.85ZM444.87 195.38L444.72 194.57L444.38 193.95L443.68 193.9L442.95 194.55L442.05 195.91L443.72 197.6L448.89 198.21L450.15 199.14H450.7L449.85 197.06L448.52 196.29L444.89 196.4L444.87 195.38ZM440.7 193.5L441.34 192.38L441.55 191.22L440.16 190.74L438.43 190.53L437.57 190.19L437.04 189.63L435.83 189.29L434.48 189.2L433.54 189.35L434.32 190.24L438.03 192.68L439.78 193.14L440.04 193.44L440.24 193.94L440.7 193.5ZM426 180.61L422.89 180.78L423.31 181.6L423.89 182.21L424.61 182.63L425.45 182.89L425.26 182.48L425.21 182.29L425.15 182.13L424.9 181.85V181.27L426.53 181.48L428.38 183.08L430.02 185.12L430.98 186.7L430.02 185.84L429.19 184.82L428.24 183.92L426.96 183.43V184.01L429.51 187L430.91 188.28L433 189.35L432.7 188.18L432.49 187.74L433.63 187.69L434 187.74L432.13 185.43L429.28 182.61L426 180.61ZM414.97 172.31L413.09 171.17L410.77 171.51L411.4 172.25L413.33 173.67L413.87 173.25L414.48 173.36L415.02 173.9L415.34 174.75L413.82 174.79L413.33 174.75L414.32 175.49L415.49 175.85L416.73 175.81L417.86 175.34L414.97 172.31ZM444.79 70.31L444.48 71.43L444.27 73.87L443.73 74.45L443.09 75.03L442.66 75.95L441.91 77.58L441.26 80.13L440.51 81.64L439.44 83.49L438.47 85.23L437.83 87.08L436.86 88.01L436.97 90.21L435.9 92.76L436.01 94.38L437.19 95.42L439.44 97.27L441.05 98.08L442.01 98.55L442.34 99.94V101.79L441.26 103.75L439.98 105.72L439.55 106.65L438.47 106.41L437.29 106.3L436.44 106.88L436.01 108.5L435.15 110.23L434.08 112.31L433.32 114.05L432.57 117.17L430.96 120.63L430.43 121.9L431.61 123.75L432.14 125.02L431.82 127.21L431.39 128.6L432.04 129.52H434.08L436.22 128.6L437.08 127.56V126.29L438.15 124.67L439.98 125.48L441.59 126.64L442.01 127.68L441.8 129.75L442.01 132.18L442.38 133.82L443.17 133.88L444.06 134.08L446.32 134.21L446.88 134.14L447.13 133.85L447.27 133.46L447.6 133.02L448.02 132.66L448.38 132.52L451.81 132.18L455.23 131.39L456.15 130.96L456.63 130.64L457.16 130.57L458.24 130.89L459.77 131.76L460.52 132.31L461.03 132.79L461.96 134.05L462.33 134.87L462.04 135.23L460.01 135.27L459.08 135.12L458.24 134.64L457.77 135.73L458.12 136.32L459.03 136.61L462.93 137.23L464.08 137.66L465.29 138.47L465.83 139.03L465.84 139.02L468.54 137.84L472.38 135.41L472.89 134.96L473.14 134.64L474 133.85L474.83 133.35L476.5 132.57L477.76 132.18L477.95 132.23L478.11 132.36L478.49 132.82L478.63 133.03L478.78 133.23L478.96 133.32H479.26L479.67 132.87L479.89 132.53L480.73 130.2L481.46 128.25L482.12 127.92L482.52 128L484.24 128.11L485.23 128.3L486.61 128.24L487.14 128.15L487.34 127.95L487.2 127.78L486.87 127.57L486.63 127.19L486.52 126.63L487.41 125.29L487.77 124.86L488.23 124.11L488.48 123.95L488.87 123.91L489.05 123.79L489.18 123.5L489.23 123.01L489.21 122.38L489.14 121.9L488.76 120.63L488.52 119.15L488.76 118.7L489.21 118.05L490.31 116.96L491.08 116.49L491.69 116.27L492.01 116.29L492.21 116.37L492.33 116.54L492.4 116.81L492.41 117.29L492.51 117.67L492.73 118.07L493.18 118.53L493.43 118.96L494.55 120.52L495.31 120.87L496.33 120.91L499.2 120.53L499.61 120.37L499.59 120.1L499.28 118.48L499.29 118.17L499.4 117.94L499.63 117.72L500.69 117.16L501.61 116.49L500.13 113.98L498.88 112.67L495.27 109.62L495 109.34L494.55 107.95L495.4 105.64L495.79 105.41L496.3 105.16L496.8 105.14L497.24 105.06L498.44 104.68L499.58 104.65L500.49 104.47L501.12 104.13L501.94 103.55L503.72 101.67L505.04 100.55L505.89 100.07L506.88 99.71L507.3 99.42L507.57 99.05L507.84 98.2L507.91 97.74L507.89 97.28L507.75 96.86L507.59 96.57L506.96 96.17L507.08 95.46L506.3 95.19L505.35 94.97L504.43 94.61L503.66 93.88L503.9 93.59L504.15 93.47L502.26 93.49L501.65 93.33L501.26 92.65L501.2 91.75L501.05 90.96L500.41 90.62L496.76 90.35L495.62 90.03L493.1 89L492.4 88.95L491.63 89.03L490.9 89.02L490.33 88.7L489.76 88.21L488.44 87.52L487.77 87.02L487.24 86.32L486.55 84.8L486.05 84.01L485.76 84.22L485 84.6L485.04 84.06L484.97 82.96L485 82.42L483.65 82.63L479.21 81.87L477.45 81.33L476.16 80.65L474.47 79.51L473 78.25L472.37 77.23L471.34 76.5L463.29 73.63L460.94 71.25L458.75 70.96V71.5L459.36 71.87L459.86 72.38L460.8 73.72L459.66 76.25L458.98 76.88L458.24 75.85L457.55 76.19L457.28 76.4L455.88 71.76L455.5 70.96L452.05 71.14L444.79 70.31ZM459.41 58.91L459.45 58.41L458.92 58.14L458.76 58.37L458.67 58.96L457.97 59.06L456.95 58.76L456.51 58.91L456.53 60.22L456.67 60.74L457.33 60.75L458.67 60.29L458.86 59.79L459.41 58.91ZM487.17 58.8L485.67 57.96L483.91 57.46L482.23 57.29L480.92 57.81L479.91 58.9L478.74 59.85L476.95 59.96L475.09 59.8L473 59.97L470.92 59.8L469.13 58.65L465.86 57.98L465.06 58.11L464.48 58.09L463.69 57.72L463.02 57.89L462.77 59.47L462.08 59.14L461.81 58.93L462 61.63L463.2 60.98L464.7 59.84L465.83 61.11L464.77 61.98L466.07 62.87L468.2 63.55L471.24 64.12L473.26 65.54L474.94 66.05L478.28 66.13L480.27 65.86L481.71 65.22L482.69 64.72L483.3 65.08L483.56 65.85L483.49 66.6L483.19 66.7L482.68 66.59L482.2 66.55L481.98 66.85L481.92 67.47L481.77 67.79L481.59 67.99L481.43 68.23V68.72L490.58 66.6L491.18 66.77L491.84 67.11H492.37L492.59 66.33L492.32 65.63L487.39 60.55L487.06 59.47L487.75 59.85L488.02 59.96L487.17 58.8Z" fill="#CCCCCC" stroke="white" stroke-width="0.5"/>
<path d="M414.24 69.16L408.72 64.43L408.67 64.51L408.71 66.34L407.34 68.89L408.2 69.56L408.82 70.57L411.29 75.52L413.38 78.43L413.43 79.01L413.14 80L412.96 80.96L413.04 82.22L412.81 83.65L410.91 83.35L409.08 82.38L408.36 82.21L407.46 82.28L406.16 82.76L405.28 83.23L403.96 84.59L403.56 86.01L403.18 87.02L402.63 88.13L402.01 88.98L401.35 89.58L400.53 89.93L399.49 90.06L398.44 89.64L397.8 89.2L396.8 88.74L395.3 89.24L392.28 88.31L391.6 88.26L390.62 88.37L389.57 89.08L389.03 89.38L388.4 89.41L387.63 89.22L386.86 88.54L386.49 88L386.22 87.48L385.37 86.77L382.93 86.71L382.13 87.43L381.97 87.97L382 88.8L382.47 90.17L383.55 92.28L383.88 93.17L384.14 93.69L384.37 93.93L384.69 94L385.06 93.96L385.5 93.98L385.82 94.14L386.11 94.58L386.04 95.61L385.65 97.08L384.43 99.54L382.98 101.92L381.16 103.49L378.96 103.32L377.91 102.77L377.56 102.49L377.02 102.26L372.74 101.23L372.04 101.33L371.29 101.65L370.56 102.58L370.28 103.21L370.12 103.88L369.92 104.29L369.55 104.52L368.46 104.44L367.95 104.58L366.58 105.71L363.96 106.93L361.31 109.69L359.3 111.3L358.8 111.86L358.53 112.25L358.45 112.66L358.29 115.95V115.96L359.52 116.17L360.78 116.57L361.66 117.63L362.16 119.12L362.33 120.83L362.88 122.12L364.13 123.54L365.5 124.2L366.4 123.22L365.8 123.08L365.07 122.69L364.6 122.15L364.8 121.59L365.47 121.43L366.32 121.63L367.82 122.18L369.46 122.44L370.89 122.42L372.19 122.02L373.44 121.1L373.65 122.07L373.57 123.2L373.81 124.08L374.96 124.35V124.84L373.44 125.43V125.97L375.1 126.58L376.73 127.44L377.98 127.63L378.48 126.25L379.31 124.97L381.2 124.94L386.17 126.38L391.37 126.52L392.32 126.83L392.83 127.59L393.18 128.48L393.62 129.22L394.2 129.72L394.64 129.9L397.79 130.79L398.22 131.01L398.92 131.66L399.66 132.05L400.39 131.93L400.94 131.41L401.17 130.6L401.45 129.94L402.1 130.63L403.22 132.52L403.92 133.2L404.62 133.63L406.24 134.14L407.69 134.15L411.51 133.69L412.55 133.85L413.92 135.12L415.14 135.87L421.04 137.6L424.03 137.87L426.95 137.62L429.98 136.8L433.86 134.89L435.31 134.64L438.48 134.58L439.83 134.26L441.09 133.55L441.59 134.14L442.38 133.82L442.01 132.18L441.8 129.75L442.01 127.68L441.59 126.64L439.98 125.48L438.15 124.67L437.08 126.29V127.56L436.22 128.6L434.08 129.52H432.04L431.39 128.6L431.82 127.21L432.14 125.02L431.61 123.75L430.43 121.9L430.96 120.63L432.57 117.17L433.32 114.05L434.08 112.31L435.15 110.23L436.01 108.5L436.44 106.88L437.29 106.3L438.47 106.41L439.55 106.65L439.98 105.72L441.26 103.75L442.34 101.79V99.94L442.01 98.55L441.05 98.08L439.44 97.27L437.19 95.42L436.01 94.38L435.9 92.76L436.97 90.21L436.86 88.01L437.83 87.08L438.47 85.23L439.44 83.49L440.51 81.64L441.26 80.13L441.91 77.58L442.66 75.95L443.09 75.03L443.73 74.45L444.27 73.87L444.48 71.43L444.79 70.31L440.71 69.84L439.04 69.87L437.62 70.21L434.86 71.27L433.27 71.5L432.42 71.34L431.28 70.64L430.53 70.46L429.61 70.55L429.43 70.91L429.27 71.42L428.47 71.99L427.08 71.97L423.22 71.13L422.43 71.23L421.83 72.09L420.49 71.62L419.1 70.62L418.36 69.87L416.4 70.18L414.24 69.16ZM424.21 52.31L425.44 51.5L426.39 50.69L423.53 50.82L422.88 51.08L423.48 51.33L423.71 51.78V52.31H424.21ZM442.29 50.33L442.31 49.45L441.15 48.78L434.24 48.35L433 48.52L433.93 49.13L434.68 49.44L439.09 49.73L440.17 50.15L440.59 51.25L442.29 50.33Z" fill="#CCCCCC" stroke="white" stroke-width="0.5"/>
<path d="M102.81 104.73L100.62 104.29L99.88 104.7L101 105.21L102.66 105.32L104.09 105.27L104.48 105.12L104.11 105.1L103.93 105.11L102.81 104.73ZM142.38 21.43L141.36 20.72L140.59 20.58L140.16 20.71L139.21 21.38L138.63 21.67L135.56 22.27L133.92 22.97L132.84 23.88L132.75 24.93L134.1 26.04L133.57 26.58L132.94 27.38L132.18 27.87L131.28 27.46L130.72 26.46L130.58 25.33L130.86 24.38L131.54 23.86V23.36L130.56 22.49L129.37 22.07L128 22.13L126.51 22.76L122.7 25.22L121.7 25.55L120.38 26.2L118.99 27.71L117.89 29.45L117.45 30.76L116.85 31.39L115.67 32.13L114.87 32.38L115.39 31.55L114.16 31.02L113.27 30.34L112.42 30.01L111.32 30.46L110.69 31.41L110.1 32.64L109.24 33.46L107.8 33.19L108 32.88L108.11 32.65L108.3 32.1L105.25 32.12L104.78 32.37L103.86 34.9L103.55 35.38L99.87 35.53L98.25 36.02L96.68 37.01L97.05 37.05L97.11 37.14L97.09 37.32L97.19 37.61L97.71 37.27L98.24 37.01V37.61L97.7 37.87L96.69 38.53L96.18 38.71L95.38 38.69L94.45 38.25L93.62 38.11L92.41 38.22L89.86 39.15L84.78 41.74L83.56 41.98L80.35 42.21L79.23 42.96L78.53 44.66L77.52 43.61L73.04 46.87L72.16 47.3L71.17 47.48L70.45 47.04L69.96 46.07L69.33 45.09L68.15 44.66L67.44 44.81L66.78 45.21L66.24 45.77L65.91 46.39L67.12 46.28L68.11 46.5L68.87 47.06L69.42 47.97L68.62 48.72L67.91 49.59L67.14 50L66.15 49.36L65.21 48.97L64.68 49.93L64.45 51.29L64.4 52.09L64.01 52.47L62.1 52.64L61.37 52.94L60.98 53.71L60.32 56.7L59.71 55.69L58.85 55.24L57.85 55.4L56.8 56.2L56.07 55.85L55.29 55.61V56.2L56.16 57.22L55.81 58.95L54.89 60.74L54.01 61.95L52.63 62.75L49.48 63.33L48.2 64.37H49.72V64.96L48.39 65.77L47.3 67.01L45.73 69.32L45.55 69.71L45.25 70.72L44.96 71.23L44.6 71.46L43.8 71.54L43.42 71.75L42.35 73.78L42.17 73.97L41.11 77.48L40.79 79.19L40.66 81.04L40.37 82.36L39.7 83.82L38.87 85.05L38.14 85.74L39.35 86L40.03 87.04L40.51 88.36L41.11 89.49L42.03 90.23L43.38 90.97L44.87 91.51L46.23 91.66L45.87 92.19L45.19 93.88L46.65 94.62L46.9 95.54L46.81 96.71L47.24 98.22L48.27 99.13L49.1 98.39L49.88 97L50.76 96L49.72 100.4L48.59 100.22L46.59 101.68L46.23 101.21L45.8 100.32L44.76 99.33L43.51 98.55L42.44 98.22L40.28 98.78L38.61 99.81L36.89 100.29L34.57 99.26L34.9 98.64L34.44 98.28L33.54 98.15L32.56 98.22L32.01 98.52L27.99 101.45L21.72 104.28L16.37 105.87L10.33 109.13L10.34 107.53L9.64 106.76H8.52L7.27 107.45L8.48 108.31L8.44 109.32L7.57 110.22L6.31 110.76L5.65 110.82L5 110.74L4.4 110.49L3.86 110.07L3.64 109.69L3.44 109.22L3.2 108.82L2.85 108.62L2.36 108.82L1.89 109.34L1.51 109.98L1.27 110.5L1 111.83L1.18 113.14L1.78 114.27L2.79 115.09L5.88 116.06L9.09 116.11L12.05 115.38L19.49 110.4L22.35 109.03L28.2 107.29L31.48 106.8L34.42 107.3L36.08 109.62L35.51 112.75L32.56 118.99L33.52 120.56L36.63 120.27L39.79 118.54L48.49 111.22L50.79 110.53L52.47 109.47L53.28 109.13L54.02 109.07L55.55 109.18L56.3 109.13L57.66 108.54L60.5 106.78L62.1 106.41L63.74 106.75L66.53 108.24L67.91 108.58L68.81 108.41L69.68 107.96L70.47 107.34L71.17 106.66L71.49 105.91L71.2 105.33L70.7 104.87L70.43 104.49L71.03 102.88L73.58 100.98L74 99.26L73.07 99.99L72.22 100.21L71.49 99.82L70.93 98.77L70.85 97.47L71.35 96.62L72.16 96.43L72.99 97.14L72.95 95.96L72.83 95.49L72.45 94.97L72.8 94.19L73.36 91.99L73.45 91.39L76.47 88.4L78.11 88.07L83.83 88.4L84.9 88.15L85.78 87.03L86.62 86.77L86.55 87.01L86.64 87.54L86.84 88.09L87.13 88.4L87.53 88.47L95.68 87.27L95.54 87.57L95.38 88.12L95.22 88.4L97.24 87.86L99.4 86.47L101.22 84.55L102.27 82.42H102.77L103.19 83.36L103.73 84.26L103.93 85.07L103.32 85.74L106.57 87.07L110.38 87.56L114.05 87.24L115.27 85.91L115.32 84.6L115.97 84.51L116.58 84.77L116.99 85.58L117.52 85.03L117.56 84.1L117.67 84.35L117.91 84.6L118.57 84.08L118.93 83.58L119.42 82.42L119.51 82.07L119.46 81.79L119.53 81.41L119.92 80.74L120.82 79.75L123.49 78.02L123.52 77.81L123.49 76.69L123.61 76.37L123.89 76.4L124.22 76.5L124.75 76.3L125.09 76.4L125.38 76.42L125.5 76.12L125.47 75.01L125.5 74.81L126.55 74.52L127.55 74.61L129.98 75.31L132.37 75.02L134.12 73.29L138.32 65.2L140.34 63.08L142.75 61.46L147.66 58.88L148.8 58.52L150.47 58.38L151.35 57.8L155.78 54.02L157.59 53.41L157.56 53.1L157.34 52.63L156.77 51.76L154.33 49.01L153.99 48.38L152.54 44.97L151.99 43.99L151.52 43.33L151.1 43.02L150.42 42.64L150.16 42.44L149.27 41.24L148.05 39.13L147.68 38.63L147.39 38.35L146.57 37.98L146.41 37.86L146.29 37.71L146.39 37.56L146.74 37.41L148.53 37.21L149.11 36.99L149.49 36.66L150.86 35.04L150.96 34.32L150.62 32.38L148.77 28.76L149.03 27.17V26.81L148.69 23.92L148.76 23.47L147.3 24.45L146.02 24.35L146.17 22.76L145.49 23.59L144.91 23.87L144.46 23.59L144.16 22.76L144.46 22.32L145.2 22.2L145.68 21.95L145.21 21.13L144.52 20.74L143.98 21L143.54 21.45L143.15 21.67L142.38 21.43Z" fill="#CCCCCC" stroke="white" stroke-width="0.5"/>
<path d="M211.85 136.31L212.88 135.99L213.16 135.65L213.55 135.39L214.04 135.26L216.19 134.17L219.11 133.09L220.36 132.03L220.3 130.63L219.74 130L219.62 130.12L219.53 130.47L219.27 131.03L218.6 131.68L217.78 132.08L216.9 132.12L214.8 132.94L214.34 133.3L213.8 133.92L213.11 134.35L212.3 134.58L210.83 135.81L209.94 136.14L210.25 136.37L211.85 136.31ZM227.93 130.66L229.22 129.83L230.31 128.95L230.22 128.54L229.22 128.75L228.73 128.91L226.53 129.88L226.31 130.03L226.6 130.06L226.3 130.53L225.31 131.33L224.09 131.46L223.31 130.6L223.1 130.47L223.34 131.53L224.34 132.56L225.63 132.55L227.93 130.66ZM261.28 128.4L264.3 125.62L264.61 125.43L264.83 125.18L264.66 124.69L264.22 124.36L263.6 124.59L261.3 126.08L260.23 127.05L259.78 128.41L259.42 129.03L258.55 129.68L257.48 129.97L256.52 129.52L255.68 129.27L254.98 130.17L254.28 131.34L253.47 131.93L251.42 131.6L250.72 132.01L250.73 133.55L253.16 133.32L255.45 132.32L261.28 128.4ZM155.06 107.31L145.44 106.14L144.76 106.66L144.28 106.84L144.32 107L145.21 107.45H146.07L146.87 107.6L147.68 107.99L146.46 108.25L144.78 109.12L143.29 110.17L142.65 111L142.25 112.03L139.13 114.5L138.36 117.9L139.25 121.06L145.58 132.22L146.44 133.06L148.64 133.42L149.01 134.34L147.68 136.8L147.18 136.3L147.87 135.2L147.79 134.39L147.41 133.92L147.18 133.85L146.94 134.48L146.37 134.99L145.21 135.76L143.15 137.55L142.91 137.88H139.86L138.62 137.63L137.2 136.97L136.05 136.03L135.56 134.93L131.85 132.19L131.03 131.39H130.53L130.7 132.18L131.54 134.14L132.04 136.3L132.72 137.81L133.49 138.71L135.56 140.09L136.48 140.94L138.88 144.15L139.55 144.47L142.2 144.42L143.06 144.63L144.5 145.27L145.21 145.5L150.03 145.59L150.7 146.34L151.58 146.66L156.79 146.09L162.41 144.04L171.83 139.28L173.21 139.01L174.54 138.4L176.25 136.98L177.76 135.35L178.51 134.14L177.63 133.68L176.57 132.84L175.97 131.83L176.5 130.89V130.3L175.48 130.16L174.6 129.74L172.93 128.68L173.3 128.01L173.44 127.32L173.33 126.64L172.93 125.97H173.48L174.31 124.48L174.71 123.55L174.69 122.94L174.3 122.21L173.93 121.22L173.44 120.34L172.7 119.96L171.71 120.02L168.4 117.31L167.32 116.02L167.26 115.11L167.64 114.14L167.9 112.67L167.5 111.43L166.5 110.56L165.2 109.98L161.06 108.81L155.06 107.31ZM173.93 108.24L174.79 107.87L173.57 106.91L170.82 105.66L169.13 106.09L169.88 107.44L171.92 108.34L173.93 108.24Z" fill="#CCCCCC" stroke="white" stroke-width="0.5"/>
<path d="M334.99 56.93L333.23 55.47L332.85 55.34L332.23 55.28L331.88 55.48L331.6 55.74L331.4 56.05L330.5 57.09L327.44 58.88L325.96 59.9L325.7 60.23L324.08 63.28L323.61 63.94L323.28 64.28L322.98 64.34L322.37 64.42L321.91 64.52L321.41 64.69L319.78 65.46L319.3 65.49L318.95 65.44L318.24 65.2L311.44 64.47L309.71 64.61L309.15 64.58L305.44 63.59L304.63 63.56L304.05 63.67L303.41 64.11L303.12 64.35L302.24 64.9L300.68 65.63L300.23 65.92L299.36 66.75L299.14 67.01L298.74 67.37L297.85 68.01L297.3 68.67L297.32 68.82L297.54 68.94L297.92 69.01L298.21 69.14L298.32 69.32L298.28 69.66L297.81 70.96L297.56 71.51L296.41 73.38L296.25 73.8L296.33 73.96L296.51 74.01L296.8 73.98L297.15 73.86L297.5 73.7L297.74 73.62H297.95L298.16 73.71L298.43 73.87L298.52 74.19L298.43 74.6L297.85 75.46L297.63 75.94L297.53 76.36L297.62 76.68L297.85 77.2V77.61L297.75 78.24L297.36 79.35L297.21 80.04L297.13 80.63L297.21 81.36L297.33 81.77L297.47 82.04L297.68 82.2L297.98 82.28L299.17 82.14L299.46 82.15L299.62 82.24L299.69 82.42L299.73 82.78L299.84 83.08L299.91 83.74L299.6 85.22L302.71 87.42L303.61 88.29L304.41 89.52L306.73 90.85L309.3 91.91L310.32 92.53L310.85 92.74H311.12L311.33 92.55L311.53 92.31L311.73 92.13L312.03 92.03L313.2 91.99L313.74 91.9L314.43 91.89L314.8 92.06L315.28 92.53L315.62 92.67L316.31 92.63L317.36 92.35L318.9 92.15L319.7 92.22L320.18 92.4L320.71 92.98L320.92 93.3L321.06 93.66L321.14 94.08L321.17 95.46L321.3 96.36L321.46 96.85L322.01 97.72V97.73L327.88 97.56L331.04 98.77L331.49 96.89L331.04 94.96L330.07 93.15L328.99 91.66L326.77 90.05L326.07 88.96L326.47 87.27L327.53 87.73L328.63 87.87L329.53 87.58L330.04 86.77L330.61 87.71L331.3 88.39L333.06 89.49L332 90.69L332.09 91.67L333.02 92.25H334.48L334.39 93.29L335.06 93.33L335.94 93.09L336.53 93.33L336.54 93.98L336.24 94.64L335.83 95.31L335.53 96L335.95 95.8L337.09 95.51L336.1 96.34L334.83 96.75L333.55 96.8L332.51 96.6L332.5 97.54L332.71 98.05L333.51 98.77L333.81 98.85L334.7 98.71L335.03 98.77L335.33 99.19L335.39 99.64V100.05L335.53 100.4L343.57 109.06L345.84 111.02L349.69 112.25L351.87 114.08L354.98 114.76L358.01 115.91L358.29 115.96V115.95L358.45 112.66L358.53 112.25L358.8 111.86L359.3 111.3L361.31 109.69L363.96 106.93L364.02 105.85L363.91 105.68L362.42 104.54L362.17 103.85L362.06 103.09L362.1 101.9L361.99 99.79L361.8 99.14L361.4 98.59L360.03 97.44L359.54 96.46L359.15 95.38L358.38 92.23L358.33 91.56L358.38 89.99L358.1 86.92L358.19 86.19L358.47 85.53L358.74 85.07L359.54 82.5L357.69 81.64L356.79 80.45L356.14 79.27L355.74 78.36L355.54 77.64L355.3 75.86L355.18 75.57L355 75.42L354.69 75.36L354.32 75.39L353.21 75.73L352.69 75.78L352.16 75.68L351.25 75.2L348.57 72.57L348.12 71.95L347.87 71.43L347.83 70.58L349.23 69.04L349.46 67.99L349.26 67.64L348.99 67.34L348.46 67.06L348.16 66.48L348.12 66.03L348.24 65.46L348.53 64.76L348.31 63.95L346.9 63.15L346.64 62.74L345.82 60.81L345.74 60.12L345.76 59.71L345.99 59.51L346.22 59.4L346.52 59.31L346.73 59.2L346.91 58.81L347.02 58.14V56.73L346.91 56.2L346.76 55.97L346.57 56.12L346.22 56.51L346 56.66L345.56 56.74H345.09L344.06 56.65L343.63 56.66L343.37 56.76L343.13 57.05L342.86 57.58L342.3 59.36L342.16 59.58L341.92 59.71L341.52 59.73L340.95 59.7L340.55 59.74L340.2 59.87L339.38 60.42L338.91 60.65L338.07 60.94L337.67 60.95L337.35 60.84L337.23 60.67L337.18 60.45L337.24 60.1L337.6 59.04L337.75 58.29L337.79 57.13L337.44 56.7L336.82 56.58L334.99 56.93Z" fill="#CCCCCC" stroke="white" stroke-width="0.5"/>
</svg>
