<svg width="614" height="680" viewBox="0 0 614 680" fill="none" xmlns="http://www.w3.org/2000/svg">
<path d="M232.801 410.43L239.321 417.79L253.331 427.59L261.541 432.49L266.861 433.71L274.591 438.37L278.701 436.9L279.421 435.18L279.411 432.18L280.121 431.66L282.601 430.92L283.631 431.23L283.731 431.76L283.321 433.23L281.881 433.64L284.121 435.53L283.831 436.99L285.601 438.34L286.521 439.4L286.311 440.44L281.771 440.34L283.421 441.59L281.981 444.21L279.811 445.04L280.021 446.3L281.051 448.29L282.391 450.06L284.561 451.42L289.201 454.12L293.011 457.59L293.431 459.05L294.971 460.31L297.241 460.2L297.861 461.77L298.791 462.3L300.031 462.09L302.401 464.18L303.021 465.43L303.951 465.95L306.011 467.52L309.101 470.14L310.541 470.97L313.541 471.08L314.361 470.35L318.381 471.39L319.621 470.48L321.581 469.51L323.331 467.52L323.021 465.43L323.951 464.08L327.561 465.64L331.581 465.74L335.711 466.79L338.281 466.9L341.271 467.42L342.101 467.11L341.691 465.12L344.261 463.86L344.151 463.24L342.001 463.66L341.791 463.13L342.001 459.89L343.131 458.53L342.821 457.38L342.201 456.65L340.761 455.71L338.491 455.29L337.461 454.14L335.401 454.24L333.541 452.68L333.021 451.21L331.481 449.02L332.101 446.93L333.131 446.4L334.671 446.72L337.461 446.19V444.62L339.111 444.42V443.37L340.971 439.92L341.491 439.8L342.931 442.22L344.991 442.74L347.571 441.7L348.181 440.55L350.561 439.92L352.821 439.81L354.271 438.04L361.381 436.26L363.761 436.36L366.231 432.7L371.181 434.48L373.651 434.17L375.311 433.02L377.371 433.12L379.021 431.97L380.671 430.3L380.871 428.31L381.701 427.89L382.941 428.41L383.861 425.91L384.901 425.28L387.991 426.22L390.231 425.7L390.981 426.74L393.041 426.85L394.691 425.28L397.061 425.59H399.131H401.191L402.731 425.17L403.351 423.71V422.98L402.311 421.81L402.741 420.57L405.931 425.28L409.441 424.14L410.061 425.91L411.401 425.8L412.021 425.17L414.901 426.32L416.451 426.11L420.161 425.17L421.711 424.34L425.011 423.5L429.341 423.92L432.541 422.99L434.241 423.18V446.4L508.661 445.67L509.021 447.13L510.101 448.4L512.261 448.95L515.321 448.58L517.471 447.31L519.631 446.76L523.231 446.94L526.901 446.27L528.021 449.55L529.781 451.84L529.571 452.36L530.501 452.78L530.301 453.93L530.921 454.24L531.431 453.62L532.671 454.45L533.291 454.14L536.481 455.4L537.201 454.66L535.661 453.3L535.251 454.14L533.921 453.72L533.081 453.3H531.021L531.331 452.47L534.521 452.57L535.351 451.53L538.031 452.99L539.471 454.66L540.921 455.4L542.361 456.44L542.981 457.69L546.281 460.94L546.691 466.37L549.581 469.3V470.35L551.311 472.15L553.971 473.02L540.591 494.3L484.351 467.56L469.851 469.85L426.161 478.29L405.111 517.51L337.101 557.68L332.341 558.17L272.171 559.17L217.341 506.69L211.301 434.2L226.761 415.34L232.801 410.43Z" fill="#CCCCCC" stroke="white" stroke-width="0.5"/>
<path d="M469.51 609.15L460.7 623.98L458.45 626.97L452.72 638.08L443.72 652.16L440.22 651.95L428.23 654.1L423.43 656.18L417.9 657.51L415.37 657.58L413.45 656.27L412.55 656.41L411.01 657.69L409.09 657.88L407.44 656.88L405.42 653.44L403.51 653.97L400.76 652.83L397.67 652.97L393.69 652.08L381.78 651.31L380.08 650.62L379 646.73L377.34 643.95L377.33 642.38L378.58 638.7L377.51 636.61L377.2 633.7L373.89 629.18L372.93 625.35L371.4 624.02L369.7 623.4L368.9 618.8L366.14 616.44L363.93 616.75L363.08 620.37L361.28 621.55L358.94 620.11L357.6 620.3L355.79 621.19L354.22 621.2L351.08 623.21L342.4 625.16L341.1 622.95L339.22 621.16L332.47 616.68L329.9 617.05L327.13 613.17L321.85 610.25L319.11 610.86L314.71 614.39L312.85 615.28L312.76 572.87L332.55 560.36L405.11 517.51L426.16 478.29L469.85 469.85L484.35 467.56L540.59 494.3L519.57 528.78L516.74 532.54L515.94 534.76L510.58 542.56L504.48 553.35L490.76 574.75L488.41 579.38L484.31 585.18L469.51 609.15Z" fill="#CCCCCC" stroke="white" stroke-width="0.5"/>
<path d="M232.8 410.43L226.76 415.34L211.3 434.2L217.34 506.69L272.17 559.17L332.34 558.17L337.1 557.68L332.55 560.36L312.76 572.87L312.85 615.28L312.21 616.45L312.12 619.08L311.42 619.61L303.79 621.66L295.53 624.7L291.04 625.5L274.92 631.24L244.69 652.66L243.29 653.19L221.88 647.04L219.51 647.63L219.2 650.09L216.17 651.63L205.51 650.16L203.75 649.18L198.16 650.69L194.02 651.19L191.98 652.2L191.23 653.08L191.07 654.48L189.39 655.89L186.36 657.08L163.61 659.04L160.41 659.76L159.41 658.84L159.69 657.67L158.57 656.52L157.29 656.12L147.76 655.45L146.37 656.28L144.04 656.18L142 657.19L141.01 657.14L140.18 655.81L141.63 654.05L140.51 653.42L137.72 654.38L135.34 656.55L127.53 657.26L125.66 662.08L118.96 662.07L115.16 668.37L114.25 670.83L107.88 671.14L103.78 670.06L93.61 675.29L91.03 675.44L79.79 673.9L73.42 678.82L71.29 679.28L69.01 679.13L65.37 673.44L63.55 671.75L58.39 669.6L48.97 668.37L44.88 666.99L35.77 665.45L32.88 664.38L21.5 663.46L19.98 660.08L18.61 659.16L10.72 658.39L9.81 656.85L8.59 652.24L8.74 649.78L9.96 647.79L13.45 645.02L15.88 623.94L16.94 595.22L18 588.15L18.76 550.79L17.24 526.94L15.27 513.87L12.95 507.21L2.8 465.47L1.89 461.11L2.24 459.6L1 456.74L1.76 453.2L6.99 443.52L7.68 440.98L11.75 435.19L11.32 429.19L12.54 424.88L13.6 422.11L17.4 416.56L15.88 411.48L16.49 406.55L20.74 395L21.95 388.07L24.68 380.98L27.63 370.09L44.46 361.65L49.33 358.27L51.12 350.99L53.34 349.34L70.93 341.19L72.9 339.46L73.67 336.36L74.63 334.74L86.53 317.27L141.29 327.83L155.62 333.54L221.05 399.66L226.21 403.07L232.8 410.43Z" fill="#CCCCCC" stroke="white" stroke-width="0.5"/>
<path d="M528.03 437.41L528.75 438.14L528.85 439.4L527.3 439.82L526.58 439.3V437.94L528.03 437.41ZM514 411.78L513.79 415.87L515.86 417.01L516.91 419.33L516.49 419.94L514.52 420.36L514.21 421.51L514.73 423.71L515.86 426.32L516.7 427.04L517.51 429.87L520.5 433.32L521.12 434.99L521.02 437.92L521.95 438.13L523.7 440.33H524.94L525.66 443.36L526.8 445.03V445.66L526.91 446.26L523.24 446.94L519.64 446.76L517.48 447.31L515.32 448.58L512.26 448.95L510.1 448.4L509.02 447.12L508.66 445.66L434.24 446.39V423.17L436.34 422.51L439.86 422.65L442.34 422.55L446.67 424.01L449.03 423.38L451.72 424.11L456.67 423.49L459.87 424.12L460.59 423.7L460.18 423.17L460.59 423.07L463.99 423.38L465.64 422.65L468.32 422.44L475.02 423.49L477.5 425.16L480.59 425.06L481.72 425.79L480.8 424.32L479.97 424.11L480.07 422.54L484.3 422.12L486.57 422.54L488.01 423.69H489.45L491.82 425.57L492.96 427.89L496.05 428.92L498.94 426.72L500.69 426.09L503.27 426.19L504.82 425.88L506.88 425.15L508.01 423.48L510.49 423.91L511 421.6L512.24 420.66L512.34 418.99L509.35 419.09L509.14 420.45L507.59 420.35L508.52 419.83L508.42 418.89L509.45 417.74L508.83 417.53L508.21 418.05L507.79 417.11L507.16 417.73L507.17 418.58L506.55 418.79L506.24 417.74L508.51 415.87L512.1 415.78L512.74 413.87L512.53 412.61L514 411.78Z" fill="#CCCCCC" stroke="white" stroke-width="0.5"/>
<path d="M506.081 1L509.551 1.88L510.361 2.7L512.731 13.96L515.051 18.97L516.211 23.09L518.231 26.33L519.681 31.34L525.751 36.94L536.741 53.13L544.261 61.38L550.341 69.03L559.011 84.05L563.201 87.38L564.511 90.47L566.701 91.4L566.491 94.65L567.421 95.49L570.101 97.59H571.441L573.631 96.14L573.921 95.07L575.981 92.87L576.001 92.24L574.741 91.82L573.931 88.18L575.661 88.05L579.071 90.56L578.151 92.03L577.321 97.48L579.071 108.71L580.411 113.22L581.861 116.48L583.201 117.72L584.331 120.04L586.081 119.94L587.321 120.67L590.421 126.55L591.761 134.83L592.891 137.46L594.341 144.27L595.261 152.56L596.401 156.12L595.881 160L597.221 167.87L600.421 170.07L601.861 174.06L603.721 175.84L604.931 178.04L605.881 182.86L607.321 183.62L609.491 187.06L609.081 190.41L610.111 199.32L608.671 202.15L610.421 205.3L611.621 208.34L610.941 211.16L611.971 214.73L612.901 222.07V227.83L611.961 237.78L609.491 247.84L604.421 257.79L601.971 264.48L599.801 268.59L598.561 269.63L596.811 273.4L596.291 275.92L594.851 277.59L592.581 278.54L586.291 279.06L584.331 278.54L579.901 278.12H576.911L571.441 277.7L570.721 277.91L569.071 281.26L567.211 283.77L565.771 285.34L559.691 285.24L558.141 285.66L555.661 284.72L548.661 284.59L543.081 285.55L541.851 287.44L539.271 286.5L536.791 285.76L533.181 286.18L531.021 287.54L526.381 287.86L523.901 289.43L520.911 294.04L517.101 298.12L511.941 302.21L510.601 303.99L509.881 307.02L506.481 307.65L504.511 310.78L502.761 311.73L502.141 314.46L500.291 315.5L499.261 318.64L496.581 320.74L494.931 323.37L493.071 323.98L491.421 326.18L490.601 329.11L482.751 324.39L480.341 321.45L476.231 318.26L469.711 305.26L468.741 299.86L463.671 289.81L451.351 277.54L417.691 240.21L391.391 212L389.701 209.55L389.461 206.6L384.391 202.18L381.001 201.2L377.861 198.99L373.271 197.52L369.411 197.03L359.991 191.87L354.671 186.22L348.881 181.8L344.291 176.15L338.971 164.85L336.071 156.74L333.661 154.53L332.211 150.85L332.931 148.39L334.621 146.43L336.311 143.23L339.211 140.78L344.291 138.56L345.201 133.97L346.911 135.19L347.781 135.06L348.011 134.01L346.391 131.98L346.581 130.8L348.141 128.68L351.561 126.19L352.601 124.6L354.991 124.28L357.801 125.6L359.501 125.82L363.921 124.44L365.491 123.19L365.891 122.19L365.691 119.44L367.901 118.43L369.461 116.31L370.201 114.02L379.291 112.29L384.771 112.54L388.321 110.16L392.361 105.44L392.341 102.16L390.501 98.43L390.361 95.56L387.471 91.9L384.841 91.69L382.671 90.07L381.721 88.14L381.591 86.5L382.971 83.86L383.621 78.4L386.161 74.34L388.411 71.21L391.351 67.61L394.181 63.9L396.341 63.7L398.861 64.44L401.521 61.54L405.141 61.75L405.991 59.51L404.291 57.89L404.171 56.95L406.661 54.64L405.181 52.84L405.351 51.43L408.021 50.06L408.101 45.9L409.791 44.95L413.341 44.39L415.101 38.45L416.951 36.27L421.331 35.7L424.201 37.67L426.661 38L430.651 34.03L431.811 33.55L435.731 33.81L438.931 32.26L443.841 26.53L445.051 25.74L506.081 1Z" fill="#CCCCCC" stroke="white" stroke-width="0.5"/>
<path d="M273.479 78.75L278.029 79.12L288.349 83.54L305.139 95.86L326.229 119.45L345.199 133.97L344.289 138.56L339.209 140.78L336.309 143.23L334.619 146.43L332.929 148.39L332.209 150.85L333.659 154.53L336.069 156.74L338.969 164.85L344.289 176.15L348.879 181.8L354.669 186.22L359.989 191.87L369.409 197.03L373.269 197.52L377.859 198.99L380.999 201.2L384.389 202.18L389.459 206.6L389.699 209.55L391.389 212L417.689 240.21L451.349 277.54L463.669 289.81L468.739 299.86L469.709 305.26L476.229 318.26L480.339 321.45L482.749 324.39L490.599 329.11L489.049 331.1L485.229 331.94L484.399 333.5L482.549 335.19V337.18L480.279 337.91L478.939 340.94L478.119 341.47L475.849 342.09L474.199 341.58L471.329 341.87L470.279 342.62L468.109 343.04L465.229 342.51L464.399 343.45L462.239 344.08L460.479 343.77L458.499 341.48L457.599 341.47L455.529 343.14L454.409 343.45L449.239 343.35L447.699 345.03L445.939 345.86L444.709 347.43L443.789 350.79L442.539 352.77L439.889 354.13L436.869 356.54L435.729 356.12L435.119 355.18L435.009 352.67L434.289 353.71L433.399 354.03L434.189 355.5L432.949 356.02L430.989 355.39L430.479 353.61L429.549 352.77L426.079 352.35L424.389 353.08L422.429 352.98L420.579 351.72L418.509 352.77L416.969 352.87L415.319 351.93L412.219 350.26L410.149 350.67L407.779 353.6L404.689 355.6L397.789 356.02L394.899 360.31L390.979 363.45L388.609 364.18L386.749 364.39L382.629 364.07L381.279 364.59L377.469 364.49L376.229 365.25L373.759 368.05L369.629 377.05L367.979 378.62L367.159 380.29L365.609 381.44L365.209 388.15L364.479 390.23L363.239 391.91L361.179 393.37L354.269 396.72L352.819 399.44L351.279 400.49L349.219 403.1L346.229 407.39L344.159 413.04L343.959 417.22L343.769 422.56L343.229 425.59L341.769 427.05L340.549 428.21L339.829 430.82L338.079 431.24L338.279 432.81L340.139 436.47L339.929 437.3L336.429 436.47L334.469 434.79L331.479 433.85L331.789 436.36L331.169 436.57L330.029 434.69L328.069 433.33L327.249 433.02L326.499 433.1L324.879 433.02L321.989 431.24L321.579 432.18L325.679 434.59L325.189 435.21L327.559 436.89L323.229 436.99L321.479 436.36L317.759 433.85L317.249 433.02L313.119 431.45L311.779 430.19L311.159 430.3L310.749 431.24L309.099 431.45L306.519 432.7L305.389 433.85L303.119 434.59L299.509 430.92L299.099 432.08L298.579 431.97L296.209 428.41L293.939 426.43L292.919 425.79L290.129 425.91L285.899 423.71L284.759 424.02L282.079 423.81L281.569 425.91L280.229 426.64L279.299 428.41L278.579 427.47L277.449 427.58L277.549 428.21L279.189 428.94L278.269 429.78L278.069 430.93L278.139 431.55L279.409 432.18L279.419 435.18L278.699 436.9L274.589 438.37L266.859 433.71L261.539 432.49L253.329 427.59L239.319 417.79L232.799 410.43L226.209 403.07L221.049 399.66L155.619 333.54L141.289 327.83L86.5293 317.27L100.829 296.31L114.569 278.87L117.669 270.94L119.459 269.03L125.969 257.42L128.209 250.58L132.689 241.47L135.869 238.43L142.399 236.65L145.959 236.53L150.049 221.03L155.009 214.81L162.199 201.64L171.939 190.56L181.249 176.43L197.239 161.24L204.409 153.51L212.999 126.09L233.099 98.83L242.129 87.97L255.939 74.12L260.179 74.04L263.359 75.21L266.829 77.27L270.589 77.57L273.479 78.75Z" fill="#CCCCCC" stroke="white" stroke-width="0.5"/>
</svg>
