<svg width="794" height="558" viewBox="0 0 794 558" fill="none" xmlns="http://www.w3.org/2000/svg">
<path d="M436.2 342.16L436.37 339.92L438.74 337.43L438.61 331.9L437.29 330.1L432.28 326.51L430.96 324.16L433.73 322.64V320.15L434.92 317.39L436.64 316.15L439.01 317.12L440.2 318.92L440.86 321.82L443.1 322.93L445.47 326.11L448.77 324.73L456.42 323.21L459.59 325.28V327.08L457.74 330.54L458.04 332.91L456.25 332.66L454.04 334.29L449.8 335.86L447.59 338.87L445.14 340.12L438.39 342.19H436.2V342.16Z" fill="#CCCCCC" stroke="white" stroke-width="0.5"/>
<path d="M251.14 363.63L251.32 364.01L248.57 364.57L246.12 368.26L246.18 366.63L248.21 364.19L251.14 363.63ZM240.39 215.1L243.47 213.97L244.63 212.44L246.55 211.68L248.09 212.46L251.55 216.7L250.01 219.76L250.39 223.22L251.93 223.99L254.24 227.07V228.99L252.7 228.98L251.55 230.13L251.93 239.72L255.39 243.96L255 247.09L256.27 249.19L260.32 251.11L262.67 253.58L268.46 262.05L272.69 261.69L274.16 262.78L278.46 263.31L283.29 267.42L284.6 271.4V277.98L283.82 282.91L281.11 285.09L281.53 285.51L283.84 286.67L286.92 289.37L289.23 293.21L289.61 299.72L286.92 303.92L287.69 305.46L289.61 307.39L296.53 311.64L297.3 312.79V315.09L299.61 317.78L299.99 319.31L301.14 319.7L303.45 318.56L304.99 318.57L306.14 321.26L311.14 322.44L312.29 323.6L313.44 323.22L316.52 327.45L321.9 328.25L323.05 329.4V330.17L321.9 330.93V333.23L323.82 334.39V336.69L325.74 339.76L325.35 342.44L329.05 344.99L330.73 347.82V350.88L326.49 356.59L326.1 362.32L327.25 365.77V367.68L324.94 373.02L322.63 374.15L318.78 374.13L316.09 375.64L307.63 375.98L306.52 377.03L304.67 375.59V373.84L307.18 368.33L308.97 367.89L309.27 365.26L308.25 361.13L308.49 359.25L309.63 357.31L309.39 354.49L307.9 352.61L307 346.41L305.51 344.85L302.7 343.54L299.47 342.91L297.74 342.97L293.98 341.66L291.05 341.85L287.76 340.72L284 341.28L282.62 344.35L279.27 345.79L279.39 347.67L279.69 348.92L280.89 351.74L279.1 354.87L277.67 356.37L276.48 356.68L275.82 358.12L272.06 360.06L268.47 359.43L261.24 360.31L261.06 358.62L259.09 358.18L257.3 359.24L257.66 361.12L255.87 361.68L253.72 363.75L253.24 363.31L253.96 362.62L252.47 362.5L253.9 360.75L253.07 360.56L252.89 359.81L250.92 359.62L249.96 360.56L250.38 361.06L248.71 361.19L247.46 362.25L245.67 364.94L245.07 367.44L245.49 368.07L243.58 369.82L242.68 371.82L235.33 378.83L233.6 379.08L231.75 380.77L228.82 380.83L226.25 382.27L224.58 381.71L223.8 380.05L224.98 380.09L226.14 378.19V375.9L227.3 374.76L228.07 371.32L227.3 367.88L224.99 365.57L223.07 361.74L224.22 360.22L225.76 359.46V357.55L224.61 356.01L222.69 355.62L220.38 356.76L219.99 357.91L218.45 359.05L213.83 357.49L213.45 355.58L211.91 353.66L209.6 353.26L208.45 354.02L207.68 350.96L205.76 347.89V347.13L211.15 346.01L212.3 345.25L213.46 340.67L214.23 339.91V336.47L215.77 335.72L218.08 335.73L219.62 333.83L219.24 331.15L218.47 330L212.7 326.52L210.78 323.45L209.63 319.62L211.94 320.4L213.48 322.71L213.86 325.01L214.63 325.02L215.78 323.5L219.63 322.76L220.78 321.62L216.55 317.39L208.86 314.67L205.4 314.27L202.71 312.34L198.48 311.55L195.79 309.62L190.02 308.06L188.48 306.91L186.94 304.22L183.48 301.9L182.33 299.34L187.82 299.16L193.04 293.75H195.3L197.85 287.42L201.69 287.32L203.88 285.15L205.8 284.78L205.42 282.1L203.11 279.79V277.87L204.26 276.73L205.8 276.74L206.57 275.98L206.19 274.06L205.04 273.67V272.14L204.27 271.37L203.89 265.24L205.04 263.33L207.35 261.81L210.04 261.83L211.58 262.99L212.35 266.06L214.27 269.9L215.81 269.91L216.58 267.61L218.89 265.32L219.66 262.64L222.36 258.06V255.38L219.67 250L218.13 244.24L218.9 243.09L220.44 242.72L222.75 238.13L223.13 235.83L222.36 235.06V233.91L225.44 232.39L226.6 232.4L228.14 229.72L233.53 228.6L235.07 226.31L233.15 221.7L239.69 220.59L240.85 219.06V217.52L240.08 216.75L240.39 215.1Z" fill="#CCCCCC" stroke="white" stroke-width="0.5"/>
<path d="M101.88 291.4L103.42 292.17L104.57 293.71L107.65 295.26L111.88 296.43L114.57 296.45L116.88 295.31L119.57 295.71L125.34 298.81L126.5 301.11L128.03 301.12L129.57 299.6L132.26 300.38L132.65 302.68L140.34 304.25L144.57 301.21L146.5 301.22L147.65 299.32L149.19 298.18L151.88 298.19L154.96 299.36L162.27 299.4L171.12 295.62L176.12 294.5L181.12 296.06L181.89 296.83L182.27 299.26L183.42 301.81L186.89 304.13L188.42 306.82L189.96 307.98L195.73 309.54L198.42 311.47L202.66 312.26L205.35 314.19L208.81 314.59L216.5 317.32L220.73 321.55L219.58 322.69L215.73 323.44L214.57 324.96H213.8L213.42 322.66L211.88 320.35L209.58 319.57L208.42 320.33L208.04 321.86L209.96 323.79V325.32L204.57 324.9V326.05L206.11 326.83V329.51L205.34 331.03L203.42 331.02L202.65 331.78L201.11 331.39L199.95 332.15L199.18 333.29V335.97L196.49 336.72L194.57 335.18L193.41 335.94L191.87 338.61L190.72 338.6L189.56 339.74L185.33 339.34L184.95 340.86L186.1 341.64L188.03 341.65L188.8 342.42L188.41 343.94L186.87 345.08L184.56 344.69L183.79 346.21L180.33 346.96L176.1 348.85L175.33 350.76L173.02 352.66V354.57V355.72L172.63 358.77L174.55 359.93L173.78 361.84L169.94 361.82L166.48 362.94L164.55 362.55L161.48 359.09L161.09 355.65L159.17 353.73L159.56 351.81L158.79 349.9L155.33 347.58L153.02 343.75L152.25 343.36L148.02 343.33L146.86 344.86L138.4 349.02L135.32 351.68L133.4 351.67L126.09 345.51L123.78 344.73L123.02 343.19L116.86 340.1L112.25 339.69L108.02 338.52L83.7901 326.52L81.8601 323.45L81.1001 315.4L81.8701 312.35L86.8701 302.04V295.53L88.4101 294.77L95.3401 294.04L100.34 292.54L101.88 291.4Z" fill="#CCCCCC" stroke="white" stroke-width="0.5"/>
<path d="M209.58 319.57L210.73 323.4L212.65 326.47L218.42 329.95L219.19 331.1L219.57 333.78L218.03 335.68L215.72 335.67L214.18 336.43V339.87L213.41 340.63L212.26 345.22L211.11 345.98L205.72 347.1V347.87L207.64 350.94L208.41 354L209.56 353.24L211.87 353.64L213.41 355.56L213.79 357.47L218.41 359.03L219.95 357.89L220.34 356.75L222.65 355.62L224.57 356.01L225.72 357.55V359.46L224.18 360.22L223.03 361.74L224.95 365.57L227.26 367.88L228.03 371.33L227.26 374.77L226.1 375.91V378.2L224.94 380.1L223.77 380.06L221.98 378.59L222.04 377.09L220.78 373.71L218.51 372.65L217.38 370.59L212 368.09L209.61 368.78L209.31 367.59L206.98 366.53L205.01 366.47L203.7 365.03L202.51 365.22L200.6 365.91L200.12 366.72L200.48 367.47L202.87 366.09L203.59 366.22L203.83 367.03L198.93 370.53L195.05 374.85L193.56 378.6V380.79L194.4 383.23L195.84 383.98L196.14 385.61L197.99 386.92L199.13 388.98L197.22 391.04L199.97 394.79L201.35 395.42L202.67 400.17L205.18 402.92L203.33 405.55L203.09 409.43L201.96 411.18L201.54 413.49L196.58 422.61L195.74 423.36L194.31 423.49L191.86 426.61L191.98 428.55L187.38 431.74L187.44 436.11L185.95 436.3L184.4 438.86L183.2 439.17L181.71 440.73L178.84 446.35L172.8 455.4L171.31 456.15L168.98 460.02L165.99 461.64L165.51 462.7L161.09 466.07L159.12 468.69L157.69 472.25L157.03 472.38L156.45 470.44L156.14 467.91L157.29 466.39L156.52 461.43L155.07 460.37L154.82 457.12L149.73 450.74H146.93L145.66 454.99L142.1 456.05L138.06 451.02L135.75 449.48L133.96 449.78V448.34L132.94 446.48L130.4 444.62H125.82L124.29 442.76L123.78 441.17L124.54 438.78V434L125.05 432.94L127.59 434.27L130.39 433.47L134.46 428.15L134.97 425.76L134.46 421.24L130.9 415.39L135.48 415.12L137 413.26L136.75 412.2L134.97 410.6L130.9 407.94L126.27 407.43L126.91 405.54V400.57L128.83 397.91L131.91 397.16L134.99 398.71L138.45 398.35L140.76 399.13L141.53 398.37L138.46 388.04L132.69 376.93V375.4L138.46 367.79L144.61 372.41L153.46 374.37L158.46 374.4L167.69 371.78L169.61 369.88L171.15 366.45L173.07 364.93L173.84 361.88L174.61 359.97L172.69 358.81L173.08 355.75V354.6V352.69L175.39 350.79L176.16 348.88L180.39 346.99L183.85 346.25L184.62 344.72L186.93 345.12L188.47 343.98L188.86 342.45L188.09 341.68L186.17 341.67L185.02 340.9L185.41 339.37L189.64 339.78L190.79 338.64L191.94 338.65L193.48 335.98L194.63 335.22L196.55 336.76L199.24 336.01V333.33L200.01 332.19L201.17 331.43L202.71 331.82L203.48 331.06L205.4 331.07L206.17 329.54V326.86L204.63 326.09V324.94L210.02 325.35V323.82L208.1 321.9L208.49 320.37L209.58 319.57Z" fill="#CCCCCC" stroke="white" stroke-width="0.5"/>
<path d="M58.9 66.02L60.81 68.32L63.11 68.72L63.88 69.88L67.73 69.52L80.04 74.59L87.73 74.64L93.13 73.52L98.5 73.93L100.04 72.4L102.35 71.64L107.73 72.05L108.89 75.14L108.5 76.68L109.65 78.23L112.35 79.02L113.5 80.56L115.42 81.73L118.88 82.9L121.57 86.39L124.65 87.17L128.11 89.12V90.66L122.34 96.79L120.03 101.4V108.33L121.18 112.18V115.65L120.02 117.57L117.33 118.7L116.95 119.47L117.71 124.87L116.94 129.86L117.32 136.02L111.55 137.14L106.17 135.96L106.94 139.81L111.17 142.91L111.94 144.83L111.55 145.99L108.86 147.51L106.16 151.72L103.47 151.32L102.32 149.78L99.63 149L96.55 149.75L92.32 147.42L90.39 149.33L89.62 155.09L88.85 155.86L86.16 155.07L83.47 156.98L81.16 160.04L80.34 159.77L78.07 159.31L74.7 159.58L74.27 158.53L71.99 158.09L70.81 157.48H69.21L67.6 156.16L65.32 154.32L65.74 153.26L65.32 152.56L61.85 150.89L62.27 150.1L61.68 148.6L61.09 148.78L60.25 152.22L58.82 150.72L58.47 148.79L56.62 149.41L56.45 148.35L55.18 148.18L55.6 146.06L54 145.62V144.57L54.42 142.89L53.57 142.01L52.13 138.84L51.12 139.11L49.93 137L48.5 136.56L51.53 134.88L55.75 134.61L56.76 131.26L59.46 130.2L61.65 128.52L63.08 129.31L63.84 127.19L66.29 128.95L66.71 130H68.15L68.74 129.3L68.31 127.89V126.56L67.29 121.72L69.14 119.16L69.31 115.81L71.33 113.25L70.9 112.02L71.58 110.96L71.32 109.19L69.88 107.96L69.29 104.35L68.12 103.31L68.69 102.23L68.1 100.56L68.86 99.94L69.53 97.56L69.27 95.09L68.51 95.88L66.83 95.27L66.06 92.98L66.22 90.6L64.79 91.22L64.03 90.6L64.02 86.63L62.59 84.25L57.35 79.23L56.91 67.94L58.9 66.02Z" fill="#CCCCCC" stroke="white" stroke-width="0.5"/>
<path d="M385.84 99.82L387.76 102.14L391.22 102.93L392.38 104.09L393.91 104.1L395.07 104.88V106.03L395.84 106.81L398.53 106.44L400.45 107.6L403.53 117.63L402.37 125.32L403.91 126.48L405.06 130.72L409.29 139.21L410.83 139.98L417.75 139.64L423.52 140.82L425.06 141.99L424.29 146.21L424.67 148.91L426.98 151.23L436.98 153.21L445.06 156.71L458.13 160.25L459.67 161.03L461.21 162.96L466.21 166.06L472.36 167.63L478.13 167.66L480.44 163.45L481.98 162.69L485.83 162.71L488.52 164.26L492.75 164.67L496.21 163.92L498.14 166.24L502.75 165.5L504.68 166.28L504.29 167.81L502.75 167.8L500.83 170.1L499.67 174.7L498.13 174.69L497.75 176.23L496.21 176.22L495.44 175.45L494.67 176.98L492.75 177.35L493.52 178.89L492.75 179.66L489.28 181.94L486.98 181.93V184.24L489.28 186.94L490.82 191.56L485.82 191.53L484.66 192.67L481.97 191.51L478.12 191.1H476.97L473.51 193L466.97 192.19L462.74 194.09L458.12 192.52V202.89L456.58 204.04L449.27 203.61L450.04 197.47L452.35 192.11L451.97 191.34L449.27 190.17L445.43 189.76L442.74 187.44L438.12 185.11L436.2 185.1L433.5 187.78L432.35 187.77L429.66 185.83L420.81 183.48L418.12 181.16L417.35 181.15L416.97 180L414.27 179.98L413.12 177.67L411.97 178.82L409.27 179.57L408.12 178.8V178.03L405.43 177.63L404.66 179.16L403.5 178.77L403.12 180.31L401.96 179.91L402.35 177.61L401.96 176.84L400.81 177.99L399.66 177.6L397.73 181.04V178.35L396.96 179.12L396.19 178.35L395.04 179.11L393.5 179.1L394.27 176.41L392.73 176.02L391.19 176.78L388.5 179.84L387.35 178.3L386.58 179.06L386.19 180.98L382.35 179.8L381.19 177.88L378.89 178.63L378.12 176.71L377.35 177.47L376.58 176.7L375.04 177.46L373.5 176.68L371.96 177.06L370.81 177.82V178.59L371.58 178.21L371.57 179.36L370.04 179.35L368.5 176.27L365.42 173.94L362.73 173.16L358.89 168.53L356.96 167.37L354.66 164.28L353.89 161.58L353.12 158.5L351.97 156.96V153.88L353.12 151.2L355.43 149.67L356.97 147.37V143.53L358.9 139.31L358.51 136.61L360.82 130.09L361.98 123.17L368.14 118.58L369.68 117.82L371.6 117.83L373.91 115.54L378.53 114.02V112.87L375.45 111.7L374.68 109.77L375.83 107.46L379.68 105.56L381.22 105.57L382.76 104.42L383.15 101.35L382.38 99.8L381.22 99.41L385.84 99.82Z" fill="#CCCCCC" stroke="white" stroke-width="0.5"/>
<path d="M616.64 202.59L618.43 203.16L622.43 209.88L625.9 210.07L626.68 212.71L628.71 213.71L629.31 213.33L631.34 215.53L632.48 215.28L633.68 216.03L638.16 215.28L641.81 215.84L644.8 215.15L646.36 213.89L646.72 212.45L644.21 209.94L644.27 209.12L646.54 208.12L648.03 209.31L650.36 209.37L651.62 208.68L652.1 207.61L651.74 206.86L653.89 205.42L657.18 206.61L658.43 205.35H659.81L662.56 206.36L665.37 206.55L676.61 214.4L678.34 214.34L679.54 213.27L682.71 213.59L687.49 216.86L689.16 216.42L692.02 217.24V221.11L690.1 220.33L690.48 223.02L689.71 223.78L687.79 223L686.64 225.3L683.56 225.67L682.79 227.2L683.17 231.81L681.63 232.19L678.94 234.48V235.63L680.86 238.71L686.24 251.01L686.62 258.3L685.85 260.98L683.16 262.5L680.08 266.7L676.23 268.98L672.77 275.48L670.85 275.85L667.39 274.68L662.01 275.03L661.24 275.79L660.47 278.47L660.85 281.92L659.31 283.44L659.7 285.36L661.24 286.9V288.05L657.39 288.03L654.7 286.48L653.93 286.86L651.24 292.59L649.7 294.5L647.01 301.38L643.55 305.96L637.01 310.9L636.24 313.58L632.01 317.77L627.39 319.28L628.55 310.1L630.47 309.35L629.7 307.82L623.55 307.78L621.24 309.3L618.93 309.67L613.16 306.58L611.24 301.97L605.09 297.72L601.63 296.55L599.32 297.69L597.01 297.68L595.86 294.99L592.79 293.82L593.18 289.99L594.33 290L595.48 288.86H596.25L597.02 287.72L597.79 284.66V280.06L600.1 273.18L599.72 269.35L600.87 266.67V264.37L598.95 260.14L592.42 252.05L590.5 250.51L585.12 248.95L583.97 245.11L582.05 244.72L580.51 243.56L577.82 237.02L575.51 234.71V232.41L576.66 230.5L577.43 222.83L579.35 222.46L583.2 224.4L589.74 229.04L591.66 229.44L594.74 231.38L605.51 233.36L607.05 232.99L608.21 231.08L607.83 228.39L603.98 224.15L599.75 221.44L596.67 216.05L596.29 211.83L599.37 211.08L601.67 208.73L603.1 209.35V210.54L603.7 210.92L604.54 210.23L606.45 210.48L607.77 208.85L607.83 210.04L609.92 210.17L611.41 210.42L612.25 209.67H614.16L614.52 210.86L615.3 210.99L614.76 212.62L616.55 213.25L618.16 210.8L617.92 205.33L616.54 203.51L613.97 204.14L615.22 202.95L616.64 202.59Z" fill="#CCCCCC" stroke="white" stroke-width="0.5"/>
<path d="M352.07 50.38V51.27L355.3 55.24L364.98 63.13L368.51 65.15L374.19 67.1L383.09 67.36L385.42 68.62L391.46 70.26L392.83 70.13L395.22 71.77L396.84 71.39L400.6 71.9L412.02 69.55L412.39 71.08L411.62 73.39V77.24L410.85 80.32L409.69 81.47L404.31 83.75L400.84 86.81L398.15 87.18L395.46 88.71L394.3 87.93L389.69 88.29L388.15 87.51L387 88.27L387.76 94.06L385.84 99.82L381.22 99.41L378.53 97.08L375.84 93.22L375.07 90.52L376.22 88.98L375.84 87.82L374.69 86.66L371.99 85.88L369.69 85.86L367.76 87.01L365.07 87.38L363.15 90.06L360.84 90.82L360.07 91.59L357.37 99.66L355.45 100.42L353.14 99.64L351.99 98.09L351.6 93.47L350.83 92.69L346.6 91.9L344.68 90.73L342.76 88.02H341.99L336.99 99.54L337.37 104.94L335.44 108.01V111.09L336.21 113.01L338.52 115.72V118.42L335.82 124.17L333.13 135.32L331.59 138.39L331.58 140.31L330.43 140.68L330.04 142.99L329.28 143.75L324.27 143.73L323.51 142.57V135.65L320.05 129.09L319.28 129.08L317.74 130.61L316.2 133.3L312.74 133.66L302.35 132.45L301.2 131.29L300.81 129.36L300.04 128.97L300.82 127.05L302.36 125.52L304.28 125.53L305.82 127.08L306.59 126.7V125.55L305.43 124.39L304.28 120.92L303.9 117.07V115.53L306.59 110.92L306.21 105.15L307.37 103.61L310.44 102.86L314.29 99.8V95.18L315.45 93.65L316.6 93.27L317.37 84.41L320.84 80.19V78.27L319.68 76.34V75.18L321.22 72.49L321.23 70.56L320.46 70.17V69.02L322.76 68.26L322 67.49L322.38 66.33L324.3 64.42L325.46 65.19L326.23 64.81L327.38 65.97L328.54 64.82L331.23 64.84V65.61L332 66L332.38 63.3L335.85 63.71L337.39 62.56L338.15 62.57L339.69 65.66L341.23 65.67L342.39 63.75L343.92 65.3L344.31 63.37L345.08 63.38L345.85 65.31L347.38 64.93L347 63.77H345.85V62.61L350.85 61.87L351.23 61.1V59.17L349.7 55.69L352.01 50.38H352.07Z" fill="#CCCCCC" stroke="white" stroke-width="0.5"/>
<path d="M601.59 208.63L599.29 210.98L596.21 211.73L596.59 215.95L599.67 221.34L603.9 224.05L607.75 228.29L608.13 230.98L606.98 232.89L605.44 233.27L594.67 231.29L591.59 229.35L589.67 228.96L583.13 224.32L579.28 222.38L577.36 222.75L576.59 230.42L575.44 232.33V234.63L577.75 236.94L580.44 243.48L581.98 244.64L583.9 245.04L585.05 248.88L590.43 250.44L592.35 251.99L598.89 260.08L600.81 264.31V266.61L599.66 269.29L600.04 273.13L597.73 280.02V284.62L596.96 287.68L596.19 288.83H595.42L594.27 289.97L593.12 289.96L592.73 293.79L590.8 296.46L588.49 297.6L583.49 297.96L582.72 299.49V302.55L581.57 304.08V308.29L582.34 309.44L580.03 309.43L579.64 311.73L575.79 314.01L572.71 317.06L571.17 320.5L566.94 313.59L566.56 311.29L564.64 307.83L563.87 303.61L560.41 301.29L558.87 297.83L558.49 294.76L556.18 292.07L555.03 289L552.72 287.84L552.34 286.31L555.04 282.88L553.5 280.57V274.44L551.19 270.21V267.91L550.04 266.75L547.73 266.35L546.96 264.43L547.73 258.3L548.5 257.15L550.04 256.01L550.43 253.33L551.97 252.96L555.44 248.38L559.67 247.25L561.21 243.42L564.29 243.05L565.83 240.37V238.07L564.29 236.91L561.98 236.9L555.83 238.02L551.98 235.31L546.21 233.36L541.98 230.27L538.13 229.1L534.29 226.01L531.98 225.61L530.06 224.45L528.91 222.53L527.37 221.37L521.99 219.04L518.15 215.56L515.84 214.4L511.99 213.61L510.07 210.53L512.38 205.17L515.13 194.1L517.58 194.6L522.6 193.34L523.02 192.59L524.75 192.78L525.77 191.71L527.32 193.03L528.87 192.97L529.29 193.91H531.98L535.98 192.65L538.01 192.4L539.45 192.15L541.3 193.97L541.24 194.98L546.38 194.73L546.86 194.1L548.11 195.23L548.89 196.24L549.61 196.62L552.12 195.36L552.84 190.65L550.63 190.09L550.09 191.16L549.01 190.28L548.53 191.41L547.1 191.15L544.47 191.91L544.41 191.28L550.51 189.58L553.68 190.02L558.28 189.2L560.73 190.39L563.48 193.03L564.85 193.41L564.43 194.54L565.15 195.29L564.37 196.11L564.43 197.24L565.74 199.38L571.18 200.7L573.63 202.71L580.5 201.52L582.11 203.28L583.07 203.34L583.49 204.66L587.02 205.54L590.96 208.93L597.65 206.29H599.26L601.59 208.63Z" fill="#CCCCCC" stroke="white" stroke-width="0.5"/>
<path d="M45.47 283.42L54.18 283.47L73.03 287.4L85.34 287.09L89.57 289.03L100.34 290.62L101.88 291.4L100.34 292.54L95.34 294.04L88.41 294.77L86.87 295.53V302.04L81.87 312.35L81.1 315.4L81.86 323.45L83.79 326.52L108.02 338.52L112.25 339.69L116.86 340.1L123.02 343.19L123.78 344.73L126.09 345.51L133.4 351.67L135.32 351.68L138.4 349.02L146.86 344.86L148.02 343.33L152.25 343.36L153.02 343.75L155.33 347.58L158.79 349.9L159.56 351.81L159.17 353.73L161.09 355.65L161.48 359.09L164.55 362.55L166.48 362.94L169.94 361.82L173.78 361.84L173.01 364.89L171.09 366.41L169.55 369.84L167.63 371.74L158.39 374.37L153.39 374.34L144.54 372.38L138.39 367.76L132.62 375.37V376.9L138.39 388.01L141.46 398.35L140.69 399.1L138.38 398.33L134.92 398.69L131.84 397.15L128.77 397.89L126.84 400.56V405.52L126.2 407.41L122.7 405L118.63 400.48L110.49 393.29L102.1 392.5L97.5 391.17L92.61 388.14L87.35 386.64H83.53L80.74 385.05L78.45 382.38L72.99 378.48L70.3 375.02L68.14 375.01L66.75 373.87L62.18 372.26L68.96 360.86L47.26 352.23L45.4 349.08L39.74 347.86L36.69 340.95L29.59 337.11L23.51 334.66L21.48 328.36L28.73 327.03L28.56 324.14L12.5 307.07L9.87 301.2H8.1L5.81 298.05L2.77 298.49L1 296.83L3.36 295.33L6.65 294.27L10.1 289.62L14.75 291.54L18.38 294.43L19.82 293.99L21.58 291.26H23.44L27.92 293.97L28.68 296.07L30.12 295.9L31.12 293.79L34.75 294.22L36.44 295.71L40.07 294.65L42.69 295.26L44.54 294.2L43.86 288.32L45.29 286.39L45.47 283.42Z" fill="#CCCCCC" stroke="white" stroke-width="0.5"/>
<path d="M697.2 393.28L698.4 394.47L705.81 396.53L710.23 399.34L714.41 399.47L713.75 398.78L714.05 398.28L717.4 398.84L718.54 400.84L720.99 401.22L722.43 402.28L726.49 401.72L728.1 402.41L731.33 401.28L733.24 401.72L736.59 404.22L738.68 406.91L739.82 409.47L739.7 412.16L737.91 413.29L737.25 412.1L736.17 412.35L735.63 411.35H733.78L729.36 409.73L723.68 408.73L721.47 410.04L720.04 409.79L717.23 410.6L715.74 412.23L714.13 412.36L699.61 407.3L700.15 406.49L699.73 405.3L696.21 400.99L693.58 399.05L693.94 395.42L695.32 394.04L697.2 393.28ZM692.06 217.23L694.39 218.42L695.65 218.29L698.76 220.93L701.81 221.49L708.8 226.33L709.58 227.46L711.97 228.46L714.84 232.23L722.43 238.76L723.03 240.33L728.35 246.11L728.71 247.43L731.58 249L732.6 251.13L736.01 253.14L744.38 261.93L747.19 263.88L748.27 263.82L748.93 262.31L750.43 263.19L750.19 263.94L750.97 264.94L757.96 271.15L760.11 272.28L762.32 272.53L764.53 275.42L767.22 277.68L767.28 278.81L768.3 280.19L772.42 282.38L774.03 285.45L777.02 287.96L779.05 289.28H779.89L780.85 288.15L784.85 291.54L788.5 293.3L792.5 298.75L791.72 300.07L793.04 300.89L792.68 303.65L791.31 303.78L792.51 305.47L790.9 309.67L789.29 311.55L787.44 315.31L784.45 318.82L784.09 320.83L783.19 321.46L780.74 325.85L778.11 326.54L778.17 328.86L776.14 332.56V333.69L772.79 336.45L771.54 336.7L770.05 339.21L766.94 342.09L765.87 345.85L765.57 356.68L762.46 360.5L757.14 362.19L742.44 357.5L740.65 355.94L738.98 355.63L736.59 354.13L734.56 352.32L730.92 354.07L730.14 355.38L730.02 357.51L732.77 360.95L733.07 363.27L730.02 370.03L727.51 372.6L726.31 375.16L725.36 379.92L724.4 380.55L724.52 386.37L724.64 387.06L724.76 389.56L724.22 390.94L720.34 389.19L719.62 389.69L716.45 389.63L714.12 390.94L710.6 391L707.73 390.06L706.89 391.12L705.7 390.93L704.68 392.18L703.66 392.37L703.15 392.06L703.49 391.17L704.62 391.37L705.4 389.31L703.49 387.93L702.3 387.99L701.4 389.12L701.76 390.56L703.01 390.87L702.81 391.37L700.15 392.56L700.93 390.68L700.09 385.74L697.58 382.55L694.06 373.98L690.06 368.54L687.37 362.47L682.53 358.9L680.98 356.02L681.64 354.71L680.98 353.9L668.32 347.96L668.95 345.98L670.49 344.08L670.88 336.05L673.19 334.91L672.81 333.38L674.35 331.48L674.74 329.57L676.28 328.05L679.74 321.18L678.97 320.41V312.37L673.2 308.51L668.97 301.59L667.05 300.81L666.67 295.45L665.9 294.3L663.98 293.91V291.61L661.67 290.07L661.29 288.15V287L659.75 285.46L659.37 283.54L660.91 282.02L660.53 278.57L661.3 275.89L662.07 275.13L667.45 274.78L670.91 275.95L672.83 275.58L676.3 269.08L680.15 266.8L683.23 262.6L685.92 261.08L686.69 258.4L686.31 251.11L680.93 238.81L679.01 235.73V234.58L681.71 232.29L683.25 231.92L682.87 227.31L683.64 225.78L686.72 225.41L687.87 223.11L689.79 223.89L690.56 223.13L690.18 220.44L692.1 221.22V217.35H692.06V217.23Z" fill="#CCCCCC" stroke="white" stroke-width="0.5"/>
<path d="M111.94 144.83L113.86 145.62L115.78 145.24L120.78 147.58L123.47 151.44L123.86 156.05L131.93 162.25L134.24 162.26L138.85 165.75L143.85 167.31L146.55 169.25H146.16L145.01 170.78L143.85 181.15L144.62 183.84L143.46 185.37L140.77 186.89L136.15 186.87L133.07 189.54L131.54 189.53L131.15 187.99L128.46 187.98L124.62 184.11L117.31 182.92L115 183.67L111.15 189.42L111.53 194.03L108.84 198.23L105.76 205.9L105.37 210.89L104.6 211.65L102.29 212.02L94.9801 210.06L93.0601 210.43L90.7501 212.34L82.6701 222.27V223.42L83.4401 224.2L84.9801 224.59L84.5901 228.42L81.1301 234.16L80.7401 238.76L81.5101 238.77L83.8201 236.48L84.5901 236.86L84.2001 244.92L85.3501 249.14L83.8101 251.05L83.0501 253.73L81.8901 254.49L84.9701 256.43V257.96L86.5001 259.89L89.5801 261.44H91.1201L91.5001 262.6L94.2001 264.15L94.5801 266.06L93.4201 268.36L92.2701 269.12L91.8901 270.65L92.6501 272.19L93.8101 272.96L95.3401 276.42L97.6501 277.58L101.5 277.22L103.42 278.38L104.96 282.22V283.75L103.42 289.49L101.88 291.4L100.34 290.62L89.5701 289.03L85.3401 287.09L73.0301 287.4L54.1801 283.47L45.4701 283.42L45.1201 282.79L46.5501 281.3L48.3201 282L49.1601 281.29L49.5801 278.13L59.4501 274.34L62.7101 255.81L63.0301 249.31L61.8501 247.38V245.71L62.0101 239.82L61.6701 239.38L59.3901 239.12L59.6401 237.45L58.9601 236.23L54.3101 232.81L52.7101 232.64L49.4901 223.33L49.8201 221.92L47.8001 221.04L47.0401 222.28L43.1501 220.88L42.7301 219.56L39.9401 218.77L38.6801 220.01L37.9201 218.34L36.3201 220.01L35.3001 220.63L34.0401 221.95V221.25L32.6001 220.02L32.6101 223.62L31.0101 223.8L29.5701 223.19L28.5601 224.86L27.9701 224.69L27.3701 220.91L28.3901 221.52L29.5701 221.26L29.3901 218.09L31.4201 217.3L31.2501 215.8L32.2601 215.36L32.4301 216.85L33.8601 216.68L33.6101 215.62L34.6201 214.56L34.4501 213.25L36.0501 213.68L36.8901 211.57H38.3301L38.4901 210.34L39.0801 210.69L39.6801 213.06L44.4001 212L44.5701 210.94L46.0101 210.5L46.6001 211.73L46.1801 212.43L47.6101 213.22L48.4601 213.04L48.6201 212.16L47.6101 211.37L47.7801 209.88L49.0401 208.82L49.8001 209.26L51.0701 208.55L49.4601 207.5L52.0701 204.33H52.6601L53.2501 205.65L54.1001 205.38L53.5001 203.71L56.5401 200.8L58.5601 201.86L59.1501 200.09L61.3501 199.74L62.3601 198.42L63.7901 197.8V197.18L62.7801 196.92L63.7901 195.25L65.2201 196.3L66.9901 194.63L64.6301 193.75L64.7901 192.34H66.8101L67.8301 191.63L67.4101 189.79L65.8001 188.91L66.2201 187.85L67.8201 186.8L70.6901 188.29L71.7001 186.79L71.0301 184.94H72.2901H73.4701L75.0801 185.72L77.1001 184.49L78.9501 180.7L77.0901 179.39L80.1301 178.15L78.5201 176.65L79.3701 176.48L79.5401 175.77L79.3601 174.72L78.5201 174.37L78.7701 173.31L80.9701 173.66L81.5601 173.04L78.5201 171.37L79.1101 170.49L80.5401 170.93L81.1301 170.14L82.5601 170.31L82.9901 169.25L80.3701 167.76L80.5301 165.65L82.8101 164.59L83.4001 165.47L83.9901 164.59L82.5501 163.53L80.7701 160.63L81.1601 160.04L83.4701 156.98L86.1601 155.07L88.8501 155.86L89.6201 155.09L90.3901 149.33L92.3201 147.42L96.5501 149.75L99.6301 149L102.32 149.78L103.47 151.32L106.16 151.72L108.86 147.51L111.55 145.99L111.94 144.83Z" fill="#CCCCCC" stroke="white" stroke-width="0.5"/>
<path d="M644.79 352.93L647.96 356.62L648.86 359.44L649.1 360.38L648.62 361.63L643.84 360.07L641.75 358.44V357.63L642.77 357.82L643.49 353.13L644.79 352.93ZM627.33 319.24L631.95 317.74L636.18 313.55L636.95 310.87L643.49 305.93L646.95 301.35L649.64 294.47L651.18 292.56L653.88 286.83L654.65 286.45L657.34 288L661.19 288.02L661.57 289.94L663.88 291.49V293.79L665.8 294.18L666.57 295.33L666.95 300.69L668.88 301.47L673.11 308.39L678.88 312.25V320.29L679.65 321.06L676.19 327.93L674.65 329.45L674.26 331.36L672.72 333.27L673.1 334.8L670.79 335.94L670.4 343.97L668.86 345.87L668.23 347.85L666.13 347.79L661.89 346.91L659.86 345.78L658.55 346.59L657.77 345.02L656.16 344.65L653.05 345.96L652.69 347.21L651.79 347.84L647.49 347.53L643.79 348.97L634.05 349.85L629.26 349.6L627.72 345.64L628.49 342.97L627.34 341.05V339.9L623.88 334.91L622.73 334.14L621.19 331.07V329.16L622.73 326.11L626.19 322.68L627.33 319.24Z" fill="#CCCCCC" stroke="white" stroke-width="0.5"/>
<path d="M300.04 128.97L300.81 129.36L301.2 131.29L302.35 132.45L312.74 133.66L316.2 133.3L317.74 130.61L319.28 129.08L320.05 129.09L323.51 135.65V142.57L324.27 143.73L329.28 143.75L330.04 142.99L330.43 140.68L331.58 140.31L332.35 144.93L333.5 147.62L336.58 150.33L338.89 154.58L340.04 158.81L342.73 162.29L349.27 161.17L353.89 161.58L354.66 164.28L356.96 167.37L358.89 168.53L362.73 173.16L365.42 173.94L368.5 176.27L370.04 179.35L371.57 179.36L372.73 179.75L372.34 180.9L371.57 181.28L370.42 180.12H369.65L368.5 183.57L366.19 184.71L361.57 185.07L361.19 184.3L358.88 184.28L355.42 188.87L353.88 188.86L350.8 190.38L349.26 192.29L347.72 196.13V191.13L345.03 189.2L338.88 187.24L335.8 189.15L335.41 192.6L331.56 195.65L328.49 194.1L322.71 194.83L320.02 196.35L318.1 199.03V201.72L319.25 203.26L319.64 206.72L321.56 212.87L321.55 218.63L318.86 220.15L317.32 220.14L315.78 221.29L315.01 223.97L311.16 227.4L309.62 229.69L303.47 233.11L300.77 238.85L301.16 241.15L303.46 242.32L305.77 245.4L308.85 247.72L311.15 253.48L316.15 258.11L317.31 260.42L316.15 261.95V263.1L317.3 268.47L314.22 269.6L313.07 270.75L311.53 273.42L312.3 275.72L311.91 276.87L307.68 276.85L305.37 277.98L303.45 279.89V284.49L301.52 285.24L297.68 285.22L296.14 284.06L292.68 283.66L286.52 285.16L281.52 285.51L281.11 285.1L283.81 282.92L284.6 277.98V271.41L283.29 267.43L278.46 263.32L274.16 262.8L272.68 261.7L268.45 262.06L262.66 253.59L260.31 251.12L256.27 249.2L255 247.1L255.38 243.96L251.92 239.73L251.54 230.13L252.69 228.99L254.23 229V227.08L251.93 223.99L250.39 223.22L250 219.76L251.55 216.7L248.08 212.46L246.54 211.68L244.62 212.44L243.47 213.97L240.39 215.1L239.62 212.03L237.31 208.18L235.01 206.63L236.55 204.72V203.18L235.78 199.72L234.63 197.79L235.01 195.49L240.4 195.9L242.32 194.38L243.47 191.7L244.63 190.94L248.09 191.34L251.17 189.05L254.63 188.3L255.79 187.16L257.33 182.56L260.79 182.58L265.02 181.45L266.18 180.3L266.95 180.31V179.54L268.1 178.78L270.41 178.4L271.18 177.26L273.48 176.5L274.26 171.51L275.8 168.06L277.34 166.53L278.49 166.92L279.64 170L282.33 170.4L283.87 171.56L285.8 170.81L287.34 168.89V168.12L285.8 167.73L286.18 165.04L284.65 163.88L286.19 161.2L285.42 158.89L286.57 157.36L285.8 156.97L285.42 155.04L286.57 153.13L285.04 151.97L280.04 150.4L271.57 146.51L270.8 145.35L273.88 145.37V144.21L271.57 143.04L270.81 139.96L273.88 139.98L274.65 138.45L276.19 138.46L278.12 136.93L283.5 137.34L284.27 136.19V134.27L285.04 133.51L291.97 131.62L296.2 128.95L300.04 128.97Z" fill="#CCCCCC" stroke="white" stroke-width="0.5"/>
<path d="M434.49 57.51L435.98 57.64L437.71 58.27L440.34 58.08L442.31 59.53L443.63 59.41L444.59 61.17L445.84 61.3L445.96 63.32L447.21 64.45L447.93 64.77L449.13 63.89L450.56 65.59L453.67 66.22L456.72 72.53L457.2 75.3L456.6 77.7L454.8 80.47L454.75 84.7L452.65 88.61L454.33 92.52L456.06 94.6L458.63 95.41L460.42 97.18L459.47 98.75V107.96L458.75 109.4L459.53 112.62L461.98 118.35L465.14 123.26V126.47L467.12 129.37L471.84 133.15L472.08 135.16L473.81 136.36L473.93 137.68L475.66 140.07L480.82 144.98L481.22 148.07L484.68 151.17L483.14 151.16L480.45 149.61L479.68 149.99L481.6 152.31L481.22 153.46L480.45 153.45L478.14 151.52L476.6 151.89L476.98 154.2L478.14 156.13V157.67H478.91L479.29 158.83L478.52 159.21V160.75L477.75 161.51L476.21 160.35L475.06 160.73L474.67 163.8L477.75 165.74L478.13 167.66L472.36 167.63L466.21 166.06L461.21 162.96L459.67 161.03L458.13 160.25L445.06 156.71L436.98 153.21L426.98 151.23L424.67 148.91L424.29 146.21L425.06 141.99L423.52 140.82L417.75 139.64L410.83 139.98L409.29 139.21L405.06 130.72L403.91 126.48L402.37 125.32L403.53 117.63L400.45 107.6L398.53 106.44L395.84 106.81L395.07 106.03V104.88L393.91 104.1L392.38 104.09L391.22 102.93L387.76 102.14L385.84 99.82L387.76 94.06L387 88.27L388.15 87.51L389.69 88.29L394.3 87.93L395.46 88.71L398.15 87.18L400.84 86.81L404.31 83.75L409.69 81.47L410.85 80.32L411.62 77.24V73.39L412.39 71.08L412.02 69.55L414.23 67.92L415.72 63.82L416.98 62.31L419.78 59.91L421.52 59.85L423.19 59.34L427.43 58.08H428.33L428.99 58.9L433.11 58.71L434.49 57.51Z" fill="#CCCCCC" stroke="white" stroke-width="0.5"/>
<path d="M317.31 260.42L316.15 258.11L311.15 253.48L308.85 247.72L305.77 245.4L303.46 242.32L301.16 241.15L300.77 238.85L303.47 233.11L309.62 229.69L311.16 227.4L315.01 223.97L315.78 221.29L317.32 220.14L318.86 220.15L321.55 218.63L321.56 212.87L319.64 206.72L319.25 203.26L318.1 201.72V199.03L320.02 196.35L322.71 194.83L328.49 194.1L331.56 195.65L335.41 192.6L335.8 189.15L338.88 187.24L345.03 189.2L347.72 191.13V196.13L348.49 199.59L352.72 204.22L351.95 210.36L352.33 213.43L353.1 214.2L357.33 214.99L360.02 216.16L360.79 217.32V220.77L366.94 225.41L366.52 225.79L369.32 228.34L373.68 230.7L376.69 234.27L379.96 236.77L382.98 241.28L383.96 245.32L381.94 246.98L379.63 247.73L378.86 248.88V255.4L378.09 257.31L376.16 258.83L371.54 260.34L368.85 262.24L366.93 264.53L366.54 266.45L367.69 267.99L368.08 270.67L367.69 271.82L364.61 274.48L363.85 276.4L361.54 278.3L360.38 278.29L356.82 275.73L353.85 274.81L351.92 273.65L349.61 270.95L346.15 269.4L340.38 271.28L336.15 270.88L335 272.02L333.84 272.01L330 268.16L325 266.21L321.92 261.98L320 260.82L317.31 260.42Z" fill="#CCCCCC" stroke="white" stroke-width="0.5"/>
<path d="M101.31 5.57001L102.09 6.19001L109.26 7.33001L111.83 6.32001L120.02 9.86001L122.71 12.39L127.3 13.77L131.8 16.62L133.18 16.49L135.57 18.01L143.4 19.65L148.48 20.41L149.03 19.84L152.43 19.97L153.03 20.79L154.47 20.78L154.59 21.86L156.45 22.5L158.3 23.63L163.2 24.52L165.19 23.5L169.22 22.81L170.51 23.46L170.88 24.6L170.11 26.15V28.08L171.26 30.37L171.64 35.03L177.8 38.15L185.11 40.12L188.2 42.08L185.88 51.69L183.96 53.59V57.08L183.19 58.23V59.78L185.11 64.41V70.59H184.34L183.57 69.42L182.43 70.59L178.96 69.78L178.19 72.09L180.88 78.25L181.26 83.28L180.49 84.82V86.75L178.96 87.89L177.41 90.97L171.26 88.62L169.34 92.46L167.03 92.83L163.95 90.12L159.34 90.11L154.72 85.44L153.58 85.81L152.03 88.12L149.72 87.72L148.18 89.64L142.8 92.31L140.49 92.3L138.95 91.14L137.41 91.13L136.26 93.05H135.49V91.12L130.49 87.24L130.88 85.32L128.96 85.69L129.36 88.75L128.19 89.15L124.73 87.21L121.65 86.42L118.96 82.94L115.5 81.77L113.58 80.6L112.43 79.05L109.74 78.26L108.59 76.71L108.98 75.17L107.83 72.08L102.45 71.66L100.14 72.42L98.5999 73.95L93.2299 73.54L87.8399 74.66L80.1499 74.62L67.8399 69.54L63.9899 69.9L63.2199 68.74L60.9099 68.34L58.9999 66.04L59.7899 65.22L59.1599 61.6L56.7499 60.55L55.3999 58.43L54.5599 58.25L55.1499 56.13L53.9699 55.69L53.5499 54.63L53.7299 53.37L59.1899 52.17L60.9799 48.95L60.8699 47.12L59.8399 46.43L59.6599 44.28L58.4699 45.04L56.4999 41L55.0099 38.28L56.2699 37.65L55.7299 34.37L54.2999 34.31L53.8799 35.89L52.9199 36.33L52.6899 37.28L50.4099 38.22V39.29L51.0699 39.61L50.6699 40.5L49.3999 39.86L50.0599 37.4L49.8199 35.57L56.4599 29.7L56.9399 28L62.6799 26.93L68.1199 24.15L68.4199 22.07L71.5299 21.31L74.9999 18.41L76.1399 16.77L76.5599 14.79L75.0099 9.31001L76.1499 9.55001L76.2099 8.52001L78.0099 8.77001L79.1999 9.78001L79.6799 11.99L81.4699 12.87L84.0299 11.1L83.7999 9.09001L84.5799 8.21001L87.0299 7.71001L87.8099 8.28001L89.7199 6.82001L91.9799 6.06001L95.9399 6.95001L101.31 5.57001Z" fill="#CCCCCC" stroke="white" stroke-width="0.5"/>
<path d="M484.66 192.67L485.43 192.68L486.97 194.61L488.89 195.77L490.05 195.78L491.97 196.94L496.58 201.19L498.89 204.66L508.12 208.17L510.05 210.48L511.97 213.56L515.81 214.35L518.12 215.52L521.97 218.99L527.35 221.33L528.89 222.49L530.04 224.41L531.97 225.57L534.27 225.97L538.12 229.06L541.96 230.23L546.19 233.33L551.96 235.28L555.81 237.98L561.97 236.87L564.27 236.88L565.81 238.04V240.34L564.27 243.02L561.19 243.39L559.65 247.21L555.42 248.34L551.96 252.92L550.42 253.3L550.03 255.98L548.49 257.12L548.11 255.58L546.19 254.42H545.03L544.26 254.79L541.18 259.76L540.03 260.14L537.72 264.73L532.72 271.21L528.86 283.84L526.17 288.8L523.49 291.97L514.43 288.71H510.57L509.02 291.96L503.87 293.04L501.81 294.39L497.65 294.06L493.09 295.51L490.78 294.73L486.16 298.15V300.07L484.24 304.27L481.16 305.79L480.39 307.31L477.31 309.21L476.16 306.14L476.54 302.7L475.39 301.54L474.62 298.47L470.77 298.45L470.01 297.3L469.62 291.55L470.39 291.56V290.79L469.62 290.02L468.09 290.01L466.93 291.54L466.16 291.15L465.39 288.84L462.32 285L461.93 282.31L460.4 280.77V279.62L457.7 280.37L455.01 279.98L450.78 282.63L449.24 282.62L447.32 281.08L444.62 281.07L443.08 279.91L440.39 279.13L440.01 280.27L440.78 281.05L440.77 283.34L439.24 285.25L436.54 285.62L434.24 288.67L432.31 288.66L431.16 287.89L427.31 287.86L425 289.77L423.46 290.14L418.46 285.52L415.39 285.5L412.69 286.25L408.46 285.46L407.31 284.69L404.24 278.54L400.77 273.92L400.39 272.39L398.08 271.99L396.16 273.13L395 271.21L390.78 267.35L385.77 266.55L384.62 265.4L383.85 263.09L378.09 257.31L378.86 255.4V248.88L379.63 247.73L381.94 246.98L383.96 245.32L385.01 243.93L388.86 242.03L393.48 242.82L399.25 242.09L403.48 242.88L404.25 242.12L405.02 239.05L406.56 237.53L410.79 237.55L415.02 234.89L416.56 234.9L418.1 237.21L420.41 236.84L422.33 237.62L423.48 236.47L424.64 233.03L425.79 232.27L428.49 233.43L431.95 236.52L434.25 237.68L438.1 238.09L440.41 235.8L441.95 231.97L443.87 230.06L447.34 221.64L447.73 215.89L446.19 214.73L445.42 211.27L449.27 203.61L456.58 204.04L458.12 202.89V192.52L462.74 194.09L466.97 192.19L473.51 193L476.97 191.1H478.12L481.97 191.51L484.66 192.67Z" fill="#CCCCCC" stroke="white" stroke-width="0.5"/>
<path d="M78.8399 554.59L80.0399 555.34L80.2199 556.59L78.4299 556.9L77.8299 556.09L77.5899 554.97L78.8399 554.59ZM104.96 523.63L106.21 525.06L108.78 525.25L110.1 526.19L111.59 529.99L113.03 531.42H116.02L114.71 532.73L114.47 534.29L109.81 538.28L103.36 540.71L99.6599 541.02L98.6999 540.52L97.8599 538.15L99.2299 534.23L100.84 531.99L101.26 528.87L103.41 527.56L104.96 523.63ZM62.1799 372.26L66.7499 373.87L68.1399 375.01L70.3099 375.02L72.9999 378.48L78.4499 382.39L80.7399 385.05L83.5399 386.65H87.3599L92.6199 388.15L97.5099 391.18L102.11 392.51L110.5 393.31L118.64 400.49L122.71 405.01L126.22 407.43L130.85 407.94L134.92 410.6L136.7 412.2L136.95 413.26L135.43 415.12L130.85 415.39L134.41 421.24L134.92 423.9L134.41 428.15L130.34 433.47L127.54 434.27L125 432.94L124.49 434V438.78L123.73 441.17L124.24 442.77L125.77 444.63H130.35L132.89 446.49L133.91 448.35V449.79L135.7 449.49L138.01 451.03L142.05 456.06L145.61 455L146.88 450.75H149.68L154.77 457.13L155.03 460.38L156.48 461.44L157.25 466.4L156.1 467.92L156.41 470.45L155.5 470.83L155.14 471.89L155.2 476.7L153.11 478.39L152.03 477.33L150.12 478.27L146.24 483.51L142 491.74L139.55 503.4L138.71 505.58L137.46 506.27L137.64 509.01L136.68 509.95L136.74 511.14L135.48 513.38L133.51 514.32L133.45 515.94L130.82 519.74L131.24 521.3L129.69 523.92H128.14L126.11 527.04L124.56 524.55L121.93 522.56L121.15 520.63L121.33 519.32L115.35 513.77L112.48 504.85L109.97 499.43L107.88 496.62L106.27 495.25L103.28 494.19L103.46 493.32L102.27 492.51L97.2499 490.58L87.3299 490.14L78.6599 492.64L74.4799 492.77L73.9999 492.21L72.3899 492.4L70.7799 490.53L68.7499 489.97V489.47L72.4599 488.6L74.9099 486.42L76.4599 480.49L78.6099 481.36L80.2799 480.92L81.8899 477.93L81.9499 475L80.8099 471.94L78.1199 469.07L78.1799 467.38L76.2699 463.39L72.4999 460.89L71.8999 459.64L72.6199 458.64L74.3499 458.77L74.9499 458.21L76.3199 454.22L76.1999 451.91L74.2899 448.98L73.8699 446.61L72.5599 444.24L66.6999 438.99L62.2199 436.68L58.5099 432.43L54.9999 431.31L55.7199 430.45L55.9699 428.53L58.3299 426.86L58.7499 423.1L59.7599 422.49V420.57L60.5999 420.13L60.1699 418.03L59.3299 417.86L60.3399 416.37L59.7499 415.32L58.3099 415.59L57.1299 412.79L57.9699 412L57.9599 408.41H58.7199L58.1299 406.93H57.1199L57.5399 406.14L58.1299 406.31L57.9599 404.65L57.5399 404.39L56.5299 406.14L55.6799 403.78H55.0899L53.2299 401.51L53.8999 400.02L51.5399 400.64L49.1699 397.93V396.27L50.4299 394.34L51.6099 394.16L52.4499 393.28L52.0299 391.62L53.0399 388.29L55.4799 386.8V384.09L62.1799 372.26Z" fill="#CCCCCC" stroke="white" stroke-width="0.5"/>
<path d="M355.42 324.6L360.34 324.79L363.29 326.34L363.83 328.1L366.14 328.88L366.91 329.65V331.18L369.6 331.96V333.49V335.4L370.37 336.55L375.37 336.2V337.73L376.14 338.12V339.27L375.37 339.65V340.42L376.91 340.81L376.14 342.34L377.68 342.35L378.45 340.06L379.22 339.68V342.36L381.53 341.61L384.61 343.16V343.93L383.46 345.07H382.69L382.31 343.54L381.54 343.15V346.21L382.31 346.6L381.54 347.36L377.31 350.4L372.31 349.99L370.39 351.89V353.42L373.08 352.67L373.85 354.2L373.46 356.88L374.23 358.41L375 358.42L376.16 356.9L379.24 357.68V360.36L380.39 364.57L383.08 366.12L383.46 367.65L386.15 369.58L386.92 370.73L387.3 374.17L388.07 374.94L391.15 375.72L392.69 376.88L392.3 380.32L391.53 381.08V384.14L393.45 385.71L391.37 386.71L387.13 385.02L381.09 388.08L379.18 386.52L372.37 384.52L365.62 386.77L360.6 387.21L355.7 386.02L352.29 386.15L349.54 384.78L347.63 384.65L339.68 387.28L331.61 391.85L327.37 392.66L323.13 394.41L318.59 391.41L316.26 391.35L314.71 391.98L310.59 391.23L312.02 388.1L313.75 387.41V388.72L313.51 387.78L312.2 388.28L311.48 390.34L312.68 390.9L312.44 389.78L313.69 390.09L313.63 388.96L314.11 390.02L316.08 390.64L316.98 389.45L319.43 390.26L320.8 389.39L323.67 389.26L324.03 388.32L320.56 386.26H318.77H317.46L313.93 382.63L313.75 381.57L312.38 381.19L311.6 380.19L308.37 379.63L306.58 377.07L307.69 376.02L316.15 375.69L318.84 374.18L322.69 374.2L325 373.07L327.31 367.73V365.82L326.16 362.37L326.55 356.64L330.79 350.93V347.87L329.11 345.04L329.67 340.57L331.14 338.51L332.61 337.48H335.31L342.44 333.36H345.63L349.32 332.07L351.29 328.72L355.42 324.6Z" fill="#CCCCCC" stroke="white" stroke-width="0.5"/>
<path d="M214.2 1L219.16 1.38L223.88 4.54L228.84 6.94L229.8 6.81L231.59 4.6L237.51 7.51L241.51 7.19L241.81 8.14L242.59 8.39L243.96 7.13L246.53 7.95L249.52 6.5L250.12 7.38L251.61 7.07L252.15 8.14L251.73 9.85L252.39 10.73L254.78 12.37L257.53 12.31L264.7 21.53L263.33 23.55L263.92 24.5L265.12 24.44L266.08 22.86L267.69 23.36L269.18 22.48H271.57L274.02 24.12L274.14 25.01L275.16 25.13L275.22 26.4L279.16 27.72L280.96 29.62L280.18 30.31L280.96 31.38L282.33 30L283.17 30.18L283.29 30.88L287.95 33.21L288.55 34.23L290.1 34.6L292.13 37.26H294.58L294.82 38.71L296.25 39.53L297.57 39.34L298.77 37.95L301.57 40.03L305.7 41.36L310 39.28L311.26 39.65L312.27 39.15L314.42 41.42L315.68 40.92L317.11 40.98L319.74 41.42L320.82 41.11L320.28 39.4L322.19 35.68L327.99 34.48L335.7 35.05L337.73 36.06L339.64 38.45L341.62 39.53L343.35 41.99L346.04 42.05L347.95 44.01L352.01 50.38L349.7 55.69L351.23 59.17V61.1L350.85 61.87L345.85 62.61V63.77H347L347.38 64.93L345.85 65.31L345.08 63.38L344.31 63.37L343.92 65.3L342.39 63.75L341.23 65.67L339.69 65.66L338.15 62.57L337.39 62.56L335.85 63.71L332.38 63.3L332 66L331.23 65.61V64.84L328.54 64.82L327.38 65.97L326.23 64.81L325.46 65.19L324.3 64.42L322.38 66.33L322 67.49L322.76 68.26L320.46 69.02V70.17L321.23 70.56L321.22 72.49L319.68 75.18V76.34L320.84 78.27V80.19L317.37 84.41L316.6 93.27L315.45 93.65L314.29 95.18L309.29 92.46L303.91 90.5L295.45 88.91L293.91 86.59V84.67L296.22 76.59L295.45 73.12L289.68 69.61L287.37 69.6L285.84 68.82L279.68 64.93H278.91V66.86L280.83 74.96L280.06 77.27L278.52 79.19L272.75 81.47L271.6 81.46L270.83 80.68L270.06 77.98L269.29 77.21L265.83 76.8L261.98 72.54L257.37 69.05L256.6 69.04V70.2L255.83 70.58L252.76 69.02L250.45 69.01L246.22 67.06L237.75 66.62L236.21 66.23L234.29 64.29L232.75 65.05L229.29 61.56L228.91 59.64L227.37 59.63L222.75 56.9L218.14 52.25L216.22 52.24L214.29 53.39L210.06 53.36L205.45 51.41L203.91 46.77L201.6 45.6L193.91 44.79L190.45 43.61L188.16 42.07L185.06 40.11L177.76 38.14L171.6 35.02L171.22 30.35L170.06 28.06L170.07 26.13L170.84 24.58L170.47 23.44L169.18 22.8L171.11 21.66L170.93 19.39L172.13 17.62L171.17 16.99L171.41 15.15L175.06 17.11L176.13 18.63L178.88 19.25L179.72 18.12L180.68 16.92L181.99 16.86L183.6 17.93L188.68 18.25L190.42 16.61L195.38 15.6L197.59 14.46L199.8 12.31L199.44 8.46L200.93 6.94L203.14 5.99L203.74 4.22L207.75 3.15L211.63 1.25L214.2 1Z" fill="#CCCCCC" stroke="white" stroke-width="0.5"/>
<path d="M331.58 140.31L331.59 138.39L333.13 135.32L335.82 124.17L338.52 118.42V115.72L336.21 113.01L335.44 111.09V108.01L337.37 104.94L336.99 99.54L341.99 88.02H342.76L344.68 90.73L346.6 91.9L350.83 92.69L351.6 93.47L351.99 98.09L353.14 99.64L355.45 100.42L357.37 99.66L360.07 91.59L360.84 90.82L363.15 90.06L365.07 87.38L367.76 87.01L369.69 85.86L371.99 85.88L374.69 86.66L375.84 87.82L376.22 88.98L375.07 90.52L375.84 93.22L378.53 97.08L381.22 99.41L382.38 99.8L383.15 101.35L382.76 104.42L381.22 105.57L379.68 105.56L375.83 107.46L374.68 109.77L375.45 111.7L378.53 112.87V114.02L373.91 115.54L371.6 117.83L369.68 117.82L368.14 118.58L361.98 123.17L360.82 130.09L358.51 136.61L358.9 139.31L356.97 143.53V147.37L355.43 149.67L353.12 151.2L351.97 153.88V156.96L353.12 158.5L353.89 161.58L349.27 161.17L342.73 162.29L340.04 158.81L338.89 154.58L336.58 150.33L333.5 147.62L332.35 144.93L331.58 140.31Z" fill="#CCCCCC" stroke="white" stroke-width="0.5"/>
<path d="M596.92 130.13L597.88 130.38L598.66 131.51L598.96 130.94L600.75 130.81L601.23 132.2L599.86 135.41L596.51 138.68L593.46 143.53L592.44 145.61L593.1 146.62L594.12 147.31L597.94 147.81L598.54 147.24L600.51 147.49L602.96 145.04L605.17 146.3L606.9 146.05L610.78 143.47L612.22 143.41L612.4 144.29L614.61 144.04L614.97 144.61L614.79 147.95L612.34 152.54L606.36 156.69L604.93 158.58L602.42 159.78L601.94 162.36L600.8 164.25L600.98 167.46L600.32 167.59L600.2 169.79L599.78 171.05L597.39 171.93L593.98 171.24L591.95 170.93L587.41 170.87L584.07 168.42L583.05 169.49L580.84 167.92L579.7 168.8L575.82 166.66L574.68 167.04L574.14 168.05L573.9 168.93L567.86 168.05L560.69 168.43L559.73 169.37L559.67 170.94L558.12 170.31L557.88 168.99L555.55 168.74L554.29 169.56L552.14 167.3L550.29 166.61L548.08 166.74L545.75 165.61L543.66 165.42L542.41 165.99L541.28 165.36L540.44 165.8L538.83 164.35L536.98 165.55L536.38 164.8L534.23 164.23L532.68 164.8L530.95 164.11L527.96 164.68L523.18 163.74L522.16 163.05L520.07 163.49L517.14 161.73L513.91 161.6L512.36 162.67L513.02 164.05L512.54 171.91L511.4 174.93L510.21 181.6L509.55 181.98L511.4 189.15L510.27 190.41L512 193.55L515.11 194.12L512.36 205.19L510.05 210.55L508.13 208.24L498.9 204.73L496.59 201.26L491.98 197.01L490.06 195.85L488.91 195.84L486.99 194.68L485.45 192.75H484.68L485.83 191.6L490.83 191.63L489.29 187.01L486.98 184.31V182L489.29 182.01L492.75 179.72L493.52 178.96L492.75 177.42L494.67 177.05L495.44 175.52L496.21 176.29L497.75 176.3L498.14 174.77L499.68 174.78L500.84 170.17L502.77 167.88L504.31 167.89L504.7 166.35L502.78 165.57L498.16 166.31L496.24 163.99L492.78 164.74L488.55 164.33L485.86 162.78L482.01 162.76L480.47 163.52L478.16 167.74L477.78 165.82L474.7 163.88L475.09 160.81L476.24 160.43L477.78 161.59L478.55 160.83V159.29L479.32 158.91L478.94 157.75H478.17V156.21L477.02 154.28L476.64 151.97L478.18 151.59L480.49 153.53H481.26L481.65 152.38L479.73 150.06L480.5 149.68L483.19 151.23L484.73 151.24L481.27 148.14L480.87 145.05L487.66 148.83L494.53 150.15L502.9 148.2L506.49 146L520.47 145.06L523.4 143.42L523.52 141.09L525.97 141.4V139.89L527.64 140.33L528.48 138.82L529.68 138.44L531.41 139.64L533.62 138.51L534.16 139.14L536.55 138.45L539.48 138.58L542.41 139.52L547.79 138.39L549.58 138.58L550.48 139.97L551.44 139.72L552.04 138.65L552.82 138.78L553.78 140.35L555.63 141.55L557.6 140.67L557.48 139.85L558.68 139.54L559.52 140.74L560.6 140.8L563.17 142.75L563.83 142.88L564.25 141.94L565.69 142.07L565.63 142.89L567.48 143.9L569.21 144.4L571.18 143.96L572.43 146.6L573.63 147.42L574.47 147.11L574.89 148.31L576.45 148.44L577.29 148.06L577.77 145.1L577.29 144.22L578.25 142.96L580.52 141.7L581.6 140.19L583.69 139.69L585.3 137.74L590.08 136.92L589.72 135.6L591.33 134.22L592.58 134.03L593.36 135.23L595.93 130.32L596.92 130.13Z" fill="#CCCCCC" stroke="white" stroke-width="0.5"/>
<path d="M378.09 257.31L383.85 263.09L384.62 265.4L385.77 266.55L390.78 267.35L395 271.21L396.16 273.13L395 273.89L394.23 275.42V277.72L397.69 282.72V285.4L398.85 287.32L398.46 290.38L401.15 293.46L402.3 296.15L401.92 297.68H401.15L400 296.14L398.46 296.51L397.68 302.64L399.61 304.18L399.99 307.25L402.3 311.47L403.84 311.86V313.77L404.99 314.93L405.76 318.38L405.37 319.91L406.14 321.44L408.45 321.84L411.53 321.47V319.94L412.68 319.57L413.83 321.87L416.53 323.8L416.91 326.48L418.45 328.79L417.68 329.55L414.6 329.53V330.29L414.99 331.44L418.06 331.46L417.68 335.67L418.83 335.29V333.76L420.37 332.62L422.29 332.63L423.83 334.94L425.75 335.33L428.83 331.91L429.22 333.06L428.45 336.11L429.6 335.74L429.98 338.03L431.52 339.19L430.47 342.6L428.75 344.23L428.51 343.23L427.79 343.66L428.09 345.1L426.84 345.79L423.73 352.05L423.13 351.74L421.88 353.06L422.47 353.18L421.64 354.31L420.38 354.93L413.63 368.14L411.66 369.83L410.16 369.33L408.49 371.2L408.07 373.64L405.8 376.77L403.11 378.84L399.7 385.53L398.03 386.47L395.76 384.72L393.42 385.65L391.5 384.08V381.03L392.27 380.27L392.66 376.83L391.12 375.67L388.04 374.89L387.27 374.12L386.89 370.68L386.12 369.53L383.43 367.6L383.04 366.07L380.35 364.53L379.2 360.31V357.64L376.12 356.86L374.97 358.38L374.2 358.37L373.43 356.84L373.82 354.17L373.05 352.63L370.35 353.38V351.85L372.28 349.95L377.28 350.36L381.51 347.32L382.28 346.56L381.51 346.18L381.52 343.12L382.28 343.5L382.67 345.04H383.44L384.59 343.9V343.13L381.52 341.59L379.21 342.34V339.66L378.44 340.04L377.67 342.33L376.13 342.32L376.9 340.8L375.36 340.4V339.64L376.13 339.26V338.11L375.36 337.73V336.2L370.36 336.55L369.59 335.4V333.49V331.96L366.9 331.17V329.64L366.13 328.87L363.83 328.1L363.28 326.34L360.33 324.79L355.42 324.6V322.73L354.19 320.67L350.26 316.29V314.23L352.96 307.53L353.45 303.92V298.25L350.75 293.87L350.99 290.52L353.45 287.16L353.94 285.36L354.19 280.2L356.82 275.73L360.38 278.29L361.54 278.3L363.85 276.4L364.61 274.48L367.69 271.82L368.08 270.67L367.69 267.99L366.54 266.45L366.93 264.53L368.85 262.24L371.54 260.34L376.16 258.83L378.09 257.31Z" fill="#CCCCCC" stroke="white" stroke-width="0.5"/>
<path d="M317.31 260.42L320 260.82L321.92 261.98L325 266.21L330 268.16L333.84 272.01L335 272.02L336.15 270.88L340.38 271.28L346.15 269.4L349.61 270.95L351.92 273.65L353.85 274.81L356.82 275.73L354.19 280.2L353.94 285.36L353.45 287.16L350.99 290.52L350.75 293.87L353.45 298.25V303.92L352.96 307.53L350.26 314.23V316.29L354.19 320.67L355.42 322.73V324.6L351.24 328.65L349.27 332L345.59 333.29H342.39L335.27 337.41H332.56L331.09 338.44L329.61 340.5L329.05 344.97L325.35 342.42L325.74 339.74L323.82 336.67V334.38L321.89 333.22L321.9 330.92L323.05 330.16V329.4L321.9 328.24L316.51 327.45L313.44 323.22L312.28 323.6L311.13 322.44L306.13 321.26L304.98 318.58L303.44 318.57L301.13 319.71L299.97 319.32L299.59 317.78L297.28 315.09V312.79L296.51 311.64L289.59 307.39L287.67 305.46L286.9 303.93L289.6 299.73L289.21 293.22L286.91 289.37L283.83 286.67L281.52 285.51L286.52 285.16L292.68 283.66L296.14 284.06L297.68 285.22L301.52 285.24L303.45 284.49V279.89L305.37 277.98L307.68 276.85L311.91 276.87L312.3 275.72L311.53 273.42L313.07 270.75L314.22 269.6L317.3 268.47L316.15 263.1V261.95L317.31 260.42Z" fill="#CCCCCC" stroke="white" stroke-width="0.5"/>
<path d="M146.55 169.25L147.32 169.64L148.47 172.72L149.62 173.5L152.32 172.36L155.78 172.38L161.16 174.33L164.24 173.19L167.32 173.98L171.16 177.08L176.93 177.88L183.47 180.6L185.78 184.07L189.62 186.02L190.39 189.48V194.47L193.47 197.56L196.16 199.11L198.47 199.12L205.77 202.24L207.31 204.93V206.85L208.08 207.63L210 207.64L211.54 208.41L212.31 207.27L216.16 205.75L216.93 203.84L218.47 203.08L221.54 204.25H222.31L223.47 203.11H225.01L229.24 204.67L230.78 205.83L235.01 206.63L237.31 208.18L239.62 212.03L240.39 215.1L240 216.64L240.77 217.41V218.94L239.62 220.47L233.08 221.59L235 226.2L233.46 228.5L228.07 229.62L226.54 232.29H225.38L222.3 233.8V234.96L223.07 235.73L222.69 238.03L220.38 242.62L218.84 242.99L218.07 244.14L219.6 249.9L222.29 255.28V257.97L219.6 262.55L218.83 265.23L216.52 267.52L215.75 269.81H214.21L212.29 265.96L211.52 262.89L209.98 261.73L207.29 261.71L204.98 263.24L203.83 265.15L204.21 271.28L204.98 272.05V273.58L206.13 273.98L206.52 275.89L205.75 276.66L204.21 276.65L203.05 277.79V279.71L205.36 282.02L205.74 284.7L203.82 285.07L201.63 287.24L197.79 287.34L195.24 293.66H192.98L187.76 299.08L182.27 299.26L181.89 296.83L181.12 296.06L176.12 294.5L171.12 295.62L162.27 299.4L154.96 299.36L151.88 298.19L149.19 298.18L147.65 299.32L146.5 301.22L144.57 301.21L140.34 304.25L132.65 302.68L132.26 300.38L129.57 299.6L128.03 301.12L126.5 301.11L125.34 298.81L119.57 295.71L116.88 295.31L114.57 296.45L111.88 296.43L107.65 295.26L104.57 293.71L103.42 292.17L101.88 291.4L103.42 289.49L104.96 283.75V282.22L103.42 278.38L101.5 277.22L97.65 277.58L95.34 276.42L93.81 272.96L92.65 272.19L91.89 270.65L92.27 269.12L93.42 268.36L94.58 266.06L94.2 264.15L91.5 262.6L91.12 261.44H89.58L86.5 259.89L84.97 257.96V256.43L81.89 254.49L83.05 253.73L83.81 251.05L85.35 249.14L84.2 244.92L84.59 236.86L83.82 236.48L81.51 238.77L80.74 238.76L81.13 234.16L84.59 228.42L84.98 224.59L83.44 224.2L82.67 223.42V222.27L90.75 212.34L93.06 210.43L94.98 210.06L102.29 212.02L104.6 211.65L105.37 210.89L105.76 205.9L108.84 198.23L111.53 194.03L111.15 189.42L115 183.67L117.31 182.92L124.62 184.11L128.46 187.98L131.15 187.99L131.54 189.53L133.07 189.54L136.15 186.87L140.77 186.89L143.46 185.37L144.62 183.84L143.85 181.15L145.01 170.78L146.16 169.25H146.55Z" fill="#CCCCCC" stroke="white" stroke-width="0.5"/>
<path d="M548.49 257.12L547.72 258.27L546.95 264.4L547.72 266.32L550.03 266.71L551.18 267.87V270.17L553.49 274.4L553.48 280.53L555.02 282.83L552.33 286.27L552.71 287.8L555.02 288.96L556.17 292.04L558.48 294.73L558.86 297.8L560.4 301.25L563.86 303.57L564.63 307.79L566.55 311.24L566.94 313.54L571.16 320.46L572.7 317.02L575.78 313.98L579.63 311.7L580.02 309.4L582.32 309.42L581.56 308.27V304.05L582.71 302.53V299.46L583.48 297.94L588.48 297.58L590.79 296.45L592.72 293.77L595.79 294.94L596.95 297.63L599.25 297.64L601.56 296.51L605.02 297.67L611.18 301.92L613.1 306.53L618.87 309.62L621.18 309.25L623.48 307.74L629.64 307.77L630.41 309.31L628.48 310.06L627.33 319.24L626.17 322.68L622.71 326.11L621.17 329.16V331.07L622.71 334.14L623.86 334.91L627.32 339.91V341.05L628.47 342.97L627.7 345.65L629.24 349.61L621.66 346.92L617.84 346.86L613.83 345.79L607.74 343.41L604.63 341.03L605.71 340.53L604.81 337.34L602.48 336.09L598.71 336.97L596.8 338.34L589.69 338.47L583.59 340.41L582.82 340.35L583.23 340.03L582.87 339.28L580.13 338.97L580.43 337.59L579.41 337.34L578.15 338.22L578.1 339.53L579.11 339.97L578.63 340.47L578.03 340.16V341.35L576.06 342.35L570.27 342.73L562.38 341.79L557.06 342.16L549.41 343.48L537.88 347.05L533.48 346.98L533.46 337.09L533.85 336.32L535.39 336.33L535.77 332.51L525.77 331.68L519.23 327.82L517.31 322.83L514.62 321.29L515.39 319.76L517.7 318.63L519.62 313.66L523.09 307.94V306.79L521.16 304.48L522.7 300.28L522.71 298.36L521.93 297.97L520.01 299.5L519.24 297.19L523.49 291.97L526.17 288.8L528.86 283.84L532.72 271.21L537.72 264.73L540.03 260.14L541.18 259.76L544.26 254.79L545.03 254.42H546.19L548.11 255.58L548.49 257.12Z" fill="#CCCCCC" stroke="white" stroke-width="0.5"/>
<path d="M371.57 179.36L371.58 178.21L370.81 178.59V177.82L371.96 177.06L373.5 176.68L375.04 177.46L376.58 176.7L377.35 177.47L378.12 176.71L378.89 178.63L381.19 177.88L382.35 179.8L386.19 180.98L386.58 179.06L387.35 178.3L388.5 179.84L391.19 176.78L392.73 176.02L394.27 176.41L393.5 179.1L395.04 179.11L396.19 178.35L396.96 179.12L397.73 178.35V181.04L399.66 177.6L400.81 177.99L401.96 176.84H402.35L401.96 179.91L403.12 180.31L403.5 178.77L404.66 179.16L405.43 177.63L408.12 178.03V178.8L409.27 179.57L411.97 178.82L413.12 177.67L414.27 179.98L416.97 180L417.35 181.15L418.12 181.16L420.81 183.48L429.66 185.83L432.35 187.77L433.5 187.78L436.2 185.1L438.12 185.11L442.74 187.44L445.43 189.76L449.27 190.17L451.97 191.34L452.35 192.11L450.04 197.47L449.27 203.61L445.42 211.27L446.19 214.73L447.73 215.89L447.34 221.64L443.87 230.06L441.95 231.97L440.41 235.8L438.1 238.09L434.25 237.68L431.95 236.52L428.49 233.43L425.79 232.27L424.64 233.03L423.48 236.47L422.33 237.62L420.41 236.84L418.1 237.21L416.56 234.9L415.02 234.89L410.79 237.55L406.56 237.53L405.02 239.05L404.25 242.12L403.48 242.88L399.25 242.09L393.48 242.82L388.86 242.03L385.01 243.93L383.96 245.32L382.98 241.28L379.96 236.77L376.69 234.27L373.68 230.7L369.32 228.34L366.52 225.79L366.94 225.41L360.79 220.77V217.32L360.02 216.16L357.33 214.99L353.1 214.2L352.33 213.43L351.95 210.36L352.72 204.22L348.49 199.59L347.72 196.13L349.26 192.29L350.8 190.38L353.88 188.86L355.42 188.87L358.88 184.28L361.19 184.3L361.57 185.07L366.19 184.71L368.5 183.57L369.65 180.12H370.42L371.57 181.28L372.34 180.9L372.73 179.75L371.57 179.36Z" fill="#CCCCCC" stroke="white" stroke-width="0.5"/>
<path d="M246.22 67.06L250.45 69.01L252.76 69.02L255.83 70.58L256.6 70.2V69.04L257.37 69.05L261.98 72.54L265.83 76.8L269.29 77.21L270.06 77.98L270.83 80.68L271.6 81.46L272.75 81.47L278.52 79.19L280.06 77.27L280.83 74.96L278.91 66.86V64.93H279.68L285.84 68.82L287.37 69.6L289.68 69.61L295.45 73.12L296.22 76.59L293.91 84.67V86.59L295.45 88.91L303.91 90.5L309.29 92.46L314.29 95.18V99.8L310.44 102.86L307.37 103.61L306.21 105.15L306.59 110.92L303.9 115.53V117.07L304.28 120.92L305.43 124.39L306.59 125.55V126.7L305.82 127.08L304.28 125.53L302.36 125.52L300.82 127.05L300.04 128.97L296.2 128.95L291.97 131.62L285.04 133.51L284.27 134.27V136.19L283.5 137.34L278.12 136.93L276.19 138.46L274.65 138.45L273.88 139.98L270.81 139.96L271.57 143.04L273.88 144.21V145.37L270.8 145.35L271.57 146.51L280.04 150.4L285.04 151.97L286.57 153.13L285.42 155.04L285.8 156.97L286.57 157.36L285.42 158.89L286.19 161.2L284.65 163.88L286.18 165.04L285.8 167.73L287.34 168.12V168.89L285.8 170.81L283.87 171.56L282.33 170.4L279.64 170L278.49 166.92L277.34 166.53L275.8 168.06L274.26 171.51L273.48 176.5L271.18 177.26L270.41 178.4L268.1 178.78L266.95 179.54V180.31L266.18 180.3L265.02 181.45L260.79 182.58L257.33 182.56L255.79 187.16L254.63 188.3L251.17 189.05L248.09 191.34L244.63 190.94L243.47 191.7L242.32 194.38L240.4 195.9L235.01 195.49L234.63 197.79L235.78 199.72L236.55 203.18V204.72L235.01 206.63L230.78 205.83L229.24 204.67L225.01 203.11H223.47L222.31 204.25H221.54L218.47 203.08L216.93 203.84L216.16 205.75L212.31 207.27L211.54 208.41L210 207.64L208.08 207.63L207.31 206.85V204.93L205.77 202.24L198.47 199.12L196.16 199.11L193.47 197.56L190.39 194.47V189.48L189.62 186.02L185.78 184.07L183.47 180.6L176.93 177.88L171.16 177.08L167.32 173.98L166.93 171.67L168.47 167.45L168.86 162.07L166.94 157.84L164.25 157.05L162.71 153.58L163.48 152.05L165.4 152.44L165.79 151.68L165.02 146.67L166.18 145.14V142.06L163.87 139.36V138.21L165.79 137.83L166.95 134.76L167.72 135.92L169.64 135.93L170.03 134.39L169.26 130.93L170.41 130.16L171.18 128.63L174.64 126.73L180.8 125.22L182.34 128.31L185.03 128.32L185.8 126.79L185.42 125.63L188.49 125.26V124.11L191.57 124.51L192.34 123.75L193.11 120.29L196.19 118.77L200.03 119.17L201.96 116.87L199.27 116.47L198.5 115.7L199.27 113.01L198.12 111.08L196.96 111.07V110.3L199.27 109.55L200.81 106.48L203.89 108.42H205.04L208.89 111.14L212.73 112.7L220.04 112.36L221.96 111.21L223.5 108.14L225.81 111.23L229.66 111.64L231.2 112.8L234.27 111.28L236.97 111.3L239.27 112.08L242.35 111.71L244.66 108.65L239.66 106.31L237.36 102.83V99.75L239.28 96.3L240.44 90.91L238.13 89.74L236.21 89.73L235.44 87.8L234.28 88.56L231.59 86.24L232.36 83.55L230.44 81.61V78.91L230.83 78.53L232.36 79.31L238.9 84.35L240.05 84.36L241.21 81.67L242.75 80.52L243.13 78.21L245.06 75.53V72.44L246.22 67.06Z" fill="#CCCCCC" stroke="white" stroke-width="0.5"/>
<path d="M128.11 89.12L129.29 88.72L128.89 85.66L130.81 85.28L130.42 87.21L135.42 91.09V93.01L136.19 93.02L137.35 91.1L138.88 91.11L140.42 92.27L142.73 92.28L148.12 89.62L149.66 87.7L151.96 88.1L153.52 85.79L154.66 85.42L159.28 90.09H163.89L166.96 92.81L169.27 92.43L171.2 88.59L177.35 90.94V95.56L178.89 97.11L179.27 101.73L180.04 102.51L181.96 102.52L184.27 103.69L186.96 103.7L191.96 106.81L195.04 106.83L197.73 106.07L200.81 106.48L199.27 109.55L196.96 110.3V111.07L198.12 111.08L199.27 113.01L198.5 115.7L199.27 116.47L201.96 116.87L200.03 119.17L196.19 118.77L193.11 120.29L192.34 123.75L191.57 124.51L188.49 124.11V125.26L185.42 125.63L185.8 126.79L185.03 128.32L182.34 128.31L180.8 125.22L174.64 126.73L171.18 128.63L170.41 130.16L169.26 130.93L170.03 134.39L169.64 135.93L167.72 135.92L166.95 134.76L165.79 137.83L163.87 138.21V139.36L166.18 142.06V145.14L165.02 146.67L165.79 151.68L165.4 152.44L163.48 152.05L162.71 153.58L164.25 157.05L166.94 157.84L168.86 162.07L168.47 167.45L166.93 171.67L167.32 173.98L164.24 173.19L161.16 174.33L155.78 172.38L152.32 172.36L149.62 173.5L148.47 172.72L147.32 169.64L146.55 169.25L143.85 167.31L138.85 165.75L134.24 162.26L131.93 162.25L123.86 156.05L123.47 151.44L120.78 147.58L115.78 145.24L113.86 145.62L111.94 144.83L111.17 142.91L106.94 139.81L106.17 135.96L111.55 137.14L117.32 136.02L116.94 129.86L117.71 124.87L116.95 119.47L117.33 118.7L120.02 117.57L121.18 115.65V112.18L120.03 108.33V101.4L122.34 96.79L128.11 90.66V89.12Z" fill="#CCCCCC" stroke="white" stroke-width="0.5"/>
<path d="M396.16 273.13L398.08 271.99L400.39 272.39L400.77 273.92L404.24 278.54L407.31 284.69L408.46 285.46L412.69 286.25L415.39 285.5L418.46 285.52L423.46 290.14L425 289.77L427.31 287.86L431.16 287.89L432.31 288.66L434.24 288.67L436.54 285.62L439.24 285.25L440.77 283.34L440.78 281.05L440.01 280.27L440.39 279.13L443.08 279.91L444.62 281.07L447.32 281.08L449.24 282.62L450.78 282.63L455.01 279.98L457.7 280.37L460.4 279.62V280.77L461.93 282.31L462.32 285L465.39 288.84L466.16 291.15L466.93 291.54L468.09 290.01L469.62 290.02L470.39 290.79V291.56L469.62 291.55L470.01 297.3L470.77 298.45L474.62 298.47L475.39 301.54L476.54 302.7L476.16 306.14L477.31 309.21L480.39 307.31L481.16 305.79L484.24 304.27L486.16 300.07V298.15L490.78 294.73L493.09 295.51L497.65 294.06L501.81 294.39L503.87 293.04L509.02 291.96L510.57 288.71H514.43L523.49 291.97L519.24 297.19L520.01 299.5L521.93 297.97L522.71 298.36L522.7 300.28L521.16 304.48L523.09 306.79V307.94L519.62 313.66L517.7 318.63L515.39 319.76L514.62 321.29L517.31 322.83L519.23 327.82L525.77 331.68L535.77 332.51L535.39 336.33L533.85 336.32L533.46 337.09L533.48 346.98L529.27 345.79L526.04 343.16L524.67 340.91L519.59 337.4L513.67 337.15L511.1 339.22L512.48 346.48L511.52 347.86L510.32 347.92L503.27 345.67L500.88 341.79L500.46 337.53L496.82 335.71L493.47 335.52L488.75 333.96L478.41 333.15L471.48 333.52L468.49 332.46L458.03 332.89L457.73 330.53L459.58 327.07V325.28L456.41 323.2L448.76 324.72L445.47 326.1L443.09 322.93L440.85 321.82L440.19 318.92L439.01 317.12L436.64 316.15L434.92 317.4L433.73 320.16V322.65L430.97 324.17L432.28 326.52L437.29 330.11L438.61 331.91L438.74 337.44L436.37 339.92L436.2 342.16L433.47 343.29L430.47 342.6L431.52 339.19L429.98 338.03L429.6 335.74L428.45 336.11L429.22 333.06L428.83 331.91L425.75 335.33L423.83 334.94L422.29 332.63L420.37 332.62L418.83 333.76V335.29L417.68 335.67L418.06 331.46L414.99 331.44L414.6 330.29V329.53L417.68 329.55L418.45 328.79L416.91 326.48L416.53 323.8L413.83 321.87L412.68 319.57L411.53 319.94V321.47L408.45 321.84L406.14 321.44L405.37 319.91L405.76 318.38L404.99 314.93L403.84 313.77V311.86L402.3 311.47L399.99 307.25L399.61 304.18L397.68 302.64L398.46 296.51L400 296.14L401.15 297.68H401.92L402.3 296.15L401.15 293.46L398.46 290.38L398.85 287.32L397.69 285.4V282.72L394.23 277.72V275.42L395 273.89L396.16 273.13Z" fill="#CCCCCC" stroke="white" stroke-width="0.5"/>
<path d="M188.16 42.07L190.45 43.61L193.91 44.79L201.6 45.6L203.91 46.77L205.45 51.41L210.06 53.36L214.29 53.39L216.22 52.24L218.14 52.25L222.75 56.9L227.37 59.63L228.91 59.64L229.29 61.56L232.75 65.05L234.29 64.29L236.21 66.23L237.75 66.62L246.22 67.06L245.06 72.44V75.53L243.13 78.21L242.75 80.52L241.21 81.67L240.05 84.36L238.9 84.35L232.36 79.31L230.83 78.53L230.44 78.91V81.61L232.36 83.55L231.59 86.24L234.28 88.56L235.44 87.8L236.21 89.73L238.13 89.74L240.44 90.91L239.28 96.3L237.36 99.75V102.83L239.66 106.31L244.66 108.65L242.35 111.71L239.27 112.08L236.97 111.3L234.27 111.28L231.2 112.8L229.66 111.64L225.81 111.23L223.5 108.14L221.96 111.21L220.04 112.36L212.73 112.7L208.89 111.14L205.04 108.42H203.89L200.81 106.48L197.73 106.07L195.04 106.83L191.96 106.81L186.96 103.7L184.27 103.69L181.96 102.52L180.04 102.51L179.27 101.73L178.89 97.11L177.35 95.56V90.94L178.9 87.86L180.43 86.72V84.79L181.2 83.26L180.82 78.23L178.13 72.07L178.9 69.76L182.37 70.57L183.51 69.4L184.28 70.57H185.06V64.38L183.14 59.75V58.21L183.92 57.06V53.58L185.83 51.67L188.16 42.07Z" fill="#CCCCCC" stroke="white" stroke-width="0.5"/>
</svg>
