<svg width="797" height="696" viewBox="0 0 797 696" fill="none" xmlns="http://www.w3.org/2000/svg">
<path d="M743.45 695.63L745.02 693.34L745.58 693.18L749.33 692.13L750.95 689.79L751.96 688.69L755.5 688.02L756.99 687.22L757.67 683.95L756.57 680.14L756.15 676.52L761.33 671.6L764.09 665.02L766.08 663.27L767.13 663.4L768.6 664.58L769.82 664.46L795.62 653.32L796.35 652.42L793.18 646.68L792.87 644.85L792.72 641.17L791.91 639.57L790.69 638.61L789.2 637.69L787.97 636.65L787.44 635.38L786.77 634.12L785.14 632.51L781.76 629.9L781.15 630.76L780.87 631.82L781.04 632.99L781.76 634.21L780.63 634.86L780.4 635.53L780.45 636.35L780.14 637.46L779.04 639.2L777.65 640.78L777.28 640.84L775.07 642.3L775.19 642.44L774.02 643.1L773.1 643.36L771.97 643.27L773.03 641.4L773.59 640.78L769.33 640.51L766.08 639.51L763.76 637.51L762.15 634.21L760.46 634.89L758.91 635.75L757.36 636.23L755.68 635.8L754.81 634.55L754.37 632.6L754.06 629.15L753.59 626.87L751.64 622.42L750.5 615.6L749.57 613.72L748.2 612.4L746.58 611.18L744.64 610.28L742.27 609.94L740.75 608.94L736.59 602L730.61 596.92L729.68 595.34L729.4 594.08L728.76 593.43L727.96 592.98L727.25 592.38L726.82 591.22L726.78 590.18L726.32 589.41L724.75 589.05L724 590.94L723.18 592.53L721.81 593.64L719.54 594.05L714.14 593.58L711.63 592.83L707.98 590.62L707.67 590.27L707.78 589.72L707.14 583.79L705.45 580.89L703.6 566.78L702.73 563.68L701.57 562.33L700.31 561.54L699.25 559.69L697.92 555.66L697.93 550.68L697.18 547.67L695.03 546.33L693.31 545.55L688.94 539.66L684.88 536.33L683.32 536.37L682.21 536.96L681.92 537.66L682.85 538L685.4 538.13L687.43 539.21L689.02 540.6L688.94 543.84L688.53 543.88L686.88 543.79L686.5 543.84L686.53 544.73L686.85 545.16L687.23 545.37L687.46 545.58L687.87 546.31L689.57 548.53L690.18 548.98L690.27 549.46L689.52 550.2L688.58 550.21L688.13 548.53L687.63 548.41L684.88 546.33L684.41 545.29L683.73 542.46L683.26 541.33L682.47 540.62L680.43 539.18L680.01 538.42L679.5 538.32L678.28 539.01L676.82 539.59L675.6 539.25L674.77 537.93L674.05 535.23L673.53 533.83L673.24 533.64L672.18 533.16L671.91 533L671.1 531.32L668.37 527.59L667.85 527.57L667.09 525.97L662.19 522.14L661.63 520.29L661.28 517.75L660.68 515.52L659.35 514.55L657.81 513.96L653.63 511.2L651.58 510.38L650.65 510.5L648.02 511.19L646.71 511.22L645.01 510.82L644.13 510.32L642.22 508.3L639.91 504.28L638.97 503.7L637.5 503.9L633.67 505.38L632.09 505.28L624.54 502.99L623.51 501.16L622.25 496.11L617.94 487.89L616.17 485.67L614.11 483.91L610.17 481.49L608.54 480.24L607.56 478.92L607.03 477.46L606.12 473.48L605.31 471.3L604.28 469.55L601.17 465.95L595.71 461.14L593.23 458.15L591.68 453.23L589.47 450.52L588.94 449.6L588.04 448.57L586.07 447.66L584.11 446.45L583.21 444.54L582.52 440.01L580.66 435.8L577.82 432.29L574.29 429.82L569.01 426.09L567.46 424L565.55 419.51L564.12 417.64L562.76 417.07L549.01 413.9L540.99 413.63L537.67 412.69L534.02 410.01L530.52 408.12L524.18 408.41L521.46 407.2V409.56L520.12 409.08L518.91 409.17L517.77 409.69L516.51 410.48L516.5 408.12L515.51 406.71L512.47 404.54L511.46 402.9L511.49 401.53L512.47 398.74L512.63 395.4L512.47 394.48L511.87 393.44L511.31 393.22L510.91 393.44L510.85 393.72L505.17 387.77L505.9 386.93L507.76 387.57L508.32 386.9L507.97 385.81L507.16 385.25L503.92 385.04L502.93 385.7L503.47 387.77L500.04 386.33L499.63 385.34L499.2 380.53L498.7 379.37L497.55 378.85L495.37 378.55L494.3 378.67L493.64 379.03L493.47 379.06L493.34 379.88L493.58 383.73L495.92 395.54L496.21 400.58L495.7 405.15L493.87 409.72L483.3 424.87L477.33 438.05L468.78 452.35L467.51 454.63L475.58 462.17L482.49 465.76L495.08 471.85L498.42 472.94L509.15 474.48L517.21 477.52L524.43 482.71L536.85 496.91L549.41 511.27L558.64 527.69L567.03 542.63L570.61 546.21L586.62 556.5L607.23 569.75L619.68 580.05L628.73 587.54L633.35 592.37L637.39 597.7L641.17 604.01L650.4 624.1L656.6 632.84L665.87 638.83L672.64 641.64L679.24 645.36L684.9 650.26L692.64 663.53L702.32 676.73L707.98 682.76L714.09 676.14L716.18 675.77L719.41 676.62L724.85 679.07L743.45 695.63Z" fill="#CCCCCC" stroke="white" stroke-width="0.5"/>
<path d="M392.651 434.23L392.631 434.2L386.081 422.84L351.781 363.34L349.311 357.58L345.551 351.42L344.261 353L343.311 353.62L341.821 354.16L340.581 353.92L281.681 353.93L273.761 353.02L269.961 353.62L265.111 355.69L254.861 358.2L244.261 359L242.531 359.36L240.771 360.1L238.611 361.46L234.081 366.54L231.461 371.02L229.691 373.31L228.091 374.72L223.651 376.5L221.021 378.06L218.881 380L217.761 381.62L216.061 386.51L213.801 391.02L213.391 393.22L213.611 396.08L214.411 399.6L218.141 407.89L218.711 412.34L217.301 415.74L217.541 416.32L218.111 419.7L218.701 420.9L219.831 421.96L221.221 422.73L222.461 423.68L223.221 425.26L224.341 429.91L225.311 432.07L226.701 433.88L228.551 435.34L234.921 438.82L235.881 439.73L236.671 442.38L237.311 443.48L238.781 444.59L239.781 444.7L240.781 444.41L246.641 444.46L255.701 443.41L260.121 442.23L267.471 438.4L269.791 438.47L271.951 439.2L274.111 439.42L276.301 439.22L278.561 438.68L285.641 435.73L290.931 435.22L293.121 433.67L297.041 430.06L301.981 427.74L304.411 426.21L306.091 424L306.451 421.74L306.261 419.45L306.451 417.4L307.981 415.89L308.151 416.32L312.401 416.81L315.781 417.59L316.971 418.07L319.561 419.71L321.951 421.91L324.001 424.44L325.631 427.06L329.081 437.24L331.541 441.77L334.501 441.74L337.091 437.58L338.701 436.1L341.661 435.63L348.091 436.67L350.341 436.54L360.071 433.81L364.921 431.44L367.031 428.58L367.961 426.12L370.011 426.15L372.371 427.49L374.171 429.01L376.591 431.95L377.311 432.65L377.981 433.01L384.091 434.86L387.271 435.15L392.651 434.23Z" fill="#CCCCCC" stroke="white" stroke-width="0.5"/>
<path d="M301.92 302.22L297.88 287.14L287.42 269.48L285.67 267.2L284.14 266.09L268.12 264.06L262.5 262.39L256.95 260.05L251.15 256.09L248.58 252.71L247.29 248.64L247.01 238.6L247.38 235.55L248.17 233.33L249.22 231.39L249.81 229.63L250.14 227.2L250.05 224.38L249.31 220.71L247.86 216.52L244.45 210.32L241.41 206.7L238.63 204.26L235.96 201.24L234.76 198.1L233.01 191.43L231.53 188.73L229.18 185.26L228.13 182.78L227.38 180.23L226.65 178.42L225.34 177.33L198.3 172.45L195.36 170.97L192.67 168.07L191.95 165.26L192.32 161.56L194.05 153.52L193.92 149.54L193.28 147L191.75 144.82L189.89 142.77L187.29 139.34L186.45 136.8L186.67 133.85L187.51 131.28L188.86 125.16L190.88 74.2L190.02 60.28L189.83 59.02L181.81 64.45L178.09 69.27L175.76 71.07L172.93 71.73L170.22 70.89L166.66 67.44L164.24 66.77L160.09 69.01L154.93 78.37L150.08 80.91L145.29 81.59L129.57 86.5L128.29 87.29L128 88.71L129.32 94.4L129.43 96.66L128.88 101.84L128.13 104.39L125.53 109.06L124.97 111.83L123.99 114.31L117.3 122.36L106.19 119.2L102.76 119.5L97.1198 123.01L93.5198 123.24L91.7598 122.98L85.3198 124.03L84.1398 123.83L79.5498 121L78.3198 120.54L75.2698 120.02L73.1498 119.14L71.3598 117.9L69.4698 117.06L67.0498 117.38L66.2598 118.31L66.2498 118.36L66.0098 119.35L66.2798 120.46L68.6298 123.76L69.0598 126.13L68.5098 128.53L65.6298 132.7L66.0298 134.04L67.2698 135.26L68.2998 136.79L68.5898 138.36L68.3698 143.35L68.5298 143.82L69.2298 144.94L69.3798 145.66L69.1598 146.17L68.2998 147.17L68.0798 147.72L67.6298 155.14L64.7098 162.58L63.4298 164.29L59.5198 167.13L57.7098 168.77L56.6298 171.1L56.4398 173.3L56.6598 177.34L56.2998 179.73L54.8398 184.67L54.7598 186.37L55.5698 189.24L57.1098 191.43L58.9798 193.42L60.6598 195.69L60.7798 196.05L64.0798 196.61L66.4198 200.06L67.3998 202.73L68.1498 205.98L68.9398 212.85L69.7198 215.93L70.4898 217.84L71.3398 219.09L72.2198 219.95L73.2698 220.77L74.2698 221.82L75.2398 223.22L76.8998 227.06L77.7098 228.27L79.3498 229.26L82.0598 230.28L93.1798 232.94L99.2598 235.03L106.63 239.52L111.16 244.12L114.76 249.68L116.98 254.91L118.95 257.83L121.29 259.57L125.4 260.81L128.99 262.36L131.2 263.8L132.1 265.06L132.29 266.18L132.21 267.36L133.04 268.25L134.83 268.87L143.47 268.82L151.85 267.72L155.17 267.76L158.48 268.59L162.68 270.69L166.03 273.1L168.52 274.41L171.21 274.96L175.36 275.07L178.5 275.5L182.37 276.69L189.21 279.76L200.8 287.6L202.95 288.34L205.95 288.09L208.49 287.15L215.09 283.88L217.98 282.92L221.19 283.01L225.12 284.2L230.72 287.88L234.69 291.79L237.85 296.12L241.12 302.53L243.62 304.36L247.56 305.37L269.3 306.02L281.46 304.55L282.85 303.45L283.83 303.34L285.43 303.61L286.35 304.11L287.72 305.22L288.64 305.3L289.98 305.03L294.42 303.46L301.92 302.22Z" fill="#CCCCCC" stroke="white" stroke-width="0.5"/>
<path d="M428.639 264.37L424.039 263.33L419.709 262.97V262.98L421.149 265.05L422.489 265.71L426.629 265.43L426.639 265.44L427.829 266.16L429.179 267.86L429.969 269.82L429.499 271.33L429.349 271.32L428.049 271.22L424.929 271.52L422.589 272.67L422.729 273.09L423.389 275.15L424.809 277.29L424.339 278.27L422.769 278.14L422.029 277.67L419.209 275.81L417.669 276.01L416.619 277.39L416.459 279.83L417.269 282.02L418.659 282.41L422.569 281.59L426.569 282.39L430.109 284.56L433.009 287.78L435.179 291.69L430.199 293.3L428.699 293.37L428.689 293.38L427.359 292.82L425.699 291.88L424.139 291.25L423.019 291.69H422.149H422.139L421.849 290.55L421.649 290.13L421.389 289.62L420.659 288.88L419.709 288.32L420.409 287.47L420.389 287.4L420.269 286.93L419.439 286.67L418.089 286.64L421.239 295.98L422.009 297.05L423.019 298.42H423.039L425.699 297.83L427.329 298.17L427.949 298.29L432.749 300.18L435.649 300.75L437.659 300.57L439.039 299.52L440.109 297.5L440.119 297.51L440.609 297.95L440.889 298.2L441.359 298.82L442.069 299.74L442.539 300.18L443.189 300.3L444.369 300.51L450.249 299.26L452.969 299.66L457.099 301.69L459.639 302.55L462.099 302.36L467.859 300.93L468.959 301.18L469.789 301.37L472.249 302.61L472.289 302.63L473.969 301.69L474.699 299.43L473.749 294.52L473.149 294.2L471.399 294.14L469.869 293.76L467.399 292.07L465.719 291.69L464.689 291.3L464.339 290.37L464.159 289.26L463.699 288.32L462.929 287.71L462.499 287.48L462.049 287.24L460.969 286.89L459.639 286.64L457.219 286.46L454.549 286.64L452.419 287.33L451.539 288.7L451.549 288.71L452.569 290.1L454.969 290.83L456.579 291.43L455.579 291.69L454.899 292.44L453.079 295.89L446.139 293.85L444.979 293.76L444.539 292.76L442.439 289.18L442.299 288.86L441.659 287.41L441.319 285.52L442.019 275.52L441.999 275.39L441.729 273.8L440.479 273.09L439.229 273.45L439.329 274.25L439.899 275.08L440.109 275.53L439.129 276.07L438.009 276.51L436.889 276.46L435.989 275.53L436.229 274.18L437.469 272.82L438.059 271.03L438.069 271.02L437.519 270.17L436.399 268.41L435.599 267.86L432.969 266.07L428.639 264.37ZM439.119 251.62L438.539 250.48L437.329 249.62L436.479 248.79L435.459 248.23L434.719 247.53L435.089 245.66L436.849 244.03L438.819 243.35L439.629 242.22L438.709 240.74L436.559 239.78L435.379 239.51L434.509 239L431.519 236.63L430.659 237.14L430.439 238.5L430.489 239.8L430.729 241L431.129 242.04L430.079 242.72L427.409 242.94L425.319 243.75L424.369 245.65L424.339 247.69L425.529 248.92L430.629 249.46L433.529 251.05L437.009 252.22L439.119 251.62ZM259.529 1L242.639 15.24L239.349 20.07L232.199 39.16L228.919 44.51L226.519 46.38L220.629 49.26L218.579 51.16L217.979 53.61L218.119 56.25L217.819 58.72L215.819 60.72L213.009 61.15L210.909 59.85L209.109 58L207.179 56.79L202.999 58.13L202.299 58.25L201.759 59.36L201.909 60.15L202.209 61.01L202.179 62.31L200.939 64.69L198.969 66.41L197.189 66.43L196.519 63.74L196.689 61.25L196.569 59.18L195.449 57.94L192.729 57.92L189.939 58.95L189.829 59.02L190.019 60.28L190.879 74.2L188.859 125.16L187.509 131.28L186.669 133.85L186.449 136.8L187.289 139.34L189.889 142.77L191.749 144.82L193.279 147L193.919 149.54L194.049 153.52L192.319 161.56L191.949 165.26L192.669 168.07L195.359 170.97L198.299 172.45L225.339 177.33L226.649 178.42L227.379 180.23L228.129 182.78L229.179 185.26L231.529 188.73L233.009 191.43L234.759 198.1L235.959 201.24L238.629 204.26L241.409 206.7L244.449 210.32L247.859 216.52L249.309 220.71L250.049 224.38L250.139 227.2L249.809 229.63L249.219 231.39L248.169 233.33L247.379 235.55L247.009 238.6L247.289 248.64L248.579 252.71L251.149 256.09L256.949 260.05L262.499 262.39L268.119 264.06L284.139 266.09L285.669 267.2L287.419 269.48L297.879 287.14L301.919 302.22L303.979 307.65L306.879 313.25L317.679 329.99L324.629 337.65L330.319 342.7L340.599 348.19L345.549 351.42L349.309 357.58L351.779 363.34L386.079 422.84L392.629 434.2L392.649 434.23L394.079 433.99L397.859 433.86L401.419 435.04L404.689 437.12L410.939 442.58L412.739 443.44L414.989 443.83L417.299 443.17L420.959 440.05L423.129 439.5L425.509 439.93L428.289 440.43L429.979 440.38L435.839 438.64L437.939 438.61L448.599 441.23L453.739 443.34L458.419 446.14L467.509 454.63L468.779 452.35L477.329 438.05L483.299 424.87L493.869 409.72L495.699 405.15L496.209 400.58L495.919 395.54L493.579 383.73L493.339 379.88L493.469 379.06L493.039 379.15L492.129 378.55L491.519 377.48L491.509 376.39L491.609 375.32L491.319 374.27L488.089 373.43L487.629 372.86L487.059 371.53L486.389 370.92L486.419 373.22L486.679 374.2L487.279 375.19L486.819 375.94L486.249 376.69L485.549 377.33L484.769 377.71L483.639 377.67L483.169 377.04L482.819 376.31L481.959 375.95L480.509 375.56L480.269 374.72L480.519 373.85L480.709 373.43L479.469 372.52L479.119 372.59L477.839 372.67L475.709 373.19L475.469 374.39L475.739 375.79L475.119 376.87L473.169 377.23L472.069 376.31L471.649 374.62L471.799 372.67L470.129 374.7L468.619 377.48L466.739 379.94L464.059 380.99L461.349 383.28L459.569 383.7L458.759 381.44L457.889 380.74L455.989 379.79L447.209 376.65L444.449 375.25L443.289 373.06L443.439 372.2L444.109 370.36L444.169 369.24L443.849 368.48L443.299 368.36L442.769 368.13L442.539 367.1L442.019 365.85L440.719 364.92L439.089 364.58L437.619 365.12L437.099 363.74L437.219 362.15L437.549 360.54L437.619 359.17L437.059 357.59L435.519 354.4L435.179 352.84L434.539 351.78L431.759 349.69L431.129 348.67L431.019 348.35L430.459 347.86L430.239 347.33L430.429 346.94L431.649 346.48L431.929 346.11L431.699 344.84L431.019 344.07L430.009 343.78L428.689 343.9L430.489 339.27L431.129 338.09L432.199 336.98L434.319 335.28L435.179 333.81L435.399 332.45L435.019 331.16L434.129 329.93L432.749 328.77L431.559 328.03L430.609 327.69L427.879 327.09L426.139 326.2L414.849 316.79L412.469 314.23L410.719 311.04L409.619 312.41L408.049 315.05L406.729 316.09L406.779 314.88L406.729 314.48H406.019L405.239 316.86L405.129 317.84H404.319L402.639 316.61L401.839 317.84L401.049 322.05L400.359 322.79L399.559 323.03L398.909 323.52L398.639 325.03L398.769 326.4L399.369 328.73L399.519 330.11L399.229 336.47L399.519 338.86L400.569 341.4L401.359 340.35L402.319 338.45L403.889 338.48L404.869 340.24L406.149 345.18L408.529 349.34L408.279 351.74L406.019 355.81L404.579 356.8L404.119 357.6L404.719 358.74L404.899 359.76L404.609 361.31L403.949 362.74L403.129 363.36L400.529 363.77L398.659 364.33L397.299 363.98L396.119 361.68L394.439 362.54L392.899 362.47L391.769 361.5L391.349 359.63L391.079 359.17L389.969 358.37L389.709 357.87L390.319 347.32L392.089 340.61L390.829 339.39L389.799 337.64L389.089 335.6L388.819 333.44L388.319 333.02L386.089 332.17L385.589 331.72L379.389 311.55L376.519 307.68L374.729 306.81L372.319 306.33L370.209 306.64L369.309 308.09L368.179 309.07L365.569 309.39L362.819 309.15L361.129 308.51L360.859 307.62L360.319 303.47L358.159 300.01L357.889 298.84L359.159 298.83L361.829 298.5L364.129 297.38L364.379 295.05L363.199 293.97L361.909 294.5L360.829 295.76L360.319 296.81L359.599 294.88L360.089 293.08L361.499 291.88L363.549 291.69L360.339 288.07L359.689 286.09L359.509 282.81L359.129 281.85L357.449 280.01L357.079 278.56L357.439 277.26L358.179 276.02L358.759 274.68L358.699 273.09L357.509 272.05L353.159 270.08L352.229 269.26L351.129 267.35L344.039 262.97L341.739 258.67L337.559 242.59L334.789 236.45L334.389 234.58L333.889 229.12L330.259 212.98L330.239 211.22L330.969 208.16L331.139 206.64L330.939 205.11L329.859 203.14L329.449 202L329.279 200.45L329.449 195.55L329.259 194.02L328.789 192.94L328.269 191.99L327.839 190.86L327.659 189.71L327.839 185.4L327.199 184.98L325.889 184.94L324.729 184.41L324.589 182.48L325.399 183.33L325.929 180.16L324.019 174.51L326.209 172.18L325.979 168.59L325.329 165.86L322.969 160.33L324.589 161.18L322.009 151.52L318.099 142.48L317.509 140.44L316.849 135.39L314.999 131.79L314.379 129.26L313.979 124.23L313.459 121.83L309.929 114.51L308.909 110.34L308.299 105.54L306.649 101.74L303.399 98.33L301.199 94.58L302.629 89.76L301.279 87.28L298.399 76.72L290.159 62.27L281.859 42.89L270.709 25.73L270.129 23.6L269.769 22.88L267.619 19.82L267.349 18.52L267.209 15.96L266.809 14.71L261.759 7.52L260.889 3.67L259.779 2.31L259.529 1Z" fill="#CCCCCC" stroke="white" stroke-width="0.5"/>
<path d="M345.551 351.42L340.601 348.19L330.321 342.7L324.631 337.65L317.681 329.99L306.881 313.25L303.981 307.65L301.921 302.22L294.421 303.46L289.981 305.03L288.641 305.3L287.721 305.22L286.351 304.11L285.431 303.61L283.831 303.34L282.851 303.45L281.461 304.55L281.681 353.93L340.581 353.92L341.821 354.16L343.311 353.62L344.261 353L345.551 351.42Z" fill="#CCCCCC" stroke="white" stroke-width="0.5"/>
<path d="M134.83 268.87L133.04 268.25L132.21 267.36L132.29 266.18L132.1 265.06L131.2 263.8L128.99 262.36L125.4 260.81L121.29 259.57L118.95 257.83L116.98 254.91L114.76 249.68L111.16 244.12L106.63 239.52L99.26 235.03L93.18 232.94L82.06 230.28L79.35 229.26L77.71 228.27L76.9 227.06L75.24 223.22L74.27 221.82L73.27 220.77L72.22 219.95L71.34 219.09L70.49 217.84L69.72 215.93L68.94 212.85L68.15 205.98L67.4 202.73L66.42 200.06L64.08 196.61L60.78 196.05L61.54 198.2L61.48 200.38L61.06 202.6L60.89 205.24L61.5 207.84L63.66 212.85L63.98 215.49L62.77 218.63L57.8 223.81L55.87 227.04L51.92 238.31L46.56 253.67L40.87 269.94L37.68 275.21L31.81 281.32L30.35 284.04L23.91 307.66L23.61 312.87L25.24 318.24L21.35 320.87L19.03 324.67L13.02 342.58L10.86 345.97L2.12 354.52L1.17 356.66L1 359.36L2.36 371.02L4.77 391.61L5.57 398.4L6.97 410.3L8.77 425.71L10.56 440.9L13.19 463.42L15.48 463.46L16.36 461.06L17.85 459.82L19.85 459.35L22.38 459.28L24.02 458.9L27.69 457.17L30.07 456.77H35.42L36.43 456.49L38.35 455.3L39.51 455.02H47.62L51.43 455.55L59.17 457.85L63.11 458.37L63.81 458.83L65.96 461.79L66.9 462.49L67.83 463.01L68.86 463.35L70.08 463.46L70.78 463.23L72.51 461.79L73.48 461.71L75.64 461.97L76.56 461.79L78.04 460.75L79.32 459.23L80.21 457.21L80.54 454.64L80.62 451.7L81.02 449.21L81.98 446.79L83.78 444.15L87.18 441.56L91.28 440.62L100.06 440.8L102.65 439.9L104.28 439.66L107.18 442.15L109.42 443.47L113.92 450L115.73 451.83L116.18 452.82L116.36 454.64L116.3 457.43L116.63 458.74L118.34 459.74L123.14 463.78L123.66 464.51L124.53 466.81L125.13 469.88L125.84 471.25L127.36 471.82L128.59 472.05L129.8 472.65L130.72 473.58L131.08 474.75L131.21 477.88L131.77 479.91L133.01 481.38L135.14 482.77L136.48 481.4L140.76 471.09L147.58 454.64L155.03 436.68L162.67 418.23L170.39 399.61L175.23 387.87L177.29 389.68L178.73 391.8L181 396.3L181.52 396.73L182.67 396.86L183.09 397.28L183.15 397.78L183.11 399.08L183.18 399.46L183.64 400.35L183.9 401.17L184.41 401.76L185.75 401.98L186.91 402.87L187.17 403.83L187.26 404.91L187.93 406.11L188.91 406.91L201.79 412.24L203.94 412.64L210.7 411.46L213.51 411.64L215.34 412.4L216.55 413.89L217.3 415.74L218.71 412.34L218.14 407.89L214.41 399.6L213.61 396.08L213.39 393.22L213.8 391.02L216.06 386.51L217.76 381.62L218.88 380L221.02 378.06L223.65 376.5L228.09 374.72L229.69 373.31L231.46 371.02L234.08 366.54L238.61 361.46L240.77 360.1L242.53 359.36L244.26 359L254.86 358.2L265.11 355.69L269.96 353.62L273.76 353.02L281.68 353.93L281.46 304.55L269.3 306.02L247.56 305.37L243.62 304.36L241.12 302.53L237.85 296.12L234.69 291.79L230.72 287.88L225.12 284.2L221.19 283.01L217.98 282.92L215.09 283.88L208.49 287.15L205.95 288.09L202.95 288.34L200.8 287.6L189.21 279.76L182.37 276.69L178.5 275.5L175.36 275.07L171.21 274.96L168.52 274.41L166.03 273.1L162.68 270.69L158.48 268.59L155.17 267.76L151.85 267.72L143.47 268.82L134.83 268.87Z" fill="#CCCCCC" stroke="white" stroke-width="0.5"/>
</svg>
