<svg width="801" height="1168" viewBox="0 0 801 1168" fill="none" xmlns="http://www.w3.org/2000/svg">
<path d="M636.899 439.3L635.789 439.13L634.839 438.8L630.659 436.39L629.769 436.07L628.759 435.89L627.789 435.93L625.949 436.35L621.549 438.18L620.909 438.66L620.289 439.34L619.959 440.54L619.839 441.53L620.539 442.3L621.079 443.07L621.389 443.97L621.359 445.01L620.539 446.45L619.369 449.59L617.899 452.46L614.299 457.12L613.579 458.62L613.269 459.98L613.469 460.99L613.769 461.95L614.159 462.74L615.169 464.24L617.139 466.01L617.759 466.66L618.169 467.48L618.399 468.45L618.169 469.53L617.529 470.42L615.969 471.01H614.799L613.799 470.7L612.189 469.8L611.299 469.55L610.259 469.89L609.249 470.69L607.329 473.66L605.999 476.44L604.049 482.1L603.799 483.09L603.689 484.13V485.12L603.939 486.06L604.439 486.78L605.129 487.32L608.529 488.95L609.199 489.57L609.639 490.36L609.759 491.32L609.279 492.23L608.419 492.98L606.579 493.6L605.299 493.91L604.189 494.48L603.459 495.25L603.069 496.73L603.179 497.81L603.849 499.67L604.219 501.66V502.76L603.849 504.76L603.959 505.67L604.379 506.28L605.079 506.81L605.909 507.17L607.859 507.73L609.899 507.98L610.799 507.95L614.999 507.35L618.929 506.35L624.339 505.69L625.479 505.77L626.449 506.04L627.339 506.42L628.119 506.91L628.739 507.56L630.659 510.53L631.029 511.45L631.279 513.54L631.199 514.63L631.029 515.62L630.319 516.34L629.179 516.84L623.609 517.08L622.469 517.29L621.549 517.86L621.019 519.04L620.929 520.13L622.109 527.52L622.529 528.28L622.669 529.08L622.689 530.05L622.439 531.09L620.759 532.12L617.839 532.91L610.619 533.74L607.469 533.77L605.469 533.57L603.299 531.97L599.389 528.15L597.749 526.12L595.179 523.63L588.879 519.57L586.009 518.32L582.189 517.08L577.799 516.28L574.099 516.36L566.109 519.16L564.699 519.98L562.859 521.28L560.189 523.73L559.339 525.07L559.029 526.33L559.199 527.33L559.209 528.39L559.039 529.39L557.109 532.59L556.729 533.57L556.189 534.36L554.769 534.81L553.739 535.38L552.969 536.7L551.839 537.88L550.409 538.82L547.369 539.43L545.629 539.47L544.259 539.27L543.329 538.98L539.039 536.98L538.089 536.67L536.919 536.64L530.659 538.74L529.009 538.93H527.649L525.659 538.51L524.599 539.05L523.409 540.23L519.829 548.09L516.029 551.92L526.269 554.64L529.809 556.36L554.829 576.53L556.959 579.09L559.059 582.43L566.789 600.62L567.279 602.56L568.049 609.08L568.629 610.91L569.069 611.87L573.469 618.9L574.909 620.42L576.559 621.7L578.339 622.45L580.259 622.91L584.289 623.52L585.619 623.99L587.739 625.33L588.739 626.69L589.409 628.54L589.659 630.84L593.959 642.75L605.799 663.15L607.919 668.39L608.169 669.4L608.729 680.17L609.059 681.68L609.839 683.85L610.559 685L611.349 685.82L617.979 689.16L622.889 690.54L624.109 691.16L625.529 692.04L627.789 693.97L628.819 695.2L629.489 696.33L630.299 701.72L630.269 704.11L629.539 709.62L626.509 719.21L626.289 721.33V722.38L627.119 728.06L627.899 737.75L627.459 740.96L626.979 741.72L625.619 744.83L624.479 748.43L624.139 750.47V752L624.449 752.91L625.199 757.1L625.619 762.23L625.449 765.09L625.119 766.98L624.669 767.92L623.139 770.08L620.619 772.54L619.929 773.07L616.749 776.06L615.889 777.52L614.919 779.64L613.249 784.36L612.739 786.7L612.629 788.48L613.219 790.42L614.029 792.03L614.579 792.71L615.249 793.28L616.029 793.74L618.759 794.7L620.489 795.52L621.889 796.61L623.059 797.9L624.029 799.45L624.749 801.14L625.779 808.9L625.669 810.95L625.369 812.39L624.809 813.1L624.199 813.67L617.119 817.8L616.389 818.36L613.969 820.86L613.439 821.54L612.829 822.17L612.299 822.89L611.709 823.53L611.189 824.23L610.339 826.31L607.499 836.95L606.939 840.33L606.859 842.6L607.389 843.26L608.309 843.52L613.609 843.14L614.529 843.31L615.419 843.61L616.229 844.08L616.839 844.7L617.279 845.5L617.779 847.41L618.509 851.6L618.789 852.57L619.089 853.41L620.039 854.95L621.299 856.19L623.579 857.63L624.389 858.49L625.169 859.69L625.899 862.23L625.979 863.87L625.839 865.36L620.649 881.16L620.229 881.99L619.259 883.5L618.699 884.17L618.119 884.78L615.249 886.91L612.219 888.69L604.159 891.79L603.359 892.81L604.329 894.72L605.549 898.18L605.929 901.36L605.049 903.64L603.749 906.02L603.129 909.24L603.319 912.28L604.439 914.15L612.909 920.59L616.109 921.57L628.429 921.26L631.559 921.69L633.849 923.04L637.659 926.21L643.899 929.89L644.629 931.17L644.899 932.63L644.429 949.17L645.819 946.44L646.379 945.66L647.629 944.31L650.999 941.82L654.159 940.09L655.909 939.52L657.719 939.16L658.949 939.09L659.089 939.06L673.689 939.74L687.709 942.9L690.189 944.12L691.669 945.25L693.479 947.17L699.799 964.47L701.819 966.98L703.819 968.49L706.329 970.07L710.199 971.57L712.769 972.85L714.239 973.87L714.939 974.43L715.549 975.1L716.079 975.98L716.389 977.23L715.889 978.26L715.329 978.93L711.739 980L707.939 982.6L707.929 982.61L716.889 983.26L751.179 979.35L758.449 976.83L764.149 971.47L765.709 968.11L767.569 959.68L767.829 955.95L768.659 952.42L773.089 943.59L775.179 940.43L784.299 930.61L790.459 925.81L798.599 921.41L799.749 920.98L799.849 920.95H799.859L800.319 914.6L798.199 911.74L783.329 910.04L780.859 908.77L778.929 906.53L776.579 902.87L775.199 901.28L773.849 900.55L772.509 899.99L771.079 898.94L768.299 894.95L763.599 880.47L749.899 880.41L746.229 879.42L743.909 877.66L738.059 870.6L733.549 867.73L724.679 863.34L720.889 859.45L718.049 855.08L715.899 850.79L714.779 846.35L715.029 842.63L715.099 841.54L716.229 839.23L717.489 837.54L717.599 835.85L715.299 833.6L713.669 833.26L708.659 833.42L706.969 833.25L705.389 830.38L702.859 828.51L700.509 826.35L699.499 822.57L701.059 813.44L700.879 810.51L699.359 807.59L696.739 805.1L693.599 803.36L690.519 802.71L689.329 801.12L684.139 791.41L681.939 789.72L680.219 788.69L679.639 786.96L680.849 783.15L684.639 776.81L685.059 773.76L682.949 769.93L677.839 765.97L675.779 763.2L678.399 762.39L681.039 762.19L688.609 760.21L690.929 758.92L694.359 752.69L694.489 744.82L693.689 736.67L694.309 729.58L698.629 718.73L700.299 710.33L702.699 703.68L702.919 699.76L700.039 687.89L698.859 686.31L692.249 688.76L688.679 689.4L685.419 688.96L679.749 683.93L676.859 675.96L675.969 667.03L676.649 656.51L677.299 654.28L678.419 652.34L680.239 650.57L682.589 649.51L685.469 648.72L687.899 647.47L688.919 645.03L688.869 640.11L689.429 634.49L691.729 630.8L696.919 631.68L696.419 628.14L696.809 618.66L695.179 608.3L695.329 597.44L695.199 596.56L693.439 584.56L693.579 577.81L693.489 574.33L691.839 567.56L691.169 559.03L690.219 554.58L691.109 553.29L692.529 552.2L693.509 549.85L693.189 547.34L691.949 545.79L690.559 544.44L689.819 542.53L690.019 540.19L690.949 539.48L692.319 539.31L693.819 538.59L699.799 533.19L702.809 531.21L710.739 527.68L713.609 525.88L714.969 523.12L714.259 518.66L713.589 518.04L711.439 517.69L710.739 517.07L710.619 516.21L710.769 514.39L710.329 511.73L710.379 509.65L709.989 507.77L703.109 502.03L700.789 495.16L697.649 488.48L685.879 482.93L681.199 479.54L676.859 475.51L673.799 471.95L666.609 467.03L659.469 457L654.199 445.61L653.059 438.94H652.999H652.929L645.929 437.97L644.819 438.04L639.099 439.2L638.019 439.3H636.899Z" fill="#CCCCCC" stroke="white" stroke-width="0.5"/>
<path d="M707.93 982.61L707.94 982.6L711.74 980L715.33 978.93L715.89 978.26L716.39 977.23L716.08 975.98L715.55 975.1L714.94 974.43L714.24 973.87L712.77 972.85L710.2 971.57L706.33 970.07L703.82 968.49L701.82 966.98L699.8 964.47L693.48 947.17L691.67 945.25L690.19 944.12L687.71 942.9L673.69 939.74L659.09 939.06L658.95 939.09L657.72 939.16L655.91 939.52L654.16 940.09L651 941.82L647.63 944.31L646.38 945.66L645.82 946.44L644.43 949.17L636.65 958.03L633.9 960.62L631.53 962.09L630.52 962.43L629.1 962.53L627.98 962.36L627.01 961.98L626.29 961.46L624.42 959.68L623.28 958.38L620.91 954.71L620.35 953.97L619.57 953.21L614.64 951.09L613.86 950.63L612.41 949.58L611.13 948.39L610.09 946.98L607.7 941.97L607.03 941.2L605.89 940.47L603.57 940.25H601.08L598.97 940.67L597.66 941.06L591.18 945.45L589.05 946.49L587.66 946.93L587.04 947L586.43 946.75L585.21 945.31L584.32 944.62L583.17 944L581.22 943.3L580.17 943.51L579.49 944.17L576.55 954.71L575.84 955.78L574.48 956.89L566.92 959.97L565.96 960.59L565.27 961.43L563.28 965.61L561.35 972.58L559.63 976.1L559.17 976.84L558.63 977.54L557.71 978.45L556.42 979.47L553.9 980.98L552.25 981.43L550.87 981.53L548.98 980.89L547.45 979.96L546.77 979.39L546.15 978.76L545.21 978.09L544.03 977.56L541.96 977.26L540.8 977.54L539.84 978.03L536.43 982.14L535.37 982.95L533.85 983.89L530.78 985.38L529.03 985.97L527.57 986.31L523.08 986.14L521.27 985.87L518.01 984.61L517.16 984.21L514.39 983.2L512.74 982.28L512.12 981.64L511.77 980.83V977.72L510.64 977.02L508.63 976.78L500.88 977.37L499.07 977.7L497.53 978.21L497.09 978.45L496.62 978.8L496.34 979.37L496.14 979.93L495.37 983.89L495.35 985.44L495.43 986.43L495.57 987.22L495.98 988.59L502.65 1001.77L505.31 1005.79L506.86 1007.02L508.64 1007.85L509.61 1008.15L512.42 1009.61L514.9 1011.37L516.04 1012.55L516.85 1013.59L519.69 1019.98L522.42 1029.6H522.43L523.54 1029.05L531.67 1028.03L570.21 1015.53L573.06 1015.27L574.64 1014.71L575.69 1013.87L578.03 1011.52L578.87 1011.02L593.15 1006.2L596.05 1003.24L598.04 999.98L600.55 997.32L607.54 995.31L612.48 990.69L615.23 988.83L627.25 985.57L630.66 983.13L632.17 982.6L636.51 982.41L637.41 981.89L638.32 980.84L640.5 979.97L644.78 978.97L652.5 978.56L707.93 982.61Z" fill="#CCCCCC" stroke="white" stroke-width="0.5"/>
<path d="M211.49 1166.92L216.29 1166.73L218.71 1165.75L231.09 1164.17L233.63 1163.14L236.33 1160.56L240.67 1154.37L243.54 1151.83L257.31 1145.65L269.64 1142.13L271.32 1141.99L272.9 1141.68L272.99 1140.83L272.67 1139.63L273.07 1138.31L278.25 1132.58L280.44 1130.91L292.74 1124.82L293.48 1124.15L294.61 1122.86L295.02 1121.43L293.77 1118.72L294.05 1117.26L296.27 1115.49L299.33 1114.73L302.49 1114.96L305.07 1116.15L305.2 1116.07L305.19 1116.03L303.65 1104.33L303.72 1102.41L304.43 1098.01L305.02 1095.99L305.8 1094.15L309.32 1087.6L310.44 1086.25L311.12 1085.7L311.86 1085.18L312.64 1084.76L313.44 1084.44L315.23 1083.92L316.15 1083.78L318.63 1083.82L319.62 1083.72L320.57 1083.51L321.36 1083.21L322.11 1082.77L322.84 1082.27L323.48 1081.66L325.69 1078.92L331.06 1074.74L331.63 1074.12L331.71 1073.13L331.16 1071.76L329.31 1069.63L328.13 1068.51L320.87 1063.87L315 1058.55L312.7 1055.87L312.08 1054.83L311.51 1053.48L310.26 1049.49L309.62 1048.16L308.84 1047.13L307.33 1045.67L306.22 1044.92L305.1 1044.34L303.29 1043.63L301.82 1042.54L301.18 1041.9L298.3 1038.42L297.14 1035.26L296.6 1033.14L296.52 1032.09L296.6 1031.01L296.97 1028.92L297.53 1027L297.95 1026.18L298.52 1025.53L299.31 1025.12L300.14 1024.87L300.91 1024.42L301.44 1023.76L302.34 1022.3L302.56 1021.56L302.47 1020.75L302.27 1019.89L300.56 1017.27L298.28 1014.82L295.88 1012.73L292.65 1010.9L290.94 1010.15L289.02 1009.53L286.82 1009.16L282.5 1009.08L281.45 1008.88L280.52 1008.55L279.67 1008.11L277.6 1006.43L276.78 1005.98L275.85 1005.6L274.74 1005.44L273.65 1005.39L271.58 1005.62L269.74 1006.12L263.76 1008.5L262.8 1008.63L261.8 1008.56L260.93 1007.62L260.2 1006.04L259.58 1002.41L259.52 1000.51L259.69 998.88L260.83 995.98L261.81 992.11L262.04 990.13L261.9 986.52L262.02 985.45L262.33 984.5L262.78 983.73L263.34 983.03L264.58 981.77L265.08 981.1L265.15 980.16L264.76 979.08L263.44 978.05L261.14 977.01L260.43 976.26L260 975.14L259.84 973.2L260.07 970.44L260.8 967.19L260.91 966.12L260.51 964.51L259.59 962.64L257.15 959.26L255.8 957.74L254.66 956.75L253.75 956.39L249.55 955.37L248.63 954.96L247.81 954.5L244.58 951.99L243.98 951.4L243.48 950.83L235.34 939.04L231.95 935.51L231.22 935.02L230.53 934.46L227.8 933.03L222.15 930.66L221.38 930.24L220.75 929.75L220.09 928.93L218.15 924.09L217.56 922.99L215.76 921.06L214.26 920.07L210.58 918.82L209.61 918.61L208.17 918.12L205.24 916.74L199.96 913.2L199.27 912.48L197.91 910.22L197.41 908.79L197.13 907.63L196.9 905.3L197.01 903.03L197.34 900.87L197.61 899.92L198.47 898.85L199.87 897.72L202.92 896.07L207.81 894.1L210.02 892.53L212.95 889.82L214.23 888.03L215.14 885.34L210.97 885.52L209.59 885.32L208.48 884.83L207.37 883.57L206.82 882.51L206.42 881.48L205.63 878.58L205.27 877.7L203.85 875.46L203.21 874.85L202.47 874.33L201.6 873.94L188.43 870.88L186.81 870.08L186.35 869.27L186.13 868.34L186.08 867.24L186.33 865.01L189.76 854.81V853.83L189.67 852.89L189.54 852.29L189.31 851.57L188.8 850.93L187.94 850.38L186.52 850.15L185.1 850.37L181.25 851.69H179.88L178.76 851.43L173.23 848.02L171.49 847.24L170.58 846.97L169.52 846.92L168.53 847.39L167.57 848.26L166.6 850.34L166.14 851.78L164.32 864.4L163.82 866.38L163.15 868.26L162.29 870.07L161.72 870.95L159.4 873.2L158.72 873.67L157.1 874.46L156.15 874.74L155.02 874.85L153.74 874.84L152.14 874.65L151.16 874.01L150.73 873.56L151.28 869.24L149.88 869.19L148.26 868.37L145.91 866.66L143.91 865.54L143 865.25L141.94 865.05L137 864.8L136 864.61L134.99 864.19L134.15 863.41L126.18 846.43L125.43 845.59L124.34 844.8L122.25 843.87L118.66 842.82L117.78 842.46L116.91 841.91L116.06 841.08L115.11 839.79L114.37 837.88L113.6 834.25L112.9 833.26L111.76 832.32L109.4 831.17L107.73 830.75L106.22 830.56L99.43 831.12L97.11 831.1L95.13 830.59L94.31 830.17L87.29 824.78L85.61 823.97L80.75 822.66L79.87 822.2L79.15 821.64L78.59 820.73L78.68 819.46L78.5 817.95L78.06 816.2L76.85 813.31L76.4 811.48L76.21 809.94L76.34 808.84L76.6 807.86L78.06 804.41L78.25 803.46L78.21 802.45L77.65 800.55L77.29 799.7L77.02 798.75L76.85 797.76L76.77 794.55L76.47 793.39L73.69 787.21L72.8 783.39L68.53 775.47L66.52 773.18L63.87 770.84L58.42 767.82L55.72 766.71L53.75 766.26L51.81 766.66L45.01 769.45L44.08 769.68L43.07 769.72L40.83 769.5L39.7 769.06L38.63 768.45L37.26 767.37L36.45 766.53L35.82 765.73L33.93 762.33L32.71 758.65L30.85 749.17L30.68 748.56L28.47 749.94L7.75 785.58L4.74 792.55L4.49 799.09L5.27 800.92L7.52 803.82L9.94 808.51L10.36 809.71L6.83 819.64L5.86 820.82L2.55 822.65L1.25 824.55L1 827.59L15.18 891.43L17.31 894.02L17.83 894.66L23.12 899.5L26.94 909.58L32.39 939.7L35 946.16L41.91 958.84L44.1 965.38L44.56 971.9L42.81 992.5L54.47 991.5L52.66 1002.78L53.63 1007.45L57.87 1009.82L61.39 1009.38L67.23 1005.84L70.15 1004.67L82.95 1007.98L85.25 1009.85L86.66 1012.21L87.34 1015.13L87.76 1024.58L90.95 1037.49L95.85 1049L96.62 1052.24L96.16 1055.39L94.38 1057.66L92 1058.1L85.94 1056.99L84.77 1068.15L85.28 1070.65L87.78 1074.26L88.58 1076.34L88.49 1077.88L87.73 1081.65L87.87 1083.3L88.44 1083.92L90.81 1085.95L91.79 1087.11L90.07 1090.5L87.5 1092.33L83.38 1092.93L76.23 1092.65H76.22L72.34 1094.42L65.89 1095.45L60.9 1097.54L61.38 1102.49L59.42 1103.08L55.74 1104.63L53.37 1104.96L52.41 1104.28L50.21 1101.1L49.14 1100.04L45.26 1098.9L32.41 1098.81L30.37 1099.12L28.7 1099.78L27.45 1100.1L26.67 1103.07L29.52 1103.72L54.44 1111.37L80.32 1115.92L103.75 1117.7L133.32 1127.76L163.71 1134.03L182.36 1141.33L183.35 1142.43L184.14 1143.81L184.45 1145.13L185.18 1146.73L186.91 1147.77L190.7 1149.38L198.35 1155.5L200.03 1157.27L199.84 1158.1L201.86 1158.3L204.58 1159.13L206.03 1159.34L208.36 1159.99L208.78 1161.62L208.59 1163.64L209.1 1165.49L210.4 1166.68L211.49 1166.92Z" fill="#CCCCCC" stroke="white" stroke-width="0.5"/>
<path d="M605.331 729.58L603.831 729.3L601.711 728.45L597.771 726.41L595.961 725.71L593.961 725.21L548.561 723.44L538.241 725.29L535.011 726.44L533.631 727.52L532.381 728.75L528.831 733.24L527.691 734.39L525.481 736.22L523.331 737.52L514.401 740.52L512.391 741.4L511.041 742.2L509.811 743.46L509.241 744.36L507.271 746.55L505.571 747.06L481.571 747.51L478.841 748.08L476.821 749.83L444.541 795.07L443.061 796.34L441.911 797.06L440.991 797.37L428.031 799.19L424.101 800.65L419.741 802.73L417.911 804.03L416.751 805.17L416.051 806.95L415.561 808.91L415.461 809.98L415.521 811.04L415.721 812.02L416.061 812.89L416.971 814.43L418.071 815.83L419.331 817.07L423.531 820.32L424.161 820.91L424.741 821.59L425.711 823.07L426.511 824.72L426.981 826.64L427.031 827.59L426.971 828.21L426.331 829.38L425.181 830.83L420.141 835.85L419.131 837.3L418.701 838.11L417.841 839.3L394.551 863.45L386.851 875.58L384.121 882.81L382.031 890.7L381.621 893.16L381.151 894.55L380.161 896.57L379.371 897.66L378.631 898.5L377.241 899.58L373.221 901.88L372.861 902.61L373.141 903.18L373.691 903.84L374.161 904.58L374.481 905.49L374.591 906.52V907.63L374.251 909.85L373.821 911.27L371.791 914.72L371.351 915.71L371.481 916.51L371.761 917.24L371.641 918.99L372.061 919.57L372.841 919.8L373.601 920.32L374.061 921.05L374.001 922.17L373.331 922.79L371.111 923.42L370.501 924.13L370.201 925.14L370.011 926.21L368.761 930.19L368.251 931.34L366.721 933.89L365.361 937.64L365.191 938.89V939.04L364.961 940.02L363.861 942.39L363.621 943.23L363.681 943.99L364.041 944.54L364.691 944.56L365.451 944.42L366.331 944.47L366.971 944.89L367.531 945.54L367.601 947.98L364.341 954.4L370.231 957.53L375.501 959.5L376.351 960.25L376.841 961.07L382.441 973.24L385.061 977.75L386.011 978.79L386.451 979.12L387.591 979.42L389.221 979.57L404.721 979.35L406.011 979.49L407.671 979.84L410.351 980.73L411.741 981.49L413.501 982.78L414.671 983.17L416.291 983.31L420.741 982.77L422.941 982.28L424.971 982.02L428.481 982.37L445.941 986.18L446.861 986.56L448.931 987.08L452.771 987.11L483.101 984.67L487.911 985.44L495.981 988.59L495.571 987.22L495.431 986.43L495.351 985.44L495.371 983.89L496.141 979.93L496.341 979.37L496.621 978.8L497.091 978.45L497.531 978.21L499.071 977.7L500.881 977.37L508.631 976.78L510.641 977.02L511.771 977.72V980.83L512.121 981.64L512.741 982.28L514.391 983.2L517.161 984.21L518.011 984.61L521.271 985.87L523.081 986.14L527.571 986.31L529.031 985.97L530.781 985.38L533.851 983.89L535.371 982.95L536.431 982.14L539.841 978.03L540.801 977.54L541.961 977.26L544.031 977.56L545.211 978.09L546.151 978.76L546.771 979.39L547.451 979.96L548.981 980.89L550.871 981.53L552.251 981.43L553.901 980.98L556.421 979.47L557.711 978.45L558.631 977.54L559.171 976.84L559.631 976.1L561.351 972.58L563.281 965.61L565.271 961.43L565.961 960.59L566.921 959.97L574.481 956.89L575.841 955.78L576.551 954.71L579.491 944.17L580.171 943.51L581.221 943.3L583.171 944L584.321 944.62L585.211 945.31L586.431 946.75L587.041 947L587.661 946.93L589.051 946.49L591.181 945.45L597.661 941.06L598.971 940.67L601.081 940.25H603.571L605.891 940.47L607.031 941.2L607.701 941.97L610.091 946.98L611.131 948.39L612.411 949.58L613.861 950.63L614.641 951.09L619.571 953.21L620.351 953.97L620.911 954.71L623.281 958.38L624.421 959.68L626.291 961.46L627.011 961.98L627.981 962.36L629.101 962.53L630.521 962.43L631.531 962.09L633.901 960.62L636.651 958.03L644.431 949.17L644.901 932.63L644.631 931.17L643.901 929.89L637.661 926.21L633.851 923.04L631.561 921.69L628.431 921.26L616.111 921.57L612.911 920.59L604.441 914.15L603.321 912.28L603.131 909.24L603.751 906.02L605.051 903.64L605.931 901.36L605.551 898.18L604.331 894.72L603.361 892.81L604.161 891.79L612.221 888.69L615.251 886.91L618.121 884.78L618.701 884.17L619.261 883.5L620.231 881.99L620.651 881.16L625.841 865.36L625.981 863.87L625.901 862.23L625.171 859.69L624.391 858.49L623.581 857.63L621.301 856.19L620.041 854.95L619.091 853.41L618.791 852.57L618.511 851.6L617.781 847.41L617.281 845.5L616.841 844.7L616.231 844.08L615.421 843.61L614.531 843.31L613.611 843.14L608.311 843.52L607.391 843.26L606.861 842.6L606.941 840.33L607.501 836.95L610.341 826.31L611.191 824.23L611.711 823.53L612.301 822.89L612.831 822.17L613.441 821.54L613.971 820.86L616.391 818.36L617.121 817.8L624.201 813.67L624.811 813.1L625.371 812.39L625.671 810.95L625.781 808.9L624.751 801.14L624.031 799.45L623.061 797.9L621.891 796.61L620.491 795.52L618.761 794.7L616.031 793.74L615.251 793.28L614.581 792.71L614.031 792.03L613.221 790.42L612.631 788.48L612.741 786.7L613.251 784.36L614.921 779.64L615.891 777.52L616.751 776.06L619.931 773.07L620.621 772.54L623.141 770.08L624.671 767.92L625.121 766.98L625.451 765.09L625.621 762.23L625.201 757.1L624.451 752.91L624.141 752V750.47L624.481 748.43L625.621 744.83L626.981 741.72L627.461 740.96L627.901 737.75L627.121 728.06L618.681 725.07L617.481 725L616.201 725.11L613.441 726.29L610.201 728.24L607.581 729.32L606.581 729.55L605.331 729.58Z" fill="#CCCCCC" stroke="white" stroke-width="0.5"/>
<path d="M227.19 919.2L226.26 918.11L225.44 915.95L222.79 901.94L223.17 900.79L223.7 899.87L224.31 899.24L224.67 898.43L224.84 897.39L224.56 894.77L224.63 893.61L224.92 892.63L225.73 890.93L225.99 890.05L226.09 889.11L225.96 888.28L225.59 887.01L223.44 885.73L215.14 885.34L214.23 888.03L212.95 889.82L210.02 892.53L207.81 894.1L202.92 896.07L199.87 897.72L198.47 898.85L197.61 899.92L197.34 900.87L197.01 903.03L196.9 905.3L197.13 907.63L197.41 908.79L197.91 910.22L199.27 912.48L199.96 913.2L205.24 916.74L208.17 918.12L209.61 918.61L210.58 918.82L214.26 920.07L215.76 921.06L217.56 922.99L218.15 924.09L220.09 928.93L220.75 929.75L221.38 930.24L222.15 930.66L227.8 933.03L230.53 934.46L231.22 935.02L231.95 935.51L235.34 939.04L243.48 950.83L243.98 951.4L244.58 951.99L247.81 954.5L248.63 954.96L249.55 955.37L253.75 956.39L254.66 956.75L255.8 957.74L257.15 959.26L259.59 962.64L260.51 964.51L260.91 966.12L260.8 967.19L260.07 970.44L259.84 973.2L260 975.14L260.43 976.26L261.14 977.01L263.44 978.05L264.76 979.08L265.15 980.16L265.08 981.1L264.58 981.77L263.34 983.03L262.78 983.73L262.33 984.5L262.02 985.45L261.9 986.52L262.04 990.13L261.81 992.11L260.83 995.98L259.69 998.88L259.52 1000.51L259.58 1002.41L260.2 1006.04L260.93 1007.62L261.8 1008.56L262.8 1008.63L263.76 1008.5L269.74 1006.12L271.58 1005.62L273.65 1005.39L274.74 1005.44L275.85 1005.6L276.78 1005.98L277.6 1006.43L279.67 1008.11L280.52 1008.55L281.45 1008.88L282.5 1009.08L286.82 1009.16L289.02 1009.53L290.94 1010.15L292.65 1010.9L295.88 1012.73L298.28 1014.82L300.56 1017.27L302.27 1019.89L302.47 1020.75L302.56 1021.56L302.34 1022.3L301.44 1023.76L300.91 1024.42L300.14 1024.87L299.31 1025.12L298.52 1025.53L297.95 1026.18L297.53 1027L296.97 1028.92L296.6 1031.01L296.52 1032.09L296.6 1033.14L297.14 1035.26L298.3 1038.42L301.18 1041.9L301.82 1042.54L303.29 1043.63L305.1 1044.34L306.22 1044.92L307.33 1045.67L308.84 1047.13L309.62 1048.16L310.26 1049.49L311.51 1053.48L312.08 1054.83L312.7 1055.87L315 1058.55L320.87 1063.87L328.13 1068.51L329.31 1069.63L331.16 1071.76L331.71 1073.13L331.63 1074.12L331.06 1074.74L325.69 1078.92L323.48 1081.66L322.84 1082.27L322.11 1082.77L321.36 1083.21L320.57 1083.51L319.62 1083.72L318.63 1083.82L316.15 1083.78L315.23 1083.92L313.44 1084.44L312.64 1084.76L311.86 1085.18L311.12 1085.7L310.44 1086.25L309.32 1087.6L305.8 1094.15L305.02 1095.99L304.43 1098.01L303.72 1102.41L303.65 1104.33L305.19 1116.03L305.2 1116.07V1116.06L308.24 1113.88L312.29 1112.35L324.79 1110.57L331.3 1107.38L334.63 1106.3L336.45 1106.21L340.16 1106.44L341.98 1106.3L343.93 1105.51L348.09 1103.03L350.02 1102.49L361.71 1102.14L365.39 1101.38L372.5 1098.16L376.17 1096L377.77 1094.44L379.67 1091.79L398.41 1083.71L401.28 1082.94L404.24 1082.68L406.45 1080.85L407.88 1080.45L408.53 1082.08L409.44 1083.69L411.57 1083.78L415.89 1082.68L420.33 1082.37L422.03 1081.78L423.25 1080.23L425.88 1082.57L430 1082.75L443.36 1080.8L446.06 1079.1L450.33 1074.06L460.82 1065.44L463.12 1064.58L472.41 1058.06L473.9 1060.62L476.88 1059.66L479.79 1057.45L481.11 1056.15L483.26 1056.13L495.82 1053.02L502.26 1049.06L504.68 1046.55L505.62 1043.77L507.02 1041.74L520.22 1030.67L522.42 1029.6L519.69 1019.98L516.85 1013.59L516.04 1012.55L514.9 1011.37L512.42 1009.61L509.61 1008.15L508.64 1007.85L506.86 1007.02L505.31 1005.79L502.65 1001.77L495.98 988.59L487.91 985.44L483.1 984.67L452.77 987.11L448.93 987.08L446.86 986.56L445.94 986.18L428.48 982.37L424.97 982.02L422.94 982.28L420.74 982.77L416.29 983.31L414.67 983.17L413.5 982.78L411.74 981.49L410.35 980.73L407.67 979.84L406.01 979.49L404.72 979.35L389.22 979.57L387.59 979.42L386.45 979.12L386.01 978.79L385.06 977.75L382.44 973.24L376.84 961.07L376.35 960.25L375.5 959.5L370.23 957.53L364.34 954.4L364.13 955.32L363.9 955.65L363.51 956.05L362.28 956.89L361.99 957.75L361.82 958.63L361.59 959.26L361.12 959.18L360.57 958.59L360.02 958.29L359.08 958.5L357.61 959.55L356.77 959.93L355.84 960.23L354.88 960.24L354.11 960.1L353.61 959.18L353.24 958.27L352.96 957.25L352.57 956.43L351.85 955.99L350.64 956.15L349.64 956.4L348.62 956.36L347.66 955.98L346.46 955.07L342.36 953.99L340.91 954.01L339.87 954.29L339.27 954.89L338.46 955.24L337.55 955.42L336.52 955.46L333.11 956.09L332.49 956.77L331.99 957.48L331.44 958.01L329.86 958.27L329.13 958.57L328.31 958.83L326.31 958.78L324.57 959.16L324.22 959.75L324.33 960.48L324.61 961.22L324.69 962.08L323.67 964.5L323.19 965.19L322.43 965.52L321.56 965.44L319.95 964.88L318.31 964.12L315.44 962.43L314.75 961.26L314.69 960.37L315.41 959.93L316.25 959.82L316.97 959.61L317.32 959.04L317.31 958.21L316.89 957.26L316.15 956.26L314.74 954.88L313.68 954.23L310.78 953.7L309.07 953.13L308.09 953.25L307.19 953.46L306.22 953.55L304.29 953.49L302.62 953.99L301.59 954.01L300.15 953.48L297.92 953.36L296.01 953.71L291.96 953.99L289.97 954.39L288.74 954.36L287.83 954.69L286.67 954.76L285.04 954.39L282.33 952.97L280.81 952.37L279.61 951.67L278.75 950.25L277.87 949.38L272.97 947.4L271 947.31L268.48 946.78L267.85 946.22L267.32 945.15L266.7 944.48L262.82 942.52L261.98 941.8L261.68 940.5L261.66 939.59L261.71 938.96L261.93 937.92L262.19 937.11L262.22 936.24L261.86 935.43L259.42 934.32L257.54 934.14L256.69 934.25L256.03 934.59L254.95 935.67L254.28 936.09L253.44 936.4L252.24 936.41L250.78 936.17L248.5 935.06L247.33 935.11L246.55 935.54L246.11 936.29L245.57 936.89L244.72 936.93L243.59 936.6L241.96 935.12L239.04 931.41L238.38 930.75L237.67 930.51L236.89 930.54L235.78 929.59L234.66 927.68L232.11 920.57L231.24 919.02L230.09 918.57L229.17 918.64L227.76 919.15L227.19 919.2Z" fill="#CCCCCC" stroke="white" stroke-width="0.5"/>
<path d="M133.99 445.35L126.76 437.46L122.96 435.42L121.57 435.14L121.03 434.85L120.51 434.07L119.43 434.64L120.28 437.49L128.55 488.37L136.81 539.22L135.58 541.99L127.51 546.76L125.06 547.59L122.99 547.37L120.71 546.29L119.23 546.2L118.08 547.28L116.82 549.7L116.06 552.56L116.5 554.85L118.87 560.08L120.03 564.42L119.87 567.58L118.09 569.93L114.39 571.82L103.67 575.42L100.37 577.78L92.1697 587.27L89.2397 589.75L88.9897 589.16L88.0797 588.13L86.8797 587.34L85.7497 587.47L85.2297 588.8L84.4497 602.34L83.8597 604.34L82.4297 605.89L78.4297 608.31L76.8897 609.78L76.7397 610.69L77.2597 613.04L77.2197 614.02L76.5197 615.21L74.7197 617.41L74.0197 618.6L61.0497 646.49L58.6497 653.83L49.8597 709.35L50.0297 711.47L51.1597 714L52.3597 715.49L53.1597 716.96L53.0297 719.43L51.4397 722.95L43.1997 733.29L42.2897 735.11L40.8097 744.16L39.8997 745.44L30.9997 748.35L30.7997 748.48L30.6797 748.56L30.8497 749.17L32.7097 758.65L33.9297 762.33L35.8197 765.73L36.4497 766.53L37.2597 767.37L38.6297 768.45L39.6997 769.06L40.8297 769.5L43.0697 769.72L44.0797 769.68L45.0097 769.45L51.8097 766.66L53.7497 766.26L55.7197 766.71L58.4197 767.82L63.8697 770.84L66.5197 773.18L68.5297 775.47L72.7997 783.39L73.6897 787.21L76.4697 793.39L76.7697 794.55L76.8497 797.76L77.0197 798.75L77.2897 799.7L77.6497 800.55L78.2097 802.45L78.2497 803.46L78.0597 804.41L76.5997 807.86L76.3397 808.84L76.2097 809.94L76.3997 811.48L76.8497 813.31L78.0597 816.2L78.4997 817.95L78.6797 819.46L78.5897 820.73L79.1497 821.64L79.8697 822.2L80.7497 822.66L85.6097 823.97L87.2897 824.78L94.3097 830.17L95.1297 830.59L97.1097 831.1L99.4297 831.12L106.22 830.56L107.73 830.75L109.4 831.17L111.76 832.32L112.9 833.26L113.6 834.25L114.37 837.88L115.11 839.79L116.06 841.08L116.91 841.91L117.78 842.46L118.66 842.82L122.25 843.87L124.34 844.8L125.43 845.59L126.18 846.43L134.15 863.41L134.99 864.19L136 864.61L137 864.8L141.94 865.05L143 865.25L143.91 865.54L145.91 866.66L148.26 868.37L149.88 869.19L151.28 869.24L151.59 867.49V866.65L151.32 865.72L150.72 865.12L148.85 864.47L148.14 863.97L147.75 863.27L147.78 862.36L148.15 861.57L149.14 860.33L149.16 859.57L148.48 858.26L148.54 857.53L149.93 855.38L150.5 853.48L150.94 852.56L151.58 851.77L152.56 850.94L153.45 848.98L153.95 848.12L154.66 847.39L155.66 846.61L156.83 845L157.47 844.39L158.18 843.86L158.72 843.17L159.41 841.39L159.98 840.61L159.92 839.79L159.66 838.96L158.79 837.42L158.63 836.55L158.82 835.68L159.23 834.91L160.21 833.49L160.35 832.69L160.04 831.95L159.5 831.31L157.18 829.89L156.57 829.28L156.26 828.4L156.01 825.2L155.64 824.36L154.97 823.81L153.3 823.15L152.77 822.51L152.6 821.53L152.69 820.48L153.31 817.43L153.41 816.41L153.6 815.58L154.11 815.06L155.51 815.19L159.97 816.23L162.34 816.45L164.03 816.2L166.04 815.69L169.73 814.25L171.49 813.35L172.68 812.58L173.29 811.93L173.82 811.27L174.71 809.5L175.43 807.5L175.67 806.47L176.98 795.96L177.55 794.05L177.95 793.23L178.5 792.47L179.1 791.84L179.97 791.21L181.02 790.6L182.64 789.92L183.66 789.35L184.33 788.72L184.51 787.92L184.25 787.14L183.76 786.38L183.09 785.72L182.36 785.22L181.46 784.79L179.39 784.22L175.87 783.81L166.78 783.58L160.36 785.41L159.29 785.51L158.32 785.44L157.37 785.03L157.4 784.42L157.6 783.6L157.94 782.66L158.51 781.99L159.25 781.52L160.93 780.75L161.71 780.3L163.77 778.62L164.38 777.98L165.41 776.53L166.74 775.39L167.31 774.73L167.69 773.87L168.14 773.07L168.68 772.41L169.15 771.7L169.36 770.87L169.25 768L169.48 767.13L170.25 765.56L170.45 764.72L170.88 763.98L170.92 761.94L171.19 761.07L171.62 760.3L182.96 747.82L185.16 746.34L186.32 745.98L187.76 745.89L190.34 746.31L191.58 746.95L192.4 747.73L192.74 748.61L193.24 750.46L193.6 751.34L194.13 752.03L195.91 752.27L217.8 751.03L221.27 749.8L226.19 746.99L231.07 743.42L233.51 740.75L237.72 735.07L239.66 733.13L240.9 732.57L242.7 732.1L246.5 731.67L248.42 731.26L249.84 730.83L250.53 730.28L251.03 729.55L252.31 725.91L252.47 724.98L252.02 722.1L252.16 721.11L252.5 720.22L253.89 717.82L254.07 716.96L254.06 716.33L253.55 715.97L244.72 713.75L242.92 713.09L241.43 712.05L236.69 706.9L229.9 701.27L229.19 700.91L228.37 700.85L227.72 700.91L221.03 702.25L220 702.28L219.06 702.03L218.28 701.62L217.58 701.02L213.58 696.34L212.86 695.82L211.95 695.46L210.94 695.26H208.76L206.61 695.47L204.47 695.19L203.55 694.89L202.8 694.54L202.34 694.19L202.21 693.6L202.27 692.71L202.47 691.72L203.18 689.98L203.44 689.08V685.93L203.61 684.89L203.86 684L204.98 682.72L205.42 681.94L205.97 679.98L206.32 679.09L206.76 678.27L207.05 677.31L207.24 676.23L207.51 675.29L208.89 674.74L211.24 674.76L219.71 676.09L222.36 675.78L223.43 675.25L224.93 674.07L226.16 673.8L230.58 673.89L232.06 673.65L233.42 673.56L234.46 673.75L236.46 674.94L237.7 675.33L239.4 675.5L246.11 675.26L247.13 675.05L248.96 674.38L252.91 673.4L254.11 673.34L255.32 673.54L256.8 674.39L257.48 675.36L257.83 676.48L258.27 684.43L258.7 686.48L259.05 687.32L259.55 688.05L261.16 688.89L264.04 689.81L268 692.04L270.12 693.76L271.8 695.76L272.43 696.37L273.33 696.86L274.46 697.04L276.21 696.72L277.4 696.38L281.12 694.95L282.08 694.71L283.18 694.64L284.43 694.78L287.19 696.07L288.63 696.47L290.29 696.59L293.25 696.23L294.68 695.67L295.72 695.01L296.95 693.71L299.74 689.09L301.62 687.22L303.16 686.29L304.08 685.97L305.38 685.82L309.55 685.75L311.31 685.42L313.28 684.73L313.86 683.71L314.09 682.61L313.96 681.52L312.94 677.59L311.56 674.07L311.31 673.14L311.3 672.2L311.55 671.5L311.79 671.07L312.28 670.51L317.58 666.65L324.83 662.32L326.21 661.21L328.4 658.41L334.27 649.01L335.51 647.69L336.18 647.12L337.73 646.24L338.64 645.87L339.55 645.6L340.54 645.45L341.83 645.65L343.45 646.21L346.02 647.79L347.25 648.85L348.11 649.81L348.94 651.42L350.24 655.02L350.56 656.93L350.94 665.72L351.36 667.47L352.03 669.16L352.45 669.96L353.48 671.42L354.44 672.55L355.41 673.37L356.81 673.86L358.83 674.38L363.03 674.93L366.91 675.04L370.89 674.43L374.36 674.45L375.38 674.24L376.38 673.9L377.21 673.54L378.13 673.25L380.08 672.97L381.06 672.68L382.2 672.46L383.86 672.38L386.56 671.8L388.59 671.66L391.93 670.81L392.65 670.29L393.15 669.56L393.82 667.69L394.25 666.86L394.79 666.18L396.07 664.97L398.32 663.46L398.88 662.81L399.87 661.31L400.41 660.67L401.55 660.31L403.14 660.32L408.28 661.05L409.18 661.42L410.77 663.07L411.66 663.54L413.06 663.53L415.25 663.08L416.17 663.04L417.06 663.33L418.44 665.1L419.24 665.8L420.16 666.2L421.86 666.18L424.24 665.92L426.29 666.04L427.17 665.92L428.42 664.86L429.3 664.43L430.52 664.27L432.1 664.31L433.28 664.19L434.43 664.36L436.32 665.48L437.92 666.17L440.39 666.8L441.72 666.95L442.66 667.32L442.93 668.01L443.46 668.66L444.21 668.94L445.28 668.6L446.01 668L446.62 667.25L447.47 665.56L447.94 665.05L448.64 664.9L449.76 665.83L451.07 666.04L452.08 665.89L454.74 663.5L456.33 662.62L460 661.36L460.82 660.94L461.51 660.43L462.95 660.69L465.04 661.89L469.39 665.56L472.52 668.81L476.64 675.53L479.85 683.34L481.69 686.42L482.85 687.71L483.98 688.49L485.54 689.29L491.03 691.01L509.77 694.33L535.1 703.66L536.07 704.11L537.07 704.73L540.57 709.22L548.56 723.44L593.96 725.21L595.96 725.71L597.77 726.41L601.71 728.45L603.83 729.3L605.33 729.58L606.58 729.55L607.58 729.32L610.2 728.24L613.44 726.29L616.2 725.11L617.48 725L618.68 725.07L627.12 728.06L626.29 722.38V721.33L626.51 719.21L629.54 709.62L630.27 704.11L630.3 701.72L629.49 696.33L628.82 695.2L627.79 693.97L625.53 692.04L624.11 691.16L622.89 690.54L617.98 689.16L611.35 685.82L610.56 685L609.84 683.85L609.06 681.68L608.73 680.17L608.17 669.4L607.92 668.39L605.8 663.15L593.96 642.75L589.66 630.84L589.41 628.54L588.74 626.69L587.74 625.33L585.62 623.99L584.29 623.52L580.26 622.91L578.34 622.45L576.56 621.7L574.91 620.42L573.47 618.9L569.07 611.87L568.63 610.91L568.05 609.08L567.28 602.56L566.79 600.62L559.06 582.43L556.96 579.09L554.83 576.53L529.81 556.36L526.27 554.64L516.03 551.92L514.12 552.56L510.89 552.75L503.55 551.62L500.23 550.46L490.25 544.62L471.65 529.51L471.12 528.8L470.52 528.14L469.97 527.43L469.36 526.8L467.29 523.97L464.34 520.84L462.96 519.75L462.12 519.35L461.13 519.04L459.97 518.84L455.92 519.11L451.91 519.88L450.1 519.99L447.82 519.85L444.36 519.28L442.12 519.15L441.1 519.25L440.3 519.39L439.73 519.6L439.19 519.91L438.59 520.36L437.42 521.64L435.17 524.63L433.98 525.91L432.68 527.08L431.91 527.53L431.08 527.92L428.47 528.75L426.75 529.54L425.12 530.49L423.61 531.71L423.08 532.29L422.57 532.99L422.12 533.75L419.27 541.32L418.4 542.93L417.25 544.3L414.6 546.75L413.16 547.76L412.31 548.13L406.57 549.52L404.93 550.18L404.13 550.66L403.46 551.25L402.92 552.06L402.5 552.86L402.16 553.8L401.95 554.83L401.81 555.97V557.14L402.16 559.13L402.91 560.74L404.82 563.81L405.51 565.42L405.76 566.34L405.95 567.31L406.01 571.69L405.85 572.84L405.57 573.9L405.02 574.77L404.24 575.42L403.37 575.84L402.64 576.31L402.08 576.74L401.75 577.14L400.21 580.17L399.13 581.61L398.22 583.16L397.63 583.62L396.75 583.44L395.4 582.47L394.19 581.79L392.34 581.28L391.05 580.54L390.04 578.89L370.91 525.16L369.02 521.91L366.57 518.7L361.65 515.46L359.81 513.74L358.87 512.45L359.11 511.52L359.51 510.67L359.99 509.91L361.12 508.46L362.37 507.22L363.08 506.69L364.37 505.49L364.91 504.87L365.47 504.12L365.88 503.31L366.19 502.33L366.35 501.25L366.47 495.29L366.66 494.23L366.94 493.28L367.8 491.6L368.86 490.19L378.06 481.86L379.12 480.58L380.99 477.07L381.64 475.23L381.8 474.21V473.22L381.71 472.35L381 469.44L378.37 463.37L377.5 459.36L376.53 456.6L375.58 455.91L374.06 455.47H370.25L367.51 455.23L363.67 454.45L360.57 453.45L359.05 452.65L350.1 446.61L347.46 444.4L345.83 442.62L345.14 442.06L343.89 440.82L343.18 440.27L341.52 439.47L339.47 438.93L337.25 438.8L327.6 439.17L323.21 439.79L320.29 441.69L319.64 442.3L319.06 442.99L318.59 443.78L318.2 444.66L317.93 445.6L316.9 450.93L316.49 451.8L315.91 452.46L315.19 453.01L313.63 453.9L310.19 455.4L308.14 455.86L303.74 456.31L301.92 456.23L291.27 454.13L289.86 454.14L287.63 454.78L286.38 455.36L285.44 456.06L284.94 456.78L284.52 457.62L283.93 459.49L283.48 460.36L282.93 461.04L281.66 462.12L279.36 462.71L274.09 465.07L260.71 460.78L253.39 463.96L251.05 467.04L249.53 470.58L248.73 474.38L248.49 478.27L248.99 489.18L248.49 492.59L247.72 494.7L246.75 496.47L244.25 499.46L243.35 501.18L243.69 502.78L244.48 504.26L244.92 505.66L245.27 508.99L246.26 512.09L247.77 514.62L249.71 516.25L256.53 517.4L263.41 516.83L269 518.14L272 524.92L272.12 528.19L271.5 531.4L269.7 533.86L266.32 534.84L262.45 533.98L255.29 530.44L250.94 529.99L247.21 531.8L244.26 535.18L242.04 538.44L240.51 539.9L237.56 544.86L236.41 546.02L235.66 546.52L218.54 550.04L210.73 550.18L204.23 548.58L201.12 545.6L196.48 537.78L190.98 534.9L185.92 528.57L183.38 526.17L180.64 524.63L178.26 522.88L176.56 520.46L175.14 509.07L173.46 502.62L171.29 498.63L171.01 496.98L170.24 495.46L166.87 494.36L166.1 493.2L164.98 490.5L162.8 487.8L161.35 484.84L162.42 481.43L159.18 475.1L158.75 473.25L157.77 471.71L153.48 469.08L152.5 467.11L150.97 462.97L144.23 457.74L139.01 447.83L136.56 445.35L135.82 445.06L134.88 445L134.14 445.12L133.99 445.35Z" fill="#CCCCCC" stroke="white" stroke-width="0.5"/>
<path d="M366.91 675.04L363.03 674.93L358.83 674.38L356.81 673.86L355.41 673.37L354.44 672.55L353.48 671.42L352.45 669.96L352.03 669.16L351.36 667.47L350.94 665.72L350.56 656.93L350.24 655.02L348.94 651.42L348.11 649.81L347.25 648.85L346.02 647.79L343.45 646.21L341.83 645.65L340.54 645.45L339.55 645.6L338.64 645.87L337.73 646.24L336.18 647.12L335.51 647.69L334.27 649.01L328.4 658.41L326.21 661.21L324.83 662.32L317.58 666.65L312.28 670.51L311.79 671.07L311.55 671.5L311.3 672.2L311.31 673.14L311.56 674.07L312.94 677.59L313.96 681.52L314.09 682.61L313.86 683.71L313.28 684.73L311.31 685.42L309.55 685.75L305.38 685.82L304.08 685.97L303.16 686.29L301.62 687.22L299.74 689.09L296.95 693.71L295.72 695.01L294.68 695.67L293.25 696.23L290.29 696.59L288.63 696.47L287.19 696.07L284.43 694.78L283.18 694.64L282.08 694.71L281.12 694.95L277.4 696.38L276.21 696.72L274.46 697.04L273.33 696.86L272.43 696.37L271.8 695.76L270.12 693.76L268 692.04L264.04 689.81L261.16 688.89L259.55 688.05L259.05 687.32L258.7 686.48L258.27 684.43L257.83 676.48L257.48 675.36L256.8 674.39L255.32 673.54L254.11 673.34L252.91 673.4L248.96 674.38L247.13 675.05L246.11 675.26L239.4 675.5L237.7 675.33L236.46 674.94L234.46 673.75L233.42 673.56L232.06 673.65L230.58 673.89L226.16 673.8L224.93 674.07L223.43 675.25L222.36 675.78L219.71 676.09L211.24 674.76L208.89 674.74L207.51 675.29L207.24 676.23L207.05 677.31L206.76 678.27L206.32 679.09L205.97 679.98L205.42 681.94L204.98 682.72L203.86 684L203.61 684.89L203.44 685.93V689.08L203.18 689.98L202.47 691.72L202.27 692.71L202.21 693.6L202.34 694.19L202.8 694.54L203.55 694.89L204.47 695.19L206.61 695.47L208.76 695.26H210.94L211.95 695.46L212.86 695.82L213.58 696.34L217.58 701.02L218.28 701.62L219.06 702.03L220 702.28L221.03 702.25L227.72 700.91L228.37 700.85L229.19 700.91L229.9 701.27L236.69 706.9L241.43 712.05L242.92 713.09L244.72 713.75L253.55 715.97L254.06 716.33L254.07 716.96L253.89 717.82L252.5 720.22L252.16 721.11L252.02 722.1L252.47 724.98L252.31 725.91L251.03 729.55L250.53 730.28L249.84 730.83L248.42 731.26L246.5 731.67L242.7 732.1L240.9 732.57L239.66 733.13L237.72 735.07L233.51 740.75L231.07 743.42L226.19 746.99L221.27 749.8L217.8 751.03L195.91 752.27L194.13 752.03L193.6 751.34L193.24 750.46L192.74 748.61L192.4 747.73L191.58 746.95L190.34 746.31L187.76 745.89L186.32 745.98L185.16 746.34L182.96 747.82L171.62 760.3L171.19 761.07L170.92 761.94L170.88 763.98L170.45 764.72L170.25 765.56L169.48 767.13L169.25 768L169.36 770.87L169.15 771.7L168.68 772.41L168.14 773.07L167.69 773.87L167.31 774.73L166.74 775.39L165.41 776.53L164.38 777.98L163.77 778.62L161.71 780.3L160.93 780.75L159.25 781.52L158.51 781.99L157.94 782.66L157.6 783.6L157.4 784.42L157.37 785.03L158.32 785.44L159.29 785.51L160.36 785.41L166.78 783.58L175.87 783.81L179.39 784.22L181.46 784.79L182.36 785.22L183.09 785.72L183.76 786.38L184.25 787.14L184.51 787.92L184.33 788.72L183.66 789.35L182.64 789.92L181.02 790.6L179.97 791.21L179.1 791.84L178.5 792.47L177.95 793.23L177.55 794.05L176.98 795.96L175.67 806.47L175.43 807.5L174.71 809.5L173.82 811.27L173.29 811.93L172.68 812.58L171.49 813.35L169.73 814.25L166.04 815.69L164.03 816.2L162.34 816.45L159.97 816.23L155.51 815.19L154.11 815.06L153.6 815.58L153.41 816.41L153.31 817.43L152.69 820.48L152.6 821.53L152.77 822.51L153.3 823.15L154.97 823.81L155.64 824.36L156.01 825.2L156.26 828.4L156.57 829.28L157.18 829.89L159.5 831.31L160.04 831.95L160.35 832.69L160.21 833.49L159.23 834.91L158.82 835.68L158.63 836.55L158.79 837.42L159.66 838.96L159.92 839.79L159.98 840.61L159.41 841.39L158.72 843.17L158.18 843.86L157.47 844.39L156.83 845L155.66 846.61L154.66 847.39L153.95 848.12L153.45 848.98L152.56 850.94L151.58 851.77L150.94 852.56L150.5 853.48L149.93 855.38L148.54 857.53L148.48 858.26L149.16 859.57L149.14 860.33L148.15 861.57L147.78 862.36L147.75 863.27L148.14 863.97L148.85 864.47L150.72 865.12L151.32 865.72L151.59 866.65V867.49L151.28 869.24L150.73 873.56L151.16 874.01L152.14 874.65L153.74 874.84L155.02 874.85L156.15 874.74L157.1 874.46L158.72 873.67L159.4 873.2L161.72 870.95L162.29 870.07L163.15 868.26L163.82 866.38L164.32 864.4L166.14 851.78L166.6 850.34L167.57 848.26L168.53 847.39L169.52 846.92L170.58 846.97L171.49 847.24L173.23 848.02L178.76 851.43L179.88 851.69H181.25L185.1 850.37L186.52 850.15L187.94 850.38L188.8 850.93L189.31 851.57L189.54 852.29L189.67 852.89L189.76 853.83V854.81L186.33 865.01L186.08 867.24L186.13 868.34L186.35 869.27L186.81 870.08L188.43 870.88L201.6 873.94L202.47 874.33L203.21 874.85L203.85 875.46L205.27 877.7L205.63 878.58L206.42 881.48L206.82 882.51L207.37 883.57L208.48 884.83L209.59 885.32L210.97 885.52L215.14 885.34L223.44 885.73L225.59 887.01L225.96 888.28L226.09 889.11L225.99 890.05L225.73 890.93L224.92 892.63L224.63 893.61L224.56 894.77L224.84 897.39L224.67 898.43L224.31 899.24L223.7 899.87L223.17 900.79L222.79 901.94L225.44 915.95L226.26 918.11L227.19 919.2L227.76 919.15L229.17 918.64L230.09 918.57L231.24 919.02L232.11 920.57L234.66 927.68L235.78 929.59L236.89 930.54L237.67 930.51L238.38 930.75L239.04 931.41L241.96 935.12L243.59 936.6L244.72 936.93L245.57 936.89L246.11 936.29L246.55 935.54L247.33 935.11L248.5 935.06L250.78 936.17L252.24 936.41L253.44 936.4L254.28 936.09L254.95 935.67L256.03 934.59L256.69 934.25L257.54 934.14L259.42 934.32L261.86 935.43L262.22 936.24L262.19 937.11L261.93 937.92L261.71 938.96L261.66 939.59L261.68 940.5L261.98 941.8L262.82 942.52L266.7 944.48L267.32 945.15L267.85 946.22L268.48 946.78L271 947.31L272.97 947.4L277.87 949.38L278.75 950.25L279.61 951.67L280.81 952.37L282.33 952.97L285.04 954.39L286.67 954.76L287.83 954.69L288.74 954.36L289.97 954.39L291.96 953.99L296.01 953.71L297.92 953.36L300.15 953.48L301.59 954.01L302.62 953.99L304.29 953.49L306.22 953.55L307.19 953.46L308.09 953.25L309.07 953.13L310.78 953.7L313.68 954.23L314.74 954.88L316.15 956.26L316.89 957.26L317.31 958.21L317.32 959.04L316.97 959.61L316.25 959.82L315.41 959.93L314.69 960.37L314.75 961.26L315.44 962.43L318.31 964.12L319.95 964.88L321.56 965.44L322.43 965.52L323.19 965.19L323.67 964.5L324.69 962.08L324.61 961.22L324.33 960.48L324.22 959.75L324.57 959.16L326.31 958.78L328.31 958.83L329.13 958.57L329.86 958.27L331.44 958.01L331.99 957.48L332.49 956.77L333.11 956.09L336.52 955.46L337.55 955.42L338.46 955.24L339.27 954.89L339.87 954.29L340.91 954.01L342.36 953.99L346.46 955.07L347.66 955.98L348.62 956.36L349.64 956.4L350.64 956.15L351.85 955.99L352.57 956.43L352.96 957.25L353.24 958.27L353.61 959.18L354.11 960.1L354.88 960.24L355.84 960.23L356.77 959.93L357.61 959.55L359.08 958.5L360.02 958.29L360.57 958.59L361.12 959.18L361.59 959.26L361.82 958.63L361.99 957.75L362.28 956.89L363.51 956.05L363.9 955.65L364.13 955.32L364.34 954.4L367.6 947.98L367.53 945.54L366.97 944.89L366.33 944.47L365.45 944.42L364.69 944.56L364.04 944.54L363.68 943.99L363.62 943.23L363.86 942.39L364.96 940.02L365.19 939.04V938.89L365.36 937.64L366.72 933.89L368.25 931.34L368.76 930.19L370.01 926.21L370.2 925.14L370.5 924.13L371.11 923.42L373.33 922.79L374 922.17L374.06 921.05L373.6 920.32L372.84 919.8L372.06 919.57L371.64 918.99L371.76 917.24L371.48 916.51L371.35 915.71L371.79 914.72L373.82 911.27L374.25 909.85L374.59 907.63V906.52L374.48 905.49L374.16 904.58L373.69 903.84L373.14 903.18L372.86 902.61L373.22 901.88L377.24 899.58L378.63 898.5L379.37 897.66L380.16 896.57L381.15 894.55L381.62 893.16L382.03 890.7L384.12 882.81L386.85 875.58L394.55 863.45L417.84 839.3L418.7 838.11L419.13 837.3L420.14 835.85L425.18 830.83L426.33 829.38L426.97 828.21L427.03 827.59L426.98 826.64L426.51 824.72L425.71 823.07L424.74 821.59L424.16 820.91L423.53 820.32L419.33 817.07L418.07 815.83L416.97 814.43L416.06 812.89L415.72 812.02L415.52 811.04L415.46 809.98L415.56 808.91L416.05 806.95L416.75 805.17L417.91 804.03L419.74 802.73L424.1 800.65L428.03 799.19L440.99 797.37L441.91 797.06L443.06 796.34L444.54 795.07L476.82 749.83L478.84 748.08L481.57 747.51L505.57 747.06L507.27 746.55L509.24 744.36L509.81 743.46L511.04 742.2L512.39 741.4L514.4 740.52L523.33 737.52L525.48 736.22L527.69 734.39L528.83 733.24L532.38 728.75L533.63 727.52L535.01 726.44L538.24 725.29L548.56 723.44L540.57 709.22L537.07 704.73L536.07 704.11L535.1 703.66L509.77 694.33L491.03 691.01L485.54 689.29L483.98 688.49L482.85 687.71L481.69 686.42L479.85 683.34L476.64 675.53L472.52 668.81L469.39 665.56L465.04 661.89L462.95 660.69L461.51 660.43L460.82 660.94L460 661.36L456.33 662.62L454.74 663.5L452.08 665.89L451.07 666.04L449.76 665.83L448.64 664.9L447.94 665.05L447.47 665.56L446.62 667.25L446.01 668L445.28 668.6L444.21 668.94L443.46 668.66L442.93 668.01L442.66 667.32L441.72 666.95L440.39 666.8L437.92 666.17L436.32 665.48L434.43 664.36L433.28 664.19L432.1 664.31L430.52 664.27L429.3 664.43L428.42 664.86L427.17 665.92L426.29 666.04L424.24 665.92L421.86 666.18L420.16 666.2L419.24 665.8L418.44 665.1L417.06 663.33L416.17 663.04L415.25 663.08L413.06 663.53L411.66 663.54L410.77 663.07L409.18 661.42L408.28 661.05L403.14 660.32L401.55 660.31L400.41 660.67L399.87 661.31L398.88 662.81L398.32 663.46L396.07 664.97L394.79 666.18L394.25 666.86L393.82 667.69L393.15 669.56L392.65 670.29L391.93 670.81L388.59 671.66L386.56 671.8L383.86 672.38L382.2 672.46L381.06 672.68L380.08 672.97L378.13 673.25L377.21 673.54L376.38 673.9L375.38 674.24L374.36 674.45L370.89 674.43L366.91 675.04Z" fill="#CCCCCC" stroke="white" stroke-width="0.5"/>
<path d="M331.28 27.54L329.04 26.66L306.34 25.95L303.22 26.94L301.93 30.15L299.83 31.34L271.92 31.62L232.62 32.01L192.21 32.41L148.77 32.84L113.71 33.2L96.8595 33.37L92.9195 33.41L92.8495 31.47L77.3595 31.18L77.6095 32.24L77.1195 33.54L78.1895 37.04L80.1595 40.28L81.2395 43.78L80.2295 47.97L77.8095 50.65L74.9495 52.85L72.5295 55.65L71.2095 59.46L69.2195 67.94L66.1995 72.89L65.5495 77.06L64.5695 78.8L62.6495 80.71L62.0995 81.8L62.5295 83.65L62.7095 84.47H63.0695L63.8395 84.62L64.6695 85.02L65.1895 85.83V87.01L64.7895 87.82L64.2895 88.52L63.1895 91.51L60.7795 95.88L60.2695 97.69L61.0295 101.18L66.4195 110.79L66.8495 112.59L67.1495 116.48L67.6295 118.27L68.4595 119.34L70.8895 121.77L71.4195 122.63L71.9695 126.2L73.3695 128.51L79.6795 134.09L81.8895 135.23L84.8095 135.72L89.1995 135.83L89.8995 136.62L89.1195 138.33L87.4795 140.05L85.5095 140.83L83.1795 141.01L81.4395 141.64L80.0595 142.76L78.7795 144.45L77.5495 147.12L76.6495 150.85V154.68L78.1095 157.65L79.6795 158.34L81.5195 158.55L83.0495 158.93L83.6895 160.15L84.1295 162.23L85.2895 162.66L86.8595 162.61L88.5895 163.27L90.3795 164.38L91.5495 164.93L92.1595 165.9L92.2595 168.25L91.6695 170.67L90.3295 172.28L86.6995 175.15L84.3495 178.91L84.2595 182.54L86.1395 190.78V196.64V206.41L87.0195 210.11L91.0995 216.26L92.2595 219.54L92.0495 224.21L90.3795 232.49L91.1595 237.09L95.4295 244.01L95.9395 245.79L94.7995 247.65L88.5895 254.62L85.5795 260.71L84.9095 264.53L86.1395 268.31L87.6095 269.95L88.5895 270.12L89.5895 270.01L91.1595 270.8L92.0695 272.27L92.2895 273.94L92.8695 275.61L94.2395 276.67L114.56 273.87L115.84 273.37L117.33 272.36L118.82 270.65L119.67 269.46L120.7 267.7L121.25 266.96L122.11 266.33L123.27 265.76L126.53 265L127.77 264.5L128.71 263.77L129.62 262.27L130.74 258.89L131.17 258.04L132.16 256.59L132.83 255.98L133.91 255.33L135.36 254.67L138.12 253.88L140.81 253.39L149.75 253.26L151.9 252.94L168.54 247.76L169.56 247.65L185.51 248.84L186.61 248.72L192.4 247.01L194.53 246.7L196.95 246.65L201.69 247.01L203.8 247.49L208.16 248.09L214.96 247.85L238.34 242.63L249.99 243.38L252.26 243.18L255.14 242.63H255.83L265.85 243.91L270.21 243.79L271.31 243.18L272.37 242.15L273.86 239.56L275.02 238.09L276.65 236.9L280.84 235.64L281.7 235.22L282.35 234.47L282.94 233.29L283.3 231.29L283.98 229.29L284.24 227.78L284.3 226.53L284.12 225.46L283.83 224.51L282.34 222.27L282.07 221.43L282.01 220.49L282.08 219.56L281.83 216.46L281.96 215.4L282.69 213.46V213.44L283.07 212.61L283.62 211.83L284.44 211.12L285.9 210.42L287.05 210.11L289.45 208.72L290.45 208.67L291.52 208.75L292.54 208.96L293.62 208.93L294.58 208.53L295.21 207.77L295.39 206.34L294.86 205.61L294 205.1L290.98 204.35L290.51 203.9L290.71 203.34L291.83 202.92L294.08 202.53L294.96 202.27L295.84 202.1L296.73 202.27L298.49 202.94L299.58 203.09L300.64 203.11L301.5 203.06L302.28 202.83L304.57 201.64L306.47 200.94L307.19 200.3L307.65 199.24L306.91 197.92L305.55 196.45L291.86 184.23L290.73 182.9L290.78 181.71L291.3 180.47L294.21 175.16L294.61 173.91L294.8 172.82L295.26 165.74L295.72 163.59L296.07 162.61L297.07 160.67L298.8 158.25L301.03 155.97L308.23 150.62L310.76 148.1L311.87 146.63L315.44 139.85L317.85 136.72L318.49 136.18L319.33 135.7L320.67 135.32L321.9 135.17L323.13 135.15L325.53 135.4L329.39 136.94L335.88 140.34L341.66 142.2L342.91 141.04L343.12 140.01L343.4 137.01L342.97 133.32L342.03 130.1L341.25 128.56L340.41 127.55L338.71 126.77L337.72 126.66L336.83 126.84L336.06 127.3L334.35 129.32L333.76 129.83L333.26 130.06H332.84L332.42 129.76L330.59 128.09L329.06 127.22L327.67 126.16L327.06 125.51L326.63 124.7L326.04 122.78L325.89 121.73L326.23 120.02L326.32 118.85L325.85 117.62L325.19 116.98L322.68 115.69L321.7 115.45L319.57 115.19L318.71 114.84L318.14 114.29L317.39 113.29L316.87 112.76L316.22 112.26L315.34 111.89L314.66 111.32L314.23 110.5L313.89 109.58L313.49 108.73L312.9 108.06L312.05 107.67L310.94 107.54L309.87 107.5L308.8 107.31L308.09 106.8L307.56 106.06L306.88 104.25L306.45 103.43L306.09 102.54L305.82 101.57L304.79 95.12L304.47 94.18L303.69 92.53L303.51 91.28L303.45 89.6L304.36 84.43L304.89 82.64L305.55 81.15L307.22 79.21L308.41 78.27L309.49 77.65L311.22 76.86L312.21 76.12L314.76 73.08L317.25 70.83L317.52 70.07L317.68 68.99L317.76 66.66L318.09 65.06L319.41 63.26L322.11 61.29L322.73 60.64L323.54 60.18L324.49 59.86L325.33 59.12L325.98 57.9L326.06 50.26L325.8 49.22L325.71 48.18L325.95 47.17L326.66 45.83L327.05 44.33L327.12 41.87L326.8 39.04L327.74 35.45L331.28 27.54Z" fill="#CCCCCC" stroke="white" stroke-width="0.5"/>
<path d="M532.769 1L532.269 3.96L532.979 5.67L533.379 7.32L531.969 10.04L529.699 12.27L520.689 18.89L517.459 15.01L514.059 12.25H510.589L507.139 16.65L506.309 19.31L505.909 23.46L504.929 25.4L502.809 27.14L498.079 29.39L496.399 31.49V31.51L495.949 31.98L495.409 32.38L494.829 32.7L494.199 32.9L487.199 32.66L483.469 33.06L480.889 34.03L479.229 37.08L477.919 41.57L476.099 45.7L472.949 47.66L464.329 39.31L464.869 38.03L466.209 36.58L466.979 35.12L465.919 33.84L464.249 33.68L462.989 34.15L462.189 33.98L461.949 31.91L460.689 31.89L440.229 31.51V31.47L439.299 30.16L438.289 29.75L437.229 30.2L436.199 31.47L432.359 32.11L428.339 36.56L425.209 37L426.409 34.5L424.529 34.57L423.609 33.99L422.359 31.51L420.999 30.56L419.479 30.25L394.719 28.28L389.619 29.07L388.039 31.85L366.389 31.65L343.539 31.42L339.039 30.59L333.079 28.25L331.279 27.54L327.739 35.45L326.799 39.04L327.119 41.87L327.049 44.33L326.659 45.83L325.949 47.17L325.709 48.18L325.799 49.22L326.059 50.26L325.979 57.9L325.329 59.12L324.489 59.86L323.539 60.18L322.729 60.64L322.109 61.29L319.409 63.26L318.089 65.06L317.759 66.66L317.679 68.99L317.519 70.07L317.249 70.83L314.759 73.08L312.209 76.12L311.219 76.86L309.489 77.65L308.409 78.27L307.219 79.21L305.549 81.15L304.889 82.64L304.359 84.43L303.449 89.6L303.509 91.28L303.689 92.53L304.469 94.18L304.789 95.12L305.819 101.57L306.089 102.54L306.449 103.43L306.879 104.25L307.559 106.06L308.089 106.8L308.799 107.31L309.869 107.5L310.939 107.54L312.049 107.67L312.899 108.06L313.489 108.73L313.889 109.58L314.229 110.5L314.659 111.32L315.339 111.89L316.219 112.26L316.869 112.76L317.389 113.29L318.139 114.29L318.709 114.84L319.569 115.19L321.699 115.45L322.679 115.69L325.189 116.98L325.849 117.62L326.319 118.85L326.229 120.02L325.889 121.73L326.039 122.78L326.629 124.7L327.059 125.51L327.669 126.16L329.059 127.22L330.589 128.09L332.419 129.76L332.839 130.06H333.259L333.759 129.83L334.349 129.32L336.059 127.3L336.829 126.84L337.719 126.66L338.709 126.77L340.409 127.55L341.249 128.56L342.029 130.1L342.969 133.32L343.399 137.01L343.119 140.01L342.909 141.04L341.659 142.2L341.959 143.83L342.549 145.54L343.029 146.32L343.639 146.95L344.399 147.45L345.229 147.9L345.939 148.44L346.539 149.1L347.219 150.9L347.659 151.7L348.339 152.27L349.289 152.54L350.319 152.67L351.279 152.94L352.089 153.37L352.819 153.92L356.019 155.7L356.919 156.05L358.019 156.22L360.889 156.11L362.089 156.24L362.929 156.73L363.349 157.54L363.689 158.45L364.499 158.95L365.619 159L368.039 157.62L369.199 156.61L369.979 155.52L370.249 154.51L370.409 153.41L370.439 152.23L370.229 149.99L368.919 143.85L368.859 142.78L368.909 141.77L369.139 140.81L369.509 139.93L370.499 138.43L371.779 137.2L377.989 134.15L379.359 132.98L380.199 131.84L380.969 128.8L381.769 127.05L382.279 126.32L382.899 125.65L383.549 125.06L385.059 124.09L403.889 117.07L405.969 116.57L407.309 116.48L409.249 116.73L411.659 117.41L413.959 117.67L414.999 117.9L415.829 118.34L416.579 118.86L417.719 119.26L419.329 119.43L422.049 119.35L423.149 119.81L423.389 120.48L422.999 121.17L422.109 122.16L422.069 122.19L422.029 122.24L419.889 124.38L419.469 125.06L419.479 125.82L420.189 126.19L421.369 126.02L423.259 125.06L425.219 123.56L425.759 122.93L426.619 122.21L426.639 122.19L433.739 115.73L434.239 114.97L434.639 114.09L435.289 112.22L435.779 111.5L436.599 110.56L436.989 109.99L437.269 109.2L437.449 107.2L437.699 106.23L438.489 105.5L439.679 104.87L441.649 104.08L442.769 103.36L443.599 102.55L443.989 101.64L444.399 98.24L444.729 97.28L445.869 96.68L447.689 96.38L458.469 96.63L460.009 97.09L461.079 97.7L461.539 98.51L461.799 99.4L461.709 100.36L461.329 101.14L460.739 101.74L460.349 102.42L460.189 103.24L460.349 104.16L460.779 104.91L461.449 105.51L462.189 106.02L462.869 106.6L463.369 107.36L463.669 108.3L463.859 109.34L463.829 110.46L463.659 111.5L463.369 112.49L462.999 113.38L462.449 114.1L460.589 116.01L460.229 116.84L460.149 117.76L460.489 118.57L461.139 118.95L461.909 118.84L463.469 117.62L464.439 117.86L465.139 118.42L466.019 118.84L467.079 118.78L468.709 117.67L469.579 116.76L470.729 115.02L471.579 114.43L472.749 114.02L478.609 113.97L481.289 114.91L482.329 114.82L483.429 114.4L485.689 112.59L486.799 111.98L487.989 111.65L489.969 111.67L491.099 112.06L491.959 112.63L492.739 113.01L493.789 112.91L494.859 112.43L496.079 111.22L496.709 110.29L497.089 109.38L498.179 103.78L498.539 102.86L498.969 102.03L499.509 101.3L500.239 100.77L501.129 100.56L502.339 100.93L503.099 101.55L504.409 102.88L505.209 103.31L506.229 103.54L509.479 103.82L510.689 103.78L515.079 102.59L523.369 98.88L524.859 98.69L526.219 97.79L528.559 97.01L546.909 93.09L555.599 92.38L566.969 86.5L570.429 85.65L570.509 85.63L571.129 83.05L572.079 75.4L573.449 72.22L575.979 68.98L579.649 66.48L581.199 64.99L581.529 63.05L580.609 59.46L580.469 57.68L584.359 39.31L585.229 37.59L586.669 36.07L588.249 35.06L589.499 33.81L589.929 31.51L590.439 25.03L589.869 19.37L587.159 15.08L581.159 12.78L577.779 12.84L571.679 14.46L568.389 14.8L565.089 13.95L561.439 11.91L558.459 9.14L557.119 6.12L532.769 1Z" fill="#CCCCCC" stroke="white" stroke-width="0.5"/>
<path d="M619.26 141.55L618.74 140.91L609.59 123.76L606.74 120.72L597.24 114.71L595.76 112.92L593.66 108.86L592.24 107.15L590.61 106.14L584.99 104.27L583.37 103.16L582.25 102.06L580.97 101.2L576.82 100.67L574.68 100.11L572.71 99.16L571.13 97.84L569.29 94.06L569.41 90.25L570.51 85.63L570.43 85.65L566.97 86.5L555.6 92.38L546.91 93.09L528.56 97.01L526.22 97.79L524.86 98.69L523.37 98.88L515.08 102.59L510.69 103.78L509.48 103.82L506.23 103.54L505.21 103.31L504.41 102.88L503.1 101.55L502.34 100.93L501.13 100.56L500.24 100.77L499.51 101.3L498.97 102.03L498.54 102.86L498.18 103.78L497.09 109.38L496.71 110.29L496.08 111.22L494.86 112.43L493.79 112.91L492.74 113.01L491.96 112.63L491.1 112.06L489.97 111.67L487.99 111.65L486.8 111.98L485.69 112.59L483.43 114.4L482.33 114.82L481.29 114.91L478.61 113.97L472.75 114.02L471.58 114.43L470.73 115.02L469.58 116.76L468.71 117.67L467.08 118.78L466.02 118.84L465.14 118.42L464.44 117.86L463.47 117.62L461.91 118.84L461.14 118.95L460.49 118.57L460.15 117.76L460.23 116.84L460.59 116.01L462.45 114.1L463 113.38L463.37 112.49L463.66 111.5L463.83 110.46L463.86 109.34L463.67 108.3L463.37 107.36L462.87 106.6L462.19 106.02L461.45 105.51L460.78 104.91L460.35 104.16L460.19 103.24L460.35 102.42L460.74 101.74L461.33 101.14L461.71 100.36L461.8 99.4L461.54 98.51L461.08 97.7L460.01 97.09L458.47 96.63L447.69 96.38L445.87 96.68L444.73 97.28L444.4 98.24L443.99 101.64L443.6 102.55L442.77 103.36L441.65 104.08L439.68 104.87L438.49 105.5L437.7 106.23L437.45 107.2L437.27 109.2L436.99 109.99L436.6 110.56L435.78 111.5L435.29 112.22L434.64 114.09L434.24 114.97L433.74 115.73L426.64 122.19L426.62 122.21L425.76 122.93L425.22 123.56L423.26 125.06L421.37 126.02L420.19 126.19L419.48 125.82L419.47 125.06L419.89 124.38L422.03 122.24L422.07 122.19L422.11 122.16L423 121.17L423.39 120.48L423.15 119.81L422.05 119.35L419.33 119.43L417.72 119.26L416.58 118.86L415.83 118.34L415 117.9L413.96 117.67L411.66 117.41L409.25 116.73L407.31 116.48L405.97 116.57L403.89 117.07L385.06 124.09L383.55 125.06L382.9 125.65L382.28 126.32L381.77 127.05L380.97 128.8L380.2 131.84L379.36 132.98L377.99 134.15L371.78 137.2L370.5 138.43L369.51 139.93L369.14 140.81L368.91 141.77L368.86 142.78L368.92 143.85L370.23 149.99L370.44 152.23L370.41 153.41L370.25 154.51L369.98 155.52L369.2 156.61L368.04 157.62L365.62 159L364.5 158.95L363.69 158.45L363.35 157.54L362.93 156.73L362.09 156.24L360.89 156.11L358.02 156.22L356.92 156.05L356.02 155.7L352.82 153.92L352.09 153.37L351.28 152.94L350.32 152.67L349.29 152.54L348.34 152.27L347.66 151.7L347.22 150.9L346.54 149.1L345.94 148.44L345.23 147.9L344.4 147.45L343.64 146.95L343.03 146.32L342.55 145.54L341.96 143.83L341.66 142.2L335.88 140.34L329.39 136.94L325.53 135.4L323.13 135.15L321.9 135.17L320.67 135.32L319.33 135.7L318.49 136.18L317.85 136.72L315.44 139.85L311.87 146.63L310.76 148.1L308.23 150.62L301.03 155.97L298.8 158.25L297.07 160.67L296.07 162.61L295.72 163.59L295.26 165.74L294.8 172.82L294.61 173.91L294.21 175.16L291.3 180.47L290.78 181.71L290.73 182.9L291.86 184.23L305.55 196.45L306.91 197.92L307.65 199.24L307.19 200.3L306.47 200.94L304.57 201.64L302.28 202.83L301.5 203.06L300.64 203.11L299.58 203.09L298.49 202.94L296.73 202.27L295.84 202.1L294.96 202.27L294.08 202.53L291.83 202.92L290.71 203.34L290.51 203.9L290.98 204.35L294 205.1L294.86 205.61L295.39 206.34L295.21 207.77L294.58 208.53L293.62 208.93L292.54 208.96L291.52 208.75L290.45 208.67L289.45 208.72L287.05 210.11L285.9 210.42L284.44 211.12L283.62 211.83L283.07 212.61L282.69 213.44V213.46L281.96 215.4L281.83 216.46L282.08 219.56L282.01 220.49L282.07 221.43L282.34 222.27L283.83 224.51L284.12 225.46L284.3 226.53L284.24 227.78L283.98 229.29L283.3 231.29L282.94 233.29L282.35 234.47L281.7 235.22L280.84 235.64L276.65 236.9L275.02 238.09L273.86 239.56L272.37 242.15L271.31 243.18L270.21 243.79L265.85 243.91L255.83 242.63H255.14L252.26 243.18L249.99 243.38L238.34 242.63L214.96 247.85L208.16 248.09L203.8 247.49L201.69 247.01L196.95 246.65L194.53 246.7L192.4 247.01L186.61 248.72L185.51 248.84L169.56 247.65L168.54 247.76L151.9 252.94L149.75 253.26L140.81 253.39L138.12 253.88L135.36 254.67L133.91 255.33L132.83 255.98L132.16 256.59L131.17 258.04L130.74 258.89L129.62 262.27L128.71 263.77L127.77 264.5L126.53 265L123.27 265.76L122.11 266.33L121.25 266.96L120.7 267.7L119.67 269.46L118.82 270.65L117.33 272.36L115.84 273.37L114.56 273.87L94.2398 276.67L94.8198 277.13L92.5198 279.12L90.9798 281.79L90.0898 284.77L89.8098 287.7L90.1298 290.66L91.0598 292.54L97.4898 298.43L103.97 306.65L106.4 309.75L106.59 312.34L105.86 318.16L106.09 319.57L106.98 322.62V327.54L106.07 330.63L103.93 331.99L101.48 333.14L99.6298 335.56L99.3398 339L100.75 341.8L103.29 343.68L106.43 344.38L109.25 345.94L109.01 349.4L106.86 352.86L101.17 355.86L99.0698 359.16L95.9398 365.6L92.1198 369.55L91.3598 371.06L91.0198 380.16L90.2798 383.02L88.5898 385.59L90.3398 386.59L91.4898 387.79L92.9098 388.78L95.3898 389.2L99.9998 389.42L104.53 390.45L109.07 392.87L110.23 395.8L110.42 399.51L113.22 408.04L114.29 408.86L115.5 409.04L116.5 409.47L116.91 411.04L117.13 414.16L120.79 426.84L120.59 429.33L118.69 430.39L117.36 431.59L116.9 433.91L117.77 435.34L117.81 435.4L119.43 434.64L120.51 434.07L121.03 434.85L121.57 435.14L122.96 435.42L126.76 437.46L133.99 445.35L134.14 445.12L134.88 445L135.82 445.06L136.56 445.35L139.01 447.83L144.23 457.74L150.97 462.97L152.5 467.11L153.48 469.08L157.77 471.71L158.75 473.25L159.18 475.1L162.42 481.43L161.35 484.84L162.8 487.8L164.98 490.5L166.1 493.2L166.87 494.36L170.24 495.46L171.01 496.98L171.29 498.63L173.46 502.62L175.14 509.07L176.56 520.46L178.26 522.88L180.64 524.63L183.38 526.17L185.92 528.57L190.98 534.9L196.48 537.78L201.12 545.6L204.23 548.58L210.73 550.18L218.54 550.04L235.66 546.52L236.41 546.02L237.56 544.86L240.51 539.9L242.04 538.44L244.26 535.18L247.21 531.8L250.94 529.99L255.29 530.44L262.45 533.98L266.32 534.84L269.7 533.86L271.5 531.4L272.12 528.19L272 524.92L269 518.14L263.41 516.83L256.53 517.4L249.71 516.25L247.77 514.62L246.26 512.09L245.27 508.99L244.92 505.66L244.48 504.26L243.69 502.78L243.35 501.18L244.25 499.46L246.75 496.47L247.72 494.7L248.49 492.59L248.99 489.18L248.49 478.27L248.73 474.38L249.53 470.58L251.05 467.04L253.39 463.96L260.71 460.78L274.09 465.07L279.36 462.71L281.66 462.12L282.93 461.04L283.48 460.36L283.93 459.49L284.52 457.62L284.94 456.78L285.44 456.06L286.38 455.36L287.63 454.78L289.86 454.14L291.27 454.13L301.92 456.23L303.74 456.31L308.14 455.86L310.19 455.4L313.63 453.9L315.19 453.01L315.91 452.46L316.49 451.8L316.9 450.93L317.93 445.6L318.2 444.66L318.59 443.78L319.06 442.99L319.64 442.3L320.29 441.69L323.21 439.79L327.6 439.17L337.25 438.8L339.47 438.93L341.52 439.47L343.18 440.27L343.89 440.82L345.14 442.06L345.83 442.62L347.46 444.4L350.1 446.61L359.05 452.65L360.57 453.45L363.67 454.45L367.51 455.23L370.25 455.47H374.06L375.58 455.91L376.53 456.6L377.5 459.36L378.37 463.37L381 469.44L381.71 472.35L381.8 473.22V474.21L381.64 475.23L380.99 477.07L379.12 480.58L378.06 481.86L368.86 490.19L367.8 491.6L366.94 493.28L366.66 494.23L366.47 495.29L366.35 501.25L366.19 502.33L365.88 503.31L365.47 504.12L364.91 504.87L364.37 505.49L363.08 506.69L362.37 507.22L361.12 508.46L359.99 509.91L359.51 510.67L359.11 511.52L358.87 512.45L359.81 513.74L361.65 515.46L366.57 518.7L369.02 521.91L370.91 525.16L390.04 578.89L391.05 580.54L392.34 581.28L394.19 581.79L395.4 582.47L396.75 583.44L397.63 583.62L398.22 583.16L399.13 581.61L400.21 580.17L401.75 577.14L402.08 576.74L402.64 576.31L403.37 575.84L404.24 575.42L405.02 574.77L405.57 573.9L405.85 572.84L406.01 571.69L405.95 567.31L405.76 566.34L405.51 565.42L404.82 563.81L402.91 560.74L402.16 559.13L401.81 557.14V555.97L401.95 554.83L402.16 553.8L402.5 552.86L402.92 552.06L403.46 551.25L404.13 550.66L404.93 550.18L406.57 549.52L412.31 548.13L413.16 547.76L414.6 546.75L417.25 544.3L418.4 542.93L419.27 541.32L422.12 533.75L422.57 532.99L423.08 532.29L423.61 531.71L425.12 530.49L426.75 529.54L428.47 528.75L431.08 527.92L431.91 527.53L432.68 527.08L433.98 525.91L435.17 524.63L437.42 521.64L438.59 520.36L439.19 519.91L439.73 519.6L440.3 519.39L441.1 519.25L442.12 519.15L444.36 519.28L447.82 519.85L450.1 519.99L451.91 519.88L455.92 519.11L459.97 518.84L461.13 519.04L462.12 519.35L462.96 519.75L464.34 520.84L467.29 523.97L469.36 526.8L469.97 527.43L470.52 528.14L471.12 528.8L471.65 529.51L490.25 544.62L500.23 550.46L503.55 551.62L510.89 552.75L514.12 552.56L516.03 551.92L519.83 548.09L523.41 540.23L524.6 539.05L525.66 538.51L527.65 538.93H529.01L530.66 538.74L536.92 536.64L538.09 536.67L539.04 536.98L543.33 538.98L544.26 539.27L545.63 539.47L547.37 539.43L550.41 538.82L551.84 537.88L552.97 536.7L553.74 535.38L554.77 534.81L556.19 534.36L556.73 533.57L557.11 532.59L559.04 529.39L559.21 528.39L559.2 527.33L559.03 526.33L559.34 525.07L560.19 523.73L562.86 521.28L564.7 519.98L566.11 519.16L574.1 516.36L577.8 516.28L582.19 517.08L586.01 518.32L588.88 519.57L595.18 523.63L597.75 526.12L599.39 528.15L603.3 531.97L605.47 533.57L607.47 533.77L610.62 533.74L617.84 532.91L620.76 532.12L622.44 531.09L622.69 530.05L622.67 529.08L622.53 528.28L622.11 527.52L620.93 520.13L621.02 519.04L621.55 517.86L622.47 517.29L623.61 517.08L629.18 516.84L630.32 516.34L631.03 515.62L631.2 514.63L631.28 513.54L631.03 511.45L630.66 510.53L628.74 507.56L628.12 506.91L627.34 506.42L626.45 506.04L625.48 505.77L624.34 505.69L618.93 506.35L615 507.35L610.8 507.95L609.9 507.98L607.86 507.73L605.91 507.17L605.08 506.81L604.38 506.28L603.96 505.67L603.85 504.76L604.22 502.76V501.66L603.85 499.67L603.18 497.81L603.07 496.73L603.46 495.25L604.19 494.48L605.3 493.91L606.58 493.6L608.42 492.98L609.28 492.23L609.76 491.32L609.64 490.36L609.2 489.57L608.53 488.95L605.13 487.32L604.44 486.78L603.94 486.06L603.69 485.12V484.13L603.8 483.09L604.05 482.1L606 476.44L607.33 473.66L609.25 470.69L610.26 469.89L611.3 469.55L612.19 469.8L613.8 470.7L614.8 471.01H615.97L617.53 470.42L618.17 469.53L618.4 468.45L618.17 467.48L617.76 466.66L617.14 466.01L615.17 464.24L614.16 462.74L613.77 461.95L613.47 460.99L613.27 459.98L613.58 458.62L614.3 457.12L617.9 452.46L619.37 449.59L620.54 446.45L621.36 445.01L621.39 443.97L621.08 443.07L620.54 442.3L619.84 441.53L619.96 440.54L620.29 439.34L620.91 438.66L621.55 438.18L625.95 436.35L627.79 435.93L628.76 435.89L629.77 436.07L630.66 436.39L634.84 438.8L635.79 439.13L636.9 439.3H638.02L639.1 439.2L644.82 438.04L645.93 437.97L652.93 438.94H653H653.06L652.67 436.62L653.89 434.9L656.15 434.47L658.28 435.3L660.2 439.38L662.08 437.29L663.28 434.25L662.32 433.53L664.21 432.9L665.87 433.13L667.69 433.69L670.02 434.07L672 433.12L672.63 430.72L672.89 427.88L673.8 425.62L673.82 425.59L677.77 419.89L675.52 411L666.86 396.23V396.21H666.82L664.41 390.57L666.26 385L669.3 379.36L670.25 373.49L670.23 370.65L671.36 368.9L675.43 365.25L677.6 361.54L677.55 358.64L675.32 352.13L675.49 348.54L676.95 346.8L678.97 345.61L680.79 343.73L681.54 341.44L681.83 336.1L683.5 326.88L682.39 322.61L679.14 319.75L673.8 317.92L673.67 317.73L673.63 317.55L673.67 317.38L674.85 315.34L675.26 313.47L674.95 311.68L673.8 310.06L664.26 306.57L660.89 306.01L653.67 306.42L649.63 307.14L646.9 308.34L646.01 309.78L645.46 313.46L644.76 315.01L643.39 316.17L635.18 319.05L631.84 319.72L628.51 319.36L627.69 316.92L629.16 314.84L627.9 311.93L627.91 309.34L635.4 307.82L638.2 306.72L640.5 305.13L641.18 303.24L639.6 301.27L637.07 301.14L632.49 302L630.62 301.2L628.84 299.94L627.53 298.79L627.08 298.26L627.02 297.1L627.86 291.97L628.3 290.81L637.34 291.82L641.66 291.57L644.87 289.46L647.33 291.09L650.64 291.65L653.55 290.82L654.8 288.32L653.26 284.54L649.7 283.85L642.42 285.72L636.82 285.12L633.96 281.3L633.83 275.97L636.4 270.8L641.18 275.85L644.2 277.53L647.42 277.13L649.29 274.88L649.79 271.7L649.39 268.38L648.55 265.7L647.35 263.89L646.07 262.47L645.13 260.5L644.87 257.11L648.72 242.95L648.77 240.88L647.96 233.57L648.33 231.03L649.78 228.26L652.08 225.76L653.33 224.64L653.44 223.14L652.22 219.54L650.07 215.22L649.78 214L650.13 212.31L650.74 211.18L650.84 210.02L649.78 208.23L652.92 207.62L655.7 208.09L657.7 207.56L657.82 207L658.46 203.98L657.93 200.29L656.48 199.08L654.5 198.6L652.22 197.13L650.46 192.41L651.41 179.49L651.11 173.35L652.41 170.9L652.92 167.91L653.78 165.11L658.19 161.81L654.52 158.76L652.8 157.93L644.92 159.25L642.42 159.28L643.99 155.58L642.11 152.67L639.05 149.89L637.03 146.58L637.28 145.02L637.88 143.09L637.8 141.07L636.03 139.28L634.19 138.86L632.56 139.38L630.88 140.21L628.84 140.74L627.12 140.5L622.35 138.61L621.88 139.14L621.39 140.34L620.63 141.41L619.26 141.55Z" fill="#CCCCCC" stroke="white" stroke-width="0.5"/>
</svg>
