<svg width="1226" height="913" viewBox="0 0 1226 913" fill="none" xmlns="http://www.w3.org/2000/svg">
<path d="M220.28 472.58L218.26 475.19L215.97 480.08L214.32 480.86L211.71 479.89L211.85 477.68L211.76 476.39L220.28 472.58ZM173.72 447.47L168.51 442.58L167.73 439.9L169.38 437.09L173.45 429.66L176.84 431.81L177.84 435.73L181.05 438.77L180.5 441.15L183.21 442.44L185.18 444L186.37 445.15L187.33 447.78L186.71 450.82L180.62 450.8L175.45 447.2L173.72 447.47ZM170.29 429.69L166.17 436.21L159.72 438.52L155.56 438.61L150.3 435.29L147.37 431.55L149.38 428.41L152.72 424.26L158.78 422.65L157.36 418.04L158.13 416.7L161.87 419.36L165.02 424.04L170.29 429.69ZM146.04 416.32L150.5 418.45L151.71 420.53L151.75 421.74L150.35 423.63L147.2 427.51L145.14 430.37L140.61 428.39L137.09 424.01L138.51 421.2L140.25 417.46L144.98 418.14L146.04 416.32ZM129.07 413.05L130.08 413.48L131.58 413.11L132.75 413.15L133.71 413.9L135.5 413.48L136.58 413.4L137.08 414.73L139.41 416.27L138.68 417.29L137.99 417.8L136.21 421.03L133.01 420.2L128.22 416.15L129.07 413.05ZM78.05 325.68L74.39 331.18V333.95L70.69 335.43L66.8 340.1L63.05 342.27L61.95 334.87L62.82 333.44L60.08 331.31L62.14 325.21L62.83 321.42L67.63 319.94L71.13 314.83L75.38 315.27L77.19 315.02L84.25 315.9L78.05 325.68ZM78.04 302.62L80.29 306.27L83.87 308.15L86.25 310.61L85.64 313.24L83.17 314.03L78.69 312.87L78.04 307.73L74.71 305.52L75.29 303.65L78.04 302.62ZM31.41 294.41L32.6 296.96L30.09 300.34L32.83 302.88L32.42 306.17L33.61 307.47L31.92 309.14L32.01 311.5L29.54 313.03L27.25 312.43V310.9L25.42 309.51L24.05 303.68L31.41 294.41ZM32.69 290.06L36.9 292.56L38 297.97L36.58 298.25L33.7 297.28L34.34 295.29L31.83 292.93L32.69 290.06ZM20.98 285.25L28.3 290.99L29.72 293.54L21.76 304.41L19.61 303.39L17.55 302.88L16.36 303.85L18.88 305.15L20.02 309.18L14.58 307.88V308.76L17.96 311.86L19.97 313.34L22.3 313.66L23.63 315.83L19.79 319.62L10.92 317.59L2.32 306.58L1 302.46L1.41 300.05L5.02 296.35L11.24 293.11L12.7 289.36L20.98 285.25ZM55.75 278.65L58.81 279.03L60.03 280.21L55.27 286.18L46.81 285.02L47.18 283.35L49.19 282.43L50.24 280.91L55.75 278.65ZM24.73 271.69L28.98 277.29L30.67 280.99L30.35 287.01L28.21 288.45L21.38 283.65L17.41 284.98L21.33 280.13L24.73 271.69ZM265.96 2.51999L285.03 3.70999L287.07 4.50998L289.45 6.69998L292.65 6.57999L295.42 4.89999L303.76 7.00998L307.68 5.51999L311.91 9.04001L314.52 7.20999L318.92 7.84L320.72 6.60001L326.79 9.38L330.71 7.16L333.47 10.46L334.43 16.7L330.2 25.47L331.09 31.9L332.84 34.16L340.11 34.24L347.98 36.86L352.77 32.54L354.19 25.33L358.42 23.42L361.31 23.64L364.41 26.59L368.23 27.84L370.11 32.65L375.71 35.01L378.77 34.43L380.37 35.33L383.07 41.33L386.01 42.28L403.08 41.97L405.09 42.81L407.69 46.34L411.24 47.98L415.35 52.53H414.22L413.43 54.66L382.96 71.44L370.36 89.3L373.25 91.43L372.2 93.56L374.3 97.29L372.2 103.42L370.36 104.48L371.42 113.28L379.31 117.28L373.27 124.2L380.11 131.4L381.17 136.99L380.12 140.19L374.34 142.05L375.14 151.11L378.03 154.84L377.25 160.16L372.26 162.82V164.95L375.15 166.82L378.04 165.76V168.95L380.14 170.02V172.95L383.03 173.75V175.61L386.97 176.68L388.02 178.81L390.12 176.68L390.91 179.87L390.12 181.73L393.02 186.79L391.97 187.85L390.92 186.79L382.25 192.64L381.2 198.76L378.05 199.56L377.26 201.69L363.6 207.53L357.56 213.38L358.61 214.71L350.73 218.43L347.84 221.35L344.95 225.6L348.63 232.25L344.17 236.23L346.02 245.27L343.13 248.99H338.14L336.3 250.05H332.1V248.99H331.05L325.53 252.17L324.48 251.11H321.33L320.54 253.24L314.76 256.16H312.66L310.56 258.02H306.88L305.83 259.08L309.78 270.24L306.89 271.04L303.73 264.13V256.96L300.05 250.05L298.99 242.34L296.09 234.37L297.92 225.6L297.13 223.21L292.93 222.41L288.2 224.53H285.05L271.65 232.23H268.76L267.44 229.31L271.64 221.34L270.59 218.42L269.54 217.62L262.71 218.41L251.15 216.54L246.95 217.6L244.06 221.32L237.23 225.57L229.35 226.36L226.46 224.5L212.54 228.21L206.76 232.19L202.82 231.12L205.98 235.38L208.87 236.18L209.66 239.1L211.76 238.31L213.86 240.97L214.65 244.16L211.76 248.14L217.54 248.94L220.44 255.05L219.66 261.16L216.77 264.88L210.73 267L209.68 272.05L207.84 272.85L206.79 274.97L215.73 284.8L214.9 287.11L215.73 288.79L207.85 295.69L201.81 297.54L198.13 300.72L190.25 303.63L186.58 313.45L180.54 324.32V327.5H182.38L190.27 336.26L193.16 337.32L193.95 335.47L193.16 333.08L193.95 332.29L196.32 334.15L197.11 333.09V328.32L198.95 324.34L206.83 325.14L210.77 321.43L213.92 322.23L218.65 326.48L223.64 325.16L225.48 331.26L227.58 330.2L229.42 331.26L230.21 335.51L234.42 336.31L248.87 324.38L256.75 315.37L260.95 313.52H265.5L264.63 314.32L270.68 320.43V324.41L268.84 327.59V333.16L277.25 331.31L279.62 333.17H281.46L284.35 337.42L283.3 340.34L280.41 342.19V344.31L276.47 347.22L275.42 350.14L278.58 354.12L276.48 363.13L273.59 364.98V366.04L268.86 364.98L266.5 367.89L262.82 366.83L259.9 369.65V371.5H258.59L256.75 375.74L259.91 379.45V381.83H258.6V383.68L255.98 387.39L251.25 390.57V392.69L246 404.34L244.16 405.4H239.17L231.28 399.3L223.66 402.47L219.72 400.61H215.78L208.96 410.41L205.02 419.15L193.2 424.97V430L198.99 435.83L202.94 441.92L219.77 451.73L226.6 452.53L230.28 454.65L230.48 457.04L228.42 459.35L227.92 462.72L224.67 468.62L213.51 473.78L210.58 474.29L206.51 472.08L204.18 467.56L198.78 462.35L186.39 453.26L188.54 451.55L189.36 445.92H191.83L192.97 444.4L190.46 444.03L189.87 440.43H188.77L187.26 443.57L185.98 442.55L186.21 440.47L182.55 440.01V437.61L179.4 434.89L178.35 430.74L170.76 426.96L170.85 425.39L168.7 422.94L166.96 422.71L165.04 418.28L163.12 418.37L157.68 414.72L155.12 416.06L156.63 421L154.02 421.6L153.06 420.63L154.3 418.65L150.05 416.16L149.04 415.93L145.38 414.04L147.39 411.04L146.66 408.82L144.97 409.7L144.56 412.89L141.77 412.84L142.46 414.69L141.04 415.34L139.21 413.91L136.7 411.51L134.23 412.48L132.68 411.65L131.81 410.59L130.71 412.02L127.33 410.36L127.29 414.15L114.44 408.1L112.52 408.38L111.01 410.5L107.53 410.09L105.47 412.68L103.41 413.14L102.13 409.35L101.03 405.2L103.73 397.72L102.63 391.35L88.18 376.06L85.44 374.3L84.07 372.18L80.55 372L77.44 369.83L74.51 371.63L73.23 369.46L70.76 371.36L69.16 370.3L69.8 368.04L68.25 361.71L71.68 358.43L70.08 356.4L70.36 354.23L71.23 353.77L72.74 354.56L75.26 353.87L75.63 352.48L80.66 349.25L81.16 348.33L77.55 348.89L75.4 343.85L77 340.15L78.19 330.12L80.34 329.1L85.19 323.27L87.48 317.26L88.81 309.77L85.43 307.6L87.49 306.35L86.58 303.71L83.93 303.99L82.88 305.79L78.4 300.98L73.87 302.51L73.14 306.67L76.85 308.38L77.12 312.36L75.11 313.19L71.64 312.03L69.86 312.68L68.03 316.8L61.9 319.48L59.16 322.44L57.1 323.83L55.91 327.9L57.05 331.14L55.18 331.6L50.61 327.58L48.23 320.6L50.56 320.88L52.89 318.01L54.58 308.57L55.4 306.03L53.98 305.47L51.37 310.33L45.38 310.7L45.56 301.73L44.46 300.48L43.87 292.85L47.35 290.54L52.06 287.53L56.95 287.44L60.84 282.35L64.77 281.15V276.8L68.47 276.06L68.56 275.18L66.59 273.98L64.49 274.3L59.28 277.73L54.43 276.9L49.13 280L46.89 278.75L45.11 280.46L44.97 282.63L38.61 286.75L35.09 287.68L32.76 284.26L32.99 280.09L31.21 275.74L29.84 276.06L26.87 272.17L27.88 267.9L42.73 239.45L51.77 217.31L62.41 202.36L68.68 196.56L77.62 196.19L93.23 197.89L125.61 180.48L134.08 167.9L137.33 169.86L142.54 168.65L149.1 170.93L155.55 170.25L160.29 174.93L163.57 175.9L172.06 171.63L178.23 173.49L181.99 172.92L187.73 170.41L189.42 166.82L195.14 169.65L198.01 169.54L202.23 160.17L201.68 158.68L199.88 159.66L200.73 155.66L203.66 156.02L205.56 157.66L204.16 160.48L206.25 162.88L210.92 161.11L210.41 164.92L212.53 166.06L214.03 166.59L219.64 165.16L222.73 162.79L225.38 162.69L224.3 153.24L225.69 145.39L224.24 134.02L226.67 113.46L212.58 108.77L209.86 105.72L208.2 100.93L199.39 97.43L195.84 92.69L187.78 91.46L185.43 88.15L183.95 82.16L187.93 79.89L190.96 74.71L201.65 73.4L201.98 71.27L200.41 67.43L204.53 67.28L206.32 71.31L210.87 64.92L211.62 66.76L209.7 71.78L210.4 72.28L215.56 72.05L217.22 68.15L223.46 73.11L225.3 71.79L226.84 66.74L229.24 63.6L233.65 61.48L234.97 53.88L233.67 46.38L238.04 38.95L234.8 29.34L230.95 25.17L227.64 13.17L226.11 1L265.96 2.51999Z" fill="#CCCCCC" stroke="white" stroke-width="0.5"/>
<path d="M211.949 535.61L213.779 535.7L213.729 536.57L211.119 537.31L211.949 535.61ZM217.619 529.16L219.249 532.9L220.629 534.32L220.769 536.9L218.939 540.22L219.209 534.97L216.059 530.73L217.619 529.16ZM210.569 527.69L212.719 528.84L207.189 533.45L206.139 538.75L204.359 535.76L204.999 533.87L210.569 527.69ZM251.039 486.67L251.449 489.49L254.919 490.47L262.829 489.63L267.129 491.33L260.889 497.89L260.469 499.99L262.409 500.69L266.579 507.04L258.699 517.61L260.759 521.84L257.169 531.75L252.289 529.95L245.069 519.22L243.059 518.21L234.189 523.05L226.189 530.01L224.909 530.19L223.899 528.58L225.229 526.83L226.099 527.61L228.769 526.17L229.429 524.16L233.179 520.2L233.089 516.61L234.509 515.51L234.969 512.52L239.949 507.45L239.359 503.99L241.649 491.45L243.709 491.5L245.769 488.55L251.039 486.67Z" fill="#CCCCCC" stroke="white" stroke-width="0.5"/>
<path d="M272.259 567.1L274.229 567.24L274.139 569.08H271.899L272.259 567.1ZM234.029 476.25L238.049 480.31L238.459 483.08L234.979 487.09L230.679 489.63L230.999 490.55L229.489 491.1L227.519 490.04L223.999 489.72L218.059 485.62L219.159 481.38L221.259 478.29L226.749 477.37L228.989 477.28L231.869 477L234.029 476.25ZM230.459 460.65L231.879 464.53L232.589 465.74V467.92L234.099 471.66L234.449 473.68L233.049 475.08L230.719 475.66L222.099 474.95L228.999 464.03L230.459 460.65ZM230.469 457.02L230.269 454.63L226.589 452.51L219.759 451.71L202.939 441.9L198.989 435.81L193.209 429.98V424.95L205.029 419.14L208.969 410.4L215.799 400.61H219.739L223.679 402.47L231.299 399.3L239.189 405.4H244.179L246.019 404.34L251.269 392.69V390.57L255.999 387.4L258.629 383.69V381.84H259.939V379.46L256.779 375.75L258.619 371.51H259.929L259.899 369.65L262.789 366.74L266.469 367.8L268.829 364.89L273.559 365.95V364.89L276.449 363.04L278.549 354.03L275.389 350.05L276.439 347.14L280.379 344.23V342.11L283.269 340.26L284.319 337.34L281.429 333.09H279.589L277.219 331.23L268.809 333.08V327.51L270.649 324.33V320.35L264.599 314.24L265.469 313.45H260.919L256.719 315.3L248.839 324.31L234.399 336.24L230.199 335.44L229.409 331.2L227.569 330.14L225.469 331.2L223.629 325.1L218.639 326.42L213.909 322.17L210.759 321.37L206.819 325.08L198.939 324.28L197.099 328.26V333.03L196.309 334.09L193.939 332.23L193.149 333.03L193.939 335.42L193.149 337.28L190.259 336.22L182.369 327.46H180.529V324.28L186.569 313.41L190.239 303.59L198.119 300.68L201.799 297.5L207.839 295.65L215.719 288.75L214.889 287.07L215.719 284.76L206.779 274.93L207.829 272.81L209.669 272.02L210.719 266.98L216.759 264.86L219.649 261.14L220.429 255.03L217.539 248.92L211.759 248.12L214.649 244.14L213.859 240.95L211.759 238.29L209.659 239.09L208.869 236.17L205.979 235.37L202.819 231.12L206.759 232.19L212.539 228.21L226.459 224.5L229.349 226.36L237.229 225.57L244.059 221.32L246.949 217.6L251.149 216.54L262.709 218.41L269.539 217.62L270.589 218.42L271.639 221.35L267.439 229.32L268.759 232.24H271.649L285.049 224.54H288.199L292.929 222.42L297.139 223.22L297.929 225.61L296.099 234.38L298.999 242.36L300.059 250.07L303.739 256.98L303.749 264.15L306.909 271.06L309.799 270.27L305.849 259.11L306.899 258.05H310.579L312.679 256.19H314.779L320.559 253.27L321.349 251.15H324.499L325.549 252.21L331.069 249.03H332.119V250.09L343.159 249.04L346.049 250.1L348.679 255.15L348.689 262.32L349.739 263.12L354.729 264.19L361.819 257.02H367.339L369.709 259.15L377.329 262.34V265L373.389 267.92L370.509 277.74L366.569 275.88L365.519 278.8L358.689 283.04L357.639 286.76L352.909 288.88L350.809 291.8V297.64L348.709 303.74L347.929 314.35L349.779 321.52L353.989 326.56L349.789 332.39V336.37L352.159 338.23L348.749 342.21L347.959 346.19L346.119 345.39L345.069 347.24L349.809 354.14L350.869 361.03L354.809 361.83L361.899 356.27L366.629 358.92L372.409 358.13L375.299 361.05H378.189L384.239 366.89H387.129L389.229 366.1L392.119 363.19V361.87L399.999 355.25L401.839 354.19L404.729 355.25L406.829 354.19L412.609 350.22L414.449 347.31L424.689 341.22L426.529 344.4L423.379 346.25V353.14L426.539 356.33H430.219L434.429 358.98L432.069 363.22L438.119 365.08L441.009 366.94L442.059 369.06L439.959 371.71L437.339 383.9L434.449 386.81V393.7L437.339 396.62L438.129 402.71L447.069 403.51L450.749 399.54L460.469 401.67L464.669 400.88L468.349 401.68L469.399 402.74L469.409 409.63L471.509 413.61L475.449 417.32L476.239 422.35L480.449 424.21L485.189 434.27L486.249 443.01L484.149 446.19L480.469 447.25L478.369 450.95L481.529 458.1L483.239 467.91L470.079 460.01L436.389 467.15L432.249 471.63L428.429 471.49L425.319 473.45L426.589 478.82L425.099 479.36L424.919 482.49L422.079 487.92L423.959 489.67L420.529 491.25L421.959 496.09L420.929 496.32L419.199 493.89L414.179 496.85L412.719 503.95L410.809 503.42L410.089 504.91L411.099 509.1L410.049 513.91L406.229 512.86L405.199 513.7L402.709 519.62L403.029 522.48L400.779 522.53L398.729 525.17L400.259 526.42L400.349 529.01L395.769 536.5L394.399 545.54L391.649 544.48L390.219 548.79L383.619 547.64L382.639 550.88L383.489 556.05L379.539 556.57L377.479 563.51L373.759 565.81L370.599 565.1L369.039 566.06L363.759 563.91L362.409 567.27L360.439 568.54L353.529 565.84L349.619 574.36L350.059 583.15L347.749 584.88L344.229 594.65L340.899 598.29L334.479 599.66L333.249 603.66L331.429 604.7L325.149 605.12L317.919 599.12L314.179 598.04L308.799 601.31L302.099 600.9L298.759 602.18L292.849 606.74L290.519 603.2L290.609 601.08L293.719 599.84L295.089 595.47L299.619 590.09L302.459 588.94L305.199 585.76L302.909 584.47L297.509 587.6L291.609 588.01L290.329 587.04L290.009 582.67L292.159 581.2L291.109 579.22L292.249 575.86L291.789 571.4L289.229 567.12L289.179 560.91L292.199 558.01L290.779 556.86L287.309 557.46L285.619 560.13L284.929 567.13L275.489 567.05L275.609 564.97L272.819 554.57L273.189 549.14L275.109 547.02L274.839 545.46L271.869 546.52L271.229 545.14L265.699 546.15L259.759 539.93L257.229 531.87L260.829 521.96L258.769 517.73L266.649 507.16L262.479 500.81L260.539 500.11L260.959 498.01L267.199 491.45L262.899 489.76L254.989 490.6L251.519 489.62L251.109 486.8L252.309 484.63L249.479 485.69L244.499 486.52L241.159 485.18L240.789 481.45L240.059 479.98L235.349 476.01L238.089 470.52L234.709 468.91L234.209 467.11L235.489 463.65L234.119 461.71L233.749 459.68L230.469 457.02Z" fill="#CCCCCC" stroke="white" stroke-width="0.5"/>
<path d="M782.75 77.48L785.73 77.55L788.33 82.22L789.64 81.57L789.11 79.95L790.08 78.57L792.69 79.5L795.78 78.13L796.61 80.79L804.54 80.56L806.42 82.84L812.14 85.26L822.05 84.25L818.11 88.85L805.24 94.97L802.35 97.64L800.51 101.63L805.25 109.63L807.09 119.49L810.25 125.62L809.46 127.49L805.26 129.35L806.32 136.54L804.48 139.2L801.59 140.53L802.38 144.53L797.39 149.32L796.6 151.45L796.61 154.38L800.55 155.18V157.31L798.45 159.44L799.24 163.16L797.4 165.29L794.51 166.09L793.73 172.21L794.52 174.07L792.69 183.12L796.63 184.98L800.57 191.11L808.19 191.91L812.4 194.04L815.03 198.03L819.23 197.24L822.92 199.1L828.17 199.11L828.96 200.97H831.85V202.03L834.74 203.9L835.54 212.67L832.91 210.81L828.97 215.06V218.78L825.03 221.71L822.93 221.7L825.82 218.78V215.06L825.03 216.92L822.93 217.98H820.3L817.15 215.85L814.26 219.84L816.1 222.76H811.37L809.53 220.63L811.36 215.85L806.37 217.97L804.53 211.85L803.48 213.71H800.59V211.85L796.65 209.99L794.54 210.78L796.65 213.71L792.71 215.03L788.76 211.84L786.66 216.89L787.72 217.95L784.04 219.81L781.94 217.95L784.82 213.7L784.03 208.91L781.93 215.03L779.83 212.63L778.78 213.69L777.99 217.95L779.83 219.81L774.06 227.78L758.29 231.49L759.35 235.74L764.34 238.67L752.52 248.49L748.58 250.35L739.91 250.34L733.87 249.28L730.98 247.41L732.03 251.4L730.98 250.34L727.3 250.33L728.09 251.4L727.3 255.38L721.26 254.58L718.37 257.23L717.06 259.36L719.43 265.2L718.38 271.31L715.23 272.37L713.39 276.09L709.45 277.94L705.51 282.19L705.52 288.03L701.58 292.01H702.63V293.07L698.42 293.86L696.59 295.99L692.91 296.78L691.86 299.17L688.71 299.16L686.87 301.82H687.92L688.71 303.94L695.81 305.8L698.44 308.99L700.8 309.79L699.89 310.71L706.32 313.24L709.47 312.71L710.53 313.78H713.42L717.1 316.97H719.46L726.04 324.67L737.86 323.61L739.96 324.68L745.74 321.76L752.58 320.71L756.53 333.44L760.47 340.61L763.64 353.34V354.4L759.43 356.52V359.17L768.37 362.09L770.99 356.52L773.36 359.18L775.2 357.32L778.88 359.18L778.09 362.1H780.98L782.03 359.18L785.97 358.39L787.81 355.48L788.86 356.54L788.87 360.25L790.97 361.31L797.54 361.32L800.69 359.2L801.74 360.26L798.59 362.11L797.54 367.15L799.38 366.35L801.75 367.15L805.43 373.25H806.48L804.64 371.13L807.27 369.28L807.26 366.36L809.63 367.16L811.47 365.3L813.3 358.41H814.35L815.15 362.13L814.36 364.51L819.35 365.31L817.25 367.16V371.14L816.2 371.93L814.36 370.08H812.52L811.47 371.93L811.48 374.32L813.32 377.23L816.21 378.03L814.37 380.94L811.48 379.88L812.53 382.27L810.43 385.18L811.48 388.89H809.65V391.01L804.66 393.92L800.71 391H797.56V393.12L799.4 393.91V396.83L797.56 398.68V399.74L799.4 398.68V399.74L797.57 404.77L803.62 413.78L800.73 417.49L797.58 418.81L799.42 421.72H794.69L793.9 422.51L794.69 424.37L792.85 426.48H791.01L788.91 430.45L786.81 431.51L784.19 430.45L783.14 432.3L784.19 437.59L783.14 440.24L777.1 447.38L780 452.94V456.12L783.16 465.12L778.96 469.87H776.33L775.28 471.72L776.34 483.89L773.45 484.68L772.14 487.59H770.3L768.46 491.55L769.25 497.37H770.3L770.31 507.42L766.37 514.29L768.48 520.37L771.11 519.05L774.26 520.37L775.31 522.22L780.05 523.28L783.2 522.23L791.08 523.29L792.92 520.39L797.65 518.01L800.8 514.31V512.46L807.36 505.33L808.41 500.31L810.51 497.4L813.4 497.41L820.5 503.49L821.29 509.31L826.02 512.48L830.23 510.11L835.74 504.56L840.99 502.71L848.88 504.57L858.61 511.45L855.72 515.41L858.61 517.27L861.51 522.29L865.45 525.99L894.89 536.85L903.57 554.56L902.79 556.67L897.53 559.83L894.91 563.53V571.45L893.07 573.3L889.66 572.5L883.09 574.35L879.94 576.46L879.15 580.42L883.1 586.23V590.98L888.88 592.04L893.09 594.15V596.26L883.11 601.01V602.86L887.06 607.87L893.89 609.72L896.78 611.57L898.62 614.74L897.57 621.87L893.9 623.71L899.68 631.63L900.48 634.53L893.9 631.62H887.86L885.23 633.46H879.98L876.3 631.61L870.26 635.3L868.42 639.25L859.49 640.56L856.86 638.19L853.7 639.24L851.6 642.4L847.93 644.25L846.87 643.19L844.77 645.3L843.72 643.19L841.88 645.3L838.99 643.19L838.2 633.43L837.14 631.58L838.19 622.61L837.14 621.82L833.98 622.61L833.99 627.36L832.15 631.58L827.16 632.63L825.32 634.47L819.54 632.62L819.53 625.5L816.38 624.71L809.81 632.61H806.66V627.34L802.72 626.54L800.87 621.79H795.88L794.83 620.47L792.2 620.46L791.15 617.56H789.83L791.15 615.71L791.14 607.8L787.98 602.78L786.14 601.73L783.25 601.72L782.2 602.78L781.16 609.64L777.22 612.8L764.61 615.7L763.82 616.75H759.61L760.66 613.84L759.61 611.47L765.65 605.93V602.77L762.49 598.8V595.11L760.65 599.86L758.55 601.7H745.94L742 604.86L740.16 602.75L738.41 603.84L727.96 599.73L720.08 600.74L715.93 599.28L717.13 591.52L719.04 589.39L719.08 586.16L717.57 582.84L718.41 580.52L722.22 581.1L727.4 578.45L727.44 575.71L725.51 571.78L727.47 563.44L723.17 559.47L719.52 557.79L719.6 555.5L716.33 550.24L713.48 549.47L709.9 549.99L705.1 548.5L703.38 550.13L702.54 549.18L704.65 544.57L697.83 539.87L696.92 537.89L698.26 535.19L697.01 531.14L699.94 529.17L700.44 527.41L695.56 526.3L692.82 524.16L695.19 520.73L686.7 513.47L684.99 505.5L678.16 503.17L675.77 494.89L665.67 480.99L656.02 472.66L646.63 467.46L643.24 451.42L638.01 447.33L593.97 447.46L594.99 438.24L599.98 433.22L600.77 428.45L604.7 423.43L606.54 417.34L607.85 407.54L609.68 404.63L609.67 391.91L607.82 374.95L606.51 371.77L598.89 370.97L587.85 365.13H584.95V361.15L587.05 354.26L586 352.14H587.05L587.83 346.31L590.98 345.52L592.82 341.27V336.5L596.76 330.4L597.54 326.69L595.7 325.36L598.85 320.59L597.53 314.49L599.89 309.71L596.74 305.73L590.17 300.95L585.96 301.74L584.91 296.69L587.79 290.06L596.72 282.1L607.76 285.83H614.33L626.42 283.19L633.77 277.88L646.9 272.32L649.53 268.07L637.97 264.34L633.76 261.42L630.08 256.37L626.4 257.16L621.14 251.31L616.14 236.43L616.13 229.52L628.21 213.58L635.04 210.66H640.82L641.61 208.8L645.81 206.94L651.59 200.83L650.53 197.11H652.37L651.58 194.71L649.48 192.85L643.7 190.98L639.75 191.78L636.86 186.99V184.86L637.91 183L644.74 180.08L648.68 175.82L647.63 173.96L644.73 173.16V172.09L648.67 165.97L655.5 165.18L657.34 163.05L660.23 156.13L659.43 138.29L660.21 136.43L664.42 133.5L658.37 131.63L655.48 127.37H650.48L646.8 125.5L645.75 123.63L646.8 121.24L646.79 112.71L644.81 108.57L649.31 104.2L648.31 100.96L649.09 98.58L654.05 98.28L654.86 94.32L660.06 91.52L664.67 77.16L669.51 79.75L674.4 79.22L677.45 77.15L681.29 77.78L683.8 76.93L687.22 78.56L688.03 80.53L690.07 80.3L692.32 87.19L697.54 92.13L706.58 95.85L707.44 103.13L705.78 107.85L708.64 112.31L712.15 115.18L713.95 120.36L712.98 123.51L716.28 128.09L718.63 128.25L723.04 132.03L726 131.88L731.29 128.66L731.26 125.93L735.79 118.03L737.98 118.46L743.99 114.52L741.35 111.81L741.47 110.47L748.97 108.84L750.58 107.25L750.81 101.42L753.51 100.12L751.64 95.27L753.84 93.78L762.75 94.05L768.51 90.54L769.05 85.27L771.45 84.64L775.58 86.1L777.31 84.76L777.71 81.99L781.52 82.82L781.99 80.28L780.5 77.27L780.81 76.42L782.75 77.48Z" fill="#CCCCCC" stroke="white" stroke-width="0.5"/>
<path d="M961.021 30.74L968.161 32.71L975.861 33.12L987.151 40.65L993.771 42.44L997.171 45.05L999.861 49.87L1006.41 55.84L1008.26 60.47L1003.43 67.17L1002.46 77.1L1004.92 78.71L1007.12 82.63L1011 83.09L1011.75 80.86L1013.72 80.92L1013.7 82.84L1015.43 83.13L1017.29 85.92L1018.3 88.74L1017.22 97.27L1015.28 98.25L1014.57 104.13L1015.62 107.26L1018.39 107.44L1022.44 110.25L1025.01 107.12L1028.89 107.62L1033.33 113.28L1031.55 118.72L1035.05 126.87L1025.27 176.25L1030.57 176.61L1034.59 178.56L1036.64 177.35L1040.78 179.85L1045.13 175.93L1052.06 175.04L1053.58 176.86L1052.51 184.96L1055.1 186.83L1058.23 197.8L1065.06 205.56L1067.8 204.91L1071.03 207.14L1072.79 204.52L1077.78 201.38L1079.38 202.75L1080.68 207.17L1079.18 207.8L1079.2 209.15L1082.14 211.21L1083.26 214.48L1090.79 217.44L1100.58 217.32L1104.03 219.79L1098.29 221.03L1096.48 225.11L1097.07 226.46L1099.79 227.41L1105.81 227.56L1103.85 234.52L1096.39 235.97L1087.03 232.91L1083.72 237.25L1085.83 244.06L1072.68 246.95L1071.54 250.08L1073.02 255.24L1071.91 257.76L1070.24 260.08L1065.26 259.75L1063.44 261.08L1063.73 266.22L1059.7 270.43L1058.85 275.44L1053.74 279.76L1054.42 288.51L1057.09 289.53L1063.44 286.84L1068.7 289.35L1077.68 285L1081.12 285.72L1083.1 275.82L1086.49 270.22L1088.07 269.62L1095.86 269.05L1099.14 270.69L1103.83 268.51L1108.66 269.72L1112.65 273.03L1118.65 281.87L1117.96 285.81L1119.98 293.46L1120.54 305.53L1119.48 308.28L1115.51 310.73L1111.76 320.72L1117.26 322.54L1115.39 328.3L1117.11 332.84L1116.28 341.63L1118.12 345.06L1118.31 348.81L1120.92 351.37L1120.36 360.85L1122.74 364.17L1122.81 368.15L1125.62 370.05L1128.81 379.27L1137.39 381.09L1142.75 377.4L1146.08 377.25L1147.1 382.12L1150.82 387.9L1166.69 391.19L1171.08 395.3L1172.34 398.41L1174.6 407.34L1173.74 412.53L1169.51 417.56L1163.2 431.28L1158.49 435.23L1148.35 439.62L1143.69 446.12L1143.31 448.7L1140.92 450.77L1143.11 452.63L1145.91 451.37L1146.52 454.43L1140.83 457.83L1138.67 459.56L1139.44 461.98L1140.73 462.49L1143.68 462.41L1145.41 463.85L1144.73 466.93L1142.75 466.41L1142.3 469.04L1147.25 469.44L1148.19 471.36L1147.31 474.18L1149.21 475.19L1147.91 480.98L1146.07 482.1L1147.23 486.46L1145.57 488.39L1144.59 490.32L1145.63 495.79L1143.46 498.78L1144.6 502L1144.87 504.71L1143.92 507.71L1140.93 509.58L1142.27 511.65L1141.64 516.43L1108.25 517.46L1102.73 519.3L1094.85 525.38L1090.65 523.52H1086.97L1085.92 524.31L1086.97 528.28L1084.87 532.24L1081.72 531.44L1079.09 535.14L1078.04 533.29L1076.2 534.08L1075.16 540.16L1070.16 541.21L1069.11 538.04L1067.27 536.98L1066.48 532.22L1065.16 530.37L1064.11 531.43V534.07L1062.28 536.98L1064.13 550.98L1064.14 562.6L1061.25 565.5L1060.46 572.63L1057.58 577.65V582.4L1052.59 586.36L1049.7 590.31L1048.65 597.18L1046.56 601.92V606.94L1047.88 610.9L1051.56 615.92V619.61L1048.67 622.77L1035.8 627.51L1032.12 631.73L1029.24 638.32H1027.92L1012.43 650.44L1010.33 651.23L1000.6 647.27L991.671 646.2L975.381 652.26L969.331 652.25L960.401 649.08L948.831 638.26L935.951 630.34L931.221 630.33L913.351 635.33L900.481 634.53L899.681 631.63L893.901 623.71L897.571 621.87L898.621 614.74L896.781 611.57L893.891 609.72L887.061 607.87L883.111 602.86V601.01L893.091 596.26V594.15L888.881 592.04L883.101 590.98V586.23L879.151 580.42L879.941 576.46L883.091 574.35L889.661 572.5L893.071 573.3L894.911 571.45V563.53L897.531 559.83L902.791 556.67L903.571 554.56L894.891 536.85L865.451 525.99L861.511 522.29L858.611 517.27L855.721 515.41L858.611 511.45L848.881 504.57L840.991 502.71L835.741 504.56L830.231 510.11L826.021 512.48L821.291 509.31L820.501 503.49L813.401 497.41L810.511 497.4L808.411 500.31L807.361 505.33L800.801 512.46V514.31L797.651 518.01L792.921 520.39L791.081 523.29L783.201 522.23L780.051 523.28L775.311 522.22L774.261 520.37L771.111 519.05L768.481 520.37L766.371 514.29L770.311 507.42L770.301 497.37H769.251L768.461 491.55L770.301 487.59H772.141L773.451 484.68L776.341 483.89L775.281 471.72L776.331 469.87H778.961L783.161 465.12L780.001 456.12V452.94L777.101 447.38L783.141 440.24L784.191 437.59L783.141 432.3L784.191 430.45L786.811 431.51L788.911 430.45L791.011 426.48H792.851L794.691 424.37L793.901 422.51L794.691 421.72H799.421L797.581 418.81L800.731 417.49L803.621 413.78L797.571 404.77L799.401 399.74V398.68L797.561 399.74V398.68L799.401 396.83V393.91L797.561 393.12V391H800.711L804.661 393.92L809.651 391.01V388.89H811.481L810.431 385.18L812.531 382.27L811.481 379.88L814.371 380.94L816.211 378.03L813.321 377.23L811.481 374.32L811.471 371.93L812.521 370.08H814.361L816.201 371.93L817.251 371.14V367.16L819.351 365.31L814.361 364.51L815.151 362.13L814.351 358.41H813.301L811.471 365.3L809.631 367.16L807.261 366.36L807.271 369.28L804.641 371.13L806.481 373.25H805.431L801.751 367.15L799.381 366.35L797.541 367.15L798.591 362.11L801.741 360.26L800.691 359.2L797.541 361.32L790.971 361.31L788.871 360.25L788.861 356.54L787.811 355.48L785.971 358.39L782.031 359.18L780.981 362.1H778.091L778.881 359.18L775.201 357.32L773.361 359.18L770.991 356.52L768.371 362.09L759.431 359.17V356.52L763.641 354.4V353.34L760.471 340.61L756.531 333.44L752.581 320.71L745.741 321.76L739.961 324.68L737.861 323.61L726.041 324.67L719.461 316.97H717.101L713.421 313.78H710.531L709.471 312.71L706.321 313.24L699.891 310.71L700.801 309.79L698.441 308.99L695.811 305.8L688.711 303.94L687.921 301.82H686.871L688.711 299.16L691.861 299.17L692.911 296.78L696.591 295.99L698.421 293.86L702.631 293.07V292.01H701.581L705.521 288.03L705.511 282.19L709.451 277.94L713.391 276.09L715.231 272.37L718.381 271.31L719.431 265.2L717.061 259.36L718.371 257.23L721.261 254.58L727.301 255.38L728.091 251.4L727.301 250.33L730.981 250.34L732.031 251.4L730.981 247.41L733.871 249.28L739.911 250.34L748.581 250.35L752.521 248.49L764.341 238.67L759.351 235.74L758.291 231.49L774.061 227.78L779.831 219.81L777.991 217.95L778.781 213.69L779.831 212.63L781.931 215.03L784.031 208.91L784.821 213.7L781.941 217.95L784.041 219.81L787.721 217.95L786.661 216.89L788.761 211.84L792.711 215.03L796.651 213.71L794.541 210.78L796.651 209.99L800.591 211.85V213.71H803.481L804.531 211.85L806.371 217.97L811.361 215.85L809.531 220.63L811.371 222.76H816.101L814.261 219.84L817.151 215.85L820.301 217.98H822.931L825.031 216.92L825.821 215.06V218.78L822.931 221.7L825.031 221.71L828.971 218.78V215.06L832.911 210.81L835.541 212.67L834.741 203.9L831.851 202.03V200.97H828.961L828.171 199.11L822.921 199.1L819.231 197.24L815.031 198.03L812.401 194.04L808.191 191.91L800.571 191.11L796.631 184.98L792.691 183.12L794.521 174.07L793.731 172.21L794.511 166.09L797.401 165.29L799.241 163.16L798.451 159.44L800.551 157.31V155.18L796.611 154.38L796.601 151.45L797.391 149.32L802.381 144.53L801.591 140.53L804.481 139.2L806.321 136.54L805.261 129.35L809.461 127.49L810.251 125.62L807.091 119.49L805.251 109.63L800.511 101.63L802.351 97.64L805.241 94.97L818.111 88.85L822.051 84.25L825.621 90.87L827.971 90.65L830.201 90.43L832.651 92.6L836.391 92.7L841.481 97.69L844.411 96.4L846.251 97.84L850.751 97.67L851.771 100.49L855.941 104.59L867.961 104.66L874.591 108.81L886.091 110.16L886.721 104.52L889.391 103L890.061 100.96L889.721 93.45L897.511 85.23L907.541 82.18L912.161 81.91L918.121 77.87L922.391 73.02L933.031 70.59L934.521 72.26L936.881 71.51L945.251 73.5L945.011 70.15L946.981 70.13L948.641 68.49L948.201 61.17L950.481 60.07L950.751 55.87L952.301 54.15L946.281 51.06L945.191 47.35L942.311 46.36L940.401 44.27L938.011 39.28L934.851 39.75L934.681 36.9L940.431 34.9L941.701 31.18L945.391 31.63L946.021 34.33L947.731 33.34L948.681 30.35L954.511 33.48L956.111 31.18L959.591 30.01L961.021 30.74Z" fill="#CCCCCC" stroke="white" stroke-width="0.5"/>
<path d="M602.681 43.04L609.561 44.93L610.521 48.98L604.081 50.91L603.511 47.98L599.671 50.79L599.301 54.3L597.961 55.49L599.651 58.15L600.461 66.16L597.991 68.78L597.451 71.82L593.601 74.24L590.101 79.09L590.641 84.29L594.831 90.95L599.681 93.76L610.151 96.77L612.721 100.92L612.491 104.12L620.621 110.59L629.661 115.4L632.811 114.82L637.051 111.17L641.721 111.23L644.811 108.57L646.791 112.71L646.801 121.24L645.751 123.63L646.801 125.5L650.481 127.37H655.481L658.371 131.63L664.421 133.5L660.211 136.43L659.431 138.29L660.231 156.13L657.341 163.05L655.501 165.18L648.671 165.97L644.731 172.09V173.16L647.631 173.96L648.681 175.82L644.741 180.08L637.911 183L636.861 184.86V186.99L639.751 191.78L643.701 190.98L649.481 192.85L651.581 194.71L652.371 197.11H650.531L651.591 200.83L645.811 206.94L641.611 208.8L640.821 210.66H635.041L628.211 213.58L616.131 229.52L616.141 236.43H614.301L615.351 238.56L607.731 236.42L608.521 242.54L598.801 244.39L588.821 250.23L577.001 265.09L571.491 268.01L564.391 267.21L558.611 274.11L555.721 275.17L555.731 277.82L549.681 283.13L535.231 280.2L529.181 277.01L524.181 267.18V264.26L527.331 256.29L528.121 257.09L527.331 251.24L521.281 246.45L513.401 244.32L511.551 242.46L510.501 238.47L507.611 237.41L504.451 232.36L498.931 231.29H494.731L486.851 233.67L485.011 235.53L480.291 249.08L472.411 253.32V254.39L468.211 257.04L466.371 256.24L461.631 248.27H458.481L446.921 252.24L441.921 250.11L437.201 259.14L435.101 258.08L434.311 256.22L428.261 255.15L427.211 253.29L424.581 242.39L425.361 233.63L423.251 231.23L420.361 232.29L419.311 229.37L415.631 228.3L413.531 224.58L403.541 227.49L401.701 226.43L400.921 228.29H398.021L400.921 230.42L398.821 234.4L394.881 237.32H390.941L390.151 240.24L385.951 242.36V245.29L382.271 248.21L381.231 256.18L377.291 262.28L369.671 259.09L367.301 256.96H361.781L354.691 264.13L349.701 263.06L348.651 262.26L348.641 255.09L346.011 250.04L343.121 248.97L346.011 245.26L344.161 236.22L348.631 232.24L344.941 225.59L347.831 221.34L350.721 218.42L358.601 214.7L357.551 213.37L363.591 207.52L377.251 201.68L378.031 199.56L381.191 198.76L382.231 192.64L390.901 186.8L391.951 187.86L393.001 186.8L390.111 181.74L390.901 179.88L390.111 176.69L388.011 178.81L386.951 176.68L383.011 175.62V173.75L380.121 172.95V170.03L378.011 168.96V165.77L375.121 166.83L372.231 164.96V162.83L377.221 160.17L378.001 154.85L375.111 151.12L374.321 142.07L380.101 140.21L381.141 137.01L380.091 131.42L373.251 124.22L379.291 117.3L371.411 113.3L370.351 104.5L372.191 103.44L374.281 97.31L372.181 93.57L373.231 91.44L370.341 89.3L382.941 71.45L413.411 54.66L414.201 52.53H415.331L417.911 51.99L424.091 47.65L429.371 47.36L440.911 52.44L448.151 62.04L450.851 62.72L468.771 54.73L481.211 52.55L491.481 43.63L494.961 44.27L499.251 43.32L503.311 47.28L507.631 47.73L523.341 42.03L532.211 47.64L546.671 49.24L554.761 48.3L562.761 43.28L573.211 42.69L584.571 40.03L596.371 40.25L602.681 43.04Z" fill="#CCCCCC" stroke="white" stroke-width="0.5"/>
<path d="M377.289 262.28L381.229 256.18L382.269 248.21L385.949 245.29V242.36L390.149 240.24L390.939 237.32H394.879L398.819 234.4L400.919 230.42L398.019 228.29H400.919L401.699 226.43L403.539 227.49L413.529 224.58L415.629 228.3L419.309 229.37L420.359 232.29L423.249 231.23L425.359 233.63L424.579 242.39L427.209 253.29L428.259 255.15L434.309 256.22L435.099 258.08L437.199 259.14L441.919 250.11L446.919 252.24L458.479 248.27H461.629L466.369 256.24L468.209 257.04L472.409 254.39V253.32L480.289 249.08L485.009 235.53L486.849 233.67L494.729 231.29H498.929L504.449 232.36L507.609 237.41L510.499 238.47L511.549 242.46L513.399 244.32L521.279 246.45L527.329 251.24L528.119 257.09L527.329 256.29L524.179 264.26V267.18L529.179 277.01L535.229 280.2L549.679 283.13L555.729 277.82L555.719 275.17L558.609 274.11L564.389 267.21L571.489 268.01L576.999 265.09L588.819 250.23L598.799 244.39L608.519 242.54L607.729 236.42L615.349 238.56L614.299 236.43H616.139L621.139 251.31L626.399 257.16L630.079 256.37L633.759 261.42L637.969 264.34L649.529 268.07L646.899 272.32L633.769 277.88L626.419 283.19L614.329 285.83H607.759L596.719 282.1L587.789 290.06L584.909 296.69L585.959 301.74L590.169 300.95L596.739 305.73L599.889 309.71L597.529 314.49L598.849 320.59L595.699 325.36L597.539 326.69L596.759 330.4L592.819 336.5V341.27L590.979 345.52L587.829 346.31L587.049 352.14H585.999L587.049 354.26L584.949 361.15V365.13H587.849L598.889 370.97L606.509 371.77L607.819 374.95L609.669 391.91L609.679 404.63L607.849 407.54L606.539 417.34L604.699 423.43L600.769 428.45L599.979 433.22L594.989 438.24L593.969 447.46L526.209 447.83L524.169 456.42L522.799 458.07L487.659 468.68L483.199 467.82L481.479 458L478.329 450.86L480.429 447.15L484.099 446.1L486.199 442.92L485.149 434.19L480.409 424.13L476.199 422.27L475.409 417.24L471.469 413.53L469.359 409.55V402.67L468.309 401.61L464.629 400.81L460.419 401.6L450.699 399.47L447.019 403.44L438.089 402.64L437.299 396.55L434.399 393.63V386.74L437.289 383.83L439.909 371.64L442.009 369L440.949 366.87L438.059 365.02L432.019 363.16L434.379 358.92L430.169 356.26H426.489L423.339 353.08L423.329 346.18L426.489 344.33L424.639 341.14L414.399 347.24L412.559 350.15L406.779 354.12L404.679 355.18L401.789 354.12L399.949 355.18L392.069 361.8V363.13L389.189 366.04L387.079 366.83H384.189L378.149 360.99H375.259L372.359 358.07L366.579 358.86L361.849 356.21L354.759 361.77L350.819 360.97L349.759 354.08L345.029 347.18L346.079 345.33L347.919 346.12L348.699 342.15L352.119 338.17L349.749 336.31V332.33L353.949 326.5L349.739 321.46L347.889 314.29L348.679 303.68L350.769 297.58V291.74L352.869 288.82L357.599 286.7L358.649 282.98L365.479 278.74L366.519 275.82L370.469 277.68L373.349 267.86L377.289 264.94V262.28Z" fill="#CCCCCC" stroke="white" stroke-width="0.5"/>
<path d="M1142.68 525.38L1144.04 526.24L1143.84 529.75L1147.54 536.04L1155.98 546.67L1171.16 547.62L1179.78 543.73L1183.74 544.16L1185.15 541.05L1190.61 540.7L1187.89 551.05L1184.28 556.52L1184.44 565.09L1178.14 577.24L1179.1 582.28L1185.36 587.12L1190.11 583.78L1193.38 584.28L1192.61 588.3L1196.85 589.96L1196.87 591.84L1200.81 595.66L1209.29 600.31L1204.61 602.27L1196.69 599.62L1192.1 601.5L1188.12 606.55L1181.34 610.2L1179.37 612.57L1179.56 618.7L1173.35 634.86L1172.28 644.62L1175.72 649.76L1179.76 652.05L1188.76 650.04L1194.9 651.98L1200.42 650.75L1204.13 652.63L1211.36 669.56L1217.35 688.56L1221.71 695L1221.85 698.38L1218.36 704.49L1220.89 711.01L1225 716.23L1207.87 716.91L1200.74 701.97L1194.35 697.59L1192.63 701.17L1193.42 707.07L1190.21 709.19L1184.58 709.69L1184.89 706.73L1180.9 706.6L1178.88 704.67L1179.18 702.14L1180.21 698.73L1176.11 695.79L1174.11 697.02L1170.71 696.18L1168.36 698.65L1158.51 696.74L1155.19 694.88L1152.44 696.32L1150.21 695L1146 697.84L1143.84 697.96L1139.94 696.58L1138 697.24L1136.57 695.9L1133.27 695.71L1132.01 698.99L1129.14 701.24L1127.16 701.63L1125.48 705.47L1128.76 719.95L1126.74 724.44L1128.01 732.28L1125.35 735.59L1125.08 739.6L1128 741.26L1129.85 739.94L1136.35 745.59L1145.11 746.19L1151.25 750.99L1154.57 751.92L1159.39 744.65L1162.96 747.81L1166.17 745.8L1167.02 748.27L1164.44 751.54L1163.53 761.7L1164.16 763.08L1169.02 765.49L1171.95 770.8L1174.71 771.59L1174.87 776.45L1174.44 777.39L1170.41 775.79L1168.5 776.78L1167.26 775.59L1167.71 772.83L1165.87 772.12L1164.3 773.32L1159.21 773.18L1156.42 774.84L1155.45 776.77L1157.13 778.59L1155.09 785.47L1146.62 801.92L1147.04 804.23L1154.1 810.24L1154.17 813.23L1151.75 816.8L1150.43 824.48L1145.55 826.34L1142.89 829.23L1142.26 835.46L1137.61 841.33L1137.49 847.65L1134.05 853.69L1130.53 855.56L1123.56 849.97L1118.27 848.41L1116.07 844.39L1112.82 844.71L1108.87 848.11L1105.11 849.12L1103.41 848.09L1102.58 843.47L1101.21 842.61L1097.19 843.28L1088.18 852.11L1072.86 840.35L1074.59 836.43L1073.77 829.34L1057.37 828.75L1052.72 835.48L1049.56 838.02L1050 841.69L1046.95 852.51L1047.47 853.65L1048.76 853.43L1049.19 859.75L1041.26 868.65L1038.27 869.69L1037.52 875.6L1034.75 875.77L1032.36 877.39L1026.67 886.3L1028.76 892.13L1027.92 894.67L1028.7 896.83L1026.3 900.15L1023.76 901.01L1017.28 900.52L1015.18 896.08L1011.66 896.48L1012.26 898.49L1011 900.27L1009 899.08L1007.24 902.07L998.52 903.39L990.42 910.43L987.4 910.15L984.09 911.65L985.79 906.33L982.59 901.24L982.18 898.43L975.97 898.48L969.97 893.57L968.17 890.69L967.35 885.65L968.02 880.81L963.87 879.36L956.09 880.98L953.78 879.57L952.68 873.88L950.33 872.82L946.95 873.64L943.66 872.79L938.63 878.75L935.94 879.5L933.65 873.74L926.13 878.97L922.63 883.88L922.48 881.61L926.16 872.04L932.36 865.78L939.33 847.52L942.5 842.61L942.92 840.38L940.02 837.08L940.27 831.09L944.67 820.09L943.82 815.88L942.46 815.73L942.13 812.26L937.02 810.1L931.58 801.33L930.1 787.19L933.84 781.98L931.93 778.59L931.88 775.77L930.3 774.25L930.89 770.69L926.63 773.31L925.57 772.62L928.08 766.8L925.69 761.17L924.99 751.19L915.71 748.97L917.36 740.48L916.24 738.5L920.93 734.43L918.44 731.42L918.81 727.21L915.66 724.71L921.25 721L922.62 718.58L922.26 716.34L913.49 715.25L908.92 711.96L905.87 707.08L901.52 711.38L893.5 712.13L893.33 709.09L898.41 704.03L897.89 702.81L892.56 697.84L887.4 697.36L885.3 699.13L884.55 704.33L883.18 705.15L882.24 701.92L878.63 696.96L880.24 692.68L876.28 687.8L874.04 687.4L871 690.46L869.6 690.26L868.87 691.63L870.56 693.92L868.88 695.54L864.21 695.74L861.88 698.04L859.88 695.86L849.93 696.3L841.01 701.71L837.5 705.68L833.97 705.58L827.57 709.04L825.56 707.66L827.64 696.66L822.38 692.99L820.1 693.43L816 691.78L812.62 692.79L809.73 693.53L804.85 696.05L801.67 699.2L798.88 698.99L796.91 698.06L792.32 697.36L789.44 698.48L782.11 695.49L776.75 697.93L773.13 697.14L769.43 704.21L765.66 707.57L762.14 713.29L752.35 723.08L745.54 727.76L741.25 727.71L740.12 724.74L738.37 723.7L725.71 722.27L721.82 728.48L721.32 733.45L718.32 733.82L719.42 731.93L718.75 728.25L722.08 719.18L729.15 714.5L728.49 708.5L729.73 699.88L731.4 698.75L732.85 697.5L734.21 689.08L737.52 687.76L740.68 684.12L741.26 680.13L743.43 680.14L747.08 677.5L750.58 677.74L757.36 673.17L757.37 670.77L759.4 667.09L757.19 666.17L755.35 662.55L753.22 660.34L751.45 657.94L750.54 656.68L748.47 650.9L743.32 646.17L740.05 645.62L740.63 642.77L738.54 631.51L739.21 624.4L738.16 617.59L740.6 607.21L738.41 603.84L740.16 602.75L742 604.86L745.94 601.7H758.55L760.65 599.86L762.49 595.11V598.8L765.65 602.77V605.93L759.61 611.47L760.66 613.84L759.61 616.75H763.82L764.61 615.7L777.22 612.8L781.16 609.64L782.2 602.78L783.25 601.72L786.14 601.73L787.98 602.78L791.14 607.8L791.15 615.71L789.83 617.56H791.15L792.2 620.46L794.83 620.47L795.88 621.79H800.87L802.72 626.54L806.66 627.34V632.61H809.81L816.38 624.71L819.53 625.5L819.54 632.62L825.32 634.47L827.16 632.63L832.15 631.58L833.99 627.36L833.98 622.61L837.14 621.82L838.19 622.61L837.14 631.58L838.2 633.43L838.99 643.19L841.88 645.3L843.72 643.19L844.77 645.3L846.87 643.19L847.93 644.25L851.6 642.4L853.7 639.24L856.86 638.19L859.49 640.56L868.42 639.25L870.26 635.3L876.3 631.61L879.98 633.46H885.23L887.86 631.62H893.9L900.48 634.53L913.35 635.33L931.22 630.33L935.95 630.34L948.83 638.26L960.4 649.08L969.33 652.25L975.38 652.26L991.67 646.2L1000.6 647.27L1010.33 651.23L1012.43 650.44L1027.92 638.32H1029.24L1032.12 631.73L1035.8 627.51L1048.67 622.77L1051.56 619.61V615.92L1047.88 610.9L1046.56 606.94V601.92L1048.65 597.18L1049.7 590.31L1052.59 586.36L1057.58 582.4V577.65L1060.46 572.63L1061.25 565.5L1064.14 562.6L1064.13 550.98L1062.28 536.98L1064.11 534.07V531.43L1065.16 530.37L1066.48 532.22L1067.27 536.98L1069.11 538.04L1070.16 541.21L1075.16 540.16L1076.2 534.08L1078.04 533.29L1079.09 535.14L1081.72 531.44L1084.87 532.24L1086.97 528.28L1085.92 524.31L1086.97 523.52H1090.65L1094.85 525.38L1102.73 519.3L1108.25 517.46L1141.64 516.43L1141.24 524.3L1142.68 525.38Z" fill="#CCCCCC" stroke="white" stroke-width="0.5"/>
</svg>
