<svg width="800" height="614" viewBox="0 0 800 614" fill="none" xmlns="http://www.w3.org/2000/svg">
<path d="M583.96 509.15L578.61 506.44L571.26 502.79L561.17 502.15L551.87 506.51L544.95 514.84L542.13 517.01L538.74 517.12L531.86 520.08L525.37 520.89L521.65 521.34L518.47 524.06L513.11 524.76L507.67 524.99L504.4 527.8L501.33 530.71L496.46 530.01L492.06 527.6L491.31 531.84L489.77 535.52L486.36 538.22L484.17 542.36L474.9 540.01L465.39 536.78L460.65 539.63L457.48 543.05L451.45 539.98L448.28 535.35L444.14 535.1L439.77 534.8L432.31 536.45L426.37 537.25L423 530.77L418.96 525.4L417.85 534.16L414.26 542.5L414.28 548.98L414.83 555.46L415.5 560.63L416.38 565.77L416.07 567.21L422.43 567.92L433.04 570.74L442.93 574.63L450.3 578.9L457.87 575.99L473.33 577.51L481.09 572.5L483.07 573.94L484.74 574.39L488.9 574.69L488.35 573.34L487.54 570.01L486.98 568.66L493.75 569.09L526.7 566.05L530.99 566.83L538.64 569.8L541.91 569.72L544.56 566.83L542.66 555.48L544.17 554.32L547.55 555.6L553.18 558.57L575.17 554.56L616.02 554.02L645.17 554.3L667.54 550.53L678.45 550.55L687.55 554.06L696.67 558.84L718.71 566.41L728.56 572.6L737.11 580.34L756.69 605.9L761.27 609.03L764.62 600.11L765.64 595.01L765.01 586.45L765.2 581.54L764.54 578.24L761.52 569.79L761.1 567L761.89 561.19L764.1 555.65L776.55 534.19L776.72 533.9L776.45 533.94L751.94 538.2L737.44 529.16L718.56 527.69L694.99 528L670.77 522.49L646.42 517.47L622.54 518.96L599.34 517.56L595.48 513.21L592.07 508.53L583.96 509.15Z" fill="#CCCCCC" stroke="white" stroke-width="0.5"/>
<path d="M468.64 413.72L471.92 407.88L472.72 400.4L471.72 392.77L469.59 386.36L461.45 376.3L441.52 367.9L420.17 357.07L400.97 350.77L362.05 334.36L355.42 333.6L349.4 334.44L343.68 336.68L338.78 339.99L335.31 343.89L334.36 347.15L335.22 350.42L337.08 353.47L339.13 356.04L340.6 357.35L345.84 361.08L351.48 369.07L358.19 373.48L383.14 380.29L407.84 396.28L416.8 398.49L425.33 399.15L450.3 404.74L456.62 405.15L458.76 405.72L461.16 407.84L463.67 413.15L465.65 414.97L468.64 413.72ZM548.35 336.82L527.19 333.8L509.32 333.13L504.63 336.59L500.71 341.59L500.7 341.6L505.17 343.89L509.96 345.44L515.86 349.2L521.47 353.8L525.43 357.86L539.8 380.29L542.16 385.91L544.56 388.58L554.14 394.44L560.94 393.65L566.36 397.91L571.41 404.05L577.09 408.95L580.39 409.96L587.2 410.18L590.65 410.78L603.44 417.04L605.96 418.86L607.47 422.39L606.45 424.6L604.29 426.98L602.32 430.99L601.86 434.32L602.32 452.32L601.69 459.2L599.41 464.16L594.48 465.49L591.8 463.98L585.97 457.41L585.08 457.06L584.54 456.32L583.72 455.57L581.96 455.21L581 455.84L580.55 457.23L579.83 458.63L578.13 459.25L531.39 455.07L522.49 457.05L515.69 465.49L510.99 475.87L505.39 484.97L497.78 491.45L486.98 493.91L467.07 490.54L462.98 488.78L458.03 488.81L450.53 491.46L445.18 492.51L446.63 487.68L422.36 481.8L402.65 485.33L404.25 488.62L404.38 492.2L400.03 499.57L400.66 507.51L407.66 507.79L412.51 512.69L414.57 519.86L418.96 525.4L423 530.77L426.37 537.25L432.31 536.45L439.77 534.8L444.14 535.1L448.28 535.35L451.45 539.98L457.48 543.05L460.65 539.63L465.39 536.78L474.9 540.01L484.17 542.36L486.36 538.22L489.77 535.52L491.31 531.84L492.06 527.6L496.46 530.01L501.33 530.71L504.4 527.8L507.67 524.99L513.11 524.76L518.47 524.06L521.65 521.34L525.37 520.89L531.86 520.08L538.74 517.12L542.13 517.01L544.95 514.84L551.87 506.51L561.17 502.15L571.26 502.79L578.61 506.44L583.96 509.15L592.07 508.53L595.48 513.21L599.34 517.56L622.54 518.96L646.42 517.47L670.77 522.49L694.99 528L718.56 527.69L737.44 529.16L751.94 538.2L776.45 533.94L776.72 533.9L780.02 528.21L779.41 527.35L776.83 525.04L772.83 522.4L757.77 516.71L747.2 509.63L744.93 507L740.67 500.69L738.31 498.59L727.38 495.84L723.18 493.52L721.5 488.05L722.55 484.81L724.65 483.6L726.14 481.98L725.45 477.55L723.64 474.75L698.3 448.68L695.81 443.84L700.63 440.2L711.04 437.99L732.11 441.9L742.96 438.17L746.61 434.24L752.37 424.37L756.19 420.08L756.91 419.63L756.82 419.51L754.93 417.2L744.33 410.87L732.6 407.8L723.19 404.38L713.63 401.04L691.08 405.17L668.89 412.42L647.52 405.03L630.65 388.32L622.3 382.54L612.74 380.12L603.54 374.3L596.22 364.48L589.65 357.68L582.11 352.14L574.71 349.14L567.71 346.11L564.91 341.55L561.88 337.26L554.94 337.58L548.35 336.82Z" fill="#CCCCCC" stroke="white" stroke-width="0.5"/>
<path d="M685.13 113.58L684.38 113.21L683.49 111.82L682.25 110.43L679.98 109.78H670.31L667.6 108.92L663.56 104.83L661.62 103.52L660.05 103.11L659.09 103.04L648 105L643.42 104.52L638.67 101.66L641.05 94.48L637.29 91.28L631.76 91.43L628.94 94.36L626.7 98.75L621.6 100.42L615.87 99.89L611.71 97.61H609.96L611.06 100.74L611.71 101.66V103.52L611.3 102.94L610.61 103.91L610.03 105.17L609.96 105.53L610.88 105.63L612.7 105.48L613.62 105.53L609.96 109.78L611.01 112.37L609.96 112.75L605 111.64L603.77 110.33L600.23 101.66L604.63 102.92L605.96 103.52V101.66L592.43 88.98L590.65 84.28L587.15 85.32L579.2 83.28L570.72 79.99L565.61 77.25L561.32 80.05L553.52 77.22L546.02 72.12L540.18 64.83L537.92 66.46L535.14 70.65L533.34 74.25L531.02 76.07L527.89 79.02L524.22 82.26L521.26 81.89L518.49 80.12L514 78.95L510.09 80.01L509.17 83.58L509.24 85.38L512.56 92.58L518.32 97.12L519.13 103.77L525.17 102.94L531.02 107.28L528.38 117.34L531.88 122.45L538.66 125.37L542.52 137.21L547.14 149.32L554.9 157.01L563.38 163.86L573.39 168.04L581.81 165.34L581.83 157.64L587.41 157.82L592.58 152.86L597.39 152.43L601.47 154.52L606.87 157.29L608.22 176.17L619.03 186.23L630.29 191.78L635 202.39L633.56 210.62L634.89 219.08L639.57 227.52L642.5 235.51L650.77 238.43L656.91 244.58L659.48 248.46L664.92 247.94L684.29 235.82L704.48 225.46L699.82 210.14L685.68 195.75L680.46 194.22L675.3 192.81L678.08 188.43L678.95 180.55L674.17 172.81L671.3 164.02L667.53 156.99L666.7 150L667.8 146.22L667.6 142.13L670.99 139.89L675.49 138.93L681.47 130.11L682.72 118.63L683.79 116.39L685.13 113.59V113.58Z" fill="#CCCCCC" stroke="white" stroke-width="0.5"/>
<path d="M766.54 114.16L754.77 113.85L747.52 112.22L744.31 112L742.17 113.85L741.71 116.83L742.72 119.45L744.7 121.28L750.88 122.9L751.49 125.03L749.98 129.11L748.6 130.06L745.48 128.1L740.41 123.82L736.26 124.5L731 125.98L726.14 125.41L723.2 119.96L731.02 120.07L734.35 119.51L736.78 117.92L738.48 114.18L736.47 112.68L728.94 111.64L715.24 107.6L707.29 107.54L701.96 111.64L698.75 112.53L696.96 114.69L695.53 116.91L693.37 117.92L690.81 117.28L687 114.5L685.13 113.58V113.59L683.79 116.39L682.72 118.63L681.47 130.11L675.49 138.93L670.99 139.89L667.6 142.13L667.8 146.22L666.7 150L667.53 156.99L671.3 164.02L674.17 172.81L678.95 180.55L678.08 188.43L675.3 192.81L680.46 194.22L685.68 195.75L699.82 210.14L704.48 225.46L714.46 231.4L724.84 236.16L730.06 240.58L737.67 241.65L744.06 242.88L749.21 242.51L759.12 243.37L768.63 242.13L768.76 242.11L767.58 240.9L762.58 233.84L761.19 227.92L763.03 226.04L770.59 221.72L773.25 219.61L776.8 210.56L778.35 208.86L781.55 202.04L781.74 188.77L778.39 165.52L770.56 146.9L769.27 140.15L769.73 132.34L770.01 127.61L769.01 122.35L766.54 114.16Z" fill="#CCCCCC" stroke="white" stroke-width="0.5"/>
<path d="M744.06 242.88L737.67 241.65L730.06 240.58L724.84 236.16L714.46 231.4L704.48 225.46L684.29 235.82L664.92 247.94L659.48 248.46L656.91 244.58L650.77 238.43L642.5 235.51L629.66 253.63L628.06 275.12L635.59 282.66L632.97 288.97L633.58 296.18L635.47 304.96L631.62 320.02L633.32 334.84L634.13 342.7L630.28 352.33L629.22 361.48L622.63 365.24L609.34 363.68L596.22 364.48L603.54 374.3L612.74 380.12L622.3 382.54L630.65 388.32L647.52 405.03L668.89 412.42L691.08 405.17L713.63 401.04L723.19 404.38L732.6 407.8L744.33 410.87L754.93 417.2L756.82 419.51L756.91 419.63L758.84 418.43L766.36 413.76L770.29 410.53L773.64 405.02L775.56 400.02L776.93 394.55L777.35 388.99L775.09 377.36L774.8 365.35L773.25 359.87L771.17 357.19L764.75 351.3L762.19 348.28L758.22 339.89L755.66 337.8L749.1 337.58L742.13 339.97L737.11 340.76L736.28 335.62L741.12 332.35L755.5 328.46L759.18 326.17L771.33 312.66L779.71 300.87L783.96 297.05L793.46 290.21L796.99 284.96L798.42 279.87L799.7 262.17L796.16 260.45L778 251.59L768.76 242.11L768.63 242.13L759.12 243.37L749.21 242.51L744.06 242.88Z" fill="#CCCCCC" stroke="white" stroke-width="0.5"/>
<path d="M509.24 85.38L500.72 84.18L493.84 89.15L489.17 91.86L483.29 93.4L465.88 108.36L444.73 112.09L433.28 109.96L421.71 109L410.41 106.2L399.61 107.26L386.43 121.22L384.19 137.47L384.47 138.27L387.29 138.56L392.81 139.94L395.68 140.27L413.04 146.71L415.84 145.45L417.71 145.89L427.6 154.35L432.19 156.51L437.51 157.79L452.38 167.04L470.23 175.23L475.5 179.04L479.2 183.59L481.66 187.55L485.33 190.24L499.81 191.16L502.64 192.75L508.05 203.56L504.53 203.49L501.84 202.07L499.88 200.39L498.48 199.5L494.45 198.77L493.81 198.53L494.52 199.83L494.99 206.66L495.98 209.11L495.82 211.29L492.73 213.54L489.96 213.97L487.27 213.11L484.93 211.5L483.16 209.66L481.96 213.38L481.52 219.54L482.62 225.34L485.95 227.89L491.56 228.4L494.45 230.03L498.48 238.04L495.19 237.47L490.68 237.67L486.23 238.55L483.16 240.07L481.32 242.81L478.24 249.65L475.5 252.24L475.25 253.81L475.56 254.39L475.34 254.92L473.43 256.29L475.2 261.02L481.93 272.96L484.9 276.72L489.55 279.48L494.64 281.43L498.72 284.33L500.38 289.9L497.78 294.26L491.84 296.25L481.09 296.98L469.23 301.79L470.58 309.39L499.95 341.22L500.7 341.6L500.71 341.59L504.63 336.59L509.32 333.13L527.19 333.8L548.35 336.82L554.94 337.58L561.88 337.26L564.91 341.55L567.71 346.11L574.71 349.14L582.11 352.14L589.65 357.68L596.22 364.48L609.34 363.68L622.63 365.24L629.22 361.48L630.28 352.33L634.13 342.7L633.32 334.84L631.62 320.02L635.47 304.96L633.58 296.18L632.97 288.97L635.59 282.66L628.06 275.12L629.66 253.63L642.5 235.51L639.57 227.52L634.89 219.08L633.56 210.62L635 202.39L630.29 191.78L619.03 186.23L608.22 176.17L606.87 157.29L601.47 154.52L597.39 152.43L592.58 152.86L587.41 157.82L581.83 157.64L581.81 165.34L573.39 168.04L563.38 163.86L554.9 157.01L547.14 149.32L542.52 137.21L538.66 125.37L531.88 122.45L528.38 117.34L531.02 107.28L525.17 102.94L519.13 103.77L518.32 97.12L512.56 92.58L509.24 85.38Z" fill="#CCCCCC" stroke="white" stroke-width="0.5"/>
<path d="M223.77 589.09L222.17 588.67L220.91 589.88L220.01 592.82L227.05 599.37L231.34 601.99L236.25 603.07L247.15 603.63L252.86 603.09L256.35 600.86V596.68L252.35 594.26L246.8 593.11L242.08 592.82H233.37L231.43 591.54L230.32 589.54L228.78 588.73L225.56 590.97L223.77 589.09ZM192.16 612.95L195.87 612.05L196.54 609.78L195.11 603.99L193.35 599.4L181.56 586.79L186.44 578.72L191.52 573.67L211.57 564.36L223.82 554.56L224.12 553.53L223.79 552.21L223.68 551.03L224.68 550.53L227.69 551.18L229.33 551.83L229.56 552.55L231.84 550.27L235 546.09L237.2 544.3L234.49 551.06L233.57 554.6L233.37 558.57L237.4 555.4L240.87 547.69L244.85 546.5L243.45 551.35L244.68 555.16L247.47 556.68L250.77 554.56H252.52L256.31 556.65L258.39 552.33L260.42 546.57L264.16 544.3L266.21 545.96L268.63 551.37L270.86 552.55L274.29 551.85L283.3 546.5L289.91 544.66L312.6 544.48L331.32 546.5V548.33L321.2 548.25L317.48 549.71L316.01 553.56L318.6 554.28L335.31 552.55L372.53 558.57L374.98 559.41L383.14 564.62L385.46 564.98L392.88 564.62L416.07 567.21L416.38 565.77L415.5 560.63L414.83 555.46L407.69 545.69L405.43 532.86L396.48 524.52L385.85 515.85L379.07 513.96L372.69 515.88L365.61 515.07L358.26 514.19L343.42 514.48L328.83 512.45L320.07 516.03L310.01 518.66L301.16 518.35L292.32 519.21L274.46 522.08L260.25 518.46L263.05 512.1L265.56 507L259.3 503.83L255.26 498.82L250.35 494.61L242.71 493.94L233.72 495.19L227.36 500.53L222.62 498.97L216.99 496.13L207.7 496.56L198.6 495.3L189.66 497.83L180.7 500.27L174.22 500.29L167.74 500.44L163.86 506.27L164.34 513.27L151.03 512.19L137.67 508.37L126 504.44L114.18 501.52L85.7802 503.8L57.6502 509.57L42.3302 512.83L26.8102 514.37L19.0202 512.91L12.3102 513.62L11.2502 514.11L11.2402 514.12L13.1202 518.43L23.6602 523.77L26.0502 527.08L28.3502 529.53L33.7902 532.57L40.1802 535.16L45.3502 536.24L51.5102 534.34L57.4202 530.67L63.0302 528.29L68.3302 530.19L70.2202 528L72.5702 529.38L79.8002 532.21L82.7202 532.99L85.1002 533.14L86.6802 534.1L87.2802 537.25L88.5802 540.04L91.6302 542.27L95.2202 543.76L103.78 545.2L108.65 547.58L135.79 567.6L141.01 572.5L141.76 573.76L141.9 574.69L142.13 575.59L143.12 576.71L144.11 577.3L146.23 578.23L147.12 578.9L165.05 604.72L166.12 609.06L168.16 611.11L170.88 612.42L173.6 612.88L192.16 612.95Z" fill="#CCCCCC" stroke="white" stroke-width="0.5"/>
<path d="M481.09 44.51L472.38 44L463.04 45.19L454.11 47.53L446.63 50.62L441.21 48.61L434.78 49.24L429.5 52.11L427.49 56.73L424.52 53.93L420.63 52.48L416.34 52.11L412.2 52.66L406.6 54.16L404.75 54.44L401.41 54.51L397.49 53.92L390.1 51.23L386.01 50.62L378.05 51.54L374.85 50.45L371.5 46.36L365.88 54.19L355.9 61.49L321.76 77.25L316.11 77.61L310.4 77.14L305.06 77.71L300.53 81.14H316.01V83.36L301.37 90.22L298.62 90.29L297.14 93.66L287.14 109.78L287.95 113.27L288.47 119.51L290.02 125.45L293.91 128.09L296.63 129.34L301.58 134.93L303.57 136.22L306.67 136.52L311.96 137.92L338.67 139.27L350.71 137.69L356.36 132.15L360.15 135.5L366.19 138.86L372.38 141.45L376.55 142.48L379.53 141.83L381.38 140.36L382.68 138.91L384.1 138.23L384.47 138.27L384.19 137.47L386.43 121.22L399.61 107.26L410.41 106.2L421.71 109L433.28 109.96L444.73 112.09L465.88 108.36L483.29 93.4L489.17 91.86L493.84 89.15L500.72 84.18L509.24 85.38L509.17 83.58L510.09 80.01L514 78.95L518.49 80.12L521.26 81.89L524.22 82.26L527.89 79.02L531.02 76.07L533.34 74.25L535.14 70.65L537.92 66.46L540.18 64.83L539.19 63.6L522.56 58.41L516.73 55.62L509.69 51.23L481.09 44.51ZM484.9 7.69L478.53 3.91L473.7 1.76L468.29 1L460.2 1.38L446.04 3.32L433.07 7.69L431.44 9.15L430.66 9.53L429.43 9.52L433.42 13.24L439.65 16.41L446.52 18.71L452.38 19.9L455.41 19.37L458.74 18.12L461.95 17.5L466.6 19.63L480.21 22.72L491.23 27.06L514.97 30.35L519.52 32.3L522.7 25.33L511.42 18.15L484.9 7.69Z" fill="#CCCCCC" stroke="white" stroke-width="0.5"/>
<path d="M402.65 485.33L395.58 486.59L390.86 486.27L386.62 484.65L381.42 481.62L371.53 477.91L360.56 476.95L338.11 477.77L331.88 476.5L320.72 470.8L315.05 469.52L270.73 466.11L258.69 467.62L248.86 473.56L244.46 471.35L235.55 472.65L230.61 470.44L229.38 468.13L229.49 465.87L229.19 464.13L224.57 463L219.92 460.51L218.07 459.25L224.18 457.09L229.6 456.47L234.99 457.21L241.03 459.25V457.41L248.47 458.57L254.15 454.73L253.99 449.65L244 447.15L240.35 447.66L227.65 451.35L225.44 451.43L223.13 451.24L220.91 451.34L219.03 452.29L215.47 456.7L215.13 457.41L213.96 458L211.13 460.1L211.12 460.13L208.79 464.99L203.93 470.55L205.3 474.67L209.91 476.84L203.66 483.89L198.6 495.3L207.7 496.56L216.99 496.13L222.62 498.97L227.36 500.53L233.72 495.19L242.71 493.94L250.35 494.61L255.26 498.82L259.3 503.83L265.56 507L263.05 512.1L260.25 518.46L274.46 522.08L292.32 519.21L301.16 518.35L310.01 518.66L320.07 516.03L328.83 512.45L343.42 514.48L358.26 514.19L365.61 515.07L372.69 515.88L379.07 513.96L385.85 515.85L396.48 524.52L405.43 532.86L407.69 545.69L414.83 555.46L414.28 548.98L414.26 542.5L417.85 534.16L418.96 525.4L414.57 519.86L412.51 512.69L407.66 507.79L400.66 507.51L400.03 499.57L404.38 492.2L404.25 488.62L402.65 485.33Z" fill="#CCCCCC" stroke="white" stroke-width="0.5"/>
<path d="M218.07 443.11L217.97 436.55L210.95 432.59L201.79 431.86L195.11 435.02L195.7 442.94L202.67 446.93L211.61 446.98L218.07 443.11ZM93.25 426L82.1 423.59L66.36 422.7L63.07 422.9L59.96 423.81L58.56 425.85L57.38 428.26L54.52 428.35L48.05 426.77L42.75 427.7L30.3 432.76L20.8 438.32L18.63 441.06L19.35 444.2L20.44 446.5L21.55 450.21L22.03 453.67L21.27 455.21L17.09 458.24L13.8 471.93L8.67 475.58L9.9 478.44L10.74 479.62L1 493.91L8.28 503.13L10.11 507.22L10.74 512.99L11.24 514.12L11.25 514.11L12.31 513.62L19.02 512.91L26.81 514.37L42.33 512.83L57.65 509.57L85.78 503.8L114.18 501.52L126 504.44L137.67 508.37L151.03 512.19L164.34 513.27L163.86 506.27L167.74 500.44L174.22 500.29L180.7 500.27L189.66 497.83L198.6 495.3L203.66 483.89L209.91 476.84L205.3 474.67L203.93 470.55L208.79 464.99L211.12 460.13L211.13 460.1L210.38 460.66L208.67 461.45L206.16 461.42L202.7 459.71L199.9 459.25L198.41 459.79L197.48 460.84L196.08 461.67L193.2 461.45L191.42 460.41L185.39 455.21L182.1 453.77L179.12 453.19L166.52 452.72L162.9 451.42L154.76 447.15L153 447.34L151.05 448.35L149.49 448.52L148.85 446.22L148.47 445.61L146.64 443.55L146.06 443.11L129.92 442.39L93.25 426Z" fill="#CCCCCC" stroke="white" stroke-width="0.5"/>
</svg>
