<svg width="614" height="445" viewBox="0 0 614 445" fill="none" xmlns="http://www.w3.org/2000/svg">
<path d="M316.54 236.42L315.91 238.21L316.96 239.16L314.41 241.44L312.28 240.07L309.73 241.44L308.46 240.53L304.21 239.62L302.51 241.9L301.24 241.44L299.96 241.9L300.82 243.73L304.64 244.64L304.83 248.16L309.31 249.21L309.53 252.55L308.39 255.24L299.8 262.68L301.86 266.4L300.4 267.3H297.32L290.59 262.18L291.72 258.56L293.68 259.16L303.78 255.55L303.5 253.74L301.81 253.44L296.77 255.25L294.81 254.35L293.13 246.51L297.9 245.31L297.61 243.8L296.21 243.5L292.28 245.01L291.73 241.7L288.64 233.86L287.8 233.56L286.4 234.77L283.31 232.06L283.6 224.83L281.91 221.51L280.51 222.11V220.91H279.95L280.51 218.64L280.89 218.53L281.09 218.55L288.94 214.52L293.19 207.67L305.34 206.76L305.08 201.73L306.36 198.99L305.94 197.62L304.24 197.16V195.79L313.17 193.51L314.02 194.42L312.8 196.54L313.18 199.44L316.15 199.9L318.28 198.53V201.27L317 202.64L314.45 203.1L313.6 205.39L316.15 208.59L314.02 209.96L313.17 212.24L314.87 216.35L314.44 217.72L312.75 218.63L310.2 222.28L311.05 231.42L314.02 232.79V234.16L316.54 236.42ZM269.28 216.08L273.48 216.68L277.41 219.09L277.12 225.12L279.08 228.13L278.8 229.94L280.2 232.05L281.6 232.65L280.48 237.47L280.76 238.67L282.72 240.18L282.17 242.59L283.57 245.3L281.88 248.01L282.44 250.12L281.31 250.42L280.47 253.73L278.51 254.94L277.67 258.26H275.99L273.74 255.25H271.78L270.94 256.45H269.82L267.86 255.55L267.02 253.44H264.77L263.93 254.34L264.21 257.35L260.85 257.65L257.2 252.53L258.33 248.01L259.73 246.2L259.17 244.69L258.33 245.59L257.77 245.29L258.05 244.09H258.9V243.48L257.78 243.78V239.86L259.46 239.56L258.06 238.66L253.86 238.06L252.74 236.25V233.54H250.49L249.65 231.13V229.02L250.49 227.51L249.37 224.19L247.97 222.68L248.25 221.47L252.74 218.76L255.26 218.46L256.11 216.35L258.07 216.65L258.63 218.76L260.32 219.06L263.4 216.95H266.77L267.61 216.05H269.28V216.08Z" fill="#CCCCCC" stroke="white" stroke-width="0.5"/>
<path d="M393.02 248.75L384.1 250.12L381.13 247.38L379 248.3L374.75 247.84L373.9 246.93L371.35 246.47L364.55 251.04L361.58 248.75L359.88 248.3L358.6 249.67H356.9V247.38L355.63 246.93V243.27L353.08 241.9L353.93 237.79L352.23 236.42H350.96V234.59L349.26 232.31L353.08 230.48L356.06 231.4L361.07 230.48L360.73 227.74L361.58 226.83H363.28L364.55 228.65L367.1 228.2L369.23 224.54L370.5 225.46L377.3 225L379 224.08L380.27 224.54L382.83 224.08L383.25 222.26H385.38L387.5 220.89H391.32L391.03 229.27L393.38 244.61L393.02 248.75Z" fill="#CCCCCC" stroke="white" stroke-width="0.5"/>
<path d="M281.07 218.53L281.33 216.98L280.49 214.56L278.53 213.05L277.69 210.95L273.76 208.24H272.08L268.71 210.05L267.87 211.25L263.94 211.55V212.15L261.14 212.45L260.3 213.35H258.05L257.21 214.56L251.6 211.24L246.83 210.64L241.79 213.35L240.1 215.16L239.82 216.67L236.73 217.27L233.36 216.67L231.67 214.56L228.04 214.86L226.35 214.26L225.51 215.47H223.83L221.58 217.88L218.5 218.48L217.38 220.6L211.5 219.69L210.65 220.6H209.53L208.13 222.71L207.57 222.41L207.01 223.91L203.37 223.61L201.95 224.82L198.89 225.42V226.04L195.56 225.42L194.41 224.6L194.56 220.9L198.39 218.16L202.21 213.14L205.61 212.68L206.88 211.77L207.31 210.4L206.88 209.03L203.06 209.95L201.78 209.03L200.51 204.92L198.38 204.46V200.8L200.08 199.89L201.78 200.8L203.06 200.34L206.46 196.23L211.56 198.97H214.12L213.27 194.4L214.97 191.66L221.77 193.94L223.47 192.11L229.41 192.57L231.54 192.11V189.37L232.82 187.08L237.49 183.88L239.18 183.42L240.46 184.33L243.01 179.76L244.28 180.22L247.68 179.76L251.93 175.19L253.62 174.27L256.17 174.73L258.73 176.56H260.85L265.96 172.45L268.51 168.8L272.33 168.34L273.61 169.25L274.03 170.62H275.31L276.58 169.71L278.28 170.17L280.83 169.25L281.68 167.42L285.08 164.68L287.21 165.59H290.61V164.22L293.16 161.48L293.58 158.74L293.51 160.45L297.88 158.9L314.74 159.61L315.26 163.76L323.94 163.79L326.5 164.5L329.91 162.97L335.65 163.57L335.23 167.41L336.93 169.24L337.35 172.44V175.64L335.65 176.56L336.51 182.5L335.65 183.87L331.83 186.61L330.55 189.35L327.58 191.64L325.03 194.84L320.36 196.21L318.23 198.5L316.1 199.87L313.13 199.41L312.75 196.51L313.97 194.39L313.12 193.48L304.19 195.76V197.13L305.89 197.59L306.31 198.96L305.03 201.7L305.29 206.73L293.14 207.64L288.89 214.49L281.07 218.53ZM204.52 270.31L162.47 269.86L165 266.7L166.68 262.78L168.08 262.48L169.21 263.38L169.77 262.48L175.65 260.07L176.49 258.86L179.3 258.56L179.02 255.55L180.98 254.95L182.38 253.44H185.47L187.43 249.83L188.28 250.13V251.64L191.65 250.43L190.25 246.21H191.37L192.77 247.42V249.53L192.49 251.04L190.53 252.55V254.66L188.57 256.17V257.68L192.5 256.17L195.3 253.16V252.26L197.83 248.94L201.75 245.93L203.44 245.63L205.4 243.82L206.8 243.52L207.92 242.32L208.48 240.21L210.17 239.61L210.45 241.12L212.13 241.42L212.42 240.52L211.58 238.71L212.7 238.11L212.42 235.1L212.98 234.5L216.06 235.71L217.46 235.41L219.7 236.61L223.35 240.23L223.63 242.64L226.43 247.16L223.06 248.67L223.62 251.99L225.31 253.2V254.1L224.46 255.61H223.62L223.34 258.32L221.94 260.43L223.9 261.94L224.18 263.15L221.94 262.25L219.14 265.86L214.93 265.56L214.65 267.67L213.25 268.27L211.29 267.37L211.01 265.86L208.48 263.15L207.92 260.14L206.52 258.63H204.84L204.55 258.03L202.31 258.33L203.15 260.74L202.87 261.94H203.43L203.99 265.56L204.83 266.46L204.52 270.31ZM228.91 224.21L229.47 226.02L232.27 224.81L233.67 225.11L233.38 226.31H231.99V229.02L230.87 229.62L230.31 231.13L231.15 232.64L232.84 232.34L234.52 235.05V236.25L227.51 239.57L226.67 237.16L225.27 236.25V234.74L223.02 233.23L222.47 231.72L225.27 231.42L225.55 230.82L225.83 227.81L224.15 227.21L224.99 225.1L226.68 224.19H228.91V224.21ZM280.49 218.62L280.87 218.51L280.49 218.62Z" fill="#CCCCCC" stroke="white" stroke-width="0.5"/>
<path d="M316.54 236.42H319.09L320.37 234.13L322.07 235.05L324.18 234.13L328.01 235.96L329.71 233.68H330.98L332.26 232.31L334.81 234.59L337.36 235.05L339.48 234.13L342.46 234.59L342.88 236.42L341.61 238.25V239.62L344.16 241.44L345.86 245.55V250.58L343.74 256.06L342.46 255.15H330.98L330.14 256.06L331.36 257.44L329.71 257.89L326.27 260.66L325.46 258.8L323.34 256.97L321.63 258.8L321.6 260.62L315.54 256.16H313.57L312.17 258.56L314.98 260.38L316.1 262.18L312.74 265.5L313.3 267.31L312.46 268.81H311.33L309.09 266.1L302.92 265.8L301.86 266.4L299.81 262.68L308.4 255.24L309.54 252.55L309.31 249.21L304.83 248.16L304.64 244.64L300.82 243.73L299.97 241.9L301.25 241.44L302.51 241.9L304.22 239.62L308.47 240.53L309.74 241.44L312.29 240.07L314.41 241.44L316.96 239.16L315.91 238.21L316.54 236.42Z" fill="#CCCCCC" stroke="white" stroke-width="0.5"/>
<path d="M374.75 247.84V257.43L372.62 259.71L379.42 266.56L380.27 268.39L379.18 268.69L374.7 266.1L374.13 264.9L373.01 264.59L370.77 262.18L370.21 264.29L372.45 266.7L374.13 267.31L376.1 270.02L377.21 270.32V271.22L381.14 273.94V274.84L383.38 274.54L384.51 275.14L384.22 276.04L385.34 276.95V278.45L386.98 279.96L387.03 281.16L385.62 282.37L382.82 280.26L380.02 276.65L376.94 274.54L368.53 265.5L365.72 263.69L364.32 264.9L363.76 267.31H363.2V268.51L361.8 269.72L361.51 270.92L362.91 273.63V275.44L363.76 275.74L362.91 282.97L360.11 285.08H358.99V285.68L356.75 285.38L355.63 285.98L355.07 287.79L354.48 287.8L354.35 282.55L352.23 281.18V279.35L345.44 270.22L342.88 263.37L342.03 260.17L343.74 256.06L345.86 250.58V245.55L344.16 241.44L341.61 239.62V238.25L342.88 236.42L342.46 234.59L343.74 232.31H349.26L350.96 234.59V236.42H352.23L353.93 237.79L353.08 241.9L355.63 243.27V246.93L356.9 247.38V249.67H358.6L359.88 248.3L361.58 248.75L364.55 251.04L371.35 246.47L373.9 246.93L374.75 247.84Z" fill="#CCCCCC" stroke="white" stroke-width="0.5"/>
<path d="M232.84 187.08L231.56 189.37V192.11L229.43 192.57L223.49 192.11L221.79 193.94L214.99 191.66L213.29 194.4L214.14 198.97H211.58L206.48 196.23L203.08 200.34L201.8 200.8L200.1 199.89L198.4 200.8V204.46L200.53 204.92L201.8 209.03L203.08 209.95L206.9 209.03L207.33 210.4L206.9 211.77L205.63 212.68L202.23 213.14L198.41 218.16L194.58 220.9L194.43 224.6L195.58 225.42L194.42 226.03L191.33 224.82L190.21 225.42L188.52 225.12L186.28 223.01L185.72 220.9L182.35 217.28L178.99 218.49L177.87 214.57L173.1 216.38L171.7 217.89L167.21 218.5L165.81 216.69L164.12 216.39L163.57 215.49L160.48 215.19L159.36 213.08L159.64 211.88H158.51L157.95 209.77H157.11V212.18H156.55L156 214.29L154.6 215.8H152.35L149.55 217.31L148.99 215.8L147.03 214.59L147.31 217.3L148.15 218.21L147.59 219.72H144.79L144.23 219.12L144.79 217.31L143.95 215.8L141.71 213.39L139.18 213.09L137.5 210.98H135.54L135.25 212.49L136.1 213.39V215.79L134.7 216.7L130.21 217.61L127.13 214.29L126.57 215.2L127.97 218.21L128.25 220.92L129.09 221.22L129.65 220.62L130.78 222.43L129.65 222.73L129.37 224.24H128.81L127.13 221.53L125.44 221.23L124.6 220.03L123.48 220.33L124.6 225.76L123.48 226.36L122.36 225.16L123.2 223.65H122.07L121.79 225.16L119.26 224.86L116.18 222.45L115.33 220.64L114.78 221.54L113.37 221.84L112.25 220.03L109.16 218.82L108.32 217.92L108.88 216.72L108.32 214.31H107.2L106.08 211.9L104.95 212.2L102.43 219.13H101.3L100.74 217.02L102.14 213.1L101.23 211.29L98.7701 210.99L97.6501 212.8L94.8401 213.1L93.7201 214L87.5501 210.69L88.1101 208.88L86.7101 205.57L85.5901 206.17V207.37L84.7501 207.97L81.9501 203.15L82.2901 201L83.4101 200.7L83.6901 199.79L84.8201 200.09L86.7801 198.28L88.1801 191.34L87.3301 188.02L82.0101 185.31L81.7201 182.29L80.8801 181.69V180.49L82.2801 179.59L82.0001 175.97L80.0401 174.16L77.8001 174.46L76.1101 172.65L73.8701 172.95L69.3801 171.74L68.5401 170.23L74.1501 162.39H75.2701L75.8301 160.88L80.3101 157.56L81.4401 153.34H84.2401L89.5701 150.93L96.0201 151.83L96.8601 150.62L99.6601 150.02L101.06 148.81L105.61 147.89L105.35 153.69L106.2 155.52L112.58 147.75L115.98 140.44L136.8 140.9V142.27L138.07 143.18L150.82 143.64L152.09 143.18L153.37 144.1L157.19 143.18L158.05 142.27L163.15 141.36V142.73L161.45 145.47V148.21L164.42 152.32L165.7 151.86L173.77 152.32L174.19 159.18L175.47 160.1H178.02L178.87 161.01L179.3 170.61H218.39V167.87L219.24 166.96H226.89L227.74 167.87L227.31 170.61L224.76 171.07L224.34 172.44V179.29H231.99L233.27 180.21L232.84 187.08ZM46.6801 196.48L48.0801 197.98H51.1701L52.2901 199.19V200.4L50.8901 201.6L50.6101 203.71L51.4501 206.12L50.6101 208.83L49.4801 210.04H47.8001L46.9601 209.13L47.8001 204.91L48.9201 204.61L48.6401 201.6L45.5601 199.49L43.8701 199.19V196.48H46.6801ZM133.59 248.32L133.87 250.13L136.66 251.03L136.39 252.84L134.99 254.35L132.2 253.75L132.46 249.23L133.59 248.32ZM55.0901 233.86L56.4901 235.37H57.3401V234.46L58.1801 234.16L58.7401 235.97L57.6101 237.17L57.9001 239.28L57.3401 239.88H56.4901L55.0901 235.06L53.1301 234.46L53.6801 233.26L55.0901 233.86ZM150.13 240.79L151.26 243.2L150.41 244.1L150.13 246.51L148.17 248.62L148.46 244.7L149.57 244.1L150.13 240.79ZM53.1301 230.54V227.83L54.8101 227.23L55.6501 229.04L53.1301 230.54ZM105.83 147.64L105.62 147.92L105.83 147.64Z" fill="#CCCCCC" stroke="white" stroke-width="0.5"/>
<path d="M393.02 248.75L398.97 248.3L401.95 254.69L403.22 259.71L404.5 261.08H406.19L409.59 263.37H411.29L412.14 262L413.42 262.45L412.57 266.11L410.44 268.39L413.42 268.85L415.11 270.67L411.72 276.15L409.59 277.52L410.44 280.26L412.14 280.72L412.57 282.09L413.84 282.55V285.29L415.11 286.66L415.54 290.77L412.14 289.85L411.29 291.22L412.14 292.13L411.29 293.05L412.57 295.79L410.86 298.07L412.14 298.98L412.57 300.81L413.94 300.44L413.1 301.35H411.98L407.78 300.15L406.94 298.94L407.21 296.23L402.17 291.71L399.65 287.19L394.32 282.97L392.35 280.86L391.79 279.06L387.59 275.44L387.03 273.03L383.67 271.22H380.02L379.18 268.69L380.27 268.39L379.42 266.56L372.62 259.71L374.75 257.43V247.84L379 248.3L381.13 247.38L384.1 250.12L393.02 248.75Z" fill="#CCCCCC" stroke="white" stroke-width="0.5"/>
<path d="M354.48 287.8L354.23 289L352.83 289.6L351.14 287.79L349.18 287.49L345.81 291.11L345.54 292.31L343.57 293.82L340.49 292.92L338.81 293.52L337.69 293.21L336.57 291.71H334.6L337.13 290.51L336.84 288.4H334.88V285.98L336.28 285.68L335.73 280.86L333.76 281.16L332.36 282.67L330.12 283.27L325.35 286.29L324.79 281.77L325.63 280.56L324.79 278.15L324.23 269.41L327.31 268.81V268.21L324.79 263.69L321.6 260.62L321.63 258.8L323.34 256.97L325.46 258.8L326.27 260.66L329.71 257.89L331.36 257.44L330.14 256.06L330.98 255.15H342.46L343.74 256.06L342.03 260.17L342.88 263.37L345.44 270.22L352.23 279.35V281.18L354.35 282.55L354.48 287.8Z" fill="#CCCCCC" stroke="white" stroke-width="0.5"/>
<path d="M179.01 357.97L180.13 358.87L183.5 359.17L184.34 360.68L185.74 359.47L186.3 360.68L187.69 360.98L187.7 361.58L185.46 362.48L186.3 364.29L186.01 365.19H185.17L185.46 365.79L182.65 367.6L179.57 368.21L177.61 370.62L178.17 372.42L173.68 373.63L172 377.84H168.91L168.07 376.94V375.43L166.67 374.83V374.23H164.99L162.46 375.73L161.9 377.24L160.78 377.84L159.09 377.54L157.97 378.44L157.42 381.15L155.46 380.55L154.34 381.15L154.63 378.44L154.07 377.54L151.54 377.84L148.17 375.43V374.23L149.86 373.03L151.82 368.81L147.62 363.99L145.66 363.69L145.11 362.19L146.23 360.98L146.52 357.97L148.48 356.47L149.32 353.76L146.23 351.35L144.83 351.65L143.71 350.44L140.91 350.14L139.5 351.35L137.26 351.95L136.7 353.45L133.62 354.66L132.49 354.36L129.97 356.17L129.68 357.67L130.24 357.97L129.4 358.87L127.44 358.57L126.31 359.78H125.19V360.38L124.06 359.48L124.34 357.67L122.66 357.07L119.86 357.67V357.07H119.02L109.2 360.38L108.65 361.89H107.52L106.4 363.39L103.6 363.09L102.2 363.99L101.64 365.8L100.52 366.7L95.75 368.51L94.06 367.91L92.94 365.8L90.41 366.4L90.13 367.6L89.28 367.9L88.72 370.61L85.92 371.51V373.92L91.25 375.42V374.52L93.49 373.02V373.62L97.98 375.12L98.54 375.72L97.99 381.76L99.95 382.97L99.66 383.57L96.58 383.27L94.89 384.17L93.77 383.87L92.37 384.47V385.07L88.17 386.28L87.32 385.68L87.04 384.18H85.64L84.8 381.77L82.27 381.47L81.43 381.77L80.59 386.59H79.47L78.63 387.49L77.51 386.29L74.71 385.39L71.91 382.38L70.51 382.99L69.95 380.58H69.11L68.27 379.07H66.02L65.47 378.47L64.91 375.46L63.79 374.26L64.63 372.15L65.48 371.85L65.19 370.34H61.26L60.98 370.94L60.42 369.13L58.74 368.83V371.54L56.49 373.05L55.09 372.44V370.94L52.29 371.24L48.37 374.55L47.52 377.26L45.28 378.46L46.4 382.37L44.71 382.98L43.87 381.77H41.91L39.95 383.58H39.11L36.87 387.49L35.47 388.09V389.59L34.63 389.89V391.09L33.5 392.3L32.94 391.7L30.7 392.3L30.98 389.89L29.02 389.59L27.34 389.89L26.5 391.1L23.97 390.8L23.69 391.7L20.32 392.3L19.19 393.51V394.71L20.88 395.62V396.83H19.76L19.2 398.33L16.4 397.13H14.44L13.32 398.33L13.61 399.83L12.48 400.13L10.8 397.42L13.32 395.92L13.33 392.01H15.57L15.85 389.6L15.01 388.7H13.32L12.77 389.6L12.48 388.7L10.83 388.1L10.52 386.9L8 385.69L8.28 383.58L7.72 382.37L8.57 380.26H9.69L9.98 376.65L6.05 373.34V366.72L6.61 365.82L6.32 365.22L5.48 365.52V363.71L7.17 361.9L8.29 356.18L12.22 355.28L16.15 359.2V360.1L17.27 360.4L19.51 356.49L18.67 353.78V350.47L17.27 349.57L18.4 346.26L20.08 345.96L22.04 344.45H26.24L29.61 341.74L29.33 337.52L26.8 336.91L27.36 335.41L24.27 334.81L23.99 336.02H22.87L22.32 336.92H19.49L18.37 334.51V332.7L21.16 330.89L21.73 328.78L23.97 328.48L25.93 327.27L28.46 327.57L29.58 329.98H31.27L32.39 327.57L33.79 326.67L35.19 323.66H35.75L36.31 320.35L38.27 319.14L42.48 319.44L44.44 317.93L47.24 317.63L48.92 315.22L51.17 316.12L51.45 317.92L52.58 318.22V319.73L54.54 318.83V315.52L53.69 315.22L52.57 313.11L52.85 309.5L59.02 306.79L60.98 304.68L60.7 302.88L61.54 300.17L60.98 298.36H61.54V297.16L63.22 296.86L63.51 294.45L64.07 295.35L66.59 294.74L66.88 296.85H69.12L69.4 295.34L70.8 294.44V293.23L73.89 293.53L74.45 294.43L75.29 294.13L76.13 295.94H78.09V294.73L80.62 294.13L81.46 292.93L82.86 292.63L83.14 293.53L86.23 294.13L86.51 295.03L89.31 294.73L91.27 296.24L92.11 298.04V301.05L93.24 301.65L94.08 303.46H94.92L94.64 304.66L95.48 304.96L96.33 306.77H97.73L98.85 305.87L100.81 306.47L99.97 304.36L101.63 302.25L101.93 301.35L101.37 301.05L105.85 292.92H107.81L108.66 291.41H110.34L111.18 292.92H113.98L114.83 291.41L122.4 290.51L126.61 287.8L131.38 287.2L138.1 285.09L145.07 281.17L147.63 278.46V277.56L150.16 275.45L154.93 273.04L160.26 272.14L162.5 269.88L204.55 270.33V272.75L205.4 273.96L202.87 275.47H201.18L199.78 272.76L196.7 271.54L196.41 272.43L192.75 274.87L186.6 274.26L185.48 277.28L183.79 277.58L184.63 279.69L183.79 282.1H187.16L188 284.51L185.76 285.71L183.23 286.01L182.67 288.42L184.08 289.32L186.04 288.42L187.44 289.93L188.29 287.82L189.41 287.52L190.53 288.72L191.37 286.91L192.49 286.61L193.61 290.53L195.86 293.54V295.05H194.99L194.71 294.15L191.07 294.75L188.82 292.34H187.7L187.14 293.24L188.26 295.35H189.1L186.86 297.16L187.7 301.08L188.54 302.29H190.5L191.06 303.19L190.77 305.9L189.93 306.5L191.33 309.21L189.37 309.81L189.66 311.62L188.81 312.22L190.77 314.03V315.53L189.65 317.04V318.55L190.49 319.15L189.37 320.65L189.66 322.46L187.41 321.86L184.89 323.67L181.8 323.07L180.68 322.17H178.43L177.59 319.46L174.51 319.16L173.66 317.35L171.14 315.84H168.89L166.65 318.85L167.21 321.26L170.58 323.07L170.29 325.48L173.38 326.38L173.94 327.88L175.34 328.78L177.87 334.5H178.99L179.83 335.7V337.81L177.59 338.11L175.63 339.32L175.35 340.22L173.11 341.12L168.9 341.72L167.5 345.03L161.62 347.74V349.55L163.58 350.15L164.13 351.05L166.66 349.85L167.22 351.96H168.34L170.3 354.07L171.42 357.38L172.55 357.98L175.35 358.28L177.03 355.87L178.15 356.17L179.01 357.97ZM293.95 417.88L293.66 415.77L291.98 414.27L291.14 414.57L290.29 416.38L287.49 416.08L286.65 414.87L283.57 413.67L282.72 411.26L284.12 406.74L285.53 406.44L286.08 407.04L287.48 404.63L289.17 404.33V399.21L289.73 397.1L290.57 396.8L290.85 390.78L290.29 390.18H291.41L291.7 388.98L289.46 388.08L288.64 386.87L288.89 385.66L290.29 385.36L290.01 382.95L290.85 382.34V381.44L289.45 379.93L290.01 378.43L289.17 377.53V375.42H288.61L288.89 373.92L286.37 373.32L285.25 372.12H282.72L281.88 376.33H271.51V373.92L273.2 372.11V370.9L276.28 367.59L279.64 366.09L279.37 365.19H277.68L277.4 363.99V363.09L279.08 361.88L279.02 360.37L275.44 358.87L274.6 357.06L278.2 355.55L279.09 354.05L281.33 353.75L283.86 352.25H285.55L286.67 349.24L287.51 349.54L287.8 351.04L290.6 351.34L291.16 352.84L292 353.14L291.72 357.06L289.47 357.66L289.19 359.47L290.03 363.07L292.55 363.98L294.74 365.79L294.8 368.5L294.24 369.1L295.37 369.4L297.61 372.71L300.7 373.31L300.98 371.81L303.78 370.91L306.3 373.32L306.02 376.33L304.62 376.63L304.07 376.03L304.91 378.74L300.98 379.34L296.21 384.46L295.65 387.47L298.45 390.78L299.57 390.18V387.47L301.81 386.57L304.61 384.16L309.94 383.86L314.71 385.67V384.17L315.84 383.87L316.12 381.76L318.08 382.06V381.16L319.76 380.56H321.16L322.29 383.27L328.46 382.97L329.86 385.07L329.3 387.18L327.9 387.78L326.78 389.89L323.69 390.19L321.73 387.48L320.33 387.18L319.49 388.38H318.09L318.65 388.98L318.36 390.49H316.96L316.41 391.69L315.29 391.39L315.01 394.7L313.33 395L312.77 396.21L309.4 395.61L309.12 398.62L311.65 398.32L312.49 399.53L312.77 402.54L317.82 411.27L318.1 414.58L316.97 413.98L316.69 412.47L315.29 412.17V411.57L313.6 411.87L311.36 408.86L309.96 408.56L309.12 407.06L307.43 406.46L306.31 405.26L306.02 403.45L303.78 405.26V406.46L306.87 412.78L306.58 418.2L303.78 417L301.25 412.18L297.33 416.1V417.61L295.08 418.5L293.95 417.88ZM81.45 265.8L86.49 264.6L87.05 263.7L100.22 259.18L105.27 260.08L102.74 260.98V262.49L106.67 261.59L108.35 261.89L108.64 261.29L110.32 261.89L110.88 260.38L112.28 260.98L112.56 260.08H113.4V263.69L112.28 266.1L111.44 266.4L111.72 267.6L108.64 272.42L107.51 273.03V274.54L106.67 275.44L106.11 279.36L107.23 281.47L104.99 283.88L103.87 283.27L104.15 287.49L105.83 291.71L100.51 296.53H99.66L98.82 295.03L93.78 294.73L83.12 290.81H81.44L81.15 291.41V290.81L76.11 290.51L73.87 291.41L68.82 291.71L66.02 292.92H61.82L61.26 291.71L57.9 292.61L58.45 291.1L60.41 290.5L62.37 286.88L64.9 285.07L65.46 283.56L62.93 280.25V277.84L60.13 276.63L56.76 277.23L56.48 276.02L59.01 275.42L59.85 273.01L63.5 272.4L81.45 265.8ZM422.07 435.95V434.74L424.59 432.03L421.22 432.93L420.1 431.73V430.52L420.94 428.71L422.07 428.11L422.91 424.8L427.39 419.98L434.12 418.48L434.41 415.77L436.37 415.47L436.65 414.87L437.49 415.17L438.33 417.27L442.26 419.38L443.1 422.99H443.66L442.54 427.51L445.06 431.42V434.73L441.42 435.33L439.18 434.43L436.65 434.73L436.37 432.92L435.25 432.62L434.41 434.42L431.88 436.53V438.94L429.08 441.65L426.84 442.55H425.99L425.71 441.65L428.24 438.34V437.44L425.99 436.23L422.07 435.95ZM420.67 435.64L420.38 436.54L419.26 436.84V437.74L421.78 437.44L422.07 435.93L420.67 435.64ZM186.3 392.3H189.1L189.94 391.7L191.34 387.78H193.87L196.11 385.97L194.43 382.36L191.06 381.76L190.22 379.65V378.75L192.18 379.05L193.03 378.45L193.31 376.34L194.43 376.04L194.14 374.54L192.74 373.94L193.58 371.83L195.54 370.63L195.83 369.73H199.75L200.31 370.33L201.15 368.83L203.11 367.93V369.44L204.51 370.04V370.94L203.67 372.44L200.87 374.25H204.24L204.52 375.75L201.15 377.26H199.19L197.5 378.76L197.78 381.47L199.46 384.48L201.99 386.29L203.67 386.59L204.8 385.08H206.48L207.04 386.59L208.72 387.79L207.32 389V390.81L204.52 392.02L204.24 394.13L203.12 393.53L201.72 390.82H200.88L200.32 391.72H198.64L196.11 393.83V395.03L194.71 395.93H193.03V397.74L191.91 397.44L191.63 398.04H189.67L189.38 396.54L186.58 396.84L186.3 394.43L185.46 393.83V392.62L186.3 392.3ZM198.07 329.97V330.87L201.44 330.26L208.17 331.16L210.13 330.56L212.37 331.46L213.77 333.57L212.37 339.59L214.05 341.09L215.45 344.1L214.89 347.41L213.49 348.91L211.81 349.51L208.72 347.4L208.17 344.99L206.48 342.88V340.17L202.84 339.27V337.76L202 337.46L201.15 335.65L195.83 335.35L194.43 332.34H196.11L195.83 330.23L198.07 329.97ZM79.21 425.41L79.76 427.52L82.29 427.22L83.69 428.12L83.41 430.23L80.05 430.83L80.33 433.84L82.02 434.14L82.3 436.55L83.42 437.75L82.86 438.35L81.46 437.45L79.5 437.75L78.94 439.56H77.54L76.98 438.66L75.02 439.56L73.34 439.26L72.78 440.76L69.7 441.66L69.14 440.45L67.18 439.85V438.95L65.79 438.35L66.61 435.04L69.98 433.23H71.94L72.5 434.73H73.62L74.18 432.92L75.02 433.52L76.71 432.02V430.52L75.61 429.92L76.15 426.61L77.84 425.4H79.21V425.41ZM155.74 405.24L155.18 403.73H153.22L152.66 402.52L150.7 402.22L149.86 400.72L150.7 395.6L154.91 391.38L157.44 391.68L159.96 394.39L159.68 395.59L160.52 397.1L159.4 397.7V399.51H160.52L160.8 398.61L162.48 398.91L162.2 404.63L158.83 405.84L158.27 407.34L155.74 405.24ZM425.72 404.94L427.4 406.75L426.85 412.77L425.16 414.57L421.79 416.38L420.11 414.87L418.15 415.17L417.31 413.96H416.18V416.67L415.05 416.97V415.46L413.65 413.96L414.21 410.65L413.65 406.74L425.72 404.94ZM212.37 293.82L213.21 296.53L209.28 298.94L208.72 300.75L209.84 301.65L210.68 299.84H214.61L215.74 303.15L213.21 307.07H210.97L208.18 308.58L207.89 307.07L206.21 306.17L205.37 304.66L205.65 302.86L203.69 300.75L203.97 298.94L203.12 296.83L212.37 293.82ZM74.16 407.05V407.65L77.25 408.86L78.37 411.57L80.62 412.17L80.9 411.27H82.3L83.99 413.68H85.11L85.95 412.78L86.8 413.08L88.48 415.49L87.92 417.9H86.8L86.51 416.7L84.55 415.2L83.71 415.5L84.55 417.31L84 418.82L82.59 418.52L82.04 416.11L81.48 417.31H80.08L79.79 415.81L80.35 414.91L79.51 413.41L76.14 414.01V415.82L74.74 416.12V417.32L72.21 416.72V414.61L73.34 413.11L72.5 411.91V410.1L73.06 407.39L74.16 407.05ZM223.02 323.64L224.71 325.45L223.87 328.76L219.1 332.38L216.01 331.48L214.88 329.98L215.73 326.36L217.13 326.06L217.97 324.25L223.02 323.64ZM461.04 404.64L461.89 406.14L459.93 410.06L460.49 411.57L459.93 414.28L458.8 415.18L455.16 414.58L454.03 413.38L453.47 408.87L454.87 407.97L456.28 408.57L457.12 405.26L458.8 404.96L459.93 405.86L461.04 404.64ZM247.69 299.84V304.96H243.49L242.37 302.55L244.33 300.74H246.29L247.69 299.84ZM474.78 413.97L474.22 414.87H473.37L472.53 413.07L474.22 412.17V411.27L475.34 410.37L475.9 406.45L477.59 405.85L477.3 409.76L474.78 413.97ZM2.95 374.53L3.24 375.13L4.34 374.53L5.2 375.43L4.64 377.54L3.24 378.44L2.4 378.14V376.63L1 376.03L1.28 374.53H2.95ZM305.16 365.8V368.21L303.48 369.11L301.52 368.51L302.64 366.1L304.05 365.2H305.45L305.16 365.8ZM91.26 440.46L91.54 443.17L90.42 444.67H89.29L88.73 442.57L90.42 440.46H91.26ZM227.51 296.23L228.64 297.74V298.94L226.39 299.54L226.11 298.33L224.71 297.43L227.51 296.23ZM68.83 422.7L69.39 423L68.83 425.11L66.87 424.5L66.58 425.71H65.18L64.34 424.81L64.62 424.21L67.98 423.61L68.83 422.7ZM90.98 415.18L91.82 416.68L93.5 417.58L93.22 418.78H92.09L90.69 417.58L90.14 415.47L90.98 415.18ZM72.48 420.3L73.04 423.28L72.19 423.61L71.07 423.01L70.78 421.51L72.48 420.3Z" fill="#CCCCCC" stroke="white" stroke-width="0.5"/>
<path d="M387.87 41.45L389.27 39.94L391.51 35.11L395.71 36.62L396.55 35.41L399.08 34.2L399.37 31.79H400.49L403.02 33.6L405.82 32.39L406.1 30.88L407.79 29.67L408.63 23.94L410.87 21.22V18.2L411.72 17.59L412.27 14.88L413.39 14.58L414.23 15.48L415.36 14.27L417.04 14.57L417.6 15.17V18.19L419 19.7L420.69 18.49L420.4 16.68H422.93L424.06 18.19H424.9L425.18 14.57L427.98 14.87L428.82 16.08L429.95 15.48H430.79V16.08L427.42 19.4L427.71 20.3L431.35 18.19L432.75 18.49L431.91 20L429.11 20.6L428.82 23.01L426.3 25.73L426.58 26.63L428.27 27.24L430.23 26.03L430.78 24.52L433.03 24.82L434.15 26.33L432.19 29.65V31.46L433.32 30.86L434.45 28.45L437.25 28.75L438.09 30.56L437.53 32.67L435 32.97L433.6 34.78L432.76 37.19L433.6 40.81H436.13L436.97 39.3H439.5L440.06 40.51H443.42L445.1 38.4L443.98 37.19L444.53 35.98L446.49 37.79L451.82 36.89L449.02 42.02L449.86 43.83L451.82 43.23L453.5 41.12L455.46 40.21L456.59 40.51L456.87 42.92L456.03 43.22V44.13L452.95 45.94L452.39 48.66L450.39 49L450.11 51.72H449.26V54.13H448.42L447.29 52.02L445.33 51.11V50.51L443.08 50.21V51.42H443.93L443.08 53.53L445.33 53.83L444.2 57.75L445.6 59.26H446.16V57.75L448.12 57.15L455.13 56.54L455.41 57.7L454.29 59.25H458.49L458.77 61.06L459.9 61.66V59.55L462.7 58.94L463.26 60.15H464.1L464.94 62.87L467.18 63.17L468.59 61.66L467.46 61.06V60.15L468.86 58.64L467.46 56.83H466.34L465.22 55.02H470.26L471.1 54.12H472.23L473.07 54.72L473.35 56.23L475.04 57.14L475.88 54.42L476.72 53.21H478.12L478.68 50.5L480.64 48.69L480.93 47.18L479.8 45.67L480.36 42.05L479.23 41.14L479.51 39.93L486.24 42.65L488.2 46.27L487.36 46.87L487.64 47.77H490.17L492.13 49.88L491.84 51.09H490.72L489.59 53.5L488.19 54.1L487.35 55.61L482.86 56.82L481.18 59.54H480.09L478.09 58.03L475.85 58.63L474.17 61.65H472.48L468.27 64.37L469.11 65.88H471.07L473.6 68.58L475.28 69.2L476.68 67.39L480.05 65.58H482.85L484.81 64.07H489.86L495.18 61.96L497.71 61.66L500.24 58.64L504.96 56.53L505.57 58.17L503.44 59.54L502.16 62.28L498.34 65.02L494.09 65.48L486.87 70.51L485.17 72.8L482.62 73.72L473.27 80.12H472L467.75 77.83H465.2L463.92 76L455 70.97L448.63 70.51L445.65 72.34H442.68L441.41 71.42L439.71 72.79H437.16L437.58 74.16L436.73 75.08L434.17 75.54L421.85 75.08L419.72 73.25L415.47 67.31L412.5 65.48L412.08 63.2L409.95 63.66L409.1 64.58L409.52 67.32L408.67 68.23L407.39 67.77L404.84 70.05L402.29 70.96L400.59 74.62L398.89 76.45L395.99 77.38L395.14 78.3L394.28 82.41L390.04 79.21H387.49L383.24 77.84L377.71 78.76L370.91 76.01L365.81 75.55L364.12 73.72L361.56 74.18L356.46 72.35L351.79 72.81L348.39 74.18L344.14 77.84L341.59 85.16H340.31L339.04 82.87L337.76 82.41L333.94 83.33L333.51 78.76L326.72 80.13H322.05L320.77 81.5V82.87L323.32 86.99V89.73L320.35 88.82L318.22 90.65L317.8 92.48L316.1 94.77L311 96.6L303.78 102.09L302.5 102.55L299.95 102.09L296.55 104.37L290.6 105.29L288.05 102.09H286.78L284.22 99.35L282.95 98.89L276.58 101.17L271.91 100.71L268.94 103L265.54 103.91L257.89 104.37V89.27L260.86 81.96V77.84L261.72 76.47L259.59 73.27L258.74 70.53L260.43 68.24L259.58 62.3L258.3 61.39V58.65L259.16 57.73L260.43 58.19L261.71 56.36L260.01 54.53V52.24L259.16 51.32L260.43 45.38L258.3 43.55H257.03L254.9 46.29L253.2 46.75L255.74 42.15L255.32 40.34L249.8 35.76L249.38 34.39L256.6 31.65L260 27.53H262.97L266.75 30.71L271.89 29.82L272.31 31.65L271.46 33.02L272.74 33.48L274.44 32.56L275.72 30.27L277.42 29.81L278.69 28.44L279.11 32.56L280.39 34.85L282.94 35.76L284.64 34.85L286.34 32.56V30.27H290.59L291.44 28.44H292.71L292.29 26.61L296.12 23.87L296.97 24.78H298.24L300.36 22.49L309.28 21.12L310.56 20.21L314.81 22.95L318.63 22.04L319.48 20.67L318.63 19.75L322.88 16.55L322.46 14.72L320.33 13.81L322.46 11.06V8.78L324.59 8.32L325.86 9.23L327.14 8.32L327.99 3.75L330.98 1L332.68 1.46L333.96 3.29H335.23L336.93 1.46H339.48L342.03 2.83H345L346.7 1.92L348.4 3.75L348.83 6.95L350.53 7.86L356.05 7.4L361.57 8.77L362.85 7.85L371.77 5.56L374.74 7.39L376.02 6.48L384.51 8.31H387.49L393.01 12.43L395.14 12.89L398.53 16.55L396.83 19.29V21.53L394.87 21.83V22.43L393.74 20.92L388.42 21.52L387.29 23.63L385.89 24.23L385.05 28.76L383.65 29.67L383.36 30.88L382.52 31.79L379.15 31.19L378.59 32.4L378.88 34.21H379.44V35.72L378.31 37.23L378.87 41.45H379.99L380.28 40.24L383.92 40.54L385.88 38.43L386.44 38.73V40.84L387.87 41.45ZM463.85 8.56L464.69 9.16L463.85 11.58L464.69 12.79L471.14 13.39L477.87 12.79L480.67 13.7L487.68 14L486 14.3L484.31 16.7L482.35 17.01V17.61L478.99 15.8L478.7 17.61L476.18 17.31L475.89 19.12L474.49 20.33L468.88 15.5L467.48 16.41L466.64 15.81L465.24 17.32L464.68 20.64L467.76 21.55L468.05 23.66L469.45 25.77L473.65 29.09L476.18 28.49L476.73 30.3L474.77 33.92L470.28 33.32L470.56 30.3L470.01 29.7L467.76 30L465.52 32.11H459.35L458.22 32.41V33L455.99 32.4V30.89L458.23 29.08V26.66H460.76L461.88 25.15H462.72L462.16 26.66H463.56L464.69 25.76L463.29 23.04L461.33 21.83V20.92L456.84 17.6V16.4H459.37L460.21 15.49L458.25 13.08L458.54 10.36H459.38L460.5 8.55H463.85V8.56ZM491.04 27.87L492.44 31.79V34.2L491.32 34.5L491.03 39.03L492.72 42.05H491.87L491.03 43.56H489.63L489.07 41.75H486.27L484.03 39.34L478.99 37.23L478.7 32.4L480.39 30.29L483.47 32.1L485.43 36.62L487.39 36.92L489.07 33.9L488.23 30.88L488.51 28.77L489.35 27.86H491.04V27.87ZM479.54 22.74L481.5 24.85L477.58 28.17L475.89 27.87L475.61 24.55L477.85 22.74H479.54ZM396.28 24.86L397.12 26.07L396.28 28.48L394.88 29.39H392.92L391.51 26.67L393.75 26.37L396.28 24.86ZM457.12 45.38L457.4 45.98L459.36 46.28L459.08 47.79L455.71 47.19L455.42 45.68L457.12 45.38ZM501.69 22.14L502.81 23.95L502.26 25.46L501.14 25.76L500.01 22.74L501.69 22.14Z" fill="#CCCCCC" stroke="white" stroke-width="0.5"/>
<path d="M296.57 104.36L295.29 108.47L290.4 114.63L290.06 116.35L287.65 118.53L281.24 127.11L280.42 129.96L282.13 134.99L284.65 139.06L285.39 144.95L293.08 154.6L293.59 158.75L293.17 161.49L290.62 164.23V165.6H287.22L285.1 164.69L281.7 167.43L280.85 169.26L278.3 170.18L276.6 169.72L275.33 170.63H274.05L273.63 169.26L272.35 168.35L268.53 168.8L265.98 172.46L260.87 176.57H258.76L256.2 174.74L253.65 174.29L251.96 175.2L247.71 179.77L244.3 180.23L243.03 179.77L240.48 184.34L239.21 183.43L237.51 183.88L232.84 187.08L233.26 180.23L231.98 179.31H224.34V172.46L224.76 171.09L227.31 170.63L227.73 167.89L226.89 166.98H219.24L218.39 167.89V170.63H179.3L178.87 161.03L178.02 160.12H175.47L174.19 159.21L173.77 152.35L165.7 151.9L164.42 152.35L161.45 148.24V145.5L163.15 142.75V141.38L158.05 142.3L157.2 143.21L153.38 144.13L152.1 143.21L150.83 143.67L138.08 143.21L136.81 142.3V140.93L115.99 140.47L112.59 147.78L106.21 155.55L105.36 153.72L105.62 147.92L105.83 147.64L113.12 142.81L114.25 139.19V136.18L117.05 131.95L120.69 129.54L120.98 125.32L122.66 123.51H125.74L132.75 118.69L138.07 118.08L144.53 114.46L144.8 113.26L146.49 111.75L147.33 106.92L149.57 102.4L153.5 99.38L154.62 97.27L156.3 96.97L157.14 94.55H158.54L160.23 92.75L161.07 90.03L162.19 88.82L163.59 83.09L165.27 82.18L167.51 79.17L168.63 79.77L171.72 79.47L173.4 81.28L179.85 82.79L179.01 91.84H176.77L176.48 97.27L175.36 98.17V99.08L177.33 98.17L177.6 100.29L182.65 105.41H183.77L185.74 103.3L187.98 103.91L189.1 102.4L187.14 99.98L186.01 99.68L188.54 96.67H190.5L191.91 95.46H193.58L195.83 96.67L196.95 98.48L195.83 105.72L196.39 107.22L197.51 106.62L197.79 102.4L198.35 101.79H200.6L205.36 103.6L206.76 105.11L210.4 106.62L210.41 107.22L212.65 108.43L212.09 105.72L210.41 105.41L206.76 102.7L201.44 100.29L199.47 98.48L198.91 96.67L196.67 96.36L191.63 90.33L190.5 90.63V92.14L187.7 92.44L184.61 94.55L183.5 97.57H182.93L182.65 103.3H182.09V97.87L180.69 96.67H179.57L177.6 94.25L179.01 93.95L179.85 95.16L182.09 94.55L183.5 93.05V91.23L187.42 89.13L189.66 88.82L190.23 87.62L193.31 86.41L193.58 84.3H193.03L192.74 81.58L194.71 79.77L195.27 75.55L200.12 70.06L201.81 69.61L206.91 63.66L208.61 64.12L210.31 62.29L216.69 64.12L223.91 63.66L226.89 60.46V57.26L228.16 53.6L232.41 49.95L237.94 48.12L242.19 47.66L246.85 50.86L253.23 46.74L254.93 46.29L257.06 43.54H258.32L260.45 45.37L259.18 51.32L260.03 52.23V54.52L261.73 56.35L260.45 58.18L259.18 57.72L258.32 58.64V61.38L259.6 62.29L260.45 68.24L258.76 70.52L259.6 73.27L261.73 76.47L260.87 77.84V81.95L257.9 89.27V104.36L265.55 103.9L268.95 102.99L271.92 100.7L276.6 101.16L282.97 98.87L284.24 99.33L286.8 102.07H288.07L290.62 105.27L296.57 104.36Z" fill="#CCCCCC" stroke="white" stroke-width="0.5"/>
<path d="M380.58 102.4L379.18 104.81L379.74 107.22L378.62 110.24L378.91 112.65L381.99 114.16L384.52 113.86L385.08 114.76H388.72L390.68 117.17L392.08 117.77L394.32 117.47V118.98L390.11 119.58L388.71 118.98L388.43 116.57L387.3 116.27L385.06 118.38L386.46 120.13L391.5 122L392.06 123.21L390.93 124.42L387.01 123.51L387.57 125.32L386.17 126.23L384.77 124.12L380 123.82L379.45 122.61L380.85 122L381.13 120.19L379.45 119.89L377.76 120.8H375.8L374.96 118.99L375.52 117.18L378.04 116.88V116.28L377.49 115.68H375.24L372.44 114.17L372.16 112.66H371.03L368.51 115.37L368.79 118.39L367.11 120.2L363.18 122.01L358.13 120.51L352.25 119.9L350.85 120.81L350.56 123.22L348.32 123.82L347.48 125.33L349.16 128.88L351.41 130.45H353.65V131.96L355.89 133.47L358.42 134.08L360.66 132.87L364.86 133.17L366.55 133.77L366.83 135.28L368.23 136.79L372.16 137.7L373 138.61V140.72L371.87 141.63V142.54L373.56 143.14L374.4 145.85L377.2 146.45L378.2 147.36L377.18 148.86L373.85 148.48L372.95 151.98L372.23 151.92L371.25 149.11H370.3L369.25 151.21L368.03 157.44L355.09 157.48L354.1 160.61L344.36 160.31L343.02 160.85L342.07 163H337.28L335.64 163.62L329.9 163.02L326.49 164.55L323.93 163.84L315.25 163.81L314.73 159.66L297.87 158.95L293.5 160.5L293.57 158.79L293.06 154.64L285.37 144.99L284.63 139.1L282.1 135.02L280.4 129.99L281.22 127.15L287.63 118.57L290.05 116.39L290.39 114.67L295.28 108.51L296.56 104.39L299.96 102.11L302.51 102.57L303.79 102.11L311.01 96.62L316.11 94.79L317.81 92.5L318.23 90.67L320.36 88.84L323.33 89.75V87.01L320.78 82.89V81.5L322.06 80.13H326.73L333.52 78.76L333.95 83.33L337.77 82.41L339.05 82.87L340.32 85.16H341.6L344.15 77.84L348.4 74.18L351.8 72.81L356.47 72.35L361.57 74.18L364.13 73.72L365.82 75.55L370.92 76.01L377.72 78.76L383.25 77.84L387.5 79.21H390.05L394.29 82.41L395.15 78.3L396 77.38L398.97 76.47L400.67 74.64L402.37 70.98L404.92 70.07L407.47 67.79L408.75 68.25L409.6 67.34L409.18 64.6L410.03 63.68L412.16 63.22L412.58 65.5L415.55 67.33L419.8 73.27L421.93 75.1L434.25 75.56L436.81 75.1L437.66 74.18L437.24 72.81H439.79L441.49 71.44L442.76 72.36H445.73L448.71 70.53L455.08 70.99L464 76.02L465.28 77.85H467.83L472.08 80.14H473.35L482.7 73.74L485.25 72.82L486.95 70.53L494.17 65.5L498.42 65.04L502.24 62.3L503.52 59.56L505.65 58.19L505.04 56.55L507.6 57.76L507.88 60.17L501.99 65.3H500.87L498.06 68.32L496.38 68.62L494.14 71.94L490.78 74.66L489.94 76.77L487.14 78.58L485.99 80.68L484.03 81.89L482.35 80.98L479.82 81.28L478.7 83.39L480.1 84.3V85.2L478.7 85.8L478.42 86.71L476.46 87.92H474.5L470.57 90.94L466.09 91.54L464.13 94.55L461.04 95.46L460.49 96.37L455.72 97.27L454.32 98.78L452.63 99.08L450.67 100.59L446.75 99.68L443.95 100.29L442.55 102.1L443.39 102.71L444.79 102.41L443.95 104.22L437.78 106.94L436.09 109.05L433.01 110.26L429.08 116.29L424.88 119.91L424.04 118.7L421.23 119L420.95 120.21L418.71 120.81L417.31 122.92H416.75V118.09H417.59V117.18L404.42 103.61L402.46 103.01V100.9L401.06 99.09L396.02 100.3L393.77 103.01L388.73 103.92L388.17 103.32L387.05 103.62L386.77 100.6L385.65 98.79H383.69L382.84 100.9L381.44 101.2L380.58 102.4ZM415.91 143.11L416.75 141.91L421.23 141.01L422.08 139.8H423.2L424.05 138.9L426.01 142.22L437.51 140.41L438.63 140.11L438.9 139.21L439.47 141.32L441.4 143.43L441.99 150.97L438.62 156.4H440.58L440.86 158.81L443.66 160.62V161.53L445.06 162.74L445.35 165.15H445.9L446.19 162.13L445.35 160.62L446.47 156.4L447.87 154.89L452.92 153.08L455.16 150.06L458.24 147.95L457.96 145.84L456.56 145.54L455.43 146.14L455.72 143.73L454.03 142.22L453.75 138.9L452.62 137.99L451.5 134.67V133.16L453.46 131.65L453.75 130.44L449.82 129.84L448.42 130.75L447.58 129.54V127.73L449.54 127.13L452.62 121.7L455.15 120.79L456.83 118.38L459.62 119.59L460.47 122.3H461.87L462.15 113.86L462.99 113.26L464.39 113.86L466.08 116.27L470.28 115.67L470.56 117.78H472.52L473.93 115.07L472.81 108.73L475.33 107.82L476.45 102.99L478.41 101.48L479.53 99.37L484.02 97.86L486.26 93.94L487.39 93.34H491.03L492.16 89.72H493.28L494.97 93.34L495.81 93.64L494.41 96.35L495.25 98.46L498.05 99.06L500.01 97.25H502.26L502.54 100.56L500.86 100.27L500.3 101.17L499.74 106L498.34 108.11L498.9 109.92H500.58L502.54 107.21L505.91 108.42L507.59 107.82L507.04 105.1L509 103.89L510.4 99.97L509.85 97.56L508.45 96.66V95.75L510.68 95.45L510.96 92.74L512.65 90.93L514.05 91.84L515.73 97.27L515.45 100.59L519.09 109.04L515.72 111.45L513.48 111.15L509.84 108.44L508.99 109.04L510.11 111.75L508.15 117.78L509.84 120.8L509.55 124.72L512.64 125.93L512.92 128.34L510.12 133.46L505.35 133.16V134.67L508.15 137.69L508.71 139.5L508.15 143.12H507.59L505.91 146.44L507.31 146.74L509.27 145.23L508.98 143.42L509.54 142.52H512.91V138.3H513.47L515.15 134.98L517.4 134.37L518.77 135.58L518.52 138.6L520.48 141.62L521.87 146.44L521.61 148.55L518.81 149.45L519.09 151.26L520.49 152.77H526.66L524.98 151.26L524.69 149.75L526.38 149.45L524.98 146.74V141.31L525.54 140.1L525.25 136.48L526.94 134.07L526.09 132.86H525.25L525.54 135.27H524.13L523.29 131.65L524.98 125.92L523.58 124.41V122.9L525.26 121.69L526.66 122.29L528.35 121.99L528.63 120.78L530.03 119.57L531.43 120.48H533.12L531.43 115.96L531.98 115.06L531.43 112.04L531.99 110.53H533.12L535.36 112.64L539 113.24V115.05L542.06 117.76L541.52 122.28L538.43 125.9V128.31L539.55 129.22L539.83 131.52L538.78 130.39L536.23 131.3L535.81 132.67L536.66 136.33L535.39 139.07L536.24 140.9L538.37 142.27L537.52 146.84L540.07 149.58L537.09 157.81V160.55L534.12 162.38L532.85 165.12L527.32 170.15L524.35 170.61L523.07 169.7V166.96L520.52 165.59H517.12L509.9 156.91L508.62 156.45L505.63 160.57L501.39 161.02L497.14 159.19L494.59 156.91L492.89 154.62L495.45 152.33L494.17 151.42L491.62 150.96L489.5 148.22L480.15 146.39L477.18 148.68L478.03 153.25L475.9 156.45L477.18 158.28L474.63 160.11L469.96 159.19L467.41 160.11L464.01 158.74L458.91 160.11L458.06 161.48L457.2 167.42L453.38 171.08L452.1 173.82H449.55L448.27 172.91L442.75 178.39H427.88L427.03 179.76L422.36 182.96V178.39L424.06 174.73L423.21 173.81V171.07L421.51 169.24V163.76L417.68 161.47L419.38 152.33V147.76L417.25 146.85L418.53 142.74L415.91 143.11ZM531.13 83.09L535.33 84.6L536.45 87.01L535.33 90.93L537.57 92.74L539.26 95.45L537.86 98.77L535.33 99.68L535.04 101.49L535.89 102.09L535.33 104.2L533.93 104.5L532.8 106.61L529.43 105.7L529.99 99.37H528.86L529.15 95.75L528.02 94.54L526.06 94.84L524.38 90.01L524.66 88.5H525.79L526.63 86.99L528.03 86.69L528.87 84.58L531.13 83.09ZM602.05 10.97L601.77 15.43L602.33 15.8L602.61 19.12L603.45 20.02H604.57L607.94 23.64L609.62 22.73L612.99 23.64V24.85L611.86 25.45L611.02 27.26L605.98 27.86L605.69 26.96L601.21 24.24L599.25 24.54L597.85 22.73L596.72 20.01L597.28 18.2L595.88 16.69V15.79L597.01 14.88L597.57 12.47L602.05 10.97ZM402.45 113.26L403.85 113.86L404.69 115.97L401.89 120.5L400.21 122.01L396.56 122.92L395.72 124.13L393.76 123.52L393.21 122.01L396.57 119.9L397.42 116.28L400.78 113.26H402.45ZM530.57 62.88L533.94 64.09L536.18 63.18L536.46 64.69L533.66 66.2V68.01L532.54 68.61V72.23L531.98 72.84H528.89L528.34 72.24L528.89 71.03L527.49 70.12V69.22L526.37 68.92V68.02L528.33 67.41V65.6L527.48 65.3V64.4L529.17 64.1L530.57 62.88ZM391.79 108.13L393.48 109.94L393.76 111.75H390.39L389.84 109.64L391.79 108.13ZM502.25 89.13L503.09 89.73V92.75L502.8 93.65L501.68 93.95L501.39 90.03L502.25 89.13ZM392.64 132.86L393.2 134.67H392.64L392.36 135.88H391.52V132.86L391.8 132.26H393.21L392.64 132.86ZM542.9 85.81V86.72H544.03V87.62L541.51 87.02L541.22 85.81H542.9Z" fill="#CCCCCC" stroke="white" stroke-width="0.5"/>
<path d="M391.32 220.89H387.5L385.38 222.26H383.25L382.83 224.08L380.27 224.54L379 224.08L377.3 225L373.05 225.46H370.5L369.23 224.54L367.1 228.2L364.55 228.65L363.28 226.83H361.58L360.73 227.74L361.07 230.48L356.06 231.4L353.08 230.48L349.26 232.31H343.74L342.46 234.59L339.48 234.13L337.36 235.05L334.81 234.59L332.26 232.31L330.98 233.68H329.71L328.01 235.96L324.18 234.13L322.07 235.05L320.37 234.13L319.09 236.42H316.54L313.99 234.13V232.76L311.02 231.4L310.17 222.26L312.72 218.6L314.41 217.69L314.84 216.32L313.14 212.21L313.99 209.93L316.11 208.56L313.57 205.36L314.41 203.07L316.96 202.62L318.24 201.25V198.51L320.37 196.22L325.04 194.85L327.59 191.65L330.56 189.37L331.84 186.63L335.66 183.88L336.51 182.51L335.66 176.57L337.36 175.66V172.46L336.94 169.26L335.23 167.43L335.66 163.59L337.3 162.97H342.09L343.03 160.82L344.37 160.28L354.11 160.58L355.11 157.44L368.04 157.4L369.27 151.17L370.32 149.08H371.27L372.25 151.89L372.97 151.95L373.87 148.46L377.2 148.84L378.22 147.34L381.98 151.26H385.34L384.51 153.97L384.78 159.7L383.38 164.22L385.07 166.03H385.91L387.31 169.04L376.65 179.9L375.54 182.61L373.85 182.92L373.3 184.72L370.77 186.53L369.93 188.64L366.84 190.75V191.66L364.88 193.17L364.6 194.67L362.91 196.18V197.09L358.99 201.3L357.87 201.6L358.15 202.21L360.4 201.6L361.8 199.8L362.91 199.5L364.04 198.29L364.6 196.18L366.57 194.97L367.97 192.56L370.21 191.35L369.93 190.45L371.05 190.15L372.45 188.04L375.25 185.93L376.65 182.92L378.62 181.71L379.74 179.6L380.86 179.3L383.38 176.58L388.71 169.65L391.51 169.35L391.79 167.84L390.67 166.03L391.51 165.13L391.24 163.02L392.07 162.41L393.2 157.89L392.91 156.08H393.75L394.04 153.06L397.12 147.34L400.77 146.13L403.85 147.34L404.41 145.53L406.09 145.22L408.89 142.81V140.1L407.21 138.89V137.69L408.34 137.38L409.18 137.99L410.29 136.18L413.1 136.48L415.06 138.89H416.18L416.74 137.99L418.15 138.59L417.87 139.19H416.46L414.5 141.31V142.81L415.91 143.11L418.52 142.75L417.24 146.87L419.37 147.78V152.35L417.66 161.49L421.49 163.78V169.26L423.19 171.09V173.83L424.04 174.74L422.34 178.4V182.97V187.08L424.04 188.91V190.28H416.39L417.24 193.02L414.27 197.59L412.14 198.05L411.29 200.79L409.59 202.62L406.19 205.36L404.07 205.81L403.22 206.73L397.7 207.18L395.99 208.56L395.15 211.3L392.6 215.41L393.02 220.89H391.32Z" fill="#CCCCCC" stroke="white" stroke-width="0.5"/>
<path d="M347.5 303.46L347.78 302.25L352.27 301.95V301.35L352.83 301.65L355.07 299.84L357.59 300.45L358.15 298.34L360.96 296.83L363.2 293.82L366.28 293.21L368.81 291.41L372.17 291.71L372.45 290.8H373.85L375.81 292.31L378.34 292.01L379.46 293.52H383.1V294.12L385.91 295.02L386.47 296.23H388.43L390.39 297.72L391.51 297.74L396 300.75L396.56 303.46L398.24 304.66L402.17 303.76L404.41 302.25L405.54 302.56L407.21 304.97L409.74 306.17L411.98 308.58L412.82 312.5L414.22 314H415.06L412.82 318.22L413.1 320.03L415.62 318.22L415.34 316.71L416.18 315.21L417.58 318.22L419.26 318.52L420.95 320.61L422.63 320.93L422.91 322.44L427.68 326.65V327.86L426.56 328.46V334.18L425.72 334.78L427.12 337.19L424.04 342.01L422.07 341.11L420.72 342.88L417.24 335.96L414.27 335.5L411.72 333.22L408.31 332.31H406.62L403.22 334.59H401.09L398.54 331.85L390.47 331.4L386.22 330.03L384.52 327.74L379.85 328.2L376.03 330.03L373.9 329.11L370.5 330.48L368.02 330.23L368.98 323.53L376.32 317.7L376.26 314.43L371.35 309.94L370.5 310.85V312.21L367.65 313.96L365.09 310.99L362.01 304L357.12 306.45L356.88 305.33L355.03 304.18L347.5 303.46Z" fill="#CCCCCC" stroke="white" stroke-width="0.5"/>
<path d="M336.46 305.57L337.82 308.69L337.79 312.68L336.13 314.47L335.27 318.12V324.51L333.14 328.16L331.42 329.57L330.14 329.11L328.01 330.02L326.31 329.56L324.18 327.73H322.49L320.79 331.38L315.27 334.57L313.99 333.66L314.41 330.92L311.44 328.18L311.86 326.81L309.73 322.7L308.46 321.79L306.33 317.23L303.36 314.49L300.38 312.66H295.71L292.31 314.49L287.21 314.57L284.97 312.48L285.53 307.96L287.21 305.55L294.22 303.14L294.78 300.73L297.31 300.13L298.43 298.92H300.68L301.23 297.41L302.63 296.51L305.72 296.81L308.8 295.3L315.82 295.6L319.19 297.11L320.31 295.9H321.71L322.27 297.11H323.11V298.01H330.68L330.4 302.83L331.8 303.73L335.44 304.33L336.46 305.57ZM282.74 301.05L283.86 301.65L284.14 303.16L280.22 304.37L279.93 302.26L281.33 301.96V301.06H282.74V301.05Z" fill="#CCCCCC" stroke="white" stroke-width="0.5"/>
<path d="M368.02 330.23L355.66 334.1L350.56 333.19L348.86 331.36H347.16L346.74 332.73L345.47 333.19L339.94 331.81L333.14 328.16L335.26 324.51V318.12L336.12 314.47L337.78 312.68L337.81 308.68L336.46 305.57L340.77 305.27L341.05 301.95H344.14L344.97 304.36H346.38L347.5 303.46L355.03 304.18L356.88 305.33L357.12 306.45L362.01 304L365.09 310.99L367.65 313.96L370.5 312.21V310.85L371.35 309.94L376.26 314.43L376.32 317.7L368.98 323.53L368.02 330.23Z" fill="#CCCCCC" stroke="white" stroke-width="0.5"/>
<path d="M445.9 217.88L448.7 219.69L449.26 222.1L448.14 223.61L448.42 226.32L446.46 227.83L446.18 230.84H445.34L443.65 229.63L441.97 226.01L440.01 226.31L440.29 224.8L441.69 224.5L441.41 223.6L435.24 223.9L435.8 220.59L438.04 219.99L439.16 218.78L440.28 214.86L439.72 213.35L437.48 213.05L436.92 213.65L436.08 213.05L436.64 209.43L435.24 207.92H434.4L434.68 209.73L433.55 210.94V212.75L433.27 212.15L431.31 211.85L431.6 215.16L430.47 215.76L430.75 218.17H427.95L427.67 219.07V219.97L429.35 221.18L429.91 223.29L423.18 226.6L424.03 226.9L425.15 226L426.28 226.9L429.36 226.6L429.65 224.19L430.49 223.89L431.33 225.7L433.57 226.3L436.66 229.32L439.46 229.92L438.9 232.93H438.34L436.66 236.24L436.94 238.95L437.5 239.25L436.94 241.05L437.79 243.76L440.02 244.36L441.43 247.68L441.14 250.99L442.8 253.4L442.55 260.03L443.95 260.93L447.03 261.23L448.99 263.94L452.92 263.03L453.47 262.13L454.88 261.83H455.99L456.83 263.64H458.23L459.92 262.13L461.04 266.65V270.27L463.29 271.17V274.49L462.45 274.79L461.6 277.5H463.56L463.85 280.51L466.09 280.21L465.8 277.5L466.92 277.2L466.64 276.6L468.6 274.79L470.56 275.39L471.12 274.49L472.51 275.09L472.8 274.19H474.48L475.6 275.7L475.32 277.51L477.28 278.71L477.57 279.92H478.41L480.65 282.33V283.23L482.89 284.74V288.05L481.21 288.35L482.05 290.16L481.77 292.87L480.37 294.37H477L476.44 295.57L474.2 296.47L472.8 299.78L470.84 300.08L465.51 298.58L464.95 297.68H464.11L464.67 296.78L464.11 295.57H461.31L459.07 297.98L459.35 300.69L461.59 300.09L461.03 302.5L458.51 303.71L458.79 305.82L459.92 307.33L461.6 307.93L466.09 307.63L466.93 308.23L466.37 310.63L467.21 310.64L468.33 310.04L468.89 308.23L470.29 307.03L473.93 307.33L473.09 308.54L471.41 309.14L471.69 312.15L472.53 312.75L473.09 316.36L475.05 317.26V319.37L476.45 318.47L478.41 319.37L477.58 322.98L475.89 324.18H474.49L471.69 322.07L471.13 322.97V324.48L471.97 325.08L471.69 327.49L471.41 328.39L469.72 328.69L467.51 326.88L467.19 324.77L466.07 323.26L462.14 322.06V321.46L460.74 320.86L460.18 318.15H458.5L457.1 317.25L454.01 317.55L453.45 316.65H452.61L452.33 317.85H452.89L453.17 319.36L450.37 320.87V323.88L449.81 323.58L447.01 327.2L445.88 326L443.36 326.3L443.64 324.49L442.52 323.89L441.96 321.48L439.71 319.37V318.47L442.24 315.76L445.61 316.06V314.85L443.37 314.55L443.09 313.65H442.25L443.65 312.14V310.93H442.53L440.28 313.34L438.6 313.64V314.24L435.8 313.64L434.68 312.13L435.24 309.42L437.48 307.01L436.92 304L439.17 299.48L438.88 294.96L436.36 292.85L436.64 290.74L434.4 287.43L434.11 284.72L427.94 283.82L428.23 281.71L427.38 281.11L425.7 281.41L426.54 283.52L426.26 285.03H426.82L426.53 286.84L423.16 288.65L420.92 292.27L416.99 295.88L417.55 297.09L415.87 298.9H414.74L413.9 300.4L412.52 300.77L412.1 298.94L410.82 298.03L412.52 295.75L411.25 293.01L412.1 292.1L411.25 291.19L412.1 289.82L415.49 290.73L415.07 286.62L413.8 285.25V282.51L412.52 282.05L412.1 280.68L410.4 280.22L409.55 277.48L411.68 276.11L415.08 270.63L413.38 268.8L410.4 268.35L412.53 266.07L413.38 262.42L412.1 261.96L411.25 263.33H409.55L406.15 261.05H404.46L403.18 259.68L401.91 254.66L398.93 248.27L392.99 248.73L393.35 244.59L391 229.25L391.29 220.86H392.99L392.57 215.38L395.12 211.27L395.97 208.53L397.67 207.16L403.19 206.7L404.04 205.78L406.16 205.32L409.56 202.58L411.26 200.75L412.11 198.01L414.24 197.55L417.21 192.98L416.36 190.24H424.01V188.87L422.31 187.04V182.93L426.98 179.73L427.83 178.36H442.7L448.22 172.88L449.5 173.79H452.05L453.33 171.05L457.15 167.39L458.01 161.45L458.86 160.08L463.96 158.71L467.36 160.08L469.91 159.16L474.58 160.08L477.13 158.25L475.85 156.42L477.98 153.22L477.13 148.65L480.1 146.36L489.45 148.19L491.57 150.93L494.12 151.39L495.4 152.3L492.84 154.59L494.54 156.88L497.09 159.16L501.34 160.99L505.58 160.54L508.57 156.42L509.85 156.88L517.07 165.56H520.47L523.02 166.93V169.67L524.3 170.58L527.27 170.12L532.8 165.09L534.07 162.35L537.04 160.52V157.78L540.02 149.55L537.47 146.81L538.32 142.24L536.19 140.87L535.34 139.04L536.61 136.3L535.76 132.64L536.18 131.27L538.73 130.36L539.78 131.49L541.18 135.52L542.87 136.43L543.71 135.83L545.95 136.13L547.35 134.32H548.2L549.04 136.43L552.97 137.33L556.05 135.22L558.29 134.62L562.22 134.92L562.78 132.81L563.9 131.9L563.62 135.82L564.18 136.72L566.71 135.21L568.11 138.83L568.67 138.23L571.47 138.83L572.02 137.32L573.98 137.92L570.61 140.94V143.35L569.49 143.65V144.25H568.09L567.53 145.46L568.66 146.06L568.94 147.56L569.78 148.17L569.5 152.69L571.18 153.6L571.46 155.11L573.14 154.81L573.98 155.71H575.11V157.82L576.51 158.73L575.95 160.84L577.07 161.44L577.35 163.25L575.39 164.46L572.59 164.16L570.63 164.77L570.92 164.16L569.52 163.26L569.23 162.05L566.15 160.54L565.86 157.83L564.18 155.12L560.54 156.03L559.14 155.73L558.01 154.22H556.88L553.8 159.04L551.84 158.44L549.6 161.76L549.31 163.57L551 165.08L550.71 166.89L549.59 167.19L547.63 165.08L545.94 166.89V168.1L546.79 168.7L546.23 174.43L544.54 176.24L541.74 176.54L540.9 177.75L541.74 178.95L543.14 179.25L543.43 181.06H544.82L545.67 179.55L547.06 180.15L547.35 178.64H548.48L549.88 181.35L551.84 181.05L553.52 184.06V186.77L555.48 186.47L556.33 188.88L558.85 186.77V188.57L560.54 188.28L562.5 189.49V197.33L563.9 201.55L562.5 202.75H559.69L559.41 203.35L562.21 208.47L563.05 208.77L563.61 211.48L562.49 212.69L562.77 214.2L561.93 214.8L558.56 214.5L557.16 212.99L556.32 209.07L555.47 208.77L554.07 206.06V203.65L551.55 205.76L550.15 205.46L549.59 204.25L548.19 203.65L546.79 205.76L547.63 209.68L551 211.49L551.28 212.4L552.68 212.7L552.96 215.41L551.27 217.52L548.47 217.22L546.51 220.84L549.88 221.44L551 222.95L546.8 223.25L547.08 224.76L545.68 225.67L545.4 227.77L543.15 227.78L542.87 229.29L540.63 228.68L540.07 227.17L536.7 226.26L535.58 228.67L538.38 229.28L539.23 230.48L538.95 231.99L537.55 231.39L536.99 232.9L535.35 232.3L535.03 231.09L533.63 230.79L532.51 229.28L531.11 229.88L531.67 232.29L531.11 237.11L532.23 237.71L532.79 241.02L531.11 241.63L530.82 245.54L529.98 246.45L527.45 247.36L526.05 245.85L525.5 244.04L525.78 240.42L524.09 239.22L523.54 235L522.41 234.4L523.25 233.2L522.69 231.09L523.81 230.18L523.25 226.56L522.13 226.86V228.07H520.73V231.38L519.33 231.98L518.48 230.78L516.8 231.08L516.24 233.19L514.56 235L510.07 229.88L509.79 227.77L508.96 226.86L508.95 225.96L512.6 226.26L512.04 224.15L510.08 223.85L508.12 221.44H505.32L502.24 217.82L501.96 216.01L503.65 215.1V212.39L504.77 212.09L504.21 210.28L505.33 208.77L505.05 205.76L505.89 203.95V201.24L503.36 203.05L503.08 202.14L501.12 201.23L497.75 200.63L493.82 197.61L493.27 194.9L492.42 195.2V196.11L489.34 197.02L488.78 194.91L489.9 191.89L489.05 192.19L487.65 194.9L485.41 193.7L487.1 189.48H488.22V185.26L489.62 184.96L488.5 184.05L481.49 185.26L481.21 187.97L479.52 190.08V190.99L481.48 192.5L481.2 193.71L478.11 193.11L475.31 194.62L474.76 192.81H473.07V193.41L469.43 194.61L469.14 191.9L467.18 188.88L464.94 190.09L461.58 189.49L460.74 187.08L459.34 185.87V183.76L458.5 183.16L454.57 182.25L452.89 183.76L452.6 184.96H451.2L450.36 183.76L448.96 183.46L447.56 185.57V188.59H447V191.9L448.13 193.98L442.24 200.04L442.53 200.95L444.49 200.65L445.85 203.36L444.77 204.56L444.48 206.67L442.8 208.48L442.52 211.19L443.64 213V215.11L444.77 215.71L445.33 217.82H445.9V217.88ZM470.57 204.02L471.13 198.29L472.82 197.69L476.74 199.2L477.3 200.71L476.74 203.42L477.3 204.32L478.14 204.02L478.99 201.91L478.14 197.69L480.1 199.2L482.35 198.3L484.59 198.6L484.87 200.11L483.47 202.52H484.31L485.44 200.71L488.24 200.41L489.36 202.82L487.96 205.23L488.24 207.34L490.48 210.05L491.6 213.97L490.48 219.09L491.04 220L494.69 220.91L495.81 222.42L498.9 223.93L497.77 226.94L498.05 230.25L496.93 232.06L497.21 233.27L496.93 233.87L494.97 234.17L495.81 236.28L495.25 239.9L495.81 240.81L497.21 241.11L498.05 243.82L501.7 248.64V251.66L501.41 255.58H499.45L497.76 257.99H496.92L495.52 256.48L494.39 257.08L492.71 256.78L492.42 257.38L490.46 257.08L489.06 251.05L487.94 249.85V247.14L486.25 244.43L487.38 242.02V239.91H489.06L489.35 238.7H487.39L485.99 236.29L484.59 235.99L483.75 238.4L482.35 239L480.66 236.89L477.86 235.99L477.02 234.18L475.89 233.57L475.33 230.86H474.78L473.93 228.75L474.49 226.04L475.89 225.44L476.73 223.33L475.89 220.01L476.73 219.71L477.02 218.51L475.06 213.69L473.1 213.09L471.42 211.58L471.7 208.27L470.57 204.02ZM467.2 332.68L468.88 333.28L468.33 335.09L467.49 335.39V337.2L468.05 337.5L467.76 338.4L469.45 339.3L469.73 341.41L467.49 343.52L467.77 345.63L466.93 346.53L466.65 348.94L464.96 349.24L461.6 348.34L461.32 349.84H460.76L461.32 350.74L461.03 352.24L458.51 353.44L457.11 352.24V351.34L458.51 349.84L457.67 348.63L455.14 348.33L453.18 347.43L452.05 345.93L450.65 345.63L451.21 342.32L450.37 340.21L451.77 339.31L453.73 336L456.26 334.49L457.1 335.69H459.34V334.19H460.18L461.58 332.38L463.27 332.08L463.55 330.88H465.51L467.18 329.98L466.64 331.48L467.2 332.68ZM537.86 261.28L537.57 263.99L539.81 265.5L540.94 268.21L540.38 270.92L541.5 272.13L543.18 272.43L542.06 274.54L539.26 275.15L539.81 277.26L539.26 278.77L535.61 277.57L536.45 274.26L535.9 273.36L533.65 272.46L531.97 268.54L532.53 264.02L534.77 263.72L537.01 261.31H537.86V261.28ZM465.25 204.92L465.53 205.52L466.66 205.22L466.94 206.13H463.3L464.7 208.54L464.41 210.65L466.37 212.16L465.81 212.46L466.37 213.67L468.33 213.97V216.08L466.93 216.38L466.37 217.59L467.21 223.92L468.06 224.83V226.94L466.93 228.45L465.53 227.85V226.04L466.66 225.44V224.23L464.97 223.03L463.57 223.33L463.86 221.22L462.73 220.02L463.01 217.31L459.93 215.2L458.53 212.79H457.69L460.77 210.38L460.49 209.48L461.61 207.97L461.05 207.07L462.46 204.96L465.54 203.76L465.25 204.92ZM528.04 257.36L528.33 258.55L524.96 262.78L524.67 267.3L522.99 267.6L522.7 268.8H520.46L519.9 267.9L519.62 271.52H518.23L517.1 269.71V266.7L518.79 264.89L518.5 262.78L519.63 260.37L521.31 258.56H523.27L524.4 259.77L526.08 257.36H528.04ZM536.45 244.71L536.73 242.9L539.26 243.2L539.81 244.1V245.91L538.69 248.32L537.56 248.92V250.73L538.69 252.24V253.14L537.56 253.44V254.65L534.48 252.84H531.39L532.52 250.13L531.68 249.53L532.23 244.11L534.76 243.21L535.32 244.41L536.45 244.71ZM465.8 251.03L473.09 257.66L473.37 260.97L472.53 261.88L466.92 260.97L464.96 259.46L465.25 258.56L464.13 257.96L463.29 254.95L464.13 252.84L463.85 251.64L465.8 251.03ZM493.84 202.21L494.12 203.12H496.36L498.6 205.23L500.29 205.53L500.85 207.94L500.56 209.45H499.44L499.72 213.67L498.03 214.87L497.48 210.95L496.63 210.65V206.73L497.19 206.43L495.23 205.23V207.34L493.83 209.15L493.55 207.94L491.31 206.74L491.86 206.14L491.58 204.63H492.14L491.58 202.82L492.7 203.12V202.21H493.84ZM522.16 316.11L522.71 318.82L520.75 321.83V324.54L518.79 326.05H515.99L516.83 325.15L517.39 320.63L519.63 319.13L519.91 317.32L522.16 316.11ZM541.77 247.42L542.34 249.23H543.47L547.39 253.45L549.92 254.35L549.36 255.86H545.99L542.91 254.66L541.51 251.04L541.79 248.93L540.95 248.63L541.23 247.43H541.77V247.42ZM523.56 327.25L524.11 330.87L524.67 331.17L524.39 335.09L523.55 335.99L521.3 335.69L519.9 336.29L519.06 335.39V331.48L521.86 331.78L522.42 327.86L523.56 327.25ZM485.43 309.79L486.55 311.29L486.83 313.7L485.99 314.6H484.87L484.59 313.09L482.63 312.19V311.59L483.75 310.08L485.43 309.79ZM505.33 244.71L507.29 248.33L505.89 249.23H503.93L503.09 247.12H503.65L504.2 245.01L505.33 244.71ZM450.95 196.78L453.47 198.29L453.19 200.4L451.51 200.1L451.23 198.59L450.11 198.89L449.55 197.08L450.95 196.78ZM540.38 256.16L541.22 257.97L537.58 258.27L537.87 256.76L540.38 256.16ZM557.48 172.97L558.04 176.29H556.91L556.36 173.27L557.48 172.97ZM516.83 333.58L517.67 335.09L518.79 335.39V336.59L516.54 335.99L516.26 333.58H516.83ZM540.94 321.83L542.29 323.64L542.34 324.85H541.5L540.1 323.04V322.14L540.94 321.83ZM457.12 203.11V205.22L456.56 205.82L455.16 205.52L454.87 204.61L456.28 204.31L457.12 203.11ZM600.09 104.21L600.94 106.93H600.09L598.69 105.12V104.22H600.09V104.21ZM458.8 198.59V199.19H459.93V201L457.97 199.49L458.8 198.59ZM457.68 216.08L457.12 218.19L456 216.99L457.68 216.08Z" fill="#CCCCCC" stroke="white" stroke-width="0.5"/>
<path d="M391.8 390.49L392.64 392.9L393.48 393.2L394.61 395.31L394.05 398.62L389.56 399.82L387.32 399.22L386.2 400.12L383.4 400.42L381.16 397.41L380.88 393.5L381.72 391.69L381.16 384.46L384.19 381.15L384.52 378.74L382.56 375.43H381.72V374.53H380.59L379.75 375.73H378.06L376.94 376.94L377.5 378.15L375.81 380.56L371.6 380.26L370.2 382.67L369.07 383.27L366.83 382.97L366.27 380.56L367.12 377.25L367.67 376.95L367.96 377.55L369.36 375.74L371.04 376.04L371.6 375.44V373.94L370.2 371.23L366.83 370.93L363.19 368.22V367.01L365.71 368.22H366.83L367.39 367.32L365.99 362.5L367.67 361.6V357.39L366.83 354.98L365.15 353.17L360.38 355.58L357.85 353.77L355.89 350.16L356.45 348.05L357.58 347.45L357.02 345.64L355.33 345.04L355.05 345.64L351.41 345.34L348.88 345.95L348.04 347.15L348.32 348.36L345.79 350.77L344.11 354.08L343.83 357.99L342.7 359.5V361L341.01 361.9L335.69 358.29L335.4 357.08L336.25 355.27L334.84 354.67L334.29 350.45L333.16 348.64L331.2 348.04L330.08 343.52L314.66 342.62L310.45 342.02L310.17 341.42L307.08 342.32L304.84 341.72L303.15 338.41L300.91 337.2L300.35 332.38L297.83 330.57L296.98 327.56L294.46 324.55L291.37 317.32L288 315.81L287.16 314.59L292.26 314.51L295.66 312.68H300.33L303.31 314.51L306.28 317.25L308.41 321.81L309.68 322.72L311.81 326.83L311.39 328.2L314.36 330.94L313.94 333.68L315.22 334.59L320.74 331.4L322.44 327.75H324.13L326.26 329.58L327.96 330.04L330.09 329.13L331.37 329.59L333.09 328.18L339.89 331.83L345.42 333.2L346.69 332.74L347.11 331.37H348.81L350.51 333.2L355.61 334.11L367.97 330.24L370.45 330.5L373.85 329.13L375.98 330.04L379.8 328.21L384.47 327.75L386.17 330.03L390.42 331.4L398.49 331.85L401.04 334.59H403.17L406.57 332.31H408.26L411.66 333.22L414.21 335.5L417.18 335.96L420.66 342.88L419.77 344.12L417.25 343.52L416.96 344.42L419.21 348.03L421.45 348.93L421.73 350.74L421.17 351.64L424.26 354.95L423.13 358.26L422.29 358.56V359.77L424.25 360.07L424.53 360.67L429.3 360.37L429.86 359.77L430.99 360.37L430.7 361.88L429.58 362.78L426.78 362.18L426.49 363.38H423.69L422.85 362.48H421.72L420.6 363.99L421.72 364.89V366.39L424.25 368.8L425.38 371.51L425.93 376.33L425.38 382.35L429.3 381.75L429.86 383.56L431.82 384.46L430.98 386.57L431.26 389.58L430.14 389.88L428.73 388.68V387.47L429.86 387.17L430.15 385.96L427.34 386.26L426.22 385.36L425.38 387.46H423.69L422.56 385.96L416.68 387.17L412.19 385.06L411.35 382.05L412.75 381.15L413.04 379.65L411.91 376.94V374.83L411.35 374.23L408.82 374.53L407.14 372.72L407.42 371.82L405.18 369.71L406.58 365.19L405.46 363.99V359.17L404.61 356.46L403.77 355.86L404.61 352.25L400.97 349.24H397.33L396.21 350.14L395.08 344.72L393.4 343.82V349.54H395.08L399.01 352.85L400.13 358.87L399.84 361.28L399.56 361.88L396.25 362.48L394.52 359.47L393.39 358.87L391.43 362.18L388.06 362.78L387.78 366.09L385.54 367.59L384.69 370L384.98 373.01L386.94 373.61L387.5 374.82L390.3 375.72L392.83 377.83L392.55 381.14L391.15 380.84L390.3 383.25L388.62 383.85L391.8 390.49ZM327.31 344.42L328.16 344.72L328.44 347.13L331.24 350.44V353.15L330.4 355.26H329.84L329.56 357.37L331.24 358.27L331.8 363.09H330.67L328.99 361.28L327.87 356.76H325.63L324.23 355.55H323.11L321.99 352.24L319.19 353.14V351.94H317.23L316.1 348.02L314.7 347.12V346.22L316.66 345.02L322.54 345.62L327.31 344.42ZM357.03 354.06L359.27 355.87V356.77L357.59 358.58L355.9 358.28L354.78 359.48H353.37L351.13 356.77L351.42 355.26L357.03 354.06ZM354.51 374.84L357.31 376.34L357.6 379.05L356.47 378.75L355.63 379.65L353.94 379.05L352.82 375.13L354.51 374.84ZM429.36 365.2L429.65 366.71L429.09 367.31L425.99 366.1L426.55 365.2H429.36Z" fill="#CCCCCC" stroke="white" stroke-width="0.5"/>
</svg>
