<svg width="801" height="814" viewBox="0 0 801 814" fill="none" xmlns="http://www.w3.org/2000/svg">
<path d="M445.52 425.36L443.73 424.81L438.51 421.71L436.48 421.1L434.51 420.82L426.74 420.77L419.51 418.85L415.81 418.36L413.04 418.74L413.45 420.8L414.54 422.17L418.57 423.17L426.51 427.19L429 429.69L430.96 435.47L432.41 442.77L433.42 445.39L435.66 447.95L439.22 450.44L438.3 459.68L440.56 460.02L443.41 460.8L443.84 460.86L444.22 460.8L445.1 460.31L445.53 460.13L445.91 460.11L446.41 460.31L446.97 460.73L448.95 462.75L449.28 463.52L449.3 464.09L449.35 465.19L448.59 466L445.71 476.52L445.89 480.15L447.24 483.44L451.84 490.19L452.42 492.13L451.64 494.06L451.24 495.65L451.84 497.67L453.54 501.02L453.8 502.07L454.96 506.7L455.52 507.62L456.02 508.13L455.69 509.79L453.72 510.9L453.12 511.88L453.25 512.93L453.89 514.72L455.44 517.21L455.97 517.83L456.58 518.77L456.98 519.59L458.22 521.25L461.13 518.47L462.82 517.31L463.2 517.33L463.87 517.19L464.5 517.26L468.52 514.37L470.75 515.56L472.57 517.1L475 518.5L479.15 519.86L481.6 520.64L486.12 523.39L487.18 523.79L488.16 523.78L488.93 523.52L489.61 523.14L490.16 522.63L491.73 520.69L492.21 520.3L493.44 519.56L493.88 519.2L494.23 518.67L494.29 517.96L494.18 517.08L493.53 516.49L493.17 516.08L493.04 515.63L493.27 514.96L493.75 514.11L494.54 513.26L495.14 512.98L495.63 513.03L496.1 513.42L497.03 514.37L497.54 514.62L498.09 514.3L500.49 512.03L504.07 509.28L509.32 507.13L516.34 502.43L516.9 501.91L517.89 500.69L518.87 499.96L522.52 497.74L523.67 497.29L524.38 497.1L525.57 497.16L525.44 495.15L525.21 492.12L524.16 492.1L519.28 491.88L517.91 491.49L516.59 490.57L515.02 488.99L513.6 487.18L510.41 479.97L506.91 468.35L506.41 467.3L505.3 466.08L504.14 465.15L502.04 463.96L499.39 462.83L498.95 462.09L498.25 461.85L495.27 461.57L491.14 460.26L485.95 457.28L485.39 457.14L473.83 456.32L473.33 456.13L472.94 455.83L472.38 455.3L471.84 453.76L471.34 451.36L471.06 441.5L470.45 438.6L471.81 437.82L472.29 436.46L472.33 432.67L472.02 430.61L471.38 428.21L469.92 424.47L468.9 422.4L468.94 421.25H468.93L455.38 420.56L453.29 419.97L452.24 419.8L451.17 419.96L448.73 423.4L447.24 424.87L445.52 425.36Z" fill="#CCCCCC" stroke="white" stroke-width="0.5"/>
<path d="M268.42 245.29L263.11 244.94L252.32 240.71L229.96 231.42L224.48 230.54L210.68 226.57L200.19 225.58L198.44 225.53L198.91 241.98L199.6 259.38L199.41 261.98L198.71 264.43L184.69 291.64V291.65L181.76 298.16L179.9 300.8L177.51 302.36L157.46 307.76L145.48 315.02L136.45 320.5L127.42 325.96L118.39 331.43L115.21 333.35L109.36 336.89L100.33 342.35L91.31 347.8L82.27 353.24L73.25 358.69L64.22 364.13L55.18 369.57L46.15 375L37.12 380.43L28.09 385.86L19.06 391.29L10.03 396.71L1 402.13L4.8 416.07L8.19 428.59L11.02 438.95L14.74 452.77L18.6 467.02L24.08 487.28L17.78 489.27L17.67 489.3L17.64 489.37L17.67 489.49L17.78 489.65L21.76 503.55L22.37 505L23.2 505.47L38.67 501.18L40.35 502.17L41.55 505.14L43.26 511.65L41.17 514.71L31.35 523.1L31.37 523.84L31.6 523.77L31.84 523.69L32.07 523.61L32.3 523.53L48.45 526.31L64.6 529.09L80.74 531.87L96.88 534.64L103.43 535.76H103.44H103.45L103.47 535.77L131.31 541.15L135.71 542.87L140.26 545.54L148.65 550.58L155.81 554.88L162.99 559.16L170.15 563.46L177.31 567.75L184.47 572.04L191.64 576.32L198.8 580.6L205.97 584.89L213.13 589.16L220.28 593.44L227.45 597.72L234.62 601.99L241.78 606.26L248.94 610.53L256.11 614.79L263.27 619.06L270.55 623.39L275.96 628.1L282.87 634.1L289.77 640.09L296.66 646.08L303.57 652.06L311.31 658.81L319.04 665.55L326.78 672.29L328.37 673.67L328.98 672.71L331.1 667.62L336.4 657.71L338.83 651.85L339.87 648.52L340.87 640.13L341.15 639.19L341.76 637.76L344.57 632.94L349.17 626.42L349.77 625.11L350.31 623.11L350.86 618.44L351.13 617.25L354.35 608.75L354.69 606.7L354.63 605.29L354.32 604.6L354.17 603.79V602.53L354.4 600.88L355.16 598.56L363.83 579.93L365.03 576.38L365.49 573.7L365.59 570.64L366.75 568.53L379.46 549.63L381.82 547.06L383.33 545.9L384.66 545.28L386.36 545.12L386.99 544.97L389.42 543.36L390.39 542.95L395.59 542.14L396.91 541.65L398 540.97L400.08 539.29L407.68 535.06L409.08 533.72L410.52 531.98L410.95 529.09L411.04 527.19L402.45 518.99L398.5 515.62L385.04 505.5L365.8 485.97L363.83 483.01L363.26 480.07L367.61 477.77L371.44 476.31L381.44 474.89L383.18 474.64L384.07 474.39L386.28 472.93L401.56 459.39L408.03 456.22L414.95 455.35H424.3L438.3 459.68L439.22 450.44L435.66 447.95L433.42 445.39L432.41 442.77L430.96 435.47L429 429.69L426.51 427.19L418.57 423.17L414.54 422.17L413.45 420.8L413.04 418.74L415.81 418.36L419.51 418.85L426.74 420.77L434.51 420.82L436.48 421.1L438.51 421.71L443.73 424.81L445.52 425.36L447.24 424.87L448.73 423.4L451.17 419.96L450.22 418.93L448.03 417.55L447.08 416.6L446.27 414.92L445.88 412.93L445.86 410.88L446.19 409L447.16 407.08L449.74 404.3L450.52 402.39L450.51 401.89L450.4 401.46L450.16 401.53L447.7 396.1L441.68 395.74L438.91 393.81L435.88 392.91L438.61 390.77L437.8 389.87L436.01 386.77L433.45 380.35L431.95 377.55L430.68 376.15L427.83 373.55L425.36 372.81L411.66 373.15L404.26 370.69L394.23 366.65L385.46 365.17L381.14 363.56L369.91 353.72L356.82 340.52L351.22 333.02L346.94 322.59L346.13 317.37L344.89 312.09L342.8 309.07L342.16 306.11L341.78 299.96L340.24 291.49L330.47 297.08L327.86 296.72L324.32 294.7L308.47 281.63L305.21 267.25L305.09 245.5L304.51 244.1L286.71 246.52L284.24 245.45L281.38 244.1L279.9 243.78L268.42 245.29Z" fill="#CCCCCC" stroke="white" stroke-width="0.5"/>
<path d="M574.39 251.04L573.87 249.93L573.09 240.79L573.19 240.11L573.38 239.94L573.61 239.98L574.24 239.92L574.57 239.96L574.93 240.1L575.25 240.16L575.65 240.15L576.02 240.06L576.34 239.95L576.59 239.78L575.71 238.35L570.13 232.4L569.67 231.68L569.29 231.28L568.67 230.75L568.13 230.41L567.6 230.42L567.11 230.73L566.39 231.52L566.28 232.03L566.21 232.71L565.91 233.22L565.47 233.84L564.59 234.87L564.17 235.52L563.83 236.33L563.61 236.7L562.95 237.02L562.73 237.16L562.49 237.38L562.29 237.49L562.16 237.43L562.14 237.22L562.16 236.94L562.09 236.72L561.91 236.53L561.64 236.64L561.32 236.96L560.83 237.87L560.62 238.4L560.67 239.19L560.88 239.42L561.1 239.47L561.37 239.36L561.55 239.31L561.68 239.48L561.59 239.8L561.23 240.54L560.54 240.97L560.21 241.39L559.93 242.82L559.13 243.53L559.31 244.12L559.54 244.19L560.32 244.25L560.62 244.31L560.87 244.43L561 244.61L561.02 244.83L561 245.11V245.37L560.79 246.01L560.36 246.92L558.48 249.95L557.81 250.85L555.71 252.77L555.47 252.79L555.2 252.73L554.94 252.77L554.73 252.97L554.67 253.5L554.51 253.99L554.15 254.61L553.35 255.48L552.73 257L552.45 258.16L551.77 259.99L551.65 260.41L551.48 260.72L550.99 260.95L550.6 261.27L550.22 261.78L549.15 264.6L548.26 266.2L547.96 266.93L547.79 267.47L547.78 267.77L547.69 268.18L547.68 268.54L547.7 268.88L547.78 269.14L547.83 269.41L547.79 269.69L547.58 270.44L547.37 270.92L546.44 272.54L546.17 273.46L546.14 273.75L546.07 274.01L545.67 274.52L545.09 275L543.57 275.86L542.73 276.2L542.01 276.37L541.51 276.38L540.69 276.56L540.39 276.59L539.78 276.54L538.69 277.49L529.79 288.22L527.12 289.81L526.89 288.27L526.74 287.81L526.53 287.5L526.2 287.44H525.94L525.65 287.4L525.02 287.19L524.78 286.99L524.59 286.56L524.58 286.17L525.17 285.08L525.4 284.43L525.52 283.82L525.54 283.28L525.47 282.78L524.98 281.3L524.88 280.7L524.86 280.12L524.97 279.66L525.19 279.22L526.32 277.95L526.69 277.43L526.81 277.05V276.62L525.89 274.09L525.44 271.83L525.36 271.15L525.35 270.68L525.4 270.2L525.39 269.58L525.04 267.34L524.81 263.83L524.54 262.92L523.85 261.86L523.22 261.07L522.11 260.13L521.3 259.7L520.28 259.37L518.54 259.16L517.61 259.26L516.88 259.46L514.97 260.59L514.5 260.73L513.94 260.61L513.42 260.21L512.64 259.15L510.94 257.45L506.59 254.58L502.73 258.14L500.04 259.53L497.92 260.36L496.96 261.13L496.43 261.91L496.38 262.56L496.47 263.2L496.53 264.03L496.19 265.13L495.1 266.96L493.52 268.59L492.35 269.54L491.35 269.98L489.05 270.66L487.38 271.61L486.59 272.33L486.2 272.98V273.56L486.37 274.17L486.72 274.8L487.11 275.39L487.38 276.55L487.25 278.01L485.97 280.75L484.94 282.16L483.77 283.29L482.43 284.2L481.04 285.4L480.13 286.48L479.6 287.47L479.19 288.66L478.94 288.69L478.51 288.43L475.53 285.73L474.65 285.14L473.93 284.8L472.67 284.5L471.05 283.82L470.33 283.41L469.99 283.59L469.04 284.84L468.86 285.38L468.78 285.76L468.73 286.69L469.97 289.9L469.94 290.45L469.74 291.2L468.76 292.09L468.66 292.35L468.76 292.46L468.98 292.45L469.28 292.58L469.58 292.9L469.95 293.68L469.86 294.06L469.58 294.32L468.8 294.57L468.48 294.6L468.1 294.68L467.78 294.94L467.4 295.62L467.34 295.98L467.4 296.14L467.55 296.05L467.75 295.89L467.96 295.82L468.23 295.99L468.18 296.22L468.01 296.49L467.63 296.95V297.23L467.8 297.41L468.11 297.48L468.38 297.41L468.83 297.13L469.09 297.09L469.33 297.28L469.28 297.55L469.13 297.89L468.85 298.81L468.66 299.13L468.11 299.71L468.2 300.06L468.39 300.55L468.67 301.53L468.63 302.33L468.08 304.18L467.27 305.94L466.64 306.94V307.37L466.87 307.93L467.32 308.6L468.07 309.46L468.7 309.96L469.28 310.29L470.23 311.47L469.11 312.21L469.33 314.17L469.26 314.56L468.98 314.81L468.57 314.95L467.96 315.36L467.8 315.91L467.82 317.71L467.65 318.12L467.42 318.21L467.17 318.01L466.71 317.5L466.46 317.45L466.12 317.64L465.8 317.9L465.52 318.06L465.24 318.11L464.3 318.16L463.58 318.42L463.25 318.64L461.56 321.15L461.23 321.87L461.03 322.67L460.85 322.97L460.6 323.12L460.33 323.1L460.18 322.99L460.16 322.84L460.36 322.38L460.33 322.09L460.18 321.88L459.7 321.96L459.42 322.31L459.09 322.86L458.86 323.49L458.52 323.79L458.17 323.93L457.18 323.88L456.43 324.05L456.14 324.26L456.15 324.5L456.33 324.76L456.49 325.12L456.57 327.46L456.47 327.73L456.29 327.85L455.33 327.88L454.65 328.04L454.33 328.32L454.17 328.67L454.27 329.05L454.87 330.1L454.98 330.44V330.86L454.78 331.48L454.46 331.8L452.71 333.02L452.58 333.35L453.01 334.02L453.12 334.51L452.53 336.14L452.31 337.36L451.4 338.67L451.35 339.15L451.36 339.97L451.62 340.22L452 340.31L452.59 340.24L453.25 340.05L455.48 339.78L457.66 340.11L458.16 340.32L458.89 340.64L462.67 344.07L463.64 345.3L464.28 346.83L464.54 348.72L464.46 350.55L463.98 352.27L461.19 356.66L459.67 360.87L459.51 361.76L459.5 362.66L459.7 363.55L460.12 364.38L460.67 365.08L462.29 366.72L462.49 367.13V367.55L461.35 369.38L461.02 370.1L459.81 375.4L460.75 377.66L460.49 380.09L459.81 382.63L456.6 385.51L455.18 386.55L453.27 388.33L452.06 389.79L447.7 396.1L450.16 401.53L450.4 401.46L454.65 400.3L455.72 396.86L456.27 396.18L456.75 396.27L462.6 396.51L463.41 396.68L465.04 397.57L468.08 400.27L470.65 398.3L470.93 398.57L471.26 399.02L471.38 400.12L471.58 401.01L472.02 402.38L472.07 402.66L472.02 402.81L471.97 403.04L471.9 404.22L471.48 405.17L471.59 408.06L471.69 411.02L471.49 411.74L471.24 412.39L470.85 412.63L470.55 412.61L470.53 412.34L470.73 412.04V411.15L470.17 412.71L470.35 413.53L470.67 414.22L470.71 414.63L470.61 415.01L470.1 415.62L469.85 415.87L469.06 417.03L468.94 421.25L468.9 422.4L469.92 424.47L471.38 428.21L472.02 430.61L472.33 432.67L472.29 436.46L471.81 437.82L473.63 438.38L473.85 438.26L474.21 438L474.52 437.41L474.92 436.46L475.73 435.1L476.54 432.56L477.12 431.18L477.7 430.88L478.2 431.8L478.91 433.71L479.34 434.59L479.86 435.31L480.5 435.89L481.25 436.4L482.09 436.83L483.01 437.13L483.94 437.17L484.8 436.83L485.73 436.06L486.1 435.9L485.63 434.44L485.37 433.98L484.91 432.91L485.67 431.75L487.12 430.31L490.67 427.57L492.46 424.91L494.28 422.69L495.87 421.41L498.32 421.54L507.73 423.84L510.6 424.06L518.53 423.18L544.12 430.57L548.87 431.97L549.53 431.7L550.47 431.18L551.49 429.84L552.81 428.43L555.94 425.77L556.51 425.17L558.38 422.34L560.51 419.73L561.6 418.12L562.36 416.06L562.69 414.7L563.22 413.64L564.01 412.5L566.86 409.07L567.77 407.67L568.24 407.17L568.61 406.99L568.95 407.08L569.28 407.23L569.6 407.31L569.95 407.27L571.19 406.7L572.15 406.1L572.84 405.44L573.71 404.38L577.53 401.56L578.18 401.25L578.67 401.07L579.12 401.05L579.81 400.87L580.79 400.48L582.71 399.31L583.59 398.62L584.18 397.88L585.16 394.37L585.46 393.75L586.76 391.52L588.13 389.97L588.03 389.91L587.61 389.83L587.2 389.91L586.8 390.14L585.29 391.58L582.82 391.9L580.39 391.33L578.99 390.13L580.27 388.44L584.14 386.07L585.15 384.59L584.57 382.43L582.84 381.23L581.4 379.76L581.72 376.75L579.95 377.19L575.99 377.25L574.5 377.89L572.12 380.18L570.78 381.08L569.35 381.43L568.8 380.75L568.82 377.26L568.54 376.54L568.26 375.78L564.41 373.01L563.17 371.77L562.05 370.17L561.24 368.58L560.67 366.84L560.32 364.86L559.73 363.23L558.66 362.04L557.4 360.98L556.31 359.76L549.04 346.51L548.89 346.38L548.71 346.29L548.51 346.26L546.09 346.64L543.97 346.5L542.12 345.45L540.43 343.08L542.18 342.28L542.97 341.74L543.65 341.04H543.66V341.03L544.91 338.29L545.6 335.78L546.52 333.59L548.51 331.84L549.71 330.55L553.01 327.84L553.84 326.72V325.62L553.37 324.77L552.77 323.92L552.38 322.79L552.54 321.88L553.69 320.01L554.1 319.12L555.18 314.37L555.35 311.93L554.9 309.69L553.65 307.75L551.96 306.67L550.14 306.68L548.51 307.99L547 306.87L545.95 304.73L543.43 296.59L544.22 295.29L548.51 294.32L549.1 293.78L549.63 293.16L550.1 292.44L550.48 291.65L550.6 288.72L549.92 284.71L550.26 281.99L553.44 282.92L556.24 284.41L558.76 285.02L564.38 285.46L566.17 286.1L566.66 285.99L566.99 285.35L567.21 284.3L567.23 283.24L566.99 282.59L566.08 281.3L565.82 279.62L565.78 277.76L565.52 275.88L565.19 275.19L564.77 274.7L564.37 274.1L564.11 273.04L563.83 272.23L563.23 271.51L562.49 270.94L561.82 270.55L560.6 269.17L561.23 267.56L563.5 264.95L563.75 263.81L563.56 261.8L563.82 260.61L564.62 259.48L565.65 259.05L567.98 258.8L570.24 257.22L570.65 254.79L570.49 252.27L571.03 250.35L572.92 250.26L574.39 251.04Z" fill="#CCCCCC" stroke="white" stroke-width="0.5"/>
<path d="M518.42 100.34L516.21 99.3L515.27 98.22L514.97 97.3L514.83 96.3L514.44 94.98L513.79 94.01L513.09 93.33L512.56 92.49L512.49 91.06L511.44 89.92L510.15 88.8V88.81L509.82 89.78L509.37 90.78L508.26 92.46L507.35 93.11L506.18 93.55L503.36 93.35L499.87 92.48L498.2 92.52L496.4 92.92L492.16 95.06L488.59 96.01L484.86 96.6L482.52 95.91L481.17 95.72L479.47 96.28L476.97 98.18L475.4 100.02L474.49 101.36L471.8 103.75L471.77 105.9L472.23 107.08L476.93 114.27L477.72 113.36L478.25 112.97L479.11 113.01L479.92 113.69L484.02 118.66L484.48 119.42L484.71 120.26L483.95 121.12L482.05 122.01L481.42 122.49L480.99 123.31L480.54 124L479.91 124.64L478.15 126.06L478.51 127.34L478.94 128.27L487.13 134.12L489 134.92L489.97 135.56L490.75 136.21L496.73 143.46L499.31 145.88L501.33 147.3L506.86 150.06L507.4 150.73L507.52 151.02L507.55 151.29L507.5 151.52L507.38 151.75L507.2 152.35L507.04 152.63L506.52 153.06L505.93 153.27L505.07 153.39L503.2 153.34L502.42 153.12L501.99 152.84L501.84 152.62L501.66 152.5L501.48 152.36L501.1 151.96L500.82 151.79L500.42 151.72L499.55 151.85L499.27 151.81L498.76 151.59L498.47 151.56L497.82 151.69L497.59 151.83L497.54 152.1L498.42 153.74L498.51 153.99L498.05 154.62L496.8 155.06L496.02 155.85L495.77 155.93L495.57 155.79L495.4 155.24L495.32 153.74L495.17 153.46L494.91 153.26L494.61 153.15L494.35 153.16L494.01 153.49L493.78 153.81L493.65 154.13L493.57 154.8L493.5 155.13L493.25 155.35L492.87 155.31L492.21 154.78L491.91 154.33L491.55 153.93L491.19 153.78L490.68 153.74L489.98 154L489.54 154.29L489.07 154.47L488.64 154.43L488.17 154.03L487.76 153.35L487.33 153.23L486.7 153.19L484.75 153.8L484.28 153.87L483.87 153.8L483.57 153.38L483.54 153.09L483.56 152.84L483.54 152.6L483.39 152.38L483.16 152.23L482.8 152.22L481.91 152.74L481.6 152.79L481.27 152.46L481.05 152.13L480.67 151.95L480.43 151.91L478.94 152.61L483.44 162.55L485.52 164.82L487.38 167.38L491.17 170.76L491.85 172.75L491.92 174.43L490.54 176.92L490.21 177.98L490.03 180.55L489.7 181.72L489.45 185.33L489.16 188.22L489.36 189.2L489.92 190.21L491.65 192.17L493.22 194.33L493.32 195.48L492.89 196.88L492.06 198.56L489.08 202.62L488.46 204.57L488.7 206.06L489.21 207.75L489.53 209.24L489.18 210.79L488.3 212.91L488.07 214.25L487.84 214.87L487.55 215.31L486.94 215.5L486.19 215.92L485.21 216.61L484.37 217.87L484.05 218.78L484 219.63L484.13 220.37L484.68 221.75L484.46 222.59L483.59 223.43L477.23 225.44L473.61 228.51L481.85 237.19L483.19 237.83L485.03 238.33L486.43 237.83L495.37 238.21L498.42 238.77L505.44 243.7L506.43 244.9L506.63 245.33L506.71 245.71L506.66 246.16L506.39 247.5L506.59 254.58L510.94 257.45L512.64 259.15L513.42 260.21L513.94 260.61L514.5 260.73L514.97 260.59L516.88 259.46L517.61 259.26L518.54 259.16L520.28 259.37L521.3 259.7L522.11 260.13L523.22 261.07L523.85 261.86L524.54 262.92L524.81 263.83L525.04 267.34L525.39 269.58L525.4 270.2L525.35 270.68L525.36 271.15L525.44 271.83L525.89 274.09L526.81 276.62V277.05L526.69 277.43L526.32 277.95L525.19 279.22L524.97 279.66L524.86 280.12L524.88 280.7L524.98 281.3L525.47 282.78L525.54 283.28L525.52 283.82L525.4 284.43L525.17 285.08L524.58 286.17L524.59 286.56L524.78 286.99L525.02 287.19L525.65 287.4L525.94 287.44H526.2L526.53 287.5L526.74 287.81L526.89 288.27L527.12 289.81L529.79 288.22L538.69 277.49L539.78 276.54L540.39 276.59L540.69 276.56L541.51 276.38L542.01 276.37L542.73 276.2L543.57 275.86L545.09 275L545.67 274.52L546.07 274.01L546.14 273.75L546.17 273.46L546.44 272.54L547.37 270.92L547.58 270.44L547.79 269.69L547.83 269.41L547.78 269.14L547.7 268.88L547.68 268.54L547.69 268.18L547.78 267.77L547.79 267.47L547.96 266.93L548.26 266.2L549.15 264.6L550.22 261.78L550.6 261.27L550.99 260.95L551.48 260.72L551.65 260.41L551.77 259.99L552.45 258.16L552.73 257L553.35 255.48L554.15 254.61L554.51 253.99L554.67 253.5L554.73 252.97L554.94 252.77L555.2 252.73L555.47 252.79L555.71 252.77L557.81 250.85L558.48 249.95L560.36 246.92L560.79 246.01L561 245.37V245.11L561.02 244.83L561 244.61L560.87 244.43L560.62 244.31L560.32 244.25L559.54 244.19L559.31 244.12L559.13 243.53L559.93 242.82L560.21 241.39L560.54 240.97L561.23 240.54L561.59 239.8L561.68 239.48L561.55 239.31L561.37 239.36L561.1 239.47L560.88 239.42L560.67 239.19L560.62 238.4L560.83 237.87L561.32 236.96L561.64 236.64L561.91 236.53L562.09 236.72L562.16 236.94L562.14 237.22L562.16 237.43L562.29 237.49L562.49 237.38L562.73 237.16L562.95 237.02L563.61 236.7L563.83 236.33L564.17 235.52L564.59 234.87L565.47 233.84L565.91 233.22L566.21 232.71L566.28 232.03L566.39 231.52L567.11 230.73L567.6 230.42L568.13 230.41L568.67 230.75L569.29 231.28L569.67 231.68L570.13 232.4L575.71 238.35L576.59 239.78L576.34 239.95L576.02 240.06L575.65 240.15L575.25 240.16L574.93 240.1L574.57 239.96L574.24 239.92L573.61 239.98L573.38 239.94L573.19 240.11L573.09 240.79L573.87 249.93L574.39 251.04L575.36 251.56L577.56 252.33L578.8 250.67L579.42 248.23L580.12 246.41L580.33 244.54L579.58 241.96V241.94L579.34 240.58L579.36 239.26L579.75 238.11L580.62 237.25L581.15 237.07L582.3 236.96L582.79 236.71L582.96 236.24L582.73 235.01L582.82 234.54L583.94 232.67L584.51 232.44L585.72 232.86L587.44 233.98L588.28 234.33L589.34 234.25L591.78 235.31L593.08 234.97L594.28 233.85L596.47 232.53L597.29 232.44L598.75 232.82L600.83 232.13L601.84 231.93L602.72 231.46L603.37 230.25L601.68 228.27L602.78 225.46L604.54 222.43L604.85 219.8L603.62 218.76L600.46 218.79L599.32 218L599.1 216.42L599.82 215.15L600.83 213.93L601.26 212.92L601.43 212.52L600.84 209.57L598.89 207.3L594.38 203.26L589.15 194.86L588.09 191.97L588.06 191.04L588.26 190.24L588.69 189.58L589.34 189.08L589.66 188.68L589.77 188.27L589.65 187.84L589.34 187.42L588.42 185.52L587.71 183.49L588.08 183.38H588.47L590.97 184.15L591.2 182.76L590.4 178.9L590.41 177.24L590.69 175.48L591.34 173.89L592.38 172.74L594.06 172.15L599.77 172.32L601.45 171.94L605.54 169.75L608.75 169.93L610.46 169.74L611.73 168.51L612.84 166.86L615.33 165.28L616.62 164.11L617.58 162.46L617.74 160.89L617.13 159.54L615.77 158.57L614.01 158.39L612.55 159.11L611.15 160.09L609.6 160.66L606.14 161.42L604.38 161.49L602.74 160.78L602.07 160.23L601.57 159.67L601.22 158.98L600.82 156.92L600.43 156.56L599.83 156.46L597.32 155.5L595.97 155.47L594.65 155.97L593.07 156.88L591.43 157.41L586.23 157.18L583.61 158.09L582.77 158L581.93 157.73L581.09 157.69L579.12 159.39L577.54 160.18L575.86 160.3L574.53 159.39L573.62 159.2L570.54 160.13L569.07 159.72L568.06 158.39L565.98 153.19L562.19 147.82L559.76 145.57L557.54 145.15L556.48 144.48L553.47 141.68L550.32 140.53L548.51 139.86L546.37 139.9L543.66 141.25L542.21 141.66L542.2 141.67L542.19 141.68H542.17H542.16L540.55 142.8L538.74 143.41L536.98 143.17L535.55 141.68H535.53L535.52 141.67V141.65L534.99 140.03L535.47 137.94L536.47 135.87L537.48 134.26L537.82 132.24L536.78 130.2L534.25 126.89L533.83 124.77L534.03 120.1L533.65 118.16L532.46 116.98L530.95 115.78L530.48 114.56L532.46 113.28L530.92 111.32L530.36 109.55L530.15 105.19L529.76 102.84L528.88 100.29L527.44 98.48L525.38 98.32L520.8 100.15L518.42 100.34Z" fill="#CCCCCC" stroke="white" stroke-width="0.5"/>
<path d="M598.31 427.13L599.64 426.87L601.36 425.56L603.56 423.37L604.68 421.99L605.27 420.74L605.22 419.86L604.27 419.26L603.91 418.35L603.96 417.55L604.46 415.68L604.44 414.67L603.71 413.03L602.57 411.87L599.97 409.76L596.72 405.15L593.99 402.5L593.57 401.08L593.52 399.44L593.27 397.46L592.61 395.61L591.69 393.92L588.94 390.48L588.69 390.29L588.44 390.14L588.13 389.97L586.76 391.52L585.46 393.75L585.16 394.37L584.18 397.88L583.59 398.62L582.71 399.31L580.79 400.48L579.81 400.87L579.12 401.05L578.67 401.07L578.18 401.25L577.53 401.56L573.71 404.38L572.84 405.44L572.15 406.1L571.19 406.7L569.95 407.27L569.6 407.31L569.28 407.23L568.95 407.08L568.61 406.99L568.24 407.17L567.77 407.67L566.86 409.07L564.01 412.5L563.22 413.64L562.69 414.7L562.36 416.06L561.6 418.12L560.51 419.73L558.38 422.34L556.51 425.17L555.94 425.77L552.81 428.43L551.49 429.84L550.47 431.18L549.53 431.7L548.87 431.97L544.12 430.57L518.53 423.18L510.6 424.06L507.73 423.84L498.32 421.54L495.87 421.41L494.28 422.69L492.46 424.91L490.67 427.57L487.12 430.31L485.67 431.75L484.91 432.91L485.37 433.98L485.63 434.44L486.1 435.9L485.73 436.06L484.8 436.83L483.94 437.17L483.01 437.13L482.09 436.83L481.25 436.4L480.5 435.89L479.86 435.31L479.34 434.59L478.91 433.71L478.2 431.8L477.7 430.88L477.12 431.18L476.54 432.56L475.73 435.1L474.92 436.46L474.52 437.41L474.21 438L473.85 438.26L473.63 438.38L471.81 437.82L470.45 438.6L471.06 441.5L471.34 451.36L471.84 453.76L472.38 455.3L472.94 455.83L473.33 456.13L473.83 456.32L485.39 457.14L485.95 457.28L491.14 460.26L495.27 461.57L498.25 461.85L498.95 462.09L499.39 462.83L502.04 463.96L504.14 465.15L505.3 466.08L506.41 467.3L506.91 468.35L510.41 479.97L513.6 487.18L515.02 488.99L516.59 490.57L517.91 491.49L519.28 491.88L524.16 492.1L525.21 492.12L525.44 495.15L525.57 497.16L530.3 497.81L530.82 499.34L532.87 500.22L538.64 500.92L539.58 502.36L541.37 502.9L541.67 503.7L541.53 504.61L540.45 507.21L540.25 508.58L540.69 510.03L541.91 511.46L550.03 519.15L551.53 521.16L552.53 522.97L553.32 524.16L554.61 525.01L559.76 526.92L565.39 528.59L565.65 529.75L565.05 530.27L564.74 530.71L564.78 531.32L568.63 540.25L576.82 540.78L581.82 538.68H582.26L582.64 538.99L582.96 538.97L583.28 538.79L583.65 538.38L583.87 538.28L584.08 538.37L584.3 538.61L584.7 538.91L585.09 538.83L587.92 536.7L588.59 536.49L589.31 536.55L590.07 536.78L591.34 537.03L591.93 537.01L592.29 536.82L592.59 536.09L593.02 535.71L595.73 534.78L616.95 534.7L627.14 534.32L630.4 534.71L633.33 536.23L636.41 537.02L638.13 536.81L640.33 522.34L639.35 520.55L637.75 518.15L627.8 513.83L626.28 512.62L626.03 511.17L626.49 509.43L629.92 499.54L630.04 498.71L629.72 497.93L629.34 497.35L628.01 496.26L627.29 495.5L627.37 494.64L627.88 493.54L629.01 491.76L629.26 491.15L629.53 489.76L629.81 488.78L629.91 487.74L629.81 481.84L630.32 477.2L635.63 461.06L636.24 460.13L638.05 458.85L638.81 457.9L640.08 455.66L632.46 451.24L630.17 448.93L622.03 445.04L613.36 442.34L603.73 443.43L598.95 442.85L597.21 438.95V438.94L598.22 437.75L599.58 436.64L600.79 435.38L601.33 433.73L600.86 432.39L599.69 431.34L598.15 430.68L594.56 430.27L593.42 429.29L593.5 428.11L595.15 427.19L596.94 427.02L598.31 427.13Z" fill="#CCCCCC" stroke="white" stroke-width="0.5"/>
<path d="M677.46 487.48L652.87 465.99L649.49 462.13L644.14 458.89L640.39 455.84L640.08 455.66L638.81 457.9L638.05 458.85L636.24 460.13L635.63 461.06L630.32 477.2L629.81 481.84L629.91 487.74L629.81 488.78L629.53 489.76L629.26 491.15L629.01 491.76L627.88 493.54L627.37 494.64L627.29 495.5L628.01 496.26L629.34 497.35L629.72 497.93L630.04 498.71L629.92 499.54L626.49 509.43L626.03 511.17L626.28 512.62L627.8 513.83L637.75 518.15L639.35 520.55L640.33 522.34L638.13 536.81L636.41 537.02L633.33 536.23L630.4 534.71L627.14 534.32L616.95 534.7L618.77 536.53L619.78 537.85L619.91 538.66L618.57 539.01L617.21 539.83L616.42 541.44L618.55 546.01L624.87 556.5L624.76 558.76L624.48 560.05L626.36 564.91L629.56 568.52L632.09 569.99L632.58 570.53L635.12 574.63L636.46 576L639.09 578.2L639.96 579.25L640.56 580.77L640.77 582.26L640.46 584.19L640.02 585.37L639.17 587.11L639.07 588.35L639.12 589.24L640.44 593.19L647.71 597.73L648.7 598.51L649.63 599.44L650.67 600.84L651.16 601.81L651.42 602.66L651.5 603.51L651.47 604.57L651.11 607.97L651.1 608.98L651.2 609.89L651.38 610.68L651.67 611.36L652.24 612.11L655.77 614.97L656.9 616.06L660.1 617.74L668.69 617.61L682.99 618.63L683.89 612.76L685.42 610.38L687.08 608.97L689.92 607.64L701.25 604.67L704.93 604.37L716.58 605.53L727.9 608.43L727.93 608.44L728.13 592.06L740.58 558.13L741.06 555.96L740.83 553.91L739.71 552.2L736.5 549.77L735.18 548.3L734.89 547.58L734.47 545.89L734.01 545.02L733.39 544.44L731.91 543.47L731.36 542.7L728.44 537.45L728.05 535.75V535.74L727.25 534.03L724.39 532.63L723.14 531.19L721.28 527L720.07 525.25L719.89 525L718.32 524.34L717.08 524.19L716.36 523.36L715.7 522.37L714.65 521.7L713.37 521.34L712.81 520.9L712.74 520.14L712.91 518.79L713.23 517.75L713.71 516.9L714.15 515.96L714.27 514.62L713.85 513.37L712.26 512.15L711.82 510.92L711.02 510.53L710.5 509.98L709.06 507.97L708.75 507.43L708.37 506.9L705.93 504.57L705.56 504.02L705.01 502.71L705.02 502.23L705.35 501.87L706.07 500.07L706.53 499.54L706.82 498.91L706.69 497.79L706.24 497.08L704.06 495.41L702.69 493.65L701.77 492.16L700.73 490.95L698.98 490.02L694.36 488.43L693.21 488.36L689.47 490.43L688.03 490.98L685.15 491.29L682.57 490.72L680.09 489.41L677.48 487.49V487.48H677.46Z" fill="#CCCCCC" stroke="white" stroke-width="0.5"/>
<path d="M660.1 617.74L656.9 616.06L655.77 614.97L652.24 612.11L651.67 611.36L651.38 610.68L651.2 609.89L651.1 608.98L651.11 607.97L651.47 604.57L651.5 603.51L651.42 602.66L651.16 601.81L650.67 600.84L649.63 599.44L648.7 598.51L647.71 597.73L640.44 593.19L639.12 589.24L639.07 588.35L639.17 587.11L640.02 585.37L640.46 584.19L640.77 582.26L640.56 580.77L639.96 579.25L639.09 578.2L636.46 576L635.12 574.63L632.58 570.53L632.09 569.99L629.56 568.52L626.36 564.91L624.48 560.05L624.76 558.76L624.87 556.5L618.55 546.01L616.42 541.44L617.21 539.83L618.57 539.01L619.91 538.66L619.78 537.85L618.77 536.53L616.95 534.7L595.73 534.78L593.02 535.71L592.59 536.09L592.29 536.82L591.93 537.01L591.34 537.03L590.07 536.78L589.31 536.55L588.59 536.49L587.92 536.7L585.09 538.83L584.7 538.91L584.3 538.61L584.08 538.37L583.87 538.28L583.65 538.38L583.28 538.79L582.96 538.97L582.64 538.99L582.26 538.68H581.82L576.82 540.78L568.63 540.25L568.08 542.62L567.96 544L568.03 545.98L571.29 556.01L573.54 568.72L576.12 571.7L576.57 573.11L576.47 573.57L576.42 574.91L576.54 576.19L576.47 576.89L576.29 577.36L575.97 577.48L575.61 577.4L574.79 576.75L574.36 576.48L573.91 576.31L573.44 576.67L573.04 577.41L572.52 579.48L572.55 580.34L572.83 580.9L573.26 581.07L573.73 581.18L574.19 581.81L574.63 582.9L575.18 585.83L575.28 587.09L575.01 588.2L569.38 595.27L568.48 597.04L568.69 598.37L570.98 598.78L575.48 598.97L570.79 610.09L569.87 613.16L570.06 614.18L571.64 614.83L571.95 615.18L572.92 615.96L573.58 616.26L574.07 616.5L574.34 617.47L574.24 619.14L573.76 622.07L573.18 623.05L572.18 623.21L570.53 622.62L569.29 622.76L568.67 624.05L568.28 626.49L567.83 628.25L567.49 631.08L567.02 633.16L568.15 646.46L608.23 651.72L621.36 656.35L628.85 668.77L632.23 675.73L633.1 676.96L634.17 677.78L635.26 677.82L637.96 677.18L664.62 669.85L666.11 669.91L677.44 671.97L679.91 671.51L680.41 668.85L679.96 661.92L680.08 659.8L680.59 657.1L682.66 646.34L683.69 626.53L682.99 618.63L668.69 617.61L660.1 617.74Z" fill="#CCCCCC" stroke="white" stroke-width="0.5"/>
<path d="M525.57 497.16L524.38 497.1L523.67 497.29L522.52 497.74L518.87 499.96L517.89 500.69L516.9 501.91L516.34 502.43L509.32 507.13L504.07 509.28L500.49 512.03L498.09 514.3L497.54 514.62L497.03 514.37L496.1 513.42L495.63 513.03L495.14 512.98L494.54 513.26L493.75 514.11L493.27 514.96L493.04 515.63L493.17 516.08L493.53 516.49L494.18 517.08L494.29 517.96L494.23 518.67L493.88 519.2L493.44 519.56L492.21 520.3L491.73 520.69L490.16 522.63L489.61 523.14L488.93 523.52L488.16 523.78L487.18 523.79L486.12 523.39L481.6 520.64L479.15 519.86L477.95 523.74L477.68 524.13L477.33 524.53L476.94 524.54L476.44 524.65L475.61 525.17L475.4 525.67L475.41 526.26L475.71 526.9L476.09 527.5L476.59 527.98L477.31 528.56L477.8 529.19L477.78 529.62L477.35 529.92L474.99 530.82L472.02 532.81L470.42 533.45L469.76 534.43L469.08 536.76L468.5 539.78L471.24 553.4L470.91 556.52L470.86 562.58L471.95 569.75L470.35 572.03L468.95 571.21L466.71 570.34L464.98 570.76L463.17 572.82L462.77 575.07L464.53 578.32L469.85 584.62L471.37 585.61L487.07 592.1L500.98 602.38L507.6 605.95L509.32 596L514.44 581.97L516.98 576.97L518.24 573.52L518.37 572.09L516.56 571.25L516.01 570.29L515.63 569.18L515.13 568.33L514.57 567.99L513.12 567.45L512.33 567.02L511.4 566.06L513.29 565.84L526.51 562.67L527.35 561.22L533.22 561.42L553.15 565.34L567.6 570.09L571.09 570.05L572.86 569.45L573.54 568.72L571.29 556.01L568.03 545.98L567.96 544L568.08 542.62L568.63 540.25L564.78 531.32L564.74 530.71L565.05 530.27L565.65 529.75L565.39 528.59L559.76 526.92L554.61 525.01L553.32 524.16L552.53 522.97L551.53 521.16L550.03 519.15L541.91 511.46L540.69 510.03L540.25 508.58L540.45 507.21L541.53 504.61L541.67 503.7L541.37 502.9L539.58 502.36L538.64 500.92L532.87 500.22L530.82 499.34L530.3 497.81L525.57 497.16Z" fill="#CCCCCC" stroke="white" stroke-width="0.5"/>
<path d="M620.22 813.7L623.79 812.94L625.93 812.49L627.36 812.18L630.93 811.42L634.51 810.66L636.88 808L636.89 807.93L637.32 805.62L639.1 786.76L639.75 784.32L640.71 782.18L643.72 776.94L644.07 774.53L644.14 762.5L645.16 753.01L651.83 717.35L651.85 714.66L651.6 712.23L651.11 710.34L650.4 708.56L642.37 696.84L641.32 694.45L640.63 691.78L639.32 683.03L637.96 677.18L635.26 677.82L634.17 677.78L633.1 676.96L632.23 675.73L628.85 668.77L621.36 656.35L608.23 651.72L568.15 646.46L567.02 633.16L567.49 631.08L567.83 628.25L568.28 626.49L568.67 624.05L569.29 622.76L570.53 622.62L572.18 623.21L573.18 623.05L573.76 622.07L574.24 619.14L574.34 617.47L574.07 616.5L573.58 616.26L572.92 615.96L571.95 615.18L571.64 614.83L570.06 614.18L569.87 613.16L570.79 610.09L575.48 598.97L570.98 598.78L568.69 598.37L568.48 597.04L569.38 595.27L575.01 588.2L575.28 587.09L575.18 585.83L574.63 582.9L574.19 581.81L573.73 581.18L573.26 581.07L572.83 580.9L572.55 580.34L572.52 579.48L573.04 577.41L573.44 576.67L573.91 576.31L574.36 576.48L574.79 576.75L575.61 577.4L575.97 577.48L576.29 577.36L576.47 576.89L576.54 576.19L576.42 574.91L576.47 573.57L576.57 573.11L576.12 571.7L573.54 568.72L572.86 569.45L571.09 570.05L567.6 570.09L553.15 565.34L533.22 561.42L527.35 561.22L526.51 562.67L513.29 565.84L511.4 566.06L512.33 567.02L513.12 567.45L514.57 567.99L515.13 568.33L515.63 569.18L516.01 570.29L516.56 571.25L518.37 572.09L518.24 573.52L516.98 576.97L514.44 581.97L509.32 596L507.6 605.95L500.98 602.38L487.07 592.1L480.89 625.77L478.92 630.34L475.03 637.25L471.24 640.71L468.06 644.46L464.08 650.69L463.52 651.08L458.6 653.16L454.55 656.11L453.27 657.41L449.92 661.79L447.02 667.58L432.31 710.02L414.39 741.48L413.34 743.3L418.73 747.68L428.09 755.28L437.44 762.87L446.79 770.46L454.57 776.76L462.36 783.07L470.15 789.37L477.92 795.66L484.21 800.74L484.73 800.94L485.25 801.14L485.76 801.35L486.3 801.56L493.77 802.23L500.28 802.83L506.78 803.41L513.28 804.01L519.78 804.59L528.15 805.36L536.52 806.11L544.89 806.88L553.26 807.63L561.62 808.39L570 809.15L578.37 809.91L586.73 810.67L592.96 811.23L599.17 811.79L605.4 812.36L611.62 812.93L620.22 813.7Z" fill="#CCCCCC" stroke="white" stroke-width="0.5"/>
<path d="M727.93 608.44L727.9 608.43L716.58 605.53L704.93 604.37L701.25 604.67L689.92 607.64L687.08 608.97L685.42 610.38L683.89 612.76L682.99 618.63L683.69 626.53L682.66 646.34L680.59 657.1L680.08 659.8L679.96 661.92L680.41 668.85L679.91 671.51L677.44 671.97L666.11 669.91L664.62 669.85L637.96 677.18L639.32 683.03L640.63 691.78L641.32 694.45L642.37 696.84L650.4 708.56L651.11 710.34L651.6 712.23L651.85 714.66L651.83 717.35L645.16 753.01L644.14 762.5L644.07 774.53L643.72 776.94L640.71 782.18L639.75 784.32L639.1 786.76L637.32 805.62L636.89 807.93L636.88 808L649.16 794.23L654.28 785.6L659.51 779.84L660.72 778L663.15 771.63L669.25 761.5L670.84 757.97L671.05 757.02L671.36 754.18L671.78 752.83L674.77 747.24L681.71 729.46L684.51 725.46L688.79 722.55L701.94 717.09L706.64 716.51H727.74L732.42 717.42L750.1 726.34L750.14 724.11L749.53 723.28L749.59 722.26L749.94 721.12L750.14 719.9L750.03 718.75L749.03 715.67L750.4 717.44L750.96 720.06L751.24 722.91L751.82 725.39L757.47 722.3L760.58 721.47L764.08 721.53L767.89 722.24L771.44 723.47L775.96 726.35L778.81 727.24L781.74 729.41L787.98 731.58L796.86 732.48L799.01 731.93L800.02 730.81L799.67 729.88L797.69 729.9V729.48L797.71 729.42L797.14 729.16L794.61 728.44L793.4 727.7L792.27 726.8L791.73 726.26L791.35 725.64L790.63 723.8L790.46 722.58L788.97 717.89L788.75 717.72L788.28 716.75L786.65 714.91L785.63 712.72L785.47 712.06L785.65 711.01L786.29 710.23L787.07 709.52L787.67 708.7L787.88 707.7L787.72 706.68L787.31 705.72L786.77 704.91L783.6 702L780.97 699.01L779.31 696.23L778.55 695.58L777.56 695.24L776.53 695.19L773.55 695.69L772.56 695.73L771.6 695.59L770.69 695.18L770.03 694.49L769.68 693.58L769.01 689.42L768.27 687.35L767.22 685.49L765.86 684.01L765.01 683.48L764.1 683.17L755.46 681.93L755.33 679.03V679.02L755.61 633.26L755.35 632.04L754.48 631.51H727.64L727.93 608.44Z" fill="#CCCCCC" stroke="white" stroke-width="0.5"/>
<path d="M468.08 400.27L465.04 397.57L463.41 396.68L462.6 396.51L456.75 396.27L456.27 396.18L455.72 396.86L454.65 400.3L450.4 401.46L450.51 401.89L450.52 402.39L449.74 404.3L447.16 407.08L446.19 409L445.86 410.88L445.88 412.93L446.27 414.92L447.08 416.6L448.03 417.55L450.22 418.93L451.17 419.96L452.24 419.8L453.29 419.97L455.38 420.56L468.93 421.25H468.94L469.06 417.03L469.85 415.87L470.1 415.62L470.61 415.01L470.71 414.63L470.67 414.22L470.35 413.53L470.17 412.71L470.73 411.15V412.04L470.53 412.34L470.55 412.61L470.85 412.63L471.24 412.39L471.49 411.74L471.69 411.02L471.59 408.06L471.48 405.17L471.9 404.22L471.97 403.04L472.02 402.81L472.07 402.66L472.02 402.38L471.58 401.01L471.38 400.12L471.26 399.02L470.93 398.57L470.65 398.3L468.08 400.27Z" fill="#CCCCCC" stroke="white" stroke-width="0.5"/>
<path d="M438.3 459.68L424.3 455.35H414.95L408.03 456.22L401.56 459.39L386.28 472.93L384.07 474.39L383.18 474.64L381.44 474.89L371.44 476.31L367.61 477.77L363.26 480.07L363.83 483.01L365.8 485.97L385.04 505.5L398.5 515.62L402.45 518.99L440.51 508.04L448.13 505.65L450.26 505.4L451.24 506.26L451.92 506.68L452.31 506.16L452.68 505.08L452.81 504.49L453.8 502.07L453.54 501.02L451.84 497.67L451.24 495.65L451.64 494.06L452.42 492.13L451.84 490.19L447.24 483.44L445.89 480.15L445.71 476.52L448.59 466L449.35 465.19L449.3 464.09L449.28 463.52L448.95 462.75L446.97 460.73L446.41 460.31L445.91 460.11L445.53 460.13L445.1 460.31L444.22 460.8L443.84 460.86L443.41 460.8L440.56 460.02L438.3 459.68Z" fill="#CCCCCC" stroke="white" stroke-width="0.5"/>
<path d="M458.22 521.25L456.98 519.59L456.58 518.77L455.97 517.83L455.44 517.21L453.89 514.72L453.25 512.93L453.12 511.88L453.72 510.9L455.69 509.79L456.02 508.13L455.52 507.62L454.96 506.7L453.8 502.07L452.81 504.49L452.68 505.08L452.31 506.16L451.92 506.68L451.24 506.26L450.26 505.4L448.13 505.65L440.51 508.04L402.45 518.99L411.04 527.19L410.95 529.09L410.52 531.98L409.08 533.72L407.68 535.06L400.08 539.29L398 540.97L396.91 541.65L395.59 542.14L390.39 542.95L389.42 543.36L386.99 544.97L386.36 545.12L384.66 545.28L383.33 545.9L381.82 547.06L379.46 549.63L366.75 568.53L365.59 570.64L365.49 573.7L365.03 576.38L363.83 579.93L355.16 598.56L354.4 600.88L354.17 602.53V603.79L354.32 604.6L354.63 605.29L354.69 606.7L354.35 608.75L351.13 617.25L350.86 618.44L350.31 623.11L349.77 625.11L349.17 626.42L344.57 632.94L341.76 637.76L341.15 639.19L340.87 640.13L339.87 648.52L338.83 651.85L336.4 657.71L331.1 667.62L328.98 672.71L328.37 673.67L334.51 679.01L334.52 679.02H334.53L334.54 679.03L343.17 686.09L350.37 691.98L357.56 697.85L364.76 703.73L371.96 709.61L381.31 717.23L390.67 724.85L400.03 732.47L409.38 740.08L413.34 743.3L414.39 741.48L432.31 710.02L447.02 667.58L449.92 661.79L453.27 657.41L454.55 656.11L458.6 653.16L463.52 651.08L464.08 650.69L468.06 644.46L471.24 640.71L475.03 637.25L478.92 630.34L480.89 625.77L487.07 592.1L471.37 585.61L469.85 584.62L464.53 578.32L462.77 575.07L463.17 572.82L464.98 570.76L466.71 570.34L468.95 571.21L470.35 572.03L471.95 569.75L470.86 562.58L470.91 556.52L471.24 553.4L468.5 539.78L469.08 536.76L469.76 534.43L470.42 533.45L472.02 532.81L474.99 530.82L477.35 529.92L477.78 529.62L477.8 529.19L477.31 528.56L476.59 527.98L476.09 527.5L475.71 526.9L475.41 526.26L475.4 525.67L475.61 525.17L476.44 524.65L476.94 524.54L477.33 524.53L477.68 524.13L477.95 523.74L479.15 519.86L475 518.5L472.57 517.1L470.75 515.56L468.52 514.37L464.5 517.26L463.87 517.19L463.2 517.33L462.82 517.31L461.13 518.47L458.22 521.25Z" fill="#CCCCCC" stroke="white" stroke-width="0.5"/>
<path d="M375.3 195.58L375.96 195.39L376.16 195.31L376.37 194.99L376.46 194.46L376.54 193.23L376.89 191.89L376.99 191.25L377.03 190.34L376.68 182.53L376.39 181L375.76 179.82L375.25 179.27L374.81 179.02L374.43 178.95L374.05 178.8L373.84 178.53L373.75 178.13L373.98 177.48L374.14 176.69L373.81 175.44L373.41 174.47L373.02 173.87L372.64 173.44L372.42 173.11L372.32 172.73L372.65 172.13L372.82 171.69L373.35 168.94L372.56 169.68L372.39 170.43L372.08 171.88L371.26 172.33L370.17 172.42L369 172.8L368.38 173.56L367.15 175.77L366 176.66L364.4 177.13L362.84 178.23L357.49 180.48L347.62 187.26L346.21 187.37L345.55 187.58L344.74 188.09L342.84 189.7L341.83 190.37L339.51 191.42L339.23 191.45L339.03 191.42L338.89 191.46L338.75 191.56L338.57 191.62L338.32 191.58L338.03 191.59L337.71 191.56L337.49 191.68L337.23 191.97L336.98 192.37L336.7 192.95L336.42 193.16L336.27 193.33L336.23 193.47L336.95 194.63L337.76 196.56L337.94 197.25L337.8 197.86L337.36 198.73L337.01 199.26L336.89 199.54L336.65 200.87L336.7 201.54L336.88 202.3L337.28 202.98L337.31 204.28L337.49 204.91L339.72 207.82L340.36 208.43L341.64 209.43L342.01 209.94L342.41 210.65L342.47 211.39L342.57 212.17L343.51 214.76L343.69 214.98L343.89 215.08L344.07 215.03L344.22 214.94L344.36 214.97L344.41 215.2L344.37 215.72L344.04 216.48L343.88 217.11L343.93 217.78L343.66 219.44L343.63 220.16L343.71 220.42L343.81 220.57L343.94 220.6L344.12 220.55L344.32 220.56L344.74 220.69L345 221.43L345.66 222.6L345.75 223.18L345.86 223.38L346.09 223.49L346.33 223.54L346.43 223.64V224L346.53 224.16L346.69 224.22L346.96 224.2L347.01 224.35L346.99 224.59L346.82 224.84L346.84 225L347 225.1L347.29 225.14H347.63L347.88 225.2L348.09 225.22L348.39 225.2L348.51 225.32L348.71 226.24L348.82 226.52L348.86 226.77L349.04 227.38L349.12 227.76L348.99 228.24L348.59 229.32L348.61 229.56L348.92 230.04L349.1 230.51L348.96 231.15L348.09 231.72L345.05 232.13L315.94 232.32L306.56 234.39L304.51 244.1L305.09 245.5L305.21 267.25L308.47 281.63L324.32 294.7L327.86 296.72L330.47 297.08L340.24 291.49L341.78 299.96L342.16 306.11L342.8 309.07L344.89 312.09L346.13 317.37L346.94 322.59L351.22 333.02L356.82 340.52L369.91 353.72L381.14 363.56L385.46 365.17L394.23 366.65L404.26 370.69L411.66 373.15L425.36 372.81L427.83 373.55L430.68 376.15L431.95 377.55L433.45 380.35L436.01 386.77L437.8 389.87L438.61 390.77L435.88 392.91L438.91 393.81L441.68 395.74L447.7 396.1L452.06 389.79L453.27 388.33L455.18 386.55L456.6 385.51L459.81 382.63L460.49 380.09L460.75 377.66L459.81 375.4L461.02 370.1L461.35 369.38L462.49 367.55V367.13L462.29 366.72L460.67 365.08L460.12 364.38L459.7 363.55L459.5 362.66L459.51 361.76L459.67 360.87L461.19 356.66L463.98 352.27L464.46 350.55L464.54 348.72L464.28 346.83L463.64 345.3L462.67 344.07L458.89 340.64L458.16 340.32L457.66 340.11L455.48 339.78L453.25 340.05L452.59 340.24L452 340.31L451.62 340.22L451.36 339.97L451.35 339.15L451.4 338.67L452.31 337.36L452.53 336.14L453.12 334.51L453.01 334.02L452.58 333.35L452.71 333.02L454.46 331.8L454.78 331.48L454.98 330.86V330.44L454.87 330.1L454.27 329.05L454.17 328.67L454.33 328.32L454.65 328.04L455.33 327.88L456.29 327.85L456.47 327.73L456.57 327.46L456.49 325.12L456.33 324.76L456.15 324.5L456.14 324.26L456.43 324.05L457.18 323.88L458.17 323.93L458.52 323.79L458.86 323.49L459.09 322.86L459.42 322.31L459.7 321.96L460.18 321.88L460.33 322.09L460.36 322.38L460.16 322.84L460.18 322.99L460.33 323.1L460.6 323.12L460.85 322.97L461.03 322.67L461.23 321.87L461.56 321.15L463.25 318.64L463.58 318.42L464.3 318.16L465.24 318.11L465.52 318.06L465.8 317.9L466.12 317.64L466.46 317.45L466.71 317.5L467.17 318.01L467.42 318.21L467.65 318.12L467.82 317.71L467.8 315.91L467.96 315.36L468.57 314.95L468.98 314.81L469.26 314.56L469.33 314.17L469.11 312.21L470.23 311.47L469.28 310.29L468.7 309.96L468.07 309.46L467.32 308.6L466.87 307.93L466.64 307.37V306.94L467.27 305.94L468.08 304.18L468.63 302.33L468.67 301.53L468.39 300.55L468.2 300.06L468.11 299.71L468.66 299.13L468.85 298.81L469.13 297.89L469.28 297.55L469.33 297.28L469.09 297.09L468.83 297.13L468.38 297.41L468.11 297.48L467.8 297.41L467.63 297.23V296.95L468.01 296.49L468.18 296.22L468.23 295.99L467.96 295.82L467.75 295.89L467.55 296.05L467.4 296.14L467.34 295.98L467.4 295.62L467.78 294.94L468.1 294.68L468.48 294.6L468.8 294.57L469.58 294.32L469.86 294.06L469.95 293.68L469.58 292.9L469.28 292.58L468.98 292.45L468.76 292.46L468.66 292.35L468.76 292.09L469.74 291.2L469.94 290.45L469.97 289.9L468.73 286.69L468.78 285.76L468.86 285.38L469.04 284.84L469.99 283.59L470.33 283.41L471.05 283.82L472.67 284.5L473.93 284.8L474.65 285.14L475.53 285.73L478.51 288.43L478.94 288.69L479.19 288.66L479.6 287.47L480.13 286.48L481.04 285.4L482.43 284.2L483.77 283.29L484.94 282.16L485.97 280.75L487.25 278.01L487.38 276.55L487.11 275.39L486.72 274.8L486.37 274.17L486.2 273.56V272.98L486.59 272.33L487.38 271.61L489.05 270.66L491.35 269.98L492.35 269.54L493.52 268.59L495.1 266.96L496.19 265.13L496.53 264.03L496.47 263.2L496.38 262.56L496.43 261.91L496.96 261.13L497.92 260.36L500.04 259.53L502.73 258.14L506.59 254.58L506.39 247.5L506.66 246.16L506.71 245.71L506.63 245.33L506.43 244.9L505.44 243.7L498.42 238.77L495.37 238.21L486.43 237.83L485.03 238.33L483.19 237.83L481.85 237.19L473.61 228.51L472.58 228.54L472.09 228.78L471.49 229.21L470.72 230.16L470.05 231.23L469.63 233.01L469.72 234.41L471.36 238.3L471.29 239.78L470.5 241.02L468.27 242.7L467.01 243.32L466.01 243.96L465.4 244.58L463.6 247.18L461.85 248.94L460.59 250.89L460.49 251.72L460.42 251.95L460.39 252.14L460.42 252.39L460.41 252.71L460.14 253.2L459.81 253.95L459.78 254.21L459.74 254.39L459.81 254.74L459.75 255.07L459.37 255.68L459.25 255.92V256.19L459.12 256.5L458.83 256.87L457.89 257.39L456.6 259.21L456.33 260.21L456.04 260.77L455.58 261.36L454.55 262.28L454.3 262.66L454.21 263.05L454.25 264.01L454.18 264.55L453.9 265.63L453.98 266.05L454.28 266.69L454.3 266.92L454.16 267.36L454.18 267.6L454.33 267.79L454.63 267.9L455.48 268.01L455.52 268.26L455.16 268.78L453.31 270.99L452.08 271.02L451.26 270.79L445.05 265.99L438.23 259.11L433.28 256.07L426.35 252.97L420.62 250.8L415.28 247.59L398.98 237.79L392.66 234.86L390.78 233.6L390.01 232.4L388.52 231.34L386.39 230.34L385.31 228.76L379.95 222.94L379.3 222.45L378.48 221.33L377.77 220.07L377.46 219.18L377.81 218.09L378.61 217.59L379.55 217.28L380.25 216.79L380.55 214.88L378.86 214.09L374.67 213.38L375.19 212.73L375.44 212.12L375.73 210.65L375.66 210.23L375.37 209.91L375.2 209.52L375.46 208.91L375.74 208.68L376.03 208.58L376.26 208.47L376.34 208.19L375.85 206.92L374.69 206.12L372.39 205.18L371.47 204.38L369.4 202.08L369 201.32L368.82 201.07L368.44 200.79L368.06 200.26L367.89 199.3L368.01 198.3L368.21 197.71L368.26 197.15L367.89 196.22L368.42 194.73L369.66 195.16L369.99 195.35L370.22 195.74L370.27 196.07L370.38 196.35L370.7 196.89L370.77 197.34L370.78 197.8L371.24 198.53L371.73 198.73L372.46 198.66L373.81 196.4L375.3 195.58Z" fill="#CCCCCC" stroke="white" stroke-width="0.5"/>
<path d="M413.68 38.2799L411.11 37.6599L408.83 36.7499L403.1 35.7299L402.17 35.4599L400.72 34.6599L400.34 34.5399L399.99 34.5199L399.73 34.5999L399.43 34.8099L399.08 35.1899L398.83 35.5499L398.45 36.3899L398.37 36.6699L398.38 37.0399L398.27 37.8799L397.97 38.6999L397.77 39.4599L397.72 39.8499L397.74 40.2099L397.77 40.5099L398 40.9999L398.04 41.2799L398.14 41.5699L398.35 41.8999L399.19 42.5099L399.6 42.7199L400.09 42.8599L401.23 42.8999L401.86 43.0299L402.55 43.3999L403.93 43.8499L404.44 43.9499L404.89 44.1499L405.15 44.4599L405.35 44.9299L405.45 45.4399L405.52 45.9499L405.49 46.4199L405.35 46.9199L404.67 48.3299L404.28 48.7599L403.91 49.0099L403.46 49.1899L403.4 49.4199L403.56 50.0199L403.6 50.3799V50.6999L403.61 50.9499L403.66 51.1999L403.69 51.7099L403.76 51.9999L403.83 52.3699L403.81 52.8999L403.71 53.5399L403.35 54.6899L403.08 54.9699L402.78 54.9899L402.49 54.7999L401.1 54.3299L400.34 54.4599L399.75 54.7799L399.48 55.1499L399.34 55.6699V56.2499L399.26 56.7399L399.04 57.2099L398.5 57.2399L397.33 57.0099L385.49 53.8099L382.88 52.5399L381.43 51.1899L378.97 49.4099L377.87 48.2399L376.6 47.2099L375.35 46.5399L372.24 46.1799L370.93 46.6199L369.78 47.5099L369.19 48.5399L366.68 51.5899L364.28 55.5599L363.56 57.8599L362.82 59.6799L362.46 61.2899L361.23 62.1599L358.51 63.5699L355.23 63.8599L344.54 65.3299L337.85 69.0699L336.86 68.8499H335.66L334.72 69.0399L333.94 69.6299L333.27 70.8699L332.57 69.2799L332.15 68.6199L331.54 68.0899L330.37 67.4699L329.7 67.4199L326.82 68.8699L325.97 68.9299L325.41 68.0899L325.61 67.3099L326.36 66.6999L328.19 65.9999L327.48 65.2499L326.83 65.0499L326.18 64.9899L325.41 64.6099L323.97 63.2999L321.49 60.4899L320.77 59.9499L319.78 59.7299L319.05 59.9399L318.61 60.3999L318.25 60.8599L317.85 61.0599L314.41 60.9999L313.1 60.3199L311.99 57.2099L310.61 56.1799L308.07 54.8599L306.44 55.4899L305.55 54.6799L305.93 53.6099L308.07 53.4599L307.18 51.7699L306.49 51.0099L306.3 50.0599L306.91 47.8199L305.55 47.4899L305.49 45.8399L305.87 43.7999L305.84 42.2399L304.25 44.0799L302.82 44.1099L301.36 43.0199L298.25 39.9399L296.86 37.7499L295.73 35.3299L295.16 33.1499L292.64 35.0999L287.41 40.0899V40.0999V40.1099H287.39L278.96 49.1599L262.64 66.6799L251.64 78.4599L249.48 80.3099L247.24 81.3699L221.91 86.7799L216.61 87.6599L214.21 88.7799L212.57 91.0399V91.0499L212.56 91.0599V91.0699L205.35 105.19L204.69 107.9L202.05 133.3L202.06 134.98L202.38 136.73L204.48 141.65V141.66L210.8 155.43L211.68 158.66L212.07 161.97L212.42 175.8L211.97 178.95L210.68 181.98L207.92 186.14L204.07 191.96V191.97H204.06H204.05L203.3 194.99L202.58 204.76L199.18 217.12L198.37 223.21L198.44 225.53L200.19 225.58L210.68 226.57L224.48 230.54L229.96 231.42L252.32 240.71L263.11 244.94L268.42 245.29L279.9 243.78L281.38 244.1L284.24 245.45L286.71 246.52L304.51 244.1L306.56 234.39L315.94 232.32L345.05 232.13L348.09 231.72L348.96 231.15L349.1 230.51L348.92 230.04L348.61 229.56L348.59 229.32L348.99 228.24L349.12 227.76L349.04 227.38L348.86 226.77L348.82 226.52L348.71 226.24L348.51 225.32L348.39 225.2L348.09 225.22L347.88 225.2L347.63 225.14H347.29L347 225.1L346.84 225L346.82 224.84L346.99 224.59L347.01 224.35L346.96 224.2L346.69 224.22L346.53 224.16L346.43 224V223.64L346.33 223.54L346.09 223.49L345.86 223.38L345.75 223.18L345.66 222.6L345 221.43L344.74 220.69L344.32 220.56L344.12 220.55L343.94 220.6L343.81 220.57L343.71 220.42L343.63 220.16L343.66 219.44L343.93 217.78L343.88 217.11L344.04 216.48L344.37 215.72L344.41 215.2L344.36 214.97L344.22 214.94L344.07 215.03L343.89 215.08L343.69 214.98L343.51 214.76L342.57 212.17L342.47 211.39L342.41 210.65L342.01 209.94L341.64 209.43L340.36 208.43L339.72 207.82L337.49 204.91L337.31 204.28L337.28 202.98L336.88 202.3L336.7 201.54L336.65 200.87L336.89 199.54L337.01 199.26L337.36 198.73L337.8 197.86L337.94 197.25L337.76 196.56L336.95 194.63L336.23 193.47L336.27 193.33L336.42 193.16L336.7 192.95L336.98 192.37L337.23 191.97L337.49 191.68L337.71 191.56L338.03 191.59L338.32 191.58L338.57 191.62L338.75 191.56L338.89 191.46L339.03 191.42L339.23 191.45L339.51 191.42L341.83 190.37L342.84 189.7L344.74 188.09L345.55 187.58L346.21 187.37L347.62 187.26L357.49 180.48L362.84 178.23L364.4 177.13L366 176.66L367.15 175.77L368.38 173.56L369 172.8L370.17 172.42L371.26 172.33L372.08 171.88L372.39 170.43L372.56 169.68L373.35 168.94L372.01 165.77L371.91 165.2L371.84 164.35L372.16 163.16L373.93 159.09L374.36 158.44L374.81 158.16H375.4L376.04 158.02L376.64 157.43L377.52 155.41L378.26 148.42L378.25 146.54L377.97 145.82L376.92 145.81L375.58 145.64L374.71 144.74L374.21 142.2L374.87 141.17L385.46 136.7L386.34 135.87L387.5 134.14L387.74 133.62L387.84 133.13L387.71 131.13L387.74 130.46L387.91 129.61L389.66 126.35L389.88 125.69L390.07 124.97L390.48 124.06L390.77 123.75L391.45 123.65L393.04 122.48L393.97 120.49L394.41 119.31L394.84 118.66L397.42 116.31L398.15 115.31L399.1 113.66L399.75 112.78L400.4 112.18L402.24 111.37L403.4 109.99L404.04 109.69L405.55 108.71L406.87 107.49L410.3 103.36L411.69 100.98L412.28 98.9599L412.19 97.4699L412.07 96.5399L411.71 95.6099L411.76 95.2299L411.99 94.9699L412.28 94.9499L413.19 95.1099L413.78 95.1199L414.37 94.9099L415.02 94.5399L415.79 93.9499L416.07 93.4599L416.17 92.9199V92.4799L416.14 92.0999L416.02 91.7399L415.83 91.3999L415.66 90.9599L415.61 89.9699L415.81 89.5399L416.14 89.3299L418.2 89.5899L418.72 89.5699L419.45 89.2999L419.83 88.7299L420 88.0999L419.92 86.8599L420.03 86.1299L420.24 85.8499L420.48 85.8099L420.74 86.0299L421 86.3099L421.22 86.6599L421.63 86.7799L422.14 86.6199L423.28 85.7499L423.85 84.9999L424.66 84.3299L424.98 83.8599L425.21 83.4499L425.54 82.5799L427.61 80.1999L428.29 79.6399L428.73 79.4099L428.95 79.5899L429.2 79.6899L429.59 79.6399L429.68 79.3999L429.39 78.9199L429.28 78.5499L429.31 78.0299L429.5 77.8499L429.66 77.8799L429.82 78.1599L429.91 78.5099L430.02 78.7899L430.27 79.0599L430.6 79.2599L431 79.3399L431.38 79.2899L431.82 79.1299L432.2 79.0699L432.57 79.0799L432.74 79.1899L432.8 79.4399L432.69 79.7799L432.53 80.1599L432.46 80.5499L432.53 80.9199L432.79 81.2199L433.33 81.3899L433.58 81.2599L433.71 80.9099L433.73 80.5199L433.86 79.9699L434.08 79.7199L434.36 79.5999L434.67 79.6399L434.96 79.6099L435.78 79.2199L436.22 79.0899L436.64 79.1099L437.09 79.2399L437.39 79.4299L437.52 79.6199L437.5 79.8999L437.6 80.1999L437.92 80.3499L438.76 80.1999L439.8 79.2799L441.21 78.4099L443.44 76.3899L444.06 75.9499L445.46 75.4699L446.75 73.4399L449.05 71.3799L451.97 67.4699L452.38 66.5799L452.43 66.0899L452.36 65.7099L452.21 65.4099L452.03 65.2399L451.84 65.2099L451.65 65.2999L451.45 65.4999L451.26 65.5699L451.04 65.4699L450.55 64.3199L450.3 63.5699L449.45 62.6799L449.37 62.2199L449.3 61.3499L449.14 60.9499L448.7 60.5099L448.01 60.0999L446.64 59.0099L438.94 55.6199L438.36 55.1999L437.98 54.7799L437.7 54.2499L437.31 53.9899L437.03 53.8599L434.58 53.6299L433.83 53.4599L433.48 53.4799L433.12 53.5799L432.49 53.6499L432.19 53.4599L431.51 52.3799L431.44 52.0899L431.55 51.8199L431.63 51.3899L431.6 50.9199L431.07 50.1099L430.74 49.8199L430.39 49.7199L430.09 49.7999L428.75 49.8499L428.57 49.6599L428.58 49.4699L428.8 49.3199L429.12 49.2499L429.33 49.0899L429.38 48.7999L429 48.1499L428.77 47.6499L428.67 47.1499L428.25 46.5299L427.76 46.1299L426.71 45.5899L425.57 44.6699L423.92 43.6499L422.1 41.8799L421.67 41.5399L421.22 41.4099L420.74 41.5199L418.87 41.1099L413.68 38.2799Z" fill="#CCCCCC" stroke="white" stroke-width="0.5"/>
<path d="M450.97 42.6401L447.58 41.7601L446.84 41.1601L446.31 40.0901L443.02 32.6401L442.41 30.5301L442.46 28.3401L443.16 26.2701L444.53 24.4801L445.58 23.8701L446.51 23.6901L447.32 23.3201L447.99 22.1201L448.1 21.1201L448.01 19.8401L447.6 17.6001L446.9 15.2401L445.94 13.4701L444.61 12.0901L442.78 10.8901L434.9 7.61009L433.35 7.34009L432.96 8.82009L433.24 9.31009L433.5 9.44009L433.7 9.61009L433.88 10.0501L433.93 10.2101L434.06 10.3401L434.23 10.4401L434.42 10.5301L434.57 10.6701L434.81 10.8001L434.92 11.0701V11.4101L434.19 12.9001L433.96 13.5701L433.91 13.9901L433.93 14.3701L434.08 14.9601L434.15 15.5701L434.31 15.8601L434.52 16.0401L434.82 16.1501L435.33 16.1601L435.48 16.2301L435.61 16.3801L435.83 17.5501V17.9501L435.76 18.2301L434.86 18.6201L433.98 19.3301L433.34 19.9701L432.37 21.2901L432.11 21.8601L432.06 22.2601L432.43 22.9701L432.26 23.2601L431.83 23.5901L430.78 24.0101L429.08 24.9201L428.63 25.3301L427.4 27.0701L427.1 27.6301L426.63 28.0701L425.97 28.4801L424.5 29.1801L423.8 29.4301L423.44 29.6701L423.59 29.9901L423.77 30.2101L423.74 30.4201L423.37 30.6701L420.31 31.9001L418.89 32.7301L418.41 33.1401L418.14 33.7501L417.78 34.8601L417.46 35.3701L417.08 35.7401L416.41 35.9101L415.3 36.4601L413.68 38.2801L418.87 41.1101L420.74 41.5201L421.22 41.4101L421.67 41.5401L422.1 41.8801L423.92 43.6501L425.57 44.6701L426.71 45.5901L427.76 46.1301L428.25 46.5301L428.67 47.1501L428.77 47.6501L429 48.1501L429.38 48.8001L429.33 49.0901L429.12 49.2501L428.8 49.3201L428.58 49.4701L428.57 49.6601L428.75 49.8501L430.09 49.8001L430.39 49.7201L430.74 49.8201L431.07 50.1101L431.6 50.9201L431.63 51.3901L431.55 51.8201L431.44 52.0901L431.51 52.3801L432.19 53.4601L432.49 53.6501L433.12 53.5801L433.48 53.4801L433.83 53.4601L434.58 53.6301L437.03 53.8601L437.31 53.9901L437.7 54.2501L437.98 54.7801L438.36 55.2001L438.94 55.6201L446.64 59.0101L448.01 60.1001L448.7 60.5101L449.14 60.9501L449.3 61.3501L449.37 62.2201L449.45 62.6801L450.3 63.5701L450.55 64.3201L451.04 65.4701L451.26 65.5701L451.45 65.5001L451.65 65.3001L451.84 65.2101L452.03 65.2401L452.21 65.4101L452.36 65.7101L452.43 66.0901L452.38 66.5801L451.97 67.4701L449.05 71.3801L446.75 73.4401L445.46 75.4701L444.06 75.9501L443.44 76.3901L441.21 78.4101L439.8 79.2801L438.76 80.2001L437.92 80.3501L437.6 80.2001L437.5 79.9001L437.52 79.6201L437.39 79.4301L437.09 79.2401L436.64 79.1101L436.22 79.0901L435.78 79.2201L434.96 79.6101L434.67 79.6401L434.36 79.6001L434.08 79.7201L433.86 79.9701L433.73 80.5201L433.71 80.9101L433.58 81.2601L433.33 81.3901L432.79 81.2201L432.53 80.9201L432.46 80.5501L432.53 80.1601L432.69 79.7801L432.8 79.4401L432.74 79.1901L432.57 79.0801L432.2 79.0701L431.82 79.1301L431.38 79.2901L431 79.3401L430.6 79.2601L430.27 79.0601L430.02 78.7901L429.91 78.5101L429.82 78.1601L429.66 77.8801L429.5 77.8501L429.31 78.0301L429.28 78.5501L429.39 78.9201L429.68 79.4001L429.59 79.6401L429.2 79.6901L428.95 79.5901L428.73 79.4101L428.29 79.6401L427.61 80.2001L425.54 82.5801L425.21 83.4501L424.98 83.8601L424.66 84.3301L423.85 85.0001L423.28 85.7501L422.14 86.6201L421.63 86.7801L421.22 86.6601L421 86.3101L420.74 86.0301L420.48 85.8101L420.24 85.8501L420.03 86.1301L419.92 86.8601L420 88.1001L419.83 88.7301L419.45 89.3001L418.72 89.5701L418.2 89.5901L416.14 89.3301L415.81 89.5401L415.61 89.9701L415.66 90.9601L415.83 91.4001L416.02 91.7401L416.14 92.1001L416.17 92.4801V92.9201L416.07 93.4601L415.79 93.9501L415.02 94.5401L414.37 94.9101L413.78 95.1201L413.19 95.1101L412.28 94.9501L411.99 94.9701L411.76 95.2301L411.71 95.6101L412.07 96.5401L412.19 97.4701L412.28 98.9601L411.69 100.98L410.3 103.36L406.87 107.49L405.55 108.71L404.04 109.69L403.4 109.99L402.24 111.37L400.4 112.18L399.75 112.78L399.1 113.66L398.15 115.31L397.42 116.31L394.84 118.66L394.41 119.31L393.97 120.49L393.04 122.48L391.45 123.65L390.77 123.75L390.48 124.06L390.07 124.97L389.88 125.69L389.66 126.35L387.91 129.61L387.74 130.46L387.71 131.13L387.84 133.13L387.74 133.62L387.5 134.14L386.34 135.87L385.46 136.7L374.87 141.17L374.21 142.2L374.71 144.74L375.58 145.64L376.92 145.81L377.97 145.82L378.25 146.54L378.26 148.42L377.52 155.41L376.64 157.43L376.04 158.02L375.4 158.16H374.81L374.36 158.44L373.93 159.09L372.16 163.16L371.84 164.35L371.91 165.2L372.01 165.77L373.35 168.94L372.82 171.69L372.65 172.13L372.32 172.73L372.42 173.11L372.64 173.44L373.02 173.87L373.41 174.47L373.81 175.44L374.14 176.69L373.98 177.48L373.75 178.13L373.84 178.53L374.05 178.8L374.43 178.95L374.81 179.02L375.25 179.27L375.76 179.82L376.39 181L376.68 182.53L377.03 190.34L376.99 191.25L376.89 191.89L376.54 193.23L376.46 194.46L376.37 194.99L376.16 195.31L375.96 195.39L375.3 195.58L378.98 197.93L379.77 198.3L381.48 198.77L382.35 198.8L383.18 198.64L384.8 197.19L386.06 196.79L389.55 196.63L391.15 196.37L392.44 195.64L393.15 194.45L394.1 191.54L394.89 190.46L396 189.95L397.82 189.99L400.55 189.76L403.2 188.16L404.94 188L405.82 187.64L406.63 186.56L407.47 183.56L407.92 181.06L408.48 179.89L409.72 178.36L410.78 177.37L411.47 176.46L411.52 175.34L411.19 174.42L410.68 173.51L408.89 171.47L408.36 171.01L408.3 170.37L408.81 169.5L413.81 165.26L419.7 158.85L420.52 156.63L421.77 156.39L423.62 157.08L432.24 163.27L435.29 163.15L437.03 162.82L437.79 162.35L438.51 160.85L439.7 157.65L441.58 156.92L442.95 156.64L447.43 157.52L449.22 157.87L450.76 158.66L451.24 158.76L451.9 158.71L452.7 158.51L453.88 157.87L454.35 157.44L454.75 156.81L455.06 156.8L456.06 157.31L456.54 157.45L457.84 157.67L458.2 157.84L458.45 157.9L458.7 157.85L459.12 156.99L459.4 156.77L460.93 156.11L461.38 155.84L461.74 155.48L462.17 155.18L462.77 155.11L463.79 155.28L464.5 155.27L466.25 154.25L468.05 154.81L468.27 155.1L468.5 155.23L468.88 155.17L469.58 154.77L470.07 154.63L470.67 154.85L471.01 155.21L471.53 155.98L471.85 156.18L472.14 156.12L472.29 155.65L472.24 155.3L472.14 154.98L472.07 154.64L472.12 154.32L472.43 154.09L472.75 154.02L473.61 154.58L473.94 154.64L474.34 154.2L474.67 153.74L475.15 153.23L475.84 152.66L476.13 152.17L476.44 151.4L476.67 151.07L477.05 150.81L477.93 150.37L478.2 150.42L478.45 150.78V151.75L478.94 152.61L480.43 151.91L480.67 151.95L481.05 152.13L481.27 152.46L481.6 152.79L481.91 152.74L482.8 152.22L483.16 152.23L483.39 152.38L483.54 152.6L483.56 152.84L483.54 153.09L483.57 153.38L483.87 153.8L484.28 153.87L484.75 153.8L486.7 153.19L487.33 153.23L487.76 153.35L488.17 154.03L488.64 154.43L489.07 154.47L489.54 154.29L489.98 154L490.68 153.74L491.19 153.78L491.55 153.93L491.91 154.33L492.21 154.78L492.87 155.31L493.25 155.35L493.5 155.13L493.57 154.8L493.65 154.13L493.78 153.81L494.01 153.49L494.35 153.16L494.61 153.15L494.91 153.26L495.17 153.46L495.32 153.74L495.4 155.24L495.57 155.79L495.77 155.93L496.02 155.85L496.8 155.06L498.05 154.62L498.51 153.99L498.42 153.74L497.54 152.1L497.59 151.83L497.82 151.69L498.47 151.56L498.76 151.59L499.27 151.81L499.55 151.85L500.42 151.72L500.82 151.79L501.1 151.96L501.48 152.36L501.66 152.5L501.84 152.62L501.99 152.84L502.42 153.12L503.2 153.34L505.07 153.39L505.93 153.27L506.52 153.06L507.04 152.63L507.2 152.35L507.38 151.75L507.5 151.52L507.55 151.29L507.52 151.02L507.4 150.73L506.86 150.06L501.33 147.3L499.31 145.88L496.73 143.46L490.75 136.21L489.97 135.56L489 134.92L487.13 134.12L478.94 128.27L478.51 127.34L478.15 126.06L479.91 124.64L480.54 124L480.99 123.31L481.42 122.49L482.05 122.01L483.95 121.12L484.71 120.26L484.48 119.42L484.02 118.66L479.92 113.69L479.11 113.01L478.25 112.97L477.72 113.36L476.93 114.27L472.23 107.08L471.77 105.9L471.8 103.75L474.49 101.36L475.4 100.02L476.97 98.1801L479.47 96.2801L481.17 95.7201L482.52 95.9101L484.86 96.6001L488.59 96.0101L492.16 95.0601L496.4 92.9201L498.2 92.5201L499.87 92.4801L503.36 93.3501L506.18 93.5501L507.35 93.1101L508.26 92.4601L509.37 90.7801L509.82 89.7801L510.15 88.8101V88.8001L509.85 88.5501L508.67 87.0201L508.83 85.4001L509.2 85.1501L510.21 84.7601L510.45 84.5601L510.53 82.4201L511.4 78.9401L512.99 75.2601L513.12 73.3601L512.25 71.1601L510.27 67.5001L509.06 65.8601L507.69 65.1101L506.63 65.0801L505.68 64.7701L504.83 64.1701L504.08 63.2701L503.06 62.3701L501.88 62.1701L499.35 62.3101L497.22 61.8301L495.59 60.7401L494.95 58.9601L495.83 56.4401L498.73 52.8801L499.85 51.0501L500.29 48.5901L499.9 46.3001L499.15 44.6401L498.69 42.8301L499.14 40.1001L500.04 38.9701L500.17 37.8601L499.63 36.9401L497.85 36.0001L496.92 34.9801L496.36 34.6601L495.57 34.7001L493.95 35.2001L493.19 35.0401L492.82 34.5301L492.41 32.9701L492.09 32.3001L491.5 31.8701L490.89 31.6801L490.31 31.4101L489.83 30.7301L489.18 28.9201L489.16 27.9101L490.27 24.9601L489.27 23.2001L487.63 22.3701L479.07 21.1601L477.55 21.2301L474.93 22.4601L471.76 24.7801L468.82 27.5601L466.85 30.0801L464.82 31.6801L462.67 32.8601L455.73 35.1501L455.08 36.3001L454.79 37.9101L453.53 40.0901V40.1001L453.52 40.1101H453.51L452.75 41.8201L451.98 42.5601L450.97 42.6401Z" fill="#CCCCCC" stroke="white" stroke-width="0.5"/>
<path d="M478.94 152.61L478.45 151.75V150.78L478.2 150.42L477.93 150.37L477.05 150.81L476.67 151.07L476.44 151.4L476.13 152.17L475.84 152.66L475.15 153.23L474.67 153.74L474.34 154.2L473.94 154.64L473.61 154.58L472.75 154.02L472.43 154.09L472.12 154.32L472.07 154.64L472.14 154.98L472.24 155.3L472.29 155.65L472.14 156.12L471.85 156.18L471.53 155.98L471.01 155.21L470.67 154.85L470.07 154.63L469.58 154.77L468.88 155.17L468.5 155.23L468.27 155.1L468.05 154.81L466.25 154.25L464.5 155.27L463.79 155.28L462.77 155.11L462.17 155.18L461.74 155.48L461.38 155.84L460.93 156.11L459.4 156.77L459.12 156.99L458.7 157.85L458.45 157.9L458.2 157.84L457.84 157.67L456.54 157.45L456.06 157.31L455.06 156.8L454.75 156.81L454.35 157.44L453.88 157.87L452.7 158.51L451.9 158.71L451.24 158.76L450.76 158.66L449.22 157.87L447.43 157.52L442.95 156.64L441.58 156.92L439.7 157.65L438.51 160.85L437.79 162.35L437.03 162.82L435.29 163.15L432.24 163.27L423.62 157.08L421.77 156.39L420.52 156.63L419.7 158.85L413.81 165.26L408.81 169.5L408.3 170.37L408.36 171.01L408.89 171.47L410.68 173.51L411.19 174.42L411.52 175.34L411.47 176.46L410.78 177.37L409.72 178.36L408.48 179.89L407.92 181.06L407.47 183.56L406.63 186.56L405.82 187.64L404.94 188L403.2 188.16L400.55 189.76L397.82 189.99L396 189.95L394.89 190.46L394.1 191.54L393.15 194.45L392.44 195.64L391.15 196.37L389.55 196.63L386.06 196.79L384.8 197.19L383.18 198.64L382.35 198.8L381.48 198.77L379.77 198.3L378.98 197.93L375.3 195.58L373.81 196.4L372.46 198.66L371.73 198.73L371.24 198.53L370.78 197.8L370.77 197.34L370.7 196.89L370.38 196.35L370.27 196.07L370.22 195.74L369.99 195.35L369.66 195.16L368.42 194.73L367.89 196.22L368.26 197.15L368.21 197.71L368.01 198.3L367.89 199.3L368.06 200.26L368.44 200.79L368.82 201.07L369 201.32L369.4 202.08L371.47 204.38L372.39 205.18L374.69 206.12L375.85 206.92L376.34 208.19L376.26 208.47L376.03 208.58L375.74 208.68L375.46 208.91L375.2 209.52L375.37 209.91L375.66 210.23L375.73 210.65L375.44 212.12L375.19 212.73L374.67 213.38L378.86 214.09L380.55 214.88L380.25 216.79L379.55 217.28L378.61 217.59L377.81 218.09L377.46 219.18L377.77 220.07L378.48 221.33L379.3 222.45L379.95 222.94L385.31 228.76L386.39 230.34L388.52 231.34L390.01 232.4L390.78 233.6L392.66 234.86L398.98 237.79L415.28 247.59L420.62 250.8L426.35 252.97L433.28 256.07L438.23 259.11L445.05 265.99L451.26 270.79L452.08 271.02L453.31 270.99L455.16 268.78L455.52 268.26L455.48 268.01L454.63 267.9L454.33 267.79L454.18 267.6L454.16 267.36L454.3 266.92L454.28 266.69L453.98 266.05L453.9 265.63L454.18 264.55L454.25 264.01L454.21 263.05L454.3 262.66L454.55 262.28L455.58 261.36L456.04 260.77L456.33 260.21L456.6 259.21L457.89 257.39L458.83 256.87L459.12 256.5L459.25 256.19V255.92L459.37 255.68L459.75 255.07L459.81 254.74L459.74 254.39L459.78 254.21L459.81 253.95L460.14 253.2L460.41 252.71L460.42 252.39L460.39 252.14L460.42 251.95L460.49 251.72L460.59 250.89L461.85 248.94L463.6 247.18L465.4 244.58L466.01 243.96L467.01 243.32L468.27 242.7L470.5 241.02L471.29 239.78L471.36 238.3L469.72 234.41L469.63 233.01L470.05 231.23L470.72 230.16L471.49 229.21L472.09 228.78L472.58 228.54L473.61 228.51L477.23 225.44L483.59 223.43L484.46 222.59L484.68 221.75L484.13 220.37L484 219.63L484.05 218.78L484.37 217.87L485.21 216.61L486.19 215.92L486.94 215.5L487.55 215.31L487.84 214.87L488.07 214.25L488.3 212.91L489.18 210.79L489.53 209.24L489.21 207.75L488.7 206.06L488.46 204.57L489.08 202.62L492.06 198.56L492.89 196.88L493.32 195.48L493.22 194.33L491.65 192.17L489.92 190.21L489.36 189.2L489.16 188.22L489.45 185.33L489.7 181.72L490.03 180.55L490.21 177.98L490.54 176.92L491.92 174.43L491.85 172.75L491.17 170.76L487.38 167.38L485.52 164.82L483.44 162.55L478.94 152.61Z" fill="#CCCCCC" stroke="white" stroke-width="0.5"/>
<path d="M328.13 1L327.4 1.06L323.37 2.7L322.83 3.08L322.33 3.91L322.16 4.63L322.06 5.34L321.75 6.15L311.51 21.14L310.5 23.93L310.23 24.48L308.92 25.07L301.89 26.26L297.21 27.81L293.57 28.24L294.09 29.45L294.7 30.49L295.17 31.64L295.19 33.12L295.16 33.15L295.73 35.33L296.86 37.75L298.25 39.94L301.36 43.02L302.82 44.11L304.25 44.08L305.84 42.24L305.87 43.8L305.49 45.84L305.55 47.49L306.91 47.82L306.3 50.06L306.49 51.01L307.18 51.77L308.07 53.46L305.93 53.61L305.55 54.68L306.44 55.49L308.07 54.86L310.61 56.18L311.99 57.21L313.1 60.32L314.41 61L317.85 61.06L318.25 60.86L318.61 60.4L319.05 59.94L319.78 59.73L320.77 59.95L321.49 60.49L323.97 63.3L325.41 64.61L326.18 64.99L326.83 65.05L327.48 65.25L328.19 66L326.36 66.7L325.61 67.31L325.41 68.09L325.97 68.93L326.82 68.87L329.7 67.42L330.37 67.47L331.54 68.09L332.15 68.62L332.57 69.28L333.27 70.87L333.94 69.63L334.72 69.04L335.66 68.85H336.86L337.85 69.07L344.54 65.33L355.23 63.86L358.51 63.57L361.23 62.16L362.46 61.29L362.82 59.68L363.56 57.86L364.28 55.56L366.68 51.59L369.19 48.54L369.78 47.51L370.93 46.62L372.24 46.18L375.35 46.54L376.6 47.21L377.87 48.24L378.97 49.41L381.43 51.19L382.88 52.54L385.49 53.81L397.33 57.01L398.5 57.24L399.04 57.21L399.26 56.74L399.34 56.25V55.67L399.48 55.15L399.75 54.78L400.34 54.46L401.1 54.33L402.49 54.8L402.78 54.99L403.08 54.97L403.35 54.69L403.71 53.54L403.81 52.9L403.83 52.37L403.76 52L403.69 51.71L403.66 51.2L403.61 50.95L403.6 50.7V50.38L403.56 50.02L403.4 49.42L403.46 49.19L403.91 49.01L404.28 48.76L404.67 48.33L405.35 46.92L405.49 46.42L405.52 45.95L405.45 45.44L405.35 44.93L405.15 44.46L404.89 44.15L404.44 43.95L403.93 43.85L402.55 43.4L401.86 43.03L401.23 42.9L400.09 42.86L399.6 42.72L399.19 42.51L398.35 41.9L398.14 41.57L398.04 41.28L398 41L397.77 40.51L397.74 40.21L397.72 39.85L397.77 39.46L397.97 38.7L398.27 37.88L398.38 37.04L398.37 36.67L398.45 36.39L398.83 35.55L399.08 35.19L399.43 34.81L399.73 34.6L399.99 34.52L400.34 34.54L400.72 34.66L402.17 35.46L403.1 35.73L408.83 36.75L411.11 37.66L413.68 38.28L415.3 36.46L416.41 35.91L417.08 35.74L417.46 35.37L417.78 34.86L418.14 33.75L418.41 33.14L418.89 32.73L420.31 31.9L423.37 30.67L423.74 30.42L423.77 30.21L423.59 29.99L423.44 29.67L423.8 29.43L424.5 29.18L425.97 28.48L426.63 28.07L427.1 27.63L427.4 27.07L428.63 25.33L429.08 24.92L430.78 24.01L431.83 23.59L432.26 23.26L432.43 22.97L432.06 22.26L432.11 21.86L432.37 21.29L433.34 19.97L433.98 19.33L434.86 18.62L435.76 18.23L435.83 17.95V17.55L435.61 16.38L435.48 16.23L435.33 16.16L434.82 16.15L434.52 16.04L434.31 15.86L434.15 15.57L434.08 14.96L433.93 14.37L433.91 13.99L433.96 13.57L434.19 12.9L434.92 11.41V11.07L434.81 10.8L434.57 10.67L434.42 10.53L434.23 10.44L434.06 10.34L433.93 10.21L433.88 10.05L433.7 9.61L433.5 9.44L433.24 9.31L432.96 8.82L433.35 7.34L430.62 6.88L426.93 7.47L423.94 10.04L421.52 13.57L419.03 16.46L414.65 17.26L413.18 18.77L412.15 19.04L411.55 18.65L409.79 16.92L408.98 16.36L407.05 15.87L404.91 15.67L396.54 16.25L394.58 15.99L392.51 15.15L391.01 14.01L390.35 13.65L389.29 13.48L388.28 13.65L386.26 14.42L385.22 14.57L383.88 14.02L380.09 10.89L376.76 9.21L375.65 8.35L373.5 6.68L372.52 6.47L371.01 6.7L370.29 7.04L369.53 7.82L368.81 7.96L368.13 7.86L367.56 7.66L356.83 1.85L355.43 1.45L352.89 1.68L349.6 2.57L346.47 3.9L344.39 5.49L340.91 6.69L337.62 6.2L330.87 3.95L330.17 3.43L329.81 1.66L329.1 1.12L328.13 1Z" fill="#CCCCCC" stroke="white" stroke-width="0.5"/>
</svg>
