<svg width="801" height="844" viewBox="0 0 801 844" fill="none" xmlns="http://www.w3.org/2000/svg">
<path d="M711.34 739.68L710.27 739.17L709.9 738.63L709.71 737.89L709.33 737.11L708.41 736.48L704.91 735.58L702.41 737.4L699.92 739.66L699.39 741.53L701.26 742.47L714.11 743.71L719.8 745.03L719.88 745.05L720.45 742.88V742.89L720.05 742.99L718.3 742.84L716.39 741.08L715.24 740.25L714.72 740.56L714.16 740.57L711.34 739.68ZM732.91 649.57L732.58 644.82L730.98 640.07L725.94 630.83L724.05 626.14L720.08 604.21L717.3 596.87L713.45 593.35L713.07 592.89L713.06 592.91L707.92 602.34L706.66 605.65L706.67 606.44L707.13 609.09L707.25 610.64L706.99 611.86L706.68 612.73L706.31 613.3L705.45 614.21L704.22 615.27L702.98 617.34L695.13 636.38L685.6 652.06L685.19 652.56L684.69 652.94L684.04 653.2L678.77 654.58L680.78 657.17L681.33 658.26L681.25 658.91L680.71 659.99L679.2 661.64L678.81 662.62L678.11 672.97L678.24 674.33L678.77 674.9L679.42 675.24L679.94 675.58L680.34 676.11L680.62 676.7L680.85 677.82L681.51 683.68L681.83 684.7L682.11 685.28L682.33 685.97V687.01L682.15 688.31L680.95 691.84L678.52 697.32L678.14 698.75L678.05 701.86L678.97 711.23L677.92 717.08V717.84L678 718.58L678.16 719.25L678.39 719.86L678.75 720.39L679.16 720.86L681.64 722.93L682.07 723.41L682.44 723.92L682.69 724.51L682.88 725.15L682.93 725.9L679.61 728.82L665.11 736.38L665.09 736.39L686.1 740.87L694.71 741.29L699.47 737.46L697.54 737.17L695.9 736.6L695.13 735.54L695.9 733.8L693.82 732.78L693.59 731.64L694.53 731.15L695.9 732.08L696.52 730.7L697.35 729.4L698.36 728.28L699.47 727.44L700.79 727.02L702.79 727.19L704.02 726.63V725.73L702.57 725.82L701.16 725.69L699.82 725.38L698.57 724.91H699.47L698.88 724.73L697.68 723.93L698.64 723.07L699.15 722.19V721.26L698.57 720.26L702.28 719.81L703.24 717.97L702.57 715.28L701.26 712.29L702.91 711.7L705.42 709.96L706.69 709.51L707.83 709.59L709.62 710.32L710.71 710.48L711.89 710.19L712.86 709.55L713.64 708.91L714.24 708.62H716.42L717.95 708.89L718.82 709.83L719.12 711.8L718.8 714.39L717.9 715.22L716.52 715.56L714.72 716.68L713.95 718.2L713.56 722.08L712.94 723.93L712.14 724.37L710.12 726.26L708.71 728.34L709.78 729.32L711.87 730.37L714.28 732.87L716.32 735.86L717.33 738.36L719.52 737.35L724.7 737.21L727.31 736.48L729.47 738.12L736.38 741.35L738.43 741.95L741.01 741.13L742.9 739.08L743.56 736.44L742.49 733.8L745.93 733.87L751.29 733.23L755.63 733.81L755.96 737.46L761.16 737.67L764.16 737.23L766.03 735.9L767.28 733.43L766.57 732.58L764.85 731.11L764.43 730.65L764.33 729.46L764.88 726.71L764.95 725.59L764.37 724.08L762.54 721.45L762.17 719.63L763.03 711.51L767.43 712.31L769.17 711.99L770.47 710.34L770.8 708.05L770.24 705.69L766.67 697.32L764.35 687.92L764.04 681.03L763.55 678.91L762.52 677.19L760.85 675.83L751.53 673.43L749.41 674.27L745.15 676.85L742.6 677.17L739.51 675.44L738.8 672.05L740.12 663.84L731.63 664.57L732.91 649.57Z" fill="#CCCCCC" stroke="white" stroke-width="0.5"/>
<path d="M507.892 426.49L504.562 426.12L503.822 425.63L501.422 423.22L499.732 422.18L498.652 421.81L497.642 421.74L489.912 422.22L487.892 422.74L486.362 423.52L484.092 426.35L482.142 429.99L481.102 430.98L479.492 431.97L472.122 434.73L470.292 435.84L469.442 436.5L468.712 437.23L468.092 437.99L467.572 438.8L466.752 440.48L466.462 441.31L465.652 442.29L464.302 443.41L449.642 450.53L447.262 453.21L445.872 456.31L445.142 457.19L444.372 457.44L443.412 457.41L442.352 457.52L440.762 458.25L439.752 459.27L437.332 462.35L436.342 463L435.422 463.24L432.962 462.84L432.102 462.86L427.982 463.97L426.772 464.14L425.782 464.1L424.952 463.82L424.152 463.39L423.382 462.81L421.092 460.28L418.452 456.44L417.822 455.7L417.012 455.04L415.842 454.55L414.872 454.5L413.952 454.67L408.522 456.95L393.482 460.71L391.342 460.75L387.512 460.27L387.152 461.44L387.402 462.1L387.062 462.67L386.552 463.07L385.822 463.47L385.672 464.02L385.862 464.67L386.702 466.23L387.202 466.79L387.822 467.12L388.492 467.23L389.242 467.2L390.092 467.28L391.082 467.63L393.322 469.46L394.882 470.49L395.062 471.28L395.112 472.11L395.522 473.49L396.192 474.24L397.302 475.03L398.102 475.39L398.932 475.55L399.622 475.56L400.322 475.38L400.922 475.09L401.462 474.75L401.872 474.42L402.562 474.15L403.782 473.95L404.622 474.04L405.532 474.28L409.062 475.64L409.492 476.3L409.642 477.09L408.642 480.87L407.922 482.6L407.772 483.4L407.842 484.41L408.242 485.83L408.892 486.8L409.472 487.44L410.042 487.87L410.592 488.2L411.222 488.47L413.792 489.23L414.102 489.76L414.032 490.31L413.632 490.81L413.102 491.22L411.512 492.01L410.172 492.51L409.252 494.05L408.842 495.07L407.702 498.81L407.472 500.94L406.792 503.17L404.062 505.34L403.822 507.76L404.942 510.21L408.512 514.33L409.262 517.21L410.532 518.74L416.932 524.85L417.222 525.97L418.632 529.07L419.972 532.04L420.482 534.75L420.032 541.36L420.022 541.51L419.972 542.41L420.552 544.95L422.032 545.85L429.152 545.72L432.132 546.52L433.732 548.22L432.542 551.07L433.022 553.14L431.712 555.02L430.032 557.45L432.142 558.26L433.782 558.45L434.112 558.99L433.442 560.95L433.192 562.64L432.842 563.27L432.142 564.05L431.662 565.08L432.202 565.81L433.032 566.46L433.442 567.24L433.262 570.78L433.422 573.29L434.402 575.38L436.602 577.61L438.772 578.27L443.352 576.68L445.922 577.47L448.202 575.91L448.802 575.64H449.602L450.702 576.13L470.802 592.59L473.172 593.94L477.562 594.64L481.062 594.72L482.312 594.55L490.302 592.16L491.402 592.08L493.262 592.24L495.282 592.7L495.902 592.93L497.052 593.24L497.752 593.35L498.992 593.79L503.102 594L506.862 593.75L509.892 592.4L513.082 588.62L513.932 588.34L514.042 587.81L513.682 586.76L513.322 586.01L512.792 585.56L512.122 585.51L510.772 585.71L510.232 585.56L510.072 585.13L511.272 582.55L511.732 582.14L512.272 581.52L512.662 580.48L513.022 578.49L513.412 577.48L513.542 576.59L513.332 575.89L512.002 574.64L511.912 574.2L512.572 573.82L513.032 573.46L513.072 573.02L512.582 572.8L511.122 572.73L510.532 572.43L510.312 571.8L510.392 570.57L510.292 569.78L509.622 569.24L508.922 569.05L508.392 568.67L508.292 568.13L508.712 567.45L509.162 567.33L509.562 566.83L509.502 565.79L508.802 563.66L508.102 562.73L507.302 562.19L505.292 561.67L504.632 561.77L503.382 562.28L502.722 562.48L502.002 562.52L501.422 562.16L501.022 561.42L501.112 559.59L501.342 558.11L501.922 556.1L502.102 554.13L502.312 553.57L503.082 553.26L505.122 553.6L505.682 553.34L505.972 552.83L505.722 551.83L505.362 551.19L505.082 550.52L504.982 549.28L504.672 548.8L504.222 548.41L504.332 547.92L504.642 547.47L508.032 546.64L499.032 543.34L498.462 543.31L497.842 543.45L497.192 543.49L495.372 543.1L494.742 543.17L494.052 543.3L493.442 543.57L492.872 543.92L491.882 544.74L491.332 545.05L490.652 545.23L489.052 545.32L488.332 545.43L487.862 545.78L487.732 546.29L487.752 546.9L487.602 547.49L487.142 547.82L486.482 547.87L485.782 547.76L485.012 547.43L484.332 546.79L483.602 545.76V544.49L483.882 544.11L484.282 543.82L484.412 543.32L484.352 542.65L484.122 542.03L483.742 541.57L482.942 541.38L482.092 540.96L480.432 539.08L480.082 538.19L480.182 536.59L480.942 535.02L481.312 533.49L481.662 532.91L481.752 532.3L481.432 531.53L480.102 530.62L479.082 529.69L478.362 529.19L477.782 527.28L479.412 521.96L479.912 518.88L479.932 518.31L480.082 517.64L483.032 516.13L484.092 516.65L484.682 516.78H485.682L497.642 511.34L498.792 510.69L499.272 510.22L499.742 509.61L500.072 508.66L500.022 507.69L499.212 505.8L499.072 504.91L499.142 504L500.002 502L500.212 501.04L500.292 500.29L499.112 497.15L497.922 494.23L497.882 494.05L497.832 493.45L497.942 492.76L498.282 492.12L500.022 490.51L504.062 484.1L504.412 482.82L505.502 480.36L512.192 458.67L512.122 457.15L509.152 440.62L509.302 439.23L509.912 437.88L512.062 436.63L513.732 435.84L517.122 434.95L522.162 434.97L521.832 432.98L521.532 432.16L518.382 426.1L507.892 426.49Z" fill="#CCCCCC" stroke="white" stroke-width="0.5"/>
<path d="M672.921 448.93L670.821 448.25L670.371 448.17L669.741 448.3L665.571 449.6L664.321 451.55L664.611 454.45L665.541 454.08L666.471 453.55L666.591 454L666.581 454.31L666.721 454.47L667.281 454.45L666.461 456.46L665.461 457.13L662.821 457.23L659.391 457.93L659.241 458.72L659.351 462.57L659.621 464.01L659.701 465.39L659.261 467.05L658.511 468.74L657.981 469.54L657.181 470.02L655.601 470.73L655.191 468.51L653.831 468.08L652.231 468.97L651.141 470.73L651.161 472.35L652.371 476.62L652.921 477.93L654.061 479.28L655.491 479.95L659.261 480.62L659.321 480.22L660.241 479.64L661.331 479.43L661.851 480.13L661.731 481.07L661.381 481.74L660.811 482.19L660.071 482.5L661.011 484.66L659.301 484.8L654.631 483.32L654.301 486.16L652.601 487.39L648.461 487.9L646.081 488.91L644.711 490.32L643.641 491.87L642.131 493.3L637.261 494.11L634.181 496.89L633.451 500.26L634.701 502.4L635.951 502.51L636.781 499.51L638.621 500.85L639.871 503.33L640.131 505.72L639.011 506.78L637.741 507.58L635.981 509.51L634.531 511.87L634.181 513.98L635.291 514.69L637.461 516.57L638.761 518.48L637.261 519.37L636.961 520.32L631.431 525.74L634.801 532.86L634.591 535.7L630.531 537.43L632.391 538.91L633.251 540.61L633.871 542.53L634.221 543.22L634.991 544.7L636.681 544.14L638.561 543.8L641.461 543.86L642.131 543.8L644.021 541.6L645.261 540.91L646.601 542L646.881 543.7L645.871 547.52L645.791 549.19L646.291 550.06L647.921 551.33L648.461 551.88L648.771 552.88L649.141 555.06L649.761 555.97L650.361 557.24L651.141 563.2L650.851 564.08L650.211 564.83L649.561 565.43L649.271 565.89L649.421 566.89L649.761 567.64L650.101 568.2L650.251 568.59L650.791 569.43L653.371 572.01L654.231 572.55L655.601 578.91L658.371 578.48L660.831 579.29L662.921 579.22L664.611 576.22L670.061 582.34L673.041 586.73L674.931 592.07L675.811 593.32L675.621 594.03L673.051 594.26L672.311 594.78L672.591 595.86L673.231 596.84L673.901 597.25L674.811 598.65L675.531 600.14L675.321 600.63L676.801 600.8L677.461 598.64L678.891 597.85L680.581 598.71L682.761 603.24L683.801 604.3L684.251 610.95L683.421 612.56L681.671 613.69L680.061 615.13L679.701 617.68L680.471 617.33L682.541 616.79L682.271 617.39L681.831 618.85L681.561 619.48L683.681 620.66L685.051 622.83L685.241 625.48L683.801 628.09L682.591 628.73L681.241 628.99L680.151 629.48L679.701 630.78L679.591 632.49L679.271 633.94L675.041 642.08L674.501 644.4L674.381 647.05L674.351 647.91L674.701 651.08L675.661 652.49L677.101 653.32L678.771 654.58L684.041 653.2L684.691 652.94L685.191 652.56L685.601 652.06L695.131 636.38L702.981 617.34L704.221 615.27L705.451 614.21L706.311 613.3L706.681 612.73L706.991 611.86L707.251 610.64L707.131 609.09L706.671 606.44L706.661 605.65L707.921 602.34L713.061 592.91L713.071 592.89L711.521 591L701.201 544.53L701.391 542.32L702.331 540.94L704.741 539.61L705.451 538.75L708.011 531.52L707.711 530.64L705.951 527.23L704.311 525.12L703.741 523.79L703.931 519.03L706.111 513.96L721.191 488.02L722.801 487.01L722.891 486.95V486.89L722.721 484.46L717.291 474.04L715.761 472.3L713.691 470.46L709.301 467.76L706.361 465.48L704.791 464.53L695.311 461.59L692.521 461.18L690.851 461.26L689.771 463.01L689.001 464.04L688.511 464.46L687.861 464.55L687.081 464.24L684.951 461.74L683.651 460.56L683.171 460L682.791 459.41L682.531 458.85L680.541 452.13L680.011 451.46L679.211 450.78L677.611 449.95L676.781 449.41L676.051 449.16L675.421 449.38L674.891 449.42L673.741 448.7L672.921 448.93Z" fill="#CCCCCC" stroke="white" stroke-width="0.5"/>
<path d="M107.68 514.95L105.53 514.77L103.65 514.37L102.44 513.22L101.88 512.36L100.4 508.18L99.8 506.96L99.14 506.38L98.16 505.84L94.99 504.93L93.16 504.63L92.19 504.2L91.07 503.49L88.31 500.94L87.24 500.14L86.61 499.74L83.24 498.29L80.31 499.31L75.15 504.26L73.67 505.05L72.59 505.29L71.92 505.11L71.52 505.51L71.19 506.18L70.61 507.01L69.89 507.47L68.9 507.9L68.73 508.32L69.14 509.22L68.57 510.97L67.51 513.2L67.28 514.03L67.26 514.69L67.46 515.18L67.88 515.3L68.36 515.39L68.69 515.82L69.94 519.03L69.85 519.84L69.31 520.16L68.52 520.46L67.48 521.04L66.27 522.02L64.74 522.91L63.98 523.27L63.26 524.29L61.75 525.42L61.47 525.97L61.43 527.27L60.97 529.95L60.41 531.39L59.39 532.42L58.6 532.93L57.85 533L57.37 532.71L57.1 532.21L57.04 531.65L56.74 531.25L55.95 531.28L53.33 532.89L52.91 533.65L53.05 534.17L53.91 536L53.97 536.91L53.51 537.25L52.18 537.47L51.56 537.65L50.88 537.76L49.51 537.56L49.19 537.84L49.47 538.92L49.51 539.65L49.24 540.51L49.16 541.23L49.27 541.93L49.29 542.56L49.18 543.37L48.23 543.85L45.05 546.35L44.17 546.49L42.51 547.08L41.46 547.6L40.01 548.64L39.05 548.61L37.84 548.11L25.03 539.87L24.15 539.51L21.58 542.39L12.14 549.9L10.36 552.05L10.06 552.03L7.88 553.25L7.74 553.29L7.88 553.49L7.29 555.32L7.02 555.89L6.42 556.26L4.84 556.52L4.22 556.8L1 560.89L3.21 561.03L4.48 561.3L7.62 561.21L9.14 561.65L10.6 562.95L14.48 568.16L16.89 568.98L18.51 567.63L19.54 565.19L20.14 562.76L20.77 561.65L21.6 562.2L23.11 564.17L27.21 566.37L28.93 568.32L28.75 569.09L27.78 569.92L27.11 572.1L27.34 573.34L28.52 575.74L28.82 576.75L28.16 577.95L26.96 578.62L26.5 579.42L28.05 580.99L29.46 579.62L31.06 579.01L32.66 579.06L34.05 579.67L35.75 578.23L37.1 578.77L38.36 580.21L39.75 581.46L40.38 581.39L40.81 580.79L41.36 580.39L42.31 580.91L42.97 581.97L43.12 583.05V583.96L43.31 584.5L44.5 584.93L54.63 587.24L56.19 587.82L57.61 588.64L58.48 589.3L59.59 589.67L61.71 589.65L63.51 589.21L66.42 587.58L67.95 586.96L74.03 586.11L77.57 586.02L79.83 586.55L81.97 588.01L90.4 590.01L91.1 590.1L91.66 589.87L92.27 589.7L93.08 589.97L93.3 590.41L93.65 591.94L94.1 592.57L99.91 597.25L101.94 599.74L102.26 601.52L100.53 606.59L99.92 609.35L99.6 612.33L99.95 614.99L101.38 616.82L101.43 616.21L102.69 615.53L104.32 615.09L105.5 615.17L106.77 616.34L107.29 617.55L107.71 620.54L108.13 621.01L108.84 621.22L109.5 621.56L109.8 622.4L109.52 623.1L108.33 623.76L108.04 624.37L107.94 628.1L108.08 629.06L109.78 631.2L114.94 633.9L116.54 635.48L118.86 638.75L120.68 637.81L122.21 635.2L123.66 633.47L124.5 634.15L125.93 635.81L127.86 637.36L130.18 637.71L130.37 638.2L133.07 639.67L133.43 639.75L136.25 640.99L136.91 641.84L135.85 643.21L136.86 644.06L138.59 646.24L139.52 646.75L141.03 646.02L142.65 644.65L143.62 644.25L143.19 646.46L145.21 646.83L146.1 648.55L146.74 650.4L147.98 651.17L149 650.17L149.65 648.02L150.05 644.12L154.24 645.95L154.83 650.5L153.98 656.05L153.85 660.87L156.27 671.17L157.98 674.62L160.37 674.12L200.32 666.36L201.95 625.8L201.34 614.07L199.88 608.46L198.13 582.67L197.52 565.27L198.2 561.13L199.67 559.89L200.71 559.2L201.62 558.83L202.2 558.68L202.76 558.4L203.28 558.01L203.72 557.54L205.41 555.05L205.72 554.73L207.79 553.53L208.42 553.26L211.94 552.43L212.95 552.33L211.76 551.37L211.32 550.86L211.77 548.6L215.86 542.32L215.47 538.56L215.76 536.8L216.07 536.19L216.31 535.54L216.46 534.82L216.54 534.06L214.32 522.8L213.73 521.25L213 519.97L211.35 517.92L210.4 517L209.57 516.32L206.94 515.37L206.34 515.07L205.82 514.52L205.33 513.79L204.75 512.64L204.52 511.61L204.51 510.55L205.1 509.11L205.6 508.31L206.1 507.65L206.34 506.31L204.41 503.41L203.51 503.37L197.36 502.31L195.44 501.51L192.23 499.34L191.62 499.03L190.25 498.98L180.23 500.04L175.8 498.96L175 498.88L173.22 498.84L160.95 500.88L157.23 501.89L155.89 502.09L142.1 502.15L133.68 503.44L132.05 506.49L131.82 507.41L131.28 514.27L129.52 514.64L107.68 514.95Z" fill="#CCCCCC" stroke="white" stroke-width="0.5"/>
<path d="M431.65 732V731.99L431.45 731.93L429.6 731.08L428.14 730.09L421.36 724.3L420.18 723.66L418.78 723.2L417.11 722.93L416.16 726.4L418.07 744.05V744.06L435.59 743.12L440.68 741.15L473.75 740.15L472.12 738.65L471 736.23L470.26 733.97L469.73 732.98L465.21 732.5L463.49 732.79L461.65 734.23L458.28 735.12L450.35 730.48L445.99 731.1L444.21 730.21V731.1L446.12 731.7L447 733.09L448.06 734.15L450.45 733.8L449.63 735.48L448.3 736.02L446.7 735.66L445.1 734.68L443.29 735.86L441.17 735.32L439.01 734.23L437.06 733.8L436.57 734.19L434.92 735.91L434.22 736.48L433.21 737.01L432.24 737.37L431.17 737.54L429.84 737.46V738.36L432.22 738.97L434.54 738.6L436.75 738.56L438.85 740.15L433.69 741.53L427.28 740.82L421.91 738.4L419.96 734.68L421.73 735.58L421.67 734.2L421.73 733.8H422.71L427.09 740.15L427.98 738.42L429.84 732.98V735.58L431.13 734.71L434.19 733.2L435.19 732.08V731.1L433.34 731.34L432.63 731.55L431.72 732.08L431.65 732ZM477.56 594.64L473.17 593.94L470.8 592.59L450.7 576.13L449.6 575.64H448.8L448.2 575.91L445.92 577.47L446.05 582.06L446.26 582.88L445.97 586.35L442.12 597.02L451.05 605.52L456.34 607.67L469.74 609.26L471.7 609.93L473.05 611.13L473.55 613.9L474.16 630.06L475.75 640.25L482.21 652.56L474.97 671.27L474.7 672.35L474.81 673.01L475.08 673.59L475.77 674.65L476.97 676.95L477.2 677.63L477.78 680.41L477.75 682.05L477.44 683.86L476.02 688.68L467.75 708.55L467.32 709.96L467.18 710.96L467.13 711.89L467.36 714.99L467.31 715.79L467.17 716.53L462.55 726.65L461.95 727.49L461.43 728.03L460.9 728.45L460.15 728.67L459.2 728.66L457.74 728.14L455.88 726.71L454.66 726.49H452.89L444.72 727.18L443.48 727.74L443.47 727.76L443.7 728.06L444.59 728.75L445.1 729.32L449.05 728.26L453.43 729.18L457.2 731.09L459.39 732.98L461.16 731.47L463.33 730.31L465.66 729.58L472.79 728.68L474.45 729.11L472.77 731.1L473.64 733.57L473.57 735.96L474.45 737.51L478.12 737.46V738.36L477.71 738.39L476.84 738.32L476.42 738.36V739.17L478.11 739L485.15 739.14L486.69 739.4L488.1 740.15L490.36 739.16L502.22 738.14L523.68 733.31L564.51 729.97L605.35 726.63L595.61 722.05L597.06 722.16L598.44 722.1L599.75 721.81L600.98 721.24L596.89 719.84L580.76 720.26L578.7 720.7L575.35 722.6L569.99 723.56L567.37 724.5L564.81 724.93L562.35 723.93L560.64 725.42L558.82 724.96L556.78 724L554.39 723.93L553.54 725.07L552.46 726.89L551.45 727.68L550.83 725.73L547.06 727.5L539.35 727.02L536.46 728.42H535.49V726.63L530.94 727.74L530.14 728.42L530.49 729.64L531.74 730.24L533.32 730.37L534.68 730.21L531.64 731.18L530.29 731.38L528.35 731.1L527.9 730.77L527.34 730.16L526.51 729.58L525.27 729.32H521.21L519.23 729.55L516.58 730.7L514.96 731.1L513.89 730.76L513.24 729.9L512.66 729.3L511.04 730.21L507.74 731.1V732.08L508.39 733.5L507.05 734.41L504.73 734.81L502.39 734.68L500.27 734.13L499.09 733.35L498.9 732.11L499.71 730.21L502.91 728.3L507.77 726.25L510.39 723.92L506.85 721.24L510.2 721.14L512.96 720.51L515.14 718.89L516.76 715.87H517.56V717.47L517.15 718.72L516.3 719.65L514.96 720.26V721.24L516.14 721.41L516.87 721.85L517.28 722.66L517.56 723.93L515.62 723.83L514.2 723.4L512.92 723.25L511.39 723.93L511.95 724.73L512.96 725.55L514.09 726.24L514.96 726.63H515.86L517.13 725.44L519.56 724.33L522.36 724.15L524.77 725.73L527.77 723.36L529.56 722.51L531.92 722.05V721.24L530.86 720.74L530.32 719.95L530.37 718.91L531.11 717.66L532.57 719.69L533.2 720.8L533.71 722.05L542.99 722.47L545.48 723.04L545 721.65L544.17 720.79L543.07 720.61L541.83 721.24L542.35 718.8L544.2 717.89L549.04 717.66L548.75 718.13L548.62 718.23L548.46 718.26L548.07 718.56L549.39 720.08L550.75 719.62L552.12 718.4L553.5 717.66L554.69 718.05L556.36 719.07L557.93 720.28L558.87 721.24L559.89 719.94L561.96 718.28L562.77 716.22L563.77 716.18L564.95 716.76L565.92 717.66L567.45 716.27L568.9 716.03L572.25 716.68L572 717.27L571.62 718.77L571.36 719.37L573.28 719.77L575.02 719.1L578.58 716.68L579.53 717.81L580.45 718.43L581.3 718.42L582.06 717.66L583.86 718.52L585.26 718.11L586.66 717.21L588.39 716.68L592.12 718.62L594.53 719.26L595.61 718.11L596.83 717.72L599.56 718.52L602.42 719.81L604.06 720.75L606.22 721.71L608.58 721.2L610.83 719.9L612.57 718.56L610.71 716.68L609.05 717.4L606.89 717.54L604.84 717.05L603.57 715.87L605.06 715.45L608.11 714.97L609.56 715.7L611.11 715.96L612.54 715.74L613.56 714.97L615.12 715.53L616.22 714.74L616.86 713.15L617.04 711.31H617.93L617.86 712.66L618.02 713.76L618.37 714.79L618.91 715.87L619.28 715.32L620.07 714.74L620.69 714.16L621.02 715.9L622.22 717.18L623.76 718.07L625.15 718.56L627.19 718.81L628.54 718.75L629.76 719.26L631.4 721.24H632.38L634.04 720.41L636.24 720.89L638.26 721.07L639.43 719.37L637.17 718.37L635.2 716.26L631.89 711.8L629.1 709.8L628.72 709.06L629.2 707.89L630.3 707.68L631.52 708.05L632.38 708.62L633.8 708.1L635.22 708.27L636.31 708.97L636.75 710L637.04 711.9L638.54 716.27L639.47 717.85L641.15 718.84L641.96 719.98L640.24 722.05L638.81 722.59L635.3 722.11L633.26 722.05L633.63 722.75L633.85 724.06L634.16 724.91L629.42 722.37L626.48 721.22L625.15 721.65L624.25 721.63L619.73 719.77L617.93 719.37V720.26L618.54 721.01L618.69 721.93L618.34 722.71L617.49 723.04L616.39 722.66L615.45 721.73L613.56 719.37L612.14 721.36L609.72 722.59L606.96 722.87L604.54 722.05L606.49 725.01L610.57 726.25L619.72 727.44L625.59 730.63L627.34 731.1L632.66 730.92L635.19 731.18L636.75 732.08H637.73L638.1 730.43L638.83 728.54L639.87 726.84L641.21 725.73L640.24 727.44L641.54 728.55L641.75 729.45L641.44 730.38L641.21 731.59L641.66 732.27L642.69 732.61L646.82 733.43L652.9 733.8L665.09 736.39L665.11 736.38L679.61 728.82L682.93 725.9L682.88 725.15L682.69 724.51L682.44 723.92L682.07 723.41L681.64 722.93L679.16 720.86L678.75 720.39L678.39 719.86L678.16 719.25L678 718.58L677.92 717.84V717.08L678.97 711.23L678.05 701.86L678.14 698.75L678.52 697.32L680.95 691.84L682.15 688.31L682.33 687.01V685.97L682.11 685.28L681.83 684.7L681.51 683.68L680.85 677.82L680.62 676.7L680.34 676.11L679.94 675.58L679.42 675.24L678.77 674.9L678.24 674.33L678.11 672.97L678.81 662.62L679.2 661.64L680.71 659.99L681.25 658.91L681.33 658.26L680.78 657.17L678.77 654.58L677.1 653.32L675.66 652.49L674.7 651.08L674.35 647.91L674.38 647.05L641.6 638.04L640.75 637.91L639.72 638.1L638.55 638.53L628.96 644.73L623.47 650.49L621.83 651.88L620.32 652.49L619.27 652.74L617.31 653.63L614.64 657.52L615.5 672.29L615.41 673.16L615.17 674.08L613.78 675.42L564.59 678.11L560.37 677.93L556.51 676.23L550.36 672.77L548.31 671.32L547.05 669.79L547.63 667.78L544.44 661.04L518.63 644.35L544.27 596.25L513.08 588.62L509.89 592.4L506.86 593.75L503.1 594L498.99 593.79L497.75 593.35L497.05 593.24L495.9 592.93L495.28 592.7L493.26 592.24L491.4 592.08L490.3 592.16L482.31 594.55L481.06 594.72L477.56 594.64Z" fill="#CCCCCC" stroke="white" stroke-width="0.5"/>
<path d="M603.501 366.65L602.701 364.48L603.471 358.53L584.251 362.39L581.451 363.22L580.381 364.06L579.731 364.71L576.831 369.17L569.351 377.28L566.941 379.17L556.661 384.23L553.281 387.21L551.351 388.07L549.211 388.61L547.661 388.76L545.961 388.7L543.251 387.69L541.901 387.54L540.941 387.55L535.881 388.7L534.671 393.75L534.861 395.99L535.201 396.75L535.591 398.14L537.591 413.72L537.221 415.18L536.581 415.97L535.771 415.94L531.611 414.83L530.801 414.76L529.991 414.85L529.241 415.13L528.511 415.68L527.821 416.45L526.581 418.19L525.231 419.68L524.501 420.33L521.171 422.69L518.381 426.1L521.531 432.16L521.831 432.98L522.161 434.97L517.121 434.95L513.731 435.84L512.061 436.63L509.911 437.88L509.301 439.23L509.151 440.62L512.121 457.15L512.191 458.67L505.501 480.36L504.411 482.82L504.061 484.1L500.021 490.51L498.281 492.12L497.941 492.76L497.831 493.45L497.881 494.05L497.921 494.23L499.111 497.15L500.291 500.29L500.211 501.04L500.001 502L499.141 504L499.071 504.91L499.211 505.8L500.021 507.69L500.071 508.66L499.741 509.61L499.271 510.22L498.791 510.69L497.641 511.34L485.681 516.78H484.681L484.091 516.65L483.031 516.13L480.081 517.64L479.931 518.31L479.911 518.88L479.411 521.96L477.781 527.28L478.361 529.19L479.081 529.69L480.101 530.62L481.431 531.53L481.751 532.3L481.661 532.91L481.311 533.49L480.941 535.02L480.181 536.59L480.081 538.19L480.431 539.08L482.091 540.96L482.941 541.38L483.741 541.57L484.121 542.03L484.351 542.65L484.411 543.32L484.281 543.82L483.881 544.11L483.601 544.49V545.76L484.331 546.79L485.011 547.43L485.781 547.76L486.481 547.87L487.141 547.82L487.601 547.49L487.751 546.9L487.731 546.29L487.861 545.78L488.331 545.43L489.051 545.32L490.651 545.23L491.331 545.05L491.881 544.74L492.871 543.92L493.441 543.57L494.051 543.3L494.741 543.17L495.371 543.1L497.191 543.49L497.841 543.45L498.461 543.31L499.031 543.34L508.031 546.64L504.641 547.47L504.331 547.92L504.221 548.41L504.671 548.8L504.981 549.28L505.081 550.52L505.361 551.19L505.721 551.83L505.971 552.83L505.681 553.34L505.121 553.6L503.081 553.26L502.311 553.57L502.101 554.13L501.921 556.1L501.341 558.11L501.111 559.59L501.021 561.42L501.421 562.16L502.001 562.52L502.721 562.48L503.381 562.28L504.631 561.77L505.291 561.67L507.301 562.19L508.101 562.73L508.801 563.66L509.501 565.79L509.561 566.83L509.161 567.33L508.711 567.45L508.291 568.13L508.391 568.67L508.921 569.05L509.621 569.24L510.291 569.78L510.391 570.57L510.311 571.8L510.531 572.43L511.121 572.73L512.581 572.8L513.071 573.02L513.031 573.46L512.571 573.82L511.911 574.2L512.001 574.64L513.331 575.89L513.541 576.59L513.411 577.48L513.021 578.49L512.661 580.48L512.271 581.52L511.731 582.14L511.271 582.55L510.071 585.13L510.231 585.56L510.771 585.71L512.121 585.51L512.791 585.56L513.321 586.01L513.681 586.76L514.041 587.81L513.931 588.34L513.081 588.62L544.271 596.25L548.311 589.4L548.871 589.04L549.601 588.95L550.541 589.63L551.051 590.24L551.421 590.94L551.951 592.21L552.361 592.68L552.851 593.12L554.621 594.03L557.841 596.18L558.821 597.04L559.351 597.42L560.181 597.81L564.561 598.85L568.901 600.37L571.711 600.97L572.341 601.33L575.181 600.7L585.631 594.9L585.871 593.04L585.841 591.34L585.651 590.62L585.111 589.36L584.491 586.55L584.641 585.18L584.621 583.71L584.791 582.22V581.42L584.421 579.14L584.381 578.3L584.471 576.64L585.111 573.67L586.201 571.15L586.921 570.08L590.231 566.46L590.791 565.42L591.141 564.47L591.301 563.79L592.031 562.98L593.201 562.12L600.301 559.74L634.221 543.22L633.871 542.53L633.251 540.61L632.391 538.91L630.531 537.43L634.591 535.7L634.801 532.86L631.431 525.74L636.961 520.32L637.261 519.37L638.761 518.48L637.461 516.57L635.291 514.69L634.181 513.98L634.531 511.87L635.981 509.51L637.741 507.58L639.011 506.78L640.131 505.72L639.871 503.33L638.621 500.85L636.781 499.51L635.951 502.51L634.701 502.4L633.451 500.26L634.181 496.89L637.261 494.11L642.131 493.3L643.641 491.87L644.711 490.32L646.081 488.91L648.461 487.9L652.601 487.39L654.301 486.16L654.631 483.32L659.301 484.8L661.011 484.66L660.071 482.5L660.811 482.19L661.381 481.74L661.731 481.07L661.851 480.13L661.331 479.43L660.241 479.64L659.321 480.22L659.261 480.62L655.491 479.95L654.061 479.28L652.921 477.93L652.371 476.62L651.161 472.35L651.141 470.73L652.231 468.97L653.831 468.08L655.191 468.51L655.601 470.73L657.181 470.02L657.981 469.54L658.511 468.74L659.261 467.05L659.701 465.39L659.621 464.01L659.351 462.57L659.241 458.72L659.391 457.93L662.821 457.23L665.461 457.13L666.461 456.46L667.281 454.45L666.721 454.47L666.581 454.31L666.591 454L666.471 453.55L665.541 454.08L664.611 454.45L664.321 451.55L665.571 449.6L667.511 446.59L667.281 443.57L669.421 442.47L669.801 440.37L668.991 434.98L668.601 434.89L665.741 430.65L665.301 429.62L664.741 428.82L663.641 428.27L662.161 428.03L660.471 427.5L658.921 426.79L657.881 426.02L657.681 424.75L660.241 422.24L660.961 420.66L659.871 416.75L657.301 416.13L652.111 417.47L650.961 416.73L650.301 415.51L649.521 414.37L647.981 413.86L647.521 413L647.381 411.12L646.881 409.24L645.341 408.38L642.091 407.81L640.631 406.33L639.461 401.99L640.461 398.95L638.781 397.53L635.881 397.21L633.291 397.49L632.471 396.55L631.421 395.97L630.171 395.93L628.751 396.59L627.871 393.92L626.491 392.59L624.431 392.13L621.521 392.08V391.18L622.911 390.56L623.141 389.62L622.331 387.04L622.021 386.46L621.121 385.33L620.931 384.51L621.481 383.69L622.181 382.9L622.491 382.17L621.851 379.92L621.041 378.45L620.491 377.44L618.781 376.21L617.061 377.67L615.711 376.57L611.831 375.65L609.921 374.97L607.861 373.76L607.751 373.33L608.941 373.01L610.731 372.18L613.041 370.25L614.071 368.97L614.391 367.76L613.401 365.21L612.131 365.37L610.771 366.37L609.471 366.32L607.631 365.96L605.391 366.61L603.501 366.65Z" fill="#CCCCCC" stroke="white" stroke-width="0.5"/>
<path d="M655.599 578.91L654.229 572.55L653.369 572.01L650.789 569.43L650.249 568.59L650.099 568.2L649.759 567.64L649.419 566.89L649.269 565.89L649.559 565.43L650.209 564.83L650.849 564.08L651.139 563.2L650.359 557.24L649.759 555.97L649.139 555.06L648.769 552.88L648.459 551.88L647.919 551.33L646.289 550.06L645.789 549.19L645.869 547.52L646.879 543.7L646.599 542L645.259 540.91L644.019 541.6L642.129 543.8L641.459 543.86L638.559 543.8L636.679 544.14L634.989 544.7L634.219 543.22L600.299 559.74L593.199 562.12L592.029 562.98L591.299 563.79L591.139 564.47L590.789 565.42L590.229 566.46L586.919 570.08L586.199 571.15L585.109 573.67L584.469 576.64L584.379 578.3L584.419 579.14L584.789 581.42V582.22L584.619 583.71L584.639 585.18L584.489 586.55L585.109 589.36L585.649 590.62L585.839 591.34L585.869 593.04L585.629 594.9L575.179 600.7L572.339 601.33L571.709 600.97L568.899 600.37L564.559 598.85L560.179 597.81L559.349 597.42L558.819 597.04L557.839 596.18L554.619 594.03L552.849 593.12L552.359 592.68L551.949 592.21L551.419 590.94L551.049 590.24L550.539 589.63L549.599 588.95L548.869 589.04L548.309 589.4L544.269 596.25L518.629 644.35L544.439 661.04L547.629 667.78L547.049 669.79L548.309 671.32L550.359 672.77L556.509 676.23L560.369 677.93L564.589 678.11L613.779 675.42L615.169 674.08L615.409 673.16L615.499 672.29L614.639 657.52L617.309 653.63L619.269 652.74L620.319 652.49L621.829 651.88L623.469 650.49L628.959 644.73L638.549 638.53L639.719 638.1L640.749 637.91L641.599 638.04L674.379 647.05L674.499 644.4L675.039 642.08L679.269 633.94L679.589 632.49L679.699 630.78L680.149 629.48L681.239 628.99L682.589 628.73L683.799 628.09L685.239 625.48L685.049 622.83L683.679 620.66L681.559 619.48L681.829 618.85L682.269 617.39L682.539 616.79L680.469 617.33L679.699 617.68L680.059 615.13L681.669 613.69L683.419 612.56L684.249 610.95L683.799 604.3L682.759 603.24L680.579 598.71L678.889 597.85L677.459 598.64L676.799 600.8L675.319 600.63L675.529 600.14L674.809 598.65L673.899 597.25L673.229 596.84L672.589 595.86L672.309 594.78L673.049 594.26L675.619 594.03L675.809 593.32L674.929 592.07L673.039 586.73L670.059 582.34L664.609 576.22L662.919 579.22L660.829 579.29L658.369 578.48L655.599 578.91Z" fill="#CCCCCC" stroke="white" stroke-width="0.5"/>
<path d="M449.549 191.12L448.659 191.03L447.749 190.74L446.689 189.99L446.149 189.33L445.789 188.63L442.619 180.97L441.819 179.77L441.059 179.05L440.309 178.89H438.709L432.729 179.83L429.869 179.13L425.479 184.47L423.529 187.99L422.729 191.47L422.359 195.73L421.089 199.65L418.599 202.07L414.619 201.83L416.409 203.8L417.199 205.79L417.169 208.06L415.559 213.87L414.209 216.85L412.199 218.67L409.259 218.18L409.069 221.71L416.909 226.84L419.069 230.83L417.879 230.37L416.589 230.05L415.209 229.92L413.799 230.01V230.83L414.569 231.19L416.479 232.73L413.249 234.72L413.979 239.83L410.599 240.86L409.749 241.54L411.119 242.99L413.019 244.3L413.799 244.55L414.029 246.21L413.059 247.56L412.159 247.83L410.839 248.31L409.599 248.26L408.829 248.75L408.119 248.79L406.699 248.66L405.479 247.98L404.419 247.77L403.559 247.7L401.249 247.89L399.829 248.2L399.149 248.42L398.559 248.69L398.059 249.09L396.209 250.9L395.709 251.29L395.159 251.63L393.959 252.18L393.279 252.39L392.609 252.55H391.879L390.439 252.22L388.009 251.99L387.319 251.77L386.269 251.07L385.509 250.86H384.689L383.649 251.11L382.959 252.06L381.119 256.66L379.799 261.4L379.739 262.53L379.919 263.28L380.319 263.3L380.949 262.71L381.379 261.73L381.949 261.21L382.629 261.06L383.259 261.28L383.779 261.67L384.149 262.23L384.559 263.64L384.899 264.19L386.129 264.81L386.569 265.27L386.609 266.07L386.169 266.48L385.549 266.67L384.119 266.7L383.339 267.23L383.229 267.84L383.399 268.42L383.779 268.95L384.049 269.64L384.189 270.48L383.759 272.94L383.719 273.89L383.479 275L382.959 275.33L382.369 275.49L382.169 275.95L382.219 278.09L382.339 278.81L382.709 279.32L384.039 280.69L384.539 280.92L385.129 280.83L386.189 280.13L386.779 279.84L387.489 279.74L388.189 279.84L388.879 280.02L389.529 280.29L390.109 280.64L390.569 281.14L390.889 281.83L390.839 285.49L390.709 286.25L390.689 287.02L390.799 287.7L391.119 288.18L391.509 288.56L391.999 288.91L392.519 289.19H393.199L393.829 289.07H394.499L395.019 289.48L395.249 290.18L395.319 291.29L394.269 292.36L394.969 294.54L405.689 300.7L404.239 302.32L403.069 302.82L399.849 302.58L397.419 301.75L396.239 301.6L395.059 301.88L393.839 302.5L393.139 303.12L393.559 303.4L394.749 304.4L398.419 308.8L399.849 309.8L400.459 310.08L400.929 310.7L401.519 311.32L402.559 311.6H407.069L407.699 311.97L407.959 312.8L408.099 313.7L408.369 314.23L414.669 315.72L415.509 316.03L418.179 317.92L419.669 318.63L420.319 319.05L420.859 319.64L422.199 322.54L422.729 323.33L424.189 324.07L426.049 324.59L427.779 325.63L428.899 327.92H426.219L428.649 334.35L428.899 337.72L427.109 340.55H425.149L423.239 340.64L421.469 341.25L422.919 344.35L422.649 346.18L421.619 347.37L419.969 346.94L418.979 348.75L417.169 347.84L414.989 347.26L413.089 347.63L412.019 349.65L409.889 349.1L405.999 349.01L404.539 349.43L403.809 349.73L403.969 351.77L403.889 352.86L403.489 353.62L402.729 354.46L395.119 359.48L391.729 360.95L386.109 361.86L381.719 361.54L380.489 361.58L378.509 361.82L377.339 362.21L377.329 362.25L377.309 362.27L376.139 368.47L376.179 369.73L376.739 372.11L377.199 373.45L377.369 374.2L377.389 375.01L377.289 375.76L376.899 377.19L376.369 378.47L374.469 381.07L374.199 381.68L373.629 383.88L373.579 384.68L373.679 386.33L374.009 387.77L374.699 389.79L374.599 390.8L374.219 391.98L372.929 393.91L372.219 394.76L370.039 396.07L371.649 400.92L372.029 403.14L371.299 411.89L371.459 413.21L371.739 414.1L372.189 414.54L372.779 414.87L373.469 415.1L374.269 415.28L375.499 416.37L376.969 418.3L379.449 423.37L380.339 425.69L380.719 427.32L380.459 427.94L380.049 428.35L379.499 428.67L378.209 428.93L377.049 428.92L377.579 431.39L377.889 431.88L379.659 434.09L378.669 442.53L378.929 445.19L379.709 446.21L380.189 446.51L381.469 446.92L382.469 448.02L382.699 448.86L382.609 449.61L382.219 450.17L381.159 451.09L380.719 451.76L380.819 452.35L381.109 452.89L382.079 453.74L382.509 454.24L382.959 454.68L383.489 455.05L385.429 455.76L386.189 456.28L386.849 457.11L387.729 458.66L387.919 459.46L387.509 460.27L391.339 460.75L393.479 460.71L408.519 456.95L413.949 454.67L414.869 454.5L415.839 454.55L417.009 455.04L417.819 455.7L418.449 456.44L421.089 460.28L423.379 462.81L424.149 463.39L424.949 463.82L425.779 464.1L426.769 464.14L427.979 463.97L432.099 462.86L432.959 462.84L435.419 463.24L436.339 463L437.329 462.35L439.749 459.27L440.759 458.25L442.349 457.52L443.409 457.41L444.369 457.44L445.139 457.19L445.869 456.31L447.259 453.21L449.639 450.53L464.299 443.41L465.649 442.29L466.459 441.31L466.749 440.48L467.569 438.8L468.089 437.99L468.709 437.23L469.439 436.5L470.289 435.84L472.119 434.73L479.489 431.97L481.099 430.98L482.139 429.99L484.089 426.35L486.359 423.52L487.889 422.74L489.909 422.22L497.639 421.74L498.649 421.81L499.729 422.18L501.419 423.22L503.819 425.63L504.559 426.12L507.889 426.49L518.379 426.1L521.169 422.69L524.499 420.33L525.229 419.68L526.579 418.19L527.819 416.45L528.509 415.68L529.239 415.13L529.989 414.85L530.799 414.76L531.609 414.83L535.769 415.94L536.579 415.97L537.219 415.18L537.589 413.72L535.589 398.14L535.199 396.75L534.859 395.99L534.669 393.75L535.879 388.7L540.939 387.55L541.899 387.54L543.249 387.69L545.959 388.7L547.659 388.76L549.209 388.61L551.349 388.07L553.279 387.21L556.659 384.23L566.939 379.17L569.349 377.28L576.829 369.17L579.729 364.71L580.379 364.06L581.449 363.22L584.249 362.39L603.469 358.53L604.099 353.67L605.539 350.43L607.779 348.69L610.729 349.65L611.249 349.07L612.269 347.62L612.599 346.94L610.859 345.39L605.859 339.2L604.469 338.52L603.159 338.41L602.189 338.01L601.809 336.45L602.269 334.84L604.229 332.11L604.569 330.55L603.779 329.25L600.709 327.39L600.029 326.49L599.889 325.16L599.339 323.3L599.219 322.02L600.609 321.83L607.109 321.88L609.019 321.53L610.039 320.16L610.369 318.77L610.129 317.5L609.469 316.48L608.119 315L608.109 314.54L608.669 314.18L609.019 313L609.229 312.55L609.629 312.16L609.959 311.6L609.919 310.62L609.539 310.02L608.969 309.91L608.439 309.96L608.129 309.8L607.459 308.79L606.659 307.99L606.379 306.94L607.239 305.21L607.629 305.64L609.419 305.3L612.149 304.39L612.989 301.95L613.569 300.24L612.359 297.63L607.569 294.93L607.239 292.57L607.999 291.85L610.259 291.14L611.229 289.38L614.869 286.62L615.119 284.77L614.329 281.85L613.719 281.17L611.789 281.5L610.539 281.84L608.489 282.65L607.799 282.74L607.089 282.54L606.399 281.93L605.109 280.42L604.779 280.15L604.319 279.9L602.239 279.4L600.599 279.38L599.539 279.48L597.259 280.08L596.079 280.09L594.529 279.95L591.639 279.3L590.159 279.23L589.009 279.26L588.319 279.48L587.539 279.62L586.729 279.61L585.839 279.36L584.879 278.58L583.799 277.37L583.179 276.98L582.389 276.77L581.079 276.9L580.209 277.15L578.789 277.72L578.069 277.86L577.249 277.82L576.419 277.5L575.489 276.7L575.009 275.96L574.399 274.57L573.759 273.94L571.149 272.45L570.379 271.67L569.939 270.86L569.669 269.31L569.359 268.72L568.749 268.28L567.889 268.01H566.419L565.439 268.14L562.379 268.83L561.559 268.75L560.839 268.44L560.209 267.74L559.889 267.01L559.669 266.24L558.559 258.28L558.139 256.9L557.819 256.33L557.429 255.79L556.439 254.94L554.099 253.66L553.609 253.24L553.179 252.74L551.909 250.39L550.739 249.74L548.889 249.03L544.509 247.97L542.709 247.22L541.589 246.52L540.919 245.37L540.519 244.87L540.059 244.5L535.279 242.66L534.199 242.36H533.249L531.719 242.86L530.129 243.68L482.429 242.14V237.26L483.429 236.59L484.369 236.2L485.389 235.18L487.089 232.66L487.609 231.31L487.779 230.4L487.699 230.17L487.669 230.09L487.659 230.01L489.379 217.91L489.339 216.38L489.139 215.31L488.779 214.75L488.329 214.32L487.799 214L486.529 213.79L485.469 213.17L484.869 212.92L482.899 212.61L482.289 212.33L480.849 211.05L479.609 210.47L478.929 210.23L478.219 209.67L477.559 208.81L476.039 204.93L475.709 204.36L475.299 203.84L473.999 202.61L473.539 201.99L472.819 200.66L472.539 199.65L472.439 198.68L472.449 196.85L471.959 192.79L471.559 191.25L470.069 190.51L468.109 189.93L454.699 187.65L453.659 187.89L453.049 188.29L452.279 189.24L451.289 190.24L450.819 190.62L450.229 190.92L449.549 191.12Z" fill="#CCCCCC" stroke="white" stroke-width="0.5"/>
<path d="M656.271 108.41L654.031 107.93L652.641 106.94L651.781 105.86L650.791 104.9L649.021 104.32L648.581 104.63L647.371 106.14L646.671 106.54L645.851 106.38L644.141 105.4L643.171 105.27L636.821 106.06L634.911 106.66L633.591 107.54L631.491 109.8L630.381 110.63L627.871 111.39L619.211 111.55L618.961 111.63L616.551 112.34L611.631 115.55L608.821 116.26L606.881 117.3L606.331 119.47L605.501 121.33L601.311 121.39L600.221 121.75L598.221 122.72L598.081 123.08L598.031 123.77L597.781 124.4L596.971 124.58L596.201 124.34L594.841 123.58L587.401 121.38L585.151 121.66L582.791 123.45L579.041 128.73L576.631 130.07L571.711 130.71L569.451 131.52L567.711 133.1L568.301 133.22L569.821 133.73L565.861 137.9L565.141 139.11L565.121 140.28L565.511 143.41L565.181 145.08L563.491 148.41L562.641 149.42L564.241 150.09L570.051 157.91L571.061 158.69L572.071 159.24L572.851 160.03L573.171 161.49V162.9L573.301 163.97L573.711 164.92L574.541 166.02L578.081 169.38L579.121 171.21L579.771 175.55L581.001 177.7L581.281 178.68L581.121 179.73L580.461 181.09L580.301 182.38L580.151 182.87L579.831 183.57L579.541 184.46L579.491 185.55L579.831 186.73L580.361 187.34L580.911 187.73L581.281 188.26L581.641 190.51L581.211 191.96L580.581 193.37L580.301 195.5L580.541 196.48L581.051 197.65L581.641 198.67L582.091 199.2L583.621 199.78L583.951 199.37L584.041 198.42L584.851 197.39L587.291 196.12L589.311 195.5L590.541 195.38L591.471 195.41L592.241 195.29L592.961 194.67L596.531 197.77L600.031 200.1L605.391 201.22L608.061 202.52L609.471 202.81L610.481 203.42L610.901 204.8L611.161 206.32L611.711 207.33L612.691 207.57L616.621 207.33L618.701 208.18L617.101 212.61L618.931 214.65L618.431 214.91H618.281L618.211 214.99L617.961 215.47L620.641 215.11L622.761 214.31L624.301 214.32L625.181 216.37L625.241 219.76L624.231 219.97L622.781 218.37L621.521 216.37L620.251 219.45L619.791 222.37L620.761 224.56L625.411 225.7L627.571 226.5L629.531 227.67L630.531 229.11L630.241 230.92L628.831 231.48L626.931 231.54L625.181 231.82L621.961 233.19L619.181 234.89L618.171 237.2L620.221 240.41L622.331 242.27L626.251 246.9L628.751 248.99V249.97L627.571 250.11L627.121 250.4L626.801 250.91L626.071 251.78L626.601 251.97L626.681 252.04L626.661 252.2L626.881 252.68L628.521 252.53L630.331 253.46L631.791 255.02L632.401 256.79L632.091 259.68L631.231 260.19L629.931 259.57L628.301 259.09L627.551 259.98L624.201 265.33L621.731 267.28L621.321 268.42L623.391 269.02L622.291 270.17L620.551 270.67L616.621 270.74L614.391 271.48L613.091 273.3L611.711 278.05L613.011 279.17L613.721 281.17L614.331 281.85L615.121 284.77L614.871 286.62L611.231 289.38L610.261 291.14L608.001 291.85L607.241 292.57L607.571 294.93L612.361 297.63L613.571 300.24L612.991 301.95L612.151 304.39L609.421 305.3L607.631 305.64L607.241 305.21L606.381 306.94L606.661 307.99L607.461 308.79L608.131 309.8L608.441 309.96L608.971 309.91L609.541 310.02L609.921 310.62L609.961 311.6L609.631 312.16L609.231 312.55L609.021 313L608.671 314.18L608.111 314.54L608.121 315L609.471 316.48L610.131 317.5L610.371 318.77L610.041 320.16L609.021 321.53L607.111 321.88L600.611 321.83L599.221 322.02L599.341 323.3L599.891 325.16L600.031 326.49L600.711 327.39L603.781 329.25L604.571 330.55L604.231 332.11L602.271 334.84L601.811 336.45L602.191 338.01L603.161 338.41L604.471 338.52L605.861 339.2L610.861 345.39L612.601 346.94L612.271 347.62L611.251 349.07L610.731 349.65L607.781 348.69L605.541 350.43L604.101 353.67L603.471 358.53L602.701 364.48L603.501 366.65L605.391 366.61L607.631 365.96L609.471 366.32L610.771 366.37L612.131 365.37L613.401 365.21L614.391 367.76L614.071 368.97L613.041 370.25L610.731 372.18L608.941 373.01L607.751 373.33L607.861 373.76L609.921 374.97L611.831 375.65L615.711 376.57L617.061 377.67L618.781 376.21L620.491 377.44L621.041 378.45L621.851 379.92L622.491 382.17L622.181 382.9L621.481 383.69L620.931 384.51L621.121 385.33L622.021 386.46L622.331 387.04L623.141 389.62L622.911 390.56L621.521 391.18V392.08L624.431 392.13L626.491 392.59L627.871 393.92L628.751 396.59L630.171 395.93L631.421 395.97L632.471 396.55L633.291 397.49L635.881 397.21L638.781 397.53L640.461 398.95L639.461 401.99L640.631 406.33L642.091 407.81L645.341 408.38L646.881 409.24L647.381 411.12L647.521 413L647.981 413.86L649.521 414.37L650.301 415.51L650.961 416.73L652.111 417.47L657.301 416.13L659.871 416.75L660.961 420.66L660.241 422.24L657.681 424.75L657.881 426.02L658.921 426.79L660.471 427.5L662.161 428.03L663.641 428.27L664.741 428.82L665.301 429.62L665.741 430.65L668.601 434.89L668.991 434.98L669.801 440.37L669.421 442.47L667.281 443.57L667.511 446.59L665.571 449.6L669.741 448.3L670.371 448.17L670.821 448.25L672.921 448.93L673.741 448.7L674.891 449.42L675.421 449.38L676.051 449.16L676.781 449.41L677.611 449.95L679.211 450.78L680.011 451.46L680.541 452.13L682.531 458.85L682.791 459.41L683.171 460L683.651 460.56L684.951 461.74L687.081 464.24L687.861 464.55L688.511 464.46L689.001 464.04L689.771 463.01L690.851 461.26L692.521 461.18L695.311 461.59L704.791 464.53L706.361 465.48L709.301 467.76L713.691 470.46L715.761 472.3L717.291 474.04L722.721 484.46L722.891 486.89V486.95L723.041 486.86L729.511 484.74L730.181 483.81L731.261 477.22L731.921 475.89L737.911 468.37L739.071 465.81L739.171 464.01L738.591 462.94L737.711 461.85L736.891 460.01L736.771 458.47L743.161 418.06L744.911 412.72L754.351 392.42L754.861 391.55L756.171 389.95L756.681 389.08L756.711 388.37L756.331 386.66L756.441 386L757.561 384.93L760.471 383.17L761.511 382.04L761.941 380.58L762.511 370.73L762.891 369.76L763.711 369.66L764.581 370.24L765.241 370.99L765.431 371.41L767.561 369.61L773.531 362.7L775.931 360.99L783.731 358.37L786.431 356.99L787.721 355.28L787.841 352.98L787.001 349.82L785.271 346.02L784.951 344.35L785.501 342.27L786.421 340.5L787.251 339.72L788.331 339.79L790.001 340.57L791.501 340.73L793.291 340.13L799.161 336.65L800.061 334.64L794.041 297.63L788.021 260.59L787.401 258.52L786.221 259.07L786.191 259.03L785.561 257.99L785.901 256.3L786.861 255.42L788.251 254.65L788.391 252.84L785.731 243.61L785.571 241.34L785.271 240.2L784.541 239.89L783.661 239.76L782.881 239.16L780.841 232.95L780.711 230.25L779.861 228.12L776.561 226.35L773.261 225.61L769.911 225.44L768.101 225.14L767.071 224.42L766.231 223.54L764.951 222.81L766.181 220.94L766.721 218.87L766.971 212.24L767.521 211.14L770.301 208.27L772.581 203.58L774.111 201.18L778.261 198.99L779.821 196.47L779.991 193.96L777.941 192.82L775.651 192.31L773.801 190.95L772.781 188.9L772.991 186.4L774.341 184.64L776.121 183.81L777.671 182.82L778.341 180.56V176.99L777.691 174.76L777.531 173.73L778.061 169.5L777.921 167.61L776.151 165.36L772.061 169.27L768.871 176.04L766.411 178.19L763.291 177.95L760.301 175.65L747.261 158.2L740.761 145.49L738.421 139.32L736.831 136.23L734.781 134.15L732.301 133.56L727.801 134.89L725.441 134.78L723.161 132.86L721.871 129.77L720.241 123.38L717.621 120.17L714.591 119.48L711.651 119.42L709.371 118.07L708.801 115.41L709.081 112.28L709.041 109.73L707.441 108.74L705.421 110.19L701.001 116.51L699.201 118.32L696.081 118.63L694.761 116.9L694.531 114.19L694.641 111.55L694.061 110.64L692.701 111.18L691.171 112.13L689.981 112.54L688.591 111.81L686.291 109.69L684.651 109.06L664.081 107.35L656.271 108.41Z" fill="#CCCCCC" stroke="white" stroke-width="0.5"/>
<path d="M152.901 843.07L155.261 842.16L165.571 833.63L172.611 829.77L174.941 827.8L176.211 827.37L177.841 827.39L179.251 827.14L180.561 824.6L182.181 823.5L189.941 820.16L199.651 819.15L205.001 817.51L213.141 812.59L220.181 806.68L223.831 802.2L225.281 801.38L228.371 800.6L231.741 798.94L244.861 798.06L261.401 793.17L263.501 791.83L267.021 788.47L269.111 787.79L271.811 787.47L285.621 784.07L287.571 783.01L288.341 781.03L289.451 780.14L325.221 768.16L335.531 762.83L342.371 760.28L343.921 760.35L344.851 759.15L347.081 758L361.811 753.4L361.721 753.01L359.941 740.01L360.001 738.4L360.581 736.31L361.031 735.28L361.491 734.5L362.801 733.13L363.891 732.42L365.151 731.87L375.661 729.21L376.811 720.82L365.721 683.58L349.371 689.17L347.321 689.45L346.981 688.97L346.601 688.25L346.031 687.57L344.701 687.01L343.911 686.56L343.431 686.14L342.881 685.4L342.051 684.51L341.661 684.01L341.331 683.44L340.751 680.77L340.511 680.18L340.211 679.64L339.951 679.04L339.781 677.57L339.761 676.88L339.951 676.24L340.241 675.68L340.441 675.01L340.511 673.69L339.161 671.5L338.661 670.94L338.151 670.2L337.441 669.42L336.591 667.99L336.211 666.52L335.871 666.11L335.191 665.84L334.681 665.4L334.451 664.53L334.501 663.75L334.731 662.3L334.611 661.64L334.351 661.04L333.931 660.55L331.071 658.18L329.961 655.74L329.451 655L326.341 653.06L325.361 652.66L322.311 652.73L314.771 654.86L310.841 646.16L310.141 644.99L309.521 644.22L308.971 643.85L307.951 643L307.511 642.2L307.121 640.96L306.471 633.6L306.231 632.55L305.821 631.4L304.801 629.44L304.161 628.44L303.131 627.22L301.421 625.69L301.411 625.68L301.381 625.66L301.081 625.41L300.321 624.68L299.501 623.7L296.931 619.12L294.371 612.11L292.711 605.87L291.061 585.63L287.841 586.16L279.821 589.43L277.581 589.45L275.261 588.72L268.751 584.76L267.281 584.2L266.211 584.81L256.471 592.1L255.091 592.88L253.821 593.16L235.041 593.27L233.561 592.86L231.681 591.58L216.561 573.36L213.891 566.52L213.861 565.8L214.451 564.78L215.051 564.3L215.731 563.94L216.431 563.81L217.721 563.42L218.211 563.09L218.501 562.64L218.691 561.98L218.731 561.07L218.691 559.99L218.451 558.5L217.371 556.13L212.951 552.33L211.941 552.43L208.421 553.26L207.791 553.53L205.721 554.73L205.411 555.05L203.721 557.54L203.281 558.01L202.761 558.4L202.201 558.68L201.621 558.83L200.711 559.2L199.671 559.89L198.201 561.13L197.521 565.27L198.131 582.67L199.881 608.46L201.341 614.07L201.951 625.8L200.321 666.36L160.371 674.12L157.981 674.62L160.761 680.22L162.401 682.34L159.661 681.89L158.771 683.47L159.391 685.96L161.161 688.25L158.561 688.4L157.711 688.36L159.041 689.63L159.261 689.85L158.561 690.94L157.041 692.16L156.091 694.08L156.181 699.02L155.591 700.41L153.761 699.44L153.791 701.54L154.311 703.88L155.211 706.13L156.441 707.9L158.381 708.99L159.751 708.73L160.721 708.93L161.441 711.4L161.781 713.93L161.661 715.41L160.901 716.77L159.321 718.99L159.001 719.87L158.521 722.03L157.871 722.85L156.601 723.42L156.291 722.91V721.92L155.871 721.06L155.731 720.38L156.391 719.72L156.601 719.21L155.101 718.95L154.781 719.31L151.401 721.14L150.431 722.35L149.871 723.54L148.501 727.87L149.571 734.06L149.471 736.27L148.701 738.57L145.181 744.99L143.341 744.25L141.131 744.21L138.991 745.2L137.341 747.58L137.031 749.85L138.051 757.44H138.071L137.891 760.26L138.801 762.08L140.021 763.8L140.771 766.34L140.781 768.33L140.261 768.29L139.171 767.51L137.451 767.33L133.461 770.49L133.401 771.73L134.331 775.79L134.151 777.27L133.411 779.98L133.391 781V781.15L134.051 782.67L135.041 783.61L136.071 784.38L136.851 785.34L137.201 786.52L137.781 793.33L137.201 821.4L137.391 822.58L137.741 823.79L137.981 825.15L137.731 828.47L138.661 831.12L138.841 832.35L138.441 833.65L137.071 836.09L136.901 837.42L137.611 838.96L141.931 841.92H141.941L144.071 841.68L149.751 842.8L152.901 843.07Z" fill="#CCCCCC" stroke="white" stroke-width="0.5"/>
<path d="M442.12 597.02L436.07 595.38L433.21 594.94L408.02 603.78L378.79 599.91L375.12 607.33L374.34 610.16L374.88 614.94L375.53 617.73V618.95L371.92 625.66L372.11 628.04L371.92 630.48L371.47 631.37L370.73 632.27L368.95 633.48L367.75 633.89L366.72 634.01L360.72 639.51L336.59 667.99L337.44 669.42L338.15 670.2L338.66 670.94L339.16 671.5L340.51 673.69L340.44 675.01L340.24 675.68L339.95 676.24L339.76 676.88L339.78 677.57L339.95 679.04L340.21 679.64L340.51 680.18L340.75 680.77L341.33 683.44L341.66 684.01L342.05 684.51L342.88 685.4L343.43 686.14L343.91 686.56L344.7 687.01L346.03 687.57L346.6 688.25L346.98 688.97L347.32 689.45L349.37 689.17L365.72 683.58L376.81 720.82L375.66 729.21L365.15 731.87L363.89 732.42L362.8 733.13L361.49 734.5L361.03 735.28L360.58 736.31L360 738.4L359.94 740.01L361.72 753.01L361.81 753.4H361.82L362.78 753.1L391.68 748.74L402.1 745.52L401.16 745.43L398.45 744.63L402.1 741.95L405.46 743.94L409.27 744.53L418.07 744.06V744.05L416.16 726.4L417.11 722.93L418.78 723.2L420.18 723.66L421.36 724.3L428.14 730.09L429.6 731.08L431.45 731.93L431.65 731.99L431.12 731.2L430.92 730.8L429.84 731.1L429.91 730.7L429.84 729.32L431.31 730.06L431.72 730.21L431.16 728.62L431.29 727.36L432.04 726.82L433.42 727.44H434.22L436.17 727.15L438.66 728.24L440.99 728.93L442.42 727.44H443.24L443.47 727.76L443.48 727.74L444.72 727.18L452.89 726.49H454.66L455.88 726.71L457.74 728.14L459.2 728.66L460.15 728.67L460.9 728.45L461.43 728.03L461.95 727.49L462.55 726.65L467.17 716.53L467.31 715.79L467.36 714.99L467.13 711.89L467.18 710.96L467.32 709.96L467.75 708.55L476.02 688.68L477.44 683.86L477.75 682.05L477.78 680.41L477.2 677.63L476.97 676.95L475.77 674.65L475.08 673.59L474.81 673.01L474.7 672.35L474.97 671.27L482.21 652.56L475.75 640.25L474.16 630.06L473.55 613.9L473.05 611.13L471.7 609.93L469.74 609.26L456.34 607.67L451.05 605.52L442.12 597.02Z" fill="#CCCCCC" stroke="white" stroke-width="0.5"/>
<path d="M283.361 396.45L280.371 396.23L260.931 390.57L212.981 393.4L209.261 394.25L206.381 395.99L203.251 399.29L203.361 400.79L203.291 402.23L202.951 403.56L202.271 404.78L203.131 406.9L204.561 412.68L205.441 413.86L208.301 412.97H209.761L210.961 415.3L213.801 415.65L214.851 416.48L214.891 419.1L212.951 420.48L210.621 421.57L209.491 423.28L210.251 426.43L210.381 427.78L210.251 428.19L209.941 428.43L209.631 428.8L209.491 429.58L209.871 430.06L211.631 431.09L212.171 431.87L211.841 435.42L209.591 436.87L207.051 437.74L205.841 439.56L205.441 441.03L204.551 442.32L203.661 443.35L202.971 444.51L202.351 444.75L201.741 445.1L201.461 445.9L201.571 446.77L202.121 448.16L203.321 454.74L203.561 457.97L202.761 460.26L202.091 461.66L202.341 463.11L202.921 464.51L203.251 465.74L202.341 470.23L202.271 471.63L207.301 483.72L207.481 485.71L207.051 487.57L204.761 495.08L204.141 499.23L204.151 500.7L204.411 503.41L206.341 506.31L206.101 507.65L205.601 508.31L205.101 509.11L204.511 510.55L204.521 511.61L204.751 512.64L205.331 513.79L205.821 514.52L206.341 515.07L206.941 515.37L209.571 516.32L210.401 517L211.351 517.92L213.001 519.97L213.731 521.25L214.321 522.8L216.541 534.06L216.461 534.82L216.311 535.54L216.071 536.19L215.761 536.8L215.471 538.56L215.861 542.32L211.771 548.6L211.321 550.86L211.761 551.37L212.951 552.33L217.371 556.13L218.451 558.5L218.691 559.99L218.731 561.07L218.691 561.98L218.501 562.64L218.211 563.09L217.721 563.42L216.431 563.81L215.731 563.94L215.051 564.3L214.451 564.78L213.861 565.8L213.891 566.52L216.561 573.36L231.681 591.58L233.561 592.86L235.041 593.27L253.821 593.16L255.091 592.88L256.471 592.1L266.211 584.81L267.281 584.2L268.751 584.76L275.261 588.72L277.581 589.45L279.821 589.43L287.841 586.16L291.061 585.63L294.921 585.13L299.701 583.84L303.681 582.18L305.941 581.65L307.801 581.39L314.371 581.86L315.781 581.58L316.961 580.93L324.571 574.55L325.121 574.26L325.751 574.2L326.401 574.34L327.041 574.61L329.441 575.88L330.461 576.57L331.291 576L332.361 574.61L335.511 568.53L336.661 565.28L338.011 557.35L331.731 550.77L330.871 546.26L331.371 543.05L326.831 536.76L321.761 529.99L320.721 525.14L320.671 520.67L320.391 518.47L315.621 508.68L314.871 505.74L314.591 503.11L314.761 498.57L315.051 496.31L315.741 494.07L317.401 492.32L340.941 477.09L343.811 476.59L347.531 476.27L349.261 475.93L350.241 475.52L350.511 474.51L350.851 473.96L352.251 472.35L347.071 469.86L343.821 469.41L343.391 469.22L340.931 467.29L339.371 466.66L333.401 463.45L329.961 462.18L329.131 461.75L328.671 461.32L328.361 460.77L327.731 458.99L326.711 457.64L320.881 456.17L318.321 455.9L316.551 455.94L315.761 456.07L314.511 456.57L314.111 457.07L313.971 457.79L314.001 461.54L313.711 463.55L312.901 465.41L310.241 466.08L307.561 466.35L304.021 466.31L299.621 465.51L297.681 465.41L296.501 464.9L295.641 464.24L294.841 463.14L293.871 462.07L292.641 461.03L291.421 460.86L289.771 461.36L288.341 462.15L285.361 463.31L285.071 460.56L291.311 448.06L298.261 437.54L299.891 434.48L300.831 431.14L302.241 428.21L304.021 426.75L329.521 412.62L327.191 409.32L324.991 407.89L321.521 406.8L316.571 404.73L315.381 403.92L314.801 403.16L314.331 399.09L314.131 398.37L313.881 397.73L312.391 395.24L310.811 391.74L306.791 391.57L287.291 396.27L283.361 396.45Z" fill="#CCCCCC" stroke="white" stroke-width="0.5"/>
<path d="M420.019 541.51H419.789L411.099 541.43L407.119 542.94L381.199 560.6L377.339 561.44L338.009 557.35L336.659 565.28L335.509 568.53L332.359 574.61L331.289 576L330.459 576.57L329.439 575.88L327.039 574.61L326.399 574.34L325.749 574.2L325.119 574.26L324.569 574.55L316.959 580.93L315.779 581.58L314.369 581.86L307.799 581.39L305.939 581.65L303.679 582.18L299.699 583.84L294.919 585.13L291.059 585.63L292.709 605.87L294.369 612.11L296.929 619.12L299.499 623.7L300.319 624.68L301.079 625.41L301.379 625.66L301.409 625.68L301.419 625.69L303.129 627.22L304.159 628.44L304.799 629.44L305.819 631.4L306.229 632.55L306.469 633.6L307.119 640.96L307.509 642.2L307.949 643L308.969 643.85L309.519 644.22L310.139 644.99L310.839 646.16L314.769 654.86L322.309 652.73L325.359 652.66L326.339 653.06L329.449 655L329.959 655.74L331.069 658.18L333.929 660.55L334.349 661.04L334.609 661.64L334.729 662.3L334.499 663.75L334.449 664.53L334.679 665.4L335.189 665.84L335.869 666.11L336.209 666.52L336.589 667.99L360.719 639.51L366.719 634.01L367.749 633.89L368.949 633.48L370.729 632.27L371.469 631.37L371.919 630.48L372.109 628.04L371.919 625.66L375.529 618.95V617.73L374.879 614.94L374.339 610.16L375.119 607.33L378.789 599.91L408.019 603.78L433.209 594.94L436.069 595.38L442.119 597.02L445.969 586.35L446.259 582.88L446.049 582.06L445.919 577.47L443.349 576.68L438.769 578.27L436.599 577.61L434.399 575.38L433.419 573.29L433.259 570.78L433.439 567.24L433.029 566.46L432.199 565.81L431.659 565.08L432.139 564.05L432.839 563.27L433.189 562.64L433.439 560.95L434.109 558.99L433.779 558.45L432.139 558.26L430.029 557.45L431.709 555.02L433.019 553.14L432.539 551.07L433.729 548.22L432.129 546.52L429.149 545.72L422.029 545.85L420.549 544.95L419.969 542.41L420.019 541.51Z" fill="#CCCCCC" stroke="white" stroke-width="0.5"/>
<path d="M378.21 428.93L379.5 428.67L380.05 428.35L380.46 427.94L380.72 427.32L380.34 425.69L379.45 423.37L376.97 418.3L375.5 416.37L374.27 415.28L373.47 415.1L372.78 414.87L372.19 414.54L371.74 414.1L371.46 413.21L371.3 411.89L372.03 403.14L371.65 400.92L370.04 396.07L366.18 396.22L364.81 396.48L362.95 397.11L360.44 398.81L357.99 400.11L355.59 400.98L345.51 397.02L343.71 396.62L342.31 396.88L338.08 399.97L334.41 403.38L333.96 404.83L333.87 405.87L334.2 408.23L334.21 408.81L333.75 409.66L333.33 410.29L329.52 412.62L304.02 426.75L302.24 428.21L300.83 431.14L299.89 434.48L298.26 437.54L291.31 448.06L285.07 460.56L285.36 463.31L288.34 462.15L289.77 461.36L291.42 460.86L292.64 461.03L293.87 462.07L294.84 463.14L295.64 464.24L296.5 464.9L297.68 465.41L299.62 465.51L304.02 466.31L307.56 466.35L310.24 466.08L312.9 465.41L313.71 463.55L314 461.54L313.97 457.79L314.11 457.07L314.51 456.57L315.76 456.07L316.55 455.94L318.32 455.9L320.88 456.17L326.71 457.64L327.73 458.99L328.36 460.77L328.67 461.32L329.13 461.75L329.96 462.18L333.4 463.45L339.37 466.66L340.93 467.29L343.39 469.22L343.82 469.41L347.07 469.86L352.25 472.35L350.85 473.96L350.51 474.51L350.24 475.52L349.26 475.93L347.53 476.27L343.81 476.59L340.94 477.09L317.4 492.32L315.74 494.07L315.05 496.31L314.76 498.57L314.59 503.11L314.87 505.74L315.62 508.68L320.39 518.47L320.67 520.67L320.72 525.14L321.76 529.99L326.83 536.76L331.37 543.05L330.87 546.26L331.73 550.77L338.01 557.35L377.34 561.44L381.2 560.6L407.12 542.94L411.1 541.43L419.79 541.51H420.02L420.03 541.36L420.48 534.75L419.97 532.04L418.63 529.07L417.22 525.97L416.93 524.85L410.53 518.74L409.26 517.21L408.51 514.33L404.94 510.21L403.82 507.76L404.06 505.34L406.79 503.17L407.47 500.94L407.7 498.81L408.84 495.07L409.25 494.05L410.17 492.51L411.51 492.01L413.1 491.22L413.63 490.81L414.03 490.31L414.1 489.76L413.79 489.23L411.22 488.47L410.59 488.2L410.04 487.87L409.47 487.44L408.89 486.8L408.24 485.83L407.84 484.41L407.77 483.4L407.92 482.6L408.64 480.87L409.64 477.09L409.49 476.3L409.06 475.64L405.53 474.28L404.62 474.04L403.78 473.95L402.56 474.15L401.87 474.42L401.46 474.75L400.92 475.09L400.32 475.38L399.62 475.56L398.93 475.55L398.1 475.39L397.3 475.03L396.19 474.24L395.52 473.49L395.11 472.11L395.06 471.28L394.88 470.49L393.32 469.46L391.08 467.63L390.09 467.28L389.24 467.2L388.49 467.23L387.82 467.12L387.2 466.79L386.7 466.23L385.86 464.67L385.67 464.02L385.82 463.47L386.55 463.07L387.06 462.67L387.4 462.1L387.15 461.44L387.51 460.27L387.92 459.46L387.73 458.66L386.85 457.11L386.19 456.28L385.43 455.76L383.49 455.05L382.96 454.68L382.51 454.24L382.08 453.74L381.11 452.89L380.82 452.35L380.72 451.76L381.16 451.09L382.22 450.17L382.61 449.61L382.7 448.86L382.47 448.02L381.47 446.92L380.19 446.51L379.71 446.21L378.93 445.19L378.67 442.53L379.66 434.09L377.89 431.88L377.58 431.39L377.05 428.92L378.21 428.93Z" fill="#CCCCCC" stroke="white" stroke-width="0.5"/>
<path d="M305.498 202.85L302.928 202.17L299.348 202.87L298.028 203.84L297.688 204.4L297.128 205.73L296.388 208.67L295.618 210.1L294.888 210.62L293.958 210.82L292.978 210.89L291.498 211.51L290.768 212.1L288.398 215.4L285.768 218.43L284.338 219.57L283.168 220.1L282.458 219.92L281.848 219.61L281.298 219.21L280.368 218.24L279.628 217.19L278.978 216.06L277.908 213.21L277.448 212.26L276.708 211.16L275.328 209.85L274.558 209.5L273.528 209.31H271.718L270.718 209.52L269.928 209.84L269.448 210.23L269.058 210.73L268.758 211.34L268.588 212.02L268.618 212.75L268.778 213.42L269.928 215.89L269.708 216.84L268.938 218.04L266.638 220.01L265.298 220.78L264.118 221.18L252.988 220.38L252.248 220.13L251.748 219.85L250.778 218.94L249.258 217.24L249.398 215.97L250.428 215.12L245.738 214.5L240.968 217.36L237.748 218.24L236.568 218.82L234.938 219.93L233.348 220.49L228.158 221.72L226.808 222.38L226.038 223.17L225.838 224.01L225.468 224.98L224.638 226.26L224.358 227.23L224.268 228.13L224.368 230.02L224.378 230.08V230.11L224.998 236.05L224.958 236.85L224.718 237.67L224.278 237.68L223.788 237.47L222.848 236.56L222.208 236.2L221.388 235.97L219.918 236.05L218.938 235.96L218.198 235.64L217.708 235.21L216.988 234.88L216.108 234.68L212.398 235.44L210.258 235.65L209.438 235.61L208.698 235.48L208.008 235.25L207.398 234.92L206.868 234.5L206.438 234L204.988 231.83L204.568 231.35L203.988 231.05L203.258 230.96L200.968 231.13L200.198 231L199.598 230.7L199.128 230.39L198.828 230.1L198.808 230.08L198.798 230.04L198.718 229.95L198.368 229.71L197.698 229.36L196.498 229.06L195.678 229.13L195.038 229.42L194.658 229.74L194.418 230.04L194.408 230.06L194.198 230.56L192.998 232.02L191.398 233.04L189.308 234.97L187.498 236.35L184.198 237.31L182.438 237.38L182.188 237.63L182.078 238.2L182.398 238.76L182.958 239.05L183.968 239.13L185.228 239.46L185.238 240.23L184.418 241.76L184.398 243.53L184.118 244.93L183.518 246.12L182.548 247.26L184.398 248.02L185.508 249.55L186.058 251.63L186.208 254.04L186.478 254.79L187.668 257.08L187.908 258.1L187.598 259.07L186.458 260.17L186.208 261.3L185.968 263.58L184.418 269.92L184.268 274.85L183.818 277.42L182.548 279.86L184.328 279.9L185.278 280.42L185.108 281.1L183.518 281.66L185.208 282.93L186.598 285.39L187.548 288.13L188.238 293.1L189.958 296.78L190.748 299.79V305.21L192.038 313.33L193.358 315.93L195.358 318.03L197.888 319.64L196.388 320.68L195.968 321.41L196.078 322.18L196.098 328.05L194.728 330.22L195.558 333.5L197.208 336.91L198.778 338.74L197.948 341.25L198.578 343.07L199.718 344.78L200.488 346.94L200.288 347.99L199.078 349.74L198.778 350.88V355.47L199.408 358.16L201.658 363.69L203.248 367.76L203.238 370.46L202.338 372.03L201.018 373.27L199.678 374.97L199.178 375.95L198.928 376.81L198.778 378.94L199.048 380.28L200.218 381.69L200.488 382.62L200.968 391.25L201.808 395.82L203.248 399.29L206.378 395.99L209.258 394.25L212.978 393.4L260.928 390.57L280.368 396.23L283.358 396.45L287.288 396.27L306.788 391.57L310.808 391.74L312.388 395.24L313.878 397.73L314.128 398.37L314.328 399.09L314.798 403.16L315.378 403.92L316.568 404.73L321.518 406.8L324.988 407.89L327.188 409.32L329.518 412.62L333.328 410.29L333.748 409.66L334.208 408.81L334.198 408.23L333.868 405.87L333.958 404.83L334.408 403.38L338.078 399.97L342.308 396.88L343.708 396.62L345.508 397.02L355.588 400.98L357.988 400.11L360.438 398.81L362.948 397.11L364.808 396.48L366.178 396.22L370.038 396.07L372.218 394.76L372.928 393.91L374.218 391.98L374.598 390.8L374.698 389.79L374.008 387.77L373.678 386.33L373.578 384.68L373.628 383.88L374.198 381.68L374.468 381.07L376.368 378.47L376.898 377.19L377.288 375.76L377.388 375.01L377.368 374.2L377.198 373.45L376.738 372.11L376.178 369.73L376.138 368.47L377.308 362.27L377.328 362.25L377.338 362.21L378.508 361.82L380.488 361.58L381.718 361.54L386.108 361.86L391.728 360.95L395.118 359.48L402.728 354.46L403.488 353.62L403.888 352.86L403.968 351.77L403.808 349.73L404.538 349.43L405.998 349.01L409.888 349.1L412.018 349.65L413.088 347.63L414.988 347.26L417.168 347.84L418.978 348.75L419.968 346.94L421.618 347.37L422.648 346.18L422.918 344.35L421.468 341.25L423.238 340.64L425.148 340.55H427.108L428.898 337.72L428.648 334.35L426.218 327.92H428.898L427.778 325.63L426.048 324.59L424.188 324.07L422.728 323.33L422.198 322.54L420.858 319.64L420.318 319.05L419.668 318.63L418.178 317.92L415.508 316.03L414.668 315.72L408.368 314.23L408.098 313.7L407.958 312.8L407.698 311.97L407.068 311.6H402.558L401.518 311.32L400.928 310.7L400.458 310.08L399.848 309.8L398.418 308.8L394.748 304.4L393.558 303.4L393.138 303.12L393.838 302.5L395.058 301.88L396.238 301.6L397.418 301.75L399.848 302.58L403.068 302.82L404.238 302.32L405.688 300.7L394.968 294.54L394.268 292.36L377.028 288.17L350.088 278.24L349.048 277.64L329.128 246.37L326.818 241.59L326.628 240.89L326.438 239.17L326.148 238.01L325.668 237.35L325.048 236.87L322.508 235.62L313.988 230.1L313.968 230.06L313.948 230.03L313.648 229.62L313.388 229.13L312.678 227.12L312.308 226.41L310.958 224.42L310.358 223.18L310.138 222.5L310.028 221.82L310.008 221.03L310.108 220.27L310.308 219.51L312.228 215.87L313.028 214.85L314.468 213.53L314.888 212.98L315.188 212.35L315.338 211.6L315.328 210.82L315.228 210.04L314.678 208.92L311.538 204.94L308.768 203.28L307.238 202.96L306.238 202.85H305.498Z" fill="#CCCCCC" stroke="white" stroke-width="0.5"/>
<path d="M185.17 363.77L181.31 362.95L180.13 360.55L175.71 353.35L175.3 352.81L174.8 352.39L170 349.29L167.8 348.22L163.22 347.14L162.2 346.75L161.5 346.25L161.1 345.72L160.46 344.54L159.95 343.91L159.27 343.23L157.89 342.27L155.89 340.52L154.96 340.21L153.83 340.25L153.14 340.65L152.64 341.13L151.85 342.14L150.96 343.01L148.9 344.54L147.96 345.38L147.58 345.81L147.31 346.22L146.84 347.1L145.65 351.57L145.48 354.9L145.6 355.7L145.84 356.38L146.21 356.91L146.99 357.77L147.19 358.09L147.26 358.36L147.14 358.59L146.53 359.48L146.29 360.09L146.17 360.8L146.2 361.52L146.32 362L146.42 362.25L147.25 363.67L147.4 364.07L147.55 364.66L147.69 368.76L147.86 369.46L147.87 370.16L147.66 370.85L146.73 371.62L146.06 372.07L145.61 372.51L145.52 373.02L145.72 373.57L145.98 374.1L146.13 374.59L145.86 375L145.4 375.28L145 375.61L144.56 376.09L144.15 376.67L143.6 377.3L142.77 377.34L142.1 377.58L141.55 377.9L140.28 379.09L139.01 379.85L138.09 380.06L137.13 380.12L136.01 380L134.84 380.48L133.9 380.56L133.31 380.41L132.95 379.84L132.67 379.17L132.2 378.73L131.82 378.75L131.39 379.15L130.95 379.67L130.28 380.19L128.85 381.62L126.85 382.69L125.93 383L125.22 383.02L124.85 382.62L124.48 382.11L124.08 381.68L123.55 381.53L122.59 382.51L122.06 382.62L121.59 382.37L121.22 381.11L120.83 380.54L120.09 380.08L119.54 379.62L119 378.93L118.02 378.19L115.81 377.47L113.1 377.04L111.76 376.63L111.08 376.06L110.78 375.48L109.73 373.82L109.33 373.32L108.38 372.46L108.07 371.84L107.83 371.15L107.51 370.5L106.82 370.12L106.25 369.71L105.29 368.84L104.73 368.47L104.05 368.21L103.41 367.83L102.5 367.57L102.03 367.25L101.96 366.73L102.19 366.21L102.36 365.66L102.24 365.09L101.47 364.13L101.19 363.52L101.01 362.89L100.78 362.31L100.74 362.25V362.24L100.67 362.21L98.7997 360.45L97.0897 359.81L96.1797 359.92L95.5897 360.43L95.1497 361.15L94.2697 361.33L91.2297 360.83L88.8297 359.81L86.3797 358.72L86.7697 360.27L84.4497 360.08L82.8697 359.08L81.5997 357.99L80.3197 357.58L74.8497 358.47L72.8597 358.41L73.0997 359.53L72.8797 362.72L71.5497 367.86L65.0397 377.77L64.7397 383.07L65.7097 384.44L68.6297 386.98L69.2997 388.42L69.0397 389.74L68.2997 390.47L67.4397 390.99L66.8397 391.72L66.3297 393.84L65.8597 398.23L65.2397 400.14L61.0297 404.98L60.9497 405.53L61.3097 406.82L61.2297 407.37L60.6997 407.91L59.2197 408.75L58.6397 409.26L56.0197 412.6L55.3997 414.1L55.3497 415.1L55.7697 417.24L55.7097 418.17L51.9497 422.4L47.1997 420.32L42.2497 416.46L37.8597 415.34L33.2197 416.73L30.7897 416.92L27.6597 413.35L24.3597 415.06L18.4297 420.59L23.8897 423.34L26.2497 427.98L28.9197 437.3L30.5097 450.08L31.2097 452.63L32.0697 454.2L34.2997 457.39L35.1497 459.12L36.1697 463.21L36.7897 464.25L38.3597 466.22L38.8797 467.25L38.9497 468.12L38.6697 469.79L38.7797 470.64L39.2397 471.46L41.1697 473.41L41.9697 474.78L42.3297 476L42.5097 479.22L44.7497 491.77L44.4197 494.95L43.4397 496.18L40.7697 498.27L40.0597 499.4L39.8997 501.73L40.0597 503.9L39.9397 505.96L38.2697 509.59L38.9097 510.58L39.9797 511.29L40.6197 512.06L40.7097 513.84L40.4997 515.69L39.3997 519.64L37.7697 523.46L35.8997 526.34L24.1497 539.51L25.0297 539.87L37.8397 548.11L39.0497 548.61L40.0097 548.64L41.4597 547.6L42.5097 547.08L44.1697 546.49L45.0497 546.35L48.2297 543.85L49.1797 543.37L49.2897 542.56L49.2697 541.93L49.1597 541.23L49.2397 540.51L49.5097 539.65L49.4697 538.92L49.1897 537.84L49.5097 537.56L50.8797 537.76L51.5597 537.65L52.1797 537.47L53.5097 537.25L53.9697 536.91L53.9097 536L53.0497 534.17L52.9097 533.65L53.3297 532.89L55.9497 531.28L56.7397 531.25L57.0397 531.65L57.0997 532.21L57.3697 532.71L57.8497 533L58.5997 532.93L59.3897 532.42L60.4097 531.39L60.9697 529.95L61.4297 527.27L61.4697 525.97L61.7497 525.42L63.2597 524.29L63.9797 523.27L64.7397 522.91L66.2697 522.02L67.4797 521.04L68.5197 520.46L69.3097 520.16L69.8497 519.84L69.9397 519.03L68.6897 515.82L68.3597 515.39L67.8797 515.3L67.4597 515.18L67.2597 514.69L67.2797 514.03L67.5097 513.2L68.5697 510.97L69.1397 509.22L68.7297 508.32L68.8997 507.9L69.8897 507.47L70.6097 507.01L71.1897 506.18L71.5197 505.51L71.9197 505.11L72.5897 505.29L73.6697 505.05L75.1497 504.26L80.3097 499.31L83.2397 498.29L86.6097 499.74L87.2397 500.14L88.3097 500.94L91.0697 503.49L92.1897 504.2L93.1597 504.63L94.9897 504.93L98.1597 505.84L99.1397 506.38L99.7997 506.96L100.4 508.18L101.88 512.36L102.44 513.22L103.65 514.37L105.53 514.77L107.68 514.95L129.52 514.64L131.28 514.27L131.82 507.41L132.05 506.49L133.68 503.44L142.1 502.15L155.89 502.09L157.23 501.89L160.95 500.88L173.22 498.84L175 498.88L175.8 498.96L180.23 500.04L190.25 498.98L191.62 499.03L192.23 499.34L195.44 501.51L197.36 502.31L203.51 503.37L204.41 503.41L204.15 500.7L204.14 499.23L204.76 495.08L207.05 487.57L207.48 485.71L207.3 483.72L202.27 471.63L202.34 470.23L203.25 465.74L202.92 464.51L202.34 463.11L202.09 461.66L202.76 460.26L203.56 457.97L203.32 454.74L202.12 448.16L201.57 446.77L201.46 445.9L201.74 445.1L202.35 444.75L202.97 444.51L203.66 443.35L204.55 442.32L205.44 441.03L205.84 439.56L207.05 437.74L209.59 436.87L211.84 435.42L212.17 431.87L211.63 431.09L209.87 430.06L209.49 429.58L209.63 428.8L209.94 428.43L210.25 428.19L210.38 427.78L210.25 426.43L209.49 423.28L210.62 421.57L212.95 420.48L214.89 419.1L214.85 416.48L213.8 415.65L210.96 415.3L209.76 412.97H208.3L205.44 413.86L204.56 412.68L203.13 406.9L202.27 404.78L202.95 403.56L203.29 402.23L203.36 400.79L203.25 399.29L201.81 395.82L200.97 391.25L200.49 382.62L200.22 381.69L199.05 380.28L198.78 378.94L198.93 376.81L199.18 375.95L199.68 374.97L201.02 373.27L202.34 372.03L203.24 370.46L203.25 367.76L201.66 363.69L185.17 363.77Z" fill="#CCCCCC" stroke="white" stroke-width="0.5"/>
<path d="M188.241 293.1L184.001 289.22L182.881 287.24L182.381 285.93L182.041 285.26L181.291 284.42L180.101 283.34L176.811 281.13L175.851 280.66L174.461 280.25L173.201 279.7L172.071 279.02L170.321 277.26L166.841 272.44L165.531 270.11L164.891 269.4L163.991 268.61L161.101 266.78L159.601 266.02L158.491 265.31L152.731 258.56L147.961 255.81L147.521 255.46L147.041 254.92L143.441 249.23L142.461 248.17L134.861 241.47L130.791 240.1L128.351 238.94L127.281 238.21L126.321 237.32L125.501 236.1L119.631 225.03L116.361 220.49L114.801 220.11L112.711 221.67L109.591 222.14H107.011L104.501 222.44L92.7711 228.46L90.8011 230.55V230.56H90.7911L89.5211 233.77L88.8911 236.89L88.3311 243.39L85.9511 254.86L87.2611 258.94L93.2411 260.76L96.1411 261.09L103.981 263.48L104.561 263.4L105.931 262.7L106.701 262.72L107.551 263.29L108.601 264.96L109.221 265.69L111.691 267.86L112.591 268.98L115.721 274.69L116.951 276.12L120.591 278.58L121.521 279.72L122.201 282.19L121.891 287.27L122.191 290.06L123.821 295.55L123.811 297.85L122.871 301.17L122.471 304.33L123.301 307.15L126.011 312.76L118.391 313.6L114.791 313.1L111.821 311.22L107.711 302.94L104.921 299.15L102.051 299.62L101.571 301.62L101.921 303.8L101.681 305.66L99.4611 306.68L97.2711 306.61L95.1511 305.97L93.2811 304.92L91.8511 303.66L90.8311 301.9L90.1311 300L89.2211 298.26L87.6011 296.97L85.7411 296.63L83.7311 296.89L79.8311 297.92L78.6311 297.73L76.3311 297.92L75.2611 297.85L74.4111 297.43L72.9811 296.16L71.8711 295.79L69.2211 296L64.8811 297.73L62.2111 298.01L57.5311 297.06L55.7011 297.3L49.3511 302.36L48.6311 303.29L48.6411 304.88L49.3311 306.3L50.2411 307.75L50.9211 309.43L51.1311 312.15L49.5211 319.67V322.15L49.8211 324.62L49.4311 326.14L47.3011 328.4L47.1211 329.79L57.9711 336.96L70.7111 340.88L71.9611 340.7L79.8311 337.99L81.4611 337.97L81.5711 339.26L80.8111 341.09L79.8311 342.71L79.0511 346.73L79.1011 348.72L79.8311 350.59L82.2711 352.06L84.4511 354.48L86.0411 357.38L86.3811 358.72L88.8311 359.81L91.2311 360.83L94.2711 361.33L95.1511 361.15L95.5911 360.43L96.1811 359.92L97.0911 359.81L98.8011 360.45L100.671 362.21L100.741 362.24V362.25L100.781 362.31L101.011 362.89L101.191 363.52L101.471 364.13L102.241 365.09L102.361 365.66L102.191 366.21L101.961 366.73L102.031 367.25L102.501 367.57L103.411 367.83L104.051 368.21L104.731 368.47L105.291 368.84L106.251 369.71L106.821 370.12L107.511 370.5L107.831 371.15L108.071 371.84L108.381 372.46L109.331 373.32L109.731 373.82L110.781 375.48L111.081 376.06L111.761 376.63L113.101 377.04L115.811 377.47L118.021 378.19L119.001 378.93L119.541 379.62L120.091 380.08L120.831 380.54L121.221 381.11L121.591 382.37L122.061 382.62L122.591 382.51L123.551 381.53L124.081 381.68L124.481 382.11L124.851 382.62L125.221 383.02L125.931 383L126.851 382.69L128.851 381.62L130.281 380.19L130.951 379.67L131.391 379.15L131.821 378.75L132.201 378.73L132.671 379.17L132.951 379.84L133.311 380.41L133.901 380.56L134.841 380.48L136.011 380L137.131 380.12L138.091 380.06L139.011 379.85L140.281 379.09L141.551 377.9L142.101 377.58L142.771 377.34L143.601 377.3L144.151 376.67L144.561 376.09L145.001 375.61L145.401 375.28L145.861 375L146.131 374.59L145.981 374.1L145.721 373.57L145.521 373.02L145.611 372.51L146.061 372.07L146.731 371.62L147.661 370.85L147.871 370.16L147.861 369.46L147.691 368.76L147.551 364.66L147.401 364.07L147.251 363.67L146.421 362.25L146.321 362L146.201 361.52L146.171 360.8L146.291 360.09L146.531 359.48L147.141 358.59L147.261 358.36L147.191 358.09L146.991 357.77L146.211 356.91L145.841 356.38L145.601 355.7L145.481 354.9L145.651 351.57L146.841 347.1L147.311 346.22L147.581 345.81L147.961 345.38L148.901 344.54L150.961 343.01L151.851 342.14L152.641 341.13L153.141 340.65L153.831 340.25L154.961 340.21L155.891 340.52L157.891 342.27L159.271 343.23L159.951 343.91L160.461 344.54L161.101 345.72L161.501 346.25L162.201 346.75L163.221 347.14L167.801 348.22L170.001 349.29L174.801 352.39L175.301 352.81L175.711 353.35L180.131 360.55L181.311 362.95L185.171 363.77L201.661 363.69L199.411 358.16L198.781 355.47V350.88L199.081 349.74L200.291 347.99L200.491 346.94L199.721 344.78L198.581 343.07L197.951 341.25L198.781 338.74L197.211 336.91L195.561 333.5L194.731 330.22L196.101 328.05L196.081 322.18L195.971 321.41L196.391 320.68L197.891 319.64L195.361 318.03L193.361 315.93L192.041 313.33L190.751 305.21V299.79L189.961 296.78L188.241 293.1Z" fill="#CCCCCC" stroke="white" stroke-width="0.5"/>
<path d="M156.221 53.22L154.521 53.16L154.341 52.34L154.661 51.06L154.481 49.62L152.291 45.92L151.771 44.6L151.671 43.42L151.781 42.02L151.671 40.49L150.961 38.95L149.831 37.73L148.581 36.96L147.061 36.62L145.181 36.73L142.071 40.74L141.051 41.69L139.881 42.12L137.531 42.09L136.221 42.22L133.161 41.93L128.471 39.04L125.761 39.48L125.021 40.59L124.511 42.24L123.851 43.63L122.681 44L121.131 43.81L119.981 44.09L118.191 45.57V46.48L117.601 46.69L116.391 47.3L117.971 49.25L116.491 51.45L113.601 53.18L110.961 53.74L112.691 55.99L111.131 58.67L110.881 60.58L110.151 61.63L109.181 62.25L108.331 62.98L107.871 64.42L107.371 65.43L104.241 69.44L102.981 70.49L101.831 71.26L100.551 71.73L97.2008 72.21L95.9708 73L93.5308 75.05L91.1608 76.17L88.4408 76.91L85.6908 76.96L83.2408 76.04L81.9108 77.54L80.9408 79.18L80.2708 80.97L79.8308 82.89L77.3308 86.16L74.3208 87.84L67.6708 90.35L65.2208 92.62L62.5708 96.21L61.1708 99.55L62.4308 101.01L64.0708 101.6L63.5708 102.89L61.9708 104.18L59.1608 105.26L59.0508 106.43L59.4708 107.79L59.9408 108.87L60.3808 109.14L61.1108 109.18L61.8608 109.37L62.3408 110.11L62.6408 112.42L62.8408 113.14L62.6308 113.46L62.0008 113.63L61.6108 114.1L62.1508 115.31L62.6908 115.5L65.1408 115.3L65.7408 118.14L60.9308 152.62L60.7608 153.84L60.8408 156.76L61.2808 159.78L61.9108 162.13L62.8808 164.24L70.4908 175.08L72.6808 177.45L74.8208 178.56L77.6708 179.15L80.6008 179.29L82.9908 179.06L85.6708 178.05L90.6408 175.23L93.4108 174.65H98.8008L99.4908 175.81L96.0408 186.36L95.6208 189.42L90.9508 200.93L91.1008 205.75L97.7408 208.39L99.3608 208.11L100.681 207.56L101.771 207.78L103.561 211.16L104.981 212.62L107.901 214.9L113.341 217.96L114.991 219.97L114.801 220.11L116.361 220.49L119.631 225.03L125.501 236.1L126.321 237.32L127.281 238.21L128.351 238.94L130.791 240.1L134.861 241.47L142.461 248.17L143.441 249.23L147.041 254.92L147.521 255.46L147.961 255.81L152.731 258.56L158.491 265.31L159.601 266.02L161.101 266.78L163.991 268.61L164.891 269.4L165.531 270.11L166.841 272.44L170.321 277.26L172.071 279.02L173.201 279.7L174.461 280.25L175.851 280.66L176.811 281.13L180.101 283.34L181.291 284.42L182.041 285.26L182.381 285.93L182.881 287.24L184.001 289.22L188.241 293.1L187.551 288.13L186.601 285.39L185.211 282.93L183.521 281.66L185.111 281.1L185.281 280.42L184.331 279.9L182.551 279.86L183.821 277.42L184.271 274.85L184.421 269.92L185.971 263.58L186.211 261.3L186.461 260.17L187.601 259.07L187.911 258.1L187.671 257.08L186.481 254.79L186.211 254.04L186.061 251.63L185.511 249.55L184.401 248.02L182.551 247.26L183.521 246.12L184.121 244.93L184.401 243.53L184.421 241.76L185.241 240.23L185.231 239.46L183.971 239.13L182.961 239.05L182.401 238.76L182.081 238.2L182.191 237.63L182.441 237.38L184.201 237.31L187.501 236.35L189.311 234.97L191.401 233.04L193.001 232.02L194.201 230.56L194.411 230.06L194.421 230.04L194.661 229.74L195.041 229.42L195.681 229.13L196.501 229.06L197.701 229.36L198.371 229.71L198.721 229.95L198.801 230.04L198.811 230.08L198.831 230.1L199.131 230.39L199.601 230.7L200.201 231L200.971 231.13L203.261 230.96L203.991 231.05L204.571 231.35L204.991 231.83L206.441 234L206.871 234.5L207.401 234.92L208.011 235.25L208.701 235.48L209.441 235.61L210.261 235.65L212.401 235.44L216.111 234.68L216.991 234.88L217.711 235.21L218.201 235.64L218.941 235.96L219.921 236.05L221.391 235.97L222.211 236.2L222.851 236.56L223.791 237.47L224.281 237.68L224.721 237.67L224.961 236.85L225.001 236.05L224.381 230.11V230.08L224.371 230.02L224.271 228.13L224.361 227.23L224.641 226.26L225.471 224.98L225.841 224.01L226.041 223.17L226.811 222.38L228.161 221.72L233.351 220.49L234.941 219.93L236.571 218.82L237.751 218.24L240.971 217.36L245.741 214.5L246.821 210.78L246.781 210L246.551 208.98L245.511 207.12L245.631 205.31L247.131 197.78L247.271 195.61L247.011 194.26L246.491 193.86L245.621 192.8L245.271 192.28L244.801 191.84L242.921 188.41L241.371 182.94L240.901 180.45L240.851 178.76L241.991 177.03L242.181 175.91L241.931 174.93L241.361 173.42L241.211 172.55L241.241 172.02L241.551 171.55L241.961 171.16L242.311 170.6L242.571 169.9L242.881 168.32L243.111 167.6L243.531 167.09L244.101 166.77L244.741 166.51L245.361 165.95L245.891 165.09L246.411 163.34L246.491 162.23L246.321 161.37L245.971 161.01L245.191 160.5L243.401 158.99L242.261 157.41L241.441 156.61L239.051 155.21L240.601 148.74L241.411 146.45L241.771 145.89L243.761 143.4L244.011 142.33L244.201 140.78L244.631 139.86L245.241 139.14L246.111 138.41L246.231 137.77L246.031 137.21L245.631 136.57L245.311 135.82L245.241 134.53L245.661 133.62L246.351 132.49L246.591 131.6L246.571 130.83L246.231 130.26L245.691 129.81L244.431 129.01L243.921 128.25L244.031 127.02L244.661 124.93L245.041 122.36L245.511 121.04L246.051 120.15L246.671 119.47L247.441 118.21L247.491 117.39L247.321 116.7L246.581 115.66L246.251 115.07L245.441 111.77L245.121 110.94L244.711 110.3L244.231 109.9L243.711 109.55L243.151 108.97L242.591 108.14L241.581 105.62L241.131 104.9L240.601 104.47L239.961 104.15L239.191 103.98L238.401 103.93L221.791 104.47L220.961 104.3L220.181 104.04L219.531 103.45L219.481 102.82L219.681 102.19L221.941 98.73L222.961 97.54L225.731 94.95L226.041 94.21L226.391 93.07L226.381 92.02L226.641 90.32L227.191 89.04L228.301 87.3L228.721 86.21L228.801 85.17L228.681 84.52L227.661 83.3L229.191 81.34L231.531 80.16L235.061 79.57L236.811 79.72L241.701 78.83L243.051 81.31L244.591 82.7L246.011 83.47L247.061 83.82L248.051 83.98L248.851 83.95L250.311 83.71L255.511 82.02L266.161 76.21L266.641 75.8L267.061 75.35L267.141 74.67L266.791 72.39L266.861 70.74L267.451 67.86L267.281 67.03L263.171 65.81L262.381 65.19L261.271 64.07L260.961 63.19L260.831 62.34L260.901 61.53L261.251 59.83L261.221 58.79L260.691 56.63L259.791 55.25L257.561 50.51L255.981 48.96L255.901 49.6L254.791 51.19L251.791 52.17L248.881 51.85L243.961 48.92L241.101 48L238.251 48.29L230.561 51.88L228.041 52.22L220.621 51.28L217.681 51.74L216.131 53.41L212.991 63.98L213.281 65.75L214.671 66.95L216.381 68.06L217.631 69.52L217.921 72.91L216.321 75.71L213.611 77.75L210.551 78.84L207.321 78.95L205.001 76.84L203.051 73.84L200.921 71.31L198.711 70.02L185.851 66.41L175.481 64.8L167.261 64.63L165.111 64.06L164.011 62.42L163.891 59.22L164.721 53.79L163.941 51.76L160.971 51.56L157.421 52.91L156.221 53.22Z" fill="#CCCCCC" stroke="white" stroke-width="0.5"/>
<path d="M309.88 1L306.74 1.43L303.66 2.77L301.22 4.46L298.67 5.66L295.29 5.55L292.61 5.12L289.77 5.27L287.52 6.37L286.61 8.79L286.36 14.01L287.04 15.83L288.56 16.8L290.18 17.58L291.15 18.82L290.69 21.93L288.24 23.6L285.04 24.17L282.3 24L275.18 22.58L273.07 21.86L267.77 19L265.09 17.17L263.12 15.37L260.46 10.77L258.75 9.67L255.86 10.62L256.03 11.05L254.19 14.18L253.9 14.29L253.27 16.78L253 19.23L253.24 20.36L253.71 21.28L254.08 22.35L253.43 28.4L252.15 32.68L252.38 34.95L254.04 37.54L255.02 38.05L256.46 38.49L257.85 39.09L258.66 40.07L258.64 41.51L257.97 42.68L257.11 43.7L256.54 44.68L255.98 48.96L257.56 50.51L259.79 55.25L260.69 56.63L261.22 58.79L261.25 59.83L260.9 61.53L260.83 62.34L260.96 63.19L261.27 64.07L262.38 65.19L263.17 65.81L267.28 67.03L267.45 67.86L266.86 70.74L266.79 72.39L267.14 74.67L267.06 75.35L266.64 75.8L266.16 76.21L255.51 82.02L250.31 83.71L248.85 83.95L248.05 83.98L247.06 83.82L246.01 83.47L244.59 82.7L243.05 81.31L241.7 78.83L236.81 79.72L235.06 79.57L231.53 80.16L229.19 81.34L227.66 83.3L228.68 84.52L228.8 85.17L228.72 86.21L228.3 87.3L227.19 89.04L226.64 90.32L226.38 92.02L226.39 93.07L226.04 94.21L225.73 94.95L222.96 97.54L221.94 98.73L219.68 102.19L219.48 102.82L219.53 103.45L220.18 104.04L220.96 104.3L221.79 104.47L238.4 103.93L239.19 103.98L239.96 104.15L240.6 104.47L241.13 104.9L241.58 105.62L242.59 108.14L243.15 108.97L243.71 109.55L244.23 109.9L244.71 110.3L245.12 110.94L245.44 111.77L246.25 115.07L246.58 115.66L247.32 116.7L247.49 117.39L247.44 118.21L246.67 119.47L246.05 120.15L245.51 121.04L245.04 122.36L244.66 124.93L244.03 127.02L243.92 128.25L244.43 129.01L245.69 129.81L246.23 130.26L246.57 130.83L246.59 131.6L246.35 132.49L245.66 133.62L245.24 134.53L245.31 135.82L245.63 136.57L246.03 137.21L246.23 137.77L246.11 138.41L245.24 139.14L244.63 139.86L244.2 140.78L244.01 142.33L243.76 143.4L241.77 145.89L241.41 146.45L240.6 148.74L239.05 155.21L241.44 156.61L242.26 157.41L243.4 158.99L245.19 160.5L245.97 161.01L246.32 161.37L246.49 162.23L246.41 163.34L245.89 165.09L245.36 165.95L244.74 166.51L244.1 166.77L243.53 167.09L243.11 167.6L242.88 168.32L242.57 169.9L242.31 170.6L241.96 171.16L241.55 171.55L241.24 172.02L241.21 172.55L241.36 173.42L241.93 174.93L242.18 175.91L241.99 177.03L240.85 178.76L240.9 180.45L241.37 182.94L242.92 188.41L244.8 191.84L245.27 192.28L245.62 192.8L246.49 193.86L247.01 194.26L247.27 195.61L247.13 197.78L245.63 205.31L245.51 207.12L246.55 208.98L246.78 210L246.82 210.78L245.74 214.5L250.43 215.12L249.4 215.97L249.26 217.24L250.78 218.94L251.75 219.85L252.25 220.13L252.99 220.38L264.12 221.18L265.3 220.78L266.64 220.01L268.94 218.04L269.71 216.84L269.93 215.89L268.78 213.42L268.62 212.75L268.59 212.02L268.76 211.34L269.06 210.73L269.45 210.23L269.93 209.84L270.72 209.52L271.72 209.31H273.53L274.56 209.5L275.33 209.85L276.71 211.16L277.45 212.26L277.91 213.21L278.98 216.06L279.63 217.19L280.37 218.24L281.3 219.21L281.85 219.61L282.46 219.92L283.17 220.1L284.34 219.57L285.77 218.43L288.4 215.4L290.77 212.1L291.5 211.51L292.98 210.89L293.96 210.82L294.89 210.62L295.62 210.1L296.39 208.67L297.13 205.73L297.69 204.4L298.03 203.84L299.35 202.87L302.93 202.17L305.5 202.85H306.24L307.24 202.96L308.77 203.28L311.54 204.94L314.68 208.92L315.23 210.04L315.33 210.82L315.34 211.6L315.19 212.35L314.89 212.98L314.47 213.53L313.03 214.85L312.23 215.87L310.31 219.51L310.11 220.27L310.01 221.03L310.03 221.82L310.14 222.5L310.36 223.18L310.96 224.42L312.31 226.41L312.68 227.12L313.39 229.13L313.65 229.62L313.95 230.03L313.97 230.06L313.99 230.1L322.51 235.62L325.05 236.87L325.67 237.35L326.15 238.01L326.44 239.17L326.63 240.89L326.82 241.59L329.13 246.37L349.05 277.64L350.09 278.24L377.03 288.17L394.27 292.36L395.32 291.29L395.25 290.18L395.02 289.48L394.5 289.07H393.83L393.2 289.19H392.52L392 288.91L391.51 288.56L391.12 288.18L390.8 287.7L390.69 287.02L390.71 286.25L390.84 285.49L390.89 281.83L390.57 281.14L390.11 280.64L389.53 280.29L388.88 280.02L388.19 279.84L387.49 279.74L386.78 279.84L386.19 280.13L385.13 280.83L384.54 280.92L384.04 280.69L382.71 279.32L382.34 278.81L382.22 278.09L382.17 275.95L382.37 275.49L382.96 275.33L383.48 275L383.72 273.89L383.76 272.94L384.19 270.48L384.05 269.64L383.78 268.95L383.4 268.42L383.23 267.84L383.34 267.23L384.12 266.7L385.55 266.67L386.17 266.48L386.61 266.07L386.57 265.27L386.13 264.81L384.9 264.19L384.56 263.64L384.15 262.23L383.78 261.67L383.26 261.28L382.63 261.06L381.95 261.21L381.38 261.73L380.95 262.71L380.32 263.3L379.92 263.28L379.74 262.53L379.8 261.4L381.12 256.66L382.96 252.06L383.65 251.11L384.69 250.86H385.51L386.27 251.07L387.32 251.77L388.01 251.99L390.44 252.22L391.88 252.55H392.61L393.28 252.39L393.96 252.18L395.16 251.63L395.71 251.29L396.21 250.9L398.06 249.09L398.56 248.69L399.15 248.42L399.83 248.2L401.25 247.89L403.56 247.7L404.42 247.77L405.48 247.98L406.7 248.66L408.12 248.79L408.83 248.75L409.6 248.26L410.84 248.31L412.16 247.83L413.06 247.56L414.03 246.21L413.8 244.55L413.02 244.3L411.12 242.99L409.75 241.54L410.6 240.86L413.98 239.83L413.25 234.72L416.48 232.73L414.57 231.19L413.8 230.83V230.01L415.21 229.92L416.59 230.05L417.88 230.37L419.07 230.83L416.91 226.84L409.07 221.71L409.26 218.18L412.2 218.67L414.21 216.85L415.56 213.87L417.17 208.06L417.2 205.79L416.41 203.8L414.62 201.83L418.6 202.07L421.09 199.65L422.36 195.73L422.73 191.47L423.53 187.99L425.48 184.47L429.87 179.13L432.73 179.83L438.71 178.89H440.31L441.06 179.05L441.82 179.77L442.62 180.97L445.79 188.63L446.15 189.33L446.69 189.99L447.75 190.74L448.66 191.03L449.55 191.12L450.23 190.92L450.82 190.62L451.29 190.24L452.28 189.24L453.05 188.29L453.66 187.89L454.7 187.65L468.11 189.93L470.07 190.51L471.56 191.25L471.96 192.79L472.45 196.85L472.44 198.68L472.54 199.65L472.82 200.66L473.54 201.99L474 202.61L475.3 203.84L475.71 204.36L476.04 204.93L477.56 208.81L478.22 209.67L478.93 210.23L479.61 210.47L480.85 211.05L482.29 212.33L482.9 212.61L484.87 212.92L485.47 213.17L486.53 213.79L487.8 214L488.33 214.32L488.78 214.75L489.14 215.31L489.34 216.38L489.38 217.91L487.66 230.01L487.67 230.09L487.701 230.17L487.78 230.4L487.61 231.31L487.09 232.66L485.39 235.18L484.37 236.2L483.43 236.59L482.43 237.26V242.14L530.13 243.68L531.72 242.86L533.25 242.36H534.2L535.28 242.66L540.06 244.5L540.52 244.87L540.92 245.37L541.59 246.52L542.71 247.22L544.51 247.97L548.89 249.03L550.74 249.74L551.91 250.39L553.18 252.74L553.61 253.24L554.1 253.66L556.44 254.94L557.43 255.79L557.82 256.33L558.14 256.9L558.56 258.28L559.67 266.24L559.89 267.01L560.21 267.74L560.84 268.44L561.56 268.75L562.38 268.83L565.44 268.14L566.42 268.01H567.89L568.75 268.28L569.36 268.72L569.67 269.31L569.94 270.86L570.38 271.67L571.15 272.45L573.76 273.94L574.4 274.57L575.01 275.96L575.49 276.7L576.42 277.5L577.25 277.82L578.07 277.86L578.79 277.72L580.21 277.15L581.08 276.9L582.39 276.77L583.18 276.98L583.8 277.37L584.88 278.58L585.84 279.36L586.73 279.61L587.54 279.62L588.32 279.48L589.01 279.26L590.16 279.23L591.64 279.3L594.53 279.95L596.08 280.09L597.26 280.08L599.54 279.48L600.6 279.38L602.24 279.4L604.32 279.9L604.78 280.15L605.11 280.42L606.4 281.93L607.09 282.54L607.8 282.74L608.49 282.65L610.54 281.84L611.79 281.5L613.72 281.17L613.01 279.17L611.71 278.05L613.09 273.3L614.39 271.48L616.62 270.74L620.55 270.67L622.29 270.17L623.39 269.02L621.32 268.42L621.73 267.28L624.2 265.33L627.55 259.98L628.3 259.09L629.93 259.57L631.23 260.19L632.09 259.68L632.4 256.79L631.79 255.02L630.33 253.46L628.52 252.53L626.88 252.68L626.66 252.2L626.68 252.04L626.6 251.97L626.07 251.78L626.8 250.91L627.12 250.4L627.57 250.11L628.75 249.97V248.99L626.25 246.9L622.33 242.27L620.22 240.41L618.17 237.2L619.18 234.89L621.96 233.19L625.18 231.82L626.93 231.54L628.83 231.48L630.24 230.92L630.53 229.11L629.53 227.67L627.57 226.5L625.41 225.7L620.76 224.56L619.79 222.37L620.25 219.45L621.52 216.37L622.78 218.37L624.23 219.97L625.24 219.76L625.18 216.37L624.3 214.32L622.76 214.31L620.64 215.11L617.96 215.47L618.21 214.99L618.28 214.91H618.43L618.93 214.65L617.1 212.61L618.7 208.18L616.62 207.33L612.69 207.57L611.71 207.33L611.16 206.32L610.9 204.8L610.48 203.42L609.47 202.81L608.06 202.52L605.39 201.22L600.03 200.1L596.53 197.77L592.96 194.67L592.24 195.29L591.47 195.41L590.54 195.38L589.31 195.5L587.29 196.12L584.85 197.39L584.04 198.42L583.95 199.37L583.62 199.78L582.09 199.2L581.64 198.67L581.05 197.65L580.54 196.48L580.3 195.5L580.58 193.37L581.21 191.96L581.64 190.51L581.28 188.26L580.91 187.73L580.36 187.34L579.83 186.73L579.49 185.55L579.54 184.46L579.83 183.57L580.15 182.87L580.3 182.38L580.46 181.09L581.12 179.73L581.28 178.68L581 177.7L579.77 175.55L579.12 171.21L578.08 169.38L574.54 166.02L573.71 164.92L573.3 163.97L573.17 162.9V161.49L572.85 160.03L572.07 159.24L571.06 158.69L570.05 157.91L564.24 150.09L562.64 149.42L562.63 149.43L559.08 147.95L557.07 147.41L556.68 149.5L556.71 151.67L556.27 152.87L554.48 152.01L553.6 150.57L552.48 146.22L551.31 144.28L548.14 143.52L543.46 143.75L539.21 143.32L537.35 140.57L537.65 138.14L538.93 134.71L539.22 132.43L538.91 131.78L538.13 131.37L537.11 131.17H534.73L534.32 131.42L534.21 131.94L533.8 132.84L533.16 134.66L533.1 136.45L532.61 137.82L530.71 138.36L529.19 137.81L527.31 134.99L525.83 133.75L524.14 135.51L522.6 136.33L520.98 136.55L519.06 136.54L519.2 136.88L518.74 137.67L517.88 138.56L516.83 139.26L515.76 139.73L515.66 139.63L515.7 139.11L515.04 138.36L513.27 137.63L512.57 137.07L512.29 136.05L512.1 134.66L511.61 133.79L510.1 132.43L509.36 131.48L508.93 130.77L508.27 130.3L506.93 130.12L505.62 130.28L505.16 130.73L505.38 131.34L506.12 132.02L504.14 132.39L502.41 129.61L500.68 130.12L500.3 129.06L500.05 128.54L498.89 127.49V126.5L500.16 126.59L501.27 126.43L503.36 125.68L502.12 123.45L501.48 120.44L500.41 118.44L497.92 119.25L497.04 116.53L495.18 114.87L492.59 114.04L489.53 113.82L488.44 113.54L487.99 112.91L487.4 112.29L485.91 112.01L484.91 112.61L484.22 113.81L483.48 114.67L482.35 114.27L478.5 110.68L478.34 109.18L480.22 103.73L479.97 102.89L478.55 99.79L477.08 97.86L476.5 96.52L479.27 96.42L479.76 94.63L478.86 92.19L477.4 90.17L475.81 89.15L474.09 88.32L472.69 87.05L472.03 84.65L470.73 85.76L469.2 86.43L467.75 86.21L466.68 84.65L468.46 83.83L467.61 83.56L466.86 83.2L466 82.93L464.9 82.92L466.09 81.82L469.15 80.75L468.91 79.71L465.61 77.52L464.82 76.17L465.71 73.77L462.21 73.92L462.28 72.47L463.4 70.07L463.03 67.34L462.65 68.22L462.05 69.08L461.28 69.76L460.35 70.07L458.76 69.92L458.61 69.33L459.11 68.56L459.45 67.84V60.54L458.49 58.56L458.39 58.5L456.33 57.14L454.19 56.96L453.22 58.72L452.05 58.86L445.62 55.05L443.54 55.62L437.49 54.72L435.29 54.64L434.31 55.26L433.65 56.18L432.82 57L431.31 57.36L429.81 57.41L429.13 57.29L428.55 56.91L427.88 56.61L427.39 57.12L426.9 57.87L426.28 58.27L423.64 58.17L421.44 57.63L419.65 56.7L418.25 55.46L417.84 54.66L417.4 53.47L416.83 52.39L416.05 51.92L414.84 51.86L413.94 51.7L412.08 51.02L411.93 48.71L410.34 45.35L408.04 42.35L405.75 41.03L402.21 39.68L399.33 37.79L397.67 37.2L396.41 37.25L392.78 38.18L385.49 38.9L368.66 42.62L359.28 47.6L357.29 49.06L355.78 51.29L355.24 53.71L355.8 60.99L354.27 62.14L348.18 60L346.64 61.21L346.18 64.53L345.27 67.36L343.72 69.9L341.26 72.33L329.57 72.41L319.69 68.88L317.94 67.78L315.36 64.63L313.95 63.68L311.97 64.09L311.53 59.16L311.88 57.36L313.49 55.57L313.81 55.78L314.43 56.33L315.32 56.67L316.39 56.27L316.67 55.57L316.49 54.7L316.17 53.91L316.11 53.45L319.3 49.88L317.36 48.29L317.76 45.85L319.73 41.73L317.6 39.21L317.15 37.93L317.43 36.79L318.83 34.39L319.05 33.6L318.46 32.3L317.7 31.83L316.65 31.87L315.15 32.1L314.26 31.84L313.51 31.05L312.82 30.11L312.14 29.43L310.97 29.28L309.87 29.58L309.18 29.25L309.23 27.25L309.84 26.17L312.24 24.22L313.09 23.11L313.27 21.54L312.9 19.94L312.14 18.09L313.18 16.9L314.61 16.25L315.92 15.46L316.61 13.89L316.17 12.83L314.99 11.83L313.57 11.06L311.1 10.16L310.73 9.1L311.38 3.61L311.2 1.76L309.88 1Z" fill="#CCCCCC" stroke="white" stroke-width="0.5"/>
</svg>
