<svg width="801" height="831" viewBox="0 0 801 831" fill="none" xmlns="http://www.w3.org/2000/svg">
<path d="M558.96 409.24H558.87L555.63 416.5L551.04 432.14L539.32 455.71L536.23 460.43L531.81 465.6L526.64 469.86L521.23 471.87L518.4 473.39L515.98 479.79L513.06 482.22L515.26 485.4L515.71 490.26L514.84 495.31L513.09 499.11L510.02 501.18L502.12 502.07L498.73 503.23L496.26 506.56L497.84 508.98L500.24 510.87L500.19 512.65L496.6 517.27L495.5 521.79L496.55 523.86L499.42 521.18L502.37 523.87L503.92 526.93L503.49 530.55L554.39 559.08L565.55 563.95L578.08 548.72L578.72 548.16L580.06 547.75L581.96 547.52L588.17 547.9L589.96 548.25L591.47 548.84L597.46 552.48L599.72 554.22L602.45 556.97L606.2 562.42L609.19 567.9L610.28 570.94L611.03 573.81L611.17 575.17L611.1 577.27L610.95 577.98L610.73 578.65L610.37 579.29L609.85 579.87L609.19 580.32L608.46 580.68L605.2 581.52L603.56 581.74L597.21 581.91L596.35 582.02L594.9 582.35L594.15 582.61L593.44 583.01L592.84 583.54L592.37 584.21L592.04 584.89L591.83 585.63L591.54 587.74L591.33 588.41L591.04 589.08L586.95 594.86L586.11 596.34L585.78 597.1L585.55 597.91L585.56 598.84L585.78 599.9L586.59 601.5L587.37 602.27L588.19 602.77L591.22 603.43L593.97 604.38L594.96 605.05L595.62 605.76L595.93 606.46L596.04 607.22L596.03 607.98L595.67 610.04L595.66 610.05L602.49 612.67L624 612.38L649.6 609.58L662.22 607.05L794.98 601.54H795.01L793.04 599.64L794.31 599.7L798.18 599.47L795.55 596.05L794.61 592.33L795.94 589.97L800.04 590.65L797.59 587.48L793.43 579.11L790.88 573.97L787.27 558.58L787.46 551.38L788.73 543.1L787.85 536.29L781.59 533.56L780.99 539.38L780.02 542.6L778.5 544.1L776.65 542.93L775.69 540.17L774.37 537.61L771.34 537.06L771.99 533.76L770.54 534.35L768.12 536.39L765.86 537.49L764.47 536.73L761.89 533.47L760.38 532.2L761.97 530.16L760.98 528.88L756.76 527.03L756.22 526.92L752.2 524.71L751.91 523.99L748.44 523.46L745.56 521.15L743.43 518.67L742.17 517.65L740.01 520.24L737.73 524.13L735 525.53L731.53 520.65L729.15 518.3L721.44 514.26L718.9 511.06L718.7 509.64L718.84 504.06L719.27 503.15L721.06 502.16L721.47 501.12L721.03 499.87L720.03 499.36L718.98 499.04L718.35 498.34L717.72 493.87L716.94 492.07L715.05 490.32L713.29 490.2L710.85 490.86L708.97 491.86L708.89 492.78L706.76 490.05L706.24 486.08L706.72 481.62L707.63 477.5L710.21 469.92L709.73 467.27L706.7 463.55L698.02 456.56L697.35 455.62L696.83 453.33L696.5 452.68L695.29 452.28L694.38 452.53L693.54 452.88L692.49 452.74L679.9 449.74L676.71 447.57L673.33 446.78L668.04 446.91L658.96 448.17L656.68 449.11L652.32 451.54L649.64 452.2L646.47 452.24L644.81 451.68L643.51 450.7L641.39 449.46L639.07 448.6L623.94 445.15L622.16 444.51L621.87 443.69V442.34L621.65 440.73L620.67 439.14L619.25 438.36L618.43 438.97L617.78 439.87L616.83 439.97L614.76 438.1L612.88 435.94L610.86 435.13L608.32 437.29L606.25 436.38L603.86 436.31L601.47 437.22L599.37 439.27L597.05 436.92L597.74 435.72L599.53 434.72L600.51 432.94L600.06 431.43L598.31 427.84L597.95 425.98L598.96 422.73L600.41 421.48L600.68 420.35L598.11 417.42L591.98 414.14L589.72 411.2L588.49 410.37L587.54 412.03L586.65 415.66L585.12 419.31L582.69 421.32L579.09 420.1L573.29 412.31L571.11 410.38L568.85 409.72L564.16 409.86L562.26 409.45L558.96 409.24Z" fill="#CCCCCC" stroke="white" stroke-width="0.5"/>
<path d="M466.379 472.4L466.659 472.3L466.939 471.98L467.749 470.68L468.149 470.2L468.369 469.57L468.619 467.31L468.909 466.71L469.289 466.34L471.879 465.43L472.339 465.12L472.469 464.97L472.539 464.57L472.529 463.96L472.279 461.77L472.069 460.82L472.009 460.21L472.029 459.77L471.949 458.84L471.309 454.9L471.269 453.72L471.519 452.88L472.529 452.04L472.209 451.37L471.019 450.52L467.349 448.78L462.699 447.59L462.079 447.36L460.139 444.84L456.379 436.31L415.199 436.51L412.449 438.33L411.039 438.91L408.099 439.77L406.629 440.47L405.709 440.79L397.899 442.44L397.069 442.81L396.309 443.33L395.409 444.15L394.899 444.87L394.519 445.57L394.399 446.24L394.449 446.91L394.629 447.59L395.139 448.95L395.349 449.64L395.469 450.31L395.479 451.65L395.259 452.99L393.889 457.99L393.759 459.41L393.829 462.38L395.769 472.59L395.389 473.53L394.539 474.81L388.519 480.33L387.359 481.72L383.119 488.54L382.009 489.93L381.199 490.25L380.429 490.14L379.819 489.64L379.289 489.03L378.329 487.73L377.719 487.23L377.009 486.91L375.649 486.61L372.859 486.37L370.599 486.5L368.499 486.89L367.329 487.46L366.419 488.19L365.909 489.01L365.499 489.82L365.259 490.64L365.159 491.42L365.299 493.13L365.199 494.12L364.709 495.4L364.029 496.08L359.069 498.01L357.939 498.83L357.219 499.71L357.039 500.5L356.979 501.29L357.209 502.71L357.399 503.39L357.519 504.07L357.489 505.36L357.379 506.01V506.04L354.999 513.54L354.929 514.29L354.939 514.97L355.549 517L355.559 517.76L355.329 518.56L354.299 520.36L354.029 521.11L354.009 521.76L354.389 523.16L356.129 526.67L356.239 527.38L356.149 528.07L355.919 528.74L349.559 538.88L348.959 540.33L348.329 542.77L348.269 543.53L348.289 544.23L348.619 545.64L350.329 549.33L350.759 550.7L350.849 551.35L350.859 552.6L350.799 553.14L350.629 553.62L349.409 556.03L349.119 556.8L348.979 557.6V558.36L349.069 559.23L349.299 559.97L349.609 560.7L350.949 562.83L351.599 564.33L352.909 570.36L352.969 571.3L352.879 572.46L352.379 574.34L351.729 575.44L347.209 579.72L346.319 581.01L345.779 582.17L345.439 583.43L344.769 584.13L343.849 584.65L342.609 585.15L341.869 585.82L341.499 586.51L341.359 587.29V588.2V588.25L348.459 595.08L367.939 606.46L371.119 611.14L370.659 613.02L368.339 615.94L368.589 617.84L369.769 617.76L375.279 618.88L375.849 619.18L378.719 619.9L382.139 621.67L385.309 623.87L387.379 625.87L389.119 629.35L391.189 636.47L392.579 639.39L402.849 649.04H402.889L403.159 649.01L403.579 648.58L403.689 648.29L403.629 647.99L403.219 647.47L401.509 646.16L401.239 645.89L400.999 645.58L400.879 645.26L400.699 644.49L400.609 643.35L400.639 642.77L400.699 642.38L400.999 641.97L401.459 641.6L404.319 640.72L404.959 640.43L405.389 640.15L405.699 639.91L407.039 638.66L407.569 638.36L408.649 637.9L409.169 637.29L409.609 636.37L410.169 634.42L410.579 633.49L411.079 632.88L412.179 632.52L412.879 632.41L413.689 632.36L414.199 632.44L414.549 632.42L414.859 632.3L415.639 631.51L421.109 624.27L421.869 622.61L422.729 619.32L422.979 617.63L423.039 616.6L419.039 598.67L417.989 595.68L416.569 593.27L415.419 590.72L414.719 587.9L418.779 583.52L424.139 580.42L429.719 574.91L432.849 572.58L438.269 570.36L440.009 569.41L446.009 564.77L448.469 563.78L452.669 563.09L454.549 562.41L456.069 560.95L456.859 558.78L457.369 553.33L457.929 550.85L460.299 546.06L463.499 541.97L467.639 539.05L468.509 534.47L468.709 532.87L468.879 532.44L470.499 529.83L470.549 529.2L470.349 528.34L469.439 526.79L467.399 524.05L466.819 522.71L466.699 521.8L466.849 520.88L467.559 519.29L468.969 518.11L469.379 517.94L469.649 517.65L469.589 517.33L468.999 516.71L468.559 516.36L468.179 515.96L467.499 515.08L467.009 514.27L466.499 513.64L466.159 513.38L465.789 513.2L465.379 513.1L465.049 512.94L464.769 512.78L464.659 512.27L464.739 511.56L465.439 509.09L465.669 508.58L465.829 508.39L466.079 508.31H466.499L468.019 508.52L468.559 508.46L469.079 508.31L469.719 507.96L470.239 507.58L470.949 506.88L471.209 506.52V506.17L471.019 505.86L467.839 503.35L466.939 502.39L466.559 501.87V501.61L466.669 501.28L467.079 500.58L470.289 496.66L470.489 496.35L470.739 495.88L470.609 495.33L470.259 494.48L468.619 491.72L468.139 491.13L467.049 490.61L466.449 490.11L466.319 489.94V489.58L466.409 489.03L467.169 486.67L467.229 486.21L467.089 483.53L466.929 482.92L466.539 482.29L465.579 481.35L461.539 478.64L461.189 478.29L460.979 477.83L461.129 477.45L461.819 476.98L462.789 476.5L462.999 476.32L463.109 476.08L463.289 475.1L463.539 474.92L463.859 474.75L464.159 474.29L464.279 473.49V471.89L464.379 471.03L464.569 470.62L464.969 470.59L465.259 470.82L465.679 471.29L465.939 471.99L466.159 472.3L466.379 472.4Z" fill="#CCCCCC" stroke="white" stroke-width="0.5"/>
<path d="M568.979 174.02L545.719 172.81L544.169 176.74L539.059 182.98L537.709 187.06L537.229 193.87L536.949 194.99L535.799 197.03L535.439 198.16L535.659 199.38L536.449 199.74L537.329 199.99L537.849 200.89L538.069 205.48L537.309 209.39L535.369 212.96L532.059 216.53L526.609 219.82L525.439 220.79L524.749 222.62L524.449 226.64L523.719 228.39L522.059 229.9L518.869 230.83L517.039 232L513.489 236.41L511.729 239.13L510.799 241.25L511.209 244.6L512.649 248.15L513.539 251.88L512.269 255.79L510.119 257.05L501.659 260.29L499.079 260.6L495.369 254.68L492.869 253.14L491.819 257.77L489.759 256.84L488.859 257.13L488.219 260.21L487.349 260.31L483.019 261.6L481.449 262.51L478.099 262.23L475.399 263.72L472.939 265.96L470.239 267.93L467.639 268.74L464.899 269.21L463.799 269.58L463.089 271.39L456.689 292.8L453.209 297.65L452.789 300.61L452.719 302.6L451.819 305.01L451.589 306.77L451.519 309.45L451.479 309.54L451.089 310.15L447.809 313.5L447.849 314.33L449.069 315.66L450.159 317.28L450.939 317.8L452.709 318.7L453.349 319.55L453.849 320.64L454.309 322.15L454.959 323.11L455.659 323.87L456.179 324.71L456.759 326.86L457.259 327.65L458.119 327.97L458.739 328.09L459.589 328.15L459.969 328.32L460.489 328.67L461.469 330.34L463.089 332.03L463.119 333.52L462.039 339.11L461.869 341.21L462.049 343.13L462.939 347.19L462.769 348.56L462.189 349.5L460.739 350.75L460.089 351.43L459.299 352.12L458.539 352.88L457.869 353.86L457.999 354.82L458.609 355.57L459.259 356.83L459.299 357.9L458.899 358.75L457.459 360L457.019 360.92L456.659 361.88L456.159 362.86L454.859 364.75L454.849 365.69L455.219 366.92L454.499 369.81L453.999 371.02L453.349 372.06L451.839 373.83V374.85L453.229 377.21L453.289 378.56L452.219 381.75L451.339 382.67L450.469 383.07L448.509 383.03L457.379 385.87L459.659 386.32L460.739 385.86L461.199 385.54L462.899 384.91L464.349 385.13L465.219 385.45L466.379 386.29L466.719 386.87L466.789 387.38L466.299 388.74L465.889 390.41L465.829 390.77L465.729 391.15L465.259 392.17L464.989 392.49L464.599 392.79L461.929 393.78L461.459 394.05L461.159 394.3L459.009 396.93L458.679 397.53L458.019 399.3L457.079 404.86L456.819 405.87L455.159 409.11L455.049 409.56L455.119 409.96L455.329 410.11L455.719 410.26L456.119 410.28L456.549 410.2L457.619 409.82L458.029 409.86L458.579 410.14L459.379 410.73L459.639 411.48L459.659 412.13L458.669 416.88L457.219 421.13L456.969 422.26L456.899 423.52L457.129 426.67L457.109 427.49L456.619 430.52L456.379 436.31L460.139 444.84L462.079 447.36L462.699 447.59L467.349 448.78L471.019 450.52L472.209 451.37L472.529 452.04L471.519 452.88L471.269 453.72L471.309 454.9L471.949 458.84L472.029 459.77L472.009 460.21L472.069 460.82L472.279 461.77L472.529 463.96L472.539 464.57L472.469 464.97L472.339 465.12L471.879 465.43L469.289 466.34L468.909 466.71L468.619 467.31L468.369 469.57L468.149 470.2L467.749 470.68L466.939 471.98L466.659 472.3L466.379 472.4L466.159 472.3L465.939 471.99L465.679 471.29L465.259 470.82L464.969 470.59L464.569 470.62L464.379 471.03L464.279 471.89V473.49L464.159 474.29L463.859 474.75L463.539 474.92L463.289 475.1L463.109 476.08L462.999 476.32L462.789 476.5L461.819 476.98L461.129 477.45L460.979 477.83L461.189 478.29L461.539 478.64L465.579 481.35L466.539 482.29L466.929 482.92L467.089 483.53L467.229 486.21L467.169 486.67L466.409 489.03L466.319 489.58V489.94L466.449 490.11L467.049 490.61L468.139 491.13L468.619 491.72L470.259 494.48L470.609 495.33L470.739 495.88L470.489 496.35L470.289 496.66L467.079 500.58L466.669 501.28L466.559 501.61V501.87L466.939 502.39L467.839 503.35L471.019 505.86L471.209 506.17V506.52L470.949 506.88L470.239 507.58L469.719 507.96L469.079 508.31L468.559 508.46L468.019 508.52L466.499 508.31H466.079L465.829 508.39L465.669 508.58L465.439 509.09L464.739 511.56L464.659 512.27L464.769 512.78L465.049 512.94L465.379 513.1L465.789 513.2L466.159 513.38L466.499 513.64L467.009 514.27L467.499 515.08L468.179 515.96L468.559 516.36L468.999 516.71L469.589 517.33L469.649 517.65L469.379 517.94L468.969 518.11L467.559 519.29L466.849 520.88L466.699 521.8L466.819 522.71L467.399 524.05L469.439 526.79L470.349 528.34L470.549 529.2L470.499 529.83L468.879 532.44L468.709 532.87L468.509 534.47L467.639 539.05L472.829 537.81L495.459 538.34L498.609 536.8L500.529 534.96L503.489 530.55L503.919 526.93L502.369 523.87L499.419 521.18L496.549 523.86L495.499 521.79L496.599 517.27L500.189 512.65L500.239 510.87L497.839 508.98L496.259 506.56L498.729 503.23L502.119 502.07L510.019 501.18L513.089 499.11L514.839 495.31L515.709 490.26L515.259 485.4L513.059 482.22L515.979 479.79L518.399 473.39L521.229 471.87L526.639 469.86L531.809 465.6L536.229 460.43L539.319 455.71L551.039 432.14L555.629 416.5L558.869 409.24H558.959L563.769 403.14L564.699 402.71L567.049 402.32L567.939 401.77L568.359 400.93L569.239 398.19L569.019 397.89L569.239 397.82L572.489 396.01L572.939 396.03L575.589 392.83L589.699 381.61L593.539 377.3L611.089 357.64L613.879 353.33L616.319 347.63L617.949 341.72L618.279 338.97L618.129 336.31L617.179 335.16L615.579 334.09L614.619 332.62L617.119 327.19L617.299 324.11L617.059 320.88L617.299 317.39L618.359 315.7L622.339 312.59L623.809 310.74L624.299 306L620.959 287.24L620.689 282.44L620.149 280.61L618.949 278.57L616.079 275.66L615.389 274.43L615.229 273.17L615.639 270.68L615.539 269.38L614.749 267.83L612.409 264.89L611.499 263.33L609.959 257.23L608.699 254.64L605.369 249.89L604.079 247.54L603.029 243.72L600.669 224.63L596.669 210.72L593.149 203.79L584.989 199.68L579.089 195.9L572.809 191.25L569.159 186.79L567.929 181.4L568.979 174.02Z" fill="#CCCCCC" stroke="white" stroke-width="0.5"/>
<path d="M338.948 377.95L342.908 369.25L343.908 366.26L343.948 365.14L343.858 363.79L343.538 361.85L343.138 360.53L342.668 359.41L342.138 358.51L341.488 357.64L340.128 356.25L337.528 354.21L334.268 352.13L332.738 351.39L331.148 350.85L329.268 350.41L328.488 350.35L327.698 350.44L326.988 350.75L326.168 351.3L324.828 352.7L323.838 354.09L323.438 354.82L323.138 355.64L322.898 356.56L322.748 357.52L322.738 359.27L323.268 363.82L323.208 364.61L322.978 365.39L322.468 366.14L319.608 368.82L319.118 369.55L318.418 371.01L317.828 372.61L317.468 374.1L317.148 377L316.648 379.3L316.368 380.02L315.688 380.81L314.578 381.65L312.328 382.67L310.998 382.89L309.958 382.81L309.278 382.4L308.588 381.88L307.178 380.34L303.808 375.69L303.138 375.06L301.718 374.05L300.988 373.66L296.598 372.2L288.338 370.22L286.578 370.07L285.848 370.22L283.658 371.08L279.198 373.52L276.558 374.28L274.978 374.44L273.418 374.28L249.328 366.26L247.688 365.36L245.988 364.22L244.358 362.86L241.058 359.45L240.088 358.66L238.718 357.78L236.068 356.39L234.488 355.81L233.258 355.49L230.228 355.66L226.058 356.24L219.568 356.33L220.228 361.2L219.808 363.03L209.998 381.99L209.278 383.77L208.908 385.05L209.118 386.48L209.608 387.95L209.958 388.64L212.278 391.61L213.138 393.13L213.738 394.71L214.188 396.34L214.898 400.78L215.178 412.27L214.808 415.24L214.348 417.23L213.728 417.99L212.268 419.28L211.418 419.79L210.518 420.2L203.718 422.44L203.018 422.82L202.118 423.87L201.058 425.47L197.828 431.71L196.558 433.07L195.828 433.62L194.198 434.55L185.198 437.99L183.668 438.77L177.378 443.6L175.758 444.3L173.468 445.06L172.598 445.49L171.658 446.11L170.208 447.38L169.478 448.28L168.938 449.18L164.908 462.45L164.898 462.47L200.068 471.2L206.288 473.72L211.698 477.02L214.668 480.68L213.208 476.17L208.758 472.46L198.658 467.27V465.79L202.418 466.02L205.648 467.36L211.998 471.29L214.928 473.58L217.388 476.24L217.578 476.39L217.588 476.35L217.668 476.09L219.628 472.25L219.888 471.25L220.518 469.96L221.908 467.95L222.168 466.93L221.938 466.02L221.208 464.14L221.138 462.99L221.848 457.18L222.208 456.2L222.628 455.37L225.568 451.72L226.478 449.65L227.148 449.06L228.318 448.66L229.288 448.13L229.958 446.94L230.008 445.79L229.648 444.8L228.998 444.13L228.578 443.39L228.508 442.6L228.538 441.72L228.388 440.87L228.438 440.08L229.138 439.56L231.088 438.85L233.238 437.66L236.598 434.53L237.818 432.6L238.478 431.01L238.468 429.85L237.568 426.88L237.418 425.79L237.548 424.73L237.968 423.83L244.038 417.32L244.878 415.15L245.808 413.46L246.368 411.39L247.108 409.61V408.69L246.578 408.03L244.888 407.13L244.498 406.28L244.168 404.45L243.518 403.95L242.768 403.69L242.168 403.17L241.748 401.74L242.628 401.13L244.268 400.24L251.278 398.89L254.448 397.74L256.548 398.42L257.328 398.79L257.438 399.21L257.368 399.68L257.108 400.27L256.958 401.02L257.028 401.84L257.398 402.66L257.938 403.26L259.348 404.14L259.838 404.59L260.178 405.06L260.448 405.56L260.828 406.05L261.328 406.4L264.338 407.36L265.068 407.8L265.658 408.32L266.788 409.7L267.448 410.25L268.608 410.57L270.158 410.64L272.968 410.22L274.518 409.73L276.078 408.5L276.998 407.64L277.698 406.66L279.338 405.06L279.938 404.83L283.098 405.34L285.558 404.88L288.378 404.97L293.738 406.58L295.278 406.84L296.808 406.86L298.188 406.25L299.998 405.09L305.168 400.44L306.978 398.38L307.948 397.63L309.038 397.14L310.688 396.93L311.738 397.02L312.708 397.3L316.498 399.34L317.198 399.62L317.928 399.8L318.638 399.86L319.388 399.82L320.168 399.66L324.338 395.62L338.948 377.95Z" fill="#CCCCCC" stroke="white" stroke-width="0.5"/>
<path d="M209.96 353.47L201.5 352.97L199.15 352.18L197.16 350.65L196.52 348.99L190.42 341.76L186.58 343.32L181.21 343.93L179.91 344.66L179.52 346.48L179.63 349.19L179.37 351.65L177.85 352.71L177.13 353.73L177.42 356.05L178.46 360.16L177.76 361.9L174.42 365.85L173.25 367.6L173.48 367.68L173.25 371.51L172.97 372.65L172.22 374.53L171.91 375.65L171.7 377.77L171.91 384.38L172.72 385.85L177.85 391.09L179.58 393.49L179.57 394.84L177.25 397.13L172.73 400.64L170.49 401.11L167.22 399.59L166.62 398.93L165.93 398.32L158.04 393.22L156.25 392.42L155.25 392.26L154.15 392.43L152.76 392.92L151.01 394.05L149.23 395.45L146.16 398.35L143.28 400.5L142.57 400.78L137.94 401.66L135.53 402.48L133.42 403.78L132.42 404.82L131.84 405.84L131.66 407.04L131.58 408.95L131.7 410.52L131.99 412.06L133.86 417.47L134.27 419.12L134.02 421.51L131.85 426.86L131.77 426.98L131.75 427.02L132.97 429.47L134.53 428.22L136.14 427.23L138.18 426.66H140.97L136.49 431.13L134.53 435.53L135.17 440.26L138.43 445.68L136.34 445.16L134.92 444.4L133.9 443.27L132.97 441.66L131.5 445L135.32 448.51L160.49 461.37L164.9 462.47L164.91 462.45L168.94 449.18L169.48 448.28L170.21 447.38L171.66 446.11L172.6 445.49L173.47 445.06L175.76 444.3L177.38 443.6L183.67 438.77L185.2 437.99L194.2 434.55L195.83 433.62L196.56 433.07L197.83 431.71L201.06 425.47L202.12 423.87L203.02 422.82L203.72 422.44L210.52 420.2L211.42 419.79L212.27 419.28L213.73 417.99L214.35 417.23L214.81 415.24L215.18 412.27L214.9 400.78L214.19 396.34L213.74 394.71L213.14 393.13L212.28 391.61L209.96 388.64L209.61 387.95L209.12 386.48L208.91 385.05L209.28 383.77L210 381.99L219.81 363.03L220.23 361.2L219.57 356.33L216.36 353.63L214.36 353.02L213.44 353.08L211.82 353.35L209.96 353.47Z" fill="#CCCCCC" stroke="white" stroke-width="0.5"/>
<path d="M330.142 1L330.252 3.43L329.312 5.12L327.912 6.57L326.572 8.29L326.582 9.87L327.232 11.39L326.972 12.68L322.132 14.11L318.602 15.95L316.852 16.47L315.902 15.19L314.992 14.29L314.092 13.84L311.332 14.58L310.362 14.72L306.562 14.77L303.282 15.21L300.152 16.21L296.842 17.95L289.212 23.92L281.362 28.59L277.202 29.28L274.602 28.39L273.752 25.77L275.722 16.5L274.392 13.62L271.462 11.92L260.352 9.12L257.052 9.05L253.742 10.05L247.142 16.56L243.872 18.44L242.332 15.15L238.322 16.69L236.272 17.05L234.142 16.95L234.012 27.15L228.002 51.35L224.562 58.86L224.172 63.3L225.592 68.87L227.132 72.79L226.582 76.45L221.782 81.14L217.992 83.34L214.162 84.54L210.152 85.1L194.402 85.18L190.502 85.78L185.912 88.06L183.032 91.65L178.502 100.1L176.422 102.08L171.482 104.83L169.722 106.28L168.922 108.13L178.972 116.85L198.552 111.72L209.422 121.97L244.952 132.93L250.022 125.63L268.152 151.25L299.322 143.93L348.622 164.42L350.802 177.59L321.802 244.86L325.722 267.85L331.512 270.51L334.272 271.27L341.342 272.22L342.662 272.18L344.502 271.76L346.142 270.98L349.472 268.67L351.162 267.85V269.07L353.872 267.6L356.372 264.88L357.642 261.91L356.622 259.66L357.732 257.22L359.202 255.06L361.192 253.53L366.572 252.52L370.362 250.67L374.732 249.68L377.832 248.28L385.362 243.19L390.072 238.16L389.802 237.44L389.692 236.75L389.412 236.09L389.402 236.07L388.702 235.51L390.842 233.67L392.062 231.66L392.572 229.34L392.692 226.66L393.482 224.2L395.342 222.31L399.362 219.26L403.792 212.62L405.452 208.42L404.712 205.69L408.202 201.6L409.602 199.37L410.552 194.11L411.682 191.14L413.362 188.59L415.492 186.98L411.352 182.16L411.052 175.53L412.972 168.51L415.102 163.44L412.702 160.36L410.122 157.04L408.422 153.68L403.352 147.18L398.862 138.94L396.952 130.74L397.422 122.41L399.952 113.85L400.212 113.24L401.612 111.42L402.052 109.45L401.692 107.4L400.692 105.29L398.412 102.59L396.342 102.36L394.272 104L391.912 106.88L392.202 104.61L394.332 101.04L394.732 99L391.172 84.7L391.162 82.43L390.512 80.08L388.572 79.04L383.832 78.08L381.002 75.98L380.652 70.69L381.912 65.07L383.832 61.95L384.772 61.08L385.092 60.18L384.782 59.3L383.832 58.44L382.732 56.47L381.982 54.29L380.992 52.21L379.192 50.51L381.322 48.31L382.532 47.33L383.832 46.61L384.642 46.26L387.052 44.81L386.032 44.28L384.642 42.78L381.212 40.3L371.422 36.16L368.912 32.65L367.322 31.5L365.922 33.08L364.982 34.38L363.542 35.09L361.872 35.3L360.302 35.12L356.932 35.21L354.002 35.88L352.272 35.32L352.532 31.75L354.372 29.24L356.932 27.45L358.542 25.08L357.492 20.86L354.952 18.28L351.052 16.47L347.192 16.43L344.802 19.18L344.322 23.25L344.282 26.1L343.512 26.62L340.822 23.69L338.792 20.22L337.892 16.7L336.642 7.45L335.522 4.05L333.462 1.47L330.142 1Z" fill="#CCCCCC" stroke="white" stroke-width="0.5"/>
<path d="M133.43 207.22L132.83 207.04L132.2 206.69L131.64 205.33L130.78 204.74L130.12 204.42L123.13 202.82L120.54 202.49L118.47 205.02L116.3 206.73L113.71 207.85L106.28 209.57L98.3 214.07L69.32 237.09L65.82 241.58L53.12 257.92L51.44 259.52L35.36 266.8L32.04 267.49L25.24 278.18L21.71 281.46L21.11 282.2L21.62 284.25L24.39 288.79L25.03 291.26L24.64 292.98L23.6 294.05L22.15 294.57L17.89 295.05L17.26 296.36L17.97 300.33L17.53 303.27L16.32 307L14.46 310.23L9.11 313.29L8.29 316.63L8.7 321.61L7.19 322.51L1 325.37L5.96 332.46L7.86 334.45L11.15 337.19L15.02 339.6L18.69 340.64L19.4 341.62L22.07 346.62L22 349.2L21.75 351.04L20.62 355.41L20.79 363.24L25.02 368.29L48.48 378.72L78.93 389.65V389.63L78.34 387.26L78.02 384.75L78.27 383.27L78.89 381.68L80.43 379.35L81.49 378.16L82.47 377.31L83.31 376.76L85.23 375.97L87.28 375.49L88.03 374.74L88.44 373.48L88.7 371.04L89.27 369.22L90.57 367.12L91.54 366.08L92.51 365.35L93.25 364.9L93.96 364.67L94.63 364.6L95.53 364.76L97.15 365.36L97.88 365.18L98.34 364.72L98.63 364.26L99.11 362.97L100.67 356.79L100.9 352.88L101.38 349.83L100.83 347.56L100.2 346.43L98.17 344.23L97.91 343.11L98.06 341.61L100.68 336.05L105.73 322.12L105.93 320.5L105.63 318.5L105.73 316.79L106.58 313.02L105.88 310.87L104.45 309.5L104.43 309.4L105 308.46L106.39 307.51L107.63 307.01L110.17 306.55L111.46 305.58L112.77 304L114.93 300.58L116.8 298.32L117.84 297.76L118.5 297.25L119.75 295.91L120.47 295.3L121.39 294.84L124.49 293.86L125.42 293.41L126.16 292.72L127.77 290.77L128.69 290.1L132.24 288.14L133.16 287.85L135.08 287.91L135.98 287.6L136.74 287.12L137.4 286.41L138.82 285.15L140.49 284.28L141.08 283.79L141.49 283.29L144.52 278.11L145.32 277.11L146.11 276.31L150.07 273.5L150.76 272.83L151.37 272.11L152.1 271.47L152.99 271.01L154.05 270.69L158.73 269.71L172.87 260.97L175.71 258.43L176.54 257.89L177.45 257.43L181.56 256.12L182.41 255.62L183.12 254.96L183.72 254.22L185.09 252.88L187.73 251.13L188.52 249.82L188.79 248.42L187.83 243.93L187.99 242.25L187.94 238.4L187.23 234.32L186.58 232.47L186.08 231.5L174.7 215.64L172.96 214.23L171 213.38L167.07 212.93L163.98 212.87L160.66 213.19L159.47 212.66L157.84 210.1L154.99 210.49L153.93 210.73L139.9 208.1L138.25 206.9L137.79 206.62H137.28L134.55 207.19L133.43 207.22Z" fill="#CCCCCC" stroke="white" stroke-width="0.5"/>
<path d="M342.738 380.22L341.288 380.12L340.528 379.73L339.918 379.32L338.948 377.95L324.338 395.62L320.168 399.66L319.388 399.82L318.638 399.86L317.928 399.8L317.198 399.62L316.498 399.34L312.708 397.3L311.738 397.02L310.688 396.93L309.038 397.14L307.948 397.63L306.978 398.38L305.168 400.44L299.998 405.09L298.188 406.25L296.808 406.86L295.278 406.84L293.738 406.58L288.378 404.97L285.558 404.88L283.098 405.34L279.938 404.83L279.338 405.06L277.698 406.66L276.998 407.64L276.078 408.5L274.518 409.73L272.968 410.22L270.158 410.64L268.608 410.57L267.448 410.25L266.788 409.7L265.658 408.32L265.068 407.8L264.338 407.36L261.328 406.4L260.828 406.05L260.448 405.56L260.178 405.06L259.838 404.59L259.348 404.14L257.938 403.26L257.398 402.66L257.028 401.84L256.958 401.02L257.108 400.27L257.368 399.68L257.438 399.21L257.328 398.79L256.548 398.42L254.448 397.74L251.278 398.89L244.268 400.24L242.628 401.13L241.748 401.74L242.168 403.17L242.768 403.69L243.518 403.95L244.168 404.45L244.498 406.28L244.888 407.13L246.578 408.03L247.108 408.69V409.61L246.368 411.39L245.808 413.46L244.878 415.15L244.038 417.32L237.968 423.83L237.548 424.73L237.418 425.79L237.568 426.88L238.468 429.85L238.478 431.01L237.818 432.6L236.598 434.53L233.238 437.66L231.088 438.85L229.138 439.56L228.438 440.08L228.388 440.87L228.538 441.72L228.508 442.6L228.578 443.39L228.998 444.13L229.648 444.8L230.008 445.79L229.958 446.94L229.288 448.13L228.318 448.66L227.148 449.06L226.478 449.65L225.568 451.72L222.628 455.37L222.208 456.2L221.848 457.18L221.138 462.99L221.208 464.14L221.938 466.02L222.168 466.93L221.908 467.95L220.518 469.96L219.888 471.25L219.628 472.25L217.668 476.09L217.588 476.35L217.578 476.39L220.198 478.44L224.108 479.33L223.228 481.15L221.988 481.95L220.458 481.79L218.658 480.68L218.148 483.34L220.188 485.95L223.638 487.94L231.028 489.38L234.588 490.94L245.008 497.49L252.988 506.23L266.798 517.18L268.888 518.33L271.848 519.01L275.328 520.81L278.408 523.37L280.218 526.38L280.498 528.73L279.668 531.22L280.218 533.2L281.448 534.65L284.828 536.63L286.278 537.83L293.218 545.69L320.078 567.79L341.358 588.25V588.2V587.29L341.498 586.51L341.868 585.82L342.608 585.15L343.848 584.65L344.768 584.13L345.438 583.43L345.778 582.17L346.318 581.01L347.208 579.72L351.728 575.44L352.378 574.34L352.878 572.46L352.968 571.3L352.908 570.36L351.598 564.33L350.948 562.83L349.608 560.7L349.298 559.97L349.068 559.23L348.978 558.36V557.6L349.118 556.8L349.408 556.03L350.628 553.62L350.798 553.14L350.858 552.6L350.848 551.35L350.758 550.7L350.328 549.33L348.618 545.64L348.288 544.23L348.268 543.53L348.328 542.77L348.958 540.33L349.558 538.88L355.918 528.74L356.148 528.07L356.238 527.38L356.128 526.67L354.388 523.16L354.008 521.76L354.028 521.11L354.298 520.36L355.328 518.56L355.558 517.76L355.548 517L354.938 514.97L354.928 514.29L354.998 513.54L357.378 506.04V506.01L357.488 505.36L357.518 504.07L357.398 503.39L357.208 502.71L356.978 501.29L357.038 500.5L357.218 499.71L357.938 498.83L359.068 498.01L364.028 496.08L364.708 495.4L365.198 494.12L365.298 493.13L365.158 491.42L365.258 490.64L365.498 489.82L365.908 489.01L366.418 488.19L367.328 487.46L368.498 486.89L370.598 486.5L372.858 486.37L375.648 486.61L377.008 486.91L377.718 487.23L378.328 487.73L379.288 489.03L379.818 489.64L380.428 490.14L381.198 490.25L382.008 489.93L383.118 488.54L387.358 481.72L388.518 480.33L394.538 474.81L395.388 473.53L395.768 472.59L393.828 462.38L393.758 459.41L393.888 457.99L395.258 452.99L395.478 451.65L395.468 450.31L395.348 449.64L395.138 448.95L394.628 447.59L394.448 446.91L394.398 446.24L394.518 445.57L394.898 444.87L395.408 444.15L396.308 443.33L397.068 442.81L397.898 442.44L405.708 440.79L406.628 440.47L408.098 439.77L411.038 438.91L412.448 438.33L415.198 436.51L456.378 436.31L456.618 430.52L457.108 427.49L457.128 426.67L456.898 423.52L456.968 422.26L457.218 421.13L458.668 416.88L459.658 412.13L459.638 411.48L459.378 410.73L458.578 410.14L458.028 409.86L457.618 409.82L456.548 410.2L456.118 410.28L455.718 410.26L455.328 410.11L455.118 409.96L455.048 409.56L455.158 409.11L456.818 405.87L457.078 404.86L458.018 399.3L458.678 397.53L459.008 396.93L461.158 394.3L461.458 394.05L461.928 393.78L464.598 392.79L464.988 392.49L465.258 392.17L465.728 391.15L465.828 390.77L465.888 390.41L466.298 388.74L466.788 387.38L466.718 386.87L466.378 386.29L465.218 385.45L464.348 385.13L462.898 384.91L461.198 385.54L460.738 385.86L459.658 386.32L457.378 385.87L448.508 383.03L446.338 383.28L443.148 383.22L424.578 387.89L422.338 387.69L421.998 386.65L421.458 385.72L420.078 385.1L419.248 385.46L418.648 386.16L417.418 387.31L414.458 389.4L413.578 390.36L413.078 391.47L412.878 392.55L412.418 393.69L411.638 394.68L410.258 395.86L408.928 396.14L407.198 396.09L406.218 396.44L402.448 400.12L399.538 402.18L398.508 403.77L397.258 406.19L396.338 406.23L395.288 405.95L393.568 405.64L392.458 406.01L391.498 406.62L390.648 407.5L389.608 407.61L388.628 407.42L387.328 407.35L386.628 407.82L386.268 408.64L386.058 409.61L384.798 411.51L383.678 412.77L383.008 413.26L382.068 413.54L380.178 413.34L379.398 413.35L377.678 413.57L376.668 413.54L374.468 412.74L372.808 412.53L371.918 412.97L368.338 416.15L363.028 419.21L360.698 420H359.068L358.498 419.28L358.058 418.55L357.758 417.81L357.608 417.12L357.568 416.41L357.668 415.61L357.898 414.82L358.208 414.02L360.058 410.95L364.978 404.67L367.728 402.01L370.098 399.15L370.498 398.42L370.748 397.72L370.908 397.01L370.918 396.31L370.828 395.51L370.508 394.48L369.758 393.16L368.848 391.97L364.198 387.89L359.068 381.66L358.198 380.81L357.078 380.02L355.188 379.13L354.038 378.95L353.098 379L352.388 379.18L342.738 380.22Z" fill="#CCCCCC" stroke="white" stroke-width="0.5"/>
<path d="M429.102 235.9L426.032 235.4L424.862 234.04L423.512 230.14L422.152 228.44L420.512 227.43L419.102 226.92L416.322 226.55L413.052 226.64L411.262 226.99L410.462 227.67L410.042 229.81L409.052 230.46L407.922 230.82L404.972 235.11L402.752 233.2L398.972 226.55L396.792 229.79L391.112 235.34L389.492 236.14L389.402 236.07L389.412 236.09L389.692 236.75L389.802 237.44L390.072 238.16L385.362 243.19L377.832 248.28L374.732 249.68L370.362 250.67L366.572 252.52L361.192 253.53L359.202 255.06L357.732 257.22L356.622 259.66L357.642 261.91L356.372 264.88L353.872 267.6L351.162 269.07V267.85L349.472 268.67L346.142 270.98L344.502 271.76L342.662 272.18L341.342 272.22L334.272 271.27L331.512 270.51L325.722 267.85L322.972 270.51L315.712 274.72L312.502 277.14L308.732 281.8L307.782 282.63L306.612 283.15L305.672 284.19L304.752 284.97L303.662 284.71L302.692 284.2L301.482 283.97L300.202 283.96L299.052 284.1L294.412 285.37L290.302 287.24L283.052 292.16L276.962 298.26L273.622 300.69L270.612 301.25L268.482 300.23L267.902 300L267.432 299.65L267.342 299.21L267.662 298.76L268.052 298.38L268.282 297.94L268.232 297.44L267.692 295.5L267.372 294.78L266.812 292.73L266.432 291.94L265.902 291.33L265.512 290.72L265.652 289.97L266.152 289.23L267.012 288.44L267.492 287.86L267.782 286.72L267.812 286.2L267.692 285.68L267.392 285.36L264.622 284.22L257.802 282.56L252.702 282.38L250.652 283.18L250.062 283.82L248.412 285.93L235.592 296.31L234.632 297.7L232.722 301.3L229.662 305.35L223.482 311.82L222.032 312.95L220.492 313.4L218.992 313.66L217.572 313.68L212.562 312.78H211.822L210.332 313.21L203.852 316.17L201.942 317.36L200.712 318.32L200.402 318.99L200.172 319.72L199.952 324.06L199.382 327.42L197.712 333.66L194.582 339.11L193.322 340.59L190.572 341.7L190.422 341.76L196.522 348.99L197.162 350.65L199.152 352.18L201.502 352.97L209.962 353.47L211.822 353.35L213.442 353.08L214.362 353.02L216.362 353.63L219.572 356.33L226.062 356.24L230.232 355.66L233.262 355.49L234.492 355.81L236.072 356.39L238.722 357.78L240.092 358.66L241.062 359.45L244.362 362.86L245.992 364.22L247.692 365.36L249.332 366.26L273.422 374.28L274.982 374.44L276.562 374.28L279.202 373.52L283.662 371.08L285.852 370.22L286.582 370.07L288.342 370.22L296.602 372.2L300.992 373.66L301.722 374.05L303.142 375.06L303.812 375.69L307.182 380.34L308.592 381.88L309.282 382.4L309.962 382.81L311.002 382.89L312.332 382.67L314.582 381.65L315.692 380.81L316.372 380.02L316.652 379.3L317.152 377L317.472 374.1L317.832 372.61L318.422 371.01L319.122 369.55L319.612 368.82L322.472 366.14L322.982 365.39L323.212 364.61L323.272 363.82L322.742 359.27L322.752 357.52L322.902 356.56L323.142 355.64L323.442 354.82L323.842 354.09L324.832 352.7L326.172 351.3L326.992 350.75L327.702 350.44L328.492 350.35L329.272 350.41L331.152 350.85L332.742 351.39L334.272 352.13L337.532 354.21L340.132 356.25L341.492 357.64L342.142 358.51L342.672 359.41L343.142 360.53L343.542 361.85L343.862 363.79L343.952 365.14L343.912 366.26L342.912 369.25L338.952 377.95L339.922 379.32L340.532 379.73L341.292 380.12L342.742 380.22L352.392 379.18L353.102 379L354.042 378.95L355.192 379.13L357.082 380.02L358.202 380.81L359.072 381.66L364.202 387.89L368.852 391.97L369.762 393.16L370.512 394.48L370.832 395.51L370.922 396.31L370.912 397.01L370.752 397.72L370.502 398.42L370.102 399.15L367.732 402.01L364.982 404.67L360.062 410.95L358.212 414.02L357.902 414.82L357.672 415.61L357.572 416.41L357.612 417.12L357.762 417.81L358.062 418.55L358.502 419.28L359.072 420H360.702L363.032 419.21L368.342 416.15L371.922 412.97L372.812 412.53L374.472 412.74L376.672 413.54L377.682 413.57L379.402 413.35L380.182 413.34L382.072 413.54L383.012 413.26L383.682 412.77L384.802 411.51L386.062 409.61L386.272 408.64L386.632 407.82L387.332 407.35L388.632 407.42L389.612 407.61L390.652 407.5L391.502 406.62L392.462 406.01L393.572 405.64L395.292 405.95L396.342 406.23L397.262 406.19L398.512 403.77L399.542 402.18L402.452 400.12L406.222 396.44L407.202 396.09L408.932 396.14L410.262 395.86L411.642 394.68L412.422 393.69L412.882 392.55L413.082 391.47L413.582 390.36L414.462 389.4L417.422 387.31L418.652 386.16L419.252 385.46L420.082 385.1L421.462 385.72L422.002 386.65L422.342 387.69L424.582 387.89L443.152 383.22L446.342 383.28L448.512 383.03L450.472 383.07L451.342 382.67L452.222 381.75L453.292 378.56L453.232 377.21L451.842 374.85V373.83L453.352 372.06L454.002 371.02L454.502 369.81L455.222 366.92L454.852 365.69L454.862 364.75L456.162 362.86L456.662 361.88L457.022 360.92L457.462 360L458.902 358.75L459.302 357.9L459.262 356.83L458.612 355.57L458.002 354.82L457.872 353.86L458.542 352.88L459.302 352.12L460.092 351.43L460.742 350.75L462.192 349.5L462.772 348.56L462.942 347.19L462.052 343.13L461.872 341.21L462.042 339.11L463.122 333.52L463.092 332.03L461.472 330.34L460.492 328.67L459.972 328.32L459.592 328.15L458.742 328.09L458.122 327.97L457.262 327.65L456.762 326.86L456.182 324.71L455.662 323.87L454.962 323.11L454.312 322.15L453.852 320.64L453.352 319.55L452.712 318.7L450.942 317.8L450.162 317.28L449.072 315.66L447.852 314.33L447.812 313.5L451.092 310.15L451.482 309.54L451.522 309.45L451.592 306.77L451.822 305.01L452.722 302.6L452.792 300.61L453.212 297.65L456.692 292.8L463.092 271.39L463.802 269.58L462.272 270.09L460.032 272.09L461.852 265.31L461.162 262.69L457.342 260.74L455.832 259.52L455.722 256.11L454.622 255.31L450.262 255.48L449.082 255.27L444.232 250.8L441.582 238.47L438.752 234.47L435.752 234.13L429.102 235.9Z" fill="#CCCCCC" stroke="white" stroke-width="0.5"/>
<path d="M121.72 314.33L119.45 314.09L108.6 310.26L107.33 310.3L105.88 310.87L106.58 313.02L105.73 316.79L105.63 318.5L105.93 320.5L105.73 322.12L100.68 336.05L98.0595 341.61L97.9095 343.11L98.1695 344.23L100.2 346.43L100.83 347.56L101.38 349.83L100.9 352.88L100.67 356.79L99.1095 362.97L98.6295 364.26L98.3395 364.72L97.8795 365.18L97.1495 365.36L95.5295 364.76L94.6295 364.6L93.9595 364.67L93.2495 364.9L92.5095 365.35L91.5395 366.08L90.5695 367.12L89.2695 369.22L88.6995 371.04L88.4395 373.48L88.0295 374.74L87.2795 375.49L85.2295 375.97L83.3095 376.76L82.4695 377.31L81.4895 378.16L80.4295 379.35L78.8895 381.68L78.2695 383.27L78.0195 384.75L78.3395 387.26L78.9295 389.63V389.65L83.5095 391.29L114.31 408.03L121.84 413.17L128.29 420.07L131.75 427.02L131.77 426.98L131.85 426.86L134.02 421.51L134.27 419.12L133.86 417.47L131.99 412.06L131.7 410.52L131.58 408.95L131.66 407.04L131.84 405.84L132.42 404.82L133.42 403.78L135.53 402.48L137.94 401.66L142.57 400.78L143.28 400.5L146.16 398.35L149.23 395.45L151.01 394.05L152.76 392.92L154.15 392.43L155.25 392.26L156.25 392.42L158.04 393.22L165.93 398.32L166.62 398.93L167.22 399.59L170.49 401.11L172.73 400.64L177.25 397.13L179.57 394.84L179.58 393.49L177.85 391.09L172.72 385.85L171.91 384.38L171.7 377.77L171.91 375.65L172.22 374.53L172.97 372.65L173.25 371.51L173.48 367.68L173.25 367.6L174.42 365.85L177.76 361.9L178.46 360.16L177.42 356.05L177.13 353.73L177.85 352.71L179.37 351.65L179.63 349.19L179.52 346.48L179.91 344.66L181.21 343.93L186.58 343.32L190.42 341.76L190.57 341.7L193.32 340.59L194.58 339.11L197.71 333.66L191.93 334.95L170.47 335.01L160.33 339.03L158.76 339.99L156.76 341.7L155.16 342.86L153.2 344L149.66 345.5L147.97 345.76L146.81 345.65L145.43 344.35L144.05 342.81L143.36 341.76L142.96 340.92L142.7 340.17L142.27 339.64L140.83 338.33L140.62 337.21L140.71 336.65L141.19 335.52L141.24 334.91L140.93 333.55L141.05 332.88L141.47 332.19L141.57 331.41L141.29 330.59L140.96 329.89L140.49 328.53L140.43 327.98L140.55 327.42L140.83 326.85L141.02 326.16L141.31 325.45L141.68 324.09L141.73 323.55L141.6 322.96L141.36 322.32L140.99 321.54L140.83 320.9L140.9 320.39L141.31 320.06L142.08 320L145.07 320.06L145.73 319.92L145.92 319.54L145.46 319.1L145.13 318.69L144.92 318.17L144.99 317.37L144.66 316.63L143.63 315.56L131.42 313.05L130.52 313.01L129.58 313.04L125.92 314.01L121.72 314.33Z" fill="#CCCCCC" stroke="white" stroke-width="0.5"/>
<path d="M565.549 563.95L554.389 559.08L503.489 530.55L500.529 534.96L498.609 536.8L495.459 538.34L472.829 537.81L467.639 539.05L463.499 541.97L460.299 546.06L457.929 550.85L457.369 553.33L456.859 558.78L456.069 560.95L454.549 562.41L452.669 563.09L448.469 563.78L446.009 564.77L440.009 569.41L438.269 570.36L432.849 572.58L429.719 574.91L424.139 580.42L418.779 583.52L414.719 587.9L415.419 590.72L416.569 593.27L417.989 595.68L419.039 598.67L423.039 616.6L422.979 617.63L422.729 619.32L421.869 622.61L421.109 624.27L415.639 631.51L414.859 632.3L414.549 632.42L414.199 632.44L413.689 632.36L412.879 632.41L412.179 632.52L411.079 632.88L410.579 633.49L410.169 634.42L409.609 636.37L409.169 637.29L408.649 637.9L407.569 638.36L407.039 638.66L405.699 639.91L405.389 640.15L404.959 640.43L404.319 640.72L401.459 641.6L400.999 641.97L400.699 642.38L400.639 642.77L400.609 643.35L400.699 644.49L400.879 645.26L400.999 645.58L401.239 645.89L401.509 646.16L403.219 647.47L403.629 647.99L403.689 648.29L403.579 648.58L403.159 649.01L402.889 649.04H402.849L415.379 660.82L419.199 662.82L423.539 664.46L427.469 666.61L430.039 670.17H427.499L430.089 673.65L433.359 675.31L436.879 676.63L442.969 681.16L449.739 684.38L452.829 686.37L464.019 696.03L470.909 700.07L479.479 702.43L479.079 703.12L479.029 703.34L478.909 703.47L478.269 703.9L481.619 706.44L486.209 708.59L490.999 710.04L496.989 710.96L501.009 712.75L503.039 713.13L509.049 715.92L514.139 719.16L527.829 730.77L533.899 734.02L542.399 737.13L542.419 737.11L547.539 732.57L549.249 730.33L550.199 727.28L550.629 724.4L552.039 719.4L552.759 718.28L553.489 717.68L558.349 717.35L559.369 717.09L560.999 716.45L561.819 715.78L562.419 715.05L565.139 709.15L569.689 701.26L570.929 699.57L571.929 698.49L577.739 695.2L590.649 685.22L591.389 684.84L592.149 684.53L593.659 684.3L602.109 684.34L603.149 684.15L604.749 683.51L605.669 682.81L606.389 681.97L608.019 679.25L614.209 671.8L615.319 670.78L616.919 669.84L619.419 668.88L619.889 662.7L619.699 659.6L618.859 656.48L618.029 654.8L611.999 645.72L598.279 631.6L597.289 630.19L596.219 627.93L594.589 622.82L593.959 619.77L594.149 617.24L595.659 610.05L595.669 610.04L596.029 607.98L596.039 607.22L595.929 606.46L595.619 605.76L594.959 605.05L593.969 604.38L591.219 603.43L588.189 602.77L587.369 602.27L586.589 601.5L585.779 599.9L585.559 598.84L585.549 597.91L585.779 597.1L586.109 596.34L586.949 594.86L591.039 589.08L591.329 588.41L591.539 587.74L591.829 585.63L592.039 584.89L592.369 584.21L592.839 583.54L593.439 583.01L594.149 582.61L594.899 582.35L596.349 582.02L597.209 581.91L603.559 581.74L605.199 581.52L608.459 580.68L609.189 580.32L609.849 579.87L610.369 579.29L610.729 578.65L610.949 577.98L611.099 577.27L611.169 575.17L611.029 573.81L610.279 570.94L609.189 567.9L606.199 562.42L602.449 556.97L599.719 554.22L597.459 552.48L591.469 548.84L589.959 548.25L588.169 547.9L581.959 547.52L580.059 547.75L578.719 548.16L578.079 548.72L565.549 563.95Z" fill="#CCCCCC" stroke="white" stroke-width="0.5"/>
<path d="M759.2 830.11L769.4 829.02L769.47 829.01L763.01 824.59L761.95 822.29L762.21 820.31L764.25 816.65L764.85 814.72L764.58 812.88L763.19 808.93L763.56 803.97L763.21 801.93L762.68 800.12L762.4 798.36L763.26 756.43L762.4 746.26L761.88 744.5L760.71 743.07L759.17 741.92L757.69 740.51L756.71 738.24V738.01L756.63 737.95L756.01 737.48L754.58 736.73L750.56 735.75L749.41 735.23L748.5 734.42L746.83 731.24L746.28 730.61L745.32 729.97L743.72 729.48L741.09 729.15L735.08 725.92L733.48 725.5L732.41 725.53L731.85 725.92L731.27 726.2L730.56 726.29L729.93 726.15L729.12 725.88L728.47 725.86L727.74 726.09L727.1 726.49L725.01 728.4L723.44 729.32L722.69 729.57L721.72 729.82L720.69 729.74L718.53 729.07L717.76 729.09L716.49 729.45L715.91 729.51L714.59 729.41L713.7 729.45L712.89 729.6L712.21 729.44L711.58 728.82L711.06 727.17L710.6 724.25L710.43 723.63L710.38 722.91L710.43 722.18L710.69 721.39L710.75 720.77L710.7 720.04L710.46 719.22L710.29 717.68L710.43 689.45L710.12 688.42L709.66 687.52L708.81 686.64L708.04 686.16L706.62 685.67L674.9 680.1L677.01 685.26L677.21 686.63L677.28 689.14L676.95 690.46L676.51 691.62L675.87 692.73L674.6 694.41L669.92 702.16L669.91 702.2L667.05 707.43L660.18 724.46L660.21 726.36L660.4 728.03L660.68 729.12L661.03 730.08L661.43 730.79L662.45 732.1L663.88 733.25L664.67 733.71L678.61 738.39L691.26 743.92L694.11 745.5L695.58 746.54L697.22 747.95L698.64 749.46L699.93 751.1L708.48 765.57L711.29 769.42L715.88 777.33L716.7 779.3L717.08 780.79L716.85 782.46L715.46 787.64L715.13 791.41L715.28 798.49L715 799.88L714.48 801.35L713.77 802.73L710.91 807.32L710.25 808.87L710.24 808.88L712.41 809.55L714.18 811.79L715.26 814.45L716.42 816.62L718.63 818.54L721.03 819.99L728.69 823.05L731.87 823.29L732.77 823.92L733.4 825.3L734.25 826.69L735.87 827.31H749.21L751.7 827.75L756.28 829.68L759.2 830.11Z" fill="#CCCCCC" stroke="white" stroke-width="0.5"/>
<path d="M639.958 675.89L639.058 675.86L637.828 675.51L630.928 670.87L628.078 670L619.418 668.88L616.918 669.84L615.318 670.78L614.208 671.8L608.018 679.25L606.388 681.97L605.668 682.81L604.748 683.51L603.148 684.15L602.108 684.34L593.658 684.3L592.148 684.53L591.388 684.84L590.648 685.22L577.738 695.2L571.928 698.49L570.928 699.57L569.688 701.26L565.138 709.15L562.418 715.05L561.818 715.78L560.998 716.45L559.368 717.09L558.348 717.35L553.488 717.68L552.758 718.28L552.038 719.4L550.628 724.4L550.198 727.28L549.248 730.33L547.538 732.57L542.418 737.11L542.398 737.13L561.148 743.98L572.388 750.26L594.148 765.68L614.288 772.99L618.068 773.7L621.158 775.26L629.528 784.52L636.418 786.86L660.188 789.75L672.448 794.56L679.158 795.58L687.608 797.83L691.098 799.23L693.018 800.51L694.528 801.82L696.468 802.83L699.688 803.24L701.878 804.07L706.548 807.75L710.238 808.88L710.248 808.87L710.908 807.32L713.768 802.73L714.478 801.35L714.998 799.88L715.278 798.49L715.128 791.41L715.458 787.64L716.848 782.46L717.078 780.79L716.698 779.3L715.878 777.33L711.288 769.42L708.478 765.57L699.928 751.1L698.638 749.46L697.218 747.95L695.578 746.54L694.108 745.5L691.258 743.92L678.608 738.39L664.668 733.71L663.878 733.25L662.448 732.1L661.428 730.79L661.028 730.08L660.678 729.12L660.398 728.03L660.208 726.36L660.178 724.46L667.048 707.43L669.908 702.2L669.918 702.16L674.598 694.41L675.868 692.73L676.508 691.62L676.948 690.46L677.278 689.14L677.208 686.63L677.008 685.26L674.898 680.1L647.678 675.68L641.168 675.19L639.958 675.89Z" fill="#CCCCCC" stroke="white" stroke-width="0.5"/>
<path d="M178.97 116.85L168.92 108.13L168.64 110.44L169.12 158.1L164.64 158.79L163.22 159.28L154.01 164.3L146.59 170.62L120.54 202.49L123.13 202.82L130.12 204.42L130.78 204.74L131.64 205.33L132.2 206.69L132.83 207.04L133.43 207.22L134.55 207.19L137.28 206.62H137.79L138.25 206.9L139.9 208.1L153.93 210.73L154.99 210.49L157.84 210.1L159.47 212.66L160.66 213.19L163.98 212.87L167.07 212.93L171 213.38L172.96 214.23L174.7 215.64L186.08 231.5L186.58 232.47L187.23 234.32L187.94 238.4L187.99 242.25L187.83 243.93L188.79 248.42L188.52 249.82L187.73 251.13L185.09 252.88L183.72 254.22L183.12 254.96L182.41 255.62L181.56 256.12L177.45 257.43L176.54 257.89L175.71 258.43L172.87 260.97L158.73 269.71L154.05 270.69L152.99 271.01L152.1 271.47L151.37 272.11L150.76 272.83L150.07 273.5L146.11 276.31L145.32 277.11L144.52 278.11L141.49 283.29L141.08 283.79L140.49 284.28L138.82 285.15L137.4 286.41L136.74 287.12L135.98 287.6L135.08 287.91L133.16 287.85L132.24 288.14L128.69 290.1L127.77 290.77L126.16 292.72L125.42 293.41L124.49 293.86L121.39 294.84L120.47 295.3L119.75 295.91L118.5 297.25L117.84 297.76L116.8 298.32L114.93 300.58L112.77 304L111.46 305.58L110.17 306.55L107.63 307.01L106.39 307.51L105 308.46L104.43 309.4L104.45 309.5L105.88 310.87L107.33 310.3L108.6 310.26L119.45 314.09L121.72 314.33L125.92 314.01L129.58 313.04L130.52 313.01L131.42 313.05L143.63 315.56L144.66 316.63L144.99 317.37L144.92 318.17L145.13 318.69L145.46 319.1L145.92 319.54L145.73 319.92L145.07 320.06L142.08 320L141.31 320.06L140.9 320.39L140.83 320.9L140.99 321.54L141.36 322.32L141.6 322.96L141.73 323.55L141.68 324.09L141.31 325.45L141.02 326.16L140.83 326.85L140.55 327.42L140.43 327.98L140.49 328.53L140.96 329.89L141.29 330.59L141.57 331.41L141.47 332.19L141.05 332.88L140.93 333.55L141.24 334.91L141.19 335.52L140.71 336.65L140.62 337.21L140.83 338.33L142.27 339.64L142.7 340.17L142.96 340.92L143.36 341.76L144.05 342.81L145.43 344.35L146.81 345.65L147.97 345.76L149.66 345.5L153.2 344L155.16 342.86L156.76 341.7L158.76 339.99L160.33 339.03L170.47 335.01L191.93 334.95L197.71 333.66L199.38 327.42L199.95 324.06L200.17 319.72L200.4 318.99L200.71 318.32L201.94 317.36L203.85 316.17L210.33 313.21L211.82 312.78H212.56L217.57 313.68L218.99 313.66L220.49 313.4L222.03 312.95L223.48 311.82L229.66 305.35L232.72 301.3L234.63 297.7L235.59 296.31L248.41 285.93L250.06 283.82L250.65 283.18L252.7 282.38L257.8 282.56L264.62 284.22L267.39 285.36L267.69 285.68L267.81 286.2L267.78 286.72L267.49 287.86L267.01 288.44L266.15 289.23L265.65 289.97L265.51 290.72L265.9 291.33L266.43 291.94L266.81 292.73L267.37 294.78L267.69 295.5L268.23 297.44L268.28 297.94L268.05 298.38L267.66 298.76L267.34 299.21L267.43 299.65L267.9 300L268.48 300.23L270.61 301.25L273.62 300.69L276.96 298.26L283.05 292.16L290.3 287.24L294.41 285.37L299.05 284.1L300.2 283.96L301.48 283.97L302.69 284.2L303.66 284.71L304.75 284.97L305.67 284.19L306.61 283.15L307.78 282.63L308.73 281.8L312.5 277.14L315.71 274.72L322.97 270.51L325.72 267.85L321.8 244.86L350.8 177.59L348.62 164.42L299.32 143.93L268.15 151.25L250.02 125.63L244.95 132.93L209.42 121.97L198.55 111.72L178.97 116.85Z" fill="#CCCCCC" stroke="white" stroke-width="0.5"/>
<path d="M789.871 617.65L790.741 615.57L790.611 608.18L792.031 605.32L794.311 603.49L795.351 601.86L795.011 601.54H794.981L662.221 607.05L649.601 609.58L624.001 612.38L602.491 612.67L595.661 610.05L594.151 617.24L593.961 619.77L594.591 622.82L596.221 627.93L597.291 630.19L598.281 631.6L612.001 645.72L618.031 654.8L618.861 656.48L619.701 659.6L619.891 662.7L619.421 668.88L628.081 670L630.931 670.87L637.831 675.51L639.061 675.86L639.961 675.89L641.171 675.19L647.681 675.68L674.901 680.1L706.621 685.67L708.041 686.16L708.811 686.64L709.661 687.52L710.121 688.42L710.431 689.45L710.291 717.68L710.461 719.22L710.701 720.04L710.751 720.77L710.691 721.39L710.431 722.18L710.381 722.91L710.431 723.63L710.601 724.25L711.061 727.17L711.581 728.82L712.211 729.44L712.891 729.6L713.701 729.45L714.591 729.41L715.911 729.51L716.491 729.45L717.761 729.09L718.531 729.07L720.691 729.74L721.721 729.82L722.691 729.57L723.441 729.32L725.011 728.4L727.101 726.49L727.741 726.09L728.471 725.86L729.121 725.88L729.931 726.15L730.561 726.29L731.271 726.2L731.851 725.92L732.411 725.53L733.481 725.5L735.081 725.92L741.091 729.15L743.721 729.48L745.321 729.97L746.281 730.61L746.831 731.24L748.501 734.42L749.411 735.23L750.561 735.75L754.581 736.73L756.011 737.48L756.631 737.95L756.711 738.01L756.741 736.49L757.841 732.44L758.111 730.23L756.721 724.17L756.811 722.32L762.771 717.59L765.351 717.87L766.971 719.03L767.741 719.1L767.731 716.12L766.611 712.33L764.791 709.75L763.431 707.04L763.701 702.83H763.671L762.151 691.49L762.611 688.09L765.061 684.55L768.261 683.07L771.571 683.13L774.321 684.22L779.571 674.64L780.721 671.2L780.881 667.9L779.271 658.66L781.331 652.2L782.161 650.42L783.611 648.61L788.661 645.88L789.141 645.33L791.371 645.73L791.061 646.49L790.071 647.46L790.281 648.49L790.911 649.77L790.921 651.25L791.371 652L793.271 651.16L794.251 649.93L794.961 646.7L795.441 645.39L797.801 642.07L798.941 640.04L799.121 637.84L798.611 634.05L797.541 630.37L796.081 630.07L794.031 630.46L791.141 628.83L789.301 626.18L787.951 622.83L787.181 619.32L787.131 616.2L789.871 617.65Z" fill="#CCCCCC" stroke="white" stroke-width="0.5"/>
</svg>
