<svg width="801" height="773" viewBox="0 0 801 773" fill="none" xmlns="http://www.w3.org/2000/svg">
<path d="M237.451 353.67L219.431 350.22L205.541 345.81L197.551 344.43L188.581 346.8L176.561 354.56L166.691 362.28L153.211 372.75L138.171 383.29L124.731 392.74L112.841 400.55L106.131 405.02L105.051 412.17L103.171 420.5L102.551 431.25L104.111 437.48L107.381 442.29L117.171 436.68L126.241 441.07L130.481 442.5L139.901 441.65L145.661 440.93L150.781 436.56L155.911 432.2L162.781 433.55L169.071 432.83L173.191 429.56L177.881 427.84L186.221 424.97L198.291 424.11L203.471 420.3L208.601 413.85L212.211 410.6L221.651 408.26L234.991 403.37L234.891 397.68L236.891 391.31L242.601 385.91L245.661 379.51L245.081 376.35L242.381 373.24L240.191 369.06L240.591 361.65L239.431 355.85L237.451 353.67Z" fill="#CCCCCC" stroke="white" stroke-width="0.5"/>
<path d="M799.692 91.94L799.772 91.74L799.962 91.55L798.982 89.81L798.242 88.13L797.982 87.12L795.302 83.2L793.582 81.26L793.212 80.21L793.322 78.91L793.782 76.55L793.002 74.61L791.172 73.49L785.322 72.22L783.252 71.41L781.612 71.12L780.622 70.59L779.922 70.4L779.302 70.03L779.102 69.86L778.692 69.62L778.322 69.73L777.932 69.95L777.532 70.07L775.492 69.66L774.902 69.89L773.782 70.7L769.242 72.09L755.892 71.14L746.312 71.24L745.172 70.92L742.002 68.44L740.682 67.89L740.282 67.63L740.512 67.18L741.692 66.01L733.712 62.73L725.122 60.7L718.142 60.81L711.812 60.25L711.492 60.05L710.082 58.87L709.632 58.68L707.432 58.64L706.462 58.26L707.032 60.93L707.122 61.92L706.632 61.44L706.172 60.16L705.772 59.48L705.162 59.12L704.362 58.88L704.062 58.7V58.71L703.982 59.1L702.362 64.34L699.902 71.38L697.372 80.6L696.712 91.24L695.002 100.47L690.672 106.87L689.222 116.91L689.172 125.89L689.832 130.27L689.842 142.4H689.902L689.962 142.39H690.022L690.082 142.38L691.132 142.82L692.182 143.25L693.232 143.69L694.282 144.13L694.342 182.53L694.412 220.68L694.472 258.59L694.532 296.25L718.432 296.81L742.332 297.36L766.232 297.91L790.132 298.47L790.622 298.57L791.112 298.67L791.132 298.68H791.152V276.11V253.23V243.58V236.46L790.802 233.14L789.912 230.04L785.742 219.89L785.242 217.89L785.132 215.65L785.582 211.46V210.05L784.852 207.67L782.272 203.3L781.942 200.89L782.782 197.86L782.842 196.71L782.612 195.4L778.282 184.51L776.862 181.93L776.402 180.68L776.422 178.43L777.232 176.38L779.312 172.6L780.162 170.6L780.642 169.79L782.002 168.05L783.522 166.49L786.462 162.01L787.452 160L787.922 158.03L788.092 156.86L789.612 152.84L790.142 149.61L790.772 147.27L791.522 145.26L791.842 143.24L791.152 140.88L788.962 136.17L788.302 133.17L786.542 129.53L786.192 128.34L785.022 122.05L784.972 117.23L784.482 112.28L784.492 110.12L785.112 108.25L793.292 101.52L795.142 96.5L796.552 94.48L799.692 91.94Z" fill="#CCCCCC" stroke="white" stroke-width="0.5"/>
<path d="M704.062 58.7L703.662 58.47L703.022 56.69L702.212 55.39L701.232 54.24L700.412 53.75L699.282 53.54L696.222 52.34L695.462 51.72L695.392 50.5L696.162 45.61L696.612 46.11L696.942 46.58L697.052 47.08L696.872 47.65L697.872 48.06L698.502 44.29L698.902 43.13L697.882 42.51L697.112 41.77L696.632 40.84L696.162 37.2L696.332 36.65L697.212 35.55L697.492 34.94L697.382 34.09L696.752 33.47L695.762 33.07L693.492 32.71L691.392 31.63L690.242 31.26L688.522 31.36L687.842 31.26L686.162 30.58L685.592 30.48L684.692 30.22L681.972 28.4L670.202 24.8L667.862 24.63L666.932 24.42L666.072 24.04L665.092 23.46L660.152 19.67L658.162 18.96L653.512 19.04L651.472 18.6L649.872 16.92L649.672 16.32V15.91L649.592 15.6L649.182 15.24L648.592 15.01L648.052 15.04L646.942 15.24L646.692 15.44L646.162 16.31L645.902 16.51L640.362 17.1V17.11L640.102 17.82H640.052L639.942 21.55L639.522 26.49L640.762 30.93L642.322 34.27L642.732 38.68L642.082 41.96L640.582 46.31L639.902 50.69L639.012 52.59L639.962 57.82L640.072 63.03L641.282 68.54L640.992 78.12L641.092 84.14L640.622 90.68L639.432 93.93L639.422 103.48L638.462 107.82L636.922 114.04L646.722 123.59L654.102 122.1L657.972 125.54L664.042 131.06L666.832 136.89L672.232 140.67L675.762 141.38L680.822 142.86L685.802 142.78L689.842 142.4L689.832 130.27L689.172 125.89L689.222 116.91L690.672 106.87L695.002 100.47L696.712 91.24L697.372 80.6L699.902 71.38L702.362 64.34L703.982 59.1L704.062 58.71V58.7Z" fill="#CCCCCC" stroke="white" stroke-width="0.5"/>
<path d="M479.448 167.48L478.968 167.17L477.988 166.68L475.888 166.26L472.558 164.46L471.058 163.09L468.288 159.92L455.998 150.75L451.538 145.48L450.168 144.17L448.498 143.18L440.528 140.15L435.988 139.13L435.018 138.64L434.098 137.8L432.708 135.7L432.058 135.12L428.398 134.44L424.158 133L420.238 131.07L412.828 128.87L412.378 128.67L411.848 128.36L410.408 126.98L408.568 126L408.208 125.75L407.748 125.54L405.978 125.55L397.408 123.65L386.408 119.86L375.638 117.47L357.038 117.28L345.898 115.27L345.638 115.86L344.758 117.95L344.808 127.74L347.028 136.41L350.348 148.87L352.568 160.23L354.238 171.05L358.078 181.83L362.438 193.68L364.088 202.83L365.728 210.36L364.668 216.29L360.058 223.33L360.918 222.78L366.848 224.35L376.538 223.75L381.928 221.57L388.388 222.08L393.768 226.89L401.298 229.02L406.138 230.62L410.998 226.31L414.768 224.16L418.538 224.15L422.828 227.92L423.888 232.21L426.018 237.58L430.298 242.42L434.568 247.79L436.668 254.22L438.778 262.26L444.098 267.62L451.028 272.45L459.038 274.62L464.808 276.5V275.5L464.848 254.04L465.538 237.42L468.868 225.62L474.878 217.05L476.588 208.45L475.608 198.74L476.248 189.03L477.988 177.7L479.448 167.48Z" fill="#CCCCCC" stroke="white" stroke-width="0.5"/>
<path d="M574.789 97.69L567.989 96.48L565.859 93.44L563.799 87.12L561.159 82.43L558.009 75.82L555.939 69.49L556.029 65.11L558.349 58.57L562.029 53.42L566.509 49.38L568.799 45.58L569.489 39V38.96L569.369 38.08L568.699 38.37L561.349 44.24L560.669 44.96L559.779 45.72L557.769 46.6L556.749 47.2L554.319 50.12L553.549 51.39L543.969 61.1L542.789 62.91L538.209 72.61L537.579 73.51L537.349 74.09L537.439 74.74L537.639 75.38L537.749 75.98L537.059 78.21L536.329 83.17L536.199 85.86L536.369 88.32L536.689 89.42L537.569 91.65L537.749 92.61L537.799 95.22L538.099 97.68L541.489 107.28L542.299 108.51L544.509 110.83L545.569 112.47L546.819 116.34L547.499 117.47L548.089 117.2L547.939 116.68L547.799 116.42L547.199 115.83L547.059 115.3L549.889 115.17L555.419 117.01L557.639 120.35L561.389 125.44L566.729 129.14L570.259 130.22L577.529 129.82L587.389 127.92L606.779 128.57L605.259 114.38L602.919 109.7L601.979 103.68L601.559 98.76L598.089 95.42L595.329 96.18L589.309 96.6L582.769 95.65L578.929 95.86L574.789 97.69Z" fill="#CCCCCC" stroke="white" stroke-width="0.5"/>
<path d="M570.259 130.22L566.729 129.14L561.389 125.44L557.639 120.35L555.419 117.01L549.889 115.17L547.059 115.3L547.199 115.83L547.799 116.42L547.939 116.68L548.089 117.2L547.499 117.47L547.749 117.89L548.039 125.45L547.749 127.96L545.399 134.45L542.209 141.25L541.309 142.15L539.469 143.62L538.259 145.31L536.059 149.23L527.729 159.28L521.059 164.52L520.029 165.06L517.769 165.48L516.729 165.95L511.119 169.66L507.069 171.67L504.709 172.35L502.089 173.11L497.369 173.65L492.879 173.57L488.409 172.9L486.299 171.98L479.449 167.48L477.989 177.7L476.249 189.03L475.609 198.74L476.589 208.45L474.879 217.05L468.869 225.62L465.539 237.42L464.849 254.04L464.809 275.5L475.859 279.25L490.249 283.63L490.239 283.74L498.689 284.36L498.569 360.23L515.679 360.16L532.779 360.09L554.769 359.91L576.769 359.73L606.969 360.13L637.169 360.53L666.599 360.33L696.029 360.13L725.479 359.61L754.929 359.09L773.509 358.62L791.129 358.18H791.149V353.15V334.04V325.38V323.19V303.14V298.68H791.129L791.109 298.67L790.619 298.57L790.129 298.47L766.229 297.91L742.329 297.36L718.429 296.81L694.529 296.25L694.469 258.59L694.409 220.68L694.339 182.53L694.279 144.13L693.229 143.69L692.179 143.25L691.129 142.82L690.079 142.38L690.019 142.39H689.959L689.899 142.4H689.839L685.799 142.78L680.819 142.86L675.759 141.38L672.229 140.67L666.829 136.89L664.039 131.06L657.969 125.54L654.099 122.1L646.719 123.59L639.629 124.32L630.629 125.17L626.819 126.78L623.699 128.1L610.729 128.71L606.779 128.57L587.389 127.92L577.529 129.82L570.259 130.22Z" fill="#CCCCCC" stroke="white" stroke-width="0.5"/>
<path d="M640.362 17.1L634.892 17.7L632.812 17.5L630.362 16.93L628.152 16.04L626.782 14.87L624.532 15.5L622.092 15.69L621.362 16.05L613.602 23.13L611.602 24.28L608.692 25.06L608.802 25.33L609.232 25.37L609.652 25.14L610.132 25.09L610.222 25.05L610.582 25.79L613.772 29.99L613.952 33.85L610.272 37.61L607.422 41.12L607.572 46.07L609.062 52.14L612.202 57.97L613.972 63.77L617.172 67.4L622.542 71.64L624.032 77.14L624.362 85.08L623.922 90.81L621.872 95.95L621.672 102.76L623.662 109.9L624.952 112.66L626.552 114.06L626.822 126.78L630.632 125.17L639.632 124.32L646.722 123.59L636.922 114.04L638.462 107.82L639.422 103.48L639.432 93.93L640.622 90.68L641.092 84.14L640.992 78.12L641.282 68.54L640.072 63.03L639.962 57.82L639.012 52.59L639.902 50.69L640.582 46.31L642.082 41.96L642.732 38.68L642.322 34.27L640.762 30.93L639.522 26.49L639.942 21.55L640.052 17.82H640.102L640.362 17.11V17.1Z" fill="#CCCCCC" stroke="white" stroke-width="0.5"/>
<path d="M608.691 25.06L607.421 25.4L605.151 25.61L595.581 25.02L593.281 25.54L587.401 28.52L580.471 33.28L569.371 38.08L569.491 38.96V39L568.801 45.58L566.511 49.38L562.031 53.42L558.351 58.57L556.031 65.11L555.941 69.49L558.011 75.82L561.161 82.43L563.801 87.12L565.861 93.44L567.991 96.48L574.791 97.69L578.931 95.86L582.771 95.65L589.311 96.6L595.331 96.18L598.091 95.42L601.561 98.76L601.981 103.68L602.921 109.7L605.261 114.38L606.781 128.57L610.731 128.71L623.701 128.1L626.821 126.78L626.551 114.06L624.951 112.66L623.661 109.9L621.671 102.76L621.871 95.95L623.921 90.81L624.361 85.08L624.031 77.14L622.541 71.64L617.171 67.4L613.971 63.77L612.201 57.97L609.061 52.14L607.571 46.07L607.421 41.12L610.271 37.61L613.951 33.85L613.771 29.99L610.581 25.79L610.221 25.05L610.131 25.09L609.651 25.14L609.231 25.37L608.801 25.33L608.691 25.06Z" fill="#CCCCCC" stroke="white" stroke-width="0.5"/>
<path d="M236.001 26.38L234.031 25.51L229.761 24.24L227.581 23.9L219.011 24.28L216.721 23.71L206.761 18.37L206.231 17.92L205.661 17.64L200.901 16.77L197.411 16.92L196.251 17.13L195.391 17.65L193.771 18.96L193.151 19.24V19.25L193.181 19.65L193.211 20.05L193.541 24.9L191.801 28.6L196.171 32.91L196.711 37.83L197.521 44.21L197.391 48.39L199.861 51.74L205.591 49.94L207.331 48.79L208.141 45.69L210.671 40.11L214.421 38.94L216.821 38.19L223.391 35.17L224.171 35.08L228.681 34.6L228.871 33.49L232.771 29.21L236.001 26.39V26.38Z" fill="#CCCCCC" stroke="white" stroke-width="0.5"/>
<path d="M207.971 68.57L207.681 65.06L206.241 59.6L203.071 55.51L200.581 52.71L197.501 53.01L195.761 54.16L190.491 54.97L186.081 55.09L178.871 56.12L174.661 56.72L172.271 57.3L170.281 57.76L166.501 56.55L162.281 55.37L157.821 53.53L152.321 53.92L144.821 53.73L130.691 53.3V60.38L129.551 66.35L128.681 73.85L129.541 80.19L130.331 84.55L129.421 90.5L129.191 97.52L129.811 103.41L129.391 110.87L130.201 116.08L132.321 120.82L134.871 125.53L135.751 125.88L130.931 134.68L124.161 144.7L120.031 151.37L117.401 154.17L116.961 157.44L118.291 164.99L118.081 175.28L118.461 187.16L119.961 200.06L122.001 213.47L124.011 225.78L123.981 241.9L127.961 248.73L132.441 255.01L133.661 259.79L135.181 270.17L136.771 267.18L143.121 269.01L145.511 269.33L151.621 271.88L155.261 272.3L159.311 272.55L162.401 273.13L162.861 277.6L167.261 279.8L172.271 279.61L175.751 275.98L177.401 272L180.371 269.37L183.231 267.58L187.601 264.9L193.211 261.9L198.451 255.96L203.111 249.48L206.031 244.89L209.111 240.71L211.631 236.54L213.981 231.54L218.021 226.34L221.131 222.57L223.861 220.09L229.471 215.4L233.791 214.15L237.901 215.02L240.901 216.78L247.451 219.99L252.751 223.81L256.941 228.35L259.551 231.67L259.431 234.86L263.801 233.54L270.141 228.88L274.141 226.4L276.181 223.53L276.531 220.56L276.421 215.9L275.481 211.83L275.381 207.45L276.711 204.31L279.721 200.14L281.301 197.08L281.881 195.98L285.181 192.51L287.621 188.07L287.761 181.4L287.171 174.02L286.131 165.23L281.821 162.12L281.531 161.91L277.661 159.99L266.531 156.97L261.041 152.97L256.301 150.94L248.951 146.99L246.211 140.21L241.621 128.75L234.981 116.33L234.101 115.35L231.331 113.57L228.141 111.65L222.641 104.78L219.791 100.7L218.161 94.42L215.831 89.02L212.611 82.64L210.741 73.9L207.971 68.57Z" fill="#CCCCCC" stroke="white" stroke-width="0.5"/>
<path d="M191.801 28.6L193.541 24.9L193.211 20.05L193.181 19.65L193.151 19.25V19.24L191.701 19.91L179.111 23.62L174.351 23.97L166.471 23.13H166.461L165.551 23.92L162.851 32.44L160.871 35.8L154.581 39.97L152.031 43.36L148.101 45.25L143.751 47.38L142.521 50.5L130.691 53.3L144.821 53.73L152.321 53.92L157.821 53.53L162.281 55.37L166.501 56.55L170.281 57.76L172.271 57.3L174.661 56.72L178.871 56.12L179.381 51.55L179.061 47.37L182.801 38.23L184.201 35.7L186.411 31.73L191.641 28.93L191.801 28.6Z" fill="#CCCCCC" stroke="white" stroke-width="0.5"/>
<path d="M112.689 1L112.739 3.7L111.299 9.42L111.169 10.34L111.149 13.7L110.249 17.76L110.609 23.97L109.879 30.29L109.909 33.58L110.939 35.89L114.319 39.22L115.489 41.37L115.659 43.88L114.769 45.74L113.749 46.72L114.139 46.96L117.119 49.64L119.639 52.41L122.539 53.4L130.689 53.3L142.519 50.5L143.749 47.38L148.099 45.25L152.029 43.36L154.579 39.97L160.869 35.8L162.849 32.44L165.549 23.92L166.459 23.13H166.469L155.139 21.93L152.909 21.3L148.929 19.33L145.699 17.19L143.769 16.61L141.669 14.42L129.909 6.92L124.479 5.1L122.059 3.72L122.899 4.85L126.179 5.92L127.209 7.04L125.349 6.33L119.269 5.36L117.619 4.59L116.849 3.94L116.209 2.4L115.469 1.92L113.739 1.26L112.689 1Z" fill="#CCCCCC" stroke="white" stroke-width="0.5"/>
<path d="M199.861 51.74L197.391 48.39L197.521 44.21L196.711 37.83L196.171 32.91L191.801 28.6L191.641 28.93L186.411 31.73L184.201 35.7L182.801 38.23L179.061 47.37L179.381 51.55L178.871 56.12L186.081 55.09L190.491 54.97L195.761 54.16L197.501 53.01L200.581 52.71L199.861 51.74Z" fill="#CCCCCC" stroke="white" stroke-width="0.5"/>
<path d="M328.711 320.08L317.051 318.94L309.611 321.7L306.441 323.34L297.401 324.53L292.091 325.15L284.681 328.45L281.041 334.89L274.721 338.71L269.451 341.99L264.721 345.26L262.641 348.48L259.501 351.19L254.211 351.83L237.451 353.67L239.431 355.85L240.591 361.65L240.191 369.06L242.381 373.24L245.081 376.35L245.661 379.51L242.601 385.91L236.891 391.31L234.891 397.68L234.991 403.37L235.001 403.48L244.991 402.2L250.751 399.97L259.661 396.1L265.381 390.2L270.581 384.29L275.791 378.92L279.961 374.62L287.331 371.86L293.671 370.17L302.641 367.92L312.161 366.73L321.671 365.02L326.961 363.9L353.071 356.71L353.121 356.24L351.971 352.38L348.651 350.48L345.441 347.47L342.111 345.57L340.161 343.65L338.581 339.24L337.141 334.54L332.331 327.25L328.661 321.74L328.711 320.08Z" fill="#CCCCCC" stroke="white" stroke-width="0.5"/>
<path d="M345.899 115.27L341.229 114.43L326.979 107.79L323.259 104.86L319.999 101.35L314.539 93.5999L313.329 91.4399L307.289 75.7799L306.819 73.6399L306.529 69.2999L306.609 67.9199L306.749 65.5199L307.199 63.3899L307.289 62.1299L306.989 61.1999L304.879 58.2599L303.789 56.0799L303.349 54.8799L302.889 52.7199L302.219 52.0299L300.389 50.9399L298.509 48.3999L297.799 48.0599L296.699 47.8699L294.419 47.0199L284.169 45.1699L276.349 44.8199V44.8299L276.319 45.4599L275.679 46.8599L274.629 51.0599L275.119 54.1299L276.479 57.4099L276.309 60.9299L274.359 63.3799L272.669 68.2499L271.859 73.4999L268.569 74.0299L261.979 74.8099L256.679 72.9399L252.649 68.8499L244.439 63.1199L241.609 66.4499L237.879 67.1899L236.339 67.0099L233.219 65.5399L229.929 65.6099L227.079 66.7799L222.049 68.2199L218.979 68.7299L211.049 68.4899L207.969 68.5699L210.739 73.8999L212.609 82.6399L215.829 89.0199L218.159 94.4199L219.789 100.7L222.639 104.78L228.139 111.65L231.329 113.57L234.099 115.35L234.979 116.33L241.619 128.75L246.209 140.21L248.949 146.99L256.299 150.94L261.039 152.97L266.529 156.97L277.659 159.99L281.529 161.91L281.819 162.12L286.129 165.23L287.169 174.02L287.759 181.4L287.619 188.07L285.179 192.51L281.879 195.98L281.299 197.08L283.599 198.4L287.429 202.11L291.259 206.36L298.839 208.94L303.699 209.95L308.029 211.5L313.959 211.42L317.209 213L318.849 214.59L322.119 219.93L325.929 224.19L332.929 225.18L336.149 222.46L340.979 219.72L345.809 218.06L352.829 220.15L357.679 221.72L360.059 223.33L364.669 216.29L365.729 210.36L364.089 202.83L362.439 193.68L358.079 181.83L354.239 171.05L352.569 160.23L350.349 148.87L347.029 136.41L344.809 127.74L344.759 117.95L345.639 115.86L345.899 115.27Z" fill="#CCCCCC" stroke="white" stroke-width="0.5"/>
<path d="M409.968 414.29L402.588 411.56L393.988 409.67L386.338 408.05L383.438 404.09L379.458 401.23L375.618 398.92L370.238 393.32L367.578 387.56L367.938 381.78L365.168 377.8L362.128 376.04L357.708 373.73L355.228 372.65L353.008 369.64L352.538 364.95L352.628 360.81L353.068 356.71L326.958 363.9L321.668 365.02L312.158 366.73L302.638 367.92L293.668 370.17L287.328 371.86L279.958 374.62L275.788 378.92L270.578 384.29L265.378 390.2L259.658 396.1L250.748 399.97L244.988 402.2L234.998 403.48L234.988 403.37L221.648 408.26L212.208 410.6L208.598 413.85L203.468 420.3L198.288 424.11L186.218 424.97L177.878 427.84L173.188 429.56L169.068 432.83L162.778 433.55L155.908 432.2L150.778 436.56L145.658 440.93L139.898 441.65L130.478 442.5L126.238 441.07L117.168 436.68L107.378 442.29L104.008 451.33L104.378 462.32L104.238 473.82L104.078 484.27L110.188 495.52L111.478 502.76L110.788 510.32L112.868 511.01L114.518 511.91L115.808 513.6L119.308 520.73L122.938 528.16L123.008 528.32L128.658 539.85L132.188 547.03L136.038 554.87L140.478 555.96L144.918 557.03L149.368 558.11L153.808 559.19L158.248 560.28L162.698 561.35L167.128 562.43L171.568 563.51L176.018 564.59L180.458 565.67L184.898 566.75L189.338 567.83L193.788 568.91L198.228 569.99L202.668 571.06L207.118 572.14L212.228 573.39L218.138 576.71L220.968 579.25L227.268 584.88L233.568 590.51L239.858 596.13L246.158 601.75L248.448 603.8L249.178 604.18L249.958 604.09L253.138 602.35L261.758 597.64L270.368 592.92L278.978 588.2L287.588 583.48H287.598L287.628 583.46L288.518 583.01L291.418 581.58L294.328 580.15L297.218 578.72L300.128 577.29L303.028 575.86L305.938 574.43L308.838 573L311.738 571.57L314.648 570.14L317.548 568.7L320.458 567.27L323.358 565.84L326.258 564.4L329.158 562.97L332.068 561.54L334.968 560.1L337.208 559L338.238 558.86L342.818 561.33L349.048 564.67L355.258 568.02L361.478 571.36L367.698 574.7L373.918 578.04L380.138 581.38L386.358 584.71L392.568 588.05L398.788 591.38L405.008 594.71L411.228 598.04L417.448 601.37L423.668 604.7L429.878 608.02L436.098 611.35L442.318 614.67L448.538 617.99L454.758 621.31L460.968 624.63L467.198 627.95L473.418 631.26L479.628 634.57L485.848 637.89L492.068 641.2L498.288 644.51L499.378 645.09V640.84V640.27V639.7L499.368 639.12V638.55V637.98V637.41V636.84V636.27L499.258 609.22L499.148 582.07L499.038 554.83L498.928 527.48L498.818 500.03L498.708 472.47L498.598 444.79L498.478 417L496.368 415.97L491.068 414.12L484.258 412.41L476.368 410.83L470.648 409.41L465.608 408.82L460.438 404.12L455.818 398.74L449.948 396.09L442.838 397.85L437.368 400.72L435.048 403.6L428.498 408.39L424.408 409.62L417.858 410.16L414.188 412.5L409.968 414.29Z" fill="#CCCCCC" stroke="white" stroke-width="0.5"/>
<path d="M106.13 405.02L105.33 397.15L103.51 389.83L100.36 375.17L98.3798 363.61L97.0398 355.71L95.5198 342.52L92.6398 336.26L88.2798 333.25L81.8098 330.85L70.0198 328.69L60.3398 325.92L50.6398 323.15L40.8698 318.81L33.6498 314.61L33.4598 314.53L30.0398 325.87L29.1898 327L27.7798 327.77L26.5398 328.68L26.6998 329.87L27.4398 331.14L27.9398 332.32L27.5298 333.41L25.3598 335.81L24.6498 337.01L23.9798 340.35L23.1498 342.59L22.9098 343.5L22.8898 344.44L27.1498 359.54L28.1298 365.44L28.6198 366.55L29.1698 367.06L31.4198 368.32L32.2198 369.01L32.4198 369.82L31.1498 375.82L31.0098 377.79L31.5798 379.35L31.6998 380.55L29.5998 387.78L28.6498 388.91L10.8698 397.44L10.8098 398.56L10.6198 399.52L10.1798 400.33L8.45984 401.96L7.53984 404.19L6.83984 405.09L5.58984 407.74L6.76984 410.86L13.8198 420.78L21.5098 431.57L27.6898 440.23L35.3798 450.99L37.3198 454.56L37.9898 458.09L38.1998 465.41L38.4298 473.27L38.5298 480.97L39.1598 482.45L46.6498 486.87L47.5998 488.37L48.4798 493.52L49.1098 495.45L50.0198 496.47L56.6398 501.82L57.5798 502.19L59.5798 501.99L65.4498 499.8L71.0198 497.73L72.1098 497.61L73.1998 497.82L82.7998 501.02L94.8098 505.01L110.79 510.32L111.48 502.76L110.19 495.52L104.08 484.27L104.24 473.82L104.38 462.32L104.01 451.33L107.38 442.29L104.11 437.48L102.55 431.25L103.17 420.5L105.05 412.17L106.13 405.02Z" fill="#CCCCCC" stroke="white" stroke-width="0.5"/>
<path d="M259.431 234.86L259.551 231.67L256.941 228.35L252.751 223.81L247.451 219.99L240.901 216.78L237.901 215.02L233.791 214.15L229.471 215.4L223.861 220.09L221.131 222.57L218.021 226.34L213.981 231.54L211.631 236.54L209.111 240.71L206.031 244.89L203.111 249.48L198.451 255.96L193.211 261.9L187.601 264.9L183.231 267.58L180.371 269.37L177.401 272L175.751 275.98L172.271 279.61L167.261 279.8L162.861 277.6L162.401 273.13L159.311 272.55L155.261 272.3L151.621 271.88L145.511 269.33L143.121 269.01L136.771 267.18L135.181 270.17L135.101 270.34L134.171 271.64L132.471 273.96L126.971 272.66L123.751 269.3L118.641 270.38L116.831 270.46L112.051 269.7L110.151 270.77L106.771 273.04L103.571 273.05L96.8814 270.29L94.5614 268.58L88.0814 267.51L84.9414 263.32L84.1514 259.14L82.7214 255.85L79.8414 256.84L76.2014 259.28L75.2614 260.03L72.4514 262.42L67.9614 264.49L63.4614 266.42L59.1114 268.48L55.7914 269.09L48.5714 265L43.8614 263.16L41.5214 263.86L37.0014 265.25L33.0314 266.6L30.3814 268L28.2214 268.82L25.6914 288.92L26.3414 292.24L33.6914 311.79L33.6114 314.03L33.4614 314.53L33.6514 314.61L40.8714 318.81L50.6414 323.15L60.3414 325.92L70.0214 328.69L81.8114 330.85L88.2814 333.25L92.6414 336.26L95.5214 342.52L97.0414 355.71L98.3814 363.61L100.361 375.17L103.511 389.83L105.331 397.15L106.131 405.02L112.841 400.55L124.731 392.74L138.171 383.29L153.211 372.75L166.691 362.28L176.561 354.56L188.581 346.8L197.551 344.43L205.541 345.81L219.431 350.22L237.451 353.67L254.211 351.83L259.501 351.19L262.641 348.48L264.721 345.26L269.451 341.99L274.721 338.71L281.041 334.89L284.681 328.45L292.091 325.15L297.401 324.53L306.441 323.34L309.611 321.7L317.051 318.94L328.711 320.08L328.751 318.82L330.481 314.48L332.481 309.02L333.651 304.41L332.891 299.68L328.521 295.28L324.901 294.21L318.331 291.94L314.161 291.72L307.791 292.39L301.201 296.13L294.821 296.81L289.531 295.93L288.331 291.77L288.231 287.3L286.561 280.91L280.571 274.45L271.521 268.63L267.821 265.63L264.831 263.04L261.921 258.48L259.571 253.9L258.851 247.59L259.221 240.55L259.431 234.86Z" fill="#CCCCCC" stroke="white" stroke-width="0.5"/>
<path d="M262.399 40.76L261.929 40.68L260.919 40.31L258.639 37.83L254.259 34.03L251.509 32.24L249.689 30.41L248.839 30.04L248.539 29.85L247.629 29L247.139 28.81L237.859 27.2L235.999 26.38V26.39L232.769 29.21L228.869 33.49L228.679 34.6L224.169 35.08L223.389 35.17L216.819 38.19L214.419 38.94L210.669 40.11L208.139 45.69L207.329 48.79L205.589 49.94L199.859 51.74L200.579 52.71L203.069 55.51L206.239 59.6L207.679 65.06L207.969 68.57L211.049 68.49L218.979 68.73L222.049 68.22L227.079 66.78L229.929 65.61L233.219 65.54L236.339 67.01L237.879 67.19L241.609 66.45L244.439 63.12L252.649 68.85L256.679 72.94L261.979 74.81L268.569 74.03L271.859 73.5L272.669 68.25L274.359 63.38L276.309 60.93L276.479 57.41L275.119 54.13L274.629 51.06L275.679 46.86L276.319 45.46L276.349 44.83V44.82L274.889 44.76L273.879 44.43L271.669 43.21L270.899 42.52L270.099 42.08L262.399 40.76Z" fill="#CCCCCC" stroke="white" stroke-width="0.5"/>
<path d="M740.81 772.53V765.86V759.18V752.51V745.82H748.92L753.22 745.83H758.91L765.64 745.84H771.91H778.06L785.41 745.85H790.48L790.59 745.84L790.7 745.82L790.81 745.81L790.93 745.79L790.97 745.71L791.02 745.63L791.07 745.55L791.11 745.47V745.13V739.15L791.12 734.05V728.94V723.83L791.13 718.73V712.03V705.32L791.14 698.61V691.9V685.17V678.45L791.15 671.72V664.98V658.24V651.49V644.73V637.97V622.11V606.21V590.28V574.32V558.33V542.29V526.22V510.11V493.98V477.79V461.57V445.32V429.03V412.69V396.3V379.89V368.87V358.18H791.13L773.51 358.62L754.93 359.09L725.48 359.61L696.03 360.13L666.6 360.33L637.17 360.53L606.97 360.13L576.77 359.73L554.77 359.91L532.78 360.09L515.68 360.16L498.57 360.23L498.53 388.68L498.48 417L498.6 444.79L498.71 472.47L498.82 500.03L498.93 527.48L499.04 554.83L499.15 582.07L499.26 609.22L499.37 636.27V636.84V637.41V637.98V638.55V639.12L499.38 639.7V640.27V640.84V645.09L504.51 647.81L510.72 651.12L516.94 654.43L523.16 657.73L529.38 661.04L535.6 664.34L541.82 667.63L548.04 670.94L554.25 674.23L560.48 677.52L566.69 680.82L572.91 684.12L579.13 687.41L585.34 690.7L591.57 693.99L597.78 697.27L604 700.56L610.22 703.84L616.44 707.13L622.66 710.41L628.88 713.69L635.09 716.97L641.32 720.25L647.53 723.53L653.75 726.8L659.97 730.07L666.19 733.35L672.41 736.62L678.62 739.89L684.84 743.16L691.06 746.43L697.28 749.69L703.5 752.96L709.72 756.22L715.94 759.49L722.15 762.75L728.37 766.01L734.59 769.27L740.81 772.53Z" fill="#CCCCCC" stroke="white" stroke-width="0.5"/>
<path d="M308.032 211.5L303.702 209.95L298.842 208.94L291.262 206.36L287.432 202.11L283.602 198.4L281.302 197.08L279.722 200.14L276.712 204.31L275.382 207.45L275.482 211.83L276.422 215.9L276.532 220.56L276.182 223.53L274.142 226.4L270.142 228.88L263.802 233.54L259.432 234.86L259.222 240.55L258.852 247.59L259.572 253.9L261.922 258.48L264.832 263.04L267.822 265.63L271.522 268.63L280.572 274.45L286.562 280.91L288.232 287.3L288.332 291.77L289.532 295.93L294.822 296.81L301.202 296.13L307.792 292.39L314.162 291.72L318.332 291.94L324.902 294.21L328.522 295.28L332.892 299.68L333.652 304.41L332.482 309.02L330.482 314.48L328.752 318.82L328.712 320.08L328.662 321.74L332.332 327.25L337.142 334.54L338.582 339.24L340.162 343.65L342.112 345.57L345.442 347.47L348.652 350.48L351.972 352.38L353.122 356.24L353.072 356.71L352.632 360.81L352.542 364.95L353.012 369.64L355.232 372.65L357.712 373.73L362.132 376.04L365.172 377.8L367.942 381.78L367.582 387.56L370.242 393.32L375.622 398.92L379.462 401.23L383.442 404.09L386.342 408.05L393.992 409.67L402.592 411.56L409.972 414.29L414.192 412.5L417.862 410.16L424.412 409.62L428.502 408.39L435.052 403.6L437.372 400.72L442.842 397.85L449.952 396.09L455.822 398.74L460.442 404.12L465.612 408.82L470.652 409.41L476.372 410.83L484.262 412.41L491.072 414.12L496.372 415.97L498.482 417L498.532 388.68L498.572 360.23L498.692 284.36L490.242 283.74L490.252 283.63L475.862 279.25L464.812 275.5V276.5L459.042 274.62L451.032 272.45L444.102 267.62L438.782 262.26L436.672 254.22L434.572 247.79L430.302 242.42L426.022 237.58L423.892 232.21L422.832 227.92L418.542 224.15L414.772 224.16L411.002 226.31L406.142 230.62L401.302 229.02L393.772 226.89L388.392 222.08L381.932 221.57L376.542 223.75L366.852 224.35L360.922 222.78L360.062 223.33L357.682 221.72L352.832 220.15L345.812 218.06L340.982 219.72L336.152 222.46L332.932 225.18L325.932 224.19L322.122 219.93L318.852 214.59L317.212 213L313.962 211.42L308.032 211.5Z" fill="#CCCCCC" stroke="white" stroke-width="0.5"/>
<path d="M122.54 53.4L119.64 52.41L117.12 49.64L114.14 46.96L113.75 46.72L113.13 47.31L109.62 49.67L96.44 56L80.88 63.46L79.51 64.94L77.48 69.66L75.83 71.32L74 72.45L72.31 73.83L71.33 74.14L70.41 73.77L69.5 73.25L68.56 73.12L67.42 74.34L67 79.09L66.35 81.06L64.22 83.05L63.38 85.1L62.77 85.99L62.03 86.74L61.21 87.41L58.45 88.5L52.8 88.43L50.21 90.52L46.81 96.55L43.59 100.15L42.8 101.52L42.27 105.37L42.36 106.39L46.12 116.47L47.65 122.68L49.24 126.04L49.31 127.13L49.03 129.39L49.25 131.47L50.52 135.59L50.5 137.55L49.7 139.92L46.59 146.4L42.01 151.64L36.7 160.24L30.44 168.38L29.15 169.13L25.48 169.38L24 169.77L12.74 175.74L1 182.25L2.18 184.16L5.17 187.74L7.8 190.88L14.25 200.55L20.19 211.79L24.18 225.66L28.16 239.51L29.28 248.31L29.43 259.22L28.22 268.82L30.38 268L33.03 266.6L37 265.25L41.52 263.86L43.86 263.16L48.57 265L55.79 269.09L59.11 268.48L63.46 266.42L67.96 264.49L72.45 262.42L75.26 260.03L76.2 259.28L79.84 256.84L82.72 255.85L84.15 259.14L84.94 263.32L88.08 267.51L94.56 268.58L96.88 270.29L103.57 273.05L106.77 273.04L110.15 270.77L112.05 269.7L116.83 270.46L118.64 270.38L123.75 269.3L126.97 272.66L132.47 273.96L134.17 271.64L135.1 270.34L135.18 270.17L133.66 259.79L132.44 255.01L127.96 248.73L123.98 241.9L124.01 225.78L122 213.47L119.96 200.06L118.46 187.16L118.08 175.28L118.29 164.99L116.96 157.44L117.4 154.17L120.03 151.37L124.16 144.7L130.93 134.68L135.75 125.88L134.87 125.53L132.32 120.82L130.2 116.08L129.39 110.87L129.81 103.41L129.19 97.52L129.42 90.5L130.33 84.55L129.54 80.19L128.68 73.85L129.55 66.35L130.69 60.38V53.3L122.54 53.4Z" fill="#CCCCCC" stroke="white" stroke-width="0.5"/>
</svg>
