<svg width="555" height="794" viewBox="0 0 555 794" fill="none" xmlns="http://www.w3.org/2000/svg">
<path d="M201.92 1L200.32 1.85863L202.96 1.87L201.92 1Z" fill="#CCCCCC"/>
<path d="M205.12 9.35L206.44 13.79V20.19L207.14 22.36L215.29 27.67L222.67 31.02L224.27 32.65L229.63 34.38L231.72 33.73L235.68 30.16L241.04 30.7L240.97 27.99L242.23 25.06L241.32 15.09L242.65 14.23L245.08 14.01L247.1 15.31L251.9 16.94L254.34 16.29L256.78 14.77L257.54 14.98L264.44 19.75L268.68 23.66L268.27 25.5L264.71 31.57L266.52 32.43L268.27 35.03L271.4 36.77L272.65 38.61L269.45 40.13L265.62 44.03L264.44 47.17L263.6 51.61L264.02 52.8H269.24L272.51 54.64L275.51 58.32L277.45 59.73L281 59.3L279.26 65.36L274.88 67.64L273.42 70.99L273.21 73.48V75.11L273.9 76.41L276.27 75.76L280.03 76.62L280.24 78.46L278.57 81.6L277.45 82.69V83.66L280.38 86.48L280.52 87.88L279.96 89.18L279.06 89.83L274.46 89.94L274.11 90.48L274.04 92.64L274.67 94.81L276.48 96.32L278.29 96.54L278.85 97.19L278.71 99.57L277.66 100.87L276.41 101.3L272.72 100L270.84 99.79L270.08 100.33L269.38 102.17L269.24 106.28L270.7 108.77L270.91 112.99L270.7 113.64L268.96 113.31L268.06 114.07L265.06 118.94L265.41 121.43L266.46 122.4L267.22 122.83L269.45 122.72L270.49 122.18L271.19 120.34L269.38 119.26L269.66 117.75L270.98 116.02H272.23L275.64 118.61L276.27 119.91L276.2 121.1L270.56 126.19L270.08 130.19L268.96 130.29L265.48 127.81L263.74 128.56L262.21 135.27L263.81 139.05L265.34 139.49L266.66 139.16L267.57 138.3L268.06 134.84L268.61 134.08L271.05 133.86L272.65 135.16L272.51 138.08L270.42 141.76V143.06L279.54 155.49L279.61 158.41L277.04 167.27L282.4 171.05L285.11 172.13L286.92 173.43L287.69 174.83L287.97 176.56L287.48 177.75L283.16 183.8L281.28 184.56V185.31L281.98 186.29L284.56 187.69H288.04L289.71 188.66L290.68 189.53L290.82 192.88L286.16 201.63L285.32 201.84L283.65 200.33L282.26 199.9L281.49 200.76L281.7 203.14L284 205.41L286.85 205.19L289.08 205.84L290.47 208L291.66 211.24L293.95 213.72L296.04 214.26L299.31 213.83L302.45 215.23L302.66 216.74L299.52 225.49L299.45 232.18L301.12 235.09L300.78 236.82L302.52 239.52L304.61 240.81L306.76 241.14L307.6 248.58L308.09 249.99L309.13 251.07L310.87 251.39L314.91 249.88L316.37 247.94V247.07L313.8 245.35L313.38 244.59L311.77 238.76L314.98 234.34L317.76 234.12L318.74 235.2L318.67 238.66L320.13 242.33L319.85 247.29L322.15 252.15L323.33 255.92L323.82 255.81L324.31 254.63L325.49 250.42L328.14 248.37L329.74 248.69L330.36 249.45L332.45 253.87H340.04V255.27L336.21 259.48L336.28 260.34L339.48 262.83L343.03 267.79V268.44L340.95 270.48L342.2 276.85L338.44 280.08L336.63 280.73V282.24L336.77 283.1L337.88 284.07L344.91 285.8L345.82 287.42L347.56 293.35L347.49 294.53L345.89 296.26L343.66 296.04L343.31 296.47L345.26 299.38L347.56 308.01L352.5 311.35L356.82 311.99L358.56 314.69L358.84 316.95L359.47 318.03L362.11 320.29L364.27 323.09L366.29 328.26L368.58 328.91L375.76 332.9H376.87L379.38 330.74L380.98 330.85L383.62 334.3H385.99L387.45 335.05L388.22 340.11L391.56 343.88L393.09 343.99L397.48 340.65L398.52 340.33L399.91 340.22L402 341.19L403.05 342.91L403.39 344.75L402.98 348.95L403.53 350.88L398.03 353.68L399.84 356.81L400.68 364.34L395.74 365.2L392.6 362.94L391.21 362.62L388.98 363.7H385.5L383.48 364.56L372.2 362.19L367.26 366.82L369.35 370.05L372.9 370.91L361.55 382.97L362.11 388.02L362.74 389.85L365.03 390.93L372.41 392.87L372 396.2L371.79 397.49L371.09 397.6L369.91 399H368.52L369.07 400.61L368.03 401.9L368.45 403.95L364.13 404.49L360.79 403.84L361.48 404.49L364.96 412.12L362.32 414.6L361.62 415.89L355.36 419.33L354.94 422.56L358.63 426.53L359.81 429.98L357.45 430.94L355.57 427.61L353.48 430.3L351.81 429.33L349.44 429.01L348.53 423.31L347.35 421.48L346.79 422.02L345.68 418.9L340.25 420.84L339.07 421.7L338.58 424.49L337.33 424.38L336.21 426.43L332.38 424.17L330.16 422.23L328.42 418.25L327.16 417.29L325.7 417.18L324.45 416.21L322.71 415.78L323.26 415.03L322.77 414.81L322.85 413.74L321.17 413.31L319.15 411.26L318.81 411.91L317.42 411.8L318.18 410.51L316.65 410.19L316.09 408.47L317.62 405.02L317.9 401.37L317.21 397.92L315.68 395.66L315.4 391.14L313.31 390.5L305.16 393.08L300.99 391.47L297.44 391.14L296.18 392.33L289.5 396.2L289.15 393.51L289.64 392.97L289.08 392.01L288.94 389.96L287.2 386.84L286.37 387.06L286.02 386.41L276.62 393.19L275.64 395.34L275.09 394.8L269.87 399.11L261.23 404.59L258.87 400.72L254.76 399.43L251.56 399L250.58 397.39L251.63 395.77L251.56 394.7L249.75 391.57L247.52 391.25L247.24 390.71L243.62 391.25L235.96 388.02L235.61 387.38L236.31 384.04L236.03 383.5L234.99 382.97L229.56 382.54L229.28 380.27L230.18 379.09L229.28 378.23L228.37 379.74L228.65 381.35L227.54 382.97L225.94 383.4L220.09 386.95L220.58 388.13L219.18 389.1L215.98 386.84L214.24 386.73L212.85 387.49L213.13 390.61L211.25 390.93L207.35 394.05L207.14 395.66L204.56 401.37L204.84 402.55L204.42 404.27L206.23 405.45L205.89 406.96L211.6 411.26L208.6 411.48L204.84 414.06L198.44 416.86L199.27 418.79L195.24 420.19L195.51 422.77L195.03 424.81L193.43 425.89L193.98 426.86L194.05 429.33L188.41 429.12L186.67 429.98L183.96 432.77L184.03 433.95L183.26 435.03L184.65 437.07L185.63 440.08L184.31 441.91L185.35 442.77L187.16 442.98L186.74 444.7L185.35 444.6L184.51 445.46L182.77 445.67L182.08 446.42L182.63 447.93L184.03 448.36L182.98 449.22L182.77 450.4L183.19 453.3L183.68 453.41L184.65 456.21L181.52 457.71L181.94 458.14L180.41 460.07L180.2 461.47L177 463.94L177.34 465.12L176.44 466.2L177.2 467.27L177.41 469.1L175.74 469.85L174.84 471.25L176.51 472.11L178.46 475.12L176.37 476.73L177.34 477.48L177.27 478.34L180.62 477.16L181.52 478.77L183.19 477.69L182.91 477.05L183.33 476.84L186.05 481.67H187.09L189.46 483.39L188.97 484.46L185.56 486.18L188.06 489.19L187.09 491.98L188.83 493.91L187.65 494.45L188 495.74L185.91 496.71L187.16 499.18L178.32 502.08L177.27 501.32V497.56H175.88L172.4 498.75L170.87 500.25L168.5 501.22L164.95 501.32L163.49 499.61L162.93 501.75L158.76 504.12L154.51 507.87L152.49 508.84L151.58 510.77L150.26 511.85L150.05 513.78L146.92 513.99L142.95 517.75L136.41 520.97L130.98 521.51L124.43 519.9L121.3 515.6L122.07 510.88L121.16 509.81L118.38 510.88H115.1L115.45 509.48L113.23 508.95L108.77 511.63L106.82 511.74L104.66 512.81L101.53 508.09L99.23 506.59L97.7 504.55L97.77 503.9L98.74 503.15L98.33 501.65L98.54 500.14L98.12 499.82L94.71 500.14L93.11 496.81L92.2 495.95L89.14 494.77L86.84 494.34L85.45 494.67L83.43 496.17L80.85 496.81L76.54 499.71L72.5 499.39L69.92 497.56L67.49 497.67L64 498.75L63.17 496.71L63.8 493.81L63.03 489.73L64.56 487.26L64 484.14L64.42 481.45L66.93 478.98L66.37 476.19L66.79 472.22L65.26 469.96L61.29 469.64L58.09 464.91L56.35 457.82L52.45 452.55L51.82 447.61L50.64 444.17L49.11 441.37L45.9 439.11L44.37 433.85L40.89 430.62L40.75 426.21L39.01 422.13L37.76 420.51L35.88 419.65L34.7 420.19L32.4 423.2L31.42 423.31L29.27 421.48L27.8 421.37L25.99 422.66L19.1 423.63L14.16 425.14L13.04 422.02L13.18 419.65L12.21 416.43L11.37 409.86L10.47 407.71L11.03 401.15L9.63 399.32L8.45 398.68L6.92 394.7L7.13 393.94L9.98 391.04L10.12 389.53L7.41 382.1L5.04 379.41L4.48 378.01L4.55 376.51L5.87 374.46L7.06 374.25L9.7 374.79L11.16 373.92L11.44 372.2L10.05 368.54L10.68 365.42L14.02 367.03L16.11 365.96L16.87 364.56L16.8 361.87L14.78 359.39L9.42 358.85L9.01 357.88L9.29 357.34L11.23 357.02L14.37 355.51L17.22 355.62L18.47 354.11L18.41 353.04L14.92 349.16L15.97 344.1L13.53 340.87L14.78 337.42L16.18 337.21L19.03 340.54L21.12 341.3L22.37 340.54L24.32 338.07L25.23 337.74L26.06 338.5L27.04 342.59L28.29 342.91L29.2 341.94L30.38 337.96L32.89 338.07L34.77 337.1L34.49 335.81L31.56 334.19L31.28 333.44L31.98 333.11L33.93 334.3L34.9 330.42L33.79 328.69L31.63 327.19L31.15 325.25L30.24 324.39L27.04 323.63L25.44 321.58L21.68 319.75L15.97 318.67L9.63 315.55L6.64 312.64L4.34 312.42L1.7 311.02L1 308.44L4.34 304.56L4.13 303.48L6.78 302.29L9.49 297.55L18.27 291.94L20.08 289.9L19.66 288.71L20.01 285.15L19.66 282.99L20.84 282.13L20.28 280.73L21.33 273.94L24.81 273.07L24.6 271.24L25.58 268.11L28.29 265.85L27.94 263.8L26.06 260.02L26.9 258.73L25.3 255.17L26.27 252.15L27.8 250.53L28.15 248.8L27.32 246.21L28.99 244.92L29.13 241.89L32.12 240.17L33.09 240.28L34.9 241.89L38.8 240.92L39.64 239.84L39.43 238.66L43.33 236.17L45.9 238.76L48.55 238.66L50.64 239.2L51.96 238.44L52.94 237.04L52.45 234.56L53.42 232.83L53.28 231.32L53.98 230.13H58.44L59.76 229.48L62.75 226.14L64.56 226.24L67.9 224.62L71.66 220.2L72.85 217.5L73.19 211.13L72.43 209.51L71.52 208.97L67.69 209.4L65.95 206.05L61.92 202.49L60.8 199.9L60.94 197.63L60.18 195.58L60.66 192.66L59.41 188.77L59.83 187.58L59.55 185.85L61.64 184.23L65.54 184.02L66.72 182.18L68.39 181.64L69.36 180.02L72.15 179.48L73.54 179.91L74.86 179.7L78.63 176.89L82.25 175.05L81.9 171.81L83.22 170.94L83.43 169.75L87.88 168.24L87.61 166.19L86.49 164.46L86 160.24L87.4 158.41L89.9 157L89.83 154.73L92.9 152.57L93.24 150.62L94.57 149.87L94.71 148.89L93.52 145.22L91.92 143.06L90.04 141.11L86.49 140.46L84.12 135.59L85.59 132.03L86.42 128.24L87.95 125.43L89.97 124.67L92.34 122.94L93.31 120.78L94.36 119.91L101.74 117.1L103.13 118.07L107.17 115.26L107.79 113.31L107.73 109.31L106.75 102.82L108.35 98.27L112.53 90.37L113.23 86.15L113.29 79.76L113.85 78.36L115.1 77.49L117.4 74.24L123.04 70.99L124.92 69.04L128.19 68.4L136.34 63.52L145.04 60.49L149.98 59.84L153.4 58.22L158.2 57.13L157.01 48.79L158.82 45L157.5 36.12L158.69 34.82L160.08 34.38L162.51 32.33L160.29 25.82L159.24 25.17L160.64 21.49L161.12 13.68L165.3 10L185.07 9.35L189.6 7.61L201.92 1L202.96 1.87L1 1" stroke="white" stroke-width="0.5"/>
<path d="M403.53 350.88L400.739 352.301L409.17 359.71L408.82 358.42L406.46 356.05L403.53 350.88Z" fill="#CCCCCC"/>
<path d="M408.82 364.56L407.57 368.33L407.64 371.34L409.24 373.92L412.03 375.86L413.35 376.08L416.34 375.22L419.75 372.42L421.01 364.67L422.75 362.51L427.13 361.01L431.52 360.58L436.67 360.47L439.25 361.44L442.66 366.07L444.26 369.08L450.8 376.19L452.82 379.41L459.16 387.16L461.6 391.9L463.27 393.08L471.9 396.42L480.88 397.92L482.06 401.8L484.36 403.52L485.89 403.63L492.09 399.97L493.34 402.23L494.73 402.76H500.93L503.44 400.4L506.78 395.88L512.9 390.71L518.26 394.26L520.28 396.31L521.95 399.97L525.23 402.23L526.76 402.76L530.59 402.44L536.99 405.67L539.98 412.45L541.45 413.31L543.26 412.23L544.79 409.54L545.83 405.99L546.25 401.9L549.1 401.69L551.75 403.52L552.52 404.59L553.84 408.79L553.56 409.86L551.61 411.8L548.69 416.75L546.04 419.44L539.22 423.09L537.13 425.03L537.41 427.4L538.38 428.9L539.64 430.19L543.81 432.23L544.65 433.2L544.79 434.49L541.93 438.47L541.1 440.4L540.68 443.41L541.17 444.81L544.79 449L545.48 455.13L544.37 458.03L540.19 461.36L535.39 463.94L534.28 465.12L533.72 465.98L533.23 469.64V470.82L534.62 474.26L534.28 484.57L534.69 488.11L537.34 490.91L544.37 495.85L544.51 497.78L542.63 499.5L540.26 499.61L537.13 495.85L534.48 493.7L532.19 493.27L530.52 493.81L529.96 494.67L529.75 497.56L532.88 501L537.48 504.65L537.9 505.83L537.48 507.34L530.66 512.27L521.12 524.4L518.33 526.87L514.99 527.95L512.62 529.34L505.04 531.6L503.3 533.53L502.46 536.64L497.38 545.01L494.18 548.55L484.29 556.06L481.58 561.42L481.85 563.57L482.69 565.07H488.95L491.6 567.43L491.81 570.54L490.49 575.47L483.52 591.34L479.35 605.91L477.89 609.02L476.08 611.38L473.64 612.88L470.09 616.63L466.61 621.66L465.42 624.45L463.61 626.59L461.32 628.09L457.56 629.37L454.35 629.59L452.4 630.87L447.04 636.77L445.72 639.44L445.93 644.58L447.18 647.15L449.83 649.29L450.73 652.93L450.18 654.01L449.2 654.75H447.67L446.28 654.22L443.63 652.08L440.71 652.51L436.74 654.75L433.75 658.82L433.68 661.07L436.18 664.28L443.01 668.88L449.2 673.91L450.73 676.27L450.53 678.09L448.16 683.76L444.96 687.4L440.08 694.24L436.6 696.92L433.47 701.95L432.77 704.3L432.84 706.01L440.08 730.18L440.22 744.07L441.54 748.78L440.57 757L440.29 768.12L440.85 778.9L438.48 779.87L437.51 779.54L434.37 777.3L429.99 772.18L428.8 771.96L425.81 773.14L422.68 770.47L421.49 771.32L420.1 770.79L417.46 771.85L416.41 771.11L415.86 769.82L414.39 769.18L412.72 766.62L408.06 761.6L403.46 760.74L402.98 759.25L401.51 759.14L397.2 761.39L391.77 758.29L390.44 757.11L390.51 755.94L393.37 750.49L392.19 749.63L390.93 750.49L388.22 750.59L387.31 753.48L385.85 753.37L384.11 749.52L383.14 748.46L382.79 746.64L383 745.68L385.57 746.32L386.2 743.54L384.81 743.01L382.16 744.18L380.49 743.86L379.65 742.79L379.03 739.8L379.44 735.31L378.89 733.92H377.43L374.5 732.74L367.68 733.06L366.98 732V730.5L364.27 728.9L363.78 725.69L361.9 725.58L357.65 727.83L356.05 726.86L354.87 724.4L353.27 723.87L351.88 722.05L351.53 719.81L350.27 718.63L349.02 718.42L348.95 716.49L348.33 716.06L351.04 710.61L348.19 706.97L351.32 704.41L348.74 700.98L348.19 701.41L346.59 700.02L345.54 698.2L345.26 696.6H343.73L344.22 693.92L343.17 693.28L343.87 691.36L343.03 690.5L344.36 689.11L343.73 688.25L342.62 689L341.23 686.65L341.85 686.33L340.88 685.9L337.53 680.76L337.05 678.3L342.13 675.52L344.71 680.02L346.79 679.05L347.63 679.91L348.26 679.37L348.47 678.94L346.45 677.13L344.98 674.45L346.24 671.77L345.4 670.06L346.86 667.17L345.75 665.03L346.31 664.5L345.19 663.43L345.05 661.18L346.31 661.93L350.14 661.71L351.95 664.5L352.64 664.82L356.33 664.92L360.37 664.18L364.06 662.03L362.11 659.89L362.32 656.79L364.06 653.15L364.96 652.61L368.86 652.93V651.76L370.33 651.65L370.05 650.26L370.95 648.12L370.81 647.37L372.27 646.19L377.01 645.65L382.37 644.05H388.77L391.7 645.55L394.27 648.22L394.62 647.9L395.25 646.51L395.18 644.05L394.27 639.87L393.3 639.12V637.62L390.86 634.73L389.75 630.87L386.48 630.55L385.85 630.12L385.22 628.09L383.48 627.77L382.93 627.02L379.86 627.23L378.61 627.98L377.64 627.77L377.5 628.41L375.96 628.84L375.27 628.09L377.5 624.23L388.5 611.8L395.74 602.8L398.17 600.66L398.87 599.7L398.73 595.94L397.96 594.34L395.81 593.16L394.9 590.05L394.34 590.26L394.13 589.84L391.77 590.91L390.03 590.69L389.96 588.76L388.15 588.87L386.27 586.19L386.48 582.44L385.78 579.97L386.13 579.44L385.36 578.15L385.92 577.83L385.36 576.54L381.53 574.5L380.7 573.54L380.35 567.43L379.52 567.53L379.44 567.1L382.93 566.35L383.48 560.13L380.35 560.03L378.96 560.46L378.19 555.84L378.61 554.98L378.68 548.12L377.91 546.51L374.02 549.51L373.18 546.83L372.14 546.73L371.65 548.01L370.95 548.23L370.33 543.29L369.14 541.36L368.86 539.86L365.52 538.89L363.5 537.39L363.36 538.03L361.07 538.68L360.02 538.36L359.67 539.21L357.52 538.03L350.07 540.4L348.53 540.29L347.28 538.46L345.75 538.89L343.94 538.68L343.1 537.93L341.99 538.25L340.6 539.86L339.9 538.25L334.61 538.57L332.59 534.17L326.19 535.14L322.01 535.24L321.17 536.1L321.24 536.96L322.5 538.68L319.02 541.36L317.48 539.75L311.15 538.68H310.18L309.69 540.18L309.13 539.97L309.69 536.96L306.21 537.07L305.3 537.93H303.42L301.4 536.75L305.16 534.06L307.25 533.31L308.02 534.17L309.13 532.78L309.55 533.1L310.31 532.78L311.01 530.63L311.92 529.99L309.48 527.3L309.55 526.55L312.61 524.51L313.52 518.5L315.12 516.14L314 514.21L314.77 512.6L314.91 508.95L313.38 506.59L321.24 501.22L323.47 501L325.84 499.61L325.49 497.89L329.32 496.92L329.39 496.06L327.72 494.02L329.95 492.52L333.78 491.55L333.5 490.58L337.4 486.93L337.47 486.07L339.83 482.53L340.04 479.52L343.03 470.07L343.38 469.74L344.91 471.14L348.33 471.57L352.22 472.97L356.75 473.29L358.91 473.94L366.22 473.61L368.1 474.47L368.52 474.26L369 471.79L373.88 465.88L374.29 460.93L376.8 459.32L378.54 455.56L376.31 455.02L375.76 453.52L379.24 450.08L379.17 448.9L377.08 449L376.1 447.28L374.64 447.39L371.93 448.9H371.37L370.88 448.14L370.05 448.57L370.12 447.82L369.07 448.47L367.96 448.36L367.33 442.77L366.36 440.3L367.75 439.98L367.19 437.72L363.99 439.22L361.41 438.25L359.26 440.19L356.47 435.89L355.91 436.21L355.57 435.67L354.31 436.64L353.27 434.49L349.72 435.35L349.44 434.17L351.88 433.42L352.92 432.23L354.94 432.02L357.45 430.94L359.81 429.98L358.63 426.53L354.94 422.56L355.36 419.33L361.62 415.89L362.32 414.6L364.96 412.12L361.48 404.49L360.79 403.84L364.13 404.49L368.45 403.95L368.03 401.9L369.07 400.61L368.52 399H369.91L371.09 397.6L371.79 397.49L372 396.2L372.41 392.87L365.03 390.93L362.74 389.85L362.11 388.02L361.55 382.97L372.9 370.91L369.35 370.05L367.26 366.82L372.2 362.19L383.48 364.56L385.5 363.7H388.98L391.21 362.62L392.6 362.94L395.74 365.2L400.68 364.34L399.84 356.81L398.03 353.68L403.53 350.88L406.46 356.05L408.82 358.42L409.17 359.71L1 1" stroke="white" stroke-width="0.5"/>
<path d="M106.82 511.74L104.804 512.739L105.08 514.1L101.74 517.75L99.37 521.29L94.85 524.83L91.36 529.99L91.3 532.78L90.53 533.96L89.14 539.54L88.72 543.93L91.78 549.84L95.54 550.37L97.35 551.98H100.62L102.92 554.13L103.13 555.84L105.5 557.67L106.68 557.56L108.28 555.95L109.88 558.1L112.25 557.24L114.2 559.06L116.5 557.67L117.19 558.2L116.43 560.13L116.57 561.42L118.17 561.74L120.12 560.35L121.23 560.56L122.28 561.74L121.86 562.92L118.59 564.75L116.71 568.18L118.52 571.07L116.92 572.57L116.22 574.72L116.71 576.33V582.22L117.89 582.97L117.96 586.08L119.63 588.76L119.14 590.26L115.87 593.59L112.81 591.44L108.98 591.55L105.85 592.52L103.27 596.48L103.34 597.87L105.01 600.02V600.87L101.81 603.66L97.84 608.91L96.93 613.84L97.98 616.63L97.28 621.34L95.61 622.63L91.71 624.13L86.28 628.95L81.13 631.62L79.04 634.73L80.02 640.94L81.76 644.05L84.19 645.12H89.76L90.95 644.37L92.2 642.33L94.36 643.4L95.26 647.69L93.87 648.54L92.41 651.76L94.57 652.4L94.15 654.33L94.43 658.07L93.94 658.61L92.69 658.4L89.21 661.71L87.61 662.35L87.12 665.25L86.21 666.21L83.99 666.42L82.25 667.17L79.95 669.63L76.88 670.81L76.05 673.27L77.02 676.7L75.21 679.48L73.96 680.34L68.74 681.73L65.68 683.76L64.35 682.9L62.61 683.33L60.11 685.26L57.53 688.36L56.9 688.57L56.7 688.04L56.14 688.68L52.73 689.54L52.8 691.04L57.67 697.13L60.52 696.17L66.09 693.07L71.45 691.25L72.08 692.21L71.73 694.03L73.19 697.67L76.54 703.66L75.35 705.16L69.99 707.83L69.5 709.33L70.06 714.03L71.38 716.06L75.49 719.38L79.53 721.2L80.16 723.34L80.36 727.4L84.06 729.11L87.54 731.46L89.28 734.67L91.78 737.13L93.31 738.19L95.33 737.34L96.45 737.45L97.84 738.73L102.43 737.55L110.79 740.65L116.78 738.94L121.72 735.52L125.27 734.88L133.97 738.84H135.09L140.58 736.16L143.16 736.59L146.08 738.52L147.62 740.55L148.94 741.08L151.93 743.75L154.37 744.07L158.82 743.54L161.19 743.97L162.45 745.78L162.38 749.95L163.56 754.01L166.55 756.04L167.25 759.68L166.76 762.45L165.02 765.02L166.62 773.35L169.96 778.9L171.5 778.26L172.61 776.13L173.58 775.81L175.88 776.77V778.9L174.84 783.82H173.51L171.77 783.07L170.31 784.14L169.75 786.7L170.73 788.73L171.98 789.37L184.17 782.86L186.74 783.5L189.6 787.02L190.71 787.34L191.75 786.49L192.87 786.27L194.05 786.81L195.44 785.85L201.57 784.35L202.96 785.1L204.22 787.66L203.17 790.44L203.8 791.29L204.91 790.76L208.32 790.65L213.68 793L216.89 786.27L217.93 782L220.02 777.62L223.08 772.92L224.48 772.6L227.61 773.99L229.7 774.1L232.27 773.88L235.47 772.18L235.75 772.71L235.06 773.88L237.91 773.46L239.65 773.78L240.56 774.85L240.28 780.51L240.77 781.36L246.82 785.31L249.82 786.27L254.34 786.7L254.41 784.03L252.6 776.23L254.97 769.93L257.2 767.58L259.28 766.41L261.16 766.19L263.6 768.44L269.59 765.66L269.94 761.71L272.37 756.36L272.44 747.07L273.14 744.39L274.39 744.93L276.06 747.81L277.32 748.24L281.98 746.32L283.37 746.21L283.44 748.14L282.54 750.81L283.72 750.91L288.38 747.17L289.78 746.64L291.03 744.39L292.07 743.75L293.54 746.1L296.11 745.14L295.9 743.43L293.81 741.19L291.8 736.48V735.1L293.12 732.64L297.99 731.89L303.49 728.9L305.93 726.54L307.39 726.44V728.25L308.23 729.54L312.75 728.9L315.4 730.18L319.3 729.75L321.52 731.46L325.98 730.07L328.62 730.82L335.17 730.61L335.66 729.11L335.59 726.44L338.3 727.83L342.69 726.33L343.87 727.29L344.98 726.12L349.02 727.61L350 727.08L350.9 722.05H351.88L351.53 719.81L350.27 718.63L349.02 718.42L348.95 716.49L348.33 716.06L351.04 710.61L348.19 706.97L351.32 704.41L348.74 700.98L348.19 701.41L346.59 700.02L345.54 698.2L345.26 696.6H343.73L344.22 693.92L343.17 693.28L343.87 691.36L343.03 690.5L344.36 689.11L343.73 688.25L342.62 689L341.23 686.65L341.85 686.33L340.88 685.9L337.53 680.76L337.05 678.3L342.13 675.52L344.71 680.02L346.79 679.05L347.63 679.91L348.26 679.37L348.47 678.94L346.45 677.13L344.98 674.45L346.24 671.77L345.4 670.06L346.86 667.17L345.75 665.03L346.31 664.5L345.19 663.43L345.05 661.18L346.31 661.93L350.14 661.71L351.95 664.5L352.64 664.82L356.33 664.92L360.37 664.18L364.06 662.03L362.46 660.64L362.11 659.57L362.32 656.79L364.06 653.15L364.96 652.61L368.86 652.93V651.76L370.33 651.65L370.05 650.26L370.95 648.12L370.81 647.37L372.27 646.19L377.01 645.65L382.37 644.05H388.77L391.7 645.55L394.27 648.22L394.62 647.9L395.25 646.51L395.18 644.05L394.27 639.87L393.3 639.12V637.62L390.86 634.73L389.75 630.87L386.48 630.55L385.85 630.12L385.22 628.09L383.48 627.77L382.93 627.02L379.86 627.23L378.61 627.98L377.64 627.77L377.5 628.41L375.96 628.84L375.27 628.09L377.5 624.23L388.5 611.8L395.74 602.8L398.17 600.66L398.87 599.7L398.73 595.94L397.96 594.34L395.81 593.16L394.9 590.05L394.34 590.26L394.13 589.84L391.77 590.91L390.03 590.69L389.96 588.76L388.15 588.87L386.27 586.19L386.48 582.44L385.78 579.97L386.13 579.44L385.36 578.15L385.92 577.83L385.36 576.54L381.53 574.5L380.7 573.54L380.35 567.43L379.52 567.53L379.44 567.1L382.93 566.35L383.48 560.13L380.35 560.03L378.96 560.46L378.19 555.84L378.61 554.98L378.68 548.12L377.91 546.51L374.02 549.51L373.18 546.83L372.14 546.73L371.65 548.01L370.95 548.23L370.33 543.29L369.14 541.36L368.86 539.86L365.52 538.89L363.5 537.39L363.36 538.03L361.07 538.68L360.02 538.36L359.67 539.21L357.52 538.03L350.07 540.4L348.53 540.29L347.28 538.46L345.75 538.89L343.94 538.68L343.1 537.93L341.99 538.25L340.6 539.86L339.9 538.25L334.61 538.57L332.59 534.17L326.19 535.14L322.01 535.24L321.17 536.1L321.24 536.96L322.5 538.68L319.02 541.36L317.48 539.75L311.15 538.68H310.18L309.69 540.18L309.13 539.97L309.69 536.96L306.21 537.07L305.3 537.93H303.42L301.4 536.75L305.16 534.06L307.25 533.31L308.02 534.17L309.13 532.78L309.55 533.1L310.31 532.78L311.01 530.63L311.92 529.99L309.48 527.3L309.55 526.55L312.61 524.51L313.52 518.5L315.12 516.14L314 514.21L314.77 512.6L314.91 508.95L313.38 506.59L321.24 501.22L323.47 501L325.84 499.61L325.49 497.89L329.32 496.92L329.39 496.06L327.72 494.02L329.95 492.52L333.78 491.55L333.5 490.58L337.4 486.93L337.47 486.07L339.83 482.53L340.04 479.52L343.03 470.07L343.38 469.74L344.91 471.14L348.33 471.57L352.22 472.97L356.75 473.29L358.91 473.94L366.22 473.61L368.1 474.47L368.52 474.26L369 471.79L373.88 465.88L374.29 460.93L376.8 459.32L378.54 455.56L376.31 455.02L375.76 453.52L379.24 450.08L379.17 448.9L377.08 449L376.1 447.28L374.64 447.39L371.93 448.9H371.37L370.88 448.14L370.05 448.57L370.12 447.82L369.07 448.47L367.96 448.36L367.33 442.77L366.36 440.3L367.75 439.98L367.19 437.72L363.99 439.22L361.41 438.25L359.26 440.19L356.47 435.89L355.91 436.21L355.57 435.67L354.31 436.64L353.27 434.49L349.72 435.35L349.44 434.17L351.88 433.42L352.92 432.23L354.94 432.02L357.45 430.94L355.57 427.61L353.48 430.3L351.81 429.33L349.44 429.01L348.53 423.31L347.35 421.48L346.79 422.02L345.68 418.9L340.25 420.84L339.07 421.7L338.58 424.49L337.33 424.38L336.21 426.43L332.38 424.17L330.16 422.23L328.42 418.25L327.16 417.29L325.7 417.18L324.45 416.21L322.71 415.78L323.26 415.03L322.77 414.81L322.85 413.74L321.17 413.31L319.15 411.26L318.81 411.91L317.42 411.8L318.18 410.51L316.65 410.19L316.09 408.47L317.62 405.02L317.9 401.37L317.21 397.92L315.68 395.66L315.4 391.14L313.31 390.5L305.16 393.08L300.99 391.47L297.44 391.14L296.18 392.33L289.5 396.2L289.15 393.51L289.64 392.97L289.08 392.01L288.94 389.96L287.2 386.84L286.37 387.06L286.02 386.41L276.62 393.19L275.64 395.34L275.09 394.8L269.87 399.11L261.23 404.59L258.87 400.72L254.76 399.43L251.56 399L250.58 396.95L251.49 396.09L251.56 394.7L249.75 391.57L247.52 391.25L247.24 390.71L243.62 391.25L235.96 388.02L235.61 387.38L236.31 384.04L236.03 383.5L234.99 382.97L229.56 382.54L229.28 380.27L230.18 379.09L229.28 378.23L228.37 379.74L228.65 381.35L227.54 382.97L225.94 383.4L220.09 386.95L220.58 388.13L219.18 389.1L215.98 386.84L214.24 386.73L212.85 387.49L213.13 390.61L211.25 390.93L207.35 394.05L207.14 395.66L204.56 401.37L204.84 402.55L204.42 404.27L206.23 405.45L205.89 406.96L211.6 411.26L208.6 411.48L204.84 414.06L198.44 416.86L199.27 418.79L195.24 420.19L195.51 422.77L195.03 424.81L193.43 425.89L193.98 426.86L194.05 429.33L188.41 429.12L186.67 429.98L183.96 432.77L184.03 433.95L183.26 435.03L184.65 437.07L185.63 440.08L184.31 441.91L185.35 442.77L187.16 442.98L186.74 444.7L185.35 444.6L184.51 445.46L182.77 445.67L182.08 446.42L182.63 447.93L184.03 448.36L182.98 449.22L182.77 450.4L183.19 453.3L183.68 453.41L184.65 456.21L181.52 457.71L181.94 458.14L180.41 460.07L180.2 461.47L177 463.94L177.34 465.12L176.44 466.2L177.2 467.27L177.41 469.1L175.74 469.85L174.84 471.25L176.51 472.11L178.46 475.12L176.37 476.73L177.34 477.48L177.27 478.34L180.62 477.16L181.52 478.77L183.19 477.69L182.91 477.05L183.33 476.84L186.05 481.67H187.09L189.46 483.39L188.97 484.46L185.56 486.18L188.06 489.19L187.09 491.98L188.83 493.91L187.65 494.45L188 495.74L185.91 496.71L187.16 499.18L178.32 502.08L177.27 501.32V497.56H175.88L172.4 498.75L170.87 500.25L168.5 501.22L164.95 501.32L163.49 499.61L162.93 501.75L158.76 504.12L154.51 507.87L152.49 508.84L151.58 510.77L150.26 511.85L150.05 513.78L146.92 513.99L142.95 517.75L136.41 520.97L130.98 521.51L124.43 519.9L121.3 515.6L122.07 510.88L121.16 509.81L118.38 510.88H115.1L115.45 509.48L113.23 508.95L108.77 511.63L106.82 511.74Z" fill="#CCCCCC"/>
<path d="M104.66 512.81L106.82 511.74L108.77 511.63L113.23 508.95L115.45 509.48L115.1 510.88H118.38L121.16 509.81L122.07 510.88L121.3 515.6L124.43 519.9L130.98 521.51L136.41 520.97L142.95 517.75L146.92 513.99L150.05 513.78L150.26 511.85L151.58 510.77L152.49 508.84L154.51 507.87L158.76 504.12L162.93 501.75L163.49 499.61L164.95 501.32L168.5 501.22L170.87 500.25L172.4 498.75L175.88 497.56H177.27V501.32L178.32 502.08L187.16 499.18L185.91 496.71L188 495.74L187.65 494.45L188.83 493.91L187.09 491.98L188.06 489.19L185.56 486.18L188.97 484.46L189.46 483.39L187.09 481.67H186.05L183.33 476.84L182.91 477.05L183.19 477.69L181.52 478.77L180.62 477.16L177.27 478.34L177.34 477.48L176.37 476.73L178.46 475.12L176.51 472.11L174.84 471.25L175.74 469.85L177.41 469.1L177.2 467.27L176.44 466.2L177.34 465.12L177 463.94L180.2 461.47L180.41 460.07L181.94 458.14L181.52 457.71L184.65 456.21L183.68 453.41L183.19 453.3L182.77 450.4L182.98 449.22L184.03 448.36L182.63 447.93L182.08 446.42L182.77 445.67L184.51 445.46L185.35 444.6L186.74 444.7L187.16 442.98L185.35 442.77L184.31 441.91L185.63 440.08L184.65 437.07L183.26 435.03L184.03 433.95L183.96 432.77L186.67 429.98L188.41 429.12L194.05 429.33L193.98 426.86L193.43 425.89L195.03 424.81L195.51 422.77L195.24 420.19L199.27 418.79L198.44 416.86L204.84 414.06L208.6 411.48L211.6 411.26L205.89 406.96L206.23 405.45L204.42 404.27L204.84 402.55L204.56 401.37L207.14 395.66L207.35 394.05L211.25 390.93L213.13 390.61L212.85 387.49L214.24 386.73L215.98 386.84L219.18 389.1L220.58 388.13L220.09 386.95L225.94 383.4L227.54 382.97L228.65 381.35L228.37 379.74L229.28 378.23L230.18 379.09L229.28 380.27L229.56 382.54L234.99 382.97L236.03 383.5L236.31 384.04L235.61 387.38L235.96 388.02L243.62 391.25L247.24 390.71L247.52 391.25L249.75 391.57L251.56 394.7L251.49 396.09L250.58 396.95L251.56 399L254.76 399.43L258.87 400.72L261.23 404.59L269.87 399.11L275.09 394.8L275.64 395.34L276.62 393.19L286.02 386.41L286.37 387.06L287.2 386.84L288.94 389.96L289.08 392.01L289.64 392.97L289.15 393.51L289.5 396.2L296.18 392.33L297.44 391.14L300.99 391.47L305.16 393.08L313.31 390.5L315.4 391.14L315.68 395.66L317.21 397.92L317.9 401.37L317.62 405.02L316.09 408.47L316.65 410.19L318.18 410.51L317.42 411.8L318.81 411.91L319.15 411.26L321.17 413.31L322.85 413.74L322.77 414.81L323.26 415.03L322.71 415.78L324.45 416.21L325.7 417.18L327.16 417.29L328.42 418.25L330.16 422.23L332.38 424.17L336.21 426.43L337.33 424.38L338.58 424.49L339.07 421.7L340.25 420.84L345.68 418.9L346.79 422.02L347.35 421.48L348.53 423.31L349.44 429.01L351.81 429.33L353.48 430.3L355.57 427.61L357.45 430.94L354.94 432.02L352.92 432.23L351.88 433.42L349.44 434.17L349.72 435.35L353.27 434.49L354.31 436.64L355.57 435.67L355.91 436.21L356.47 435.89L359.26 440.19L361.41 438.25L363.99 439.22L367.19 437.72L367.75 439.98L366.36 440.3L367.33 442.77L367.96 448.36L369.07 448.47L370.12 447.82L370.05 448.57L370.88 448.14L371.37 448.9H371.93L374.64 447.39L376.1 447.28L377.08 449L379.17 448.9L379.24 450.08L375.76 453.52L376.31 455.02L378.54 455.56L376.8 459.32L374.29 460.93L373.88 465.88L369 471.79L368.52 474.26L368.1 474.47L366.22 473.61L358.91 473.94L356.75 473.29L352.22 472.97L348.33 471.57L344.91 471.14L343.38 469.74L343.03 470.07L340.04 479.52L339.83 482.53L337.47 486.07L337.4 486.93L333.5 490.58L333.78 491.55L329.95 492.52L327.72 494.02L329.39 496.06L329.32 496.92L325.49 497.89L325.84 499.61L323.47 501L321.24 501.22L313.38 506.59L314.91 508.95L314.77 512.6L314 514.21L315.12 516.14L313.52 518.5L312.61 524.51L309.55 526.55L309.48 527.3L311.92 529.99L311.01 530.63L310.31 532.78L309.55 533.1L309.13 532.78L308.02 534.17L307.25 533.31L305.16 534.06L301.4 536.75L303.42 537.93H305.3L306.21 537.07L309.69 536.96L309.13 539.97L309.69 540.18L310.18 538.68H311.15L317.48 539.75L319.02 541.36L322.5 538.68L321.24 536.96L321.17 536.1L322.01 535.24L326.19 535.14L332.59 534.17L334.61 538.57L339.9 538.25L340.6 539.86L341.99 538.25L343.1 537.93L343.94 538.68L345.75 538.89L347.28 538.46L348.53 540.29L350.07 540.4L357.52 538.03L359.67 539.21L360.02 538.36L361.07 538.68L363.36 538.03L363.5 537.39L365.52 538.89L368.86 539.86L369.14 541.36L370.33 543.29L370.95 548.23L371.65 548.01L372.14 546.73L373.18 546.83L374.02 549.51L377.91 546.51L378.68 548.12L378.61 554.98L378.19 555.84L378.96 560.46L380.35 560.03L383.48 560.13L382.93 566.35L379.44 567.1L379.52 567.53L380.35 567.43L380.7 573.54L381.53 574.5L385.36 576.54L385.92 577.83L385.36 578.15L386.13 579.44L385.78 579.97L386.48 582.44L386.27 586.19L388.15 588.87L389.96 588.76L390.03 590.69L391.77 590.91L394.13 589.84L394.34 590.26L394.9 590.05L395.81 593.16L397.96 594.34L398.73 595.94L398.87 599.7L398.17 600.66L395.74 602.8L388.5 611.8L377.5 624.23L375.27 628.09L375.96 628.84L377.5 628.41L377.64 627.77L378.61 627.98L379.86 627.23L382.93 627.02L383.48 627.77L385.22 628.09L385.85 630.12L386.48 630.55L389.75 630.87L390.86 634.73L393.3 637.62V639.12L394.27 639.87L395.18 644.05L395.25 646.51L394.62 647.9L394.27 648.22L391.7 645.55L388.77 644.05H382.37L377.01 645.65L372.27 646.19L370.81 647.37L370.95 648.12L370.05 650.26L370.33 651.65L368.86 651.76V652.93L364.96 652.61L364.06 653.15L362.32 656.79L362.11 659.57L362.46 660.64L364.06 662.03L360.37 664.18L356.33 664.92L352.64 664.82L351.95 664.5L350.14 661.71L346.31 661.93L345.05 661.18L345.19 663.43L346.31 664.5L345.75 665.03L346.86 667.17L345.4 670.06L346.24 671.77L344.98 674.45L346.45 677.13L348.47 678.94L348.26 679.37L347.63 679.91L346.79 679.05L344.71 680.02L342.13 675.52L337.05 678.3L337.53 680.76L340.88 685.9L341.85 686.33L341.23 686.65L342.62 689L343.73 688.25L344.36 689.11L343.03 690.5L343.87 691.36L343.17 693.28L344.22 693.92L343.73 696.6H345.26L345.54 698.2L346.59 700.02L348.19 701.41L348.74 700.98L351.32 704.41L348.19 706.97L351.04 710.61L348.33 716.06L348.95 716.49L349.02 718.42L350.27 718.63L351.53 719.81L351.88 722.05H350.9L350 727.08L349.02 727.61L344.98 726.12L343.87 727.29L342.69 726.33L338.3 727.83L335.59 726.44L335.66 729.11L335.17 730.61L328.62 730.82L325.98 730.07L321.52 731.46L319.3 729.75L315.4 730.18L312.75 728.9L308.23 729.54L307.39 728.25V726.44L305.93 726.54L303.49 728.9L297.99 731.89L293.12 732.64L291.8 735.1V736.48L293.81 741.19L295.9 743.43L296.11 745.14L293.54 746.1L292.07 743.75L291.03 744.39L289.78 746.64L288.38 747.17L283.72 750.91L282.54 750.81L283.44 748.14L283.37 746.21L281.98 746.32L277.32 748.24L276.06 747.81L274.39 744.93L273.14 744.39L272.44 747.07L272.37 756.36L269.94 761.71L269.59 765.66L263.6 768.44L261.16 766.19L259.28 766.41L257.2 767.58L254.97 769.93L252.6 776.23L254.41 784.03L254.34 786.7L249.82 786.27L246.82 785.31L240.77 781.36L240.28 780.51L240.56 774.85L239.65 773.78L237.91 773.46L235.06 773.88L235.75 772.71L235.47 772.18L232.27 773.88L229.7 774.1L227.61 773.99L224.48 772.6L223.08 772.92L220.02 777.62L217.93 782L216.89 786.27L213.68 793L208.32 790.65L204.91 790.76L203.8 791.29L203.17 790.44L204.22 787.66L202.96 785.1L201.57 784.35L195.44 785.85L194.05 786.81L192.87 786.27L191.75 786.49L190.71 787.34L189.6 787.02L186.74 783.5L184.17 782.86L171.98 789.37L170.73 788.73L169.75 786.7L170.31 784.14L171.77 783.07L173.51 783.82H174.84L175.88 778.9V776.77L173.58 775.81L172.61 776.13L171.5 778.26L169.96 778.9L166.62 773.35L165.02 765.02L166.76 762.45L167.25 759.68L166.55 756.04L163.56 754.01L162.38 749.95L162.45 745.78L161.19 743.97L158.82 743.54L154.37 744.07L151.93 743.75L148.94 741.08L147.62 740.55L146.08 738.52L143.16 736.59L140.58 736.16L135.09 738.84H133.97L125.27 734.88L121.72 735.52L116.78 738.94L110.79 740.65L102.43 737.55L97.84 738.73L96.45 737.45L95.33 737.34L93.31 738.19L91.78 737.13L89.28 734.67L87.54 731.46L84.06 729.11L80.36 727.4L80.16 723.34L79.53 721.2L75.49 719.38L71.38 716.06L70.06 714.03L69.5 709.33L69.99 707.83L75.35 705.16L76.54 703.66L73.19 697.67L71.73 694.03L72.08 692.21L71.45 691.25L66.09 693.07L60.52 696.17L57.67 697.13L52.8 691.04L52.73 689.54L56.14 688.68L56.7 688.04L56.9 688.57L57.53 688.36L60.11 685.26L62.61 683.33L64.35 682.9L65.68 683.76L68.74 681.73L73.96 680.34L75.21 679.48L77.02 676.7L76.05 673.27L76.88 670.81L79.95 669.63L82.25 667.17L83.99 666.42L86.21 666.21L87.12 665.25L87.61 662.35L89.21 661.71L92.69 658.4L93.94 658.61L94.43 658.07L94.15 654.33L94.57 652.4L92.41 651.76L93.87 648.54L95.26 647.69L94.36 643.4L92.2 642.33L90.95 644.37L89.76 645.12H84.19L81.76 644.05L80.02 640.94L79.04 634.73L81.13 631.62L86.28 628.95L91.71 624.13L95.61 622.63L97.28 621.34L97.98 616.63L96.93 613.84L97.84 608.91L101.81 603.66L105.01 600.87V600.02L103.34 597.87L103.27 596.48L105.85 592.52L108.98 591.55L112.81 591.44L115.87 593.59L119.14 590.26L119.63 588.76L117.96 586.08L117.89 582.97L116.71 582.22V576.33L116.22 574.72L116.92 572.57L118.52 571.07L116.71 568.18L118.59 564.75L121.86 562.92L122.28 561.74L121.23 560.56L120.12 560.35L118.17 561.74L116.57 561.42L116.43 560.13L117.19 558.2L116.5 557.67L114.2 559.06L112.25 557.24L109.88 558.1L108.28 555.95L106.68 557.56L105.5 557.67L103.13 555.84L102.92 554.13L100.62 551.98H97.35L95.54 550.37L91.78 549.84L88.72 543.93L89.14 539.54L90.53 533.96L91.3 532.78L91.36 529.99L94.85 524.83L99.37 521.29L101.74 517.75L105.08 514.1L1 1" stroke="white" stroke-width="0.5"/>
</svg>
