<svg width="801" height="1590" viewBox="0 0 801 1590" fill="none" xmlns="http://www.w3.org/2000/svg">
<path d="M556.271 957.55L555.131 957.25L553.801 956.69L551.381 955.26L549.451 953.82L549.081 953.39L546.761 949.27L546.421 948.81L546.011 948.42L545.451 948.12L544.771 947.95L543.781 947.99L543.031 948.12L542.381 948.35L541.891 948.68L541.481 949.06L541.171 949.53L540.951 950.05V950.67L541.141 951.23L541.741 952.21L541.911 952.72L541.801 953.22L541.111 954.08L540.781 954.57L540.561 955.15L540.341 956.45L540.111 957.01L539.011 958.33L538.701 958.83L538.331 960.1L538.221 960.81L538.041 961.43L534.681 967L534.301 968.25L534.201 968.9L534.261 969.57L534.411 970.19L535.161 971.8L535.181 972.38L534.961 972.87L534.581 973.29L534.061 973.58L533.471 973.78L532.771 973.8L531.801 973.38L530.611 972.65L528.491 970.91L526.501 969.64L525.911 969.52L524.881 969.48L523.541 969.63L522.241 969.94L521.661 970.17L520.201 971.12L518.951 972.31L518.441 972.6L517.831 972.78L517.121 972.86L516.381 972.85L515.661 972.77L514.301 972.47L512.871 972.31L512.161 972.36L511.481 972.47L510.861 972.67L510.321 972.9L508.341 974.23L507.761 974.46L507.111 974.59L504.231 974.76L502.941 975.03L502.221 975.01L501.521 974.81L491.471 984.52L483.221 987.46L481.841 1003.62L480.471 1010.98L472.221 1012.45L466.711 1018.33L465.341 1037.48L461.211 1059.59L455.711 1072.87L458.461 1081.73L462.591 1092.08L455.711 1126.1L451.581 1143.88L447.451 1152.78L451.581 1161.68L435.071 1170.59L422.691 1178.01L428.201 1186.93L446.081 1195.85L455.711 1197.33L459.841 1192.87L469.461 1198.82L473.591 1212.21L487.351 1218.17H501.101L512.651 1227.98L514.641 1214.37L518.261 1206.41L519.781 1198.59L533.751 1165.85L547.721 1133.17L561.581 1088.11L563.111 1085.18L564.721 1080.92L566.521 1070.82L566.731 1067.24L567.131 1065.63L571.101 1056.22L572.131 1052.22L572.501 1048.2L572.921 1046.16L574.861 1042.67L575.581 1040.93L575.781 1039.02L575.511 1037.46L574.691 1037.03L573.261 1038.52L572.791 1036.82L573.701 1035.04L575.171 1033.2L576.331 1031.3L587.291 989.6L593.221 971.16L592.311 970.73L583.271 968.23L575.491 968.3L569.981 967.05L569.131 966.64L568.161 965.66L567.791 964.83L567.651 963.99L567.721 963.25V961.74L567.581 961.08L567.121 959.93L566.781 959.45L566.241 958.96L564.361 957.66L563.731 957.07L563.051 956.65L562.351 956.44L561.181 956.54L557.751 957.46L557.031 957.54L556.271 957.55Z" fill="#CCCCCC" stroke="white" stroke-width="0.5"/>
<path d="M511.871 874.7L496.981 863L477.721 854.25V839.67L480.471 823.64H468.091L463.961 835.3L452.961 842.58H437.831L422.691 839.67L418.571 833.84L406.191 832.38L392.431 835.3L378.681 844.04L369.051 854.25L360.791 855.71L349.791 852.79L323.651 857.17L304.391 860.08L284.811 858.14L285.031 864.53L284.981 865.27L284.771 865.87L284.431 866.56L284.141 867.45L283.961 869.05L284.021 869.99L284.301 870.69L284.691 871.1L285.111 871.84L285.561 872.88L286.611 877.05L289.001 882.75L289.241 884.06L289.391 885.82L289.611 887.02L290.311 889.54L290.411 890.42L290.061 894.94L289.871 895.58L289.631 896.16L289.021 897.16L288.221 897.98L287.331 898.71L286.581 899.53L286.101 900.57L285.931 901.21L285.621 903.37L285.441 904L284.871 905.07L282.211 908.34L284.641 910.89L287.451 912.46L288.231 912.57H289.191L290.111 912.41L290.791 912.06L291.861 911.27L292.641 911.21L293.441 911.48L295.951 912L301.351 914.45L308.441 914.85L309.171 915.31L310.601 916.71L311.441 917.24L312.211 917.25L314.211 916.89L315.191 917.24L316.391 918.92L316.971 923.02L317.841 924.89L319.701 926.02L321.531 926.25L322.941 926.89L323.501 929.28L323.811 931.82L324.621 931.71L327.251 928.48L329.951 926.58L330.971 925.53L331.821 923.62L333.221 924.86L336.521 926.57L337.741 927.61L338.501 929.27L338.651 931.16L337.991 932.7L336.311 933.27L337.191 934.74L338.291 937.55L339.311 938.86L336.701 940.42L336.261 942.27L337.361 944.22L339.311 946.12L343.741 949.17L346.251 950.4L348.381 950.92L349.801 950.57L352.421 948.97L353.691 948.52L355.051 948.58L356.081 949L357.021 949.56L359.231 950.4L361.321 950.85L362.661 950.92L363.631 951.23L364.251 951.98L364.831 952.88L365.691 953.68L368.241 953.79L370.331 952.01L372.161 950.04L373.931 949.64L381.271 953.39L383.681 954.11L386.361 953.86L388.171 952.79L389.721 952.26L391.591 953.68L393.721 954.78L395.901 953.99L397.701 952.75L398.741 952.52L401.511 952.34L402.121 952.06L402.561 951.7L402.971 951.3L403.681 950.39L406.191 948.06L409.601 944.19L410.571 942.72L410.941 942.28L412.391 941.22L413.061 940.91L414.111 940.75L414.801 940.89L415.341 941.13L416.571 941.93L418.651 942.9L419.531 943.03L420.271 942.94L423.581 941.46L428.651 941.2L429.521 941.02L431.681 939.99L433.551 939.61L435.481 939.59L436.491 939.43L437.081 939.01L437.241 938.37L437.801 934.87L437.871 932.75L438.041 932.11L438.311 931.58L438.651 931.09L439.421 930.24L439.841 929.86L441.291 928.9L441.771 928.48L442.301 928.11L443.081 927.85L443.711 927.94L444.191 928.26L444.511 928.75L444.841 929.38L445.291 930L446.131 930.68L446.861 930.85L447.421 930.68L447.831 930.28L449.451 928.19L449.731 927.96L450.171 927.71L452.261 927.05L453.511 926.8L454.361 926.82L455.041 927.01L455.551 927.32L456.901 928.4L457.441 928.66L464.241 930.48L465.381 930.58L466.181 930.42L466.611 930.03L466.941 929.55L467.181 928.97L467.521 928.35L468.031 927.83L469.081 927.44L469.811 927.47L470.461 927.68L470.921 928.03L471.281 928.48L471.841 929.71L472.321 930.35L472.901 930.49L473.461 930.38L479.011 927.11L480.161 926.64L483.551 926.07L484.161 925.86L484.621 925.53L486.141 923.81L486.671 923.37L487.351 923.05L488.451 922.79L489.101 922.96L489.541 923.36L489.681 923.89L489.561 924.45L489.251 924.89L488.491 925.75L488.231 926.25L488.131 926.8L488.281 927.34L488.621 927.76L489.201 928.08L489.941 928.3L492.491 928.81L493.061 929.04L493.571 929.35L493.981 929.75L494.261 930.11L494.571 930.83L495.031 925.33L495.521 923.34L498.531 917.88L498.931 916.66L499.171 915.63L499.161 911.56L499.341 910.69L499.601 910.01L500.211 908.99L500.551 908.53L501.371 907.73L503.241 906.37L504.921 904.84L505.661 903.97L509.071 898.17L510.101 895.44L510.391 892.5V891.82L510.211 890.88L509.901 889.76L509.671 888.41L509.511 881.27L509.631 879.92L510.011 879.12L511.271 877.38L511.701 876.33L511.871 875.47V874.7Z" fill="#CCCCCC" stroke="white" stroke-width="0.5"/>
<path d="M547.841 235.45L546.541 235.25L545.891 234.84L545.481 234.31L545.351 233.73L545.231 232.85V231.54L545.751 228.94L545.991 228.41L546.321 227.94L548.961 225.91L550.271 224.09L550.541 223.6L552.331 221.47L552.961 220.54L553.221 220.02L553.431 219.38L553.461 218.68L553.191 217.77L552.681 217.46H552.111L551.561 217.68L550.531 218.22L546.871 220.84L542.601 222.78L541.651 223.37L539.531 225.17L539.081 225.48L534.811 227.42L534.371 227.76L534.061 228.18L533.961 228.76L534.081 229.32L534.461 230.46L534.601 231.08L534.611 231.71L534.501 232.24L534.301 232.58L534.191 232.76L533.741 233.2L533.321 233.48L532.791 233.73L530.341 234.39L530.011 234.77V235.35L531.191 237.09L531.271 237.7L531.031 238.14L530.181 238.9L529.811 239.17L529.011 239.89L528.971 239.92V239.93L529.871 240.24L530.851 242.25L531.151 244.85V247.48L530.471 249.89L527.501 253.97L526.711 256.46L526.921 257.77L527.571 259.17L528.411 260.46L529.281 261.47V262.44L528.161 263.44L526.751 264.33L525.891 265.03L525.791 266.08L525.931 267.41L525.881 268.69L525.141 269.61L523.661 269.58L522.981 268.17L522.821 266.4L522.841 265.37L523.201 262.44L524.791 256.59L525.141 253.7L525.581 252.26L526.491 251.2L527.201 250.12L527.061 248.64L526.381 247.74L525.481 247.24L524.541 246.87L523.651 246.4L519.141 243.13L516.781 242.47L515.341 244.02L517.491 245.3L519.161 248L520.251 251.11L520.651 253.7L520.491 255.26L520.051 257.21L519.351 259.06L518.401 260.31L517.511 260.61L515.331 260.31L513.871 260.7L510.291 260.9L505.181 257.19L502.591 258.01L501.621 259.2L501.161 260.42L501.021 263.8L500.701 265.6L499.891 266.53L497.271 268.13L495.021 271.02L493.651 274.59L492.961 278.41L492.781 283.3L492.981 283.64L494.231 284.61L494.031 284.94L493.571 285.31L493.531 285.99L495.401 289.92L495.891 290.46L496.311 291.1L496.521 292.19L496.301 292.93L495.181 294.06L494.961 294.52L495.481 295.79L497.751 299.89L498.431 300.78L499.521 300.2L500.921 298.86L504.021 294.55L504.771 295.15L505.451 296.79L506.331 298.38L507.991 299.74L509.501 300.1L510.921 299.81L512.341 299.23L515.781 297.18L517.431 296.92L519.501 298.04L521.931 300.64L523.301 301.83L524.781 302.33L526.981 304.13L527.991 308.28L528.021 312.94L527.401 316.28L525.581 319.14L524.981 316.99L525.141 309.28L524.291 305.62L522.111 303.24L519.201 302.9L516.151 305.35L517.661 306.54L518.561 308.84L518.441 311.36L516.841 313.17L516.601 311.75L516.731 309.12L516.151 307.76L514.971 306.89L511.531 305.93L510.091 305.35L507.941 303.47L503.281 296.9L502.791 299.31L501.231 300.45L499.601 301.37L498.841 303.11L498.431 304.68L497.431 306.35L494.961 309.23L494.331 309.65L492.461 310.56L491.621 311.22L491.201 312.08L491.211 314.14L490.901 315.08L487.331 318.76L486.841 320.16L486.251 323.47L478.401 338.57L477.781 340.46L477.891 343.4L477.511 344.45L476.281 343.5L473.171 346L471.741 349L470.711 352.17L468.721 355.27L467.621 356.11L464.021 358.11L462.721 358.38L461.181 357.51L460.811 356.14L461.941 342.24L463.061 338.84L464.721 336.17L471.031 328.76L472.241 325.96L472.531 325.65L472.181 324.47L471.481 323.95L470.761 323.7L470.291 323.26L469.881 321.54L470.371 314.58L470.221 313.39L467.971 310.78L467.271 309.41L466.851 308.15L466.131 307.71L464.591 308.84L450.891 323.45L447.581 328.76H446.901L448.601 331.33L449.631 331.96L451.331 331.86L452.561 331.22L453.201 329.38L454.411 328.37L456.191 328.72L456.911 331.07L456.581 333.71L455.161 334.96L452.571 335.25L450.091 336.1L447.781 337.45L442.251 342.7L440.721 344.73L438.341 351.45L434.231 355.1L429.501 358.23L425.851 361.49L422.851 365.72L421.891 368.17L422.101 370.74L422.851 371.72L424.721 372.8L425.401 375.12L426.221 375.65L427.421 375.69L428.911 375.49L427.871 378.25L427.721 379.54L428.031 380.99L431.211 379.55L432.181 379.36L433.571 379.44L433.921 379.78L433.891 380.51L435.411 387.73L437.251 391.17L437.651 391.68L438.591 392.26L439.551 392.54L440.451 392.61L441.161 392.78L441.591 393.43L441.231 395.46L439.501 396.65L435.521 398.17L431.961 396.96L428.201 418.5L432.321 437.08L436.451 461.39L444.701 474.28L451.581 484.3L452.961 494.33L462.591 500.07L472.221 505.8H484.601L490.101 510.1L499.731 514.41L516.421 519L516.741 516.26L516.911 515.56L517.661 513.78L517.881 513L518.771 506.16L518.781 505.12L518.611 503.7L517.801 499.73V498.74L517.921 497.93L518.651 496.29L519.291 495.35L520.091 494.57L521.471 493.59L522.331 492.7L522.691 491.88L522.771 491.11L522.741 489.71L523.011 489.1L523.451 488.87L523.981 489.06L524.921 489.6L525.431 489.67L525.771 489.63L526.251 489.44L527.201 488.89L527.781 488.74H528.361L528.971 488.88L530.081 489.35L531.311 489.67L532.651 489.68L533.281 489.61L533.951 489.66L534.501 489.88L535.521 490.49L536.061 490.71L536.681 490.84L539.421 491L540.131 490.97L540.731 490.81L541.291 490.58L541.821 490.32L542.381 490.11L544.341 489.71L544.921 489.49L546.431 488.66L547.011 488.44L552.301 487.52L553.651 487.66L554.281 487.82L554.941 487.86L555.601 487.8L556.801 487.57L557.381 487.66L557.901 487.89L558.381 488.19L559.631 489.32L561.331 491.55L561.741 491.93L563.191 492.85L564.001 493.63L564.531 493.91L565.091 494.14L567.091 494.53L567.621 494.8L567.991 495.21L568.201 495.81L568.331 498.01L568.551 498.56L568.881 498.92L569.371 498.97L570.441 498.63L571.141 498.6L572.531 498.63L575.061 498.16L575.671 498.21L576.221 498.42L577.071 499.04L578.301 500.17L581.331 504.23L583.271 505.46L584.371 505.96L586.751 506.75L588.901 507.81L590.761 509.1L591.521 509.92L591.801 510.43L592.141 511.66L592.441 512.15L592.891 512.51L593.861 513.11L594.251 513.46L594.491 513.93L594.721 515.62L594.961 516.17L595.571 517.14L595.841 517.67L595.981 518.32L596.211 521.1L596.091 522.36L596.151 523.01L596.351 523.57L596.651 524.06L597.011 524.48L598.241 525.64L598.471 526.15L598.611 526.76L598.581 527.41L598.421 528.04L597.961 529.18L596.221 532.2L595.751 533.29L595.401 534.56L595.321 535.28V536.77L595.571 538.09L595.971 539.29L596.981 541.42L600.481 546.7L600.891 547.09L601.391 547.41L601.991 547.57L602.631 547.55L603.251 547.4L603.761 547.15L604.731 546.53L605.611 545.82L607.661 543.89L617.001 537.36L617.541 537.13L618.141 536.94L618.781 536.88L620.111 536.94L621.991 536.62L622.641 536.67L624.921 537.54L625.551 537.7L626.231 537.77L631.631 536.8L632.411 536.51L633.391 535.99L633.801 535.46L633.831 534.86L633.591 534.38L632.551 533.05L631.971 532.05L631.851 531.35L631.871 530.57L632.241 529.47L632.781 528.73L633.431 528.05L634.481 527.18L635.381 526.22L635.841 525.43L636.981 522.67L638.381 520.3L638.931 519.01L639.211 517.94L639.131 516.4L639.231 515.43L639.681 514.03L640.241 513.41L640.901 513.11L641.581 513.07L642.211 512.95L642.831 512.77L647.161 510.57L649.371 508.84L651.051 506.29L651.371 505.53L651.511 504.93L651.641 503.65L652.151 502.35L658.671 490.34L659.181 489.03L659.421 487.98L659.321 487.33L659.151 486.69L658.471 485.09L658.421 484.49L658.521 483.17L658.491 482.49L658.371 481.82L658.131 481.29L657.771 480.85L657.311 480.52L656.151 480.07L654.891 479.77L650.541 479.56L647.141 478.99L636.881 474.18L636.441 473.84L636.041 473.45L635.861 472.75L635.991 471.77L637.531 468.16L638.511 464.16L638.551 463.89L639.641 460.55L640.431 458.92L641.071 458.04L643.781 455.12L645.331 453.02L646.761 450.18L647.041 449.18L647.121 448.39L647.001 447.01L645.691 440.48L644.971 438.07L644.031 435.88L643.421 434.89L642.061 433.11L641.791 432.59L641.621 431.98L641.551 431.3V430.57L641.751 429.21L643.111 424.23L644.971 410.25V409.55L644.891 408.93L644.701 408.37L644.481 407.83L644.261 407.11L644.141 406.25L644.311 404.79L644.611 404L644.971 403.38L646.761 401.75L647.941 400.29L648.451 399.35L648.691 398.53L648.621 397.99L648.361 397.63H647.941L646.901 397.96L646.321 397.99L645.811 397.79L645.331 397.49L644.871 397.14L644.371 396.91L643.781 396.87L642.661 397.18L641.991 397.26L641.281 397.24L640.631 397.1L640.051 396.89L639.541 396.61L639.101 396.27L638.751 395.83L638.221 394.81L638.051 394.18L637.931 393.53L637.801 392.09L637.611 391.5L637.071 390.48L636.861 389.74V388.8L637.151 387.25L637.581 386.51L638.091 386.01L639.351 385.7L642.181 385.34L643.421 385.01L644.051 384.91H644.721L645.961 385.1H646.641L647.291 384.99L647.891 384.81L650.991 383.21L653.371 382.47L654.431 381.98L654.921 381.52L655.421 380.96L656.051 380.07L656.541 379.51L657.051 379.08L658.031 378.47L658.571 378.23L659.151 378.04L659.801 377.91L660.501 377.88L661.911 378.04L662.741 377.98L663.701 377.72L666.731 375.75L667.911 375.31L668.501 374.99L669.511 373.9L669.971 373.51L670.521 373.28L671.111 373.17L671.741 373.22L673.551 373.78L674.211 373.84L674.961 373.67L675.791 373.02L676.281 372.4L676.621 371.78L677.021 370.62L677.111 369.93L677.141 369.21L677.061 368.53L676.891 367.91L676.621 367.39L675.981 366.48L675.741 365.95L675.661 365.27V364.46L675.741 363.48L676.081 362.91L676.581 362.61L677.201 362.57L677.761 362.71L679.441 363.36L680.771 363.63L682.201 363.68L682.991 363.52L683.701 363.21L684.621 362.59L685.071 361.96L685.371 361.29L685.631 359.18L685.561 357.74L685.461 357.08L685.291 356.54L684.981 355.79L684.881 355.26V354.54L685.051 353.7L686.001 351.16L686.171 350.53L686.331 349.13L686.261 347.72L685.561 345.23L685.531 344.45L685.541 343.57L685.811 342.35L686.211 341.75L686.751 341.49L687.261 341.62L687.761 341.89L690.281 343.68L690.621 343.87L691.101 344.06L691.711 344.22L692.371 344.32L693.061 344.35L693.791 344.04L694.501 343.41L696.431 340.62L696.841 340.25L697.321 339.93L697.841 339.68L698.881 339.38L699.701 339.46L698.561 335.55L697.811 334.09L692.481 326.94L691.471 326.31L690.481 325.87L689.341 325.09L688.211 324.03L687.691 323.25L687.311 322.55L685.181 316.96L685.031 316.36L685.081 315.82L685.411 314.67L685.491 314.06L685.421 313.46L685.271 312.89L681.301 303.84L680.621 302.71L679.601 301.55L677.571 298.7L675.691 297.06L675.391 296.43L675.371 295.79L675.571 295.23L676.141 294.23L676.481 293.78L677.301 293.06L678.661 292.07L679.021 291.55L679.241 290.89L679.201 289.81L678.951 289.16L678.611 288.61L676.991 287.08L676.561 286.75L674.941 285.99L674.471 285.68L673.261 284.58L672.781 284.26L671.691 283.77L670.521 283.38L669.991 283.12L667.721 281.12L665.681 278.45L664.301 275.76L663.881 275.17L663.471 274.79L660.271 272.51L656.421 268.54L653.391 266.34L652.901 265.56L652.321 264.31L651.721 263.6L650.831 262.83L650.321 262.28L649.981 261.7L648.641 257.25L647.781 255.38L647.101 254.85L646.511 254.71L646.001 254.87L645.461 254.78L639.641 251.47L638.971 251.21L638.291 251L636.271 250.72L635.551 250.49L634.891 250.14L633.681 249.31L632.891 249L632.161 248.97L630.561 249.66L629.261 249.93L628.721 250.15L628.241 250.45L627.831 250.83L624.951 255.01L624.541 255.38L624.051 255.66L621.821 256.53L618.991 258.38L618.201 259.17L617.911 259.64L617.521 260.09L617.061 260.44L616.351 260.52L615.941 260.22L615.671 259.71L615.451 258.32L615.141 257.7L612.771 254.09L612.041 253.56L611.321 253.4L610.811 253.65L609.941 254.34L609.411 254.57L608.751 254.64H607.401L606.771 254.76L605.101 255.42L604.511 255.57L603.881 255.66L603.211 255.62L602.651 255.42L602.061 255.09L595.221 249.75L594.661 249.4L591.181 248.25L589.901 247.64L589.241 247.12L585.101 242.41L583.871 241.45L582.901 241.05L582.341 241.23L581.831 241.51L581.381 241.83L580.121 242.92L579.191 243.54L576.051 245.05L574.281 245.63L571.581 246.02L569.901 246.67L569.291 246.83L568.231 246.7L566.891 246.32L564.281 245L562.951 244.1L561.021 242.37L560.431 241.95L556.221 239.63L555.541 239.1L552.761 235.33L551.381 233.81L550.751 233.6L550.241 233.74L549.851 234.11L549.161 234.98L548.591 235.3L547.841 235.45Z" fill="#CCCCCC" stroke="white" stroke-width="0.5"/>
<path d="M759.29 450.93L759.54 450.89L761.41 452.71L763.63 458.35L765.25 457.05L766.92 457L768.67 457.25L770.44 456.78L771.69 455.33L774.2 448.92L782.14 438.56L782.86 437.04L781.75 436.38L782.61 433.11L792.37 414.49L793.07 411.42L793.29 409.32L795.24 403.62L795.99 399.66L796.45 398.9L797.78 397.5L798.25 396.61L798.17 395.9L797.87 394.91L797.66 393.79L797.87 392.65L798.93 389.92L799.07 389.12L798.91 387.98L798.66 387.17L798.7 386.38L799.75 384.61L800.39 382.8L800.5 382.12L799.88 374.82L798.97 371.11L797.5 368.34L796.13 367.28L794.69 366.45L793.53 365.26L792.62 361.41L791.51 359.58L786.18 353.03L784.17 349.92L776.32 332.42L775 325.17L774.3 323.17L773.44 321.7L772.14 320.71L769.2 319.21L768.19 317.82L770.67 316.41L771.62 312.75L771.3 308.62L768.31 302.44L767.51 289.87L766.13 284.46L765.94 282.47L766.2 280.71L767.26 277.21L768.62 268.5L768.54 265.25L766.69 261.86L763.95 259.31L763.2 257.99L762.94 255.64L763.09 251.65L763.4 249.61L764.41 246.45L764.52 242.42L764.22 239.16L762.02 230.75L760.86 208.2L759.88 204.47L757.34 199.15L756.51 197.88L755.86 196.06L756.75 192.21L756.51 190.94L756.16 190.29L756.18 189.68L756.07 189.22L755.41 189.05L754.95 189.01L754.52 188.87L754.16 188.63L753.88 188.19L753.56 187.39L753.13 185.05L753.08 184.11L753.28 182.07L753.13 181.19L752.67 180.58L751.36 179.54L750.88 178.94L749.62 175.87L748.03 169.25L747.81 166.22L748.65 162.44L748.78 160.46L747.81 158.84L746.67 158.69L745.45 159.31L744.12 159.72L742.63 158.84L742.16 157.16L742.56 152.33L742.22 150.37L739.23 145.97L738.81 144.55L738.7 142.75L738.17 140.46L738.06 138.75L739.03 129.66L738.81 123.62L738.23 122.52L735.7 119.48L735.12 117.85L734.68 115.56L733.53 114.59L732.05 114.1L730.57 113.27L728.97 111.29L729.39 110.44L730.61 110.09L731.39 109.49L731.31 107.22L730.26 106.33L728.74 106.24L727.23 106.34L725.85 105.86L724.82 104.68L723.42 101.7L723.26 100.67L723.75 97.82L723.26 97.08L720.53 94.51L719.22 93.56L717.74 92.83L716.25 92.44L716.55 92.02L717.07 90.9L715.57 90.3L714.36 90.51L713.56 91.49L713 94.59L712.38 95.61L711.66 96.56L711 97.82L710.14 97.24L709.22 97.1L708.24 97.3L707.26 97.82L707.81 96.36L709.23 93.89L709.51 92.44L709.27 91.22L708.19 88.81L707.94 87.38L707.1 85.42L705.14 83.15L695.06 93.52L685.43 103.4L678.55 113.27L686.81 114.69L688.18 123.16L682.68 133.04L681.31 152.82L674.43 159.89L681.31 182.52L675.8 205.17L673.05 213.67L671.68 223.59L660.67 226.42L655.17 244.86L646 254.87L646.51 254.71L647.1 254.85L647.78 255.38L648.64 257.25L649.98 261.7L650.32 262.28L650.83 262.83L651.72 263.6L652.32 264.31L652.9 265.56L653.39 266.34L656.42 268.54L660.27 272.51L663.47 274.79L663.88 275.17L664.3 275.76L665.68 278.45L667.72 281.12L669.99 283.12L670.52 283.38L671.69 283.77L672.78 284.26L673.26 284.58L674.47 285.68L674.94 285.99L676.56 286.75L676.99 287.08L678.61 288.61L678.95 289.16L679.2 289.81L679.24 290.89L679.02 291.55L678.66 292.07L677.3 293.06L676.48 293.78L676.14 294.23L675.57 295.23L675.37 295.79L675.39 296.43L675.69 297.06L677.57 298.7L679.6 301.55L680.62 302.71L681.3 303.84L685.27 312.89L685.42 313.46L685.49 314.06L685.41 314.67L685.08 315.82L685.03 316.36L685.18 316.96L687.31 322.55L687.69 323.25L688.21 324.03L689.34 325.09L690.48 325.87L691.47 326.31L692.48 326.94L697.81 334.09L698.56 335.55L699.7 339.46L706.29 345.29L708.48 347.9L709.43 349.58L711.88 353.04L713.18 354.34L714.22 354.94L714.82 354.77L723.78 351.13L724.3 350.87L725.45 350.8L727.1 350.96L732.49 352L733.71 352.03L734.29 351.82L735.92 350.9L736.59 350.65L737.62 350.48L738.25 350.65L738.81 350.91L739.23 351.26L740 352.07L742.08 356.27L749.37 365.81L749.67 366.49L749.75 367.12L749.54 367.64L749.18 368.06L748.74 368.4L748.26 368.7L745.44 369.92L744.75 370.33L744.38 370.64L743.98 371.01L743.28 371.86L743.47 372.78L744.15 374.1L746.44 376.77L747.34 378.16L747.84 379.25L747.75 379.9L747.55 380.47L746.37 382.42L746.13 382.97L745.61 385.63L745.5 387.03L745.55 387.71L745.66 388.37L746.2 389.52L750.13 395.57L750.65 396.7L750.67 397.4L750.55 398.05L750.39 398.67L748.38 403.75L748.23 404.39L748.14 405.07L748.24 407.96L748.19 408.65L747.09 413.05L747.07 413.79L747.21 414.65L748.99 418.98L750.44 423.56L750.84 427.1L751.23 428.91L751.82 430.53L752.42 431.64L753.42 433.11L753.83 434.04L754.04 434.92L754.29 437.02L758.57 450.33L759.28 450.92L759.29 450.93Z" fill="#CCCCCC" stroke="white" stroke-width="0.5"/>
<path d="M210.13 718.31L209.09 717.96L208.27 717.2L207.41 716.2L206.27 715.3L202.83 713.65L200.22 711.76L199.29 711.98L198.47 712.64L197.69 713.44L196.24 714.54L195.71 715.03L194.41 716.62L192.78 718.2L192.06 719.1L191.43 720.06L190.43 721.07L189.03 721.98L186.27 722.78L183.42 724.3L179.06 728.01L178.37 728.93L176.54 731.89L176.06 732.87L175.98 733.98L176.39 734.98L176.95 735.97L180.9 741.64L181.31 742.67L181.91 744.71L182.38 745.74L184.89 749.59L185.42 750.63L185.83 751.77L188.14 762.76L188.98 764.84L189.05 767.18L189.3 768.34L189.83 769.35L191.32 771.1L191.81 772.09L191.96 773.28L191.59 774.67L191.71 775.84L193.19 778.89L195.51 781.04L196.05 781.66L196.45 782.3L196.84 783.27L197.6 787.15L197.52 788.76L197.11 790.53L195.89 793.04L195.33 794.71L195.23 796.16L195.52 797.21L195.93 798.1L196.41 798.48L197.14 798.85L198.01 799.18L198.57 800.07L199 801.17L199.25 802.47L199.99 804.59L201.14 810.07L201.55 811.25L202.08 812.36L202.46 813.59L202.55 814.99L202.11 816.74L201.37 818.22L200.17 820.03L199.85 821.45L200 822.58L200.34 823.55L201.09 824.98L201.77 825.75L202.6 826.52L207.26 829.91L208.09 830.74L208.66 831.69V833L207.92 833.76L206.82 834.19L204.54 834.29L202.05 834.74L200.39 835.7L199.14 835.84L198.1 835.54L197.16 835.11L194.29 834.33L192.15 833.43L190.96 833.34L189.71 833.64L188.4 834.15L186.83 835.06L185.9 836.42L184.98 838.28L183.7 839.62L182.4 840.32L178.69 841.37L177.41 841.41L176.13 841.19L173.63 840.47L172.52 839.93L170.51 838.66L167.27 837.23L166.13 837.25L164 837.8L163.08 837.7L161.17 836.64L159.28 836.8L157.92 836.76L155.48 836.22L152.42 836.6L150.98 836.51L148.41 835.87L147.36 835.31L146.57 834.5L142.04 827.89L140.6 826.22L139.84 825.61L139.16 825.24L138.34 824.92L137.32 824.67L136.28 824.58L135.02 824.62L133.74 824.8L131.42 825.57L130.33 825.85L129.35 825.82L127.01 825.21L123.26 824.75L118.64 823L116.22 822.53L116.18 822.52L124.1 832.92L126.2 836.72L127.05 840.54L127.85 841.89L133.06 846.97L135.16 850.41L136.8 854.12L139.01 861.84L139.45 866.41L137.99 868.44L135.57 868.88L134.69 870.1L134.43 871.89L133.87 874.08L133.23 874.79L131.32 876.01L130.8 876.54L130.65 877.9L130.9 879.01L131.3 880.06L131.55 881.25L131.67 885.24L131.32 887.19L130.43 888.84L129.58 890.07L127.48 894.08L127.05 895.65L127.49 897.66L128.61 899.7L130.06 901.5L131.55 902.82L132.26 903.07L133.84 903.16L134.62 903.61L135.15 904.43L136.11 907.68L138.14 907.97L138.96 911.85L138.93 916.86L138.37 920.44L136.6 924.8L134.53 928.51L131.94 931.76L125.39 938.19L123.03 941.87L115.02 958.02L113.93 962.27L114.3 966.04L112.76 967.59L107.94 971.38L106.41 973.4L103.74 979.78L103.19 978.35L103.01 977.63L102.99 976.58L100.15 980.36L98.6403 985.57L97.6203 991.13L96.2503 995.87L90.3303 1007.02L88.3403 1008.77L84.7503 1009.66L82.4403 1011.93L75.5203 1025.51L71.3703 1048.25L67.4303 1059.28L66.8703 1062.74L65.7703 1065.67L63.1203 1068.84L59.9303 1071.38L57.1903 1072.43L55.2003 1071.97L53.2503 1071.11L51.2003 1070.59L47.0803 1071.77L40.9703 1071.63L40.5203 1071.97L39.0703 1074.12L36.0703 1075.71V1076.45L37.6903 1078.16L41.6203 1080.81L42.8803 1082.09L43.3903 1083.59L44.3103 1089.7L45.3803 1091.25L50.0603 1093.91L51.1303 1095.41L51.6203 1097.25L52.7203 1099.33L54.8703 1102.22L57.9203 1104.5L58.6803 1105.6L59.0003 1106.76L59.1203 1109.24L59.3703 1110.42L61.3703 1114.31L62.1003 1116.17L62.3703 1118.9L63.1903 1121.6L66.8103 1124.59L67.6203 1126.2L67.9903 1127.76L68.8403 1129.83L70.6203 1133.1L73.2803 1135.99L73.8403 1137.14L74.2903 1139.8L74.7803 1140.84L76.0903 1141.85L77.4803 1142.2L78.9203 1142.37L80.4303 1142.79L81.1903 1143.3L82.4703 1144.6L83.4403 1145.21L85.8803 1145.77L88.1503 1145.41L92.1203 1144.4L93.9003 1143.7L96.6003 1139.94L98.5003 1138.1L101.84 1136.1L105.85 1134.49L109.94 1134.26L113.56 1136.39L115.33 1139.83L116.35 1139.9L118.5 1137.61L119.48 1135.84L119.96 1135.72L121.07 1136.39L121.67 1137.26L122.63 1140.44L125.93 1138.39L129.55 1137.43L137.99 1137.13L143.51 1134.47L147.45 1133.47L149.94 1131.54L152.5 1130.19L162.71 1114.26V1084.69L168.21 1071.4L183.34 1072.87L190.22 1080.26L202.6 1081.73L210.85 1072.87L221.86 1059.59L245.24 1050.74L259 1036L270 1033.06L282.93 1030.94L283.26 1029.59L283.24 1028.52L283.04 1027.04L282.27 1024.26L282 1022.79L281.94 1021.68L282.07 1020.26L282.03 1018.85L282.1 1018.17L282.8 1014.77L283 1014.17L283.6 1013.12L283.85 1012.55L284.04 1011.9L284.24 1009.63L284.38 1008.92L284.62 1008.32L285.01 1007.88L285.56 1007.63L287.7 1007.38L288.32 1007.18L288.76 1006.81L289.09 1006.31L289.2 1005.63L289.26 1004.9L288.81 999.33L285.98 986.86L285.93 985.82L286.13 985.22L286.37 984.66L286.56 984.03L286.82 982.61L286.97 980.45L287.12 979.92L287.28 979.55L288.35 977.75L288.57 977.14L288.71 976.47L288.76 974.95L288.71 974.21L287.79 969.59L287.75 968.9L287.82 968.19L288.16 966.91L288.63 965.74L288.8 965.09V964.16L288.64 963.03L286.73 954.98L286.59 954.04L286.56 951.83L285.13 945.71L284.18 943.58L283.75 942.29L283.55 941.35L283.56 939.62L283.5 938.45L283.17 937.51L282.49 936.26L282.32 935.43L282.35 934.71L282.51 934.05L282.58 933.37L282.51 931.18L282.58 930.44L282.76 929.81L283.07 929.3L283.48 928.89L284.4 928.22L284.84 927.85L285.13 927.31L285.23 926.63L285.03 924.99L285.11 924.27L285.57 922.96L285.74 922.09L285.62 921.45L285.3 920.96L284.84 920.6L283.26 919.74L282.34 919.06L281.79 918.55L281.26 917.87L280.56 916.69L280.39 915.81L280.48 915.1L281.35 913.53L281.57 912.93L281.74 912.28L282 909.37L282.21 908.34L284.87 905.07L285.44 904L285.62 903.37L285.93 901.21L286.1 900.57L286.58 899.53L287.33 898.71L288.22 897.98L289.02 897.16L289.63 896.16L289.87 895.58L290.06 894.94L290.41 890.42L290.31 889.54L289.61 887.02L289.39 885.82L289.24 884.06L289 882.75L286.61 877.05L285.56 872.88L285.11 871.84L284.69 871.1L284.3 870.69L284.02 869.99L283.96 869.05L284.14 867.45L284.43 866.56L284.77 865.87L284.98 865.27L285.03 864.53L284.81 858.14L284.94 857.59L285.18 857.29L285.52 857.08L287.19 856.51L287.65 856.19L287.98 855.71L288.09 854.76L288.01 851.33L288.43 848.47L288.32 844.92L288.16 843.82L287.92 842.76L286.83 839.54L286.44 837.59L285.44 835.39L285.22 834.61L285.15 833.36L284.89 832.52L284.11 831.81L283.43 831.74L282.78 831.84L280.97 832.41L279.9 832.91L278.4 833.81L277.86 834.04L277.24 834.15L276.63 834.07L276.1 833.81L275.62 833.47L274.84 832.67L273.76 831.33L271.57 829.47L270.85 828.6L270.55 828.1L269.49 825.98L268.18 824.1L267.02 822.86L266.75 822.21L266.59 821.36L266.78 819.89L267.02 819.01L267.56 817.73L267.65 817.04L267.51 816.28L266.92 815.41L266.3 814.97L263.83 814.15L263.28 813.51L262.79 812.55L262.16 810.52L261.63 809.57L261.16 808.88L259.16 807.66L258.72 807.28L258.35 806.84L258.09 806.37L256.16 801.1L255.29 799.58L254.92 799.16L254.48 798.8L253.97 798.5L252.16 797.87L251.62 797.6L251.29 796.97L251.24 796L251.77 794.08L252.2 793.08L253.23 791.33L253.51 790.79L253.68 790.04L253.71 789.1L253.01 785.83L252.81 785.25L252.16 782.75L251.65 776.99L251.36 775.7L250.97 774.51L250.91 773.83L251.08 773.06L251.7 772.15L252.76 771.17L253.64 770.47L255.5 768.32L255.82 767.84L256.69 766.27L257.09 765.85L257.51 765.47L259.03 764.62L259.45 764.24L259.79 763.77L260.32 762.69L260.63 762.21L261.02 761.79L261.45 761.41L263.35 760.11L263.78 759.74L264.16 759.32L264.46 758.46L265.18 752.47L263.66 738.56L263.59 734.77L263.73 734.09L263.96 733.5L264.31 733.03L265.54 731.77L265.5 730.92L265.04 729.59L261.9 724.68L261.07 723.76L259.25 723.01L257.06 723.42L256.5 724.05L255.84 724.63L254.83 725.67L253.81 726.09L252.79 725.98L252.08 725.21L251.55 724.25L251.22 723.21L250.61 722.3L249.69 721.51L247.51 720.5L246.35 720.49L245.59 720.73L245 721.5L244.25 722.21L242 723.67L240.42 724.39L239.01 724.16L229.21 719.85L228.1 719.2L226.41 717.72L225.2 716.86L223.71 715.99L220.98 714.93L219.39 714.6L217.89 714.57L213.72 716.55L211.61 717.85L210.13 718.31Z" fill="#CCCCCC" stroke="white" stroke-width="0.5"/>
<path d="M182.721 484.01L181.681 485.35L180.131 485.86L178.151 485.32L176.231 484.23L173.571 482.01L172.211 481.91L169.241 482.61L145.291 480.28L141.531 480.91L137.871 480.93L136.051 481.44L135.161 482.47L134.801 484.03L134.481 490.48L134.211 491.99L133.461 493.22L132.421 494.39L131.401 495.95L130.541 497.58L130.061 499.02L130.321 502.73L131.991 506.18L136.111 512.45L137.161 515.62L137.211 518.82L136.361 521.98L134.621 524.96L134.511 522.17L133.381 521.61L132.101 522.89L131.551 525.65L132.031 528L134.011 532.89L134.621 535.11L133.621 540.25L130.431 544.77L126.601 549.01L123.721 553.27L121.611 558.05L120.291 560.19L118.501 562.25L117.721 563.41L116.811 566.01L116.221 566.98L113.231 570.1L112.471 571.29L108.741 581.16L106.061 585.55L102.991 585.47L102.651 590.91L102.311 592.54L101.511 594.21L99.7114 596.06L91.3414 609.16L90.3414 612.5L89.6414 613.36L88.3414 612.69L87.6514 613.02L85.6914 617.8L80.0914 627.02L78.9314 630.38L77.9914 637.47L77.9414 641.05L78.5614 643.82L85.5014 653.71L87.0314 658.97L89.6614 661.44L90.2514 663.16L89.6914 668.29L86.4414 682.6L86.6214 690.19L90.9214 712.64V735.64L91.7814 739.07L98.9014 749.41L106.741 760.4L111.961 774.7L114.591 782.79L115.051 786.42L114.981 787.55L114.301 790.43L114.001 791.06L113.071 792L112.871 792.79L113.001 793.24L113.461 794.09L113.551 794.38V801.5L112.071 805.12L111.321 811.9L112.071 815.87L113.981 819.64L116.181 822.52L116.221 822.53L118.641 823L123.261 824.75L127.011 825.21L129.351 825.82L130.331 825.85L131.421 825.57L133.741 824.8L135.021 824.62L136.281 824.58L137.321 824.67L138.341 824.92L139.161 825.24L139.841 825.61L140.601 826.22L142.041 827.89L146.571 834.5L147.361 835.31L148.411 835.87L150.981 836.51L152.421 836.6L155.481 836.22L157.921 836.76L159.281 836.8L161.171 836.64L163.081 837.7L164.001 837.8L166.131 837.25L167.271 837.23L170.511 838.66L172.521 839.93L173.631 840.47L176.131 841.19L177.411 841.41L178.691 841.37L182.401 840.32L183.701 839.62L184.981 838.28L185.901 836.42L186.831 835.06L188.401 834.15L189.711 833.64L190.961 833.34L192.151 833.43L194.291 834.33L197.161 835.11L198.101 835.54L199.141 835.84L200.391 835.7L202.051 834.74L204.541 834.29L206.821 834.19L207.921 833.76L208.661 833V831.69L208.091 830.74L207.261 829.91L202.601 826.52L201.771 825.75L201.091 824.98L200.341 823.55L200.001 822.58L199.851 821.45L200.171 820.03L201.371 818.22L202.111 816.74L202.551 814.99L202.461 813.59L202.081 812.36L201.551 811.25L201.141 810.07L199.991 804.59L199.251 802.47L199.001 801.17L198.571 800.07L198.011 799.18L197.141 798.85L196.411 798.48L195.931 798.1L195.521 797.21L195.231 796.16L195.331 794.71L195.891 793.04L197.111 790.53L197.521 788.76L197.601 787.15L196.841 783.27L196.451 782.3L196.051 781.66L195.511 781.04L193.191 778.89L191.711 775.84L191.591 774.67L191.961 773.28L191.811 772.09L191.321 771.1L189.831 769.35L189.301 768.34L189.051 767.18L188.981 764.84L188.141 762.76L185.831 751.77L185.421 750.63L184.891 749.59L182.381 745.74L181.911 744.71L181.311 742.67L180.901 741.64L176.951 735.97L176.391 734.98L175.981 733.98L176.061 732.87L176.541 731.89L178.371 728.93L179.061 728.01L183.421 724.3L186.271 722.78L189.031 721.98L190.431 721.07L191.431 720.06L192.061 719.1L192.781 718.2L194.411 716.62L195.711 715.03L196.241 714.54L197.691 713.44L198.471 712.64L199.291 711.98L200.221 711.76L202.831 713.65L206.271 715.3L207.411 716.2L208.271 717.2L209.091 717.96L210.131 718.31L211.611 717.85L213.721 716.55L217.891 714.57L219.391 714.6L220.981 714.93L223.711 715.99L225.201 716.86L226.411 717.72L228.101 719.2L229.211 719.85L239.011 724.16L240.421 724.39L242.001 723.67L244.251 722.21L245.001 721.5L245.591 720.73L246.351 720.49L247.511 720.5L249.691 721.51L250.611 722.3L251.221 723.21L251.551 724.25L252.081 725.21L252.791 725.98L253.811 726.09L254.831 725.67L255.841 724.63L256.501 724.05L257.061 723.42L259.251 723.01L260.241 721.83L260.651 721.08L260.991 720.17L261.501 719.14L262.141 718.25L263.731 716.64L264.651 716.05L265.771 715.82L267.381 716.25L268.651 716.75L269.801 717.36L270.581 718.11L271.311 718.68H272.131L273.001 718.28L274.001 717.93L275.421 718.22L279.711 719.63L280.721 719.74L284.871 716.57L285.521 715.56L285.741 714.45L285.321 710.68L285.441 709.44L285.831 708.04L286.491 706.82L289.341 703.62L290.071 702.55L290.631 701.48L291.061 700.4L291.371 698.07L292.831 692.42L293.631 690.48L294.271 689.55L297.431 686.34L297.871 685.36L298.161 683.13L298.401 682.04L300.141 677.86L300.381 676.82L300.361 675.77L300.121 673.63L300.211 672.54L300.551 671.36L301.051 670.08L301.761 668.95L302.651 667.91L297.521 655.44L289.261 646.78L287.891 638.12L293.391 632.35L292.011 623.7L282.381 622.26L270.001 623.7H260.371L256.251 612.17L249.371 583.37L250.741 571.86L245.241 561.8L234.241 558.92L224.611 547.42L223.231 537.37L212.231 531.63L198.471 520.15L191.591 507.24L190.221 492.9L182.721 484.01Z" fill="#CCCCCC" stroke="white" stroke-width="0.5"/>
<path d="M430.088 775L407.558 772.74L389.678 771.29L378.678 772.74L367.668 782.91L362.168 803.27L351.158 820.73L334.658 841.13L323.648 857.17L349.788 852.79L360.788 855.71L369.048 854.25L378.678 844.04L392.428 835.3L406.188 832.38L418.568 833.84L422.688 839.67L437.828 842.58H452.958L463.958 835.3L468.088 823.64L462.588 804.72L450.818 784.79L449.378 781.43L446.258 780.22L442.848 777.94L435.168 776.28L430.088 775Z" fill="#CCCCCC" stroke="white" stroke-width="0.5"/>
<path d="M279.63 1130.54L270 1129.06L252.69 1117.88L251.32 1118.11L247.56 1118.18L246.91 1118.3L246.32 1118.51L245.81 1118.81L245.34 1119.15L244.97 1119.61L244.64 1120.1L244.39 1120.67L244.18 1121.31L241.68 1136.26L241.38 1136.79L240.98 1137.23L240.47 1137.52L239.89 1137.76L238.63 1138.09L238.05 1138.31L237.52 1138.61L237.15 1139.04L236.82 1139.53L236.62 1140.14L236.28 1141.47L236.04 1142.07L235.63 1142.48L235.1 1142.76L230.59 1143.82H225.99L224.62 1144.02L223.48 1144.39L223.02 1144.72L222.19 1145.51L221.87 1146.01L221.59 1146.54L222 1147.78L222.89 1149.44L225.29 1152.81L226.91 1155.58L227.51 1157.34L227.86 1158.13L228.15 1158.96L229.16 1164.27L229.18 1164.95L229.07 1165.61L228.6 1166.79L228.41 1167.42L228.32 1168.1L228.6 1169.07L229.14 1170.22L230.43 1172.36L230.88 1173.6L231.03 1174.61L230.84 1175.23L230.57 1175.79L230.2 1176.24L228.48 1177.75L228.31 1178.45L228.44 1179.43L229.02 1181.06L229.18 1182.12L229.19 1183.02L228.82 1184.3L228.49 1184.78L228 1185.07L226.62 1185.18L225.95 1185.31L225.49 1185.68L225.2 1186.21L224.69 1188.19L224.2 1189.34L224.01 1189.99L223.81 1191.46L223.76 1193.02L223.81 1193.87L223.98 1194.77L224.59 1196.75L224.71 1197.49L224.56 1198.08L224.23 1198.54L223.76 1198.88L222 1199.53L221.53 1199.87L221.19 1200.35L220.28 1202.7L220.22 1203.38L220.42 1204.67L220.45 1205.29L220.28 1205.88L219.9 1206.31L219.44 1206.67L217.78 1207.43L215.29 1208.17L214.14 1208.65L213.67 1209.01L213.29 1209.52L213.11 1210.17L212.99 1210.88L212.8 1211.51L212.51 1212.08L212.17 1212.57L211.78 1213.01L211.1 1213.99L206.43 1222.6L205.63 1225.19L205.39 1226.65L205.13 1229.79L204.78 1231.16L204.25 1232.29L201.14 1236.59L200.87 1237.15L200.65 1237.76L200.53 1238.43L200.55 1239.17L200.63 1239.94L201.62 1242.77L201.74 1243.44L201.81 1244.16L201.8 1244.92L201.66 1245.61L200.92 1247.29L200.75 1247.81L200.68 1248.25L200.58 1249.9L200.46 1250.46L200.29 1251.02L200.02 1251.59L199.36 1252.65L198.9 1253.85L197.72 1258.51L196.82 1260.93L196.75 1261.67L196.8 1262.46L197.13 1264.25L197.19 1265.85L197.3 1266.63L197.5 1267.37L197.88 1268.2L198.23 1268.79L198.74 1269.97L198.91 1270.59L199.22 1272.78L199.39 1273.53L199.7 1274.38L200 1274.96L200.31 1275.47L200.62 1275.84L201.54 1276.76L202.63 1278.11L205.88 1281.44L206.51 1281.86L207.38 1282.23L209.05 1282.52L210.11 1282.56L214.45 1281.99L215.14 1282.01L217.2 1282.34L217.89 1282.31L219.75 1281.88L220.36 1281.99L220.9 1282.35L221.22 1283.18L221.59 1284.63L222.19 1285.69L222.55 1286.15L223.11 1287.2L223.6 1289.15L223.81 1289.75L224.27 1290.25L224.91 1290.62L226.17 1290.74L228.6 1290.56L230.03 1290.74L231.98 1291.28L232.72 1291.3L233.42 1291.23L234.05 1291.05L235.52 1289.91L235.55 1289.89L236.16 1288.6L237.77 1286.17L237.69 1276.19L240 1261.74L241.73 1259.47L263.25 1247.03L284.21 1238.43L289.53 1237.31L291.09 1237.2L298.16 1237.88L302.87 1237.73L305.45 1238.47L313.56 1243.51L316.04 1245.86L317.86 1245.45L320.28 1247.44L328.19 1252.5L328.8 1253.24L330.91 1256.41L337.13 1270.38L337.5 1271.56L338.55 1273.51L338.82 1274.2L339.08 1275.54L339.28 1276.21L339.38 1276.42L341.44 1279.59L341.75 1280.33L341.92 1280.97L342.86 1282.95L344.07 1284.85L345.94 1288.56L346.21 1289.3L346.61 1290.89L347.05 1291.53L347.68 1292.13L355.48 1296.37L356.53 1297.11L357.33 1298.16L357.82 1299.89L358.45 1305.53L358.4 1306.57L358.04 1307.65L356.93 1309.76L356.59 1310.95V1312.21L356.92 1313.39L357.38 1314.55L358.01 1317L358.02 1318.22L357.7 1319.37L357.19 1320.42L356.83 1321.5L356.29 1323.73L355.67 1324.68L354.78 1325.43L352.77 1326.68L352.03 1327.44L351.7 1328.46L351.94 1329.68L352.5 1331.2L352.96 1333.73L353.47 1334.98L355.58 1338.07L357.1 1339.87L357.96 1341.23L359.61 1345.59L360.64 1347.62L360.97 1349.18L361.12 1350.42L361.05 1351.35L360.87 1352.37L360.63 1352.96L360.07 1353.74L359.3 1354.45L380.05 1360.25L389.68 1358.75L397.93 1349.74L400.68 1327.24L397.93 1301.77L395.18 1283.82L396.56 1276.35L406.19 1274.85L418.57 1280.83L429.57 1288.31H437.83V1279.33V1264.4L436.45 1246.49L426.82 1227.11L419.94 1200.31L414.44 1189.9L400.68 1183.96H389.68H375.92L364.92 1182.47L356.67 1172.07L353.91 1157.23L349.79 1146.85L330.53 1136.47L309.9 1130.54L293.39 1129.06L279.63 1130.54Z" fill="#CCCCCC" stroke="white" stroke-width="0.5"/>
<path d="M399.311 1044.85L384.181 1034.53L373.171 1018.33L370.421 1009.51L360.791 1012.45L352.541 1009.51L342.911 1013.92L333.281 1022.75L325.031 1031.59L309.901 1036L296.141 1043.37L281.531 1043.4L280.091 1046.1L279.371 1047.07L278.111 1048.24L277.771 1048.67L277.581 1049.25L277.551 1049.96L279.641 1061.89L279.751 1063.33L279.441 1066.28L279.251 1066.92L278.981 1067.49L278.671 1068L278.251 1068.38L277.701 1068.66L277.071 1068.83L274.961 1069.06L274.391 1069.31L273.881 1069.59L273.321 1069.85L272.061 1070.11L270.601 1071.02L269.501 1071.5L269.081 1071.88L268.771 1072.43L268.401 1072.88L267.801 1073.1L267.151 1073.24L266.571 1073.47L266.131 1073.84L265.791 1074.31L265.521 1074.86L265.081 1076.07L264.751 1076.58L264.311 1076.91L263.061 1077.24L262.531 1077.53L262.131 1077.93L261.821 1078.44L261.681 1079.09L261.821 1081.18L261.751 1081.9L261.601 1082.57L261.361 1083.16L261.071 1083.68L256.951 1088.55L256.691 1089.08L256.591 1089.76L256.671 1090.42L257.361 1093.63L257.411 1095.17L257.341 1095.9L256.711 1098.51L256.671 1099.16L256.781 1099.81L258.601 1107.6L258.671 1108.32L258.641 1108.99L258.521 1109.65L258.241 1110.19L257.841 1110.59L255.691 1111.63L255.401 1112.05L255.351 1112.51L255.361 1112.93L255.621 1114.11L255.771 1115.4L255.651 1116.01L255.401 1116.55L254.991 1116.97L254.511 1117.29L253.951 1117.53L252.691 1117.88L270.001 1129.06L279.631 1130.54L293.391 1129.06L309.901 1130.54L330.531 1136.47L349.791 1146.85L353.911 1157.23L356.671 1172.07L364.921 1182.47L375.921 1183.96H389.681H400.681L414.441 1189.9L422.691 1178.01L435.071 1170.59L451.581 1161.68L447.451 1152.78L451.581 1143.88L455.711 1126.1L462.591 1092.08L458.461 1081.73L455.711 1072.87L461.211 1059.59L465.341 1037.48L451.581 1036L447.451 1028.64L439.201 1025.69L421.321 1033.06L413.061 1044.85H399.311Z" fill="#CCCCCC" stroke="white" stroke-width="0.5"/>
<path d="M561.102 148.2L560.142 147.62L561.292 145.69L561.402 143.8L560.512 142.38L558.612 141.83L556.352 141.94L555.122 142.47L554.612 143.77L554.532 146.08L554.882 146.99L555.562 147.87L556.102 148.73L555.962 149.6L555.122 150.06L554.002 149.95L552.952 149.45L552.222 148.75L550.742 149.38L549.012 148.59L547.392 148.11L546.282 149.6L547.942 150.22L548.002 151.64L547.392 153.56L546.972 155.75L547.482 160.57L548.212 162.95L549.272 164.31L549.662 164.49L549.922 164.76L550.222 164.97L550.702 164.99V163.46H551.452L552.932 164.57L554.292 165.19L558.282 165.83L559.852 165.12L560.512 164.99V165.26L560.712 165.81L561.082 166.36L561.612 166.62L562.742 166.55L563.942 166.31L565.032 165.82L565.772 164.99L565.632 163.56L564.352 162.36L562.822 161.34L562.012 160.45L562.632 158.96L563.852 156.88L564.442 155.02L563.112 154.23L563.012 153.03L562.202 150.52L561.102 148.2ZM663.912 1L661.992 2.13L658.702 5.75L658.362 6.57L658.562 7.38L658.932 8.06L659.082 8.42L658.762 8.71L657.642 9.2L657.162 9.75L656.452 10.35L655.762 11.12L655.332 12.25L657.542 12.73L659.172 14.63L660.012 17.06L659.892 19.24L659.082 18.4L658.332 19.24L654.742 14.19L653.082 13.02L651.462 14.91L647.052 16.34L645.572 18.4L649.622 18.19L650.832 18.4L651.702 18.94L652.172 19.62L652.542 20.28L653.082 20.75L654.312 21.1L655.152 21.03L655.882 21.21L656.832 22.31L657.492 23.8L657.222 24.4L656.142 24.59L655.402 25.27L654.522 25.78L653.682 26.48L653.082 27.74L653.002 28.98L653.322 29.89L653.702 30.71L653.832 31.58L653.212 33.66L651.962 35.49L650.322 36.09L648.512 34.58L646.972 36.19L645.572 38.95L644.142 40.48L642.522 38.47L641.222 40.12L639.882 40.96L638.742 41.91L638.012 43.92L636.632 43.27L635.072 43.68L633.672 44.78L632.702 46.21L632.502 47.12L632.712 48.71L632.702 49.28L631.452 51.7L631.212 52.36L630.912 58.36L630.452 60.04L629.412 61.25L627.752 62.41L626.032 62.93L624.832 62.27L621.512 55.83L619.192 53.81L615.432 53.05L612.702 52.91L611.522 52.56L610.202 51.94L608.962 52.06L607.032 55.12L605.712 56.2L610.202 58.42L610.512 56.23L611.432 57.76L613.142 62.33L616.682 65.59L617.652 67.48L617.702 70.78L619.312 69.9L620.862 69.3L622.122 69.44L622.952 70.78L622.682 71.1L621.452 73.86L621.492 74.63L622.122 76L622.202 76.93L621.822 77.73L621.212 78.28L620.672 78.94L620.632 80.08L621.122 81.25L621.662 81.34L622.262 81.17L622.952 81.6L624.582 84.03L624.992 85.29L625.572 90.33L626.002 91.6L626.702 93.15L627.612 94.51L629.822 97.15L630.452 98.59L630.212 101.61L628.472 108.88L628.952 111.73L627.772 112.29L626.272 113.74L624.992 115.42L624.452 116.69L624.182 118.11L623.532 119.92L622.682 121.67L619.632 125.77L618.182 128.91L615.702 137.79L615.452 139.68L615.392 143.39L615.742 145.15L617.352 147.78L617.702 149.17L613.612 154.15L612.042 157.37L613.952 159.61L611.222 163.1L607.622 166.22L603.622 168.56L599.632 169.69L598.452 169.56L597.152 169.17L595.772 168.95L594.402 169.28L593.082 169.89L591.992 170.05L590.972 169.82L585.152 167.51L583.142 166.15L583.082 164.31L581.992 163.16L581.232 161.89L580.232 160.85L578.512 160.45L578.122 163.54L578.182 165.1L578.512 166.62L579.252 167.91L581.182 170.47L582.052 173.61L583.972 177.56L584.212 178.55L583.172 178.81L581.872 178.1L579.332 175.87L579.372 176.44L579.312 177.61L579.332 178.17L578.012 177.98L575.982 178.07L573.922 178.42L572.502 178.94L571.412 180.08L570.292 181.77L569.332 183.79L568.772 185.89L565.552 181.13L564.282 180.48L562.162 181.44L562.642 183.45L565.032 187.43L564.642 188.97L562.632 192.61L562.012 194.44L561.962 200.4L561.192 202.15L563.012 205.08L561.502 207.84L558.352 209.91L555.242 210.71L552.812 210.1L549.552 208.5L546.682 206.36L545.462 204.09L546.602 202.72L546.862 201.85L545.142 201.22L544.802 200.61L544.712 199.85V199.07L544.432 197.18L542.522 192.06L542.032 189.3L541.192 186.98L539.512 186.03L536.472 187.43L535.902 185.45L535.502 182.34L534.742 179.45L533.062 178.17L528.992 178.15L529.132 178.98L531.152 181.19L529.432 181.85L528.992 182.76L528.962 183.75L528.532 184.69L527.232 185.26L526.362 184.66L526.122 183.4L526.712 182.03L526.092 182.24L525.022 182.46L524.402 182.8L523.642 181.08L524.322 179.81L525.432 178.87L525.892 178.17L525.052 176.97H523.892L522.712 177.69L521.772 178.55L521.292 183.61L520.392 186.4L518.752 186.27L516.532 185.54L515.052 187.86L514.172 191.23L513.832 193.6L514.052 196.42L515.072 197.45L516.422 198.1L517.592 199.85L512.792 202.02L511.922 208.33L513.622 215.73L516.492 221.15L517.732 222.13L522.152 223.92L527.432 227.39V228.82L519.092 233.19L523.092 237.03L525.522 238.75L528.972 239.93V239.92L529.012 239.89L529.812 239.17L530.182 238.9L531.032 238.14L531.272 237.7L531.192 237.09L530.012 235.35V234.77L530.342 234.39L532.792 233.73L533.322 233.48L533.742 233.2L534.192 232.76L534.302 232.58L534.502 232.24L534.612 231.71L534.602 231.08L534.462 230.46L534.082 229.32L533.962 228.76L534.062 228.18L534.372 227.76L534.812 227.42L539.082 225.48L539.532 225.17L541.652 223.37L542.602 222.78L546.872 220.84L550.532 218.22L551.562 217.68L552.112 217.46H552.682L553.192 217.77L553.462 218.68L553.432 219.38L553.222 220.02L552.962 220.54L552.332 221.47L550.542 223.6L550.272 224.09L548.962 225.91L546.322 227.94L545.992 228.41L545.752 228.94L545.232 231.54V232.85L545.352 233.73L545.482 234.31L545.892 234.84L546.542 235.25L547.842 235.45L548.592 235.3L549.162 234.98L549.852 234.11L550.242 233.74L550.752 233.6L551.382 233.81L552.762 235.33L555.542 239.1L556.222 239.63L560.432 241.95L561.022 242.37L562.952 244.1L564.282 245L566.892 246.32L568.232 246.7L569.292 246.83L569.902 246.67L571.582 246.02L574.282 245.63L576.052 245.05L579.192 243.54L580.122 242.92L581.382 241.83L581.832 241.51L582.342 241.23L582.902 241.05L583.872 241.45L585.102 242.41L589.242 247.12L589.902 247.64L591.182 248.25L594.662 249.4L595.222 249.75L602.062 255.09L602.652 255.42L603.212 255.62L603.882 255.66L604.512 255.57L605.102 255.42L606.772 254.76L607.402 254.64H608.752L609.412 254.57L609.942 254.34L610.812 253.65L611.322 253.4L612.042 253.56L612.772 254.09L615.142 257.7L615.452 258.32L615.672 259.71L615.942 260.22L616.352 260.52L617.062 260.44L617.522 260.09L617.912 259.64L618.202 259.17L618.992 258.38L621.822 256.53L624.052 255.66L624.542 255.38L624.952 255.01L627.832 250.83L628.242 250.45L628.722 250.15L629.262 249.93L630.562 249.66L632.162 248.97L632.892 249L633.682 249.31L634.892 250.14L635.552 250.49L636.272 250.72L638.292 251L638.972 251.21L639.642 251.47L645.462 254.78L646.002 254.87L655.172 244.86L660.672 226.42L671.682 223.59L673.052 213.67L675.802 205.17L681.312 182.52L674.432 159.89L681.312 152.82L682.682 133.04L688.182 123.16L686.812 114.69L678.552 113.27L685.432 103.4L695.062 93.52L705.142 83.15L702.922 81.17L701.272 80.08L700.082 80.22L699.242 81.01L698.472 81.14L697.452 79.24L697.132 77.9L697.212 76.65L697.692 75.46L698.562 74.29L699.152 71.8L697.522 65.39L698.182 62.33L698.152 65.45L698.472 66.85L699.352 68.1L700.412 68.31L700.692 66.85L700.452 63.87L699.752 61.49L696.702 54.59L694.552 57.23L693.302 57.06L691.892 55.29L689.212 53.05L690.372 51.97L691.592 52.08L692.922 52.69L694.452 53.05L695.292 52.49L695.222 51.22L694.592 49.81L692.692 47.98L692.232 47.12L691.552 46.5L689.892 46.21L688.332 46.36L687.142 46.87L686.192 47.82L685.462 49.28L685.372 46.81L684.552 45.3L683.432 44.05L682.382 42.31L682.032 40.75L681.982 39.44L681.672 38.14L678.492 33.13L677.232 32.35L675.232 33.48L674.712 34.98L676.272 38.14L675.642 40.08L674.792 40.67L673.722 40.86L671.532 40.78L670.442 40.48L670.512 39.82L670.992 39.05L671.142 38.47L669.972 36.77L669.092 35.98L668.192 36.46L667.022 38.47L666.272 39.32L665.712 38.93L665.332 37.9L665.142 36.94L665.442 36.31L667.022 34.96L667.402 34.22L666.512 33.26L664.502 32.57L662.242 32.24L660.582 32.27L662.412 28.9L662.722 27.57L661.392 26.9L661.712 25.62L662.292 24.52L663.162 23.63L664.332 23.08L664.602 24.57L665.412 26.16L666.652 27.36L668.142 27.74L668.952 27.03L669.702 25.74L670.512 24.78L671.532 24.98L675.682 29.64L676.322 29.58L676.082 27.91L674.132 23.75L673.682 20.4L673.982 17.49L673.702 14.76L671.532 11.91L670.802 10.57L670.782 7.34L670.052 5.75L667.022 2.26L665.902 1.46L663.912 1Z" fill="#CCCCCC" stroke="white" stroke-width="0.5"/>
<path d="M370.82 660.31L369.1 660.1L367.65 659.71L366.46 659.08L365.62 659.44L364.09 660.92L362.03 662.06L360.17 663.37L359.16 663.86L357 664.36L355.92 664.76L354.94 665.28L353.52 665.81L351.7 666.2L348.61 666.5L346.98 667.04L345.94 667.9L345.52 668.86L344.75 669.61L343.66 670.08L340.69 670.87L338.4 671.2L336.89 671.7L333.37 673.83L332.31 674.34L331.15 674.36L329.75 674.2L328.61 674.73L327.47 675.4L325.26 676.13L323.87 676.08L323.16 675.34L323.07 673.11L322.44 672.14L321.63 672.2L319.36 673.25L317.6 673.63L316.19 673.54L315 673.11L313.77 672.48L312.27 671.87L308 671L306.81 670.49L306.1 669.91L304.91 668.69L304.01 668.17L302.65 667.91L301.76 668.95L301.05 670.08L300.55 671.36L300.21 672.54L300.12 673.63L300.36 675.77L300.38 676.82L300.14 677.86L298.4 682.04L298.16 683.13L297.87 685.36L297.43 686.34L294.27 689.55L293.63 690.48L292.83 692.42L291.37 698.07L291.06 700.4L290.63 701.48L290.07 702.55L289.34 703.62L286.49 706.82L285.83 708.04L285.44 709.44L285.32 710.68L285.74 714.45L285.52 715.56L284.87 716.57L280.72 719.74L279.71 719.63L275.42 718.22L274 717.93L273 718.28L272.13 718.68H271.31L270.58 718.11L269.8 717.36L268.65 716.75L267.38 716.25L265.77 715.82L264.65 716.05L263.73 716.64L262.14 718.25L261.5 719.14L260.99 720.17L260.65 721.08L260.24 721.83L259.25 723.01L261.07 723.76L261.9 724.68L265.04 729.59L265.5 730.92L265.54 731.77L264.31 733.03L263.96 733.5L263.73 734.09L263.59 734.77L263.66 738.56L265.18 752.47L264.46 758.46L264.16 759.32L263.78 759.74L263.35 760.11L261.45 761.41L261.02 761.79L260.63 762.21L260.32 762.69L259.79 763.77L259.45 764.24L259.03 764.62L257.51 765.47L257.09 765.85L256.69 766.27L255.82 767.84L255.5 768.32L253.64 770.47L252.76 771.17L251.7 772.15L251.08 773.06L250.91 773.83L250.97 774.51L251.36 775.7L251.65 776.99L252.16 782.75L252.81 785.25L253.01 785.83L253.71 789.1L253.68 790.04L253.51 790.79L253.23 791.33L252.2 793.08L251.77 794.08L251.24 796L251.29 796.97L251.62 797.6L252.16 797.87L253.97 798.5L254.48 798.8L254.92 799.16L255.29 799.58L256.16 801.1L258.09 806.37L258.35 806.84L258.72 807.28L259.16 807.66L261.16 808.88L261.63 809.57L262.16 810.52L262.79 812.55L263.28 813.51L263.83 814.15L266.3 814.97L266.92 815.41L267.51 816.28L267.65 817.04L267.56 817.73L267.02 819.01L266.78 819.89L266.59 821.36L266.75 822.21L267.02 822.86L268.18 824.1L269.49 825.98L270.55 828.1L270.85 828.6L271.57 829.47L273.76 831.33L274.84 832.67L275.62 833.47L276.1 833.81L276.63 834.07L277.24 834.15L277.86 834.04L278.4 833.81L279.9 832.91L280.97 832.41L282.78 831.84L283.43 831.74L284.11 831.81L284.89 832.52L285.15 833.36L285.22 834.61L285.44 835.39L286.44 837.59L286.83 839.54L287.92 842.76L288.16 843.82L288.32 844.92L288.43 848.47L288.01 851.33L288.09 854.76L287.98 855.71L287.65 856.19L287.19 856.51L285.52 857.08L285.18 857.29L284.94 857.59L284.81 858.14L304.39 860.08L323.65 857.17L334.66 841.13L351.16 820.73L362.17 803.27L367.67 782.91L378.68 772.74L389.68 771.29L407.56 772.74L430.09 775L428.03 772.06L423.53 769.64L420.06 764.52L418.64 759.1L414.9 755.81L413.01 752.31L409.6 736.19L398.52 725.4L383.93 705.26L374.37 679.86L370.82 660.31Z" fill="#CCCCCC" stroke="white" stroke-width="0.5"/>
<path d="M431.959 396.96L428.549 397.95L425.079 399.8L421.349 401.21L417.449 401.8L415.449 402.46L414.159 403.62L413.159 407.37L412.339 408.97L411.159 408.71L410.819 406.02L412.129 402.18L417.019 392.29L418.139 391.09L419.849 389.96L421.219 388.79L422.879 385.9L423.969 384.42L423.949 383.01L422.099 381.77L418.349 380.21L416.629 379.22L415.449 378.25L414.589 377.1L413.249 374.27L413.069 373.65L413.089 370.65L412.939 369.6L412.609 368.72L411.909 368.34L410.199 368.72L407.139 370.38L402.509 371.74L394.219 379.36L382.909 387.6L376.579 389.16L375.399 390.39L375.809 391.5L379.209 392.44L380.659 393.43L378.159 394.18L375.269 394.13L372.349 394.43L369.759 396.19L368.459 397.43L363.799 400.85L360.819 403.69L359.599 404.38L359.539 403.63L359.339 403.1L359.099 402.63L358.919 402.05L356.369 403.94L349.439 411.79L344.549 415.7L342.469 417.89L341.249 422.06L339.649 425.18L339.289 427.02L339.829 427.88H341.089L342.589 427.67L343.799 427.8L344.989 429.57L344.509 431.8L341.599 436.38L340.279 437.55L338.969 438.3L338.769 439.06L340.779 440.27L341.739 440.49L345.279 440.27L348.009 441.25L352.559 445.54L354.729 446.52L357.359 451.25L358.559 454.27L357.409 455.16L355.189 453.42L353.289 450.7L351.179 448.64L348.279 448.92L349.049 450.98L349.129 453.46L348.209 455.44L346.029 455.94L345.159 455.27L343.929 453.09L343.049 452.82L342.419 453.57L342.319 454.93L342.399 456.39L342.299 457.5L339.879 455.48L338.109 453.33L334.249 445.35L332.859 443.26L331.109 441.47L328.709 439.49L330.739 437.99L331.499 436.36L332.019 434.54L333.289 432.48L332.399 431.48L331.959 430.38L331.809 429.19L331.799 427.85L331.269 427.08L329.989 426.62L327.229 426.26L321.779 426.28L319.149 426.79L316.649 427.8L314.119 429.38L311.539 431.41L309.269 433.78L307.679 436.38L307.029 438.91L308.519 438.2L311.089 436.2L313.739 434.82L313.719 436.82L312.879 438.05L311.879 439.05L311.409 440.27L312.129 442.22L313.199 443.63V444.33L310.659 444.24L307.679 442.61L306.749 442.55L304.839 442.7L303.909 442.61L302.319 442.25L301.409 441.82L301.009 440.9L300.919 439.1L301.119 435.32L300.299 434.32L297.919 433.98L296.219 434.08L294.739 434.37L293.359 434.87L286.669 438.8L284.199 439.16L280.229 436.61L278.619 436.42H276.939L275.289 435.99L273.469 435.27L272.329 435.34L268.709 437.7L265.169 441.49L264.369 443.06L265.009 444.07L266.189 445.07L267.039 446.52L267.099 447.68L266.829 448.57L266.459 449.42L266.229 450.42L266.129 453.31L266.229 453.6L265.369 454.88L263.619 456.65L263.289 457.92L264.419 463.8L263.349 465.77L262.539 466.03L261.789 463.8L259.869 464.76L259.799 463.61L260.989 460.3L260.959 458.68L260.799 458.25L260.389 457.97L259.549 456.78L258.729 453.6L257.299 454.54L256.489 454.93L255.729 455.16L237.799 457.11L236.799 458.03L236.849 459.48L237.739 461.4L239.049 462.77L241.199 463.59L241.479 464.58L240.749 466.37L239.189 467.46L235.459 468.88L234.279 469.97L233.349 471.44L232.259 472.68L230.579 473.24L228.839 472.9L228.019 471.92L227.839 470.43L227.989 468.49L228.599 466.17L228.659 465.37L228.599 464.31L228.489 463.75L226.569 457.4L226.409 453.77L226.159 452.12L225.389 451.41L221.099 454.38L214.339 457.31L211.359 459.06L208.919 461.43L206.449 464.54L202.709 470.83L200.549 473.6L197.369 475.64L190.969 478.7L191.869 479.48L190.419 480.13L187.259 480.63L185.739 481.05L184.209 481.95L183.389 482.9L182.719 484.01L190.219 492.9L191.589 507.24L198.469 520.15L212.229 531.63L223.229 537.37L224.609 547.42L234.239 558.92L245.239 561.8L250.739 571.86L271.379 567.55L283.759 573.3H307.139L311.269 580.49L319.519 592.01L331.899 602.09L338.779 597.77L344.289 584.81L351.159 580.49L358.039 571.86L370.419 568.98L378.679 548.86L383.299 529.82L397.929 527.32L414.439 525.89L428.199 527.32L440.579 533.06L450.209 537.37L454.329 531.63L448.829 523.02L436.449 512.97L444.699 504.37L452.959 494.33L451.579 484.3L444.699 474.28L436.449 461.39L432.319 437.08L428.199 418.5L431.959 396.96Z" fill="#CCCCCC" stroke="white" stroke-width="0.5"/>
<path d="M472.221 505.8L462.591 500.07L452.961 494.33L444.701 504.37L436.451 512.97L448.831 523.02L454.331 531.63L450.211 537.37L440.581 533.06L428.201 527.32L414.441 525.89L397.931 527.32L383.301 529.82L378.681 548.86L370.421 568.98L358.041 571.86L351.161 580.49L344.291 584.81L338.781 597.77L331.901 602.09L319.521 592.01L311.271 580.49L307.141 573.3H283.761L271.381 567.55L250.741 571.86L249.371 583.37L256.251 612.17L260.371 623.7H270.001L282.381 622.26L292.011 623.7L293.391 632.35L287.891 638.12L289.261 646.78L297.521 655.44L302.651 667.91L304.011 668.17L304.911 668.69L306.101 669.91L306.811 670.49L308.001 671L312.271 671.87L313.771 672.48L315.001 673.11L316.191 673.54L317.601 673.63L319.361 673.25L321.631 672.2L322.441 672.14L323.071 673.11L323.161 675.34L323.871 676.08L325.261 676.13L327.471 675.4L328.611 674.73L329.751 674.2L331.151 674.36L332.311 674.34L333.371 673.83L336.891 671.7L338.401 671.2L340.691 670.87L343.661 670.08L344.751 669.61L345.521 668.86L345.941 667.9L346.981 667.04L348.611 666.5L351.701 666.2L353.521 665.81L354.941 665.28L355.921 664.76L357.001 664.36L359.161 663.86L360.171 663.37L362.031 662.06L364.091 660.92L365.621 659.44L366.461 659.08L367.651 659.71L369.101 660.1L370.821 660.31L378.091 659.76L384.651 658.06L386.361 657.86L388.661 657.99L392.721 658.76L397.241 659.01L398.711 658.69L400.451 657.8L401.811 657.86L402.901 657.7L403.791 657.75L404.481 658.79L405.631 662.45L405.891 663.69L405.851 664.99L405.431 667.4L405.891 668.38L407.131 668.92L412.891 668.97L415.991 669.38L418.311 670.13L419.381 671.04L420.741 672.68L421.751 672.34L422.411 671.5L423.571 669.35L424.241 668.44L425.961 666.97L426.981 666.37L428.151 665.96L432.331 665.38L433.471 664.95L437.141 662.2L438.381 661.56L440.031 661.08L442.841 660.81L445.361 660.84L448.251 661.33L452.941 662.93L455.061 663.96L456.131 664.84L456.101 665.79L456.151 666.74L456.341 667.93L457.151 670.21L457.821 671.12L458.671 671.86L461.881 673.47L462.811 674.18L463.531 675.07L464.071 676.14L465.021 677.21L466.741 678L469.831 678.88L474.501 679.56L478.191 679.01L479.721 679.54L480.481 680.5L481.761 682.74L482.801 683.68L485.471 683.98L489.761 683.76L505.511 680.82L508.711 679.65L514.881 678.25L518.491 673.23L521.411 667.76L521.731 666.49L521.421 665.12L521.341 664.24L521.391 662.9L521.641 662.14L521.971 661.58L523.201 660.4L523.981 659.4L524.271 658.56L524.361 657.82L524.301 655.98L524.491 654.46L524.781 653.64L525.141 653.08L525.501 652.81L525.791 652.64L526.261 652.46L526.811 652.31L527.471 652.25L528.121 652.34L528.871 652.3L529.671 652.07L530.951 650.9L531.491 650.06L531.821 649.22L532.331 645.69L532.571 641.48L532.941 639.75L533.421 639.17L534.631 638.77L534.961 638.28L535.141 637.62V634.98L535.431 633.45L535.821 632.69L536.301 632.16L537.461 631.31L538.171 630.6L538.311 629.97L538.221 628.51L538.501 627.37L538.561 626.62L538.431 625.99L537.951 625.72L535.891 625.49L535.381 625.08L535.041 624.44L534.851 623.33L534.971 622.6L535.261 622.03L536.711 620.87L537.321 620.12L537.701 619.17L538.771 614.33L539.081 613.43L539.421 612.76L540.481 611.69L541.261 610.72L542.621 608.62L543.181 607.46L543.471 606.54L542.931 604.51L542.861 603.32L543.051 602.63L543.401 602.09L544.261 601.37L544.941 600.49L547.291 596.12L547.801 594.55L547.971 593.42L547.771 592.82L547.531 592.28L547.291 591.56L547.081 590.64L546.971 589.11L546.741 588.22L546.451 587.54L546.251 586.76L546.161 585.68L546.281 583.76L546.111 582.77L545.751 582.14L545.191 581.89L543.831 581.69L542.381 581.75L541.671 581.69L541.021 581.55L540.451 581.32L538.561 580.03L537.001 578.42L534.511 574.84L534.441 574.3L534.371 571.43L534.081 570.38L533.621 569.63L533.131 569.07L533.061 568.51L534.291 564.8L534.331 563.8L534.101 563.09L533.641 562.75L532.601 562.2L532.041 561.97L531.551 561.68L531.121 561.31L530.811 560.84L530.321 559.74L530.001 559.26L529.601 558.85L529.161 558.51L528.661 558.21L528.211 557.75L527.831 557.13L527.511 555.09L527.281 554.39L526.991 553.9L526.621 553.49L525.821 552.87L525.281 552.33L524.951 551.95L524.701 551.45L524.321 550.26L524.031 549.75L523.691 549.3L523.321 548.89L522.641 547.99L521.001 546.45L520.371 545.49L519.841 544.08L519.551 542.95L519.651 542.09L519.921 541.28L520.431 540.3L520.551 539.49L520.401 535.31L519.981 532.47L519.631 531.25L519.181 530.12L517.521 527.04L517.351 526.44L516.431 521.19L516.421 519L499.731 514.41L490.101 510.1L484.601 505.8H472.221Z" fill="#CCCCCC" stroke="white" stroke-width="0.5"/>
<path d="M593.219 971.16L596.019 962.45L602.329 945.41L611.389 926.39L611.699 924.89L611.089 923.12L608.419 919.39L607.959 918.04L608.949 916.84L610.399 917.89L611.749 919.79L612.449 921.24L616.009 910.68L615.949 906.33L616.199 903.61L619.949 885.23L633.809 849.6L643.809 813.17L647.819 807L656.349 787.28L662.059 765.74L668.509 752.22L671.139 744.31L671.949 742.89L674.039 740.25L674.799 738.78L677.539 715.82L680.879 709.41L681.979 708.69L683.099 708.23L683.759 707.58L683.509 706.26L682.989 705.41L681.769 703.94L681.259 703.1L680.809 701.52L680.669 699.53L680.809 697.51L686.159 680.03L690.009 666.31L691.319 658.35L690.709 650.89L687.519 633.69L671.679 635.24L667.549 643.9V652.56L653.789 656.89L637.289 658.33L622.159 661.22L618.029 672.78H604.269L597.389 675.67L604.269 684.34L613.899 695.92L615.279 707.49L601.519 716.18L587.769 719.08L583.639 735.02V758.23L589.139 775.65L598.769 801.81V823.64L589.139 826.56L587.769 844.04L568.509 849.87L572.629 871.76H562.999L558.879 898.06L540.999 896.6L532.739 889.29L524.489 895.13L509.069 898.17L505.659 903.97L504.919 904.84L503.239 906.37L501.369 907.73L500.549 908.53L500.209 908.99L499.599 910.01L499.339 910.69L499.159 911.56L499.169 915.63L498.929 916.66L498.529 917.88L495.519 923.34L495.029 925.33L494.569 930.83L494.489 936.71L494.179 938.86L493.669 939.99L492.529 943.32L490.719 950.83L490.309 953.84L490.769 963.49L491.019 964.51L491.349 964.99L491.749 965.4L492.049 965.91L492.729 967.64L493.109 968.09L493.529 968.45L495.299 969.12L495.829 969.41L496.309 969.76L497.469 971.02L497.899 971.39L498.899 972.01L499.309 972.41L499.629 972.87L499.939 973.38L500.309 973.9L500.809 974.37L501.519 974.81L502.219 975.01L502.939 975.03L504.229 974.76L507.109 974.59L507.759 974.46L508.339 974.23L510.319 972.9L510.859 972.67L511.479 972.47L512.159 972.36L512.869 972.31L514.299 972.47L515.659 972.77L516.379 972.85L517.119 972.86L517.829 972.78L518.439 972.6L518.949 972.31L520.199 971.12L521.659 970.17L522.239 969.94L523.539 969.63L524.879 969.48L525.909 969.52L526.499 969.64L528.489 970.91L530.609 972.65L531.799 973.38L532.769 973.8L533.469 973.78L534.059 973.58L534.579 973.29L534.959 972.87L535.179 972.38L535.159 971.8L534.409 970.19L534.259 969.57L534.199 968.9L534.299 968.25L534.679 967L538.039 961.43L538.219 960.81L538.329 960.1L538.699 958.83L539.009 958.33L540.109 957.01L540.339 956.45L540.559 955.15L540.779 954.57L541.109 954.08L541.799 953.22L541.909 952.72L541.739 952.21L541.139 951.23L540.949 950.67V950.05L541.169 949.53L541.479 949.06L541.889 948.68L542.379 948.35L543.029 948.12L543.779 947.99L544.769 947.95L545.449 948.12L546.009 948.42L546.419 948.81L546.759 949.27L549.079 953.39L549.449 953.82L551.379 955.26L553.799 956.69L555.129 957.25L556.269 957.55L557.029 957.54L557.749 957.46L561.179 956.54L562.349 956.44L563.049 956.65L563.729 957.07L564.359 957.66L566.239 958.96L566.779 959.45L567.119 959.93L567.579 961.08L567.719 961.74V963.25L567.649 963.99L567.789 964.83L568.159 965.66L569.129 966.64L569.979 967.05L575.489 968.3L583.269 968.23L592.309 970.73L593.219 971.16Z" fill="#CCCCCC" stroke="white" stroke-width="0.5"/>
<path d="M455.712 1197.33L446.082 1195.85L428.202 1186.93L422.692 1178.01L414.442 1189.9L419.942 1200.31L426.822 1227.11L436.452 1246.49L437.832 1264.4V1279.33V1288.31H429.572L418.572 1280.83L406.192 1274.85L396.562 1276.35L395.182 1283.82L397.932 1301.77L400.682 1327.24L397.932 1349.74L389.682 1358.75L380.052 1360.25L359.302 1354.45L357.772 1356.21L357.172 1357.25L355.692 1360.76L353.352 1365.03L351.552 1369.81L351.262 1370.98L351.172 1371.98L351.672 1373.2L352.712 1374.74L356.782 1378.12L359.162 1379.67L360.052 1380.42L360.732 1381.4L361.762 1383.68L362.382 1384.71L363.222 1385.51L364.262 1386.13L365.402 1386.64L371.582 1388.17L379.852 1391.22L383.842 1393.84L384.572 1394.58L384.992 1395.33L385.102 1395.82L384.772 1398.03L385.112 1399.07L386.362 1400.99L386.772 1402.18L387.502 1406.14L388.522 1407.1L390.402 1407.57L396.502 1407.75L398.592 1408.47L399.722 1409.27L400.642 1410.16L401.402 1411.04L404.672 1415.99L405.122 1417.09L405.262 1418.33L405.022 1419.55L404.132 1421.96L403.632 1424.5L403.582 1426.59L403.772 1427.87L404.162 1429.03L405.002 1429.95L406.232 1430.5L408.222 1430.48L409.782 1430.23L412.942 1429.22L414.812 1428.21L415.702 1427.61L416.512 1426.79L417.042 1425.82L418.022 1423.49L418.632 1422.43L420.112 1420.6L420.722 1419.58L421.032 1418.39L420.912 1417.14L420.492 1416.01L418.752 1412.82L417.802 1410.53L417.462 1409.24L417.232 1407.95L417.252 1406.6L417.572 1405.35L418.342 1404.46L419.502 1404.13L422.722 1405.25L424.202 1405.52L427.202 1404.61L428.252 1403.94L428.882 1403.14L429.092 1402.25L429.072 1401.26L428.392 1397.61L428.432 1394.51L429.172 1393.77L430.782 1393.57L438.602 1395.82L440.132 1396.61L442.982 1398.59L457.052 1406.38L462.562 1410.81L462.752 1410.89L463.062 1410.06L464.972 1406.06L465.692 1403.02L465.722 1402.71L465.692 1402.04L465.222 1401.66L465.002 1401.31L465.722 1400.69L465.842 1400.67L466.992 1400.25H467.222L467.782 1399.75L469.532 1398.61L470.292 1397.85L472.222 1394.32L478.192 1378.18L483.842 1352.72L483.392 1349.61L481.452 1348.61L479.642 1348.43L478.882 1347.73L480.032 1345.12L481.252 1343.47L481.882 1343.73L482.502 1345.11L483.772 1346.75L496.792 1306.65L499.462 1289.29L503.592 1277.6L507.312 1264.34L507.922 1253.09L510.032 1245.88L512.652 1227.98L501.102 1218.17H487.352L473.592 1212.21L469.462 1198.82L459.842 1192.87L455.712 1197.33Z" fill="#CCCCCC" stroke="white" stroke-width="0.5"/>
<path d="M281.53 1043.4L281.79 1042.81L281.98 1042.2L282.11 1041.6L282.93 1030.94L270 1033.06L259 1036L245.24 1050.74L221.86 1059.59L210.85 1072.87L202.6 1081.73L190.22 1080.26L183.34 1072.87L168.21 1071.4L162.71 1084.69V1114.26L152.5 1130.19L149.94 1131.54L147.45 1133.47L143.51 1134.47L137.99 1137.13L129.55 1137.43L125.93 1138.39L122.63 1140.44L121.67 1137.26L121.07 1136.39L119.96 1135.72L119.48 1135.84L118.5 1137.61L116.35 1139.9L115.33 1139.83L113.56 1136.39L109.94 1134.26L105.85 1134.49L101.84 1136.1L98.5 1138.1L96.6 1139.94L93.9 1143.7L92.12 1144.4L88.15 1145.41L85.88 1145.77L83.44 1145.21L82.47 1144.6L81.19 1143.3L80.43 1142.79L78.92 1142.37L77.48 1142.2L76.09 1141.85L74.78 1140.84L74.29 1139.8L73.84 1137.14L73.28 1135.99L70.62 1133.1L68.84 1129.83L67.99 1127.76L67.62 1126.2L66.81 1124.59L63.19 1121.6L62.37 1118.9L62.1 1116.17L61.37 1114.31L59.37 1110.42L59.12 1109.24L59 1106.76L58.68 1105.6L57.92 1104.5L54.87 1102.22L52.72 1099.33L51.62 1097.25L51.13 1095.41L50.06 1093.91L45.38 1091.25L44.31 1089.7L43.39 1083.59L42.88 1082.09L41.62 1080.81L37.69 1078.16L36.07 1076.45V1075.71L33.98 1077.75L33.11 1077.73L32.25 1075.71L31.56 1078.62L29.26 1084.06L28.43 1087V1118.5L26.01 1117.06L23.9 1117.35L22.02 1118.84L14.66 1127.74L13.44 1129.94L12.93 1134.52L13.11 1140.5L12.68 1146.05L10.44 1149.25L11.14 1144.95L10.98 1142.95L9.7 1141.25L8.77 1142.49L8.03 1143.84L7.54 1145.26L7.37 1146.84L8.19 1150.06L7.87 1150.42L7.37 1150.71L6.9 1150.89L6.68 1150.94L6.31 1151.59L5.8 1151.99L5.37 1152.54L5.18 1153.74V1156.56L4.94 1157.78L3.87 1160.14L3.63 1161.45L3.67 1172.17L5.17 1176.92L8.94 1176.98L9.04 1179.12L9.47 1181.21L9.66 1183.23L8.94 1185.08L6.62 1182.89L3.63 1183.17L1.28 1185.01L1 1187.5L2.21 1190.25L2.94 1193.18L2.98 1194.31L2.88 1195.51L2.91 1196.69L5.51 1202.08L7.05 1207.81L8.19 1218.75L7.76 1224.23L7.81 1227.02L8.56 1229.78L9.16 1230.85L10.65 1232.86L11.19 1233.89L11.84 1238.12L13.15 1241.48L13.72 1247.7L15.1 1250.94L15.69 1255.84L16.18 1257.45L17.44 1260.03L19.72 1263.64L23.49 1267.87L25.5 1269.37L27.07 1270.86L28.87 1274.61L30.06 1276.33L37.57 1281.91L40.56 1285.2L42.06 1290.18L43.51 1299.11L43.98 1309.82L45.13 1313.99L45.55 1316.67L45.82 1317.33L46.69 1318.13L47.43 1318.34L48.13 1318.44L48.88 1318.89L53.55 1323.39L55.65 1326.28L58.58 1328.75L59.76 1330.4L60.11 1331.57L60.06 1332.56L59.38 1334.57L58.88 1335.39L57.19 1337.01L57 1339.23L58.49 1342.36L58.69 1344.3L56.79 1346.93L49.41 1350.21L46.98 1352.55L46.47 1356.33L46.69 1364.82L45.13 1367.29L46.49 1369.43L47.21 1371.6L48.13 1376.38L49.44 1379.92L49.57 1381.3L49.31 1382.48L48.34 1384.7L48.13 1385.85L50.05 1397.48L48.59 1418.18L50.41 1436.19L54.13 1444.79L57.47 1448.35L65.1 1453.6L68.75 1456.8L69.23 1457.78L69.57 1460.26L69.87 1461.34L70.46 1462.28L71.02 1462.81L71.55 1463.25L76.25 1468.43L77.36 1470.48L78.42 1474.51L77.36 1485.33L78.48 1489.27L86.44 1500.26L87.53 1504.28L88.24 1513.8L89.5 1516.43L98.25 1522.38L99.49 1522.71L102.99 1522.68L106.88 1524.68L113.52 1531.98L117.38 1533.58L119.48 1533.68L121.25 1534.04L122.92 1534.78L124.74 1536L127.54 1538.84L129.05 1539.72L130.8 1539.37L131.29 1542.09L130.35 1543.41L128.5 1543.35L126.3 1541.76L122.92 1537.79L121 1536.07L118.88 1535.17L119.68 1537.82L123.25 1541.89L124.88 1546.58L126.9 1547.7L143.09 1551.06L154.64 1551.7L166.25 1553.39L171.65 1534.71L190.91 1518.01L206.04 1502.84L210.16 1484.65L207.41 1463.46V1448.34L212.92 1434.75L215.67 1412.12L221.17 1395.55L228.05 1386.52L248.68 1382.01L254.18 1360.96L247.31 1345.94L226.67 1347.44L226.37 1332.98L239.62 1311.17L235.52 1289.91L234.05 1291.05L233.42 1291.23L232.72 1291.3L231.98 1291.28L230.03 1290.74L228.6 1290.56L226.17 1290.74L224.91 1290.62L224.27 1290.25L223.81 1289.75L223.6 1289.15L223.11 1287.2L222.55 1286.15L222.19 1285.69L221.59 1284.63L221.22 1283.18L220.9 1282.35L220.36 1281.99L219.75 1281.88L217.89 1282.31L217.2 1282.34L215.14 1282.01L214.45 1281.99L210.11 1282.56L209.05 1282.52L207.38 1282.23L206.51 1281.86L205.88 1281.44L202.63 1278.11L201.54 1276.76L200.62 1275.84L200.31 1275.47L200 1274.96L199.7 1274.38L199.39 1273.53L199.22 1272.78L198.91 1270.59L198.74 1269.97L198.23 1268.79L197.88 1268.2L197.5 1267.37L197.3 1266.63L197.19 1265.85L197.13 1264.25L196.8 1262.46L196.75 1261.67L196.82 1260.93L197.72 1258.51L198.9 1253.85L199.36 1252.65L200.02 1251.59L200.29 1251.02L200.46 1250.46L200.58 1249.9L200.68 1248.25L200.75 1247.81L200.92 1247.29L201.66 1245.61L201.8 1244.92L201.81 1244.16L201.74 1243.44L201.62 1242.77L200.63 1239.94L200.55 1239.17L200.53 1238.43L200.65 1237.76L200.87 1237.15L201.14 1236.59L204.25 1232.29L204.78 1231.16L205.13 1229.79L205.39 1226.65L205.63 1225.19L206.43 1222.6L211.1 1213.99L211.78 1213.01L212.17 1212.57L212.51 1212.08L212.8 1211.51L212.99 1210.88L213.11 1210.17L213.29 1209.52L213.67 1209.01L214.14 1208.65L215.29 1208.17L217.78 1207.43L219.44 1206.67L219.9 1206.31L220.28 1205.88L220.45 1205.29L220.42 1204.67L220.22 1203.38L220.28 1202.7L221.19 1200.35L221.53 1199.87L222 1199.53L223.76 1198.88L224.23 1198.54L224.56 1198.08L224.71 1197.49L224.59 1196.75L223.98 1194.77L223.81 1193.87L223.76 1193.02L223.81 1191.46L224.01 1189.99L224.2 1189.34L224.69 1188.19L225.2 1186.21L225.49 1185.68L225.95 1185.31L226.62 1185.18L228 1185.07L228.49 1184.78L228.82 1184.3L229.19 1183.02L229.18 1182.12L229.02 1181.06L228.44 1179.43L228.31 1178.45L228.48 1177.75L230.2 1176.24L230.57 1175.79L230.84 1175.23L231.03 1174.61L230.88 1173.6L230.43 1172.36L229.14 1170.22L228.6 1169.07L228.32 1168.1L228.41 1167.42L228.6 1166.79L229.07 1165.61L229.18 1164.95L229.16 1164.27L228.15 1158.96L227.86 1158.13L227.51 1157.34L226.91 1155.58L225.29 1152.81L222.89 1149.44L222 1147.78L221.59 1146.54L221.87 1146.01L222.19 1145.51L223.02 1144.72L223.48 1144.39L224.62 1144.02L225.99 1143.82H230.59L235.1 1142.76L235.63 1142.48L236.04 1142.07L236.28 1141.47L236.62 1140.14L236.82 1139.53L237.15 1139.04L237.52 1138.61L238.05 1138.31L238.63 1138.09L239.89 1137.76L240.47 1137.52L240.98 1137.23L241.38 1136.79L241.68 1136.26L244.18 1121.31L244.39 1120.67L244.64 1120.1L244.97 1119.61L245.34 1119.15L245.81 1118.81L246.32 1118.51L246.91 1118.3L247.56 1118.18L251.32 1118.11L252.69 1117.88L253.95 1117.53L254.51 1117.29L254.99 1116.97L255.4 1116.55L255.65 1116.01L255.77 1115.4L255.62 1114.11L255.36 1112.93L255.35 1112.51L255.4 1112.05L255.69 1111.63L257.84 1110.59L258.24 1110.19L258.52 1109.65L258.64 1108.99L258.67 1108.32L258.6 1107.6L256.78 1099.81L256.67 1099.16L256.71 1098.51L257.34 1095.9L257.41 1095.17L257.36 1093.63L256.67 1090.42L256.59 1089.76L256.69 1089.08L256.95 1088.55L261.07 1083.68L261.36 1083.16L261.6 1082.57L261.75 1081.9L261.82 1081.18L261.68 1079.09L261.82 1078.44L262.13 1077.93L262.53 1077.53L263.06 1077.24L264.31 1076.91L264.75 1076.58L265.08 1076.07L265.52 1074.86L265.79 1074.31L266.13 1073.84L266.57 1073.47L267.15 1073.24L267.8 1073.1L268.4 1072.88L268.77 1072.43L269.08 1071.88L269.5 1071.5L270.6 1071.02L272.06 1070.11L273.32 1069.85L273.88 1069.59L274.39 1069.31L274.96 1069.06L277.07 1068.83L277.7 1068.66L278.25 1068.38L278.67 1068L278.98 1067.49L279.25 1066.92L279.44 1066.28L279.75 1063.33L279.64 1061.89L277.55 1049.96L277.58 1049.25L277.77 1048.67L278.11 1048.24L279.37 1047.07L280.09 1046.1L281.53 1043.4Z" fill="#CCCCCC" stroke="white" stroke-width="0.5"/>
<path d="M298.161 1237.88L291.091 1237.2L289.531 1237.31L284.211 1238.43L263.251 1247.03L241.731 1259.47L240.001 1261.74L237.691 1276.19L237.771 1286.17L236.161 1288.6L235.551 1289.89L235.521 1289.91L239.621 1311.17L226.371 1332.98L226.671 1347.44L247.311 1345.94L254.181 1360.96L248.681 1382.01L253.031 1396.99L265.881 1396.35L281.011 1400.87L289.261 1408.4L283.761 1426.5L289.261 1440.08L301.641 1450.66V1464.26L297.521 1480.91L300.271 1493.03V1511.22L322.281 1523.37L332.041 1540.59L348.391 1536.54L361.091 1536.18L372.351 1537.73L376.001 1538.79L377.721 1538.85L385.241 1536.77L386.291 1536L387.361 1534.69H388.491L389.581 1535.11L390.471 1535.17L391.601 1534.23L393.141 1532.06L394.391 1531.25L397.601 1529.99L398.781 1529.16L401.181 1526.89L407.601 1522.21L407.691 1521.86L408.011 1521.73L409.291 1521.92L410.421 1524.64L410.791 1525.16L411.871 1524.52L417.141 1518.07L420.231 1515.17L422.101 1513.98L425.331 1512.73L426.131 1511.73L426.601 1509.37L426.541 1507.29L426.281 1505.4L426.381 1503.64L427.351 1501.93L427.361 1503.84L427.721 1505.63L428.471 1507.24L429.601 1508.61L430.841 1505.57L429.901 1497.78L431.431 1494.05L437.061 1489.72L437.841 1487.81L437.771 1484.05L438.081 1482.25L440.821 1477.88L450.041 1454.41L452.911 1434.92L451.401 1428.33L451.941 1427.6L454.281 1428.72L455.611 1429.16L456.461 1428.39L462.751 1410.89L462.561 1410.81L457.051 1406.38L442.981 1398.59L440.131 1396.61L438.601 1395.82L430.781 1393.57L429.171 1393.77L428.431 1394.51L428.391 1397.61L429.071 1401.26L429.091 1402.25L428.881 1403.14L428.251 1403.94L427.201 1404.61L424.201 1405.52L422.721 1405.25L419.501 1404.13L418.341 1404.46L417.571 1405.35L417.251 1406.6L417.231 1407.95L417.461 1409.24L417.801 1410.53L418.751 1412.82L420.491 1416.01L420.911 1417.14L421.031 1418.39L420.721 1419.58L420.111 1420.6L418.631 1422.43L418.021 1423.49L417.041 1425.82L416.511 1426.79L415.701 1427.61L414.811 1428.21L412.941 1429.22L409.781 1430.23L408.221 1430.48L406.231 1430.5L405.001 1429.95L404.161 1429.03L403.771 1427.87L403.581 1426.59L403.631 1424.5L404.131 1421.96L405.021 1419.55L405.261 1418.33L405.121 1417.09L404.671 1415.99L401.401 1411.04L400.641 1410.16L399.721 1409.27L398.591 1408.47L396.501 1407.75L390.401 1407.57L388.521 1407.1L387.501 1406.14L386.771 1402.18L386.361 1400.99L385.111 1399.07L384.771 1398.03L385.101 1395.82L384.991 1395.33L384.571 1394.58L383.841 1393.84L379.851 1391.22L371.581 1388.17L365.401 1386.64L364.261 1386.13L363.221 1385.51L362.381 1384.71L361.761 1383.68L360.731 1381.4L360.051 1380.42L359.161 1379.67L356.781 1378.12L352.711 1374.74L351.671 1373.2L351.171 1371.98L351.261 1370.98L351.551 1369.81L353.351 1365.03L355.691 1360.76L357.171 1357.25L357.771 1356.21L359.301 1354.45L360.071 1353.74L360.631 1352.96L360.871 1352.37L361.051 1351.35L361.121 1350.42L360.971 1349.18L360.641 1347.62L359.611 1345.59L357.961 1341.23L357.101 1339.87L355.581 1338.07L353.471 1334.98L352.961 1333.73L352.501 1331.2L351.941 1329.68L351.701 1328.46L352.031 1327.44L352.771 1326.68L354.781 1325.43L355.671 1324.68L356.291 1323.73L356.831 1321.5L357.191 1320.42L357.701 1319.37L358.021 1318.22L358.011 1317L357.381 1314.55L356.921 1313.39L356.591 1312.21V1310.95L356.931 1309.76L358.041 1307.65L358.401 1306.57L358.451 1305.53L357.821 1299.89L357.331 1298.16L356.531 1297.11L355.481 1296.37L347.681 1292.13L347.051 1291.53L346.611 1290.89L346.211 1289.3L345.941 1288.56L344.071 1284.85L342.861 1282.95L341.921 1280.97L341.751 1280.33L341.441 1279.59L339.381 1276.42L339.281 1276.21L339.081 1275.54L338.821 1274.2L338.551 1273.51L337.501 1271.56L337.131 1270.38L330.911 1256.41L328.801 1253.24L328.191 1252.5L320.281 1247.44L317.861 1245.45L316.041 1245.86L313.561 1243.51L305.451 1238.47L302.871 1237.73L298.161 1237.88Z" fill="#CCCCCC" stroke="white" stroke-width="0.5"/>
<path d="M213.99 1589.26L215.65 1588.74L217.26 1587.98L218.94 1587.59L250.18 1586.23L257.76 1584.56L263.29 1579.27L265.75 1579.07L268.05 1578.12L270.15 1576.58L281.15 1566.09L296.51 1557.49L310.3 1550.25L332.04 1540.59L322.28 1523.37L300.27 1511.22V1493.03L297.52 1480.91L301.64 1464.26V1450.66L289.26 1440.08L283.76 1426.5L289.26 1408.4L281.01 1400.87L265.88 1396.35L253.03 1396.99L248.68 1382.01L228.05 1386.52L221.17 1395.55L215.67 1412.12L212.92 1434.75L207.41 1448.34V1463.46L210.16 1484.65L206.04 1502.84L190.91 1518.01L171.65 1534.71L166.25 1553.39L170.59 1554.7L177.99 1558.3L186.11 1564.34L187.96 1566.05L189.33 1569.74L190.76 1571.4L194.05 1573.84L205.76 1578.26L209.11 1580.86L210.04 1582.84L211.08 1587.51L212.12 1588.87L213.99 1589.26Z" fill="#CCCCCC" stroke="white" stroke-width="0.5"/>
<path d="M728.088 582.92L731.198 576.13L735.108 570.83L740.478 559.02L743.378 550.15L747.348 541.87L747.808 539.1L743.558 541.56L742.218 542.63L741.278 544.12L740.898 545.89L740.718 547.69L740.308 549.35L732.888 561.03L730.398 563.87L729.488 565.41L729.138 567.37L729.028 570.58L728.788 572.07L728.308 573.64L725.678 579.36L725.108 582.34L726.078 585.47L728.088 582.92ZM699.698 339.46L698.878 339.38L697.838 339.68L697.318 339.93L696.838 340.25L696.428 340.62L694.498 343.41L693.788 344.04L693.058 344.35L692.368 344.32L691.708 344.22L691.098 344.06L690.618 343.87L690.278 343.68L687.758 341.89L687.258 341.62L686.748 341.49L686.208 341.75L685.808 342.35L685.538 343.57L685.528 344.45L685.558 345.23L686.258 347.72L686.328 349.13L686.168 350.53L685.998 351.16L685.048 353.7L684.878 354.54V355.26L684.978 355.79L685.288 356.54L685.458 357.08L685.558 357.74L685.628 359.18L685.368 361.29L685.068 361.96L684.618 362.59L683.698 363.21L682.988 363.52L682.198 363.68L680.768 363.63L679.438 363.36L677.758 362.71L677.198 362.57L676.578 362.61L676.078 362.91L675.738 363.48L675.658 364.46V365.27L675.738 365.95L675.978 366.48L676.618 367.39L676.888 367.91L677.058 368.53L677.138 369.21L677.108 369.93L677.018 370.62L676.618 371.78L676.278 372.4L675.788 373.02L674.958 373.67L674.208 373.84L673.548 373.78L671.738 373.22L671.108 373.17L670.518 373.28L669.968 373.51L669.508 373.9L668.498 374.99L667.908 375.31L666.728 375.75L663.698 377.72L662.738 377.98L661.908 378.04L660.498 377.88L659.798 377.91L659.148 378.04L658.568 378.23L658.028 378.47L657.048 379.08L656.538 379.51L656.048 380.07L655.418 380.96L654.918 381.52L654.428 381.98L653.368 382.47L650.988 383.21L647.888 384.81L647.288 384.99L646.638 385.1H645.958L644.718 384.91H644.048L643.418 385.01L642.178 385.34L639.348 385.7L638.088 386.01L637.578 386.51L637.148 387.25L636.858 388.8V389.74L637.068 390.48L637.608 391.5L637.798 392.09L637.928 393.53L638.048 394.18L638.218 394.81L638.748 395.83L639.098 396.27L639.538 396.61L640.048 396.89L640.628 397.1L641.278 397.24L641.988 397.26L642.658 397.18L643.778 396.87L644.368 396.91L644.868 397.14L645.328 397.49L645.808 397.79L646.318 397.99L646.898 397.96L647.938 397.63H648.358L648.618 397.99L648.688 398.53L648.448 399.35L647.938 400.29L646.758 401.75L644.968 403.38L644.608 404L644.308 404.79L644.138 406.25L644.258 407.11L644.478 407.83L644.698 408.37L644.888 408.93L644.968 409.55V410.25L643.108 424.23L641.748 429.21L641.548 430.57V431.3L641.618 431.98L641.788 432.59L642.058 433.11L643.418 434.89L644.028 435.88L644.968 438.07L645.688 440.48L646.998 447.01L647.118 448.39L647.038 449.18L646.758 450.18L645.328 453.02L643.778 455.12L641.068 458.04L640.428 458.92L639.638 460.55L638.548 463.89L638.508 464.16L637.528 468.16L635.988 471.77L635.858 472.75L636.038 473.45L636.438 473.84L636.878 474.18L647.138 478.99L650.538 479.56L654.888 479.77L656.148 480.07L657.308 480.52L657.768 480.85L658.128 481.29L658.368 481.82L658.488 482.49L658.518 483.17L658.418 484.49L658.468 485.09L659.148 486.69L659.318 487.33L659.418 487.98L659.178 489.03L658.668 490.34L652.148 502.35L651.638 503.65L651.508 504.93L651.368 505.53L651.048 506.29L649.368 508.84L647.158 510.57L642.828 512.77L642.208 512.95L641.578 513.07L640.898 513.11L640.238 513.41L639.678 514.03L639.228 515.43L639.128 516.4L639.208 517.94L638.928 519.01L638.378 520.3L636.978 522.67L635.838 525.43L635.378 526.22L634.478 527.18L633.428 528.05L632.778 528.73L632.238 529.47L631.868 530.57L631.848 531.35L631.968 532.05L632.548 533.05L633.588 534.38L633.828 534.86L633.798 535.46L633.388 535.99L632.408 536.51L631.628 536.8L626.228 537.77L623.528 550.3V560.36L616.648 577.61L619.398 596.33L613.898 609.29L621.068 617.64L615.278 632.35L605.648 639.57L608.398 645.34L619.398 651.11L622.158 661.22L637.288 658.33L653.788 656.89L667.548 652.56V643.9L671.678 635.24L687.518 633.69L685.458 622.58L682.128 617.18L681.628 615.44L682.718 607.24L688.328 593.88L693.438 579.41L700.768 564.53L702.168 562.75L703.938 561.5L706.128 561.03L711.658 560.52L714.388 559.02L720.818 558.05L724.308 556.71L727.628 554.84L724.698 555.13L722.088 554.7L719.728 553.46L717.418 551.31L715.748 548.81L714.958 546.4L714.768 541.13L719.658 537.16L722.838 533.45L728.628 523.29L729.138 521.83V517.88L729.238 517L729.708 515.35L730.138 510.94L729.858 509.2L728.728 508.47L726.758 506.75L726.158 502.78L726.348 498.33L728.678 487.63L728.218 484.34L725.698 480.66L722.538 478.62L715.378 476.03L712.508 473.24L711.098 470.02L710.368 466.23L710.418 462.42L711.418 459.13L714.768 453.18L715.568 451.25L715.928 449.33L715.638 448.02L714.018 444.96L712.918 441.4L712.168 435.64L710.608 431.89L709.728 428.06L708.508 426.57L707.228 425.34L706.508 423.92H706.798L707.938 420.8L708.058 419.22L707.938 417.61L705.568 411.09L705.458 408.14L711.728 399.24L714.178 396.99L717.748 395.76H724.848L728.848 395.32L731.728 393.81L733.768 394.02L734.308 394.2L734.998 395.19L734.848 395.97L734.458 396.63L734.308 397.32L735.178 403.09L735.118 405.09L734.518 408.61L734.798 410.08L737.928 414.22L738.438 414.57L739.398 414.61L740.108 414.75L740.738 415.1L741.438 415.76L742.508 417.49L742.378 418.99L741.658 420.5L741.058 422.36L741.008 424.2L741.318 426.11L741.898 427.91L742.628 429.44L743.578 430.7L745.008 432.2L746.558 433.45L747.868 433.98L748.098 434.81L748.618 440.66L749.438 444.05L751.478 446.52L756.878 451.25L759.288 450.93L759.278 450.92L758.568 450.33L754.288 437.02L754.038 434.92L753.828 434.04L753.418 433.11L752.418 431.64L751.818 430.53L751.228 428.91L750.838 427.1L750.438 423.56L748.988 418.98L747.208 414.65L747.068 413.79L747.088 413.05L748.188 408.65L748.238 407.96L748.138 405.07L748.228 404.39L748.378 403.75L750.388 398.67L750.548 398.05L750.668 397.4L750.648 396.7L750.128 395.57L746.198 389.52L745.658 388.37L745.548 387.71L745.498 387.03L745.608 385.63L746.128 382.97L746.368 382.42L747.548 380.47L747.748 379.9L747.838 379.25L747.338 378.16L746.438 376.77L744.148 374.1L743.468 372.78L743.278 371.86L743.978 371.01L744.378 370.64L744.748 370.33L745.438 369.92L748.258 368.7L748.738 368.4L749.178 368.06L749.538 367.64L749.748 367.12L749.668 366.49L749.368 365.81L742.078 356.27L739.998 352.07L739.228 351.26L738.808 350.91L738.248 350.65L737.618 350.48L736.588 350.65L735.918 350.9L734.288 351.82L733.708 352.03L732.488 352L727.098 350.96L725.448 350.8L724.298 350.87L723.778 351.13L714.818 354.77L714.218 354.94L713.178 354.34L711.878 353.04L709.428 349.58L708.478 347.9L706.288 345.29L699.698 339.46Z" fill="#CCCCCC" stroke="white" stroke-width="0.5"/>
<path d="M420.74 672.68L419.38 671.04L418.31 670.13L415.99 669.38L412.89 668.97L407.13 668.92L405.89 668.38L405.43 667.4L405.85 664.99L405.89 663.69L405.63 662.45L404.48 658.79L403.79 657.75L402.9 657.7L401.81 657.86L400.45 657.8L398.71 658.69L397.24 659.01L392.72 658.76L388.66 657.99L386.36 657.86L384.65 658.06L378.09 659.76L370.82 660.31L374.37 679.86L383.93 705.26L398.52 725.4L409.6 736.19L413.01 752.31L414.9 755.81L418.64 759.1L420.06 764.52L423.53 769.64L428.03 772.06L430.09 775L435.17 776.28L442.85 777.94L446.26 780.22L449.38 781.43L450.82 784.79L462.59 804.72L468.09 823.64H480.47L477.72 839.67V854.25L496.98 863L511.87 874.7L511.56 872.45L511.58 869.68L511.76 868.7L512 867.95L513.52 865.35L514.28 863.69L514.57 862.44L514.71 860.99L514.9 860.21L515.22 859.64L516.71 857.89L518.58 854.95L519.01 854.01L519.28 853.16L519.62 851.41L520.38 843.8L520.42 842.33L520.13 840.04L520.09 835.95L519.46 834.19L519.31 833.31L519.24 832.16L519.43 828.75L519.36 827.8L519.18 827.21L515.61 820.17L515.37 819.26L515.19 817.69L515.24 816.75L515.39 815.95L517.23 812.23L517.75 810.73L517.9 809.57L517.92 808.11L518.05 807.3L518.31 806.64L518.87 805.81L519.31 804.97L519.77 803.85L519.94 802.69L520.28 797.1L520.2 794.47L520.5 790.56L520.43 789.86L519.62 786.67L519.24 783.87L518.99 774.93L520.38 767.2L524.05 756.65L524.49 754.63L524.58 753.14L524.48 751.67L525.38 741.98L525.28 737.82L525.43 736.8L525.56 736.15L525.75 735.79L526.36 734.93L528.15 733.37L528.59 732.77L529.13 731.77L529.25 730.96L529.23 730.19L529.08 729.58L528.82 729.04L527.93 727.54L527.73 726.71L527.62 725.59V722.4L527.45 721.54L525.77 718.57L525.45 717.82L525.33 716.8L525.56 709.66L525.53 709.42L525.41 709.06L525.07 707.06L524.99 704.78L525.17 703.5L525.43 702.41L525.84 701.37L525.85 700.64L525.73 700.1L525.09 698.97L524.65 697.85L524.12 695.23L523.74 694.01L522.93 692.45L522.74 691.82L522.34 686.72L522.16 686.11L521.86 685.61L521.47 685.23L520.96 684.93L519.28 684.2L518.31 683.57L517.86 683.22L516.35 682.31L515.91 681.95L515.56 681.29L515.34 680.72L514.88 678.25L508.71 679.65L505.51 680.82L489.76 683.76L485.47 683.98L482.8 683.68L481.76 682.74L480.48 680.5L479.72 679.54L478.19 679.01L474.5 679.56L469.83 678.88L466.74 678L465.02 677.21L464.07 676.14L463.53 675.07L462.81 674.18L461.88 673.47L458.67 671.86L457.82 671.12L457.15 670.21L456.34 667.93L456.15 666.74L456.1 665.79L456.13 664.84L455.06 663.96L452.94 662.93L448.25 661.33L445.36 660.84L442.84 660.81L440.03 661.08L438.38 661.56L437.14 662.2L433.47 664.95L432.33 665.38L428.15 665.96L426.98 666.37L425.96 666.97L424.24 668.44L423.57 669.35L422.41 671.5L421.75 672.34L420.74 672.68Z" fill="#CCCCCC" stroke="white" stroke-width="0.5"/>
<path d="M288.231 912.57L287.451 912.46L284.641 910.89L282.211 908.34L282.001 909.37L281.741 912.28L281.571 912.93L281.351 913.53L280.481 915.1L280.391 915.81L280.561 916.69L281.261 917.87L281.791 918.55L282.341 919.06L283.261 919.74L284.841 920.6L285.301 920.96L285.621 921.45L285.741 922.09L285.571 922.96L285.111 924.27L285.031 924.99L285.231 926.63L285.131 927.31L284.841 927.85L284.401 928.22L283.481 928.89L283.071 929.3L282.761 929.81L282.581 930.44L282.511 931.18L282.581 933.37L282.511 934.05L282.351 934.71L282.321 935.43L282.491 936.26L283.171 937.51L283.501 938.45L283.561 939.62L283.551 941.35L283.751 942.29L284.181 943.58L285.131 945.71L286.561 951.83L286.591 954.04L286.731 954.98L288.641 963.03L288.801 964.16V965.09L288.631 965.74L288.161 966.91L287.821 968.19L287.751 968.9L287.791 969.59L288.711 974.21L288.761 974.95L288.711 976.47L288.571 977.14L288.351 977.75L287.281 979.55L287.121 979.92L286.971 980.45L286.821 982.61L286.561 984.03L286.371 984.66L286.131 985.22L285.931 985.82L285.981 986.86L288.811 999.33L289.261 1004.9L289.201 1005.63L289.091 1006.31L288.761 1006.81L288.321 1007.18L287.701 1007.38L285.561 1007.63L285.011 1007.88L284.621 1008.32L284.381 1008.92L284.241 1009.63L284.041 1011.9L283.851 1012.55L283.601 1013.12L283.001 1014.17L282.801 1014.77L282.101 1018.17L282.031 1018.85L282.071 1020.26L281.941 1021.68L282.001 1022.79L282.271 1024.26L283.041 1027.04L283.241 1028.52L283.261 1029.59L282.931 1030.94L282.111 1041.6L281.981 1042.2L281.791 1042.81L281.531 1043.4L296.141 1043.37L309.901 1036L325.031 1031.59L333.281 1022.75L342.911 1013.92L352.541 1009.51L360.791 1012.45L370.421 1009.51L373.171 1018.33L384.181 1034.53L399.311 1044.85H413.061L421.321 1033.06L439.201 1025.69L447.451 1028.64L451.581 1036L465.341 1037.48L466.711 1018.33L472.221 1012.45L480.471 1010.98L481.841 1003.62L483.221 987.46L491.471 984.52L501.521 974.81L500.811 974.37L500.311 973.9L499.941 973.38L499.631 972.87L499.311 972.41L498.901 972.01L497.901 971.39L497.471 971.02L496.311 969.76L495.831 969.41L495.301 969.12L493.531 968.45L493.111 968.09L492.731 967.64L492.051 965.91L491.751 965.4L491.351 964.99L491.021 964.51L490.771 963.49L490.311 953.84L490.721 950.83L492.531 943.32L493.671 939.99L494.181 938.86L494.491 936.71L494.571 930.83L494.261 930.11L493.981 929.75L493.571 929.35L493.061 929.04L492.491 928.81L489.941 928.3L489.201 928.08L488.621 927.76L488.281 927.34L488.131 926.8L488.231 926.25L488.491 925.75L489.251 924.89L489.561 924.45L489.681 923.89L489.541 923.36L489.101 922.96L488.451 922.79L487.351 923.05L486.671 923.37L486.141 923.81L484.621 925.53L484.161 925.86L483.551 926.07L480.161 926.64L479.011 927.11L473.461 930.38L472.901 930.49L472.321 930.35L471.841 929.71L471.281 928.48L470.921 928.03L470.461 927.68L469.811 927.47L469.081 927.44L468.031 927.83L467.521 928.35L467.181 928.97L466.941 929.55L466.611 930.03L466.181 930.42L465.381 930.58L464.241 930.48L457.441 928.66L456.901 928.4L455.551 927.32L455.041 927.01L454.361 926.82L453.511 926.8L452.261 927.05L450.171 927.71L449.731 927.96L449.451 928.19L447.831 930.28L447.421 930.68L446.861 930.85L446.131 930.68L445.291 930L444.841 929.38L444.511 928.75L444.191 928.26L443.711 927.94L443.081 927.85L442.301 928.11L441.771 928.48L441.291 928.9L439.841 929.86L439.421 930.24L438.651 931.09L438.311 931.58L438.041 932.11L437.871 932.75L437.801 934.87L437.241 938.37L437.081 939.01L436.491 939.43L435.481 939.59L433.551 939.61L431.681 939.99L429.521 941.02L428.651 941.2L423.581 941.46L420.271 942.94L419.531 943.03L418.651 942.9L416.571 941.93L415.341 941.13L414.801 940.89L414.111 940.75L413.061 940.91L412.391 941.22L410.941 942.28L410.571 942.72L409.601 944.19L406.191 948.06L403.681 950.39L402.971 951.3L402.561 951.7L402.121 952.06L401.511 952.34L398.741 952.52L397.701 952.75L395.901 953.99L393.721 954.78L391.591 953.68L389.721 952.26L388.171 952.79L386.361 953.86L383.681 954.11L381.271 953.39L373.931 949.64L372.161 950.04L370.331 952.01L368.241 953.79L365.691 953.68L364.831 952.88L364.251 951.98L363.631 951.23L362.661 950.92L361.321 950.85L359.231 950.4L357.021 949.56L356.081 949L355.051 948.58L353.691 948.52L352.421 948.97L349.801 950.57L348.381 950.92L346.251 950.4L343.741 949.17L339.311 946.12L337.361 944.22L336.261 942.27L336.701 940.42L339.311 938.86L338.291 937.55L337.191 934.74L336.311 933.27L337.991 932.7L338.651 931.16L338.501 929.27L337.741 927.61L336.521 926.57L333.221 924.86L331.821 923.62L330.971 925.53L329.951 926.58L327.251 928.48L324.621 931.71L323.811 931.82L323.501 929.28L322.941 926.89L321.531 926.25L319.701 926.02L317.841 924.89L316.971 923.02L316.391 918.92L315.191 917.24L314.211 916.89L312.211 917.25L311.441 917.24L310.601 916.71L309.171 915.31L308.441 914.85L301.351 914.45L295.951 912L293.441 911.48L292.641 911.21L291.861 911.27L290.791 912.06L290.111 912.41L289.191 912.57H288.231Z" fill="#CCCCCC" stroke="white" stroke-width="0.5"/>
<path d="M554.94 487.86L554.28 487.82L553.65 487.66L552.3 487.52L547.01 488.44L546.43 488.66L544.92 489.49L544.34 489.71L542.38 490.11L541.82 490.32L541.29 490.58L540.73 490.81L540.13 490.97L539.42 491L536.68 490.84L536.06 490.71L535.52 490.49L534.5 489.88L533.95 489.66L533.28 489.61L532.65 489.68L531.31 489.67L530.08 489.35L528.97 488.88L528.36 488.74H527.78L527.2 488.89L526.25 489.44L525.77 489.63L525.43 489.67L524.92 489.6L523.98 489.06L523.45 488.87L523.01 489.1L522.74 489.71L522.77 491.11L522.69 491.88L522.33 492.7L521.47 493.59L520.09 494.57L519.29 495.35L518.65 496.29L517.92 497.93L517.8 498.74V499.73L518.61 503.7L518.78 505.12L518.77 506.16L517.88 513L517.66 513.78L516.91 515.56L516.74 516.26L516.42 519L516.43 521.19L517.35 526.44L517.52 527.04L519.18 530.12L519.63 531.25L519.98 532.47L520.4 535.31L520.55 539.49L520.43 540.3L519.92 541.28L519.65 542.09L519.55 542.95L519.84 544.08L520.37 545.49L521 546.45L522.64 547.99L523.32 548.89L523.69 549.3L524.03 549.75L524.32 550.26L524.7 551.45L524.95 551.95L525.28 552.33L525.82 552.87L526.62 553.49L526.99 553.9L527.28 554.39L527.51 555.09L527.83 557.13L528.21 557.75L528.66 558.21L529.16 558.51L529.6 558.85L530 559.26L530.32 559.74L530.81 560.84L531.12 561.31L531.55 561.68L532.04 561.97L532.6 562.2L533.64 562.75L534.1 563.09L534.33 563.8L534.29 564.8L533.06 568.51L533.13 569.07L533.62 569.63L534.08 570.38L534.37 571.43L534.44 574.3L534.51 574.84L537 578.42L538.56 580.03L540.45 581.32L541.02 581.55L541.67 581.69L542.38 581.75L543.83 581.69L545.19 581.89L545.75 582.14L546.11 582.77L546.28 583.76L546.16 585.68L546.25 586.76L546.45 587.54L546.74 588.22L546.97 589.11L547.08 590.64L547.29 591.56L547.53 592.28L547.77 592.82L547.97 593.42L547.8 594.55L547.29 596.12L544.94 600.49L544.26 601.37L543.4 602.09L543.05 602.63L542.86 603.32L542.93 604.51L543.47 606.54L543.18 607.46L542.62 608.62L541.26 610.72L540.48 611.69L539.42 612.76L539.08 613.43L538.77 614.33L537.7 619.17L537.32 620.12L536.71 620.87L535.26 622.03L534.97 622.6L534.85 623.33L535.04 624.44L535.38 625.08L535.89 625.49L537.95 625.72L538.43 625.99L538.56 626.62L538.5 627.37L538.22 628.51L538.31 629.97L538.17 630.6L537.46 631.31L536.3 632.16L535.82 632.69L535.43 633.45L535.14 634.98V637.62L534.96 638.28L534.63 638.77L533.42 639.17L532.94 639.75L532.57 641.48L532.33 645.69L531.82 649.22L531.49 650.06L530.95 650.9L529.67 652.07L528.87 652.3L528.12 652.34L527.47 652.25L526.81 652.31L526.26 652.46L525.79 652.64L525.5 652.81L525.14 653.08L524.78 653.64L524.49 654.46L524.3 655.98L524.36 657.82L524.27 658.56L523.98 659.4L523.2 660.4L521.97 661.58L521.64 662.14L521.39 662.9L521.34 664.24L521.42 665.12L521.73 666.49L521.41 667.76L518.49 673.23L514.88 678.25L515.34 680.72L515.56 681.29L515.91 681.95L516.35 682.31L517.86 683.22L518.31 683.57L519.28 684.2L520.96 684.93L521.47 685.23L521.86 685.61L522.16 686.11L522.34 686.72L522.74 691.82L522.93 692.45L523.74 694.01L524.12 695.23L524.65 697.85L525.09 698.97L525.73 700.1L525.85 700.64L525.84 701.37L525.43 702.41L525.17 703.5L524.99 704.78L525.07 707.06L525.41 709.06L525.53 709.42L525.56 709.66L525.33 716.8L525.45 717.82L525.77 718.57L527.45 721.54L527.62 722.4V725.59L527.73 726.71L527.93 727.54L528.82 729.04L529.08 729.58L529.23 730.19L529.25 730.96L529.13 731.77L528.59 732.77L528.15 733.37L526.36 734.93L525.75 735.79L525.56 736.15L525.43 736.8L525.28 737.82L525.38 741.98L524.48 751.67L524.58 753.14L524.49 754.63L524.05 756.65L520.38 767.2L518.99 774.93L519.24 783.87L519.62 786.67L520.43 789.86L520.5 790.56L520.2 794.47L520.28 797.1L519.94 802.69L519.77 803.85L519.31 804.97L518.87 805.81L518.31 806.64L518.05 807.3L517.92 808.11L517.9 809.57L517.75 810.73L517.23 812.23L515.39 815.95L515.24 816.75L515.19 817.69L515.37 819.26L515.61 820.17L519.18 827.21L519.36 827.8L519.43 828.75L519.24 832.16L519.31 833.31L519.46 834.19L520.09 835.95L520.13 840.04L520.42 842.33L520.38 843.8L519.62 851.41L519.28 853.16L519.01 854.01L518.58 854.95L516.71 857.89L515.22 859.64L514.9 860.21L514.71 860.99L514.57 862.44L514.28 863.69L513.52 865.35L512 867.95L511.76 868.7L511.58 869.68L511.56 872.45L511.87 874.7V875.47L511.7 876.33L511.27 877.38L510.01 879.12L509.63 879.92L509.51 881.27L509.67 888.41L509.9 889.76L510.21 890.88L510.39 891.82V892.5L510.1 895.44L509.07 898.17L524.49 895.13L532.74 889.29L541 896.6L558.88 898.06L563 871.76H572.63L568.51 849.87L587.77 844.04L589.14 826.56L598.77 823.64V801.81L589.14 775.65L583.64 758.23V735.02L587.77 719.08L601.52 716.18L615.28 707.49L613.9 695.92L604.27 684.34L597.39 675.67L604.27 672.78H618.03L622.16 661.22L619.4 651.11L608.4 645.34L605.65 639.57L615.28 632.35L621.07 617.64L613.9 609.29L619.4 596.33L616.65 577.61L623.53 560.36V550.3L626.23 537.77L625.55 537.7L624.92 537.54L622.64 536.67L621.99 536.62L620.11 536.94L618.78 536.88L618.14 536.94L617.54 537.13L617 537.36L607.66 543.89L605.61 545.82L604.73 546.53L603.76 547.15L603.25 547.4L602.63 547.55L601.99 547.57L601.39 547.41L600.89 547.09L600.48 546.7L596.98 541.42L595.97 539.29L595.57 538.09L595.32 536.77V535.28L595.4 534.56L595.75 533.29L596.22 532.2L597.96 529.18L598.42 528.04L598.58 527.41L598.61 526.76L598.47 526.15L598.24 525.64L597.01 524.48L596.65 524.06L596.35 523.57L596.15 523.01L596.09 522.36L596.21 521.1L595.98 518.32L595.84 517.67L595.57 517.14L594.96 516.17L594.72 515.62L594.49 513.93L594.25 513.46L593.86 513.11L592.89 512.51L592.44 512.15L592.14 511.66L591.8 510.43L591.52 509.92L590.76 509.1L588.9 507.81L586.75 506.75L584.37 505.96L583.27 505.46L581.33 504.23L578.3 500.17L577.07 499.04L576.22 498.42L575.67 498.21L575.06 498.16L572.53 498.63L571.14 498.6L570.44 498.63L569.37 498.97L568.88 498.92L568.55 498.56L568.33 498.01L568.2 495.81L567.99 495.21L567.62 494.8L567.09 494.53L565.09 494.14L564.53 493.91L564 493.63L563.19 492.85L561.74 491.93L561.33 491.55L559.63 489.32L558.38 488.19L557.9 487.89L557.38 487.66L556.8 487.57L555.6 487.8L554.94 487.86Z" fill="#CCCCCC" stroke="white" stroke-width="0.5"/>
</svg>
