<svg width="794" height="263" viewBox="0 0 794 263" fill="none" xmlns="http://www.w3.org/2000/svg">
<path d="M627.17 99.8799L627.34 100.54L627.9 101.3L628.43 101.45L628.35 101.9L628.95 102.42L630.23 103.27L630.71 103.88L630.46 105.26L630.57 105.58L631.22 106.15L631.44 106.52L631.51 107.15L631.32 107.97L631.46 108.39L631.89 108.79L631.83 109.4L631.57 109.79L631.86 110.12L632.66 110.67L632.84 111.82L632.68 112.3L632.65 113.08L632.02 113.98L632.15 114.46L632.04 115.35L632.33 115.72V116.65L632.55 117.23L632.35 117.92L632.52 118.48L632.76 118.93L633.43 119.67L634.89 120.77L635.35 121.66L635.89 122.27L635.85 122.99L635.27 123.55L634.68 123.89L634.42 123.96L633.95 123.84L633.58 123.47L633.36 122.89L633.07 122.64L632.55 122.4L631.3 122.56L631.09 121.49L630.78 121.26L629.21 121.38L627.11 120.62L626.57 120.68L626.39 120.78H625.79L625.32 120.45L625.18 120.19L625.35 119.27L625.02 117.99L625.18 116.69L623.86 112.43L623.34 111.58L623.16 110.99L623.13 110.13L622.98 109.77L622.9 108.84L622.59 108.2L622.61 107.76L622.74 107.09L622.35 105.82L622.89 104.42L622.87 104.25L622.44 104L622.36 103.61L622.44 103.51L622.96 103.64L623.01 104.11L623.38 104.5L623.22 104.01L623.33 103.05L623.58 102.81L624.64 102.39L625.54 102.18L625.7 101.73L625.57 101.45L625.13 101.23L624.96 100.93L624.94 100.44L625.7 99.9399L627.17 99.8799ZM623.16 94.6499L623.42 94.7799L624.46 94.7299L623.52 95.4099L623.3 96.2199L622.79 96.0699L622.22 96.1499L622.32 97.0299L622.69 97.4299L622.57 97.6499L621.88 98.1899L621.48 98.9099L621.49 99.3599L621.68 99.4599L621.8 99.7799L621.75 100.13L620.98 100.52L619.74 102.86L619.21 103.14L617.01 103.45L615.74 103.78L615.22 104.12L614.61 105.66L614.17 106.03L613.02 106.14L612.67 106.25L612.43 106.5L612.26 107.27L612.29 108.01L613.17 109.47L613.33 110.48L613.74 114.21L613.67 115.68L613.9 118.26L614.18 118.78L614.62 119.04L615.95 119.34L616.2 119.5L616.14 121.47L615.09 123.57L613.73 125.11L613.65 125.73L613.74 125.98L614.08 125.95L615.04 125.03L615.16 125.11L614.73 126.37L613.22 128.58L612.71 129.04L612.58 129.57L612.65 129.72L613.53 129.61L613.45 129.88L613.22 130.23L611.9 131.16L611.24 132.25L610.55 133.12L609.62 134L607.77 135.09L606.13 135.6L605.47 135.44L605.52 135.16L606.21 134.41L606.08 134L604.76 133.78L603.79 133.17L602.9 131.75L602.61 130.96L601.98 130.31L600.55 130.15L599.58 128.55L598.91 127.11L598.73 126.34L598.67 125.33L598.42 125.02L598.09 124.92L597.77 125.02L597.31 125.66L597 125.77L595.6 125.33L595.33 125.39L594.88 125.75L594.48 125.86L593.47 125.61L593.18 125.39L593.13 124.08L593.63 122.32L593.51 122.11L592.78 121.54L592.68 121.32L592.81 119.71L591.02 116.61L589.93 115.2L589.13 114.68L588.75 114.57L588.27 114.73L587.32 113.5L586.69 113.16L585.53 112.88L588.42 112.76L590.67 112.4L594.12 111.34L598.19 109.8L599.46 109.16L600.94 108.28L602.64 107L608.12 102.22L612.19 99.5799L614.76 97.4499L614.97 97.5699L615.3 97.5099L622.04 94.7399L623.11 94.4199L623.16 94.6499Z" fill="#CCCCCC" stroke="white" stroke-width="0.5"/>
<path d="M153.521 244.59L153.391 244.49L153.351 244.22L153.461 243.26L154.151 243.71L154.131 244.3L153.521 244.59ZM116.031 212.23L116.981 212.01L117.621 211.64L117.671 210.7L117.591 210.38L117.101 209.92L115.601 209.39L115.471 208.86L115.521 208.58L116.081 208.22L116.271 207.91V206.23L116.521 205.8L117.111 202.62L117.991 201.86L118.091 201.24L119.871 200.55L119.991 200.01L120.051 198.94L120.251 198.63L120.921 198.15L121.011 197.79L120.781 196.89L121.111 196.15L120.881 195.19L120.921 194.27L121.281 193.68L121.331 193.26L122.021 192.91L122.121 192.62L121.701 191.89L121.601 191.4L124.421 183.53L128.161 184.63L135.191 192.86L142.351 195.97H142.651L147.791 193.86L150.241 193.29L150.941 193.26L153.381 194.61L154.781 194.84L155.781 196.06L160.161 198.27L160.751 198.39L161.101 198.12L161.401 198.37L161.631 198.34L162.111 197.59L161.811 197.3V196.77L161.471 196.24L161.491 195.65L161.341 195.55L160.581 195.75L160.311 195.53L160.451 194.58L161.101 194.31L161.351 194.35L161.241 193.91L160.851 194.17L160.701 194.12L160.641 193.75L160.921 193.44L161.491 193.35L161.201 193.09L161.301 192.72L161.531 192.57L161.321 192.16V191.86L161.451 191.73L161.201 191.5L161.171 190.94L160.971 191.6L160.541 191.57L160.321 191.26L160.261 190.61L160.491 190.32L160.901 190.21L161.561 190.43L161.851 190.42L161.931 190.06L162.191 190.26L162.811 190.38L163.161 190.27L163.451 190.31L164.671 190.94L166.221 191.43L166.671 191.25L166.701 190.8L167.031 190.69L167.371 191.14L167.091 191.76L167.201 192.06L169.031 193.43L169.271 193.52L169.471 193.24L169.731 193.4V193.56L169.391 193.79L169.671 195.12L170.021 195.83L170.611 196.45L170.501 196.61L169.601 196.83L169.471 197.12L170.371 199.3L170.941 199.53L171.451 200.45L173.261 202.71L174.241 202.96L174.481 203.42L175.261 204.36L174.851 204.7L174.921 204.95L175.451 205.84L176.051 206.44L176.101 206.8L175.661 206.66L175.181 206.95L175.071 207.98L175.231 208.43L177.571 211.57L178.691 214.06L181.461 218.02L181.811 219.27L182.091 219.7L182.071 219.97L181.981 219.98L181.731 219.76L181.631 219.41L181.341 219.32L181.091 220.43V221.19L181.271 221.76L181.591 222.29L182.201 222.92L182.541 223.03L182.931 222.93V222.55L183.371 222.92L183.241 223.69L183.641 224.39L184.441 225.4L184.911 226.57L184.951 227.25L185.761 228.31L185.501 228.67L185.531 228.98L186.221 230.02L186.861 230.66L186.921 230.88L186.681 231.16L186.741 231.48L187.521 232.4L187.081 232.8L187.201 233.38L187.101 234.26L187.491 234.94L188.281 235.92L188.361 236.43L187.911 236.68L187.871 237.17L188.121 237.93L188.741 238.92L188.731 239.19L188.081 239.54L188.001 239.73L187.941 240.56L188.311 242.02L188.011 242.27L187.261 242.5L186.991 242.09L186.731 242.08L185.951 242.83L185.631 242.81L185.101 243.28L184.521 243L184.051 242.92L183.501 243.18L183.191 242.96L182.391 243.18L182.091 242.65L181.141 242.25L180.461 242.14L180.581 241.77L181.041 241.38L181.901 240.32L181.771 240.28L181.181 240.63L180.681 239.93L178.531 238.37L179.351 237.28L179.081 236.71L179.681 236.21H180.761L182.191 235.22L182.341 234.71L181.511 235.4L180.561 235.99L180.191 235.98L179.691 235.74L178.991 236.16L178.711 236.68L178.681 236.98L178.511 237.01L178.041 235.48L178.221 234.75L178.081 234.4L177.681 233.76L176.531 232.76L176.111 232.25L175.751 231.02L174.601 230.53L174.101 230.66L174.641 231.03L175.511 231.91L175.421 232.4L175.671 233.22L175.781 233.39L176.831 234.08L177.501 235.6L177.461 235.86L177.041 236.35L177.271 238.12L177.121 238.88L176.381 239.53L175.261 239.77L173.791 239.37L172.791 239.4L172.181 239.09L171.751 238.62L171.591 238.14L169.451 237.4L168.581 237.44L167.471 238.6L167.171 238.69L166.201 238.44L165.831 238.11L165.531 237.59L165.231 237.66L165.401 238.22L164.001 239.19L162.761 240.58L162.601 241.32L162.241 241.91L160.971 243L160.051 243.05L158.621 242.66L158.251 241.43L158.341 240.61L158.141 240.51L157.961 240.69L158.091 242.55L158.571 243.45L157.721 244.05L157.291 244.63L157.141 245.66L157.221 246.19L157.031 246.25L155.061 244.25L154.571 244.01L153.531 241.56L152.751 238.97L151.581 236.2L151.041 235.36L150.511 234.86L149.451 234.1L145.021 232.36L143.461 231.59L142.311 230.94L141.221 229.99L138.941 228.33L137.591 227.67L136.671 227.28L135.831 227.11L134.131 227.19L131.921 225.09L132.281 224.72L132.311 224.37L129.551 222.67L128.401 222.3L127.301 222.12L125.711 222.14L124.931 222.7L124.731 222.68L123.981 222.12L122.571 220.17L120.951 218.26L118.211 215.64L117.931 214.43L117.471 213.87L115.881 212.78L115.141 212.46L115.841 212.29L116.031 212.23ZM183.731 180.78L184.111 180.95L184.051 181.21L184.371 181.57L184.681 183.1L184.971 183.57L185.211 184.36L185.531 184.61L185.471 184.81L185.241 184.72L185.101 184.92L185.171 185.38L185.901 185.91L185.821 186.46L185.571 186.85L185.711 187.23L185.561 187.85L185.451 187.91L184.161 187.92L183.581 188.09L183.271 188.02L182.871 187.8L181.741 186.75L181.811 186.24L181.611 185.34L182.291 184.52L183.301 183.85L183.491 183.51L183.281 182.77L182.861 182.42L182.851 182L183.101 181.57L183.171 180.92L183.731 180.78Z" fill="#CCCCCC" stroke="white" stroke-width="0.5"/>
<path d="M8.61 47.3101L8.72 47.6301L8.63 47.9401L8.26 48.7801L8.08 48.8901V49.4501L7.97 49.4901L7.66 49.0401L7.47 48.4101L7.34 48.4401L7.1 48.8501L6.88 48.7501L6.99 48.3601L6.67 47.9701L6.33 47.8501L6.29 47.3801L6.11 47.2101L6.44 46.7601L6.93 46.4201L7.23 45.7001L7.33 45.0701L8.11 44.7701L8.46 44.5001L8.45 44.3301L8.79 44.0901L9.01 44.1101L9.05 44.8801L8.42 45.2001L8.37 45.6101L8.46 45.8801L8.54 45.9601L8.79 45.4101L9.25 45.1501L9.87 45.8001L9.89 46.0501L9.7 46.3301L10.03 46.3701L10.02 46.5801L9.74 47.3301L9.59 47.4501L9.46 46.9201L8.7 47.0301L8.54 47.2101L8.61 47.3101ZM8.86 36.9401L9.57 37.4001L9.75 37.8101L9.6 37.9901L9.65 38.3801L11.19 39.3001L11.41 39.8001L11.46 40.2601L11.81 40.0701L11.89 40.1801L11.93 40.4701L11.69 41.0301L11.47 41.2601L11.54 41.4601L12.02 41.9501L11.89 42.7701L11.46 42.8201L10.67 43.1601L10.7 43.4601L10.59 43.5801L10.02 43.8201L10.04 44.0201L9.87 44.0501L9.54 43.9701L9.38 43.7001L9.56 43.5201L9.31 43.0501L9.01 42.9001L8.02 43.0401L7.55 43.2601L7.54 43.5701L7.38 43.8401L6.29 44.7601L6.08 44.6101L5.71 44.5801L5.43 44.7501L5.47 45.0301L5.37 45.1601L4.82 45.5801L4.55 45.5701L4.46 45.4401L4.62 45.0401L4.54 44.6001L3.92 43.5101L4.28 42.8801L4.18 42.0101L3.86 41.4401L3.11 41.6701L2.7 41.5001L2.52 41.2201L1.62 41.4801L1.46 41.4001L1.23 41.0701L1.02 40.1301L1.15 39.7101L1 38.4501L1.34 38.3601L2.04 38.8201L2.31 38.7501L2.49 38.4101L2.91 38.5601L3.58 38.3901L4.44 38.6401L4.68 38.6001L4.54 39.1201L4.65 39.2801L4.84 39.3101L4.97 38.8501L5.18 38.8001L6.48 39.0101L7.1 38.8801L7.94 37.6701L8.34 37.8101L8.61 37.6001L9.24 38.0701L9.01 37.4501L8.16 37.2901L8.14 37.1401L8.42 36.7701L8.86 36.9401ZM31.01 34.6001L32.77 35.0601L33.95 34.5901L34.41 35.0201L35.25 34.8401L35.47 34.9801L35.82 35.8201L36.76 36.3801L37.62 36.4701L37.74 36.2401L38.14 36.0401L38.64 36.5501L40.01 37.0301L41.15 37.5701L42.21 37.8301L43.06 37.7301L44.07 37.0301L44.25 36.5801L45.04 35.4701H45.16L45.48 35.6801L45.46 36.3401L45.59 37.0801L45.84 37.5001L47.05 37.6801L48.18 38.1001L48.7 38.6801L48.79 39.0501L48.61 39.9401L48.64 41.6401L48.97 42.0301L49.43 41.6201L49.67 41.7401L49.75 43.4201L49.25 43.9801L49.18 44.3601L49.93 46.1801L50.21 46.3301L50.48 46.1801L50.74 45.5801L50.95 45.4401L51.99 46.1101L52.59 45.8501L53.41 45.9201L53.7 45.6901L54.66 44.4101L54.92 44.3201L55.34 44.5401L55.75 45.1501L56.29 45.6501L56.6 45.7701L59.58 45.4701L60.26 45.8301L60.33 45.9601L60.07 46.4001L60.93 48.1201L60.62 48.5201L60.17 48.7601L58.88 49.1301L58.68 49.6001L58.19 50.2501L59.59 50.7801L61.15 51.8801L61.2 52.1001L61.11 52.2601L60.68 52.5301L60.47 53.1901L60.08 53.5101L59.96 53.7801L60.35 54.4301L60.11 56.0301L60.94 56.8701L59.78 58.2201L59.35 59.0101L59.41 59.3001L59.27 59.5801L58.86 59.3001L58.09 59.3801L57.28 59.3001L56.85 59.5101L56.99 59.9701L56.2 61.0901L56.19 62.2001L56.32 62.7601L55.81 63.3201L55.32 63.6401L55.28 64.0001L55.42 64.4101L55.46 64.5901L55.25 65.1501L54.92 65.1801L54.1 64.9801L53.96 65.0101L53.85 65.2201L53.91 66.2701L54.36 66.8101L54.89 67.1201L55.08 67.3801L55.12 67.6801L54.73 68.7801L54.75 69.5201L54.62 70.0301L54.21 70.1701L53.81 70.0901L53.57 70.9701L52.99 71.4201L52.92 71.6201L52.95 72.1601L53.4 72.6901L53.45 73.6401L53.64 73.9801V74.2501L52.71 76.2201L52.11 76.5001L51.42 76.3301L51.11 76.5501L50.88 76.9601L50.61 77.7801L50.57 78.9601L50.08 79.7801L50.19 80.4401L49.77 82.2901L49.27 82.5501L48.34 83.5001L47.86 83.4501L47.19 83.6701L46.66 83.5501L45.56 83.8001L45.48 84.2001L45.21 84.5801L45.23 85.5601L44.86 85.9301L44.37 86.0501L43.95 86.3001L43.77 86.3601L43.45 86.2601L43.35 86.3401L43.25 86.8601L42.52 87.9301L42.75 88.2801L42.47 88.9501L42.26 89.0901L41.74 89.1001L41.36 89.4601L40.97 89.5001L40.32 91.0301L40.11 91.1601L39.23 91.2501L38.66 92.2601L38.16 92.7701L37.91 92.7801L37.47 92.3901L36.93 92.5801L36.2 92.2901L36.08 91.9401L36.36 91.6001L36.33 91.4301L36.02 91.1601L35.61 91.3001L35.44 90.8801L35.79 90.3601L36.74 90.4801L37.49 90.7401L37.67 90.5501L37.05 85.4701L37.02 84.2601L36.69 81.4401L36.75 80.4901L36.67 79.8501L36.84 76.9501L36.8 73.7801L36.51 73.5301L35.89 73.4001L35.2 73.7401L34.86 73.7901L34.33 73.7301L33.57 73.4201L32.43 73.4801L31.25 72.8001L30.6 72.7501L30.18 73.0101L29.49 72.9901L29.25 72.9001L29.15 72.7001L29.24 71.1801L29.11 69.6301L29.73 68.5201L29.57 67.7101L30.07 66.5801L30.29 65.0901L30.22 62.9301L29.73 58.3201L29.44 56.8401L28.63 54.1601L28.03 53.2101L27.18 52.4701L26.92 52.0801L26.44 49.8301L25.74 48.3101L24.53 46.7201L23.28 45.9201L23.35 45.7401L23.56 44.8501L23.89 44.2601L25.46 42.5901L25.86 41.9601L26.8 41.0901L27.7 39.6201L29.47 38.3501L30.18 37.4701L30.27 37.2401L30.44 34.3401L31.01 34.6001Z" fill="#CCCCCC" stroke="white" stroke-width="0.5"/>
<path d="M99.9797 46.29L102 47.66L103.19 47.96L103.38 47.74L103.3 47.37L104.71 46.96L105.09 47.04L105.46 47.82L105.64 47.69L105.79 47.31L108.18 48.45L109.3 48.8L110.21 49.42L111.37 51.09L114.39 57.97L115.11 59.32L115.69 60.14L115.43 60.39L115.51 60.92L116.51 61.73L116.88 61.54L117.87 62.31L117.03 63.39L116.11 64.15L115.3 65.25L113.87 66.37L113.12 67.3L111.69 68.57L111.73 69.71L112.21 71.39L112.28 72.83L112.67 74.03L112.53 74.56L112.06 75.27L112.02 75.68V77.04L112.32 77.7L112.38 78.83L111.72 79.23L111.69 79.49L111.86 79.73L113.13 80.56L113.53 81.18L113.94 81.36L114.06 81.54L113.69 82.22L113.61 82.97L113.19 83.74L113.1 84.16L112.99 86.52L113.22 87.68L112.94 89.09L113.69 89.2L115.77 90.23L116.15 90.74L116.95 91.23L117.44 92.24L117.31 92.61L116.75 92.8L116.45 93.3L116.53 93.67L117.02 94.27L117.21 95.18L116.67 96.38L117.14 98.02L117.15 98.42L116.98 98.97L117 100.17L117.17 100.37L117.46 100.44L118.05 100.26L118.73 100.3L119.54 100.77L120.01 101.24L120.62 101.3L122.36 102.37L122.46 102.57L122.39 103.49L122.67 103.92L123.11 105.22L123.01 105.56L122.7 105.93L122.33 105.94L121.11 105.29L120.73 105.42L120.41 105.82L120.35 106.25L120.77 108.49L120.34 108.65L119.59 108.58L119.33 108.53L118.85 108.15L118.42 108.17L117.63 109.24L117.08 109.72L116.77 109.77L116.51 109.67L115.85 109.17L115.06 108.26L114.66 107.96L114.13 107.83L112.53 107.77L111.18 108.05L111.05 108.32L111.22 109.23L109.8 110.89L109.26 111L108.49 110.69L107.82 110.21H106.11L105.89 110.34L105.66 111.28L105.35 111.32L104.89 111.21L103.98 110.3L103.32 109.89L103.09 109.04L102.74 108.47L101.52 107.62L101.38 106.58L100.87 106.01L100.58 105.98L100.08 106.14L98.6397 106.83L98.1897 107.17L97.5897 106.73L97.0097 107.02L96.7497 106.87L96.3997 106.38L96.2697 105.91L95.9997 106.06L95.7897 106.64L95.3997 106.52L95.0497 106L94.8197 105.88L94.4997 106.12L94.2397 106.53L94.3997 107.96L94.0197 109.58L93.3097 110.29L92.8197 111.81L92.5697 111.88L92.1697 111.57L92.0297 111.3L92.0897 110.52L91.8997 109.58L91.4497 109.24L90.4297 109.01L90.2697 108.89L89.8697 107.63L89.6897 107.49L89.2797 107.51L88.9597 107.16L89.1497 106.54L88.9797 106.15L88.5897 105.92L87.5897 105.93L87.2597 106.25L87.1097 106.75V107.22L87.3397 107.97L87.0697 109.02L87.2097 109.9L86.7697 111.3L86.2397 111.83L85.5397 111.51L85.3197 111.52L84.9297 112.2L83.9097 112.49L83.2397 112.86L82.8297 113.78L82.3697 114.1L81.9497 114.13L81.3097 114.43L80.3697 113.99L79.8797 114.32L79.5697 114.16L79.1297 113.59L78.3997 113.4L77.3297 112.13L76.8597 112L75.8897 112.12L75.5397 112.39L75.0097 113.2L74.5897 113.39L73.6697 112.87L72.3197 111.8L71.3697 111.99L70.7997 111.3L69.9997 109.88L69.6297 109.42L69.4397 109.02L69.4297 108.48L69.7497 108L70.5497 108.16L71.2797 108L71.3897 107.71L70.9897 106.21L71.1697 106.01L71.8797 105.76L72.4997 104.15L72.5397 103.96L72.2497 103.09L72.3297 102.64L72.6897 102.26L73.9897 101.93L73.5897 101.56L73.6797 101.26L74.0897 100.87L74.2497 100.33L74.0397 99.19L74.0597 98.34L73.2097 97.58L73.1697 97.15L74.0597 96.28L74.1097 96.03L73.9797 95.72L74.4197 95.16L74.7097 93.74L75.4797 92.98L75.3697 92.19L75.5797 91.17L75.4897 90.56L75.6597 90.1L75.6497 89.55L75.8997 88.99L76.5597 88.18L76.4797 87.4L77.0997 86.54L76.9097 85.83L76.9597 85.51L77.1197 85.4L77.6797 85.49L78.2197 84.91L78.8197 84.67L78.9997 83.59L79.1797 83.3L79.7297 82.91L79.9297 81.88L80.1297 81.67L80.7197 81.85L81.5397 82.76L83.3397 83.26L83.7897 83.24L84.3097 83.02L84.6197 82.7L85.4297 82.51L86.1397 81.46V81.06L85.8497 80.58L85.8097 80.16L86.0597 80.47L88.1097 82.06L89.6997 82.09L91.5997 82.34L92.4397 82.3L92.9097 81.95L94.7497 79.94L94.8297 79.64L94.6097 78.7L94.6397 78.3L94.9997 78L95.4597 77.91L95.9597 77.18L95.9897 76.99L95.7397 76.46L96.0897 74.89L95.4597 74.65L94.8997 74.68L94.8097 74.46L95.1197 73.11L95.0897 72.62L94.8197 72.21L94.1297 71.82L94.3597 71.2L94.9897 71L95.1297 70.23L95.3797 69.92L95.3397 69.62L94.7797 68.92L94.6197 68.46V68.18L94.9997 67.82L95.0997 67.45L94.8197 67.29L94.4897 67.55L94.1997 67.57L93.8497 66.91L93.3097 66.76L93.1597 66.25L92.1297 65.62L91.9597 65.3L91.7697 64.27L91.2897 63.59L91.2197 63.21L91.4797 62.58L92.0197 62.33L92.8297 62.34L93.7997 61.38L93.8397 60.98L93.4597 59.87L93.0397 59.63L92.9997 59.35L93.3197 58.63V58.08L93.6397 58.09L93.8697 57.9L93.8397 56.8L93.9797 56.56L95.0497 55.79L95.0197 55.25L95.6797 54.52L96.8197 53.85L97.9297 52.95L98.3497 52.79L98.6697 51.87L99.2997 51.15L99.5197 50.52L99.9297 50.1L99.3497 49.1L99.2997 48.31L99.4297 46.93L99.9797 46.29Z" fill="#CCCCCC" stroke="white" stroke-width="0.5"/>
<path d="M95.0293 201.67L96.1093 201.2L96.4893 200.6L97.4093 199.87L97.4893 199.5L98.2393 199.65L98.6393 198.82L99.1993 198.42L100.629 198.55L100.779 198.4L102.189 198.37L103.129 196.96L103.739 197.13L105.099 198.03L106.029 198.28L107.529 198.23L109.839 197.33L110.759 197.19L112.289 197.55L112.909 197.9L113.399 198.42L113.829 198.6L116.439 199.21L118.929 200.12L120.019 200.03L119.899 200.57L118.119 201.26L118.019 201.88L117.139 202.64L116.549 205.82L116.299 206.25V207.93L116.109 208.24L115.549 208.6L115.499 208.88L115.629 209.41L117.129 209.94L117.619 210.4L117.699 210.72L117.649 211.66L117.009 212.03L115.889 212.29L115.189 212.46L113.939 212.26L112.519 211.49L111.209 211.42L110.109 210.68L109.069 210.46L108.579 210.06L106.149 209.29L104.099 208.03L103.319 207.91L102.839 208.1L102.479 208.07L101.909 207.02L101.089 206.03L99.9593 205.42L99.3793 204.92L99.0793 203.94L98.5693 203.15L96.8693 202.13L96.2893 201.98L95.2693 201.94L95.0293 201.67Z" fill="#CCCCCC" stroke="white" stroke-width="0.5"/>
<path d="M92.9203 166.37L92.9703 166.04L93.1403 165.81L93.6703 165.49L93.9603 165.48L94.2503 165.75L94.9703 165.83L95.2003 166.17L95.4703 167.02L95.8503 167.36L97.3903 167.46L97.8803 167.61L98.1903 168.13L98.2703 168.83L98.5903 169.68L98.9203 169.99L99.3903 169.91L99.9703 169.21L100.64 169.14L101.02 168.73L101.33 168.79L101.88 168.69L102.71 169.57L102.94 169.68L107.75 171.1L111.9 172.03L112.09 172.14L114.62 175.34L114.93 175.93L115.29 176.07L122.6 180.99L123.58 181.16L123.82 181.33L124.44 183.47L121.62 191.34L121.72 191.83L122.14 192.56L122.04 192.85L121.35 193.2L121.3 193.62L120.94 194.21L120.9 195.13L121.13 196.09L120.8 196.83L121.03 197.73L120.94 198.09L120.27 198.57L120.07 198.88L120.01 199.95L118.92 200.04L116.43 199.13L113.82 198.52L113.39 198.34L112.9 197.82L112.28 197.47L110.75 197.11L109.83 197.25L107.52 198.15L106.02 198.2L105.09 197.95L103.73 197.05L103.12 196.88L102.18 198.29L100.77 198.32L100.62 198.47L99.1903 198.34L98.6303 198.74L98.2303 199.57L97.4803 199.42L97.4003 199.79L96.4803 200.52L96.1003 201.12L95.0203 201.59L94.9103 201.27L95.0403 201.04L94.8803 200.62L94.2503 200.5L93.9303 200.27L93.7103 199.85L93.3403 199.67L92.9603 199.66L92.0003 199.99L91.4203 199.87L90.7803 199.91L90.4903 200.07L90.4503 200.49L90.2703 200.51L90.0303 200.19L90.3503 199.85L90.4303 199.21L89.8703 197.13L88.8603 195.82L88.4903 195.73L88.2103 195.84L87.7103 195.78L87.6703 195.4L88.0603 194.95L87.8903 193.66L87.2703 193.02L86.2903 192.53L85.8103 192.54L85.2503 192.89L84.6703 192.83L84.5703 192.67L84.6203 192.38L85.4803 192.1L85.4203 191.21L86.0303 190.63L85.8703 190.09L86.2603 189.61L86.4203 189.14L86.5703 187.88L86.0503 181.78L90.9603 181.95L91.6303 181.14L93.0703 177.83L93.7403 176.73L93.8403 176.13L94.9503 175.45L94.9803 174.79L94.0603 172.79L94.1403 172.28L94.6003 171.46L94.6203 171.04L94.1403 170.06L93.9703 169.21L93.9803 168.22L93.5003 167.42L93.4003 166.57L92.9203 166.37Z" fill="#CCCCCC" stroke="white" stroke-width="0.5"/>
<path d="M71.3797 111.99L72.3297 111.8L73.6797 112.87L74.5997 113.39L75.0197 113.2L75.5497 112.39L75.8997 112.12L76.8697 112L77.3397 112.13L78.4097 113.4L79.1397 113.59L79.5797 114.16L79.8897 114.32L80.3797 113.99L81.3197 114.43L81.9597 114.13L82.3797 114.1L82.8397 113.78L83.2497 112.86L83.9197 112.49L84.9397 112.2L85.3297 111.52L85.5497 111.51L86.2497 111.83L86.7797 111.3L87.2197 109.9L87.0797 109.02L87.3497 107.97L87.1197 107.22V106.75L87.2697 106.25L87.5997 105.93L88.5997 105.92L88.9897 106.15L89.1597 106.54L88.9697 107.16L89.2897 107.51L89.6997 107.49L89.8797 107.63L90.2797 108.89L90.4397 109.01L91.4597 109.24L91.9097 109.58L92.0997 110.52L92.0297 111.3L92.1697 111.61L92.5697 111.92L92.8197 111.85L93.3097 110.33L94.0197 109.62L94.3997 108L94.2397 106.57L94.4997 106.16L94.8197 105.92L95.0497 106.04L95.3997 106.56L95.7897 106.68L95.9997 106.1L96.2697 105.95L96.3997 106.42L96.7497 106.91L97.0097 107.06L97.5897 106.77L98.1897 107.21L98.6397 106.87L100.08 106.18L100.58 106.02L100.87 106.05L101.38 106.62L101.52 107.66L102.74 108.51L103.09 109.08L103.32 109.93L103.98 110.3L104.87 111.19L105.33 111.3L105.64 111.26L105.87 110.32L106.09 110.19H107.8L108.47 110.67L109.24 110.98L109.78 110.87L111.2 109.21L111.03 108.3L111.16 108.03L112.51 107.75L114.11 107.81L114.64 107.94L115.04 108.24L115.83 109.15L116.49 109.65L116.75 109.75L117.06 109.7L117.61 109.22L118.4 108.15L118.83 108.13L119.31 108.51L119.57 108.56L120.32 108.63L120.75 108.47L120.33 106.23L120.39 105.8L120.71 105.4L121.09 105.27L122.31 105.92L122.68 105.91L123.93 107.66L124.68 108L125.46 108.83L127.72 109.37L128.95 109.21L130.29 109.38L130.28 109.63L131.05 110.29L131.3 111.15L131.93 111.97L130.95 112.39V112.55L131.35 112.96L131.11 113.64L130.19 113.88L130.26 115.15L130.7 116.45L131.2 116.79L131.58 117.41L132.05 117.68H133.65L134.72 117.2L135.45 117.34L136.31 118.12L136.8 118.84L137.32 119.96L137.46 120.55L136.87 121.27L136.66 121.81L136.75 122.39L137.04 122.81L137.07 123.03L136.75 123.23L136.05 123.08L135.38 123.29L135.11 123.77L134.92 124.62L133.9 125.59L133.84 126.03L133.97 126.76L133.37 127.65L133.26 128.03L133.53 129.33V129.78L133.43 130.04L132.7 130.76L132.56 131.11L132.67 131.46L133.24 132.1L134.16 132.61L135.34 131.94L136.42 131.52L137.43 131.94L138.2 131.87L139.22 132.01L139.91 132.72L141.02 132.96L142.06 134.25L143.08 134.83L143.47 135.32L143.99 135.35L144.77 135.06L144.93 135.09L145.13 135.67L145.41 135.96L145.67 136L146.38 135.81L146.61 135.92L146.7 136.7L148.04 137.91L147.79 138.3L147.83 138.67L148.86 140.13L149.12 140.82L149.31 140.85L149.74 140.64L149.38 139.99V139.74L150.23 138.99L150.36 138.3V137.93L149.9 136.49L149.89 134.61L149.64 134.24L149.1 133.88L148.9 133.46L149.09 132.1L149.65 131.39L149.86 130.67L149.51 128.61L149.67 128.54L150.19 129.08L150.61 129.32L151.36 129.46L154.46 129.06V129.24L154.11 129.46L153.65 129.34L153.3 129.5L153.07 129.92L153.02 130.99L152.11 131.72L152.03 132.2L152.12 133.04L152.57 134.86L153.62 137.09L154.27 137.94L153.99 138.22L152.99 137.73L152.7 137.82L152.16 138.39L151.34 139.8L151.25 141.23L151.76 143.71L151.53 143.92L151.61 144.34L151.51 144.51L150.93 144.17L150.29 144.27L149.75 145.74L149.64 147L150.18 148.61L151.41 150.73L154.11 154.17L154.85 154.92L155.4 155.28L155.72 156.4L155.75 156.71L155.57 157.03L154.86 157.64L154.41 158.35L153.82 160.25L153.57 162.27L153.67 163.7L154.23 166.22L154.52 168.29L154.37 169.94L154.58 171.59L154.52 172.49L154.25 172.78L154.1 173.71L153.96 175.88L154.03 177.14L153.77 178.39L153.99 179.88L154.34 181.13L154.9 182.3L157.81 186.01L161.53 189.39L161.89 189.99L161.81 190.35L161.52 190.36L160.86 190.14L160.45 190.25L160.22 190.54L160.28 191.19L160.5 191.5L160.93 191.53L161.13 190.87L161.16 191.43L161.41 191.66L161.28 191.79V192.09L161.49 192.5L161.26 192.65L161.16 193.02L161.45 193.28L160.88 193.37L160.6 193.68L160.66 194.05L160.81 194.1L161.2 193.84L161.31 194.28L161.06 194.24L160.41 194.51L160.27 195.46L160.54 195.68L161.3 195.48L161.45 195.58L161.43 196.17L161.77 196.7V197.23L162.07 197.52L161.59 198.27L161.36 198.3L161.06 198.05L160.71 198.32L160.12 198.2L155.74 195.99L154.74 194.77L153.34 194.54L150.9 193.19L150.2 193.22L147.75 193.79L142.61 195.9H142.31L135.15 192.79L128.12 184.56L124.38 183.46L123.76 181.32L123.52 181.15L122.54 180.98L115.23 176.06L114.87 175.92L114.56 175.33L112.03 172.13L111.84 172.02L107.69 171.09L102.88 169.67L102.65 169.56L101.82 168.68L101.27 168.78L100.96 168.72L100.58 169.13L99.9097 169.2L99.3297 169.9L98.8597 169.98L98.5297 169.67L98.2097 168.82L98.1297 168.12L97.8197 167.6L97.3297 167.45L95.7897 167.35L95.4097 167.01L95.1397 166.16L94.9097 165.82L94.1897 165.74L93.8997 165.47L93.6097 165.48L93.0797 165.8L92.9097 166.03L92.8597 166.36L92.0297 165.93L90.8797 165.96L88.8097 164.8L87.3097 162.64L87.1797 162.27L86.4797 161.8L86.7897 160.75L87.4897 160.19L87.6597 159.74L87.2997 158.23L86.4897 156.66L87.4397 154.96L88.2597 154.65L88.4397 154.47L88.4097 153.59L88.6797 152.98L88.6497 152.45L88.5297 152.17L87.7897 151.55L87.5997 151.23L87.4097 150.27L86.9697 149.57L85.8297 148.41L85.2997 148.14L84.2297 148.23L83.4597 148.09L82.3297 147.4L81.0397 145.73L80.6697 144.97L79.6297 144.54L79.7297 143.2L80.1497 142.68V142.35L79.8597 141.25L79.0597 140.56L79.0197 139.36L78.8897 138.94L79.0397 138.33L78.9897 136.85L78.8797 136.55L78.3497 136.09L78.1997 135.75L78.3797 135.02L79.2297 133.82L79.2097 133.25L78.7297 132.62L77.2297 131.58L76.5197 131.61L76.2597 131.42L75.8197 129.87L76.2497 128.48V128.17L74.6897 128L74.3897 127.86L74.1797 127.56L74.0297 126.88L74.4497 126.37L73.8097 125.51L73.7497 125.24L73.9397 124.64L73.9197 123.72L73.8297 123.48L73.2197 123.06L73.0697 122.77L73.6297 121.44L73.5197 121.15L73.0997 120.86L72.2797 120.71L71.7297 120.32L70.3497 120.62L70.1497 120.45L70.0697 119.82L69.8997 119.46L69.5397 119.26L69.2597 119.24L69.1797 119.02L69.3297 118.54L69.8897 118.2L70.1697 117.75L70.4597 116.67L71.0497 116.44L71.2997 116.07L71.2497 115.69L70.4997 115.35L70.2497 115.02L70.0197 113.1L70.0997 112.66L70.4297 112.28L70.8197 112L71.3797 111.99Z" fill="#CCCCCC" stroke="white" stroke-width="0.5"/>
<path d="M26.5596 77.04L26.9796 77.48L27.2696 77.4L27.9196 77.58L28.0696 77.99V78.66L28.7596 79.17L29.4296 79.28L29.3696 79.65L28.2496 80.86L28.1796 82.13L26.8896 85.42L26.9296 85.8L26.7996 85.93L26.5596 85.91L26.2496 85.3L25.9496 85.07L25.5296 85.05L24.6696 84.74L24.2096 84.93L23.1296 84.99L22.9596 85.24L22.9496 85.59L22.6496 85.04L22.8896 84.41L22.8196 84.02L23.1096 83.84L23.3896 83.83L23.2896 83.23L23.3496 82.56L22.9696 81.41L22.8796 80.54V79L22.7496 78.52L22.8996 78.01L22.8096 77.6L22.5596 77.39V77.26L22.7396 77.1L23.0396 77.36L24.0096 77.81L25.0796 77.59L25.7896 76.88L26.5596 77.04ZM29.4996 73L30.1896 73.02L30.6096 72.76L31.2596 72.81L32.4396 73.49L33.5796 73.43L34.3396 73.74L34.8696 73.8L35.2096 73.75L35.8996 73.41L36.5196 73.54L36.8096 73.79L36.8496 76.96L36.6796 79.86L36.7596 80.5L36.6996 81.45L37.0296 84.27L37.0596 85.48L37.6796 90.56L37.4996 90.75L36.7496 90.49L35.7996 90.37L35.4996 90.38L35.1196 90.71L34.7496 90.78L31.7096 91.08L31.1796 91L31.2696 90.77L31.8996 90.28L32.5396 89.51L32.5296 89.31L32.3296 89.18L32.5996 87.33L31.9996 85.43L32.3096 85.12V84.79L32.0496 83.72L31.7096 83.41L31.8196 82.74L30.1796 80.75L30.0796 80.25L30.5696 79.26L30.8196 77.65L30.4296 75.21L30.0396 74.17L29.7696 73.76L29.1196 73.25L29.1396 73.12L29.4996 73Z" fill="#CCCCCC" stroke="white" stroke-width="0.5"/>
<path d="M40.3105 110.39L42.2305 112.08L42.0805 112.48L41.8705 112.49L41.6505 112.7L41.8305 113.69L41.3105 113.77L40.6905 114.11L40.3005 114.18L39.3405 113.78H39.0505L38.9505 113.66L39.1605 112.8L39.0905 112.26L39.2905 111.65L39.7805 110.81L40.3105 110.39ZM40.4805 106.01L42.0405 106.72L42.3305 107.42L41.3305 109.31L41.2205 109.38L40.6705 109.22L40.1905 109.3L39.5105 109.61L38.8705 107.72L38.7205 106.69L38.7605 106.25L39.0705 105.69L39.6305 105.89L40.4805 106.01ZM79.3205 58.6699L80.9905 60.0799L81.4905 60.8699L82.5605 61.1699L82.6505 61.4799L82.6205 63.4599L82.9405 64.0499L83.7905 64.8299L84.1605 65.6899L84.4105 65.7199L84.6305 65.4999L84.7705 64.8799L85.0705 64.6699L85.5305 64.5599L86.0105 64.2199L86.4105 64.1299L86.7305 64.2799L87.4205 65.5399L88.1605 66.2499L88.6905 66.6199L89.0305 66.5799L88.9905 65.5299L89.3305 64.5899L90.0105 64.4799L90.8005 63.7899L91.2905 63.5999L91.7705 64.2799L91.9605 65.2999L92.1505 65.6099L93.1805 66.2399L93.3305 66.7499L93.8705 66.8999L94.2205 67.5599L94.5105 67.5399L94.8405 67.2799L95.1205 67.4399L95.0205 67.8099L94.6405 68.1699V68.4499L94.8005 68.9099L95.3605 69.6099L95.4005 69.9099L95.1505 70.2199L95.0105 70.9899L94.3805 71.1899L94.1505 71.8099L94.8405 72.1999L95.1105 72.6099L95.1405 73.0999L94.8305 74.4499L94.9205 74.6699L95.4805 74.6399L96.1105 74.8799L95.7605 76.4499L96.0105 76.9799L95.9805 77.1699L95.4805 77.8999L95.0205 77.9899L94.6405 78.2999L94.6205 78.6799L94.8405 79.6199L94.7605 79.9199L92.9205 81.9299L92.4505 82.2799L91.6105 82.3199L89.7105 82.0699L88.1205 82.0399L86.0705 80.4499L85.8205 80.1399L85.8605 80.5599L86.1505 81.0399V81.4399L85.4405 82.4899L84.6305 82.6799L84.3205 82.9999L83.8005 83.2199L83.3505 83.2399L81.5505 82.7399L80.7305 81.8299L80.1405 81.6499L79.9405 81.8599L79.7405 82.8899L79.1905 83.2799L79.0105 83.5699L78.8305 84.6499L78.2305 84.8899L77.6905 85.4699L77.1305 85.3799L76.9705 85.4899L76.9205 85.8099L77.1105 86.5199L76.4805 87.3999L76.6005 88.1499L75.9405 88.9599L75.6905 89.5199L75.7005 90.0699L75.5305 90.5299L75.6205 91.1399L75.4105 92.1599L75.5205 92.9499L74.7505 93.7099L74.4605 95.1299L74.0205 95.6899L74.1505 95.9999L74.1005 96.2499L73.2105 97.1199L73.2505 97.5499L74.1005 98.3099L74.0805 99.1599L74.2905 100.3L74.1305 100.84L73.7205 101.23L73.6305 101.53L74.0305 101.9L72.7305 102.23L72.3705 102.61L72.2905 103.06L72.5805 103.93L72.5405 104.12L71.9205 105.73L71.2105 105.98L71.0305 106.18L71.4305 107.68L71.3205 107.97L70.5905 108.13L69.7905 107.97L69.4705 108.45L69.4805 108.99L69.6705 109.39L70.0405 109.85L70.8405 111.27L71.4105 111.96L70.8705 111.98L70.4805 112.26L70.1505 112.64L70.0705 113.08L70.3005 115L70.5505 115.33L71.3005 115.67L71.3505 116.05L71.1005 116.42L70.5105 116.65L70.2205 117.73L69.9405 118.18L69.3805 118.52L69.2305 119L69.3105 119.22L69.5905 119.24L69.9505 119.44L70.1205 119.8L70.2005 120.43L70.4005 120.6L71.7805 120.3L72.3305 120.69L73.1505 120.84L73.5705 121.13L73.6805 121.42L73.1205 122.75L73.2705 123.04L73.8805 123.46L73.9705 123.7L73.9905 124.62L73.8005 125.22L73.8605 125.49L74.5005 126.35L74.0805 126.86L74.2305 127.54L74.4405 127.84L74.7405 127.98L76.3005 128.15V128.46L75.8705 129.85L76.3105 131.4L76.5705 131.59L77.2805 131.56L78.7805 132.6L79.2605 133.23L79.2805 133.8L78.4305 135L78.2505 135.73L78.4005 136.07L78.9305 136.53L79.0405 136.83L79.0905 138.31L78.9405 138.92L79.0705 139.34L79.1105 140.54L79.9105 141.23L80.2005 142.33V142.66L79.7805 143.18L79.6805 144.52L80.7205 144.95L81.0905 145.71L80.1005 145.66L79.9705 145.92L80.2205 146.25L80.1405 146.69L79.8605 147.07L79.5705 146.93L79.3105 147.16L79.0205 147.72L79.1705 148.13L79.0105 148.5L78.6105 148.75L78.1505 148.85L77.7105 149.62L77.1605 149.74L76.6305 149.56L75.2505 148.27L74.0405 147.78L73.8005 147.02L73.6105 146.85L72.8705 146.55L71.8005 145.84L71.4705 145.91L71.3305 145.08L70.9105 144.72L70.2705 144.62L69.8505 144.87L69.4705 144.91L69.4005 145.19L69.0205 145.67L69.8305 147.85L69.8005 148.81L69.4705 149.06L68.6805 149.27L68.3205 149.67L67.7605 149.64L67.0205 149.94L66.1805 149.83L65.8405 149.67L65.8105 148.5L65.9205 147.9L65.7505 147.86L64.5705 148.3L64.0805 147.94L63.7905 147.89L62.9105 148.13L62.3705 147.5L62.1605 146.89L62.0605 146.93L61.9605 147.35L61.6005 147.31L61.3505 147.13L61.6205 146.65L61.2805 146.19L60.7805 146.96L60.3805 146.87L60.1705 147.3L60.0405 147.32L59.6005 146.91L58.9705 147.52L58.8005 147.39V147.25L59.0005 146.19L59.2205 146.14L59.7305 146.35L59.9105 146.3L59.5005 145.91V145.43L59.4105 145.34L58.5105 146.34L58.2405 146.32L58.0805 145.38L58.1305 144.87L57.0305 145.27L56.9305 145.06L56.9905 144.66L56.8605 144.55L56.6505 144.46L55.8205 144.54L55.4405 144.77L55.3105 145.39L55.1005 145.69L54.5305 145.63L54.3205 145.44L54.1805 144.89L54.3105 144.52L54.7105 144.16L54.7705 143.85L54.5505 143.61L53.5905 143.34L53.3505 143.15L53.3905 142.04L53.2405 141.88L51.8905 142.34L48.8805 142.64L48.6205 142.89L48.4005 144L48.1305 144.38L48.5005 142.77L48.5305 142.22L47.8705 142.13L47.2705 142.3L46.7605 142.65L45.8805 142.46L44.2905 141.41L43.9105 140.13L43.7305 138.3L43.8805 136.83L44.0505 136.47L44.2805 136.3L44.8305 136.28L46.1505 135.78L46.4305 134.68L46.2105 133.06L45.6805 132.3L45.0905 131.92L43.9805 130.49L43.5005 130.1L42.2205 129.64H41.1705L40.7405 130.2L40.3105 129.88L40.1605 129.28L39.7805 128.86L39.7905 128.55L40.0705 128.34L40.0605 127.92L39.5005 127.45L39.3105 126.76L39.9305 126.86L40.6405 127.17L41.2905 126.98L41.6805 126.72L42.0405 126.36L42.3305 125.84L42.2205 125.29L42.5205 124.43L42.4605 123.76L42.0805 123.61L42.1705 123.97L41.8705 125.1L41.8305 125.98L41.1705 126.57L39.9405 126.4L39.3105 126.2L39.1305 124.79L38.6905 124.06L38.5805 123.97L37.9805 124.07L38.0305 123.62L38.3405 123.17L39.0705 121.46L39.1605 119.94L38.9605 119.76L39.3305 119.2L39.5105 119.51L39.9205 119.43L40.1705 118.88L40.4205 117.6L40.3905 115.99L40.5505 115.38L41.5805 114.59L42.0605 113.53L41.8505 112.72L42.2005 112.47L42.2605 112.07L40.5905 110.44L42.0405 109.04L42.5905 107.22L42.2905 106.58L41.4205 105.99L40.2705 105.64L40.1305 105.48L40.2105 104.99L40.5805 104.79L40.8105 104.4L40.6205 103.79L40.8605 103.02L40.6605 102.76L39.8005 102.51L39.1405 102.54L38.6905 101.81L38.4705 101.78L38.0205 101.97L37.5905 101.74L37.5205 101.23L37.7305 101.1L37.7605 100.87L37.1105 100.52L37.2005 100.29L37.3105 100.19L37.5005 100.23L37.9805 100.72L38.1805 100.75L38.5405 100.55L38.7505 100.35L38.6505 99.7099L38.8205 99.5299L38.6905 99.2999L38.3705 99.1799L37.7605 99.5499L37.4305 98.9999H37.0505L36.8105 99.2199L37.0305 99.7599L36.8505 99.7899L36.5905 99.5799L36.4305 99.6899L36.4105 99.8499L36.6605 100.23L36.4805 100.38L36.2105 99.8999L35.9305 99.6699L34.4905 99.1999L33.5405 99.6999L33.3405 99.6899L32.8205 99.0499L32.4805 98.3099L32.3805 96.6199L32.2905 96.4999L31.8605 96.6899L31.7005 96.5199L31.3205 95.6899L31.1305 94.8399L30.8805 94.4899L30.8105 94.0999L30.4605 93.3499L29.9805 92.7499L29.9905 92.4899L30.1905 92.1399L30.9305 91.6899L31.1505 90.9799L31.6805 91.0599L34.7205 90.7599L35.0905 90.6899L35.4705 90.3599L35.7705 90.3499L35.4205 90.8699L35.6105 91.2999L36.0305 91.1499L36.3405 91.4199L36.3705 91.5899L36.0905 91.9299L36.2105 92.2799L36.9405 92.5699L37.4805 92.3799L37.9205 92.7699L38.1705 92.7599L38.6705 92.2499L39.2405 91.2399L40.1205 91.1499L40.3305 91.0199L40.9805 89.4899L41.3705 89.4499L41.7505 89.0899L42.2705 89.0799L42.4805 88.9399L42.7605 88.2699L42.5305 87.9199L43.2605 86.8499L43.3605 86.3299L43.4605 86.2499L43.7805 86.3499L43.9505 86.2999L44.3505 86.0399L44.8405 85.9199L45.2105 85.5499L45.1905 84.5699L45.4605 84.1899L45.5405 83.7899L46.6405 83.5399L47.1705 83.6599L47.8405 83.4399L48.3205 83.4899L49.2505 82.5399L49.7505 82.2799L50.1705 80.4299L50.0605 79.7699L50.5505 78.9499L50.5905 77.7699L50.8605 76.9499L51.0905 76.5399L51.4005 76.3199L52.0905 76.4899L52.6905 76.2099L53.6205 74.2399V73.9699L53.4305 73.6299L53.3805 72.6999L52.9305 72.1699L52.9005 71.6299L52.9705 71.4299L53.5505 70.9799L53.7905 70.0999L54.1905 70.1799L54.6005 70.0399L54.7305 69.5299L54.7105 68.7899L55.1005 67.6899L55.0605 67.3899L54.8705 67.1299L54.3405 66.8199L53.8905 66.2799L53.8305 65.2299L53.9405 65.0199L54.0805 64.9899L54.9005 65.1899L55.2305 65.1599L55.4405 64.5999L55.4005 64.4199L56.4505 65.1499L57.0205 66.1699L57.2105 66.2599L58.1105 66.1899L58.4005 66.4399L60.2005 68.8499L60.7705 69.8699L61.1305 70.6399L61.2205 71.4799L62.1605 70.8399L62.8205 70.0899L63.6905 69.8999L64.1005 69.6199L65.1305 68.4099L66.1705 67.4899L66.2805 66.7899L65.8805 65.5999L66.4205 64.1799L67.1505 63.3499L67.4405 63.1899L67.6405 63.2399L68.5405 63.7399L69.7305 63.2699L70.6905 62.6299L71.7005 61.0699L72.3805 60.9199L74.8005 61.0799L75.3605 60.9299L77.6005 59.2999L78.6305 59.1099L79.3205 58.6699Z" fill="#CCCCCC" stroke="white" stroke-width="0.5"/>
<path d="M23.78 26.8301L24.17 26.9601L24.98 28.0201L25.7 27.8501V27.5101L25.88 27.3501L26.03 27.5501L26.02 28.0201L26.48 28.1201L26.47 27.9001L26.71 27.4601L27.4 27.4301L27.42 28.3101L27.73 28.7901L28.59 29.2701L28.5 30.1101L28.63 31.0701L28.15 31.4201L28.13 31.6601L29.76 33.0101L29.98 33.9801L30.47 34.3601L30.3 37.2601L30.2 37.4801L29.49 38.3701L27.73 39.6301L26.83 41.1001L25.88 41.9701L25.48 42.6001L23.91 44.2701L23.57 44.8601L23.36 45.7501L22.97 45.4301L22.35 44.2701L20.98 40.4601L20.61 40.0201L20.5 39.6801L20.58 39.1001L21.44 37.7301L21.33 37.5001L21.34 37.1101L21.92 36.3501L21.68 33.6901L21.8 32.7401L21.86 32.6701L22.05 32.8601L22.73 32.9601L22.91 32.7401L22.29 31.2901L22.18 30.5801L22.48 29.8601L22.78 29.6201L22.67 29.0701L22.74 28.6001L22.48 28.4301L22.41 28.0301L22.75 27.8301L23.05 27.1301L23.78 26.8301Z" fill="#CCCCCC" stroke="white" stroke-width="0.5"/>
<path d="M94.0399 172.86L94.1199 172.35L94.5799 171.53L94.5999 171.11L94.1199 170.13L93.9499 169.28L93.9599 168.29L93.4799 167.49L93.3799 166.64L92.8999 166.36L92.0699 165.93L90.9199 165.96L88.8499 164.8L87.3499 162.64L87.2199 162.27L86.5199 161.8L86.8299 160.75L87.5299 160.19L87.6999 159.74L87.3399 158.23L86.5299 156.66L87.4799 154.96L88.2999 154.65L88.4799 154.47L88.4499 153.59L88.7199 152.98L88.6899 152.45L88.5699 152.17L87.8299 151.55L87.6399 151.23L87.4499 150.27L87.0099 149.57L85.8699 148.41L85.3399 148.14L84.2699 148.23L83.4999 148.09L82.3699 147.4L81.0799 145.73L80.0899 145.68L79.9599 145.94L80.2099 146.27L80.1299 146.71L79.8499 147.09L79.5599 146.95L79.2999 147.18L79.0099 147.74L79.1599 148.15L78.9999 148.52L78.5999 148.77L78.1399 148.87L77.6999 149.64L77.1499 149.76L76.6199 149.58L75.2399 148.29L74.0299 147.8L73.7899 147.04L73.5999 146.87L72.8599 146.57L71.7899 145.86L71.4599 145.93L71.3199 145.1L70.8999 144.74L70.2599 144.64L69.8399 144.89L69.4599 144.93L69.3899 145.21L69.0099 145.69L69.8199 147.87L69.7899 148.83L69.4599 149.08L68.6699 149.29L68.3099 149.69L67.7499 149.66L67.0099 149.96L66.1699 149.85L65.8299 149.69L65.7999 148.52L65.9099 147.92L65.7399 147.88L64.5699 148.3L64.0799 147.94L63.7899 147.89L62.9099 148.13L62.3699 147.5L62.1599 146.89L62.0599 146.93L61.9599 147.35L61.5999 147.31L61.3499 147.13L61.6199 146.65L61.2799 146.19L60.7799 146.96L60.3799 146.87L60.1699 147.3L60.0399 147.32L59.5999 146.91L58.9699 147.52L58.7999 147.39V147.25L58.9999 146.19L59.2199 146.14L59.7299 146.35L59.9099 146.3L59.4999 145.91V145.43L59.4099 145.34L58.5099 146.34L58.2399 146.32L58.0799 145.38L58.1299 144.87L57.0299 145.27L56.9299 145.06L56.9899 144.66L56.8599 144.55L56.6499 144.46L55.8199 144.54L55.4399 144.77L55.3099 145.39L55.0999 145.69L54.5299 145.63L54.3199 145.44L54.1799 144.89L54.3099 144.52L54.7099 144.16L54.7699 143.85L54.5499 143.61L53.5899 143.34L53.3499 143.15L53.3899 142.04L53.2399 141.88L51.8899 142.34L48.8799 142.64L48.6199 142.89L48.3999 144L48.1299 144.38L48.3099 145.13L48.5999 145.43L49.5799 145.45L50.1399 145.6L51.6299 146.57L52.4499 147.51L53.3199 149.51L55.3499 150.12L56.5699 151.09L57.2899 151.84L58.2499 153.21L59.1899 155.36L59.7699 156.99L60.8399 158.63L61.6799 159.46L62.9999 161.48L63.4599 162.7L64.1299 162.98L65.5899 163.93L66.5099 164.66L67.2699 165.64L67.7099 166.39L68.1099 168.09L68.4299 171.54L68.6999 172.09L69.4999 172.77L70.2199 173.65L70.4099 174.18L70.2199 176.12L70.5599 176.64L71.5399 176.59L71.7599 177.13L71.5899 177.46L71.1699 177.74L70.6899 178.29L70.4999 179.11L70.2799 179.54L70.2999 179.91L70.8299 180.43L71.1599 180.32L71.3299 179.94L71.4099 179.1L72.0799 178.45L72.2599 177.75L72.4699 177.54L72.9099 177.52L73.5399 178.02L73.4699 178.31L72.9299 178.54L72.6499 178.91L72.1999 179.15L72.2799 179.37L72.9399 179.41L73.2399 180.01L73.1299 180.18L72.8299 180.21L72.4499 180.93L72.7799 181.23L72.8099 181.57L72.9899 181.6L72.9999 181.13L73.1899 180.85L72.9199 180.46L73.1099 180.31L73.4199 180.63L74.0299 180.78L74.1299 181.15L73.8099 181.48L73.7599 181.99L72.9699 182.08L72.9099 182.69L72.5699 182.81L72.4299 183.28L72.6199 183.63L72.5499 184.33L72.1399 184.79L72.3799 185.16L73.0899 185.72L74.4399 188.31L75.2899 189.15L75.8799 189.33L77.5599 190.17L79.1299 190.54L80.3899 191.34L81.1499 191.43L82.8699 191.97L83.3799 192.26L83.5799 192.64L83.8599 192.87L84.5299 192.81L84.5399 192.68L84.5899 192.39L85.4499 192.11L85.3899 191.22L85.9999 190.64L85.8399 190.1L86.2299 189.62L86.3899 189.15L86.5399 187.89L86.0199 181.79L90.9299 181.96L91.5999 181.15L93.0399 177.84L93.7099 176.74L93.8099 176.14L94.9199 175.46L94.9499 174.8L94.0399 172.86ZM84.9599 181.53L84.2099 181.96L82.7099 182.07L82.2799 181.43L81.9599 180.26L81.7799 178.98L82.5999 178.87L84.1999 179.08L85.0599 180.36L84.9599 181.53ZM86.3299 169.42L86.1699 169.45L85.9099 169.52L85.7999 169.59L85.7899 169.84L85.8299 170.05L85.8799 170.3L85.8099 170.68L85.6699 170.9L85.5899 171.04L85.5999 171.43L85.6599 171.76L85.7799 172.02L85.9499 172.17L86.1299 172.34L86.2599 172.59L86.2499 172.84L86.1299 173.07L86.0399 173.43L86.0299 173.59L86.1299 173.71V174.27L86.1199 174.45L86.0099 174.53L85.8699 174.57L85.7899 174.58L85.6599 174.63L85.5499 174.69L85.4799 174.77L85.4299 174.84L85.4099 174.99L85.3899 175.11L84.1999 175.42L82.1999 174.88L81.9899 173.75L81.7799 173.32L80.8199 172.47L80.1799 171.3V170.34L81.0399 169.28L81.4499 168.16L81.5599 167.93L81.6199 167.8L81.7299 167.73L81.8799 167.7L82.1299 167.73L82.3399 167.83L82.4699 167.92L82.6399 167.98L82.8499 168.02L82.9599 168.01L82.9799 167.85L83.0299 167.77L83.1099 167.7L83.2099 167.63L83.3799 167.58L83.5499 167.64L83.9899 167.88L84.2699 168.01L84.4599 167.99L84.5599 167.94L84.8999 167.68L85.0299 167.47L85.0999 167.39L85.1699 167.33L85.3299 167.26L85.4799 167.21L85.5599 167.18L85.6699 167.21L85.7399 167.34L85.7099 167.42L85.6199 167.49L85.5899 167.58L85.5299 167.67L85.4599 167.82L85.5399 167.96L85.7299 168.1L85.8999 168.27L86.1099 168.4L86.2099 168.53L86.3999 169.01L86.4299 169.25L86.3299 169.42Z" fill="#CCCCCC" stroke="white" stroke-width="0.5"/>
<path d="M118.79 62.84L120.33 63.72L121.62 64.8L122.49 66.09L123.94 67.82L125.47 69.2L126.77 69.88L128.37 71.1L130.34 73.05L132.21 74.22L133.22 74.69L133.87 74.85L134.44 74.57L135.47 75.19L136.09 75.73L140.84 80.39L142.54 82.86L144.03 85.48L143.91 86.06L144.41 87.04L145.69 89L147.95 93.67L150.63 98.58L153.66 103.76L154.25 105.16L153.6 105.44L153.53 105.72L154.65 108.92L154.23 110.75L154.92 112.81L155.38 113.83L155.74 115.35L155.35 115.83L154.58 116.44L154.43 117.63L154.91 119.06L154.87 120.57L155.32 121.64L156.39 123.49L155.54 126.23L155.08 126.92L154.34 127.25L154.22 127.86L154.46 129.11L151.36 129.51L150.61 129.37L150.19 129.13L149.67 128.59L149.51 128.66L149.86 130.72L149.65 131.44L149.09 132.15L148.9 133.51L149.1 133.93L149.64 134.29L149.89 134.66L149.9 136.54L150.36 137.98V138.35L150.23 139.04L149.38 139.79V140.04L149.74 140.69L149.31 140.9L149.12 140.87L148.86 140.18L147.83 138.72L147.79 138.35L148.04 137.96L146.7 136.75L146.61 135.97L146.38 135.86L145.67 136.05L145.41 136.01L145.13 135.72L144.93 135.14L144.77 135.11L143.99 135.4L143.47 135.37L143.08 134.88L142.06 134.3L141.02 133.01L139.91 132.77L139.22 132.06L138.2 131.92L137.43 131.99L136.42 131.57L135.34 131.99L134.16 132.66L133.24 132.15L132.67 131.51L132.56 131.16L132.7 130.81L133.43 130.09L133.53 129.83V129.38L133.26 128.08L133.37 127.7L133.97 126.81L133.84 126.08L133.9 125.64L134.92 124.67L135.11 123.82L135.38 123.34L136.05 123.13L136.75 123.28L137.07 123.08L137.04 122.86L136.75 122.44L136.66 121.86L136.87 121.32L137.46 120.6L137.32 120.01L136.8 118.89L136.31 118.17L135.45 117.39L134.72 117.25L133.65 117.73H132.05L131.58 117.46L131.2 116.84L130.7 116.5L130.26 115.2L130.19 113.93L131.11 113.69L131.35 113.01L130.95 112.6V112.44L131.93 112.02L131.3 111.2L131.05 110.34L130.28 109.68L130.29 109.43L128.95 109.26L127.72 109.42L125.46 108.88L124.68 108.05L123.93 107.71L122.68 105.96L122.99 105.59L123.09 105.25L122.65 103.95L122.37 103.52L122.44 102.6L122.34 102.4L120.6 101.33L119.99 101.27L119.52 100.8L118.71 100.33L118.03 100.29L117.44 100.47L117.15 100.4L116.98 100.2L116.96 99L117.13 98.45L117.12 98.05L116.65 96.41L117.19 95.21L117 94.3L116.51 93.7L116.45 93.3L116.74 92.78L117.3 92.59L117.43 92.22L116.94 91.21L116.14 90.72L115.76 90.21L113.68 89.18L112.93 89.07L113.21 87.66L112.98 86.5L113.09 84.14L113.18 83.72L113.6 82.95L113.68 82.2L114.05 81.52L113.93 81.34L113.52 81.16L113.12 80.54L111.85 79.71L111.68 79.47L111.71 79.21L112.37 78.81L112.31 77.68L112.01 77.02V75.66L112.05 75.25L112.52 74.54L112.66 74.01L112.27 72.81L112.2 71.37L111.72 69.69L111.68 68.55L113.11 67.28L113.86 66.35L115.29 65.23L116.1 64.13L117.02 63.37L117.86 62.29L118.79 62.84Z" fill="#CCCCCC" stroke="white" stroke-width="0.5"/>
<path d="M714.53 29.46L714.55 29.15L714.76 28.87L715.07 28.69L716.42 28.55L717.82 28.85L718.4 28.55L718.97 28.05L718.48 27.55L717.31 27.26L716.99 26.43L717.15 26.09L718.24 25.58L718.58 25.76L719.41 25.89L720.44 25.43L720.6 25.66L720.56 25.95L721.33 27.42L721.98 28.19L722 28.98L721.62 29.54L720.78 30.09L719.65 30.26L718.75 30.89L718.05 30.8L717.39 31.02L716.76 30.51L715.32 30.34L714.53 29.46ZM697.15 7.23L697.14 7.03L696.64 6.83L696.22 7.01L696.38 6.54L696.73 6.45L697.04 6.51L697.14 6.68L697.27 6.63L697.42 6.48L697.48 6.03L697.86 6.02L698.6 6.28L699.22 5.97L699.63 5.61L700.54 5.96L700.89 5.85L700.64 5.14L700.19 4.88L699.98 4.48L700.08 3.92L700.58 3.26L701.3 3.5L701.09 4.05L701.45 4.4L702.26 4.68L702.36 4.46L702.07 3.81L702.29 2.74L702.05 1.94L701.66 1.27L701.38 1.28L701.04 1.75L700.96 2.39L700.64 2.81L700.03 3.05L698.66 3.9L698.22 3.89L698.11 3.59L697.75 3.56L697.65 3.81L697.19 4.11L696.81 4.05L696.6 4.53L696.58 4.92L696.25 5.28L695.96 5.91L695.98 6.43L695.83 6.98L695.44 7.59L695.51 7.8L695.79 7.97L697.15 7.23ZM703.51 7.97L703.55 8.24L703.92 8.33L703.76 8.54L703.84 8.63L704.41 8.58L704.37 8.85L703.93 9.25L703.82 10.35L703.84 10.59L704.5 11.02L704.32 11.54L704.42 11.63L705.06 11.01L705.17 10.64L705.07 10.22L705.23 10.05L706.94 9.11L707.77 8.44L708.87 8.02L709.17 8.2L710.3 8.22L710.78 7.36L711.31 6.78L711.4 6.91L711.37 7.65L711.11 8.18L711.31 8.3L711.75 8.14L711.91 8.01L711.84 7.77L712 7.3L712.39 7.04L712.83 6.28L712.72 5.98L712.75 5.62L712.6 5.59L712.36 5.8L712.02 5.79L711.89 5.42L712.6 5.05L712.45 4.9L712.11 4.98L711.98 4.79L712 4.52L712.47 3.79L712.46 3.44L713.26 2.86L713.33 2.52L712.8 1.6L712.59 1.41L712.4 1.52L711.97 1.5L710.87 1L710.11 1.15L709.57 1.5L709.36 1.44L709.09 1.11L708.78 1.17L708.34 1.75L708.09 1.87L707.76 1.78L707.67 1.51L707.5 1.42L707.22 2.08L706.35 2.93L705.69 3.18L705.39 3.03L705.03 3.06L704.4 3.35L703.85 3.84L704.19 5.12L703.78 6.1L703.62 7.01L703.59 7.21L704.06 7.34L703.98 7.62L703.77 7.65L703.51 7.97ZM763.6 111.69L764.02 112.83L764.26 112.55L764.36 111.92L764.56 111.64L764.76 111.51L765.09 111.59L765.37 111.39L765.41 111.02L764.17 110.48L763.83 110.17L763.61 110.14L763.33 110.54L762.68 110.42L762.74 110.16L762.56 109.94L762.23 109.93L762.16 110.53L761.96 110.73H761.76L761.69 110.02L761.26 109.59L761.34 109.39L760.81 109.3L760.55 109.07L760.42 108.86L760.52 108.58L760.32 108.36L760.07 108.35L759.35 108.94L759.12 109.01L759.07 109.45L759.16 109.72L759.06 109.84L758.09 109.93L757.47 109.73L756.67 109.88L755.58 109.67L754.95 109.84L754.65 110.11L755.52 110.58L755.9 110.63L756.69 110.47L758.17 111.05L759.4 111.23L759.64 111.48L759.77 112.05L760.54 112.16L760.71 111.85L761.04 111.7L762.48 112.55L763.2 112.53L763.24 112.34L763.05 112.19L763.33 111.75L763.6 111.69ZM792.76 86.38L792.34 86.57L792.22 86.44L792.26 86.12L792.04 85.59L792.13 85.31L792.45 85.11L792.78 83.78L792.46 81.83L791.83 80.65L790.19 79.02L788.52 78.18L787.85 78.26L786.53 78.73L786.15 79.7L785.42 80.02L784.54 80.15L782.6 79.88L780.38 78.99L779.85 78.92L779.77 79.27L779.98 80.45L779.91 80.92L778.94 81.21L778.28 81.2L777.25 80.76L778.16 80.12L778.84 80.02L779.03 79.72L779.48 79.47L778.94 78.65L777.81 77.87L776.08 77.01L774.8 75.94L774.37 75.77L774.53 76.8L774.5 77.64L774.41 78.52L774.11 78.73L773.98 78.27L773.99 76.95L774.26 76.25L773.86 75.61L772.99 74.92L771.85 74.57L770.39 73.56L768.08 70.89L767.7 70.55L767.21 70.35L766.72 70.44L766.16 70.95L765.71 71.18L765.41 72.39L765.31 73.41L764.73 74.17L764.39 75.42L764.07 75.41L763.77 75.12L764.08 73.67L764.58 73.26L764.92 72.54L764.72 71.71L764.8 70.98L765.37 70.95L766.21 70.31L766 69.81L764.98 68.74L763.9 68.18L761.09 66.17L758.12 64.54L755.89 62.98L755.68 63.07L755.74 63.83L755.98 64.2L755.85 65.02L755.72 65.14L755.13 63.61L754.86 63.39L753.45 63.21L751.47 62.42L751.34 62.41L751.05 62.86L750.47 63.33L747.95 63.95L747.67 64.33L747.82 64.53L748.29 65.96L747.98 66.42L747.53 66.54L747.23 66.42L746.86 67L747.76 68.42L747.55 68.73L747.09 68.91L746.97 69.4L746.73 69.49L746.58 69.34L746.32 67.85L745.71 67.66L745.24 68.24L744.43 67.98L744.52 67.29L744.08 67.25L743.08 67.65L742.65 68.27L742.06 68.45L741.5 68.91L740.94 69.02L739.85 68.96L739.41 69.46L739.46 68.98L739.93 68.51L739.6 68.41L739.3 68.61L739.13 67.84L739.23 67.47L739.61 67.32L739.74 67.1L739.64 66.79L738.87 66.62L738.36 66.64L737.91 66.27L738.26 65.79L738.04 65.72L737.56 65.87L737.16 65.55L738.12 65.11L737.59 64.55L737.63 64.35L738.07 64.34L738.38 64.04L739.24 64.31L739.92 64.32L740.21 64.16L739.98 63.87L741.34 63.88L742.11 63.39L742.47 64.4L743.01 64.52L744.11 63.81L744.96 63.73L745.17 63.4L745.13 63.05L745.67 62.77L746.76 62.46L747.15 61.99L746.39 61.25L745.98 61.24L745.68 60.77L745.85 59.84L745.78 59.69L745.04 59.9L743.8 59.03L744.04 58.43L744.52 58.02L744.56 57.65L744.12 57.31L743.2 56L743.17 55.76L743.51 55.36L743.68 54.74L743.64 54.55L743.44 54.53L742.78 54.9L742.35 54.93L742.17 53.58L741.75 53.6L741.15 53.35L740.62 53.69L740.58 54.26L740.39 54.51L739.98 54.76L739.66 55.25L738.8 55.98L738.27 56.2L737.68 56.83L737.99 57.2L737.61 57.89L736.82 58.3L735.53 58.58L734.71 58.61L733.33 58.45L731.98 58.48L731.96 58.94L732.56 59.74L732.67 60.26L732.64 60.61L732.44 61L732.31 59.88L731.86 59.87L730.84 60.16L730.08 60.07L728.85 59.68L726.65 60.22L725.44 59.82L721.62 60.82L721.29 61.12L721.09 61.5L720.65 61.53L720.42 61.42L720.95 60.75L721.19 60.6L722.49 60.32L724.97 59.04L724.56 58.61L724.43 59.02L724.32 59.04L724.19 58.87L724.1 57.94L724.18 57.67L724.47 57.68L724.57 58.2L724.74 58.24L724.99 57.01L725.24 56.92L725.49 57.11L725.78 57.1L726.79 56.25V56.09L726.62 55.93L726.63 54.93L726.96 54.23L727.47 53.9L727.9 53.79L728 53.53L727.91 53.03L727.25 51.82L726.71 51.95L726.69 51.7L727.05 51.35L726.23 50.51L725.96 49.75L725.58 49.27L724.97 48.94L725.9 47.75L727.91 46.43L728.98 46.5L729.94 46.72L730.12 46.45L730.7 44.87L730.95 43.83L730.88 43.07L730.58 42.28L730.5 41.62L730.58 40.37L731.16 39.72L731.36 38.83L728.1 36.26L727.16 35.74L726.87 35.39L726.63 35.36L726.19 35.53L725.86 35.48L723.7 34.36L723.95 33.77L723.02 32.65L722.66 31.74L722.47 30.56L722.12 30.83L721.27 32.14L720.49 33.68L720.08 33.71L719.68 33.53L718.62 33.69L717.79 33.27L717.32 32.22L717.4 31.88L717.07 31.67L716.05 31.5L715.71 31.03L714.97 31.53L714.3 30.97L713.92 31.46L713.19 31.17L712.74 29.64L712.31 28.69L712.09 27.76L712.8 27.16L712.88 26.66L712.45 26.09L711.7 25.71L711.33 25.35L711.12 24.15L710.87 23.5L710.49 23.37L710.34 22.98L710.9 22.4L710.65 22.02L710.76 21.74L711.61 21.11L711.63 20.86L711.51 20.72L711.15 20.68L711.8 20.05L711.67 19.17L711.41 18.52L711.62 18.16L711.6 17.98L711.47 17.87L710.49 17.88L710.02 17.76L709.36 17.4L709.13 17.19L709.04 16.76L708.64 16.19L708.17 15.94L707.55 15.12L706.74 15.14L706.52 15.33L706.8 15.98L706.71 16.15L706.3 16.18L705.46 15.73L704.35 16.22L703.77 16.63L703.65 17.1L703.77 17.23L704.36 17.65L704.81 17.73L704.29 18.16L703.96 18.27L703.49 18.23L703.41 17.84L702.92 17.56L702.7 17.63L702.6 17.8L702.51 18.24L702.79 18.61L702.66 20L703.12 20.09L703.61 20.57L703.65 21.27L703.4 21.93L703.77 21.94L703.74 22.15L703.06 22.26L702.42 22.56L702.33 22.75L702.51 22.99L701.88 24.18L701.16 24.63L701.2 25.08L700.44 25.86L700.3 26.12L700.37 26.42L700.72 26.9L700.59 27.61L699.02 28.57L698.54 29.17L697.76 29.3L696.45 30.97L695.68 31.17L695.53 31.8L695.51 32.56L693.77 33.25L692.98 33.24L691.51 32.67L691.44 32.31L691.64 30.47L692.41 29.66L692.7 29.2L694.08 26.43L695.68 24.89L695.41 24.01L695.63 22.79L694.91 22.19V21.99L695.67 21.46L694.58 21.21L693.65 21.45L693.34 21.67L692.89 21.1L692.79 20.33L693.03 20.34L693.75 20.91L693.91 20.83L694.1 20.23L694.39 20.09H694.66L695.36 20.7L695.71 20.61L695.81 20.18L694.85 18.46L694.79 18.17L694.97 17.84L694.49 16.99L693.84 16.79L692.44 15.16L691.47 14.24L691.17 14.25L690.28 16.19V17.05L689.45 17.3L689.36 17.55L689.61 18.13L689.53 18.52L688.56 20.26L688.03 20.75L686.86 21.16L687.03 22.23L687.93 22.57L688.09 22.91L687.3 23.16L686.86 24.24L686.4 24.57L686.75 25.21L687.01 26.29L687.09 27.13L686.99 27.49L685.9 29.09L685.36 29.4L684.63 29.6L684.23 29.91L684.05 30.43L683.03 31.81L682.87 32.49L681.36 34.41L681.02 34.58L681.28 34.85L681.02 35.93L680.76 36.44L680.41 36.84L678.26 38.34L675.84 39.89L674.61 40.38L674.55 40.55L674.99 40.92L675 41.23L674.55 41.48L674.36 41.11L673.9 41.33L673.71 41.62L674.1 42.34L673.91 42.99L674.37 43.57L673.99 43.95L673.25 44.06L672.95 43.98L673.06 43.51L672.94 43.33L672.69 43.43L672.31 44.1L672.03 44.34L670.72 44.7L670.37 44.96L669.97 45.81L669.35 46.22L668.47 47.13L667.92 48.48L667.46 49.12L667 49.52L666.73 50.22L665.48 51.3L665.06 51.36L664.47 51.68L665.22 52.86L665.8 52.06L666.32 52.46L665.81 53.62L665.48 53.99L665.55 54.67L665.47 56.08L665.03 56.36L664.57 56.09L663.86 56.85L663.43 56.93L662.93 58.18L662.9 59.09L662.78 59.62L662.57 59.95L662.99 61.28L662.78 61.93L662.39 62.59L662.38 62.87L661.53 63.08L661.29 63.49L661.28 63.88L659.9 64.82L658.87 65.35L657.15 66.02L656.83 66.8L656.75 69.2L656.32 71.65L656.04 72.48L655.3 73.44L654.36 74.06L653.56 74.4L652.18 74.82L651.5 74.91L650.55 74.9L647.4 74.5L646.52 74.3L645.79 73.93L645.12 73.33L645.48 72.23L645.71 71.89L645.74 71.53L645.57 71.16L644.65 70.9L643.98 72.6L643.22 73.9L642.72 74.54L640.61 76.15L637.76 79.21L637.05 79.65L636.21 79.74L635.83 80L635.63 80.32L635.6 81.88L635.25 83.34L634.98 83.8L634.44 84.2L634.45 84.35L635.47 84.37L635.83 84.09L636.02 83.34L636.6 82.93L636.79 82.96L636.49 83.85L636 84.43L637.38 85.35L637.4 84.97L637.76 84.72L638.28 85.29L638.31 85.74L637.95 85.75L638.03 86.1L639.94 87.28L640.75 87.99L641.33 87.94L641.6 88.03L641.79 88.35L642.75 88.05L643.02 88.14L642.88 88.57L642.86 88.88L642.96 88.87L643.48 88.62L644.31 87.15L644.77 87.27L644.84 87.41L644.47 87.79L644.41 88.04L644.56 88.98L644.03 89.04L643.77 89.45L643.75 89.76L642.99 90.63L643.09 91.66L642.77 93.34L641.98 94.2L641.33 95.12L640.54 95.28L639.62 95.7L639.04 96.86L640.07 97.35L640.98 97.6L641.72 97.39L643.38 96.45L645.42 96.2L645.86 96.31L646.14 96.59L646.27 96.95L646.4 97.84L646.35 98.34L646.83 99.47L647.04 100.87L647.57 102.75L647.53 104.7L647.36 105.04L646.96 105.26L646.69 105.65L645.31 108.97L643.64 110.68L643.33 111.48L643.29 112L643.43 112.38L644.17 113.44L644.14 114.49L644.56 115.3L644.53 115.94L643.97 116.4L643.89 116.71L643.91 116.92L644.63 118.04L645.18 119.3L645.12 119.99L644.88 120.8L644.94 121.4L645.8 122.14L647.33 122.54L647.96 123.2L648.15 123.72L648.17 124.53L647.17 126.4L646.79 128.89L647.35 130.88L647.7 131.17L648.34 131.43L648.53 130.21L649.23 128.83L649.49 128.67L650.08 128.82L650.28 128.76L650.57 128.17L651.39 127.83L651.96 126.73L652.17 126.65L652.83 126.72L653.31 127.56L653.75 127.59L654.18 127.33L654.33 127.04L654.36 126.37L654.51 126L655.04 125.66L655.32 125.19L656.19 124.65L655.84 123.66L656.21 121.23L656.43 120.9L656.8 120.82L657.48 120.92L658.02 121.88L658.42 122.26L659.79 122.31L661.12 122.54L662.34 123.33L662.74 124.8L664.13 125.63L664.49 125.4L665.3 123.78L665.76 123.14L666.97 122.98L667.41 122.71L667.63 122.2L667.7 121.37L667.95 121.08L671.2 121.49L672.06 122.01L672.97 121.68L673.66 121.69L674.94 121.1L675.52 121.12L677.25 122.2L677.76 123.14L678.35 123.36L678.49 123.63L678.57 124.58L678.68 124.76L679.02 124.91L679.9 124.66L680.26 124.44L680.77 123.18L681.51 123.62L682.24 123.59L682.69 123.43L682.76 123.18L682.47 122.38L682.54 122.03L682.78 121.53L683.67 120.89L683.89 120.34L684.08 120.42L684.56 121.38L684.84 121.55L685.44 121.61L685.68 121.83L685.92 122.97L686.25 123.23L687.29 123.05L687.87 122.64L688.58 122.97H689.75L690.6 122.46L691.08 121.26L691.3 121.2L692.06 121.81L692.81 122.9L693.13 122.98L693.7 122.72L694.03 122.9L694.54 123.42H694.88L696.12 123.05L697.42 122.02L697.83 121.9L698.4 122.28L699.22 122.34L699.63 122.83L699.88 122.96L701.43 122.89L701.61 123.02L701.91 123.72L702.16 123.8L702.42 123.66L702.74 122.97L703.22 122.72L705.59 123.23L706.02 123.17L707.06 122.74L708.41 123.18L709.62 123.04L710.02 122.71L710.03 122.27L710.14 122.16L711.44 121.57L712.62 122.76L714.26 124.14L718.55 126.78L718.91 127.31L718.94 128.01L719.14 128.4L720.04 129.18L722.79 129.95L722.91 129.88L723.25 129.02L722.98 127.72L723.07 127.39L722.9 127.06L724 126.16L723.68 125.81L723.7 125.52L723.46 125.26L723.29 124.66L723.43 124.41L723.4 124.21L723.75 123.75L725.12 123.92L725.9 123.69L726.21 124.38L726.5 124.36L726.6 124.18L726.77 122.58L726.56 122.21L726.26 122.07L726.02 122.62L725.57 121.48L725.17 120.81L725.52 120.6L725.86 120.71L726.52 120.59L726.53 120.45L725.61 120.16L725.65 119.93L726.1 119.76L726.36 120.07L726.93 119.56L727.97 119.15L728.67 119.51L728.9 120L728.73 120.75L729.29 121.37L730.39 122.23L730.9 122.2L731.39 122.36L732.1 123.13L733.01 123.38L733.52 123.28L733.88 123.49L734.32 124.29L735.9 124.93L736.29 125.41L736.86 126.77L737.22 126.94L737.78 126.96L738.51 126.62L739.01 126.59L740.42 127.07L740.91 127.58L741.63 127.63L744.87 126.32L745.74 125.64L746.92 125.04L748.79 124.58L749.32 124.84L749.65 124.85L750.75 124.57L751.18 124.11L751.7 123.93L753.38 123.55L754.88 123.49L755.38 122.99L755.44 122.4L755.32 122.29L754.8 122.33L754.58 122.02L754.56 121.79L755.56 122.04L756.12 122.88L756.57 122.66L757.16 122.68L757.52 123.26L757.9 123.35L758.34 123.36L759.3 122.73L761.34 122.1L762.29 122.21L763.02 122.5L764.01 122.46L763.8 121.87L763.77 121.55L763.88 121.32L764.12 121.27L764.06 121.55L764.19 121.68L764.41 121.65L765.81 120.51L765.37 119.86L765.01 119.68L764.95 119.37L765.77 119.4L766.14 119.59L766.15 120.22L766.52 120.35L766.74 120.22L766.81 119.8L767.73 118.81L767.62 118.51L766.95 117.86L766.75 117.42L766.46 117.22L765.75 117.08L765.68 116.69L765.29 116.57L765.18 116.72L765.28 116.98L764.8 116.89L764.89 116.6L765.72 116.11L765.64 115.89L764.48 115.57L763.66 115.44L763.25 115.5L762.33 116.64L762 117.24L761.48 117.13L761.33 116.71L761.05 116.42L759.51 115.46L759.6 115.24L759.94 115.13L760.32 115.26L760.5 115.46L760.97 115.3L761.44 114L761.29 113.72L760.93 113.46L760.41 113.69L760.08 113.21L759.27 112.41L758.63 112.45L758.37 113.06L757.97 113.21L757.75 112.81L757.12 112.46L756.67 111.99L756.73 111.45L756.65 111.31L755.99 111.12L755.62 111.31L755.15 111.38L754.05 111.15L754 110.23L753.36 110L752.63 110.08L752.47 109.99L752.07 109.02L750.9 108.2L750.63 107.43L749.75 106.09L749.65 104.6L749.39 104.09L748.66 103.63L748.44 103.12L748.52 102.91L748.36 102.82L747.04 102.78L746.98 101.81L746.77 101.49L746.79 101.26L747.64 101L748.04 101.25L748.29 100.61L748.35 99.96L749.52 99.53L749.57 99.33L749.2 99.27L749.14 99.09L749.44 98.73L749.99 98.22L751.18 97.6L751.86 97.53L753.09 97.87L753.22 97.53L753.21 97.17L753.53 97.1L753.66 97.57L753.5 97.86L753.97 97.96L754.22 96.77L754.48 96.18L754.93 95.61L755.23 95.49L756.09 95.65L757.48 95.56L758.51 96.01L759.15 96.14L759.6 96.48L759.92 96.95L759.66 97.82L759.91 98.38L760.6 99.07L760.72 99.49L762.53 99.5L762.98 99.19L763.95 97.95L764.41 98.24L765.2 98.3L766.23 98.64L768.74 99.07L769.12 99.05L769.72 98.54L770.73 98.31L770.88 98.57L771.76 98.48L772.25 98.29L774.21 97.03L775.55 96.63L776.51 96.62L777.78 95.49L778.7 95.13L779.97 94.72L785.73 93.3L788.95 92L790.99 90.38L791.51 89.84L792.88 88.02L792.81 87.8L792.97 86.91L792.76 86.38ZM726.47 125.17L725.75 125.28L724.53 124.29L724.01 124.12L723.8 124.25L723.92 124.12L723.79 123.8L723.46 124.13L723.33 124.58L723.46 124.85L723.44 125.15L723.7 125.38L723.69 125.73L723.99 126.08L724.3 126.16L725.04 126.83L726.27 127.35L726.92 126.7L727.66 126.32L727.51 125.58L727.32 125.38L726.47 125.17ZM771.3 117.56L771.61 117.79L771.42 118.39L771.32 118.33V117.97L770.8 117.85L770.7 117.53L770.57 117.54L770.52 117.69L770.1 117.46L769.73 117.56L769.56 117.26L769.29 117.12L769.34 116.95L769.22 116.75L768.88 116.77L768.87 116.57L767.98 116.74L767.23 116.4L767.07 116.45L767.49 116.86L766.99 116.98L767.05 117.29L767.43 117.65L767.46 117.87L768.16 118.32L768.13 118.59L768.25 118.69L767.68 119.55L767.71 119.8L767.96 119.86L768.33 119.66L768.46 119.44L768.88 119.38L769.39 118.83L770.85 119L771.01 118.81L771.6 118.74L772.18 118.17L771.79 118.11L771.72 117.73L771.3 117.56Z" fill="#CCCCCC" stroke="white" stroke-width="0.5"/>
<path d="M438.719 231.38L439.649 231.66L439.929 232.17L440.169 233.11L440.509 233.59L440.399 234.42L440.229 234.69L439.989 234.76L439.039 234.1L438.679 234.07L438.089 234.93L437.969 235.24L438.029 235.54L438.299 235.8L438.569 235.82L438.729 235.68L438.909 235.15L439.199 234.98L439.349 235.15L439.079 235.57L439.089 235.87L439.299 236L439.769 236.02L439.829 236.29L438.929 236.44L438.689 236.11L438.489 236.07L438.119 236.33L437.859 236.24L437.419 236.5L437.239 236.35L436.959 236.32L436.739 236L436.489 235.91L436.149 235.19L436.139 234.43L436.299 234.26L436.589 234.62L436.869 234.49L437.059 234.06L436.699 233.69L437.579 233.59L437.889 233.16L437.869 232.85L437.509 232.2L437.529 231.94L438.029 231.62L438.719 231.38ZM429.599 228.33L429.899 228.4L430.069 228.62L430.179 228.44L430.489 228.46L430.579 228.91L430.279 229.15L430.239 229.53L430.779 230.25L431.209 230.48L431.149 230.68L430.509 231.4L430.029 231.58L429.449 231.61L429.259 231.5L429.349 231.12L429.269 230.93L428.939 230.7L428.999 230.14L428.819 229.83L427.589 229.6L427.349 229.39L427.329 229.1L427.639 228.71L429.599 228.33ZM439.259 226.77L439.419 226.78L439.749 227.07L440.179 227.84L439.649 228.01L439.079 228.49L438.749 229.48L438.929 229.84L438.819 230.01L438.339 230.11L438.279 230.47L438.479 230.7L438.959 230.83L438.079 231.13L437.249 231.84L437.259 232.52L437.619 233.09L437.429 233.22L435.949 233.49L435.579 233.8L435.449 233.73L435.429 233.43L435.149 233.21L434.949 233.14L434.689 233.36L434.509 233.33L434.569 232.83L434.489 232.7L434.179 232.81L433.719 232.59L433.529 231.79L433.169 231.01L433.709 230.61L434.059 230.74L434.259 230.63L434.289 230.37L434.079 229.87L434.089 229.24L434.669 229.03L435.459 229.18L435.929 229.69L436.429 229.8L436.149 229.54L436.299 229.06L436.769 228.51L436.879 227.59L437.549 227.38L437.939 227.4L438.279 227.88L438.799 227.8L439.249 227.53L438.999 226.99L439.259 226.77ZM432.549 224.51L432.979 224.84L432.619 225.32L432.649 225.62L432.949 226.12L433.309 226.43L433.219 228.03L433.979 228.59L433.989 229.79L434.239 230.44L434.139 230.67L433.659 230.56L433.419 230.84L433.149 230.95L432.679 229.89L432.859 228.64L432.599 228.27L432.349 228.14L431.679 228.15L431.569 227.64L431.139 227.3L431.299 226.83L431.689 226.61L431.839 226.38L431.719 226.09L431.849 225.67L432.179 225.22L432.109 225.05L432.209 224.74L432.549 224.51ZM473.939 208.58L474.049 208.17L474.719 208.04L474.709 208.51L475.379 208.67L475.669 209.04L475.409 209.41L475.019 209.51L474.779 209.1L474.529 209.03L474.339 209.11L474.239 209.29L474.249 209.94L473.419 210.21L473.009 210.6L472.889 210.96L472.939 211.65L472.869 211.87L472.679 212.01L472.159 211.83L471.289 211.16L469.279 210.65L468.429 210.81L467.839 210.77L466.689 211.26L465.679 210.38L465.999 209.27L466.629 209.02L467.529 208.24L467.909 207.44L468.099 207.26L468.279 207.32L468.699 208.25L469.229 209.01L469.999 209.18L470.669 208.84L470.859 208.59L470.979 207.92L470.919 206.48L470.659 205.6L470.719 205.43L471.629 205.67L472.609 206.25L473.079 206.67L473.449 207.6L473.309 208.39L473.659 208.73L473.939 208.58ZM469.369 199.18L469.509 199.23L469.499 199.37L469.029 200.18L469.159 200.34L469.579 199.89L470.999 200.57L472.479 201.02L472.569 201.22L472.469 201.43L471.819 201.95L471.519 202.45L471.599 202.75L472.129 203.01L472.219 203.31L471.509 203.61L471.419 204.1L470.439 205.46V207.19L470.689 208.51L470.389 208.78L469.719 208.97L469.419 208.88L469.099 207.83L468.529 207.1L468.199 206.86L467.719 206.8L467.029 207.42L466.889 207.04L467.019 205.07L466.799 203.62L466.719 202.06L467.279 200.82L468.049 199.96L469.049 199.36L469.159 199.2L469.369 199.18ZM475.199 187.95L474.789 186.52L475.599 185.97L475.669 186.08L475.199 187.95ZM472.799 184.53L473.229 184.84L474.059 186.65L474.769 187.25L474.929 187.63L474.659 189.29L474.829 191.6L474.799 192.8L474.559 193.88L474.669 195.96L474.569 197.1L475.309 198.27L475.649 200.44L475.909 200.96L476.359 201.37L476.239 201.78L476.069 201.93L475.799 201.94L475.169 201.72L474.639 201.83L474.389 202.15L474.239 202.64L473.959 202.81L473.229 201.92L473.249 201.06L473.039 200.53L472.499 199.99L471.489 199.47L471.419 198.07L471.829 196.18L470.639 190.88L470.619 188.38L470.949 186.79L471.359 185.88L471.949 184.97L472.519 184.59L472.799 184.53ZM495.039 181.71L499.659 181.03L506.029 179.61L510.789 178.2L520.049 176.21L522.499 175.79L523.159 176L523.619 175.83L523.939 175.45L524.719 175.09L527.069 174.35L530.119 173.63L534.689 172.74L536.899 172.08L539.129 170.96L540.259 170.21L541.079 169.52L541.859 168.55L542.989 166.84L542.919 166.64L542.239 165.91L543.219 165.02L545.199 163.68L546.219 162.72L547.839 159.93L549.509 158.67L551.619 156.68L552.219 155.73L551.839 155.08L552.289 154.42L555.019 151.68L556.739 148.79L557.169 147.84L557.019 147.03L557.499 146.26L558.689 145.38L562.309 143.09L567.019 139.21L567.989 138.27L570.729 135.3L571.579 134.17L572.999 131.56L574.539 129.91L577.319 126.33L578.259 124.81L578.889 123.51L579.179 122.42L578.879 122.19L578.779 121.88L579.699 120.74L580.229 118.66L580.289 117.48L580.129 116.34L579.049 113.13L579.669 112.6L583.599 112.91L585.519 112.89L586.679 113.17L587.309 113.51L588.259 114.74L588.739 114.58L589.119 114.69L589.919 115.21L591.009 116.62L592.799 119.72L592.669 121.33L592.769 121.55L593.499 122.12L593.619 122.33L593.119 124.09L593.169 125.4L593.459 125.62L594.469 125.87L594.869 125.76L595.319 125.4L595.589 125.34L596.989 125.78L597.299 125.67L597.759 125.03L598.079 124.93L598.409 125.03L598.659 125.34L598.719 126.35L598.899 127.12L599.569 128.56L600.539 130.16L601.969 130.32L602.599 130.97L602.889 131.76L603.779 133.18L604.749 133.79L606.069 134.01L606.199 134.42L605.509 135.17L605.459 135.45L606.119 135.61L607.759 135.1L609.609 134.01L610.539 133.13L611.229 132.26L611.889 131.17L613.209 130.24L613.439 129.89L613.519 129.62L612.639 129.73L612.569 129.58L612.699 129.05L613.209 128.59L614.719 126.38L615.149 125.12L615.029 125.04L614.069 125.96L613.729 125.99L613.639 125.74L613.719 125.12L615.079 123.58L616.129 121.48L616.189 119.51L615.939 119.35L614.609 119.05L614.169 118.79L613.889 118.27L613.659 115.69L613.729 114.22L613.319 110.49L613.159 109.48L612.279 108.02L612.249 107.28L612.419 106.51L612.659 106.26L613.009 106.15L614.159 106.04L614.599 105.67L615.209 104.13L615.729 103.79L616.999 103.46L619.199 103.15L619.729 102.87L620.969 100.53L621.749 100.14L621.879 100.84L622.049 101.12L620.949 102.42L620.569 103.91V104.93L620.789 105.13L620.999 105.05L621.209 102.63L621.589 101.98L621.799 101.88L621.939 102.15L621.779 102.69L621.799 103.21L622.209 103.88L622.869 104.29L622.889 104.46L622.349 105.86L622.739 107.13L622.609 107.8L622.589 108.24L622.899 108.88L622.979 109.81L623.129 110.17L623.159 111.03L623.339 111.62L623.859 112.47L625.179 116.73L625.019 118.03L625.349 119.31L625.179 120.23L625.319 120.49L625.789 120.82H626.389L626.569 120.72L627.109 120.66L629.209 121.42L630.779 121.3L631.089 121.53L631.299 122.6L632.549 122.44L633.069 122.68L633.359 122.93L633.579 123.51L633.949 123.88L634.419 124L634.679 123.93L635.269 123.59L635.849 123.03L635.889 122.31L635.349 121.7L634.889 120.81L633.429 119.71L632.759 118.97L632.519 118.52L632.349 117.96L632.549 117.27L632.329 116.69V115.76L632.039 115.39L632.149 114.5L632.019 114.02L632.649 113.12L632.679 112.34L632.829 111.87L632.649 110.72L631.849 110.17L631.559 109.84L631.819 109.45L631.879 108.84L631.449 108.44L631.309 108.02L631.499 107.2L631.429 106.57L631.209 106.2L630.559 105.63L630.449 105.31L630.699 103.93L630.219 103.32L628.939 102.47L628.339 101.95L628.419 101.5L627.889 101.35L627.329 100.59L627.159 99.9299L626.889 99.8999L626.689 99.56L628.749 98.84L628.969 98.4299L628.859 97.4699L629.379 97.2499L630.089 97.21L630.399 97.35L630.499 97.53L630.989 98.9299L631.489 99.31L632.829 99.59L633.829 100.25L634.409 100.27L635.439 100.09L636.169 99.77L636.669 99.27L636.529 98.8899L636.519 98.3699L636.989 98.2499L638.129 97.0799L638.999 96.92L640.029 97.41L640.979 97.6L641.719 97.3899L643.379 96.45L645.419 96.2L645.859 96.31L646.139 96.59L646.269 96.95L646.399 97.84L646.349 98.34L646.829 99.4699L647.039 100.87L647.569 102.75L647.529 104.7L647.359 105.04L646.959 105.26L646.689 105.65L645.309 108.97L643.639 110.68L643.329 111.48L643.289 112L643.429 112.38L644.169 113.44L644.139 114.49L644.559 115.3L644.529 115.94L643.969 116.4L643.889 116.71L643.909 116.92L644.629 118.04L645.179 119.3L645.119 119.99L644.879 120.8L644.939 121.4L645.799 122.14L647.329 122.54L647.959 123.2L648.149 123.72L648.169 124.53L647.169 126.4L646.789 128.89L647.349 130.88L647.699 131.17L648.339 131.43L648.579 131.49L648.259 133.58L647.209 136.99L646.549 138.07L645.879 138.56L645.229 138.81L644.159 138.84L643.819 139L643.739 139.16L643.929 139.67L644.439 140.27L645.699 141.05L645.989 141.32L646.079 141.71L645.859 142.91L644.849 145.25L644.549 146.31L644.249 147.64L644.179 150.05L644.549 152.42L645.429 153.53L645.739 156.16L646.969 157.94L647.219 158.63L646.549 159.88L646.229 160.03L645.989 159.94L645.529 158.59L644.809 158.38L644.549 158.47L643.119 161.3L642.629 163.34L642.419 163.82L642.389 165.87L642.509 166.53L642.429 167.17L642.059 168.03L642.529 168.5L643.779 169.33L643.859 169.68L643.729 170.01L641.849 171.79L641.759 172.22L641.869 173L641.799 174.03L641.469 174.63L640.409 175.34L638.959 175.32L638.419 175.47L637.949 176L637.759 176.43L637.029 177.11L634.569 177.31L634.029 177.18L633.719 175.92L632.559 174.68L632.009 176.43L631.039 177.48L629.589 178.06L628.889 178.9L627.939 179.22L627.809 179.35L627.459 181.56L626.669 182.49L625.809 182.95L625.209 183.62L625.129 183.82L625.699 184.16L626.569 184.15L626.819 184.39L626.929 184.71L626.469 185.54L626.509 186.54L626.229 186.92L625.279 187.45L625.049 187.74L625.089 188.7L625.579 190.16L625.319 191.16L624.629 191.7L624.649 192.16L625.129 192.61L625.319 193.09L625.429 193.13L626.079 193.08L626.639 192.58L627.309 192.34L627.759 192.44L628.609 193.57L629.309 194.23L629.419 195.08L630.409 195.48L630.529 195.89L630.449 196.73L630.009 197.18L628.689 197.84L627.369 197.66L626.189 197.91L625.229 198.66L624.819 199.16L624.429 200.51L624.289 200.58L623.249 200.42L622.819 200.47L621.979 201.26L621.599 201.92L621.029 202.11L620.489 202.61L620.119 202.49L619.599 201.94L619.109 202.06L618.679 202.76L618.469 203.79L618.589 204.21L619.119 204.62L619.089 205.01L618.899 205.26L618.079 205.5L617.409 206.26L616.999 206.4L615.919 206.3L613.339 206.64L612.789 206.95L612.689 207.65L612.379 208.34L612.119 209.81L612.019 210.89L612.119 211.63L612.409 212.17L613.009 212.24L613.299 212.56L613.369 213.15L612.999 213.5L612.929 213.71L612.919 214.93L613.489 216.1L613.899 216.14L615.339 215.33L615.879 215.46L616.359 215.82L616.469 216.3L615.049 217.58L614.779 218.12L614.839 218.85L615.779 219.71L615.869 219.98L614.959 220.8L613.629 220.86L612.759 221.79L612.449 222.48L612.069 222.66L611.669 222.63L610.989 222.13L610.499 222.04L610.019 222.13L609.519 222.47L609.669 223.08L609.589 223.43L608.499 224.28L608.579 224.55L608.979 224.94L609.129 225.48L608.949 226.47L609.269 227.55L608.989 228.27L609.039 229.08L608.919 229.77L608.619 230.26L607.819 230.86L607.409 232L606.969 232.7L605.039 233.8L605.009 234.46L604.639 235.32L604.989 236.26L604.799 237.15L604.069 238.19L603.769 238.87L603.149 239.56L602.029 239.41L600.309 238.01L599.369 237.95L596.539 236.14L596.209 236.15L595.959 236.42L595.819 236.88L595.539 237.17L593.919 237.64L592.729 238.14L591.909 238.77L591.309 238.92L590.299 238.88L589.989 239L589.779 239.15L588.949 240.33L588.589 240.55L588.189 239.97L586.859 239.18L586.169 238.39L585.889 238.29L584.729 238.63L584.179 238.33L583.569 238.34L581.159 239.05L580.509 239.01L579.969 238.76L579.539 238.74L578.289 239.22L577.999 239.54L577.769 240.06L574.319 241.36L573.229 241.94L573.029 242.38L573.379 242.79L573.439 243.45L572.869 244.51L572.589 244.82L569.969 245.96L568.459 246.38L566.739 248.06L566.049 247.97L565.409 248.12L565.099 247.89V247.01L564.109 246.48L563.399 244.78L563.159 244.62L562.579 244.55L561.729 243.95L561.399 243.97L560.719 244.26L559.919 244.27L558.549 244.78L557.839 245.43L557.119 245.51L556.679 245.22L555.879 244.25L554.809 243.8L554.339 242.61L554.139 242.46L553.289 242.06L550.979 241.36L548.869 241.2L548.079 241.56L546.949 241.67L545.459 241.17L544.549 239.68L543.929 239.2H543.729L542.139 240L540.599 240.5L538.929 240.51L538.739 240.2L538.729 239.54L539.109 238.87L541.249 237.92L541.389 237.77L541.719 236.35L542.049 235.92L542.509 235.65L542.579 235.44L542.249 234.6L541.019 234.22L539.789 233.64L539.479 233.72L539.069 234.17L538.489 234.19L536.779 234.01L536.119 233.53L535.639 233.37L535.149 233.38L534.879 233.53L534.449 234.2L533.859 234.69L533.639 235.21L531.869 235.11L531.559 234.65L530.579 234.24L529.889 234.52L529.619 234.5L529.039 234.22L527.669 234.65L526.869 234.62L526.499 234.49L525.879 234.03L525.069 234.27L523.679 234.03L520.229 233.82L519.559 233.6L518.909 233.8L517.699 234.63L517.509 234.86L517.309 235.48L516.979 235.81L515.909 235.98L513.769 236.7L512.499 236.61L510.739 238.01L509.559 238.43L508.519 238.55L507.889 238.97L507.699 239.24L507.499 240.36L507.629 240.56L508.549 241.04L508.629 241.33L507.899 243.34L506.809 244.38L506.619 244.77L506.389 245.67L506.439 246.46L505.969 247.09L506.189 247.86L506.039 248.59L505.379 249.52L505.699 250.32L505.539 250.83L504.969 251.11L503.239 251.1L501.179 251.48L497.969 251.77L497.439 251.98L497.149 252.26L496.709 253.17L495.949 253.81L495.199 254.2L494.689 255.05L494.709 255.7L494.539 256.46L494.369 256.63L493.819 256.75L492.839 256.64L491.569 256.09L491.409 256.18L491.229 256.76H490.999L490.259 255.98L489.049 256.35L488.569 256.34L488.209 255.79L486.179 254.96L485.359 255.3L483.609 256.81L483.099 257.07L482.499 257.01L481.909 257.12L481.969 258.32L481.919 258.55L481.679 258.69L480.799 258.36L480.099 256.53L479.549 255.92L478.719 255.4L478.059 255.37L477.249 256.01L476.799 256.21L475.879 256.32L475.179 256.25L474.729 256.11L473.489 255.3L469.499 254.11L468.789 253.49L468.129 253.7L467.189 254.21L464.959 254.71L461.739 254.95L460.339 255.5L456.659 255.86L455.679 255.73L455.239 256.03L454.979 256.45L454.899 257.09L453.329 258.85L452.239 258.77L451.359 259L451.269 259.42L451.639 260.1L451.549 260.46L451.379 260.66L451.099 260.71L450.709 260.5L450.289 259.78L449.899 259.64L449.659 259.83L449.599 260.47L449.449 260.7L449.129 260.77L448.029 260.58L446.839 261.45L445.819 261.7L445.249 261.47L445.079 261.24L445.019 260.68L444.619 260.52L444.389 260.62L444.349 261.51L444.079 261.95L441.999 262.65L440.369 262.04L438.659 261.72L436.909 260.41L436.509 259.84L436.499 259.65L436.709 259.42L436.689 259.13L436.359 258.95L435.449 258.82L435.359 257.76L435.209 257.41L434.879 257.1L434.349 257.08L433.609 257.42L432.979 257.23L432.569 256.91L430.369 257.02L430.109 256.94L430.019 256.74L430.189 256.2L430.209 254.95L429.539 254.73L428.849 253.52L428.839 252.76L428.689 252.36L428.319 252.14L427.569 252.19L427.389 252.09L427.259 251.66L427.319 250.74L426.749 249.83L426.469 249.55L425.029 248.88L423.649 249.02L422.889 248.92L422.339 248.29L420.669 248.63L420.709 248.21L421.459 247.54L421.629 247.25L421.479 246.46L421.299 246.21L419.839 245.56L419.159 245.03L418.339 245.05L418.139 244.88L417.379 242.33L417.349 241.05L416.479 240.19L415.929 239.95L413.119 240.05L412.159 239.85L412.049 238.52L412.399 237.52L412.099 237.5L411.419 238.16L411.259 238.22L410.959 238.04L410.169 236.7L406.609 233.13L406.329 232.49L405.519 232.2L404.959 231.4L405.459 227.51L406.119 226.1V225.55L405.759 225.16L404.799 224.82L403.619 224.7L402.849 224.38L402.559 224L402.109 222.92L401.849 222.74L401.159 222.64L400.979 222.43L400.949 221.79L400.679 221.42L400.359 219.94L400.529 219.72L400.889 219.6L401.339 219.8L401.659 219.64L401.969 219.25L402.409 218.02L403.619 217.29L404.189 216.39L404.569 215.64L404.759 214.7L404.919 215.02L405.179 215.23L405.009 215.31L405.029 215.83L404.769 216.44L404.989 216.83L405.439 217.11L405.579 217.37L405.199 217.3L404.939 217.48L404.949 218.49L404.779 218.77L404.909 220.16L405.179 220.7L406.299 221.72L406.189 222.35L406.499 222.62L407.889 223.34L409.929 224.05L410.129 224.61L410.709 225.22L410.829 225.18L410.779 224.92L410.429 224.46L412.679 225.29L413.039 225.94L414.269 226.66L413.849 227.56L414.479 227.96L415.499 228.31L415.989 228.77L415.859 228.9L415.459 228.63L415.149 228.62L414.769 228.76L414.779 228.9L415.249 228.84L415.499 229.13L415.989 229.38L416.539 229.35L416.949 229.14L417.039 228.82L417.369 228.74L418.039 229.05L417.969 229.25L418.089 229.68L418.789 229.05L419.289 228.87L423.909 228.86L426.999 228.54L427.179 228.77L427.089 229.48L427.759 229.85L428.609 229.93L428.849 230.12L428.839 230.7L428.919 230.89L429.279 231.09L429.179 231.51L429.519 232.09L429.959 231.95L430.759 231.42L431.409 230.73L431.279 229.85L430.989 229.56L430.909 229.31L431.479 229.02L431.629 228.66L432.319 228.26L432.529 228.32L432.829 228.68L432.589 229.98L433.449 231.84L433.699 232.64L434.169 232.87L434.519 232.82V233.4L434.779 233.44L434.969 233.27L435.369 233.39L435.429 233.68L435.319 234.05L434.889 234.28L435.119 234.62L435.449 234.63L435.629 234.47L435.829 233.87L436.089 233.67L436.959 233.96L437.019 234.09L436.719 234.49L436.369 234.17L436.119 234.36L436.189 235.39L436.419 235.86L436.739 235.98L436.989 236.31L437.439 236.5L437.909 236.25L438.129 236.36L438.609 236.07L439.039 236.49L439.249 236.37L439.749 236.43L439.939 236.3L439.949 236.04L439.829 235.92L439.189 235.79L439.479 235.17L439.359 234.88L439.179 234.84L438.839 235.05L438.549 235.72L438.349 235.66L438.149 235.43L438.189 235.07L438.849 234.18H438.999L439.809 234.83L440.339 234.84L440.639 234.45L440.859 233.37L441.869 232.9L442.879 232.77L443.649 232.92L446.159 234.12L447.329 234.55L448.249 234.74L448.529 234.94L449.009 236.22L448.989 237.14L448.839 237.52L447.529 238.13L446.539 238.8L445.269 239.29L445.019 239.58L444.919 240.37L445.079 240.68L445.619 241.09L446.069 241.02L446.879 240.37L447.449 240.1L448.329 240.45L449.049 241.03L449.219 240.94L449.009 240.6L448.429 240.23L447.499 239.87L446.979 239.98L446.089 240.7L445.659 240.85L445.319 240.46L445.209 239.88L445.499 239.59L446.639 239.28L448.499 238.46L449.389 237.87L449.819 237L450.019 235.54L449.919 234.41L450.089 234.1L450.439 234.02L450.749 233.66L451.359 233.67L453.649 234.8L454.299 235.28L456.949 235.89L458.499 236.84L459.159 237.32L459.619 237.83L460.319 239.16L460.809 239.76L461.559 240.43L462.099 240.73L463.379 240.94L464.329 241.23L465.519 242.11L466.249 242.41L467.229 242L468.199 241.14L469.559 240.99L469.889 241.15L470.049 241.38L470.479 242.75L470.699 243.11L471.929 243.72L472.329 243.75L472.449 243.64V243.36L471.969 242.85L471.789 242.35L471.759 241.22L471.279 240.78L469.909 240.17L469.079 240.1L467.549 240.46L466.359 241.28L464.759 240.04L462.519 239.27L461.999 238.89L461.719 238.5L461.499 237.52L460.849 236.44L459.919 235.83L459.609 235.78L459.329 235.94L459.169 235.83L459.379 235.13L459.169 233.87L459.399 233.54L460.089 230.7L460.509 230.09L461.019 229.62L462.449 229.73L463.469 229.35L464.479 229.6L465.049 229.61L465.209 229.74L465.249 230.45L465.519 231.18L466.239 231.67L466.819 231.63L467.779 231.18L467.989 231.27L468.369 231.82L468.919 232.11L470.139 231.99L470.419 232.12L470.829 231.93L470.519 231.7L470.009 231.53L468.949 231.59L468.409 230.95L467.869 230.68H467.409L466.489 231.2L466.139 231.1L465.839 230.6L465.889 229.68L465.679 229.13L465.379 228.87L464.399 228.7L463.839 227.94L463.789 227.41L462.879 226.47L463.149 225.89L463.559 225.44L464.549 225.15L464.889 224.67L465.069 224.04L464.889 223.92L464.159 224.98L463.659 225.03L463.519 224.54L463.569 223.91L463.999 222.78L466.209 218.55L466.329 218.17L466.209 217.91L466.339 217.11L466.639 216.2L467.309 214.81L467.899 212.86L468.769 213.7L469.629 214.04L470.319 214.08L470.839 213.79L471.269 213.93L471.649 214.4L472.229 214.31L472.759 213.95L472.799 213.55L473.479 212.94L473.409 212.31L473.579 212.05L473.829 210.49H474.139L474.819 210.97L475.359 210.93L476.099 210.54L477.099 211.13L477.279 210.9L476.669 210.66L476.099 210.24H475.659L474.819 210.67L474.419 210.14L474.559 209.88L474.569 209.26L474.639 209.18L475.179 209.7L475.699 209.95L475.899 209.81L475.989 209.4L475.819 208.92L475.529 208.57L474.899 208.35L475.009 207.98L474.919 207.89L474.129 208.02L473.979 208.51H473.749L473.569 208.26L473.719 207.51L473.389 206.58L472.789 205.94L471.809 205.19L471.619 204.76L471.689 204.49L472.559 203.31L472.489 202.86L471.879 202.36L472.119 202.1L472.679 201.84L473.719 203.16L474.339 203.19L474.579 203.05L475.109 202.06L476.129 202.26L476.559 202.08L477.199 201.55L478.009 202.13L478.749 202.38L479.229 202.89L479.369 202.91L479.169 202.31L478.829 201.96L478.079 201.4L477.079 200.88L476.219 200.03L476.059 199.65L476.119 198.39L475.989 198.07L475.259 197.16L475.469 196.97L476.119 197L476.779 197.16L477.789 197.65L478.339 197.74L479.049 197.53L479.669 197.01L479.819 197.19L479.849 197.93L480.019 198.35L481.419 199.29L481.989 199.1L482.109 198.92L482.189 198.31L482.359 198.1L482.779 198.65L483.109 198.88L483.599 199.06L483.819 198.71L483.089 198.55L482.789 197.88L482.309 197.78L482.029 197.94L481.739 198.89L481.609 199.04L481.449 199.03L480.899 198.45L480.309 198.05L480.269 197.09L480.009 196.73L479.389 196.63L478.639 197.14L478.219 197.17L476.749 196.36L475.569 195.41L475.479 195.22L475.559 194.21L476.429 191.44L476.739 189.97L476.859 188.72L477.539 188.26L478.629 187.88L478.999 187.03L479.289 186.83L481.489 185.98L483.629 184.85L484.079 184.39L484.419 183.45L485.129 182.63H485.699L486.049 183.41L487.659 184.19L489.389 184.76L489.529 184.51L486.859 183.15L487.159 182.94L488.109 182.68L492.479 181.82L494.339 181.54L495.039 181.71Z" fill="#CCCCCC" stroke="white" stroke-width="0.5"/>
<path d="M85.3704 175.13L84.1804 175.44L82.1804 174.9L81.9704 173.76L81.7504 173.34L80.7904 172.48L80.1504 171.31V170.35L81.0004 169.29L81.4204 168.17L81.5304 167.94L81.5804 167.82L81.7004 167.75L81.8404 167.72L82.0904 167.75L82.3004 167.85L82.4304 167.94L82.6004 168.01L82.8104 168.05L82.9304 168.03L82.9504 167.88L83.0004 167.8L83.0804 167.72L83.1804 167.65L83.3504 167.6L83.5104 167.66L83.9504 167.91L84.2304 168.04L84.4204 168.01L84.5204 167.97L84.8604 167.7L85.0004 167.49L85.0704 167.41L85.1404 167.36L85.3004 167.29L85.4404 167.24L85.5204 167.21L85.6304 167.24L85.7004 167.37L85.6704 167.45L85.5804 167.52L85.5504 167.61L85.4904 167.7L85.4204 167.86L85.5004 167.99L85.6904 168.14L85.8604 168.3L86.0704 168.43L86.1704 168.56L86.3604 169.04L86.3904 169.28L86.3304 169.42L86.1704 169.45L85.9104 169.52L85.8004 169.59L85.7904 169.84L85.8304 170.05L85.8804 170.31L85.8004 170.69L85.6704 170.91L85.5904 171.05L85.6004 171.44L85.6604 171.77L85.7804 172.03L85.9404 172.18L86.1204 172.35L86.2504 172.6L86.2404 172.84L86.1104 173.08L86.0204 173.43L86.0104 173.59L86.1104 173.71V174.28L86.1004 174.46L85.9904 174.54L85.8504 174.58L85.7704 174.59L85.6504 174.64L85.5304 174.71L85.4604 174.79L85.4204 174.86L85.3904 175.01L85.3704 175.13Z" fill="#CCCCCC" stroke="white" stroke-width="0.5"/>
<path d="M625.4 87.2099L625.68 87.1399L625.83 87.2299L625.93 87.5199L625.51 87.6499L625.31 87.3199L625.01 87.1299L625.13 86.9999L625.4 87.2099ZM633.9 85.3899L633.83 85.5899L633.58 85.4499L633.21 85.4299L633.04 85.2599L633.42 84.8299L633.82 84.9099L633.9 85.3899ZM630.38 80.7399L630.6 80.9799L630.56 81.1299H630.37L630.12 81.6399L630.16 82.3899L630.4 82.6599L630.54 83.4899L631.09 84.0699L631.2 84.5399L631.47 84.8699L631.29 85.1599L630.9 85.3499L630.55 85.3999L630.25 85.2099L630.08 85.2899L630.18 85.4199L630.17 85.8499L630.6 86.0399L630.4 86.3699V86.6199L630.29 86.6599L630.09 86.3799L629.75 86.2999L629.66 86.1599L629.74 86.0799L629.35 85.3499L628.87 85.2699L628.75 85.1199L628.6 85.2699L628.12 85.3699L627.93 85.7799L627.73 85.9699L627.49 85.9299L627.25 86.3699L626.68 86.4199L626.66 86.1199L627.01 85.6099L627.11 85.2199L627.16 84.5199L627.81 83.2299L628.08 82.9499V82.7899L628.56 82.0599L629.64 80.8599L629.91 80.8699L630.33 80.6699L630.38 80.7399Z" fill="#CCCCCC" stroke="white" stroke-width="0.5"/>
<path d="M82.29 181.42L81.97 180.25L81.79 178.98L82.61 178.87L84.21 179.08L85.07 180.36L84.96 181.53L84.21 181.96L82.72 182.06L82.29 181.42Z" fill="#CCCCCC" stroke="white" stroke-width="0.5"/>
</svg>
