<svg width="918" height="794" viewBox="0 0 918 794" fill="none" xmlns="http://www.w3.org/2000/svg">
<path d="M525.288 329.74V333.72L513.648 335.32L509.118 340.89L503.948 341.69L502.658 340.1L503.308 336.12L505.898 333.73H511.068L517.538 329.75H525.288V329.74ZM430.888 239.85L434.118 245.42L437.348 247L438.638 251.78L441.878 254.17V262.13L446.398 262.93L450.928 267.69L451.578 274.06L441.878 280.43H429.588L426.348 284.41H423.768L422.478 286.79L423.768 289.97L414.718 296.34L410.838 301.91L392.088 312.24L390.148 315.43L390.798 321.79L394.678 330.54L397.918 332.93L429.598 328.94L440.588 325.76L442.528 323.38L452.878 320.19L457.408 317.01L459.988 319.4L459.338 322.58L462.578 327.35H467.098L467.748 324.96L473.568 321.78L478.088 327.35L484.558 326.55L489.088 329.73H491.678L493.618 326.55L494.908 328.15H500.728V331.33L496.198 335.31L501.368 340.88L496.198 348.83L498.778 350.43L499.428 355.19L497.488 357.58H491.668L487.788 354.4L483.908 355.19V358.38L487.788 359.96L486.498 365.53L482.618 370.3L480.028 378.25L474.858 379.85L473.568 383.83L469.038 386.21L468.398 392.58L473.568 393.38L479.388 390.19H483.268L484.558 387.01L488.438 386.21L490.378 383.83L500.728 381.44L502.668 377.46L507.198 379.06L506.548 381.44H514.308L514.958 379.06L518.838 381.44L520.128 378.26L525.308 379.86L526.598 379.06V372.69L530.478 371.11H538.888L540.178 368.72L544.698 367.93L545.998 360.77L553.118 355.2L558.938 353.62L564.108 349.64H576.388L577.038 353.62L567.988 352.82V359.97L563.468 367.93L564.758 376.68L558.938 385.43L556.348 395.76H558.288L559.578 390.19L563.458 384.63L565.398 383.04H570.568L575.738 376.68L578.328 375.88L582.208 366.34L585.448 365.54L587.388 367.93L592.568 367.13L601.628 374.28H610.028L612.618 379.05L616.488 381.43L614.548 386.2L619.728 389.39L622.318 397.34L628.138 395.75L626.198 394.17L626.848 387.01L632.018 386.21L635.898 394.17V406.89L638.488 407.68L639.778 403.71L642.368 402.92L643.668 410.07L647.548 414.84L670.828 419.61L671.468 417.22L681.818 412.45L687.628 416.43L697.328 418.82L698.628 420.4L697.978 425.97L704.448 428.36L705.738 431.54H710.908L714.138 433.92L712.358 441.23L705.278 445.58L702.088 451.67L707.398 453.41L709.168 471.26L706.338 475.18H691.468L683.678 485.19L671.998 485.63L665.628 480.84L659.258 478.66L653.948 479.1L652.178 485.19H650.408L640.498 474.31L627.758 473L620.328 477.79L621.388 493.46L619.968 504.34L617.848 508.69L606.878 510L596.608 506.08L594.488 506.95L586.348 517.39L585.998 527.83L583.518 528.27L569.358 516.09L543.158 518.26L539.618 520.44L526.518 543.5L526.168 549.59L528.648 552.2L530.068 558.73L537.508 567.87L535.388 587.88L539.288 596.15L539.638 609.63L544.238 615.72V618.77L530.078 631.38L524.418 634.42L519.818 635.29L514.158 631.38L503.888 631.82L501.058 641.82L496.458 648.34L493.978 658.78L483.358 670.52L483.008 677.48L480.758 680.29L473.008 679.49L469.778 676.32L462.018 677.12L452.318 669.17L449.078 662.82L439.378 660.43L432.258 651.69L418.038 642.17L413.508 631.84L409.628 628.67L408.338 623.9L405.758 621.51L399.288 620.73L394.758 617.54L396.048 615.96H394.108V614.37L398.638 609.6L383.118 608.8L370.188 600.06L368.248 593.71L362.428 588.94L355.958 580.2L358.538 564.31L352.068 544.44L344.958 539.67L339.138 530.93V525.37L343.018 521.4L343.668 516.63L338.498 508.69V503.13L352.078 506.31L367.598 505.51L366.948 502.33L363.068 501.53L361.128 496.76L362.418 495.17L361.768 491.99L355.948 488.81L355.298 484.84L350.128 484.04L348.188 473.7L350.128 459.4L352.718 456.21H359.178L363.698 457.01L369.518 464.96H372.108L372.758 462.58L374.698 463.38L373.408 457.81L374.698 449.07L364.998 449.87L363.058 442.71L363.708 440.33L377.288 441.13L378.578 438.74H374.058L372.768 435.56V430.79L377.298 428.41L376.008 425.22L365.658 426.81L361.128 422.04L362.418 420.45L361.128 418.87L355.308 416.48L343.018 414.9L339.138 406.15L340.428 398.2L346.888 394.23H356.588V385.48L361.108 382.29V375.93L368.868 371.16V368.77H364.348L361.768 366.39L363.058 360.02L359.828 354.46H363.708L364.358 352.07L355.958 348.09L354.668 344.11L355.958 341.73H359.838L361.128 337.74L358.538 333.76L357.248 325.81L340.438 325.01L334.618 328.99H327.498L319.748 325.01L316.508 318.65L320.388 314.67L321.678 307.5L324.918 301.14L329.438 297.16H336.558L343.018 285.22H346.258L346.898 286.82L349.488 286.02L350.778 280.46L336.558 275.69L338.498 265.34L342.378 264.54L341.728 268.52L339.788 270.12L342.368 273.3L354.008 271.72L361.768 275.7H365.648L367.588 273.31L372.118 272.51L381.168 276.49L379.228 272.51L380.518 270.13H388.278L392.798 274.11L394.738 260.58H401.858L403.798 261.38L405.088 266.16H410.898L413.488 258.99L423.838 259.79L424.488 258.21L418.028 255.02L417.378 247.07L420.618 243.89L429.018 247.07L428.368 241.5L430.888 239.85Z" fill="#CCCCCC" stroke="white" stroke-width="0.5"/>
<path d="M714.099 433.92L718.629 434.72L722.509 440.28L717.339 445.06L717.989 447.44L721.219 446.64L723.799 448.23L727.029 445.85L729.619 448.23L725.739 451.41V456.98H728.329L727.679 468.9L721.859 469.7V472.09L724.449 472.87V476.06L728.329 479.24H731.559L734.149 477.64V470.49L736.089 469.7L746.439 473.67L752.899 479.24L757.429 480.83L756.779 488.78L762.599 491.16L765.189 498.32L774.239 501.49L774.889 504.67L770.359 507.85H765.829L756.139 503.09L755.489 500.7L750.959 498.32H744.499L734.149 503.87L732.859 508.64L746.439 507.06L754.839 510.24L754.189 517.39L749.019 520.57L743.199 519.78L741.909 517.39L736.729 515.01H730.269L734.799 521.36H738.029L739.969 523.75V530.9L734.149 534.07V539.64L732.149 549.58L722.229 555.23L716.219 552.19L714.449 547.84L704.889 546.1L699.579 556.54L696.749 556.98L689.309 566.98L687.189 567.42L679.399 561.33L662.759 556.98H654.259L640.809 550.01L637.979 552.19L635.499 563.07L632.319 564.8L621.689 563.07L612.489 564.8L606.829 563.5L593.019 564.37L573.549 576.12L568.589 575.68L555.489 570.46L548.769 571.77L537.439 567.85L529.999 558.72L528.589 552.19L526.109 549.58L526.459 543.49L539.559 520.43L543.099 518.25L569.299 516.08L583.459 528.26L585.939 527.83L586.289 517.38L594.439 506.94L596.559 506.07L606.829 509.99L617.799 508.68L619.919 504.33L621.339 493.45L620.279 477.78L627.709 473L640.459 474.3L650.369 485.18H652.139L653.909 479.09L659.219 478.65L665.589 480.83L671.959 485.62L683.649 485.18L691.439 475.17H706.299L709.139 471.26L707.369 453.41L702.059 451.67L705.239 445.58L712.319 441.22L714.099 433.92Z" fill="#CCCCCC" stroke="white" stroke-width="0.5"/>
<path d="M837.611 725.52L838.001 717.01L833.041 711.36L830.561 703.1L818.531 690.49L805.071 685.71L803.301 679.19L801.181 678.32L800.121 671.8L787.731 654.4L777.461 633.96L763.651 628.75L755.161 622.22L748.431 623.09L737.811 628.31L735.331 631.79L730.381 632.23L727.541 621.35L719.401 619.61L715.151 613.96L706.661 610.91L701.351 606.13V603.52L706.301 601.35L696.391 592.21L697.811 587.43L707.011 573.94L715.151 568.72L723.301 567.85L728.611 561.76H732.501L734.271 560.02L736.751 553.06L732.151 549.58L734.151 539.64L738.671 538.84L742.551 533.29H745.781L747.731 530.1H750.321L752.901 525.33H755.491L757.431 522.15L763.241 521.36L767.771 516.59L774.891 518.18L781.351 513.41H785.231L782.651 530.1L780.061 532.49H774.241L772.301 534.07L767.771 539.64V542.81L763.241 545.2L758.721 556.32L754.841 559.51L749.021 561.09L745.141 567.46L739.321 569.04L741.261 573.81H745.141L749.021 569.83H750.961L752.901 565.06L762.601 563.48L767.771 560.3L771.661 562.69L773.591 568.25H775.531L777.481 575.4L778.121 570.63L770.361 550.77L778.771 553.15L784.581 561.89H787.171L784.581 551.56L781.351 548.38L782.651 546L788.461 553.15L800.751 556.32V554.74H797.521L792.341 546.8L795.581 542.03L800.101 541.23L793.631 534.87L794.291 531.69L792.341 526.13L794.291 524.54L800.101 527.72L802.041 532.49L803.991 530.1H809.161L813.691 533.29H816.921L820.801 537.26L827.261 536.46L830.491 538.84H834.371L847.951 553.95L857.651 556.32L863.481 565.86H866.711L869.941 569.04L870.591 575.4L878.351 576.2L886.101 580.96L900.331 599.23L904.211 600.82L908.091 610.36L915.201 615.92L914.561 618.3H907.441L904.861 620.69L897.091 619.1L893.221 623.86H885.461L882.871 626.24V628.63H885.461L886.101 627.04L895.161 626.24L895.801 623.86L900.971 623.07L908.741 627.83L911.971 632.6L917.141 633.4V634.98L909.381 640.54L905.501 646.9L900.331 647.69L894.511 651.66L895.161 653.25H890.631L887.401 656.42L886.751 661.19L889.991 664.38L892.571 665.96L904.211 666.75L902.921 672.32H900.971L900.331 674.69H897.741L896.451 681.05H898.391L900.331 685.02L905.501 687.4L908.741 692.17V695.34L900.971 699.32L895.161 690.58L886.751 688.99L882.871 692.96L885.461 699.32H879.641L877.701 702.49L878.991 708.06L887.401 710.43L888.041 712.02L883.521 719.17L884.161 723.93L888.041 728.7L887.401 735.04L885.461 735.84L884.811 742.2L879.641 741.4L884.811 745.37V748.54H880.281L881.581 756.48H876.411L874.461 753.31L873.821 746.16L869.291 740.6L870.591 730.28L867.351 727.9L858.301 703.29L854.421 699.32L842.141 696.14L841.491 698.52L844.071 706.46H846.661L845.371 710.43L847.951 716.79L844.071 723.93L837.611 725.52Z" fill="#CCCCCC" stroke="white" stroke-width="0.5"/>
<path d="M732.152 549.58L736.752 553.06L734.272 560.02L732.502 561.76H728.612L723.302 567.85L715.152 568.72L707.012 573.94L697.812 587.43L696.392 592.21L706.302 601.35L701.352 603.52V606.13L706.662 610.91L715.152 613.96L719.402 619.61L727.542 621.35L730.382 632.23L735.332 631.79L737.812 628.31L748.432 623.09L755.162 622.22L763.652 628.75L777.462 633.96L787.732 654.4L800.122 671.8L801.182 678.32L803.302 679.19L805.072 685.71L818.532 690.49L830.562 703.1L833.042 711.36L838.002 717.01L837.612 725.52L835.022 724.73L827.912 715.2L818.212 717.57H810.452L812.392 719.96L809.802 723.93H814.972L816.922 733.46L814.972 735.84L804.632 736.64L807.862 746.16L809.802 746.96V751.73H812.392L813.692 748.54L819.502 746.16L831.782 759.66L837.612 760.45L835.672 755.69L831.782 752.51L829.852 746.96H839.552L847.312 754.1L847.952 760.45L853.772 757.27H855.072V759.66L852.482 760.46L845.372 769.19L840.842 763.63L838.902 776.33L830.492 781.89V784.27L825.322 785.86L822.092 789.03H816.922L812.392 793L791.052 791.41L788.462 789.83L776.182 792.2L765.192 789.83L761.952 786.66L756.142 785.86L745.142 778.71H742.552L741.912 776.33H737.382L735.442 773.94L728.982 773.16L725.102 770.77L712.172 769.98L710.872 771.57H705.052L699.882 769.19L697.942 766.01L694.062 766.8L693.412 769.19L687.592 767.6L686.952 769.98H679.832V767.6H677.252L676.602 766.01L672.072 766.8V765.21H667.552L659.142 756.48L646.852 755.69L639.742 753.31L639.102 751.73L638.452 753.31L635.862 752.51V754.9L633.922 756.48H626.812L600.952 743.78H597.712L595.132 746.16L584.782 735.84L567.322 734.26L560.212 731.87H551.152L543.392 727.9L539.522 719.17V713.61L525.942 711.23L514.952 706.46L512.362 709.64L509.132 704.87L505.902 703.29L506.542 701.7L498.782 702.49L494.902 700.1L491.672 688.99L485.842 688.2L480.672 680.26L482.922 677.45L483.282 670.49L493.902 658.75L496.372 648.31L500.982 641.79L503.812 631.79L514.072 631.35L519.742 635.27L524.342 634.4L530.002 631.35L544.172 618.74V615.7L539.562 609.61L539.212 596.13L535.322 587.86L537.442 567.85L548.772 571.77L555.492 570.46L568.592 575.68L573.552 576.12L593.022 564.37L606.832 563.5L612.492 564.8L621.692 563.07L632.322 564.8L635.502 563.07L637.982 552.19L640.812 550.01L654.262 556.98H662.762L679.402 561.33L687.192 567.42L689.312 566.98L696.752 556.98L699.582 556.54L704.892 546.1L714.452 547.84L716.222 552.19L722.232 555.23L732.152 549.58Z" fill="#CCCCCC" stroke="white" stroke-width="0.5"/>
<path d="M322.25 193.68L326.13 197.67V200.85L328.07 201.65V206.43L323.55 201.65L317.08 203.23L312.55 198.45V195.27L322.25 193.68ZM365.58 178.57L368.81 182.55L367.52 186.53L372.05 192.1H379.16L391.44 205.63L393.38 210.41L389.5 215.97L388.86 219.95L381.1 219.16L370.11 221.54L369.46 223.14L364.93 222.34L363.64 223.94L354.59 222.34L352 223.94L353.94 224.73L353.29 226.33L338.42 225.53L333.24 227.92H328.07L334.54 219.17L340.36 215.19L341.01 212L340.36 208.82L336.48 210.42L334.54 208.82L333.89 204.84L330.01 203.24L326.78 195.28L328.72 192.1L324.2 188.12L326.14 182.55L334.55 184.15L337.13 180.17H341.66L343.6 185.73L345.54 180.17H349.42L353.95 183.35L358.47 184.15L360.41 188.13V179.37L365.58 178.57ZM127.62 1L131.5 4.18H137.97L143.79 6.56L155.43 5.76L156.72 7.36H163.19V10.55L160.6 11.35V13.75L163.84 16.13L176.77 17.73L178.06 23.3L176.13 27.29L176.77 30.47H180.66L182.6 24.09L183.89 24.89L184.54 23.29H191.66L194.89 26.48H198.77L209.12 37.63L209.77 44.01L213.01 47.99L221.41 50.37L222.7 55.15L230.45 57.55L232.39 61.53L238.85 60.73L245.97 47.99L252.44 47.19L254.38 51.17H256.96L259.55 59.13L262.14 61.53L267.95 62.32L275.07 71.88L280.24 71.08L288 66.31L300.29 67.9L302.23 71.88L303.53 87.02L308.06 88.61L308.71 94.99H312.59L315.82 91.81L324.88 94.99L330.05 104.55L354.62 129.23L358.5 136.4L359.79 145.16L354.62 149.93L344.28 151.53L339.76 157.11L328.76 157.91L322.94 165.07H311.95L308.72 161.89L303.55 161.09H297.73V162.69L292.56 163.48H288.03L284.15 160.3H281.57L278.98 163.48L273.81 161.9L272.51 166.68L277.68 167.47L257.64 182.6H251.82L249.88 181L246.65 182.6L246 186.58L241.47 188.18L227.9 187.38L225.96 192.16L209.79 188.98L203.97 194.54L190.4 199.32L185.23 204.1V206.49H183.29L176.82 198.52H168.42L162.6 187.38H148.38L145.14 184.99H129.63L127.05 182.61H118.64L116.06 179.43L112.18 180.23L108.3 178.63V177.03L99.9 178.63V180.23H96.02L94.73 182.61L88.26 179.43L88.91 177.04L83.74 178.64L79.86 172.27H77.27L75.98 168.29L67.58 159.53V152.37L59.82 145.21L52.06 146L54 144.42L48.18 141.23H37.19L34.6 144.42L31.37 143.62L25.55 145.22V143.62L23.61 144.42L15.21 138.84L11.98 139.64L7.45 134.06V129.28L14.57 121.32L13.28 117.34L14.57 110.18L11.33 100.62L11.98 98.23L15.86 97.43L16.51 94.25L14.57 91.87H11.99L10.7 83.11L19.1 74.35L19.75 70.37L17.16 58.42L8.75999 54.44H3.59L2.93999 52.85L1 30.55L3.59 21.79L10.71 23.38H23.64L25.58 21.79L36.57 22.59L41.74 18.61L45.62 11.43H53.38L61.78 7.45H70.83L81.83 5.07L85.06 8.25H89.58L92.82 1.87H96.7L103.17 5.85H108.99L110.93 1.08H117.4L119.34 2.67L127.62 1Z" fill="#CCCCCC" stroke="white" stroke-width="0.5"/>
</svg>
