<svg width="794" height="499" viewBox="0 0 794 499" fill="none" xmlns="http://www.w3.org/2000/svg">
<path d="M391.24 310.5L388.9 308.24L388.83 307.03L390.07 304.16L393.4 299.57L394.33 296.33L395.4 295.6L397.19 295.22L400.66 293.25L401.87 292.33L402.26 291.07L402.99 290.9L403.76 292.29L405.09 293.63L409.53 296.26L410.12 298.7L411.26 300.74L411.52 301.33L411.28 302.93L413.24 305.07L408.96 307.04L406.41 310.59L405.69 311.09L402.67 312.13L401.41 312.19L399.24 311.17L397.5 309.76L393.29 309.38L391.24 310.5Z" fill="#CCCCCC" stroke="white" stroke-width="0.5"/>
<path d="M107.2 138.56H106.55L105.79 138.68L105.92 139.12L105.1 139.53L104.42 139.54L103.67 140.4L103.38 139.66L103.57 138.88L106.65 135.12L107.27 134.97L107.33 135.94L106.53 136.7L106.51 137.22L107.2 138.56ZM79.85 126.57L80.41 127.02L81.16 129.88L80.91 130.9L81.29 133.32L80.61 134.22L80.65 136.31L80.03 136.12L79.49 136.45L78.84 136.14L78.24 134.72L77.66 134.54L76.66 135.14L76.29 134.99L76.36 134.21L79.09 131.18L79.24 130.5L78.66 128.89L79.17 127L79.85 126.57ZM137.99 118.01L138.81 118.19L141.49 120.46L140.95 120.93L140.35 119.97L138.66 119.02L137.99 118.01ZM146.45 116.51L146.79 117.15L146.52 118.17L145.36 118.21L145.01 116.65L146.45 116.51ZM3.59 103.44L2.95 104.76L3.1 105.79L4.41 106.99L4.64 109.89L3.97 111.97L3.22 112.2L2.66 110.73L2.87 109.81L2.31 109.44L2.24 107.84L1 106.6L1.35 105.6L1.06 104.64L1.8 104.02L2.6 104.06L3.59 103.44ZM121.37 93.15L121.35 93.63L122.45 93.15L122.47 93.47L123.4 93.73L124.67 95.37L125.44 95.76L126.5 97.97L125.91 98.83L126.03 100L127.87 100.83L130.77 100.65L131.11 100.95L130.94 105.28L131.56 106.99L132.76 107.36L132.42 109.26L129.46 107.17L127.74 104.75L125.18 102.93L124.22 101.05L122.85 100.79L122.61 99.7L120.57 97.23L120.41 96.37L121.18 94.5L120.97 93.52L121.37 93.15ZM99.82 80.62L100.46 81.43L100.01 81.57L99.67 81.21L99.82 80.62ZM89.9 7.57L89.05 8.08L88.58 7.68L87.24 7.69L86.64 9.74L86.17 10.22L86.12 11.56L84.31 13.99L85.71 15.98L85.09 17.81L85.38 18.95L84.96 21.62L85.2 22.6L84.6 23.58L85.56 24.53L86.48 24.66L90.3 27.42L89.83 29.16L90.75 33.16L89.63 34.62L88.89 37.03L88.81 40.56L87.96 43.72L88.26 44.37L88.01 46.59L88.63 48.8L90 50.06L89.48 50.72L89.46 51.37L92.3 53.21L92.89 56.74L92.81 61.95L94.53 65.99L94.55 68.2L94.2 69.5L94.41 70.32L93.89 72.27L94.26 72.6L93.61 74.76L94.61 76.82L95.23 77.2L96.96 81.2L98.19 81.81L98.49 82.71L99.45 82.86L100.09 83.75L100.07 85.57L100.52 86.51L101.34 86.83L101.78 87.55L102.95 87.67L103.29 86.81L105.1 87.59L106.31 89.13L106.62 89.07L107.58 90.25L108.52 90.73L109.2 91.86L110.82 92.69L112.91 95.03L114.43 95.86L114.54 96.47L115.98 97.16L117.96 99.63L119.4 100.8L119.7 101.68L118.97 102.53L118.98 103.01L121.06 105.56L121.85 107.2L121.27 108.36L121.72 110L121.39 110.25L122.2 111.94L123.02 112.04L123.55 111.34L123.14 110.96L123.56 110.34L124.04 110.61L124.51 110.25L124.92 111.05L125.52 110.93L125.48 111.34L125.93 111.46L126.05 113.55L126.44 114.5L127.54 114.47L128.85 113.43L129.93 114.05L131.36 118.56L132.13 119.38L132.72 122.91L135.3 124.37L137.74 123.78L138.22 124.14L138.29 124.87L139.1 124.72L139.21 125.32L138.85 125.8L139.1 126.46L138.51 129.06L140.48 131.86L140.01 133.89L140.63 135.34L140.24 136.58L141.17 137.15L141.44 138.14L141.14 140.63L140.5 138.92L139.63 138.66L107.94 138.55L108.17 138.02L107.82 137.53L107.77 136.21L108.63 137.42L109.42 136.03L107.81 135.62L107.46 133.9L108.98 130.91L108.56 129.95L107.68 130.48L107.17 129.99L108.45 127.08L109.1 123.92L107.83 121.73L106.27 121.1L106.2 119.07L105.76 118.64L103.56 118.54L103.57 117.73L103.12 117.21L101.58 116.35L101.7 115.76L101.24 114.59L100.36 114.12L99.8 112.25L99.34 112.18L99.11 111.58L98.15 110.85L97.18 110.78L97.01 111.11L96.49 110.02L95.81 109.58L95.58 109.88L95.04 107.16L94.4 106.11L93.34 105.64L92.7 105.98L91.9 105L91.65 103.65L90.49 103.1L90.37 102.73L89.92 102.76L86.49 98.55L83.58 97.05L80.52 96.65L78.97 94.14L76.56 92.96L75.8 92.93L73.8 91.01L72.61 91.26L70.61 89.09L69.72 88.99L67.84 87.43L68.09 84.91L67.76 83.41L66.62 81.79L65.05 81.21L65.67 77.64L65.13 76.44L65.15 72.25L63.69 69.7L61.63 68.46L61.82 67.06L61 66.29L60.77 66.69L61.27 67.63L60.77 67.98L60.31 67.28H59.78L60.36 68.62L60.05 68.72L58.99 66.67L59.56 61.35L58.93 57.8L58.4 56.75L57.8 56.67L56.36 55.41L55.83 55.42L53.53 52.4L51.98 52.6L51.73 52.14L52.47 46.86L51.09 44.15L49 41.95L47.15 38.81L45.86 37.85L45.18 37.93L45 36.93L43.73 36.01L43.46 35.29L43.05 35.37L42.93 34.79L43.95 34.27L43.51 33.37L43.98 32.13L42.81 30.52L42.48 30.66L41.63 29.66L42.08 29.56L43.68 30.45L44.73 29.49L44.92 26.91L44.52 26.3L43.26 26.03L42.69 25.26L41.54 25.06L41.13 23.23L40.65 22.83H39.42L38.19 21.65L38.07 18.63L37.26 15.8L36.79 15.05L34.69 14.34L34.21 13.78L32.07 7.88L32.11 6.54L92.3 1L90.72 3.83L90.05 4.02L90.55 5.81L90.2 6.05L89.9 7.57Z" fill="#CCCCCC" stroke="white" stroke-width="0.5"/>
<path d="M91.7702 398.27L93.2602 398.64L92.7802 399.06L91.4602 399.23L91.3402 398.5L91.7702 398.27ZM185.67 385.32L186.7 386.01L187.4 387.08L187.39 388.84L186.56 389.25L186.12 388.56L184.97 388.36L184.16 387.05L185.67 385.32ZM190.4 372.99L190.63 373.64L190.17 374.3L189.88 373.73L190.4 372.99ZM212.13 237.84L214.92 242.43L215.36 244.34L213.8 244.05L213.09 243L211.99 239.19L212.13 237.84ZM160.65 233.7L163.77 233.86L164.88 235.3L165.82 235.41L166.63 236.03L167.96 238.46L167.61 239.29L160.69 234.26L160.38 233.92L160.65 233.7ZM201.38 233.46L203.15 235.05L202.22 237.08L201.68 237.11L201.72 236.28L200.99 236.02L201.11 235.52L200.65 234.94L200.83 234.27L200.56 233.81L201.38 233.46ZM200.52 231.88L201.39 233.22L200.8 233.55L200.18 233.19L200.08 232.41L200.52 231.88ZM192.74 217.8L193.66 219.25L195.64 219.79L196.06 220.39L196.12 221.93L197.09 224.09L196.62 224.18L193.98 222.14L193.3 220.12L192.41 219.22L192.74 217.8ZM157.07 213.22L157.28 214.6L156.18 218L156.29 221.08L155.53 221.76L156.19 223.09L155.86 224.23L155.23 224.3L154.92 224.83L155.08 225.55L156.22 226.82L156.06 227.11L156.99 227.93L157.43 229.27L156.76 230.37L157.68 231.15L158.93 232.96L158.86 233.34L157.8 232.8L157.75 232.14L155.97 230.24L156.16 229.71L156.73 229.79L156.95 229.25L156.83 228.18L156.03 227.2L154.7 226.51L153.48 226.88L152.78 226.43L152.74 225.85L153.15 225.77L155.1 220.6L157.07 213.22ZM193.14 212.09L192.69 213.29L192.17 213.53L192.02 212.79L193.14 212.09ZM157.91 207.16L157.75 211.58L157.38 212.95L156.88 212.6L157.91 207.16ZM157.97 201.96L158.13 204.04L157.96 206.55L157.68 206.56L157.97 201.96ZM191.03 201.04L191.34 204.34L190.63 203.9L190.23 202.5L191.03 201.04ZM184.49 201L185.03 202.25L184.7 202.76L184.29 202.56L183.88 201.15L184.49 201ZM183.83 191.22L183.33 192.24L183.73 193.91L182.53 193.17L180.82 195.84V196.76L180.26 197.31V197.99L179.66 198.04L179.53 197.28L179.93 196.83L180.11 195.15L181.16 193.41L180.97 191.95L181.95 191.7L182.13 191.27L182.77 191.67L183.83 191.22ZM178.64 189.33L178.82 190.12L178.37 190.17L178.2 189.63L178.64 189.33ZM129.55 172.8L130.89 173.12L131.64 174.69L130.68 174.06L128.71 173.58L128.59 173.3L129.55 172.8ZM158.11 158.03L159.17 159.03L158.83 160.25L158.21 160.09L157.71 158.68L158.11 158.03ZM163.18 152.52L163.6 152.57L163.88 153.19L162.95 153.23L162.77 152.77L163.18 152.52ZM79.8402 140.12L81.2102 140.87L81.1102 141.4L79.7402 140.38L79.8402 140.12ZM106.55 138.56H107.2L107.61 138.97L107.9 138.56L139.6 138.66L140.47 138.92L141.11 140.63L141.04 141.13L142.33 142.16L142.73 144.12L143.81 145.41L144.23 145.37L145.46 147.07L148.24 147.93L148.78 148.55L149.72 148.7L151.33 149.81L152.04 150.77L152.74 154.5L154.38 156.31L155.35 158.52L154.94 159.28L157.54 161.38L160.08 162.03L160.55 162.6L161.48 162.59L161.63 163.32L161.06 163.35L160.17 164.39L159.94 165.97L161.62 168.39L162.52 168.85L162.56 169.31L163.48 169.97L163.81 171.34L163.11 171.89L162.64 173.18L163.81 173.91L164.1 175.08L165.18 175.74L165.87 177.43L166.87 178.18L168.42 176.8L164.97 173.22L164.74 170.31L164.06 168.67L164.8 168.2L166.65 169.6L167.32 170.69L168.67 171.62L169.14 172.37L171.3 173.74L171.11 177.25L171.46 177.81L174.18 178.66L173.58 180.29L173.62 181.53L174.77 183.41L175.48 183.72L175.7 184.22L175.77 185.36L175.42 186.02L177.4 191.18L176.82 192.12L176.92 193.47L176.4 194.19L176.51 195.18L176.96 195.76L177.04 197.68L177.67 198.35L177.71 199.4L179.51 200.87L179.73 200.7L180.53 203.81L182.37 206.21L184.93 206.52L184.71 208.13L185.88 211.27L186.73 212.12L187.03 213.17L186.73 213.34L187.11 214.87L187.73 215.68L187.69 216.68L188.37 217.22L188.81 218.48L189.67 218.96L190.18 219.86L190.65 219.73L191.41 220.35L191.66 221.65L193.27 223.86L193.94 225.94L193.77 227.13L193.03 228.9L192.16 229.83L191.94 232.92L192.16 233.96L193.21 235.35L193.34 238.23L194.4 239.47L195.09 241.04L196.63 242.39L200.97 243.34L202.18 243.22L202.24 243.5L200.96 244L200.17 243.35L199.75 243.6L199.96 245.06L201.64 244.93L201.63 244.15L202.84 243.12L202.9 242.14L201.99 239.94L202.27 238.87L202.98 238.42L204.54 238.63V239.41L205.6 240.03L206.02 241.15L208.17 242.14L210.23 243.72L210.94 246.95L212.14 247.25L214.74 246.37L214.78 246.95L215.31 247.44L214.61 248.3L214.68 250.33L217.92 253.49L217.64 255.46L217.95 257.15L218.34 257.62L223.72 260.25L223.41 261.06L224.84 263.13L224.62 263.82L225.04 264.25L224.53 268.64L223.94 269.9L222.07 272.21L221.03 272.93L218.83 273.47L217.62 274.29L217.6 275.04L215.53 276.18L215 277.22L214.06 277.96L213.13 278L212.49 278.67H211.34L208.92 276.66L207.75 273.89L206.29 266.79L203.79 262.22L201.96 259.78L195.77 256.5L184.13 244.97L173.33 238.43L173.45 238.17L172.29 236.93L170.74 236.72L170.8 236.24L170.16 236.17L169.14 233.2L169.42 233.09L168.95 232.51L167.96 232.21L167.86 233.35L165.45 233.15L165.39 233.9L164.79 233.89L164.94 232.41L164.21 230.4L162.02 227.99L162.29 227.74L161.73 227.24L161.05 227.51L161.18 227.95L159.72 227.71L157.71 226.74L157.4 226.05L157.94 226.02L158.05 225.26L157.43 224.86L157.26 224.08L157.91 223.11L157.64 222.95L158.03 222.23L157.59 222.1L157.83 221.65L157.41 221.17L156.84 222.09L157.13 222.85L156.74 223.34L156.79 225.87H156.06L155.58 224.72L156.35 223.17L155.7 221.78L156.51 221.33L157.25 219.66L157.27 218.7L156.41 218.82L156.57 216.93L157.44 214.92L157.71 213.15L158.42 213.03L158.48 210.58L157.98 210.47L158.04 209.3L158.62 208.86L158.23 208.53L158.02 207.46L158.32 206.46L158.62 206.41L158.75 204L158.62 202.72L157.82 201.65L157.48 198.77L155.45 193.41L154.51 192.17L152.58 191.11L151.71 188.26L150.07 186.32L148.49 185.92L148.3 186.58L147.85 186.71L144.66 184.38L143.97 184.12L143.3 184.4L142.51 183.21L140.53 181.81L140.54 181.37L139.91 181.34L136.32 178.38L137.29 178.47L138.56 179.41L138.69 179.17L137.63 178.4L136.55 178.08L135.86 178.3L133.59 176.32L133.78 176.13L133.38 175.63L133.76 175.02L132.03 172.95L131.09 170.97L130.73 172.02L129.22 171.32L129.53 171L130.04 171.16L131.59 169.6L132.01 168.31L131.19 165.5L130.59 166.15L130.21 169.37L129.65 169.86L128.95 169.63L128.57 170.38L128.63 172.21L128.18 172.26L126.04 170.93L124.53 170.67L124.74 170.14L125.28 170.53L125.35 170.15L124.82 169.95L123.38 170.17L122.58 171.06L122.19 172.25L121.56 172.53L121.55 173.11L120.84 173.51L120.02 173.25L119.22 172.73L118.52 171.32L116.92 170.92L115.31 167.23L113.5 165.89L111.29 165.32L110.84 165.48L110.66 166.03L110.22 166.06L108.94 164.72L107.84 162.73L106.76 161.93L105.54 161.35L103.52 161.05L102.77 161.71L100.34 160.16L99.8302 160.57L99.3502 160.31L99.4102 159.51L98.7902 159.12L98.2602 159.23L98.0202 158.86L98.0002 155.34L97.5202 153.77L95.1702 151.86L91.8402 150.65L90.6902 148.4L89.0202 147.15L88.9502 146.13L88.2702 145.67L87.6502 146.62L86.8802 146.27L86.5702 145.36L85.5402 144.83L84.9802 145.1L83.9002 142.29L83.1102 141.51L83.9102 141.1L84.9702 142.01L87.3002 141.79L88.8202 142.02L89.1802 142.52L90.5502 142.34L92.1702 142.64L92.6302 143.13L94.2102 143.46L96.9802 143.23L97.5702 143.58L100.01 142.26L100.61 142.61L101.37 142.46L101.52 141.86L100.89 141.82L101.99 140.62L102.85 140.91L102.33 143.39L103.09 144.65L104.59 145.85L105.86 146.22L107.21 147.42L107.16 147.84L107.96 148.1L108.98 147.03L109.04 146.15L111.14 146.87L112.7 149.83L113.59 149.97L114.18 148.8L112.61 147.18L112.73 146.13L113.4 146.78L113.55 146.37L112.98 145.92L113.25 145.31L112.79 143.57L113.02 142.67L111.27 141.23L110.24 143.12L110.43 144.26L107.25 145.47L105.61 144.23L105.85 143.69L106.45 144.19L105.71 142.21L106.88 140.47L106.34 139.99L106.55 138.56Z" fill="#CCCCCC" stroke="white" stroke-width="0.5"/>
<path d="M672.68 387.64L673.18 388.43L672.5 389.04L671.96 389.26L670.9 388.69L670.52 389.02L670.91 389.35L669.25 390.69L668.71 390.02L668.42 390.6L666.3 391.46L665.21 391.56L664.67 390.99L664.94 390.67L667.36 390.28L672.68 387.64ZM701.38 334.18L701.22 341.48L705.34 341.99L706.31 344L706.76 344.18L707.87 343.83L708.81 344.82L709.29 344.73L709.69 343.72L710.48 342.99L710.9 343.27L711.93 345.03L711.82 345.94L712.39 346.98L714.22 348.15L716.2 352.61L720.06 354.71L721.23 357.2L724.4 360.78L725.19 364.22L725.63 364.68L726.97 366.49L732.27 370.74L735.68 375.41L735.5 381.26L734.33 381.92L733.92 382.59L734.14 385.11L733.34 390.24L733.51 391.51L734.5 392.75L734.65 393.46L734.14 394.83L734.96 395.29L734.39 396.96L734.86 398.34L735.14 403.04L734.57 404.3L732.13 407.13L732.38 409.59L732.36 412.92L686.42 412.91L686.44 411.27L682.46 409.69L681.78 410.11L681.01 409.21L679.45 408.55L677.81 407L674.16 406.2L671.37 406.33L671.07 407.63L671.41 409.45L671.11 410.17L669.43 410.28L668.14 410.92L665.93 409.8L664.43 409.95L663.12 409.29L662.25 407.86L658.78 405.53L657.56 403.7L656.48 401.11L656.03 400.79L656.21 398.82L655.1 397.4L654.74 397.24L654.66 397.66L654.13 397.79L653.44 396.73L652.45 396.68L651.01 395.68L650.38 394.77L649.24 391.05L652.37 390.49L662.2 389.88L663.08 391.29L664.57 392.09L663.97 393.27L663.7 392.88L663.39 393.22L662.43 391.94L661.7 392.79L661.02 392.37L660.78 392.55L660.95 393.27L660.5 393.84L661.09 394.58L662.24 394.33L661.79 393.21L662.58 393.25L662.86 393.71L663.43 393.57L664.53 394.29L664.69 394.85L671.48 396.52L672.91 396.39L673.07 395.69L673.8 394.99L678.25 393.46L679.07 390.54L679.7 390.22L680.05 388.9L679.82 388.2L678.72 387.2L677.8 387.92L676.65 387.31L676.36 386.33L676.97 385.86L676.9 385.07L677.87 384.03L677.1 384.22L676.4 385.55L675.64 386.27L675.12 386.22L674.3 386.98L674.18 387.54L673.55 387.57V387.33L676.05 384.76L682.86 381.1L687.65 377.65L692.51 373.12L692.98 372.19L692.9 371.17L693.42 369.17L693.21 367L693.88 365.2L693.37 364.64L693.33 364L694.26 362.86L694.45 361.83L698.3 358.97L699.71 356.49L698.73 353.78L699.03 352.41L698.62 351.13L699 350.84L698.61 346.36L698.91 345.58L698.46 342.18L699.8 338.62L700.24 335.6L701.38 334.18Z" fill="#CCCCCC" stroke="white" stroke-width="0.5"/>
<path d="M608.169 458.71L608.349 458.07L608.289 457.66L608.689 457.67L609.449 458.82L608.169 458.71ZM607.799 454.7L607.789 453.92L607.669 451.8L608.189 450.35L606.939 447.42L607.019 446.57L609.209 440.29L612.149 437.67L612.949 434.18L613.709 433.16L613.689 431.16L614.029 430.22L614.969 429.09L616.919 428.23L620.639 425.34L623.169 422.17L623.229 420.56L624.619 418.69L625.819 417.9L626.409 416.74L627.159 409.66L628.819 409.38L629.359 408.77L631.499 409.62L632.889 411.31L633.659 411.66L636.449 411.57L636.099 413.26L634.679 415.38L634.539 415.96L634.919 416.89L636.989 419.07L636.689 420.94L637.049 421.27L638.299 421.21L638.739 420.86L639.279 421.06L640.489 423L640.529 423.66L641.189 424.53L641.999 424.84L643.909 424L646.329 421.75L652.159 417.48L652.729 416.65L656.019 415.46L656.409 414.68L655.999 412.93L656.119 412.56L656.549 412.64L656.509 412.2L658.279 412.68L660.229 412.65L660.939 410.81L662.389 411.18L662.269 411.77L662.829 412.07L663.419 411.63L664.609 411.81L665.819 411.53L666.879 412.89L666.929 414.9L669.489 416.16L670.759 419.46L670.009 422.12L674.349 423.32L674.539 424.15L675.849 424.52L676.949 426.31L676.189 426.59L675.659 427.62L675.009 427.68L675.579 428.66L676.339 428.62L677.319 429.74L678.149 429.39L679.079 429.7L679.059 430.53L679.589 431.27L680.219 431.53L680.549 432.49L681.669 433.65L682.719 433.88L683.019 434.91L684.399 436.28L684.509 436.92L685.849 437.32L686.379 437.94L686.649 437.65L687.749 438.09L687.989 438.94H689.019L689.899 439.66L691.029 439.58L691.069 440.13L693.209 441.38L694.589 443.56L694.939 446.78L695.759 446.68L695.869 447.23L695.199 447.46L695.429 447.86L696.189 447.52L696.549 448.03L697.429 447.72L697.999 448.35L698.569 448.07L699.099 448.73L698.949 449.22H700.659L701.039 449.81L701.159 450.39L700.799 450.74L701.139 451.27L700.809 452.15L700.269 452.19L700.089 452.83L700.449 453.18L699.679 454.8L700.479 455.86L699.809 456.3L700.369 456.59L700.349 457L699.709 456.95L699.979 458.31L667.839 458.04L655.589 479.11L659.459 484.11L658.459 485.71L657.609 485.62L657.259 486.34L657.389 488.83L656.339 490.21L657.259 494.5L656.529 495.67L656.149 497.21L655.289 497.92L650.829 493.86L639.839 482.28L639.739 481.43L638.939 481.24L627.779 470.72L622.339 466.43L616.259 462.21L612.439 460.37L612.719 459.97L613.469 459.91L613.759 460.52L614.389 460.25L614.529 459.77L613.409 457.93L608.749 456.92L608.019 456.01L607.799 454.7Z" fill="#CCCCCC" stroke="white" stroke-width="0.5"/>
<path d="M375.96 108.19L373.7 112.35L373.72 112.7L375.43 113.31L375.44 114.35L374.78 115.33L373.94 115.01L373.24 115.35L371.51 119.36L370.1 120.47L368.46 121.08L366.19 124.86L365.63 125.96L366.5 127.38L365.56 128.76L362.9 135.57L362.3 135.95L360.53 135.24L360.52 136.79L361.64 136.97L362.13 138.43L361.79 138.91L359.89 139.29L360.65 140.73L360.59 141.56L360.02 142.38L360.74 143.16L360.88 143.88L359.79 145.04L360.6 149.56L361.73 150.06L361.97 150.89L362.06 151.95L361.58 153.09L362.26 156.77L362.48 161.59L363.02 162.27L364.85 163.06L364.44 164.6L363.29 164.64L362.22 165.64L360.3 166.55L360.74 167.35L360.64 168.66L362.79 170.56L363.87 172.39L362.77 172.63L361.62 171.77L361.11 172.45L360.83 172.28L361.27 171.56L360.48 171.44L357.27 172.49L355.76 171.92L354.88 172.73L353.45 172.45L352.77 171.45L351.34 171.21L349.96 170.32L349.23 170.64L348.92 171.38L349.4 172.04L350.94 172.16L350.87 173.16L348.37 173.55L347.22 175.07L345.71 175.61L343.82 178.69L344.06 180.03L343.81 180.8L343.37 181.04L341.66 180.84L339.92 181.75L338.94 181.54L337.22 180.35L335.27 178.46L332.73 178.7L331.51 178.37L330.77 177.69L330.23 177.65L330.22 178.73L328.62 179.43L328.1 180.01L327.53 180.1L327.12 179.56L325.44 180.52L325.21 179.92L323.65 179.45L322.38 179.7L321.28 177.81L319.64 178.1L318.88 177.01H317.9L316.32 175.65L314.38 175.42L314.1 174.84L312.84 174.13L311.88 172.19L310.82 171.96L308.91 170.73L307.64 170.67L306.97 169.78L306.2 170.32L305.99 171.61L304.23 172.18L304.28 174.02L303.65 174.49L302.75 177.88L302.78 179.48L301.88 181.01L302.03 181.47L303.15 181.97L303.12 183.04L302.79 183.62L300.81 184.49L299.95 185.36V186.72L298.95 186.56L298.54 186.92L298.9 189.06L297.98 189.32L296.26 193.31L297.23 194.87L297.84 196.77L295.72 200.19L292.19 202.91L290.96 204.52L290.32 204.24L289.65 203.03L287.64 202.7L287.12 201.84L285.52 202.06L284.44 201.4L284.13 200.08L281.82 200.86L281.5 201.51L279.36 198.72L278.77 195.49L275.88 190.6L273.52 189.91L270.33 189.6L266.52 188.47L265.3 183.79L262.19 178.77L262.12 176.89L260.7 175.97L260.38 174.88L260.87 172.88L260.38 172.06L260.78 169.79L259.72 167.46L258.5 167.71L257.89 167.47L257.77 164.57L257.09 164.19L252.2 164.41L250.44 164.02L248.42 164.64L244.88 162.8L244.9 162.34L245.63 161.92L245.15 158.48L246.4 155.34L246.36 153.62L244.73 149.55L243.76 148.12L243.13 146.03L240.32 144.33L239.8 143.68L240.5 141.23L240.12 139.57L238.03 136.59L236.21 135.85L235.82 135.16L236.41 132.4L234.85 131.33L234.66 130.72L235.7 129.33L238.23 128.84L239.68 127.99L240.45 128.13L242.22 129.44L242.72 129.41L244.13 128.36L245.27 128.24L246.24 127.02L247.17 126.93L247.77 125.74L245.52 124.88L243.97 123.07L244.39 120.17L243.56 118.22L243.75 117.18L245.23 114.56L244.43 111.91L245.27 110.63L244.81 108.08L246.3 106.82L246.4 104.13L247.78 103.46L248.07 102.95L247.81 97.28L247.97 96.38L248.77 95.43L248.78 92.83L248.12 86.61L247.37 85.65L246.8 85.63L246.46 84.63L247.05 79.7L248.32 77.13V76.02L246.87 74.69L246.71 73.7L247.56 73.18L247.84 71.36L245.9 65.21L245.96 64.02L244.86 62.56L244.75 61.75L245.42 60.14L244.38 59.21L244.29 56.79L241.56 54.14L241.6 53.53L243.17 53.45L243.15 51.64L243.64 50.37L243.4 48.77L241.76 45.93L241.24 44.01L242.18 42.73L241.13 41.69L255.23 41.65V28.49H297.28L298.28 29.56L299.87 29.43L300.88 29.99L301.75 31.02L303.5 35.05L304.26 35.46L305.39 37.83L308.59 39.79L310.4 39.97L311.65 40.77L312.24 42.25L312.81 42.24L313.18 42.9H313.7L315.88 45.56L316.13 46.4L317.41 46.85L317.82 47.42L319.32 48.01L320.48 49.01L321.69 51.72L322.89 52.3L323.25 53.06L325.12 54.24L325.67 55.14L325.5 55.61L326.48 55.77L327.94 56.78L328.22 56.41L329.13 57.28L330.02 57.03L330.23 57.65L330.63 57.42L331.19 58.08L331.61 58.09L331.5 58.53L332.7 58.72L333.5 60.07L334.35 60.6L335.26 60.46L335.83 61.19L336.08 62.49L337.23 62.92L338.08 63.94L338.84 66.06L338.86 67.52L339.32 68.27L339.13 69.12L340.24 69.85L340.02 70.18L341.54 71.77L341.46 72.3L342.82 73.4L343.28 74.99L343.12 76.49L343.4 77.49L342.91 79.56L343.27 79.77L343.23 80.85L343.66 81.58L343.35 81.99L343.62 83.06L344.7 83.99L345.84 85.9L347.15 89.81L350.6 92.55L351 93.38L352.13 94L352.66 93.67L354.63 94.67L354.75 95.11L355.32 95.29L355.2 95.92L356.42 97.64L357.86 98.2L359.25 99.51L361.22 100.41L364.23 100.83L365.61 101.47L366.01 101.31L366.23 102.59L366.63 102.3L367.63 103.69L369.1 104L369.36 104.39L371.7 104.37L373.81 106.46L373.7 106.94L374.3 106.87L374.79 107.62L375.96 108.19Z" fill="#CCCCCC" stroke="white" stroke-width="0.5"/>
<path d="M464.619 143.84L464.359 144.45L463.269 145.24L462.319 145.3L460.399 146.6L454.879 145.68L451.209 145.94L450.079 146.57L449.529 148.91L447.839 151.51L447.549 152.3L447.709 154.59L447.079 155.08L444.849 154.96L442.749 155.88L441.559 155.5L440.369 156.54L438.539 159.52L438.789 162.86L441.609 164.93L442.199 164.88L442.899 161.76L443.529 161.83L445.579 163.31L445.999 168.44L445.159 170.68L444.109 171.45L442.969 173.64L439.769 173.6L437.159 175.3L433.649 175.58L432.779 176.48L431.739 179.21L429.319 181.63L429.339 182.93L433.879 187.71L436.579 189.73L437.629 192.84L439.049 193.99L439.909 194.07L440.289 194.71L439.299 197.61L439.539 200.08L440.379 201.86L441.489 202L442.329 202.66L444.459 202.74L444.809 203.1L445.369 206.51L446.189 207.36L449.469 209.24L448.959 210.29L452.559 210.92L453.059 211.72L453.939 212.04L454.329 212.99L453.579 213.88L453.429 215.03L453.089 215.23L451.149 215.2L447.739 214.32L446.429 212.79L444.689 212.62L443.749 212.93L444.039 213.74L442.249 214.31L440.549 217.53L441.439 220.46L441.529 222.62L441.329 223.01L438.919 223.07L438.759 223.44L439.049 224.27L438.729 225.47L440.109 227.02L440.219 228.41L440.869 229.64L439.869 232.9L437.749 232.43L436.999 232.75L436.819 233.53L435.379 233.9L433.289 233.09L431.919 231.79L429.999 228.03L428.749 227.21L425.789 226.84L423.519 227.35L422.599 228.23L419.769 228.21L419.149 224.65L417.989 224.33L416.519 224.74L414.359 221.67L412.399 220.01L409.899 219.04L407.359 217.33L397.959 216.72L392.559 217.79L391.929 218.32L391.909 219.95L388.859 221.98L388.279 222.99L387.769 225.13L388.269 226.85L387.989 227.37L387.299 227.58L385.199 226.23L382.419 226.07L378.999 224.48L377.699 223.28L377.079 222.42L376.539 219.3L374.109 217.37L373.509 215.63L371.739 213.51L371.109 210.36L372.469 209L374.729 208.55L373.929 207.32L372.589 207.06L371.919 206.24L372.009 205.38L373.409 203.23L374.469 202.42L375.669 199.31L374.469 194.84L374.289 192.85L374.699 190.57L373.019 186.62L372.849 185.23L373.289 182.3L371.909 178.33L369.609 176.2L368.789 174.99L367.569 173.81L364.589 173.02L363.869 172.39L362.789 170.56L360.639 168.66L360.739 167.35L360.299 166.55L362.219 165.64L363.289 164.64L364.439 164.6L364.849 163.06L363.019 162.27L362.479 161.59L362.259 156.77L361.579 153.09L362.059 151.95L361.969 150.89L361.729 150.06L360.599 149.56L359.789 145.04L360.879 143.88L360.739 143.16L360.019 142.38L360.589 141.56L360.649 140.73L359.889 139.29L361.789 138.91L362.129 138.43L361.639 136.97L360.519 136.79L360.529 135.24L362.299 135.95L362.899 135.57L365.559 128.76L366.499 127.38L365.629 125.96L366.189 124.86L368.459 121.08L370.099 120.47L371.509 119.36L373.239 115.35L373.939 115.01L374.779 115.33L375.439 114.35L375.429 113.31L373.719 112.7L373.699 112.35L375.959 108.19L376.649 108.26L376.919 107.63L377.339 107.71L377.079 108.28L378.439 108.99L378.539 109.5L378.979 109.05L379.319 109.45L380.929 109.34L381.779 109.72L382.669 109.36L383.179 107.11L383.449 107.31L383.739 106.25L384.559 106.14L385.649 104.42L385.669 103.83L386.289 103.58L386.659 103.87L387.649 103.4L387.819 102.69L388.449 102.91L388.909 102.56L388.709 101.91L387.909 101.46L388.339 100.65L388.509 98.89L389.539 98.67L389.459 98.34L390.169 97.43L389.789 97.18L389.839 96.28L390.539 95.03L390.409 93.98L391.149 93.38L391.469 91.83L392.009 91.96L392.079 90.72L393.259 89.62L393.139 89.2L393.829 87.64L394.939 87.87L396.319 87.28L396.949 87.6L397.809 87.01L397.729 86.51L400.409 87.03L401.109 86.39L401.519 84.77L402.599 83.78L403.999 84.1L404.009 84.49L406.139 84.84L407.749 86.26L409.149 86.43L409.649 86.29L409.669 85.96L410.699 85.83L412.279 86.06L412.549 86.46L412.999 86.07L415.049 85.75L415.519 86.04L415.459 86.58L416.239 86.33L417.919 87.08L418.349 86.89L418.719 87.21L419.129 86.92L419.409 87.32L421.319 86.76L421.399 86.2L422.009 85.7L422.199 87.19L424.179 86.35L424.379 87.4L425.439 86.87L425.669 87.08L425.259 87.39L425.639 88.41L426.189 88.81L426.519 90.23L427.719 90.02L428.099 90.61L427.819 92.14L428.429 92.58L428.659 91.25L428.969 90.9L429.429 91.04L429.579 92.66L429.089 93.73L429.389 94.07L431.299 94.25L431.859 95.3L434.069 95.79L435.369 98.31L437.009 99.06L438.439 100.09L438.739 100.89L440.709 101.9L441.469 103.58L441.229 104L443.609 105.79L444.009 106.67L444.359 110.41L444.819 111.63L445.559 111.7L446.219 113.71L446.899 113.82L447.239 114.43L447.339 115.75L447.949 116.35L448.139 118.48L449.449 119.12L449.469 119.93L450.719 120.7L450.349 121.82L450.989 122.67L452.229 123.04L452.109 123.45L451.459 123.62L452.149 124.56L451.919 125.93L453.419 128.33L453.379 129.41L454.349 130.53L455.109 130.62L455.409 131.72L458.549 133.09L459.429 134.89L460.239 135.35L460.429 136.37L461.249 137.56L462.159 137.68L462.139 138.77L463.139 139.78L462.959 140.8L463.669 141.86V142.92L464.339 143.03L464.619 143.84Z" fill="#CCCCCC" stroke="white" stroke-width="0.5"/>
<path d="M373.28 382.92L370.81 385.16L369.79 384.85L369.41 385.13L369.44 386.92L367.58 388.1L366.9 389.8L361.39 385.44L356.21 382.67L352.19 381.31L352.33 380.47L352.79 380.42L352.94 379.8L352.49 379.28L351.39 378.68L349.55 379.62L349.3 378.99L347.55 378.25L343.02 377.04L343.35 376.6L343.97 377.01L344.15 376.75L343.56 376.53L345.48 376.58L346.96 374.79L348.1 375.27L348.66 375.16L349.14 374.32L350.01 373.74L350.56 374.14L354.33 373.26L355.6 373.64L356.73 373.35L359.83 371.03L363.08 371.35L364.49 371.14L367.71 369.46L370.22 367.05L370.83 367.18L371.31 370.07L371.15 371.09L372.12 371.92L372.33 372.7L373.4 373.18L372.9 374.98L372.97 378.1L372.41 379.42L373.23 380.96L373.28 382.92Z" fill="#CCCCCC" stroke="white" stroke-width="0.5"/>
<path d="M489.1 379.95L488.15 379.93L485.8 380.68L484.89 379.88L484.26 380L482.96 381.09L481.63 379.92L480.3 380.16L477.67 375.78L477.58 374.8L480.75 372.05L481.3 370.07L483.54 367.61L483.87 367.97L483.82 369.03L485.39 370.95L485.87 372.5L488.01 374.29L488.33 375.77L488.8 375.39L489.03 375.88L489.38 377.46L488.91 379.13L489.1 379.95Z" fill="#CCCCCC" stroke="white" stroke-width="0.5"/>
<path d="M281.5 201.51L281.82 200.86L284.13 200.08L284.44 201.4L285.52 202.06L287.12 201.84L287.64 202.7L289.65 203.03L290.32 204.24L290.96 204.52L292.19 202.91L295.72 200.19L297.84 196.77L297.23 194.87L296.26 193.31L297.98 189.32L298.9 189.06L298.54 186.92L298.95 186.56L299.95 186.72V185.36L300.81 184.49L302.79 183.62L303.12 183.04L303.15 181.97L302.03 181.47L301.88 181.01L302.78 179.48L302.75 177.88L303.65 174.49L304.28 174.02L304.23 172.18L305.99 171.61L306.2 170.32L306.97 169.78L307.64 170.67L308.91 170.73L310.82 171.96L311.88 172.19L312.84 174.13L314.1 174.84L314.38 175.42L316.32 175.65L317.9 177.01H318.88L319.64 178.1L321.28 177.81L322.38 179.7L323.65 179.45L325.21 179.92L325.44 180.52L327.12 179.56L327.53 180.1L328.1 180.01L328.62 179.43L330.22 178.73L330.23 177.65L330.77 177.69L331.51 178.37L332.73 178.7L335.27 178.46L337.22 180.35L338.94 181.54L339.92 181.75L341.66 180.84L343.37 181.04L343.81 180.8L344.06 180.03L343.82 178.69L345.71 175.61L347.22 175.07L348.37 173.55L350.87 173.16L350.94 172.16L349.4 172.04L348.92 171.38L349.23 170.64L349.96 170.32L351.34 171.21L352.77 171.45L353.45 172.45L354.88 172.73L355.76 171.92L357.27 172.49L360.48 171.44L361.27 171.56L360.83 172.28L361.11 172.45L361.62 171.77L362.77 172.63L363.87 172.39L364.59 173.02L367.57 173.81L368.79 174.99L369.61 176.2L371.91 178.33L373.29 182.3L372.85 185.23L373.02 186.62L374.7 190.57L374.29 192.85L374.47 194.84L375.67 199.31L374.47 202.42L373.41 203.23L372.01 205.38L371.92 206.24L372.59 207.06L373.93 207.32L374.73 208.55L372.47 209L371.11 210.36L371.74 213.51L373.51 215.63L374.11 217.37L376.54 219.3L377.08 222.42L377.7 223.28L379 224.48L382.42 226.07L385.2 226.23L387.3 227.58L387.99 227.37L388.27 226.85L387.77 225.13L388.28 222.99L388.86 221.98L391.91 219.95L392.26 220.47L392.3 222.12L393.05 222.46L393.41 223.56L394.94 224.27L395.74 225.21L394.93 230.11L396.14 230.56L397.16 234.56L396.19 235.08L396.17 235.49L396.67 235.86L396.55 236.54L390.48 237.12L388.8 236.89L388.04 237.8L385.38 236.93L384.38 236.23L383.26 236.13L381.01 236.93L378.78 236.23L374.88 235.96L373.17 237.33L372.7 238.67L370.3 240.49L368.23 243.32L365.97 245.46L363.57 246.18L363.34 247.5L364.12 248.01L364.49 249.66L364.18 251.34L364.55 253.23L364.1 254.43L364.99 258.7L362.19 261.12L359.87 264.01L359.78 265.89L358.49 271.66L357.88 272.03L356.51 274.76L356.43 276.04L357.28 279.13L357.12 284.68L356.87 285.31L353.66 286.73L352.65 288.24L351.49 291.29L348.55 292.59L348.15 293.97L347.67 294L345.85 292.89L344.9 290.82L342.41 288.43L340.7 288L339.31 286.24L337.96 288.8L337.15 289.65L336.46 289.62L334.26 285.04L335.95 283.28L337.65 282.41L338.25 281.52L338.13 280.28L336.98 280.31L336.46 279.94L335.88 277.48L333.79 277.32L332.46 276.72L330.93 274.97L330.39 274.94L329.48 276.25L327.8 276.6L325.6 273.96L323.48 271.78L322.88 271.72L322.03 272.32L319.99 272.17L319.38 270.89L319.25 268.63L318.03 267.29L317.29 265.55L317.56 264.62L316.51 261.7L316.07 258.89L314.35 257.24L313.45 255.26L312.37 254.05L311.74 251.1L311.03 250.04L310.24 247.45L310.5 246.55L309.47 245.62L309.38 243.42L307.64 241.15L307.5 240.08L306.42 239.82L305.53 238.44L304.08 237.48L300.04 236.31L299.37 237.35L296.58 239.47L295.25 239.66L294.56 240.21L293.86 239.72L293.02 239.9L292.43 237.94L291.45 236.53L290.64 232.41L290.44 232.16L289.87 232.58L289.3 232.38L288.09 227.91L286.77 227.6L285.88 224.99L283.58 224.77L283.05 225.21L281.85 224.25L282.18 222.81L280.98 220.43L280.23 219.78L279.75 217.96L278.74 217.35L279.25 215.39L279.34 210.27L280.67 207.06L280.59 206.38L280.12 206.46L279.52 205.74L281.25 203.52L282.44 202.75L282.29 202.02L281.56 202.18L281.5 201.51Z" fill="#CCCCCC" stroke="white" stroke-width="0.5"/>
<path d="M466.161 315.13L466.661 315.62L466.551 317.68L465.401 319.59L467.881 320.2L467.841 321.37L467.131 322.81L465.681 323.48L465.121 324.51L464.021 324.68L462.291 322.93L460.771 323.49L458.521 326.83L458.621 328.28L457.951 329.88L457.131 329.4L456.911 330.5L456.251 330.9L453.531 330.52L452.031 331.23L447.451 331.51L446.731 332.92L446.081 336.72L446.221 337.48L447.181 338.19L447.831 339.93L447.821 342.64L448.911 344.5L450.931 345.91L451.651 347.58L451.221 348.67L451.821 349.85L451.921 351.17L451.411 352.92L452.081 352.97L452.001 353.96L450.821 355.11L448.761 355.39L448.031 356.18L447.551 357.58L446.931 357.76L447.261 356.26L446.761 356.02L444.821 356.5L443.441 357.52L440.001 357.35L437.421 356.44L436.121 356.3L435.511 356.59L435.251 356.49L435.461 356.02L435.001 353.68L432.791 354.28L431.401 353.84L430.741 354.42L431.071 355.24L429.851 355.76L428.051 355.02L425.511 354.78L425.041 354.28L425.021 351.04L424.571 349.31L425.611 349.83L426.241 349.56L424.901 347.76L423.811 347.01L422.381 347.25L421.751 346.86L419.651 347.55L417.641 350.35L416.731 350.05L414.521 350.19L414.041 349.76L412.861 350.46L412.051 350.37L411.611 349.92L410.931 347.07L411.291 346.67L410.721 346.18L410.171 346.25L409.841 345.71L408.981 345.66L409.361 342.89L411.151 339.46L409.581 336.59L407.931 336.16L407.381 334.85L409.391 332.89L409.511 332.06L411.321 330.56L413.231 326.61L415.721 324.7L416.841 321.99L416.731 321.34L417.251 320.6L418.721 320.51L419.151 320.14L419.821 318.77L419.011 318.3L419.591 316.11L418.891 315.99L420.411 310.46L420.291 309.76L421.491 308.4L420.751 307.57L421.971 306.28L422.941 306.91L423.751 305.97L424.911 306.64L427.821 306.95L429.081 307.68L433.711 308.74L434.941 309.49L436.011 309.45L440.981 313.17L443.721 314.6L446.471 314.57L447.991 313.96L447.841 312.84L448.461 311.01L449.541 310.28L453.431 311.56L456.581 313.56L456.851 314.25L457.331 314.16L459.031 316.29L460.841 316.12L461.231 315.58L461.911 316.42L463.521 316.46L466.161 315.13Z" fill="#CCCCCC" stroke="white" stroke-width="0.5"/>
<path d="M450.191 380.25L450.491 383.19L449.441 385.11L448.701 389.34L449.071 390.94L450.821 391.7L450.921 392.89L450.671 393.61L449.011 395.42L449.661 396.08L450.991 395.81L452.501 396.14L452.721 397.22L454.291 399.18L454.331 398.75L454.951 398.78L455.291 398.39L455.481 398.76L457.461 396.58L459.931 396L459.241 394.62L459.591 394.02L460.611 393.53L461.401 393.96L464.911 393.73L465.201 393.15L466.081 392.73L466.931 393.02L467.371 391.46L469.131 391.14L468.771 389.42L469.581 389.37L470.491 390.45L472.471 391.12L473.291 390.63L474.101 390.76L474.611 391.6L473.961 392.72L474.401 393.07L475.481 392.84L476.601 393.3L478.621 395.97L484.131 396.67L486.431 399L486.381 400.23L487.731 401.41L489.071 402.03L490.291 404.28L493.281 404.08L493.501 404.88L492.671 405.85L496.881 407.63L497.001 408.7L498.401 408.4L498.871 408.67L499.731 407.81L501.281 407.67L502.891 409.65L504.501 410.45L502.761 414.4L502.591 415.81L505.321 421.87L505.921 426.45L505.001 427.28L504.821 429.34L505.381 429.86L507.681 430.64L508.131 431.81L508.021 433.72L508.291 434.31L509.451 434.56L509.871 435.1L510.231 436.66L509.311 439.54L508.401 440.46L507.181 440.69L506.251 441.36L506.071 442.71L501.961 446.3L501.501 448.32L496.861 451.86L493.301 448.25L491.371 445.74L489.681 445.9L489.351 446.46L488.071 446.27L477.451 443.07L474.341 442.42L470.341 442.38L468.711 441.85L466.631 440.76L464.821 439.28L463.831 439.02L464.451 438.38L464.221 437.94L463.241 437.98L463.431 438.41L462.861 438.66L461.751 436.93L460.871 436.49L434.281 427.01L434.411 426.43L433.901 425.79L431.411 424.04L430.651 423.06L424.411 420.43L424.641 419.59L423.731 418.51L422.921 417.94L420.741 417.66L420.641 417.12L419.591 416.74L418.831 414.85L416.971 413.52L415.601 411.17L411.791 409.05L409.591 408.37L408.221 408.55L407.481 409.37L406.951 409.05L406.131 407.79L406.241 403.86L407.001 403.23L409.641 402.41L410.501 402.66L411.961 402.02L412.721 401.25L414.341 401.62L415.161 401.34L415.341 401.02L413.501 401.05L413.831 400.15L413.721 398.92L413.071 397.51L413.651 396.41L413.021 395.18L413.151 394.84L413.791 394.81L413.321 394.02L414.001 393.63L414.621 393.77L414.411 393.31L414.971 393.2L415.501 394.02L415.981 393.25L415.651 392.84L416.711 392.51L416.771 393.56L417.371 393.18L417.661 393.56L417.811 392.89L418.481 392.65L419.611 392.68L420.821 394.58L422.821 395.49L426.281 394.98L426.491 394.52L428.521 394.06L430.241 394.1L430.711 394.59L432.741 395.06L434.311 394.87L435.441 395.15L436.621 396.81L436.701 397.63L437.341 397.76L438.761 396.66L439.381 397.23L440.821 397.46L441.221 398.25L442.711 399.1L443.051 398.68L443.451 398.98L443.721 400.04L444.531 400.01L445.301 399L442.471 395.21L442.171 392.07L440.951 387.83L441.421 386.8L442.521 385.95L442.941 385.99L443.511 387.56L445.951 384.64L446.881 384.11L447.971 381.66L450.191 380.25ZM454.831 399L454.901 399.32L455.281 398.98L454.831 399Z" fill="#CCCCCC" stroke="white" stroke-width="0.5"/>
<path d="M497.341 317.9L498.181 318.07L498.481 318.82L498.181 321.48L500.011 323.19L501.271 323.85L502.581 323.92L503.441 323.02L505.471 323.64L508.001 327.06L506.141 329.52L505.511 331.73L506.071 332.79L505.811 333.42L504.361 333.65L503.021 332.26H502.561L500.171 334.42L499.851 335.28L499.201 335.82L498.871 339.48L498.291 340.78L498.041 342.86L499.211 345.45L500.091 346.53L500.591 346.31L501.921 344.76L504.401 343.6L506.281 341.37L507.881 340.64L510.021 338.31L510.851 337.96L512.311 338.91L512.381 341.91L509.521 344.43L508.611 345.81L504.991 347.66L505.691 349.07L507.811 348.59L508.271 350.78L507.461 355.58L505.921 358.66L506.621 363.39L504.241 362.89L503.421 364.36L501.971 365.57L499.881 365.85L498.881 365.62L493.871 367.33L493.671 365.92L495.511 361.77L495.341 360.03L489.531 360.64L487.811 363.22L487.571 363.43L486.921 363.11L486.941 362.21L486.071 360.44L486.271 359.92L487.181 359.39L488.031 359.31L489.141 355.03L488.671 353.69L488.071 353.62L485.341 355.01L481.461 356.08L480.931 359.83L480.241 360.59L478.111 359.58L477.941 361.82L476.731 362.81L476.831 360.32L476.431 358.98L475.741 358.33L475.401 357.08L474.181 355.82L474.881 354.83L473.371 351.7L472.731 351.45L472.601 350.87L467.951 350.18L465.321 348.69L464.141 347.3L465.151 340.76L466.731 340.27L467.641 339.59L470.571 338.87L472.891 337.26L472.261 335.24L473.411 332.68L474.571 332.26L475.381 331.06L475.851 328.85L476.681 327.29L476.411 326.18L478.061 324.75L479.271 325.46L483.381 324.17L484.661 321.04L486.921 320.29L488.061 322.69L489.401 323.79L490.481 323.75L491.831 321.37L492.751 322.68L494.081 319.72L495.661 317.88L497.341 317.9Z" fill="#CCCCCC" stroke="white" stroke-width="0.5"/>
<path d="M391.24 310.5L393.29 309.38L397.5 309.76L399.24 311.17L401.41 312.19L402.67 312.13L405.69 311.09L406.41 310.59L408.96 307.04L413.24 305.07L411.28 302.93L411.52 301.33L411.26 300.74L414.8 301.65L416.93 302.79L419.6 305.14L421.69 305.89L421.97 306.28L420.75 307.57L421.49 308.4L420.29 309.76L420.41 310.46L418.89 315.99L419.59 316.11L419.01 318.3L419.82 318.77L419.15 320.14L418.72 320.51L417.25 320.6L416.73 321.34L416.84 321.99L415.72 324.7L413.23 326.61L411.32 330.56L409.51 332.06L409.39 332.89L407.38 334.85L407.93 336.16L409.58 336.59L411.15 339.46L409.36 342.89L408.98 345.66L406.18 345.67L404.04 346.71L402.33 346.54L401 347L399.32 346.87L398.25 347.21L396.19 348.85L395.13 348.77L394.12 349.82L393.18 350.15L392.9 351.58L389.93 352.31L389.7 353.12L389.26 353.16L388.21 351.86L385.74 351.41L385.44 352.56L384.51 352.36L384.15 352.63L384.13 354.98L383.24 356.49L383.74 357.33L384.24 357.38L384.69 356.82L386.96 357.1L390.17 358.04L390.83 358.68L391.44 360.89L391.11 361.7L390.18 362.44L392.09 366.64L391.46 369.23L394.82 369.16L395.43 369.84L395.49 371.4L393.13 373.9L392.28 376.21L389.97 375.63L388.6 376.35L384.58 379.93L382.38 381.14L380.79 382.88L380.5 382.97L379.24 381.21L378.71 381.11L376.49 382.81L374.94 382.51L373.28 382.92L373.23 380.96L372.41 379.42L372.97 378.1L372.9 374.98L373.4 373.18L372.33 372.7L372.12 371.92L371.15 371.09L371.31 370.07L370.83 367.18L370.22 367.05L367.71 369.46L364.49 371.14L363.08 371.35L359.83 371.03L356.73 373.35L355.6 373.64L354.33 373.26L350.56 374.14L350.01 373.74L349.14 374.32L348.66 375.16L348.1 375.27L346.96 374.79L345.48 376.58L343.56 376.53L343 376L342.37 376.09L342.29 375.58L341.63 375.84L341.14 375.54L340.29 375.67L340.3 375.03L340.81 374.48L340.68 374.02L339.79 373.73L339.56 374.16L338.63 374.35L336.63 373.28L334.74 371.56L335.1 370.84L334.73 370.11L333.89 369.64L333.98 368.79L333.53 368.57L333.31 367.08L332.55 366.34L331.71 366.31L331.75 365.95L328.92 363.84L328.66 363.11L327.23 361.6L326.83 360.49L322.91 355.16L321.79 352.84L322 350.63L321.66 349.41L320.98 349.17L320.85 348.57L318.61 346.23L318.15 344.58L319.2 344.07L320.15 342.94L327.56 341.78L329.06 340.68L329.72 339.07L329.41 338.1L328.13 337.04L332.58 331.42L333.75 330.97L336.08 331.44L339.27 329L340.52 328.79L342.02 329.52L343.23 330.95L346.31 331.73L348.97 334.74L350.05 335.3L352.35 337.42L353.02 338.2L353.52 339.75L354.03 340.07L354.06 338.61L352.88 337.15L353.17 336.8L352.44 336.05L352.07 334.52L352.52 333.88L353.34 333.7L354.84 325.19L358.88 324.96L359.83 324.56L360.8 323.59L362.51 323.31L364.76 322.03L365.16 321.21L365.56 316.99L365.32 315.51L363.93 314.27L362.19 309.98L357.69 309.38L356.84 307.77L356.73 305.05L356.2 304.57L355.09 304.48L353.89 303.32L352.24 303.84L351.78 300.82L353.02 295.93L352.84 295.45L353.92 294.24L355.27 294.58L355.63 291.55L358.73 290.38L359.26 290.75L358.21 293.99L358.48 294.48L360.28 293.34L361.31 292.16L361.15 290.73L359.41 286.89L359.52 286.1L361.68 284.57L364.34 284.19L366.15 285.2L365.98 286.11L364.88 286.93L363.43 288.8L361.74 293.02L361.7 296.34L362.91 298.12L364.07 298.29L364.45 297.13V290.09L365.08 289.52L368.51 288.85L369.93 289.36L371.33 290.68L371.93 292.61L371.89 293.77L368.11 299.94L368.02 300.39L368.6 301.05L370.53 301.07L371.22 300.27L372.49 300.47L373.2 300.99L374.1 300.55L375.03 298.82L377.42 296.93L376.18 295.9L376.49 294.03L378.37 293.3L380.54 293.47L380.95 294.33L380.19 295.84L380.69 296.28L382.84 296.42L383.35 296.8L382.65 300.27L381.46 303.18L380.72 303.87L379.46 304.07L376.18 305.75L374.41 307.48L371.49 309.55L371.67 311.34L371.34 313.81L369.72 315.69L367.93 316.15L368.78 318.63L369.71 319.17L370.73 318.68L371.4 318.82L371.74 319.4L371.64 320.42L370.47 321.54L366.43 323.35L366.6 323.85L369.1 324.47L369.85 325.28L370.6 326.98L371.54 327.47L373.8 327.28L376.7 328.89L377.69 328.41L378.57 328.48L378.79 327.92L380.13 327.66L381.84 328.09L381.95 327.72L383.42 327.2L383.75 325.18L384.38 324.64L385.75 324.15L387.27 324.65L390.85 321.74L393.14 320.34L394.1 319.03L394.58 316.34L391.8 314.56L391.15 312.71L391.24 310.5Z" fill="#CCCCCC" stroke="white" stroke-width="0.5"/>
<path d="M455.28 398.98L454.9 399.32L454.83 399L455.28 398.98ZM464.14 347.3L465.31 348.7L467.95 350.19L472.59 350.88L472.72 351.46L473.36 351.72L474.87 354.84L474.17 355.84L475.39 357.09L475.73 358.34L476.42 358.99L476.82 360.33L476.72 362.82L477.93 361.82L478.1 359.58L480.23 360.59L480.92 359.82L481.45 356.07L485.33 354.99L488.06 353.61L488.65 353.67L489.12 355.01L488.01 359.29L487.16 359.37L486.25 359.89L486.04 360.41L486.91 362.19L486.9 363.08L487.54 363.4L487.78 363.2L489.5 360.62L495.32 360.01L495.49 361.75L493.65 365.9L493.84 367.32L494.81 369.14L495.57 368.9L496.09 369.5L496.48 371.32L495.92 371.93L495.88 373.02L496.92 376.65L497.04 381.05L496.15 381.23L493.54 383.29L490.99 382.35L490.06 380.76L489.08 379.93L488.89 379.1L489.36 377.43L489.01 375.85L488.78 375.35L488.31 375.73L488 374.25L485.86 372.45L485.38 370.91L483.81 368.99L483.86 367.93L483.53 367.57L481.29 370.03L480.73 372.01L477.56 374.76L477.66 375.74L480.28 380.12L476.33 386.42L475.88 387.85L474.32 389.69L474.08 390.69L473.27 390.56L472.45 391.05L470.47 390.38L469.56 389.3L468.75 389.35L469.11 391.07L467.35 391.39L466.91 392.95L466.06 392.66L465.18 393.08L464.89 393.66L461.38 393.89L460.59 393.46L459.57 393.95L459.22 394.55L459.91 395.93L457.44 396.51L455.46 398.69L455.27 398.32L454.93 398.71L454.31 398.68L454.27 399.11L452.7 397.15L452.48 396.07L450.97 395.74L449.64 396.01L448.99 395.35L450.65 393.54L450.9 392.82L450.8 391.63L449.05 390.87L448.68 389.27L449.42 385.04L450.47 383.12L450.17 380.18L450.73 379.8L450.96 378.67L452.46 376.84L453.56 374.45L453.28 373.47L454.04 371.69L454.47 371.09L455.14 370.97L455.44 370.35L455 365.17L454.43 364.7L453.47 362.75L454.98 362.85L456.42 362.35L456.71 361.84L456.99 359.78L458.32 358.08L458.28 357.47L457.41 356.65L457.49 354.22L460.04 353.91L461.96 351.9L461.67 350.17L461.13 349.21L461.37 348.9L462.25 349.5L462.9 349.37L462.69 348.65L462.99 348.02L464.14 347.3Z" fill="#CCCCCC" stroke="white" stroke-width="0.5"/>
<path d="M408.98 345.66L409.84 345.71L410.17 346.25L410.72 346.18L411.29 346.67L410.93 347.07L411.61 349.92L412.05 350.37L412.86 350.46L414.04 349.76L414.52 350.19L416.73 350.05L417.64 350.35L419.65 347.55L421.75 346.86L422.38 347.25L423.81 347.01L424.9 347.76L426.24 349.56L425.61 349.83L424.57 349.31L425.02 351.04L425.04 354.28L425.51 354.78L428.05 355.02L429.85 355.76L431.07 355.24L430.74 354.42L431.4 353.84L432.79 354.28L435 353.68L435.46 356.02L435.25 356.49L435.51 356.59L436.12 356.3L437.42 356.44L440 357.35L443.44 357.52L444.82 356.5L446.76 356.02L447.26 356.26L446.93 357.76L447.55 357.58L448.03 356.18L448.76 355.39L450.82 355.11L452 353.96L452.08 352.97L451.41 352.92L451.92 351.17L451.82 349.85L451.22 348.67L451.65 347.58L453.2 348.57L454.42 350.49L454.24 351.24L457.53 354.28L457.45 356.71L458.32 357.52L458.35 358.14L457.02 359.84L456.74 361.89L456.45 362.41L455.02 362.9L453.5 362.8L454.46 364.76L455.03 365.23L455.46 370.41L455.16 371.03L454.5 371.14L454.06 371.74L453.3 373.53L453.58 374.51L452.48 376.9L450.98 378.73L450.75 379.86L450.19 380.25L447.94 381.63L446.85 384.09L445.92 384.62L443.48 387.54L442.91 385.97L442.49 385.93L441.39 386.78L440.92 387.81L442.14 392.04L442.44 395.19L445.27 398.98L444.5 399.99L443.69 400.01L443.42 398.95L443.02 398.65L442.68 399.06L441.2 398.22L440.8 397.43L439.36 397.2L438.74 396.63L437.33 397.73L436.68 397.61L436.6 396.78L435.42 395.12L434.29 394.85L432.72 395.04L430.69 394.57L430.22 394.07L428.5 394.03L426.47 394.49L426.26 394.95L422.8 395.45L420.81 394.54L419.6 392.64L418.47 392.61L417.81 392.86L417.66 393.53L417.37 393.15L416.77 393.53L416.71 392.47L415.65 392.81L415.97 393.21L415.49 393.98L414.96 393.16L414.4 393.27L414.61 393.73L413.99 393.59L413.31 393.98L413.78 394.77L413.14 394.8L413.01 395.14L413.64 396.37L413.06 397.47L413.71 398.87L413.82 400.1L413.49 401L415.33 400.98L415.15 401.29L414.33 401.57L412.71 401.2L411.95 401.98L410.48 402.62L409.62 402.37L406.99 403.19L406.23 403.82L406.12 407.75L406.94 409.02L407.13 409.78L405.85 410.31L402.89 408.85L398.84 407.64L390.93 405.91L385.8 403.52L382.02 402.82L377.07 400.96L376.55 401.19L372.74 398.87L370.97 394.76L368.1 392.53L368.46 391.69L366.9 389.8L367.58 388.1L369.44 386.92L369.41 385.13L369.79 384.85L370.81 385.16L373.28 382.92L374.94 382.51L376.49 382.81L378.71 381.11L379.24 381.21L380.5 382.97L380.79 382.88L382.38 381.14L384.58 379.93L388.6 376.35L389.97 375.63L392.28 376.21L393.13 373.9L395.49 371.4L395.43 369.84L394.82 369.16L391.46 369.23L392.09 366.64L390.18 362.44L391.11 361.7L391.44 360.89L390.83 358.68L390.17 358.04L386.96 357.1L384.69 356.82L384.24 357.38L383.74 357.33L383.24 356.49L384.13 354.98L384.15 352.63L384.51 352.36L385.44 352.56L385.74 351.41L388.21 351.86L389.26 353.16L389.7 353.12L389.93 352.31L392.9 351.58L393.18 350.15L394.12 349.82L395.13 348.77L396.19 348.85L398.25 347.21L399.32 346.87L401 347L402.33 346.54L404.04 346.71L406.18 345.67L408.98 345.66Z" fill="#CCCCCC" stroke="white" stroke-width="0.5"/>
<path d="M480.299 380.16L481.629 379.92L482.959 381.09L484.259 380L484.889 379.88L485.799 380.68L488.149 379.93L489.099 379.95L490.079 380.78L491.009 382.37L493.559 383.31L496.179 381.25L497.069 381.07L494.309 388.15L495.579 395.99L495.029 396.71L492.269 394.07L491.759 394.19L490.959 395.45L489.799 396.09L489.189 397.08L486.419 398.98L484.119 396.64L478.609 395.95L476.589 393.27L475.459 392.82L474.389 393.05L473.949 392.69L474.599 391.57L474.099 390.74L474.339 389.73L475.899 387.89L476.339 386.46L480.299 380.16Z" fill="#CCCCCC" stroke="white" stroke-width="0.5"/>
<path d="M304.719 319.9L304.879 320.71L304.089 321.08L303.629 320.37L304.049 319.91L304.719 319.9ZM299.539 315.55L301.099 315.99L301.499 316.55L300.989 316.93L300.839 317.69L298.549 316.82L298.149 316.29L299.539 315.55ZM294.119 310.25L296.739 310.95L297.139 311.39L297.079 311.98L297.849 312.76L297.639 313.63L297.039 314L294.669 312.73L294.129 311.35L294.119 310.25ZM293.679 308.15L294.039 309.15L293.529 309.38L293.289 308.55L293.679 308.15ZM318.399 286.75L318.979 288.19L318.809 289.54L319.359 290.02L319.149 290.69L320.089 297.04L319.489 297.07L319.309 296.67L318.559 292.51L316.599 288.02L316.879 287.77L317.979 289.54L318.739 289.29L317.999 287.12L318.399 286.75ZM325.599 273.96L327.799 276.6L329.479 276.25L330.389 274.94L330.929 274.97L332.449 276.72L333.779 277.32L335.869 277.48L336.449 279.95L336.969 280.32L338.119 280.29L338.239 281.53L337.649 282.42L335.949 283.29L334.259 285.05L336.459 289.63L337.149 289.66L337.959 288.81L339.309 286.25L340.699 288.01L342.399 288.44L344.889 290.83L345.849 292.9L347.659 294.02L348.139 293.98L348.539 292.6L351.479 291.3L351.689 294.07L352.109 295.03L352.839 295.46L353.019 295.94L351.769 300.83L352.229 303.85L353.889 303.33L355.089 304.48L356.199 304.57L356.729 305.05L356.839 307.77L357.689 309.39L362.189 309.99L363.929 314.28L365.319 315.52L365.559 316.99L365.159 321.21L364.759 322.04L362.509 323.32L360.789 323.6L359.819 324.57L358.859 324.97L354.819 325.2L353.319 333.71L352.499 333.89L352.049 334.53L352.429 336.06L353.159 336.81L352.869 337.16L354.049 338.62L354.009 340.08L353.499 339.76L352.999 338.21L352.319 337.43L350.019 335.31L348.939 334.76L346.279 331.75L343.199 330.96L341.989 329.53L340.489 328.8L339.239 329.02L336.049 331.45L333.719 330.99L332.549 331.44L328.099 337.06L326.879 335.31L326.409 335.23L325.529 335.96L322.529 334.97L323.299 334.34L324.219 332.19L324.579 332.28L325.449 330.71L326.659 329.91L327.539 328.74L327.689 327.9L328.709 328.25L329.849 326.63L329.569 325.65L330.069 322.5L329.419 319.67L330.809 316.98L330.599 315.73L329.859 314.89L328.929 315.2L324.269 312.03L322.839 308.46L319.869 303.4L319.139 300.74L319.319 297.53L320.119 297.15L320.579 298.34L321.179 298.44L321.489 299.24L323.469 300.21L323.769 298.69L322.749 297.98L322.499 298.23L322.149 297.48L321.129 297.82L320.939 297.25L321.319 296.9L321.249 296.29L320.799 296.23L320.469 296.65L320.139 296.35L320.269 295.65L319.749 294.68L319.539 291.29L319.239 290.72L319.429 289.87L318.849 289.48L319.099 288.8L318.469 286.69L318.799 286.52L320.899 287.76L324.359 288.33L324.719 287.44L324.489 285.4L324.089 285.04L323.879 283.71L322.569 282.41L322.119 281.11L322.449 280.09L324.139 277.99L324.699 274.58L325.599 273.96Z" fill="#CCCCCC" stroke="white" stroke-width="0.5"/>
<path d="M467.54 146.57L466.89 146.91L465.61 148.64L462.83 149.44L462.21 150.13L462.48 150.92L462.13 151.99L462.73 152.44L466.73 152.63L466.78 153.51L465.61 154.93L466.88 155.8L466.66 158.26L466.9 159.64L468.05 160.77L468.47 163.96L466.83 165.35L466.02 167.74L466.15 168.86L467.62 168.81L468.87 169.47L469.39 170.25L468.92 171.54L468.69 174.76L469.49 175.58L470.37 175.21L471.04 175.61L471.88 177.51L473.76 177.73L475 181.87L476.82 184.36L478.23 184.23L478.17 185.23L479.34 186.85L480.03 186.94L480.78 186.21L481.41 186.26L481.59 186.86L481.23 187.59L481.99 188.93L481.1 189.26L481.92 189.72L482.29 190.37L485.57 190.83L486.22 191.42L487.41 193.76L488.36 194.3L491.02 192.77L492.09 192.92L495.47 192.23L496.16 192.68L496.3 194.15L497.09 195.16L496.79 198.51L497.38 200.03L496.91 200.8L496.71 202.87L497.4 204.44L496.99 205.24L497.98 206.07L499.97 206.7L500.37 206.96L500.4 207.48L498.86 209.06L498.27 210.43L497.02 211.05L495.66 212.49L494.88 212.57L493.89 213.7L489.51 214.55L488.52 215.69L487.77 217.72L484.97 217.5L484.36 216.33L483.85 216.29L482.39 218.26L481.13 218.67L480.88 219.07L481.48 221.31L482.15 221.67L481.77 223.34L480.87 223.43L479.95 224.12L479.48 225.72L478.36 226.17L477.98 224.65L477.6 224.78L477.24 225.82L476.09 226.29L474.97 227.89L473.21 227.79L471.91 229.92L469.04 231.19L467.05 232.54L466.36 234.64L466.58 234.92L468.41 234.83L469.67 237.45L468.81 244.22L470.58 246.31L471.98 249.95L473.35 250.72L474.11 253.06L471.86 252.62L471.5 252.72L471.16 254.23L469.4 255.2L468.69 255.35L466.14 254.67L463.83 255.9L463.17 258.71L461.69 260.48L461.36 261.44L461.75 264.28L461.54 266.05L458.45 265.67L457.65 266.35L458.2 267.7L457.77 268.47L453.87 267.73L451.53 270.53L450.03 269.81L448.79 268.34L448.23 266.69L447.98 262.6L447.47 261.33L448.62 255.73L448.51 254.84L447.54 253.38L447.75 249.01L446.87 246.76L444.39 243.63L444.52 242.2L442.73 240.49L442.44 239.68L443.64 238.11L443.69 237.78L443 237.52L443.48 235.95L442.09 235.45L441.04 235.64L439.32 233.32L439.87 232.9L440.87 229.64L440.22 228.41L440.11 227.02L438.73 225.47L439.05 224.27L438.76 223.44L438.92 223.07L441.33 223.01L441.53 222.62L441.44 220.46L440.55 217.53L442.25 214.31L444.04 213.74L443.75 212.93L444.69 212.62L446.43 212.79L447.74 214.32L451.15 215.2L453.09 215.23L453.43 215.03L453.58 213.88L454.33 212.99L453.94 212.04L453.06 211.72L452.56 210.92L448.96 210.29L449.47 209.24L446.19 207.36L445.37 206.51L444.81 203.1L444.46 202.74L442.33 202.66L441.49 202L440.38 201.86L439.54 200.08L439.3 197.61L440.29 194.71L439.91 194.07L439.05 193.99L437.63 192.84L436.58 189.73L433.88 187.71L429.34 182.93L429.32 181.63L431.74 179.21L432.78 176.48L433.65 175.58L437.16 175.3L439.77 173.6L442.97 173.64L444.11 171.45L445.16 170.68L446 168.44L445.58 163.31L443.53 161.83L442.9 161.76L442.2 164.88L441.61 164.93L438.79 162.86L438.54 159.52L440.37 156.54L441.56 155.5L442.75 155.88L444.85 154.96L447.08 155.08L447.71 154.59L447.55 152.3L447.84 151.51L449.53 148.91L450.08 146.57L451.21 145.94L454.88 145.68L460.4 146.6L462.32 145.3L463.27 145.24L464.36 144.45L464.62 143.84L465.37 143.67L465.61 144.6L466.38 144.85L467.54 146.57Z" fill="#CCCCCC" stroke="white" stroke-width="0.5"/>
<path d="M544.58 396.82L545.75 394.64L546.05 393.68L545.56 392.94L545.61 392.08L546.26 391.47L547.41 392.63L548.41 392.98L547.83 394.25L548.44 396.99L549.08 397.89L551.04 399.44L552.34 399.06L553.73 399.87L554.75 401.76L556.13 401.85L555.59 402.75L556.29 403.1L558.76 402.32L560.19 402.84L561.34 402.65L563.37 403.13L563.89 403.57L564.89 407.36L564.67 408.61L563.86 409.73L562.87 412.3L562.15 412.98L562.49 413.7L562.32 414.88L564.49 419.3L566.45 419.88L567.71 419.23L570.58 419.06L573.59 416.96L577.25 416.04L578.46 414.95L578.88 415.02L580.25 415.86L580.07 416.54L578.58 417.2L578.35 418.33L581.71 422.74L585.16 425.53L585.15 426.52L585.79 427.09L585.46 428.46L614.03 430.21L613.69 431.15L613.72 433.15L612.96 434.17L612.16 437.66L609.22 440.28L607.03 446.57L606.95 447.42L608.19 450.35L607.67 451.81L607.79 453.92L607.83 454.36L605.85 455.25L605.36 455.16L604.84 454.73L604.12 454.8L603.33 453.93L602.46 453.95L601.57 452.44L600.45 452.83L600.47 453.82L599.81 453.87L599.79 454.5L600.91 455.46L605.28 455.78L608.35 458.07L608.17 458.71L603.46 456.64L600.5 455.73L592.81 454.61L592.57 454.16L595.21 453.26L595.94 452.61L596.34 451.48L593.96 450.64L592.67 451.54L592.28 452.31L591.32 452.36L591.05 452.97L590.54 452.82L590.44 452.43L591.54 451.49L590.44 450.56L590.68 449.95L589.29 448.9L587.62 449.34L586.32 451.57L585.07 451.54L584.15 452.36L584.36 453.22L583.75 453.28L583.31 454.08L589.73 454.07L591.57 454.31L591.69 454.6L588.05 454.66L584.06 455.33L582.21 455.17L582.05 455.78L580.03 455.95L579.55 456.41H578.92L578.76 457.41L576.74 458.3L576.4 458.82L576.61 459.6L575.24 460.06L575.06 460.6L573.51 460.42L573.4 461H571.43L571.32 461.47L569.29 462.36L566.85 462.7L565.57 463.55L561.72 464.56L558.99 465.82L559 466.08L557.54 466.48L557.72 466.81L554.77 468.24L550.32 467.97L548.45 468.94L546.88 468.91L543.34 467.42L539.33 466.82L537.78 465.87L535.35 465.11L534.58 464.57L534.31 463.8L530.55 462.1L527.29 461.49L525.27 461.62L522.63 460.89L521.89 461.07L519.32 460.67L518.88 461.06L516.45 460.69L510.77 456.95L505.33 454.05L500.66 453.21L496.84 451.83L501.48 448.28L501.94 446.27L506.05 442.68L506.24 441.33L507.17 440.66L508.39 440.43L509.29 439.52L510.21 436.64L509.85 435.09L509.43 434.55L508.27 434.29L508 433.7L508.11 431.79L507.66 430.62L505.37 429.84L504.81 429.33L504.99 427.26L505.91 426.43L505.3 421.85L502.57 415.79L502.74 414.37L504.48 410.42L505.68 409.02L507.75 407.67L509.32 407.31L512.78 407.3L514.23 406.71L516.42 408.32L517.6 408.68L518.32 408.47L520.09 406.83L520.02 406.4L517.67 404.76L517.23 404L519.26 399.67L520.82 398.99L522.41 398.79L522.89 399.13L523.12 400.1L523.02 400.56L521.69 401.46L521.79 401.86L523.1 402.82L523.84 403.9L525.28 406.72L525.64 408.36L526.46 409.06L527.33 408.21L528.24 406.31L530.84 403.73L532.2 403.44L535.92 404.33L537.7 402.85L537.81 401.96L538.1 402.52L539.46 401.62L541.85 401.11L543.77 397.66L544.58 396.82Z" fill="#CCCCCC" stroke="white" stroke-width="0.5"/>
<path d="M512.309 338.91L513.009 336.35L513.969 335.6L514.059 334.77L514.939 333.83L515.209 332.81L516.389 333.2L518.419 332.88L518.409 334.67L517.179 335.42L517.339 335.72L518.209 335.53L519.019 336.13L518.649 336.97L518.809 337.81L519.619 338.65L521.849 339.87L522.329 340.99L520.829 343.46L519.219 342.54L518.049 343.3L518.109 347.31L518.569 349.68L519.249 350.23L521.289 350.01L522.149 351.79L522.739 351.99L524.349 350.59L525.569 348.64L526.389 347.98L533.449 350.46L533.529 350.97L531.369 353.96L529.719 358.24L529.519 359.05L529.839 360.03L529.499 361L528.829 361.87L527.859 364.5L527.289 364.74L527.039 365.44L528.419 368.43L527.869 369.81L528.209 370.23L529.639 371.22L533.269 372.04L536.199 373.31L536.669 373.9L536.779 375.18L536.619 375.88L536.089 376L531.269 375.78L531.079 376.68L531.599 382.8L531.529 383.35L529.669 385.76V388.75L530.029 389.86L530.879 390.59L534.689 391.7L534.519 392.45L536.379 395.58L537.809 395.68L538.759 394.63L540.149 393.83L542.729 394.66L544.579 396.82L543.769 397.66L541.849 401.11L539.459 401.62L538.099 402.52L537.809 401.96L537.699 402.85L535.919 404.33L532.199 403.44L530.839 403.73L528.239 406.31L527.329 408.21L526.459 409.06L525.639 408.36L525.279 406.72L523.839 403.9L523.099 402.82L521.789 401.86L521.689 401.46L523.019 400.56L523.119 400.1L522.889 399.13L522.409 398.79L520.819 398.99L519.259 399.67L517.229 404L517.669 404.76L520.019 406.4L520.089 406.83L518.319 408.47L517.599 408.68L516.419 408.32L514.229 406.71L512.779 407.3L509.319 407.31L507.749 407.67L505.679 409.02L504.479 410.42L502.869 409.62L501.269 407.64L499.719 407.78L498.859 408.64L498.389 408.37L496.989 408.68L496.859 407.6L492.659 405.82L493.489 404.85L493.269 404.05L490.289 404.25L489.069 402L487.719 401.38L486.369 400.2L486.419 398.98L489.189 397.08L489.799 396.09L490.959 395.45L491.759 394.19L492.269 394.07L495.029 396.71L495.579 395.99L494.309 388.15L497.069 381.07L496.949 376.67L495.909 373.04L495.949 371.95L496.499 371.34L496.119 369.51L496.819 369.22L497.979 369.59L501.009 371.9L502.329 373.28L502.869 374.66L504.049 375.97L508.109 378.21L508.969 378.07L512.039 375.39L512.609 375.35L514.069 376.34L514.839 376.29L516.079 375.45L517.479 373.12L518.319 373.44L520.999 372.93L521.819 372.38L522.099 371.23L521.159 371.03L520.489 370.43L520.179 369.26L518.969 368.02L518.379 367.64L516.849 368.14L516.009 367.97L516.139 366.24L512.039 362.83L511.329 361.77L510.839 361.7L509.289 363.53L508.679 363.77L506.619 363.39L505.919 358.66L507.459 355.58L508.269 350.78L507.809 348.59L505.689 349.07L504.989 347.66L508.609 345.81L509.519 344.43L512.379 341.91L512.309 338.91Z" fill="#CCCCCC" stroke="white" stroke-width="0.5"/>
<path d="M484.66 321.04L483.38 324.17L479.27 325.46L478.06 324.75L476.41 326.18L476.68 327.29L475.85 328.85L475.38 331.06L474.57 332.26L473.41 332.68L472.26 335.24L472.89 337.26L470.57 338.87L467.64 339.59L466.73 340.27L465.15 340.76L464.14 347.3L463.04 348.09L462.74 348.72L462.95 349.44L462.29 349.56L461.41 348.96L461.17 349.27L461.71 350.23L462 351.96L460.08 353.97L457.53 354.28L454.24 351.24L454.42 350.49L453.2 348.57L451.65 347.58L450.93 345.91L448.91 344.5L447.82 342.64L447.83 339.93L447.18 338.19L446.22 337.48L446.08 336.72L446.73 332.92L447.45 331.51L452.03 331.23L453.53 330.52L456.25 330.9L456.91 330.5L457.13 329.4L457.95 329.88L458.62 328.28L458.52 326.83L460.77 323.49L462.29 322.93L464.02 324.68L465.12 324.51L465.68 323.48L467.13 322.81L467.84 321.37L467.88 320.2L465.4 319.59L466.55 317.68L466.66 315.62L466.16 315.13L465.57 314.56L467.11 314.18L466.83 313.73L467.01 313.25L468.11 313.29L469.62 314.29L470.21 316.18L470.84 316.84L473.33 317.09L475.27 316.59L475.85 316.95L476.91 314.18L477.47 313.81L478.27 314.05L478.75 313.77L479.74 315.97L482.96 319.32L483.78 320.78L484.66 321.04Z" fill="#CCCCCC" stroke="white" stroke-width="0.5"/>
<path d="M792.899 339.72L791.819 342.3L790.679 343.78L790.329 343.83L787.769 347.18L786.199 348.15L785.529 346.44L785.649 344.53L787.939 340.78L788.639 340.42L789.359 341.18L789.699 340.85L790.159 341.13L791.709 340.73L792.899 339.72ZM732.369 409.59L732.119 407.13L734.559 404.3L735.129 403.04L734.849 398.34L734.379 396.96L734.949 395.29L734.129 394.83L734.639 393.46L734.489 392.75L733.499 391.51L733.329 390.24L734.129 385.11L733.909 382.59L734.319 381.92L735.489 381.26L735.669 375.41L732.259 370.74L726.959 366.49L725.619 364.68L726.549 362.68L726.879 361.22L726.709 360.35L727.269 359.86L730.809 359.69L732.199 358.3L734.629 357.25L737.059 357.21L738.239 356.8L740.159 355.02L741.239 355.94L741.539 355.62L741.269 354.93L743.139 353.33L744.919 352.29L750.429 350.31L750.889 349.84L751.679 347.47L752.189 347.05L753.189 347.06L754.119 348.74L754.479 348.69L754.229 346.5L755.729 343.74L756.899 343.18L758.039 344.18L759.579 343.74L761.089 343.84L764.199 342.01L767.329 339.31L769.049 338.49L769.909 337.32L770.179 335.74L771.039 334.66L771.519 332.2L772.669 330.15L772.769 329.18L771.439 325.97L771.909 322.81L772.789 321.95L772.919 321.19L772.589 315.88L773.919 315.97L773.879 316.38L774.449 316.66L775.119 316.34L777.209 316.93L777.539 317.32L778.189 317.07L779.819 317.26L780.259 317.66L780.549 317.13L783.259 316.26L783.489 314.3L782.859 314.03L783.499 313.25L783.959 313.09L784.399 313.59L785.839 313.98L786.399 314.81L786.739 314.65L787.279 315.1L787.329 315.89L788.909 318.07L789.879 322.12L790.309 322.02L790.529 320.41L791.269 319.74L791.199 318.84L790.549 317.77L791.199 317.99L791.309 319.71L790.669 321.34L791.069 322.5L790.909 323.87L791.099 324.67L792.299 325.52L791.609 328.01L790.859 328.06L790.549 328.77L789.279 332.82L788.099 333.96L786.989 335.55L787.029 336.04L785.879 336.72L785.549 337.53L783.629 339.69L779.749 342.73L778.019 345.15L776.999 347.62L775.539 349.35L774.129 353.33L774.119 355.22L774.759 357.15L775.179 357.29L775.339 358.44L774.759 359.81L773.909 360.64L774.319 359.71L774.759 359.72L775.319 358.39L775.259 357.8L774.639 357.42L774.709 358.71L773.659 360.5L772.889 360.78L772.549 360.4L771.629 360.95L770.009 363.67L767.579 364.09L767.389 365.99L768.389 366.68L768.539 367.27L769.239 366.93L769.139 367.71L769.499 367.85L769.249 368.56L769.829 368.48L770.719 367.22L772.299 366.88L772.899 367.53L773.719 366.75L773.449 366.34L775.169 366.12L775.709 366.92L774.969 369.42L772.989 371.33L772.519 371.3L772.599 370.51L770.139 371.99L769.519 373.68V374.93L768.849 375.72L769.209 375.8L769.149 376.54L770.549 376.49L772.579 373.7L773.379 373.32L773.829 373.49L773.489 374.89L773.839 373.77L774.809 373.69L772.599 376.32L772.319 379.53L770.279 383.67L769.159 388.42L768.259 389.38L767.439 394.14L766.989 395.04L766.949 397.08L765.509 399.42L764.949 402.75L764.219 402.21L763.579 402.27L763.599 401.59L764.159 401.21L764.039 400.25L763.629 400.35L764.029 398.87L763.509 398.57L763.359 397.95L762.549 397.71L762.739 396.68L760.119 395.89L759.079 394.66L759.819 394.2L760.159 392.16L761.089 390.46L760.619 389.93L760.999 388.69L760.589 387.26L759.859 386.64L760.099 385.73L759.309 385.44L757.049 389.02L755.959 389.4L755.969 389.65L756.949 389.22L753.709 395.14L751.449 395.27L751.239 395L750.179 395.42L748.979 395.14L748.059 395.96L747.179 398.97L746.119 400.1L745.669 402.13L744.579 403.51L743.429 406.39L742.009 407.17L741.429 408.59L739.809 409.9L739.919 411.5L738.989 410.46L738.079 410.07L737.449 409.12L736.399 409.16L735.439 408L733.639 408.39L732.369 409.59ZM783.109 313.11L782.899 313.65L780.899 314.85L779.439 314.82L778.879 315.2L777.969 314.68L777.489 313.92L779.209 314.48L780.609 314.38L783.109 313.11Z" fill="#CCCCCC" stroke="white" stroke-width="0.5"/>
<path d="M439.32 233.32L441.04 235.64L442.09 235.45L443.48 235.95L443 237.52L443.69 237.78L443.64 238.11L442.44 239.68L442.73 240.49L444.52 242.2L444.39 243.63L446.87 246.76L447.75 249.01L447.54 253.38L448.51 254.84L448.62 255.73L447.47 261.33L447.98 262.6L448.23 266.69L448.79 268.34L450.03 269.81L451.53 270.53L453.87 267.73L457.77 268.47L458.67 269.53L458.81 271.59L459.84 272.37L460.32 273.52L459.99 277.15L460.21 280.13L460.41 280.82L461.5 281.74L465.7 283.11L468.97 283.37L471.17 284.1L471.82 283.67L471.77 282.64L472.74 282.08L473.36 282.41L474.17 283.7L475.86 284.26L477.24 285.34L478.07 286.51L478.99 289.04L481.15 291.89L482.93 291.66L484.93 292.05L487.25 291.98L487.96 291.18L489.85 292.37L491.99 291.92L492.95 292.09L493.24 293.02L493.77 293.28L496.13 293.24L500.56 294.61L501.22 295.34L502.42 298.9L499.89 298.95L498.82 299.67L499.14 302.22L498.88 302.89L498.47 303.17L496.3 302.91L496.03 303.32L496.41 303.7H497.54L496.96 304.23L497.31 304.49L497.18 305.72L497.77 306.44L498.22 306.33L498.25 306.81L499.44 307.92L497.74 308.71L497.45 309.53L496.39 309.47L496.44 310.17H495.18L494.98 311.03L495.87 314.34L497.2 314.56L497.34 317.9L495.66 317.88L494.08 319.72L492.75 322.68L491.83 321.37L490.48 323.75L489.4 323.79L488.06 322.69L486.92 320.29L484.66 321.04L483.78 320.78L482.96 319.32L479.74 315.97L478.75 313.77L478.27 314.05L477.47 313.81L476.91 314.18L475.85 316.95L475.27 316.59L473.33 317.09L470.84 316.84L470.21 316.18L469.62 314.29L468.11 313.29L467.01 313.25L466.83 313.73L467.11 314.18L465.57 314.56L466.16 315.13L463.52 316.46L461.91 316.42L461.23 315.58L460.84 316.12L459.03 316.29L457.33 314.16L456.85 314.25L456.58 313.56L453.43 311.56L449.54 310.28L448.46 311.01L447.84 312.84L447.99 313.96L446.47 314.57L443.72 314.6L440.98 313.17L436.01 309.45L434.94 309.49L433.71 308.74L429.08 307.68L427.82 306.95L424.91 306.64L423.75 305.97L425.68 302L426.03 301.04L425.77 300.86L425.9 300.31L426.29 300.34L426.65 298.7L425.27 294.84L428.57 287.54L428.76 285.89L426.79 283.31L426.08 283.36L424.62 284.06L420.17 288.67L417.74 289.4L415.66 289.35L414.18 287.33L413.26 285.33L412.19 284.75L409.88 284.41L408.77 283.09L404.59 280.56L403.65 279.56L403.4 278.05L403.6 276.79L404.86 272.8L403.83 269.78L404.34 268.09L403.72 267.28L404.59 265.61L405.25 265.41L407.57 266.34L410.51 265.76L411.03 264.32L411.88 263.29L414.16 262.45L417.72 260.32L421.2 255.18L425.94 253.59L427.04 252.05L428.22 249.09L427.21 247.91L428.04 244.46L428.68 243.84L430.55 243.36L431.91 242.48L432.83 240.7L433.04 239.21L433.71 238.69L435.29 238.76L436.27 238.26L436.96 236.54L438.15 235.54L438.51 233.76L439.32 233.32Z" fill="#CCCCCC" stroke="white" stroke-width="0.5"/>
<path d="M318.091 284.7L318.511 284.76L319.051 285.7L318.601 286.43L318.091 284.7ZM256.971 219.3L258.141 220.65L258.641 220.46L258.911 220.77L258.921 221.67L259.511 222.8L259.241 225.5L258.761 225.49L258.071 223.38L256.991 222.21L256.971 219.3ZM252.151 217.25L253.561 218.18L257.151 222.74L257.881 223.88L257.931 225.26L257.541 225.42L254.841 220.28L252.021 217.69L252.151 217.25ZM251.601 214.95L253.381 216.19L253.591 216.76L251.931 215.96L251.601 214.95ZM230.021 184.15L231.051 184.27L231.511 184.65L231.381 185.66L231.001 185.94L232.781 187.41L232.431 186.27L233.201 185.63L233.031 185.16L232.721 185.44L232.261 185.19L231.341 183.39L231.321 182.65L231.171 181.09L231.461 180.9L231.701 182.77L232.091 182.94L232.591 182L233.381 182.91L233.511 183.69L233.991 183.61L233.941 184.42L234.281 184.77L237.211 183.07L238.491 181.9L240.491 181.32L240.601 178.83L241.071 177.96L245.161 176.98L247.221 173.12L249.081 172.57L248.791 170.08L251.911 166.2L252.221 164.42L257.101 164.2L257.781 164.58L257.901 167.48L258.521 167.72L259.741 167.46L260.791 169.79L260.391 172.05L260.891 172.87L260.391 174.88L260.721 175.97L262.131 176.88L262.201 178.76L265.311 183.78L266.531 188.46L270.341 189.59L273.531 189.9L275.891 190.6L278.781 195.48L279.371 198.71L281.511 201.5L281.571 202.17L282.301 202.01L282.461 202.74L281.261 203.51L279.531 205.72L280.131 206.44L280.601 206.36L280.671 207.04L279.341 210.25L279.261 215.37L278.751 217.34L279.751 217.95L280.231 219.77L280.981 220.42L282.181 222.79L281.851 224.24L283.051 225.19L283.581 224.75L285.881 224.98L286.781 227.59L288.101 227.89L289.311 232.36L289.881 232.56L290.451 232.14L290.661 232.39L291.471 236.51L292.451 237.92L293.041 239.87L293.871 239.7L294.571 240.19L295.261 239.64L296.591 239.45L299.381 237.32L300.051 236.28L304.091 237.46L305.541 238.42L306.441 239.79L307.521 240.05L307.671 241.12L309.411 243.39L309.491 245.59L310.521 246.53L310.271 247.43L311.061 250.02L311.771 251.09L312.401 254.03L313.481 255.24L314.391 257.22L316.111 258.87L316.551 261.68L317.601 264.6L317.331 265.53L318.071 267.27L319.291 268.6L319.421 270.86L320.021 272.14L322.061 272.28L322.911 271.68L323.511 271.75L325.631 273.93L324.801 274.54L324.241 277.95L322.551 280.05L322.221 281.07L322.671 282.37L323.981 283.67L324.191 285L324.591 285.36L324.821 287.4L324.461 288.29L321.001 287.72L318.901 286.48L319.131 285.46L317.631 283.83L317.881 283.24L318.621 282.89L317.931 282.32L317.391 283.02L317.911 284.92L318.451 285.43L317.891 287.11L318.411 288.79L318.041 289.35L314.321 283.54L311.351 280.67L309.571 279.57L305.351 274.4L300.681 269.82L301.121 269.49L302.271 270.76L302.351 270.43L300.901 269.28L300.361 269.49L300.171 270.05L299.811 269.72L299.911 269.03L299.211 268.53L298.291 266.88L298.601 266.47L297.351 264.51L294.801 262.01L294.881 261.66L293.491 260.48L292.851 259.38L290.291 257.44L290.701 256.94L288.501 253.54L288.271 252.32L280.751 245.36L281.671 245.56L281.981 245.2L281.531 244.9L281.641 244.1L281.081 243.99L280.901 244.48L280.361 244.69L276.541 241.65L275.141 241.31L270.101 237.35L265.461 234.5L265.691 233.94L266.311 234.63L269.451 236.33L269.901 237.07L270.901 237.2L271.411 238.01L272.031 237.94L272.781 239.05L273.281 238.92L272.741 238.33L272.811 237.63L273.521 237.41L273.561 237.01L273.271 235.83L271.791 233.81L270.511 233.84L270.621 235.23L269.501 235.47L268.411 234.04L267.811 234.57L266.771 234.38L266.591 233.45L264.961 231.96L262.861 231.09L262.611 230.63L262.031 231.03L260.951 230.53L260.161 229.47L260.231 228.32L258.841 226.72L259.461 226.44L260.671 227.61L261.361 226.43L260.761 225.98L260.591 225.21L260.301 225.24L260.381 224.39L260.851 223.87L260.141 223.58L260.101 223.08L260.621 222.44L260.701 221.66L259.671 220.98L259.391 219.1L258.881 218.4L257.331 217.38L257.311 217.9L256.431 217.74L254.541 216.04L254.231 215.22H252.591L252.701 214.09L251.451 213.51L250.891 214.35L251.171 215L250.821 215.58L248.901 213.43L243.501 210.73L244.021 210.1L243.641 209.61L242.321 209.96L240.801 207.64L241.481 206.31L241.041 205.68L239.851 206.11L239.451 205.15L238.181 205.06L237.771 205.29L238.011 205.89L237.771 206.6L238.251 206.87L237.571 207.96L237.071 208.19L237.011 207.6L236.631 207.45L236.841 207.01L236.031 206.7L234.841 206.9L235.121 207.71L234.311 207.94L232.481 205.81L233.651 205.64L234.071 205.2L234.121 204.4L235.051 205.27L235.941 204.84L236.171 203.85L236.851 204L237.311 203.51L236.971 202.2L235.871 202.16L234.851 202.8L233.981 204.63L232.411 204.15L232.251 204.67L231.621 204.56L231.251 203.44L229.531 201.87L229.061 202.32L230.661 203.48L230.741 204.23L229.141 203.22L226.271 202.7L226.091 202.37L228.131 202.64L228.201 200.68L227.701 200.64L226.091 199.32L225.011 199.6L224.641 198.91L224.811 196.25L225.051 196.16L224.701 195.08L224.251 194.92L224.211 194.25L224.911 192.12L225.261 192.16L225.281 191.33L227.421 187.91L228.121 185.5L229.161 184.39L229.411 184.5L229.201 185.49L228.341 185.77L227.751 188.48L228.171 189.03L228.481 188.86L228.861 187.88L228.521 187.3L228.691 187.03L229.031 187.54L229.841 185.82L230.021 184.15Z" fill="#CCCCCC" stroke="white" stroke-width="0.5"/>
<path d="M231.041 184.27L230.011 184.15L230.111 183.63H230.591L231.041 184.27ZM229.361 183.56L229.461 182.02L229.681 182.99L229.361 183.56ZM195.321 155.05L195.951 155.92L195.761 156.26L197.101 156.87L196.811 157.26L195.311 156.35L195.321 155.05ZM153.251 102.24L153.731 103.8L153.461 104.94L154.421 106.14L155.461 108.74L155.041 109.11L154.941 110.49L153.401 114.45L153.351 115.47L152.611 116.1L152.131 115.63L151.361 115.74L150.151 114.6L148.811 114.53L148.501 113.97L147.981 113.96L147.851 113.59L145.821 112.46L147.481 111.24L148.071 110.37L147.681 107.12L148.391 104.13L148.981 103.26L150.321 103.49L151.311 102.59L153.251 102.24ZM94.3309 29.28L95.1609 29.41L95.1109 30.05L93.6509 29.64L93.6309 29.29H94.3309V29.28ZM90.6009 27.47L91.6009 27.95L92.3109 29.39L93.6409 30.34L94.1709 31.43L93.8909 32.11L93.0909 31.46L92.3909 31.54L91.3509 31L90.4709 30.09L90.0809 29.1L90.2409 27.66L90.6009 27.47ZM241.131 41.69L242.181 42.73L241.241 44.01L241.761 45.92L243.401 48.76L243.641 50.36L243.141 51.64L243.161 53.45L241.591 53.52L241.551 54.14L244.281 56.79L244.361 59.21L245.401 60.13L244.731 61.74L244.841 62.55L245.941 64.02L245.881 65.21L247.811 71.36L247.531 73.17L246.681 73.7L246.841 74.69L248.291 76.01V77.12L247.021 79.69L246.431 84.62L246.771 85.62L247.341 85.65L248.091 86.61L248.761 92.83L248.751 95.43L247.951 96.38L247.791 97.28L248.041 102.95L247.751 103.46L246.371 104.14L246.271 106.83L244.781 108.1L245.241 110.64L244.391 111.92L245.191 114.57L243.711 117.19L243.521 118.23L244.351 120.18L243.931 123.08L245.481 124.89L247.731 125.75L247.141 126.94L246.211 127.04L245.241 128.26L244.091 128.38L242.691 129.43L242.181 129.46L240.411 128.15L239.641 128.01L238.191 128.86L235.661 129.35L234.621 130.74L234.811 131.34L236.371 132.42L235.781 135.17L236.171 135.87L238.001 136.61L240.091 139.59L240.471 141.25L239.771 143.7L240.291 144.35L243.111 146.05L243.741 148.14L244.711 149.56L246.341 153.63L246.381 155.35L245.131 158.49L245.601 161.94L244.871 162.36L244.851 162.82L248.391 164.66L250.411 164.04L252.181 164.43L251.871 166.21L248.751 170.09L249.041 172.58L247.181 173.13L245.121 176.99L241.031 177.97L240.561 178.84L240.451 181.33L238.451 181.91L237.171 183.08L234.241 184.78L233.901 184.43L233.951 183.62L233.471 183.7L233.341 182.92L232.551 182.01L232.051 182.95L231.661 182.78L231.421 180.91L231.131 181.1L231.281 182.66L230.861 182.67L230.621 183.21L229.361 181.5L229.481 180.49L228.131 178.04L225.841 175.48L224.391 174.46L223.541 174.33L224.591 174.49L224.641 174.13L224.241 173.2L223.671 173.24L223.311 172.49L222.671 172.69L222.601 172.12L222.211 172.03L221.481 173.09L221.901 173.84L219.231 173.77L218.731 174.42L216.191 173.42L215.001 172.38L214.071 171.11L214.081 170.15L213.051 167.35L211.701 165.49L211.891 165.34L212.861 166.69L213.041 165.83L212.411 165.41L212.661 165.03L212.351 163.4L210.621 162.02L210.321 162.38L209.901 161.97L208.821 162.93L207.791 162.25L202.811 161.01L199.761 157.98L198.371 157.28L198.681 157.05L198.271 156.13L198.351 154.84L197.721 154.45L197.201 154.82L196.501 154.29L196.351 153.02L195.961 152.97L195.561 152.22L195.811 150.16L195.191 148.98L195.421 148.59L194.611 147.8L194.721 147.03L196.091 146.05L195.341 145.93L195.101 146.72L195.271 145.18L195.961 144.83L195.271 144.71L194.981 143.6L195.461 143.23L195.311 142.48L195.721 141.71L196.581 141.89L196.871 141.37L195.881 140.58L195.061 140.39L194.521 140.87L193.891 140.34L190.021 139.43L189.691 138.59L188.051 139.46L188.611 140.37L188.421 141.42L187.201 140.98L186.231 139.97L186.631 139.41L186.051 139.26L186.031 138.55L184.691 138.28L183.371 139.03L181.881 137.67L180.901 137.34L180.021 136.06L179.051 135.76L178.361 134.92L178.171 134.05L177.111 132.81L177.031 131.94L176.341 131.04L175.951 131.12L175.491 129.54H175.091L173.931 128.41L173.831 127.04L172.961 126.29L167.511 124.28L167.351 123.14L166.191 120.52L162.181 116.86L161.701 115.61L162.271 115.54L162.781 114.96L163.311 116.13L163.951 115.72L163.931 114.87L163.301 114.38L162.771 114.76L162.291 114.02L162.021 114.23L160.741 113.21L159.531 112.92L159.091 111.79L158.121 111.02L157.851 110.28L155.941 109.73L156.501 109L156.081 108.17L156.031 106.85L155.691 106.66L156.151 105.68L155.681 104.56L155.281 104.42L155.231 103.8L154.541 103.73L155.071 101.92L154.451 100.11L153.811 99.52L152.491 99.53L151.671 99.93L150.011 99.06L149.801 97.96L150.801 95.16L150.501 94.59L149.511 94.05L149.351 92.87L148.351 92.04L146.681 89.2L145.751 88.55L145.101 86.61L143.961 85L143.631 83.4L142.441 82.83L141.801 83.01L141.561 82.68L141.911 80.22L141.291 78.75L141.421 75.29L140.911 73.88L138.961 71.99L138.851 68.94L137.881 66.94L135.471 64.89L132.931 60.23L132.021 56.79L132.751 54.51L132.811 51.48L133.111 51.56L133.781 50.55L133.861 49.43L133.361 46.68L133.051 46.79L132.861 46L132.391 46.03L130.081 44.67L129.411 43.57L128.591 44.3L124.711 43.36L124.471 43.01L124.161 43.25L121.581 42.76L121.481 42.28L120.921 42.01L119.631 41.85L119.861 40.38L119.291 38.79L119.351 37.96L118.811 37.04L117.621 36.07L113.291 34.22L113.161 33.63L112.781 33.77L112.561 33.25L112.181 33.83L111.391 33.28L110.811 33.97L110.631 34.59L110.981 34.52L111.191 35.04L110.481 35.99L109.771 35.91L109.361 37.1L106.511 37L103.381 35.57L101.941 34.02L99.0309 32.42L98.5909 31.83L97.8409 31.67L95.4309 29.34L93.2809 29.2L92.0009 28.62L91.0209 27.45H90.2009L86.3809 24.69L85.4609 24.56L84.5009 23.61L85.1009 22.63L84.8609 21.65L85.2809 18.98L84.9909 17.84L85.6109 16.01L84.2109 14.02L86.0209 11.59L86.0709 10.25L86.5409 9.76997L87.1409 7.71998L88.4809 7.70998L88.9509 8.10998L89.8009 7.59998L183.451 41.82L241.131 41.69Z" fill="#CCCCCC" stroke="white" stroke-width="0.5"/>
<path d="M621.121 397.91L617.061 399.37L616.671 399.93L614.781 400.09L621.121 397.91ZM649.221 391.04L650.361 394.76L650.991 395.67L652.431 396.67L653.421 396.72L654.111 397.78L654.641 397.65L654.721 397.23L655.081 397.39L656.191 398.81L656.011 400.78L656.461 401.1L657.541 403.69L658.761 405.52L662.231 407.85L663.101 409.28L664.411 409.94L665.911 409.79L668.121 410.91L669.411 410.27L671.091 410.16L671.391 409.44L671.051 407.62L671.351 406.32L674.141 406.19L677.791 406.99L679.431 408.54L680.991 409.2L681.761 410.1L682.441 409.68L686.421 411.26L686.401 412.9L686.191 427.4L675.631 427.58L676.161 426.55L676.921 426.27L675.821 424.48L674.511 424.11L674.321 423.28L669.981 422.08L670.731 419.42L669.461 416.12L666.901 414.86L666.851 412.85L665.791 411.49L664.581 411.77L663.391 411.59L662.801 412.03L662.241 411.73L662.361 411.14L660.911 410.77L660.201 412.61L658.251 412.64L656.481 412.16L656.521 412.6L656.091 412.52L655.971 412.89L656.381 414.64L655.991 415.42L652.701 416.61L652.131 417.44L646.301 421.71L643.881 423.96L641.971 424.8L641.161 424.49L640.501 423.62L640.461 422.96L639.251 421.02L638.711 420.82L638.271 421.17L637.021 421.23L636.661 420.9L636.961 419.03L634.891 416.85L634.511 415.92L634.651 415.34L636.071 413.22L636.421 411.53L633.631 411.62L632.861 411.27L631.471 409.58L629.331 408.73L628.791 409.34L627.131 409.62L626.381 416.7L625.791 417.86L624.591 418.65L623.201 420.52L623.141 422.13L620.611 425.3L618.681 424.54L618.301 422.34L618.681 421.34L618.511 420.09L617.401 417.01L616.961 416.53L614.451 415.56L614.031 414.98L612.871 414.94L611.431 412.91L610.041 412.52L608.981 411.56L609.001 408.54L608.441 407.07L608.321 404.24L607.811 403.84L608.671 402.97L609.591 403.48L609.831 403.19L607.561 402.8L609.451 401.91L613.911 400.4L614.051 401.64L616.711 401.17L617.291 400.76L617.001 399.79L617.711 399.38L618.751 399.24L618.981 399.68L619.731 399.74L621.041 399.5L621.641 398.87L621.521 397.68L624.801 396.88L625.051 397.56L625.901 396.69L631.281 396.46L632.161 396.87L631.491 397.43L631.561 398.32L632.361 398.36L633.161 397.92L633.231 398.2H633.901L634.281 397.64L632.451 396.89L633.531 396.43L636.421 396.71L638.641 396.41L641.651 394.78L643.941 392.03L649.221 391.04Z" fill="#CCCCCC" stroke="white" stroke-width="0.5"/>
<path d="M517.86 240.5L517.62 244.96L517.34 245.05L517.86 240.5ZM524.63 214.1L525.09 214.26L522.25 221.23L521.92 219.86L522.17 218.96L522.75 218.46L522.89 217.45L524.63 214.1ZM515.93 295.42L513.93 296.82L512.41 295.18L511.99 294.04L510.79 292.99L509.44 292.82L507.87 291.62L506.72 291.23L506 289.93L503.46 290.22L503.06 290.92L503.27 291.61L501.29 292.05L501.14 291.45L500.73 291.63L500 291.05L498.89 290.83L494.73 291.08L492.95 292.09L491.99 291.92L489.85 292.36L487.96 291.18L487.25 291.97L484.93 292.05L482.93 291.66L481.14 291.88L478.99 289.03L478.07 286.51L477.24 285.34L475.86 284.26L474.17 283.7L473.36 282.41L472.74 282.08L471.77 282.64L471.82 283.67L471.17 284.1L468.97 283.37L465.71 283.11L461.5 281.74L460.41 280.81L460.22 280.12L459.99 277.14L460.33 273.51L459.85 272.36L458.82 271.58L458.67 269.53L457.78 268.47L458.2 267.7L457.66 266.35L458.46 265.67L461.56 266.05L461.77 264.28L461.38 261.44L461.71 260.48L463.18 258.71L463.85 255.9L466.16 254.67L468.71 255.35L469.42 255.21L471.17 254.24L471.51 252.73L471.87 252.63L474.12 253.08L473.36 250.74L471.99 249.96L470.59 246.33L468.83 244.24L469.69 237.47L468.43 234.84L466.59 234.93L466.37 234.65L467.06 232.55L469.06 231.2L471.93 229.93L473.24 227.8L474.99 227.91L476.11 226.31L477.26 225.83L477.62 224.8L478 224.67L478.39 226.19L479.5 225.74L479.97 224.14L480.89 223.45L481.8 223.36L482.18 221.69L481.51 221.33L480.91 219.09L481.16 218.69L482.42 218.28L483.88 216.31L484.39 216.35L484.99 217.52L487.79 217.75L488.54 215.72L489.53 214.58L493.91 213.73L494.9 212.6L495.67 212.52L497.04 211.08L498.29 210.45L498.88 209.08L500.42 207.51L500.4 206.99L500 206.72L498 206.09L497.01 205.26L497.42 204.46L496.73 202.89L496.94 200.82L497.41 200.05L496.82 198.53L497.12 195.19L496.32 194.17L496.19 192.7L495.5 192.26L492.11 192.94L491.05 192.79L488.39 194.31L487.43 193.77L486.24 191.43L485.59 190.84L482.31 190.38L481.93 189.72L481.11 189.26L482.01 188.93L481.25 187.59L481.61 186.87L481.43 186.27L480.8 186.22L480.05 186.96L479.36 186.87L478.19 185.25L478.25 184.26L476.83 184.38L475.02 181.9L473.77 177.76L471.89 177.53L471.04 175.63L470.37 175.23L469.49 175.61L468.69 174.79L468.92 171.57L469.39 170.28L468.87 169.5L467.61 168.84L466.15 168.89L466.02 167.77L466.83 165.38L468.47 163.99L468.05 160.8L466.9 159.66L466.66 158.28L466.88 155.82L465.61 154.95L466.78 153.53L466.73 152.65L462.73 152.46L462.13 152.01L462.48 150.94L462.21 150.15L462.83 149.46L465.61 148.66L466.89 146.94L467.54 146.6L467.72 146.89H468.98L469.09 147.6L469.79 147.78L469.97 147.39H470.72L471.42 148.44L471.76 148.17L472.12 148.37L472.83 149.59L472.45 151.31H473.2L473.64 151.84L473.3 154.74L472.31 156.73L473.35 156.87L473.22 157.8L473.49 158.08L474.23 157.89L474.59 158.44L474.98 160.37L474.63 162.38L474.94 162.84L474.42 163.5L474.58 164.72L475.34 164.88L476.17 166.09L475.88 166.48L476.34 167.21L477.4 167.52L477.82 169.02L478.59 169.29L479.61 171.37L479.55 172.15L480.43 173.2L480.9 175.56L481.32 175.78L481.42 178.15L482.64 178.7L483.35 179.87L482.88 181.13L483.85 182.15L484.66 181.73L485.46 182.28L486.33 182.07L486.81 182.2L486.86 182.8L487.61 182.69L488.35 183.27L488.71 182.99L490.64 182.98L490.97 183.87L492.26 184.13L493.78 186.16L496.16 186.05V186.63L496.47 186.52L496.65 186.96L497.15 186.48L498.09 186.94L498.04 187.36L499.64 187.01L499.65 187.67L501 188.88L502.32 188.76L502.36 189.52L503.11 190.32L504.6 191.18L505.39 191.25L505.75 191.69L506.29 191.17L506.99 191.77L508.72 191.26L509.09 191.98L509.76 192.01L509.86 191.5L511.12 191.33L511.47 191.69L514.09 191.42L514.79 191.84L515.53 191.49L515.92 191.72L515.77 192.2L516.6 192.44L519.49 192.43L520.6 194.34L521.05 194.21L521.55 195.19L521.94 194.92L522.67 196.27L524.57 196.84L524.38 197.15L525.02 197.58L526.53 197.31L526.42 195.64L527.12 195.05L527.6 195.37L527.78 195.02L528.71 194.98L528.78 194.47L530.4 194.2L531.77 194.15L532.12 194.43L531.79 199.38L530.81 203.18L525.16 214.25L524.37 214L526.18 210.89L525.47 210.32L525.93 209.71L525.52 209.12L524.4 209.17L524.56 208.62L523.02 208.46L522.4 207.67L521.4 208.75L522.13 208.62L522.82 209.74L523.04 209.55L523.37 210.65L523.06 210.9L522.82 210.37L522.19 210.57L521.81 211.34L522.16 211.53L522.47 212.77L521.7 213.05L521.4 211.68L520.57 212.29L520.21 211.7L520.2 210.58L518.41 210.34L518.47 210.78L517.6 211.59L518.11 212.4L517.8 213.34L517.28 213.42L516.39 212.82L516.18 213.38L516.74 213.47L517.39 214.36L517.7 214.15L518.28 214.47L518.09 215.25L518.98 215.91L518.21 216.97L518.27 218.28L516.93 221.2L517.33 221.65L518.07 221.62L518.47 222.36L519.33 222.56L517.82 223.69L517.59 224.68L517.17 224.75L517.12 225.44L517.72 225.8L517.85 226.58L517.31 229.55L517.72 229.66L518.05 230.49L517.18 234.72L516.67 234.76L516.39 234.22L516.52 232.79L515.55 233.07L514.68 232.42L514.91 233.35L514.22 233.79L514.63 234.35L514.33 235.38L515.25 237.59L515.63 237.77L515.41 238.47L516.01 238.32L516.13 236.68L516.89 235.98L517.13 239.2L516.45 245.61L516.1 246.08L515.87 246L516.13 245.44L515.54 245.36L515.49 245.86L516.38 246.29L516.42 253.35L517.3 253.81L517.34 254.22L516.9 254.54L516.55 256.61L516.73 257.27L517.08 257.36L517.18 255.38L516.93 255.42L516.85 254.71L517.38 254.4L516.44 264.03L516.74 275.04L516.53 278.63L516.06 279.28L515.68 281.2L514.43 282.71L513.45 284.79L513.28 286L514.26 286.73L514.31 289.55L513.92 289.52L513.91 290.51L514.47 292.46L514.92 292.33L516.09 295.06L515.93 295.42Z" fill="#CCCCCC" stroke="white" stroke-width="0.5"/>
<path d="M506.619 363.39L508.679 363.77L509.289 363.53L510.839 361.7L511.329 361.77L512.039 362.83L516.139 366.24L516.009 367.97L516.849 368.14L518.379 367.64L518.969 368.02L520.179 369.26L520.489 370.43L521.159 371.03L522.099 371.23L521.819 372.38L520.999 372.93L518.319 373.44L517.479 373.12L516.079 375.45L514.839 376.29L514.069 376.34L512.609 375.35L512.039 375.39L508.969 378.07L508.109 378.21L504.049 375.97L502.869 374.66L502.329 373.28L501.009 371.9L497.979 369.59L496.819 369.22L496.119 369.51L495.589 368.91L494.829 369.16L493.869 367.33L498.879 365.62L499.879 365.85L501.969 365.57L503.419 364.36L504.239 362.89L506.619 363.39Z" fill="#CCCCCC" stroke="white" stroke-width="0.5"/>
<path d="M525.699 316.03L524.969 318.08L524.149 319.06L524.029 317.55L525.699 316.03ZM518.269 305.51L519.959 309.08L519.479 308.94L518.509 307.36L518.269 305.51ZM520.359 306.55L522.259 308.96L527.589 313.86L526.939 316.94L525.229 321.08L524.709 321.53L524.529 319.47L526.299 316.04L526.169 314.71L524.419 313.06L523.129 311.06L520.299 307.93L518.819 304.25L518.349 304.37L518.429 303.57L520.359 306.55ZM492.949 292.09L494.729 291.08L498.889 290.83L499.999 291.05L500.729 291.63L501.139 291.45L501.289 292.05L503.269 291.61L503.059 290.92L503.459 290.22L505.999 289.93L506.719 291.23L507.869 291.62L509.439 292.82L510.789 292.99L511.989 294.04L512.409 295.18L513.929 296.82L515.929 295.42L516.559 300.79L518.219 305.33L518.099 306.35L517.699 306.57L518.319 307.92L518.749 311.18L519.579 312.11L519.659 313.22L521.509 316.48L523.019 316.14L523.539 316.89L523.159 318.19L523.659 319.93L524.649 320.73L524.719 321.85L525.229 322.02L525.969 324.92L530.659 334.86L531.299 337.8L532.089 339.16L536.269 343.28L536.979 344.5L542.889 350.88L546.349 355.24L546.989 356.62L549.599 359.51L550.749 362.79L550.859 364.79L551.499 365.85L551.399 366.96L552.919 369.09L552.739 370.89L553.409 373.53L555.129 374.85L556.349 375.31L556.519 376.01L557.509 376.46L558.469 377.82L558.159 378.47L558.369 379.37L559.129 380.03L561.539 380.37L561.839 382.89L562.509 384.66L563.369 385.59L566.889 387.28L566.899 388L564.859 386.65L563.889 386.57L563.829 386.87L564.299 387.02V387.67L565.049 387.99L565.359 388.6L565.239 388.84L564.569 388.51L564.229 388.8L564.399 389.3L565.569 389.17L565.499 388.51L566.409 388.24L567.039 388.54L567.259 387.35L569.059 388.52L571.769 389.26L581.299 389.5L584.299 391.85L584.879 393.02L587.089 393.63L590.419 393.93L590.929 394.36L591.499 396.2L592.259 396.97L592.389 397.64L595.189 400.43L595.749 402.82L598.419 404.1L602.209 403.71L609.479 401.91L607.589 402.8L609.859 403.19L609.619 403.48L608.699 402.97L607.839 403.84L608.349 404.24L608.469 407.07L609.029 408.54L609.009 411.56L610.069 412.52L611.459 412.91L612.899 414.94L614.059 414.98L614.479 415.56L616.989 416.53L617.429 417.01L618.539 420.09L618.709 421.34L618.329 422.34L618.709 424.54L620.639 425.3L616.919 428.19L614.969 429.05L614.029 430.18L585.459 428.43L585.789 427.06L585.149 426.49L585.159 425.5L581.709 422.72L578.349 418.31L578.579 417.18L580.069 416.52L580.249 415.84L578.879 415L578.459 414.94L577.249 416.02L573.589 416.94L570.579 419.05L567.709 419.21L566.449 419.87L564.489 419.29L562.309 414.86L562.479 413.69L562.139 412.97L562.869 412.29L563.859 409.71L564.669 408.6L564.889 407.35L563.889 403.56L563.369 403.12L561.339 402.64L560.189 402.83L558.759 402.31L556.289 403.1L555.589 402.75L556.119 401.85L554.739 401.76L553.719 399.87L552.329 399.06L551.019 399.44L549.059 397.88L548.419 396.98L547.819 394.24L548.399 392.97L547.399 392.62L546.249 391.47L545.599 392.08L545.549 392.94L546.049 393.68L545.749 394.64L544.579 396.82L542.729 394.65L540.149 393.83L538.759 394.63L537.799 395.68L536.369 395.58L534.509 392.45L534.679 391.7L530.869 390.58L530.019 389.86L529.659 388.74V385.76L531.519 383.35L531.589 382.8L531.069 376.68L531.249 375.78L536.069 376L536.599 375.88L536.759 375.18L536.649 373.89L536.179 373.3L533.249 372.03L529.619 371.21L528.179 370.22L527.839 369.8L528.399 368.42L527.019 365.44L527.259 364.74L527.829 364.5L528.809 361.87L529.479 361L529.819 360.03L529.509 359.05L529.699 358.24L531.359 353.96L533.509 350.98L533.439 350.47L526.379 347.98L525.559 348.65L524.339 350.6L522.729 352L522.139 351.81L521.279 350.03L519.239 350.25L518.559 349.7L518.099 347.33L518.039 343.32L519.209 342.56L520.819 343.48L522.319 341L521.839 339.88L519.619 338.66L518.809 337.83L518.649 336.98L519.009 336.15L518.199 335.55L517.329 335.74L517.169 335.44L518.399 334.68L518.409 332.89L516.379 333.21L515.189 332.82L514.919 333.84L514.039 334.78L513.959 335.62L512.989 336.37L512.289 338.93L510.839 337.98L510.009 338.34L507.869 340.67L506.269 341.4L504.379 343.63L501.899 344.78L500.569 346.33L500.069 346.55L499.189 345.47L498.019 342.88L498.269 340.8L498.849 339.5L499.179 335.84L499.829 335.3L500.139 334.44L502.529 332.28H502.989L504.329 333.67L505.779 333.44L506.029 332.81L505.469 331.76L506.099 329.55L507.959 327.09L505.429 323.67L503.399 323.05L502.539 323.94L501.219 323.88L499.959 323.22L498.129 321.51L498.429 318.85L498.129 318.1L497.279 317.93L497.149 314.58L495.819 314.36L494.929 311.05L495.139 310.2H496.399L496.349 309.5L497.399 309.55L497.689 308.73L499.399 307.94L498.209 306.83L498.169 306.35L497.719 306.47L497.129 305.74L497.259 304.51L496.909 304.25L497.489 303.72H496.349L495.969 303.34L496.239 302.92L498.419 303.18L498.829 302.91L499.079 302.24L498.769 299.69L499.829 298.98L502.359 298.93L501.159 295.37L500.509 294.64L496.069 293.26L493.709 293.3L493.179 293.04L492.949 292.09Z" fill="#CCCCCC" stroke="white" stroke-width="0.5"/>
<path d="M772.601 315.89L772.931 321.19L772.791 321.95L771.911 322.82L771.441 325.98L772.771 329.18L772.671 330.15L771.531 332.2L771.041 334.65L770.181 335.73L769.921 337.31L769.061 338.48L767.341 339.3L764.211 342L761.101 343.84L759.591 343.73L758.061 344.17L756.921 343.17L755.751 343.73L754.251 346.49L754.501 348.68L754.141 348.73L753.211 347.05L752.201 347.04L751.701 347.46L750.911 349.83L750.451 350.31L744.941 352.29L743.161 353.33L741.281 354.93L741.551 355.62L741.251 355.94L740.171 355.02L738.251 356.8L737.061 357.21L734.631 357.24L732.201 358.29L730.811 359.68L727.271 359.85L726.711 360.34L726.881 361.21L726.561 362.66L725.631 364.67L725.191 364.21L724.401 360.77L721.241 357.19L720.061 354.7L716.211 352.6L714.221 348.14L712.401 346.98L711.831 345.94L711.941 345.03L710.911 343.27L710.491 342.99L709.701 343.72L709.301 344.73L708.821 344.82L707.881 343.84L706.761 344.18L706.321 344L705.351 341.99L701.221 341.47L701.381 334.18L701.451 332.8L702.061 332.21L702.781 330.5L702.631 329.98L702.301 330.19L701.191 333.62L700.631 334.16L700.931 332.61L701.951 329.65L703.001 328.27L708.601 324.73L711.101 324.16L713.181 322.88L714.101 322.87L714.361 322.42L715.341 322.11L718.241 321.44L718.301 321.84L718.871 321.83L718.751 321.54L719.401 321.18L723.401 320.45L740.001 318.25L745.031 316.34L745.591 314.94L751.091 313.77L754.321 314.03L755.651 313.66L757.911 312.19L760.001 312.66L759.831 313.11L761.561 313.74L765.151 313.99L765.651 314.8L766.661 315.37L768.831 315.46L770.731 316L771.151 315.59L767.371 314.66L772.601 315.89Z" fill="#CCCCCC" stroke="white" stroke-width="0.5"/>
<path d="M391.91 219.95L391.93 218.32L392.56 217.79L397.96 216.72L407.36 217.33L409.9 219.04L412.4 220.01L414.36 221.67L416.52 224.74L417.99 224.33L419.15 224.65L419.77 228.21L422.6 228.23L423.52 227.35L425.79 226.84L428.75 227.21L430 228.03L431.92 231.79L433.29 233.09L435.38 233.9L436.82 233.53L437 232.75L437.75 232.43L439.87 232.9L439.32 233.32L438.51 233.76L438.15 235.54L436.96 236.54L436.27 238.26L435.29 238.76L433.71 238.69L433.04 239.21L432.83 240.7L431.91 242.48L430.55 243.36L428.68 243.84L428.04 244.46L427.21 247.91L428.22 249.09L427.04 252.05L425.94 253.59L421.2 255.18L417.72 260.32L414.16 262.45L411.88 263.29L411.03 264.32L410.51 265.76L407.57 266.34L405.25 265.41L404.59 265.61L403.72 267.28L404.34 268.09L403.83 269.78L404.86 272.8L403.6 276.79L403.4 278.05L403.65 279.56L404.59 280.56L408.77 283.09L409.88 284.41L412.19 284.75L413.26 285.33L414.18 287.33L415.66 289.35L417.74 289.4L420.17 288.67L424.62 284.06L426.08 283.36L426.79 283.31L428.76 285.89L428.57 287.54L425.27 294.84L426.65 298.7L426.29 300.34L425.9 300.31L425.77 300.86L426.03 301.04L425.68 302L423.75 305.97L422.94 306.91L421.97 306.28L421.69 305.89L419.6 305.14L416.93 302.79L414.8 301.65L411.26 300.74L410.12 298.7L409.53 296.26L405.09 293.63L403.76 292.29L402.99 290.9L402.26 291.07L401.87 292.33L400.66 293.25L397.19 295.22L395.4 295.6L394.33 296.33L393.4 299.57L390.07 304.16L388.83 307.03L388.9 308.24L391.24 310.5L391.15 312.71L391.8 314.56L394.58 316.34L394.1 319.03L393.14 320.34L390.85 321.74L387.27 324.65L385.75 324.15L384.38 324.64L383.75 325.18L383.42 327.2L381.95 327.72L381.84 328.09L380.13 327.66L378.79 327.92L378.57 328.48L377.69 328.41L376.7 328.89L373.8 327.28L371.54 327.47L370.6 326.98L369.85 325.28L369.1 324.47L366.6 323.85L366.43 323.35L370.47 321.54L371.64 320.42L371.74 319.4L371.4 318.82L370.73 318.68L369.71 319.17L368.78 318.63L367.93 316.15L369.72 315.69L371.34 313.81L371.67 311.34L371.49 309.55L374.41 307.48L376.18 305.75L379.46 304.07L380.72 303.87L381.46 303.18L382.65 300.27L383.35 296.8L382.84 296.42L380.69 296.28L380.19 295.84L380.95 294.33L380.54 293.47L378.37 293.3L376.49 294.03L376.18 295.9L377.42 296.93L375.03 298.82L374.1 300.55L373.2 300.99L372.49 300.47L371.22 300.27L370.53 301.07L368.6 301.05L368.02 300.39L368.11 299.94L371.89 293.77L371.93 292.61L371.33 290.68L369.93 289.36L368.51 288.85L365.08 289.52L364.45 290.09V297.13L364.07 298.29L362.91 298.12L361.7 296.34L361.74 293.02L363.43 288.8L364.88 286.93L365.98 286.11L366.15 285.2L364.34 284.19L361.68 284.57L359.52 286.1L359.41 286.89L361.15 290.73L361.31 292.16L360.28 293.34L358.48 294.48L358.21 293.99L359.26 290.75L358.73 290.38L355.63 291.55L355.27 294.58L353.92 294.24L352.84 295.45L352.12 295.02L351.69 294.06L351.49 291.29L352.65 288.24L353.66 286.73L356.87 285.31L357.12 284.68L357.28 279.13L356.43 276.04L356.51 274.76L357.88 272.03L358.49 271.66L359.78 265.89L359.87 264.01L362.19 261.12L364.99 258.7L364.1 254.43L364.55 253.23L364.18 251.34L364.49 249.66L364.12 248.01L363.34 247.5L363.57 246.18L365.97 245.46L368.23 243.32L370.3 240.49L372.7 238.67L373.17 237.33L374.88 235.96L378.78 236.23L381.01 236.93L383.26 236.13L384.38 236.23L385.38 236.93L388.04 237.8L388.8 236.89L390.48 237.12L396.55 236.54L396.67 235.86L396.17 235.49L396.19 235.08L397.16 234.56L396.14 230.56L394.93 230.11L395.74 225.21L394.94 224.27L393.41 223.56L393.05 222.46L392.3 222.12L392.26 220.47L391.91 219.95Z" fill="#CCCCCC" stroke="white" stroke-width="0.5"/>
</svg>
