<svg width="614" height="770" viewBox="0 0 614 770" fill="none" xmlns="http://www.w3.org/2000/svg">
<path d="M423.71 447.6L424.02 446.63L424.87 433.5L423.51 424.64L419.93 419.52L415.49 420.54L412.85 422.85L414.9 413.21L413.36 410.15L408.76 405.03L403.48 404.35L401.77 401.79L402.62 394.29L406.2 389.69L405.35 386.29L410.29 382.27L421.55 380.74L423.08 382.1L424.27 384.15L425.47 389.77L428.54 392.84L430.92 391.99L433.65 388.75L440.13 380.22L449.16 379.37L450.7 378.18L451.38 372.38L450.36 365.56L451.89 362.66L456.32 360.11L458.2 353.8H460.25L463.14 354.74L472.35 364.45L474.74 370.59L474.4 374.68L471.33 381.67L473.37 385.59L472.18 387.64L464.51 385.25L461.95 385.59L461.27 391.73L462.29 394.29L467.07 398.21L473.71 400.94L477.47 399.06L481.05 396.85L484.63 394.97L490.59 397.36L492.81 399.92L492.3 403.5L490.08 406.91L491.1 410.66L493.49 416.28L491.79 419.69L490.76 416.79L490.42 415.09H488.89L488.38 413.9L489.57 413.38L488.21 412.19L479 411.34L478.15 413.04L477.12 415.43V419.35L475.59 422.08L477.98 426.68L479.34 428.39L481.56 434.18L464 433.67L456.5 440.15L449.85 441.85L444.9 446.8L444.73 450.21L446.78 454.47L446.1 458.9L440.47 458.73L438.08 456.52L436.55 453.79L432.12 448.5L427.34 446.63L423.71 447.6Z" fill="#CCCCCC" stroke="white" stroke-width="0.5"/>
<path d="M197.57 186.23L197.61 186.17L198.86 184.73L198.8 184.22L211.71 187.23L212 185.31L208.93 182.81L209.6 181.57L213.15 177.54L218.9 177.25L219.44 176.39L221.21 180.22L223.41 180.51L228.97 184.64L231.95 183.58L236.64 177.64L238.08 177.92L239.71 182.62L241.34 183.87L241.54 188.47L237.7 192.02L241.34 195.28L240.58 199.12L235.88 198.92L233.1 196.72L230.03 198.83L221.49 199.79L219.77 200.55L211.33 201.42L209.41 200.46L208.74 198.64L211.81 195.76V194.32L208.07 191.64L198.29 189.62L197.57 186.23Z" fill="#CCCCCC" stroke="white" stroke-width="0.5"/>
<path d="M494.39 432.38L492.82 434.94L481.22 433.09L479.34 428.39L477.98 426.68L475.59 422.08L477.12 419.35V415.43L478.15 413.04L479 411.34L488.21 412.19L489.57 413.38L488.38 413.9L488.89 415.09H490.42L490.76 416.79L491.79 419.69L491.97 428.6L493.68 432.2L494.39 432.38Z" fill="#CCCCCC" stroke="white" stroke-width="0.5"/>
<path d="M90.29 31.08L91.68 30.48L100.44 34.83L97.29 43.45L107.35 50.44L108.44 53.72L106.04 61.59L108.88 64.65L108.22 66.62L104.72 69.9L100.57 69.24L98.6 73.18L93.8 72.74L88.11 68.59L87.68 65.96L89.86 61.59L88.77 60.5L85.93 59.63L82.43 61.37L81.56 63.78L77.62 66.4L76.75 83.23L67.09 94.6L63.3 97.14L60.22 95.68L56.58 91.71L60.08 90.07L62.04 90.8L63.06 88.98L56.13 86.82L56.47 84.09L54.88 80.11L51.92 78.07L50.66 78.54L50.9 82.04L49.99 83.41L47.55 83.44L45.67 80.45V76.36L39.31 71.36L35.9 70.56L35.78 68.52L32.37 65.79L27.14 62.83H24.87L21.97 66.15L20.17 66.38L19.3 61.81L17.14 62.15L15.75 65.63L14.19 65.68L13.05 61.58L11.02 63.14L11.12 66.02L9.87 67.04L7.48 63.29L2.85 62.28L1 56.58L5.32 50.22L9.87 49.54V41.81L12.59 40.33L13.96 40.78L20.89 51.81L28.17 51.7L29.42 49.88L28.28 48.63L28.74 42.72L27.14 36.35L24.3 31.24L34.19 30.33L36.58 23.51L38.62 23.96L43.86 29.44L54.88 37.26L57.27 37.37L63.18 32.6L67.84 36.24L69.77 35.33L67.72 24.19L70.34 22.48L77.38 25.21L82.17 29.23L90.29 31.08Z" fill="#CCCCCC" stroke="white" stroke-width="0.5"/>
<path d="M372.188 528.29L370.308 525.39L370.998 522.84L376.448 520.96L381.738 517.38L393.328 505.62L396.228 504.93L403.218 507.32L407.828 513.43L408.418 516.36L412.338 517.55L410.368 521.23L404.838 521.76L397.588 526.07L399.978 538.86L403.558 542.9L406.458 552.5L404.758 560.29L400.148 563.24L398.958 565.46L398.448 567.33L400.358 569.47L389.238 566.65L383.098 561.36L377.818 563.41L376.448 566.65L368.608 565.46L361.788 567.84L358.718 567.33L358.888 563.92L355.648 556.42L358.888 555.57L364.858 556.42L381.058 551.99L382.758 551.31L385.148 545.17L384.118 541.59L376.108 536.3L373.898 530.85L372.048 530.18L372.188 528.29Z" fill="#CCCCCC" stroke="white" stroke-width="0.5"/>
<path d="M328.318 734.94V737.5L317.378 740.21L314.138 742.43L312.608 741.58L311.248 736.13L310.738 724.03L311.758 721.98L319.608 720.28L323.778 722.87L328.318 734.94ZM319.078 615.49L318.738 619.24H318.808L318.228 620.26L310.898 621.45L309.018 623.16L308.508 631.85L306.118 637.31L307.138 639.19L307.988 655.39L312.928 660.16L314.118 662.89L312.068 665.62L310.878 666.64L309.348 666.47L300.308 666.3L298.948 667.49L300.998 678.4L302.878 680.79L311.748 682.5L317.038 689.66L319.768 686.42L322.498 688.47V693.75L323.858 696.65L327.438 699.55L326.928 703.13L325.228 703.64L324.548 706.09L320.798 706.45L315.348 707.99L309.718 707.65L304.438 705.43L297.788 704.92L291.138 699.81L288.748 699.98L287.388 701.34L287.558 716.68L289.948 721.8V731.52L285.348 736.98V740.56L287.908 743.63L289.438 745.85L289.268 748.58L287.218 749.26L285.168 750.79V752.77L281.338 753.09L274.858 762.47L274.178 769.29L270.358 768.19L268.508 766.4L266.798 761.56L266.938 752.31L263.378 749.89L263.518 744.49L257.398 743.64L253.418 738.24L249.718 736.82L252.278 731.7L254.408 731.56L256.398 728.43L262.368 728L264.788 725.44L263.508 719.32L265.928 714.34L264.508 704.81L261.518 698.69L262.228 692.43L258.818 690.58L254.698 679.56L255.548 660.92L252.848 650.96L253.698 646.98L251.988 639.87L248.008 633.75L249.578 630.48L250.008 621.95L248.868 618.96L252.138 614.69L251.958 612.72L261.468 610.24L269.308 610.75L274.598 613.14L276.478 611.78L282.278 611.27L284.838 614.17L288.928 618.26L290.808 618.6L300.528 616.55L306.158 617.91L307.868 609.56L312.638 608.54L314.858 606.84L316.708 605.64L318.948 606.84L319.078 615.49Z" fill="#CCCCCC" stroke="white" stroke-width="0.5"/>
<path d="M321.899 278.08L322.319 293.62L330.849 296.69L332.719 298.73L331.359 300.27L328.799 301.63L326.929 307.26L320.279 308.62L316.359 314.08L307.829 317.66L307.149 319.53L312.779 321.41L314.989 328.91L313.289 335.73L307.999 336.24L304.759 341.01L292.659 346.81L283.109 347.83L280.719 346.31L281.239 345.62L269.979 340.5L264.019 340.33L259.419 335.22H255.149L250.039 332.66L248.329 331.64L248.159 327.2L241.859 323.17L249.189 315.44L255.489 303.51L268.279 292.94L269.299 279.81L270.129 277.58L273.479 278.27L288.139 279.98L293.599 283.22L298.199 283.73L305.699 281L319.169 278.96L321.899 278.08Z" fill="#CCCCCC" stroke="white" stroke-width="0.5"/>
<path d="M353.522 448.78L359.572 448.84L364.862 450.89L367.762 452.94L369.292 458.39L372.022 461.12L376.112 460.95L378.162 459.76V454.13L379.692 450.38L382.252 447.65L384.642 446.97L390.772 450.04L392.992 452.42L395.042 457.71L393.672 464.53L394.262 464.51L394.522 467.77L399.642 476.63V479.53L401.342 484.65H406.122L412.432 479.19H415.492L417.882 480.04L418.732 482.43L418.902 489.42L417.372 494.53L416.522 507.32L417.882 510.04L415.342 510.34L415.262 513.05L412.342 517.55L408.422 516.36L407.832 513.43L403.222 507.32L396.232 504.93L393.332 505.62L381.742 517.38L376.452 520.96L371.002 522.84L370.312 525.39L372.192 528.29L372.022 530.51L368.782 531.53L364.522 530.51L358.382 526.76L342.702 522.84L336.392 518.06L330.422 520.62L323.172 516.7L324.452 515.85L330.422 508.34L329.912 500.84L333.152 496.41L334.002 493L331.782 469.98H332.812H335.712L338.602 466.23L339.122 460.44L338.092 458.56L340.992 451.4L344.402 451.06L345.772 454.47L348.152 454.3L348.832 452.25L351.732 450.21L353.522 448.78Z" fill="#CCCCCC" stroke="white" stroke-width="0.5"/>
<path d="M451.89 362.66L450.36 365.56L451.38 372.38L450.7 378.18L449.17 379.37L440.14 380.22L433.66 388.74L430.93 391.98L428.54 392.83L425.47 389.76L424.28 384.13L423.09 382.08L421.56 380.72L413.89 381.4L410.31 382.25L405.37 386.27L402.81 386.43L401.11 385.92L400.77 383.02L402.13 376.37L408.44 376.03L411.85 373.47L423.78 374.49L427.02 369.72L427.19 367.16L425.92 365.89L428.16 361.75L438.68 353.48L443.04 346.87L450.72 343.39L455.83 344.75L461.12 352.08L460.27 353.79H458.2L456.33 360.1L451.89 362.66ZM407.57 309.2V311.1L411.66 315.02L411.83 316.56L414.56 318.78H417.97L418.31 321.34L416.44 323.9L428.03 325.95L433.54 324.97L439.11 321.56V321.61L442.18 325.02L448.49 327.41L442.87 329.33L439.07 332.48L435.87 340.96L431.44 346.42L424.62 347.95L418.48 356.99L417.97 359.55L416.27 360.06L414.57 361.08L410.48 363.64L407.75 362.79L401.1 364.33L394.45 363.99L391.72 362.29L390.19 358.71L389.85 351.89L388.49 350.19L383.72 350.02L380.14 351.73L378.27 354.97L379.46 355.99L378.95 357.87L376.9 358.38L375.03 354.8L364.73 351.56L368.38 347.47H370.09L370.77 343.21L368.79 339.41L369.92 338.6V323.09L371.45 320.02L372.81 318.66L379.46 320.54L385.6 318.32L390.72 314.74L395.15 313.38L399.75 311.33L407.57 309.2Z" fill="#CCCCCC" stroke="white" stroke-width="0.5"/>
<path d="M481.218 433.09L492.818 434.94L494.388 432.38L495.048 432.54H496.928L497.098 435.11L500.868 438.36L503.428 438.87L503.768 437.16L508.398 439.05L510.618 438.36L511.818 428.6L513.188 427.75H515.758L517.468 429.63L516.608 432.03L517.808 432.88L525.168 432.54L525.678 440.93L531.498 453.59L527.218 462.15L524.998 463.52L524.708 466.67L524.138 466.77L522.428 472.08L517.128 473.28L513.868 477.39L504.968 477.56L496.928 484.57L491.108 482.35L481.518 489.88L486.318 495.01L477.758 500.15L478.268 504.77L486.328 513.97L484.278 514.14L479.238 520.63L477.528 530.05L474.398 530.85L471.328 525.9L470.818 521.13L468.768 517.38L466.768 515.92L464.168 516.18L460.928 519.6L460.248 522.15L459.898 525.05L462.458 532.38L461.758 534.56L454.338 535.39L451.718 538.35L448.818 545H444.048L441.658 542.27L442.518 536.64L447.118 530L446.098 525.73L448.818 511.07L447.798 508.69L449.478 508.18L448.308 501.35L445.408 497.6L439.788 498.29L437.018 500.63L435.078 507.98L419.848 508.66L417.878 510.04L416.518 507.32L417.368 494.53L418.898 489.42L418.728 482.43L417.878 480.04L415.488 479.19H412.428L406.118 484.65H401.338L399.638 479.53V476.63L394.518 467.77L394.258 464.51L403.898 465.21L406.798 462.31L412.598 458.9L418.388 455.15L423.168 449.36L423.708 447.6L427.338 446.63L432.118 448.5L436.548 453.79L438.078 456.52L440.468 458.73L446.098 458.9L446.778 454.47L444.728 450.21L444.898 446.8L449.848 441.85L456.498 440.15L463.998 433.67L481.558 434.18L481.218 433.09Z" fill="#CCCCCC" stroke="white" stroke-width="0.5"/>
<path d="M251.949 612.69L255.339 604.56L255.759 594.43L256.939 593.04L256.719 589.09L252.879 584.4L252.129 579.7L255.549 576.82L254.479 573.73L255.119 572.02L259.069 568.29L263.869 566.48L264.939 562.31L267.709 560.07L263.869 551.75L268.349 545.88L269.199 542.36L271.449 539.7L271.559 536.77L287.629 536.3L292.919 541.42L301.439 543.29L304.169 541.59L304.849 539.71V537.5L302.799 535.96L303.829 534.77L307.579 532.04L311.499 531.7L313.369 536.3L309.959 539.88L310.649 541.93L317.639 548.41L319.849 548.75H320.339L317.209 555.14V559.57L327.779 565.88V575.94L326.589 585.66L325.049 587.87L317.209 586.34L312.779 590.43L316.869 601.85L316.359 605.43L316.669 605.6L314.819 606.8L312.609 608.5L307.829 609.53L306.129 617.88L300.499 616.52L290.779 618.56L288.909 618.22L284.819 614.13L282.259 611.23L276.459 611.74L274.589 613.11L269.299 610.72L261.459 610.21L251.949 612.69Z" fill="#CCCCCC" stroke="white" stroke-width="0.5"/>
<path d="M418.65 360.36L417.7 359.59L416.26 360.02L414.56 361.04L410.46 363.6L407.74 362.75L401.09 364.28L394.44 363.94L391.71 362.24L390.18 358.66L389.84 351.84L388.47 350.13L383.7 349.96L380.12 351.67L378.24 354.91L379.44 355.93L378.93 357.81L376.88 358.32L375 354.74L372.45 354.57L366.99 351.5H364.7L364.09 355.93L362.05 360.19L352.5 361.9L347.04 365.48L345.34 367.69L345 371.44L347.21 376.39L347.1 376.58L362.05 389.26L363.07 394.37L365.63 396.08L373.64 397.61L378.75 401.36L380.63 413.3L384.89 419.1L393.25 419.61L402.45 426.08L408.08 427.45L412.17 426.43L412.85 422.85L414.9 413.21L413.36 410.15L408.76 405.03L403.48 404.35L401.77 401.79L402.62 394.29L406.2 389.69L405.35 386.28L401.09 385.94L402.11 376.39L408.42 376.05L411.83 373.49L423.76 374.51L427 369.74L427.17 367.18L425.13 365.14L418.65 360.36Z" fill="#CCCCCC" stroke="white" stroke-width="0.5"/>
<path d="M142.711 78.26L143.851 77.55L146.041 68.81L144.291 62.69L144.941 59.84L145.601 57.44L151.721 51.32L150.191 45.85L151.501 44.11L156.751 42.36L161.121 44.76L169.641 43.01L172.481 42.14L180.351 36.24L186.031 37.11L190.191 42.14L195.001 42.79L204.181 31.87L216.631 31.01L219.301 40.1L210.621 46.95L209.531 50.88L217.621 54.38L222.651 59.19L216.961 65.53H213.901L210.401 67.27L206.031 69.24L191.171 77.55L189.641 83.67L184.391 90.66L183.961 94.16L171.061 103.34L171.281 105.31L181.551 114.92L180.901 117.55L178.931 119.08H175.211H173.471L171.721 117.55V115.58L164.291 116.45L155.541 110.33L152.351 109.9L152.371 109.46L149.531 106.84L150.411 102.9L149.531 100.94L149.751 86.95L147.561 83.67L143.191 81.48L142.711 78.26Z" fill="#CCCCCC" stroke="white" stroke-width="0.5"/>
<path d="M238.05 131.97L242.54 143.89L242.1 148.48L239.69 150.88L238.6 154.16V156.34L231.39 169.9L227.45 167.71L227.23 165.31L222.43 168.15L220.24 171.43L217.84 174.05L215.21 170.77L210.84 170.33L204.72 172.08L201.88 171.43L185.49 152.19L180.9 150.22L173.9 149.57L169.97 146.07V138.42L166.91 130.77L171.5 129.02L173.25 126.4L173.03 122.46L174.56 119.08H175.21H178.93L180.9 117.55L181.55 114.92L171.28 105.31L171.06 103.34L183.96 94.16L184.39 90.66L189.64 83.67L191.17 77.55L206.03 69.24L208.84 67.98L211.28 69.24L215.21 78.42L227.23 79.52L242.1 94.16L248.87 104.87L248.22 111.86L245.81 113.18L244.72 117.55H239.69L238.6 121.04L234.01 124.54L237.29 131.97H238.05Z" fill="#CCCCCC" stroke="white" stroke-width="0.5"/>
<path d="M450.698 343.4L443.018 346.88L438.658 353.49L428.138 361.76L425.898 365.9L418.648 360.36L417.708 359.59L417.968 359.51L418.478 356.95L424.618 347.91L431.438 346.38L435.868 340.92L439.068 332.44L442.868 329.29L448.488 327.37L455.648 326.52L456.668 324.47L461.438 322.6L467.238 317.83L469.288 317.15L470.478 318.34L467.408 324.31L462.128 326.53L458.718 331.82V334.04L454.798 335.75L450.538 339.67L449.518 342.4L450.698 343.4ZM439.278 297.88L444.388 298.05L446.948 295.83L460.248 292.93L463.148 291.74L466.558 287.84L467.878 291.1L467.748 292.26L450.018 300.27L448.998 303L442.858 304.88L439.108 311.02L439.278 317.67L439.108 321.54L433.538 324.95L428.028 325.93L416.438 323.89L418.318 321.33L417.978 318.77H414.568L411.838 316.55L411.668 315.02L407.578 311.1V309.2L413.038 306.49L414.058 302.57L408.778 293.71L409.288 290.3H416.108L416.278 286.72L419.858 283.14L421.388 282.8L424.568 281.78L429.398 285.28L434.858 290.74L437.248 297.05L439.278 297.88Z" fill="#CCCCCC" stroke="white" stroke-width="0.5"/>
<path d="M107.48 50.85L111.28 41.92L118.28 39.52L120.68 36.89L124.61 37.11L125.27 44.76L123.74 46.95L122.87 53.07L125.27 62.47L135.98 74.05L142.54 77.11L143.19 81.48L147.56 83.67L149.75 86.95L149.53 100.94L150.41 102.9L149.53 106.84L152.37 109.46L152.15 113.18L146.25 120.17L137.29 125.85H134.67L131.39 123.89L127.67 124.32L125.27 129.57L122.21 130.44L116.31 125.85L110.84 126.07L106.25 129.13L103.19 140.93L99.6998 145.09L94.0098 146.62L93.6398 144.45L89.2999 140.62L92.1599 135.92L91.5898 134.22L85.6298 131.82L85.3398 130.24L87.4998 128.19L83.7898 126.67L82.6098 128.53L79.4498 127.79L79.3198 126.15L82.3898 122.85L81.8198 121.37L76.3798 120.41L75.6398 116.27L69.4799 111.62L68.6298 106.14L70.5598 101.71L70.1098 98.3L67.0898 94.6L76.7498 83.23L77.6199 66.4L81.5598 63.78L82.4298 61.37L85.9298 59.63L88.7698 60.5L89.8598 61.59L87.6798 65.96L88.1098 68.59L93.7999 72.74L98.5998 73.18L100.57 69.24L104.72 69.9L108.22 66.62L108.88 64.65L106.04 61.59L108.44 53.72L107.48 50.85Z" fill="#CCCCCC" stroke="white" stroke-width="0.5"/>
<path d="M165.789 294.88L160.669 292.77L160.999 289.65L164.119 284.38L163.629 282.74L160.009 280.93L162.639 271.22L158.859 269.08L156.719 265.47L153.759 267.11L144.219 261.52L143.069 259.38V253.79L140.099 251.65L136.719 240.54L146.979 231.24L155.129 226.26L158.199 225.87L163.669 228.94L166.739 228.46L175.559 209.47L179.389 204.29L181.019 204.2L186.389 208.51L190.419 206.6L194.929 198.83L196.369 187.9L197.569 186.23L198.289 189.62L208.069 191.64L211.809 194.32V195.76L208.739 198.64L209.409 200.46L211.329 201.42L219.769 200.55L220.669 200.15L223.699 202.24V204.8L219.439 210.25L220.459 213.15L227.279 222.7L233.079 226.45L233.249 229L230.519 231.73L225.399 233.27L224.209 242.98L215.689 249.12V252.19L216.879 252.87H229.669L230.349 255.94L227.449 264.12L224.719 266L222.159 265.66L217.559 263.78L214.659 264.29L213.299 265.83V273.16L210.399 276.91L199.659 276.23L192.329 277.25L187.559 281.17L178.859 283.73L172.379 293.79L165.789 294.88Z" fill="#CCCCCC" stroke="white" stroke-width="0.5"/>
<path d="M240.791 131.97L260.681 132.19L273.141 135.91L280.351 130.44L284.281 130.01L291.931 133.5L308.761 134.38L314.661 127.16L327.121 118.64L328.431 115.14L325.811 111.65L320.811 108.78L322.681 107.45L324.171 96.91L327.951 96.03L333.061 97.73L335.961 103.19L345.681 104.21L347.731 105.91L348.071 108.64L342.611 112.22L339.031 109.84L338.011 114.78L335.111 118.19L328.461 122.62L329.141 124.84L333.751 129.27H336.131L337.841 128.42L342.101 120.75L347.211 121.43L352.671 123.99L360.341 133.19L362.051 133.53L362.391 136.09L361.711 137.79L359.491 138.65L358.981 144.27L352.501 149.39V157.23L343.811 159.96L342.441 161.49L342.611 166.27L338.351 167.8L336.131 166.44L337.671 163.71L337.331 160.3L334.261 156.89L330.341 155.35L323.691 156.72L313.801 162.69L311.581 171.38L307.831 173.6V179.73L309.881 180.42L315.161 178.37L319.261 180.42L325.561 197.64L325.051 200.19L322.661 202.41L317.891 204.97L316.021 210.08L312.611 209.91L307.321 207.01L305.791 207.18L302.661 210.96L300.931 209.23L282.351 196.44L269.051 185.53L238.601 156.17V154.16L239.691 150.88L242.101 148.48L242.541 143.89L238.051 131.97H240.791Z" fill="#CCCCCC" stroke="white" stroke-width="0.5"/>
<path d="M297.772 704.91L304.422 705.42L309.712 707.64L315.342 707.98L320.802 706.45L323.072 706.55L321.222 716L318.822 717.05L319.612 720.27L311.762 721.98L310.742 724.03L311.252 736.13L312.612 741.59L314.152 742.44L317.392 740.22L328.342 737.51L327.912 739.08L321.652 742.21L321.912 746.53L323.792 746.96L324.642 749.18L324.812 753.44L315.602 757.87L310.832 756.68L306.402 757.53L292.932 752.59L285.172 752.78V750.8L287.222 749.27L289.272 748.59L289.442 745.86L287.912 743.64L285.352 740.57V736.99L289.952 731.54V721.82L287.562 716.71L287.392 701.37L291.142 699.84L297.772 704.91ZM363.382 666.3L365.372 670.31L365.202 674.57L361.792 677.3L352.932 680.71L351.612 682.69L349.612 681.3L340.232 685.39L338.532 686.07L334.612 686.75L326.092 679.93L325.242 677.2L325.752 673.28L328.142 671.92L333.602 672.43L348.772 668L363.382 666.3ZM319.432 666.3L318.412 670.39L316.192 672.1L313.122 673.46L311.252 672.95L309.202 668.35L309.452 666.48L310.912 666.64L312.102 665.62L313.512 663.75H315.512L319.432 666.3ZM323.172 516.7L330.432 520.62L336.402 518.06L342.712 522.83L358.402 526.75L364.542 530.5L368.802 531.52L372.042 530.5L372.072 530.18L373.922 530.85L376.142 536.31L384.152 541.6L385.172 545.18L382.782 551.32L381.082 552L364.882 556.43L358.912 555.58L355.672 556.43L358.912 563.93L358.742 567.34L361.812 567.85L368.632 565.46L376.472 566.65L377.832 563.41L383.122 561.36L389.262 566.65L400.382 569.47L400.942 572.55L407.852 577.26L406.562 578.5L395.652 589.24L391.732 595.89L392.072 600.83L394.462 611.4L390.202 612.93L381.852 619.07L380.832 626.57L381.852 627.76L385.602 627.25L386.792 633.39L387.632 639.6L371.612 643.04L368.892 636.13L364.462 629.82L362.412 627.09L357.982 625.22L353.042 627.27L352.022 630.68L356.622 644.15V646.2L355.092 646.88L344.692 647.39L334.122 654.89L330.372 655.06L325.942 650.97L321.002 649.09L320.322 644.15L322.882 643.3H324.412L329.012 643.47L330.032 641.08V638.52L328.162 636.99L319.302 634.26V632.39L323.732 630.17L325.782 625.74L326.122 623.01L324.072 617.73L322.372 617.22L320.152 619.27H318.792L319.132 615.52L318.962 606.83L316.402 605.47L316.912 601.89L312.822 590.47L317.252 586.38L325.092 587.91L326.632 585.69L327.822 575.97V565.91L317.252 559.6V555.17L320.382 548.78H322.792L326.202 548.44L330.972 545.88L331.992 542.3L330.462 535.31L321.772 525.25L320.752 519.28L322.452 517.24L323.172 516.7Z" fill="#CCCCCC" stroke="white" stroke-width="0.5"/>
<path d="M136.721 240.54L131.061 237.83L126.621 228.46L115.271 218.43L115.431 214.81L112.151 211.35L112.311 209.38L108.691 206.25L109.841 204.45L113.631 203.62L114.611 201.81L113.261 194.47L114.571 192.98L123.291 180.8L124.921 174.18L126.751 173.51L131.251 176.48L133.551 176.2L143.431 168.24L145.931 167.47L171.151 175.53L176.231 175.33L181.501 171.4L188.601 169.68L198.671 183.1L198.861 184.73L197.611 186.17L196.371 187.9L194.931 198.83L190.421 206.6L186.391 208.51L181.021 204.2L179.391 204.29L175.561 209.47L166.741 228.46L163.671 228.94L158.201 225.87L155.131 226.26L146.981 231.24L136.721 240.54Z" fill="#CCCCCC" stroke="white" stroke-width="0.5"/>
<path d="M287.2 368.03L291.64 368.21L298.97 373.66L304.08 370.59L308.17 372.47L313.29 369.23L315.85 371.1L319.91 371.95L330.76 401.62L334.17 401.96L345.6 415.77L347.98 416.28L350.54 414.07L353.1 414.24L359.75 425.32L360.43 429.75L355.99 435.21V439.47L358.72 439.98L358.55 443.9L354.29 448.16L351.73 450.21L348.83 452.25L348.15 454.3L345.77 454.47L344.4 451.06L340.99 451.4L338.09 458.56L339.12 460.44L338.6 466.23L335.71 469.98H332.81H326.33L316.1 470.67L307.41 461.97L305.7 461.63L301.44 465.21L295.64 466.92L295.47 469.3L298.37 473.05L298.03 482.77L295.98 485.84L288.31 486.01L285.41 484.31L281.32 477.32L277.53 477.49L273.7 479.37L267.77 461.69L263.99 454.45L262.35 441.95L256.59 435.04L256.75 432.25L253.79 428.96L253.46 422.87L251.82 419.91L252.31 412.68L250.5 410.7L253.63 408.23L253.73 405.2L254.81 404.6L261.97 409.55L264.53 407.16L271.86 408.52L275.78 407.84L274.76 388.75L279.7 385.51L286.52 384.49L287.2 375.96L285.67 371.53L287.03 368.29L287.2 368.03Z" fill="#CCCCCC" stroke="white" stroke-width="0.5"/>
<path d="M412.85 422.85L415.49 420.54L419.93 419.52L423.51 424.64L424.87 433.5L424.02 446.63L423.17 449.36L418.39 455.15L412.6 458.9L406.8 462.31L403.9 465.21L393.67 464.53L395.04 457.71L392.99 452.42L390.77 450.04L384.64 446.97L382.25 447.65L379.69 450.38L378.16 454.13V459.76L376.11 460.95L372.02 461.12L369.29 458.39L367.76 452.94L364.86 450.89L359.57 448.84L353.52 448.78L354.29 448.16L358.55 443.9L358.72 439.98L355.99 439.47V435.21L360.43 429.75L359.75 425.32L353.1 414.24L350.54 414.07L347.98 416.28L345.6 415.77L334.17 401.96L330.76 401.62L319.91 371.95L319.94 371.96L321.64 369.74L323.35 369.91L325.05 375.2L327.1 376.39L332.89 384.4L337.5 386.96H340.4L341.08 385.94L339.54 384.06L341.08 378.6L346.19 378.09L347.1 376.58L362.05 389.26L363.07 394.37L365.63 396.08L373.64 397.61L378.75 401.36L380.63 413.3L384.89 419.1L393.25 419.61L402.45 426.08L408.08 427.45L412.17 426.43L412.85 422.85Z" fill="#CCCCCC" stroke="white" stroke-width="0.5"/>
<path d="M271.56 536.77L271.23 534.31L275.34 529.21L275.18 526.41L273.53 525.26L274.35 519.34L267.77 510.13V508.15L271.39 500.92L270.74 492.53L274.52 485.13L273.7 479.37L277.53 477.49L281.32 477.32L285.41 484.31L288.31 486.01L295.98 485.84L298.03 482.77L298.37 473.05L295.47 469.3L295.64 466.92L301.44 465.21L305.7 461.63L307.41 461.97L316.1 470.67L326.33 469.98H331.78L334 493L333.15 496.41L329.91 500.84L330.42 508.34L324.45 515.85L322.41 517.21L320.7 519.25L321.73 525.22L330.42 535.28L331.96 542.27L330.93 545.85L326.16 548.41L322.75 548.75H319.85L317.64 548.41L310.65 541.93L309.96 539.88L313.37 536.3L311.5 531.7L307.58 532.04L303.83 534.77L302.8 535.96L304.85 537.5V539.71L304.17 541.59L301.44 543.29L292.92 541.42L287.63 536.3L271.56 536.77Z" fill="#CCCCCC" stroke="white" stroke-width="0.5"/>
<path d="M241.861 323.17L248.161 327.2L248.331 331.64L250.041 332.66L255.151 335.22H259.421L264.021 340.33L269.981 340.5L281.241 345.62L280.211 346.98L278.851 352.78L274.591 352.61L274.931 354.99L280.041 359.77L286.181 362.15L288.401 366.24L287.031 368.29L285.671 371.53L287.201 375.96L286.521 384.49L279.701 385.51L274.761 388.75L275.781 407.84L271.861 408.52L264.531 407.16L261.971 409.55L254.811 404.6L253.631 405.26V408.23L250.501 410.7L251.331 408.56L249.681 403.79L249.351 396.72L247.381 392.94L247.871 390.14L242.901 384.94L243.221 376.81L239.471 370.51L227.191 361.13L225.321 355.5L224.641 348.17L228.221 344.42L230.431 339.82L227.881 331.98L229.071 329.59L241.861 323.17Z" fill="#CCCCCC" stroke="white" stroke-width="0.5"/>
<path d="M160.819 9.41L161.269 11.57L166.729 12.14L174.229 17.48L177.179 17.82L185.879 12.13L193.439 12.14L197.909 13.62L212.279 23.92L215.379 27.03L216.629 31.01L204.179 31.87L194.999 42.79L190.189 42.14L186.029 37.11L180.349 36.24L172.479 42.14L169.639 43.01L161.119 44.76L156.749 42.36L151.499 44.11L150.189 45.85L151.719 51.32L145.599 57.44L144.939 59.84L144.289 62.69L146.039 68.81L143.849 77.55L142.709 78.26L142.539 77.11L135.979 74.05L125.269 62.47L122.869 53.07L123.739 46.95L125.269 44.76L124.609 37.11L120.679 36.89L118.279 39.52L111.279 41.92L107.479 50.85L107.349 50.44L97.2891 43.45L100.439 34.83L103.979 35.1L106.259 32.83L112.279 19.19L116.029 14.64L120.119 12.03L122.849 11.23L129.329 13.28L132.169 18.62L133.649 18.51L135.919 15.55L138.079 15.21L144.109 9.87L149.109 10.09L152.629 7.93L156.269 1.34L158.659 1L163.199 4.18L160.819 9.41Z" fill="#CCCCCC" stroke="white" stroke-width="0.5"/>
<path d="M424.558 281.77L421.378 282.79L419.838 283.13L416.258 286.71L416.088 290.29H409.268L408.588 292L414.038 302.57L413.018 306.49L408.758 309.05L399.718 311.26L395.118 313.31L390.688 314.67L385.568 318.25L379.438 320.47L372.788 318.59L371.418 319.96L369.888 323.03V338.54L368.698 339.39L359.488 336.5L358.808 330.87L356.588 327.29H353.518L347.898 319.45L347.728 317.23L342.778 313.48L340.908 306.66L342.098 305.64L340.908 304.1L333.228 304.61L329.308 301.36L331.358 300.27L332.718 298.73L330.848 296.69L322.318 293.62L321.898 278.08L323.428 277.59L329.228 273.67V271.11L327.518 269.07L327.858 266.17L331.788 260.37L344.908 251.51L354.798 249.46L355.988 248.27L355.138 241.79L353.778 237.87L357.018 231.22L357.608 230.71L359.658 230.88L368.348 242.98L373.978 246.05L381.818 245.03L392.558 236.85L399.038 240.26L403.298 245.54L402.788 252.53L410.638 253.55L412.648 253.71L416.428 260.37L422.568 259.52L426.658 265.49L428.878 266.17L430.238 268.21L428.368 273.84L423.928 278.96L424.558 281.77Z" fill="#CCCCCC" stroke="white" stroke-width="0.5"/>
<path d="M342.23 208.43L343.81 207.01L348.75 199.51L350.79 198.32H355.06L362.22 201.04L368.52 200.19L369.21 197.98L366.65 189.45L368.35 186.72L371.25 185.53H380.29L390.69 175.81L391.2 172.06L394.61 168.31L397.34 162.69L400.75 161.15L403.48 161.83L405.86 163.54L408.59 168.31L409.1 173.94L406.37 181.1L406.03 188.77L407.4 198.32L406.54 212.98L407.74 217.92L406.71 220.48V234.46L412.85 239.92V253.72L410.64 253.55L402.79 252.53L403.3 245.54L399.04 240.26L392.56 236.85L381.82 245.03L373.98 246.05L368.35 242.98L359.66 230.88L357.61 230.71L356.76 228.83L341.93 216.39L338.52 214.85L337.84 213.32L340.23 211.96L342.23 208.43Z" fill="#CCCCCC" stroke="white" stroke-width="0.5"/>
<path d="M113.461 195.25L105.071 186.27L101.621 178.7L105.731 177.22L104.741 173.28H101.951L99.6413 171.47L101.451 168.51L98.9912 163.74L100.301 157.49L98.3313 155.51L93.3913 155.02L89.2812 152.88L91.0912 149.1L94.0113 146.62L99.7012 145.09L103.191 140.93L106.251 129.13L110.841 126.07L116.311 125.85L122.211 130.44L125.271 129.57L127.671 124.32L131.391 123.89L134.671 125.85H137.291L146.251 120.17L152.151 113.18L152.351 109.9L155.541 110.33L164.291 116.45L171.721 115.58V117.55L173.471 119.08H174.561L173.031 122.46L173.251 126.4L171.501 129.02L166.911 130.77L169.971 138.42V146.07L173.901 149.57L180.901 150.22L185.491 152.19L201.881 171.43L204.721 172.08L210.841 170.33L215.211 170.77L217.841 174.05L218.021 173.85L219.671 176L218.901 177.25L213.151 177.54L209.601 181.57L208.931 182.81L212.001 185.31L211.711 187.23L198.801 184.22L198.671 183.1L188.601 169.68L181.501 171.4L176.231 175.33L171.151 175.53L145.931 167.47L143.431 168.24L133.551 176.2L131.251 176.48L126.751 173.51L124.921 174.18L123.291 180.8L114.571 192.98L113.461 195.25Z" fill="#CCCCCC" stroke="white" stroke-width="0.5"/>
<path d="M324.518 200.68L325.048 200.19L325.558 197.64L319.258 180.42L315.158 178.37L309.878 180.42L307.828 179.73V173.6L311.578 171.38L313.798 162.69L323.688 156.72L330.338 155.35L334.258 156.89L337.328 160.3L337.668 163.71L336.128 166.44L338.348 167.8L342.608 166.27L342.438 161.49L343.808 159.96L352.498 157.23V149.39L358.978 144.27L359.488 138.65L361.708 137.79L362.388 136.09L367.328 135.24L372.278 136.43L379.438 148.54L377.898 150.75L377.728 153.82L378.928 155.53L391.708 157.74L398.188 161.66L397.338 162.69L394.608 168.31L391.198 172.06L390.688 175.81L380.288 185.53H371.248L368.348 186.72L366.648 189.45L369.208 197.98L368.518 200.19L362.218 201.04L355.058 198.32H350.788L348.748 199.51L343.808 207.01L342.098 208.55L334.088 201.56L324.518 200.68Z" fill="#CCCCCC" stroke="white" stroke-width="0.5"/>
<path d="M221.601 265.41L222.161 265.66L224.721 266L227.451 264.12L230.351 255.94L229.671 252.87H216.881L215.691 252.19V249.12L224.211 242.98L225.401 233.27L230.521 231.73L233.251 229L233.081 226.45L227.281 222.7L220.461 213.15L219.441 210.25L223.701 204.8V202.24L220.671 200.15L221.491 199.79L230.031 198.83L233.101 196.72L235.881 198.92L240.581 199.12L241.341 195.28L237.701 192.02L241.541 188.47L241.341 183.87L239.711 182.62L238.081 177.92L236.641 177.64L231.951 183.58L228.971 184.64L223.411 180.51L221.211 180.22L219.441 176.39L219.671 176L218.021 173.85L220.241 171.43L222.431 168.15L227.231 165.31L227.451 167.71L231.391 169.9L238.601 156.34V156.17L269.051 185.53L282.351 196.44L300.931 209.23L303.491 211.79L304.681 217.07V229L299.561 233.61L301.781 241.62L301.271 245.54L296.671 247.42L288.481 243.67L272.631 243.84L270.071 240.77L268.541 240.6L263.591 242.98L259.841 248.61L261.381 261.91L263.761 267.36L263.591 270.26L261.921 272.64L247.571 270.09L243.301 274.18L233.931 267.7L223.361 270.09L221.601 265.41Z" fill="#CCCCCC" stroke="white" stroke-width="0.5"/>
<path d="M474.882 287.67L476.182 288.72L477.272 293.91L474.882 296.54L475.682 299.91L477.272 301.2L477.172 306.85L483.872 308.7L492.502 306.97L492.292 293.13L503.202 289.83L505.702 290.29L507.522 294.72L510.592 317.57L509.792 319.16L503.432 321.09L508.282 345.34L507.332 349.63L493.862 350.65L495.672 353.37L494.992 353.97L497.532 355.08L499.692 358.04L502.762 364.75L503.482 361.54L506.392 359.75L514.862 360.55L516.792 370.94L512.302 375.03L512.422 391.6L505.792 393.79L506.612 395.71L508.662 398.22L518.212 395.49L520.842 404.06L528.902 402.99L531.172 401.63L533.592 403.23L534.202 406.09L535.152 405.86L538.452 417.09L542.542 419.02L546.182 417.43L554.712 416.75L555.962 413.23L560.702 414.34L562.892 420.94L561.082 421.07L560.852 423.12L565.172 430.31L568.362 428.8L571.322 424.94H573.142L576.552 428.28L577.182 430.11L574.012 430.28L570.802 434.59L575.822 442.74L577.332 448.09L576.742 471.54L572.892 475.04L574.692 483.04L578.452 486.72L579.302 493.03L577.252 495.93L567.532 496.27L564.292 497.85L552.942 488.71L541.642 488.37L537.702 487.17L536.162 482.72L541.812 477.76L543.522 472.45L542.152 469.54L533.932 470.4L526.062 466.46L524.742 466.7L525.032 463.55L527.262 462.18L531.542 453.62L525.722 440.96L525.212 432.57L517.852 432.91L516.652 432.06L517.512 429.66L515.802 427.78H513.232L511.862 428.64L510.662 438.4L508.432 439.09L503.812 437.21L503.472 438.92L500.902 438.41L497.132 435.16L496.962 432.59H495.082L493.712 432.25L492.002 428.66L491.822 419.75L493.532 416.34L491.142 410.71L490.122 406.96L492.342 403.55L492.852 399.97L490.632 397.41L484.662 395.02L481.082 396.9L477.502 399.12L473.752 401L467.102 398.27L462.332 394.35L461.312 391.79L461.992 385.65L464.552 385.31L472.222 387.7L473.412 385.65L471.362 381.73L474.432 374.74L474.772 370.65L472.382 364.51L460.572 353.27L461.132 352.15L455.852 344.82L450.742 343.46L449.552 342.44L450.572 339.71L454.832 335.79L458.752 334.09V331.87L462.162 326.59L467.452 324.37L470.522 318.4L469.332 317.21L467.292 317.89L461.492 322.66L456.722 324.54L455.702 326.59L448.542 327.44L442.232 325.05L439.162 321.64L439.332 317.72L439.162 311.07L442.912 304.93L449.052 303.06L450.072 300.33L467.802 292.32L467.932 291.16L467.562 289.31L474.882 287.67ZM335.182 83.69L336.482 85.17L339.612 84.49L344.162 88.58L348.032 88.92L352.172 91.7L355.082 91.2L355.992 95.63L360.172 94.66L360.882 95.86L363.492 96.09L364.292 94.73L368.082 94.16L371.822 97.2L376.682 94.73L382.482 97.46L385.322 102.12L384.412 107.8L382.592 109.96L383.732 115.3L382.712 119.73L387.712 124.39L388.512 129.28L395.902 138.15L397.052 138.89L401.472 134.4L404.082 134.74L406.132 135.76L409.082 140.16L411.472 140.76L413.522 143.94L416.502 142.93L421.722 143.7L423.462 142.95L422.232 137.4L425.682 139.8L424.612 134.25L431.302 134.17L430.622 131.2L437.162 132.51L438.072 132.97L437.962 137.74L440.012 140.92L441.722 157.52L443.012 159.61L445.592 157.63L445.702 158.99L450.512 158.17L454.682 159.45L452.522 164.22L448.832 165.89L446.282 169.37L443.402 175.44L446.922 181.92L448.692 181.77L450.202 179.79L454.002 181.5L451.652 193.11L445.882 196.71L444.222 202.05L448.552 210.83L446.712 211.32L446.812 217.07L445.412 217.51L444.352 221.82L448.862 221.62L446.502 225.11L444.992 225.21L446.152 229.23L441.602 239.21L429.932 243.06L435.962 255.29L440.482 253.07L441.362 254.32L440.482 255.39L440.552 259.2L441.952 261.07L440.582 262.91L441.142 264.16L437.162 268.42L441.952 266.28L442.572 267.56L439.832 270.73L440.472 274.82L443.262 275.46L450.522 268.05L451.542 279.54L455.802 274.69L463.582 271.27L466.452 287.87L463.042 291.77L446.842 295.86L444.282 298.08L439.172 297.91L437.122 297.06L432.692 288.2L424.452 281.81L423.832 279L428.262 273.89L430.142 268.26L428.782 266.22L426.562 265.54L422.472 259.57L416.332 260.42L413.772 256.84L412.072 251.21L412.752 239.96L406.612 234.5V220.52L407.632 217.96L406.442 213.02L407.292 198.36L405.932 188.81L406.272 181.14L409.002 173.98L408.492 168.35L405.762 163.58L403.372 161.88L397.972 161.84L391.612 157.78L378.822 155.56L377.632 153.86L377.802 150.79L379.332 148.57L372.172 136.47L367.232 135.28L362.292 136.13L361.952 133.57L360.252 133.23L351.222 123L342.012 120.78L337.752 128.45L336.052 129.3H333.662L330.082 126.74L328.382 122.65L335.032 118.22L337.932 114.81L338.952 109.87L342.532 112.26L347.992 108.68L347.652 105.95L345.602 104.25L335.882 103.23L332.982 97.77L331.282 96.75L324.212 96.95L323.742 94.95L326.012 93.74L326.122 91.24L324.642 89.31L332.482 83.29L335.182 83.69Z" fill="#CCCCCC" stroke="white" stroke-width="0.5"/>
<path d="M221.85 43.63L225.38 45.33L243.55 45.59L248.95 48.05L251.59 54.08L250.57 59.84L245.61 66.13L245.5 69.09L248.11 70.79L254.38 69.57L258.34 63.97L262.55 60.79L266.18 61.13L267.66 62.61L269.37 71.47L273.8 74.43L278.15 73.75L288.86 64.94L293.33 67.16L296.7 64.82L298.07 65.28L300.8 69.14V79.26L297.84 85.06L291.82 87.67L292.84 94.15L300.57 93.24L303.87 87.1L307.84 85.28L311.48 85.74L312.5 86.88V91.88L310.46 95.85L311.33 104.64L317.28 109.04L320.81 108.78L325.81 111.65L328.43 115.14L327.12 118.64L314.66 127.16L308.76 134.38L291.93 133.5L284.28 130.01L280.35 130.44L273.14 135.91L260.68 132.19L240.79 131.97H237.29L234.01 124.54L238.6 121.04L239.69 117.55H244.72L245.81 113.18L248.22 111.86L248.87 104.87L242.1 94.16L227.23 79.52L215.21 78.42L211.28 69.24L208.84 67.98L210.4 67.27L213.9 65.53H216.96L222.65 59.19L217.62 54.38L209.53 50.88L210.62 46.95L219.3 40.1L221.85 43.63Z" fill="#CCCCCC" stroke="white" stroke-width="0.5"/>
<path d="M368.76 339.35L370.74 343.14L370.06 347.41H368.35L364.77 350.99L364.09 355.93L362.05 360.19L352.5 361.9L347.04 365.48L345.34 367.69L345 371.44L347.21 376.39L346.19 378.09L341.08 378.6L339.54 384.06L341.08 385.94L340.4 386.96H337.5L332.89 384.4L327.1 376.39L325.05 375.2L323.35 369.91L321.64 369.74L319.94 371.96L315.85 371.1L313.29 369.23L308.17 372.47L304.08 370.59L298.97 373.66L291.64 368.21L287.2 368.03L288.4 366.24L286.18 362.15L280.04 359.77L274.93 354.99L274.59 352.61L278.85 352.78L280.21 346.98L280.72 346.31L283.11 347.83L292.66 346.81L304.76 341.01L308 336.24L313.29 335.73L314.99 328.91L312.78 321.41L307.15 319.53L307.83 317.66L316.36 314.08L320.28 308.62L326.93 307.26L328.8 301.63L329.31 301.36L333.23 304.61L340.91 304.1L342.1 305.64L340.91 306.66L342.78 313.48L347.73 317.23L347.9 319.45L353.52 327.29H356.59L358.81 330.87L359.49 336.5L368.7 339.39L368.76 339.35Z" fill="#CCCCCC" stroke="white" stroke-width="0.5"/>
<path d="M564.238 497.82L567.138 502.21L573.958 506.47L582.308 507.15L584.188 510.05L584.698 515.33L589.298 522.84L591.688 523.18L593.908 527.27L596.368 527.7L599.018 524.37L602.088 525.39L606.348 529.48L611.978 528.46L612.998 531.02L611.468 533.4L596.118 542.78L594.078 541.76L578.218 541.93L572.418 539.37L566.798 543.12L564.578 549.6L561.168 550.62L555.208 546.36L552.818 540.05L549.158 535.91L545.998 523.52L542.588 519.77L538.498 517.72L537.578 518.92L539.688 523.52L537.818 528.12L533.428 528.69L529.798 525.9L525.778 526.69L525.538 532.38L527.248 541.25L521.618 545.34H514.288L507.798 541.26L506.448 538.18L507.098 535.16L506.108 530.68L499.968 528.29L495.948 528.36L494.168 526.76L492.128 516.7L488.718 513.8L486.328 513.97L478.268 504.77L477.758 500.15L486.318 495.01L481.518 489.88L491.108 482.35L496.928 484.57L504.968 477.56L513.868 477.39L517.128 473.28L522.428 472.08L524.138 466.77L526.028 466.43L533.898 470.37L542.108 469.51L543.478 472.42L541.768 477.73L536.118 482.69L537.658 487.14L541.598 488.34L552.898 488.68L564.238 497.82Z" fill="#CCCCCC" stroke="white" stroke-width="0.5"/>
<path d="M330 641.07L328.98 643.46L324.38 643.29H322.85L320.29 644.14L320.97 649.08L325.92 650.96L330.35 655.05L334.1 654.88L344.67 647.38L355.07 646.87L356.6 646.19V644.14L352 630.67L353.02 627.26L357.96 625.21L362.39 627.09L364.44 629.82L368.87 636.13L371.59 643.05L365.21 645.34L361.63 648.24L362.65 657.96L363.84 658.98L363.39 666.31L348.76 668.01L333.59 672.44L328.13 671.93L325.74 673.29L325.23 677.21L326.08 679.94L334.6 686.76L338.52 686.08L340.23 685.4L349.61 681.31L351.61 682.7L351.91 687.02L350.2 690.43L346.11 692.99L334.18 694.18L333.16 696.06L333.84 704.07L333.67 702.54L332.99 705.78L324.55 706.1L325.23 703.65L326.94 703.14L327.45 699.56L323.87 696.66L322.51 693.76V688.48L319.78 686.43L317.05 689.67L311.77 682.51L302.9 680.81L301.03 678.42L298.98 667.51L300.34 666.32L309.38 666.49L311.26 672.97L313.14 673.48L316.21 672.12L318.43 670.42L319.45 666.33L315.53 663.77H313.53L314.17 662.92L312.98 660.19L308.04 655.42L307.19 639.23L306.17 637.35L308.56 631.9L309.07 623.21L310.95 621.51L318.28 620.32L318.87 619.3H320.16L322.38 617.26L324.09 617.77L326.14 623.06L325.8 625.79L323.75 630.22L319.32 632.44V634.32L328.19 637.05L330.07 638.58V641.07H330ZM406.12 625.72L404.76 631.6L399.48 635.69L387.62 639.59L386.78 633.38L385.59 627.24L381.84 627.75L380.82 626.56L381.84 619.06L390.19 612.92L394.45 611.39L392.06 600.82L391.72 595.88L395.64 589.23L406.55 578.49L407.84 577.25L415.84 581.81L417.89 584.2L418.14 586.48L417.55 590.68L410.56 596.9L408.33 602.79L399.98 608.58L398.79 612.59L404.76 621.63L406.12 625.72Z" fill="#CCCCCC" stroke="white" stroke-width="0.5"/>
<path d="M357.55 230.56L357.02 231.22L353.78 237.87L355.14 241.79L355.99 248.27L354.8 249.46L344.91 251.51L331.79 260.37L327.86 266.17L327.52 269.07L329.23 271.11V273.67L323.43 277.59L319.17 278.96L305.7 281L298.2 283.73L293.6 283.22L288.14 279.98L273.48 278.27L266.15 276.23L261.92 272.64L263.59 270.26L263.76 267.36L261.38 261.91L259.84 248.61L263.59 242.98L268.54 240.6L270.07 240.77L272.63 243.84L288.48 243.67L296.67 247.42L301.27 245.54L301.78 241.62L299.56 233.61L304.68 229V217.07L303.49 211.79L302.66 210.96L305.79 207.18L307.32 207.01L312.61 209.91L316.02 210.08L317.89 204.97L322.66 202.41L324.52 200.68L334.09 201.56L342.1 208.55L342.23 208.43L340.23 211.96L337.84 213.32L338.52 214.85L341.93 216.39L356.76 228.83L357.55 230.56Z" fill="#CCCCCC" stroke="white" stroke-width="0.5"/>
<path d="M242.812 385.75L239.942 384.22L238.962 380.93L234.192 380.77L228.432 376.33L223.992 375.5L222.672 370.73L219.882 370.4L214.452 363L207.052 358.23L207.212 353.79L200.472 351L199.482 341.13L194.382 329.94L192.252 328.63L191.262 320.57L188.462 317.77L186.322 312.51L181.232 314.15L178.102 310.53L173.332 309.22L170.532 305.93L170.042 302.47L166.092 299.51L165.742 294.92L172.382 293.84L178.862 283.78L187.562 281.22L192.332 277.3L199.662 276.28L210.402 276.96L211.942 275.94L213.302 273.21V265.88L214.662 264.34L217.562 263.83L221.602 265.46L223.362 270.14L233.932 267.75L243.302 274.23L247.572 270.14H250.642L256.092 272.19L261.922 272.69L266.152 276.28L270.132 277.62L268.282 292.98L255.492 303.55L249.192 315.49L244.072 321.63L229.072 329.64L227.882 332.03L230.432 339.87L228.222 344.47L224.642 348.22L225.322 355.55L227.192 361.18L239.472 370.55L241.852 374.48L243.222 376.86L242.812 385.75Z" fill="#CCCCCC" stroke="white" stroke-width="0.5"/>
</svg>
