<svg width="801" height="976" viewBox="0 0 801 976" fill="none" xmlns="http://www.w3.org/2000/svg">
<path d="M723.46 1L722.82 1.5L720.29 12.24L720.36 13.18L723.26 15.77L723.33 16.56L723.46 17.05L726.27 19.06L728.78 21.2H730.57L734.08 24.43L737.7 25.66L741.22 27.01L699.33 70.54L688.4 71.63L680.21 72.85L670.84 74.7L668.43 75.07L664.3 76.92L655.43 81.22L646.19 85.63L645.11 86.13L640.01 88.5L635.23 89.71L633.78 90.06L630.44 90.91L625.06 92.38L608.7 96.72L606.88 96.99L604.77 98.85L602.82 101.25L598.96 106.98L598.39 107.21L596.99 108.69L595.89 109.98L593.88 110.9L591.32 111.28L589.14 111.49L588.31 111.39L586.7 110.97L581.92 108.12L581.27 107.81L579.54 107.75L578.29 108.35L574.83 108.84L572.92 109.01L569.13 108.79L565.59 108.43L564.43 107.82L564.14 107.43L563.32 106.44L562.77 105.36L561.03 105.28L560.69 106.82L560.61 108.55L560.52 114.08L558.47 117.05L557.52 118.67L557.01 120.44L555.84 129.65L555.88 133.11L555.79 133.92L554.48 134.3L539.47 139.8L539.16 140.45L525.97 182.84L525.25 184.27L516.04 190.73L513.04 193.29L512.98 193.53L512.36 196.44L511.83 198.95L509.24 207.86L508.23 212.63L508.37 217.46L507.5 222.82L507.73 227.14L508.5 229.51L510.12 232.35L510.16 233.75L508.54 239.23L508.78 243.04L507.19 245.58L506.27 249.24L502.65 252.55L500.01 258.27L496.21 264.91L495.41 267.51L495.4 282.23L494.11 287.45L490.78 292.62L489.35 293.59L483.73 300.35L477.55 305.95L469.91 310.73L467.19 313.21L465.4 315.77L461.29 323.47L460.77 325.28L460.04 327.06L459.39 331.77L458.31 333.98L448.53 345.28L444.56 348.99L442.89 351.16L440.52 357.74L437.61 361.68L434.08 365.95L429.08 368.1L426.65 370.29L424.35 375.93L423.6 376.78L422.31 377.55L419.72 375.36L415.08 371.72L401.95 398.06L396.68 394.19L380.53 381.72L373.74 376.59L370.87 374.58L363.57 369.02L362.29 367.71L346.31 380.05L342.88 378.22L339.01 382.71L335.55 388.64L333.49 388.81L330.4 396.25L328.72 400.18L326.74 403.73L329.79 406.55L327.7 409.11L304.98 436.43L301.68 439.84L300.13 438.28L291.63 444.95L284.73 450L284.03 450.63L279.4 454.78L271.72 461.15L263.23 468.85L255.6 475.77L223.79 504.61L223.43 504.94L204.14 522.21L180.96 540.8L174.63 546.22L165.13 553.78L163.77 555L162.45 556.11L155.49 561.81L153.11 563.75L142.32 575.38L132.14 586.35L125.09 592.98L101.49 614.26L96.17 619.19L95.11 620.01L95.2 621.88L95.01 623.22L94.6 624.1L92.98 626.21L90.48 628.04L87.14 630.37L85.51 631.82L89.21 636L92.67 639.66L93.93 640.65L95.34 641.81L97.47 643.34L99.13 645.37L99.18 645.7L96.98 650.09L96.71 652.33L96.52 654.17L96.26 656.61L95.46 663.63L96.76 667.52L100.2 672.6L104.03 677.23L105.33 679.67L105.94 681.4L106.65 686.3L106.29 687.85L105.1 693.73L104.62 695.39L104.46 696.41L104.36 698.31L104 701.06L103.65 706.13L103.55 708.42L102.67 721.38L102.21 723.15L101.48 726.94L100.43 727.89L99.01 727.55L98.5 727.82L96.62 728.4L95.39 728.94L95.54 729.77L95.09 730.04L91.6 731.23L89.85 731.63L87.92 731.15L86.29 730.77L84.44 730.35L82.57 729.92L80.67 729.51L78.94 729.35L77.11 729.24L75.34 729.31L72.71 729.55L70.88 730.2L67.63 731.27L64.16 732.59L61.48 733.96L58.43 737.42L55.29 738.93L50.61 741.76L49.55 742.71L48.07 743.84L46.51 744.87L45.02 745.88L42.88 747.08L40.31 747.91L39.1 749.81L39.07 749.88L37.98 751.19L37.32 752.1L36.54 752.93L34.76 753.76L31.59 755.57L29.1 758.44L26.67 761.35L19.14 773.99L18.27 777.35L16.08 780.64L13.94 783.39L11.34 785.92L10.06 786.33L8.63 788.14L7.02 791.76L5.81 793.33L5.5 794.69L4.19 798.72L1.58 801.54L1 802.69L11.12 809.26L11.96 809.81L17.78 813.61L26.03 818.96L30.95 822.31L32.39 823.31L34.98 825.07L36.68 826.1L37.73 826.84L38.97 827.66L43.12 830.37L56.88 840.09L59.63 842.05L64.48 845.4L68.26 848.08L76.48 853.9L79.09 855.86L86.71 861.36L89.94 863.9L111.69 880.02L125.52 889.79L171.58 921.53L205.78 945.81L226.25 960.55L234.54 966.38L240.32 970.38L247.04 975.46L247.06 975.5L247.14 975.41L265.01 957.26L266.94 959.21L269.14 959.64L269.85 959.4L271.9 957.38L272.16 956.61L271.92 954.51L269.91 952.39L297.48 924.73L299.07 926.32L301.24 926.73L301.94 926.53L303.98 924.45L304.23 923.59L303.79 921.38L302.2 919.86L311.18 910.93L351.72 884.35L351.9 884.51L382.43 864.5L388.43 860.57L384.59 854.69L380.48 857.38L378.21 858.19L375.7 859.53L370.72 862.56L370.33 862.17L368.5 863.6L366.87 864.64L365.82 865.35L365 865.9L363.28 866.92L359.67 869.28L360.65 870.63L359.85 871.09L359.52 870.59L357.87 871.68L356.02 869.52L353.44 871.47L354.66 873.73L349.94 876.79L347.26 875.8L343.96 873.56L339.17 869.46L335.4 866.33L330.1 859.74L327.93 855.67L325.95 851.22L322.33 840.99L323.3 836.93L325.9 836.97L325.22 828.9L324.34 828.77L322.94 828.89L322.97 830.66L322.51 830.65L322.58 831.88L305.59 833.06L267.46 835.67L266.23 819.83L250.39 820.75L248.01 787.13L262.45 785.1L262.08 782.39L226.14 787.33L224.82 784.35L223.4 785.19L223.49 783.21L224.11 782.92L222.98 780.53L221.18 776.63L238.98 760.56L242.17 757.68L245.27 755.31L246.11 754.48L253.24 761.87L253.85 761.26L247.8 754.86L248.64 754.15L249.71 755.14L251.21 753.73L254.84 755.43L256.98 754.92L259.26 755.72L259.76 757.17L263.38 758.48L264.64 757.71L266.72 758.45L267.57 759.53L269.46 760.7L271.36 759.98L273.45 762.3L277.03 767.49L280.05 768.52L282.35 772.24L284.61 778.39L286.12 778.18L287.39 779.94L287.8 784.1L291.22 787.44L294.25 791.7L298.28 792.44L302.93 790.87L305.35 791.33L307.29 787.48L309.2 787.91L310.39 784.97L312.56 784.34L314.05 784.57L315.74 782.92L315.44 781.79L317.53 779.71L324.86 780.35L328.37 781.6L330.49 785.2L331.15 787.72L332.44 793.04L336.82 803.41L342.8 807.67L345.62 804.6L348.62 804.19L352.21 806.45L352.01 813.32L350.92 842.21L358.6 842.61L358.74 837.75L356.93 837.5L357.98 808.67L359.74 809L359.93 809.43L363.28 809.16L363.51 809.46L365.11 809.56L365.64 809.4L365.95 809.14L367.25 809.19L367.73 808.96L368.55 808.85L368.07 809.43L368.27 809.63L368.95 809.1L369.44 808.94L370.45 809.13L370.87 808.92L371.34 808.87L372.26 809.28L372.66 809.09L373.04 809.14L373.13 809.94L373.46 810.38L374.15 810.44L374.97 810.17L375.66 809.59L376.17 809.62L376.82 809.51L377.85 808.96L378.71 808.72L379.26 808.88L379.58 808.79L380.16 808.86L380.52 808.67L380.94 808.73L384.8 808.66L385.53 808.85L386.46 808.82L387.64 809.91L388.84 810.2L389.19 810.24L389.43 809.95L389.85 809.15L390.67 808.82L392.51 808.44L393.79 808.6L395.12 808.37L396.71 806.89L397.44 805.71L397.87 804.38L399.83 802.17L401.45 799.6L403.49 797.33L404.94 795.5L407.59 795.79L409.6 794.54L411.79 794.51L413.79 794.44L414.86 793.08L414.88 790.58L415.33 786.1L419.43 783.43L421.62 780.27L425.64 776.86L428.64 775.58L431.63 772.84L437.87 770.93L438.83 769.39L441.95 766.2L444.59 763.4L445.6 764.48L448.7 766.05L453.19 767.29L457.21 768.48L460.51 768.69L462.65 767.42L473.41 755.99L479.51 747.91L483.96 743.14L483.44 739.81L485.5 729.95L486.01 727.65L486.63 727.78L488.49 726.32L488.39 725.38L488.04 724.64L488.13 722.86L492.4 718.2L494.05 715.36L494.27 714.58L495.08 713.78L497.35 712.86L498.75 712.81L499.76 713.07L500.62 712.7L500.49 712.19L499.27 711.9L498.54 711.31L498.14 710.18L498.74 709.12L498.34 708.25L497.04 707.84L496.8 706.51L497.18 705.84L498.75 704.07L498.54 703.68L497.04 702.51L497.21 700.01L498.29 698.43L499.34 686.67L502.59 682.72L509.75 673.67L520.88 660.36L530.28 649.09L527.03 646.55L527.28 645.96L543.73 625.38L561.53 603.89L598.45 557.6L591.52 552.4L519.32 640.02L515.63 636.96L502.48 639.16L492.12 630.63L488.26 627.57L486.5 619.12L485.03 611.19L481.77 608.18L474.36 609.54L472.85 613.16L472.27 613.59L472.73 616.25L473.78 621.72L474.15 621.76L475.42 621.41L477.36 621.03L477.62 621.5L481.36 641.18L482.03 644.31L482.56 646.33L479.01 646.88L479.3 648.47L482.8 647.8L483.07 650.27L484.59 657.61L474.96 660.19L463.88 663.43L453.1 666.69L438.65 670.66L437.53 670.33L433.94 671.57L434 672.01L427.9 673.7L422.62 675.58L404.46 680.88L397.31 657.64L402.45 655.88L403.63 654.85L403.16 653.33L401.3 652.32L389.6 655.68L388.43 657.38L388.75 658.92L390.51 659.61L395.03 658.15L402.17 681.5L396.85 683.03L391.87 684.45L382.62 687.08L377.47 668.58L375.76 668.96L380.14 684.75L375.48 686.11L375.1 686.12L374.79 685.42L372.43 677.04L369.67 675.8L367.56 674.38L365.84 673.24L363.77 671.48L361.95 669.64L358.92 665.45L357.05 661.86L355.46 657.7L353.65 648.2L352.35 641.56L353.05 637.02L352.23 632.9L350.57 624.37L351.3 624.34L355.12 623.55L358.75 641.97L360.51 641.67L356.87 623.4L356.95 623.19L369.43 620.77L373.59 640.44L375.14 639.96L376.81 639.87L367.83 592.91L366.11 593.13L364.37 593.53L367.86 611.99L367.17 612.14L367.41 613.4L355.37 615.84L351.92 597.31L350.19 597.67L353.79 616.08L348.44 617.15L343.57 592.5L341.32 589.6L338.1 588.26L334.32 588.6L333.98 581.71L334.25 575.36L334.64 571.97L335.25 568.65L336.9 562.4L338.16 558.49L340.06 554.5L341.39 551.8L344.38 546.63L413.15 536.53L417.62 539.7L431.4 537.88L431.48 538.7L430.85 538.79L430.76 538.87L433.51 559.53L435.65 559.25L432.79 538.51L432.3 538.58L432.29 537.73L432.73 537.65L432.19 533.87L459.87 530.2L467.8 570.11L463.9 570.82L465.43 578.39L468.89 581.88L476.54 580.43L478.16 576.35L477.09 570.22L473.03 549.7L469.56 532.13L493.66 525.49L505.39 522.11L514.97 519.29L521.2 517.51L525.59 528.18L530.14 539.51L534.55 550.29L538.65 560.59L539.02 560.78L545.1 558.34L546.34 556.86L528.89 514.2L531 513.39L533.07 510.75L531.82 509.79L533.89 507.43L534.97 507.56L535.02 506.73L536.23 506.92L547.77 490.77L542.59 479L553.78 464.56L551.11 458.99L558.81 449.5L555.87 444.03L561.59 436.66L558.85 431.16L562.23 426.38L557.05 416.32L555.13 416.13L554.85 415.76L557.59 395.38L557.7 394.59L559.29 393.76L560.86 393.51L561.98 392.5V391.26L561.3 389.72L561.5 386.88L562.87 384.66L565.31 378.38L579.35 351.27L586.91 337.24L596.02 324.32L603.87 314.79L607.79 309.68L609.21 307.82L610.73 304.29L612.8 298.73L613.23 292.46L613.69 285.26L612.76 279.07L612.06 277.56L611.79 276.19L612.14 275.01L613.6 273.27L614.52 271.64L615.78 270.01L617.44 268.75L619.24 267.67L622.23 266.44L625.81 265.53L627.83 264.39L628.92 263.55L629.83 262.44L632.18 258.49L634.98 254.47L634.31 252.91L633.52 252.18L631.68 250.96L630.81 250.77L630.22 251.27L629.7 251.98L629.75 252.47L629.4 252.79L629.8 253.46L630.04 253.4L630.94 254.12L625.69 260.32L620.55 260.77L617.5 255.76L615.27 249.37L615.55 242.14L616.94 234.35L620.05 226.82L622.61 223.13L625.77 220.27L628.84 217.95L631.81 216.33L638.35 214.14L646.64 211.22L655.68 222.72L656.93 221.55L646.78 208.88L648.22 208.17L649.1 206.96L650.33 202.78L653.22 197.26L654.99 194.47L657.36 191.74L659.53 189.68L662.07 187.85L664.33 186L667.34 184.54L671 183.32L677.63 182.04L682.98 181.92L687.8 182.56L693.08 184.09L697.86 187.25L700.61 188.83L697.25 195.58L690.8 199.93L689.54 198.24L688.66 197.94L687.82 198.37L687.1 199.4L687 200.44L688.32 202.7L689.55 203.46L692 203.14L694.67 202.01L698.29 199.82L700.1 197.97L701.93 194.72L703.14 191.63L703.78 189.84L705.03 187.44L708.69 184.02L711.48 181.5L711.66 180.74L711.28 179.37L710.77 178.42L709.42 178.22L708.17 178.21L707.08 179.17L708.27 180.68L703.39 184.54L696.45 175.89L698.71 168.04L700.43 163.99L702.56 160.13L705.45 157.33L709.62 155.24L714.16 154.27L715.93 154.18L717.79 154.66L729.79 177.41L734.42 184.72L739.62 193.44L743.75 198.87L748.93 202.98L754.47 204.96L759.35 206.09L765.76 206.62L770.09 206.22L775.55 205.13L783.55 202.64L788.76 200.66L793.73 197.34L798.78 192.96L800.18 188.27L798.69 181.8L796.65 171.68L794.98 167.83L793.64 163.68L787.49 133.63L791.65 132.74L789.84 124.34L787.94 124.67L785.36 112.74L787.35 112.33L785.73 103.95L780.93 104.81L779.19 99.42L761.57 91.32L760.68 87.49L760.43 86.6L761.13 84.26L762.87 81.37L764.86 78.19L766.15 76.75L767.26 74.58L767.43 73.14L767.16 71.86L765.99 66.35L766.35 63.01L766.02 62.2L764.66 60.65L763.2 57.48L762.62 54.09L762.75 52.33L763.39 49.94L767.82 41.29L768.71 37.42L769.17 27.12L768.87 25.45L768.18 23.92L766.45 22.09L748.39 8.09L743.39 5.43L741.86 5.11L736.26 5.52L734.32 5.13L729.29 2.57L725.38 1.21L723.46 1Z" fill="#CCCCCC" stroke="white" stroke-width="0.5"/>
</svg>
