<svg width="614" height="656" viewBox="0 0 614 656" fill="none" xmlns="http://www.w3.org/2000/svg">
<path d="M445.699 1L445.849 1.45999L446.299 1.45L446.579 2.75999L447.959 3.17999L447.489 5.34999L448.219 10.75L448.789 12.1L450.529 11.98L450.129 13.05L450.689 15.86L451.859 18.38L452.379 18.28L452.699 18.82L453.329 18.69L454.349 19.15L455.119 20.42L456.909 21.7L457.859 23.61L457.929 23.85L458.559 24.96L459.769 25.31L460.289 25.12L463.659 29.06L464.819 29.68L465.959 29.83L467.279 31.37L468.719 32.21L469.179 32.79L472.989 34.33L474.249 33.88L474.949 34.77L475.599 35.04L476.549 34.92L479.139 35.7L480.279 35.64L481.729 36.33L480.639 37.59L480.469 38.94L481.129 39.63L481.309 41.99L480.379 44.4L477.839 46.06L473.999 46.74L469.979 50.25L469.149 50.29L468.519 50.8L467.769 52.1L466.959 52.22L465.469 52.99L464.319 52.94L461.509 53.68L460.499 53.36L459.869 53.78H458.979L456.499 54.95L455.369 56.25L452.779 55.57L449.529 56.96L445.389 56.09L443.529 55.02L442.019 52.61L440.909 52.02L440.379 51.23L440.109 51.14L438.879 52.02L437.609 51.76L435.989 51.83L435.339 51.4L433.979 49.37L432.529 48.69L431.799 47.87L430.099 47.62L429.249 46.63L427.169 46.46L424.869 45.56L419.609 44.61L417.079 44.76L413.449 44.41L416.499 34.85L417.019 34.64L417.429 33.95L419.859 25.49L420.609 24.23L420.999 22.73L421.869 21.92L422.759 19.4L422.949 17.64L423.179 17.2L424.139 12.48L425.409 7.90999L425.639 7.84999L425.619 7.22L426.479 6.59999L428.129 6.83L428.799 6.62L430.399 7.23L430.409 7.56999L431.329 7.75999L432.439 6.70999L432.469 5.8L433.489 5.55L433.629 5.2L434.089 5.3L434.839 4.83L436.149 5.44L436.999 5.00999L438.099 5.26999L438.769 5.06L439.589 4.39L439.669 4.62L439.979 4.53999L441.699 2.61L442.209 2.55L442.609 1.58L442.849 1.78999L443.269 1.31H443.619L444.139 1.81999L444.299 1.53L445.219 1.5L445.699 1Z" fill="#CCCCCC" stroke="white" stroke-width="0.5"/>
<path d="M413.431 44.37L417.061 44.72L419.591 44.57L424.851 45.52L427.151 46.42L429.231 46.59L430.081 47.58L431.781 47.83L432.511 48.65L433.961 49.33L435.321 51.36L435.971 51.79L437.591 51.72L438.861 51.98L440.091 51.1L440.361 51.19L440.891 51.98L442.001 52.57L443.511 54.98L445.371 56.05L449.511 56.92L452.761 55.53L455.351 56.21L454.901 57.7L454.891 59.35L454.321 61.91L454.371 62.43L454.951 62.72L454.741 63.41L454.301 63.78L453.271 63.59L452.001 64.12L451.801 65.01L451.321 65.44L450.691 65.91L449.301 66.23L449.031 66.73L449.061 67.82L448.501 68.31L447.431 68.56L446.871 69.63L444.351 71.14L442.631 71.6L442.321 72.24L443.041 73.07L442.731 73.63L442.921 74.36L443.421 74.47L444.131 74.05L444.651 74.29L444.521 74.82V75.95L445.511 77.39L445.011 77.84L443.931 77.82L443.781 79.57L442.951 80.57L442.031 81.07L441.781 81.65L442.531 82.69L440.241 83.35L438.801 85.22L438.241 85.04L437.901 84.26L438.191 83.56L438.101 82.73L437.501 82.32L435.191 81.92L433.841 82.19L432.981 81.92L432.741 81.23L433.581 79.62L433.091 79.01L431.741 78.88L431.251 78.18L429.901 78.05L428.531 79.09L428.611 80.28L428.141 80.79L427.611 81.12L426.221 81.33L425.851 81.66L426.271 82.75L427.031 82.64L427.491 82.9L428.141 85.29L426.031 85.23L424.171 84.66L422.551 84.64L415.581 82.5L408.941 83.05L405.151 82.11L401.631 83.69L401.201 83.41L399.621 83.35L398.971 83.01L398.241 81.91L396.411 82.07L395.891 81.1L397.121 77.95L397.271 77.52L403.031 68.1L408.121 57.7L411.431 49.79L412.071 49.97L411.701 51.02L411.811 51.43L412.681 51.74L412.811 52.09L413.171 51.34L413.511 51.24L413.481 50.25L412.211 49.84L411.961 49.52L411.651 49.6L413.431 44.37Z" fill="#CCCCCC" stroke="white" stroke-width="0.5"/>
<path d="M501.691 31.65L502.161 31.97L501.721 32.46L501.991 32.63L501.901 33.04L502.771 34.07L504.651 34.67L506.301 34.39L506.611 35.7L506.101 38.65L506.471 40.28L506.481 42.68L506.781 43.11L506.641 48.68L507.181 48.98L507.261 49.83L507.651 50L509.341 49.79L509.461 50.06L508.871 50.56L509.191 51.02L511.211 50.77L512.751 51.76L514.391 51.55L514.821 52.03L514.391 52.69L514.841 53.56L514.701 54.94L513.801 56.49L514.151 57.09L515.101 57.58L515.161 58.12L514.571 58.4L513.151 58.39L512.901 58.65L513.321 60.58L513.181 61.22L512.311 62.02L512.461 62.34L514.401 61.66L515.041 62.4L515.101 63.39L515.411 63.77L517.311 64.52L518.001 64.47L518.891 61.5L519.671 61.18L519.781 60.16L521.061 60.56L522.201 59.23L524.701 57.8L525.281 56.61L525.241 55.33L525.731 55.01L530.561 55.09L531.371 55.55L532.711 57.34L533.941 57.3L535.801 58.39L536.341 59.09L537.891 59.63L538.021 60.12L537.361 61.86L538.811 62.62L538.921 63.27L538.541 63.44L536.461 62.53L534.191 63.62L534.341 65.05L533.691 67.58L532.341 67.67L532.561 68.63L532.301 69.15L531.451 69.35L530.961 70.18L528.581 71.36L528.231 72.13L528.361 72.59L527.981 72.97L528.141 73.84L528.821 74.74L529.951 75.92L531.711 77.09L531.951 81.7L533.551 83.07L533.591 83.71L532.151 86.85L531.141 87.5L527.391 88.9L527.041 89.57L526.891 91.72L528.631 93.06L531.281 96.72L532.291 99.03L532.381 101.2L528.991 100.59L527.521 100.06L524.761 98.04L521.511 97.33L520.941 97.01L519.191 94.9L518.301 94.63L518.011 94.2L516.981 93.74L516.471 92.89L515.971 92.87L515.461 93.01L514.881 94.62L513.911 95.2L511.871 98.9L510.361 100.12L508.931 100.66L508.621 101.39L507.271 102.84L505.861 103.75L505.611 105.1L505.221 105.31L504.411 106.62L501.241 108.02L499.941 108.9L495.941 109.25L494.391 107.29L495.731 105.25L495.821 104.51L494.841 103.92L494.061 103.89L493.341 103.99L491.981 104.93L490.961 103.2L491.131 100.06L492.051 98.54L494.031 97.33L493.581 97.02L491.071 97.14L490.601 96.73L490.011 96.67L489.481 94.62L489.281 94.41L488.251 94.39L487.211 93.65L486.261 93.66L483.511 95.66L482.971 95.54L481.581 94.42L480.261 94.25L478.891 93.65L477.771 92.52L477.811 89.3L477.691 88.67L476.881 87.69L476.991 87L476.471 86.62L475.081 86.54L474.011 85.68L472.521 85.59L472.111 85.16L470.741 84.86L469.861 83.2L470.041 82.34L469.771 81.11L468.871 81.4L468.261 81.3L468.411 79.89L468.221 79.26L467.681 79.08L466.761 79.58L464.921 79.59L464.901 78.8L464.261 78.39L464.381 77.96L465.361 77.82L464.721 76.86L464.261 76.81L463.561 77.5L462.881 77.69L462.641 77.29L463.211 76.64L462.771 75.9L459.591 75.63L459.171 76.29L458.771 76.32L458.631 75.98L458.881 75.53L458.481 75.5L457.311 76.37L456.931 76.26L456.981 75.45L456.551 75.13L454.721 74.81L453.141 75.42L452.341 76.21L451.481 75.94L451.131 76.22L449.881 76.28L448.091 76.97L447.441 76.04L446.071 76.57L444.481 74.86L444.611 74.33L444.091 74.09L443.381 74.51L442.881 74.4L442.691 73.67L443.001 73.11L442.281 72.28L442.591 71.64L444.311 71.18L446.831 69.67L447.391 68.6L448.461 68.35L449.021 67.86L448.991 66.77L449.261 66.27L450.651 65.95L451.281 65.48L451.761 65.05L451.961 64.16L453.231 63.63L454.261 63.82L454.701 63.45L454.911 62.76L454.331 62.47L454.281 61.95L454.851 59.39L454.861 57.74L455.311 56.25L456.441 54.95L458.921 53.78H459.811L460.441 53.36L461.451 53.68L464.261 52.94L465.411 52.99L466.901 52.22L467.711 52.1L468.461 50.8L469.091 50.29L469.921 50.25L473.941 46.74L477.781 46.06L480.321 44.4L481.251 41.99L481.071 39.63L480.411 38.94L480.581 37.59L481.671 36.33L482.651 36.66L483.491 36.45L485.371 36.96L485.931 36.51L486.501 36.46L486.901 36.01L487.851 35.8L488.121 35.54L489.271 35.06L490.581 35.21L490.711 34.95L492.591 34.42L493.101 34.65L493.681 34.52L496.891 33.17L497.151 32.78L497.541 32.95L498.251 32.64L498.511 33L499.631 32.81L501.051 31.76L501.691 31.65Z" fill="#CCCCCC" stroke="white" stroke-width="0.5"/>
<path d="M538.322 23.39L538.832 23.98L538.282 24.66L538.642 25.06L538.012 26.88L538.592 27.72L538.452 30.38L539.862 31.37L540.012 31.78L542.822 34.71L541.742 34.13L541.512 33.54L540.612 32.9L540.042 32.02L539.612 32.17L539.812 33.39L540.142 33.79L540.512 33.69L540.772 33.95L540.622 34.28L540.302 34.02L539.762 34.61L539.802 35.3L540.582 36.34L540.712 37.05L541.532 37.74L544.062 39.01L546.402 39.05L546.562 38.55L546.372 38.24L545.112 37.34L544.912 36.74L544.112 36.24L542.862 34.79L546.512 38.02L550.322 39.6L553.332 40.01L555.122 39.65L556.602 38.94L558.892 36.91L558.942 37.26L559.462 37.48L562.022 38.07L566.772 39.82L566.712 41.58L567.812 42.3L568.462 43.29L570.212 44.02L570.312 44.57L571.502 45.84L573.442 47.22L575.922 46.76L576.052 49.43L579.002 51.06L579.202 52.64L580.322 52.86L581.762 53.82L582.302 53.6L582.232 54.14L584.882 55.56L583.612 56.47L583.472 57.64L580.572 61.42L581.092 61.35L581.962 61.94L582.962 63.48V63.95L583.802 64.74L583.902 65.32L584.322 65.49L584.522 66.12L586.842 67.11L583.182 71.78L583.712 72.65L585.102 73.94L586.112 75.54L585.822 78.77L588.262 84.81L586.312 95.59L587.402 100.03L585.192 101.73L584.862 103.32L585.872 103.88L586.032 104.32L588.062 104.13L588.922 106.46L590.132 107.19L590.262 107.64L590.002 108.96L590.312 109.05L590.302 109.39L589.942 109.82L590.522 111.04L589.292 112.79L589.132 114.79L588.842 115.5L588.352 115.85L587.662 117.85L587.752 121.32L587.432 122.39L588.862 124.82L590.002 125.77L591.002 128.31L592.582 130.18L593.342 130.79L594.362 131.14L594.992 131.89L595.352 133.12L594.782 134.04L594.952 134.85L594.432 136.13L594.032 136.5L593.492 136.39L592.232 136.92L598.372 146.74L602.592 148.71L612.882 156.63L612.952 156.92L611.112 158.54L610.312 159.74L608.952 160.55L608.242 161.33L607.122 161.17L605.302 161.81L604.912 162.34L604.382 164.45L603.372 165.24L603.902 166L603.472 168.64L603.652 170.68L601.442 172.4L601.922 172.76L604.652 172.02L605.942 172.57L606.352 173.8L606.962 174.13L606.942 174.92L605.792 175.28L605.072 176.07L603.192 176.45L602.542 176L600.482 176.18L599.152 175.78L598.372 176.01L596.812 175.93L594.532 175.62L593.722 175.23L590.852 175.75L586.852 174.7L585.762 174.77L581.522 173.35L579.682 173.31L578.772 172.62H577.912L577.682 173.12L577.012 172.79L576.092 172.84L575.332 172.09L574.332 171.73L571.012 173.01L568.382 173.5L567.672 173.48L564.352 172.34L563.382 172.89L557.282 172.74L554.132 173.39L552.102 174.83L549.692 174.61L547.222 174.92L543.752 174.72L541.422 174.91L540.262 174.48L539.512 175.62L539.172 178.49L540.942 181.45L541.132 182.85L542.472 185.08L542.672 186.23L542.482 187.2L543.332 188.18L543.272 188.85L536.872 190.36L536.892 190.62L526.892 192.78L525.622 184.27L525.542 181.79L526.042 177.59L527.602 174.55L527.262 173.42L525.912 173L519.292 171.96L515.702 171.6L512.912 172.09L511.482 171.95L510.862 171.58L510.792 170.89L511.472 169.43L510.812 168.59L509.452 168.19L508.252 167.04L507.502 166.75L505.662 166.76L504.672 166.29L503.832 162.41L499.412 153.41L498.152 151.89L496.832 151.31L496.672 150.57L498.762 147.28L500.992 144.84L504.332 138.46L506.282 135.37L509.272 132.39L511.192 131.25L515.982 130.74L519.902 130.79L523.512 131.36L526.252 131.24L528.512 130.75L532.792 129L534.502 128.71L536.912 127.85L537.742 126.61L538.062 124.76L537.512 123.22L534.502 119.64L532.962 117.06L530.282 114.62L527.832 113.09L527.092 111.6L527.102 110.67L528.032 108.58L530.532 105.85L531.622 104.14L532.382 101.2L532.292 99.03L531.282 96.72L528.632 93.06L526.892 91.72L527.042 89.57L527.392 88.9L531.142 87.5L532.152 86.85L533.592 83.71L533.552 83.07L531.952 81.7L531.712 77.09L529.952 75.92L528.822 74.74L528.142 73.84L527.982 72.97L528.362 72.59L528.232 72.13L528.582 71.36L530.962 70.18L531.452 69.35L532.302 69.15L532.562 68.63L532.342 67.67L533.692 67.58L534.342 65.05L534.192 63.62L536.462 62.53L538.542 63.44L538.922 63.27L538.812 62.62L537.362 61.86L538.022 60.12L537.892 59.63L536.342 59.09L535.802 58.39L533.942 57.3L532.712 57.34L531.372 55.55L530.562 55.09L525.732 55.01L525.242 55.33L525.282 56.61L524.702 57.8L522.202 59.23L521.062 60.56L519.782 60.16L519.672 61.18L518.892 61.5L518.002 64.47L517.312 64.52L515.412 63.77L515.102 63.39L515.042 62.4L514.402 61.66L512.462 62.34L512.312 62.02L513.182 61.22L513.322 60.58L512.902 58.65L513.152 58.39L514.572 58.4L515.162 58.12L515.102 57.58L514.152 57.09L513.802 56.49L514.702 54.94L514.842 53.56L514.392 52.69L514.822 52.03L514.392 51.55L512.752 51.76L511.212 50.77L509.192 51.02L508.872 50.56L509.462 50.06L509.342 49.79L507.652 50L507.262 49.83L507.182 48.98L506.642 48.68L506.782 43.11L506.482 42.68L506.472 40.28L506.102 38.65L506.612 35.7L506.302 34.39L507.592 33.5L508.402 31.06L509.992 30.43L511.142 30.53L511.582 31.33L514.462 33.29L516.532 33.73L518.262 34.58L519.742 34.25L520.642 34.88L524.062 35.2L525.332 34.31L527.072 33.94L527.832 33.46L528.262 33.54L528.602 33.26L529.562 33.47L530.932 32.12L531.802 30.6L532.892 31.22L534.392 30.16L536.432 26.33L536.482 25.51L536.532 25.21L537.072 24.46L537.132 23.63L538.322 23.39Z" fill="#CCCCCC" stroke="white" stroke-width="0.5"/>
<path d="M444.551 74.84L446.151 76.55L447.511 76.02L448.161 76.95L449.961 76.26L451.201 76.2L451.551 75.92L452.411 76.19L453.211 75.4L454.791 74.79L456.621 75.1L457.051 75.43L457.011 76.24L457.381 76.35L458.551 75.48L458.951 75.52L458.711 75.97L458.841 76.31L459.251 76.27L459.671 75.62L462.851 75.89L463.291 76.63L462.721 77.28L462.961 77.68L463.641 77.49L464.341 76.8L464.801 76.86L465.451 77.81L464.471 77.95L464.351 78.39L464.991 78.8L465.011 79.59L466.841 79.58L467.771 79.08L468.311 79.27L468.501 79.9L468.351 81.31L468.961 81.41L469.851 81.12L470.131 82.35L469.951 83.2L470.831 84.86L472.201 85.16L472.611 85.59L474.101 85.67L475.161 86.54L476.551 86.62L477.071 87L476.961 87.69L477.761 88.67L477.881 89.3L477.851 92.52L478.961 93.65L480.331 94.25L481.651 94.42L483.041 95.54L483.581 95.66L486.331 93.66L487.271 93.65L488.321 94.39L489.351 94.41L489.551 94.62L490.071 96.67L490.661 96.73L491.131 97.14L493.631 97.03L494.081 97.33L492.101 98.55L491.181 100.07L491.001 103.21L492.021 104.94L493.391 103.99L494.101 103.9L494.881 103.92L495.861 104.52L495.771 105.26L494.421 107.3L495.971 109.25L499.971 108.91L501.271 108.03L504.431 106.63L505.251 105.32L505.631 105.11L505.881 103.75L507.291 102.84L508.631 101.39L508.941 100.65L510.371 100.12L511.881 98.9L513.921 95.2L514.901 94.62L515.481 93.01L515.991 92.87L516.501 92.89L517.001 93.74L518.041 94.2L518.331 94.63L519.221 94.9L520.971 97.01L521.541 97.33L524.791 98.04L527.551 100.06L529.021 100.59L532.411 101.2L531.651 104.14L530.561 105.86L528.071 108.58L527.141 110.67L527.131 111.61L527.861 113.1L530.311 114.62L532.991 117.06L534.531 119.64L537.541 123.22L538.091 124.76L537.771 126.61L536.941 127.85L534.541 128.71L532.831 129L528.541 130.75L526.291 131.24L523.551 131.37L519.941 130.79L516.021 130.74L511.231 131.26L509.311 132.4L506.321 135.38L504.371 138.47L501.031 144.85L498.801 147.29L496.711 150.58L496.871 151.32L495.511 151.87L494.401 151.94L491.631 151.89L490.221 151.53L489.121 151.75L488.211 151.43L487.901 150.87L487.781 147.7L484.301 144.19L482.761 143.21L481.821 141.17L481.201 140.48L480.641 140.11L478.101 139.9L473.511 140.59L471.801 139.89L470.301 138.73L469.941 137.84L470.051 136.77L470.531 136.02L470.661 135.2L467.131 131.21L465.161 124.91L463.791 121.78L461.461 119.71L460.751 118.33L460.631 117.44L460.881 116.66L464.781 111.01L465.081 109.99L464.831 108.52L463.211 106.8L461.051 105.05L457.401 104.55L456.541 104.01L456.131 103.15L456.111 102.14L457.861 97.56L457.631 95.29L456.351 93.25L455.461 92.73L454.641 89.63L452.411 89L451.261 89.04L450.711 88.38L450.061 86.81L449.581 86.42L448.581 86.21L447.341 86.81L446.801 86.63L446.421 84.46L446.621 81.46L446.411 79.35L446.001 77.9L445.551 77.42L444.561 75.98L444.551 74.84Z" fill="#CCCCCC" stroke="white" stroke-width="0.5"/>
<path d="M445.55 77.42L446 77.9L446.41 79.35L446.62 81.46L446.42 84.46L446.8 86.63L447.34 86.81L448.58 86.21L449.58 86.42L450.06 86.81L450.71 88.38L451.26 89.04L452.41 89L454.64 89.63L455.46 92.73L456.35 93.25L457.63 95.29L457.86 97.56L456.11 102.14L456.13 103.15L456.54 104.01L457.4 104.55L461.05 105.05L463.21 106.8L464.83 108.52L465.08 109.99L464.78 111.01L460.88 116.66L460.63 117.44L460.75 118.33L461.46 119.71L463.79 121.78L465.16 124.91L467.13 131.21L470.66 135.2L470.53 136.02L470.05 136.77L469.94 137.84L470.3 138.73L471.8 139.89L473.51 140.59L478.1 139.9L480.64 140.11L481.2 140.48L481.82 141.17L482.76 143.21L484.3 144.19L487.78 147.7L487.9 150.87L488.21 151.43L489.12 151.75L490.22 151.53L491.63 151.89L494.4 151.94L495.51 151.87L496.87 151.32L498.18 151.9L499.45 153.42L503.87 162.41L504.7 166.29L505.69 166.76L507.53 166.75L508.28 167.05L509.48 168.19L510.84 168.6L511.5 169.44L510.82 170.89L510.9 171.58L511.52 171.96L512.95 172.1L515.74 171.6L519.33 171.96L525.95 173L527.3 173.42L527.64 174.55L526.09 177.59L525.58 181.78L525.67 184.26L526.94 192.77L511.7 196.17V206.46L512.37 206.8L511.85 207.51L511.39 207.19L511.14 207.83L509.92 208.21L509.86 208.74L509.5 209.09L509.01 209.02L508.8 208.36L508.49 208.26L508.16 208.89L508.3 209.19L507.91 209.45L507.98 210.49L507.11 211.28L507.24 211.55L507.52 211.32L507.72 211.92L508.21 211.74L508.13 212.57L507.2 213.22L507.33 213.52L506.91 213.78L507.22 214.42L507.61 214.36L507.83 216.07L508.11 216.26L507.44 217.69L507.61 218.92L508.07 218.66L508.79 218.7L509.2 219.04L509.46 218.24L509.07 217.76L509.96 217.4L509.83 216.89L510.28 216.44L510.57 216.84L511.08 216.92L511.44 217.53L511.5 218.92L511.14 220.39L511.63 220.23L511.7 219.69L512.46 220.09L512.77 219.81L512.48 219.35L512.46 218.47L512.2 218.28L512.69 217.96L512.76 219.3L513.03 219.51L513.55 218.94L513.49 219.83L513.96 220L514.04 220.96L514.48 220.93L514.46 221.64L515.15 222.31L515.22 221.93L515.71 222.04L515.63 221.53L515.97 221.39L515.87 222.43L516.12 222.81L516.36 222.51L516.52 225.37L516.11 225.82L516.4 225.85L516.42 226.19L515.78 226.49L515.96 226.91L515.73 226.85L515.69 227.33L515.1 227.12L515.09 227.63L514.67 227.77L514.81 228.27L514.41 228.86L513.98 228.85L513.56 230.13L513.24 230.17L512.91 230.02L512.25 230.95L512.1 232.71L511.71 233.06L511.95 234.4L512.48 234.18L513.09 234.52L513.56 235.94L513.05 236.21L512.62 237.3L504.88 240.59L499.12 242.13L493.39 242.46L486.76 244.94L475.88 255.73L463.38 261.95L456.46 267.8L455.14 263.98L454.62 263.7L453.62 262.32L453.26 260.47L452.76 259.51L453 256.2L452.9 250.68L453.33 248.42L453.3 241.21L451.41 238.62L451.22 237.74L450.1 236.34L448.08 232.82L447.37 229.43L447.29 228.1L448.43 222.52L449.29 215.85L450.88 212.13L451.8 208.77L451.98 206.14L451.72 204.78L451.25 203.7L450.11 202.42L449.17 201.82L446.21 200.91L443.45 199.22L442.46 197.39L441.86 196.91L436.56 195.46L433.84 196.1L431.11 195.71L430.63 195.22L431.08 193.84L439.75 184.66L440.76 182.54L440.32 181.96L435.12 178.41L434.18 178.36L431.68 180.14L430.18 180.51L430.45 179.76L430.1 178.43L429.25 178.14L428.91 177.4L429.17 176.77L430.03 176.39L429.83 174.84L430.82 174.15L430.85 172.6L431.7 171.78L433.07 171.71L433.82 171L434.39 170.26L434.59 168.95L434.87 168.65L435.76 168.21L438.08 167.77L440 168.23L440.63 167.79L440.83 166.69L439.84 165.85L440.72 163.84L440.26 163.02L440.94 162L441.06 160.94L441.9 159.71L440.94 157.5L439.55 155.51L439.15 154.05L436.91 153.84L436.57 153.28L434.98 152.17L433.85 151.97L432.58 153.04L431.59 152.97L431.09 150.38L430.7 149.59L429.92 149.19L429.09 148.11L428.32 148.27L427.67 147.95L427.01 146.57L425.31 145.58L422.97 145.95L422.53 145.77L422.2 145.14L422.4 143.87L422.06 143.37L422.14 143L422.94 142.49L421.58 140.67L421.33 139.41L420.59 139.12L418.82 139.9L418.17 139.91L417.6 139.43L417.69 137.73L419.39 137.37L420.04 136.89L420.11 136.23L419.76 135.79L418.09 135.07L417.76 133.42L415.62 132.39L413.86 130.68L412.35 130.18L411.91 128.98L408.18 127.71L407.82 127.04L407.93 126.28L408.36 125.48L409.07 124.95L409.2 124.23L408.23 122.34L409 120.57L408.59 119.88L409.09 118.09L409.66 117.61L411.97 117.08L413 117.06L414.17 117.78L414.72 117.66L415.27 117.02L415.8 117.3L416.23 118.21L416.66 118.4L417.58 118.27L417.89 118.56L417.88 119.37L418.21 119.81L418.34 122L418.89 122.77L420.41 122.93L420.83 123.49L421.56 123.62L422.33 123.24L423.84 121.5L425.28 121.04L430.02 122.43L430.9 122.11L431.61 120.76L431.67 119.48L431.08 117.88L430.95 114.49L431.36 109.56L432.08 106.8L432.63 101.15L432.54 99.42L432.1 98.73L431.1 98.09L430.82 97.42L430.76 96.55L431.13 95.52L430.51 95.24L429.73 95.49L429.49 94.97L429.51 94.01L431.56 92.07L431.22 90.36L428.76 88.32L428.27 87.59L428.13 85.3L427.49 82.9L427.03 82.64L426.27 82.76L425.85 81.67L426.21 81.34L427.61 81.13L428.14 80.8L428.62 80.29L428.54 79.1L429.91 78.06L431.25 78.18L431.75 78.88L433.09 79.01L433.58 79.62L432.75 81.24L432.98 81.93L433.84 82.19L435.19 81.93L437.5 82.32L438.1 82.73L438.25 83.59L437.96 84.29L438.3 85.07L438.86 85.25L440.3 83.38L442.59 82.71L441.84 81.68L442.08 81.1L443 80.6L443.83 79.59L443.98 77.84L445.06 77.86L445.55 77.42Z" fill="#CCCCCC" stroke="white" stroke-width="0.5"/>
<path d="M395.889 81.1L396.409 82.07L398.239 81.91L398.969 83.01L399.619 83.35L401.199 83.41L401.629 83.69L405.149 82.11L408.939 83.05L415.579 82.5L422.549 84.64L424.169 84.66L426.029 85.23L428.139 85.29L428.279 87.58L428.769 88.32L431.229 90.36L431.569 92.07L429.519 94.01L429.499 94.97L429.739 95.49L430.519 95.23L431.139 95.51L430.759 96.54L430.829 97.41L431.109 98.08L432.099 98.72L432.549 99.41L432.639 101.13L432.089 106.78L431.369 109.55L430.959 114.47L431.089 117.86L431.689 119.46L431.619 120.74L430.909 122.09L430.029 122.41L425.289 121.03L423.849 121.49L422.349 123.23L421.569 123.61L420.839 123.48L420.409 122.92L418.889 122.76L418.339 121.99L418.199 119.8L417.869 119.36L417.879 118.55L417.569 118.26L416.649 118.4L416.219 118.21L415.799 117.3L415.259 117.03L414.709 117.67L414.169 117.79L412.989 117.08L411.969 117.09L409.649 117.63L409.079 118.1L408.579 119.9L408.989 120.59L408.219 122.36L409.199 124.25L406.979 125.47L406.189 125.42L404.619 126.44L403.599 128.29L403.069 128.62L401.449 126.36L399.939 125.3L396.959 125.53L396.129 125.84L394.309 125.01L392.949 125.69L390.829 124.7L391.279 123.54L390.859 120.73L390.989 120.09L391.939 118.87L392.159 117.67L390.899 115.91L390.429 114.67L390.379 113.63L392.769 109.99L393.119 108.31L392.139 108.22L391.569 108.61L388.829 108.77L388.459 108.13L387.729 107.8L386.949 106.54L385.579 105.94H384.979L384.939 106.34L384.389 106.31L384.729 105.19L383.549 103.19L383.519 101.2L383.189 100L382.309 98.5L380.619 98.37L380.109 97.45L382.409 95.55L382.819 95.65L383.789 95.25L384.829 94.4L384.799 94.15L385.639 93.83L385.749 93.4L386.309 93.21L386.599 92.67L388.179 91.3L391.059 87.83L393.039 85.62L395.889 81.1Z" fill="#CCCCCC" stroke="white" stroke-width="0.5"/>
<path d="M371.622 102.52H371.652H371.622ZM369.862 102.37L370.012 102.99H370.592L370.762 102.94L371.212 102.86L371.642 102.52L371.662 103.12L370.682 104.22L371.162 105.26L369.732 105.63L370.012 106.03L369.512 107.09L369.732 107.31L369.552 108.26L370.122 108.84L369.682 110.04L370.042 111.11L370.722 111.53L371.002 112.75L370.602 112.94L370.112 112.7L369.842 113.22L369.102 113.48L369.622 114.59L367.872 114.82L367.802 115.35L366.802 115.54L364.842 117.14L364.412 118.89L363.502 120.55L362.652 120.6L362.142 120.33L361.512 118.09L362.812 117.38L364.902 116.74L364.712 116.6L363.022 115.94L361.722 115.85L361.022 116.32L360.462 115.63L358.772 116.36L358.602 115.43L357.472 114.96L357.042 114.31L356.262 114.59L355.842 114.26L355.112 114.57L354.452 113.9L353.852 114.04L353.102 113.77L351.982 114.23L351.122 113.35L350.922 112.53L353.332 111.09L353.632 110.67L353.872 111.14L354.482 111.13L354.782 110.92L354.892 110.88L356.242 110.19L357.942 109.16L358.142 108.54L358.542 108.64L359.082 108.04L359.702 107.9L360.112 107.23L360.502 107.72L360.842 107.44L361.462 107.59L361.512 107.58L361.902 107.76V107.52L361.972 107.41L362.322 107.83L362.332 107.33L362.702 107.7L363.882 107.01L365.092 106.77L368.092 104.31L368.242 104.06L369.122 103.45L369.862 102.37Z" fill="#CCCCCC" stroke="white" stroke-width="0.5"/>
<path d="M380.12 97.4299L380.63 98.3499L382.32 98.4799L383.2 99.9799L383.53 101.18L383.56 103.17L384.74 105.17L384.4 106.29L384.95 106.32L384.99 105.92H385.59L386.96 106.52L387.74 107.78L388.47 108.11L388.84 108.75L391.58 108.59L392.15 108.2L393.13 108.29L392.78 109.97L390.39 113.61L390.44 114.65L390.91 115.89L392.17 117.65L391.95 118.85L391 120.07L390.87 120.71L391.29 123.52L390.84 124.68L392.96 125.67L394.32 124.99L396.14 125.82L396.97 125.51L399.95 125.28L401.46 126.34L403.08 128.6L403.61 128.27L404.63 126.42L406.2 125.4L406.99 125.45L409.21 124.23L409.08 124.95L408.37 125.48L407.94 126.28L407.83 127.04L408.2 127.7L411.92 128.97L412.36 130.17L413.87 130.68L415.63 132.39L417.77 133.42L418.1 135.07L419.77 135.79L420.12 136.23L420.05 136.89L419.4 137.38L417.7 137.73L417.61 139.44L418.18 139.92L418.82 139.91L420.59 139.13L421.33 139.43L421.58 140.69L422.94 142.51L422.15 143.02L422.06 143.39L422.4 143.89L422.2 145.16L422.54 145.79L421.56 146.67L421.05 147.65L419.65 148.5L415.89 148.88L413.11 149.95L409.06 150.04L408.34 149.83L406.23 150.04L404.69 149.33L402.56 148.93L400.63 149.27L400.05 149.86L399.53 149.98L399.3 150.37L399.79 150.87L399.62 151.36L397.87 151.17L396.8 150.61L394.9 150.54L393.68 149.98L393.27 150.06L392.96 150.68L391.39 150.88L390.14 151.99L388.32 152.65H387.47L386.63 151.72L385.75 151.47L385.91 151.99L385.47 153.2L385.22 157.25L383.44 162.07L381.3 164.27L380.75 163.48L379.29 163.32L378.59 162.29L377.46 161.9L376.16 160.75L373.74 160.47L372.03 158.07L369.11 158.22L367.99 158.84L367.49 158.45L367.12 158.7L367.16 159.52L365.42 160.61L364.16 160.72L363.35 160.17L363.04 160.64H362.67L361.59 158.86L360.57 156.3L360.05 155.46L358.99 155.05L357.6 151.83L357.06 151.17L356.48 150.78L355.21 150.62L354.15 149.7L350.65 148.62L350.46 147.49L348.81 145.13L348.2 143.4L347.37 143.37L347.94 142.78L347.9 142.59L347.09 142.57L347.15 142.12L347.9 141.7L347.69 141.49L346.94 141.31L346.11 141.99L345.11 142.01L346.15 141.12L345.31 140.65L345.49 139.33L345.84 138.94L344.9 138.08L345.65 137.73L345.46 137.28L344.81 136.93L345.39 136.54L345.24 135.96L345.82 135.4L345.27 134.72L345.46 134.45L346.07 134.47L346.09 134.16L345.33 133.29L345.65 131.18L345.46 130.93L344.77 131.31L344.44 131.12L344.85 130.5L343.82 129.72L343.75 128.89L343.21 128.77L343 129.14L342.77 129.08V128.73L342.27 128.24L342.33 127.89L343.23 127.74L343.89 126.58L344.09 125.46L344.76 125.15L345.68 125.44L347.06 125.33L347.62 124.5L346.72 124.07L348.31 123.4L349.52 121.76L348.45 121.37L348.28 120.4L347.82 120.55L347.52 120.16L348.67 119.37L348.02 118.71L348.83 117.4L348.34 117.05L348.17 116.27L346.69 114.32L348.28 113.44L349.41 113.3L350.95 112.56L351.15 113.38L352.01 114.26L353.13 113.8L353.88 114.07L354.48 113.93L355.14 114.6L355.87 114.29L356.29 114.62L357.07 114.34L357.5 114.99L358.63 115.46L358.8 116.39L360.49 115.66L361.05 116.35L361.75 115.88L363.05 115.97L364.74 116.63L364.93 116.77L362.84 117.41L361.54 118.12L362.17 120.36L362.68 120.63L363.53 120.58L364.44 118.92L364.87 117.17L366.83 115.57L367.83 115.38L367.9 114.85L369.65 114.62L369.13 113.51L369.87 113.25L370.14 112.73L370.63 112.97L371.03 112.78L370.75 111.56L370.07 111.14L369.71 110.07L370.15 108.87L369.58 108.29L369.76 107.34L369.54 107.12L370.04 106.06L369.76 105.66L371.19 105.29L370.71 104.25L371.69 103.15L371.67 102.55H371.64V102.38L371.82 102.32L371.95 101.97L372.98 101.4L374.85 99.6299L375.56 99.3899L375.9 98.9599L376.29 98.9699L376.28 98.6299L377.94 98.5699L378.49 98.0899L378.86 98.0599L379.45 97.5199L379.76 97.8599L380.12 97.4299Z" fill="#CCCCCC" stroke="white" stroke-width="0.5"/>
<path d="M346.682 114.29L348.162 116.24L348.332 117.02L348.822 117.37L348.012 118.68L348.662 119.34L347.512 120.13L347.812 120.52L348.272 120.37L348.442 121.34L349.512 121.73L348.302 123.37L346.712 124.04L347.612 124.47L347.052 125.3L345.672 125.41L344.752 125.12L344.082 125.43L343.882 126.55L343.222 127.71L342.322 127.86L342.262 128.21L342.762 128.7V129.05L342.992 129.11L343.202 128.74L343.742 128.86L343.812 129.69L344.842 130.47L344.432 131.09L344.762 131.28L345.452 130.9L345.642 131.15L345.322 133.26L346.082 134.13L346.062 134.44L345.452 134.42L345.262 134.69L345.812 135.37L345.232 135.93L345.382 136.51L344.802 136.9L345.452 137.25L345.642 137.7L344.892 138.05L345.832 138.91L345.482 139.3L345.302 140.62L346.142 141.09L345.102 141.98L346.102 141.96L346.932 141.28L347.682 141.46L347.892 141.67L347.142 142.09L347.082 142.54L347.892 142.56L347.932 142.75L347.362 143.34L346.582 143.58L345.672 144.61L345.452 145.74L345.912 146.83L345.582 147.24V147.96L344.192 149.04L344.442 149.51L344.192 150.25L345.262 151.89L345.472 153L345.212 154.28L344.982 154.49L344.542 154.29L343.202 156.21L342.232 156.91L341.672 157.74L340.532 158.26L340.012 158.88L337.642 158.92L337.022 159.44L337.052 160.98L336.822 161.33L335.162 161.32L334.042 161.8L333.242 163.1L330.312 164.04L330.022 165.51L330.152 166.43L331.332 169.34L332.942 171.56L334.462 172.9L335.772 173.14L338.072 174.41L339.612 175.71L339.762 176.36L339.712 177.16L339.232 176.48L338.592 176.38L338.442 178.35L337.022 179.2L335.362 180.67L333.952 183.2L333.712 184.71L332.792 185.88L332.632 186.56L330.902 188.73L331.602 191.07L332.222 191.21L333.452 192.9L332.342 193.32L331.832 193.22L330.572 192.31L327.822 193.48L325.842 192.82L325.112 191.62L323.992 190.96L320.802 191.44L320.192 191.77L319.262 191.29L318.752 191.4L317.982 192.41L317.692 192.49L317.332 191.88L316.802 192.7L316.372 192.62L315.042 191.45L314.022 191.85L313.522 191.47L313.552 190.63L311.272 190.1L310.982 189.39L308.912 188.21L308.362 185.74L307.732 184.58L305.762 183.89L300.802 183.42L298.142 183.86L296.072 183.67L292.422 182.35L295.412 178.85L295.832 178.49L295.892 178.37L296.042 177.74L295.792 177.76L296.422 176.92L296.682 174.82L298.992 172.03L299.312 170.88L299.362 169.86L298.822 168.59L299.642 166.44L299.582 166.15L299.402 165.6L298.252 165.13L297.882 163.59L298.072 162.99L299.482 161.24L300.132 158.56L298.952 157.31L298.592 156.2L298.062 155.55L304.362 150.18L307.272 146.72L307.452 146.97L307.822 146.48L307.382 146.59L312.692 142.2L316.872 137.58L317.272 136.95L318.152 136.02H318.602L318.922 135.38L318.632 135.47L318.592 135.86L318.072 135.91L319.652 134.02L320.242 133.71L320.272 133.38L321.062 132.01L322.962 129.87L323.082 129.57L323.212 129.28L323.352 128.9L322.472 129.31L322.902 128.86L323.642 128.65L322.992 127.66L323.162 127.23L324.642 125.54L325.832 124.9L325.702 124.49L326.182 123.86L327.542 122.9L327.902 123L328.122 123.36L327.922 123.59L328.352 123.94L330.012 123.63L331.892 122.51L333.562 120.93L334.182 120.65L335.432 118.51L338.852 117.62L340.042 116.76L341.992 116.36L346.682 114.29Z" fill="#CCCCCC" stroke="white" stroke-width="0.5"/>
<path d="M347.359 143.34L348.189 143.37L348.799 145.1L350.449 147.46L350.639 148.59L354.139 149.67L355.199 150.59L356.469 150.75L357.049 151.14L357.589 151.8L358.979 155.02L360.039 155.43L360.559 156.27L361.579 158.83L362.659 160.61H363.029L363.339 160.14L364.149 160.69L365.409 160.58L367.149 159.49L367.109 158.67L367.479 158.42L367.979 158.81L369.099 158.19L372.019 158.04L373.729 160.44L376.149 160.72L377.449 161.87L378.579 162.26L379.279 163.29L380.739 163.45L381.289 164.24L381.349 166.73L380.969 168.14L381.739 171.66L381.339 173.26L381.779 177.11L382.879 178.95L384.169 179.5L384.609 181.24L383.739 182.2L383.629 182.87L384.079 183.4L383.929 184.18L385.849 186.53L385.539 186.98L384.699 187.08L384.509 187.79L384.889 189.38L384.249 189.97L382.449 189.68L379.979 190.25L378.459 189.42L377.449 189.36L376.589 189.52L375.459 190.2L374.839 191.06L374.829 193.89L375.179 194.58L376.739 195.51L376.489 197.08L377.169 197.49L377.579 197.18L379.529 196.81L380.269 196.95L380.489 197.8L380.359 199.23L379.139 202.69L378.989 203.95L379.069 205.29L379.499 206.53L377.249 207.2L376.269 207.85L374.279 210.6L371.759 211.16L368.259 211.35L366.399 212.25L363.309 215.49L362.289 216.12L360.839 216.51L358.609 216.54L356.459 217.59L353.329 220.53L350.629 221.99L350.469 222.28L350.819 222.85L350.539 224.03L347.359 226.83L344.789 228.33L344.279 228.19L344.419 226.77L343.209 225.77L340.029 227.27L338.689 227.64L334.749 228.31L332.929 227.84L332.109 228.05L330.849 229.36L324.679 229.21L323.559 229.46L322.239 230.71L320.899 230.87L319.909 227.29L319.189 226.55L317.679 226.16L317.279 225.19L316.619 225.04L315.819 225.11L314.329 226.87L313.259 227.61L309.139 229.44L308.239 230.95L307.289 231.41L303.819 230.88L301.839 231.75L299.949 231.79L298.759 232.51L296.679 232.29L295.789 231.49L293.289 231.76L292.609 232.23L291.579 232.38L290.269 231.67L288.999 231.38L288.829 231.12L289.099 230.09L288.709 229.81L287.319 231.8L286.229 232.3L284.299 231.49L283.409 231.79L281.339 231.72L281.499 231.45L280.639 229.21L277.789 226.33L277.539 225.78L277.649 225.17L278.259 223.87L277.899 223.02L277.869 221.77L277.619 221.59L277.939 220.11L276.969 219.53L277.289 218.74L277.089 218.08L277.459 217.2L277.339 216.88L278.009 215.69L277.719 215.36L277.789 213.68L278.679 211.73L278.819 209.97L278.679 208.54L278.259 207.51L277.939 207.17L277.009 207.02L277.299 205.88L278.579 204.56L279.569 202.63L279.779 202.74L279.909 201.75L279.319 201.66L280.909 200.33L282.859 197.53L283.349 196L283.189 193.17L284.849 191.84L286.699 188.99L287.779 188.04L289.199 185.98L292.439 182.33L296.089 183.65L298.159 183.84L300.819 183.4L305.779 183.87L307.749 184.56L308.379 185.72L308.929 188.19L310.999 189.37L311.289 190.08L313.569 190.61L313.539 191.45L314.039 191.83L315.059 191.43L316.389 192.6L316.819 192.68L317.349 191.86L317.709 192.47L317.999 192.39L318.769 191.38L319.279 191.27L320.209 191.75L320.819 191.42L324.009 190.94L325.129 191.6L325.859 192.8L327.839 193.46L330.589 192.29L331.849 193.2L332.359 193.3L333.469 192.88L332.239 191.19L331.619 191.05L330.919 188.71L332.679 186.55L332.839 185.87L333.759 184.7L333.999 183.19L335.409 180.66L337.069 179.19L338.489 178.34L338.639 176.37L339.279 176.47L339.759 177.15L339.809 176.35L339.659 175.7L338.119 174.4L335.819 173.13L334.509 172.89L332.989 171.55L331.379 169.33L330.199 166.42L330.069 165.5L330.359 164.03L333.289 163.09L334.089 161.79L335.209 161.31L336.869 161.32L337.099 160.97L337.069 159.43L337.689 158.91L340.059 158.87L340.579 158.25L341.719 157.73L342.279 156.9L343.249 156.2L344.589 154.28L345.029 154.48L345.259 154.27L345.519 152.99L345.309 151.88L344.239 150.24L344.489 149.5L344.239 149.03L345.629 147.95V147.23L345.959 146.82L345.499 145.73L345.719 144.6L346.629 143.57L347.359 143.34Z" fill="#CCCCCC" stroke="white" stroke-width="0.5"/>
<path d="M422.529 145.77L422.969 145.95L425.309 145.58L427.009 146.57L427.669 147.95L428.319 148.27L429.089 148.11L429.919 149.19L430.699 149.59L431.089 150.38L431.589 152.97L432.579 153.04L433.849 151.97L434.979 152.17L436.569 153.28L436.909 153.84L439.149 154.05L439.549 155.51L440.939 157.5L441.899 159.71L441.059 160.94L440.939 162L440.259 163.02L440.719 163.84L439.839 165.85L440.829 166.69L440.629 167.79L439.999 168.23L438.079 167.77L435.759 168.21L434.869 168.65L434.589 168.95L434.389 170.26L433.819 171L433.069 171.71L431.699 171.78L430.849 172.6L430.819 174.15L429.829 174.84L430.029 176.39L429.169 176.77L428.909 177.4L429.249 178.14L430.099 178.43L430.449 179.76L430.179 180.51L430.099 181.88L430.409 182.61L430.399 183.45L429.999 184.1L428.159 185.5L428.009 186.07L426.109 185.99L424.699 187.86L421.099 189.45L420.999 191.33L420.579 192.32L419.169 192.33L418.429 192.61L416.859 192.32L415.399 193.24L414.459 194.54L408.369 196.93L402.639 200.49L400.299 201.28L398.389 200.78L397.219 201.33L395.399 201.59L394.299 202.97L394.159 203.7L394.759 205.35L394.219 205.86L393.419 208.21L392.639 208.03L391.759 208.39L391.289 207.66L389.409 207.89L388.339 208.43L382.159 206.59L379.519 206.55L379.089 205.31L379.009 203.97L379.159 202.71L380.379 199.25L380.509 197.82L380.279 196.97L379.549 196.83L377.599 197.19L377.189 197.5L376.509 197.09L376.759 195.53L375.199 194.59L374.859 193.9V191.07L375.479 190.21L376.609 189.53L377.479 189.37L378.479 189.43L379.999 190.26L382.459 189.69L384.269 189.98L384.909 189.38L384.519 187.79L384.709 187.08L385.549 186.98L385.859 186.53L383.939 184.18L384.089 183.41L383.639 182.87L383.749 182.2L384.609 181.24L384.169 179.5L382.879 178.95L381.769 177.11L381.329 173.27L381.729 171.67L380.959 168.15L381.339 166.73L381.279 164.24L383.419 162.04L385.199 157.22L385.449 153.17L385.889 151.96L385.729 151.44L386.609 151.69L387.459 152.62H388.299L390.129 151.96L391.369 150.86L392.949 150.66L393.259 150.04L393.669 149.96L394.889 150.52L396.789 150.59L397.859 151.14L399.619 151.34L399.789 150.84L399.289 150.35L399.529 149.96L400.039 149.84L400.629 149.25L402.549 148.91L404.679 149.31L406.219 150.02L408.329 149.8L409.049 150.01L413.099 149.92L415.879 148.86L419.649 148.48L421.039 147.63L421.549 146.65L422.529 145.77Z" fill="#CCCCCC" stroke="white" stroke-width="0.5"/>
<path d="M430.181 180.51L431.681 180.14L434.181 178.35L435.121 178.4L440.321 181.95L440.761 182.53L439.741 184.65L431.071 193.83L430.621 195.21L431.101 195.7L433.831 196.09L436.551 195.45L441.851 196.9L442.451 197.38L443.441 199.22L446.201 200.9L449.151 201.81L450.101 202.41L451.241 203.68L451.711 204.76L451.971 206.12L451.791 208.75L450.871 212.11L449.281 215.83L448.421 222.5L447.281 228.09L447.361 229.42L448.071 232.81L450.091 236.33L451.211 237.73L451.401 238.62L453.291 241.21L453.321 248.42L452.901 250.68L453.001 256.2L452.761 259.51L453.261 260.47L453.621 262.32L454.611 263.7L455.141 263.98L456.461 267.8L455.701 268.04L451.821 270.98L451.361 271.77L450.101 272.56L448.521 275.21L448.781 276.91L448.251 278.19L440.561 289.13L439.911 289.4L440.191 289.85L439.761 290.8L439.491 290.89L439.011 290.33L437.951 290.36L437.051 289.81L436.251 289.68L434.811 288.16L433.831 289.02L432.511 289.09L432.701 287.79L433.451 286.67L433.491 286.14L432.631 285.51L430.571 284.9L428.151 285.19L427.531 285.71L424.581 285.96L422.311 286.72L421.521 286.69L420.571 287.16L416.671 286.3L414.561 286.5V286.71L413.551 287.04L411.951 286.82L408.751 286.94L408.291 287.22L408.131 287.71L407.801 287.28L407.941 286.07L407.551 283.28L408.071 279.42L407.881 275.83L408.681 272.1L408.491 265.66L406.921 261.94L401.131 252.8L399.501 251.05L397.641 250.04L396.631 250.1L395.801 250.4L394.661 251.45L392.801 254.03L391.741 254.33L389.791 255.46H387.901L384.301 253.8L382.741 253.56L382.171 253.76L380.441 255.64L378.741 259.55L378.101 262.79L377.211 263.44L371.391 263.18L369.481 262.83L368.371 261.71L368.001 259.33L367.661 258.63L367.071 257.91L364.111 255.99L362.431 256.94L360.951 258.24L359.831 260.42L359.711 261.27L360.841 266.76L360.781 267.4L360.071 268.25L359.461 268.6L357.331 268.51L354.551 267.68L353.091 267.89L351.471 268.95L348.911 271.62L347.071 272.08L346.501 272.49L345.041 272.22L342.451 271.11L338.151 268.04L337.101 267.81L336.271 268L335.061 269.03L333.851 272.03L333.021 273.16L332.271 273.61L331.081 273.66L324.881 270.61L323.851 270.34L322.191 270.27L320.881 270.62L319.531 271.83L319.601 273.97L320.271 274.55L321.841 273.94L322.871 274L323.091 274.32L322.891 275.68L321.461 277.18L320.321 278.96L319.941 280.44L319.811 285.65L320.581 287.47L321.831 288.39L322.151 289.2L321.671 290.08L313.301 292.56L312.251 293.11L309.641 293.17L307.241 292.81L306.721 293.1L305.811 293.72L304.531 296.35L303.081 302.47L302.921 301.81L301.691 300.22L301.101 298.72L299.691 297.95L298.051 298.01L296.991 297.55L295.431 297.96L294.661 299.48L293.251 300.64L290.321 301.19L287.941 302.45L285.541 303.08L284.961 302.8L283.511 303.02L283.151 302.83L282.191 301.1L280.961 300.03L279.541 299.9L278.591 300.19L277.431 301.57L275.871 305.95L275.421 306.38L274.001 306.98L272.461 306.55L271.051 307.01L267.041 309.97L265.911 310.12L265.381 309.82L264.941 309.05L264.021 308.78L262.211 309.15L258.061 308.65L256.791 308.92L256.071 308.77L254.281 307.37L254.861 305.89L255.561 305.54L255.691 304.77L258.031 302.09L258.441 301.27L259.761 300.11L261.421 299.27L262.811 297.93L264.081 295.16L265.081 293.69L266.411 292.45L267.221 290.62L268.031 289.78L268.311 289.2L268.171 288.43L268.521 288.19L268.471 287.76L268.861 287.53L268.721 287.05L269.031 286.9L269.051 286.28L269.561 285.93L270.011 284.81L271.231 283.31L271.631 282.2L277.361 276.55L277.611 275.82L278.981 273.96L278.921 273.45L279.961 271.91L280.021 271.22L282.561 265.85L283.381 264.76L283.511 264.66L283.581 264.05L284.541 260.71L284.551 259.16L285.871 252.47L286.001 252.24L286.171 252.2L285.871 251.63L286.251 250.84L286.081 250.17L285.631 249.52L285.491 249.75L285.151 249.71L284.951 249.76L284.421 249.31L284.391 249.02L283.871 248.63L283.211 246.23L282.821 245.85L282.311 244.41L280.841 243.97L280.601 242.97L279.201 241.38L277.611 240.62L276.011 240.78L275.181 240.47L275.621 237.78L276.681 236.45L276.611 235.92L278.361 232.34L278.321 231.48L278.051 231.17L277.701 231.34L277.551 230.9L278.281 228.95L277.801 228.09V226.32L280.651 229.2L281.511 231.44L281.351 231.71L283.421 231.78L284.311 231.48L286.241 232.29L287.331 231.79L288.721 229.8L289.111 230.08L288.841 231.11L289.011 231.37L290.281 231.66L291.591 232.37L292.621 232.22L293.301 231.75L295.801 231.48L296.691 232.28L298.771 232.5L299.961 231.78L301.851 231.74L303.831 230.87L307.301 231.4L308.251 230.94L309.151 229.43L313.271 227.6L314.341 226.86L315.831 225.1L316.631 225.03L317.291 225.18L317.691 226.15L319.201 226.54L319.921 227.28L320.911 230.86L322.251 230.7L323.571 229.45L324.691 229.2L330.861 229.35L332.121 228.04L332.941 227.83L334.761 228.3L338.701 227.63L340.041 227.26L343.221 225.76L344.431 226.76L344.291 228.18L344.801 228.32L347.371 226.82L350.551 224.02L350.831 222.84L350.481 222.27L350.641 221.98L353.341 220.52L356.471 217.58L358.621 216.53L360.851 216.5L362.301 216.11L363.321 215.48L366.411 212.24L368.271 211.34L371.771 211.15L374.291 210.59L376.281 207.84L377.261 207.19L379.511 206.52L382.151 206.56L388.341 208.41L389.411 207.86L391.291 207.64L391.761 208.37L392.641 208.01L393.421 208.19L394.231 205.83L394.771 205.32L394.171 203.67L394.321 202.94L395.411 201.56L397.231 201.3L398.401 200.75L400.321 201.24L402.661 200.45L408.391 196.89L414.481 194.5L415.411 193.2L416.871 192.27L418.441 192.57L419.181 192.29L420.591 192.28L421.011 191.29L421.111 189.42L424.711 187.82L426.121 185.96L428.021 186.04L428.171 185.47L430.011 184.06L430.411 183.41L430.421 182.57L430.101 181.83L430.181 180.51Z" fill="#CCCCCC" stroke="white" stroke-width="0.5"/>
<path d="M202.95 345.48L199.89 346.78L199.66 346.87L198.58 347.27L191.77 350.83L186.05 352.24L185.15 352.23L173.28 354.73L163.74 355.95L162.15 356.42L160.13 356.51L159.6 357L159.38 357.5L158.54 357.89L158.29 358.6L157.64 359.3L156.66 362.7L155.94 363.27L155.08 365.14L154.29 365.82L152.69 366.44L150.64 367.74L149.46 370.66L148.25 375.67L146.3 381.12L145.52 382.5L145.4 383.36L141.45 390.11L141.14 392.41L140.93 392.98L141.1 393.48L140.63 394.56L140.64 394.77L139.01 398.77L138.03 402.49L136.82 405.55L135.18 408.49L133.54 410.27L131.24 412.12L122.04 417.62L119.84 419.51L115.92 421.04L112.04 421.46L111.18 423.23L109.68 425.14L106.53 427.69L103.66 428.29L100.64 432.35L99.9205 433.96L100.52 435.39L100.45 437.83L100.05 439.87L97.4305 445.74L95.6405 448.34L94.7605 449.06L93.7105 453.4L92.9005 455.35L92.9305 456.8L92.4705 458.45L91.5905 460.21L89.0705 463.71L88.8505 465.57L87.5005 468.86L87.6005 470.65L86.8405 472.67L87.1805 474.47L86.8405 475.98L87.1705 477.02L87.0105 477.8L87.4905 478.11L87.8605 479.14L87.6605 482.23L87.3105 483.56L87.5105 485.03L85.4505 490.84L85.2505 492L85.4505 493.62L83.0705 495.74L81.5405 496.52L81.3005 497.92L80.9805 498.39L84.0605 498.87L89.2305 500.96L90.4205 501.75L92.6705 505L93.8605 505.67L95.0705 505.94L99.9205 505.15L107.94 503.11L116.11 502.67L126.13 504.98L129.04 506.16L130.79 506.57L137.49 504.75L140.42 503.39L145.78 501.49L152.43 500.89L163.66 503.09L171.89 505.92L175.24 505.93L184.17 504.03L190.47 504.02L192.48 504.52L194.83 504.01L194.82 439.51L178.07 439.58L177.54 435.77L176.85 433.65L176.48 431.06L175.79 428.53L174.95 427.25L174.73 425.41L173.37 421.64L173.03 420.09L173.13 418.41L173.9 415.47L175.78 411.65L179.08 407.69L182.85 404.01L185.16 401.09L187.75 394.43L189.75 390.73L191.47 383.42L193.02 379.43L198.04 372L200.95 369.41L202.91 368.22L210.85 368.25L210.25 364.99L211.53 364.65L214.77 364.7L211.55 360.88L209.77 358.01L208.5 354.22L205.84 351.46L203.51 345.29L203.33 345.42L202.95 345.48Z" fill="#CCCCCC" stroke="white" stroke-width="0.5"/>
<path d="M251.591 310.27L247.211 313.3L241.151 316.83L232.761 321.29L231.441 321.73L230.141 322.63L230.121 323.09L228.651 325L227.911 325.37L226.641 326.81L224.931 328.05L223.361 330.1L221.361 331.71L219.621 333.88L219.651 334.3L218.201 335.65L217.511 337.11L216.161 338.31L215.401 340.02L213.061 341.55L212.871 342L213.241 342.48L212.661 342.31L212.631 341.99L212.321 341.88L209.091 343.26L208.871 343.31L207.461 343.72L203.511 345.29L205.841 351.46L208.501 354.22L209.771 358.01L211.551 360.88L214.771 364.7L211.531 364.65L210.251 364.99L210.851 368.25L202.911 368.22L200.951 369.41L198.041 372L193.021 379.43L191.471 383.42L189.751 390.73L187.751 394.43L185.161 401.09L182.851 404.01L179.081 407.69L175.781 411.65L173.901 415.47L173.131 418.41L173.031 420.09L173.371 421.64L174.731 425.41L174.951 427.25L175.791 428.53L176.481 431.06L176.851 433.65L177.541 435.77L178.071 439.58L194.821 439.51L321.331 439.44L321.581 323.86L329.481 320.27L334.751 315.14L340.201 310.82L341.221 310.79L343.971 308.66L348.331 306.08L348.611 305.38L349.521 304.38L352.881 302.41L355.101 300.45L358.991 298.63L359.761 298.43L360.241 298.59L361.231 297.07L361.171 296.05L362.201 295.23L366.181 295.73L369.331 295.01L370.131 295.08L370.711 294.57L372.241 294.12L375.871 290.49L379.291 288.87L380.891 288.88L384.131 290.14L385.391 289.69L386.321 290.1L388.201 289.97L389.131 290.51L390.451 290.61L391.301 291.25L393.451 291.51L394.221 291.29L395.591 289.61L396.581 289.2L398.991 289L399.471 288.57L402.931 288.95L403.421 288.33L405.441 287.18L406.231 287L407.831 287.26L407.971 286.05L407.581 283.26L408.101 279.39L407.911 275.81L408.711 272.08L408.511 265.63L406.941 261.92L401.151 252.78L399.521 251.03L397.651 250.02L396.641 250.08L395.811 250.39L394.661 251.43L392.801 254.01L391.741 254.32L389.791 255.45H387.901L384.301 253.79L382.731 253.55L382.171 253.76L380.431 255.64L378.731 259.55L378.091 262.79L377.191 263.44L371.371 263.18L369.471 262.83L368.361 261.71L368.001 259.33L367.651 258.63L367.071 257.91L364.101 255.99L362.421 256.95L360.931 258.24L359.811 260.43L359.691 261.27L360.821 266.76L360.751 267.41L360.041 268.26L359.431 268.6L357.301 268.52L354.531 267.69L353.071 267.9L351.441 268.96L348.891 271.63L347.051 272.09L346.481 272.5L345.021 272.22L342.431 271.11L338.131 268.04L337.071 267.81L336.241 267.99L335.031 269.03L333.821 272.03L332.991 273.16L332.251 273.61L331.051 273.65L324.851 270.6L323.821 270.32L322.161 270.25L320.841 270.6L319.501 271.81L319.571 273.95L320.241 274.53L321.811 273.92L322.841 273.98L323.061 274.3L322.871 275.66L321.441 277.16L320.291 278.94L319.911 280.42L319.791 285.63L320.561 287.45L321.811 288.37L322.131 289.18L321.651 290.07L313.281 292.55L312.221 293.1L309.621 293.16L307.221 292.8L306.691 293.09L305.791 293.72L304.501 296.35L303.051 302.47L302.891 301.81L301.661 300.22L301.081 298.73L299.671 297.96L298.021 298.01L296.961 297.56L295.401 297.97L294.631 299.49L293.221 300.65L290.291 301.19L287.911 302.45L285.511 303.09L284.931 302.81L283.471 303.03L283.111 302.84L282.151 301.11L280.921 300.05L279.501 299.91L278.551 300.2L277.391 301.58L275.831 305.96L275.381 306.39L273.961 306.98L272.421 306.56L271.011 307.01L267.001 309.97L265.871 310.12L265.341 309.82L264.911 309.05L263.981 308.78L262.171 309.15L258.031 308.64L256.761 308.91L256.041 308.76L254.251 307.36L253.951 307.41L251.591 310.27Z" fill="#CCCCCC" stroke="white" stroke-width="0.5"/>
<path d="M80.98 498.39L84.07 498.87L89.23 500.96L90.43 501.75L92.68 505L93.87 505.67L95.08 505.94L99.93 505.15L107.95 503.11L116.12 502.66L126.14 504.97L129.04 506.15L130.79 506.57L137.49 504.74L140.42 503.39L145.78 501.48L152.43 500.88L163.67 503.09L171.89 505.91L175.24 505.92L184.17 504.01H190.47L192.49 504.5L194.83 503.99L194.98 545.22L166.11 547.98L162.67 550.39L158.62 555.15L155.26 560.49L153.75 564.13L151.74 572.67L151.46 574.92L156.93 632L82.5 631.48L8.1 632.02L7.32 632.17L4.91 641.17L3.51 643.77L3.17 646.2L2.5 648.51L2.49 651.87L3.05 654.52L3.27 654.62L3.04 654.73L1.88 652.45L1.37 652.46L1 651.69L2.03 650.06L1.35 648.56L2.55 645.39L2.52 642.21L3.31 638.86L3.06 637.95L3.94 633.62L3.77 632.14L5.68 622.73L5.55 620.73L5.98 618.62L5.67 616.27L6.86 614.6L6.85 614.22L6.3 614.07L6.54 611.86L8.76 608.94L9.02 608.07L8.88 607.2L9.84 605.3L12.31 598.21L13.57 597.63L13.75 597.21L13.51 596.59L13.77 595.96L15.73 594.43L16.37 593.37L17.08 592.78L18.17 592.85L18.8 593.87L19.88 593.77L22.18 592.97L24.17 591.62L24.15 590.6L24.83 590.07L25.51 588.84L25.8 586.04L26.29 585.15L26.26 584.38L26.74 583.49L28.31 582.47L29.32 581.23L29.5 579.32L29.97 578.34L29.93 575.25L30.2 573.92L32.05 570.73L31.97 570.14L31.43 569.99L32.02 567.85L32.6 568.21L34.85 567.31L36.42 565.79L37.41 564.16L37.61 562.56L37.37 561.53L36.83 560.7L36.09 560.21L35.39 560.34L34.99 560.77L35.41 559.54L35.79 558.71L36.76 558.07L38.27 556.16L38.65 555.36L38.59 554.38L40.7 551.17L40.45 550.43L42.63 548.45L43.71 546.95L44.82 544.48L43.92 543.02L45.23 542.28L45.95 541.09L46.54 540.74L47.71 538.15L48.31 537.94L48.75 537.4L49.29 536.23L50.5 534.75L51.29 533.03L52.6 531.95L53.05 530.69L53.82 530.17L53.69 529.8L52.61 530.61L53 528.72L53.98 527.19L53.59 526.1L54.42 523.75L53.82 524.06L53.12 524.77L52.5 524.92L52.61 525.9L52.07 526.92L51.95 526.61L51.93 526.38L51.79 525.99L51.21 526.39L50.4 528.1L49.47 528.7L49.25 528.73L49.17 528.37L48.63 528.76L46.98 531.1L45.87 535.16L44.62 536.24L44.53 536.34L43.71 537.58L43.63 538.13L43 537.95L42.75 537.22L43.56 535.96L44.52 535.08L44.63 534.03L45.88 532.77L45.81 532.23L46.61 530.25L49.02 527.36L50.31 526.37L50.4 525.96L52.53 524.5L55.84 522.8L58.45 520.94L59.06 520.06L58.78 519.63L59.19 518.86L60.66 517.84L61.2 516.77L61.85 516.37L65.11 512.79L68.35 510.26L71.68 505.59L74.62 502.51L76.25 501.58L80.13 500.03L80.72 499.5L80.98 498.39Z" fill="#CCCCCC" stroke="white" stroke-width="0.5"/>
</svg>
