<svg width="802" height="456" viewBox="0 0 802 456" fill="none" xmlns="http://www.w3.org/2000/svg">
<path d="M508.41 236.56L512.02 242.05L516.82 241.67L520.78 239.95L521.31 241.02L524.54 241.88L528.87 237.8L532.44 236.52L539.39 237.02L545.28 239.94L549.02 245.16L551.59 245.26L558.96 251.36L560.16 251.42L562.8 249.99L575.08 260.51L576.64 263.76L576.76 266.87L581.86 275.18L582.09 277.09L580.84 278.93L581.06 280.03L588.47 283.09L591.9 283.37L590.45 289.23L587.08 291.93L589.86 301.45L589.62 304.39L581.92 305.16L579.71 307.93L578.35 312.17L575.32 316.44L573.92 320.02L570.72 321.35L568.32 323.61L568.97 335.55L562.57 340.04L560.05 339.51L557.92 340.45L557.89 343.74L555.44 347.45L549.59 346.5L547.57 346.83L544.5 346L541.59 344.16L535.78 342.72L531.37 340.45L518.48 336.18L512.74 332L511.82 324.61L512.53 322.74L511.08 320.76L509.34 313.05L507.79 310.57L501.77 309.78L491.82 305.59L484.93 307.44L482.14 309.16L478.4 307.32L475.91 310.76L473.38 310.45L472.12 309.59L469.03 310.04L467.26 308.82L466.86 306.39L464.13 305.22L463.27 303.96L458.97 304.87L450.71 303.19L450.41 301.72L452.94 298.48L452.13 296.85L452.58 295.43L455.43 292.25L459.12 295.69L461.25 295.39L464.39 293.46L464.75 291.53L462.88 281.79L465.11 278.34L469.18 274.68L470.04 270.72L471.88 269.15L473.15 263.91L475.39 262.9L477.01 263.51L478.89 262.91L479.91 263.26L481.14 260.83L484.39 258.29L484.87 251.37L486.04 248.37L489.41 246.19L490.99 243.6L491.62 239.88L493.61 237.8L498.33 236.16L502.11 237.29L506.74 235.37L508.41 236.56Z" fill="#CCCCCC" stroke="white" stroke-width="0.5"/>
<path d="M149.12 148.11L151.33 148.83L149.29 153.04L149.76 155.54L151.52 156.06L153.57 157.96L159.52 156.17L162.46 156.92L164.44 160.41L173.34 161.53L175.19 164.05L178.26 165.83L182.4 163.17L185.39 164.13L188.75 163.08L190.75 161.08L193.47 161.23L198.26 164.61L201.29 164.96L204.08 163.46L205.28 159.69L208.52 155.26L220.94 148.18L227.12 149.14L232.3 149.04L233.44 149.94L232.6 151.7L232.42 161.15L234.45 162.75L241.18 160.63L248.55 162.84L243.47 165.82L243.08 172.39L240.52 175.26L231.5 180.14L226.76 186.42L222.91 185.83L220.32 189.21L220.92 193.55L218.55 195.18L213.13 197.28L210.69 205.36L198.99 202.59L196.58 202.44L194.46 203.51L193.23 208.03L195.27 212.64L195.62 216.87L193.17 221.26L190.17 223.88L191.74 228.18L191.58 230.33L186.33 236.62L183.73 236.52L176.69 231.64L171.91 229.96L168.72 232.95L168.9 234.01L167.64 236.64L167.83 238.22L171.32 241.35L172.8 243.61L176.81 243.21L179.48 244.42L179.61 245.43L181.47 246.92L183.52 247.18L185.22 248.51L185.84 250.94L193.92 255.09L195.31 258.26L198.71 262.62L206.68 264.99L207.52 268.69L209.56 269.05L211.07 270.8L211 274.51L212.09 275.86L211.81 279.42L207.22 278.5L205.01 279.41L201.41 279.59L198.75 281.38L189.12 281.01L184.45 288.64L180.59 288.49L175.15 284.1L172.35 283.56L161.88 273.96L158.76 273.78L155.25 272.41L140.41 263.71L140.63 260.07L138.38 258.26L137.29 255.36L135.22 253.75L130.52 253.51L129.74 254.38L130.34 256.6L124.46 257.69L125.35 255.3L124.44 255.51L123.25 254.51L125.22 253.75L124.54 250.32L116.67 241.54L116.34 236.6L114.23 233.04L103.19 230.78L99.5896 228.52L102.1 225.05L102.67 221.81L105.72 219.94L110.64 215.35L114.28 210.8L115.16 207.61L122.44 199.48L122.04 196.37L118.12 189.62L116.78 185.61L115.66 178.78L113.47 179.36L110.99 183.58L107.7 181.37L107.66 178.29L101.26 176.69L95.8096 173.98L92.3496 168.24L99.8596 165.76L103.19 165.71L114.4 172.36L122.56 173.05L127.85 171.88L129.5 173.93L132.33 172.68L134.85 172.92L136.98 172.19L140.49 179.02L146.54 185.37L147.12 187.76L149.13 188.68L151.72 187.84L150.66 184.39L148.41 182.66L147.25 179.1L141.76 172.78L140.85 169.48L137.47 165.82L137.44 159.05L141.06 154.13L149.29 149.14L149.12 148.11Z" fill="#CCCCCC" stroke="white" stroke-width="0.5"/>
<path d="M388.62 127.68L389.1 127.87L388.73 130.1L390.64 131.26L393.02 130.05L395.6 131.58L398.36 131.15L402.34 135.4L406.08 136.22L408.14 137.48L408.28 138.41L405.47 141.3L404.4 151.61L400.48 156.49L401.09 158.83L405.36 163.51L405.5 164.79L404.05 167.85L403.37 174.54L400.11 175.56L392.01 183.8L390.12 184.11L386.48 181.73L383.51 182L382.98 186.36L381.66 188.62L377.34 192.02L371.74 194.87L371.81 198.04L373 200.13L375.21 201.65L376.97 205.78L376.37 207.16L374.12 206.51L370.71 208.43L370.47 209.86L372.23 213.52L372.24 215.77L368.03 219.06L363.53 224.1L361.79 229.01L360.16 229.48L359.41 231.48L363.76 233.33L366.02 235.96L367.84 240.94L367.49 242.58L371.63 245.25L371.44 246.32L369.48 249.49L367.43 248.13L365.4 248.55L364.3 251.56L365.07 252.68L364.45 256.95L361.57 259.72L361.18 261.71L362 262.57L361.43 267.76L358.42 271.55L354.83 273.45L350.16 271.81L349.28 271.67L347.45 265.49L346.22 264.23L342.95 263.14L341.16 261.58L337.21 262.69L333.28 260.74L329.92 255.84L328.35 256.11L324.2 253.41L319.97 252.64L318.53 251.08L320.88 247.69L321.26 245.29L320.69 244.28L316.12 244.49L314.62 243.18L312.05 244.53L309.55 244.26L302.65 246.03L299.58 245.88L299.52 243.93L294.82 238.59L287.38 234.41L283.64 229.52L281.84 228.27L280.47 225.22L278.24 222.81L278.17 221.33L280.71 220.83L280.07 219.06L278.42 218.01L277.84 216.64L279 215.45L281.64 214.64L283.28 212.01L288.09 212.97L289.13 210.86L288.03 208.22L286.53 207.16L288.6 205.25L294.98 205.72L299.51 204.18L301.53 202.57L303.29 200.75L305.61 194.49L304.71 191.94L305.12 191.52L306.02 190.59L309.94 193.26L313.68 193.72L315.43 194.68L317.88 194.49L325.21 192.16L329.22 189.56L334.62 187.97L338.54 185.88L338.7 181.02L340.34 176.65L351.63 162.65L351.62 155.68L352.72 151.82L353.83 150.22L356.65 149.73L358.26 146.02L357.68 144.38L354.2 140.75L355.6 138.94L357.22 138.29L361.32 134.65L367.84 135.49L369.54 134.79L372.47 130.42L376.8 127.93L380.87 127L383.92 127.83L386.25 126.75L388.62 127.68Z" fill="#CCCCCC" stroke="white" stroke-width="0.5"/>
<path d="M414.499 171.74L415.699 172.27L417.159 175.16L419.639 175.77L422.789 177.84L428.179 178.56L430.829 181.19L431.689 183.28L431.499 185.38L430.209 187.89L430.069 191.39L432.999 190.55L436.239 192.7L439.399 193.57L443.659 192.95L448.499 191.09L455.009 193.43L455.489 195.93L457.979 200.44L456.339 204.35L456.759 205.25L461.579 207.03L469.599 207.69L473.229 210.22L475.389 208.27L481.099 205.11L485.059 206.52L487.029 206.2L490.959 201.34L494.139 198.86L500.059 198.01L501.999 199.46L506.129 204.67L505.059 206.54L505.479 211.07L504.439 211.81L502.339 219.86L500.909 222.59L498.329 236.16L493.609 237.8L491.619 239.88L490.989 243.6L489.409 246.19L486.039 248.37L484.869 251.37L484.389 258.29L481.139 260.83L479.909 263.26L478.889 262.91L477.009 263.51L475.389 262.9L473.149 263.91L471.879 269.15L470.039 270.72L469.179 274.68L465.109 278.34L462.879 281.79L464.749 291.53L464.389 293.46L461.249 295.39L459.119 295.69L455.429 292.25L451.159 286.66L447.159 287.01L444.069 289.65L440.829 291.23L440.219 292.4L432.119 295.05L434.259 301.13L433.929 301.91L425.749 300.33L423.579 302.47L420.729 298.98L419.859 294.87L416.699 290.92L407.169 290.65L398.699 289.32L393.029 290.01L380.799 287.79L370.209 287.91L367.249 285.45L361.959 283.91L358.259 283.59L354.929 285.09L349.469 282.14L346.929 281.6L336.239 282.51L334.099 281.67L333.939 280.66L336.249 278.5L346.679 276.47L348.249 275.49L350.159 271.81L354.829 273.45L358.419 271.55L361.429 267.76L361.999 262.57L361.179 261.71L361.569 259.72L364.449 256.95L365.069 252.68L364.299 251.56L365.399 248.55L367.429 248.13L369.479 249.49L371.439 246.32L371.629 245.25L367.489 242.58L367.839 240.94L366.019 235.96L363.759 233.33L359.409 231.48L360.159 229.48L361.789 229.01L363.529 224.1L368.029 219.06L372.239 215.77L372.229 213.52L370.469 209.86L370.709 208.43L374.119 206.51L376.369 207.16L376.969 205.78L375.209 201.65L372.999 200.13L371.809 198.04L371.739 194.87L377.339 192.02L381.659 188.62L382.979 186.36L383.509 182L386.479 181.73L390.119 184.11L392.009 183.8L400.109 175.56L403.369 174.54L404.899 174.94L408.409 173.22L414.499 171.74Z" fill="#CCCCCC" stroke="white" stroke-width="0.5"/>
<path d="M607.79 275.46L616.86 275.95L620.23 279.46L625.13 277.2L627.35 277.05L627.8 277.53L625.17 281.43L626.64 283.23L627.73 283.24L631.96 280.48L636.29 282.35L637.52 279.87L636.59 278.29L640.13 282.7L641.48 287.2L640.38 289.51L640.01 293.72L642.58 300.76L642.21 305.36L638.94 307.39L634.1 309.09L632.06 313.87L627.73 319.07L626.84 321.24L623.42 323.21L619.05 328.51L617.59 331.68L612.84 335.66L609.08 341.83L609.2 347.54L610.52 351.09L607.98 356.16L609.09 357.24L613.05 357.64L623.91 365.46L621.61 372.59L622.22 375.52L621.84 377.68L623.06 380.22L620.92 389.15L619.6 390.44L615.06 391.79L613.06 394.48L610.32 396.56L606.3 396.86L601.25 394.48L599.99 395.02L601.03 404.69L599.96 410.21L601.36 414.3L603.7 415.68L605.41 419.42L602.38 425.64L601.91 425.19L598.46 426.64L598.53 424.19L593.29 422.3L591.63 420.68L587.89 419.84L586.01 421L582.2 420.62L580.32 421.68L579.12 425.41L575.97 426.16L573.38 428.96L572.62 428.75L570.65 430.44L569.68 430.41L570.52 428.05L570.04 426.2L567.93 425.69L567.89 426.83L566.71 426.76L565.13 424.36L561.85 423.64L558.74 421.6L558.62 420.04L557.44 418.24L557.75 413.53L558.55 411.97L558.01 410.87L558.6 405.78L557.65 403.39L552.9 400.31L549.48 399.39L548.88 397.29L547.62 397.11L546.15 398.96L544.08 399.92L543.74 398.84L542.9 398.67L542.02 400.73L541.2 400.51L540.8 401.49L539.83 401.1L537.62 403.79L535.5 403.8L535.05 405.55L533.45 404.95L533.14 406.25L531.35 407.16L526.5 406.19L523.33 409.5L521.82 409.23L519.35 411.59L521.83 402.55L526.95 395.09L528.68 390.72L528.76 387L527.37 383.01L528.86 378.53L535.6 371.88L535.26 369.7L537.48 362.41L537.34 360.29L535.8 356.69L533.95 354.51L532.14 353.64L530.96 349.69L531.43 347.57L535.78 342.72L541.59 344.16L544.5 346L547.57 346.83L549.59 346.5L555.44 347.45L557.89 343.74L557.92 340.45L560.05 339.51L562.57 340.04L568.97 335.55L568.32 323.61L570.72 321.35L573.92 320.02L575.32 316.44L578.35 312.17L579.71 307.93L581.92 305.16L589.62 304.39L589.86 301.45L587.08 291.93L590.45 289.23L591.9 283.37L595.4 282.18L597.88 280.09L596.51 277.51L595.94 274.52L593.19 271.89L592.55 268.8L593.23 262.18L595.53 260.85L601.81 254.44L602.73 255.13L602.75 256.97L606.2 262.21L604.26 264.78L605.44 272.11L606.61 274.64L607.79 275.46Z" fill="#CCCCCC" stroke="white" stroke-width="0.5"/>
<path d="M157.15 1L158.64 2.23L162.31 2.91L165.42 5.1L169.32 6.22L187.96 9.69L193.06 11.82L197.63 11.16L205.24 12.02L207.5 12.89L208.05 13.83L206.37 16.2L208.05 23.74L211.95 27.32L212.94 29.88L212.97 32.03L210.76 37.74L211.85 39.32L219.88 42.6L223.1 42.93L224.73 44.43L230.3 46.42L232.34 46.34L234.79 48.38L236.82 48.07L239.71 49.21L241.33 48.93L243.24 51.67L249.46 55.02L251.52 57.37L251.93 59.55L257.38 65.17L261.25 67.86L263.78 71.51L264.14 73.68L266.09 76.68L272.62 79.49L275.19 82.47L276.32 83.09L282.73 83.35L287.67 86.36L290.1 86.37L292.83 87.7L298.17 91.47L304.64 92.3L306.26 94.66L309.35 94.6L314.08 96.74L315.61 99.07L315.69 103.64L322.55 105.98L323.24 106.96L322.85 111.05L329.37 117.28L330.35 120.61L332.85 123.59L334.14 129.77L338.41 132.38L341.68 137.45L344.57 139.86L351.7 143.19L353.48 142.46L354.2 140.75L357.68 144.38L358.26 146.02L356.65 149.73L353.83 150.22L352.72 151.82L351.62 155.68L351.63 162.65L340.34 176.65L338.7 181.02L338.54 185.88L334.62 187.97L329.22 189.56L325.21 192.16L317.88 194.49L315.43 194.68L313.68 193.72L309.94 193.26L306.02 190.59L305.12 191.52L297.55 187.58L293.7 186.76L285.93 182.67L280.54 181.98L275.6 183.03L273.18 181.99L270.89 182.54L261.55 178.28L261.89 173.82L258.87 170.64L255.56 165.51L251.39 164.56L248.55 162.84L241.18 160.63L234.45 162.75L232.42 161.15L232.6 151.7L233.44 149.94L232.3 149.04L227.12 149.14L220.94 148.18L208.52 155.26L205.28 159.69L204.08 163.46L201.29 164.96L198.26 164.61L193.47 161.23L190.75 161.08L188.75 163.08L185.39 164.13L182.4 163.17L178.26 165.83L175.19 164.05L173.34 161.53L164.44 160.41L162.46 156.92L159.52 156.17L153.57 157.96L151.52 156.06L149.76 155.54L149.29 153.04L151.33 148.83L149.12 148.11L146.84 147.61L143.47 144.56L142.17 141.92L142.84 134.24L141.21 132.85L140.49 131.01L143.03 127.86L151.43 120.54L155.18 120.44L158.03 123.56L158.46 126.33L160.07 127.01L166.74 124.02L170.16 121.16L173.25 116.86L174.19 113.02L172.03 104.52L170.49 102.65L170.1 93.11L168 91.25L164.74 90.97L163.71 84.74L163.96 82.26L167.56 79.79L168.48 77.34L168.22 74.81L169.57 68.83L170.98 67.14L172.16 67.01L172.67 62.44L172.08 59.14L163.56 57.85L161.86 55.66L158.99 54.8L151.96 57.1L148.44 56.83L144.29 59.37L142.87 59.36L140.32 60.67L139.64 54.63L139.94 50.42L138.18 48.45L134.15 46.53L131.26 48.84L128.88 48.9L126.49 46.79L123.27 46.42L119.34 43.14L120.37 37.47L120.15 33.45L122.83 32.46L127.42 32.6L132.49 25.39L132.61 21.29L134.59 15.28L132.46 9.87L132.17 6.68L133.26 3.68L136.73 2.35L141.59 1.94L142.82 2.58L145.16 6.12L150.81 7.77L151.7 1.5L157.15 1Z" fill="#CCCCCC" stroke="white" stroke-width="0.5"/>
<path d="M696.63 292.4L706.64 293.5L710.23 290.7L717.45 292.18L724.84 289.71L726.03 290.34L725.01 291.67L725.42 292.24L729.2 292.95L734.4 291.21L738.69 288.39L740.66 287.92L741.74 288.78L741.93 293.38L743.89 294.27L747.62 291.84L751.64 290.72L750.02 302.11L747.71 305.7L745.45 307.06L744.88 309.33L743.63 310.87L741.91 309L740.5 308.62L738.93 310.76L738.08 316.51L737.12 318.51L732.45 321.29L729.88 338.23L730.28 345.01L733.53 348.68L735 352.4L739.43 354.98L746.37 355.5L750.63 356.57L757.75 359.98L758.78 361.32L754.68 365.71L753.72 367.9L750.52 370.85L742.87 374.89L737.79 381.22L736.94 384.93L733.83 388.99L736.17 394.28L735.66 396.68L740.78 398.87L742.06 399.86L742.87 401.79L745.46 402.61L751.1 406.07L751.6 408.14L750.64 414.1L747.35 423.47L748.66 429.17L747.07 430.64L748.68 440.47L750.79 445.18L749.68 445.19L749.63 447.3L746.97 448.46L747.1 449.85L743.3 450.07L742.82 451.14L740.95 450.98L740.59 449.74L737.51 448.51L736.95 447.03L731.46 445.03L728.41 444.73L725.06 446.77L721.13 447.02L719.3 448.25L717.89 450.64L718.14 453.37L716.46 454.7L713.74 452.13L712.72 452.71L711.47 451.84L709.14 451.92L708.65 447.91L705.58 447.55L704.35 448.58L703.83 447.63L701.36 447.52L701.67 448.54L698.39 448.42L691.99 443.35L690 428.67L687.38 428.59L687.41 430.14L684.46 434.43L681.58 435.06L680.71 436L677.52 436.26L677.12 431.97L678.45 427.72L682.69 421.08L685.44 418.57L691.07 410.59L699.52 402.31L701.18 399.98L702.02 395.62L700.19 393.36L697.4 392.86L689.78 394.82L684.59 398.24L682.07 395.87L681.1 393.99L682.14 389.63L679.86 385.05L679.72 376.59L675.85 373.79L675.34 371.66L677.53 364.95L677.33 361.86L676 360.53L675.26 356.93L677.15 355.7L679.26 355.79L683.07 351.62L680.02 350.66L680.13 347.17L676.87 343.57L675.87 337.84L679.3 332.85L680.82 319.47L683.5 314.05L683.88 307.73L685.31 304.36L682.03 300.85L682.43 298.78L685.34 294.88L681.78 285.37L682.43 278.55L685.92 278.53L690.05 281.76L692.99 285.36L697.1 287.29L698.47 289.25L696.23 291.55L696.63 292.4Z" fill="#CCCCCC" stroke="white" stroke-width="0.5"/>
<path d="M299.579 245.88L302.649 246.03L309.549 244.26L312.049 244.53L314.619 243.18L316.119 244.49L320.689 244.28L321.259 245.29L320.879 247.69L318.529 251.08L319.969 252.64L324.199 253.41L328.349 256.11L329.919 255.84L333.279 260.74L337.209 262.69L341.159 261.58L342.949 263.14L346.219 264.23L347.449 265.49L349.279 271.67L350.159 271.81L348.249 275.49L346.679 276.47L336.249 278.5L333.939 280.66L334.099 281.67L336.239 282.51L346.929 281.6L349.469 282.14L354.929 285.09L358.259 283.59L361.959 283.91L367.249 285.45L370.209 287.91L380.799 287.79L393.029 290.01L398.699 289.32L407.169 290.65L416.699 290.92L419.859 294.87L420.729 298.98L423.579 302.47L425.749 300.33L433.929 301.91L433.349 303.66L430.219 306.91L426.629 308.24L425.159 307.13L415.509 311.61L414.199 313.09L411.419 313.91L410.909 315.12L407.429 316.5L405.169 321.27L403.309 323.1L398.969 323.98L382.799 324.93L381.849 325.59L381.909 326.7L386.159 327.89L384.199 330.53L382.809 334.39L381.609 333.78L379.589 334.76L375.559 335.31L373.249 334.09L372.319 335.07L371.889 336.73L376.739 341.79L374.799 345.22L370.549 341.9L349.929 331.54L329.149 330.52L328.349 330.8L328.479 331.8L329.609 333.15L328.049 335.97L329.469 337.46L329.519 339.27L328.449 340.34L328.079 342.12L326.429 342.93L326.359 344.07L324.789 345.72L320.289 346.9L317.029 344.98L316.169 343.34L316.409 341.24L310.859 337.2L309.829 335.16L307.729 333.27L294.839 333.8L291.899 333.28L284.729 331.11L283.659 328.75L282.329 328L278.159 328.48L273.989 327.91L271.769 328.55L264.249 327.95L263.879 326.5L265.009 325.45L264.189 322.67L265.549 318.86L263.859 315.66L264.479 313.53L263.389 312.48L263.379 311.23L262.129 310.96L261.719 310.15L262.069 307.25L260.999 304.88L261.479 302.84L260.239 303.81L260.129 302.03L261.879 300.58L269.689 301.73L272.289 299.51L275.019 299.01L276.409 297.06L274.869 296.12L271.979 295.86L268.349 293.38L271.019 286.39L274.889 283.99L279.259 284.33L285.669 282.26L293.269 281.9L293.289 279.56L291.479 277L287.029 274.26L288.089 266.98L292.799 262.49L294.769 261.7L297.179 258.92L293.479 256.48L293.729 251.9L292.539 250.64L295.099 248.31L298.749 247.09L299.579 245.88Z" fill="#CCCCCC" stroke="white" stroke-width="0.5"/>
<path d="M86.49 29.16L89.9 28.45L90.84 27.57L92.12 28.03L95.51 26.8L99.64 26.66L102.29 29.38L104.25 32.76L102.99 35.76L103.08 39.62L104.42 41.44L105.97 41.79L102.48 43.54L101.04 45.45L98.22 46.47L96.46 48.08L93.94 55.51L95.29 58.84L98.24 62.38L98.4 66.1L100.6 68.62L101.61 73.14L99.36 77.4L90.7 79.57L84.77 79.81L72.01 85.64L73.2 90.56L72.77 94.86L71.47 97.8L69.58 98.32L70.04 101.3L73.63 103.76L74.05 107.21L78.42 107.12L80.79 108.64L81.97 110.25L82.47 112.97L80.13 117.32L77.43 119.52L73.22 120.07L69.6 122.35L70.45 127.98L67.35 133.95L65.01 136.14L64.37 138.52L52.44 144.06L51.05 148.43L48.22 149.96L49.5 152.74L46.33 161.84L46.04 164.05L46.74 166.39L45.34 179.31L49.15 188.76L49.62 192.02L48.8 196L44.74 198.71L45.94 208.29L47.15 209.53L46.14 210.76L42.87 207.84L41.14 207.36L41.34 205.87L40.53 203.78L37.84 201.87L32.39 202.67L31.05 202.11L30.33 200.28L27.43 198.6L26.49 195.27L22.24 193.81L20.53 192.13L21.36 190.04L20.52 188.93L15.46 188.2L7.86 181.26L2.83 181.1L1.67 180.47L1 178.68L1.29 170.48L4.82 163.48L6.64 163.05L7.06 161.13L8.57 160.7L7.55 159.81L7.52 157.54L8.83 155.14L8.1 153.3L9.67 149.7L12.98 146.63L16.28 148.07L18.32 148.12L19.54 146.45L21.59 145.26L20.58 142.98L20.64 140.45L19.3 138.76L19.66 136.89L20.4 136.96L20.7 137.85L22.55 138.2L23.36 139.51L24.39 139.21L23.93 135.11L24.58 134.43L24.94 129.74L26.06 127.88L25.79 125.31L23.84 124.83L23.63 123.31L22.72 122.93L22.54 121.26L21.73 120.55L22.29 119.56L21.94 117.28L19.12 115.71L18.86 112.05L18.93 111.48L22.22 110.18L22.95 111.27L24.42 110.96L23.35 108.83L24.39 106.98L25.7 107.57L25.9 106.19L29.38 103.54L29.8 101.88L28.88 101.19L29.17 99.72L32.54 97.48L33.7 97.46L35.29 94.41L35.23 92.43L36.26 89.58L33.41 86.43L31.97 81.38L31.01 80.1L31.36 77.41L32.65 77.46L34.12 76.18L34.89 72.81L37.65 71.06L39.21 71.91L40.81 71.53L43.38 72.09L44.51 69.36L49.69 64.64L51.01 60.98L50.83 57.79L53.56 54.36L56.37 53.2L61.53 53.56L65.41 49.18L67.69 48.89L70.13 42.87L72.09 41.63L74.24 38.45L77.22 37.69L78.19 35.91L80.48 34.39L80.77 32.88L79.8 29.7L83.22 24.72L84.7 24.8L84.95 28.11L86.49 29.16Z" fill="#CCCCCC" stroke="white" stroke-width="0.5"/>
<path d="M790.561 287.63L793.091 287.97L794.421 287.38L798.621 288.06L800.861 289.72L800.821 291.15L798.431 293.24L800.601 296.67L798.841 300.95L796.581 303.06L795.921 309.86L793.421 312.27L792.011 316.65L789.291 318.89V321.66L787.691 323.04L787.311 324.29L787.981 325.01L785.751 329.19L786.071 331.55L788.061 334.73V336.64L786.111 338.27L785.461 341.37L785.581 343.06L787.141 344.61L787.501 346.3L784.581 352.62L784.391 356.23L782.811 359.32L782.851 365.53L780.291 371.17L783.621 374.12L783.931 377.34L785.661 379.24L787.951 380.01L789.461 379.53L790.301 382.67L792.551 384.77L794.421 385L793.301 389.19L795.351 391.36L795.361 395.57L798.531 398.67L797.781 401.15L799.361 405.67L799.551 414.31L797.581 418.38L796.911 423.34L795.021 424.79L794.191 426.97L794.251 430.08L792.531 430.59L792.471 431.71L791.691 432.13L792.251 433.92L791.021 437.22L791.921 441.94L790.741 443.23L791.401 444.05L789.791 446.64L784.521 451.56L784.301 453.94L782.241 453.99L781.171 453.15L780.491 452.07L780.571 449.84L778.031 449.31L774.291 447.06L773.141 445.47L774.031 444.07L771.461 443.75L772.511 442.7L770.541 439.67L770.131 440.78L767.481 442.21L767.941 443.4L766.811 444.1L766.531 445.19L764.471 444.67L764.611 443.64L763.141 442.51L760.501 441.67L760.781 442.21L759.301 443.46L759.601 445.31L758.281 448.09L757.051 448.21L756.651 447.13L755.701 447.03L755.231 448.24L754.151 447.76L753.241 446.09L750.791 445.18L748.681 440.47L747.071 430.64L748.661 429.17L747.351 423.47L750.641 414.1L751.601 408.14L751.101 406.07L745.461 402.61L742.871 401.79L742.061 399.86L740.781 398.87L735.661 396.68L736.171 394.28L733.831 388.99L736.941 384.93L737.791 381.22L742.871 374.89L750.521 370.85L753.721 367.9L754.681 365.71L758.781 361.32L757.751 359.98L750.631 356.57L746.371 355.5L739.431 354.98L735.001 352.4L733.531 348.68L730.281 345.01L729.881 338.23L732.451 321.29L737.121 318.51L738.081 316.51L738.931 310.76L740.501 308.62L741.911 309L743.631 310.87L744.881 309.33L745.451 307.06L747.711 305.7L750.021 302.11L751.641 290.72L753.991 291.56L754.961 293.81L756.521 291.79L757.461 291.71L761.781 294.03L763.751 291.35L766.871 291.97L769.551 294.68L770.281 294.1L772.511 294.2L773.861 293.6L776.061 290.98L777.611 286.53L782.571 282.43L786.731 283.64L790.561 287.63Z" fill="#CCCCCC" stroke="white" stroke-width="0.5"/>
<path d="M455.43 292.25L452.58 295.43L452.13 296.85L452.94 298.48L450.41 301.72L450.71 303.19L458.97 304.87L463.27 303.96L464.13 305.22L466.86 306.39L467.26 308.82L469.03 310.04L472.12 309.59L473.38 310.45L475.91 310.76L478.4 307.32L482.14 309.16L484.93 307.44L491.82 305.59L501.77 309.78L507.79 310.57L509.34 313.05L511.08 320.76L512.53 322.74L511.82 324.61L512.74 332L518.48 336.18L531.37 340.45L535.78 342.72L531.43 347.57L530.96 349.69L532.14 353.64L533.95 354.51L535.8 356.69L537.34 360.29L537.48 362.41L535.26 369.7L535.6 371.88L528.86 378.53L527.37 383.01L528.76 387L528.68 390.72L526.95 395.09L521.83 402.55L519.35 411.59L516.51 410.42L512.26 410.15L509.79 409.23L506.82 409.5L503.88 403.57L505.3 401.36L505.48 397.61L497.1 397.32L494.83 398.03L495.36 398.66L494.82 399.24L494.05 398.77L492.66 399.74L489.6 399.34L488.93 399.04L489.48 397L492.03 395.89L487.31 394.81L486.34 394.17L486.91 393.53L486.41 392.47L483.44 391.98L484.4 389.71L482.47 387.3L476.5 386.15L472.28 384.07L472.26 382.29L469.43 380.93L468.17 381.09L466.31 383.58L464.37 381.23L462.96 383.19L451.45 378.07L451.88 375.18L454.61 371.94L454.25 370.86L454.84 370.61L455.65 365.65L454.85 365.46L454.54 364.39L455.35 363.28L455.88 358.67L451.07 348.72L449.02 345.93L435.82 343.64L434.33 344.21L429.62 342.38L421.38 341.91L417.76 340.15L416.82 340.89L415.17 339.55L414.88 336.42L413.48 335.38L412.98 333.71L410.46 333.72L410.06 334.79L409.38 334.82L408.64 331.75L406.25 331.34L403.15 329.64L402.53 328.53L403.05 326.11L400.58 326.97L399.41 325.85L398.35 326.05L397.66 328.73L396.53 329.68L395.21 329.72L393.16 334.41L392.18 334.19L390.43 335.28L388 334.23L386.31 335.03L385.02 334.16L382.81 334.39L384.2 330.53L386.16 327.89L381.91 326.7L381.85 325.59L382.8 324.93L398.97 323.98L403.31 323.1L405.17 321.27L407.43 316.5L410.91 315.12L411.42 313.91L414.2 313.09L415.51 311.61L425.16 307.13L426.63 308.24L430.22 306.91L433.35 303.66L433.93 301.91L434.26 301.13L432.12 295.05L440.22 292.4L440.83 291.23L444.07 289.65L447.16 287.01L451.16 286.66L455.43 292.25Z" fill="#CCCCCC" stroke="white" stroke-width="0.5"/>
<path d="M248.551 162.84L251.391 164.56L255.561 165.51L258.871 170.64L261.891 173.82L261.551 178.28L270.891 182.54L273.181 181.99L275.601 183.03L280.541 181.98L285.931 182.67L293.701 186.76L297.551 187.58L305.121 191.52L304.711 191.94L305.611 194.49L303.291 200.75L301.531 202.57L299.511 204.18L294.981 205.72L288.601 205.25L286.531 207.16L288.031 208.22L289.131 210.86L288.091 212.97L283.281 212.01L281.641 214.64L279.001 215.45L277.841 216.64L278.421 218.01L280.071 219.06L280.711 220.83L278.171 221.33L278.241 222.81L280.471 225.22L281.841 228.27L283.641 229.52L287.381 234.41L294.821 238.59L299.521 243.93L299.581 245.88L298.751 247.09L295.101 248.31L292.541 250.64L293.731 251.9L293.481 256.48L297.181 258.92L294.771 261.7L292.801 262.49L288.091 266.98L287.031 274.26L291.481 277L293.291 279.56L293.271 281.9L285.671 282.26L279.261 284.33L274.891 283.99L271.021 286.39L268.351 293.38L271.981 295.86L274.871 296.12L276.411 297.06L275.021 299.01L272.291 299.51L269.691 301.73L261.881 300.58L260.131 302.03L260.241 303.81L257.701 304.19L256.311 303.69L255.901 304.51L253.661 304.66L250.161 306.42L244.741 307.59L242.131 307.17L238.011 308.67L236.411 308.58L229.451 304.4L227.841 301.63L220.331 297.36L211.701 289.83L207.061 287.64L206.251 288.47L203.721 287.61L201.321 285.43L198.751 281.38L201.411 279.59L205.011 279.41L207.221 278.5L211.811 279.42L212.091 275.86L211.001 274.51L211.071 270.8L209.561 269.05L207.521 268.69L206.681 264.99L198.711 262.62L195.311 258.26L193.921 255.09L185.841 250.94L185.221 248.51L183.521 247.18L181.471 246.92L179.611 245.43L179.481 244.42L176.811 243.21L172.801 243.61L171.321 241.35L167.831 238.22L167.641 236.64L168.901 234.01L168.721 232.95L171.911 229.96L176.691 231.64L183.731 236.52L186.331 236.62L191.581 230.33L191.741 228.18L190.171 223.88L193.171 221.26L195.621 216.87L195.271 212.64L193.231 208.03L194.461 203.51L196.581 202.44L198.991 202.59L210.691 205.36L213.131 197.28L218.551 195.18L220.921 193.55L220.321 189.21L222.911 185.83L226.761 186.42L231.501 180.14L240.521 175.26L243.081 172.39L243.471 165.82L248.551 162.84Z" fill="#CCCCCC" stroke="white" stroke-width="0.5"/>
<path d="M658.061 262.93L658.611 267.47L659.741 268.78L661.421 268.56L664.601 271.62L668.741 270.2L669.821 270.47L670.611 272.66L675.651 275.26L677.361 277.83L679.841 278.71L682.431 278.55L681.781 285.37L685.341 294.88L682.431 298.78L682.031 300.85L685.311 304.36L683.881 307.73L683.501 314.05L680.821 319.47L679.301 332.85L675.871 337.84L676.871 343.57L680.131 347.17L680.021 350.66L683.071 351.62L679.261 355.79L677.151 355.7L675.261 356.93L676.001 360.53L677.331 361.86L677.531 364.95L675.341 371.66L675.851 373.79L679.721 376.59L679.861 385.05L682.141 389.63L681.101 393.99L682.071 395.87L684.591 398.24L689.781 394.82L697.401 392.86L700.191 393.36L702.021 395.62L701.181 399.98L699.521 402.31L691.071 410.59L685.441 418.57L682.691 421.08L678.451 427.72L677.121 431.97L677.521 436.26L676.431 436.4L676.201 439.37L672.711 439.56L672.751 442.31L669.321 442.99L667.451 444.68L660.141 442.72L656.861 446.36L653.691 444.8L653.141 443.64L646.711 441.53L644.961 439.41L640.921 438.33L637.501 433.57L633.831 433.48L629.831 430.76L623.731 428.74L623.551 427.74L618.311 426.5L618.551 425.34L615.141 424.98L613.721 425.73L609.791 425.69L607.261 428.24L604.351 427.74L603.941 425.66L602.381 425.64L605.411 419.42L603.701 415.68L601.361 414.3L599.961 410.21L601.031 404.69L599.991 395.02L601.251 394.48L606.301 396.86L610.321 396.56L613.061 394.48L615.061 391.79L619.601 390.44L620.921 389.15L623.061 380.22L621.841 377.68L622.221 375.52L621.611 372.59L623.911 365.46L613.051 357.64L609.091 357.24L607.981 356.16L610.521 351.09L609.201 347.54L609.081 341.83L612.841 335.66L617.591 331.68L619.051 328.51L623.421 323.21L626.841 321.24L627.731 319.07L632.061 313.87L634.101 309.09L638.941 307.39L642.211 305.36L642.581 300.76L640.011 293.72L640.381 289.51L641.481 287.2L640.131 282.7L636.591 278.29L634.641 276.14L635.181 272.19L635.971 270.54L639.551 268.4L642.721 264.31L644.771 263.82L647.861 264.89L652.181 261.55L656.221 261.61L658.061 262.93Z" fill="#CCCCCC" stroke="white" stroke-width="0.5"/>
<path d="M111.74 45.25L113.67 46.39L115.07 46.17L116.8 45.66L119.34 43.14L123.27 46.42L126.49 46.79L128.88 48.9L131.26 48.84L134.15 46.53L138.18 48.45L139.94 50.42L139.64 54.63L140.32 60.67L142.87 59.36L144.29 59.37L148.44 56.83L151.96 57.1L158.99 54.8L161.86 55.66L163.56 57.85L172.08 59.14L172.67 62.44L172.16 67.01L170.98 67.14L169.57 68.83L168.22 74.81L168.48 77.34L167.56 79.79L163.96 82.26L163.71 84.74L164.74 90.97L168 91.25L170.1 93.11L170.49 102.65L172.03 104.52L174.19 113.02L173.25 116.86L170.16 121.16L166.74 124.02L160.07 127.01L158.46 126.33L158.03 123.56L155.18 120.44L151.43 120.54L143.03 127.86L140.49 131.01L141.21 132.85L142.84 134.24L142.17 141.92L143.47 144.56L146.84 147.61L149.12 148.11L149.29 149.14L141.06 154.13L137.44 159.05L137.47 165.82L140.85 169.48L141.76 172.78L147.25 179.1L148.41 182.66L150.66 184.39L151.72 187.84L149.13 188.68L147.12 187.76L146.54 185.37L140.49 179.02L136.98 172.19L134.85 172.92L132.33 172.68L129.5 173.93L127.85 171.88L122.56 173.05L114.4 172.36L103.19 165.71L99.8598 165.76L92.3498 168.24L95.8098 173.98L101.26 176.69L107.66 178.29L107.7 181.37L110.99 183.58L113.47 179.36L115.66 178.78L116.78 185.61L118.12 189.62L122.04 196.37L122.44 199.48L115.16 207.61L114.28 210.8L110.64 215.35L105.72 219.94L102.67 221.81L102.1 225.05L99.5898 228.52L97.3298 226.95L96.6798 228.28L95.2298 227.14L96.9398 224.99L95.9898 224.21L94.6598 224.6L94.3898 222.97L93.2398 222.76L90.2998 224.45L89.6998 223.72L90.8998 222.65L88.9498 223.22L87.0698 222.63L87.3598 220.94L86.0398 222.25L85.2898 222.16L85.1498 221.36L84.4098 222.01L83.4398 221.52L83.1298 219.62L84.1498 217.86L82.4398 216.67L79.7298 216.64L79.8598 218.05L77.4998 217.43L75.7498 215.41L72.1098 214.44L72.2098 212.66L70.6598 211.45L70.5598 209.91L68.1998 209.05L67.0298 209.74L63.8098 208.79L63.0398 207.58L63.4098 205.84L61.7498 205.58L61.6898 203.92L60.6498 203.04L60.4798 201.6L56.8198 201.95L54.4598 200.58L53.1298 200.91L53.3098 199.85L52.1798 199.22L52.8298 197.2L48.7998 196L49.6198 192.02L49.1498 188.76L45.3398 179.31L46.7398 166.39L46.0398 164.05L46.3298 161.84L49.4998 152.74L48.2198 149.96L51.0498 148.43L52.4398 144.06L64.3698 138.52L65.0098 136.14L67.3498 133.95L70.4498 127.98L69.5998 122.35L73.2198 120.07L77.4298 119.52L80.1298 117.32L82.4698 112.97L81.9698 110.25L80.7898 108.64L78.4198 107.12L74.0498 107.21L73.6298 103.76L70.0398 101.3L69.5798 98.32L71.4698 97.8L72.7698 94.86L73.1998 90.56L72.0098 85.64L84.7698 79.81L90.6998 79.57L99.3598 77.4L101.61 73.14L100.6 68.62L98.3998 66.1L98.2398 62.38L95.2898 58.84L93.9398 55.51L96.4598 48.08L98.2198 46.47L101.04 45.45L102.48 43.54L105.97 41.79L111.74 45.25Z" fill="#CCCCCC" stroke="white" stroke-width="0.5"/>
</svg>
