<svg width="702" height="990" viewBox="0 0 702 990" fill="none" xmlns="http://www.w3.org/2000/svg">
<path d="M363.731 117.7L364.771 117.62L364.081 118.44L364.491 119.8L363.981 120.87L362.321 118.93L363.241 118.85L363.131 117.65L363.731 117.7ZM363.031 113.46L363.921 113.54L364.341 114.2L363.931 114.91L363.431 114.63L362.431 115.3L362.891 116.76L362.021 118.26H361.341L360.791 118.23L360.201 117.92L359.191 117.71L358.711 117.35L359.061 116.84L357.661 116.8L358.031 116.21L356.971 115.44L355.911 116.48L355.861 114.5L356.991 114.3L357.081 115.14L358.761 114.23L359.051 115.21L360.281 115.24L360.511 114.16L362.151 114.22L363.031 113.46ZM353.111 112.48L353.871 113.06L353.621 115.16L352.981 115.81L352.561 115.21L352.081 116.04L350.111 116.18L349.621 115.36L350.061 114.42L352.081 114.35L353.081 113.31L353.111 112.48ZM350.161 96.16L351.641 97.32L351.461 99.24L351.051 98.57L349.861 99.02L350.081 98.62L349.161 98.06L350.161 96.16ZM360.041 85.47L360.921 86.11L360.271 88.5L358.331 87.93L358.381 86.25L360.041 85.47ZM342.171 84.31L345.431 89.11L349.431 90.57L349.401 91.29L348.391 91.93L348.591 92.78L347.961 92.74L347.771 92.77L348.161 94.22L348.791 94.05L350.121 95.13L351.261 94.93L350.421 95.66L349.451 95.46L348.211 96.11L346.371 96.46L345.851 95.98L345.941 97.72L346.631 98.4L347.831 98.35L347.711 98.72L346.471 100.16L345.721 101.08L345.921 99.1L345.221 98.72L344.741 99.74L344.211 100.51L345.451 101.17L345.601 103.57L344.721 103.31L345.131 104.39L344.531 104.42L344.401 105.05L345.971 107.32L347.241 107.5L347.561 106.54L350.111 105.87L349.921 107.18L347.551 107.41L347.011 108.26L345.771 108.46L347.171 110.88L346.631 111.81L347.641 115.32L349.101 117.36L347.801 117.23L348.321 116.81L347.211 115.86L346.261 116.76L344.601 117.1L343.221 114.59L343.751 113.54L342.521 114.72L342.531 115.32L342.641 116.27L343.081 116.72L342.991 118.54L344.371 119.94L344.831 118.42L345.721 118.51L346.371 117.61L348.031 117.89L348.261 118.92L348.881 119.04L349.321 118.16L351.531 118.19L352.061 119.4L350.921 121.24L352.731 119.62L353.101 119.54L354.971 121.41L356.131 121.22L355.831 119.9L357.931 119.55L359.181 121.04L359.591 121.45L360.531 123.02L362.001 122.13L362.691 123.25L363.911 122.25L366.161 123.58L367.521 125.8L367.071 126.86L364.481 127.6L363.151 126.51L362.391 126.79L362.321 128.67L359.591 128.36L359.041 127.5L357.311 129.72L356.501 132.4L355.211 132.35L354.411 131.58L353.921 132.29L354.211 133.25L354.591 132.85L355.531 133.83L356.501 135.86L355.771 137.19L353.431 136.99L353.971 137.85L353.341 138.35L353.251 139.71L350.641 139.07L350.551 140.43L348.941 141.39L347.051 142.39L346.811 141.96L346.301 142.47L346.451 143.65L345.801 144.22L344.221 142.75L338.451 129.45L338.431 128.19L339.411 127.76L341.091 128.07L341.891 127.43L343.131 127.83L343.361 129.04L342.751 129.85L343.521 130.87L343.251 132.49L344.341 132.87L345.081 137.03L346.161 137.23L344.881 133.35L345.781 133.7L346.611 133.93L348.331 133.66L344.941 133.08L344.331 132.37L346.301 131.79L347.691 130L348.401 130.13L348.261 131.05L350.651 128.42L351.651 129.02L352.381 128.65L352.591 129.41L353.681 128.52L352.741 127.83L352.051 128.55L351.471 128.38L350.901 128.18L349.261 126.19L347.291 126.62L347.611 126.13L346.371 125.33L347.661 124.17L346.941 122.81L348.241 122.54L349.351 123.21L349.791 122.48L348.281 122.22L347.571 122.03L345.921 122.74L345.011 122.13L344.021 122.5L342.141 124.69L341.601 124.36L340.981 125.76L341.301 126.7L339.811 126.23L339.561 125.66L339.181 126.76L337.401 128.06L336.401 128.12L335.661 123.22L334.171 119.83L333.701 116.45L328.701 107.77L323.781 100.71L324.051 98.98L325.311 98.32L326.651 98L329.251 102.8L332.181 104.59L331.701 106.37L332.131 106.6L333.171 107.56L334.451 106.82L334.621 106.17L333.391 105.55L333.831 104.56L334.761 104.13L333.281 100.35L334.151 97.56L332.751 96.26L332.421 96.94L331.381 97.22L330.141 95.9L329.711 96.39L328.361 96.28L327.231 95.54L327.871 92.41L328.471 92.04L330.771 93.1L332.771 92.29L333.021 91.26L335.171 89.5L335.711 89.88L336.101 88.47L338.121 87.72L338.241 86.38L340.241 85.62L340.341 84.28L341.661 83.26L342.171 84.31ZM371.931 79.89L372.571 80.33L372.221 81.81L372.861 81.44L372.991 82.43L373.791 82.51L372.971 82.99L373.121 84.09L373.461 84.16L376.121 85.64L375.271 86.58L375.411 88.14L374.731 88.47L375.531 90.06L376.271 90.05L377.601 91.43L377.891 92.51L376.811 94.18L374.841 93.31L375.061 92.68L375.641 92.83L375.401 91.87L374.311 92.42L373.251 92.22L373.491 89.91L372.041 90.29L371.771 89.51L371.221 89.58L369.341 88.03L368.841 88.71L368.441 87.59L368.411 86.31L369.121 86.44L369.541 87.3L370.371 87.31L369.921 86.31L370.101 85.5L369.611 84.98L370.231 84.59L368.451 84.03L368.641 83.36L369.161 83.83L371.001 83.14L369.631 81.98L369.701 80.73L371.931 79.89Z" fill="#CCCCCC" stroke="white" stroke-width="0.5"/>
<path d="M394.931 148.73L395.831 149.22L398.701 153.47L401.671 156.65L401.311 157.09L398.701 154.69L398.361 155.89L396.691 154.97L396.601 153.45L398.211 153.93L394.791 149.99L394.931 148.73ZM404.591 229.01L405.581 228.08L406.501 227.99L406.541 226.62L405.811 225.55L406.651 224.4L405.771 223.12L405.591 220.48L404.531 220.36L404.201 221.3L402.731 221.06L400.721 218.6L399.961 217L400.621 217.01L399.631 216.04L399.161 214.87L399.671 214.67L399.931 212.67L403.951 213.8L405.561 212.36L402.281 208.51L403.571 206.12L403.611 204.76L404.121 204.56L400.881 203.12L400.111 203.42L399.641 202.25L397.561 202.52L397.241 201.57L397.871 201.06L397.661 199.8L398.721 199.93L401.031 197.15L401.681 199.05L402.481 199.28L402.551 200.33L404.521 200.37L406.421 199.36L406.391 198.84L407.561 198.66L408.291 199.72L407.371 201.69L409.661 202.68L410.911 199.77L414.401 201.1L414.081 200.15L415.401 194.52L413.841 192.71L411.591 192.24L410.181 190.64L409.021 190.82L407.531 190.06L407.461 189.01L407.031 188.37L406.521 188.57L405.411 185.51L405.921 185.31L404.781 181.73L405.261 181.01L404.691 180.16L404.181 180.36L404.261 179.53L402.351 178.13L399.741 178.07L397.831 176.66L397.621 175.4L396.251 174.32L394.541 174.17L394.481 173.13L393.681 172.9L393.191 171.22L394.581 170.43L393.901 169.89L394.131 169.27L393.191 168.83L393.421 168.21L392.711 167.15L393.221 166.96L391.891 166.4L392.651 163.72L391.711 160.89L389.171 157.06L389.341 155.4L388.051 152.95L389.051 152.05L388.041 150.02L389.021 148.6L390.001 150.11L391.561 150.07L390.971 148.69L390.461 148.88L390.041 148.23L390.901 147.13L391.441 147.47L392.171 146.68L391.691 145.52L392.321 145.56L392.651 144.64L392.111 144.3L393.091 143.95L393.081 145.16L395.101 148.39L394.561 148.51L394.221 147.63L393.241 148.17L392.711 149.86L393.471 149.9L393.481 149.3L394.581 150.75L392.321 151.72L393.621 152.71L392.701 152.99L392.461 153.9L393.211 153.43L393.641 154.54L394.351 153.69L394.631 154.58L393.861 154.96L395.111 155.51L394.691 156.13L395.041 156.9L396.041 156.15L396.841 156.85L397.531 156.27L396.861 157.83L399.021 158.08L399.151 159.22L400.771 157.94L401.461 158.4L401.361 159.68L401.991 158.36L402.271 159.33L401.381 160.67L401.671 161.27L402.661 160.27L404.441 160.52L404.651 159.78L403.801 159.32L402.441 158.29L402.481 156.87L401.911 156.49L402.241 156.16L405.451 159.06L412.281 162.94L413.151 162.7L413.721 161.73L414.281 162.78L421.301 167.52L424.671 168.9L431.881 170.56L435.121 171.55L435.781 172.81L439.981 173.95L437.091 173.66L437.131 174.5L438.661 174.75L439.081 175.52L439.811 175.66L440.701 175.06L440.561 174.08L449.691 173.94L453.391 172.2L453.351 171.46L455.731 170.1L456.021 168.93L457.191 167.95L457.341 166.65L458.291 165.37L459.641 164.21L461.081 162.76L460.471 161.78L461.981 160.96L462.771 158.79L464.961 158.63L466.211 157.74L467.561 157.89L468.871 156.81L469.621 155.14L470.061 155.89L471.511 155.76L473.041 153.8L472.721 151.85L473.681 152.64L474.821 152.08L476.491 152.19L477.511 154.83L474.931 154.79L472.521 155.53L472.311 156.15L473.361 159.43L472.741 159.95L473.071 160.88L472.341 161.72L473.231 162.96L474.841 161.49L476.281 163.03L472.241 167.13L468.031 180.13L467.521 180.34L462.631 175.93L461.711 176.04L461.261 175.43L460.491 175.75L461.741 177.91L460.761 178.85L461.321 179.16L461.411 180.19L460.131 180.71L459.711 181.95L460.161 182.57L457.971 183.2L457.911 184.03L456.101 185.17L453.591 185.78L453.891 186.2L453.281 186.72L454.021 187.76L452.591 191.28L443.701 195.88L444.401 200.17H443.741L443.161 201.21L442.211 200.78L441.561 202.66L440.791 202.97L441.081 203.39L439.401 203.8L438.601 205.48L437.691 205.58L437.651 205.05L436.131 205.66L435.191 207.12L435.481 207.55L433.931 209.52L431.581 209.37L430.171 207.77L429.051 208.48L428.501 208.15L427.521 209.08L426.431 208.43L425.671 208.73L425.231 209.98L424.581 209.97L424.761 210.71L423.451 210.68L423.021 213.82L423.421 213.93L422.691 214.75L422.991 217.07L418.841 221.39L419.581 224.35L413.141 224.44L411.901 227.37L413.051 230.45L411.841 230.11L410.041 230.82L411.071 232.32L408.871 232.92L404.591 229.01Z" fill="#CCCCCC" stroke="white" stroke-width="0.5"/>
<path d="M267.911 382.66L268.311 384.24L267.981 385.23L268.601 386.15L269.711 386.31L270.621 385.68L271.191 386.04L271.281 387.16L272.341 386.76L272.651 387.22L271.901 388.08L272.031 389.77L272.501 390.46L273.601 390.62L273.641 391.18L272.831 392.94L273.871 393.99L275.461 393.38L276.081 394.3L275.751 395.3L276.901 396.02L276.571 397.02L277.881 397.97L279.251 398.03L278.721 398.23L277.691 400.66L278.791 400.82L279.581 400.51L280.471 401.33L280.141 402.33L280.871 402.92L281.661 402.61L281.831 401.38L285.051 400.72L285.331 399.16L286.651 398.66L287.611 397.13L287.521 396.01L288.461 395.94L285.851 395.49L286.071 394.83L287.011 394.76L287.071 393.87L290.651 391.35L290.451 390.56L292.171 390.19L292.391 389.53L292.441 390.09L293.121 390.12L293.181 389.23L295.271 388.43L295.841 388.79L296.051 388.13L297.091 387.73L296.891 386.94L297.831 386.87L296.931 384.03L297.821 383.39L297.731 382.27L298.731 381.3L300.081 381.35L300.991 379.25L302.291 378.74L302.351 377.84L303.851 378.12L304.541 376.68L306.721 375.51L306.521 374.72L307.311 372.94L308.391 373.08L309.491 375.25L310.591 373.92L315.861 372.87L316.621 374.01L319.871 373.8L319.461 375.69L315.081 382.03L314.521 384.02L314.971 386.31L313.161 387.38L309.931 391.36L308.291 392.26L307.661 393.1L307.701 394.24L305.491 396.33L305.151 398.74L306.641 399.79L305.361 400.42L304.631 399.19L302.571 399.6L299.081 402.62L297.971 406.08L298.791 406.53L297.101 408.66L292.821 419.52L290.701 422.27L290.901 424.05L287.901 427.73L283.891 429.62L281.621 432.91L280.111 432.7L278.201 434.05L274.041 435.44L272.371 437.23L271.401 437.27L269.791 439.62L267.821 444.21L267.191 451.14L267.521 455.24L268.811 459.87L268.571 460.15L267.851 458.25L266.891 459.74L268.201 459.82L268.511 460.38L269.751 460.56L269.821 461.31L271.021 461.55L267.701 462.77L265.951 462.64L264.891 463.43L265.231 465.19L265.661 465.59L266.141 464.14L266.391 465.17L267.021 464.99L267.501 463.51L268.461 463.39L268.861 464.21L269.751 463.02L269.971 463.39L271.721 462.38L271.141 465.3L271.541 465.57L273.061 462.29L273.941 463.18L274.311 462.93L275.071 463.44L274.061 466.05L274.321 466.89L275.841 463.39L276.461 464.27L277.021 464L277.641 463.94L278.281 464.36L278.151 465.4L278.241 466.24L279.321 465.06L280.351 464.97L279.871 465.47L281.031 466.37L280.741 467.16L281.501 467.52L281.911 466.69L282.801 467.6L282.351 468.66L283.181 469.05L283.581 470.13L283.531 471.74L282.911 472.95L282.261 473.3L282.511 474.76L281.711 474.91L281.551 475.82L280.721 474.99L279.991 476.91L277.271 477.7L277.251 476.98L276.101 475.86L276.341 474.02L277.291 473.05L276.501 472.99L276.231 472.32L277.161 472.07L277.041 471.11L276.251 471.02L275.911 470.32L275.031 470.99L275.381 473.41L274.741 474.22L274.991 476.05L276.271 477.44L276.301 478.38L274.901 477.86L273.971 478.31L272.921 477.73L271.661 477.83L271.141 477.29L270.751 476.38L269.951 476.71L269.041 475.78L268.351 474.7L266.981 474.43L251.591 476.66L239.461 482.15L225.471 490.27L217.601 495.89L213.401 499.8L210.111 504.33L210.791 505.02L210.541 508.01L208.241 512.17L206.911 516.29L207.321 528.89L206.301 534.76L205.111 534.3L203.611 534.59L201.331 533.64L200.531 533.97L199.631 533.09L197.981 533.15L196.391 532.25L195.161 532.44L195.111 531.84L192.441 531.36L184.831 527.9L183.041 529.85L182.531 532.22L182.101 532.08L181.501 533.25L179.351 534.1L178.591 535.02L178.011 534.63L176.551 535.51L175.651 534.63L175.671 533.07L174.551 532.89L173.791 533.81L172.281 534.09L171.961 533.6L170.661 534.73L165.811 535.07L165.611 534.22L164.751 533.94L165.401 533.38L164.881 532.04L163.281 531.12L161.971 528.54L162.151 527.24L160.001 519.14L158.011 518.68L155.891 520.11L153.001 518.76L151.831 514.3L151.171 514.86L151.151 516.4L148.191 516L148.941 512.96L147.991 511.48L148.721 509.98L148.521 509.14L146.531 508.67L145.721 508.98L144.391 507.96L145.051 507.41L144.581 506.67L145.471 505.42L144.841 504.44L145.501 503.89L145.301 503.05L145.961 502.5L145.651 502.01L145.291 500.93L145.831 500.73L145.881 497.67L144.311 495.23L145.121 494.93L145.421 493.3L146.891 492.45L146.581 491.96L147.511 491.31L147.311 490.48L148.281 490.42L148.191 489.25L149.001 488.95L148.801 488.12L149.611 487.82L149.911 486.2L151.151 486.04L150.571 482.05L151.381 481.75L152.101 480.28L152.801 480.32L153.211 478.37L155.861 476.77L156.691 474.96L158.081 475.03L157.991 473.87L159.601 473.26L159.821 472.58L160.941 472.75L160.851 471.59L161.501 471.04L161.031 470.32L162.261 470.15L163.281 469.16L163.241 467.07L165.481 465.9L165.921 464.53L165.461 462.31L167.481 461.83L167.921 460.47L169.141 460.3L170.861 457.85L172.511 457.81L174.711 456.08L175.661 457.5L177.541 456.78L178.521 455.22L179.751 455.04L180.191 453.68L182.071 452.96L182.561 452.18L183.041 452.89L184.281 452.71L184.491 453.52L185.731 453.34L185.791 452.42L187.471 450.88L186.841 449.94L187.871 448.95L189.651 448.56L189.131 447.28L191.231 447.37L192.811 446.17L193.131 446.64L193.941 446.33L194.011 445.41L195.791 445.02L195.811 443.53L196.621 443.22L198.001 441.21L198.861 441.48L198.791 442.4L200.301 442.12L201.561 440.45L201.631 439.54L202.981 439.02L202.351 438.08L203.541 437.33L203.341 436.52L204.151 436.21L203.841 435.74L204.851 436.24L205.501 435.69L205.301 434.88L206.111 434.57L206.421 435.04L208.001 433.84L208.581 434.21L209.661 433.8L209.571 432.65L210.491 432L210.091 430.38L213.131 428.33L212.701 428.2L212.931 427.52L214.321 427.58L215.241 426.93L216.521 427.32L216.301 428L216.841 427.79L218.141 426.7L217.831 426.23L218.331 425.45L219.181 425.71L220.211 424.72L221.111 425.56L223.951 424.75L224.961 425.25L226.951 424.18L228.001 425.25L228.811 424.94L230.221 423.51L229.481 422.91L229.711 422.23L230.781 421.81L230.721 419.18L232.911 418.92L234.101 418.17L234.441 417.15L235.671 416.97L235.541 415.25L236.841 414.16L237.131 412.57L239.271 411.74L239.071 410.93L240.831 410.54L241.411 410.9L244.081 409.87L243.771 409.4L244.301 409.19L243.991 408.72L244.811 406.93L247.061 405.77L247.081 404.29L249.021 402.66L249.201 401.42L251.221 400.93L253.601 397.97L255.731 397.15L256.311 397.51L257.491 396.77L257.581 394.4L258.271 394.43L258.181 393.3L259.051 392.1L258.741 391.64L260.491 391.26L261.951 388.96L263.811 388.25L264.301 387.49L264.011 385.57L265.291 384.51L264.891 382.93L266.751 382.23L266.951 383.02L267.911 382.66Z" fill="#CCCCCC" stroke="white" stroke-width="0.5"/>
<path d="M698.58 495.81L699.61 496.23L700.88 498L701.25 497.84L701.27 498.48L700.02 499.32L699.4 501.41L698.45 501.8L697.76 502.93L697.24 502.36L697.57 501.47L696.87 501.29L697.44 500.49L696.98 499.91L697.3 499.39L696.76 499.2L697.95 498.09L696.47 496.8L698.04 496.73L698.58 495.81ZM682.87 467.12L686.32 468.72L688.05 468.57L688.28 469.54L690.26 470.11L692.94 469.94L693.73 469.34L695.59 470.05L697.62 468.96L698.52 469.35L699.3 468.95L699.81 469.57L698.44 469.77L697.92 471.54L697.19 470.86L696.23 470.91L694.12 472.42L691.67 476.59L690.99 479.64L690.55 479.17L691.02 477.64L690.52 474.94L690.82 475.47L691.58 474L693.1 472.99L691.95 471.25L690.31 470.3L688.7 470.09L687.78 470.96L687.04 469.79L685.71 469.77L685.4 471.49L686.21 472.57L690.02 473.36L688.68 474.39L688.05 474.17L686.84 475.85L687.29 477.63L688.81 479.19L688.43 481.11L690.28 481.96L690.67 480.1L690.22 479.47L690.82 479.54L692.06 484.5L694.6 485.45L694.62 486.37L688.69 487.72L688.18 488.62L686.9 488.98L684.8 490.86L682.53 490.43L682 487.85L681.4 487.56L681.68 486.02L680.55 484.26L684.68 481.7L684.96 480.53L685.74 481.14L686.45 480.37L686.06 477.54L684.1 474.19L683.43 473.48L681.68 473.41L681.43 472.79L681.15 473.38L680.51 472.87L680.41 473.88L679.72 473.38L679.98 474.15L679.43 474.57L677.84 474.74L676.34 474.07L676.74 474.84L675.42 475.41L674.47 474.91L674.23 475.35L672.93 475.17L673.27 474.59L672.41 474.19L673.2 473.87L673.5 472.34L675.66 472.05L675.15 470.64L675.5 470.03L678.12 471.12L681.6 470.18L682.6 469.09L682.33 467.74L682.87 467.12Z" fill="#CCCCCC" stroke="white" stroke-width="0.5"/>
<path d="M480.071 151.62L485.811 152.78L484.841 153.87L485.101 154.7L485.781 154.99L486.711 155.93L487.911 156.52L492.101 156.86L494.351 158.52L494.811 159.46L490.771 165.77L491.071 166.45L489.281 167.99L488.511 170.63L488.651 172.7L486.471 175.15L486.451 176.41L487.891 177.06L487.501 177.96L487.931 179.18L487.361 180.02L485.921 180.53L485.711 181.6L487.221 183.36L486.521 184.1L486.471 185.46L485.441 186.21L486.401 187.44L486.431 188.51L486.181 189.52L486.211 192.04L486.621 193.32L486.891 195.18L485.531 196.03L484.391 197.96L484.811 200.79L481.411 203.53L481.161 204.56L479.591 205.83L479.131 206.91L478.331 206.83L476.521 208.2L476.051 209.71L473.871 207.83L472.261 208.4L471.011 209.84L470.781 211.73L472.291 212.08L470.551 213.73L469.951 215.65L470.271 217.43L469.571 218.65L469.911 219.56L469.441 222.85L467.301 222.17L466.851 221.54L467.441 220.5L466.981 219.87L466.351 220.39L465.631 219.87L465.701 219.04L464.701 219.98L463.681 219.03L462.841 220.18L462.491 219.24L462.121 219.66L459.951 219.44L460.261 216.61L459.531 217.45L458.521 216.51L457.741 216.82L457.441 214.52L456.361 214.41L455.471 215.04L454.401 213.06L453.631 213.37L452.601 211.91L453.081 211.18L452.711 209.72L451.241 209.51L451.201 208.99L450.431 209.3L451.941 206.27L449.771 205.53L448.191 205.63L446.391 204.47L446.461 207.4L439.371 203.8L441.051 203.39L440.761 202.97L441.531 202.66L442.191 200.78L443.141 201.21L443.721 200.17L444.381 200.18L443.681 195.89L452.581 191.29L454.011 187.77L453.271 186.73L453.891 186.21L453.591 185.8L456.101 185.19L457.911 184.05L457.971 183.22L460.161 182.59L459.711 181.97L460.131 180.73L461.411 180.21L461.321 179.18L460.761 178.87L461.741 177.93L460.491 175.77L461.261 175.46L461.711 176.08L462.631 175.97L467.521 180.38L468.031 180.17L472.241 167.17L476.281 163.07L474.841 161.53L473.231 163L472.341 161.76L473.071 160.92L472.741 159.99L473.361 159.47L472.311 156.19L472.521 155.57L474.931 154.83L477.511 154.87L476.491 152.23L479.781 152.67L480.071 151.62Z" fill="#CCCCCC" stroke="white" stroke-width="0.5"/>
<path d="M419.691 296.24L418.361 296.16L417.331 295.19L416.861 295.94L414.751 294.84L414.541 295.49L412.631 295.14L412.271 294.16L410.611 293.71L410.821 293.06L409.841 292.61L411.361 291.44L410.481 290.67L411.011 289.05L410.141 288.28L410.461 287.31L409.411 284.37L410.211 282.65L408.931 281.77L408.431 280.57L407.611 280.34L408.151 278.73L407.171 278.29L407.131 277.75L405.791 277.74L406.011 277.1L404.841 275.9L403.761 275.78L403.721 275.24L401.561 275L400.821 275.85L399.201 274L400.371 271.86L399.661 271.32L400.141 270.57L399.841 270.14L400.691 268.97L400.131 268.64L402.371 261.39L402.141 260.11L402.661 259.9L402.691 258.51L403.581 257.88L402.021 256.58L402.671 254.67L401.111 253.37L402.811 252.97L403.721 250.96L404.901 250.76L405.381 250.02L407.441 249.2L408.251 249.42L407.451 245.91L407.931 245.17L407.521 245.06L408.511 244.12L408.061 243.48L408.721 243.49L408.681 242.96L407.421 242.1L406.091 242.08L405.901 241.34L406.421 241.14L406.451 239.76L407.591 239.04L407.181 237.02L405.371 235.83L403.791 235.91L402.691 233.35V231.45L402.761 230.61L404.931 229.48L404.641 229.05L408.871 232.82L411.071 232.22L410.041 230.73L411.841 230.02L413.051 230.36L411.901 227.28L413.141 224.35L419.581 224.26L418.841 221.3L422.991 216.98L422.691 214.66L423.421 213.84L423.021 213.73L423.451 210.59L424.761 210.62L424.581 209.88L425.231 209.89L425.671 208.64L426.431 208.34L427.521 208.99L428.501 208.07L429.051 208.4L430.171 207.69L431.581 209.3L433.931 209.45L435.481 207.48L435.191 207.05L436.131 205.59L437.651 204.98L437.691 205.51L438.601 205.41L439.401 203.74L446.491 207.35L446.421 204.42L448.221 205.58L449.801 205.48L451.971 206.22L450.461 209.25L451.231 208.94L451.271 209.46L452.751 209.67L453.121 211.13L452.641 211.86L453.671 213.32L454.451 213.01L455.521 214.99L456.411 214.37L457.491 214.48L457.801 216.78L458.581 216.47L459.591 217.42L460.331 216.58L460.031 219.41L462.201 219.63L462.571 219.21L462.921 220.15L463.771 219L464.791 219.95L465.791 219.02L465.731 219.85L466.451 220.38L467.081 219.86L467.541 220.49L466.951 221.53L467.401 222.16L469.541 222.85L469.001 225.11L469.601 227.83L470.171 228.5L471.421 228.96L471.931 228.63L473.601 229.69L470.561 232.67L469.841 235.75L468.141 237.69L467.301 233.54L466.461 232.26L467.101 231.93L468.491 228.47L467.291 227.25L466.571 228.17L463.591 227.09L460.491 226.81L450.541 227.46L442.161 230.52L437.851 232.75L436.031 234.31L435.161 237.47L432.191 241.11L431.081 241.67L429.901 244.17L429.491 246.89L430.091 248.31L431.501 247.96L431.461 251.92L433.221 255.61L435.641 256.87L437.491 256.07L438.231 256.57L435.121 261.02L434.241 264.45L434.711 266.58L431.851 271.32L430.121 275.9L429.791 277.4L430.371 278.5L429.481 279.69L429.521 281.22L428.491 281.84L426.221 285.98L425.911 285.6L424.321 286.17L421.951 288.09L421.751 291.02L419.691 296.24Z" fill="#CCCCCC" stroke="white" stroke-width="0.5"/>
<path d="M332.271 330.11L332.731 330.4L332.671 331.68L331.691 336.07L330.781 335.48L330.061 336.51L329.471 335.96L328.421 336.35L327.291 337.79H326.451L326.311 337.03L325.591 337.78L323.731 338.11L324.981 336.37L326.421 336.7L327.321 336.04L327.731 335.7L327.151 335.52L327.471 334.94L328.661 334.96L328.741 334.17L329.911 333.83L329.571 334.69L330.701 334.65L330.391 334.22L331.601 333.58L331.971 332.04L330.821 333.09L330.211 333.14L328.571 332.88L329.251 332.1L330.381 332.25L331.341 331.61L332.271 330.11ZM320.581 322.52L320.821 324.03L319.751 325.36L319.331 324.51L320.321 323.39L319.371 323.09L320.581 322.52ZM317.171 320.96L318.321 321L317.971 322.33L317.281 322.89L316.861 321.09L316.271 321.14L315.791 321.63L316.391 321.69L316.091 322.34L315.471 322.73L315.721 323.86L315.341 324.19L314.501 323.64L313.501 324.43L313.651 324.99L314.691 324.71L314.271 325.38L313.141 326.01L312.641 325.7L312.071 326.68L310.311 326.61L310.711 325.04L309.781 326.32L309.071 325.95L308.581 326.64L310.051 327.27L308.421 328.33L309.131 328.51L308.831 330.04L308.561 330.43L308.581 331.01L309.111 331.3L308.861 330.65L309.411 330.39L309.971 330.34L310.811 328.32L311.871 328.86L312.271 328.34L312.891 328.79L314.041 328.43L315.551 328.81L313.841 329.17L313.641 329.94L312.331 329.68L311.941 330.63L313.081 330.79L312.901 331.87L311.421 331.49L311.741 332.42L310.901 332.61L311.091 333.08L308.801 333.54L309.101 334.61L311.531 333.46L310.781 334.54L311.901 334.31L312.191 335.47L311.341 336.87L311.561 338.09L310.491 338.54L309.391 337.78L309.811 338.72L308.071 339.21L308.541 340.27L308.831 339.16L309.901 340.4L311.261 340.64L311.541 340.11L310.671 340.37L310.011 339.31L312.291 338.85L314.601 337.2L312.841 337.49L311.981 337.35L312.061 336.93L315.331 335.97L315.371 336.53L316.251 336.84L317.971 335.85L318.701 336L318.201 335.23L320.281 335.66L322.171 334.5L319.471 334.87L319.001 334.65L319.191 333.82L316.941 335L316.311 335.58L316.211 334.53L314.661 335.83L313.471 335.77L312.491 336.42L312.801 334.8L313.421 334.3L312.681 334.24L312.301 332.88L314.371 332.05L313.581 331.87L313.851 331.27L314.711 331.51L314.851 329.95L315.241 330.25L316.491 329.63L315.531 331.53L316.141 333.39L316.431 332.23L317.201 332.63L317.231 330.9L317.881 330.51L318.921 331.46L319.241 331.12L318.201 329.1L318.431 328.51L319.281 328.41L319.361 326.73L318.801 327.04L317.811 326.54L317.101 327.59L316.041 327.94L314.881 327.67L315.641 327.21L314.961 326.58L316.991 326.42L316.081 325.21L316.351 324.78L317.311 325.31L317.251 324.04L318.041 323.84L318.351 324.41L317.961 324.95L318.341 326.45L318.861 326.12L319.281 326.55L320.071 325.45L320.021 326.37L320.701 326.57L321.641 328.34L321.231 325.38L322.991 326.66L323.031 325.5L323.791 324.79L324.511 326.2L326.471 324.88L325.931 326.1L325.091 326.26L325.231 327.71L324.841 327.84L324.651 327.17L324.001 327.89L326.001 329.32L326.881 327.72L327.611 327.87L328.011 327.13L329.111 327.43L328.121 327.92L328.071 329.18L326.611 330.4L327.191 331.06L327.081 331.97L326.211 331.41L325.621 331.76L325.581 332.51L324.721 332.83L325.111 332.06L324.561 332.01L324.491 330.22L323.851 331.65L323.181 331.27L323.251 332.2L323.971 332.67L323.761 333.38L325.291 333.58L324.691 334.62L325.291 334.54L325.401 335.15L324.091 336.08L324.171 335.21L323.441 334.61L323.591 336.69L322.431 336.21L322.381 335.61L321.911 336.25L322.171 337.02L321.611 337.12L321.181 336.1L320.491 337.53L319.991 337.16L320.251 336.29L319.661 336.82L319.351 336.51L318.701 336.57L318.141 337.4L317.511 336.92L317.461 338.27L316.411 337.36L316.471 338.75L314.161 339.33L313.851 340.04L317.921 339.02L317.911 340.45L318.941 338.8L320.091 338.67L320.761 338.4L323.221 337.64L322.771 338.96L323.391 338.49L323.731 339.21L324.401 338.57L325.361 339.92L325.701 339.41L324.721 338.67L325.191 338.26L325.741 338.83L327.151 338.28L328.231 338.23L328.191 337.65L329.611 336.72L328.751 337.78L329.051 338.56L328.251 338.99L328.581 339.58L327.541 339.54L326.291 340.73L327.081 341.58L326.771 342.18L325.851 342.46L325.401 341.72L325.021 343.09L323.551 343.19L323.711 343.83L322.661 343.89L322.411 343.39L323.241 342.9L322.971 342.43L323.731 342.56L324.911 340.81L323.791 340.53L323.901 341.12L322.951 341.9L323.361 340.35L322.101 341.08L321.781 342.87L320.201 345.72L319.581 345.82L318.771 348.34L318.901 350.38L321.081 352.95L319.921 353.38L319.871 354.19L321.061 354.56L322.441 353.96L323.391 354.5L324.111 356.93L323.781 360.25L324.621 362.39L325.871 363.35L326.271 363.04L327.691 363.69L328.411 363.32L328.301 364.3L326.061 366.72L325.951 367.74L323.931 370.9L319.571 375.78L319.981 373.89L316.731 374.1L315.971 372.96L310.701 374.01L309.601 375.34L308.501 373.17L307.421 373.03L306.631 374.81L306.831 375.6L304.651 376.77L303.961 378.21L302.471 377.93L302.411 378.83L301.111 379.34L300.211 381.44L298.861 381.39L297.861 382.36L297.951 383.49L297.061 384.13L297.961 386.97L297.031 387.04L297.231 387.83L296.191 388.23L295.981 388.89L295.411 388.53L293.321 389.33L293.261 390.22L292.581 390.19L292.531 389.63L292.321 390.29L290.601 390.66L290.801 391.45L287.221 393.97L287.161 394.86L286.221 394.93L286.001 395.59L288.621 396.04L287.681 396.11L287.771 397.23L286.811 398.76L285.491 399.27L285.211 400.83L282.001 401.49L281.831 402.72L281.041 403.03L280.311 402.44L280.641 401.44L279.761 400.62L278.971 400.93L277.871 400.77L278.901 398.34L279.431 398.14L278.061 398.09L276.761 397.14L277.091 396.14L275.941 395.42L276.271 394.42L275.651 393.5L274.061 394.11L273.021 393.06L273.841 391.3L273.801 390.74L272.701 390.58L272.241 389.89L272.111 388.2L272.861 387.34L272.551 386.88L271.491 387.28L271.401 386.16L270.831 385.8L269.921 386.43L268.821 386.27L268.201 385.35L268.531 384.36L268.131 382.78L268.661 382.58L268.311 381.56L268.821 379.35L269.771 379.28L270.791 378.32L270.441 377.3L271.611 376.57L271.901 375.02L273.221 374.52L273.291 373.63L273.821 373.43L274.041 372.77L273.011 371.72L273.341 370.74L274.131 370.44L274.041 369.33L276.921 366.24L276.111 364.54L276.481 364.11L277.201 364.7L279.261 363.35L281.451 360.23L281.431 358.24L284.061 357.23L284.131 356.35L284.811 356.38L285.511 354.97L285.471 354.41L285.761 352.87L286.331 353.22L287.901 352.61L288.881 353.09L290.861 352.6L290.361 351.36L288.771 349.98L289.731 348.46L290.511 348.15L290.121 346.59L292.211 345.76L293.011 344.01L295.301 342.51L295.161 340.84L297.251 338.54L297.681 337.21L298.871 337.01L299.191 336.01L301.161 335.49L301.651 333.28L301.301 332.27L302.231 328.74L303.481 329.8L302.641 330.98L303.871 330.26L304.081 331.32L304.581 331.42L304.961 330.93L304.511 329.7L306.811 329.2L306.861 328.72L308.371 328.08L307.491 328.14L307.691 327.42L305.521 328.62L304.811 327.56L305.931 326.44L306.661 325.9L306.941 326.38L307.301 325.51L307.801 325.97L308.471 324.34L309.011 325.18L309.711 324.9L309.271 323.96L310.171 324.08L310.031 323.27L311.001 322.88L311.221 321.77L312.001 322.09L311.121 324.79L312.191 325.06L313.071 323.45L313.641 323.63L314.431 322.72L313.991 321.94L314.991 321.82L316.801 319.94L317.171 320.96ZM315.731 309.78L316.171 310.58L315.861 313.46L315.181 313.99L315.311 315.06L313.751 318.38L312.471 318.99L310.981 321.45L308.681 322.53L309.541 319.94L308.461 320.38L308.901 317.06L309.351 318.27L310.891 318.83L311.361 318.53L310.041 317.84L309.721 315.9L310.981 313.79L310.621 313L311.901 312.44L312.401 311.56L312.901 312.08L312.031 313.69L312.541 314.06L312.241 315.63L313.281 314.15L314.541 314.46L314.751 313.64L312.891 313.67L314.891 312.14L314.951 311.55L315.461 311.61L315.731 309.78Z" fill="#CCCCCC" stroke="white" stroke-width="0.5"/>
<path d="M418.361 296.15L419.691 296.24L420.111 297.53L419.701 299.44L417.421 299.72L414.221 301.98L413.811 303.65L411.661 305.29L410.111 308.53L407.551 311.06L405.831 314.35L405.581 313.53L406.051 312.78L405.061 312.32L404.491 310.56L402.151 310.08L401.361 308.98L400.581 309.29L398.911 308.83L398.811 310.57L398.391 310.46L398.701 310.89L397.081 310.98L395.931 310.32L395.351 311.4L394.251 311.28L394.461 312.04L393.261 312.25L392.841 313.55L391.951 312.78L390.431 313.96L389.551 313.19L389.181 313.62L388.601 313.28L387.871 314.15L386.201 313.69L387.201 311.31L386.621 310.97L386.991 310.54L386.261 309.99L385.891 310.42L385.161 309.87L383.281 310.06L382.971 311.04L383.021 311.58L382.181 311.35L381.861 312.33L380.561 312.86L374.721 309.84L373.461 312.32L371.691 312.18L370.811 311.4L370.031 311.72L369.871 312.91L368.361 312.67L366.691 313.61L365.551 312.94L364.931 313.47L363.691 313.11L363.481 312.35L364.421 312.26L364.371 311.72L362.971 311.14L362.911 310.6L361.611 310.46L362.671 308.24L364.851 298.8L365.161 289.89L363.981 283.01L362.101 278.99L357.491 273.01L352.411 268.66L348.561 267.34L347.781 267.52L347.121 267.08L348.801 264.64L350.301 264.4L350.661 263.46L352.101 262.65L352.061 262.11L353.781 261.72L353.491 261.28L354.121 260.76L353.521 259.88L354.011 259.14L353.711 258.7L356.291 257.68L355.301 256.69L355.821 256.48L355.281 254.21L356.431 251.54L355.301 250.34L354.911 248.29L353.991 248.37L352.121 246.07L352.351 245.44L351.331 243.91L351.991 243.93L351.961 243.39L352.301 242.43L350.761 241.11L349.691 240.98L349.371 240L351.201 237.37L351.251 235.98L352.201 236.43L352.691 235.7L353.501 235.93L353.211 235.5L354.811 233.51L354.261 233.17L355.031 232.87L354.491 232.54L356.181 232.15L355.601 231.28L356.521 231.2L356.231 230.76L356.891 230.78L356.601 230.35L357.341 229.51L359.471 229.78L358.201 228.36L358.431 227.73L355.121 227.64L355.201 226.79L355.721 226.59L354.791 224.22L353.871 224.31L353.641 224.94L353.181 223.76L352.011 223.94L351.721 223.5L352.201 222.77L351.661 222.44L352.141 221.7L351.561 220.84L352.021 219.57L351.191 218.8L349.931 219.83L348.921 218.31L348.581 216.81L348.951 216.4L348.231 215.31L349.151 215.23L349.461 213.75L351.261 213.06L352.771 211.94L354.351 211.88L354.031 210.91L354.851 209.24L355.261 209.35L354.761 207.64L356.741 207.7L358.281 207.11L359.391 205.87L360.341 206.32L361.081 205.5L362.031 205.95L363.461 205.67L364.551 206.34L365.831 205.84L366.061 205.22L366.971 205.13L367.681 203.78L368.631 204.23L368.431 202.96L369.281 201.82L369.771 203.52L371.321 202.93L371.541 202.3L372.971 202.02L374.061 202.69L376.151 202.42L377.701 204.26L380.421 203.48L381.411 202.56L381.021 204.87L379.031 206.72L379.351 207.68L378.901 208.93L376.861 212.16L377.761 213.98L378.281 213.78L379.291 215.28L377.841 217.47L379.441 219.84L378.251 221.93L378.611 223.42L381.221 222.95L383.341 223.21L381.871 224.87L381.821 226.25L380.531 226.76L381.081 227.09L380.631 228.35L382.021 229.44L381.271 232.19L378.341 237.99L382.641 239.03L384.081 238.73L385.701 239.19L385.931 238.55L388.101 239.34L389.321 237.76L390.501 237.57L389.911 236.71L391.421 235.57L391.641 234.94L391.091 234.61L394.181 233.39L394.481 231.91L398.861 232.09L401.281 230.86L402.641 231.41V233.32L403.751 235.88L405.331 235.8L407.141 236.99L407.551 239L406.411 239.73L406.381 241.11L405.861 241.31L406.051 242.06L407.381 242.07L408.631 242.94L408.671 243.47L408.011 243.46L408.461 244.1L407.461 245.05L407.871 245.16L407.391 245.89L408.191 249.41L407.381 249.18L405.311 250.01L404.841 250.75L403.651 250.95L402.741 252.96L401.041 253.36L402.601 254.66L401.951 256.57L403.521 257.87L402.631 258.5L402.611 259.88L402.091 260.09L402.321 261.37L400.081 268.62L400.641 268.95L399.791 270.12L400.101 270.55L399.621 271.3L400.331 271.84L399.161 273.98L400.781 275.82L401.521 274.97L403.681 275.21L403.721 275.75L404.811 275.87L405.981 277.07L405.761 277.71L407.101 277.73L407.151 278.27L408.121 278.71L407.591 280.32L408.411 280.55L408.911 281.74L410.201 282.63L409.571 283.16L409.401 284.35L410.461 287.29L410.131 288.26L411.011 289.03L410.471 290.65L411.351 291.42L409.841 292.6L410.821 293.04L410.611 293.69L412.271 294.14L412.631 295.12L414.541 295.47L414.751 294.83L416.861 295.93L417.331 295.19L418.361 296.15Z" fill="#CCCCCC" stroke="white" stroke-width="0.5"/>
<path d="M290.641 338.39L289.371 339.27L289.241 338.74L286.471 340.96L287.031 341.28L286.371 342.53L287.441 343.51L290.461 341.77L289.891 339.73L290.311 339.06L290.981 339.52L291.791 338.41L291.021 337.1L290.641 338.39Z" fill="#CCCCCC" stroke="white" stroke-width="0.5"/>
<path d="M278.861 1L280.481 2.08L278.771 2.64L278.781 6.47L277.161 7.10001L277.351 5.79001L275.481 5.64999L274.831 6.13L275.461 6.8L273.611 6.77L274.401 7.43001L273.551 8.08L275.181 8.12L276.351 7.37L275.891 8.64L276.981 8.75999L277.371 9.56L277.401 9.94L276.901 10.69L277.531 10.9L277.951 9.50999L276.711 7.69L277.971 7.46001L279.901 14.26L281.481 16.37L283.011 17.24L285.281 20.35L285.021 21.44L284.501 21.35L283.601 20.58L283.271 19.23L282.481 18.79L283.191 21.03L284.181 21.24L286.051 23.49L289.381 24.53L288.931 25.98L287.771 26.65L287.911 29.45L288.741 28.47L288.881 29.6L290.401 29.89L290.271 29.31L289.461 29.38L289.721 28.2L290.661 27.46L290.911 28.39L291.521 27.55L289.601 23.19L291.961 22.86L293.571 21.95L293.961 19.35L294.601 20.1L294.541 21.79L295.991 21.35L295.691 21.91L296.821 22.57L294.591 24.09L293.241 23.87L292.871 24.8L293.441 27.04L294.621 28.53L295.361 29.03L298.571 29.23L299.471 28.23L298.941 27.32L300.161 26.32L300.231 25.56L301.251 26.82L302.651 26.75L303.611 28.13L305.421 27.24L306.021 27.56L306.301 29.51L306.901 29.93L307.711 30.41L307.301 31.56L306.031 32.17L306.621 33.25L307.631 33.22L307.661 31.5L308.361 32.12L308.801 31.5L308.601 30.62L307.951 30.44L308.211 30.03L309.701 29.8L310.371 29.05L310.781 29.79L311.781 29.81L312.051 30.62L312.961 30.76L313.471 30.14L314.401 31.01L314.121 31.5L315.181 32.25L314.651 32.59L315.151 34.32L316.221 35.39L320.381 34.99L321.321 36.85L322.411 37.11L322.281 37.87H320.911L320.111 38.93L319.011 37.69L317.821 36.36L316.831 37.13L317.651 37.2L318.231 38.34L318.101 38.69L316.511 39.57L320.271 39.76L319.771 40.59L320.701 41.26L320.641 42.77L321.531 43.23L321.511 44.12L322.701 44.7L323.061 44.94L324.481 44.48L325.961 45.23L324.841 44.06L322.381 44.25L321.801 43.22L323.161 43.26L321.911 42.02L322.051 41.16L324.051 42.88L324.791 42.66L325.601 43.2L325.761 41.74L327.051 40.94L327.341 40.08L328.531 40.51L328.941 38.59L330.151 38.43L330.521 37.86L330.721 38.9L329.961 39.02L329.481 39.65L330.031 39.82L329.801 40.22L328.831 40.81L330.101 41.79L329.031 41.91L329.021 42.62L330.701 45.19L332.231 44.84L332.041 45.56L331.141 45.61L332.171 46.13L332.391 46.86L331.961 47.82L331.391 47.45L331.301 46.28L330.681 46.38L330.411 45.74L330.011 46.81L330.791 47.04L331.411 49.42L332.051 49.35L331.651 50.45L332.851 50.15L333.391 50.79L333.961 50.42L333.751 49.9L334.361 50.07L334.181 51.35L335.181 51.93L335.251 53L335.811 52.79L336.271 54.02L336.131 54.42L335.641 53.89L335.321 54.39L336.011 56.14L337.451 56.15L338.461 57.28L338.441 60.22L337.551 59.72L337.161 61.64L337.941 63.69L339.681 63.83L339.031 64.38L339.481 65.11L339.381 66.04L338.891 67.18L340.591 70.38L339.161 70.72L337.931 70.24L338.401 69.92L337.971 69.01L336.851 69.13L337.131 68.37L336.561 67.2L336.121 66.47L334.321 66.84L332.541 65.94L331.561 66.65L331.191 65.35L330.281 66.13L330.831 68.11L330.341 68.5L330.951 68.88L331.831 67.22L332.191 68.56L334.341 69.12L335.221 68.67L335.971 69.54L337.121 69.59L335.971 71.08L335.611 74.95L337.171 78.63L338.471 79.68L340.311 79.41L341.051 81.3L341.001 81.93L341.661 83.23L340.341 84.25L340.241 85.59L338.241 86.35L338.121 87.69L336.111 88.44L335.971 89L335.721 89.85L335.181 89.48L333.031 91.24L332.341 91.02L332.081 90.66L330.791 92.62L329.751 92.49L329.231 91.43L328.061 91.14L328.041 89.96L329.481 89.07L330.121 90.17L331.471 90.55L330.021 88.75L332.171 87.22L332.621 83.92L331.661 87.11L329.651 88.22L329.721 87.18L328.971 87.54L327.751 86.2L328.841 85.91L327.621 85.66L327.321 86.2L326.581 85.63L326.541 84.41L327.221 83.22L326.421 83.79L326.021 83.48L325.061 83.57L325.031 85.39L325.621 84.98L326.621 86.1L325.551 85.83L325.361 86.35L326.351 87.19L327.641 86.65L328.881 88.79L328.151 88.6L327.151 89.28L327.191 89.82L326.291 90.06L325.151 88.55L324.591 88.74L323.411 87.66L322.141 85.56L319.781 85.69L316.881 83.2L318.841 86.26L320.221 87.1L321.231 89.2L323.541 90.69L324.481 93.52L324.531 94.88L323.051 96.14L319.221 96.41L317.911 93.95L317.431 90.53L313.771 84.09L292.631 55.75L292.751 55.05L293.541 55.07L293.691 53.71L294.481 52.78L294.121 52.17L294.711 52.03L294.951 49.66L296.731 48.89L297.791 49.63L298.151 48.31L298.711 49.06L300.151 47.4L300.191 46.64L301.231 46.76L301.451 46.14L299.721 45.63L299.031 48.07L298.021 47.52L297.221 48.76L294.741 48.62L294.051 49.29L294.381 50.2L293.601 50.29L293.091 54.26L292.401 54.61L286.761 47.72L284.481 43.98L284.831 43.65L280.661 38.99L281.031 37.57L283.691 38.17L285.031 36.27L285.281 32.75L284.141 29.13L280.981 23.75L272.641 12.14L268.041 7.50999L266.981 7.3L266.371 5.64999L265.061 4.99001L266.001 2.35001L271.131 3.93001L272.681 3.03L272.901 2.06L277.261 2.60001L278.861 1Z" fill="#CCCCCC" stroke="white" stroke-width="0.5"/>
<path d="M504.511 805.6L505.101 806.31L504.011 808.01L504.161 808.73L502.891 808.97L501.741 807.1L504.511 805.6ZM97.0714 510.72L97.8914 510.41L98.9114 510.95L102.241 510.33L103.681 508.87L105.871 508.06L106.731 508.35L109.621 505.44L110.721 505.04L111.191 505.78L112.921 506.37L112.721 505.53L114.321 504.33L115.261 503.68L116.541 501.98L116.221 501.49L117.261 498.36L117.021 496.92L117.841 496.62L117.911 495.68L121.621 494.63L121.261 493.54L122.471 492.79L121.951 491.46L123.591 490.86L123.391 490.02L125.891 489.72L125.851 489.13L128.421 487.89L129.101 489.46L132.891 489.59L133.711 489.29L133.901 488.01L134.451 487.81L134.131 487.32L135.221 486.92L136.101 489.32L137.711 490.24L140.501 488.3L140.961 486.93L142.631 486.92L143.781 485.59L145.721 485.47L146.291 483.76L145.661 482.79L146.111 481.42L147.661 481.74L149.711 481.28L150.451 481.9L151.031 485.89L149.791 486.05L149.501 487.67L148.691 487.97L148.891 488.8L148.081 489.1L148.171 490.28L147.201 490.34L147.401 491.17L146.481 491.82L146.791 492.31L145.321 493.16L145.021 494.79L144.211 495.1L145.791 497.54L145.741 500.6L145.201 500.8L145.561 501.88L145.881 502.37L145.221 502.92L145.421 503.76L144.761 504.31L145.391 505.29L144.731 505.84L144.981 507.28L144.321 507.83L145.651 508.85L146.461 508.54L148.451 509.01L148.651 509.85L147.921 511.35L148.871 512.83L148.121 515.87L151.081 516.27L151.101 514.73L151.761 514.17L152.931 518.63L155.821 519.98L157.941 518.55L159.931 519.01L162.081 527.11L161.901 528.41L163.211 530.99L164.811 531.91L165.331 533.25L164.681 533.81L165.541 534.09L165.751 534.94L170.601 534.6L171.901 533.47L172.221 533.97L173.731 533.69L174.491 532.77L175.621 532.95L175.601 534.51L176.501 535.4L177.961 534.52L178.551 534.91L179.311 533.99L181.461 533.14L182.061 531.97L182.491 532.11L183.001 529.74L184.791 527.79L192.401 531.25L195.071 531.73L195.121 532.33L196.351 532.14L197.941 533.04L199.591 532.98L200.491 533.86L201.291 533.54L203.571 534.49L205.071 534.2L206.261 534.66L203.901 539L199.731 543.16L199.411 544.02L199.801 544.88L197.461 546.62L195.141 551.42L195.101 552.98L193.661 556.02L193.891 557.66L195.171 557.77L195.461 558.66L195.381 560.04L194.901 559.66L194.151 560.32L193.141 562.41L193.041 563.3L193.961 564.3L190.971 567.6L189.901 569.48L189.781 571.04L188.561 572.43L188.271 571.86L187.621 572.2L187.241 573.44L187.061 573.95L186.971 575.31L183.731 578.23L183.711 579.38L184.831 578.68L185.951 579.15L186.421 579L187.381 580.28L188.481 579.93L189.121 581.28L186.011 582.26L186.001 583.58L185.121 583.63L183.651 585.91L181.271 587.27L184.271 586.62L185.021 584.98L186.861 584.66L187.661 584.32L187.571 583.3L189.631 582.32L189.901 580.91L190.821 582.6L190.051 583.64L190.001 584.88L188.601 584.56L188.071 585.03L188.561 585.51L190.691 584.97L190.601 586.61L188.201 586.95L188.301 585.99L187.291 585.32L187.171 586.12L188.301 587.59L187.371 588.27L185.181 587.85L184.601 588.21L184.611 589.21L184.241 589.23L184.271 588.21L180.741 588.66L174.791 590.39L173.101 591.49L169.331 596.73L169.261 599.5L168.191 602.3L161.611 607.21L160.501 608.9L158.921 609.63L157.341 611.31L153.611 613.05L152.991 615.95L153.721 616.74L153.791 618.65L152.941 619.13L152.811 619.99L151.921 620.78L148.081 619.87L146.531 620.57L147.091 621.16L148.451 620.09L149.261 620.83L149.971 620.47L150.741 621.21L149.611 622.28L149.771 622.87L147.841 623.97L146.401 624.08L146.411 625.02L145.511 625.43L145.321 626.18L144.071 625.04L143.681 625.41L142.871 624.85L141.181 625.12L140.791 626.45L139.931 626.22L139.561 627.31L139.921 627.5L138.321 628.1L137.231 627.8L136.411 628.45L136.831 629.15L136.351 629.55L133.521 628.58L132.451 629.22L131.881 629.43L131.121 630.64L130.371 630.87L130.001 630.44L130.301 628.32L130.971 628.35L131.131 626.99L129.951 626.14L130.171 625.39L131.451 625.19L132.561 623.1L129.841 621.6L129.011 620.31L128.961 619.68L130.071 619.24L129.971 617.99L130.531 617.77L130.591 616.78L129.931 615.75L128.001 614.91L128.341 613.81L130.241 612.42L129.641 612.02L130.431 611.07L129.781 610.05L130.591 607.49L130.101 606.72L130.841 605.15L129.641 604.35L129.061 602.34L127.901 602.16L127.971 601.18L129.471 600.27L129.381 599.03L128.341 598.48L129.131 597.54L128.921 596.67L127.011 595.83L125.721 593.79L125.631 592.55L126.421 591.61L126.771 590.52L125.851 589.61L126.821 587.33L125.901 586.42L126.291 585.95L125.261 585.4L125.031 586.12L123.331 586.15L123.641 584.45L124.311 583.88L123.351 582.36L123.411 579.18L122.971 579.03L123.391 576.97L124.061 576.4L124.201 574.46L125.301 574.04L125.921 572.86L126.111 571.53L127.171 570.49L128.331 566.91L128.781 563.29L129.291 562.47L131.101 562.09L131.611 561.27L130.931 559.66L130.381 559.87L129.741 558.86L129.181 556.89L127.131 555.8L127.041 554.58L126.091 553.07L123.821 554.87L119.731 562.99L118.791 563.66L117.921 563.37L117.991 562.4L117.401 562L116.571 562.31L116.611 562.92L115.421 562.12L114.591 562.43L114.451 558.42L113.461 558.48L112.391 557.32L111.091 556.88L111.601 556.06L111.471 554.24L110.631 552.37L111.021 551.91L110.431 551.51L109.331 551.93L108.041 553.67L106.231 554.04L105.331 555.32L102.131 556.21L96.7614 556.35L95.9314 554.48L96.2414 552.8L95.4514 551.54L95.9614 550.73L94.1814 549.53L93.8614 549.03L94.2514 548.57L93.1814 547.41L93.5814 546.95L92.5514 546.4L93.4614 545.13L93.7014 544.42L94.2514 544.21L93.9314 543.71L94.4814 543.51L94.4414 542.9L95.4314 542.84L95.8614 540.82L95.4314 540.67L96.2214 539.76L95.7514 539.01L93.5414 539.83L92.3114 538.43L91.2414 537.28L90.5714 535.67L89.1114 534.97L89.5814 533.56L88.4414 531.2L88.9914 531V528.84L90.6814 528.83L90.4814 527.98L91.2714 527.07L91.5114 526.37L91.5514 524.82L92.1014 524.62L91.7914 524.12L91.2414 524.32L90.5714 522.72L90.9614 522.27L90.6514 521.77L91.7114 520.76L91.1214 520.36L91.6314 519.56L91.5914 518.96L92.1414 516.61L92.9614 516.3L92.7614 515.45L93.3114 515.25L93.0314 513.21L95.2614 510.85L97.0714 510.72Z" fill="#CCCCCC" stroke="white" stroke-width="0.5"/>
<path d="M130.321 979.45L131.381 979.66L130.921 981.27L131.781 981.86L131.871 982.13L131.571 984.28L132.991 984.76L132.711 985.56L131.741 985.58L130.631 984.4L128.631 984.36L127.751 985.52L129.271 984.83L131.941 986.34L130.561 988.02L129.291 987.3L129.701 988.14L128.571 988.33L128.231 987.6L127.671 988.43L127.501 987.29L126.571 987.21L126.141 986.19L125.671 986.22L125.791 985.67L124.731 985.44L124.011 985.88L123.101 984.32L124.141 983.51L124.621 984.13L125.681 983.83L125.551 984.36L126.421 984.66L128.651 980.59L127.811 979.97L129.871 979.99L129.981 979.33L130.321 979.45ZM2.54109 877.51L4.75109 878.96L7.26109 878.57L7.72109 878.95L8.48109 877.91L11.4011 878.72L13.6311 880L12.0911 880.05L12.5511 881.17L10.8811 882.09L8.30109 882.93L6.56109 881.57L6.51109 882.08L3.81109 881.36L3.63109 879.96L3.19109 880.57L2.20109 880.31L2.10109 878.77L1.48109 878.32L2.34109 878.13L2.22109 877.22L2.54109 877.51ZM12.4811 857.26L13.3311 858.16L14.0411 857.35L14.7611 857.72L13.7911 858.84L13.9911 859.5L12.1711 860.25L14.2111 860.01L16.0511 858.38L16.1611 858.91L16.8511 858.94L15.6611 859.74L16.5111 860.37L16.6811 861.64L13.7511 861.57L14.3011 861.92L13.7611 862.89L15.0411 863.11L14.6511 863.89L13.9111 864.52L12.2911 863.02L12.0711 863.55L13.5011 864.86L13.4411 865.27L12.8311 865.63L13.7611 866.21L11.9011 865.92L12.9811 867.42L11.4211 867.73L11.8811 868.04L11.0611 868.65L13.4411 868.45L13.5711 869.41L12.8111 869.96L10.9011 869.33L12.0911 870.37L10.9411 870.61L11.1411 870.93L12.1211 870.71L13.0711 871.32L12.9011 871.87L14.1611 873.36L13.0111 874.44L14.3811 874.47L13.8411 875.05L14.5811 875.39L13.4011 875.95L14.9711 876.38L14.5211 877.6L15.0011 877.99L14.2611 878.74L12.2211 878.69L9.82109 876.99L8.58109 875.38L8.43109 876.49L7.28109 876.75L6.98109 876.41L8.26109 875.42L7.94109 872.69L6.77109 872.52L6.29109 871.58L5.81109 873.12L6.81109 873.99L7.05109 875.12L6.64109 875.39L5.99109 874.86L5.26109 873.23L4.85109 874.06L6.10109 875.42L6.08109 876.24L5.29109 876.04L6.58109 877.62L6.19109 878.15L4.70109 878.37L3.10109 877.46L2.43109 875.71L2.28109 876.85L0.991094 877.48L0.371094 874.91L1.20109 873.72L0.741094 873.06L2.91109 872.37L4.04109 870.71L4.51109 870.33L6.59109 869.76L8.74109 867.13L8.18109 865.41L9.39109 861.39L9.28109 860.69L7.97109 860.9L7.88109 860.34L9.17109 860.21L9.09109 859.72L8.17109 858.74L6.87109 859.12L8.07109 858.07L10.0211 857.99L10.5611 857.09L10.9111 857.33L10.4311 858.66L11.3211 857.25L11.9011 857.92L12.4811 857.26ZM17.3811 855.58L18.1011 856.16L18.0111 856.94L16.5611 856.55L15.6311 856.94L16.0011 856.02L17.3811 855.58ZM78.3911 632.09L82.6011 634.2L83.7411 638.25L84.7811 638.66L85.0511 639.73L87.0311 640.52L86.7211 641.81L89.1111 642.14L89.1211 642.69L89.3611 643.21L89.8911 644.13L88.9611 645.08L86.0111 644.17L85.8011 644.91L85.9111 645.44L85.2611 645.52L83.9511 644.53L84.7211 644.23L83.3611 642.56L83.6711 644.06L82.6911 643.86L82.1711 644.82L82.6411 646.09L81.5511 646.58L79.9711 648.64L82.0311 647.45L82.9611 646.04L84.0011 645.76L84.5611 646.6L84.3511 647.28L85.8911 647.03L87.2911 647.81L88.5411 647.68L86.3011 649.23L88.3111 649.66L88.8311 649.45L89.0611 648.3L90.2511 648.45L89.9711 646.61L91.0511 645.54L91.3211 646.03L90.6111 646.63L90.4011 648.61L91.9111 649.72L91.3711 650.4L91.6311 650.97H92.4311L91.3411 651.67L91.7211 652.56L91.2111 653.11L90.2411 652.73L89.9311 653.55L90.6411 654.77L91.5811 654.58L92.1011 655.67L91.2511 655.77L91.0611 655L90.1111 654.58L89.0511 655.31L89.4511 656.75H88.7611L88.2911 657.24L86.3711 656.1L85.8311 656.27L85.8211 657.19L85.1711 657.49L83.9611 656.87L82.0011 658.08L81.5111 657.43L79.5111 659.83L78.3211 659.77L78.1311 660.54L77.5011 660.37L76.4811 661.1L75.2811 660.45L74.3911 660.66L74.0711 659.91L72.6611 660.53L71.7011 658.75L71.2811 659.88L70.5611 659.67L70.8211 661.21L69.9711 661.78L69.5511 661.36L69.1411 662.28L68.1111 662.2L68.2811 662.97L67.0611 663.66L66.1911 663.26L66.5411 663.93L69.4311 663.5L69.4211 662.79L70.0611 662.85L70.3811 663.27L69.6311 665.26L68.3511 665.66L68.5911 664.27L67.1411 664.8L67.5711 665.03L66.8811 666.06L65.5511 666.74L63.6911 666.46L63.6411 665.62L62.8711 666.3L62.1711 666.05L62.7211 662.47L63.9711 661.36L64.7511 661.69L65.0611 660.76L66.6511 660.23L66.9511 659.63L66.8511 658.63L66.4011 659.37L66.1511 658.98L67.4811 656.68L66.6711 656.61L66.3311 655.33L67.1511 654.95L68.7311 652.51L69.9411 652.22L71.5111 653.03L72.2411 652.7L72.0411 652.03L71.5011 652.06L71.2511 650.97L71.8711 650.35L71.0511 650.02L71.2711 648.97L70.6311 648.91L70.5611 647.02L71.2011 646.66L70.7711 647.28L71.1211 648.13L72.9411 647.88L74.4911 645.3L74.4511 643.7L73.6611 643.04L74.1511 642.66L73.8711 641.53L71.9011 638.54L72.5911 638.07L72.0011 636.27L72.8711 634.73L72.5911 633.95L75.2711 632.37L77.0511 633.33L78.3911 632.09ZM30.1011 598.97L31.1411 599.4L31.0711 599.99L29.2411 601.51L28.9811 599.92L30.1011 598.97ZM25.7611 595.49L26.9111 596.16L26.3411 596.49L26.3111 597.36L25.2311 596.72L25.7611 595.49ZM35.6711 579.28L35.9111 579.56L33.0311 580.9L29.4411 581.47L29.3811 580.91L30.3811 580.89L30.8711 580.22L35.6711 579.28ZM26.5911 579.25L27.6011 579.91L25.7911 580.61L25.7711 581.11L24.3111 580.72L24.5211 579.72L26.0711 579.83L25.9511 579.3L26.5911 579.25ZM38.1811 578L39.6011 578.21L40.0711 578.89L37.6211 579.75L36.3311 579.43L36.2411 578.72L36.9511 578.07L38.1811 578ZM32.0511 571.17L33.4411 572.73L33.7411 576.78L33.4911 578.3L32.2811 579.52L31.3611 579.79L30.6511 579.19L28.4611 579.93L28.5911 579.42L27.9411 579.11L28.4711 578.1L26.6611 577.43L27.3911 577.18L28.2311 576.72L27.9411 576.37L27.1411 575.96L27.1911 575.06L22.9011 579.37L23.0411 577.81L24.8911 575.92L25.4611 574.55L25.7611 574.75L25.7511 573.62L26.6511 572.54L27.1311 573.08L29.2811 571.46L30.1711 571.96L31.2611 571.2L31.6111 571.81L32.0511 571.17ZM43.1011 546.44L43.3611 547.32L42.5611 549.37L44.6511 554.55L43.5911 554.86L39.3311 551.46L40.7711 548.63L42.4811 546.52L43.1011 546.44ZM87.2611 498.66L89.4811 499.31L92.8611 497.71L94.6911 497.92L95.7411 499.03L97.1411 499.1L97.5311 500.78L97.1411 501.23L98.4711 502.25L98.2411 502.95L99.9611 503.52L99.7311 504.22L98.7511 504.28L98.7911 504.88L97.3111 505.74L98.2111 506.63L97.8211 507.08L97.5911 507.78L96.7711 510.23L97.0811 510.73L95.1211 510.85L92.8911 513.21L93.1711 515.25L92.6211 515.46L92.8211 516.31L92.0011 516.62L91.4511 518.97L91.4911 519.57L90.9811 520.37L91.5711 520.77L90.5111 521.78L90.8311 522.28L90.4411 522.73L91.1111 524.33L91.6611 524.13L91.9811 524.63L91.4311 524.83L91.3911 526.38L91.1611 527.08L90.3711 527.99L90.5711 528.84L88.8811 528.85V531.01L88.3311 531.21L89.4711 533.57L89.0011 534.98L90.4611 535.68L91.1311 537.29L92.2011 538.44L93.4311 539.84L95.6411 539.02L96.1211 539.77L95.3311 540.68L95.7611 540.83L95.3311 542.85L94.3411 542.91L94.3811 543.52L93.8311 543.73L94.1511 544.23L93.6011 544.44L93.3611 545.15L92.4511 546.42L93.4811 546.97L93.0911 547.43L94.1611 548.59L93.7711 549.05L94.0911 549.56L95.8711 550.76L95.3611 551.57L96.1511 552.83L95.8411 554.51L96.6711 556.38L102.051 556.24L105.251 555.35L106.151 554.07L107.961 553.7L109.251 551.97L110.351 551.56L110.941 551.96L110.551 552.42L111.391 554.29L111.521 556.12L111.011 556.94L112.311 557.38L113.381 558.54L114.371 558.48L114.511 562.49L115.341 562.18L116.531 562.98L116.491 562.37L117.321 562.06L117.911 562.46L117.841 563.43L118.711 563.73L119.651 563.06L123.741 554.94L126.011 553.14L126.971 554.65L127.061 555.87L129.111 556.96L129.671 558.93L130.311 559.94L130.861 559.73L131.541 561.35L131.041 562.17L129.231 562.55L128.721 563.37L128.281 566.99L127.121 570.57L126.061 571.61L125.871 572.94L125.251 574.13L124.151 574.56L124.011 576.51L123.341 577.08L122.921 579.14L123.361 579.29L123.301 582.47L124.261 583.99L123.591 584.56L123.291 586.26L124.991 586.23L125.221 585.51L126.251 586.06L125.861 586.53L126.781 587.44L125.811 589.72L126.731 590.63L126.381 591.72L125.591 592.66L125.681 593.9L126.971 595.94L128.891 596.78L129.101 597.65L128.311 598.6L129.351 599.15L129.441 600.39L127.941 601.3L127.871 602.28L129.031 602.46L129.611 604.47L130.811 605.27L130.071 606.84L130.561 607.61L129.751 610.17L130.401 611.19L129.611 612.14L130.211 612.54L128.311 613.94L127.971 615.04L129.901 615.88L130.561 616.91L130.501 617.9L129.941 618.12L130.041 619.37L128.931 619.81L128.981 620.44L129.811 621.73L132.531 623.23L131.421 625.32L130.141 625.52L129.921 626.27L131.111 627.12L130.951 628.48L130.281 628.46L129.991 630.58L127.881 630.16L129.151 628.86L127.581 627.76L126.981 630.02L126.721 631.1L125.261 631.58L123.711 631.38L122.631 631.78L122.131 631.21L121.311 631.62L120.311 630.7L116.561 630.93L115.621 628.92L116.001 628.02L114.871 627.09L114.441 626.41L111.411 625.71L106.701 626.7L106.951 625.7L107.831 626.12L108.491 625.71L106.791 624.82L105.031 625.15L106.381 626.63L103.841 627.87L100.441 627.92L98.5611 627.2L97.9311 627.66L97.6211 627.44L98.2711 626.53L100.691 626.78L101.081 626.5L103.521 627.4L104.121 627.02L103.691 626.11L101.121 625.29L99.6411 625.26L98.3111 626.05L97.7311 624.98L98.0911 624.57L97.2611 623.86L96.6111 624.76L96.2911 624.35L95.3411 624.71L95.9611 626.7L96.5511 626.86L97.6611 628.18L96.4611 628.93L95.6911 627.14L94.3011 626.61L94.0311 625.02L92.5611 624.82L92.8411 624.16L92.3111 622.83L95.0511 622.34H96.1511L98.2211 621.08L98.2411 620.49L97.1111 620.32L97.2311 618.06L96.6911 617.31L96.2711 617.55L96.4611 619.14L94.6011 619.67L95.1511 620.21L95.5411 621.56L94.3111 621.87L91.5611 616.15L88.6111 613.19L85.6511 612.94L84.4511 614.08L85.1111 615.34L80.2311 613.79L78.9011 614.49L79.1011 615.79L76.8611 614.43L75.1611 615.69L74.0611 614.38L73.2611 614.26L73.1011 612.5L71.5311 612.22L71.5611 611.17L73.1111 610.39L72.5511 608.39L68.6711 604.62L64.2511 602.39L60.3911 602.24L59.9711 603.71L58.4111 604.63L58.8411 606.58L58.0311 607.88L55.3811 607.51L53.0811 608.49L49.7111 607.79L48.8011 608.2L45.3911 606.51L42.9411 606.65L39.6911 605.53L37.2511 605.73L36.0611 606.82L35.4911 605.78L34.0911 605.76L33.6711 605.26L31.7611 605.53L30.0611 602.76L29.3211 602.53L32.4211 600.12L33.4611 600.08L33.2611 598.87L33.9111 597.77L34.3911 597.33L35.5911 597.08L36.1111 596.37L35.8111 593.85L38.9911 592.7L41.4411 589.8L39.5611 590.87L38.8211 592.01L35.8511 592.55L36.3111 593.02L35.0911 593.51L34.4211 594.69L35.5011 596.62L34.0911 596.91L33.4711 598.1L32.8211 596.85L33.7011 595.52L33.6111 594.96L32.3711 596.65L30.8111 598.42L30.7711 597.74L29.6011 597.1L28.5411 598.2L28.6611 598.72L27.8011 598.9L27.6711 597.76L28.3511 597.29L28.7511 595.42L29.8811 592.97L32.6111 591.99L35.7211 591.94L35.0511 591.13L35.6911 590.93L35.4511 590.67L33.1711 591.36L30.8711 590.85L32.4711 586.88L33.1711 586.38L32.3511 586.48L28.8911 592.11L27.3211 592.34L25.0711 593.89L24.0411 594.46L23.1211 593.67L23.2411 590.47L22.2411 588.41L22.7611 586.04L22.4011 584.8L23.1711 584.29L23.1511 583.47L24.0911 583.49L24.5411 582.76L26.0411 582.24L28.8711 582.28L29.9111 582.08L36.2611 580.42L38.3211 580.54L40.0011 579.2L42.6911 578.88L43.8711 577.97L42.6211 578.17L43.2411 576.87L42.8711 576.78L41.9911 578.5L37.6711 577.27L34.0611 578.55L34.9711 575.22L42.2211 573.18L43.4411 571.74L41.8511 572.95L38.9911 573.14L34.2911 575.09L34.1111 571.23L35.6011 571.13L36.3411 570.21L39.6311 568.8L41.2411 569.49L42.9611 568.81L43.9711 569.48L44.5211 569.09L43.1611 568.49L41.3111 569.08L40.1011 568.75L40.1511 568.05L42.5211 567.32L43.9111 566.3L43.3711 565.79L39.5911 567.4L39.4911 568.14L35.7311 569.05L34.3411 570.18L32.5411 570.45L31.6811 569.95L32.4611 565.74L33.4811 566.02L33.7611 565.64L33.1211 564.95L33.2111 564.17L34.7911 560.31L36.7911 559.97L40.2311 562.27L39.4911 561.25L39.2111 559.32L38.7911 561.05L36.8411 559.29L35.5811 559.1L35.3911 558.07L36.4111 556.11L37.8711 554.73L38.4211 553.34L42.5611 555.7L40.4911 557.08L43.2811 555.88L45.6111 557.61L45.2111 558.39L45.9211 557.74L47.1811 558.19L48.6711 560.99L49.0011 562.89L47.3311 564.52L46.7911 566.13L47.9611 564.2L49.7411 562.65L50.8711 563.88L47.7611 558.03L46.1811 557.32L44.7711 555.66L45.8311 554.36L49.2511 553.76L50.1211 554.09L50.0511 553.42L50.1811 552.88L49.3711 552.65L48.8011 553.47L45.5811 553.99L44.9511 553.65L44.7211 551.86L43.5311 550.22L43.8211 547.45L44.2411 547.3L43.4611 545.84L44.5511 545.06L45.0111 543.93L46.2311 544.63L48.5311 548.38L50.2711 547.98L49.7611 547.58L48.6311 547.94L47.2911 545.04L46.4811 544.08L45.5611 543.9L47.5711 541.01L49.6411 543.76L49.6611 545.38L50.9611 546.54L51.0111 546.07L50.0711 545.6L49.9611 543.9L52.9911 544.21L52.2411 543.52L49.8511 543.45L48.6811 542.09L48.0411 540.33L48.0511 539.63L49.7611 538.38L50.0011 539.2L56.3811 541.03L56.2711 540.57L53.8211 539.78L51.4211 538.61L50.3111 538.78L49.7811 537.4L51.3411 535.84L51.8211 535.43L52.7411 534.2L53.1711 533.42L54.0311 532.99L54.9911 531.02L56.1811 530.73L57.1911 529.68L57.7711 529.74L57.9911 531.35L59.1711 533.29L58.8211 535.13L59.8211 535.48L60.1811 536.04L59.3611 538.08L60.5411 536.75L61.7011 537.33L59.4311 534.68L59.7111 534.14L60.2411 534.32L58.3911 529.85L58.3411 528.54L59.3011 527.69L59.9911 527.25L61.9211 525.79L63.5611 525.97L65.4711 527.29L63.5411 529.83L63.7111 530.76L65.1611 531.72L63.9711 530.18L65.8511 527.37L63.7511 524.68L65.1611 523.42L67.5511 523.98L66.3111 522.75L66.5111 520.97L68.4211 519.53L70.3311 520.96L69.1511 518.6L70.2811 518.3L72.0911 516.58L73.2611 516.53L73.7511 515.23L75.0211 514.76L75.9111 516.47L76.6911 516.59L76.8311 511.49L76.2911 510.63L77.3611 510.07L78.5111 507.31L80.7611 504.87L81.8011 504.33L82.4711 504.65L83.5011 503.48L84.1611 503.9L85.5411 508.72L85.6811 511.46L86.4711 511.83L85.7011 506.12L83.2111 501.5L87.0411 501.65L88.0211 499.52L87.2611 498.66Z" fill="#CCCCCC" stroke="white" stroke-width="0.5"/>
<path d="M283.991 340.06L286.071 340.32L282.881 338.55L282.491 339.19L283.991 340.06ZM301.581 328.26L299.751 330.49L298.471 330.97L298.181 332.52L297.291 333.59L295.281 334.59L294.141 333.62L291.051 336.02L291.031 337.12L291.801 338.42L291.001 339.54L290.321 339.08L289.911 339.75L290.471 341.79L287.451 343.53L286.381 342.56L284.901 341.88L284.501 340.5L281.851 340.32L281.471 339.84L281.241 339.14L282.311 339.09L282.631 338.56L281.711 337.39L281.741 336.45L278.601 333.15L279.361 332.7L279.771 330.69L278.471 328.87L279.331 327.99L279.351 327.5L279.261 326.51L278.301 326.41L278.721 325.19L279.811 325.08L280.081 324.25L281.121 323.63L281.031 322.87L280.701 323.37L280.091 322.91L280.851 322.4L280.911 320.77L280.251 319.9L280.981 319.38L280.691 318.25L280.131 318L278.641 319.05L278.511 318.52L279.351 318.18L278.381 314.44L276.601 314.8L276.391 316.55L275.351 315.3L275.071 316.28L272.851 317.56L268.061 313.94L266.321 311.04L266.221 309.12L264.911 308.05L265.841 307.62L266.381 304.89L265.901 304.41L268.881 300.79L274.131 301.05L279.111 302.67L278.341 301.99L275.701 301.01L270.591 300.2L269.311 300.55L266.261 299.87L264.211 300.57L260.881 303.62L260.771 304.29L261.731 304.24L261.861 303.44L263.341 303.51L263.751 302.76L264.011 304.32L262.121 304.52L261.571 304.92L262.031 305.73L261.161 305.39L259.351 306.64L259.241 306.14L260.651 304.83L260.111 304.28L256.681 306.68L253.811 310.15L249.541 313.5L247.901 314.08L249.001 315.88L248.521 319.17L249.681 318.45L249.861 319.23L250.821 319.72L250.331 320.48L251.361 322.08L251.891 321.88L252.331 322.57L254.201 322.43L254.641 323.12L253.281 325.06L252.341 325.13L251.621 326.54L252.621 327.59L252.011 328.68L252.311 329.14L253.251 329.07L254.471 326.9L255.591 327.62L256.761 326.89L258.781 326.98L258.471 328.53L259.741 329.48L259.961 330.83L261.051 330.99L261.391 332.01L263.691 334.01L264.381 336.04L266.121 335.68L266.841 336.27L265.491 338.2L263.221 338.76L261.901 339.25L263.121 341.08L262.561 342.71L262.871 343.17L262.231 343.69L262.621 345.25L259.641 347.21L257.701 346.79L257.661 346.24L255.961 347.16L256.571 348.07L256.051 350.25L254.991 350.64L255.031 351.19L254.081 351.26L252.941 352.53L253.221 354.41L252.421 354.7L252.921 355.94L252.541 356.36L252.471 357.24L251.141 357.73L251.071 358.61L250.081 358.12L248.901 358.84L249.671 359.98L249.421 362.07L248.121 361.12L247.901 361.77L245.841 361.67L244.171 363.14L244.631 363.83L243.381 365.44L243.731 366.46L244.261 366.26L244.181 370.61L243.381 370.91L243.311 371.8L242.361 371.87L242.871 373.12L241.621 374.74L242.511 375.57L242.951 377.72L244.641 378.25L243.811 380.01L245.251 382.66L247.851 382.55L248.671 384.27L249.631 384.2L249.721 385.33L253.011 385.25L253.691 388.77L252.941 389.64L254.031 391.26L253.961 392.16L254.491 391.96L256.801 393.41L257.331 393.21L257.021 392.75L257.511 391.98L258.581 391.57L260.331 391.19L261.791 388.89L263.651 388.18L264.141 387.42L263.851 385.5L265.131 384.44L264.731 382.86L266.591 382.16L266.791 382.95L268.011 382.78L268.541 382.58L268.191 381.56L268.701 379.35L269.651 379.28L270.671 378.32L270.321 377.3L271.491 376.57L271.781 375.02L273.101 374.52L273.171 373.63L273.701 373.43L273.921 372.77L272.891 371.72L273.221 370.74L274.011 370.44L273.921 369.33L276.801 366.24L275.991 364.54L276.361 364.11L277.081 364.7L279.141 363.35L281.331 360.23L281.311 358.24L283.941 357.23L284.011 356.35L284.691 356.38L285.391 354.97L285.351 354.41L285.641 352.87L286.211 353.22L287.781 352.61L288.761 353.09L290.741 352.6L290.241 351.36L288.651 349.98L289.611 348.46L290.391 348.15L290.001 346.59L292.091 345.76L292.891 344.01L295.181 342.51L295.041 340.84L297.131 338.54L297.561 337.21L298.751 337.01L299.071 336.01L301.041 335.49L301.531 333.28L301.181 332.27L302.111 328.74L301.581 328.26Z" fill="#CCCCCC" stroke="white" stroke-width="0.5"/>
<path d="M341.311 209.52L341.451 209.57L341.811 210.42L342.721 210.34L343.151 211L346.031 210.99L347.121 211.66L348.921 210.97L349.921 212.49L351.271 213.06L349.471 213.75L349.161 215.23L348.251 215.31L348.971 216.4L348.601 216.82L348.951 218.32L349.961 219.84L351.221 218.81L352.051 219.58L351.601 220.84L352.181 221.71L351.701 222.44L352.251 222.77L351.771 223.5L352.061 223.93L353.241 223.75L353.701 224.93L353.931 224.3L354.851 224.22L355.781 226.59L355.261 226.79L355.181 227.64L358.491 227.72L358.261 228.35L359.531 229.77L357.401 229.5L356.661 230.34L356.951 230.77L356.291 230.75L356.581 231.18L355.661 231.26L356.241 232.13L354.551 232.52L355.101 232.85L354.331 233.15L354.881 233.48L353.281 235.47L353.571 235.91L352.761 235.68L352.281 236.42L351.331 235.97L351.281 237.36L349.451 239.99L349.771 240.96L350.841 241.09L352.381 242.41L352.041 243.37L352.071 243.91L351.411 243.89L352.431 245.42L352.201 246.06L354.071 248.36L354.991 248.27L355.381 250.32L356.511 251.53L355.361 254.19L355.901 256.46L355.381 256.67L356.371 257.66L353.791 258.68L354.091 259.12L353.611 259.86L354.201 260.74L353.571 261.26L353.871 261.7L352.151 262.09L352.191 262.63L350.751 263.44L350.401 264.39L348.901 264.63L347.221 267.07L347.881 267.51L345.551 267.83L341.371 265.72L339.241 265.26L337.471 263.35L335.591 262.59L333.721 260.96L330.611 256.74L325.891 253.99L320.431 253.17L319.021 252.26L316.931 251.99L313.951 250.23L312.201 247.53L309.281 244.8L307.711 238.21L309.271 233.79L313.991 230.15L315.361 229.97L317.531 228.47L318.511 226.94L320.871 226.69L325.211 223.55L329.561 223.3L331.611 223.81L334.521 222.4L336.841 218.99L339.241 216.94L341.311 209.52Z" fill="#CCCCCC" stroke="white" stroke-width="0.5"/>
<path d="M370.762 99.81L371.592 100.25L372.522 99.9L372.882 101.97L373.662 101.49L374.212 102.66L374.872 101.63L375.492 101.81L377.242 103.38L376.682 104.11L376.982 105.52L376.432 105.92L377.352 106.48L378.102 106.12L379.022 107.21L378.742 108.58L379.182 109.37L378.002 109.33L378.162 110.49L379.192 110.01L380.042 110.28L380.102 111.49L380.882 111.96L380.172 113.75L382.282 113.17L381.522 112.37L383.942 112.42L386.912 110.69L387.532 111.98L388.462 111.95L388.622 113.05L387.262 113.12L385.892 113.95L385.632 115.5L383.762 116.31L384.022 117.71L382.862 117.98L382.752 119.29L383.462 119.95L384.662 117.49L385.272 117.71L386.352 116.89L388.602 118.44L388.282 119.73L389.992 122.31L389.262 123.85L390.442 125.66L389.832 125.42L388.832 127.47L389.022 128.1L390.112 126.12L390.962 127.13L391.212 128.78L391.122 131.18L390.682 132.78L391.232 135.2L390.822 135.58L390.012 133.81L389.892 135.03L390.892 136.27L391.512 139.21L393.242 142.5L393.052 143.94L392.072 144.29L392.612 144.63L392.282 145.55L391.652 145.51L392.132 146.67L391.402 147.46L390.862 147.12L390.002 148.23L390.422 148.88L390.932 148.7L391.522 150.08L389.962 150.12L388.982 148.61L388.012 150.04L389.022 152.07L388.032 152.97L389.332 155.43L389.162 157.09L391.702 160.92L392.642 163.75L391.882 166.43L393.222 166.99L392.712 167.18L393.422 168.24L393.202 168.86L394.142 169.3L393.922 169.92L394.602 170.46L393.212 171.25L393.702 172.93L394.502 173.16L394.562 174.21L396.272 174.36L397.642 175.44L397.852 176.7L399.762 178.11L402.372 178.18L404.282 179.58L404.202 180.41L404.712 180.21L405.282 181.06L404.802 181.78L405.942 185.36L405.432 185.56L406.542 188.62L407.052 188.42L407.482 189.06L407.552 190.11L409.042 190.88L410.202 190.7L411.612 192.3L413.862 192.77L415.422 194.58L414.102 200.21L414.432 201.16L410.942 199.83L409.692 202.74L407.402 201.75L408.322 199.78L407.602 198.72L406.432 198.91L406.462 199.44L404.562 200.45L402.592 200.41L402.522 199.36L401.722 199.13L401.072 197.23L398.762 200.01L397.702 199.88L397.912 201.14L397.292 201.65L397.612 202.6L399.692 202.33L400.162 203.5L400.932 203.2L404.172 204.64L403.662 204.84L403.622 206.2L402.332 208.59L405.612 212.44L404.002 213.88L399.982 212.75L399.722 214.75L399.212 214.95L399.682 216.12L400.672 217.09L400.012 217.08L400.772 218.68L402.782 221.14L404.252 221.38L404.582 220.44L405.642 220.57L405.822 223.21L406.702 224.49L405.862 225.64L406.592 226.71L406.552 228.08L405.632 228.17L404.642 229.11L404.932 229.54L402.762 230.67L402.692 231.52L401.332 230.97L398.902 232.2L394.522 232.02L394.222 233.5L391.132 234.72L391.682 235.05L391.462 235.68L389.952 236.82L390.542 237.68L389.362 237.87L388.142 239.44L385.972 238.66L385.752 239.3L384.132 238.84L382.692 239.13L378.392 238.09L381.332 232.29L382.082 229.54L380.692 228.45L381.142 227.19L380.592 226.86L381.882 226.36L381.922 224.98L383.402 223.32L381.272 223.06L378.662 223.53L378.302 222.04L379.492 219.95L377.892 217.58L379.342 215.39L378.332 213.89L377.822 214.09L376.922 212.27L378.962 209.05L379.412 207.8L379.092 206.84L381.082 204.99L381.472 202.68L380.472 203.6L377.762 204.37L376.212 202.54L374.122 202.8L373.032 202.14L371.602 202.42L371.372 203.05L369.832 203.64L369.342 201.94L368.492 203.08L368.702 204.35L367.752 203.9L367.042 205.25L366.122 205.33L365.892 205.96L364.602 206.45L363.512 205.78L362.082 206.06L361.132 205.61L360.392 206.44L359.442 205.99L358.332 207.23L356.792 207.82L354.822 207.76L355.312 209.47L354.912 209.35L354.082 211.02L354.402 211.99L352.832 212.05L351.322 213.17L349.982 212.6L348.982 211.08L347.182 211.77L346.092 211.1L343.212 211.12L342.782 210.46L341.872 210.54L341.512 209.69L342.052 199.67L342.632 197.26L342.202 193.78L343.012 193.7L343.192 192.67L345.332 189.84L345.272 184.68L343.872 180.31L344.162 179.98L344.442 180.53L346.092 180.82L347.682 179L347.152 180.17L347.292 180.53L347.812 180.12V181.25L348.512 181.35L348.862 180.57L349.302 181.95L350.492 181.36L350.752 181.08L349.392 181.04L349.762 180.04L353.172 178.42L352.192 177.89L352.082 177.07L350.872 177.24L350.502 177.75L350.212 176.76L349.112 178.6L347.962 178.75L348.572 175.67L349.652 175.01L349.562 175.6L350.562 175.86L350.482 175.18L352.142 172.72L351.352 172.14L349.682 172.47L349.362 173.82L349.932 174.31L348.462 175.03L346.972 167.97L347.752 166.32L349.632 165.92L350.382 165.01L351.712 164.56L353.122 165.3L353.632 165.2L353.332 164.66L353.942 164.65L354.442 165.23L355.242 164.26L354.562 163.85L353.062 164.18L353.632 163.41L355.132 163.51L354.512 162.35L352.832 162.83L352.622 164.41L351.212 163.6L351.432 164.31L350.192 164.83L348.462 156.79L347.502 155.13L347.472 153.24L344.852 147.07L344.892 143.96L345.342 144.74L346.382 144.53L348.062 141.95L348.982 141.45L350.592 140.49L350.682 139.13L353.292 139.77L353.382 138.41L354.012 137.91L353.472 137.05L355.812 137.25L356.552 135.92L355.582 133.89L354.642 132.91L354.272 133.31L353.982 132.36L354.472 131.65L355.272 132.42L356.562 132.48L357.382 129.8L359.112 127.58L359.662 128.44L362.392 128.75L362.462 126.88L363.222 126.6L364.552 127.69L367.142 126.95L367.592 125.89L368.352 128.38L368.222 132.42L369.602 135.46L372.242 136.12L376.862 133.82L377.492 134.07L376.592 131.17L376.912 128.76L375.942 124.53L373.182 120.96L372.302 118.64L373.422 118.22L373.162 117.45L372.982 116.98L373.672 116.36L375.822 116.28L376.162 115.46L375.192 113.76L374.902 113.02L373.252 112L373.922 109.42L373.532 107.67L373.482 106.92L372.302 105.46L369.942 104.17L369.232 102.63L369.252 100.59L369.822 100.75L369.932 100.15L370.762 99.81Z" fill="#CCCCCC" stroke="white" stroke-width="0.5"/>
<path d="M354.282 316.44L354.622 316.79L353.852 318.08L352.012 319.89L351.312 319.76L353.252 316.44H354.282ZM361.612 310.46L362.922 310.6L362.972 311.14L364.372 311.71L364.422 312.25L363.492 312.34L363.702 313.1L364.942 313.45L365.562 312.92L366.702 313.59L368.372 312.65L369.882 312.89L370.042 311.7L370.822 311.39L371.702 312.17L373.472 312.31L374.732 309.83L380.572 312.85L381.882 312.32L382.202 311.35L383.042 311.58L382.992 311.03L383.312 310.05L385.192 309.86L385.922 310.41L386.292 309.98L387.022 310.53L386.652 310.96L387.222 311.29L386.222 313.67L387.892 314.13L388.622 313.27L389.192 313.6L389.562 313.17L390.452 313.94L391.972 312.76L392.862 313.53L393.282 312.23L394.482 312.03L394.272 311.27L395.372 311.39L395.952 310.31L397.102 310.98L398.722 310.89L398.412 310.45L398.832 310.56L398.942 308.82L400.612 309.28L401.392 308.97L402.172 310.07L404.512 310.55L405.082 312.31L406.072 312.77L405.612 313.52L405.862 314.34L405.522 316.53L404.082 319.38L404.312 320.61L401.032 323.51L400.342 325.84L399.602 326.4L399.372 328.52L398.212 330.42L398.162 331.9L395.332 334.77L394.032 338.21L390.782 339.83L390.082 341.93L388.072 344.23L382.802 346.97L379.282 350.78L376.242 351.97L375.862 352.91L373.292 355.21L370.772 355.19L369.022 357.11L367.782 357.36L366.412 356.77L365.602 357.02L364.942 353.52L364.022 352.79L365.092 349.03L364.902 347.94L362.092 346.18L362.102 344.62L360.642 345.37L358.092 344.89L356.022 345.93L353.262 348.32L352.612 347.23L351.282 346.8L351.612 345.62L350.522 344.14L353.032 338.93L352.062 337.54L350.812 337.24L348.142 339.4L347.872 340.43L348.832 340.38L348.712 341.89L349.642 340.31L350.092 340.84L349.752 341.87L350.192 342.79L349.462 343.49L348.692 342.55L347.402 343.71L346.502 343.52L345.382 344.4L344.542 343.51L343.122 343.31L341.342 340.38L342.562 337.87L345.262 336.94L346.292 334.49L347.122 334.2L348.832 331.35L350.002 331.15L350.582 330.19L351.152 330.78L350.242 331.7L350.332 332.38L351.012 331.6L351.302 330.06L350.192 328.92L350.502 328.16L354.132 325.63L355.282 323.35L355.862 319.6L358.832 316.68L361.612 310.46Z" fill="#CCCCCC" stroke="white" stroke-width="0.5"/>
<path d="M247.902 314.01L249.002 315.81L248.522 319.1L249.682 318.38L249.862 319.16L250.822 319.65L250.332 320.41L251.362 322.01L251.892 321.81L252.332 322.5L254.202 322.36L254.642 323.05L253.282 324.99L252.342 325.06L251.622 326.47L252.622 327.52L252.012 328.61L252.312 329.07L253.252 329L254.472 326.83L255.592 327.55L256.762 326.82L258.782 326.91L258.472 328.46L259.742 329.41L259.962 330.76L261.052 330.92L261.392 331.94L263.692 333.94L264.382 335.97L266.122 335.61L266.842 336.2L265.492 338.13L263.222 338.69L261.902 339.18L263.122 341.01L262.562 342.64L262.872 343.1L262.232 343.62L262.622 345.18L259.642 347.14L257.702 346.72L257.662 346.17L255.962 347.09L256.572 348L256.052 350.18L254.992 350.57L255.032 351.12L254.082 351.19L252.942 352.46L253.222 354.34L252.422 354.63L252.922 355.87L252.542 356.29L252.472 357.17L251.142 357.66L251.072 358.54L250.082 358.05L248.902 358.77L249.672 359.91L249.422 362L248.122 361.05L247.902 361.7L245.842 361.6L244.172 363.07L244.632 363.76L243.382 365.37L243.732 366.39L244.262 366.19L244.182 370.54L243.382 370.84L243.312 371.73L242.362 371.8L242.872 373.05L241.622 374.67L242.512 375.5L242.952 377.65L244.642 378.18L243.812 379.94L245.252 382.59L247.852 382.48L248.672 384.2L249.632 384.13L249.722 385.26L253.012 385.18L253.692 388.7L252.942 389.57L254.032 391.19L253.962 392.09L254.492 391.89L256.802 393.34L257.332 393.14L257.022 392.68L257.512 391.91L258.582 391.5L258.892 391.96L258.032 393.16L258.122 394.29L257.432 394.26L257.342 396.63L256.162 397.37L255.582 397.01L253.452 397.83L251.072 400.79L249.052 401.28L248.872 402.52L246.942 404.15L246.922 405.63L244.672 406.79L243.852 408.58L244.162 409.05L243.632 409.26L243.942 409.73L241.272 410.76L240.692 410.4L238.932 410.79L239.132 411.6L236.992 412.43L236.702 414.02L235.412 415.11L235.542 416.83L234.312 417.01L233.972 418.03L232.792 418.78L230.602 419.04L230.662 421.67L229.592 422.09L229.372 422.77L230.112 423.37L228.702 424.81L227.892 425.12L226.842 424.05L224.852 425.12L223.842 424.62L221.002 425.43L220.112 424.6L219.082 425.59L218.232 425.33L217.742 426.11L218.052 426.58L216.752 427.67L216.212 427.88L216.442 427.2L215.162 426.81L214.242 427.46L212.852 427.4L212.622 428.08L213.052 428.21L210.022 430.26L210.422 431.88L209.502 432.53L209.592 433.68L208.372 434.02L207.792 433.65L206.222 434.85L205.912 434.38L205.102 434.69L205.302 435.5L204.652 436.05L203.642 435.55L203.952 436.02L203.142 436.33L203.342 437.14L202.152 437.89L202.782 438.83L201.432 439.35L201.362 440.27L200.102 441.94L198.592 442.22L198.662 441.31L197.812 441.05L196.432 443.06L195.622 443.37L195.602 444.86L193.822 445.25L193.752 446.17L192.942 446.48L192.632 446.01L191.052 447.21L188.952 447.12L189.472 448.41L187.692 448.8L186.662 449.79L187.292 450.74L185.612 452.28L185.552 453.2L184.312 453.38L184.112 452.57L182.872 452.75L182.402 452.04L181.912 452.82L180.032 453.54L179.592 454.9L178.362 455.08L177.382 456.64L175.512 457.36L174.562 455.94L172.362 457.68L170.712 457.72L168.992 460.17L167.772 460.34L167.332 461.7L165.312 462.18L165.772 464.4L165.332 465.77L163.092 466.94L163.132 469.03L162.112 470.03L160.882 470.2L161.352 470.92L160.702 471.47L160.792 472.64L159.672 472.47L159.452 473.16L157.842 473.77L157.932 474.94L156.542 474.87L155.712 476.68L153.062 478.28L152.652 480.23L151.952 480.19L151.232 481.66L150.422 481.96L149.682 481.34L147.632 481.8L146.082 481.48L145.632 482.85L146.262 483.82L145.692 485.53L143.752 485.65L142.602 486.98L140.932 487L140.472 488.37L137.682 490.31L136.082 489.39L135.212 486.99L134.122 487.39L134.442 487.88L133.892 488.08L133.702 489.36L132.882 489.66L129.092 489.53L128.412 487.96L125.842 489.2L125.882 489.79L123.382 490.09L123.582 490.93L121.942 491.53L122.462 492.87L121.252 493.62L121.612 494.71L117.902 495.76L117.832 496.7L117.012 497L117.252 498.44L116.212 501.58L116.532 502.08L115.252 503.78L114.312 504.43L112.712 505.63L112.912 506.48L111.182 505.89L110.712 505.15L109.622 505.55L106.742 508.46L105.882 508.17L103.692 508.98L102.252 510.44L98.9217 511.07L97.9017 510.53L97.0817 510.84L96.7717 510.35L97.5917 507.9L97.8217 507.2L98.2117 506.75L97.3117 505.87L98.8017 505.01L98.7617 504.41L99.7417 504.35L99.9717 503.65L98.2517 503.08L98.4817 502.38L97.1517 501.36L97.5417 500.91L97.1517 499.23L95.7517 499.16L94.7017 498.05L92.8817 497.84L89.5017 499.44L87.2817 498.79L85.5117 497.8L87.5817 496.96L89.5017 494.72L92.2717 492.4L93.3717 492.09L94.1117 489.97L96.2117 488.32L96.2917 486.46L97.7817 485.14L97.7117 484.22L103.472 483.93L104.172 483.3L104.842 483.45L106.022 482.03L107.852 481.47L107.542 482.58L108.632 483.53L110.952 483.55L114.192 482.44L116.162 481.35L119.202 477.99L122.032 476.7L126.062 473.26L128.452 470.36L132.932 467.3L135.962 466.08L137.092 464.44L139.162 463.55L140.662 463.48L142.112 463.73L144.082 461.55L144.512 462.38L145.422 462.35L147.772 459.81L149.312 459.54L153.432 452.71L155.342 451.33L158.362 451.02L160.722 449.37L163.402 445.4L164.652 444.93L168.282 441.49L171.622 436.02L176.582 436.08L176.512 434.99L175.542 435.01L177.372 432.54L180.672 431.09L181.852 431.25L183.712 430.57L189.732 426.49L195.352 420.97L198.362 415.72L202.702 411.38L205.852 406.46L208.592 399.65L208.912 397.6L209.942 397.07L212.342 391.68L213.452 383.45L214.912 379.38L215.802 378.6L216.722 373.31L218.202 371.82L218.572 370.31L218.872 368.2L218.362 367.48L218.302 364.66L218.762 364.27L221.812 364.56L223.412 363.36L226.812 363.98L228.472 363.06L234.632 357.12L238.862 348.7L241.982 345.61L243.622 334.28L243.322 331.18L243.832 327.35L243.302 320.52L244.492 319.27L244.582 318L247.902 314.01Z" fill="#CCCCCC" stroke="white" stroke-width="0.5"/>
</svg>
