<svg width="657" height="601" viewBox="0 0 657 601" fill="none" xmlns="http://www.w3.org/2000/svg">
<path d="M326.83 242.03L334.17 241.75L335.29 242.35L338.62 239.74L340.14 236.9L345.9 235.97L344.76 239.82L347.53 241.6L346.11 245.24L347.4 246.08L349.89 244.09L350.21 244.48L349.39 251.31L349.18 261.1L350.69 261.64L352.42 263.42L353.56 269.9L354.42 269.29L355.57 265.68L358.35 265.37L361.18 262.94L361.91 263.99L362.09 271.94L361.09 278.33L362.06 281.24L361.58 289.84L361.63 290.5L362.62 291.15L362.5 292.63L360.02 293.09L359.61 295.72L358.09 295.89L357.7 297.45L355.92 297.58L355.45 298.24L355.12 300.51L355.98 302.41L351.52 310.15L351.35 313.41L350.05 316.51L351.3 317.18L351.47 319.35L352.69 318.01L353.67 317.81L354.87 318.26L354.89 319.52L353.83 321.46L351.61 323.7L351.63 326.84L346.73 337.81L344.31 339.47L343.08 341.76L338.71 343.05L337.52 344.56L337.58 349.5L336.26 354.14L339.98 355.66L340.32 356.81L339.56 358.37L341.11 360.66L342.75 359.5L343.41 360.4L341.68 368.71L339.4 370L336.89 373.9L334.09 376.49L333.75 379.41L335.02 381.4L333.06 386.02L330.55 389.81L327.16 391.71L327.29 392.94L329.17 395.95L306.18 396.9L299.45 396.37L294.06 397.25L292.53 398.51L290.4 401.92L286.12 403.89L274.45 413.17L272.37 416.63L269.68 417.31L265.9 419.59L262.1 420.87L252.61 422.32L251.91 422.97L250.92 427.63L249.43 429.77L247.29 431.45L246.23 435.15L244.17 437.51L243.67 442.64L242.08 446.67L241.99 448.62L243.15 461.23L242.56 465.75L243.29 470.36L242.66 474.25L243.52 479.77L254.58 499.12L253.67 506.17L254.22 509.28L253.92 512.02L252.02 515.56L251.53 518.19L248.24 520.8L247.6 523.43L245.7 524.32L243.24 528.66L243.42 532.15L242.23 535.01L239.97 536.52L238.11 539L237.98 541.66L234.82 545.13L231.87 545.54L228.07 548.04L225.88 550.61L225.21 550.62L224.53 548.84L225.49 548.02L225.9 543.99L225.47 542.47L226.79 540.77L227.3 539.2L227.05 537.9L224.47 534.77L219.59 530.74L219.57 529.83L220.55 529.81L220.34 528.84L219.82 529.18L220.12 528.32L220.36 528.6L220.99 527.88L220.02 527.08L220.08 525.73L218.79 524.71L216.58 524.16L215.28 524.4L214.82 524.01L215.12 522.98L214.65 522.72L214.17 523.64L213.54 523.27L214.21 522.37L213.74 521.52L211.62 520.74L209.07 521.17L207.86 522.81L210.78 523.19L211.73 522.85L212.02 523.73L213.23 523.74L214.99 525.61L217.14 524.98L218.62 525.29L218.7 527.46L217.25 527.59L218.69 528.4L218.53 528.97L217.59 529.04L212.13 526.59L209.39 526.27L202.58 527.12L197.12 528.51L191.78 528.33L189.57 529.87L184.47 531.13L177.5 529.53L175.82 530.31L173.9 529.8L170.14 530.05L169.23 530.52L168.38 532.74L167.12 533.27L156.6 532.31L150.67 532.57L147.76 533.23L145.96 535.04L145.83 537.57L147.16 537.43L147.87 538.39L144.02 539.59L143.35 538.63L144.9 537.41L144.91 536.83L143.12 534.98L140.82 534.5L139.46 535.1L139.3 535.81L136.43 536.06L134.53 534.86L129.86 533.38L129.72 532.87L124.55 532.37L124.5 530.69L125.6 530.86L123.77 529.35L126.83 529.31L126.54 528.71L127.94 527.39L128.07 526.62L125.71 526.05L124.23 526.81L120.92 526.62L121.69 527.05L121.66 527.64L119.83 528.4L120.82 529.71L121.49 528.92L122.64 528.8L123.82 531.26L123.11 532.31L116.78 531.66L109.24 529.8L104.53 530.52L101.54 532.32L100.84 534L100.83 535.88L101.92 536.58L101.5 537.45L87.19 535.22L85.83 535.39L85.42 536.28L82.53 537.25L74.33 535.49L64.21 534.8L62.03 535.24L61.4 536.16L61.98 536.76L58.76 537.47L57.09 538.77L56.38 541.15L56.84 541.78L58.55 541.73L58.16 542.19L53.68 541.77L55.95 541.09L55.53 538.79L53.37 537.22L50.16 536.82L47.56 537.43L46.01 538.61L45.71 539.7L46.53 540.16L46.46 541.13L47.32 541.94L40.21 541.56L38.43 542.33L38.72 542.93L38.04 544.63L35.14 545.59L33.32 545.26L33.47 543.13L34.75 542.33L34.32 540.87L30.81 538.92L27.32 538.38L28.62 537.93L30.37 533.57L31.34 518.36L32.35 517L31.7 515.65L31.67 512.18L34.75 512.07L35.2 511.37L37.81 493.82L38.7 493.02L42.08 492.08L46.06 490.07L48.38 490.01L48.82 486.87L54.63 488.23L54.97 487.01L53.94 485.9L53.62 484.47L54.63 484.42L55.64 483.16L55.14 482.21L55.53 481.11L59.3 480.47L60.5 479.23L67.22 478.5L69.26 477.15L71.6 477L72.2 476.2L73.82 475.61L81.83 475.56L84.37 476.24L88.92 475.82L90.1 471.92L89.81 467.37L93.26 466.03L92.31 463.7L92.28 457.04L94.66 454.63L93.96 452.89L89.51 450.19L84.65 450.55L80.51 452.33L77.67 451.25L75.47 451.46L73.99 450.51L73.93 449.77L75.91 447.45L74.94 445.93L76.8 440.51L75.42 425.75L74.27 418.21L73.43 415.84L74.53 408.14L74.35 405.16L66.63 406.12L59.84 398.98L55.18 397.01L53 396.91L50.32 395.96L48.2 396.07L45.4 395.07L36.15 389.27L31.39 383.55L24.56 373.14L24.52 370.99L23.58 369.93L23.26 368.46L21.14 367.51L21.64 364.95L19.89 363.73L18.73 360.9L19.3 357.99L12.34 351.19L1 336.36L40.62 349.39L43.78 351.02L58.91 356.26L62.2 356.77L86.75 353.84L93.84 353.87L96.75 352.97L107.97 352.35L119.75 354.59L124.58 357.33L126.32 357.43L127.64 355.89L127.29 354.23L128.22 353.01L130.31 352.26L131.37 351.06L133.58 351.09L138.18 349.68L138.19 348.68L139.78 348.15L145.36 347.74L156.4 348.82L158.11 348.35L161.69 349.78L190.04 341.34L190.02 342.44L193.45 340.55L198.22 339.6L198.37 338.97L208.59 336.17L209.49 335.2L208.9 334.54L212.08 331.01L212.26 330.4L207.49 326.21L208.26 324L210 322.59L209.75 321.33L211.79 315.97L211.94 311.91L212.97 309.79L212.05 308.99L212.83 308.11L212.35 307.12L209.84 305.87L209.66 305.19L210.69 300.5L213.15 295.45L212.16 294.09L213.34 291.74L214.84 291.06L216.92 288.11L215.93 288.03V287.39L221.21 286.27L222.73 284.81L223.58 282.83L225.22 281.72L226.92 275.89L226.52 274.98L228.94 274.93L230.57 272.62L233.17 271.18L237.46 270.49L237.21 271.31L238.59 271.6L237.51 273.97L239.35 275.36L240.93 274.86L243.11 275.07L248.75 276.32L256.18 274.41L256.54 274.24L255.21 273.77L259.18 272.24L260.95 272.09L264.3 270.12L266.45 269.79L267.5 268.48L266.78 266.53L265.6 265.86L261.46 266.5L260.06 265.32L259.96 263.35L258.37 260.72L259.96 260.52L260.47 261.85L265.17 261.81L270.26 257.12L274.47 256.16L277.71 254.03L279.27 251.52L279.85 250.58L282.18 246.9L282.51 247.79L285.68 248.38L285.36 249.11L286.74 250.39L291.97 250.37L292.41 250.1L297.71 247.17L300.11 249.42L302.8 249.8L303.39 253.11L305.58 254.72L306.8 257.03L308.48 257.6L311.13 257.27L312.38 255.42L315.16 256.28L315.57 255.22L318.91 252.82L321.99 246.25L323.29 245.61L326.83 242.03Z" fill="#CCCCCC" stroke="white" stroke-width="0.5"/>
<path d="M536.429 4.52L537.479 4.34L539.899 2.57L540.659 6.16L543.409 8.74L547.389 5.03L548.969 5.32L552.089 4.62L552.839 6.12L555.589 7.63L557.969 7.25L561.949 8.34L562.269 8.73L561.449 9.91L562.549 11.48L562.769 16.57L563.989 18.98L564.529 19.23L565.719 18.52L566.949 18.93L566.789 17.41L567.539 16.82L571.639 16.71L574.629 17.79L576.929 19.37L581.949 23.84L582.489 27.26L584.399 29.7L586.069 33.96L586.059 34.91L584.429 37.39L584.629 39.5L585.469 39.71L587.239 42.66L585.329 42.95L585.149 44.65L585.829 45.55L583.769 45.88L583.609 46.66L582.639 47.11L583.009 50.19L585.149 52.63L588.639 52.8L591.359 56.92L591.859 61.41L593.669 60.58L598.579 61.41L600.309 59.63L602.449 59.64L603.479 58.59L604.659 58.85L607.029 57.4L607.929 58.58L607.439 62.1L608.139 63.72L610.849 64.99L614.189 68.97L618.049 69.11L621.969 72.18L625.959 72.51L627.409 74.07L630.989 75.88L635.849 75.76L639.289 78.7L644.499 77.41L647.189 78.31L650.679 78.14L654.619 76.41L656.379 77.17L655.639 77.15L648.929 83.5L629.829 98.22L626.409 99.66L624.469 98.98L623.669 103.65L622.619 103.82L618.739 102.09L616.459 103.83L614.069 104.24L613.839 108.3L611.459 112.08L606.819 112.14L603.429 110.45L600.019 113.19L597.319 113.39L595.149 115.6L591.199 117.52L589.799 117.37L587.969 115.98L586.499 116.26L584.769 118.15L583.009 118.09L581.939 119.32L579.019 120.74L575.389 123.49L570.219 122.42L564.379 122.2L563.279 120.62L561.729 119.99L560.099 117.5L559.729 115.82L560.289 111.01L559.839 109.62L557.469 107.39L556.399 105.17L555.899 105.14L554.479 107.41L553.759 107.62L553.309 106.85L548.939 110.31L546.829 107.27L542.699 106.02L540.309 103.9L539.049 103.56L538.339 104.8L538.439 100.73L539.259 98.6L535.039 96.23L532.429 93.5L528.419 95.52L526.639 97.08L525.039 96.82L524.009 95.38L520.589 94.4L516.499 94.08L512.619 94.93L510.829 93.68L508.949 94.05L508.049 92.82L505.999 92.17L504.459 90.94L501.909 91.01L499.989 89.6L497.149 90.37L496.079 86.57L496.099 82.71L496.699 80.97L498.479 79.76L500.249 77.02L499.229 76.15L485.079 73.75L479.919 71.83L474.309 67.32L473.369 64.9L473.849 61.17L472.629 60.14L471.509 60.02L468.129 61.39L462.289 60.34L456.309 62.13L452.609 60.82L451.609 59.15L450.199 58.24L452.299 53.13L450.429 49.18L451.399 46.6L451.269 43.84L452.069 41.96L453.869 40.78L456.549 40.89L457.799 39.03L463.279 35.57L464.219 31.87L467.489 31L467.659 29.69L470.419 27.82L471.869 24.57L470.909 21.62L471.369 20.46L473.139 20.18L475.129 18.92L478.629 19.48L482.799 17.8L484.799 17.54L487.729 18.75L490.829 18.63L491.719 19.67L494.589 19.89L496.169 19.05L497.539 19.38L498.739 19L501.839 19.65L502.429 17.7L501.549 15.63L499.899 15.06L499.249 13.83L495.979 12.96L494.609 10.89L493.879 10.21L494.679 9.86L496.319 9.79L497.419 10.37L501.539 9.97L508.799 12.97L512.359 13.21L513.609 9.93L517.489 10.38L523.989 5.77L527.739 5.63L528.479 7.26L529.329 7.5L529.839 3.92L531.369 3.17L531.699 1.29L534.149 1L534.999 3.27L536.429 4.52Z" fill="#CCCCCC" stroke="white" stroke-width="0.5"/>
<path d="M469.43 158.96L473.3 156.99L475 157.69L478.42 157.3L479.65 156.34L481.42 155.97L483.67 153.18L483.65 157.4L484.56 160.44L486.62 161.46L488.76 166.54L489.41 172.78L488.96 173.58L482.53 175.6L476.36 174.37L473.97 171.47L474.14 168.64L473.54 164.24L472.81 162.5L471.07 165.12L469.7 165.24L469.43 158.96Z" fill="#CCCCCC" stroke="white" stroke-width="0.5"/>
<path d="M512.62 94.93L516.5 94.08L520.59 94.4L524.01 95.38L525.04 96.82L526.64 97.08L528.42 95.52L532.43 93.5L535.04 96.23L539.26 98.6L538.44 100.73L538.34 104.8L539.05 103.56L540.31 103.9L542.7 106.02L546.83 107.27L548.94 110.31L553.31 106.85L553.76 107.62L554.48 107.41L555.9 105.14L556.4 105.17L557.47 107.39L559.84 109.62L560.29 111.01L559.73 115.82L560.1 117.5L561.73 119.99L563.28 120.62L564.38 122.2L559.97 121.32L556.54 119.04L556.7 117.7L556.07 117.34L551.91 116.63L547.13 117.61L542.95 115.66L540.05 115.92L535.89 115.4L533.69 114.84L530.17 111.59L522.25 110.02L520.93 110.67L519.61 110.17L518.55 111.67L515.58 113.16L513.21 115.28L509.63 115.57L508.23 114.41L506.19 115.03L504.92 117.4L505.72 120.81L503.68 122.04L503.35 123.52L503.81 124.42L499.1 128.13L498.57 130.78L498.96 131.24L500.28 130.91L501.61 131.77L503.84 130.77L506.81 135.2L506.82 137.67L504.52 140.91L503.31 144.03L503.21 145.19L503.79 145.99L507.96 146.47L512.51 144.95L513.97 145.71L516.03 145.72L517.35 146.87L517.83 151.01L516.23 153.68L513.27 155.4L510.27 155.86L506.04 160.48L508.83 167.22L509.81 167.66L511.43 167.42L514.62 171.51L514.96 172.72L514.33 177.74L511.71 181.25L508.51 181.79L508.28 184.57L512.05 186.13L514.54 188.76L515.67 191.7L517.59 191.45L521.26 192.94L521.39 194.46L520.03 197.37L523.74 198.09L525.59 203.23L523 204.27L521.89 204.09L520.48 202.15L507.84 195.9L504.68 192.12L503.1 192.07L500.22 193.28L498.98 192.61L498.07 191.25L493.35 189.34L493.29 187.8L494.65 186.46L494.6 184.71L493.19 183.75L492.47 181.37L492.85 180.65L492.23 179.19L492.53 178.36L491.66 178.09L491.12 176.56L492.15 173.48L493.29 172.53L492.58 171.04L492.7 170.08L493.48 169.45L493.3 167.49L491.05 164.93L491.25 163.07L492.21 161.49L491.97 159.25L490.97 157.31L491.7 152.99L489.55 148.63L488.75 146.3L487.02 134.71L485.07 132.81L484.49 130.88L486.17 121.65L487.02 120.86L491.55 120.12L493.22 121.24L493.85 121.1L495.13 117.41L494.72 115.13L496.26 113.71L497.14 111.34L501.3 108.92L504.16 108.93L507.07 107.02L509.73 102.88L509.89 100.98L511.03 99.93L510.13 97.95L510.27 96.56L512.62 94.93Z" fill="#CCCCCC" stroke="white" stroke-width="0.5"/>
<path d="M494.609 10.8899L495.979 12.9599L499.249 13.8299L499.899 15.0599L501.549 15.6299L502.429 17.6999L501.839 19.6499L498.739 18.9999L497.539 19.3799L496.169 19.0499L494.589 19.8899L491.719 19.6699L490.829 18.6299L487.729 18.7499L484.799 17.5399L482.799 17.7999L478.629 19.4799L475.129 18.9199L473.139 20.1799L471.369 20.4599L470.909 21.6199L471.869 24.5699L470.419 27.8199L467.659 29.6899L467.489 30.9999L464.219 31.8699L463.279 35.5699L457.799 39.0299L456.549 40.8899L453.869 40.7799L452.069 41.9599L451.269 43.8399L451.399 46.5999L450.429 49.1799L452.299 53.1299L450.199 58.2399L451.609 59.1499L452.609 60.8199L456.309 62.1299L462.289 60.3399L468.129 61.3899L471.509 60.0199L472.629 60.1399L473.849 61.1699L473.369 64.8999L474.309 67.3199L479.919 71.8299L485.079 73.7499L499.229 76.1499L500.249 77.0199L498.479 79.7599L496.699 80.9699L496.099 82.7099L496.079 86.5699L497.149 90.3699L499.989 89.5999L501.909 91.0099L504.459 90.9399L505.999 92.1699L508.049 92.8199L508.949 94.0499L510.829 93.6799L512.619 94.9299L510.269 96.5599L510.129 97.9499L511.029 99.9299L509.889 100.98L509.729 102.88L507.069 107.02L504.159 108.93L501.299 108.92L497.139 111.34L496.259 113.71L494.719 115.13L495.129 117.41L493.849 121.1L493.219 121.24L491.549 120.12L487.019 120.86L486.169 121.65L484.489 130.88L485.069 132.81L487.019 134.71L488.749 146.3L489.549 148.63L487.309 150.49L485.739 150.17L484.789 150.64L484.559 151.18L485.269 152.46L483.669 153.18L481.419 155.97L479.649 156.34L478.419 157.3L474.999 157.69L473.299 156.99L469.429 158.96L467.559 159.75L466.459 158.32L463.079 158.04L463.039 155.83L462.139 154.3L462.079 151.55L461.359 151.06L461.189 149.57L460.179 149.76L457.339 152.9L455.529 152.79L454.399 151.91L455.329 149.47L452.009 149.24L450.689 146.71L449.249 146.7L448.679 145.5L447.799 145.7L446.449 146.36L444.489 148.43L439.829 149.96L440.149 157.59L436.829 157.62L434.179 156.73L433.739 157.79L432.139 158.39L431.059 161.47L429.989 162.58V165.96L428.829 167.41L429.099 169.07L426.889 171.13L425.919 174.04L424.919 175.03L420.319 176.68L419.389 177.77L419.719 179.15L418.689 181.4L420.699 184.07L420.909 185.68L419.009 188.57L419.229 190.56L415.539 188.75L413.509 183.63L412.099 183.41L410.469 184.11L408.589 182.73L406.699 182.94L406.599 184.39L407.999 186.91L407.449 189.39L408.939 190.62L408.579 192.7L406.149 193.32L404.729 194.54L402.989 193.61L401.689 193.63L398.149 195.89L396.749 198.08L396.589 202.36L395.759 204.03L397.869 211.93L399.249 212.47L400.879 212.13L401.719 212.93L401.789 214.01L400.809 216.24L401.669 216.75L403.809 215.21L405.339 215.22L405.959 217.47L405.119 222.36L402.359 222.68L401.379 223.29L398.479 227.47L398.449 230.82L395.629 232.67L395.869 235.31L394.329 239.44L394.039 242.01L393.229 243.11L393.199 244.6L391.619 245.89L388.779 251.61L386.519 253.91L386.599 255.9L385.869 258.27L385.009 259.1L384.939 260.39L386.539 259.75L387.169 261.19L386.289 262.55L386.519 265.12L384.579 266.1L385.069 267.45L384.139 270.18L381.719 272.23L380.989 269.59L378.669 270.71L374.079 269.28L369.959 271.32L369.349 272.91L368.169 273.48V274.6L365.129 262.45L368.129 259.84L364.329 258.04L362.809 255.56L355.869 233.57L356.119 231.47L357.789 229.24L364.829 224.72L370.709 218.25L372.009 217.88L373.659 218.27L374.369 217.19L367.409 206.11L367.179 202.02L368.359 201.11L370.769 194.73L373.389 191.25L373.919 191.98L377.339 192L380.149 191.29L383.979 188.25L386.219 184.94L384.799 183.88L379.919 183.57L379.389 181.9L376.219 180.84L373.779 178.31L371.479 174.4L375.149 173.99L377.529 171.78L380.759 170.94L381.759 167.1L388.489 168.22L391.769 168.09L392.679 167.36L394.269 167.25L394.829 165.11L396.089 163.99L395.669 160.95L396.559 159.92L399.059 161.08L404.439 165.1L407.979 164.34L412.929 165.39L415.739 165.29L415.699 166.03L414.189 167.63L414.419 168.68L415.549 169.48L419.029 168.91L424.039 164.85L423.149 162.82L424.869 160.64L425.029 159.31L420.679 155.93L419.599 158L417.169 159.68L414.839 160.46L411.759 160.08L411.089 158.89L411.369 156.02L407.939 153.8L407.979 150.85L405.969 147.09L406.039 143.3L408.959 137.52L411.189 135.92L414.069 131.16L415.939 130.38L418.729 125.97L416.849 122.22L417.979 121.06L418.839 117.98L421.409 116.45L421.649 114.17L422.629 112.15L422.309 111.29L421.149 110.57L416.889 109.81L414.549 105.01L412.139 102.33L413.389 99.7799L414.439 99.5099L413.079 98.7399L412.409 96.5399L415.569 94.2199L418.349 91.0699L418.259 90.1799L416.349 89.3299L413.609 86.1099L417.649 80.4399L417.469 79.2699L415.679 76.6799L416.669 74.1899L415.569 73.0099L412.009 71.6399L413.999 67.6699L413.389 66.2199L410.839 64.5199L411.759 63.1499L410.899 62.3799L410.269 60.2599L407.369 57.7299L406.869 55.3799L406.069 54.7299L404.719 54.9799L404.159 54.0699L401.259 52.3199L400.479 50.6199L401.999 48.9599L402.099 47.9399L403.909 46.2499L405.459 45.9799L406.789 44.3199L409.029 43.2399L409.669 41.0599L415.609 38.0599L415.299 36.8299L413.919 35.7099L415.909 34.1899L416.859 32.6799L416.909 30.8099L419.709 32.0899L422.469 34.3699L424.849 34.4299L425.019 32.9999L423.349 32.3899L423.869 29.3499L426.849 29.3599L427.869 26.6999L430.869 26.3699L432.659 25.0299L434.109 24.9499L434.349 22.4899L438.599 21.7199L437.979 20.3299L439.699 17.4499L442.069 17.8599L443.399 17.1699L445.459 17.0499L446.269 16.3399L449.519 16.2899L451.459 14.1099L454.799 12.8799L464.509 13.2399L472.479 11.6999L476.329 11.5099L481.479 12.7299L486.289 11.2399L488.839 11.5999L494.609 10.8899Z" fill="#CCCCCC" stroke="white" stroke-width="0.5"/>
<path d="M368.171 274.6V273.48L369.351 272.91L369.961 271.32L374.081 269.28L378.671 270.71L380.991 269.59L381.721 272.23L384.141 270.18L385.071 267.45L384.581 266.1L386.521 265.12L386.291 262.55L387.171 261.19L386.541 259.75L384.941 260.39L385.011 259.1L385.871 258.27L386.601 255.9L386.521 253.91L388.781 251.61L391.621 245.89L393.201 244.6L393.231 243.11L394.041 242.01L394.331 239.44L395.871 235.31L395.631 232.67L398.451 230.82L398.481 227.47L401.381 223.29L402.361 222.68L405.121 222.36L405.961 217.47L405.341 215.22L403.811 215.21L401.671 216.75L400.811 216.24L401.791 214.01L401.721 212.93L400.881 212.13L399.251 212.47L397.871 211.93L395.761 204.03L396.591 202.36L396.751 198.08L398.151 195.89L401.691 193.63L402.991 193.61L404.731 194.54L406.151 193.32L408.581 192.7L408.941 190.62L407.451 189.39L408.001 186.91L406.601 184.39L406.701 182.94L408.591 182.73L410.471 184.11L412.101 183.41L413.511 183.63L415.541 188.75L419.231 190.56L419.011 188.57L420.911 185.68L420.701 184.07L418.691 181.4L419.721 179.15L419.391 177.77L420.321 176.68L424.921 175.03L425.921 174.04L426.891 171.13L429.101 169.07L428.831 167.41L429.991 165.96V162.58L431.061 161.47L432.141 158.39L433.741 157.79L434.181 156.73L436.831 157.62L440.151 157.59L439.831 149.96L444.491 148.43L446.451 146.36L447.801 145.7L448.681 145.5L449.251 146.7L450.691 146.71L452.011 149.24L455.331 149.47L454.401 151.91L455.531 152.79L457.341 152.9L460.181 149.76L461.191 149.57L461.361 151.06L462.081 151.55L462.141 154.3L463.041 155.83L463.081 158.04L466.461 158.32L467.561 159.75L469.431 158.96L469.701 165.24L471.071 165.12L472.811 162.5L473.541 164.24L474.141 168.64L473.971 171.47L476.361 174.37L482.531 175.6L488.961 173.58L489.411 172.78L488.761 166.54L486.621 161.46L484.561 160.44L483.651 157.4L483.671 153.18L485.271 152.46L484.561 151.18L484.791 150.64L485.741 150.17L487.311 150.49L489.551 148.63L491.701 152.99L490.971 157.31L491.971 159.25L492.211 161.49L491.251 163.07L491.051 164.93L493.301 167.49L493.481 169.45L492.701 170.08L492.581 171.04L493.291 172.53L492.151 173.48L491.121 176.56L491.661 178.09L492.531 178.36L492.231 179.19L492.851 180.65L492.471 181.37L493.191 183.75L494.601 184.71L494.651 186.46L493.291 187.8L493.351 189.34L498.071 191.25L498.981 192.61L500.221 193.28L503.101 192.07L504.681 192.12L507.841 195.9L520.481 202.15L521.891 204.09L523.001 204.27L525.591 203.23L528.291 205.57L531.491 204.79L532.541 203.23L532.561 201.81L534.691 201.04L532.881 206.59L533.881 209.35L532.571 211.5L532.961 213.82L534.051 214.83L534.291 216.89L536.621 217.52L540.041 216.74L545.371 218.95L547.571 216.95L549.601 217.48L551.361 220.17L552.121 220.52L553.701 220.02L553.971 220.89L555.361 221.17L559.191 224.25L559.551 226.21L560.601 227.11L560.451 228.66L558.681 230.57L558.561 232.1L557.361 232.87L556.931 234.21L555.661 235.37L555.221 235.49L555.021 234.22L553.961 234.03L553.571 235.53L552.771 236.24L551.991 235.57H550.901L549.971 236.63L546.601 238.02L543.541 236.35L542.431 237.09L541.471 237.04L541.191 238.24L540.231 238.41L540.441 238.91L539.381 239.45L539.021 241.37L536.651 241.5L536.191 242.17L535.161 241.24L534.931 242.74L533.251 243.04L531.811 244.71L530.951 244.5L530.181 246.43L529.251 247.09L528.771 249.46L529.071 250.52L527.771 250.88L527.741 251.89L530.971 258.9L531.081 260.42L529.961 261.01L529.611 261.88L531.961 262.56L531.741 262.96L532.561 263.77L531.921 265.41L530.731 266.61L529.071 271.05L528.241 271.04L527.501 272.23L527.931 273.34L527.121 276.31L527.251 278.25L528.751 279.01L529.081 280.63L530.371 280.2L530.641 278.48L531.771 278.32L532.141 279.03L532.911 278.41L533.931 278.61L534.591 280.19L533.731 281.71L531.811 282.36L530.941 282.52L529.331 281.44L528.301 283.9L528.541 284.76L526.941 285.95L525.931 286L524.001 287.8L523.821 288.69L521.871 289.62L521.771 291.39L520.981 291L519.961 291.31L518.781 293.46L519.231 294.22L517.871 294.88L518.631 296.57L516.711 297.05L513.571 300.94L512.311 300.96L511.941 302.14L511.251 301.83L511.311 303.5L510.351 304.42L510.991 304.85L510.731 305.55L510.301 305.96L509.041 305.25L507.101 306.84L506.281 308.76L505.231 308.52L504.941 310.4L503.991 310.58L502.751 312.73L504.191 314.16L506.101 317.5L506.431 320.47L499.501 326.19L492.691 328.15L484.191 331.9L479.541 348.79L472.501 362.39L469.051 366.87L466.791 372.16L457.881 376.22L445.251 383.73L442.051 388.08L437.501 401.52L430.211 408.12L427.791 411.61L426.401 419L417.151 422.85L407.541 422.99L402.251 424.03L387.211 430.27L382.311 429.45L379.251 424.15L378.561 420.17L374.771 416.28L373.521 415.73L371.541 415.68L367.171 416.79L364.731 419.49L361.021 422.16L354.591 419.23L351.371 416.22L349.011 412.21L346.491 405.2L346.581 403.7L345.581 402.85L345.371 399.66L343.511 399.12L342.851 396.91L337.511 396.02L337.491 394.81L333.351 394.1L329.131 395.94L327.251 392.93L327.131 391.7L330.521 389.8L333.031 386.02L334.991 381.39L333.721 379.41L334.071 376.49L336.871 373.9L339.381 370L341.661 368.71L343.391 360.4L342.741 359.5L341.091 360.67L339.551 358.38L340.311 356.82L339.961 355.66L336.251 354.14L337.571 349.5L337.501 344.56L338.701 343.05L343.071 341.75L344.291 339.46L346.711 337.8L351.611 326.83L351.591 323.7L353.811 321.46L354.881 319.52L354.861 318.25L353.651 317.81L352.671 318.01L351.451 319.34L351.281 317.18L350.031 316.51L351.331 313.41L351.501 310.15L355.961 302.41L355.101 300.51L355.441 298.23L355.911 297.58L357.691 297.45L358.081 295.9L359.601 295.72L360.011 293.1L362.501 292.64L362.611 291.15L361.631 290.51L361.571 289.85L362.051 281.24L362.791 281.05L362.971 280.39L362.731 276.91L367.291 275.78L368.171 274.6Z" fill="#CCCCCC" stroke="white" stroke-width="0.5"/>
<path d="M279.99 595.73L282.73 595.18L283.15 597.6L281.76 600.7L280.8 600.74L280.28 600.11L278.03 600.52L277.78 599.63L278.93 598.87V596.59L279.99 595.73ZM391.98 569.75L392.28 566.35L391.62 565.57L391.71 563.12L392.48 561.8L395.83 559.68L394.5 558.35L392.59 553.73L389.57 548.92L387.59 540.02L382.65 534.88L381.79 532.5L379.08 529.59L379.61 524.14L379.16 523.86L379.35 518.02L378.76 516.46L376.87 516.06L373.74 517.34L368.46 517.89L363.82 516.29L362.46 513.51L359.89 511.24L356.72 505.9L356.2 500.36L358.62 496.41L359.68 493.03L359.37 491.06L360.12 482.65L359.5 479.9L358.39 478.88L355.58 477.81L348.35 478.59L345.88 478.11L342.26 475.46L334.28 471.75L333.05 468.9L334.19 459.81L336.7 453.39L340.1 449.67L347.68 443.12L350.55 438.81L353.65 436.47L357.19 427.31L361.03 422.18L354.59 419.25L351.37 416.24L349.02 412.23L346.5 405.22L346.59 403.73L345.59 402.88L345.38 399.69L343.52 399.16L342.86 396.95L337.52 396.06L337.5 394.84L333.35 394.14L329.13 395.98L306.14 396.93L299.41 396.4L294.02 397.28L292.49 398.54L290.36 401.95L286.08 403.92L274.41 413.2L272.33 416.66L269.64 417.34L265.86 419.62L262.06 420.9L252.57 422.35L251.87 423L250.88 427.66L249.39 429.8L247.25 431.48L246.19 435.18L244.13 437.54L243.63 442.67L242.04 446.7L241.95 448.65L243.11 461.26L242.52 465.78L243.25 470.39L242.62 474.28L243.48 479.8L254.54 499.15L253.63 506.2L254.18 509.31L253.88 512.05L251.98 515.59L251.49 518.22L248.2 520.83L247.56 523.46L245.66 524.35L243.2 528.69L243.38 532.18L242.19 535.04L239.93 536.55L238.07 539.03L237.94 541.69L234.78 545.16L231.83 545.57L228.03 548.07L225.84 550.64L225.98 551.06L224.79 551.23L223.77 552.3L223.58 553.05L224.05 553.59L226.43 553.17L227.37 552.45L230.13 553.05L230.59 552.15L231.36 552.08L233.6 552.95L236.3 555.3L235.53 553.57L233.89 552.76L233.75 552.15L235.72 551.67L235.81 552.44L236.3 552.33L236.47 554.05L237.96 554.4L240.14 556.87L241.05 556.27L240.4 554.94L241.73 555.62L244.41 554.62L245.84 555.11L246.17 556.42L243.7 557.97L244.81 559.77L243.85 560.42L244.26 561.22L246.16 561.45L246.4 563.2L245.55 565.41L247.1 567.07L246.81 568.05L248.53 570.01L248.96 573.21L250.58 574.11L249.04 574.65L249.28 575.11L248.47 575.7L249.28 577.88L250.62 578.56L250.05 579.99L251.37 582.35L251.55 584.62L252.5 585.26L252.83 588.17L254.33 588.76L254.64 589.53L256.37 589.8L255.83 591.65L257.51 592.33L258.59 591.93L259.21 593.32L261.27 594.83L262.27 594.92V596.16L263.03 596.52L265.16 596.29L264.7 595.23L265.53 595.2L267.1 596.35L267.25 595.94H268.92L269.34 592.16L270.43 592.59L272.85 595.48L273.61 595.13L274.21 595.97L273.78 597.22L274.59 598.1L275.69 597.12L275.73 597.77L276.45 598.11L277.26 597.26L277.16 592.53L278.98 595.11L283.15 594.57L283.37 593.38L285.22 592.49L286.72 590.88L288.42 591.43L288.67 589.7L290.22 588.68L290.9 589.82L291.95 588.64L292.78 588.86L294.92 587.98L295.61 590.61L296.89 590.04L304.71 590.09L305.29 576.52L307.7 575.5L308.53 579.72L309.72 580.2L310.47 580.12L311.25 577.83L312.37 576.84L313.27 578.49L314.43 578.98L318 577.16L322.13 578.59L326.4 576.84L328.4 577.28L331.09 576.97L333.78 577.76L337.63 576.8L342.42 581.13L352.25 581.55L354.01 581.37L355.37 580.38L357.68 576.25L367.4 573.6L374.74 570.85L376.74 571.61L375.2 573.97L375.79 575.42L375.2 576.12L375.8 576.47L375.28 577.87L378.42 579.02L384.24 579.12L387.66 577.67L387.31 576.25L390.2 573.91L391.7 573.31L392.26 573.89L393.58 573.87L395.17 572.43L396.59 571.95L396.94 571.07L396.35 570.34L391.98 569.75Z" fill="#CCCCCC" stroke="white" stroke-width="0.5"/>
<path d="M412.141 102.33L414.551 105.01L416.891 109.81L421.151 110.57L422.311 111.29L422.631 112.15L421.651 114.17L421.411 116.45L418.841 117.98L417.981 121.06L416.851 122.22L418.731 125.97L415.941 130.38L414.071 131.16L411.191 135.92L408.961 137.52L406.041 143.3L405.971 147.09L407.981 150.85L407.941 153.8L411.371 156.02L411.091 158.89L411.761 160.08L414.841 160.46L417.171 159.68L419.601 158L420.681 155.93L425.031 159.31L424.871 160.64L423.151 162.82L424.041 164.85L419.031 168.91L415.551 169.48L414.421 168.68L414.191 167.63L415.701 166.03L415.741 165.29L412.931 165.39L407.981 164.34L404.441 165.1L399.061 161.08L396.561 159.92L395.671 160.95L396.091 163.99L394.831 165.11L394.271 167.25L392.681 167.36L391.771 168.09L388.491 168.22L381.761 167.1L380.761 170.94L377.531 171.78L375.151 173.99L371.481 174.4L373.781 178.31L376.221 180.84L379.391 181.9L379.921 183.57L384.801 183.88L386.221 184.94L383.981 188.25L380.151 191.29L377.341 192L373.921 191.98L373.391 191.25L370.771 194.73L368.361 201.11L367.181 202.02L367.411 206.11L374.371 217.19L373.661 218.27L372.011 217.88L370.711 218.25L364.831 224.72L357.791 229.24L356.121 231.47L355.871 233.57L362.811 255.56L364.331 258.04L368.131 259.84L365.131 262.45L368.171 274.6L367.291 275.78L362.731 276.91L362.971 280.39L362.791 281.05L362.051 281.24L361.091 278.33L362.091 271.95L361.901 263.99L361.171 262.94L358.351 265.37L355.561 265.69L354.421 269.29L353.561 269.91L352.421 263.43L350.691 261.65L349.171 261.11L349.391 251.32L350.201 244.48L349.881 244.09L347.391 246.08L346.101 245.24L347.521 241.6L344.751 239.82L345.891 235.97L340.141 236.91L338.621 239.75L335.291 242.35L334.171 241.75L326.831 242.03L325.951 239.7L324.881 232.47L325.191 223.12L323.641 218.33L325.361 215.07L329.231 213.53L332.351 209.09L331.761 207.82L331.781 206.03L329.911 204.38L331.691 203.08L332.721 200.87L335.011 199.81L333.361 196.32L333.821 192.86L334.171 193.09L337.191 189.79L336.771 189.2L341.581 189.53L344.751 187.83L348.191 189.29L349.791 188.91L350.921 187.77L353.901 187.1L355.611 183.87L356.611 184.8L359.081 184.58L360.131 183.62L359.591 182.73L362.041 181.33L364.241 178.66H365.881L365.651 178.07L366.241 177.69L365.691 176.61L366.231 175.6L365.161 173.72L363.521 173.11L362.841 171.91L361.871 171.66L360.591 169.41L361.471 164.09L360.811 163.38L359.401 163.33L358.981 160.2L357.771 159.61L355.321 160L353.171 159.56L351.971 158.33L351.891 155.75L349.571 151.87L348.041 150.58L348.571 148.91L349.541 148.33L349.531 146.58L353.411 146.12L355.921 147.56L359.551 147.54L362.251 148.76L363.801 148.43L365.631 149.22L369.501 149.36L369.861 150.44L372.391 150.85L373.021 150.64L373.131 149.79L373.861 150.03L375.981 149.17L382.711 149.61L384.891 148.36L387.241 148.59L388.511 147.06L394.211 145.11L394.641 144.61L394.501 142.6L395.311 142.37L397.221 140.1L397.011 138.29L397.561 137.09L396.581 136.49L396.411 135.09L398.311 131.74V130.84L394.631 129.09L391.951 126.04L391.521 121.67L392.771 122.5L393.581 121.41L395.481 120.46L396.661 118.32L395.821 116.96L396.031 115.67L401.071 112.75L400.651 111.88L401.221 110.61L402.501 109.95L403.671 106.49L404.401 106.8L408.791 104.02L411.341 103.28L412.141 102.33Z" fill="#CCCCCC" stroke="white" stroke-width="0.5"/>
</svg>
