<svg width="801" height="863" viewBox="0 0 801 863" fill="none" xmlns="http://www.w3.org/2000/svg">
<path d="M595.25 862.09L598.31 861.42L600.01 858.82L601.31 855.52L603.17 852.82L605.02 850.73L606.13 848.59L606.5 846.2L606.13 843.28L606.65 840.95L608.84 839.73L611.58 838.98L613.73 838.01L617.2 834L619 832.62L621.41 831.24L623.85 831.42L626.2 831.87L626.24 831.88L632.6 834.38L634.7 834.81L636.48 834.75L637 834.73L639.3 834.38L641.52 834.34L643.44 835.09L644.87 837.09L646.3 841.11L647.12 842.19L648.27 842.86L650.83 843.57L656.57 846.74L660.11 843.92L663.51 839.86L666.18 837.79L668.55 837.39L670.57 836.23L672.11 834.39L673.03 831.95L673.11 830.47L672.88 829.59L672.8 828.87L674.07 826.7L674.26 825.58L674.08 824.44L673.67 823.18L671.38 818.81L671.45 817.19L673.97 816.55L675.53 815.73L676.08 813.8L676.48 811.61L677.57 809.92L679.46 809.71L682.08 809.98L684.42 809.76L685.42 808.06L685.65 803.13L686.23 800.96L687.36 798.92L688.97 797.15L690.65 796.03L692.56 795.45L697.01 794.87L701.65 792.29L703.94 792.33L705.97 793.14L707.73 794.1L709.2 794.55L712.97 794.75L715.17 794.37L716.7 793.09L717.02 790.77L715.71 786.57L716.37 784.76L722.54 778.54L724.45 777.82L729.11 777.41L730.68 776.69L732.03 775.04L732.97 773.46L733.66 771.59L734.91 766.7L735.94 764.58L737.52 763.07L739.79 762.48H744.02L744.73 762.88L745.17 763.43L745.69 763.69L746.67 763.21L748 761.48L748.77 759.12L749.12 756.5L749.21 754.07L748.91 752.1L748.41 750.59L748.31 749.1L749.21 747.18L750.64 745.44L753.31 743.23L756.23 739.89L757.07 738.44L757.51 736.72L758.42 730.24L758.71 729.65L758.84 729.07L760.3 725.73V720.95L760.07 718.87L760.18 718.36H760.12H759.94L754.52 717.92L753.47 717.67L752.9 717.01L752.71 716.32L752.69 715.65L752.8 714.91V714.39L752.71 713.94L752.48 713.62L752.1 713.25L751.62 712.9L749.79 711.96L748.4 711.44L746.6 711.07L745.12 711.1L744.36 711.33L743.56 711.76L742.28 712.87L741.73 713.23L741.2 713.45L740.48 713.47L739.74 713.23L738.86 712.51L738.63 711.96L738.69 711.24L739.1 709.72L739.16 709.17L739.09 708.69L738.93 708.39L738.63 708.26L738.21 708.24L737.61 708.49L737.16 708.84L736.63 709.48L735.93 710.5L734.5 713.13L734.1 713.64L733.45 714.27L732.8 714.68L732.22 714.93L730.93 715.24L727.79 715.54L727.16 716.21L726.79 716.7L726.51 717.45L726.33 717.7L726.1 717.9L725.73 718.16L725.15 718.09L724.39 717.73L722.93 716.62L721.93 716.03L718.87 715.24L716.46 714.21L715.53 713.94L714.75 713.8L712.87 713.7L705.82 714.06L703.84 712.16L700.62 701.89L699.39 701.64L699.02 701.43L698.65 701.28L698.32 701.39L698.12 701.72L697.96 702.56L697.97 703.26L697.87 703.9L697.66 704.62L697.51 705.49L697.6 710.55L697.34 711.46L696.76 712.4L695.99 713.31L692.05 717.17L684.05 723.51L682.33 724.48L675.88 726.94L673.9 727.3L672.6 727.4L671.26 727.09L669.58 727.06L667.6 727.28L663.58 728.47L657.99 730.88L656.98 732.11L656.18 734.23L655.53 735.05L653.74 736.56L649.31 741.29L647.8 742.32L646.13 743.1L639.54 744.31L634.77 745.86L633.35 746.94L631.25 750.15L630.79 751.19L629.91 753.79L628.99 755.2L627.88 756.48L626.51 757.64L625.71 758.55L625.12 759.54L624.24 762.84L623.52 763.63L622 764.28L619.09 764.73L613.3 766.63L605.14 771.06L594.12 775.39L592.5 775.43L591.01 775.06L589.6 774.14L586.63 771.66L586.01 771.3L578.85 769.72L582.68 808.53L582.48 812.22L581.6 814.01L576.77 814.63L576.08 814.9L575.19 815.45L572.73 818.24L571.92 818.99L570.99 819.51L570.05 820.61L569.19 822.28L567.91 826.66L567.63 828.95L567.8 830.71L568.39 831.63L569.05 832.42L572.39 835.61L572.85 836.22L573.21 837.05L573.18 837.62L572.86 838.27L572.58 838.73L572.19 839.57L572.1 840.19L572.6 847.7V847.73L574.98 847.03L581.26 847.95L581.3 847.96L585.13 852.79L586.93 855.69L589.38 858.55L592.25 860.85L595.2 862.06L595.25 862.09Z" fill="#CCCCCC" stroke="white" stroke-width="0.5"/>
<path d="M702.399 483.31V483.3L699.389 482.64L693.419 482.18L690.479 480.85L688.329 478.52L687.429 475.83L685.989 455.76L683.929 449.3L679.719 444.75L677.889 442.06L677.569 438.58L677.649 434.85L677.579 434.48L677.529 434.52L676.609 435.21L675.669 436.73L673.969 441.37L673.189 445.39L672.549 446.46L671.489 447.47L667.589 449.77L666.769 450.09L665.909 450.31L663.239 450.36L661.849 450.96L659.819 452.19L649.969 459.46L645.909 461.76L644.949 462.7L643.619 465.08L643.039 465.73L642.139 466.34L639.689 467.34L637.329 467.91L633.929 468.21L633.179 468.5L632.389 468.92L631.889 469.12L631.359 469.22L630.749 469.14L630.169 468.95L628.769 468.29L627.639 467.5L633.489 483.24L633.979 485.62L633.809 486.37L633.219 486.22L632.979 486.2L632.559 486.22L632.169 486.38L631.749 486.64L630.319 488.05L629.109 489.7L626.949 491.82L625.729 493.45L625.349 493.77L624.869 494L622.549 494.52L622.069 494.76L621.639 495.03L621.239 495.36L619.389 497.88L619.099 498.4L618.659 500L618.749 502.32L618.189 507.19V509.18L618.369 510.51L620.419 512.29L620.939 512.87L621.329 513.84L621.579 515.01L621.989 518.41L622.379 520.02L622.889 521.28L623.429 522.29L624.089 523.12L624.889 523.91L625.659 524.45L626.539 524.88L628.319 525.5L629.039 525.86L629.599 526.38L630.039 527.02L632.009 531.6L637.049 538.69L639.089 542.88L640.459 547.23L641.469 549.51L642.529 550.97L645.339 552.75L646.929 554.09L648.769 556.07L649.609 558.48L650.299 559.99L650.919 561.09L651.859 561.92L656.939 564.96L659.449 561.89L662.129 557.68L663.469 556.15L668.209 552.49L678.619 541.22L679.859 540.5L681.769 539.87L706.689 535.62L717.229 532L719.259 532.54L718.859 536.39L718.969 537.56L719.419 538.82L720.809 540.18L722.179 540.78L723.429 540.99L724.589 540.74L726.829 539.8L728.249 539.55L729.059 539.53L736.339 541.87L738.169 542.91L739.269 544.03L739.459 544.97L739.419 545.71L739.289 546.29L739.079 546.86L739.039 547.4L739.219 547.96L739.849 548.6L740.589 548.88L741.389 549.01L744.849 549.14L746.199 549.32L746.969 549.67L747.319 550L747.309 550.48L747.249 551.11L747.239 552.02L747.749 552.75L748.229 553.03L748.809 553L749.299 552.77L749.799 552.44L750.289 551.96L750.719 551.44L751.329 550.47L751.779 550L752.469 549.49L753.609 549.4L754.449 549.61L755.529 550.15L756.239 550.41L757.029 550.54L757.639 550.44L759.029 550.02L759.849 549.9L760.299 550.06L760.699 550.52L761.709 553.14L762.259 554.01L762.909 554.77L763.829 555.18L771.109 556.26L773.859 557.09L776.499 558.21L778.739 558.68L781.099 558.7L783.329 558.46L785.779 558.45L787.119 558.63L789.269 559.57L789.319 559.59L792.849 548.81L792.909 545.42L791.569 538.25L791.589 535.05L792.699 531.67L796.389 526.13L797.569 523.85L798.469 520.62L798.579 517.59L797.309 514.33L796.519 511.94L794.279 508.96L793.529 507.65L793.069 503.75L791.849 500.44L791.579 498.76L792.519 495.57L794.769 492.62L798.089 490.12L800.079 488.53L800.029 488.5L797.379 487.05L788.449 481.66L783.189 474.29L781.259 472.85L765.159 463.62L762.629 462.92L761.159 463.65L758.769 466.27L757.149 467.15L744.729 471.51L738.599 475L737.369 476.29L735.289 479.08L733.679 480.05L732.029 480.32L728.839 480.46L727.229 481.23L724.299 482.12L718.289 482.06L715.859 483.3V483.32H715.849H715.839L712.599 485.01L709.229 485.29L705.809 484.58L702.429 483.32L702.409 483.31H702.399Z" fill="#CCCCCC" stroke="white" stroke-width="0.5"/>
<path d="M687.54 694.16L686.83 694.03L686.08 693.73L684.8 693.04L680.87 691.44L680.42 691.1L679.87 690.27L679.54 689.13L679.87 686.23L679.88 685.24L679.25 683.1L679.22 682.07L679.54 680.9L679.25 679.86L678.78 679.21L678.29 678.35L678.3 677.24L678.92 675.35L680.8 671.15L681.09 670.75L683.07 669.06L683.67 668.31L684.08 667.32L685.57 662.66L685.9 661.2L686.03 658.82L686.6 657.39L687.32 656.3L689.73 654.09L690.29 653.26L690.47 652.55L690.34 651.77L689.92 651.06L688.68 649.42L688.3 648.43L688.13 647.55L688.11 646.76L687.89 646.12L687.41 645.61L686.1 645.25L685.22 645.18L681.81 646.15L680.25 648.62L680.05 649.92L680.08 650.41L679.87 651.18L679.42 651.89L678.52 652.94L678 653.7L677.1 654.46L676.03 655.09L671.36 656.91L668.94 656.14L668.38 657.29L668.11 657.74L667.38 659.21L666.14 662.59L665.55 663.65L664.68 664.55L663.53 664.87L662.65 664.8L661.8 664.51L660.9 664.45L659.94 664.71L658.53 665.95L657.84 666.88L656.84 668.96L656.36 669.55L655.11 670.26L646.59 673.78L645.32 674.55L642.98 676.37L641.92 676.87L638.51 677.59L637.38 678.09L635.59 679.68L634.38 680.43L631.26 681.31L630.07 681.87L629.22 682.96L628.75 683.96L626.76 692.13L626.46 693.01L626.37 693.19L626.21 693.43L623.85 695.03L618.5 697.72L616.73 697.53L612.96 695.06L610.35 692.91L609.91 692.61L609.12 692.21L607.99 692.23L606.61 692.6L601.93 694.68L601.04 694.73L600.37 694.55L599.76 694.17L599.13 694.15L598.35 694.55L597.59 695.87L597.25 697.09L597.09 698.35L596.72 699.53L595.94 700.34L594.38 700.91L589.74 701.12L588.38 701.54L587.38 702.36L586.36 704.11L585.74 705.91L585.09 710.59L584.3 711.47L582.96 712L580.56 711.7L577.5 711.69L576.78 715.08L576.32 716.03L573.04 719.82L572.33 721.06L571.36 725.04L571.02 728.86L570.78 729.81L570.32 730.62L568.36 732.04L568.01 732.59L567.83 733.25L567.89 734.26L568.12 735.21L568.02 736.24L567.58 737.36L566.32 738.67L565.74 739.52L565.37 740.75L565.26 741.95L564.84 743.28L564.02 744.53L562.19 746.13L561.05 746.88L559.73 748.01L558.77 750.4L561.53 752.14L562.09 752.84L562.92 754.14L563.68 755.65L565.43 758.51L567 759.97L571.03 762.7L572.44 763.35L573.82 763.64L576.82 763.69L578.44 764.18L579.26 765.06L579.45 765.99L579.24 766.9L578.81 768.04L578.69 768.57L578.66 768.81L578.85 769.72L586.01 771.3L586.63 771.66L589.6 774.14L591.01 775.06L592.5 775.43L594.12 775.39L605.14 771.06L613.3 766.63L619.09 764.73L622 764.28L623.52 763.63L624.24 762.84L625.12 759.54L625.71 758.55L626.51 757.64L627.88 756.48L628.99 755.2L629.91 753.79L630.79 751.19L631.25 750.15L633.35 746.94L634.77 745.86L639.54 744.31L646.13 743.1L647.8 742.32L649.31 741.29L653.74 736.56L655.53 735.05L656.18 734.23L656.98 732.11L657.99 730.88L663.58 728.47L667.6 727.28L669.58 727.06L671.26 727.09L672.6 727.4L673.9 727.3L675.88 726.94L682.33 724.48L684.05 723.51L692.05 717.17L695.99 713.31L696.76 712.4L697.34 711.46L697.6 710.55L697.51 705.49L697.66 704.62L697.87 703.9L697.97 703.26L697.96 702.56L698.12 701.72L698.32 701.39L698.65 701.28L699.02 701.43L699.39 701.64L700.62 701.89L705.58 698.94L706.37 698.17L706.8 697.18L706.78 696.3L706.18 695.52L705.57 695.15L704.85 694.96L703.03 694.82L702.27 694.54L701.67 694.06L701.16 693.5L700.84 693.06L700.44 692.61L699.87 692.18L699.3 692.08L696.29 693L694.61 693.32L691.89 693.5L689.6 693.41L688.8 693.54L687.54 694.16Z" fill="#CCCCCC" stroke="white" stroke-width="0.5"/>
<path d="M703.46 591.41L702.8 591.35L702.22 591.2L701.68 591L701.24 590.71L700.84 590.39L700.16 589.65L699.87 589.24L699.61 588.8L699.19 587.75L698.83 586.79L698.37 585.85L697.19 584.16L696.98 583.51L696.92 582.51L697.28 581.24L697.31 580.39L697.26 579.73L697.1 579.19L696.99 578.59L696.97 577.88L697.11 576.25L697.09 575.58L696.97 575.02L696.79 574.53L696.62 573.88L696.56 573.16L696.65 572.06L697.28 571.35L698.26 569.83L698.41 568.88L698.36 567.95L697.53 565.45L697.1 563.48L697.3 562.34L697.67 561.69L698.4 561.21L699.07 560.6L699.71 559.36L699.91 558.11L699.78 553.82L700.17 552.82L701.19 551.02L701.3 550.13L701.17 549.06L700.6 546.73L700.47 545.16L700.6 544.14L700.89 543.28L701.34 542.57L704.23 539.14L706.69 535.62L681.77 539.87L679.86 540.5L678.62 541.22L668.21 552.49L663.47 556.15L662.13 557.68L659.45 561.89L656.94 564.96L645.72 567.98L638.07 571.17L636.12 572.76L634.72 574.47L630.55 582.79L629.73 584L628.91 584.75L628.08 584.37L623.66 580.21L620.42 576.52L619.8 576L619.2 575.66L614.83 574L613.88 573.33L613.22 572.61L612.95 571.85L612.88 570.99L612.96 570.23L613.35 568.62L613.28 567.49L612.86 566.22L611.65 565.13L610.79 565.03L609.76 565.59L608.85 566.55L608.07 567.62L607.43 568.92L606.96 570.18L606.1 571.62L604.85 572.91L600.73 575.34L599.73 576.23L599.15 577.28L598.72 578.37L598.01 579.57L597.06 580.55L594.16 582.16L593.16 582.85L586.24 590.02L581.56 617.88L579.65 624.43L556.32 640.94L555.8 641.66L555.88 642.65L556.38 643.98L561.88 655.41L561.96 655.65L562.3 656.47L565.29 658.67L567.35 661.3L568.15 661.79L568.7 662.06L571.76 662.47L573.83 661.22L579.07 658.68L580.02 658.08L584.53 653.79L585.81 652.97L587.43 652.37L590.41 651.85L591.65 651.49L592.74 651.02L595.61 649.17L597.24 648.67L599.12 648.49L609.85 648.99L612.53 648.75L613.92 648.81L616.71 649.32L624.4 649.62L625.45 650.2L626.24 651.01L627.41 651.58L628.87 651.87L639.08 651.58L640.82 651.88L642.77 652.68L644.05 653.61L645.13 654.72L647.11 657.14L648.32 658.21L649.59 658.93L652.01 659.11L655.01 658.71L660.76 656.92L666.49 654.52L667.33 654.57L667.84 654.77L668.94 656.14L671.36 656.91L676.03 655.09L677.1 654.46L678 653.7L678.52 652.94L679.42 651.89L679.87 651.18L680.08 650.41L680.05 649.92L680.25 648.62L681.81 646.15L703.95 615.18L706.76 612.02L707.85 612.05L709.62 613.3L712.04 615.75L713.03 616.3L715.29 617.14L716.51 617.44L717.56 617.36L717.48 616.34L716.96 614.26L716.9 613.16L717.51 613.81L718.42 615.29L719.01 615.98L719.76 616.49L720.51 616.76L722.14 617.07L723.47 617.64L724.22 618.56L724.58 619.75L724.75 621.18L726.03 623.44L728.46 623.8L730.98 623.87L733.14 623.21L733.12 621.91L733.02 621.33L732.84 620.81L732.6 620.35L732 619.49L731.74 619.03L731.53 618.53L731.42 617.96L731.43 617.32L731.65 615.42L731.55 614.87L731.27 614.44L730.85 614.15L728.31 613.14L727.81 612.85L727.45 612.55L727.15 612.16L726.95 611.71L726.94 611.17L727.52 609.13L727.59 608.49L727.54 607.89L727.27 607.47L726.9 607.11L718.92 601.32L711.26 594.03L710.7 593.2L710.39 592.83L709.95 592.63L709.42 592.65L708.88 592.72H708.35L707.9 592.54L707.53 592.21L707.2 591.82L706.83 591.47L706.37 591.25L705.82 591.16L704.08 591.4L703.46 591.41Z" fill="#CCCCCC" stroke="white" stroke-width="0.5"/>
<path d="M723.43 540.99L722.18 540.78L720.81 540.18L719.42 538.82L718.97 537.56L718.86 536.39L719.26 532.54L717.23 532L706.69 535.62L704.23 539.14L701.34 542.57L700.89 543.28L700.6 544.14L700.47 545.16L700.6 546.73L701.17 549.06L701.3 550.13L701.19 551.02L700.17 552.82L699.78 553.82L699.91 558.11L699.71 559.36L699.07 560.6L698.4 561.21L697.67 561.69L697.3 562.34L697.1 563.48L697.53 565.45L698.36 567.95L698.41 568.88L698.26 569.83L697.28 571.35L696.65 572.06L696.56 573.16L696.62 573.88L696.79 574.53L696.97 575.02L697.09 575.58L697.11 576.25L696.97 577.88L696.99 578.59L697.1 579.19L697.26 579.73L697.31 580.39L697.28 581.24L696.92 582.51L696.98 583.51L697.19 584.16L698.37 585.85L698.83 586.79L699.19 587.75L699.61 588.8L699.87 589.24L700.16 589.65L700.84 590.39L701.24 590.71L701.68 591L702.22 591.2L702.8 591.35L703.46 591.41L704.08 591.4L705.82 591.16L706.37 591.25L706.83 591.47L707.2 591.82L707.53 592.21L707.9 592.54L708.35 592.72H708.88L709.42 592.65L709.95 592.63L710.39 592.83L710.7 593.2L711.26 594.03L718.92 601.32L726.9 607.11L727.27 607.47L727.54 607.89L727.59 608.49L727.52 609.13L726.94 611.17L726.95 611.71L727.15 612.16L727.45 612.55L727.81 612.85L728.31 613.14L730.85 614.15L731.27 614.44L731.55 614.87L731.65 615.42L731.43 617.32L731.42 617.96L731.53 618.53L731.74 619.03L732 619.49L732.6 620.35L732.84 620.81L733.02 621.33L733.12 621.91L733.14 623.21L730.98 623.87L728.46 623.8L726.03 623.44L724.75 621.18L724.58 619.75L724.22 618.56L723.47 617.64L722.14 617.07L720.51 616.76L719.76 616.49L719.01 615.98L718.42 615.29L717.51 613.81L716.9 613.16L716.96 614.26L717.48 616.34L717.56 617.36L716.51 617.44L715.29 617.14L713.03 616.3L712.04 615.75L709.62 613.3L707.85 612.05L706.76 612.02L703.95 615.18L681.81 646.15L685.22 645.18L686.1 645.25L687.41 645.61L687.89 646.12L688.11 646.76L688.13 647.55L688.3 648.43L688.68 649.42L689.92 651.06L690.34 651.77L690.47 652.55L690.29 653.26L689.73 654.09L687.32 656.3L686.6 657.39L686.03 658.82L685.9 661.2L685.57 662.66L684.08 667.32L683.67 668.31L683.07 669.06L681.09 670.75L680.8 671.15L678.92 675.35L678.3 677.24L678.29 678.35L678.78 679.21L679.25 679.86L679.54 680.9L679.22 682.07L679.25 683.1L679.88 685.24L679.87 686.23L679.54 689.13L679.87 690.27L680.42 691.1L680.87 691.44L684.8 693.04L686.08 693.73L686.83 694.03L687.54 694.16L688.8 693.54L689.6 693.41L691.89 693.5L694.61 693.32L696.29 693L699.3 692.08L699.87 692.18L700.44 692.61L700.84 693.06L701.16 693.5L701.67 694.06L702.27 694.54L703.03 694.82L704.85 694.96L705.57 695.15L706.18 695.52L706.78 696.3L706.8 697.18L706.37 698.17L705.58 698.94L700.62 701.89L703.84 712.16L705.82 714.06L712.87 713.7L714.75 713.8L715.53 713.94L716.46 714.21L718.87 715.24L721.93 716.03L722.93 716.62L724.39 717.73L725.15 718.09L725.73 718.16L726.1 717.9L726.33 717.7L726.51 717.45L726.79 716.7L727.16 716.21L727.79 715.54L730.93 715.24L732.22 714.93L732.8 714.68L733.45 714.27L734.1 713.64L734.5 713.13L735.93 710.5L736.63 709.48L737.16 708.84L737.61 708.49L738.21 708.24L738.63 708.26L738.93 708.39L739.09 708.69L739.16 709.17L739.1 709.72L738.69 711.24L738.63 711.96L738.86 712.51L739.74 713.23L740.48 713.47L741.2 713.45L741.73 713.23L742.28 712.87L743.56 711.76L744.36 711.33L745.12 711.1L746.6 711.07L748.4 711.44L749.79 711.96L751.62 712.9L752.1 713.25L752.48 713.62L752.71 713.94L752.8 714.39V714.91L752.69 715.65L752.71 716.32L752.9 717.01L753.47 717.67L754.52 717.92L759.94 718.36H760.12H760.18L760.24 718.08L761.01 716.68L762.1 715.11L762.71 713.92L762.37 712.55L760.65 710.47L760.29 708.86L762.25 702.09L762.31 699.72L761.28 696.32L760.81 693.11L760.5 692.01L760.43 690.95L761.01 689.81L761.79 689.44L764.1 689.3L764.9 689.02L765.74 687.43L765.66 685.45L764.9 680.69L765.4 678.96L766.43 677.29L767.35 675.41L767.5 673.08L766.87 671.8L764.72 669.14L764.26 667.71L763.98 665.62L762.25 660.11L762.28 657.33L763.15 656.32L766.5 656.51L767.94 655.56L767.66 653.43L766.14 650.04L766.33 648.19L766.36 647.95L766.91 645.42L767.16 642.9L766.5 640.91L765.54 638.99L765.17 636.66L765.23 634.4L765.42 633.21L766.55 629.5L768.67 625.59L771.38 623.1L773.15 620.75L775.52 617L777.62 610.13L778.77 608.26L781.98 605.27L782.84 603.43L782.54 601.44L780.12 597.4L779.35 595.37L779.26 593.61L779.45 591.64L780.3 588.03L784.67 569L785.39 567.28L788.11 563.28L789.32 559.59L789.27 559.57L787.12 558.63L785.78 558.45L783.33 558.46L781.1 558.7L778.74 558.68L776.5 558.21L773.86 557.09L771.11 556.26L763.83 555.18L762.91 554.77L762.26 554.01L761.71 553.14L760.7 550.52L760.3 550.06L759.85 549.9L759.03 550.02L757.64 550.44L757.03 550.54L756.24 550.41L755.53 550.15L754.45 549.61L753.61 549.4L752.47 549.49L751.78 550L751.33 550.47L750.72 551.44L750.29 551.96L749.8 552.44L749.3 552.77L748.81 553L748.23 553.03L747.75 552.75L747.24 552.02L747.25 551.11L747.31 550.48L747.32 550L746.97 549.67L746.2 549.32L744.85 549.14L741.39 549.01L740.59 548.88L739.85 548.6L739.22 547.96L739.04 547.4L739.08 546.86L739.29 546.29L739.42 545.71L739.46 544.97L739.27 544.03L738.17 542.91L736.34 541.87L729.06 539.53L728.25 539.55L726.83 539.8L724.59 540.74L723.43 540.99Z" fill="#CCCCCC" stroke="white" stroke-width="0.5"/>
<path d="M630.91 306.18L614.55 305.35L612.89 304.95L611.24 303.92L608.43 301.17L603.13 297.99L600.23 295.19L598 291.8L595.48 285.53L594.5 284.46L593.15 284.32L586.31 285.56L584.65 286.06L583.66 286.93L582.8 287.87L581.35 290.03L581.05 290.66L580.53 292.29L580.2 292.73L579.51 293.09L579.26 293.34L577.64 296.23L576.62 297.36L573.44 299.75L572.68 300.11L571.62 300.42L571.01 301.04L572.02 302.9L571.57 303.73L570.07 303.37L566.84 299.62L565.24 298.79L564.75 299.2L563.99 301.05L563.55 301.73L562.57 302.38L562.37 302.18L562.26 301.72L561.54 301.58L558.44 302.53L557.72 302.6L556.41 302.13L556.07 302.3L555.95 302.97L555.33 303.93L553.13 306.35L553.96 307.3L574.06 312.32L577.92 313.85L577.55 314.17L575.32 315.36L574.8 315.75L570.73 321.56L570.04 322.17L566.98 324.24L566.48 324.77L566.09 325.34L565.82 325.94L565.75 326.66L566.19 328.89L566.09 329.68L565.77 330.25L564.83 330.91L564.6 331.45L564.62 332.19L565.11 334.27L565.17 334.87L565.08 336.81L565.31 338.75L565.26 339.92L565.1 340.87L564.83 341.7L564.65 342.85L564.85 343.8L565.29 344.56L566.18 345.72L566.37 346.49L566.34 347.21L566.04 348.77L566.25 349.48L566.7 349.94L567.23 350.27L567.73 350.66L568.35 351.38L569.16 352.7L569.92 354.75L570.65 358.91L571.25 360.76L571.15 361.84L570.71 362.53L568.6 363.91L567.97 364.64L567.45 365.45L567.21 366.7L567.29 367.05L567.65 367.17L568.23 367.13L569.51 367.15L571.28 366.98L571.79 366.8L572.21 366.53L572.95 365.81L573.38 365.58L573.98 365.7L574.6 366.11L575.44 367.01L576.06 367.51L576.65 367.89L577.23 368.05L577.85 368.13L578.41 368.05L578.92 367.93L580.75 367.08L581.84 366.83L582.29 366.59L582.64 366.21L583.39 364.67L584.39 363.38L584.67 362.88L584.85 362.28L585.15 360.28L585.31 359.67L585.65 358.76L585.74 358.56L585.86 358.39L586.44 357.78L587.26 357.17L587.73 356.93L588.21 356.74L593.24 355.83L593.76 355.68L594.7 355.21L595.1 354.91L595.45 354.53L596.08 353.67L597.2 351.76L597.51 351.33L597.86 350.95L598.29 350.66L598.8 350.45L599.9 350.19L600.38 349.99L600.82 349.73L603.23 347.85L603.67 347.62L604.18 347.5L604.68 347.52L605.25 347.66L606.65 348.22L607.1 348.78L607.44 349.37L621.07 385.01L621.15 385.65L620.97 386.8L620.86 390.5L620.76 391.09L620.54 391.59L620.2 391.95L619.74 392.16L619.18 392.18L618.67 392.03L617.75 391.59L617.28 391.54L616.9 391.76L616.65 392.2L616.55 392.78L616.56 393.42L616.74 394.52L616.64 394.97L616.27 395.25L615.81 395.47L615.41 395.79L615.13 396.21L614.93 396.75L614.79 397.31L614.72 398.02L614.74 398.88L615.11 400.35L615.14 401.18L614.95 401.75L614.56 402.05L610.89 404.05L610.06 404.64L609.68 404.97L609.33 405.33L609.07 405.79L608.66 406.77L608.32 407.16L607.45 407.69L607.06 408.02L606.72 408.38L606.42 408.81L606.22 409.32L606.08 409.88L605.77 412.42L605.54 413.43L605.44 413.71L605.25 414.07L605.09 414.33L604.64 414.71L605.64 415.44L606.04 415.31L606.82 414.92L607.88 414.14L610.1 412.94L611.9 412.46L613.88 412.17L614.94 411.89L615.81 411.43L616.29 411.37L617.79 411.83L619.04 412.04L623.05 412.27L624.42 412.64L625.24 413.11L625.99 413.81L626.45 414.53L626.65 415.2L626.63 415.79L626.39 416.46L625.9 417.5L625.76 418.06L625.9 418.57L626.33 419.22L627.93 420.63L628.3 421.05L628.7 421.69L629 422.43L629.15 423L629.17 423.38L629.06 423.93L628.83 424.48L628.2 425.42L627.41 426.36L619.54 432.86L619.21 433.38L619.23 434.09L619.45 434.99L619.93 436.35L620.7 438.09L622.4 441.13L623.59 442.45L624.55 443.15L625.04 443.14L625.57 442.85L627.02 441.64L627.69 441.19L628.76 440.66L629.27 440.31L629.61 439.81L629.83 439.16L629.95 438.24L629.91 436.74L630.01 436.19L630.4 435.87L631.24 435.52L637.05 434.35L638.37 434.31L639.32 434.46L639.56 434.84L639.58 435.34L639.36 436.52L639.27 437.86L639.62 441.68L639.55 442.29L639.42 442.87L638.78 444.37L638.2 445.21L637.19 446.33L635.07 449.17L634.89 449.61L634.93 450.12L635.39 451.73L635.67 454.25L635.63 456.92L635.57 457.56L635.43 458.13L635.02 459.16L633.36 462.28L632.86 464.02L632.67 464.38L632.47 464.6L629.26 466.98L628.38 467.37L627.64 467.5L628.77 468.29L630.17 468.95L630.75 469.14L631.36 469.22L631.89 469.12L632.39 468.92L633.18 468.5L633.93 468.21L637.33 467.91L639.69 467.34L642.14 466.34L643.04 465.73L643.62 465.08L644.95 462.7L645.91 461.76L649.97 459.46L659.82 452.19L661.85 450.96L663.24 450.36L665.91 450.31L666.77 450.09L667.59 449.77L671.49 447.47L672.55 446.46L673.19 445.39L673.97 441.37L675.67 436.73L676.61 435.21L677.53 434.52L677.58 434.48L677 431.38L676.75 427.78L679.31 422.02L679.47 418.83L678.43 416.87L675.5 413.74L674.88 411.42L675.18 409.71L677.4 405L677.44 403.27L675.36 395.58L675 394.67L672.36 393.03L671.34 391.69L671.27 389.98L671.74 386.21L671.22 384.19L670.19 382.6L667.69 379.66L667.48 377.91L668.02 374.43V372.65L665.9 364.69L665.67 360.83L666.92 357.7L668.57 354.72L669.54 351.29L669.46 350.38L668.84 348.72L668.64 347.82L668.72 346.95L669.24 345.25L669.34 344.45L669.03 342.32L668.32 341.1L667.07 340.35L665.13 339.65L661.97 337.88L659.5 335.21L657.85 331.87L657.18 328.14L656.87 319.43L656.05 316.93L655.11 315.85L651.24 312.93L646.47 306.4L645.42 308.53L645.2 309.26L643.43 308.18L637.51 307.61L636.02 306.85L634.66 305.75L633.39 305.14L632.18 305.82L630.91 306.18Z" fill="#CCCCCC" stroke="white" stroke-width="0.5"/>
<path d="M538.159 644.56L537.369 644.49L535.679 644.13L533.479 643.38L532.349 643.17L529.799 643.04L528.339 642.01L527.479 641.19L522.809 632.43L518.919 634.86L516.159 637.35L515.529 638.15L507.519 651.11L504.429 654.72L501.039 658.03L499.909 659.64L498.869 661.76L497.689 665.4L497.319 668.52L497.459 670.87L499.679 678.1L499.859 679.97L499.489 682.27L496.949 687.15L494.769 689.96L490.309 694.24L492.959 709.67L492.839 710.77L492.429 711.52L479.799 724.22L476.119 731.39L475.009 733.04L472.979 734.62L471.109 736.78L474.349 738.45L475.929 740.68L476.579 741.14L477.669 741.76L478.239 742.49L478.739 743.5L479.409 745.38L479.749 746.13L480.369 746.87L482.779 748.28L483.429 748.98L484.019 749.91L484.739 750.76L486.009 751.45L492.919 752.98L494.189 753.65L494.839 754.54L495.799 755.51L497.149 756.22L499.679 756.9L501.219 757.99L503.279 758.93L505.809 759.17L514.189 757.31L519.089 755.58L520.329 754.75L520.969 753.71L521.109 752.48L521.119 750.86L521.259 749.45L521.799 748.47L522.609 747.84L524.009 747.29L524.679 746.73L525.049 746.29L525.199 745.8L525.509 745.27L526.019 744.6L527.039 744.11L527.509 743.52L527.869 742.75L528.129 741.77L528.669 740.48L529.559 739.11L530.659 737.94L532.149 736.76L532.729 736.45L533.449 736.14L534.449 735.87L535.419 735.75L536.309 735.78L537.149 735.94L537.839 736.18L543.489 739.16L545.509 740.55L548.659 743.18L550.429 744.29L552.219 744.51L553.329 744.19L554.519 744.58L555.359 744.99L558.769 750.4L559.729 748.01L561.049 746.88L562.189 746.13L564.019 744.53L564.839 743.28L565.259 741.95L565.369 740.75L565.739 739.52L566.319 738.67L567.579 737.36L568.019 736.24L568.119 735.21L567.889 734.26L567.829 733.25L568.009 732.59L568.359 732.04L570.319 730.62L570.779 729.81L571.019 728.86L571.359 725.04L572.329 721.06L573.039 719.82L576.319 716.03L576.779 715.08L577.499 711.69L571.149 699.92L570.589 698.54L570.189 697.01L569.679 692.98L569.599 692.75L569.559 692.18L569.669 691.52L570.209 690.8L570.839 690.44L574.909 689.43L575.849 688.92L576.309 687.84L576.299 686.26L575.389 683.32L574.579 681.74L572.319 678.8L571.619 677.59L570.959 675.98L569.989 672.68L569.439 669.46L569.319 667.62L569.499 665.87L570.169 663.97L571.759 662.47L568.699 662.06L568.149 661.79L567.349 661.3L565.289 658.67L562.299 656.47L558.329 654.9L557.629 654.78L556.629 654.74L555.579 655.26L554.679 655.87L553.999 656.43L553.399 656.83L552.719 657.18L552.019 657.38L551.359 657.44L548.439 657.23L547.659 656.98L546.979 656.56L546.709 655.87L546.779 655.46L547.119 655.06L548.309 654L549.459 652.71L549.739 652.18L549.849 651.69L549.829 651.22L549.699 650.81L549.119 649.55L548.859 648.76L548.349 646.09L548.009 645.19L547.449 644.45L546.219 644.16L545.239 644.13L538.159 644.56Z" fill="#CCCCCC" stroke="white" stroke-width="0.5"/>
<path d="M468.08 673.5L467.43 673.39L465.53 672.68L465.04 672.63L464.59 672.72L464.21 673.04L463.98 673.51L463.91 674.38L464.02 676.16L463.99 676.9L463.88 677.35L463.35 677.68L462.87 677.86L460.58 677.36L460.26 677.19L458.97 678.14L456.97 679.21L454.97 679.98L454.69 680.72L454.97 681.46L457.15 682.28L457.24 683.38L456.7 684.6L456.11 685.42L452.79 688.16L452.07 689.75L456.46 691.06L456.45 692.47L455.22 694.16L444.24 702.44L441.06 704.26L434.89 706.53L433.92 707.54L433.01 711.1L432.16 713.29L431.32 714.45L430.98 713.68L430.45 713.08L429.69 712.63L428.73 712.28L428.96 714.17L430.08 715.25L431.59 716.01L432.98 717.01L433.04 718.43L431.39 719.7L429.24 720.61L427.73 720.95L426.96 721.7L426.95 723.42L427.43 726.82L427.18 728.56L426.7 730.07L423.51 735.74L422.86 737.43L423.19 738.77L425.49 740.94L425.18 742.04L423.84 743.05L423.54 743.89L423.27 745.74L422.75 747.39L422.45 749L422.83 750.8L423.34 751.41L425.49 752.98L426.07 753.79L426.9 755.3L427.43 755.88L426.81 756.55L425.19 757.74L424.83 758.07L424.85 759.32L425.32 760.27L425.87 761.12L426.13 762.09L425.64 762.74L424.51 762.81L421.52 762.23L421.03 761.87L420.72 762L420.24 763.21L419.8 765.23L419.54 773.53L419.18 774.07L418.47 774.2L417.31 774.18L415.74 774.64L415.87 775.72L416.64 776.94L416.99 777.81L415.68 779.21L414.07 778.95L412.38 778.39L410.79 778.9L409.61 781.23L410.75 782.72L412.49 784.03L413.09 785.88L411.84 786.95L409.72 787.13L407.49 787.31L406.54 788.33L405.67 789.67L403.61 790.51L399.4 791.64L397.91 792.69L397.13 794.03L397.33 795.45L398.75 796.74L398 798.25L396.31 800.34L395.45 801.83L395.12 802.67L394.94 803.41L394.86 805.18L394.48 805.72L393.7 805.55L393.68 805.53L393.01 805.08L392.92 804.82V804.4L392.68 803.63L392.15 803.17L392.13 803.18L391.26 803.68L390.67 804.44L390.22 805.23L389.9 806.07L389.67 807L389.65 808.92L389.82 810.57L389.35 811.68L384.54 812.52L382.38 813.81L381.01 815.99L380.52 819.07L381.09 820.45L382.39 821.75L384.74 823.51L385.92 825.55L386.08 827.73L385.68 833.02L385.67 833.1L386.06 832.74L394.56 829.05L420.47 826.76L430.87 828.11L432.28 828.03L438.03 826.97L441.02 827.06H441.03L442.77 827.43L448.4 828.63L448.44 828.64L451.35 829.89L452.67 830.18L456.89 831.09L456.92 831.1L461 832.49L461.03 832.5L470.75 834.55L471.81 834.93L471.85 834.94L487.26 842.83L488.75 843.36L489.38 843.57L491.82 843.82L501.42 842.43L503.92 842.42L504.3 842.53L506.31 843.08L507.16 843.65L508.7 845.19L508.75 845.06L510.49 837.94L518.98 813.59L519.56 809.52L518.829 807.84L516.11 807.07L498.8 804.41L498.09 804.03L487.15 791.17L479.27 779.9L478.42 777.81L477.83 775.94L471.11 736.78L472.98 734.62L475.01 733.04L476.12 731.39L479.8 724.22L492.43 711.52L492.84 710.77L492.96 709.67L490.31 694.24L489.06 691.25L486.66 688.09L486.13 687.05L485.85 686.14L485.7 685.02L485.39 684.37L484.98 683.88L483.05 683.04L482.05 682.47L479.54 680.32L477.32 678.88L475.23 677.03L473.94 675.64L472.66 673.91L471.9 673.27L471.27 672.96L470.68 672.97L468.67 673.44L468.08 673.5Z" fill="#CCCCCC" stroke="white" stroke-width="0.5"/>
<path d="M552.219 744.51L550.429 744.29L548.659 743.18L545.509 740.55L543.489 739.16L537.839 736.18L537.149 735.94L536.309 735.78L535.419 735.75L534.449 735.87L533.449 736.14L532.729 736.45L532.149 736.76L530.659 737.94L529.559 739.11L528.669 740.48L528.129 741.77L527.869 742.75L527.509 743.52L527.039 744.11L526.019 744.6L525.509 745.27L525.199 745.8L525.049 746.29L524.679 746.73L524.009 747.29L522.609 747.84L521.799 748.47L521.259 749.45L521.119 750.86L521.109 752.48L520.969 753.71L520.329 754.75L519.089 755.58L514.189 757.31L505.809 759.17L503.279 758.93L501.219 757.99L499.679 756.9L497.149 756.22L495.799 755.51L494.839 754.54L494.189 753.65L492.919 752.98L486.009 751.45L484.739 750.76L484.019 749.91L483.429 748.98L482.779 748.28L480.369 746.87L479.749 746.13L479.409 745.38L478.739 743.5L478.239 742.49L477.669 741.76L476.579 741.14L475.929 740.68L474.349 738.45L471.109 736.78L477.829 775.94L478.419 777.81L479.269 779.9L487.149 791.17L498.089 804.03L498.799 804.41L516.109 807.07L518.829 807.84L519.559 809.52L518.979 813.59L510.489 837.94L508.749 845.06L508.699 845.19L509.379 845.87L510.379 846.42L511.279 846.67L515.599 847.86L515.639 847.87L516.599 848.35L519.129 850.52L520.009 851.08L521.029 851.4L521.059 851.41L523.289 851.46L524.099 851.59L527.819 851.77L530.939 851.06L540.339 845.84L543.799 844.43L547.269 844.06H547.279L550.609 845.43L556.489 851.36L559.909 853.48L559.939 853.5L563.449 852.82L568.309 848.99L572.599 847.73V847.7L572.099 840.19L572.189 839.57L572.579 838.73L572.859 838.27L573.179 837.62L573.209 837.05L572.849 836.22L572.389 835.61L569.049 832.42L568.389 831.63L567.799 830.71L567.629 828.95L567.909 826.66L569.189 822.28L570.049 820.61L570.989 819.51L571.919 818.99L572.729 818.24L575.189 815.45L576.079 814.9L576.769 814.63L581.599 814.01L582.479 812.22L582.679 808.53L578.849 769.72L578.659 768.81L578.689 768.57L578.809 768.04L579.239 766.9L579.449 765.99L579.259 765.06L578.439 764.18L576.819 763.69L573.819 763.64L572.439 763.35L571.029 762.7L566.999 759.97L565.429 758.51L563.679 755.65L562.919 754.14L562.089 752.84L561.529 752.14L558.769 750.4L555.359 744.99L554.519 744.58L553.329 744.19L552.219 744.51Z" fill="#CCCCCC" stroke="white" stroke-width="0.5"/>
<path d="M609.85 648.99L599.12 648.49L597.24 648.67L595.61 649.17L592.74 651.02L591.65 651.49L590.41 651.85L587.43 652.37L585.81 652.97L584.53 653.79L580.02 658.08L579.07 658.68L573.83 661.22L571.76 662.47L570.17 663.97L569.5 665.87L569.32 667.62L569.44 669.46L569.99 672.68L570.96 675.98L571.62 677.59L572.32 678.8L574.58 681.74L575.39 683.32L576.3 686.26L576.31 687.84L575.85 688.92L574.91 689.43L570.84 690.44L570.21 690.8L569.67 691.52L569.56 692.18L569.6 692.75L569.68 692.98L570.19 697.01L570.59 698.54L571.15 699.92L577.5 711.69L580.56 711.7L582.96 712L584.3 711.47L585.09 710.59L585.74 705.91L586.36 704.11L587.38 702.36L588.38 701.54L589.74 701.12L594.38 700.91L595.94 700.34L596.72 699.53L597.09 698.35L597.25 697.09L597.59 695.87L598.35 694.55L599.13 694.15L599.76 694.17L600.37 694.55L601.04 694.73L601.93 694.68L606.61 692.6L607.99 692.23L609.12 692.21L609.91 692.61L610.35 692.91L612.96 695.06L616.73 697.53L618.5 697.72L623.85 695.03L626.21 693.43L626.37 693.19L626.46 693.01L626.76 692.13L628.75 683.96L629.22 682.96L630.07 681.87L631.26 681.31L634.38 680.43L635.59 679.68L637.38 678.09L638.51 677.59L641.92 676.87L642.98 676.37L645.32 674.55L646.59 673.78L655.11 670.26L656.36 669.55L656.84 668.96L657.84 666.88L658.53 665.95L659.94 664.71L660.9 664.45L661.8 664.51L662.65 664.8L663.53 664.87L664.68 664.55L665.55 663.65L666.14 662.59L667.38 659.21L668.11 657.74L668.38 657.29L668.94 656.14L667.84 654.77L667.33 654.57L666.49 654.52L660.76 656.92L655.01 658.71L652.01 659.11L649.59 658.93L648.32 658.21L647.11 657.14L645.13 654.72L644.05 653.61L642.77 652.68L640.82 651.88L639.08 651.58L628.87 651.87L627.41 651.58L626.24 651.01L625.45 650.2L624.4 649.62L616.71 649.32L613.92 648.81L612.53 648.75L609.85 648.99Z" fill="#CCCCCC" stroke="white" stroke-width="0.5"/>
<path d="M492.2 599.54L489.53 598.97L488.39 599.19L487.92 600.62L487.58 603.28L486.7 606.17L485.46 608.9L484.02 611.08L482.72 612.35L485.03 614.66L486.45 617.27L486.93 621.2L485.98 625.39L483.61 628.01L481.38 630.12L483.17 631.53L484.44 632.96L485.13 634.35L485.24 636.07L483.99 645.21L483.49 647.08L482.36 648.27L481.08 648.6L480.04 649.35L479.59 651.8L478.95 652.45L477.46 652.5L474.67 652.13L474.48 652.62L473.99 654.97L473.63 655.79L472.74 656.39L471.81 656.49L470.81 656.41L469.74 656.51L467.71 657.36L466.53 658.5L464.55 661.56L465.12 662.43L465.88 663.03L466.78 663.44L467.8 663.72L466.78 665.06L465.18 666.73L463.34 668.14L461.6 668.76L460.17 669.64L460.51 671.67L461.95 675.25L460.91 676.71L460.26 677.19L460.58 677.36L462.87 677.86L463.35 677.68L463.88 677.35L463.99 676.9L464.02 676.16L463.91 674.38L463.98 673.51L464.21 673.04L464.59 672.72L465.04 672.63L465.53 672.68L467.43 673.39L468.08 673.5L468.67 673.44L470.68 672.97L471.27 672.96L471.9 673.27L472.66 673.91L473.94 675.64L475.23 677.03L477.32 678.88L479.54 680.32L482.05 682.47L483.05 683.04L484.98 683.88L485.39 684.37L485.7 685.02L485.85 686.14L486.13 687.05L486.66 688.09L489.06 691.25L490.31 694.24L494.77 689.96L496.95 687.15L499.49 682.27L499.86 679.97L499.68 678.1L497.46 670.87L497.32 668.52L497.69 665.4L498.87 661.76L499.91 659.64L501.04 658.03L504.43 654.72L507.52 651.11L515.53 638.15L516.16 637.35L518.92 634.86L522.81 632.43L520.87 629.24L519.8 628.05L519.2 627.98L518.78 628.1L518.28 628.44L517.62 629.06L517.26 629.33L516.68 629.48L516.02 629.49L515.35 629.22L514.74 628.73L513.79 627.43L510.49 621.38L509.9 619.36L509.64 617.78L509.12 616.43L507.93 614.61L505.05 611.45L502.14 606.43L501.22 605.52L497.4 603.05L497.09 602.75L494.93 599.54H492.2Z" fill="#CCCCCC" stroke="white" stroke-width="0.5"/>
<path d="M624.551 443.15L623.591 442.45L622.401 441.13L620.701 438.09L619.931 436.35L619.451 434.99L619.231 434.09L619.211 433.38L619.541 432.86L627.411 426.36L628.201 425.42L628.831 424.48L629.061 423.93L629.171 423.38L629.151 423L629.001 422.43L628.701 421.69L628.301 421.05L627.931 420.63L626.331 419.22L625.901 418.57L625.761 418.06L625.901 417.5L626.391 416.46L626.631 415.79L626.651 415.2L626.451 414.53L625.991 413.81L625.241 413.11L624.421 412.64L623.051 412.27L619.041 412.04L617.791 411.83L616.291 411.37L615.811 411.43L614.941 411.89L613.881 412.17L611.901 412.46L610.101 412.94L607.881 414.14L606.821 414.92L606.041 415.31L605.641 415.44L604.641 414.71L601.541 416L600.351 417.46L599.591 418.77L598.301 419.76L597.021 420.99L594.761 422.14L594.051 422.23L593.471 422.18L592.861 422.08L592.021 422.04L588.221 423.08L583.991 425.23L583.321 425.48H582.421L581.041 425.63L578.001 426.32L576.581 426.48L575.701 426.38L575.071 425.64L574.281 425.42L573.121 425.32L570.641 425.6H569.381L568.461 425.5L566.171 424.25L565.211 424.1L563.851 424.03L558.321 424.34L553.541 423.21L551.241 422.93L550.411 423.01L549.781 423.24L548.951 424.02L548.351 424.47L547.741 424.66L546.931 424.72L544.521 424.56L543.521 424.71L542.211 425.04L540.361 425.88L539.651 426.03L539.041 426L538.301 425.74L537.551 425.57L536.591 425.46L535.891 425.54L535.331 425.75L534.891 426.03L534.511 426.37L533.821 426.77L529.631 428.12L522.831 429.19L518.401 429.15L517.411 429.27L516.691 429.51L515.071 430.4L513.161 431.13L512.131 431.35L511.411 431.41L511.181 431.36L504.871 431.82L504.231 431.75L503.191 431.5L502.741 431.34L500.301 429.98L499.811 429.76L499.351 429.5L498.211 429.02L495.771 428.68L495.571 429.87L494.731 431.81L494.471 432.93L494.491 434.2L494.941 436.4L495.061 437.53L495.361 438.98L497.711 443.55L500.351 446.43L507.201 450.29L510.111 452.83L511.531 454.51L511.961 455.35L511.991 456.44L511.451 457.4L509.761 458.06L509.401 458.85L509.721 459.86L510.431 460.6L511.141 461.18L511.461 461.76L511.411 462.56L510.761 465.66L510.491 468.89L510.111 469.92L507.941 471.39L507.571 471.72L507.251 472.24L506.541 473.02L505.821 474.03L505.501 475.27L506.001 476.03L507.151 476.21L508.451 476.2L509.401 476.37L511.141 478.48L511.581 481.05L511.751 483.79L512.701 486.38L514.571 485.72L516.151 486.73L516.901 488.54L516.271 490.23L515.681 491.15L515.571 492.23L515.981 493.12L516.921 493.49L520.321 493.27L521.201 493.49L522.691 495.49L521.811 497.53L520.151 499.58L519.381 501.33L517.661 503.32L517.291 503.87L517.201 504.3L517.161 504.92L517.291 506.26L517.571 507.14L517.981 507.92L519.801 509.92L520.541 511.01L521.561 512.95L521.931 514.31L522.481 520.77L523.221 523.86L524.251 531.29L524.691 532.78L525.771 535.41L525.621 536.43L524.761 539.77L524.341 544.06L524.411 546.16L524.771 547.55L525.451 548.86L526.151 550.18L527.431 550.97L528.911 552.28L529.561 553.95L527.521 558.14L527.091 560.12L526.561 561.75L525.091 562.84L523.981 562.9L523.161 562.55L522.331 562.34L521.201 562.84L520.891 563.58L519.441 569.58L514.541 576.36L514.571 576.96L515.361 577.93L516.211 578.02L517.031 577.46L517.651 577.4L517.891 579.03L517.691 580.21L517.371 581.17L517.391 582.14L518.221 583.33L519.311 584.56L519.671 585.44L519.221 586.08L517.891 586.58L519.641 587.8L525.851 590.67L529.101 591.63L530.881 591.82L532.601 591.68L534.511 591L535.551 590.26L536.081 589.63L536.251 589.11L536.311 588.66L536.301 588.25L536.141 587.57L536.101 587.2L536.131 586.64L536.251 586.03L536.421 585.67L536.731 585.31L537.601 584.74L538.341 584.36L539.631 583.94L554.641 581.11L559.841 579.6L566.261 578.85L567.731 579.03L576.621 582.63L578.251 583.73L581.761 587.73L582.241 588.04L582.691 588.43L586.241 590.02L593.161 582.85L594.161 582.16L597.061 580.55L598.011 579.57L598.721 578.37L599.151 577.28L599.731 576.23L600.731 575.34L604.851 572.91L606.101 571.62L606.961 570.18L607.431 568.92L608.071 567.62L608.851 566.55L609.761 565.59L610.791 565.03L611.651 565.13L612.861 566.22L613.281 567.49L613.351 568.62L612.961 570.23L612.881 570.99L612.951 571.85L613.221 572.61L613.881 573.33L614.831 574L619.201 575.66L619.801 576L620.421 576.52L623.661 580.21L628.081 584.37L628.911 584.75L629.731 584L630.551 582.79L634.721 574.47L636.121 572.76L638.071 571.17L645.721 567.98L656.941 564.96L651.861 561.92L650.921 561.09L650.301 559.99L649.611 558.48L648.771 556.07L646.931 554.09L645.341 552.75L642.531 550.97L641.471 549.51L640.461 547.23L639.091 542.88L637.051 538.69L632.011 531.6L630.041 527.02L629.601 526.38L629.041 525.86L628.321 525.5L626.541 524.88L625.661 524.45L624.891 523.91L624.091 523.12L623.431 522.29L622.891 521.28L622.381 520.02L621.991 518.41L621.581 515.01L621.331 513.84L620.941 512.87L620.421 512.29L618.371 510.51L618.191 509.18V507.19L618.751 502.32L618.661 500L619.101 498.4L619.391 497.88L621.241 495.36L621.641 495.03L622.071 494.76L622.551 494.52L624.871 494L625.351 493.77L625.731 493.45L626.951 491.82L629.111 489.7L630.321 488.05L631.751 486.64L632.171 486.38L632.561 486.22L632.981 486.2L633.221 486.22L633.811 486.37L633.981 485.62L633.491 483.24L627.641 467.5L628.381 467.37L629.261 466.98L632.471 464.6L632.671 464.38L632.861 464.02L633.361 462.28L635.021 459.16L635.431 458.13L635.571 457.56L635.631 456.92L635.671 454.25L635.391 451.73L634.931 450.12L634.891 449.61L635.071 449.17L637.191 446.33L638.201 445.21L638.781 444.37L639.421 442.87L639.551 442.29L639.621 441.68L639.271 437.86L639.361 436.52L639.581 435.34L639.561 434.84L639.321 434.46L638.371 434.31L637.051 434.35L631.241 435.52L630.401 435.87L630.011 436.19L629.911 436.74L629.951 438.24L629.831 439.16L629.611 439.81L629.271 440.31L628.761 440.66L627.691 441.19L627.021 441.64L625.571 442.85L625.041 443.14L624.551 443.15Z" fill="#CCCCCC" stroke="white" stroke-width="0.5"/>
<path d="M333.54 293.33L332 293.2L329.75 292.61L326.16 291.14L315.5 285.2L318.85 295.36L319.12 296.76L318.8 297.35L317.37 298.62L311.47 302.28L309.2 303.36L308.69 303.41L308.06 303.22L307.28 302.75L306.54 302.21L305.65 301.35L304.92 300.81L303.93 300.31L302.64 300.62L301.29 301.12L291.52 307.03L290.26 308.25L289.46 309.38L288.95 310.53L288.76 311.11L288.61 312.17L288.64 312.94L288.85 313.76L290.09 316.21L290.23 316.86L290.12 317.64L289.44 318.99L288.39 319.63L286.96 319.94L281.49 319.96L279.94 320.21L278.54 320.94L277.95 321.79L277.78 322.96L278.36 327.73L278.38 328.16L278.18 329.73L277.6 331.03L259.21 358.51L258.31 360.54L257.98 362.21V364.86L257.76 366.22L256.87 369.49L256.69 370.67L257.04 375.88L256.82 380.6L257.51 385.5L257.3 387.22L256.8 389.34L254.21 396.39L254.24 397.07L254.44 397.79L255.22 399.65L255.5 400.8L255.2 402.56L254.16 405.57L249.87 414.32L248.68 418.03L247.8 422.09L246.93 431.31L246.87 431.37L246.13 431.88L236.67 436.99L234.42 437.87L231.09 438.52L200.31 440.24L199.01 440.51L197.72 441.05L194.75 442.69L191.35 444.15L184.52 445.26L183.21 445.69L181.62 446.51L180.78 447.4L180.24 448.31L179.58 452L179.22 453.19L177.97 455.39L177.69 456.05L177.62 456.75L178.08 470.08V470.09L183.64 469.96L184.54 470.26L186.48 471.95L187.41 472.19L191.78 471.96L192.87 472.05L193.92 472.42L195.57 473.34L196.44 473.54L196.54 474.13L198.07 477.45L198.62 477.64L202.02 477.8L203.75 478.65L206.88 480.9L212.75 482.06L216.14 481.92L217 482.06L218.03 482.71L219.89 484.39L220.9 484.97L221.79 485.13L224.79 484.97L232.24 486.11L239.36 485.88L241.63 485.36L246.09 483.76L248.06 483.56L249.77 483.99L284 506.74L287.64 510.5L289.32 512.79L290 513.43L290.95 513.77L293.34 514.09L294.95 515.08L296.71 515.43L297.47 515.98L298.5 517.13L299.52 517.92L301.68 519.19L303.75 520.1L304.34 520.62L304.66 521.34L304.9 522.29L305.24 523.11L307.54 524.17L311.24 527.44L312.13 528.45L314.07 532.16L315.63 534.1L318.76 535.26L319.99 536.74L320.89 537.08L322.33 537.3L323.03 537.85L323.55 538.55L324.46 539.28L328.41 540.64L331.13 542.58L333.37 543.37L336.92 545.72L338.8 546.41L340.6 546.43L341.18 546.55L342.11 547.14L344.01 549.04L344.94 549.72L347.96 550.47L366.18 564.34L368.15 564.85L373 564.97L374.35 565.38L375.05 565.92L375.79 566.26L376.38 566.7L376.62 567.54L377.12 568.03L398.11 572.15L400.26 573.24L401.42 574.4L403.68 577.57L409.79 584.44L410.38 585.46L410.67 586.29L411.17 586.88L412.38 587.24L413.46 587.07L414.66 586.45L415.8 585.62L418.48 582.81L420.06 581.63L421.81 581.57L430.39 587.51L431.32 589.1L432.51 589.03L439.12 592.39L440.06 592.47L442.18 592.2L443.07 592.39L443.72 593.27L444.08 594.46L444.66 595.53L445.99 595.97L453.53 595.99L455.41 596.69L456.76 597.89L460.95 602.82L462.38 603.89L465.36 605.36L466.5 606.73L469.57 613.58L471.41 616.19L474.3 618.18L476.34 615.62L477.42 614.64L478.83 613.82L481.53 612.96L482.72 612.35L484.02 611.08L485.46 608.9L486.7 606.17L487.58 603.28L487.92 600.62L488.39 599.19L489.53 598.97L492.2 599.54H494.93H498.04L498.74 599.1L500.52 597.12L501.31 596.68L502.25 596.48L503.38 595.98L504.52 595.29L505.5 594.52L510.11 588.37L511.05 585.9L513.29 585.64L515.88 586.31L517.89 586.58L519.22 586.08L519.67 585.44L519.31 584.56L518.22 583.33L517.39 582.14L517.37 581.17L517.69 580.21L517.89 579.03L517.65 577.4L517.03 577.46L516.21 578.02L515.36 577.93L514.57 576.96L514.54 576.36L519.44 569.58L520.89 563.58L521.2 562.84L522.33 562.34L523.16 562.55L523.98 562.9L525.09 562.84L526.56 561.75L527.09 560.12L527.52 558.14L529.56 553.95L528.91 552.28L527.43 550.97L526.15 550.18L525.45 548.86L524.77 547.55L524.41 546.16L524.34 544.06L524.76 539.77L525.62 536.43L525.77 535.41L524.69 532.78L524.25 531.29L523.22 523.86L522.48 520.77L521.93 514.31L521.56 512.95L520.54 511.01L519.8 509.92L517.98 507.92L517.57 507.14L517.29 506.26L517.16 504.92L517.2 504.3L517.29 503.87L517.66 503.32L519.38 501.33L520.15 499.58L521.81 497.53L522.69 495.49L521.2 493.49L520.32 493.27L516.92 493.49L515.98 493.12L515.57 492.23L515.68 491.15L516.27 490.23L516.9 488.54L516.15 486.73L514.57 485.72L512.7 486.38L511.75 483.79L511.58 481.05L511.14 478.48L509.4 476.37L508.45 476.2L507.15 476.21L506 476.03L505.5 475.27L505.82 474.03L506.54 473.02L507.25 472.24L507.57 471.72L507.94 471.39L510.11 469.92L510.49 468.89L510.76 465.66L511.41 462.56L511.46 461.76L511.14 461.18L510.43 460.6L509.72 459.86L509.4 458.85L509.76 458.06L511.45 457.4L511.99 456.44L511.96 455.35L511.53 454.51L510.11 452.83L507.2 450.29L500.35 446.43L497.71 443.55L495.36 438.98L495.06 437.53L494.94 436.4L494.49 434.2L494.47 432.93L494.73 431.81L495.57 429.87L495.77 428.68L496.15 427.67L496.12 426.91L495.77 425.85L495.14 422.76L495.06 421.93L494.76 421.37L493.46 420.33L492.82 419.17L491.15 417.62L490.57 416.59L490.3 415.11L490.51 414.41L491.07 413.74L491.87 412.35L492.35 411.27L492.53 410.66L492.52 408.43L492.17 407.82L490.6 406.25L489.59 405.45L487.27 402.4L486.43 401.62L485.81 401.17L482.24 399.44L480.33 398.19L478.8 396.67L478.18 394.98L478.23 392.81L478.09 391.07L477.35 389.8L475.58 388.98L471.81 388.96L470.3 388.39L469.68 386.45L468.79 385.25L464.56 383.19L463.14 381.8L465.2 377.69L464.7 375.53L463.46 373.88L460.27 370.9L460.13 369.88L461.06 368.95L462.31 368.02L463.14 366.99L463.23 365.76L462.86 364.81L461.9 363.47L461.28 361.67L460.99 361.14L460.27 360.3L459.38 359.9L457.21 360.02L456.35 359.6L455.76 358.46L455.28 356.04L454.76 355.02L453.96 354.51L451.78 353.92L450.86 353.49L448.8 350.32L449.84 347.24L453.02 345.02L457.35 344.41L461.47 345.11L463.58 345.06L464.49 344.05L464.06 341.84L463.02 340.13L460.6 337.31L459.22 334.13L458 322.49L457.47 320.12L424.66 305.52L423.31 304.62L422.54 303.58L421.87 298.69L420.52 297.68L418.09 297L373.43 293.93L368.48 294.49L348.19 292.77L333.54 293.33Z" fill="#CCCCCC" stroke="white" stroke-width="0.5"/>
<path d="M586.24 590.02L582.69 588.43L582.24 588.04L581.76 587.73L578.25 583.73L576.62 582.63L567.73 579.03L566.26 578.85L559.84 579.6L554.64 581.11L539.63 583.94L538.34 584.36L537.6 584.74L536.73 585.31L536.42 585.67L536.25 586.03L536.13 586.64L536.1 587.2L536.14 587.57L536.3 588.25L536.31 588.66L536.25 589.11L536.08 589.63L535.55 590.26L534.51 591L532.6 591.68L530.88 591.82L529.1 591.63L525.85 590.67L519.64 587.8L517.89 586.58L515.88 586.31L513.29 585.64L511.05 585.9L510.11 588.37L505.5 594.52L504.52 595.29L503.38 595.98L502.25 596.48L501.31 596.68L500.52 597.12L498.74 599.1L498.04 599.54H494.93L497.09 602.75L497.4 603.05L501.22 605.52L502.14 606.43L505.05 611.45L507.93 614.61L509.12 616.43L509.64 617.78L509.9 619.36L510.49 621.38L513.79 627.43L514.74 628.73L515.35 629.22L516.02 629.49L516.68 629.48L517.26 629.33L517.62 629.06L518.28 628.44L518.78 628.1L519.2 627.98L519.8 628.05L520.87 629.24L522.81 632.43L527.48 641.19L528.34 642.01L529.8 643.04L532.35 643.17L533.48 643.38L535.68 644.13L537.37 644.49L538.16 644.56L545.24 644.13L546.22 644.16L547.45 644.45L548.01 645.19L548.35 646.09L548.86 648.76L549.12 649.55L549.7 650.81L549.83 651.22L549.85 651.69L549.74 652.18L549.46 652.71L548.31 654L547.12 655.06L546.78 655.46L546.71 655.87L546.98 656.56L547.66 656.98L548.44 657.23L551.36 657.44L552.02 657.38L552.72 657.18L553.4 656.83L554 656.43L554.68 655.87L555.58 655.26L556.63 654.74L557.63 654.78L558.33 654.9L562.3 656.47L561.96 655.65L561.88 655.41L556.38 643.98L555.88 642.65L555.8 641.66L556.32 640.94L579.65 624.43L581.56 617.88L586.24 590.02Z" fill="#CCCCCC" stroke="white" stroke-width="0.5"/>
<path d="M452.03 289.91L448.82 288.83L447.63 287.55L446.79 285.92L445.69 285.01L445.67 285L445.66 285.01L444.9 285.95L445.57 290.24L446.26 291.9L445.28 298.3L445.61 300.73L446.37 303.04L447.28 304.31L448.75 304.84L451.16 304.94L452.93 305.35L453.82 306.43L454.76 309.85L459.16 315.41L459.59 316.58L457.82 318.22L457.22 318.98L457.47 320.12L458 322.49L459.22 334.13L460.6 337.31L463.02 340.13L464.06 341.84L464.49 344.05L463.58 345.06L461.47 345.11L457.35 344.41L453.02 345.02L449.84 347.24L448.8 350.32L450.86 353.49L451.78 353.92L453.96 354.51L454.76 355.02L455.28 356.04L455.76 358.46L456.35 359.6L457.21 360.02L459.38 359.9L460.27 360.3L460.99 361.14L461.28 361.67L461.9 363.47L462.86 364.81L463.23 365.76L463.14 366.99L462.31 368.02L461.06 368.95L460.13 369.88L460.27 370.9L463.46 373.88L464.7 375.53L465.2 377.69L463.14 381.8L464.56 383.19L468.79 385.25L469.68 386.45L470.3 388.39L471.81 388.96L475.58 388.98L477.35 389.8L478.09 391.07L478.23 392.81L478.18 394.98L478.8 396.67L480.33 398.19L482.24 399.44L485.81 401.17L486.43 401.62L487.27 402.4L489.59 405.45L490.6 406.25L492.17 407.82L492.52 408.43L492.53 410.66L492.35 411.27L491.87 412.35L491.07 413.74L490.51 414.41L490.3 415.11L490.57 416.59L491.15 417.62L492.82 419.17L493.46 420.33L494.76 421.37L495.06 421.93L495.14 422.76L495.77 425.85L496.12 426.91L496.15 427.67L495.77 428.68L498.21 429.02L499.35 429.5L499.81 429.76L500.3 429.98L502.74 431.34L503.19 431.5L504.23 431.75L504.87 431.82L511.18 431.36L511.41 431.41L512.13 431.35L513.16 431.13L515.07 430.4L516.69 429.51L517.41 429.27L518.4 429.15L522.83 429.19L529.63 428.12L533.82 426.77L534.51 426.37L534.89 426.03L535.33 425.75L535.89 425.54L536.59 425.46L537.55 425.57L538.3 425.74L539.04 426L539.65 426.03L540.36 425.88L542.21 425.04L543.52 424.71L544.52 424.56L546.93 424.72L547.74 424.66L548.35 424.47L548.95 424.02L549.78 423.24L550.41 423.01L551.24 422.93L553.54 423.21L558.32 424.34L563.85 424.03L565.21 424.1L566.17 424.25L568.46 425.5L569.38 425.6H570.64L573.12 425.32L574.28 425.42L575.07 425.64L575.7 426.38L576.58 426.48L578 426.32L581.04 425.63L582.42 425.48H583.32L583.99 425.23L588.22 423.08L592.02 422.04L592.86 422.08L593.47 422.18L594.05 422.23L594.76 422.14L597.02 420.99L598.3 419.76L599.59 418.77L600.35 417.46L601.54 416L604.64 414.71L605.09 414.33L605.25 414.07L605.44 413.71L605.54 413.43L605.77 412.42L606.08 409.88L606.22 409.32L606.42 408.81L606.72 408.38L607.06 408.02L607.45 407.69L608.32 407.16L608.66 406.77L609.07 405.79L609.33 405.33L609.68 404.97L610.06 404.64L610.89 404.05L614.56 402.05L614.95 401.75L615.14 401.18L615.11 400.35L614.74 398.88L614.72 398.02L614.79 397.31L614.93 396.75L615.13 396.21L615.41 395.79L615.81 395.47L616.27 395.25L616.64 394.97L616.74 394.52L616.56 393.42L616.55 392.78L616.65 392.2L616.9 391.76L617.28 391.54L617.75 391.59L618.67 392.03L619.18 392.18L619.74 392.16L620.2 391.95L620.54 391.59L620.76 391.09L620.86 390.5L620.97 386.8L621.15 385.65L621.07 385.01L607.44 349.37L607.1 348.78L606.65 348.22L605.25 347.66L604.68 347.52L604.18 347.5L603.67 347.62L603.23 347.85L600.82 349.73L600.38 349.99L599.9 350.19L598.8 350.45L598.29 350.66L597.86 350.95L597.51 351.33L597.2 351.76L596.08 353.67L595.45 354.53L595.1 354.91L594.7 355.21L593.76 355.68L593.24 355.83L588.21 356.74L587.73 356.93L587.26 357.17L586.44 357.78L585.86 358.39L585.74 358.56L585.65 358.76L585.31 359.67L585.15 360.28L584.85 362.28L584.67 362.88L584.39 363.38L583.39 364.67L582.64 366.21L582.29 366.59L581.84 366.83L580.75 367.08L578.92 367.93L578.41 368.05L577.85 368.13L577.23 368.05L576.65 367.89L576.06 367.51L575.44 367.01L574.6 366.11L573.98 365.7L573.38 365.58L572.95 365.81L572.21 366.53L571.79 366.8L571.28 366.98L569.51 367.15L568.23 367.13L567.65 367.17L567.29 367.05L567.21 366.7L567.45 365.45L567.97 364.64L568.6 363.91L570.71 362.53L571.15 361.84L571.25 360.76L570.65 358.91L569.92 354.75L569.16 352.7L568.35 351.38L567.73 350.66L567.23 350.27L566.7 349.94L566.25 349.48L566.04 348.77L566.34 347.21L566.37 346.49L566.18 345.72L565.29 344.56L564.85 343.8L564.65 342.85L564.83 341.7L565.1 340.87L565.26 339.92L565.31 338.75L565.08 336.81L565.17 334.87L565.11 334.27L564.62 332.19L564.6 331.45L564.83 330.91L565.77 330.25L566.09 329.68L566.19 328.89L565.75 326.66L565.82 325.94L566.09 325.34L566.48 324.77L566.98 324.24L570.04 322.17L570.73 321.56L574.8 315.75L575.32 315.36L577.55 314.17L577.92 313.85L574.06 312.32L553.96 307.3L553.13 306.35H553.12L551.87 306.77L549.64 306.44L549.43 305.14L548.45 302.57L547.34 301L546.29 303.66L545.32 303.61L543.64 302.75L542.74 302.71L541.94 302.83L541.47 302.43L541.55 300.79L540.49 301.49L539.47 301.45L537.12 300.68L535.56 300.81L532.53 300.56L531.38 300.87L530.65 301.17L530.1 301.11L529.56 300.95L527.87 300.65L527.42 300.22L527.29 299.78L527.25 299.55L526.38 299.11L523.53 298.03L521.99 297.79L521.27 297.96L520.73 298.32L520.12 298.6L519.22 298.53L518.56 297.97L518.27 296.39L517.86 295.99L516.56 296.31L514.19 298.29L512.36 298.62L508.11 297.58L506.64 297.45L506.52 297.76L506.35 298.41L505.87 298.95L504.79 298.97L503.33 298.14L502.53 297.95L502.19 298.58L501.58 298.57L498.46 296.57L497.09 296.04L496.05 295.97L494.08 295.19L493.27 295.18L489.59 296.05L487.36 294.58L486.63 294.28L485.45 294.15L484.95 294.29L484.57 294.58L483.73 294.92L481.46 295.26L479.8 294.84L478.56 293.62L477.44 291.51L475.96 287.41L475.09 287L474.41 287.18L473.68 287.6L472.62 287.89L470.69 287.81L469.42 287.43L468.18 287.32L466.29 288.03L465.91 288.04L464.99 287.7L464.63 287.74L464.45 288.09L464.27 288.69L464.24 289.23L464.47 289.4L463.32 289.98L462.58 290.12L461.61 289.88L460.63 289.85L459.11 291.16L457.96 291.43L457.5 291.08L456.15 289.59L455.34 289.11L454.69 289.21L453.05 289.91H452.03Z" fill="#CCCCCC" stroke="white" stroke-width="0.5"/>
<path d="M259.71 281.18L258.85 280.83L258.59 279.78L258.49 276.66L256.95 267.22V266.24L257.16 264.91L258.5 260.83L267.07 222.4L267.49 221.38L268.06 220.47L269.45 218.95L270.9 217.8L280.5 211.96L281.01 211.53L281.31 211.18L281.54 210.74L281.71 210.21L281.85 209.52L281.92 208.64L281.9 207.67L277.99 181.5L277.08 179.31L276.54 178.36L271.44 171.24L269.49 167.77L269.23 167.02L269.16 166.18L269.52 163.5L269.55 162.67L269.5 161.72L268.91 159.33L268.38 157.99L267.25 155.96L265.28 153.36L264.92 152.76L264.79 152.15L264.78 151.71L266.72 143.8L264.21 141.88L257.63 139.06L80.07 86.35L71.25 80.71L69.99 79.59L69.36 80.93L68.13 83.54L66.55 85.96L64.96 88.37L63.39 90.78L61.81 93.2L57.56 99.37L53.31 105.53L49.05 111.7L44.8 117.87L42.81 120.76L40.74 123.77L37.28 129.06L36.47 131.77L36.58 141.01L36.69 149.95L36.8 159.72L36.99 174.54V174.6L36.62 181.28L33.56 191.75L30.47 202.31L27.14 213.71L23.67 225.59L20.41 236.43L15.98 251.26L12.52 262.85L8.37 276.76L5.85 285.9L3.18 295.62L1 300.74L1.95 300.92L2.77 301.39L3.43 302.06L3.93 302.86H3.28L3.86 304.24L3.49 305.31L2.86 306.21L2.68 307.06L3.39 308L4.54 308.65L5.83 309.04L6.9 309.16L9.15 309.74L10.77 311.11L13.07 314.15L14.28 314.69L18.1 315.89L18.92 316.6L19.58 318.15L21.19 319.78L27.82 324.38L29.68 325.09L30.38 325.19L33.77 325.65L34.83 325.97L35.53 326.39L35.78 326.88L35.87 327.4L35.85 328.54L36.08 329.28L36.63 329.43L37.28 329.38L37.8 329.53L39.9 332L40.66 333.84L40.13 335.56L38.78 337.42L38.8 338.71L40.04 339.75L42.4 340.84L43.58 341.14L44.14 341.06L44.49 341.24L44.99 342.31L44.33 344.58L44.29 345.92L46.11 347.08L44.94 349.5L45.32 350.05L46.6 350.42L47.23 351.31L47.65 352.47L48.24 353.57L50.84 356.44L51.18 357.21L51.45 358.14L51.82 358.93L52.49 359.26L52.58 359.62L53.4 360.37L54.34 361L54.79 361.03L55.15 362.28L56.02 363.48L58.04 365.6L59.43 367.7L61.2 371.51L62.26 373.07L62.47 374.05L61.98 376.46L62.26 376.94L62.27 377.41L63.59 379.4L66.97 383.14L77.57 389.64L78.33 390.4L80.49 393.56L81.6 394.57L83.75 395.8L84.77 396.7L85.8 397.93L86.39 398.92L86.65 400.14L86.71 402.05L87.15 403.86L88.22 404.75L89.59 405.36L90.93 406.3L92.42 407.97L93.23 408.46L94.51 408.83H99L100.37 409.5L105.17 414.58L106.02 415.02L107.14 415.22L108.84 415.26L108.39 416.12L107.95 417.31L107.86 418.35L109.38 419.34L110.27 421.77L111.14 422.33L113.19 422.43L114.94 422.77L116.48 423.42L117.93 424.45L119.05 425.48L120 426.15L121.32 426.53L123.51 426.63L129.67 429.4L130.43 430.72L131 432.35L131.99 433.77L133.95 434.36L134.81 434.76L136.65 436.64L137.52 437.25L138.16 437.3L140.06 437.16L140.77 437.25L141.95 438.23L143.22 439.65L144.64 440.94L146.28 441.51L147.46 442.42L147.8 444.52L147.47 446.88L146.6 448.59L147.48 449.54L149.11 452.27L151.61 453.71L153.15 455.68L154.29 457.83L154.46 459.22L155.03 459.82L156.4 462.12L157.3 463.03L160.3 464.96L163.93 463.9L167.42 465.63L170.61 468.27L173.34 469.93L175.32 470.16L178.08 470.09V470.08L177.62 456.75L177.69 456.05L177.97 455.39L179.22 453.19L179.58 452L180.24 448.31L180.78 447.4L181.62 446.51L183.21 445.69L184.52 445.26L191.35 444.15L194.75 442.69L197.72 441.05L199.01 440.51L200.31 440.24L231.09 438.52L234.42 437.87L236.67 436.99L246.13 431.88L246.87 431.37L246.93 431.31L247.8 422.09L248.68 418.03L249.87 414.32L254.16 405.57L255.2 402.56L255.5 400.8L255.22 399.65L254.44 397.79L254.24 397.07L254.21 396.39L256.8 389.34L257.3 387.22L257.51 385.5L256.82 380.6L257.04 375.88L256.69 370.67L256.87 369.49L257.76 366.22L257.98 364.86V362.21L258.31 360.54L259.21 358.51L277.6 331.03L278.18 329.73L278.38 328.16L278.36 327.73L277.78 322.96L277.95 321.79L278.54 320.94L279.94 320.21L281.49 319.96L286.96 319.94L288.39 319.63L289.44 318.99L290.12 317.64L290.23 316.86L290.09 316.21L288.85 313.76L288.64 312.94L288.61 312.17L288.76 311.11L288.95 310.53L289.46 309.38L290.26 308.25L291.52 307.03L301.29 301.12L302.64 300.62L303.93 300.31L304.92 300.81L305.65 301.35L306.54 302.21L307.28 302.75L308.06 303.22L308.69 303.41L309.2 303.36L311.47 302.28L317.37 298.62L318.8 297.35L319.12 296.76L318.85 295.36L315.5 285.2L310.82 282.34L308.07 281.45L273.74 280.12L268.5 280.94L259.71 281.18Z" fill="#CCCCCC" stroke="white" stroke-width="0.5"/>
<path d="M339.53 1L331.81 1.1L313.91 1.34L295.99 1.57L278.09 1.81L260.17 2.04L252.37 2.15L238.05 5.26L205.87 12.26L173.69 19.26L141.52 26.27L109.34 33.28L107.3 33.59L102.81 34.28L98.3202 34.97L96.2802 35.28L87.8102 36.58L86.3002 37.21L85.5402 38.41L83.7402 43.38L81.0702 50.79L78.4002 58.22L75.7202 65.66L73.0502 73.09L71.8102 75.71L70.5902 78.32L69.9902 79.59L71.2502 80.71L80.0702 86.35L257.63 139.06L264.21 141.88L266.72 143.8L264.78 151.71L264.79 152.15L264.92 152.76L265.28 153.36L267.25 155.96L268.38 157.99L268.91 159.33L269.5 161.72L269.55 162.67L269.52 163.5L269.16 166.18L269.23 167.02L269.49 167.77L271.44 171.24L276.54 178.36L277.08 179.31L277.99 181.5L281.9 207.67L281.92 208.64L281.85 209.52L281.71 210.21L281.54 210.74L281.31 211.18L281.01 211.53L280.5 211.96L270.9 217.8L269.45 218.95L268.06 220.47L267.49 221.38L267.07 222.4L258.5 260.83L257.16 264.91L256.95 266.24V267.22L258.49 276.66L258.59 279.78L258.85 280.83L259.71 281.18L268.5 280.94L273.74 280.12L308.07 281.45L310.82 282.34L315.5 285.2L326.16 291.14L329.75 292.61L332 293.2L333.54 293.33L348.19 292.77L368.48 294.49L373.43 293.93L418.09 297L420.52 297.68L421.87 298.69L422.54 303.58L423.31 304.62L424.66 305.52L457.47 320.12L457.22 318.98L457.82 318.22L459.59 316.58L459.16 315.41L454.76 309.85L453.82 306.43L452.93 305.35L451.16 304.94L448.75 304.84L447.28 304.31L446.37 303.04L445.61 300.73L445.28 298.3L446.26 291.9L445.57 290.24L444.9 285.95L445.66 285.01L445.67 285L444.42 284.32L444.25 283.26L444.22 281.71L444.37 280.3L446.46 274.29L446.67 273.3L447.56 272.4L449.78 268.21L450.21 266.94L449.51 264.58L448.19 262.9L447.31 261.43L447.97 259.66L449.23 257.42L449.32 255.47L448.97 253.59L448.91 251.62L453.04 244.77L452.51 243.8L451.5 243.2L450.31 241.73L449.31 239.89L448.91 238.15L449.57 236.41L450.78 234.09L451.47 232.05L450.57 231.17L448.84 230.43L448.05 228.62L447.95 226.35L448.32 224.2L449.78 220.71L456.11 210.89L456.85 208.22L455.82 207.22L454.3 206.75L453.51 205.69L453.23 205.12L452.63 204.58L452.15 203.8L452.21 202.52L452.71 201.73L455.41 199.74L457.58 196.54L458.9 192.22L459.29 187.44L458.7 182.9L457.21 179.8L457.14 178.35L459.72 174.35L460.61 172L460.46 169.78L458.7 168.24L458.3 170.02H457.66L455.48 167.65L453.28 165.83H452.8L452.51 165.58L451.86 165.39L451.21 164.9L450.92 163.75L451.8 162.45L455.72 160.26L456.7 159.21L456.46 157.37L455.41 155.82L453.8 154.75L451.86 154.35L449.39 154.12L448.78 153.5L449.48 152.58L450.92 151.51L451.99 150.3L452.74 149.74L454.81 149.31L455.92 148.8L456.65 148.03L456.4 147.06L455.57 146.24L454.11 145.2L453.51 144.63L453.15 143.98L452.6 142.48L452.21 141.85L450.9 140.91L449.39 140.67L448.14 141.45L447.26 144.99L446.44 145.1L445.55 144.39L444.96 143.24L444.91 142.07L445.63 140.11L445.67 139.02L445.22 137.9L443.97 135.91L443.72 134.51L443.82 132.3L443.75 131.16L442.66 128.72L442.27 126.28L442.16 123.68L442.36 121.62L443.86 118.69L444.12 116.88L442.72 116.07L440.91 115.62L438.78 114.47L436.73 112.87L435.23 111.11L434.48 109.41L433.82 106.89L433.61 104.31L434.53 101.53L434.08 100.56L433.31 99.78L432.68 99.4L431.7 99.46L431.11 100.04L430.67 100.63L430.09 100.78L428.25 99.5L427.65 97.62L428.35 95.92L431.84 94.71L431.66 93.64L430.76 92.49L430.09 91.79L429.42 91.58L428.63 91.69L428.06 91.34L428.02 89.72L427.95 87.08L429.35 81.72L429.51 79.61L429.38 75.34L429.63 73.09L429.31 69.92L427.69 64.13L427.5 60.89L427.79 57.55L427.48 56.11L426.45 54.94L422.73 52.61L413.85 47.09L404.99 41.56L396.12 36.04L387.26 30.51L378.39 24.99L369.52 19.48L360.65 13.96L351.78 8.43L346.99 5.46L344.27 3.51L341.42 1.48L339.53 1Z" fill="#CCCCCC" stroke="white" stroke-width="0.5"/>
<path d="M481.38 630.12L483.61 628.01L485.98 625.39L486.93 621.2L486.45 617.27L485.03 614.66L482.72 612.35L481.53 612.96L478.83 613.82L477.42 614.64L476.34 615.62L474.3 618.18L474.35 618.21L477.23 625.61L477.26 626.88L481.38 630.12Z" fill="#CCCCCC" stroke="white" stroke-width="0.5"/>
</svg>
