<svg width="545" height="794" viewBox="0 0 545 794" fill="none" xmlns="http://www.w3.org/2000/svg">
<path d="M155.144 294.955L153.854 295.237L150.994 296.282L148.389 296.877V295.09L147.718 290.621L146.601 289.057L145.274 287.73L145.267 287.351L140.024 276.709L138.277 274.054L134.184 271.594L132.687 271.167L131.272 270.382L130.526 269.283L130.1 268.317L129.537 266.85L128.593 264.548L126.275 260.668L122.173 257.612L121.48 257.19L121.636 254.226L119.011 251.975L116.76 250.1V246.349L118.26 242.974L119.386 239.973L119.761 236.973L121.261 233.222L123.136 230.596V226.846L121.261 225.72L119.622 225.252L119.533 224.702L117.51 224.595L114.51 221.595V217.844V214.093L116.01 211.092L117.51 208.467L118.754 203.907L118.361 203.308L117.993 202.498L117.827 201.251L116.393 196.382L115.403 194.045L116.487 193.605L117.205 192.772L117.91 189.316L117.801 186.936L117.063 184.703L116.962 183.646L116.98 182.235L117.518 181.962L118.284 181.018L121.61 173.241L121.847 172.285L121.954 171.175L121.959 169.61L122.037 168.27L122.582 166.287L122.973 165.472L125.748 162.06L127.698 160.078L127.989 159.682L128.617 158.389L129.079 156.914L129.768 153.621L129.999 151.027L129.845 149.62L129.963 148.711L130.633 146.092L130.894 145.171L131.605 144.416L132.803 144.015L133.74 144.109L134.51 144.735L134.872 145.885L134.747 148.652L135.127 148.776L137.925 146.752L138.388 145.891L137.934 144.242L136.983 143.363L136.46 142.009L137.113 140.895L138.162 140.039L139.633 139.189L140.7 138.417L142.799 135.839L144.198 133.33L148.854 128.395L151.662 126.096L153.769 125.346L155.332 132.17L155.51 136.452L155.616 137.792L156.038 139.095L157.703 141.797L159.138 144.682L159.482 145.773L161.302 153.945L161.059 155.745L160.94 157.433L161.035 158.495L161.296 159.404L161.877 160.561L163.501 162.65L163.976 163.358L164.332 164.149L164.545 165.106L164.924 171.358L164.509 172.214L163.881 179.654L163.816 181.886L164.094 182.831L164.332 184.249L163.976 186.67L163.679 187.911L160.946 193.665L159.903 195.313L159.102 195.957L158.213 196.902L157.443 197.907L156.671 199.089L155.924 200.92L155.332 202.989L155.095 205.459L155.177 206.759L155.52 208.746L152.767 211.843V214.843L156.893 218.219L157.183 218.364L157.621 220.748L158.036 221.99L160.608 227.538L161.035 228.094L160.501 228.354L159.435 229.241L158.474 230.513L157.976 231.371L157.739 232.614L157.354 241.573L157.94 243.111L158.569 244.473L163.003 252.939L164.77 254.916L165.898 255.404L167.088 255.704L169.023 256.098L170.895 256.534L172.556 256.944L176.382 258.291L178.475 260.482L179.535 262.203L180.059 263.435L180.873 265.414L181.561 268.192L180.642 269.935L179.094 271.203L177.517 272.181L176.509 272.939L175.679 273.947L174.997 275.304L174.642 276.514L174.221 278.191L173.77 279.163L173.396 279.377V281.231L171.146 283.856L168.895 284.981L165.895 282.731L161.394 282.356L159.143 282.731L156.874 284.651L156.316 288.906L155.628 290.383L154.905 292.448L154.834 294.038L155.144 294.955Z" fill="#CCCCCC" stroke="white" stroke-width="0.5"/>
<path d="M172.644 357.712L174.457 361.01L177.348 360.368L176.987 362.677V366.224L179.937 368.039L179.787 373.602L180.161 374.272L182.45 378.165L183.64 379.669L188.427 381.892L192.672 384.796L198.258 387.924L201.609 390.159L201.386 393.733L200.045 395.297L197.811 395.744L194.655 395.962L194.425 396.281L192.753 400.03L190.268 405.658L188.204 406.021L187.757 408.256L187.086 411.831L188.445 411.616L190.661 412.725L193.342 414.289L195.354 417.641L196.023 420.769L196.247 425.907L194.683 427.918L192.896 429.705L193.789 432.61L193.119 435.291L192.449 436.855L191.278 437.756V437.998L189.517 438.543L183.001 441.183L182.183 441.872L181.566 443.223L181.5 444.711L181.234 445.962L180.73 446.987L179.924 447.981L178.021 449.977L170.29 456.659L166.934 457.894L163.235 457.918L162.488 453.386L162.995 451.498L162.731 450.521L159.837 448.568L159.216 445.85L159.605 444.451L160.722 442.888L162.733 441.547L162.956 438.643L160.945 437.749L158.264 438.195L156.924 439.76L155.136 441.323L155.151 441.423L154.899 441.51L154.655 443.968L154.206 447.813L153.464 449.668L150.168 452.045L150.145 451.624L149.273 449.515L148.093 448.017L145.312 443.92L142.704 439.513L138.126 429.446L135.471 422.651L134.747 420.152L135.21 418.084L135.157 416.858L131.199 411.925L129.542 409.251L128.534 405.147L128.368 401.021L126.898 398.228L124.953 396.818L123.744 392.82L123.447 390.051L121.136 387.653L118.358 385.625L117.333 381.211H117.649L119.051 380.909L120.119 378.347L119.843 376.842L120.015 375.232L121.135 373.354L122.179 372.306L123.027 371.978L128.997 370.029L134.813 367.991L136.058 365.654L136.028 364.656L139.146 356.128L140.691 352.765L143.451 350.307L144.104 349.748L145.538 348.831L146.392 348.51L147.915 347.498L151.348 342.524L159.613 340.93L160.561 341.049L160.774 342.31L161.688 345.035L162.066 345.82L162.968 346.737L165.103 348.748L166.62 349.509L167.486 349.867L172.644 357.712Z" fill="#CCCCCC" stroke="white" stroke-width="0.5"/>
<path d="M366.827 629.27L364.378 628.78L361.039 628.49L357.954 626.705L357.291 627.486L356.335 626.77L353.43 627.216L348.738 629.004L344.939 629.227L340.024 631.238L338.236 633.249L335.92 634.468L335.707 634.256L335.304 633.457L334.663 630.549L333.769 629.004L334.215 624.981L333.545 621.184L331.757 617.832L333.545 614.928L334.662 613.14L336.003 610.683V608.65L335.363 607.693L333.431 605.111L332.683 603.435L332.185 601.776L329.624 594.606L327.193 589.819L327.556 588.775L329.067 588.551L329.639 587.869L327.38 584.282L326.055 583.772L325.178 583.434L324.425 581.797L324.039 580.646L322.996 573.557L322.854 572.503L322.723 571.153L323.571 567.199L324.691 564.694L325.527 564.38L326.672 565.033L327.564 566.673L338.345 574.563L338.744 574.636L341.477 574.264L345.274 573.146L345.971 570.662L346.64 571.51L348.957 573.226L353.877 573.37L358.767 573.502L360.156 572.939L363.174 572.794L367.333 574.322L368.824 575.107L375.417 579.385L384.689 584.067L389.931 585.896L392.432 587.496L394.875 589.886L395.349 590.626L396.5 592.794L398.041 595.76L398.325 596.67L398.468 597.726L398.366 603.313L398.041 604.965L396.908 608.66L396.191 610.009L395.243 610.568L394.531 611.072L391.442 614.331L390.98 615.104L390.701 616.356L390.072 617.232L387.784 618.279L385.259 619.483L381.829 621.285L380.629 622.66L380.22 623.731L380.498 624.639L381.191 625.893L381.251 627.604L381.037 628.639L378.583 629.162L375.606 629.698L371.878 629.297L370.348 628.365L368.996 627.896L368.065 627.987L366.827 629.27Z" fill="#CCCCCC" stroke="white" stroke-width="0.5"/>
<path d="M428.658 738.505L426.548 739.473L423.834 741.373L419.547 742.634L416.157 741.206L415.209 740.923L412.589 740.454L410.104 739.997L408.818 739.43L406.529 737.733L405.623 736.057L404.946 735.249L402.807 733.758L401.135 732.969L399.824 732.438L396.392 730.282L391.85 726.857L389.067 724.087L387.12 721.415L386.218 720.492L382.229 718.19L380.734 717.496L377.041 716.407L375.54 716.05L374.029 716.001L373.151 715.952L371.775 715.841L370.6 715.699L367.946 714.869L366.909 714.003L365.509 712.576L364.104 711.524L363.138 710.935L361.839 710.529L358.093 709.054L349.069 705.146L345.693 702.216L341.729 700.222L339.726 699.461L333.311 697.288L331.816 696.932L323.406 693.917L317.908 689.474L316.438 688.198L314.434 685.452L309.08 682.554L305.446 681.457L301.717 680.511L299.576 679.473L298.521 678.873L297.537 677.948L297.134 676.619L295.821 674.752L294.324 673.95L289.26 671.895L286.581 670.683L281.969 668.175L279.621 666.842L274.7 664.579L271.534 663.424L270.407 662.317L269.411 661.27L270.403 658.72L271.744 654.698L275.095 650.453L279.117 648.219L281.053 647.25L284.974 646.646L285.067 646.939L285.397 646.807L285.662 648.062L286.48 648.916L288.158 649.38L289.26 649.539L292.734 650.357L296.381 651.315L297.667 655.229L298.761 658.733L303.637 663.559L304.889 664.322L306.252 664.641L307.539 664.658L308.487 664.396L309.726 663.589L310.734 662.782L311.719 662.596L312.371 665.264L312.607 668.48L313.031 669.664L314.48 669.631L316.026 668.745L316.34 665.087L318.127 661.289L319.244 658.831L323.266 656.82L325.724 655.703L325.5 658.161L326.617 661.289L328.423 662.305L334.165 661.605L336.548 660.483L337.532 659.922L339.357 659.036L340.348 659.127L342.021 660.066L344.045 659.166L345.162 656.932L346.949 654.698L350.748 653.804L352.759 650.899L355.439 647.324L356.78 644.196L356.334 641.292L356.11 637.94L357.004 635.036L358.345 632.802L359.908 632.132L362.366 631.461L363.064 628.666L364.377 628.78L366.826 629.27L368.064 627.987L368.995 627.896L370.347 628.365L371.877 629.297L375.605 629.698L378.582 629.162L381.036 628.639L380.714 630.545L381.273 631.77L382.91 633.805L383.864 634.95L384.582 635.438L387.09 636.029L388.198 636.011L392.758 635.108L397.139 636.84L397.889 637.748L399.013 637.699L400.079 636.047L400.832 633.598L400.755 631.854L400.18 630.874L399.735 629.875L400.376 628.56L401.567 628.486L402.504 629.06L405.96 633.415L408.45 636.864L408.237 643.406L407.68 644.364L407.84 645.417L409.174 646.231L410.063 646.549L416.027 648.147L420.13 646.231L422.655 644.719L422.742 643.73L427.197 644.969L428.757 646.286L430.078 647.672L431.027 648.233L431.94 648.044L432.924 646.902L433.588 646.341L434.625 646.079L435.316 646.33L435.65 649.447L435.204 657.268L437.885 660.396L440.566 661.065L443.416 660.709L443.358 663.173L443.878 667.637L445.114 669.313L445.979 670.255L447.035 671.025L447.871 671.698L448.439 672.365L448.748 673.266L448.558 674.238L447.446 676.022L447.13 677.755L449.379 681.503L451.036 682.744L451.528 683.742L451.291 685.011L450.874 686.442L450.586 688.333L450.574 690.491L450.663 692.687L450.604 694.49L450.521 695.668L450.183 697.92L449.536 698.982L448.434 700.308L447.485 701.192L446.549 702.076L446.039 703.114V704.231L446.408 705.336L444.812 705.975L441.906 705.081L438.555 702.623L436.768 701.729H434.757L433.863 703.294L434.757 704.634L436.321 706.198L437.438 706.868L437.924 707.901L435.385 709.109L431.259 714.743L431.673 717.385L431.259 719.707L430.232 720.196L428.774 720.72L426.012 723.016L425.501 723.742L425.234 724.671L425.265 725.786L425.62 727.227L427.055 730.338L427.85 731.096L429.877 733.868L428.658 738.505Z" fill="#CCCCCC" stroke="white" stroke-width="0.5"/>
<path d="M328.423 662.305L326.617 661.289L325.5 658.161L325.724 655.703L323.266 656.82L319.244 658.831L318.127 661.289L316.34 665.087L316.026 668.745L314.48 669.631L313.031 669.664L312.607 668.48L312.371 665.264L311.719 662.596L310.734 662.782L309.726 663.589L308.487 664.396L307.539 664.658L306.252 664.641L304.889 664.322L303.637 663.559L298.761 658.733L297.667 655.229L296.381 651.315L292.734 650.357L289.26 649.539L288.158 649.38L286.48 648.916L285.662 648.062L285.397 646.807L286.415 644.841L286.794 643.364L286.937 642.278V640.181L286.777 638.864L286.668 638.604L283.831 636.153L281.373 631.238L278.916 626.546L277.575 624.759L275.955 624.18L275.438 624.895L274.439 625.716L271.528 626.023L271.471 625.784L269.755 625.652L267.968 620.736L267.297 616.045L268.415 613.363L268.861 608.225L269.238 600.503L269.538 600.596L269.532 600.404H271.319L275.117 601.521L279.809 600.182L280.703 598.394L282.267 593.925L282.49 589.233L282.625 586.126L282.484 585.837L282.158 584.209L282.253 582.773L282.688 581.118L281.601 579.663L279.49 576.925L278.755 576.416L277.724 575.919L276.739 575.113L278.126 570.372L282.555 569.059L283.676 569.561L283.787 569.817L285.171 569.125L287.853 566.22L289.863 563.539L292.545 562.198L295.673 560.188L297.684 556.166L301.035 555.049L303.174 553.521L302.244 551.958L302.58 550.708L301.705 546.335L300.588 541.866L299.248 536.951L298.08 532.572L297.51 531.742L296.587 531.613L296.12 530.024L294.332 527.79L293.464 526.984L294.727 523.443L294.896 523.083L297.684 523.322L299.918 521.758L301.077 520.502L301.089 520.523L303.046 520.306L306.397 522.764L309.972 523.434L312.653 522.986L314.44 521.869H317.346L318.686 522.093L318.562 524.087L318.203 524.064L319.069 525.964L324.758 537.206L326.988 539.764L327.715 539.238L330.026 541.423L330.583 542.099L331.987 545.048L332.316 546.262L335.443 548.346L338.124 553.262L340.135 557.953L341.252 562.422L344.156 566.22L346.168 569.571L345.941 570.627L345.97 570.662L345.273 573.146L341.476 574.264L338.743 574.636L338.344 574.563L327.563 566.673L326.671 565.033L325.526 564.38L324.69 564.694L323.57 567.199L322.722 571.153L322.853 572.503L322.995 573.557L324.038 580.646L324.424 581.797L325.177 583.434L326.054 583.772L327.379 584.282L329.638 587.869L329.066 588.551L327.555 588.775L327.192 589.819L329.623 594.606L332.184 601.776L332.682 603.435L333.43 605.111L335.362 607.693L336.002 608.65V610.683L334.661 613.14L333.544 614.928L331.756 617.832L333.544 621.184L334.214 624.981L333.768 629.004L334.662 630.549L335.303 633.457L335.706 634.256L335.919 634.468L338.235 633.249L340.023 631.238L344.938 629.227L348.737 629.004L353.429 627.216L356.334 626.77L357.29 627.486L357.953 626.705L361.038 628.49L363.064 628.666L362.366 631.461L359.908 632.132L358.345 632.802L357.004 635.036L356.11 637.94L356.334 641.292L356.78 644.196L355.439 647.324L352.759 650.899L350.748 653.804L346.949 654.698L345.162 656.932L344.045 659.166L342.021 660.066L340.348 659.127L339.357 659.036L337.532 659.922L336.548 660.483L334.165 661.605L328.423 662.305Z" fill="#CCCCCC" stroke="white" stroke-width="0.5"/>
<path d="M116.01 211.092L114.51 214.093V217.844V221.595L117.51 224.595L119.533 224.702L119.622 225.252L121.261 225.72L123.136 226.846V230.596L121.261 233.222L119.761 236.973L119.386 239.973L118.26 242.974L116.76 246.349V250.1L119.011 251.975L121.636 254.226L121.48 257.19L122.173 257.612L126.275 260.668L128.593 264.548L129.537 266.85L130.1 268.317L130.526 269.283L131.272 270.382L132.687 271.167L134.184 271.594L138.277 274.054L140.024 276.709L145.267 287.351L145.274 287.73L146.601 289.057L147.718 290.621L148.389 295.09V296.877L148.268 296.905L148.389 297.547L149.729 300.452L151.74 304.25L153.751 308.272L155.539 312.964L156.208 316.986L154.645 319.22L152.857 321.231L150.399 323.688L148.906 324.187L148.294 325.606L146.12 326.143L144.516 324.739L141.89 323.989L138.889 326.615L135.889 327.74L133.079 329.145L132.803 327.826L132.577 326.91L130.85 325.834L130.638 322.864V319.863L128.387 318.363H126.512L121.636 319.488L119.011 318.738L118.26 315.362L115.26 313.487L113.009 314.612L110.384 316.112L108.133 318.363L107.383 319.863L105.508 321.363L102.882 322.489L100.5 322.34L100.586 322.002L100.433 321.04L98.7185 317.522L94.8475 314.279L93.9935 313.97L91.2305 313.365L90.7125 313.202L89.3795 309.736V307.111L88.5705 305.955L88.5855 305.854L88.2075 298.583L88.1375 297.438L89.0785 297.087L89.4405 295.681L89.2735 294.37L89.5175 292.038L92.2705 290.715L95.8575 287.091L96.0685 285.449L95.5565 284.479L92.8905 283.824L89.4815 283.281L83.7365 276.454L83.0615 270.734L83.2385 269.787L83.9495 268.601L84.9575 267.748L86.0485 267.066L88.0085 266.213L89.4765 266.391H90.7025L91.7345 264.863L92.3865 263.11L93.8145 256.106L93.4595 255.308L89.6005 253.425L89.3365 253.478L88.7055 252.806L87.9145 250.721L88.0885 250.583L87.6495 249.251L87.2345 248.499L86.4935 247.759L85.8955 246.628L85.0465 243.026L85.8955 236.211L88.4745 233.069L89.4045 233.199L89.1615 226.147L87.6375 224.048L86.1705 218.865L89.6885 213.782L92.1795 211.016L93.0815 210.175L94.2905 210.117L95.1435 210.176L98.7015 210.651L100.284 211.727L101.417 211.524L102.496 210.531L106.029 206.109L106.462 202.463L106.465 200.693L106.99 199.656L108.271 197.978L108.988 197.31L110.505 196.223L111.91 195.295L112.918 194.858L114.786 194.22L115.403 194.045L116.393 196.382L117.827 201.251L117.993 202.498L118.361 203.308L118.754 203.907L117.51 208.467L116.01 211.092Z" fill="#CCCCCC" stroke="white" stroke-width="0.5"/>
<path d="M187.757 517.513L187.164 518.567L186.25 517.562L185.509 516.652L184.524 516.115L183.102 515.417L180.855 515.131L182.332 512.056L182.188 509.864L181.827 507.438L180.422 503.483L180.891 500.619L180.433 499.312L184.852 499.639L185.076 507.458L186.64 510.14L188.65 513.268L189.321 515.502L187.757 517.513Z" fill="#CCCCCC" stroke="white" stroke-width="0.5"/>
<path d="M361.674 482.224L362.823 483.173L366.191 484.987L372.131 485.66L375.132 486.97L377.254 487.529L378.932 487.042L381.92 485.095L384.291 482.944L389.123 481.274L389.624 481.35V485.115L388.73 490.255L386.72 493.605L383.815 496.734L382.475 498.298L385.379 501.649L386.168 502.983L385.785 504.729L387.167 506.342L388.061 511.033L391.635 512.82L395.657 515.726L398.114 519.077L399.455 522.205L402.807 523.769L401.676 526.03L401.952 526.103L402.192 526.287L400.796 527.567L397.668 530.024L398.785 531.813L400.572 534.27L402.137 535.834L402.583 539.855L402.807 542.537L405.265 544.324L406.955 544.155L407.052 544.324L409.732 543.431L413.308 543.207L418.224 541.866L420.234 541.643L422.915 544.771L425.149 548.569L428.725 551.027L432.746 552.367L435.204 552.814L435.736 554.591L436.204 554.836L436.321 557.06L437.661 561.081L438.332 564.209L440.343 564.656L443.023 562.869L444.812 561.305L446.496 559.313L446.915 559.384L447.492 557.507L449.279 556.836L452.631 558.177L457.77 558.624L462.016 559.964L464.938 559.837L465.024 559.717L468.494 560.411L468.048 566.667L467.824 571.359L463.579 576.051L460.004 580.072L456.876 583.871L455.536 586.329L452.408 589.903L448.833 591.468L448.386 594.596L448.162 597.276L449.057 601.299L448.386 605.544L447.716 609.565L446.375 612.917L443.917 616.938L443.247 620.96L442.13 623.864L439.226 625.876L438.108 627.663L439.09 628.645L439.084 628.827L440.383 630.856L441.414 631.989L442.541 632.275L444.521 635.242L445.259 639.806L444.687 640.912L443.833 642.181L443.584 643.084L443.893 647.836L444.307 648.617L445.066 649.698L445.333 650.626L445.476 651.981L445.493 652.872L445.226 656.527L443.217 657.624L443.441 659.604L443.416 660.709L440.566 661.065L437.885 660.396L435.204 657.268L435.65 649.447L435.316 646.33L434.625 646.079L433.588 646.341L432.924 646.902L431.94 648.044L431.027 648.233L430.078 647.672L428.757 646.286L427.197 644.969L422.742 643.73L422.655 644.719L420.13 646.231L416.027 648.147L410.063 646.549L409.174 646.231L407.84 645.417L407.68 644.364L408.237 643.406L408.45 636.864L405.96 633.415L402.504 629.06L401.567 628.486L400.376 628.56L399.735 629.875L400.18 630.874L400.755 631.854L400.832 633.598L400.079 636.047L399.013 637.699L397.889 637.748L397.139 636.84L392.758 635.108L388.198 636.011L387.09 636.029L384.582 635.438L383.864 634.95L382.91 633.805L381.273 631.77L380.714 630.545L381.036 628.639L381.25 627.604L381.19 625.893L380.497 624.639L380.219 623.731L380.628 622.66L381.828 621.285L385.258 619.483L387.783 618.279L390.071 617.232L390.7 616.356L390.979 615.104L391.441 614.331L394.53 611.072L395.242 610.568L396.19 610.009L396.907 608.66L398.04 604.965L398.365 603.313L398.467 597.726L398.324 596.67L398.04 595.76L396.499 592.794L395.348 590.626L394.874 589.886L392.431 587.496L389.93 585.896L384.688 584.067L375.416 579.385L368.823 575.107L367.332 574.322L363.173 572.794L360.155 572.939L358.766 573.502L353.876 573.37L348.956 573.226L346.639 571.51L345.941 570.627L346.168 569.571L344.156 566.22L341.252 562.422L340.135 557.953L338.124 553.262L335.443 548.346L332.316 546.262L331.987 545.048L330.583 542.099L330.026 541.423L327.715 539.238L326.988 539.764L324.758 537.206L319.069 525.964L318.203 524.064L318.562 524.087L318.666 522.403L323.154 521.199L326.059 520.976L328.069 521.423L329.198 522.363L329.259 522.344L330.304 524.551L331.645 525.668L334.772 523.434L337.9 520.976L341.252 518.295L343.263 515.613L341.476 511.368L339.688 508.688L339.241 507.123L338.082 505.438L335.89 504.889L334.549 503.995L333.879 500.421L334.431 498.104L334.096 497.986L334.996 494.835L335.824 491.799L336.098 491.514L336.903 490.517L337.401 489.807L338.089 488.677L339.666 485.432L340.164 484.11L340.523 482.79L341.439 483.163L348.156 482.367L349.2 482.224L352.282 481.743L353.812 481.479L355.199 481.07L356.278 480.68L357.194 479.929L360.446 479.322L361.674 482.224Z" fill="#CCCCCC" stroke="white" stroke-width="0.5"/>
<path d="M179.786 373.602L179.936 368.039L176.986 366.224V362.677L177.347 360.368L179.021 359.996L182.396 357.746L184.645 361.22L185.164 360.993L186.415 360.934L187.227 361.463L187.615 362.454H189.32H192.001H193.702L193.498 361.68L195.149 361.496L198.9 360.746L201.9 361.496L206.026 359.996L209.027 361.121L210.902 362.247L212.402 359.246L213.903 357.371L215.673 358.256L215.749 357.75L217.695 359.325L219.055 359.811L220.692 362.621L223.449 369.568L224.559 371.058L226.717 371.317L227.471 370.756L228.205 369.571L227.405 366.372L226.28 356.995L230.031 353.245L234.053 351.796L235.521 354.104L235.38 354.294L234.941 355.295L234.55 357.95L234.36 359.784L234.005 361.022L233.868 361.494L234.229 363.57L235.212 366.162L235.261 366.141L235.123 369.603L234.448 373.652L235.759 378.553L238.131 383.848L238.836 384.611L239.482 386.042L239.694 387.232L240.485 387.924L241.155 389.265L243.39 393.287L245.177 396.415L246.964 398.872L249.201 399.571L250.012 399.146L252.004 397.559L256.166 395.388L258.582 395.968L261.934 395.074L264.168 393.063L265.956 391.276L265.732 386.807L267.967 384.126L268.508 380.202L268.848 379.724L271.541 379.21L274.669 378.764L275.787 380.998H277.797L278.915 378.987L279.138 376.083L280.702 371.837L281.622 368.342L282.054 368.045L285.513 366.634L286.473 366.396L287.92 366.288L290.291 366.455L291.927 366.657L292.716 367.068L293.771 368.096L294.406 369.553L294.69 370.995L294.561 372.101L292.521 373.425L290.007 378.314L289.327 381.544L290.086 384.796V389.265L291.874 391.499L292.767 394.851L290.979 397.085L290.086 399.543L290.142 400.157L289.192 401.106L286.734 404.011L284.5 406.469L283.606 409.597L282.042 411.384L280.702 412.725L278.021 412.948L275.787 414.513L274.446 415.183L273.8 416.475L273.041 416.396L272.212 417.641L269.978 419.204L267.967 417.641L267 416.19L266.596 416.295L265.509 415.406L262.828 415.183L260.593 416.97L257.912 418.98L255.37 421.015L254.505 421.162L253.967 421.201L250.539 424.343L247.635 426.801L245.4 428.365L243.166 431.493L241.155 434.844L239.679 435.656L238.697 435.738L237.58 437.525L235.346 438.419L234.676 441.771L233.983 443.75L233.76 443.849L233.559 444.451L230.431 444.229L226.409 443.111L224.175 442.44L219.93 441.994L217.918 441.101L215.684 438.866L212.556 438.643L209.205 439.76L205.853 441.994L202.949 444.005L199.141 444.9L199.025 444.771L198.415 444.854L197.306 444.447L196.482 443.764L196.037 443.016L195.649 440.91L194.697 440.255L192.83 440.68L191.739 440.019L191.241 438.746L191.277 437.998V437.756L192.448 436.855L193.118 435.291L193.788 432.61L192.895 429.705L194.682 427.918L196.246 425.907L196.022 420.769L195.353 417.641L193.341 414.289L190.66 412.725L188.444 411.616L187.085 411.831L187.756 408.256L188.203 406.021L190.267 405.658L192.752 400.03L194.424 396.281L194.654 395.962L197.81 395.744L200.044 395.297L201.385 393.733L201.608 390.159L198.257 387.924L192.671 384.796L188.426 381.892L183.639 379.669L182.449 378.165L180.16 374.272L179.786 373.602Z" fill="#CCCCCC" stroke="white" stroke-width="0.5"/>
<path d="M303.174 553.521L301.035 555.049L297.684 556.166L295.673 560.188L292.545 562.198L289.863 563.539L287.853 566.22L285.171 569.125L283.787 569.817L283.676 569.561L282.555 569.059L278.126 570.372L276.739 575.113L277.724 575.919L278.755 576.416L279.49 576.925L281.601 579.663L282.688 581.118L282.253 582.773L282.158 584.209L282.484 585.837L282.625 586.126L282.49 589.233L282.267 593.925L280.703 598.394L279.809 600.182L275.117 601.521L271.319 600.404H269.532L269.538 600.596L268.191 600.182H265.063L263.327 600.991L263.012 600.628H260.371L256.796 598.617L255.829 597.034L255.586 596.998L251.228 594.958L249.93 592.628L249.722 588.388L251.092 585.773L250.058 580.544L251.139 579.228L252.029 578.573L252.515 577.846L253.155 576.355L253.156 575.311L252.804 575.165L253.445 573.37L253.221 571.359L251.881 570.019L249.2 570.242L246.965 572.029L245.328 573.229L244.974 573.206L243.017 573.291L241.647 573.424L240.592 573.436L239.822 573.03L239.642 572.403L238.251 572.477L236.911 570.688L238.698 568.231L240.486 565.103L241.156 561.305V558.624L241.509 556.577L241.517 556.576L241.379 555.272L244.061 554.155L245.178 551.697L246.295 550.133L247.636 547.676L249.2 546.111L248.529 544.101L248.976 541.196L249.886 539.246L249.209 538.79L249.153 538.627H252.551L257.02 533.935L262.158 529.466L266.851 525.221L270.648 519.412L270.979 518.586L271.096 518.519L271.542 513.379L274 511.815L279.716 510.926L285.842 511.146L287.853 510.922L288.645 511.525L288.977 511.592H292.321L298.354 512.933L300.812 515.167L301.482 518.071L299.905 518.501L301.077 520.502L299.918 521.758L297.684 523.322L294.896 523.083L294.727 523.443L293.464 526.984L294.332 527.79L296.12 530.024L296.587 531.613L297.51 531.742L298.08 532.572L299.248 536.951L300.588 541.866L301.705 546.335L302.58 550.708L302.244 551.958L303.174 553.521Z" fill="#CCCCCC" stroke="white" stroke-width="0.5"/>
<path d="M234.297 554.602L236.754 555.495H241L241.318 556.608L241.509 556.577L241.156 558.624V561.305L240.486 565.103L238.698 568.231L236.911 570.688L238.251 572.477L239.642 572.403L239.822 573.03L240.592 573.436L241.647 573.424L243.017 573.291L244.974 573.206L245.328 573.229L246.965 572.029L249.2 570.242L251.881 570.019L253.221 571.359L253.445 573.37L252.804 575.165L253.156 575.311L253.155 576.355L252.515 577.846L252.029 578.573L251.139 579.228L250.058 580.544L251.092 585.773L249.722 588.388L249.93 592.628L251.228 594.958L255.586 596.998L255.829 597.034L256.796 598.617L260.371 600.628H263.012L263.327 600.991L265.063 600.182H268.191L269.238 600.503L268.861 608.225L268.415 613.363L267.297 616.045L267.968 620.736L269.755 625.652L271.471 625.784L271.528 626.023L274.439 625.716L275.438 624.895L275.955 624.18L277.575 624.759L278.916 626.546L281.373 631.238L283.831 636.153L286.668 638.604L286.777 638.864L286.937 640.181V642.278L286.794 643.364L286.415 644.841L285.397 646.807L285.067 646.939L284.974 646.646L281.053 647.25L279.117 648.219L275.095 650.453L271.744 654.698L270.403 658.72L269.411 661.27L269.257 661.107L267.034 657.337L263.886 652.726L263.329 652.042L262.617 651.236L261.111 649.848L256.842 646.817L252.254 639.876L251.465 638.961L250.339 638.083L249.337 637.511L247.689 636.718L243.218 634.109L237.882 630.953L233.863 627.661L233.732 626.021L233.513 624.31L231.664 619.781L228.041 616.138L227.353 615.603L225.987 612.823L225.041 609.194L222.337 606.728L221.217 606.022L217.987 604.649L218.252 594.868L216.423 593.702L214.494 593.059L215.167 590.85L216.981 590.177L218.128 590.758L219.372 592.574L220.867 588.758L221.247 587.436L222.42 583.313L222.741 580.852L223.292 575.453L222.634 573.727L220.553 569.966L220.205 569.607L219.89 569.16L219.997 567.13L221.562 565.773L223.349 561.752L226.253 559.964L229.381 557.729L231.616 555.719L234.297 554.602Z" fill="#CCCCCC" stroke="white" stroke-width="0.5"/>
<path d="M273.336 455.04L273.923 455.315L276.011 455.176L281.15 457.857L284.278 459.421L287.629 460.985L289.453 462.288L291.407 462.092L292.853 462.056L294.699 462.217L295.225 464.982L295.592 466.878L295.808 467.513L298.801 468.582H303.269L309.302 468.135L310.209 468.395L311.742 467.958L315.3 467.417L315.781 470.146L316.898 473.497L321.144 474.391L323.154 473.273L324.048 470.369L324.271 466.348V464.113L324.182 462.224L324.548 461.708L325.438 459.933L326.404 458.109L331.87 459.771L333.37 460.965L334.941 463.009L335.118 463.289L335.22 466.236L335.666 470.034L338.064 470.695L338.044 470.802L339.911 472.269L340.806 478.748L340.442 482.736L340.523 482.79L340.164 484.11L339.666 485.432L338.089 488.677L337.401 489.807L336.903 490.517L336.098 491.514L335.824 491.799L334.996 494.835L334.096 497.986L334.431 498.104L333.879 500.421L334.549 503.995L335.89 504.889L338.082 505.438L339.241 507.123L339.688 508.688L341.476 511.368L343.263 515.613L341.252 518.295L337.9 520.976L334.772 523.434L331.645 525.668L330.304 524.551L329.259 522.344L329.198 522.363L328.069 521.423L326.059 520.976L323.154 521.199L318.666 522.403L318.686 522.093L317.346 521.869H314.44L312.653 522.986L309.972 523.434L306.397 522.764L303.046 520.306L301.089 520.523L299.905 518.501L301.482 518.071L300.812 515.167L298.354 512.933L292.321 511.592H288.977L288.645 511.525L287.853 510.922L285.842 511.146L279.716 510.926L274 511.815L271.542 513.379L271.096 518.519L270.979 518.586L270.648 519.412L266.851 525.221L262.158 529.466L257.02 533.935L252.551 538.627H249.153L248.827 537.674L248.907 537.222L248.06 535.387L247.836 529.802L248.682 525.406L248.448 524.976L245.97 520.346L246.076 519.346L246.77 518.297L246.444 516.995L245.533 516.28L245.401 511.927H238.922L237.692 512.354L236.247 511.694L234.975 511.349L234.17 511.512L232.666 510.587L228.601 509.271L228.308 508.509L224.923 504.17L222.337 501.636L222 500.824L221.804 497.912L221.679 495.278L221.321 493.853L220.334 493.18L219.397 493.33L217.855 493.281L215.982 492.488L214.542 490.053L210.427 481.688L209.899 476.374L209.923 475.161L210.196 472.996L210.296 472.153L209.909 471.214L212.557 470.816L215.015 471.486L215.838 472.928L216.279 472.867L216.952 472.774L218.59 473.944L221.495 473.497L223.729 471.263L226.857 471.71L229.985 470.369L230.878 468.135L230.432 466.124L226.857 466.348L226.6 463.946H226.604L227.08 462.326L228.421 461.879L229.985 460.538L232.219 460.762L234.23 462.326L237.358 461.655L240.709 460.985L243.391 459.645L248.083 457.857L250.987 456.293H252.104L253.892 458.305L255.234 459.814L256.143 459.729L258.111 459.909L259.255 459.879L260.424 459.561L261.387 459.208L262.158 457.857L263.946 456.74L267.521 454.953L270.425 454.506L271.697 454.995L273.336 455.04Z" fill="#CCCCCC" stroke="white" stroke-width="0.5"/>
<path d="M166.263 323.13L166.486 326.928L166.933 331.397L168.787 331.689L168.87 331.985L170.508 332.067L172.072 333.408L172.742 337.653L173.25 340.867H173.771L178.272 338.992L181.647 338.617L184.273 340.492L188.774 341.242L191.024 344.618L192.524 346.868L193.65 350.994L192.726 351.456L193.026 352.878L193.006 353.687L191.774 353.995L187.648 354.745L184.273 355.87L182.397 357.746L179.022 359.996L174.457 361.01L172.644 357.712L167.486 349.867L166.62 349.509L165.103 348.748L162.968 346.737L162.066 345.82L161.688 345.035L160.774 342.31L160.561 341.049L159.613 340.93L151.348 342.524L147.915 347.498L146.392 348.51L145.538 348.831L144.104 349.748L143.451 350.307L140.691 352.765L139.146 356.128L136.028 364.656L136.058 365.654L134.813 367.991L128.997 370.029L123.027 371.978L122.179 372.306L121.135 373.354L120.015 375.232L119.843 376.842L120.119 378.347L119.051 380.909L117.649 381.211H117.333L117.424 380.925L117.368 379.405L114.673 375.262L113.44 370.709L113.6 369.654L113.532 367.586L113.096 365.907L112.716 364.894L109.646 361.428L106.157 357.629L106.527 356.563L106.462 355.688L103.213 349.173L96.1997 341.608L95.4397 340.882L94.4677 340.359L93.6137 340.014L90.3417 337.302L89.3937 336.488L88.5157 335.56L87.0807 333.461L84.6967 329.335L83.9977 326.613L83.5117 325.08L81.6027 321.693L80.2157 320.101L79.4867 319.328L77.9097 316.762L77.6897 315.295L78.0457 314.048L77.1557 311.334L76.8237 310.479L75.7567 307.997L75.2827 307.285L72.7227 304.75L73.8477 303.449L79.8247 297.271L81.5487 295.734L82.5157 295.218L86.7307 296.269L88.1377 297.438L88.2077 298.583L88.5857 305.854L88.5707 305.955L89.3797 307.111V309.736L90.7127 313.202L91.2307 313.365L93.9937 313.97L94.8477 314.279L98.7187 317.522L100.433 321.04L100.586 322.002L100.5 322.34L102.882 322.489L105.508 321.363L107.383 319.863L108.133 318.363L110.384 316.112L113.009 314.612L115.26 313.487L118.26 315.362L119.011 318.738L121.636 319.488L126.512 318.363H128.387L130.638 319.863V322.864L130.85 325.834L132.577 326.91L132.803 327.826L133.079 329.145L135.889 327.74L138.889 326.615L141.89 323.989L144.516 324.739L146.12 326.143L148.294 325.606L148.906 324.187L150.399 323.688L152.857 321.231L154.645 319.22L156.208 316.986L155.539 312.964L153.751 308.272L151.74 304.25L149.729 300.452L148.389 297.547L148.268 296.905L150.994 296.282L153.854 295.237L155.144 294.955L155.355 295.58L156.02 296.34L156.665 296.737L158.426 299.829L162.221 304.423L162.874 305.634L162.63 306.845L161.509 309.06L161.688 311.298L162.825 314.315L163.496 315.699L164.9 316.608L165.326 316.811L165.593 320.672L166.263 323.13Z" fill="#CCCCCC" stroke="white" stroke-width="0.5"/>
<path d="M77.3941 250.261L78.5781 251.666L78.7541 251.628L80.0311 251.329L83.0941 252.489L83.7251 253.851L84.6381 253.307L87.9151 250.721L88.7061 252.806L89.3371 253.478L89.6011 253.425L93.4601 255.308L93.8151 256.106L92.3871 263.11L91.7351 264.863L90.7031 266.391H89.4771L88.0091 266.213L86.0491 267.066L84.9581 267.748L83.9501 268.601L83.2391 269.787L83.0621 270.734L83.7371 276.454L89.4821 283.281L92.8911 283.824L95.5571 284.479L96.0691 285.449L95.8581 287.091L92.2711 290.715L89.5181 292.038L89.2741 294.37L89.4411 295.681L89.0791 297.087L88.1381 297.438L86.7311 296.269L82.5161 295.218L81.5491 295.734L79.8251 297.271L73.8481 303.449L72.7231 304.75L72.6511 303.509L72.4611 301.978L71.7851 300.885L68.0741 296.399L67.1041 295.72L65.5361 294.75L63.1821 292.317L62.5781 291.469L61.8841 288.96L61.1491 287.109L55.3271 281.849L54.2001 281.179L52.0781 280.266L46.7661 277.752L40.9791 274.563L37.7571 272.53L36.4621 271.114L35.4541 270.344L34.3281 269.644L34.7661 269.348L35.8691 267.843L38.0981 264.561L39.5891 262.185L40.0271 260.526L41.0551 258.518L43.4331 255.504L45.2711 253.437L46.2321 252.525L47.0091 251.98L48.5211 251.341L52.3851 250.148L53.1701 249.413L55.5261 247.527L57.5061 246.02L60.1451 242.72L60.9931 241.212L61.2761 237.819L62.0221 236.728L61.9611 235.797L62.4651 234.939L63.2831 235.442L64.2921 236.193L69.0751 240.016L71.1391 243.84L71.9691 246.278L73.7181 247.056L75.2261 247.527L76.3571 248.376L77.3941 250.261Z" fill="#CCCCCC" stroke="white" stroke-width="0.5"/>
<path d="M248.682 525.406L247.836 529.802L248.06 535.387L248.907 537.222L248.827 537.674L249.209 538.79L249.886 539.246L248.976 541.196L248.529 544.101L249.2 546.111L247.636 547.676L246.295 550.133L245.178 551.697L244.061 554.155L241.379 555.272L241.517 556.576L241.318 556.608L241 555.495H236.754L234.297 554.602L231.616 555.719L229.381 557.729L226.253 559.964L223.349 561.752L221.562 565.773L219.997 567.13L219.998 567.114L218.275 566.971L214.82 562.613L213.735 561.282L212.597 560.212L211.228 559.02L210.635 558.391L210.029 557.508L209.484 555.5L209.152 554.05L208.844 551.306L205.322 546.284L203.84 544.599L199.002 535.29L197.446 531.304L199.151 530.024L198.705 526.003L200.939 523.099L202.727 519.747L202.95 514.161L200.939 510.587L198.035 507.235L194.906 505.895L196.023 502.543L197.811 502.096L196.694 499.862L193.342 496.511L189.991 493.159L187.086 490.255L184.182 489.584L181.948 491.818L179.713 492.936L178.16 495.044L175.347 490.871L172.371 488.274L167.664 485.408L164.937 483.882L164.118 483.497L162.708 483.064L160.707 481.649L159.947 479.688L160.648 478.264L162.055 478.115L162.277 476.566L159.352 465.931L157.632 462.367L154.917 457.978L153.031 455.735L150.168 452.045L153.464 449.668L154.206 447.813L154.655 443.968L154.899 441.51L155.151 441.423L155.136 441.323L156.924 439.76L158.264 438.195L160.945 437.749L162.956 438.643L162.733 441.547L160.722 442.888L159.605 444.451L159.216 445.85L159.837 448.568L162.731 450.521L162.995 451.498L162.488 453.386L163.235 457.918L166.934 457.894L170.29 456.659L178.021 449.977L179.924 447.981L180.73 446.987L181.234 445.962L181.5 444.711L181.566 443.223L182.183 441.872L183.001 441.183L189.517 438.543L191.278 437.998L191.242 438.746L191.74 440.019L192.831 440.68L194.698 440.255L195.65 440.91L196.038 443.016L196.483 443.764L197.307 444.447L198.416 444.854L199.026 444.771L199.771 445.609L200.44 447.302L200.882 448.771L201.024 450.378L201.546 451.486L202.666 452.912L203.093 453.949L203.425 455.388L203.556 456.719L203.964 458.062L204.576 458.938L206.401 460.877L206.721 462.151L206.769 463.579L206.864 464.641L206.816 466.314L206.556 467.551L207.083 468.793L207.777 469.32L209.615 470.5L210.296 472.153L210.196 472.996L209.923 475.161L209.899 476.374L210.427 481.688L214.542 490.053L215.982 492.488L217.855 493.281L219.397 493.33L220.334 493.18L221.321 493.853L221.679 495.278L221.804 497.912L222 500.824L222.337 501.636L224.923 504.17L228.308 508.509L228.601 509.271L232.666 510.587L234.17 511.512L234.975 511.349L236.247 511.694L237.692 512.354L238.922 511.927H245.401L245.533 516.28L246.444 516.995L246.77 518.297L246.076 519.346L245.97 520.346L248.448 524.976L248.682 525.406Z" fill="#CCCCCC" stroke="white" stroke-width="0.5"/>
<path d="M197.446 531.304L197.349 531.055L196.904 528.991L195.967 527.688L194.402 525.916L191.936 523.817L187.164 518.567L187.757 517.513L189.321 515.502L188.65 513.268L186.64 510.14L185.076 507.458L184.852 499.639L180.433 499.312L179.781 497.449L178.16 495.044L179.713 492.936L181.948 491.818L184.182 489.584L187.086 490.255L189.991 493.159L193.342 496.511L196.694 499.862L197.811 502.096L196.023 502.543L194.906 505.895L198.035 507.235L200.939 510.587L202.95 514.161L202.727 519.747L200.939 523.099L198.705 526.003L199.151 530.024L197.446 531.304Z" fill="#CCCCCC" stroke="white" stroke-width="0.5"/>
<path d="M267.879 1.359L272.814 4.654L275.412 6.668L276.372 7.87L279.692 9.295L280.509 8.989L281.725 8.158L282.609 7.929L283.444 8.252L284.435 9.424L285.099 10.502L285.632 11.721L285.811 12.651L285.858 13.582L286.16 14.771L289.397 16.674L290.482 15.702L292.64 17.151L299.601 22.475L300.359 23.523L300.608 23.926L301.13 26.279L301.948 29.389L302.92 32.581L304.023 33.771L305.837 35.631L305.138 37.552L304.343 38.883L305.517 41.274L306.14 42.387L307.218 43.318L313.094 44.926L322.047 50.687L323.202 53.083L326.99 54.126L328.663 53.679L331.2 53.902L335.38 57.755L335.729 60.358L335.932 61.69L336.903 62.774L338.741 65.272L340.014 67.726L338.741 68.842L338.314 69.596L337.437 73.579L338.16 74.368L341.326 76.478L346.425 78.891L348.903 77.703L350.69 76.044L353.433 77.856L355.24 81.015L356.616 90.431L355.78 92.753L354.778 94.097L353.477 94.704L354.18 98.205L354.63 98.977L355.946 100.014L358.97 101.676L360.168 101.299L361.894 101.229L363.263 103.503L364.14 105.744L367.009 105.048L372.618 102.926L376.596 101.535L382.543 102.985L387.795 104.753L389.005 105.107L392.075 105.425L398.799 101.559L402.546 99.932L404.716 100.337L406.491 100.286L407.276 97.845L409.962 94.05L413.656 91.008L414.884 90.531L415.31 91.321L415.269 92.576L415.689 93.802L419.857 94.297L422.271 94.208L426.877 96.189L429.035 98.977L436.446 99.554L440.157 97.492L445.481 96.065L450.494 93.817L456.96 98.058H460.922L464.756 101.413L469.069 103.33L471.629 105.605L471.972 105.395L472.832 105.15L474.551 105.527L477.819 108.458L478.244 110.117L485.843 108.602V110.998L484.278 116.32L469.563 139.213L468.069 141.538L463.006 149.36L460.374 153.42L458.465 156.335L456.248 159.817L461.219 161.932L464.622 163.196L465.781 163.199L466.694 162.804L469.065 161.364L469.807 160.785L471.698 160.16L472.575 160.254L473.369 160.644L477.152 163.707L479.396 166.52L480.217 168.111L480.65 169.427L481 170.531L481.35 171.34L481.906 172.255L485.416 175.154L486.259 175.721L487.646 176.66L489.009 178.083L488.999 179.249L489.282 180.339L488.844 181.218L488.031 182.465L486.436 183.547L478.716 183.322L476.239 181.567L474.295 179.807L473.98 178.969L474.425 177.64L474.366 176.583L473.494 175.118L468.831 174.791L467.299 175.756L465.816 176.819L462.225 177.492L460.451 176.004L454.614 175.458L452.571 176.43L451.635 177.129L450.069 179.854L449.914 181.088L446.341 185.43L444.768 185.424L442.231 187.679H437.438L433.125 190.075L426.895 191.033L420.665 193.43L414.435 192.95H408.204L404.37 196.305L400.057 200.139L395.265 203.494L389.034 205.89L382.324 210.204L375.615 217.392L369.385 219.789L364.592 227.457L363.154 234.646L361.717 243.751L355.966 248.544L350.693 257.17L355.007 267.714L356.924 274.423L350.693 280.654L343.984 284.008L333.44 288.801L329.127 291.197L327.21 301.262L325.118 301.859L325.159 302.232L325.994 302.855L328.366 306.524L328.971 310.208L327.59 311.265L319.354 312.343L319.38 315.928L318.018 319.536L316.963 319.599L316.557 319.126L315.768 318.526L315.643 318.458L315.558 317.098L312.653 314.863L309.749 312.405L305.503 311.958L302.375 311.735L300.812 309.948L298.577 309.724L297.013 310.171L296.12 311.735L296.059 312.018L295.942 311.922L295.824 311.844L294.109 314.417L292.545 315.98L291.72 317.423L292.083 319.352L292.379 321.128L293.031 329.597L292.877 333.366L292.664 334.466L291.905 335.59L290.565 336.529L289.813 336.951L288.747 339.44L286.289 340.781L280.703 341.228L276.234 340.781L275.804 340.278L275.282 340.433L274 339.664L269.084 339.217L266.851 341.898L264.839 343.686L263.749 344.897L262.321 344.737L259.558 344.261L256.888 346.272L255.902 348.154V351.952L255.679 354.633V357.228L254.201 358.377L251.907 358.951L251.78 358.843L250.772 357.891L249.788 357.009L248.424 356.182H246.562L240.93 361.082L238.321 363.858L237.539 364.858L236.78 365.478L235.213 366.162L234.23 363.57L233.869 361.494L234.006 361.022L234.361 359.784L234.551 357.95L234.942 355.295L235.381 354.294L235.522 354.104L233.783 351.369L234.533 345.743L236.408 342.368L238.806 340.141L238.321 339.241L237.32 337.117H234.372L233.642 334.561L230.996 331.1L229.774 327.029L228.756 320.108L225.296 316.647L224.075 312.983V309.727L224.232 307.043L227.033 306.11L227.151 305.396L227.392 304.442L231.532 301.485V297.734L230.407 288.732L232.475 286.665L233.27 286.416L235.025 286.314L236.271 286.599L237.526 286.955L238.701 287.429L239.839 288.26L240.966 289.114L241.418 289.68L246.16 289.482L249.911 288.732L251.516 288.09L251.566 288.011L251.958 286.813L252.668 283.479L252.55 281.796L252.598 280.349L252.787 277.812L253.048 274.777L253.368 272.679L253.771 270.64L253.854 269.514L253.706 268.222L253.292 267.284L255.162 265.103L255.537 261.352L253.286 258.352L249.536 256.476L244.285 257.601L241.488 259.732L237.633 258.921L236.389 258.755L233.234 258.777L231.322 258.929L228.907 260.602L224.781 263.228L221.78 261.727L218.78 257.977L214.654 254.226L210.797 253.84L209.963 254.511L208.449 255.558L206.946 256.239L204.573 256.597L202.464 255.728L200.336 254.241L199.495 252.969L198.534 251.051L198.196 249.481L197.307 246.947L196.655 245.764L195.967 244.532L191.627 241.549L189.481 240.869L188.295 240.987L186.635 241.052L184.56 240.993L180.825 240.721L179.627 240.424L178.383 240.069L177.256 239.489L175.49 237.537L174.671 236.59L173.77 235.176L172.478 234.14L170.391 233.164L167.723 232.318L165.221 231.513L163.881 230.697L161.45 228.893L161.035 228.094L160.608 227.538L158.036 221.99L157.621 220.748L157.183 218.364L156.893 218.219L152.767 214.843V211.843L155.52 208.746L155.178 206.759L155.095 205.459L155.332 202.989L155.924 200.92L156.671 199.088L157.443 197.907L158.213 196.902L159.102 195.957L159.903 195.313L160.946 193.665L163.679 187.91L163.976 186.67L164.332 184.249L164.094 182.831L163.816 181.886L163.881 179.654L164.509 172.214L164.924 171.358L164.545 165.106L164.332 164.149L163.976 163.358L163.502 162.65L161.877 160.561L161.296 159.404L161.035 158.495L160.94 157.433L161.059 155.745L161.302 153.945L159.482 145.773L159.138 144.682L157.703 141.797L156.038 139.095L155.616 137.792L155.51 136.452L155.332 132.17L153.769 125.346L154.443 125.141L169.584 119.963L178.786 116.815L186.505 114.162L192.434 112.122L202.841 108.534L213.8 100.392L227.875 89.818L232.001 84.951L240.373 75.005L243.005 71.87L246.951 67.133L248.621 65.408L249.655 64.74L250.096 63.634L253.084 52.1L254.021 48.354L254.768 45.468L255.29 43.453L256.558 38.565L257.637 39.754L258.378 40.473L259.623 40.979L264.472 40.54L262.487 33.982L261.23 30.414L261.629 27.261L261.894 27.01L262.332 26.83L263.098 26.132L263.296 23.223L262.522 21.615L259.223 19.139L258.195 19.224L257.104 18.388L256.083 17.227L255.183 15.726L254.578 14.121L254.128 11.945L253.89 11.038L253.19 9.289L249.346 7.074L247.07 6.73L247.441 3.953L251.572 4.392L253.244 5.532L255.585 6.403L258.799 5.85L260.696 5.148L261.526 4.513L262.666 4.63L264.084 3.506L264.479 2.334L264.977 1L267.879 1.359Z" fill="#CCCCCC" stroke="white" stroke-width="0.5"/>
<path d="M460.185 467.707L460.208 469.171L462.33 467.526L464.689 465.996L465.847 466.765L467.05 467.958L467.654 468.847L467.87 469.118L472.416 468.74L477.845 467.926L483.272 467.111L486.604 466.834L487.16 466.482L488.464 465.69L489.294 465.318L490.319 465.061L496.542 465.522L498.348 467.115L500.452 466.986L501.412 466.759L504.827 466.627L505.621 466.639L505.582 466.661L508.479 471.476L511.384 476.277L519.222 489.206L520.68 491.61L522.14 494.015L526.882 501.835L528.162 503.941L529.811 506.649L530.392 507.552L531.672 509.659L533.036 511.983L534.957 515.826L536.866 519.731L540.541 527.255L541.099 528.46L542.711 531.767L543.612 533.576L543.767 533.807L540.791 537.438L539.735 540.021L537.72 543.887L534.992 544.949L535.384 548.399L534.569 551.928L530.984 554.524L527.703 556.612L523.458 558.177L519.883 559.964L516.531 560.857L512.063 562.646L509.605 563.763L507.147 566.443L502.232 567.561L497.447 567.968L496.533 567.522L487.933 565.997L483.018 563.315L477.432 560.857L471.176 560.188L468.475 560.688L468.494 560.411L465.024 559.717L464.938 559.837L462.016 559.964L457.77 558.624L452.631 558.177L449.279 556.836L447.492 557.507L446.915 559.384L446.496 559.313L444.812 561.305L443.023 562.869L440.343 564.656L438.332 564.209L437.661 561.081L436.321 557.06L436.204 554.836L435.736 554.591L435.204 552.814L432.746 552.367L428.725 551.027L425.149 548.569L422.915 544.771L420.234 541.643L418.224 541.866L413.308 543.207L409.732 543.431L407.052 544.324L406.955 544.155L405.265 544.324L402.807 542.537L402.583 539.855L402.137 535.834L400.572 534.27L398.785 531.813L397.668 530.024L400.796 527.567L402.192 526.287L401.952 526.103L401.676 526.03L402.807 523.769L399.455 522.205L398.114 519.077L395.657 515.726L391.635 512.82L388.061 511.033L387.167 506.342L385.785 504.729L386.168 502.983L385.379 501.649L382.475 498.298L383.815 496.734L386.72 493.605L388.73 490.255L389.624 485.115V481.35L390.083 481.42L391.38 480.309L393.212 477.662L394.229 473.998L394.84 471.556L393.212 470.131L393.618 468.095L395.777 467.825L395.764 467.807L398.911 468.299L401.711 467.938L401.918 468.114L403.554 468.379H404.68H405.878L408.842 468.145L410.122 467.935L410.334 467.846L414.992 468.095L426.595 467.688L428.427 465.856L431.073 463.413L431.888 460.971L432.183 457.132L432.427 457.081L432.498 455.067L433.923 450.793L435.348 448.961L438.198 446.11L442.88 444.279L447.969 438.986L451.232 435.865V435.742L453.668 434.712L460.321 424.151L460.291 428.608L460.303 433.671L460.291 440.231L460.256 451.876L460.231 459.345L460.185 465.019V467.707Z" fill="#CCCCCC" stroke="white" stroke-width="0.5"/>
<path d="M453.105 686.96L453.302 687.193L455.759 686.76L459.11 686.536L461.792 686.76L462.51 687.479L462.781 687.401L469.226 689.118L470.056 690.209L471.971 695.644L472.397 699.534L472.172 700.517L472.112 701.72L473.619 706.302L474.016 707.42L478.552 712.263L481.51 715.109L482.813 715.657L485.305 716.084L486.48 717.366L482.951 720.765L482.794 724.072L482.57 727.647L481.314 729.155L481.436 729.361L480.113 729.435L477.879 730.104L477.284 728.618L476.538 728.474V726.977L476.091 723.849L474.08 722.731L472.418 723.185L472.137 723.034L469.967 723.096L468.604 723.865L467.18 725.675L466.137 728.914L465.959 730.146L466.67 731.828L466.979 732.686L466.943 733.992L464.536 736.963L461.844 740.096L460.907 740.688L459.42 741.262L457.984 741.645L457.285 742.163L456.426 743.465L454.932 746.267L452.868 750.342L451.434 753.208L450.62 754.375V756.47L448.386 761.608L445.929 763.843L442.13 765.406L439.226 767.194H437.346L437.287 767.152L436.86 766.639L436.49 765.862L435.485 765.092L431.596 762.84L429.248 758.845L428.798 755.482L428.46 753.159L427.428 748.946L426.616 748.526L423.735 745.896L423.427 745.477L423.376 744.625L421.257 743.354L419.547 742.634L423.834 741.373L426.548 739.473L428.658 738.505L429.877 733.868L427.85 731.096L427.055 730.338L425.62 727.227L425.265 725.786L425.234 724.671L425.501 723.742L426.012 723.016L428.774 720.72L430.232 720.196L431.259 719.707L431.673 717.385L431.259 714.743L435.385 709.109L437.924 707.901L437.438 706.868L436.321 706.198L434.757 704.634L433.863 703.294L434.757 701.729H436.768L438.555 702.623L441.906 705.081L444.812 705.975L446.408 705.336L446.039 704.231V703.114L446.549 702.076L447.485 701.192L448.434 700.308L449.536 698.982L450.183 697.92L450.521 695.668L450.604 694.49L450.663 692.687L450.574 690.491L450.586 688.333L450.874 686.442L452.038 686.279L453.105 686.96Z" fill="#CCCCCC" stroke="white" stroke-width="0.5"/>
<path d="M215.838 472.928L215.015 471.486L212.557 470.816L209.909 471.214L209.615 470.5L207.777 469.32L207.083 468.793L206.556 467.551L206.816 466.314L206.864 464.641L206.769 463.579L206.721 462.151L206.401 460.877L204.576 458.938L203.964 458.062L203.556 456.719L203.425 455.388L203.093 453.949L202.666 452.912L201.546 451.486L201.024 450.378L200.882 448.771L200.44 447.302L199.771 445.609L199.142 444.9L202.95 444.005L205.854 441.994L209.206 439.76L212.557 438.643L215.685 438.866L217.919 441.101L219.931 441.994L224.176 442.44L226.41 443.111L230.432 444.229L233.56 444.451L233.761 443.849L233.984 443.75L234.677 441.771L235.347 438.419L237.581 437.525L238.698 435.738L239.68 435.656L241.156 434.844L243.167 431.493L245.401 428.365L247.636 426.801L250.54 424.343L253.968 421.201L254.506 421.162L255.371 421.015L257.913 418.98L260.594 416.97L262.829 415.183L265.51 415.406L266.597 416.295L267.001 416.19L267.968 417.641L269.979 419.204L272.213 417.641L273.042 416.396L273.801 416.475L274.447 415.183L275.788 414.513L278.022 412.948L280.703 412.725L282.043 411.384L283.607 409.597L284.501 406.469L286.735 404.011L289.193 401.106L290.143 400.157L290.311 402L292.098 404.458L294.332 406.021L295.226 408.927L296.566 411.607L296.311 415.318L296.541 415.932L297.364 418.22L299.024 418.98L299.918 422.332L300.141 426.131L302.822 429.705L304.833 431.27L307.738 431.716L307.514 435.067L306.397 437.525L305.95 440.43L307.067 443.335L309.078 445.346L310.195 446.016L310.866 447.803L310.643 449.813L309.329 450.471L309.466 450.642L309.264 451.552L307.876 452.056L306.572 452.476L304.142 453.734L301.166 456.683L299.837 458.229L299.304 458.938L296.398 461.444L294.699 462.217L292.853 462.056L291.407 462.092L289.453 462.288L287.629 460.985L284.278 459.421L281.15 457.857L276.011 455.176L273.923 455.315L273.336 455.04L271.697 454.995L270.425 454.506L267.521 454.953L263.946 456.74L262.158 457.857L261.387 459.208L260.424 459.561L259.255 459.879L258.111 459.909L256.143 459.729L255.234 459.814L253.892 458.305L252.104 456.293H250.987L248.083 457.857L243.391 459.645L240.709 460.985L237.358 461.655L234.23 462.326L232.219 460.762L229.985 460.538L228.421 461.879L227.08 462.326L226.604 463.946H226.6L226.857 466.348L230.432 466.124L230.878 468.135L229.985 470.369L226.857 471.71L223.729 471.263L221.495 473.497L218.59 473.944L216.952 472.774L216.279 472.867L215.838 472.928Z" fill="#CCCCCC" stroke="white" stroke-width="0.5"/>
<path d="M12.212 259.505L11.497 258.175L10.33 255.51L10.997 252.844L12.663 250.845L15.495 251.011L17.494 250.345L18.288 248.758L18.314 248.765L18.833 248.715L19.161 247.679L20.327 246.679L21.66 243.014L21.326 238.682L19.66 234.85L16.495 229.852L13.496 228.019L9.997 226.353L6.332 223.354L6.665 221.021L8.164 218.522L9.403 217.862L9.981 214.873L11.069 214.362L12.659 214.545L13.441 214.302L11.996 212.857L10.33 209.858L5.999 206.526L1 201.028L1.167 197.196L2.5 190.199L3.666 184.701L5.28 182.515L5.811 181.118L6.611 179.866L12.603 174.375L13.858 173.549L14.806 176.394L17.571 178.656H23.227L29.385 178.278L32.778 177.022L33.148 176.035L33.664 175.945L36.154 173.755L36.8 174.885L37.68 176.017L40.193 179.033L41.199 181.42L41.451 183.25L39.806 185.695L39.752 186.885L40.499 187.964L42.806 189.233L43.624 189.529L44.987 188.974L46.031 188.418L49.103 186.079L50.632 184.674L51.435 183.807L52.636 183.683L55.023 184.186L57.286 185.693L61.182 187.202L64.701 188.458L66.837 190.344L68.063 189.479L68.166 189.538L69.526 189.671L70.959 189.218L72.367 189.715L76.766 189.841L79.099 190.554L79.967 191.325L80.797 193.892L80.986 195.561L83.702 201.771L83.985 203.091L87.377 206.866L90.786 210.206L93.082 210.175L92.18 211.016L89.689 213.782L86.171 218.865L87.638 224.048L89.162 226.147L89.405 233.199L88.475 233.069L85.896 236.211L85.047 243.026L85.896 246.628L86.494 247.759L87.235 248.499L87.65 249.251L88.089 250.583L84.638 253.307L83.725 253.851L83.094 252.489L80.031 251.329L78.754 251.628L78.578 251.666L77.395 250.261L76.357 248.376L75.227 247.527L73.718 247.056L71.969 246.278L71.139 243.84L69.075 240.016L64.292 236.193L63.283 235.441L62.465 234.939L61.961 235.797L62.022 236.728L61.276 237.819L60.993 241.212L60.145 242.72L57.506 246.02L55.526 247.527L53.17 249.413L52.385 250.148L48.521 251.341L47.009 251.98L46.232 252.525L45.271 253.437L43.433 255.504L41.055 258.518L40.027 260.526L39.589 262.185L38.098 264.561L35.869 267.843L34.766 269.348L34.328 269.644L34.067 269.479L32.156 269.838L28.824 271.337L25.325 269.005L21.493 265.839L19.327 264.173L18.599 262.595L14.632 260.935L12.212 259.505Z" fill="#CCCCCC" stroke="white" stroke-width="0.5"/>
<path d="M501.119 686.159L502.886 687.095L507.451 688.008L508.061 689.834L505.93 692.269L504.712 695.617L507.147 698.052L511.104 696.226H513.234L515.365 699.574L518.714 700.183L522.671 698.661L524.497 695.313L526.668 693.977L527.033 694.245L528.554 696.146L529.017 696.153L529.49 697.373L530.607 699.83V703.853L530.323 705.466L530.237 705.503L528.388 707.862L528.079 711.162L528.479 713.861L529.235 714.779L529.317 716.003L527.682 717.188L525.252 718.422L521.652 721.366L516.157 727.936L513.329 733.554L512.499 734.411L509.98 735.513L507.157 736.97L504.542 739.405L503.428 740.737L501.836 743.959L500.949 744.229L499.432 744.551L498.555 744.514L494.107 742.243L490.48 740.361L486.425 737.407L485.701 736.6L481.314 729.155L482.57 727.647L482.794 724.072L482.951 720.765L486.48 717.366L485.305 716.084L482.813 715.657L481.51 715.109L478.552 712.263L474.016 707.42L473.619 706.302L472.112 701.72L472.172 700.517L472.397 699.534L471.971 695.644L470.056 690.209L469.226 689.118L462.781 687.401L462.51 687.479L461.792 686.76L459.11 686.536L455.759 686.76L453.302 687.193L453.105 686.96L452.038 686.279L450.874 686.442L451.291 685.011L451.528 683.742L451.036 682.744L449.379 681.503L447.13 677.755L447.446 676.022L448.558 674.238L448.748 673.266L448.439 672.365L447.871 671.698L447.035 671.025L445.979 670.255L445.114 669.313L443.878 667.637L443.358 663.173L443.441 659.604L443.217 657.624L445.226 656.527L445.493 652.872L445.476 651.981L445.333 650.626L445.066 649.698L444.307 648.617L443.893 647.836L443.584 643.084L443.833 642.181L444.687 640.912L445.259 639.806L444.521 635.242L442.541 632.275L441.414 631.989L440.383 630.856L439.084 628.827L439.09 628.645L438.108 627.663L439.226 625.876L442.13 623.864L443.247 620.96L443.917 616.938L446.375 612.917L447.716 609.565L448.386 605.544L449.057 601.299L448.162 597.276L448.386 594.596L448.833 591.468L452.408 589.903L455.536 586.329L456.876 583.871L460.004 580.072L463.579 576.051L467.824 571.359L468.048 566.667L468.475 560.688L471.176 560.188L477.432 560.857L483.018 563.315L487.933 565.997L496.533 567.522L497.447 567.968L502.232 567.561L507.147 566.443L509.605 563.763L512.063 562.646L516.531 560.857L519.883 559.964L523.458 558.177L527.703 556.612L530.984 554.524L534.569 551.928L534.026 556.27L534.298 560.884L535.112 562.784L533.755 568.755L531.561 572.37L531.577 575.229L531.5 577.585L530.735 580.173L528.86 583.486L527.166 586.356L529.241 589.995L529.774 592.106L530.907 597.647L531.513 598.558L532.52 599.359L533.305 599.906L532.941 603.36L533.755 606.346L530.77 607.431L528.599 609.06L527.784 614.217L525.07 617.474L522.355 620.459L519.099 624.53L516.385 628.33L514.485 632.401L514.616 633.844L514.274 634.186L513.566 641.391L517.254 646.427L521.404 649.905L522.554 651.188L523.994 652.939L523.736 654.118L522.596 654.509L521.48 654.436L518.393 657.307L515.652 662.231L515.388 662.797L513.844 662.135L512.018 660.613L507.756 660.309L506.234 657.265L503.799 656.656H500.755L499.842 653.004L496.494 650.265L493.45 649.352L489.798 648.438L486.754 647.524H483.405L480.058 647.829L479.448 649.655L480.058 651.481H482.797L485.536 651.786L489.188 651.481L491.015 652.395L491.624 656.656L489.188 658.178L487.667 659.7L488.275 662.744L490.406 663.961V667.918L488.58 668.223L487.667 670.962L485.536 671.875L482.492 673.093L483.405 676.441L484.015 679.789L484.928 682.528L487.362 682.225H489.188L491.319 684.051L492.842 684.659L494.059 682.225L495.276 681.615L496.189 684.051L497.407 686.485H501.06L501.119 686.159Z" fill="#CCCCCC" stroke="white" stroke-width="0.5"/>
<path d="M184.56 240.993L186.635 241.052L188.295 240.987L189.481 240.869L191.627 241.549L195.967 244.532L196.655 245.764L197.307 246.947L198.196 249.481L198.534 251.05L199.495 252.969L200.336 254.241L202.464 255.728L204.573 256.597L206.946 256.239L208.449 255.558L209.963 254.511L210.797 253.84L214.654 254.226L218.78 257.977L221.78 261.727L224.781 263.228L228.907 260.602L231.322 258.929L233.234 258.777L236.388 258.755L237.633 258.921L241.488 259.732L244.285 257.602L249.536 256.476L253.286 258.352L255.537 261.352L255.162 265.103L253.292 267.284L253.706 268.222L253.854 269.514L253.771 270.64L253.368 272.678L253.048 274.777L252.787 277.812L252.598 280.349L252.55 281.796L252.668 283.479L251.958 286.813L251.566 288.011L251.516 288.09L249.911 288.732L246.16 289.482L241.417 289.68L240.966 289.114L239.839 288.26L238.701 287.429L237.526 286.955L236.271 286.599L235.025 286.314L233.27 286.416L232.475 286.665L230.407 288.732L231.532 297.734V301.485L227.392 304.442L227.151 305.396L227.033 306.11L224.232 307.043L224.075 309.727V312.983L225.296 316.647L228.756 320.108L229.774 327.029L230.996 331.1L233.642 334.561L234.372 337.117H237.32L238.321 339.241L238.806 340.141L236.408 342.368L234.533 345.743L233.783 351.369L234.054 351.796L230.032 353.245L226.281 356.995L227.406 366.372L228.206 369.571L227.472 370.756L226.718 371.317L224.56 371.058L223.45 369.568L220.693 362.621L219.056 359.811L217.696 359.325L215.75 357.75L215.674 358.256L213.904 357.371L212.403 359.246L210.903 362.247L209.028 361.121L206.027 359.996L201.901 361.496L198.901 360.746L195.15 361.496L193.499 361.68L193.703 362.454H192.002H189.321H187.616L187.228 361.463L186.416 360.934L185.165 360.993L184.646 361.22L182.397 357.746L184.273 355.87L187.648 354.745L191.774 353.995L193.006 353.687L193.026 352.878L192.726 351.456L193.65 350.994L192.524 346.868L191.024 344.618L188.774 341.242L184.273 340.492L181.647 338.617L178.272 338.992L173.771 340.867H173.25L172.742 337.653L172.072 333.408L170.508 332.067L168.87 331.985L168.787 331.689L166.933 331.397L166.486 326.928L166.263 323.13L165.593 320.672L165.326 316.811L164.9 316.608L163.496 315.699L162.825 314.315L161.688 311.298L161.509 309.06L162.63 306.845L162.874 305.634L162.221 304.423L158.426 299.829L156.665 296.737L156.02 296.34L155.355 295.58L154.834 294.038L154.905 292.448L155.628 290.383L156.316 288.906L156.874 284.651L159.143 282.731L161.394 282.356L165.895 282.731L168.895 284.981L171.146 283.856L173.396 281.231V279.377L173.77 279.163L174.221 278.191L174.642 276.514L174.997 275.304L175.679 273.947L176.509 272.939L177.517 272.181L179.094 271.203L180.642 269.935L181.561 268.192L180.873 265.414L180.059 263.435L179.535 262.203L178.475 260.482L176.382 258.291L172.556 256.944L170.895 256.534L169.023 256.098L167.088 255.704L165.898 255.404L164.77 254.916L163.003 252.939L158.569 244.473L157.94 243.111L157.354 241.573L157.739 232.614L157.976 231.371L158.474 230.513L159.435 229.241L160.501 228.354L161.035 228.094L161.45 228.893L163.881 230.697L165.221 231.513L167.723 232.318L170.391 233.164L172.478 234.14L173.77 235.176L174.671 236.59L175.49 237.537L177.256 239.489L178.383 240.07L179.627 240.424L180.825 240.721L184.56 240.993Z" fill="#CCCCCC" stroke="white" stroke-width="0.5"/>
<path d="M474.08 722.731L476.091 723.849L476.538 726.977V728.474L477.284 728.618L477.879 730.104L480.113 729.435L481.436 729.361L485.701 736.6L486.425 737.407L490.48 740.361L494.107 742.243L498.555 744.514L499.432 744.551L500.949 744.229L501.836 743.959L504.626 744.316L507.068 746.649L508.456 748.032L508.479 750.169L508.515 753.653L502.954 758.646L500.653 760.699L500.322 760.675L499.774 761.497L496.87 761.943L495.753 763.508L496.199 766.636L497.094 768.87L498.211 773.785L498.434 778.254L496.646 782.275L494.412 786.297L490.167 790.319L483.464 791.659L476.314 792.106L471.846 793L470.729 791.883L470.219 790.927L469.851 791.257L469.427 790.807L464.833 786.804L462.994 785.563L461.909 785.109L460.214 784.78L459.432 784.334L456.141 781.395L448.908 774.824L447.805 773.165L446.294 771.92L443.786 770.428L440.418 769.399L437.346 767.194H439.226L442.13 765.406L445.929 763.843L448.386 761.608L450.62 756.47V754.375L451.434 753.208L452.868 750.342L454.932 746.267L456.426 743.465L457.285 742.163L457.984 741.645L459.42 741.262L460.907 740.688L461.844 740.096L464.536 736.963L466.943 733.992L466.979 732.686L466.67 731.828L465.959 730.146L466.137 728.914L467.18 725.675L468.604 723.865L469.967 723.096L472.137 723.034L472.418 723.185L474.08 722.731Z" fill="#CCCCCC" stroke="white" stroke-width="0.5"/>
<path d="M45.0874 168.906L43.6834 168.288L42.3554 168.246L40.4284 168.554L38.8804 171.316L38.9004 171.532L38.4664 171.807L37.5644 172.515L33.6644 175.945L33.1484 176.035L32.7784 177.022L29.3854 178.278L23.2274 178.656H17.5714L14.8064 176.394L13.8584 173.549L15.0254 172.782L16.7554 169.374L18.1014 167.491L20.1464 166.039L22.6194 164.56L23.4194 163.595L23.7504 161.801L24.1664 160.443L24.7594 159.227L25.4114 158.419L29.4784 155.78L32.5374 154.187L34.5884 153.037L36.4984 150.494L36.9124 149.703L37.5744 148.366L38.8164 147.855L41.3124 147.814L42.3674 147.756L43.3044 147.52L44.1404 146.9L44.2284 146.775L46.3524 147.424L47.8604 147.927L48.4884 150.692L49.2424 153.457L50.1224 156.096L50.3744 160.369L49.6194 163.511L48.7404 165.899L46.9804 167.784L45.0874 168.906Z" fill="#CCCCCC" stroke="white" stroke-width="0.5"/>
<path d="M305.503 311.958L309.749 312.405L312.653 314.863L315.558 317.098L315.643 318.458L315.768 318.526L316.557 319.126L316.963 319.599L316.322 319.668L316.219 320.692L317.518 321.55L319.295 323.036L322.152 325.865L322.733 326.904L323.149 327.665L324.032 328.277L327.002 329.359L328.188 329.68L328.936 330.191L329.486 331.345L329.297 333.179L328.137 334.608L325.933 334.322L326.148 337.54L326.815 338.355L328.799 339.075L331.283 340.478L333.673 344.963L335.338 350.438L335.99 352.735L336.34 354.86L338.67 356.843L341.824 359.069L344.344 365.579L347.433 368.662L348.814 368.892L349.899 369.171L351.251 369.773L351.986 370.375L352.591 371.269L353.041 372.437L353.433 373.653L353.896 374.38L356.59 378.454L358.854 379.652L360.707 382.148L361.187 384.611L361.317 385.5L361.271 386.514L361.009 387.76L360.535 388.786L358.093 392.14L354.002 396.103L352.354 397.439L351.292 398.322L350.533 399.86L359.919 400.293L364.993 400.353L365.895 400.328L370.626 400.389L375.879 401.81L384.617 403.422L385.922 403.81L388.916 405.554L391.009 410.876L390.789 412.409L390.291 414.043L390.674 415.274L392.117 416.075L394.092 417.178L394.755 418.525L395.352 420.777L394.602 423.68L393.854 425.749L395.645 425.845H399.558L401.349 425.833H402.676H404.764H417.071L424.873 425.821L428.763 425.81L431.821 425.444L436.772 422.724L437.69 420.905L438.56 419.778L443.878 417.929L445.099 416.891L445.783 415.478L449.513 411.438L451.149 410.386L453.9 408.666L459.698 403.732L462.034 401.583L462.911 401.266L462.422 403.567L462.521 405.786L461.939 409.786L461.749 416.23L461.009 416.978L460.457 418.149L460.314 421.156L460.326 423.424L460.321 424.151L453.668 434.712L451.232 435.742V435.865L447.969 438.986L442.88 444.279L438.198 446.11L435.349 448.961L433.923 450.793L432.498 455.067L432.427 457.081L432.183 457.132L431.888 460.971L431.073 463.413L428.427 465.856L426.595 467.688L414.992 468.095L410.334 467.846L410.122 467.935L408.842 468.145L405.878 468.379H404.68H403.554L401.918 468.114L401.711 467.938L398.911 468.299L395.764 467.807L395.777 467.825L393.618 468.095L393.212 470.131L394.84 471.556L394.229 473.998L393.212 477.662L391.38 480.309L390.083 481.42L389.123 481.274L384.292 482.944L381.92 485.095L378.932 487.042L377.254 487.529L375.132 486.97L372.132 485.66L366.191 484.987L362.824 483.172L361.674 482.223L360.446 479.322L357.194 479.929L356.278 480.68L355.199 481.07L353.812 481.479L352.282 481.743L349.2 482.223L348.156 482.367L341.439 483.163L340.523 482.79L340.442 482.736L340.806 478.748L339.911 472.269L338.044 470.802L338.064 470.695L335.666 470.034L335.22 466.236L335.118 463.289L334.941 463.009L333.37 460.964L331.87 459.771L326.404 458.109L325.438 459.933L324.548 461.708L324.182 462.224L324.271 464.113V466.348L324.048 470.369L323.154 473.273L321.144 474.391L316.898 473.497L315.781 470.146L315.3 467.417L311.742 467.958L310.209 468.395L309.302 468.135L303.269 468.582H298.801L295.808 467.513L295.592 466.878L295.225 464.982L294.699 462.217L296.398 461.444L299.304 458.938L299.837 458.229L301.166 456.683L304.142 453.734L306.572 452.476L307.876 452.056L309.264 451.552L309.466 450.642L309.329 450.471L310.643 449.813L310.866 447.803L310.195 446.016L309.078 445.346L307.067 443.335L305.95 440.43L306.397 437.525L307.515 435.067L307.738 431.716L304.833 431.27L302.822 429.705L300.141 426.131L299.918 422.332L299.024 418.98L297.364 418.22L296.541 415.932L296.311 415.318L296.566 411.607L295.226 408.927L294.332 406.021L292.098 404.458L290.311 402L290.087 399.543L290.981 397.085L292.768 394.851L291.875 391.499L290.087 389.265V384.796L289.328 381.544L290.008 378.314L292.522 373.425L294.562 372.101L294.691 370.995L294.407 369.553L293.772 368.096L292.717 367.068L291.928 366.657L290.292 366.455L287.921 366.288L286.474 366.396L285.514 366.634L282.055 368.045L281.623 368.342L280.703 371.837L279.139 376.083L278.916 378.987L277.798 380.998H275.788L274.67 378.764L271.542 379.21L268.849 379.724L268.509 380.202L267.968 384.126L265.733 386.807L265.957 391.276L264.169 393.063L261.935 395.074L258.583 395.968L256.167 395.388L252.005 397.559L250.013 399.146L249.202 399.571L246.965 398.872L245.178 396.415L243.391 393.287L241.156 389.265L240.486 387.924L239.695 387.232L239.483 386.042L238.837 384.611L238.132 383.848L235.76 378.553L234.449 373.652L235.124 369.603L235.262 366.14L236.78 365.478L237.539 364.858L238.321 363.858L240.93 361.082L246.562 356.182H248.424L249.788 357.009L250.772 357.891L251.78 358.843L251.907 358.951L254.201 358.377L255.679 357.228V354.633L255.902 351.952V348.154L256.888 346.272L259.558 344.261L262.321 344.737L263.749 344.897L264.839 343.686L266.851 341.898L269.084 339.217L274 339.664L275.282 340.433L275.804 340.278L276.234 340.781L280.703 341.228L286.289 340.781L288.747 339.44L289.813 336.951L290.565 336.529L291.905 335.59L292.664 334.466L292.877 333.366L293.031 329.597L292.379 321.128L292.083 319.352L291.72 317.423L292.545 315.98L294.109 314.417L295.824 311.844L295.942 311.922L296.059 312.018L296.12 311.735L297.013 310.171L298.577 309.724L300.812 309.948L302.375 311.735L305.503 311.958Z" fill="#CCCCCC" stroke="white" stroke-width="0.5"/>
<path d="M496.494 650.265L499.842 653.004L500.755 656.656H503.799L506.234 657.265L507.756 660.309L512.018 660.613L513.844 662.135L515.388 662.797L511.876 670.273L515.354 679.567L518.793 688.753L520.33 689.553L523.682 691.787L526.668 693.977L524.497 695.313L522.671 698.661L518.714 700.183L515.365 699.574L513.234 696.226H511.104L507.147 698.052L504.712 695.617L505.93 692.269L508.061 689.834L507.451 688.008L502.886 687.095L501.119 686.159L501.06 686.485H497.407L496.189 684.051L495.276 681.615L494.059 682.225L492.842 684.659L491.319 684.051L489.188 682.225H487.362L484.928 682.528L484.015 679.789L483.405 676.441L482.492 673.093L485.536 671.875L487.667 670.962L488.58 668.223L490.406 667.918V663.961L488.275 662.744L487.667 659.7L489.188 658.178L491.624 656.656L491.015 652.395L489.188 651.481L485.536 651.786L482.797 651.481H480.058L479.448 649.655L480.058 647.829L483.405 647.524H486.754L489.798 648.438L493.45 649.352L496.494 650.265Z" fill="#CCCCCC" stroke="white" stroke-width="0.5"/>
</svg>
