<svg width="801" height="718" viewBox="0 0 801 718" fill="none" xmlns="http://www.w3.org/2000/svg">
<path d="M302.31 1L287.48 7.86L264.7 4.58L239.22 12.04L230.32 15.02L175.06 56L166.02 69.92L147.88 78.15L138.71 79.58L136.12 76.18L137.15 80.17L140.18 80.63L139.68 88.97L125.02 85.98L132.93 83.15L132.61 77.31L118.43 80.61L94.62 72.24L87.53 75.3L85.04 89.69L90.33 89.51L89.91 84.75L94.58 85.62L90.51 96.02L87.5 93.23L85.21 102.57L86.55 92.81L88.3 92.58L83.8 91.32L82.86 108.49L78.52 115.34L85.49 144.7L78.69 176.91L50.54 200.95L39.24 205.78L24.38 202.79L1.09 228.31L1 236.16L9.82 252.34L6.47 287.21L19.26 304.96L48.75 329.66L47.34 335.33L70.52 360.11L71.53 385.2L84.2 390.69L90.91 400.4L91.64 431.06L82.65 458.81L89.09 464.62L98.87 496.15L121.78 509.99L133.63 521.34L134.32 527.26L147.37 536.04L152.44 550.74L149.63 556.05L158.8 566.62L191.56 571.09L222.75 581.2L234.32 588.39L262.82 622.99L275.21 629.19L300.2 632.17L307.05 635.89L310.69 647.54L324.17 653.9L338.27 656.67L332.33 654.06L337.82 654.25L339.59 650.15L338.15 659.51L341.85 659L345.47 664.69L368.25 663.32L396.16 677.49L415.21 681.33L431.62 695.81L436.56 691.22L458.42 698.56L477.32 691.9L481.38 698.41L493.94 702.76L507.48 713.55L542.09 707.32L554.66 717.12L571.45 707.34L586.67 709.06L598.45 696.39L635.1 698.8L659.95 688.91L689.16 686.65L696.66 679.94L720.8 683.52L749.13 662.63L762.2 643.63L764.72 635.43L757.64 605.77L763.4 575.83L757.15 562.83L754.69 537.26L763.8 492.09L771.14 473.53L784.6 458.78L785.91 435.32L799.88 431.5L794.74 407.22L797.79 399.75L788.34 388.4L785.93 376.39L765.19 368.06L747.83 351.44L729.42 349.09L715.86 325.79L704.11 316.27L695.97 300.91L672.19 274.52L663.83 259.16L665.54 246.49L646.4 221.81L633.78 216.03L627.17 202.12L624.4 148.68L619.52 129.16L602.24 101.45L579.6 75.7L561.55 63.96L546.4 57.79L521.02 54.64L484.71 34.45L472.06 36.73L441.68 28.36L431.26 33.91L419.14 32.62L372.31 15.79L352.13 20.62L330.75 19.79L302.31 1Z" fill="#CCCCCC" stroke="white" stroke-width="0.5"/>
</svg>
