<svg width="801" height="698" viewBox="0 0 801 698" fill="none" xmlns="http://www.w3.org/2000/svg">
<path d="M538.459 307.18L526.179 298.45L513.209 289.83L506.699 286L503.629 284.62L501.639 289.76L498.909 296.46L496.759 299.22L493.019 298.65L483.379 300.36L475.409 303.94L473.219 306.83L468.949 311.75L463.779 314.8L458.939 311.55L453.699 308.13L449.919 309.43L446.929 314.19L443.699 319.56L441.949 323.55L444.099 329.53L445.649 334.25L444.179 335.39L443.149 335.8L442.939 336.3L443.739 337.63L444.919 340.98L445.969 343.97L446.789 345.28L447.929 346.82L449.099 349.26L450.279 352.23L451.419 355.08L450.749 356.81L450.629 357.54L450.569 359.05L450.279 361.55L449.529 364.03L448.189 366.06L451.909 371.92L454.469 377.99L452.679 381L451.299 382.5L448.109 383.78L445.219 386.71L444.469 390.52L446.869 395.3L450.239 397.39L451.949 397.64L454.189 398.37L456.669 399.14L457.599 399.85L459.389 398.33L463.169 396.66L465.609 395.32L467.669 393.16L470.489 392.39L471.909 394.08L473.739 396.5L477.119 396.86L479.539 396.56L480.639 396.21L481.959 395.89L484.299 395.44L486.879 394.87L489.149 394.16L492.689 393.41L495.859 393.12L496.999 393.08L498.339 392.84L499.299 391.37L501.659 389.36L504.399 387.34L506.659 386.16L510.869 384.33L515.649 382.64L520.459 384.01L524.609 389.46L527.269 393.55L530.259 397.29L532.819 400.85L535.489 397.07L538.599 389.95L541.199 375.75L542.379 361.55L542.619 356.99L544.759 354.55L550.429 352.15L555.799 349.59L557.649 346.27L557.789 338.54L556.979 332.09L554.659 329.75L552.219 326.76L552.479 321.33L550.979 315.66L548.299 311.83L547.789 309.74L544.899 309.31L538.459 307.18Z" fill="#CCCCCC" stroke="white" stroke-width="0.5"/>
<path d="M381.738 105.35L378.248 104.83L374.828 105.84L371.198 108.12L367.638 112.35L365.278 120.12L362.028 122.03L359.298 121.06L350.928 115.97L346.248 114.91L336.698 116.62L330.108 120.04L324.028 124.43L315.918 128.99L308.598 130.98L300.338 131.59L284.528 130.74L269.078 136.23L253.378 147.53L239.838 161.65L232.258 173.59L233.968 176.03L241.008 185.61L250.498 196.76L258.978 199.68L266.418 202.04L269.628 201.96L272.228 200.92L273.798 201.88L275.888 202.53L282.278 205.52L289.568 209.14L297.518 208.69L305.248 209.24L306.868 221.16L307.418 237.29L307.258 248.7L306.768 257.28L311.668 263.18L315.898 266.39L318.238 265.68L322.728 265.05L327.118 265.87L333.588 270.16L340.968 272.86L345.888 271.95L348.918 272.44L350.318 276.08L354.368 282.38L359.608 290.19L364.248 297.35L369.738 302.56L371.708 308.21L379.168 312.97L389.918 316.63L397.508 316.55L405.308 315.13L412.178 315.29L416.938 316.72L419.648 318.67L422.778 320.3L425.678 322.27L428.158 324.61L431.378 327.82L435.158 331.89L438.978 334.49L442.108 335.1L443.148 335.8L444.178 335.39L445.648 334.25L444.098 329.53L441.948 323.55L443.698 319.56L446.928 314.19L449.918 309.43L453.698 308.13L458.938 311.55L463.778 314.8L468.948 311.75L473.218 306.83L475.408 303.94L483.378 300.36L493.018 298.65L496.758 299.22L498.908 296.46L501.638 289.76L503.628 284.62L506.698 286L513.208 289.83L526.178 298.45L538.458 307.18L544.898 309.31L547.788 309.74L549.348 308.6L552.138 305.65L555.508 303.33L557.748 301.99L557.628 295.99L554.578 283.91L550.508 270.4L549.108 262.14L550.608 257.77L551.928 253.26L549.618 247.97L544.008 241.89L536.358 232.39L529.228 223.11L524.098 217.7L520.218 210.71L517.188 202.69L515.538 193.89L517.618 187.28L520.748 184.47L520.908 182.66L518.758 181.5H514.908L510.218 183.15L506.658 184.23L506.368 180.61L505.378 174.55L503.708 170.85L500.318 163.44L496.878 157.04L492.488 150.41L487.528 142.11L484.968 140.06L482.788 137.09L481.548 133.08L479.338 131.33L478.198 131.03L476.548 130.17H476.538L474.488 131.26L469.368 136.55L465.788 145.13L461.728 145.99L435.008 160.79L426.368 164.01L418.098 164.9L410.408 162.7L403.658 156.4L399.838 148.06L398.908 131.87L397.158 123.62L386.098 107.55L381.788 105.36L381.738 105.35Z" fill="#CCCCCC" stroke="white" stroke-width="0.5"/>
<path d="M625.888 1L620.538 1.73L615.378 4.05L609.198 5.6L602.568 4.74L595.858 2.79L589.358 1.81L583.338 3.97L580.028 9.58L577.488 25.85L575.448 31.83L573.048 33.82L566.468 36.79L565.038 37.96L563.698 39.07L562.558 41.42L561.688 47.08L560.938 49.68L556.708 56.8L551.558 63.39L534.058 80.02L527.978 83.64L525.068 84.49L521.938 84.74L518.808 85.27L515.718 87.1L512.918 92.46L510.518 107.72L508.478 113.69L504.218 117.68L488.148 123.94L476.538 130.17H476.548L478.198 131.03L479.338 131.33L481.548 133.08L482.788 137.09L484.968 140.06L487.528 142.11L492.488 150.41L496.878 157.04L500.318 163.44L503.708 170.85L505.378 174.55L506.368 180.61L506.658 184.23L510.218 183.15L514.908 181.5H518.758L520.908 182.66L520.748 184.47L517.618 187.28L515.538 193.89L517.188 202.69L520.218 210.71L524.098 217.7L529.228 223.11L536.358 232.39L544.008 241.89L549.618 247.97L551.928 253.26L550.608 257.77L549.108 262.14L550.508 270.4L554.578 283.91L557.628 295.99L557.748 301.99L555.508 303.33L552.138 305.65L549.348 308.6L547.788 309.74L548.298 311.83L550.978 315.66L552.478 321.33L552.218 326.76L554.658 329.75L556.978 332.09L557.788 338.54L557.648 346.27L555.798 349.59L550.428 352.15L544.758 354.55L542.618 356.99L542.378 361.55L541.198 375.75L538.598 389.95L535.488 397.07L532.818 400.85L530.258 397.29L527.268 393.55L524.608 389.46L520.458 384.01L515.648 382.64L510.868 384.33L506.658 386.16L504.398 387.34L501.658 389.36L499.298 391.37L498.338 392.84L496.998 393.08L495.858 393.12L492.688 393.41L489.148 394.16L486.878 394.87L484.298 395.44L481.958 395.89L480.638 396.21L479.538 396.56L477.118 396.86L473.738 396.5L471.908 394.08L470.488 392.39L467.668 393.16L465.608 395.32L463.168 396.66L459.388 398.33L457.598 399.85L457.128 403.66L457.108 410.8L457.068 415.34L454.468 420.12L448.618 426.53L444.388 434.7L445.038 447.77L442.858 467.09L438.168 480.76L437.958 481.38L437.818 482.11L436.418 489.49L435.478 497.04L435.028 498.01L434.508 499.14L433.578 500.21L434.258 500.8L441.188 506.76L444.238 507.21L447.558 506.88L451.338 507.01L455.828 508.59L460.628 512.3L472.828 526.74L479.288 532.4L487.498 537.85L496.528 541.35L505.308 541.07L512.018 536.43L529.788 514.13L530.598 511.36L530.808 507.66L532.208 505.01L536.778 505.46L549.058 511.44L553.938 512.54L560.288 512.26L567.808 510.71L575.208 508.31L580.858 505.42L585.918 500.74L587.728 498.36L589.358 496.22L593.198 492.64L599.518 490.77L601.428 491.75L613.878 494.72L615.218 494.23L617.088 496.39L619.118 501.92L621.378 505.01L642.738 522.55L655.838 528.7L668.768 529.19L676.368 524.71L684.748 525.77L693.288 528.21L701.518 527.76L705.928 524.06L711.538 513.48L716.058 509.94L721.138 509.25L725.368 510.59L745.898 520.72L749.108 521.49L752.688 520.52L755.538 518.89L761.028 517.55L767.098 514.05L773.708 511.12L778.828 507.41L782.898 500.05L784.568 492.03L782.898 465.09L786.318 447.76L799.858 403.94L796.558 392.5L792.348 386.81L786.358 380.79L779.258 377.25L771.898 378.83L777.088 355.93L775.908 345.51L764.118 343.64L766.068 340.47L768.468 337.91L774.848 332.9L771.838 325.86L774.058 319.8L778.058 313.9L780.218 307.23L777.088 291.45L775.698 287.3L780.218 276.48L779.238 272.86L775.738 267.49L774.848 265.45L774.968 261.22L780.048 230.19L780.378 220.06L777.508 211.72L768.158 215.3L761.998 210.46L758.218 201.59L754.398 187.43L752.648 184.42L747.768 179.22L741.258 170.51L738.928 165.39L741.018 163.11L742.238 158.47L742.968 148.23L740.738 137.94L733.088 133.3L725.368 132.2L699.378 122.56L695.768 120.36L689.868 114.75L685.718 111.82L674.128 107.02L669.048 103.2L666.938 96.9L667.338 93.97L668.278 91.65L669.168 89.94L669.558 88.72L668.768 85.51L665.108 80.75L662.788 72.74L655.628 60.86L653.238 55.13L651.688 44.96L650.018 42.52L645.178 39.02L643.558 39.47L640.998 40.85L637.868 41.34L634.408 39.02L633.758 36.67L634.818 34.31L636.298 32.07L637.128 29.75L635.828 24.38L630.098 20.44L628.798 16.21L630.038 11.78L633.068 7.47L636.188 4.2L631.878 2.86L625.888 1Z" fill="#CCCCCC" stroke="white" stroke-width="0.5"/>
<path d="M241.01 185.61L233.97 176.03L232.26 173.59L230.94 175.68L230.12 176.53L229.25 177.1L228.27 177.35L198.21 178.57L192.03 181.17L187.47 187.03L176.7 209.24L172.71 214.4L153.72 230.14L148.97 237.1L140.67 252.84L130.6 268.97L115.91 292.46L108.51 309.79L106.56 323.87L107.41 338.27L117.86 400.07L118.67 414.23L116.4 430.67L110.22 449.31L100.38 464.65L86.84 475.35L69.33 479.99L58.01 479.62L54.68 480.8L50.63 484.58L50.16 488L48.82 492.23L45.85 498.09L41.3 505.22L35.71 510.91L28.9 514.94L20.68 517.34L10.11 521.01L4.58 525.77L1.63 536.1L2.43 544.53L3.89 552.34L7.88 559.46L9.26 564.27L2.43 570.37L1 575.54L2.47 580.59L5.96 582.99L10.38 585.1L14.42 589.22L17.06 598.37L14.42 628.45L17.47 631.59L32.15 641.19L37.39 643.27L49.15 644.53L57.22 648.52L63.21 655.24L69.98 615.83L78.91 607.08L101.8 605.58L108.2 606.51L132.09 616.93L140.88 619.62L157.48 621.7L165.8 623.69L173 627.8L177.79 631.38L178.08 633.22L177.57 637.86L178.92 643.19L186.36 639.27L188.33 638.68L191.93 636.78L197.48 626.87L198.78 612.67L194.18 605.91L192.21 602.96L191.68 600.19L192.15 596.55L192.9 592.7L191.28 590.24L189.33 586.37L186.36 582.45L184 577.54L183.15 571.56L179.89 567.18L174.61 564.76L167.29 562.46L162.53 559.88L162.16 557.23L163.95 552.06L167.37 547.06L175.66 542.62L183.74 538.19L185.34 534.6L184.16 530.17L183 526.47L186.32 521.15L190.26 514.91L190.59 511.29L187.9 505.79L185.3 499.32L186.36 493.99L190.34 489.23L196.3 486.18L202.13 485.28L206.57 486.63L211.57 484.37L218.89 478.85L226.84 477.55L233.65 477.39L238.3 477.18L240.7 477.53L246.43 471.57L256.21 463.92L261.46 460.99L265.75 457.21L270.77 454.07L273.05 451.67L274.67 449.35L276.79 450.1L279.27 451.06L282.15 449.92L285.37 448.99L288.07 447.46L292.28 444.92L295.49 443.21L295.35 437.82L293.88 432.38L292.73 429.94L293.15 425.94L296.75 419.32L298.99 413.87L299.01 410.94L300.45 408.46L301.43 406.55L303.36 403.78L306.08 399.59L306.71 395.93L307.04 392.51L307.48 389.21L306.33 386.57L304.94 382.16L305.33 373.84L303.93 365.17L302.16 361.2H306.16L312.08 361.47L316.63 360.02L320.23 356.79L321.15 352.66L319.4 349.45L317.89 345.05L317.79 340.68L319.32 337.63L321.35 332.58L320.25 322.13L318.38 312.44L318.5 307.68L319.8 303.13L320.88 292.17L319.56 278.94L318.06 271.8L316.92 267.82L315.9 266.39L311.67 263.18L306.77 257.28L307.26 248.7L307.42 237.29L306.87 221.16L305.25 209.24L297.52 208.69L289.57 209.14L282.28 205.52L275.89 202.53L273.8 201.88L272.23 200.92L269.63 201.96L266.42 202.04L258.98 199.68L250.5 196.76L241.01 185.61Z" fill="#CCCCCC" stroke="white" stroke-width="0.5"/>
<path d="M255.5 697.04L262.98 694.52L270.34 689.84L278.96 688.7L283.02 688.86L286.15 687.64L289.08 685.85L300.79 681.61L303.6 681.78L307.81 683.17L324.17 688.58L331.59 689.72L340.4 688.62L344.22 686.3L345.92 682.63L347.23 674.37L350.15 670.71L354.67 670.66L363.45 673.31L373.23 673.6L381.18 672.09L388.58 667.73L396.63 659.55L401.87 652.43L406.67 644.29L410.41 635.7L412.53 627.03L412.71 622.64L414.36 582.26L422.87 552.5L420.05 522.23L422.61 502.08L422.57 498.42L423.71 496.22L427.73 496.1L430.88 497.89L433.58 500.21L434.51 499.14L435.03 498.01L435.48 497.04L436.42 489.49L437.82 482.11L437.96 481.38L438.17 480.76L442.86 467.09L445.04 447.77L444.39 434.7L448.62 426.53L454.47 420.12L457.07 415.34L457.11 410.8L457.13 403.66L457.6 399.85L456.67 399.14L454.19 398.37L451.95 397.64L450.24 397.39L446.87 395.3L444.47 390.52L445.22 386.71L448.11 383.78L451.3 382.5L452.68 381L454.47 377.99L451.91 371.92L448.19 366.06L449.53 364.03L450.28 361.55L450.57 359.05L450.63 357.54L450.75 356.81L451.42 355.08L450.28 352.23L449.1 349.26L447.93 346.82L446.79 345.28L445.97 343.97L444.92 340.98L443.74 337.63L442.94 336.3L443.15 335.8L442.11 335.1L438.98 334.49L435.16 331.89L431.38 327.82L428.16 324.61L425.68 322.27L422.78 320.3L419.65 318.67L416.94 316.72L412.18 315.29L405.31 315.13L397.51 316.55L389.92 316.63L379.17 312.97L371.71 308.21L369.74 302.56L364.25 297.35L359.61 290.19L354.37 282.38L350.32 276.08L348.92 272.44L345.89 271.95L340.97 272.86L333.59 270.16L327.12 265.87L322.73 265.05L318.24 265.68L315.9 266.39L316.92 267.82L318.06 271.8L319.56 278.94L320.88 292.17L319.8 303.13L318.5 307.68L318.38 312.44L320.25 322.13L321.35 332.58L319.32 337.63L317.79 340.68L317.89 345.05L319.4 349.45L321.15 352.66L320.23 356.79L316.63 360.02L312.08 361.47L306.16 361.2H302.16L303.93 365.17L305.33 373.84L304.94 382.16L306.33 386.57L307.48 389.21L307.04 392.51L306.71 395.93L306.08 399.59L303.36 403.78L301.43 406.55L300.45 408.46L299.01 410.94L298.99 413.87L296.75 419.32L293.15 425.94L292.73 429.94L293.88 432.38L295.35 437.82L295.49 443.21L292.28 444.92L288.07 447.46L285.37 448.99L282.15 449.92L279.27 451.06L276.79 450.1L274.67 449.35L273.05 451.67L270.77 454.07L265.75 457.21L261.46 460.99L256.21 463.92L246.43 471.57L240.7 477.53L238.3 477.18L233.65 477.39L226.84 477.55L218.89 478.85L211.57 484.37L206.57 486.63L202.13 485.28L196.3 486.18L190.34 489.23L186.36 493.99L185.3 499.32L187.9 505.79L190.59 511.29L190.26 514.91L186.32 521.15L183 526.47L184.16 530.17L185.34 534.6L183.74 538.19L175.66 542.62L167.37 547.06L163.95 552.06L162.16 557.23L162.53 559.88L167.29 562.46L174.61 564.76L179.89 567.18L183.15 571.56L184 577.54L186.36 582.45L189.33 586.37L191.28 590.24L192.9 592.7L192.15 596.55L191.68 600.19L192.21 602.96L194.18 605.91L198.78 612.67L197.48 626.87L191.93 636.78L188.33 638.68L186.36 639.27L178.92 643.19L179.01 643.55L187.55 651.57L189.95 656.46L189.1 660.94L183.65 667.61L182.31 671.72L183.2 676.28L186.86 684.46L187.33 689.39L190.81 696.88L200.48 695.99L217.46 688.62L224.51 687.8L232.11 689.22L246.35 691.87L255.5 697.04Z" fill="#CCCCCC" stroke="white" stroke-width="0.5"/>
</svg>
