<svg width="731" height="602" viewBox="0 0 731 602" fill="none" xmlns="http://www.w3.org/2000/svg">
<path d="M457.55 487.88L447.42 490.51L431.03 492.9L372.18 497.94L363.33 497.24L360.09 496.52L354.87 494.13L346.36 488.54L332.82 476.45L328.91 470.09L326.16 467.13L325.94 465.53L327.17 459.42L330.51 453.33L330.59 450.37L329.53 448.64L325.93 445.04L322.86 440.11L317.1 435.1L312.76 428.04L307.99 421.68L307.41 420.21L309.17 411.73L308.63 404.78L310.96 401.36L311.64 399.02L309.85 385.92L310.81 379.76L310.5 378.19L304.05 376.78L298.4 378.25L294.7 376.97L293.44 374.67L293.72 369.33L294.58 366.4L292.74 364.52L289.65 363.67L275.55 363.04L272.54 361.41L267.39 350.15L266.48 344.51L264.38 339.79L263.25 334.93L259.09 331.63L258.73 328.5L259.17 324.86L259.13 315.83L260.54 310.95L259.6 307.35L262.55 303.1L262.95 299.96L265.99 294.88L268.16 293.3L269.66 293.42L274.83 295.97L278.7 296.78L284.43 297.28L290.1 296.39L295.79 297.26L298.22 295.47L299.07 293.29L297.16 289.46L297.31 287.16L302.73 280.47L306 277.95L318.88 274.8L321.72 271.99L324.81 270.25L327.09 265.78L329.11 263.81L332.24 262.99L340.54 264.05L347.74 263.37L353.27 263.59L354.11 259.69L353.8 256.53L351.28 251.67L352.36 248.76L352.22 247.9L345.53 237.74L341.93 234.17L341.44 232.65L342.28 226.91L341.85 221.79L345.86 220.69L350.36 214.82L352.82 212.71L357 210.87L357.62 209.39L357.47 206.89L356.13 204.39L352.53 201.4L350.18 200.47L349.5 198.59L349.56 197L350.55 193.9L352.97 190.58L356.12 188.94L358.06 191.06L359.57 191.58L361.37 190.72L362.67 188.49L365.99 190.81L368.11 193.02L369.51 198.13L370.75 199.66L381.16 205.74L386.91 206.8L390.37 211.02L394.43 214.4L396.77 215.03L402.41 215.14L405.42 215.95L415.28 222.89L417.77 224.08L420.13 224.13L424.54 223.12L426.09 223.34L432.54 229.42L434.01 231.94L442.89 235.1L446.75 237.18L447.84 239.74L448.27 244.7L448.65 267.33L448.02 282.4L448.37 289.81L449.05 293.51L450.17 295.3L452.45 297.1L461.89 303.4L471.08 312.56L472.76 314.62L475.71 320.4L477.07 327.29L477.05 335.04L457.55 487.88Z" fill="#CCCCCC" stroke="white" stroke-width="0.5"/>
<path d="M144.43 344.65L144.55 344.63L144.43 344.65ZM259.17 324.86L258.73 328.5L259.09 331.63L263.24 334.93L264.37 339.79L266.48 344.51L267.39 350.15L272.54 361.41L275.55 363.04L289.65 363.67L292.74 364.52L294.58 366.4L293.73 369.33L293.44 374.66L294.7 376.97L298.4 378.25L304.05 376.78L310.5 378.19L310.81 379.76L309.85 385.93L311.64 399.03L310.96 401.37L308.63 404.8L309.18 411.74L307.42 420.22L308 421.69L312.77 428.05L317.11 435.11L313.09 436.58L307.38 440.35L302.16 439.05L299.9 439.3L296.74 440.82L292.19 441.1L287.93 444.91L281.52 447.97L271.41 457.21L269.1 458.35L266.81 458.11L265.41 457.09L260.74 448.02L258.76 446.09L257.28 445.87L251.86 448.63L247.7 448.43L243.09 450.2L241.18 448.74L239.9 444.97L238.68 443.52L237.25 442.91L234.99 443.23L233.63 444.64L232.93 446.76L234.04 451.3L233.92 453.66L231.23 458.29L229.86 461.85L222.13 463.71L218.13 467.81L218.3 469.23L218.97 469.93L222.63 471.02L223.6 472.55L223.29 477.83L224.2 481.72L223.93 486.16L225.23 487.7L228.92 489.83L230.98 492.89L232.57 493.94H235.16L237.37 492.86L239.95 483.88L242.35 479.42L243.87 478.83L248.48 478.79L249.27 478.29L250.78 477.55L253.07 477.68L254.92 479.56L255.13 481.08L253.82 488L256.01 492.44L254.74 497.04L253.98 498.46L252.46 499.21L247.72 498.78L245.48 499.15L241.6 501.97L240.85 502.03L238.88 500.16L238.39 510.16L239 513.13L240.02 514.61L241.46 515.09L248.17 515.3L250.28 516.51L253.26 525.65L251.76 532.06L250.75 534L247.2 536.05L245.23 539.2L244.83 537.33L244.56 537L243.61 535.77L243.64 535.28L243.32 534.71L242.95 534.34L242.44 535.1L242.08 534.75L242.44 533.6L241.98 533.36L241.5 532.71L241.65 531.84L240.92 530.97L240.38 528.93L240.43 528.13L240.26 526.72L239.44 525.92L239.59 524.71L238.18 523.65L237.55 522.35L235.29 522.26L234.23 521.43L234.04 519.81L232.3 517.64L233.54 512.75L231.98 512.35L230.83 511.43L229.63 508.7L230.92 505.7L230.72 504.01L227.67 502.71L226.56 500.08L226.94 498.57L226.49 497.13L225.67 496.55L225.11 495.19L223.53 494.38L223.83 493.95L223.35 491.92L223.85 489.15L222.63 487.84L220.36 487.28L217.57 485.17L217.29 484.15L218.33 485.08L218.67 482.98L217.54 479.84L216.11 478.2L214.05 478.77L213.04 478.45L213.22 479.23L214.33 479.75L214.03 480.03L212.68 479.19L212.25 477.69L210.83 476.98L210.53 474.98L209.23 474.4L209.65 473.14L209.24 472.02L203.55 468.11L200.57 467.16L199.33 465.13L198.68 465.08L198.82 463.83L196.53 463.9L195.08 462.38L194.57 460.9L192.92 460.31L191.03 460.57L191.09 461.08L190.34 461.21L188.24 459.65L187.1 459.85L188.63 460.62L188.91 461.36L186.24 460.09L181.09 456.2L179.33 454.25L179.91 453.71L178.84 452.96L179.02 451.89L178.06 452.2L177.36 451.52L176.35 450.2L176.58 449.83L177.58 450.51L177.18 449.34L176.19 449.43L174.71 447.45L173.07 444.43L173.59 443.66L173.42 442.92L171.97 442.02L171.82 442.66L172.42 443.63L171.84 443.41L171.04 441.24L171.93 441.67L172.27 441.47L171.74 441.04L172.03 440.79L171.36 440.67L170.81 440.86L168.76 439.14L169.01 437.83L168.17 437.06L166.88 436.99L165.64 435.05L165.8 433.85L164.48 431.5L162.82 430.5L161.93 426.26L161.1 425.56L159.83 423.06L159.94 422.28L160.81 421.89L162.1 420.99L162.8 419.12L161.58 418.1L161.71 417.28L161.45 416.54L162.35 416.44L161.43 415.1L161.68 414.71H161.09L160.85 415L160.07 414.33L159.14 408.26L157.71 405.14L154.47 400.91L154.09 399.05L154.48 398.58L153.97 397.14L154.56 396.36L155.93 396.08L154.91 397.96L155.43 398.6L155.89 397.72L156.68 397.89L156.88 395.14L158.1 395.24L157.86 394.38L158.42 392.17L158.08 391.48L157.52 394.33L156.94 394.07L157.74 392.12L157.42 390.65L159.67 386.46L159.65 384.76L160.09 384.04L160.93 383.86L161.25 382.48L160.08 382.47L159.93 383.39L159.6 383.2L158.88 382.63L159.36 380.49L159.26 376.89L157.38 373.74L156.99 371.98L155.82 370.55L156.71 369.65L155.78 369.58L155.35 369.89L151.08 362.76L152.38 363.25L153.75 365.49L153.56 365.96L154.75 366.17L155.26 365.45L153.68 363.2L153.63 361.71H151.34L151.66 361.18L150.77 361.28L150.51 361.63L149.07 359.44L149.81 357.79L149.08 353.99L148.83 353.23L148.15 353.91L146.47 351.46L146.38 350.12L146.05 349.73L145.82 349.58L144.84 347.35L144.77 344.75L149.89 344.35L152.97 343.43L153.79 343.77L155.92 347.19L158.34 349.04L161.76 353.12L163.44 354.42L164.99 354.65L169.87 353.54L171.45 353.91L171.88 357.77L172.58 358.35L183.02 355.1L187.78 354.79L188.85 356.18L189.13 359.43L186.48 366.36L186.54 367.22L187.13 367.96L191.11 369.14L193.2 371.05L193.65 373.36L192.82 377.23L193.47 378.81L198.23 379.37L200.56 378.25L205.19 374.15L211.98 376.36L213.6 376.34L218.07 369.68L227.41 362.56L232.53 357.24L234.98 355.47L240.65 353.16L241.21 352.4L240.81 350.83L235.46 347.89L234.7 347.23L234.5 345.74L238.09 342.87L249.84 337.04L250.9 335.51L251.59 333.3L251.43 330.08L250.32 327.56L250.9 325.24L254.14 324.21L259.17 324.86Z" fill="#CCCCCC" stroke="white" stroke-width="0.5"/>
<path d="M131.57 325.5L130.67 324.89L130.34 325.5L129.64 325.21L129.31 324.77L128.21 323.77L128.59 322.87L127.59 323.28L126.56 321.75L124.74 320.56L124.9 320.25L124.28 319.91L123.15 320.37L119.51 317.53L120.13 317.02L119.54 316.73L120.12 315.05L118.73 315.81L119.18 316.19L118.74 317.46L117.06 317.27L114.31 315.21L113.12 313.1L112.33 313.26L111.95 312.55L111.26 312.41L111.17 311.58L109.62 312.18L108.58 311.82L108.5 312.63L109.04 312.79L108.67 313.7L107.16 313.75L106.5 312.77L105.33 312.86L103.51 310.15L102.02 309.08L102.33 307.26L103 307.72L103.26 306.6L102.08 305.13L101.66 303.68L100.62 302.8L101.17 299.56L102.12 298.09L107.77 297.61L110.13 296.7L110.92 295.99L112.09 294.18L112.64 293.47L114.19 293.06L116.5 293.51L119.08 293.48L120.69 292.65L121.61 291.11L121.83 289.55L121.72 286.37L121.5 276.1L122.34 271.33L122.44 270.59L122.69 268.29L121.57 266.89L118.4 266.76L117.66 266.45L115.87 260.13L114.07 256.25L110.35 252.92L108.18 251.07L107.51 249.43L106.97 247.16L106.24 246.55L104.01 245.4L100 242.88L98.47 243.05L96.52 244.83L96.24 243.27L95.43 240.15L93.74 236.98L93.07 235.3L93.23 232.97L96.38 227.43L96.64 225.67L96.28 224.49L94.74 223.54L89.96 222.19L88.36 220.88L87.36 219.3L86.67 216.67L87.48 207.74L86.49 203.54L85.06 202.16L83.52 201.98L80.4 202.67L79.59 202.19L79.5 201.44L80.5 199.97L83.62 199.28L85.24 198.85L86.91 198.04L88.5 197.47L91.72 195.97L93.36 194.91L94.12 194.57L95.67 194.18L99.63 195.84L101.99 197.58L104.41 197.89L106.14 197.47L111.99 194.14L113.54 193.68L114.32 193.99L115.43 195.51L116.23 198.67L116.79 200.35L119.24 204.62L120.33 206.17L121.14 206.73L122.66 206.99L128.04 207.23L129.04 208.47L128.84 210.06L128.99 210.85L130.46 211.89L132.73 213.31L132.88 214.06L132.45 216.46L132.64 217.21L133.38 217.55L134.13 217.54L135.7 216.35L137.24 214.98L138.93 213.69L140.58 213.36L146.74 215.87L147.54 215.23L147.02 213.73L146.71 212.23L147.13 211.5L147.88 211.46L149.16 212.64L150.12 215.72L152.48 216.55L154.84 217.13L157.11 218.56L158.63 219.79L161.05 221.62L163.31 222.03L169.88 221.51L180.33 219.49L181.86 219.42L182.63 219.85L183.85 221.28L184.41 222.29L185.09 223.85L185.33 226.51L184.58 228.93L182.96 231.18V232.81L184.14 234.31L184.91 234.55L188.18 233.71L188.91 233.96L189.27 234.75L189.16 238.91L187.26 249.82L189.34 259.62L188.82 269.76L189.45 271.37L190.75 272.86L192.31 273.57L193.86 273.6L203.23 270.36L211.29 269.97L213.7 268.79L217.57 264.15L220.84 262.9L227.52 262.75L239.32 265.06L246.24 266.89L247.59 268.05L247.87 270.03L247.3 281.35L249.04 283.37L254.34 284.76L255.75 285.89L258.9 296.68L262.98 300.06L262.58 303.2L259.63 307.45L260.57 311.05L259.16 315.93L259.2 324.96L254.15 324.11L250.92 325.14L250.34 327.46L251.45 329.98L251.61 333.21L250.92 335.42L249.86 336.95L238.11 342.79L234.52 345.66L234.72 347.15L235.48 347.81L240.83 350.75L241.23 352.32L240.67 353.08L235 355.39L232.55 357.16L227.43 362.49L218.09 369.61L213.62 376.27L212 376.29L205.21 374.08L200.58 378.18L198.25 379.3L193.49 378.74L192.84 377.16L193.67 373.3L193.22 370.99L191.13 369.08L187.15 367.9L186.56 367.16L186.5 366.3L189.15 359.38L188.87 356.13L187.8 354.74L183.04 355.05L172.6 358.3L171.9 357.72L171.47 353.86L169.89 353.49L165.01 354.6L163.46 354.37L161.79 353.07L158.37 348.99L155.95 347.15L153.83 343.73L153.01 343.39L149.93 344.31L144.81 344.71L144.6 344.74L144.48 344.76L143.84 341.52L142.52 340.2L142.73 339.15L141.76 339.55L141.11 339.2L140.98 339.95L141.82 340.35L141.45 340.75L140.59 340.25L140.69 338.74L140.12 337.39L140.25 336.87L139.47 336.47L138.77 335.65L137.82 332.86L137.81 331.23L136.79 330.11L135.87 330.02L135 328.46L132.59 326.81L132.01 325.78L131.57 325.5Z" fill="#CCCCCC" stroke="white" stroke-width="0.5"/>
<path d="M545.81 263.45L547.03 263.98L547.38 266.05L546.78 264.73L545.77 264.13L545.81 263.45ZM537.46 224.44L538.33 225.13L538.28 226.73L537.1 225.57L536.09 225.45L536.3 224.8L537.46 224.44ZM519.09 195.3L520.84 196.35L524.95 197.43L523.08 197.48L522.56 197.22L520.19 197.97L519.74 197.37L520.19 197.12L520.08 196.63L518.91 196.08L516.78 198.42L517.12 198.99L516.72 198.86L516.5 198.08L517.05 196.53L517.75 195.66L519.09 195.3ZM538.66 228.85L539.04 229.84L539.5 228.21L539.95 228.32L539.89 230.71L540.68 231.15L541.87 229.39L541.51 229.06L541.89 227.25L542.14 227.64L542.26 228.7L542.64 228.09L542.69 229.27L541.71 229.85L541.79 230.9L541.16 231.01L542.81 232.53L543.33 234.15L542.79 238.25L543.24 238.93L542.88 238.96L542.78 240.44L541.78 241.57L541.97 240.79L541.1 239.57L540.94 241.81L541.36 242.33L540.53 244.45L540.72 245.75L539.97 246.17L537.35 240.21L536.59 239.67L536.07 239.99L534.92 242.78L535.81 244.07L535.29 244.74L535.33 247.76L535.94 247.92L536.74 247L537.55 247.74L538.92 247.84L539.42 248.59L539.27 249.38L539.9 249.95L539.21 250.11L538.84 251.15L540.12 254.06L541.93 256.74L543.02 257.4L543.72 259.42L544.47 259.82L544.24 260.7L543.83 260.88L543.43 259.41L542.01 259.08L541.01 257.61L540.46 257.78L539.99 257.2L540.67 258.94L541.76 259.7L541.81 260.26L542.32 259.54L542.54 259.82L542.78 261.62L544.06 262.78L544.73 264.24L545.99 264.68L546.06 265.78L548.1 268.32L548.5 268.36L548.45 267.26L547.77 266.35L548.43 265.82L549.05 267.46L552.28 269.95L553.61 273.99L553.27 276.4L554.52 278.43L554.11 280.21L554.94 282.77L554.67 283.65L555.56 284.1L555.06 283.45L555.38 282.63L557.9 286.16L558.95 289.46L559.9 289.5L560.44 290.19L561.93 296.72L562.57 294.88L564.15 294.58L563.9 295.06L564.98 297.19L568.67 301.57L573.25 302.37L575.7 301.41L577.33 299.61L578.49 300L579.49 299.67L579.39 300.18L579.99 300.62L580.75 300.27L580.09 301.55L580.22 303.97L581.67 303.1L582.04 301.71L583.64 300.41L583.55 299.46L584.44 299.99L584.97 299.56L585.38 301.2L586.41 300.62L587.17 301.38L586.55 302.02L585.34 302.09L584.8 303.04L584.36 302.88L583.94 304.36L580.87 306.8L580.27 309.89L579.71 310.02L579.84 311.72L582.08 312.14L582.98 310.96L585.01 310.78L586.68 311.44L588.19 313.56L589.82 313.49L590.57 314.67L590.06 318.9L624.36 360.53L648.15 365.29L707.86 379.05L714.91 371.59L730.59 397.57L707.62 470.81L604.22 507.21L564.26 515.15L506.39 521.46L474.3 537.14L453.39 562.74L448.52 574.95L446.99 575.88L449.58 551.43L457.57 487.94L477.07 335.11L477.09 327.36L475.73 320.46L472.77 314.68L471.1 312.62L461.91 303.47L452.47 297.17L450.18 295.37L449.06 293.58L448.38 289.88L448.04 282.48L448.67 267.41L448.29 244.79L447.86 239.83L446.77 237.27L442.91 235.19L434.03 232.02L432.57 229.5L426.12 223.42L424.57 223.2L420.16 224.21L417.81 224.17L415.31 222.98L405.45 216.04L402.44 215.23L396.8 215.12L394.45 214.49L390.39 211.11L386.93 206.89L381.19 205.83L370.78 199.75L369.55 198.22L368.14 193.11L366.02 190.9L362.7 188.58L361.23 186.76L360.85 185.23L362.13 180.56L371.28 168.41L383.94 144.74L392.2 136.02L404.65 131.63L409.75 131.76L412.39 130.49L416.48 127.33L447.83 131.44L448.7 132.11L452.06 137.49L452.67 140.04L452.89 144.65L456.42 149.35L456.25 150.05L481.23 149.62L482.41 150.76L483.69 151.23L483.65 153.48L484.49 154.14L484.31 154.48L485.16 154.63L484.15 157.64L485.12 159.62L486.59 160.65L488.29 162.88L487.6 163.41L487.42 166.08L487.81 167.08L489.86 169.46L493.75 170.51L492.98 171.43L492.14 171.35L492.22 172.4L493.81 174.21L494.81 174.31L494.86 175.66L496.89 176.92L496.53 179.02L496.99 179.46L496.91 179.93L496.01 180.53V179.64L495.46 179.6L495.75 177.6L495.03 178.62L494.74 177.21L493.44 181.61L494.08 181.69L494.53 180.44L494.88 182.82L495.52 181.87L495.94 182.55L495.6 183.73L496.67 183.42L496.35 184L495.83 184.11L495.78 184.93L495.46 185.62L496.58 186.16L497.33 184.84L497.96 185.03L497.39 186.07L497.5 187.36L498.31 186.95L498.21 185.91L499.77 185.12L500.71 185.49L501.79 187.06L504.38 188.22L508.04 188.16L509.73 188.99L510.34 190.32L511.46 190.95L511.66 192.77L511.1 192.62L511.35 191.93L510.99 191.39L510.28 192.54L509.74 191.93L509.03 192.64L508.28 191.92L507.54 192.39L507.23 191.94L506.54 192.86L505.72 192.52L505.39 193.25L505.8 193.04L507.34 193.98L507.9 194.69L508.91 194.45L508.88 193.4L510.24 194.17L509.63 194.93L508.9 195L509.22 195.92L508.55 197.15L510.27 196.06L511.89 196.6L511.88 200.31L512.55 201.44L513.09 201.46L513.51 201.4L514.04 201.17L515.18 201.74L514.7 203.63L514.05 203.4L513.61 203.81L514.12 203.82L513.92 204.38L514.68 204.07L515.21 205.1L515.88 203.37L516.38 203.72L516.23 204.78L517.43 204.12L518.89 204.63L518 202.95L519.27 201.64L517.54 200.06L516.86 200.14L517.51 199.1L517.3 198.57L518.04 198.1L518.5 200.07L519.61 200.13L519.84 201.63L519.1 201.94L520.07 202.9L520.97 202.2L521.56 199.51L522.53 198.2L521.54 201.15L521.1 202.71L520.47 203.67L521.02 205.63L522.19 206.79L524.59 205.36L525.66 205.77L525.63 205.86L525.14 205.85L525.05 205.89L524.78 206.36L524.51 205.89L522.23 207.05L523.19 208.28L524.68 207.92L524.52 208.65L523.96 208.67L523.98 209.86L524.69 209.89L524.93 210.74L525.06 210.94L527.36 212.75L527.73 212.86L528.94 213.59L530.07 213.96L530.86 214.57L533.84 214.87L535.91 217.08L540.4 222.37L540.89 222.82L541.3 223.22L540.71 223.31L539.41 221.58L537.73 221.15L536.75 221.83L535.52 219.88L535.46 219L534.99 221.24L535.14 222.19L535.95 222.39L535.6 223.48L535.91 226.14L536.84 228.47L538.25 230.31L538.35 229.16L538.66 228.85Z" fill="#CCCCCC" stroke="white" stroke-width="0.5"/>
<path d="M239.301 264.96L240.501 263.59L245.451 262.85L251.451 259.28L257.401 258.51L258.211 257.86L258.261 257.04L255.861 252.26L256.181 249.82L257.441 248.31L258.301 248.12L262.251 249.54L264.681 249.79L265.151 249.02L264.331 242.69L266.221 237.89L266.991 237.48L268.591 238L271.911 237.22L272.781 232.92L277.531 228.09L289.421 218.85L300.731 213.62L303.491 207.83L306.211 205.07L320.711 197.64L324.861 196.3L327.231 197.16L331.671 201.65L337.661 205.77L345.131 206.31L350.181 200.47L352.531 201.4L356.131 204.39L357.471 206.89L357.621 209.39L357.001 210.87L352.821 212.71L350.361 214.82L345.861 220.69L341.851 221.79L342.281 226.91L341.441 232.65L341.931 234.17L345.531 237.74L352.221 247.9L352.361 248.76L351.281 251.67L353.801 256.53L354.111 259.69L353.271 263.59L347.741 263.37L340.541 264.05L332.241 262.99L329.111 263.81L327.091 265.78L324.811 270.25L321.721 271.99L318.881 274.8L306.001 277.95L302.731 280.47L297.311 287.16L297.161 289.46L299.071 293.29L298.221 295.47L295.791 297.26L290.101 296.39L284.431 297.28L278.701 296.78L274.831 295.97L269.661 293.42L268.161 293.3L265.991 294.88L262.951 299.96L258.871 296.58L255.721 285.78L254.321 284.65L249.011 283.26L247.271 281.25L247.851 269.93L247.571 267.95L246.221 266.79L239.301 264.96Z" fill="#CCCCCC" stroke="white" stroke-width="0.5"/>
<path d="M184.38 222.21L186.37 219.82L188.71 212.06L191.84 208.32L196.28 204.19L196.57 201.78L196.21 201.02L193.26 199.18L192.44 198.82L188.71 196.66L187.31 192.75L187.17 191.83L186.78 190.2L184.54 180.83L183.49 178.32L182.09 176.68L179.72 175.69L178.95 175.23L177.62 172.8L176.87 172.49L174.56 171.82L173.26 170.23L170.32 167.96L165.37 166.66L163.83 166.42L159.75 165.7L157.39 165.18L156.26 163.85L159.95 159.65L166.22 156.11L176.15 151.73L180.44 151.04L193.51 143.44L206.41 137.91L209.45 138.57L213.83 140.47L216.2 140.84L237.16 135.97L249.33 139.5L254.09 138.15L258.54 137.79L273.01 141.3L275.38 143.29L279.58 148.45L282.1 149.91L286.09 149.7L290.71 147.22L293.39 146.75L294.06 147.55L294.94 153.77L296.36 155.23L297.32 155.54L303.81 155.23L309.81 158.35L312.33 157.51L317.38 154.13L318.95 153.92L320.53 155.15L321.61 156.77L326.89 166.43L329.67 174.13L331.69 176.61L334.13 178.05L344.11 179.34L347.39 180.6L349.01 181.55L355.09 187.07L356.12 188.94L352.97 190.58L350.55 193.9L349.56 197L349.5 198.59L350.18 200.47L345.13 206.31L337.66 205.77L331.67 201.65L327.23 197.16L324.86 196.3L320.71 197.64L306.21 205.07L303.49 207.83L300.73 213.62L289.42 218.85L277.53 228.09L272.78 232.92L271.91 237.22L268.59 238L266.99 237.48L266.22 237.89L264.33 242.69L265.15 249.02L264.68 249.79L262.25 249.54L258.3 248.12L257.44 248.31L256.18 249.82L255.86 252.26L258.26 257.04L258.21 257.86L257.4 258.51L251.45 259.28L245.45 262.85L240.5 263.59L239.3 264.96L227.5 262.65L220.81 262.8L217.54 264.05L213.67 268.69L211.26 269.87L203.2 270.26L193.83 273.5L192.28 273.47L190.72 272.77L189.42 271.28L188.79 269.67L189.3 259.53L187.23 249.72L189.13 238.82L189.25 234.66L188.88 233.87L188.15 233.63L184.88 234.46L184.12 234.22L182.94 232.72V231.1L184.56 228.84L185.3 226.43L185.06 223.77L184.38 222.21Z" fill="#CCCCCC" stroke="white" stroke-width="0.5"/>
<path d="M89.92 285.8L91.12 286.64V287.3L89.63 286.62L89.92 285.8ZM81.98 268.53L82.9 269.13L83.32 268.92L84.28 271.6H83.58L83.66 270.43L81.62 269.32L81.98 268.53ZM86.54 267.23L87.19 267.39L87.57 268.66L88.12 268.48L87.86 269.31L87.65 268.84L86.4 268.88L86.81 267.79L86.14 267.36L86.54 267.23ZM85.73 265.76L86.63 266.63L85.3 266.53L85.73 265.76ZM82.11 263.59L82.67 264.52L81.82 265.08L81.39 264.41L82.11 263.59ZM84.12 263.19L85.06 265.53L84.03 264.68L84.12 263.19ZM84.53 262.34L84.94 262.78L84.68 263.4L84.05 262.61L84.53 262.34ZM70.29 260.15L71.68 261.76L70.13 261.86L69.5 260.85L70.29 260.15ZM72.91 258.16L73.58 258.69L72.84 258.76L71.51 257.4L71.49 255.73L71.96 257.52L73.01 256.89L72.91 258.16ZM7.81 171.96L8.69 172.15L9.29 173.68L8.27 174.11L7.54 172.58L7.09 172.61L7.03 173.43L6.43 173.32L6.67 172.42L7.81 171.96ZM2.46 169.83L2.94 170.54L1.71 171.03L1.26 170.71L1.28 171.09L2.38 171.93L4.31 171.59L4.21 172.4L5.38 173.47L3 173.82L1.33 172.57L1 170.41L2.46 169.83ZM50.4 132.45L55.48 134L57.99 135.93L59.98 138.3L61.15 139.94L67.38 148.07L69.1 148.71L70.91 148.39L74.19 147.01L78.58 145.98L83.04 145.15L88.2 145.87L92.82 147.67L101.37 148.39L102.94 147.82L105.52 141.77L106.78 140.29L108.36 139.57L111.23 136.69L112 136.28L113.57 137.23L114.03 138.87L113.58 146.06L113.89 150.45L114.46 153.09L115.21 154.73L118.69 158.28L121.11 159.49L124.42 160.59L134.56 161.77L136.96 160.02L137.75 159.98L139.29 161.24L140.07 161.71L141.71 161.4L142.46 161.61L143.25 164.08L144.54 165.16L146.27 165.07L149.83 163.19L153.22 162.2L154.86 162.69L156.26 163.91L157.39 165.23L159.75 165.75L163.83 166.47L165.37 166.71L170.32 168.02L173.26 170.29L174.56 171.89L176.87 172.56L177.62 172.87L178.95 175.29L179.73 175.75L182.09 176.74L183.5 178.38L184.54 180.89L186.78 190.26L187.17 191.89L187.31 192.81L188.71 196.72L192.44 198.87L193.25 199.23L196.21 201.07L196.56 201.83L196.27 204.24L191.83 208.37L188.7 212.11L186.37 219.88L184.38 222.27L183.82 221.26L182.6 219.83L181.83 219.4L180.3 219.48L169.85 221.51L163.28 222.03L161.02 221.63L158.6 219.8L157.08 218.57L154.81 217.14L152.45 216.56L150.1 215.73L149.14 212.65L147.86 211.48L147.11 211.52L146.69 212.25L147 213.76L147.52 215.26L146.72 215.9L140.57 213.39L138.92 213.72L137.24 215.01L135.7 216.38L134.13 217.57L133.38 217.58L132.64 217.24L132.45 216.49L132.88 214.09L132.73 213.34L130.46 211.92L128.99 210.88L128.84 210.09L129.04 208.5L128.04 207.26L122.66 207.03L121.14 206.77L120.33 206.21L119.24 204.66L116.79 200.39L116.23 198.71L115.43 195.55L114.32 194.03L113.55 193.72L112 194.18L106.15 197.51L104.42 197.93L102 197.62L99.65 195.88L95.69 194.22L94.14 194.61L93.38 194.95L91.74 196.01L88.52 197.51L86.93 198.08L85.26 198.89L83.64 199.32L80.52 200.01L79.52 201.48L79.61 202.23L80.42 202.71L83.54 202.03L85.08 202.21L86.51 203.59L87.5 207.79L86.69 216.72L87.38 219.35L88.38 220.93L89.98 222.24L94.76 223.59L96.3 224.54L96.66 225.72L96.4 227.48L93.25 233.02L93.09 235.35L93.76 237.03L95.45 240.2L96.26 243.32L96.54 244.88L98.49 243.1L100.02 242.93L104.03 245.45L106.26 246.61L106.99 247.23L107.53 249.5L108.2 251.14L110.37 252.99L114.09 256.32L115.89 260.2L117.68 266.52L118.42 266.83L121.59 266.96L122.71 268.36L122.46 270.66L122.36 271.4L121.52 276.17L121.74 286.44L121.86 289.62L121.64 291.18L120.72 292.72L119.11 293.55L116.53 293.58L114.22 293.13L112.67 293.54L112.12 294.25L110.95 296.06L110.16 296.77L107.8 297.68L102.15 298.16L101.2 299.63L100.65 302.87L99.03 299.97L99.17 299.28L98.33 299.61L97.77 297.97L94.99 296.46L95.32 296.01L94.55 294.35L95.39 294.42L95.34 293.18L94.42 292.83L94.84 293.24L94.06 293.82L92.73 292.04L93.47 291.44L94.82 291.74L93.93 292.18L95.13 292.55L95.48 291.37L96.63 290.43L95.94 288.94L97.27 285.83L95.82 283L96.61 281.54L96.02 278.92L91.35 273.7L89.98 270.21L90.07 268.64L87.37 266.45L87.41 264.67L86.48 264.42L86.26 262.35L85.19 260.78L83.08 259.87L80.85 256.69L80.46 256.7L80.99 258.21L80.62 258.39L80.01 258.33L79.48 257.44L78.58 257.38L77.48 256.52L77.66 255.46L77.17 255.85L76.72 255.33L76.14 253.41L75.18 253.11L76.8 250.55L77.44 248.24L77.2 246.3L75.41 245.18L72.64 245.02L72.36 244.85L70.01 242.89L68.92 239.2L65.85 234.21L63.68 228.51L61.04 224.04L59.02 221.87L58 219.89L56.25 218.92L54.46 214.71L54.3 212.98L51.29 209.66L49.36 208.56L49.07 207.75L45.99 204.67L45.56 202.57L46.57 201.51L46.26 200.36L43.96 196.58L41.4 195.27L38.81 192.31L38.63 190.95L36.84 188.55L36.44 185.45L34.96 183.56L34.58 181.57L33.56 179.71L32.71 178.85L30.86 178.29L30.67 175.78L28.18 173.78L27.53 172.16L24.21 170.44L24.02 169.86L26.2 169.21L26.13 168.62L24.13 168.26L23.45 167.67L22.15 167.73L20.45 166.07L19.89 166.29L18.99 165.69V165.95L19.5 166.76L18.4 166.11L16 167.43L13.75 167.26L13.22 167.67L12.99 166.71L14.01 166.15L12.35 166.26L11.77 167.61L11.5 167.19L12.14 166.07L11.58 166.15L11.04 166.88L10.02 166.72L10.46 167.99L9.5 168.01L9.94 166.33L8.59 166.14L8.91 165.81L8.47 164.98L8.22 165.47L7.5 165.17L6.37 166.73L6.96 167.83L6.28 167.97L5.57 169.41L4.79 167.96L4.99 166.68L4.46 166.46L3.71 166.96L3.72 166.17L5.68 163.64L6.65 164L6.23 162.96L6.83 162.53L7.59 159.99L7.25 159.91L10.56 151.74L11.71 150.01L11.44 146.5L10.67 144.57L12.59 138.81L12.62 135.86L15.85 136.02L17.49 135.41L19.98 136.19L25.23 136.88L27.15 136.76L29.46 134.51L32.72 133.67L38.75 132.58L41.1 132.8L44.41 132.11L47.79 131.94L50.4 132.45Z" fill="#CCCCCC" stroke="white" stroke-width="0.5"/>
<path d="M404.62 131.53L392.16 135.92L383.91 144.64L371.25 168.32L362.1 180.47L360.81 185.14L361.2 186.66L362.67 188.49L361.37 190.72L359.57 191.58L358.06 191.06L356.12 188.94L355.09 187.07L349.01 181.55L347.39 180.6L344.11 179.34L334.13 178.05L331.69 176.61L329.67 174.13L326.89 166.43L321.61 156.77L320.53 155.15L318.95 153.92L317.38 154.13L312.33 157.51L309.81 158.35L303.81 155.23L297.32 155.54L296.36 155.23L294.94 153.77L294.06 147.55L293.39 146.75L290.71 147.22L286.09 149.7L282.1 149.91L279.58 148.45L275.38 143.29L273.01 141.3L258.54 137.79L254.09 138.15L249.33 139.5L237.16 135.97L216.2 140.84L213.83 140.47L209.45 138.57L215.07 132.88L215.96 126.82L216.35 117.46L217.75 114.99L223.91 110.27L251.18 93.42L256.44 88.69L256.34 87.12L248.56 80.86L245.43 74.47L243.34 71.97L239.74 70.38L234.29 70.42L231.06 69.77L223.49 63.69L220.79 62.43L213.78 63.31L195.83 62.69L192.13 61.57L188.15 58.13L186.37 57.36L181.99 57.28L162.98 53.83L154.93 53.97L147.68 55.33L134.1 56.82L130.68 56.78L128.37 56.16L126.18 54.26L122.29 47.3L117.59 43.61L117.01 36.89L119.85 28.55L121.12 22.49L156.15 12.18L166.67 3.01L166.22 1L167.38 2.54L169.71 3.95L188.27 9.37L194.34 12.21L197.76 14.52L286.45 77.18L352.5 122.83L359.5 124.45L404.62 131.53Z" fill="#CCCCCC" stroke="white" stroke-width="0.5"/>
<path d="M261.26 594.69L261.68 594.88L261.86 594.79L262.2 595.05L261.55 596.17L260.87 595.41L261.26 594.69ZM260.78 591.47L261.14 592L260.72 593.5L260.64 592.54L260.15 593.31L259.59 592.14L259.94 591.58L260.78 591.47ZM254.3 590.98L255.72 592.04L254.92 591.85L254.3 590.98ZM250.82 588.51L252.75 589.01L253.88 590.64L250.68 589.61L250.03 588.85L250.82 588.51ZM260.48 584.76L260.97 585.1L259.35 585.24L260.48 584.76ZM251.3 582.95L254.47 584.79L255.94 587.9L258.29 588.57L259.88 588.21L260.87 589.55L262.47 589.08L262.19 588.18L261.75 588.11L262.03 588.73L261.19 588.77L260.76 588.16L261.28 587.58L261.38 586.3L261.97 586.4L262.15 585.77L263.01 585.87L263.22 587.3L263.98 588.32L264.4 588.24L264.99 589.24L265.9 589.03L265.93 589.54L266.4 589.48L266.32 590.42L265.7 591.07L266.14 594.04L265.21 594.15L263.97 592.73L262.16 592.36L263.4 591.76L263.31 590.5L261.51 590.06L258.47 590.99L256.5 589.35L255.36 589.03L254.17 588L253.21 586.1L251.88 586.07L252.34 584.82L251.34 584.01L251.3 582.95ZM244.83 582.79L246.88 585.84L245.29 585.24L245.5 584.91L244.75 584.22L244.83 582.79ZM256.76 580.71L257.9 581.49L257.34 582.43L257.92 583.35L259.3 583.77L259.17 584.64L257.87 584.32L257.13 584.91L259.32 586.57L260.06 587.61L259.78 588.06L259.02 586.91L256 585.91L254.17 583.3L254.18 582.22L255.82 582.02L256.76 580.71ZM248.73 580.49L250.24 581.59L249.55 582.75L248.55 583.06L247.61 581.9L248.73 580.49ZM252.35 579.63L253.48 580.28L253.01 580.85L252.57 580.79L252.35 579.63ZM257.51 579.87L257.93 581.28L255.87 579.2L257.51 579.87ZM251.73 531.94L256.19 531.47L257.45 532.5L256.63 539.77L256.91 541.27L257.65 541.74L260.6 541.29L262.75 541.52L263.83 542.87L264.68 545.76L265.41 546.4L273.69 546.8L274.97 548.04L276.56 551.77L279.81 554.94L281.33 555.57L282.74 555.43L283.3 554.77L284.97 548.02L286.18 545.92L289.05 543.76L291.26 542.88L292.26 544L292.13 548.42L295.73 550.24L298.37 554.88L299.06 555.45L302.01 556.05L303.99 559.06L304.96 560.45L303.04 563.37L303.13 565.74L304.68 566.64V567.29L305.49 567.64L305.75 568.33L301.26 569.74L301.68 571.61L300.16 572.98L300.21 574.43L299.59 574.75L299.53 575.63L299.62 575.98L300.6 575.58L302.23 576.06L303.05 577.7L302.5 578.61L300.23 578.35L300.49 581.16L298.99 581.86L298.95 582.46L300.4 584.35L301.95 584.69L302.28 585.52L303.29 586L303.07 587.26L303.55 588.12L302.12 588.23L301.8 589.04L302.29 591.64L301.45 591.79L299.38 590.68L298.72 590.86L299.16 591.76L298.13 594.5L298.18 595.56L293.76 596.72L292.09 597.91L292.51 600.62L290.8 601L285.98 600.51L285.64 599.82L286.24 598.05L285.03 596.89L284.19 594.68L284.75 591.12L284.42 590.83L283.95 590.23V589.3L283.96 588.73L281.45 585.62L280.04 584.93L279.4 585.18L279.01 583.83L278.5 583.64L277.81 583.33L278.88 582.37L278.35 580.98L278.66 579.13L277.29 578.01L275.12 577.34L273.79 575.46L274.02 573.63L273.56 573.45L272.44 572.78L272.18 573.08L273.31 575.03L272.65 575.69L272.7 577.67L272.4 578.62L272.22 574.89L271.24 571.7L270.71 567.54L270.15 567.23L270.81 565.12L270.52 563.49L269.08 563.11L267.51 560.64L265.54 559.13L264.56 559.18L264.36 557.69L263.57 556.75L256.25 551.54L255.6 550.51L254.15 550.18L252.91 549.16L251.86 549.13L252.05 548.33L248.27 544.85L248.96 544.84L247.95 543.93L248.21 542.86L247.62 543.65L247.13 543.32L247.01 542.77L247.6 542.59L247.38 541.58L245.99 541.04L245.23 539.25L247.2 536.1L250.75 534.05L251.73 531.94Z" fill="#CCCCCC" stroke="white" stroke-width="0.5"/>
<path d="M400.661 570.25L383.431 567.89L377.181 567.47L370.931 563.44H351.201L349.811 564.42L347.861 564.69L345.221 563.3L342.521 563.42L333.731 564.54L332.911 566.06L331.831 564.72L328.881 565.25L327.511 567.17L324.901 566.45L323.301 566.88L321.331 566.59L320.651 565.7L318.631 566.06L316.041 563.36L316.111 562.32L317.261 559.08L315.961 553.15L316.631 551.68L317.401 543.31L316.021 537.19L316.101 535.53L316.981 533.84L320.061 530.41L328.271 522.85L329.351 521.37L330.411 518.35L331.361 517.3L337.681 515.28L340.061 513.86L341.281 512.45L342.251 510.23L342.421 508.11L340.661 499.54L341.351 497.95L345.201 496.01L346.321 494.62L346.361 488.54L354.871 494.13L360.091 496.52L363.331 497.24L372.181 497.94L431.031 492.9L447.421 490.51L457.551 487.88L449.561 551.37L446.971 575.82L439.491 580.54L432.461 580.18L424.281 569.14L413.581 570.67L400.661 570.25Z" fill="#CCCCCC" stroke="white" stroke-width="0.5"/>
<path d="M260.739 447.97L258.589 454.39L258.819 455.18L260.869 457.15L260.979 458.74L259.939 460.19L254.119 464.16L253.279 465.95L253.509 469.5L249.249 478.19L248.459 478.7L243.839 478.74L242.319 479.32L239.919 483.78L237.339 492.77L235.129 493.85H232.549L230.959 492.8L228.899 489.74L225.219 487.61L223.919 486.07L224.179 481.64L223.269 477.75L223.579 472.46L222.609 470.94L218.959 469.84L218.289 469.14L218.109 467.73L222.119 463.63L229.849 461.77L231.219 458.21L233.909 453.58L234.029 451.23L232.919 446.68L233.619 444.57L234.979 443.15L237.239 442.84L238.669 443.45L239.879 444.9L241.159 448.68L243.079 450.14L247.689 448.37L251.859 448.57L257.269 445.82L258.759 446.04L260.739 447.97Z" fill="#CCCCCC" stroke="white" stroke-width="0.5"/>
<path d="M14.1591 126.9L14.8191 124.08L15.5591 123.32L15.3791 122.5L16.4191 121.89L15.9391 119.97L16.7491 119.51L16.5091 118.65L17.1191 117.29L55.3291 124.08L69.9791 112.01L78.8291 97.23L104.589 92.07L110.369 78.89L121.689 72.11L87.4291 32.39L121.119 22.49L119.849 28.55L117.009 36.89L117.589 43.61L122.289 47.3L126.179 54.26L128.369 56.16L130.679 56.78L134.099 56.82L147.679 55.33L154.929 53.97L162.979 53.83L181.989 57.28L186.369 57.36L188.149 58.13L192.129 61.57L195.829 62.69L213.779 63.31L220.789 62.43L223.489 63.69L231.059 69.77L234.289 70.42L239.739 70.38L243.339 71.97L245.429 74.47L248.559 80.86L256.339 87.12L256.439 88.69L251.179 93.42L223.909 110.27L217.749 114.99L216.349 117.46L215.959 126.82L215.069 132.88L209.449 138.57L206.409 137.91L193.509 143.44L180.439 151.04L176.149 151.73L166.219 156.11L159.949 159.65L156.259 163.85L154.849 162.64L153.219 162.15L149.829 163.15L146.269 165.03L144.539 165.11L143.239 164.03L142.459 161.56L141.709 161.35L140.069 161.67L139.299 161.2L137.759 159.94L136.959 159.98L134.559 161.73L124.429 160.55L121.109 159.45L118.689 158.24L115.219 154.69L114.469 153.06L113.899 150.41L113.589 146.02L114.039 138.83L113.579 137.19L112.009 136.25L111.239 136.66L108.369 139.54L106.789 140.26L105.529 141.73L102.949 147.79L101.379 148.36L92.8291 147.65L88.2091 145.85L83.0491 145.13L78.5791 145.97L74.1891 147L70.9091 148.37L69.0991 148.7L67.3791 148.06L61.1491 139.93L59.9791 138.29L57.9891 135.92L55.4791 133.99L50.3991 132.45L47.7891 131.94L44.4091 132.11L41.0991 132.8L38.7491 132.58L32.7191 133.67L29.4491 134.5L27.1491 136.76L25.2191 136.88L19.9791 136.19L17.4891 135.41L15.8491 136.02L12.6191 135.86L13.0091 132.9L13.6491 131.63L13.2391 129.97L14.0591 128.62L14.1591 126.9Z" fill="#CCCCCC" stroke="white" stroke-width="0.5"/>
<path d="M303.969 559.04L301.989 556.03L299.039 555.43L298.359 554.86L295.709 550.23L292.109 548.41L292.249 543.99L291.249 542.87L289.039 543.75L286.169 545.91L284.959 548.01L283.299 554.76L282.729 555.42L281.329 555.56L279.809 554.93L276.559 551.77L274.969 548.04L273.689 546.8L265.409 546.4L264.679 545.76L263.829 542.87L262.749 541.52L260.589 541.29L257.649 541.74L256.909 541.27L256.629 539.77L257.459 532.5L256.189 531.47L251.729 531.94L253.229 525.53L250.259 516.39L248.149 515.19L241.439 514.98L240.009 514.49L238.979 513.02L238.369 510.05L238.859 500.05L240.829 501.93L241.579 501.87L245.449 499.05L247.689 498.67L252.429 499.11L253.949 498.36L254.709 496.94L255.979 492.34L253.789 487.9L255.099 480.98L254.889 479.47L253.039 477.58L250.749 477.45L249.249 478.19L253.509 469.5L253.279 465.95L254.119 464.16L259.939 460.19L260.979 458.74L260.869 457.15L258.819 455.18L258.589 454.39L260.739 447.97L265.409 457.05L266.809 458.07L269.089 458.31L271.399 457.18L281.509 447.93L287.919 444.87L292.179 441.07L296.729 440.79L299.889 439.27L302.149 439.03L307.359 440.33L313.079 436.56L317.099 435.1L322.859 440.11L325.929 445.04L329.529 448.64L330.589 450.37L330.509 453.33L327.169 459.42L325.939 465.53L326.159 467.13L328.909 470.09L332.819 476.45L346.359 488.54L346.319 494.62L345.199 496.01L341.349 497.95L340.659 499.54L342.419 508.11L342.249 510.23L341.279 512.45L340.059 513.86L337.679 515.28L331.359 517.3L330.409 518.35L329.349 521.37L328.269 522.85L320.059 530.41L316.979 533.84L316.099 535.53L316.019 537.19L317.399 543.31L316.629 551.68L315.959 553.15L317.259 559.08L316.109 562.32L315.999 564.12L313.629 561.82L308.339 558.45L305.879 558.11L303.969 559.04Z" fill="#CCCCCC" stroke="white" stroke-width="0.5"/>
</svg>
