<svg width="545" height="794" viewBox="0 0 545 794" fill="none" xmlns="http://www.w3.org/2000/svg">
<path d="M207.309 345.22L205.289 345.6L201.409 348.99L200.689 352.38L194.869 353.35L191.479 355.29L183.979 347.54L179.619 341.24L179.369 339.55L183.489 339.06L184.219 336.64L181.309 333.98L183.729 330.83L183.489 327.68L186.399 325.99L187.119 322.11L184.939 320.42L186.399 318.24L186.879 313.64L182.039 309.76L181.799 303.22L180.099 300.56L174.529 310.73L171.629 308.79L170.409 305.89L167.509 303.71L165.089 303.95L164.119 307.82L160.969 309.04L158.789 306.37L155.159 305.16L152.249 302.74L153.699 299.59L153.949 294.99L151.279 293.05L150.289 288.09L153.009 286.11L154.679 283.1L157.509 280.57L169.799 274.71L163.979 270.21L164.109 268.75L168.619 265.51L170.089 262.31L168.429 258.72L168.749 256.3L175.329 254.57L177.569 253L177.789 250.78L174.569 246.89L174.509 243.72L176.509 239.67L181.489 235.55L193.179 229.92L192.089 226.18L192.769 223.24L194.269 221.63L198.939 220.24L200.739 217.98L201.569 215.27L201.129 211.63L199.889 209.12L197.149 208.39L198.839 206.21L204.169 205L207.989 204.8L208.279 211.51L213.649 216.59L216.049 222.34L222.619 225.34L222.359 227.42L225.729 234.89L232.399 234.69L234.399 235.75L238.509 252.09L235.769 260.01L237.399 265.89L242.759 269.57L249.589 279.42L254.599 282.62L258.539 283.2L259.049 283.22L258.269 287.1L258.759 292.42L261.419 293.15L264.329 297.02L255.119 298.48L251.009 301.63L254.399 304.77L256.089 307.92H259.729L259.479 310.83L264.329 316.15L265.779 320.76L263.119 322.94L260.449 322.69L257.789 321L255.369 321.73L253.909 327.29L251.489 330.2L258.269 336.74L255.119 338.43L255.349 343.22L253.239 341.49L249.849 340.76L248.879 337.85L245.239 337.61L243.309 339.31L239.189 338.82L237.009 335.92L236.769 332.28L234.099 331.07L231.679 331.8L230.469 333.49L225.629 334.71L223.689 326.23L215.699 324.78L214.249 323.08L210.859 322.11L210.129 325.5L208.429 327.44L209.649 330.1L211.819 331.31L213.279 334.46L207.709 341.49L207.309 345.22Z" fill="#CCCCCC" stroke="white" stroke-width="0.5"/>
<path d="M137.439 80.03L129.149 85.66L125.029 86.87L123.089 89.53L125.269 91.23V95.1L119.949 101.4V106.24L117.769 109.15L114.129 108.91L103.479 103.1L99.1186 102.85L104.929 98.74L103.239 95.35L96.6986 90.99L98.8786 89.05L99.1186 86.63L91.1286 82.51L88.2186 86.87L81.4386 80.33L79.0186 74.76L71.2686 66.77L69.3286 61.44L70.0586 57.57L67.6386 52.72L70.0586 49.82L72.2386 49.09L73.2086 46.43L68.6086 47.88L68.8486 43.52L63.8486 38.36L64.3486 37.81L61.8086 33.62L72.3586 26.9L74.4986 29.77L78.9486 27.85L85.4586 21.37L85.4086 18.7L93.1386 14.23L90.9686 11.64L90.5286 9.59L92.0186 8.3L93.5086 8.75L96.9986 6.1L98.4386 3.24L107.149 4.72L110.949 1L113.479 2.74L115.289 1.5L118.059 4.79L119.919 4.75L123.569 9.21L131.009 12.59L135.649 8.58L139.519 7.71L141.009 12.77L139.799 15.43L137.619 17.37L136.169 27.54L130.119 40.37L128.909 50.06L131.089 53.94V56.6L128.179 57.33L127.699 60.47L130.119 65.07L129.879 70.16L131.329 72.1L132.049 75.49L134.719 77.18L135.439 79.36L137.439 80.03Z" fill="#CCCCCC" stroke="white" stroke-width="0.5"/>
<path d="M198.382 206.8L194.872 204.95L191.972 199.38L188.332 196.23L191.002 194.54L189.552 190.66L194.152 187.03L196.572 183.4L193.662 178.07L182.282 166.2L187.612 162.57L189.062 159.91L186.642 157.73L182.042 156.03L179.862 153.13V148.53L181.802 146.59L182.522 144.17L181.072 140.29L177.442 143.44L174.052 142.23L175.022 136.18L173.802 133.03L170.412 132.06L169.452 128.91L166.782 127.22L163.882 133.03L161.212 135.69L159.522 133.03L160.002 128.43L161.702 125.52L159.762 122.13L167.272 117.77L170.412 114.38L166.782 113.17L161.702 114.86L161.452 111.23L165.092 109.54L165.332 105.18L157.582 106.87L156.852 103.73L158.312 102.03L166.782 101.3L164.602 94.52L167.022 91.62H172.592L175.262 89.68V85.8L172.112 82.9L174.052 81.69L175.742 78.06L191.482 75.88L196.082 77.33L198.992 76.12L203.352 83.87L204.562 88.47L208.682 90.89L207.712 94.76L201.172 97.91V102.03L196.812 107.12L200.202 110.02L206.742 110.26L214.252 106.39L216.912 108.08H222.242L220.542 98.88L222.482 94.28L227.812 89.68L230.232 92.1H234.592L235.072 83.14L237.492 79.51L237.982 75.88L240.582 74.93L243.362 74.55L244.482 81.55L245.442 83.24L247.262 83.63L249.662 82.29L255.052 82.53L256.262 76.64L261.392 78.68L260.452 83.57L259.422 83.7L258.742 85.76L258.712 92.77L257.882 95.12L258.792 96.05L259.012 100.6L256.992 102.61L255.702 106.92L253.902 108.77L254.742 114.25L257.702 113.27L262.572 122.89L259.412 126.47L254.292 129.46L255.402 131.21L254.572 133.11L262.672 133.15L267.102 135.95L268.882 139.37L268.062 139.3L267.522 141.84L266.592 141.88L271.432 144.7L273.962 144.59L275.942 149.02L275.222 149.11L275.372 150.07L277.592 150.25L279.132 153.71L282.012 155.46L283.842 157.94L285.662 158.26L286.162 160.67L284.332 162.62L273.672 164.32L268.102 168.92L260.112 172.06L265.442 175.46L264.472 177.63L261.082 178.6L254.542 182.72L248.972 190.95L239.532 181.27L231.052 179.81L229.362 177.88L227.422 178.85L225.732 183.93L219.432 182.96L217.252 184.17L214.342 187.32L211.922 191.92L212.412 199.67L209.742 201.61L208.772 204.76L204.172 205L198.842 206.21L198.382 206.8Z" fill="#CCCCCC" stroke="white" stroke-width="0.5"/>
<path d="M170.559 91.6201V89.7801L168.379 86.6301L158.209 83.7201H152.149L147.549 81.0601L138.349 80.3301L135.439 79.3601L134.719 77.1801L132.049 75.4901L131.329 72.1001L129.879 70.1601L130.119 65.0701L127.699 60.4701L128.179 57.3301L131.089 56.6001V53.9401L128.909 50.0601L130.119 40.3701L136.169 27.5401L137.619 17.3701L139.799 15.4301L141.009 12.7701L139.519 7.71005L145.839 3.76005L153.969 3.71005L157.769 4.47005L159.519 9.14005L162.409 8.67005L163.049 9.38005L167.529 3.43005L169.059 6.88005L172.789 9.49005L175.639 8.78005L178.149 6.84005L184.589 13.6101L186.779 12.2901L187.319 14.9601L189.409 12.9201L188.839 14.8601L191.299 14.9001L189.029 16.1001L189.989 18.4101L193.699 20.5901L194.709 23.3101L199.019 27.5901L198.589 29.5701L200.819 35.4501L199.559 36.7901L207.249 43.2201L212.649 42.2901L217.319 45.4701L221.529 56.9401L225.939 55.4701L225.499 54.3401L228.479 53.5601L230.059 61.2101L231.759 60.7801L232.319 62.6601L233.979 62.2101L240.319 68.7001L239.059 71.9301L240.579 74.9301L237.979 75.8801L237.489 79.5101L235.069 83.1401L234.589 92.1001H230.229L227.809 89.6801L222.479 94.2801L220.539 98.8801L222.239 108.08H216.909L214.249 106.39L206.739 110.26L200.199 110.02L196.809 107.12L201.169 102.03V97.9101L207.709 94.7601L208.679 90.8901L204.559 88.4701L203.349 83.8701L198.989 76.1201L196.079 77.3301L191.479 75.8801L175.739 78.0601L174.049 81.6901L172.109 82.9001L175.259 85.8001V89.6801L172.589 91.6201H170.559Z" fill="#CCCCCC" stroke="white" stroke-width="0.5"/>
<path d="M258.542 283.2L254.602 282.62L249.592 279.42L242.762 269.57L237.402 265.89L235.772 260.01L238.512 252.09L234.402 235.75L232.402 234.69L225.732 234.89L222.362 227.42L222.622 225.34L216.052 222.34L213.652 216.59L208.282 211.51L207.992 204.8L208.772 204.76L209.742 201.61L212.412 199.67L211.922 191.92L214.342 187.32L217.252 184.17L219.432 182.96L225.732 183.93L227.422 178.85L229.362 177.88L231.052 179.81L239.532 181.27L248.972 190.95L254.542 182.72L261.082 178.6L264.472 177.63L265.442 175.46L260.112 172.06L268.102 168.92L273.672 164.32L284.332 162.62L286.162 160.67L286.452 161.38L292.302 160.06L292.112 162.83L294.662 162.67L296.692 166.56L302.892 164.87L304.932 161.33L305.592 162.3L306.702 161.4L307.832 162.12L307.462 164.42L308.772 168.22L310.982 170.42L310.312 172.22L312.292 175.07L313.422 174.76L319.612 178.9L321.802 176.59L326.182 177.11L330.532 180.26L331.812 179.66L335.032 181.05L336.712 179.18L340.422 183.67L346.402 185.97L348.082 189.71L350.962 190.18L352.362 193.58L352.212 195.76L345.882 198.82L344.932 201.67L346.502 204.31L343.132 207.99L342.262 210.82L342.922 213.68L338.572 215.05L336.442 214.34L335.052 215.96L332.902 215.78L330.532 217.15L333.962 220.08L333.432 220.59L337.572 223.35L336.612 224.77L340.652 228.1L344.782 228.46L354.562 233.45L355.542 234.85L356.492 241.15L350.022 242.72L347.932 244.36L344.832 244.21L344.392 245.03L342.402 243.45L340.812 244.52L339.142 243.94L336.522 244.93L331.802 244.74L330.322 247.73L330.932 249.48H329.622L330.672 250.3L329.942 250.96L331.112 251.45L330.192 251.87L330.402 252.89L312.502 260.47L306.862 264.53L303.752 268.48L298.482 269.71L293.672 272.06L289.572 272.21L287.562 271.92L283.352 272.53L274.212 280.73L267.202 282.64L260.452 283.28L258.542 283.2Z" fill="#CCCCCC" stroke="white" stroke-width="0.5"/>
<path d="M100.13 102.91L99.12 103.19L96.21 110.22L99.36 114.57L98.64 116.51L93.79 116.03L92.34 123.29L89.43 124.5L83.14 121.11L77.57 125.47L77.08 129.59L73.93 131.04L71.03 134.19L72.24 136.85L75.15 138.79L73.69 141.94L71.27 140.73L67.15 140.49L64.01 142.67L61.58 140.97L60.37 138.31L58.68 139.03L57.71 142.18H49.48L48.51 139.76L45.36 138.79L41.97 140.49L38.34 140L40.03 138.06L34.7 135.4L33.01 133.22L29.62 134.43L27.92 133.46L28.6 131.18L30.67 131.89L36.07 131.34L37.82 129.11L38.15 126.38L33.73 123.19L29.43 122.54L27.88 118.46L24.94 118.61L23.79 121.29L18.62 122.56L16.21 121.53L11.22 116.26L11.69 113.85L14.11 110.32L12.63 107.58L13.81 106.36L17.25 106.18L17.9 102.35L20.58 99.04L20.83 96.32L15.99 93.84L13.36 90.94L10.35 78.18L9.05 75.99L6.59 74.86L5.9 73.17L6.67 62.99L3.18 60.24L2.69 55.58L1 53.19L1.87 52.52L2.75 54.24L7.85 53.09L7.33 51.22L9.42 52L12.96 48.48L20.11 50.14L23.32 49.04L24.46 50.68L26.13 50.51L24.45 46.14L26.82 43.19L35.44 43.02L33.64 36.4L38.91 29.1L42.73 29.77L44.29 37.01L51.45 37.63L51.1 36.62L55.37 36.51L55.92 37.22L62.13 36.97L63.85 38.36L68.85 43.52L68.61 47.88L73.21 46.43L72.24 49.09L70.06 49.82L67.64 52.72L70.06 57.57L69.33 61.44L71.27 66.77L79.02 74.76L81.44 80.33L88.22 86.87L91.13 82.51L99.12 86.63L98.88 89.05L96.7 90.99L103.24 95.35L104.93 98.74L99.12 102.85L100.13 102.91Z" fill="#CCCCCC" stroke="white" stroke-width="0.5"/>
<path d="M28.6019 131.18L27.9219 133.46L29.6219 134.43L33.0119 133.22L34.7019 135.4L40.0319 138.06L38.3419 140L41.9719 140.49L45.3619 138.79L48.5119 139.76L49.4819 142.18H57.7119L58.6819 139.03L60.3719 138.31L61.5819 140.97L64.0119 142.67L67.1519 140.49L71.2719 140.73L73.6919 141.94L75.1519 138.79L72.2419 136.85L71.0319 134.19L73.9319 131.04L77.0819 129.59L77.5719 125.47L83.1419 121.11L89.4319 124.5L92.3419 123.29L93.7919 116.03L98.6419 116.51L99.3619 114.57L96.2119 110.22L99.1219 103.19L100.132 102.91L103.482 103.1L114.132 108.91L117.772 109.15L119.952 106.24V101.4L125.272 95.1V91.23L123.092 89.53L125.032 86.87L129.152 85.66L137.442 80.03L138.352 80.33L147.552 81.06L152.152 83.72H158.212L168.382 86.63L170.562 89.78V91.62H167.022L164.602 94.52L166.782 101.3L158.312 102.03L156.852 103.73L157.582 106.87L165.332 105.18L165.092 109.54L161.452 111.23L161.702 114.86L166.782 113.17L170.412 114.38L167.272 117.77L159.762 122.13L161.702 125.52L160.002 128.43L159.522 133.03L161.212 135.69L163.882 133.03L166.782 127.22L169.452 128.91L170.412 132.06L173.802 133.03L175.022 136.18L174.052 142.23L177.442 143.44L181.072 140.29L182.522 144.17L181.802 146.59L179.862 148.53V153.13L182.042 156.03L186.642 157.73L189.062 159.91L187.612 162.57L182.282 166.2L193.662 178.07L196.572 183.4L194.152 187.03L189.552 190.66L191.002 194.54L188.742 195.97L182.522 188.48L178.652 189.21L172.842 188.73L171.872 186.3L169.452 185.58L163.882 191.39L160.242 190.91L158.792 188.97L160.732 187.03L160.972 183.16L157.822 182.67L153.702 188L152.742 191.15L150.802 192.6L144.502 193.81L137.482 192.84L133.122 193.57L131.672 195.26L128.522 193.57L123.922 193.33H119.072L115.932 195.26L108.662 194.54L102.852 195.02L99.7019 193.81H96.5519L90.7419 190.42L87.8319 190.91L83.2319 195.26L76.4919 189.37L76.2519 186.68L77.4819 184.56L76.8219 178.19L69.1919 178.08L57.6419 176.15L39.3119 166.51L36.5319 159.16L28.2119 157.61L22.4819 152.7L21.9219 150.51L24.8919 147.03L26.8119 146.96L28.0619 143.46L23.6319 138.25L24.2819 131.74L25.6319 129.86L28.6019 131.18Z" fill="#CCCCCC" stroke="white" stroke-width="0.5"/>
<path d="M188.739 195.97L188.329 196.23L191.969 199.38L194.869 204.95L198.379 206.8L197.149 208.39L199.889 209.12L201.129 211.63L201.569 215.27L200.739 217.98L198.939 220.24L194.269 221.63L192.769 223.24L192.089 226.18L193.179 229.92L181.489 235.55L176.509 239.67L174.509 243.72L174.569 246.89L177.789 250.78L177.569 253L175.329 254.57L168.749 256.3L168.429 258.72L170.089 262.31L168.619 265.51L164.109 268.75L163.979 270.21L169.799 274.71L157.509 280.57L154.679 283.1L153.009 286.11L150.289 288.09L145.449 286.89L144.829 284.15L146.859 282.79L151.439 281.91L154.769 279.32L154.629 276.93L147.129 278.08L143.869 277.32L137.859 274.3L128.539 266.71L119.379 266.09L116.709 263.35L115.429 259.38L115.659 254.17L123.709 237.92L122.429 236.48L119.149 237.17L116.519 234.12L111.779 233.92L104.699 238.34L95.0694 238.91L91.6494 238.29L89.2894 234.89L85.4494 239.05L79.7394 235.88L78.2994 237.7L77.1594 235.27L74.7894 236.84L67.6694 235.13L66.9794 236.88L71.2294 239.34L71.3594 240.31L70.2894 240.99L64.8294 237.45L61.3994 238.29L58.5294 236.55L52.7494 239.54L51.1494 235.8L48.3994 234.95L44.9994 237.81L41.6794 239.2L40.2694 241.33L36.3594 242.68L34.3894 245.53L28.2794 246.95L26.6094 238.34L35.3994 237.17L38.5794 233.3L43.5194 231.24L45.0894 229.18L44.2394 228.3L44.5294 225.19L43.5394 224.34L39.7694 226.2L32.0294 224.98L37.3894 221.63L38.6294 219.31L37.7094 214.06L39.9894 211.68L40.0694 208.72L37.7094 206.07L38.8694 203.85L36.8394 200.79L36.9494 197.37L42.1194 198.03L43.9194 197.15L49.1894 189.43L49.6394 187.1L47.7894 184.98L47.9994 184.06L49.2694 183.97L59.3394 189.47H62.2994L63.2594 184.52L66.3194 184.23L71.2194 189.98L76.4894 189.37L83.2294 195.26L87.8294 190.91L90.7394 190.42L96.5494 193.81H99.6994L102.849 195.02L108.659 194.54L115.929 195.26L119.069 193.33H123.919L128.519 193.57L131.669 195.26L133.119 193.57L137.479 192.84L144.499 193.81L150.799 192.6L152.739 191.15L153.699 188L157.819 182.67L160.969 183.16L160.729 187.03L158.789 188.97L160.239 190.91L163.879 191.39L169.449 185.58L171.869 186.3L172.839 188.73L178.649 189.21L182.519 188.48L188.739 195.97Z" fill="#CCCCCC" stroke="white" stroke-width="0.5"/>
<path d="M153.959 298.47L149.499 297.9L148.529 299.59L145.379 300.8L141.989 298.62L135.689 304.68L139.079 311.7L139.329 315.57L139.079 318.72L137.149 322.11V325.75L135.209 330.1L131.819 330.35L128.429 328.89L126.489 325.99L122.369 324.29L118.259 323.81L116.079 320.66L109.779 321.63L107.119 324.29L104.209 323.81L103.239 321.14L98.8786 319.21L96.2186 320.42H91.1286L89.6786 322.11L92.8286 324.53L93.0686 327.44L91.6186 331.07V333.74L88.2286 333.98L87.0186 335.19L92.5886 340.52L92.3486 343.42L87.9886 344.15L87.0186 347.06L83.8686 348.99L81.4486 352.14L86.5286 355.77L91.1286 356.74L94.5186 358.68L99.3686 359.41L101.789 363.04V368.12L104.939 369.58L107.619 372.97L107.839 376.84L106.879 379.99L105.179 378.05L102.759 377.33L90.6886 385.76L89.1686 381.17L86.2086 380.12L86.1686 378.57L87.7386 376.59L86.9686 375.08L84.7886 375.71L82.9486 378.02L79.6486 376.02L78.2086 371.55L71.8986 368.9L71.9186 364.81L69.8786 362.39L70.4986 360.03L67.8586 356.58L67.4786 353.28L63.8486 353.46L61.5686 352.25L58.8586 354.22L56.1086 354.85L53.8886 353.43L52.4686 349.62L48.6286 351.19L46.8586 350.74L45.1486 347.65L42.1786 344.92L42.6386 341.02L40.4286 340.46L39.3386 338.15L40.3786 335.92H39.0586L38.5586 334.93L39.3786 330.5L43.5786 327.91L44.3286 326.45L44.3086 319.71L42.2886 312.72L40.6086 311.26L41.9086 307.47L47.6486 307.09L48.3786 304.71L50.7286 302.21L50.5286 300.58L48.8086 299.49L50.1786 296.44L54.3486 294.41L53.9986 291.49L55.9886 290.45L56.8086 287.87L58.0586 287.71L57.6086 286.18L58.8186 283.02L60.5986 281.5L61.2786 277.84L65.8286 275.46L64.3386 272.79L65.0686 270.42L64.3986 268.77L66.6786 269.53L67.7286 267.84L65.4486 265.64L65.7786 263.93L64.5286 262.96L65.0786 262L68.0486 261.47L67.2886 259.79L65.7686 260.43L63.7686 259.54L66.4686 257.9L65.7086 255.93L66.0786 254.84L67.4686 254.64L66.7186 253.15L68.7286 253.8L69.9986 253.24L72.2786 250.19L70.9386 247.62L73.2086 248.21L75.3786 245.45L73.6786 244.71L73.5386 241.82L71.0486 238.98L67.1286 236.88L67.8186 235.13L74.9386 236.84L77.3086 235.27L78.4486 237.7L79.8886 235.88L85.5986 239.05L89.4386 234.89L91.7986 238.29L95.2186 238.91L104.859 238.34L111.939 233.92L116.669 234.12L119.299 237.17L123.139 236.7L123.489 239.69L121.659 241.73L115.809 254.17L115.579 259.38L116.509 262.78L119.539 266.09L128.689 266.71L138.009 274.3L144.019 277.32L147.289 278.08L154.779 276.93L154.919 279.32L151.049 282.22L145.989 283.31L144.819 285.18L145.599 286.89L150.239 288.14L151.429 293.05L154.099 294.99L153.959 298.47Z" fill="#CCCCCC" stroke="white" stroke-width="0.5"/>
<path d="M153.811 298.47L153.701 299.59L152.251 302.74L155.161 305.16L158.791 306.37L160.971 309.04L164.121 307.82L165.091 303.95L167.511 303.71L170.411 305.89L171.631 308.79L174.531 310.73L180.101 300.56L181.801 303.22L182.041 309.76L186.881 313.64L186.401 318.24L184.941 320.42L187.121 322.11L186.401 325.99L183.491 327.68L183.731 330.83L181.311 333.98L184.221 336.64L183.491 339.06L179.371 339.55L179.621 341.24L183.981 347.54L191.481 355.29L194.871 353.35L200.691 352.38L201.411 348.99L205.291 345.6L207.311 345.22L207.221 346.09L210.131 346.33L210.371 354.56L211.511 355.89L209.401 359.41L204.081 365.95L200.931 366.91L198.261 371.76L194.391 372.73L192.941 376.36H188.581L184.941 378.05L179.131 377.57L174.051 382.17L167.991 382.9L166.171 383.44L165.331 381.93L157.821 381.2L153.951 381.69L150.311 384.11L146.921 381.69L144.261 376.6L140.391 375.63L136.511 377.57L134.331 380.23L131.671 377.81H128.281L129.491 380.48L132.391 382.9L133.601 386.53L132.391 388.71H128.281L127.311 385.08L124.401 380.96L110.111 372.48L107.461 372.97L104.791 369.58L101.641 368.12V363.04L99.2208 359.41L94.3708 358.68L90.9808 356.74L86.3808 355.77L81.3008 352.14L83.7208 348.99L86.8708 347.06L87.8308 344.15L92.1908 343.42L92.4408 340.52L86.8708 335.19L88.0808 333.98L91.4708 333.74V331.07L92.9208 327.44L92.6808 324.53L89.5308 322.11L90.9808 320.42H96.0708L98.7308 319.21L103.091 321.14L104.061 323.81L106.971 324.29L109.631 321.63L115.931 320.66L118.111 323.81L122.221 324.29L126.341 325.99L128.281 328.89L131.671 330.35L135.061 330.1L136.991 325.75V322.11L138.931 318.72L139.171 315.57L138.931 311.7L135.541 304.68L141.841 298.62L145.231 300.8L148.381 299.59L149.351 297.9L153.811 298.47Z" fill="#CCCCCC" stroke="white" stroke-width="0.5"/>
<path d="M301.198 366.11L298.708 365.8L299.198 361.93L295.568 361.2L293.628 362.89L289.998 358.78L284.428 355.63L282.728 351.03L278.368 352.72H273.038L266.748 350.06L261.658 349.57L262.868 344.49L261.658 343.76L255.368 343.52L255.118 338.43L258.268 336.74L251.488 330.2L253.908 327.29L255.368 321.73L257.788 321L260.448 322.69L263.118 322.94L265.778 320.76L264.328 316.15L259.478 310.83L259.728 307.92H256.088L254.398 304.77L251.008 301.63L255.118 298.48L264.328 297.02L261.418 293.15L258.758 292.42L258.268 287.1L259.048 283.22L260.448 283.28L267.198 282.64L274.208 280.73L283.348 272.53L287.558 271.92L289.568 272.21L289.028 280.31L289.748 283.95L292.898 286.85L292.418 290.49L293.628 293.39L302.588 296.78L301.378 306.95L306.458 317.85L305.978 322.94L300.648 328.99L301.138 333.11L306.458 335.04L307.428 339.4L300.648 341.58L300.228 345.87L299.158 348.02L305.588 356.95L303.088 360.16L301.658 364.81L301.198 366.11Z" fill="#CCCCCC" stroke="white" stroke-width="0.5"/>
<path d="M300.231 345.87L300.651 341.58L307.431 339.4L306.461 335.04L301.141 333.11L300.651 328.99L305.981 322.94L306.461 317.85L301.381 306.95L302.591 296.78L293.631 293.39L292.421 290.49L292.901 286.85L289.751 283.95L289.031 280.31L289.571 272.21L293.671 272.06L298.481 269.71L303.751 268.48L306.861 264.53L312.501 260.47L330.401 252.89L333.741 255.61L336.131 261.38L345.301 261.49L350.081 262.64L353.531 262.16L360.041 264.55L362.181 267.48L363.791 272.7L364.051 279.3L366.161 282.24L374.111 281.71L377.991 283.73L387.051 282.06L388.871 283.71L396.781 284.27L399.901 285.35L403.831 284.97L408.251 287.2L413.041 287.62L415.081 292.86L413.071 293.99L412.241 298.68L410.031 300.61L409.761 302.55L406.441 302.82L406.721 310L405.341 313.04L405.611 318.29L403.401 320.77L399.261 321.05L397.881 324.91H393.191L392.641 327.95L387.941 333.2L389.871 335.41L391.251 339.27L389.321 341.2L397.051 342.58L401.191 345.62L402.021 357.5L405.061 359.43L406.721 356.11L408.931 355.01L410.031 358.88L409.761 362.19L412.521 365.5L409.481 371.3L410.861 375.72L409.761 379.31L407.551 381.24L401.471 380.97L399.261 384L393.741 383.18L391.341 386.6L389.191 382.67H384.551L379.911 379.81H372.401L368.121 375.88L356.331 375.17L355.611 370.17L349.541 364.81L344.541 365.16L342.041 362.66H337.391L334.181 365.16L330.241 362.66L331.321 360.52L333.461 359.09L329.891 356.95L326.311 349.09L323.101 347.3L319.531 353.73L314.881 353.02L313.451 348.37L308.811 345.16L300.231 345.87Z" fill="#CCCCCC" stroke="white" stroke-width="0.5"/>
<path d="M255.349 343.22L261.659 343.76L262.869 344.49L261.659 349.57L266.749 350.06L273.039 352.72H278.369L282.729 351.03L284.429 355.63L289.999 358.78L293.629 362.89L295.569 361.2L299.199 361.93L298.709 365.8L301.199 366.11L299.879 369.81L302.379 375.17L306.669 377.67L304.879 381.96L298.449 386.24L296.659 390.17L299.159 394.1L299.519 399.1L294.519 400.18L289.869 403.04L293.449 405.54L294.519 409.47L292.729 411.61L292.369 414.11L289.159 415.18L286.299 418.04L287.369 422.69L291.299 423.76L276.299 433.05L274.559 433.34L274.149 430.9L270.579 428.76L264.509 428.04L260.929 429.12L257.359 430.55L256.649 433.76L259.149 435.55L255.219 438.41L249.139 438.76L241.279 426.62L239.049 425.62L239.429 423.34L235.559 420.68L232.169 415.59L229.019 412.68L226.109 406.15L235.559 398.15L239.189 397.67L239.919 395.49L236.529 390.65L227.079 383.14L226.839 378.78L224.419 373.69L221.999 371.03L218.609 370.79L214.249 364.98L213.999 358.68L211.579 355.77L211.509 355.89L210.369 354.56L210.129 346.33L207.219 346.09L207.709 341.49L213.279 334.46L211.819 331.31L209.649 330.1L208.429 327.44L210.129 325.5L210.859 322.11L214.249 323.08L215.699 324.78L223.689 326.23L225.629 334.71L230.469 333.49L231.679 331.8L234.099 331.07L236.769 332.28L237.009 335.92L239.189 338.82L243.309 339.31L245.239 337.61L248.879 337.85L249.849 340.76L253.239 341.49L255.349 343.22Z" fill="#CCCCCC" stroke="white" stroke-width="0.5"/>
<path d="M348.499 442.42L348.109 441.34L343.819 445.98L340.959 447.41H337.749L337.389 444.91L334.179 444.55L332.029 442.76L336.319 440.62L333.459 439.55L332.749 437.05L329.169 436.69L327.739 439.55L320.959 439.91L319.879 432.4L322.389 430.97L321.309 426.33L318.099 429.19L317.379 439.55L314.519 440.62L310.949 444.19H307.379L304.519 443.12L304.159 445.98L305.949 449.55L302.019 450.98L298.089 449.55H294.159L286.659 446.69L283.799 448.48L280.199 445.18L275.229 437.33L274.559 433.34L276.299 433.05L291.299 423.76L287.369 422.69L286.299 418.04L289.159 415.18L292.369 414.11L292.729 411.61L294.519 409.47L293.449 405.54L289.869 403.04L294.519 400.18L299.519 399.1L299.159 394.1L296.659 390.17L298.449 386.24L304.879 381.96L306.669 377.67L302.379 375.17L299.879 369.81L301.659 364.81L303.089 360.16L305.589 356.95L299.159 348.02L300.229 345.87L308.809 345.16L313.449 348.37L314.879 353.02L319.529 353.73L323.099 347.3L326.309 349.09L329.889 356.95L333.459 359.09L331.319 360.52L330.239 362.66L334.179 365.16L337.389 362.66H342.039L344.539 365.16L349.539 364.81L355.609 370.17L356.329 375.17L368.119 375.88L372.399 379.81H379.909L384.549 382.67H389.189L391.339 386.6L388.839 388.74L386.689 396.96L384.549 403.39L380.619 410.18L378.479 416.97L373.479 417.33L373.119 419.11L375.259 427.33L370.619 432.33L368.469 434.12L356.329 434.83L348.499 442.42Z" fill="#CCCCCC" stroke="white" stroke-width="0.5"/>
<path d="M391.341 386.6L393.741 383.18L399.261 384L401.471 380.97L407.551 381.24L409.761 379.31L410.861 375.72L409.481 371.3L412.521 365.5L409.761 362.19L410.031 358.88L408.931 355.01L406.721 356.11L405.061 359.43L402.021 357.5L401.191 345.62L397.051 342.58L389.321 341.2L391.251 339.27L389.871 335.41L387.941 333.2L392.641 327.95L393.191 324.91H397.881L399.261 321.05L403.401 320.77L405.611 318.29L405.341 313.04L406.721 310L406.441 302.82L409.761 302.55L410.031 300.61L412.241 298.68L413.071 293.99L415.081 292.86L417.311 295.23L418.691 304.2L422.881 307.03L424.301 312.6L431.731 317.14L437.171 316.49L444.861 299.83L447.881 295.52L449.751 289.36L452.861 286.86L454.011 282.93L458.101 279.88L464.681 279.22L468.061 274.9L474.831 272.73L488.901 287.91L494.941 291.3L501.511 290.81L502.971 292.65L505.971 293.56L511.671 300.29L512.791 305.02L504.451 309.35L495.461 303.37L489.951 303.28L487.311 306.09L486.411 313.65L485.171 315.68L481.341 317.47L474.951 316.18L473.371 317.63L474.291 322.25L478.861 326.75L479.231 332.74L481.851 340.3L486.491 347.05L489.891 348.53L499.651 350.34L502.881 353.91L502.921 357.18L501.231 361.11L500.961 364.77L500.301 363.37L498.771 365.13L497.581 364.43L497.761 366.16L496.491 367.76L496.981 368.56L495.371 368.86L496.381 370.41L495.201 371.13L494.431 370.61L493.571 372.2L495.491 373.58L495.481 375.66L494.371 375.28L493.171 382.71L494.431 384.55L493.801 387.93L494.891 388.9L494.541 390.56L489.761 390.76L489.191 392.27L486.841 391.71L483.381 392.64L483.251 393.53H481.271L480.721 391.87L476.301 394.63L473.541 393.25L473.271 386.35L476.301 385.52L478.231 383.04L474.371 378.9H471.331L467.471 372.82L459.181 373.93L452.831 372.54L448.691 370.89L445.931 367.02L444.271 373.1L440.961 375.31L443.991 379.17V382.49L445.931 385.25L445.651 390.77L447.311 394.36L440.411 401.81L437.921 407.06L437.091 413.96L433.781 415.07L432.401 417.55L428.261 419.76V417L424.941 416.17L420.251 405.4L417.211 405.96L415.281 408.72L410.861 407.61L405.891 404.58L402.301 397.95H397.051L395.121 399.6L391.531 398.23L389.051 400.16L386.031 398.95L386.691 396.96L388.841 388.74L391.341 386.6Z" fill="#CCCCCC" stroke="white" stroke-width="0.5"/>
<path d="M483.252 393.53L484.482 395.92L482.592 398.38L471.562 398.99L470.992 400.19L467.082 401.31L467.782 403.43L466.842 405.17L466.802 412.92L464.292 415.27L465.032 418.43L463.992 425.44L460.312 436.12L463.502 443.16L465.942 445.3L465.112 450.51L466.192 452.12L466.832 456.32L468.982 459.59L472.452 462.39L476.002 463.59L477.652 466.63L476.142 469.73L477.972 473.5L477.352 480.19L483.422 496.74L485.602 498.1L488.812 498.15L491.722 502.9L499.572 504.48L501.012 509.23L498.942 509.64L496.182 511.85L488.732 520.41L482.932 519.58L479.892 516.27L479.622 512.68L476.852 513.78L476.032 515.44L471.612 517.1L468.022 514.06L465.262 513.78L460.562 511.3H457.532V512.04L457.802 505.78L458.912 503.29L456.152 497.22L453.382 495.28L452.002 497.77L448.412 498.87L441.792 492.52L439.302 494.46L432.122 495.01L430.742 491.42L427.702 491.14L425.492 488.93L419.972 488.38L420.522 486.45L418.592 483.13L418.872 481.2L413.902 475.96L410.312 474.3L407.552 475.13L408.372 478.16L412.792 482.58V485.62L409.762 485.9L408.372 483.69H406.172L405.342 485.62H402.852L402.022 482.31L400.092 480.93L395.672 472.92L392.912 474.85L385.732 472.64L382.972 470.71L382.142 467.12L379.382 464.63L374.962 457.45L374.692 453.31L376.342 449.72L375.792 447.24L373.582 444.75L375.792 440.89L371.652 435.36L370.602 432.35L370.622 432.33L375.262 427.33L373.122 419.11L373.482 417.33L378.482 416.97L380.622 410.18L384.552 403.39L386.032 398.95L389.052 400.16L391.532 398.23L395.122 399.6L397.052 397.95H402.302L405.892 404.58L410.862 407.61L415.282 408.72L417.212 405.96L420.252 405.4L424.942 416.17L428.262 417V419.76L432.402 417.55L433.782 415.07L437.092 413.96L437.922 407.06L440.412 401.81L447.312 394.36L445.652 390.77L445.932 385.25L443.992 382.49V379.17L440.962 375.31L444.272 373.1L445.932 367.02L448.692 370.89L452.832 372.54L459.182 373.93L467.472 372.82L471.332 378.9H474.372L478.232 383.04L476.302 385.52L473.272 386.35L473.542 393.25L476.302 394.63L480.722 391.87L481.272 393.53H483.252Z" fill="#CCCCCC" stroke="white" stroke-width="0.5"/>
<path d="M166.169 383.44L165.569 383.62L165.809 387.26L164.599 390.65L167.269 395.73L163.879 402.51L170.409 410.5L168.719 414.14V419.46L170.409 425.03V429.88L174.049 432.06L172.349 439.32L175.499 446.59L180.099 453.13V457.48L182.039 461.6L179.129 464.02L175.019 462.09L171.139 464.27L170.659 467.66L167.509 469.35L163.629 469.59L160.239 472.5L155.639 479.52L151.519 479.76L151.039 477.58L149.349 478.31L146.679 482.91L147.409 486.79L151.769 487.76L159.029 495.51L163.389 503.01L164.119 507.37L167.989 510.76L168.959 514.39L171.379 517.54L170.409 522.63L174.769 525.29L178.889 526.02L182.039 523.84L189.789 521.9L192.939 522.14L195.599 523.84L195.019 526.29H191.619L189.839 530.58L191.619 535.94L187.689 536.66L185.549 539.51L189.479 542.73L190.909 545.59L193.769 545.94L194.839 550.59L179.829 554.16L178.049 560.59L173.039 560.95L170.539 564.52L168.759 569.17L165.179 574.17L164.779 577.29L152.429 563.68L149.949 558.16L145.499 561.06L138.629 560.86L136.379 559.23L134.609 560.46L133.119 558.44L128.439 557.8L126.169 549.39L124.739 547.37L123.259 547.53L121.809 550.84L119.819 549.44L113.609 547.74L109.129 544.92L105.149 537.69L96.2492 532.13L93.3792 523.35L87.1792 520.93L85.3592 518.41L84.1492 513.38L80.4192 512.26L74.6992 507.21L68.7992 504.86L64.2092 501.8L55.1892 491.72L54.6992 485.4L57.2392 485.93L58.0592 484.84L58.5092 474.11L60.8492 473.16L68.6392 474.82L73.4392 472.59L74.7092 473.25L75.2692 475.1L76.5492 475.12L78.3892 479.19L80.0992 479.44L83.8992 476.75L90.0092 476.92L90.9292 475.82L89.7792 474.09L88.9492 474.16L90.0092 470.84L88.5292 467.84L89.9592 466.73L91.5692 468.64L93.3292 467.2L90.8192 451.6L85.0792 446.75L84.0092 443.01L81.6892 441.08L77.1492 439.42L75.6592 430.41L73.5792 428.63L71.1292 423.87L67.6692 421.86L67.1592 417.48L63.7592 415.97L63.3092 413.19L58.4392 409.28L55.8292 404.5L55.3692 399.46L56.9992 399.02L59.9092 402.22L65.1692 402.71L68.9292 405.37L70.7792 405.2L72.2992 407.36L75.4692 409.14L77.4092 407.97L80.6992 409.51L93.3592 409.82L95.2192 406.62L98.5992 404.67L98.3392 402.1L105.639 399.06L104.849 395.66L106.049 393.02L105.399 392.23L103.539 392.66L103.079 389.51L101.369 389.14L100.569 392.88L99.6492 393.38L96.8992 389.08L92.0492 387.52L90.5392 385.76L102.609 377.33L105.029 378.05L106.719 379.99L107.689 376.84L107.449 372.97L110.109 372.48L124.399 380.96L127.309 385.08L128.279 388.71H132.389L133.599 386.53L132.389 382.9L129.489 380.48L128.279 377.81H131.669L134.329 380.23L136.509 377.57L140.389 375.63L144.259 376.6L146.919 381.69L150.309 384.11L153.949 381.69L157.819 381.2L165.329 381.93L166.169 383.44Z" fill="#CCCCCC" stroke="white" stroke-width="0.5"/>
<path d="M239.05 425.62L238.07 425.19L232.35 426.97L228.78 431.26L229.14 437.33L222.35 440.55L219.49 445.19L216.99 447.34L211.27 447.69L211.99 450.91L214.85 455.2L215.56 460.2L213.06 462.7L208.77 460.91L205.56 462.7L204.13 466.27L207.7 469.85L204.84 477.35L197.7 483.78L200.91 487.71L206.27 488.78L208.41 493.43L212.7 496.64L209.84 507.36L212.7 509.86L212.34 519.15L207.7 520.94L203.41 526.65L202.7 530.94L199.13 529.51L195.2 526.29H195.02L195.6 523.84L192.94 522.14L189.79 521.9L182.04 523.84L178.89 526.02L174.77 525.29L170.41 522.63L171.38 517.54L168.96 514.39L167.99 510.76L164.12 507.37L163.39 503.01L159.03 495.51L151.77 487.76L147.41 486.79L146.68 482.91L149.35 478.31L151.04 477.58L151.52 479.76L155.64 479.52L160.24 472.5L163.63 469.59L167.51 469.35L170.66 467.66L171.14 464.27L175.02 462.09L179.13 464.02L182.04 461.6L180.1 457.48V453.13L175.5 446.59L172.35 439.32L174.05 432.06L170.41 429.88V425.03L168.72 419.46V414.14L170.41 410.5L163.88 402.51L167.27 395.73L164.6 390.65L165.81 387.26L165.57 383.62L167.99 382.9L174.05 382.17L179.13 377.57L184.94 378.05L188.58 376.36H192.94L194.39 372.73L198.26 371.76L200.93 366.91L204.08 365.95L209.4 359.41L211.58 355.77L214 358.68L214.25 364.98L218.61 370.79L222 371.03L224.42 373.69L226.84 378.78L227.08 383.14L236.53 390.65L239.92 395.49L239.19 397.67L235.56 398.15L226.11 406.15L229.02 412.68L232.17 415.59L235.56 420.68L239.43 423.34L239.05 425.62Z" fill="#CCCCCC" stroke="white" stroke-width="0.5"/>
<path d="M280.201 445.18L279.511 444.55L275.231 451.34L274.871 456.7L272.371 460.27L272.011 463.13L278.801 468.13L278.081 471.35H274.151V474.2L275.941 477.42L276.301 482.06L278.081 486.35L274.151 488.85L269.871 487.78L267.011 485.64L264.151 485.28L261.291 487.42L257.361 485.64L255.571 488.49L260.221 492.43L257.361 502.43L257.721 507.79L263.441 508.5L267.721 512.79L267.011 519.22L261.651 524.22L264.511 526.72L261.841 532.26H261.641L258.981 532.9L255.051 536.38L251.881 537.3L244.241 542.07L235.941 544.62L236.551 547.35L242.101 553.02L241.241 557.75L241.841 560.3L242.821 561.48L245.171 561.06L245.111 565.45L247.161 572.08L247.301 575.9L246.811 577.28L239.301 578.37L239.351 580.72L235.611 578.85L230.611 580.65L220.831 587.5L219.351 590.61L219.591 592.67L224.581 600.15L224.491 601.23L223.741 602.92L222.221 605.46L220.141 606.68L201.131 609.67L203.291 606.82L203.481 597.97L202.261 595.46L196.241 592.25L195.761 589.82L189.851 588.7L186.701 586.21L176.831 581.76L172.511 583.34L167.871 578.88L164.781 577.29L165.181 574.17L168.761 569.17L170.541 564.52L173.041 560.95L178.051 560.59L179.831 554.16L194.841 550.59L193.771 545.94L190.911 545.59L189.481 542.73L185.551 539.51L187.691 536.66L191.621 535.94L189.841 530.58L191.621 526.29H195.201L199.131 529.51L202.701 530.94L203.411 526.65L207.701 520.94L212.341 519.15L212.701 509.86L209.841 507.36L212.701 496.64L208.411 493.43L206.271 488.78L200.911 487.71L197.701 483.78L204.841 477.35L207.701 469.85L204.131 466.27L205.561 462.7L208.771 460.91L213.061 462.7L215.561 460.2L214.851 455.2L211.991 450.91L211.271 447.69L216.991 447.34L219.491 445.19L222.351 440.55L229.141 437.33L228.781 431.26L232.351 426.97L238.071 425.19L241.281 426.62L249.141 438.76L255.221 438.41L259.151 435.55L256.651 433.76L257.361 430.55L260.931 429.12L264.511 428.04L270.581 428.76L274.151 430.9L275.231 437.33L280.201 445.18Z" fill="#CCCCCC" stroke="white" stroke-width="0.5"/>
<path d="M348.11 511.43L347.75 510.65L339.53 507.79L335.96 509.57L332.03 506.36L328.82 506.72L328.1 508.86H325.24L320.96 511.36L314.52 511.72L312.74 514.22L313.1 519.93L311.31 522.79L307.38 523.15L306.67 529.22L304.52 533.51L299.52 536.73L296.66 535.3L293.09 531.73L288.44 534.23L285.94 531.37L283.8 532.8L282.73 537.44L280.94 538.16V547.09L278.8 549.95L277.73 553.52L278 558.72L277.8 558.63L274.31 556.53L270.85 555.75L267.61 552.51L266.71 548.34L268.05 547.14L270.28 546.87L274.87 548.45L275.15 546.29L268.27 534.51L264.84 532.35L262.29 532.26H261.84L264.51 526.72L261.65 524.22L267.01 519.22L267.72 512.79L263.44 508.5L257.72 507.79L257.36 502.43L260.22 492.43L255.57 488.49L257.36 485.64L261.29 487.42L264.15 485.28L267.01 485.64L269.87 487.78L274.15 488.85L278.08 486.35L276.3 482.06L275.94 477.42L274.15 474.2V471.35H278.08L278.8 468.13L272.01 463.13L272.37 460.27L274.87 456.7L275.23 451.34L279.51 444.55L283.8 448.48L286.66 446.69L294.16 449.55H298.09L302.02 450.98L305.95 449.55L304.16 445.98L304.52 443.12L307.38 444.19H310.95L314.52 440.62L317.38 439.55L318.1 429.19L321.31 426.33L322.39 430.97L319.88 432.4L320.96 439.91L327.74 439.55L329.17 436.69L332.75 437.05L333.46 439.55L336.32 440.62L332.03 442.76L334.18 444.55L337.39 444.91L337.75 447.41H340.96L343.82 445.98L348.11 441.34L349.54 445.27V448.84L352.4 450.62L351.32 453.48L347.75 455.98L346.32 460.27L350.25 467.77L354.18 469.2L355.61 480.28L359.18 482.42L358.83 487.78L355.61 492.43L357.04 497.78L359.9 501L357.04 504.57L353.47 504.93L351.32 508.5L348.11 511.43Z" fill="#CCCCCC" stroke="white" stroke-width="0.5"/>
<path d="M457.53 512.04V515.17L455.87 519.86L448.41 521.79H446.76L444.27 519.58L440.41 517.93H437.64L433.78 515.72L432.95 516.82L432.12 519.86L433.5 523.73L433.23 525.38L436.54 528.14V531.46L431.85 534.49L429.36 541.12L430.19 543.61L436.82 546.64L443.17 551.89L450.35 552.72L451.73 555.48L450.62 560.73L447.86 561L444.55 562.77V562.47L442.61 563.57L440.68 567.44L438.47 567.71L437.37 565.5L432.4 566.06L432.12 562.19L429.08 561.09L419.97 551.7L415.55 550.32L411.14 550.04L403.68 555.01L403.4 551.15L401.19 549.21L396.23 551.42L390.07 552.41L389.55 551.02L386.69 542.44L385.62 535.3L382.05 532.8L377.05 532.44L375.26 539.94L373.48 537.8L368.12 536.01L366.33 532.8L368.12 530.65V527.44L363.83 526.72L360.61 524.22L359.54 521.01L362.04 517.79L362.76 513.86L355.97 514.93L349.54 514.58L348.11 511.43L351.32 508.5L353.47 504.93L357.04 504.57L359.9 501L357.04 497.78L355.61 492.43L358.83 487.78L359.18 482.42L355.61 480.28L354.18 469.2L350.25 467.77L346.32 460.27L347.75 455.98L351.32 453.48L352.4 450.62L349.54 448.84V445.27L348.5 442.42L356.33 434.83L368.47 434.12L370.6 432.35L371.65 435.36L375.79 440.89L373.58 444.75L375.79 447.24L376.34 449.72L374.69 453.31L374.96 457.45L379.38 464.63L382.14 467.12L382.97 470.71L385.73 472.64L392.91 474.85L395.67 472.92L400.09 480.93L402.02 482.31L402.85 485.62H405.34L406.17 483.69H408.37L409.76 485.9L412.79 485.62V482.58L408.37 478.16L407.55 475.13L410.31 474.3L413.9 475.96L418.87 481.2L418.59 483.13L420.52 486.45L419.97 488.38L425.49 488.93L427.7 491.14L430.74 491.42L432.12 495.01L439.3 494.46L441.79 492.52L448.41 498.87L452 497.77L453.38 495.28L456.15 497.22L458.91 503.29L457.8 505.78L457.53 512.04Z" fill="#CCCCCC" stroke="white" stroke-width="0.5"/>
<path d="M337.06 605.17L336.75 604.74L332.83 605.71L330.55 601.2L327.15 597.83L321.02 596.29L315.21 596.84L314.69 595.41L317.53 586.8L315.64 581.16L313.85 579.82L311.18 580.49L307.82 585.21L307.56 568.9L306 563.02L304.07 563.15L301.76 565.23L299.86 559.68L296.8 556.56L290.2 559.57L285.58 557.48L283.49 558.86L282.74 559.13L280.65 559.84L278.63 558.99L278 558.72L277.73 553.52L278.8 549.95L280.94 547.09V538.16L282.73 537.44L283.8 532.8L285.94 531.37L288.44 534.23L293.09 531.73L296.66 535.3L299.52 536.73L304.52 533.51L306.67 529.22L307.38 523.15L311.31 522.79L313.1 519.93L312.74 514.22L314.52 511.72L320.96 511.36L325.24 508.86H328.1L328.82 506.72L332.03 506.36L335.96 509.57L339.53 507.79L347.75 510.65L349.54 514.58L355.97 514.93L362.76 513.86L362.04 517.79L359.54 521.01L360.61 524.22L363.83 526.72L368.12 527.44V530.65L366.33 532.8L368.12 536.01L373.48 537.8L375.26 539.94L377.05 532.44L382.05 532.8L385.62 535.3L386.69 542.44L389.55 551.02L390.62 553.88L386.34 559.59L379.91 562.45L377.05 562.81L371.33 568.17L366.69 568.52L364.54 571.38L358.11 574.6H352.04L350.25 577.46L343.11 582.1L345.61 586.75V590.67L343.82 591.39L343.46 594.96L344.89 597.82L342.39 602.11L337.06 605.17Z" fill="#CCCCCC" stroke="white" stroke-width="0.5"/>
<path d="M444.549 562.77L447.859 561L450.619 560.73L451.729 555.48L450.349 552.72L443.169 551.89L436.819 546.64L430.189 543.61L429.359 541.12L431.849 534.49L436.539 531.46V528.14L433.229 525.38L433.499 523.73L432.119 519.86L432.949 516.82L433.779 515.72L437.639 517.93H440.409L444.269 519.58L446.759 521.79H448.409L455.869 519.86L457.529 515.17V511.3H460.559L465.259 513.78L468.019 514.06L471.609 517.1L476.029 515.44L476.849 513.78L479.619 512.68L479.889 516.27L482.929 519.58L488.729 520.41L496.179 511.85L498.939 509.64L501.009 509.23L502.309 510.35L507.859 510.11L513.509 513.38L513.989 515.76L517.239 519.42L521.269 521.75L523.619 527.59L523.379 530.08L526.639 532.97L526.809 534.67L530.349 540.19L535.939 544.3L538.649 543.59L544.459 546.36L541.849 550.84L543.249 552.31L542.979 556.24L541.119 561.02L533.159 566.15L530.259 574.08L526.019 576.3L523.939 579.63L515.669 583.42L515.549 587.52L513.849 589.48L515.059 592.46L510.619 600.3L506.559 600.23L505.509 601.51L504.389 600.72L502.079 603.68L501.449 602.08L499.249 600.95L497.019 601.76L494.179 598.62L489.719 599.31L488.399 601.88L488.439 604.17L483.579 601.27L481.349 602.58L470.499 600.3L463.049 591.74L466.359 587.87L455.319 581.52L450.349 579.59H447.029L446.199 577.65L442.609 576.55L440.679 573.51L442.889 571.03L446.759 570.75L447.029 568.82L448.969 567.71L447.579 565.23L444.549 564.95V562.77Z" fill="#CCCCCC" stroke="white" stroke-width="0.5"/>
<path d="M481.349 602.58L480.949 605.25L479.729 606.64L475.669 609.9L472.019 611.03L468.569 610.93L465.979 613.08H463.819L462.099 616.97L459.079 619.12L454.759 619.99L453.899 622.58L451.999 623.77H448.139L442.889 622.11V616.31H441.229L440.409 617.69L437.639 613.27L430.189 616.86L429.079 614.38L429.359 610.51L423.559 609.96L419.699 613L416.379 610.24H413.899L411.409 615.76L405.339 616.59L402.299 614.38L399.259 614.65L397.049 616.31H392.909L390.979 619.35V621.56L388.489 624.6L387.389 631.77L383.799 632.88L383.699 634.7L383.579 634.63L380.959 634.77L376.019 640.55L373.359 641.64L370.179 638.92L365.199 630.16L360.959 627.42L355.899 626.21L349.429 626.33L349.299 626.28L343.619 623.3L334.179 622.6L333.699 617.9L336.809 612.35L337.699 606.08L337.059 605.17L342.389 602.11L344.889 597.82L343.459 594.96L343.819 591.39L345.609 590.67V586.75L343.109 582.1L350.249 577.46L352.039 574.6H358.109L364.539 571.38L366.689 568.52L371.329 568.17L377.049 562.81L379.909 562.45L386.339 559.59L390.619 553.88L390.069 552.41L396.229 551.42L401.189 549.21L403.399 551.15L403.679 555.01L411.139 550.04L415.549 550.32L419.969 551.7L429.079 561.09L432.119 562.19L432.399 566.06L437.369 565.5L438.469 567.71L440.679 567.44L442.609 563.57L444.549 562.47V564.95L447.579 565.23L448.969 567.71L447.029 568.82L446.759 570.75L442.889 571.03L440.679 573.51L442.609 576.55L446.199 577.65L447.029 579.59H450.349L455.319 581.52L466.359 587.87L463.049 591.74L470.499 600.3L481.349 602.58Z" fill="#CCCCCC" stroke="white" stroke-width="0.5"/>
<path d="M472.019 611.03L471.199 611.58L471.469 614.55L473.329 616.95L473.859 619.47L478.969 625.96L478.579 629.13L477.409 629.32L475.089 634.31L473.639 635.14L475.829 637.6L472.999 642.41L474.399 643.78L471.009 652.76L470.769 656.39L474.879 657.44L478.459 661.86L481.549 663.47L484.739 666.73L486.359 670.76L484.409 674.65L483.259 681.64L481.689 683.23L481.339 685.89L476.009 686.78L476.239 689.2L473.549 692.48L473.919 695.26L472.699 697.29L470.189 699.04L469.129 697.68L466.579 697.66L465.769 698.66L461.509 699.3L460.889 700.82L458.889 701.66L448.429 693.15L445.359 696.19L440.449 698.11L440.579 700.46L441.959 702.59L441.499 703.84L440.099 702.53L436.989 702.64L434.529 700.89L429.019 704.16L419.629 701.61L417.709 702.39L413.989 699.55L405.729 695.77L404.649 697.08L403.609 702.27L400.759 703.02L395.619 700.96L390.329 701.78L382.579 709.82L369.949 712.73L362.239 710.39L362.369 702.74L359.849 701.52L358.449 698.48L358.679 695.16L360.699 691.42L364.569 688.62L365.949 682.02L364.899 679.66L365.839 676.91L369.549 673.5L376.219 670.12L378.739 667.14L381.329 655.63L384.739 649.72L389.889 646.77L388.049 643.73L387.489 637.79L384.589 635.23L383.699 634.7L383.799 632.88L387.389 631.77L388.489 624.6L390.979 621.56V619.35L392.909 616.31H397.049L399.259 614.65L402.299 614.38L405.339 616.59L411.409 615.76L413.899 610.24H416.379L419.699 613L423.559 609.96L429.359 610.51L429.079 614.38L430.189 616.86L437.639 613.27L440.409 617.69L441.229 616.31H442.889V622.11L448.139 623.77H451.999L453.899 622.58L454.759 619.99L459.079 619.12L462.099 616.97L463.819 613.08H465.979L468.569 610.93L472.019 611.03Z" fill="#CCCCCC" stroke="white" stroke-width="0.5"/>
<path d="M254.52 649.31L255.57 646.95L256.29 639.8L262.36 637.66L263.08 633.73L268.08 631.94L270.94 635.16L273.8 631.23L277.37 630.15L280.23 632.65L280.94 635.87L285.58 634.8L292.73 629.44L295.59 622.65L293.8 618.01L296.3 615.15L301.31 613.72L299.88 608.72L294.88 606.22L293.8 591.93L295.23 587.28L295.59 580.85L288.8 574.78L286.3 569.77V563.34L283.18 558.97L283.49 558.86L285.58 557.48L290.2 559.57L296.8 556.56L299.86 559.68L301.76 565.23L304.07 563.15L306 563.02L307.56 568.9L307.82 585.21L311.18 580.49L313.85 579.82L315.64 581.16L317.53 586.8L314.69 595.41L315.21 596.84L321.02 596.29L327.15 597.83L330.55 601.2L332.83 605.71L336.75 604.74L337.7 606.08L336.81 612.35L333.7 617.9L334.18 622.6L343.62 623.3L349.3 626.28L349.38 626.31L346.68 633.37L341.32 631.58L337.75 632.65L344.18 638.73L344.54 644.8H339.89L333.82 646.59L333.1 649.8L329.89 654.09L326.31 655.52L320.96 661.95L326.31 666.6L324.53 670.88L321.67 671.96L321.31 676.96L324.53 680.17L325.6 683.03L323.1 684.46L324.89 691.25L319.17 693.75L317.74 695.54L320.6 696.25V699.82L319.17 704.47L322.03 706.61V709.11L323.46 710.54L333.46 712.33L334.67 714.15L329.29 719.31L326.39 724.52L323.23 734.42L320.88 737.19L318.3 737.75L312.89 736.91L310.35 730.71L306.89 727.21L305.51 721.49L303.15 719.45L299.09 719.17L294.14 722.66L292.17 725.59L283.63 730.98L282.73 725.55L277.01 721.97L272.01 722.33L268.79 720.19L269.15 717.33L276.3 710.9L280.23 709.47L283.08 705.9L283.44 700.54L280.94 691.6L276.3 689.46L280.23 685.89L281.3 681.96L277.73 677.31L274.87 675.89L273.8 671.24L263.08 665.52H259.86L259.15 660.88L260.58 658.74L258.43 654.81L259.86 651.95L256.65 650.16L254.52 649.31Z" fill="#CCCCCC" stroke="white" stroke-width="0.5"/>
<path d="M259.858 665.52H257.718L254.148 667.67L248.788 668.02L244.858 661.59L242.708 660.88L238.428 664.45L228.778 663.74L222.348 669.45L223.778 681.6L223.058 691.25L227.348 695.18L234.848 698.39L230.918 699.47L226.638 704.47L221.988 708.04L219.598 715.47L219.108 713.52L214.128 708.21L207.098 705.77L205.808 703.53L200.518 701.63L200.648 700.4L198.458 698.38L196.928 698.43L194.468 700.54L192.348 699.02L188.088 699.95L186.338 698.9L186.558 697.05L185.258 694.81L186.248 694.01L186.408 691.12L185.708 689.28L181.668 685.65L184.018 682.72L183.108 679.63L179.578 676.54L180.218 674.67L178.298 672.64L176.158 667.05L167.728 662.47L166.028 659.3L164.208 658.53L166.178 652.83L165.518 647.17L172.768 639.2L168.348 633.63L162.748 630.34L160.758 624.85L163.208 619.45L176.028 623.28L186.978 624.11L188.348 623.48L192.788 617.62L191.738 614.36L192.518 612.97L197.628 609.15L201.128 609.67L220.138 606.68L222.218 605.46L223.738 602.92L224.248 601.76L226.638 602.29L230.208 599.07L235.568 601.22L240.568 610.15L240.208 618.01L237.348 620.51L239.498 621.94V628.37L236.278 629.08L236.998 632.3L239.138 633.73L240.208 638.37L243.068 638.73L245.208 636.23L246.638 636.59L249.138 645.16L250.928 645.87L253.068 648.73L256.648 650.16L259.858 651.95L258.428 654.81L260.578 658.74L259.148 660.88L259.858 665.52Z" fill="#CCCCCC" stroke="white" stroke-width="0.5"/>
<path d="M283.632 730.98L277.112 733.05L271.782 738.79L267.192 738.83L264.362 740.5L258.452 742.03L253.112 750.84L253.522 758.97L255.232 762.97L254.792 766.56L256.732 770.19L250.752 776.72L242.192 781.96L236.422 791.87L234.882 792.93L232.892 792.17L229.612 792.81L227.382 785.84L227.352 778.45L229.002 777.14L231.702 776.81L229.422 770.12L234.992 765.87L235.602 759.74L233.952 757.48L231.712 748.12L228.612 745.11L226.582 741.18L227.982 738.5L227.372 736.69L228.172 734.16L226.912 729.96L225.022 727.59L222.542 718.49L219.602 715.47L221.992 708.04L226.642 704.47L230.922 699.47L234.852 698.39L227.352 695.18L223.062 691.25L223.782 681.6L222.352 669.45L228.782 663.74L238.432 664.45L242.712 660.88L244.862 661.59L248.792 668.02L254.152 667.67L257.722 665.52H263.082L273.802 671.24L274.872 675.89L277.732 677.31L281.302 681.96L280.232 685.89L276.302 689.46L280.942 691.6L283.442 700.54L283.082 705.9L280.232 709.47L276.302 710.9L271.652 714.83L269.152 717.33L268.792 720.19L272.012 722.33L277.012 721.97L282.732 725.55L283.632 730.98Z" fill="#CCCCCC" stroke="white" stroke-width="0.5"/>
<path d="M283.182 558.97L286.302 563.34V569.77L288.802 574.78L295.592 580.85L295.232 587.28L293.802 591.93L294.882 606.22L299.882 608.72L301.312 613.72L296.302 615.15L293.802 618.01L295.592 622.65L292.732 629.44L285.582 634.8L280.942 635.87L280.232 632.65L277.372 630.15L273.802 631.23L270.942 635.16L268.082 631.94L263.082 633.73L262.362 637.66L256.292 639.8L255.572 646.95L254.522 649.31L253.072 648.73L250.932 645.87L249.142 645.16L246.642 636.59L245.212 636.23L243.072 638.73L240.212 638.37L239.142 633.73L237.002 632.3L236.282 629.08L239.502 628.37V621.94L237.352 620.51L240.212 618.01L240.572 610.15L235.572 601.22L230.212 599.07L226.642 602.29L224.252 601.76L224.492 601.23L224.582 600.15L219.592 592.67L219.352 590.61L220.832 587.5L230.612 580.65L235.612 578.85L239.352 580.72L239.302 578.37L246.812 577.28L247.302 575.9L247.162 572.08L245.112 565.45L245.172 561.06L242.822 561.48L241.842 560.3L241.242 557.75L242.102 553.02L236.552 547.35L235.942 544.62L244.242 542.07L251.882 537.3L255.052 536.38L258.982 532.9L261.642 532.26H262.292L264.842 532.35L268.272 534.51L275.152 546.29L274.872 548.45L270.282 546.87L268.052 547.14L266.712 548.34L267.612 552.51L270.852 555.75L274.312 556.53L277.802 558.63L278.632 558.99L280.652 559.84L282.742 559.13L283.182 558.97Z" fill="#CCCCCC" stroke="white" stroke-width="0.5"/>
<path d="M334.672 714.15L333.462 712.33L323.462 710.54L322.032 709.11V706.61L319.172 704.47L320.602 699.82V696.25L317.742 695.54L319.172 693.75L324.892 691.25L323.102 684.46L325.602 683.03L324.532 680.17L321.312 676.96L321.672 671.96L324.532 670.88L326.312 666.6L320.962 661.95L326.312 655.52L329.892 654.09L333.102 649.8L333.822 646.59L339.892 644.8H344.542L344.182 638.73L337.752 632.65L341.322 631.58L346.682 633.37L349.382 626.31L349.432 626.33L355.902 626.21L360.962 627.42L365.202 630.16L370.182 638.92L373.362 641.64L376.022 640.55L380.962 634.77L383.582 634.63L384.592 635.23L387.492 637.79L388.052 643.73L389.892 646.77L384.742 649.72L381.332 655.63L378.742 667.14L376.222 670.12L369.552 673.5L365.842 676.91L364.902 679.66L365.952 682.02L364.572 688.62L360.702 691.42L358.682 695.16L358.452 698.48L359.852 701.52L362.372 702.74L362.242 710.39L349.902 711.91L345.282 709.54H342.092L339.402 713.8L334.672 714.15Z" fill="#CCCCCC" stroke="white" stroke-width="0.5"/>
</svg>
