<svg width="614" height="399" viewBox="0 0 614 399" fill="none" xmlns="http://www.w3.org/2000/svg">
<path d="M42.8802 291.68L45.0702 291.11L53.1402 291.19L55.7702 292.25H60.5002L62.0602 287.11L64.2402 287.09L66.7302 284.94L67.4502 281.49L66.9802 279.53L72.6402 281.16L76.1402 283.77L77.1102 285.48L78.6502 285.95L80.4302 287.41L84.5602 287.17L84.6502 285.27L85.4902 285.4L86.2802 284.4L87.6502 284.78L88.1502 285.67L90.0102 286.16L90.1402 287.55L91.3402 288.85L92.1902 288.8L93.2002 289.62L96.0702 289.78L100.1 288.56L99.8502 289.83L100.9 289.94V291.84L101.81 291.79L101.79 292.66L102.63 292.71L102.85 293.8L108.29 298.26L111.03 299.64L112.24 299.37L112.56 300.21L113.63 300.13L114.43 301.24L117.35 302.22L120.22 304.34L119.62 306.35L120.79 305.29L121.63 305.4L122.6 303.74L125.28 304.2L126.42 305.62L128.49 306.76L129.88 309.12L134.1 309.61L136.74 311.45L136.98 312L136.11 312.57L136.39 313.52L136.93 313.22L136.85 314.09L138.5 313.76L138.41 314.82L137.12 315.22L138.75 315.88L139.15 319.1L138.48 320.16L135.65 319.78L135.24 320.84L134.23 320.87L134.42 322.66L133.16 324.45L133.49 325.1L132.96 326.43L133.58 327.32L135.22 327.43L135.35 328L135.16 331.01L135.92 332.07L134.65 335.8L136.53 337.13L136.87 339.92L135.81 341.77L138.92 343.74L138.18 345.88L141.34 347.32L140 357.25L139.78 357.87L138.64 358.22L138.83 359.5L138.1 360.63L137.82 363.99L138.66 364.64L139.83 364.04L141.41 364.72L141.03 366.45L139.15 368.93L138.39 373.02L135.92 375.31L141.37 376.56L141.75 377.75L143.16 378.34L143.63 376.91L144.87 376.53L144.39 378.5L145.29 380.29L144.81 380.37L145.38 382.29L144.41 382.58L144.45 383.42L141.56 382.07L136.55 382.23L133.3 381.48L128.49 377.56L126.99 377.45L121.48 372.18L119.08 372.07L118.48 373.34L118.7 375.18L113.88 373.37L111.63 376.04L112.81 378.18L115.11 379.18L117.54 381.91L116.65 382.18L117.43 383.47L116.27 385.82L116.76 389.23L113.84 391.63L110.85 390.33L109.87 389.23L102.02 390.58L101.45 391.87L99.6202 393.36L99.5702 394.38L97.8602 395.65L97.4402 397.68L95.9202 397.92L93.4102 397.41L91.3202 397.92L90.7302 396.22L88.9602 395.57L83.8102 395.65L83.4902 393.84L81.6302 393.17L82.4802 390.28L81.4802 388.9L78.7402 387.42L76.5402 387.74L74.6502 387.2L72.9402 385.42L69.8302 385.82L67.6002 388.82L64.1102 389.42L62.5902 390.2L60.4602 392.41L58.6502 393.03L53.3902 388.9L45.5402 386.9L43.2602 385.15L41.5502 383.45L42.5802 382.69L42.9602 381.1L41.5302 378.12L41.8902 377.67L42.3502 377.96L42.0802 377.29L42.4802 376.83L44.2302 376.88L43.3202 376.75L43.8902 376.1L43.3402 375.8L43.0302 374.1L41.6702 374.26L40.2402 373.5L39.2902 373.86L38.7602 373.45L38.1902 372.21L38.3402 370.45L37.4102 369.18L40.5302 370.39L44.5902 370.69L45.9802 369.72L45.4102 368.77L45.0702 369.69L44.7802 369.48L44.9002 367.47L47.2502 366.85L50.5602 368.53L53.0902 368.91L55.3902 368.2L55.0102 367.1L55.3302 366.12L57.9902 366.91L58.8402 365.28L60.8002 364.42L64.1102 364.39L67.2202 365.69L67.9502 364.23L70.6602 363.28L69.5002 362.99L69.6902 362.15L72.2402 361.93L69.8102 361.61L70.4002 360.39L72.1102 360.12L72.1802 359.23L68.7302 356.14L64.3202 353.54L64.6002 352.51L67.2602 352.35L67.9102 351.68L72.0902 350.94L81.2302 355.76L89.2302 355.25L91.8002 353.71L94.5302 350.78L95.3502 347.89L101.39 344.5L104.55 341.47L102.59 339.6L98.2002 337.62L94.1502 334.07L88.3602 326.24L88.0102 320.43L83.3402 316.31L81.5302 311.43L80.8102 310.77L76.9502 309.85L74.6702 307.92L71.4602 308.28L69.4302 306.95L69.9802 306.16L64.5802 303.09L58.6902 297.47L57.7002 297.98L56.7002 295.78L51.3602 296.6L51.6002 295.38L47.8802 297.2L47.4602 295.97L42.9402 293.91L42.8802 291.68Z" fill="#CCCCCC" stroke="white" stroke-width="0.5"/>
<path d="M145.482 276.81L146.202 276.02L148.122 276.1L149.342 274.9L150.612 276.24L155.992 275.09L159.962 277.49L161.212 277.35L162.942 279.09L162.832 279.75L166.342 279.53L166.722 279.77L166.082 280.67L168.032 281.4L168.402 282.09L170.142 280.32L169.862 281.4L172.292 281.32L173.602 282.79L178.032 273.41L177.862 272.1L179.592 270.5L181.242 270.14L186.872 272.13L188.252 274.33L188.692 276.59L189.912 276.46L190.652 277.57L192.362 275.88L194.882 278.11L195.002 279.58L195.822 280.48H196.602L197.562 278.14L199.072 277.35L200.532 277.68L204.062 282.63L205.722 281.62L206.132 279.69L207.542 277.57L209.882 278.25L211.442 277.68L214.512 275.07L215.812 277.52L215.582 279.45L214.512 280.1L214.692 281.51L216.742 284.1L216.302 284.99L219.822 288.56L221.242 291.98L224.512 292.47L225.102 295.73L227.152 297.12L227.762 298.56L224.532 298.75L224.092 299.18L225.652 301.43L227.662 301.33L228.542 301.81L227.342 307.73L228.732 308.58L229.872 312.7L226.112 313.46L224.212 309.04L222.442 309.74L222.992 312.73L226.852 321.17L227.722 330.38L229.092 330.55L227.722 336.56L223.032 344.69L220.412 347.37L217.632 348.45L215.292 348.59L215.882 353.43L214.442 357.11L213.792 364.47L212.412 366.93L211.632 367.02L206.002 371.72L203.572 373.04L201.712 375.26L198.842 374.53V375.37L196.042 376.02L194.692 378.67L189.322 380.93L186.962 380.5L185.442 380.96L181.892 384.28L180.652 382.91L179.952 380.83H177.382L175.862 380.04L174.132 378.12L171.892 378.37L171.552 379.12L169.782 379.96L166.322 374.67L163.262 375.26L161.952 376.13L158.722 380.99L158.592 384.31L155.112 383.26L154.102 382.45L150.742 381.99L148.022 382.37L146.352 383.47L144.452 383.42L144.412 382.58L145.382 382.29L144.812 380.37L145.292 380.29L144.392 378.5L144.872 376.53L143.632 376.91L143.162 378.34L141.752 377.75L141.372 376.56L135.922 375.31L138.392 373.02L139.152 368.93L141.032 366.45L141.412 364.72L139.832 364.04L138.662 364.64L137.822 363.99L138.102 360.63L138.832 359.5L138.642 358.22L139.782 357.87L140.002 357.25L141.342 347.32L138.182 345.88L138.922 343.74L135.812 341.77L136.872 339.92L136.532 337.13L134.652 335.8L135.922 332.07L135.162 331.01L135.352 328L135.222 327.43L133.582 327.32L132.962 326.43L133.492 325.1L133.162 324.45L134.422 322.66L134.232 320.87L135.242 320.84L135.652 319.78L138.482 320.16L139.152 319.1L138.752 315.88L137.122 315.22L138.412 314.82L138.502 313.76L136.852 314.09L136.932 313.22L136.392 313.52L136.112 312.57L136.982 312L136.742 311.45L134.102 309.61L129.882 309.12L128.492 306.76L129.422 303.74L130.812 303.82L131.342 296.14L132.752 295.35L133.352 296.44L133.792 293.12L133.732 292.17L130.182 285.89L140.192 282.74L139.932 281.87L141.702 279.39L142.952 278.36L144.132 278.28L145.482 276.81Z" fill="#CCCCCC" stroke="white" stroke-width="0.5"/>
<path d="M54.13 121.16L54.51 121.99L56.28 121.71L59.7 122.51L59.22 124.54L59.98 125.4L64.05 124.41L70.63 121.55L73.42 125.01L78.47 126.49L80.55 127.9V128.53L83.13 129.98L84.5 129.93L84.4 132.54L85.2 134.38L84.9 135.89L86.78 137.98L88.75 137.81L89.08 138.83L88.39 140.75L86.55 143.16L85.14 143.77L83.7 143.66L82.73 144.62L80.3 144.37L78.21 146.4L71.88 148.46L71.18 149.8L71.94 154.96L67.93 158.39L69.41 159.7L69.09 161.05L70.44 163.79H71.18L72.39 164.89L74.08 167.93L76.35 168.48L81.32 173.82L89.08 178.45L93.3 181.92L97.86 181.87L103.35 181.02L111.29 178.31L120.3 176.45L120.19 177.32L122.1 178.58L122.35 181.51L121.71 183.62L120.17 184.25L118.72 187.34L118.23 191.09L119.08 193.75L121.34 194.57L123.99 193.34L126.15 194.21L128.22 193.2L129.99 194.18L135.03 195.28L134.97 197.63L134.25 199.3L131.68 202.41L131.99 204.27L130.48 205.45L129.44 207.36L129.08 209.68L126.8 211.27L125.15 214.08L124.54 217.39L125.58 219.71L126.87 221.13L131.38 223.86L133.83 226.34L135.63 227.16L136.55 230L135.96 230.52L137.4 230.85L137.08 231.99L135.67 233.55L136.83 233.44L137.25 232.35L138.03 232.48L139.04 231.56L140.16 231.39L140.5 231.86L140.06 232.67L140.94 233.49L140.75 235.35L141.75 236.3L141.16 237.86L142.78 238.21L143.18 239.17L144.17 239.11L144.38 239.85L146.24 240.31L147.49 240.01L148.54 240.61L147.74 241.81L148.2 243.34L147.04 243.37L145.84 246.61L145.04 247.07L142.4 246.69L142.46 248.22L141.45 248.68L141.83 250.59L143.67 249.91L143.2 251.49L143.81 252.63V254.57L142.48 255.41L142.15 258.63L139.63 260.23L140.31 262.3V266.03L142.89 268.02L143.77 269.43L144.51 274.47L145.48 276.81L144.13 278.28L142.95 278.36L141.7 279.39L139.93 281.87L140.19 282.74L130.18 285.89L133.73 292.17L133.79 293.12L133.35 296.44L132.75 295.35L131.34 296.14L130.81 303.82L129.42 303.74L128.49 306.76L126.42 305.62L125.28 304.2L122.6 303.74L121.63 305.4L120.79 305.29L119.62 306.35L120.22 304.34L117.35 302.22L114.43 301.24L113.63 300.13L112.56 300.21L112.24 299.37L111.03 299.64L108.29 298.26L102.85 293.8L102.63 292.71L101.79 292.66L101.81 291.79L100.9 291.84V289.94L99.85 289.83L100.1 288.56L96.07 289.78L93.2 289.62L92.19 288.8L91.34 288.85L90.14 287.55L90.01 286.16L88.15 285.67L87.65 284.78L86.28 284.4L85.49 285.4L84.65 285.27L84.56 287.17L80.43 287.41L78.65 285.95L77.11 285.48L76.14 283.77L72.64 281.16L66.98 279.53L67.45 281.49L66.73 284.94L64.24 287.09L62.06 287.11L60.5 292.25H55.77L53.14 291.19L45.07 291.11L42.88 291.68L41.04 285.62L39.04 284.59L39.08 281.84L40.07 280.67L40.68 278.09L42.27 276.07L41.44 273.79L42.71 271.5L45.37 269.41L47.61 264.83L48.01 262.82L50.71 259.36L49.93 255.09L51.85 246.64L50.37 245.41L46.78 247.32L46.26 246.53L42.18 245.22L39.46 247.32L39.14 248.57L37.26 250.75L34.69 250.48L33.44 251.68L31.18 251.6L26.9 247.75L25.17 247.67L22.47 244.21L22.23 242.88L21.01 241.46L19.97 241.21L19.89 240.61L21.81 238.4L23.97 238.16L25.7 235.05L26.37 231.23L25.88 230.03L24.45 229.37L24.6 226.62L25.7 225.5L30.55 223.86L33.13 220.01L38.59 217.74L40.01 215.83L43.05 213.7L44.4 211.32L45.83 210.78L48.28 208.65L50.03 206L52.21 204.36L54.13 200.45L53.98 198.18L55.37 196.73L56.13 194.07L54.68 191.67L50.71 190.02L49.53 190.13L46.44 192.13L45.87 191.69L46.32 190.68L42.37 190.76L41.95 190.08L38.53 191.86L37.56 190.93L37.67 189.09L36.16 186.39L32.07 184.09L30.7 183.95L30.21 182.47L28.44 182.8L27.87 183.4L24.98 183.37L23.84 181.76L21.9 180.91L20.02 180.66L18.35 181.29L14.87 180.47L14.42 180.77L15.23 182.36L14.83 183.95L10.35 185.67L8.05 184.61L7.44 183.37L8.53 182.17L8.64 181.13L7.92 180.03L9.42 179.41L10.2 178.25L8.51 176.8L5.22 172.42L3.19 162.94L1.63 162.83L1 160.83L6.26 160.09L8.72 157.87L8.81 155.98L10.22 154.41L13.49 153.62L15.14 150.52L12.93 145.03L13.41 143.74L16.07 142.97L19.22 143.49L22.11 141.02L24.24 140.83L26.75 139.13L27.76 139.43L27.95 137.81L29.85 136.33L31.44 136.47L33.02 135.04L34.56 134.9L36.14 133.39L37.31 133.25L39.35 129.96L39.78 125.94L40.47 124.52L41.44 124.3L43.17 122.26L48.15 121L49.97 121.16L53.22 119.95L54.13 121.16Z" fill="#CCCCCC" stroke="white" stroke-width="0.5"/>
<path d="M70.5488 100.28L73.5887 100.01L75.2387 100.78L76.5887 100.5L80.9587 103.37L84.2687 103.17L87.4587 100.86L88.1287 99.54L89.2887 100.5L92.0987 100.95L97.0788 99.43L97.6287 98.69L100.669 99.68L103.229 99.1L105.019 99.62L106.099 101.03L109.159 101.74L110.929 102.82L114.329 105.98L115.469 105.54L117.769 106.89L118.169 108.43L119.689 108.62L121.569 110.14L123.989 110.16L126.719 107.41L129.779 107.05L133.489 108.57L137.929 109.28L139.209 110.82L142.299 111.35L143.629 112.69L145.949 116.9V118.83L148.959 120.67L149.349 122.54L149.999 123.06L152.199 123.25L156.459 120.78L160.359 121.6L161.569 120.64L163.379 122.84L165.259 123.55L167.249 123.06L169.059 121.77L170.559 121.96L174.249 120.56L175.749 121.19L175.599 121.68L179.339 124.19L182.989 123.75L184.789 122.92L185.479 121.99L189.729 121.9L190.459 121.36L192.589 121.88L195.739 120.06L198.129 119.6L201.729 119.76L202.979 121.49L202.029 121.77L201.879 123.03L203.679 124.38L204.079 126.11L204.749 126.47H208.549L210.679 127.13L211.019 128.53L212.059 128.23L213.699 128.91L216.739 125.42L219.189 125.78L222.719 129.57V131L224.979 134.02L226.159 139.21L226.979 139.95L229.549 139.1L229.529 139.38L228.669 140.5L226.279 140.75L224.809 141.57V142.15L226.709 143.52L227.079 144.84L226.309 146.9L224.699 148.65L224.779 149.31L225.399 150.24L227.319 151.04L227.779 151.97L227.569 152.74L225.629 154.14L224.279 156.03L227.109 160.91L226.239 162.72L229.089 163.87L228.559 165.3L230.379 167.27L227.089 167.41L225.989 169L226.069 169.79L228.799 170.67L228.269 171.9L229.769 174.26L225.119 177.95L225.269 179.71L224.259 180.55L223.829 181.79L221.219 184.22L220.119 183.79L219.569 184.42L218.679 184.36L217.359 185.59L217.059 187.18L215.879 188.16L214.989 187.62L211.469 187.59L210.029 186.69L208.399 186.91L207.939 187.48L209.669 188.66L207.639 189.94L202.959 190.65L202.619 190.16L201.269 189.7L199.309 190.27L197.769 189.94L197.939 191.94L198.929 193.91L200.909 195.82L196.199 198.5H193.459L193.709 200.61L192.949 201.73L192.149 201.4L192.069 200.04L189.909 199.84L189.889 201.13L189.199 201.54L188.289 200.83L186.789 203.54L185.159 203.84L183.559 204.96L183.049 208.35L184.829 210.09L184.569 211.21L185.019 212.23L184.029 214.38L181.579 214.58L180.119 213.24L178.119 213.78L170.429 212.58L169.289 213.32L168.219 215.53L164.269 215.5L163.449 217.03L162.029 217.8L160.769 220.5L161.169 225.33L160.869 226.21L159.409 227.35L158.949 229.95L156.479 231.45L156.499 232.65L154.389 233.93L154.239 235.81L152.949 236.19L151.199 235.7L151.079 236.9L149.769 236.88L149.389 237.42L149.529 239.11H148.459L147.489 240.01L146.239 240.31L144.379 239.85L144.169 239.11L143.179 239.17L142.779 238.21L141.159 237.86L141.749 236.3L140.749 235.35L140.939 233.49L140.059 232.67L140.499 231.86L140.159 231.39L139.039 231.56L138.029 232.48L137.249 232.35L136.829 233.44L135.669 233.55L137.079 231.99L137.399 230.85L135.959 230.52L136.549 230L135.629 227.16L133.829 226.34L131.379 223.86L126.869 221.13L125.579 219.71L124.539 217.39L125.149 214.08L126.799 211.27L129.079 209.68L129.439 207.36L130.479 205.45L131.989 204.27L131.679 202.41L134.249 199.3L134.969 197.63L135.029 195.28L129.989 194.18L128.219 193.2L126.149 194.21L123.989 193.34L121.339 194.57L119.079 193.75L118.229 191.09L118.719 187.34L120.169 184.25L121.709 183.62L122.349 181.51L122.099 178.58L120.189 177.32L120.299 176.45L111.289 178.31L103.349 181.02L97.8587 181.87L93.2988 181.92L89.0788 178.45L81.3187 173.82L76.3487 168.48L74.0788 167.93L72.3887 164.89L71.1787 163.79H70.4388L69.0887 161.05L69.4088 159.7L67.9287 158.39L71.9388 154.96L71.1787 149.8L71.8787 148.46L78.2087 146.4L80.2988 144.37L82.7288 144.62L83.6987 143.66L85.1387 143.77L86.5488 143.16L88.3887 140.75L89.0788 138.83L88.7487 137.81L86.7787 137.98L84.8988 135.89L85.1987 134.38L84.3988 132.54L84.4987 129.93L83.1287 129.98L80.5488 128.53V127.9L78.4688 126.49L73.4187 125.01L70.6287 121.55L64.0487 124.41L59.9787 125.4L59.2188 124.54L59.6987 122.51L61.6387 120.89L61.8288 118.85L62.7987 116.65L61.8088 114.32L64.6787 110.85L64.5087 110.05L63.5987 109.45L64.1787 107.41L63.5187 105.29L65.7387 102.73L65.6888 99.51L67.0488 98.66L70.5488 100.28Z" fill="#CCCCCC" stroke="white" stroke-width="0.5"/>
<path d="M229.533 139.38L234.133 142.48L235.153 141.35L239.163 141.63L243.403 140.06L243.593 147.39L243.173 148.71L246.553 152.52L248.893 152.63L249.653 153.59L250.073 157.07L249.563 160.34L251.193 160.94L255.013 159.92L255.143 161.6L253.493 164.75L255.103 167.08L255.123 169L253.603 171.71L254.993 173.98H259.553L264.743 175.71L265.993 174.94L268.543 175.74L272.993 174.31L282.663 175.05L285.073 177.16L288.073 178.31L288.493 179.38L290.163 179.62L291.063 180.75L292.373 180.23L293.553 183.54L295.903 183.92L294.933 185.15L293.793 184.8L293.053 186.47L291.383 186.69L291.633 191.78L290.643 192.87L289.393 193.17L289.273 194.92L285.793 194.05L283.593 195.61L281.993 195.96L275.133 196.23L275.823 197.33L277.703 197.71L277.573 199.11L278.553 199.6L279.293 201.51L280.703 202.22L279.463 204.93L279.623 207.06H280.933L282.333 206.32L282.923 206.65L287.773 205.94L289.083 206.51L290.013 207.77L289.373 210.59L290.133 211.62L290.203 213.15L292.843 215.94L294.903 216.19L298.813 216.35L301.223 215.75L303.083 212.66L304.973 211.11L309.053 209.3L311.263 212.88L310.593 214.11L307.913 214.41L309.223 216.54L309.263 218.75L310.573 219.52L310.313 220.09L307.973 220.47L308.653 221.92L310.333 223.37L314.073 224.79L323.783 223.01L324.753 225.22L327.103 225.88L327.393 228.15L330.243 232.07L330.543 233.66L331.213 234.31L328.093 234.28L328.573 233.47L326.933 232.92L325.173 234.34L324.413 236.52L321.333 235.32L320.533 234.23L315.213 234.01L314.603 235.35L315.573 235.81L316.713 239.17L316.123 240.64L314.873 240.72L314.493 241.51L313.183 242.14L313.633 243.86L312.783 244.54L310.953 244.24L310.743 245L309.813 244.97L307.483 243.26L304.493 243.53L303.123 241.95L300.653 241.57L298.893 242.71L298.683 245.85L295.773 246.77L293.363 246.91L291.763 245.46L291.173 243.83L289.883 242.71L289.923 240.18H288.263L287.223 237.2L285.813 236.52L285.093 237.56L284.063 237.61L284.183 239.74L282.873 241.16L279.333 240.69L278.273 241.43L277.053 240.91L276.293 241.32L275.513 240.09L274.373 241.1L273.593 240.07L272.663 240.28L272.533 239.44L271.713 238.81L270.083 240.61L268.273 240.75L268.123 242.49L265.633 244.16L263.333 243.15L261.913 245.25L262.523 246.26L261.343 246.42L259.593 248.79L259.513 251.13L258.983 251.43L258.713 250.75L257.463 251.92L258.133 253.29L257.193 253.56L255.853 256.72L257.183 258.35L257.273 257.59L258.053 257.43L258.923 258.52L259.363 257.86L260.103 258.54L261.113 258.57L260.103 259.66L261.343 264.73L262.333 266.93L264.193 268.94L263.813 269.57L262.743 269.6L262.533 272.75L263.583 274.93L265.753 276.32L267.343 280.13L265.863 280.62L265.213 282.3L263.793 283.31L264.023 289.32L265.803 288.28L266.663 289.45L266.713 290.87L267.893 291.08L269.413 292.28L269.573 293.01L268.813 293.91L268.943 295.65L271.903 296.49L273.143 297.79L272.783 298.53L273.143 299.37L272.133 300.92V303.5L274.243 308.22L277.533 308.98L278.443 306.84L279.203 306.92L279.923 308.87L280.783 308.2L283.483 307.95L285.893 309.61L285.573 311.34L286.173 312.84L285.173 313.95L285.383 319.27L283.673 320.38L283.043 321.74L281.573 320.7L281.213 319.76L279.693 320.05L278.193 319.02L273.843 314.65L266.873 309.06L265.803 307.41L264.893 307.98L264.343 307.46L262.723 305.1L261.763 301.62L255.333 296.95L254.933 295.3L252.333 292.69L249.693 292.25L247.603 295.02L245.393 295.73L244.143 297.31L241.923 296.65L240.893 297.09L238.343 296.3L235.493 296.76L234.373 296.3L233.903 296.36L233.653 297.82L228.393 297.33L227.763 298.56L227.153 297.12L225.103 295.73L224.513 292.47L221.243 291.98L219.823 288.56L216.303 284.99L216.743 284.1L214.693 281.51L214.513 280.1L215.583 279.45L215.813 277.52L214.513 275.07L211.443 277.68L209.883 278.25L207.543 277.57L206.133 279.69L205.723 281.62L204.063 282.63L200.533 277.68L199.073 277.35L197.563 278.14L196.603 280.48H195.823L195.003 279.58L194.883 278.11L192.363 275.88L190.653 277.57L189.913 276.46L188.693 276.59L188.253 274.33L186.873 272.13L181.243 270.14L179.593 270.5L177.863 272.1L178.033 273.41L173.603 282.79L172.293 281.32L169.863 281.4L170.143 280.32L168.403 282.09L168.033 281.4L166.083 280.67L166.723 279.77L166.343 279.53L162.833 279.75L162.943 279.09L161.213 277.35L159.963 277.49L155.993 275.09L150.613 276.24L149.343 274.9L148.123 276.1L146.203 276.02L145.483 276.81L144.513 274.47L143.773 269.43L142.893 268.02L140.313 266.03V262.3L139.633 260.23L142.153 258.63L142.483 255.41L143.813 254.57V252.63L143.203 251.49L143.673 249.91L141.833 250.59L141.453 248.68L142.463 248.22L142.403 246.69L145.043 247.07L145.843 246.61L147.043 243.37L148.203 243.34L147.743 241.81L148.543 240.61L147.493 240.01L148.463 239.11H149.533L149.393 237.42L149.773 236.88L151.083 236.9L151.203 235.7L152.953 236.19L154.243 235.81L154.393 233.93L156.503 232.65L156.483 231.45L158.953 229.95L159.413 227.35L160.873 226.21L161.173 225.33L160.773 220.5L162.033 217.8L163.453 217.03L164.273 215.5L168.223 215.53L169.293 213.32L170.433 212.58L178.123 213.78L180.123 213.24L181.583 214.58L184.033 214.38L185.023 212.23L184.573 211.21L184.833 210.09L183.053 208.35L183.563 204.96L185.163 203.84L186.793 203.54L188.293 200.83L189.203 201.54L189.893 201.13L189.913 199.84L192.073 200.04L192.153 201.4L192.953 201.73L193.713 200.61L193.463 198.5H196.203L200.913 195.82L198.933 193.91L197.943 191.94L197.773 189.94L199.313 190.27L201.273 189.7L202.623 190.16L202.643 190.65L207.643 189.94L209.673 188.66L207.943 187.48L208.403 186.91L210.033 186.69L211.473 187.59L214.993 187.62L215.883 188.16L217.063 187.18L217.363 185.59L218.683 184.36L219.573 184.42L220.123 183.79L221.223 184.22L223.833 181.79L224.263 180.55L225.273 179.71L225.123 177.95L229.773 174.26L228.273 171.9L228.803 170.67L226.073 169.79L225.993 169L227.093 167.41L230.383 167.27L228.563 165.3L229.093 163.87L226.243 162.72L227.113 160.91L224.283 156.03L225.633 154.14L227.573 152.74L227.783 151.97L227.323 151.04L225.403 150.24L224.783 149.31L224.703 148.65L226.313 146.9L227.083 144.84L226.713 143.52L224.813 142.15V141.57L226.283 140.75L228.673 140.5L229.533 139.38Z" fill="#CCCCCC" stroke="white" stroke-width="0.5"/>
<path d="M227.757 298.56L228.387 297.33L233.647 297.82L233.897 296.36L234.367 296.3L235.488 296.76L238.337 296.3L240.887 297.09L241.917 296.65L244.137 297.31L245.387 295.73L247.598 295.02L249.688 292.25L252.327 292.69L254.927 295.3L255.327 296.95L261.758 301.62L262.717 305.1L264.337 307.46L264.888 307.98L265.797 307.41L266.867 309.06L273.837 314.65L278.188 319.02L279.688 320.05L281.207 319.76L281.568 320.7L283.038 321.74L283.668 320.38L285.378 319.27L285.168 313.95L286.168 312.84L285.568 311.34L285.888 309.61L283.478 307.95L280.777 308.2L279.918 308.87L279.198 306.92L278.438 306.84L277.527 308.98L274.237 308.22L272.128 303.5V300.92L273.138 299.37L272.777 298.53L273.138 297.79L271.897 296.49L268.938 295.65L268.807 293.91L269.568 293.01L269.408 292.28L267.888 291.08L266.707 290.87L266.658 289.45L265.797 288.28L264.017 289.32L263.788 283.31L265.207 282.3L265.857 280.62L267.337 280.13L265.747 276.32L263.577 274.93L262.527 272.75L262.737 269.6L263.807 269.57L264.188 268.94L262.327 266.93L261.337 264.73L260.098 259.66L261.107 258.57L260.098 258.54L259.357 257.86L258.918 258.52L258.047 257.43L257.267 257.59L257.177 258.35L255.848 256.72L257.188 253.56L258.128 253.29L257.457 251.92L258.707 250.75L258.978 251.43L259.508 251.13L259.587 248.79L261.337 246.42L262.517 246.26L261.908 245.25L263.327 243.15L265.628 244.16L268.117 242.49L268.267 240.75L270.077 240.61L271.707 238.81L272.527 239.44L272.658 240.28L273.587 240.07L274.367 241.1L275.508 240.09L276.288 241.32L277.047 240.91L278.267 241.43L279.327 240.69L282.867 241.16L284.177 239.74L284.057 237.61L285.087 237.56L285.807 236.52L287.217 237.2L288.258 240.18H289.918L289.878 242.71L291.168 243.83L291.758 245.46L293.357 246.91L295.767 246.77L298.677 245.85L298.888 242.71L300.647 241.57L303.117 241.95L304.487 243.53L307.478 243.26L309.807 244.97L310.737 245L310.948 244.24L312.777 244.54L313.628 243.86L313.177 242.14L314.487 241.51L314.867 240.72L316.117 240.64L316.707 239.17L315.568 235.81L314.598 235.35L315.207 234.01L320.527 234.23L321.327 235.32L324.408 236.52L325.168 234.34L326.927 232.92L328.568 233.47L328.087 234.28L331.207 234.31L335.258 235.62L335.938 237.75L336.797 237.07L337.008 235.73L337.598 235.51L340.837 235.62L342.438 236.44L342.688 238.21L342.117 239.58L339.818 240.67L339.318 243.45L341.128 244.37L341.378 247.05L343.408 248.22L347.888 252.52L352.107 254.27L353.348 254.32L353.228 252.91L354.008 252.36L355.607 253.12L355.818 251.57L357.427 251.49L357.967 250.75L357.698 248.65L359.087 248.57L360.207 249.28L362.068 252.63L363.857 252.5L363.967 250.81L362.408 249.04L363.207 247.89V246.8L363.837 246.53L366.418 247.35L368.628 249.28L368.508 246.28L371.497 247.37L373.848 247.18L373.927 250.64L376.487 251.43L377.288 252.8L377.228 253.53L375.827 255.09L376.607 266.09L375.047 270.17L376.168 271.15L380.647 272.59L382.797 273.92L382.177 275.69L382.747 276.05L382.938 278.63L385.327 278.6L384.207 280.59L379.897 281.46L379.547 282.52L380.788 283.5L381.277 285.95L382.967 288.2L385.978 298.23L383.747 299.94L383.008 301.33L381.487 301.22L380.668 301.95L379.077 302.09L372.288 306.11L367.617 307.76L366.077 309.69L363.698 310.94L360.357 315.2L356.177 316.26L355.948 316.77L358.077 318.34L359.827 317.61L360.987 317.96L361.647 320.3L362.198 320.68L364.348 319.95L365.188 321.17L365.318 324.34L367.198 326.05L366.987 325.13L367.728 323.23L369.598 323.15L368.967 325.75L371.737 329.79L372.598 328.92L371.147 324.94L371.337 323.66L373.698 322.06L375.047 318.94L378.487 318.86L378.867 320.05L378.318 322.68L379.478 322.96L379.568 324.07L379.057 326.32L377.247 326.81L376.948 330.33L377.408 330.66L377.857 330.14L378.047 329.08L379.228 329.11L379.647 326.24L380.788 325.5L380.897 326.97L382.228 329.14L383.688 330.11L384.818 331.79V333.07L385.647 333.88L386.027 335.97L387.967 337.08L385.818 339.35L384.128 339.98L381.777 339.11L381.107 337.76L379.688 338.16L376.438 337.59L375.658 338.54L377.388 339.38L377.198 340.3L375.307 341.2L372.408 340.93L367.938 341.93L367.918 344.12L368.867 346.72L365.827 347.1L363.117 349.29L367.217 354.9L367.728 367.56L368.508 368.5L370.198 368.66L370.047 370.67L372.077 371.61L373.408 374.21L378.217 377.1L379.497 378.85L380.918 378.1L381.467 379.1L383.888 380.83L378.677 384.04L376.247 389.17L374.497 389.31L373.237 390.2L367.158 388.66L362.147 386.71L356.647 390.12L353.707 394.3L353.388 396.81L352.758 397.27L349.297 397.35L347.247 394.73L346.367 395.54L346.388 396.81L344.927 398.27L341.967 398.38L340.577 397.84L338.557 396.46L336.658 392.82L333.807 391.79L330.237 387.77L326.897 386.53L326.478 385.69L326.707 382.07L325.357 382.04L323.607 380.69L321.878 380.53L320.807 379.04L319.867 379.12L318.057 380.91L315.478 381.31L314.918 380.18L312.677 378.34L307.017 377.69L304.397 374.61L297.307 369.42L295.538 369.69L295.098 371.04L293.848 372.21L294.337 376.15L293.577 377.37L294.098 378.88L292.807 383.47L289.438 383.77L286.647 384.8L285.277 386.31L275.547 388.04L275.168 385.09L273.557 383.18L273.418 381.1L272.258 379.75L272.908 378.64L271.747 376.58L270.017 377.07L269.767 375.64L266.318 375.23L266.327 373.91L264.337 374.13L262.628 371.99L260.747 370.94L259.908 369.48L256.887 368.02L253.997 367.8L253.357 369.96L251.757 370.12L250.467 367.93L251.268 362.71L252.557 362.07L253.378 360.33L252.197 357.98L252.057 356.55L249.568 353.27L244.408 352.54L242.107 349.21L240.087 348.81L239.387 346.61L236.327 345.5L233.727 343.01L234.708 339.44L234.387 338.65L235.908 334.21L237.197 333.18L235.458 332.63L234.298 331.23L232.997 332.04L230.837 332.28L230.417 331.09L230.057 331.55L229.717 330.6L229.087 330.55L227.717 330.38L226.848 321.17L222.988 312.73L222.438 309.74L224.208 309.04L226.107 313.46L229.867 312.7L228.727 308.58L227.337 307.73L228.537 301.81L227.658 301.33L225.647 301.43L224.087 299.18L224.527 298.75L227.757 298.56Z" fill="#CCCCCC" stroke="white" stroke-width="0.5"/>
<path d="M293.053 186.47V188.79L295.203 190.02L297.083 192.6L300.733 192.76L304.633 191.75L306.263 190.76L308.603 191.48L311.863 191.42L312.063 192.02L312.443 191.89L312.173 193.39L313.103 193.66L314.453 192.3L315.933 192.21L317.573 190.87L319.373 191.58L324.053 191.31L328.893 188.11L330.283 188.74L330.813 190.05L333.403 192.21L333.683 194.02L334.803 194.13L334.483 196.45L336.063 196.73L337.603 195.91L338.563 196.07L339.613 200.53L343.093 202.99L343.333 204.44L344.133 204.77L344.783 206.76L346.243 208.04L343.813 208.65L343.033 209.3L342.693 210.64L338.243 208.95L337.203 207.83L336.593 207.96L336.913 209.14L336.113 209.58L335.163 212.72L339.573 215.37L337.403 216.51L335.643 216.76L333.113 215.91L332.483 216.16L330.053 214.85L329.353 215.64L329.593 216.87L327.543 217.63L326.713 217.39L326.743 220.75L326.423 221.02L325.203 219.68L323.383 221.07L323.253 222.33L323.783 223.01L314.073 224.79L310.333 223.37L308.653 221.92L307.973 220.47L310.313 220.09L310.573 219.52L309.263 218.75L309.223 216.54L307.913 214.41L310.593 214.11L311.263 212.88L309.053 209.3L304.973 211.11L303.083 212.66L301.223 215.75L298.813 216.35L294.903 216.19L292.843 215.94L290.203 213.15L290.133 211.62L289.373 210.59L290.013 207.77L289.083 206.51L287.773 205.94L282.923 206.65L282.333 206.32L280.933 207.06H279.623L279.463 204.93L280.703 202.22L279.293 201.51L278.553 199.6L277.573 199.11L277.703 197.71L275.823 197.33L275.133 196.23L281.993 195.96L283.593 195.61L285.793 194.05L289.273 194.92L289.393 193.17L290.643 192.87L291.633 191.78L291.383 186.69L293.053 186.47Z" fill="#CCCCCC" stroke="white" stroke-width="0.5"/>
<path d="M367.521 105.46L368.971 106.67L371.061 106.26L371.361 108.98L373.071 110.99L373.231 113.71L374.901 114.01L376.931 113.16L378.681 114.48L378.961 115.83L381.321 117.01L383.301 115.64L385.651 118.28L387.041 118.83L386.091 120.53L386.341 122.01L385.801 124.65H384.361L384.091 125.4L384.741 126.36L386.561 126.96L387.721 128.28L386.771 129.16L387.591 130.31L387.361 130.75L384.801 131.25L385.861 132.37L388.691 133L388.581 134.32L389.511 134.95L393.411 135.81L393.311 137.15L394.721 137.92L397.871 137.84L399.411 137.01L401.031 138.17L402.531 136.79L403.571 137.32L403.741 139.35L404.601 140.72L409.441 139.32L410.701 140.42L410.561 142.67L411.521 144.32L412.431 148.13L412.391 151.04L413.701 152.6L412.661 155.73L413.911 156.66L414.061 157.73L412.621 158.66V159.24L414.561 159.32L416.461 160.28L416.171 161.84L416.821 164.01L418.981 164.26L419.901 165.05L423.201 164.15L424.841 165.35L428.561 164.53L432.021 165.85L432.281 167.3L435.401 168.17L438.001 168.23L438.121 168.7L439.581 169.16L441.861 168.89L441.311 170.5L441.841 171.24L443.291 170.67L445.701 171.02L447.451 170.42L449.011 170.78L450.281 170.56L452.311 171.76L453.301 171.24L455.261 175.08L457.561 175.22L462.121 174.12L462.581 176.42L461.471 177.16L461.261 179.21L459.951 182.33L458.511 183.46L454.671 185.02L452.941 184.11L453.831 182.23L453.001 181.18L450.681 181.08L450.051 182.28L448.931 182.61L448.591 180.83L442.931 180.69L439.661 179.46L436.601 181.49L435.901 181.32L433.751 182.36L432.301 184.94L433.601 185.98L433.181 186.77L433.621 189.04L433.081 190.52L431.661 190.85L431.451 192.32L430.571 193.53L426.051 195.96L425.351 197.79L426.741 198.86L427.191 200.17L423.961 201.76L425.251 203.67L426.051 203.73L425.651 204.38L426.701 204.55L426.871 205.91L426.001 207.31L426.761 207.55L426.391 208.18L425.861 208.1L426.241 209.06L425.351 210.31L426.411 212.69L427.151 212.64L427.021 214.52L428.541 214.55L429.001 215.26L428.181 216.79L428.541 217.61L430.561 218.94L432.281 218.75L432.871 217.85L433.371 217.96L433.921 218.64L433.731 219.27L434.641 219.14L435.481 219.76L435.711 222.58L437.741 221.51L438.541 222.63L439.661 222.19L442.381 224.71L445.321 225.83L446.251 225.61L447.371 227.35L444.751 226.84L442.741 228.17L440.171 227.41L437.721 227.68L435.901 231.2L434.721 231.31L432.341 232.67L429.871 236.82L427.931 238.54L423.241 240.42L416.651 241.13L417.961 238.51L421.811 236.06L422.711 234.61L423.051 232.05L419.171 231.45L417.461 232.37L416.591 232.13L415.161 232.84L414.481 232.46L414.731 231.5L413.831 229.43L413.431 225.74L411.531 225.28L409.921 222.06L407.751 221.1L405.531 222.74V222.06L404.271 220.83L401.061 219.14L396.791 220.01L393.691 219.27L392.021 220.15L390.671 219.79L388.331 220.15L384.741 219.46L383.181 218.02L379.291 220.23L374.461 219.98L372.431 220.39L369.201 219.38L367.281 220.15L364.861 219.76L364.671 223.37L363.171 222.22L363.361 217.52L361.841 216.79L361.861 214.63L360.761 213.21L360.061 213.15L359.851 214.47L358.971 215.31L356.861 215.75L354.601 215.42L352.301 213.54L349.971 214.38L348.481 213.67L346.491 214.88L345.671 214.79L345.311 216.16L348.121 217.91L348.081 218.94L346.721 221.51L347.421 222.82L346.351 223.97L349.071 225.01L348.771 229.15L346.221 227.27L343.601 226.23L336.361 224.49L334.881 224.46L334.171 225.12L329.611 226.4L327.101 225.88L324.751 225.22L323.781 223.01L323.251 222.33L323.381 221.07L325.201 219.68L326.421 221.02L326.741 220.75L326.711 217.39L327.541 217.63L329.591 216.87L329.351 215.64L330.051 214.85L332.481 216.16L333.111 215.91L335.641 216.76L337.401 216.51L339.571 215.37L335.161 212.72L336.111 209.58L336.911 209.14L336.591 207.96L337.201 207.83L338.241 208.95L342.691 210.64L343.031 209.3L343.811 208.65L346.241 208.04L344.781 206.76L344.131 204.77L343.331 204.44L343.091 202.99L339.611 200.53L338.561 196.07L337.601 195.91L336.061 196.73L334.481 196.45L334.801 194.13L333.681 194.02L333.401 192.21L330.811 190.05L330.281 188.74L328.891 188.11L324.051 191.31L319.371 191.58L317.571 190.87L315.931 192.21L314.451 192.3L313.101 193.66L312.171 193.39L312.441 191.89L312.061 192.02L311.861 191.42L308.601 191.48L306.261 190.76L304.631 191.75L300.731 192.76L297.081 192.6L295.201 190.02L293.051 188.79V186.47L293.791 184.8L294.931 185.15L295.901 183.92L293.551 183.54L292.371 180.23L291.061 180.75L290.161 179.62L288.491 179.38L288.071 178.31L285.071 177.16L282.661 175.05L272.991 174.31L268.541 175.74L265.991 174.94L264.741 175.71L259.551 173.98H254.991L253.601 171.71L255.121 169L255.101 167.08L253.491 164.75L255.141 161.6L255.011 159.92L251.191 160.94L249.561 160.34L250.071 157.07L249.651 153.59L248.891 152.63L246.551 152.52L243.171 148.71L243.591 147.39L243.401 140.06L239.161 141.63L235.151 141.35L234.131 142.48L229.531 139.38L229.551 139.1L230.511 137.62L229.931 137.01L230.951 136L231.541 134.13L231.961 128.94L230.821 127.68L231.371 124.46L232.831 123.8L233.441 122.54L235.511 121.85L239.921 121.79L243.681 120.28L245.751 120.26L246.531 119.02L248.341 118.61L248.811 117.18L252.821 118.14L258.891 117.53L259.381 118.58L260.651 118.66L261.911 119.51L264.241 125.04L264.931 125.15L266.181 124.24L266.731 122.15L268.011 121.79L269.051 122.76L270.521 122.37L271.921 123.61L274.241 124.1L279.501 123.42L281.941 125.09L285.201 124.21L289.971 124.54L293.281 121.19L298.891 121.36L299.461 119.51L302.291 118.66L300.961 115.55L301.981 115.58L303.481 116.71L305.211 116.9L311.101 120.94L315.171 121.27L317.511 122.59L322.871 124.08L327.241 127.24L326.921 125.07L327.661 124.21L330.601 125.84L333.021 126.41L333.111 128.01L333.951 128.42L334.521 130.29L337.941 132.1L338.871 131.77L339.481 133.22L340.961 133.14L341.131 131.71L342.781 130.78L343.711 131.03L345.081 130.51L345.391 132.57L344.991 133.5L343.411 134.43L343.371 135.81L343.661 136.33L346.451 136.88L347.171 137.59L349.471 137.01L355.271 133.83L354.871 132.15L355.591 131.93L357.601 127.59L358.401 127.02L358.501 122.76L360.321 117.64L362.791 116.74L364.671 115.17L369.441 114.1L370.411 112.25L367.561 109.15L366.971 105.87L367.521 105.46Z" fill="#CCCCCC" stroke="white" stroke-width="0.5"/>
<path d="M339.231 61.37L339.651 61.78L341.111 61.45L341.771 62.25L344.821 61.95L346.721 64.15L351.411 65.67L352.471 65.37L354.621 66.5L359.351 65.06L362.811 65.2L365.741 62.97L368.491 62.83L370.791 64.21L372.181 62.69L374.941 63.19L374.081 67L374.381 71L368.991 71.22L368.271 71.99L368.281 75.52L365.681 77.5L364.881 78.96L364.011 78.83L363.251 79.49L363.131 82.33L361.181 90.92L359.301 92.99L357.681 93.35L357.151 94.5L355.971 94.86L355.931 97.12L355.191 98.83L354.221 98.77L354.151 99.84L353.401 99.82L353.581 101.3L352.611 105.6L353.581 105.93L354.371 105.51L357.241 102.62L360.091 103.04L360.821 103.62L363.701 102.02L364.751 102.93L366.761 102.46L367.641 104L367.521 105.46L366.971 105.87L367.561 109.15L370.411 112.25L369.441 114.1L364.671 115.17L362.791 116.74L360.321 117.64L358.501 122.76L358.401 127.02L357.601 127.59L355.591 131.93L354.871 132.15L355.271 133.83L349.471 137.01L347.171 137.59L346.451 136.88L343.661 136.33L343.371 135.81L343.411 134.43L344.991 133.5L345.391 132.57L345.081 130.51L343.711 131.03L342.781 130.78L341.131 131.71L340.961 133.14L339.481 133.22L338.871 131.77L337.941 132.1L334.521 130.29L333.951 128.42L333.111 128.01L333.021 126.41L330.601 125.84L327.661 124.21L326.921 125.07L327.241 127.24L322.871 124.08L317.511 122.59L315.171 121.27L311.101 120.94L305.211 116.9L303.481 116.71L301.981 115.58L300.961 115.55L302.291 118.66L299.461 119.51L298.891 121.36L293.281 121.19L289.971 124.54L285.201 124.21L281.941 125.09L279.501 123.42L274.241 124.1L271.921 123.61L270.521 122.37L269.051 122.76L268.011 121.79L266.731 122.15L266.181 124.24L264.931 125.15L264.241 125.04L261.911 119.51L260.651 118.66L259.381 118.58L258.891 117.53L252.821 118.14L248.811 117.18L248.551 115.47L249.901 113.9L251.721 115.09L253.221 114.59L253.341 113L252.541 112.09L253.411 110.52L255.081 110.25L255.031 107.16L255.641 106.17L255.661 104.52L257.501 105.95L258.351 108.04L260.811 103.62L262.331 105.73L264.131 103.84L267.341 103.78L269.301 105.05L273.251 102.93L275.271 102.54V98.91L276.711 97.09L276.411 95.41L278.001 94.28L276.311 93.21L276.731 92.13L277.961 91.69L279.241 88.72L278.481 87.15L279.921 86.65L279.561 84.78L281.801 82.6L282.511 80.18L283.021 79.74L283.891 80.15L284.731 79.13L284.651 76.62L287.561 74.66L288.971 74.36L291.291 75.27L293.431 76.9L293.771 76.1L294.631 77.45L295.581 76.84L295.261 71.6L297.041 73.06L299.151 70.72L301.321 69.51L304.001 71.91L304.591 74.91L305.751 76.62L309.001 73.75L308.821 71.3L311.411 68.98L312.931 66.14L315.361 65.04L318.141 62.91L322.561 63.08L325.451 64.62L326.421 63.41L328.471 62.64L330.181 60.95L333.811 62.42L334.141 63.41L334.801 63.35L335.201 61.73L336.801 61.56L337.081 60.84L339.231 61.37Z" fill="#CCCCCC" stroke="white" stroke-width="0.5"/>
<path d="M327.102 225.88L329.612 226.4L334.172 225.12L334.882 224.46L336.362 224.49L343.602 226.23L346.222 227.27L348.772 229.15L349.072 225.01L346.352 223.97L347.422 222.82L346.722 221.51L348.082 218.94L348.122 217.91L345.312 216.16L345.672 214.79L346.492 214.88L348.482 213.67L349.972 214.38L352.302 213.54L354.602 215.42L356.862 215.75L358.972 215.31L359.852 214.47L360.062 213.15L360.762 213.21L361.862 214.63L361.842 216.79L363.362 217.52L363.172 222.22L364.672 223.37L364.862 219.76L367.282 220.15L369.202 219.38L372.432 220.39L374.462 219.98L379.292 220.23L383.182 218.02L384.742 219.46L388.332 220.15L389.682 219.79L392.022 220.15L393.692 219.27L396.792 220.01L401.062 219.14L404.272 220.83L405.532 222.06V222.74L407.752 221.1L409.922 222.06L411.532 225.28L413.432 225.74L413.832 229.43L414.732 231.5L414.482 232.46L415.162 232.84L416.592 232.13L417.462 232.37L419.172 231.45L423.052 232.05L422.712 234.61L421.812 236.06L417.962 238.51L416.652 241.13L423.242 240.42L427.932 238.54L429.872 236.82L432.342 232.67L434.722 231.31L435.902 231.2L437.722 227.68L440.172 227.41L442.742 228.17L444.752 226.84L447.372 227.35L449.462 230.08L447.902 230.49L447.622 231.5L446.482 232.24L446.922 232.97L446.082 235.81L446.752 236.36L446.292 236.74L445.802 236.41L444.682 237.69L445.282 238.19L445.872 237.94L445.722 240.59H444.942L444.502 241.68L443.732 241.57L443.442 242.77L444.682 244.37L443.532 245L444.392 245.79L445.302 251.35L445.042 256.12L445.452 258.22L444.682 261.19L444.882 262.9L443.762 263.53L439.702 268.24L441.202 273.57L440.612 275.04L441.842 277.54L440.592 279.31L442.152 279.88L444.582 282.46L444.862 283.66L441.692 284.83L436.902 285.13L432.492 290.78L429.892 287.33L427.592 286.38L426.582 285.16L420.812 283.42L419.232 281.84L417.182 284.18L416.872 285.59L415.662 284.94L415.092 283.28L412.852 282.9L411.912 288.04L410.262 289.67L405.802 290.08L405.422 288.39L403.692 287.44L400.972 288.8L400.592 290.49L398.902 290.81L400.302 296.65L398.292 297.55L395.232 297.06L393.292 297.52L390.102 297.17L385.982 298.23L382.972 288.2L381.282 285.95L380.792 283.5L379.552 282.52L379.902 281.46L384.212 280.59L385.332 278.6L382.942 278.63L382.752 276.05L382.182 275.69L382.802 273.92L380.652 272.59L376.172 271.15L375.052 270.17L376.612 266.09L375.832 255.09L377.232 253.53L377.292 252.8L376.492 251.43L373.932 250.64L373.852 247.18L371.502 247.37L368.512 246.28L368.632 249.28L366.422 247.35L363.842 246.53L363.212 246.8V247.89L362.412 249.04L363.972 250.81L363.862 252.5L362.072 252.63L360.212 249.28L359.092 248.57L357.702 248.65L357.972 250.75L357.432 251.49L355.822 251.57L355.612 253.12L354.012 252.36L353.232 252.91L353.352 254.32L352.112 254.27L347.892 252.52L343.412 248.22L341.382 247.05L341.132 244.37L339.322 243.45L339.822 240.67L342.122 239.58L342.692 238.21L342.442 236.44L340.842 235.62L337.602 235.51L337.012 235.73L336.802 237.07L335.942 237.75L335.262 235.62L331.212 234.31L330.542 233.66L330.242 232.07L327.392 228.15L327.102 225.88Z" fill="#CCCCCC" stroke="white" stroke-width="0.5"/>
<path d="M459.799 47.23L464.949 54.8L465.539 53.77L467.499 53.06L469.379 56.09L468.069 57.39L468.239 57.83L469.379 58.91L471.109 58.97L472.209 61.06L473.919 61.31L474.299 61.89L475.309 61.73L475.879 62.33L476.869 61.84L477.439 63.57L478.819 62.5L480.779 63.33L482.049 63.24L482.359 64.82L485.209 65.2L487.149 67.16L487.539 68.32L490.149 69.7L490.029 70.77L488.569 72.13L487.659 72.24L487.469 73.17L486.439 73.84L485.019 73.7L484.389 74.41L485.489 75.99L485.529 78.25L486.779 80.29L490.409 80.67L492.899 81.69L494.439 81.31L497.409 81.86L497.269 87.31L495.939 89.41L496.489 92L499.439 95.49L500.109 97.53L501.449 98.47L502.019 99.82L502.179 101.14L501.069 102.29L502.329 103.37L502.649 105.4L501.549 106.83L506.759 111.7L507.289 113.11L506.149 119.29L503.529 122.26L503.679 125.42L504.589 126.03L506.549 125.64L507.419 123.64L508.409 123.5L508.679 127.84L507.799 128.64L510.179 131.85L511.069 132.26L510.539 133.11L511.549 135.81L510.799 135.78L510.819 136.96L514.189 142.89L514.849 146.7L514.279 148.93L507.609 149.59L504.099 155.45L500.659 156.55L499.269 155.57L498.969 156.42L498.129 156.66L496.719 156.03L494.329 159.76L491.119 160.88L489.939 161.9L488.249 161.84L484.789 162.86L483.879 161.76L482.829 162.31L481.369 161.82L480.339 163.13L475.859 164.06L474.679 165.46L474.399 167.02L472.079 168.91L469.569 168.42L467.779 169.3L467.149 170.89L460.999 171.68L462.119 174.12L457.559 175.22L455.259 175.08L453.299 171.24L452.309 171.76L450.279 170.56L449.009 170.78L447.719 170.42L445.699 171.02L443.289 170.67L441.839 171.24L441.309 170.5L441.859 168.89L439.579 169.16L438.119 168.7L437.999 168.23L435.399 168.17L432.279 167.3L432.019 165.85L428.559 164.53L424.839 165.35L423.199 164.15L419.899 165.05L418.979 164.26L416.819 164.01L416.169 161.84L416.459 160.28L414.559 159.32L412.619 159.24V158.66L414.059 157.73L413.909 156.66L412.659 155.73L413.699 152.6L412.389 151.04L412.429 148.13L411.519 144.32L410.559 142.67L410.699 140.42L409.439 139.32L404.599 140.72L403.739 139.35L403.569 137.32L402.529 136.79L401.029 138.17L399.409 137.01L397.869 137.84L394.719 137.92L393.309 137.15L393.409 135.81L389.509 134.95L388.579 134.32L388.689 133L385.859 132.37L384.799 131.25L387.359 130.75L387.589 130.31L386.769 129.16L387.719 128.28L386.559 126.96L384.739 126.36L384.089 125.4L384.359 124.65H385.799L386.339 122.01L386.089 120.53L387.039 118.83L385.649 118.28L383.299 115.64L381.319 117.01L378.959 115.83L378.679 114.48L376.929 113.16L374.899 114.01L373.229 113.71L373.069 110.99L371.359 108.98L371.059 106.26L368.969 106.67L367.519 105.46L367.639 104L366.759 102.46L364.749 102.93L363.699 102.02L360.819 103.62L360.089 103.04L357.239 102.62L354.369 105.51L353.579 105.93L352.609 105.6L353.579 101.3L353.399 99.82L354.149 99.84L354.219 98.77L355.189 98.83L355.929 97.12L355.969 94.86L357.149 94.5L357.679 93.35L359.299 92.99L361.179 90.92L363.129 82.33L363.249 79.49L364.009 78.83L364.879 78.96L365.679 77.5L368.279 75.52L368.269 71.99L368.989 71.22L374.379 71L374.079 67L374.939 63.19L377.229 62.19L377.989 63.24L380.619 63.49L389.809 62.3L390.359 63.19L390.159 64.32L391.919 64.57L392.509 65.7L393.809 66.3L395.209 65.64L396.749 66.53L396.649 69.12L398.079 70.53L398.349 73.15L400.609 73.89L402.049 72.13L403.339 71.63L404.959 72.15L405.659 73.39L405.909 72.87L407.279 72.79L407.449 71.19L408.649 71.46L412.139 68.07L412.729 67.8L413.319 68.9L414.609 66.58L414.689 66.11L413.509 65.12L413.929 64.32L415.239 64.04L413.909 58.16L414.649 57.47L416.129 57.78L418.189 55.4L419.899 55.02V54.47L422.119 54.24L423.469 52.56L425.539 53.17L424.869 53.8L423.429 53.22L422.729 55.43L423.919 56.73L425.139 57.06L426.069 56.7L425.099 54.91L425.939 54.24L428.999 55.24L430.269 54.52L430.459 53.17L431.299 52.06L434.129 51.87L434.379 48.17L434.949 47.89L438.749 47.81L442.909 50.21L446.879 50.71L450.239 49.63L455.489 49.8L459.799 47.23Z" fill="#CCCCCC" stroke="white" stroke-width="0.5"/>
<path d="M549.991 1.8L556.011 2.05L557.631 5.35L560.531 7.06L562.621 9.28L564.471 9.61L566.391 12.21L566.271 13.79L565.361 14.57L564.851 16.2L564.901 19.8L564.371 21.29L561.181 21.96L559.491 23.54L559.511 28.1L562.431 28.04L562.741 28.99L560.741 34.49L566.521 40.43L566.371 43.06L566.901 43.2L567.911 45.57L570.341 43.44L572.051 45.38L571.951 46.84L570.341 48.53L571.171 49.36L581.631 50.96L579.711 60.98L577.071 60.95L575.581 59.63L574.521 59.6L574.331 61.95L573.231 62.86L573.421 64.93L574.731 66.03L574.501 67.66L575.681 68.24L576.631 67.85L577.601 68.57L579.291 70.72L580.371 73.56L584.691 74.44L586.621 77.78L587.951 78.61L589.251 81.28L590.031 80.92L591.391 82.41L591.951 86.46L593.541 86.96L594.001 87.64L596.771 87.37L598.621 90.32L598.751 92.41L598.061 93.51L598.601 95.11L600.141 95.27L601.161 96.24L599.831 99.71L600.151 100.67L601.281 101.3L600.821 102.68L599.931 102.46L599.401 103.78L604.201 106.89L609.881 109.39L613.001 113.3L611.421 113.27L610.471 114.18L608.551 112.34L607.761 113.55L604.721 111.87L604.201 110.93L602.871 110.82L602.131 109.39L600.551 110.6L599.201 110.25L598.411 109.45L599.431 108.07L599.341 107.3L596.341 106.45L593.731 104.94L594.421 103.75L593.771 102.73L590.231 101.52L588.661 101.8L588.391 100.37L587.421 99.35L586.171 99.49L585.181 100.31L583.561 100.26L582.691 99.18L582.581 97.31L581.871 96.65L580.031 97.09L578.621 96.04L578.421 97.15L577.791 97.34L575.621 95.49L576.151 94.12L575.621 93.32L574.691 93.29L573.971 95.6L571.351 96.84L570.791 96.62L569.451 93.7L568.591 94.06L568.021 95.14L565.661 94.06L564.641 97.53L563.821 97.7L563.421 96.73L562.421 96.54L559.721 97.67L558.801 99.43L556.521 100.84L555.751 100.42L551.171 100.81L549.341 105.9L547.761 107.22V108.95L550.711 115.55L551.661 124.16L553.451 127.04L557.091 130.01L558.611 132.73L558.411 135.56L556.541 138.74L554.951 140.09L552.021 140.31L551.281 137.98L549.471 135.92L548.351 137.21L546.491 138.14L544.231 137.84L543.451 137.15L540.451 138.88L538.931 138.2L537.071 138.83L534.351 134.49L528.361 130.56L526.731 130.81L523.921 133.06L521.641 136.93L520.481 137.01L518.841 136.16L515.881 137.48L513.411 137.12L511.551 135.81L510.541 133.11L511.071 132.26L510.181 131.85L507.801 128.64L508.681 127.84L508.411 123.5L507.421 123.64L506.551 125.64L504.591 126.03L503.681 125.42L503.531 122.26L506.151 119.29L507.291 113.11L506.761 111.7L501.551 106.83L502.651 105.4L502.331 103.37L501.071 102.29L502.181 101.14L502.021 99.82L501.451 98.47L500.111 97.53L499.441 95.49L496.491 92L495.941 89.41L497.271 87.31L497.411 81.86L494.441 81.31L492.901 81.69L490.411 80.67L486.781 80.29L485.531 78.25L485.491 75.99L484.391 74.41L485.021 73.7L486.441 73.84L487.471 73.17L487.661 72.24L488.571 72.13L490.031 70.77L490.151 69.7L487.541 68.32L487.151 67.16L485.211 65.2L482.361 64.82L482.051 63.24L480.781 63.33L478.821 62.5L477.441 63.57L476.871 61.84L475.881 62.33L475.311 61.73L474.301 61.89L473.921 61.31L472.211 61.06L471.111 58.97L469.381 58.91L468.241 57.83L468.071 57.39L469.381 56.09L467.501 53.06L465.541 53.77L464.951 54.8L459.801 47.23L462.041 45.77L468.351 43.78L475.731 43.72L484.451 47.67L489.461 52.09L498.781 54.66L500.691 56.34L502.081 59.38L506.701 62.11L507.731 60.79L507.951 54.44L505.641 49.85L505.391 48.28L506.071 46.59L503.911 46.21L502.961 44.74L500.751 44.77L501.111 43.44L498.571 41.15L497.621 38.75L498.031 37.39L497.691 35.48L498.341 33.49L497.981 29.18L499.351 25.36L498.721 21.18L499.651 20.74L500.051 19.58L498.641 17.92L497.521 14.76L499.801 12.55L500.751 13.74L501.451 13.85L502.291 12.8L505.521 11.58L506.021 11.49L506.471 13.16L508.301 11.16L509.841 11.83L511.431 11.69L512.211 10.58L512.081 9.39L514.111 7.56L515.421 7.73L517.461 4.63L518.331 4.43L519.241 5.48L520.971 3.35L521.901 3.02L522.171 4.21L523.481 4.24L524.641 6.01L527.411 6.9H529.881L530.851 5.54L533.441 5.87L535.831 3.6L542.631 2.55L545.241 1L549.991 1.8Z" fill="#CCCCCC" stroke="white" stroke-width="0.5"/>
</svg>
