<svg width="800" height="348" viewBox="0 0 800 348" fill="none" xmlns="http://www.w3.org/2000/svg">
<path d="M271.641 174.59L272.541 174.24L272.511 173.56L272.841 172.39L272.001 171.84L271.501 172.17L270.931 172.43L270.311 172.52L267.981 172.6L266.701 172.49L267.551 173.55L269.251 174.21L271.091 174.01L271.641 174.59Z" fill="#CCCCCC" stroke="white" stroke-width="0.5"/>
<path d="M376.432 223.93L376.332 222.33L375.352 220.63L374.042 219.56L373.232 220.26L373.242 221.06L374.042 222.54L374.312 222.65L374.722 222.75L374.952 223.01L374.662 223.57L374.402 223.98L374.422 224.3L374.652 224.54L375.072 224.62L376.432 223.93ZM350.372 219.68L350.042 219.48L349.702 219.35L349.382 219.18L348.242 219.59L347.742 220.72L347.772 222.04L348.192 223L347.902 223.13L347.772 223.3L347.622 223.5L347.332 223.79L347.602 224.45L347.082 225.78L347.332 226.7L347.822 227.14L348.462 227.4L350.042 227.61L350.442 227.89L350.872 227.95L351.332 227.83L351.642 227.59L351.912 227.3L352.282 227.12L353.562 227.02L354.402 227.07L354.782 227.33L355.052 227.77L355.752 227.95H357.382L358.182 228.1L358.562 228.45L358.832 228.87L359.242 229.2L359.602 229.23L360.552 229.11L360.882 229.2L361.302 229.61L361.422 229.9L361.102 230.03L360.672 230.33L360.262 231.04L359.642 232.56L360.622 232.9L360.672 233.77L360.202 234.77L359.642 235.48L360.342 235.45L361.552 235.18L361.922 235.27L362.222 235.91L362.192 236.55L362.272 237.14L362.932 237.56L361.702 241.34L362.542 241.6L363.382 241.7L364.102 241.49L364.592 240.89L365.092 241.28L365.412 241.7L365.542 242.13L365.412 242.59L365.962 242.76L366.392 242.99L366.662 243.36L366.642 243.88L367.762 245.02L368.402 245.42L368.692 244.88L369.062 244.66L369.882 245.21L370.672 245.96L370.972 246.34L371.902 246.57L372.222 247.15L372.382 247.84L372.822 248.42L373.612 248.63L374.412 248.52L375.122 248.57L375.692 249.29L375.582 249.75L375.862 250.38L376.352 250.77L376.912 250.54L377.132 250.87L377.572 251.37L377.732 251.76L378.622 251.46L379.312 251.65L380.632 252.63L380.682 252.23L381.012 251.34L381.482 252.41L381.882 252.83L382.482 253L382.692 253.14L383.312 253.73L383.702 253.87L384.472 253.69L384.812 253.53L384.722 253.41L387.232 254.14L387.802 254.48L388.352 254.59L390.102 254L390.862 253.87L391.382 254.1L392.342 254.9L394.992 255.96L395.442 256.29L395.812 256.69L396.242 257.03L396.832 257.17L398.462 257.14L399.222 257.26L399.892 257.63L401.212 256.39L402.592 256.22L406.892 257.89L407.712 258.04L408.722 258.07L409.342 258.18L409.792 258.46L410.632 258.05L411.362 258.1L412.062 258.32L412.862 258.46L413.662 258.09L413.722 257.37L413.292 256.87L412.652 257.17L410.772 256.83L408.372 256.91L406.472 256.6L406.072 255.08L406.302 254.71L406.682 254.32L407.122 254L407.502 253.87L407.692 253.57L407.672 250.09L407.432 249.14L406.822 248.38L404.692 246.95L403.902 246.25L403.402 245.33L403.092 243.33L402.782 243.07L402.392 242.94L401.952 242.59L401.682 242.18L400.462 238.89L399.962 237.96L399.282 237.56L398.602 237.05L397.002 234.78L395.812 234.23L395.232 234.24L394.692 234.36L394.292 234.67L394.022 235.96L393.712 236.11L392.692 235.89L390.742 236.12L390.042 235.89L389.412 235.43L388.532 234.29L388.002 233.81L387.162 234.2L386.142 234.14L383.902 233.39L383.032 233.94L381.632 234.26L380.342 234.2L379.772 233.6L379.432 233.15L377.662 232.05L376.912 231.73L376.152 231.69L375.252 231.76L374.312 231.66L373.432 231.1L372.222 229.23L371.442 228.75L370.332 229.2L366.782 226.27L360.352 222.24L353.992 219.4L350.682 220.01L350.372 219.68Z" fill="#CCCCCC" stroke="white" stroke-width="0.5"/>
<path d="M121.032 48.75L120.002 49.32L119.022 50.03L119.632 50.21L121.172 50.14L121.642 50.21L122.312 50.57L124.682 51.27L124.332 51.47L123.812 51.89L123.452 52.09V52.47L125.302 52.51L125.912 52.17L125.972 51.27L127.612 52.47L127.242 51.82L127.112 51.12L127.242 50.49L127.612 50.03L127.172 49.58L126.792 50.03L125.812 48.92L124.302 48.85L122.602 49.05L121.032 48.75ZM137.862 52.92L137.152 50.71L137.042 49.8L136.622 49.37L133.772 48.35L131.812 50.71L131.182 52.23L132.332 52.92L132.732 53.04L133.112 53.61L133.562 53.75L134.022 53.64L134.432 53.46L134.822 53.36L135.832 53.79L136.682 53.84L138.302 53.75L137.862 52.92ZM65.4416 4.01L65.1716 3.47L64.9816 2.94L64.5516 2.62L64.1316 2.43L63.4316 1.65L62.2316 1.2L60.8416 1L59.8216 1.19L57.8216 2.87L57.3716 3.71L57.3516 4.93L57.8216 8.22L58.2216 9.06L59.4816 10.09L59.6316 10.29L66.3116 16.15L67.0316 16.47L67.9216 16.76L70.7716 18.25L71.7616 18.95L73.8516 22.53L74.4316 23.11L75.1716 23.58L77.5116 26.85L78.1216 28.19L78.5716 28.7L79.3716 28.92L79.9216 29.21L80.1916 29.87L80.3316 30.62L80.5916 31.18L86.1816 37.76L87.1516 38.54L87.9716 38.85L89.2716 39.04L90.4316 39.57L91.3316 40.37L91.8816 41.36L91.3916 42.23L92.2216 42.13L93.3916 41.65L93.9316 41.36L94.6616 41.73L95.4716 42.52L96.1116 43.4L96.7616 45.22L97.6116 45.84L98.4616 45.87L98.8416 45.28L99.3816 45.23L102.562 45.49L103.822 46.17L105.952 46.89L107.092 47.55L107.182 46.69L107.452 46.51L107.912 46.73L108.652 45.96L109.002 45.67L109.512 45.49L108.972 46.92L109.222 48.04L110.022 48.82L111.192 49.2L113.902 49.44L115.352 49.77L116.142 50.4L116.622 50.14L116.992 50.18L117.252 50.56L117.362 51.27L118.892 48.39L119.612 47.97L121.292 47.9L122.062 47.56L122.272 46.76V45.28L121.982 43.88L121.172 43.29L119.992 43.33L117.822 44.14L117.222 44.25H115.932L115.272 44L114.642 43.62L114.202 43.66L114.052 44.66H113.682L113.252 43.89L112.602 43.17L111.862 42.58L111.192 42.19L109.452 41.62L108.662 41.24L108.322 40.72L108.212 39.89L107.862 38.85L107.272 37.99L106.462 37.61L105.272 37.45L104.232 36.95L103.442 36.16L102.962 35.1L102.662 35.4L101.742 35.96L101.422 34.84L100.872 34.07L100.242 33.43L99.6616 32.66L98.6816 30.36L98.0216 27.64L97.9116 25.05L97.7316 23.99L97.2316 23.11L94.9516 21.23L93.6616 19.45L93.0716 18.95L92.4816 18.83L91.8016 18.86L91.2616 18.79L91.0216 18.35L90.7416 17.62L90.0916 17.24L89.3516 16.99L88.3216 16.46L86.1616 16.06L83.6516 14.86L79.9116 12.31L77.3516 11.62L74.6416 9.79L73.8016 9.06L70.7116 5.54L69.1216 4.33L66.8516 3.66L66.5916 3.8L66.0116 4.02L65.4416 4.01Z" fill="#CCCCCC" stroke="white" stroke-width="0.5"/>
<path d="M125.912 128.67L124.912 128.4L124.612 128.26L124.362 127.94L124.012 127.63L123.462 127.54L123.112 127.7L122.782 128.06L122.272 128.86L121.902 128.4L121.012 128.77L120.042 128.74L117.812 128.4L117.632 129.34L119.092 130.41L122.272 131.76L125.142 132.54L127.292 133.65L127.812 133.82L129.412 133.24L129.472 131.97L128.602 130.68L127.402 130.1L126.972 129.83L126.532 129.25L125.912 128.67ZM162.622 135.95L163.872 134.91L165.242 134.56L165.572 134.24L165.772 133.76L165.832 133.2L164.162 132.54L164.392 131.7L164.252 130.31L163.842 128.92L163.342 128.03V126.75H162.932L162.872 127.61L162.692 128.41L162.432 129.1L162.112 129.65L160.352 130.99L160.072 131.55L159.662 133.11V133.87L160.252 134.2L160.532 134.51L161.672 136.31L162.622 135.95ZM151.252 118.65L150.862 118.12L150.762 117.61L150.972 117.16L151.472 116.78V116.37L151.032 115.95L150.842 116.19L150.662 116.28L150.212 116.37L148.122 117.2L147.762 117.6V118.54L148.082 119.17L148.242 119.75L147.762 120.54L147.552 119.91L147.352 119.73L146.942 119.67L146.712 120.7L146.062 120.67L144.442 119.67L144.482 120.52L144.222 121.02L143.872 121.38L143.622 121.74L143.212 123.85V126.95L143.502 127.3L145.262 128.86L145.502 129.16L145.862 129.8L146.122 130.1L146.822 130.45L147.192 130.72L147.352 131.13L147.872 131.4L149.062 131.81L150.392 132.09L151.252 131.97L151.722 131.7L152.762 131.45L153.302 131.13L153.602 130.79L154.342 129.65L156.792 127.47L157.302 126.05L155.942 124.68L156.422 124.39L156.812 124.04L157.582 123.03L156.942 123.13L156.682 123.22L156.352 123.44L155.882 123.15L154.702 122.97L154.342 122.61L154.502 122.23L155.662 121.77L155.942 121.56L156.182 121.07L156.752 121.02L157.422 121.08L157.992 120.91L158.452 120.38L158.542 119.94L158.392 118.65L157.872 117.73L156.612 117.32L155.102 117.31L153.862 117.6L153.272 118.06L152.682 118.65L152.032 118.98L151.252 118.65ZM113.182 120.09L113.292 119.69L113.462 119.48L113.622 119.2L114.242 117.17L115.112 116.15L115.322 115.77L115.082 114L114.442 112.5L113.532 111.34L112.452 110.61L111.342 110.59L109.532 111.75L107.842 113.41L106.702 115.68L105.792 116.34L104.192 117.2L103.642 117.66L103.112 118.27L102.722 119.01L102.562 119.88L103.052 120.64L104.202 121.55L105.502 122.3L106.462 122.61L107.172 123.08L108.752 125.27L109.142 125.96L109.192 126.51L109.142 127.2L109.232 127.78L109.732 128.03L110.272 128.12L110.692 128.37L111.392 129.06L112.192 129.54L113.262 129.81L114.382 129.86L115.322 129.65V129.27L113.962 128.92L112.742 128.06L110.572 125.73L110.252 124.93L110.332 123.94L110.782 122.2L110.692 120.85L110.782 120.54L111.182 120.28L111.482 120.37L111.752 120.54H112.012H112.192L112.412 120.63L112.682 120.61L113.052 120.31L113.182 120.09ZM99.6618 105.57L98.7918 105.13L98.3418 104.27L98.0218 102.26L97.3218 99.94L97.2318 99.16L96.5618 97.93L95.0618 97.62L93.5118 97.52L92.7018 96.85L91.8718 97.28L92.3118 98.1L93.3518 98.92L94.3318 99.37L94.1218 99.57L93.7318 100.01L93.5218 100.19L95.9418 100.69L97.0518 102.76L97.9218 105.01L99.6618 106.02V105.57ZM96.3818 95.23L96.3018 95.59L96.3418 95.85L96.6218 96L97.2318 96.06L96.7918 96.44L97.9818 97.03L98.8618 97.77L99.5318 98.68L100.102 99.74L100.652 101.43L100.892 101.88L101.412 102.11L101.992 102.07L102.442 102.23L102.562 103.09H102.962L103.002 101.43L102.752 99.7L102.312 98.12L101.742 96.85L100.542 95.74L99.2518 95.64L97.8518 95.74L96.3818 95.23ZM79.1618 88.96H77.9218L77.6718 90.82L79.4518 92.39L81.0018 92.45L80.0118 89.82L79.3818 89.97L79.1618 88.96ZM128.632 97.07L127.262 95.85L127.072 95.07L127.632 93.96L127.222 93.04L127.112 91.91L127.182 89.61L126.962 88.66L126.582 87.92L126.392 87.15L126.812 86.07L125.212 85.94L121.052 83.58L120.852 83.53L120.692 83.52L120.612 83.46L120.642 83.17L119.732 83.52L117.922 84.01L116.952 84.38L116.012 84.99L113.462 87.51L112.882 88.31L111.992 90.34L111.392 91.25L110.082 92.83L109.752 93.66L109.962 94.37L109.702 94.99L109.692 96.29L109.512 96.85L109.092 97.29L108.622 97.46L108.202 97.22L107.912 96.44L107.362 96.96L106.772 97.21L106.072 97.29L105.222 97.3L104.862 97.56L103.992 98.79L103.822 99.16L104.192 104.78H104.602L105.222 104.6L107.272 105.8L108.322 106.02L109.632 105.34L110.272 104.26L110.662 103.12L111.192 102.26L111.882 102.08L114.092 102.29L116.142 102.26L116.412 102.17L116.892 101.94L116.952 101.88L117.882 101.49H118.382L119.032 101.88L119.392 101.1L119.822 101.19L120.252 101.64L120.642 101.88L121.572 101.7L122.172 101.41L122.722 101.25L123.462 101.43L124.502 102.34L125.442 103.74L126.102 105.18L126.682 107.15L128.092 108.5L128.412 109.12L128.222 109.9L127.802 110.48L127.372 110.58L127.182 109.95L126.862 109.4L125.462 109.01L125.142 108.28L125.032 106.61L124.802 105.89L124.362 105.19V108.92L124.552 109.76L125.042 111.14L125.142 112.02L125.402 112.21L126.812 113.92L129.452 115.77L130.962 116.45L134.232 116.73L135.812 117.6L137.132 119.01L137.652 119.86L137.862 120.73L138.082 120.99L138.552 121.4L138.992 122.03L139.122 123.03H139.532L139.882 121.9L139.692 120.93L139.122 120.17L138.302 119.67V119.3L139.932 119.45L143.622 120.91L143.412 120.44L143.272 119.95L143.192 119.42L143.212 118.85L143.322 118.18L143.472 117.83L144.662 115.83L144.872 115.34L144.892 114.74L144.662 114.29L144.282 114.15L143.892 114.12L143.622 113.92L143.282 112.88L142.892 110.77L142.392 109.74L142.032 109.37L141.102 108.64L140.762 108.09L140.672 107.54L140.762 106.02L140.152 105.15L138.602 104.1L137.862 103.09L137.622 101.82L137.492 101.43L137.172 100.95L136.942 100.7L135.222 99.45L134.282 99.13L133.302 99.14L132.132 99.37L131.592 99.57L130.872 100.04L130.492 100.19L129.992 100.11L129.612 99.84L129.262 99.75L128.852 100.19L128.692 99.48L128.982 98.79L129.152 98.03L128.632 97.07ZM66.8218 97.17L67.5018 95.94L67.6818 94.46L67.2118 93.17L67.5318 92.42L67.5018 91.57L67.2118 90.01L67.1418 89.15L66.9318 88.07L66.6118 87.02L65.8018 85.65L65.4418 84.22L65.1718 83.58L64.4318 82.71L63.5318 81.93L62.4918 82.52L62.4718 83.83L63.1218 86.89L62.7018 89.8L62.8518 91.14L63.7418 92.51L65.2518 96.93L65.7918 97.68L66.8218 97.17ZM101.562 92.07L102.472 89.55L102.642 88.53L102.562 85.65L101.982 82.76L100.732 80.16L98.7618 78.03L95.9718 76.56L94.5318 76.78L92.4818 77.32L90.6318 78.05L89.8318 78.84L89.6218 79.32L88.1918 81.53L87.6518 82.88L87.4418 83.61L87.3418 84.38L88.2518 87.27L90.6518 90.86L93.7618 93.42L96.7918 93.17L97.2618 93.39L97.5118 93.36L98.0218 93.17L99.2818 94.6L100.542 93.81L101.562 92.07ZM63.8718 74.55L64.1118 73.65L63.4918 73.2L63.2718 73L62.7318 72.97L62.1018 73.47L61.6218 74.07L61.5618 74.6L62.6418 75.16L63.8718 74.55ZM67.2118 59.56L66.6418 60.05L66.1418 60.01L65.5818 59.74L64.8018 59.56L62.3918 60.95L60.8018 63.23L60.3718 65.94L61.4918 68.68L62.2818 68.26L62.6418 68.46L63.2618 69.84L63.2018 70.09L63.2618 70.27L63.7418 70.33L63.7918 70.4L64.8018 70.74L65.2118 71.19L65.9918 72.81L66.3218 73.07L66.8918 73.41L67.4318 73.81L67.6618 74.3L67.0518 76.81L67.2518 77.81L70.0718 78.59L70.2418 79.5L69.9918 80.71L70.1218 81.93H70.5218L71.2218 81.51L71.8918 81.69L72.3918 82.1L72.5818 82.31L73.3418 82L73.7818 81.48L73.7718 80.83L73.2118 80.09L72.7818 78.65L73.7218 76.96L75.1718 75.44L76.2918 74.5L78.5018 71.48L79.4118 69.55L78.9618 68.68L77.7918 68.25L76.5018 67.45L75.1518 66.96L73.8018 67.48L72.9918 66.62L73.4318 66.17L72.2118 65.78L71.6318 65.38L71.1218 63.97L70.5418 63.55L69.9618 63.31L69.7118 63.06L69.7218 62.58L69.6918 62.27L69.5118 62.09L68.5818 61.97L68.5218 61.79L68.5918 61.52L68.4418 61.21L67.7018 60.51L67.3918 60.07L67.2118 59.56ZM4.8318 44.66L3.9118 44.79L3.5718 44.8L3.1518 44.66L1.4818 46.75L1.0918 47.85L2.1318 48.35L5.1818 48.59L6.4518 48.29L7.7018 47.14L7.0118 46.52L6.4518 45.82L5.7818 45.16L4.8318 44.66ZM19.6018 26.4L17.5518 25.2L15.4418 23.4L14.6918 23.11L14.5218 23.49L14.4918 23.86L14.6918 24.34L13.6818 24.7L13.3218 25.8L13.1318 26.69L12.6418 26.4L11.0718 29.74L10.9718 30.56L11.3218 30.86L13.0118 31.39L13.4518 31.71L14.1318 32.38L14.6918 32.66L15.7718 32.13L16.8018 32.26L17.7918 32.27L18.7818 31.39L19.5318 31.55L20.6418 31.45L21.6518 31.15L22.0918 30.77L22.3118 29.73L22.6718 28.9V28.08L21.8518 27.06L21.3918 26.84L19.6018 26.4ZM36.7318 17.8L35.9618 17.45L34.9318 17.18L34.4018 16.68L34.5618 15.79L34.9818 15.08L35.6218 14.62L36.4518 14.41V14H35.1918L33.5618 15L33.3918 16.2L34.0118 17.43L34.7818 18.57L34.9718 18.56L35.4818 18.86L35.8118 19.22L35.3918 19.39L34.8618 19.51L34.6118 19.78L34.4018 20.63L34.5218 21.16L34.9018 21.57L35.1818 21.99L34.9818 22.48L34.0918 23.31L33.1418 23.97L33.7618 24.02L34.3118 23.89L34.7818 23.59L35.1918 23.11L35.2918 23.43L35.4218 23.63L35.5318 23.87L35.6018 24.34L36.3618 23.69L36.8318 22.87L37.1218 21.95L37.2718 21.01L37.8618 21.32L38.5018 21.46L39.1418 21.37L39.7318 21.01L39.2918 20.8L38.1518 20.47L37.6818 20.22L37.3418 19.88L36.4518 18.57L36.7318 17.8Z" fill="#CCCCCC" stroke="white" stroke-width="0.5"/>
<path d="M797.882 346.91L798.852 346.56L799.292 346.35L799.112 345.48L798.472 345.42L798.082 345.9L797.612 346.38L797.882 346.91ZM687.652 307.68L688.642 306.97L688.992 306.03L688.952 305.48L688.412 305.28L687.322 305.37L686.522 306.16L686.202 307.17L686.602 307.86L687.652 307.68ZM682.062 303.93L680.692 304.16L679.312 304.08L678.202 304.09L676.982 304.68L676.382 305.02L675.902 305.65L675.912 306.65L676.652 307.58L677.692 308.87L678.022 309.33L678.842 309.64L679.552 310.32L680.452 311.54L682.162 311.76L683.162 311.79L684.422 311.64L688.912 311.33L688.562 308.92L685.302 309.15L685.372 307.96L685.302 307.11L685.992 305.14L683.472 304.22L682.062 303.93ZM663.772 283.81L663.722 282.65L663.232 281.78L662.312 281.04L661.392 280.7L660.602 280.97L659.552 281.94L658.682 283.04L658.552 284.42L658.902 284.95L659.592 284.38L660.442 283.87L660.512 284.71L660.302 285.12L659.942 285.58L659.902 286.13L659.922 286.54L660.422 286.83L660.882 286.95L661.482 286.8L661.942 286.75L663.322 285.26L663.772 283.81ZM633.592 246.82L631.522 246.39L629.592 247.25L625.332 246.79L622.612 246.99L620.802 248.69L619.812 250.09L619.632 251.7L619.562 252.63L619.252 253.42L618.662 253.24L617.782 252.25L618.042 250.15L617.492 250.18L616.812 251.14L616.272 251.97L615.122 252.79L615.162 254.06L615.332 256.47L616.152 257.91L617.942 258.02L619.642 256.48L620.362 256.61L621.082 257.47L620.892 259.15L621.652 259.91L623.442 257.2L625.982 254.24L628.102 253.91L628.772 254.1L629.312 253.7L630.062 253.11L631.612 253.73L632.022 253.61L633.192 253.7L633.842 253.18L634.942 252.66L635.662 252.02L637.892 251.14L638.132 249.95L638.792 249.26L638.482 247.75L636.792 247.68L635.012 247.92L634.772 247.65L634.612 247.37L633.592 246.82ZM614.662 232.65L615.112 232.36L615.242 231.76L614.722 230.94L613.872 230.72L613.522 231.01L613.372 231.43L613.322 232.12L613.612 232.7L614.082 232.83L614.662 232.65ZM644.462 220.42L644.222 220.07L644.262 221.24L644.062 222.52L643.632 223.78L643.792 224.2L644.192 224.23L644.072 225.03L644.152 225.92L644.992 225.8L646.112 224.75L646.702 223.6L645.932 223.07L645.052 223.1L644.852 223.21L644.452 223.35L644.462 220.42ZM701.452 200.51L701.602 200.03L701.382 199.25L700.692 198.47L700.062 198.41L699.792 198.97L700.252 200.06L700.962 200.56L701.452 200.51ZM696.342 195.09L696.122 194.92L695.362 195.01L696.092 195.21L696.342 195.09Z" fill="#CCCCCC" stroke="white" stroke-width="0.5"/>
<path d="M249.852 114.83L249.162 113.98L248.792 112.68L248.982 109.85L248.502 108.87L246.752 108.47L245.042 108.63L243.842 109.19L243.062 110.22L242.622 111.82L242.682 113.4L243.342 114.12L244.262 114.62L245.112 115.57L245.932 115L246.432 115.21L247.162 116.37L248.022 117.26L248.522 117.66L249.202 118.02L249.942 118.29L250.552 118.4L251.112 118.32L251.662 118.02L252.312 117.4L252.362 117.01L251.662 116.37L249.852 114.83ZM175.782 60.18L174.302 59.88L173.612 59.56L173.152 59.15L172.572 59.16L172.152 59.42V59.77L172.522 60.42L172.172 60.58L171.672 60.47L171.562 60.35L171.232 60.31L170.272 60.04L169.702 59.97L169.442 60.16L169.582 60.59L169.882 61.01L170.112 61.21L171.302 61.6L171.992 62.44L172.242 63.3L172.152 63.68H173.612L175.112 64.05L175.692 64.06L174.952 62.61L174.842 62.03L177.152 63.41L178.302 63.67L178.922 62.86L179.302 63.67L179.992 64.5L180.892 65.03L181.832 64.93L182.012 64.26L181.412 63.28L180.462 62.41L179.582 62.03L178.652 61.92L177.482 61.6L176.482 61.12L175.782 60.18ZM186.172 60.56L185.672 60.22L179.792 58.2L178.552 57.46L177.542 57.3L177.122 58L177.212 59.03L177.742 59.97L180.832 61.63L185.512 65.56V68.07L185.412 68.71L185.252 69.29L185.222 69.93L185.512 70.74L186.462 71.56L189.062 73.01L189.652 74.09L190.672 73.81L191.712 74.18L192.622 74.89L193.292 75.7L194.112 77.86L194.742 78.62L195.372 77.8H195.782L196.382 78.3L197.042 79.04L196.592 79.91L197.462 80.48L199.292 80.92L200.322 80.64L200.812 81.69L201.142 84L204.632 85.65L205.762 85.86L206.632 86.45L207.162 87.38L207.272 88.58L208.552 88.03L208.952 87.72L209.072 88.61L209.402 88.94L209.912 89.09L210.582 89.41L210.722 89.65L210.982 90.48L210.992 90.65L211.382 90.7L212.242 90.59L212.632 90.65L214.272 91.47L214.612 91.44L214.812 91.17L215.062 90.94L215.532 91.03L215.612 91.29L215.602 91.79L215.652 92.33L215.912 92.72L216.282 92.79L217.202 92.65L217.572 92.72L223.192 96.83L224.402 97.49L225.692 97.74L226.992 97.3L227.072 98.12L227.622 98.62L228.412 98.89L229.252 98.95L229.932 99.28L230.482 100.04L231.082 101.43L232.102 101.12L233.202 101.45L235.222 102.68L236.022 102.39L237.042 102.63L238.022 103.15L239.362 104.27L240.852 104.89L242.982 106.2L247.972 107.26L250.772 109.75L251.452 110.16L252.362 110.31L252.512 110.69L252.382 111.22L252.512 111.82L253.082 112.44L254.972 113.92L255.802 115.01L256.222 115.42L257.462 115.82L258.172 116.93L259.212 117.34L259.392 117.7L259.532 118.12L259.832 118.44L260.122 118.48L260.822 118.38L261.112 118.44L263.022 119.57L263.562 119.67L264.352 118.96L263.662 117.94L261.892 116.57L261.852 115.34L261.682 114.47L261.202 113.56L259.402 111.05L258.852 110.54L258.362 111.08L257.792 111.37H257.232L256.732 110.35L255.792 109.68L255.742 109.33L256.262 108.94L256.932 108.86L257.602 109.03L258.132 109.33L258.582 108.99L259.832 107.26L261.112 105.91L260.852 105.32L249.282 96.58L243.732 93.26L240.952 91.03L240.852 90.88L240.702 90.39L240.572 90.2L239.872 89.91L239.722 89.82L238.932 89.21L237.232 88.26L236.252 87.51L235.652 86.47L235.132 85.21L234.512 84.54L233.582 85.24L233.092 84.81L232.642 84.51L231.532 84L231.192 84.77L230.392 84.99L228.442 84.83L227.832 84.32L227.352 83.35L226.742 82.83L225.722 83.58L225.412 82.84L225.072 82.31L224.512 82.03L223.492 81.93L222.922 81.7L222.292 81.18L222.102 80.62L222.872 80.27L221.552 79.93L220.452 79.85L219.342 80.09L217.982 80.74L216.352 79.46L215.522 79.77L215.142 79.25L214.912 78.36L214.502 77.6L213.792 77.13L211.402 76.15L210.542 76.46L209.612 75.9L209.152 74.83L209.772 73.64L208.512 72.94L206.712 71.39L205.632 70.74L203.482 69.96L202.732 69.5L202.222 68.96L201.302 67.72L200.212 67.08L199.262 65.32L198.882 64.93L198.292 64.7L197.572 64.17L196.402 63.06L196.012 62.38L195.822 61.63L195.502 61.01L194.762 60.76L194.392 60.9L193.942 61.25L193.532 61.68L193.292 62.03L190.952 61.04L190.082 60.26L189.652 59.07L189.362 59.14L189.182 59.21L189.012 59.33L188.792 59.56L187.922 59.24L187.282 59.86L186.752 60.58L186.172 60.56ZM168.772 54.31L168.232 53.96L167.612 53.72L167.032 53.33L166.552 53.37L166.302 53.96L166.382 54.65L166.822 54.99L167.632 55.17L168.902 56.02L170.692 56.47L171.342 57.08L171.852 57.77L172.342 58.28L173.032 58.54L175.692 59.07L175.422 58.33L175.532 57.77L175.932 57.35L176.512 57.04L175.432 56.27L174.012 55.71L172.712 55.62L171.972 56.22L170.592 55.04L169.892 54.74L169.112 54.99L168.772 54.31ZM166.592 48.75L165.452 49.01L163.892 50.5L163.332 50.4H162.922L162.102 51.27V51.64L163.362 51.69L164.032 52.33L164.552 53.15L165.372 53.75L165.812 51.64L166.122 51.95L167.002 52.47L166.972 51.82L167.032 51.18L167.192 50.58L167.422 50.03L167.222 50.15L166.822 50.29L166.592 50.4V48.75Z" fill="#CCCCCC" stroke="white" stroke-width="0.5"/>
<path d="M266.701 172.49L265.611 172.1L264.821 171.44L264.011 170.47L263.371 169.43L263.111 168.56L262.721 168.03L260.291 166.26L257.071 163.33L254.951 161.96L252.881 161.25L249.111 163.49L248.181 163.77L247.301 164.14L246.921 165.02L246.751 167.09L246.131 167.76L245.871 168.16L246.111 168.33L246.751 168.97L246.811 169.61L247.091 170.42L247.161 171.06L246.721 172.67L246.751 173.38L247.011 173.96L247.861 175.21L247.971 175.84L247.651 176.46L247.071 176.92L246.291 177.32L246.451 177.9L246.851 178.33L247.751 178.98L248.721 180L249.581 181.12L250.281 182.35L250.841 183.72L250.831 184.36L250.671 184.9L250.861 185.28L251.861 185.42L252.281 185.63L252.411 186.14L252.471 186.76L252.691 187.29L253.001 187.53L253.501 187.66L253.741 187.91L253.771 188.19L253.681 188.9L253.741 189.15L255.381 189.98L256.461 190.68L259.231 193.53L260.471 194.44L261.441 194.37L262.401 193.94L263.561 193.76L264.511 194.07L266.561 195.15L267.861 195.38L269.191 195.48L270.511 195.83L271.791 196.04L272.191 196.26L272.741 196.06L273.411 196.05L275.061 196.26L277.741 196.22L282.801 195.43L289.521 195.73L290.451 196.04L290.951 196.37L292.721 197.08L293.001 197.37L293.391 198.15L293.541 198.37L293.811 198.42L294.511 198.31L294.771 198.37L295.301 199.01L295.741 199.68L296.261 200.23L297.041 200.45L299.491 199.99L300.801 200.24L304.631 202.06L308.961 203.15L310.051 202.29L311.331 201.61L313.671 200.86L318.181 199.92L319.751 198.9L319.841 197.08L319.481 196.5L319.081 196.15L318.761 195.78L318.611 195.19L318.651 193.89L318.601 193.23L318.391 192.93L317.641 192.61L317.481 191.86L317.541 191.01L317.391 190.4L316.891 190.12L314.901 189.58L313.651 188.75L313.031 188.45L312.271 188.33L311.311 188.63L310.651 188.61L310.351 188.12L310.221 185.57L309.961 184.33L309.541 183.3L307.981 181.57L305.461 179.69L302.731 178.48L300.501 178.78L298.821 176.16L297.851 175.05L295.441 174.21L294.201 172.49L292.981 171.97L292.631 171.69L292.371 171.4L292.281 171.27L291.901 171.31L291.291 171.62L291.051 171.69H286.551L286.211 171.63L285.691 171.3L285.361 171.27L285.041 171.45L284.531 171.99L284.131 172.1L282.981 171.97L281.051 171.4L279.771 171.27L279.191 171.45L278.131 172.27L277.551 172.52L276.901 172.53L276.261 172.43L275.061 172.1L273.681 171.55L272.921 171.35L272.401 171.48L272.001 171.84L272.841 172.39L272.511 173.56L272.541 174.24L271.641 174.59L271.091 174.01L269.251 174.21L267.551 173.55L266.701 172.49Z" fill="#CCCCCC" stroke="white" stroke-width="0.5"/>
<path d="M260.292 152.5L259.972 152.8L259.682 152.88L259.392 152.87L259.022 152.95L258.602 154.11L258.702 155.33L259.212 156.29L260.062 156.69L260.882 156.2L261.012 155.04L260.732 153.66L260.292 152.5ZM294.412 154.96L295.142 154.2L294.682 153.76L294.122 153.5L293.412 153.4L292.502 153.37L291.852 152.94L290.232 150.06L289.192 149.95L288.582 151.22L287.822 154.2L287.462 154.64L286.902 155.18L286.212 155.66L285.552 155.86L284.132 155.85L283.622 156.09L283.272 156.69L284.002 156.8L284.382 157.06L284.422 157.45L284.132 157.93L285.392 157.82L286.762 157.53L287.662 157.01L287.412 156.27L288.592 155.91L289.782 156.37L290.992 157.09L292.282 157.51L292.722 157.1L293.522 156.58L294.412 154.96ZM223.402 150.77L223.542 150.22L224.122 149.64L224.012 149.16L224.122 149V148.4L224.272 148.19L224.422 148.04L224.522 147.88L224.532 147.61L223.922 148.11L222.692 149.55L222.082 149.64L221.082 151.83L220.872 152.97L220.822 154.61L223.492 153.33L224.362 152.34L224.532 150.84L223.722 151.04L223.402 150.77ZM279.592 145.87L279.172 145.58L279.012 145.6L278.782 145.87L279.072 146.36L279.172 146.74L279.062 147.12L278.782 147.61L278.372 147.15L277.742 147.99L276.622 148.34L275.542 148.46L275.062 148.6L275.132 149.04L275.342 149.36L275.672 149.57L276.112 149.64L276.452 149.86L276.542 150.38L276.572 150.94L276.692 151.29L277.512 151.71L278.602 151.96L279.712 151.91L280.622 151.49L281.562 151.17L282.302 151.77L283.272 153.37H283.682L283.422 152.46L283.272 152.13L283.992 152.17L284.542 152.49L284.882 153.03L284.952 153.75L285.442 153.56L285.762 153.54L285.962 153.73L286.172 154.2L287.132 153.25L287.982 151.67L288.382 149.95L288.002 148.6L286.982 147.61L285.782 146.76L284.722 146.59L284.132 147.61H283.682L282.812 146.37L281.762 146.23L280.662 146.34L279.592 145.87ZM218.392 145.5L218.172 145.99L217.822 146.2L217.352 146.16L216.762 145.87H215.912L216.432 146.29L216.812 146.79L217.052 147.34L217.132 147.98L216.192 147.71L215.912 147.61V148.4L215.112 148.06L214.542 148.26L214.342 148.83L214.722 149.64L212.842 149.69L212.742 150.37L214.272 152.5L214.952 152.03L215.422 152.38L215.842 153L216.352 153.37L219.212 152.5L220.072 151.67L222.082 147.61L220.862 147.21L220.402 147.3L219.932 147.97L219.632 147.98L219.042 147.48L218.892 146.96L218.802 146.32L218.392 145.5ZM277.142 144.65L276.812 143.85L275.872 142.6L274.972 142.76L274.782 143.26L275.062 144.86L274.812 145.71L274.402 146.41L274.312 147.03L275.062 147.61L275.762 145.95L276.262 145.51L277.102 145.87L277.142 144.65Z" fill="#CCCCCC" stroke="white" stroke-width="0.5"/>
<path d="M273.463 298.19L272.823 297.9L272.233 297.48L271.373 296.56L271.143 296.48L270.923 296.44L270.723 296.35L270.513 296.11L270.083 296.84L268.883 297.96L268.473 298.68L268.123 299.75L268.253 300.06L268.693 300.53L268.993 300.95L269.243 301.81L270.953 303.96L271.743 304.65L272.803 304.91L273.483 304.65L274.303 304.21L275.263 304.13L276.363 304.91L276.173 305.16L275.873 305.79L277.063 306.2L279.383 307.49L280.413 307.88L281.663 307.99L282.373 307.98L282.903 307.88L283.283 307.54L283.853 306.5L284.133 306.2L284.743 306.11L285.413 306.2L286.053 306.39L286.553 306.62L287.223 307.16L287.393 307.63L287.343 308.11L287.413 308.71V309.18L287.303 309.55L287.453 309.92L288.183 310.39L288.783 310.54L290.063 310.62L290.683 310.81L291.903 311.76L292.433 312.84L293.103 315.44L293.413 315.85L295.653 317.37L296.003 317.53L296.353 317.52L297.263 317.11L297.903 317.77L298.543 318.79L299.283 319.6L300.123 319.65L300.563 319.19L301.033 317.95L301.353 317.53L302.063 317.26L302.573 317.36L303.093 317.54L303.813 317.53L305.213 316.53L304.153 315.19L300.503 312.93L293.923 308.14L291.463 307.04L288.783 306.23L287.553 305.67L285.813 304.33L283.683 303.28L281.913 301.93L278.553 300.31L277.313 299.51L276.113 298.44L275.543 298.17L274.123 298.24L273.463 298.19ZM261.393 286.73L260.693 286.11L259.673 285.81L258.613 285.67L258.233 285.44L257.853 285.28L257.453 285.21L256.973 285.26L257.933 286.41L258.963 286.9L260.123 287.2L261.523 287.75L261.393 286.73Z" fill="#CCCCCC" stroke="white" stroke-width="0.5"/>
<path d="M388.853 187.91L388.093 188.23L387.323 188.14L386.603 188.25L385.993 189.15L385.903 189.95L386.603 194.21L387.193 195.83L388.013 197.2L388.853 197.91L389.133 196.89V195.88L388.373 190.85L388.003 189.98L388.243 189.8L388.333 189.61L388.443 189.15L388.803 188.72L388.903 188.41L388.853 187.91ZM355.803 171.21L355.563 170.24L355.143 169.64L353.083 168.38L352.283 167.54L351.783 166.81L351.493 166.76L351.053 167.09L352.333 169.25L352.733 170.41V171.69L352.983 171.57L353.653 171.39L353.913 171.27L354.123 172.53L354.593 173.53L354.783 174.5L353.803 176.26L353.773 177.03L353.913 178.36V181.91V185.63L354.273 186.9L355.133 188.4L356.183 189.82L357.163 190.85L357.783 189.81L358.213 188.11L358.863 187.91L359.523 188.24L359.903 188.91L360.463 190.4L362.933 193.12L363.173 194.36L363.733 194.14L364.313 193.05L364.593 191.68L364.443 190.33L363.573 188.3L363.373 187.29L363.453 185.1L363.333 184.04L362.933 182.93L362.143 181.52L361.673 180.85L361.103 180.23L360.623 179.58L360.183 178.23L359.853 177.72L359.123 176.85L357.603 173.76L355.803 171.21ZM434.813 109.04L435.133 108.93L435.383 108.77L435.593 108.53L434.873 108.27L434.233 108.24L433.973 108.51L434.453 109.12L434.813 109.04ZM318.293 107.33L317.673 106.99L316.943 106.4L315.813 104.78L315.063 104.36L313.673 104.33V103.95L313.153 103.89L312.623 104.15L312.203 104.56L312.033 104.99L313.883 106.21L314.083 106.74L313.713 107.22L313.063 107.55L312.443 107.68L311.993 107.5L310.813 106.4L308.583 105.57L306.363 105.31L305.143 106.22L305.893 108.92L306.543 109.83L308.583 111.85L309.363 112.23L309.663 112.82L312.033 115.95L313.473 119.12L313.463 119.67L312.363 119.96L310.603 121.49L309.543 122.2L311.483 126.47L311.603 127.02L311.633 130.29L311.863 131.12L314.333 136.12L315.163 137.42L316.093 140.47L316.133 141.35L316.453 141.82L316.553 142.16L316.453 142.51L316.133 142.97L316.933 144.41L317.983 147.38L322.343 155.44L323.653 156.83L327.043 158.36L328.443 159.59L328.553 160.03L328.453 161.02L328.643 161.47L329.063 161.7L330.033 161.61L330.493 161.7L331.303 162.28L332.973 164.18L332.653 165.22L335.453 165.61L336.893 167.29L340.993 169.39L343.823 172.34L344.473 173.38L344.673 174.06L344.773 175.24L344.913 175.84L345.223 176.4L347.603 179.52L348.033 180.44L348.193 181.48L348.773 181.53L351.873 183.72L352.773 184.16L353.413 183.97L353.783 183.2L353.813 181.9L353.093 177.12L351.943 175.04L351.093 173.89L350.463 173.38L349.923 172.84L348.033 168.08L347.353 167.12L344.993 164.66L344.493 163.93L344.363 163.28L344.913 162.94L345.483 163.23L345.783 163.83L346.153 164.21L346.963 163.77L346.253 163.08L345.893 160.89L345.513 160.42L345.193 160.09L344.943 159.38L344.893 158.67L345.103 158.34L345.703 158.31L347.333 157.93V157.51L346.193 157.15L345.733 157.1L345.943 156.28L345.583 155.73L344.873 155.55L344.093 155.86L343.863 155.42L343.483 155.11L342.393 154.61L343.893 153.43L344.093 153.16L343.963 152.5L343.613 152.14L343.193 151.92L342.843 151.67L342.413 151.44L342.023 151.43L341.713 151.27L341.613 150.63L341.623 149.99L341.553 149.49L341.313 149.11L340.793 148.81L341.093 147.88L340.753 146.91L340.063 146.17L339.333 145.87L338.813 145.52L338.993 144.83L339.603 144.36L340.383 144.66L339.313 143.15L337.933 141.8L336.433 140.74L335.023 140.07L334.933 140.17L334.673 140.32L334.283 140.35L333.793 140.07L333.433 139.52L333.583 139.14L333.833 138.81L333.793 138.38L333.273 137.79L331.633 136.55L331.093 136.31L329.663 136.98L328.813 137.12L328.443 136.53L328.173 135.97L327.053 134.91L326.803 134.01L326.673 133.13L326.463 132.36L326.483 131.58L327.433 129.93L327.463 129.13L327.203 128.33L326.803 127.54L327.933 126.93L329.283 126.44L330.413 125.73L330.893 124.47L330.653 123.33L330.063 122.18L328.643 120.31L326.233 118.27L323.123 114.92L321.113 111.82L320.843 111.6L320.013 111.09L319.843 110.79L319.803 110.16L319.703 109.66L319.433 108.92L318.853 107.85L318.293 107.33ZM309.153 81.18L308.423 79.01L308.073 78.36L307.673 78.01L307.003 78.15L306.733 78.88L307.063 79.62L308.203 81.19L308.733 81.27L309.153 81.18Z" fill="#CCCCCC" stroke="white" stroke-width="0.5"/>
</svg>
