<svg width="794" height="595" viewBox="0 0 794 595" fill="none" xmlns="http://www.w3.org/2000/svg">
<path d="M169.309 187.747L174.553 188.138L195.273 180.817L201.838 179.512L212.999 178.917L220.54 179.383L237.602 179.578L246.824 180.654L254.324 179.903L263.382 198.193L312.389 198.02L311.645 194.441L313.908 194.297L321.722 197.721L324.39 201.315L320.558 206.646L318.972 206.223L314.464 208.63L313.404 211.661L314.882 213.954L313.959 214.865L312.256 215.223L308.531 218.432L308.765 219.12L306.663 220.252L303.257 220.507L300.93 220.055L299.416 219.404L294.05 221.889L291.378 222.101L289.127 221.182L286.994 220.845L284.87 221.676L280.049 224.78L277.906 225.448L276.63 225.029L276.021 223.805L275.346 223.601L274.535 224.689L273.454 224.893L272.846 224.485L270.344 225.505L269.669 225.368L268.925 224.281L268.249 224.417L266.898 225.844L266.222 225.912L265.411 224.077L263.382 223.261L262.842 223.669L262.166 225.029L261.49 225.097L259.936 223.737L258.449 224.961L257.3 224.621L254.935 224.757L253.745 225.265L252.771 224.689L252.299 223.737L252.027 223.601L251.217 224.213L250.676 223.329L250.025 223.057L249.393 223.397L248.852 224.689L248.107 224.621L247.161 223.737L246.486 223.669L245.133 225.64L244.839 225.522L245.475 224.177L243.083 224.331L242.826 224.995L240.396 224.558L239.352 225.366L236.988 225.447L235.652 226.806L234.896 227.113L234.704 228.18L233.337 228.31L232.387 228.811L233.128 229.572L233.417 232.935L234.447 234.405L235.105 237.024L236.699 238.867L237.117 240.209L239.111 241.599L237.521 243.5L238.115 244.487L238.051 245.521L236.989 247.265L236.346 247.476L234.592 249.156L231.28 248.026L229.689 247.815L229.173 247.46L226.777 247.557L228.546 250.901L230.346 259.415L235.219 263.565L237.383 267.016L233.775 268.983L231.596 268.194L228.473 269.184L228.012 269.841L188.79 289.721L179.374 295.98L145.232 274.25L141.143 260.358L139.476 250.358L139.096 245.967L138.943 238.908L139.224 236.106L138.21 234.815L138.615 232.777L138.142 231.349L138.43 230.486L135.663 228.731L135.062 216.654L140.402 159.005L145.663 175.847L150.866 182.104L169.309 187.747Z" fill="#CCCCCC" stroke="white" stroke-width="0.5"/>
<path d="M119.96 125.917L120.704 127.078L121.244 127.419L121.049 141.115L124.252 142.025L128.837 144.954L130.721 147.75L131.862 150.552L140.402 159.005L135.062 216.654L135.662 228.731L138.43 230.486L138.141 231.349L138.614 232.777L138.209 234.815L139.223 236.106L138.943 238.908L139.096 245.967L139.475 250.358L141.142 260.358L145.231 274.25L179.373 295.98L188.789 289.721L228.012 269.841L228.472 269.184L231.595 268.194L233.774 268.983L237.859 289.766L237.271 291.641L238.002 294.804L242.004 299L246.66 301.71L249.467 302.773L250.942 304.946L253.042 305.014L254.337 305.823L255.476 307.221L257.268 307.072L260.949 309.176L265.274 311.141L266.491 312.699L267.843 313.715L269.127 315.613L269.745 317.745L268.654 321.64L268.857 326.652L268.316 328.615L268.249 330.85L267.573 334.031L267.775 335.182L266.626 336.943L266.221 339.311L266.427 340.626L267.348 342.485L267.525 344.991L294.24 345.943L294.368 373.584L264.159 373.951L256.788 370.312L153.772 380.489L153.423 380.106L152.367 379.839L150.071 377.595L148.253 377.482L147.12 376.64L145.115 376.682L143.67 376.243L143.316 374.548L140.52 374.075L139.914 373.655L139.995 372.598L137.853 371.038L137.651 370.774L138.041 370.044L137.235 369.203L133.66 369.056L132.977 368.479L131.69 366.424L131.931 363.051L131.683 362.771L131.138 363.22L130.5 363.281L130.003 362.627L130.146 361.726L128.669 361.629L128.685 361.178L129.62 360.294L128.955 358.908L129.563 357.557L129.565 356.95L129.192 356.53L127.98 356.062L124.933 356.102L124.544 355.759L124.796 354.655L124.408 354.064L121.127 353.716L120.755 353.404L120.694 352.595L118.751 352.125L119.593 350.945L118.413 350.01L117.48 350.008L116.642 349.322L113.531 349.068L113.174 348.803L113.922 347.933L114.063 346.953L113.613 346.471L109.089 345.81L109.075 344.783L107.582 344.594L106.975 345.091L105.671 343.488L104.956 343.253L104.474 343.547L103.292 343.437L102.592 343.031L102.111 342.253L101.022 342.267L100.043 341.752L99.172 341.953L98.736 341.766L98.598 340.63L98.085 340.287L97.446 341.126L96.778 340.798L96.904 339.648L96.065 339.071L95.455 339.522L94.449 338.042L93.905 337.823L93.593 337.994L92.816 337.697L92.566 338.444L92.053 338.475L91.618 337.867L90.995 338.364L90.59 338.348L90.342 337.695L89.67 337.101L88.928 337.412L89.069 336.122L88.852 335.841L87.918 336.073L87.064 335.015L85.634 334.048L84.638 334.638L83.861 333.518L82.726 333.252L81.795 331.088L81.936 330.124L81.036 328.8L81.068 328.023L80.197 327.664L79.279 327.958L79.062 327.118L78.393 326.666L78.021 325.997L77.476 325.934L77.742 325.374L77.212 325.078L76.949 324.393L76.59 324.922L74.459 324.609L73.62 323.798L72.267 323.735L71.862 323.47L71.551 322.956L71.832 322.287L71.663 320.28L70.965 318.583L70.079 318.007L70.172 317.354L70.795 317.12L71.091 316.545L72.555 316.111L72.805 315.302L73.987 315.24L74.331 314.541L74.891 314.308L75.653 314.511L77.771 313.315L78.052 312.973L78.068 312.506L77.695 312.085L77.851 311.712L78.629 311.776L78.925 311.527L78.957 311.044L77.868 310.327L77.76 309.72L77.263 309.315L77.7 308.257L77.327 307.51L77.81 307.059L78.138 306.078L77.705 303.651L78.08 302.919L77.893 302.421L77.551 302.155L77.13 302.607L76.368 302.435L76.338 301.548L73.851 298.557L73.929 297.809L72.746 297.855L70.491 295.424L68.296 295.671L64.621 296.727L63.471 294.92L62.288 293.767L56.407 289.948L55.361 287.677L54.412 286.697L51.954 285.345L50.799 279.51L50.083 278.842L49.178 276.601L48.399 276.384L47.902 276.835L46.952 275.902L45.146 275.872L43.403 276.511L42.188 276.388L41.346 275.096L40.723 274.677L38.201 274.82L36.814 273.949L34.463 273.5L32.767 273.721L29.157 275.033L28.175 274.988L25.604 273.716L24.746 272.643L24.077 272.722L22.872 270.172L21.938 270.344L20.428 270.13L19.851 269.741L18.729 269.806L15.84 271.79L14.357 271.45L13.607 270.456L11.023 270.836L6.691 269.477L4.491 268.222L1.098 263.747L1 262.548L1.617 260.614L1.779 257.452L2.304 256.173L3.703 254.906L6.497 251.127L8.962 248.894L7.235 247.431L6.42 245.967L6.791 244.86L8.153 242.755L15.286 236.583L24.396 231.961L25.564 230.737L27.398 227.638L28.603 226.912L29.923 225.344L30.247 223.286L28.235 216.514L29.874 208.649L31.53 202.869L33.455 199.362L32.469 196.533L32.362 194.851L38.215 190.248L41.022 188.384L42.514 185.065L42.487 181.915L41.784 179.425L41.763 173.434L40.966 171.082L41.76 170.656L42.707 169.157L44.464 164.864L45.072 164.456L46.627 164.32L47.776 163.706L49.804 161.934L53.25 159.753L54.129 158.731L55.075 156.89L56.495 155.39L58.184 150.754L59.401 149.049L60.145 147.071V145.434L59.266 143.524V141.068L60.347 139.294L60.752 137.657L61.969 135.951L63.112 133.402L63.659 132.948L67.106 131.788L68.931 131.993L71.702 131.174L72.445 131.447L73.122 131.31L73.594 130.901L74.406 130.764L76.704 131.583L80.421 131.31L81.637 130.628L84.071 130.423L85.355 129.808L87.518 129.331L91.1 129.399L100.765 126.464H102.995L105.969 125.849L109.957 125.917L110.971 125.098L115.703 124.006L118.878 125.03L119.96 125.917Z" fill="#CCCCCC" stroke="white" stroke-width="0.5"/>
<path d="M416.035 418.259L431.714 417.974L437.749 407.176L465.312 430.565L478.376 429.677L502.695 432.254L510.096 436.408L510.502 435.36L510.388 433.72L511.743 433.683L539.124 434.031L537.993 477.612L542.827 494.75L542.182 505.801L546.519 518.173L543.452 521.521L538.452 523.252L536.006 525.554L536.169 540.86L531.45 547.713L531.647 551.108L530.936 551.628L530.463 553.693L528.588 552.911L525.1 554.28L521.794 556.113L515.509 556.448L512.597 559.424L517.999 570.045L518.094 570.725L517.638 570.897L517.589 571.281L518.058 571.835L517.951 572.331L514.045 575.361L512.906 575.662L511.663 577.49L502.773 580.297L500.735 582.041L499.104 582.753L498.849 583.266L497.768 582.873L498.182 580.698L494.613 579.173L487.673 575.551L483.46 572.632L475.013 572.595L474.141 573.716L472.57 574.517L471.778 575.335L470.899 575.561L470.586 575.947L470.925 576.22L470.606 576.509L470.182 576.278L469.991 576.607L469.808 576.128L468.95 576.001L468.261 576.227L467.783 576.693L468.11 576.933L467.908 577.634L465.866 579.152L465.163 579.391L464.94 578.918L463.854 578.337L462.276 579.068L461.6 580.737L460.816 581.037L460.284 582.06L460.365 583.424L459.766 583.885L459.696 584.368L458.852 584.586L458.471 585.691L457.689 586.013L457.278 587.352L456.249 588.683L454.491 593.448L455.081 593.747L454.554 593.884L453.955 593.497L453.449 592.021L454.4 589.444L454.527 588.336L454.184 587.947L451.3 587.205L450.289 586.498L449.371 584.464L449.249 582.048L448.405 580.829L447.302 581.383L446.688 583.312L445.911 584.22L444.857 584.467L442.687 583.566L441.374 583.406L438.341 585.389L436.271 586.24L435.011 586.387L434.021 586.123L433.862 585.427L435.12 583.084L435.797 580.457L434.759 574.253L433.607 570.96L433.69 568.457L433.207 567.814L431.435 567.744L429.585 568.577L428.221 568.402L426.316 566.733L425.649 566.602L424.614 567.121L424.051 566.888L422.417 565.097L420.113 564.675L418.35 563.583L416.492 563.582L415.51 562.297L414.756 561.878L414.108 561.884L411.309 563.152L410.399 562.342L409.913 561.376L410.097 558.99L409.854 558.447L408.044 556.063L406.981 555.238L406.786 552.412L404.799 551.307L401.596 551.353L399.599 549.088L398.841 546.234L395.405 543.691L392.743 543.146L392.483 542.679L393.801 540.27L393.637 539.447L392.331 537.749L389.662 535.81L389.044 535.635L387.94 536.123L385.427 536.277L384.288 535.107L382.636 534.151L382.45 529.515L383.141 525.876L382.281 524.677L382.548 524.09L384.154 522.767L384.394 521.761L383.527 521.089L387.839 518.013L392.542 515.442L395.972 515.083L400.6 515.182L409.429 511.34L411.678 511.353L416.043 512.797L423.129 518.145L424.948 517.784L430.514 514.019L431.234 511.676L431.444 507.2L431.944 505.876L432.657 505.015L434.664 503.977L442.625 501.55L450.171 495.941L453.345 495.557L455.677 491.801L456.437 487.822L455.676 486.273L456.259 480.87L454.987 476.878L456.502 464.681L462.971 464.5L463.584 453.623L440.644 441.192L416.035 418.259Z" fill="#CCCCCC" stroke="white" stroke-width="0.5"/>
<path d="M740.663 442.356L742.642 445.558L742.398 449.768L754.494 458.132L754.766 460.738L754.421 462.101L753.839 462.923L753.469 465.791L754.485 469.181L755.549 469.417L756.82 469.164L758.489 468.183L761.677 467.346L766.62 463.884L768.334 463.435L769.063 463.702L770.248 463.452L773.313 463.655L778.52 465.911L784.244 466.671L785.739 467.871L787.274 468.487L788.806 468.683L789.562 469.261L790.214 469.235L790.893 469.978L791.939 470.386L792.28 471.221L791.844 472.456L790.108 474.001L789.775 474.873L789.887 476.238L790.711 477.94L791.833 478.855L792.185 480.506L791.965 481.557L790.477 483.53L789.23 484.603L788.797 485.763L788.887 492.01L787.346 509.69L791.374 515.093L793 516.705L787.774 516.769L787.202 513.635L785.982 513.027L783.947 514.04L781.835 516.995L773.646 516.935L768.689 508.566L768.377 507.527L767.12 506.595L768.196 504.439L769.307 497.113L769.619 497.234L770.521 494.368L762.586 495.383L764.011 487.674L761.772 487.472L757.907 490.92L754.449 492.746L752.142 493.133L751.937 492.912L729.382 501.109L712.022 508.104L691.72 516.907L666.079 541.712L667.813 543.053L666.746 544.04L665.785 543.158L633.8 575.41L631.953 575.473L611.111 573.807L600.901 566.076L592.346 571.326L580.116 574.542L559.506 576.035L544.765 585.8L544.608 586.008L545.569 586.37L546.168 588.239L545.52 589.2L544.968 592.09L538.365 590.405L537.139 590.355L537.068 589.946L537.454 590.024L537.415 589.275L536.985 589.307L536.921 588.604L537.244 588.364L536.902 588.41L536.893 588.01L536.319 587.915L536.154 587.279L535.61 587.263L535.639 587.017L535.279 586.913L535.516 586.693L535.014 586.562V586.268L534.554 586.544L534.407 586.165L533.697 586.794L531.091 587.285L530.12 587.182L528.607 587.721L528.74 587.261L528.172 583.864L528.759 582.589L528.563 581.803L522.639 573.403L519.573 571.009L518.091 570.725L517.996 570.045L512.594 559.424L515.506 556.448L521.791 556.113L525.097 554.28L528.585 552.911L530.46 553.693L530.933 551.628L531.644 551.108L531.447 547.713L536.166 540.86L536.003 525.554L538.449 523.252L543.449 521.521L546.516 518.173L542.179 505.801L542.824 494.75L537.99 477.612L539.121 434.031L615.352 434.45L662.406 441.698L675.973 442.854L734.189 424.572L733.361 427.227L733.31 427.835L734.017 429.238L733.586 431.205L737.327 436.46L740.663 442.356Z" fill="#CCCCCC" stroke="white" stroke-width="0.5"/>
<path d="M153.775 380.489L256.791 370.312L264.162 373.951L294.371 373.584L294.774 382.701L294.594 390.887L292.431 391.066L292.635 394.988L295.033 398.455L295.092 399.228L293.109 401.167L292.761 403.76L293.066 404.841L295.811 406.455L296.302 407.167L297.529 409.857L298.96 416.56L299.664 418.569L300.587 419.466L304.816 420.159L306.417 421.862L307.768 424.458L308.809 427.547L314.102 433.704L316.257 435.747L320.917 437.058L323.878 438.239L327.268 440.78L328.127 442.54L367.437 446.089L366.552 442.571L366.807 439.949L368.673 436.161L369.737 431.66L370.983 428.332L370.864 427.067L371.673 425.28L372.971 424.945L376.501 422.302L381.395 418.058L381.861 417.041L381.468 414.571L380.669 413.272L381.669 409.725L381.744 405.65L379.939 400.333L380.343 399.16L404.527 399.1L406.363 406.942L410.02 414.235L409.259 418.283L416.035 418.259L440.644 441.192L463.584 453.623L462.971 464.5L456.502 464.681L454.987 476.878L456.259 480.87L455.676 486.273L456.437 487.822L455.677 491.801L453.345 495.557L450.171 495.941L442.625 501.55L434.664 503.977L432.657 505.015L431.944 505.876L431.444 507.2L431.234 511.676L430.514 514.019L424.948 517.784L423.129 518.145L416.043 512.797L411.678 511.353L409.429 511.34L400.6 515.182L395.972 515.083L392.542 515.442L387.839 518.013L383.527 521.089L381.669 521.014L380.608 519.704L378.634 520.514L378.232 520.263L376.53 517.446L374.658 516.875L374.133 516.406L373.297 516.199L372.465 515.388L370.793 514.99L370.223 514.444L368.915 515.304L367.447 514.349L366.253 514.528L366.069 514.092L364.56 514.966L364.126 514.87L363.883 514.063L362.373 512.518L361.419 513.738L360.968 513.998L360.162 513.947L359.88 514.317L360.257 516.149L360.14 517.482L360.564 519.066L359.192 520.204L358.379 521.3L358.271 523.672L356.301 526.404L354.854 527.247L353.473 527.441L352.881 527.871L352.333 528.875L351.539 531.925L350.4 533.049L349.359 533.477L348.661 533.427L348.029 532.911L347.44 532.954L346.482 532.484L345.332 532.926L345.758 534.308L345.268 535.732L343.281 536.293L342.506 536.164L341.492 534.764L340.38 534.091L338.486 531.956L337.682 531.611L337.72 530.386L336.141 530.021L333.908 530.085L334.104 528.475L331.888 528.229L331.348 527.792L331.322 526.831L330.999 526.473L329.313 525.78L327.912 526.749L327.012 526.947L325.091 526.703L323.6 527.098L322.749 526.799L322.096 527.229L319.808 526.101L319.028 526.84L317.182 527.047L315.591 525.923L315.392 525.503L315.8 524.699L315.529 523.148L314.252 521.358L313.678 521.37L311.888 522.787L309.841 522.838L309.25 523.114L309.139 523.641L309.556 523.922L309.071 524.617L307.628 525.028L308.163 526.395L306.379 529.201L305.845 530.693L303.424 531.269L302.853 530.909L301.782 531.043L301.111 531.753L300.92 532.914L300.094 533.732L298.344 533.459L295.566 534.097L295.469 534.732L294.552 535.317L294.563 536.107L293.91 536.553L293.778 538.025L292.691 538.546L292.034 539.737L290.669 539.869L288.929 540.652L287.584 540.102L286.404 540.391L285.911 539.893L286.149 538.747L285.832 537.103L284.999 536.292L284.816 535.408L283.761 535.729L282.601 535.181L279.857 535.415L279.253 535.133L278.211 535.95L274.679 535.546L272.936 533.678L270.012 532.425L269.936 531.99L270.733 530.614L270.55 529.963L270.025 529.588L269.342 529.895L268.399 529.255L267.9 529.811L266.877 529.931L266.779 530.814L266.173 531.291L265.078 528.896L263.834 528.387L263.248 526.783L263.417 523.73L264.012 522.43L263.92 522.058L263.456 521.885L262.432 522.222L261.239 521.751L259.426 521.542L259.022 521.912L256.981 520.694L256.368 522.32L255.641 522.068L252.184 522.053L251.256 521.399L250.54 520.355L249.805 520.242L249.749 519.564L248.737 519.404L248.307 518.549L247.126 519.009L246.476 518.742L246.276 518.463L246.699 517.426L246.625 516.619L245.949 514.988L246.079 513.888L245.741 512.863L245.759 512.305L246.598 511.874L246.786 511.441L246.718 509.363L245.274 506.054L244.624 505.679L241.738 506.024L240.936 504.919L241.451 504.255L240.146 500.947L237.936 498.921L234.152 498.782L232.723 499.32L231.888 498.665L231.241 497.623L229.909 497.06L229.03 495.505L229.051 494.373L228.589 493.301L227.381 492.877L226.702 491.945L224.691 490.355L224.231 489.174L224.271 486.754L223.777 486.101L222.755 485.615L220.932 483.577L220.305 481.31L217.828 479.671L217.165 478.552L215.382 478.157L213.837 476.213L213.287 473.822L212.096 472.824L210.323 469.559L210.111 468.193L210.89 467.234L209.715 465.91L209.26 462.82L210.972 457.425L212.189 455.846L212.24 454.495L211.872 453.407L212.682 452.417L212.653 452.013L211.042 451.108L209.827 452.066L209.579 451.894L209.474 450.838L209.072 450.417L209.557 449.302L209.53 448.215L207.876 446.408L208.206 445.214L206.228 442.537L203.299 441.068L203.206 440.834L204.138 440.636L204.575 440.234L204.343 439.845L203.443 439.485L202.589 439.606L202.311 439.155L201.611 439.308L201.553 438.127L200.776 438.544L200.515 437.596L198.915 437.839L198.369 438.568L197.672 438.022L196.941 438.299L196.647 437.988L196.728 437.072L195.378 436.756L195.038 436.258L195.229 435.11L194.578 434.378L193.292 433.706L190.711 434.412L188.667 432.915L188.56 432.123L187.817 431.329L186.155 431.417L184.927 432.081L182.832 431.376L182.213 430.629L181.899 426.699L181.282 425.44L180.693 424.988L179.931 425.249L179.483 424.579L177.915 424.234L176.722 423.252L176.148 423.172L175.339 423.698L174.562 423.742L173.508 422.994L172.11 422.866L171.005 423.701L170.182 423.808L168.833 423.043L167.823 423.01L166.831 422.121L165.122 422.35L163.773 421.896L163.233 420.311L162.349 419.826L161.843 417.293L161.346 417.044L160.991 416.344L158.798 417.208L157.412 418.664L156.713 418.787L156.403 418.352L156.36 417.202L156.939 415.79L160.362 413.484L161.984 411.003L162.097 409.62L161.539 408.967L160.902 408.857L158.943 409.659L158.4 409.254L157.844 408.134L158.053 405.415L156.145 404.603L155.462 403.917L152.713 403.491L151.907 403.055L149.133 400.033L146.045 397.96L145.752 397.602L145.784 396.996L147.123 395.585L147.249 395.119L146.225 394.356L146.756 393.098L146.431 392.709L145.856 393.033L145.281 392.908L146.001 390.78L147.756 390.8L148.006 390.506L147.574 389.541L148.62 387.663L149.554 386.982L149.76 385.288L150.087 385.009L151.719 385.044L151.706 383.956L153.201 382.825L153.638 382.002L153.967 381.086L153.775 380.489Z" fill="#CCCCCC" stroke="white" stroke-width="0.5"/>
<path d="M444.401 341.563L443.096 340.462L442.217 337.416L440.392 335.656L440.189 334.911L440.459 332.339L439.851 330.647L437.418 328.412L436.944 326.516L435.255 325.974L435.053 325.703L435.187 324.552L433.362 323.469L432.957 322.114L434.537 321.906L434.715 319.337L433.633 317.17L432.349 316.628L431.335 315.747L431.605 314.121L431.2 313.579L429.983 313.038L429.442 312.225L429.51 311.819L430.389 311.412L430.523 311.005L430.254 309.379L430.592 307.821L430.389 306.263L430.794 305.72L431.876 305.382L432.484 304.569L432.416 303.823L431.943 303.349L433.16 302.468L433.024 302.197L431.538 301.925L432.484 301.113V300.705L430.861 299.96L430.523 297.181L429.713 296.571L429.51 295.079L428.023 292.842L427.212 292.3L426.401 290.74L425.117 290.13L425.049 289.588L425.793 289.452L425.928 289.113L422.954 285.045L422.684 284.299L422.751 282.536L422.346 281.518L421.399 281.044L420.175 281.813L419.777 280.365L418.56 281.383L418.155 281.247L417.006 278.195V274.939L418.358 274.396L418.764 273.853L418.493 273.175L417.614 273.107L417.547 272.428L419.034 271.614L419.305 270.936L419.034 270.258L417.885 269.104L418.02 268.426L419.169 268.154L419.236 267.747L418.898 265.508L417.885 262.861L419.642 261.775L419.912 260.621L420.52 259.942L420.858 257.838L420.386 256.887L418.56 256.548L418.358 254.579L417.821 254.169L416.466 254.104L415.857 252.406L414.911 251.931L414.641 251.32L414.775 250.573L415.452 249.691L415.519 248.876L415.316 248.604L414.978 248.672L414.437 249.487V248.604L415.249 247.042L415.587 245.548L417.006 244.19L417.344 243.103L416.668 241.948L414.708 241.609L413.965 240.522L412.207 239.027L411.937 238.348L411.869 237.057L413.289 235.698L413.424 234.543L413.222 234.271L412.544 234.459L412.072 233.931L411.937 230.126L411.6 229.447L410.585 228.563L410.247 227.544L410.855 225.029L409.166 222.446L409.031 221.29L409.842 219.794L410.788 219.25L412.072 219.114L412.545 217.415L413.627 217.074L414.437 215.035L415.519 214.899L416.059 214.083L417.142 213.743L417.074 211.702L418.02 208.914L420.115 208.166L419.98 206.601L421.332 205.581L421.467 204.832V204.356L420.656 203.268L420.453 202.519L420.994 201.158L420.453 199.866L419.034 199.458L418.155 196.872L418.628 196.464L420.386 196.055L421.332 193.265L422.008 192.516L423.495 191.631L423.765 190.066L424.238 189.113L427.01 187.683L427.888 186.662L428.559 187.388L429.927 186.754L430.023 185.523L432.692 186.203L433.851 186.819L436.295 186.624L439.094 187.208H443.339L446.645 189.341L446.86 186.42L447.672 186.526L450.057 186.457L451.814 187.002L453.233 186.457L456.343 187.138L459.519 185.913L461.006 185.981L464.927 187.751L466.142 187.887L467.427 189.453L472.046 192.665L501.605 203.89L509.742 203.11L510.254 204.097L510.337 208.317L511.382 209.546L513.264 212.906L514.3 213.39L514.62 214.1L514.739 216.177L515.319 217.691L516.908 220.029L516.344 222.455L516.551 224.066L518 225.165L519.258 228.499L520.014 229.11L520.492 229.973L520.607 231.676L522.29 233.982L526.418 237.188L530.065 240.785L537.347 232.407L548.725 226.008L550.808 222.696L551.517 222.067L566.694 227.84L574.872 258.733L593.95 269.622L587.61 289.906L601.236 289.923L601.473 290.587L600.939 291.491L599.164 292.903L599.36 293.833L599.164 294.551L599.946 296.395L599.281 296.63L599.125 297.023L599.712 298.474L602.016 301.606L602.406 303.262L602.838 303.002L603.226 303.348L604.737 302.915L604.994 302.397L606.118 303.262L605.902 303.738L606.377 303.823L606.793 303.456L608.045 303.221L608.318 303.478L609.57 302.958L609.649 302.593L610.197 302.711L613.679 304.358L615.127 304.201L618.032 306.365L618.961 306.084L619.265 306.482L619.526 307.459L620.33 307.731L620.66 308.755L622.171 308.409L622.775 307.587L623.336 307.847L624.32 307.143L625.416 307.3L628.194 305.692L629.29 306.476L630.194 306.392L630.404 305.998L632.183 307.112L633.003 307.328L633.822 307.026L635.549 308.929L638.233 310.084L638.623 309.38L639.518 308.799L640.418 309.058L641.112 308.649L642.024 309.737L644.463 309.705L645.229 310.396L645.096 310.973L645.67 311.261L645.947 311.885L647.681 312.47L648.562 313.252L648.83 314.082L651.588 315.695L652.623 315.637L655.381 318.113L657.909 321.51L659.001 321.913L660.092 321.51L663.071 322.57L662.793 323.237L662.903 324.892L663.678 325.217L663.753 326.294L665.578 327.046L668.554 331.555L668.854 332.607L668.829 337.941L668.429 338.567L667.304 338.316L667.404 338.991L669.579 341.596L671.779 342.347L672.83 343.273L673.305 344.425L675.291 344.709L676.403 345.995L677.802 345.981L679.612 347.26L679.67 352.851L681.174 353.435L682.294 355.52L683.887 355.104L688.412 358.354L690.915 359.028L692.513 359.012L694.317 359.793L699.342 363.04L701.764 365.813L702.475 367.204L702.832 373.29L704.537 374.173L708.035 374.641L709.123 373.533L712.645 376.697L714.446 377.08L714.964 379.272L717.084 381.948L719.902 384.72L721.092 383.612L723.687 383.69L724.481 383.084L726.684 383.864L726.395 385.165L727.796 385.553L728.803 386.543L730.106 387.232L731.119 389.12L731.227 390.117L733.132 391.101L734.642 392.785L735.129 394.091L734.397 396.969L733.286 398.048L733.182 403.965L730.894 406.056L730.748 407.125L731.901 410.575L732.1 413.718L731.488 415.007L731.356 416.045L731.857 418.056L733.336 419.582L733.656 420.511L733.698 422.894L734.33 423.965L734.185 424.572L675.969 442.854L662.402 441.698L615.348 434.45L539.117 434.031L511.736 433.683L509.94 430.96L509.061 428.463L508.52 428.125L507.372 428.396L506.155 426.843L503.587 419.416L502.844 418.201L500.748 416.243L500.207 415.365L499.126 410.503L498.585 409.153L497.571 407.869L497.03 404.289L496.084 401.992L494.394 400.371L493.719 398.818L491.286 395.642L490.88 394.696L490.678 392.128L489.799 390.642L489.123 389.966L487.23 389.492L486.555 388.749L486.351 386.249L485.557 384.987L485.405 382.531L484.054 381.18L483.442 379.419L481.823 377.8L481.102 375.484L480.029 374.36L477.565 372.797L477.092 371.851L476.484 371.58L476.078 370.092L474.93 369.484L474.389 368.672L472.023 367.252L470.671 365.629L469.184 364.953L468.171 362.383L465.399 361.368L463.777 360.219L461.885 359.88L459.79 357.31L457.829 356.498L457.222 355.687L456.275 355.28L454.247 355.01L453.301 354.469L452.558 352.507L451.07 351.154L450.394 348.582L448.029 347.703L446.61 345.47L444.649 344.184L444.38 343.102L444.718 342.086L444.401 341.563Z" fill="#CCCCCC" stroke="white" stroke-width="0.5"/>
<path d="M375.888 300.462L391.339 302.453L394.796 312.592L412.216 350.19L432.78 352.071L438.189 343.138L444.407 341.563L444.724 342.086L444.386 343.102L444.655 344.184L446.616 345.47L448.035 347.703L450.4 348.582L451.076 351.154L452.564 352.507L453.307 354.469L454.253 355.01L456.281 355.28L457.228 355.687L457.835 356.498L459.796 357.31L461.891 359.88L463.783 360.219L465.405 361.368L468.177 362.383L469.19 364.953L470.677 365.629L472.029 367.252L474.395 368.672L474.936 369.484L476.084 370.092L476.49 371.58L477.098 371.851L477.571 372.797L480.035 374.36L481.108 375.484L481.829 377.8L483.448 379.419L484.06 381.18L485.411 382.531L485.563 384.987L486.357 386.249L486.561 388.749L487.236 389.492L489.129 389.966L489.805 390.642L490.684 392.128L490.886 394.696L491.292 395.642L493.725 398.818L494.4 400.371L496.09 401.992L497.036 404.289L497.577 407.869L498.591 409.153L499.132 410.503L500.213 415.365L500.754 416.243L502.85 418.201L503.593 419.416L506.161 426.843L507.378 428.396L508.526 428.125L509.067 428.463L509.946 430.96L511.742 433.683L510.387 433.72L510.501 435.36L510.095 436.408L502.694 432.254L478.375 429.677L465.311 430.565L437.748 407.176L431.713 417.974L416.034 418.259L409.258 418.283L410.019 414.235L406.362 406.942L404.526 399.1L380.342 399.16L379.938 400.333L381.743 405.65L381.668 409.725L380.668 413.272L381.467 414.571L381.86 417.041L381.394 418.058L376.5 422.302L372.97 424.945L371.672 425.28L370.863 427.067L370.982 428.332L369.736 431.66L368.672 436.161L366.806 439.949L366.551 442.571L367.436 446.089L328.126 442.54L327.267 440.78L323.877 438.239L320.916 437.058L316.256 435.747L314.101 433.704L308.808 427.547L307.767 424.458L306.416 421.862L304.815 420.159L300.586 419.466L299.663 418.569L298.959 416.56L297.528 409.857L296.301 407.167L295.81 406.455L293.065 404.841L292.76 403.76L293.108 401.167L295.091 399.228L295.032 398.455L292.634 394.988L292.43 391.066L294.593 390.887L314.123 397.837L321.384 396.872L325.321 392.499L327.992 388.06L328.231 380.862L327.298 373.103L319.701 353.54L331.289 332.603L360.679 298.483L375.888 300.462Z" fill="#CCCCCC" stroke="white" stroke-width="0.5"/>
<path d="M580.367 1L616.273 2.222L619.705 2.111L616.605 5.912L614.642 17.15L612.366 33.724L608.376 44.629L619.713 97.185L615.711 104.374L631.379 109.518L643.92 124.45L652.072 130.177L658.514 141.496L663.352 141.531L664.448 144.412L664.133 146.657L665.216 151.094L665.63 151.773L665.426 155.571L665.795 157.681L663.411 167.101L660.986 170.581L658.696 177.353L658.49 180.929L659.251 184.462L659.293 187.971L673.649 187.77L674.859 203.477L675.712 209.271L676.391 223.517L676.113 227.002L676.038 236.506L676.375 243.39L676.214 247.386L674.799 249.822L673.126 251.524L672.104 251.607L671.374 252.059L668.847 254.214L667.99 255.683L667.625 255.811L666.644 255.402L666.031 255.739L664.731 255.03L663.656 255.434L662.966 255.073L661.561 255.811L659.736 256.238L659.099 257.479L658.601 257.617V258.089L658.16 258.615L658.311 259.239L655.812 259.613L654.93 260.334L654.018 261.72L653.053 262.108L651.23 263.772L649.671 263.411L648.884 264.049L648.056 264.159L646.371 263.577L645.184 261.304L644.839 259.683L644.991 258.948L640.929 257.052L639.4 258.554L637.945 258.495L637.001 257.074L632.689 256.891L632.081 257.026L631.649 257.859L630.155 258.357L629.291 259.155L627.666 258.554L625.744 260.109L624.743 259.555L624.195 259.607L623.82 258.922L622.646 258.654L621.651 258.766L620.681 258.38L620.236 257.671L619.651 257.948L619.006 259.215L618.549 259.231L617.576 258.135L615.821 258.721L615.701 259.306L614.842 260.16L613.703 259.507L613.652 261.162L612.043 261.239L611.85 261.586L612.204 262.266L611.805 263.069L612.092 265.018L612.554 265.125L613.653 264.743L613.538 265.647L613.253 266.128L611.998 266.262L612.653 268.084L612.204 268.636L610.511 268.767L610.904 269.589L610.888 271.579L611.201 272.016L612.418 272.05L612.715 272.982L611.904 274.554L610.229 275.643L610.317 276.11L610.691 276.086L610.98 277.566L611.467 277.976L611.454 279.016L611.819 279.72L611.606 280.463L610.702 280.217L609.749 281.34L608.246 281.228L607.134 281.601L606.917 282.033L607.039 284.583L606.087 283.724L604.816 283.75L604.881 284.699L604.35 285.194L604.259 287.171L602.998 287.88L602.147 287.855L601.48 288.509L601.081 289.488L601.236 289.923L587.61 289.906L593.95 269.622L574.872 258.733L566.694 227.84L551.517 222.067L550.808 222.696L548.725 226.008L537.347 232.407L530.065 240.785L526.418 237.188L522.29 233.982L520.607 231.676L520.492 229.973L520.014 229.11L519.258 228.499L518 225.165L516.551 224.066L516.344 222.455L516.908 220.029L515.319 217.691L514.739 216.177L514.62 214.1L514.3 213.39L513.264 212.906L511.382 209.546L510.337 208.317L510.254 204.097L509.742 203.11L501.605 203.89L472.046 192.665L467.427 189.453L466.48 188.092L465.805 187.751H464.927L461.006 185.981L459.519 185.913L456.343 187.138L453.233 186.457L451.814 187.002L450.057 186.457L447.672 186.526L448.894 170.006H449.597L452.44 172.546L457.377 170.342L482.005 170.359L485.611 169.228L487.412 168.336L500.878 151.287L518.093 131.907L520.948 127.98L531.219 109.877L542.309 102.947L563.385 82.664L559.498 76.123L558.221 71.111L558 37.07L543.218 22.536L580.367 22.494L580.231 19.612L581.853 16.385L582.101 13.697L580.638 8.626L580.434 5.603L580.772 2.168L580.367 1Z" fill="#CCCCCC" stroke="white" stroke-width="0.5"/>
<path d="M390.434 132.788L392.334 133.249L396.043 133.167L425.712 151.583L436.976 158.055L449.851 170.007L449.602 170.006H448.899L447.677 186.526L446.865 186.42L446.65 189.341L443.344 187.208H439.099L436.3 186.624L433.856 186.819L432.697 186.203L430.028 185.523L429.932 186.754L428.564 187.388L427.893 186.662L427.015 187.683L424.243 189.113L423.77 190.066L423.5 191.631L422.013 192.516L421.337 193.265L420.391 196.055L418.633 196.464L418.16 196.872L419.039 199.458L420.458 199.866L420.999 201.158L420.458 202.519L420.661 203.268L421.472 204.356V204.832L421.337 205.581L419.985 206.601L420.12 208.166L418.025 208.914L417.079 211.702L417.147 213.743L416.064 214.083L415.524 214.899L414.442 215.035L413.632 217.074L412.55 217.415L412.077 219.114L410.793 219.25L409.847 219.794L409.036 221.29L409.171 222.446L410.86 225.029L410.252 227.544L410.59 228.563L411.605 229.447L411.942 230.126L412.077 233.931L412.549 234.459L413.227 234.271L413.429 234.543L413.294 235.698L411.874 237.057L411.942 238.348L412.212 239.027L413.97 240.522L414.713 241.609L416.673 241.948L417.349 243.103L417.011 244.19L415.592 245.548L415.254 247.042L414.442 248.604V249.487L414.983 248.672L415.321 248.604L415.524 248.876L415.457 249.691L414.78 250.573L414.646 251.32L414.916 251.931L415.862 252.406L416.471 254.104L417.826 254.169L418.363 254.579L418.565 256.548L420.391 256.887L420.863 257.838L420.525 259.942L419.917 260.621L419.647 261.775L417.89 262.861L418.903 265.508L419.241 267.747L419.174 268.154L418.025 268.426L417.89 269.104L419.039 270.258L419.31 270.936L419.039 271.614L417.552 272.428L417.619 273.107L418.498 273.175L418.769 273.853L418.363 274.396L417.011 274.939V278.195L418.16 281.247L418.565 281.383L419.782 280.365L420.18 281.813L421.404 281.044L422.351 281.518L422.756 282.536L422.689 284.299L422.959 285.045L425.933 289.113L425.798 289.452L425.054 289.588L425.122 290.13L426.406 290.74L427.217 292.3L428.028 292.842L429.515 295.079L429.718 296.571L430.528 297.181L430.866 299.96L432.489 300.705V301.113L431.543 301.925L433.029 302.197L433.165 302.468L431.948 303.349L432.421 303.823L432.489 304.569L431.881 305.382L430.799 305.72L430.394 306.263L430.597 307.821L430.259 309.379L430.528 311.005L430.394 311.412L429.515 311.819L429.447 312.225L429.988 313.038L431.205 313.579L431.61 314.121L431.34 315.747L432.354 316.628L433.638 317.17L434.72 319.337L434.542 321.906L432.962 322.114L433.367 323.469L435.192 324.552L435.058 325.703L435.26 325.974L436.949 326.516L437.423 328.412L439.856 330.647L440.464 332.339L440.194 334.911L440.397 335.656L442.222 337.416L443.101 340.462L444.406 341.563L438.188 343.138L432.779 352.071L412.215 350.19L394.795 312.592L391.338 302.453L375.887 300.462L375.377 291.69L372.702 261.448L348.429 245.016L335.094 218.978L308.765 219.12L308.531 218.432L312.256 215.223L313.959 214.865L314.882 213.954L313.404 211.661L314.464 208.63L318.973 206.223L320.558 206.646L324.39 201.315L321.723 197.721L313.908 194.297L311.645 194.441L314.7 189.021L323.72 180.958L329.337 173.983L330.161 172.384L333.254 171.328L363.957 170.72L363.845 148.121L388.037 135.497L390.434 132.788Z" fill="#CCCCCC" stroke="white" stroke-width="0.5"/>
<path d="M308.769 219.12L335.098 218.978L348.433 245.016L372.706 261.448L375.381 291.69L375.891 300.462L360.682 298.483L331.292 332.603L319.704 353.54L327.301 373.103L328.234 380.862L327.995 388.06L325.324 392.499L321.387 396.872L314.126 397.837L294.596 390.887L294.776 382.701L294.373 373.584L294.245 345.943L267.53 344.991L267.353 342.485L266.432 340.626L266.226 339.311L266.631 336.943L267.78 335.182L267.578 334.031L268.254 330.85L268.321 328.615L268.862 326.652L268.659 321.64L269.75 317.745L269.132 315.613L267.848 313.715L266.496 312.699L265.279 311.141L260.954 309.176L257.273 307.072L255.481 307.221L254.342 305.823L253.047 305.014L250.947 304.946L249.472 302.773L246.665 301.71L242.009 299L238.007 294.804L237.276 291.641L237.864 289.766L233.779 268.983L237.388 267.016L235.224 263.565L230.351 259.415L228.55 250.901L226.781 247.557L229.177 247.46L229.693 247.815L231.284 248.026L234.597 249.156L236.351 247.476L236.993 247.265L238.055 245.521L238.119 244.487L237.525 243.5L239.115 241.599L237.121 240.209L236.703 238.867L235.11 237.024L234.451 234.405L233.421 232.935L233.132 229.572L232.392 228.811L233.341 228.31L234.708 228.18L234.901 227.113L235.657 226.806L236.992 225.447L239.356 225.366L240.401 224.558L242.83 224.995L243.087 224.331L245.479 224.177L244.843 225.522L245.138 225.64L246.49 223.669L247.166 223.737L248.112 224.621L248.856 224.689L249.667 223.057L250.681 223.329L251.221 224.213L252.032 223.601L252.303 223.737L252.776 224.689L253.75 225.265L254.939 224.757L257.304 224.621L258.453 224.961L259.94 223.737L261.495 225.097L262.171 225.029L262.846 223.669L263.387 223.261L265.415 224.077L266.226 225.912L266.902 225.844L268.254 224.417L268.929 224.281L269.673 225.368L270.349 225.505L272.85 224.485L273.458 224.893L274.539 224.689L275.35 223.601L276.026 223.805L276.634 225.029L277.91 225.448L280.053 224.78L284.875 221.676L286.999 220.845L289.131 221.182L291.383 222.101L294.054 221.889L299.421 219.404L300.935 220.055L303.261 220.507L306.668 220.252L308.769 219.12Z" fill="#CCCCCC" stroke="white" stroke-width="0.5"/>
</svg>
