<svg width="614" height="545" viewBox="0 0 614 545" fill="none" xmlns="http://www.w3.org/2000/svg">
<path d="M439.13 249.99L439.12 250.63L437.89 251.14L437.45 252.15L435.73 252.61L433.54 249.91L432.06 248.74L430.73 248.5L429.1 249.54L427.75 248.64L428.1 249L427.66 248.68L425.41 249.33L423.73 252.56L423.05 253.29L421.61 253.86L419.7 253.92L418.53 253.11L417.58 253.46L415.57 251.52L414.12 252L406.63 251.45L404.33 251.98L403.61 252.79L402.11 253.48L400.47 253.37L399.21 252.42L399.32 252.65L398.42 252.77L397.16 251.78L395.66 251.69L395.11 252.27L394.08 252.16L393.7 252.62L393.15 252L392.67 252.27L390.84 251.43L387.52 252.38L384.47 251.63L383.48 252.45L381.37 252.76L377.41 252.87L375.59 252.49L375.01 253.02L375.05 252.63L372.37 256.64L371.77 257.25L369.85 257.94L368.95 259.76L366.11 260.53L363.14 259.8L361.53 259.82L358.97 261.4L356.93 261.69L354.91 262.88L354.3 262.85L353.15 264.18L352.38 266.42L350.53 269.06L349.91 271.57L349.21 271.53L348.63 270.8L347.55 270.91L346.95 272.07L347.41 274.45L346.49 275.14L345.9 275.01L342.6 276.6L341.61 275.19L340.45 274.57L339.46 274.78L337.94 273.85L337.42 274.18L335.7 271.93L334.16 270.63L330.92 270.71L329.06 267.25L328.02 266.86L327.01 264.5L326.01 263.59L324.04 259.24L323.26 259.08L324.3 258.57L323.98 258.9L324.33 259L324.39 258.68L324.27 259.1L324.79 260.1L324.92 259.71L325 259.96L325.74 258.66L325.97 257.74L325.72 257.28L324.72 257.33L323.8 256.06L323.19 256.24L323.47 256.06L322.97 255.83L323.06 256.31L322.56 255.78L322.19 256.14L321.2 255.5L319.87 251.98L322.19 250.13L321.08 249.48L319.79 246.36L317.55 243.69L311.18 239.46L308.4 238.18L306.51 236.69L307.11 237.65L309.32 239.46L306.3 236.85L305.65 236.77L306.04 237.19L305.7 237.17L303.01 235.94L295.64 236.51L294.65 237.3L293.68 236.92L293.38 235.26L292.88 234.59L293.2 233.79L292.64 232.54L292.67 229.83L292.05 229.17L292.55 228.85L291.89 227.12L292.06 226.53L291.49 226.15L291.28 225.31L290.74 225.25L290.41 224.2L290.83 224L290.93 222.45L292.29 220.96L293.21 217.22L293.96 216.99L296.5 214.41L297.03 212.49L297.74 211.48L297.65 209.58L299.2 208.88L301.17 208.87L301.28 207.98L301.95 207.5L303.05 208.34L304.52 208.21L305.09 205.42L306.03 203.7L305.65 203.49L305.68 202.98L306.6 201.83L308.92 202.87L310.3 202.83L309.86 205.11L310.91 205.09L310.94 205.52L311.57 205.79L312.29 205.48L314.23 205.83L314.79 205.56L315.48 206.29L315.91 206.81L316.03 208.14L316.69 207.94H317.01L318.95 208.69L319.26 208.48L319.1 207.87L319.83 207.29L319.58 206.97L320.61 206.87L321.85 207.19L322.13 208.34L322.87 208.97L323 209.02L323.62 209.65L325.02 209.9L325.39 210.31L326.42 210.21L326.98 210.95L328.75 209.44L330.53 208.98L333.2 209.07L333.69 207.29L334.4 206.57L333.83 205.84L333.91 205.26L335.15 204.33L335.23 203.54L335.94 202.98L337.35 202.88L337.84 202.5L338.53 202.67L339.31 202.11L340.44 202.64L340.48 203.37L340.22 203.01L339.91 203.18L340.17 203.72L338.93 204.51L339.12 205.9L339.89 206.13L341.82 204.2L343.24 204.42L343.43 203.78L344.46 203.34L344.31 202.57L344.66 201.91L344.76 201.86L344.8 199.86L343.5 197.58L343.94 196.3L343.2 195.59L343.23 195.04L344.24 193.38L344.96 192.92H345.92L346.05 192.2L347.9 190.95L347.79 190.69L348.18 190.02L348.65 190.28L348.43 189.78L349.05 188.75L350.75 188.92L350.66 188.41L351.18 187.77L352.15 187.27L353.03 186.17L353.28 186.43L353.43 185.8L353.65 186.18L353.75 185.83L354.08 186.1L354.07 185.57L354.54 185.51L354.58 185.43L354.12 184.09L356.47 184.45L357.87 183.68L358.86 184.11L359.07 184.89L360.64 185.32L362.52 185.24L363.03 187.69L367.13 189.1L367.25 189.77L368.27 189.94L369.45 190.83L370.23 192.1L370.45 191.82L370.97 192L371.17 192.5L371.65 192.32L374.04 195.13L378.53 197.13L379.02 197L378.77 195.87L379.14 195.18L382.78 195.9L388.65 196.28L390.26 196.08L390.93 195.45L391.12 194.66L391.79 194.46L392.29 194.3L393.43 194.69L393.7 194.34L396.82 195.4L397.55 195.02L397.71 193.52L398.09 193.45L398.94 193.76L399.15 194.88L400.79 195.26L401.99 194.96L403.3 193.78L403.26 193.1L403.37 192.79L404.68 192.37L404.83 192.44L406.04 193.18L409.84 193.82L411.77 192.49L413.51 194.88L413.74 193.4L414.49 192.77L416.15 192.78L416.78 193.35L417.32 192.55L417.95 192.21L418.16 192.47V192.13L419.22 191.62L419.33 191.19L419.53 191.36L419.82 190.59L422.4 191.86L424.19 191.24H424.44L425.3 192.02L425.19 194.66L427.63 195.28L427.57 198.56L428.76 199.11L428.92 199.83L428.42 201.51L428.62 202.59L425.71 206.12L426.46 206.56H426.81L429.3 207.88L431.52 208.08L432.63 208.86L433.88 211.09L436.07 212.79L437.38 212.38L438.45 213.32L439.05 212.97L440.16 213.48L440.6 213.09L441.09 213.3L441.26 213.29L441.46 213.55L440.89 214.34L440.52 216.63L440.89 218.28L440.42 219.2L440.72 220.84L440.9 221.03L444.98 227.63L445.96 228.35L445.92 227.73L447.97 228.1L450.93 230.42L449.59 231.12L448.71 232.76L446.22 235.46L444.88 240.79L443.48 243.5L443.61 244.87L443.32 245.29H442.41L441.69 246.55L441.06 246.68L440.71 247.15L440.82 248.54L439.75 249.05L439.13 249.99Z" fill="#CCCCCC" stroke="white" stroke-width="0.5"/>
<path d="M444.939 67.05L445.219 67.6L447.089 67.57L448.519 68.96L450.219 68.65L452.839 70.48L453.499 70.61L454.019 70.45L454.339 70.15L456.849 70.3L457.609 69.4L457.519 68.91L458.709 66.71L459.639 65.78L459.479 64.68L459.199 64.71L458.359 64.69L457.969 63.47L457.089 62.74L457.279 60.75L456.599 59.31L457.299 57.34L457.099 56.68L458.989 54.39L458.849 53.79L458.189 53.52L458.679 51.84L460.439 49.97L460.109 48.19L460.749 46.95L461.709 47.48L462.279 47.23H462.419L462.459 46.16L463.639 45.37L463.079 44.91L463.679 44.93L463.799 43.57L466.859 43.61L466.869 41.99L467.249 41.64L468.789 41.53L470.049 40.05L470.659 40.06L470.669 39.42L471.639 39.34L472.099 38.45L471.769 38L471.879 36.24L472.879 35.45L472.959 34.19L473.899 33.48L475.469 33.55L475.239 34.4L476.199 35.05L476.699 34.83L477.259 35.72L478.749 36.8L478.789 37.73L479.689 37.72L479.719 38.63L480.139 38.79L480.369 38.23L480.799 38.21L480.859 37.56L481.469 36.95L483.149 38.16L484.009 37.7L484.709 37.93L485.709 36.6L486.299 36.71L486.639 36.15L488.129 37.21L488.539 37.13L488.669 37.66L490.049 38.46L490.789 38.05L492.269 40.91L493.279 41.02L493.469 41.85L494.729 42.22L495.379 42.06L495.549 41.62L496.519 41.81L497.259 41.13L498.239 41.28L499.559 40.82L499.949 40.3L502.219 41.08L502.329 41.91L503.159 42.64L503.879 42.28L503.999 41.49L504.949 40.77L506.649 42L508.189 41.66L509.229 41.97L509.519 41.55L511.129 41.84L511.409 41.45L513.149 41.98L513.259 42.24L513.479 42.38L514.089 43.2L514.359 44.54L516.039 44.96L515.349 47.41L515.599 47.79L515.169 47.6L514.809 48.05L514.769 48.57L515.299 48.85L514.619 49.51L514.279 49.25L513.979 49.57L515.459 53.27L514.839 53.96L516.119 54.48L515.309 55.03L515.959 55.58L514.279 60.46L514.159 61.06L514.619 61.38L514.049 61.86L514.289 63.09L513.419 65.68L513.029 65.92V67.43L512.699 68.05L512.579 67.66L512.039 67.84L511.689 68.83L511.199 68.62L510.529 69.67L511.739 70.33L511.429 70.4L511.339 71.54L511.739 72.05L511.019 72.36L510.999 72.78L510.339 72.75L510.009 73.9L509.199 73.88L508.369 74.64L507.949 75.93L506.079 76.18L505.989 77.11L505.679 76.82L504.099 79.03L504.059 79.71L504.929 80.76L504.719 81.92L506.139 82.16L506.849 81.83L507.379 83.97L506.019 85.86L504.509 86.07L504.849 87.28L503.909 89.29L505.349 90.8L504.649 91.69L505.219 92.12L505.109 92.64L505.699 93.58L505.489 95.09L505.099 95.04L505.049 95.51L503.909 95.57L503.189 97.94L502.069 98.21L501.899 98.91L500.999 98.65L500.659 99.05L500.669 100.48L501.179 100.57L501.479 101.54L501.139 102L501.509 101.82L501.499 102.27L501.869 102.06L502.759 102.78L502.269 102.97L502.869 104.18L502.819 104.46L503.159 104.68L502.069 106.5L502.099 106.7L501.709 107.77L502.749 110L501.559 111.21L501.419 111.91L499.989 112.35L499.939 112.83L499.549 112.52L499.799 113.09L499.179 113.61L498.119 113.32L496.279 114.59L495.959 114.48L495.639 113.47L495.629 113.36L495.089 113.19L494.549 113.22L493.459 113.31L492.229 112.73L491.259 111.87L491.239 111.25L489.829 111.3L488.889 112.84L488.729 114.61L486.799 115.71L486.189 115.02L484.859 115.52L485.119 117.39L486.359 117.76L487.199 117.51L487.009 120.92L487.659 121.48L487.779 122.28L486.099 122.96L485.749 123.5L487.379 125.45L487.529 126.24L485.939 127.15L485.199 128.38L484.569 128.35L484.269 128.76L484.739 129.84L483.559 130.56L481.759 131.11L480.369 130.27L479.419 134.32L478.589 134.71L478.089 135.53L478.449 136.69L478.009 136.56L476.639 137.62L474.669 137.56L473.939 139.4L472.469 139.99L472.419 141.88L473.539 143.38L471.509 144.58L470.359 143.71L470.659 143.08L470.319 142.1L470.559 141.34L470.119 140.45L469.799 140.73L468.289 139.88L466.019 139.96L465.469 140.34L464.819 140.2L464.599 140.57L464.129 140.24L463.499 138.79L465.719 137.88L466.049 137.41L465.879 136.72L463.969 135.18L461.319 135.05V134.03L460.509 133.53L460.069 132.48L459.899 132.05L459.869 131.73L459.329 132.19L459.339 133.97L458.889 134.17L458.399 134.6L457.779 134.3L457.289 134.5L456.989 134.32L455.709 134.14L455.999 132.24L455.039 132.65L454.089 132.01L453.219 132.46L449.189 128.19L448.379 129.35L448.139 128.48L448.389 127.91L448.999 127.86L448.339 127.1L448.179 127.01L446.849 125.33L446.119 125.04L446.149 124.66L446.369 124.34L446.609 124.56L447.699 122.64L449.109 121.85L448.859 120.17L449.099 118.73L449.629 118.17L451.669 119.22L453.089 118L452.609 117.37L453.359 114.79L452.699 112.95L453.239 112.2L453.309 110.94L452.829 109.7L452.379 109.61L451.079 107.91L451.419 106.19L451.169 105.61L450.309 104.85L449.999 104.36L446.139 100.36L444.739 99.89L443.459 98.67L443.119 98.77L441.789 97.38L439.249 98.23L438.509 97.33L436.739 96.89L435.949 93.11L436.499 91.54L436.329 90.8L437.379 90.19L438.019 87.5L439.779 88.15L439.559 89.29L439.959 89.72L442.409 88.89L442.439 88.4L441.979 88.27L442.029 86.92L441.279 86.03L441.669 83.88L440.909 82.63L440.959 81.91L442.819 81.94L443.559 80.67L443.799 80.53L444.169 80.51L444.599 79.67L445.979 79.59L445.889 78.74L446.889 77.37L445.979 76.93L446.099 76.31L444.729 75.02L445.649 73.65L445.689 72.69L444.689 70.83L444.639 68.53L444.939 67.05Z" fill="#CCCCCC" stroke="white" stroke-width="0.5"/>
<path d="M336.201 6.06006L336.531 6.69006L337.881 7.13006L337.651 7.66006L338.241 8.02006L338.541 8.90006L340.681 9.33006L340.261 9.70006L340.041 9.46006L340.171 10.0901L340.511 9.82006L340.191 10.3501L340.831 10.4301L341.061 10.1001L341.531 10.3901L342.301 9.80006L342.991 10.1801L345.041 10.0001L345.651 10.3101L348.041 9.91006L348.551 10.8401L348.991 10.5001L351.101 10.6601L353.261 12.9601L355.761 12.5701L358.761 13.5501L361.141 13.4001L362.551 14.1201L363.511 14.0001L363.611 14.4701L364.211 14.2501L367.391 15.4301L369.471 15.8901L372.371 15.9401L372.401 16.4301L371.651 17.3301L372.241 18.9601L372.101 20.2301L371.391 20.5901L371.271 19.9301L369.831 19.4301L369.121 20.6301L366.501 21.0201L366.771 21.8601L366.291 23.6001L365.191 23.4101L364.301 23.7901L364.161 23.7201L363.551 23.8001L362.721 22.1601L361.571 21.7701L360.131 22.7401L359.261 24.1301L358.591 23.7201L357.131 23.8501L356.411 26.7701L355.371 26.7301L355.161 26.3101L353.551 27.1001L353.471 27.2801L350.331 27.6401L349.811 27.0601L349.131 27.0401L348.711 27.3501L348.521 28.7201L346.111 28.5201L345.731 29.7701L341.881 29.2801L340.371 28.4201L339.351 28.9901L338.281 31.0501L338.361 31.6501L337.201 31.9001L336.211 31.9301L335.671 31.2801L334.911 31.3001L334.991 30.8001L334.271 30.8401L333.091 29.8301L332.621 28.1401L331.361 28.5101L329.721 27.7601L329.251 29.3901L328.171 29.8301L327.091 28.8101L326.061 28.8301L325.711 30.2001L324.701 29.9401L324.151 29.2301L323.851 29.5701L323.001 29.3901L322.891 28.8701L322.151 28.3701L321.761 29.0301L321.121 29.1501L321.231 29.8001L320.731 29.9101L320.401 31.0101L320.021 30.8501L319.781 31.2701L319.081 30.9001L318.901 30.9101L319.031 31.8401L320.071 31.9701L320.061 32.8301L318.911 33.0701L318.561 33.5801L317.971 33.2801L317.091 33.8301L315.231 33.3901L313.151 33.4901L312.201 33.6901L311.181 34.9901L310.821 34.9501L310.871 34.3501L309.481 33.7701L309.021 33.3101L309.161 32.1501L308.221 31.0201L307.201 30.9901L305.931 29.2701L305.881 30.7501L305.471 30.7701L304.791 29.8401L305.221 29.0701L305.661 29.3101L305.631 28.3301L306.371 27.3901L307.041 27.8401L307.581 27.2101H308.201L309.321 26.0501L309.511 25.2801L308.601 24.2201L307.811 24.4101L307.861 24.7601L306.391 25.6801L305.891 25.6001L305.251 24.4601L305.671 23.6201L305.521 23.0401L304.701 22.8801L304.451 22.3101L304.151 22.6401L303.041 21.5201L302.781 20.6301L303.051 19.2901L301.971 19.3501L301.151 18.3401L301.211 16.8101L300.971 16.3001L300.381 16.6301L299.891 16.3301L300.011 15.6501L299.971 15.5201L299.981 14.5801L301.871 14.6801L302.251 13.6301L303.181 12.9801L303.801 12.0301L303.521 11.6601L303.831 10.8501L304.531 10.9101L303.851 10.3601L303.911 9.80006L305.381 9.93006L305.981 9.38006L306.141 9.59006L306.191 9.13006L307.681 9.33006L308.031 9.76006L308.701 9.27006L309.871 9.88006L311.641 9.44006L312.221 10.1101L312.601 9.57006L313.561 9.70006L314.871 9.24006L315.091 9.62006L315.501 9.48006L315.601 9.90006L317.141 9.87006L317.381 10.2501L319.031 10.1301L319.111 9.32006L320.261 9.99006L321.161 9.72006L322.281 10.0601L324.971 9.05006L325.291 8.42006L325.921 9.00006L326.241 8.75006L326.401 9.22006L326.801 8.98006L326.791 9.54006L327.541 9.37006L328.771 9.90006L331.401 8.66006L332.041 9.24006L333.081 8.99006L333.591 8.43006L333.331 8.29006L334.211 7.95006V7.30006L335.141 7.28006L335.741 6.81006L335.771 6.10006L336.201 6.06006Z" fill="#CCCCCC" stroke="white" stroke-width="0.5"/>
<path d="M405.832 23.1499L405.232 21.1299L406.322 20.6199L406.792 20.8799L406.252 21.9299L406.282 22.9799L405.832 23.1499ZM397.612 11.4399L397.632 11.8599L398.612 11.5899L398.922 12.2099L399.522 12.0999L399.912 12.8899L401.832 13.2399L402.022 14.0199L401.222 14.1899L401.972 15.2099L402.452 14.8999L403.672 15.1999L404.832 14.9199L404.782 15.6399L405.372 15.2899L407.412 15.7699L408.342 16.9999L409.432 17.3999L409.322 19.3399L408.412 19.4599L407.912 20.0099L407.492 19.0799L406.032 19.7799L405.602 19.3899L404.852 19.6799L404.602 19.3799L404.402 20.2199L403.212 20.5099L402.792 21.3999L401.402 21.7799L401.622 22.4899L401.802 22.7699L402.262 25.5699L400.252 25.5799L398.032 24.8699L397.212 24.9599L396.982 24.2799L395.942 23.8399L395.032 25.2299L395.012 25.3999L394.442 26.2399L393.122 26.8099L392.792 27.5599H391.002L390.292 27.2099L390.452 29.0299L389.302 29.0199L388.582 29.9999L387.622 30.5099L386.632 33.0399L387.082 33.8699L388.252 33.7399L388.182 34.3099L389.962 32.2499L390.962 33.2399L389.992 34.3299L388.782 33.8499L389.242 34.6899L388.412 34.6799L389.112 34.9799L388.702 35.5299L388.662 35.7399L389.762 36.0699L389.992 34.7199L390.742 35.0799L391.322 36.7199L391.162 37.9999L390.042 38.4599L389.222 37.7999L388.742 39.1499L388.192 38.9399L386.912 39.4999L386.792 39.1199H386.332L386.172 36.8199L385.752 37.2599L385.892 37.7099L385.432 37.9399L385.562 38.3599L385.002 38.6399L385.082 39.2299L384.122 39.3899L383.642 38.2999L382.282 38.3699L381.372 37.6099L381.332 37.1899L382.002 36.5799L382.612 36.7699L382.892 35.8699L382.282 35.3599L380.922 36.3399L380.252 35.8899L380.322 33.9099L379.922 33.6899L379.862 32.1999L376.912 31.5499L375.452 29.2799L373.752 28.2699L373.342 29.0899L372.182 28.8299L371.152 29.8399L369.872 29.2299L368.992 29.9299L367.782 29.5899L366.342 29.7899L366.202 28.5099L365.572 28.4899L365.562 27.7799L363.772 26.7799L363.262 25.8999L363.702 24.7199L363.242 24.1099L363.582 23.7999L364.192 23.7199L364.332 23.7899L365.222 23.4099L366.322 23.5999L366.802 21.8599L366.532 21.0199L369.152 20.6299L369.862 19.4299L371.302 19.9299L371.422 20.5899L372.132 20.2299L372.272 18.9599L371.682 17.3299L372.432 16.4299L372.402 15.9399L373.522 16.1099L374.942 15.7599L375.922 16.0399L377.162 15.4899L377.602 16.0899L378.762 16.1299L381.622 15.6399L383.332 14.9799L384.152 14.2499L384.892 14.4299L385.102 13.9899L385.442 14.4199L385.822 13.8299L387.302 14.2299L386.942 14.0999L387.872 12.9999L390.782 12.6899L391.502 12.0899L392.242 12.2099L392.182 12.7299L392.812 13.1199L391.752 13.3599L390.852 14.0699L390.842 14.4699L391.492 14.6999L391.382 15.5499L391.632 15.0099L391.752 15.2799L392.382 14.8799L392.032 14.4699L392.402 14.4299L392.542 13.8399L393.272 13.7699L392.602 13.4199L393.612 13.4599L393.952 12.9099L394.872 12.8499L396.032 11.9799L396.882 12.0399L397.612 11.4399ZM383.362 37.0399L383.402 36.9899H383.422L383.782 37.1699L383.892 37.9499L383.552 38.1899L383.282 37.3699L383.362 37.0399ZM381.812 37.1599L381.962 37.3199L381.932 37.4899L381.632 37.6099L381.442 37.3499L381.402 37.2499L381.422 37.1599L381.522 37.1199L381.812 37.1599Z" fill="#CCCCCC" stroke="white" stroke-width="0.5"/>
<path d="M415.21 45.04L415.54 45.45L415.03 45.25L415.21 45.04ZM413.8 45.18L413.61 45.28L413.64 45.11L413.71 45L413.69 44.87L413.68 44.83L413.95 44.8L413.93 45L413.8 45.18ZM418.26 38.56L418.34 38.51L420.84 38.22L423.23 39.27L424.33 39.08L424.71 39.81L425.54 39.36L425.12 40.79L424.72 41.26L424.42 41.12L424.18 41.81L425.05 42.85L426.53 42.28L426.68 43.67L425.84 43.94L425.67 43.55L423.46 43.62L422.83 42.71L421.6 42.65L421.22 43.09L419.88 42.94L419.4 41.76L418.33 41.38L417.11 40.24L417.93 38.7L418.09 38.23L418.19 38.4L418.26 38.56ZM381.6 37.15L381.81 37.17L381.9 37.21L381.96 37.32L381.93 37.49L381.63 37.61L381.44 37.35L381.4 37.25L381.42 37.16L381.52 37.12L381.6 37.15ZM383.62 37.09L383.79 37.17L383.9 37.95L383.56 38.19L383.29 37.37L383.41 36.99H383.43L383.62 37.09ZM309.5 33.71L310.89 34.29L310.84 34.89L311.2 34.93L312.22 33.63L313.17 33.43L315.25 33.33L317.11 33.77L317.99 33.22L318.58 33.52L318.93 33.01L320.08 32.77L320.09 31.91L319.05 31.78L318.92 30.85L319.1 30.84L319.8 31.21L320.04 30.79L320.42 30.95L320.75 29.85L321.25 29.74L321.14 29.09L321.78 28.97L322.17 28.31L322.91 28.81L323.02 29.33L323.87 29.51L324.17 29.17L324.72 29.88L325.73 30.14L326.08 28.77L327.11 28.75L328.19 29.77L329.27 29.33L329.74 27.7L331.38 28.45L332.64 28.08L333.11 29.77L334.29 30.78L335.01 30.74L334.93 31.24L335.69 31.22L336.23 31.87L337.22 31.84L338.38 31.59L338.3 30.99L339.37 28.93L340.39 28.36L341.9 29.22L345.75 29.71L346.13 28.46L348.54 28.66L348.73 27.29L349.15 26.98L349.83 27L350.35 27.58L353.49 27.22L353.57 27.04L355.18 26.25L355.39 26.67L356.43 26.71L357.15 23.79L358.61 23.66L359.28 24.07L360.15 22.68L361.59 21.71L362.74 22.1L363.57 23.74L363.23 24.05L363.69 24.66L363.25 25.84L363.76 26.72L365.55 27.72L365.56 28.43L366.19 28.45L366.33 29.73L367.77 29.53L368.98 29.87L369.86 29.17L371.14 29.78L372.17 28.77L373.33 29.03L373.74 28.21L375.44 29.22L376.9 31.49L379.85 32.14L379.91 33.63L380.31 33.85L380.24 35.83L380.91 36.28L382.27 35.3L382.88 35.81L382.6 36.71L381.99 36.52L381.32 37.13L381.36 37.55L382.27 38.31L383.63 38.24L384.11 39.33L385.07 39.17L384.99 38.58L385.55 38.3L385.42 37.88L385.88 37.65L385.74 37.2L386.16 36.76L386.32 39.06H386.78L386.9 39.44L388.18 38.88L388.73 39.09L389.21 37.74L390.03 38.4L391.15 37.94L391.32 36.65L390.74 35.01L389.99 34.65L389.76 36L388.66 35.67L388.7 35.46L389.11 34.91L388.41 34.61L389.24 34.62L388.78 33.78L389.99 34.26L390.96 33.17L389.96 32.18L388.18 34.24L388.25 33.67L387.08 33.8L386.63 32.97L387.62 30.44L388.58 29.93L389.24 28.95L390.39 28.96L390.23 27.14L390.94 27.49H392.73L393.06 26.74L394.38 26.17L394.95 25.33L394.97 25.16L395.88 23.77L396.92 24.21L397.15 24.89L397.97 24.8L400.19 25.51L402.2 25.5L406.66 23.11L407.51 24.09L408.99 23.87L409.64 24.29L408.58 26.11L409.36 26.64L409.65 26.44L409.85 26.9L409.23 27.76L409.68 28.02L409.66 29.42L408.71 29.71L409.56 30.26L411.83 30.41L412.5 31.21L412.37 31.61L414.05 32.79L412.98 33.9L411.01 34.23L409.47 33.54L409.53 32.94L407.38 32.37L405.73 34.88L407.65 36.93L407.91 36.88L407.49 36.47L408.31 35.35L409.24 35.81L410.29 34.51L410.57 35.28L409.21 37.78L410.13 38.35L409.5 39.52L412.17 39.23L412.35 40.19L413.04 40.14V40.27L414.03 41.5L415.39 41.36L416.15 41.88L416.29 42.75L416.22 42.82L416.51 43.52L417.35 43.9L416.67 44.54L416.3 44.29L415.92 44.59L414.99 43.87L413.99 44L413.38 43.65L413.01 44.11L411.23 43.79L411.86 45.7L411.45 45.8L410.67 46.99L409.87 47.42L410.13 47.75L411.08 47.56L411.52 47.91L411.41 48.86L410.89 49.42L412.22 50.96L411.77 51.75L411.95 53.74L411.26 52.79L411.37 52.07L410.76 52.05L410.65 53.17L411.21 53.18L411.79 54.09L410.53 54.42L410.75 55.27L410.91 55.39L410.6 55.84L411.07 58.31L410.68 59.5L410 60.08L412.6 64.13L415.22 64.05L415.81 65.83V66.12L416.68 66.96L417.51 66.18L418.71 65.94L419.13 63.57L419.2 63.32L419.68 62.76L420.28 62.99L420.72 62.73L421.49 63.51L421.42 64.24L420.14 66.11L420.44 66.96L421.57 66.74L422.39 67.4L423.72 67.05L424.9 67.44L425.79 65.38L426.68 64.74L426.73 63.11L427.49 63.37L428.25 63.06L428.71 62.3L431.98 62L433.03 62.5L433.41 64.05L434.31 63.54L437.23 63.7L437.2 64.39L436.33 64.89L437.77 67.12L437.41 67.43L437.64 68.67L440.31 69.32L440.47 69.48L441.21 70.2L441.71 70.17L444.62 68.43L444.66 70.72L445.67 72.58L445.62 73.55L444.71 74.91L446.07 76.2L445.95 76.82L446.86 77.26L445.86 78.63L445.95 79.48L444.58 79.56L444.15 80.41L443.78 80.43L443.55 80.57L442.81 81.84L440.94 81.81L440.89 82.53L441.64 83.78L441.26 85.93L442.01 86.83L441.96 88.18L442.42 88.31L442.39 88.81L439.94 89.63L439.54 89.2L439.76 88.06L437.99 87.41L437.35 90.1L436.3 90.72L436.48 91.45L435.93 93.02L436.72 96.81L438.49 97.25L439.23 98.15L438.93 99.35L439.37 100.63L439.12 100.96L437.04 99.16L435.88 100.38L434.46 99.89L433.63 100.91L432.82 100.79L431.98 101.29L431.07 100.25L429.39 101.26L429.03 100.73L428.01 100.55L427.63 99.21L426.9 99.05L426.68 98.03L426.13 97.57L425.11 98.38L424.54 98L424.96 96.97L423.81 96.74L424.58 96.25L424.68 95.34L423.6 95.65L423.15 94.8L421.45 94.39L421.21 93.6L420.02 93.63L419.58 94.31L418.46 94.2L417.18 93.59L417.07 92.03L416.04 91.65L415.13 92.12L414.84 92.89L412.99 93.02L411.82 93.56L408.41 92.49L407.14 92.88L406.56 94.19L406.07 93.56L405.58 94.21L404.69 94.09L404.36 94.42L402.78 94.25L402.25 93.71L402.67 94.72L402.55 95.87L401.46 95.81L400.87 96.93L399.77 97.41L399.52 97.64L399.46 97.69L399.15 97.59H398.84L397.48 97.77L396.33 98.59L395.1 100.48L393.39 101.53L392.29 103.41L389.23 104.64L388.44 106.02L388 106.11L386.88 111.11L385.54 111.32L384.39 110.9L383.66 112.49L381.92 114.63L381.29 114.32L380.88 114.43L379.44 114.66L378.84 115.12L378.42 114.97L377.64 115.48L377.59 116.08L377.21 116.46L378.39 116.78L378.72 117.66L378.42 119.03L377.55 119.53L377.39 120.07L377.71 122.54L377.03 123.57L377.54 124.5L374.82 124.65L374.26 125.38L374.36 126.69L373.76 127.02L373.93 127.78L372.67 128L371.99 126.97L371.45 127.06L371.93 128.8L370.85 130.03L371.09 131.26L370.57 131.53L368.84 132.2L367.79 131.84L367.61 130.35L367.18 129.96L367.34 129.2L366.23 129.51L365.67 129.9L364.46 129.4L364.09 130.17L364.36 130.88L362.57 132.13L362.49 132.31L361.21 133.19L361.06 134.42L359.18 135.26L358.92 135.33L358.61 133.59L357.27 133.88L356.7 134.81L356.41 134.7L355.29 135.95L354.49 136.16L353.64 136.28L353.37 135.44L352 135.32L351.82 135.28L350.78 135.39L350.18 135.21L349.99 135.13L349.11 133.43L349.06 131.52L349.79 129.88L347.48 130.24L346.31 131.77L345.61 132.11H344.17L343.95 132.04L343.62 131.83L343.21 131.62L342.42 131.45L342.22 130.45L341.44 130.3L341.23 129.59L340.33 128.82L339.06 128.75L338.33 129.23L337.59 129.02L337.3 128.64L337.79 127.74L337.1 126.41L334.81 127.82L334.12 129.28L332.56 128.78L332.28 128.59L331.54 128.06L331.41 127.88L331.47 127.14L329.09 126.55L329.69 126.26L329.59 125.78L329.94 125.5L329.63 125.35L330.12 125.17L329.59 124.8L329.46 124.75L328.44 124.27L328.77 123.56L327.99 123.77L327.63 122.98L325.65 121.94L322.45 123.8L322.07 124.19L321.89 124.9L320.56 125.04L319.94 126.02L319.28 125.98L317.06 127.1L316.6 127.87L316.76 128.91L315.94 129.64L313.85 129.85L313.11 130.61L312.4 129.65L311.35 130.7L310.58 130.36H310.1L310 130.62L309.24 130.44L308.37 129.7L308.48 128.6L310.37 127.44L310.66 126.23L309.17 124.63L308.86 123.22L310.25 120.98L310.11 119.61L308.98 118.95L310.29 115.69L309.33 112.38L309.72 110.49L309.45 109.16L310.14 109.03V108.51L309.92 107.71L308.87 107.03L308.57 105.29L306.87 103.42L306.58 102.49L307.03 102.16L308.52 102.57L309.92 102.22L311.34 99.9L310.97 98.77L312.88 96.99L313.09 96.01L314.24 94.65L315.57 94.76L315.83 94.37L316.29 94.95L317.7 93.63L317.98 94.02L318.49 93.89L318.87 93.59L318.62 93.07L319.74 92.74L320.6 91.02L321.63 90.61L321.2 90.25L321.28 89.69L321.87 89.38L322.32 89.91L323.26 89.61L322.83 88.75L323.83 87.92L323.58 87.32L326.69 82.83L326.32 82L325.53 81.67L323.83 79.75L319.83 78.82L319.45 79.41L318.31 79.81L316.96 78.75L317 77.36L316.47 76.61L317.9 72.09L316.4 71.55L317.08 69.81L315.95 68.57L315.08 69.51L312.94 69.78L311.53 69.45L310.89 67.9L310.14 67.69L309.32 69.4L306.22 69.37L305.83 68.53L305.18 68.33L305.03 67.55L305.76 66.38L305.39 65.37L304.47 65.46L303.82 64.59L304.62 64.2L305.05 62.83L306.02 62.56L306.25 60.98L307.43 60.35L307.84 59.45L308.98 59.01L310.24 59.72L310.3 59.16L310.16 58.86L311.78 56.49L311.93 54.21L311.03 53.93L310.64 53.38L309.57 53.21L308.99 52.56L309.01 52.48L309.67 51.72L309.48 50.8L309.89 50.28L309.47 49.32L308.62 49.56L306.58 48.32L305.75 48.44L305.35 49.32L303.64 48.85L303.14 48.81L302.59 48.78L303.04 47.99L302.87 47.11L303.71 45.98L303.33 45.52L303.37 44.31L304.52 43.75L303.48 41.84L304.39 40.79L305.43 40.72L305.78 39.65L306.45 40.14L308.31 38.42L308.26 37.89L309 37.1L308.21 35.24L309.21 34.95L309.03 34.04L309.5 33.71Z" fill="#CCCCCC" stroke="white" stroke-width="0.5"/>
<path d="M378.869 115.18L379.469 114.72L380.909 114.49L381.319 114.38L381.949 114.69L381.569 115.47L381.929 117.02L380.069 117.72L379.619 117.76L379.169 117.63L378.949 116.84L378.429 116.85L377.249 116.53L377.629 116.15L379.319 116.05L378.869 115.18ZM398.879 97.65H399.189L399.499 97.75L399.559 97.7L399.809 97.47L400.909 96.99L401.499 95.87L402.589 95.93L402.709 94.78L402.289 93.77L402.819 94.31L404.399 94.48L404.729 94.15L405.619 94.27L406.109 93.62L406.599 94.25L407.179 92.94L408.449 92.55L411.859 93.62L413.029 93.08L414.879 92.95L415.169 92.18L416.079 91.71L417.109 92.09L417.219 93.65L418.499 94.26L419.619 94.37L420.059 93.69L421.249 93.66L421.489 94.45L423.189 94.86L423.639 95.71L424.719 95.4L424.619 96.31L423.849 96.8L424.999 97.03L424.579 98.06L425.149 98.44L426.169 97.63L426.719 98.09L426.939 99.11L427.669 99.27L428.049 100.61L429.069 100.79L429.429 101.32L431.109 100.31L432.019 101.35L432.859 100.85L433.669 100.97L434.499 99.95L435.919 100.44L437.079 99.22L439.159 101.02L439.409 100.69L438.969 99.41L439.269 98.21L441.809 97.37L443.139 98.76L443.479 98.66L444.759 99.88L446.159 100.35L450.019 104.36L450.329 104.84L451.199 105.6L451.449 106.19L451.109 107.9L452.409 109.61L452.859 109.7L453.339 110.94L453.269 112.2L452.729 112.95L453.389 114.8L452.639 117.37L453.119 118.01L451.699 119.22L449.659 118.17L449.129 118.73L448.879 120.17L449.129 121.84L447.719 122.63L446.629 124.55L446.399 124.33L446.169 124.65L446.139 125.02L446.869 125.31L448.199 126.99L448.369 127.09L449.029 127.85L448.419 127.9L448.169 128.47L448.409 129.33L449.229 128.17L453.259 132.44L454.129 131.99L455.079 132.63L456.039 132.22L455.739 134.12L455.729 134.81L456.919 135.67L456.639 135.94L457.859 138.66L460.519 139L460.569 139.1L461.289 139.33L463.539 138.76L464.169 140.21L462.449 140.96L462.269 141.54L462.659 142.24L462.569 142.67L462.109 146.02L460.509 148.44L460.859 149.84L460.419 150.52L459.459 150.81L458.729 150.46L457.949 150.17L457.019 150.96L455.429 154.1L453.859 155.05L454.339 155.14L454.439 156.78L454.089 156.94L454.329 157.57L454.059 158.27L453.649 158.42L453.879 159.23L454.509 159.32L454.309 159.56H454.909L454.729 160.21H455.339L455.079 160.53L455.459 160.32L455.529 160.26L455.719 160.87L455.329 160.88L455.829 161.06L455.779 161.54L455.659 161.6L456.329 161.11L456.389 161.27L456.449 161.6L456.499 160.95L457.189 161.11L456.899 161.42L457.569 161.47V161.91L458.039 161.87L458.879 162.64L459.109 162.35L459.289 162.4L460.229 162.75H460.389L460.959 162.82L461.119 162.9L462.029 163.25L462.349 162.92L463.589 163.6L463.069 166.95L461.069 170.57L460.859 172.68L461.869 173.43L464.099 176.77L467.109 176.58L467.989 176.04L469.109 176.24L469.409 177.43L470.069 178.02L469.749 179.32L470.099 180.43L469.959 181.79L469.059 182.21L470.309 184.86L469.019 186.23L467.279 186.26L464.839 184.35L464.739 183.4L462.919 182.84L461.549 183.27L461.219 183.43L458.679 185.51L458.029 184.59L457.519 184.77L455.809 186.46L455.699 188.79L454.749 189.46L454.479 190.4L454.949 192.21L454.999 195.93L451.979 198.19L449.819 198.17L449.199 197.17L449.189 197.03L449.449 196.5L448.939 196L448.489 196.38L447.769 195.78L447.079 195.84L447.049 196.3L446.379 196.16L446.679 196.62L443.279 198.64L441.289 199.2L439.519 198.35L439.019 198.72L438.659 199.38L437.709 200.72L435.029 201.89L433.549 205.18L431.839 206.6L431.569 208.01L429.349 207.81L426.859 206.49H426.509L425.759 206.05L428.669 202.52L428.469 201.44L428.969 199.76L428.809 199.04L427.619 198.49L427.679 195.21L425.239 194.59L425.349 191.95L424.489 191.17H424.239L422.449 191.79L419.869 190.52L419.579 191.29L419.379 191.12L419.269 191.55L418.209 192.06V192.4L417.999 192.14L417.369 192.48L416.829 193.28L416.199 192.71L414.539 192.7L413.789 193.33L413.559 194.81L411.819 192.42L409.889 193.75L406.089 193.11L404.879 192.37L404.729 192.3L403.419 192.72L403.309 193.03L403.349 193.71L402.039 194.89L400.839 195.19L399.199 194.81L398.989 193.69L398.139 193.38L397.759 193.45L397.599 194.95L396.869 195.33L393.749 194.27L393.479 194.62L392.339 194.23L391.839 194.39L391.169 194.59L390.979 195.38L390.309 196.01L388.699 196.21L382.829 195.83L379.189 195.11L378.819 195.8L379.069 196.93L378.579 197.06L374.089 195.06L371.699 192.25L371.219 192.43L370.969 192L370.449 191.89L370.229 192.17L369.449 190.9L368.269 190.01L367.249 189.84L367.129 189.17L363.029 187.76L362.519 185.31L360.639 185.39L359.069 184.96L358.859 184.18L357.869 183.75L359.439 183.32L360.929 179.05L361.459 178.27L363.259 178.41L363.699 176.54L361.719 175.64L361.259 175.76L360.149 172.33L362.439 173.22L363.569 172.79L363.659 172.74L363.829 172.19L363.359 171.86L363.079 171.75L362.559 170.77L363.489 168.65H363.679L364.349 167.44L366.239 167.64L368.699 168.61L367.099 167.05L366.939 165.85L366.439 165.56L365.669 163.16L367.119 162.87L367.179 161.6L368.139 159.52L367.589 158.6L366.259 159.58L366.049 159.67L365.239 160.46L363.689 160.76L363.619 160.83L362.649 161.49L360.459 160.65L357.539 157.37L356.739 157.19L354.779 154.78L354.319 154.37L353.509 153.41L354.759 151.85L354.749 151.52L355.329 149.31L354.389 147.92L354.779 147.69L354.569 146.25L353.489 146.37L352.219 147.96L350.749 147.71L350.639 145.3L351.369 144.08L350.249 143.03L348.039 143.53L349.169 139.8L349.069 135.71L349.979 135.15L350.169 135.23L350.769 135.41L351.809 135.3L351.989 135.34L353.359 135.46L353.629 136.3L354.479 136.18L355.279 135.97L356.399 134.72L356.689 134.83L357.259 133.9L358.599 133.61L358.909 135.35L359.169 135.28L361.049 134.44L361.199 133.21L362.479 132.33L362.559 132.15L364.349 130.9L364.079 130.19L364.449 129.42L365.659 129.92L366.219 129.53L367.329 129.22L367.169 129.98L367.599 130.37L367.779 131.86L368.829 132.22L370.559 131.55L371.889 132.15L372.319 131.55L374.439 130.81L374.509 130.05L375.909 129L376.049 127.95L376.649 128.32L376.829 130.82L377.279 130.79L377.589 131.25L377.959 130.96L378.219 131.46L378.899 130.95L379.519 129.55L381.089 128.75L382.399 129.85L382.359 130.5L383.519 130.63L384.339 129.8L385.659 130.39L385.609 130.87L386.539 131.8L387.579 131.67L387.689 132.51L388.199 132L388.639 132.45H389.699L390.779 133.5L391.549 132.93L392.529 134.29L393.289 134.51L393.899 134L394.779 134.53L395.359 134.16L395.489 134.62L396.979 135.39L396.589 137.29L394.839 138.73L394.399 138.58L394.039 139.7L393.429 139.99L393.569 140.29L393.789 140.36L393.679 140.6L393.049 140.32L393.199 140.82L392.869 141.08L392.919 140.42L392.229 141.09L391.589 140.8L390.929 141.68L390.729 141.27L390.209 141.37L389.669 141.79L389.869 142.07L389.849 142.21L390.059 142.68L391.719 143.31L392.859 142.16L393.039 142.05L393.389 141.35L394.339 140.84L394.679 141.06L396.599 140.37L396.289 139.63L396.699 139.53L397.469 138.73L399.329 138.46L399.719 137.48L400.709 137.75L401.289 137.45L401.339 137.87L401.939 137.54L402.719 137.93L403.309 137.23L403.259 136.52L404.459 136.3L405.279 137.3L406.029 137.49L406.279 137.16L407.979 137.06L408.359 136.27H408.429L408.939 135.95L409.109 136.88L410.189 136.99L411.149 136.63L412.029 135.43L410.879 134.17L411.059 133.41L411.609 133.62L411.139 132.5L411.339 131.15L410.779 129.41L410.419 129.02L409.379 129.79L408.779 130.84L408.159 130.37L408.559 128.1L409.639 126.73L409.329 126.1L409.929 124.79L409.259 123.57L408.089 123.47L408.019 120.9L407.159 120L406.259 120.09L406.099 120.16L405.419 120.12L405.759 118.9L404.489 117.99L404.739 117.41L404.299 116.94L404.669 116.74L404.709 116.34L404.869 115.98L404.229 116.53L403.569 116.2L403.379 115.06L402.809 114.57L402.489 115.35L402.009 114.94L401.509 115.16L401.479 115.05L400.839 114.64L401.719 113.22L401.279 112.93L401.379 112V111.89L400.899 111.24L399.629 111.09L400.789 109.14L400.629 108.34L401.499 107.78L400.979 106.86L401.449 106.85L402.189 103.96L402.729 103.47L401.549 102L401.909 100.59L400.179 100.17L399.609 98.68L398.799 98.2L398.879 97.65Z" fill="#CCCCCC" stroke="white" stroke-width="0.5"/>
<path d="M7.39 537.26L8 537.51L8.53 538.63L7.68 539.69L7.34 540.87L6.53 541.25L5.96 543.69L5.1 543.38L3.99 542.07L1.41 541.74L1 541.39L1.16 540.14L1.7 539.69L3.16 540.21L4.36 539.93L5.66 538.76L5.54 538.09L7.39 537.26ZM75.58 527.11L76.08 527.57L75.91 528.58V527.75L75.63 528.69V528.16L75.31 528.39L75.81 529.61L75.57 530.84L76.83 532.37L76.99 532.93L76.54 533.67L77.23 534.67L76.52 534.93L76.27 536.02L76.51 537.01L75.71 537.38L75.35 538.62L72.01 539.81L71.45 540.73L70.67 540.81L69.05 540.12L68.65 540.35L65.59 537.75L64.33 535.43L64.6 532.24L65.59 532.01L67.38 530.52L68.02 528.04L67.69 527.56L68.4 527.43L68.83 527.79L69.63 527.37L70.62 528.22L72.65 527.89L74.29 528.77L75.08 528.42L74.96 527.55L75.58 527.11ZM25.12 526.05L25.5 525.97L25.95 526.5L27.26 526.52L27.59 527.14L29.34 527.98L29.76 528.72L29.82 529.83L27.96 531.59L27.14 531.93L25.2 531.87L23.86 530.84L23.82 530.3L23.07 529.62L23.17 527.96L23.82 526.57L25.12 526.05ZM39.03 521.11L40 521.09L41.43 520.3L43.35 520.54L44.78 519.76L45.87 519.74L48.07 517.67L48.59 516.46L49.35 515.85L50.62 515.57L50.98 514.88L53.7 515.28L55.47 514.58L56.17 514.8L56.51 515.47L56.36 516.32L53.37 517.71L52.91 518.68L49.96 521V523.24L48.21 526.39L48.17 528.1L44.9 531.88L43.57 531.75L42.26 532.53L40.7 532.51L40.43 531.21L39.71 530.92L39.73 530.01L38.58 528.95L37 526.29L36.89 524.52L35.37 522.44L34.61 522.15L34.81 521.55L37.11 520.57L37.77 521.07L39.03 521.11ZM117.1 509.36L118.65 510.72L119.03 514.43L118.46 517.16L117.8 517.88L118.21 520.57L117.05 522.71L117.01 523.83L116.46 524.91L115.72 525.61L114.57 525.64L113.88 526.28L108.25 527.59L105.17 531.3L101.26 530.28L100.36 530.64L100.81 529.26L101.08 529.57L102.18 529.55L104.18 529.02L108.11 526.14L108.68 522.62L109.8 521.33L110.22 519.16L111.66 517.73L113.26 514.47L113.14 513.72L113.96 511.87L113.74 510.65L117.1 509.36ZM119.37 509.07L119.27 509.84L118.84 509.9L118.65 509.43L119.37 509.07ZM7.79 506.28L9.22 507.03L10.55 506.63L11.41 506.79L12.15 508.89L12.87 509.81L11.61 511.85L12.17 513.46L11.91 515.11L9.69 518.74L8.95 518.11L8.62 516.04L7.38 514.31L5.89 510.3L5.17 509.33L5.22 508.5L6.26 507.17L7.79 506.28ZM128.73 494.82L129.87 495.39L129.97 496.14L129.74 497.07L128.76 497.89L129.21 499.14L128.71 500.13L128.74 501.29L128.17 502.08L126.78 502.81L126.49 503.34L125.15 503.45L123.9 504.37L121.38 504.75L119.98 506.86L119.6 506.24L117.65 506.35L117.41 505.38L118.83 504.07L118.72 502.19L119.22 500.82L120.87 499.44L122.14 499.4L123.68 498.06L124.17 498.29L125.03 497.67L126.5 498.2L127.12 497.48L127.89 495.08L128.59 494.47L128.73 494.82ZM127.59 492.85L128.54 493.68L127.67 494.89L126.6 495.06L127.59 492.85ZM127.67 488.96L128.14 489.37L127.62 489.93L127.01 489.94L127.18 489.1L127.67 488.96Z" fill="#CCCCCC" stroke="white" stroke-width="0.5"/>
<path d="M549.7 50.79L548.18 50.55L549.06 49.25L549.2 50.28L549.7 50.79ZM580.19 62.36L580.6 63.11L581.61 63.26L581.41 63.48L582.58 64.82L582.17 65.68L582.18 67.1L581.91 67.06L582.54 68.3L583.11 68.45L583.19 69.16L582.77 69.45L582.55 70.93L581.84 71.43L581.7 72.15L581 72.36L580.47 73.11L579.66 72.99L578.08 75.41L576.24 76.2L575.1 77.72L571.88 78.72L571.17 79.26L570.79 80.19L564.16 83.04L560.12 85.71L557.16 86.96L555.12 89.64L554.36 91.5L554.74 89.9L554.19 91.11L553.75 91.16L553.71 91.44L554.17 91.3L553.45 92.57L552.61 93.24L550.08 94.04L547.7 94.16L546.01 95.06L544.58 95.08L542.61 95.71L542.23 96.18L542.4 95.82L536.3 97.15L533.18 98.84L530.54 99.02L529.09 99.94L528.84 100.02L529.06 99.65L528.09 100.01L527.09 101.62L525.87 100.9L523.79 101.27L522.03 102.12L518.62 105.5L516.73 108.39L515.64 109.11L515.36 109.94L514.25 110.62L515.08 111.89L516.48 111.94L515.4 111.13L516.16 111.09L517.86 113.19L519.65 113.64L518.28 115.1L515.85 116.38L513.61 119.25L512.26 119.46L511.55 118.61L512 118.86L511.96 118.29L513.04 119.01L513.37 118.78L512.86 118.44L514.62 118.17L515.48 116.62L514.08 116.42L513.24 116.96L511.56 117.12L511.65 117.53L511.33 117.32L509.85 119.06L509.18 120.66L507.12 119.78L507.25 118.69L506.13 117.82L504.43 117.61L502.84 116.87L502.43 116.31L502.98 114.68L502.78 114.6L502.7 114.51L502.43 114.24L501.8 114.32H501.65L501.34 113.19L500.57 113.49L499.82 113.14L499.57 112.56L499.96 112.87L500.01 112.39L501.43 111.96L501.58 111.26L502.77 110.05L501.73 107.82L502.12 106.74L502.09 106.54L503.18 104.72L502.85 104.5L502.89 104.23L502.29 103.02L502.79 102.83L501.9 102.11L501.52 102.31L501.53 101.86L501.16 102.05L501.49 101.58L501.19 100.62L500.68 100.52V99.09L501.02 98.69L501.92 98.95L502.09 98.25L503.21 97.98L503.93 95.61L505.07 95.55L505.13 95.08L505.52 95.13L505.73 93.62L505.14 92.68L505.25 92.16L504.68 91.73L505.38 90.83L503.93 89.33L504.88 87.32L504.54 86.12L506.04 85.9L507.4 84.02L506.87 81.87L506.15 82.2L504.73 81.96L504.94 80.8L504.07 79.75L504.11 79.07L505.69 76.86L505.99 77.16L506.08 76.23L507.95 75.98L508.37 74.7L509.2 73.93L510.02 73.96L510.35 72.81L511.01 72.84L511.03 72.42L511.75 72.11L511.36 71.59L511.45 70.45L511.76 70.38L510.55 69.72L511.22 68.67L511.71 68.87L512.06 67.88L512.6 67.7L512.73 68.09L513.06 67.47V65.96L513.44 65.72L514.31 63.13L514.07 61.91L514.64 61.43L514.18 61.11L514.3 60.51L515.98 55.62L515.34 55.07L516.15 54.52L514.87 54L515.49 53.31L514.01 49.61L514.3 49.29L514.64 49.55L515.33 48.89L514.8 48.61L514.84 48.08L515.2 47.63L515.63 47.82L515.37 47.44L516.07 44.99L514.39 44.57L514.12 43.23L513.51 42.41L513.3 42.27L513.19 42.02H513.58L513.75 41.38L513.24 39.87L512.67 39.67L513.34 38.92L512.75 38.64L513.44 37.83L513.12 36.6L514.48 35.74L516.32 36.66L517.03 36.53L518.47 37L520.38 38.38L521.31 37.77L521.95 38.48L523.64 38.69L524.54 38.41L525.89 39.66L526.02 40.63L526.99 41.36L528.66 40.65L529.28 41.12L532.08 40.96L531.93 41.55L532.92 42.06L532.94 42.81L533.63 43.33L533.79 44.42L534.45 45.23L534.01 46L534.48 46.57L533.67 47.67L534.65 47.54L535.14 48.62L533.82 49.62L534.41 49.93L534.61 51.32L537.39 51.51L537.71 50.61L538.19 50.91L538.71 50.24L540.31 50.25L540.69 48.89L541.58 49.39L542.16 48.97L543.22 49.51L544.28 49.36L545.25 49.69L546.39 50.9L547.85 50.76L547.97 51.6L548.46 51.89L548.65 53.36L550.09 54.61L551.97 54.09L552.18 53.53L552.82 53.29L553.05 52.34L553.88 51.84L555.13 52.13L556.64 51.31L557.64 51.88L558.27 51.75L559.24 52.52L561.43 52.95L561.47 53.6L562.76 54.9L564.37 55.15L564.72 54.41L565.34 54.24L567.93 54.89L568 54.21L567.4 53.16L567.89 53.18L567.96 52.57L569.15 51.96L570.21 51.77L570.83 52.27L572.16 51.27L572.5 50.55L573.04 50.72L573.38 50.24L574.62 50.64L575.42 49.69L575.96 50.3L577.94 50.01L579.2 51.77L580.13 51.33L581.61 51.43L581.17 51.68L581.44 52.09L580.96 52.97L581.33 53.09L581.02 53.42L581.23 54.15L581.88 54.47L582.08 55.06L583 54.49L583.63 55.26L584.08 54.89L584.61 55.43L585.59 55.64L584.63 56.22L584.97 56.91L584.36 56.84L584.65 57.6L584.41 58.05L583.72 58.06L583.98 58.62L583.02 58.13L582.76 58.84L581.72 58.32L581.43 57.63L580.54 58.24L579.92 59.8L580.19 62.36Z" fill="#CCCCCC" stroke="white" stroke-width="0.5"/>
<path d="M308.348 129.71L309.218 130.46L309.978 130.63L310.078 130.38L310.568 130.37L311.338 130.71L312.388 129.66L313.098 130.62L313.828 129.85L315.928 129.64L316.748 128.91L316.588 127.87L317.058 127.1L319.268 125.98L319.938 126.02L320.558 125.04L321.888 124.9L322.068 124.19L322.448 123.8L325.638 121.93L327.618 122.97L327.978 123.77L328.758 123.56L328.428 124.27L329.448 124.75L329.568 124.8L330.108 125.17L329.608 125.35L329.928 125.51L329.568 125.79L329.678 126.27L329.078 126.55L331.458 127.15L331.398 127.89L331.518 128.07L332.258 128.6L332.538 128.79L334.098 129.29L334.788 127.84L337.088 126.43L337.778 127.76L337.288 128.66L337.578 129.04L338.308 129.25L339.038 128.77L340.308 128.84L341.208 129.61L341.418 130.32L342.198 130.47L342.398 131.47L343.188 131.64L343.598 131.85L343.928 132.06L344.138 132.13L345.588 132.12L346.288 131.78L347.458 130.25L349.768 129.89L349.038 131.53L349.088 133.44L349.968 135.14L349.058 135.7L349.168 139.79L348.038 143.51L350.248 143.01L351.378 144.05L350.648 145.28L350.758 147.69L352.228 147.94L353.498 146.35L354.568 146.23L354.778 147.66L354.388 147.89L355.328 149.28L354.748 151.49L354.758 151.83L353.508 153.39L354.318 154.35L354.778 154.76L356.738 157.17L357.528 157.35L360.448 160.63L362.648 161.47L363.618 160.82L363.678 160.75L365.238 160.45L366.038 159.66L366.258 159.57L367.578 158.59L368.138 159.51L367.178 161.59L367.118 162.86L365.668 163.16L366.438 165.55L366.938 165.84L367.098 167.05L368.698 168.61L366.238 167.64L364.348 167.44L363.668 168.64H363.488L362.558 170.76L363.078 171.75L363.358 171.86L363.828 172.19L363.658 172.74L363.568 172.79L362.438 173.22L360.148 172.33L361.248 175.75L361.708 175.63L363.688 176.53L363.248 178.4L361.448 178.27L360.928 179.04L359.438 183.31L357.868 183.74L356.468 184.51L354.118 184.15L354.588 185.49L354.548 185.57L354.078 185.63L354.088 186.16L353.758 185.89L353.648 186.24L353.428 185.86L353.278 186.49L353.038 186.23L352.158 187.34L351.188 187.83L350.668 188.47L350.758 188.98L349.058 188.8L348.448 189.83L348.668 190.33L348.198 190.07L347.808 190.74L347.918 191L346.068 192.25L345.938 192.97H344.978L344.258 193.43L343.248 195.08L343.218 195.64L343.958 196.35L343.518 197.63L344.818 199.9L344.778 201.9L344.678 201.96L344.328 202.61L344.478 203.38L343.448 203.82L343.258 204.46L341.848 204.23L339.908 206.17L339.138 205.94L338.948 204.55L340.188 203.76L339.918 203.22L340.228 203.06L340.488 203.42L340.448 202.69L339.318 202.16L338.528 202.72L337.838 202.55L337.348 202.93L335.938 203.03L335.228 203.59L335.148 204.38L333.908 205.31L333.828 205.89L334.398 206.61L333.688 207.34L333.198 209.12L330.538 209.03L328.758 209.49L326.978 211L326.418 210.26L325.388 210.36L325.028 209.95L323.628 209.7L323.008 209.07L322.868 209.02L322.138 208.39L321.858 207.24L320.618 206.92L319.598 207.02L319.838 207.33L319.108 207.92L319.268 208.52L318.948 208.73L317.008 207.98H316.688L316.028 208.18L315.908 206.84L315.478 206.32L314.788 205.59L314.228 205.86L312.288 205.52L311.558 205.82L310.938 205.55L310.908 205.12L309.858 205.13L310.288 202.85L308.918 202.89L306.598 201.85L306.448 201.37L305.888 201.43L305.458 201.9L305.218 201.65L304.348 201.89L303.888 202.59L302.858 202.49L302.408 203L300.948 201L300.518 199.36L300.058 199.23L297.308 195.36L297.108 194.4L296.118 193.72L295.618 193.85L296.638 192.54L295.928 192.43L296.448 190.2L298.068 187.42L297.308 186.91L297.638 183.95L298.998 183.18L301.188 180.83L302.098 180.71L302.958 179.44L303.728 179.08L303.898 178.54L303.408 177.55L306.018 173.47L305.768 172.45L305.038 171.07L303.828 170.27L301.798 170.88L300.968 170.57L300.718 170.1L301.068 168.4L298.848 167.6L298.148 166.91L297.928 165.55L298.368 164.6L296.338 162.61L295.898 161.03L296.538 159.82L296.668 158.2L295.238 157.23L294.788 157.45L294.348 157.13L294.088 155.74L293.028 155.58L292.018 154.08L291.158 153.67L290.408 151.32L290.008 151.04L292.298 151.12L295.588 151.87L297.878 150.95L300.688 151.43L301.308 151.07L302.898 151.26L304.298 150.8L305.388 147.22L305.138 145.82L306.018 145.41L307.208 144.02L307.288 141.88L307.738 141.49L307.868 139.91L308.438 138.78L306.368 135.35L304.728 135.02L303.898 132.6L304.408 131.18L305.648 130.79L305.998 130.08L307.148 130.2L308.348 129.71Z" fill="#CCCCCC" stroke="white" stroke-width="0.5"/>
<path d="M252.781 59.72L253.281 60.31L252.651 60.14L252.781 59.72ZM252.541 58.16L253.111 58.98L252.661 59.56L252.901 59.09L252.541 58.16ZM252.451 52.92L251.791 54.4L251.771 53.43L252.131 52.8L252.451 52.92ZM249.911 49.64L250.301 50.15L250.021 50.4L249.911 49.64ZM253.701 46.37L253.831 46.72L254.201 46.62L254.321 47.36L253.891 47.44L254.001 48.11L253.731 48.15L253.521 47.82L253.811 47.89L253.571 47.57L253.861 46.95L253.241 46.56L253.701 46.37ZM279.501 2.91L280.131 1.83L280.471 2.06L281.101 1.65L281.351 2.03L281.021 3.11L281.591 4.05L280.921 3.61L280.881 4.86L280.511 4.98L281.031 5.44L280.121 5.48L280.801 5.87L281.601 5.35L281.161 4.43L282.051 4.26L282.301 4.78L282.781 4.61L282.161 4.05L282.661 3.81L282.611 3.46L285.031 2.54L286.021 1.56L285.971 1L286.691 1.63L285.651 3.07L286.191 3.29L286.421 2.67L287.411 2.43L287.641 3.59L288.231 3.75L288.031 5.19L288.371 6.02L288.541 5.03L289.051 4.68L288.831 3.98L289.561 4.04L289.601 3.28L290.501 3.04L290.771 3.54L292.021 3.51L291.781 4.11L295.061 5.49L295.591 6.97L296.731 8.2L296.371 8.53L296.851 8.38L298.041 9.08L297.751 9.64L297.371 9.6L297.891 9.82L297.641 10.04L298.281 9.34L300.291 9.93L301.671 9.63L303.551 9.85L303.721 10.59L303.281 11.23L303.191 12.99L302.261 13.64L301.881 14.69L299.991 14.59L299.971 15.52L300.021 15.65L299.901 16.33L300.391 16.63L300.971 16.3L301.221 16.75L301.161 18.28L301.981 19.29L303.061 19.23L302.791 20.57L303.051 21.46L304.161 22.58L304.461 22.25L304.711 22.82L305.531 22.98L305.681 23.56L305.261 24.4L305.901 25.54L306.401 25.62L307.871 24.7L307.821 24.35L308.611 24.16L309.521 25.22L309.331 25.99L308.211 27.15H307.591L307.051 27.78L306.381 27.33L305.641 28.27L305.671 29.25L305.231 29.01L304.801 29.78L305.481 30.71L305.891 30.69L305.941 29.21L307.211 30.93L308.231 30.96L309.171 32.09L309.031 33.25L309.491 33.71L309.031 34.02L309.211 34.93L308.211 35.22L309.001 37.08L308.261 37.87L308.311 38.4L306.451 40.12L305.781 39.63L305.431 40.7L304.391 40.77L303.481 41.82L304.521 43.73L303.371 44.29L303.331 45.5L303.711 45.96L302.871 47.09L303.041 47.97L302.591 48.76L303.141 48.79L303.641 48.83L305.351 49.3L305.751 48.42L306.581 48.3L308.621 49.54L309.471 49.3L309.891 50.26L309.481 50.78L309.671 51.7L309.011 52.46L308.991 52.54L309.571 53.19L310.641 53.36L311.031 53.91L311.931 54.19L311.781 56.47L310.161 58.84L310.301 59.14L310.241 59.7L308.981 58.99L307.841 59.43L307.431 60.33L306.251 60.96L306.021 62.54L305.051 62.81L304.621 64.18L303.821 64.57L304.471 65.44L305.391 65.35L305.761 66.36L305.031 67.53L305.181 68.31L304.481 69.15L302.811 69.2L302.291 68.3L301.451 67.83L299.831 68.05L299.541 69.45L299.891 70.3L299.321 71.69L296.151 73.02L295.021 73.1L294.751 72.72L293.181 74.28L292.481 72.37L291.301 72.03L290.361 73.14L288.051 73.53L288.351 72.15L288.811 71.73L286.781 71.59L285.631 70.71L284.631 71.25L284.061 71.03L283.211 71.59L281.981 71.73L280.801 72.77L280.461 72.38L280.621 70.18L280.141 70L279.631 71.77L278.091 71.96L277.111 73.48L275.981 74L274.021 74.28L273.011 73.93L272.851 71.88L272.001 71.99L271.591 70.62L273.061 68.04L273.961 67.17L275.081 66.8L275.191 65.62L274.391 64.45L272.501 64.87L272.091 61.72L271.391 62.48L270.761 62.26L270.461 62.88L268.811 63.57L268.441 64.27L267.571 64.06L267.071 64.56L265.931 64.72L265.411 64.35L263.311 64.44L263.171 65.04L262.631 65.34L260.281 65.54L259.611 66.26L259.381 67.27L257.191 68.64L256.901 69.71L255.141 70.55L253.791 72.25L253.511 71.76L253.291 68.24L253.631 67.24L252.961 63.19L253.541 63.21L254.321 62.57L254.771 63.15L255.051 63.01L255.191 62.14L254.351 61.54L255.101 61.53L255.301 60.4L256.311 59.75L256.741 58.77L257.341 58.74L256.981 58.82L257.311 59L259.501 56.86L260.841 56.77L260.431 55.97L260.861 54.72L260.281 54.36L260.171 55.35L259.521 55.77L259.561 56.64L258.121 57.2L257.971 56.72L257.601 56.79L257.431 57.35L256.681 57.84L256.191 57.65L255.931 58.26L255.361 57.79L254.891 58.08L254.211 57.72L254.001 58.26L253.741 58.14L254.211 55.98L254.891 57.11L255.281 57.1L255.201 55.85L254.701 54.93H255.661L256.091 55.33L256.961 54.89L257.761 53.25L259.751 51.7L258.931 51.95L258.691 51.26L256.431 53.17L255.341 52.69L254.681 53.3L253.531 52.17L253.771 51.42L253.401 50.62L252.681 50.43L252.291 50.85L251.821 50.38L251.991 49.78L253.301 49.73L253.241 49.27L253.791 48.99L254.221 50.05L253.771 50.45L253.851 50.96L254.601 50.42L255.261 50.91L254.871 49.7L255.501 49.27L255.161 48.8L255.401 47.97L254.971 48.34L254.691 47.19L255.241 46.87L254.831 46.78L254.931 46.28L255.871 46.13L256.671 45.33L256.331 44.84L256.961 43.63L256.571 43.42L255.631 44.03L255.151 43.69L255.401 42.96L254.641 42.17L254.651 43.13L254.341 42.97L254.061 43.67L254.691 44.19L254.131 44.42L254.161 45.15L253.331 45L253.701 44.19L252.981 43.96L251.971 45.11L252.451 45.89L251.591 45.96L251.301 46.51L250.601 46.66L250.571 47.78L249.101 48.44L249.361 46.95L248.761 46.27L248.271 46.63L247.811 46.26L249.161 44.1L249.661 41.32H250.041L250.691 40.18L251.541 39.99L252.431 38.52L252.841 38.35L253.501 39.07L253.121 38.36L253.221 37.51L254.151 37L253.731 36.97L253.471 37.43L252.991 36.75L252.891 37.95L252.441 38.14L252.261 37.79L251.451 38.81L250.941 38.28L250.911 38.83L249.991 38.72L249.891 37.94L249.281 38.51L248.671 38.47L249.081 39.18L247.961 40.31L247.671 39.73L247.181 39.76L246.701 38.36L246.261 38.12L247.431 37.2L247.331 36.48L246.761 36.39L246.221 35.32L246.811 34.03L245.911 33.87L244.981 32.18L245.281 33.71L244.551 33.66L244.231 32.76L243.861 32.78L243.841 33.31L242.991 33.67L242.891 35.02L242.561 34.66L242.681 33.94L242.051 33.51L242.171 32.84L242.971 31.61V30.49L243.341 30.67L243.521 30.35L242.731 30.13L242.141 28.43L242.771 28.83L243.251 28.6L243.281 27.09L244.251 27.25L244.301 26.24L245.281 27.17L245.881 25.96L246.921 25.56L245.821 25.79L245.801 24.87L245.301 25.93L244.741 25.74L244.461 24.52L244.871 24.78L245.381 24.35L245.541 23.38L246.041 23.72L246.231 23.23L246.641 23.42L246.781 23.15L248.121 23.77L249.181 23.33L249.981 21.85L250.401 22.46L250.851 22L251.811 22.06L251.751 22.53L252.261 22.28L252.571 21.53H253.011L252.561 21.44L251.841 22.32L252.021 21.84L251.621 20.74L250.961 20.78L250.551 20.27L251.481 19.56L252.261 20.01L252.341 19.57L252.821 19.6L252.741 18.53L253.721 18.88L253.821 18.5L254.511 18.62L254.671 17.66L256.151 19.19L258.291 19.68L260.991 18.5L262.381 18.93L262.991 18.75L263.641 18.3L264.041 17.13L264.541 17.36L265.111 17.08L265.661 16.22L266.421 16.72L266.621 15.97L267.101 16.79L266.561 16.98L267.081 17.31L267.151 18.16L267.071 17.76L268.021 17.57L268.331 16.4L267.871 16.3L268.011 15.72L269.181 15.37L269.511 16.15L270.361 16.24L270.801 16.9L270.691 17.43L271.841 18.32L271.751 17.79L272.071 17.96L271.541 17.33L271.831 16.95L271.521 15.85L271.931 15.23L272.811 15.17L272.841 14.86L272.191 14.65L271.631 15L271.251 14.59L270.461 14.99L269.891 14.33L268.881 14L269.241 13.93L269.021 13.61L270.111 13.28L270.241 13.59L270.571 13.17L271.281 13.56L272.021 13.42L272.571 12.95L272.481 12.54L272.841 12.75L273.071 12.05L271.171 12.99L271.201 12.63L270.741 12.74L270.791 12.16L270.221 13.14L269.431 13.39L268.881 13.02L268.281 13.46L268.051 13.22L268.841 12L268.601 11.17L269.471 10.58L268.681 9.6L269.031 9.29L269.521 9.79L270.451 9.74L272.321 8.09L272.441 7.34L273.371 7.48L273.341 8.21L273.731 6.82L274.551 6.61L275.041 5.63L275.221 6.72L275.641 6.49L276.141 6.89L275.571 6.29H276.081L276.051 5.87L275.491 5.88L275.861 4.2L276.661 3.85L277.551 4.18L278.861 3.29L278.901 2.81L279.501 2.91Z" fill="#CCCCCC" stroke="white" stroke-width="0.5"/>
<path d="M444.638 68.53L441.728 70.27L441.228 70.3L440.488 69.58L440.328 69.42L437.658 68.77L437.428 67.53L437.788 67.22L436.348 64.99L437.218 64.49L437.248 63.8L434.328 63.64L433.428 64.15L433.048 62.6L431.998 62.1L428.728 62.4L428.268 63.16L427.508 63.47L426.748 63.21L426.698 64.84L425.808 65.48L424.918 67.54L423.738 67.15L422.408 67.5L421.588 66.84L420.458 67.06L420.158 66.21L421.438 64.34L421.508 63.61L420.738 62.83L420.298 63.09L419.698 62.86L419.218 63.42L419.148 63.67L418.738 66L417.538 66.24L416.708 67.02L415.838 66.18V65.89L415.248 64.11L412.628 64.19L410.028 60.14L410.708 59.56L411.098 58.37L410.628 55.9L410.938 55.45L410.778 55.33L410.558 54.48L411.818 54.15L411.238 53.24L410.678 53.23L410.788 52.11L411.398 52.13L411.288 52.85L411.978 53.8L411.798 51.81L412.248 51.02L410.918 49.48L411.438 48.92L411.548 47.97L411.108 47.62L410.158 47.81L409.898 47.48L410.698 47.05L411.478 45.86L411.888 45.76L411.258 43.85L413.038 44.17L413.408 43.71L414.018 44.06L415.018 43.93L415.948 44.65L416.328 44.35L416.698 44.6L417.378 43.96L417.788 44.29L417.808 45.05L418.438 44.93L418.398 45.7L417.838 46.05L417.918 46.45L418.438 46.98L418.548 46.5L418.878 46.64L419.508 46.08L419.918 44.53L420.578 44.54L422.148 45.53L421.878 47.54L421.518 48.41L422.288 48.08L422.258 48.68L422.858 48.92L423.128 49.66L424.258 48.93L424.538 50.06L425.218 49.27L426.268 49.65L426.088 49.21L426.848 48.33L426.718 49.41L427.738 49.56L428.508 49.18L429.248 49.44L429.848 50.05L431.128 50.36L431.318 50.85L431.688 50.76L431.588 50.34L431.818 50.23L432.618 50.64L432.638 50.26L432.918 50.34L433.108 50.7L433.278 51.09L434.218 51.26L434.158 51.64L434.908 51.89L434.868 52.17L435.668 52.09L436.088 52.48L436.548 52.09L437.718 52.03L437.548 52.78L438.558 53.91L438.318 54.71L438.848 54.83L440.228 53.89L440.838 54.11L441.538 54.49L441.668 55.15L442.288 55.14L442.578 55.62L442.928 55.41L443.038 56.4L444.278 56.84L444.218 58.17L444.708 58.26L444.798 57.92L445.618 58.31L445.778 59.04L448.418 59.62L448.818 60.37L449.418 60.36L448.868 61.07L449.398 61.85L448.828 62.25L448.378 62.51L447.268 61.86L446.588 62.32L445.468 61.79L443.618 64.27L443.248 65.24L443.438 66.27L444.668 67.25L444.908 67.08L444.638 68.53ZM413.578 45.25L413.628 45.11L413.698 45L413.678 44.87L413.668 44.83L413.938 44.8L413.918 45L413.788 45.16L413.598 45.26L413.578 45.25ZM415.038 45.21L415.208 45.05L415.538 45.46L415.028 45.26V45.21H415.038Z" fill="#CCCCCC" stroke="white" stroke-width="0.5"/>
<path d="M378.872 115.18L379.322 116.04L377.632 116.14L377.682 115.54L378.462 115.03L378.872 115.18ZM398.882 97.65L398.842 98.23L399.652 98.71L400.222 100.2L401.952 100.62L401.592 102.03L402.772 103.5L402.232 103.99L401.492 106.88L401.022 106.89L401.542 107.81L400.672 108.37L400.832 109.17L399.672 111.12L400.942 111.27L401.422 111.92V112.03L401.322 112.96L401.762 113.25L400.882 114.67L401.522 115.08L401.552 115.19L402.052 114.97L402.532 115.38L402.852 114.6L403.422 115.09L403.612 116.23L404.272 116.56L404.912 116.01L404.752 116.37L404.712 116.77L404.342 116.97L404.782 117.44L404.532 118.02L405.802 118.93L405.462 120.15L406.142 120.19L406.302 120.12L407.202 120.03L408.062 120.93L408.132 123.5L409.302 123.6L409.972 124.82L409.372 126.13L409.682 126.76L408.602 128.13L408.202 130.4L408.822 130.87L409.422 129.82L410.462 129.05L410.822 129.44L411.382 131.18L411.182 132.53L411.652 133.65L411.102 133.44L410.922 134.2L412.072 135.46L411.192 136.66L410.232 137.02L409.152 136.91L408.982 135.98L408.472 136.3H408.402L408.022 137.09L406.322 137.19L406.072 137.52L405.322 137.33L404.502 136.33L403.302 136.55L403.352 137.26L402.762 137.96L401.982 137.57L401.382 137.9L401.332 137.48L400.752 137.78L399.762 137.51L399.372 138.49L397.512 138.76L396.742 139.56L396.332 139.66L396.642 140.4L394.722 141.09L394.382 140.87L393.432 141.38L393.082 142.08L392.902 142.19L391.762 143.34L390.102 142.71L389.892 142.24L389.912 142.1L389.712 141.82L390.252 141.4L390.772 141.3L390.972 141.71L391.632 140.83L392.272 141.12L392.962 140.45L392.912 141.11L393.242 140.85L393.092 140.35L393.722 140.63L393.832 140.39L393.612 140.32L393.472 140.02L394.082 139.73L394.442 138.61L394.882 138.76L396.632 137.32L397.022 135.42L395.532 134.65L395.402 134.19L394.822 134.56L393.942 134.03L393.332 134.54L392.572 134.32L391.592 132.96L390.822 133.53L389.742 132.48H388.682L388.242 132.03L387.732 132.54L387.622 131.7L386.582 131.83L385.652 130.9L385.702 130.42L384.382 129.83L383.562 130.66L382.402 130.53L382.442 129.88L381.132 128.78L379.562 129.58L378.942 130.98L378.262 131.49L378.002 130.99L377.632 131.28L377.322 130.82L376.872 130.85L376.692 128.35L376.092 127.98L375.952 129.03L374.552 130.08L374.482 130.84L372.362 131.58L371.932 132.18L370.602 131.58L371.122 131.31L370.882 130.08L371.962 128.85L371.482 127.11L372.022 127.02L372.702 128.05L373.992 127.9L373.822 127.14L374.422 126.81L374.322 125.5L374.882 124.77L377.602 124.62L377.092 123.69L377.772 122.66L377.452 120.19L377.612 119.65L378.482 119.15L378.782 117.78L378.452 116.9L378.972 116.89L379.192 117.68L379.642 117.81L380.092 117.77L381.952 117.07L381.592 115.52L381.972 114.74L383.712 112.6L384.442 111.01L385.592 111.43L386.932 111.22L388.052 106.22L388.492 106.13L389.282 104.75L392.342 103.52L393.442 101.64L395.152 100.59L396.382 98.7L397.532 97.88L398.882 97.65Z" fill="#CCCCCC" stroke="white" stroke-width="0.5"/>
<path d="M475.178 217.69L474.978 218.87L475.548 220.92L474.848 218.99L475.178 217.69ZM474.948 216.62L474.888 217.22L475.408 217.68L474.868 217.27L474.658 216.67L474.948 216.62ZM431.508 208.06L431.778 206.65L433.488 205.23L434.968 201.94L437.648 200.77L438.598 199.43L438.958 198.77L439.458 198.4L441.228 199.25L443.218 198.69L446.618 196.67L446.318 196.21L446.988 196.35L447.018 195.89L447.708 195.83L448.428 196.43L448.878 196.05L449.388 196.55L449.128 197.08L449.138 197.22L449.758 198.22L451.918 198.24L454.938 195.98L454.888 192.26L454.418 190.45L454.688 189.51L455.638 188.84L455.748 186.51L457.458 184.82L457.968 184.64L458.618 185.56L461.158 183.48L461.488 183.32L462.858 182.89L464.678 183.45L464.778 184.4L467.218 186.31L467.908 189.16L467.258 190.91L467.578 191.83L465.428 193.86L465.828 194.07L465.638 197L468.538 197.33L469.138 198.85L468.538 201.7L467.198 203.9L467.368 205.45L470.558 211.52L472.528 213.61L473.828 214.27L474.398 214.19L474.778 216.14L473.798 215.17L473.268 216.58L472.158 217.54L471.718 218.52L473.378 220.72L475.078 221.63L475.668 220.84L476.088 221.54L476.488 221.5L475.588 222.59L473.928 222.99L472.908 223.68L472.228 223.34L471.358 223.57L470.208 224.41L469.038 224.18L468.918 223.91L469.488 223.83L468.688 223.64L468.428 223.22L468.688 222.9L468.168 222.79L468.308 223.47L467.758 223.33L467.348 223.77L465.978 223.39L464.988 223.93L464.528 224.5L464.968 225.11L463.458 224.87L463.308 224.24L462.428 223.59L461.288 223.5L460.978 224.15L459.068 223.98L457.048 225.88L455.448 226.58L454.708 228.77L453.818 228.48L452.658 229.4L451.738 229.55L450.868 230.43L447.908 228.11L445.858 227.74L445.898 228.36L444.918 227.64L440.838 221.04L440.658 220.85L440.358 219.21L440.828 218.29L440.458 216.64L440.828 214.35L441.398 213.56L441.198 213.3L441.028 213.31L440.538 213.1L440.098 213.49L438.988 212.98L438.388 213.33L437.318 212.39L436.008 212.8L433.818 211.1L432.568 208.87L431.508 208.06Z" fill="#CCCCCC" stroke="white" stroke-width="0.5"/>
<path d="M450.17 18.9799L450.98 19.16L450.8 20.0499L451.41 21.2099L452.28 21.29L452.82 20.2099L452.65 19.86L453.98 19.65L455.39 20.49L456.75 20.44L457.56 21.2099V23.54L457.03 23.9699L456.68 25.83L455.08 27.29L455.98 28.85L458.33 29.51L458.59 27.0499L459.26 26.36L460.59 26.17L459.53 27.99L460.79 28.94L462.12 28.62L464.01 29.66L464.08 30.26L464.84 29.67L465.75 30.5499L467.63 30.85L468.05 31.5L469.49 32.29L470.52 31.91L470.79 32.24L473.16 32.3799L474.64 31.75L475.3 32.59L475.12 32.99L475.47 33.5499L473.9 33.4799L472.96 34.1899L472.88 35.45L471.88 36.24L471.77 38L472.1 38.45L471.64 39.34L470.67 39.4199L470.66 40.06L470.05 40.0499L468.79 41.5299L467.25 41.6399L466.87 41.99L466.86 43.61L463.8 43.57L463.68 44.93L463.08 44.91L463.64 45.3699L462.46 46.16L462.42 47.2299H462.28L461.71 47.4799L460.75 46.95L460.11 48.1899L460.44 49.97L458.68 51.84L458.19 53.52L458.85 53.79L458.99 54.3899L457.1 56.68L457.3 57.34L456.6 59.31L457.28 60.75L457.09 62.74L457.97 63.47L458.36 64.6899L459.2 64.7099L459.48 64.68L459.64 65.7799L458.71 66.7099L457.52 68.91L457.61 69.4L456.85 70.3L454.34 70.15L454.02 70.4499L453.5 70.61L452.84 70.48L450.22 68.65L448.52 68.9599L447.09 67.57L445.22 67.5999L444.94 67.05L444.7 67.23L443.47 66.2399L443.28 65.22L443.64 64.24L445.5 61.77L446.61 62.2999L447.29 61.84L448.4 62.49L448.85 62.2299L449.42 61.83L448.89 61.0499L449.44 60.34H448.84L448.43 59.59L445.79 59.0099L445.63 58.2799L444.81 57.8899L444.72 58.22L444.23 58.13L444.29 56.81L443.05 56.3699L442.95 55.38L442.6 55.59L442.31 55.1199L441.7 55.13L441.56 54.4599L440.86 54.08L440.26 53.86L438.88 54.7999L438.35 54.68L438.6 53.88L437.58 52.75L437.75 52L436.58 52.06L436.12 52.45L435.7 52.06L434.9 52.15L434.93 51.8699L434.19 51.61L434.25 51.2299L433.3 51.06L433.13 50.68L432.95 50.32L432.66 50.24L432.64 50.6199L431.84 50.2099L431.6 50.32L431.71 50.74L431.34 50.83L431.15 50.3499L429.87 50.04L429.27 49.43L429.25 48.66L430.08 48.4L429.97 45.43L429.26 45.1399L428.46 46.54L428.17 45.82L427.42 45.8499L427.18 44.77L427.64 44.8899L428.48 43.65L429.46 43.07L430.33 43.29L430.63 43.7799L430.38 44.11L432.8 43.4599L432.89 42.8699L432.77 42.5099L432.3 42.7099L431.95 40.82L432.14 40.24L433.63 39.8899L433.14 38.47L434.43 36.47L434.17 34.79L433.95 34.47L434.27 34.4799L434.31 33.41L435.05 32.4599L435.85 32.99L437.3 32.8099L437.93 32.51L438.28 31.5599L439.69 31.3099L439.99 30.66L439.62 29.43L440.17 28.82L440.24 28.4799L440.39 27.87L442.16 26.9599L443.38 25.5499L442.9 24.9L443.07 22.24L443.94 22.86L444.1 21.99L444.5 22.7199L444.82 22.29L445.05 22.24L446.33 21.4599L446.38 20.32L446.68 19.9799L446.74 19.91L447.15 19.95L448.05 19.45L449.07 18.95L450.17 18.9799Z" fill="#CCCCCC" stroke="white" stroke-width="0.5"/>
<path d="M534.382 183.06L534.862 183.85L535.292 183.75L535.452 184.64L536.482 185.5L536.852 185.67L537.912 185.01L538.352 185.81L538.032 186.41L536.702 186.36L535.692 185.5L534.622 185.25L532.902 186.78L532.772 184.06L533.212 183.51L533.462 183.75L534.042 183.44L534.222 182.22L534.382 183.06ZM533.922 181.34L534.202 182.11L533.782 181.76L533.922 181.34ZM537.002 170.18L537.602 171.01L538.872 171.11L538.702 171.38L539.022 171.51L538.522 171.65L538.432 172.09L539.332 173.32L538.342 173.75L538.232 174.65L536.962 174.86L536.872 175.82L536.572 175.92L536.812 176.19L536.312 176.13L535.402 177.31L534.862 177.15L534.852 177.64L534.392 177.19L534.352 177.65L533.872 177.63L533.422 178.57L533.502 180.13L532.912 179.76L532.542 180.17L531.812 178.79L531.152 179.29L531.102 178.93L530.562 179.09V178.62L529.842 178.49L529.192 179.3L528.542 178.76L528.242 177.67L528.862 176.38L528.292 175.71L528.672 175.15L529.102 175.44L530.772 175.22L530.172 174.52L530.552 173.94L530.422 173.16L531.732 172.4L532.202 171.68L532.662 172.08L533.012 171.48L533.792 171.54L533.992 171.04L534.422 171.43L535.692 170.41L535.982 170.82L536.252 170.29L537.002 170.18ZM575.592 168.55L576.202 168.76L575.672 169.14L575.702 169.86L574.702 169.84L574.582 168.64L574.982 169.28L574.922 168.87L575.482 169.08L575.592 168.55ZM558.642 153.72L557.892 154.25L558.832 153.32L558.642 153.72ZM582.622 140.61L582.352 141.16L581.062 141.89L580.422 141.76L579.862 142.75L579.352 142.32L579.022 142.69L579.112 143.52L579.692 144.18L582.372 143.07L581.972 143.38L582.182 144.1L581.682 144.82L580.182 145.03L580.162 146.1L580.682 147.03L581.442 147.73L583.742 148.71L585.792 147.63L586.312 146.59L588.652 148.16L589.372 148.1L589.202 148.97L589.912 149.23L589.282 149.58L589.262 151.3L588.872 151.28L588.742 152.05L587.952 151.97L587.572 152.5L587.352 153.62L587.842 153.99L587.152 154.13L586.862 154.98L585.882 155.43L586.102 155.57L584.662 157.27L584.312 159.79L583.972 159.44L584.142 159.77L583.302 161.4H582.992L583.192 161.6L581.952 162.01L581.502 162.88L580.832 162.76L578.802 164.9L578.192 165.02L577.192 163.47L576.442 163.26L576.532 162.48L575.692 161.63L574.912 161.57L574.472 162.01L573.662 161.53L572.362 161.46L572.182 161.85L571.582 161.47L571.052 161.62L569.792 160.07L569.932 158.84L569.252 157.63L569.972 156.41L567.832 154.62L566.862 154.67L567.112 154.45L566.822 154.41L566.572 155.06L567.022 154.91L566.812 155.21L566.102 154.98L565.672 155.71L564.282 155.96L564.492 156.4L564.122 156.62L563.832 158.29L562.952 157.77L562.562 158L562.642 157.12L562.022 156.62L562.662 156.2L561.912 155.53L561.022 156.02L561.112 155.52H560.652L560.162 156.11L560.172 155.64L559.482 155.7L560.212 155.19L559.732 155.27L559.032 154.55L559.302 153.13L562.182 151.45L564.002 149.7L564.742 149.74L565.582 149.16L566.492 147.76L567.672 147.18L567.832 146.49L568.172 146.26L568.492 146.56L568.662 145.86L570.722 144.84L570.802 144.29L572.632 144.1L572.872 143.62L575.092 142.6L575.492 142.01L576.382 142.42L578.012 141.4L577.902 141.67L578.522 141.57L578.492 142.03L579.382 141.48L580.102 141.61L581.342 140.63L581.752 140.59L581.572 140.93L582.622 140.61ZM608.632 144.5L605.042 142.14L602.982 141.35L601.352 141.91L599.292 141.93L599.562 139.13L598.602 139.24L598.412 138.47L599.262 137.37L600.472 137.14L601.322 137.08L601.952 137.57L602.282 136.97L603.502 137.39L604.942 136.88L605.522 137.36L606.482 136.77L606.282 136.05L606.752 136.16L606.582 137.09L606.882 137.62L607.692 136.96L607.522 138.27L607.892 137.97L607.792 136.84L608.762 137.06L608.442 137.98L609.012 138.42L609.372 138.06L609.652 139.44L609.702 138.74L610.042 139.31H611.402L611.012 139.45L611.322 139.83L611.002 140.46L611.402 140.63L611.282 141.09L611.692 140.92L611.832 142.29L612.442 142.78L612.502 143.42L612.962 143.56L612.502 143.78L612.112 143.05L611.062 142.87L612.122 143.39L612.422 143.96L612.322 145.13L611.472 145.95L609.722 145.39L608.632 144.5Z" fill="#CCCCCC" stroke="white" stroke-width="0.5"/>
<path d="M419.438 13.92L420.338 13.55L420.658 14.55L421.948 15.42L423.178 15.05L423.958 15.96L424.408 15.85L424.878 16.32L425.468 16L425.818 16.63L426.898 16.51L428.208 18.03L431.088 19.41L433.048 19.54L434.538 18.94L435.138 19.2L435.228 18.91L435.578 19.62L436.478 19.9L439.918 18.61L440.988 18.81L440.938 18.44L441.798 17.97L443.038 18.03L444.878 16.43L446.458 15.83L446.688 17.06L445.998 17.48L447.328 17.76L447.898 18.26L448.058 19.42L447.158 19.92L446.748 19.88L446.688 19.94L446.388 20.28L446.338 21.43L445.058 22.21L444.828 22.26L444.508 22.68L444.108 21.96L443.948 22.82L443.078 22.21L442.908 24.87L443.388 25.52L442.168 26.92L440.398 27.83L440.258 28.44L440.188 28.78L439.638 29.38L440.008 30.6101L439.718 31.26L438.298 31.51L437.948 32.4501L437.318 32.75L435.868 32.93L435.068 32.4L434.318 33.35L434.278 34.42L433.948 34.41L434.168 34.73L434.428 36.41L433.138 38.41L433.628 39.8301L432.138 40.18L431.948 40.76L432.288 42.66L432.758 42.4501L432.888 42.8101L432.798 43.4001L430.378 44.05L430.638 43.7201L430.328 43.23L429.468 43.01L428.488 43.59L427.648 44.84L427.188 44.71L427.428 45.8L428.178 45.7701L428.468 46.4901L429.268 45.09L429.978 45.37L430.088 48.35L429.258 48.6101L429.278 49.37L428.538 49.1101L427.768 49.4901L426.748 49.34L426.878 48.26L426.118 49.14L426.298 49.5801L425.248 49.2001L424.568 49.9901L424.288 48.8601L423.158 49.59L422.888 48.85L422.288 48.6101L422.318 48.01L421.548 48.34L421.908 47.4701L422.178 45.46L420.608 44.4701L419.948 44.46L419.538 46.01L418.908 46.57L418.578 46.43L418.468 46.91L417.948 46.3801L417.868 45.98L418.428 45.6301L418.468 44.8601L417.838 44.98L417.818 44.2201L417.408 43.89L416.568 43.51L416.278 42.8101L416.348 42.7401L416.208 41.87L415.448 41.35L414.088 41.4901L413.098 40.26V40.1301L412.408 40.18L412.228 39.2201L409.558 39.51L410.188 38.34L409.268 37.7701L410.628 35.2701L410.348 34.5L409.298 35.8L408.368 35.34L407.548 36.46L407.968 36.87L407.708 36.92L405.788 34.87L407.438 32.3601L409.588 32.93L409.528 33.53L411.068 34.2201L413.038 33.89L414.108 32.78L412.428 31.6L412.558 31.2001L411.888 30.4L409.618 30.25L408.768 29.7001L409.718 29.41L409.738 28.01L409.288 27.75L409.908 26.89L409.708 26.43L409.418 26.63L408.638 26.1L409.698 24.28L409.048 23.86L407.568 24.08L406.718 23.1L402.258 25.49L401.798 22.69L401.618 22.41L401.398 21.7L402.788 21.32L403.208 20.43L404.398 20.14L404.598 19.3L404.848 19.6L405.598 19.31L406.028 19.7L407.488 19L407.908 19.93L408.408 19.38L409.318 19.26L409.428 17.32L410.128 17.26L410.448 17.69L410.638 16.95H410.958L412.338 17.86L412.728 17.58L412.428 17.85L413.068 18.35L413.238 17.5L412.618 16.55L413.498 16.22L414.428 15.1L415.068 15.11L415.058 14.24L418.798 14.45L419.438 13.92ZM405.828 23.15L405.228 21.13L406.318 20.62L406.788 20.88L406.248 21.93L406.278 22.98L405.828 23.15ZM418.008 38.18L418.078 38.2001L418.178 38.37L418.338 38.51L420.838 38.2201L423.228 39.2701L424.328 39.0801L424.708 39.8101L425.538 39.3601L425.118 40.7901L424.718 41.26L424.418 41.12L424.178 41.8101L425.048 42.85L426.528 42.28L426.678 43.67L425.838 43.94L425.668 43.55L423.458 43.62L422.828 42.71L421.598 42.6501L421.218 43.09L419.878 42.94L419.398 41.76L418.328 41.3801L417.108 40.2401L417.928 38.7001L418.008 38.18Z" fill="#CCCCCC" stroke="white" stroke-width="0.5"/>
<path d="M455.711 134.14L456.991 134.32L457.301 134.5L457.781 134.3L458.401 134.6L458.891 134.17L459.341 133.97L459.331 132.19L459.871 131.73L459.901 132.05L460.071 132.48L460.501 133.53L461.311 134.03L461.321 135.05L463.961 135.18L465.881 136.72L466.051 137.41L465.721 137.88L463.501 138.79L461.251 139.36L460.531 139.13L460.481 139.03L457.821 138.69L456.601 135.97L456.881 135.7L455.691 134.84L455.711 134.14ZM464.131 140.24L464.611 140.57L464.821 140.2L465.471 140.35L466.021 139.96L468.291 139.89L469.801 140.74L470.121 140.46L470.561 141.35L470.321 142.11L470.661 143.09L470.361 143.72L471.511 144.59L473.541 143.39L472.411 141.88L472.471 140L473.931 139.41L474.661 137.56L476.621 137.63L477.991 136.57L478.431 136.7L478.071 135.54L478.571 134.72L479.401 134.33L480.361 130.27L481.741 131.11L483.551 130.56L484.731 129.85L484.261 128.77L484.561 128.36L485.191 128.39L485.931 127.15L487.511 126.24L487.361 125.45L485.731 123.49L486.081 122.95L487.761 122.28L487.641 121.47L486.991 120.91L487.181 117.5L486.351 117.75L485.111 117.37L484.851 115.5L486.181 115L486.791 115.69L488.721 114.6L488.881 112.83L489.811 111.29L491.221 111.24L491.251 111.86L492.221 112.72L493.451 113.3L494.541 113.21L495.081 113.18L495.621 113.36L495.631 113.47L495.951 114.47L496.271 114.59L498.111 113.32L499.171 113.6L499.791 113.08L500.541 113.43L501.311 113.13L501.621 114.26H501.771L502.401 114.18L502.671 114.45L502.751 114.54L502.951 114.62L502.401 116.25L502.811 116.81L504.401 117.55L506.101 117.76L507.221 118.63L507.091 119.72L509.151 120.6L508.141 122.89L508.091 122.62L506.551 124.98L506.301 126.5L504.051 129.4L502.991 130.21L502.421 131.79L500.451 133.05L499.131 136.35L496.481 138.09L494.991 142.23L493.381 144.18L492.891 144.22L490.231 148.62L489.411 151.43L488.011 153L486.451 156.42L486.501 158.56L486.121 158.27L486.461 158.85L486.011 159.06L486.851 162.73L489.281 167.81L488.661 168.24L488.721 169.33L490.821 174.52L494.591 178.66L498.551 179.54L498.121 179.68L498.311 179.98L498.451 179.69V180.08L500.531 181.13L500.131 181.52L500.351 182.2L500.871 182.68L501.251 182.53L501.521 183.5L500.121 184.05L499.231 185.43L498.671 185.22L497.821 185.7L497.151 186.64L497.401 187.14L496.471 186.78L495.941 187.34L495.061 187.17L494.341 187.6L493.401 188.98L493.751 189.54L492.481 190.87L491.011 190.48L490.421 191.16L487.321 192.14L484.911 193.72L484.131 195.06L484.141 196.85L482.981 196.51L481.791 197.75L482.051 197.17L481.441 197.46L481.021 199.26L481.311 201.95L480.911 202.43L479.001 202.47L478.411 203.07L477.661 205.53L477.541 208.93L476.991 209.82L476.101 210.12L475.511 212.03L474.671 212.5L474.361 214.22L473.791 214.3L472.491 213.64L470.521 211.55L467.331 205.48L467.161 203.93L468.501 201.73L469.101 198.88L468.501 197.36L465.601 197.03L465.791 194.1L465.391 193.89L467.541 191.86L467.221 190.94L467.871 189.19L467.181 186.34L468.921 186.31L470.211 184.94L468.961 182.29L469.861 181.87L470.001 180.51L469.651 179.4L469.971 178.1L469.311 177.51L469.011 176.32L467.891 176.12L467.011 176.66L464.001 176.85L461.771 173.51L460.761 172.76L460.971 170.65L462.971 167.03L463.491 163.68L462.251 163L461.931 163.33L461.021 162.98L460.861 162.9L460.291 162.83H460.131L459.191 162.48L459.011 162.43L458.781 162.72L457.941 161.95L457.471 161.99V161.55L456.801 161.5L457.091 161.19L456.401 161.03L456.351 161.68L456.291 161.35L456.231 161.19L455.561 161.68L455.681 161.62L455.731 161.14L455.231 160.96L455.621 160.95L455.431 160.34L455.361 160.4L454.981 160.61L455.241 160.29H454.631L454.811 159.64H454.211L454.411 159.4L453.781 159.31L453.551 158.5L453.961 158.35L454.231 157.65L453.991 157.02L454.341 156.86L454.241 155.22L453.761 155.13L455.331 154.18L456.921 151.04L457.851 150.25L458.631 150.54L459.361 150.89L460.321 150.6L460.761 149.92L460.411 148.52L462.011 146.1L462.471 142.75L462.561 142.32L462.171 141.62L462.351 141.04L464.131 140.24Z" fill="#CCCCCC" stroke="white" stroke-width="0.5"/>
</svg>
