<svg width="794" height="573" viewBox="0 0 794 573" fill="none" xmlns="http://www.w3.org/2000/svg">
<path d="M630.171 212.43L632.151 213.09L633.641 212.76L634.561 212.33L635.701 212.35L637.241 212.09L639.461 211.19L640.731 211.16L641.861 211.37L641.171 212.84L641.891 216.64L643.061 221.16L642.871 225.2L641.561 227.31L637.301 230.01L636.451 231.97L635.781 234.2L635.001 236.1L633.401 237.05L632.231 237.53L631.581 238.49L631.691 239.57L632.341 240.95L634.071 241.46L635.811 241.09L637.561 241.29L639.571 243.91L640.831 247.23L644.311 250.4L645.261 251.93L645.981 255.71L647.221 258.33L647.171 261.35L647.311 262.88L650.151 266.76L650.711 268.51L651.921 269.11L653.331 268.9L655.051 267.84L657.101 267.44L658.371 268.17L659.221 271.7L660.311 273.74L660.991 275.5L661.231 277.28L661.001 279.32L659.991 280.14L658.511 280.52L655.321 280.27L652.461 280.55L650.961 281.25L648.531 284.14L646.821 287.46L646.321 289.88L646.691 291.48L647.631 292.37L649.501 293.4L649.941 294.19L650.641 298.07L651.651 300.42L651.871 301.56L651.601 307.32L651.981 308.86L653.171 312.97L654.891 314.92L656.621 318.45L657.031 320.36L656.821 321.47L656.271 322.06L654.951 322.08L654.411 322.53L654.421 323.16L655.291 324.05L657.651 325.17L660.701 327.05L664.791 327.63L665.741 328.27L666.601 329.21L668.071 332.02L669.051 333.04L674.671 334.13L678.751 332.73L682.061 333.53L683.921 333.7L684.531 333.48L685.221 332.69L683.841 330.72L683.741 330.13L684.011 328.8L687.641 323.74L688.271 322.47L688.261 321.04L688.011 319.47L688.221 318.08L689.501 316.29L690.491 315.81L694.261 315.53L696.501 315.98L699.111 317.84L700.091 317.78L701.101 317.18L701.831 317.01L703.351 317.87L706.141 318.38L711.941 317.5L712.401 317.68L714.151 317.56L715.841 317.82L718.171 318.66L718.531 319.11L721.771 320.85L723.391 320.84L725.131 320.49L726.681 320.9L728.561 320.84L729.371 321.42L730.681 323.34L731.801 324.56L732.971 324.99L736.131 324.98L737.511 326.03L739.101 326.71L741.271 326.93L742.591 327.6L743.911 329.07L747.481 331.4L748.511 332.65L749.511 334.38L750.231 334.84L754.141 334.04L755.311 334.03L756.521 334.38L758.101 335.9L759.521 339.09L760.571 339.81L762.441 339.67L763.201 338.82L763.491 338.17L764.561 337.16L764.891 337.2L765.411 337.94L765.391 339.05L764.831 341.65L764.721 344.4L765.001 347.06L765.601 349.14L765.631 350.27L764.951 352.25L763.681 353.99L763.561 354.45L762.171 355.75L761.061 356.05L759.581 355.61L758.431 355.88L757.291 356.64L756.411 357.88L756.191 359.2L756.341 360.17L757.811 363.78L758.051 364.92L757.581 366.35L756.171 367.74L756.471 368.26L757.841 369.25L758.131 371.67L758.771 373.36L758.601 375.09L757.091 378.54L758.331 383.46L759.691 386.79L760.331 390.02L760.881 391.8L761.651 392.85L763.281 393.85L763.611 394.4L764.031 396.93L764.691 398.58L765.171 399.26L766.171 399.59L766.811 399.34L767.541 398.65L768.451 398.57L769.141 399.24L770.251 401.37L770.171 403.62L769.721 406.61L770.121 410.32L770.001 411.81L769.621 412.9L769.681 413.87L770.281 415.05L771.401 416.56L771.871 417.95L771.721 418.55L769.601 421.84L769.311 422.8L769.541 423.68L770.121 424.53L771.011 425.01L773.651 427.67L774.611 428.03L775.341 427.84L776.331 428.08L777.461 429.19L778.301 430.95L778.601 432.53L778.471 433.12L775.181 435.8L773.031 438.84L771.571 439.67L771.131 440.17L770.401 441.33L770.131 443.26L768.811 444.43L768.351 445.64L768.411 446.64L769.461 448.91L769.731 449.99L771.141 452.94L771.341 454.44L771.291 458.12L771.621 459.67L772.261 460.1L773.181 460.2L774.351 461.07L774.691 461.79L775.321 462.52L776.961 462.87L778.981 464.55L779.531 464.29L779.711 463.55L779.351 461.22L779.501 460.65L780.201 460.41L781.021 460.75L782.951 462.55L784.641 463.4L785.371 464.69L785.311 465.19L787.431 468.87L789.801 470.68L790.401 471.44L791.101 472.9L792.651 474.91L792.931 475.71L792.721 476.64L793.001 477.92L792.911 478.92L792.461 479.83L789.341 482.86L789.281 483.33L789.661 485.42L790.291 486.59L790.821 487.18L791.691 489.1L790.861 489.91L789.411 490.35L787.891 490.34L784.861 490.78L783.421 491.33L782.331 492.21L779.421 493.67L773.691 493.65L772.331 493.85L771.021 494.63L770.221 495.58L770.061 496.27L770.241 497.81L770.111 499.2L769.731 500.22L768.591 500.73H767.791L766.411 495.74L765.041 494.47L764.101 493.27L763.271 491.15L762.381 489.86L761.661 488.36L760.701 487.71L759.661 486.07L759.191 485.76L758.151 485.63L754.231 484.09L752.191 482.99L751.281 482.83L750.871 482.52L749.381 481.91L749.261 481.35L748.561 480.57L747.671 478.79L747.451 478.64L747.391 479.01L747.051 479.36L747.001 480.04L746.711 480.53L746.041 480.86L746.001 481.16L745.251 481.43L745.041 481.29L744.811 481.34L744.661 481.62L743.991 481.84L743.821 481.66L743.341 481.71L743.171 481.9L742.701 481.88L742.321 482.68L741.731 482.82L741.421 482.75L741.021 482.18L740.281 482.32L739.941 482.04L739.681 482.01L737.971 482.35L737.161 482.72L735.601 482.6L734.771 483.14L733.761 481.51L733.731 480.36L731.581 479.29L730.531 479.26L729.521 480.05L728.381 480.04L726.991 480.59L726.061 480.21L724.651 479.26L724.041 479.19L722.301 480.59L721.511 481.06L720.501 481.23L719.581 480.96L718.151 480.99L717.361 480.63L716.661 480.05L716.251 479.09L716.551 478.54L716.471 478.22L715.131 477L714.111 476.89L712.981 477L712.321 477.38L712.071 477.68L711.761 479.01L711.551 479.28L710.131 479.17L709.521 479.8L708.981 479.96L705.691 479.52L705.001 479.57L704.061 478.9L702.931 478.81L701.991 478.28L701.381 478.22L700.501 479.73L700.331 480.55L701.501 481.58L701.721 482.39L702.311 482.8L702.511 483.11L702.291 483.33L701.211 483.58L700.361 485.39L699.501 486.22L698.821 486.4L697.641 488L695.901 488.29L694.881 487.5L692.721 487.48L691.431 488.25L690.951 488.81L690.851 489.14L689.901 489.39L688.861 489.16L688.541 489.32L688.531 489.65L687.971 490.17L687.111 490.39L684.191 490.01L683.251 489.53L683.041 489.71L683.011 490L683.101 491.04L682.761 491.37L682.441 491.43L681.391 492.26L680.741 492.52L680.381 491.75L679.821 491.68L678.641 493.17L677.381 494.15L676.621 493.89L676.031 493.14L675.641 492.97L673.301 492.65L672.111 494.68L672.051 495.47L671.751 495.84L669.721 494.58L669.151 494.37L668.851 494.42L668.171 494.79L667.601 494.81L666.801 495.28L665.441 495.71L665.041 496.66L664.621 497.04L662.271 497.65L660.961 498.87L660.671 500.04L660.991 500.53L660.661 501.12L659.861 501.63L658.951 501.97L657.901 501.15L657.471 501.69L656.661 502.1L656.061 501.15L655.101 500.94L654.501 500.32L654.211 500.63L653.821 500.78L652.681 500.92L652.491 501.48L652.761 502.11L652.661 502.52L652.211 502.79L651.131 502.15L650.181 501.87L649.361 500.52L649.241 499.93L648.731 499.55L647.571 499.52L647.211 499.69L646.791 499.33L645.871 498.88L644.881 498.73L644.071 499.17L642.651 499L642.271 499.62L642.051 500.35L641.801 500.63L641.241 500.6L639.891 499.66L638.961 498.64L639.011 497.05L638.791 496.95L638.081 497.04L637.851 496.91L637.721 496.6L639.101 495.01L639.321 494.89L640.561 495.09L641.171 494.66L641.381 493.55L640.861 492.77L641.741 490.73H642.531L643.211 491.5L645.401 491.29L646.721 491.74L647.611 490.62L648.721 490.86L649.521 490.38L650.641 490.29L651.101 490.07L651.281 489.87L651.391 489.04L651.741 488.56L652.831 488.12L652.751 487.79L653.791 487.56L653.281 486.62L653.451 484.92L653.241 483.44L653.381 483.19L653.371 482.47L653.291 481.74L653.011 481.19V480.68L653.511 480.17L653.581 479.9L653.331 478.81L653.871 474.62L649.231 474.55L648.581 474.13L644.441 472.88L643.211 473.41L642.191 474.55L641.021 475.19L640.321 474.99L639.581 474.55L637.841 474.12L636.271 474.03L634.161 473.65L634.031 473.37L633.431 473.41L632.491 472.72L632.161 472.71L630.281 471.15L629.731 471.05L628.991 470.44L628.061 470.45L626.751 470.06L626.461 470.36L625.551 470.45L625.381 470.2L624.391 470.31L621.301 470.23L617.291 471.12L616.491 471.71L615.701 472.64L615.321 472.72L613.161 474.22L612.701 474.34L612.461 474.35L612.031 473.92L611.991 473.3L612.291 472.66L612.221 472.26L611.871 471.76L611.511 471.73L611.171 472.05L610.701 472.03L610.231 471.75L610.091 471.49L608.951 471.21L607.891 471.22L607.171 471.46L606.671 471.37L605.851 471.52L605.021 471.87L604.261 472.42L603.931 472.46L603.291 473.05L603.281 473.51L603.091 473.78L602.611 474.15L601.041 474.68L600.131 475.51L599.941 475.95L600.021 476.15L599.091 477.09L598.931 477.45L596.491 479.01L595.531 479.24L594.451 478.65L591.721 478.58L591.361 478.61L589.831 479.31L588.581 482.4L587.961 483.28L587.461 483.6L586.711 483.73L585.481 484.59L585.061 485.8L585.221 486.31L585.041 486.91L585.611 487.34L584.561 489.06L584.181 489.4L582.881 489.97L582.191 490.45L581.771 490.4L581.461 490.7L581.121 490.79L580.911 491.07L580.731 491L580.481 491.19L580.081 491.18L579.841 491.43L579.271 491.41L578.291 491.93L577.571 491.59L576.931 491.66L574.991 492.32L574.311 492.28L573.751 492.55L572.301 492.86L572.001 493.36L571.421 493.65L569.881 493.75L569.681 494.04L568.471 494.58L568.281 495.03L568.051 495.18L567.921 495.78L567.381 495.98L566.981 496.27L566.871 496.52L566.641 496.58L566.521 496.79L566.601 497.05L566.401 497.26L566.151 497.24L565.891 497.79L565.461 497.8L564.921 498.56L563.631 499.47L563.541 499.71L563.071 499.85L562.301 500.46L561.491 500.53L561.391 500.74L560.831 501.08L560.791 501.28H560.461L559.701 501.59L559.481 501.3L559.241 501.39L558.861 501.27L557.921 500.7L557.261 501.04L556.641 500.92L555.831 501.13L553.841 503.11L553.691 503.58L553.181 504.04L553.101 504.48L552.521 504.8L552.281 505.36L551.751 505.79L551.551 506.57L551.301 506.7L551.101 507.73L551.241 508.01L550.961 508.08L550.121 510.33L550.041 510.94L549.591 512.06L549.381 512.23L549.191 513.01L548.671 513.59L548.161 514.67L548.221 514.84L547.971 515.51L547.221 516.29L547.141 516.66L546.701 516.96L546.281 518.01L545.931 518.36L545.891 518.8L545.421 519.52L544.581 520.09L544.111 520.61L544.021 521.22L544.321 521.33L544.171 522.04L542.901 523.41L542.091 524.03L541.211 526.14L541.081 527.11L540.571 527.85L540.311 528.6L539.981 528.61L539.271 528.12L538.311 528.36L537.511 527.26L536.251 527.04L534.681 527.7L533.751 528.52L533.241 528.71L532.511 529.42L531.791 529.63L531.471 529.36L530.921 529.31L530.641 529.81L530.371 529.99L529.501 530.03L528.521 530.42L528.111 530.47L527.801 530.16L527.151 530.17L526.501 530.94L526.161 530.86L525.901 531.09L524.811 530.8L523.481 530.92L523.341 531.07L521.911 531.08L521.191 531.68L520.371 531.45L519.511 530.62L518.691 530.57L517.311 529.88L515.881 530.08L515.641 529.91L514.501 530.19L513.951 531.24L513.691 531.23L513.281 531.52L512.071 531.61L511.421 532.02L510.451 532.33L509.951 532.17L509.241 532.28L508.931 531.98L507.451 532.18L506.871 532.98L506.411 533.33L505.591 533.37L504.911 533.9L503.831 533.93L502.701 534.56L501.761 535.38L501.081 535.74L500.701 536.27L500.591 536.98L500.081 537.31L499.741 537.24L498.221 537.5L497.631 537.79L497.301 538.05L496.451 539.38L495.921 539.75L493.981 540.03L493.701 540.23L493.251 540.99L492.871 542.16L492.481 542.64L489.801 544.16L488.171 545.71L487.871 546.17L486.831 546.09L486.621 546.27L486.611 546.6L486.421 546.82L486.031 546.83L484.981 547.53L484.611 548.29L484.401 549.41L483.631 550.75L482.741 550.66L481.841 551.22L481.231 551.38L480.831 551.09L479.981 551.3L479.631 551.13L479.251 551.28L478.041 552.35L477.691 552.31L477.521 552.48L477.291 553.51L476.311 554.1L475.551 554.19L474.321 554.78L474.181 555.1L473.801 555.4L473.391 556.71L472.261 557.32L471.201 558.83L470.741 558.74L470.431 558.98L468.141 561.84L467.461 562.07L465.581 563.16L464.251 563.63L463.651 563.98L463.151 564.51L462.501 564.67L461.541 566.53L459.201 568.59L458.631 569.74L457.711 570.11L457.071 570.75L456.761 570.76L456.321 571.4L455.861 571.26L454.851 571.42L453.841 571.1L451.381 571.93L450.651 572.03L449.411 571.94L447.921 571.6L446.851 572L445.421 572.1L444.631 571.9L443.611 572.36L442.861 572.51L441.811 572.08L440.481 571.85L440.071 571.92L439.461 572.5L439.181 572.49L438.651 572.14L438.051 571.37L437.181 570.62L436.291 570.25L435.171 570.22L434.871 569.92L434.501 569.47L434.371 568.91L433.521 567.18L432.881 566.79L432.191 566L431.691 565.83L430.911 564.89L430.321 564.48L429.351 563.13L428.911 562.11L428.181 561.02L428.061 560.03L427.751 559.32L427.711 558.12L427.131 557.15L426.731 555.06L425.911 553.08L425.531 551.42L425.621 550.4L425.391 550L424.841 549.76L423.971 548.66L423.991 548.2L424.291 547.35L423.951 546.72L423.411 546.36L423.191 545.84L423.151 544.81L422.611 543.66L422.151 542.91L421.181 541.95L420.471 541.51L420.301 540.98L420.341 540.38L420.041 539.54L419.891 539.31L419.231 539.01L418.541 538.01L418.211 537.02L418.231 536.63L417.781 535.83L417.711 535.29L418.421 532.77L418.191 532.46L418.101 531.42L418.211 530.96L417.931 530.42L417.831 529.73L417.351 529.15L417.211 528.56L417.261 528.16L417.511 527.87L417.031 526.96L416.361 526.35L416.011 525.73L415.471 525.37L415.111 524.34L414.281 523.47L414.141 522.51L414.211 521.79L414.061 521.65L414.101 521.43L414.391 521.27L414.431 520.44L414.741 519.41L415.461 518.72L415.701 517.95L415.531 517.44L415.721 516.76L415.331 515.79L415.651 514.93L415.461 514.67L415.411 514.15L415.791 513.74L415.711 512.44L415.971 512.33L416.061 511.77L416.381 511.41L416.271 510.61L415.711 509.13L416.261 507.59L416.911 507.58L417.391 507.32L417.571 506.59L417.411 505.9L416.841 505.34L416.831 504.86L416.641 504.59L416.771 503.42L417.231 503.21L417.071 502.76L417.651 502.71L417.971 502.01L418.801 501.79L419.461 501.13L419.241 501.08L419.181 500.88L419.351 500.46L419.661 500.26L419.831 499.4L419.561 499.02L419.831 498.1L419.811 497.58L420.381 496.96L420.111 495.96L420.301 495.2L420.771 494.52L420.781 494.01L420.481 493.46L420.631 492.52L420.741 492.27L421.701 491.59L422.031 490.77L421.921 490.33L421.081 489.85L420.741 489.09L420.141 488.58L419.991 487.9L420.511 485.78L420.361 484.97L420.871 483.75L420.611 483.34L420.461 482.55L420.001 482.06L419.221 481.95L418.751 481.36L418.891 481.02L418.851 480.45L419.061 480.1L418.931 479.52L419.181 478.93L419.691 478.82L420.551 479.02L421.091 478.75L421.201 478.42L420.851 477.85L420.961 477.37L420.861 476.72L421.001 476.06L421.471 475.32L421.391 474.52L421.711 473.89L421.731 472.91L422.411 472.52L423.371 471.43L423.581 471.1L423.611 470.33L424.011 469.65L423.961 469.29L423.501 468.79L423.131 467.8L422.071 465.95L421.881 465.19L421.761 463.42L421.241 462.68L420.931 462.6L420.811 462.27L421.101 461.27L421.351 460.98L421.431 460.32L421.321 460.03L421.531 459.75V458.2L421.981 455.6L421.841 453.94L422.711 452.19L423.061 451.87L423.541 450.75L424.021 450.11L424.221 449.33L423.971 448.59L424.071 448.18L423.991 447.13L424.171 446.44L423.911 445.38L424.091 444.56L424.631 444.06L425.321 442.76L425.891 440.9L426.021 439.96L426.501 439.47L426.221 438.68L426.541 437.78L426.381 437.33L426.401 436.21L424.571 433.05L425.281 432.25L425.821 432.09L426.461 430.93L430.431 428.8L430.691 428.57L431.011 427.8L431.051 427.32L430.731 426.04L430.261 425.17L430.331 424.02L429.981 422.37L430.171 421.56L430.451 421.29L431.191 419.38L431.331 418.5L430.641 417.59L430.431 416.88L430.521 416.57L430.231 416.32L430.211 415.23L430.761 413.81L430.651 413.05L430.551 412.62L429.201 410.97L428.391 410.82L426.811 410.19L425.831 408.95L424.471 408.5L424.281 408.17L423.761 408.08L422.741 408.21L422.251 408.32L421.191 408.89L420.711 409.73L420.221 410.17L419.361 410.28L418.511 410.59L418.481 410.88L417.651 411.57L417.131 411.6L415.821 412.46L414.751 412.39L414.211 412.62L413.871 412.87L413.831 413.56L413.041 414.38L412.841 414.11L411.661 414.1L411.051 414.63L410.601 414.58L410.261 414.83L409.911 414.84L409.481 414.25L408.761 414.42L407.261 415.62L406.241 416.18L405.371 416.37L403.891 417.32L403.511 416.24L403.531 415.45L402.411 413.98L402.341 413.03L401.741 412.66L400.651 411.24L400.471 411.15L399.781 411.23L399.531 412.13L398.951 412.93L397.051 412.71L396.371 412.26L395.951 411.31L396.091 411.15L396.801 411.09L396.821 410.65L397.431 410.42L397.471 410.02L397.071 408.96L398.291 406.95L398.181 405.58L397.551 404.65L397.771 403.65L398.011 403.25L398.631 403.34L398.771 403.18L398.761 402.76L398.391 402.13V401.83L398.781 401.39L399.871 400.8L400.381 400.07L400.211 399.41L400.411 398.45L399.371 398.21L399.201 397.08L399.741 397L400.101 396.69L400.791 397.04L401.181 396.91L401.601 396.38L401.931 395.54L402.041 394.64L402.371 394.27L402.951 393.94L403.011 393.66L403.071 393.16L402.901 392.55L403.141 390.67L402.651 389.8L402.721 389.64L403.501 389.4L403.601 388.67L403.861 388.11L404.601 387.84L404.881 385.66L405.551 384.22L405.681 383.62L406.261 383.09L406.821 383.33L407.611 383.06L408.691 381.68L407.811 380.18L407.461 376.97L407.911 376.3L408.861 375.58L408.981 375.33L408.971 375.09L408.521 374.34L407.951 374.02L407.661 373.52L408.051 372.58L408.441 369.46L407.571 368.06L406.601 367.47L406.171 367.54L405.081 367.35L404.401 367.58L404.131 366.85L404.371 366.25L403.611 365.57L404.351 364.62L403.831 363.06L403.291 362.92L402.641 363.23L402.241 363.14L401.601 362.85L400.881 362.11L398.781 361.82L398.161 362.21L397.501 362.06L396.761 362.38L396.161 362.45L395.461 362.08L395.221 361.36L394.121 361L393.191 360.96L392.541 360.27L391.941 359.93L390.821 358.44L390.471 358.17L389.521 358.05L388.951 357.67L388.861 356.96L388.561 356.39L388.071 354.5L387.151 352.57L386.311 352.19L385.511 352.11L385.521 351.03L384.941 350.38L384.521 350.4L384.131 351.02L383.631 351.11L383.371 350.96L382.961 350.22L382.491 349.86L381.301 349.98L380.891 349.41L381.321 348.31L380.771 347.78L380.271 347.65L379.511 347.72L378.891 348.04L377.921 349.01L377.091 348.85L376.861 349.16L377.251 350.42L376.631 350.96L376.151 351.03L375.921 350.9L375.561 350.07L374.891 349.32V348L374.161 346.99L374.001 345.17L373.141 343.85L373.381 342.68L372.341 341.77L371.671 341.73L371.071 341.41L370.141 340.41L370.341 339.92L369.951 339.32L369.111 338.92L368.281 340.07L367.671 340.62L366.731 341.01L366.351 340.8L365.451 340.65L364.691 340.81L364.491 342.1L366.191 343.02L366.421 343.51L365.881 344.72L366.001 345.44L365.591 345.86L364.861 345.79L364.451 345.19L363.741 345.33L363.501 345.43V346.34L362.661 346.81L362.311 346.79L362.191 346.17L360.671 345.71L360.771 345.19L360.011 344.61L359.961 344.36L360.231 343.56L360.131 343.1L359.481 342.27L358.081 341.71L357.081 341.82L356.391 342.84L355.721 343L355.601 343.53L356.001 343.9L356.031 344.1L355.631 344.71L355.381 345.45L354.651 345.77L354.311 345.72L354.101 345.46L354.241 344.83L354.131 344.6L352.441 343.78L352.231 343.81L351.891 344.62L351.421 344.89L350.741 345L350.191 344.92L349.521 344.35L348.521 344.25L348.371 344.03L348.341 343.54L348.191 343.47L347.781 343.63L346.801 343.44L346.471 343.92L346.451 344.65L345.971 345.32L345.711 346.34L345.301 347.22L344.291 347.75L343.191 348.56L342.181 348.81L340.341 348.75L339.741 348.48L339.451 348.14L339.201 348.18L338.251 348.81L336.981 349.92L336.911 350.17L337.121 351.32L336.841 352.1L336.911 352.31L337.711 352.51L338.001 352.2L338.321 352.12L338.811 352.6L338.951 352.98L338.931 354.26L338.561 354.9L338.081 355.34L336.871 355.69L336.041 356.11L335.811 356.27L335.881 356.79L334.911 357.28L333.751 357.37L333.131 356.88L332.231 356.78L331.201 357.05L330.401 357.59L330.511 358.91L330.401 359.24L330.851 360.66L330.421 361.58L329.981 362.09L330.031 362.46L329.821 363.07L330.281 364.17L329.971 365.01L329.861 365.91L329.491 366.27L327.031 367.13L326.101 367.73L325.801 367.98L325.601 368.52L324.991 368.96L324.821 369.89L323.681 371.02L323.411 372.32L322.941 373.35L322.961 375.32L321.691 376.9L321.331 377.03L320.821 377.53L320.961 378.19L320.481 379.15L320.131 379.42L320.041 380.36L319.681 380.65L319.371 381.66L319.421 382.65L319.141 383.44L319.151 383.86L319.281 385.35L319.611 385.75L319.731 386.31L319.711 386.64L319.521 386.9L318.971 387.08L318.361 386.81L317.041 387.76L316.851 388.37L316.551 388.42L315.711 389.11L314.231 389.24L313.501 389.74L312.951 389.37L312.141 389.67L310.901 391.11L310.601 392.73L310.391 392.86L309.541 392.75L308.681 393.87L307.051 394.57L306.871 395.19L306.671 395.38L305.621 395.33L305.281 395.5L305.181 396L305.601 396.44L305.661 396.82L305.541 397.56L305.281 397.85L305.151 398.51L304.871 398.85L303.711 399.41L303.481 400.04L302.391 400.72L302.231 401.69L301.681 402.63L301.511 402.74H300.251L299.381 403.23L298.891 403.86L298.331 404.27L297.771 404.22L296.641 402.57L296.371 400.22L296.461 396.89L297.181 394.74L298.101 392.8L304.381 381.63L305.011 377.17L305.351 368.57L306.001 364.87L305.881 361.14L305.121 359.67L303.751 359.01L302.571 358.77L302.781 357.95L302.581 357.74L303.421 354.87L304.471 352L307.541 347.52L308.551 346.51L317.461 334.97L319.571 332.73L319.741 332.96L320.431 329.9L321.061 327.93L321.761 326.5L322.401 325.62L323.391 324.73L327.641 322.02L329.101 320.71L329.391 317.62L327.261 312.44L343.781 301.93L345.651 301.12L346.841 302.37L346.551 305.47L349.141 307.37L351.911 309.7L361.881 304.15L363.521 302.49L365.851 302.02L367.691 301.97L369.141 302.29L370.291 302.94L371.221 303.89L372.031 305.1L374.651 309.92L375.891 311.79L374.771 316.15L374.471 319.68L374.911 325.48L388.831 326.85L392.831 329.66L393.551 333.68L394.521 335.89L398.371 338.11L399.741 340.92L399.701 342.93L399.901 342.91L403.911 337.02L406.531 337.5L412.221 341.08L412.461 338.31L414.051 337.37L415.061 335.22L417.011 335.5L417.781 336.53L420.511 336.05L420.961 332.69L421.791 330.33L422.961 330.19L424.351 328.86L425.911 328.54L426.931 326.2L428.331 324.48L429.721 323.55L430.741 321.61L435.061 320.64L435.821 322.28L436.801 322.33L439.781 320.69L441.381 319.17L444.511 320.33L445.471 321.57L446.871 320.65L447.491 319.48L449.291 317.77L451.671 317.29L452.681 316.53L454.731 312.44L458.331 310.41L459.541 308.67L461.921 308.57L464.871 309.71L466.481 308.18L469.621 309.92L471.851 307.42L474.061 305.71L475.101 303.15L478.521 300.9L480.321 299.97L480.761 297.58L484.131 298.32L486.281 300.8L490.071 300.94L485.451 290.96L483.931 286.1L482.281 276.06L484.951 269.76L484.591 265.76L485.041 260.59L489.451 258.52L494.271 257.22L494.941 249.82L495.551 249.43L495.691 249.07L496.201 249.49L497.451 249.82L498.661 249.52L499.111 248.42L499.281 244.83L500.171 242.74L501.661 240.18L503.871 233.38L505.321 231.33L507.401 229.5L508.121 229.17L511.001 229.67L512.011 229.61L515.541 227.94L517.151 227.35L520.361 226.68L521.161 226.1L521.591 225.37L521.991 224.13L522.401 223.59L523.131 223.07L524.641 223.23L525.921 222.94L527.161 223.4L527.941 223.96L528.651 225.71L529.801 226.42L531.511 226.47L533.211 225.57L534.191 224.19L535.281 222.11L536.271 221.54L539.501 222.39L541.751 221.91L543.011 222L551.201 226.29L551.381 227.38L551.921 227.8L552.701 227.47L555.671 225.72L556.441 225.52L557.791 226.12L561.071 226.35L562.481 226L565.101 224.79L566.771 224.47L567.681 224.91L568.991 226.08L570.231 226.42L572.571 225.58L574.121 225.24L576.221 225.84L577.601 226.06L578.951 225.84L580.471 224.94L584.371 223.45L586.111 223.89L589.291 225.45L592.681 225.89L594.091 225.61L595.171 225.56L596.361 225.72L596.901 225.25L597.781 221.96L598.991 219.2L599.641 219L601.811 221.37L603.681 221.7L606.591 221.79L609.311 221.04L610.881 220.28L611.831 218.64L613.201 214.75L613.781 213.78L614.461 213.2L615.771 213.49L617.241 214.17L618.271 213.87L619.541 213.08L621.771 211.28L624.841 210.88L626.611 211.02L630.171 212.43Z" fill="#CCCCCC" stroke="white" stroke-width="0.5"/>
<path d="M92.7284 408.42L92.5584 409.39L92.7684 409.98L92.3984 410.84L92.6384 412.02L92.2684 412.86L92.3084 414.24L91.1484 415.18L96.8584 419.29L99.6484 420.38L103.418 420.99L108.148 421.06L113.858 420.48L114.538 423.58L115.778 425.67L118.148 425.73L121.448 424.18L121.558 421.03L122.268 418.22L123.198 415.79L123.148 414.01L123.508 412.4L124.508 412.94L125.688 412.48L126.068 411.47L125.838 400.65L125.228 399.87L124.048 400.54L122.858 400.8L120.858 400.3L118.288 401.05L117.078 400.51L117.058 399.29L118.018 397.62L118.768 394.94L123.198 382.89L126.668 376.63L126.688 375.39L124.888 371.34L126.078 370.68L129.448 365.45L133.238 365.31L134.988 364.19L138.198 361.28L139.588 360.22L141.778 359.55L142.368 356.88L142.968 356.87L143.358 356.66L144.768 359.08L149.158 360L153.128 357.28L156.108 356L158.298 354.55L160.278 352.89L162.668 352.46L164.868 354.05L166.058 353.43L167.838 351.99L168.038 351.38L169.028 351.57L170.428 352.56L173.018 352.13L175.808 353.52L177.198 353.71L177.588 351.48L178.578 351.47L179.778 352.67L180.568 351.65L182.718 344.75L184.098 342.71L190.078 344.09L190.878 343.88L196.058 343.45L199.058 344.44L202.058 347.06L208.638 345.41L210.628 343.17L213.638 344.38L215.438 343.96L217.238 343.75L218.238 343.35L221.228 341.31L222.438 342.12L222.658 349L223.068 351.42L223.858 350L226.258 347.57L227.398 345.19L229.138 342.32L230.058 341.08L231.258 340.27L233.928 337.73L236.688 336.4L238.098 333.15L240.928 328.46L242.338 328.66L245.178 325.59L247.508 326.98L250.218 328.08L251.838 327.83L253.568 325.77L256.948 318.21L261.638 312.46L264.718 307.52L266.148 307.11L268.578 308.77L275.108 306.53L276.898 311.28L279.938 312.13L281.338 314.41L282.348 315.44L284.978 316.09L285.978 317.75L287.378 319.41L288.568 321.48L287.898 327.23L287.648 330.93L289.678 330.75L291.508 329.54L292.748 327.51L294.378 327.33L295.618 325.29L297.248 324.7L303.978 321.33L307.818 322.02L310.758 324.39L314.918 327.33L317.018 329.43L319.568 332.73L317.458 334.97L308.548 346.51L307.538 347.52L304.468 352L303.418 354.87L302.578 357.74L302.778 357.95L302.568 358.77L303.748 359.01L305.118 359.67L305.878 361.14L305.998 364.87L305.348 368.57L305.008 377.17L304.378 381.63L298.098 392.8L297.178 394.74L296.458 396.89L296.368 400.22L296.638 402.57L297.768 404.22L297.438 405.33L297.448 406.08L297.248 406.45L297.008 406.51L296.298 405.99L295.678 406.03L295.518 405.94L295.388 405.52L294.998 405.22L294.708 405.31L294.578 406.31L295.208 407.47L295.328 408.8L296.188 409.61L296.148 409.86L295.478 410.47L295.028 410.63L294.658 410.55L293.928 409.75L292.788 409.73L291.968 410.36L290.848 410.75L289.758 411.4L289.918 412.33L289.878 412.68L289.758 412.71L288.528 411.67L288.228 410.78L287.468 409.46L287.008 409.22L286.658 409.48L286.308 410.87L285.568 411.35L285.528 411.58L286.218 413.53L286.198 414.19L286.418 415.14L286.138 415.8L286.718 417.07L286.668 417.31L285.698 418.22L286.278 419.19L286.328 420.07L286.688 420.46L287.118 422.22L287.358 422.56L287.828 422.75L288.948 422.91L290.158 423.74L290.568 424.27L291.278 424.36L293.378 424.17L294.078 424.31L294.838 424.97L295.458 426.04L296.008 426.39L296.568 426.33L296.728 426.51L296.748 427.09L296.108 428.79L296.348 429.32L296.138 429.88L296.498 430.46L296.668 431.11L297.458 431.55L297.728 432L298.308 432.39L298.368 432.73L297.588 434.2L297.428 435.04L297.948 435.75L298.698 437.23L298.418 438.32L297.468 439.04L297.458 439.32L297.778 440.44L297.988 440.73L298.368 440.72L298.828 440.91L298.988 441.12L299.208 441.71L299.198 442.27L297.278 443.13L297.138 443.37L297.188 443.67L297.418 443.81L297.488 444.08L296.768 444.37L296.318 447.16L295.928 447.58L295.188 447.83L294.968 448.25L294.878 449.38L295.178 449.62L295.158 450.67L295.518 451.66L295.428 452.58L295.108 453.15L294.398 452.97L294.268 453.2L294.008 453.23L293.778 452.98L293.648 452.42L293.308 452.46L293.058 452.66L292.038 452.74L291.018 453.17L290.108 453.29L290.048 454.61L290.738 455.48L290.838 456.19L290.398 456.36L289.148 456.12L288.918 456.29L288.958 456.68L289.658 457.19L289.988 457.89L289.798 458.4L288.858 458.2L288.248 458.8L287.828 458.91L286.748 457.82L286.538 457.78L286.308 457.95L286.248 458.28L286.658 458.99L286.758 460.07L286.688 460.32L285.918 461.11L285.888 462.75L285.668 463.33L285.138 463.46L284.828 463.35L284.308 462.41L284.078 462.28L283.858 462.56L283.648 462.59L283.078 463.8L282.668 464.04L281.378 463.9L281.038 463.67L280.038 464.06L279.748 464.04L278.518 463.06L277.678 462.78L276.918 462.89L276.608 462.79L275.878 461.85L274.928 461.7L274.118 460.97L273.868 460.94L273.198 461.64L272.998 461.63L272.678 460.94L272.178 460.59L271.478 460.58L270.748 461.03L270.208 460.96L269.718 460.3L268.348 459.66L267.758 457.99L267.578 457.87L264.568 458.31L263.468 458.11L262.978 457.63L263.018 457.02L262.848 456.15L262.938 455.08L262.558 454.54L262.078 452.98L261.858 452.78L261.118 452.93L259.558 452.31L258.318 452.05L253.888 452.28L252.908 452.61L252.058 453.1L251.148 453.89L250.758 454.45L249.248 457.35L248.608 457.65L247.848 457.61L247.298 457.38L246.018 456.46L244.818 455.84L242.718 455.71L241.708 455.42L240.518 455.65L238.788 456.84L237.908 457.09L236.888 457.11L235.578 456.84L234.368 457.08L233.348 456.87L232.068 457.07L231.378 456.91L229.778 456.92L228.778 457.28L227.918 457.36L227.538 457.18L225.738 457.08L225.318 456.87L223.948 456.66L223.098 456.25L221.878 455.98L221.218 455.22L220.888 455.03L220.458 455.08L220.008 455.45L219.338 456.42L219.068 457.45L218.128 459.19L218.208 460.3L218.098 460.63L217.168 461.29L216.598 462.14L216.178 463.99L214.868 463.97L214.288 464.11L212.998 465.28L212.638 465.89L212.348 465.81L212.088 466.01L212.308 466.9L211.948 467.44L211.838 468.14L211.398 468.27L210.618 467.95L209.978 468.2L209.308 470.18L208.588 471.11L208.078 472.33L207.588 472.62L206.088 472.98L205.638 473.59L205.378 474.49L204.348 475.22L204.568 475.88V476.53L203.758 478.61L204.008 479.29L204.738 479.89L204.808 480.18L203.938 481.46L204.208 482.38L204.578 482.9L204.768 484.38L204.948 484.51L205.788 484.47L206.028 484.71L206.198 485.25L206.138 485.58L205.248 486.12L204.908 488.9L205.218 489.87L205.938 490.51L206.798 490.09L207.208 490.14L207.228 490.79L206.618 491.62L206.658 491.95L206.848 492.29L207.948 493.06L208.308 493.6L208.298 493.95L207.448 494.81L207.518 495.37L208.328 496.4L208.718 497.64L208.688 498.08L208.158 499.43L208.088 499.87L208.228 500.36L208.698 500.64L209.398 500.7L211.388 500.22L211.828 500.44L211.988 500.75L211.848 501.29L210.888 502.72L209.328 504.68L209.008 505.85L207.068 509.2L206.778 509.53L204.518 509.3L203.538 509.73L202.508 510.83L201.198 511.82L200.098 512.96L199.438 514.72L199.128 515.32L198.788 515.56L197.888 515.85L195.568 516.08L194.158 517.38L192.988 517.48L192.508 517.7L192.248 518.43L191.568 518.61L190.908 518.4L190.458 518.02L189.938 517.13L188.698 516.18L188.248 514.98L187.348 514.01L184.398 512.26L183.478 512.03L179.838 509.54L178.648 508.57L177.878 508.24L176.458 505.98L175.298 502.93L174.768 501.91L173.558 500.85L170.368 499L169.148 497.97L165.258 492.63L163.568 491.47L163.298 491.11L162.988 490.17L161.228 489.27L160.098 488.98L159.878 489.02L159.148 489.82L158.558 489.71L158.008 489.41L156.898 488.26L156.268 487.97L155.368 488.42L155.078 489.1L155.638 491.82L156.088 492.8L156.748 493.38L157.888 493.77L158.418 494.6L158.448 494.95L158.278 495.36L156.778 496.53L155.928 496.7L155.178 496.31L154.808 495.96L154.278 494.71L152.408 491.96L149.758 490.32L148.928 490.13L147.608 490.85L146.838 491.62L146.198 493.52L146.808 495.63L147.448 496.36L148.518 496.85L148.988 497.86L148.728 498.97L147.788 499.63L147.138 499.81L146.548 499.7L145.958 499.26L145.538 498.69L145.268 498.3L145.028 497.41L144.688 495.01L144.518 494.56L144.008 494.18L143.128 494.04L140.568 495.08L138.718 496.61L137.438 496.47L133.738 495.14L133.208 495.26L132.608 495.8L132.428 496.52L132.698 497.46L133.428 498.5L133.808 499.72L133.668 500.08L133.168 500.49L132.688 500.56L131.298 499.15L131.028 499.11L130.538 499.45L130.138 500.04L130.448 500.92L130.168 502.98L129.478 504.31L128.378 504.62L127.718 504.63L126.178 505.8L121.468 506.79L121.188 506.97L119.798 509L118.638 509.89L117.178 510.1L115.478 509.54L114.138 509.73L113.418 510.5L112.818 511.47L112.128 512.13L111.518 512.18L109.458 511.01L109.148 510.97L108.588 511.18L108.088 511.73L107.158 513.53L107.078 514.64L106.868 514.93L105.468 515.77L104.678 517.37L103.718 518.32L101.518 518.15L99.9084 517.28L99.0684 517.01L96.6484 516.99L94.9484 517.56L94.1884 518.37L93.4384 520.03L92.9184 522.3L93.0384 523.21L92.8584 526.58L92.3384 528.36L91.8984 529L91.3684 529.47L90.7884 529.8L89.7584 529.97L89.2984 529.87L88.0684 529.33L85.6984 527.84L85.2284 527.64L84.5584 527.71L83.8284 528.05L80.6084 530.27L79.9784 530.95L78.8784 531.67L78.0684 532.76L76.6884 533.02L75.5584 533.91L74.1684 535.37L73.1184 537.05L72.0484 537.39L71.3284 538L70.6684 538.34L68.5484 538.8L67.8584 539.26L66.5284 539.7L63.8884 538.45L63.0784 536.62L62.9584 535.27L61.9184 533.5L60.9784 533.01L58.7784 532.44L57.0484 531.73L54.9584 530.12L54.3784 529.14L54.0284 524.57L53.4784 523.44L52.6284 522.65L51.8584 522.45L49.3884 522.6L47.7784 522.49L46.1484 522.12L44.4184 521.39L43.1084 520.62L41.7384 519.28L41.6484 518.87L41.7384 517.49L42.3884 515.07L42.4584 510.92L42.8884 509.1L42.6884 508.19L42.2284 507.18L43.7384 506.21L45.3084 500.84L45.8884 496.18L46.5584 486.12L45.9884 477.25L46.0884 471.59L48.7084 463.02L51.2184 460.85L52.2284 459.63L55.0484 454.26L57.3684 448.88L62.4384 442.31L65.4484 440.14L67.9984 436.49L74.9884 421.55L76.7884 418.37L85.7384 416.83L88.4884 415.65L91.2484 414.23L92.0384 412.26L91.8284 410.52L92.7284 408.42Z" fill="#CCCCCC" stroke="white" stroke-width="0.5"/>
<path d="M427.44 196.94L427.56 199.16L427.22 200.79L426.17 202.44L425.75 204.38L425.78 206.09L426.68 210.39L427.68 212.72L429.16 213.5L432.86 214.03L434.22 214.67L435.67 214.69L437.81 213.93L439.18 213.25L442.45 212.55L444.84 212.76L446.76 212.43L447.96 212.5L450.58 214.23L451.73 216.2L452.35 219.59L451.99 222.47L451.57 223.21L449.22 224.33L447.58 226.45L447.13 229.96L447.97 231.72L449.93 234.93L451 236L452.17 236.57L453.82 236.42L455.64 235.52L456.67 235.32L460.06 235.59L462.16 236.35L463.32 236.1L464.1 235.71L465.4 232.94L466.74 230.75L468.11 229L469.46 228.58L471.91 226.83L473.64 226.43L476.04 224.36L476.79 224.6L477.57 225.22L478.39 226.28L479.1 230.18L480.35 232.47L481.14 235.04L482.28 236.88L483.3 237.76L484.44 237.77L485.53 237.59L488.73 237.79L489.6 238.16L490.95 240.71L491.84 241.58L493.72 242.9L494.34 244.07L494.55 245.67L494.47 246.98L494.89 248.4L495.69 249.07L495.55 249.43L494.94 249.82L494.27 257.22L489.45 258.52L485.04 260.59L484.59 265.76L484.95 269.76L482.28 276.06L483.93 286.1L485.45 290.96L490.07 300.94L486.28 300.8L484.13 298.32L480.76 297.58L480.32 299.97L478.52 300.9L475.1 303.15L474.06 305.71L471.85 307.42L469.62 309.92L466.48 308.18L464.87 309.71L461.92 308.57L459.54 308.67L458.33 310.41L454.73 312.44L452.68 316.53L451.67 317.29L449.29 317.77L447.49 319.48L446.87 320.65L445.47 321.57L444.51 320.33L441.38 319.17L439.78 320.69L436.8 322.33L435.82 322.28L435.06 320.64L430.74 321.61L429.72 323.55L428.33 324.48L426.93 326.2L425.91 328.54L424.35 328.86L422.96 330.19L421.79 330.33L420.96 332.69L420.51 336.05L417.78 336.53L417.01 335.5L415.06 335.22L414.05 337.37L412.46 338.31L412.22 341.08L406.53 337.5L403.91 337.02L399.9 342.91L399.7 342.93L399.74 340.92L398.37 338.11L394.52 335.89L393.55 333.68L392.83 329.66L388.83 326.85L374.91 325.48L374.47 319.68L374.77 316.15L375.89 311.79L374.65 309.92L372.03 305.1L371.22 303.89L370.29 302.94L369.14 302.29L367.69 301.97L365.85 302.02L363.52 302.49L361.88 304.15L351.91 309.7L349.14 307.37L346.55 305.47L346.84 302.37L345.65 301.12L343.78 301.93L327.26 312.44L329.39 317.62L329.1 320.71L327.64 322.02L323.39 324.73L322.4 325.62L321.76 326.5L321.06 327.93L320.43 329.9L319.74 332.96L319.57 332.73L317.02 329.43L314.92 327.33L310.76 324.39L307.82 322.02L303.98 321.33L297.25 324.7L295.62 325.29L294.38 327.33L292.75 327.51L291.51 329.54L289.68 330.75L287.65 330.93L287.9 327.23L288.57 321.48L287.38 319.41L285.98 317.75L284.98 316.09L282.35 315.44L281.34 314.41L279.94 312.13L276.9 311.28L275.11 306.53L268.58 308.77L266.15 307.11L264.72 307.52L261.64 312.46L256.95 318.21L253.57 325.77L251.84 327.83L250.22 328.08L247.51 326.98L245.18 325.59L242.34 328.66L240.93 328.46L238.1 333.15L236.69 336.4L233.93 337.73L231.26 340.27L230.06 341.08L229.14 342.32L227.4 345.19L226.26 347.57L223.86 350L223.07 351.42L222.66 349L222.44 342.12L221.23 341.31L218.24 343.35L217.24 343.75L215.44 343.96L213.64 344.38L210.63 343.17L208.64 345.41L202.06 347.06L199.06 344.44L196.06 343.45L190.88 343.88L190.08 344.09L184.1 342.71L182.72 344.75L180.57 351.65L179.78 352.67L178.58 351.47L177.59 351.48L177.2 353.71L175.81 353.52L173.02 352.13L170.43 352.56L169.03 351.57L168.04 351.38L167.84 351.99L166.06 353.43L164.87 354.05L162.67 352.46L160.28 352.89L158.3 354.55L156.11 356L153.13 357.28L149.16 360L144.77 359.08L143.36 356.66L142.97 356.87L142.37 356.88L141.78 359.55L139.59 360.22L138.2 361.28L134.99 364.19L133.24 365.31L129.45 365.45L126.08 370.68L124.89 371.34L126.69 375.39L126.67 376.63L123.2 382.89L118.77 394.94L118.02 397.62L117.06 399.29L117.08 400.51L118.29 401.05L120.86 400.3L122.86 400.8L124.05 400.54L125.23 399.87L125.84 400.65L126.07 411.47L125.69 412.48L124.51 412.94L123.51 412.4L123.15 414.01L123.2 415.79L122.27 418.22L121.56 421.03L121.45 424.18L118.15 425.73L115.78 425.67L114.54 423.58L113.86 420.48L108.15 421.06L103.42 420.99L99.6503 420.38L96.8603 419.29L91.1503 415.18L92.3103 414.24L92.2703 412.86L92.6403 412.02L92.4003 410.84L92.7703 409.98L92.5603 409.39L92.7303 408.42L92.8803 408.07L92.7103 404.59L96.3403 397.73L98.8903 394.82L100.67 393.37L101.43 392.39L101.75 389.67L104.74 379.06L104.78 377.32L102.37 374.03L100.76 371.1L100.72 370.26L96.3603 364.68L94.1603 363.13L90.9603 361.57L87.9903 360.5L87.5003 360L87.2803 358.75L87.3203 357L86.8603 355.25L83.7403 349.95L80.0403 347.87L79.0403 347.85L75.7703 349.27L74.7703 349.25L75.3203 347.02L76.6003 345.3L77.3803 343.82L78.1803 341.35L75.9803 339.55L70.6303 332.45L71.0603 323.46L71.3503 321.97L71.3703 320.72L72.4003 319.49L72.4203 318.49L70.5003 314.2L69.5703 310.93L70.6003 309.7L72.3803 308.23L74.8903 308.03L75.9003 307.8L76.6803 306.32L71.8103 299.45L71.0903 298.19L71.8703 296.96L77.4003 296.06L79.6703 295.36L80.9703 293.38L82.5003 292.41L83.7603 291.94L83.5203 289.94L84.4503 289.83L84.8403 288.27L87.4703 287.7L89.0903 284.4L94.5703 279.33L95.9703 279.23L97.8203 277.56L99.2503 276.76L100.04 276.72L101.37 277.1L107.58 280.59L111.32 279.24L115.8 279.44L117.59 278.06L119.38 276.28L121.33 275.88L125.84 274.46L127.62 273.26L128.83 271.08L129.11 267.14L130.31 265.55L133.81 265.12L138.69 264.07L141.24 262.65L144.16 262.21L147.07 262.54L148.82 262.3L150.2 261.49L153.53 260.23L155.84 262.1L158.37 262.03L161.12 260.78L163.86 260.71L165.42 261.7L169.95 265.79L172.91 267.44L173.5 267.64L174.68 267.02L179.81 266.8L182.78 268.04L183.98 269.9L187.17 273.42L189.16 273.83H192.34L196.12 271.75L200.29 269.05L203.48 266.76L205.26 264.47L207.26 263.22L209.88 263.63L212.71 265.07L219.39 267.95L220.81 268.15L222.02 266.69L221.6 264.41L220.37 262.54L220.36 260.88L220.95 258.8L223.58 257.94L229.63 255.18L230.48 255.13L231.23 255.51L231.97 256.41L232.8 257.94L235.46 263.89L236.9 268.87L237.92 269.48L240.37 268.63L241.8 266.53L243.03 265.48L246.51 268.57L248.15 269.18L248.97 267.71L248.56 265.84L251.64 262.89H251.85L251.03 261.44L251.44 259.14L251.45 255.17L250.83 252.04L252.28 248.9L253.32 247.21L247.72 238.3L252.09 234.69L254.59 232.99L254.82 228.41L258.17 227.75L261.08 230.44L263.39 229.39L265.5 227.32L268.45 225.9L269.68 228.4L270.27 230.69L273 230.33L275.59 226.1L277.29 224.72L279.62 224.39L282.1 226.72L283.34 227.58L286.26 229.11L289.9 227.37L293.51 227.26L296.17 224.42L300.37 221.15L303.37 221.01L306.92 222.78L310.12 222.47L312.84 223.19L315.47 220.62L320.24 222.29L321.64 217.49L325.38 217.71L329.59 216.96L331.44 212.66L335.19 212.51L336.82 209.44L340.89 206.46L344.21 208.48L345.1 209.72L345.83 211.72L345.96 212.93L345.98 216.47L346.31 217.5L346.5 220.04L347.04 220.69L348.59 221.34L351.36 221.47L353.65 221.27L355.95 220.81L356.71 220.85L357.94 221.42L359.16 222.36L361.26 222.15L362.25 221.25L363.56 219.04L363.63 216.45L364.18 215.53L365.2 215.39L366.06 215.94L367.6 217.98L369.55 219.53L371.06 219.61L373.41 219.41L375.47 218.76L376.96 218.08L377.63 217.35L378.47 215.69L378.16 210.68L378.48 209.29L379.37 206.88L380.37 205.92L381.73 205.42L383.25 205.37L387.53 205.78L389.97 205.28L391.21 204.59L394.7 202.05L395.15 200.81L396.08 199.9L396.63 200.31L398.6 203.71L399.52 204.4L400.41 204.38L401.65 203.69L403.82 201.02L404.39 199.91L404.51 197.7L406.46 196.79L407.1 196.7L410.3 197.25L412.58 197.38L414.71 196.54L417.22 194.72L419.12 192.54L420.04 191.9L421.19 191.77L423.97 193.26L426.52 195.24L427.44 196.94Z" fill="#CCCCCC" stroke="white" stroke-width="0.5"/>
<path d="M334.31 159.14L337.48 159.69L339.75 158.96L341.61 158.86L342.66 159.55L343.55 162.51L339.92 165.04L336.17 164.69L335.86 167.84L334.92 170.34L333.11 171.37L330.73 169.25L329.06 164.84L323.77 161.75L320.77 160.54L320.85 158.11L321.81 156.67L322.23 156.66L327 157.75L331.32 158.47L334.31 159.14ZM337.89 19.33L337.44 20.1L333.56 15L330.42 10.57L327.73 8.59L325.49 8.53L325.06 7.03L325.66 5.99L327.27 4.76L326.67 5.59L329.33 6.72L332.66 10.63L336.48 15.83L337.89 19.33ZM316.14 1.56L316.45 1.67L317.15 1.51L318.76 2.4L318.96 3.25L319.36 3.9L320.77 5.21L321.79 5.87L321.94 7.23L322.65 7.75L324.6 10.39L325.27 10.28L326.1 10.44L326.3 11.21L327.32 13.47L328.64 14.93L329.55 16.24L330.42 18.21L332.86 21.85L333.36 23.14L333.59 23.29L333.56 23.64L333.88 24.45L334.47 24.46L334.74 25.27L336.03 26.17L336.88 27.11L338.12 30.14L339.96 30.83L341.13 31.87L341.8 33.04L342.74 34.06L341.69 34.89L341.31 34.69L340.66 35.08L340.83 35.8L340.4 36.44L339.58 36.67L338.32 36.12L337.27 33.44L336.45 36.18L336.53 37.75L337.23 39.17L339.06 38.64L340.62 38.66L341.19 38.86H341.78L343.67 39.85L343.06 40.24L345.04 40.34L345.99 40.84L347.62 42.11L348.21 42.72L348.72 43.68L348.57 44.39L347.28 45.54L346.62 47.77L345.66 49.05L344.2 49.14L343.57 48.58L342.88 49.09L343.28 51.27L343.18 52.74L342.46 52.67L341.57 52.05L339.43 52.53L338.52 53.62L337.61 53.8L337.28 54.43L336.14 54.8L334.65 56.42L333.21 56.81L332.42 57.65L329.96 62.57L328.03 65.01L327.08 65.37L325.5 65.41L324.45 66.21L322.74 66.06L321.43 66.24L320.54 66.72L320.11 67.6L319.81 69.57L318.83 70.55L318.57 72.33L317.53 73.25L315.76 73.24L314.64 73.77L311.22 74.83L308.8 76.1L306.15 76.59L303.95 78.38L302.15 78.86L301.87 79.3L301.99 80.64L303.23 83.28L304.01 84.55L304.33 86.19L304.95 86.4L305.6 87.1L306.6 89.55L307.35 90.36L308.35 90.82L309.3 90.89L311.3 89.95L312 89.94L313.59 90.43L314.2 90.83L317.81 91.56L324.24 94.44L325.88 95.91L326.41 97.13L326.09 99.07L326.9 101.1L327.31 102.94L326.48 105.12L326.33 107.94L326.04 108.2L327.22 110.27L328.79 111.13L329.51 113.07L330.27 114.07L331.15 116.19L332.12 117.81L333.03 118.37L333.95 118.56L337.26 117.77L340.5 117.29L340.88 117.03L343.97 116.77L346.71 116.05L347.47 116.04L352.92 113.62L356.68 110.83L357.27 111.01L359.71 110.43L361.59 110.24L366.86 110.09L368.09 110.94L368.5 111.8L368.57 112.53L368.27 113.89L368.24 115.63L367.92 115.92L367.23 118.61L366.36 119.48L365.64 119.64L365.5 119.89L363.03 120.53L361.97 121.25L361 121.33L355.93 118.73L354.02 118.37L353.05 118.51L352.21 119.25L351.27 123.5L350.6 124.69L348.79 126.09L347.4 127.5L345.54 128.54L341.58 129L337.64 128.78L336.12 129.44L335.35 130.33L334.85 131.7L334.89 132.48H335.47L335.42 133.18L335.59 133.71L335.67 135.46L335.38 136.5L335.9 138.07L335.43 138.74L334.78 140.49L333.8 142.54L333.83 143.44L333.21 144.13L331.82 144.36L326.79 148.01L325.97 148.09L325.1 148.84L324.45 149.09L324.01 148.34L321.58 148.58L321.59 148.88L320.76 149.55L320.4 150.78L320.88 151.76L322.46 153.51L322.49 154.12L322.08 154.34L318.41 150.33L317.2 150.45L315.25 148.67L314.63 147.46L315.71 145.99L317.13 144.53L320.41 143.16L323.63 140.51L324.16 139.55L325.73 137.76L325.66 137.23L324.6 137.17L324.54 136.5L323.88 136.3L323.49 136.56L323.34 136.42L323.8 135.62L323.53 135.08L323.06 134.76L322.9 134.8L322.92 134.66L321.47 133.67L319.63 133.32L319.16 133.04L311.9 132.14L310.57 131.79L309.06 130.84L307.74 128.57L305.23 128.29L303.74 127.74L302.26 125.91L301.28 125.21L298.58 123.91L296.57 123.45L295.45 123L293.16 123.47L289.96 123.45L288.58 122.77L287.98 121.89L281.12 117.28L277.09 113.84L274.54 112.16L273.48 112.34L272.21 112.32L270.72 111.68L269.02 111.61L267.57 110.96L265.63 111.52L263.75 112.84L262.01 113.38L260.6 114.26L258.34 115.14L257.94 115.56L253.87 117.25L252.43 117.68L250.48 118.63L247.72 119.39L244.62 120.96L244.04 121.49L242.17 122.19L237.42 125.03L236.61 125.24L234.93 125.23L231.93 124.94L228.58 125.92L225.24 126.6L223.24 126.7L219.5 128.54L218.91 129.22L218.64 130.21L218.22 132.95L218.41 133.52L217.95 134.4L217.57 136.01L217.71 136.76L220.01 141.26L219.51 144.55L220.41 148.02L220.23 149.41L219.19 150.14L217.37 151.09L214.61 153.66L213.44 154.26L211.79 154.2L209.29 152.97L208.73 150.66L208.22 147.08L205.92 143.69L204.79 140.5H201.84L202.11 143.43L200.91 148.74L199.34 153.9L197.23 155.99L196.74 159.28L196.66 161.56L196.08 163.57L194.32 166.69L194.02 168.2L195.36 173.83L196.55 176.15L198.49 179.01L199.17 181.57L198.54 185.23L198.89 186.26L199.62 187.05L199.78 189.84L200.39 190.49L200.61 191.38L200.57 192.65L200.78 194.05L202.4 194.86L200.53 201.51L203.09 204.51L203.98 204.54L205.03 203.56L206.54 200.19L206.93 199.82L207.69 199.85L208.15 201.26L209.51 202.19L211.64 202.9L213.31 202.2L214.8 203.01L215.17 203.4L217.37 202.09L219.03 201.77L220.71 200.82L221.59 200.98L223.41 199.78L224.93 199.83L226.55 196.98L229.77 195.45L233.02 196.71L234.67 196.64L236.9 194.7L238.56 194.38L240.45 194.7L242.45 195.41L243.3 196.33L246.82 197.1L248.68 198.06L253.11 201.52L253.56 203.06L253.92 203.58L254.43 203.6L255.36 202.5L256.54 201.41L257.68 199.87L258.15 197.55L258.81 196.94L261.04 196.52L264.43 197.23L266.09 198.56L266.78 200.36L267.82 201.22L269.33 201.47L271.2 200.66L272.19 198.04L273.09 197.76L273.7 198.23L274.11 199.13L273.84 202.54L274.16 203.95L274.76 203.28L275.22 199.75L276.05 198.07L279.07 195.6L280.8 195.17L281.67 195.65L282.26 198.14L283.61 199.08L285.31 199.41L286.32 199.39L287.59 197.86L287.96 196.61L288.22 194.85L289.02 193.87L289.59 193.89L290.28 197.02L291.12 198.2L292.61 199.02L294.82 202.03L295.85 203.09L296.98 203.33L299.1 202.73L300.41 201.71L301.67 200.5L305.17 195.78L306.3 194.69L307.78 194.25L308.67 194.23L310.61 194.76L312.15 195.84L314.15 196.56L315.63 196.06L316.37 195.02L317.53 191.84L318.64 191.19L320.1 191.13L322.04 191.66L323.59 192.37L324.19 193.16L324.83 194.46L326.24 195.54L328.69 196.03H331.35L332.8 196.29L335.51 198L339.83 205.74L340.87 206.39L336.8 209.37L335.17 212.45L331.42 212.6L329.57 216.9L325.37 217.65L321.62 217.42L320.22 222.22L315.45 220.55L312.82 223.11L310.09 222.39L306.89 222.7L303.34 220.93L300.35 221.07L296.15 224.34L293.49 227.18L289.88 227.29L286.24 229.03L283.32 227.5L282.07 226.64L279.59 224.31L277.27 224.64L275.56 226.02L272.98 230.26L270.25 230.62L269.65 228.33L268.43 225.83L265.48 227.25L263.36 229.32L261.05 230.37L258.14 227.68L254.79 228.34L254.57 232.93L252.07 234.63L247.7 238.24L253.29 247.15L252.25 248.83L250.8 251.98L251.41 255.11V259.08L251 261.38L251.82 262.83H251.61L248.53 265.77L248.94 267.64L248.12 269.1L246.48 268.49L243 265.4L241.77 266.45L240.34 268.55L237.89 269.41L236.87 268.8L235.42 263.82L232.77 257.86L231.94 256.34L231.19 255.43L230.44 255.05L229.6 255.1L223.54 257.85L220.92 258.72L220.33 260.8L220.34 262.46L221.57 264.32L221.99 266.6L220.78 268.06L219.36 267.86L212.67 264.98L209.84 263.54L207.22 263.13L205.22 264.38L203.43 266.66L200.25 268.95L196.07 271.65L192.3 273.73L189.12 273.74L187.13 273.33L183.94 269.81L182.74 267.95L179.77 266.71L174.64 266.93L173.46 267.55L172.87 267.34L169.91 265.69L165.38 261.6L163.81 260.61L161.07 260.68L158.32 261.93L155.79 262.01L153.48 260.14L150.15 261.39L148.77 262.2L147.02 262.44L144.11 262.11L141.19 262.55L138.64 263.97L133.76 265.02L130.26 265.45L129.06 267.04L128.78 270.98L127.57 273.15L125.79 274.35L121.28 275.77L119.32 276.18L117.53 277.96L115.74 279.34L111.26 279.14L107.52 280.49L101.31 277L99.98 276.62L99.19 276.66L97.76 277.45L95.91 279.12L94.51 279.22L89.03 284.29L87.41 287.59L84.78 288.16L84.39 289.73L83.45 289.84L83.05 287.06L83.81 286.58L84.12 283.83L83.91 282.07L82.43 281.03L78.48 277.68L77.98 277.42L77.27 275.15L75.35 271.09L72.62 269.27L69.86 268.96L67.32 270.17L65.79 271.14L63.54 270.59L62.3 269.56L61.07 268.03L60.06 268.01L57.77 269.22L56.26 269.44L53.24 269.38L50.92 272.35L49.66 272.33L47.65 272.04L44.67 270.23L40.14 270.65L37.85 272.24L36.48 271.71L35.47 272.2L34.46 272.43L32.96 271.78L31.24 269.36L30.94 264.83L29.98 262.05L30.45 256.52L31.22 255.4L31.24 254.14L30.62 253.5L27.1 253.32L25.85 252.8L24.4 249.13L22.15 248.09L19.76 247.67L17.49 248.14L15.73 248.11L13.85 247.45L12.48 246.55L8.59 245.74L6.46 244.58L4.84 242.92L1.76 237.59L1 234.77L1.01 233.76L1.52 233.14L3.93 232.42L8.88 230.6L11.03 230.13L11.91 230.4L14.55 230.82L14.94 229.82L14.46 228.05L12.38 223.73L10.56 218.65L6.15 209.11L4.91 207.2L4.95 204.29L5.73 202.53L6.75 202.29L11.04 203.49L11.67 203.5L12.57 202.37L12.12 198.82L12.39 197.31L21.18 194.03L24.35 193.95L25.62 193.59L27.7 190.2L29.11 189.21L31.53 188.36L32.7 186.73L33.47 186.11L34.36 186.13L38.64 187.98L39.15 187.99L41.32 187.27L42.86 186.41L43.86 186.93L48.24 190.05L51.28 190.23L53.4 192.17L57.55 194.02L59.58 193.81L62.62 194L64.63 194.8L67.05 196.69L68.38 197.02L70.79 196.83L72.43 197.24L74.56 198.3L79.49 198.66L81.14 198.44L82.39 198.97L83.39 199.75L85.03 200.04L87.07 199.45L89.86 199.13L93.77 199.6L96.92 200.31L98.05 200.84L99.78 202.53L100.66 202.8L104.75 201L111.31 202.05L113.86 201.48L116.24 202.3L118.05 200.7L118.74 198.44L119.21 195.03L120.62 194.31L122.43 192.84L127.66 186.9L128.27 183.11L124.11 177.17L123.51 175.76L124.43 174.64L125.83 174.55L127.24 173.95L127.91 172.7L128.47 170.68L129.54 168.8L130.25 165.9L129.9 164.62L129.58 162.2L129.77 159.66L131.17 159.7L132.43 159.99L133.56 160.66L135.13 159.18L136.82 157.96L137.83 158.24L139.56 160.19L140.24 163L141.49 163.92L142.51 163.69L143.03 163.2L143.31 162.32L143.63 160.04L144.29 159.17L146.34 158.72L147.12 158.11L147.93 156.35L147.85 154.82L146.06 150.57L143.76 146.18L143.57 143.76L143.85 142.88L144.88 142.4L145.77 142.55L147.37 144.5L149.29 148.63L150.35 151.59L150.49 155.54L151.83 157.61L153.21 158.29L155 158.09L156.57 156.48L157 154.97L156.92 153.31L155.72 150.86L149.94 143.69L146.64 140.6L146.56 139.94L147.48 136.96L147.36 135.56L146.62 134.62L145.28 133.48L144.51 132.21L144.58 131.04L145.11 130.41L146.4 129.97L147.83 130.19L149.45 132.63L150.1 135.48L151.12 136.05L151.45 135.79L151.84 134.51L151.92 133.51L153 132.51L154.5 131.55L157.85 130.78L159.51 130.73H161.51L164.9 131.54L166.55 131.41L167.26 129.94L167.15 128.54L166.26 124.7L165.36 121.86L163.5 120.43L156.53 120.67L152.82 121.14L145.24 123.1L142.51 124.33L136.17 126.11L133.28 127.35L128.54 128.34L125.8 128.41L120.01 125L118.11 123.25L118.63 121.91L125.03 120.05L125.22 119.74L127.15 119.57L131.1 118.39L140.69 115.29L142.85 114.3L146.52 115.5L148.13 115.78L150.99 115.04L153.14 113.86L153.99 113.04L158.32 112.02L165.76 111.25L171.43 111.29L174.59 112.29L176.92 112.27L179.53 112.56L180.94 112.45L183.25 113.27L185.65 113.08L187.36 112.53L190.25 113.22L194.59 113.3L195.82 114.12L197.06 114.67L198.13 113.78L197.34 112.18L196.27 109.1L195.37 108.17L192.32 107.57L191.41 106.64L191.93 104.77L191.16 103.5L191.55 102.14L192.38 102.08L193.41 102.5L195.43 102.68L197.25 102.54L199.74 100.18L199.75 98.18L200.49 96.96L200.45 94.29L198.14 92.46L197.22 91.36L197.25 89.52L196.61 87.73L195.72 86.96L196.24 85.08L195.2 84.66L194.8 83.86L194.48 81.88L193.84 80.09L192.92 78.99L192.94 77.15L193.71 76.25L193.8 74.56L192.34 73.3L189.38 69.22L189.24 68.49L189.45 67.58L189.84 67.06L191.62 65.71L193.3 64.73L197.31 64.2L199.24 64.59L199.9 64.42L200.47 63.83L200.41 63.43L201.3 61.77L202.36 61.26L202.93 58.46L201.68 55.75L200.92 53.25L201.39 45.5L201.53 44.78L202.27 43.93L202.25 43.22L202.71 41.83L205.33 38.41L206.77 36.09L207.49 35.82L210.4 35.65L211.87 36.38L217.46 37.94L219.19 38.04L220.13 38.28L221.34 39.31L221.78 39.93L223.67 43.71L224.22 46.35L225.44 48.08L228.22 50.08L229.04 51.35L229.82 52.04L231.34 52.28L232.23 52.74L233.16 54.77L233.34 55.62L234.01 56.53L235.48 56.86L237.43 56.61L239.06 56.63L241.12 55.33L242.3 53.19L244.22 48.64L245.21 47.75L245.92 47.4L246.77 47.28L249.93 48.18L250.6 48.11L252.67 45.89L254.14 44.81L255.13 44.44L256.08 44.41L259.6 46.59L260.06 46.62L262.67 44.15L264.36 43.06L268.84 42.41L269.46 41.97L270.67 41.62L273.01 39.63L276.16 38.39L281.42 33.27L282.1 32.3L282.72 30.38L283.14 29.68L283.81 29.08L285.12 28.85L285.9 28.99L287.39 29.76L289.91 30.16L293.14 28.09L295.09 27.24L295.64 26.71L296.68 24.98L297.31 24.76L298.25 23.97L298.83 23.81L300.31 22.8L301.78 22.62L302.96 22.74L304.47 22.22L305.29 21.43L306.43 19.21L306.44 18.41L305.8 16.35L306.14 14.76L306.73 14.32L307.64 12.94L307.7 11.27L308.36 10.1L307.74 7.27L307.76 6.66L307.98 6.25L308.82 5.63L309.3 4.95L309.69 3.56L310.11 2.89L310.91 2.23L312.95 1.22L313.86 1L316.14 1.56Z" fill="#CCCCCC" stroke="white" stroke-width="0.5"/>
</svg>
