<svg width="761" height="614" viewBox="0 0 761 614" fill="none" xmlns="http://www.w3.org/2000/svg">
<path d="M610.219 119.01L612.309 116.38L613.479 114.18L613.919 114.47L614.009 115L614.839 114.28L615.669 114.42L615.799 115.23L615.359 116.86L615.319 118.63L615.539 118.87L616.709 119.01L616.879 118.82L616.749 118.53H615.839L615.799 117.62L616.409 117.09L616.279 116.85L615.839 116.8L615.749 115.94L616.269 115.8L616.659 116.61L616.919 116.42L616.829 115.75L616.049 114.79L617.529 113.83L619.229 114.79L619.619 114.69L620.319 114.93L620.749 114.5L620.709 114.31H619.999L619.739 114.02L618.999 114.16L618.169 113.82L618.129 113.05L618.829 112.43L618.259 112L617.869 112.58L617.779 113.39L616.039 114.11L615.079 113.97L614.819 113.49L617.039 110.81V110.28L617.739 110.04L619.479 107.21L618.699 106.44L618.999 104.91L618.829 106.3L618.959 106.44L619.439 106.3L619.399 106.68L619.749 106.87L620.229 105.96L619.399 105.38L619.699 105.09L620.529 105.33L621.049 104.66L621.309 105.43L620.919 105.53L620.959 106.11L621.439 106.4L622.269 108.77L623.199 109.68H624.239L625.019 109.3L625.799 109.4L626.709 109.98L630.059 113L631.539 113.29L638.539 113.05L639.759 113.34L643.199 114.82L643.369 115.25L642.809 117.45L641.199 121.86L639.629 124.68L638.889 125.49L637.979 125.59L636.329 125.06L634.849 124.92L632.719 125.02L628.239 124.64L623.979 124.74L623.019 124.5L621.799 123.93L618.799 123.5L616.669 122.64L614.229 121.87L610.219 119.01ZM697.179 138.7L695.919 137.65L695.359 136.74L694.659 134.87V134.06L695.399 132.29L696.179 131.43L698.089 130.14L701.219 131.77L701.569 132.25L702.049 134.21L701.959 135.07L700.389 136.79L699.559 136.74L698.949 137.03L697.179 138.7Z" fill="#CCCCCC" stroke="white" stroke-width="0.5"/>
<path d="M397.29 327.15L397.76 330.44L395.41 330.91L392.86 328.78L389.78 328.8L388.14 327.63L389.31 325.05L392.6 325.29L395.42 325.76L397.29 327.15ZM315.07 323.77L315.94 324.22L316.03 325.79L316.29 326.12L316.12 326.45L315.34 326.4L314.6 325.97L314.56 324.21L315.07 323.77ZM401.01 327.83H399.57L397.16 323.38L399.57 324.22L401.49 325.66L401.01 327.83ZM73.5 322.78L73.67 323.13L74.15 323.14L74.45 323.66L74.63 325.22L74.49 326.97L74.75 326.87L74.85 327.15L74.49 327.87L74.45 328.77V329.2L74.89 329.57L74.71 330.19L73.45 330L73.36 329.56L72.97 329.29L72.59 329.32L72.58 329.56L72.32 329.61L72.02 329.18L72.28 328.52L73.02 323.59L73.37 323.5L73.24 322.79L73.5 322.78ZM295.71 319.92L296.54 320.01L297.63 321.29L298.12 323L298.21 324.8L297.11 324.94L295.61 324.8L293.72 325.27L291.59 323.52L290.68 322.05L290.81 321.48L292.05 320.53L295.71 319.92ZM405.7 324.59L405.34 326.27L402.7 325.91L399.16 321.85L397.05 321.34L396.93 319.3H400.42L401.74 320.98L403.18 322.3L404.38 322.78L405.7 324.59ZM76.64 314.48L77.9 315.02L78.29 316.25H78.59V316.68L78.02 317.01L78.28 317.72L77.98 318.29L78.34 318.38L78.38 319.09L78.29 319.61L78.03 319.66L77.73 320.14L77.47 320.95L76.65 321.43L76.38 322.23L75.73 322.8L75.29 321.8L75.68 321.7L75.72 322.17H75.98L76.15 321.85L75.93 321.36L74.49 321.65L73.84 321.55L73.71 321.27L74.06 320.98L74.5 319.65L74.67 317.71L74.45 317L74.67 316L75.5 315.15L76.02 315.06L76.64 314.48ZM364.8 319.61L366.41 321.81L367.86 321.54L369.68 322.22L375.36 322.79L377.97 323.58L381.72 328.12L381.61 329.94L379.45 334.37L375.93 335.28L373.77 336.07L370.93 335.28L367.64 334.82L367.07 333.46L362.87 333.23L362.53 330.73L361.85 329.59L359.81 328.57L358.56 330.27L357.99 333.11L358.22 335.95L354.25 336.74L348.12 336.51L344.6 336.05L342.78 334.69L340.28 333.33L337.1 330.83H335.06L333.58 332.19L331.2 332.42L329.16 332.19L328.14 331.05L327.23 329.12L329.61 326.51L333.81 324.58L337.17 324.47L339.6 323.33L340.7 321.07L345.28 318.33L347 319.99L353.8 316.85H356.3L358.03 314.82L360.27 313.78L360.72 311.85L363.45 311.74L365.38 312.88L364.24 313.9L362.88 314.35L362.65 316.73L364.8 319.61ZM261.57 304.96L263.01 306.11L263.05 306.82L263.31 307.2L264.79 307.77L265 309.3L264.83 309.7L262.31 309.94L261.7 309.19L261.57 308.67L260.48 307.63L260.31 305.97L261.57 304.96ZM283.02 304.1L285.02 305L286.5 306.67L285.76 307L284.67 306.96L284.27 306.67L283.67 306.77L282.67 308.91L282.54 310.33L282.98 311.28L282.89 312.42L283.37 313.99L281.85 313.42L280.76 310.95L279.93 310.76L279.28 310.19L277.19 310L276.1 308.91L275.49 308.68L274.4 308.82L273.79 309.29L273.53 309.67L272.93 312.47L272.53 312.66L269.7 312.42L269.27 311.47L268.57 310.66L267.74 310.52L267.01 309.7L266.09 309.71L266.05 309L266.48 307.99L266.92 308.29L267.88 308.34L269.24 307.76L270.41 307.73L270.81 307.25H271.45L271.93 307.63L272.23 307.3L271.84 306.97L272.28 306.68L277.02 305.74L279.33 304.89L281.9 304.8L282.42 304.23L283.02 304.1ZM327.32 307.43L325.21 308.6L323.1 308.37L322.16 306.49L323.1 304.85L325.45 303.91L327.32 307.43ZM245.19 299.93H245.44L245.7 300.31L246.74 302.68L246.7 303.34L246.96 303.81L247.13 303.86L247.52 303.24L247.81 303.33L247.78 303.95L247.21 304.14L247.69 305.23L247.3 305.04L247.03 304.38L244.51 303.95L243.25 303.19L242.9 302.67L243.12 301.01L245.19 299.93ZM432.27 313.28L430.59 314.6L425.06 313.4L422.77 315.81L421.45 314.97L419.29 312.44L418.81 310.4L417.49 308.24L413.4 307.64L412.68 305.96L413.16 302.71L418.09 301.03L420.13 298.02L424.1 301.03L424.22 302.95L425.18 305.11L426.86 308.02L430.95 310.4L432.27 313.28ZM168.72 296.03L168.89 296.66L170.89 296.37L171.41 296.8L173.1 297.12L174.32 297.98L175.23 299.27L175.62 300.79L176.05 300.88L176.14 304.68L176.1 305.15L175.84 305.29L176 301.63L175.79 301.01L175.66 302.48L175.18 303.1L175.44 304.48L174.87 306.86L175.1 307.19L174.4 307.52L173.92 308.85H173.48L173.57 308.52L173.01 308.76L171.92 311.84H171.22L170.35 311.27L171.09 311.56L171.49 311.42L171.91 310.37L171.65 310.04L171.17 310.09L169.73 311.28L169.64 311.61L170.2 311.83L169.55 311.84L169.68 312.27L169.2 312.74L168.94 312.64L168.11 313.64L167.98 314.21L168.07 314.59L168.37 314.64L168.59 313.5L169.37 313.22L169.69 314.26L169.59 314.78L167.24 315.82L166.28 315.25L166.11 314.35L166.85 312.4L167.63 313.3L167.85 313.25L166.94 311.35L164.15 308.93L163.37 307.46L162.54 304.8V302.9L162.8 301.68L162.63 301.57L163.76 298.96L165.02 297.3L166.02 296.83L166.41 296.88L166.67 297.26L167.41 297.12L168.33 296.54L168.06 296.02H168.72V296.03ZM437.32 301.5L436.72 303.3L435.04 303.78L433 303.42L432.5 300.81L433.96 302.1L435.28 301.98L436.36 300.06L433.81 296.35L430.83 294.05V292H432.75L434.92 293.68L438.41 297.41L438.65 299.09L437.32 301.5ZM427.1 298.86H425.18L423.5 296.82L418.45 295.02L414.72 294.42L413.64 293.58L420.01 293.22L422.05 291.42L422.89 289.38L425.29 288.66L426.13 291.43L424.88 292.71L424.68 294.67L426.62 296.23L427.1 298.86ZM3.52 285.85L3.96 286.45L5.92 286.74H6.31L6.4 286.54L7.22 286.63L7.4 287.21L6.96 287.4L7 288.11L7.17 287.63L7.74 287.73L6.78 288.58L6.74 289.58H6.35L6.53 287.24L5.78 287.11L4.69 287.54L4.43 288.34L4.99 289.44L6.12 289.87L6.08 290.06L4.69 289.63L3.95 288.49L3.08 288.58L3.3 289.63L2.95 288.68L2 289.01L1.91 289.29L2.17 289.43L1.91 289.77L1.47 289.62L1.43 289.24L1 289.01L1.26 288.15L1.52 287.68L2.3 287.2L3.21 285.78L3.52 285.85ZM435.94 282.03L436.16 282.22L436.03 283.46H435.5L435.07 282.22L435.94 282.03ZM438.76 282.03L439.12 282.36L439.11 282.74L440.81 282.93L444.59 286.16L445.63 286.68L447.63 287.24L447.93 287.54H448.45L452.19 288.92L451.93 289.63L449.23 290.63L448.27 290.15L447.4 290.25L445.93 289.44L444.58 289.02L444.01 288.5L441.79 287.93L441.44 287.31L440.79 287.26L440.22 287.64L439.13 287.35L438.65 286.07L438.26 283.22L438.22 282.32L438.76 282.03ZM436.94 282.06L437.34 283.59L437.2 283.88L436.29 283.93L436.51 282.17L436.94 282.06ZM466.51 279.4L467.33 280.16L471.47 281.07L471.91 281.6L471.9 282.26L472.29 282.78L472.2 283.68L471.5 284.06L471.02 284.02L471.07 283.49L470.43 283.06L470.2 283.15V283.44L468.37 283.96L467.63 285.29L465.33 285.58L465.37 284.67L462.8 284.44L462.23 283.82L462.01 282.63L462.58 281.78L462.97 280.45L463.5 280.21L463.58 280.78L462.89 282.26L463.93 282.69L464.54 282.55L464.63 282.07L464.93 281.97L465.23 282.68L466.19 282.69L466.28 282.35L465.93 282.06L465.5 280.06L466.51 279.4ZM434.56 276.8L433.46 277.61L433.33 279.51L433.76 279.94L433.8 280.61L434.76 281.75L433.8 281.94L433.23 280.8L433.54 282.12L432.84 282.32L432.58 281.8L432.71 280.33L432.32 280.14L432.58 279.66L433.06 279.42L433.23 277.47L434.56 276.8ZM465.03 276.37L465.42 276.71L467.55 276.9L468.55 277.57L471.16 278.08L475.03 279.56L476.07 280.66L476.59 282.19L476.02 282.61L474.5 282.94L473.72 283.37H472.94L472.69 282.1L471.51 281L468.42 280.14L467.55 279.32L464.95 278.19L464.46 277.71L464.2 276.76L464.46 276.43L465.03 276.37ZM461.86 275.57L462.82 275.75L463.3 276.09L463.87 277.04L463.83 277.37L463.31 277.46L461.7 276.89L461.86 275.57ZM455.77 273.63L457.25 274L459.12 274.95L460.99 275.43L461.56 277.57L462.08 277.81L462.52 278.38L460.6 279.85L461.08 281.18L460.69 280.99L459.12 279.04L458.68 278.99L457.59 278.08L456.24 278.14L455.46 276.67L454.81 276.15L455.16 275.19L457.6 276L457.86 276.43L458.08 275.86L455.69 274.9L455.73 274.04L455.52 273.72L455.77 273.63ZM450.81 270.76L451.24 270.77L452.81 271.86L452.64 272.1L452.38 272.05L452.29 273.24H452.81L453.42 274.76L453.77 274.95L454.16 275.81L453.35 277.28L452.82 277.61H452.21L451.04 276.14L450.3 275.61L449.73 275.52L449.64 275.19L449.07 274.81L449.45 274.14L449.11 273.33L449.54 272.77V272.29L449.28 272.1L449.5 271.2L449.94 271.1L450.42 271.77L450.86 271.86L450.64 271.2L450.81 270.76ZM474.86 266.95L475.73 267.53L476.77 267.63L476.94 267.96L476.81 268.48L476.59 268.62L474.72 268.24L474.46 267.72L474.59 266.95H474.86ZM122.91 265.3L123.08 265.68L124.87 266.3V266.82L125.17 267.11L126.3 267.25L126.65 267.49L127.34 271.2L127.95 272.72V274.19L126.86 274.38L126.38 274.09L126.08 275.04L126.64 275.55L126.46 275.66L125.85 275.37L124.59 277.32L125.03 277.75L124.38 277.8L123.9 281.03L123.64 285.78L123.77 286.73L122.34 286.97L121.96 286.73L122 285.83L122.7 285.88V283.78L123.1 281.12V278.36L122.74 277.32L122.35 277.08V276.37L122 276.32L121.78 276.8L121.52 276.71L121.73 276.04L119.16 274.52L118.38 272.33L118.25 271.38L119.12 270.19L120.42 267.67L121.46 267L122.11 265.38L122.91 265.3ZM477.69 263.82L478.08 264.2L478.33 265.24L477.81 265.54L477.64 266.3L476.86 266.59L476.43 266.21L476.13 265.07L476.91 263.98L477.69 263.82ZM468.04 263.23L469.21 264.06L470.35 264.25L471.08 265.16L471.73 265.11L472.77 265.64L473.26 266.3L473.34 268.11L471.3 267.73L470.08 268.78L469.73 268.54L468.82 268.59L466.69 266.4L466.52 265.64L465.95 265.59L465.52 264.88L467.87 263.88L468.04 263.23ZM468.51 259.42L473.38 260.54L474.08 260.22L474.86 261.21L475.47 260.97L475.99 261.21L477.03 261.26L479.12 260.93L480.16 261.4L479.55 261.54L479.29 263.44L478.25 261.6L477.63 261.55L477.16 261.79L477.07 262.03L479.11 263.79L478.89 264.08L478.18 263.69L476.84 263.65L476.06 262.65L474.24 261.84L472.58 262.13L472.15 262.84H471.28L470.63 262.45L470.02 262.41L469.5 261.84L469.54 261.22L468.54 260.79L468.76 260.12L468.58 259.74L468.1 259.65L468.14 259.41L468.51 259.42ZM461.76 258.08L462.29 258.15L462.38 258.35L461.6 258.97L460.69 260.59L460.56 261.35L459.47 262.59L458.95 264.11L458.99 264.97L459.95 267.73L460.47 268.54L460.73 269.59L461.69 271.11L462.04 272.68L461.52 273.92L461.17 273.97L460.74 272.88L460.86 272.17L460.65 271.79L460.35 272.17L459.78 272.22L454.95 269.94L452.04 269.32L449.6 267.04L449.34 266.33L449.56 266.14L450.3 266.33L453.13 265.89L455.35 264.87L457.87 262.63L461.76 258.08ZM31.14 255.55L31.75 255.98L31.58 256.41L31.84 256.93L32.97 257.21L33.06 257.54L32.63 257.68V258.52L31.02 260.86L30.94 261.34L30.46 261.43L29.94 260.86L29.68 260.14L28.81 259.38L28.77 259L29.51 257.73L29.55 256.53L30.07 255.96L30.77 255.91L31.14 255.55ZM475.91 252.47L476.56 252.5L477.6 253.26L477.64 254.69L478.04 255.82L477.03 255.5L475.9 255.55L475.81 255.12L476.33 254.12L475.33 253.31L475.11 252.88L475.54 252.45L475.91 252.47ZM473.56 249.52L474.08 249.74L474.26 250.36L474.03 251.12L474.07 252.41L475.2 254.26L474.72 255.02H474.37L472.89 253.78L471.77 254.01L470.02 254.97L467.93 254.07L467.28 254.35H466.15L466.11 253.83L466.63 253.45L466.11 253.21L466.76 252.84L466.98 253.12L467.67 253.02L467.9 253.64L469.42 252.88L470.25 252.07L471.15 250.64L470.98 250.07L471.11 249.83L473.02 249.74L473.56 249.52ZM484.17 248.47L484.87 249.03L485.78 249.22V249.59L486.47 250.17L486.56 251.03H486.03L486 250.51L485.34 250.42L484.73 250.46L484.38 250.8L484.34 249.66L483.9 248.9L484.17 248.47ZM162.1 221.24L163.19 221.65L163.83 223.03V223.84L163.27 224.74L163.23 225.74L162.84 225.93L161.8 225.41L161.5 224.84L161.49 224.22L160.76 223.7L160.41 223.13L160.37 222.13L160.76 221.42L162.1 221.24ZM241.69 204.49L242.78 204.77L243.52 205.25L244.26 206.96L244.82 207.06L244.43 207.73L245.52 209.06L245.56 209.3L245.3 209.4L244.21 208.02L243.82 208.88L243.91 210.93L243.35 210.88L242.87 210.5L242.97 209.83L242.22 209.68L241.1 208.2L240.32 207.58L240.01 206.87L239.97 206.44L240.8 204.63L241.69 204.49ZM207.42 196.59L207.89 197.05L208.16 198.29L208.99 198.96V200.01L208.9 200.2L208.68 200.01L208.29 200.53L208.12 200.43V199.76L207.64 199.38L207.47 198.57H207.08L205.73 197.66V197.33L206.21 196.95L206.99 196.57L207.42 196.59ZM136.52 193L136.87 193.52L136.83 194L138.18 195.29V195.86L137.75 196L137.62 196.53L136.96 196.19L136.13 195.09L135.91 193.42L136.52 193ZM446.73 315.69L447.55 315.17L447.68 314.65L446.89 313.95L446.37 313.04L446.76 312.99L446.67 313.27L447.15 313.7H447.89L450.02 312.75L450.37 312.32L451.37 312.13L451.98 311.66L451.5 310.85L451.76 310.52L452.24 310.85L452.37 311.38L453.41 310.71L453.8 310.29L453.76 309.62L455.63 308.62L456.15 307.95L456.41 307.47L456.2 307.29L455.2 308.34L454.59 308.29L455.42 307.77L456.25 306.19L456.68 306.06L456.98 304.73L457.81 303.86L458.77 304.82L459.55 305.01L468.6 304.54H468.82L469.04 305.01H469.91L469.78 304.4L469.17 304.34L459.25 304.77L458.42 304.25L458.11 303.4L458.72 301.12L459.63 301.59L458.98 300.36L459.02 299.65L459.98 296.03L460.55 296.09L460.68 295.8L460.55 293.47L460.72 293.14L461.51 292.85L464.33 293.04L465.63 292.71L466.11 292.9L467.5 292.61L467.89 292.8L468.63 292.74L468.41 292.04L468.5 291.48L466.2 291.43L465.2 291.71H463.98L463.63 292.61L462.97 292.47L462.5 292.14L461.85 291.14L462.16 290.95L463.12 291.28L464.55 291.33L464.38 291.09L462.86 290.98L462.6 290.75L463.73 289.9L464.25 289.19H464.64L464.38 287.62L463.81 286.77L463.68 287.2L463.85 287.96L463.46 288.39L463.33 289.53L462.72 289.63L461.98 289.43L462.2 290.01L461.86 290.48L461.43 289.86L461.08 289.91L460.78 290.72L459.95 290.53L458.82 289.87L459.12 289.06L459.42 288.92L460.99 289.53L461.25 288.91L455.42 287.01L453.47 286.68L453.51 286.97L458.64 288.63L458.26 289.78L457.99 289.82L453.35 288.07L452.86 287.21L451.9 286.83L451.64 286.5L450.81 286.64L450.29 286.17L450.08 285.64L447.63 284.79L447.37 284.89L450.08 285.98L449.85 286.74L449.11 286.6L448.2 285.94L447.29 285.75L446.03 284.94L444.98 284.99L442.63 282.71L441.15 281.62L441.24 281.34H442.02L441.8 280.97L440.81 280.91L440.28 281.72L439.5 281.67L439.24 281.34L440.28 281.1L440.24 280.86L439.2 280.91L438.81 280.72V280.24L437.77 280.19L437.64 280.62L436.86 280.33L436.43 281.28L434.6 280.14L434.73 279L435.99 278.76L436.38 280.04L441.64 276.99L442.42 275.1L445.38 272.63L446.55 270.98L445.42 271.45L443.94 269.97L444.46 268.07L444.89 268.35L445.93 267.64L446.23 267.31L446.06 266.79L446.41 266.41L444.8 266.7L444.5 267.03L444.67 266.6L447.02 265.93L447.28 266.36L447.72 266.26L448.2 266.74L447.24 268.45L448.98 270.21L450.07 269.36L449.5 270.21L448.58 270.63L448.15 271.63L447.41 272.53L448.37 274.76L451.63 277.66L452.33 278.09L453.5 278.08L453.28 278.37L452.5 278.47L452.93 278.99H453.58L453.67 278.56L454.15 278.61L455.32 279.47L455.93 279.37L456.58 280.42L457.54 281.09L457.24 281.66L457.33 282.04L457.03 282.28L458.07 282.85L459.07 282.56L460.55 282.74L461.2 284.51L462.98 285.55L463.63 286.31L464.6 285.64L469.55 285.93L471.4 284.93L472.16 284.69L472.64 284.88L474.34 284.4L482.86 281.69L483.34 281.12L483.52 280.26L483.3 279.89H482.99L482.29 280.84L481.46 281.08L480.2 280.75L479.81 281.37L479.24 281.65L477.5 281.89L477.07 281.64L476.85 280.18L478.94 278.04L479.42 276.85L479.03 276.09L473.94 275.9L472.85 275.57L472.11 275.66L471.2 276.24L470.02 276.1L469.02 275.62H467.46L466.5 274.86L464.89 274.72L464.02 275.01L463.41 274.67L462.71 274.73L461.75 274.21L461.97 273.31L462.72 273.07L463.06 273.41L463.51 272.74L462.46 272.18L461.5 269.79L461.11 269.5L461.37 269.02L461.67 269.45L462.03 269.22L461.28 267.89L460.1 266.56L459.67 264.99L459.71 264.09L460.06 263.38L460.49 263.33L460.66 262.76L461.05 262.51L461.09 261.61L462 262.13L462.05 261.75L461.48 261.42L461.35 261.09H463.92L463.57 262.56L464.05 263.84L465.57 266.26L468.27 269.02L469.79 269.54L470.66 269.44L473.57 270.68L476.22 271.39L478.87 271.72L480.43 270.97L481.26 270.21L481.78 269.35L482.27 269.05L482.96 267.68L483.09 265.78L483.52 264.77L483.4 264.3L484.09 263.98L484.35 263.5L484.31 263.03H484.87L485 263.42L485.21 263.14L485.17 262.75L483.47 261.56L483.86 261.33L485.26 262.55L485.51 262.03L485.94 262.17L486.24 262.03L486.85 260.32L486.33 259.8L487.68 257.93L488.03 256.32L487.73 255.75L487.25 255.46L487.16 254.89L486.03 254.79L484.11 255.36L483.85 255.6L484.2 256.22L483.94 256.41L482.29 256.84L481.63 257.31L480.46 257.22L480.02 257.79L479.67 257.65L479.06 256.37L478.35 255.94L477.88 255.23L478.18 253.85L477.88 253.52L477.92 252.47H477.48L477 251.66L476.83 250.71L477.18 250.19L477.78 249.96L478.14 249.19L478.66 249.05L478.71 248.67L477.93 248.57L477.58 247.62L477.89 246.63L478.41 245.57L479.24 245.52L479.98 246.04L479.94 246.37L480.55 246.32L480.72 245.99L481.59 245.89H482.29L482.99 246.22L483.12 246.55L482.69 246.84L483.26 247.23L483.35 247.69L483 247.93L483.26 249.5L483.84 250.17L483.74 251.02L483.57 251.21L482.48 251.16L481.44 251.45L481.31 252.07L481.57 252.45L481.4 253.64L481.62 254.5L482.14 255.07L482.44 255.93L483.01 256.17H483.18L482.01 254.03L482.66 252.7H483.14L484.54 251.89H486.49L486.88 252.18L490.01 249.23L489.23 248.56H488.4L488.75 248.23L488.71 247.9L488.23 247.85L487.93 247.33L488.41 246.85L489.3 246.65L490.32 246.94L491.8 246.51L491.33 246.22L490.76 245.18L492.54 245.42L492.84 245.04L492.19 244.95L491.89 244.53L490.89 244.38L490.76 244L491.02 243.95L491.11 244.14L491.41 243.9L491.12 243.13L490.72 242.99L490.29 243.67L489.94 245.57L488.29 245.29L488.16 245.05L488.46 244L488.25 243.43L488.9 243.81L489.08 243.33L488.73 243.1H487.6L488.3 242.34L488.91 242.15H489.43L489.21 242.86L489.43 243.15L490.21 242.96L490.82 241.66L491.69 241.05L491.51 239.57L490.39 239.76L490.04 239.57L490.08 238.67L490.69 238.38L490.73 237.71L491.17 237.76L491.3 238.33L491.78 238.23L491.39 235.95L491.51 235.52L490.82 234.9L490.26 235.29L489.57 234.9L487.78 234.95L487 234.19L487.09 233.86L487.7 233.62L487.95 233.18L488.3 233.23L488.65 233.75H488.87L491.13 232.23V231.9H490.7L488.92 233.33L489.05 231.95L489.96 231.08L491.05 230.75V230.56L489.95 230.84L488.57 231.7L488.48 231.51L489.87 230.75L490.48 229.99L491.3 229.46V229.03L491.6 228.7L492.95 228.08L493.34 227.27L494.25 226.56L495.95 224.51L497.86 221.08L498.51 219.13L499.25 219.32L500.21 220.18L501.86 221.04L503.29 221.38L504.03 221.89L504.42 221.8L504.46 220.99L503.9 220.7L502.81 220.75L500.2 219.22L499.72 218.65L500.16 217.03L500.94 215.89L502.81 214.6L503.08 214.66L502.99 215.18L502.38 216.18L504.25 214.99L505.08 215.28L506.91 215.29V217.9L508.26 219.71L508.83 220.05L509.7 221.1L509.92 220.77L507.65 218.43L508.04 218.38L508.39 217.81L507.39 217.38L507.13 213.95L507.39 213.23L507.3 212.19H507.48L507.87 213.67L508.13 213.96L508.87 214.01L512 212.68L512.14 212.35L511.87 211.68L512.35 212.44L513.65 212.25L513.74 211.06L513.96 210.91L513.83 209.96L514.08 210.96L513.87 211.11L513.91 212.06L516.91 210.2L516.43 209.39L516.91 209.15L516.78 209.39L517.05 209.63L517.44 209.59L517.92 208.49L518.05 208.82L518.44 208.92L520.09 207.49L520.13 207.2L519.05 206.58L519.27 206.1L520.05 205.62L519.83 206.38L520.96 207.24L521.7 205.76L521 205.33L521.26 204.8L521.48 204.93L521.22 205.18L522 206.04L522.57 205.8L521.66 204.37L522.01 204.42L522.23 205.09L522.58 205.04L526.02 203.08L526.94 201.93L528.2 202.26L530.02 200.64L530.29 199.88L530.81 199.83L533.03 198.11L538.29 193.24L539.16 192.91L540.33 192.96L545.24 190.48L545.45 191.01L546.48 194.08L565.66 249.54L568.49 256.53L579.62 256.91L589.67 256.77L593.81 255.29L594.15 255.23L595.53 255L605.58 255.57L612.2 255.25L616.37 254.46L619.69 253.23L621.9 252.06L623.81 250.68L627.85 246.21L632.07 245.78L633.42 245.11L638.73 241.3L640.64 240.54L644.51 240.21L646.21 239.69L648.04 238.64L649.21 237.17L652.12 237.79L654.86 239.08L657.21 239.89L662.69 241.03L665.3 240.93L669.95 239.88L672.89 237.97L675.93 245.32L676.19 246.11L676 247.1L675.61 247.98L674.72 249.01L671.52 251.84L671.43 254.01L671.93 256.93L671.68 258.32L667.48 260.89L667.13 263.42L667.85 266.01L667.91 267.97L668.91 270.5L669.07 279.32L668.66 281.89L668.72 283.26L669.01 284.64L670.02 285.18L672.95 287.74L674.58 289.93L675.09 293.76L675.18 298.07L674.93 301.29L671.59 306L668.03 311.66L666.28 317.43L666.25 318.37L666.79 319.09L667.68 319.59L668.99 319.92L671.32 319.9L673.75 319.53L676.14 320.65L678.46 322.08L679.55 322.12L680.68 321.88L682.28 320.79L687.11 318.36L692.93 318.04L694.4 319.79L694.19 321.46L694.72 323.21L695.23 323.99L696.32 324.95L697.32 332.76L700.39 336.61L704.01 343.14L704.51 345.31L703.64 345.98L702.07 346.6L685.22 350.93L675.19 356.15L673.62 356.74L672.1 356.54L668.44 353.88L667.59 352.56L665.97 352.35L661.24 354.36L659.36 354.67L657.8 354.57L655.45 353.85L644.77 353.44L642.8 353.98L640.89 354.94L636.38 358.31L638.45 358.33L632.56 361.04L630.65 361.64L629.33 362.62L627.19 363.22L621.34 363.73L619.47 364.25L619.76 367.49L620.29 369.68L621.54 370.8L624.86 372.98L626.84 374.18L629.19 374.96L630.57 376.09L632.1 376.9L632.85 378.33L633.35 380.07L632.7 388.75L633.83 395.99L633.74 397.7L633.23 399.38L631.11 402.63L625.58 409.33L624.46 411.32L622.58 415.85L621.8 418.75L621.65 422.44L620.96 427.76L619.65 431.99L618.99 435.07L618.18 436.59L616.93 438.12L614.57 439.85L610.9 443.34L608.35 446.51L607.47 448.11L605.6 458.94L603.41 467.55L602.71 471.42L599.2 481.43L597.77 484.3L594.58 488.75L593.33 492.37L589.99 496.86L586.51 503.33L585.16 504.82L583.37 508.02L582.59 510.56L582.51 512.41L582.01 513.5L581.97 515.57L582.25 517.06L581.06 518.99L579.9 521.56L578.83 524.35L578.5 526.1L578.65 534.76L578.05 538.09L577.92 540.1L578.53 545.03L579.1 558.62L579.34 560.01L578.38 566.1L576.74 573.7L576.63 574.74L577.19 577.26L577.35 579.16L545.25 613L366.74 571.22L273.95 550.5L165.85 528.88L61.35 403.66L10 339.7L11.2 325.75L12.33 320.46L10.63 318.76L9.31 316.87L8.92 315.12L11.13 314.08L11.3 312.37L11.47 312.32L11.6 313.21L12.47 310.18L12.13 309.56L11.69 309.52L11.65 307.38L11.21 306.29L11.38 305.58L10.64 305.39L11 303.96L10.47 302.59L10.38 301.55L11.08 300.46L10.73 298.27L10.21 297.71L9.46 297.85L9.25 297.57L9.33 297.05L8.94 296.48L10.55 295.63L10.11 294.39L10.2 293.96L10.9 294.09L11.94 294.9L13.46 297.65L14.37 297.55L15.11 298.31L16.11 300.78L16.55 301.2L16.72 301.73L16.24 302.62L17.12 303.33L17.55 303.42L17.81 304.56L18.37 305.13L18.12 306.22L17.58 306.26L17.54 305.97L17.02 306.07L17.06 306.59L18.1 307.07L18.15 307.35L17.24 307.17L16.81 307.45L16.68 308.16L16.98 309.3L16.28 309.82L16.11 310.53L16.24 313.99L17.15 315.74L17.24 317.52L17.07 318.59L17.64 319.54L18.55 320.3L18.77 320.96L18.28 322.43L17.63 322.05L16.8 322.14L16.89 323.09L17.19 323.42H18.15L18.67 323.18L19.36 321.42L19.93 321.04H20.76L21.02 320.42L21.98 319.99L21.89 318.85L22.41 318.47L23.11 317.13L23.24 314.96L23.07 314.15L22.5 313.58L22.67 311.25L22.23 309.87V308.83L21.4 308.5L20.92 308L20.84 306.43L20.27 305.97L19.49 305.82L19.53 305.44L20.14 305.59L20.31 305.4L20.18 304.3L19.79 303.54L20.27 302.59L20.66 302.87L20.79 303.58L21.4 304.29V306.52L22.97 308.47L23.11 309.66L22.54 309.94L22.89 311.22L23.37 311.08L23.85 311.75L24.59 314.12L25.68 315.54L25.55 316.49L25.81 317.91L25.77 319.52L26.07 321.04L26.72 321.94L28.46 322.45L29.16 322.41L29.99 322.03L30.9 320.99L30.95 320.66L29.82 317.53V316.01L30.12 315.11L30.9 314.82L31.2 313.97L31.72 313.59L32.29 312.26L33.24 310.84L34.55 309.46L34.54 309.17L34.01 309L33.92 308.19L34.23 308.15L35.01 309.05L37.62 310.32L39.83 312.47L40.31 313.74L39.13 316.69L39.26 317.97L40.26 319.82L39.48 320.72L38.91 322.24L39.48 325.94L38.87 326.07L38.05 327.12L38.01 328.97L37.44 329.02L37.31 329.54L37.7 329.97L38.01 329.78L38.36 329.97L38.05 330.44L37.31 330.15L37.23 331.76L37.97 333.36L38.67 336.4L39.45 337.59L39.84 339.48L40.23 340.24L40.14 341.52L40.66 342.66L40.88 344.84L40.71 347.92L40.1 348.82L40.54 352.8L41.06 353.94L43.28 357.21L44.37 357.59L47.76 360.43L48.54 360.81L51.93 361.47L53.58 361.42L55.1 362.08H55.8L56.54 361.6L58.33 361.65L60.85 362.55L61.46 362.46L61.55 362.18L61.11 361.81L60.34 361.61L59.64 360.86L59.73 359.53L60.82 359.48L61.47 360.24L61.82 360.19L62.86 358.77L63.43 358.72L64.3 358.15L66.3 358.2L66.95 357.68H67.47L67.86 358.15L67.64 358.77L67.77 359.29L69.29 360.47L71.25 360.85L71.99 360.75L74.12 361.42L76.6 360.8L77.25 360.28L77.08 359.9L77.69 359.8L80.95 363.21L83.78 364.54L86.26 364.77L87.43 365.29L88 365.15L88.3 364.49L89.91 363.59L91.03 363.54L91.82 364.15L93.17 364.62L95 364.86L96.35 365.29H97.52L99 364.96L103.91 365.06L106.08 364.68L110.04 363.45L113.74 362.6L124.44 358.39L125.48 357.68L125.7 356.45L127.22 355.17L128.87 354.46L129.96 353.56L134.14 351.34L139.32 349.97L144.41 347.08L145.45 346.13L145.93 345.56L146.46 344.04L146.28 343.19L143.89 341.29H143.32L142.28 340.39L141.89 338.59L142.37 337.78L143.59 337.5L144.2 337.69L144.59 338.16L144.28 339.54L143.5 340.06L143.59 340.87L145.98 342.62L147.55 342.67L148.38 342.01L148.73 341.2H152.47L154.34 340.02L155.74 338.55L162.69 335.75L164.21 334.75L164.26 334.33L162.95 332.91L163.56 331.06L163.95 328.39L163.86 327.17L163.51 326.74L165.06 326.17L167.03 324.84L168.6 324.41L170.69 325.07L171.17 325.69L172.56 326.02L173.52 325.17L173.56 325.34L172.56 326.31L173 326.97L173.48 327.11L173.65 327.44L173.69 329.57L174.87 329.8L177.17 331.03L179.17 334.17L179.47 335.31L180.08 335.36L180.91 335.03L181.21 334.7L180.99 333.66L181.26 333.61L184.6 333.47L185.12 333.99L186.08 334.23L186.52 331.15L186 330.91L185.96 330.58L186.53 330.91L186.71 329.82L185.65 328.45L185.79 328.25L187.01 329.53L186.4 333.51L186.53 334.08L187.4 334.13L187.36 329.95L187.76 330.01L187.88 330.39L187.58 330.48L187.54 332.09L187.67 334.22L188.98 334.17L188.89 332.51L189.54 332.65L190.71 333.5L191.14 334.17L193.19 336.15L194.63 336.96L196.41 336.72L198.89 335.96L204.81 333.4L205.77 333.21L206.68 333.31L208.33 335.63L209.24 336.06L210.63 335.92L211.89 336.11L212.24 335.73L212.94 335.49L214.42 335.44L217.12 333.68L217.9 333.49L218.25 333.77L218.08 334.1L219.91 335.81L222.04 335.76L226.91 333.01L227.38 332.54L227.43 331.88L228.13 331.6L228.6 332.09L228.69 332.65L229.78 333.31L232.48 334.07L233.04 334.45L235.39 335.02L235.35 334.59L234.13 334.26L232.91 332.74L233.31 332.93L233.48 333.36L234.18 333.98L235.53 334.31L235.48 333.69L235.75 333.88L235.87 334.73L236.39 335.49L239.3 337.67L241.3 337.58L247.44 335.26L250.26 335.39L251.35 335.05L252.13 334.06L251.74 330.16L252.74 329.21H253.65L254.35 329.93L255.52 330.36L256.61 330.17L257.01 330.77H257.53L257.7 330.45L258.27 330.73L258.53 331.54L259.18 332.16L261.79 332.78L262.57 333.3L263.26 334.4L263.53 335.67L264.71 336.04L264.83 336.43L265.74 337.38L266.83 338.38L267.79 338.9L268.62 340.13L271.49 339.89L272.27 340.02L272.31 338.94L272.78 338.93L273.48 339.51L274.44 339.13L276.4 339.89L276.88 339.75L276.75 339.23L277.32 339.14L278.45 340.47L278.93 340.75L279.1 341.66L279.4 341.85L279.92 341.76L280.92 340.53L281.3 340.34L281 341.48L279.39 343.04L279 343.89L279.26 344.08L280.23 343.46L280.61 344.5L283.13 343.13L284.57 343.41L284.74 342.65L283.78 341.47L283.69 340.71L284.47 341.14L285.64 341.09L286.12 340.43L288.43 339.81L289.43 339.19L290.4 339.18L291.39 339.61L292.09 339.66H293.13L295.35 339.19L298.05 337.25L299.88 336.63L300.23 336.68L300.71 337.25L301.5 336.77L303.41 338.06L303.97 339.62L305.06 338.71L305.23 340.38L306.53 340.95H307.14L307.27 339.91L307.71 339.67L307.41 340.95L309.93 342.23L312.45 343.27L313.49 342.8L314.97 342.85L315.55 343.22L316.8 345.12L316.5 345.88L318.03 347.86L320.85 350.32L321.94 350.33L322.72 350.85L324.67 350.75L325.8 351.08H327.19L328.97 350.61L334.97 349.71L336.84 349.08L337.58 349.04L339.93 347.9L341.54 346.57L342.02 347.14L343.59 347.8L346.07 348.42L348.46 348.47L350.24 348.04H352.59L354.51 348.22L356.42 349.08L359.12 348.99L367.04 349.43L373.85 346.61L378.78 344.97L391.22 339.57L395.68 337.93L402.25 337.7L407.42 335.12L411.88 333.24L413.52 329.01L415.16 327.13L418.68 326.19V323.61L415.16 320.09L413.05 319.86L410.47 317.04L406.28 314.92L405.92 314.44L404.88 313.92L402.79 313.54L401.01 313.82L400.31 313.44L400.27 313.07L400.45 312.92L400.8 313.54L401.15 313.68L401.28 313.4L400.8 312.69L400.84 312.15L401.93 311.79L402.31 311.4H402.5L402.8 311.93L403.1 311.5L402.54 309.41L401.53 308.28V307.85L402.49 307.9L409.1 302.93L409.77 306.95L412.82 311.18L415.64 314.23L419.63 317.99L421.98 320.81L425.27 321.98L431.37 321.28L435.13 319.87L441.7 321.28L443.81 317.05L446.73 315.69ZM110.17 181.33L111.3 181.54L111.47 182.03L110.3 182.12L109.73 181.6L110.17 181.33ZM211.38 158.92L212.29 159.24L212.46 159.71L212.29 160.01L212.25 163.31L211.95 162.83L211.21 162.88L210.91 162.69L210.69 162.36V161.5L210.17 160.93L210.08 159.64L210.25 158.97L211.38 158.92ZM422.24 143.46L423.5 144.08L424.82 146.37L424.99 149.34L425.34 150.72H424.95L423.47 149.81L420.86 149.91L420.25 149.72L419.51 149.29L418.77 148.33L418.42 146.7L418.64 145.27L421.16 143.59L422.24 143.46ZM138.92 69.3601L139.75 70.3501L139.72 71.5001L138.67 72.3601L137.8 71.9301L137.76 70.7801L138.28 69.8201L138.92 69.3601Z" fill="#CCCCCC" stroke="white" stroke-width="0.5"/>
<path d="M554.37 183.69L554.98 184.07L555.5 183.69V183.36L557.54 181.74L558.11 180.83L565.5 172.43L566.41 171.09L568.15 169.56L568.45 168.56L569.54 167.27L570.37 166.79L574.98 161.49L578.5 156.81L585.15 147.2L585.76 146.1L585.8 145.38L585.41 145.19L585.23 144.71L586.06 144.81L585.36 144.14L585.8 143.57L586.71 144.19L586.93 143.14L586.02 142.28L586.37 142.18L587.24 143.14H587.54L588.63 141.75L588.72 141.03L589.07 140.65H588.68L588.33 141.13L587.59 141.37L587.37 141.7L587.07 141.56L587.16 140.89L588.33 139.79H588.68L589.46 138.83L589.85 138.73L590.15 139.4V140.69L589.63 141.31L589.67 141.64L590.28 141.78L591.24 141.59L592.07 141.97L595.03 144.7L595.81 146.66L598.2 148.43L598.33 149.29L596.94 150.77L597.03 151.63L596.73 152.16L595.86 152.26L594.21 153.12L593.99 154.51L594.9 153.89L595.03 153.32L595.29 153.18L595.81 153.08L595.72 154.08L595.98 154.37L597.42 153.56L597.77 153.13L598.47 152.89L599.34 151.22L599.04 149.07L599.52 149.26L599.78 148.73L599.43 148.59L599.39 148.83L599 148.78L598.83 147.97L598.26 147.01L597.78 146.58L597.13 146.72L596.74 146.48L595.87 144.57L594.78 143.85L592.48 141.6L591.87 141.22L590.04 141.51L590 141.18L590.56 140.51L590.43 139.89L591.69 139.36L595.91 136.11L596.48 135.43L598.42 136.63L602.5 137.57L604.07 137.52L606.11 137.18L609.63 136.03L613.07 134.64L614.81 133.59L616.64 137.75L618.25 139.57L621.42 140.77L624.64 142.49L625.99 143.73L626.95 145.36L629.65 147.85L635.39 152.01L637.09 152.58L640.09 152.63L640.7 153.01L641.27 153.82L643.53 162.33L645.88 173.75L647.27 177.81L647.44 178.91L647.14 179.96L646.36 181.15L642.27 184.92L640.7 188.74L640.61 190.65L641 192.51L641.83 194.42L644.14 197.09L646.05 198.57L646.57 199.48L646.83 201.82L647.87 204.82L647.44 209.06L647.74 211.73L649.26 219.4L650.17 221.35L650.95 226.78V230.35L650.52 233.87L650.04 235.58L649.21 237.15L648.04 238.62L646.21 239.67L644.51 240.19L640.64 240.52L638.73 241.28L633.43 245.09L632.08 245.76L627.86 246.19L623.82 250.66L621.91 252.04L619.7 253.21L616.38 254.44L612.21 255.23L605.59 255.55L595.54 255L594.16 255.23L593.82 255.29L589.68 256.77L579.63 256.91L568.5 256.53L565.67 249.54L563.1 241.69L560.97 236.12L559.58 231.64L546.49 194.08L545.46 191.01L545.25 190.43L546.73 189.62L548.08 188.52L549.78 187.8L550 188.37L551.09 187.56L551 186.8L550 184.32L550.35 183.8L550.13 184.42L550.43 185.37L551.08 186.85L551.86 187.57L552.77 190.34L552.03 191.44L552.64 191.82L553.6 191.44L554.38 190.72L554.99 189.77L556.9 188.15L556.86 187.82L556.25 187.92L555.47 188.92L554.12 189.59L554.38 189.83L554.16 190.26L553.99 190.31L553.9 189.98H553.42L553.16 189.03L555.99 186.41L555.34 185.98L553.56 187.6L553.17 188.22L552.78 188.32L552.48 188.03L552.13 186.69L552.26 186.36L551.56 184.69L551.73 183.93H551.16L551.07 183.74L553.55 183.07L554.37 183.69ZM731.09 217.25L730.31 218.76L729.85 220.75L729.82 222.64L729.29 224.83L728.89 225.48L725.43 226.51L724.87 227.99L724.22 230.89L723.35 231.56L719.47 232.8L716.03 232.37L714.66 232.47L711.31 231.57L709.87 230.32L714.67 224.86L717.28 218.05L720.19 217.29L723.06 217.62L726.84 217.05L731.09 217.25Z" fill="#CCCCCC" stroke="white" stroke-width="0.5"/>
<path d="M745.58 211.44L744.9 212.31L743.29 208.62L743.03 207.28L741.94 206.04L740.85 205.52L742.01 203.19L742.49 200.29L746.67 199.69L750.75 199.98L753.37 200.56L754.11 201.12L754.21 204.61L753.32 205.75L752.09 206.4L747.26 207.68L746.57 209.8L745.58 211.44ZM759.49 133.75L759.1 134.75L758.93 139.44L757.89 144.13L756.98 151.11L756.85 157.99L756.46 160.48L757.07 172.29L751.93 172.02L746.98 172.31L744.65 174.64V177.85L747.86 183.39V187.47L747.47 192.78L744.66 191.84L738.83 191.55L734.78 187.56L735.1 183.45L733.58 181.93L730.96 178.14L727.46 176.68L724.63 177.09L724.84 172.02V159.78L726.88 153.08L727.17 149.87L732.92 146.89L733.08 147.44L733.6 147.97L735.21 148.69L740.82 149.79H741.95L743.04 149.45L745.17 147.35L749.3 144.82L751 144.05L752.04 142.57L752.26 141.52L752.43 139.18L753.04 138.03L753.78 137.17L755.42 135.92L759.07 133.62L759.49 133.75ZM729.39 73.1699L732.02 75.3599L732.68 77.3299L733.78 78.8599L735.31 80.1699L737.06 81.0499L739.19 81.2399L742.83 77.9699L743.09 79.4099L743.92 80.9899L746.05 82.8099L746.44 82.7099L746.53 82.4699L746.31 81.8899L746.66 81.7899L746.62 82.3699L747.84 81.9399L747.8 81.5599L747.1 81.2199L747.32 81.0799L748.41 81.8999L749.19 81.9499L752.71 83.4899L753.54 83.0599L753.67 83.5399L754.58 83.7799L755.15 84.4499L756.37 84.3499L756.67 86.3599L756.15 90.2399L756.5 92.8299L757.37 93.9299L757.2 94.7399L757.63 94.8399L757.8 95.4599L758.54 95.6999L758.71 96.4699L758.23 99.1099L757.58 100.93L757.45 102.32L757.06 102.61L756.97 103.14L757.45 103.81L757.58 104.62L757.41 108.5L756.93 111.81L757.23 113.2L757.97 113.44L757.8 114.25L754.17 117.48L751.6 120.74L750.43 121.65L749.04 122.42L744.52 123.95L743.22 124.81L742.48 125.86L742.13 127.44L741.91 130.65L741.39 131.85L737.48 133.76L735.57 134.24H732.96L731.44 133.76L731.14 133.19L732.1 131.56L731.97 131.18L725.97 129.5L723.93 129.69L721.23 132.13L719.84 132.7L719.23 133.66L719.14 134.19L719.49 134.38L720.4 134.48L722.62 134.05L723.36 134.1L723.88 134.34L724.71 135.82L726.32 136.25L728.58 136.01L728.88 136.2L728.97 136.58L727.84 138.78L727.36 139.31L725.75 139.98L722.36 140.7L722.05 141.18V142.09L723.05 145.01L722.83 146.78L722.44 147.11L721.14 147.25L720.14 149.74L719.01 150.36L717.57 150.65L715.61 150.22L714.17 149.65L712.87 148.36L712.04 148.26L710.43 148.64L708.91 150.03L708.13 150.08L707.04 149.79L706 149.07L704.22 148.35L700.22 148.64L698.61 148.45L698.7 146.92L699.53 144.15L698.75 141.52L697.23 138.7L699.01 137.03L699.62 136.74L700.45 136.79L702.02 135.07L702.11 134.21L701.63 132.25L701.28 131.77L698.15 130.14L699.02 127.27L700.63 123.82V122.91L700.98 121.66L702.11 122.38L702.94 123.34L703.24 124.49L704.07 125.54L705.11 126.07L709.55 126.84L712.9 128.47L714.68 128.71L717.29 127.75L717.99 127.03L718.56 125.35L719.13 124.54L719.48 124.4L721.87 125.41L722.7 125.12L723.26 123.83L723.56 122.3L723.26 117.75L723 117.46L722.22 117.51L718.7 118.56L717.66 118.51L716.14 117.74L716.05 116.54L715.18 115.39V114.53L719.57 110.27L720.79 108.54L721.4 106.96L721.36 106L720.49 105.28L718.58 102.45L716.75 100.68L715.79 100.59L714.92 100.97L712.75 102.79L710.75 103.56L707.45 103.13L703.4 103.75L702.14 103.7L700.75 102.93L698.88 102.79L698.23 102.5L697.36 96.8399L696.1 93.0499L696.67 91.8999L695.32 87.8699L695.49 85.4199L696.27 84.3599L697.05 83.7799L698.14 83.5899L699.44 83.8799L700.53 84.5999L702.05 84.4999L703.22 83.8299L704.31 83.6899L705.83 82.9699L706.48 82.1099L707.13 79.7099L708.04 78.7999L709.4 77.9999L711.27 76.1799L711.92 76.0799L713.05 77.5199L714.09 77.8099L715.13 77.5199L716.04 76.9899L716.91 76.1299L717.91 75.6499L721.56 75.8399L723.56 75.2199L725.05 73.6499L725.14 73.7799L727.18 73.1699H729.39Z" fill="#CCCCCC" stroke="white" stroke-width="0.5"/>
<path d="M698.571 148.46L700.181 148.65L704.181 148.36L705.961 149.08L707.001 149.8L708.091 150.09L708.871 150.04L710.391 148.65L712.001 148.27L712.831 148.37L714.131 149.66L715.571 150.23L717.531 150.66L718.971 150.37L720.101 149.75L721.101 147.26L722.401 147.12L722.791 146.79L723.011 145.02L722.011 142.1V141.19L722.321 140.71L725.711 139.99L727.321 139.32L727.801 138.79L728.931 136.59L728.841 136.21L728.541 136.02L726.281 136.26L724.671 135.83L723.841 134.35L723.321 134.11L722.581 134.06L720.361 134.49L719.451 134.39L719.101 134.2L719.191 133.67L719.801 132.71L721.191 132.14L723.891 129.7L725.931 129.51L731.931 131.19L732.061 131.57L731.101 133.2L731.401 133.77L732.921 134.25L732.621 135.35L731.581 137.79L732.901 146.9L727.151 149.88L726.861 153.09L724.821 159.79V172.03L724.531 179.02L724.821 181.64L727.151 184.55L729.481 189.21L729.191 194.75L725.981 197.37V199.99L728.311 202.9L734.721 203.77L740.321 205.27L741.931 206.03L743.021 207.27L743.281 208.61L744.891 212.3L744.001 213.24L741.241 214.11L739.201 215.07L736.591 215.66L733.861 215.43L732.891 215.71L731.091 217.23L726.841 217.04L723.061 217.61L720.191 217.28L719.101 217.47L718.141 217.95L717.271 218.05L716.491 217.81L714.051 215.05L710.571 212.29L709.081 210.37L709.361 209.94L708.281 207.94L707.541 205.57L707.341 200.58L706.661 197.03L705.001 193.4L703.421 192.41L700.031 190.88L697.051 190.7L697.061 188.58L696.411 186.86L694.411 182.8L693.151 181.61L692.671 180.56L693.021 177.7L692.321 173.59L696.021 165.57L696.451 164.09L696.971 163.28L697.671 163.09L697.841 162.71L696.191 159.7L693.711 157.6L693.101 156.69L693.271 153.2L693.751 152.29L698.271 150.24L698.621 149.38L698.571 148.46ZM707.381 26.14L706.471 28.26L706.691 29.03L705.951 31.1L704.691 33.31L704.381 33.07L704.211 32.49L706.081 28.5L706.121 27.73L706.691 26.43L707.381 26.14ZM708.731 21.14L709.301 21.53L709.601 22.35L709.381 22.54L709.031 22.44L708.861 23.02L708.561 23.21L708.341 22.44L707.381 25.86L706.861 26.1L707.561 24.56L708.211 21.63L708.431 21.1L708.731 21.14ZM725.531 1.66L727.191 3.82L728.041 7.75L727.371 11.5L727.421 15.12L728.101 18.21L726.361 30.83L725.321 33.27L725.621 35.13L723.411 42.31L723.051 45.09L723.091 48.23L725.521 54.46L724.331 57.57L723.841 62.26L724.081 71.34L724.461 72.76L725.081 73.66L723.591 75.23L721.591 75.85L717.941 75.66L716.941 76.14L716.071 77L715.161 77.53L714.121 77.82L713.081 77.53L711.951 76.09L711.301 76.19L709.401 78L707.961 78.82L707.051 79.73L706.401 82.13L705.751 82.99L704.231 83.71L703.141 83.85L701.971 84.52L700.451 84.62L699.361 83.9L698.061 83.61L696.971 83.8L696.191 84.38L695.411 85.44L695.241 87.89L696.591 91.92L696.021 93.07L697.281 96.86L698.151 102.52L698.801 102.81L700.671 102.95L702.061 103.72L703.321 103.77L707.371 103.15L710.671 103.58L712.671 102.81L714.841 100.99L715.711 100.61L716.671 100.7L718.501 102.47L720.411 105.3L721.281 106.02L721.321 106.98L720.711 108.56L719.491 110.29L715.101 114.55V115.41L715.971 116.56L716.061 117.76L717.581 118.53L718.621 118.58L722.141 117.53L722.921 117.48L723.181 117.77L723.481 122.32L723.181 123.85L722.621 125.14L721.791 125.43L719.401 124.42L719.051 124.56L718.481 125.37L717.911 127.05L717.211 127.77L714.601 128.73L712.821 128.49L709.471 126.86L705.031 126.09L703.991 125.56L703.161 124.51L702.861 123.36L702.031 122.4L700.901 121.68L699.071 120.77L698.241 119.96L697.411 119.77L695.501 119.96L694.981 120.49L694.591 122.45L694.501 126.57L692.851 129.92L691.981 131.16L690.151 128.81L689.451 127.42L688.281 125.31L686.671 123.4L683.321 120.72L680.751 119.67L680.231 118.95L681.141 117.85L682.531 116.89L684.231 114.88L684.061 113.49L677.101 107.21L675.621 105.49L674.751 103.24L674.711 100.32L675.191 95.53L674.931 92.94L674.061 90.3L671.711 86.42L670.841 84.6L670.141 79.47L669.791 78.27L669.091 77.41L667.741 77.22L665.091 77.65L663.801 77.33L661.191 73.74L664.361 69.76L665.101 68.27L665.451 68.13L666.801 68.8H667.411L667.321 68.32L666.751 68.27L666.881 67.36L668.051 67.6L668.531 67.46L668.621 66.8L667.271 66.55L666.751 66.07L666.361 66.6L666.451 67.27L665.931 67.41L665.581 67.99L665.281 67.94L666.191 65.97L666.541 65.78L666.891 65.92L667.761 64.86L668.931 62.89L668.971 62.46L669.361 62.41L669.581 63.03L668.931 63.85L668.841 64.33L669.621 64.71L669.401 63.94L670.491 64.18L672.231 63.99L674.491 64.22L675.971 63.79L676.231 63.45L678.061 63.4L680.451 62.01L684.581 58.55L686.231 56.73L687.361 54.9L690.541 51.63L692.581 48.36L692.451 47.69L692.671 47.31H692.841L693.191 48.8L692.971 49.47L693.271 51.01L692.531 51.44L691.921 52.45L691.271 52.98L690.921 53.75L690.961 54.18L691.701 54.32L691.571 53.6L691.741 53.41L692.391 54.03L692.521 53.65L692.221 53.46L692.351 53.17L692.791 53.12L693.181 52.64L693.791 52.45L694.401 52.98L695.271 52.79L695.051 51.69L693.661 51.31L693.491 50.83L693.711 50.59L695.361 51.07L695.581 50.25L693.361 50.06L693.231 49.82L693.621 48.72L693.271 47.61L693.791 47.56L695.011 45.97L696.141 45.11L700.011 39.58L701.051 37.27L701.441 36.93L701.611 37.12L701.441 37.75L701.001 38.13L700.741 39.04L698.651 41.59L698.091 43.23L696.741 44.91L696.651 45.39L695.651 45.63L695.591 46L696.111 46.05L697.631 45.47L697.761 45.04L697.591 44.66L698.591 44.04L699.071 43.37L699.421 42.12L701.331 38.42L701.681 38.28L701.721 38.57L702.291 38.47L702.421 38.18L702.031 37.65L702.201 37.41L702.631 37.75L702.851 36.74L702.631 36.45H702.331V36.16L703.031 34.53L704.031 34.48L704.461 34.91L705.551 35.1L706.511 34.52L706.991 34.62L707.431 35.1L707.911 34.62L708.001 33.76L707.391 33.95L707.301 33.52L707.821 33.38L708.301 32.75V32.41L708.871 32.07L708.911 31.93L708.261 32.03L708.001 31.74V31.26L708.171 31.21L708.301 31.74L709.081 31.5L708.951 31.07L708.421 31L709.121 30.81L709.251 30.18L708.681 28.88L708.771 27.92L708.551 27.78L708.721 27.54L709.021 27.68L709.241 27.39L708.811 26.72L709.201 26.29L709.331 25.47L709.721 25.52L710.021 25.28L710.191 24.51L710.061 23.74L710.541 23.6V23.36L710.061 23.31L709.801 23.02L709.761 22.68L709.981 22.54L709.721 21.82L708.761 20.81L708.891 19.61L707.931 19.27L707.891 17.73L708.111 17.68L708.281 18.16L708.061 18.83L708.321 19.12H709.231L709.401 18.64L710.101 17.97L710.411 18.07L711.191 16.63L711.841 16.49L712.141 14.76L712.491 14.37L712.881 13.21L712.841 12.39L713.321 10.75V9.92L713.841 8.62V7.71L713.491 7.28L713.581 7.04L713.801 7.47H714.061V6.41L714.321 5.59L714.231 5.2L713.881 4.96L714.051 4.67L714.311 4.81L714.401 4.67L714.701 3.9V2.99L715.701 1.79L718.301 2.2L721.431 1L725.531 1.66Z" fill="#CCCCCC" stroke="white" stroke-width="0.5"/>
<path d="M759.62 182.21L758.49 182.88V185.46H758.32L758.49 186.37L758.32 186.51L758.09 185.41L757.36 185.08L758.19 183.17L758.15 182.84L759.62 182.21ZM742.01 203.2L740.85 205.53L740.33 205.28L734.73 203.78L728.32 202.91L725.99 200V197.38L729.2 194.76L729.49 189.22L727.16 184.56L724.83 181.65L724.54 179.03L724.62 177.1L727.45 176.69L730.95 178.15L733.57 181.94L735.09 183.46L734.77 187.57L738.82 191.56L739.34 191.59L737.07 194.19L737.36 197.4L739.98 198.27L742.6 199.73L742.01 203.2ZM757.05 172.29L757.62 180.35L758.36 181.97L759.53 182.02L758.18 182.16L757.4 184.79L757.1 184.93V185.17L757.8 185.36L758.15 186.08V187.13L758.72 188.13L759.46 190.99L756.16 191.34L754.49 191.97L753.72 193.23L753.41 194.52L751.34 193.3L747.45 192.78L747.84 187.47V183.39L744.63 177.85V174.64L746.96 172.31L751.91 172.02L757.05 172.29ZM745.5 136.18L748.12 137.35V139.97L745.5 141.43L742.88 140.26V137.93L745.5 136.18ZM757.79 114.27L758.18 116.86L757.88 119.49L757.05 121.31L756.75 122.94L755.58 123.18L755.28 124.28L755.54 125.72L755.97 126.44L756.75 127.11L757.27 127.35L757.57 126.97L758.05 126.87L757.53 125.77L758.05 125.39L758.44 126.49L759.66 127.26L759.31 128.31L759.53 128.6L759.92 128.65L760.44 129.37L760.4 129.61L759.83 129.47L759.7 130.33L760.31 130.9L760.53 131.48L759.92 131.77L759.53 132.39L758.75 132.96V133.34L759.06 133.63L755.41 135.93L753.77 137.18L753.03 138.04L752.79 133.27L751.62 129.48L752.49 125.11L752.02 120.21L754.16 117.5L757.79 114.27ZM630.07 102.41L632.9 104.42L634.33 105.19L637.16 106.1L637.51 106.48L637.86 108.35L638.82 109.26L642.34 111.13L653.56 114.53L654.95 115.54L656.17 116.83L657.26 119.42L659.74 121.57L663.91 124.01L665.56 125.3L666.26 126.31L667.48 132.48L668.57 134.25L669.18 137.55L670.74 138.84L672.57 139.51L677.27 139.8L680.05 138.99L682.05 137.6L685.96 136.55L686.79 135.93L687.27 135.02L687.4 133.63L687.18 131.91L686.75 130.33L685.71 128.18L685.67 127.6L686.23 127.07L689.49 127.4L690.19 128.79L692.02 131.14L692.89 129.9L694.54 126.55L694.63 122.43L695.02 120.47L695.54 119.94L697.45 119.75L698.28 119.94L699.11 120.75L700.94 121.66L700.59 122.91V123.82L698.98 127.27L698.11 130.14L696.2 131.43L695.42 132.29L694.68 134.06V134.87L695.38 136.74L695.94 137.65L697.2 138.7L698.72 141.52L699.5 144.15L698.67 146.92L698.58 148.45L698.62 149.36L698.27 150.22L693.75 152.27L693.27 153.18L693.1 156.67L693.71 157.58L696.19 159.68L697.84 162.69L697.67 163.07L696.97 163.26L696.45 164.07L696.02 165.55L692.32 173.57L693.02 177.68L692.67 180.54L693.15 181.59L694.41 182.78L696.41 186.84L697.06 188.56L697.05 190.68L694.16 190.07L690.6 190.68L685.74 192.97L680.99 195.92L679.81 196.84L677.95 199.14L671.11 208.38L670.64 209.94L670.38 213.46L672.29 224.19L673.22 227.06L673.15 229.62L672.05 234.51L672.9 237.92L669.96 239.83L665.31 240.88L662.7 240.98L657.22 239.84L654.87 239.03L652.13 237.74L649.22 237.12L650.05 235.55L650.53 233.84L650.96 230.32V226.75L650.18 221.32L649.27 219.37L647.75 211.7L647.45 209.03L647.89 204.79L646.85 201.79L646.59 199.45L646.07 198.54L644.16 197.06L641.85 194.39L641.02 192.48L640.63 190.62L640.72 188.71L642.29 184.89L646.38 181.12L647.16 179.93L647.46 178.88L647.29 177.78L645.9 173.72L643.55 162.3L641.29 153.79L640.73 152.98L640.12 152.6L637.12 152.55L635.42 151.98L629.68 147.82L626.98 145.33L626.02 143.7L624.67 142.46L621.45 140.74L618.27 139.54L616.66 137.72L614.83 133.56L613.09 134.61L609.65 136L606.13 137.15L604.09 137.48L602.52 137.53L598.44 136.59L596.5 135.39L596.85 134.16L597.55 133.54L598.12 132.58L598.68 132.48L601.99 127.07L602.25 126.35L601.77 125.92L601.68 124.96L602.81 125.25L602.98 124.63L603.77 124.68L604.2 124.2L604.42 123.39L604.11 123.29L603.28 123.86H602.8L602.84 123.67L604.1 122.81L605.1 123.24L604.49 124.49L603.23 125.54L603.27 126.35L603.79 126.92L603.18 126.87L603.05 127.83L603.22 128.16L603.83 127.59L603.79 128.5L603.14 128.69L603.1 129.69L603.36 130.74L604.27 131.41L605.05 131.31L605.62 130.88L605.79 129.59L605.53 129.45L605.14 129.59L604.84 129.35L604.88 128.82L605.36 128.92V128.35L604.75 126.72L604.4 126.53L604.14 126.77L603.97 126.2L603.58 126.01L603.45 125.67L604.1 125.57L604.88 124.61L605.53 123.17L605.88 123.5L606.14 123.36L606.44 122.69L605.83 122.98L605.57 122.55L606.14 121.88L607.44 121.35L610.22 118.96L614.24 121.81L616.68 122.58L618.81 123.44L621.81 123.87L623.03 124.44L623.99 124.68L628.25 124.58L632.73 124.96L634.86 124.86L636.34 125L637.99 125.53L638.9 125.43L639.64 124.62L641.21 121.8L642.82 117.39L643.38 115.19L643.21 114.76L639.77 113.28L638.55 112.99L631.55 113.23L630.07 112.94L626.72 109.92L625.81 109.35L625.03 109.25L624.25 109.63H623.21L622.28 108.72L621.45 106.51L621.67 106.4L621.93 106.64L622.1 106.16H621.62L621.53 105.73L622.1 105.78L622.88 105.11L624.18 106.02L624.53 105.11L624.83 105.4L625.05 106.21L624.7 107.46L625 107.41L625.35 106.4L624.87 105.01L623.96 104.48L622.92 104.62L621.83 105.39L621.53 105.15L621.66 104.72L621.92 104.67L622.35 103.19L623.31 101.51L625.01 98.78L626.9 99.57L628.47 100.82L630.07 102.41Z" fill="#CCCCCC" stroke="white" stroke-width="0.5"/>
<path d="M643.531 91.7899L642.881 91.5499L642.661 90.7799L642.881 90.2499L643.841 90.3899L643.491 89.1399L645.061 87.5099L645.361 86.2599L645.711 85.9699L646.931 85.6799L648.191 84.7699L650.451 81.5599L650.841 80.4599L651.971 80.1699L651.881 80.5099L651.451 80.5599L650.881 81.0899L651.751 80.7499L652.191 81.1299L652.801 81.0799L653.151 79.4999L653.671 79.7399L654.101 79.4999L654.061 78.9699L653.711 79.0699L653.801 79.5499L653.151 79.2099L653.371 78.6799L656.631 77.2399L657.801 76.9999L659.671 75.4699L661.191 73.7399L663.841 77.2799L665.131 77.5999L667.781 77.1699L669.131 77.3599L669.831 78.2199L670.181 79.4199L670.881 84.5499L671.751 86.3699L674.101 90.2499L674.971 92.8899L675.231 95.4799L674.751 100.27L674.791 103.19L675.661 105.44L677.141 107.16L684.101 113.44L684.271 114.83L682.571 116.84L681.181 117.8L680.271 118.9L680.791 119.62L683.361 120.67L686.711 123.35L688.321 125.26L689.491 127.37L686.231 127.04L685.661 127.57L685.701 128.14L686.741 130.29L687.181 131.87L687.401 133.59L687.271 134.98L686.791 135.89L685.961 136.51L682.051 137.56L680.051 138.95L677.271 139.76L672.571 139.47L670.741 138.8L669.181 137.51L668.571 134.21L667.481 132.44L666.261 126.27L665.561 125.26L663.911 123.97L659.731 121.53L657.251 119.38L656.161 116.79L654.941 115.5L653.551 114.49L642.331 111.09L638.811 109.22L637.851 108.31L637.501 106.44L637.151 106.06L634.321 105.15L632.891 104.38L630.061 102.37L628.451 100.84L626.881 99.5899L625.001 98.8399L631.001 86.8499L632.781 85.0299L633.301 85.2199L633.471 84.8399L633.211 84.5999L634.341 83.6899L634.471 82.2499L634.901 82.1499L635.031 82.5299L635.381 85.9799L634.771 87.1299H633.201L632.981 86.5499H632.761L632.571 86.9999V87.4199L633.011 88.0999L632.921 89.5899L632.481 91.4099L631.871 92.5599L631.781 93.5699L631.951 94.8199L632.431 94.9599L632.651 96.9699L633.081 95.6799L633.601 95.4899L634.901 96.1599L635.901 96.0199L636.811 95.4399L637.111 94.7199L639.631 95.0999L640.021 94.7599L640.631 94.8099L641.541 93.7999H642.021L642.671 94.4199L643.581 94.6099L646.191 92.8799L645.581 92.4999L644.801 93.0799L643.711 93.1799L643.141 92.6999L643.181 92.0299L643.791 92.1299L643.531 91.7899ZM551.111 38.8799L550.021 39.1199L549.451 39.9899L549.191 39.7499V39.2699L548.281 38.7899L548.061 38.2599H547.411L547.191 38.6899L546.711 38.5899L546.881 36.6699L545.971 36.2899L546.101 37.2499L545.841 37.2999L545.621 37.0599V35.9999L546.191 34.8899L546.931 35.0799L548.061 33.7299L548.151 33.3499L549.191 33.1599L549.361 32.4899L550.061 32.1499H550.541L551.021 32.6799H551.541L551.501 33.8799L551.891 33.9299L552.151 34.4599L551.981 35.2299L552.761 37.2999L552.801 38.0699L553.231 38.4999L552.801 39.4099L551.111 38.8799ZM644.051 85.6999L643.661 85.5999L643.141 84.9799L642.921 84.2099L642.571 83.8299L641.271 84.0199V83.5899L641.841 83.2999L641.101 82.7199L640.881 83.1499L640.181 83.2499L639.181 83.8299L638.571 85.0799L637.741 85.7499H636.741L636.651 86.2299L636.391 86.2799L635.911 85.8999L637.171 84.7499L638.431 82.8799L639.601 82.4999L640.991 81.4899L643.291 80.7699L644.031 80.3399H644.641L644.471 79.7199L645.641 79.5799L645.811 80.0599H646.241L647.071 79.3899L649.851 78.4799L652.281 76.1799L654.451 74.4999L656.101 73.9199L656.191 74.2999L655.191 74.4399L655.411 74.6799L655.241 75.0599L654.451 74.9999L653.491 75.5799L651.841 77.1599L651.231 78.0699L650.621 78.3599L648.921 80.0899L646.701 80.2799L647.141 81.2899L648.101 81.0999L648.401 81.2899V81.5799L647.881 81.3399L647.231 81.6299L646.451 81.5799L646.361 80.7199L646.101 80.6199V81.4399L645.881 81.5799L645.141 81.0499H644.791L644.701 81.5799L645.701 82.4399L645.791 82.9199L645.141 83.9299L644.441 84.3599L643.531 83.2599H643.011L642.971 83.5999L644.141 85.2799L644.231 85.6199L644.051 85.6999ZM634.341 93.9999L634.091 93.1899L634.261 91.8499L633.741 90.8399L633.961 90.5099V89.0999L634.261 88.6699L634.351 87.5199L634.741 87.3799L635.481 88.6699L635.521 89.5299L635.091 89.7199V90.0599L635.521 90.1099L635.821 90.8799L636.731 91.6499L636.691 93.1399L636.861 93.4799L636.081 94.0599L635.731 94.7299L635.771 95.3099H635.071L634.631 94.8799L634.721 94.2099L634.341 93.9999ZM639.921 86.4099L640.491 85.5599L639.531 85.5099L639.621 85.0799L640.531 85.3699L641.051 85.1299L641.881 84.1699L642.321 84.2199L642.751 84.6999L642.791 85.6599L643.311 85.7599L643.531 86.2899L641.791 87.8199L641.441 88.7299L640.661 89.2099L639.441 88.9199L638.741 88.3899L638.831 87.8599L639.401 87.4299L639.921 86.4099ZM641.661 90.2599L641.831 90.3999L640.001 92.4099L638.831 92.1199L638.131 91.2099L638.041 90.4899L638.911 90.3499L640.351 90.6899L641.661 90.2599ZM637.701 92.1299L638.091 92.5599L640.311 93.0399L638.611 93.9499H638.041L637.651 93.8099L637.521 93.1399L637.431 91.9899L637.701 92.1299Z" fill="#CCCCCC" stroke="white" stroke-width="0.5"/>
<path d="M752.79 133.27L753.03 138.04L752.42 139.19L752.25 141.53L752.03 142.58L750.99 144.06L749.29 144.83L745.16 147.36L743.03 149.46L741.94 149.79H740.81L735.2 148.69L733.59 147.97L733.07 147.44L732.68 146.1L731.59 137.78L732.63 135.34L732.93 134.24H735.54L737.45 133.76L741.36 131.85L741.88 130.65L742.1 127.44L742.45 125.86L743.19 124.81L744.49 123.95L749.01 122.42L750.4 121.65L752.01 120.19L752.48 125.09L751.61 129.46L752.79 133.27ZM748.13 139.97V137.35L745.51 136.18L742.89 137.93V140.26L745.51 141.43L748.13 139.97Z" fill="#CCCCCC" stroke="white" stroke-width="0.5"/>
<path d="M709.86 230.33L709.25 229.75L709.06 228.3L708.69 228.04L709.13 227.19L708.91 226.69L707.92 225.95L706.92 224.62L705.13 220.97L704.85 220L705.01 216.76L704.67 216.23L700.44 212.69L699.55 211.47L698.21 208.98L698 207.92L698.24 207.16L698.88 206.46L700.66 205.75L701.76 205.69L703.16 206.06L704.98 207.04L705.73 208.02L709.09 210.37L710.58 212.29L714.06 215.05L716.49 217.82L717.28 218.05L714.67 224.87L709.86 230.33Z" fill="#CCCCCC" stroke="white" stroke-width="0.5"/>
<path d="M754.121 201.13L753.371 200.57L750.751 199.99L746.671 199.7L742.491 200.3L742.591 199.7L739.971 198.24L737.341 197.37L737.051 194.16L739.331 191.57L744.631 191.83L746.961 192.71L751.331 193.29L753.401 194.51L754.121 201.13Z" fill="#CCCCCC" stroke="white" stroke-width="0.5"/>
</svg>
