<svg width="801" height="1779" viewBox="0 0 801 1779" fill="none" xmlns="http://www.w3.org/2000/svg">
<path d="M429.403 1101.65L428.553 1099.06L427.343 1097.53L420.173 1098.78L413.993 1103.95L404.573 1118.01L402.133 1120.76L396.023 1125.17L393.253 1128.2L387.383 1140.53L386.663 1143.6L389.993 1145.75L390.693 1148.27L392.273 1149.26L394.873 1148.7L396.473 1147.18L399.663 1141.9L401.343 1140.08L404.443 1138.33L407.333 1137.54L410.473 1137.98L414.283 1140.08L416.133 1140.77L417.693 1140.97L418.733 1141.78L419.483 1147.04L420.523 1148.21L422.143 1148.09L424.103 1146.84L423.013 1152.01L418.793 1154.32L413.533 1155.94L409.433 1159.05V1160.59L417.883 1158.61L421.683 1156.95L424.103 1153.79H425.593L424.103 1162.45L425.263 1160.91L426.783 1160.1L428.633 1160.02L430.583 1160.59L431.023 1159.82V1159.54L431.153 1159.42L432.193 1159.05L432.443 1161.12L433.443 1163.62L433.643 1165.69L436.183 1162.37L437.223 1163.1L437.743 1165.52L438.663 1167.39L442.813 1169.81L444.623 1169.77L461.413 1165.69L461.603 1166.23L462.763 1167.39L464.263 1168.54L465.473 1169.09L467.233 1168.56L468.343 1167.43L469.003 1166.25L469.503 1165.69L475.593 1164.41L478.743 1163.1L480.503 1160.1L482.403 1153.79L489.453 1139.4L489.053 1135.15L487.783 1136.14L485.753 1136.99L483.373 1137.38L480.963 1136.85L479.443 1135.35L477.553 1130.66L476.113 1128.2L471.693 1126.38L469.503 1122.44L468.193 1117.57L466.263 1112.96L463.913 1109.32L462.533 1108.25L460.523 1107.87L459.563 1106.94L458.753 1102.46L458.193 1100.92L454.843 1098.62L451.033 1097.93L434.723 1100.68L430.583 1103.22L429.403 1101.65ZM401.403 1106.82L403.863 1104.68L409.373 1100.92L412.533 1100.07L417.813 1097.04L420.813 1095.99L416.133 1091.75L407.443 1094.86L400.093 1101.93L399.513 1109.57L401.403 1106.82ZM438.953 1084.24L436.993 1075.52L434.223 1070.81L431.023 1068.21L428.383 1069.42L427.283 1076.36L429.983 1081.98L435.223 1085.49L438.953 1084.24ZM432.143 988.65L439.993 986.65L441.263 985.32L442.193 983.67L443.463 982.14L449.533 978.68L451.513 977.06L446.043 975.65L442.813 975.71L433.583 980.29L431.253 981.9L428.483 984.84L427.283 987.66L429.713 988.89L432.143 988.65ZM485.873 950.08L492.193 939.59L487.783 935.06L481.713 935.6L477.263 939.41L477.513 944.66L476.283 948.06L476.973 950.16L479.403 951.25L483.253 951.57L485.873 950.08ZM394.693 860.55L392.383 859.97L390.253 860.49L388.803 861.33L387.363 861.5L385.033 859.97L386.203 863.69L386.553 865.35L386.663 867.73L386.183 870.82L384.933 872.49L383.433 873.69L381.933 875.48L380.893 879.38L380.443 888.53L379.443 891.49L379.383 893.6L381.293 895.87L385.033 899.09L385.573 901.62L385.033 908.44L386.373 910.75L393.353 917.61L396.353 919.49L406.023 921.72L412.913 919.04L419.923 914.9L429.773 912.77L433.333 913.33L437.913 914.78L441.803 916.67L445.663 920.77L458.193 927.94L460.563 926.81L463.053 927.94L463.533 924.76L462.123 920.87L461.543 917.51L464.673 916.11L460.743 910.61L455.303 908.74L442.773 909.19L438.533 907.9L436.303 905L435.293 902.11L434.523 900.78L430.233 899.53L428.133 896.51L426.593 892.69L424.103 888.95L423.013 887.99L421.453 886.9L419.583 886L417.523 885.62L415.193 886.18L411.283 888.71L409.433 888.95L407.443 886.7L406.403 882.62L405.853 878.76L405.383 877.01L403.013 874.9L398.893 865.62L397.243 863.51L396.493 862.96L395.853 861.76L394.693 860.55Z" fill="#CCCCCC" stroke="white" stroke-width="0.5"/>
<path d="M404.573 716.45L411.223 712.72L414.263 706.17L414.883 697.58L414.283 687.86L413.383 683.52L410.563 677.89L409.433 674.27L407.583 661.64L402.033 645.81L401.343 642.39V634.89L398.103 627.11L397.743 622.99L399.593 607.92L399.123 604.2L397.973 603L396.473 602.36L394.873 600.12L394.173 597.7L392.673 586.31L387.473 586.73L386.143 606.36L380.373 625.55L379.213 635.73L379.833 645.39L381.933 654.12L387.593 667.91L390.193 686.78L394.413 701.66L395.273 711.58L396.433 715.12L399.243 716.83L404.573 716.45ZM318.143 590.03L333.833 576.98L335.803 573.7L336.573 569.19L337.553 564.11L340.003 558.62L343.163 553.59L346.243 549.85L351.673 544.58L351.483 542.19L345.433 541.19L325.243 544.66L313.763 549.17L309.763 549.85L304.623 551.55L275.733 579.18L273.473 583.41L274.863 586.17L282.953 590.25L287.983 591.88L312.693 592L318.143 590.03ZM394.663 562.71L394.873 555.56L396.473 548.61L396.893 543.98L395.623 540.41L396.353 523.66L395.583 521.51L392.273 517.55L391.523 515.44V506.9L391.073 504.11L388.283 496.11L388.053 493.59L388.383 488.45L388.283 485.93L385.413 472.27L385.033 466.61L384.353 463.32L382.523 458.48L379.983 454.17L377.093 452.46L374.973 453.69L373.163 456.28L372.313 459.25L372.973 461.59L374.663 463.8L374.763 465.14L374.123 466.37L373.723 468.29L379.443 506.16L381.693 511.73L381.793 537.99L380.193 546.5L382.953 558.14L383.293 564.27L381.933 569.99L387.653 568.81H390.193L393.253 569.99L394.663 562.71Z" fill="#CCCCCC" stroke="white" stroke-width="0.5"/>
<path d="M433.833 851.63L436.413 849.2L436.373 845.46L433.583 841.44L430.713 839.94L427.693 840.04L420.813 841.44L423.703 848.01L425.663 850.79L428.903 851.73L433.833 851.63ZM408.603 840.6L410.263 836.91L410.473 828.31L412.663 824.61L406.313 825.24L403.593 827.29L401.343 836.54L398.973 840.8L400.633 843.09L404.443 843.13L408.603 840.6ZM427.173 797.11L428.963 794.14L428.673 790.49L426.943 788.38L409.993 779.34L405.503 774.78L404.573 767.2L399.953 751.8L396.203 743.62L391.523 738.45L386.373 739.79L384.263 740.79L380.603 750.48L379.443 751.92L376.203 753.91L367.353 762.97L362.413 765.52H351.903L349.593 766.06L346.083 768.5L339.153 770.15L333.333 772.84L330.273 776.11L333.493 779L332.183 782.47L334.723 784.59L338.823 786.28L342.233 788.32L345.973 791.41L353.833 796.23L356.103 799.16L359.563 797.56L362.743 798.14L369.003 802.57L371.993 801.61L375.163 802.45L378.323 804.4L381.063 806.75L384.023 807.87L387.363 806.87L390.803 805.24L394.063 804.4L419.123 803.46L427.173 797.11ZM214.693 746.17L212.503 744.2L210.443 741.92L208.343 740.13L209.923 737.01L208.993 734.62L206.533 732.92L203.483 731.72L207.643 723.12L193.473 704.93L193.783 696.28L167.783 686.04L160.513 691.23L158.093 691.79L157.263 693.15L156.873 695.03L155.663 697.04L155.453 700.2L156.473 716.45L149.363 730.09L148.363 735.92L149.133 739.11L150.923 741.1L153.023 742.84L154.853 745.33L155.603 747.97L155.913 750.48L156.493 752.9L158.093 755.41L160.613 754.07L163.773 755.35L169.393 760.46L180.283 753.18L184.093 748.55L185.533 750.38L186.773 749.29L190.543 747.01L199.003 760.34L200.253 764.67L200.753 765.46L201.873 765.64L202.943 766.22L203.483 768.1L203.333 772.5L203.483 773.94L205.993 785.86L204.773 789.01L204.523 804.14L205.243 809.44L205.953 809.8L207.433 810.24L208.993 811.08L210.093 812.65L210.263 814.01L210.093 818.55L210.443 822.21L211.463 824.88L217.353 832.77L219.393 837.47L220.783 842.41L221.393 846.35L219.223 845.62L217.353 844.5L215.873 843.07L214.923 841.44H213.333L213.883 846.93L216.733 850.42L219.913 853.06L222.803 858.72L229.293 860.97L231.243 863.51H232.723L233.263 860.31L234.533 860.33L236.153 861.54L237.533 861.82L242.543 856.79L248.743 855.97L251.563 854.82L253.873 851.73L251.753 851.33L250.903 850.77L250.283 849.82L248.693 848.36L251.463 845.84L256.183 842.47L261.423 840.52L265.903 842.35L268.043 842.53L271.623 841.89L275.013 841.93L276.483 844.14L277.753 844.66L283.993 845.72L286.183 846.35L287.803 848.56L288.733 851.37L290.403 853.42L294.243 853.38L296.933 851.93L297.053 850.08L296.853 847.99L298.363 845.66L300.823 842.89L302.023 840.48L303.463 838.73L306.523 838.07L308.373 837.27L313.963 831.5L312.363 828.95L310.803 825.02L308.953 821.96L306.523 822.09L303.923 824.45L302.253 826.8L301.283 829.94L301.013 834.7L297.393 831.96L297.863 827.43L302.313 819.23L300.283 807.05L297.053 801.49L291.003 802.57L280.753 794.14L276.523 789.41L278.103 785.86V784.03L277.233 783.69L275.013 782.49L268.703 785.13L265.333 783.35L262.263 779.02L256.953 773.94L253.833 772.38L248.343 770.79L245.623 769.03L243.833 766.94L242.453 764.37L241.433 761.61L240.773 758.78L239.813 759.6L239.003 760.1L238.293 760.8L237.533 762.15H236.093L234.823 761.31L229.483 758.78L229.183 756.83L231.013 754.11L231.243 751.92L227.873 746.57L225.633 744L224.633 744.4L225.903 748.73L226.273 750.96L225.463 751.92L223.013 751.14L219.393 747.77L214.693 746.17Z" fill="#CCCCCC" stroke="white" stroke-width="0.5"/>
<path d="M784.013 1778.1L785.923 1776.97L791.213 1775.91L793.833 1774.65L796.203 1772.17L797.823 1769.11L800.313 1762.77L797.923 1758.13L794.913 1755.67L791.213 1753.5L786.443 1749.78L781.893 1748.33L775.463 1748.57L769.413 1749.64L766.373 1750.54L763.503 1754.77L761.823 1761.13L762.213 1766.96L765.483 1769.5L772.693 1772.95L778.753 1774.53L781.743 1775.91L784.013 1778.1ZM693.033 1625.76L694.843 1620.26L696.463 1609.22L704.853 1598.57L706.303 1595.49L701.313 1593.63L697.653 1590.93L689.993 1586.78L685.133 1584.6L679.263 1583.04L674.293 1580.96L672.213 1577.34L668.973 1558.5L669.903 1552.98L671.283 1548.82L671.073 1545.43L667.223 1542.06L663.313 1544.02L654.183 1544.15L649.443 1545.49L646.843 1547.19L645.173 1548.92L644.073 1551.11L643.113 1554.07L644.113 1559.88V1563.11L642.263 1564.48L639.623 1567.19L638.333 1573.3L638.023 1579.73L638.293 1583.49L639.273 1586.11L647.233 1597.76L647.833 1599.72L648.583 1600.58L650.253 1601.88L651.933 1603.89L652.663 1606.71L653.433 1608.24L655.283 1608.98L660.023 1609.22L662.443 1611.12L672.213 1622.78L676.123 1624.68L686.213 1627.62L690.793 1628.09L693.033 1625.76ZM631.763 1396.95L628.303 1394.83L626.973 1390.28V1381.23L626.003 1376.29L623.623 1372.31L615.583 1368.08L605.973 1367.8L596.653 1370.52L589.493 1375.72L586.353 1380.64L584.903 1385.87L583.363 1403.86L583.793 1405.69L585.753 1408.18L587.213 1410.76L588.083 1413.63L588.023 1416.97L584.133 1428.12L584.563 1432.35L597.623 1436.75L601.583 1438.7L607.323 1442.88L609.793 1445.22L611.893 1446.28L619.303 1448.43L621.233 1448.56L624.123 1447.27L626.973 1448.03L647.883 1459.43L652.663 1463.06L655.473 1458.82L660.423 1456.44L665.143 1453.32L667.223 1446.93L666.223 1439.43L663.253 1433.71L658.233 1429.26L651.063 1425.51L648.633 1423.7L641.303 1419.92L639.743 1419.45L639.023 1417.05L633.283 1409.97L648.293 1405.88L651.063 1405.69L650.583 1403.95L649.463 1401.91L648.173 1400.26L646.113 1399.06L646.273 1396.83L645.303 1396.34L644.033 1396.58L642.393 1397.11L641.263 1397.7L641.353 1398.05L631.763 1396.95Z" fill="#CCCCCC" stroke="white" stroke-width="0.5"/>
<path d="M169.552 655.06L169.162 649.55L167.472 642.43L170.282 634.89L169.512 630.51L161.032 627.67L144.282 625.59L136.712 627.57L132.152 632.49L131.342 639.03L135.322 645.75L138.232 647.63L144.862 649.39L148.362 650.8L154.952 655.76L158.222 657.36L162.922 657.48L169.552 655.06ZM163.812 619.41L163.542 615.15L158.092 612.19L159.462 610.59L159.822 608.97L158.902 607.66L156.472 607V605.32L159.842 604.44L159.242 603.52L155.992 603.48L151.482 605.32L140.162 617.23L145.552 620.85L148.032 621.75L151.482 622.27L153.292 621.91L154.062 621.55L154.852 620.55L160.342 622.15L163.812 619.41ZM149.402 464.66L151.482 462.36L147.322 461.65L141.242 456.88L137.062 455.67L138.152 458.3L143.392 464.18L145.242 465.47L147.282 465.65L149.402 464.66ZM70.0117 512.41L67.3217 510.41L64.0817 480.07L63.2717 478.33L61.7117 477.08L60.5017 475.46L60.8117 472.53L59.7717 460.33L57.4417 448.97L53.1617 437.01L52.0617 431.33L54.3717 428.9L44.7417 421.59L39.9717 419.2L38.5017 416.39L36.4217 410.38L30.9217 403.31L29.9917 402.85L29.8017 400.26L29.1117 397.2L27.8517 394.61L25.8917 393.51L25.1817 392.14L22.8717 385.65L21.9017 383.66L19.1917 381.35L18.0917 382.17L16.6417 384.08L9.19172 386.41L8.34172 389.27L8.81172 395.33L2.37172 408.71L3.88172 412.27L4.11172 418.07L3.26172 423.98L1.56172 427.99L1.26172 431.97L5.61172 450.64L7.57172 454.73L12.6617 462.36L13.7017 466.61L14.0417 471.2L15.3217 475.88L17.8217 479.53L21.9017 480.91L19.6517 484.96L19.4817 488.31L21.9017 497.66L22.8717 507.86L24.2517 512.68L29.9317 520.95L31.2017 526.61L31.4217 537.99L30.4917 543.1L27.3317 553.11L26.1017 560.3L23.9117 565.31L23.3717 567.51L24.1617 569.87L27.6217 574.42L28.3717 577.5L29.3617 579.71L35.6217 585.95L37.1017 587.89L39.7017 595.28L44.9417 603.8L48.3717 607.36L56.5317 611.07L59.0417 616.35L58.9617 622.47L55.9917 627.11L60.1517 631.41L65.2817 634.15L70.5917 634.63L75.3717 632.31L77.0617 630.07L77.8917 627.91L79.0717 625.87L81.9917 623.95L87.0417 624.95L88.9617 624.67L86.6517 622.27L92.4517 616.95L101.522 614.59L111.652 614.31L120.652 615.39L122.842 616.17L126.832 618.31L129.662 618.75L132.322 618.55L134.512 617.97L136.502 616.95L138.542 615.39L147.512 604.48L151.482 601.36L154.872 600.12H163.732L166.392 600.6L168.082 601.4L169.472 601.54L171.172 600.12L172.132 598.08L172.742 595.3L172.302 592.8L170.282 591.76L164.622 586.79L159.072 575.4L154.872 562.93L153.232 554.73H154.852L156.572 558.08L158.032 556.7L159.072 552.69L159.612 548.02L157.342 542.54L156.472 541.19L154.852 539.99L151.062 538.59L150.002 537.99L147.552 534.32L148.362 533.48L150.352 532.6L151.482 528.69L147.232 508.97L148.362 504.48L143.992 502.83L141.042 503.53L135.322 507.7L134.512 502.99L130.472 490.96L129.532 482.6L127.932 479.69L124.002 479.23L126.752 476.1L127.682 473.59L127.022 463.38L127.522 460.27L129.552 458.2L133.842 457.48V455.67L116.042 453.99L112.792 455.17L108.532 457.72L105.842 461.17L107.112 465.02L107.592 468.17L106.222 495.21L105.532 498.62L103.792 500.77L101.682 502.47L99.7517 504.48L96.7517 509.39L95.2417 511.31L92.7417 511.55L86.6517 511.33L76.1017 512.53L70.0117 512.41Z" fill="#CCCCCC" stroke="white" stroke-width="0.5"/>
<path d="M238.502 263.6L236.092 262.93L233.722 263.68L230.082 266.92L228.002 267.93L224.012 268.13L221.932 267.69L220.242 268.01L214.602 272.7L212.272 274.07L210.672 276.2L210.092 280.61L211.532 294L209.152 298.81L208.142 301.75L209.182 303.1L210.902 303.74L213.312 305.13L216.212 306.36L219.622 306.6L222.862 305.37L238.752 306.72L241.352 306.48L243.932 305.05L247.242 301.59L253.332 291.24L254.682 289.75L255.392 287.64L256.952 274.77L255.142 272.4L253.022 270.71L238.502 263.6ZM250.482 191.17L248.222 189.75L246.012 189.15L244.062 187.86L242.542 184.39L244.292 183.3L247.242 179.39L244.312 177.31L237.532 164.4L233.302 159.62L229.952 157.5L226.362 157.56L216.122 162.02L211.802 165.13L208.572 169.16L206.722 174.39L206.332 180.92L207.722 185.96L213.332 194.51L217.952 198.02L220.352 200.6L221.242 203.73L221.392 208.79L224.012 214.96L228.982 214.53L232.222 210.22L229.482 204.5L231.012 203.02L231.062 202.26L230.292 201.87L229.482 201.17L235.512 200.72L240.542 199.49L244.812 197.38L248.692 194.51L250.012 194.27L251.752 194.57L253.192 194.62L253.872 193.67L253.562 191.67L252.852 191.47L251.752 191.75L250.482 191.17ZM276.942 150.15L280.912 148.82L282.952 147.77L283.842 144.87L283.802 140.95L282.682 137.46L280.522 135.98L276.092 137.17L272.782 140.04L264.152 151.67L264.522 153.93L266.542 153.75L268.232 151.1L272.242 151.14L276.942 150.15ZM193.932 112.54L192.162 109.37L197.402 108.26L197.382 105.09L193.472 102.81L187.322 104.42L184.442 107.9L184.532 111.82L186.462 115.75L188.922 119.35L194.242 119.95L198.652 119.81L201.482 117.37L202.002 111.03L199.112 113.03L196.342 113.63L193.932 112.54ZM40.562 88.18L37.042 84.34L33.402 86.24L36.772 95.86L40.562 88.18ZM26.792 48.83L29.702 45.44L29.992 41.15L27.032 37.91L22.312 37.55L17.362 39.37L13.702 42.65L14.542 44.85L15.492 46.61L16.762 48.06L18.552 49.46L22.652 50.43L26.792 48.83ZM0.751953 1L1.02195 3.89L2.14195 5.45L3.41195 6.65L3.99195 8.47L3.76195 11.08L2.37195 17.77L2.20195 22.99L2.91195 26.51L4.99195 28.96L8.81195 31.02L10.122 30.35L11.002 29.6L11.622 28.73L12.082 27.74L12.142 25.86L12.022 24.43L12.312 23.43L13.702 22.75L12.392 20.54L12.082 18.84L12.542 17.33L13.702 15.95V14.45L12.662 12.39L11.682 6.89L10.422 4.36L8.79195 3.21L0.751953 1Z" fill="#CCCCCC" stroke="white" stroke-width="0.5"/>
</svg>
