<svg width="602" height="528" viewBox="0 0 602 528" fill="none" xmlns="http://www.w3.org/2000/svg">
<path d="M148.29 1.64L149.2 1L150.1 1.64V3.06L151 3.32L151.13 3.83L152.16 4.09L153.83 5.25L155.63 7.95V9.24L154.86 10.01L152.8 9.63L152.54 8.72L151.26 7.95L150.61 7.82L148.29 6.28L147.91 4.6L146.62 4.22L147.52 3.7L148.04 3.19L148.29 1.64Z" fill="#CCCCCC" stroke="white" stroke-width="0.5"/>
<path d="M227.99 18.12L228.37 20.05L228.25 22.11L227.47 23.4L227.6 26.23L226.83 27.14L225.54 26.62L224.77 25.72L224.51 24.3V21.47L224 20.31L222.19 19.28L221.42 18.25L220.01 18.38L218.85 17.48L218.59 15.55L219.49 14.52L221.68 14.39L222.71 15.42L223.87 16.19L226.96 17.48L227.99 18.12Z" fill="#CCCCCC" stroke="white" stroke-width="0.5"/>
<path d="M196.19 19.28L197.09 20.18H198.25L200.44 20.83L202.24 23.53L203.91 24.05L204.94 25.08L205.2 26.36L204.43 27.14H203.27L202.88 25.85L200.82 26.11L198.25 25.98L196.96 24.3L193.1 22.24L190.39 19.93L190.01 18.12L189.24 17.22L188.59 16.71L187.56 15.29V14.26L186.02 13.36L186.15 11.69H187.69L189.24 11.94L190.78 12.84L191.94 14.78L191.68 16.84L194.39 18.64L196.19 19.28Z" fill="#CCCCCC" stroke="white" stroke-width="0.5"/>
<path d="M290.74 91.15L290.49 93.84L289.25 94.83L283.82 97.67L281.85 97.91L279.25 97.67L278.27 97.05L277.21 95.75L277.77 95.07L278.51 94.46L279.75 92.23L280.86 92.11L281.48 91.49L281.72 90.38L283.08 90.14L283.95 91.25L285.18 91.12H290.49L290.74 91.15Z" fill="#CCCCCC" stroke="white" stroke-width="0.5"/>
<path d="M473.46 185.63L472.62 185.95H471.76L470.4 186.32L469.78 187.93L468.79 188.91L467.68 189.78L465.83 190.77L463.98 190.64L462.5 189.9L460.52 189.78L455.71 187.93L453.85 188.05L452.5 188.79L450.77 187.93L449.41 189.04L448.42 190.27L446.69 190.64H445.46L444.1 192.99L442.5 193.98L440.89 194.59L440.03 195.33L436.82 197.06L434.59 197.31L432.86 197.19L431.63 196.44L429.78 196.69L427.06 198.42H425.58L423.85 199.65L421.38 203.48L420.52 204.59L418.91 205.71L416.81 206.94L414.34 206.82L411.38 206.32L409.78 204.35L407.31 202.87L405.7 201.14L403.6 201.01L399.16 203.11L397.43 204.1L395.58 203.36L392.98 203.24L392.12 203.98L390.39 204.96L388.91 206.69L389.16 209.16L389.53 210.27L390.64 211.26L392 212L392.12 213.24L391.25 214.47L387.06 214.72L383.23 216.82L381.5 218.42L378.17 219.41H376.19L374.59 219.16L372.61 217.68L370.51 216.32L369.03 214.35L366.93 213.48L364.09 212.87L361.99 212.25L357.05 210.4L354.95 209.9L352.73 209.78L351.25 208.67L349.77 207.68L349.03 206.45L350.02 204.72L350.14 202L351.37 200.64L352.61 198.17L353.84 196.32L357.05 192.25L358.41 191.26L360.02 189.53L361.25 188.05L362.49 186.2L362.61 183.97L363.47 182L364.58 178.79L364.71 176.81L363.6 175.45L363.84 173.48L364.58 172L365.94 170.76L369.65 170.52L373.6 170.64L374.46 171.5L375.45 172.86H377.92L378.66 171.63L379.4 169.4L380.51 167.55L381.01 165.58L380.14 163.6L377.3 162.24L375.45 161.01L374.34 160.02L372.73 159.28V156.81L370.51 154.59L368.17 153.35L365.7 152.49L363.6 152.12L361.99 150.64L360.26 148.78L359.15 146.56L357.79 144.83L358.41 143.1L360.39 142.86L361.5 141.99L362.49 140.88L362.24 139.4L361 138.41L359.15 138.17L357.05 137.06L351.99 132.49L350.88 132.73L350.14 134.09L347.18 134.59L343.96 134.34L342.36 134.09V131.38L340.75 130.63L340.63 127.92L341.25 125.94V123.84L340.38 121.74L339.47 120.14L339.35 118.29L339.72 116.93L342.06 117.05L343.67 116.19L345.52 114.95L346.88 113.72L348.24 112.11L349.22 111.5L350.58 110.26L351.82 109.4L351.94 108.6L358.93 109.8L367.54 112.25L371.55 111.25L378.86 111.28L380.49 110.96L381.54 110.62L382.94 109.89L383.73 106.94L387.41 104.65L389.7 104.27L391.86 104.65L393.99 104.34L394.18 104.02L394.69 104.8L395.18 105.17L396.42 106.53L396.91 108.38L398.27 109.25L399.5 109.62L400.86 110.24L402.22 110.61L403.33 111.35H407.78L409.01 110.73L412.59 109.37H415.8L416.67 109.74L417.78 110.48H418.11L418.13 111.22L416.16 112.34L413.44 113.08L412.95 114.68L413.2 116.66L414.31 117.52L415.67 118.02L416.53 118.76L416.9 120.24L418.13 121.1L419 122.95L418.13 123.82L417.64 125.55L418.13 127.52L419.74 128.76L420.97 130.36L422.33 134.81V136.29L421.34 136.78L420.23 137.89L418.26 139.5L416.9 141.23L417.02 143.33L418.01 145.43L419 147.15L419.74 149.25L420.48 150.24L422.83 149.62L424.06 149.13L425.54 148.88L427.15 149.75L429.86 150.86L434.56 154.44L436.9 157.03L438.88 158.14L440.36 159.5L444.19 162.34L445.17 164.07L445.79 165.68L446.04 167.4L447.15 169.38L448.26 170.86L456.04 170.49L458.63 169.63H461.1L461.6 170.86L459.74 172.59L457.15 172.47L457.4 173.33L457.03 175.8L457.89 177.04L459.74 178.39L462.34 179.38L467.52 180.86L469.5 181.6L471.84 182.84L473.57 183.33L473.46 185.63Z" fill="#CCCCCC" stroke="white" stroke-width="0.5"/>
<path d="M313.03 219.41L312.08 220.48L310.76 221.3L308.46 221.8L307.47 223.94L306.32 225.91L303.19 230.36L302.04 231.35L300.72 233.82L296.77 235.63H293.97L291.67 236.78L288.87 239.58L286.4 240.56L283.44 240.4L280.97 241.22L278.83 242.38L277.34 245.01L276.69 247.97L277.67 249.62L279.15 249.29L280.47 250.94L280.64 252.42L279.98 259L277.67 261.8L276.85 265.42L275.37 268.39L275.53 271.19L275.2 273L273.89 275.3L271.75 275.96L270.92 276.78L270.1 279.09L268.13 280.08L266.97 281.56L265.49 282.05L264.67 283.04L263.3 283.97L261.89 283.68L257 281.2L254.53 280.58L248.85 280.45L247.5 279.59L243.05 280.58L242.43 281.94L241.57 283.17L239.59 283.79L234.02 282.48L232.75 282.39L231.32 283.29L230.21 284.78L228.45 283.48L226.82 283.91L226.2 284.78L224.48 284.84L220.64 283.54L218.54 283.85L216.81 284.65H212.37L210.39 286.28L208.28 286.01L207.14 285.33L205.3 284.78L202.02 284.03L193.27 282.78L191.92 282.72L190.27 281.69L187.43 282.31L185.58 284.9L184.46 286.88L183.74 288.55L181.38 288.36L180.64 287.25L180.45 285.7L178.02 285.82L175.44 287.02L173.72 285.76L173.85 283.67L169.77 280.58L165.45 276.38L164.96 273.05L162.4 270.77L156.81 264.4L156.44 262.43L152.12 258.72L147.11 252.02L146.51 249.93L144.9 248.2H143.05L139.72 248.57L138.24 249.31L137.13 250.3L135.04 250.19L134.3 249.69L133.42 247.83L130.58 246.97L128.98 246.23L126.75 243.27H111.44L110.7 244.25L109.72 245.24L107.99 246.35L106.63 247.46L105.83 248.41L103.05 248.33L101.44 246.35L81.6297 246.1L80.2097 244.25L77.9797 244.13L76.2497 245.24L72.4297 245.98L69.9597 247.09L62.6697 247.34L60.3297 245.24L59.3397 243.88L56.0097 240.42L55.4597 239.31L54.6097 236.48L54.6297 235.29L55.0497 233.7L56.0797 232.4L54.2297 230.79L52.4997 229.93H47.8097L46.7197 228.96L47.1397 228.02L50.2697 227.86L52.5797 228.02L53.8897 227.36L55.2097 227.2L56.1997 228.35L57.3497 229.34L58.9997 230.33L61.4697 230.65H64.4297L65.9097 230L67.2297 229.67L67.7197 228.68V227.86L68.7097 226.37L68.7997 226.08H71.8197L73.1397 227.4L75.2797 228.71L77.9097 229.04L79.2297 228.05H80.0497L81.0397 229.04H83.5097L84.9897 228.22L90.4297 228.05L92.2397 228.88L96.3497 229.21L98.1597 230.52L99.6397 231.84H102.44L107.38 233.98L113.54 233.82L115.84 234.64L119.3 235.13L121.61 234.31L121.94 232.99L125.06 233.16L127.04 231.68L129.01 229.37L131.65 228.88L133.46 227.56L135.6 220.97L138.73 220.65L142.18 219.99L144.32 217.68L147.45 215.54L151.4 215.38L156.34 211.59L160.79 211.92L163.26 210.44L168.69 205.99L173.3 202.54L177.09 202.04L184.66 202.21L187.95 202.7L190.26 204.18L195.03 204.51L198.16 206.98L200.63 208.3L204.41 208.13L209.19 207.64L212.65 206.98L217.25 206.82L219.89 207.15L223.35 208.13L227.13 206.98L228.61 206.32H230.26L230.92 206.98L236.35 207.97L243.6 208.63L249.36 207.97L251.66 207.31L253.64 206.16L255.94 205.99L257.38 205.21L259.17 207.28L263.28 208.76L266.91 210.24L269.05 211.89L273.66 213.53L279.09 213.7L284.03 214.19L287.81 215.51L292.26 217.48L296.38 218.31L297.69 217.32L298.35 214.52L300.82 214.36L301.97 213.53L304.44 213.04L307.24 214.85L308.39 216L311.36 216.33L312.18 218.47L313.03 219.41Z" fill="#CCCCCC" stroke="white" stroke-width="0.5"/>
<path d="M261.12 116.74L261 116.56L258.78 115.2L254.95 115.08L253.72 114.71L253.35 112.98L253.6 111.25L254.21 108.41L254.58 105.69L255.33 104.09V102.24L254.21 101L252.11 100.75L249.27 100.88L247.42 100.51L245.69 99.64L244.58 98.41L244.71 96.68L246.93 94.58L248.04 94.21L248.21 93.61L257.01 92.47L262.59 92.09L265.38 91.58L266.69 91.5L266.91 93.35L267.65 94.09L267.4 95.32L268.39 96.68L268.51 97.79L269.62 97.91L270.36 97.42L270.86 96.43L271.97 95.69L272.96 95.94L273.82 96.93H274.93L276.04 96.31L276.09 96.29L276.27 97.67V100.51L277.5 102.24L277.99 103.35L279.23 104.71L279.11 106.43L278.12 107.42V109.15L278.98 110.39L283.06 111.87L284.29 112.61L285.65 113.84L286.76 115.08H289.11L295.16 115.45L297.13 116.19L299.97 116.06H300.15V119.4L300.64 120.88L301.38 121.62V123.47L300.27 124.09L299.9 125.33L298.54 126.81L299.28 127.67L300.52 128.78L302 130.51L302.37 132.61L301.13 133.84L301.38 137.06L302.24 138.17V139.15L301.13 141.99L300.15 142.98L299.65 144.22L298.91 145.33L297.43 146.07L293.85 144.34L292 143.23L288.29 142.12L286.93 141.25L285.45 140.76L283.85 139.65L282.98 137.92L283.23 136.56L284.71 136.07H286.32L287.55 135.33L288.17 134.22L289.16 132.86V130.51L288.04 129.03L285.82 128.29V127.18L284.34 126.81L282.74 125.82L278.66 122.61L277.3 121.25L276.44 119.77L275.33 119.03H271.99L268.04 117.67L267.18 116.44L266.07 116.19L263.35 116.06L261.13 116.68L261.12 116.74Z" fill="#CCCCCC" stroke="white" stroke-width="0.5"/>
<path d="M257.38 205.21L255.94 205.99L253.64 206.16L251.66 207.31L249.36 207.97L243.6 208.63L236.35 207.97L230.92 206.98L230.26 206.32H228.61L227.13 206.98L223.35 208.13L219.89 207.15L217.25 206.82L212.65 206.98L209.19 207.64L204.41 208.13L200.63 208.3L198.16 206.98L195.03 204.51L190.26 204.18L187.95 202.7L184.66 202.21L177.09 202.04L173.3 202.54L168.69 205.99L163.26 210.44L160.79 211.92L156.34 211.59L151.4 215.38L147.45 215.54L144.32 217.68L142.18 219.99L138.73 220.65L135.6 220.97L133.46 227.56L131.65 228.88L129.01 229.37L127.04 231.68L125.06 233.16L121.94 232.99L121.61 234.31L119.3 235.13L115.84 234.64L113.54 233.82L107.38 233.98L102.44 231.84H99.6398L98.1598 230.52L96.3498 229.21L92.2398 228.88L90.4298 228.05L84.9898 228.22L83.5098 229.04H81.0398L80.0498 228.05H79.2298L77.9098 229.04L75.2798 228.71L73.1398 227.4L71.8198 226.08H68.7998L69.0398 225.22L70.0298 224.4L71.9998 224.07L73.4798 223.25L75.7898 224.07L79.2498 224.56L81.2198 225.22H83.5298L85.1698 225.88L86.4898 226.21L90.1098 226.04L89.9498 224.89L89.1198 223.9L87.8098 222.92L86.6598 221.76L85.6698 221.27L84.6798 220.12V218.47L84.8398 216.83L85.8298 216.5L85.3398 213.86L85.4098 213.6L86.3798 212.92L87.9798 212.05L91.8098 209.46L94.0298 208.35L95.8898 206.25L98.5998 204.15L101.07 201.93L102.68 200.2L104.16 198.35L104.78 196.99L105.02 195.88L105.89 194.89V191.8L104.9 190.81V188.72L103.91 188.1L103.67 186.99H104.9L105.39 186L106.75 184.64V182.79L107.62 181.31V179.33L108.85 177.11L110.09 176.37L111.57 174.52L112.56 173.65L113.79 172.05L114.9 170.94L116.51 169.95L118.23 169.7L119.22 169.33L120.21 167.97V167.73L120.7 166.98L121.82 166.86L122.8 166L124.04 165.75L125.15 164.89L124.78 163.65L126.63 161.06L127.04 160.23L128.85 160.02L131.32 159.16L138.73 159.03L140.58 160.02H141.94L143.5 160.26L145.02 161.02L146.33 162.66L147.98 163.82L150.28 165.79L152.59 166.94L154.73 168.75L157.53 169.58L160.49 170.73L161.64 171.72H168.72L170.86 173.69L176.13 175.67L178.93 175.01L181.73 176L183.87 177.97L184.86 179.46L186.67 181.76L187 183.74L188.97 184.56L189.63 185.88L188.31 187.03L187.98 188.51L189.3 189.17L190.95 190.65L192.59 192.46L194.73 193.28L196.22 194.77L196.71 196.58L198.03 197.4L199.34 199.38L201.48 200.36L203.46 200.03L203.62 193.28L203.95 191.47L205.43 190.98L206.75 188.67L208.73 187.69L210.87 187.03L212.18 184.89L212.68 182.91L213.5 181.6L214 179.46L213.86 177.22L224.1 177.64L226.41 178.14H227.56L228.22 177.48L231.68 177.31L233.32 177.81L236.29 180.28L236.87 180.79L236.94 181.1L238.76 182.25L238.59 185.55H240.24L242.05 186.7L245.01 188.02L247.97 191.47L250.61 194.27L252.58 194.6L255.05 196.08L254.89 199.54L256.37 201.19L257.03 204.81L257.38 205.21Z" fill="#CCCCCC" stroke="white" stroke-width="0.5"/>
<path d="M388.3 371.32L388.71 364.6V362.62L387.4 360.97V358.01L386.9 355.87L385.26 355.38L383.45 354.55L381.97 354.39L380.98 355.21L380.15 355.38L378.34 354.22L375.54 353.57L372.75 351.43L366.98 343.19L364.19 338.09L362.54 335.46L361.72 332.99L361.06 329.2L359.74 327.55L359.41 324.76L360.73 323.93L365.5 323.44L366.49 322.45V320.31L364.68 318.83L363.53 318.17L363.36 316.03L365.01 315.37L365.34 314.22V313.07L363.69 311.75L361.72 309.77L359.58 306.98L359.74 305.99L361.22 305.17L361.72 304.01L361.22 302.7H360.4L358.26 301.54H352.5L350.52 303.02L348.38 305.66H345.91L343.61 302.7L343.44 297.92L345.09 293.64L345.42 289.2L344.43 287.22L341.3 286.4L338.34 286.73L336.86 287.22L334.88 288.21L332.25 294.3L330.11 296.6L328.63 298.74L327.31 300.39L324.18 301.87L320.89 301.71L319.74 302.7L317.6 303.68L315.95 303.85L315.62 301.87L314.47 301.05L314.63 297.26L313.97 295.95L311.34 296.28L308.05 299.4L305.74 301.21L304.75 302.53L299.98 305L297.35 304.67L294.71 305.49L288.46 305.66L284.67 306.48L283.35 307.47L281.05 307.14L279.4 305.33L275.12 305.66L274.46 303.68V301.38L275.29 299.4L275.45 297.59L274.96 296.11L276.27 295.45V292.49L275.29 290.84V288.87L273.64 288.04L270.35 287.22L268.21 287.39L266.56 286.89L265.74 286.23L263.6 285.41H263.15L263.3 283.97L264.67 283.04L265.49 282.05L266.97 281.56L268.13 280.08L270.1 279.09L270.92 276.78L271.75 275.96L273.89 275.3L275.2 273L275.53 271.19L275.37 268.39L276.85 265.42L277.67 261.8L279.98 259L280.64 252.42L280.47 250.94L279.15 249.29L277.67 249.62L276.69 247.97L277.34 245.01L278.83 242.38L280.97 241.22L283.44 240.4L286.4 240.56L288.87 239.58L291.67 236.78L293.97 235.63H296.77L300.72 233.82L302.04 231.35L303.19 230.36L306.32 225.91L307.47 223.94L308.46 221.8L310.76 221.3L312.08 220.48L313.03 219.41L313.83 220.28L316.95 220.61L319.92 218.47L321.23 216.83L321.89 217.81L323.21 217.98H325.84L327.98 218.8L330.62 217.98L332.76 217.48L334.57 215.18L336.38 213.37L337.7 211.23L338.68 210.41L340.5 210.08L341.81 209.25L344.28 208.92L345.27 208.1L347.25 208.27L347.41 209.09H348.89L350.04 209.58L350.87 210.57H352.51L352.72 209.77L352.73 209.78L354.95 209.9L357.05 210.4L361.99 212.25L364.09 212.87L366.93 213.48L369.03 214.35L370.51 216.32L372.61 217.68L374.59 219.16L376.19 219.41H378.17L381.5 218.42L383.23 216.82L387.06 214.72L391.25 214.47L392.12 213.24L392 212L390.64 211.26L389.53 210.27L389.16 209.16L388.91 206.69L390.39 204.96L392.12 203.98L392.98 203.24L395.58 203.36L397.43 204.1L399.16 203.11L403.6 201.01L405.7 201.14L407.31 202.87L409.78 204.35L411.38 206.32L414.34 206.82L416.81 206.94L418.91 205.71L420.52 204.59L421.38 203.48L423.85 199.65L425.58 198.42H427.06L429.78 196.69L431.63 196.44L432.86 197.19L434.59 197.31L436.82 197.06L440.03 195.33L440.89 194.59L442.5 193.98L444.1 192.99L445.46 190.64H446.69L448.42 190.27L449.41 189.04L450.77 187.93L452.5 188.79L453.85 188.05L455.71 187.93L460.52 189.78L462.5 189.9L463.98 190.64L465.83 190.77L467.68 189.78L468.79 188.91L469.78 187.93L470.4 186.32L471.76 185.95H472.62L473.46 185.63L473.45 185.92H474.93L476.41 184.32L477.89 182.96L478.76 182.65L479.08 184.84L479.2 186.81L480.44 187.93L481.18 188.91L482.78 190.39L483.89 191.63L484.39 193.36L488.71 193.23L491.8 193.36L493.9 194.1L498.22 197.06L499.45 198.54L500.44 200.03L501.06 201.26L501.3 202.74L502.54 203.48L505.63 204.47L506.98 203.36L508.22 202.99L508.96 202.12H510.44L512.29 201.88L513.4 201.38L515.75 202L516.86 204.1L517.6 205.83L518.84 207.8L519.58 209.53L520.94 210.77L523.28 212.62L525.88 212.99L527.23 213.73L529.21 213.85L530.57 214.84H532.42L533.16 213.48L534.27 212.74L535.63 212H537.73L539.09 211.01L540.69 210.64L541.06 209.9L543.9 208.3L545.63 206.94L547.61 206.82L548.72 207.43L549.33 208.42L550.08 211.26L551.19 212.13L552.67 212.99L554.77 211.88L556.13 212L556.99 211.01L558.47 210.64L559.21 209.9L559.71 209.04L560.94 209.16L561.43 209.9H562.18L562.55 209.29L564.4 208.92L565.51 208.05L579.13 207.8L577.9 209.25L575.94 210.44L569.3 210.73L567.66 212.37L566.64 216.44L566.01 219.8L563.09 221.65L560.66 222.22L560.36 224.2L560.48 225.93L561.62 228.03L562.83 228.31L565.07 231.19L565.9 233.21L565.72 234.55L563.95 236.24L565.23 237.53L567.45 239.31L568.8 239.46L570.61 238.72L572.14 238.44H575.12L576.87 239.03L578.32 240.24L579.71 241.15L580.75 243.09L579.85 244.97L577.83 246.98L574.98 249.34L571.79 250.87L570.19 252.95L568.11 254.07L564.38 253.95L563.02 254.66L562 256.71L560.61 257.96L558.04 257.89L556.23 256.84L553.73 256.64L552.41 256.36L550.81 258.58L548.8 259.07L547.13 259.62L544.91 259.55L543.17 258.65L540.54 258.72L539.18 257.42L538.25 257.56L538.45 259.69L539.63 261.08L540.6 263.06L540.82 264.63L540.46 266.41L542.2 269.51L542.34 279.79L543.52 279.72V282.64L542.41 282.78L542.27 284.65L540.4 286.18L538.17 287.36L536.58 288.4L535.67 290.9L533.8 291.95L532.25 292L530.47 293.36L531.11 294.71L543.46 307.42L554.24 320.55L558.02 324.34L559.59 326.05L560.61 327.41L562.45 328.91L565.23 332.51L566.29 336.85L566.23 337.93L565.16 338.79L563.31 341.21L561.16 343.64L554.91 347.55L552.86 349.13L551.88 350.92V353.07L549.84 355.47L545.75 355.54L544.91 356.44H539.91L538.73 355.4L535.05 355.47L534.63 360.26H529.08L527.06 361.09L525.95 362.27L526.09 364.56L526.02 366.02L524.35 367.83L522.06 367.97L517.41 367.83L517.13 369.01H514.98L511.85 372.62L509.7 372.9L507.62 372.54L505.78 372.9L503.35 372.69L501.32 373.76L500.16 374.87L497.41 375.25L494.24 373.97L491.68 373.52L490.02 372.61L487.74 371.9L486.54 371.65L485.02 371.72L483.97 373.25L481.82 374.43L481.03 375.68L481.06 377.48L479.04 378.66L473.21 378.39L471.49 378.67L470.19 379.47L469.32 381.39L469.68 384.32L470.75 385.39L471.46 388.39L472.65 391.19L472.17 392.72L471.24 394.59L470.32 395.96L468.82 396.81L467.17 398.28L464.54 398.24L463.11 397.67L453.26 388.32L448.76 382.96L447.51 381.04L446.01 380.18L442.09 380.36L441.8 381.68L440.73 381.82L440.8 383.46L440.5 384.8L438.62 385.15L437.09 384.53L435.59 383.18L434.66 382.04L433.52 381.04L431.88 381.19L430.02 381.04L428.55 382.3L424.94 382.23L423.9 381.26L422.23 381.12L421.67 382.3L420.08 382.02L419.87 383.21L417.99 383.9L417.24 385.15L416.07 385.03L414.78 384.66L414.04 383.65L412.83 378.18L411.26 376.24L409.13 374.94L405.52 374.39L404.31 373.85L400.48 373.58L398.53 373.61L396.3 374.21L394.66 374.48L391.44 374.57L390.05 373.74L388.48 371.42L388.3 371.32Z" fill="#CCCCCC" stroke="white" stroke-width="0.5"/>
<path d="M248.21 93.61L248.04 94.21L246.93 94.58L244.71 96.68L244.58 98.41L245.69 99.64L247.42 100.51L249.27 100.88L252.11 100.75L254.21 101L255.33 102.24V104.09L254.58 105.69L254.21 108.41L253.6 111.25L253.35 112.98L253.72 114.71L254.95 115.08L258.78 115.2L261 116.56L261.12 116.74L260.76 118.9L260.63 119.89L258.54 119.77L257.55 120.88L255.94 121.13L254.95 121.74L254.21 122.86L252.49 122.73L252.36 121.87L251.5 120.88L248.9 118.9L247.42 119.03L246.68 119.89L246.44 121.25V122.61L241.87 122.86L239.4 121.13L236.93 120.76L234.21 120.02L231.62 118.41L230.51 117.05L229.03 116.81L228.41 114.95L228.78 113.6L229.77 112.85L230.75 111.37L230.63 110.39L229.4 109.4L228.53 110.01L227.54 111.13L224.83 112.98L223.96 114.34L222.85 114.09L222.48 112.36L222.36 111L221.62 110.14V107.55L222.36 106.43L222.98 105.08L223.96 103.84V102.85L223.1 101.37L221.74 100.51L221.49 99.52L221.74 95.82L222.73 93.59L222.48 91.62L223.59 91.25L224.95 92.11L226.31 91.99L226.93 91.49L228.53 91.12H229.94L231.3 92.7L232.89 94.12H241.02L242.54 95.01L244.29 94.21L248.21 93.61Z" fill="#CCCCCC" stroke="white" stroke-width="0.5"/>
<path d="M246.44 121.5L246.82 121.67L248.3 123.65L249.62 124.96L250.11 126.12L250.61 128.09L249.95 129.24L248.63 130.89L246.66 132.04L244.19 132.7L242.54 133.85L241.22 134.51V137.15L241.55 139.94L242.71 140.6L243.04 146.86L244.19 148.34L245.34 150.81V159.54L244.02 161.35L242.71 162.33L240.4 164.8L239.91 166.28L237.44 170.07L237.77 171.39L238.76 172.21L238.92 179.29L237.44 179.78L237.6 181.43L236.29 180.28L233.32 177.81L231.68 177.31L228.22 177.48L227.56 178.14H226.41L224.1 177.64L213.86 177.22L213.83 176.66L212.18 175.34L210.37 174.52L209.88 172.54L208.56 170.89L207.08 170.56L205.27 169.41L206.26 168.42L207.9 167.6L208.89 166.94L211.53 166.61L212.35 165.46L211.53 163.32L211.03 161.18L210.04 159.21L210.54 157.56L212.35 155.58L209.22 152.79V150.81L208.73 149.16L206.92 148.67L203.79 145.38L201.32 144.06L200.99 142.25L201.15 140.77L198.03 135.01V133.19L197.86 131.71L196.54 130.89V129.24L194.86 125.06L195.28 124.58L196.64 123.6L196.89 120.39L197.75 120.26L198 118.29L197.87 116.06L197.95 115.02L199.27 114.83L200.26 113.84L201.99 113.97L204.46 116.31L206.18 117.42L207.42 118.04L210.5 117.05L210.88 116.06L212.48 115.08L215.07 114.95L214.95 116.31L215.32 118.29L216.18 119.15L217.67 119.03L220.38 117.55L221.49 116.31L222.73 115.82L223.46 114.23L223.96 114.34L224.83 112.98L227.54 111.13L228.53 110.01L229.4 109.4L230.63 110.39L230.75 111.37L229.77 112.85L228.78 113.6L228.41 114.95L229.03 116.81L230.51 117.05L231.62 118.41L234.21 120.02L236.93 120.76L239.4 121.13L241.87 122.86L246.44 122.61V121.5Z" fill="#CCCCCC" stroke="white" stroke-width="0.5"/>
<path d="M201.37 87.35L200.81 86.23L199.95 85.25L198.71 84.63L196.86 84.51L194.64 85.25L193.53 86.36L191.43 86.6L189.58 85.49L187.23 85.12L183.4 84.26H179.33L176.24 84.51L174.39 85.25L172.04 84.26L170.44 83.02L168.83 82.41L167.35 82.28L165.87 81.42L164.51 82.28L163.65 83.27L161.55 84.51L159.57 84.38L158.34 84.14L158.83 82.78L157.1 83.39L156.12 84.38L154.39 84.75L151.67 85.62L149.82 86.36L147.97 87.35H145.25L143.65 87.96L142.16 89.44L140.44 90.06L137.97 90.19L137.22 90.93L135.25 91.91L128.46 92.28L126.73 92.9L123.03 94.63L118.95 95.12L116.11 94.88L113.02 95L110.8 94.75L108.95 93.4L106.85 92.65L103.64 88.7L103.02 86.73L101.79 85L102.04 83.39L102.78 82.41L102.9 81.17L102.16 79.94L100.92 78.46L99.4402 77.59L98.4502 75.86L97.1002 74.75L95.2402 72.53L93.4902 71.23L94.0802 70.62L98.1902 68.87L102.19 66.45L104.05 64.93L106.54 64.35L110.92 61.99L113.77 60.86L117.68 60.02L121.3 59.64L122.79 59.74L126.08 59.49L127.77 59.21L128.5 58.55L130.5 57.34L131.62 57.24L135.95 55.47L139.67 54.52L142.72 53.26L143.94 51.59L145.93 50.21L149.47 49.88L149.18 48.32L149.66 47.5H152.87L155.15 49.02L156.14 50.63L157.62 50.75L158.98 50.63L162.18 50.04L162.86 46.15L161.82 43.46L159.98 39.89L158.34 39.38L156.54 39.44L155.41 40.56L150.03 41.2L142.29 43.29L141.32 42.11L140.95 39.64L142.19 38.77V35.69L139.23 32.48L138.83 30.92L138.66 28.72L140.21 26.05L141.36 23.14L143.06 20.43L147.23 17.73L149.61 16.65L154.23 16.88L156.76 19.08L158.12 21.61L157.95 23.64L158.96 25.84L160.32 27.87L160.66 30.75L160.83 33.8L162.69 39.21L165.15 42.85L166.14 44.95L166.58 47L167.93 47.84L169.96 48.86L172.02 47.62L175.72 47L176.73 47.84L178.5 48.23L179.94 47.37L182.27 46.41L186.38 47.33L189.73 48.54L192.81 49.87L201.32 50.31L209.42 54.66L212.23 56.43L214.33 57.05L219.27 60.75L220.98 63.24L223.94 66.96L226.56 69.89V72.6L225.13 74.24L226.71 75.42L226.82 75.93L225.81 76.95L225.13 78.81L224.94 80.67L225.57 83.84L226.8 85.57L229.02 89.72L224.58 90.38L218.16 90.26L216.06 89.89L214.46 89.15L213.22 88.28L212.11 87.05L211.74 83.59H209.15L205.2 84.46L202.48 87.05L201.37 87.35Z" fill="#CCCCCC" stroke="white" stroke-width="0.5"/>
<path d="M352.72 209.77L352.51 210.57H350.87L350.04 209.58L348.89 209.09H347.41L347.25 208.27L345.27 208.1L344.28 208.92L341.81 209.25L340.5 210.08L338.68 210.41L337.7 211.23L336.38 213.37L334.57 215.18L332.76 217.48L330.62 217.98L327.98 218.8L325.84 217.98H323.21L321.89 217.81L321.23 216.83L319.92 218.47L316.95 220.61L313.83 220.28L312.18 218.47L311.36 216.33L308.39 216L307.24 214.85L304.44 213.04L301.97 213.53L300.82 214.36L298.35 214.52L297.69 217.32L296.38 218.31L292.26 217.48L287.81 215.51L284.03 214.19L279.09 213.7L273.66 213.53L269.05 211.89L266.91 210.24L263.28 208.76L259.17 207.28L257.03 204.81L256.37 201.19L254.89 199.54L255.05 196.08L252.58 194.6L250.61 194.27L247.97 191.47L245.01 188.02L242.05 186.7L240.24 185.55H238.59L238.76 182.25L236.94 181.1L236.87 180.79L237.6 181.43L237.44 179.78L238.92 179.29L238.76 172.21L237.77 171.39L237.44 170.07L239.91 166.28L240.4 164.8L242.71 162.33L244.02 161.35L245.34 159.54V150.81L244.19 148.34L243.04 146.86L242.71 140.6L241.55 139.94L241.22 137.15V134.51L242.54 133.85L244.19 132.7L246.66 132.04L248.63 130.89L249.95 129.24L250.61 128.09L250.11 126.12L249.62 124.96L248.3 123.65L246.82 121.67L246.44 121.5V121.25L246.68 119.89L247.42 119.03L248.9 118.9L251.5 120.88L252.36 121.87L252.49 122.73L254.21 122.86L254.95 121.74L255.94 121.13L257.55 120.88L258.54 119.77L260.63 119.89L260.76 118.9L261.13 116.68L263.35 116.06L266.07 116.19L267.18 116.44L268.04 117.67L271.99 119.03H275.33L276.44 119.77L277.3 121.25L278.66 122.61L282.74 125.82L284.34 126.81L285.82 127.18V128.29L288.04 129.03L289.16 130.51V132.86L288.17 134.22L287.55 135.33L286.32 136.07H284.71L283.23 136.56L282.98 137.92L283.85 139.65L285.45 140.76L286.93 141.25L288.29 142.12L292 143.23L293.85 144.34L297.43 146.07L298.91 145.33L299.65 144.22L300.15 142.98L301.13 141.99L302.24 139.15V138.17L301.38 137.06L301.13 133.84L302.37 132.61L302 130.51L300.52 128.78L299.28 127.67L298.54 126.81L299.9 125.33L300.27 124.09L301.38 123.47V121.62L300.64 120.88L300.15 119.4V116.06L303.68 115.94L305.16 115.57L306.64 114.58L308.12 114.09L309.73 113.35L311.21 112.98L312.57 113.84L314.42 115.45L315.65 116.19L318 115.82L319.6 116.68L321.33 115.94L323.06 115.82L325.28 116.81L327.14 116.93L330.72 116.81L332.45 116.31L333.56 115.82L335.16 115.94L336.4 117.05H337.75L338.74 117.67L339.48 117.78L339.35 118.29L339.47 120.14L340.38 121.74L341.25 123.84V125.94L340.63 127.92L340.75 130.63L342.36 131.38V134.09L343.96 134.34L347.18 134.59L350.14 134.09L350.88 132.73L351.99 132.49L357.05 137.06L359.15 138.17L361 138.41L362.24 139.4L362.49 140.88L361.5 141.99L360.39 142.86L358.41 143.1L357.79 144.83L359.15 146.56L360.26 148.78L361.99 150.64L363.6 152.12L365.7 152.49L368.17 153.35L370.51 154.59L372.73 156.81V159.28L374.34 160.02L375.45 161.01L377.3 162.24L380.14 163.6L381.01 165.58L380.51 167.55L379.4 169.4L378.66 171.63L377.92 172.86H375.45L374.46 171.5L373.6 170.64L369.65 170.52L365.94 170.76L364.58 172L363.84 173.48L363.6 175.45L364.71 176.81L364.58 178.79L363.47 182L362.61 183.97L362.49 186.2L361.25 188.05L360.02 189.53L358.41 191.26L357.05 192.25L353.84 196.32L352.61 198.17L351.37 200.64L350.14 202L350.02 204.72L349.03 206.45L349.77 207.68L351.25 208.67L352.72 209.77Z" fill="#CCCCCC" stroke="white" stroke-width="0.5"/>
<path d="M197.95 115.02L197.87 116.06L198 118.29L197.75 120.26L196.89 120.39L196.64 123.6L195.28 124.58L194.29 125.7L192.94 126.68L191.82 127.79L190.47 128.54H188.86L187.13 128.78L186.64 129.4L185.53 128.54L184.17 128.17L184.29 122.86L183.43 121.74L182.81 121.5L181.58 122.61L181.33 123.84L180.22 124.96L179.6 125.94L179.35 127.3L178.37 128.04V129.15L177.5 129.52L177.62 130.39L178.98 132.24L177.38 132.61L175.9 130.26L174.78 130.63V132.73L176.14 133.35L175.9 134.46L174.78 134.09L172.32 132.12L170.96 132.49V133.35L172.19 134.34L172.07 135.33L171.08 135.2L170.22 133.97L167.87 134.46L167.01 135.33L166.88 140.88L165.9 141.75L164.78 141.99L163.55 141.87L162.93 141.01H161.33L160.22 141.99L158.86 141.62L157.13 139.77L158.36 138.54L159.23 137.43L159.72 136.31L160.22 134.96L159.84 133.6L158.36 133.84L157.62 134.34L157 135.2L153.92 135.08L151.7 137.43L150.95 137.8L150.21 139.9L148.98 139.03L148.49 137.55L145.89 134.59V132.61L147 130.88L147.5 129.77L151.2 129.4L152.07 129.03L151.33 127.55L149.23 127.05L147.62 125.7L145.77 124.71L144.04 124.46L142.81 122.98H141.32L140.21 123.6L138.11 122.73L136.51 121.87L135.52 120.51L134.29 119.77L132.93 120.26L130.95 120.76L129.47 119.89L127.74 119.65V116.81L126.51 115.82L125.03 115.2L125.15 113.97L123.54 113.1L121.94 113.84L121.2 115.08L120.95 117.05L121.2 118.04L120.07 118.34L120.1 118.14L117.51 117.89L115.41 116.78L114.54 116.04L113.06 115.55L111.21 114.31L110.35 112.46L111.09 110.85L113.43 109.5L117.38 107.52L119.48 105.67V103.69L120.22 102.58L120.35 101.47L119.48 100.61L118.49 100.85L117.51 100.24L117.26 99.37L117.38 98.14L117.01 96.53L116.27 95.79L116.22 94.89L118.95 95.12L123.03 94.63L126.73 92.9L128.46 92.28L135.25 91.91L137.22 90.93L137.97 90.19L140.44 90.06L142.16 89.44L143.65 87.96L145.25 87.35H147.97L149.82 86.36L151.67 85.62L154.39 84.75L156.12 84.38L157.1 83.39L158.83 82.78L158.34 84.14L159.57 84.38L161.55 84.51L163.65 83.27L164.51 82.28L165.87 81.42L167.35 82.28L168.83 82.41L170.44 83.02L172.04 84.26L174.39 85.25L176.24 84.51L179.33 84.26H183.4L187.23 85.12L189.58 85.49L191.43 86.6L193.53 86.36L194.64 85.25L196.86 84.51L198.71 84.63L199.95 85.25L200.81 86.23L201.37 87.35L201.12 87.42L200.63 88.04L199.52 88.9L198.53 90.26L196.92 90.88L194.58 91.12L192.85 92.11L191.98 93.47L191.61 95.82L193.71 99.15L193.84 102.48L194.82 103.59V104.95L189.89 105.08L189.51 106.68L188.53 107.92L187.05 108.29L185.69 109.27L185.32 110.14L186.06 111.37L187.17 112.11L189.14 114.46L188.28 115.69L188.03 116.93L188.53 118.9L189.64 119.89L191 120.63L192.11 121L192.97 119.65L193.22 117.3L194.33 115.94L195.44 114.95L197.54 115.08L197.95 115.02Z" fill="#CCCCCC" stroke="white" stroke-width="0.5"/>
<path d="M127.04 160.23L126.63 161.06L124.78 163.65L125.15 164.89L124.04 165.75L122.8 166L121.82 166.86L120.7 166.98L120.21 167.73V167.97L119.22 169.33L118.23 169.7L116.51 169.95L114.9 170.94L113.79 172.05L112.56 173.65L111.57 174.52L110.09 176.37L108.85 177.11L107.62 179.33V181.31L106.75 182.79V184.64L105.39 186L104.9 186.99H103.67L103.91 188.1L104.9 188.72V190.81L105.89 191.8V194.89L105.02 195.88L104.78 196.99L104.16 198.35L102.68 200.2L101.07 201.93L98.5995 204.15L95.8895 206.25L94.0295 208.35L91.8095 209.46L87.9795 212.05L86.3795 212.92L85.1395 213.78L84.1595 213.29L83.4195 212.55L82.5495 211.31L82.6795 207.73L82.2995 204.4L81.6895 203.16L79.9595 202.3H76.2495L74.8995 202.05L73.5395 200.32L70.0795 197.48L66.8695 196.99L65.2695 196.37L65.3895 194.52L66.8695 193.04L67.8595 191.56L68.5995 189.95L70.0795 189.33V184.89L70.3295 183.04L71.4395 181.8L71.0695 180.57L70.1995 179.58L69.8295 177.36L68.9695 177.11L68.6395 175.62L69.6495 175.28L71.1295 175.41L72.9795 176.15L74.7095 176.39L75.5795 172.81L77.0595 172.57L79.1595 171.33L82.7395 167.5L86.0695 165.65L87.7995 163.55L90.3895 162.32L92.9795 159.85L94.0995 158.98L95.6995 158.12L95.5795 156.76L94.9595 156.51L94.3395 155.65L94.4695 153.67L94.3895 153.23L95.3995 152.54L96.1195 151.71L96.4495 150.64L98.4795 150.71L98.9695 151.45L100.21 151.58L101.32 152.56L102.92 153.55L103.79 154.91L105.27 155.4L106.13 154.54L108.6 154.42L109.59 153.55L110.96 153.66L111.32 154.34H112.68L115.77 155.82L119.47 159.77L121.2 161.38L122.93 158.79L125.15 159.03L126.75 160.27L127.04 160.23Z" fill="#CCCCCC" stroke="white" stroke-width="0.5"/>
<path d="M339.48 117.78L338.74 117.67L337.75 117.05H336.4L335.16 115.94L333.56 115.82L332.45 116.31L330.72 116.81L327.14 116.93L325.28 116.81L323.06 115.82L321.33 115.94L319.6 116.68L318 115.82L315.65 116.19L314.42 115.45L312.57 113.84L311.21 112.98L309.73 113.35L308.12 114.09L306.64 114.58L305.16 115.57L303.68 115.94L299.97 116.06L297.13 116.19L295.16 115.45L289.11 115.08H286.76L285.65 113.84L284.29 112.61L283.06 111.87L278.98 110.39L278.12 109.15V107.42L279.11 106.43L279.23 104.71L277.99 103.35L277.5 102.24L276.27 100.51V97.67L276.09 96.29L277.21 95.75L278.27 97.05L279.25 97.67L281.85 97.91L283.82 97.67L289.25 94.83L290.49 93.84L290.74 91.15L292.84 91.37L294.56 90.51L296.17 90.14L306.42 90.26L307.78 91.25L308.89 91.37L310.74 91.12L312.1 90.75L312.71 89.52L312.6 87.61L314.45 86.19L316.8 86.37L317.69 86.73L319 88.66L322.3 88.79L323.34 89.23L323.32 90.44L321.72 91.45L321.66 92.65L322.61 93.88L323.93 95.18L328.78 99.04L331.06 100.34L334.11 103.38L336.38 105.12L337.32 105.28L339.09 105.18L342.87 106.56L346.92 107.01L351.94 108.6L351.82 109.4L350.58 110.26L349.22 111.5L348.24 112.11L346.88 113.72L345.52 114.95L343.67 116.19L342.06 117.05L339.72 116.93L339.48 117.78Z" fill="#CCCCCC" stroke="white" stroke-width="0.5"/>
<path d="M487.56 127.63L486.69 130.1L485.04 132.08L483.06 134.05L483.72 136.36L485.04 140.14L484.88 143.43V146.73L486.19 148.04L488.17 149.2L488.33 152.16L488.83 153.81L488.66 155.62L489.65 156.44L491.79 156.93L495.9 157.43L497.88 156.93L499.03 155.95L500.18 156.11L500.84 158.42L501.01 164.67L500.35 168.79L499.2 170.76L496.89 172.08L492.94 176.52L492.12 177.84L489.81 178.5L487.34 180.64L484.38 181.3L481.09 181.46L478.29 182.62L478.22 182.84L477.89 182.96L476.41 184.32L474.93 185.92H473.45L473.57 183.33L471.84 182.84L469.5 181.6L467.52 180.86L462.34 179.38L459.74 178.39L457.89 177.04L457.03 175.8L457.4 173.33L457.15 172.47L459.74 172.59L461.6 170.86L461.1 169.63H458.63L456.04 170.49L448.26 170.86L447.15 169.38L446.04 167.4L445.79 165.68L445.17 164.07L444.19 162.34L440.36 159.5L438.88 158.14L436.9 157.03L434.56 154.44L429.86 150.86L427.15 149.75L425.54 148.88L424.06 149.13L422.83 149.62L420.48 150.24L419.74 149.25L419 147.15L418.01 145.43L417.02 143.33L416.9 141.23L418.26 139.5L420.23 137.89L421.34 136.78L422.33 136.29V134.81L420.97 130.36L419.74 128.76L418.13 127.52L417.64 125.55L418.13 123.82L419 122.95L418.13 121.1L416.9 120.24L416.53 118.76L415.67 118.02L414.31 117.52L413.2 116.66L412.95 114.68L413.44 113.08L416.16 112.34L418.13 111.22L418.11 110.48H419.01L421.23 109.37L422.71 109.25L424.94 108.14L426.05 106.53L427.41 105.54L433.21 105.42L434.07 104.8L435.68 104.06L436.3 103.32L436.91 102.95L437.78 102.09L438.64 101.59L440.25 101.96L441.11 102.46L442.47 103.45L443.09 104.43L445.06 104.68L446.3 105.92L447.53 106.66L448.52 106.41L450 107.15L454.08 107.52L456.55 108.51L458.15 109.87L461.36 112.21L463.34 112.09L464.57 112.95L467.04 113.2L469.26 113.08L471.12 112.34L475.19 112.46L475.68 110.85L476.67 109.62L476.38 106.14L476.75 105.57L478.24 105.46L480.02 105.93L481.52 107.18L482.07 108.13L482.89 110.89L484.8 115.88L484.99 119.04L486.76 120.8L487.77 123.11L487.83 125.52L487.56 127.63Z" fill="#CCCCCC" stroke="white" stroke-width="0.5"/>
<path d="M419.72 82.5L418.27 82.6L416.82 82.21L417.3 82.02L416.24 81.73L416.05 81.05L417.21 79.6L419.53 79.79L419.92 80.37L420.11 81.43L419.72 82.5ZM409.68 80.56L407.85 80.66L406.31 80.56L405.54 79.4L405.93 78.72L409.5 78.53L410.18 79.01L410.28 79.78L409.68 80.56ZM424.94 70.52V71.68L423.97 72.16L423.49 72.93L422.04 73.03L421.46 73.8L420.4 74.57L417.99 74.96L417.02 75.73L412.39 75.83L411.71 75.54L411.03 74.57L409.39 73.32L407.65 72.84L406.98 74L403.21 73.9L402.34 73.03L400.31 72.84L398.77 71.78L398.87 69.75L400.32 68.4L402.83 67.92L406.5 68.11L408.33 70.04L410.07 71.01L412.77 71.3L414.41 70.43L415.76 70.14L416.72 67.24L417.4 66.95L418.75 65.79L420 64.44L420.48 64.34L422.22 64.53L422.7 65.11L423.09 66.65L424.44 67.62L424.83 68.97L424.94 70.52Z" fill="#CCCCCC" stroke="white" stroke-width="0.5"/>
<path d="M194.86 125.06L196.54 129.24V130.89L197.86 131.71L198.03 133.19V135.01L201.15 140.77L200.99 142.25L201.32 144.06L203.79 145.38L206.92 148.67L208.73 149.16L209.22 150.81V152.79L212.35 155.58L210.54 157.56L210.04 159.21L211.03 161.18L211.53 163.32L212.35 165.46L211.53 166.61L208.89 166.94L207.9 167.6L206.26 168.42L205.27 169.41L207.08 170.56L208.56 170.89L209.88 172.54L210.37 174.52L212.18 175.34L213.83 176.66L214 179.46L213.5 181.6L212.68 182.91L212.18 184.89L210.87 187.03L208.73 187.69L206.75 188.67L205.43 190.98L203.95 191.47L203.62 193.28L203.46 200.03L201.48 200.36L199.34 199.38L198.03 197.4L196.71 196.58L196.22 194.77L194.73 193.28L192.59 192.46L190.95 190.65L189.3 189.17L187.98 188.51L188.31 187.03L189.63 185.88L188.97 184.56L187 183.74L186.67 181.76L184.86 179.46L183.87 177.97L181.73 176L178.93 175.01L176.13 175.67L170.86 173.69L168.72 171.72H161.64L160.49 170.73L157.53 169.58L154.73 168.75L152.59 166.94L150.28 165.79L147.98 163.82L146.33 162.66L145.02 161.02L143.5 160.26L143.55 160.27L145.03 158.29L147.25 155.7L147.74 154.46L147.99 153.23V150.14L145.27 149.16L144.78 147.06L147 144.46L149.35 142.61L149.97 141.13L150.32 139.59L150.95 137.8L151.7 137.43L153.92 135.08L157 135.2L157.62 134.34L158.36 133.84L159.84 133.6L160.22 134.96L159.72 136.31L159.23 137.43L158.36 138.54L157.13 139.77L158.86 141.62L160.22 141.99L161.33 141.01H162.93L163.55 141.87L164.78 141.99L165.9 141.75L166.88 140.88L167.01 135.33L167.87 134.46L170.22 133.97L171.08 135.2L172.07 135.33L172.19 134.34L170.96 133.35V132.49L172.32 132.12L174.78 134.09L175.9 134.46L176.14 133.35L174.78 132.73V130.63L175.9 130.26L177.38 132.61L178.98 132.24L177.62 130.39L177.5 129.52L178.37 129.15V128.04L179.35 127.3L179.6 125.94L180.22 124.96L181.33 123.84L181.58 122.61L182.81 121.5L183.43 121.74L184.29 122.86L184.17 128.17L185.53 128.54L186.64 129.4L187.13 128.78L188.86 128.54H190.47L191.82 127.79L192.94 126.68L194.29 125.7L194.86 125.06Z" fill="#CCCCCC" stroke="white" stroke-width="0.5"/>
<path d="M476.38 106.14L476.67 109.62L475.68 110.85L475.19 112.46L471.12 112.34L469.26 113.08L467.04 113.2L464.57 112.95L463.34 112.09L461.36 112.21L458.15 109.87L456.55 108.51L454.08 107.52L450 107.15L448.52 106.41L447.53 106.66L446.3 105.92L445.06 104.68L443.09 104.43L442.47 103.45L441.11 102.46L440.25 101.96L438.64 101.59L437.78 102.09L436.91 102.95L436.3 103.32L435.68 104.06L434.07 104.8L433.21 105.42L427.41 105.54L426.05 106.53L424.94 108.14L422.71 109.25L421.23 109.37L419.01 110.48H417.78L416.67 109.74L415.8 109.37H412.59L409.01 110.73L407.78 111.35H403.33L402.22 110.61L400.86 110.24L399.5 109.62L398.27 109.25L396.91 108.38L396.42 106.53L395.18 105.17L394.69 104.8L394.18 104.02L395.54 101.73L397.82 99.91L398.84 98.94L400.24 97.89L403.21 97.52L406.96 93.61L408.99 93.87L410.77 95.26L413.05 95.9L420.54 96.02L423.58 95.79L424.44 95.03L427.88 93.9L428.67 93.29L424.6 92.34L422.57 91.2H419.78L418.51 89.42H416.48L415.97 90.44L408.74 90.19L404.9 92.01L403.87 91.1L404.32 90.23L402.77 87.77L403.66 87.01L404.85 86.45L406.32 87.52L412.29 87.27L412.67 86.25L415.97 86.13L416.73 87.39H421.17L422.25 86.14L428.92 86.15L430.95 87.01L435.88 86.97L442.5 85.49L448.08 85.62L449.31 84.24L450.87 83.71L460.69 83.48L462.04 84.48H465.21L466.74 83.59L469.15 83.08L470.92 82.06H473.46L476 82.7L479.68 82.83L482.9 82.51L487.85 83.36L493.77 84.09L497.84 83.66L501.89 83.46L503.67 82.95L508.99 82.45L508.82 83.95L506.84 84.73L505.19 85.74L502.65 86.38L500.12 86.63L498.6 86.93L497.68 86.63L496.49 86.55L492.66 86.98L491.47 88.17L490.35 90.18L489.04 91.23L483.8 91.16L480.37 90.84L478.04 90.18L472.83 90.06L466.84 91.16L465.71 91.54L465.18 92.45L466.46 92.88L467.05 93.84L466.96 95.85L466.63 96.79L465.23 97.11L464.38 96.94L463.52 97.16L462.4 97.05L461.49 97.21L460.74 97.75L459.88 98.66L459.56 102.84L460.14 103.64H461.53L462.07 102.67L462.02 99.46L462.88 98.61L463.79 98.45L464.75 98.93L466.68 98.87L467.33 97.75L468.76 97.05L468.71 95.66L469.53 95.14L471.18 96.91L472.57 97.04L473.84 99.07L474.23 102.44V106.9L475.25 107.23L476.13 106.54L476.38 106.14Z" fill="#CCCCCC" stroke="white" stroke-width="0.5"/>
<path d="M85.4097 213.6L85.3396 213.86L85.8297 216.5L84.8396 216.83L84.6796 218.47V220.12L85.6696 221.27L86.6597 221.76L87.8096 222.92L89.1197 223.9L89.9496 224.89L90.1096 226.04L86.4896 226.21L85.1696 225.88L83.5296 225.22H81.2197L79.2496 224.56L75.7896 224.07L73.4797 223.25L71.9996 224.07L70.0296 224.4L69.0396 225.22L68.7096 226.37L67.7197 227.86V228.68L67.2297 229.67L65.9097 230L64.4296 230.65H61.4697L58.9996 230.33L57.3496 229.34L56.1996 228.35L55.2096 227.2L53.8896 227.36L52.5797 228.02L50.2696 227.86L47.1396 228.02L46.7197 228.96L43.7296 228.82L43.2397 226.6L41.7596 226.1L41.3896 218.82L41.5696 207.34L42.8696 202.82L44.6796 201.72L46.5996 201.71L47.3596 201.08L47.5196 199.88L45.4596 197.63L45.2596 188.88L44.7296 187.44L44.1297 186.79L43.1896 186.54L42.8396 186.14L44.8297 185.65L46.1896 184.17L47.1796 183.92L47.4196 182.07L53.0996 179.23H55.5696L59.2796 177.87L61.6196 175.65L62.4897 175.41L63.7197 176.02L63.9697 177.26H65.5696L66.1897 176.27L68.1696 175.78L68.6396 175.62L68.9697 177.11L69.8297 177.36L70.1996 179.58L71.0696 180.57L71.4397 181.8L70.3297 183.04L70.0797 184.89V189.33L68.5996 189.95L67.8596 191.56L66.8697 193.04L65.3896 194.52L65.2696 196.37L66.8697 196.99L70.0797 197.48L73.5396 200.32L74.8997 202.05L76.2496 202.3H79.9596L81.6897 203.16L82.2997 204.4L82.6796 207.73L82.5497 211.31L83.4196 212.55L84.1597 213.29L85.1396 213.78L85.4097 213.6Z" fill="#CCCCCC" stroke="white" stroke-width="0.5"/>
<path d="M150.32 139.59L149.97 141.13L149.35 142.61L147 144.46L144.78 147.06L145.27 149.16L147.99 150.14V153.23L147.74 154.46L147.25 155.7L145.03 158.29L143.55 160.27L141.94 160.02H140.58L138.73 159.03L131.32 159.16L128.85 160.02L126.75 160.27L125.15 159.03L122.93 158.79L121.2 161.38L119.47 159.77L115.77 155.82L112.68 154.34H111.32L110.96 153.66L111.2 153.67L111.57 152.69L111.69 151.33L110.83 150.22L110.46 149.35L110.21 147.87L109.22 146.02L105.27 144.54L103.47 144.56L103.59 144.39L103.91 142.02L103.88 136.17L104.22 134.31L104.39 131.1L107.51 132.34L109.85 132.83L112.94 132.59L114.91 131.23L116.52 129.75V128.14L117.01 127.4L117.75 125.55L119.11 125.67L120.59 125.18L121.09 124.19L120.84 120.86L119.85 119.62L120.07 118.34L121.2 118.04L120.95 117.05L121.2 115.08L121.94 113.84L123.54 113.1L125.15 113.97L125.03 115.2L126.51 115.82L127.74 116.81V119.65L129.47 119.89L130.95 120.76L132.93 120.26L134.29 119.77L135.52 120.51L136.51 121.87L138.11 122.73L140.21 123.6L141.32 122.98H142.81L144.04 124.46L145.77 124.71L147.62 125.7L149.23 127.05L151.33 127.55L152.07 129.03L151.2 129.4L147.5 129.77L147 130.88L145.89 132.61V134.59L148.49 137.55L148.98 139.03L150.21 139.9L150.32 139.59Z" fill="#CCCCCC" stroke="white" stroke-width="0.5"/>
<path d="M229.02 89.72L229.52 90.63L229.94 91.12H228.53L226.93 91.49L226.31 91.99L224.95 92.11L223.59 91.25L222.48 91.62L222.73 93.59L221.74 95.82L221.49 99.52L221.74 100.51L223.1 101.37L223.96 102.85V103.84L222.98 105.08L222.36 106.43L221.62 107.55V110.14L222.36 111L222.48 112.36L222.85 114.09L223.46 114.23L222.73 115.82L221.49 116.31L220.38 117.55L217.67 119.03L216.18 119.15L215.32 118.29L214.95 116.31L215.07 114.95L212.48 115.08L210.88 116.06L210.5 117.05L207.42 118.04L206.18 117.42L204.46 116.31L201.99 113.97L200.26 113.84L199.27 114.83L197.54 115.08L195.44 114.95L194.33 115.94L193.22 117.3L192.97 119.65L192.11 121L191 120.63L189.64 119.89L188.53 118.9L188.03 116.93L188.28 115.69L189.14 114.46L187.17 112.11L186.06 111.37L185.32 110.14L185.69 109.27L187.05 108.29L188.53 107.92L189.51 106.68L189.89 105.08L194.82 104.95V103.59L193.84 102.48L193.71 99.15L191.61 95.82L191.98 93.47L192.85 92.11L194.58 91.12L196.92 90.88L198.53 90.26L199.52 88.9L200.63 88.04L201.12 87.42L202.48 87.05L205.2 84.46L209.15 83.59H211.74L212.11 87.05L213.22 88.28L214.46 89.15L216.06 89.89L218.16 90.26L224.58 90.38L229.02 89.72Z" fill="#CCCCCC" stroke="white" stroke-width="0.5"/>
<path d="M103.47 144.56L105.28 144.54L109.23 146.02L110.22 147.87L110.47 149.35L110.84 150.21L111.7 151.32L111.58 152.68L111.21 153.67L109.6 153.55L108.61 154.41L106.14 154.53L105.28 155.39L103.8 154.9L102.94 153.54L101.34 152.55L100.23 151.56L99 151.44L98.51 150.7L98.29 150.69L98.86 147.21L99.58 146.69L100.88 146.4L102.78 145.55L103.47 144.56ZM93.49 71.23L95.24 72.53L97.09 74.75L98.45 75.86L99.44 77.59L100.92 78.45L102.15 79.93L102.89 81.16L102.77 82.39L102.03 83.38L101.78 84.98L103.01 86.71L103.63 88.69L106.84 92.64L108.94 93.38L110.79 94.74L113.01 94.99L116.1 94.87L116.21 94.88L116.26 95.78L117 96.52L117.37 98.12L117.25 99.35L117.5 100.21L118.49 100.83L119.48 100.58L120.34 101.44L120.22 102.55L119.48 103.66V105.64L117.38 107.49L113.43 109.47L111.08 110.83L110.34 112.43L111.2 114.28L113.05 115.51L114.53 116L115.39 116.74L117.49 117.85L120.08 118.1L119.83 119.58L120.82 120.81L121.07 124.14L120.58 125.13L119.1 125.62L117.74 125.5L117 127.35L116.51 128.09V129.69L114.91 131.17L112.93 132.53L109.84 132.78L107.49 132.29L104.37 131.05V128.68L105.22 128.51L104.88 126.82L103.19 121.07L101.7 119.6L99.52 117.1L97.43 116.72L96.42 113.8L96.44 110.3L94.14 108.22L93.12 107.09L92.05 106.32L89.02 102.31L86.76 98.44L85.94 95.36L87.12 94.34L86.95 92.31L84.58 91.63L83.06 90.11L83.24 87.81L84.25 87.07L83.73 85.09L83.57 80.97L82.5 79.9L82.62 78.54L85.58 78.29L87.31 78.78L87.29 76.73L88.81 75.04L88.64 74.02L87.55 73.34L87.43 71.61L90.52 71.73L91.01 72.83L91.35 75.37L93.21 74.86L92.7 71.98L93.49 71.23ZM78.67 40.4L75.12 40.74L72.23 40.67L70 41.34L66.66 43.29L64.97 45.66L64.46 48.03L65.47 52.42L65.35 54.27L66.83 54.89L68.56 59.83L69.92 61.81L71.9 63.91L73.61 66.65L79.19 68.34L79.53 69.52L78.51 69.86H75.97L73.94 69.01L73.38 70.2L76.1 72.18L76.35 75.39L78.01 79.84L79.31 80.82L80.17 81.81L81.65 82.8L81.73 84.75L80.91 89.59L79.84 89.99L78.24 93.73L77.41 95.24L72.69 98.49L70.98 100.63L69.62 103.6L69.68 105.64L68.57 108.23L63.46 110.47L62.78 113.85L56.36 123.07L58.46 126.75L59.85 127.99L61.55 129.96L63.42 132.67L63.52 137.37L65.85 137.52L73.7 142.77L74.12 144.14L73.75 146.32L71.25 146.86L70.74 148.72L73.27 149.73V153.43L73.65 155.01L74.5 156.02L75.64 156.67L78.52 157.57L79.65 157.71L81.66 157.67L84.11 157.24L92.22 154.57L93.24 154.08L94.41 153.27L94.48 153.71L94.36 155.69L94.98 156.55L95.6 156.8L95.72 158.16L94.12 159.02L93.01 159.88L90.42 162.35L87.83 163.58L86.1 165.68L82.77 167.53L79.19 171.36L77.09 172.59L75.61 172.84L74.75 176.42L73.02 176.17L71.17 175.43L69.69 175.31L68.21 175.8L66.23 176.29L65.61 177.28H64.01L63.76 176.05L62.53 175.43L61.67 175.68L59.32 177.9L55.62 179.26H53.1L47.42 182.1L47.17 183.95L46.18 184.2L44.82 185.68L42.83 186.17L33.6 175.56L27.8 153.09L24.47 152.47L23.36 153.58L20.52 153.33L19.36 151.56L19.54 150.54L18.53 147.88L17.25 146.05L11.35 149.52L10.37 150.77L7.88 151.87L4.08 151.48L2.42 152.08L1 151.83L1.63 149.41L4.97 146.64L5.09 142.81L6.88 141.29L8.43 138.12L12.52 134.49L14.1 132.35L18.06 124.05L19.29 122.94L19.54 120.22L18.31 119.19L18.71 114.87L20.04 111.95L21.4 109.6L21.28 102.12L22.51 101.13V96.8L23.62 94.58L25.35 90.63L28.31 86.31L30.78 83.96L30.76 80.56L33.9 74.94L38.31 69.88L39.08 66.96L40.77 65.27L44.66 64.59L48.72 64.25L51.94 58.33L57.86 46.82L61.24 42.25L64.46 40.73L71.45 38.4L73.92 37.41L86.51 34.94L88.61 33.09L91.72 32.11L93.23 33.46L92.55 35.83L89.84 37.18L87.13 38.36L78.67 40.4Z" fill="#CCCCCC" stroke="white" stroke-width="0.5"/>
<path d="M358.54 70.27L359.57 71.3L361.24 70.91L362.01 71.68L362.27 72.84L363.3 74.13L363.04 75.03L362.14 75.93L361.24 76.7L360.21 76.83L356.73 76.7L355.57 75.93L354.8 75.8L353.9 75.93L352.87 75.54L351.97 73.74L352.1 72.71L352.61 71.81L353.9 70.65L357.5 69.62L358.54 70.27ZM457.93 54.34L456.39 56.23L455.19 55.03L454.68 53.49L455.71 51.77L457.43 51.6L458.63 51.94L459.32 52.8L459.15 53.83L457.93 54.34ZM399.89 37.11L399.57 39.23L398.71 39.75L397.85 38.55L398.02 36.66H399.74L399.89 37.11ZM320.88 36.66H319.59L318.3 36.02L317.66 35.25L316.24 34.09L317.14 33.45L317.66 32.55H320.62L321.26 32.16L321.77 31.13L322.8 29.84L324.34 30.61L324.47 32.03L325.11 33.06V34.73L323.95 36.02L322.79 36.53L320.88 36.66ZM390.27 35.5H388.34L387.05 34.86L386.41 33.7V32.15L387.18 30.86L388.6 29.96L391.18 29.83L392.08 30.99L392.34 32.15V33.95L390.27 35.5ZM302.47 28.68L303.11 30.35V34.08L302.21 36.01L300.92 37.04L298.99 37.56H296.54L294.74 36.79L293.2 36.66H290.62L289.59 35.63L289.72 34.86L298.47 34.34L299.76 32.41L300.15 31.51L299.25 30.09L298.22 28.8V30.47L297.45 31.89L296.42 32.79L292.56 32.66L289.73 30.21V28.92L290.5 27.89H292.17L293.33 27.12L295 26.73L297.32 25.96L299.77 25.83L301.57 26.99L302.47 28.68ZM266.03 27.78L264.61 27.91L262.81 27.52L262.68 26.88L262.81 26.11L264.35 25.85L264.22 24.95L262.42 23.79L263.06 22.76L263.96 22.12L265.5 22.64L266.92 25.34L266.53 26.88L266.03 27.78ZM257.41 22.37L257.8 24.17L257.16 26.23L255.49 26.87H253.3L252 25.85V24.3L252.9 23.14L254.19 23.27L254.32 22.24L251.49 21.08L249.95 20.05L251.37 19.15L252.91 19.28L256 20.95L257.41 22.37Z" fill="#CCCCCC" stroke="white" stroke-width="0.5"/>
<path d="M312.6 87.61L312.71 89.52L312.1 90.75L310.74 91.12L308.89 91.37L307.78 91.25L306.42 90.26L296.17 90.14L294.56 90.51L292.84 91.37L290.49 91.12H285.18L283.95 91.25L283.08 90.14L281.72 90.38L281.48 91.49L280.86 92.11L279.75 92.23L278.51 94.46L277.77 95.07L277.15 95.82L276.04 96.31L274.93 96.93H273.82L272.96 95.94L271.97 95.69L270.86 96.43L270.36 97.42L269.62 97.91L268.51 97.79L268.39 96.68L267.4 95.32L267.65 94.09L266.91 93.35L266.69 91.5L273 91.07L278 89.11L282.68 87.72L293.88 86.51H302.76L308.47 87.04L309.94 87.46L312.6 87.61Z" fill="#CCCCCC" stroke="white" stroke-width="0.5"/>
<path d="M546.11 179.26L545.19 179.91L543.49 178.86V177.94L543.88 176.89L545.06 176.37L546.11 176.76L546.5 178.07L546.11 179.26ZM541.92 178.21L541 178.6L540.21 178.34L539.69 177.29L539.95 176.64L541.13 175.85L542.57 175.98V177.03L541.92 178.21ZM561.94 172.97L562.2 174.15L561.28 175.2L559.32 175.72L558.53 174.8V173.49L560.23 173.62L561.94 172.97ZM559.85 172.32L559.46 172.45L558.67 171.53L559.72 170.61L560.77 171.66L559.85 172.32ZM550.95 169.7L549.12 171.14L548.47 172.32L547.68 173.37L547.42 174.16L545.59 174.95L543.63 175.47H541.8L541.93 173.51L543.37 173.25H544.94L545.33 172.07L545.2 170.76L544.15 170.5L543.23 171.15L541.53 172.85L540.61 172.59V171.54L542.18 170.49L542.31 169.57L542.96 169.44L544.4 168.65L545.71 168.52L547.15 167.6L550.29 167.47L551.47 167.86L550.95 169.7ZM555.27 167.61L554.62 168.92L553.44 168.79L553.05 168V167.08L554.23 166.56L555.27 167.61ZM558.15 169.57L556.19 170.62L555.93 171.93L555.01 172.58L554.09 173.76L552.65 174.55L551.6 174.29L551.99 173.24V172.72L552.91 171.93L553.7 171.01L554.35 169.83L555.53 169.57L557.23 169.7L558.15 169.05L559.46 166.96L560.51 166.57L560.9 167.62L560.25 168.01L559.46 169.06L558.15 169.57ZM550.29 165.91L548.85 166.04L548.33 165.65L548.2 164.6L547.28 163.16L551.73 158.97H552.52L553.83 159.36L554.09 160.54L553.57 162.11L552.13 163.94L550.29 165.91ZM556.58 159.1L555.01 159.23L553.31 157.79L554.36 156.74L557.63 158.44L556.58 159.1ZM544.8 164.08H543.1L543.75 162.51L544.8 160.81L546.76 159.63L548.2 158.58L549.77 156.62L551.08 155.97L551.6 157.15L551.08 158.2L549.64 158.99L548.07 161.08L546.76 162L546.11 163.31L544.8 164.08ZM553.3 154.52L552.65 155.04L551.21 154.91L550.82 153.86L551.21 152.42L551.86 151.63L552.65 151.24L553.83 151.37L554.48 152.81L553.96 154.25L553.3 154.52ZM559.32 153.34L559.97 154.39L560.89 154.26L561.02 155.31L560.37 156.36H559.58L558.79 155.18L557.35 154.26L555.78 153.47L555.65 152.42L555.91 151.63L557.09 149.8L558.01 149.54L558.8 150.33L558.41 150.98L557.76 151.37L558.15 152.68L559.32 153.34ZM550.98 149.66L549.32 150.62L548.57 150.03L548.52 149.43L549.12 148.89L550.17 148.24L551.35 145.62L550.83 141.82L550.37 140.28L550.78 139.96L550.89 138.78L551.85 138.4L552.63 138.5L554.32 139.67L555.86 141.45L557.09 144.66L556.88 145.68L555.27 145.84L554.52 146.86L552.49 148.73L550.98 149.66ZM537.73 131.36L537.21 132.67L536.16 132.41L535.24 131.49L534.59 129.92L535.11 129.27L537.33 130.71L537.73 131.36ZM511.55 126.64L512.35 126.75L512.56 125.95L511.81 124.93L511.33 123.97L511.6 123.33L512.82 122.48L513.74 122.52L514.44 123.76L516.37 123.71L518.89 124.73L521.3 125.43L522.43 125.38L520.93 123.13L519.91 122.17L519.59 120.83L520.02 119.92L520.88 119.71L525.97 123.35L529.05 126.83L529.55 127.74L530.93 129.22L532.76 131.75L536.55 133.28L539.13 133.75L544.06 133.89L545.8 133.83L548.4 134.93L549.38 137.47V139.99L549.91 140.65L550.69 145.25L549.9 147.21L548.22 148.41L548.04 148.07L546.85 150.26L546.61 151.84L545.04 152.34L543.54 152.27L543.18 153.48L541.39 153.55L539.89 153.84L538.18 154.48L537.47 155.91L538.61 156.62L539.97 155.55L541.04 154.91H542.4L542.74 156.06L543.97 155.7L544.9 154.77L547.11 153.13L548.04 152.27L548.47 152.7L548.4 154.84L546.47 158.04L544.45 159.69L543.55 161.1L542.06 162.02L541.55 164.16L540.85 165.45L541.56 166.59L542.56 167.16L540.77 169.66L538.77 173.23L538.63 176.09L537.7 176.88L537.41 177.95L538.12 179.02L539.33 179.16L540.97 180.3L542.25 180.73L542.54 181.59L545.68 182.16L547.07 183.05L548.04 182.81L548.68 178.83L549.46 177.96L550.95 177.84L551.6 178.89L552.6 178.53L552.74 177.89L555.23 177.48L560.39 177.05L561.88 177.46L564.31 179.42L571.44 180.44L572.3 179.11H576.94L577.73 178.18L575.23 177.47L573.95 177.33L573.97 176.31L575.14 175.83L581.59 176.05L582.93 176.3L590.08 178.34L593.58 180.27L596.58 182.91L597.94 185.84L600.08 187.55L601.01 188.98V190.98L599.51 192.76L597.15 192.62L595.22 193.83L593.94 194.47L592.23 195.75L592.16 198.08L591.16 199.72L591.54 201.25L590.36 202.24L587.89 202.05L586.51 202.62L581.87 205.14L580.16 206.64L579.13 207.85L565.51 208.1L564.4 208.96L562.55 209.33L562.18 209.95H561.44L560.95 209.21L559.71 209.09L559.22 209.95L558.48 210.69L557 211.06L556.14 212.05L554.78 211.93L552.68 213.04L551.2 212.18L550.09 211.32L549.35 208.48L548.73 207.49L547.62 206.87L545.64 206.99L543.91 208.35L541.07 209.96L540.7 210.7L539.1 211.07L537.74 212.06H535.64L534.28 212.8L533.17 213.54L532.43 214.9H530.58L529.22 213.91L527.24 213.79L525.88 213.05L523.29 212.68L520.94 210.83L519.58 209.6L518.84 207.87L517.6 205.89L516.86 204.16L515.75 202.06L513.4 201.44L512.29 201.93L510.44 202.18H508.96L508.22 203.04L506.99 203.41L505.63 204.52L502.54 203.53L501.31 202.79L501.06 201.31L500.44 200.08L499.45 198.6L498.22 197.12L493.9 194.16L491.8 193.42L488.71 193.3L484.39 193.42L483.9 191.69L482.79 190.46L481.18 188.98L480.44 187.99L479.21 186.88L479.11 185.34L478.95 185.31L478.79 182.7L478.22 182.91L478.29 182.68L481.09 181.53L484.38 181.37L487.34 180.71L489.81 178.57L492.11 177.91L492.93 176.59L496.88 172.15L499.18 170.83L500.33 168.85L500.99 164.73L500.83 158.47L500.17 156.17L499.02 156.01L497.87 157L495.89 157.49L491.77 157L489.63 156.51L488.64 155.69L488.81 153.88L488.32 152.23L488.15 149.27L486.17 148.12L484.85 146.8V143.51L485.01 140.22L483.69 136.43L483.03 134.12L485.01 132.14L486.66 130.16L487.53 127.69L487.51 127.82L488.99 128.68L489.24 128.37L489.51 125.91L489.35 124.2L489.89 122.06L490.05 120.24L490.59 118.85L491.34 117.56L492.58 116.5L492.95 115.74L494.34 115.1L496 114.78L499.05 115.16L500.17 115.91L503.6 119.12L510.51 126.08L511.55 126.64Z" fill="#CCCCCC" stroke="white" stroke-width="0.5"/>
<path d="M388.3 371.32L386.94 370.52L386.51 369.84L385.5 369.04L383.32 367.99L382.34 367.73L380.78 367.77L379.97 368.7L379.88 371.09L381.53 373.55L383.8 374.03L384.63 376.76L386.11 379.63L386.94 381.06L387.62 381.88L392.42 386.77L395.59 389.73L399.15 391.34L401.7 392.75L406.07 396.24L407.92 399.48L408.11 401.24L407.65 403L406.35 404.2L406.63 406.43L406.35 409.67L406.24 415.83L406.63 419.39L408.85 422.59L411.5 424.77L414.59 429.95L416.94 435.02L417.06 441.31L416.44 443.29L415.21 444.77V446.13L416.32 447.98L420.27 448.84L424.84 450.45L433.79 449.17L443.34 449.81L444.18 450.42L445.46 453.78L446.2 456.38L443.69 459.43L443.61 460.95L438.42 461.69L435.39 462.55L433.11 464.65L429.41 467.61L427.06 468.48L421.38 468.6L418.54 469.59L416.81 470.58L415.08 473.29L414.47 475.27L414.22 483.29L413.36 485.64L410.76 488.23L405.58 492.31H402.74L402.37 490.58H399.4L397.3 492.18L394.34 493.67L391.5 495.86L389.77 497.96L385.45 501.42L383.48 501.17L381.38 499.94L379.12 499.89L376.81 502.28L374.43 503.31L371.75 505.74L367.18 506.6L365.94 507.1L364.66 507.87L364.33 509.72L364.02 512.64L363.45 514.35L363.23 515.87H359.95L358.04 516.24L356.68 516.85L353.68 520.12L353.45 522.95L352.24 526.73L349.89 527.59L347.17 527.44L346.45 526.81L346.93 525.5L347.55 524.51L349.03 523.03L349.77 521.54L349.89 516.24L348.78 514.51L348.04 513.77L344.46 513.15L339.03 513.52L332.85 516.61L331.74 518.33L330.51 519.69L329.15 520.8L328.28 521.92L325.69 522.16L322.48 524.14L319.76 524.26L317.79 523.27L316.31 524.14L313.22 523.77L312.02 522.43L304.36 515.93L302.73 515.49L292.17 505.6L288.29 502.24L288.53 500.92L288.4 497.34L286.8 496.73L286.03 491.98L285.93 486.6L283.96 484.63L283.14 481.61L281.06 476.87L280.69 473.66L278.63 470.36L278.09 464.53L276.49 463.54L276.36 462.06L274.64 459.09L274.14 456.38L275.13 455.27L275.87 453.54L274.27 451.02L273.08 450.11L270.34 448.98L268.59 445.88L261.32 439.56L258.24 439.46L257.87 436.5L256.72 434.69L255.4 433.66L252.68 433.78L250.95 433.04L249.35 433.16H246.26L244.53 432.18L246.63 430.2L262.68 416.25L265.89 415.75L265.52 412.79L268.12 410.82L271.33 407.98L271.08 405.01L267.69 403.83L266.63 402.54L264.54 401.18L264.66 397.36L264.04 394.76L262.31 392.91L260.96 392.79L259.23 393.04L256.27 391.77L256.26 390.44L255.52 388.71L254.29 384.89L253.05 384.22L253.18 381.87L255.28 380.15L254.29 377.92L250.83 376.07L248.02 373.04L247.15 370.17L247.19 368.36L247.38 367.16L248.1 365.64L248.24 363.11L247.5 360.27L245.4 358.91L244.83 355.67L244.9 352.73L246.51 350.39L246.83 343.78L246.63 336.68L248.24 334.21L248.48 332.36L246.53 332.23L246.12 330.56L246.51 322.48L248.24 320.51L250.21 319.52L252.31 317.92L254.04 316.93L255.65 314.46L256.02 303.17L260.21 297L262.93 294.41L263.67 293.3L265.89 292.93L265.65 289.71L264.04 289.47L263.42 288.23L263.05 286.38L263.15 285.41H263.6L265.74 286.23L266.56 286.89L268.21 287.39L270.35 287.22L273.64 288.04L275.29 288.87V290.84L276.27 292.49V295.45L274.96 296.11L275.45 297.59L275.29 299.4L274.46 301.38V303.68L275.12 305.66L279.4 305.33L281.05 307.14L283.35 307.47L284.67 306.48L288.46 305.66L294.71 305.49L297.35 304.67L299.98 305L304.75 302.53L305.74 301.21L308.05 299.4L311.34 296.28L313.97 295.95L314.63 297.26L314.47 301.05L315.62 301.87L315.95 303.85L317.6 303.68L319.74 302.7L320.89 301.71L324.18 301.87L327.31 300.39L328.63 298.74L330.11 296.6L332.25 294.3L334.88 288.21L336.86 287.22L338.34 286.73L341.3 286.4L344.43 287.22L345.42 289.2L345.09 293.64L343.44 297.92L343.61 302.7L345.91 305.66H348.38L350.52 303.02L352.5 301.54H358.26L360.4 302.7H361.22L361.72 304.01L361.22 305.17L359.74 305.99L359.58 306.98L361.72 309.77L363.69 311.75L365.34 313.07V314.22L365.01 315.37L363.36 316.03L363.53 318.17L364.68 318.83L366.49 320.31V322.45L365.5 323.44L360.73 323.93L359.41 324.76L359.74 327.55L361.06 329.2L361.72 332.99L362.54 335.46L364.19 338.09L366.98 343.19L372.75 351.43L375.54 353.57L378.34 354.22L380.15 355.38L380.98 355.21L381.97 354.39L383.45 354.55L385.26 355.38L386.9 355.87L387.4 358.01V360.97L388.71 362.62V364.6L388.3 371.32Z" fill="#CCCCCC" stroke="white" stroke-width="0.5"/>
</svg>
