<svg width="799" height="469" viewBox="0 0 799 469" fill="none" xmlns="http://www.w3.org/2000/svg">
<path d="M59.5419 467.84L62.9119 467.71L65.4519 464.98L70.9419 461.1L78.4119 457.78L81.3119 455.47L79.4219 453.84L76.1219 452.25L74.5619 452.41L70.9419 451.79L66.4419 449.51L62.3919 448.54L49.3719 454.66L46.7219 457.26L46.0619 460.52L49.4319 463.35L59.5419 467.84ZM54.1819 441.31L36.4519 431.88L31.5719 430.38L30.3819 427.87L21.6119 418.5L20.0019 425.88L19.1719 431.89L21.9419 437.03L23.2519 441.53L25.2319 441.83L30.1119 444.05L33.5219 442.68L54.1819 444.05V441.31Z" fill="#CCCCCC" stroke="white" stroke-width="0.5"/>
<path d="M787.031 1L781.251 5.99L775.961 12.53L773.581 20.15L776.441 28.47L769.941 33.53L771.801 39.94L776.011 46.75L776.441 52.9L780.161 55.76L785.471 57.28L790.251 56.28L792.311 51.54L790.061 41.43L791.291 37.61L797.611 36.57L796.681 33.75L796.071 32.68L794.731 31.19L798.611 22.96L796.681 16.42L791.861 9.68L787.031 1Z" fill="#CCCCCC" stroke="white" stroke-width="0.5"/>
<path d="M17.1425 413.72L3.2925 409.33L0.3125 415.57L4.3825 427.09L11.6025 438.32L15.3625 440.34L23.2525 441.53L21.9425 437.03L19.1725 431.89L20.0025 425.88L21.6125 418.5L17.1425 413.72Z" fill="#CCCCCC" stroke="white" stroke-width="0.5"/>
</svg>
