<svg width="656" height="602" viewBox="0 0 656 602" fill="none" xmlns="http://www.w3.org/2000/svg">
<path d="M283.638 405.8L282.913 404.872L280.755 404.923L278.542 404.515L277.525 407.89L274.078 405.795L274.287 404.82L275.516 402.47L275.116 401.979L274.029 401.4L273.829 401.032L273.919 399.731L273.639 399.403L270.559 400.64L270.075 400.635L268.909 399.975L265.957 400.274L264.952 399.696L264.875 399.208L265.204 398.397L267.11 397.479L267.557 397.116L267.723 396.548L267.123 395.689L267.127 395.12L267.948 393.379L268.076 392.444L267.165 390.12L266.892 388.654L266.94 387.761L267.346 387.479L268.314 387.487L270.845 389.135L274.104 390.625L274.628 390.629L275.156 390.309L276.213 389.098L276.619 388.938L278.072 388.908L280.822 388.035L281.142 388.485L280.609 389.66L280.683 390.758L280.478 391.285L280.918 391.938L282.37 392.071L283.494 393.137L284.864 393.595L285.714 393.315L286.648 392.306L287.254 392.31L287.492 392.922L287.484 394.386L287.764 394.713L289.297 395.008L289.497 395.294L288.223 399.067L288.663 399.681L290.957 401.202L291.115 401.976L290.623 403.071L289.647 404.122L287.501 404.88L283.638 405.8Z" fill="#CCCCCC" stroke="white" stroke-width="0.5"/>
<path d="M490.886 179.68L493.154 179.907L493.649 182.307L494.407 182.542L495.201 182.417L495.88 182.774L496.796 182.848L498.742 182.475L499.977 182.827L500.433 185.108L499.741 188.157L499.905 188.798L500.748 189.794L500.603 191.558L500.851 192.879L502.109 195.837L501.837 196.681L500.37 197.492L500.189 199.859L499.798 200.664L499.044 200.91L497.846 200.557L495.787 202.174L496.21 205.46L495.632 208.032L493.099 208.048L493.023 208.434L493.405 209.71L494.898 210.646L492.517 212.506L490.724 212.598L489.693 213.406L488.54 213.655L485.969 210.941L483.364 208.869L476.644 205.094L475.323 204.018L478.425 202.999L479.018 202.474L479.095 202.032L477.848 200.034L476.491 199.52L475.05 198.444L475.047 197.962L476.115 196.794L476.626 195.829L476.223 194.909L475.062 194.113L475.57 192.347L475.484 191.465L475.641 191.184L477.552 191.054L478.147 190.77L479.091 189.001L481.308 187.227L481.415 185.263L481.968 184.539L483.768 186.171L485.68 186.28L486.588 185.313L486.986 185.312L487.308 185.75L487.706 185.828L489.415 185.617L490.758 184.087L490.535 180.763L490.886 179.68Z" fill="#CCCCCC" stroke="white" stroke-width="0.5"/>
<path d="M648.906 169.686L649.361 170.65L650.081 170.996L651.684 171.167L653.78 173.144L654.536 174.19L654.444 176.214L654.179 177.035L653.109 178.03L652.414 180.111L651.917 182.815L652.111 183.839L652.609 184.404L651.966 184.681L651.194 184.336L651.081 184.81L651.058 185.976L651.494 186.612L653.132 187.697L653.149 188.119L652.062 188.693L652.217 189.717L651.765 191.5L650.115 191.811L648.349 191.538L647.577 192.897L647.677 196.169L646.981 198.152L647.046 200.723L647.237 201.05L648.612 201.298L649.011 201.621L648.971 202.138L648.518 203.022L648.326 204.789L647.778 205.608L646.855 205.361L646.531 205.62L646.124 206.602L646.075 207.887L646.645 209.839L646.654 211.688L647.448 213.442L647.517 215.131L648.745 218.336L648.413 220.063L648.566 221.311L649.102 222.42L649.867 222.565L650.716 223.638L650.593 225.668L651.103 227.845L651.621 228.874L651.655 229.9L650.711 232.731L651.091 235.542L651.997 236.726L653.546 237.299L654.266 238.088L654.161 238.934L655.464 240.19L655.522 240.553L654.827 242.1L653.758 242.455L652.907 243.115L652.28 246.636L652.818 247.768L652.832 248.936L652.686 249.641L652.117 250.362L649.163 251.753L648.761 251.73L647.899 250.737L647.597 250.735L646.277 251.835L645.146 252.149L644.214 252.828L642.884 252.617L642.475 253.199L641.85 253.255L641.246 254.622L642.095 256.411L642.178 257.741L641.363 259.605L642.446 260.658L643.317 263.327L647.075 269.365L647.152 270.051L645.327 274.115L644.871 276.05L643.303 277.856L641.909 278.688L640.669 278.766L637.184 277.044L635.322 277.374L633.944 278.097L633.291 278.711L632.265 278.999L630.732 280.266L628.647 280.612L626.797 281.971L626.142 282.915L626.195 284.006L627.354 285.773L627.809 287.029L628.373 290.044L628.29 290.387L625.999 290.975L625.834 291.377L626.603 296.765L627.097 298.221L627.699 298.792L629.134 299.168L630.571 299.159L634.283 298.097L636.97 298.049L637.963 298.792L638.464 302.314L639.024 303.37L640.129 303.84L640.651 305.223L640.663 306.538L640.189 307.688L638.26 317.188L638.577 321.158L638.345 322.474L634.933 326.135L632.197 328.443L632.13 329.253L632.972 330.679L632.947 331.367L632.349 332.62L632.517 334.607L632.2 336.247L632.216 336.937L632.696 337.751L633.625 338.509L634.45 338.677L637.929 338.603L637.537 342.352L637.633 343.144L638.457 344.326L638.151 350.351L638.589 351.612L637.037 355.641L637.113 356.332L637.395 356.658L638.369 356.991L640.261 356.842L640.564 357.048L641.683 356.994L643.922 356.482L646.715 355.183L647.798 354.337L648.305 354.36L649.108 355.909L649.305 357.027L649.18 357.615L647.339 359.39L647.193 359.815L647.454 360.386L650.288 362.537L652.581 363.324L654.162 364.269L655.335 365.475L655.63 367.122L654.887 369.048L654.941 370.145L653.895 374.957L652.981 381.724L651.832 386.559L650.932 387.244L649.341 387.62L648.359 388.203L644.749 388.79L644.259 389.111L643.561 390.475L644.096 391.408L644.203 395.099L643.363 395.542L642.058 395.143L641.495 393.998L640.925 393.994L639.88 394.78L638.834 398.723L638.85 399.131L640.103 400.871L640.139 401.686L640.015 401.97L638.093 402.648L637.743 403.094L637.429 404.335L637.527 404.702L638.258 405.38L639.417 405.796L639.741 406.165L639.251 409.198L639.529 410.342L634.762 414.974L634.202 416.193L634.23 417.824L628.646 424.675L624.417 432.498L623.178 434.141L622.314 434.726L618.698 434.531L614.671 434.658L613.849 435.079L610.041 438.107L608.39 439.787L607.765 443.274L607.853 444.767L608.609 447.104L608.871 456.592L610.608 463.85L610.466 466.119L607.473 473.092L606.411 474.802L604.852 477.06L600.852 481.525L599.674 482.538L597.897 485.942L598.18 486.437L600.685 488.308L601.172 488.906L601.208 489.44L600.269 490.947L600.628 492.181L602.539 494.004L603.3 496.124L605.511 498.956L607.048 501.535L607.383 503.036L606.421 502.657L605.097 501.495L604.051 501.342L602.545 501.72L601.646 500.277L597.023 496.139L595.348 495.593L593.381 494.561L592.438 491.713L591.357 490.217L591.153 487.685L589.441 482.479L587.752 480.952L584.368 479.94L583.424 479.26L583.121 478.12L583.529 475.745L583.112 475.057L581.93 474.625L580.65 473.296L580.534 471.011L579.385 467.557L579.442 466.127L579.753 465.224L581.766 461.767L585.448 453.798L585.729 451.143L586.434 449.664L586.477 447.258L586.746 446.316L587.619 445.244L588.863 444.573L589.217 443.957L589.406 440.653L589.852 438.162L590.502 435.83L591.446 434.146L591.289 426.982L591.887 421.439L592.229 420.092L592.524 415.857L593.263 411.536L594.075 409.37L594.757 401.558L596.074 395.689L596.216 386.918L595.982 384.974L595.564 384.048L595.034 383.609L592.688 383.115L591.311 382.567L587.204 380.193L586.31 379.638L583.608 376.756L577.809 376.876L575.863 376.05L572.683 373.253L569.179 373.258L567.719 372.507L565.468 369.899L564.466 367.277L561.047 364.441L558.771 359.728L556.865 358.616L553.642 355.13L553.028 354.286L551.858 350.816L548.574 348.627L546.473 347.759L545.741 347.12L544.748 344.742L542.634 342.782L541.182 342.312L540.895 341.869L540.343 339.325L539.6 337.634L538.952 337.195L537.102 337.053L534.079 336.153L532.436 336.655L531.872 336.458L529.994 333.726L527.89 332.33L526.91 330.844L525.899 330.246L522.112 329.148L518.498 329.182L517.652 328.906L516.925 328.387L515.336 326.217L514.729 325.737L511.703 324.146L510.364 322.702L508.064 321.468L504.751 319.068L501.484 317.355L504.409 316.808L507.218 316.786L507.858 316.618L508.296 316.211L508.62 312.168L509.293 311.152L510.09 310.621L510.601 309.566L510.682 305.164L511.077 304.595L511.878 304.468L515.048 304.724L516.987 306.241L518.07 306.272L519.671 305.895L521.237 306.163L521.806 306.885L522.264 308.456L522.79 309.017L523.597 309.373L525.524 309.678L527.139 310.632L528.062 310.785L528.542 310.539L529.967 308.788L533.148 302.702L533.38 301.771L532.964 300.362L532.823 298.508L533.378 297.938L534.341 298.049L537.17 300.2L538.899 300.708L542.299 300.067L542.971 299.294L544.487 298.672L546.054 299.019L549.482 300.92L552.687 304.154L556.32 306.172L559.904 307.463L560.786 307.452L561.899 306.673L562.658 306.461L565.833 307.15L564.796 304.418L564.618 303.129L565.307 300.539L565.231 297.836L565.599 295.371L565.466 294.324L565.256 293.6L564.117 292.162L562.87 288.628L562.585 288.229L560.934 287.522L560.322 286.562L559.61 284.071L559.954 279.513L559.739 278.307L558.755 276.344L557.737 274.985L555.888 274.241L553.969 274.222L552.841 273.629L553.139 271.773L552.355 269.769L550.132 267.779L549.356 266.378L546.763 263.305L546.932 260.606L547.674 259.109L547.668 258.627L546.818 257.709L545.919 255.868L543.896 253.716L544.291 253.229L545.643 252.733L546.434 251.961L547.319 248.975L547.989 248.165L551.33 247.044L553.521 246.579L554.551 245.885L553.971 244.082L553.837 242.837L554.025 241.87L555.283 240.25L555.475 239.564L555.626 235.424L555.234 232.616L554.984 224.867L555.165 223.22L555.862 221.487L556.688 220.595L558.439 220.255L559.239 220.528L559.844 221.083L560.723 221.314L562.555 221.134L565.03 221.508L567.301 221.402L567.292 220.681L565.369 216.649L565.279 215.767L566.374 214.07L569.342 212.432L570.795 210.771L572.609 209.387L575.512 205.865L579.405 202.091L578.721 198.412L579.466 197.602L579.683 195.957L580.545 194.905L584.373 192.536L585.207 192.406L586.504 191.188L587.531 190.736L589.571 188.628L590.502 186.855L591.525 186.122L592.543 184.948L594.679 184.121L595.852 182.785L599.002 180.583L604.352 179.554L606.829 177.72L608.816 175.013L610.044 174.757L612.629 175.002L614.323 174.099L615.474 173.963L615.663 173.361L618.005 170.609L620.582 170.373L620.964 169.369L621.028 168.408L620.683 166.613L620.709 165.614L621.016 164.97L623.379 163.698L626.226 163.097L627.054 162.726L627.758 162.037L628.26 161.11L628.506 159.069L628.884 157.945L629.507 157.177L630.389 155.207L630.526 153.848L631.573 152.315L633.416 150.97L635.312 150.543L637.158 149.478L638.625 146.98L640.188 145.56L642.794 144.922L646.155 144.472L650.389 142.929L650.699 148.476L650.976 148.958L651.597 149.122L654.705 151.823L652.586 154.471L651.532 156.505L651.071 157.788L650.647 160.344L650.76 161.081L649.539 161.317L648.688 162.713L647.761 163.548L647.493 164.688L647.582 166.531L647.796 167.535L648.71 168.863L648.906 169.686Z" fill="#CCCCCC" stroke="white" stroke-width="0.5"/>
<path d="M435.378 4.36303L435.11 27.652L435.312 34.824H476.995L479.288 36.236L479.901 38.172L480.661 39.098L481.986 39.93L483.346 39.749L485.184 38.681L485.906 37.239L486.044 36.455L487.977 35.954L488.554 35.521L488.869 34.824L489.346 35.434L489.545 36.229L492.127 34.824L492.009 34.438L495.246 33.294L496.16 33.833L498.408 33.996L499.384 35.188L501.517 35.479L503.967 34.824L504.164 34.946L504.154 35.558L505.901 35.67L507.218 36.546L509.215 37.175L511.431 39.019L511.861 39.422L512.099 40.756L512.679 41.758L513.955 42.712L517.353 46.699L518.691 46.284L519.197 46.527L519.534 47.072L519.303 47.882L519.534 48.363L520.851 48.106L521.664 48.179L522.493 48.589L523.788 48.41L525.282 49.605L529.123 50.777L532.715 51.388L535.242 51.287L536.665 51.903L541.394 52.29L542.322 52.72L544.863 54.605L546.943 55.35L548.017 55.325L549.268 57.031L550.28 57.164L550.725 58.224L551.811 58.855L551.984 59.255L551.711 60.365L552.588 60.317L552.96 60.759L553.029 61.536L553.463 61.899L553.807 61.467L554.521 61.635L554.811 62.355L558.314 63.973L559.018 64.937L559.295 66.67L559.767 67.154L559.441 69.278L559.962 70.598L570.348 73.157L591.093 72.481L601.7 75.517L615.398 81.341L626.576 86.834L626.854 87.096L626.668 90.441L626.362 91.295L626.104 93.764L626.578 94.266L630.39 95.813L626.174 98.492L624.994 98.905L622.845 97.899L621.497 97.639L616.971 99.052L615.106 98.479L611.121 96.221L608.23 95.859L605.147 95.817L600.026 97.194L595.231 99.479L591.398 99.644L589.433 100.622L587.121 102.4L586.528 102.447L584.816 101.549L583.39 101.326L581.734 101.862L577.999 103.735L576.537 103.91L575.126 105.001L574.256 105.089L572.946 104.705L571.404 104.84L569.812 107.367L567.841 108.064L567.453 108.826L568.255 113.241L568.027 114.082L567.167 115.007L565.984 115.497L563.845 115.439L562.225 119.283L561.363 120.249L559.988 121.18L558.971 122.346L558.859 122.866L559.665 124.254L559.436 125.054L555.55 128.403L553.92 131.691L553.576 132.892L553.863 133.847L554.584 134.479L554.671 135.197L554.081 135.682L553.368 135.688L548.868 137.567L546.581 138.866L545.036 139L544.565 139.523L544.333 140.084L545.78 142.028L546.031 143.264L546.186 146.738L545.605 148.103L540.808 152.461L538.362 154.162L536.989 155.852L536.803 157.014L535.973 157.381L535.228 158.426L534.437 160.691L532.719 161.767L529.587 162.393L527.847 163.288L525.98 165.793L524.92 168.912L523.382 170.246L522.88 171.93L522.352 172.835L521.401 170.901L520.806 171.026L515.753 175.067L514.445 175.637L512.135 175.054L511.301 175.22L510.627 175.506L508.773 177.12L506.984 177.332L506.324 174.415L506.356 173.293L507.14 171.927L507.717 169.522L509.161 166.43L509.698 164.065L506.951 163.245L500.829 162.965L496.848 161.711L495.609 161.587L494.275 162.927L493.1 165.495L492.953 167.176L493.159 168.215L492.209 168.702L490.222 168.633L490.23 169.794L490.674 170.833L491.233 171.229L491.789 171.226L492.819 170.739L493.02 170.898L492.722 173.702L492.095 175.107L491.564 178.595L490.896 179.68L490.545 180.763L490.768 184.087L489.425 185.617L487.716 185.828L487.318 185.75L486.996 185.312L486.598 185.313L485.69 186.28L483.778 186.171L481.978 184.539L481.37 182.979L481.318 181.216L480.877 180.498L480.277 180.06L479.6 179.864L478.05 180.032L477.02 180.798L476.785 181.48L476.074 182.245L474.076 180.853L473.119 180.498L470.046 178.629L464.186 176.373L464.025 175.933L464.217 174.771L465.08 172.685L465.425 170.241L464.353 170.445L460.257 170.262L458.112 170.671L454.413 170.444L450.597 170.538L450.662 167.335L451.09 165.333L451.151 161.33L451.979 159.687L452.055 159.046L450.963 154.811L451.078 153.81L452.687 149.524L454.26 146.201L455.59 141.88L458.859 136.593L459.408 135.353L459.839 134.113L459.986 131.916L460.535 130.476L460.878 127.6L458.258 127.01L457.384 126.574L455.839 126.979L454.561 124.987L453.176 125.63L450.845 127.434L450.21 127.316L449.332 126.282L445.804 126.252L445.246 125.614L444.839 123.021L445.026 120.106L444.864 119.149L443.308 116.439L443.266 115.601L443.693 113.685L442.772 110.775L442.24 106.348L442.356 105.192L442.789 104.632L443.303 104.472L444.374 104.828L445.086 104.746L445.52 104.306L445.753 103.109L444.995 101.795L442.537 101.044L442.653 100.008L443.558 98.53L443.356 97.176L442.797 95.942L442.869 94.028L440.77 93.555L438.114 92.564L436.727 91.492L433.994 90.821L432.883 89.787L432.125 87.676L430.856 86.483L430.813 85.289L431.321 83.734L433.837 78.354L434.138 73.098L434.372 72.182L435.865 69.155L436.02 67.881L435.18 64.699L433.873 63.867L433.043 63.669L431.108 63.712L428.975 64.193L427.789 64.116L425.574 62.766L425.137 62.05L424.737 59.625L423.589 58.473L422.146 57.848L420.901 57.919L419.795 57.602L418.532 58.08L417.586 59.155L416.568 63.691L416.056 64.805L415.465 65.323L412.305 65.762L410.962 66.758L408.316 67.236L407.566 67.754L406.737 68.868L405.828 69.147L404.958 69.108L404.168 68.75L403.652 68.113L404.32 64.492L407.16 60.871L407.317 59.24L406.997 57.052L407.033 54.468L409.045 52.718L410.661 50.888L411.134 50.172L411.211 49.258L410.974 48.661L409.316 48.503L408.999 48.265L407.495 45.522L406.466 42.94L406.62 40.277L406.224 38.45L405.749 37.814L403.934 36.503L403.143 34.835L403.141 32.651L403.416 32.253L404.993 31.579L411.139 27.488L414.447 24.747L415.588 23.515L417.202 22.602L418.264 20.895L422.043 18.708L423.26 16.961L426.093 14.697L426.72 13.705L426.638 12.157L425.847 10.85L423.796 9.50303L423.401 8.98803L423.163 7.91803L423.396 6.37103L423.199 3.88003L423.766 4.18103L426.366 4.12803L429.83 4.54603L432.389 3.44003L434.781 1.75403L435.358 2.67903L435.378 4.36303Z" fill="#CCCCCC" stroke="white" stroke-width="0.5"/>
<path d="M639.922 96.2631L641.391 97.2111L641.989 97.2741L644.494 95.6391L644.852 95.8601L648.516 95.9251L649.12 96.1481L648.127 101.823L643.566 112.403L642.123 113.191L637.92 114.278L637.158 114.711L637.391 115.691L638.32 117.095L645.732 127.584L649.787 137.211L650.389 142.929L646.155 144.472L642.794 144.922L640.188 145.56L638.625 146.98L637.158 149.478L635.312 150.543L633.416 150.97L631.573 152.315L630.526 153.848L630.389 155.207L629.507 157.177L628.884 157.945L628.506 159.069L628.26 161.11L627.758 162.037L627.054 162.726L626.226 163.097L623.379 163.698L621.016 164.97L620.709 165.614L620.683 166.613L621.028 168.408L620.964 169.369L620.582 170.373L618.005 170.609L615.663 173.361L615.474 173.963L614.323 174.099L612.629 175.002L610.044 174.757L608.816 175.013L606.829 177.72L604.352 179.554L599.002 180.583L595.852 182.785L594.679 184.121L592.543 184.948L591.525 186.122L590.502 186.855L589.571 188.628L587.531 190.736L586.504 191.188L585.207 192.406L584.373 192.536L580.545 194.905L579.683 195.957L579.466 197.602L578.721 198.412L579.405 202.091L575.512 205.865L572.609 209.387L570.795 210.771L569.342 212.432L566.374 214.07L565.279 215.767L565.369 216.649L567.292 220.681L567.301 221.402L565.03 221.508L562.555 221.134L560.723 221.314L559.844 221.083L559.239 220.528L558.439 220.255L556.688 220.595L555.862 221.487L555.165 223.22L554.984 224.867L555.234 232.616L555.626 235.424L555.475 239.564L555.283 240.25L554.025 241.87L553.837 242.837L553.971 244.082L554.551 245.885L553.521 246.579L551.33 247.044L547.989 248.165L547.319 248.975L546.434 251.961L545.643 252.733L544.291 253.229L543.896 253.716L545.919 255.868L546.818 257.709L547.668 258.627L547.674 259.109L546.932 260.606L546.763 263.305L549.356 266.378L550.132 267.779L552.355 269.769L553.139 271.773L552.841 273.629L553.969 274.222L555.888 274.241L557.737 274.985L558.755 276.344L559.739 278.307L559.954 279.513L559.61 284.071L560.322 286.562L560.934 287.522L562.585 288.229L562.87 288.628L564.117 292.162L565.256 293.6L565.466 294.324L565.599 295.371L565.231 297.836L565.307 300.539L564.618 303.129L564.796 304.418L565.833 307.15L562.658 306.461L561.899 306.673L560.786 307.452L559.904 307.463L556.32 306.172L552.687 304.154L549.482 300.92L546.054 299.019L544.487 298.672L542.971 299.294L542.299 300.067L538.899 300.708L537.17 300.2L534.341 298.049L533.378 297.938L532.823 298.508L532.964 300.362L533.38 301.771L533.148 302.702L529.967 308.788L528.542 310.539L528.062 310.785L527.139 310.632L525.524 309.678L523.597 309.373L522.79 309.017L522.264 308.456L521.806 306.885L521.237 306.163L519.671 305.895L518.07 306.272L516.987 306.241L515.048 304.724L511.878 304.468L511.077 304.595L510.682 305.164L510.601 309.566L510.09 310.621L509.293 311.152L508.62 312.168L508.296 316.211L507.858 316.618L507.218 316.786L504.409 316.808L501.484 317.355L498.715 317.377L494.706 317.932L491.735 317.993L483.636 319.22L483.07 318.658L482.944 318.012L483.172 310.817L480.764 310.67L476.221 309.324L475.709 310.862L475.767 313.448L475.288 313.693L474.484 313.536L474.406 313.981L475.558 317.976L475.399 318.22L473.276 319.04L472.398 319.691L472.042 320.381L471.03 319.215L467.564 317.212L464.822 315.246L463.974 314.32L462.554 311.903L461.789 311.584L460.586 311.59L459.9 311.067L459.772 309.734L460.041 307.511L461.284 307.506L461.073 305.931L460.423 304.479L457.837 301.1L456.135 297.796L456.371 296.988L458.519 294.112L457.071 293.11L457.011 289.519L456.529 289.359L454.407 289.651L452.606 290.184L451.124 290.311L450.165 290.758L449.643 290.72L447.392 289.316L441.609 286.554L443.4 283.884L443.959 283.479L446.043 283.794L446.47 280.929L447.745 279.634L450.06 278.053L450.493 276.479L450.141 270.031L450.661 270.149L451.586 271.113L452.027 271.272L452.388 271.15L453.142 270.221L453.343 270.301L454.191 271.788L457.084 266.538L458.199 265.605L458.873 264.475L459.146 263.225L461.255 261.242L462.921 258.779L463.351 257.286L463.205 252.658L463.868 249.837L463.883 245.372L464.079 244.848L465.709 243.512L465.863 242.547L464.453 240.261L462.243 238.06L459.227 234.213L458.332 230.961L458.44 228.871L458.677 228.267L462.016 225.922L463.245 224.59L463.438 223.425L462.792 221.82L463.573 219.087L464.322 217.437L465.831 216.346L466.187 215.822L466.264 215.139L464.843 210.69L464.798 209.846L467.374 207.306L467.649 206.583L467.394 203.976L468.103 202.569L468.978 202.203L471.607 202.191L473.723 202.903L475.323 204.018L476.644 205.094L483.364 208.869L485.969 210.941L488.54 213.655L489.693 213.406L490.724 212.598L492.517 212.506L494.898 210.646L493.405 209.71L493.023 208.434L493.099 208.048L495.632 208.032L496.21 205.46L495.787 202.174L497.846 200.557L499.044 200.91L499.798 200.664L500.189 199.859L500.37 197.492L501.837 196.681L502.109 195.837L500.851 192.879L500.603 191.558L500.748 189.794L499.905 188.798L499.741 188.157L500.433 185.108L499.977 182.827L498.742 182.475L496.796 182.848L495.88 182.774L495.201 182.417L494.407 182.542L493.649 182.307L493.154 179.907L490.886 179.68L491.554 178.595L492.085 175.107L492.712 173.702L493.01 170.898L492.809 170.739L491.779 171.226L491.223 171.229L490.664 170.833L490.22 169.794L490.212 168.633L492.199 168.702L493.149 168.215L492.943 167.176L493.09 165.495L494.265 162.927L495.599 161.587L496.838 161.711L500.819 162.965L506.941 163.245L509.688 164.065L509.151 166.43L507.707 169.522L507.13 171.927L506.346 173.293L506.314 174.415L506.974 177.332L508.763 177.12L510.617 175.506L511.291 175.22L512.125 175.054L514.435 175.637L515.743 175.067L520.796 171.026L521.391 170.901L522.342 172.835L522.87 171.93L523.372 170.246L524.91 168.912L525.97 165.793L527.837 163.288L529.577 162.393L532.709 161.767L534.427 160.691L535.218 158.426L535.963 157.381L536.793 157.014L536.979 155.852L538.352 154.162L540.798 152.461L545.595 148.103L546.176 146.738L546.021 143.264L545.77 142.028L544.323 140.084L544.555 139.523L545.026 139L546.571 138.866L548.858 137.567L553.358 135.688L554.071 135.682L554.661 135.197L554.574 134.479L553.853 133.847L553.566 132.892L553.91 131.691L555.54 128.403L559.426 125.054L559.655 124.254L558.849 122.866L558.961 122.346L559.978 121.18L561.353 120.249L562.215 119.283L563.835 115.439L565.974 115.497L567.157 115.007L568.017 114.082L568.245 113.241L567.443 108.826L567.831 108.064L569.802 107.367L571.394 104.84L572.936 104.705L574.246 105.089L575.116 105.001L576.527 103.91L577.989 103.735L581.724 101.862L583.38 101.326L584.806 101.549L586.518 102.447L587.111 102.4L589.423 100.622L591.388 99.6441L595.221 99.479L600.016 97.1941L605.137 95.8171L608.22 95.8591L611.111 96.2211L615.096 98.479L616.961 99.0521L621.487 97.6391L622.835 97.8991L624.984 98.9051L626.164 98.4921L630.38 95.8131L631.64 96.34L632.579 96.1281L634.495 96.2031L634.915 95.9871L636.309 96.3161L636.913 95.5631L637.752 95.4301L638.644 96.2141L639.922 96.2631Z" fill="#CCCCCC" stroke="white" stroke-width="0.5"/>
<path d="M253.627 156.293L256.372 155.877L258.314 156.614L258.949 156.581L260.663 155.915L261.744 154.883L263.571 154.938L266.038 154.559L270.973 153.358L271.607 153.644L272.474 154.57L275.761 156.356L276.907 157.366L277.544 157.29L279.037 153.62L280.633 152.551L283.396 148.771L285.068 148.264L285.511 147.346L285.842 144.989L288.489 140.369L289.129 139.614L291.789 139.512L295.301 136.137L296.969 135.708L298.8 134.68L300.667 134.452L306.064 134.483L306.978 134.289L308.412 133.098L309.008 132.901L310.16 132.788L310.712 133.47L312.052 135.835L313.072 138.719L314.533 140.365L316.475 141.254L317.426 141.979L319.528 142.509L320.281 143.033L321.589 143.479L322.22 144.881L322.655 145.163L325.156 145.494L327.694 146.625L328.726 146.709L329.677 147.474L331.026 147.8L332.773 148.006L335.713 147.778L336.308 148.061L336.543 149.421L337.892 149.947L338.328 150.628L338.636 154.47L338.952 154.912L341.333 156.12L342.563 157.085L343.672 158.809L344.506 159.252L345.892 161.218L347.6 162.064L349.229 162.31L349.745 162.871L348.707 165.35L346.875 166.786L344.64 170.383L342.966 171.66L342.807 172.059L342.805 172.981L344.234 174.387L344.629 175.431L344.268 176.872L344.622 178.676L344.102 179.916L344.137 182.201L341.52 184.813L341.42 186.361L343.01 187.609L343.088 188.291L340.652 191.13L340.372 191.73L340.288 193.615L339.368 195.176L338.33 195.935L338.125 198.421L336.005 201.303L334.281 204.748L334.319 205.792L333.918 206.393L333.993 207.958L333.192 209.44L333.189 210.283L333.824 211.531L333.939 212.776L335.086 216.476L336.439 217.967L337.112 220.019L338.78 222.758L339.495 224.648L339.932 225.092L341.966 225.983L343.001 226.952L345.116 227.602L346.667 230.742L347.703 231.831L349.858 232.119L351.096 232.605L353.25 234.219L355.844 235.313L358.836 237.732L361.552 238.583L362.829 239.832L363.548 240.156L364.307 241.123L363.584 244.743L363.503 246.433L362.183 247.879L362.022 248.523L362.418 252.791L361.455 255.487V256.171L362.133 258.59L363.332 259.357L364.452 259.36L366.133 258.959L366.653 259.203L368.651 261.865L369.931 262.471L370.612 262.552L371.811 262.191L373.332 262.354L376.733 262.197L377.253 262.641L378.574 265.02L379.574 264.899L380.615 264.094L381.134 264.014L381.415 264.78L382.775 265.547L384.257 267.683L385.499 268.168L387.059 267.845L388.02 268.894L389.101 269.136L390.304 269.942L392.785 270.225L394.145 269.458L396.306 269.217L400.31 269.617L401.352 270.584L401.993 270.786L404.073 270.018L404.834 270.542L405.435 270.541L406.158 271.508L406.838 271.668L411.601 271.461L413.245 272.306L415.487 272.584L417.171 273.307L418.181 276.37L418.502 276.611L420.625 277.01L421.508 277.613L422.593 278.821L423.635 278.858L424.794 278.413L426.075 278.249L427.763 279.938L429.007 280.5L430.454 282.149L435.39 284.193L436.837 285.318L438.282 286.081L441.609 286.554L447.392 289.316L449.643 290.72L450.165 290.758L451.124 290.311L452.606 290.184L454.407 289.651L456.529 289.359L457.011 289.519L457.071 293.11L458.519 294.112L456.371 296.988L456.135 297.796L457.837 301.1L460.423 304.479L461.073 305.931L461.284 307.506L460.041 307.511L459.772 309.734L459.9 311.067L460.586 311.59L461.789 311.584L462.554 311.903L463.974 314.32L464.822 315.246L467.564 317.212L471.03 319.215L472.042 320.381L469.283 322.257L466.85 324.857L465.451 325.957L460.97 328.771L458.093 331.537L458.818 331.897L462.639 332.283L463.324 332.604L464.135 333.813L463.979 334.623L463.261 335.315L461.012 335.65L460.008 335.938L459.89 336.223L460.23 339.5L460.161 341.242L459.498 344.728L458.269 347.853L458.195 348.866L458.321 349.838L459.14 352.021L459.277 354.816L458.617 358.874L458.548 360.658L456.861 368.21L456.868 369.306L457.685 371.29L457.613 372.63L455.923 373.044L451.973 372.858L447.779 371.697L444.225 371.188L443.256 370.745L439.831 370.921L438.342 371.372L437.711 374.419L438.201 375.676L438.891 376.484V376.892L438.735 377.824L438.295 378.558L436.123 379.742L435.883 380.149L435.69 382.099L436.947 383.517L436.385 384.128L435.982 384.332L429.409 384.72L427.835 384.399L423.317 384.696L420.498 386.124L417.677 387.065L415.66 387.231L412.995 386.912L412.23 387.238L412.312 387.808L414.092 389.186L414.901 390.119L415.31 391.5L415.115 393.736L413.791 396.544L413.762 400.244L413.161 401.669L413.044 403.093L415.743 400.809L417.076 400.766L419.709 402.834L421.731 403.683L423.313 405.47L422.875 407.017L421.831 408.81L420.148 412.884L420.072 414.309L420.52 415.121L421.087 415.487L426.027 417.346L426.474 417.915L427.174 420.642L427.866 421.861L428.433 422.022L429.726 421.774L431.558 424.294L433.916 426.893L435.266 429.903L437.423 432.341L437.872 433.195L437.56 435.683L437.819 438.985L438.479 441.389L439.545 443.75L440.44 444.645L442.633 445.369L443.203 445.979L443.047 447L441.186 447.824L440.786 448.642L440.395 451.5L438.441 457.836L438.453 460.164L437.779 463.312L437.812 469.81L433.98 474.853L432.241 476.331L430.176 477.605L428.916 477.569L426.882 476.636L423.509 476.278L422.738 476.32L420.061 477.27L417.946 476.743L416.202 477.034L415.103 476.546L414.128 476.547L413.152 476.223L411.89 474.876L409.776 474.635L408.272 474.147L407.214 473.372L405.258 470.595L402.21 469.21L401.762 468.516L400.948 467.862L400.339 467.74L399.443 466.679L398.63 466.148L397.088 466.109L395.019 466.643L393.113 467.87L386.788 473.269L384.233 476.132L383.3 476.704L382.04 476.99L379.522 476.908L377.856 475.967L375.906 475.802L370.382 476.043L366.279 477.225L360.471 477.011L356.043 475.98L355.516 475.488L355.476 474.998L356.655 473.609L359.946 471.407L360.921 470.183L363.398 468.715L367.581 465.696L369.042 464.227L369.651 461.979L370.867 452.955L373.258 445.119L373.784 442.549L373.5 442.304L372.608 442.467L369.934 443.524L368.354 443.727L367.463 443.521L366.41 442.663L365.438 440.54L365.52 438.338L365.844 437.808L368.274 437.159L368.68 436.547L367.707 434.997L370.663 433.084L371.23 432.962L372.567 431.74L374.388 430.967L374.955 430.52L375.845 428.93L376.41 426.812L377.421 424.896L377.865 420.538L378.591 417.483L379.802 413.697L381.255 410.481L382.02 406.86L382.544 405.681L382.461 403.238L385.324 396.895L389.313 390.105L389.472 387.667L389.228 386.488L388.985 385.92L388.177 385.474L383.376 385.352L382.89 384.132L383.13 380.923L382.202 380.435L380.024 380.922L375.587 382.624L374.256 382.501L372.964 376.611L370.746 377.177L367.842 378.96L366.754 379.243L366.108 379.12L365.383 378.47L363.045 374.933L357.162 371.714L355.872 371.548L354.904 371.79L352.562 374.545L351.433 374.339L350.789 373.647L350.47 372.144L350.957 368.938L350.717 368.086L350.843 365.408L351.934 362.733L351.936 361.597L351.615 360.582L350.811 359.606L347.271 357.002L345.869 353.267L345.347 352.576L342.172 349.932L340.367 347.008L338.968 342.951L337.848 340.639L336.603 339.257L335.921 338.89L334.996 338.926L333.632 337.544L332.347 337.053L331.507 335.188L329.702 333.843L327.94 331.569L324.728 330.179L323.687 329.162L325.344 326.54L326.554 325.088L326.076 323.912L325.116 322.613L323.194 320.703L321.795 318.796L317.954 314.732L316.192 313.714L315.716 312.054L315.731 308.375L316.153 303.245L315.914 302.558L315.035 301.907L314.52 300.086L313.839 299.961L313.966 298.347L311.921 298.336L311.36 298.211L310.84 297.724L310.208 295.621L309.662 292.266L307.371 284.342L307.1 282.485L306.111 279.897L305.571 275.336L304.579 273.314L304.904 272.269L305.547 271.869L310.598 270.607L316.812 268.221L318.254 268.107L325.748 265.241L326.711 264.48L326.913 263.715L326.006 260.044L325.528 259.196L325.249 258.994L323.649 258.987L319.967 259.372L315.487 259.47L313.287 259.137L307.806 259.348L302.487 258.834L298.888 258.893L294.289 258.34L290.577 257.147L289.856 257.143L283.851 257.986L278.974 257.467L276.413 257.649L272.847 258.547L265.691 258.005L262.085 258.78L259.565 258.798L256.129 258.244L252.327 258.531L251.687 258.405L250.534 257.668L249.771 257.983L248.972 257.977L248.178 257.243L245.938 257.302L244.661 256.887L243.501 256.835L241.509 256.05L239.828 256.235L237.5 257.057L235.141 257.033L232.348 256.318L232.683 250.483L232.089 237.239L232.121 229.72L232.37 228.677L234.547 226.369L235.909 225.82L236.948 225.831L239.058 226.415L240.176 226.346L241.058 225.833L241.184 225.19L240.99 224.425L240.474 224.179L237.921 224.033L236.574 223.014L236.345 221.846L237.277 220.37L237.734 218.285L237.41 214.465L237.136 213.861L236.66 213.615L234.144 213.99L233.019 210.485L231.953 209.43L231.955 209.149L233.012 207.033L235.783 204.813L236.193 203.573L237.315 202.863L237.558 202.424L237.429 199.052L239.008 196.299L239.259 194.938L237.86 191.034L238.11 189.793L240.529 186.369L241.411 185.736L244.078 185.722L244.998 185.21L247.173 182.144L248.266 180.031L248.585 175.145L249.8 172.393L249.896 170.39L249.557 168.185L249.645 167.145L251.138 164.315L251.797 161.439L252.73 159.046L252.986 156.927L253.627 156.293Z" fill="#CCCCCC" stroke="white" stroke-width="0.5"/>
<path d="M233.597 111.062L234.442 111.836L234.75 112.677L234.687 115.391L235.069 116.951L234.34 118.78L234.089 120.175L234.668 121.938L236.122 123.509L236.581 125.708L237.177 126.551L236.336 126.667L236.374 127.228L236.731 127.749L236.49 128.148L236.728 128.669L236.367 128.868L235.481 130.265L234.841 130.263L234.759 130.783L235.038 131.023L235.838 130.946L238.283 129.834L238.762 129.956L239.079 130.678L238.917 131.157L239.474 131.799L240.122 133.295L242.623 133.159L243.374 133.565L243.462 137.124L244.485 138.292L244.914 139.255L244.5 141.05L245.359 142.938L245.23 144.096L246.093 145.343L246.151 147.984L246.385 148.426L247.769 149.239L248.706 151.247L250.925 151.908L251.435 152.793L252.026 153.237L252.687 155.124L253.632 156.293L252.991 156.927L252.735 159.046L251.802 161.439L251.143 164.315L249.65 167.145L249.562 168.185L249.901 170.39L249.805 172.393L248.59 175.145L248.271 180.031L247.178 182.144L245.003 185.21L244.083 185.722L241.416 185.736L240.534 186.369L238.115 189.793L237.865 191.034L239.264 194.938L239.013 196.299L237.434 199.052L237.563 202.424L237.32 202.863L236.198 203.573L235.788 204.813L233.017 207.033L231.96 209.149L231.958 209.43L233.024 210.485L234.149 213.99L236.665 213.615L237.141 213.861L237.415 214.465L237.739 218.285L237.282 220.37L236.35 221.846L236.579 223.014L237.926 224.033L240.479 224.179L240.995 224.425L241.189 225.19L241.063 225.833L240.181 226.346L239.063 226.415L236.953 225.831L235.914 225.82L234.552 226.369L232.375 228.677L232.126 229.72L232.094 237.239L232.688 250.483L232.353 256.318L235.146 257.033L237.505 257.057L239.833 256.235L241.514 256.05L243.506 256.835L244.666 256.887L245.943 257.302L248.183 257.243L248.977 257.977L249.776 257.983L250.539 257.668L251.692 258.405L252.332 258.531L256.134 258.244L259.57 258.798L262.09 258.78L265.696 258.005L272.852 258.547L276.418 257.649L278.979 257.467L283.856 257.986L289.861 257.143L290.582 257.147L294.294 258.34L298.893 258.893L302.492 258.834L307.811 259.348L313.292 259.137L315.492 259.47L319.972 259.372L323.654 258.987L325.254 258.994L325.533 259.196L326.011 260.044L326.918 263.715L326.716 264.48L325.753 265.241L318.259 268.107L316.817 268.221L310.603 270.607L305.552 271.869L304.909 272.269L304.584 273.314L305.576 275.336L306.116 279.897L307.105 282.485L307.376 284.342L309.667 292.266L310.213 295.621L310.845 297.724L311.365 298.211L311.926 298.336L313.971 298.347L313.844 299.961L314.525 300.086L315.04 301.907L315.919 302.558L316.158 303.245L315.736 308.375L315.721 312.054L316.197 313.714L317.959 314.732L321.8 318.796L323.199 320.703L325.121 322.613L326.081 323.912L326.559 325.088L325.349 326.54L323.692 329.162L324.733 330.179L327.945 331.569L329.707 333.843L331.512 335.188L332.352 337.053L333.637 337.544L335.001 338.926L333.948 341.636L333.261 342.321L332.618 342.481L331.451 342.314L329.726 340.93L325.625 340.063L323.854 340.541L323.369 341.065L323.485 342.483L325.731 344.519L326.652 345.86L326.69 346.549L326.281 348.776L325.106 351L324.298 351.849L322.362 352.934L320.545 354.385L320.542 354.953L320.943 355.44L321.948 356.136L323.071 357.357L324.519 358.012L324.678 358.541L324.622 363.245L323.968 365.879L323.157 367.297L323.237 367.703L323.927 368.472L321.932 369.82L319.644 371.916L312.123 369.151L315.087 380.008L307.259 388.489L300.604 388.977L304.289 391.695L297.631 397.652L295.185 404.018L294.375 404.475L292.065 407.346L292.805 408.403L288.291 411.509L283.643 405.8L287.506 404.88L289.652 404.122L290.628 403.071L291.12 401.976L290.962 401.202L288.668 399.681L288.228 399.067L289.502 395.294L289.302 395.008L287.769 394.713L287.489 394.386L287.497 392.922L287.259 392.31L286.653 392.306L285.719 393.315L284.869 393.595L283.499 393.137L282.375 392.071L280.923 391.938L280.483 391.285L280.688 390.758L280.614 389.66L281.147 388.485L280.827 388.035L278.077 388.908L276.624 388.938L276.218 389.098L275.161 390.309L274.633 390.629L274.109 390.625L270.85 389.135L268.319 387.487L267.351 387.479L266.945 387.761L266.897 388.654L267.17 390.12L268.081 392.444L267.953 393.379L267.132 395.12L267.128 395.689L267.728 396.548L267.562 397.116L267.115 397.479L265.209 398.397L264.88 399.208L264.957 399.696L265.962 400.274L268.914 399.975L270.08 400.635L270.564 400.64L273.644 399.403L273.924 399.731L273.834 401.032L274.034 401.4L275.121 401.979L275.521 402.47L274.292 404.82L274.083 405.795L271.415 406.058L270.19 407.676L268.592 410.593L267.619 411.154L264.791 410.763L264.426 410.923L263.488 412.014L261.766 415.133L260.608 413.209L260.376 411.782L258.987 408.675L258.379 408.833L257.613 408.622L253.328 403.902L252.491 402.592L250.725 401.313L249.65 399.392L249.146 397.109L248.388 395.963L247.787 395.509L245.736 394.432L244.293 393.36L242.845 392.817L240.698 393.566L239.043 393.509L237.425 393.816L234.802 393.707L233.218 394.665L231.597 395.258L230.436 394.269L228.21 390.828L227.25 390.086L225.443 396.732L223.716 399.681L223.175 401.302L222.083 401.329L218.298 400.268L217.375 399.769L216.34 398.291L213.568 397.036L211.539 394.368L208.51 391.037L205.024 388.92L202.958 386.131L201.555 385.502L201.002 384.438L197.771 381.512L197.297 380.692L196.541 376.662L195.634 375.026L194.556 374.199L194.16 373.666L194.246 373.221L193.085 372.474L192.813 371.699L190.516 371.708L188.064 371.187L187.023 370.644L184.394 368.415L181.836 366.796L179.738 366.968L175.838 366.424L174.425 366.646L171.623 368.227L170.978 368.297L166.955 367.829L161.131 366.561L159.718 366.741L158.298 367.407L156.928 367.467L155.714 367.812L153.219 367.608L151.161 367.898L149.299 368.476L146.693 367.62L144.269 368.065L142.377 367.951L141.809 368.226L139.509 368.429L136.264 369.75L134.323 370.202L133.06 370.992L131.891 371.092L129.379 371.857L128.281 372.405L126.268 374.641L123.168 375.687L122.068 375.185L118.776 374.463L116.917 375.012L116.468 374.939L113.751 370.437L113.025 367.952L112.481 367.252L110.933 366.188L109.773 366.133L109.083 365.293L107.24 364.703L106.061 363.753L101.659 363.235L100.939 362.823L99.757 361.73L99.231 360.889L98.854 359.372L97.058 356.119L93.917 356.468L91.648 354.849L91.996 353.969L93.875 351.514L93.825 351.027L90.286 347.811L89.573 347.724L85.326 348.579L84.036 348.036L82.076 346.491L80.303 346.16L78.773 344.749L77.046 340.522L76.363 335.646L76.09 335.146L74.523 334.037L74.413 331.325L73.532 328.706L72.399 326.741L71.341 323.397L70.607 322.01L70.78 320.471L69.792 319.851L69.206 318.697L68.067 317.442L68.506 315.976L67.1 313.39L64.939 310.494L62.88 308.649L61.739 306.06L61.371 304.751L61.503 303.109L62.109 301.945L64.18 300.108L64.348 299.336L63.812 296.529L62.147 293.046L61.78 291.739L59.925 288.721L58.056 288.249L55.988 286.81L53.687 284.708L49.776 282.859L49.865 280.478L48.192 277.956L47.297 275.245L47.557 273.948L47.091 272.725L47.011 271.596L47.367 269.995L47.901 269.36L47.383 268.582L46.851 266.977L46.958 264.998L46.767 264.476L44.372 262.52L43.855 261.822L42.233 261.365L40.617 261.25L39.364 260L37.591 257.69L35.026 252.631L34.435 252.237L32.166 251.608L28.084 245.99L24.886 242.635L22.185 234.782L20.22 231.45L19.786 229.424L18.654 227.832L16.363 222.755L14.324 219.648L13.734 219.214L12.323 219.033L11.875 218.698L11.43 217.156L10.982 216.761L8.13 215.675L7.712 214.576L5.606 211.44L4.781 209.841L3.59 205.055L1.712 202.91L1.013 201.654L1.333 200.083L1 199.224L1.045 198.1L2.579 194.184L3.183 191.326L4.127 191.434L5.796 193.077L6.586 193.548L7.229 193.54L9.765 195.037L11.225 194.731L11.865 194.879L13.006 196.119L13.649 196.212L15.592 195.67L17.056 195.535L17.523 196.032L18.187 196.065L18.924 195.535L19.506 195.509L21.296 195.811L24.268 197.565L25.45 197.312L25.967 196.905L26.676 195.672L27.353 195.163L28.397 195.151L29.145 195.564L30.147 195.452L30.978 196.045L32.114 195.37L33.742 195.451L35.042 195.035L36.198 194.318L37.377 192.976L38.518 192.697L39.843 192.736L40.132 193.213L40.319 194.836L41.36 194.679L43.911 195.883L45.46 196.058L47.885 198.167L48.144 198.91L48.904 199.203L50.458 199.162L51.668 199.608L52.233 201.368L53.177 202.782L52.342 203.496L52.127 203.98L52.294 204.46L53.404 204.748L53.196 205.754L53.773 206.832L54.557 206.821L55.068 207.518L55.67 207.43L57.366 207.97L57.86 208.868L59.825 208.54L60.997 208.986L61.638 208.796L62.731 209.384L64.03 208.804L64.198 207.897L64.457 207.672L66.074 206.947L67.908 207.343L68.688 206.646L69.844 207.188L71.026 207.026L72.523 207.521L72.994 205.804L73.699 204.847L72.798 203.919L73.066 203.191L73.581 202.8L75.602 202.341L77.032 201.471L78.93 201.305L80.788 200.507L82.279 199.481L83.78 199.097L83.617 200.304L84.487 200.692L85.287 201.725L85.996 202.095L86.574 201.846L89.105 201.806L89.51 202.021L90.516 203.371L90.939 203.425L91.818 203.089L92.767 203.355L94.085 202.913L96.652 203.816L98.878 203.539L99.606 203.828L100.425 204.739L101.654 204.96L103.141 206.1L104.898 206.249L105.496 206.94L106.804 207.054L107.925 207.774L111.91 208.012L112.502 208.441L112.775 208.979L113.169 210.498L113.682 210.949L114.815 211.333L115.276 213.471L116.806 214.22L119.363 214.205L121.609 215.473L122.667 215.81L126.251 211.983L127.342 211.336L129.701 210.721L131.521 211.203L133.304 209.997L133.907 209.983L134.119 209.576L134.148 208.249L134.579 207.737L137.105 208.302L138.335 207.631L139.607 207.863L143.591 206.283L145.289 205.842L146.762 206.109L149.545 204.797L151.759 205.769L155.86 200.064L161.115 195.619L160.984 193.614L160.633 192.398L160.912 191.508L166.861 184.557L174.633 173.851L194.112 158.571L199.529 152.336L200.277 151.135L201.073 145.89L201.14 143.987L201.434 143.019L218.05 118.346L233.597 111.062Z" fill="#CCCCCC" stroke="white" stroke-width="0.5"/>
<path d="M335.005 338.926L335.93 338.89L336.612 339.257L337.857 340.639L338.977 342.951L340.376 347.008L342.181 349.932L345.356 352.576L345.878 353.267L347.28 357.002L350.82 359.606L351.624 360.582L351.945 361.597L351.943 362.733L350.852 365.408L350.726 368.086L350.966 368.938L350.479 372.144L350.798 373.647L351.442 374.339L352.571 374.545L354.913 371.79L355.881 371.548L357.171 371.714L363.054 374.933L365.392 378.47L366.117 379.12L366.763 379.243L367.851 378.96L370.755 377.177L372.973 376.611L374.265 382.501L375.596 382.624L380.033 380.922L382.211 380.435L383.139 380.923L382.899 384.132L383.385 385.352L388.186 385.474L388.994 385.92L389.237 386.488L389.481 387.667L389.322 390.105L385.333 396.895L382.47 403.238L382.553 405.681L382.029 406.86L381.264 410.481L379.811 413.697L378.6 417.483L377.874 420.538L377.43 424.896L376.419 426.812L375.854 428.93L374.964 430.52L374.397 430.967L372.576 431.74L371.239 432.962L370.672 433.084L367.716 434.997L368.689 436.547L368.283 437.159L365.853 437.808L365.529 438.338L365.447 440.54L366.419 442.663L367.472 443.521L368.363 443.727L369.943 443.524L372.617 442.467L373.509 442.304L373.793 442.549L373.267 445.119L370.876 452.955L369.66 461.979L369.051 464.227L367.59 465.696L363.407 468.715L360.93 470.183L359.955 471.407L356.664 473.609L355.485 474.998L355.525 475.488L356.052 475.98L360.48 477.011L366.288 477.225L370.391 476.043L375.915 475.802L377.865 475.967L378.15 477.152L379.94 481.081L380.876 482.104L381.73 482.473L383.113 484.028L385.269 485.419L385.838 486.074L386.327 487.057L386.616 489.922L386.902 490.454L389.749 491.313L390.075 491.805L390.162 494.957L391.059 496.021L392.524 496.677L392.892 497.7L393.019 500.036L393.182 500.404L394.438 501.317L395.266 504.583L395.878 505.36L399.708 506.996L401.872 509.616L404.04 513.263L406.082 515.188L408.123 516.537L408.82 518.136L409.677 518.34L410.41 518.092L412.895 518.004L414.447 519.272L415.512 520.582L417.596 522.096L420.123 522.252L420.616 523.154L419.975 525.905L420.915 526.519L427.4 527.319L428.584 527.397L429.684 527.106L430.908 527.758L432.418 527.957L435.279 529.301L437.243 530.442L437.982 531.261L438.758 531.586L442.066 532.229L442.516 532.555L442.682 533.047L442.087 536.089L444.133 537.106L445.489 538.784L445.898 538.782L446.504 537.917L446.992 537.668L447.81 537.909L450.557 540.155L451.659 540.025L453.324 538.907L453.977 538.862L454.469 539.23L454.553 539.6L453.378 540.962L453.221 541.866L453.427 542.153L454.531 542.435L455.394 543.251L455.687 544.278L455.698 546.046L456.194 546.824L458.981 548.328L459.767 549.763L459.98 550.872L461.083 551.152L461.872 552.874L464.625 555.079L464.672 555.777L463.618 556.937L463.83 558.005L465.432 559.022L467.398 559.545L467.167 561.479L469.632 562.986L471.444 564.743L471.702 566.307L473.019 567.203L473.987 570.613L474.562 570.815L476.6 569.935L477.744 569.967L478.04 570.995L477.687 572.769L478.797 573.377L479.103 575.558L479.649 577.161L480.185 577.528L482.316 578.006L482.567 578.498L481.553 579.578L481.555 579.824L481.967 580.068L483.481 580.14L483.856 580.754L484.16 582.73L486.048 583.209L486.297 583.619L486.14 584.321L484.963 585.403L485.587 586.387L488.021 588.264L490.119 589.317L491.316 590.215L491.866 592.065L492.936 593.432L490.641 594.185L489.121 593.943L483.457 591.651L483.094 591.75L482.653 592.567L481.663 592.605L481.193 592.247L480.861 591.517L479.003 591.538L477.629 590.286L475.124 589.847L473.634 590.602L472.587 590.053L469.699 589.451L466.399 590.261L461.034 591.018L459.09 591.714L455.291 591.16L454.399 591.621L453.266 593.078L452.648 593.439L451.976 593.383L450.598 592.246L449.556 591.949L448.399 591.876L447.237 592.119L446.045 593.021L443.009 592.231L442.113 592.207L440.735 591.646L439.592 591.895L436.657 593.374L433.182 594.193L431.765 594.753L429.993 594.51L427.901 594.729L426.248 594.466L425.043 595.07L424.062 595.236L422.678 594.393L421.331 592.037L419.905 590.93L419.548 590.155L419.114 589.802L415.94 589.819L412.937 590.158L410.899 591.166L410.326 591.168L408.243 588.977L406.106 587.865L404.624 586.317L403.987 586.121L402.399 586.215L401.909 586.003L401.432 585.276L401.236 583.782L399.746 583.77L398.247 583.296L397.242 583.354L396.46 582.346L393.544 580.275L390.096 580.691L388.036 578.951L385.62 578.93L383.457 578.079L382.854 577.363L380.808 575.915L376.033 576.096L374.666 575.527L372.356 575.681L371.533 574.672L371.023 574.449L368.636 575.394L367.659 576.874L367.132 577.197L366.433 577.082L365.296 576.092L364.619 575.868L363.139 576.67L361.189 576.925L360.764 577.437L360.816 578.513L360.243 579.202L358.809 579.101L355.947 578.133L354.899 578.135L351.178 578.856L348.322 580.472L346.878 580.983L346.247 580.877L345.544 579.473L344.006 577.572L340.075 574.138L338.192 569.917L336.844 568.661L334.755 569.528L331.634 570.365L329.187 570.025L328.316 570.145L324.969 568.808L323.044 567.574L320.636 565.234L319.114 562.962L318.562 561.44L317.885 557.133L318.318 553.664L319.35 550.853L321.587 547.707L322.473 547.055L321.24 545.534L320.326 545.074L317.486 544.228L316.043 543.082L314.757 542.756L313.001 543.168L311.249 543.127L308.269 542.161L305.2 541.549L302.543 539.767L298.843 539.482L296.792 537.692L290.434 535.065L288.983 534.718L288.52 534.402L287.227 532.426L286.767 532.192L285.264 532.175L284.151 531.663L282.775 531.508L281.631 530.41L280.945 530.163L279.817 530.258L279.149 531.347L278.721 531.503L278.037 531.296L276.492 532.657L274.004 533.484L273.382 533.36L271.3 531.987L270.618 531.887L270.04 531.227L266.211 530.507L263.007 528.003L262.037 528.605L259.788 527.641L255.496 527.162L254.469 527.211L253.963 527.491L251.21 527.608L250.137 528.214L249.09 528.324L247.115 527.534L244.574 527.129L241.566 526.14L238.875 526.272L237.977 525.741L236.536 525.566L234.875 525.72L234.356 525.529L233.68 524.973L231.764 521.412L231.833 520.958L232.297 520.657L231.974 520.173L230.899 520.636L230.341 520.57L229.525 519.635L229.821 518.902L231.06 517.535L230.363 516.813L229.397 516.797L229.021 516.561L228.914 515.617L229.909 515.161L230.221 514.495L229.634 513.277L228.475 512.137L229.002 511.171L228.808 510.691L228.026 509.869L226.86 507.641L225.343 506.139L225.473 503.96L225.041 502.328L224.279 501.537L224.016 500.773L221.065 497.916L220.032 495.511L216.8 491.624L216.652 490.008L214.835 489.608L213.127 487.917L211.288 487.347L210.877 486.495L209.791 485.682L209.123 484.345L207.662 483.294L206.762 480.835L206.036 479.623L206.163 478.965L207.227 478.058L207.416 477.357L206.411 474.801L207.734 473.581L207.302 472.648L208.241 470.865L207.813 470.077L206.58 469.083L206.321 468.556L206.462 467.57L207.427 465.991L206.376 463.048L207.035 461.72L208.326 460.313L209.048 456.159L209.847 455.482L209.495 454.252L210.079 452.199L209.4 449.476L209.859 448.217L209.296 446.942L208.666 446.222L207.73 443.914L207.835 440.643L207.638 438.44L207.953 437.922L208.538 437.621L209.087 436.648L208.83 436.185L209.708 433.246L209.62 432.288L209.053 430.963L207.45 429.245L205.854 428.391L203.555 429.455L202.654 429.378L200.834 427.795L199.952 427.676L198.959 427.928L197.45 428.785L196.471 428.833L188.433 426.884L186.263 427.432L185.44 427.964L184.584 428.027L181.006 427.896L179.795 427.621L179.083 426.986L178.59 426.896L176.034 428.311L173.344 429.318L172.459 429.055L172.354 428.159L172.652 425.437L173.423 422.069L173.538 411.479L173.03 409.942L172.149 404.907L170.529 403.557L170.376 402.134L169.308 399.834L168.911 397.52L168.087 397.109L167.818 395.975L167.255 395.396L166.611 393.801L165.485 392.603L164.604 392.295L163.427 392.544L159.469 392.717L157.769 392.31L157.095 391.41L155.84 388.447L153.314 386.889L151.008 386.771L150.039 387.157L148.075 386.688L145.917 386.669L144.62 385.962L143.192 385.766L141.051 384.607L139.345 384.781L138.05 384.114L136.768 384.14L136.127 383.643L135.46 383.858L134.923 383.503L132.579 383.322L132.061 382.844L132.452 381.941L131.778 380.733L131.282 380.336L129.936 380.249L128.296 379.537L124.923 379.923L123.84 377.872L123.172 375.687L126.272 374.641L128.285 372.405L129.383 371.857L131.895 371.092L133.064 370.992L134.327 370.202L136.268 369.75L139.513 368.429L141.813 368.226L142.381 367.951L144.273 368.065L146.697 367.62L149.303 368.476L151.165 367.898L153.223 367.608L155.718 367.812L156.932 367.467L158.302 367.407L159.722 366.741L161.135 366.561L166.959 367.829L170.982 368.297L171.627 368.227L174.429 366.646L175.842 366.424L179.742 366.968L181.84 366.796L184.398 368.415L187.027 370.644L188.068 371.187L190.52 371.708L192.817 371.699L193.089 372.474L194.25 373.221L194.164 373.666L194.56 374.199L195.638 375.026L196.545 376.662L197.301 380.692L197.775 381.512L201.006 384.438L201.559 385.502L202.962 386.131L205.028 388.92L208.514 391.037L211.543 394.368L213.572 397.036L216.344 398.291L217.379 399.769L218.302 400.268L222.087 401.329L223.179 401.302L223.72 399.681L225.447 396.732L227.254 390.086L228.214 390.828L230.44 394.269L231.601 395.258L233.222 394.665L234.806 393.707L237.429 393.816L239.047 393.509L240.702 393.566L242.849 392.817L244.297 393.36L245.74 394.432L247.791 395.509L248.392 395.963L249.15 397.109L249.654 399.392L250.729 401.313L252.495 402.592L253.332 403.902L257.617 408.622L258.383 408.833L258.991 408.675L260.38 411.782L260.612 413.209L261.77 415.133L263.492 412.014L264.43 410.923L264.795 410.763L267.623 411.154L268.596 410.593L270.194 407.676L271.419 406.058L274.087 405.795L277.534 407.89L278.551 404.515L280.764 404.923L282.922 404.872L283.647 405.8L288.295 411.509L292.809 408.403L292.069 407.346L294.379 404.475L295.189 404.018L297.635 397.652L304.293 391.695L300.608 388.977L307.263 388.489L315.091 380.008L312.127 369.151L319.648 371.916L321.936 369.82L323.931 368.472L323.241 367.703L323.161 367.297L323.972 365.879L324.626 363.245L324.682 358.541L324.523 358.012L323.075 357.357L321.952 356.136L320.947 355.44L320.546 354.953L320.549 354.385L322.366 352.934L324.302 351.849L325.11 351L326.285 348.776L326.694 346.549L326.656 345.86L325.735 344.519L323.489 342.483L323.373 341.065L323.858 340.541L325.629 340.063L329.73 340.93L331.455 342.314L332.622 342.481L333.265 342.321L333.952 341.636L335.005 338.926Z" fill="#CCCCCC" stroke="white" stroke-width="0.5"/>
<path d="M472.045 320.381L472.401 319.691L473.279 319.04L475.402 318.22L475.561 317.976L474.409 313.981L474.487 313.536L475.291 313.693L475.77 313.448L475.712 310.862L476.224 309.324L480.767 310.67L483.175 310.817L482.947 318.012L483.073 318.658L483.639 319.22L491.738 317.993L494.709 317.932L498.718 317.377L501.487 317.355L504.754 319.068L508.067 321.468L510.367 322.702L511.706 324.146L514.732 325.737L515.339 326.217L516.928 328.387L517.655 328.906L518.501 329.182L522.115 329.148L525.902 330.246L526.913 330.844L527.893 332.33L529.997 333.726L531.875 336.458L532.439 336.655L534.082 336.153L537.105 337.053L538.955 337.195L539.603 337.634L540.346 339.325L540.898 341.869L541.185 342.312L542.637 342.782L544.751 344.742L545.744 347.12L546.476 347.759L548.577 348.627L551.861 350.816L553.031 354.286L553.645 355.13L556.868 358.616L558.774 359.728L561.05 364.441L564.469 367.277L565.471 369.899L567.722 372.507L569.182 373.258L572.686 373.253L575.866 376.05L577.812 376.876L583.611 376.756L586.313 379.638L587.207 380.193L591.314 382.567L592.691 383.115L595.037 383.609L595.567 384.048L595.985 384.974L596.219 386.918L596.077 395.689L594.76 401.558L594.078 409.37L593.266 411.536L592.527 415.857L592.232 420.092L591.89 421.439L591.292 426.982L591.449 434.146L590.505 435.83L589.855 438.162L589.409 440.653L589.22 443.957L588.866 444.573L587.622 445.244L586.749 446.316L586.48 447.258L586.437 449.664L585.732 451.143L585.451 453.798L581.769 461.767L579.756 465.224L579.445 466.127L579.388 467.557L580.537 471.011L580.653 473.296L581.933 474.625L583.115 475.057L583.532 475.745L583.124 478.12L583.427 479.26L584.371 479.94L587.755 480.952L589.444 482.479L591.156 487.685L591.36 490.217L592.441 491.713L593.384 494.561L595.351 495.593L597.026 496.139L601.649 500.277L602.548 501.72L601.622 502.138L600.67 502.99L580.564 524.971L555.9 552.548L550.146 558.495L534.657 575.857L527.736 583.077L525.671 585.811L523.787 587.433L515.417 596.634L509.203 601L507.513 599.566L505.957 596.253L504.361 595.832L501.973 596.456L501.318 596.355L500.3 595.649L499.168 593.677L498.053 593.006L496.523 592.758L491.022 594.597L489.115 593.943L490.635 594.185L492.93 593.432L491.86 592.065L491.31 590.215L490.113 589.317L488.015 588.264L485.581 586.387L484.957 585.403L486.134 584.321L486.291 583.619L486.042 583.209L484.154 582.73L483.85 580.754L483.475 580.14L481.961 580.068L481.549 579.824L481.547 579.578L482.561 578.498L482.31 578.006L480.179 577.528L479.643 577.161L479.097 575.558L478.791 573.377L477.681 572.769L478.034 570.995L477.738 569.967L476.594 569.935L474.556 570.815L473.981 570.613L473.013 567.203L471.696 566.307L471.438 564.743L469.626 562.986L467.161 561.479L467.392 559.545L465.426 559.022L463.824 558.005L463.612 556.937L464.666 555.777L464.619 555.079L461.866 552.874L461.077 551.152L459.974 550.872L459.761 549.763L458.975 548.328L456.188 546.824L455.692 546.046L455.681 544.278L455.388 543.251L454.525 542.435L453.421 542.153L453.215 541.866L453.372 540.962L454.547 539.6L454.463 539.23L453.971 538.862L453.318 538.907L451.653 540.025L450.551 540.155L447.804 537.909L446.986 537.668L446.498 537.917L445.892 538.782L445.483 538.784L444.127 537.106L442.081 536.089L442.676 533.047L442.51 532.555L442.06 532.229L438.752 531.586L437.976 531.261L437.237 530.442L435.273 529.301L432.412 527.957L430.902 527.758L429.678 527.106L428.578 527.397L427.394 527.319L420.909 526.519L419.969 525.905L420.61 523.154L420.117 522.252L417.59 522.096L415.506 520.582L414.441 519.272L412.889 518.004L410.404 518.092L409.671 518.34L408.814 518.136L408.117 516.537L406.076 515.188L404.034 513.263L401.866 509.616L399.702 506.996L395.872 505.36L395.26 504.583L394.432 501.317L393.176 500.404L393.013 500.036L392.886 497.7L392.518 496.677L391.053 496.021L390.156 494.957L390.069 491.805L389.743 491.313L386.896 490.454L386.61 489.922L386.321 487.057L385.832 486.074L385.263 485.419L383.107 484.028L381.724 482.473L380.87 482.104L379.934 481.081L378.144 477.152L377.859 475.967L379.525 476.908L382.043 476.99L383.303 476.704L384.236 476.132L386.791 473.269L393.116 467.87L395.022 466.643L397.091 466.109L398.633 466.148L399.446 466.679L400.342 467.74L400.951 467.862L401.765 468.516L402.213 469.21L405.261 470.595L407.217 473.372L408.275 474.147L409.779 474.635L411.893 474.876L413.155 476.223L414.131 476.547L415.106 476.546L416.205 477.034L417.949 476.743L420.064 477.27L422.741 476.32L423.512 476.278L426.885 476.636L428.919 477.569L430.179 477.605L432.244 476.331L433.983 474.853L437.815 469.81L437.782 463.312L438.456 460.164L438.444 457.836L440.398 451.5L440.789 448.642L441.189 447.824L443.05 447L443.206 445.979L442.636 445.369L440.443 444.645L439.548 443.75L438.482 441.389L437.822 438.985L437.563 435.683L437.875 433.195L437.426 432.341L435.269 429.903L433.919 426.893L431.561 424.294L429.729 421.774L428.436 422.022L427.869 421.861L427.177 420.642L426.477 417.915L426.03 417.346L421.09 415.487L420.523 415.121L420.075 414.309L420.151 412.884L421.834 408.81L422.878 407.017L423.316 405.47L421.734 403.683L419.712 402.834L417.079 400.766L415.746 400.809L413.047 403.093L413.164 401.669L413.765 400.244L413.794 396.544L415.118 393.736L415.313 391.5L414.904 390.119L414.095 389.186L412.315 387.808L412.233 387.238L412.998 386.912L415.663 387.231L417.68 387.065L420.501 386.124L423.32 384.696L427.838 384.399L429.412 384.72L435.985 384.332L436.388 384.128L436.95 383.517L435.693 382.099L435.886 380.149L436.126 379.742L438.298 378.558L438.738 377.824L438.894 376.892V376.484L438.204 375.676L437.714 374.419L438.345 371.372L439.834 370.921L443.259 370.745L444.228 371.188L447.782 371.697L451.976 372.858L455.926 373.044L457.616 372.63L457.688 371.29L456.871 369.306L456.864 368.21L458.551 360.658L458.62 358.874L459.28 354.816L459.143 352.021L458.324 349.838L458.198 348.866L458.272 347.853L459.501 344.728L460.164 341.242L460.233 339.5L459.893 336.223L460.011 335.938L461.015 335.65L463.264 335.315L463.982 334.623L464.138 333.813L463.327 332.604L462.642 332.283L458.821 331.897L458.096 331.537L460.973 328.771L465.454 325.957L466.853 324.857L469.286 322.257L472.045 320.381Z" fill="#CCCCCC" stroke="white" stroke-width="0.5"/>
<path d="M391.531 2.156L394.289 2.239L397 3.91L399.756 3.354L402.33 3.195L404.741 2.586L407.817 2.544L410.248 1.954L413.719 1.998L415.211 2.877L416.789 4.512L417.248 5.453L417.881 5.563L421.526 2.476L421.902 2.562L422.638 3.586L423.191 3.88L423.388 6.371L423.155 7.918L423.393 8.988L423.788 9.503L425.839 10.85L426.63 12.157L426.712 13.705L426.085 14.697L423.252 16.961L422.035 18.708L418.256 20.895L417.194 22.602L415.58 23.515L414.439 24.747L411.131 27.488L404.985 31.579L403.408 32.253L403.133 32.651L403.135 34.835L403.926 36.503L405.741 37.814L406.216 38.45L406.612 40.277L406.458 42.94L407.487 45.522L408.991 48.265L409.308 48.503L410.966 48.661L411.203 49.258L411.126 50.172L410.653 50.888L409.037 52.718L407.025 54.468L406.989 57.052L407.309 59.24L407.152 60.871L404.312 64.492L403.644 68.113L404.16 68.75L404.95 69.108L405.82 69.147L406.729 68.868L407.558 67.754L408.308 67.236L410.954 66.758L412.297 65.762L415.457 65.323L416.048 64.805L416.56 63.691L417.578 59.155L418.524 58.08L419.787 57.602L420.893 57.919L422.138 57.848L423.581 58.473L424.729 59.625L425.129 62.05L425.566 62.766L427.781 64.116L428.967 64.193L431.1 63.712L433.035 63.669L433.865 63.867L435.172 64.699L436.012 67.881L435.857 69.155L434.364 72.182L434.13 73.098L433.829 78.354L431.313 83.734L430.805 85.289L430.848 86.483L432.117 87.676L432.875 89.787L433.986 90.821L436.719 91.492L438.106 92.564L440.762 93.555L442.861 94.028L442.789 95.942L443.348 97.176L443.55 98.53L442.645 100.008L442.529 101.044L444.987 101.795L445.745 103.109L445.512 104.306L445.078 104.746L444.366 104.828L443.295 104.472L442.781 104.632L442.348 105.192L442.232 106.348L442.764 110.775L443.685 113.685L443.258 115.601L443.3 116.439L444.856 119.149L445.018 120.106L444.831 123.021L445.238 125.614L445.796 126.252L449.324 126.282L450.202 127.316L450.837 127.434L453.168 125.63L454.553 124.987L455.831 126.979L457.376 126.574L458.25 127.01L460.87 127.6L460.527 130.476L459.978 131.916L459.831 134.113L459.4 135.353L458.851 136.593L455.582 141.88L454.252 146.201L452.679 149.524L451.07 153.81L450.955 154.811L452.047 159.046L451.971 159.687L451.143 161.33L451.082 165.333L450.654 167.335L450.589 170.538L454.405 170.444L458.104 170.671L460.249 170.262L464.345 170.445L465.417 170.241L465.072 172.685L464.209 174.771L464.017 175.933L464.178 176.373L470.038 178.629L473.111 180.498L474.068 180.853L476.066 182.245L476.777 181.48L477.012 180.798L478.042 180.032L479.592 179.864L480.269 180.06L480.869 180.498L481.31 181.216L481.362 182.979L481.97 184.539L481.417 185.263L481.31 187.227L479.093 189.001L478.149 190.77L477.554 191.054L475.643 191.184L475.486 191.465L475.572 192.347L475.064 194.113L476.225 194.909L476.628 195.829L476.117 196.794L475.049 197.962L475.052 198.444L476.493 199.52L477.85 200.034L479.097 202.032L479.02 202.474L478.427 202.999L475.325 204.018L473.725 202.903L471.609 202.191L468.98 202.203L468.105 202.569L467.396 203.976L467.651 206.583L467.376 207.306L464.8 209.846L464.845 210.69L466.266 215.139L466.189 215.822L465.833 216.346L464.324 217.437L463.575 219.087L462.794 221.82L463.44 223.425L463.247 224.59L462.018 225.922L458.679 228.267L458.442 228.871L458.334 230.961L459.229 234.213L462.245 238.06L464.455 240.261L465.865 242.547L465.711 243.512L464.081 244.848L463.885 245.372L463.87 249.837L463.207 252.658L463.353 257.286L462.923 258.779L461.257 261.242L459.148 263.225L458.875 264.475L458.201 265.605L457.086 266.538L454.193 271.788L453.345 270.301L453.144 270.221L452.39 271.15L452.029 271.272L451.588 271.113L450.663 270.149L450.143 270.031L450.495 276.479L450.062 278.053L447.747 279.634L446.472 280.929L446.045 283.794L443.961 283.479L443.402 283.884L441.611 286.554L438.284 286.081L436.839 285.318L435.392 284.193L430.456 282.149L429.009 280.5L427.765 279.938L426.077 278.249L424.796 278.413L423.637 278.858L422.595 278.821L421.51 277.613L420.627 277.01L418.504 276.611L418.183 276.37L417.173 273.307L415.489 272.584L413.247 272.306L411.603 271.461L406.84 271.668L406.16 271.508L405.437 270.541L404.836 270.542L404.075 270.018L401.995 270.786L401.354 270.584L400.312 269.617L396.308 269.217L394.147 269.458L392.787 270.225L390.306 269.942L389.103 269.136L388.022 268.894L387.061 267.845L385.501 268.168L384.259 267.683L382.777 265.547L381.417 264.78L381.136 264.014L380.617 264.094L379.576 264.899L378.576 265.02L377.255 262.641L376.735 262.197L373.334 262.354L371.813 262.191L370.614 262.552L369.933 262.471L368.653 261.865L366.655 259.203L366.135 258.959L364.454 259.36L363.334 259.357L362.135 258.59L361.457 256.171V255.487L362.42 252.791L362.024 248.523L362.185 247.879L363.505 246.433L363.586 244.743L364.309 241.123L363.55 240.156L362.831 239.832L361.554 238.583L358.838 237.732L355.846 235.313L353.252 234.219L351.098 232.605L349.86 232.119L347.705 231.831L346.669 230.742L345.118 227.602L343.003 226.952L341.968 225.983L339.934 225.092L339.497 224.648L338.782 222.758L337.114 220.019L336.441 217.967L335.088 216.476L333.941 212.776L333.826 211.531L333.191 210.283L333.194 209.44L333.995 207.958L333.92 206.393L334.321 205.792L334.283 204.748L336.007 201.303L338.127 198.421L338.332 195.935L339.37 195.176L340.29 193.615L340.374 191.73L340.654 191.13L343.09 188.291L343.012 187.609L341.422 186.361L341.522 184.813L344.139 182.201L344.104 179.916L344.624 178.676L344.27 176.872L344.631 175.431L344.236 174.387L342.807 172.981L342.809 172.059L342.968 171.66L344.642 170.383L346.877 166.786L348.709 165.35L349.747 162.871L349.231 162.31L347.602 162.064L345.894 161.218L344.508 159.252L343.674 158.809L342.565 157.085L341.335 156.12L338.954 154.912L338.638 154.47L338.33 150.628L337.894 149.947L336.545 149.421L336.31 148.061L335.715 147.778L332.775 148.006L331.028 147.8L329.679 147.474L328.728 146.709L327.696 146.625L325.158 145.494L322.657 145.163L322.222 144.881L321.591 143.479L320.283 143.033L319.53 142.509L317.428 141.979L316.477 141.254L314.535 140.365L313.074 138.719L312.054 135.835L310.714 133.47L310.162 132.788L309.01 132.901L308.414 133.098L306.98 134.289L306.066 134.483L300.669 134.452L298.802 134.68L296.971 135.708L295.303 136.137L291.791 139.512L289.131 139.614L288.491 140.369L285.844 144.989L285.513 147.346L285.07 148.264L283.398 148.771L280.635 152.551L279.039 153.62L277.546 157.29L276.909 157.366L275.763 156.356L272.476 154.57L271.609 153.644L270.975 153.358L266.04 154.559L263.573 154.938L261.746 154.883L260.665 155.915L258.951 156.581L258.316 156.614L256.374 155.877L253.629 156.293L252.684 155.124L252.023 153.237L251.432 152.793L250.922 151.908L248.703 151.247L247.766 149.239L246.382 148.426L246.148 147.984L246.09 145.343L245.227 144.096L245.356 142.938L244.497 141.05L244.911 139.255L244.482 138.292L243.459 137.124L243.371 133.565L242.62 133.159L240.119 133.295L239.471 131.799L238.914 131.157L239.076 130.678L238.759 129.956L238.28 129.834L235.835 130.946L235.035 131.023L234.756 130.783L234.838 130.263L235.478 130.265L236.364 128.868L236.725 128.669L236.487 128.148L236.728 127.749L236.371 127.228L236.333 126.667L237.174 126.551L236.578 125.708L236.119 123.509L234.665 121.938L234.086 120.175L234.337 118.78L235.066 116.951L234.684 115.391L234.747 112.677L234.439 111.836L233.594 111.062L243.689 106.328L254.895 97.064L286.084 84.332L293.908 82.872L294.92 81.496L296.095 80.965L297.661 79.403L299.466 78.492L300.935 76.376L300.894 73.151L301.189 72.366L302.552 70.712L302.915 69.586L302.896 68.333L303.39 67.581L302.665 66.032L302.922 64.054L302.55 63.608L301.487 63.342L301.108 62.677L301.705 60.113L303.987 57.338L304.204 56.655L304.083 55.982L302.593 55.373L302.216 54.112L302.265 53.156L302.725 51.929L302.772 48.986L304.572 45.493L304.243 44.49L303.45 43.918L303.245 43.07L303.431 42.032L304.193 40.975L302.983 39.761L303.163 39.16L304.323 38.151L306.438 34.824L306.778 33.747L308.669 30.223L309.599 29.749L310.62 29.573L313.742 29.662L314.877 29.442L317.337 29.781L318.224 29.35L318.924 28.484L319.669 26.765L321.476 24.432L332.42 16.723L333.918 14.991L335.059 14.376L336.468 14.43L338.325 13.922L341.603 11.939L343.658 11.407L345.263 10.168L346.366 9.732L349.504 9.914L351.26 8.275L352.384 7.917L357.933 7.598L359.053 7.022L361.659 4.197L363.099 3.793L364.35 3.849L367.118 5.503L368.706 5.553L375.954 3.868L380.967 1.55L382.724 1.139L384.765 1L389.47 1.284L391.531 2.156Z" fill="#CCCCCC" stroke="white" stroke-width="0.5"/>
</svg>
