<svg width="10" height="10" viewBox="0 0 10 10" fill="none" xmlns="http://www.w3.org/2000/svg">
<circle cx="5" cy="5" r="4.5" stroke="#076606"/>
<g clip-path="url(#clip0_664_3330)">
<path d="M4.91894 6.16671V5.88099C4.75678 5.88099 4.59462 5.83337 4.50195 5.76195L4.57145 5.57147C4.66412 5.6429 4.82628 5.69052 4.96527 5.69052C5.17377 5.69052 5.2896 5.57147 5.2896 5.4048C5.2896 5.23814 5.17377 5.1429 4.96527 5.07147C4.68728 4.95242 4.50195 4.83337 4.50195 4.57147C4.50195 4.33337 4.66412 4.1429 4.91894 4.11909V3.83337H5.0811V4.11909C5.24327 4.11909 5.3591 4.16671 5.45176 4.21433L5.38226 4.4048C5.31276 4.38099 5.2201 4.30956 5.03477 4.30956C4.82628 4.30956 4.73361 4.45242 4.73361 4.54766C4.73361 4.69052 4.82628 4.76195 5.0811 4.88099C5.3591 5.00004 5.52126 5.1429 5.52126 5.4048C5.52126 5.61909 5.3591 5.83337 5.0811 5.88099V6.16671H4.91894Z" fill="black"/>
<path d="M8 7H2V3H8V7ZM2.23166 6.7619H7.76834V3.2381H2.23166V6.7619Z" fill="black"/>
<path d="M3.82996 6.59526H2.48633V3.40479H3.82996L3.76046 3.57145C3.57513 4.00002 3.48247 4.50002 3.48247 5.00002C3.48247 5.52383 3.57513 6.00002 3.76046 6.42859L3.82996 6.59526ZM2.71799 6.35717H3.4593C3.29714 5.9524 3.22764 5.47621 3.22764 5.00002C3.22764 4.52383 3.29714 4.04764 3.4593 3.64288H2.71799V6.35717ZM7.51335 6.59526H6.16973L6.23922 6.42859C6.42455 6.00002 6.51722 5.50002 6.51722 5.00002C6.51722 4.47621 6.42455 4.00002 6.23922 3.57145L6.16973 3.40479H7.51335V6.59526ZM6.51722 6.35717H7.25853V3.64288H6.51722C6.67938 4.04764 6.74888 4.52383 6.74888 5.00002C6.74888 5.47621 6.67938 5.9524 6.51722 6.35717Z" fill="black"/>
</g>
<defs>
<clipPath id="clip0_664_3330">
<rect width="6" height="4" fill="white" transform="translate(2 3)"/>
</clipPath>
</defs>
</svg>
