<svg width="152" height="108" viewBox="0 0 152 108" fill="none" xmlns="http://www.w3.org/2000/svg">
<path d="M37.9336 0H113.823V107.247H37.9336V0Z" fill="white"/>
<path d="M0 0H37.9343V107.247H0V0ZM113.824 0H151.758V107.247H113.845L113.824 0ZM49.3083 51.8219L46.3339 52.8273L60.0539 64.8716C61.1012 67.9508 59.6978 68.8515 58.7971 70.4853L73.6692 68.6001L73.3131 83.5769L76.4132 83.4931L75.7219 68.6211L90.6359 70.4015C89.7143 68.4535 88.8974 67.4271 89.7352 64.327L103.434 52.9111L101.046 52.0313C99.0774 50.5232 101.884 44.7629 102.303 41.1182C102.303 41.1182 94.3225 43.8622 93.7989 42.4169L91.7461 38.4998L84.4776 46.5014C83.6817 46.69 83.3465 46.3758 83.158 45.7055L86.5094 28.9901L81.189 31.9855C80.7491 32.1949 80.3093 32.0273 80.016 31.5037L74.8841 21.2398L69.6055 31.9017C69.2076 32.2787 68.8096 32.3206 68.4744 32.0692L63.4054 29.2205L66.4635 45.7893C66.2122 46.4596 65.6257 46.6271 64.9554 46.271L57.9802 38.3742C57.0795 39.8404 56.472 42.2074 55.2571 42.752C54.0632 43.2547 50.0205 41.7466 47.3184 41.1601C48.24 44.4906 51.1306 50.0205 49.3083 51.8428V51.8219Z" fill="#D52B1E"/>
</svg>
