<svg width="357" height="794" viewBox="0 0 357 794" fill="none" xmlns="http://www.w3.org/2000/svg">
<path d="M111.026 477.906L111.701 478.429L111.344 481.174L112.892 481.696L115.492 480.808L116.961 481.592L116.783 482.638L113.964 482.689L113.369 483.893L116.088 485.304L115.85 488.648L116.644 489.771L117.438 487.446L118.986 487.289L121.686 480.547L124.643 479.187L129.566 479.239L136.434 475.082L144.91 475.579L147.371 472.859L151.917 472.205L153.425 481.252L153.167 487.604L153.981 491L155.509 490.556L159.32 487.211L160.174 488.021L159.598 490.425L161.583 492.437L162.615 492.724L165.731 491.81L166.565 495.754L170.635 501.055L171.984 505.728L176.649 509.355L176.411 512.644L182.306 513.427L187.725 511.183L189.928 512.879L193.164 516.792L194.474 517.392L201.6 516.505L207.535 515.044L210.771 519.427L212.517 525.372L215.237 528.918L218.095 537.127L220.497 540.02L222.641 540.696L222.581 544.864L223.812 547.624L226.392 549.551L230.938 548.77L236.476 549.968L236.714 551.452L235.801 554.836L232.466 560.249L231.91 562.461L235.007 567.273L235.84 575.334L237.607 581.807L238.024 587.003L234.411 587.315L231.891 588.458L229.092 588.718L226.472 587.652L224.089 587.497L222.501 589.212L221.708 592.433L222.125 594.926L223.851 598.405L223.355 600.378L221.033 600.716L218.174 599.365L212.14 599.703L209.083 600.871L207.217 602.48L209.083 604.012L209.242 605.518L202.711 609.877L200.468 606.166L192.965 598.354L191.477 593.835L188.182 592.978L184.589 593.212L184.251 588.406L179.884 581.261L175.339 576.322L170.714 574.606L168.669 572.422L166.843 571.98L163.767 573.229L162.556 578.479L160.273 575.725L159.102 573.307L158.229 572.969L156.779 573.072L154.358 574.477L149.594 572.969L146.736 572.942L141.356 575.438L129.129 571.59L129.347 567.897L128.593 565.271L125.536 561.134L122.896 561.55L122.321 561.159L122.281 559.364L120.673 558.375L119.582 556.71L118.39 550.749L113.904 543.979L112.456 543.849L112.674 542.416L116.306 537.987L114.877 528.865L112.217 526.415L110.689 522.217L105.727 516.74L104.833 513.948L104.992 510.399L103.066 504.188L98.8984 497.269L98.9984 490.765L99.7324 491.601L100.585 491.652L102.312 489.902L100.645 488.465L100.923 487.524L102.888 485.904L101.339 485.408L100.942 484.676L101.32 483.709L102.649 483.238L102.431 481.305L104.992 481.592L106.084 480.651L107.215 482.794L107.87 482.82L110.173 478.455L111.026 477.906Z" fill="#CCCCCC" stroke="white" stroke-width="0.5"/>
<path d="M191.039 211.776L192.369 211.883L194.195 213.317L198.363 211.962L203.266 208.881L204.16 207.686L208.785 205.827L209.062 202.691L210.611 202.452L216.089 206.65L216.784 207.739L217.141 213.476L215.751 216.981L215.831 219.264L219.841 225.103L222.441 226.085L224.843 225.926L227.125 224.599L232.564 222.9L233.041 220.883L232.445 217.406L233.021 216.53L239.035 216.131L250.607 216.955L256.542 215.388L256.423 214.007L254.578 212.732L254.935 211.378L256.225 211.219L258.349 212.6L258.926 218.919L258.329 224.174L260.633 231.232L260.671 233.54L255.729 233.619L255.471 235.794L252.871 236.801L253.287 238.923L250.389 243.721L250.25 247.353L249.178 250.718L249.992 253.605L251.541 255.751L252.057 260.386L249.417 267.614L251.541 270.34L251.322 274.071L252.871 275.209L254.796 277.934L254.319 278.516L255.292 279.891L255.57 281.531L256.741 282.854L257.477 288.538L254.22 289.86L250.627 293.005L245.566 293.798L243.938 294.67L240.286 294.354L238.856 294.855L238.658 295.437L240.782 296.969L240.703 299.136L237.348 303.653L237.467 305.951L239.393 307.351L241.715 307.721L241.576 309.807L242.985 311.443L245.208 312.262L246.975 316.802L247.392 320.47L248.623 322.766L247.789 324.322L248.067 325.219L249.675 326.591L250.905 326.327L251.68 326.987L254.3 327.145L253.922 329.123L257.516 332.077L258.171 334.371L258.29 336.005L256.979 336.717L256.086 339.722L255.153 340.618L256.364 342.146V343.069L253.962 345.388L253.466 347.469L251.62 348.681L251.342 351.236L249.457 353.185L246.856 350.789L245.903 350.551L245.665 353.185L244.415 354.37L245.725 355.897L247.868 362.637L247.471 364.006L248.265 365.901L246.142 366.217L243.243 365.69L239.71 367.401L237.983 367.006L235.244 367.822L232.624 367.454L230.698 365.98L229.488 363.006L228.515 362.427L221.846 366.296L219.364 367.138L217.439 366.743L217.756 365.454L219.623 363.111L220.456 357.267L220.238 355.002L219.325 353.449L212.874 349.366L213.489 344.044L212.318 342.437L209.36 340.618L204.954 340.328L202.75 341.04L199.574 344.281L193.262 348.813L189.55 349.945L189.034 346.89L187.565 345.52L184.786 344.966L181.849 345.915L180.002 345.493L177.72 342.964L171.646 333.606L169.879 332.235L167.279 332.709L162.416 339.406L161.979 339.353L161.284 335.214L158.386 331.417L155.548 329.492L151.756 328.859L149.692 327.382L146.675 319.098L142.388 313.027L134.11 306.638L129.862 306.163L128.155 302.729L124.126 297.736L119.402 294.142L116.126 288.723L114.638 278.992L110.747 273.462L111.204 268.196L110.728 265.258L109.159 262.398L104.396 257.499L109.298 254.903L113.586 250.32L118.211 255.539L124.761 255.937L130.081 253.738L132.582 254.559L135.162 256.254L140.025 257.711L141.951 253.552L143.34 252.307L147.648 250.161L150.407 251.088L152.729 254.665L155.131 255.009L157.275 253.552L157.632 250.665L159.577 248.386L160.907 247.697L161.324 246.027L163.329 244.172L163.984 241.786L171.546 241.309L182.623 239.374L184.866 239.506L183.873 234.335L183.714 229.773L181.193 228.924L180.539 227.889L180.975 219.98L183.734 218.494L185.342 212.892L187.585 212.069L191.039 211.776Z" fill="#CCCCCC" stroke="white" stroke-width="0.5"/>
<path d="M43.3199 290.626L50.4859 292.001L53.8209 291.763L59.3789 290.124L62.2969 291.948L65.4929 291.446L66.0489 291.684L66.0289 293.005L67.8349 292.476L75.2589 294.723L81.9279 297.656L88.1209 298.211L92.6469 297.709L106.879 293.903L110.829 292.238L116.129 288.722L119.404 294.14L124.128 297.734L128.157 302.727L129.864 306.161L129.685 310.016L128.038 311.759L125.458 316.616L122.897 319.123L120.277 323.081L118.749 323.424L116.903 321.841L114.302 323.82L107.871 324.743L102.769 328.515L100.189 331.838L96.4369 333.974L91.2169 334.343L87.2269 331.364L86.7309 319.44L83.9319 320.892L84.3889 323.794L82.0069 324.058L80.3999 325.746L79.6059 325.799L78.2359 324.348L77.0249 324.058L74.1269 325.878L72.4989 325.377L71.0899 327.698L72.1619 334.713L71.5469 340.222L75.2779 346.704V348.391L74.1069 351.341L74.0469 354.212L75.5949 361.084L75.4759 362.505L69.7989 369.61L67.4969 374.766L65.8089 372.714L63.6649 371.53L56.6579 372.898L51.2989 371.846L49.6109 366.821L46.9309 363.321L46.8909 362.4L44.9259 360.452L43.8739 359.715L43.1399 359.346L40.1029 358.899L39.8449 359.32L38.5149 358.952L37.6609 360.952L38.0979 362.005L36.9869 360.609L34.5459 359.74L34.2079 357.792L31.9449 356.212L31.4489 349.074L31.6869 344.068L32.4009 342.909L32.4209 341.512L31.8249 340.062L29.1449 337.954L28.7679 336.504L27.5369 335.503L26.0879 333.051L28.8469 334.554L29.4029 335.635L28.5289 334.739L28.8659 335.635L30.7909 337.032L34.3439 337.243L36.4479 336.189L37.5199 335.055L38.8699 331.891L38.9099 331.575L38.1759 332.788L38.4539 330.81L39.1679 331.153L38.8709 330.098L38.5529 328.305L38.9099 328.041L38.7909 327.777L38.2899 328.077L37.8379 327.566L37.9369 328.278L36.9839 327.671L38.0159 329.728L37.6789 329.886L37.9369 332.075L37.3219 329.253L35.8729 326.8L39.7039 326.009L43.8329 323.16L45.7779 321.049L49.6289 314.847L50.9389 311.098L50.9189 304.523L50.3239 301.406L48.9939 299.636L42.1859 296.994L40.4389 295.461L39.9429 294.642L40.1019 292.924L37.7799 287.981L36.9059 287.241L42.1269 289.383L43.3199 290.626Z" fill="#CCCCCC" stroke="white" stroke-width="0.5"/>
<path d="M189.55 349.945L193.262 348.813L199.574 344.281L202.75 341.04L204.954 340.328L209.36 340.618L212.318 342.437L213.489 344.044L212.874 349.366L219.325 353.449L220.238 355.002L220.456 357.267L219.623 363.111L217.756 365.454L217.439 366.743L219.364 367.138L221.846 366.296L228.515 362.427L229.488 363.006L230.698 365.98L232.624 367.454L235.244 367.822L237.983 367.006L239.71 367.401L243.243 365.69L246.142 366.217L248.265 365.901L248.821 366.533L248.246 369.085L248.603 372.558L250.548 377.135L249.516 378.555L249.198 380.921L252.533 386.337L253.208 389.648L257.773 391.383L258.29 394.011L262.101 399.947L262.656 402.232L264.641 405.278L265.078 407.93L263.808 409.138L262.617 412.55L264.244 414.57L265.078 417.194L266.07 417.798L268.453 424.67L266.15 434.896L265.912 439.587L264.562 436.232L263.629 435.604L256.304 434.555L254.002 434.765L249.833 436.442L245.585 436.809L241.08 440.242L237.13 442.364L231.79 443.281L230.341 445.351L229.567 453.05L228.456 456.637L224.625 461.322L224.466 462.735L227.165 468.021L232.445 474.193L236.614 482.35L240.881 488.831L239.591 499.201L239.135 500.429L237.03 502.596L236.594 505.415L235.403 506.642L233.597 507.372L232.068 511.131L230.599 511.104L226.411 509.199L221.627 509.8L216.784 508.625L215.692 509.304L214.64 511.783L213.231 512.879L206.264 512.122L207.534 515.044L201.599 516.505L194.473 517.392L193.163 516.792L189.927 512.879L187.724 511.183L182.305 513.427L176.41 512.644L176.648 509.355L171.983 505.728L170.634 501.055L166.564 495.754L165.73 491.81L162.614 492.724L161.582 492.437L159.597 490.425L160.173 488.021L159.319 487.211L155.508 490.556L153.98 491L153.166 487.604L153.424 481.252L151.916 472.205L147.37 472.859L144.909 475.579L136.433 475.082L129.565 479.239L124.642 479.187L121.685 480.547L118.985 487.289L117.437 487.446L116.643 489.771L115.849 488.648L116.087 485.304L113.368 483.893L113.963 482.689L116.782 482.638L116.96 481.592L115.769 480.808L112.891 481.696L111.343 481.174L111.7 478.429L111.025 477.906L112.435 476.677L111.68 472.074L107.313 468.177L107.353 466.843L109.159 463.546L109.417 458.705L109.259 455.302L107.095 451.27L106.917 446.477L109.12 440.714L108.167 440.085L103.284 440.11L95.1463 437.229L91.8904 438.25L89.3303 437.778L87.7023 436.337L84.8633 430.858L82.4023 428.054L84.6053 425.93L88.1783 424.539L90.2433 418.296L96.7533 412.996L97.6273 408.508L99.3543 406.88L101.498 406.617L103.602 408.849L105.388 409.558L109.894 407.536L111.641 408.219L112.554 407.956L114.281 405.777L116.266 404.359L118.905 404.727L120.375 400.814L122.895 399.605L124.404 396.927L127.5 396.506L129.485 395.035L134.249 393.012L137.664 389.596L144.928 384.628L150.804 373.189L153.126 370.585L156.104 369.743L160.788 372.689L163.527 373.426L165.195 373.005L171.348 368.322L174.604 366.638L175.08 364.638L173.968 360.637L175.04 358.109L178.712 355.582L188.359 351.947L189.53 351.21L189.55 349.945Z" fill="#CCCCCC" stroke="white" stroke-width="0.5"/>
<path d="M35.1614 441.762L37.3444 440.714L39.9454 440.504L39.8854 438.984L38.7544 438.041L38.3374 435.132L39.2304 433.664L40.3624 433.113L40.0444 431.383L40.8184 431.279L41.7314 432.852L42.5444 432.773L42.7034 431.881L41.4134 431.148L40.7784 429.496L41.9094 428.867L42.5054 429.601L43.8154 428.237L45.3834 428.841L47.1704 433.114L47.8054 433.533L48.7784 432.38L48.6194 429.208L50.0284 431.122L51.1994 429.47L52.0324 429.235L54.2164 430.284L56.8764 430.205L57.7304 430.992L59.4374 431.096L59.9334 430.492L59.4374 428.5L59.7154 427.294L63.2684 426.98L63.8634 424.671L64.7374 424.226L66.4444 424.593L67.7354 423.544L69.5814 425.642L70.4154 425.458L71.7654 423.518L72.7584 423.806L71.8644 425.458L72.1624 425.904L74.3464 424.303L74.6444 426.192L75.2794 426.9L76.5894 425.196L79.0704 424.776L82.4044 428.054L84.8654 430.859L87.7044 436.338L89.3314 437.779L91.8924 438.251L95.1474 437.23L103.285 440.112L108.168 440.087L109.121 440.716L106.918 446.479L107.097 451.272L109.261 455.304L109.42 458.707L109.162 463.548L107.356 466.845L107.316 468.179L111.683 472.076L112.437 476.679L111.028 477.908L110.174 478.457L107.871 482.822L107.216 482.796L106.085 480.653L104.993 481.593L102.432 481.306L102.65 483.24L101.32 483.711L100.943 484.678L101.34 485.41L102.888 485.906L100.923 487.526L100.645 488.466L102.312 489.904L100.585 491.654L99.7314 491.602L98.9974 490.766L98.8974 497.27L103.065 504.189L104.99 510.401L104.831 513.95L105.725 516.742L110.687 522.219L112.215 526.417L114.875 528.867L116.304 537.989L112.672 542.418L112.454 543.851L113.903 543.981L118.389 550.752L119.58 556.713L120.671 558.378L122.279 559.367L122.319 561.162L122.894 561.553L125.534 561.137L128.591 565.274L129.345 567.901L129.127 571.593L125.495 571.307L124.284 571.854L120.513 575.597L118.389 579.055L113.109 583.551L111.482 587.76L109.537 590.461L107.254 592.357L103.879 593.551L101.775 590.695L100.365 589.889L100.048 587.525L98.2224 587.162L96.4754 585.421L95.2844 585.344L96.1174 580.51L97.3084 578.534L96.7324 575.753L96.9704 573.751L94.9264 573.491L91.8094 574.869L90.5594 573.777V572.373L93.6564 567.328L93.5774 565.638L91.3534 565.091L89.1894 565.638L85.8754 565.507L84.9424 564.545L81.2504 563.114L78.7694 561.423L77.5394 559.575L72.1804 556.869L70.4534 556.765L68.4884 558.952L67.6344 558.588L66.8404 556.661L65.8674 555.985H65.2524L64.6174 557.468L62.7914 557.051L62.1764 555.646L62.5134 553.356L61.3424 553.486L60.8454 552.445L61.0244 551.742L62.5724 551.325L62.6324 550.44L60.1114 549.138L58.1664 551.117L56.1814 551.872L55.1494 550.154L55.3084 546.248L53.5414 545.128L51.1994 545.623L50.8424 544.972L51.2394 543.983L50.4654 542.811L47.1314 543.28L45.8014 542.004L44.9284 543.071L44.0154 542.837L43.9154 540.91L45.6824 538.878L42.4864 537.992L41.2954 536.715L39.3904 537.132L38.0604 535.022L39.0924 532.051L38.3384 531.347L34.1504 533.744L32.4234 533.822L31.6494 535.099L32.1654 536.402L31.4114 536.923L28.5534 535.724L27.3034 532.545L26.3904 531.816L19.0064 529.339L16.0094 530.043L12.7344 533.457L10.0154 532.806L8.94336 530.929L10.9284 528.661L12.6754 528.269L10.4124 529.625L14.9184 528.165L16.2684 526.835L17.0624 527.513L17.6584 527.096L17.2014 525.584L17.2214 526.81L16.0304 526.106L12.9934 528.244L17.8374 522.925L21.3704 515.649L21.4894 506.072L21.5294 504.323L21.9264 502.182L22.7004 503.148L23.5344 502.365L23.8124 499.78L22.9984 498.161L22.2444 497.927L22.2844 496.725L24.0114 490.143L24.5084 490.717L24.7664 491.319L26.5724 488.758L26.2754 490.352L27.7244 489.412L26.3944 487.844L25.9974 488.785L25.0044 488.262L23.6344 489.726L22.8404 489.229L26.2154 482.8L28.1014 475.977L29.6294 473.623L28.2394 478.147L28.7554 478.643L29.9664 478.539L31.2164 477.598L31.1364 475.035L30.6004 474.068L30.0044 474.146L30.1834 472.865L28.6354 471.034L28.0994 471.845L28.5954 474.304L28.1784 475.35L27.5434 466.718L29.7274 468.419L31.1764 468.262L30.7394 466.928L30.1444 467.869L30.0844 464.128L27.9004 466.404L28.7334 464.441L29.1304 464.075L31.7904 460.752L37.7654 456.328L37.9644 456.826L33.0214 460.124L31.1754 462.27L34.0534 463.212L35.7204 462.819L37.9804 463.284L38.8544 462.656L38.5964 460.824L39.8064 461.609L38.3974 459.306L41.9104 454.62L39.9654 455.484L40.6404 455.771L39.4294 455.928L39.8864 456.347L38.6554 456.19L41.5934 454.017L42.5664 452.341L43.0434 447.261L41.5744 443.07L41.2774 443.411L42.0114 444.851L39.1534 442.992L38.9944 442.153L36.5724 441.944L37.1684 442.861L38.5184 443.332L37.5064 443.307L35.5414 442.809L35.1614 441.762Z" fill="#CCCCCC" stroke="white" stroke-width="0.5"/>
<path d="M129.13 571.59L141.357 575.438L146.737 572.942L149.595 572.969L154.359 574.477L156.78 573.072L158.23 572.969L159.103 573.307L160.274 575.725L162.557 578.479L163.768 573.229L166.844 571.98L168.67 572.422L170.715 574.606L175.34 576.322L179.885 581.261L184.252 588.406L184.59 593.212L188.183 592.978L191.478 593.835L192.966 598.354L200.469 606.166L202.712 609.877L209.243 605.518L209.084 604.012L207.218 602.48L209.084 600.871L212.141 599.703L218.175 599.365L221.034 600.716L223.356 600.378L223.852 598.405L222.126 594.926L221.709 592.433L222.502 589.212L224.09 587.497L226.473 587.652L229.093 588.718L231.892 588.458L234.412 587.315L238.025 587.003L237.767 594.017L236.338 598.639L238.759 603.025L243.325 607.101L242.829 609.565L239.355 615.584L239.077 617.011L239.732 619.552L242.293 621.834L242.71 631.14L243.603 631.632L245.826 637.591L247.454 645.465L249.419 649.918L256.287 658.717L255.929 663.994L261.269 669.864L263.075 673.562L264.127 678.06L265.775 680.308L267.74 681.677L265.953 683.563L263.73 683.356L260.733 684.622L256.564 684.906L248.605 680.049L247.692 682.22L246.004 683.201L245.151 684.752L244.099 685.062L240.764 684.261L238.918 682.245L236.675 682.479L230.502 685.785L228.676 688.394L228.358 689.686L229.291 691.726L227.723 695.754L225.976 697.432L226.294 700.014L225.163 702.801L220.716 704.582L213.233 703.859L208.965 704.117L210.255 707.987L213.491 711.78L215.496 715.468L214.086 721.347L216.25 723.409L218.949 724.956L220.696 729.26L222.642 730.42L224.09 735.778L229.49 743.093L228.775 744.534L229.271 745.977L228.398 750.609L224.567 755.885L222.602 757.068L220.16 756.297L216.587 752.514L209.878 750.584L207.258 749.014L204.737 743.505L201.224 742.191L200.311 737.839L197.155 730.857L192.093 725.11L191.676 721.038L192.629 717.763L192.45 716.345L184.987 714.023L180.501 709.123L175.757 707.214L174.109 705.949L170.596 701.769L168.531 700.323L167.34 696.89L162.279 692.165L159.46 688.059L154.935 684.209L154.16 684.468L153.347 686.069L152.096 686.198L145.942 682.091L141.238 685.785L140.087 685.992L138.916 685.242L135.482 676.482L130.777 667.744L126.728 663.864L121.627 660.813L118.193 649.658L113.191 641.71L112.714 636.788L110.452 632.565L110.471 631.735L112.297 629.196L109.479 628.082L108.248 624.245L98.0449 612.938L98.8389 611.252L109.399 601.157L107.355 598.405L105.965 598.041L103.881 593.549L107.256 592.354L109.539 590.458L111.484 587.757L113.111 583.548L118.391 579.052L120.515 575.594L124.287 571.851L125.498 571.304L129.13 571.59Z" fill="#CCCCCC" stroke="white" stroke-width="0.5"/>
<path d="M268.335 418.165L280.324 419.66L292.353 464.959L297.732 467.053L300.313 466.581L302.933 466.896L307.34 468.308L310.397 466.66L312.838 461.061L315.28 457.894L323.855 461.505L326.316 463.206L327.507 463.311L328.817 461.897L330.841 462.159L333.342 461.453L334.574 461.819L337.154 464.357L338.544 464.985L341.878 469.668L342.454 495.258L341.183 498.418L336.856 501.604L338.88 502.438L340.112 503.691L342.057 503.744L342.235 510.217L343.208 511.626L346.622 513.453L350.096 517.496L356.746 528.865L356.05 536.424L356.666 540.306L356.15 541.53L354.641 542.598L354.879 545.697L354.462 547.494L353.669 548.197L354.602 552.675L353.947 556.97L351.902 558.063L350.116 557.282L346.88 558.167L345.531 560.978L345.193 563.293L341.402 565.765L340.846 567.039L339.436 566.961L338.544 569.822L339.417 572.578L339.278 574.71L336.162 578.766L336.995 579.961L331.12 581.963L327.11 578.506L323.081 578.739L320.143 579.753L318.496 579.363L316.848 577.908L314.446 577.362L312.262 580.688L311.806 584.119L310.159 586.146L310.059 587.835L308.035 587.601L304.739 589.472L302.894 591.289L304.204 594.744L303.132 597.912L304.283 602.48L303.787 607.905L301.127 609.462L300.889 610.292L301.484 611.615L300.571 611.563L298.606 613.017L297.712 614.754L297.534 615.974L298.765 618.541L296.76 620.563L293.227 621.237L292.036 625.022L288.661 628.496L287.986 630.207L287.649 632.28L288.126 634.275L290.329 636.114L290.586 638.887L290.13 641.166L290.884 643.289L290.17 645.542L288.403 647.303L287.252 650.047L284.493 650.875L281.674 652.661L282.111 653.723L281.079 658.897L284.771 662.287L284.354 663.503L282.607 665.21L281.237 668.727L282.012 672.424L281.377 675.19L281.734 676.612L278.935 677.077L277.605 678.06L271.293 678.008L270.36 678.628L269.883 680.075L267.74 681.677L265.775 680.308L264.127 678.06L263.075 673.562L261.269 669.864L255.929 663.994L256.287 658.717L249.419 649.918L247.454 645.465L245.826 637.591L243.603 631.632L242.71 631.14L242.293 621.834L239.732 619.552L239.077 617.011L239.355 615.584L242.829 609.565L243.325 607.101L238.759 603.025L236.338 598.639L237.767 594.017L238.025 587.003L237.608 581.807L235.841 575.334L235.008 567.273L231.911 562.461L232.467 560.249L235.802 554.836L236.715 551.452L236.477 549.968L230.939 548.77L226.393 549.551L223.813 547.624L222.582 544.864L222.642 540.696L220.498 540.02L218.096 537.127L215.238 528.918L212.518 525.372L210.772 519.427L207.536 515.044L206.266 512.122L213.233 512.879L214.642 511.783L215.694 509.304L216.786 508.625L221.629 509.8L226.413 509.199L230.601 511.104L232.07 511.131L233.599 507.372L235.405 506.642L236.596 505.415L237.032 502.596L239.137 500.429L239.593 499.201L240.883 488.831L236.616 482.35L232.447 474.193L227.167 468.021L224.468 462.735L224.627 461.322L228.458 456.637L229.569 453.05L230.343 445.351L231.792 443.281L237.132 442.364L241.082 440.242L245.587 436.809L249.835 436.442L254.004 434.765L256.306 434.555L263.631 435.604L264.564 436.232L265.914 439.587L266.152 434.896L268.455 424.67L266.072 417.798L268.335 418.165Z" fill="#CCCCCC" stroke="white" stroke-width="0.5"/>
<path d="M169.721 36.784L171.031 36.73L171.388 37.938L177.382 40.407L180.042 42.473L180.122 45.075L182.563 47.676L183.437 51.296L184.767 52.101L186.136 54.004L185.064 55.773L185.164 56.873L190.562 61.589L191.793 64.51L191.952 66.332L189.61 68.233L188.359 70.805L194.552 76.375L194.671 78.115L195.624 79.186L195.366 83.602L193.857 84.833L195.843 88.257L195.902 89.167L195.148 90.184L195.505 91.093L197.51 91.654L198.185 92.698L204.715 91.28L207.772 93.607L211.96 90.291H214.064L215.573 91.093L217.419 93.393L217.221 95.265L221.468 96.335L225.319 98.18L227.463 101.709L231.056 102.377L231.592 103.526L234.49 103.794L238.142 105.424L241.278 108.498L241.695 110.261L245.665 113.467L246.28 116.325L250.925 121.078L252.513 128.339L255.113 133.97L254.716 135.01L257.615 138.638L257.336 140.585L259.54 145.065L258.309 148.931L259.242 151.703L257.099 155.807L260.215 161.828L261.624 162.521L264.959 166.436L265.574 172.319L266.507 173.438L268.77 181.713L270.914 184.214L271.291 187.619L269.881 193.761L264.661 197.031L263.292 199.29L261.465 200.034L264.86 208.403L264.939 210.342L260.81 210.847L258.349 212.6L256.225 211.219L254.935 211.378L254.578 212.732L256.423 214.007L256.542 215.388L250.607 216.955L239.035 216.131L233.021 216.53L232.445 217.406L233.041 220.883L232.564 222.9L227.125 224.599L224.843 225.926L222.441 226.085L219.841 225.103L215.831 219.264L215.751 216.981L217.141 213.476L216.784 207.739L216.089 206.65L210.611 202.452L209.062 202.691L208.785 205.827L204.16 207.686L203.266 208.881L198.363 211.962L194.195 213.317L192.369 211.883L191.039 211.776L192.806 204.232L192.627 198.812L201.956 188.815L200.031 179.479L200.527 177.696L201.54 176.685L201.341 174.848L200.567 173.438L198.185 172.239L197.153 169.577L195.307 168.433L193.361 168.539L192.131 167.927L190.979 163.453L186.593 156.367L183.714 158.178L181.987 160.976L180.062 160.229L177.938 160.39L177.323 159.83L180.816 157.326L182.861 154.421L181.968 147.598L184.191 142.932L185.68 141.679L185.898 140.266L187.069 139.012L190.761 136.958L194.195 133.836L196.021 129.3L195.545 128.446L192.885 128.58L189.213 125.964L187.446 125.937L186.612 124.496L185.223 124.736L183.794 122.04L180.995 121.692L179.109 122.307L176.251 121.505L175.12 120.865L172.142 117.26L169.006 117.607L167.656 116.565L166.445 116.592L163.964 114.081L161.642 114.001L158.446 110.582L154.417 110.475L151.955 107.589L151.578 106.252L146.675 107.776L143.876 107.562L138.934 108.444L134.904 106.439L132.105 106.547L130.121 107.696L127.659 111.891L123.669 112.746L121.903 114.695L120.891 113.333L116.424 109.994L115.928 107.509L118.31 98.955L115.988 93.821L114.916 85.448L112.891 83.013L111.72 79.399L111.839 77.793L113.467 74.313L113.566 71.742L111.085 67.912L109.814 62.367L110.271 59.794L113.109 52.985L113.625 53.093L114.737 51.591L114.876 49.688L117.06 49.634L118.131 48.427L120.831 48.803L122.776 45.048L126.647 47.917L128.036 46.094L128.414 42.338L129.902 42.151L133.555 39.736L135.718 39.333L137.544 40.836L139.827 41.239L142.904 40.595L147.707 41.346L149.831 36.167L149.97 32.893L156.441 30.665L158.049 28.355L162.853 29.457L164.242 30.315L166.644 35.04L169.721 36.784Z" fill="#CCCCCC" stroke="white" stroke-width="0.5"/>
<path d="M67.1982 275.896L66.7412 275.922L66.7812 276.636L66.3242 276.028L66.0662 278.065L65.7482 274.89L64.6762 272.456L67.1982 275.896ZM60.6762 270.805L60.1912 268.884L60.3502 268.355L61.1832 268.302L60.6762 270.805ZM197.154 169.577L198.186 172.239L200.568 173.437L201.342 174.848L201.541 176.684L200.528 177.695L200.032 179.478L201.957 188.815L192.628 198.811L192.807 204.232L191.04 211.776L187.586 212.068L185.343 212.891L183.735 218.493L180.976 219.979L180.539 227.888L181.194 228.923L183.715 229.772L183.874 234.334L184.867 239.505L182.624 239.373L171.548 241.309L163.985 241.786L163.33 244.172L161.325 246.027L160.908 247.696L159.578 248.385L157.633 250.664L157.276 253.552L155.132 255.009L152.73 254.665L150.408 251.088L147.649 250.161L143.341 252.307L141.951 253.552L140.026 257.711L135.163 256.254L132.583 254.559L130.082 253.738L124.763 255.937L118.213 255.54L113.588 250.321L109.3 254.904L104.397 257.5L109.161 262.399L110.729 265.258L111.205 268.196L110.748 273.463L114.639 278.992L116.128 288.723L110.828 292.239L106.878 293.904L92.6462 297.71L88.1202 298.212L81.9272 297.657L75.2582 294.724L67.8342 292.477L66.0282 293.006L66.0482 291.685L65.4922 291.447L62.2962 291.949L59.3782 290.125L60.6882 289.279L61.7002 287.481L61.8992 284.07L63.7252 284.837L64.5792 284.044L65.9882 278.357L67.0802 279.415L67.3182 282.536L68.3902 283.065L68.2512 280.632L69.1442 277.855L68.5682 274.098L66.9012 273.78L67.0402 272.775L64.8762 271.664L64.3402 271.849L64.4792 272.643H63.5662L62.9132 273.025L61.9982 272.801L60.8472 271.002L61.7802 268.647L60.8072 267.403L63.2682 261.473L64.4392 255.752L64.3402 252.096L61.2832 244.756L61.0842 243.112L62.9102 239.745L63.9032 239.533L65.5112 240.328L67.3372 239.612L68.1312 235.342L67.7742 230.886L67.2782 228.844L66.0282 227.385L65.0552 227.173L64.4792 228.5L62.8122 227.836L54.7132 221.706L45.9992 217.804L47.3092 214.884L47.6662 212.282L46.6342 206.598L39.1312 199.689L38.6152 196.766L41.1362 195.33L44.0342 195.516L46.3372 197.935L49.1362 199.37L56.4412 205.216L59.5182 207.022H60.8282L62.3962 205.959L62.8732 204.843L61.1062 199.635L62.3562 197.429L61.5822 191.554L62.5942 190.172L64.6582 189.481L67.0002 189.933L70.4342 192.007L73.6702 192.113L74.0872 193.602L73.3922 196.181L73.9882 197.536L79.9432 198.254L86.2952 197.271L91.0392 199.477L93.1432 201.736L94.4732 204.26L95.5052 204.685L97.1722 203.596L100.288 200.115L101.678 196.713L101.718 193.603L105.529 192.566L107.454 190.04L109.261 190.067L110.412 191.715L112.596 193.177L115.296 193.337L119.981 191.396L120.775 190.359L121.092 188.577L123.732 186.875L125.32 186.689L129.151 187.859L131.95 184.774L133.518 184.482L135.106 187.142L140.525 207.901L141.557 208.405L143.423 206.519L145.269 206.147L148.028 206.678L150.231 209.095L151.7 209.44L155.67 202.692L158.608 196.314L162.975 194.001L166.052 191.076L167.461 187.646L167.441 184.933L168.295 183.098L181.197 176.606L193.564 171.921L197.154 169.577Z" fill="#CCCCCC" stroke="white" stroke-width="0.5"/>
<path d="M97.4088 9.658L97.9648 13.313L99.3938 14.307L100.366 16.725L102.252 18.633L102.669 21.588L101.935 22.287L98.0048 22.26L97.2308 24.247L98.3628 26.959L97.3308 29.107L97.3908 30.718L96.1798 31.443L96.3588 32.57L99.4158 38.206L100.389 43.384L103.367 44.94L105.868 48.802L113.113 52.985L110.275 59.794L109.818 62.367L111.089 67.912L113.57 71.742L113.471 74.313L111.843 77.793L111.724 79.399L112.895 83.012L114.919 85.447L115.991 93.82L118.313 98.954L115.931 107.508L116.427 109.993L120.893 113.332L121.905 114.694L123.672 112.744L127.662 111.889L130.123 107.694L132.108 106.545L134.907 106.438L138.936 108.442L143.879 107.56L146.678 107.774L151.581 106.251L151.958 107.587L154.419 110.473L158.448 110.58L161.644 113.999L163.966 114.079L166.447 116.59L167.658 116.564L169.008 117.606L172.144 117.259L175.122 120.864L176.253 121.505L179.111 122.306L180.997 121.692L183.796 122.039L185.225 124.735L186.614 124.495L187.448 125.936L189.215 125.963L192.887 128.579L195.547 128.446L196.023 129.3L194.197 133.836L190.763 136.958L187.071 139.012L185.9 140.266L185.682 141.679L184.193 142.932L181.97 147.598L182.863 154.421L180.819 157.325L177.325 159.829L177.94 160.389L180.064 160.229L181.989 160.975L183.716 158.178L186.594 156.366L190.981 163.452L192.132 167.926L193.362 168.538L195.307 168.432L197.153 169.577L193.56 171.92L181.193 176.605L168.291 183.097L167.437 184.932L167.457 187.645L166.048 191.075L162.973 194L158.606 196.313L155.668 202.691L151.698 209.439L150.229 209.094L148.026 206.677L145.267 206.146L143.421 206.518L141.555 208.404L140.523 207.9L135.104 187.141L133.516 184.481L131.948 184.773L129.149 187.858L125.318 186.688L123.73 186.874L121.09 188.576L120.773 190.358L119.979 191.395L115.294 193.336L112.594 193.176L110.41 191.714L109.259 190.066L107.452 190.039L105.527 192.565L101.716 193.602L101.676 196.712L100.286 200.114L97.1698 203.595L95.5028 204.684L94.4708 204.259L93.1408 201.735L91.0368 199.476L86.2928 197.27L79.9408 198.253L73.9858 197.535L73.3898 196.18L74.0848 193.601L73.6678 192.112L70.4318 192.006L66.9978 189.932L64.6558 189.48L62.5918 190.171L61.5798 191.553L62.3538 197.428L61.1038 199.634L62.8708 204.842L62.3938 205.958L60.8258 207.021H59.5158L56.4388 205.215L49.1338 199.369L46.3348 197.934L44.0318 195.515L41.1338 195.329L38.6128 196.765L39.1288 199.688L46.6318 206.597L47.6638 212.281L47.3068 214.883L45.9968 217.803L37.5408 215.201L30.8918 214.219L28.3908 214.777L25.2348 218.335L23.2298 217.247L22.0788 217.38L22.9118 214.193L23.0708 210.475L24.1428 208.191L21.8598 207.341L20.9668 204.791L17.1748 203.542L16.4818 202L17.2558 200.778L20.8878 199.848L22.2968 198.174L21.7808 196.526L18.1688 193.495L18.1888 189.374L19.6978 188.363L24.5408 187.911L25.5528 186.847L23.2898 184.294L24.3218 180.809L23.7858 178.095L22.3958 175.94L21.8998 167.208L23.4278 163.826L23.9438 157.779L28.1918 149.811L4.21484 129.514L17.7128 113.36L19.2808 109.085L24.2828 102.858L24.8188 98.875L32.2628 90.264L31.1908 88.07L30.6548 84.03L32.4408 82.692L32.3418 79.909L33.1358 78.303L35.5378 75.519L36.7688 74.876L39.1898 74.742L42.2468 72.707L45.2048 67.645L45.8198 64.912L46.9908 64.564L47.4678 62.233L48.7978 60.545L51.4578 59.393L51.9938 56.954L53.6008 55.667L55.3078 52.852L55.7048 50.894L57.6098 47.408L59.5548 45.155L60.4088 40.219L68.2688 35.711L68.5268 34.235L70.9678 32.758L70.4318 28.543L69.6978 27.389L70.0348 23.361L79.7018 10.061L80.6348 9.147L82.9178 9.738L83.9108 9.442L87.3648 5.437L87.3248 3.904L88.3968 2.559L92.0298 1L93.8558 1.86L95.7418 5.947L98.6398 7.103L98.7188 8.124L97.4088 9.658Z" fill="#CCCCCC" stroke="white" stroke-width="0.5"/>
<path d="M129.863 306.163L134.111 306.638L142.389 313.027L146.676 319.098L149.693 327.382L151.757 328.859L155.549 329.492L158.387 331.417L161.285 335.214L161.98 339.353L162.417 339.406L167.28 332.709L169.88 332.235L171.647 333.606L177.721 342.964L180.003 345.493L181.85 345.915L184.787 344.966L187.566 345.52L189.035 346.89L189.551 349.945L189.531 351.21L188.36 351.947L178.713 355.582L175.041 358.109L173.969 360.637L175.081 364.638L174.605 366.638L171.349 368.322L165.196 373.005L163.528 373.426L160.789 372.689L156.105 369.743L153.127 370.585L150.805 373.189L144.929 384.628L137.665 389.596L134.25 393.012L129.486 395.035L127.501 396.506L124.405 396.927L122.896 399.605L120.376 400.814L118.906 404.727L116.267 404.359L114.282 405.777L112.555 407.956L111.642 408.219L109.895 407.536L105.389 409.558L103.603 408.849L101.499 406.617L99.3546 406.88L97.6276 408.508L96.7536 412.996L90.2436 418.296L88.1786 424.539L84.6056 425.93L82.4026 428.054L79.0676 424.775L76.5866 425.195L75.2766 426.899L74.6416 426.191L74.3436 424.303L72.1606 425.903L71.8626 425.457L72.7556 423.805L71.7636 423.517L70.4136 425.457L69.5796 425.641L67.7336 423.543L66.4436 424.592L64.7366 424.225L63.8626 424.67L63.2676 426.979L59.7146 427.293L59.4366 428.499L59.9326 430.491L59.4366 431.095L57.7296 430.99L56.8756 430.203L54.2166 430.282L52.0326 429.233L51.1996 429.469L50.0276 431.121L48.6186 429.207L48.7776 432.379L47.8046 433.532L47.1696 433.113L45.3826 428.84L43.8146 428.236L42.5046 429.601L41.9096 428.866L40.7776 429.495L41.4136 431.147L42.7036 431.881L42.5446 432.772L41.7306 432.852L40.8176 431.278L40.0436 431.383L40.3616 433.113L39.2296 433.664L38.3366 435.132L38.7536 438.041L39.8846 438.984L39.9446 440.504L37.3436 440.714L35.1606 441.762L35.5376 435.63L38.3366 426.008L39.1106 419.556L38.6346 411.657L35.1406 403.099L39.3686 402.573L41.7506 399.737L42.3066 395.088L43.5176 392.408L44.0536 389.228L48.9566 383.603L50.8616 378.896L51.6356 374.873L51.2986 371.848L56.6576 372.9L63.6646 371.532L65.8086 372.716L67.4956 374.768L69.7976 369.611L75.4756 362.506L75.5946 361.084L74.0456 354.212L74.1056 351.342L75.2766 348.392V346.705L71.5446 340.223L72.1606 334.713L71.0886 327.699L72.4976 325.377L74.1256 325.879L77.0236 324.059L78.2346 324.349L79.6046 325.8L80.3976 325.747L82.0056 324.059L84.3876 323.795L83.9316 320.893L86.7296 319.441L87.2266 331.365L91.2156 334.344L96.4366 333.975L100.188 331.839L102.769 328.517L107.87 324.745L114.301 323.821L116.902 321.842L118.748 323.425L120.276 323.083L122.896 319.125L125.457 316.617L128.037 311.76L129.685 310.018L129.863 306.163Z" fill="#CCCCCC" stroke="white" stroke-width="0.5"/>
<path d="M4.334 571.356L6.141 572.058L6.816 573.852L5.347 578.973L4.057 578.557L2.965 574.658L1.694 573.566L1 571.303L1.397 568.755L2.489 568.599L4.334 571.356ZM10.012 532.802L12.731 533.453L16.006 530.039L19.003 529.335L26.387 531.812L27.3 532.541L28.55 535.72L31.408 536.919L32.162 536.398L31.646 535.095L32.42 533.818L34.147 533.74L38.335 531.343L39.089 532.047L38.057 535.018L39.387 537.128L41.292 536.711L42.483 537.988L45.679 538.874L43.912 540.906L44.012 542.833L44.925 543.067L45.798 542L47.128 543.276L50.462 542.807L51.236 543.979L50.839 544.968L51.196 545.619L53.538 545.124L55.305 546.244L55.146 550.15L56.178 551.868L58.163 551.113L60.108 549.134L62.629 550.436L62.569 551.321L61.021 551.738L60.842 552.441L61.339 553.482L62.51 553.352L62.173 555.642L62.788 557.047L64.614 557.464L65.249 555.981H65.864L66.837 556.657L67.631 558.584L68.485 558.948L70.45 556.761L72.177 556.865L77.536 559.571L78.766 561.419L81.247 563.11L84.939 564.541L85.872 565.503L89.186 565.634L91.35 565.087L93.574 565.634L93.653 567.324L90.556 572.369V573.773L91.806 574.865L94.923 573.487L96.967 573.747L96.729 575.749L97.305 578.53L96.114 580.506L95.281 585.34L96.472 585.417L98.219 587.158L100.045 587.521L100.362 589.885L101.772 590.691L103.876 593.547L105.96 598.039L107.35 598.403L109.394 601.155L98.834 611.25L98.04 612.937L108.243 624.244L109.474 628.081L112.292 629.195L110.466 631.734L110.446 632.564L112.709 636.787L113.186 641.709L118.188 649.657L121.622 660.811L126.723 663.863L130.772 667.743L135.477 676.481L138.911 685.241L140.082 685.991L141.233 685.784L145.937 682.09L152.091 686.197L153.341 686.068L154.154 684.466L154.928 684.207L159.453 688.057L162.272 692.163L167.334 696.888L168.525 700.322L170.589 701.767L174.103 705.948L175.75 707.213L180.494 709.122L184.98 714.022L192.443 716.343L192.622 717.761L191.669 721.036L192.086 725.108L197.148 730.855L200.304 737.836L201.217 742.189L204.731 743.502L207.252 749.011L206.597 750.401L204.275 752.126L207.788 757.864L207.014 759.896L204.81 762.289L205.564 763.961L207.311 765.632L207.688 767.381L210.526 769.412L210.744 771.263L208.839 772.214L206.219 775.195L203.063 776.198L201.574 779.23L199.807 780.232L199.47 786.475L197.187 785.216L195.718 783.34L193.654 782.749L192.721 783.007L192.781 784.651L190.36 787.785L192.265 791.483L191.253 792.664L184.683 792.998L177.756 790.636L172.535 790.431L169.776 788.531L169.101 787.452L166.818 786.296L165.051 783.573L162.193 783.83L159.95 781.672L156.158 780.619L154.431 781.081L153.141 778.795L151.891 780.156L150.303 780.131L149.012 781.133L147.861 780.619L147.226 782.725L146.889 781.055L145.817 780.746L146.035 781.929L143.752 781.8L143.275 779.847L144.089 779.128L144.168 778.177L143.394 778.563V777.15L144.704 773.166L145.637 772.961L146.193 771.778L146.55 768.718L145.637 767.509L147.106 765.401L146.014 764.784L146.312 765.813L145.697 766.378L144.963 766.172L145.082 767.046L144.07 766.403L144.11 767.174L142.999 767.508L144.031 768.023L144.984 767.585L144.428 768.331L142.602 767.637L141.808 765.143L143.098 762.571H143.832L143.951 761.105L145.44 761.13L146.174 761.953L146.631 761.388L146.452 759.896L147.346 760.05L147.286 758.738L148.437 758.197L147.623 755.11L145.698 754.852L146.313 754.003L145.698 753.694L147.266 753.076L148.239 751.301L148.1 750.014L148.417 749.422L149.012 749.705L149.509 748.418L148.933 743.887L151.236 741.699L150.898 737.527L149.509 734.41L147.901 734.591L147.365 735.673L144.725 734.152L144.705 735.053L143.812 735.105L142.72 734.152L143.375 733.482L141.251 733.251L139.663 731.757L138.929 731.782L138.572 729.849L137.798 729.204L138.294 728.509L134.761 728.998L133.848 726.911L133.253 727.787L132.419 726.808L130.077 727.349L129.065 725.571L129.125 724.643L130.991 725.236L130.475 723.896L132.082 721.679L133.353 720.492L134.564 720.853L135.021 720.492L134.306 719.847L134.485 716.521L130.138 710.563L129.563 707.596L128.015 706.202L127.678 704.835L126.09 703.054L125.356 700.705L119.758 692.185L117.952 690.403L114.28 688.415L110.33 688.208L109.377 689.732L107.928 688.983L107.65 689.809L106.499 689.603L105.745 688.828L105.904 687.847L107.79 687.976L107.909 687.382L106.758 686.013L105.329 685.703L105.924 685.315L105.329 684.1L103.582 683.093L102.649 683.196L102.471 686.788L101.478 685.961L100.684 681L98.56 680.562L97.111 681.13L97.766 679.89L97.091 678.856L98.143 677.719L97.528 676.374L95.801 675.547L93.994 675.909L92.188 673.66L90.243 673.428L90.223 672.626L87.385 672.601L87.683 670.92L87.226 670.377L82.284 669.523L81.331 668.903L78.989 669.135L77.6 668.204L77.084 666.704L75.536 665.229L72.36 664.04L68.489 660.884L65.79 659.927L63.09 656.926L54.317 653.691L51.339 651.594L48.898 650.792L44.293 646.728L41.573 645.77L40.62 644.138L39.33 643.335L36.472 640.875L35.975 639.969L34.725 638.492L34.169 636.549L30.457 633.104L28.591 629.32L23.787 624.343L22.279 621.984L22.438 620.247L23.609 620.143L22.557 618.794L22.319 615.656L21.585 612.724L20.533 611.349L20.732 610.701L19.322 609.767L16.226 603.617L12.693 599.697L12.673 598.918L9.557 596.114L9.835 595.491L8.406 594.322L7.85 594.089L5.825 592.687L6.282 591.751L8.287 591.673L9.379 589.751L12.197 588.141L14.261 590.116L16.186 589.518L19.66 592.479L21.883 595.414L23.65 596.4L24.047 597.672L27.163 600.892L28.989 604.188L30.041 608.704L29.306 609.016L29.862 610.184L29.266 611.663L29.782 612.545L29.405 613.323L31.807 616.306L31.985 617.136L31.37 617.576L32.184 618.51L34.586 618.588L38.874 617.084L40.799 615.605L42.347 613.4L44.371 612.18L44.609 610.338L43.636 607.873L44.093 605.797L43.398 604.266L44.609 601.748L43.537 600.009L43.338 598.53L43.894 594.298L45.661 591.934L46.415 589.857V585.778L45.324 584.894L44.808 585.492L44.093 585.284L43.954 584.583L39.964 582.322L33.076 573.146L30.436 571.793L29.007 572.365L28.272 571.481L25.355 566.618L25.831 565.083L23.767 563.626L23.35 561.883L24.144 561.858L24.581 560.712L23.132 555.378L23.628 554.831L22.774 553.685L22.992 554.752L22.615 554.361L15.786 539.726L10.012 532.802Z" fill="#CCCCCC" stroke="white" stroke-width="0.5"/>
</svg>
