<svg width="461" height="614" viewBox="0 0 461 614" fill="none" xmlns="http://www.w3.org/2000/svg">
<path d="M221.12 47.1396L221.62 46.1896L227.2 46.4296L226.77 48.8096L224.63 49.5196L227.42 49.7596L227.21 48.8096L228.28 47.3796L228.07 46.4296L230 46.1896L230.86 47.1396L232.79 47.3796H233.22L233.01 46.6696L233.44 46.4296H234.51L235.15 47.3796L234.72 48.3296L235.15 48.8096L236.01 48.3296L235.8 47.1396H236.23L236.66 48.0896L236.45 49.0396H236.02L236.24 50.2296L237.53 51.4196V51.8996L236.03 51.4196V52.3696L237.75 52.8496L238.39 52.3696L239.89 52.6096L240.32 54.9896L242.25 55.2296V54.5196L241.39 54.0497L242.46 53.8096L243.52 54.2796L243.11 53.5696L244.4 53.0996L243.97 52.6196L244.4 51.9096L245.69 52.1496L246.55 51.4396L246.76 52.1496H249.33L249.54 53.5796L250.61 53.8196V55.0096H249.75V56.1696L251.03 55.4597L251.25 54.5096L252.11 54.2696H252.54V54.9796L251.25 55.4496H251.89L252.11 56.1596H252.97L252.76 55.6796L254.05 55.9196L255.12 55.2097L254.48 54.4996L255.76 53.0696L255.12 50.9296L255.98 51.4096V50.9296L256.84 51.1696L258.55 50.4597L260.48 48.7997L259.84 47.6096L261.55 47.8496L261.77 47.1396L263.27 47.3796L263.7 46.4296H264.34L264.13 45.4796L263.27 45.2396L264.34 43.8096H265.2L266.06 45.9496L266.92 46.1896L267.78 44.2896L268.85 43.0996H269.71L270.14 41.9096H272.28L272.71 40.9597L275.93 40.2496L277.86 38.8196L280.86 34.2997L282.58 27.6396H283.44L283.66 28.3496L281.94 32.8696L281.73 35.4896L280.44 37.8696L280.87 39.5396L284.95 41.1996H286.45L286.88 42.1496L286.45 43.0996H287.31L287.1 44.7596L287.74 44.9996L286.67 47.1396L287.53 49.9896L287.1 51.6496L287.96 53.0796L286.46 54.0296V55.6896L285.18 57.8296V59.0196L285.83 59.9697H286.69L288.41 58.7796L290.98 59.0196L291.19 60.4496L291.62 60.2096L291.41 58.5497L294.2 59.2596V60.6897L295.06 61.1696L295.71 63.5497H296.35L296.56 61.8896H296.99L296.78 59.9896L299.14 59.7496L298.92 61.1796H298.28L298.07 61.8896L298.28 62.8396L299.35 63.0797L298.92 64.0296H300.21L300.85 62.8396L304.28 63.5497L305.14 69.7297L303 72.3397L300.64 73.7697L299.14 75.9097L302.57 78.0497L304.28 79.9497L299.14 77.5696L298.07 77.8096L297.21 77.3397V76.3896H296.57L296.36 77.3397L295.29 78.0497L292.29 76.6197L291.86 78.5197L294.01 78.7597L293.8 80.1897L292.09 80.4296L290.37 79.2396L289.08 80.1897L286.94 79.4797L287.15 80.1897L286.29 80.8997L282.86 82.3297L282.65 81.6197L281.79 81.8596L281.15 80.9097L279.86 81.1497L279.43 80.6796L279.22 78.2997H276.65L277.51 76.3997V75.9196L276.44 76.1597L277.08 74.9697L273.22 74.4996L271.93 72.5996H271.28L270.42 74.0296L269.13 73.3196L268.27 74.5097H266.98L266.77 75.4596L264.41 75.6997L264.63 76.8896H263.56V77.3697H260.13V76.1796H257.77L257.56 78.5596H259.92V79.2697L257.57 79.7496L253.28 67.2297L248.89 60.5296L245.72 58.8496L243 60.8596L238.01 62.6996L232.57 63.8697L225.31 62.6996L221.08 61.0296L220.48 58.5096L221.39 56.6696L223.51 54.6596L223.81 52.3096L221.12 47.1396ZM275.64 84.2197L276.72 84.4596L275.65 87.0696L276.3 87.3096L277.37 90.1597L278.23 90.6297L280.37 90.3896L280.8 92.5296L279.73 93.7197L280.37 96.8096L279.09 95.6197L276.09 94.6696L273.52 97.2796H270.74V92.7697L272.24 92.5296L270.95 90.3896V89.4397L272.88 86.3496L274.38 85.8697V84.4497L275.64 84.2197ZM238.12 46.6596L238.55 47.3696L241.34 47.6096L241.77 50.4597H242.84L242.41 49.5096L243.91 49.9896L244.13 52.1296L242.84 52.6096L241.98 52.1296V52.8396H240.91V51.4096L239.41 49.9796L238.77 50.2196V50.9296H238.13L237.92 49.9796H236.85L237.28 49.2696L236.85 48.3196L237.93 47.6096L237.5 46.6596H238.12ZM239.62 37.6296L240.48 39.7696L241.34 39.2997L240.91 38.3496H242.2L241.99 40.2496L240.7 41.6796L237.06 42.3896L237.27 40.9597L236.41 40.2496L237.05 39.7696V38.5796L239.62 37.6296ZM251.2 49.2796L251.41 51.8996L249.91 52.1396L249.48 50.2396L250.34 49.2896H251.2V49.2796Z" fill="#CCCCCC" stroke="white" stroke-width="0.5"/>
<path d="M436.011 576.56L436.231 576.8L436.021 577.74L434.521 577.98L433.881 577.51L434.101 576.8L436.011 576.56ZM418.861 572.54L419.291 574.2L419.721 574.67H420.361L419.931 575.15L420.361 576.33L420.791 576.09V574.91L421.861 575.38L421.431 581.06H420.361V580.83L418.431 581.07L417.571 581.54L417.361 582.01L416.501 582.25L416.281 582.72H415.851L415.641 583.19L414.781 583.43L414.571 583.9H414.141L413.921 584.37H413.491L413.281 584.84H412.851L411.561 586.02L410.911 588.15L412.201 588.86L412.851 589.81H413.281V590.52L411.781 591.23L411.571 591.7L410.711 592.17L411.351 593.12L410.061 593.83L409.421 595.25L409.851 596.2L407.281 597.38L406.211 598.8V599.98L406.851 600.93L408.141 601.17L407.711 602.12L409.851 603.3L410.711 604.48H411.781L412.421 605.19L413.281 605.43L413.501 605.9L415.001 606.37L416.071 607.55H416.721L416.931 608.02L418.861 608.73L420.791 610.62H421.651V610.86L422.941 610.63L423.801 611.57L424.231 612.52L424.001 612.97H423.571L423.361 612.26L422.501 612.03L421.641 611.32H420.781L420.351 610.61L419.281 610.14L418.851 609.43L416.921 608.72L416.061 608.25L415.851 607.78H414.781L412.641 606.6L410.501 606.36L410.071 605.89H408.141L407.281 605.18L405.561 604.95L404.701 604V603.29L404.271 602.82L403.411 602.35H401.271L401.061 600.46L399.341 600.23V599.52L398.701 599.05V598.58L398.051 598.11L397.841 597.4L398.481 591.49L399.981 591.25V589.83L399.121 589.36V587.71L399.551 587.24H400.201L400.841 585.82H401.481L402.131 585.35V584.4H402.351L402.141 582.27L402.571 581.56L403.211 581.32L403.431 579.9L404.721 578.96V578.01L404.941 577.77H407.301L407.941 577.3L408.161 576.36H409.451L409.671 575.89L410.951 575.18H411.381V576.13H411.171L411.391 576.84H412.041L412.251 576.6L412.041 575.89L413.111 575.42L413.321 574.95L413.971 575.42L415.261 575.66L415.901 574.71L416.121 573.06L418.861 572.54ZM427.221 571.12L427.431 571.36L427.221 572.78H426.361L425.291 572.07V571.13H427.221V571.12ZM427.001 559.53V559.77H427.641L427.861 560.72H428.511L428.721 561.43L429.371 561.9L429.161 562.61L428.731 562.85V563.8L427.021 564.04L426.591 563.57L427.021 563.34L427.241 562.63H426.381V563.58L425.951 564.29H424.661L424.011 563.35L423.371 563.11L423.591 562.17L424.231 561.7V561.23H425.521L425.741 559.81L427.001 559.53ZM434.081 537.3L434.721 537.77H436.861V539.19L437.721 540.61V542.03H437.081L436.651 540.84L435.791 540.37L435.361 539.66L434.291 539.43L433.861 539.9V541.32L432.791 543.69L433.011 544.87H433.871L434.091 544.4V543.93L433.451 543.69L434.101 542.04H436.031L436.251 543.22L435.611 543.93L437.111 546.53V547L433.891 546.53L434.751 548.42L435.181 548.66V549.14H437.111L437.331 549.61L437.551 548.43L438.841 548.19L439.481 546.06H440.981L441.411 545.83V545.12L442.051 545.35L442.701 544.64L444.631 545.82H445.271L445.491 546.53H447.211V546.77L448.501 546.54L448.711 545.83L450.431 546.07L450.861 545.6V546.07H451.501L451.721 548.2L452.361 548.44V549.15L454.291 549.39L454.721 550.1L455.581 550.57L456.221 552.46L456.011 553.88L452.581 557.67L453.441 558.62L454.511 559.09L454.941 560.04L454.081 561.93L452.361 561.69V562.4H450.001V562.64H449.141L448.501 563.11H447.641V563.35H447.001L446.141 563.82L445.931 564.29L445.071 564.53L444.861 565H444.001L442.721 564.06L443.151 562.41L444.441 561.94L444.661 561.7L444.441 561.23H441.871L441.651 560.99V561.47H439.291L439.081 562.18L436.931 562.65L435.001 565.01L434.141 564.78L433.931 564.31L432.641 563.6L432.431 563.13L432.651 560.06L430.941 557.93L430.301 555.09L431.161 554.86L431.381 555.81L432.241 555.58L432.461 553.45L433.961 553.22L434.391 552.04L434.821 551.81L434.181 551.1H432.891V550.15L430.531 548.5V547.79L431.821 544.95L430.751 544.48L430.111 545.66H429.251L428.391 544.72H427.961L427.321 544.01L427.531 543.77L427.321 541.88L425.821 540.46L425.611 539.75H426.471L426.691 538.81H427.551L427.981 539.75L430.341 539.99V539.75H430.991L430.781 538.57L431.211 537.86H432.711L432.931 537.39H434.081V537.3ZM422.291 530.91V531.38L423.581 531.85L423.801 533.04L424.441 533.99V535.17H425.511L425.731 535.88L425.091 536.59H424.021V536.83H421.451L420.381 538.49L420.171 538.02H419.741V537.07L418.451 536.36L418.241 534.47L418.461 534.24H420.601L421.251 533.06L421.041 531.87L421.471 530.93H422.291V530.91ZM429.791 523.82L430.221 524.06L430.441 525.01H430.011L429.801 525.72H429.371L429.161 526.19H428.731V525.48L427.661 524.06L427.881 523.83H428.951V524.07L429.791 523.82ZM417.141 519.56L417.571 520.27L418.211 520.51V521.46L417.781 521.93L416.921 521.69V521.22L416.281 520.98L416.501 519.8L417.141 519.56ZM452.521 514.12L452.951 515.07L452.521 517.67L454.021 518.14L454.881 518.62L455.101 519.09H456.811L458.101 520.27L457.891 521.22H458.531L459.601 521.93L458.741 522.88L458.101 522.64L457.671 523.12V524.54L456.811 525.49L457.031 527.86L455.741 529.04V529.52L454.241 529.99V530.23H452.951L452.741 530.94H450.381L449.521 531.65H449.091L448.881 532.36L447.591 532.83L447.161 534.02H445.871L445.231 533.31L443.731 532.6L444.591 532.13V530.47L443.941 529.76H443.511L443.301 529.05L442.231 529.29V528.82L441.581 528.35V527.88L440.941 527.17V525.28L441.161 525.52L442.021 525.28V523.86H442.451L442.241 522.68H442.881L443.101 522.45L442.891 521.74L443.321 521.27H444.181L444.401 520.56L449.761 519.85L449.981 514.17H452.521V514.12ZM440.721 508.91L440.941 509.62L440.511 510.09H439.441V510.32L438.801 510.09L439.231 509.14L440.721 508.91ZM440.301 503.47V503.71H441.801L442.661 504.18H442.231L441.801 504.89L439.871 504.65L439.441 503.71L440.301 503.47ZM435.581 478.38L435.791 480.27L433.861 480.51L433.431 480.04L433.651 479.33L434.511 479.09L434.941 478.38H435.581ZM441.371 476.49L440.941 477.44V478.39L441.161 479.1L441.801 479.34L442.021 479.81L441.381 480.29L440.951 481.24L439.231 481.95L438.591 483.37L437.951 483.84V484.31L437.311 485.02L437.961 486.21L439.461 485.97V487.15H439.031L438.601 487.86V489.28L439.241 490.22V492.59H438.811L437.951 493.77L437.091 494.01L436.661 494.49L436.871 495.2L436.661 496.15L434.941 497.1L434.511 498.05V499.47L433.871 500.89L429.801 501.36L428.521 502.07L428.311 503.02L429.171 503.26V503.97L429.811 504.44V504.92L428.531 504.21H427.891L426.821 505.87L426.601 508.47L426.171 508.71V509.42L426.811 509.89V510.6L427.451 510.84L427.881 509.89L429.601 509.66L429.391 508.72L430.251 508.01L430.471 507.06H431.331L431.551 507.53H431.981L432.621 508.24V508.72L431.761 510.37L432.191 511.32L432.621 511.56L432.841 512.51L433.911 513.46L434.981 512.75L436.701 512.99L437.341 513.47L437.131 513.71L437.351 514.42H438.641L439.281 516.08V518.68H438.151L437.721 519.39H434.721L434.511 521.52L433.231 521.28L432.801 521.99L431.081 522.22V522.46H429.791V521.99L430.651 520.81L431.941 520.34L431.511 519.63L430.011 519.16L429.581 519.63H428.931L428.501 520.34L426.571 519.87L425.711 522L424.851 521.76L424.421 523.18L422.921 523.42V523.66H421.851L421.211 523.19L421.431 522.72L421.641 522.96L422.501 522.72L422.291 520.35L421.431 520.59V520.11L420.361 518.93H418.431V518.7L417.361 518.93V517.99L416.291 517.28L415.651 517.52V518.71L414.371 519.18L413.941 518.71H413.081L412.441 518.23L410.301 517.76L409.871 516.82L409.661 517.06L406.661 516.83L406.451 517.3L404.951 517.54L404.521 518.25H404.091L403.661 518.73L403.451 519.44L403.021 519.21L401.951 519.92V522.05L403.241 523.47L403.671 523.71L404.531 523.48V523.95L405.171 524.19L405.601 524.9L406.671 524.66V524.43H409.241L409.881 523.96L411.601 524.2L412.031 523.73L413.531 523.97L413.961 522.79H415.671L416.101 524.21L416.751 523.98L416.961 523.27L417.391 523.51L417.821 523.27L420.821 523.51V524.69L420.181 525.64L418.031 526.11V525.88H416.751L416.101 524.93H415.671L414.601 525.64L414.391 526.82L413.531 527.29H411.391L410.531 527.77L409.241 530.37L409.461 533.68L408.811 533.91V534.62L409.241 535.1L410.101 534.86L411.391 536.28L411.181 537.7L411.831 538.88H412.901L413.121 538.17L413.331 538.41L414.621 538.17L415.271 538.64V539.11L414.201 538.64L413.771 540.06L413.341 540.3L413.131 542.43L413.991 542.9L414.211 543.37L413.991 543.85H413.561L413.351 543.38L412.921 543.61L412.711 545.74L413.141 545.98L413.781 545.27H414.211L414.431 545.74L414.861 545.27H417.001L417.221 544.8L418.081 544.56L418.301 547.87L420.021 549.05H420.881V550.23L420.021 551.65L419.811 554.02L420.451 554.26L421.311 553.55H421.951L423.021 555.44V556.15L422.381 555.91L421.091 558.28H420.661V557.57L419.591 556.86H416.371L415.941 557.1L415.511 557.58V559L416.151 560.42L415.721 560.66L415.511 560.19L414.651 559.72L413.581 560.9L413.151 562.55H412.721L412.081 563.26L412.511 564.92L411.651 565.87L411.871 566.58L413.581 567.05L414.011 567.53H415.301L415.521 568H415.951V569.42H415.091L413.591 571.08L411.661 571.55L411.011 572.26L410.581 573.68L409.511 574.15L409.081 575.33L407.581 576.51L407.371 577.22H403.941L403.731 576.74L402.871 576.98L402.661 575.09L403.301 574.85L403.091 573.91L403.741 573.44V572.26L403.311 571.79V571.08L403.951 569.9H403.741V568.72L402.881 568.25L402.671 567.06L402.031 566.59L401.821 565.64L401.181 565.17L402.471 564.46L402.261 563.99H401.401V563.28L401.831 563.04V562.37H402.261L402.481 561.9L403.341 561.43V559.77L403.981 558.83L404.201 555.52L403.771 555.04L403.561 553.15L402.921 552.68L402.711 551.97L402.071 551.74L402.291 551.03L401.861 550.08L401.431 549.61H400.571V549.14L399.501 548.43L399.291 547.72L398.011 547.01H397.581L397.371 547.72L395.011 547.48L395.231 545.11L396.091 544.64L396.311 543.93L395.451 542.98H394.381L394.171 541.56L392.881 542.04L391.161 543.7H390.521L390.741 542.75H391.171L392.251 541.57L393.321 541.34L393.751 540.87L394.181 539.45L395.681 539.92L396.111 538.03L396.541 538.27L397.401 538.03V537.56L396.761 537.09L395.261 537.56L395.051 536.14L396.121 535.19L396.771 530.22L398.061 530.45L398.491 529.98V529.27L397.631 527.62L397.851 527.15L396.781 525.73L396.351 525.97L396.781 527.39L396.141 527.15L395.281 525.26V524.08H395.501V522.9L397.431 521.01L397.861 519.59L398.291 519.35L398.511 516.98H398.731L398.521 513.91L399.381 513.67L400.241 512.73L400.881 511.31L401.531 510.84V510.36L403.461 508V507.53L403.891 507.3L404.101 505.64L404.531 505.17L405.821 504.94L406.041 503.99H406.681L407.111 503.28L408.401 502.81L408.831 501.63L409.261 501.39L409.481 499.5L409.911 499.26L410.771 499.73L411.411 498.07H412.061L412.701 497.36L412.491 495.94L413.561 494.52L414.211 492.63L415.071 492.39L415.721 491.44L416.581 491.68L417.011 491.21L417.221 490.26L416.361 489.79L416.151 489.32L416.371 489.08L417.441 489.32L418.091 488.37V487.43H418.731V487.19L419.591 486.95L419.811 486.48L421.101 486.24V486H422.391V486.24L424.111 486.48V486.72H426.041L426.471 486.01H426.901L427.551 487.19V488.14L428.621 489.09L429.051 488.38L430.341 488.14L430.771 487.67V486.96L430.341 486.49V485.31L429.701 485.07L429.491 484.6L429.921 483.89H431.211L432.071 482.47V481.76L434.861 481.53V481.29H435.721L436.581 480.82L437.011 478.93L439.151 478.69L439.791 477.51L439.571 476.57L441.071 476.33L441.501 474.91H442.141V476.09L441.371 476.49ZM460.021 468.91L460.451 469.38V470.33L460.021 470.8L458.521 471.04L458.091 470.33L458.521 470.09L458.741 469.14L460.021 468.91ZM431.511 456.13L431.941 456.84H432.581V457.79H434.081V457.56L434.941 457.8L434.511 459.7L434.941 459.94L435.371 461.13L433.871 462.55L433.661 463.26H431.951V463.5L430.451 463.73V463.97L428.731 464.44V464.68L427.021 464.92L426.811 465.39L426.171 465.63V466.34L424.021 466.1L423.811 464.2L423.381 463.73L423.811 462.79L422.311 462.55L420.811 460.66L421.241 459.48V458.3H422.311L423.171 457.35L424.241 457.59V456.88H425.741L425.961 457.12L425.751 458.31L426.181 457.84L429.401 457.61L429.191 456.43L431.511 456.13ZM416.931 454.71L417.581 456.13H418.651L419.081 458.02L420.361 460.15L420.581 462.28L419.291 463.7L415.221 463.47L414.791 463.95H413.721L413.511 463H410.941L410.731 461.34L409.871 460.39L410.091 459.44L413.311 457.07L415.241 456.6L416.101 455.65L416.321 454.7H416.931V454.71ZM274.451 147.54L279.561 148.85L281.921 148.63L283.881 146.89L286.441 145.37L287.821 147.76L288.611 151.9L290.971 156.25L296.081 161.69L302.901 166.77L302.261 167.6L302.051 168.55H303.551L304.841 169.97L303.121 170.45L302.691 172.59L301.411 173.06L300.771 174.25L302.061 179.24L301.851 180.19L301.211 180.9L301.851 182.09H304.211L304.851 184.46L305.281 184.94L305.071 186.36L306.571 186.6V187.55H305.931L305.721 188.26L302.931 188.5L302.501 189.21H302.071L301.641 189.69V196.34L302.501 198.95V201.56L302.071 202.51L301.211 202.27V202.98L302.281 205.35L302.921 210.1L304.641 209.63V209.37H305.711L305.921 210.08L306.141 209.61H306.571L307.221 211.03H307.651L308.081 212.45H308.721L309.151 211.98L310.011 211.75L310.441 212.7H311.081L311.731 213.89V214.84L310.011 218.88L308.301 217.93V218.17H307.871L308.091 219.83L307.661 220.78L306.161 220.31L306.371 221.26L307.231 221.5L306.581 226.96L306.151 228.15V229.57H305.931V231.95H305.721V233.85L306.581 234.32L306.801 236.22L306.161 238.59L304.011 238.83L303.801 239.3L302.731 239.78L303.371 241.2L302.731 242.39L302.081 247.37H301.871L302.081 249.98L301.651 251.17L301.441 254.02L300.581 256.87V259.48L299.721 262.09V264.46L298.861 265.88V269.2L298.221 270.15L298.011 271.34L298.871 271.82H299.731V272.06H301.231V272.53L297.161 273.48L297.801 281.78L296.301 283.44V283.92L296.731 284.39L296.941 285.81L298.661 286.05L299.091 287V287.48H298.661L298.231 288.19H297.801L297.161 288.9L298.021 289.85V290.56L297.381 291.03L297.171 291.98L298.241 292.46V293.88L297.811 294.12V294.6L296.311 295.08L295.881 296.27V301.25L296.741 302.2L297.381 302.44L297.591 303.63L296.221 304.97V305.92L295.791 306.63L296.011 309.47L294.721 312.32L294.941 314.22L293.651 316.12L292.361 320.86L291.931 321.1L292.141 321.81L293.001 322.05L293.431 322.53H294.291L294.931 324.19L294.721 328.46L293.431 328.94L293.641 331.31H293.861L293.431 338.66L293.001 337.95V335.58L292.571 334.16L291.071 334.64V335.59L290.431 336.3L290.641 337.48L291.281 337.96V338.44H291.711L291.931 339.15H292.361L292.791 340.34L292.141 340.81L291.501 342.94V345.55L290.861 346.97V350.52H290.651V354.31H290.871L291.731 359.76L290.441 364.03L290.231 365.93L289.371 367.12L290.871 369.25L291.081 370.67L292.151 372.8L292.361 374.22L292.791 374.46V375.17L291.291 375.88L287.431 380.15L286.361 383.23L285.071 384.65V385.13L284.001 386.31V386.79L283.361 387.26L282.711 389.63H282.281L281.851 390.34L281.641 390.11L280.141 390.35L279.071 391.53V392.01L278.211 392.25L278.431 392.72L278.001 393.43L278.211 394.85L277.141 394.61L276.501 395.09V395.8L274.141 396.27L273.501 397.22H273.071L272.431 398.17L271.571 398.65L270.711 401.02L269.211 401.73L268.781 402.68L267.921 403.39L267.491 404.58H267.061L266.631 405.29H266.201L265.771 406H265.341L264.481 406.95L263.831 408.61L262.971 409.56L262.761 410.51L262.331 410.75L261.261 413.83L261.051 416.67L261.691 418.57V419.75L260.831 419.28L259.761 416.91L258.901 415.96L258.691 415.01L258.261 414.78L256.121 408.38L255.691 408.14L255.261 406.96L254.401 406.01L253.971 404.59L253.541 404.35L253.331 403.4L252.901 403.16L252.041 401.27L251.831 399.37L251.401 398.66L251.191 396.76L250.121 393.21L249.911 390.37L249.481 389.19V387.77H249.271V379.01L248.841 378.54V377.83L248.201 376.88V376.17L247.771 375.7V374.99L247.131 374.04V373.33L246.701 372.86V372.15L245.841 370.25L244.551 368.59V368.11L244.121 367.88V367.41L243.481 366.94L242.621 365.04L241.331 363.38V362.91L240.691 362.44L240.261 361.26L239.611 360.79V360.31L238.971 359.84L238.541 358.65L237.901 358.18L237.471 357L236.181 355.58L235.111 353.21L234.681 352.98L233.821 350.84L232.961 349.89L231.461 346.57L230.601 345.62L230.391 344.67L229.961 344.44L229.741 343.49L228.881 342.54L228.671 341.59L228.241 341.36L228.031 340.41L227.601 340.17V339.7L226.741 338.52V335.44L225.881 333.07L223.741 330.7L223.311 329.28L222.451 328.81L222.241 329.52L223.101 330.23V330.71L222.671 330.95L222.461 330.24L221.851 330.21L221.821 330.95L224.611 336.88V337.83H224.181L223.321 336.88V336.41L222.671 335.94V335.47L222.031 334.99V334.52L221.391 334.05V333.58L220.741 333.1V332.47L213.241 324.41V323.94L211.961 322.76V322.29L210.461 320.87V320.4L209.391 319.21L208.101 318.74L207.881 317.79L207.241 317.08L206.811 316.61H206.171L204.881 315.19V314.72L203.811 313.77L204.021 313.29L203.811 312.58L202.521 312.11L201.881 310.93H201.241L200.811 310.22L199.951 309.99L199.521 309.51H198.881L198.241 308.8L196.921 308.56L196.311 307.85H195.881L195.671 308.33L193.961 307.86V307.15L192.891 306.91L192.031 305.72L191.171 305.49L190.741 304.97L190.311 305.21L190.091 304.74L189.671 304.97L188.171 303.55H187.741L187.521 302.84L186.451 301.89V301.42L185.381 300.47V300L184.311 299.05V298.58L183.241 297.4L183.031 295.74L182.171 294.79H181.741L181.311 293.84L180.671 293.37L178.311 288.15L177.881 287.92L176.811 285.55L177.031 283.18L175.961 282.23L175.531 280.1V278.91L175.961 278.44L176.181 273.22L175.541 271.8L174.681 265.87L173.611 265.16L173.391 264.45L174.041 263.98L174.681 264.93L175.751 264.69L178.541 256.63L182.191 253.07L182.831 251.41H183.261L184.981 249.51L185.621 247.61H186.051L186.261 246.9L187.981 245L188.411 239.78H188.621L187.981 233.85L188.621 231.95L188.191 231.47H187.761V230.76L188.401 231L188.611 229.81L189.251 229.57L188.391 229.1V228.39H190.321L190.541 227.2L191.611 226.49L192.681 221.74L193.111 221.51L193.321 220.56L194.181 220.09L194.611 219.14L195.041 218.9V218.43L195.471 218.2V217.72L195.901 217.48L196.761 215.11L197.191 214.87L198.261 212.5L197.831 211.55L198.261 209.18L196.761 207.62L207.381 203.71L216.551 201.68L225.711 200.52L230.161 197.91V191.24L228.071 183.41L227.021 172.39L226.761 161.37L225.451 152.67L223.351 148.32L221.001 146L220.211 143.97L223.091 139.33L224.661 137.59V130.2L233.791 133.02L242.631 136.28L253.041 140.85L274.451 147.54Z" fill="#CCCCCC" stroke="white" stroke-width="0.5"/>
<path d="M321.52 8.79L322.38 9.57L325.81 10.52L330.1 10.76L330.96 11.95L332.04 12.19V13.38L330.75 14.81L329.25 14.57L331.18 16.24V19.09L329.47 22.89L330.33 28.6L329.9 29.31H328.4L329.04 30.5L330.54 30.02L331.4 36.2H334.19L334.62 37.63L333.12 39.06H331.4L331.62 46.67L333.12 46.43L334.19 47.14V48.09L332.69 48.33L331.62 47.62L331.19 52.85H330.55L329.48 51.42L327.55 51.66L329.27 50L329.7 48.33L328.41 48.81L328.2 50H327.34V47.85L326.05 47.14L327.12 45L324.76 44.76L323.9 42.86L324.33 42.38L324.98 44.04H326.69L326.9 36.91H325.61L326.25 38.81V39.29H325.61L326.04 42.14L323.89 41.66L324.32 40.47L323.46 39.76V39.29H324.1L323.67 38.34L321.95 37.87L321.52 38.58H320.66V36.68L316.59 36.92L316.16 38.11L313.8 39.06L314.23 40.49L317.45 38.59H318.52V39.07L315.52 41.92H314.88L315.31 42.4V44.78L315.1 45.26H313.81L313.17 39.79L311.24 40.03L310.81 39.56L311.24 37.18L309.31 37.66L307.17 31.72L307.6 30.77L308.67 30.53V29.82H307.6L307.38 30.53L306.52 30.05V29.34H305.45L306.1 27.91L304.17 29.57L303.95 32.66L303.09 34.09V38.13L302.02 40.03H301.16L300.52 41.46L296.02 41.93L295.6 40.27L293.03 39.08L291.74 36.23H290.88L289.59 35.28V33.38L290.23 32.43L289.15 22.41L289.58 21.22L288.51 19.32L289.15 18.84L290.44 15.51H289.37L289.16 14.8V10.52L287.23 10.28L287.87 8.85H290.02L290.66 10.04H293.45L294.52 11.23L295.81 10.04L295.17 8.61L296.24 7.9L297.53 5.76H298.6V6.24L297.31 8.14L298.81 7.9L299.88 7.19L299.02 5.53L301.16 4.34L303.31 4.82L303.74 3.39L303.09 2.44H306.52V1.48L308.66 1L309.95 2.19L313.81 1.95V3.38L317.24 7.19L319.17 7.67L320.03 8.62L321.52 8.79ZM335.24 49.99L335.45 51.42H336.95L337.16 52.37H338.45L338.67 53.08L337.6 53.79L337.82 54.27L352.18 54.75V63.31L347.68 63.79L347.47 73.06H349.83L353.91 82.09L355.2 82.8L355.42 85.42H354.13L353.06 82.33L352.42 82.09L352.63 82.8L345.99 85.65L345.35 86.36L344.92 88.5L346.42 89.21L346.85 91.11L348.14 91.58L348.36 93.01H340.64L340.21 92.53L340.42 90.87L339.78 90.16H337.64L338.07 88.97L336.57 87.55L335.93 85.18L335.29 84.7L335.5 82.56L334.86 81.85H335.51V81.38L333.79 74.49L331.65 72.35L330.36 72.11L330.15 68.78L328.65 67.35L328.01 64.74L326.08 63.08L326.29 60.7L328.01 60.46L329.3 61.41V58.56L327.58 58.32L327.15 57.37L327.37 55.47L330.58 55.95L331.44 53.57L332.51 52.86L332.08 50.72H333.15V50.01H335.24V49.99Z" fill="#CCCCCC" stroke="white" stroke-width="0.5"/>
<path d="M321.951 118.9L322.591 121.75L323.661 121.99L325.371 124.84V126.03L323.231 126.74L322.161 127.93L319.161 129.36L317.661 129.12L316.591 126.51L314.661 126.99L314.441 127.7L313.161 127.94L312.301 128.89H311.011V128.42L309.301 128.66L310.161 131.51L309.951 133.17L311.451 133.88L312.741 135.31V136.26L311.241 136.5L311.451 138.88L310.591 139.36V140.07L311.021 139.59L312.311 139.83L312.531 140.78L312.101 141.02H313.601L315.751 146.01L315.321 146.48L317.251 150.04L316.391 151.23L314.461 151L314.681 152.9L315.971 152.66L315.761 154.8H314.691L314.911 155.27L312.771 154.08V153.37H313.201L312.771 152.18L310.841 152.42L310.411 151.47L310.841 149.81L309.771 149.57L309.121 146.01L304.621 136.27H303.971L303.111 134.61L301.821 135.32L302.471 133.89L300.331 128.19L299.261 127L298.191 127.24L297.331 128.19L298.191 128.9L300.761 134.36L301.191 137.45L302.901 141.01L304.621 144.33L307.841 147.18L308.701 149.08L308.271 150.5L308.911 150.74L309.121 152.17H309.551L309.331 153.36L307.621 153.6L307.401 154.55L307.191 154.07L305.691 154.55L305.481 155.74L302.271 158.35L301.841 159.77H303.341L302.911 160.96L300.771 161.44V163.58L301.821 166L296.101 161.71L290.991 156.27L288.641 151.92L287.851 147.79L286.481 145.4L281.961 148.66L279.611 148.88L253.091 140.83L242.681 136.26L224.711 130.18L222.881 123.06L220.001 116.97L218.431 110.59L217.641 101.88V94.6203L219.471 91.4303L222.351 90.2703L226.541 89.6903L237.281 84.4703L253.261 83.0203L258.531 82.0703L258.791 82.6503L260.041 82.9203V84.0303L258.971 84.2703L258.331 82.6103H257.471V83.0803H258.111L257.691 84.9803L258.981 85.4603L258.121 86.4103L258.341 87.1203L260.911 87.8303L259.201 89.7303L260.061 90.6803L260.281 92.3503L261.561 92.5903L261.351 95.2003L263.491 97.1003H264.781L265.641 99.2403L266.931 100.43H268.431L268.221 101.38L269.291 103.76H270.361L270.151 105.19L271.221 104.71L271.651 106.61L275.081 107.09L275.941 108.99L278.081 110.66H279.371V111.61L280.661 111.85L282.591 114.46L281.941 114.94L283.441 117.55V118.74H284.731L284.951 119.69L285.771 119.93L285.831 120.4H285.161L285.371 121.59L290.521 121.35L293.521 120.4L293.731 120.88L295.661 121.12L295.441 121.83L296.731 122.54L297.161 123.73L298.881 123.25L299.521 124.91H302.091V124.44L299.951 123.73L298.881 120.64L294.381 118.5L293.311 116.36L290.311 115.41L290.951 111.13L289.451 110.89L288.591 106.38L286.871 104.24V103.76L288.161 103.52L289.021 102.1L288.381 100.44L286.881 101.15L285.591 99.2503L286.451 98.5403L287.101 96.6403H287.961L288.611 94.7403L289.891 93.7903H290.971L291.401 92.1303L293.121 91.1803L294.831 88.5703L296.551 88.3303L297.621 87.3803L300.411 88.0903H306.201L305.981 90.2303H306.841L307.061 91.1803L305.341 94.2703L303.841 95.2203L303.411 96.1703L305.341 96.4103L305.131 97.6003H305.771L305.561 98.7903H306.211L306.421 100.69L308.781 103.07L309.001 107.35L308.361 107.59V106.4H307.291L307.931 107.83L307.291 109.26L307.931 109.02V109.5L306.861 110.69L305.571 110.45L305.361 110.93L306.861 115.68L307.721 123.52L309.221 123.99L309.431 125.18L312.431 124.7L313.071 127.55L316.291 126.12L315.861 124.93L320.581 122.56L320.151 121.61L320.581 117.57L329.161 112.82L334.311 110.68L336.031 109.02H337.101L337.741 107.83L337.311 105.69H337.961L340.321 108.54L340.531 109.97H339.251L337.961 108.78L335.811 112.11L333.671 112.82L334.961 114.72L335.611 114.96L335.821 114.48L337.971 114.01L339.041 112.11H340.971L341.831 110.69H342.481L344.191 112.83L343.981 113.78L342.481 113.3L342.691 114.01H344.831L346.121 115.43V116.14L345.051 115.9L344.621 115.19H343.121L340.551 115.43L338.411 116.62L333.911 116.38L332.841 117.09L327.911 116.14L321.951 118.9ZM301.771 165.97L302.871 166.76L303.081 165.69L301.771 165.97Z" fill="#CCCCCC" stroke="white" stroke-width="0.5"/>
<path d="M259.99 82.8702L258.74 82.6002L258.48 82.0202L253.21 82.9702L237.23 84.4202L226.49 89.6502L222.3 90.2302L219.42 91.3902L217.59 94.5802V101.84L218.38 110.55L219.95 116.93L222.83 123.03L224.66 130.15V137.54L220.21 143.92L221 145.95L223.36 148.27L225.46 152.62L226.77 161.32L227.03 172.34L228.08 183.36L230.17 191.19V197.86L225.72 200.47L216.56 201.63L207.39 203.66L196.77 207.57L195.48 205.81L196.12 204.15L196.77 197.74L195.05 195.6V194.89L194.41 194.66L194.84 184.93L193.13 184.69V183.98H192.7V183.51L195.27 183.75L195.91 183.04V182.33H195.48L195.69 179.72L194.62 179.24L194.41 178.05L192.91 178.29V177.58L193.98 177.34V176.87L192.91 176.64L194.2 176.4L193.55 171.41L192.91 170.46L193.55 168.56L192.48 165.23L192.91 164.28H191.84L190.77 162.86L190.98 161.67H189.48V161.19L190.98 160.72V160.24L190.12 160V159.05L189.05 159.29V160H188.19L187.33 158.81L186.9 157.86L187.97 157.62V156.91L187.54 156.43L186.25 156.67L187.11 155.96V155.25L185.18 155.96L183.68 154.77L183.47 154.06L184.33 153.59V152.88H183.47L184.11 151.93L183.25 151.45L183.89 151.22V150.51L181.75 150.75L181.96 148.38L183.03 148.86L183.68 148.38V147.19L182.18 147.43L181.32 146.72L179.82 142.92L177.68 139.59L176.61 136.74L176.82 135.79L177.68 135.55V134.36H176.39L175.96 133.17H174.25L174.89 132.46V131.27L174.25 131.03L171.46 131.74L170.6 132.69H169.31L168.88 131.74L168.67 129.37H169.74L171.24 127.94L173.6 127.7L173.38 124.14L172.31 122.72L171.45 120.11L171.66 118.45L170.8 116.79L171.01 114.18L169.72 112.28L169.94 111.09L169.3 111.33L168.87 109.43L169.3 104.92L171.66 103.02L170.59 101.6L164.59 102.08L148.08 104.93L148.51 109.68L147.01 113.48L147.44 116.57L146.8 117.52V119.66L145.51 122.27V124.17L145.73 125.6H146.8L147.23 127.02V127.5L145.94 127.97L146.8 131.77L148.3 131.53V133.43H150.23L151.3 135.57L149.8 138.42V141.27L150.44 143.17L150.01 145.07H148.51L144.87 142.7L141.65 141.99H141.22V142.7H141.65L141.44 144.12L140.37 144.36L139.94 142.46L140.58 141.75H137.8L133.72 142.94L132.22 144.6L129 144.36L127.71 143.65L125.14 143.89V143.41H124.28L123.64 142.7L120.64 141.99V140.09L121.71 138.9V134.86L118.71 133.67V127.97L119.57 127.26L116.14 124.65V121.8L115.5 119.66L116.36 119.18V118.47L115.71 117.76L115.5 114.91H116.14L115.71 113.49L117.64 111.59L118.28 107.31H118.71L119.14 106.12V103.27H121.29L120.22 107.31L121.51 108.02L123.23 105.64H124.95L125.38 103.74H126.24L127.96 105.17L127.75 102.8H129.47L129.69 102.09L125.19 100.19L124.55 99.2402L120.26 96.6302L111.47 94.0202L81.67 92.3602L79.96 92.6002L78.89 94.0302H78.25L76.54 93.7902L76.11 92.3702L73.97 91.6602H73.32L73.11 92.8502H71.97V92.3802H70.9L68.97 91.1902L68.76 90.0002L67.26 87.8602L64.9 86.4402L27.16 65.9102L8.51 60.6902L4.87 59.9802H1.22L1 59.0302H5.08L8.73 59.7402L27.38 64.9702L67.05 86.8302H68.76L68.97 87.5402H69.62L71.12 86.5902H72.41L73.48 87.3002L74.77 89.6802L80.13 88.9702L80.99 89.4502L81.85 91.5902L109.51 92.7802L114.23 93.4902L120.45 95.6302L126.67 99.9102L133.53 102.52L135.89 102.28L136.53 101.57L136.32 100.38L136.96 99.9002L137.61 95.3802L136.96 86.3502L136.53 85.8702L136.96 85.1602L135.89 83.7302L135.46 84.6802H134.82L134.39 83.7302L135.03 83.2602L133.74 83.0202L132.24 83.5002L131.81 82.3102H131.38L131.17 80.4102L131.38 79.9302L134.38 80.1702L135.02 80.8802L136.74 81.1202L138.88 82.3102L141.67 81.8302L141.03 82.7802L141.89 83.0202L141.25 83.5002L141.47 83.9802L142.54 84.2202L142.33 85.1702L141.68 85.4102L141.04 84.2202H139.75L138.46 85.1702L138.68 85.8802L137.61 86.3602V90.8702L138.25 94.4402L137.61 100.86L139.97 99.9102L142.76 100.15L142.98 99.6702L147.27 100.15L148.13 104.19H148.56L164.21 101.58L163.78 100.87L161.21 101.11L161.85 100.16L164.21 100.63V99.9202H165.5L165.72 101.35L168.72 101.11L169.15 99.9202L170.22 99.4402L170.86 96.8302H171.93L172.79 95.6402L174.72 91.8402V89.2302H175.15V87.7802L173.65 87.3102L173.22 85.1702H173.65L173.43 82.3202L174.93 81.3702L174.72 80.1802L175.36 78.2802L174.93 76.3802L174.07 75.6702L173.42 73.7702L172.13 73.5302L170.85 74.7202L170.42 73.0502L169.13 71.6302L169.56 71.1502L169.13 69.0102H167.63L167.2 67.8202L167.63 66.6302L169.35 66.8702V67.8202H169.99L170.21 66.6302H168.71L168.07 65.6802V64.0102H168.5L169.14 61.4002L171.5 61.6402L170.86 59.7402L172.14 60.4502L173.64 60.2102L174.07 59.2602L175.57 59.7402L175.78 59.0302L174.49 57.8402L177.06 58.0802L179.63 56.1802V55.2302H178.99V53.0902L180.28 52.8502L180.07 50.4702H180.93L181.57 52.1302H182L184.15 50.4702L185.44 50.2302L185.65 48.3302H186.94L187.16 47.6202H187.8L187.58 49.0502H189.3L189.73 48.1002L191.66 47.6202H195.31V48.3302L196.6 48.8102L198.1 47.3802V46.6702L202.82 47.1502L207.75 46.6702L208.4 46.2002H213.54L214.18 45.4902L214.82 46.2002L217.83 46.6702L219.76 46.2002L221.19 47.1502L223.73 52.2702L223.43 54.6202L221.31 56.6302L220.4 58.4802L221 61.0002L225.23 62.6802L232.49 63.8502L237.93 62.6802L242.92 60.8402L245.64 58.8302L248.81 60.5102L253.2 67.2202L257.49 79.7402L257.26 80.4502L257.91 80.6602L259.84 80.2102L259.99 82.8702ZM160.73 74.0002L161.16 74.2402L161.38 77.0902H162.02L162.45 78.2802L161.59 79.7102L160.09 79.0002L160.73 77.5802L160.09 77.3402L160.3 76.1502L159.44 74.7302L159.87 74.0202H160.73V74.0002ZM64.03 94.4302L65.1 95.6202L66.6 96.1002L63.82 98.4802H62.75L63.82 95.6302L63.39 94.4402H64.03V94.4302Z" fill="#CCCCCC" stroke="white" stroke-width="0.5"/>
</svg>
