<svg width="614" height="644" viewBox="0 0 614 644" fill="none" xmlns="http://www.w3.org/2000/svg">
<path d="M392.423 84.37L392.712 87.16L390.622 89.51L390.812 91.81L391.703 93.83L394.992 97.53L396.092 99.55L395.753 100.7L397.872 103.06L397.733 104.26L400.703 111.54L400.793 113.66L402.233 114.91L402.763 118.72L404.113 122.02L405.302 123.12L406.693 123.38L409.233 125.01L413.103 124.41L415.863 126.92L414.163 129.91L415.932 131.17L418.393 130.9L420.082 134.62L421.423 136.14L425.423 136.86L430.432 139.59L433.543 145.6L435.353 145.22L438.703 146.1L440.143 149.49L442.783 149.19L445.113 149.81L446.022 151.06L445.723 151.77L446.122 152.14L448.893 152.39L451.402 153.28L452.742 153.14L456.543 154.76L462.312 154.93L464.293 156.14L465.263 158.46L466.323 159.35L471.823 159.39L473.853 162.91L474.492 163.23L475.763 167.94L477.022 169L478.113 174.13L478.022 182.4L477.263 187.85L477.633 189.61L477.283 191.61L478.552 195.97L477.302 197.97L476.073 198.96L475.783 200.93L473.513 202.51L472.962 203.38L473.033 206.74L472.402 207.99L472.223 210.52L472.983 212.67L477.393 215.43L479.353 218.79L479.823 220.74L480.883 222L480.953 224.69L481.842 226.2L481.283 230.15L481.663 234.27L483.552 236.24L484.043 238.63L483.783 240.18L484.913 243.93L484.693 245.06L485.733 247.91L487.363 249.17L488.033 250.93L491.503 255.7L493.342 255.9L495.242 256.85L496.152 256.3L498.603 259.18L500.133 260.05L506.212 261.08L507.483 261.72L511.242 260.55L514.152 260.77L514.603 259.8L516.363 260.42L519.322 260.28L520.243 261.52L520.993 261.39L522.142 262.19L524.663 261.93L526.003 263.34L531.233 263.67L537.103 265.37L542.113 264.46L545.462 264.84L547.212 265.59L547.973 265.12L550.473 267.08L553.462 267.64L556.563 269.4L558.503 268.76L559.712 267.69L560.572 267.73L561.103 266.88L561.983 266.81L563.413 267.86L566.882 268.57L568.253 270.36L574.353 272.69L575.952 274.08L578.842 274.31L580.923 275.7L585.642 276.93L589.382 276.89L590.512 277.79L593.442 278.81L594.413 280L591.973 282.96L590.822 287.87L591.353 291.23L592.973 294.19L596.353 296.98L598.973 298.03L601.563 298.2L605.632 296.87L606.683 297.85L608.152 301.15L611.223 303.83L612.973 306.41L611.202 306.95L609.942 305.89L607.113 306.18L602.473 305.35L599.243 307.64L595.642 307.66L593.913 308.19L591.572 307.84L590.262 308.82L589.012 312.32L587.762 312.82L587.123 314.25L586.832 316.02L587.572 318.8L586.103 320.96L585.543 323.11L583.923 324.89L580.642 323.96L578.293 325.13L578.243 326.65L570.243 328.71L569.322 329.78L567.712 330.18L566.952 331.06L565.132 331.9L560.202 332.25L557.543 333.85L553.392 332.71L546.652 333.14L545.092 334.84L542.262 336.03L541.442 337.73L537.233 339.75L534.553 342.66L534.712 345.53L534.152 346.69L529.632 350.53L527.743 350.93L527.012 351.57L527.563 355.32L526.962 356.56L522.392 360.05L520.132 360.4L520.723 362.6L519.962 363.87L519.753 367.1L517.163 369.35L513.563 371.08L512.492 370.98L511.992 372.74L510.342 373.6L509.163 372.81L508.783 373.17L510.173 374.96L510.062 375.61L508.022 377.44L507.302 379.68L505.703 380L503.842 377.59L502.462 378.06L501.272 379.47L499.622 379.44L498.353 378.71L497.763 379.13L497.842 381.06L496.302 382.13L496.513 383.07L495.543 385.35L495.902 386.28L495.473 388L493.552 390.09L492.353 390.54H488.033L487.003 391.27L486.753 392.56L486.073 393.26L484.793 392.83L485.592 391.28L485.193 390.98L483.462 391.5L483.673 392.76L483.253 393.49L481.682 393.41V391.89L480.432 391.69L479.582 392.6L478.842 395.34L476.723 396.9L474.943 397.23L474.223 398.41L473.533 398.59L472.453 397.76L471.383 398.71L471.582 399.59L472.652 400.33L472.193 400.92L471.003 401.21L470.143 400.46L469.163 401.16L468.592 400.27L467.923 400.17L467.742 401.57L468.983 402.65L468.562 403.58L466.533 403.29L465.693 404.06L465.283 405.34L464.363 405.6L463.513 406.71L462.802 406.6L464.033 408.98L462.693 410.7L460.832 411.4L461.013 409.76L460.263 409.74L459.913 408.66L459.293 408.49L458.742 411.85L457.152 413.02L456.453 416.08L454.073 416.62L452.203 419.07L451.733 418.06L451.193 418.02L450.992 419.74L448.052 423.67L447.522 424.12L445.103 424.32L444.013 426.16L441.913 427.52L439.863 430.36L395.603 403.67L394.383 402.51L384.193 388.14L375.992 385.52L356.413 358.91L325.193 317.53L254.743 222.26L254.312 179.07L254.622 173.68L256.913 175.31L259.163 175.25L260.473 174.16L261.943 174.41L262.432 173.93L262.203 172.06L263.203 171.64L264.253 170.31L266.503 169.79L267.932 168.34L270.103 168.31L272.552 166.92L274.163 168.15L275.423 168.34L275.712 169.96L276.473 170.63L278.342 169.63L279.453 169.58L280.413 171L279.742 172.71L280.703 174.62L284.013 176.01L284.413 177.53L286.573 180.14L289.163 181.38L292.473 179.97L297.173 180.43L338.393 177.08L338.992 158.17L327.242 153.22L327.283 152.85L327.242 141.43L327.263 112.05V91.24L327.033 84.54L335.562 84.52H347.913L392.423 84.37Z" fill="#CCCCCC" stroke="white" stroke-width="0.5"/>
<path d="M66.19 222.27L87.95 222.45L99.52 222.58L146.77 222.8L152.55 222.76H168.94L181.47 222.8L216.2 222.6H223.91L254.74 222.26L325.19 317.53L356.41 358.91L356.32 360.13L345.08 382.61L343.31 385.38L308.59 385.26L297.77 385.34L200.83 384.99L179.71 385.11H170.87L151.24 385.15L140.4 385.09L130.9 385.13H125.01L1 384.81V292.74L66.49 292.88L66.19 222.27Z" fill="#CCCCCC" stroke="white" stroke-width="0.5"/>
<path d="M1 384.81L125.01 385.13H130.9L140.4 385.09L151.24 385.15L170.87 385.11H179.71L200.83 384.99L200.92 385.5L200.83 392.33L194.91 392.17L194.2 392.25L194.17 392.98L194.22 403.31L200.71 403.29L200.67 433.88L200.38 494.63L267.52 494.4L277.93 505.46L278.87 542.23L288.56 552.2L294.59 552.39L295.21 558.82L293.8 559.29L291.69 558.22L291.62 558.85L290.84 558.36L290.37 559.34L289.35 559.2L288.4 560.13L288.02 559.83L287.06 560.32L285.85 559.86L283.7 558.16L283.64 556.69L282.31 556.78L281.73 557.4L280.76 557.21L281.49 556.12L281.2 555.62L280.35 556.12L279.67 555.73L278.89 554.18L277.78 553.46L277.54 551.8L276.88 551.78L275.11 550L273.98 550.71L272.87 550.61L272.8 549.27L271.85 549.58L271.8 550.51L268.22 551.52L266.79 550.57L266.45 552.32L264.69 551.32L263.24 552.12L263.13 550.11L261.99 550.2L260.59 549.62L259.59 550.15L259.21 550.95L258.4 551.08L256.53 550.34L256.25 549.06L254.96 547.99L254.56 546.95L252.35 546.44L251.71 544.58L250.24 544.49L249.96 543.62L250.84 542.6L250.14 542L248.52 542.11L247.22 541.52L246.45 540.32L246.43 539.03L244.46 537.31L243.45 538.12L242.53 537.3L241.27 537.28L240.89 536.74L241.24 535.98L240.44 535.1L240.2 535.97L238.89 536.37L238.37 534.95L237.19 534.23L237.73 533.6L237.18 532.7L235.76 533.56L235.36 532.62L233.6 531.5L233.87 531.14L233.42 530.68L232.24 530.39L231.8 529.7L229.71 530.4L229.8 528.44L228.42 526.79L227.05 526.29L227.76 525.38L227.53 525.02L226.11 524.99L225.01 527.13L224.37 527.53L221.34 526.73L220.52 525.57L218.27 526.01L217.65 525.31L216.46 526.01L215.39 524.63L212.8 525.25L210.13 524.88L205.97 527.65L204.59 526.92L203.3 527.37L202.14 528.9L201.32 528.78L200.7 528.09L201.26 526.12L200.68 526.01L199.28 527.46L197.9 526.38L197.71 528.98L195.73 529.62L195.22 532.64L191.43 535.36L189.95 538.99L190.76 539.68V540.22L188.8 539.66L187.3 540.48L188.18 541.66L187.76 543.31L185.29 547.31L187.29 548.76L187.59 549.45L184.86 550.97L184.77 552.3L185.85 552.6L186.1 553.1L185.68 555.35L184.27 557.42L182.58 558.08L181.64 561.72L180.39 562.71L183.13 564.49L182.7 565.57L180.28 567.05L180.18 568.78L178.92 569.2L178.7 570.09L180.47 571.03L180.74 571.67L179.46 573.22L179.71 576.36L179.13 578.7L177.28 579.16L176.04 578.81L175.4 579.3L175.58 582.78L175.01 583.59L173.52 584.17L172.93 586.62L171.77 587.32L171.38 588.21L169.79 587.86L169.47 591.61L168.55 593.33L167.49 594.01L165.13 592.85L162.87 592.38L161.78 593.74L159.72 593.88L157.73 595.87L157.95 597.31L156.63 598.36L155.59 598.46L155.67 600.7L151.68 602.31L148.46 602.85L146.94 604.89L144.7 606.21L144.72 607.93L143.69 609.19L143.4 611.63L142.21 612.58L142.26 614.16L139.97 617.14L138.6 617.66L137.79 619.15L136.98 619.55L134.84 623.36L132.01 624.13L127.87 626.2L118.92 625.83L117.36 627.09L116.83 628.45L117.73 629.98L117.93 633.71L117.6 635.04L112.12 639.86L107.36 640.23L105.54 638.95L104.74 638.86L102.53 638.89L100.59 639.91L94.13 637.31L92.22 637.28L88.93 637.43L86.16 639.17L84.07 638.47L80.5 638.98L77.56 640.45L75.71 640.82L71.41 639.22L67.76 639.01L66.21 638.02L64.69 636.02L62.6 636.17L59.91 635.13L55.09 636.99L54.44 638.22L53.26 638.1L51.3 639.96L47.77 640.93L46.33 643.24L45.69 640.92L46.01 639.45L43.53 637.99L43.67 636.52L42.32 635.28L42.44 630.82L41.22 628.26L41.35 627.29L42.42 625.86L42.44 622.27L42.23 620.45L40.85 618.45L40.56 615.82L41.16 611.39L41.85 609.1L43.4 608.87L44.77 606.76L46.16 606.15L48.01 601.76L50.77 598.11L52.37 597.35L53.86 594.5L54.59 590.38L57.08 587.92L57.39 587.02L56.99 586.14L55.71 586.09L54.93 585.08L55.87 583.83L55.9 583.07L55.08 581.85L55.59 579.59L54.4 577.63L55.79 574.17L53.87 572.33L53.43 570.99L53.96 568.31L53.73 567.59L52.46 566.83L52.71 563.91L52.39 563.13L50.49 564.67L49.74 564.65L49.52 564.05L50.49 561.59L49 560.6L48.21 557.58L45.4 554.62L45.18 553.88L46.13 551.97L45.83 550.88L43.82 550.72L44.58 549.09L46.38 547.51L44.78 544.64L42.51 543.22L42.33 542.33L43.05 539.44L44.86 538.94L45.16 537.76L44.44 537.24L42.87 538.31L41.93 537.99L41.7 537.03L42.31 536.17L41.91 535.71L40.91 536.02L40.5 535.45L40.63 533.81L39.91 533.16L38.38 533.4L37.85 532.71L36.45 529.53L36.65 528.45L35.31 528.3L35 527.7L36.33 526.01L33.05 523.62L33.08 521.46L31.52 521.15L30.94 520.49L30.47 518.97L31.63 517.59L31.46 516.32L30.77 515.97L29.62 516.26L28.33 511.83L26.44 509.37L25.79 507.38L24.37 506.97L21.94 504.51L20.02 503.45L18.17 499.85L15.6 499.32L14.57 498.05L13 498.95L11.32 497.11L9.36 496.93L7.54 495.37L6.43 493.03L5.45 492.98L4.43 491.57L3.79 491.55L1.02 487.61L1 384.81Z" fill="#CCCCCC" stroke="white" stroke-width="0.5"/>
<path d="M394.381 402.51L395.601 403.67L439.861 430.36L441.911 427.52L444.011 426.16L445.101 424.32L447.521 424.12L448.051 423.67L450.991 419.74L451.191 418.02L451.731 418.06L452.201 419.07L454.071 416.62L456.451 416.08L456.341 418.26L455.411 420.62L455.971 421.75L455.821 422.49L454.681 423.21L454.591 423.73L455.591 423.91L455.661 425.18L454.311 428.51L453.991 431.69L453.071 432.76L453.251 435.13L452.001 437.59L451.711 439.65L450.161 441.05L449.911 443.36L451.061 445.16L450.001 446.44L450.831 448.06L449.801 449.39L450.191 451.53L449.831 452.39L449.121 453.08L447.581 453.22L446.491 454.6L444.651 455.62L443.051 455.93L441.621 455.47L440.351 456.56L439.821 456.48L439.301 457.65L437.981 458.1L437.481 459L437.511 460.78L436.981 461.68L435.851 461.58L432.221 462.89L430.361 465.69L429.781 465.77L429.671 466.44L427.281 468.48L424.331 475.79L422.151 477.69L421.411 477.75L420.821 479.2L405.171 482.65L402.501 478.29L389.971 469.98L387.611 468.44L386.881 468.8L384.961 466.28L385.571 460.65L389.901 454.88L394.381 402.51Z" fill="#CCCCCC" stroke="white" stroke-width="0.5"/>
<path d="M356.412 358.91L375.992 385.52L384.192 388.14L394.382 402.51L389.902 454.88L385.572 460.65L384.962 466.28L386.882 468.8L387.612 468.44L389.972 469.98L372.712 488.87L366.382 488.63L356.392 482.8L243.782 447.69L236.862 445.51L200.672 433.88L200.712 403.29L194.222 403.31L194.172 392.98L194.202 392.25L194.912 392.17L200.832 392.33L200.922 385.5L200.832 384.99L297.772 385.34L308.592 385.26L343.312 385.38L345.082 382.61L356.322 360.13L356.412 358.91Z" fill="#CCCCCC" stroke="white" stroke-width="0.5"/>
<path d="M491.719 186.57L496.009 187.68L499.419 186.87L500.839 188.11L501.539 188.17L503.339 187.34L505.839 189.34L506.349 191.13L505.859 193.78L504.729 195.18L504.809 199.46L506.469 202.82L506.109 203.8L506.639 205.93L506.179 207.53L506.459 208.49L505.829 209.02L505.269 212.26L503.749 214.4L504.569 216.7L503.699 218.7L505.199 220.5L504.469 221.89L504.809 222.62L503.779 223.58L504.559 225.57L503.479 227.34L504.749 230.21L505.889 231.03L507.579 233.37L509.019 233.82L510.349 235.14L511.769 235.45L511.889 236.71L514.409 239.75L515.219 241.63L518.319 245.07L518.559 248.05L521.259 251.6L520.999 252.73L522.369 254.57L521.349 255.45L521.429 256.18L523.019 256.95L521.819 258.59L522.459 259.32L523.739 259.01L523.989 259.38L523.569 259.97L524.659 261.93L522.139 262.19L520.989 261.39L520.239 261.52L519.319 260.28L516.359 260.42L514.599 259.8L514.149 260.77L511.239 260.55L507.479 261.72L506.209 261.08L500.129 260.05L498.599 259.18L496.149 256.3L495.239 256.85L493.339 255.9L491.499 255.7L488.029 250.93L487.359 249.17L485.729 247.91L484.689 245.06L484.909 243.93L483.779 240.18L484.039 238.63L483.549 236.24L481.659 234.27L481.279 230.15L481.839 226.2L480.949 224.69L480.879 222L479.819 220.74L479.349 218.79L477.389 215.43L472.979 212.67L472.219 210.52L472.399 207.99L473.029 206.74L472.959 203.38L473.509 202.51L475.779 200.93L476.069 198.96L477.299 197.97L478.549 195.97L477.279 191.61L477.629 189.61L477.259 187.85L477.949 188.06L482.049 186.17L483.939 186.95L487.399 187L489.739 186.16L491.719 186.57Z" fill="#CCCCCC" stroke="white" stroke-width="0.5"/>
<path d="M341.938 1.60001L344.658 1.42L345.658 1.81001L345.077 2.22L343.547 7L343.388 10.28L345.397 12.94L346.327 16.67L348.938 21.23L351.168 22.08L351.867 23.59L353.777 24.33L355.367 26.76L359.918 36.15L362.027 42.28L367.707 49.29L369.948 50.09L371.948 54.04L374.307 56.82L376.837 57.26L379.117 59.34L379.177 61.29L379.997 63.15L379.307 64.9L379.527 67.75L380.228 69.86L381.527 71.83L381.457 73.69L384.517 75.14L387.927 77.9L389.388 78.27L392.418 84.37L347.908 84.52H335.557L327.027 84.54L327.258 91.24V112.05L327.237 141.43L327.277 152.85L327.237 153.22L338.987 158.17L338.388 177.08L297.168 180.43L292.467 179.97L289.158 181.38L286.568 180.14L284.408 177.53L284.008 176.01L280.698 174.62L279.737 172.71L280.408 171L279.448 169.58L278.337 169.63L276.467 170.63L275.707 169.96L275.418 168.34L274.158 168.15L272.547 166.92L270.098 168.31L267.927 168.34L266.497 169.79L264.247 170.31L263.198 171.64L262.198 172.06L262.427 173.93L261.938 174.41L260.467 174.16L259.158 175.25L256.908 175.31L254.617 173.68L254.307 179.07L254.738 222.26L223.908 222.6H216.197L181.467 222.8L168.938 222.76H152.548L146.768 222.8L99.5175 222.58L87.9475 222.45L66.1875 222.27L66.2975 37.64L97.0275 37.65L202.458 16.01L216.518 15.73L218.027 16.89L217.607 18.35L219.068 19.42L218.268 19.75L218.557 21.35L219.908 22.2L221.848 25.13L222.428 27.07L223.587 28.13L223.387 30.2L224.117 29.87L224.488 30.28L224.958 29.95L226.147 30.41L226.667 29.75L227.117 30.14L226.497 30.93L226.977 31.98L227.747 32.61L229.798 32.49L229.997 33.9L231.438 34.63L232.018 36.48L231.747 37.59L233.497 39.21L233.897 40.94L233.197 42.16L234.077 43.86L233.867 46.35L234.488 46.68V49.05L237.197 50.39L240.688 48.14L241.837 45.89L242.857 45.44L244.208 45.77L248.897 42.04L250.077 40.29L250.167 39.02L252.667 37.75L252.908 36.55L253.697 36.69L254.367 34.77L256.548 33.92L257.587 32.91L258.077 31.93L257.517 31.59L258.267 29.97L259.758 29.39L259.858 28.82L260.967 29.13L263.888 26.13L266.267 25.13L266.568 23.56L268.598 24.03L270.177 23.03L272.818 20.25L273.717 18.61L274.807 18.23L275.237 17.21L277.577 17.49L280.277 16.59L281.867 17.99L282.837 15.74L284.168 15.32L286.557 12.56L288.077 12.65L288.707 13.3L289.237 12.69L290.198 12.7L291.617 13.79L292.288 13.3L292.277 14.62L294.408 16.73L293.848 18.13L294.497 19.11L295.318 19.01L295.777 19.92L297.198 20.38L300.108 20.35L302.867 16.92L303.348 15.18L306.017 13.12L305.777 12.14L307.188 12.3L307.957 11.65L308.698 11.98L309.658 10.18L310.198 9.99001L310.628 8.40001L311.557 8.95001L313.147 8.08L312.897 7.64L313.258 7.31001L315.217 7.11L315.117 6.40001L315.668 6.09001L318.487 5.08L319.577 5.31001L320.068 4.62001L321.478 4.17L322.087 3.16L324.478 2.94L324.837 2.04001L326.358 1.55L326.688 1.87001L325.658 2.74001L326.538 3.40001L326.527 4.03L327.077 4.34001L328.267 3.5L328.487 3.92L327.927 4.60001L328.557 4.78L331.177 3.05L331.927 3.92L331.207 4.32001L331.288 4.70001L332.378 5.24001L335.297 4.25L336.117 2.81001L337.147 3.02L338.188 1L341.938 1.60001Z" fill="#CCCCCC" stroke="white" stroke-width="0.5"/>
<path d="M404.659 482.77L401.249 483.3L394.959 485.15L388.919 485.33L386.589 487.69L384.669 487.77L384.259 488.42L384.709 492.2L386.139 494.95L385.709 499.21L384.319 500.59L376.249 523.07L374.199 525.52L373.369 531.47L372.489 533.13L372.019 535.73L370.539 538.57L366.399 536.69L362.859 535.99L371.489 505.73L366.829 506.03L369.719 497.32L368.809 496.01L372.769 494.22L372.709 488.87L389.969 469.98L402.499 478.29L405.169 482.65L404.659 482.77Z" fill="#CCCCCC" stroke="white" stroke-width="0.5"/>
<path d="M372.713 488.87L372.773 494.22L368.813 496.01L369.723 497.32L366.833 506.03L371.493 505.73L362.863 535.99L366.403 536.69L370.543 538.57L370.463 541.61L366.063 550.85L358.323 555.84L355.393 558.37L353.743 558.52L350.423 560.56L336.063 559.86L333.473 557.85L332.653 557.96L331.133 557.24L328.823 557.58L328.063 558.95L325.933 560.73L324.893 560.43L323.163 562.55L322.613 562.22L321.643 563.85L318.613 563.64L314.723 564.75L310.543 563.46L307.233 564.62L302.433 563.21L300.183 561.38L298.143 561.06L293.803 559.29L295.213 558.82L294.593 552.39L288.563 552.2L278.873 542.23L277.933 505.46L267.523 494.4L200.383 494.63L200.673 433.88L236.863 445.51L243.783 447.69L356.393 482.8L366.383 488.63L372.713 488.87Z" fill="#CCCCCC" stroke="white" stroke-width="0.5"/>
</svg>
