<svg width="614" height="640" viewBox="0 0 614 640" fill="none" xmlns="http://www.w3.org/2000/svg">
<path d="M31.5 238.77L29.42 238.73L29.96 236.92L29.75 236.09L29.5 235.6L28.25 234.9L28.11 234.45L28.38 233.3L27.61 231.35L26.52 230.71L20.92 229.46L13.58 229.27L13.85 228.71L16.34 226.45L17.23 225.22L17.52 224.02L17.3 222.79L16.62 221.88L15.79 221.44L14.11 218.49L13.34 218.05L12.44 217.86L11.31 216.73L10.39 214.35L8.39003 212.82L7.41003 209.2L6.54003 207.56L4.66003 206.48L4.58003 205.31L5.39003 205.41L5.81003 204.89L5.88003 204.22L5.68003 203.8L3.56003 202.87L3.20003 202.21L1.03003 200.32L1.07003 199.95L1.69003 199.9L2.19003 198.58L2.18003 197.27L5.19003 196.88L5.69003 196.49L5.47003 195.14L4.30003 193.57L22.25 201.05L45.91 206.71L58.05 209.85L84.49 224.02L113 236.15L115.97 237.41L115.67 237.89L114.1 238.55L112.01 240.14L109.15 242.93L107.5 243.79L106.84 243.61L105.31 243.79L105.26 244.35L103.34 245.65L101.26 246.64L99.82 248.47L99.38 249.65L98.77 249.93L97.6 249.18L96.84 249.05L94.47 249.1L93.79 249.36L93.16 249.81L92.8 250.67L90.36 254.15L86.59 255.4L85.75 256.09L83.81 256.6L82.78 256.63L82.86 254.52L81.5 254.72L77.95 253.95L72.71 253.48L67.62 253.86L66.96 253.28L64.69 253.11L61.13 254.94L58.4 255.56L56.72 254.89L55.32 253.45L53.68 254.61L53.72 237.06L53.77 235.96L54.24 235.25L54.31 232.9L54.05 232.02L55.02 230.84L55.5 229.7L54.34 229.9L51.37 232.49L49.77 233.5L47.71 235.88L45.76 236.55L45.11 237.63L43.3 238.62L31.5 238.77Z" fill="#CCCCCC" stroke="white" stroke-width="0.5"/>
<path d="M562.94 231.3L562.74 230.57L561.32 229.79L560.87 229.88L559.85 229.59L559.31 228.19L560.63 227.12L561.27 226.03L563.44 225.27L565.82 221.98L565.91 221.29L566.73 220.69L567.73 221.91L569.4 222.21L570.48 222.09L573.03 224.11L574.93 226.23L576.71 227.28L578.62 227.76L581.12 227.11L584.26 227.4L585.43 227.29L587.29 226.23L588.45 226.28L590.26 225.17L592.44 222.88L592.56 222.43L594.11 221.19L596.11 220.95L598.35 221.8L600.91 220.51L602.38 220.32L604.3 221.13L607.2 221.4L607.47 221.61L604.69 226.57L600.14 231.7L596.56 235.28L593.52 239.86L590.19 242.74L589.19 244.77L587.87 246.56L587.27 245.25L583.68 243.02L583.22 242.99L581.56 242.2L579.8 240.75L578.5 238.3L573.08 235.23L569.4 234.28L562.94 231.3Z" fill="#CCCCCC" stroke="white" stroke-width="0.5"/>
<path d="M166.85 48.29L167.57 49.07L168.32 49.41L168.93 49.42L170.06 49L170.69 49.11L170.75 50.07L171.96 51.24L172.93 51.61L173.81 51.4L175.17 51.51L177.12 52.46L177.61 53.12L176.7 56.44L175.99 57.94L178.72 61.68L180.38 66.44L180.57 68.7L181.44 69.82L181.49 70.27L179.87 71.73L180.23 73.32L180.89 74.9L180.12 77.94L179.55 78.9L179.84 83.88L180.72 86.05L181.94 86.89L182.52 87.79L183.65 92.12L183.59 92.7L182.45 94.02L180.61 93.69L180.47 94.83L185.48 99.25L186 99.29L187.96 100.6L189.44 102.25L190.48 104.29L191.01 104.36L192.35 103.94L194.71 104.98L194.27 102.87L195.02 100.58L195.27 98.85L194.9 97.05L195.72 94.08L196.74 92.82L198.02 92.13L200.11 91.42L200.66 90.53L202.26 90.47L205.09 91.4L206.96 93.44L207.88 95.95L209.7 96.18L210.95 95.72L212.36 94.31L214.39 93.76L214.81 93.37L214.83 92.84L213.69 91.43L213.46 90.7L213.57 90.04L214.72 87.4L214.79 86.27L216.45 83.24L218.78 79.98L218.75 79.3L237.24 79.37L237.64 84.23L237.21 85.68L237.39 87.95L237.63 88.63L239.33 89.48L239.51 89.89L239.16 90.58L239.11 92.69L240.94 94.68L241.3 94.87L242 94.69L243.84 95.92L244.39 97.75L244.43 98.68L244.73 99.13L249.37 102.9L253.95 105.44L254.58 106.34L255.93 107.43L257.81 108.1L260.18 109.41L262.44 110.06L263.8 110.21L265.12 111.03L265.2 111.64L266.47 112.98L269.17 114.42L270.27 116.59L272.14 117.38L272.99 116.77L274.37 116.42L274.56 116.9L274.43 117.68L276.24 119.35L246.34 183.59L245.56 184.9L244.11 186.03L243.53 187L243.5 188.13L244.32 190.46L244.7 191.03L245.77 191.61L247.35 193.17L247.99 194.43L248.14 196.39L248.71 196.96L247.53 198.16L247.33 198.77L247.27 199.53L247.61 200.37L247.34 201.38L246.14 203.2L245.28 203.84L244.86 204.69L244.96 205.54L245.62 206.91L246.08 208.85L244.7 213.07L243.52 218.29L242.31 219.02L194.46 219.34L194.5 218.64L194.14 218.26L192.75 217.98L190.83 219.06L190.29 220.8L189.61 220.99L186.37 219.51L185.69 216.63L185.07 216.43L184.09 216.56L183.63 216.35L182.38 213.08L179.84 212.1L178.51 210.83L177.71 208.92L177.26 208.43L175.11 207.3L164.32 207.36L162.94 209.92L161.22 210.42L161.31 211.59L161.05 211.81L158.57 212.34L157.38 213.93L157.33 214.6L158.23 215.3L158.4 215.75L158.04 216.77L157.23 217.92L155.17 219.13L155.06 220.94L155.3 222.4L151.43 221.94L149.3 222.32L148.1 223.39L146.31 223.29L145.47 222.74L145.01 222.72L143.26 223.98L142.73 224.82L142.99 226.57L140.45 229.73L139.77 229.81L139.09 229.28L138.45 227.02L138.07 226.93L136.23 227.95L134.93 229.16L133.56 229.55L132.79 229.42L131.71 229.92L131.3 230.45L131.17 231.17L129.95 231.96L129.58 231.98L127.27 229.65L126.55 229.28L123.68 229.61L119.72 229.35L119.88 230.64L119.73 231.2L118.18 233.01L116.26 233.59L113 236.15L84.49 224.02L58.05 209.85L45.91 206.71L22.25 201.05L4.29998 193.57L4.22998 192.92L4.92998 190L6.14998 188.6L11.07 185.13L13.33 184.89L13.8 184.59L14.78 183.03L14.86 182L13.12 177.51L13.5 176.32L14.68 174.13L15.96 172.81L16.88 171.56L17.3 170.58L17.6 168.84L17.31 167.52L17.98 165.48L18.29 163.17L19.02 162.42L22.68 160.79L24.87 159.56L26.02 158.52L26.46 157.12L27.24 156.75L28.65 156.64L30.3 155.71L33.84 152.98L36.26 152.55L37.77 152.84L41.96 151.62L43.46 150.85L45.28 150.49L48.61 150.87L49.91 149.28L50.54 147.83L51.63 147.22L53.77 147.42L54.41 147.96L55.73 147.72L56.83 146.98L58.54 147.1L58.85 147.63L58.83 148.81L60.44 150.1L63.27 150.18L63.85 149.78L64.31 149L64.2 148.61L65.37 143.69L72.07 106.52L73.23 103.6L72.24 98.64L72.36 98.38L71.06 97.33L69.58 94.58L69.54 94.09L70.19 92.7L69.67 90.92L69.3 90.52L67.6 89.93L64.57 87.58L62.63 85.3L62.83 73.79L66.72 73.53L68.47 72.36L71.97 71.44L74.65 73.2L75.87 73.31L77.14 72.88L76.65 71.19L76.95 69.47L75.58 67.37L75.01 66.83L73.86 66.23L72.35 66.76L69.56 66.15L65.99 66.24L65.93 56.34L66.89 56.38L68.21 55.8L70.49 55.2L73.33 56.07L92.36 56.13L91.9 55.47L91.11 55.33L90.73 54.13L91.68 52.2L93.11 52.6L93.72 54.12L94.59 55.44L95.25 55.79L96.08 55.8L97.69 55.19L99.63 53.1L99.95 52.26L101.21 51.02L103.76 49.63L105.05 50.09L106.22 52.67L107.84 54.66L108.58 55.96L109.24 57.74L109.47 59.29L108.98 62.92L109.18 64.68L112.38 63.93L120.69 70.99L121.48 71.27L123.98 71.48L126.28 70.48L127.98 68.78L130.09 67.62L132.28 67.51L132.84 67.8L133.61 68.88L133.59 69.85L132.48 71.55L132.85 72.53L133.43 72.8L134.76 72.08L135.32 71.17L135.55 69.88L136.55 68.72L137.02 68.49L138.02 68.67L138.57 68.49L138.98 67.83L139.44 65.52L139.95 65.15L141.46 64.79L144.39 63.02L145.36 63.57L146.29 63.28L147.89 62.24L148.91 60.63L151.02 59.42L153.05 59.97L155.41 58.32L155.96 57.5L156.4 54.84L156.37 53.55L157.14 52.63L158.17 52.21L159.91 52.19L161.25 51.8L163.31 50.2L164.27 49.83L166.55 49.53L166.85 48.29Z" fill="#CCCCCC" stroke="white" stroke-width="0.5"/>
<path d="M346.01 100.7L345.07 100.64L344.3 100.98L343 101.1L340.21 100.42L338.76 99.39L338.33 97.89L336.46 96.5L336.35 95.2L336.56 94.51L336.25 92.93L335.92 92.46L334.97 92.27L334.56 91.33L334.64 88.9L331.71 85.62L330.93 85.98L330.11 85.79L328.61 82.31L328.74 80.73L328.15 78.92L327.53 78.36L326.86 76.85L326.67 74.74L327.1 71.6L326.93 71.27L324.36 70.54L322.34 68.28L321.58 65.45L321.77 64.73L322.45 64.5L321.96 63.32L321.28 63.35L318.44 60.69L317.5 60.83L317.12 61.25L315.79 61.39L314.95 61.12L314.15 60.14L313.01 59.3L311.82 59.18L311.33 57.9L310.66 57.1L308.73 56.05L307.44 55.56L304.05 55.19L302.97 55.48L301.8 55.46L301.49 54.92L301.25 53.48L301.5 48.94L302.12 47.64L301.75 45.34L301.13 44.77L301.48 44.56L302.47 44.86L302.46 45.67L302.17 45.85L302.51 46.82L303.98 46.76L304.8 46.99L305.15 47.89L305.99 48.6L308.24 49.38L311.53 50.13L314.29 48.35L314.64 47.59L316.37 46.42L317.2 46.13L317.89 47.07L320.6 48.01L321.68 47.89L323.4 46.88L323.52 46.46L323.84 46.49L325.3 47.79L325.1 48.66L327.47 48.49L327.98 48.99L328.93 49.16L329.55 49.15L330.46 48.67L332.13 47.17L333.91 46.07L335.66 43.77L336.03 42.77L335.83 42.23L338.96 35.73L339.07 33.91L340.18 32.61L340.91 32.42L344.51 26.63L344.74 25.48L345.58 24.28L347.37 22.73L348 21.07L350.11 19.93L350.58 19.01L351.62 18.43L352.18 19.89L353.06 21.25L351.39 16.45L351.32 15.16L351.5 14.83L354.87 17.25L356.01 18.46L356.92 19.68L357.44 20.87L357.47 22.45L357.91 22.76L358.23 22.28L358.61 22.18L358.82 22.58L359.03 30.47L359.69 34.34L362.4 40.39L365.06 49.33L368.38 54.33L369.39 54.68L372.66 54.6L375.44 55.54L376.73 56.39L377.5 59.04L377.34 62.37L376.05 63.33L374.32 63.76L373.94 64.09L375.73 63.94L376.77 63.52L377.05 63.75L377.17 64.34L377 65.07L371.97 69.13L370.8 71.23L368.65 72.64L366.71 76.36L363.8 79.86L363.1 80.32L362.16 80.23L360.71 80.75L358.63 83.73L357.29 83.8L356.54 84.7L355.07 86.38L354.1 88.6L352.98 90.47L352.14 91.12L349.13 94.57L348.77 96.97L348.94 98.77L346.99 100.58L346.01 100.7ZM369.37 53.71L368.92 53.38L367.82 51.52L367.89 50.64L368.12 50.23L369.78 49.78L370.21 50.17L371.04 52.44L370.05 53.54L369.37 53.71ZM371.86 71.32L371.46 71.07L371.38 70.36L372.49 69.26L373.37 69.11L374.62 69.35L375.08 69.24L375.52 68.6L375.57 69.19L374.6 70.63L373.61 71.13L371.86 71.32ZM375.3 68.45L374.52 68.22V67.66L375.24 66.62L376.49 66.52L376.67 66.87L376.57 67.38L375.3 68.45ZM368.11 50.03L367.35 49.53L367.61 48.7L368.49 48.53L369.35 48.85L369.36 49.58L368.11 50.03Z" fill="#CCCCCC" stroke="white" stroke-width="0.5"/>
<path d="M528.53 366.33L528.17 365.5L528.85 364.15L528.84 363.62L528.31 362.58L524.18 359.53L524.03 359.02L524.25 357.51L523.68 356.28L523.03 356.52L522.83 356.97L522.49 357.15L522.27 356.9L522.8 352.5L523.62 349.2L524.44 348.32L526.91 348.56L527.93 347.85V347.43L527.37 346.41L527.53 343.76L532.49 339.54L533.96 336.46L533.54 335.29L532.76 334.27L531.87 334.21L531.14 333.83L528.31 331.36L526.19 331.38L524 330.78L521.73 329.7L519 329.14L517.02 329L515.7 329.99L514.23 330.49L511.62 330.04L511.05 330.25L510.61 326.29L504.09 320.09L503.71 319.91L499.32 321.14L497.79 319.9L497.28 320.11L496.35 319.89L493.81 318.67L491.64 317.05L490.66 317.23L486.31 313.6L485.21 313.06L482.48 312.31L480.71 312.56L478.83 313.46L478.02 314.58L477.38 314.76L472.05 313.29L471.44 312.8L471.18 311.3L471.32 310.41L472.61 307.67L471.75 307.21L469.47 306.69L467.29 306.65L466.09 306.15L464.3 306.07L460.47 307.65L456.21 310.68L455.57 311.79L452.2 313.66L450.18 314.06L449.23 315.24L447.42 316.79L445.99 317.31L444.99 317.16L443.14 319.74L442.1 320.51L439.97 320.13L439.25 320.26L438.56 321.26L437.22 322.18L436.82 321.94L438.25 318.51L437.74 316.1L439.22 314.13L439.47 313.36L439.24 312.09L438.57 310.37L438.67 309.7L439.38 308.28L439.33 307.82L436.12 305.2L434.43 301.74L433.81 298.22L433.86 296.67L435.06 292.84L436.65 291.81L436.88 291.43L436.94 290.49L435.31 289.65L435.2 289.32L435.68 286.8L437.11 285.74L437.09 285.37L434.37 282.91L434.33 281.98L435.69 279.6L435.65 278.53L435.48 278.11L434.02 277.62L433.08 276.97L432.73 275.71L432.79 272.79L432.98 271.94L434.93 270.27L436.07 269.85L437.03 269.13L436.74 268.5L436.16 267.98L435.24 267.69L434.21 267.87L433.86 267.54L433.77 267.04L434.19 266.08L436.23 265.26L436.79 264.81L436.75 264.05L434.87 263.07L431.29 262.4L429.43 260.44L429.2 259.52L429.7 258.36L430.71 257.63L432.23 254.15L433.13 253.54L434.14 253.27L434.49 252.89L433.2 251.09L433.39 250.72L436.6 248.1L440.42 246.08L440.98 245.61L441.2 244.63L441.89 243.98L444.22 243.96L445.66 245.3L446.32 246.34L446.85 248.55L448.61 251.04L452.79 252.9L454.59 252.38L456.7 252.56L457.03 252.35L457.78 250.9L458.92 250.53L459.59 249.66L460.76 248.77L462.97 248.02L464.3 248.19L465.78 248.72L467.13 248.3L470.1 245.88L473.05 240.83L473.77 239.97L474.01 239.05L474.31 236.49L474.19 235.33L471.95 230.9L472 229.97L475.24 228.32L477.19 228.3L478.69 228.76L479.1 229.69L479.42 229.87L481.54 229.44L482.93 228.9L484.26 229.28L485.97 230.27L485.84 230.92L486.03 231.21L486.85 231.49L489.85 231.38L491.32 230.74L493.02 230.64L493.84 229.42L495.35 228.08L498.08 227.74L498.85 227.38L499.66 226.4L501.83 226.41L502.45 227.04L502.76 227.09L504.62 225.28L504.52 222.88L506.51 222.5L507.3 222.68L508.35 222.02L509.85 219.71L510.31 218.56L511.2 218.96L512.36 218.69L514.56 218.98L517.38 220.37L517.82 220.88L517.76 223.61L518.48 225.55L520.69 226.46L520.96 228.46L520.04 230.14L521.87 230.76L522.83 230.54L523.65 229.62L526.52 228.74L527.29 225.16L527.79 224.29L528.54 224.13L529.32 224.66L529.95 224.71L532.34 223.69L533.44 222.45L533.61 221.86L533.36 220.5L533.65 220.25L535.89 219.8L536.66 217.75L538.31 217.31L540.84 215.85L541.43 215.75L542.92 216.31L543.75 217.75L545.11 218.56L547.47 219.34L550.46 219.74L552.04 220.89L552.58 222.54L552.97 222.81L553.4 222.66L553.69 220.91L554.12 220.47L555.12 220.46L555.57 220.78L555.59 221.41L554.97 222.29L555.42 223.12L555.92 223.49L558.02 224.35L558.04 225.29L559.26 228.34L559.8 229.74L560.82 230.03L561.27 229.94L562.7 230.73L562.9 231.45L562.23 232.61L562.44 234.75L563.72 237.25L565.71 239.2L566.46 240.35L566.38 243.47L565.72 245.09L565.63 245.97L566.39 248.72L566.09 249.3L565.4 249.85L562.85 250.85L561.72 250.1L560.01 250.09L559.69 250.39L559.1 251.97L559.12 252.74L560.07 254.34L561.17 255L561.69 256.49L563.12 258L563.27 258.39L563.14 259.81L562.8 260.2L562.92 260.62L563.51 261.14L565.44 262.06L565.92 262.77L566.46 263.11L568.01 263.75L570.9 262.87L571.54 262.85L571.9 263.26L567.82 272.09L563.99 277.28L562.96 279.61L557.93 285.35L555.48 286.61L554.61 286.6L554.91 285.17L555.28 285.02L555.42 283.92L554.97 281.99L553.1 281.74L552.67 280.44L551.99 279.69L551.62 280.29L551.16 282.62L550.66 283.49L550.11 283.87L549.55 283.58L549.06 281.84L549.17 281.52L549.48 281.39L549.45 281L548.58 282.29L549.51 283.98L549.97 284.21L550.34 284.06L551.49 284.32L551.03 286.13L549.82 287.28L549.57 289.1L548.32 290.07L547.97 290.74L547.77 291.58L547.95 292.43L546.6 292.04L546.39 292.43L546.03 294.95L546.39 294.23L547.14 294.44L547.38 294.98L547.15 295.39L547.21 296.01L547.51 296.31L547.84 297.31L546.8 299.82L547.37 303.26L546.82 303.75L546.25 303.53L546.11 304.66L546.7 305.12L547.91 303.4L547.44 301.19L548.26 300.58L548.51 301.12L548.45 302.88L547.49 305.49L546.75 310.92L546.24 312.73L546.44 315.2L547.22 318.05L547.41 322.59L548.28 329L549.27 332.42L547.06 339.08L545.71 345.73L545.24 346.74L545.08 349.6L544.02 353.32L543.93 355.65L544.32 360.07L545.21 361.78L542.97 364.76L541.16 365.43L540.22 366.07L537.5 369.96L536.93 372L528.84 366.86L528.53 366.33ZM550.81 288.33L550.58 287.13L551.32 286.72L552.38 285.68L552.54 285.04L552.17 284.31L552.93 284.45L553.75 285.5L553.7 286.03L550.81 288.33ZM548.28 295.18L547.65 295.15L547.66 294.48L547.92 294.12L547.12 293.9L546.7 293.5L546.83 292.43L548.7 292.28L548.86 292.48L548.97 293.61L548.28 295.18Z" fill="#CCCCCC" stroke="white" stroke-width="0.5"/>
<path d="M574.82 157.85L569.93 159.44L567.32 161.45L564.02 168.14L563.18 169.26L562.31 169.83L561.66 171.5L561.81 172.24L560.41 174.68L558.95 176.19L558.38 177.29L557.35 177.55L556.57 177.04L556.06 177.11L555.22 177.99L553.81 180.24L553.47 182.21L554.11 182.38L554.77 182L554.69 182.54L553.85 183.69L552.82 186.69L553.34 188L552.68 189.31L551.59 189.94L551.42 190.32L551.3 191.25L551.54 191.66L552.12 191.95L552.47 192.67L552.45 194.33L553.69 195.22L554.38 195.3L554.72 196.49L553.11 199.98L551.92 201.1L552.09 201.35L550.5 201.84L549.43 202.67L547.89 204.96L546.24 205.01L545.61 203.37L544.83 202.8L543.47 202.32L542.46 201.25L542 200.26L540.17 199.43L537.32 197.53L534.24 197.11L532.95 197.21L530.81 198.01L529.18 198.2L528.29 197.96L523.36 197.76L523.42 196.44L522.74 195.76L522.66 194.79L523.8 191.68L525.3 189.43L525.31 188.74L524.54 187.58L521.98 187.11L520.67 186.46L519.66 183.79L518.61 178.59L517.85 176.02L518.09 175.57L517.15 167.41L517.04 167.03L516.12 166.34L516.92 165.76L517.51 164.18L516.91 161.19L515.91 159.18L516.39 157.58L515.6 153.71L516.34 152.35L516.36 151.59L515 150L514.56 148.27L511.41 141.85L509.61 137.13L509.32 135.84L509.5 134.38L511.08 132.41L512.17 130.56L512.28 129.76L512.47 129.62L512.43 129L512.03 128.34L512.68 127.53L519.42 127.31L522.31 126.88L524.38 126.22L531.78 127.01L533.9 128.13L535.84 129.63L539.96 131.81L541.42 132.33L546.24 135.33L547.45 135.53L549.67 137.82L552.66 139.93L555.23 140.65L557.67 143.56L558.89 144.17L561.85 147.98L566.01 151.06L567.47 153.06L568.51 154.05L570.01 154.87L571.16 154.9L573.53 155.82L574.32 156.49L574.82 157.85Z" fill="#CCCCCC" stroke="white" stroke-width="0.5"/>
<path d="M417.74 334.87L403.05 334.85L402.53 331.59L403.45 329.76L403.83 326.03L415.78 326.04L417.61 328.02L417.67 330.23L417.08 331.42L416.87 333.86L417.74 334.87Z" fill="#CCCCCC" stroke="white" stroke-width="0.5"/>
<path d="M502.66 412.37L502.37 412.23L502.81 409.89L503.38 408.59L502.79 405.47L502.95 405.05L504.67 402.99L509.82 403.02L510.37 402.7L511.34 399.46L512.45 398.19L513.33 395.9L513.57 394.18L513.83 393.74L515.07 392.88L516.78 390.79L517.32 387.82L517.03 385.39L515.76 382.58L514.66 381.31L514.14 381.22L513.69 381.51L512.93 381.23L512.44 380.52L512.87 379.97L514.35 379.88L515.15 380.23L516.12 380.26L517.07 380.02L517.39 379.6L517.22 377.88L515.91 377.53L515.7 377.12L516 375.58L516.03 373.66L515.51 373L514.18 372.33L513.88 371.63L515.05 369.7L517.22 368.39L517.53 368.37L518.58 369.11L519.71 369.22L519.73 368.41L518.06 366.14L519.4 366.27L521.58 365.98L522.42 365.37L523.5 365.05L525.08 364.97L527.62 365.78L528.53 366.33L528.83 366.86L536.93 372L536 375.35L535.69 378.21L535.81 381.8L536.53 387.95L536.22 390.42L534.73 393.6L531.98 394.99L531.43 395.59L529.76 398.92L528.78 402.72L528.01 404.19L527.18 403.51L526.3 403.38L526.01 404.66L527.36 405.18L525.42 409.42L521.97 413.26L521.73 412.99L519.87 413.65L519.07 414.88L519.01 416.27L518.59 417.52L517 419.54L516.71 420.67L515.09 419.61L512.1 419.98L507.76 418.97L505.26 417.84L504.59 413.13L502.66 412.37Z" fill="#CCCCCC" stroke="white" stroke-width="0.5"/>
<path d="M417.74 334.87L416.87 333.86L417.08 331.42L417.67 330.23L417.61 328.02L415.78 326.04L403.83 326.03L403.45 329.76L402.53 331.59L403.05 334.85L417.74 334.87L417.21 336.39L417.52 337.96L416.84 339.55L415.8 340.8L415.39 342.27L416.24 343.48L417.09 343.82L418.51 344.85L420.16 349.41V350.01L417.84 352.72L414.6 355.73L414.17 357.87L415.26 358.98L416.16 358.51L417.74 359.08L418.21 359.69L418.39 360.69L418.22 361.4L417.49 362.3L416.98 364.19L418.17 367.65L415.08 369.71L413.92 369.91L413.06 370.81L412.58 371.93L407.69 374.67L406.99 373.9L402.64 372.04L402.09 372.52L401.51 372.61L399.76 372.62L398.28 372.34L394.42 372.5L392.41 371.61L388.28 374.25L385.37 377.17H385.04L383.73 375.75L382.21 375.45L379.02 377.09L375.31 376.47L372.83 377.43L370.6 377.97L369.19 380.07L367.98 382.53L368.04 383.53L367.2 384.83L366.38 385.11L365.54 384.95L365.09 385.09L364.15 385.83L362.51 387.93L361.94 389.83L362.5 390.44L362.49 390.78L362.13 391.01L361.27 390.55L361.03 390.1L358.37 387.86L355.22 387.25L353.6 385.7L351.7 385.27L350.21 385.23L346.86 383.89L346.18 383.04L343.11 381.48L342.44 380.87L341 380.16L339.86 379.99L337.16 378.31L334.38 378.47L330.58 377.77L330.45 377.44L330.71 376.6L331.28 375.43L332.59 373.67L332.51 373.25L330.26 372.35L329.12 373.02L328.46 372.83L328.18 372.42L327.95 371.31L328.21 368.73L328.02 366.96L327.07 364.76L326.89 361.33L325.48 359.14L325.32 358.43L325.72 355.02L328.27 351.17L328.65 348.26L329.35 347.49L331.37 346.65L333.29 344.88L334.54 342.86L334.87 340.91L335.37 339.9L336.65 338.86L337.47 337.43L337.55 335.89L339.3 334.92L340.7 332.3L343.35 332.17L346.07 331.31L346.39 331.03L348.37 326.84L349.08 325.88L349.72 321.78L350.1 321.04L352.02 319.1L353.67 318.09L354.74 317.83L355.97 318.51L357.18 317.78L358.57 316.35L359.41 313.42L360.58 310.55L360.57 309.75L360.09 308.61L360.67 305.87L362.27 302.78L362.15 297.6L363.36 296.82L364.39 294.19L366.39 291.02L366.78 289.95L366.62 287.23L366.97 286.33L367.94 285.47L368.21 284.34L368.13 283.71L368.47 283.26L368.67 281.38L369.33 280.15L371.14 278.06L371.7 277.76L371.67 279.47L370.45 281.35L369.93 283.69L372.33 284.09L374.53 285.12L378.46 285.52L381.55 287.23L385.62 288.66L386.25 288.43L387.88 282.49L389.35 280.1L390.53 279.13L391.68 280.44L392.72 282.32L393.83 286.03L394.44 289.13L395.58 289.18L396.33 288.43L396.63 287.43L397.19 286.89L399.95 287.23L404.48 286.7L404.7 287.44L404.14 289L407.27 290.47L410.62 291.15L411.31 291.07L411.82 287.77L412.37 287.8L413.88 290.42L414.34 290.66L416.12 289.76L418.64 287.68L423.17 286.68H424.72L427.28 285.58L429.02 284.24L434.38 282.82L437.1 285.28L437.12 285.66L435.69 286.72L435.21 289.24L435.31 289.57L436.94 290.41L436.88 291.35L436.65 291.73L435.06 292.76L433.87 296.59L433.82 298.14L434.44 301.66L436.14 305.12L439.35 307.74L439.4 308.21L438.68 309.63L438.58 310.3L439.25 312.02L439.48 313.3L439.23 314.07L437.75 316.04L436.75 317.05L433.52 316.71L432.62 314.95L430.2 313.47L429.03 314.96L429.61 318.73L429.04 319.27L428.64 319.4L425.86 318.26L424.69 318.49L424.32 318.77L423.6 321.95L424.32 322.05L424.81 323.21L424.24 324.15L423.51 324.85L423.55 326.75L423.97 327.36L424.5 327.55L425.19 331.81L424.66 332.34L421.3 333.24L419.01 334.75L417.74 334.87Z" fill="#CCCCCC"/>
<path d="M417.74 334.87L416.87 333.86L417.08 331.42L417.67 330.23L417.61 328.02L415.78 326.04L403.83 326.03L403.45 329.76L402.53 331.59L403.05 334.85L417.74 334.87ZM417.74 334.87L417.21 336.39L417.52 337.96L416.84 339.55L415.8 340.8L415.39 342.27L416.24 343.48L417.09 343.82L418.51 344.85L420.16 349.41V350.01L417.84 352.72L414.6 355.73L414.17 357.87L415.26 358.98L416.16 358.51L417.74 359.08L418.21 359.69L418.39 360.69L418.22 361.4L417.49 362.3L416.98 364.19L418.17 367.65L415.08 369.71L413.92 369.91L413.06 370.81L412.58 371.93L407.69 374.67L406.99 373.9L402.64 372.04L402.09 372.52L401.51 372.61L399.76 372.62L398.28 372.34L394.42 372.5L392.41 371.61L388.28 374.25L385.37 377.17H385.04L383.73 375.75L382.21 375.45L379.02 377.09L375.31 376.47L372.83 377.43L370.6 377.97L369.19 380.07L367.98 382.53L368.04 383.53L367.2 384.83L366.38 385.11L365.54 384.95L365.09 385.09L364.15 385.83L362.51 387.93L361.94 389.83L362.5 390.44L362.49 390.78L362.13 391.01L361.27 390.55L361.03 390.1L358.37 387.86L355.22 387.25L353.6 385.7L351.7 385.27L350.21 385.23L346.86 383.89L346.18 383.04L343.11 381.48L342.44 380.87L341 380.16L339.86 379.99L337.16 378.31L334.38 378.47L330.58 377.77L330.45 377.44L330.71 376.6L331.28 375.43L332.59 373.67L332.51 373.25L330.26 372.35L329.12 373.02L328.46 372.83L328.18 372.42L327.95 371.31L328.21 368.73L328.02 366.96L327.07 364.76L326.89 361.33L325.48 359.14L325.32 358.43L325.72 355.02L328.27 351.17L328.65 348.26L329.35 347.49L331.37 346.65L333.29 344.88L334.54 342.86L334.87 340.91L335.37 339.9L336.65 338.86L337.47 337.43L337.55 335.89L339.3 334.92L340.7 332.3L343.35 332.17L346.07 331.31L346.39 331.03L348.37 326.84L349.08 325.88L349.72 321.78L350.1 321.04L352.02 319.1L353.67 318.09L354.74 317.83L355.97 318.51L357.18 317.78L358.57 316.35L359.41 313.42L360.58 310.55L360.57 309.75L360.09 308.61L360.67 305.87L362.27 302.78L362.15 297.6L363.36 296.82L364.39 294.19L366.39 291.02L366.78 289.95L366.62 287.23L366.97 286.33L367.94 285.47L368.21 284.34L368.13 283.71L368.47 283.26L368.67 281.38L369.33 280.15L371.14 278.06L371.7 277.76L371.67 279.47L370.45 281.35L369.93 283.69L372.33 284.09L374.53 285.12L378.46 285.52L381.55 287.23L385.62 288.66L386.25 288.43L387.88 282.49L389.35 280.1L390.53 279.13L391.68 280.44L392.72 282.32L393.83 286.03L394.44 289.13L395.58 289.18L396.33 288.43L396.63 287.43L397.19 286.89L399.95 287.23L404.48 286.7L404.7 287.44L404.14 289L407.27 290.47L410.62 291.15L411.31 291.07L411.82 287.77L412.37 287.8L413.88 290.42L414.34 290.66L416.12 289.76L418.64 287.68L423.17 286.68H424.72L427.28 285.58L429.02 284.24L434.38 282.82L437.1 285.28L437.12 285.66L435.69 286.72L435.21 289.24L435.31 289.57L436.94 290.41L436.88 291.35L436.65 291.73L435.06 292.76L433.87 296.59L433.82 298.14L434.44 301.66L436.14 305.12L439.35 307.74L439.4 308.21L438.68 309.63L438.58 310.3L439.25 312.02L439.48 313.3L439.23 314.07L437.75 316.04L436.75 317.05L433.52 316.71L432.62 314.95L430.2 313.47L429.03 314.96L429.61 318.73L429.04 319.27L428.64 319.4L425.86 318.26L424.69 318.49L424.32 318.77L423.6 321.95L424.32 322.05L424.81 323.21L424.24 324.15L423.51 324.85L423.55 326.75L423.97 327.36L424.5 327.55L425.19 331.81L424.66 332.34L421.3 333.24L419.01 334.75L417.74 334.87Z" stroke="white" stroke-width="0.5"/>
<path d="M459.6 129.92L459.56 130.25L457.52 132.4L457.09 132.57L457.05 134.01L459.02 132.31L459.7 131.1L461.82 129.52L462.71 128.38L463.74 122.05L464.89 121.35L466 121.23L467.67 120.31L468.32 120.18L468.78 120.3L468.86 121.93L468.66 122.38L467.24 124.25L464.03 126L464 126.72L464.73 126.84L465.18 126.03L466.33 125.72L466.55 126.55L465.96 127.06L466.21 127.36L470.42 122.39L471.28 122.72L473.86 121.79L477.9 122.22L477.44 119.81L478.05 119.58L480.47 119.66L482.25 120.04L484.88 121.09L485.92 121.2L488.07 122.58L489.47 122.61L490.73 123.91L492.62 125.23L495.12 125.81L496.28 125.62L496.84 126.38L497.18 126.43L498.77 126.34L501.23 127L501.49 126.1L500.82 125.63L502.49 125.25L503.06 125.36L502.97 125.78L502.51 127.21L502.74 127.93L503.37 128.47L502.99 130L501.2 132.27L497.07 136.24L493.75 136.7L492.95 136.54L490.03 139.94L490.07 141.74L489.19 143.57L487.3 145.42L486.48 147.4L485.84 147.57L485.07 148.62L485.43 150.54L486.66 151.37L487.04 152.65L486.76 154.11L485.62 156.98L487.2 159.79L487.75 162.77L487.64 165.2L487.43 165.75L483.33 170.17L483.16 172.65L483.28 174.76L483.79 177.06L485.57 179.1L487.18 180.01L487.35 180.51L487.48 181.35L487.09 183.55L486.8 183.99L486.68 185.2L486.18 186.66L484.97 187.97L482.68 188.26L482.03 187.98L481.2 188.02L478.77 188.88L477.25 188.99L474.75 187.17L473.74 186.96L472.28 187.15L471.27 187.75L470.15 188.01L469.92 187.71L469.08 187.95L468.58 188.17L466.68 190.08L466.69 190.54L466.06 191.41L464.05 193.41L461.71 194.32L458.84 196.88L457.51 197.41L456.46 197.45L454.76 198.98L453.68 199.34L451.07 199.66L448.35 200.42L446.22 202.37L445.24 205.34L444.85 208.31L444.22 210.63L442.77 213.37L442.47 213.59L442.13 214.41L442 215.93L440.8 218.41L439.1 219.81L438.37 221.81L439.08 223.75L439.55 226.93L441.28 229.99L441.24 230.51L440.48 231.91L440.35 238.27L439.2 240.72L438.94 241.78L438.89 243.7L437.61 243.04L437 242.22L436.18 241.77L435.19 241.48L433.41 241.68L432.7 241.5L431.35 239.5L430.36 236.64L428.23 235.02L428.09 233.37L429.73 231.56L429.65 231.03L425.77 229.08L425.15 228.03L425.09 226.37L424.34 224.78L423.4 224.09L421.32 223.81L421.12 223.39L421.38 222.68L424.01 220.14L423.64 218.83L424.37 216.15L425.06 214.72L425.63 214.17L426.97 213.63L430.36 213.28L429.97 211.93L430.61 208.68L430.53 206.92L428.73 205.71L424.46 206.65L422.31 207.99L420.04 204.97L419.13 204.12L416.13 199.97L415.25 200.04L414.41 198.6L415.02 197.41L414.91 196.53L414.66 196.19L413.29 195.95L412.87 196.22L410.94 194.89L411.12 194.18L412.88 193.52L414.63 191.48L414.88 189.89L414.6 188.89L414.91 186.53L416.68 180.37L416.69 179.94L416.01 178.8L415.78 177.72L415.99 174L415.35 172.5L414.88 169.01L414.04 167.98L410.64 166.54L409.42 166.52L409.14 166.2L409.06 165.17L408.47 164.48L406.73 164.19L405.77 164.71L404.37 164.62L401.59 163.11L400.73 163.05L398.77 163.58L396.15 165.43L395.62 166.07L395.13 165.99L409.84 154.16L412.19 154.39L413.36 153.47L414.91 151.3L415.34 150.15L416.89 148.98L417.51 146.1L418.63 145.64L421.07 143.32L421.54 142.11L421.83 140.21L423.43 135.52L425.39 133.98L426.87 132.22L427.7 130.77L428.16 129.49L427.98 127.67L428.77 126.86L427.73 125.28L431.41 122.19L431.28 120.55L431.78 118.17L433.52 116.6L433.88 115.89L434.78 112.87L434.86 111.26L434.43 110.73L433.44 110.89L433.17 110.4L433.22 109.78L434.36 109.63L434.93 108.89L435.64 104.5L435.48 103.12L435.95 102.09L436.72 101.64H437.35L437.59 101.4L437.53 100.86L437.87 100.11L438.45 99.58L439.79 100.56L440.24 102.4L441.43 102.52L442.2 101.16L442.81 104.09L443.8 104.13L444.09 103.64L444.16 102.7L445.01 102.66L446.7 103.19L447.2 103.88L445.77 105.58L446.44 106.28L446.46 106.83L447.67 104.79L448.16 103.25H448.61L449.01 104.27V104.85L448.14 105.77L447.87 106.76L447.95 109.47L448.21 109.8L448.68 109.92L449.26 109.78L450.22 108.85L449.75 107.85L449.89 107.25L451.21 105.82L452.26 105.57L454.39 106.16L455.89 105.05L455.94 105.97L455.58 106.18L454.45 107.71L455.04 108.29L455.14 107.92L456.39 107.32L456.97 108.11L456.83 109.32L458.46 111.07L459.32 110.63L460.9 111.3L461.67 113.7L461.56 114.65L459.37 117.38L458.99 118.27L459.09 118.93L459.69 117.9L461.44 116.22L462.27 116.19L463.14 117L463.66 118.89L463.39 120.12L462.42 120.31L461.39 121.22L460.23 122.71L460.3 123.48L459.14 125.83L458.52 129.35L458.73 129.69L459.6 129.92ZM460.12 130.37L460.06 129.58L460.59 128.05L460.18 126.98L460.31 126.32L461.22 125.08L461.77 124.89L461.82 127.24L461.6 128.58L460.8 129.18L460.12 130.37ZM453.82 104.61L453.38 104.15L453.3 103.55L454.1 102.43L454.94 102.4L455.62 102.82L455.72 103.16L455.53 103.52L453.82 104.61ZM457.32 108.79L457.03 108.49L457.09 107.96L458.15 107.07L458.63 107.14L459.13 107.99L458.99 108.6L458.59 108.43L457.32 108.79ZM443.16 103.98L442.95 103.93L443.9 100.35L444.2 100.44L444.23 100.67L443.82 103.73L443.16 103.98Z" fill="#CCCCCC" stroke="white" stroke-width="0.5"/>
<path d="M528.53 366.33L527.62 365.78L525.08 364.97L523.5 365.05L522.42 365.37L521.58 365.98L519.4 366.27L518.06 366.14L519.73 368.41L519.71 369.22L518.58 369.11L517.53 368.37L517.22 368.39L515.05 369.7L513.88 371.63L514.18 372.33L515.51 373L516.03 373.66L516 375.58L515.7 377.12L515.91 377.53L517.22 377.88L517.39 379.6L517.07 380.02L516.12 380.26L515.15 380.23L514.35 379.88L512.87 379.97L512.44 380.52L512.93 381.23L513.69 381.51L514.14 381.22L514.66 381.31L515.76 382.58L517.03 385.39L517.32 387.82L516.78 390.79L515.07 392.88L513.83 393.74L513.57 394.18L513.33 395.9L512.45 398.19L511.34 399.46L510.37 402.7L509.82 403.02L504.67 402.99L502.95 405.05L502.79 405.47L503.38 408.59L502.81 409.89L502.37 412.23L502.66 412.37L500.13 414.72L498.89 414.99L498.33 415.49L499.07 416.19L496.71 422.24L494.81 425.95L494.72 426.7L496.16 426.83L496.45 427.44L496.24 427.96L493.71 428.94L484.2 433.47L482.83 433.67L482.85 433.21L482.36 433.04L479.83 432.77L479.26 432.83L477.64 433.77L476.39 433.93L473.19 434.01L472.83 433.69L472.32 433.77L468.22 435.55L467.17 436.32L465.46 437.09L464.96 436.81L462.37 436.98L459.46 438.32L457.04 439.06L456.36 439.55L455.11 440.28L452.91 440.5L450.98 441.52L449.75 442.76L447.96 443.43L445.58 443.68L443.24 443.6L443.23 443.11L443.58 442.62L443.49 442.27L442.3 442.6L442.12 444.9L442.36 445.13L442.31 445.97L441.56 446.95L440.26 447.27L439.69 446.84L436.08 447.84L435.89 447.31L433.88 447.55L432.76 447.3L430.73 443.99L431.95 443.28L431.43 441.57L429.63 440.74L427.84 439.51L427.13 437.9L427.66 436.34L427.85 432.89L427.59 429.95L429.45 427.23L430.15 425.05L430.2 423.78L429.97 423.41L426.27 422.09L425.27 422.14L424.99 422.5L424.21 422.81L422.6 422.86L422.63 422.01L421.8 420.02L420.5 418.23L420.13 416.02L419.82 415.4L419.03 414.66L419.22 412.72L420.74 410.69L420.8 410.13L420.4 408.58L418.52 407.37L417.94 406.76L418.23 404.39L418.8 403.38L418.6 402.34L415.33 398.99L414.03 399.28L413.18 399.92L411.53 399.14L409.15 399.25L408.84 399.86L409.04 400.32L408.6 401.31L405.82 401.99L404.71 401.56L403.2 400.11L402.19 401.36L394.01 402.04L393.55 402.52L393.07 403.71L393.34 406.25L392.93 406.69L391.74 406.17L391.73 403.39L391.48 402.43L391.12 402.04L390.56 401.99L390.3 402.18L389.89 403.31L389.22 404.25L388.68 404.57L388.06 404.55L386.85 402.45L386.52 401.03L386.66 400.12L384.98 399.33L382.8 397.91L380.81 398.5L379.19 398.28L377.52 398.63L373.23 397.67L370.68 397.59L368.95 396.04L368.2 395.9L366.7 396.51L365.27 398.2L363.35 398.57L361.2 399.68L359.98 400.81L360.29 398.19L359.7 394.98L360.69 390.8L361.27 390.55L362.13 391.01L362.49 390.78L362.5 390.44L361.94 389.83L362.51 387.93L364.15 385.83L365.09 385.09L365.54 384.95L366.38 385.11L367.2 384.83L368.04 383.53L367.98 382.53L369.19 380.07L370.6 377.97L372.83 377.43L375.31 376.47L379.02 377.09L382.21 375.45L383.73 375.75L385.04 377.17H385.37L388.28 374.25L392.41 371.61L394.42 372.5L398.28 372.34L399.76 372.62L401.51 372.61L402.09 372.52L402.64 372.04L406.99 373.9L407.69 374.67L412.58 371.93L413.06 370.81L413.92 369.91L415.08 369.71L418.17 367.65L416.98 364.19L417.49 362.3L418.22 361.4L418.39 360.69L418.21 359.69L417.74 359.08L416.16 358.51L415.26 358.98L414.17 357.87L414.6 355.73L417.84 352.72L420.16 350.01V349.41L418.51 344.85L417.09 343.82L416.24 343.48L415.39 342.27L415.8 340.8L416.84 339.55L417.52 337.96L417.21 336.39L417.74 334.87L419.01 334.75L421.3 333.24L424.66 332.34L425.19 331.81L424.5 327.55L423.97 327.36L423.55 326.75L423.51 324.85L424.24 324.15L424.81 323.21L424.32 322.05L423.6 321.95L424.32 318.77L424.69 318.49L425.86 318.26L428.64 319.4L429.04 319.27L429.61 318.73L429.03 314.96L430.2 313.47L432.62 314.95L433.52 316.71L436.75 317.05L437.75 316.04L438.26 318.45L436.83 321.89L437.23 322.12L438.57 321.21L439.27 320.21L439.99 320.08L442.12 320.46L443.16 319.69L445.01 317.12L446 317.27L447.43 316.74L449.24 315.19L450.19 314.02L452.21 313.61L455.58 311.75L456.22 310.64L460.49 307.61L464.31 306.03L466.11 306.12L467.31 306.62L469.49 306.65L471.77 307.18L472.62 307.64L471.33 310.38L471.18 311.27L471.44 312.76L472.05 313.26L477.38 314.72L478.02 314.55L478.83 313.43L480.71 312.54L482.48 312.28L485.21 313.03L486.31 313.57L490.66 317.21L491.64 317.03L493.81 318.65L496.34 319.87L497.27 320.09L497.78 319.88L499.31 321.12L503.7 319.89L504.08 320.07L510.6 326.27L511.04 330.23L511.61 330.02L514.22 330.47L515.69 329.97L517.01 328.98L519 329.13L521.73 329.69L523.99 330.77L526.18 331.38L528.3 331.35L531.13 333.82L531.86 334.2L532.75 334.27L533.53 335.29L533.95 336.46L532.48 339.54L527.52 343.76L527.37 346.41L527.93 347.43V347.85L526.91 348.56L524.43 348.32L523.61 349.2L522.79 352.5L522.26 356.9L522.48 357.15L522.83 356.96L523.03 356.51L523.67 356.27L524.25 357.5L524.03 359.01L524.18 359.52L528.32 362.58L528.85 363.62L528.86 364.15L528.18 365.5L528.53 366.33Z" fill="#CCCCCC" stroke="white" stroke-width="0.5"/>
<path d="M359.98 400.81L359.58 403.27L359.3 403.67L357.8 404.45L356.48 404.49L356.01 404.71L354.79 405.74L352.8 408.42L352.07 409.07L351.06 409.37L350.44 411.05L350.28 413.98L347.69 417.62L346.73 418.14L346.5 418.52L346.81 420.45L346.73 421.4L345.52 423.74L343.52 426L343.87 426.85L343.59 428.06L342.15 429.09L341.75 430.3L340.02 431.99L338.76 434.43L336.81 436.3L329.25 440.83L327.99 441.97L327.25 443.51L326.41 444.59L321 446.86L319.89 447.68L318.96 450.01L318.98 451.16L317.53 454.72L316.86 455.4L315.2 456.41L314.09 456.73L313.76 457.08L312.19 465L311.83 465.82L309.45 467.38L306.9 465.05L303.49 463.16L299.5 465.13L298.82 465.88L297.16 466.37L294.58 466.8L292.22 466.34L291.21 465.69L290.74 461.42L290.42 460.72L289.52 459.77L289.29 457.3L289.8 455.96L289.16 455.17L289.07 454.73V451.86L288.18 449.89L287.58 447.15L287.53 446.43L288.12 445.07L288.14 443.46L286.57 442.37L286.19 441.57L286.03 439.41L284.38 437.59L282.21 437.33L280.7 437.64L278.87 437.35L276.41 435.39L275.85 433.9L274.31 434.23L272.14 436.97L271.14 436.37L269.42 437.18L268.34 437.34L266.6 436.65L264.04 436.16L260.58 436.39L256.92 435.68L256.44 434.77L254.45 434.64L253.56 435.16L251.06 434.28L251.97 427.01L251.54 424.63L252.14 423.21L253.12 421.75L253.72 415.72L253.06 413.39L253.01 411.66L252.25 410.7L251.82 410.61L251.33 411.26L250.69 408L249.9 406.13L248.69 404.11L248.34 402.28L252.37 399.98L253.13 399.1L248.93 395.24L254.31 383.82L255.43 383.76L255.15 381.63L254.41 381.5L257.64 371.17L258.3 370.01L255.21 364.16L255.24 362.25L255.94 362.45L256.96 363.55L259.11 365.07L264.73 363.1L266.78 361.1L268.8 358.15L268.89 356.98L270.29 355.53L272.88 355.56L274.44 355.34L275.21 355.68L276.87 355.17L278.22 353.92L280.24 353.43L281.51 353.63L282.27 354.78L285.06 356.03L287.68 356.5L288.33 356.85L288.6 357.71L289.38 358.73L292.41 359.89L293.67 361L294.91 361.57L299.43 360.94L300.69 360.14L301.18 359.29L302.61 358.68L305.05 358.75L306.64 359.79L306.94 361.16L307.18 361.41L308.17 361.45L310.3 360.57L311.31 360.63L316.93 354.62L318.27 354.49L317.04 361.1L315.24 361.8L313.58 364.63L313.39 365.09L313.54 365.62L314.84 365.73L316.58 367L321.2 367.27L321.77 366.7L324.43 366.62L325.3 366.7L326.47 367.27L328.02 366.96L328.21 368.73L327.95 371.31L328.18 372.42L328.46 372.83L329.12 373.02L330.26 372.35L332.51 373.25L332.59 373.67L331.28 375.43L330.71 376.6L330.45 377.44L330.58 377.77L334.38 378.47L337.16 378.31L339.86 379.99L341 380.16L342.44 380.87L343.11 381.48L346.18 383.04L346.86 383.89L350.21 385.23L351.7 385.27L353.6 385.7L355.22 387.25L358.37 387.86L361.03 390.1L361.27 390.55L360.69 390.8L359.7 394.98L360.29 398.19L359.98 400.81Z" fill="#CCCCCC" stroke="white" stroke-width="0.5"/>
<path d="M207.99 297.05L209.46 295.62L213.57 293.05L214.09 290.6L215.52 286.82L216.45 285.74L218.09 285.21L218.52 284.8L219.1 283.96L219.62 281.71L221.28 279.7L221.84 277.46L221.91 275.75L221.33 274.26L221.37 272.21L219.84 268.87L218.94 268.9L218.36 268.39L217.93 265.14L218.07 263.82L219.43 262.74L220.83 260.99L221 260.24L219.59 256.65L218.52 256.22L217.41 256.11L213.91 256.2L212.69 255.09L212.93 254.53L195.77 254.48L196.67 245.48L195.17 242.73L194.9 240.97L194.93 240.17L195.93 236.65L195.55 234.72L196.49 233.05L195.66 230.78L195.51 229.39L195.25 228.78L194.47 228.31L194.41 227.96L195.7 222.97L196.46 221.55L195.86 220.31L194.46 219.34L242.31 219.02L243.52 218.29L244.7 213.07L246.08 208.85L245.62 206.91L244.96 205.54L244.86 204.69L245.28 203.84L246.14 203.2L247.34 201.38L247.61 200.37L247.27 199.53L247.33 198.77L247.53 198.16L248.71 196.96L249.88 198.04L252.33 202.1L252.73 203.86L254.1 207.82L255.42 209.75L256.19 211.37L255.96 213.81L256.44 216.21L257.17 218.41L258.7 219.52L261.7 222.27L265.08 223.97L265.31 224.91L265.27 226.01L265.5 226.5L266.45 226.9L267.27 226.73L268.9 227.18L269.44 227.9L269.64 228.98L269.99 229.3L271.36 228.85L275.05 230.34L309.09 232.76L372.06 236.24L371.41 237.26L370.85 239.15L369.75 240.4L369.31 243.54L368.88 244.39L368.51 244.66L366.57 249.95L366.03 252.92L365.99 255.87L364.11 261.86L364.17 262.72L365.56 264.06L365.4 264.93L364.58 265.82L364.53 266.32L365.63 268.57L365.16 271.88L365.17 273.45L365.69 274.03L366.13 277.08L365.39 279.84L366.37 283.18L367.33 283.69L368.13 283.71L368.21 284.34L367.94 285.47L366.97 286.33L366.62 287.23L366.78 289.95L366.39 291.02L364.39 294.19L363.36 296.82L362.15 297.6L362.27 302.78L360.67 305.87L360.09 308.61L360.57 309.75L360.58 310.55L359.41 313.42L358.57 316.35L357.18 317.78L355.97 318.51L354.74 317.83L353.67 318.09L352.02 319.1L350.1 321.04L349.72 321.78L349.08 325.88L348.37 326.84L346.39 331.03L346.07 331.31L343.35 332.17L340.7 332.3L339.3 334.92L337.55 335.89L337.47 337.43L336.65 338.86L335.37 339.9L334.87 340.91L334.54 342.86L333.29 344.88L331.37 346.65L329.35 347.49L328.65 348.26L328.27 351.17L325.72 355.02L325.32 358.43L325.48 359.14L326.89 361.33L327.07 364.76L328.02 366.96L326.47 367.27L325.3 366.7L324.43 366.62L321.77 366.7L321.2 367.27L316.58 367L314.84 365.73L313.54 365.62L313.39 365.09L313.58 364.63L315.24 361.8L317.04 361.1L318.27 354.49L316.93 354.62L311.31 360.63L310.3 360.57L308.17 361.45L307.18 361.41L306.94 361.16L306.64 359.79L305.05 358.75L302.61 358.68L301.18 359.29L300.69 360.14L299.43 360.94L294.91 361.57L293.67 361L292.41 359.89L289.38 358.73L288.6 357.71L288.33 356.85L287.68 356.5L285.06 356.03L282.27 354.78L281.51 353.63L280.24 353.43L278.22 353.92L276.87 355.17L275.21 355.68L274.44 355.34L272.88 355.56L270.29 355.53L268.89 356.98L268.8 358.15L266.78 361.1L264.73 363.1L259.11 365.07L256.96 363.55L255.94 362.45L255.24 362.25L254.58 361.58L254.26 360.78L254.8 360.07L252.36 357.92L251.08 358.55L250.56 358.5L249.39 357.82L248.94 357.12L246.92 355.71L245.03 354.95L244.73 354.63L244.43 353.51L244.2 350.58L243.59 348.81L243.4 345.15L244.28 343.51L245.42 342.42L245.76 340.64L245.71 338.75L244.75 338.81L244.35 339.41L243.97 339.57L217.11 338.49L216.06 325.84L210.69 319.71L215.57 319.65L215.22 312.1L212.58 306.78L212.09 304.81L212.35 303.75L212.96 303.2L213.61 301.92L212.17 298.99L209.06 297.95L207.99 297.05Z" fill="#CCCCCC" stroke="white" stroke-width="0.5"/>
<path d="M372.06 236.24L309.09 232.76L275.05 230.34L271.36 228.85L269.99 229.3L269.64 228.99L269.44 227.9L268.89 227.18L267.26 226.73L266.44 226.9L265.49 226.51L265.26 226.01L265.3 224.91L265.07 223.97L261.69 222.27L258.69 219.51L257.15 218.4L256.43 216.2L255.95 213.81L256.18 211.37L255.41 209.74L254.08 207.81L252.71 203.86L252.32 202.1L249.87 198.04L248.69 196.96L248.12 196.4L247.97 194.44L247.33 193.18L245.74 191.62L244.67 191.04L244.3 190.47L243.47 188.13L243.5 187L244.08 186.03L245.53 184.9L246.31 183.59L276.21 119.35L274.4 117.68L274.53 116.9L274.34 116.42L272.95 116.77L272.1 117.38L270.23 116.6L269.13 114.43L266.44 112.98L265.17 111.64L265.09 111.04L263.77 110.22L262.4 110.07L260.15 109.42L257.77 108.11L255.89 107.44L254.54 106.35L253.91 105.45L249.33 102.91L244.69 99.14L244.39 98.7L244.35 97.77L243.8 95.94L241.96 94.71L241.26 94.9L240.9 94.7L239.07 92.72L239.12 90.61L239.47 89.92L239.29 89.51L237.6 88.66L237.36 87.98L237.18 85.71L237.61 84.26L237.21 79.4L235.62 62.43L236.37 62.75L236.8 63.33L236.78 63.81L237.23 64.21L238.15 64.49L239.52 63.78L239.99 62.97L242.7 63.2L243.51 62.15L242.97 60.34L244.76 59.98L246.17 58.35L248.81 59.36L250.69 59.39L251.23 57.87L254.56 56.25L256.53 56.64L257.69 56.53L258.18 56.28L259.38 54.8L259.78 53.4L261.24 52.3L262.1 52.19L262.75 52.65L264.86 51.52L265.27 51.63L265.64 52.62L266.37 53.07L268.4 53.55L270.01 53.8L270.57 53.2L272.24 52.81L273.02 53.09L273.84 53.08L274.7 52.74L276.94 53.04L281.61 54.42L282.57 54.28L283.57 53.41L283.54 51.13L281.47 48.63L280.23 48L280.72 46.32L282.03 44.87L282.31 43.76L282.62 43.59L283.33 43.78L284.16 44.54L286.51 45.65L298.13 43.32L299.7 45.01L300.72 45.07L301.16 44.78L301.78 45.35L302.15 47.65L301.53 48.95L301.28 53.49L301.52 54.93L301.83 55.47L303 55.49L304.08 55.2L307.47 55.57L308.76 56.06L310.69 57.11L311.36 57.91L311.85 59.19L313.04 59.31L314.18 60.15L314.98 61.13L315.82 61.4L317.15 61.26L317.53 60.84L318.47 60.7L321.31 63.36L321.99 63.33L322.48 64.51L321.8 64.74L321.61 65.46L322.37 68.29L324.39 70.55L326.96 71.28L327.13 71.61L326.7 74.75L326.89 76.86L327.56 78.37L328.18 78.93L328.77 80.74L328.64 82.32L330.14 85.8L330.96 85.99L331.74 85.63L334.67 88.91L334.59 91.34L335 92.28L335.95 92.47L336.28 92.94L336.59 94.52L336.38 95.21L336.49 96.51L338.36 97.9L338.79 99.4L340.24 100.43L343.03 101.11L344.33 100.99L345.1 100.65L346.04 100.71L345.51 101.45L345.8 103.04L345.63 103.57L344.34 104.68L342.95 104.85L342.45 104.67L341.61 103.88L340.95 103.73L337.57 105.31L337.2 105.85L335.6 106.57L334.97 106.55L333.42 107.14L333.46 107.72L339.92 106.66L340.8 107.32L340.93 107.78V108.44L340.31 108.94L340.61 109.3L341.24 109.1L342.1 108.1L343.12 108.09L343.65 107.82L344.25 107.94L345.32 107.52L346.46 106.95L349.74 104.61L351.24 104.26L353.08 103.45L356.24 101.61L356.78 100.61L357.45 100.09L359.54 99.08L360.2 98.36L359.95 97.69L360.16 97.28L361.29 97L362.38 97.06L362.79 97.27L363.17 101.07L362.65 103.65L362.98 105.27L363.79 106.87L365.1 108.22L365.4 109.86L365.28 110.33L363.44 112.17L362.97 112.3L362.1 111.78L360.28 111.26L359.02 110.95L358.09 111.09L355.96 110.05L355.7 108.93L354.82 108.4L352.54 112.22L351.93 114.59L352.61 117.56L353.09 118.2L354.01 118.82L353 117.68L352.57 114.99L352.69 114.47L355.26 110.25L357.57 111.43L357.68 111.88L360.21 114.33L359.96 116.35L359.22 116.9L359.62 119.23L360.14 120.36L361.26 121.11L362 121.26L362.52 121.75L362.18 121.11L361.41 120.87L360.21 119.83L359.99 119.15L360.33 114.95L361.15 113.76L362.58 114.49L363.41 115.69L363.32 116.48L364.52 117.34L364.77 117.05L363.77 115.79L362.85 113.69V113.25L365.11 110.93L366.73 111.02L368.66 111.66L369 112.22L368.39 112.81L368.71 113.09L369.19 113.12L370.22 112.95L371.55 112.05L375.64 111.09L376.41 111.29L378.15 112.35L381.32 111.93L382.39 111.52L383.41 110.51L384.39 109.92L386.13 109.41L386.9 109.48L386.96 110.23L384.92 114.25L384.68 115.75L384.22 116.82L383.39 117.85L383.38 118.73L383.96 120.15L383.64 122.62L384.52 121.43L384.53 120.03L386.07 117.03L387.2 113.84L388.32 112.28L388.59 112.01L389.35 111.96L389.93 111.61L391.75 111.38L392.63 110.03L394.14 108.34L395.5 106.08L396.02 105.62L396.81 106.11L397.43 105.65L399.05 107.99L400.24 108.58L400.19 107.84L399.84 107.09L400.46 106.08L403.97 105.57L402.94 105.25L399.43 105.71L399.12 105.5L399.41 103.07L399.92 102.78L400.59 103.16L401.61 103.27L402.68 100.17L402 98.78L402.03 98.1L403.2 96.29L406.04 93.81L406.4 93.73L407.51 94.87L410.44 92.78L410.9 92.71L411.3 93.16L411.4 93.73L411.08 94.4L412.15 94.24L412.96 93.66L413.32 92.88L413.95 92.69L414.23 92.84L414.97 94.23L416.3 95.43L416.5 94.87L416.39 94.49L415.43 94L415.29 93.71L415.16 92.51L415.33 92.09L415.77 91.9L418.05 92.16L419.23 92.81L419.85 93.83L421.48 94.54L423.13 93.76L423.66 95.9L423.16 96.21L423.13 96.8L424.05 96.28L425.21 93.93L425.59 94.16L425.36 95.49L425.77 95.93L428.28 95.67L428.73 96.32L429.19 98L428.59 98.95L429.44 98.45L429.7 98.82L431.59 98.96L435.12 97.72L434.81 99.3L434.06 101.13L435.53 100.64L436.12 100.02L436.75 101.64L435.98 102.09L435.51 103.12L435.67 104.5L434.96 108.89L434.39 109.63L433.25 109.78L433.2 110.4L433.47 110.89L434.46 110.73L434.89 111.26L434.81 112.87L433.91 115.89L433.55 116.6L431.81 118.17L431.31 120.55L431.44 122.19L427.76 125.28L428.8 126.86L428.01 127.67L428.19 129.49L427.73 130.77L426.9 132.22L425.42 133.98L423.46 135.52L421.86 140.21L421.57 142.11L421.1 143.32L418.66 145.64L417.54 146.1L416.92 148.98L415.37 150.15L414.94 151.3L413.39 153.47L412.22 154.39L409.87 154.16L395.16 165.99L395.65 166.07L397.94 166.88L399.81 166.64L401.1 166.76L402.12 168.42L402.51 168.73L403.38 168.87L404.64 170.04L404.6 170.67L404.23 171.34L403.51 171.71L402.54 171.78L402.25 172.06L402.34 173.47L403.35 174.81L402.43 177.56L401.79 178.04L400.33 178.5L400.08 178.96L400.37 180.16L400.18 181.5L398.88 181.65L397.37 182.99L396.52 184.26L396.67 185.77L396.43 186.27L393.93 187.47L390.52 188.61L388.05 190.39L387.86 190.74L388.29 192.93L388.35 195.6L387.07 197.7L385.66 199.38L385.51 199.95L385.68 200.83L386.27 201.79L387.94 203.53L388.69 203.85L388.84 204.15L388.18 208.19L386.42 213.34L385.34 214.15L383.64 217.39L383.46 218.38L382.52 219.92L381.78 220.77L380.73 220.93L379.36 221.85L378.33 223.77L377.12 225.45L375.94 226.54L374.79 228.12L373.66 232.58L372.06 236.24ZM393.22 105.93L388.7 107.89L385.31 108.41L383.29 108.1L382.64 109.23L380.8 110.42L380.08 109.81L379.47 108.28L379.24 108.56L379.66 109.79L379.32 110.6L378.61 111.01L374.84 109.37L374.04 110.09L369.85 111.35L366.65 110.78L365.84 110.17L365.6 108.32L365.37 107.91L364.26 106.89L363.2 105.29L362.99 103.51L363.51 100.76L364.13 100.38L365.89 100.74L366.82 99.99L366.9 99.43L365.6 99.86L364.38 99.73L363.44 99.02L363.26 97.97L363.6 92.89L364.33 92.13L364.68 92.88L366.44 93.48L366.99 93.42L366.53 93L365.26 92.78L364.36 90.62L364.72 88.94L365.61 86.97L366.94 85.64L367.9 85.07L369.24 84.58L370.56 84.45L374.02 84.97L381.23 86.74L384.93 86.28L385.04 85.98L386.18 85.36L388.34 84.99L391.23 85.28L394.03 86.1L400.51 86.95L401.14 87.42L401.09 88.65L400.39 89.39L399.71 90.89L399.35 93.54L398.49 96.84L397.2 97.52L396.85 98.21L397.08 99.4L395.1 101.98L393.71 105.48L393.22 105.93ZM346.01 105.76L345.26 105.25L346.36 103L346.27 101.21L346.52 101L348.85 100.52L349.75 99.66L349.9 99.16L349.7 96.82L350.56 94.24L351.82 92.75L354.11 91.28L356.98 91.08L357.7 93.44L356.6 95.63L355.75 98.67L354.65 99.34L353.31 101.37L352.53 102.09L347.59 105.4L346.01 105.76ZM374.49 82.86L373.46 82.61L371.01 82.69L370.22 82.53L369.93 82.27L369.55 81.18L369.56 79.94L371.07 79.52L372.96 79.56L375.15 78.27L379.96 77.67L380.73 77.93L381.41 78.61L381.23 79.63L378.67 81.02L376.89 83.5L375.79 84L374.49 82.86ZM379.28 82.86L381.14 81.66L383.12 81.69L384.77 82.31L385.3 83.3L385.35 83.92L384.47 84.69L381.62 84.97L380.45 85.29L378.19 84.4L377.99 83.87L379.28 82.86ZM362.3 87.25L361.8 86.99L361.19 87.03L359.65 86.34L359.86 85.18L360.5 84.26L362.42 83.86L364.78 82.96L366.1 83.04L366.9 83.72L366.99 83.85L365.06 85.46L363.99 85.8L362.3 87.25ZM371.72 77.56L370.9 77.26L370.73 75.6L370.88 75L372.05 73.69L374.5 72.77L374.75 72.89L375.28 73.57L375.32 74.46L373.37 76.45L371.72 77.56ZM357.89 97.78L357.75 97.37L357.94 96.44L358.98 93.63L361.57 91.94L362.29 91.66L362.98 91.8L362.82 93.59L361.26 94.03L359.64 96.22L357.89 97.78ZM368.8 80.21L367.61 79.9L367.31 79.42L368.19 78.46L368.9 74.51L369.79 73.28L370.08 73.41L370.15 73.73L370.13 76.21L370.73 78.08L370.41 78.96L369.38 79.36L368.8 80.21ZM353.99 90.4L353.72 90.21L353.84 89.6L354.39 89.24L355.58 87.53L356.34 85.99L357.07 85.33L358.52 84.79L358.32 86.28L357.92 87.28L356.2 88.94L353.99 90.4ZM367.86 83.37L367.26 83.22L366.42 82.51L365.46 80.87L365.41 80.49L365.64 80.2L366.45 79.62L368.3 80.46L368.59 80.89L368.83 82.98L367.86 83.37ZM362.48 113.93L361.83 113.82L360.95 113.3L360.26 113.76L359.51 113.48L357.83 111.74V111.13L359.11 111.12L362.17 112.44L362.48 113.93ZM341.33 108.39L341.37 107.36L341.17 107.06L341.77 106.07L344.13 105.19L344.91 105.57L345.78 106.43L345.49 106.78L344.46 107.25L341.92 107.66L341.33 108.39ZM354.03 101.7L353.85 101.67L353.86 101.32L354.4 100.38L356.19 98.76L356.61 97.52L356.66 96.22L356.9 95.92L357.22 96.36V97.87L356.33 100.6L355.71 101.25L354.03 101.7ZM360.33 91.8L361.98 88.84L362.86 88.63L363.57 88.82L363.84 89.69L363.26 90.4L360.33 91.8ZM391.75 110.77L390.91 110.42L390.57 109.36L391.61 107.64L392.68 107.31L392.87 107.41L392.85 108.15L392.11 110.39L391.75 110.77ZM358.27 91.3L357.73 91.1L358.05 89.06L359.38 87.25L359.61 87.29L360.9 88.17L360.89 88.42L359.34 89.06L358.27 91.3ZM360.5 96.33L361.22 96.36L360.82 96.81L359.88 97.12L359.77 98.24L358.98 98.95L357.29 99.79L357.13 99.61L357.4 98.78L357.87 98.15L359.6 96.48L360.5 96.33ZM337.94 106.54L337.39 106.35L337.32 106L337.75 105.6L341.31 104L341.85 104.7L341.84 104.9L340.44 105.63L337.94 106.54ZM401.47 101.76L400.44 101.57L399.62 100.78L400.49 99.53L401.83 99.52L402.02 100.71L401.92 101.3L401.47 101.76ZM364.22 82.86L361.86 83.56L361.27 83.57L361.09 83.36L362.12 82.32L363.16 81.81L364.2 81.98L364.64 82.32L364.79 82.55L364.64 82.76L364.22 82.86ZM358.95 91.45L358.87 90.69L359.12 90.19L361.6 88.73L360.7 90.73L359.89 91.36L358.95 91.45ZM361.09 95.98L360.64 95.86L360.57 95.63L361.35 94.13L362.54 94.15L362.42 95.5L361.09 95.98ZM389.13 111.81L388.85 111.58L389.75 109.98L390.43 109.58L390.66 110.33L391.17 110.7L390.91 111.22L390.48 111.56L389.85 111.38L389.13 111.81ZM362.47 88.49L361.58 88.42L361.6 88.23L363.96 86.39L364 87.35L363.77 87.98L363.52 88.32L362.47 88.49ZM429.93 98.71L429.55 98.18L429.74 97.42L430.76 96.51L431.01 96.66L431.24 98.41L429.93 98.71Z" fill="#CCCCCC" stroke="white" stroke-width="0.5"/>
<path d="M611.46 200.15L608.96 198.09L608.14 197.83L605.49 197.62L603.18 198.69L601.7 199.97L601.25 201.77L599.35 202.8L597.34 203.25L596.2 203.23V203.83L595.4 204.36L593.22 204.65L589.34 204.39L587.73 205.27L587.18 205.91L585.36 206.01L584.47 206.7L583.93 207.46L584.32 208.19L584.33 208.73L583.93 209.21L582.15 210.74L580.81 210.9L579.16 211.74L577.56 210.95L576.61 210.01L576.26 207.77L576.5 207.28L576.32 206.98L575.18 206.66L574.74 206.95L573.23 207.2L573.27 206.75L575.8 204.11L575.97 203.68L575.25 201.81L575.21 201.34L575.58 200.56L578.58 199.49L578.69 199.19L578.19 197.8L574.69 195.88L573.21 196.29L570.99 197.55L570.06 199.06L568.58 199.93L567.53 200.24L564.83 202.12L563.31 203.76L561.68 203.99L559.05 204.96L558.28 204.63L558.33 203.95L557.7 202.71L557.32 202.63L556.39 203.36L554.88 203.68L553.89 203.35L552.49 201.44L552.09 201.35L551.92 201.1L553.11 199.98L554.72 196.49L554.38 195.3L553.69 195.22L552.45 194.33L552.47 192.67L552.12 191.95L551.54 191.66L551.3 191.25L551.42 190.32L551.59 189.94L552.68 189.31L553.34 188L552.82 186.69L553.85 183.69L554.69 182.54L554.77 182L555.34 181.54L557.27 183.18L558.17 183.6L561.05 184.21L562.21 183.08L565.44 181.42L566.26 180.71L566.36 179.67L566.77 178.72L569.95 177.51L571.38 177.39L574.64 176.35L575.28 176.43L575.81 176.87L575.82 178.06L572.83 181.27L572.39 182.23L572.01 183.97L571.6 184.35L570.75 184.6L570.54 184.91L570.46 186.63L573.99 187.15L574.31 187.38L574.62 188.76L574.91 188.99L578.06 187.73L579.83 187.65L581.78 187.95L582.67 189.12L582.15 190.66L582.98 191.4L585.33 190.47L585.83 189.73L586.38 188.52L585.91 187.58L585.75 186.16L586.23 185.57L587.24 185.89L586.71 184.36L585.99 183.58L586.3 182.1L588.12 180.75L589.5 180.7L589.92 181.09L589.82 182.09L590.44 182.58L593.86 182.98L594.39 183.33L600.22 182.94L602.39 183.24L604.85 184.34L605.89 183.94L609.39 184.15L610.32 183.91L610.41 186.31L611.86 190.7L611.92 191.34L611.74 192.28L611.37 192.73L611.34 193.61L611.92 192.87L612.43 191.37L612.44 193.35L613.03 194.36L612.76 199.54L612.4 200.14L611.46 200.15Z" fill="#CCCCCC" stroke="white" stroke-width="0.5"/>
<path d="M559.31 228.19L558.09 225.15L558.08 224.21L555.97 223.35L555.47 222.98L555.02 222.15L555.63 221.26L555.61 220.64L555.16 220.32L554.16 220.33L553.73 220.77L553.44 222.51L553.01 222.66L552.62 222.4L552.08 220.75L550.5 219.6L547.51 219.2L545.15 218.43L543.8 217.62L542.97 216.18L541.48 215.62L540.89 215.73L538.36 217.19L536.71 217.63L535.94 219.68L533.71 220.13L533.42 220.38L533.67 221.74L533.5 222.33L532.4 223.57L530.01 224.6L529.37 224.54L528.6 224.01L527.84 224.18L527.34 225.05L526.57 228.62L523.7 229.5L522.88 230.42L521.92 230.65L520.08 230.03L521 228.35L520.74 226.35L518.53 225.44L517.81 223.5L517.87 220.77L517.43 220.26L514.62 218.88L512.42 218.59L511.26 218.85L510.36 218.45L512.98 217.18L514.95 215.47L515.49 214.6L517.78 213.27L518.75 212.99L522.64 209.12L523.38 207.36L523.44 205.09L523.15 204.55L521.53 202.97L521.6 200.78L521 199.65L520.94 198.7L521.05 198.25L521.57 197.92L523.36 197.76L528.29 197.96L529.18 198.2L530.81 198.01L532.95 197.21L534.24 197.11L537.32 197.53L540.17 199.43L542 200.26L542.46 201.25L543.47 202.32L544.83 202.8L545.61 203.37L546.24 205.01L547.89 204.96L549.43 202.67L550.5 201.84L552.09 201.35L552.49 201.44L553.89 203.35L554.88 203.68L556.39 203.36L557.32 202.63L557.7 202.71L558.33 203.95L558.28 204.63L559.05 204.96L561.68 203.99L563.31 203.76L564.83 202.12L567.53 200.24L568.58 199.93L570.06 199.06L570.99 197.55L573.21 196.29L574.69 195.88L578.19 197.8L578.69 199.19L578.58 199.49L575.58 200.56L575.21 201.34L575.25 201.81L575.97 203.68L575.8 204.11L573.27 206.75L573.23 207.2L574.74 206.95L575.18 206.66L576.32 206.98L576.5 207.28L576.26 207.77L576.61 210.01L577.56 210.95L579.16 211.74L580.81 210.9L582.15 210.74L583.93 209.21L584.33 208.73L584.32 208.19L583.93 207.46L584.47 206.7L585.36 206.01L587.18 205.91L587.73 205.27L589.34 204.39L593.22 204.65L595.4 204.36L596.2 203.83V203.23L597.34 203.25L599.35 202.8L601.25 201.77L601.7 199.97L603.18 198.69L605.49 197.62L608.14 197.83L608.96 198.09L611.46 200.15L612.34 200.38L612.89 201.6L611.62 203.32L611.51 203.87L611.52 204.35L612.22 204.72L612.49 205.22L612.68 206.28L610.72 212.66L607.47 221.61L607.2 221.4L604.3 221.13L602.38 220.32L600.91 220.51L598.35 221.8L596.11 220.95L594.11 221.19L592.56 222.43L592.44 222.88L590.26 225.17L588.45 226.28L587.29 226.23L585.43 227.29L584.26 227.4L581.12 227.11L578.62 227.76L576.71 227.28L574.93 226.23L573.03 224.11L570.48 222.09L569.4 222.21L567.73 221.91L566.73 220.69L565.91 221.29L565.82 221.98L563.44 225.27L561.27 226.03L560.63 227.12L559.31 228.19Z" fill="#CCCCCC" stroke="white" stroke-width="0.5"/>
<path d="M506.73 127.91L508.04 128.03L508.73 127.8L510.97 128.31L511.96 129.16L512.28 129.76L512.17 130.56L511.08 132.41L509.5 134.38L509.32 135.84L509.61 137.13L511.41 141.85L514.56 148.27L515 150L516.36 151.59L516.34 152.35L515.6 153.71L516.39 157.58L515.91 159.18L516.91 161.19L517.51 164.18L516.92 165.76L516.12 166.34L517.04 167.03L517.15 167.41L518.09 175.57L517.85 176.02L518.61 178.59L519.66 183.79L520.67 186.46L521.98 187.11L524.54 187.58L525.31 188.74L525.3 189.43L523.8 191.68L522.66 194.79L522.74 195.76L523.42 196.44L523.36 197.76L521.57 197.92L521.05 198.25L520.94 198.7L521 199.65L521.6 200.78L521.53 202.97L523.15 204.55L523.44 205.09L523.38 207.36L522.64 209.12L518.75 212.99L517.78 213.27L515.49 214.6L514.95 215.47L512.98 217.18L510.36 218.45L509.91 219.61L508.41 221.91L507.36 222.58L506.57 222.4L504.57 222.78L504.68 225.18L502.82 226.98L502.5 226.93L501.88 226.31L499.72 226.3L498.9 227.28L498.13 227.64L495.4 227.98L493.89 229.32L493.07 230.54L491.37 230.64L489.89 231.28L486.89 231.39L486.07 231.11L485.88 230.83L486.01 230.17L484.3 229.19L482.97 228.8L481.58 229.35L479.45 229.78L479.13 229.6L478.72 228.67L477.22 228.21L475.27 228.23L472.03 229.88L471.97 230.81L474.21 235.25L474.33 236.4L474.04 238.97L473.79 239.88L473.07 240.74L470.12 245.79L467.15 248.21L465.8 248.63L464.32 248.1L462.98 247.93L460.78 248.68L459.61 249.57L458.94 250.44L457.8 250.82L457.05 252.27L456.72 252.48L454.61 252.3L452.81 252.82L448.63 250.97L446.86 248.48L446.33 246.27L445.67 245.23L444.23 243.89L441.9 243.91L438.96 243.7L439.01 241.78L439.27 240.72L440.42 238.27L440.55 231.91L441.31 230.51L441.34 230L439.61 226.94L439.14 223.75L438.44 221.81L439.17 219.81L440.87 218.41L442.07 215.93L442.2 214.42L442.54 213.59L442.84 213.38L444.28 210.64L444.91 208.32L445.3 205.35L446.28 202.37L448.41 200.42L451.13 199.66L453.74 199.35L454.81 198.98L456.51 197.45L457.56 197.41L458.9 196.89L461.76 194.32L464.1 193.41L466.11 191.41L466.74 190.54V190.08L468.64 188.16L469.14 187.94L469.98 187.7L470.21 188L471.33 187.74L472.33 187.14L473.79 186.95L474.8 187.16L477.31 188.98L478.82 188.88L481.26 188.02L482.09 187.98L482.74 188.26L485.02 187.97L486.23 186.66L486.73 185.2L486.85 183.99L487.14 183.55L487.53 181.35L487.4 180.5L487.23 180L485.62 179.09L483.84 177.06L483.33 174.76L483.22 172.65L483.39 170.17L487.49 165.74L487.7 165.19L487.8 162.76L487.25 159.78L485.67 156.98L486.81 154.11L487.09 152.64L486.71 151.37L485.48 150.53L485.13 148.61L485.9 147.56L486.54 147.39L487.36 145.41L489.25 143.56L490.13 141.73L490.09 139.94L493.01 136.53L493.82 136.69L497.13 136.23L501.26 132.26L503.05 129.99L503.44 128.46L502.8 127.93L502.58 127.21L503.04 125.77L503.77 125.89L505.24 126.76L505.75 127.27L505.62 127.58L506.73 127.91Z" fill="#CCCCCC" stroke="white" stroke-width="0.5"/>
<path d="M397.78 500.4L392.54 500.37L392.21 500.81L390.47 501.05L389.71 500.98L389.6 500.59L388.03 501.16L386.68 502.59L383.33 504.72L381.89 504.56L380.66 503.94L377.53 501.34L376.5 500.95L375.74 500.94L372.9 501.67L370.57 501.84L369.76 501.81L368.34 501.05L367.23 501.19L365.7 501.84L365.11 503.31L364.38 504.18L362.51 505.16L358.94 504.75L356.94 505.9L356.22 506.67L355.53 508.26L356.38 511.25L355.51 512.11L354.59 512.13L353.84 512.51L353.67 513L352.34 511.11L348.09 511.24L344.33 510.81L342.75 509.63L342.59 509.22L341.56 508.59L337.3 508.23L332.01 506.55L329.67 507.12L326.98 507.09L324.96 505.68L324.64 505.17L323.58 504.93L323.05 504.92L322.34 505.29L318.71 505.27L318.49 504.06L315.96 499.88L315.98 497.29L314.99 494.41L311.57 492.04L310.48 493.17L308.36 493.06L307.26 493.49L306.19 494.39L304.73 493.31L303.91 493.37L303.63 491.17L304.29 489.6L305.36 488.33L306.58 486.15L306.64 485.81L306.15 485.06L306.17 483.82L307.07 480.18L308.33 477.16L308.08 474.86L309.36 472.48L309.15 471.46L308.31 470.58L308 468.98L308.66 467.92L309.45 467.38L311.83 465.82L312.19 465L313.76 457.08L314.09 456.73L315.2 456.41L316.86 455.4L317.53 454.72L318.98 451.16L318.96 450.01L319.89 447.68L321 446.86L326.41 444.59L329.67 442.3L333.5 442.95L337.51 442.84L340.78 443.13L341.99 442.51L342.34 441.91L343.07 441.54L344.24 441.83L345.72 442.61L348.24 443.07L350.88 444.16L352.19 444.29L353.26 443.75L355.84 443.74L356.62 444.74L358.37 445.58L361.88 446.38L362.51 446.89L363.22 448.21L364.95 448.28L365.37 447.94L367.02 448.09L367.68 448.63L372.99 448.76L375.96 447.91L377.09 449.46L380.68 452.29L381.57 454.05L381.58 456.79L381.19 457.37L381.03 458.18L381.41 460.02L382.71 461.53L382.63 463.29L382.27 463.85L383.76 466.85L384.97 468L385.64 468.28L386.14 468.96L386.09 469.85L387.01 471.82L387.61 472.11L387.86 472.55L387.61 473.6L386.34 475.73L386.66 477.77L387.26 478.15L388.27 478.36L390.65 478.24L394.07 477.71L394.57 478.1L396.15 477.91L397.74 478.04L399.35 479.3L399.21 479.71L398.32 480.36L397.63 483.66L397.98 484.44L399.05 484.97L399.7 484.12L400.8 481.36L401.56 481.19L403.7 481.77L403.3 483.72L404.03 487.02L405.45 487.6L405.61 488.92L404.26 489.94L403.65 491.42L403.1 491.3L403.37 489.36L404.81 488.41L403.4 488.69L402.51 489.18L401.64 489.16L401.3 488.77L400.73 488.6L400.19 488.97L399.91 489.9L400.43 490.7L399.7 491.66L399.4 491.76L396.92 491.23L396.13 490.69L395.68 490.81L395.5 491.71L395.84 492.08L397.45 492.64L398.85 492.39L400.98 492.99L401.25 493.47L400.28 494.15L398.74 496.93L397.5 497.7L395.08 498.27L394.88 498.72L397.83 498.52L397.98 499.71L397.78 500.4Z" fill="#CCCCCC" stroke="white" stroke-width="0.5"/>
<path d="M469.38 451.28L469.31 450.5L469.69 450.23L472.88 450.45L475.47 449.86L472.94 448.31L471.54 447.81L468.73 448.49L467.37 450.09L466.34 450.41L465.64 450.36L464.29 448.21H463.81L462.91 448.63L461.95 449.69L458.8 450.49L458.46 451.4L458.27 453.3L460.46 453.43L461.53 454.44L460.38 455.52L459.44 455.35L458.02 455.52L457.54 455.26L455.91 453.53L455.86 453.12L456.95 449.62L458.04 448.47L460.39 447.46L460.89 447.61L463.66 447.25L465.16 446.54L466.81 444.39L466.06 442.75L464.36 442.74L461.21 443.27L459.44 442.88L458.21 441.29L457.65 440.12L456.38 439.58L457.06 439.09L459.48 438.35L462.39 437.01L464.97 436.84L465.47 437.11L467.19 436.34L468.24 435.57L472.33 433.78L472.85 433.71L473.21 434.02L476.41 433.95L477.66 433.78L479.29 432.84L479.86 432.78L482.39 433.05L482.88 433.22L482.86 433.69L484.24 433.49L493.75 428.96L496.28 427.97L496.49 427.45L496.21 426.84L494.77 426.71L494.86 425.96L496.75 422.25L499.11 416.21L498.38 415.5L498.94 415.01L500.18 414.74L502.71 412.38L504.64 413.14L505.31 417.85L507.81 418.98L512.14 419.99L515.13 419.62L516.75 420.68L516.67 421.95L515.73 423.56L515.51 425.69L516.65 432.47L516.15 433.15L513.07 434.9L507.1 436.84L504.27 438.56L500.77 442.25L500.66 443.91L500.97 445.1L500.78 446.72L500.05 448.2L498.23 448.71L491.68 448.54L485.89 449.24L483.5 448.78L483.01 448.4L482.95 447.72L483.98 446.24L484.65 444.79L484.56 444.17L483.78 443.99L480.99 445.14L480.73 445.83L481.04 446.62L482.42 447.79L482.67 448.76L482.08 449.28L480.45 449.79L478.88 449.76L470.84 450.83L469.38 451.28ZM464.27 453.27L463.6 452.3L465.71 450.75L467.57 451.69L468 452.39L465.54 452.89L465.13 452.54H464.66L464.27 453.27Z" fill="#CCCCCC" stroke="white" stroke-width="0.5"/>
<path d="M610.32 183.91L609.39 184.15L605.89 183.94L604.85 184.34L602.39 183.24L600.22 182.94L594.39 183.33L593.86 182.98L590.44 182.58L589.82 182.09L589.92 181.09L589.5 180.7L588.12 180.75L586.3 182.1L585.99 183.58L586.71 184.36L587.24 185.89L586.23 185.57L585.75 186.16L585.91 187.58L586.38 188.52L585.83 189.73L585.33 190.47L582.98 191.4L582.15 190.66L582.67 189.12L581.78 187.95L579.83 187.65L578.06 187.73L574.91 188.99L574.62 188.76L574.31 187.38L573.99 187.15L570.46 186.63L570.54 184.91L570.75 184.6L571.6 184.35L572.01 183.97L572.39 182.23L572.83 181.27L575.82 178.06L575.81 176.87L575.28 176.43L574.64 176.35L571.38 177.39L569.95 177.51L566.77 178.72L566.36 179.67L566.26 180.71L565.44 181.42L562.21 183.08L561.05 184.21L558.17 183.6L557.27 183.18L555.34 181.54L554.77 182L554.11 182.38L553.47 182.21L553.81 180.24L555.22 177.99L556.06 177.11L556.57 177.04L557.35 177.55L558.38 177.29L558.95 176.19L560.41 174.68L561.81 172.24L561.66 171.5L562.31 169.83L563.18 169.26L564.02 168.14L567.32 161.45L569.93 159.44L574.82 157.85L575.29 158.61L576.15 159.36L579.28 159.35L580.5 159.76L582.19 161.51L583.51 162.01L586.84 161.69L589.72 162.21L592.26 161.97L594.59 161.24L599.09 162.16L600.36 162.2L602.31 163.06L603.33 163.88L603.97 164.82L606.28 169.56L606.78 171.35L606.74 172.1L608.22 177.48L608.43 179.16L609.15 179.7L610.11 182.39L610.32 183.91Z" fill="#CCCCCC" stroke="white" stroke-width="0.5"/>
<path d="M188.35 291.95L187.06 290.5L186.62 288.62L185.06 288.1L184.2 288.42L182.39 288.5L178.32 286.69L178.31 286.29L177.65 285.68L176.38 286.27L174.4 284.59L172.88 283.62L172.02 282.16L171.74 280.77L170.7 280.38L168.93 281.5L167.71 281.47L166.3 280.67L165.43 279.34L162.3 277.76L160.34 277.59L159.2 278.13L158.3 278.98L156.87 278.81L156.56 278.51L154.42 278L151.36 277.72L150.6 277.29L149.42 276.1L149.12 274.13L147.54 273.64L145.65 272.67L144.83 270.95L144.54 270.75L141.82 270.47L141.44 270.12L140.6 266.41L139.72 265.52L139.24 266.68L138.58 266.36L138.31 265.72L138.93 264.19L138.09 262.67L136.73 262.28L135.47 258.81L135.3 257.15L136.85 254.24L136.64 252.58L135.48 250.61L134.73 248.45L134.67 246.16L135.29 245.66L135.67 244.29L136.71 243.24L137.07 241.77L136.83 240.28L136.41 239.39L136.32 237.86L136.86 236.21L135.69 234.03L134.67 233.65L133.58 234.63L133.52 235.14L132.68 236.1H132.11L129.93 235.08L124.75 235.16L119.14 236.94L117.45 236.93L115.97 237.41L113 236.15L116.26 233.59L118.18 233.01L119.73 231.2L119.88 230.64L119.72 229.35L123.68 229.61L126.55 229.28L127.27 229.65L129.58 231.98L129.95 231.96L131.17 231.17L131.3 230.45L131.71 229.92L132.79 229.42L133.56 229.55L134.93 229.16L136.23 227.95L138.07 226.93L138.45 227.02L139.09 229.28L139.77 229.81L140.45 229.73L142.99 226.57L142.73 224.82L143.26 223.98L145.01 222.72L145.47 222.74L146.31 223.29L148.1 223.39L149.3 222.32L151.43 221.94L155.3 222.4L155.06 220.94L155.17 219.13L157.23 217.92L158.04 216.77L158.4 215.75L158.23 215.3L157.33 214.6L157.38 213.93L158.57 212.34L161.05 211.81L161.31 211.59L161.22 210.42L162.94 209.92L164.32 207.36L175.11 207.3L177.26 208.43L177.71 208.92L178.51 210.83L179.84 212.1L182.38 213.08L183.63 216.35L184.09 216.56L185.07 216.43L185.69 216.63L186.37 219.51L189.61 220.99L190.29 220.8L190.83 219.06L192.75 217.98L194.14 218.26L194.5 218.64L194.46 219.34L195.86 220.31L196.46 221.55L195.7 222.97L194.41 227.96L194.47 228.31L195.25 228.78L195.51 229.39L195.66 230.78L196.49 233.05L195.55 234.72L195.93 236.65L194.93 240.17L194.9 240.97L195.17 242.73L196.67 245.48L195.77 254.48L212.93 254.53L212.69 255.09L213.91 256.2L217.41 256.11L218.52 256.22L219.59 256.65L221 260.24L220.83 260.99L219.43 262.74L218.07 263.82L217.93 265.14L218.36 268.39L218.94 268.9L219.84 268.87L221.37 272.21L221.33 274.26L221.91 275.75L221.84 277.46L221.28 279.7L219.62 281.71L219.1 283.96L218.52 284.8L218.09 285.21L216.45 285.74L215.52 286.82L214.09 290.6L213.57 293.05L209.46 295.62L207.99 297.05L207.25 297.01L204.66 295.46L203.39 294.03L196.31 294.99L194.99 294.56L194.74 294.26L191.36 294.92L190.88 294.76L190.36 293.41L188.35 291.95Z" fill="#CCCCCC" stroke="white" stroke-width="0.5"/>
<path d="M235.64 62.4L237.24 79.37L218.75 79.3L218.78 79.98L216.45 83.24L214.79 86.27L214.72 87.4L213.57 90.04L213.46 90.7L213.69 91.43L214.83 92.84L214.81 93.37L214.39 93.76L212.36 94.31L210.95 95.72L209.7 96.18L207.88 95.95L206.96 93.44L205.09 91.4L202.26 90.47L200.66 90.53L200.11 91.42L198.02 92.13L196.74 92.82L195.72 94.08L194.9 97.05L195.27 98.85L195.02 100.58L194.27 102.87L194.71 104.98L192.35 103.94L191.01 104.36L190.48 104.29L189.44 102.25L187.96 100.6L186 99.29L185.48 99.25L180.47 94.83L180.61 93.69L182.45 94.02L183.59 92.7L183.65 92.12L182.52 87.79L181.94 86.89L180.72 86.05L179.84 83.88L179.55 78.9L180.12 77.94L180.89 74.9L180.23 73.32L179.87 71.73L181.49 70.27L181.44 69.82L180.57 68.7L180.38 66.44L178.72 61.68L175.99 57.94L176.7 56.44L177.61 53.12L177.12 52.46L175.17 51.51L173.81 51.4L172.93 51.61L171.96 51.24L170.75 50.07L170.69 49.11L170.06 49L168.93 49.42L168.32 49.41L167.57 49.07L166.85 48.29L167.15 47.83L167.38 45.55L167.08 45.33L163.71 45.1L159.96 45.24L156.65 44.54L156.45 43.94L157.25 42.18L157.37 40.7L156.64 38.93L154.7 35.39L153.97 33.33L153.5 29.61L154.29 28.13L154.21 27.17L152.37 25.17L150.21 24.11L147.4 21.33L146.34 19.52L146.05 18.56L144.91 17.91L144.66 17.52L144.69 16.68L144.98 16.35L145.88 16.42L147 17.08L147.94 18.81L148.55 18.9L151.94 18.4L153.29 18.5L155.2 19.09L155.81 20.29L156.36 22.22L156.9 22.57L157.86 22.49L158.6 21.84L159.55 21.44L162.73 21.6L163.2 21.65L164.51 22.86L165.11 23.01L165.63 22.87L166.24 21.31L167.55 21.45L169 22.38L172.93 26.95L173.98 27.52L174.69 27.63L176.2 26.95L176.94 25.82L177.04 24.98L176.21 22.22L176.57 20.48L177.03 20.2L178.96 20.15L179.97 19.05L181.52 17.96L182.27 18.01L186.17 19.35L186.76 19.18L187.56 18.46L188.59 18.16L189.72 18.51L190.75 18.3L192.09 17.02L193.09 16.77L194.24 17L195.35 16.93L196.03 16.08L196.08 14.73L199.11 12.92L201.44 13.11L204.2 12.72L205.09 11.59L205.18 10.88L205.77 9.76L206.52 9.63L208.37 8.73L209.47 7.69L210.58 5.98L209.38 2.42L208.21 2.06L208.85 1.88L210.28 1.95L211.08 2.27L214.65 2.17L215.71 1.22L216.45 1L217.82 1.42L218.35 2.73L219.39 3.53L219.87 4.9L219.2 9.8L218.48 11.18L217.23 11.88L217.29 12.71L218.9 13.12L220.52 12.9L222.87 13.71L224.69 14.81L223.81 16.24L223.8 17.39L226.14 20.81L226.34 22.36L224.83 25.28L222.95 26.69L222.23 28.19L222.5 28.58L222.56 30.75L221.09 33.16L220.19 35.93L219.88 38.5L219.79 41.17L220.77 43.04L221.28 44.8L221.27 46.2L222.84 47.23L223.74 47.43L223.87 48.11L223.41 53.26L223.53 54L225.34 54.29L224.68 55.46L225.14 55.96L227.29 56.7L228.75 58.62L231.41 61.36L235.64 62.4Z" fill="#CCCCCC" stroke="white" stroke-width="0.5"/>
<path d="M323.02 639.52L322.66 639.53L320.72 638.42L320.52 637.96L321.04 633.69L320.58 629.44L320.73 628.37L321.36 627.13L324.2 624.75L325.03 623.19L327.33 620.63L325.87 618.98L324.8 618.36L322.55 617.76L320.23 615.51L319.02 613.89L318.92 612.3L318.49 611.12L317.26 609.09L315.2 606.85L314.53 606.26L312.14 605.05L310.69 605.26L308.79 603.75L307.27 602.12L306.02 601.34L305.88 599.64L303.98 597.48L300.66 597.02L299.74 596.55L298.01 594.89L296.25 595.02L294.08 593.64L292.17 589.93L291.06 588.44L288.53 586.32L287.83 586.4L287.16 588.19L284.57 590.43L281.9 590.55L282 587.69L282.4 586.41L282.01 585.41L278.36 581.12L275.99 579.35L273.81 577.29L272.06 575.18L269.37 572.97L267.47 572.83L265.32 573.04L264.18 574.4L264.12 575.36L263.09 576.33L261.98 576.35L261.4 575.87L258.24 576.01L257.59 575.53L257.43 574.62L256.94 574.4L257.79 574.18L258.83 573.46L261.35 570.69L261.46 568.85L262.06 567.6L262.88 567.15L264.17 567.08L264.81 566.82L265.73 565.82L271.18 559.34L271.81 557.92L271.98 556.81L272.8 555.74L274 554.89L275.37 554.48L277.33 550.26L277.43 549.65L277.74 549.28L279.38 548.42L281.01 546.62L281.86 545.47L282.37 544.18L283.71 542.08L284.64 541.79L286.21 541.97L286.76 542.76L287.23 541.48L287.02 540.9L285.67 540.08L285.62 539.72L285.97 539.39L287.05 539.01L287.87 538.05L290.66 537.1L291.71 536.03L291.81 535.11L292.63 534.2L294.84 533.05L297.31 532.65L299.08 530.84L299.23 529.78L300.55 527.42L300.88 527.38L300.93 527.74L301.22 527.94L302.55 527.77L304.99 526.64L307.67 526.05L308.88 525.48L310.98 523.13L311.48 523.14L312.15 522.75L313.16 521.4L315.47 520.67L315.77 521.05L319.29 521.44L322.55 520.29L323.11 519.48L324.46 520.06L324.31 520.98L327.39 520.95L329.02 521.94L331.58 521.57L333.5 522.72L336.08 522.31L337.62 522.49L340.42 522.33L342.68 523.25L345.16 524.65L346.16 527.09L347.75 527.28L347.84 526.8L349.65 526.45L355.21 529.99L356.58 531.54L357.29 531.51L358.85 532.49L361.88 535.98L363.52 538.19L364 539.67L366.17 542.33L367.34 542.88L374.03 543.94L376.14 543.54L379.49 543.88L380.37 546.22L378.29 547.8L377.02 548.21L376.29 550.07L376.51 552.26L376.13 553.82L375.61 555.12L374.43 555.32L373.14 557.01L373.11 558.42L374.91 559.59L375.18 559.39L374.9 558.42L374.91 557.46L376.4 556.64L377.98 557.28L378.71 558.19L379.88 559.04L380.33 559.01L378.93 560.74L375.03 567.78L370.82 579.38L364.52 589.86L359.08 596.52L352.57 602.48L346.48 606.16L343.38 610.47L343.2 610.04L343.85 608.46L344.19 606.28L343.01 604.57L343.11 604.15L344.04 603.98L345.05 604.38L345.61 604.96L346.63 605L349.21 603.59L350.03 602.91L352.88 599.2L353.63 598.51L354.08 598.7L355.1 598.51L356.15 597.67L357.08 596.4L357.45 594.92L357.63 593.99L357.4 591.89L357.6 590.52L359.17 590.45L359.91 590.75L360.18 591.58L360.53 591.32L360.24 589.92L360.75 587.85L361.23 587.28L363.97 585.69L364.7 584.61L365.17 581.86L364.96 579.58L365.52 578.9L366.02 579.7L366.39 579.73L366.82 579.31L367.29 576.23L367.19 575.79L366.24 574.57L365.57 574.54L365.31 575.23L365.48 575.62L365.34 576.19L364.99 576.39L363.48 576.37L361.47 576.77L361.13 578.38L360.6 578.43L359.79 577.99L359.89 576.28L359.07 575.39L358.03 575.72L357.43 575.24L356.7 573.98L356.3 572.53L356.42 571.96L355.78 571.27L355.17 573.98L355.61 576.23L356.86 578.34L356.29 579.15L355.55 581.69L355.93 584.72L355.75 585.49L355.27 585.12L355.53 584.88L355.5 584.17L355.03 582.89L354.58 582.5L354.05 583.16L354.02 584.53L352.61 587.8L352.56 589.69L352.78 590.21L352.06 590.91L350.45 591.55L349.84 593.13L345.75 594.7L345.03 595.23L344.5 596.82L344.4 599.09L343.43 601.36L341.07 602.66L340.96 604.42L341.44 605.25L341.69 606.27L340.74 606.83L340.49 608.34L340.92 608.94L341.6 608.8L342.9 609.43L343.05 610.34L340.92 611.99L338.6 616.51L336.67 623.39L334.66 627.88L332.98 630.4L325.19 637.93L323.02 639.52Z" fill="#CCCCCC" stroke="white" stroke-width="0.5"/>
<path d="M380.33 559.01L379.88 559.04L378.71 558.19L377.98 557.27L376.39 556.64L374.91 557.46L374.9 558.42L375.18 559.39L374.91 559.59L373.11 558.42L373.15 557.01L374.43 555.32L375.61 555.12L376.14 553.81L376.51 552.26L376.29 550.07L377.02 548.21L378.29 547.79L380.37 546.21L379.49 543.87L376.14 543.53L374.03 543.93L367.34 542.87L366.18 542.33L364.01 539.67L363.52 538.19L361.89 535.98L358.86 532.49L357.29 531.5L356.58 531.53L355.21 529.98L349.65 526.44L347.84 526.78L347.75 527.26L346.15 527.07L345.15 524.63L342.68 523.24L340.41 522.31L337.62 522.47L336.08 522.29L333.49 522.7L331.58 521.55L329.01 521.91L327.38 520.93L324.3 520.96L324.45 520.03L323.1 519.45L322.54 520.26L319.28 521.42L315.76 521.03L317.21 518.1L317.94 516.01L317.36 512.76L317.77 509.55L317.73 507L318.69 505.25L322.32 505.27L323.03 504.89L323.56 504.9L324.62 505.14L324.93 505.65L326.96 507.06L329.64 507.09L331.98 506.51L337.27 508.19L341.53 508.55L342.55 509.18L342.72 509.59L344.29 510.77L348.06 511.19L352.31 511.06L353.64 512.96L353.82 512.46L354.56 512.08L355.48 512.06L356.35 511.2L355.5 508.21L356.19 506.63L356.91 505.85L358.91 504.71L362.48 505.11L364.35 504.14L365.08 503.27L365.67 501.79L367.2 501.14L368.31 501L369.73 501.76L370.54 501.79L372.87 501.62L375.71 500.89L376.46 500.9L377.5 501.3L380.62 503.9L381.85 504.52L383.29 504.68L386.64 502.55L387.99 501.12L389.55 500.55L389.67 500.94L390.43 501.01L392.17 500.78L392.5 500.34L397.74 500.37L397.35 501.69L397.86 503.34L397.79 503.73L396.29 504.87L395.31 504.39L394.49 501.86L394.47 502.98L395.06 505.7L396.77 507.36L397.33 508.31L396.32 510.6L396.16 512.92L396.26 513.35L397.02 514.08L397.28 519.94L397.59 520.49L398.02 520.69L398.79 520.18L399.14 520.9L399.24 521.77L398.77 521.83L398.34 521.55L397.15 522.18L396.81 526.02L397.38 528.61L396.81 529.36L397.12 531.29L398.03 533.17L397.17 535.51L396.65 539.52L394.94 544.2L394.6 544.1L394.24 543.34L394.45 542.37L393.53 541.19L393.27 541.52L393.45 543.95L394.61 544.78L393.69 546.44L392.05 547.09L387.92 550.13L385.12 552.69L381.37 557.13L380.33 559.01ZM398.21 532.46L398.06 531.99L398.31 530.24L399.07 527.84L398.67 526.66L398.83 525.64L400.23 524.88L400.45 524.94L401.11 525.88L400.57 528.44L399.75 529.3L399.16 530.52L399.36 531.69L398.21 532.46ZM397.76 508.09L395.89 506.07L398.44 503.63L398.69 503.67L399.34 504.72L398.48 506.04L397.76 508.09Z" fill="#CCCCCC" stroke="white" stroke-width="0.5"/>
<path d="M570.97 262.69L568.07 263.58L566.52 262.94L565.98 262.6L565.5 261.88L563.58 260.96L562.98 260.44L562.86 260.03L563.2 259.64L563.33 258.22L563.18 257.83L561.75 256.32L561.23 254.83L560.14 254.16L559.18 252.56L559.16 251.79L559.75 250.21L560.07 249.91L561.77 249.92L562.9 250.67L565.45 249.68L566.14 249.13L566.44 248.55L565.68 245.8L565.76 244.92L566.42 243.3L566.5 240.19L565.75 239.04L563.76 237.09L562.49 234.59L562.27 232.45L562.94 231.3L569.4 234.28L573.08 235.23L578.5 238.3L579.8 240.75L581.56 242.2L583.22 242.99L583.68 243.02L587.27 245.25L587.87 246.56L585.49 247.32L580.92 250.26L579.95 251.15L578.4 253.36L578.08 253.34L578.19 252.24L577.14 250.42L576.15 250.58L576.49 251.74H577.73L577.96 251.98L577.44 253.95L576.17 256.04L575.64 255.69L575.27 255.02L574.28 254.86L574.48 255.54L575.61 256.16L575.35 257.93L574.49 259.08L573.56 261.11L572.78 261.26L572.48 260.8L572.96 259.4L573.37 259.27L573.68 258.84L574.05 257.8L573.24 257.43L573.34 258.11L572.89 259.24L572.41 259.74L572.15 260.83L572.43 261.55L572.17 262.07L570.97 262.69Z" fill="#CCCCCC" stroke="white" stroke-width="0.5"/>
<path d="M405.61 488.92L405.45 487.59L404.03 487.02L403.3 483.72L403.7 481.77L401.56 481.19L400.8 481.36L399.7 484.13L399.04 484.98L397.98 484.45L397.63 483.67L398.32 480.37L399.21 479.71L399.35 479.31L397.74 478.04L396.15 477.91L394.57 478.1L394.07 477.72L390.66 478.25L388.28 478.37L387.27 478.16L386.67 477.77L386.34 475.73L387.62 473.61L387.87 472.56L387.62 472.12L387.02 471.82L386.1 469.85L386.16 468.96L385.66 468.28L384.99 467.99L383.78 466.85L382.29 463.84L382.65 463.29L382.73 461.53L381.43 460.01L381.05 458.17L381.22 457.36L381.61 456.78L381.59 454.04L380.7 452.28L377.11 449.45L375.98 447.9L373.01 448.76L367.7 448.63L367.04 448.09L365.39 447.95L364.97 448.29L363.25 448.22L362.53 446.9L361.9 446.39L358.39 445.59L356.64 444.75L355.86 443.75L353.28 443.76L352.21 444.3L350.89 444.17L348.25 443.08L345.72 442.62L344.24 441.83L343.07 441.54L342.34 441.91L342 442.51L340.79 443.13L337.51 442.84L333.5 442.95L329.67 442.3L326.42 444.59L327.26 443.51L327.99 441.97L329.25 440.83L336.81 436.29L338.76 434.42L340.02 431.99L341.75 430.3L342.15 429.09L343.59 428.06L343.87 426.84L343.52 426L345.52 423.74L346.73 421.4L346.8 420.46L346.49 418.53L346.72 418.14L347.68 417.62L350.28 413.98L350.44 411.05L351.06 409.37L352.07 409.07L352.8 408.43L354.79 405.75L356.01 404.73L356.48 404.5L357.79 404.46L359.29 403.68L359.57 403.28L359.97 400.82L361.19 399.69L363.34 398.58L365.26 398.21L366.69 396.52L368.19 395.91L368.94 396.05L370.67 397.6L373.22 397.68L377.51 398.64L379.18 398.28L380.8 398.5L382.8 397.91L384.98 399.33L386.65 400.12L386.52 401.04L386.85 402.46L388.06 404.55L388.69 404.58L389.23 404.26L389.9 403.32L390.31 402.19L390.57 402L391.12 402.05L391.48 402.44L391.73 403.4L391.74 406.18L392.94 406.71L393.35 406.26L393.08 403.72L393.57 402.53L394.02 402.05L402.2 401.38L403.21 400.13L404.71 401.59L405.83 402.02L408.61 401.33L409.05 400.34L408.85 399.88L409.16 399.27L411.54 399.16L413.2 399.94L414.05 399.3L415.36 399.01L418.62 402.36L418.82 403.4L418.25 404.41L417.96 406.78L418.54 407.39L420.43 408.6L420.83 410.15L420.77 410.71L419.25 412.74L419.07 414.68L419.86 415.42L420.17 416.03L420.54 418.24L421.84 420.04L422.67 422.03L422.64 422.88L424.25 422.83L425.03 422.52L425.31 422.16L426.31 422.11L430.01 423.43L430.24 423.8L430.19 425.07L429.49 427.25L427.63 429.97L427.89 432.91L427.7 436.36L427.17 437.92L427.89 439.52L429.67 440.76L431.48 441.59L431.99 443.31L430.78 444.01L432.8 447.32L433.93 447.57L435.94 447.33L436.12 447.86L439.74 446.86L440.3 447.28L441.61 446.96L442.36 445.98L442.41 445.14L442.17 444.9L442.34 442.6L443.53 442.27L443.62 442.62L443.27 443.11L443.28 443.59L445.62 443.67L448.01 443.42L449.8 442.75L451.03 441.51L452.96 440.49L455.17 440.27L456.41 439.54L457.68 440.08L458.24 441.25L459.47 442.84L461.24 443.23L464.39 442.7L466.09 442.71L466.84 444.35L465.19 446.5L463.69 447.21L460.92 447.57L460.42 447.42L458.07 448.43L456.98 449.58L455.89 453.08L455.94 453.49L457.57 455.22L458.05 455.48L457.99 455.68L456.3 456.1L455.24 455.28L453.76 456.39L453.33 457.04L453.6 457.26L452.84 457.9L449.62 459.45L447.37 460.15L447.09 460.59L447.13 461.55L447.63 463.1L447.31 463.52L445.91 463.78L445.21 463.14L443.87 462.85L440.75 462.35L439.89 462.5L438.57 462.84L436.84 463.66L436.34 464.17L435.13 466.32L433.82 466.89L433.32 466.77L433.9 466.3L433.42 465.08L432.25 464.23L431.42 465.46L431.68 466.21L431.38 466.82L423.76 471.06L422.81 471.88L422.5 473.04L419.23 476.04L415.98 477.99L414.06 478.52L409.56 481.73L407.23 483.69L406.56 483.77L406.12 484.39L407.02 484.82L407.68 484.88L408.61 484.52V485.28L407.99 486.59L406.67 487.44L405.61 488.92ZM449.92 465.91L448.38 465.26L447.22 465.44L446.73 465.06L446.83 464.28L447.78 463.63L448.87 461.78L449.59 462.03L450.25 462.68L450.38 465.59L449.92 465.91Z" fill="#CCCCCC" stroke="white" stroke-width="0.5"/>
<path d="M434.38 282.82L429.02 284.24L427.28 285.58L424.72 286.68H423.17L418.64 287.68L416.12 289.76L414.34 290.66L413.88 290.42L412.37 287.8L411.82 287.77L411.31 291.07L410.62 291.15L407.27 290.47L404.14 289L404.7 287.44L404.48 286.7L399.95 287.23L397.19 286.89L396.63 287.43L396.33 288.43L395.58 289.18L394.44 289.13L393.83 286.03L392.72 282.32L391.68 280.44L390.53 279.13L389.35 280.1L387.88 282.49L386.25 288.43L385.62 288.66L381.55 287.23L378.46 285.52L374.53 285.12L372.33 284.09L369.93 283.69L370.45 281.35L371.67 279.47L371.7 277.76L371.14 278.06L369.33 280.15L368.67 281.38L368.47 283.26L368.13 283.71L367.33 283.69L366.37 283.18L365.39 279.84L366.13 277.08L365.69 274.03L365.17 273.45L365.16 271.88L365.63 268.57L364.53 266.32L364.58 265.82L365.4 264.93L365.56 264.06L364.17 262.72L364.11 261.86L365.99 255.87L366.03 252.92L366.57 249.95L368.51 244.66L368.88 244.39L369.31 243.54L369.75 240.4L370.85 239.15L371.41 237.26L372.06 236.24L373.68 232.55L374.81 228.1L375.96 226.52L377.15 225.42L378.36 223.74L379.39 221.82L380.76 220.9L381.81 220.74L382.54 219.89L383.48 218.35L383.66 217.36L385.36 214.12L386.45 213.32L388.21 208.17L388.87 204.13L388.72 203.83L387.98 203.51L386.31 201.77L385.71 200.82L385.55 199.94L385.69 199.37L387.1 197.68L388.39 195.58L388.33 192.91L387.9 190.73L388.09 190.38L390.56 188.6L393.97 187.46L396.47 186.25L396.71 185.75L396.56 184.24L397.42 182.97L398.93 181.63L400.22 181.48L400.41 180.14L400.12 178.94L400.37 178.48L401.83 178.02L402.47 177.54L403.4 174.79L402.38 173.45L402.29 172.05L402.58 171.77L403.55 171.69L404.27 171.32L404.64 170.66L404.67 170.02L403.41 168.85L402.54 168.71L402.15 168.4L401.13 166.74L399.84 166.62L397.97 166.87L395.68 166.06L396.21 165.42L398.83 163.57L400.79 163.04L401.66 163.09L404.44 164.61L405.84 164.69L406.79 164.17L408.53 164.46L409.12 165.15L409.2 166.18L409.48 166.5L410.7 166.53L414.1 167.96L414.94 168.99L415.41 172.49L416.05 173.99L415.84 177.71L416.07 178.79L416.74 179.92L416.73 180.36L414.96 186.51L414.65 188.88L414.93 189.88L414.68 191.47L412.93 193.51L411.17 194.18L410.99 194.89L412.93 196.21L413.35 195.94L414.72 196.18L414.97 196.53L415.08 197.41L414.46 198.6L415.31 200.04L416.19 199.97L419.19 204.13L420.1 204.98L422.38 208L424.52 206.66L428.79 205.72L430.59 206.94L430.67 208.69L430.03 211.94L430.42 213.29L427.03 213.64L425.69 214.18L425.12 214.73L424.44 216.16L423.71 218.84L424.08 220.14L421.45 222.69L421.19 223.39L421.39 223.81L423.47 224.1L424.41 224.79L425.15 226.38L425.21 228.04L425.83 229.08L429.71 231.03L429.8 231.56L428.16 233.37L428.29 235.02L430.43 236.64L431.42 239.51L432.76 241.51L433.47 241.69L435.25 241.48L436.25 241.78L437.07 242.22L437.68 243.04L438.96 243.7L441.9 243.91L441.21 244.56L440.99 245.54L440.43 246.01L436.61 248.03L433.4 250.65L433.21 251.02L434.5 252.82L434.14 253.21L433.13 253.48L432.23 254.09L430.71 257.58L429.7 258.3L429.2 259.46L429.43 260.38L431.29 262.33L434.88 263L436.75 263.99L436.8 264.75L436.24 265.2L434.2 266.01L433.77 266.97L433.86 267.47L434.21 267.8L435.24 267.62L436.16 267.91L436.74 268.42L437.03 269.06L436.07 269.77L434.92 270.19L432.97 271.86L432.78 272.71L432.73 275.63L433.08 276.88L434.02 277.54L435.07 277.78L435.48 278.03L435.65 278.45L435.7 279.51L434.34 281.89L434.38 282.82Z" fill="#CCCCCC" stroke="white" stroke-width="0.5"/>
</svg>
