<svg width="505" height="794" viewBox="0 0 505 794" fill="none" xmlns="http://www.w3.org/2000/svg">
<path d="M315.033 390.17L315.943 471.77L315.652 477.94L325.783 484.15L327.073 487.77L325.733 494.71L330.372 504.09L330.092 521.76L330.043 523.66L328.793 524.58L315.122 527.8L302.312 523.12L274.733 538.71L273.973 539.88L240.083 539.64L221.913 549.66L220.482 551.32L211.732 551.61L201.652 559.73L201.363 560.85L198.633 561.67L196.673 563.62L198.163 567.21L193.663 565.61L190.893 565.75L189.223 564.35L188.122 560.17L185.823 558.71L184.393 556.47L183.583 549.61L181.713 548.93L176.743 543.68L173.973 535.21L168.333 531.6L167.562 530.48L169.432 527.7L175.783 522.39L177.273 519.81L181.092 514.39L180.762 503.8L182.523 492.32L197.583 487.53L219.812 403.29L228.753 408.85L233.673 410.58L241.133 411.51L248.493 411.27L255.663 409.3L261.633 406.29L266.462 402.69L272.633 395.74L275.652 390.46L277.272 385.87L278.612 376.97L278.272 372.63L282.143 372.04L284.393 373.42L288.263 381.38L291.893 385.18L300.973 386.66L306.522 388.64L315.033 390.17Z" fill="#CCCCCC" stroke="white" stroke-width="0.5"/>
<path d="M219.81 403.29L197.58 487.53L182.52 492.32L180.76 503.8L181.09 514.39L177.27 519.81L170.72 516.98L169.43 517.95L164.79 519.32L162.21 518L158.19 520.25L147.92 521.22L144.14 522.98L139.03 522.15L132.05 522.68L130.33 523.51L121.67 522.49L120.14 518.68L117.47 516.2L118.38 514.54L118.62 502.68L115.84 494.66L116.61 489.09L116.23 488.16L110.97 487.63L110.39 488.55L104.9 488.75L102.75 488.06L103.56 474.22L107.96 472.55L112.4 468.68L126.65 452.75L128.61 449.07L130.47 434.88L146.77 378.71L154.61 365.46L209.82 389.97L215.79 399.24L219.81 403.29Z" fill="#CCCCCC" stroke="white" stroke-width="0.5"/>
<path d="M268.563 75.8101L361.143 124.6L317.423 219.21L322.873 240.76L337.983 281.35L331.383 342.32L352.843 390.06L350.843 390.36L344.433 395.25L341.753 396.28L336.733 394.46L328.223 396.33L324.973 395.69L318.333 391.3L315.033 390.17L306.523 388.64L300.973 386.66L291.893 385.18L288.263 381.38L284.393 373.42L282.143 372.04L278.273 372.63L278.613 376.97L277.273 385.87L275.653 390.46L272.633 395.74L266.463 402.69L261.633 406.29L255.663 409.3L248.493 411.27L241.133 411.51L233.673 410.58L228.753 408.85L219.813 403.29L215.793 399.24L209.823 389.97L154.613 365.46L95.6328 335.66L98.1328 332.95L98.5228 324.12L181.093 174.86L188.173 160.59L188.983 152.78L190.703 149.43L192.613 148.52L197.923 151.77V154.56L194.523 158.11L194.333 161.05L195.433 165L197.393 167.18L199.403 167.83L200.833 171.07L204.183 173.35L205.373 177.3L208.863 180.58L210.923 183.67L213.693 182.15L216.283 177.39L216.373 174.41L214.843 167.37L213.413 164.64L213.893 160.84L215.133 159.07L212.313 150.49L208.583 146.69L207.673 142.17L208.063 139.98L210.163 137.09L215.423 133.43L220.203 125.49L225.783 122.44L229.463 121.52L235.343 121.22L236.873 119.79L241.463 118.31L244.863 115.25L246.923 111.78L253.233 106.93L253.903 104.07L254.093 95.9501L255.193 92.7801L254.763 90.4801L258.673 83.9901H259.823L261.163 81.6301L261.213 79.0101L263.933 76.9601L268.563 75.8101Z" fill="#CCCCCC" stroke="white" stroke-width="0.5"/>
<path d="M76.3119 562.35L86.8319 559.73L89.9819 557.78L91.8019 555.65L98.1619 562.5L100.932 560.02L106.672 556.86H120.622L124.062 554.72L126.072 552.29L153.602 562.16L156.432 566.82L155.612 573.52L157.332 576.58L159.532 577.94L161.252 586.58L162.782 589.01L165.082 588.62L170.482 589.39L173.782 591.38L176.212 594.34L185.582 598.9L184.152 610.62L186.782 624.89L186.922 631.66L186.402 637.66L185.202 642.35L187.882 644.13L191.032 644.86L195.532 648.29L192.952 661.75L187.782 678.44L181.812 677.76L178.562 676.27L177.412 673.91L171.482 672.7H166.802L166.182 671.45L164.652 670.53L160.492 669.37L158.862 669.57L157.052 667.49L153.412 666.63L151.362 661.8L151.552 658.76L150.542 658.67L149.692 657.27L144.862 660.4L131.042 659.96L130.092 657.27L127.942 654.9L127.552 647.61L128.892 635.92L127.362 633.02L124.062 633.74L121.582 632.44L117.322 632.49L114.122 631.66L109.582 630.21L104.992 626.64L103.272 626.49L99.9719 624.65L99.1619 622.67L94.9119 618.8L92.9519 611.49L85.0119 611.63L75.5719 617.29L75.8419 616.25L75.1719 615.26L75.8619 613.46L75.2619 611.11L75.9619 610.53L75.2419 608.06L77.3119 603.94L76.7819 601.9L80.7819 595.73L80.5019 594.41L78.7819 593.55L78.8719 592.17L77.8819 590.82L77.1119 587.32L77.4819 586.38L78.8619 586.41L77.8119 584.86L79.6619 583.3L78.5519 581.9L78.5119 580.73L77.7119 580.02L77.4519 580.94L76.5819 580.48L75.9819 578.2L77.0419 576.79L76.5319 574.73L77.5819 574.74L78.1219 573.79L80.5219 574.11L81.6219 569.93L76.6519 563.96L76.3119 562.35Z" fill="#CCCCCC" stroke="white" stroke-width="0.5"/>
<path d="M504.182 377.42L504.262 392L488.022 389.39L484.012 389.58L476.282 392.58L473.232 392.91L462.662 391.72L458.432 387.35L455.992 386.27L451.592 387.35L449.402 387.01L446.722 385.23L443.662 386.41L437.352 387.45L434.822 386.71L434.532 383.75L433.622 382.86L428.362 381.43L424.062 382.91L421.812 382.22L418.762 379.99L417.322 380.69L414.552 379.1L407.192 381.48L396.432 379.3L392.902 380.83L377.932 384.44L373.972 383.65L370.862 381.67L367.182 380.64L362.492 383.4L361.202 383.55L357.052 387.69L352.842 390.06L331.382 342.32L337.982 281.35L322.872 240.76L317.422 219.21L361.142 124.6L504.182 202.38V377.42Z" fill="#CCCCCC" stroke="white" stroke-width="0.5"/>
<path d="M315.118 527.8L323.968 534.38L324.638 536.13L322.718 537.84L321.288 537.93L318.418 543.43L320.328 547.47L316.888 549.27L313.018 554.57L310.098 561.33L307.668 569.45L308.478 571.34L292.898 569.25L287.398 567.31L280.128 574.16L281.468 580.32L275.448 590.85L269.378 592.69L267.798 588.37L260.488 588.23L259.148 598.65L260.488 605.73L263.588 606.6L265.218 608.54L267.848 609.89L284.528 616.72L288.068 619.43L298.348 621.7L298.918 624.55L300.398 626.05L298.968 627.89L299.878 635.43L298.768 641.67L294.758 644.66L293.088 646.98L290.648 647.13L288.878 646.11L285.728 647.42L283.858 649.54L283.428 651.62L281.618 653.45L282.138 655.62L278.748 659.24L275.448 661.03L275.108 663.01L272.868 662.57L271.768 663.83L268.898 670.63H256.808L255.318 675.88L252.598 675.98L247.578 673.96L248.058 668.84L241.078 661.08L235.578 658.13L233.668 658.47L231.188 657.41L225.208 653.36L222.338 652.44L220.568 653.16L215.548 650.89L210.868 646.06L195.528 648.29L191.028 644.86L187.878 644.13L185.198 642.35L186.398 637.66L186.918 631.66L186.778 624.89L184.148 610.62L185.578 598.9L189.888 593.37L195.618 589.2L202.078 588.81L199.878 583.18L195.618 577.6L195.478 575.71L198.158 567.21L196.668 563.62L198.628 561.67L201.358 560.85L201.648 559.73L211.728 551.61L220.478 551.32L221.908 549.66L240.078 539.64L273.968 539.88L274.728 538.71L302.308 523.12L315.118 527.8Z" fill="#CCCCCC" stroke="white" stroke-width="0.5"/>
<path d="M53.3591 529.91L54.8591 530.63L58.5791 528.33L61.8091 529.15L65.3591 526.68L68.0991 528.49L70.1991 528L70.6891 527.18L72.4591 526.68L73.4191 524.85L75.2091 526.19H77.1491L78.5991 525.2L79.5691 519.27L81.1791 518.28L78.7991 513.95L80.8991 513.76L83.0491 514.93L83.9091 517.03L86.3991 520L87.8291 517.81L88.7891 517.37L89.8391 518L93.0391 515.42L92.0391 514.15L88.1891 512.15L88.6091 509.38L87.9891 506.06L92.1291 505.46L94.4291 509.17L101.499 512.59L110.059 516.68L115.169 517.12L117.469 516.2L120.139 518.68L121.669 522.49L130.329 523.51L132.049 522.68L139.029 522.15L144.139 522.98L147.919 521.22L158.189 520.25L162.209 518L164.789 519.32L169.429 517.95L170.719 516.98L177.269 519.81L175.779 522.39L169.429 527.7L167.559 530.48L168.329 531.6L173.969 535.21L176.739 543.68L181.709 548.93L183.579 549.61L184.389 556.47L185.819 558.71L188.119 560.17L189.219 564.35L190.889 565.75L193.659 565.61L198.159 567.21L195.479 575.71L195.619 577.6L199.879 583.18L202.079 588.81L195.619 589.2L189.889 593.37L185.579 598.9L176.209 594.34L173.779 591.38L170.479 589.39L165.079 588.62L162.779 589.01L161.249 586.58L159.529 577.94L157.329 576.58L155.609 573.52L156.429 566.82L153.599 562.16L126.069 552.29L124.059 554.72L120.619 556.86H106.669L100.929 560.02L98.1591 562.5L91.7991 555.65L89.9791 557.78L86.8291 559.73L76.3091 562.35L72.0991 561.43L69.4791 562.34L69.6891 554.86L68.1391 550.72L67.1191 551.52L66.7491 551.1L67.0191 546.55L65.9191 542.73L62.7491 542.39L61.9091 539.91L60.7491 541.32L60.2391 541.13L60.4291 538.36L57.8491 538.26L55.8791 537.38V535.82L54.1691 536.94L53.7291 535.66L52.5391 535.07L53.3591 529.91Z" fill="#CCCCCC" stroke="white" stroke-width="0.5"/>
<path d="M154.61 365.46L146.77 378.71L130.47 434.88L128.61 449.07L126.65 452.75L112.4 468.68L107.96 472.55L103.56 474.22L102.75 488.06L104.9 488.75L110.39 488.55L110.97 487.63L116.23 488.16L116.61 489.09L115.84 494.66L118.62 502.68L118.38 514.54L117.47 516.2L115.17 517.12L110.06 516.68L101.5 512.59L100.4 506.97L97.9202 502.34L92.7502 488.41L83.3401 489.58L72.0602 492.17L66.8502 491.83L64.0802 493.64L57.7202 481.85L52.6502 475.98L49.5402 471.23L43.1402 469.66L41.7002 466.82L38.1202 465.99L36.4902 462.71L33.7702 461.82L33.0502 458.44L29.8502 455.4L27.4602 455.21L26.1202 452.95L16.9002 452.9L15.4602 450.99L9.16016 450.5L11.6402 448.77L11.4702 445.74L10.7402 444.58L14.0102 441.55L15.1102 441.86L17.0802 440.4L16.1202 433.45L19.5802 425.18L24.7402 419.02L44.5602 390.68L95.6302 335.66L154.61 365.46Z" fill="#CCCCCC" stroke="white" stroke-width="0.5"/>
<path d="M52.56 527.03L48.15 521L30.13 520.76L8.85 490.39L1 454.09L2.26 452.37L9.16 450.5L15.46 450.99L16.9 452.9L26.12 452.95L27.46 455.21L29.85 455.4L33.05 458.44L33.77 461.82L36.49 462.71L38.12 465.99L41.7 466.82L43.14 469.66L49.54 471.23L52.65 475.98L57.72 481.85L64.08 493.64L66.85 491.83L72.06 492.17L83.34 489.58L92.75 488.41L97.92 502.34L100.4 506.97L101.5 512.59L94.43 509.17L92.13 505.46L87.99 506.06L88.61 509.38L87.84 511.76L88.93 512.98L92.04 514.15L93.04 515.42L89.84 518L88.79 517.37L87.83 517.81L86.4 520L83.91 517.03L83.05 514.93L80.9 513.76L78.8 513.95L81.18 518.28L79.57 519.27L78.6 525.2L77.15 526.19H75.21L73.42 524.85L72.46 526.68L70.69 527.18L70.2 528L68.1 528.49L65.36 526.68L61.81 529.15L58.58 528.33L54.86 530.63L53.36 529.91L52.56 527.03Z" fill="#CCCCCC" stroke="white" stroke-width="0.5"/>
<path d="M142.179 712.53L145.859 718.44L147.249 718.73L147.819 720.56L148.869 720.17L149.829 721.81L150.159 723.06L146.669 728.92L145.339 730.41L141.179 731.8L138.549 734.78L134.819 734.54L127.359 737.04L125.449 738.91L121.579 740.5L121.289 741.65L115.169 745.34L112.349 750.19L106.709 750.38L102.979 752.5L99.2591 753.12L99.6391 752.3L99.1091 751.63L97.3891 752.3L97.2991 750.48L95.7191 749.33L95.2891 748.18L92.2791 748.08L90.3191 746.88L86.9891 743.09L86.5391 736.89L87.2091 734.44L87.9291 732.57L91.0291 729.78V724.45L91.4191 721.23L92.7991 718.78L92.4691 716.61L95.0491 715.27L101.359 717.09L105.139 715.27L113.119 716.32L118.379 715.27L119.809 712.77L121.009 712L123.869 712.05L129.269 714.4L130.709 713.49L131.999 710.79L135.579 709.5L139.169 706.42L141.419 709.5L142.179 712.53Z" fill="#CCCCCC" stroke="white" stroke-width="0.5"/>
<path d="M142.179 712.53L147.729 710.84L150.259 711.03L153.029 713.1L154.469 712.77L158.669 714.79L168.899 715.8L175.979 714.45L176.739 719.59L176.359 729.64L171.769 735.93L175.779 740.06L183.669 752.02L179.749 758.69L174.729 759.93L183.139 775.63L182.219 776.56L182.129 778.35L180.689 777.56L180.019 779.32L177.489 780.46L177.899 781.15L177.239 782.19L175.889 782.36L175.099 781.19L173.929 780.97L173.899 782.49L171.919 782.74L171.499 783.71L167.509 783.67L166.149 784.3L166.079 785.1L164.829 784.6L164.579 786.61L165.169 787.39L163.549 787.48L163.249 788.33L162.109 788.75L160.719 788.47L159.719 786.09L156.509 782.98L154.759 782.95L153.659 782.1L153.699 778.77L150.189 777.3L150.349 775.57L149.669 774.18L150.259 771.96L146.569 773.61L145.149 776.27L143.749 776.53L143.529 775.69L142.749 775.56L141.489 777.34L142.149 778.36L141.719 779.27L142.349 779.7L140.539 781.98L136.179 782.91L133.019 785.07L130.639 784.7L129.589 785.65L124.929 786.25L124.129 786.79L123.629 788.56L120.569 790.98L112.669 793L109.479 791.21L108.769 789.26L100.089 789.64L98.2288 788.86L101.399 785.84L102.559 781.07L102.519 777.36L98.3787 775.99L95.6287 771.26L92.6588 764.25L92.9987 761.99L87.6588 751.38L85.7188 743.66L86.9887 743.09L90.3187 746.88L92.2787 748.08L95.2887 748.18L95.7188 749.33L97.2988 750.48L97.3887 752.3L99.1087 751.63L99.6387 752.3L99.2588 753.12L102.979 752.5L106.709 750.38L112.349 750.19L115.169 745.34L121.289 741.65L121.579 740.5L125.449 738.91L127.359 737.04L134.819 734.54L138.549 734.78L141.179 731.8L145.339 730.41L146.669 728.92L150.159 723.06L149.829 721.81L148.869 720.17L147.819 720.56L147.249 718.73L145.859 718.44L142.179 712.53Z" fill="#CCCCCC" stroke="white" stroke-width="0.5"/>
<path d="M196.05 689.47L199.23 692.08L201.4 696.61L206.04 697.22L209.03 703.99L217.91 708.63L226.93 709.73L222.58 716.88L218.6 718.32L217.17 720.17L218.28 725.7L220.31 728.53L219.71 734.52L220.42 737.45L221.11 739.08L222.96 740.02L223.49 743.72L225.87 749.91L225.49 756.23L227.6 765.29L218.9 765.77L213.63 768.2L204.62 767.25L203.19 767.68L201.68 767.04L200.59 768.82L199.04 769.72L198.08 769.44L196.79 770.62L195.73 769.99L194.19 772.51L191.93 771.3L190.88 772.63L190.27 772.1L189.56 772.38L189.11 772.63L188.83 773.74L187.03 773.47L185.48 774.82L184.33 774.48L183.96 775.54L183.14 775.63L174.73 759.93L179.75 758.69L183.67 752.02L175.78 740.06L171.77 735.93L176.36 729.64L176.74 719.59L175.98 714.45L180.18 710.22L173.16 705.65L180.47 700.35V695.59L181.86 694.53L179.9 691.98L179.56 690.48L181.57 689.52L186.16 689.38L192.71 687.35L193.81 688.56L196.05 689.47Z" fill="#CCCCCC" stroke="white" stroke-width="0.5"/>
<path d="M298.771 641.67L295.521 656.11L298.251 657.17L297.721 659.77L296.151 662.53L296.431 665.37L294.471 666.82L297.721 671.88L312.271 713.62L310.081 714.01L309.491 715.28L306.501 715.1L305.111 716.11L304.491 715.11L302.461 715.38L297.291 717.2L293.951 717.27L292.781 716.28L290.171 717.42L289.401 716.56L288.081 717.51L286.161 716.7L279.621 717.82L275.611 716.69L271.631 717.98L269.551 717.22L267.971 718.41L264.821 719.2L263.281 721.68L261.471 721.76L260.651 723.11L259.871 722.96L258.601 725.29L259.171 725.84L260.691 725.56L260.861 727.48L262.891 727.37L263.281 728.39L265.861 729.46L267.171 731.3L270.201 732.68L271.011 734L268.321 735.63L267.191 739.62L266.261 740.91L264.671 741.6L265.041 742.23L263.761 743.94L261.431 745.86L261.541 747.49L260.371 748.75L259.681 748.65L259.251 749.85L258.021 749.56L258.051 751.56L255.821 753.71L249.241 756.34L247.391 759.44L247.821 761.85L246.911 763.7L227.601 765.29L225.491 756.23L225.871 749.91L223.491 743.72L222.961 740.02L221.111 739.08L220.421 737.45L219.711 734.52L220.311 728.53L218.281 725.7L217.171 720.17L218.601 718.32L222.581 716.88L226.931 709.73L217.911 708.63L209.031 703.99L206.041 697.22L201.401 696.61L199.231 692.08L196.051 689.47L197.821 685.81L191.611 680.41L187.781 678.44L192.951 661.75L195.531 648.29L210.871 646.06L215.551 650.89L220.571 653.16L222.341 652.44L225.211 653.36L231.191 657.41L233.671 658.47L235.581 658.13L241.081 661.08L248.061 668.84L247.581 673.96L252.601 675.98L255.321 675.88L256.811 670.63H268.901L271.771 663.83L272.871 662.57L275.111 663.01L275.451 661.03L278.751 659.24L282.141 655.62L281.621 653.45L283.431 651.62L283.861 649.54L285.731 647.42L288.881 646.11L290.651 647.13L293.091 646.98L294.761 644.66L298.771 641.67Z" fill="#CCCCCC" stroke="white" stroke-width="0.5"/>
<path d="M75.5706 617.29L85.0106 611.63L92.9506 611.49L94.9106 618.8L99.1606 622.67L99.9706 624.65L103.271 626.49L104.991 626.64L109.581 630.21L114.121 631.66L117.321 632.49L121.581 632.44L124.061 633.74L127.361 633.02L128.891 635.92L127.551 647.61L127.941 654.9L130.091 657.27L131.041 659.96L133.151 661.37L133.391 665.9L134.341 668.56L128.371 679.19L123.321 684.42L120.071 686.33L117.681 686.64L116.081 684.44L114.191 683.7L111.921 683.32L110.061 684.12L108.721 685.67L108.101 689.23L106.571 690L105.761 693.95L101.021 698.04L97.1006 702.86L94.0906 708.1L86.8806 705.15L80.5506 701.01L78.2406 697.1L77.8306 692.13L75.2106 689.35L76.2406 687.57L75.6006 686.36L71.5806 684.59L67.3006 685.77L61.9706 685.97L61.3006 678.74L60.6406 677.82L61.6206 674.1L60.9706 672.41L66.1306 673.69L70.1006 671.02L73.2806 670L78.8206 671.79L80.3206 670.31L84.1306 671.76L85.2506 670.22L94.7606 673.27L106.651 670.77L104.991 668.8L99.2806 665.48L98.5406 665.68L97.2106 664.31L95.5506 660.99L92.7806 657.94L90.9706 656.02L88.8006 655.22L87.4806 652.43L87.5106 650.68L85.4906 647.33L80.9406 644.07L81.3606 638.84L77.2906 631.16L78.3706 626.95L77.9306 624.27L76.3606 621.97L76.1206 617.78L75.5706 617.29Z" fill="#CCCCCC" stroke="white" stroke-width="0.5"/>
<path d="M51.1687 669.84L60.9688 672.41L61.6188 674.1L60.6387 677.82L61.2988 678.74L61.9688 685.97L67.2988 685.77L71.5788 684.59L75.5987 686.36L76.2387 687.57L75.2087 689.35L77.8288 692.13L78.2387 697.1L80.5488 701.01L86.8787 705.15L94.0887 708.1L95.0488 715.27L92.4688 716.61L92.7988 718.78L91.4187 721.23L91.0287 724.45V729.78L87.9287 732.57L87.2087 734.44L86.5387 736.89L86.9887 743.09L85.7188 743.66L83.8887 736.9L79.0788 733.9L73.4088 733.7L73.3587 731.53L69.6987 729.94L70.3988 729.3L69.0887 727.38L67.9287 727.04L65.5088 727.75L62.1888 726.84L52.9187 717.63L50.5388 716.64L49.3288 714.8L49.7488 713.78L44.3687 708.73L44.6088 704.32L43.1088 703.4L41.3388 700.56L38.1388 699.37L36.9187 697.25L35.5688 696.55L35.2987 695.2L32.6588 693.75L27.2188 687.06L28.0088 682.7L34.1488 675.65L36.1788 670.55L40.8888 669.87L51.1687 669.84Z" fill="#CCCCCC" stroke="white" stroke-width="0.5"/>
<path d="M69.4781 562.34L72.0981 561.43L76.3081 562.35L76.6481 563.96L81.6181 569.93L80.5181 574.11L78.1181 573.79L75.8681 572.11L76.8881 571.26L75.6281 569.93L75.7881 568.61L74.4181 567.82L72.3981 568.81L68.9881 565.89L68.8281 565.13L69.6681 564.45L69.4781 562.34Z" fill="#CCCCCC" stroke="white" stroke-width="0.5"/>
<path d="M315.938 471.77L324.488 461.14L330.038 456.87L336.198 457.36L341.938 455.5L349.638 457.8L353.408 460.11L361.008 468.29L365.938 469.47L369.088 473.63L372.868 473.88L379.028 470.35L381.658 469.61L392.848 471.28L412.828 477.35L416.798 479.8L418.588 479.9L414.408 484.47L412.908 487.25L414.498 488.87L414.128 491.19L415.558 494.29L419.178 497.84L419.138 502.59L420.428 504.71L421.888 505.58L422.158 507.57L417.378 512.68L415.008 516.45L409.218 517.99L408.728 519.63L405.018 522.35L405.268 523.74L403.728 525.52L401.568 530.4L400.888 534.3L396.288 533.11L393.328 531.41L383.908 535.45L377.888 541.83L373.628 540.61L366.078 541.73L364.928 542.41L357.518 539.54L357.948 534.38L356.708 531.8L349.488 530.09L349.918 527.95L349.438 523.8L338.778 524.05L330.088 521.76L330.368 504.09L325.728 494.71L327.068 487.77L325.778 484.15L315.648 477.94L315.938 471.77Z" fill="#CCCCCC" stroke="white" stroke-width="0.5"/>
<path d="M308.478 571.34L309.198 575.22L313.498 574.16L313.878 571.97L324.298 571.24L325.688 571.87L327.458 571.58L359.528 587.11L365.508 590.75L365.358 595.31L406.138 587.65L409.528 589.88L416.358 591.04L430.798 621.98L428.858 623.17L426.578 623.23L417.918 626.17L415.828 627.75L412.118 626.79L409.358 627.31L407.738 628.35L406.668 628.61L404.798 627.95L402.878 628.04L402.128 629.17L400.568 629.51L398.458 631.68L398.468 637.73L397.028 639.05L395.838 638.48L395.808 643.3L395.068 645.54L397.628 650.18L396.288 651.63L396.178 652.95L395.338 653.3L396.018 654.6L395.578 655.49L394.498 656.72L393.108 656.63L393.398 657.3L392.348 657.84L392.718 658.87L390.518 658.89L388.908 659.85L386.428 659.1L383.148 662.71L382.198 664.33L382.448 666.04L381.868 666.15L381.428 667.7L380.258 668.07L379.178 670.45L378.098 670.58L377.048 671.8L375.568 670.53L375.008 671.59L372.918 670.51L370.458 673.39L370.278 675.1L367.128 677.38L366.278 680.08L363.798 681.36L362.228 680.94V683.14L360.528 682.24L360.978 684.24L359.228 684.4L360.708 685.24L359.888 686.18L360.468 687.13L359.198 687.28L360.198 688.33L358.448 688.54L358.458 690.87L357.308 690.72L356.718 692.92L354.778 693.02L354.388 694.75L352.498 695.93L352.518 697.49L351.128 696.87L349.688 697.6L349.338 698.9L344.848 699.04L343.928 701.74L342.778 702.1L343.458 702.91L341.858 702.98L340.738 701.71L340.088 702.32L338.238 701.99L338.018 703.4L336.668 703.43L336.778 705.11L334.768 709.86L333.728 710.8L327.468 712.36L325.518 712.21L323.548 710.9L319.218 711.56L317.818 710.67L316.868 711.79L315.488 711.35L313.568 712.14L313.398 713.16L312.868 712.6L312.268 713.62L297.718 671.88L294.468 666.82L296.428 665.37L296.148 662.53L297.718 659.77L298.248 657.17L295.518 656.11L298.768 641.67L299.878 635.43L298.968 627.89L300.398 626.05L298.918 624.55L298.348 621.7L288.068 619.43L284.528 616.72L267.848 609.89L265.218 608.54L263.588 606.6L260.488 605.73L259.148 598.65L260.488 588.23L267.798 588.37L269.378 592.69L275.448 590.85L281.468 580.32L280.128 574.16L287.398 567.31L292.898 569.25L308.478 571.34Z" fill="#CCCCCC" stroke="white" stroke-width="0.5"/>
<path d="M330.092 521.76L338.782 524.05L349.442 523.8L349.922 527.95L349.492 530.09L356.712 531.8L357.952 534.38L357.522 539.54L364.932 542.41L366.082 541.73L373.632 540.61L377.892 541.83L383.912 535.45L393.332 531.41L396.292 533.11L400.892 534.3L402.162 538.3L405.762 542.39L410.142 542.3L415.092 540.91L417.902 538.91L418.032 536.8L425.762 541.13L430.482 542.94L428.662 548.54L426.342 552.22L428.742 554.44L429.792 560.07L431.812 564.43L431.932 569.38L431.112 571.84L430.432 572L432.082 572.29L434.932 570.71L438.932 570.47L439.122 570.96L435.092 588.13L435.632 591.69L440.232 596.79L444.632 598.74L446.232 600.53L446.292 602.23L453.762 601.55L454.142 606.65L455.522 607.41L455.712 612.09L450.702 625.09L445.322 624.45L444.172 623.15L437.842 621.89L435.762 622.51L433.462 621.38L430.802 621.98L416.362 591.04L409.532 589.88L406.142 587.65L365.362 595.31L365.512 590.75L359.532 587.11L327.462 571.58L325.692 571.87L324.302 571.24L313.882 571.97L313.502 574.16L309.202 575.22L308.482 571.34L307.672 569.45L310.102 561.33L313.022 554.57L316.892 549.27L320.332 547.47L318.422 543.43L321.292 537.93L322.722 537.84L324.642 536.13L323.972 534.38L315.122 527.8L328.792 524.58L330.042 523.66L330.092 521.76Z" fill="#CCCCCC" stroke="white" stroke-width="0.5"/>
<path d="M131.04 659.96L144.86 660.4L149.69 657.27L150.54 658.67L151.55 658.76L151.36 661.8L153.41 666.63L157.05 667.49L158.86 669.57L160.49 669.37L164.65 670.53L166.18 671.45L166.8 672.7H171.48L177.41 673.91L178.56 676.27L181.81 677.76L187.78 678.44L191.61 680.41L197.82 685.81L196.05 689.47L193.81 688.56L192.71 687.35L186.16 689.38L181.57 689.52L179.56 690.48L179.9 691.98L181.86 694.53L180.47 695.59V700.35L173.16 705.65L180.18 710.22L175.98 714.45L168.9 715.8L158.67 714.79L154.47 712.77L153.03 713.1L150.26 711.03L147.73 710.84L142.18 712.53L141.42 709.5L139.17 706.42L135.58 709.5L132 710.79L130.71 713.49L129.27 714.4L123.87 712.05L121.01 712L119.81 712.77L118.38 715.27L113.12 716.32L105.14 715.27L101.36 717.09L95.0499 715.27L94.0898 708.1L97.0998 702.86L101.02 698.04L105.76 693.95L106.57 690L108.1 689.23L108.72 685.67L110.06 684.12L111.92 683.32L114.19 683.7L116.08 684.44L117.68 686.64L120.07 686.33L123.32 684.42L128.37 679.19L134.34 668.56L133.39 665.9L133.15 661.37L131.04 659.96Z" fill="#CCCCCC" stroke="white" stroke-width="0.5"/>
<path d="M73.7695 24.2L121.68 1L168.71 24.44L268.56 75.81L263.93 76.96L261.21 79.01L261.16 81.63L259.82 83.99H258.67L254.76 90.48L255.19 92.78L254.09 95.95L253.9 104.07L253.23 106.93L246.92 111.78L244.86 115.25L241.46 118.31L236.87 119.79L235.34 121.22L229.46 121.52L225.78 122.44L220.2 125.49L215.42 133.43L210.16 137.09L208.06 139.98L207.67 142.17L208.58 146.69L212.31 150.49L215.13 159.07L213.89 160.84L213.41 164.64L214.84 167.37L216.37 174.41L216.28 177.39L213.69 182.15L210.92 183.67L208.86 180.58L205.37 177.3L204.18 173.35L200.83 171.07L199.4 167.83L197.39 167.18L195.43 165L194.33 161.05L194.52 158.11L197.92 154.56V151.77L192.61 148.52L190.7 149.43L188.98 152.78L188.17 160.59L181.09 174.86L98.5195 324.12L102.35 241.42L109.62 182.06L109.99 180.19L121.56 159.91L115.32 154.13L109.61 145.65L102.18 138.29L100.08 132.9L100.79 131.4L103.87 128.69L87.7595 104.78L83.4495 101.77L83.1395 76.26L73.7695 24.2Z" fill="#CCCCCC" stroke="white" stroke-width="0.5"/>
<path d="M352.841 390.06L357.051 387.69L361.201 383.55L362.491 383.4L367.181 380.64L370.861 381.67L373.971 383.65L377.931 384.44L392.901 380.83L396.431 379.3L407.191 381.48L414.551 379.1L417.321 380.69L418.761 379.99L421.811 382.22L424.061 382.91L428.361 381.43L433.621 382.86L434.531 383.75L434.821 386.71L437.351 387.45L443.661 386.41L446.721 385.23L449.401 387.01L451.591 387.35L455.991 386.27L458.431 387.35L462.661 391.72L459.131 394.36L456.601 397.69L454.191 398.22L452.841 400.11L453.041 403.82L456.231 407.11L455.951 409.96L456.561 411.54L455.741 413.95L456.361 415.05L455.191 417.06L453.111 418.56L453.511 421.43L450.191 422.63L444.751 428.09L444.761 431.5L442.231 432.1L440.821 433.66L443.021 441.89L438.081 443.91L431.611 445.21L430.181 446.52L428.231 446.58L426.941 450.95L429.971 452.14L429.781 457.88L430.651 459.67L429.041 461.47L431.481 464.42L433.281 463.84L435.251 464.53L435.031 465.55L436.121 467.16L434.211 469.98L432.651 470.42L429.181 473.28L427.351 473.34L425.711 474.93L424.261 475.25L422.521 477.02L419.661 478.36L418.591 479.9L416.801 479.8L412.831 477.35L392.851 471.28L381.661 469.61L379.031 470.35L372.871 473.88L369.091 473.63L365.941 469.47L361.011 468.29L353.411 460.11L349.641 457.8L341.941 455.5L336.201 457.36L330.041 456.87L324.491 461.14L315.941 471.77L315.031 390.17L318.331 391.3L324.971 395.69L328.221 396.33L336.731 394.46L341.751 396.28L344.431 395.25L350.841 390.36L352.841 390.06Z" fill="#CCCCCC" stroke="white" stroke-width="0.5"/>
</svg>
