<svg width="614" height="352" viewBox="0 0 614 352" fill="none" xmlns="http://www.w3.org/2000/svg">
<path d="M152.37 218.55L153.91 219.3L157.54 216.77L159.23 219.06L162.03 217.05L162.79 218.67L164.47 218.49L163.79 219.48L167.46 220.32L169.06 217.96L171.38 218.89L171.96 217.12L173.36 217.88L174.88 215.01L174.41 213.41L175.68 213.73L177.09 212.13L180.17 212.57L180.1 216.46L182.72 216.52L183.18 215.49L184.86 216.64L184.51 215.16L187.06 216.35L191.28 215.27L192.5 216.05L194.06 211.77L198.37 211.28L200.62 214.3L201.23 213.59L203.8 215.06L203.56 216.78L204.4 215.95L206.72 216.8L208.57 214.48L211 215.34L210.33 212.35L212.18 214.67L213.67 213.66L215.59 216.12L216.74 214.13L224.24 216.12L226.86 214.35L226.21 217.91L230.9 217.74L232.04 219.96L232.33 217.8L235.28 215.12L240.08 213.69L238.81 211.06L239.51 206.93L241.03 207.21L240.7 205.82L242.5 205.18L242.94 203.53L244.02 205.8H244.72L247.1 206.21L249.99 209.93L250.93 208.17L252.85 208.38L254.13 213.03L256.48 214.3L257.37 214.03L257.85 213.46L258.77 217.05L255.48 217.02L254.97 218.35L257.93 222.71L256.6 223.96L257.31 226.44L254.97 230.41L256.23 230.88L253.86 237.55L257.94 240.44L255.3 243.59L262.07 251.61L263.21 251.85L266.68 248.66L269.62 252.1L273.41 252.4L273.07 255.23L270.77 254.67L272.92 256.35L275.13 255.44L276.59 259.03H277.46L278.95 259.73L281.21 256.96L287.13 259.49L286.77 261.23L288.06 259.87L294.86 259.68L295.66 262.92L294.41 266.6L302.31 273.3L303.86 271.24L306.25 273.11L309.42 273.14L310.7 271.5L312.38 272.31L313.14 270.88L315.23 271.81L315.73 273.55L314.23 273.67L317.49 275.12L316.68 275.89L318.38 277.53L317.34 277.91L317.91 279.21L313.98 278.96L314.09 281.09L312.83 281.53L313.55 283.6L311.5 284.35L312.25 286L308.07 289.85L308.67 290.98L309.95 289.73L311.35 290.31L311.39 292.78L316.4 294.18L315.82 295.54L316.96 296.56L315.26 297.45L314.57 299.31L315.52 299.44L313.73 299.99L312.87 302.13L310.52 301.43L309.3 298.26L306.34 296.13L305.22 297.04L302.44 296.18L297.15 292.02L290.87 292.22L289.2 290.21L287.64 295.88L284.3 294.98L281.12 297.31L278.51 297.41L279.3 294.8L277.57 292.17L278.1 290.44L270.08 289.59L269.44 287.35L263.61 287.42L263.75 290.64L261.81 293.71L263.22 302.63L262.52 306.68L261.36 306.88L262.55 311.12L261.43 311.17L259.74 317.23L262.16 319.81L261.8 321.22L259.94 322.66L253.83 321.02L253.16 319.62L246.73 319.81L246.61 325.99L239.27 332.37L237.94 337.37L238.73 344.11L236.95 346.68L233.63 346.75L232.15 342.93L229.97 343.38L228.81 340.36L224.29 343.68L222.81 342.25L218.98 341.95L216.02 337.71L213.67 338.42L214.72 340.89L212.44 345.84L208.54 345.2L208.72 348.06L205.88 347.73L203.73 350.81L202.88 349.19L198.11 346.82L195.42 347.35L190.86 345.22L185.45 344.57L184.03 345.73L182.21 345.32L182.26 344.28L179.6 344.92L179.75 343.34L177.32 342.48L177.81 340.38L176.21 340.64L174.49 338.91L175.79 337.03L178.33 337.04L178.94 334.13L176.64 333.79L173.84 329.46L169.6 328.77L162.15 321.4L156.59 320.47L156.77 317.25L154.79 312.9L152.19 312.13L149.86 305.18L147.86 306.32L143.87 306.01L139.44 297.96L140.09 296.58L138.17 298.09L135.63 293.62L132.95 293.97L131.67 291.5L132.35 286.88L134.86 282.59L136.33 283.39L137.78 281.85L137.24 277.34L135.6 275.06L137.17 274.58L136.41 272.06L137.37 270.09L136.36 269.38L140.13 270.78L142.65 267.57L145.9 267.02L145.05 266.69L145.7 263.72L148.17 262.58L145.72 259.18V258.6L146.31 256.67L147.31 256.97L146.91 255.81L148.71 256.02L149.03 253.99L147.06 253.95L146.42 250.99L148.86 251.19L149.6 249.21L148.22 248.32L148.45 246.66L152.96 244.71L152.68 242.39L154.6 239.21L151.74 234.44L152.18 231.23L154.32 229.56L152.3 227.06L152.72 222.62L150.85 222.32L151.18 221.27V220.77L152.37 218.55Z" fill="#CCCCCC" stroke="white" stroke-width="0.5"/>
<path d="M503.43 309.82L499.05 311.83L498.33 313.75L494.28 315.04L491.51 315.2L485.77 311.01L480.7 315.32L477.76 315.4L473.85 311.17L472.46 311.55L470.01 309.11L462.48 306.85L458.8 310.99L454.85 313.03L452.86 319.11L448.83 321.86L444.87 329.21L445.75 331.26L442.13 334.88L442.6 337.75L439.48 342.02L437.45 341.17L438.24 338.46L435.96 328.19L433.93 327.44L432.81 329.02L429.77 328.3L426.76 329.82L422.9 328.43L421.95 326.2L419.95 325.45L416.07 326.79L414.42 319.56L408.1 319.41L403.28 315.06L401.36 317.11L396.82 316.08L395.02 316.97L393.73 321.61L388.71 326.64L386.95 326.83L385.29 324.22L384.39 326.3L379.44 324.95L363.7 324.43L353.8 319.85L349.91 316.22L350.52 313.76L349.16 313.14L348.31 314.28L347.04 311.61L344.74 312.19L344.68 311.08L345.8 311.63L345.14 310.33L344.05 311.22L343.1 308.73L342.2 309.77L340.14 308.8L341 307.72L339.86 306.36L334.39 306.73L331.97 309.91L328.11 308.65L326.55 309.38L319.81 303.79H316.26L312.88 302.16L313.74 300.02L315.53 299.47L314.58 299.35L315.27 297.48L316.98 296.59L317 295.62L319.36 295.22L320.45 297.54L322.64 298.05L323.79 294.52L327.84 293.97L329.93 296.85L332.54 292.21L335.75 291.62L337.92 288.06L343.06 288.29L343.95 284.19L346.88 285.51L348.36 284.19L348.16 282.53L350.77 281.8L351.5 284.23L353.98 285.85L356.32 285.24L357.3 282.94L362.12 285.25L362.35 284.09L367.67 283.13L366.04 281.45L366.92 280.34L373.3 279.76L374.55 276.1L376.73 275.76L378.49 273.6L378.73 271.77L377.18 271.09L377.81 269.64L375.6 270.69L375.9 268.04L374.73 266.91L375.33 265.54L379.05 264.06L379.09 261.95L375.81 260.32L377.18 254.77L380.36 254.08L377.67 251.54L377.78 249.41L379.71 248.54L380.51 244.78L386.63 241.78H387.43L389.31 240.01L387.95 236.42L389.1 232.36L387.78 232.08L387.35 228.37L389.58 223.83L386.35 220.58L389.24 221.47L392.2 217.22L391.39 215.03L389.41 215.09L388.07 213.33L389.76 211.72L389.71 209.13L391.06 210.33L392.04 207.27L394.32 206.64L394.66 208.32L398.53 206.5L400.09 207.9L403.26 207.94L404.62 202.29L409.12 203.67L410.75 202.14L413.23 203.87L414.55 202.77L417.67 203.31L424.6 207.02L427.14 206.66L425.71 207.81L426.32 210.17L421.82 209.07L421.01 214.49L429.73 216.09L427.71 216.16L427.19 218.73L425.63 219.15L426.46 226.45L428.38 227.24L429.28 229.33L426.74 230.4L426.41 232.65L432.11 236.92L435.04 234L436.81 229.65L434.03 223.27L436.06 221.26L439.34 222L443.42 231.03L444.69 231.53L444.75 235.24L448.48 236.29L449.42 233.77L450.06 235.49L447.4 237.57L447.64 239.51L457.36 244.77L459.12 251.71L456.46 255.79L458.08 257.76L457.16 259.98L459.79 263.32L457.96 265.42L461.5 265.65L462.59 264.28L463.05 265.55L461.67 270.55L458.43 271.23L457.62 275.32L455.14 275.43L454.8 278.9L457.89 279.4L464.2 276.85L465.78 280.61L464.89 285.08L467.47 284.21L467.56 285.27L468.93 284.86L469.77 287.6L475.13 287.45L477.37 288.74L476.79 292.56L478.87 293.07L480.47 291.99L483.96 296.37L486.93 294.71L488.44 295.46L489.82 293.95L490.77 296.01L494.46 296.89L493.56 300.29L499.21 301.96L503.43 309.82Z" fill="#CCCCCC" stroke="white" stroke-width="0.5"/>
<path d="M73.37 89.92L78.45 93.65L80.87 95.69L85.01 95.07L87.41 96.81L88.93 95.58L90.44 97.05L92.04 96.79L92.01 100.1L93.6 101.77L95.26 100.02L99.74 101.4L102.08 99.82L104.56 103.41L103.64 105.84H103.42L104.22 108.83L102.6 112.03L104.28 112.41L104.48 115.67L103.14 116.52L106.19 118.73L104.22 121.44L106.75 121.78L108.01 127.04L109.09 127.08L108.76 128.63L107.14 128.59L108.68 131.4L104.54 130.76L104.49 130.87L103.87 131.91L105.31 133.06L107.87 132.76L110.41 136.75L108.62 136.79L108.25 139.88L110.14 140.23L108.59 143.38L104.19 143.8L104.25 151.11L101.4 150.35L99.96 148.29L99.44 149.25L97.63 147.18L92.89 147.27L91.95 145.79L84.81 152.54L83.62 152.08L83.13 153.69L79.51 154.37V155.46L80.06 158.65L77.32 161.29L76.27 160.91L76.59 161.78L73.75 159.92L69.79 161.37L65.93 159.17L63.97 159.06L62.62 160.64L61.55 159.97L61.58 160.15L59.89 159.97L58.72 161.48L56.3 161.04L57.14 163.02L53.56 163.46L54.27 165.87L51.16 162.38L48.88 162.87L46.5 165.57L42.57 163.91L42.01 161.55L35.36 158.57L37.86 154.6L37.03 153.31L34.36 151.36L31.8 152.84L31.71 150.34L29.1 149.99L28.96 148.46L25.99 148.25L23.28 145.13L22.37 146.12L21.42 143.27L16.32 142.49L17.58 139.95L15.14 137L13.64 137.44L10.76 135.33L10.27 130.7L12.22 126.99L9.8 123.35L10.53 122.72L9.25 122.65L8.48 120.63L7.16 121.01L6.29 117.52L4.21 117.91L1 115.59L1.56 113.75L5.38 111.88L3.48 108.84L4.04 107.55L1.84 105.91L9.38 105.33L10.76 107.62L10.86 112.36L15.75 112.61L16.76 115.48L14.88 114.33L14.36 116.12L19.25 119.66L17.55 123.07L18.91 125.87L23.16 126.44L21.94 125.21L23.32 123.69L21.94 121.61L23 119.94L22.61 116.72L25.25 116.67L24.6 113.8L26.27 110.59L28.8 109.49L28.82 105.39L31.7 105.29L32.65 102.6L35.1 100.72L36.98 101.49L36.75 98.46L39.03 94.78L53.53 91.96L56.58 94.73L59.18 89.75L64.59 87.35L65.95 89.9L66.77 85.87L73.37 89.92Z" fill="#CCCCCC" stroke="white" stroke-width="0.5"/>
<path d="M314.64 40.83L318.6 40.92L325.42 43.95L327.76 46.52L334.36 45.73L337.66 43.92L340.98 50.56L341.81 55.42L343.91 55.91L350.55 52.98L353.48 54.02L354.5 59.66L356.33 61.72L353.14 64.09L356.44 66.15L358.23 64.02L359.59 64.52L360.44 60.42L363.62 57.02L369.7 59.53L371.25 62.07L374.08 61.11L375.53 55.84L379.39 56.28L380.11 57.39L385.31 57.15L392.46 64.99L394.52 68.99L390.93 70.44L391.49 73.36L389.42 74.22L390.59 76.19L386.97 79.97L385.54 80.8L382.65 79.25L381.03 83.08L377.74 83.05L377.43 84.83L374.45 85.95L375.27 88.25L373.65 87.03L372.09 89.72L373.47 92.82L375.88 92.37L377.28 93.65L376.75 94.86L378.21 95.42L379.68 99.01L381.96 96.78L387.05 97.27L387.17 101.6L389.04 104.4L390.51 105.75L393.81 105.51L398.58 113.47L404.91 119.56L404.9 126.69L407.39 129.07L407.06 130.55L405.95 131.19L398.6 127.38L397.03 131.43L392.74 133.96L390.01 134.1L388.48 136.38L385.36 137.51L386.45 139.77L382.47 142.05L384.42 144.99L379.85 143.51L376.8 144.69L376.71 142.89L376.06 144.19L372.12 145.2L369.57 142L366.88 141.89L364.42 138.9L361.17 138.44L360.17 134.89L355.36 134.94L355.37 130.29L353.63 130.17L353.62 128.53L349 128.21L346.96 126.63L346.95 127.58L344.28 127.86L344.12 130.01L341.21 129.96L339.54 132.29L336.78 131.05L337.28 128.2L334.07 126.1L331 128.04L330.92 130.64L329.61 131.77L327.75 131.12L326.26 133.05L322.58 130.93L322.37 132.02L317.91 131.12L318.39 132L316.96 131.93L315.32 129.56L313.89 131.77L312.58 130.86L311.2 131.62L311.15 134.2L308.18 134.61V135.24L304.98 137.16L303.97 135.85L304.27 133.3L301.54 131.05L300.29 131.81L298.53 130.29L295.46 130.24L297.79 128.82L296.17 127.27L299.8 123.23L299.34 120.1L297.59 118.7L297.28 115.9L298.72 114.84L298.12 110.66L295.69 108.42L291.68 111.05L287.96 109.3L285.41 110.4L282.67 109.08L283.52 105.77L280.39 104.44L281.03 102.86L275.8 102.05L275.03 100.4L275.95 99.49L273.29 97.53L274.57 95.79L276.8 96.04L276.32 93.81L278.17 93.13L277.98 88.88L275.8 87.13L277.05 83.79L274.23 79.76L277.03 76.94L284.1 80.95L285.81 80.53L285.45 79.18L288.01 76.44L292.19 78.58L294.39 78.33L297.34 80.84L298.32 79.01L299.45 83.02L303.95 81.77L304.87 80.23L303.45 77.12L307.18 75.51L307.12 73.6L308.78 74.65L308.6 76.71L309.06 75.7L312.42 78.24L314.81 76.47L317.64 78.78L317.25 77.25L321.13 76.95L319.14 73.07L317.41 72.19L318.41 71.79L316.92 70.68L317.63 69.63L315.59 68.66L318.38 63.92L315.05 60.67L316.58 58.46L314.37 50.01L315.83 46.66L312.63 43.47L312.22 40.42L314.64 40.83Z" fill="#CCCCCC" stroke="white" stroke-width="0.5"/>
<path d="M265.8 5.51001L267.55 7.19L269 7.16L269.5 5.70001L273.45 7.38998L273.44 10.47L276.79 10.16L276.83 7.41L279.25 6.12L279.44 10.92L281.09 11.83L285.72 9.20999L285.55 11.1L288.73 11.92L288.78 14.47L290.35 15.61L288.19 18.73L289.02 24.73L291.91 28.85L295.98 30.38L297.19 32.55L297.67 40.69L299.65 41.03L303.49 36.41L312.22 40.42L312.63 43.47L315.83 46.66L314.37 50.01L316.58 58.46L315.05 60.67L318.38 63.92L315.59 68.66L317.63 69.63L316.92 70.68L318.41 71.79L317.41 72.19L319.14 73.07L321.13 76.95L317.25 77.25L317.64 78.78L314.81 76.47L312.42 78.24L309.06 75.7L308.6 76.71L308.78 74.65L307.12 73.6L307.18 75.51L303.45 77.12L304.87 80.23L303.95 81.77L299.45 83.02L298.32 79.01L297.34 80.84L294.39 78.33L292.19 78.58L288.01 76.44L285.45 79.18L285.81 80.53L284.1 80.95L277.03 76.94L273.04 75.58L272.49 72.46L269.79 70.11L267.48 70.97L264.41 65.35L261.7 65.65L261.01 67.16L257.08 63.31L255.59 63.58L256.27 64.96L254.54 65.7L255.12 67.73L249.81 70.13L250.11 72.1L248.27 75.22L246.63 76.47L245.71 75.69L244.59 78.68L239.11 77.44L238.45 80.23L236.07 81.21L235.93 82.84L232.72 82.21L231.92 83.12L230.67 82.04L228.8 84.03L226.84 83.83L225.72 78.6L222.98 80.71L219.68 78.8L218.8 81.23L217.25 79.39L216.13 76.39L213.39 75.97L210.23 67.67L207.88 65.97L206.06 61.99L206.26 57.96L204.51 57.81L205.08 55.26L207.74 53.07L207.69 48.93L209.07 48.4L209.86 48.11L210.87 46.18L211.09 47.16L212.41 46.7L211.25 45.75L212.2 42.41L214.89 40.36L214.03 39.58L214.91 36.71L213.66 35.94L216.53 35.24L220.9 38.08L223.45 37.88L224.93 32.15L228.07 31.7L229.56 29.23L235.84 32.06L237.5 31.63L238.48 34.25L240.79 33.38L243.07 34.8L245.74 34.4L248.77 27.08L250.48 27.6L252.34 26.41L254.63 27.9L254.95 26.71L260.26 28.67L264.13 28.01L263.43 24.43L264.54 22.5L263.01 19.99L265.23 17.7L265.94 13.68L264.6 11.05L262.9 12.11L261.11 10.34L262.62 7.41L265.8 5.51001Z" fill="#CCCCCC" stroke="white" stroke-width="0.5"/>
<path d="M511.5 108.31L512.8 108.59L510.32 114.5L513.91 117.46L513.33 121.63L509.77 121.73L508.63 124.69L499.23 126.76L498.36 128.22L502.96 132.74L503.54 135.06L505.94 136.12L506.53 134.29H507.81L510.79 136.96L514.46 143.9L515.06 147.94L519.64 149.18L519.52 151.49L523.39 154.53L527.96 153.78L530.99 150.02L533.63 149.98L535.61 148.12L535.91 149.23L539.28 150L539.22 145.61L537.44 145.25L536.11 146.47L535.59 145.3L535.65 143.25L538.24 141.47L543.27 144.57L542.94 146.1L544.48 147.45L543.67 148.67L545.68 151.46L547.24 151L549.13 153.17L550.74 152.11L550.38 150.92L553.88 150.97L554.62 154.63L560.28 155.67L560.69 159.8L564.05 162.6L565.07 160.43L566 161.15L567.06 159.89L565.37 157.9L568.58 159.61L574.08 159.38L574.34 160.76L579.42 164.14L583.39 164.54L584.65 163.51L584.01 161.09L586.98 161.72L587.58 164.02L586.35 167.48L589.91 170.1L587.95 171.39L586.79 174.8L592.07 186.06L591.75 189.49L595.65 192.18L599.31 192L600.14 194.98L602.28 195.97L605.94 194.69L608.47 196.31L608.11 199.4L609.88 206.89L611.05 207.22L611 211.96L612.87 213.51L611.28 217.58L606.14 219.44L603.62 221.87L596.72 219.35L591.31 220.98L589.7 220.73L589.18 219.05L586.42 219.37L583.66 221.63L584.61 225.06L579.7 229.34L578.28 233.09L574.86 235.44L571.87 234.89L568.29 233.61L568.4 229.91L563.04 225.42L562.2 221.78L559.55 221.52L558.02 222.85L553.44 221.91L550.09 218.13L547.49 219.21L546.68 217.64L534.98 219.98L532.77 215.24L527.54 215.14L526.56 211.53L524.52 211.39L522.85 214.21L522 213.35L520.94 211.63L522.82 209.22L518.4 203.49L515.11 202.1L514.7 199.29L512.14 195.92L509.99 197.46L507.33 195.87L506.41 191.94L507.73 187.73H507.51L506.86 188.6L503.7 186.02L502.98 186.06L502.03 185.39L498.6 187.96L493.12 184.15L491.77 187.04L489.48 186.49L488.43 184.47L483.54 184.86L478.37 177.84L477.09 176.98L475.37 177.85H474.91L474.04 178.99L473.87 177.84L467.44 175.08L464.28 176.17L465.06 170.43L461.57 172.43L458.1 167.76L458.31 166.22L458.76 166.26L460.63 163.22L459.41 161.78L461.33 160.18H461.73L462.86 156.57L458.78 153.08L460.29 152.21L460.26 148.77L466.06 141.9L464.89 136.14L467.5 133.51L466.7 130.53L470.56 126.38L472.27 126.39L472.91 124.3L475.61 124.73L479.08 119.39L482.63 121.24L483.83 114.9L486.01 114.53L486.19 112.68L489.58 111.96L494.19 112.71L498.31 111.43L500.41 113.19L507.01 108.34L506.99 104.5L509.69 105.51L511.5 108.31Z" fill="#CCCCCC" stroke="white" stroke-width="0.5"/>
<path d="M437.29 88.02L442.48 91.7L444.59 90.38L449.52 93.33L454.72 93.58L454.8 95.22L457.74 96.98L463.2 96.3L462.94 99.31L467.26 103.83L471.23 105.89L476.45 104.45L475.45 106.54L476.81 107.22L475.59 110.71L476.5 113.36L477.75 113.3L477.93 110.99L480.18 110.86L482.99 111.65L483.83 114.9L482.63 121.24L479.08 119.39L475.61 124.73L472.91 124.3L472.27 126.39L470.56 126.38L466.7 130.53L467.5 133.51L464.89 136.14L466.06 141.9L460.26 148.77L460.29 152.21L458.78 153.08L462.86 156.57L461.73 160.18H461.33L459.41 161.78L460.63 163.22L458.76 166.26L458.31 166.22L458.1 167.76L461.57 172.43L465.06 170.43L464.28 176.17L467.44 175.08L473.87 177.84L474.04 178.99L474.91 177.85H475.37L477.09 176.98L478.37 177.84L483.54 184.86L488.43 184.47L489.48 186.49L491.77 187.04L493.12 184.15L498.6 187.96L502.03 185.39L502.98 186.06L503.7 186.02L506.86 188.6L507.51 187.73H507.73L506.41 191.94L507.33 195.87L509.99 197.46L512.14 195.92L514.7 199.29L515.11 202.1L518.4 203.49L522.82 209.22L520.94 211.63L522 213.35L522.85 214.21L524.52 211.39L526.56 211.53L527.54 215.14L526.19 218.92L520.95 217.31L520.64 219.92L515.96 222.17L517.08 224.57L515.07 226.21L515 228.21L514.6 229.15L509.9 229.11L507.39 225.63L504.95 226.53L504.82 228.91L503.41 227.23L501.12 227.54L503.6 232.2L501.68 234.43L498.16 234.71L497.3 233.32L492.54 234.85L490.34 234.12L491.4 236.63L487.61 240.58L485.3 237.28L483.6 237.78L480.14 236.04L478.62 237.09L479.64 233.65L478.18 232.38L474.93 236.64L476.95 242.17L473.88 243.86L471.36 247.94L469.39 248.97L465.53 248.42L464 249.72L462.33 248.66L460.84 252.62L459.13 251.68L457.36 244.74L447.64 239.48L447.4 237.55L450.06 235.47L449.42 233.75L448.48 236.27L444.75 235.22L444.69 231.51L443.42 231.01L439.34 221.98L436.06 221.24L434.03 223.25L436.8 229.63L435.03 233.99L432.1 236.91L426.41 232.64L426.74 230.4L429.28 229.33L428.38 227.23L426.46 226.44L425.63 219.14L427.18 218.73L427.7 216.16L429.72 216.09L421 214.49L421.81 209.07L426.31 210.17L425.71 207.81L427.14 206.65L427.43 203.49L428.52 203.35L426.82 201.27L427.04 198.83L430.92 195.3L431.03 190.4L429.63 188.53L425.77 188.89L427.8 185.96L426.02 184.51L427.12 183.2L423.14 179.12L423.18 176.13L420.95 174.59L421.14 170.19L423.81 168.13L418.79 150.83L421.96 150.52L422.11 151.42L422.54 150.76L423.82 148.29L427.83 146.24L428.08 142.41L426.64 140.96L428.84 138.69L427.22 135.48L429.2 134.33L432.77 125.72L432.66 122.75L434.33 122.52L435.79 119.27L440.93 119.32L442.69 116.25L444.79 120.25L447.42 118.34L445.07 114.61L446.7 111.6L445.17 108.15L440.11 106.29L436.7 95.85L432.12 93.26L434.14 88.27L437.29 88.02Z" fill="#CCCCCC" stroke="white" stroke-width="0.5"/>
<path d="M432.52 122.73L432.66 122.75L432.77 125.72L429.2 134.33L427.22 135.48L428.84 138.69L426.64 140.96L428.08 142.41L427.83 146.24L423.82 148.29L422.54 150.76L422.11 151.42L421.96 150.52L418.79 150.83L423.81 168.13L421.14 170.19L420.95 174.59L423.18 176.13L423.14 179.12L427.12 183.2L426.02 184.51L427.8 185.96L425.77 188.89L429.63 188.53L431.03 190.4L430.92 195.3L427.04 198.83L426.82 201.27L428.52 203.35L427.43 203.49L427.14 206.65L424.6 207.01L417.67 203.3L414.55 202.75L413.23 203.85L410.75 202.13L409.13 203.66L404.62 202.28L403.27 207.93L400.09 207.89L398.54 206.48L394.67 208.31L394.33 206.62L392.05 207.25L391.07 210.31L389.72 209.11L385.89 204.79L381.74 203.2L380.32 203.81L378.76 202.5L379.05 200.96L371.97 195.5L367.85 195.65L367.16 194.06L363.79 194.94L361.56 191.25L359.68 190.43H359.1L356.02 190.16L354.52 187.23L351.69 190.45V191.15L351.85 192.18L350.22 192.6L350.92 193.98L347.14 194.76L340.67 190.15L342.1 186.48L340.83 187.5L336.97 184.54L334.08 184.85L334.72 181.48L330.69 181.68L328.05 178.3L326.28 178.7L326.12 177.21L324.19 176.58L322.5 177.85L321.71 176.47L317.59 177.63L315.93 174.65L308.92 170.12L308.91 164.97L311.05 164.35L312.54 160.81L310.67 158.81L312.02 155.98L305.95 152.8L306.92 150.44L305.51 151.04L305.48 149.25L302.62 149.51L302.89 148.39L300.14 148.11L297.34 145.29L298.29 143.98L300.38 144.08L298.42 142.24L301.4 141.86L300.48 138.42L302.68 138.27L300.13 137.18L300.81 135.95L303.67 136.76L303.97 135.85L304.98 137.16L308.18 135.24V134.61L311.15 134.2L311.2 131.62L312.58 130.86L313.89 131.77L315.32 129.56L316.96 131.93L318.39 132L317.91 131.12L322.37 132.02L322.58 130.93L326.26 133.05L327.75 131.12L329.61 131.77L330.92 130.64L331 128.04L334.07 126.1L337.28 128.2L336.78 131.05L339.54 132.29L341.21 129.96L344.12 130.01L344.28 127.86L346.95 127.58L346.96 126.63L349 128.21L353.62 128.53L353.63 130.17L355.37 130.29L355.36 134.94L360.17 134.89L361.17 138.44L364.42 138.9L366.88 141.89L369.57 142L372.12 145.2L376.06 144.19L376.71 142.89L376.8 144.69L379.85 143.51L384.42 144.99L382.47 142.05L386.45 139.77L385.36 137.51L388.48 136.38L390.01 134.1L392.74 133.96L397.03 131.43L398.6 127.38L405.95 131.19L407.06 130.55L411.74 134.94L418.28 137.04L421.97 131.66L425.34 130.24L428 123.68L428.93 124.09L431.13 121.47L432.52 122.73Z" fill="#CCCCCC" stroke="white" stroke-width="0.5"/>
<path d="M571.87 234.89L568.29 233.61L568.4 229.91L563.04 225.42L562.2 221.78L559.55 221.52L558.02 222.85L553.44 221.91L550.09 218.13L547.49 219.21L546.68 217.64L534.98 219.98L532.77 215.24L527.54 215.14L526.19 218.92L520.95 217.31L520.64 219.92L515.96 222.17L517.08 224.57L515.07 226.21L514.6 229.15L509.9 229.11L507.39 225.63L504.95 226.53L504.82 228.91L503.41 227.23L501.25 227.48L503.6 232.2L501.68 234.43L498.16 234.71L497.3 233.32L492.54 234.85L490.34 234.12L491.4 236.63L487.61 240.58L485.3 237.28L483.6 237.78L480.14 236.04L478.62 237.09L479.64 233.65L478.18 232.38L474.93 236.64L476.95 242.17L473.88 243.86L471.36 247.94L469.39 248.97L465.53 248.42L464 249.72L462.33 248.66L460.84 252.62L459.13 251.68L456.47 255.76L458.09 257.73L457.16 259.96L459.8 263.29L457.97 265.39L461.51 265.63L462.61 264.26L463.07 265.53L461.69 270.53L458.45 271.21L457.63 275.3L455.16 275.41L454.81 278.88L457.91 279.37L464.22 276.83L465.8 280.59L464.9 285.06L467.48 284.19L467.57 285.25L468.94 284.84L469.78 287.57L475.14 287.42L477.38 288.71L476.8 292.53L478.88 293.04L480.48 291.95L483.97 296.34L486.95 294.67L488.46 295.43L489.83 293.92L490.78 295.98L494.47 296.86L493.57 300.26L499.22 301.93L503.43 309.82L508.43 309.01L515.57 300.22L524.65 299.74L527.27 288.44L528.94 286.81L537.44 286.66L541.57 284.64L544.17 281.6L545.76 276.83L545.26 271.19L547.52 267.45L547.07 263.83L549.25 259.79L548.52 255.63L552.02 252.25L551.99 250.11L559.26 248.74L568.34 244.91L571.78 241.19L572.45 236.81L571.87 234.89Z" fill="#CCCCCC" stroke="white" stroke-width="0.5"/>
<path d="M110.41 136.75L112.46 136.19L113.37 138.44L115.29 136.34L116.78 139.7L120.17 138.1L122.05 141.93L120.54 142.06L119.22 146.16L122.43 146.79L123.51 144.87L126.11 144.73L127.17 146.22L129.66 144.84L131.58 146.27L128.53 146.9L130.35 148.9L133.11 149.37L134.61 151.45L139.66 151.31H140.17L141.48 150.43L143.48 151.14L146.47 155.71L150.71 155.59L150.35 159.1L153.92 158.92L156.44 160.97L158.31 160.88L157.07 163.43L158.54 169.18L156.17 169.21L155.28 174.36L156.35 177.11L154.56 178.59L155.39 181.42L153.9 184.13L155.59 183.56L157.17 185.12L153.75 186.7L151.96 190.09L149.74 188.21L146.06 190.24L143.91 193.14L144.68 195.99L146.45 194.62L148.92 195.57L145.46 196.45L145.26 197.91L147.98 200.25L146.3 201.18L147.84 201.57L147.13 202.55L151.28 203.7L149.78 214.17L150.43 213.3L152.21 214.12L152.37 218.55L151.18 220.77V221.27L150.85 222.32L152.72 222.62L152.3 227.06L154.32 229.56L152.18 231.23L151.74 234.44L154.6 239.21L152.68 242.39L152.96 244.71L148.45 246.66L148.22 248.32L149.6 249.21L148.86 251.19L146.42 250.99L147.06 253.95L149.03 253.99L148.71 256.02L146.91 255.81L147.31 256.97L146.31 256.67L145.72 258.6V259.18L148.17 262.58L145.7 263.72L145.05 266.69L145.9 267.02L142.65 267.57L140.13 270.78L136.36 269.38L137.37 270.09L136.41 272.06L137.17 274.58L135.6 275.06L137.24 277.34L137.78 281.85L136.33 283.39L134.86 282.59L132.35 286.88L131.67 291.5L132.95 293.97L129.06 293.77V297.42L127.97 297.6L119.6 291.35L118.69 282.14L109.28 273.21L104.42 273.85L99.2798 270.66L98.6598 265.76L93.2098 261.65L93.4598 259.47L91.0998 258.13L90.4798 255.52L88.6598 254.97L87.9998 253.16L86.1598 253.05L85.7298 247.58L83.6798 247.33L80.5798 243.44L73.0798 241.09L72.4698 244.05L69.3898 241.96L63.3398 241.67L61.1798 235.01L56.7598 230.87L52.1398 229.51L52.0898 226.89L49.9898 223.59L50.9398 217.13L50.2398 215.89L48.8998 216.71L46.0298 215.13L43.3698 203.78L40.4498 203.99L39.8798 194.5L36.7798 194.4L32.6698 192.11L29.2098 186.67L29.0498 184.13L35.4498 180.53L34.7398 177.15L35.6598 173.66L37.7698 173.32L37.7198 170.76L38.9798 170.41L42.5698 163.91L46.4998 165.57L48.8798 162.87L51.1598 162.38L54.2698 165.87L53.5598 163.46L57.1398 163.02L56.2998 161.04L58.7198 161.48L59.8898 159.97L61.5798 160.15L61.5498 159.97L62.6198 160.64L63.9698 159.06L65.9298 159.17L69.7898 161.37L73.7498 159.92L76.5898 161.78L76.2698 160.91L77.3198 161.29L80.0598 158.65L79.5098 155.46V154.37L83.1298 153.69L83.6198 152.08L84.8098 152.54L91.9498 145.79L92.8898 147.27L97.6298 147.18L99.4398 149.25L99.9598 148.29L101.4 150.35L104.25 151.11L104.19 143.8L108.59 143.38L110.14 140.23L108.25 139.88L108.62 136.79L110.41 136.75Z" fill="#CCCCCC" stroke="white" stroke-width="0.5"/>
<path d="M221.59 126.76L221.76 127.08L223.58 127.65L224.42 128.72L222.96 130.18L227.15 129.08L227.72 132.46L232.64 133.51L233.33 136.45L237.12 137.76L236.68 140.61L231.3 142.76L231.62 144.8L233.1 144.31L232.65 146.58L233.8 148.14L232.81 150.06L231.79 149.37L231.31 151.66L226.09 148.52L225.18 149.44L223.77 148.61L222.72 149.96L221.25 149.29L221.23 149.46L221.15 150.9L218.48 150.79L215.17 154.65L211.69 155.78L209.7 155.07L209.27 158.95L207.95 157.55L203.93 158.05L202.79 156.51L204.51 155.18L203.01 154.79L204.47 151.97L201.3 151.29L200.92 146.52L198.49 146.31L197.85 143.03L195.87 142.31L196.83 140.71L200.03 139.81L195.92 136.48L193.6 136.34L196.71 134.56L199.08 134.71L201.02 132.5L202.09 132.63L201.64 134.57L206.2 134.33L205.55 131.35L206.63 129.84L209.17 130.83L212.19 128.52L215.91 129.11L215.56 128.21L215.53 127.48L220.14 126.24L221.55 125.92L221.48 126.54L221.59 126.76Z" fill="#CCCCCC" stroke="white" stroke-width="0.5"/>
<path d="M217.25 79.39L218.8 81.23L219.68 78.79L222.98 80.7L225.72 78.59L226.84 83.82L228.8 84.02L230.67 82.04L231.92 83.12L232.72 82.21L235.93 82.83L236.07 81.2L238.45 80.22L239.11 77.43L244.59 78.68L245.71 75.69L246.63 76.47L248.27 75.22L250.11 72.1L249.81 70.13L255.12 67.73L254.54 65.7L256.27 64.96L255.59 63.58L257.08 63.31L261 67.16L261.7 65.65L264.4 65.35L267.47 70.96L269.78 70.11L272.47 72.45L273.02 75.57L277.01 76.93L274.21 79.75L277.03 83.78L275.78 87.12L277.96 88.88L278.15 93.13L276.31 93.81L276.79 96.04L274.56 95.79L273.28 97.53L275.95 99.49L275.03 100.39L275.8 102.04L281.03 102.85L280.39 104.43L283.52 105.76L282.67 109.08L285.41 110.39L287.96 109.29L291.68 111.04L295.69 108.41L298.12 110.65L298.72 114.83L297.28 115.89L297.59 118.7L299.34 120.1L299.8 123.23L296.17 127.27L297.79 128.82L295.47 130.24L298.54 130.3L300.3 131.82L301.55 131.06L304.28 133.31L303.98 135.85L303.68 136.76L300.81 135.94L300.13 137.18L302.68 138.26L300.48 138.41L301.39 141.85L298.42 142.23L300.38 144.07L298.28 143.97L297.33 145.28L300.13 148.1L302.88 148.38L302.62 149.5L305.48 149.23L305.51 151.03L306.92 150.43L305.95 152.79L312.02 155.97L310.67 158.81L312.53 160.81L311.05 164.35L308.91 164.97L308.92 170.12L306.09 173.45L304.27 172.29L301.99 174.18L301.52 175.89L303.54 178.13L302.09 179.76L301.57 179.72L298.53 178.73L297.2 181.97L295.38 183L289.75 183.47L287.87 185.58L286.66 185.05L287.03 183.88L285.5 184.7L285.12 184.69L283.99 185.32L283.5 188.91L280.37 191.28L280.06 194.33L280.76 197.09L285.16 197.63L286.45 200.46L285.84 203.41L284 204.69L281.07 203.69L280.55 205.05L279.37 204.67L278.57 208.06L274.52 205.07L272.95 206.68L268.94 207.39L266.89 206L265.96 207.04L264.26 205.4L262.06 205.73L261.14 207.15L262.67 209.33L258.49 209.44L258.94 212.43L257.84 212.5L257.87 213.24L257.84 213.46L257.36 214.03L256.46 214.29L254.12 213.03L252.84 208.37L250.92 208.16L249.98 209.93L247.09 206.2L244.71 205.8H244L242.92 203.53L242.48 205.17L240.68 205.81L241.01 207.2L239.48 206.92L238.78 211.05L240.05 213.68L235.25 215.11L232.29 217.79L232 219.96L230.86 217.74L226.18 217.91L226.82 214.35L224.21 216.11L216.71 214.12L215.56 216.11L213.64 213.65L212.15 214.66L210.3 212.34L210.97 215.33L208.55 214.47L206.7 216.79L204.38 215.94L203.55 216.77L203.79 215.05L201.22 213.58L200.61 214.29L198.36 211.27L194.06 211.76L192.5 216.04L191.28 215.26L187.07 216.34L184.52 215.15L184.86 216.64L183.18 215.49L182.73 216.52L180.11 216.46L180.17 212.57L177.1 212.13L175.69 213.73L174.42 213.41L174.88 215.01L173.36 217.89L171.96 217.13L171.38 218.91L169.07 217.98L167.47 220.34L163.8 219.49L164.48 218.5L162.8 218.68L162.04 217.05L159.25 219.06L157.56 216.77L153.93 219.3L152.39 218.55L152.23 214.12L150.45 213.3L149.8 214.18L151.3 203.71L147.15 202.55L147.86 201.58L146.31 201.19L147.99 200.26L145.27 197.92L145.48 196.46L148.93 195.58L146.46 194.63L144.69 196L143.92 193.16L146.07 190.26L149.75 188.22L151.97 190.1L153.76 186.71L157.19 185.13L155.61 183.57L153.92 184.14L155.41 181.43L154.58 178.6L156.37 177.12L155.3 174.37L156.19 169.22L158.56 169.19L157.1 163.44L158.34 160.89L156.47 160.97L153.95 158.93L150.38 159.11L150.74 155.59L146.5 155.72L143.52 151.15L141.51 150.44L140.21 151.32H139.69L134.64 151.46L133.14 149.38L130.37 148.9L128.55 146.91L131.61 146.28L129.68 144.85L127.19 146.23L126.13 144.74L123.53 144.88L122.45 146.8L119.24 146.17L120.56 142.07L122.07 141.94L120.19 138.1L119.84 136.89L121.6 135.47L124.96 135.82L125.67 132.16L127.47 132.85L126.55 130.74L127.72 129.9L127.26 127.37L128.43 127.45H128.76L132.55 123.79L134.63 124.68L138.1 123.71L138.83 121.17L140.33 121.2L143.75 117.87L143.76 119.34L150.94 119.23L151.24 117.75L152.83 118.09L156.64 113.69L159.21 116.88L161.37 116.54L162.5 112.75L166.26 112.36L169.58 109.72L169.25 107.53L172.81 108.04L171.95 103.78L174.26 101.97L186.37 104.22L189.81 103.81L190.04 102.17L195.96 104.46L196.48 103.49L196.64 103.52L198.37 100.85L200.2 101.6L200.95 101.13L202.81 100.31L206.6 101.27L207.83 94.97L206.01 90.27L207.75 89.34L211.61 91.26L210.61 89.97L212.03 88.72L211.77 86.85L216.25 87.39L214.76 80.66L216.41 80.25L216.06 78.86L217.25 79.39ZM215.56 128.21L215.9 129.11L212.18 128.52L209.16 130.83L206.62 129.85L205.54 131.35L206.18 134.33L201.62 134.57L202.07 132.63L201 132.5L199.06 134.71L196.69 134.56L193.58 136.35L195.89 136.49L200 139.82L196.8 140.72L195.84 142.32L197.82 143.04L198.46 146.33L200.88 146.54L201.26 151.31L204.43 151.98L202.97 154.8L204.47 155.19L202.74 156.52L203.88 158.06L207.9 157.56L209.22 158.96L209.64 155.08L211.64 155.79L215.11 154.65L218.43 150.79L221.1 150.9L221.18 149.46L221.2 149.29L222.66 149.96L223.72 148.61L225.13 149.44L226.03 148.51L231.26 151.65L231.74 149.36L232.76 150.05L233.75 148.13L232.57 146.32L233.05 144.3L231.58 144.79L231.26 142.75L236.63 140.6L237.07 137.75L233.28 136.44L232.59 133.5L227.67 132.45L227.09 129.07L222.9 130.17L224.36 128.71L223.52 127.64L221.69 127.08L221.41 126.53L221.48 125.91L220.07 126.23L215.46 127.47L215.56 128.21Z" fill="#CCCCCC" stroke="white" stroke-width="0.5"/>
<path d="M203.87 3.25L206.35 2.48999L208.57 5.26999L211.36 6.25L214.62 3.76999L218.07 5.57001L218.78 2.23001L218.6 5.76001L221.56 6.53L221.87 8.41998L224.56 7.54001L227.84 11.78L224.69 20.59L226.27 21.32L232.31 18.73L232.54 22.47L231.12 23.6L229.56 29.23L228.07 31.7L224.93 32.15L223.45 37.88L220.9 38.08L216.53 35.24L213.66 35.94L214.91 36.71L214.03 39.58L214.89 40.36L212.2 42.41L211.25 45.75L212.41 46.7L211.09 47.16L210.87 46.18L209.86 48.11L209.07 48.4L207.69 48.93L207.74 53.07L205.08 55.26L204.51 57.81L206.26 57.96L206.06 61.99L207.88 65.97L210.23 67.67L213.39 75.97L216.13 76.39L217.25 79.39L216.02 78.84L216.37 80.23L214.72 80.64L216.21 87.37L211.74 86.83L212 88.7L210.58 89.95L211.58 91.23L207.72 89.31L205.99 90.24L207.81 94.94L206.58 101.25L202.79 100.28L200.92 101.1L200.17 101.57L198.35 100.82L196.62 103.49L196.46 103.46L195.94 104.44L190.02 102.15L189.79 103.79L186.35 104.2L174.24 101.95L171.94 103.76L172.8 108.03L169.23 107.52L169.56 109.71L166.24 112.34L162.48 112.74L161.35 116.53L159.19 116.87L156.62 113.68L152.81 118.08L151.22 117.74L150.92 119.23L143.75 119.34L143.74 117.87L140.32 121.2L138.82 121.17L138.09 123.71L134.61 124.68L132.53 123.79L128.75 127.45H128.41L127.24 127.37L127.71 129.9L126.54 130.74L127.46 132.85L125.66 132.16L124.95 135.82L121.58 135.47L119.82 136.89L120.17 138.1L116.78 139.7L115.29 136.34L113.37 138.44L112.46 136.19L110.41 136.75L107.87 132.76L105.31 133.06L103.87 131.91L104.49 130.87L104.54 130.76L108.68 131.4L107.14 128.59L108.76 128.63L109.09 127.08L108.01 127.04L106.75 121.78L104.22 121.44L106.19 118.73L103.14 116.52L104.48 115.67L104.28 112.41L102.6 112.03L104.22 108.83L103.42 105.84H103.64L104.56 103.41L102.08 99.82L99.7404 101.4L95.2604 100.02L93.6004 101.77L92.0104 100.1L92.0404 96.79L90.4404 97.05L88.9304 95.58L87.4104 96.81L85.0104 95.07L80.8704 95.69L78.4504 93.65L77.8604 92.58L81.3504 91.62L85.0104 87.44L86.0204 78.75L90.8704 80.19L95.0404 77.52L95.6304 79.19L100.78 79.66L105.48 67.09L108.3 67.06L109.42 69.55L112.31 68.85L112.54 64.94L117.19 62.09L116.77 58.87L118.45 59.37L120.69 63.65L125.34 65.5L128 61.66L130.58 60.39L129.56 58.36L132.23 55L130.74 50.98L133.63 49.68L137.63 50.32L143.24 47.26L147.1 49.31L148.87 46.96L150.11 47.91L153.44 46.67L160.56 47.84L161.07 45.69L164.34 45.42L163.32 41.96L164.52 38.48L167.88 38.89L169.41 36.42L172.61 34.71L176.25 36.95L180.51 35.81L181.56 33.81L193.8 28.96L194.65 25.07L197.66 23.97L201.01 25.55L205.13 24.31L205.19 23.01L208.55 23.52L209.47 18.09L201.67 15.43L202.24 14.68L200.98 13.84L203.27 12.75L202.97 11.12L199.24 12.25L197.03 10.67L197.12 7.73999L198.96 6.85999L199.41 5.03L198.3 3.32001L202.02 1L203.87 3.25Z" fill="#CCCCCC" stroke="white" stroke-width="0.5"/>
<path d="M308.92 170.12L315.93 174.65L317.59 177.63L321.71 176.47L322.5 177.85L324.19 176.58L326.12 177.21L326.28 178.7L328.05 178.3L330.69 181.68L334.72 181.48L334.08 184.85L336.97 184.54L340.83 187.5L342.1 186.48L340.67 190.15L347.14 194.76L350.92 193.98L350.22 192.6L351.85 192.18L351.69 191.15V190.45L354.52 187.23L356.02 190.16L359.1 190.43H359.68L361.56 191.25L363.79 194.94L367.16 194.06L367.85 195.65L371.97 195.5L379.05 200.96L378.76 202.5L380.32 203.81L381.74 203.2L385.89 204.79L389.72 209.11L389.78 211.7L388.09 213.31L389.42 215.08L391.4 215.02L392.22 217.21L389.26 221.46L386.37 220.57L389.6 223.82L387.36 228.36L387.8 232.07L389.12 232.35L387.97 236.41L389.33 240L387.44 241.77H386.65L380.53 244.77L379.72 248.53L377.8 249.4L377.69 251.53L380.37 254.07L377.19 254.76L375.82 260.31L379.1 261.94L379.06 264.05L375.34 265.53L374.74 266.89L375.91 268.02L375.61 270.67L377.82 269.62L377.18 271.07L378.73 271.75L378.48 273.58L376.72 275.74L374.54 276.08L373.29 279.75L366.91 280.32L366.03 281.44L367.66 283.12L362.34 284.08L362.11 285.23L357.29 282.92L356.31 285.22L353.97 285.83L351.5 284.2L350.76 281.77L348.15 282.5L348.35 284.16L346.87 285.48L343.94 284.16L343.05 288.26L337.91 288.02L335.74 291.58L332.53 292.17L329.91 296.82L327.82 293.93L323.77 294.48L322.62 298.01L320.44 297.5L319.34 295.18L316.98 295.58L316.96 296.56L315.82 295.54L316.4 294.18L311.39 292.78L311.35 290.31L309.95 289.73L308.67 290.98L308.07 289.85L312.25 286L311.5 284.35L313.55 283.6L312.83 281.53L314.09 281.09L313.98 278.96L317.91 279.21L317.34 277.91L318.38 277.53L316.68 275.89L317.49 275.12L314.23 273.67L315.73 273.55L315.23 271.81L313.14 270.88L312.38 272.31L310.7 271.5L309.42 273.14L306.25 273.11L303.86 271.24L302.31 273.3L294.41 266.6L295.66 262.92L294.86 259.68L288.06 259.87L286.77 261.23L287.13 259.49L281.21 256.96L278.95 259.73L277.46 259.03H276.59L275.13 255.44L272.92 256.35L270.77 254.67L273.07 255.23L273.41 252.4L269.62 252.1L266.68 248.66L263.21 251.85L262.07 251.61L255.3 243.59L257.94 240.44L253.86 237.55L256.23 230.88L254.97 230.41L257.31 226.44L256.6 223.96L257.93 222.71L254.97 218.35L255.48 217.02L258.77 217.05L257.85 213.46L257.88 213.24L257.85 212.5L258.95 212.44L258.5 209.45L262.68 209.33L261.15 207.15L262.07 205.73L264.27 205.4L265.97 207.04L266.9 206L268.95 207.39L272.96 206.68L274.53 205.06L278.58 208.06L279.39 204.66L280.57 205.04L281.09 203.67L284.02 204.68L285.85 203.39L286.47 200.44L285.17 197.62L280.77 197.07L280.08 194.31L280.38 191.26L283.51 188.89L284 185.31L285.13 184.68L285.51 184.69L287.04 183.87L286.67 185.04L287.88 185.57L289.76 183.46L295.39 182.99L297.21 181.96L298.54 178.72L301.58 179.71L302.09 179.75L303.54 178.11L301.52 175.88L301.99 174.17L304.27 172.29L306.09 173.45L308.92 170.12Z" fill="#CCCCCC" stroke="white" stroke-width="0.5"/>
</svg>
