<svg width="794" height="309" viewBox="0 0 794 309" fill="none" xmlns="http://www.w3.org/2000/svg">
<path d="M588.44 189.27L589.851 188.7L591.471 188.64L592.371 189.02L592.471 189.29L593.281 189.17L596.021 189.88L597.801 191.9L598.271 195.35L598.081 196.13L597.681 196.48L598.271 198.5L600.531 199.92L603.601 199.53L603.861 199.69L605.401 199.8L606.351 198.5L607.421 197.43L608.26 198.26L609.801 200.99L610.871 201.59L611.461 203.13L611.581 204.44L612.301 205.27L613.361 205.63L614.791 205.27L617.411 205.03L617.541 203.38L617.671 203.35L618.671 202.42L619.421 200.36L620.671 199.01L621.82 198.29L623.021 197.88L624.361 197.67L625.75 197.31L626.171 197.05L626.561 194.81L627.621 193.51L628.281 193.55L628.271 193.38L630.051 192.76L629.88 194.58L630.241 195.88H631.431L632.851 194.69L633.171 193.86L633.681 194.1L634.991 194.22L636.421 195.05L636.541 196.24L636.301 197.31L635.231 197.55L634.5 197.58L634.161 198.08L632.731 197.9L630 198.73L628.811 199.57L627.981 200.52L627.621 202.06L627.861 203.61L628.111 203.63L628.811 204.42L628.57 205.98L627.981 207.05L626.561 208.12L625.721 209.43L625.491 210.97V214.18L625.01 216.32L624.061 217.63L622.75 218.46L620.26 218.94L618.711 220.24L617.76 222.26L616.57 224.64L613.601 225.47L611.82 226.78L611.111 226.66L610.871 228.68L609.211 229.63L607.421 231.06L605.76 232.48L606.121 233.79L606.51 234.88L606.481 235.17L605.641 236.11L605.051 238.13L605.88 240.98L605.171 241.93L604.061 242.21L603.921 242.07L603.151 241.93L601.961 240.98L601.361 237.53L600.771 236.11L599.581 234.92L598.981 234.57L598.551 234.93L596.07 236.48L595.19 235.86L594.401 234.14L594.171 233.11L594.181 232.11L594.101 229.81L591.951 229.02L587.491 228.92L586.13 228.64L582.561 228.25L581.311 228.19L581.291 228.03H580.331L579.26 227.43L578.911 225.17L579.38 224.82L580.331 223.27L580.931 222.56L580.971 221.44L580.931 219.83L579.621 219.11H578.351L574.271 217.87L572.76 216L573.07 215.17L573.901 215.83L574.5 214.3L575.721 211.57H576.311L577.181 209.95L577.94 207.44L579.69 203.93L581.701 200.16L584.711 194.89L586.471 193.64L587.971 192.64V189.36L588.44 189.27Z" fill="#CCCCCC" stroke="white" stroke-width="0.5"/>
<path d="M596.82 127.05L597.53 127.18L598.15 127.1L598.99 126.31L600.29 125.36L601.84 124.88L603.86 124.65L606.12 124.77L606.72 125.75L606.83 125.8L607.85 126.65L610.04 127.08L612.77 126.85L613.72 125.18L616.93 125.42L617.68 125.92L615.82 126.98L615.73 127.99L615.66 129.61L614.86 131.77L613.97 132.78L613.09 133.46L613.9 135.98L614.01 136.08L614.2 137.18L614.67 138.37L615.86 140.04L616.41 140.24V140.46L616.53 141.26L616.56 141.41L616.22 142L615.39 143.9L614.79 145.56V146.75L616.45 146.99L617.05 148.17L616.81 149.72L615.74 149.6V150.67L615.84 151.4L615.7 151.5L615.98 152.1L614.79 153.28L613.72 154.12L612.19 153.98L612.06 154.05L611.7 153.88L609.21 154.71L608.73 157.68L608.61 160.65L608.97 164.22L608.14 166.12V169.21L608.08 171.09L606.34 172.57L604.48 173.92L603.86 173.13L604.45 172.3L604.93 170.63L603.38 170.99L602.18 170.88L602.23 169.58L602.17 169.02L599.23 167.54L597.56 164.81L596.61 162.2L597.32 160.06L598.03 159.24L597.7 157.88L597.67 155.89L597.48 154.47H598.51L599.7 153.76L599.94 152.81L598.87 152.69L597.92 152.45H597.2L596.74 149.07L594.12 148.53L593.88 147.46L595.07 146.75L596.32 146.39L596.27 146.15L596.97 146.04L597.8 145.09L598.04 143.3L597.09 142.95H595.69L595.24 140.49L594.35 140.57L592.81 139.86L592.57 138.91L593.76 138.79L594.76 137.97L594.55 136.97L594.83 136.17L596.02 135.82L596.61 132.49L595.3 132.01L594.5 131.95L594.58 131.72L594.07 131.5L592.1 132.49L590.67 132.37L589.96 131.9L590.91 130.71L592.1 129.99L593.05 129.73V129.52L594.12 128.33L595.66 127.62L596.6 126.94L596.82 127.05Z" fill="#CCCCCC" stroke="white" stroke-width="0.5"/>
<path d="M657.75 28.93L660.12 31.07L664.76 31.31L666.63 31.65L669.03 30.72L672.96 29.88L674.61 31.12L675.38 31.65L675.45 32.62L673.91 33.69V34.99L675.14 35.47L677.39 37.83L676.44 38.9L674.91 38.68L673.48 40.22L672.77 42.95L670.63 45.69L669.36 47.41L668.9 47.71L668.15 48.59L667.82 49.54L667.39 51.75L665.69 51.69L664.33 51.44L663 50.94L661.17 49.93L660.19 48.56L656.33 46.32L654.06 46.2L653.81 46.06L653.04 44.32L653.16 42.06L652.92 40.28L651.26 37.9L649.12 36.12L647.46 33.75L645.91 31.96L644.49 31.56L643.96 31.03L642.28 30.07L640.8 30.18L638.19 29.71H637.52L635.96 29.05L635.86 28.76L634.5 28.46V26.49L633.23 25.84L633.01 24.19L633.17 23.55L632.96 22.52L632.84 19.31L633.64 19.16L633.61 18.89L634.86 18.12L635.1 16.46L634.74 14.08L634.93 13.23L636.1 13.57L639.09 15.51L639.69 17.53L642.04 19.39L643.73 20.26L645.98 21.09L649.19 21.8L650.38 23.23L650.5 24.18L653.21 25.93L655.49 28.1L657.75 28.93Z" fill="#CCCCCC" stroke="white" stroke-width="0.5"/>
<path d="M693.16 72.27L697.38 73.97L699.4 73.82L700.82 74.17L703.08 75H704.5L706.05 74.05L707.83 73.34L709.97 73.58L711.87 75.72L712.35 76.19L712.82 77.5L714.25 79.04L715.32 80.47L717.1 82.25L719.12 85.46L720.66 86.53L723.04 87.6L723.75 88.91L724.73 89.76L725.02 89.55L726.33 89.41L726.75 89.73L727.08 89.62L728.15 89.5L729.22 90.21L730.17 91.28L731.31 93.07L735.13 94.24L736.35 94.91H738.01L739.32 93.84L740.84 92.22L749.77 92.01L750.68 91.94L751.63 93.72L752.16 95.09L753.89 96L754.3 96.15L754.36 97.4L756.98 97.76L758.52 98.12V97.05L757.67 96.52L757.62 95.06L757.74 91.1L758.69 90.87L760.11 90.99L762.14 91.58L763.2 92.41L764.02 93.12L764.8 92.89H769.66L773.36 93.61L775.56 95.8L775.76 95.88L776.23 97.16L778.13 97.64L781.57 97.76L783.2 97.69L783.57 98.78L789.08 101.03L789.96 103.23L788.87 104.23L790.06 105.19L790.18 107.09L790.89 107.8V109.58L792.08 110.06L791.84 114.69L793.03 116.35H786.73L785.78 115.05L784.36 115.4V118.61L783.29 120.51L782.34 123.25L780.2 129.9L777.94 137.86L775.64 142.01L775.15 143.26L774.02 143.99L774.15 142.62V140.95H772.25L771.23 141.43L770.82 141.3L767.65 139.38L767.34 137.68L766.15 136.38L764.49 136.14L762.84 136.36L762.74 135.37L761.79 134.42L759.53 133.35L758.86 134.07L758.43 133.81L750.07 131.29L747.44 130.61L741.96 131.32L739.87 132.02L736.74 131.45L736.01 129.9L735.29 129.19L733.39 129.54H732.41L731.34 128.53L729.2 127.46L728.34 126.31V123.97L729.07 122.53L729.3 120.99L728.71 119.92L725.98 119.68L724.61 118.77L721.71 119.39L718.2 120.65L716.19 121.15L713.68 121.4L713.18 124.66L711.17 124.41L708.91 121.9L706.41 122.15L705.4 120.9L702.48 121.22L702.39 120.15L701.62 119.05L700.88 119.02L700.38 117.39L702.64 117.64L704.65 116.63L701.89 114.38L704.15 113.37V112.12L699.63 111.87L698.12 110.86L696.37 110.36V108.35L697.87 107.1L700.38 104.84V102.33H698.12L696.37 104.09L692.1 108.85L690.1 109.36L687.08 111.11L684.07 111.62L683.07 113.12L681.31 113.87L677.55 113.62L678.3 111.62L679.81 109.86L680.31 107.1L679.56 105.09L681.56 103.33L680.81 101.83L680.06 98.82L679.06 97.56L677.3 97.31L676.55 95.56L675.04 94.55L676.55 93.3H677.8V91.04L679.81 90.79L681.06 92.29L683.32 92.55V93.3L685.58 92.8L686.08 91.54H687.84L688.59 89.03H689.84V86.27L691.85 84.52L694.11 83.01L692.86 82.01V78.75L692.1 76.24L691.86 73.96L692.14 73.64L692.95 72.21L693.16 72.27Z" fill="#CCCCCC" stroke="white" stroke-width="0.5"/>
<path d="M634.93 13.23L634.74 14.08L635.1 16.46L634.86 18.12L633.61 18.89L633.64 19.16L632.84 19.31L632.96 22.52L633.17 23.55L633.01 24.19L633.23 25.84L634.5 26.49V28.46L635.86 28.76L635.96 29.05L637.52 29.71H637.36L637.59 30.66L637.83 31.25V32.32L636.92 32.27L636.93 32.39L636.29 32.32L635.1 33.03L634.98 33.86V36.36L636.76 37.04L637.71 37.79L638.9 39.45V40.99L637.95 42.66L637.48 43.37L636.17 43.96L635.45 44.44H634.52L634.28 44.71L632.84 44.5L632.57 46.67L628.21 51.67L627.27 52.32L625.77 52.47L624.84 51.91L623.87 50.52L621.03 50.83L620.13 51.81L619.29 52.88L617.04 52.64H614.54L613.37 52.39L612.83 52.65L611.42 53L610.26 54.06L607.77 53.95L604.92 54.18L603.56 54.54L602.09 54.02L599.01 53.32L597.43 53.83L597.19 55.85L596.48 56.56L595.65 57.27H594.34L594.46 59.53L595.53 60.36L596.12 60.96L595.17 63.33L593.67 65.53L593.55 68.63L591.99 68.18L590.73 69.44L590.23 70.69H584.96L582.7 69.94L581.43 69.41L581.39 68.56L581.63 66.66L583.11 64.68L582.1 64.46L581.82 64.25L581.88 63.57L581.04 62.86L579.08 62.93L577.38 62.14L576.69 61.45L576.58 61.3L577.72 59.41L577.96 58.58H578.43L578.19 56.8L577 56.32L576.29 55.97V54.78L576.77 53.83L576.65 53.11L575.7 51.45L574.15 51.21H573.32L572.3 54.1L572.13 53.98V54.54L570.59 55.37H568.81L567.49 55.31L566.57 56.17L566.01 57.61L564.57 58.19L563.62 57.72L562.97 56.72L561.87 54.02L561.7 53.3L561.92 53.03L562.19 51.9L560.57 51.15L560.26 49.14L559.86 48.21L560.81 46.64L561.64 44.5L561.76 43.07V41.53L560.12 40.13L559.44 39.18L558.43 38.8L557.24 37.13L557.96 34.76L558.2 33.33L559.62 31.43L561.64 31.31L564.61 31.78L567.46 30L569.96 28.93L571.74 28.34L572.57 26.79L573.76 25.61L575.42 24.66L578.16 23.59L580.28 22.35L582.09 22.53L583.52 22.29L585.19 21.09L587.81 20.14L590.3 18.95L594.34 18.83L596.12 18.36L597.77 18.14L600.02 17.96L601.59 18.24L602.9 17.88L604.44 16.69L606.89 14.91L607.25 12.65L610.34 10.04L613.31 7.9L615.97 5.75L618.15 1.42L619.08 1L623.29 3.27L626.02 7.07L627.02 8.61L628.33 9.68L629.57 10.3L632.91 12.65L634.93 13.23Z" fill="#CCCCCC" stroke="white" stroke-width="0.5"/>
<path d="M603.53 174.49L605.49 178.56L606.58 179.97L607.56 180.88L610.19 182.81L610.86 183.24L611.39 184.01L613.32 183.85H617.18L618.16 183.53L619.4 182.92L619.42 183.39L620.84 182.6L622.1 180.59H623.1L623.85 181.85L626.11 182.1L627.12 179.84H628.62L629.62 180.59H631.63L631.45 180.84L633.92 183.29L634.22 184.39L634.04 185.78L634.52 187.33L634.16 190.77L633.92 192.2L632.97 192.67L632.64 193.62L633.17 193.86L632.85 194.69L631.43 195.88H630.24L629.88 194.58L630.05 192.76L628.27 193.38L628.28 193.55L627.62 193.51L626.56 194.81L626.17 197.05L625.75 197.31L624.36 197.67L623.02 197.88L621.82 198.29L620.67 199.01L619.42 200.36L618.67 202.42L617.67 203.35L617.54 203.38L617.41 205.03L614.79 205.27L613.36 205.63L612.3 205.27L611.58 204.44L611.46 203.13L610.87 201.59L609.8 200.99L608.26 198.26L607.42 197.43L606.35 198.5L605.4 199.8L603.86 199.69L603.6 199.53L600.53 199.92L598.27 198.5L597.68 196.48L598.08 196.13L598.27 195.35L597.8 191.9L596.02 189.88L593.28 189.17L592.47 189.29L592.37 189.02L591.47 188.64L589.85 188.7L588.44 189.27L587.33 189.44L586.04 190.24L584.85 189.76L584.13 188.69L585.56 187.63L586.75 186.56L588.17 185.01L588.77 182.63L589.36 181.33L590.67 181.09L591.5 181.45L592.33 181.52L594.24 180.1L595.42 180.14L598.27 179.78H601.01L602.08 178L603.03 176.1L603.22 174.58L603.53 174.49Z" fill="#CCCCCC" stroke="white" stroke-width="0.5"/>
<path d="M555.92 213.73L552.55 214.68L551.68 214.77L550.46 216.43L546.42 216.07L544.52 213.81L542.98 211.08L542.74 208.82L543.93 208.94L545.95 210.96L547.02 213.22L548.71 213.74L549.1 205.88L549.25 205.36L549.44 204.88L551.84 199.91L557.74 197.41L560 196.92L560.89 196.85L563.65 198.6L566.52 199.72L566.51 201.22L565.44 202.76L562.59 203.24L557.01 210.81L556.45 213.01L555.92 213.73ZM582.2 110.2L587.11 110.03L586.63 112.05L586.12 112.94L586.08 113.12L586.39 113.3L586.86 115.2L586.98 116.63L585.79 117.82L584.92 117.92L584.52 119.56L582.05 120.5L577.59 123.19L576.68 123.91L575.02 125.81L574.63 126.73L574.07 129.16L573.8 130.1L573.44 131.06L572.27 132.59L570.97 133.74L569.65 135.01L569.04 135.86L568.56 137.31L568.4 139.06L568.48 140.45L568.94 145.18L569.07 145.54L568.44 146.66V147.97L569.27 148.92L569.75 151.06L570.46 151.65L573.07 152.01L573.43 153.55L574.62 155.21L574.98 157.23L576.05 158.42L578.31 160.68L579.85 160.8L580.34 160.17L580.48 160.23L581.04 159.73L582.82 158.9L584.96 159.02L585.46 159.74L586.11 159.63L587.59 160.21L590.82 162.86L592.63 164.87L593.55 166.3L594.22 167.75L594.85 168.73L596.27 170L596.52 170.15L597.1 168.99H597.69L598.64 170.06L600.18 171.13L600.3 172.1L601.66 172.76L601.94 172.1L602.05 171.92L602.19 170.95L603.39 171.01L604.93 170.65L604.46 172.31L603.87 173.14L604.47 173.95L604.07 174.27L603.57 174.51L603.26 174.59L603.03 176.1L602.08 178L601.01 179.78H598.28L595.43 180.14L594.25 180.1L592.34 181.52L591.51 181.44L590.68 181.08L589.37 181.32L588.78 182.63L588.19 185.01L586.76 186.55L585.57 187.62L584.14 188.69L584.85 189.76L586.04 190.24L587.33 189.44L587.97 189.36V192.64L586.47 193.64L584.71 194.89L581.7 200.16L579.69 203.92L577.93 207.43L577.18 209.94L576.31 211.56H575.72L574.5 214.29L573.9 215.82L573.07 215.15L572.74 215.97L567.23 215.74L567.04 215.83L567.43 214.86L567.74 213.9L568.61 208.84L569.96 203.59L572.39 196.71L572.94 195.93L574.01 195.28L571.16 195.16L571.99 191.48L570.8 190.89L570.09 196.12L567 196L567.59 193.39L568.18 191.13L567.13 190.71L566.38 191.95L565.15 193.02L564.49 196.12L561.4 195.53L559.02 194.34L558.73 192.62L560.45 185.6L561.58 182.39L562.97 181.85L563.97 180.34L560.62 181.58L558.99 184.94L558.29 186.89L556.78 189.74L553.49 193.31L551.39 195.17L549.86 196.37L549.71 200.28L547.87 200.03L546.87 199.7L543.92 196.73L540.73 196L534.5 189.71L533.75 188.78L536.54 185.6L538.8 185.1L539.8 184.35L542.06 181.34L545.57 180.84L548.83 180.09L550.08 179.34L551.08 175.83L552.08 173.57L550.32 171.56L550.07 167.8L549.32 167.55L547.06 167.05L546.56 164.79L544.3 163.03L542.04 162.28L539.78 161.78L538.78 159.02L538.03 157.51L537.78 155.25V150.48H539.54L542.8 149.73L544.81 151.34L544.95 151.35L545.51 150.79L546.46 150.08L547.65 150.79L549.31 151.15L549.55 150.32L551.57 150.2V148.18L550.26 147.11L548.72 145.45L548.48 144.38L550.74 144.62L552.88 143.67L553.71 143.19L553.59 142.36L552.4 141.05L552.28 140.22L552.52 138.79L553.47 136.77L554.9 136.65L555.02 133.2H555.93L555.97 133.01L556.4 131.99L557.75 132.25L559.77 130.11L560.6 129.52L561.21 128.31L562.9 127.6L562.98 127.03L563.1 125.01L564.29 124.42L565 124.9L565.95 124.78L566.43 124.3L567.1 124.12L567.28 123.67L568.69 122.93L569.52 121.86L569.64 120.67L570.59 120.08H571.54L571.78 117.7L573.32 116.87L574.03 115.8L574.09 114.29L574.41 114.12L575.34 111.75H576.17L576.41 112.34L578.14 112.66L579.6 112.32L580.02 111.55L580.74 111.62L582.24 110.67L582.2 110.2Z" fill="#CCCCCC" stroke="white" stroke-width="0.5"/>
<path d="M616.53 141.26L617.17 140.75L618 139.32L618.83 138.25L619.9 138.13L621.26 138.07L622.1 138.8L622.87 140.15L624.06 141.1H625.37L626.19 140.08L627.04 140.1L628.49 140.04L630.17 139.85L631.63 140.04L633.69 140.88L635.14 140.73L635.98 140.46L637.4 141.45L639.41 142.2L641.1 142.62L641.17 144.08L641.26 146.62L640.39 148.3L639.75 149.3L638.56 149.66L636.66 151.56L635.59 152.99L636.89 154.53L638.08 156.08L638.32 158.33L635.94 162.02L633.8 163.92L634.16 164.63L635.7 165.46L637.01 165.82L636.42 167.48L636.54 169.27L636.66 170.45L634.99 171.17L632.85 171.52L633.33 172.71L634.4 174.26L634.52 176.51L632.97 177.35L633.37 178.69L631.81 180.35L631.63 180.59H629.62L628.62 179.84H627.12L626.11 182.1L623.85 181.85L623.1 180.59H622.1L620.84 182.6L619.42 183.39L619.4 182.92L618.16 183.53L617.18 183.85H613.32L611.39 184.01L610.86 183.24L610.19 182.81L607.56 180.88L606.58 179.97L605.49 178.56L603.53 174.49L604 174.27L606.34 172.57L608.08 171.09L608.14 169.21V166.12L608.97 164.22L608.61 160.65L608.73 157.68L609.21 154.71L611.7 153.88L612.06 154.05L612.19 153.98L613.72 154.12L614.79 153.28L615.98 152.1L615.7 151.5L615.84 151.4L615.74 150.67V149.6L616.81 149.72L617.05 148.17L616.45 146.99L614.79 146.75V145.56L615.39 143.9L616.22 142L616.56 141.41L616.53 141.26Z" fill="#CCCCCC" stroke="white" stroke-width="0.5"/>
<path d="M667.39 51.75L666.61 53.73L665.28 54.36L665.04 56.26V57.74L664.62 58.83L662.9 59.47L661.12 60.66L660.64 61.83L660.31 61.86L659.34 60.78L658.39 60.42H655.89L654.94 61.02L653.04 61.73L651.73 62.09L651.27 62.92L647.42 63.51L646.33 63.57L646.11 63.54L644.96 62.03V60.72L644.49 58.7L643.3 60.36L642.82 60.96L641.19 61.31L639.93 59.39L639.12 58.33L638.22 57.98L636.59 58.01L634.54 58.29L632.11 58.57L627.72 58.93L625.37 58.86L624.25 58.34L622.72 58.24H619.72L613.68 58.68L613.12 58.22L610.86 57.75L610.03 56.92L609.91 55.97L607.65 55.25L607.23 53.99L607.77 53.95L610.26 54.06L611.42 53L612.83 52.65L613.37 52.39L614.54 52.64H617.04L619.29 52.88L620.13 51.81L621.03 50.83L623.87 50.52L624.84 51.91L625.77 52.47L627.27 52.32L628.21 51.67L632.57 46.67L632.84 44.5L634.28 44.71L634.52 44.44H635.45L636.17 43.96L637.48 43.37L637.95 42.66L638.9 40.99V39.45L637.71 37.79L636.76 37.04L634.98 36.36V33.86L635.1 33.03L636.29 32.32L636.93 32.39L636.92 32.27L637.83 32.32V31.25L637.59 30.66L637.36 29.71H638.19L640.8 30.18L642.28 30.07L643.96 31.03L644.49 31.56L645.91 31.96L647.46 33.75L649.12 36.12L651.26 37.9L652.92 40.28L653.16 42.06L653.04 44.32L653.81 46.06L654.06 46.2L656.33 46.32L660.19 48.56L661.17 49.93L663 50.94L664.33 51.44L665.69 51.69L667.39 51.75Z" fill="#CCCCCC" stroke="white" stroke-width="0.5"/>
<path d="M604.19 242.33L603.86 242.88L603.27 243.71L601.84 243.95L600.65 245.37L600.18 246.32V248.11L600.77 249.65L601.27 249.9L601.65 251.05L602.59 252.15L602.67 253.87L602.55 256.37L602.2 259.81V263.02L601.72 264.56L601.48 266.35L602.2 267.65L603.5 269.44V272.88L603.62 278.82L602.79 280.37L599.58 283.7L599.07 284.47L598.64 284.43L597.85 284.08L597.56 283.22L595.9 283.1L594.47 283.58L593.05 284.77L592.81 287.38L592.1 289.16L590.79 290.71L589.6 292.73V293.8L587.57 294.1L587.07 291.36L585.16 290.59L584.95 288.71L585.41 287.2L585.05 285.42L583.15 285.77L581.72 284.59L580.06 282.31L579.01 281.73L577.81 281.67L576.02 282.76L572.25 283.96L570.72 283.81L568.06 282.09L566.39 279.6L564.49 279.12L561.96 278.74L560.64 277.87L558.11 275.25L555.38 274.5L553.46 275.17L552.88 276.26L550.97 278.33L549.24 279.91L545.78 282.54L544.61 283.17L543.07 283.8L542.15 283.46L539.55 282.03L539.3 280.9L538.77 279.48L541.12 275.98L542.66 274.37L543.44 273.49L545.49 270.43L543.44 270.29L542.11 270.92L540.43 271.46L539.52 270.81L538.74 269.21L538.6 266.35L537.75 263.52L537.73 263.28L539.47 260.17L541.64 259.82L543.14 259.87L545.23 260.79L546.52 261.43L547.8 260.69L550.11 257.26L553.42 256.23L554.48 255.33L557.24 254.78L558.31 254.49L561.02 253.51L561.57 253.28L562.03 252.62L563.7 251.91L565.36 251.55L567.86 251.43L569.64 251.91L571.18 252.5L571.7 253.28L572.62 253.23L574.42 252.88L574.87 251.55L575.82 250.48L576.41 249.41L577 248.82L578.79 248.34L580.21 248.23L580.81 248.82L580.99 249.57L582.19 250.56L582.83 250.25L584.25 250.01L585.92 250.36L588.17 250.48L588.89 250.6L589.84 249.53L589.72 248.11L589.84 246.21L590.55 244.54L590.95 244.18L591.62 244.07L592.1 243.12L591.38 242.17L590.67 240.62L589.96 239.55L588.89 239.31L588.01 240.12L587.64 239.57L587.43 238.76L586.87 238.48L586.51 237.18L587.11 236.34L588.63 235.41L588.75 233.96L588.5 232.95L588.06 232.78L587.11 232.9L586.51 230.64L585.44 229.21L584.98 228.52L586.13 228.64L587.49 228.92L591.95 229.02L594.1 229.81L594.18 232.11L594.17 233.11L594.4 234.14L595.19 235.86L596.07 236.48L598.55 234.93L598.98 234.57L599.58 234.92L600.77 236.11L601.36 237.53L601.96 240.98L603.15 241.93L603.92 242.07L604.19 242.33Z" fill="#CCCCCC" stroke="white" stroke-width="0.5"/>
<path d="M582.23 110.69L580.73 111.63L580.02 111.56L579.6 112.33L578.14 112.67L576.41 112.35L576.17 111.75H575.34L574.41 114.12L574.09 114.29L574.03 115.79L573.32 116.86L571.78 117.7L571.54 120.07H570.59L569.64 120.67L569.52 121.85L568.69 122.92L567.28 123.66L567.1 124.11L566.43 124.29L565.95 124.77L565 124.88L564.29 124.41L563.1 125L562.98 127.02L562.9 127.59L561.21 128.31L560.61 129.52L559.78 130.11L557.75 132.25L556.4 131.99L555.97 133.02L555.93 133.2H555.02L554.9 136.65L553.48 136.77L552.53 138.79L552.29 140.21L552.41 141.04L553.6 142.35L553.71 143.18L552.88 143.66L550.74 144.61L548.49 144.37L548.72 145.44L550.27 147.11L551.58 148.17V150.19L549.56 150.31L549.32 151.15L547.66 150.79L546.47 150.08L545.52 150.79L544.95 151.35L544.82 151.34L542.81 149.73L539.55 150.48H537.54H534.78L534.82 150.16L534.94 150.08L534.7 148.89L533.63 148.53H531.97L531.27 149.29L530.69 149.19L524.38 149.13L523.43 149.3L522.42 149.81L521.1 146.99L520.75 145.85L521.18 144.2L522.36 141.24L523.85 140.45L524.8 139.74L526.23 133.92L522.93 129.23L520.65 127.5L519.06 123.91L517.86 120.19L517.96 119.18L522.67 114.43L525.74 113.63L527.65 114.02L532.1 113.96L535.02 112.65L536.57 109.08L537.16 105.75L538.23 103.62L538.95 101.36L540.96 98.15L542.54 96.91L541.55 95.27L539.06 91.38L538.83 88.29L542.87 84.6L543.58 81.63L544.89 80.38L546.67 79.08L547.86 78.36L549.52 77.65L550.95 76.7L555.17 71.18L556.42 69.68L558.51 66.79L559.65 63.44L560.21 61.97L560.69 60.54V58.64L560.93 57.09L560.69 55.31V52.82L561.7 53.3L561.87 54.02L562.97 56.72L563.62 57.72L564.57 58.19L566.01 57.61L566.57 56.17L567.49 55.31L568.81 55.37H570.59L572.13 54.54V53.98L572.3 54.1L573.32 51.21H574.15L575.7 51.45L576.65 53.11L576.77 53.83L576.29 54.78V55.97L577 56.32L578.19 56.8L578.43 58.58H577.96L577.72 59.41L576.58 61.3L576.69 61.45L577.38 62.14L579.08 62.93L581.04 62.86L581.88 63.57L581.82 64.25L582.1 64.46L583.11 64.68L581.63 66.66L581.39 68.56L581.51 71.29L581.98 74.5L583.1 77.29L585.2 77.95L587.22 78.07H589.6L590.43 78.66L591.15 79.97L591.03 82.11L591.26 85.2L591.5 89L589.84 89.83L587.96 93.82L587.12 95.47L586.64 95.98L587.63 95.95L587.11 99.63L586.04 100.35L585.01 100.91L584.52 102.03L584.85 104.39H584.02L583.44 103.93L582.49 104.5L581.88 106.06L582.23 110.69Z" fill="#CCCCCC" stroke="white" stroke-width="0.5"/>
<path d="M669.08 68.38L669.56 73.61L671.22 72.9L672.89 73.73L675.62 73.49L678.11 73.97H679.78L680.11 73.46L680.37 72.78L681.32 72.19L682.39 72.07L682.63 71.71L682.75 70.88L683.58 70.4L684.77 70.52L685.12 72.19L685.96 72.3L686.07 72.9L684.89 73.61L685.06 75.5L687.7 75.93L688.45 76.58L689.52 76.23L690.95 75.04L691.86 73.94L692.1 76.21L692.86 78.72V81.98L694.11 82.99L691.85 84.49L689.84 86.25V89.01H688.59L687.84 91.52H686.08L685.58 92.77L683.32 93.27V92.52L681.06 92.27L679.81 90.76L677.8 91.01V93.27H676.55L675.04 94.53L676.55 95.53L677.3 97.29L679.06 97.54L680.06 98.79L680.81 101.8L681.56 103.31L679.56 105.07L680.31 107.07L679.81 109.83L678.3 111.59L677.55 113.6L681.31 113.85L683.07 113.1L684.07 111.59L687.08 111.09L690.1 109.33L692.1 108.83L696.37 104.06L698.12 102.31H700.38V104.81L697.87 107.07L696.37 108.33V110.34L698.12 110.84L699.63 111.84L704.15 112.09V113.35L701.89 114.35L704.65 116.61L702.64 117.61L700.38 117.36L700.88 118.99L701.62 119.03L702.39 120.12L702.48 121.2L700.88 121.38H696.62L694.36 122.13L691.85 122.38L690.01 121.81L690.09 122.51L689.83 122.44L686.58 123.13L683.07 123.38L681.06 124.39L676.29 124.89L671.03 126.65L666.76 128.15L666.22 126.77L665.23 126.43H663.69L663.57 127.38L663.05 127.31L663.25 130.91L651.61 130.12L651.64 129.76L651.48 128.7L651.63 128.72L651.49 127.92L650.77 126.25L650.06 124.94L648.51 124.23L645.9 124.47L643.52 124.35L642.97 124.39L643.06 122.57L643.18 121.02L643.06 119L642.11 117.81L640.68 117.1L639.54 117.23L639.43 117.13L639.61 115.91L639.38 113.77L638.83 111.71L639 111.46L640.21 111.28L640.56 109.38L639.97 107L639.52 106.1V105.72L638.78 104.98L638.43 103.56L638.33 103.44L639.14 101.89L640.21 101.42L641.16 101.56L642.57 101.18L642.76 100.94L642.72 99.69L643.43 97.55L645.45 95.65L646.28 93.4L646.76 90.9L646.04 88.88L648.38 86.2L652.3 78.01L654.77 77.69L657.51 77.03L659.03 76.3L661.89 74.19L662.19 71.83L663.14 71.12L664.26 70.91L664.52 70.43L665.76 70.17L666.47 69.57L666.39 68.6L669.08 68.38Z" fill="#CCCCCC" stroke="white" stroke-width="0.5"/>
<path d="M574.27 217.87L578.35 219.11H579.62L580.93 219.83L580.97 221.44L580.93 222.56L580.33 223.27L579.38 224.82L578.91 225.17L579.26 227.43L580.33 228.03H581.29L581.31 228.19L582.56 228.25L584.98 228.52L585.44 229.21L586.51 230.64L587.11 232.9L588.06 232.78L588.5 232.95L588.75 233.96L588.63 235.41L587.11 236.34L586.51 237.18L586.87 238.48L587.43 238.76L587.64 239.57L588.01 240.12L588.89 239.31L589.96 239.55L590.67 240.62L591.38 242.17L592.1 243.12L591.62 244.07L590.95 244.18L590.55 244.54L589.84 246.21L589.72 248.11L589.84 249.53L588.89 250.6L588.17 250.48L585.92 250.36L584.25 250.01L582.83 250.25L582.19 250.56L580.99 249.57L580.81 248.82L580.21 248.23L578.79 248.34L577 248.82L576.41 249.41L575.82 250.48L574.87 251.55L574.42 252.88L572.62 253.23L571.7 253.28L571.18 252.5L569.64 251.91L567.86 251.43L565.36 251.55L563.7 251.91L562.03 252.62L561.57 253.28L561.02 253.51L558.31 254.49L557.24 254.78L554.48 255.33L553.36 254.13L551.69 248.39L551.86 247.34L551.94 243.48L551.62 241.53L550.55 236.81L549.39 232.99L545.48 231.22L546.29 230.23L547.84 228.73L548.87 229.22L554.99 229.03L557.96 226.3L559.5 222.86L561.16 221.31L563.42 219.53L565.68 217.3L567.03 215.84L567.23 215.75L572.73 215.96L574.27 217.87Z" fill="#CCCCCC" stroke="white" stroke-width="0.5"/>
<path d="M593.55 68.63L593.67 65.53L595.17 63.33L596.12 60.96L595.53 60.36L594.46 59.53L594.34 57.27H595.65L596.48 56.56L597.19 55.85L597.43 53.83L599.01 53.32L602.09 54.02L603.54 54.54L604.92 54.18L607.23 53.99L607.65 55.25L609.91 55.97L610.03 56.92L610.86 57.75L613.12 58.22L613.68 58.68L619.72 58.24H622.72L624.25 58.34L625.37 58.86L627.72 58.93L632.11 58.57L634.54 58.29L636.59 58.01L638.22 57.98L639.12 58.33L639.93 59.39L641.19 61.31L642.82 60.96L643.3 60.36L644.49 58.7L644.96 60.72V62.03L646.11 63.54L646.33 63.57L647.42 63.51L651.27 62.92L651.73 62.09L653.04 61.73L654.94 61.02L655.89 60.42H658.39L659.34 60.78L660.31 61.86L661.45 61.8L663.49 63.92L663.72 64L664.69 66.24L665.86 67.51L665.32 68.69L666.39 68.6L666.47 69.57L665.76 70.17L664.52 70.43L664.26 70.91L663.14 71.12L662.19 71.83L661.89 74.19L659.03 76.3L657.51 77.03L654.77 77.69L652.3 78.01L648.38 86.2L646.04 88.88L646.76 90.9L646.28 93.4L645.45 95.65L643.43 97.55L642.72 99.69L642.76 100.94L642.57 101.18L641.16 101.56L640.21 101.42L639.14 101.89L638.33 103.44L637 101.89L636.29 101.18L634.5 100.82L634.03 98.56L633.99 97.98L633.73 97.96L633.25 98.27L629.29 98.39L627.15 100.17L626.33 100.51L625.6 101.24H624.06L624.12 99.76L623.53 99.18L623.35 96.31L621.8 95.83L620.61 95.36L619.64 95.44L619.41 95.22L618.36 94.82L618.29 92.96L616.96 90.19L616.41 89.31L615.39 89.24L615.32 87.57L614.81 86.76L615.03 85.73H614.07V84.99H618.08L620.09 83.99L620.84 82.23L622.1 81.73V79.47L619.84 77.72H615.32L614.07 74.2L607.54 73.95L604.53 73.7L606.54 71.44L606.79 69.94H597.01L593.74 68.68L593.55 68.63Z" fill="#CCCCCC" stroke="white" stroke-width="0.5"/>
<path d="M600.3 172.08L600.18 171.11L598.63 170.04L597.68 168.97H597.09L596.51 170.13L596.26 169.98L594.84 168.71L594.21 167.72L593.55 166.28L592.63 164.84L590.82 162.83L587.59 160.18L586.11 159.6L585.46 159.71L584.97 158.99L582.83 158.87L581.04 159.7L580.48 160.2L580.35 160.14L579.86 160.77L578.31 160.65L576.05 158.39L574.99 157.21L574.63 155.19L573.44 153.52L573.08 151.98L570.47 151.62L569.76 151.03L569.28 148.89L568.45 147.94V146.63L569.08 145.51L568.95 145.15L568.49 140.42L568.41 139.04L568.57 137.29L569.05 135.84L569.67 134.99L570.99 133.72L572.29 132.57L573.46 131.04L573.82 130.08L574.09 129.14L574.65 126.71L575.03 125.8L576.69 123.9L577.6 123.18L582.06 120.49L584.53 119.56L584.93 117.92L585.8 117.81L586.99 116.63L586.87 115.2L586.39 113.3L586.09 113.12L586.12 112.94L586.63 112.05L587.11 110.03L582.2 110.2L581.88 106.06L582.49 104.5L583.44 103.93L584.02 104.39H584.85L584.52 102.03L585.01 100.91L586.04 100.35L587.11 99.63L587.63 95.95L587.86 95.94L588.95 96.05L590.43 95.12L593.88 95.36V97.38L593.28 98.81L593.48 99.81L593.31 101.22L593.62 102.45L595.31 102.86L595.86 102.82L598.26 101.12L603.98 96.48L604.94 95.55L606.4 97L605.05 98.92L604.22 100.7L603.98 102.25L603.27 103.56L601.72 105.58L601.6 107.24L600.41 108.78L598.87 111.16L597.2 112.71L596.14 114.25L596.37 116.39L597.09 116.51L597.2 117.22L596.02 119.36L594.95 120.9V122.92L596.25 124.59L596.49 126.49L596.58 126.93L595.66 127.62L594.12 128.33L593.05 129.52V129.73L592.1 129.99L590.91 130.71L589.96 131.9L590.67 132.37L592.1 132.49L594.07 131.5L594.58 131.72L594.5 131.95L595.3 132.01L596.61 132.49L596.02 135.82L594.83 136.17L594.55 136.97L594.76 137.97L593.76 138.79L592.57 138.91L592.81 139.86L594.35 140.57L595.24 140.49L595.69 142.95H597.09L598.04 143.3L597.8 145.09L596.97 146.04L596.27 146.15L596.32 146.39L595.07 146.75L593.88 147.46L594.12 148.53L596.74 149.07L597.2 152.45H597.92L598.87 152.69L599.94 152.81L599.7 153.76L598.51 154.47H597.48L597.67 155.89L597.7 157.88L598.03 159.24L597.32 160.06L596.61 162.2L597.56 164.81L599.23 167.54L602.17 169.02L602.23 169.58L602.19 170.83L602.05 171.84L601.67 172.74L600.3 172.08Z" fill="#CCCCCC" stroke="white" stroke-width="0.5"/>
<path d="M641.08 142.36L642.17 142.45L645.18 142.2L649.2 140.45L650.52 138.68L651.2 138.92L652.06 139.55L653.49 141.08L653.74 141.54L655.07 142.17L655.55 145.14L656.86 147.16L657.5 149.28L658.34 149.27L660.78 148.52L662.01 149.25L663.12 151.25L663.1 152.48L663.17 152.9L663.84 153.05L665.03 153.52L665.39 155.19L665.86 157.68L666.46 160.18L666.16 161.12L671.76 166.48L672.56 167.02L673.96 167.45L675.96 167.74L679.95 169.25L686.13 171.75L688.54 173L688.86 173.2L689.03 173.78L691.65 175.8L693.43 177.58L696.16 179.25L697.95 180.79L699.97 181.98L701.51 184.59L702.34 186.97L704.12 188.52L704.36 190.3L705.19 190.54L706.62 192.2L709.71 192.56L711.73 192.08L712.68 193.15L714.16 191.59L715.86 191.83L716.96 193.39L723.46 192.94L710.9 197.13L704.48 199.51L695.33 202.95L685.23 206.28L668.6 212.22L664.56 213.53L661.6 214.93L656.36 220.49L655.04 222.8H652.42V226.22L651.22 227.09L649.56 228.05L648.38 229.01L647.65 230.27L648.23 231.79L649.3 232.79L649.82 234.64L651.35 235.87L650.28 238.01L648.26 237.18L646.14 237.89L645.72 237.75L645.86 234.64L645.45 233.34L644.58 232.64L643.53 232.53L642.18 232.98L641.37 233.83L641.08 234.87L641.14 237.29L641 238.8H636.4L631.63 238.3L631.38 240.06L629.12 239.81L628.37 238.8H627.12L625.86 241.06L623 241.61L622.65 241.17L621.75 240.39L620.38 240.44L618.71 240.21L617.64 239.02L615.88 238.31L616.07 235.79L616.58 232.28L614.82 230.27H613.06L612.1 229.95L611.26 229.07L611.02 229.19L610.64 228.81L610.87 228.68L611.11 226.66L611.82 226.78L613.6 225.47L616.57 224.64L617.76 222.26L618.71 220.24L620.26 218.94L622.75 218.46L624.06 217.63L625.01 216.32L625.49 214.18V210.97L625.72 209.43L626.56 208.12L627.98 207.05L628.57 205.98L628.81 204.42L628.11 203.63L627.86 203.61L627.62 202.06L627.98 200.52L628.81 199.57L630 198.73L632.73 197.9L634.16 198.08L634.5 197.58L635.23 197.55L636.3 197.31L636.54 196.24L636.42 195.05L634.99 194.22L633.68 194.1L632.64 193.62L632.97 192.67L633.92 192.2L634.16 190.77L634.52 187.33L634.04 185.78L634.22 184.39L633.92 183.29L631.45 180.84L631.81 180.35L633.37 178.69L632.97 177.35L634.52 176.51L634.4 174.26L633.33 172.71L632.85 171.52L634.99 171.17L636.66 170.45L636.54 169.27L636.42 167.48L637.01 165.82L635.7 165.46L634.16 164.63L633.8 163.92L635.94 162.02L638.32 158.33L638.08 156.08L636.89 154.53L635.59 152.99L636.66 151.56L638.56 149.66L639.75 149.3L640.39 148.3L641.26 146.62L641.17 144.08L641.08 142.36Z" fill="#CCCCCC" stroke="white" stroke-width="0.5"/>
<path d="M593.74 68.68L597.01 69.94H606.79L606.54 71.44L604.53 73.7L607.54 73.95L614.07 74.2L615.32 77.72H619.84L622.1 79.47V81.73L620.84 82.23L620.09 83.99L618.08 84.99H614.07L614.01 85.73L612.77 86.44L611.94 86.92L611.7 88.11L610.16 89.18L610.11 90.11L608.74 91.47L608.73 92.68L609.92 93.99L610.75 95.06L609.32 95.53L609.21 97.44L606.59 97.2L604.94 95.55L603.98 96.48L598.26 101.12L595.86 102.82L595.31 102.86L593.62 102.45L593.31 101.22L593.48 99.81L593.28 98.81L593.88 97.38V95.36L590.43 95.12L588.95 96.05L587.86 95.94L586.64 95.98L587.12 95.47L587.96 93.82L589.84 89.83L591.5 89L591.26 85.2L591.03 82.11L591.15 79.97L590.43 78.66L589.6 78.07H587.22L585.2 77.95L583.1 77.29L581.98 74.5L581.51 71.29L581.43 69.41L582.7 69.94L584.96 70.69H590.23L590.73 69.44L591.99 68.18L593.74 68.68Z" fill="#CCCCCC" stroke="white" stroke-width="0.5"/>
<path d="M522.42 149.81L523.43 149.3L524.38 149.13L530.69 149.19L531.27 149.29L531.97 148.53H533.63L534.7 148.89L534.94 150.08L534.82 150.16L534.78 150.48H537.54H537.79V155.25L538.04 157.51L538.79 159.01L539.8 161.77L542.06 162.27L544.31 163.03L546.57 164.78L547.07 167.04L549.33 167.54L550.08 167.79L550.34 171.56L552.09 173.57L551.09 175.82L550.08 179.34L548.83 180.09L545.57 180.84L542.06 181.34L539.8 184.36L538.79 185.11L536.53 185.61L533.75 188.79L531.99 186.63L530.01 184.96L529.04 184.19L526.61 183.38L524.13 183.42L522.6 182.77L519.06 180.54L514.97 175.58L514.89 174.06L517.38 175.11L520.76 173.59L523.99 171.26L524.76 170.39L525.59 168.89L526.71 162.25L526.65 161.11L524.64 153.83L524.07 152.46L522.42 149.81Z" fill="#CCCCCC" stroke="white" stroke-width="0.5"/>
<path d="M639.54 117.23L640.68 117.1L642.11 117.81L643.06 119L643.18 121.02L643.06 122.57L642.97 124.39L643.52 124.35L645.9 124.47L648.51 124.23L650.06 124.94L650.77 126.25L651.49 127.92L651.63 128.72L651.48 128.7L651.64 129.76L651.52 131.3L652.35 133.8L651.76 135.82L651.22 136.09L651.2 136.68L650.52 137.54L649.58 138.35L650.52 138.68L649.2 140.45L645.18 142.2L642.17 142.45L641.08 142.36L641.1 142.62L639.41 142.2L637.4 141.45L635.98 140.46L635.14 140.73L633.69 140.88L631.63 140.04L630.17 139.85L628.49 140.04L627.04 140.1L626.19 140.08L625.37 141.1H624.06L622.87 140.15L622.1 138.8L621.26 138.07L619.9 138.13L618.83 138.25L618 139.32L617.17 140.75L616.53 141.26L616.41 140.46V140.24L615.86 140.04L614.67 138.37L614.2 137.18L614.01 136.08L613.9 135.98L613.09 133.46L613.97 132.78L614.86 131.77L615.66 129.61L615.73 127.99L615.82 126.98L618.47 125.47L619.58 124.88L621.31 124.18L623.97 124.52L625.16 124.46L626.11 124.29L630.71 122.93L630.95 122.09L631.55 120.43L634.04 121.02L634.54 121.79L634.74 121.97H636.64L637.71 120.55L638.78 119.48L639.38 118.41L639.45 117.14L639.54 117.23Z" fill="#CCCCCC" stroke="white" stroke-width="0.5"/>
<path d="M789.08 101.03L783.57 98.78L783.2 97.69L781.58 97.76L778.13 97.64L776.23 97.16L775.76 95.87L775.56 95.79L773.36 93.6L769.66 92.87H764.8L764.03 93.1L763.21 92.39L762.14 91.56L760.12 90.97L758.69 90.85L757.74 91.09L757.64 94.56L757.68 96.5L758.53 97.02V98.09L757.15 97.77L754.38 97.38L754.32 96.13L753.89 96L752.17 95.08L751.56 93.56L750.69 91.93L749 92.02L740.85 92.21L739.33 93.82L738.02 94.89H736.36L735.14 94.22L731.32 93.05L730.19 91.27L729.24 90.2L728.17 89.49L727.1 89.61L726.77 89.72L726.35 89.4L725.05 89.55L724.76 89.75L723.79 88.9L723.08 87.59L720.7 86.52L719.16 85.45L717.14 82.24L715.36 80.46L714.29 79.03L712.86 77.49L712.38 76.18L711.9 75.7L710 73.56L707.86 73.32L706.08 74.03L704.5 75H703.07L700.81 74.17L699.38 73.81L697.37 73.97L692.94 72.21L692.13 73.64L691.86 73.97L690.94 75.04L689.51 76.23L688.44 76.59L687.69 75.94L685.05 75.52L684.88 73.63L686.07 72.92L685.95 72.33L685.12 72.21L684.76 70.55L683.57 70.43L682.74 70.91L682.62 71.74L682.38 72.1L681.31 72.22L680.36 72.81L680.09 73.49L679.76 73.99H678.1L675.6 73.51L672.87 73.75L671.21 72.92L669.55 73.63L669.07 68.4L665.31 68.71L665.85 67.53L664.67 66.26L663.72 64L663.49 63.92L661.46 61.8L660.64 61.82L661.13 60.65L662.91 59.46L664.62 58.82L665.05 57.73V56.25L665.29 54.35L666.62 53.72L667.4 51.74L667.79 49.74L668.16 48.58L668.91 47.7L669.37 47.41L672.77 42.95L673.48 40.22L674.91 38.68L676.44 38.9L677.39 37.83L679.17 38.57L680.77 39.7L682.65 40.83L683.87 42.62L683.12 45.26L683.5 46.58L683.59 47.8L683.97 49.31L684.35 51L685.86 51.85L687.74 52.79L688.4 51.94L689.34 51.85L690.94 52.13L692.73 52.88L694.61 53.07L696.12 52.79L697.53 52.41L699.04 51.94L700.92 52.6L702.33 55.9L704.21 56.37L706 56.56L708.07 57.03L710.14 57.88L711.55 58.35L714.19 58.63L715.23 57.97L718.24 57.78L718.71 56.65H720.03L721.44 57.21L722.29 57.49H723.89L725.11 58.15L725.96 58.81L727.18 58.53L727.74 58.06L728.87 57.59H729.81L730.28 58.44H731.41L732.35 57.88L733.2 57.69L735.37 58.25V51.94L735.84 50.9L737.06 49.77L738.57 49.49L740.83 48.93L742.43 49.59L743.47 50.63L745.26 51.1L748.37 51.19L749.78 53.45H752.23L753.74 54.2L754.68 55.14L756.28 57.31L757.98 60.23L759.96 62.21L762.5 64.09L764.57 65.97L766.74 66.91H769.19L772.96 66.72L774.28 67.19L775.13 68.13L776.73 69.45L776.45 70.49L777.96 71.05L778.9 71.8L781.54 73.02L783.52 73.77L785.12 74.24L787 74.33L788.7 74.71L788.51 76.12L787.94 76.5L785.68 76.97L785.21 76.12L784.74 77.16L783.04 77.44L779.18 75.75H772.68V82.43L775.32 84.78L777.01 85.82L780.59 85.63L781.25 86.29L781.91 87.33L782.66 89.78L783.51 90.34L784.08 91.38H785.3L786.05 91.85L786.24 92.79L786.8 93.17L788.02 92.98L788.77 94.11L789.62 94.39L790.47 94.86L791.04 96.55L790.47 96.93L790.66 98.15L791.13 98.62L790.94 99.75L790.47 100.5L789.43 100.41L789.08 101.03Z" fill="#CCCCCC" stroke="white" stroke-width="0.5"/>
<path d="M97.99 138.65L94.58 139.08L92.66 138.01L90.32 136.09V134.38L92.03 132.67L94.16 131.82L98 132.25L99.49 133.32L101.62 135.45L100.34 137.16L97.99 138.65ZM60.26 134.36L59.85 134.45L58.62 134.26L57.22 133.42L56.18 132.46L55.87 132.09L57.5 128.2L57.99 127.87L60.07 127.86L63.28 130.03L63.45 130.72L63.17 131.42L61.96 133L61.25 133.78L60.26 134.36ZM80.73 112H78.17L76.25 110.29L76.04 107.95L78.38 106.88L80.94 107.52L82.22 110.29L80.73 112ZM107.91 114.37L103.48 115.46L102.89 115.39L98.93 114.06L98.96 113.4L99.43 112.56L100.65 111.8L101.34 111.51L102.36 110.89L103.15 110.37L106.28 108.12L106.61 106.67L106.85 106.25L107.62 105.18L108.95 104.22L111.72 102.68L113.34 102.45L113.95 102.41L116.75 102.61L117.28 103.4L116.59 105.36L115.9 106.32L114.42 107.99L109.13 113.63L107.91 114.37ZM51.74 101.13L48.97 102.2L46.84 100.92L45.77 98.58L46.2 97.3L48.97 96.23L51.1 97.3L52.17 98.58L51.74 101.13ZM68.79 105.41L64.75 107L60.33 106.47L55.09 102.73L54.56 99.91L55.3 97.57L56.74 95.72L57.57 94.92L59.19 94.23L67 93.49L72.04 95.78L72.44 96.91L71.94 101.05L71.43 102.5L68.79 105.41ZM68.79 90.69H66.45L64.53 89.2L65.6 86.64L68.58 85.57L71.14 87.7L70.93 89.62L68.79 90.69ZM8.96003 93.37H8.71003L3.50003 91.09L2.22003 89.42L1.59003 88.08L1.03003 84.77L2.55003 83.59L9.74003 81.63L10.4 81.59L11.85 82.61L13.61 84.37L13.95 85.42L13.88 90.69L13.47 91.59L12.7 91.96L8.96003 93.37ZM54.71 84.08L52.92 86.97L52.13 87.59L51.9 87.62L48.77 86.35L47.79 86.27L46.09 86.68L45.42 86.76L41.28 85.82L38.98 82.58L40.89 78.14L41.91 77.18L42.88 76.82L45.08 77.47L48.47 78.65L50.07 79.27L51.1 79.89L51.5 80.16L52.22 80.74L54.52 83L54.71 84.08ZM20.67 69.68L22.5 70.29L23.19 71.24L23.42 74.03L23.27 75.54L23.24 76.53L24.06 79.8L24.76 81.17L27.82 84.45L29.33 85.23L30.91 86.19L32 87.17L34.67 89.88L35.43 94.8L34.74 95.94L37.61 99.74L38.76 100.88L39.95 102.19L42.05 104.67L38.99 113.41L36.48 115.89L25.02 119L23.31 119.1L22.48 118.61L18.75 118.19L17.54 118.1L16.32 118.36L15.03 118.71L12.77 118.23L11.76 117.26L9.24003 113.55L8.83003 112.19L9.18003 110.49L10.04 109.14L11.07 107.87L17.86 102.47L21.51 101.29L23.35 101.8L25.19 102.24L28.91 97.84L27.07 95.92L25.51 95.86L15.64 84.21L13.34 80.63L13.51 79.36L14 77.91L13.55 74.77L12.84 71.71L11.98 70.52L10.27 70.27L8.31003 70.95L6.91003 72.08L5.29003 72.06L3.85003 70.16L3.91003 69.67L7.04003 68.2L14.1 63.72L17.78 64.33L17.89 65.46L19.68 68.67L20.47 69.52L20.67 69.68ZM88.4 59.15L86.69 59.79L84.13 59.58L82.64 57.02L82.85 54.68L85.83 54.47L88.39 54.9L89.88 56.18V57.67L88.4 59.15ZM61.97 59.15L56.85 59.36L54.51 57.23L54.72 54.89L57.28 53.61L61.97 53.82L63.68 55.31L65.39 56.38L64.54 58.08L61.97 59.15ZM50.25 47.43L47.48 48.71L45.14 46.79L43.43 43.59L44.28 41.46L47.26 39.97L49.82 42.1L51.1 44.87L50.25 47.43Z" fill="#CCCCCC" stroke="white" stroke-width="0.5"/>
<path d="M617.68 125.92L616.93 125.42L613.72 125.18L612.77 126.85L610.04 127.08L607.85 126.65L606.83 125.8L606.72 125.75L606.12 124.77L603.86 124.65L601.84 124.88L600.29 125.36L598.99 126.31L598.15 127.1L597.53 127.18L596.82 127.05L596.56 126.92L596.49 126.49L596.25 124.59L594.95 122.92V120.9L596.02 119.36L597.2 117.22L597.09 116.51L596.37 116.39L596.14 114.25L597.2 112.71L598.87 111.16L600.41 108.78L601.6 107.24L601.72 105.58L603.27 103.56L603.98 102.25L604.22 100.7L605.05 98.92L606.4 97L606.59 97.2L609.21 97.44L609.32 95.53L610.75 95.06L609.92 93.99L608.73 92.68L608.74 91.47L610.11 90.11L610.16 89.18L611.7 88.11L611.94 86.92L612.77 86.44L613.96 85.73H615.03L614.81 86.76L615.32 87.57L615.39 89.24L616.41 89.31L616.96 90.19L618.29 92.96L618.36 94.82L619.41 95.22L619.64 95.44L620.61 95.36L621.8 95.83L623.35 96.31L623.53 99.18L624.12 99.76L624.06 101.24H625.6L626.33 100.51L627.15 100.17L629.29 98.39L633.25 98.27L633.73 97.96L633.99 97.98L634.03 98.56L634.5 100.82L636.29 101.18L637 101.89L638.43 103.56L638.78 104.98L639.52 105.72V106.1L639.97 107L640.56 109.38L640.21 111.28L639 111.46L638.83 111.71L639.38 113.77L639.61 115.91L639.44 117.13L639.38 118.41L638.78 119.48L637.71 120.55L636.64 121.97H634.74L634.54 121.79L634.04 121.02L631.55 120.43L630.95 122.09L630.71 122.93L626.11 124.29L625.16 124.46L623.97 124.52L621.31 124.18L619.58 124.88L618.47 125.47L617.68 125.92Z" fill="#CCCCCC" stroke="white" stroke-width="0.5"/>
<path d="M723.46 192.94L716.96 193.39L715.86 191.83L714.16 191.59L712.68 193.15L711.73 192.08L709.71 192.56L706.62 192.2L705.19 190.54L704.36 190.3L704.12 188.52L702.34 186.97L701.51 184.59L699.97 181.98L697.95 180.79L696.16 179.25L693.43 177.58L691.65 175.8L689.03 173.78L688.86 173.2L688.54 173L686.13 171.75L679.95 169.25L675.96 167.74L673.96 167.45L672.56 167.02L671.76 166.48L666.16 161.12L666.46 160.18L665.86 157.68L665.39 155.19L665.03 153.52L663.84 153.05L663.17 152.9L663.1 152.48L663.12 151.25L662.01 149.25L660.78 148.52L658.34 149.27L657.5 149.28L656.86 147.16L655.55 145.14L655.07 142.17L653.74 141.54L653.49 141.08L652.06 139.55L651.2 138.92L649.58 138.35L650.52 137.54L651.2 136.68L651.22 136.09L651.76 135.82L652.35 133.8L651.52 131.3L651.61 130.12L663.25 130.91L663.05 127.31L663.57 127.38L663.69 126.43H665.23L666.22 126.77L666.76 128.15L671.03 126.65L676.29 124.89L681.06 124.39L683.07 123.38L686.58 123.13L689.83 122.44L690.09 122.51L690.01 121.81L691.85 122.38L694.36 122.13L696.62 121.38H700.88L705.4 120.87L706.41 122.13L708.91 121.88L711.17 124.39L713.18 124.64L713.68 121.38L716.19 121.12L718.2 120.62L721.71 119.37L724.61 118.75L725.98 119.66L728.71 119.89L729.3 120.96L729.07 122.51L728.34 123.94V126.28L729.2 127.44L731.34 128.51L732.41 129.52H733.39L735.29 129.16L736.01 129.88L736.74 131.42L739.87 131.99L741.96 131.29L747.44 130.59L750.07 131.27L758.43 133.79L758.86 134.05L759.53 133.32L761.79 134.39L762.74 135.34L762.84 136.33L764.49 136.11L766.15 136.35L767.34 137.66L767.65 139.35L770.82 141.27L771.23 141.41L772.25 140.93H774.15V142.59L774 143.97L772.1 145.93L764.69 154.8L750.61 171.48L735.14 184.18L723.88 192.71L723.46 192.94Z" fill="#CCCCCC" stroke="white" stroke-width="0.5"/>
<path d="M610.64 228.81L611.02 229.19L611.26 229.07L612.1 229.95L613.06 230.27H614.82L616.58 232.28L616.07 235.79L615.88 238.31L617.64 239.02L618.71 240.21L620.38 240.44L621.75 240.39L622.65 241.17L623 241.61L625.86 241.06L627.12 238.8H628.37L629.12 239.81L631.38 240.06L631.63 238.3L636.4 238.8H641L640.9 240.38L640.42 243.35V246.8L639.71 248.7L638.64 250.6L636.74 253.34L633.53 256.9L632.82 259.75L631.63 259.99L631.31 261.36L631.3 263.12L630.32 263.79L630.08 265.34L629.25 266.76V272.11L627.17 274.21L626.31 275.27L626.28 278.41L626.63 280.88L626.75 283.56L625.81 284.94L624.5 286.49L623.55 287.79L623.23 289.08L621.65 291.12L619.75 292.07L616.7 292.56L615.89 293.31L613.69 294.92L612.74 297.18L612.38 300.27L610.95 301.82L609.17 304.67V307.04L607.86 308L606.32 308.23L604.3 306.93L601.11 307.05L600.15 306.99L598.78 307.05L596.2 307.09L594.44 303.6L591.94 302.89L591.82 300.39L589.71 300.38L588.54 299.07L588.22 297.59L587.57 294.1L589.6 293.8V292.73L590.79 290.71L592.1 289.16L592.81 287.38L593.05 284.77L594.47 283.58L595.9 283.1L597.56 283.22L597.85 284.08L598.64 284.43L599.07 284.47L599.58 283.7L602.79 280.37L603.62 278.82L603.5 272.88V269.44L602.2 267.65L601.48 266.35L601.72 264.56L602.2 263.02V259.81L602.55 256.37L602.67 253.87L602.59 252.15L601.65 251.05L601.27 249.9L600.77 249.65L600.18 248.11V246.32L600.65 245.37L601.84 243.95L603.27 243.71L603.86 242.88L604.19 242.33L604.06 242.21L605.17 241.93L605.88 240.98L605.05 238.13L605.64 236.11L606.48 235.17L606.51 234.88L606.12 233.79L605.76 232.48L607.42 231.06L609.21 229.63L610.64 228.81Z" fill="#CCCCCC" stroke="white" stroke-width="0.5"/>
</svg>
