<svg width="734" height="1710" viewBox="0 0 734 1710" fill="none" xmlns="http://www.w3.org/2000/svg">
<path d="M29.6405 3.71L26.3105 2.35H17.5205L13.7405 1L7.19055 5.04L4.22055 5.59L0.560547 4.57L0.740547 5.87L1.93055 9.56L5.76055 9.01L9.80055 9.32L13.7005 10.19L17.0806 11.42L21.4006 11.29L26.9106 10.05L30.6906 7.6L29.6405 3.71Z" fill="#CCCCCC" stroke="white" stroke-width="0.5"/>
<path d="M159.61 1541.14L159.53 1535.03L159.07 1531.7L157.78 1528.8L156.87 1528.49L156.07 1528.32L155.25 1527.98L154.44 1527.04L150.93 1531.7L150.5 1533.71L151.13 1537.62L152.45 1541.92L154.78 1546.83L157.78 1551.09L161.28 1553.47L159.61 1541.14ZM310.36 1235.51L307.91 1231.38L302.14 1227.4L295.44 1224.23L290.16 1222.4L287.89 1229.76L280.61 1234.26L271.5 1235.89L263.57 1234.63L259.79 1236.57L254 1236.82L251.02 1239.01L248.41 1241.52L245.42 1243.64L238.38 1247.02L232.97 1248.52L225.72 1249.4L218.56 1248.63L213.34 1245.14L210 1247.9L206.96 1251.25L203.63 1253.34L199.69 1252.28L201.28 1250.13L202.36 1247.83L203 1245.37L203.19 1242.58L202.9 1239.28L202.08 1238.66L200.99 1239.33L198.22 1240.51L197.58 1241.77L196.63 1243L191.65 1243.91L189.94 1244.87L188.31 1246.02L186.32 1247.02L185.2 1248.27L184.05 1251.28L183.49 1254.26L182.24 1255.63L172.79 1252.46L171.31 1253.09L163.11 1257.72L161.28 1259.14L160.27 1262.39L160.33 1265.31L161.28 1268.3L162.8 1271.55L161.28 1273.12L159.85 1270.43L158.1 1265.67L157.3 1261.14L158.72 1259.14L159.61 1258.85L158.72 1258.26L156.94 1257.66L155.37 1257.39L153.46 1257.93L152.92 1259.14L152.75 1260.31L151.97 1260.89L151.25 1261.89L141.28 1267.9L131.07 1276.62H129.56L127.37 1273.7L125.1 1274.81L122.95 1278.08L121.22 1281.88L122.36 1284.93L121.28 1287.81L118.85 1288.6L116.07 1285.39L113.44 1287.71L113.36 1290.27L113.82 1293.09L112.86 1296.08L110.77 1297.29L105.34 1298.62L104.21 1300.36L101.94 1304.89L97.4603 1307L94.2403 1309.57L95.8903 1315.33L97.9203 1317.27L100.19 1318.17L101.98 1319.26L102.69 1321.64L102.93 1324.19L103.97 1329.2L104.21 1332.06L104.76 1334.19L105.58 1335.93L105.34 1337.7L102.69 1340.02L100.86 1340.19L92.2703 1337.7L90.6503 1337.01L89.6803 1337.58L89.3403 1340.9V1349.85L89.7603 1352.5L90.3203 1354.4L89.9603 1356.51L87.5303 1359.46L85.7403 1360.42L79.1703 1362.97L68.1103 1363.79L64.0903 1365.8L62.4703 1370.88L63.0903 1373.45L64.3603 1375.27L65.5203 1377.28L65.6803 1380.54L64.6403 1383.17L61.3803 1387.65L60.6603 1389.62L61.5203 1392.34L63.2103 1394.53L64.2803 1396.61L63.3103 1398.95L63.4303 1400.31L67.8703 1402.84L69.0203 1404.2L69.4603 1407.59L70.4903 1409.47L71.6703 1410.71L72.5003 1412.11L72.8803 1415.02L73.0403 1420.13L74.1603 1422.81L75.8303 1420.9L81.2803 1429.05L88.8003 1432.52L106.04 1436.88L107.35 1437.97L108.58 1439.48L110.22 1440.98L112.86 1442.14L115.15 1442.49L127.49 1441.86L130.42 1442.24L137.94 1445.65L143.81 1444.77L156.87 1451.06L163.71 1452.84L169.96 1453.7L190.7 1459.31L192.65 1455.98L193.43 1452.69L194.11 1445.68L194.64 1443.9L195.55 1441.9L201.14 1433.54L201.24 1431.92L200.61 1430.88L199.32 1430.43L193.56 1430.2L191.76 1429.99L190.45 1429.41L189.56 1428.33L188.81 1426.47L187.29 1421.31L186.99 1418.86L187.24 1416.74L188.24 1414.84L191.69 1409.86L192.87 1407.5L194.62 1402.38L196.13 1399.99L198.49 1398.13L202.92 1396.78L205.99 1396.66L208.95 1397L227.85 1402.01L230.24 1402.1L233.2 1401.75L238.9 1400.34L241.06 1399.23L243.03 1397.52L245.53 1389.89L245.47 1388.13L244.7 1386.33L243.26 1384.81L241.68 1383.48L240.38 1381.96L240.23 1379.89L240.72 1377.75L241.96 1374.3L241.36 1372.11L239.66 1370.13L237.86 1368.53L236.65 1366.67L236.47 1364.95L237.03 1363.04L237.99 1361.14L239.2 1359.26L239.96 1357.35L240.45 1354.13L241.44 1352.5L252.75 1339.99L258.06 1335.57L262.88 1333.05L266.07 1329.97L267.66 1327.56L268.04 1325.25L267.77 1323.22L266.98 1322.04L265.54 1321.47L263.64 1321.8L261.44 1322.86L259.16 1324.41L256.92 1326.4L249.67 1334.59L248.53 1335.54L247.29 1336.18L246.41 1336.3L245.65 1335.94L245.19 1335.14L244.93 1333.76L245.34 1319.42L245.9 1316.84L247.16 1314.41L250.65 1309.08L251.64 1306.69L251.99 1304.29L251.71 1301.91L250.04 1296.99L249.51 1294.27L249.94 1292.16L251.23 1290.84L253.84 1291.7L256.03 1293.63L261.29 1299.67L267.61 1310.01L269.48 1312.12L271.6 1314.05L273.99 1315.56L277.72 1316.67L282.14 1317.1L295.78 1316.67L303.63 1314.77L307.57 1313.4L310.12 1311.35L310.84 1310.03L311.11 1308.93L311.18 1308.1L311.45 1306.65L311.94 1305.68L312.78 1304.85L314.63 1305.05L316.42 1305.94L322.48 1310.31L324.77 1311.11L327.23 1311.43L331.86 1311.27L333.91 1311.59L335.78 1312.24L337.86 1313.38L343.28 1315.6L346.01 1316.03L348.06 1315.63L349.63 1313.81L350.69 1311.23L352.92 1299.63L353.38 1288.32L353.29 1286.4L352.61 1286.31L342.36 1279.25L341.47 1278.38L340.87 1277.44L336.45 1273.58L335.56 1273.12L335.2 1271.3L335.92 1268.32L335.56 1266.15L332.83 1261.43L328.85 1258.16L323.76 1256.28L317.94 1255.63L313.61 1257.64L306.92 1265.54L303.68 1266.15L305.73 1264.67L306.78 1262.6L306.28 1260.6L303.68 1259.14L305.88 1256.03L312.03 1249.77L313.69 1247.02L313.73 1243.7L311.06 1238.58L310.36 1235.51ZM35.6103 1208.25L31.5503 1210.6L28.5003 1210.85L22.0903 1208.25V1210.14L24.8603 1211.93L24.5603 1214.64L23.4503 1218.15L23.9103 1222.4L26.4703 1224.9L29.5803 1224L32.8003 1220.94L36.2603 1215.89L36.5603 1214.75L37.2803 1213.81L38.9503 1213.5L35.6103 1208.25ZM70.6903 1163.99L70.5903 1160.45L69.0203 1157.41L66.5903 1164.44L65.6803 1166.15H64.1503L63.0503 1164.9L60.1903 1160.24L59.9103 1159.16L57.9603 1160.01L52.5003 1164.36L50.7703 1166.15L49.9403 1168.57L49.5603 1171.44L48.6403 1173.88L46.4703 1174.88L44.6203 1176.25L44.2203 1179.39L44.7003 1182.89L45.6403 1185.37L44.8003 1185.48L42.1503 1185.37V1187.27L48.9603 1188.87V1185.73L49.8803 1183.39L51.6103 1181.62L53.9803 1180.12L54.7303 1181.6L55.4503 1182.27L56.2603 1182.75L57.3403 1183.62L58.2403 1179.44L65.5803 1174.31L67.4903 1169.63L69.5203 1167.28L70.6903 1163.99ZM97.5803 1127.86L99.0103 1126.17L100.19 1124.32L100.98 1122.33L97.8403 1120.58L100.11 1117.69L107.63 1111.7L103.85 1110.43L98.9503 1109.97L95.9103 1111.26L97.6403 1115.19L91.7903 1118.29L90.3603 1120.66L93.4203 1125.65L95.1303 1127.92L95.8103 1129.32L97.5803 1127.86ZM119.79 1095.04L135.21 1082.57L136.25 1081.26L137.04 1079.02L141.04 1076.09L142.78 1073.34L144.39 1068.82L143.69 1065.3L140.94 1063.25L136.25 1062.91L139.13 1068.69L135.73 1074.3L124.57 1083.82L115.37 1093.51L110.77 1095.79L107.71 1092.67H106.04L105.84 1095.29L104.37 1101.57L104.21 1103.15L106.04 1104.59L108.09 1104.21L109.94 1102.84L111.07 1101.41L111.97 1102.07L114.4 1103.15L116.33 1098.72L119.79 1095.04Z" fill="#CCCCCC" stroke="white" stroke-width="0.5"/>
<path d="M315.74 1092.34L313.69 1090.97H312.15L312.87 1100.07L314.64 1103.15L318.84 1101.41L325.27 1101.74L325.75 1100.78L324.39 1097.95L325.35 1092.67L318.6 1092.8L315.74 1092.34ZM718.36 1145.96L721.5 1145.17L724.64 1143.78L728.17 1141.47L730.85 1139.09L732.51 1136.43L732.76 1135.96V1090.62L732.57 1091L727.27 1101.57L726.16 1105.81L724.76 1109.27L715.93 1122.33L710.08 1126.82L707.15 1129.92L705.9 1133.68L706.89 1137.16L711.35 1141.13L712.58 1145.17L715.33 1146.02L718.36 1145.96ZM712.58 1057.47L717.06 1057.1L719.91 1054.65L721.18 1050.53L720.94 1045.3L719.31 1048.08L716.76 1049.7L714.02 1050.49L711.75 1050.7L710.79 1051.49L710.97 1055.1L710.08 1055.93L708.33 1056.1L704.23 1057.47H712.58ZM395.92 1036.41L393.77 1037.7L391.66 1038.2L389.59 1037.78L387.52 1036.41L380.71 1040.07L381.51 1040.98L382.27 1041.38L384.04 1041.81L388.55 1042.19L391.9 1041.19L394.25 1039.15L395.92 1036.41ZM732.57 1028.36L732.76 1028.32V1022.01V1015.12L732.55 1015.58L729.62 1022.46L728.94 1025.49L728.98 1027.55L729.7 1028.61L730.93 1028.79L732.57 1028.36ZM580.52 976.75L583.51 975.36L580.32 974.16L576.82 973.58H568.46V975.36L572.28 976.73L576.54 977.19L580.52 976.75ZM709.24 949.26L711.27 948.45L715.63 948.25L717.6 947.52L732.51 933.66L732.76 933.43V928.38L732.47 928.37H728.64L710.91 936.21L709.12 938.44L700.52 945.41L697.54 949.26L696.28 948.45L693.54 948.49L690.89 947.52L692.8 946.3L693.96 944.76L693.54 943.29L690.89 942.44L687.39 943.29L682.14 948.08L679.19 949.26L677.18 946.28L676.68 940.45L675.15 936.6L667.89 940.81L661.92 943.31L660.68 944.91L659.85 947.21L657.82 947.89L653.16 947.52L652.22 947.21L651.45 946.59L650.43 945.97L648.74 945.78L648.76 946.59L648.64 948.45L647.98 950.32L646.47 951.15L644.76 950.9L643.27 950.98L642.31 952.39V956.35L641.02 953.64L639.57 952.18L637.76 952.37L635.63 954.61L633.22 952.97L630.51 952.02L628.32 950.61L627.13 947.52L625.93 950.86L623.79 959.83L622.47 956.74L620.88 954.26L618.67 952.76L615.45 952.74L619.21 957.24L615.78 958.65L607.09 957.95L603.45 960.19L602.37 963.46L601.95 967.48L600.26 971.88L596.6 969.41L593.71 971.65L591.57 976.19L590.39 980.55L588.12 979.3L585.48 978.99L582.73 979.89L580.2 982.29L582.73 983.99L585 986.9L586.53 990.51L586.91 994.32L585.18 993.74L584.18 993.82L583.11 994.11L581.06 994.32L579.21 993.53L577.65 990.07L575.94 989.26L572.88 990.71L570.93 993.31L568.74 994.32L565.06 991.17L561.18 994.61L554.19 993.74L547.01 991.81L542.59 992.04L541.12 992.91L536.88 993.66L534.99 994.32L534.15 995.4L532.28 999.01L531.64 999.88L529.18 1000.28L521.65 999.88L514.29 1001.5L501.47 1006.07L490.13 1007.48L483.36 1009.68L479.68 1010.3L478.71 1009.22L476.52 1007.5L474.21 1007.68L472.89 1012.21L471.8 1011.71L468.95 1010.84L467.92 1010.3L468.76 1013.83L470.59 1017.77L471.32 1021.01L468.76 1022.34L466.07 1024.56L463.18 1028.77L460.4 1031.14L457.89 1027.9H456.22L456.34 1030.56L455.92 1032.34L454.82 1033.65L452.87 1034.88L452.68 1033.17L451.62 1030.91L451.2 1029.6L443.8 1039.94L442.72 1042.68L443.56 1049.1L442.72 1050.95L439.54 1052.45L438.74 1044.99L436.46 1042.52L432.77 1044.14L419.16 1055.93L417.65 1057.93L417.05 1059.38L415.9 1060.42L412.67 1061.13L410.19 1060.67L402.64 1055.93L395 1054.83L392.45 1054.02L390.58 1052.36L387.76 1048.25L385.95 1047.05L383.5 1047.25L374.24 1050.7L376.41 1055.52L378.84 1058.34L382.34 1058.64L387.62 1055.93L386.88 1059.92L383.78 1065.99L382.58 1069.85L379.92 1068.4L378.78 1070.06L377.81 1072.97L375.78 1075.09V1069.85L367.54 1076.59L365.11 1080.87L365.77 1085.69H364.1L361.93 1084.13L360.81 1085.65L361.35 1088.56L364.1 1090.97L363.6 1091.86L363.56 1092.11L362.42 1092.67L368.77 1098L375.9 1096.71L390.96 1089.18L391.92 1092.55L394.07 1094.3L399.3 1096.17L397.11 1103.98L400.34 1109.83L405.17 1114.67L407.62 1119.66L408.3 1126.57L410.13 1134.81L412.87 1141.84L416.16 1145.17L419.96 1146.9L423.14 1147.27L430.19 1146.77L430.86 1145.77L439.54 1139.78L436.32 1137.26L436.91 1135.76L439.18 1134.54L441.05 1132.81L443.48 1122.99L444.52 1120.58L454.39 1111.7L457.41 1109.97L459.8 1109.1L462.43 1109.51L466.21 1111.7V1106.64H467.92L467.98 1109.27L468.72 1111.47L470.11 1113.05L474.85 1114.17L475.72 1115.57L476.04 1117.54L477.07 1119.66L480.26 1121.54L489.89 1124.45L493.07 1125.82H494.79L497.33 1123.16L504.26 1118.25L506.61 1115.19L502.07 1114.3L499.32 1114.84L493.07 1118.69L499.08 1100.45L504.22 1094.09L511.62 1096.17L515.16 1094.36L518.39 1091.72L519.86 1088.18L518.27 1083.82L525.59 1077.63L530.29 1074.59L548.92 1067.32L551.54 1067.24L553.36 1066.24L557.41 1068.55L563.52 1073.34L571.27 1075.05L574.15 1076.84L573.53 1080.49L574.97 1083.76L571.72 1085.44L567.31 1087L565.06 1090.1L563.52 1093.71L561.06 1095.5L560.82 1096.1L580.1 1094.63L586.97 1094.96L595.39 1097.91L599.23 1095.67L603.51 1094.67L611.27 1094.42L621.48 1092.01L626.41 1092.24L630.61 1096.17L634.17 1091.49L643.09 1085.65L645.66 1080.49H647.31L647.63 1081.41L648.82 1083.82L649.58 1080.76L651.15 1079.21L653.54 1078.64L656.54 1078.58L659.37 1077.83L663.43 1074.43L665.84 1073.34L669.24 1073.76L673.9 1074.88L679.15 1075.22L684.34 1073.34L686.79 1076.79L690.29 1078.29L699.05 1078.58L698.02 1082.07L699.41 1085.38L702.37 1086.56L705.9 1083.82L707.27 1084.61L710.91 1085.69L710.04 1084.15L708.29 1080.12L707.41 1078.58L714.79 1081.49L718.55 1082.26L720.94 1080.49L720.46 1076.5L717 1074.03L712.58 1073.05L709.24 1073.34L708.58 1067.49L706.33 1062.69L702.2 1059.72L695.75 1059.22L700.88 1052.45L701.88 1052.2L704.94 1052.69L705.9 1052.45L706.14 1051.28L705.72 1048.25L705.9 1047.05L714.26 1031.35L717.16 1024.08L718.51 1022.01L720.31 1020.1L721.38 1017.69L718.67 1011.63V1009.49L717.96 1008.43L714.26 1008.56L712.5 1009.34L711.39 1010.74L710.49 1012.37L709.24 1013.79L696.34 1019.97L694.08 1021.63L691.99 1025.53L687.31 1029.6L679.19 1034.88L675.39 1036.14L673.26 1037.37L672.34 1039.2L671.57 1041.38L669.68 1042.37L667.25 1043.1L664.94 1044.43L663.35 1046.73L660.82 1053.03L659.01 1055.93L658.05 1056.43L655.03 1057.1L653.99 1057.47L653.56 1058.45L652.72 1061.92L652.32 1062.91L650.07 1063.79L647.31 1064.29L644.94 1065.57L643.98 1068.98L642.91 1071.43L640.34 1073.39L637.28 1074.63L634.79 1075.09L631.33 1076.34L625.78 1082.82L622.25 1085.69L619.57 1082.26L615.45 1081.49L610.97 1082.78L607.09 1085.69L605.28 1083.82L607.74 1080.02L608.58 1075.22L607.74 1070.77L605.28 1068.11L606.63 1067.07L610.65 1065.55L612.1 1064.62L615.07 1059.92L616.26 1058.34L618.91 1056.18L625.18 1052.11L627.96 1049.83L629.84 1046.21L630.31 1042.02L630.23 1038.01L630.61 1034.88L631.92 1031.28L632.94 1029.35L634.43 1027.94L657.9 1012L663.27 1010.3L668.8 1007.39L674.91 1000.65L679.21 993.06L679.19 987.52L683.39 984.53L693.18 970.39L696.38 964.5L698.31 963.32L698.1 962.38L699.85 960.31L703.33 957.16L705 955.21L707.25 951.19L709.24 949.26Z" fill="#CCCCCC" stroke="white" stroke-width="0.5"/>
<path d="M683.25 1703.34L682.41 1698.08L681.06 1693.53L678.35 1691.55L673.24 1692.81L673.54 1695.97L675.99 1699.99L677.521 1703.93L676.32 1703.39L673.581 1702.65L672.34 1702.16L671.51 1704.14L671.391 1704.61L670.951 1704.78L669.18 1705.68L669.641 1707.96L670.63 1708.97L674.17 1709.54L677.04 1709.29L684.34 1707.45L683.25 1703.34ZM337.23 1640.35L334.62 1641.76L332.55 1641.61L330.48 1640.81L328.03 1640.35L326.02 1640.9L324.91 1642.12L324.03 1643.3L322.92 1643.89L319.2 1644.14L317.51 1645.3L315.5 1652.68L308.69 1649.97L298.96 1650.49L290.3 1653.88L286.82 1659.58V1664.26L285.76 1668.91L283.6 1671.16L280.29 1668.59L277.76 1670.61L277.05 1673.14L276.67 1675.67L275.14 1677.6L272.89 1677.98L259.14 1674.36L256.33 1674.45L253.74 1675.67L251.85 1678.4L250.96 1684.05L248.41 1686.24L243.55 1684.3L239.14 1685.97L231.73 1693.32L234.54 1695.51L237.31 1697.23L239.79 1697.82L241.72 1696.71H243.4L244.57 1700.52L247.43 1700.12L252.75 1696.71L255.93 1697.28L262.26 1699.8L266.08 1700.39L269.74 1699.76L271.5 1698.16L272.81 1695.89L275.14 1693.32H278.62L279.91 1692.77L283.5 1689.78L282.84 1696.48L283.2 1698.73L285.29 1700.39L287.44 1700.52L289.61 1699.42L291.28 1697.7L291.97 1695.82L292.45 1689.27L291.36 1687.08L287.73 1686.24L286 1685.06L285.47 1682.32L286.3 1679.39L288.63 1677.6L289.82 1681.4L290.24 1680.13L290.16 1674.7L291.38 1672.05L294.36 1671.44L298.2 1671.37L302 1670.36L312.51 1661.69L318.82 1659.04L325.35 1661.52L324.39 1662.24L323.2 1663.88L322.04 1665.06L323.68 1666.03L325.07 1666.4L326.66 1666.13L328.85 1665.06L328.37 1666.83L327.78 1670.4L327.18 1672.13L331.32 1671.08L337.23 1670.87L342.72 1671.29L345.57 1672.13L347.64 1670.91L348.57 1669.29L348.47 1667.37L347.38 1665.06L352.21 1665.94L354.66 1666.7L356.39 1668.21L359.98 1665.77L365.11 1663.2L365.55 1658.93L364.27 1654.13L362.42 1650.75L359.74 1649.59L350.82 1648.05L348.91 1648.2L347.04 1644.18L339 1643.78L337.23 1640.35ZM375.14 1634.04L375.3 1631.92L374.46 1629.92L372.43 1627.86L373.67 1623.69L369.95 1622.89L364.93 1624.34L362.42 1626.97L361.89 1628.82L359.62 1632.69L359.08 1635.76L365.77 1640.35L367.98 1640.75L369.29 1638.04L370.96 1635.51L374.24 1636.65L375.14 1634.04ZM706.31 1558.93L710.701 1555.38L713.391 1552.84L719.24 1551.44L721.12 1548.32L720.07 1547.02L718.93 1545.18L715.07 1545.6L705.42 1547.91L696.19 1551.51L691.35 1553.68L691.94 1556.5L696.8 1559.29L698.65 1561.87L701.35 1563.88L701.51 1568.29L704.09 1572.57L708.5 1571.56L708.76 1566.28L713.451 1562.28L712.57 1559.41L711.43 1559.4L708.021 1560.95L706.31 1558.93ZM564.641 1388.38L560.94 1385.94L557.65 1385.52L556.081 1384.93L554.771 1385.06L549.43 1389.37L547.74 1389.28L545.141 1387.69L545.711 1390.24L547.98 1394.22L548.48 1395.43L548.22 1402.82L549.24 1410.17L550.35 1411.96L552.521 1411.34L553.22 1409.58L552.54 1404.35L553.49 1401.58L554.67 1405.94L556.28 1408.99L560.94 1414.85L562.37 1417.89L564.24 1424.99L566.711 1428.08L573.87 1432.46L576.98 1422.41L576.461 1408.57L572.701 1401.58L570.57 1399.16L564.641 1388.38ZM593.581 1361.05L593.93 1358.92L593.5 1356.39L592.701 1354.01L591.92 1352.31L593.24 1350.85L593.581 1350.12V1348.97L589.4 1347.67L585.24 1345.46L584.021 1348.72L584.82 1352.14L586.69 1355.28L588.581 1357.71L590.15 1362.18L591.57 1363.48L593.581 1361.05ZM434.31 1341.78L430.19 1340.73L425.1 1337.55L421.15 1331.16L418.08 1327.64L419.61 1332.48L423.33 1342.17L426.55 1342.78L427.72 1344.37L429.31 1344.72L430.96 1343.53L432.63 1345.46L433.35 1344.45L433.71 1343.62L434.31 1341.78ZM435.67 1335.15L438.75 1334.05L444.91 1332.3L446.451 1329.66L447.34 1326.8L448 1323.07L447.12 1319.55L446.69 1316.04L445.6 1312.53L443.41 1306.59L438.79 1303.93L435.06 1305.03L433.53 1306.56L427.35 1310.29L424.48 1317.98L427.72 1328.16L429.08 1332.5L431.5 1336.93L435.67 1335.15ZM498.19 1313.58L497.53 1309.94L494.59 1301.88L493.03 1299.38L489.891 1297.41L487.86 1298.42L487.581 1301.21L489.53 1304.64L492.04 1306.39L493.891 1308.25L495.3 1310.53L496.38 1313.58H498.19ZM590.391 1241.64L594.07 1237.2L596.641 1232.15L598.23 1226.38L598.73 1219.77L597.79 1210.77L597.831 1209.23L595.29 1207.35L593.18 1207.18L590.85 1207.85L580.82 1209.31L579.03 1211.98L579.211 1215.44L578.41 1218.87L580.24 1222.4L581.48 1226.15L581.99 1230.26V1245.46L583.8 1246.92L590.391 1241.64Z" fill="#CCCCCC" stroke="white" stroke-width="0.5"/>
<path d="M278.481 1507.93L280.991 1504.19L281.821 1498.72L280.371 1494L277.641 1491.65L274.881 1492.41L273.591 1496.96L273.411 1498.53L273.371 1499.83L273.111 1500.98L272.091 1502.24L273.231 1503.75L273.471 1504.65L272.571 1505.26L270.261 1505.77L274.721 1508.85L278.481 1507.93ZM353.291 1286.4L353.381 1288.32L352.921 1299.63L350.691 1311.23L349.631 1313.81L348.061 1315.63L346.011 1316.03L343.281 1315.6L337.861 1313.38L335.781 1312.24L333.911 1311.59L331.861 1311.27L327.231 1311.43L324.771 1311.11L322.481 1310.31L316.421 1305.94L314.631 1305.05L312.781 1304.85L311.941 1305.68L311.451 1306.65L311.181 1308.1L311.111 1308.93L310.841 1310.03L310.121 1311.35L307.571 1313.4L303.631 1314.77L295.781 1316.67L282.141 1317.1L277.721 1316.67L273.991 1315.56L271.601 1314.05L269.481 1312.12L267.611 1310.01L261.291 1299.67L256.031 1293.63L253.841 1291.7L251.231 1290.84L249.941 1292.16L249.511 1294.27L250.041 1296.99L251.711 1301.91L251.991 1304.29L251.641 1306.69L250.651 1309.08L247.161 1314.41L245.901 1316.84L245.341 1319.42L244.931 1333.76L245.191 1335.14L245.651 1335.94L246.411 1336.3L247.291 1336.18L248.531 1335.54L249.671 1334.59L256.921 1326.4L259.161 1324.41L261.441 1322.86L263.641 1321.8L265.541 1321.47L266.981 1322.04L267.771 1323.22L268.041 1325.25L267.661 1327.56L266.071 1329.97L262.881 1333.05L258.061 1335.57L252.751 1339.99L241.441 1352.5L240.451 1354.13L239.961 1357.35L239.201 1359.26L237.991 1361.14L237.031 1363.04L236.471 1364.95L236.651 1366.67L237.861 1368.53L239.661 1370.13L241.361 1372.11L241.961 1374.3L240.721 1377.75L240.231 1379.89L240.381 1381.96L241.681 1383.48L243.261 1384.81L244.701 1386.33L245.471 1388.13L245.531 1389.89L243.031 1397.52L241.061 1399.23L238.901 1400.34L233.201 1401.75L230.241 1402.1L227.851 1402.01L208.951 1397L205.991 1396.66L202.921 1396.78L198.491 1398.13L196.131 1399.99L194.621 1402.38L192.871 1407.5L191.691 1409.86L188.241 1414.84L187.241 1416.74L186.991 1418.86L187.291 1421.31L188.811 1426.47L189.561 1428.33L190.451 1429.41L191.761 1429.99L193.561 1430.2L199.321 1430.43L200.611 1430.88L201.241 1431.92L201.141 1433.54L195.551 1441.9L194.641 1443.9L194.111 1445.68L193.431 1452.69L192.651 1455.98L190.701 1459.31L201.401 1462.22L202.441 1463.63L203.191 1465.37L207.891 1469.6L209.281 1470.29L210.761 1469.54L211.991 1468.43L213.941 1467.17L215.731 1466.65L216.531 1467.78L217.761 1472.18L220.711 1471.19L224.371 1468.97L227.551 1469.54L230.421 1471.05L233.841 1470.27L236.811 1468.47L238.381 1466.92L240.051 1468.13L241.581 1468.51L245.231 1468.66L253.191 1470.06L271.321 1463.5L276.811 1468.66L278.241 1466.92H280.291L284.831 1465.83L289.011 1462.06L296.051 1453.63L298.181 1452.34L303.221 1450.43L305.351 1449.17L306.421 1447.6L307.721 1443.77L308.691 1442.14L310.141 1440.56L311.421 1439.52L313.171 1438.97L316.271 1438.81L319.321 1437.97L321.171 1436.08L322.641 1434.2L324.591 1433.34L325.941 1433.09L328.871 1431.96L330.541 1431.6L331.921 1432.1L333.191 1433.28L334.001 1434.47L333.891 1435.1L336.211 1434.62L338.001 1433.74L339.361 1432.27L340.551 1429.84L339.881 1429.32L339.681 1429.21L339.021 1428.08L342.241 1427.96L344.691 1428.5L346.781 1429.68L350.821 1433.53L351.261 1434.32L350.981 1435.75L350.721 1439.6L353.331 1439.85L358.661 1438.39L362.961 1435.1L362.421 1429.84L365.551 1428.75L372.571 1425.05L374.981 1425.36L377.111 1426.91L378.361 1427.04L379.401 1427.41L380.751 1429.84L380.451 1430.89L377.591 1435.1L380.551 1434.57L387.621 1431.6V1436.88L393.571 1430.81L405.951 1424.57L408.281 1422.85L411.081 1420L413.511 1416.53L414.471 1412.99L414.351 1410.58L414.471 1406.86L415.021 1405.21L417.051 1401.69L417.651 1399.83H416.161L415.661 1401.12L414.661 1402.88L413.351 1404.45L411.841 1405.08L409.231 1404.83L408.631 1404.14L408.531 1403.01L407.621 1401.58L404.991 1398.55L403.681 1396.35L401.591 1395.01L396.791 1394.55L393.611 1390.83L389.151 1382.88L388.221 1375.56L395.961 1373.68L394.781 1369.46L394.291 1368.24L396.711 1369.41L397.631 1370L399.201 1366.86L398.961 1364.23L397.231 1362.26L394.291 1361.05L396.831 1359.25L397.051 1357.39L395.441 1356.53L392.451 1357.71L390.131 1355.49L390.311 1352.9L391.141 1350.1L390.961 1347.04L389.791 1345.83L385.251 1342.59L383.341 1340.9L382.501 1338.94L382.901 1336.76L383.681 1334.51L384.101 1332.06L385.651 1327.4L388.671 1323.14L391.201 1318.3L390.961 1311.99L388.161 1307.1L383.801 1303.76L378.641 1301.92L373.351 1301.3L371.561 1299.38L365.031 1290.21L360.751 1287.14L357.651 1286.58L355.081 1286.64L353.291 1286.4Z" fill="#CCCCCC" stroke="white" stroke-width="0.5"/>
</svg>
