<svg width="598" height="586" viewBox="0 0 598 586" fill="none" xmlns="http://www.w3.org/2000/svg">
<path d="M483.85 209.16L487.31 207.45L486.35 204.92L487.71 203.75L486.99 203.16L488.32 198.19L490.67 196.84L493.85 191.38L493.13 189.16L498.93 178.9L498.13 177.07L495.51 177.47L493.81 176.28L495.15 174.71L494.18 173.42L495.52 168.67L494.38 166.85L496.22 167.21L493.36 165.55L497.52 165.35L499.73 163.8L503.31 157.06L501.69 156.91L500.73 155.05L503.73 150.33L501 147.78L501.45 146.88L497.02 145.43L495.9 148.15L493.9 149.25L494.35 147.56L492.81 147.28L492.77 145.51L494.6 144.35L492.75 144.57L492.67 143.59L488.77 142.4L488.32 139.89L489.76 139.9L490.25 138.13L491.99 138.45L493.45 131.56L494.73 130.8L495.9 135.31L502.88 137.33L502.74 138.48L504.2 139.25L509.44 137.67L512.96 139.94L514.69 138.39L517.11 132.3L521.07 132.11L521.19 132.93L523.63 131.52L526.63 133.56L529.43 132.02L536.04 136.31L541.83 137.82L538.37 141.7L535.9 148.12L531.02 150.96L530.69 153.17L525.51 158.24L523.89 161.81L524.14 166.15L522.58 167.68L521.09 173.66L521.6 177.85L519.46 179.43L518.35 184.41L514.63 190.69L514.33 196.05L516.52 199.9L513.79 205.64L512.67 211.8L513.43 214.6L511.92 216.84L515.23 222.55L514.89 224.31L511.39 226.53L512.7 227.24L511.33 227.69L511.89 229.06L510.95 230.02L508.58 229.23L508.14 230.14L509.58 230.71L506.71 233.09L504.31 232.53L500.77 233.75L500.31 232.65L497.73 232.37L499.05 229.3L496.17 228.75L496.61 227.42L494.24 223.24L490.89 222.67L492.57 218.4L492.18 215.26L488.17 212.3L485.1 211.59L483.85 209.16Z" fill="#CCCCCC" stroke="white" stroke-width="0.5"/>
<path d="M226.22 336.78L227.19 338.07L230 337.64L232.24 339.31L231.27 342.25L233.78 344.78L236.14 341.95L237.32 343.23L242.34 342.66L245.13 347.37L246.4 346.38L248.5 347.68L246.61 350.63L253.78 353.13L252.24 354.96L255.06 356.33L252.6 359.62L251.42 359.68L251.03 362.59L253.13 363.66L251.05 366.59L253.59 367.51L252.39 368.83L252.18 368.85L254.38 370.77L258.68 371.25L257.27 372.41L260.18 377.42L258.61 378.32L258.78 379.01L259.95 383.5L258.75 383.85L259.91 385.71L256.66 387.79L256.83 389.69L254.02 390.57L254.75 393.82L250.94 397.1L247.81 397.9L248.06 399.7L245.61 402.34L246.01 403.51L242.32 405.62L240.92 405.21L242.39 407.37L242.41 410.92L243.98 411.96L244.22 415.49L239.67 415.72L239.23 416.67L238.36 414.42L237.36 414.59L236.24 418.69L239.62 420.75L237.79 425.57L235.58 425.95L236.91 426.47L237.27 428.61L235.94 429.26L232.91 428.28L233.28 430.15L231.56 430.36L230.83 432.99L227.66 435.14L224.72 431.92L223.18 433.37L219.24 433.32L218.46 434.89L213.15 436.02L212.56 437.1L209.67 435.3L208.04 435.7L206.58 438.13L205.35 436.47L202.39 438.79L203.24 441.36L202.53 442.54L199.21 440.65L200.36 439.22L198.57 437.48L196.1 440.69L192.63 440.07L190.14 442.46L192.35 444.14L191.43 444.75L192.06 447.49L190.69 447.59L192.01 451.65L189.72 453.37L190.04 456.37L188.39 457.04L188.48 458.45L189.82 458.6L190.18 460.49L192.73 459.71L196.08 460.53L196.2 462.73L197.33 462.46L199.32 466.79L197.35 467.3L197.29 470.27L200.05 468.31L199.93 472.47L201.31 473.95L198.16 476.5L199.36 478.26L198.03 481.21L197.04 480.97L197.26 483.58L195.2 483.41L194.01 486.31L192.06 487.14L192.6 490.67L189.25 491.5L188.12 493.3L188.4 497.33L186.48 498.27L187.07 502.1L183.69 504.95L181.69 505.15L179.05 503.35L177.15 506.14L171.9 500.1L169.67 499.43L168.75 495.39L160.89 496.22L153.79 492.22L152.63 493.13L151.74 491.59L149.04 490.46L147.64 491.12L145.71 489.71L147.3 486.88L144.26 488.23L143.86 491.97L140.29 490.97L138.92 488.59L141.36 486.36L142.71 482.87L142.44 478.97L136.36 476.93L135.21 477.25L134.65 479.44L133.32 479.31L132.66 476.18L128.3 476.78L127.96 474.84L125.91 473.68L125.84 472.35L130.87 471.5L133.66 468.95L140.04 456.71L146.25 424.39L147.91 405.15L150.53 398.48L158.4 399.81L157.83 397.32L155.69 396.31L157.17 396.29L151.63 391.67L148.92 396.48L148.33 401.03L147.7 399.99L152.04 350.6L154.63 345.83L156.02 344.81L156.9 347.02L155.3 347.3L156.35 347.37L155.79 348.47L166.68 358.23L171.42 374.15L175.37 378L172.32 370.93L170.38 359.32L175.35 359.74L175.69 358.22L176.62 361.17L182.43 362.23L183.39 367.64L183.44 367.9L184.18 370.15L185.03 368.6L186.08 368.8L187.07 370.47L188.48 370.19L189.37 371.82L192.19 373.02L194.15 373.3L196.46 371.42L198.28 372.77L198.58 370.34L200.28 369.59L199.32 368.89L200.45 366.67L202.43 365.23L205.71 366.46L207.39 363.24L211.16 361.1L210.38 356.84L211.57 353.43L213.27 352.86L212.66 351.53L213.83 352.55L215.91 349.97L218.03 349.96L218.75 347.73L221.05 346.09L221.32 341.29L223.58 341.26L226.22 336.78ZM196.93 476.2L196.69 472.63L196.3 472.44L196.46 474.59L195.25 475.08L196.25 476.04L196.93 476.2ZM195.34 476.07L195.05 476.29L194.24 478.22L195.02 479.97L196.75 478.73L195.72 476.21L195.48 476.05L195.34 476.07Z" fill="#CCCCCC" stroke="white" stroke-width="0.5"/>
<path d="M294.731 294.44L295.471 291.41L296.501 291.4L298.061 288.63L303.301 287.67L305.361 288.48L308.601 286.42L308.151 283.94L306.601 283.08L307.821 281.24L306.751 280.05L308.201 279.3L309.151 280.07L309.001 278.16L312.211 276.45L312.801 274.84L314.681 276.55L316.241 275.47L318.221 276.02L321.311 271.96L325.901 271.84L327.011 274.48L332.891 278.99L335.771 276.54L339.001 278.53L340.341 276.8L342.061 276.72L343.561 280.49L347.881 278.23L347.331 276.19L349.381 276.1L349.041 273.84L350.551 274.26L351.111 277.15L355.191 283.48L355.421 287.3L358.061 288.5L359.451 287.74L360.701 290.34L364.061 290.05L366.121 291.92L365.141 295.72L365.501 299.9L366.321 299.98L363.911 300.33L361.941 303.07L361.671 303.14L361.311 303.19L356.491 305.27L358.181 309.83L357.531 312.88L358.711 314.27L358.041 316.37L359.111 319.6L357.311 321.14L353.731 321.36L353.401 323.71L355.961 326.33L354.341 327.27L354.631 330.63L353.241 331.96L357.051 335.88L356.901 337.87L358.841 341.41L363.411 344.57L365.531 349.43L364.641 352.96L361.561 355.37L362.191 358.96L364.001 356.49L365.561 356.73L366.911 359.32L367.011 358.06L369.111 358.85L369.531 357.53L372.541 357.14L372.171 356.02L373.571 355.5L375.831 355.71L377.451 357.54L380.041 356.94L381.401 358.82L379.911 359.91L381.541 360.87L380.641 362.45L382.151 363.54L384.231 362.45L386.501 365.5L384.711 369.16L385.121 371.61L384.221 372.14L383.691 370.59L381.651 370.15L382.691 371.9V372.43L381.551 372.35L380.531 374.1L381.901 376.44L378.441 377.45L379.161 380.16L375.471 380.74L372.631 386.01L367.571 386.05L367.311 388.31L366.141 389.11L365.411 388.35L365.651 389.6L364.031 388.7L362.961 392.1L360.381 393.52L359.311 393.31L359.611 391.89L358.221 392.33L356.211 390.22L355.471 388.04L352.281 388.59L352.561 386.96L350.761 385.52L349.251 385.84L349.041 388.74L344.451 389.71L341.911 384.52L341.841 381.98L340.011 380.03L336.461 382.85L334.641 382.34L334.401 385.14L332.571 386.61L330.061 384.21L329.141 386.42H328.901L328.711 388.29L327.611 388.06L326.521 390.25L326.231 395.17L323.851 399.32L321.981 397.25L320.941 392.51L322.001 391.77L321.311 390.63L319.971 390.88L318.781 385.92L315.181 387L315.241 383.72L313.691 382.01L308.201 387.59L308.021 390.73L305.921 392.98L306.351 394.92L303.831 396.73L303.181 398.96L297.721 399.55L296.651 397.81L295.341 397.93L292.091 398.99L291.571 400.87L290.171 399.66L289.681 396.34L288.471 396.28L290.211 390.93L286.871 385.98L287.361 383.24L285.641 380.01L287.291 379.58L287.641 379.67L289.021 378.52L287.181 375.09L290.271 373.79L290.541 370.57L292.731 368.9L291.421 367.97L291.141 365.6L298.021 358.82L297.561 354.39L303.041 356.86L305.021 355.56L303.331 353.96L304.591 345.98L302.251 343.51L303.281 340.86L304.761 340.78L304.841 336.75L299.221 329.92L302.051 327.49L302.231 327.45L303.551 327.63L306.211 324.67L306.531 322.11L308.491 321.2L308.081 317.45L305.941 314.4L306.591 310.27L303.121 302.81L301.011 301.85L300.591 302.63L299.191 299.73L298.241 301L295.641 299.03L296.951 297.29L295.021 296.74L294.731 294.44Z" fill="#CCCCCC" stroke="white" stroke-width="0.5"/>
<path d="M405.179 206.38L403.629 203.01L402.229 203.22L401.859 204.54L400.659 203.77L402.059 201.82L401.239 200.57L398.709 200.46L399.729 198.84L399.059 197.77L395.199 196.66L390.159 196.34L388.389 197.74L389.159 200.12L379.189 200.54L378.289 202.79L376.289 202.47L375.529 199.88L374.219 200.17L374.529 201.77L373.069 200.65L372.549 200.93L370.699 202.73L368.619 201.51L367.979 202.78L366.309 201.71L361.759 202.53L362.529 199.41L361.749 198.06L361.149 199.47L359.969 199.21L359.449 197.92L360.809 197.23L358.749 195.43L357.459 190.86L355.319 189.95L355.679 187.88L354.269 187.36L354.619 188.48L352.309 189.48L350.779 186.38L348.639 186.71L350.399 184.16L349.539 183.73L350.299 181.48L348.569 180.53L348.979 179.5L345.509 175.39L343.959 174.78L342.369 175.88L341.789 173.91L340.189 173.3L339.729 175.02L338.529 175.18L330.429 175L328.889 176.48L326.559 175.83L325.229 179.21L326.559 182.65L324.779 185.31L321.999 186.77L321.989 188.03L325.829 189.88L325.269 190.95L326.089 190.89L326.669 193.6L329.779 196.29L328.729 196.93L329.919 199.82L328.539 201.43L328.289 201.64L324.989 203.94L324.429 206.34L325.959 207.42L325.659 211.3L318.449 213.12L318.289 215.61L319.559 215.4L321.539 217.77L322.669 220.03L321.969 222.87L323.629 224.68L318.819 226.05V225.83L318.299 226.6L321.729 232.72L319.109 238.81L323.839 243.49L325.869 252.05L325.339 255.51L327.829 257.97L327.899 262.1L326.649 265.02L327.469 268.4L325.899 271.84L327.009 274.48L332.889 278.99L335.769 276.54L338.999 278.53L340.339 276.8L342.059 276.72L343.559 280.49L347.879 278.23L347.329 276.19L349.379 276.1L349.039 273.84L350.549 274.26L351.109 277.15L355.189 283.48L355.419 287.3L358.059 288.5L359.449 287.74L360.699 290.34L364.059 290.05L366.119 291.92L365.139 295.72L365.499 299.9L366.319 299.98L363.909 300.33L361.939 303.07L361.579 306.75L364.999 307.45L365.689 309.45L370.399 307.68L373.529 309.17L374.749 307.94L375.499 308.94L376.689 308.35L376.499 310.09L377.559 310.22L381.599 308.45L382.969 301.88L385.169 301.8L387.049 303.57L389.729 301.99L391.799 303.69L392.589 301.57L394.359 301.26L395.629 302.91L394.339 304.09L396.689 305.62L395.999 307.93L397.609 309.27L398.509 309.03L405.199 288.51L405.599 289.58L406.989 288.74L410.009 290.58L414.569 289.39L414.619 288.48L416.199 289.29L417.429 292.15L420.689 292.85L421.079 291.84L424.949 291.01L425.109 289.48L422.549 288.44L422.499 285.88L424.409 284.71L424.059 282.98L425.949 281.34L424.029 278.49L423.919 275.87L422.589 275.79L423.859 273.34L421.209 270.62L426.959 269.1L424.339 267.41L424.199 265.96L421.299 266.26L419.839 263.1L418.599 263.76L418.199 260.76L420.849 258.65L419.069 257.81L419.419 256.45L423.619 254.44L425.869 250.65L425.849 250.34L427.889 241.89L429.189 241L427.259 240.19H427.119L428.209 238.69L427.729 235.5L427.569 235.4L425.849 235.52H425.589L425.859 231.98L422.879 231.12L424.589 230.34L423.739 230.1L424.219 229.01L426.269 229.09L428.289 225.55L425.969 220.97L424.039 223.14L423.109 222.5L422.399 223.36L420.389 222.23L418.109 224.24L418.429 221.45L414.869 219.61L415.079 217.88L412.549 219.96L409.899 218.62L410.199 216.96L408.879 217.14L408.849 216.02L406.349 217.52L405.949 212.84L404.149 212.52L407.329 210L405.729 206.38H405.179Z" fill="#CCCCCC" stroke="white" stroke-width="0.5"/>
<path d="M65.23 235.83L66.47 237.32L68.99 237.26L69.72 239.39L72.96 240.31L72.4 242.01L65.62 241.01L64.59 237.99L65.23 235.83ZM66.19 144.01L66.4 146.24L71.97 143.98V147.02L75.03 146.83L75.35 148.3L73.71 149.53L78.48 151.07L77.79 153.25L83.11 157.77L82.91 161.12L87.4 163.59L86.29 165.54L87.46 165.05L89.07 167.85L88.71 165.05L91 165.71L94.02 160.84L97.38 159.41L96.76 158L98.89 157.52L99.61 158.99L103.82 155.27L105.27 156.54L103.05 159.57L104.01 160.2L106.94 158.05L108.3 161.64L107.73 163.95L108.9 160.15L109.6 162.32L110.79 159.7L111.87 160.79L110.73 158.74L115.07 158.4L115.51 160.85L117.17 161.93L116.42 162.61L118.17 164.35L117.65 167.39L118.5 165.47L119.59 165.84L117.59 161.85L119.22 162.72L118.66 161.39L116.51 160.94L117.14 159.88L115.66 158.67L117.39 155.61L123.54 153.8L123.86 155.86L122.5 158.45L126.25 160.58L134.79 158.68L138.25 167.77L141.04 169.53L143.84 169.03L148 164.34L155.63 166.57L155.17 172.42L156.66 177.77L154.34 181.67L155.27 185.58L155.44 185.74L157.85 198L152.1 200.37L148.3 211.99L143.46 210.6L142.43 208.81L138.67 208.37L138.91 210.36L132.72 212.79L131.15 216.11L122.84 216.17L118.9 218.46L118.14 217.08L113.63 219.78L112.95 226.96L110.49 227.65L110.23 229.6L109.34 228.2L106.85 229.31L104.62 227.98L103.84 231.36L100.34 231.65L99.44 230.38L98.01 232.15L96.45 232.03L96.19 229.45L98.71 229.07L95.86 227.48L83.16 229.81L79.18 225.71L77.03 225.7L75.93 224.09L75.3 224.9L74.46 223.32L74.66 224.85L70.37 224.72L70.18 228.14L72.18 230.9L70.04 230.63L68.74 227.19L69.88 226.24L69.28 223.12L63.61 217.6L60.52 217.56L60.3 216.03L56.66 216.95L53.6 212.77L47.3 212.01L45.28 210.23L40 211.11L38.04 208.41L38.89 206.92L37.69 207.45L36.21 204.22L34.43 205.4L35.03 207.18L32.26 207.9L29.59 206.14L27.9 207.05L26.04 210.77L18.73 210.78L19.12 205.13L16.51 200.52L12.79 197.87L10.37 198.2L7.74 196.42L3.4 195.78L4.65 195.5L4.33 194.2L16.7 191.57L21.33 192.67L22.9 190.15L20.89 185.55L14.75 183.37L13.29 183.79L10.8 187.63L10.25 183.64L11.45 182.73L8.2 182.4L7.92 180.83L10.35 180.67L10.28 177.65L11.91 177.01L10.94 179.37L11.79 180.53L13.28 178.83L13.15 180.73L15.26 179.75L17.48 181.11L21.26 179.67L23.19 180.77L24.81 178.68L23.73 179.58L20.01 178.6L21.44 177.63L20.24 177.06L20.8 175.65L18.52 177.9L16.71 178L17.53 176.9L15 177.88L17.41 174.35L16.43 173.57L8.8 177.15L5.74 176.09L4.64 177.58L1.93 177.71L1.2 175.72L2.39 174.41L1 172.48L2.42 169.12L1.76 166.11L3.71 163.57L8.67 162.3L8.86 160.57L10.61 160.96L11.5 158.52L13.29 159.51L17.35 158.5L15.88 157.42L19.64 156L21.72 156.79L21.73 158.73L25.91 157.59L24.78 157.16L26.28 155.39L29.87 154.86L31.56 156.06L31.81 154.2L33.7 152.85L33.96 153.84L35.24 152.86L35.17 156.2L36.84 156.91L37.09 154.65L37.17 156.2L40.38 157.05L40.01 155.23L40.99 153.66L41.44 154.52L41.32 153.36L47.28 155.44L48.77 154.83L48.16 157.16L49.63 155.44L51.34 156.44L51.27 153.03L52.72 151.73L51.23 150.97L51.96 148.58L51.13 147.89L52.47 148.8L54.56 145.8L55.1 146.99L55.55 145.91L56.43 147.29L57.72 146.96L57.19 148.39L58.96 148.26L62.2 145.86L64.56 146.11L66.19 144.01Z" fill="#CCCCCC" stroke="white" stroke-width="0.5"/>
<path d="M262.4 139.46L264.97 142.61L264.25 143.88L266.43 145.82L265.73 150.75L267.61 151.65L265.54 154.41L267 155.29L266.58 156.78L269.23 159.97L271.26 159.95L271.01 162.29L274.25 163.76L273.78 166.28L274.85 169.19L277.68 170.83L280.19 169.79L280.09 172.97L282.15 173.25L282.59 175.62L281.33 178.92L281.94 180.28L289.87 179.63L289.38 178.54L290.61 178.83L291.51 176.79L293.28 177.55L293.26 179.63L295.48 178.77L295.7 178.36L296.69 177.48L297.99 179.05L299.87 178.56L300.68 182.04L304.56 184.14L304.58 187.78L303.15 187.93L301.51 190.46L306.31 189.4L312.38 190.49L314.4 189.13L313.66 187.8L314.76 188.63L316.26 187.68L317.11 190.09L319.05 188.46L321.99 188.03L325.83 189.88L325.27 190.95L326.09 190.89L326.67 193.6L329.78 196.29L328.73 196.93L329.92 199.82L328.54 201.43L328.29 201.64L324.99 203.94L324.43 206.34L325.96 207.42L325.66 211.3L318.45 213.12L318.29 215.61L319.56 215.4L321.54 217.77L322.67 220.03L321.97 222.87L323.63 224.68L318.82 226.05V225.83L318.3 226.6L321.73 232.72L319.11 238.81L323.84 243.49L325.87 252.05L325.34 255.51L327.83 257.97L327.9 262.1L326.65 265.02L327.47 268.4L325.9 271.84L321.31 271.96L318.22 276.02L316.24 275.47L314.68 276.55L312.8 274.84L312.21 276.45L309 278.16L309.15 280.07L308.2 279.3L306.75 280.05L307.82 281.24L306.6 283.08L308.15 283.94L308.6 286.42L305.36 288.48L303.3 287.67L298.06 288.63L296.5 291.4L295.47 291.41L294.73 294.44L291.25 293.92L286.76 295.03L282.21 293.04L276.41 294.08L274.08 292.23L272.61 292.61L273.13 294.1L271.84 296.21L270.04 294.52L267.67 296.34L266.88 294.34L264.2 296.07L263.41 294.02L258.82 298.86L256.27 295.64L254.58 295.93L254.18 297.34L250.65 297.68L250.26 296.22L248.97 296.53L249.73 295.52L250.37 293.6L247.83 292.71L247.56 289.19L245.43 287.42L242.39 287.45L242.17 285.6L237.86 283.54L237.11 281.84L238.57 277.94L237.96 275.96L233.91 272.2L233.13 268.54L229.32 265.3L228.79 261.02L225.72 258.97L223.65 259.06L224.92 262.03L221.07 261.93L218.29 263.71L215.25 262.5L213.52 263.64L212.18 260L213.07 259.52L212.67 256.31L211.23 256.83L210.27 255.07L207.5 255.83L208.4 253.85L207.64 252.41L206.82 253.27L205.69 252.89L205.91 251.81L203.42 252.17L202.33 249.44L203.28 242.28L207.64 236.17L206.42 235.09L209.27 228.92L209.46 227.26L208.13 226.53L209.78 223.01L209.73 222.49L216.02 224.63L216.82 224.12L215.22 221.6L216 220.13L218.74 221.63L219.35 220.05L224.83 218.39L225.78 217.09L224.82 217.38L224.4 215.57L226.1 213.48L229.21 212.55L228.83 211.55L231.99 208.54L231.65 204.32L232.86 203.63L233.75 205.08L233.92 202.38L235.31 201.89L234.05 199.05L235.03 196.35L233.16 195.89L233.01 193.82L235.06 193.67L235.15 192.3L233.83 192.01L234.98 191.74L235.39 189.91L238.08 189.57L233.18 186.13L234.53 184.93L232.78 181.99L233.53 180.24L231.42 179.58L232.03 178.16L238.01 175.02L240.58 170.8L238.92 168.54L240.19 165.6L234.07 160.07L233.93 156.44L235.93 155.33L236.46 153.59L241.13 152.97H241.99L244.22 150.9L246.38 151.64L246.64 148.95L250.83 150.92L255.39 150.72L257.05 149.47L256.62 146.12L260.7 143.76L260.19 140.51L262.4 139.46Z" fill="#CCCCCC" stroke="white" stroke-width="0.5"/>
<path d="M400.8 61.9901L403.32 63.1201L402.13 64.2201L402.31 66.2701L401.44 65.3901L400.15 67.7501L401.03 69.4901L398.89 73.9501L402.99 77.7601L401.28 80.5101L402.43 83.5301L401.47 85.2401L407.44 84.7901L411.55 87.1801L414.54 91.6301L418.87 91.4701L421.41 94.1501L420.68 96.8801L422.09 95.6201L424.08 96.5401L418.54 101.31L417.4 99.5501L414.44 99.9601L413.6 98.1901L412.32 98.0901L411.39 101.27L411.32 101.65L410.1 103.93L412.26 106.65L412.43 109.1L410.84 110.17L411.84 111.72L409.88 112.41L408.68 116.06L409.98 117.08L409.74 118.33L405.61 120.68L407.31 122.46L405.12 123.99L407.82 131.34L406.2 134.32L408 133.43L409.15 134.19L409.06 136.11L407.41 136.7L409.28 137.33L408.32 139.51L405.08 140.85L404.9 141.03L404.01 143.98L405.05 145.6L403.11 148.36L408.07 151.92L407.62 159.85L410.04 158.79L410.62 161.07L412.61 161.1L416.46 165.3L421.28 166.47L427.11 171.86L423.97 173.85L425.98 174.59L425.35 177.58L427.53 176.03L429.41 176.55L432.08 181.15L433.02 180.04L434.77 181.53L434.26 183.16L436.17 183.64L437.93 185.89L435.89 187.05L435.48 191.46L433.71 192.88L436.56 193.42L437.62 195.45L439.89 196.09L440.34 201.09L442.81 199.66L444.38 202.73L444.36 204.32L442.96 203.93L441.77 206.11L442.02 207.27L439.23 206.82L438.44 209.25L436.34 209.2L435.72 211.77L437.08 213.76L436.33 217.58L432.43 218.35L431.21 216.18L429.47 218.3L424.69 218.21L423.11 222.5L422.4 223.36L420.39 222.23L418.11 224.24L418.43 221.45L414.87 219.61L415.08 217.88L412.55 219.96L409.9 218.62L410.2 216.96L408.88 217.14L408.85 216.02L406.35 217.52L405.95 212.84L404.15 212.52L407.33 210L405.73 206.38H405.18L403.63 203.01L402.23 203.22L401.86 204.54L400.66 203.77L402.06 201.82L401.24 200.57L398.71 200.46L399.73 198.84L399.06 197.77L395.2 196.66L390.16 196.34L388.39 197.74L389.16 200.12L379.19 200.54L378.29 202.79L376.29 202.47L375.53 199.88L374.22 200.17L374.53 201.77L373.07 200.65L372.55 200.93L370.7 202.73L368.62 201.51L367.98 202.78L366.31 201.71L361.76 202.53L362.53 199.41L361.75 198.06L361.15 199.47L359.97 199.21L359.45 197.92L360.81 197.23L358.75 195.43L357.46 190.86L355.32 189.95L355.68 187.88L354.27 187.36L354.62 188.48L352.31 189.48L350.78 186.38L348.64 186.71L350.4 184.16L349.54 183.73L350.3 181.48L348.57 180.53L348.98 179.5L345.51 175.39L343.96 174.78L342.37 175.88L341.79 173.91L340.48 168.3L342.74 167.63L341.44 165.29L344.53 164.43L343.86 162.63L345.9 161.42L345.39 160.49L347.8 159.75L346.17 158.73L346.75 157.89L343.3 158.59L344.01 152.15L340.95 150.88L342.98 148.88L341.32 147.73L344.8 147.4L344.72 145L346.5 141.23L348.26 141.07L348.4 139.51L349.62 139.29L349.08 138.2L352.72 134.8L351.6 132.97L348.88 133.36L348.95 131.89L351.08 130.82L349.53 128.14L350.42 126.19L353.86 126.71L355.66 125.66L355.69 124.25L354.27 124.52L353.61 122.62L352.92 123.24L351.74 122.24L352.75 120.85L351.38 115.85L356.89 113.13L359.94 113.86L360.12 111.61L362.95 109.92L364.44 111.79L367.64 112.88L367.7 107.91L368.97 107.45L367.84 103.54L369.42 102.41L368.19 101.11L369.36 99.4301L367.1 96.1801L367.83 95.1701L370.9 95.4701L371.37 92.5901L373.81 91.2501L376.5 87.5301L374.68 86.0601L376.64 80.3901L376.74 78.1001L375.16 77.4701L375.76 74.5701L378.99 73.9001L384.65 75.9401L390.94 72.7701L394.87 72.2001L394.34 67.6501L395.26 65.7901L400.33 61.0601L400.8 61.9901Z" fill="#CCCCCC" stroke="white" stroke-width="0.5"/>
<path d="M564.37 572.32L565.58 569.64L568.41 569.35L570.2 567.09L565.89 565.62L564.62 566.42L564.34 564.13L561.52 565.22L561.42 564.24L559.52 564.17L562.5 562.17L561.73 560.74L564.21 560.22L564.7 559.06L563.34 558.36L564.9 558.06L564.49 556.26L565.51 555.56L563.23 553.45L562.02 554.85L557.4 555.64L558.04 553.35L556.77 551.67L559.09 551.48L559.58 549.04L563.2 546.97L561.23 543.48L559.54 544.14L557.58 542.23L556.28 542.6L556.46 541.29L555.31 541.62L556.8 540.36L555.45 540.18L556.28 538.27L554.58 536.49L561.01 534.85L559.58 532.85L557.26 532.67L557.7 530.2L555.12 531.09L554.78 528.78L557.45 528.15L557.31 526.48L559.37 526.54L559.09 525.02L560.4 523.53L559.11 522.99L559.85 520.91L562.08 520.37L561.5 517.89L562.31 517.04L562.38 518.35L563.53 517.78L564.93 518.78L565.48 516.04L568.17 515.71L570.88 513.56L574.32 513.86L576.2 512.73L576.09 510.75L578.87 508.77L582.9 508.56L586.09 511.86L588 508.52L587.9 505.2L586.53 503.05L587.81 501.21L587.05 499.28L588.68 497.92L587.8 493.97L591.25 492.99L592.93 494.4L594.15 504.54L592.2 511.96L595.8 519.1L596.88 538.85L596.49 543.98L590.79 552.33L589.74 569.39L587.91 570.13L588.43 570.98L586.5 570.33L585.28 572.11L585.65 573.29L586.92 571.63L589.04 572.22L587.97 574.17L585.08 575.75L585.28 579.41L582.98 580.61L582.4 582.22L584.74 581.4L584.49 582.21L582.89 584.82L581.18 584.95L580.23 583.4L577.59 583.3L578.72 580.9L576.62 580.54L577.01 578.51L575.35 579.86L573.65 578.02L573.02 578.91L570.4 578.07L568.57 576.13L567.18 576.49L567.64 574.88L564.88 574.39L565.59 573.33L564.37 572.32Z" fill="#CCCCCC" stroke="white" stroke-width="0.5"/>
<path d="M444.379 202.73L446.389 199.55L447.519 200.12L446.179 201.98L447.079 202.12L449.289 200.85L450.829 197.94L454.789 196.96L454.889 197.03L455.349 200.23L457.649 202.04V202.36L465.329 200.59L467.239 201.76L469.019 205.23L474.209 201.5L475.989 204.1L483.849 209.16L485.099 211.59L488.169 212.3L492.179 215.26L492.569 218.4L490.889 222.67L494.239 223.24L496.609 227.42L496.169 228.75L489.959 229.3L490.739 231.78L488.179 233.05L485.639 237.95L491.339 236.72L492.689 237.37L492.969 239.11L491.089 239.67L490.519 241.5L488.299 241.96L488.809 244.68L484.079 249L484.809 249.43L483.979 250.39L478.329 254.46L479.009 256.35L474.939 259.87L469.769 261L467.069 263.8L468.409 266.17L467.029 270.81L467.919 273.06L453.729 285.02L455.649 286.91L452.159 291.87L451.829 294.67L443.729 303.74L437.739 303.97L437.259 301.07L434.469 300.18L434.319 298.95L429.999 303.51L427.289 303.76L427.359 300.69L425.769 300.7L425.239 298.75L424.389 300.99L422.629 297.41L423.279 296.69L420.049 294.84L420.689 292.85L421.079 291.84L424.949 291.01L425.109 289.48L422.549 288.44L422.499 285.88L424.409 284.71L424.059 282.98L425.949 281.34L424.029 278.49L423.919 275.87L422.589 275.79L423.859 273.34L421.209 270.62L426.959 269.1L424.339 267.41L424.199 265.96L421.299 266.26L419.839 263.1L418.599 263.76L418.199 260.76L420.849 258.65L419.069 257.81L419.419 256.45L423.619 254.44L425.869 250.65L425.849 250.34L427.889 241.89L429.189 241L427.259 240.19H427.119L428.209 238.69L427.729 235.5L427.569 235.4L425.849 235.52H425.589L425.859 231.98L422.879 231.12L424.589 230.34L423.739 230.1L424.219 229.01L426.269 229.09L428.289 225.55L425.969 220.97L424.039 223.14L423.109 222.5L424.689 218.21L429.469 218.3L431.209 216.18L432.429 218.35L436.329 217.58L437.079 213.76L435.719 211.77L436.339 209.2L438.439 209.25L439.229 206.82L442.019 207.27L441.769 206.11L442.959 203.93L444.359 204.32L444.379 202.73Z" fill="#CCCCCC" stroke="white" stroke-width="0.5"/>
<path d="M270.789 121.07L272.289 121.55L271.769 123.41L272.149 123.4L272.899 124.63L274.929 124.01L278.239 125.44L283.169 124.61L286.449 122.43L290.169 125.39L292.159 124.39L292.759 126.17L294.939 125.63L296.109 123.94L297.929 126.37L298.649 125.63L301.349 126.46L301.109 127.28L302.179 126.81L303.999 128.27L303.439 128.99L305.179 129.4L306.019 127.84L307.309 130.66L309.359 128.85L313.559 131.85L316.639 129.58L318.449 131.25L323.309 129.91L324.089 131.2L324.979 129.91L327.369 130.31L327.509 128.3L330.349 128.99L332.509 132.53L331.539 134.92L335.019 137.43L335.569 139.55L337.239 138.93L338.239 141.49L339.839 140.21L340.479 143.76L343.079 144.49L343.719 145.92L344.719 145L344.799 147.4L341.319 147.73L342.979 148.88L340.949 150.88L344.009 152.15L343.299 158.59L346.749 157.89L346.169 158.73L347.799 159.75L345.389 160.49L345.899 161.42L343.859 162.63L344.529 164.43L341.439 165.29L342.739 167.63L340.479 168.3L341.789 173.91L340.189 173.3L339.729 175.02L338.529 175.18L330.429 175L328.889 176.48L326.559 175.83L325.229 179.21L326.559 182.65L324.779 185.31L321.999 186.77L321.989 188.03L319.049 188.46L317.109 190.09L316.259 187.68L314.759 188.63L313.659 187.8L314.399 189.13L312.379 190.49L306.309 189.4L301.509 190.46L303.149 187.93L304.579 187.78L304.559 184.14L300.679 182.04L299.869 178.56L297.989 179.05L296.689 177.48L295.699 178.36L295.479 178.77L293.259 179.63L293.279 177.55L291.509 176.79L290.609 178.83L289.379 178.54L289.869 179.63L281.939 180.28L281.329 178.92L282.589 175.62L282.149 173.25L280.089 172.97L280.189 169.79L277.679 170.83L274.849 169.19L273.779 166.28L274.249 163.76L271.009 162.29L271.259 159.95L269.229 159.97L266.579 156.78L266.999 155.29L265.539 154.41L267.609 151.65L265.729 150.75L266.429 145.82L264.249 143.88L264.969 142.61L262.399 139.46L262.039 137.77L263.139 137.05L261.119 137.22L261.459 134.81L260.199 132.32L261.869 132.5L262.749 130.3L263.199 131.32H263.419L267.419 130.3L270.789 121.07Z" fill="#CCCCCC" stroke="white" stroke-width="0.5"/>
<path d="M323.85 399.32L326.23 395.18L326.52 390.26L327.61 388.07L328.71 388.3L328.9 386.43H329.14L330.06 384.22L332.56 386.62L334.4 385.15L334.64 382.36L336.46 382.87L340 380.05L341.83 382L341.9 384.55L344.44 389.73L349.03 388.77L349.23 385.87L350.74 385.55L352.54 386.99L352.27 388.61L355.46 388.07L356.19 390.25L358.2 392.36L359.59 391.92L359.29 393.34L360.36 393.55L362.09 402.26L364.15 403.63L365.63 409.35L368.98 413.22L367.8 414.03L368.12 418.21L371.52 417.19L376.81 421.33L379.68 417.09L382.41 416.62L382.56 419.86L384.32 420.28L384.95 417.09L387.11 416.78L393.09 421.01L394.07 424.19L395.49 424.26L396.08 425.81L396.04 431.91L398.78 432.82L401.19 437.23L399.92 437.29L399.93 438.73L392.77 444.27L393.84 445.52L391.57 452.35L392.2 454.64L388.55 453.4L386.28 453.97L383.81 458.16L385.71 458.82L385.28 460.14L379.96 463.22L379.13 462.11L379.54 463.66L376.14 465.31L375.7 467.56L371.74 466.09L371.08 464.76L371.91 463.47L370.58 462.28L364.98 462.7L354.7 470.98L351.35 471.95L345.65 478.55L345.85 477.56L345.58 478.48L338.43 477.31L338.8 478.51L332.13 483.93L328.05 490.52L326.48 495.69L327.18 498.32L325.86 510.39L326.62 519.59L330.51 520.94L330.05 522.83L331.88 525.49L328.21 526.01L326.32 523.34L323.26 523.77L322.43 522.83L321.21 524.28L317.96 524.14L315.42 526.77L313.56 526.09L311.12 527.18L310.17 528.21L311 530.78L307.05 529.79L305.12 531.22L303.12 530.81L301.08 527.83L293.77 525.33L291.47 526.58L289.56 526.14L286.65 529.57L283.79 530.36L281.59 528.45L280.37 524.49L278.15 524.7L275.75 522.57L271.83 522.12L272.22 518.71L274.22 517.67L277.65 517.32L278.96 515.35L281.99 515.25L283 512.76L289.89 512.65L290.43 511.64L286.62 507.68L283.27 508.69L279.5 507.31L280.02 506.32L277.24 503.63L277.91 501.99L282.53 500.97L282.27 497.63L280.36 496.91L281.34 495.67L283.37 495.76L281.83 493.17L282.49 491.78L280.67 490.76L281.57 489.77L281.11 487.27L279.57 486.11L278.52 487.12L276.91 484.61L276.9 485.4L274.11 485.08L270.97 482.87L271.63 480.95L270.16 478.19L272.09 475.87L271.53 474.31L275.32 474.33L274.82 471.41L276.92 468.56L278.68 471.21L279.64 469.79L279.88 469.81L282.58 470.48L284.6 468.94L286.06 471.21L290.12 470.03L291.96 471.89L292.24 469.17L293.76 467.56L299.5 470.04L300.97 468.93L308.26 469.2L310.77 466.97L311.03 464.35L308.59 461.46L309.84 456.11L312.93 456.98L314.39 458.73L320.66 456.41L321.33 454.41L323.93 453.32L327.08 454.24L327.2 446.11L333.42 447.31L334.91 446.4L334.33 444.5L335.55 442.68L338.83 442.71L339.43 439.54L342.88 436.69L343.16 435.17L340.69 433.31L339.14 433.78L338.24 432.16L336.76 432.74L335.45 431.3L337.92 430.43L338.46 427.54L340.03 426.89L339.61 425.09L333.06 425.68L334.14 423.34L331.26 422.51L330.89 420.75L329.59 421.49L330.97 418.85L329.53 415.66L330.57 411.32L327.33 407.58L328.12 404.31L323.85 399.32ZM280.92 524.1L283.14 524.69L282.14 522.46L280.92 524.1Z" fill="#CCCCCC" stroke="white" stroke-width="0.5"/>
<path d="M248.971 296.53L250.261 296.22L250.651 297.68L254.181 297.34L254.581 295.93L256.271 295.64L258.821 298.86L263.411 294.02L264.201 296.07L266.881 294.34L267.671 296.34L270.041 294.52L271.841 296.21L273.131 294.1L272.611 292.61L274.081 292.23L276.411 294.08L282.211 293.04L286.761 295.03L291.251 293.92L294.731 294.44L295.021 296.74L296.951 297.29L295.641 299.03L298.241 301L299.191 299.73L300.591 302.63L301.011 301.85L303.121 302.81L306.591 310.27L305.941 314.4L308.081 317.45L308.491 321.2L306.531 322.11L306.211 324.67L303.551 327.63L302.231 327.45L302.051 327.49L299.221 329.92L304.841 336.75L304.761 340.78L303.281 340.86L302.251 343.51L304.591 345.98L303.331 353.96L305.021 355.56L303.041 356.86L297.561 354.39L298.021 358.82L291.141 365.6L291.421 367.97L292.731 368.9L290.541 370.57L290.271 373.79L287.181 375.09L289.021 378.52L287.641 379.67L287.291 379.58L285.641 380.01L282.511 380.11L280.941 381.39L279.291 379.91L274.891 383.12L272.751 382.27L268.431 376.93L264.251 376.86L263.931 375.84L260.191 377.42L257.281 372.41L258.691 371.25L254.391 370.77L252.181 368.86L252.391 368.83L253.601 367.51L251.051 366.59L253.131 363.67L251.031 362.59L251.421 359.68L252.601 359.62L255.061 356.33L252.241 354.96L253.771 353.13L246.601 350.63L248.491 347.68L246.391 346.38L245.131 347.37L242.331 342.66L237.311 343.23L236.131 341.95L233.781 344.78L231.261 342.25L232.231 339.31L229.991 337.64L227.181 338.07L226.221 336.78L229.731 333.69L229.601 331.2L232.541 331.95L234.361 326.53L233.741 323.63L236.651 324.16L239.351 321.33L238.431 318.92L236.751 317.59L235.671 318.42L233.851 316.51L234.701 313.78L233.681 312.17L235.221 311.33L232.981 306.85L235.391 305.73L237.531 302.3L241.811 302.8L243.591 297.86L246.971 298.76L248.111 296.24L248.971 296.53Z" fill="#CCCCCC" stroke="white" stroke-width="0.5"/>
<path d="M425.019 97.55L426.549 99.66L427.269 104.11L430.749 102.06L433.029 103.51L434.309 100.78L438.609 101.5L439.739 99.95L442.399 101.26L443.709 104.06L447.759 104.4L448.399 107.11L450.889 107.33L452.189 106.09L453.309 106.95L454.429 104.43L459.069 103.1L464.289 106.54L466.949 105.49L472.259 108.99L471.559 110.2L474.099 112.53L472.699 113.71L476.969 117.97L476.589 119.31L477.779 119.89L478.049 122.03L479.219 121.88L478.719 123.84L479.839 125.3L483.859 126L484.959 124.25L483.969 122.23L488.129 121.59L492.079 123.63L492.799 128.49L494.779 125.86L497.179 128.1L500.869 127.5L502.859 128.45L504.199 126.64L505.709 126.66L505.809 124.88L509.119 124.11L508.749 125.31L511.169 125.04L512.589 129.55L516.879 131.08L517.109 132.3L514.689 138.39L512.959 139.94L509.439 137.67L504.199 139.25L502.739 138.48L502.879 137.33L495.899 135.31L494.729 130.8L493.449 131.56L491.989 138.45L490.249 138.13L489.759 139.9L488.319 139.89L488.769 142.4L492.669 143.59L492.749 144.57L494.599 144.35L492.769 145.51L492.809 147.28L494.349 147.56L493.899 149.25L495.899 148.15L497.019 145.43L501.449 146.88L500.999 147.78L503.729 150.33L500.729 155.05L501.689 156.91L503.309 157.06L499.729 163.8L497.519 165.35L493.359 165.55L496.219 167.21L494.379 166.85L495.519 168.67L494.179 173.42L495.149 174.71L493.809 176.28L495.509 177.47L498.129 177.07L498.929 178.9L493.129 189.16L493.849 191.38L490.669 196.84L488.319 198.19L486.989 203.16L487.709 203.75L486.349 204.92L487.309 207.45L483.849 209.16L475.989 204.1L474.209 201.5L469.019 205.23L467.239 201.76L465.329 200.59L457.649 202.36V202.04L455.349 200.23L454.889 197.03L454.789 196.96L450.829 197.94L449.289 200.85L447.079 202.12L446.179 201.98L447.519 200.12L446.389 199.55L444.379 202.73L442.809 199.66L440.339 201.09L439.889 196.09L437.619 195.45L436.559 193.42L433.709 192.88L435.479 191.46L435.889 187.05L437.929 185.89L436.169 183.64L434.259 183.16L434.769 181.53L433.019 180.04L432.079 181.15L429.409 176.55L427.529 176.03L425.349 177.58L425.979 174.59L423.969 173.85L427.109 171.86L421.279 166.47L416.459 165.3L412.609 161.1L410.619 161.07L410.039 158.79L407.619 159.85L408.069 151.92L403.109 148.36L405.049 145.6L404.009 143.98L404.899 141.03L405.079 140.85L408.319 139.51L409.279 137.33L407.409 136.7L409.059 136.11L409.149 134.19L407.999 133.43L406.199 134.32L407.819 131.34L405.119 123.99L407.309 122.46L405.609 120.68L409.739 118.33L409.979 117.08L408.679 116.06L409.879 112.41L411.839 111.72L410.839 110.17L412.429 109.1L412.259 106.65L410.099 103.93L411.319 101.65L411.389 101.27L412.319 98.09L413.599 98.19L414.439 99.96L417.399 99.55L418.539 101.31L424.079 96.54L425.019 97.55Z" fill="#CCCCCC" stroke="white" stroke-width="0.5"/>
<path d="M195.469 476.05L195.709 476.21L196.739 478.73L195.009 479.97L194.229 478.22L195.039 476.29L195.329 476.07L195.469 476.05ZM196.689 472.63L196.929 476.2L196.239 476.03L195.239 475.07L196.449 474.58L196.289 472.43L196.689 472.63ZM260.189 377.42L263.929 375.84L264.249 376.86L268.429 376.93L272.749 382.28L274.889 383.13L279.289 379.92L280.939 381.4L282.519 380.12L285.639 380.02L287.359 383.25L286.869 385.99L290.209 390.93L288.469 396.29L289.689 396.34L290.179 399.66L291.569 400.87L292.099 398.99L295.349 397.93L296.669 397.81L297.729 399.55L303.189 398.96L303.839 396.74L306.359 394.93L305.939 392.99L308.039 390.73L308.209 387.6L313.709 382.02L315.259 383.73L315.199 387.01L318.799 385.93L319.989 390.89L321.329 390.63L322.019 391.77L320.959 392.51L322.009 397.25L323.869 399.31L328.179 404.26L327.389 407.53L330.629 411.27L329.589 415.61L331.029 418.8L329.649 421.44L330.949 420.7L331.319 422.46L334.199 423.29L333.119 425.63L339.669 425.04L340.089 426.84L338.519 427.49L337.979 430.38L335.509 431.25L336.819 432.69L338.299 432.11L339.199 433.73L340.749 433.26L343.219 435.12L342.939 436.64L339.489 439.49L338.889 442.66L335.609 442.63L334.389 444.45L334.969 446.35L333.479 447.26L327.259 446.06L327.139 454.19L323.989 453.27L321.389 454.36L320.719 456.36L314.449 458.68L312.989 456.93L309.899 456.06L308.649 461.41L311.089 464.3L310.829 466.92L308.319 469.15L301.029 468.88L299.559 469.99L293.819 467.51L292.299 469.12L292.019 471.84L290.179 469.98L286.119 471.16L284.659 468.89L282.639 470.43L279.939 469.76L279.699 469.74L278.739 471.16L276.979 468.51L274.879 471.36L275.379 474.28L271.589 474.26L272.149 475.82L270.219 478.14L271.689 480.9L271.029 482.82L274.169 485.03L276.959 485.35L276.969 484.56L278.579 487.07L279.629 486.06L281.169 487.22L281.629 489.72L280.729 490.71L282.549 491.73L281.889 493.12L283.429 495.71L281.399 495.62L280.419 496.86L282.329 497.58L282.589 500.92L277.969 501.94L277.299 503.58L280.079 506.27L279.559 507.26L283.329 508.64L286.679 507.63L290.489 511.59L289.949 512.6L283.059 512.71L282.049 515.2L279.019 515.3L277.709 517.27L274.279 517.62L274.519 516.85L271.749 516.72L272.159 515.22L266.489 514.67L264.469 513.03L261.539 513.26L261.449 515.36L259.779 516L256.429 509.46L251.219 508.98L248.679 510.06L244.939 505.57L240.979 505.67L239.999 504.59L238.579 505.52L229.529 501.43L227.479 502.69L227.939 504.61L226.889 505.84L227.789 506.27L226.769 507.42L228.259 509.02L228.159 511.01L224.899 510.19L217.639 511.03L215.049 509.16L212.319 512.01L210.879 509.63L207.419 508.44L200.019 511.37L197.749 510.96L197.259 509.54L195.449 509.07L193.459 505.01L192.319 505.63L187.129 502.11L186.539 498.28L188.459 497.34L188.179 493.31L189.309 491.51L192.659 490.68L192.119 487.15L194.069 486.32L195.259 483.42L197.319 483.59L197.099 480.98L198.089 481.22L199.419 478.27L198.219 476.51L201.369 473.96L199.989 472.48L200.109 468.32L197.349 470.28L197.409 467.31L199.379 466.8L197.389 462.47L196.259 462.74L196.139 460.54L192.789 459.72L190.239 460.5L189.879 458.61L188.539 458.46L188.449 457.05L190.099 456.38L189.779 453.38L192.069 451.66L190.749 447.6L192.119 447.5L191.489 444.76L192.409 444.15L190.199 442.47L192.689 440.08L196.159 440.7L198.629 437.49L200.419 439.23L199.269 440.66L202.589 442.55L203.299 441.37L202.449 438.8L205.409 436.48L206.639 438.14L208.099 435.71L209.729 435.31L212.619 437.11L213.209 436.03L218.519 434.9L219.299 433.33L223.239 433.38L224.779 431.93L227.719 435.15L230.889 433L231.619 430.37L233.339 430.16L232.969 428.29L235.999 429.27L237.329 428.62L236.969 426.48L235.639 425.96L237.849 425.58L239.679 420.76L236.299 418.7L237.419 414.6L238.419 414.43L239.289 416.68L239.729 415.73L244.279 415.5L244.039 411.97L242.469 410.93L242.449 407.38L240.979 405.22L242.379 405.63L246.069 403.52L245.669 402.35L248.119 399.71L247.869 397.91L250.999 397.11L254.819 393.82L254.089 390.57L256.899 389.69L256.729 387.79L259.979 385.71L258.819 383.85L260.019 383.5L258.849 379.01L258.679 378.32L260.189 377.42Z" fill="#CCCCCC" stroke="white" stroke-width="0.5"/>
<path d="M306.409 3.24L306.939 6.7L309.349 10.33L307.619 12.15L308.009 16.75L309.489 19.19L313.129 19.33L316.089 24.97L318.259 25.07L320.739 27.08L322.649 23.17L330.889 20.68L332.549 24.92L335.429 26.46L334.539 29.31L336.709 38.02L340.219 40.18L343.179 39.18L344.319 37.44L346.149 38.07L345.389 40.43L349.869 39.86L352.029 42.42L351.959 48.05L354.029 52.23L355.669 49.24L359.929 49.18L362.079 50.81L367.169 48.73L369.319 51.85L371.009 52.33L371.869 55.28L373.099 55.26L372.899 53.26L374.819 54.37L375.349 55.62L372.429 58.2L372.609 61.42L371.509 63.33L374.489 63.37L375.739 67.48L372.829 68.84L372.069 73.25L369.749 73.93L365.319 72.37L365.389 69.1L361.459 71.34L360.819 69.52L354.279 67.44L352.169 68.47L351.989 70.02L350.099 70.31L347.189 68.4L344.989 70.76L339.709 69.56L338.289 70.9L336.149 71L335.359 69.83L331.779 71.18L328.529 68.52L325.209 68.11L323.409 69.24L321.299 68.76L318.959 70.6L318.699 66.93L314.109 69.1L315.489 64.75L313.369 63.81L312.439 63.74L312.289 66.7L306.979 64.63L307.059 62.9L306.009 62.73L305.209 64.59L304.439 62.84L303.049 63.01L300.459 66.3L298.689 64.87L299.179 62.03L303.619 59.39L301.809 57.07L299.939 56.8L297.959 58.62L296.869 56.52L296.649 58.2L294.279 57.18L289.269 59.67L288.439 58.42L286.599 59L286.229 55.67L280.819 53.36L280.219 52.61L281.609 51.18L280.859 50.56L279.249 51.83L274.949 48.64L269.149 50.64L268.179 49.2L264.539 46.06L265.879 37.1L267.889 38.73L265.449 35.08L264.879 24.85L265.049 23.89L265.429 25.46L266.179 24.43L266.999 19.76L265.649 15.34L268.979 14.36L272.449 10.53L277.679 8.83L276.459 8.6L286.999 5.88L287.529 6.56L289.729 4.3L289.269 5.48L290.549 6.7L291.239 4.3L291.579 5.07L297.739 2.96L298.889 3.79L305.689 1L306.409 3.24Z" fill="#CCCCCC" stroke="white" stroke-width="0.5"/>
<path d="M119.78 89.51L121.76 90.84L123.22 90.08L124.36 91.83L132.93 93.86L132.73 95.34L133.25 93.93L138.28 93.22L138.86 91.38L147.5 91.43L149 97.14L147.92 96.76L147.19 99.42L147.21 98.53L146.14 98.73L145.66 100.94L151.59 109.9L150.14 114.52L152.09 112.74L153.71 113.93L155.42 111.01L159.96 110.53L168.68 113.61L183.68 114.62L188.45 117.19L189.94 116.66L190.8 117.95L199.99 115.15L205.32 110.29L209.33 108.6L204.65 108.4L211.89 108.29L213.58 114.19L212.36 115.72L213.52 116.95L212.94 117.78L215.15 116.91L216.02 117.65V119L213.4 120.01L216.47 122.4L216.08 125.98L218.07 126.79L216.72 128.97L217.51 130.92L215.34 132.35L218.68 134.69L216.03 141.23L218.9 143.33L222.96 143.61L224.2 142.44L224.57 143.76L225.65 143.39L225.43 144.84L226.52 144.86L225.4 146.26L231.52 150.34L232.18 152.2L230.27 154.13L232 154.86L232.08 156.48L233.94 156.45L234.09 160.08L240.21 165.61L238.94 168.55L240.6 170.8L238.04 175.03L232.05 178.17L231.44 179.59L233.55 180.24L232.8 181.99L234.55 184.93L233.2 186.13L230.72 186.5L227.22 181.8L226.61 183.71L222.32 182.73L220.41 178.91L219.99 179.63L216.37 178.18L215.96 171.76L212.58 168.26L206.09 169.71L206.61 170.71L203.05 172.76L202.5 174.69L200.05 173.46L197.97 174.88L197.98 170.1L193.99 169.74L192.87 166.39L194.04 165.3L191.47 163.07L189.73 163.03L190.05 164.78L188.8 166.59L186.73 165.65L185.4 168.04L183.59 166.43L178.89 166.49L177.18 168.73L173.02 170.54L172.52 167.97L171.47 169.03L169.75 168.71L170.45 170.18L168.53 171.05L167.75 169.22L166.3 169.85L164.99 167.1L162.35 167.27L160.41 165.98L158.4 167.73L155.68 166.55L148.05 164.32L143.89 169.01L141.09 169.51L138.3 167.75L134.84 158.66L137.31 159.56L137.36 158.46L138.21 159.39L140.9 158.13L143.89 158.79L141.48 157.11L142.53 156.08L139.99 157.36L134.94 151.6L134.76 146.9L133.1 146.06L136.15 139.97L135.24 139.38L135.45 134.01L137.65 134.39L135.33 133.27L134.59 135.67L133.69 133.26L133.07 121.89L135.01 121.7L133.06 120.88L132.55 122.45L129.21 114.88L124.95 112.08L123.36 103.72L121.71 101.79L123.67 99.44L123.34 95.59L122.23 93.81L119.24 92.79L119.78 89.51Z" fill="#CCCCCC" stroke="white" stroke-width="0.5"/>
<path d="M257.27 67.8099L260.23 67.4399L260.38 69.4099L271.16 79.2399L272.08 83.8499L274.23 87.2199L272.71 87.1599L270.21 91.5499L270.92 92.4499L272.8 91.5499L270.55 94.7899L271.54 96.1299L270.69 98.7399H270.51L272.68 101.57L271.39 103.76L272.53 104.68L273.14 103.26L274.42 103.76L273.66 105.92L273.26 106.18L271.25 109.9L272.32 110.01L271.56 110.79L273.2 112.53L273.67 117.27L274.98 118.36L274.36 120.17L273.07 118.5L271.05 118.99L270.82 121.08L267.44 130.31L263.44 131.33L263.22 131.34L262.77 130.32L261.89 132.53L260.22 132.35L261.48 134.84L261.14 137.24L263.16 137.08L262.05 137.8L262.42 139.49L260.21 140.54L260.72 143.8L256.64 146.15L257.07 149.5L255.41 150.76L250.85 150.96L246.65 148.99L246.4 151.68L244.24 150.94L242.01 153.01H241.15L236.48 153.62L235.95 155.36L233.95 156.48L232.09 156.51L232.01 154.89L230.28 154.16L232.19 152.23L231.53 150.37L225.41 146.29L226.53 144.89L225.44 144.87L225.66 143.42L224.58 143.79L224.21 142.47L222.97 143.64L218.91 143.36L216.04 141.26L218.69 134.72L215.35 132.38L217.52 130.95L216.73 129L218.08 126.82L216.09 126.01L216.48 122.43L213.41 120.04L216.03 119.03V117.68L215.16 116.94L212.95 117.81L213.53 116.98L212.37 115.75L213.59 114.22L211.9 108.32L212.31 107.19L211.33 107.95L204.8 105.94L202.82 103.4L206.41 94.7399L205.2 93.1299L206.51 93.7299L208.66 90.3799L214.05 88.2199L224.42 81.1799L232.14 79.9999L239.91 76.7099L242.36 77.4199L245.07 76.1999L245.49 77.3399L245.22 76.0799L249.67 73.9599L257.27 67.8099Z" fill="#CCCCCC" stroke="white" stroke-width="0.5"/>
<path d="M106.38 257.7L108.02 258.85L107.43 260.9L110.54 262.47L110.84 265.78L108.41 261.93L106.2 261.84L104.59 259.91L104.31 257.88L106.38 257.7ZM155.64 166.56L158.36 167.74L160.37 165.99L162.31 167.28L164.95 167.11L166.26 169.86L167.71 169.23L168.49 171.06L170.41 170.19L169.71 168.72L171.43 169.04L172.48 167.98L172.98 170.55L177.14 168.74L178.85 166.5L183.55 166.44L185.36 168.05L186.69 165.66L188.76 166.6L190.01 164.79L189.69 163.04L191.43 163.08L194 165.31L192.83 166.4L193.95 169.75L197.94 170.11L197.93 174.89L200.01 173.47L202.46 174.7L203.01 172.77L206.57 170.72L206.05 169.72L212.54 168.27L215.92 171.77L216.33 178.19L219.95 179.64L220.37 178.92L222.28 182.74L226.57 183.72L227.18 181.81L230.68 186.51L233.16 186.14L238.06 189.58L235.37 189.92L234.97 191.75L233.81 192.02L235.13 192.31L235.04 193.69L232.99 193.84L233.14 195.91L235 196.37L234.02 199.07L235.28 201.91L233.89 202.4L233.72 205.1L232.83 203.65L231.63 204.34L231.96 208.57L228.8 211.58L229.19 212.58L226.08 213.51L224.38 215.6L224.8 217.41L225.76 217.12L224.82 218.42L219.33 220.07L218.72 221.65L215.98 220.15L215.2 221.62L216.8 224.14L215.99 224.66L209.71 222.52L209.76 223.04L208.11 226.56L209.44 227.28L209.25 228.95L206.4 235.11L207.62 236.2L203.26 242.31L202.31 249.47L200.83 248.8L199.73 249.71L198.52 254.19L196.44 253.33L194.65 256.16L192.58 255.18L194.1 253.16L192.38 252.86L191.53 253.72L188.99 253.02L183.56 253.9L183.1 255.39L180.04 256.2L180.94 254.49L179.48 254.37L176.92 255.55L177.45 257.47L175.16 259.63L172.2 259.25L170.37 260.42L167.35 259.12L164.65 261.28L162.84 261L164.19 261.76L163.58 262.74L164.84 262.78L164.36 263.44L166.51 264.25L165.55 266.44L167.86 269.16H168.03L169.68 270.27H169.97L171.06 270.98L170.23 271.75L170.27 272L170.17 274.25L172.81 277.58L171.84 278.42L173.61 279.8L172.71 281.43L174.49 282.31L173.95 285.09L174.92 287.68L173.11 288.4L174.74 292.34L173.38 295.79L174.25 296.17L174.86 294.83L177.62 296.57L173.13 300.66L171.04 300.15L170.04 301.55L165.66 299.43L165.48 299.17L164.7 300.65L163.18 300.09L161.32 301.08L160.09 300.34L161.4 297.43L156.26 298.7L155.38 300.65L153.68 300.69L150.12 300.79L149.95 303.49L145.4 299.65L146.24 302.22L144.25 299.16L139.09 299.15L137.15 295.46L131.57 294.49L124.74 290L122.94 283L119.16 277.72L111.1 270.21L110.69 266.13L112.41 265.98L112.04 264.95L115.62 261.32L115.82 258.87L117.92 257.66L112.9 252.43L106.78 251.34L110.14 249.17L109.93 243.34L108.26 242.98L104.62 245.26L101.46 242.49L99.1303 243.71L94.4303 241.77L95.9303 240.65L96.0503 238.84L93.8203 236.64L98.0003 233.63L98.0203 232.14L99.4503 230.37L100.35 231.64L103.85 231.35L104.63 227.97L106.86 229.3L109.35 228.19L110.24 229.59L110.5 227.64L112.96 226.95L113.64 219.77L118.15 217.07L118.91 218.45L122.85 216.16L131.16 216.1L132.73 212.78L138.92 210.35L138.68 208.36L142.44 208.8L143.47 210.59L148.31 211.98L152.11 200.36L157.86 197.99L155.45 185.73L155.28 185.57L154.35 181.66L156.67 177.76L155.18 172.41L155.64 166.56Z" fill="#CCCCCC" stroke="white" stroke-width="0.5"/>
<path d="M267.631 48.73L268.221 49.2L269.191 50.64L274.991 48.64L279.291 51.83L280.901 50.56L281.651 51.18L280.261 52.61L280.861 53.36L286.271 55.67L286.641 59L288.481 58.42L289.311 59.67L294.321 57.18L296.691 58.2L296.911 56.52L298.001 58.62L299.981 56.8L301.851 57.07L303.661 59.39L299.221 62.03L298.731 64.87L300.501 66.3L303.091 63.01L304.481 62.84L305.251 64.59L306.051 62.73L307.101 62.9L307.021 64.63L312.331 66.7L312.481 63.74L313.411 63.81L315.531 64.75L314.151 69.1L318.741 66.93L319.001 70.6L321.341 68.76L323.451 69.24L325.251 68.11L328.571 68.52L331.821 71.18L335.401 69.83L336.191 71L338.331 70.9L339.751 69.56L345.031 70.76L347.231 68.4L350.141 70.31L352.031 70.02L352.211 68.47L354.321 67.44L360.861 69.52L361.501 71.34L365.431 69.1L365.361 72.37L369.791 73.93L372.111 73.25L375.811 74.57L375.211 77.46L376.791 78.1L376.691 80.39L374.731 86.06L376.551 87.53L373.861 91.24L371.411 92.58L370.951 95.46L367.871 95.16L367.141 96.17L369.401 99.42L368.231 101.1L369.451 102.4L367.881 103.53L369.011 107.44L367.741 107.9L367.681 112.87L364.471 111.78L362.991 109.92L360.161 111.61L359.981 113.86L356.931 113.13L351.431 115.85L352.791 120.85L351.791 122.24L352.961 123.24L353.651 122.61L354.321 124.52L355.741 124.25L355.711 125.66L353.901 126.71L350.461 126.2L349.571 128.15L351.121 130.83L348.991 131.9L348.921 133.37L351.641 132.98L352.771 134.8L349.131 138.21L349.671 139.29L348.451 139.52L348.311 141.08L346.551 141.24L344.781 145L343.781 145.92L343.131 144.49L340.531 143.76L339.891 140.21L338.281 141.48L337.281 138.92L335.611 139.54L335.061 137.42L331.571 134.91L332.541 132.52L330.381 128.98L327.541 128.29L327.401 130.3L325.011 129.9L324.121 131.2L323.341 129.9L318.491 131.25L316.681 129.58L313.591 131.84L309.401 128.84L307.351 130.65L306.061 127.83L305.221 129.39L303.481 128.98L304.041 128.26L302.231 126.8L301.151 127.27L301.401 126.45L298.701 125.62L297.981 126.35L296.161 123.93L294.991 125.62L292.811 126.16L292.211 124.38L290.221 125.38L286.501 122.42L283.221 124.61L278.291 125.43L274.991 124.01L272.961 124.63L272.211 123.4L271.831 123.41L272.351 121.55L270.851 121.07L271.081 118.98L273.101 118.49L274.391 120.16L275.011 118.35L273.701 117.26L273.231 112.52L271.591 110.78L272.351 110L271.281 109.89L273.291 106.17L273.691 105.91L274.451 103.75L273.171 103.25L272.561 104.67L271.421 103.75L272.711 101.56L270.541 98.73H270.721L271.571 96.12L270.581 94.78L272.831 91.54L270.951 92.44L270.241 91.54L272.741 87.15L274.261 87.21L272.111 83.84L271.191 79.23L260.411 69.4L260.261 67.43L257.301 67.8L260.381 64.95L263.311 58.59L265.221 57.96L266.021 59.88L268.981 60.67L270.191 59.79L263.991 54.23L264.671 48.58L267.631 48.73Z" fill="#CCCCCC" stroke="white" stroke-width="0.5"/>
<path d="M141.64 316.7L145.46 319.91L148.68 320.52L148.75 323.8L150.82 327.91L148.97 331.49L147.39 326.66L142.5 322.32L141.64 316.7ZM137.35 304.18L138.87 305.58L136.93 305.86L137.73 307.37L141.39 305.81L140.29 306.8L140.88 307.54L143.37 307.09L148.12 309.85L145.72 311.04L139.39 307.5L136.41 307.51L135.24 305.02L137.35 304.18ZM153.72 300.64L155.42 300.6L156.3 298.65L161.44 297.38L160.13 300.29L161.36 301.03L163.22 300.04L164.74 300.6L165.52 299.12L165.7 299.38L170.08 301.5L171.08 300.1L173.17 300.61L177.66 296.52L174.9 294.78L174.29 296.12L173.42 295.74L174.78 292.29L173.15 288.35L174.96 287.63L173.99 285.04L174.53 282.26L172.75 281.38L173.65 279.75L171.88 278.37L172.85 277.53L170.21 274.2L170.31 271.95L170.27 271.7L171.1 270.93L170.01 270.22H169.72L168.07 269.11H167.9L165.59 266.39L166.55 264.2L164.4 263.39L164.88 262.73L163.62 262.69L164.23 261.71L162.88 260.95L164.69 261.23L167.39 259.07L170.41 260.37L172.24 259.2L175.2 259.58L177.49 257.42L176.96 255.5L179.52 254.32L180.98 254.44L180.08 256.15L183.14 255.34L183.6 253.85L189.03 252.97L191.57 253.67L192.42 252.81L194.14 253.11L192.62 255.13L194.69 256.11L196.48 253.28L198.56 254.14L199.77 249.66L200.87 248.75L202.35 249.42L203.44 252.15L205.93 251.79L205.71 252.87L206.84 253.25L207.66 252.39L208.42 253.83L207.52 255.81L210.29 255.06L211.25 256.82L212.69 256.3L213.08 259.51L212.2 260L213.54 263.63L215.27 262.49L218.31 263.7L221.1 261.92L224.94 262.02L223.68 259.05L225.75 258.97L228.82 261.02L229.35 265.29L233.16 268.53L233.94 272.19L237.99 275.95L238.59 277.93L237.13 281.83L237.88 283.53L242.19 285.58L242.42 287.43L245.45 287.41L247.59 289.17L247.86 292.69L250.4 293.59L249.76 295.5L249 296.51L248.14 296.22L247 298.74L243.63 297.85L241.85 302.79L237.57 302.29L235.43 305.72L233.02 306.84L235.26 311.32L233.72 312.16L234.75 313.77L233.9 316.5L235.72 318.41L236.8 317.58L238.48 318.91L239.39 321.32L236.69 324.15L233.78 323.61L234.4 326.51L232.58 331.93L229.64 331.18L229.76 333.68L226.25 336.77L223.56 341.3L221.3 341.33L221.03 346.13L218.73 347.77L218.01 350L215.89 350.01L213.81 352.59L212.64 351.57L213.25 352.9L211.55 353.47L210.36 356.88L211.14 361.14L207.37 363.28L205.69 366.5L202.41 365.27L200.43 366.71L199.3 368.93L200.26 369.63L198.56 370.38L198.26 372.81L196.44 371.46L194.13 373.34L192.17 373.06L189.35 371.86L188.46 370.23L187.05 370.51L186.06 368.84L185.01 368.64L184.16 370.19L183.42 367.94L183.37 367.68L182.41 362.27L176.6 361.21L175.67 358.26L175.33 359.78L170.36 359.36L168.71 353.59L166.03 349.67L159.79 345.64L157.57 341.96L150.01 337.58L148.88 337.82L149.36 339.03L148.75 337.83L148.69 332.29L152.99 331.29L151.11 328.3L153.75 327.96L155.41 325.06L154.36 322.83L155.27 322.58L155.05 320.81L153.55 319.39L156.36 319.41L154.33 313.91L152.6 313.22L153.19 312L151.32 311.35L152.3 310.2L149.94 310.91L148.65 309.81L150.2 306.94L153.94 304.05L152.98 301.51L153.72 300.64Z" fill="#CCCCCC" stroke="white" stroke-width="0.5"/>
<path d="M407.25 412.26L407.66 412.72L410.57 414.49L410.6 414.83L408.62 415.76L407.11 419.68L403.06 419L402.41 416.39L403.92 413.66L404.28 413.02L404.6 412.85L405.29 412.69L406.57 411.66L406.74 412.1L407.17 412.15L407.25 412.26ZM421.81 481.46L423.22 479.09L421.99 477.66L423.14 476.9L420.45 473.14L417.1 475L409.69 475.22L406.37 469.51L404.3 469.12L403.21 470.67L403.71 469.27L402.71 469.86L401.85 467.83L402.54 470.35L400.49 469.26L401.86 470.86L399.56 471.76L401.47 471.63L400.8 472.31L402.58 473.45L404.18 472.06L400.84 475.07L390.28 473.22L389.28 472.06L390.63 469.7L388.25 467.99L375.67 467.53L376.11 465.28L379.51 463.63L379.1 462.08L379.93 463.19L385.25 460.11L385.68 458.79L383.78 458.13L386.25 453.94L388.52 453.37L392.17 454.61L391.54 452.32L393.81 445.49L392.74 444.24L399.9 438.7L399.89 437.26L401.16 437.2L398.75 432.79L396.01 431.88L396.05 425.78L395.46 424.23L394.04 424.16L393.06 420.98L393.11 417.54L398.84 418.51L400.1 423.47L410.1 418.84L412.12 420.58L413.88 418.73L414.54 418.42L413.93 423.22L417.15 424.42L417.96 423.26L419.99 424.66L422.36 424.24L423.59 425.05L423.51 427.65L425.69 427.85L426.5 429.72L430.09 428.95L432.59 425.56L434.16 426.92L433.81 427.92L435.77 428.16L435.94 427.17L434.3 426.71L436.09 425.29L436.1 421.2H434.46L434.02 419.25L432.83 418.93L433.71 417.35L430.33 417.54L429.23 416.35L428.06 417.11L425.45 414.96L424.98 412.05L427.38 412.39L428.25 411.36L426.86 410.75L426.59 407.77L433.07 409.38L433.67 407.72L435.14 407.59L432.36 405.18L434.47 401.24L434.27 398.92L437.84 399.66L438.68 398.32L440.35 398.82L442.05 396.67L440.74 395.74L441.91 392.65L444.23 393.41L447.07 392.59L448.28 391.36L447 390L449.83 388.2L451.44 389.34L454.66 386.52L459.37 387.24L461.2 385.96L463.87 387.07L463.97 382.13L462.5 381.28L462.55 378.65L457.59 377.63L459.3 371.51L461.31 372.24L462.94 371.35L464.25 374.46L467.83 375.53L469.31 375.35L469.05 373.13L470.3 372.17L471.6 372.73L473.11 371.32L475.3 372.19L477.06 377.49L480 377.82L480.28 384.19L484.95 387.41L486.89 387.78L487.94 386.72L491.54 388.98L490.6 390.98L493.76 397.14L489.03 397.49L489.25 400.84L484.59 406.07L485.53 408.87L488.45 411.79L486.14 412.27L485.92 415.69L490.37 420.45L490.87 423.01L498.36 425L502.17 428.49L504.81 428.18L505.41 429.96L508.2 430.14L508.45 429.09L516.25 427.98L517.01 426.41L518.97 426.53L518.24 429.04L520.24 431.76L519.86 434.16L518.09 434.95L517.65 438.08L514.11 439.94L513.75 442.57L511.21 443.91L512.65 449.09L507.49 452.74L504.7 453.11L504.46 455.19L503.72 453.45L503.27 454.66L500.69 454.44L499.31 456.64L497.15 456.5L495.69 460.28L496.66 462.27L495.66 462.85L494.71 461.19L492.23 463.23L491.3 462.32L489.09 462.83L488.02 464.43L488.84 465.4L486.13 469.28L481.9 470.43L480.07 469.62L478.88 473.88L473 478.18L478.09 478.5L476.76 479.85L477.42 482.31L475.79 483.05L476 484.13L474.92 484.67L472.45 482.9L469.76 485.07L465.11 485.44L464.26 488.73L460.53 486.76L456.91 487.11L455.39 489.92L455.6 492.1L453.11 491.98L454.53 491.11L454.32 489.13L450.04 489.19L449.22 487.62L446.16 487.83L445.96 486.56L444.3 487.82L447.06 489.77L444.71 489.15L443.39 490.98L442.1 490.8L440.63 489.73L441.26 487.1L439.53 487.05L439.76 485.76L436.56 485.49L436.18 483.44L433.5 483.06L432.76 484.57L429.92 481.48L428.4 482.48L421.81 481.46Z" fill="#CCCCCC" stroke="white" stroke-width="0.5"/>
<path d="M361.94 303.07L361.58 306.75L365 307.45L365.69 309.45L370.4 307.69L373.53 309.18L374.75 307.95L375.5 308.95L376.68 308.36L376.49 310.09L377.55 310.23L381.59 308.46L382.96 301.88L385.16 301.8L387.04 303.57L389.71 302L391.78 303.7L392.57 301.57L394.34 301.26L395.62 302.91L394.33 304.09L396.68 305.62L395.99 307.93L397.61 309.27L398.5 309.02L405.19 288.51L405.59 289.57L406.98 288.73L409.99 290.58L414.55 289.38L414.6 288.47L416.19 289.28L417.41 292.14L420.67 292.84L420.03 294.83L423.26 296.68L422.6 297.4L424.36 300.98L425.21 298.74L425.74 300.69L427.33 300.68L427.27 303.75L429.98 303.5L434.3 298.94L434.45 300.17L437.24 301.06L437.72 303.96L443.71 303.73L451.82 294.67L456.19 297.62L453.38 302.53L454.31 304.57L448.32 306.63L447.68 307.83L448.93 308.73L447.39 311.9L451.31 310.5L454.48 311.22L461.41 306.12L462 304.27L459.97 304.55L459.44 301.43L458.3 300.93L459.63 298.04L470.7 292.22L477.47 292.36L483.2 294.01L481.15 298.31L485.05 302.77L482.53 307.35L482.24 311.3L486.45 312.08L485.5 316.63L487.95 315.66L492.21 322.24L492.48 324.09L490.5 327.15L487.04 329.01L483.19 329.24L482.64 335.85L487.13 340.23L490.64 340.93L489.69 344L490.65 348.9L492.91 349.51L492.69 350.83L494.79 350.98L495.4 353.13L498.42 354.74L495.22 359.36L496.25 363.57L493.54 366.17L490.7 365.68L488.37 368.65L486.19 368.73L486.18 370.59L484.35 371.15L480.98 369.25L475.31 372.16L473.12 371.29L471.61 372.7L470.31 372.14L469.06 373.1L469.32 375.32L467.84 375.5L464.26 374.43L462.95 371.32L461.32 372.21L459.31 371.48L457.6 377.6L462.56 378.62L462.51 381.25L463.98 382.1L463.88 387.04L461.21 385.93L459.38 387.21L454.67 386.49L451.45 389.31L449.84 388.17L447.01 389.97L448.29 391.33L447.08 392.56L444.24 393.38L441.92 392.62L440.75 395.71L442.06 396.64L440.36 398.79L438.69 398.29L437.85 399.63L434.28 398.89L434.48 401.21L432.37 405.15L435.15 407.56L433.68 407.69L433.08 409.35L426.6 407.74L426.87 410.72L428.26 411.33L427.39 412.36L424.99 412.02L425.46 414.93L428.07 417.08L429.24 416.32L430.34 417.51L433.72 417.32L432.84 418.9L434.03 419.22L434.47 421.17H436.11L436.1 425.26L434.31 426.68L435.95 427.14L435.78 428.13L433.82 427.89L434.17 426.89L432.6 425.53L430.1 428.92L426.51 429.69L425.7 427.82L423.52 427.62L423.6 425.02L422.37 424.21L420 424.63L417.97 423.23L417.16 424.39L413.94 423.19L414.55 418.39L413.89 418.7L412.13 420.55L410.11 418.81L400.11 423.44L398.85 418.48L393.12 417.51L393.07 420.95L387.09 416.72L384.93 417.03L384.3 420.22L382.54 419.8L382.39 416.56L379.66 417.03L376.79 421.27L371.5 417.13L368.1 418.15L367.78 413.97L368.96 413.16L365.61 409.29L364.13 403.57L362.07 402.2L360.34 393.49L362.92 392.07L363.99 388.67L365.61 389.56L365.37 388.32L366.1 389.08L367.27 388.28L367.54 386.02L372.6 385.97L375.43 380.7L379.12 380.12L378.4 377.41L381.86 376.4L380.49 374.06L381.51 372.31L382.65 372.39V371.86L381.61 370.11L383.64 370.55L384.17 372.1L385.07 371.57L384.66 369.12L386.45 365.47L384.18 362.41L382.18 363.5L380.58 362.41L381.48 360.83L379.85 359.87L381.34 358.78L379.98 356.9L377.39 357.5L375.77 355.67L373.5 355.46L372.11 355.97L372.48 357.1L369.47 357.49L369.05 358.81L366.96 358.03L366.86 359.28L365.5 356.7L363.94 356.45L362.14 358.92L361.51 355.33L364.59 352.93L365.48 349.4L363.36 344.53L358.79 341.37L356.84 337.84L356.99 335.85L353.18 331.92L354.57 330.59L354.28 327.23L355.91 326.28L353.35 323.66L353.67 321.32L357.26 321.1L359.06 319.56L357.99 316.33L358.66 314.23L357.48 312.84L358.13 309.79L356.44 305.23L361.26 303.15L361.62 303.1L361.94 303.07ZM404.58 412.83L404.26 413L403.9 413.64L402.39 416.37L403.04 418.98L407.09 419.66L408.6 415.74L410.58 414.81L410.55 414.47L407.64 412.7L407.14 412.12L406.71 412.07L406.54 411.63L405.26 412.66L404.58 412.83Z" fill="#CCCCCC" stroke="white" stroke-width="0.5"/>
</svg>
