<svg width="801" height="864" viewBox="0 0 801 864" fill="none" xmlns="http://www.w3.org/2000/svg">
<path d="M566.79 289.27L565.19 288.77L563.95 287.76L563.24 286.53L562.18 285.29L561.04 284.35L559.88 283.18L558.48 282.43L556.64 282.12L547.67 286.48L546.32 286.77L544.99 286.53L543.71 285.76L542.49 284.68L541.49 283.49L540.55 282.78L539.83 283.23L518.99 376.27L497.35 387.25L395.76 424.62L393.15 428.71L389.47 432.96L388.38 434.76L387.74 436.41L386.85 444.31L386.93 445.65L387.47 447.99L387.79 451.37L388.11 452.86L388.64 454.2L389.43 455.49L392.08 458.33L392.43 458.79L392.83 459.54L393.68 462.23L394.05 464.05L394.33 466.8L394.09 469.09L393.58 471.68L393.94 474.1L394.9 475.34L396.25 475.88L398.96 476.58L400.39 476.66L401.76 476.24L404.51 475.02L408.58 474.07L418.08 468.11L419.49 467.55L420.84 467.2L422.19 467.42L422.57 467.83L422.62 468.5L422.36 469.7L422.27 471.93L422.64 474.88L423.9 479.08L424.66 480.52L429.56 487.3L431.76 489.66L438.45 494.41L443.44 499.2L444.6 499.95L449.85 502.3L451.05 503.03L453.87 505.84L458.76 511.87L459.59 513.33L459.7 514.14V516.77L460 518.35L461.97 524.85L462.42 529.94L462.14 533.25L461.8 534.42L461.67 534.72L460.97 535.91L460.17 536.94L459.17 537.87L458.74 538.4L458.4 539.01L458.16 539.75L458.21 541.05L458.59 542.69L459.89 545.78L461.29 546.95L462.72 547.77L464.06 548.27L465.3 549.23L474.47 561.66L476.27 563.64L484.79 570.8L486.16 571.55L503.12 577.39L504.46 577.48L514.16 576.61L515.56 576.66L516.82 577.01L517.78 577.43L518.48 579.5L517.95 582.43L520.57 585.21L522.98 585.96L524.76 584.99L525.36 583.6L525.46 582.1L525.7 580.91L526.54 579.15L527.23 578.26L528.06 577.47L534.81 572.95L536.29 572.41L543.06 572.22L548.93 574.66L558.02 581.25L558.28 580.27L560.18 575.25L561.12 571.47L563.09 567.21L563.07 565.92L562.58 563.24L562.88 561.85L573.07 540.81L575.46 537.74L576.21 536.55L576.68 535.23L577.82 533.75L578.71 532.17L579.29 530.56L579.61 526.57L580.01 525.28L581.23 523.38L582.47 521.99L583.81 521.08L584.99 520.04L585.96 518.49L586.7 516.16L588.18 514.89L592.19 512.75L593.28 512.61L593.99 512.62L595.06 512.79L596.25 512.75L597.57 512.34L598.94 511.49L600.27 510.31L601.47 508.98L603.43 506.41L604.54 505.27L605.84 504.5L608.28 503.56L609.09 502.58L611.4 498.54L612.81 497.28L614.28 496.4L615.61 495.9L616.68 494.27L617.23 491.54L617.3 485.85L616.83 480.66L615.5 475.47L615.44 474.58L616.62 473.58L626.68 478.47L629.07 480.48L630.14 480.13L630.97 479.37L653.29 452.19L670.44 426.84L670.65 424.56L669.73 421.29L635.41 353.86L634.09 352.71L632.75 352.09L631.38 351.8L630.09 351.29L628.98 350.37L628.28 348.61L627.96 347.07L627.72 344.12L626.44 338.56L625.69 337.41L624.86 336.5L624.35 335.49L625.22 333.92L628.55 329.14L632.08 322.3L632.43 315.27L629.66 315.29L628.51 315.04L627.04 314.38L625.69 313.58L624.2 313.01L620.56 313.15L618.9 312.87L617.34 312.23L615.95 311.3L610.72 308.75L609.78 307.69L609.18 306.45L606.57 298.11L606.33 295.39L605.71 294.24L603.45 292.67L601.55 290.72L600.4 290.23L596.29 290.85H595.06L593.95 290.65L593.16 290.37L591.97 289.83L589.37 288.26L587.15 286.58L586.06 286.23L582.08 289.83L580.5 290.71L578.52 291.02L576.94 290.82L572.73 289.57L569.33 289.04L566.79 289.27Z" fill="#CCCCCC" stroke="white" stroke-width="0.5"/>
<path d="M658.28 316.32L632.43 315.27L632.08 322.3L628.55 329.14L625.22 333.92L624.35 335.49L624.86 336.5L625.69 337.41L626.44 338.56L627.72 344.12L627.96 347.07L628.28 348.61L628.98 350.37L630.09 351.29L631.38 351.8L632.75 352.09L634.09 352.71L635.41 353.86L669.73 421.29L670.65 424.56L670.44 426.84L653.29 452.19L630.97 479.37L630.14 480.13L629.07 480.48L626.68 478.47L616.62 473.58L615.44 474.58L615.5 475.47L616.83 480.66L617.3 485.85L617.23 491.54L616.68 494.27L615.61 495.9L614.28 496.4L612.81 497.28L611.4 498.54L609.09 502.58L608.28 503.56L605.84 504.5L604.54 505.27L603.43 506.41L601.47 508.98L600.27 510.31L598.94 511.49L597.57 512.34L596.25 512.75L595.06 512.79L593.99 512.62L593.28 512.61L592.19 512.75L588.18 514.89L586.7 516.16L585.96 518.49L584.99 520.04L583.81 521.08L582.47 521.99L581.23 523.38L580.01 525.28L579.61 526.57L579.29 530.56L578.71 532.17L577.82 533.75L576.68 535.23L576.21 536.55L575.46 537.74L573.07 540.81L562.88 561.85L562.58 563.24L563.07 565.92L563.09 567.21L561.12 571.47L560.18 575.25L558.28 580.27L558.02 581.25L558.63 581.69L564.45 583.57L566.77 585.16L568.37 588.52L571.4 598.52L572.64 601.44L573.43 602.45L575.58 604.56L576.19 605.38L576.73 608.53L576.49 608.59V609.23L576.35 610.05L576.65 610.77L579.24 611.43L579.15 612.23L578.61 613.14L578.36 613.8L577.77 614.84L577.53 615.71L577.86 616.62L579.67 618.38L580.19 619.35L580.29 620.78L580.89 623.23L582.85 623.16L586.2 621.45L587.39 622.61L589.97 626.83L591.26 628.41L591.96 632.13L592.33 633.24L593.31 634.29L594.15 634.26L594.81 634.41L595.15 635.96L594 637.18L593.23 638.31L592.94 639.7L592.84 640.89L592.46 642.1L591.9 643.25L591.26 644.22L589.73 645.51L589.01 646.8L589.41 647.62L591.26 647.52L592.86 645.93L595.35 643.44L597.13 642.91L600.54 643.52L609.42 647.55L612.3 648.25L613.8 647.94L616.44 646.4L618.03 646.18L619.38 646.48L643.39 655.4L645.84 655.68L648.48 655.03L651.47 655.51L652.18 655.53L654.12 654.93L655 655.16L656.15 656.85L656.87 657.08L658.32 656.25L658.94 655.14L659.33 653.86L660.08 652.54L661.45 651.21L665.92 648.12L667.08 646.97L669.09 644.45L670.46 643.22L672.09 642.4L675.38 641.34L676.76 640.4L677.37 639.18L677.77 636.26L678.7 634.83L689.17 624.68L690.28 623.14L690.79 621.7L691 618.98L691.37 617.46L692.82 614.71L695.69 610.42L696.01 609.68L696.45 609.85L697.9 610.89L699.79 612.72L701.46 615.32L702.65 618.23L703.91 623.92L707.04 630.32L708.73 632.85L711.25 635.42L712.17 636.77L712.63 640.6L713.7 641.61L715.15 642.31L716.57 643.32L718.45 645.89L717.87 646.78L716.23 647.79L714.28 651.95L711.42 653.39L710.4 654.6L710.3 659.91L710.14 660.6L712.39 662.58L715.53 663.62L718.91 663.79L721.79 663.19L724.17 661.75L725.49 661.15H726.83L728.1 662.08L728.51 664.6L729.39 665.41L730.45 665.43L736.78 663.45L737.65 663.29L739.03 663.4L741.15 664.63L742.51 665.2L743.77 665.01L744.59 663.97L745.22 662.18L746.07 659.73L747.24 658.5L748.56 657.46L749.53 656.27L749.47 652.65L750.1 651.25L751.22 650.07L753.86 647.84L755.11 647L756.47 646.37L763.05 644.83L763.65 645.22L762.62 640.83L752.19 632L751.75 627.29L753.61 625.83L758.34 624.11L760.17 622.1L760.2 621.09L759.35 618.63L759.51 617.27L760.25 616.62L762.62 615.78L763.56 614.84L764.2 612.87L764.97 605.61L765.88 602.89L766.02 601.52L765.35 600.36L764.23 599.53L763.52 598.82L763.43 597.96L764.16 596.67L764.09 595.09L764.43 593.86L765.11 592.84L766.09 591.84L782.12 585.58L782.42 585.46L786.07 583.47L787.07 581.58L786.02 575.57L786.1 574.4L786.94 570.85L787.37 559.88L788.25 556.9L789.92 555.05L793.16 553.09L792.11 552.17L789.2 551.69L786.86 550.96L785.19 545.38L782.52 543.89L781.61 542.86L782.84 541.77L785.66 540.77L786.96 540.13L788.27 539.18L789.19 537.78L789.75 536.19L790.63 534.99L795.14 534.14L795.08 532.06L793.54 529.58L791.74 527.79L793.47 523.8L793.7 520.49L794.2 519.19L795.79 517.65L797.54 516.53L798.53 514.95L797.76 512.09L792.92 508.88L790.9 506.79L790.07 504.16L790.46 502.63L791.41 501.64L792.55 500.76L793.54 499.63L794.31 498.18L794.81 496.86L795.37 493.77L795.51 489.47L795.28 488.23L794.21 486.45L791.88 484.15L791.31 483.59L790.34 481.91L790.3 480.73L791.07 478.35L791.18 477.17L790.71 475.56L789.25 472.59L785.32 461.78L785.35 459.81L786.8 456.87L787.48 450.92L788.21 447.76L790.33 444.38L792.76 441.7L794.31 438.76L793.73 434.57L792.8 431.07L792.78 427.68L793.54 424.31L799.14 412.21L800.08 407.74L798.84 403.62L795.61 396.97L793.91 395.16L788.44 391.39L785.39 387.29L780.75 384.39L775.51 382.07L771.67 380.96L769.31 381.33L767.18 382.34L765.07 383.05L762.84 382.53L760.32 381.5L757.95 381.52L755.68 382.3L753.36 383.54L753.12 378.39L752.11 372.71L750.41 367.19L748.09 362.48L744.51 358.96L739.47 356.51L733.95 355.66L728.94 356.98L727.94 355.64L726.83 354.72L725.49 354.19L720.57 353.62L719.5 353.99L718.98 354.9L718.61 355.9L718.02 356.51L716.2 357.18L715.32 357.35L714.49 356.74L708.13 349.16L708.26 345.26L709.71 341.84L715.96 333.55L715.9 333.53L705.73 329.97L698.95 325.08L695.97 323.31L693.21 322.17L665.69 316.21L663.62 316.01L658.28 316.32Z" fill="#CCCCCC" stroke="white" stroke-width="0.5"/>
<path d="M45.81 424.91L48.26 423.28L48.13 418.92L48.64 413.11L47.53 408.37L42.54 407.29V406.27L43.73 405.82L44.36 405L44.3 403.87L43.56 402.51L42.38 404L39.39 405.82L37.85 407.29L36.27 409.41L35.96 410.46V411.99L36.43 413.51L38.33 415.5L38.96 416.69V418.84L38.57 420.68L38.59 422.41L39.8 424.22L41.95 425.68L43.83 425.81L45.81 424.91ZM121.42 400.46L115.12 392.77L110.69 389.72L106.08 387.53L104.77 387.22L102.17 387.01L100.4 385.89L98.37 383.89L91.25 374.34L90.02 371.63L86.96 360.11L85.1 358.31L85.07 358.28L85.12 366.63L83.15 372.33L79.74 377.65L67.43 391.21L64.95 396.16L56.81 403.45L55.66 407.02L56.81 409.32L58.41 411.52L58.69 414.72L56.81 411.04L55.19 411.74L55.02 412.95L55.29 414.41L54.92 415.83L54.17 416.33L51.9 417.12L51.09 417.63L50.08 418.72L49.88 419.22L50.08 420.01L50.22 421.89L49.48 424.17L46.19 427.76L45.44 430.36L45.1 438.72L44.5 441.3H43.56L42.68 439.35L43.63 434.51L43.56 431.73L41.98 429.27L37.01 424.63L35.96 421.89L35.55 419.8L34.52 417.44L33.15 415.5L29.83 413.94L28.5 413.82L27.49 414.72L27.46 416.33L28.4 417.78L29.81 418.89L31.16 419.52V420.46L28.74 420.32L26.32 419.79L24.48 419.94L23.74 421.89L23.32 424.64L22.66 427.07L22.53 429.38L23.74 431.73L21.5 431.06L20.83 429.14L20.53 427.11L19.46 426.17L17.54 425.52L16.21 423.91L15.42 421.89L14.8 416.13L13.64 411.43L11.57 408.06L8.61 408.15L8.1 407.23L7.87 406.55L8.01 405.71L8.61 404.47L4.17 403.6L2.67 402.42L3.89 399.76L2.87 398.75L1 401.64L4.22 411.78L8.45 417.25L10.28 424.5L13.23 429.53L16.86 437.75L18.94 441.3L19.66 442.98L20.84 447.89H21.86L23.22 446.99L24.27 449.35L25.14 452.74L26.05 454.95L28.42 455.56L32.46 452.82L34.07 453.54L33.38 453.76L32.28 454.79L31.13 456.37L30.32 458.22L32.28 459.08L30.22 459.75L28.24 458.78L24.67 455.4L38.33 472.95L40.66 479L41.67 487.44L42.12 488.92L42.99 489.05L43.46 487.81L44.27 484.09L42.54 479.94L45.1 481.96L47.47 485.21L48.12 488.42L45.44 490.37L45.78 491.29L46.01 491.67L46.46 492.16L45.51 494.67L45.85 497.47L47.06 499.76L48.73 500.7L50.82 501.5L55.66 505.13L57.67 506.27L59.43 506.57L60.03 506.21L60.3 505.68L61.65 505.12L62.44 504.58L63.09 504.33L63.58 505.21L64.53 506.08L64.84 506.27L64.47 507.42L64.23 510.1L64.67 513L66.21 514.81L68.49 515.11L75.09 513.88L76.52 512.96L77.61 510.94L79 508.99L81.24 508.23L82.15 508.73L83.29 510.63L84.54 511.06L86.02 510.65L87.38 509.64L88.39 508.28L88.77 506.8L87.77 499.6L87.83 496.86L89.11 497.6L89.65 498.2L89.51 498.84L88.77 499.68L91.28 504.47L91.73 506.84L89.55 510.85L88.93 513.47L87.83 514.81L86.73 515.18L83.44 515.5L82.21 515.83V516.69L83.51 517.78L84.07 519.73L83.83 521.6L82.68 522.42L80.27 522.68L78.25 523.5L77.14 524.96L77.39 527.12L78.08 527.35L79.41 527.52L80.67 527.85L81.24 528.53L81.13 531.03L81.24 532.3L82.22 534.31L82.39 536.53L83.15 537.55L84.2 538.09L85.1 538.03L85.97 537.75L86.89 537.55L91.37 537.21L95.12 536.1L98.28 533.83L101.7 529.24L102.29 528.77L102.76 528.06L102.96 526.65L102.38 524.6L102.44 523.72L103.43 523.36L105.18 523.29L105.78 523.36L108.5 524.9L109.62 525.25L109.03 527.53L109.19 530.54L110.47 535.67L112.1 538.43L114.29 540.07L119.97 542.25L115.83 543.19L104.44 541.66L100.14 542.25L101.04 543.88L101.11 546.15L100.14 550.8L98.09 549.66L97.31 547.67L97.48 545.35L98.28 543.19L94.93 543.47L91.24 544.62L88.01 546.49L85.95 548.84L85.66 547.63L84.92 546.5L83.89 545.96L82.68 546.49L82.3 547.51L83.55 549.39L83.15 550.8L81.51 551.54L80.67 549.41L79.36 532.3L75.31 531.09L74.15 530.47L67.53 525.13L66.69 524.23L64.84 523.03L60.49 517.64L59.63 516.28L58.89 513.59L55.66 510.23L54.25 505.88L52.54 504.25L50.38 503.31L48.26 503.52L45.59 500.54L43.9 498.14L42.5 494.04L40.66 490.37L41.31 493.24L42.5 496.26L43.9 499.68L45.21 502.07L62.45 526.19L70.08 534.08L73.22 538.42L75.53 544.13L75.69 545.51L75.53 549.78L75.93 551.36L77.14 554.44L77.39 555.94V561.62L77.25 562.78L76.67 565.19L76.56 566.8L76.92 570.89L78.08 573.61L80.12 574.32L83.15 572.35L86.29 574.66L86.6 576.21L85.01 578.94H86.52L87.74 579.25L88.81 579.91L89.8 580.92L89.74 579.25L90.03 577.75L90.79 576.63L92.1 576.21L92.43 575.49L92.83 573.93L93.48 572.32L94.49 571.41L96.89 572.38L100.38 578.81L102.96 580.92L102.46 577.87L102.47 576.56L102.96 575.27L103.67 575.92L105.78 577.15L107.17 575.83L109.73 578.45L114.21 586.17L114.42 587.08L113.11 587.98L111.5 590.4L112.27 591.97L115.64 594.3L117.15 596.05L118.45 596L119.63 597.91L120.54 600.67L120.91 603.14L120.46 603.6L118.52 604.33L118.09 605.02L117.72 606.08L116.98 604.95L116.29 603.27L116.2 602.62L113.4 600.76L113.21 599.73L113.22 597.34L112.88 596.52L112.1 596.32L109.11 596.05L108.32 595.76L107.43 595.04L105.78 593.23L108.84 590.74L109.19 587.92L107.26 585.62L103.43 584.68H96.37L96.61 585.24L95.9 586.31L94.96 586.91L94.49 586.07L94.62 585.1L94.96 584.48L95.56 584.1L96.37 583.82L95.34 580.92H94.49L93.44 583.82L92.45 584.56L90.66 583.82L91.03 583.49L91.19 583.45L91.36 583.34L91.69 582.78L88.87 583.08L85.75 582.08L83.23 580.13L82.21 577.62L81.6 577.08L80.59 577.98L80.27 579.31L81.74 579.97L81.92 580.59L83.08 581.9L84.38 583.08L85.01 583.29L85.92 584.73L91.69 590.4L93.59 595.65L95.3 598.05L98.28 598.85L97.72 600.22L97.33 600.76L99.3 602.33L103.48 607.3L107.16 609.38L120.82 622.84L121.85 624.86L122.66 637.37L123.71 640.52V641.29L125.12 644.84L128.26 648.91L131.94 652.48L135.01 654.54L133.77 652.59L130.73 648.91L129.45 646.93L131.85 648.51L137.61 655.41L139.78 656.35L141.05 654.59L140.58 652.55L138.84 649.28L139.09 648.33L139.69 647.86L140.59 647.77L141.75 647.95L142.6 648.54L142.59 649.47L142.38 650.57L142.6 651.72L143.19 651.7L144.71 652.41L145.79 653.26L145.01 653.69L144.54 654L142.94 655.47L142.6 655.91L142.98 657.56L143.88 659.12L145.14 660.39L146.46 661.13L149.69 660.25L152.82 657.23L156.11 654.77L159.61 655.48L159.86 655.27L161.85 654.21L162.36 654.12L162.66 652.71H163.33L164.75 653.69L164.97 654.77L168.07 661.13L170.49 660.87L174.29 661.52L177.82 662.68L179.45 664.03L178.98 665.2L177.62 665.31L176.01 665.26L174.74 665.91L174.46 667.31L175.28 670.15L174.74 671.57L176.49 672.69L178.43 673.52L178.82 672.36L179.5 671.02L180.39 669.71L181.33 668.66L181.46 667.99L181.31 667.08L181.25 666.27L181.76 665.91L182.79 666.07L184.48 666.71L185.52 666.86L186.62 667.45L188.16 670.04L189.26 670.63L189.87 671.12L190.53 672.22L191.6 673.23L193.55 673.52L191.67 666.48L190.73 664.03H191.67L193.5 666.34L196.85 667.62L199.54 668.99L199.27 671.57L200.33 671.95L202.96 673.52L202.17 675.26L200.92 675.9L197.31 676.27L195.77 675.94L192.92 676.03L189.89 676.48L187.91 677.21L187.1 678.28L186.06 680.81L185 681.92L183.47 682.92L182.26 683.46L181.72 683L182.18 681.06L180.78 680.97L179.51 681.25L178.43 681.89L177.49 682.94L176.98 681.31L176.54 676.27L175.91 676.37L175.77 676.47V676.7L175.6 677.21L174.34 676.39L173.53 676.27L173.04 676.88L172.78 678.23H171.84L171.33 675.25L169.29 672.09L169.01 672.04L168.22 671.41L163.3 669.68L161.16 670.56L159.99 669.12L159.57 666.54L159.61 664.03L159.33 664.73L158.93 665.29L158.38 665.67L157.65 665.91L157.22 664.21L157.6 662.73L158.25 661.18L158.59 659.24L155.98 661.92L154.26 664.14L152.37 665.33L149.19 664.97L146.22 663.45L142.29 659.25L139.78 657.36L142.76 662.64L167.18 692.83L175.34 699.03L180.48 697.64L180.62 697.6L221.42 685.7H224.15L225.45 685.16L226.73 683.1L227.33 681.45L228.46 675.65L228.95 674.2L229.94 672.71L231.35 671.25L233.82 669.69L235.55 669.08L237.03 668.7L237.93 668.04L238.06 667.06L237.76 666.05L235.85 662.96L235.47 661.65L235.77 660.15L236.66 658.48L238.38 656.24L239.83 652.84L244.53 648.78L264.21 639.01L258.67 630.18L256.62 627.84L256 627.49L255.45 627.02L254.94 626.43L251.21 620.98L250.36 618.96L247.82 609.5L247.52 608.81L247.03 608.26L244.53 606.45L243.33 605.13L242.56 603.63L242.14 601.67V600.11L242.35 598.63L244.06 594.15L244.28 592.76L243.84 591.38L242.39 590.44L239.62 589.48L236.78 587.1L230.99 583.94L229.68 583.9L228.4 584.64L227.18 585.63L225.83 586.31L224.4 586.58L222.91 586.52L213.21 584.17H210.47L209.04 583.47L207.51 582.07L206.05 581.33L202.91 579.16L198.58 577.99L194.17 575.6L187.29 573.37L184.49 572.93L179.92 572.83L178.7 572.7L177.44 572.14L176.14 571.17L174.9 569.95L170.31 564.37L169.54 563L167.89 558.7L167.1 557.31L165.2 554.69L163.23 552.62L163.04 551.46L164.32 550.11L165.5 549.13L166.29 547.91L166.37 546.57L166.69 545.1L168.04 543.42L169.37 542.56L170.78 542.24L172.08 542.18L173.36 541.98L174.62 541.36L175.74 539.55L176.93 536.75L177.76 532.42L177.96 529.98L177.83 528.07L176.33 520.96L176.06 518.24L176.12 515.6L176.59 514.09L177.4 512.53L187.08 503.25L189.02 499.27L189.77 493.75L187.53 492.69L181.11 491.67L180.32 491.4L179.21 490.91L177.96 490.14L169.5 482.36L168.26 480.84L168.11 479.58L168.41 478.29L171.99 471.56L172.95 468.76L173.19 467.29L173.23 465.88L173 464.47L170.73 459.08L170.56 458.34L170.63 457.37L171.63 454.95L171.74 453.6L171.18 451.96L170.07 450.19L165.3 446.27L163.58 445.4L162.21 445.08L159.52 445.25L154.33 444.95L153.17 444.72L152.38 444.67L148.64 444.99L147.27 444.9L145.97 444.43L144.82 443.48L144.07 441.97L142.61 440.52L142.08 440.22L140.78 439.22L138.98 438.12L136.08 436.78L130.44 429.2L121.42 400.46Z" fill="#CCCCCC" stroke="white" stroke-width="0.5"/>
<path d="M334 863.36L336.15 859.36L345.3 834.66L347.56 830.31L351.15 827.24L355.85 824.19L359.94 820.81L364.38 818.07L370.05 816.93L375.3 815.18L378.37 811.23L380.95 806.98L384.75 804.37L391.65 805.37L396.76 809.29L407.69 827L409.99 829.49L412.98 830.51L420.48 829.54L423.24 829.85L431.17 832.12L433.73 832.19L434.07 832.06L436.49 831.13L439.46 828.91L441.9 826L442.98 822.89L442.01 819.97L439.37 818.54L436.11 817.49L433.26 815.79L431.89 812.91L432.28 809.72L440.13 791.12L442 787.8L447.93 783.36L449.78 780.39L448.33 775.94L443.01 773.45L436.48 771.65L431.47 769.27L425.92 764.7L423.01 762.96L415.22 759.69L414.15 758.9L412.97 757.71L412.71 757.19L412.94 756.4L413.07 746.85L413.75 744.43L415.57 741.01L417.01 740.14L418.9 740.3L422.07 739.97L425.48 737.87V734.91L423.46 731.73L412.98 720.59L408.23 713.68L405.98 711.14L403.23 710.25L399.32 711.44L393.74 715.36L391.38 715.76L390.67 712.53L392.04 707.25L392 707.19L382.34 694.76L371.34 683.41L360.48 674.6L352.52 665.6L349.88 663.26L349.22 662.04L346.62 652.47L345.98 651.12L344.85 649.84L333.45 642.87L332.32 641.76L331.6 640.48L331.21 639.16L330.91 637.74L330.49 636.39L329.76 635.02L328.73 633.74L327.34 632.63L325.8 631.84L323.8 631.27L264.21 639.01L244.53 648.78L239.83 652.84L238.38 656.24L236.66 658.48L235.77 660.15L235.47 661.65L235.85 662.96L237.76 666.05L238.06 667.06L237.93 668.04L237.03 668.7L235.55 669.08L233.82 669.69L231.35 671.25L229.94 672.71L228.95 674.2L228.46 675.65L227.33 681.45L226.73 683.1L225.45 685.16L224.15 685.7H221.42L180.62 697.6L180.48 697.64L175.34 699.03L177.66 700.79L185.96 707.83L203.78 720.82L210.78 726.58L228.39 740.26L242.93 752.51L246.7 756.47L249.21 759.17L251.05 761.35L256.22 767.1L256.75 769.8L259.09 770.88L263.05 773.96L266.11 775.76L268.1 777.38L269.4 779.98L269.96 782.64L269.47 785.73L268.66 788.13L268.51 790.25L269.62 796.45L291.82 811.77L308.71 826.14L313.31 829.51L316.18 832.7L316.37 835.86L316.89 838.6L317.79 841.1L319.09 843.53L321.23 852.46L327.96 859.49L331.33 861.63L334 863.36Z" fill="#CCCCCC" stroke="white" stroke-width="0.5"/>
<path d="M395.759 424.62L383.789 424.1L379.299 423.43L371.189 420.6L363.219 416.82L342.059 400.52L340.229 400.1L338.609 400.12L333.029 401.38L308.349 402.8L305.589 403.55L304.159 404.15L302.919 405.04L301.059 407.34L299.929 408.03L298.669 407.62L295.739 405.6L294.329 405.61L293.099 406.34L291.389 408.73L290.099 409.71L288.289 410.21L286.809 409.9L285.569 408.9L284.829 407.66L283.669 406.26L282.189 405.71L280.209 405.41L278.689 405.57L277.329 406.21L276.299 407.08L274.779 407.71L271.539 407L270.749 407.64L270.869 408.71L272.539 411.33L272.939 412.61L272.559 413.77L271.599 414.67L270.429 415.56L269.319 416.78L265.339 422.73L264.039 424.12L262.459 425.53L255.489 429.69L254.149 430.86L253.289 432.11L252.079 436.44L251.579 439.16L251.529 440.48L251.899 443.15L251.559 444.49L246.029 454.03L245.369 454.73L244.229 455.46L239.169 457.84L238.509 458.38L238.289 458.81L238.269 459.47L238.829 460.48L239.569 461.53L239.889 462.82L239.619 464.15L238.929 465.53L237.059 468.12L235.899 469.29L235.149 470.54L234.849 471.82L234.789 473.15L234.469 474.35L233.699 475.42L232.249 476.05L231.629 477.13L231.309 478.39L230.809 479.65L229.809 480.73L228.249 479.31L226.689 478.44L218.569 478.28L215.299 477.58L213.099 477.37L209.659 477.58L207.549 478.2L205.729 478.94L201.589 481.58L189.769 493.75L189.019 499.27L187.079 503.25L177.399 512.53L176.589 514.09L176.119 515.6L176.059 518.24L176.329 520.96L177.829 528.07L177.959 529.98L177.759 532.42L176.929 536.75L175.739 539.55L174.619 541.36L173.359 541.98L172.079 542.18L170.779 542.24L169.369 542.56L168.039 543.42L166.689 545.1L166.369 546.57L166.289 547.91L165.499 549.13L164.319 550.11L163.039 551.46L163.229 552.62L165.199 554.69L167.099 557.31L167.889 558.7L169.539 563L170.309 564.37L174.899 569.95L176.139 571.17L177.439 572.14L178.699 572.7L179.919 572.83L184.489 572.93L187.289 573.37L194.169 575.6L198.579 577.99L202.909 579.16L206.049 581.33L207.509 582.07L209.039 583.47L210.469 584.17H213.209L222.909 586.52L224.399 586.58L225.829 586.31L227.179 585.63L228.399 584.64L229.679 583.9L230.989 583.94L236.779 587.1L239.619 589.48L242.389 590.44L243.839 591.38L244.279 592.76L244.059 594.15L242.349 598.63L242.139 600.11V601.67L242.559 603.63L243.329 605.13L244.529 606.45L247.029 608.26L247.519 608.81L247.819 609.5L250.359 618.96L251.209 620.98L254.939 626.43L255.449 627.02L255.999 627.49L256.619 627.84L258.669 630.18L264.209 639.01L323.799 631.27L325.799 631.84L327.339 632.63L328.729 633.74L329.759 635.02L330.489 636.39L330.909 637.74L331.209 639.16L331.599 640.48L332.319 641.76L333.449 642.87L344.849 649.84L345.979 651.12L346.619 652.47L349.219 662.04L349.879 663.26L352.519 665.6L360.479 674.6L371.339 683.41L382.339 694.76L391.999 707.19L392.039 707.25L392.299 706.24L402.339 689.86L403.599 686.37L404.269 683.5V680.64L403.529 677.12L402.239 674.03L398.749 668.46L397.679 665.56L397.629 663.15L398.619 655.51L398.119 652.48L395.159 644.45L396.259 641.74L396.559 641.66L401.649 641.83L408.609 643.93L410.509 644.9L411.359 645.97L411.909 647.12L412.969 648.35L417.619 652L420.129 653.32L422.399 653.51L424.689 652.17L429.359 647.86L432.419 646.64L437.389 645.66L443.189 643.79L447.509 641.66L448.929 642.5L451.419 644.33L456.089 650.13L460.299 653.02L464.569 653.49L519.229 641.77L517.659 638.74L518.659 634.28L520.509 629.54L521.459 625.58L520.479 619.88L520.739 617.84L521.719 615.75L524.189 611.85L524.809 609.47L519.439 607.03L516.579 602.62L515.399 597.05L514.249 582.2L514.769 580.34L516.309 580.69L517.949 582.43L518.479 579.5L517.779 577.43L516.819 577.01L515.559 576.66L514.159 576.61L504.459 577.48L503.119 577.39L486.159 571.55L484.789 570.8L476.269 563.64L474.469 561.66L465.299 549.23L464.059 548.27L462.719 547.77L461.289 546.95L459.889 545.78L458.589 542.69L458.209 541.05L458.159 539.75L458.399 539.01L458.739 538.4L459.169 537.87L460.169 536.94L460.969 535.91L461.669 534.72L461.799 534.42L462.139 533.25L462.419 529.94L461.969 524.85L459.999 518.35L459.699 516.77V514.14L459.589 513.33L458.759 511.87L453.869 505.84L451.049 503.03L449.849 502.3L444.599 499.95L443.439 499.2L438.449 494.41L431.759 489.66L429.559 487.3L424.659 480.52L423.899 479.08L422.639 474.88L422.269 471.93L422.359 469.7L422.619 468.5L422.569 467.83L422.189 467.42L420.839 467.2L419.489 467.55L418.079 468.11L408.579 474.07L404.509 475.02L401.759 476.24L400.389 476.66L398.959 476.58L396.249 475.88L394.899 475.34L393.939 474.1L393.579 471.68L394.089 469.09L394.329 466.8L394.049 464.05L393.679 462.23L392.829 459.54L392.429 458.79L392.079 458.33L389.429 455.49L388.639 454.2L388.109 452.86L387.789 451.37L387.469 447.99L386.929 445.65L386.849 444.31L387.739 436.41L388.379 434.76L389.469 432.96L393.149 428.71L395.759 424.62Z" fill="#CCCCCC" stroke="white" stroke-width="0.5"/>
<path d="M291.729 288.96L289.139 288.51L288.579 288.48L288.069 288.6L283.869 290.58L281.809 290.97H280.939L275.439 291.66L273.479 291.6L272.669 291.94L272.349 292.4L272.159 293.68L272.219 295.63L271.919 296.65L271.449 297.47L270.919 298.1L268.529 300.29L268.249 300.67L267.759 301.53L267.629 301.91L267.559 302.31L267.599 303.49L267.689 304.03L267.989 305.01L269.209 307.56L269.289 308.71L268.649 310.01L264.869 311.9L263.719 312.72L262.239 314.56L259.419 317.44L257.129 318.75L255.529 320.61V320.96L256.069 322.39L256.579 325.14L256.709 326.46L256.599 327.08L256.089 327.63L255.469 327.89L254.319 328.18L253.399 328.68L253.059 329.44L252.969 330.14L252.989 330.83L252.369 331.52L235.719 344.55L234.059 345.6L231.539 346.62L221.669 352.49L220.089 353.91L215.429 359.59L212.439 362.13L195.769 372.65L183.229 377.86L180.819 378.05L180.069 377.18L179.789 375.96L179.529 373.27L178.999 371.93L178.079 367.84L177.489 366.55L176.439 365.41L175.239 364.69L173.959 364.19L171.329 363.98L170.009 363.53L168.639 362.87L167.229 362.49L165.859 362.75L164.489 364.17L163.399 365.54L161.649 367.27L159.309 368.95L155.069 371.26L152.749 371.59L151.179 371.11L148.379 368.69L147.099 368.45L144.729 369.95L141.329 371.65L139.949 371.88L135.839 372.08L134.469 372.42L128.879 374.54L123.519 377.25L122.149 377.66L121.039 378.24L120.289 379.4L122.239 397.09L121.419 400.46L130.439 429.2L136.079 436.78L138.979 438.12L140.779 439.22L142.079 440.22L142.609 440.52L144.069 441.97L144.819 443.48L145.969 444.43L147.269 444.9L148.639 444.99L152.379 444.67L153.169 444.72L154.329 444.95L159.519 445.25L162.209 445.08L163.579 445.4L165.299 446.27L170.069 450.19L171.179 451.96L171.739 453.6L171.629 454.95L170.629 457.37L170.559 458.34L170.729 459.08L172.999 464.47L173.229 465.88L173.189 467.29L172.949 468.76L171.989 471.56L168.409 478.29L168.109 479.58L168.259 480.84L169.499 482.36L177.959 490.14L179.209 490.91L180.319 491.4L181.109 491.67L187.529 492.69L189.769 493.75L201.589 481.58L205.729 478.94L207.549 478.2L209.659 477.58L213.099 477.37L215.299 477.58L218.569 478.28L226.689 478.44L228.249 479.31L229.809 480.73L230.809 479.65L231.309 478.39L231.629 477.13L232.249 476.05L233.699 475.42L234.469 474.35L234.789 473.15L234.849 471.82L235.149 470.54L235.899 469.29L237.059 468.12L238.929 465.53L239.619 464.15L239.889 462.82L239.569 461.53L238.829 460.48L238.269 459.47L238.289 458.81L238.509 458.38L239.169 457.84L244.229 455.46L245.369 454.73L246.029 454.03L251.559 444.49L251.899 443.15L251.529 440.48L251.579 439.16L252.079 436.44L253.289 432.11L254.149 430.86L255.489 429.69L262.459 425.53L264.039 424.12L265.339 422.73L269.319 416.78L270.429 415.56L271.599 414.67L272.559 413.77L272.939 412.61L272.539 411.33L270.869 408.71L270.749 407.64L271.539 407L274.779 407.71L276.299 407.08L277.329 406.21L278.689 405.57L280.209 405.41L282.189 405.71L283.669 406.26L284.829 407.66L285.569 408.9L286.809 409.9L288.289 410.21L290.099 409.71L291.389 408.73L293.099 406.34L294.329 405.61L295.739 405.6L298.669 407.62L299.929 408.03L301.059 407.34L302.919 405.04L304.159 404.15L305.589 403.55L308.349 402.8L333.029 401.38L338.609 400.12L340.229 400.1L342.059 400.52L363.219 416.82L371.189 420.6L379.299 423.43L383.789 424.1L395.759 424.62L391.609 415.93L391.139 414.58L388.959 403.45L386.889 399.01L385.219 396.56L384.049 395.24L378.919 390.98L377.789 389.66L376.979 388.17L374.839 381.08L374.539 378.94L374.689 375.49L374.539 373.32L374.149 371.5L373.429 370.1L366.269 359.37L365.539 358.04L365.119 356.69L364.879 355.31L364.899 352.04L365.329 348.11L364.779 341.9L363.669 337.27L363.199 336.25L362.279 335.37L361.059 334.95L359.749 334.75L358.579 334.43L357.809 333.72L357.359 333.06L356.889 331.94L356.869 330.7L357.209 329.32L359.519 324.98L360.719 320.69L361.849 319.34L365.329 316.79L367.339 314.9L386.699 304.83L389.049 304.43L390.559 303.83L392.529 302.17L394.149 301.06L396.819 298.86L397.629 297.42L398.119 295.55L397.889 293.6L398.549 289.19L291.729 288.96Z" fill="#CCCCCC" stroke="white" stroke-width="0.5"/>
<path d="M408.799 1L407.059 1.39L403.479 2.67L366.719 4.02L366.459 5.27L367.089 7.07L367.319 8.9L366.489 10.83L365.419 12.29L364.549 13.86L364.309 16.12V17.84L364.069 19.53L363.529 21.14L362.649 22.6L363.699 27.88L363.759 38.94L363.969 75.04L364.009 82.27L364.179 111.13L364.399 147.21L364.609 183.29L323.369 183.15L313.319 183.12L282.139 183.02L240.929 182.88L237.759 182.87L237.009 202.43L234.889 209.35L233.329 212.1L231.349 217.4L230.789 220.11L230.939 222.05L233.079 224.95L233.819 226.21L234.399 227.51L235.579 231.52L236.259 232.79L237.349 233.06L239.359 232.67L311.189 207.86L312.389 207.84L312.959 208.2L314.269 213.68L314.719 216.69L314.399 226.19L314.119 227.95L312.749 231.73L312.089 234.97L311.789 235.88L311.489 236.44L309.419 238.12L308.759 238.89L308.559 239.21L308.369 239.57L306.859 245.2L306.389 246.31L305.329 247.92L304.709 248.67L304.219 249.53L303.949 250.17L303.499 251.76L303.309 252.25L301.679 255.05L301.089 256.37L298.239 266.53L297.829 270.15L297.579 271.28L297.359 271.91L296.919 272.49L296.449 272.96L295.699 273.55L295.399 274.32L295.119 275.7L296.109 280.27L296.229 281.87L296.149 282.63L295.979 283.32L295.269 285L294.269 286.23L293.759 286.64L293.459 286.95L292.599 288.18L291.729 288.96L398.549 289.19L384.559 274.41L383.879 273.22L384.009 272.38L385.139 271.28L484.189 204.08L485.199 203L485.749 201.79L486.499 197.96L486.409 197.48L486.259 197.19L485.979 196.77L485.919 196.21L486.009 195.52L486.369 194.04L486.429 193.2L486.029 188.17L486.109 185.4L486.629 183.2L486.689 183.06L486.799 182.83L490.749 177.81L491.829 175.98L493.359 172.69L493.569 171.96L493.869 171.31L494.269 170.57L496.429 168.12L496.789 167.58L499.379 162.45L501.109 160.7L501.579 160.02L501.729 159.56L501.939 157.76L502.049 157.3L502.239 156.77L502.579 156.25L504.159 154.29L504.379 153.88L504.569 153.4L504.829 152.02L504.849 150.85L619.139 152.52L618.709 150.61L617.399 149.73L615.749 149.06L614.359 147.83L616.979 147.56L617.999 145.87L618.509 143.95L619.609 143.04L621.549 142.77L623.879 141.97L625.839 140.65L627.139 137.88L627.979 137.4L628.279 136.67L627.119 135L626.669 134.08L626.609 133.02L626.699 131.9L626.509 125.38L626.649 124.23L624.449 122.85L621.969 116.19L619.139 114.74L619.969 112.79L619.799 110.91L618.829 109.28L617.259 108.08L616.319 109.1L613.779 105.58L611.529 101.58L613.889 98.85L614.329 95.54L613.509 89.27L614.029 86.37L614.969 83.78L615.369 81.37L614.359 79.01L616.099 78L617.499 76.16L618.559 74.09L619.979 69.03L620.179 66.82L619.609 65.19L618.899 64.17L617.789 61.68L616.009 59.24L616.579 58.61L618.219 58.14L619.139 55.98L620.079 54.38L621.009 53.27L621.919 52.42L622.629 51.45L622.909 50.06L622.129 47.48L622.169 46.32L623.419 45.83L624.149 45.32L626.649 42.58L627.479 41.95L632.389 39.24L633.799 35.94L634.279 31.51L634.239 23.25L634.199 19.84L634.769 15.7L634.179 13.68L632.869 12.06L630.809 10.2L628.679 8.66L627.119 8.03L626.169 8.25L624.189 9.07L622.909 9.05L621.999 8.66L620.079 7.17L616.239 6.42L612.039 6.23L610.839 6.71L609.249 7.86L606.489 10.51L605.179 11.05L599.319 11.79L595.459 10.12L593.259 9.61L591.359 10.51L589.849 10.94L587.459 10.54L583.319 9.05L581.909 10.36L580.349 10.94L578.599 10.8L576.659 10L575.479 11.68L572.759 11.08L569.619 9.72L567.269 9.05L565.529 9.78L563.949 11.05L562.029 12.27L559.239 12.82L540.619 10.04L537.329 8.83L535.139 7.17L531.919 7.92L529.539 7.17L521.859 4.67L516.569 4.3L508.979 6.04L506.489 5.54L501.979 2.78L500.269 2.16L498.959 2.32L496.089 3.86L494.649 4.23L491.929 4.62L486.639 6.4L483.889 6.92L477.919 6.66L472.349 5.78L469.859 5.69L461.759 6.31L451.329 5.65L440.819 6.57L428.749 6.19L424.069 6.83L421.949 6.6L414.869 4.28L412.069 1.98L410.719 1.21L408.799 1Z" fill="#CCCCCC" stroke="white" stroke-width="0.5"/>
<path d="M741.101 131.51L738.191 131.34L736.021 129.79L733.991 127.79L731.481 126.29L729.111 125.77L703.111 123.34L701.161 123.81L701.051 124.47L699.751 128.03L698.071 131.32L697.621 131.62L696.141 132.18L695.721 132.04L694.121 131.27L693.421 131.12L692.481 131.48L690.831 132.77L689.941 133.21L687.411 133.68L686.141 133.76L684.841 133.71L682.111 133.96L680.161 135.23L678.371 136.7L673.431 138.62L670.291 142.85L668.511 144.13L663.901 144.99L659.741 145.01L655.491 144.19L650.681 142.48L648.581 142.28L645.581 142.62L642.891 143.36L641.781 144.4L640.901 146.84L638.571 147.46L636.061 147.82L633.501 150.95L630.981 152.05L628.131 152.63L623.401 152.28L620.591 152.72L619.141 152.53V152.52L504.851 150.85L504.831 152.02L504.571 153.4L504.381 153.88L504.161 154.29L502.581 156.25L502.241 156.77L502.051 157.3L501.941 157.76L501.731 159.56L501.581 160.02L501.111 160.7L499.381 162.45L496.791 167.58L496.431 168.12L494.271 170.57L493.871 171.31L493.571 171.96L493.361 172.69L491.831 175.98L490.751 177.81L486.801 182.83L486.691 183.06L486.631 183.2L486.111 185.4L486.031 188.17L486.431 193.2L486.371 194.04L486.011 195.52L485.921 196.21L485.981 196.77L486.261 197.19L486.411 197.48L486.501 197.96L485.751 201.79L485.201 203L484.191 204.08L385.141 271.28L384.011 272.38L383.881 273.22L384.561 274.41L398.551 289.19L397.891 293.6L398.121 295.55L397.631 297.42L396.821 298.86L394.151 301.06L392.531 302.17L390.561 303.83L389.051 304.43L386.701 304.83L367.341 314.9L365.331 316.79L361.851 319.34L360.721 320.69L359.521 324.98L357.211 329.32L356.871 330.7L356.891 331.94L357.361 333.06L357.811 333.72L358.581 334.43L359.751 334.75L361.061 334.95L362.281 335.37L363.201 336.25L363.671 337.27L364.781 341.9L365.331 348.11L364.901 352.04L364.881 355.31L365.121 356.69L365.541 358.04L366.271 359.37L373.431 370.1L374.151 371.5L374.541 373.32L374.691 375.49L374.541 378.94L374.841 381.08L376.981 388.17L377.791 389.66L378.921 390.98L384.051 395.24L385.221 396.56L386.891 399.01L388.961 403.45L391.141 414.58L391.611 415.93L395.761 424.62L497.351 387.25L518.991 376.27L539.831 283.23L540.551 282.78L541.491 283.49L542.491 284.68L543.711 285.76L544.991 286.53L546.321 286.77L547.671 286.48L556.641 282.12L558.481 282.43L559.881 283.18L561.041 284.35L562.181 285.29L563.241 286.53L563.951 287.76L565.191 288.77L566.791 289.27L569.331 289.04L572.731 289.57L576.941 290.82L578.521 291.02L580.501 290.71L582.081 289.83L586.061 286.23L587.151 286.58L589.371 288.26L591.971 289.83L593.161 290.37L593.951 290.65L595.061 290.85H596.291L600.401 290.23L601.551 290.72L603.451 292.67L605.711 294.24L606.331 295.39L606.571 298.11L609.181 306.45L609.781 307.69L610.721 308.75L615.951 311.3L617.341 312.23L618.901 312.87L620.561 313.15L624.201 313.01L625.691 313.58L627.041 314.38L628.511 315.04L629.661 315.29L632.431 315.27L658.281 316.32L663.621 316.01L665.691 316.21L693.211 322.17L695.971 323.31L698.951 325.08L705.731 329.97L715.901 333.53L715.961 333.55L717.671 331.28L719.081 329.94L720.511 328.17L720.371 326.71L719.661 325.18L719.391 323.16L719.971 321.79L721.921 319.27L722.141 317.83L721.051 316.14L719.401 315.84L717.801 315.8L716.901 314.86L716.321 304.91L715.661 301.55L714.321 297.28L713.641 293.83L714.271 290.54L718.951 283.57L723.831 272.62L726.761 269.51L736.941 263.9L739.511 260.94L740.051 258.09L739.201 255.27L737.651 252.4L741.831 246.59L748.651 245.67L756.371 246.54L763.291 246.17L765.141 245.46L765.921 244.89L766.441 244.16L776.641 235.34L777.551 232.39L777.961 225.32L781.951 219.6L788.291 214.15L793.001 208.48L792.091 202.07L791.621 200.37L792.661 199.25L794.301 198.28L795.571 197L795.821 195.12L794.771 194.02L791.481 192.36L788.861 189.98L786.561 187.26L784.621 184.24L783.101 181.03L780.951 173.98L779.071 171.18L772.471 168.13L770.321 165.26L769.201 161.74L769.341 151.35L768.971 147.75L766.921 139.15L766.091 137.61L764.611 136.46L763.051 135.81L761.871 135.04L761.651 134.28L761.441 133.52L759.801 133.21L758.771 132.45L757.881 131.54L756.691 130.72L751.271 129.24L748.501 128.97L746.031 129.61L741.101 131.51Z" fill="#CCCCCC" stroke="white" stroke-width="0.5"/>
<path d="M95.8103 209.39L94.8003 209.34L95.1903 209.76L95.8103 209.39ZM150.74 184.54L149.58 178.65L147.74 175.63L145.52 174.95L137.48 174.74L135.01 175.16L133.65 176.56L132.71 178.45L131.38 180.11L128.94 180.8H126.46L124.44 181.2L122.64 182.57L120.91 185.5L120.24 188.3L121 189.91L122.17 191.32L122.77 193.54L123.16 196.85L128.04 209.78L129.45 226.1L128.98 232.84L129.45 235.68L131.33 238.41L130.23 240.61L128.82 246.59L127.95 247.81L126.71 248.84L126.04 251.29L126.02 254.09L126.63 256.27L124.27 255.76L123.16 254.55L121.85 250.64L123.04 248.57L123.76 244.63L123.51 240.62L121.85 238.41L121.65 240.23L120.93 241.63L119.72 242.59L118.09 243.11L117.26 239.46L114.03 237.68L110 237.44L106.81 238.41L108.71 235.63L111.63 235.26L117.62 236.54L119.92 235.29L120.42 232.45L119.4 229.27L117.15 227.04L114.52 226.75L112.08 227.81L109.92 229.17L107.4 230.15L105.54 231.45L104.41 231.75L102.53 231.49L101.31 230.98L100.11 230.65L98.2803 230.89L96.8603 231.46L94.0603 233.07L92.5203 233.71L89.4103 234.35L86.4203 234.65L85.4503 236.33L84.9003 243.92L85.0103 245.93L86.8503 248.08L89.0003 248.18L91.4203 248L93.9803 249.26L97.8203 253.58L99.5603 256.17L106.16 271.31L108.11 273.28L109.58 274.32L110.4 279.23L111.5 280.81L112.46 280.62L115.55 279.26L116.68 278.92L118.4 279.21L119.18 278.72L119.97 277.04H120.91L121.69 279.8L123.67 281.82L128.44 284.65L135.03 289.58L136.51 290.28L140.88 290.14L142 290.78L144.07 292.64L145.81 293.82L152.01 295.94L153.82 295.3L164.45 294.65L167.17 293.77L169.72 292.54L171.84 291.14L174.53 293.33L177.23 294.12L184.14 293.96V294.99L178.57 296.78L176.54 296.96L174.31 296.51L170.29 295.03L168.07 294.99L166.34 295.61L161.5 298.67L160.01 300.11L157.46 303.42L155.77 304.48L153.61 302.53L150.06 302.36L147.37 303.58L147.74 305.84L149.71 308.42L154.75 317.64L150.26 314.06L146.03 307.4L141.01 302.31L134.16 303.45L132.74 300.65L131.53 299.8L129.45 299.7L128.19 300.6L124.32 304.46L123.71 305.41L122.82 304.11L121.65 299.33L120.91 297.81L119.16 296.91L112.35 294.99L110.89 297.47L110.74 299.94L111.5 305.84L111.07 307.32L110.12 307.33L108.99 306.61L108.11 305.84L107.64 300.63L106.37 297.95L102.76 294.42L102.02 292.64L101.35 292.21L96.8403 292.17L95.3003 292.59L94.4603 293.6L93.7203 294.83L92.5203 295.94L92.1103 294.69L92.0003 293.1L92.2703 291.73L92.9903 291.14L94.4003 290.69L94.3303 289.56L93.7203 288.04L93.4603 286.44L94.7803 281.31L95.0603 278.52L94.4903 275.16L93.3003 272.47L91.9703 271.49L90.4803 271.88L86.0803 275.78L85.4803 276.19L85.2103 276.95L84.5003 280.59L84.0703 281.83L85.6403 286.27L90.4803 312.34L90.6603 315.28L90.9703 316.34L91.6003 317.45L91.8403 318.64L91.1603 319.94L90.1203 321.25L89.3603 322.73L88.9303 324.37L88.7703 326.09L90.3403 329.61L90.6603 330.88L90.5603 332.54L89.9503 335.49L89.8003 337L89.1403 339.78L86.0403 345.94L85.0103 348.83L85.0703 358.28L85.1003 358.31L86.9603 360.11L90.0203 371.63L91.2503 374.34L98.3703 383.89L100.4 385.89L102.17 387.01L104.77 387.22L106.08 387.53L110.69 389.72L115.12 392.77L121.42 400.46L122.24 397.09L120.29 379.4L121.04 378.24L122.15 377.66L123.52 377.25L128.88 374.54L134.47 372.42L135.84 372.08L139.95 371.88L141.33 371.65L144.73 369.95L147.1 368.45L148.38 368.69L151.18 371.11L152.75 371.59L155.07 371.26L159.31 368.95L161.65 367.27L163.4 365.54L164.49 364.17L165.86 362.75L167.23 362.49L168.64 362.87L170.01 363.53L171.33 363.98L173.96 364.19L175.24 364.69L176.44 365.41L177.49 366.55L178.08 367.84L179 371.93L179.53 373.27L179.79 375.96L180.07 377.18L180.82 378.05L183.23 377.86L195.77 372.65L212.44 362.13L215.43 359.59L220.09 353.91L221.67 352.49L231.54 346.62L234.06 345.6L235.72 344.55L252.37 331.52L252.99 330.83L252.97 330.14L253.06 329.44L253.4 328.68L254.32 328.18L255.47 327.89L256.09 327.63L256.6 327.08L256.71 326.46L256.58 325.14L256.07 322.39L255.53 320.96V320.61L257.13 318.75L259.42 317.44L262.24 314.56L263.72 312.72L264.87 311.9L268.65 310.01L269.29 308.71L269.21 307.56L267.99 305.01L267.69 304.03L267.6 303.49L267.56 302.31L267.63 301.91L267.76 301.53L268.25 300.67L268.53 300.29L270.92 298.1L271.45 297.47L271.92 296.65L272.22 295.63L272.16 293.68L272.35 292.4L272.67 291.94L273.48 291.6L275.44 291.66L280.94 290.97H281.81L283.87 290.58L288.07 288.6L288.58 288.48L289.14 288.51L291.73 288.96L292.6 288.18L293.46 286.95L293.76 286.64L294.27 286.23L295.27 285L295.98 283.32L296.15 282.63L296.23 281.87L296.11 280.27L295.12 275.7L295.4 274.32L295.7 273.55L296.45 272.96L296.92 272.49L297.36 271.91L297.58 271.28L297.83 270.15L298.24 266.53L301.09 256.37L301.68 255.05L303.31 252.25L303.5 251.76L303.95 250.17L304.22 249.53L304.71 248.67L305.33 247.92L306.39 246.31L306.86 245.2L308.37 239.57L308.56 239.21L308.76 238.89L309.42 238.12L311.49 236.44L311.79 235.88L312.09 234.97L312.75 231.73L314.12 227.95L314.4 226.19L314.72 216.69L314.27 213.68L312.96 208.2L312.39 207.84L311.19 207.86L239.36 232.67L237.35 233.06L236.26 232.79L235.58 231.52L234.4 227.51L233.82 226.21L233.08 224.95L230.94 222.05L230.79 220.11L231.35 217.4L233.33 212.1L234.89 209.35L237.01 202.43L237.76 182.87L199.69 182.75L184.66 182.69L180.66 183.21L177.96 183.56L177.24 185.57L177.22 189.65L176.72 191.46L175.1 193.04L172.91 193.52L170.46 193.15L168.03 192.11L165.75 190.35L162.18 186.26L159.9 184.66L157.77 183.87L153.67 183.4L153.14 185.13L152.01 187.47L150.74 184.54Z" fill="#CCCCCC" stroke="white" stroke-width="0.5"/>
</svg>
