<svg width="798" height="207" viewBox="0 0 798 207" fill="none" xmlns="http://www.w3.org/2000/svg">
<path d="M373.329 51.68L368.709 51.55L356.789 49.74L353.099 49.57L352.459 53.26L351.919 64.06L347.769 65.47L334.829 65.43L318.419 65.36L301.979 65.3L285.569 65.23L269.129 65.17L252.709 65.1L236.299 65.05L219.859 64.98L203.439 64.92L197.799 64.91L187.029 64.88L170.609 64.81L154.199 64.75L137.759 64.68L121.339 64.62L104.929 64.55L88.4995 64.5L71.9395 64.43L73.6895 67.11L75.1795 70.7L75.4795 74.99L73.2195 86.41V91.99L73.7795 93.01L76.4095 94.62L78.0695 97.63L82.9495 101.3L84.0195 103.21L84.6295 105.26L87.2395 110.65L87.8195 114.42L87.2395 117.28L83.9995 123.99L82.3995 126.39L90.9495 126.91L111.449 131.96L117.119 132.41L126.259 132.12L135.269 130.79L140.499 128.09L139.209 127.6L137.979 126.78L136.719 126.39V124.53L137.849 124.24L140.499 122.86L138.909 119.78L139.459 117.52L143.929 113.4L145.049 116.52L144.559 119.71L143.779 122.53L143.929 124.53L146.189 126.19L148.189 125.41L150.149 123.76L152.169 122.86L154.689 120.97L165.769 109.69L173.189 104.11L177.969 101.5L182.939 100.42L188.149 101.23L196.519 104.25L281.219 97.56L290.659 94.67L302.299 88.35L307.069 87.25L311.689 87.81L318.799 91.19L323.319 90.97L325.949 89.29L329.839 83.98L332.529 81.84L337.739 80.37L341.199 81.12L344.189 82.69L347.849 83.54L348.989 84.11L350.579 85.39L352.609 86.68L354.999 87.25L357.119 86.7L359.419 85.75L361.769 85.31L364.089 86.41L370.499 92.21L374.849 95.35L378.629 96.7L382.729 97.28L391.799 99.83L396.769 100.42L399.679 99.42L402.449 96.81L404.389 93.19L404.889 89.11H404.959L389.379 77.74L386.269 70.1L386.719 57.53L387.519 53.7L384.489 52L375.339 51.49L373.329 51.68Z" fill="#CCCCCC" stroke="white" stroke-width="0.5"/>
<path d="M21.11 206.24L21.51 199.99L22.47 196.96L24.15 194.74L28.33 190.6L29.16 187.99L33.07 181.35L42.29 179.28L53.8 179.4L97.37 179.8L137.54 180.16L196.04 180.69L230.49 181L247.49 181.16L254.54 181.23L264.45 181.31L266.22 180L266.72 160.65L266.82 156.42L266.68 156.39L228.09 148.02L225.99 147.92L218.85 149.7L213.45 150.31L211.52 150.82L209.66 151.05L208.06 150.9L205.57 149.99L203.59 149.8L200.86 151.02L199.03 154.07L198.19 155.05L196.55 155.1L194.6 154.27L191.91 151.76L190.99 149.8L190.67 148.04L190.22 146.67L189.12 145.47L184.07 144.95L180.38 146.81V148.83L171.34 153.76L164.93 155.7L160.2 154.38L159.51 149.59L160.65 143.36L159.53 137.98L152.17 135.66L146.89 137.14L137.14 143.64L132.22 145.12L127.92 147.27L124.33 151.04L121.29 152.25L118.68 146.81L115.46 148.43L111.84 148.99L104.06 148.83V150.69L107.74 150.38L110.58 151.39L112.43 153.64L113.09 157.09L114.11 157.82L118.94 162.76L120.49 165.51L117.03 162.86L114.68 162.99L109.48 167.37L111.05 163.6L110.93 158.74L109.41 154.5L106.85 152.7L101.47 152.19L98.76 150.89L96.7 148.99L93.24 146.81L89.45 145.71L76.07 145.12L73.93 143.57L64.19 131.96L64.81 127.41L62.92 119.31L56.62 124.46L44.96 133.02L34.13 132.16L25.8 123.6L18.65 113.9L15.64 116.29L12.2 118.2L8.97 118.98L6.22 120.73L3.38 129.09L1 131.96L3.48 138.13L4.45 139.55L2.39 143.9L3.55 147.51L8.07 152.7L9.55 156.3L10.17 159.84L9.52 172.55L9.71 175.78L14.85 189.19L15.33 193.29L13.47 197.2L12.36 199.44L13 201.36L17.08 202.76L21.11 206.24Z" fill="#CCCCCC" stroke="white" stroke-width="0.5"/>
<path d="M436.839 71.79L436.719 71.7L436.169 71.28L434.629 71.02L432.589 71.51L429.379 73.89L422.799 76.95L406.099 86.77L405.479 89.11H406.849L404.189 100.22L394.729 104.16L383.139 103.43L374.029 100.42L371.239 97.65L368.739 93.89L365.509 90.54L360.499 89.11L358.039 89.71L355.309 90.81L352.469 91.28L349.739 90.04L347.389 88.16L344.379 86.48L341.089 85.44L337.929 85.56L335.379 87.39L331.179 94L328.889 96.7L325.899 98.83L323.379 99.91L320.629 100.35L316.909 100.42L314.319 99.51L310.559 95.57L307.979 94.67L305.499 95.4L300.549 98.98L298.059 100.42L282.649 105.22L277.219 105.81L260.169 103.78L254.399 104.14L253.589 104.69L252.529 105.79L251.109 106.99L249.139 107.85L246.649 108.32L245.329 108.25L243.829 108L240.939 107.85L235.889 108.34L221.739 111.71L184.649 109.69L180.339 107.93L177.749 107.45L176.609 108.78L175.769 111.64L173.789 113.78L163.209 122.66L161.029 126.05L160.199 131.03L160.319 133.28L160.819 135.41L161.669 137.06L162.989 137.71L164.649 138.82L165.219 141.47L165.359 144.5L166.559 151.95L167.679 153.54L170.189 151.68L172.319 149.56L174.759 148.06L177.469 147.13L180.379 146.81L184.069 144.95L189.119 145.47L190.219 146.67L190.669 148.04L190.989 149.8L191.909 151.76L194.599 154.27L196.549 155.1L198.189 155.05L199.029 154.07L200.859 151.02L203.589 149.8L205.569 149.99L208.059 150.9L209.659 151.05L211.519 150.82L213.449 150.31L218.849 149.7L225.989 147.92L228.089 148.02L266.679 156.39L266.819 156.42L267.259 137.15L268.319 133.32L271.379 131.62L289.809 129.84L301.679 126.03L305.019 125.95L322.849 127.7L327.159 127.26L335.119 124.58L341.219 121.24L347.409 118.9L355.669 119.26L384.509 125.44L394.249 125.43L402.859 123.83L411.519 120.61L419.119 115.53L424.559 108.41L426.159 100.9L427.149 84.08L430.859 78.03L436.839 71.79Z" fill="#CCCCCC" stroke="white" stroke-width="0.5"/>
<path d="M62.9204 119.31L59.4304 111.52L55.3204 107.85L58.3504 104.61L62.7104 104.31L65.6204 103.47L64.1904 98.57L61.3704 95.62L57.2804 94L52.5804 94.22L47.9204 96.7L45.2104 95.37L42.9304 93.87L41.4404 91.9L40.8904 89.11L34.1104 94.75L18.6504 113.9L25.8004 123.6L34.1304 132.16L44.9604 133.02L56.6204 124.46L62.9204 119.31Z" fill="#CCCCCC" stroke="white" stroke-width="0.5"/>
<path d="M780.251 87.04L779.701 86.56L778.331 84.27L776.641 79.12L775.271 76.75L770.851 73.11L764.501 69.87L757.781 67.51L752.231 66.54L748.681 67.12L743.301 70.3L740.191 71.7L737.431 72.13L732.831 71.74L729.991 71.84L724.631 73.18L712.401 79.49L697.141 82.96L692.131 85.14L677.481 94.33L661.951 99.91L657.361 101.02L652.531 100.35L646.181 97.35L627.001 83.54L626.971 83.56L622.921 86.16L621.881 87.29L620.621 88.97L620.081 90.99L618.771 94.63L617.711 96.39L616.641 97.57L612.011 100.73L618.441 114.61L619.991 115.62L616.201 117.82L615.141 117.18L613.931 116.71L612.051 117.91L610.221 119.55L604.371 132.67L603.211 136.15L605.651 138.44L609.171 140.45L612.991 141.57L621.311 141.91L624.831 142.9L627.791 145.98L629.811 148.71L632.311 150.97L635.111 152.91L644.751 157.92L651.671 159.9L658.821 160.46L673.861 159.12L688.211 161.83L695.861 161.57L701.641 158.7L714.341 149.07L718.301 147.28L722.881 147.33L734.231 143.2L744.881 143.07L755.501 140.2L775.481 138.47L788.571 132.72L796.101 121.18L797.121 107.27L790.781 94.42L788.111 92.2L782.111 88.64L780.251 87.04Z" fill="#CCCCCC" stroke="white" stroke-width="0.5"/>
<path d="M458.95 1L439.67 8.13L419.75 20.94L414.12 22.29L411.88 20.58L406.75 13.74L404.28 11.38L392.83 9.53L380.59 14.2L369.41 22.45L361.17 31.41L358.23 36.04L355.5 41.74L353.43 47.72L353.1 49.57L356.79 49.74L368.71 51.55L373.33 51.68L375.34 51.49L384.49 52L387.52 53.7L386.72 57.53L386.27 70.1L389.38 77.74L404.96 89.11H405.47H405.48L406.1 86.77L422.8 76.95L429.38 73.89L432.59 71.51L434.63 71.02L436.17 71.28L436.72 71.7L436.84 71.79L442.35 66.04L448.39 63.6L455.66 68.36L467.53 79.57L480.66 89.14L480.7 89.16L480.76 89.2L480.8 89.23L498.08 98.11L507.02 100.46L517.14 101.29L521.12 102.46L529.96 107.91L534.81 109.5L540.22 110.54L543.05 112.3L548.38 119.77L555.75 126.4L564.59 130.15L574.25 131.31L584.05 130.15L592.62 127.99L595.64 129.07L603.21 136.15L604.37 132.67L610.22 119.55L612.05 117.91L613.93 116.71L615.14 117.18L616.2 117.82L619.99 115.62L618.44 114.61L612.01 100.73L616.64 97.57L617.71 96.39L618.77 94.63L620.08 90.99L620.62 88.97L621.88 87.29L622.92 86.16L626.97 83.56L627 83.54L624.84 81.99L622.17 79.06L620.46 75.41L616.93 63.6L614.41 58.4L610.84 53.89L605.72 49.76L594.37 44.42L583.49 43.59L572.78 46.48L556.55 55.61L553.28 56.67L549.58 55.33L538.72 48.71L536.89 46.64L531.75 28.98L529.38 23.97L526.04 19.32L521.72 15.81L516.7 11.73L507.04 8.5L480.35 7.29L464.61 1.28L458.95 1Z" fill="#CCCCCC" stroke="white" stroke-width="0.5"/>
</svg>
