<svg width="587" height="794" viewBox="0 0 587 794" fill="none" xmlns="http://www.w3.org/2000/svg">
<path d="M181.96 751.43L182.54 753.52L181.11 752.94L179.08 753.66L180.09 752.61L179.46 751.23L181.96 751.43ZM207.37 571.93L213.18 572.27L216.02 571.59L216.73 570.34L217.31 570.37L218.9 568.32L218.01 566.46L220.15 564.35L222.67 565.44L224.18 564.12L225.32 565.48L226.68 565.29L227.55 563.96L226.3 562.62L227.66 560.88L227.52 558.79L225.45 556.89L225.14 559.54L223.61 559.5L222.71 558.07L224.58 557.08L219.62 556.13L221.35 555.59L220.87 553.2L223.17 553.13L224.46 552.15L225.74 553.05L227.86 551.1L229.94 553.09L231.33 551.36L232.79 551.18L233.44 553.52L235.55 553.34L236.6 555.53L236.27 552.54L236.96 551.75L237.95 552.17L242.19 550.89L241.94 552.68L241.81 554.26L242.01 556.18L240.77 556.73L241.74 557.57L240.66 559.46L242.46 561.15L242.99 560.97L243.91 560.54L244.02 558.27L246.09 557.2L247.17 561.07H247.76L248.82 558.9L251.74 556.85L251.45 557.81L253.88 559.63L253.68 564.59L255.26 565.52L256.35 568.67L254.44 570.27L254.82 571.96L252.47 574.13L255.51 575.11L255.86 572.95L258.03 570.99L259.09 571.51L258 573.46L259.39 573.41L259.43 574.28H259.69L258.98 580.18L259.85 581.05L265.66 580.96L266.37 579.16L268.34 577.83L266.98 576.62L268.62 574.95L270.3 576.12L269.9 578.34L272.3 578.59L270.92 580.39L272.3 583.08L271.22 583.18L270.54 584.64L273.06 585.62L274.85 589.71L271.37 591.35L272.4 594.14L271.34 594L271.1 594.98L271.55 596.23L273.6 596.83L272.96 599.02L274.55 601L273.1 602.71L272.46 601.44L271.55 603.11L273.05 603.68L272.15 604.18L273.45 607.7L272.59 607.68L272.47 608.83L274.45 609.48L275.27 610.91L275.99 610.47L277.23 613.16L278.49 612.34L280.34 613.75L280.81 615.63L278.87 616.67L277.89 618.4L279.08 619.5L280.51 619.31L279.5 620.85L281.25 622.11L280.51 624.3L283.26 624.07L285.04 625.66L286.74 625.5L287.24 627.79L288.83 628.15V629.35L289.72 629.18L290.4 630.28L290.88 629.76L290.34 631.44L291.18 631.24L291.97 633.33L293.32 634.15L292.49 634.62L293.7 636.25L291.53 637.34L293.49 638.97L293.48 641.87L291.84 643.36L293.2 644.58L293.23 646.45L291.43 647.65L292.2 649.85L290.9 650.33L291.88 651.74L291.13 652.66L293.07 654.44L294.16 653.76L293.59 654.42L295.34 656.4L294.61 656.91L296.11 658.39L294.2 660.02L290.76 660.9L291.75 659.79L291.51 658.12L292.5 657.84L290.59 657.4L289.32 660.4L287.57 661.66L285.93 658.21L283.94 658.58L281.7 656.9L281.98 658.53L280.91 659.08L280.81 660.53L285.11 665.95L283.55 666.45L283.26 667.79L284.52 670.2L283.77 672.26L284.36 674.17L279.52 675.27L279.03 675.75L279.95 675.83L279.92 677.16L276.25 678.71L275.43 680.4L272.99 680.65L271.33 678.52L268.58 680.72L266.93 680.29L266.34 682.35L267.22 683.15L262.69 688.02L262.98 689.41L264.49 689.46L264.43 690.99L268.71 697.25L268.65 701.83L271.47 711.59L273.24 713.42L273.78 717.05V718.51L273.51 719.03L273.59 719.66L271.93 726.45L270.18 727.18V728.93L271.65 730.38L271.57 732.54L270.7 734.99L271.32 735.46L269.52 736.72L269.83 737.73L271.25 737L270.36 739.04L271.34 738.02L271.07 739L273.32 742.09L272.19 741.86L271.82 742.97L270.35 742.61L268.59 744.21L272.06 746.78L271.95 750.64L273.45 752.32L272.88 754.6L271.68 755.69L270.35 755.01L269.43 758.21L268.65 754.79L266.52 754.87L266.27 753.78L264.51 754.34L262.28 757.07L255.13 754.58L253.79 755.53L253.74 755.95L252.78 757.32L251.21 757.53L251.4 758.69L248.77 760.82L245.74 761.8L242.72 760.87L241.49 761.69L239.77 763.72L239.02 766.86L230.45 765.29L212.68 756.55L206.53 754.42L202.04 753.84L194.14 757.39L191.35 754.24L191.39 752.89L192.81 753.08L192.71 752.16L189.32 751.23L188.69 748.92L186.24 750.75L186.2 751.84L188.74 753.07L187.64 754.92L183.47 753.13L184.06 751L182.56 749.87L183.15 748.32L184.36 747.97L183.22 746.41L181.36 747.23L180.72 744.53L178.83 743.08L178.2 744.21L178.7 745.62L177.22 746.98L176.49 743.2L173.85 743.12L173.26 742.33L172.92 743.68L173.84 744.84L172.3 744.55L170.27 745.87L167.96 745.95L165.75 748.77L166.06 750.43L163.01 752.69L163.95 754.1L162.98 755.04L165.49 756.89L166.92 756.64L167.43 758.33L167.28 757.33L168.59 758.1L170.67 757.81L170.65 756.34L171.55 756.62L171.8 755.68L174.04 756.12L175.65 755.16L177.13 757.51L176.34 758.45L175.91 757.08L175.09 757.95L175.65 760.74L173.79 762.48L172.86 761.9L173.37 760.41L170.2 758.88L169.45 760.36L166.19 761.86L166.88 763.5L168.24 763.07L168.11 764.13L164.58 765.18L162.43 764.14L161.49 765.19L157.7 764.5L155.48 761.07L153.45 760.54L151.51 761.53L150.15 760.02L147.6 762.49L144.07 763.68L142.8 765.97L141.42 765.33L138.35 766.64L134.49 765.96L133.45 767.27L131.52 766.67L130.2 763.18L125.76 763.12L124.1 765.98L117.51 768.34L115.88 767.97L113.79 765.62L117.08 765.19L116.18 763.21L117.49 761.92L116.3 762.77L114.62 762.42L112.88 764.1L110.99 762.95L109.47 758.92L106.67 756.12L105.98 752.8L108.3 749.37L107.14 745.06L109.21 739.19L108.86 735.61L110.46 733.89L110.55 730.72L113.05 726.79L112.14 724.01L109.69 720.87L110.16 712.65L115.88 703.01L117.58 695.35L120.87 692.92L120.09 686.49L122.1 680.82L122.38 677.31L124.78 674.96L124.4 668.3L126.89 662.82L130.08 660.79L134.84 655.02L135.34 651.63L138.13 651.32L139.02 648.86L141.37 648.57L142.83 647.27L146.63 637.42L149.71 632.32L151.94 631.46L155.24 628.63L156.08 626.82L157.02 622.95L160 618.4L160.58 611.77L162.94 606.88L161.68 606.95L162.02 605.39L168.25 599.52L165.82 596.62L168.85 592.55L168.98 590.42L167.3 591.88L166.6 591.12L168.68 589.17L169.46 585.88L165.34 584.39L166.66 582.38L163.61 574.27L164.06 571.31L165.67 570.74L167.43 571.34L172.89 578.11L175.13 576.45L175.86 576.77L176.39 575.5L175.07 568.75L181.26 567.42L180.96 568.89L180.56 567.53L179.83 568.06L181.58 569.96L180.5 572.08L182.08 574.72L181.88 576L183.85 577.69L183.84 577.43L187.97 578.34L189.6 577.09L189.26 578.92L190.19 580.3L191.13 579.4L194.45 579.22L194.54 580.99L193.05 582.73L192.12 582.8L191.51 581.11L189.8 582.61L190.57 585.98L188.26 588.27L189.11 589.6L190.17 588.54L191.33 589.75L194.13 587.2L194.65 584.99L195.34 585.61L197.7 583.86L196.5 582.45L197.08 581.01L197.95 581.2L197.8 579.13L199.96 578.51L202.5 579.76L203.86 578.69L204.12 578.21L205.04 576.57L207.25 576.97L207.69 578.57L208.93 577.86L205.52 573.15L205.61 572.11L206.22 573.5L207.3 573.6L207.37 571.93Z" fill="#CCCCCC" stroke="white" stroke-width="0.5"/>
<path d="M267.201 479L269.161 477.96L269.051 477.04L271.451 474.26L273.641 476.36L274.161 475.41L275.721 476.36L275.971 475.46L277.531 475.22L277.831 476.6L279.311 477.54L279.341 479.53L280.861 479.33L283.811 481.27L285.601 481.24L286.041 484.09L288.011 486.78L288.881 486.66L288.201 487.41L290.211 488.05L289.051 489.73L289.731 491.22L293.371 490.44L294.711 493.25H295.181L295.891 493.07L295.871 495.07L297.171 494.62L297.351 495.58L298.471 494.03L299.241 494.2L300.331 496.8L302.761 497.22L302.271 499.8L303.041 501.29L302.221 503.41L303.271 503.39L302.681 504.22L303.471 505.62L302.611 505.97L303.261 507.5L304.661 508.21L306.541 507.52L308.831 509.31H309.161L310.231 510.04L311.061 509.37L311.171 505.4L313.581 506.38L315.611 505.36L316.971 506.75L318.501 506.09L318.431 503.02L316.261 502.63H315.911L315.741 501.41L313.681 501.25L311.841 499.02L310.181 498.5L310.991 496.15L310.021 496L310.201 494.16L312.651 494.79L314.661 492.14L315.881 492.67L317.591 491.37L319.511 491.82L320.401 490.97L321.361 492.57L322.441 491.92L322.921 491.73L324.191 491.38L327.311 495.82L328.131 495.66L327.871 494.07L330.631 494.6L331.091 496.2L333.711 495.42L333.941 494.07L335.621 493.94L335.791 495.69L337.061 495.29L338.331 497.54L336.771 500.59L337.581 502L339.881 502.49L339.471 503.57L340.391 503.25L340.701 501.26L344.291 503.7L344.621 501.68H344.881L344.301 501.2L345.431 499.95L344.921 496.88L345.871 496.96L344.931 495.43L346.401 494.56L344.711 490.58L345.281 487.54L344.091 485.69L344.061 482.72L346.561 482.09L346.811 483.04L347.521 481.66L348.811 481.52L348.761 479.75L350.391 479.53L350.321 478.53L355.741 479.48L356.371 480.67L356.021 481.46L355.051 481.22L355.071 486.17L357.001 487.43L356.511 488.62L357.901 487.41L359.061 487.59L358.821 490.54L361.471 491.02L361.561 493.12L363.981 492.07L364.701 490.61L366.121 490.32L368.101 491.86L373.411 490.37L373.791 491.01L375.381 489.71L376.941 490.03L376.241 489.16L377.521 489.59L377.961 488.67L380.861 490.36V491.67L387.141 488.29L389.051 489.84L388.791 491.08L389.751 490.64L390.941 491.78L390.571 495.54L391.841 495.18L394.961 498.03L395.031 497.41L397.861 497.25L398.441 498.79L400.001 499.94L399.601 500.86L400.941 503L398.251 504.32L397.851 505.61L400.111 507.25L401.591 506.97L402.201 509.44L403.131 509.17L403.671 510.59L404.571 510.64L404.061 511.08L405.761 513.65L404.391 516.26L404.731 519.53L406.761 521.01L407.821 520.71L409.541 522.79L408.651 524.58L412.251 525.12L412.921 527.13L413.561 526.44L415.471 528.64L417.571 528.79L417.661 529.86L419.501 530.11L419.571 531.87L421.371 530.83L423.251 532.21L423.841 533.12L422.031 535.42L422.481 536.67L426.911 538.18L427.101 540.15L423.741 544.51L423.771 546.31L422.291 546.55L421.641 549.01L422.141 551.4L417.631 553.93L417.741 555.73L420.181 559.56L423.081 561.17L425.261 561.24L425.661 567.94L427.731 567.79L429.601 575.79L431.621 576.9L432.571 576.33L433.061 577.2L432.391 581.75L433.871 584.08L433.901 585.92L437.161 586.88L440.281 589.8L441.741 594.47L446.071 594.7L448.241 596.18L448.211 594.15L452.171 594.76L456.171 598.51L457.581 598.66L457.891 602.52L459.191 602.6L459.661 603.88L460.941 604.26L461.371 606.1L463.031 607.05L462.861 608.59L466.711 611.48L467.141 614.93L470.771 617.19L474.191 616.73L480.831 623.03L481.461 629.52L487.321 633.92L488.141 633.8L488.121 631.25L489.651 630.75L492.761 631.12L494.561 634.28L495.861 633.16L495.451 634.18L498.551 639.83L501.391 640.08L502.781 639.26L504.441 644.17L506.281 644.71L507.671 647.78L507.061 649.44L509.271 650.33L506.381 655.76L507.491 657.09L509.111 657.38L507.521 658.07L508.201 665.48L506.731 667.23L506.761 669.29L504.741 671.22L504.031 670.26L503.251 671.3L503.421 673.34L502.371 675.04L498.181 673.16L497.441 671.81L494.401 670.05L492.311 670.67L488.181 667.82L488.021 669.2L486.091 671.05L484.471 670.28L483.721 670.85L484.911 675.3L482.911 680.58L483.721 683.09L481.921 688.46L477.051 693.11L472.021 696.28L467.351 696.06L457.101 699.62L453.061 704.2L447.491 704.94L446.051 708.23L442.981 710.25L442.101 712.47L440.341 712.16L439.791 713.8L440.611 717.26L446.291 722.71L447.761 727.7L450.271 728.33L450.801 729.93L451.821 729.57L455.991 738.46L451.171 745.76L452.121 746.52L449.901 750.36L451.191 751.56L453.961 751.85L456.851 750.36L460.901 753.81L460.671 755.42L462.051 758.72L459.751 761.83L460.311 763.18L458.501 764.24L459.481 765.58L457.811 768.11L458.811 769.35L458.731 772.19L455.951 774.84L455.381 773.41L454.091 772.81L453.721 773.83L449.961 771.69L448.271 769.36L446.421 768.56L446.051 767.03L442.831 766.17L441.801 763.75L442.901 761.49L444.601 760.83L440.431 757.18L441.941 755.08L440.391 755.96L438.651 754.41L435.401 754.2L433.401 755.38L430.591 755.15L428.741 758.93L426.271 758.62L423.741 759.66L419.941 754.92L420.001 753.07L415.391 754.1L413.381 752.9L408.231 754.58L407.341 753.16L408.811 749.49L408.021 748.56L405.621 751.47L402.361 752.59L404.711 758.44L404.891 761.43L403.101 761.94L403.291 760.69L400.801 761.5L395.941 760.23L393.321 761.07L392.561 759.63L390.481 760.73L386.511 760.69L382.831 761.81L382.111 763.7L378.161 762.82L370.551 763.5L368.861 762.51L368.711 763.83L366.781 764L365.761 769L364.771 769.98L360.541 770.91L355.861 770.14L352.721 773.99L354.221 774.42L355.111 776.6L349.741 776.17L346.771 778.25L346.681 780.09L345.331 781.07L342.491 781.26L344.341 778.17L341.311 777.63L336.341 779.66L335.571 781.14L326.711 780.97L326.261 779.41L327.151 777.97L323.671 774.14L324.071 773.23L319.851 773.09L320.081 771.25L322.931 770.19L321.031 767.94L314.071 770.09L312.871 768.2L308.811 767.23L308.531 765.86L302.681 764.96L301.011 768.25L297.911 768.13L293.581 766.2L295.201 763.41L292.481 763.49L291.981 764.17L293.401 766.33L292.041 771.11L292.811 772.85L294.431 773.6L294.871 777.69L292.371 779.76L292.341 782.53L289.821 783.03L285.601 789.67L279.411 792.92L277.361 792.34L275.761 793L275.971 790.55L278.211 789.02L277.251 787.58L279.651 782.46L279.021 781.92L278.111 782.7L276.201 781.46L275.021 783.76L272.051 783.17L270.801 785L269.011 779.7L271.211 778.13L270.471 775.78L268.001 774.6L267.271 772.57L264.541 773L263.671 771.61L264.201 771.12L262.271 769.37L262.611 767.05L262.131 768.13L259.431 768.61L256.901 766.87L256.421 768.74L252.671 766.87L253.431 763.96L251.771 762.43L249.261 763.52L247.631 768.24L238.961 766.89L239.711 763.75L241.431 761.72L242.661 760.9L245.681 761.84L248.721 760.86L251.351 758.73L251.161 757.57L252.731 757.36L253.681 755.99L253.731 755.57L255.071 754.61L262.221 757.1L264.451 754.38L266.211 753.82L266.461 754.92L268.581 754.84L269.371 758.25L270.291 755.06L271.631 755.74L272.821 754.65L273.401 752.37L271.891 750.68L272.001 746.83L268.531 744.26L270.291 742.66L271.751 743.02L272.121 741.91L273.261 742.14L271.011 739.04L271.281 738.07L270.301 739.09L271.191 737.05L269.771 737.78L269.461 736.77L271.261 735.51L270.631 735.04L271.501 732.59L271.581 730.43L270.111 728.98V727.23L271.861 726.5L273.521 719.71L273.441 719.08L273.721 718.56V717.09L273.181 713.47L271.411 711.64L268.601 701.88L268.661 697.3L264.381 691.04L264.441 689.51L262.921 689.46L262.641 688.07L267.171 683.2L266.291 682.39L266.881 680.33L268.521 680.77L271.271 678.56L272.931 680.69L275.371 680.44L276.201 678.75L279.871 677.2L279.891 675.87L278.971 675.79L279.461 675.31L284.301 674.21L283.721 672.3L284.461 670.23L283.201 667.82L283.491 666.49L285.051 665.99L280.751 660.56L280.841 659.11L281.911 658.56L281.631 656.93L283.881 658.61L285.871 658.24L287.511 661.69L289.261 660.43L290.531 657.42L292.441 657.87L291.461 658.15L291.691 659.81L290.701 660.92L294.141 660.04L296.051 658.42L294.551 656.93L295.281 656.42L293.531 654.45L294.101 653.79L293.011 654.48L291.071 652.69L291.821 651.77L290.841 650.36L292.141 649.88L291.371 647.68L293.171 646.48L293.151 644.61L291.781 643.39L293.431 641.9L293.441 639.01L291.481 637.37L293.661 636.28L292.441 634.64L293.281 634.17L291.931 633.35L291.141 631.26L290.301 631.46L290.841 629.78L290.371 630.3L289.681 629.19L288.801 629.36V628.16L287.211 627.8L286.711 625.51L285.011 625.67L283.231 624.08L280.481 624.31L281.221 622.12L279.471 620.86L280.491 619.31L279.061 619.51L277.871 618.41L278.851 616.68L280.791 615.64L280.331 613.77L278.471 612.36L277.221 613.18L275.981 610.48L275.261 610.92L274.441 609.49L272.451 608.84L272.571 607.69L273.441 607.71L272.141 604.19L273.041 603.69L271.541 603.12L272.451 601.45L273.091 602.72L274.531 601.01L272.941 599.03L273.581 596.84L271.541 596.24L271.081 594.99L271.331 594.01L272.381 594.15L271.351 591.36L274.831 589.72L273.041 585.62L270.521 584.64L271.201 583.19L272.291 583.09L270.911 580.4L272.291 578.6L269.891 578.34L270.291 576.12L268.601 574.96L266.971 576.62L268.331 577.83L266.361 579.17L265.651 580.97L259.851 581.05L258.971 580.18L259.681 574.29H259.421L259.371 573.42L257.981 573.47L259.071 571.52L258.021 571L255.851 572.96L255.501 575.11L252.461 574.13L254.801 571.97L254.431 570.28L256.341 568.68L255.251 565.53L253.671 564.6L253.871 559.64L251.441 557.82L251.731 556.86L248.811 558.91L247.751 561.08H247.171L246.081 557.21L244.011 558.28L243.901 560.55L242.991 560.98L242.461 561.16L240.661 559.47L241.741 557.58L240.771 556.75L242.011 556.2L241.811 554.28L241.951 552.69L242.201 550.9L237.961 552.18L236.971 551.76L236.271 552.55L236.601 555.54L235.561 553.34L233.451 553.52L232.801 551.18L231.341 551.36L229.951 553.09L227.871 551.1L225.751 553.05L224.471 552.15L223.171 553.14L220.871 553.21L221.361 555.6L219.631 556.14L224.591 557.09L222.721 558.08L223.621 559.51L225.151 559.55L225.461 556.9L227.521 558.79L227.661 560.89L226.301 562.63L227.551 563.96L226.691 565.3L225.321 565.48L224.181 564.12L222.671 565.43L220.151 564.34L218.001 566.45L218.901 568.32L217.311 570.37L216.731 570.34L216.021 571.59L213.181 572.27L207.371 571.93L206.131 569.66L205.081 569.48L205.071 567.8L207.311 565.66L206.541 560.55L208.981 559.81L208.611 558.52L210.221 555.87L207.641 554.11L209.371 551.81L208.931 550.45L206.551 550.91L205.731 548.34L206.271 545.47L204.931 546.93L204.181 546.19L204.711 545.51L203.101 545.72L202.901 543.5L204.001 543.44L202.251 539.17L201.951 532.51L202.431 531.11L203.941 530.97L202.981 529.89L202.631 526.34L199.301 525.58L200.701 523.5L200.651 521.26L202.011 519.32L208.401 517.82L210.631 518.76L210.461 521.27L212.971 517.79L212.641 516.68L214.891 515.58L217.011 516.63L220.551 517.15L221.731 516.42L222.531 517.31L224.371 517.33L226.411 521.39L228.431 521.98L233.421 520.97L233.131 515.94L233.951 515.52L234.441 513.9L234.351 513.77L232.521 512.85L232.651 511.23L233.621 510.62L232.321 507.91L232.651 506.4L235.311 508.08L237.491 507.3L237.911 508.38L243.111 507.21L243.181 506.46L241.401 505.51L242.461 503.46L245.481 502.48L248.351 499.61L248.371 496.46L247.501 495.03L249.331 488.1L250.551 488.74L251.901 488.1L252.311 489.29L255.491 490.92L256.281 489.6L256.991 490.62L258.251 490.23L261.901 488.2L264.441 484.43L265.701 483.94L267.201 479Z" fill="#CCCCCC" stroke="white" stroke-width="0.5"/>
<path d="M486.1 258.7L486.17 258.74L486.88 258.4L486.81 259.79L489.09 261.2L487.47 265.08L488.16 266.7L490.83 267.18L492.89 268.95L493 271.25L496.23 272.01L495.73 273.13L497.55 273.25L494.62 279.32L495.4 279.9L496.97 278.57L500.69 281.08L500.34 279.73L504.04 282.3L502.8 283.44L501.87 283.22L503 283.76L503.03 284L502.72 284.04L502.36 284.68L502.8 285.82L502.17 286.86L499.44 288.26L500.29 289.44L498.58 290.34L496.99 293.2L496.28 292.46L496.74 289.21L495.8 288.62L494.37 289.42L493.4 287.51L489.92 287.92L489.85 286.81L486.28 287.24L485.43 284.74L482.47 285.77L482.45 289.32L480.47 289.13L480.32 288.04L479.3 288.01L477.58 285.72L476.11 286.48L475.12 286.16L474.65 285.09L473.18 286.33L471.58 286.31L471.37 284.69L470.08 284.56L466.38 286.13L465.81 287.14L466.62 287.27L464.18 287.76L463.84 287.78L464.47 286.96L462.28 285.71L461.97 285.54L461.51 285.53L461.91 284.44L463.6 282.8L462.77 281.62L463.3 278.6L466.43 275.35L464.9 274.27L463.25 274.56L463.88 271.11L465.07 270.83L465.57 268.52L463.99 267.3L466.23 266.01L469.59 267.16L468.63 265.17L469.85 262.95L472.59 263.01L472.42 261.66L473.8 261.47L473.82 259.49L475.52 259.85L475.5 262.84L478.7 263.39L480.91 260.83L482.75 262.09L484.1 260.59L485.77 260.5L484.48 259.28L485.04 258.58L485.95 258.05L486.33 258.16L486.1 258.7Z" fill="#CCCCCC" stroke="white" stroke-width="0.5"/>
<path d="M345.27 210.85L353.29 212.04L353.57 209.04L355.09 208.88L356.33 209.52L357.76 208.96L358.3 210.39L360.33 211.05L362.17 210.55L363.71 209.2L363.33 207.82L364.39 206.28L363.38 201.58L365.67 201.11L368.19 198.34L370.78 197.83L374.65 199.14L374.84 200.67L377.7 199.65L380.38 199.92L381.17 198.7L379 196.9L383.06 197.38L385.11 194.38L388.72 195.07L390.3 192.13L391.62 192.78L393.43 191.83L393.07 188.25L395.8 186.47L394.96 184.18L397.13 184.64L397.28 186.86L399.16 187.14L401.69 185.35L402.84 187.66L403.89 187.29L404.01 186.21L406.72 185.61L408.5 189.34L411.81 188.89L417.05 191.86L417.09 193.56L419.29 194.59L420.38 197.3L425.49 195.76L430.6 197.91L434.18 196.86L435.12 197.37L434.46 199.02L435.61 199.76L440.19 200.06L439.05 202.57L441.04 203.89L445.97 202.4L447.93 204.68L449.56 203.17L451.19 203.01L450.64 203.81L451.87 203.96L451.71 203.13L453.51 202.49L454.52 203.41L452.15 205.24L453.18 204.86L454.22 206.6L456.11 206.11L458.27 203.07L460.71 202.55L461.27 201.14L462.5 200.96L462.43 198.81L464.03 198.83L465.33 197.28L467.47 197.35L468.74 200.24L470.49 200.91L471.42 196.66L474.91 194.09L477.36 194.89L478.78 194.41L480.41 198.15L481.65 197.5L481.54 197.32L483.73 193.59L483.61 192.16L484.74 192.12L485.24 193.14L486.64 192.78L487.78 189.24L489.03 189.88L488.63 186.34L489.15 184.9L490.33 185.05L491.24 183.69L490.85 181.46L493.14 179.87L495.66 180.22L496.11 176.86L501.25 172.61L502.88 172.15L505.18 173.43L507.54 172.18L508.18 170.9L505.11 169.06L506.28 164.27L508.18 168.64L511.65 170.07L511.52 173.34L514.04 175.52L513.13 177.93L514.14 178.92L519.51 177.56L522.4 178.08L522.76 179.84L524.98 180.12L527.24 176.89L530.98 178.89L532.78 178.73L533.7 177.57L534.78 178.25L535.09 182.53L533.9 185.64L527.79 192.17L525.74 196L529.65 195.5L533 196.83L536.17 196.28L536.27 194.48L538.73 193.48L539.74 190.81L541.68 190.94L545.75 188.74L546.33 194.32L547.51 194.59L547.99 195.97L545.24 201.56L543.49 202.71L542.92 206.77L544.16 208.91L542.68 215.53L541.44 218.3L536.03 223.41L528.7 227.92L529.74 236L527.33 240.88L528.55 242.33L533.41 243.16L537.26 247.55L541.9 250.08L549.08 259.43L557.55 264.95L560.16 268.78L557.98 272.81L559.86 277.29L556.44 282.38L554.48 283.27L553.53 287.26L555.26 294.15L556.66 296.24L556.13 298.14L557.24 299.85L563.33 301.67L564.97 303.75L564.49 306.6L563.16 307.88L564.38 310.53L562.8 313.39L562.93 316.21L567.84 321.46L566.97 322.63L567.14 324.94L565.01 327.97L565.47 328.99L564.43 330.71L565.41 334.18L563.77 338.42L558.38 343.18L557.14 346.09L558.17 348.39L560.67 349.35L562.12 356.51L566.51 360.37L567.76 363.25L568.24 368.66L566.03 371.23L563.91 369.62L564.34 371.6L562.8 374.18L558.71 374.48L557.5 372.27L555.68 371.39L554.2 372.17L553.79 373.55L548.46 373.73L548.02 375.2L544.26 375.31L541.32 377.69L540.75 379.24L540.2 378.41L540.16 377.93L536.72 376.28L535.18 376.75L533.13 375.55L528.28 375.15L527.76 376.29L528.46 377.19L526.24 377.44L525.55 379.79L524.26 380.33L525.13 381.92L521.66 382.03L523.48 385.16L521.89 386.16L522.42 387.86L520.55 389.25L521.26 390.12L519.78 390.27L519.42 392.47L517.64 392.13L517.69 390.4L516.89 390.08L513.52 391.78L508.97 391.3L508 392.84L505.69 392.74L505.06 393.54L504.63 392.74L502.99 393.61L498.26 392.11L497.7 392.84L493.74 392.9L493.22 391.39L492.01 391.25L490.4 392.84L490 391.6L489.11 391.55L488.89 389.53L485.26 388.5L485.92 387.82L484.19 386.41L482.57 387.48L483.01 386.26L481.22 384.31L479.72 386.06L479.88 387.17L476.39 386L476.73 387.1L474.03 388.6L473.99 389.9L472.4 389.72L472.8 391.3L469.46 390.15L468.1 386.06L467.8 387.33L466.95 386.9L468.72 384.59L467.4 382.12L467.55 380.41L468.62 380.33L469 377.1L467.59 373.71L464.94 372.51L466.06 369.97L463.57 367.23L461.33 368.4L459.17 364.58L465.26 360.64L466.06 359.82L465.55 357.94L467.65 357.36L465.55 354.43L466.3 353.8L465.23 352.05L466.19 348.18L463.58 343.03L465.52 342.57L464.66 340.62L463.46 340.4L461 341.82L458.46 341.5L457.62 340.56L458.32 340.57L458.72 338.53L454.1 338.58L454.22 336.38L453.01 336.17L453.14 334.88L450.68 334.46L448.74 335.69L448.56 334.99L446.39 334.89L445.92 331.51L441.78 332.04L440.23 329.57L434.86 326.96L433.89 326.89L433.16 328.78L431.24 329.05L431.11 330.05L426.49 329.69L426.24 327.94L423.35 326.79L422.64 324.76L421.49 324.65L420.78 326.44L419.8 326.52L416.87 323.76L414.95 323.29L412.03 318.69L409.63 317.44L408.76 314.54L406 310.74L406.55 309.14L407.8 309.16L407.85 306.33L411.04 304.62L408.65 303.92L409.43 303.39L407.73 302.13L409.71 295.45L411.67 292.33L410.09 290.32L411.49 289.04L410.73 288.19L411.21 286.04L409.51 285.21L410.96 284.27L410.46 283.56L413.17 278.62L411.75 277.51L413.13 276.62L409.33 277.68L408.62 276.74L409.28 276.21L407.53 274L405.98 276.14L403.89 276.66L402.72 274.78L404.18 272.82L402.99 272.11L401.24 273.06L403.53 268.41L402.88 263.09L404.96 263.76L406.69 262.67L406.81 261.67L407.2 257.21L406.1 256.37L406.43 254.82L405.29 254.03L405.5 253.12L404.74 253.32L406.22 250.58L405.39 249.06L406.12 246L407.99 245.82L408.5 244.22L406.96 238.28L404.86 237.6L404.45 236.54L400.05 239.21L399.93 234.94L399.17 236.77L393.48 235.34L390.73 236.87L385.02 234.87L383.6 233.32L381.36 233.29L380.59 232.05L382.27 229.99L382 228.77L378.3 227.9L375.5 224.89L372.47 226.12L371.37 222.87L368.14 222.5L369.02 219.68L366.5 219.92L363.2 218.06L360.74 218.57L357.2 215.38L349.91 217.82L345.72 213.29L345.27 210.85ZM485.04 258.58L484.48 259.28L485.77 260.5L484.1 260.59L482.75 262.09L480.91 260.83L478.7 263.39L475.5 262.85L475.52 259.85L473.82 259.49L473.8 261.47L472.42 261.66L472.59 263.01L469.85 262.95L468.63 265.17L469.59 267.16L466.23 266.01L463.99 267.31L465.57 268.52L465.07 270.83L463.87 271.11L463.24 274.56L464.9 274.27L466.42 275.35L463.29 278.61L462.76 281.63L463.59 282.81L461.91 284.45L461.51 285.54L461.97 285.55L462.28 285.72L464.47 286.97L463.84 287.79L464.18 287.77L466.62 287.28L465.81 287.14L466.38 286.13L470.08 284.57L471.37 284.7L471.58 286.33L473.17 286.35L474.64 285.11L475.11 286.17L476.1 286.49L477.57 285.73L479.29 288.02L480.3 288.05L480.45 289.13L482.43 289.33L482.45 285.78L485.41 284.75L486.26 287.25L489.83 286.82L489.89 287.92L493.37 287.51L494.35 289.42L495.78 288.62L496.71 289.21L496.25 292.46L496.96 293.2L498.55 290.35L500.25 289.44L499.4 288.26L502.13 286.86L502.76 285.82L502.33 284.67L502.69 284.03L503 283.99L502.97 283.75L501.84 283.21L502.77 283.43L504.01 282.29L500.31 279.72L500.66 281.07L496.94 278.57L495.37 279.9L494.59 279.33L497.52 273.25L495.7 273.13L496.2 272.01L492.97 271.25L492.86 268.95L490.8 267.18L488.12 266.7L487.43 265.08L489.05 261.2L486.77 259.8L486.83 258.41L486.12 258.75L486.29 258.17L485.91 258.07L485.39 258.78L485.04 258.58Z" fill="#CCCCCC" stroke="white" stroke-width="0.5"/>
<path d="M168.3 199.78L169.02 199.68L172.33 201.72L173.89 200.84L175.2 201.37L173.97 203.55L175.95 203.59L176.76 205.6L180.21 205.26L181.63 204.2L182 205.08L183.46 204.73L184.38 206.47L189.91 206.43L190.56 207.16L190.75 208.09L191.96 209.57L192.07 209.9L195.27 209.79L197.24 207.7L199.7 210.43L197.46 211.52L198.42 213.27L200.11 213.53L198.37 214.86L198.54 217.5L199.56 218.94L196.77 221.27L196.62 222.36L194.03 222.35L192.23 219.58L192.17 221.54L189.42 221.69L186.58 219.67L186.23 218.19L185.18 219.76L182.8 219.66L181.98 218.05L182.31 215.79L179.47 214.23L179.7 212.93L177.2 209.16L176.49 206.13L169.57 202.89L169.3 202.55L167.75 200.02L168.25 199.65L168.3 199.78ZM170.24 159.35L174.84 160.71L176.29 159.47L178.2 159.77L178.03 158.91H179.13L176.42 162.67L177.11 164.57L178.18 164.77L177.77 167.63L178.52 169.12L177.38 171.15L175.74 172.39L174.43 171.46L173.65 172.15L171.95 168.51L172.48 168.16L173.34 168.28L173.42 165.85L173.9 166.32L172.71 165.06L172.81 162.41L172.13 162.32L171.94 163.7L170.24 159.35Z" fill="#CCCCCC" stroke="white" stroke-width="0.5"/>
<path d="M247.301 164.56L249.911 156.53L250.001 158.11L251.551 158.61L251.741 160.57L254.061 161.38L257.521 157.48L258.541 154.33L263.151 154.98L264.431 151.25L268.671 151.59L269.481 148.76L268.831 148.08L269.671 147.04L272.251 147.79L275.281 145.08L276.901 145.91L276.811 146.66L276.161 148.22L274.561 148.77L274.721 150.23L273.681 151.58L276.311 153.11L277.211 154.78L276.711 155.79L278.641 156.3L276.681 158.6L277.181 161.45L274.121 162.8L274.831 168.23L276.461 169.35L277.971 168.42L279.871 172.53L283.161 175.77L285.311 176.11L284.181 177.76L281.331 179.19L279.751 181.74H275.651L267.841 174.56L267.561 176.32L265.801 176.36L266.461 177.62L263.561 179.61L260.811 178.36L259.131 179.86L258.571 179.64L259.471 177.55L258.371 175.35L255.671 177.21L255.701 178.15L252.221 174.6L252.021 171.49L250.671 171.67L250.831 170.71L249.401 169.7L250.371 168.5L249.551 166.29L250.131 164.92L247.301 164.56Z" fill="#CCCCCC" stroke="white" stroke-width="0.5"/>
<path d="M229.541 364.63L232.401 363.58L232.121 365.73L233.271 366.68L235.481 365.31L237.101 366.91L240.681 365.71L241.421 368.5L244.741 371.74L244.021 372.7L240.911 371.01L240.681 372.46L241.981 374.34L240.481 374.65L239.361 373.36L240.351 376.21L238.101 377.89L241.741 382.62L240.751 385.06L241.821 387.94L240.841 389.27L237.621 389.67L236.411 391.9L237.541 392.75L237.011 393.66L234.651 393.15L236.561 395.41L239.301 397.46L241.061 397.38L240.961 398.8L243.481 398.12L247.561 400.46L249.741 399.31L250.021 396.24L247.891 397.99L245.531 393.48L248.111 392.78L249.931 391.02L251.691 391.28L251.501 388.99L252.961 388.61L254.261 389.56L254.331 391.48L255.931 392.71L255.011 388.33L256.781 389.26L257.021 388.3L258.261 388.02L260.091 390.53L259.931 392.32L259.731 394.45L261.221 397.98L260.641 399.25L262.541 399.94L262.751 401.55L268.051 402.15L267.521 404.69L269.471 405.76L268.891 407.43L271.711 408.56L273.371 408.01L273.981 409.37L275.071 408.91L276.991 410.9L279.621 411.58L277.391 415.08L278.001 417.67L277.191 418.97L275.091 414.9L272.141 416.3L275.651 418.62L273.781 421.83L274.361 423.41L273.521 424.36L277.631 426.82L278.241 427.75L276.851 428.5L277.571 429.59L273.891 431.11L272.151 429.33L271.081 429.98L267.041 429.06L265.781 432.25L267.141 433.66L267.281 435.51L268.571 435.96L266.401 436.69L266.091 436.09L265.311 436.99L261.371 436.21L261.601 438.1L262.281 437.17L263.761 437.27L262.731 439.66L265.301 438.27L267.761 440.43L267.561 441.53L268.311 441.45L268.391 442.23L265.981 443.92L265.911 445.67L266.971 445.23L266.271 447.07L264.931 446.81L264.361 447.95L263.351 447.49L262.941 447.34L261.521 448.42L260.941 450.59L261.561 453.19L259.801 453.15L259.541 454.67L260.611 455.01L260.711 456.68L258.691 460.04L259.611 461.19L256.821 463.58L256.651 466.57L261.971 467.66L262.471 466.47L261.271 464.93L261.571 463.87L264.561 462.96L267.971 463.49L269.791 468.35L267.671 468.26L266.901 469.54L268.441 475.03L267.001 477.69L267.201 479L265.701 483.94L264.441 484.43L261.901 488.2L258.251 490.23L256.991 490.62L256.281 489.6L255.491 490.92L252.311 489.29L251.901 488.1L250.551 488.74L249.331 488.1L247.501 495.03L248.371 496.46L248.351 499.61L245.481 502.48L242.461 503.46L241.401 505.51L243.181 506.46L243.111 507.21L237.911 508.38L237.491 507.3L235.311 508.08L232.651 506.4L232.321 507.91L233.621 510.62L232.651 511.23L232.521 512.85L234.351 513.77L234.441 513.9L233.951 515.52L233.131 515.94L233.421 520.97L228.431 521.98L226.411 521.39L224.371 517.33L222.531 517.31L221.731 516.42L220.551 517.15L217.011 516.63L214.891 515.58L212.641 516.68L212.971 517.79L210.461 521.27L210.631 518.76L208.401 517.82L202.011 519.32L200.651 521.26L200.701 523.5L199.301 525.58L202.631 526.34L202.981 529.89L203.941 530.97L202.431 531.11L201.951 532.51L202.251 539.17L204.001 543.44L202.901 543.5L203.101 545.72L204.711 545.51L204.181 546.19L204.931 546.93L206.271 545.47L205.731 548.34L206.551 550.91L208.931 550.45L209.371 551.81L207.641 554.11L210.221 555.87L208.611 558.52L208.981 559.81L206.541 560.55L207.311 565.66L205.071 567.8L205.081 569.48L206.131 569.66L207.371 571.93L207.191 573.61L206.111 573.52L205.501 572.12L205.411 573.16L208.821 577.87L207.581 578.59L207.141 576.99L204.931 576.59L204.011 578.24L203.751 578.72L202.391 579.78L199.851 578.53L197.691 579.15L197.841 581.21L196.981 581.03L196.401 582.46L197.591 583.87L195.241 585.62L194.551 585.01L194.021 587.21L191.221 589.76L190.061 588.55L188.991 589.62L188.141 588.29L190.451 586L189.681 582.63L191.401 581.13L192.011 582.83L192.941 582.76L194.431 581.02L194.341 579.24L191.021 579.42L190.081 580.32L189.151 578.94L189.491 577.11L187.871 578.36L183.741 577.45V577.72L181.771 576.02L181.981 574.74L180.401 572.1L181.471 569.99L179.731 568.08L180.461 567.55L180.861 568.92L181.161 567.45L174.971 568.78L176.291 575.53L175.761 576.81L175.031 576.48L172.791 578.14L167.331 571.37L165.571 570.77L163.961 571.34L161.511 567.15L159.931 560.7L164.951 557.76L167.581 553.81L167.101 553.13L164.041 553.18L161.251 547.83L161.581 544.58L159.041 542.45L159.691 538.49L157.591 532.69L152.641 527.67L148.781 526.89L139.621 530L135.091 532.55L129.761 533.15L128.601 532.31L127.701 529.09L122.631 524.67L124.511 522.1L126.741 522.07L126.291 520.63L127.621 517.79L129.651 519.04L130.791 518.34L132.591 520.2L132.031 517.08L132.751 516.09L129.681 513.68L129.601 512.36L131.321 511.16L131.331 510.21L133.631 509.58L133.891 508.62L136.161 507.79L136.301 506.79L137.841 508.77L139.151 508.96L140.431 506.85L140.171 506.5L138.471 504.83L139.391 503.49L141.751 503.35L142.181 504.43L143.861 504.54L144.671 500.7L143.621 499.65L143.571 497.97L141.671 497.42L141.961 495.87L140.891 493.22L140.011 493.14L139.831 492.1L138.081 492.2L138.481 490.62L136.161 490.71L134.761 489.56L136.141 488.38L136.321 487.22L135.491 486.86L137.741 485.32L135.671 481.91L136.751 478.16L139.831 474.89L141.581 476.74L143.631 477.29L145.691 475.55L146.721 470.72L145.091 469.67L145.971 467.41L144.041 464.67L144.981 462.08L147.711 457.2L145.321 452.67L145.571 451.64L145.971 451.51L154.041 442.46L155.611 442.35L156.561 444.44H159.911L164.591 438.73L166.361 438.61L165.721 436.37L166.251 433.87L167.511 433.54L167.301 432.81L171.281 428.46L170.121 426L169.231 426.31L170.621 424L169.061 422.33L170.681 420.6L172.601 420L178.901 420.85L180.651 419.51L182.951 419.31L181.721 417.95H181.481L181.411 416.53L185.371 412.5L184.681 410.3L185.951 409.27L184.281 408.26L183.411 404.98L183.971 403.84L183.051 402.69L181.141 402.45L175.001 405.39L172.551 402.32L176.561 396.35L177.631 395.57L178.741 396.01L179.031 394.43L180.471 393.96L180.171 392.81L181.281 392.22L183.651 392.65L188.211 390.78L190.391 390.99L191.531 392.12L193.851 390.57L196.841 390.93L197.421 387.03L195.661 386.71L195.641 384.89L193.851 381.49L201.971 377.79L203.291 379.36L205.691 379.29L206.611 380.11L205.791 383.14L206.891 385.27L209.491 384.69L210.951 385.41L212.491 383.12L214.571 383.79L215.091 380.65L217.601 379.76L218.781 378.19L220.391 378.23L220.901 374.27L224.491 370.32L222.281 367.92L227.701 366.36L229.541 364.63Z" fill="#CCCCCC" stroke="white" stroke-width="0.5"/>
<path d="M507.31 98.76L509.25 103.37L511.47 106.05L520.62 111.24L533.98 124.64L531.31 126.25L533.17 127.61L533.08 131.22L521.91 130.47L518.94 133.23L515.69 133.74L514.6 132.92L515.87 133.19L516.55 132.13L514.95 130.45L513.86 133.81L511.77 134.13L508.42 133.02L509.08 130.71L512.97 129.97L515.52 126.7L514.53 122.29L512.89 120.61L513.67 118.05L517.19 118.06L516.82 123.95L517.36 121.5L518.42 121L520.94 120.94L520.17 122.16L522.07 123.11L522.52 118.54L522.05 115.59L520.63 114.59L519.89 115.7L519.18 112.19L517.6 109.92L513.74 110L513.57 112.23L515.22 113.79L514.78 115.1L514.1 114.55L514.5 113.07L513.07 115.46L510.55 116.8L510.11 115.33L511.8 112.67L510.32 111.64L506.67 114.81L504.73 114.73L504.52 113.52L505.62 112.64L507.23 108.09L507.43 105.11L506.03 104.65L503.87 101.95L503.39 99.63L505.81 98.03L507.31 98.76ZM464.07 83.46L463.43 84.09L462.92 82.98L463.72 82.59L464.07 83.46ZM489.31 82.54L489.13 83.21L488.77 82.51L490.32 80.69L490.57 81.68L489.31 82.54ZM436.87 70.27L438.48 71.71L435.06 71.6L435.99 70.08L436.87 70.27ZM452.36 68.74L453.39 69.31L450.89 69.69L451.19 68.71L452.36 68.74ZM459.1 68.17L454.01 69.56L455.75 68.31L457.83 68.22L458.82 66.83L459.1 68.17ZM425.86 64.46L424.93 65.37L427.91 67.54L434.59 68.77L450.42 68.44L451.04 70.41L447.83 71.84L444.53 71.09L443.17 72.46L442.11 71.64L438.95 71.69L437.96 69.93L435.95 69.98L434.39 72.46L432.54 71.65L432.64 70.6L431.19 72.62L428.73 73L430.09 74.33L429.67 75.31L429.31 74.49L427.24 74.47L425.49 75.49L425.15 76.21L426.16 77.24L427.36 75.77L428.16 76.47L431.51 76.35L434.51 74.55L434.54 72.5L437.04 72.16L437.49 73.06L435.77 73.49L436.15 75L435.1 76.59L435.77 76.67L436.63 73.55L437.53 73.54L437.86 76.46L438.87 76.63L439.46 75.27L440.9 76.53L442.13 73.85L443.74 79.52L448.16 76.91L449.16 73.31L450.88 71.97L454.97 70.57L456.37 69.23L457.67 69.5L457.42 73.74L458.83 75.51L460.79 75.42L461.68 76.9L460.59 79.32L461.37 82.16L463.09 84.26L462.44 86.29L464.3 87.78L466.33 86.79L467.2 87.62L464.97 89.41L467.7 87.99L469.53 90.81L474.2 91.41L476.53 96.95L479.37 97.18L477.42 97.64L475.95 99.54L479.73 97.74L481.73 98.78L480.82 97.22L482.32 97.99L482.17 99.5L481.77 99L479.97 100.42L480.08 101.2L481.88 99.95L481.68 100.97L483.1 102.02L485.57 107.46L487.65 107.54L486.13 104.25L487.02 103.37L495.58 101.57L500.01 98.19L501.07 98.5L501.41 99.23L500.1 99.74L500.26 100.65L502.45 102.07L503.5 101.66L503.8 103.81L506.87 106.16L506.01 109.92L505.1 110.43L505.48 111.75L503.15 113.76L503.97 113.8L504.21 115.19L506.32 117.29L508.85 118.49L510.28 122.23L511.88 122.33L514 125.26L513.24 126.6L510.86 127.67L509.72 130.03L508.29 130.16L508.33 131.45L507.1 132.01L507.83 133.8L510.06 133.89L513.06 138.09L514.18 137.81L517.53 141.37L526.03 144.86L530.06 144.63L531.11 145.35L534.24 142.56L536.51 143.94L536.45 145.88L533.2 148.88L536.85 149.56L537.35 150.58L536.67 152.75L537.55 153.33L537.61 156.21L539.7 158.04L539.09 165.92L540.31 170.03L542.05 171.49L544.51 186.16L545.76 188.72L541.69 190.92L539.75 190.79L538.74 193.46L536.28 194.46L536.18 196.26L533.01 196.81L529.66 195.48L525.75 195.98L527.8 192.15L533.91 185.62L535.1 182.51L534.79 178.23L533.71 177.55L532.79 178.71L530.99 178.87L527.25 176.87L524.99 180.1L522.77 179.82L522.41 178.06L519.52 177.54L514.15 178.9L513.14 177.91L514.05 175.5L511.53 173.32L511.66 170.05L508.19 168.62L506.29 164.25L505.12 169.04L508.19 170.88L507.55 172.16L505.19 173.41L502.89 172.13L501.26 172.59L496.12 176.84L495.67 180.2L493.15 179.85L490.86 181.44L491.25 183.67L490.34 185.03L489.16 184.88L488.64 186.32L489.04 189.86L487.79 189.22L486.65 192.76L485.25 193.12L484.75 192.1L483.62 192.14L483.74 193.57L481.55 197.3L481.66 197.48L480.42 198.13L478.79 194.39L477.37 194.87L474.92 194.07L471.43 196.64L470.5 200.89L468.75 200.22L467.48 197.33L465.34 197.26L464.04 198.81L462.44 198.79L462.51 200.94L461.28 201.12L460.72 202.53L458.28 203.05L456.12 206.09L454.23 206.58L453.19 204.84L452.16 205.22L454.53 203.39L453.52 202.47L451.72 203.11L451.88 203.94L450.65 203.79L451.2 202.99L449.57 203.15L447.94 204.66L445.98 202.38L441.05 203.87L439.06 202.55L440.2 200.04L435.62 199.74L434.47 199L435.13 197.35L434.19 196.84L430.61 197.89L425.5 195.74L420.39 197.28L419.3 194.57L417.1 193.54L417.06 191.84L411.82 188.87L408.51 189.32L406.73 185.59L404.02 186.19L403.9 187.27L402.85 187.64L401.7 185.33L399.17 187.12L397.29 186.84L397.14 184.62L394.97 184.16L395.81 186.45L393.08 188.23L393.44 191.81L391.63 192.76L390.31 192.11L388.73 195.05L385.12 194.36L383.07 197.36L379.01 196.88L381.18 198.68L380.39 199.9L377.71 199.63L374.85 200.65L374.66 199.12L370.79 197.81L368.2 198.32L365.68 201.09L363.39 201.56L364.4 206.26L363.34 207.8L363.72 209.18L362.18 210.53L360.34 211.03L358.31 210.37L357.77 208.94L356.34 209.5L355.1 208.86L353.58 209.02L353.3 212.02L345.28 210.83L342.62 208.53L339.97 209.3L339.36 207.08L340.79 204.66L333.96 201.11L330.03 194.14L328.9 194L327.47 188.38L325.09 188.28L323.06 186.79L317.79 191.46L312.98 188.93L313.18 187.77L311.7 187.34L309.14 184.43L302.49 185.11L303.82 183.18L304.91 175.55L306.22 174.81L308.71 175.38L309.32 172.98L312.79 172.47L314.75 169.54L317.16 169.21L316.49 168.45L317.72 166.13L316.99 162.66L318.03 162.48L318.77 163.74L322.61 163.02L323.8 156.8L325.26 154.73L324.61 150.82L323.21 150.26L323.4 149.25L318.77 148.96L316.32 146.97L315.9 145.1L312.92 143.59L313.19 141.76L313.87 139.19L312.31 132.86L313.77 130.57L315.64 130.18L316.63 128.27L318.41 127.9L320.7 124.94L322.73 125.97L322.12 126.86L322.66 127.82L326.11 126.79L321.52 125.17L322.18 121.53L330.8 116.18L339.79 115.21L341.59 118.13L344.87 118.6L343.79 121.63L344.73 123.83L346.71 124.25L349.71 121.26L351.79 123.96L354.17 123.82L354.04 125.36L355.79 126.3L356.11 127.74L357.61 128.01L356.67 126.44L358.95 124.64L359.13 120.39L358.4 120.84L357.88 120.1L356.71 121.28L356.65 116.99L355.55 118.43L355.82 120.94L353.66 119.66L352.93 120.4L354.42 120.53H353.08L352.27 118.9L352.94 116.6L356.85 114.35L359.6 114.4L358.15 119.7L359.58 120.36L360.21 118.46L359.62 117.57L360.86 115.37L362.38 114.67L361.46 113.39L363.4 114.03L364.91 113.14L365.39 109.96L367.96 108.52L368.19 107.01L366.84 105.64L362.17 111.58L361.9 108.83L363.88 106.47L367.09 105.2L371.62 100.29L376.56 100.06L382.27 101.09L392.72 97.52L399.97 96.89L403.84 91.04L413.41 84.69L418.01 75.78L421.71 71.39L423.85 65.37L425.86 64.46ZM465.1 51.28L465.74 54.47L465.08 51.86L465.1 54.37L464.4 52.79L464.81 51.57L462.81 53.38L463.15 58.36L460.44 62.52L459.92 67.06L459.65 65.04L462.05 56.13L462.13 52.59L463.65 51.11L465.1 51.28ZM483.28 42.36L483.05 44.9L480.77 45.88L479.7 47.81L480.69 51.63L482.47 53.9L485.14 54.78L496.11 53.17L498.92 55.47L498.94 59.06L492.37 65.03L492.31 68.21L494.78 72.97L498.54 73.35L502.14 78.37L504.52 79.83L502.89 80.41L501.58 82.97L501.87 86.97L500.98 87.72L499.34 86.06L500.91 86.48L500.44 84.71L497.79 85.63L496.86 84.57L500.3 82.49L500.57 81.39L498.5 81.01L494.58 82.49L498.84 80.11L499.36 78.68L496.79 79.09L494.95 81.03L492.97 78.51L490.96 79.91L487.77 79.72L482.57 84.02L480.32 88.04L480.63 86.59L478.21 87.61L478.55 90.14L479.01 88.25L479.96 89.38L481.52 88.18L482.4 89.33L482.84 91.03L480.76 92.89L474.3 89.71L476.28 90.28L477.06 86.67L475.47 88.03L476.14 88.91L472.89 89.37L469.77 86.67L468.54 87.58L468.15 84.7L464.73 86.3L465.7 83.89L467.58 84.29L463.09 80.8L463.92 76.59L468.29 76.05L469.83 76.93L472.39 75.13L470.87 74.71L470.46 73.24L471.94 72.73L470.61 72.96L469.26 70.15L465.35 70.94L467.15 67.31L463.71 68.84L463.51 68.21L466.58 63.34L470.25 64.17L469.96 66.36L467.66 66.34L467.41 67.31L468.45 68.25L468.89 66.86L471.83 66.46L470.5 65.98L473 64.7L470.3 64.09L470.48 61.34L468.44 62.18L466.6 61.64L464.97 57.46L471.34 56.5L474.16 57.93L474.09 60.13L475.14 60.96L475.62 59.8L474.69 56.72L478.35 53.73L479.27 54.16L477.33 57.21L478.41 57.58L479.67 55.99L482.12 60.4L482.02 63.22L483.92 63.95L484.47 65.68L485.86 64.48L487.8 64.6L488.49 59.43L487.07 56.12L488.23 56.21L488.33 55.4L486.94 55.76L487 56.96L484.13 56.92L482.82 55.04L480.78 54.49L479.31 50.01L476.66 52.3L477 53.47L471.27 56.07L473.83 49.74L473.89 46.6L470.24 48.87L470.92 52.14L466.02 56.13L466.26 54.87L469.62 51.92L469.7 47.46L471.43 45.25L474.21 43.4L483.28 42.36Z" fill="#CCCCCC" stroke="white" stroke-width="0.5"/>
<path d="M61.3701 160.06L57.7101 160.41L55.3301 161.65L57.9601 163.43L57.0701 164.69L56.1801 163.28L54.7301 164.34L51.3301 161.55L51.6201 159.79L57.3801 157.76L61.3701 160.06ZM67.4101 154.63L66.2801 155.21L67.7201 155.3L66.4001 155.95L66.9201 156.88L65.2801 156.83L64.7801 155.08L67.4101 154.63ZM62.0401 154.72L63.5701 155.49L62.1401 155.88L61.9101 153.37L62.0401 154.72ZM78.3201 150.63L79.4001 151.63L64.6601 152.74L78.3201 150.63ZM94.6401 146.47L95.4001 147.41L92.3201 148.35L91.8001 147.78L92.1101 148.43L90.4701 148.81L86.5301 148.6L85.6801 149.43L84.0001 148.5L83.0801 149.62L82.1001 148.51L85.2901 146.79L94.6401 146.47ZM147.91 145.84L149.34 146.56L147.25 146.79L146.83 148.01L144.65 147.93L145.87 146.12L147.91 145.84ZM98.8401 145.43L100.89 145.81L101.19 147.34L96.2001 146.45L98.8401 145.43ZM110.13 142.9L113.21 143.37L113.47 144.37L105.97 144.7L105.56 146.7L105.33 146L105.22 146.83L102.91 146.71L103.82 143.44L110.13 142.9ZM137.77 142.64L138.43 144.41L137.35 143.71L137.77 142.64ZM138.01 141.56L137.42 142.36L136.86 141.91L137.54 140.56L138.01 141.56ZM119.36 140.44L125.36 141.54L121.53 142.8L117.67 142.26L116.85 143.68L115.93 143.4L116.89 141L119.36 140.44ZM130.38 139.01L135.15 141.18L129.14 139.77L128.46 141.34L127.24 139.95L130.38 139.01ZM160.9 135.45L158.93 135.72L160.43 134.03L161.33 134.17L160.9 135.45ZM180.94 128.51L180.85 129.68L182.39 130.59L181.98 131.65L183.13 132.64L182.61 130.9L186.17 134.5L194.01 135.87L202.05 134.01L201.04 130.46L214.1 129.9L220.77 132.73L223.98 137.09L227.9 145.09L232.99 149.86L235.83 158.11L243.68 163.68L247.31 164.57L250.14 164.92L249.56 166.29L250.38 168.5L249.41 169.7L250.83 170.72L250.67 171.67L252.02 171.5L252.22 174.61L255.7 178.15L255.67 177.21L258.37 175.35L259.47 177.55L258.57 179.64L259.12 179.85L260.81 178.36L263.56 179.61L266.45 177.61L265.79 176.35L267.56 176.32L267.83 174.56L275.64 181.74H279.74L281.32 179.19L284.17 177.76L285.61 178.68L288.61 178.78L296.41 184.12L301.48 185.61L302.46 185.15L309.11 184.47L311.67 187.38L313.15 187.81L312.95 188.97L317.76 191.5L323.03 186.83L325.06 188.32L327.44 188.42L328.87 194.04L330 194.18L333.93 201.15L340.76 204.7L339.33 207.12L339.94 209.34L342.59 208.57L345.25 210.87L345.61 213.35L349.8 217.88L357.09 215.44L360.63 218.63L363.09 218.12L366.39 219.98L363.9 222.5L363.69 223.87L360.71 223.17L359.65 227.92L360.27 230.05L357.36 230.75L354.05 233.85L348.22 236.65L347.07 237.01L346.82 235.47L343.52 236.47L342.37 234.62L338.23 233.86L334.58 234.58L334.61 233.03L328.62 233.17L327.75 233.57L327.48 236.01L324.47 239.34L321.74 239.03L320.74 240.08L319.89 239.01L313.45 240.45L312.75 246.64L315.09 250.43L315.43 253.98L317.36 253.72L318.19 256.04V256.29L323.15 264.92L326.76 263.46L326.46 265.54L324.43 267.05L324.3 269.34L328.82 276.89L328.21 276.82L326.77 276.3L324.79 277.07L324.08 280.51L329.27 286.81L329.24 288.01L329.95 287.83L330.52 288.33L333.05 289.46L332.64 291.44L330.58 292.65L327.21 292.93L330.56 296.86L330.57 297.14L329.02 298.46L330.05 300.28L331.6 300.69L332 303.32H332.57L333.7 304.63L333.06 305.56L330.12 306.41L329.11 307.78L329.48 309.91L332.08 310.42L331.12 314.43H330.57L326.86 317.4L324.65 317.64L324.41 318.52L326.46 319.42L326.08 322.43L320.83 322.11L317.39 323.47L309.17 323.14L305.88 324.04L306.35 325.61L304.34 327.39L302.76 327.59L302.42 326.76L300.37 327.83L301.83 330.92L303.17 330.64L304.15 332.64L306.04 332.67L303.62 334.66L303.7 336.44L305.9 337.71L305.96 339.55L304.9 341.57L301.37 343.88L301.15 344.84L301.98 345.2L301.16 347.75L302.2 352.11L304.58 353.28L304.89 355.58L307.2 358.15L307.24 362.45L309.2 365.16L307.59 365.58L308.02 366.52L305.23 367.4L305.86 368.74L304.95 368.69L305.24 371.01L306.94 371.89L306.37 373.65L303.14 371.5L300.27 373.89L297.61 374.11L296.07 372.17L292.12 370.21H291.74L288.11 370.69L288.76 372.6V373.2L286.36 377.71L284.12 378.16L283.57 380.25L280.2 381.33L279.42 382.62L278.35 382.6L277.43 381.04L275.93 382.7L276.44 383.37L275.61 385.14L273.57 385.36L274.36 386.6L272.02 386.69H271.61L269.66 386.26L268.91 387.96L267.51 386.01L266.99 387.7L265.17 387.74L264.58 389.33L259.95 392.34L260.11 390.55L258.28 388.04L257.04 388.32L256.8 389.28L255.03 388.35L255.95 392.73L254.34 391.5L254.28 389.58L252.98 388.62L251.51 389.01L251.7 391.29L249.94 391.04L248.12 392.8L245.54 393.49L247.89 398.01L250.03 396.26L249.74 399.32L247.56 400.47L243.49 398.13L240.97 398.81L241.07 397.4L239.31 397.47L236.57 395.42L234.66 393.16L237.02 393.67L237.55 392.76L236.42 391.9L237.63 389.67L240.86 389.27L241.84 387.94L240.78 385.05L241.76 382.61L238.13 377.88L240.37 376.2L239.39 373.35L240.51 374.64L242.01 374.33L240.72 372.45L240.95 371L244.05 372.69L244.77 371.73L241.46 368.5L240.72 365.7L237.14 366.91L235.51 365.3L233.3 366.67L232.15 365.72L232.42 363.58L229.56 364.63L224.7 364.28L226.39 359.02L225.47 357.17L225.94 355.83L224.71 354.72L229.25 349.48L228.05 347.36L228.96 345.73L228.44 344.64L230.15 342.62L226.66 343.19L223.88 342.23L221.52 343.35L222.74 340.56L222.55 337.82L218.25 335.34L218.44 334.12L217.6 333.78L218.96 332.54L218.3 331.12L214.66 331.03L214.09 332.39L212.67 331.9L211.98 330.31L213.27 328.7L212.32 327.96L213.3 327.01L211.99 324.68L211.86 322.27L213.19 321.09L210.68 318.19L209.35 318.48L210.96 315.91L210.63 314.86L209.1 313.86L206.51 314.33L205.16 313.77L205.25 312.91L201.55 314.3L202.21 310.55L199.9 308.1L201.18 308.63L201.68 308.04L202.23 309.34L203.61 309.24L203.11 305.04L204.2 305.41L205.72 304.27L203.17 302.35L199.11 300.96L199.51 299.85L198.64 299.27L199.93 298.64L200.71 294.45L202.01 293.97L202.57 292.47L204.58 293.07L207.1 289.72L206.92 288.03L208.67 286.33L208.73 284.47L207.85 284.48L207.86 283.07L206.85 282.21L209.55 278.78L207.17 276.6L204.17 276.31L201.67 280.8L199.43 281.52L199.96 283.4L197.14 285.08L196.79 286.58L194 286.19L193.59 287.35L191.59 287.87L187.42 286.9L184.74 287.97L183.3 286.83L182.11 287.23L181.94 284.73L182.77 283.68L181.93 282.29L181.78 275.91L180.95 274.27L179.83 274.55L178.56 273.08L172.54 276.49L169.07 275.13L166.3 277.19L166.08 280.41L163.65 282.17L162.53 281.55L160.24 282.2L156.4 280.7L156.46 283.22L157.59 284.13L157.25 286.43L162.22 288.41L165.38 290.74L167.06 295.6L166.37 298.5L166.94 302.72L165.3 306.04L166.96 308.19L170.04 309.17L167.02 312.23L163.21 314.14L162.99 316.81L160.81 316.86L158.78 315.39L156.89 315.98L155.21 315.24L155.31 314.27L151.27 317.17L149.34 320.71L146.71 320.46L143.19 322.3L139.14 321.11L135.87 324.56L131.94 322.98L129.77 319.57L135.34 316.24L137.61 316.32L137.07 312.57L137.29 311.72L138.78 311.42L137.53 310.04L133.07 310.03L131.33 308.7L130.85 307.08L132.48 304.81L132.4 300.98L134.41 300.6L132.8 298.64L132.82 297L136.64 296.26L133.88 293.58L133.13 290.48L130.15 288.77L127.27 289.95L124.87 289.7L118.87 286.77L117.3 281.37L112.16 279.08L109.42 283.54L111.86 284.62L109.86 288.76L110.57 289.36L106.72 290.14L101.18 293.84L100.56 295.76L97.9301 296.24L96.4301 298.46L93.4701 299.28L92.2801 300.91L83.2801 300.66L81.1801 301.2L79.8001 303.08L77.4001 303.23L75.1101 299.92L75.0101 298.22L77.9801 291.75L78.0201 289.53L77.0601 286.81L75.6001 286.64L73.9901 283.72L72.7301 279.73L69.6101 283.12L63.9701 281.64L63.9801 280.66L57.8501 280.28L54.0401 277.75L54.4901 274.15L52.9001 270.84L55.1201 271.29L55.8001 269.79L58.4401 269.76L55.4201 267.09L55.8501 264.28L54.9601 263.08L57.4901 260.83L65.2501 260.26L69.2601 261.94L71.7001 261L75.9501 262.45L76.8401 261.4L77.9101 243.88L79.2401 240.86L78.9201 239.67L85.0101 229.9L87.2001 223.11L86.1801 211.76L85.0301 210.91L84.7801 209.14L86.3001 205.34L87.8201 204.87L86.6301 203.77L87.2301 202.72L86.6901 198.04L87.9101 196.07L88.9901 189.9L93.0101 189.71L74.2501 187.44L73.1301 184.45L73.9801 183.03L74.9301 172.36L76.4101 170.03L75.4501 166.98L76.8501 169.56L78.9801 169.57L79.6601 170.66L80.4601 169.6L77.1001 169.54L75.9601 166.71L77.6101 168.69L78.2201 167.16L80.0001 169.4L79.7401 168.06L81.1901 167.95L82.5101 166.16L80.8101 165.51L79.0601 162.19L82.8101 158.44L83.2401 156.85L83.1501 157.59L88.9401 152.44L96.3701 150.63L97.3601 151.29L104.01 151.05L106.82 152.36L118.19 148.89L118.21 147.15L118.23 149.26L124.78 148.1L126.58 145.56L125 148.48L131.5 147.25L138.81 148.36L138.43 151.1L139.9 155.44L141.73 154.86L143.34 156.45L144.08 155.46L144.55 156.05L143.4 156.55L144.41 158.15L145.28 157.77L144.5 158.3L144.98 159.99L147.94 166.03L147.2 167.37L148.05 166.87L146.93 169.18L143.12 170.62L140.95 170.13L141.13 173.23L143.38 176.54L145.69 175.67L146.77 176.19L149.91 180.9L152.71 181.59L154.11 180.76L157.04 175.25L156.85 168.44L151.57 168.55L152.53 161.97L154.98 158.81L156.59 158.11L158.56 158.69L161.48 162.74L166.63 165.04L169.14 165.29L170.1 164.41L170.07 165.46L172.14 166.62L172.5 168.17L171.97 168.52L173.67 172.16L174.45 171.47L175.76 172.4L177.4 171.16L178.54 169.13L177.79 167.64L178.2 164.78L177.13 164.58L176.44 162.68L179.15 158.92H178.05L178.22 159.78L176.31 159.48L174.86 160.72L170.26 159.36L167.86 154.04L167.78 149.83L171.78 139.8L171.97 136.84L176.05 129.74L180.94 128.51ZM176.47 206.13L177.18 209.16L179.68 212.93L179.45 214.23L182.29 215.79L181.96 218.05L182.78 219.66L185.16 219.76L186.21 218.19L186.56 219.67L189.4 221.69L192.15 221.54L192.21 219.58L194.01 222.35L196.6 222.36L196.75 221.27L199.54 218.94L198.52 217.5L198.35 214.86L200.09 213.53L198.4 213.27L197.44 211.52L199.68 210.43L197.22 207.7L195.25 209.79L192.05 209.9L191.94 209.57L190.73 208.09L190.54 207.16L189.89 206.43L184.36 206.47L183.44 204.73L181.98 205.08L181.61 204.2L180.19 205.26L176.74 205.6L175.93 203.59L173.95 203.55L175.18 201.37L173.87 200.84L172.31 201.72L169 199.68L168.22 199.65L167.72 200.02L169.27 202.55L169.54 202.89L176.47 206.13ZM169.09 124.68L169.99 125.94L168.07 126.29L168.35 124.57L169.09 124.68ZM165.89 121.08L166.62 121.38L164.29 123.24L163.52 122.87L164.77 120.84L165.89 121.08Z" fill="#CCCCCC" stroke="white" stroke-width="0.5"/>
<path d="M77.35 303.23L79.75 303.08L81.13 301.2L83.23 300.66L92.23 300.91L93.42 299.28L96.38 298.46L97.89 296.23L100.51 295.76L101.14 293.83L106.68 290.14L110.53 289.35L109.81 288.75L111.81 284.61L109.37 283.53L112.11 279.07L117.24 281.36L118.81 286.76L124.81 289.69L127.21 289.94L130.09 288.76L133.07 290.47L133.82 293.57L136.58 296.25L132.76 296.99L132.74 298.64L134.35 300.6L132.34 300.98L132.42 304.82L130.78 307.09L131.27 308.71L133.01 310.03L137.47 310.04L138.72 311.42L137.23 311.72L137.01 312.57L137.55 316.32L135.28 316.24L129.71 319.57L131.88 322.99L135.81 324.57L139.08 321.12L143.14 322.3L146.66 320.46L149.29 320.71L151.22 317.17L155.26 314.27L155.15 315.25L156.83 315.98L158.72 315.39L160.76 316.86L162.94 316.81L163.15 314.14L166.96 312.23L169.97 309.17L166.89 308.2L165.23 306.05L166.87 302.73L166.3 298.51L167 295.61L165.32 290.75L162.16 288.42L157.19 286.44L157.53 284.13L156.4 283.23L156.34 280.7L160.18 282.2L162.48 281.56L163.6 282.17L166.03 280.41L166.24 277.19L169.01 275.14L172.49 276.49L178.51 273.09L179.78 274.56L180.91 274.28L181.74 275.92L181.89 282.3L182.74 283.69L181.91 284.74L182.07 287.24L183.26 286.84L184.7 287.98L187.38 286.91L191.55 287.88L193.55 287.35L193.95 286.2L196.74 286.58L197.09 285.08L199.91 283.4L199.38 281.53L201.62 280.81L204.12 276.32L207.12 276.61L209.5 278.79L206.8 282.23L207.82 283.08L207.81 284.49L208.69 284.48L208.63 286.33L206.88 288.03L207.07 289.72L204.55 293.07L202.53 292.47L201.97 293.97L200.67 294.45L199.89 298.64L198.6 299.27L199.47 299.85L199.07 300.96L203.13 302.36L205.68 304.28L204.15 305.42L203.06 305.04L203.56 309.25L202.18 309.35L201.64 308.05L201.14 308.65L199.86 308.12L202.17 310.56L201.51 314.31L205.22 312.93L205.13 313.79L206.48 314.35L209.07 313.88L210.6 314.88L210.93 315.93L209.33 318.5L210.65 318.21L213.16 321.1L211.83 322.28L211.96 324.69L213.27 327.02L212.3 327.97L213.25 328.71L211.95 330.32L212.64 331.91L214.06 332.4L214.64 331.03L218.28 331.13L218.93 332.55L217.57 333.79L218.41 334.13L218.22 335.35L222.52 337.83L222.71 340.57L221.48 343.36L223.85 342.24L226.63 343.2L230.12 342.63L228.41 344.65L228.93 345.74L228.02 347.36L229.23 349.48L224.68 354.72L225.91 355.83L225.45 357.18L226.37 359.02L224.68 364.28L229.54 364.63L227.7 366.36L222.28 367.92L224.49 370.32L220.9 374.27L220.39 378.23L218.78 378.19L217.6 379.76L215.09 380.65L214.57 383.79L212.49 383.12L210.95 385.41L209.49 384.69L206.89 385.27L205.79 383.14L206.61 380.11L205.69 379.29L203.29 379.36L201.97 377.79L193.85 381.49L195.64 384.89L195.66 386.71L197.42 387.03L196.84 390.93L193.85 390.57L191.53 392.12L190.39 390.99L188.21 390.78L183.65 392.65L181.28 392.22L180.17 392.81L180.47 393.96L179.03 394.43L178.74 396.01L177.63 395.57L176.56 396.35L172.55 402.32L175 405.39L181.14 402.45L183.05 402.69L183.97 403.84L183.41 404.98L184.28 408.26L185.95 409.27L184.68 410.3L185.37 412.5L181.41 416.53L181.48 417.95H181.72L182.95 419.31L180.65 419.51L178.9 420.85L172.6 420L170.68 420.6L169.06 422.33L170.62 424L169.23 426.31L170.12 426L171.28 428.46L167.3 432.81L167.51 433.54L166.25 433.87L165.72 436.37L166.36 438.61L164.59 438.73L159.91 444.44H156.56L155.61 442.35L154.04 442.46L145.97 451.51L145.57 451.64L145.32 452.67L147.71 457.2L144.98 462.08L142.01 459.96L140.84 461.06L139.62 460.88L139.48 457.81L135 453.04L135.59 448.08L135.02 445.96L134.29 445.21L131.66 446.03L129.55 443.02L126.07 442.26L127.48 437.67L123.82 436.21L122.11 438.07L120.19 438.66L121.75 440.39L121.1 443.84L121.91 446.04L119.77 445.43L118.09 447.83L115.41 448.46L116.64 449.67L116.1 452.42L115.06 453.73L111.55 454.01L111.05 456.63L108.37 455.95L106.5 456.88L106.49 457.7L100.98 459.6L97.19 458.75L96.09 460.85L97.03 462.49L95.89 464.42L96.23 465.58L94.69 466.7L86.88 468.3L86.14 465.78L85.35 468.29L84.27 469.39L83.1 469.22L82.67 470.61L80.66 469.42L79.01 472.05L76.85 470.03L73.15 474.18L71.59 475L68.84 474.6L68.88 477.25L65.78 477.88L66.68 478.87L66.15 479.93L67.19 480.33L66.93 483.74L64.22 485.33L61.36 483.4L60.58 481.43L57.03 483.31L58.37 484.74L56.93 486.55L58.71 487.11L59.47 488.51L58.64 491.33L60.7 493.74L60.49 494.57L59.19 494.23L54.28 497L52.22 493.58L50.26 496.2L49.16 495.18L49.47 493.26L48.08 493.15L47.96 491.88L41.89 494.65L40.41 496.79L38.42 496.98L38.87 494.54L37.94 493.51L37.01 494.39L35.89 491.75L34.22 492.24L34.77 494.49L35.5 494.35L35.59 496.74L36.65 497.35L36.69 498.33L35.37 498.38L35.03 496.18L31.36 492.64L33.6 487.02L33.32 485.19L31.32 484.4L31.97 481.75L26.85 480.1L24.04 481.09L22.89 478.53L21.65 477.96L22.13 476.93L21 476.41L20.86 474.88L23.99 471.62L25.15 471.73L26.77 467.98L22.25 467.33L20.93 467.99L21.37 467.4L20.42 466.33L21.32 465.5L17.35 458.62L12.55 457.76L12.11 458.68L12.29 456.14L10.64 454.43L11.27 453.21L7.92 450.92L8.61 449.59L9.9 450.34L11.19 449.04L10.81 445.94L13.16 444.93L14.32 445.87L15.28 443.19L14.39 441.21L15.65 438.33L13.07 438.27L10.84 437.02L9.92 434.71L11.19 432.03L7.5 432.51L6.64 431.61L3.07 432.94L3.52 430.19L1.89 428.54L1 425.56L4.07 423.7L5.55 426.86L6.97 426.79L8.28 423.09L10.26 421.15L12.37 420.26L15.41 416.8L20.71 414.5L18.5 412.91L21.2 411.58L20.14 410.75L15.96 413.21L14.83 413L13.9 408.23L15.05 407.81L14.15 405.88L17.42 402.69L20.33 396.8L21.87 396.47L23.98 393.69L23.22 391.18L23.97 389.78L22.71 389.84L23.83 382.49L23.19 378.36L19.81 373.19L15.38 368.78L16.99 363.62L11.63 361.78L11.25 358.33L12.37 357.38L9.15 355.2L6.72 355.14L6.75 353.88L8.91 352.37L8.99 350.6L7.94 350.27L8.13 349.04L6.16 347.53L6.95 347.04L6.1 346.39L7.13 345.11L10.42 345.22L13.68 342.21L15.93 343.81L20.17 344.66L20.05 342.62L18.42 340.08L16.31 339.37L17.17 338.39L20.37 338.46L23.11 341.79L27.45 341.26L28.67 341.85L29.09 343.73L32.17 343.87L32.78 345.16L35.24 346.09L35.77 343.46L34.3 342.39L34.59 341.22L37.14 342.83L38.27 342.16L39.53 343.38L44.27 340.22L53.21 336.8L56.25 338.7L59.82 335.58L60.51 332.54L62.34 331.97L62.5 329.65L57.59 325.37L53.37 324.19L53.8 320.98L56.53 320.49L58.07 316L64.08 315.79L67.37 310.03L70.14 309.5L72.31 304.9L75.68 304.77L77.35 303.23Z" fill="#CCCCCC" stroke="white" stroke-width="0.5"/>
<path d="M35.3706 498.38L36.6906 498.33L36.6506 497.35L35.5906 496.74L35.5006 494.35L34.7706 494.49L34.2206 492.24L35.8906 491.75L37.0106 494.39L37.9406 493.51L38.8706 494.54L38.4206 496.98L40.4106 496.79L41.8906 494.65L47.9606 491.88L48.0806 493.15L49.4706 493.26L49.1606 495.18L50.2606 496.2L52.2206 493.58L54.2806 497L59.1906 494.23L60.4906 494.57L60.7006 493.74L58.6406 491.33L59.4706 488.51L58.7106 487.11L56.9306 486.55L58.3706 484.74L57.0306 483.31L60.5806 481.43L61.3606 483.4L64.2206 485.33L66.9306 483.74L67.1906 480.33L66.1506 479.93L66.6806 478.87L65.7806 477.88L68.8806 477.25L68.8406 474.6L71.5906 475L73.1506 474.18L76.8506 470.03L79.0106 472.05L80.6606 469.42L82.6706 470.61L83.1006 469.22L84.2706 469.39L85.3506 468.29L86.1406 465.78L86.8806 468.3L94.6906 466.7L96.2306 465.58L95.8906 464.42L97.0306 462.49L96.0906 460.85L97.1906 458.75L100.981 459.6L106.491 457.7L106.501 456.88L108.371 455.95L111.051 456.63L111.551 454.01L115.061 453.73L116.101 452.42L116.641 449.67L115.411 448.46L118.091 447.83L119.771 445.43L121.911 446.04L121.101 443.84L121.751 440.39L120.191 438.66L122.111 438.07L123.821 436.21L127.481 437.67L126.071 442.26L129.551 443.02L131.661 446.03L134.291 445.21L135.021 445.96L135.591 448.08L135.001 453.04L139.481 457.81L139.621 460.88L140.841 461.06L142.011 459.96L144.981 462.08L144.041 464.67L145.971 467.41L145.091 469.67L146.721 470.72L145.691 475.55L143.631 477.29L141.581 476.74L139.831 474.89L136.751 478.16L135.671 481.91L137.741 485.32L135.491 486.86L136.321 487.22L136.141 488.38L134.761 489.56L136.161 490.71L138.481 490.62L138.081 492.2L139.831 492.1L140.011 493.14L140.891 493.22L141.961 495.87L141.671 497.42L143.571 497.97L143.621 499.65L144.671 500.7L143.861 504.54L142.181 504.43L141.751 503.35L139.391 503.49L138.471 504.83L140.171 506.5L140.431 506.85L139.151 508.96L137.841 508.77L136.301 506.79L136.161 507.79L133.891 508.62L133.631 509.58L131.331 510.21L131.321 511.16L129.601 512.36L129.681 513.68L132.751 516.09L132.031 517.08L132.591 520.2L130.791 518.34L129.651 519.04L127.621 517.79L126.291 520.63L126.741 522.07L124.511 522.1L122.631 524.67L127.701 529.09L128.601 532.31L129.761 533.15L135.091 532.55L139.621 530L148.781 526.89L152.641 527.67L157.591 532.69L159.691 538.49L159.041 542.45L161.581 544.58L161.251 547.83L164.041 553.18L167.101 553.13L167.581 553.81L164.951 557.76L159.931 560.7L161.511 567.15L163.961 571.34L163.511 574.3L166.561 582.41L165.241 584.42L169.371 585.91L168.591 589.2L166.511 591.15L167.211 591.91L168.881 590.46L168.761 592.59L165.731 596.65L168.161 599.55L161.921 605.42L161.581 606.98L162.841 606.91L160.481 611.8L159.901 618.43L156.931 622.98L155.991 626.85L155.151 628.66L151.851 631.49L151.411 630.48L149.771 631.33L149.451 630.34L147.171 630.59L142.951 629.17L140.311 626.82L135.531 625.52L132.801 622.58L131.911 624.15L129.911 623.48L128.501 624.95L123.901 621.83L122.141 623.7L120.151 623.98L119.961 622.73L119.211 623.26L117.581 622.57L117.691 623.43L116.211 623.89L113.641 622.92L113.531 621.15L111.531 620.16L109.221 620.47L106.941 618.8L105.151 615.55L104.761 611.87L101.041 612.29L101.501 610.42L96.5306 611.63L96.4106 612.9L92.2006 608.29L92.6606 606.56L91.7706 605.11L92.9806 603.2L94.0006 604.16L94.0406 602.93L95.2406 602.06L94.7506 601.15L96.4606 601.21L97.8906 599.67L98.8706 592.28L96.6906 592.82L95.9206 591.32L91.8306 590.38L91.7406 587.7L89.3206 586.05L89.0506 584.83L91.5606 583.69L92.7506 581.99L91.1006 581.01L91.6306 577.79L92.9806 577.23L92.6306 576.19L90.8406 575.89L90.3706 571.28L86.9706 573.11L86.8806 572.1L85.1706 572.08L84.4106 571.18L84.2606 569.9L81.1006 570.2L79.7306 569.15L78.9706 569.76L77.1606 566.84L75.1006 565.82L72.3706 567.66L72.7406 566.29L70.2706 567.19L69.5306 566.32L68.8206 568.44L66.6406 568.11L65.5406 569.56L64.6406 568.94L62.8406 571.36L61.2706 570.59L57.2306 573.9L54.8406 574.27L53.5606 576.03L53.2006 574.85L51.7606 575.3L51.0406 574.59L50.8006 575.76L49.8006 575.5L48.2106 576.78L48.2906 577.71L46.6006 577.46L45.4506 575.54L42.5906 576.87L39.6906 575.22L38.4006 575.78L36.9506 574.77L36.1206 575.3L33.7506 574.51L32.3306 572.48L33.8606 571.95L33.5706 570.37L36.3906 567.83L37.6706 564.3L36.9806 562.98L41.8506 558.52L41.2106 557.28L42.4906 557.64L41.4606 555.07L42.5806 553.74L41.8206 550.98L43.2306 549.11L42.2106 549.91L39.6006 547.84L36.9906 549.01L34.9006 547.95L32.6206 545.07L30.1106 546.3L29.4406 543.31L28.4906 543.55L24.4606 540.27L24.3006 538.38L23.4606 537.91L23.7706 535.31L22.6806 534.81L22.2406 535.5L21.7306 533.5L20.8506 534.95L20.3306 531.77L18.4006 530.57L19.2806 529.59L18.3906 529.03L18.9806 528.07L18.0006 527.38L17.6006 524.44L16.6406 524.45L17.9306 523.15L16.9106 523.08L17.3306 521.31L18.1606 521.18L17.6706 518.57L19.4206 516.26L18.0906 515.1L18.6106 513.64L19.0906 512.71L19.7506 513.29L21.7706 512.23L20.2406 508.44L20.8506 507.01L22.1606 506.78L23.3206 504.84L27.4406 503.86L28.2106 502.82L27.7906 501.19L29.3906 498.6L30.8906 498.4L32.6206 500.21L32.7006 499.18L35.3706 498.38Z" fill="#CCCCCC" stroke="white" stroke-width="0.5"/>
<path d="M33.7498 574.51L36.1198 575.3L36.9498 574.77L38.3998 575.78L39.6898 575.22L42.5898 576.87L45.4498 575.54L46.5998 577.46L48.2898 577.71L48.2098 576.78L49.7998 575.5L50.7998 575.76L51.0398 574.59L51.7598 575.3L53.1998 574.85L53.5598 576.03L54.8398 574.27L57.2298 573.9L61.2698 570.59L62.8398 571.36L64.6398 568.94L65.5398 569.56L66.6398 568.11L68.8198 568.44L69.5298 566.32L70.2698 567.19L72.7398 566.29L72.3698 567.66L75.0998 565.82L77.1598 566.84L78.9698 569.76L79.7298 569.15L81.0998 570.2L84.2598 569.9L84.4098 571.18L85.1698 572.08L86.8798 572.1L86.9698 573.11L90.3698 571.28L90.8398 575.89L92.6298 576.19L92.9798 577.23L91.6298 577.79L91.0998 581.01L92.7498 581.99L91.5598 583.69L89.0498 584.83L89.3198 586.05L91.7398 587.7L91.8298 590.38L95.9198 591.32L96.6898 592.82L98.8698 592.28L97.8898 599.67L96.4598 601.21L94.7498 601.15L95.2398 602.06L94.0398 602.93L93.9998 604.16L92.9798 603.2L91.7698 605.11L92.6598 606.56L92.1998 608.29L96.4098 612.9L96.3798 614.36L94.0598 614.33L91.9998 617.11L88.9398 615.65L85.8598 617.08L84.9898 615.61L83.2798 616.57L81.2698 614.47L79.8998 614.74L80.4598 613.47L79.5098 613.15L78.4198 613.85L78.9598 615.51L76.8098 617.27L75.0098 611.77L75.4498 609.71L74.0598 610.02L71.5898 607.85L70.7498 608.53L68.5698 606.53L66.4898 607.9L64.4098 606.57L62.9898 607.55L64.5198 610.66L62.8298 613.35L59.2798 611.84L56.6598 612.27L54.9398 610.03L56.1898 608.21L55.7098 607.01L53.8998 607.24L53.4998 603.96L51.6698 603.07L52.2598 601.01L48.6898 598.91L47.0298 597L47.2398 595.62L45.6898 594.48L45.4998 593.6L47.0398 594.23L47.8398 592.65L46.7098 592.36L46.8798 590.72L43.9498 589.08L44.7398 586.86L36.8698 581.85L34.6098 583.03L32.9498 582.4L32.2598 576.55L33.7498 574.51Z" fill="#CCCCCC" stroke="white" stroke-width="0.5"/>
<path d="M410.03 421.36L409.53 420.36L406.7 419.92L405.86 418.09L407.11 417.97L407.26 417.07L404.48 416.05L405.55 411.9L403.11 412.03L403.09 411.2L403.95 411.22L405.01 408.67L404.74 406.34L404.1 404.28L402.54 403.46L402.96 401.47L401.38 397.85L404.52 396.99L404.42 392.7L403.01 391.42L403.87 391L403.15 388.77L404.15 387.59L403.6 386.41L402.03 386.43L401.47 383.43L403.08 382.91L403.31 381.48L405.16 380.5L404.17 377.14L407.05 374.22L406.82 373.11L410.54 373.34L413.82 371.41L413.47 370.81L419.06 371.21L420.17 368.43L421.28 369.22L422.63 368.77L422.94 369.9L424.25 368.5L426.31 369.25L428.92 366.8L429.84 367.52L431.85 366.69L430.79 368.29L434.25 366.35L436.04 362.75L441.14 364.52L445.81 360.68L447 361.72L447.19 363.56L448.82 362.57L449.27 364.53L451.2 364.28L452.07 365.45L452.47 364.29L453.82 364.18L453.47 362.77L454.09 362.9L454.47 363.01L454.45 362.28L456.53 362.77L457.27 365.5L459.14 364.61L461.3 368.43L463.54 367.26L466.03 370.01L464.92 372.54L467.57 373.74L468.98 377.13L468.59 380.36L467.52 380.44L467.38 382.16L468.7 384.63L466.92 386.93L467.77 387.36L468.07 386.09L469.43 390.17L472.77 391.33L472.38 389.75L473.97 389.93L474.01 388.63L476.71 387.13L476.37 386.03L479.86 387.2L479.7 386.09L481.2 384.33L482.99 386.28L482.55 387.5L484.17 386.43L485.89 387.84L485.24 388.52L488.86 389.55L489.08 391.57L489.97 391.62L490.37 392.86L491.98 391.28L493.19 391.42L493.71 392.93L497.68 392.86L498.24 392.13L502.97 393.63L504.61 392.76L505.04 393.57L505.67 392.76L507.99 392.86L508.96 391.33L513.51 391.81L516.88 390.1L517.68 390.42L517.62 392.15L519.4 392.49L519.77 390.29L521.25 390.13L520.54 389.27L522.41 387.88L521.88 386.18L523.47 385.18L521.65 382.05L525.13 381.93L524.26 380.34L525.55 379.8L526.24 377.45L528.46 377.21L527.77 376.31L528.29 375.16L533.14 375.56L535.19 376.76L536.73 376.29L540.18 377.93L540.22 378.41L540.76 379.24L541.33 377.69L544.27 375.3L548.03 375.19L548.47 373.72L553.8 373.54L554.21 372.16L555.69 371.38L557.52 372.26L558.73 374.47L562.81 374.17L564.35 371.59L563.93 369.61L566.05 371.21L564.85 373.24L566.43 376.9L570.15 377.71L573.81 380.58L578.07 381.27L580.14 382.68L581.52 385.49L580.61 388.74L581.2 391.83L582.11 392.4L581.84 395.65L585.95 402.69L582.78 414.06L583 418.07L582.01 418.57L581.83 422.64L578.76 430.48L577.88 430.96L578.02 433.03L577.13 433.36L576.51 436.59L571.57 442.25L572.04 443.64L570.25 448.49L568.36 448.64L566.9 447.66L565.5 448.35L564.58 446.42L563.42 446.72L558.99 444.73L560.09 440.76L561.09 439.96L560.93 437.33L556.67 439.15L555.55 438.64L557.65 431.81L555.46 429.43L553.57 430.06L553.35 428.73L551.26 428.18L551.45 425.72L550.87 428.06L548.46 426.77L545.61 428.52L544.03 427.69L543.82 426.51L542.58 425.86L541.08 426.51L538.79 424.85L537.85 426.46H536.95L537.74 427.66L537.42 428.96L536.12 429.57L536.07 431.7L537.61 432.76L540.24 431.96L540.45 433.11L538.84 433.88L539.72 434.47L539.32 435L544.82 436.87L544.17 440.71L541.81 440.34L541.76 441.26L538.86 442.14L536.5 441.02L534.38 441.79L533.78 444.53L525.15 447.96L524.41 449.37L521.4 450.17L518.84 448.59L516.59 449.8L515.5 451.54L513.14 451.25L512.29 453.7L513.01 456.14L510.7 456.33L510.35 457.85L505.32 457.03L502.98 457.9L502.1 457.23L500.85 458.88L498.13 457.44L494.18 459.6L491.36 459.14L489.32 460.06L490.37 462.9L488.49 465.27L489.21 466.7L487.39 467.59L485.51 470.3L482.23 468.99L480.65 465.98L479.47 465.63L479.77 467.89L476.49 469.91L476.33 472.66L474.29 473.15L473.5 471.4L471.51 471.42L468.2 480.28L464.56 479.95L464.15 478.77L461.21 480.65L457.79 479.64L457.08 485.77L454.5 488.71L452.04 489.39L452.38 490.31L444.22 484.66L443.64 487.5L442.68 485.71L438.87 487.39L437.03 490.9L434.89 488.95L424.67 490.94L423.05 493.54L423.22 495.67L421.89 495.13L420.17 496.46L419.51 498.34L417.46 498.42L417.45 501.31L415.65 502.11L414.49 504.35L414.95 506.38L413.09 506.41L413.36 508.68L412.61 509.85L413.59 511.32L412.61 512.4L413.47 513.26L410.48 512.86L409.52 510.89L410.72 508.48L407.27 505.99L407.64 504.73L408.96 505.53L408.25 503.51L404.8 503.33L404.73 499.99L403.76 498.38L398.44 498.79L397.86 497.25L395.03 497.41L394.96 498.03L391.84 495.18L390.57 495.54L390.94 491.78L389.75 490.64L388.79 491.08L389.05 489.84L387.14 488.29L387.43 487.4L385.61 487.05L385.34 485.79L387.68 484.44L388.79 485.27L388.12 483.55L389.83 481.96L387.7 479.76L387.67 478.31L384.9 478.91L383.75 476.87L384.69 475.41L387.49 474.99L387.29 472.16L391.18 469.71L390.89 468.52L392.11 467.23L393.28 468.18L392.2 469.17L394.38 471.3L393.21 473.89L393.85 475.61L395.61 475.55L396.89 475.06L397.12 473.01L398.53 472.78L399.95 473.9L402.41 472.96L402.27 472.22L400.68 472.29L401.55 467.68L404.15 469.31L404.75 466.78L408.81 467.63L408.91 466.19L412.21 464.28L412.41 462.19L408.69 461.17L408.18 458.95L409.41 457.8L408.94 456.85L406.4 456.76L407.21 453.95L409.01 454.44L410.43 452.27L410.3 451.48L408.18 451.64L407.97 448.48L409.78 449.53L410.47 448.06L411.15 448.92L410.94 447.54L411.52 448.61L414.12 448.22L414.19 446.78L415.84 445.14L417.68 445.66L418.51 444.71L418.75 446.59L420.09 446.23L420.31 444.06L422.8 441.04L424.52 441.23L424.3 440.28L425.17 439.77L426.26 440.49L431.58 439.54L432.72 440.22L433.69 438.54L431.76 436.52L430.73 430.79L428.68 431.84L425.58 430.51L426.49 429.82L426.36 427.99L424.81 427.74L424.32 428.71L424.07 424.08L422.98 423.76L421.91 423.79L421.1 422.02L418.12 422.9L417.08 421.92L415.05 422.36L414.74 420.81L413.47 420.03L410.03 421.36Z" fill="#CCCCCC" stroke="white" stroke-width="0.5"/>
<path d="M366.419 219.95L368.939 219.71L368.059 222.53L371.289 222.9L372.389 226.16L375.419 224.93L378.219 227.94L381.919 228.81L382.189 230.03L380.519 232.09L381.289 233.33L383.529 233.36L384.949 234.91L390.649 236.92L393.409 235.39L399.089 236.82L399.849 234.99L399.969 239.25L404.369 236.59L404.779 237.65L406.879 238.34L408.419 244.27L407.909 245.87L406.039 246.05L405.309 249.11L406.149 250.63L404.669 253.38L405.439 253.18L405.229 254.09L406.369 254.88L406.039 256.43L407.139 257.27L406.749 261.72L406.629 262.72L404.909 263.81L402.829 263.14L403.479 268.46L401.179 273.11L402.929 272.16L404.119 272.87L402.659 274.83L403.839 276.71L405.929 276.19L407.479 274.05L409.229 276.27L408.579 276.8L409.289 277.74L413.089 276.67L411.709 277.56L413.119 278.67L410.409 283.6L410.909 284.31L409.459 285.25L411.159 286.08L410.679 288.23L411.439 289.08L410.039 290.37L411.619 292.37L409.659 295.5L407.679 302.18L409.379 303.44L408.589 303.96L410.979 304.66L407.789 306.37L407.739 309.21L406.489 309.18L405.939 310.78L408.699 314.58L409.569 317.48L411.979 318.74L414.899 323.34L416.809 323.8L419.749 326.56L420.719 326.48L421.429 324.69L422.579 324.81L423.299 326.83L426.189 327.98L426.439 329.72L431.059 330.08L431.189 329.08L433.109 328.81L433.839 326.92L434.809 327L440.179 329.61L441.729 332.08L445.879 331.55L446.349 334.93L448.509 335.04L448.699 335.74L450.639 334.51L453.099 334.93L452.969 336.22L454.179 336.43L454.069 338.62L458.689 338.57L458.289 340.61L457.589 340.6L458.429 341.54L460.979 341.86L463.439 340.44L464.639 340.65L465.499 342.6L463.549 343.06L466.159 348.22L465.209 352.09L466.279 353.84L465.529 354.47L467.619 357.39L465.529 357.98L466.039 359.85L465.229 360.67L459.139 364.61L457.269 365.5L456.529 362.77L454.449 362.28L454.469 363.01L454.089 362.9L453.469 362.77L453.819 364.18L452.469 364.29L452.069 365.45L451.199 364.28L449.269 364.53L448.819 362.57L447.189 363.56L446.999 361.72L445.809 360.68L441.139 364.52L436.039 362.75L434.249 366.35L430.789 368.29L431.849 366.69L429.839 367.52L428.919 366.8L426.309 369.25L424.249 368.5L422.939 369.9L422.629 368.77L421.279 369.22L420.169 368.43L419.059 371.21L413.469 370.81L413.819 371.41L410.539 373.34L406.819 373.11L407.049 374.22L404.169 377.14L405.159 380.5L403.309 381.48L403.079 382.91L401.469 383.43L402.029 386.43L403.599 386.41L404.149 387.59L403.149 388.77L403.869 391L403.009 391.42L404.419 392.7L404.519 396.99L401.379 397.85L402.959 401.47L402.539 403.46L404.099 404.28L404.739 406.34L405.009 408.67L403.949 411.22L403.089 411.2L403.109 412.03L405.549 411.9L404.479 416.05L407.259 417.07L407.109 417.97L405.859 418.09L406.699 419.92L409.529 420.36L410.029 421.36L407.909 426.62L410.259 426.46L410.529 428.41L407.639 432.07L406.689 434.22L407.319 434.98L405.729 436.61L405.679 434.38L404.229 434.5L403.749 432.91L402.589 434.5L397.839 432.73L393.129 433.77L392.469 431.37L390.119 431.13L390.139 428.24L388.459 427.17L386.569 427.66L385.069 424.91L379.179 425.65L377.699 425.07L376.669 426.21L374.989 423.63L372.969 423.3L372.819 421.07L370.929 419.22L368.929 419.13L367.659 420.57L366.989 419.15L364.769 418.46L362.939 420.05L359.229 420.09L357.699 418.89L358.039 417.42L357.069 415.58L358.269 415.31L359.249 413.66L358.329 413.22L358.279 410.95L357.149 410.98L356.599 409.22L353.279 409.77L353.239 408.43L351.679 408.1L352.569 405.61L353.649 406.47L354.889 405.77L357.579 400.94L358.659 400.43L354.809 396.73L355.589 395.77L353.799 395.47L353.599 391.75L350.269 391.3L348.669 388.76L344.089 390.16L344.029 389.21L342.339 388.44L340.399 389.47L337.319 389.48L332.189 386.76L331.429 387.71L327.759 387.99L328.949 387.23L326.109 386.5L325.889 383.4L325.839 383.08L326.519 381.4L323.499 377.52L324.809 375.77L322.589 373.78L321.639 374.07L321.669 373.46L321.329 371.61H320.989L321.509 369.2L323.759 370.28L324.189 369.12L322.759 368.32L323.229 367.55L320.949 368.17L319.099 366.01L316.689 367.03L316.219 365.37L313.259 364.36L312.579 365.14L309.179 365.11L307.229 362.41L307.189 358.11L304.879 355.54L304.569 353.24L302.189 352.07L301.149 347.71L301.969 345.16L301.139 344.8L301.359 343.85L304.889 341.54L305.949 339.52L305.889 337.68L303.689 336.41L303.609 334.62L306.029 332.63L304.139 332.6L303.169 330.6L301.829 330.88L300.369 327.79L302.419 326.72L302.759 327.54L304.339 327.35L306.349 325.57L305.879 324L309.169 323.1L317.389 323.43L320.839 322.07L326.089 322.39L326.469 319.38L324.419 318.48L324.659 317.6L326.869 317.36L330.579 314.39H331.129L332.089 310.38L329.489 309.87L329.119 307.74L330.139 306.37L333.069 305.52L333.709 304.59L332.579 303.28H331.999L331.609 300.65L330.049 300.25L329.029 298.43L330.579 297.11L330.559 296.83L327.219 292.89L330.589 292.61L332.649 291.41L333.049 289.43L330.519 288.3L329.949 287.8L329.239 287.98L329.269 286.78L324.079 280.48L324.789 277.04L326.769 276.27L328.209 276.79L328.819 276.86L324.299 269.31L324.429 267.02L326.459 265.51L326.759 263.43L323.149 264.89L318.189 256.26V256.01L317.359 253.69L315.429 253.95L315.089 250.4L312.749 246.61L313.449 240.42L319.889 238.98L320.729 240.05L321.729 239L324.469 239.31L327.479 235.98L327.759 233.54L328.629 233.14L334.619 233.01L334.589 234.56L338.239 233.84L342.379 234.6L343.529 236.45L346.829 235.45L347.089 236.99L348.239 236.63L354.069 233.83L357.379 230.73L360.289 230.03L359.669 227.9L360.729 223.15L363.719 223.84L363.929 222.47L366.419 219.95Z" fill="#CCCCCC" stroke="white" stroke-width="0.5"/>
<path d="M181.8 109.38L180.44 110.36L181.68 110.52L181.06 112.11L179.91 110.45L180.8 109.1L181.8 109.38ZM167.79 67.59L169.09 67.8L168.8 68.65L170.14 70.04L168.2 71.71L166.56 70.21L165.53 67.42L166.79 65.89L167.79 67.59ZM333.46 59.08L339.08 60.13L342.87 62.01L348.24 73.15L344.02 72.07L340.8 72.61L340.68 71.84H342.89L340.42 70.97L338.92 71.93L340.19 72.47L339.6 73.18L335.93 73.11L334.3 72.32L334.75 69.83L333.8 68.16L332.36 67.68L329.69 68.66L331.27 70.26L328.76 68.76L328.86 64.27L330.08 61.46L332.08 58.84L333.46 59.08ZM168.34 58.79L167.43 63.07L166.26 57.82L168.34 58.79ZM189.05 56.71L190.31 57.36L189.4 57.81L187.32 56.85L189.05 56.71ZM181.96 56.13L181.57 59.61L180.39 60.19L181.37 60.47L180.95 61.37L181.79 62.38L180.88 61.54L179.73 63.15L176.4 63.51L174.62 61.24L174.56 59L181.96 56.13ZM172.41 53.84L173.68 56.07L172.03 56.2L169.49 54.03L172.41 53.84ZM183.98 47.12L183.43 48.42L182.31 48.09L182.64 47.15L183.98 47.12ZM179.31 45.11L178.29 47.14L174.29 47.74L171.97 49.56L170.81 48.67L171.56 47.52L177.64 46.07L179.34 44.46L179.31 45.11ZM182.96 42.14L182.18 43.64L180.46 43.44L182.3 41.21L182.96 42.14ZM161.43 47.18L161.32 48.08L162.65 48.46L161.41 48.99L162.37 49.89L159.95 50.34L155.5 44.14L159.97 38.99L158.6 41.72L160.07 46.04L161.43 47.18ZM170.51 34.33L174.42 35.49L174.18 37.31L175.21 38.48L173.17 42.79L167.88 42.74L162.46 40.37L162.22 38.41L164.27 35.34L170.51 34.33ZM164.94 1.73L166.71 2.33L162.28 2.47L162.57 3.47L164.28 3.69L165.09 5.75L161.39 7.67L159.53 10.96L160.64 18.54L164.22 20.86L175.29 19.81L177.48 18.55V17.16L180.32 17.08L183.32 19.02L186.39 19.19L188.71 17.71L191.76 18.73L194.23 17.88L197.35 18.13L203.81 21.49L209.96 21.38L215.73 23.87L216.62 28.33L218.11 28.12L219.47 29.3L220.2 28.63L222.62 29.45L225.1 25.32L226.81 24.84L228.56 28.32L228.54 30.73L230.5 26.94L232.53 26.96L233.62 25.3L237.16 23.23L238.26 21.08L239.8 21.02L238.36 24.09L239.34 26.09L251.37 29.86L255.21 34.67L256.67 34.73L257.84 32.64L258.55 33.54L258.54 29.82L261.81 31.78L263.82 38.5L266.94 42.06L266.74 43.6L266.31 41.49L264.46 41.97L265.17 44.73L266.8 43.85L265.52 44.85L266.77 45.21L266.31 56.87L262.31 62.11L256.28 65.3L253.97 65.29L256.04 68.16L259.09 67.68L260.28 66.68L259.71 66.58L272.61 64.14L277.36 67.35L275.45 69.59L276.75 74.57L274.88 75.12L274.47 76.92L273.7 76.81L274.62 80.26L273.08 83.1L275.15 80.91L276.35 81.34L275.36 80.77L275.91 77.67L277.02 77.08L276.87 75.73L279.04 71.91L282.44 71.46L283.48 70.01L285.25 69.54L289.93 70.82L295.21 74.55L302.8 77.39L309.4 83.83L314.89 82.98L323.88 75.4L329.47 75.62L326.97 76.08L329.9 76.91L333.35 75.88L333.9 74.38L335.46 73.64L335.24 74.68L335.83 74.09L336.68 74.79L336.3 76.46L333.15 79.43L333.31 78.52L331.93 78.56L332.22 79.5L332.88 79.25L334.22 95.49L325.23 101.73L320.03 107.73L316.84 107.26L316.14 105.41L314.97 108.86L312.45 111.69L314.57 117.1L320.01 117.81L320.93 119.19L320.77 121.35L322.13 121.61L321.47 125.25L326.06 126.87L322.61 127.9L322.07 126.94L322.68 126.05L320.65 125.02L318.36 127.98L316.58 128.35L315.59 130.26L313.72 130.65L312.26 132.94L313.82 139.27L313.14 141.84L312.87 143.67L315.85 145.18L316.27 147.05L318.72 149.04L323.35 149.33L323.16 150.34L324.56 150.9L325.21 154.81L323.75 156.88L322.56 163.1L318.72 163.82L317.98 162.56L316.94 162.74L317.67 166.21L316.44 168.53L317.11 169.29L314.7 169.62L312.74 172.55L309.27 173.06L308.66 175.46L306.17 174.89L304.86 175.63L303.77 183.26L302.44 185.19L301.46 185.65L296.39 184.16L288.59 178.82L285.59 178.72L284.15 177.8L285.28 176.15L283.13 175.81L279.85 172.57L277.95 168.45L276.43 169.38L274.8 168.27L274.09 162.83L277.16 161.48L276.66 158.63L278.62 156.34L276.68 155.83L277.18 154.82L276.28 153.16L273.65 151.62L274.69 150.27L274.53 148.81L276.13 148.26L276.77 146.7L276.86 145.95L275.24 145.12L272.21 147.83L269.63 147.08L268.79 148.12L269.45 148.8L268.63 151.63L264.39 151.29L263.12 155.02L258.5 154.37L257.48 157.52L254.02 161.42L251.71 160.61L251.51 158.65L249.97 158.16L249.88 156.57L247.27 164.61L243.64 163.72L235.79 158.15L232.95 149.9L227.86 145.13L223.94 137.13L220.73 132.77L214.06 129.94L201 130.5L200.01 128.64L197.92 127.9L194.73 124L193.26 119.13L191.93 117.68L193.23 116.62L191.87 117.43L190.13 114.42L188.33 114.32L193.08 111.99L195.72 112.52L195.22 113.62L196.06 113.61L196.09 112.79L196.49 113.57L198.08 113.17L199.78 110.79L199.72 110.13L198.11 110.02L199.37 109.43L197.45 107.1L198.22 106.85L197.35 106.84L196.15 102.79L194.12 102.51L191.84 104.06L192.08 102.93L191.69 104.08L188.57 98.41L190.62 91.85L190.51 86.28L189.69 85.34L186.97 86.46L184.5 85.27L182.26 85.6L180.23 88.04L178.13 87.06L175.41 83.06L175.96 85.17L174.64 83.98L175.8 85.95L173.97 83.47L175.68 78.41L176.59 78.14L176.16 79.3L177.84 80.03L178.69 78.51L180.93 78.06L179.99 78.43L180.98 76.45L179.97 77.02L178.64 76.44L178.33 77.18L175.59 76.68L176.39 74.57L189.34 71.78L192.54 72.55L195.7 70.39L198.2 67.09L200.83 66.51L201.2 65.02L203.09 65.82L203.94 65.11L202.61 65.52L200.91 64.72L201.12 62.72L199.72 60.32L198.15 61.27L196.32 65.85L195.43 65.57L195.96 65.93L194.18 66.95L190.83 66.88L188.38 65.78L189.13 64.06L188.35 62.69L192.72 58.91L192.46 55.51L193.24 52.4L193.91 52.34L192.47 51.82L193.08 50.49L192.15 51.77L188.86 51.82L188.57 51.07L191.53 49.53L190.57 49.77L189.09 45.68L184.67 42.71L184.19 39.38L181.12 37.82L180.87 37.09L182.03 36.31L181.22 32.93L175.58 25.12L175.15 20.37L169.6 20.52L163.4 24.39L161.05 23.08L160.22 21.22L158.69 20.81L158.34 22.51L156.15 24.01L156.04 36.13L154.91 35.02L155.95 17.31L162.2 1.64L163.33 1L164.94 1.73Z" fill="#CCCCCC" stroke="white" stroke-width="0.5"/>
<path d="M309.18 365.11L312.58 365.14L313.26 364.36L316.22 365.37L316.69 367.03L319.1 366.01L320.95 368.17L323.23 367.55L322.76 368.32L324.19 369.12L323.76 370.28L321.51 369.2L320.99 371.61H321.33L321.67 373.46L321.64 374.07L322.59 373.78L324.81 375.77L323.5 377.52L326.52 381.4L325.84 383.08L325.89 383.4L326.11 386.5L328.95 387.23L327.76 387.99L331.43 387.71L332.19 386.76L337.32 389.48L340.4 389.47L342.34 388.44L344.03 389.21L344.09 390.16L348.67 388.76L350.27 391.3L353.6 391.75L353.8 395.47L355.59 395.77L354.81 396.73L358.66 400.43L357.58 400.94L354.89 405.77L353.65 406.47L352.57 405.61L351.68 408.1L353.24 408.43L353.28 409.77L356.6 409.22L357.15 410.98L358.28 410.95L358.33 413.22L359.25 413.66L358.27 415.31L357.07 415.58L358.04 417.42L357.7 418.89L359.23 420.09L362.94 420.05L364.77 418.46L366.99 419.15L367.66 420.57L368.93 419.13L370.93 419.22L372.82 421.07L372.97 423.3L374.99 423.63L376.67 426.21L377.7 425.07L379.18 425.65L385.07 424.91L386.57 427.66L388.46 427.17L390.14 428.24L390.12 431.13L392.47 431.37L393.13 433.77L397.84 432.73L402.59 434.5L403.75 432.91L404.23 434.5L405.68 434.38L405.73 436.61L407.32 434.98L406.69 434.22L407.64 432.07L410.53 428.41L410.26 426.46L407.91 426.62L410.03 421.36L413.47 420.03L414.74 420.81L415.05 422.36L417.08 421.92L418.12 422.9L421.1 422.02L421.91 423.79L422.98 423.76L424.07 424.08L424.32 428.71L424.81 427.74L426.36 427.99L426.49 429.82L425.58 430.51L428.68 431.84L430.73 430.79L431.76 436.52L433.69 438.54L432.72 440.22L431.58 439.54L426.26 440.49L425.17 439.77L424.3 440.28L424.52 441.23L422.8 441.04L420.31 444.06L420.09 446.23L418.75 446.59L418.51 444.71L417.68 445.66L415.84 445.14L414.19 446.78L414.12 448.22L411.52 448.61L410.94 447.54L411.15 448.92L410.47 448.06L409.78 449.53L407.97 448.48L408.18 451.64L410.3 451.48L410.43 452.27L409.01 454.44L407.21 453.95L406.4 456.76L408.94 456.85L409.41 457.8L408.18 458.95L408.69 461.17L412.41 462.19L412.21 464.28L408.91 466.19L408.81 467.63L404.75 466.78L404.15 469.31L401.55 467.68L400.68 472.29L402.27 472.22L402.41 472.96L399.95 473.9L398.53 472.78L397.12 473.01L396.89 475.06L395.61 475.55L393.85 475.61L393.21 473.89L394.38 471.3L392.2 469.17L393.28 468.18L392.11 467.23L390.89 468.52L391.18 469.71L387.29 472.16L387.49 474.99L384.69 475.41L383.75 476.87L384.9 478.91L387.67 478.31L387.7 479.76L389.83 481.96L388.12 483.55L388.79 485.27L387.68 484.44L385.34 485.79L385.61 487.05L387.43 487.4L387.14 488.29L380.86 491.67V490.36L377.96 488.67L377.52 489.59L376.24 489.16L376.94 490.03L375.38 489.71L373.79 491.01L373.41 490.37L368.1 491.86L366.12 490.32L364.7 490.61L363.98 492.07L361.56 493.12L361.47 491.02L358.82 490.54L359.06 487.59L357.9 487.41L356.51 488.62L357 487.43L355.07 486.17L355.05 481.22L356.02 481.46L356.37 480.67L355.74 479.48L350.32 478.53L350.39 479.53L348.76 479.75L348.81 481.52L347.52 481.66L346.81 483.04L346.56 482.09L344.06 482.72L344.09 485.69L345.28 487.54L344.71 490.58L346.4 494.56L344.93 495.43L345.87 496.96L344.92 496.88L345.43 499.95L344.3 501.2L344.88 501.68H344.62L344.29 503.7L340.7 501.26L340.39 503.25L339.47 503.57L339.88 502.49L337.58 502L336.77 500.59L338.33 497.54L337.06 495.29L335.79 495.69L335.62 493.94L333.94 494.07L333.71 495.42L331.09 496.2L330.63 494.6L327.87 494.07L328.13 495.66L327.31 495.82L324.19 491.38L322.92 491.73L322.44 491.92L321.36 492.57L320.4 490.97L319.51 491.82L317.59 491.37L315.88 492.67L314.66 492.14L312.65 494.79L310.2 494.16L310.02 496L310.99 496.15L310.18 498.5L311.84 499.02L313.68 501.25L315.74 501.41L315.91 502.63H316.26L318.43 503.02L318.5 506.09L316.97 506.75L315.61 505.36L313.58 506.38L311.17 505.4L311.06 509.37L310.23 510.04L309.16 509.31H308.83L306.54 507.52L304.66 508.21L303.26 507.5L302.61 505.97L303.47 505.62L302.68 504.22L303.27 503.39L302.22 503.41L303.04 501.29L302.27 499.8L302.76 497.22L300.33 496.8L299.24 494.2L298.47 494.03L297.35 495.58L297.17 494.62L295.87 495.07L295.89 493.07L295.18 493.25H294.71L293.37 490.44L289.73 491.22L289.05 489.73L290.21 488.05L288.2 487.41L288.88 486.66L288.01 486.78L286.04 484.09L285.6 481.24L283.81 481.27L280.86 479.33L279.34 479.53L279.31 477.54L277.83 476.6L277.53 475.22L275.97 475.46L275.72 476.36L274.16 475.41L273.64 476.36L271.45 474.26L269.05 477.04L269.16 477.96L267.2 479L267 477.69L268.44 475.03L266.9 469.54L267.67 468.26L269.79 468.35L267.97 463.49L264.56 462.96L261.57 463.87L261.27 464.93L262.47 466.47L261.97 467.66L256.65 466.57L256.82 463.58L259.61 461.19L258.69 460.04L260.71 456.68L260.61 455.01L259.54 454.67L259.8 453.15L261.56 453.19L260.94 450.59L261.52 448.42L262.94 447.34L263.35 447.49L264.36 447.95L264.93 446.81L266.27 447.07L266.97 445.23L265.91 445.67L265.98 443.92L268.39 442.23L268.31 441.45L267.56 441.53L267.76 440.43L265.3 438.27L262.73 439.66L263.76 437.27L262.28 437.17L261.6 438.1L261.37 436.21L265.31 436.99L266.09 436.09L266.4 436.69L268.57 435.96L267.28 435.51L267.14 433.66L265.78 432.25L267.04 429.06L271.08 429.98L272.15 429.33L273.89 431.11L277.57 429.59L276.85 428.5L278.24 427.75L277.63 426.82L273.52 424.36L274.36 423.41L273.78 421.83L275.65 418.62L272.14 416.3L275.09 414.9L277.19 418.97L278 417.67L277.39 415.08L279.62 411.58L276.99 410.9L275.07 408.91L273.98 409.37L273.37 408.01L271.71 408.56L268.89 407.43L269.47 405.76L267.52 404.69L268.05 402.15L262.75 401.55L262.54 399.94L260.64 399.25L261.22 397.98L259.73 394.45L259.93 392.32L264.56 389.32L265.14 387.73L266.96 387.69L267.48 386L268.88 387.94L269.64 386.24L271.59 386.67H271.99L274.33 386.58L273.54 385.33L275.58 385.11L276.41 383.34L275.9 382.67L277.41 381.01L278.33 382.57L279.4 382.59L280.19 381.3L283.56 380.22L284.11 378.13L286.35 377.68L288.75 373.17V372.56L288.1 370.65L291.73 370.17H292.11L296.05 372.13L297.59 374.08L300.26 373.85L303.13 371.46L306.36 373.61L306.93 371.85L305.22 370.97L304.94 368.65L305.85 368.7L305.22 367.35L308 366.47L307.57 365.53L309.18 365.11Z" fill="#CCCCCC" stroke="white" stroke-width="0.5"/>
</svg>
