<svg width="800" height="467" viewBox="0 0 800 467" fill="none" xmlns="http://www.w3.org/2000/svg">
<path d="M428.598 466.72L435.208 463.33L445.308 456.16L452.698 448.55V448.51L461.428 438.06L486.378 389.56L491.558 368.72L495.478 358.74L521.288 320.72L525.958 315.53L532.278 312.03L543.048 310.88L564.678 313.39L575.428 311.46L598.508 298.79L598.448 298.71L592.548 290.32L591.258 285.71L591.238 283.76L590.278 279.89L579.038 277.28L573.118 276.89L561.218 278.14L555.338 279.45L548.008 282.65L545.658 282.91L543.938 282.21L541.018 279.81L540.088 279.23L535.788 278.98L533.188 279.89L526.238 286.97L520.018 288.95L512.838 285.94L506.308 280.29L502.018 274.33L500.788 269.95L500.768 266.91L499.638 264.52L495.068 262.12L488.878 273.52L477.078 291.03L473.568 298.68L473.248 300.2L472.898 303.5L473.108 308.42L473.028 310.06L472.708 311.51L472.268 312.86L471.658 313.87L470.828 314.92L469.738 316.07L468.158 318.06L465.148 324.37L462.328 328.67L460.748 329.76L458.518 330.82L448.418 333.17L447.148 333.63L444.618 334.81L443.188 335.21L437.018 336.2L427.548 339.56L425.758 339.49L423.688 339.09L420.758 337.64L419.188 336.49L417.968 335.37L413.918 330.2L413.048 329.43L412.078 328.94L410.018 328.12L405.668 324.91L400.978 322.52L399.678 322.05L394.938 323.63L382.128 334.39L379.728 336.07L379.688 336.1L379.678 336.12L376.988 340.32L373.898 343.87L371.258 345.36L368.648 346.19L364.978 349.8L362.358 350.62L359.348 350.03L354.108 347.55L352.428 347.17L349.658 349.41L343.058 358.31L341.778 360.77L341.468 363.58L340.138 367.07L339.828 369.91L339.878 371.55L340.188 372.38L341.028 372.67L342.668 372.7L344.068 373.49L344.198 375.28L343.558 378.14L343.278 390.84L344.198 397.26L348.068 400.04L350.988 400.37L353.568 401.46L355.438 403.39L356.148 406.31L357.548 409.3L360.748 409.8L366.818 408.92L367.898 409.52L369.348 410.59L371.328 411.72L374.068 412.54L383.278 412.37L390.008 415.05L391.908 410.47L392.198 404.06L391.838 400.04L390.478 395.49L389.628 390.38L391.148 386.45L397.008 385.54L394.208 392.01L397.008 414.36L394.948 425.95L393.628 429.01L390.868 431.15L383.078 435.06L380.218 437.15L380.528 439.99L383.518 443.93L387.528 447.43L390.888 448.91L394.068 447.76L396.928 445L403.678 435.81L407.508 428.33L410.498 424.48L414.048 421.72L416.718 420.06L418.228 417.65L418.338 412.54L421.018 413.69L422.058 414.36L422.188 412.54L422.718 411.36L423.428 410.3L423.998 408.92L426.888 410.92L429.468 410.36L430.598 407.75L429.148 403.5L435.498 402.24L440.688 399.12L444.568 394.11L446.918 387.2L450.538 390.05L450.838 394.78L448.768 399.79L445.308 403.5L447.088 404.45L448.808 405.81L450.138 407.61L450.628 409.83L439.818 410.73L439.608 411.63L439.998 415.16L439.818 416.17L438.428 416.61L435.178 416.41L433.658 417.16L432.118 420.16L430.868 424.09L429.238 427.54L426.488 429.01L424.918 432.25L420.278 451.71L421.108 454.12L423.228 455.64L426.088 456.29L429.148 456.16L431.948 455.19L433.828 453.54L435.168 451.41L436.258 448.91H438.198V450.73L436.538 452.16L432.698 458.14L430.418 459.8L428.128 460.98L426.318 462.77L425.598 466.27L428.598 466.72Z" fill="#CCCCCC" stroke="white" stroke-width="0.5"/>
<path d="M781.699 2.61L689.459 2.23L621.709 1.94L617.499 10.7L616.369 14.42L615.219 16.24L613.989 17.5L612.599 17.95L611.189 18.08L609.979 17.76L609.089 16.92L607.629 14.7L605.719 13L604.749 12.41L603.779 12.91L603.279 14.81L604.469 29.95L605.369 33.47L606.059 34.6L607.059 35.42L609.659 36.43L611.349 38.15L612.399 38.54L613.329 38.65L613.829 39.78L613.549 41.7L612.159 45.29L611.109 47.12L610.219 48.36L609.679 48.7L609.209 48.85L608.469 48.95L607.239 48.76L606.759 48.48L605.949 47.9L604.199 46.19L603.129 45.4L601.919 44.89L600.439 44.9L599.189 45.38L598.199 46.19L595.199 49.31L594.409 49.86L593.339 50.23L592.269 50.13L591.459 49.61L591.039 49.03L590.129 46.7L589.229 45.92L587.949 45.59L585.059 46H583.629L582.479 45.53L581.729 44.65L581.009 44.06L580.439 43.91L578.309 44.73L577.049 44.93L576.039 44.47L575.719 43.27L576.019 41.57L575.959 40.22L574.769 39.17L573.499 39.22L572.369 39.8L571.759 41.54L571.569 43.96L572.419 48.67L573.189 51.13L574.199 52.79L575.349 53.36L576.819 53.37L578.139 53L579.349 52.5L582.949 50.4L584.149 49.98L585.339 50.08L586.449 50.6L587.409 51.43L590.859 55.4L591.519 56.61L592.019 57.94L592.049 59.58L591.579 61.14L590.009 62.57L588.619 63.02L587.289 63.66L586.369 64.46L585.629 65.48L584.679 66.07L583.669 66.01L582.759 65.28L581.549 63.11L580.909 62.42L580.259 62.17L579.289 62.42L578.699 63.52L578.629 65.34L579.859 69.92L580.489 71.26L580.679 72.2L580.579 73.06L579.629 74.29L578.429 75.06L576.979 75.6L575.409 75.89L573.899 75.98L572.499 75.82L570.509 74.83L569.499 74.98L568.509 75.56L567.549 76.42L566.699 77.37L565.969 78.42L565.699 79.47L566.029 80.35L567.219 80.77L567.919 81.5L567.479 82.69L566.849 83.55L566.389 84.06L566.169 84.44L566.209 85.06L566.609 85.61L570.949 86.42L572.119 87.06L573.029 87.97L574.509 90.18L575.389 91.17L576.439 91.94L577.689 92.52L582.119 93.8L583.229 94.25L585.459 95.6L587.369 97.39L588.119 98.43L588.539 100V101.82L587.669 104.93L586.929 106.65L585.459 109.25L585.119 110.93L585.199 113.04L589.319 126.95L589.699 127.75L590.249 128.52L591.039 129.37L592.099 130.08L593.299 130.73L595.969 131.65L597.079 132.33L597.899 133.35L598.169 135.49L597.589 138.61L595.419 144.41L593.719 146.43L592.129 147.25L590.799 147.09L589.509 147.36L588.399 147.94L585.559 150.32L584.459 150.94L583.229 151.24L581.979 151.21L578.739 150.58L577.289 150.61L575.899 150.94L574.709 151.93L573.889 153.52L573.399 156.54L573.419 158.83L574.309 161.42L575.309 162.79L576.429 163.76L578.599 165.02L582.479 166.77L583.509 167.41L584.209 169.48L584.149 173L582.899 180.39L581.929 183.6L581.029 185.52L580.479 186.08L579.999 187.27L579.939 188.86L580.719 191.42L581.469 192.72L582.469 193.81L587.789 197.71L588.659 198.62L589.099 200.19L588.959 202.28L585.829 211.31L585.439 213.6L585.239 216.71L585.789 228.8L587.249 238.56L587.189 243.56L587.629 245.31L588.359 246.67L590.279 248.39L591.129 249.35L591.379 250.71L590.979 252.3L589.039 254.46L587.549 255.61L583.349 257.51L582.279 258.19L581.409 258.91L580.399 262.48L579.039 277.28L590.279 279.89L591.239 283.76L591.259 285.71L592.549 290.32L598.449 298.71L598.509 298.79L622.719 285.5L626.029 282.85L627.779 280.22L630.789 273.83L632.829 271.54L635.609 270.03L636.969 270.21L638.459 271.03L660.239 272.46L666.239 271.65L668.879 272.13L671.159 273.75L673.399 275.73L675.879 277.22L680.139 278.23L683.759 278.07L691.569 276.7L695.689 276.62L707.049 278.46L711.919 276.67L723.129 269.81L725.199 268.22L730.839 271.05L736.069 270.95L740.549 268.24L743.909 263.2L744.649 260.65L745.199 254.57L744.029 251.56L744.809 250.14L748.709 250.21L750.989 251.85L751.849 257.16L754.049 258.54L757.799 259.61L757.959 261.31L757.389 263.29L758.929 265.25L764.159 265.99L770.839 264.76L777.149 262.23L781.269 259.14L782.619 255.61L783.969 244.18L784.019 239.42L780.049 208.09L780.909 197.04L783.179 186.28L782.829 181.24L779.969 176.86L777.499 175.62L768.329 174.18L764.099 172.34L761.019 170.2L755.319 163.87L753.879 161.29L753.219 159.26L751.999 157.69L744.899 155.19L742.279 153.33L737.199 148.39L732.229 145.33L726.959 143.59L720.139 142.63L718.139 141.65L719.219 138.72L719.249 133.03L719.909 130.29L725.589 123.8L741.399 116.39L747.689 111.19L752.629 108.22L759.749 106.5L764.159 107.79L760.809 113.82L778.429 113.6L785.979 110.78L790.279 104.13L790.349 104.01L791.399 96.99L793.479 91.83L793.739 88.73L792.919 81.03L793.179 77.62L793.739 75.4L798.309 64.43L799.279 59.86L798.579 55.3L795.649 49.89L782.529 33.34L780.049 26.09L779.609 20.16L781.699 2.61Z" fill="#CCCCCC" stroke="white" stroke-width="0.5"/>
<path d="M621.71 1.93998L597.2 1.83998L504.97 1.43998L484.04 1.34998L486.98 6.71998L487.41 9.82998L487.37 12.91L486.84 14.77L486.2 16.13L482.06 23.08L480.89 25.72L478.36 29.5L477.21 31.69L475.61 35.82L475.57 38.07L476.06 39.64L476.99 40.49L483.51 44.96L487 48.36L487.63 49.17L488.25 50.18L488.99 51.61L489.88 53.88L489.59 55.31L488.83 56.4L487.8 57.19L486.58 57.79L485.24 58.29L484 58.92L480.89 61.4L479.76 62.12L475.63 63.6L463.08 66.16L461.76 66.77L461.34 68.18L462.33 94.33L462.58 95.97L463.05 97.4L463.69 98.53L464.48 99.55L469.47 103.69L470.52 104.85L471.24 106.98L471.78 110.6L471.06 115.78L470.89 128.05L470.39 130.22L469.31 130.99L466.44 130.5L461.44 130.22L459.91 129.95L458.56 129.58L451.71 125.83L450.8 125.5L449.86 125.32H448.58L447.21 125.67L445.91 126.12L444.46 126.32L443.04 126.12L441.72 125.75L440.4 125.68L439.29 126.15L438.22 126.92L437.26 127.81L434.75 130.77L432.8 133.88L432.32 135.81L432.47 137.46L440.6 151.54L441.71 154.16L442.67 160.7L443.13 162.05L443.96 163.04L445.14 163.73L448.05 164.42L450.22 165.47L451.59 166.55L462.17 172.61L462.96 173.85L462.53 175.25L461.56 177.62L461.1 179.46L461.04 181.16L461.11 181.81L461.46 183.06L463.24 186.83L463.87 188.56L463.95 189.52L463.78 190.3L463.38 190.72L462.57 191.31L461.54 191.94L460.31 192.53L458.91 193.03L456.14 193.64L453.18 193.48L452.45 193.29L452.39 193.27L452.4 193.37L449.76 194.11L445.91 194.28L444.77 195L444.59 196.64L439.82 209.63L438.13 212.75L434.85 215.83L432.5 219.02L433.66 222.44L435.85 224.98L437.12 227.06L438.62 228.93L441.59 230.76L443.91 231.47L451.6 232.42L455.13 235.44L458.72 241.44L463.42 245.63L470.18 243.3L470.23 243.24L471.3 239.79L473.04 238.36L475.8 238.14L478.17 239.24L479.08 241.12L479.5 243.17L480.93 245.54L481.87 247.84L482.63 248.8L484.07 247.93L485.26 247.48L486.32 247.59L492.94 250.58L493.96 251.67L493.04 253.8L486.45 261.57L486.83 262.97L495.07 262.12L499.64 264.52L500.77 266.91L500.79 269.95L502.02 274.33L506.31 280.29L512.84 285.94L520.02 288.95L526.24 286.97L533.19 279.89L535.79 278.98L540.09 279.23L541.02 279.81L543.94 282.21L545.66 282.91L548.01 282.65L555.34 279.45L561.22 278.14L573.12 276.89L579.04 277.28L580.4 262.48L581.41 258.91L582.28 258.19L583.35 257.51L587.55 255.61L589.04 254.46L590.98 252.3L591.38 250.71L591.13 249.35L590.28 248.39L588.36 246.67L587.63 245.31L587.19 243.56L587.25 238.56L585.79 228.8L585.24 216.71L585.44 213.6L585.83 211.31L588.96 202.28L589.1 200.19L588.66 198.62L587.79 197.71L582.47 193.81L581.47 192.72L580.72 191.42L579.94 188.86L580 187.27L580.48 186.08L581.03 185.52L581.93 183.6L582.9 180.39L584.15 173L584.21 169.48L583.51 167.41L582.48 166.77L578.6 165.02L576.43 163.76L575.31 162.79L574.31 161.42L573.42 158.83L573.4 156.54L573.89 153.52L574.71 151.93L575.9 150.94L577.29 150.61L578.74 150.58L581.98 151.21L583.23 151.24L584.46 150.94L585.56 150.32L588.4 147.94L589.51 147.36L590.8 147.09L592.13 147.25L593.72 146.43L595.42 144.41L597.59 138.61L598.17 135.49L597.9 133.35L597.08 132.33L595.97 131.65L593.3 130.73L592.1 130.08L591.04 129.37L590.25 128.52L589.7 127.75L589.32 126.95L585.2 113.04L585.12 110.93L585.46 109.25L586.93 106.65L587.67 104.93L588.54 101.82V100L588.12 98.43L587.37 97.39L585.46 95.6L583.23 94.25L582.12 93.8L577.69 92.52L576.44 91.94L575.39 91.17L574.51 90.18L573.03 87.97L572.12 87.06L570.95 86.42L566.61 85.61L566.21 85.06L566.17 84.44L566.39 84.06L566.85 83.55L567.48 82.69L567.92 81.5L567.22 80.77L566.03 80.35L565.7 79.47L565.97 78.42L566.7 77.37L567.55 76.42L568.51 75.56L569.5 74.98L570.51 74.83L572.5 75.82L573.9 75.98L575.41 75.89L576.98 75.6L578.43 75.06L579.63 74.29L580.58 73.06L580.68 72.2L580.49 71.26L579.86 69.92L578.63 65.34L578.7 63.52L579.29 62.42L580.26 62.17L580.91 62.42L581.55 63.11L582.76 65.28L583.67 66.01L584.68 66.07L585.63 65.48L586.37 64.46L587.29 63.66L588.62 63.02L590.01 62.57L591.58 61.14L592.05 59.58L592.02 57.94L591.52 56.61L590.86 55.4L587.41 51.43L586.45 50.6L585.34 50.08L584.15 49.98L582.95 50.4L579.35 52.5L578.14 53L576.82 53.37L575.35 53.36L574.2 52.79L573.19 51.13L572.42 48.67L571.57 43.96L571.76 41.54L572.37 39.8L573.5 39.22L574.77 39.17L575.96 40.22L576.02 41.57L575.72 43.27L576.04 44.47L577.05 44.93L578.31 44.73L580.44 43.91L581.01 44.06L581.73 44.65L582.48 45.53L583.63 46H585.06L587.95 45.59L589.23 45.92L590.13 46.7L591.04 49.03L591.46 49.61L592.27 50.13L593.34 50.23L594.41 49.86L595.2 49.31L598.2 46.19L599.19 45.38L600.44 44.9L601.92 44.89L603.13 45.4L604.2 46.19L605.95 47.9L606.76 48.48L607.24 48.76L608.47 48.95L609.21 48.85L609.68 48.7L610.22 48.36L611.11 47.12L612.16 45.29L613.55 41.7L613.83 39.78L613.33 38.65L612.4 38.54L611.35 38.15L609.66 36.43L607.06 35.42L606.06 34.6L605.37 33.47L604.47 29.95L603.28 14.81L603.78 12.91L604.75 12.41L605.72 13L607.63 14.7L609.09 16.92L609.98 17.76L611.19 18.08L612.6 17.95L613.99 17.5L615.22 16.24L616.37 14.42L617.5 10.7L621.71 1.93998Z" fill="#CCCCCC" stroke="white" stroke-width="0.5"/>
<path d="M470.179 243.3L467.449 247.67L461.409 248.75L455.349 247.36L452.589 244.29L450.109 239.55L444.329 237.61L437.729 236.5L432.699 234.21L430.029 229.62L428.289 223.1L428.089 216.47L430.029 211.45L432.639 207.34L434.419 201.94L433.349 197.91H427.369L423.229 200.8L419.799 205L415.479 208.81L408.649 210.45L407.259 211.36L402.889 215.32L401.539 216.23H369.389L363.699 215.52L353.259 212.64L347.249 212.45L345.589 213.04L344.069 212.79L342.769 213.76L341.779 216.23L340.679 215.39L339.739 214.92L338.939 214.18L338.229 212.45H336.609L333.279 215.67L331.749 217.98L331.119 220.62L330.959 223.62L330.259 224.54L328.649 225.15L325.779 227.13L316.009 237.12L314.219 239.84L312.109 245.72L307.289 252.94L307.319 257.4L308.739 261.71L309.639 266.16L310.749 268.07L313.069 266.64L315.049 264.3L315.119 263.43L316.809 262.1L318.339 260.55L320.429 259.48L323.839 259.64L323.439 262.78L323.479 268.39L322.229 270.68L326.869 273.88L331.369 271.59L339.829 263.43L339.509 266.97L339.569 266.93L340.319 266.24L349.159 264.1L352.779 263.7L354.179 263.8L358.979 264.7L361.849 265.85L361.939 266.32L363.229 265.9L364.839 269.49L366.819 279.75L367.359 277.32L368.119 275L369.119 272.78L370.369 270.68L371.829 273.1L374.279 274.2L376.599 273.33L377.619 269.77L376.359 267.39L373.349 265.53L370.369 263.43V261.45L366.819 259.64L369.199 258.94L374.629 259.02L375.679 258.81L375.959 255.52L376.849 252.68L378.479 250.44L381.019 248.9L379.209 256.84L379.749 260.1L382.799 261.45L380.129 265.51L379.429 267.97L381.019 268.86L383.279 267.91L385.589 264.54L388.289 263.43L387.939 258.53L389.339 254.89L391.119 251.43L391.839 247.1H393.629L398.869 249.92L401.189 252.34L402.329 256L399.149 255.41L398.139 255.09L397.009 254.35H395.409L394.019 257.1L393.759 259.58L394.709 261.75L397.009 263.43L390.569 266.72L389.279 271.24L391.439 272.75L395.409 267.04L396.929 270.57L399.589 271.97L401.509 270.93L400.729 267.04L403.409 266.77L405.029 265.88L405.819 264.19L406.049 261.45H407.669L409.699 263.14L412.079 263.21L414.529 261.94L416.719 259.64L415.599 264.54L412.439 266.63L408.759 268.43L406.049 272.49L409.689 272.82L413.609 275.07L416.719 274.31L420.279 265.25H422.059L423.999 268.86V270.68L420.199 275.09L418.339 276.13V278.09L421.549 278.05L423.809 279.29L427.369 283.38L427.819 279.68L429.329 276.83L431.679 275.43L434.639 276.13L433.559 279.55L433.619 280.98L434.639 283.38L432.769 283.51L431.019 284.03L429.679 284.9L429.149 286.1L429.969 288.86L431.909 289.51L440.579 288.57L443.259 287.56L445.609 286.27L448.869 285.2L448.009 288.76L446.669 291.2L444.589 292.92L441.589 294.44L439.189 294.85L430.919 295.35L429.559 295.84L426.489 295.22L423.429 295.52L420.919 302.58L418.689 302.8L417.229 300.43L418.339 296.23L416.089 295.73L415.109 295.05L414.519 294.05L413.309 292.62L417.099 292.67L427.369 290.64L425.389 287.52L423.309 285.07L420.619 283.61L416.719 283.38L417.229 284.23L417.829 286.12L418.339 287.01L413.309 288.83L413.419 285.91L413.069 282.96L412.149 280.67L410.499 279.75L407.619 279.2L404.869 277.96L402.889 276.71L402.329 276.13L400.169 276.95L397.919 278.66L396.119 280.73L395.409 282.55L396.079 283.85L399.399 288.31L400.729 290.64L398.299 294.85L396.349 295.24L389.909 290.64L390.579 288.9L391.279 285.12L391.839 283.38L388.289 285.2L386.259 283.93L380.599 282.72L377.619 281.73L378.629 285.23L380.479 286.01L382.669 285.97L384.739 287.01L385.439 289.66L384.889 292.17L385.129 293.95L388.289 294.44L383.519 296.22L379.269 294.14L375.999 290.32L374.069 287.01L371.619 289.14L368.929 290.64L363.259 292.62V294.44L366.389 293.64L367.329 293.31L368.419 292.62L372.159 295.83L375.209 299.92L375.339 303.52L370.369 305.31L370.219 300.58L367.209 300.47L363.579 300.96L361.479 298.05H359.699L358.799 301.46L357.939 303.49L359.989 307.37L358.559 308.23L354.209 307.12L350.549 306.91L347.709 306.35L345.309 305.31L344.899 306.21L344.979 306.66L344.789 306.91L343.559 307.12L345.159 309.13L346.329 311.33L347.009 313.73L347.249 316.35H345.309L343.469 312.83L341.309 313.48L339.379 316.48L338.229 319.98L336.799 316.07L336.609 314.38L334.259 316.71L331.909 317.78L329.599 317.63L327.559 316.35L326.829 320.31L326.719 323.39L328.329 325.21L332.879 325.41L325.599 336.29L324.819 338.1L323.519 340.19L319.619 349.78L318.819 352.61L319.969 358.24L322.149 358.98L325.049 357.48L328.459 356.39L333.819 355.48L336.079 353.07L337.389 349.54L339.829 345.36L342.819 343.6L347.049 342.11L350.799 340.18L352.429 337.12L353.209 332.47L355.419 327.96L358.809 324.62L363.259 323.44L364.629 324.8L362.529 327.7L359.479 330.98L357.939 333.58L356.649 341.67L357.489 344.79L361.479 347.17L366.699 344.31L381.019 332.67L379.689 336.1L379.729 336.07L382.129 334.39L394.939 323.63L399.679 322.05L400.979 322.52L405.669 324.91L410.019 328.12L412.079 328.94L413.049 329.43L413.919 330.2L417.969 335.37L419.189 336.49L420.759 337.64L423.689 339.09L425.759 339.49L427.549 339.56L437.019 336.2L443.189 335.21L444.619 334.81L447.149 333.63L448.419 333.17L458.519 330.82L460.749 329.76L462.329 328.67L465.149 324.37L468.159 318.06L469.739 316.07L470.829 314.92L471.659 313.87L472.269 312.86L472.709 311.51L473.029 310.06L473.109 308.42L472.899 303.5L473.249 300.2L473.569 298.68L477.079 291.03L488.879 273.52L495.069 262.12L486.829 262.97L486.449 261.57L493.039 253.8L493.959 251.67L492.939 250.58L486.319 247.59L485.259 247.48L484.069 247.93L482.629 248.8L481.869 247.84L480.929 245.54L479.499 243.17L479.079 241.12L478.169 239.24L475.799 238.14L473.039 238.36L471.299 239.79L470.229 243.24L470.179 243.3Z" fill="#CCCCCC" stroke="white" stroke-width="0.5"/>
<path d="M399.999 1L392.539 2.13L385.789 5.22L370.669 16.13L354.839 23.42L341.029 33.62L341.649 35.13L346.489 51.46L347.389 57.53L347.169 61.14L346.609 64.94L345.059 70.85L343.809 72.47L342.489 73.55L341.199 74.15L332.509 80.24L330.989 80.84L329.559 80.81L328.509 80.11L327.729 79.05L326.359 74.76L325.299 74L323.829 73.81L322.309 73.9L321.079 74.23L320.259 74.34L319.049 74.4L317.819 74.07L315.789 74.4L313.209 75.36L308.419 78.79L305.769 80.11L300.769 81.97L290.859 88.28L289.489 89.96L288.059 92.41L286.769 93.62L281.639 96.19L280.149 96.49L275.259 96.19L273.359 96.48L270.999 97.47L270.219 98.7L270.269 100.02L270.579 101.34L270.369 103.03L269.299 103.86L267.849 104.35L266.189 104.49H264.869L263.989 103.86L263.499 101.3L262.729 100.06L261.339 100.88L259.739 102.7L256.779 106.69L256.559 108.43L257.079 109.68L257.649 110.64L257.339 112.32L255.309 114.1L254.879 115.24L254.919 116.41L255.439 117.51L256.169 118.62L259.749 122.63L265.719 127.72L268.289 130.59L269.279 131.43L270.379 132.18L271.639 132.82L278.619 135.06L279.749 135.84L280.629 136.84L281.269 137.97L281.429 140.04L281.129 142.88L278.019 153.79L277.999 155.39L278.359 156.85L278.579 158.67L278.539 160.87L276.489 168.62L276.529 170.3L276.789 171.54L277.529 173.61L285.889 184.01L286.719 185.56L288.359 191.06L291.409 196.67L292.409 197.63L293.839 198.76L297.039 199.77L299.129 200.76L302.569 204.94L304.009 206.23L308.809 209.09L311.619 207.94L313.189 207L321.339 198.74L323.489 197.79L326.379 197.62L331.989 197.91L333.659 197.16L337.909 193.56L339.829 192.32L345.539 190.7L351.639 190.44L357.479 191.77L362.359 195.02L366.089 198.31L369.309 199.86L379.409 201.55L389.879 205.06L394.799 206.03L400.729 205.02L404.489 202.36L411.889 194.08L414.139 192.32L418.309 191.19L426.349 186.32L430.029 185.19L432.879 185.89L438.639 188.25L440.709 187.84L443.249 186.73L446.199 186.9L448.889 187.75L448.869 188.68L450.729 189.8L452.329 191.64L452.389 193.27L452.449 193.29L453.179 193.48L456.139 193.64L458.909 193.03L460.309 192.53L461.539 191.94L462.569 191.31L463.379 190.72L463.779 190.3L463.949 189.52L463.869 188.56L463.239 186.83L461.459 183.06L461.109 181.81L461.039 181.16L461.099 179.46L461.559 177.62L462.529 175.25L462.959 173.85L462.169 172.61L451.589 166.55L450.219 165.47L448.049 164.42L445.139 163.73L443.959 163.04L443.129 162.05L442.669 160.7L441.709 154.16L440.599 151.54L432.469 137.46L432.319 135.81L432.799 133.88L434.749 130.77L437.259 127.81L438.219 126.92L439.289 126.15L440.399 125.68L441.719 125.75L443.039 126.12L444.459 126.32L445.909 126.12L447.209 125.67L448.579 125.32H449.859L450.799 125.5L451.709 125.83L458.559 129.58L459.909 129.95L461.439 130.22L466.439 130.5L469.309 130.99L470.389 130.22L470.889 128.05L471.059 115.78L471.779 110.6L471.239 106.98L470.519 104.85L469.469 103.69L464.479 99.55L463.689 98.53L463.049 97.4L462.579 95.97L462.329 94.33L461.339 68.18L461.759 66.77L463.079 66.16L475.629 63.6L479.759 62.12L480.889 61.4L483.999 58.92L485.239 58.29L486.579 57.79L487.799 57.19L488.829 56.4L489.589 55.31L489.879 53.88L488.989 51.61L488.249 50.18L487.629 49.17L486.999 48.36L483.509 44.96L476.989 40.49L476.059 39.64L475.569 38.07L475.609 35.82L477.209 31.69L478.359 29.5L480.889 25.72L482.059 23.08L486.199 16.13L486.839 14.77L487.369 12.91L487.409 9.83L486.979 6.72L484.039 1.35L412.719 1.06L399.999 1Z" fill="#CCCCCC" stroke="white" stroke-width="0.5"/>
<path d="M330.99 80.84L332.51 80.24L341.2 74.15L342.49 73.55L343.81 72.47L345.06 70.85L346.61 64.94L347.17 61.14L347.39 57.53L346.49 51.46L341.65 35.13L341.03 33.62L340.28 34.17L274.59 65.02L265.62 66.91L220.75 64.25L218.17 64.1L197.51 65.57L192.51 64.65L176.24 59.18L167 58.36L147.34 61.79L145.58 62.56L144.45 63.44L143.22 63.93L141.09 63.56L135.46 61.33L132.68 60.82L129.95 61.4L111.99 71.18L91.14 82.47L83.26 85.69L70.15 85.8L56.57 89.2L51.77 89.39L16.5 87.02L6.94 89.34L1 93.47L2.92 95.82L6 94.84L8.69 93.28L11.63 92.02H15.51L18.42 93.52L28.11 101.1L29.5 102.94L31.92 107.11L33.44 108.38L35.41 108.5L39.33 107.01L40.56 106.74L43 108.17L48.5 112.85L50.31 113.83L50.47 115.49L56.7 122.62L58.32 124.01L58.79 127.03L60.27 129.66L62.73 131.48L67.75 132.41L69.21 133.04L70.31 133.93L70.76 134.99L71.47 136.23L73.04 135.08L74.58 133.17L75.2 132.18L79.15 132.22L82.38 131.83L84.44 130.25L84.97 126.72L87.93 129.21L88.68 130.36L90.46 128.54L95.48 130.8L99.42 129.5L101.97 125.66L103.55 115.95L106.88 110.68L108.22 106.74L108.41 111.94L106.47 117.92L106.09 122.86L110.97 124.92L119.78 114.82L122.35 112.53L131.32 106.74L136.74 104.93L150.12 102.12L155.39 98.46L159 93.82L162.57 90.23L167.2 88.28L174.12 88.54L171.53 89.55L165.81 90.96L163.46 92.02L161.14 94.08L158.22 98.61L156.21 101.1L151.93 104.61L132.84 115.93L128.01 117.98L123.57 120.73L120.65 124.92L120.54 127.84L122.85 131.79L122.6 134L120.32 136.39L118.35 135.87L117.09 133.52L116.95 130.36L113.6 131.84L110.4 133.76L107.39 136.29L104.66 139.63L97.58 155.07L98.14 158.74L100.7 165.53L101.61 173.67L102.6 177.46L104.22 180.75L106.44 183.23L109.43 184.48L116.39 185.56L118.89 187.01L124.23 198.74L127.31 201.82L134.55 204.91L142.89 206.48L149.24 205.02L153.33 209.61L155.61 211.55L158.13 212.45L161.08 211.71L163.26 209.83L164.91 207.88L166.29 207L168.36 206.48L173.55 204.07L176.07 203.2L195.34 202.92L198.91 201.41L202.71 197.91L204.93 194.47L205.42 191.17L204.56 187.57L204.5 186.34L205.96 187.53L208.05 188.68L207.99 187.51L208.32 187.23L208.94 187.26L209.83 187.01L209.08 185.93L208.69 185.13L208.05 183.23L213.32 182.77L219.29 181.3L224.12 178.52L225.97 174.14H227.74L229.59 177.33L232.95 178.3L242.8 177.55L243.92 177.18L245 177.1L247.29 177.78L249.3 179.08L251.08 182.16L252.62 183.23L257.48 183.33L261.09 181.23L263.55 178.78L265.05 177.78L266.81 179.6L266.84 179.57L267.11 179.31L277.53 173.61L276.79 171.54L276.53 170.3L276.49 168.62L278.54 160.87L278.58 158.67L278.36 156.85L278 155.39L278.02 153.79L281.13 142.88L281.43 140.04L281.27 137.97L280.63 136.84L279.75 135.84L278.62 135.06L271.64 132.82L270.38 132.18L269.28 131.43L268.29 130.59L265.72 127.72L259.75 122.63L256.17 118.62L255.44 117.51L254.92 116.41L254.88 115.24L255.31 114.1L257.34 112.32L257.65 110.64L257.08 109.68L256.56 108.43L256.78 106.69L259.74 102.7L261.34 100.88L262.73 100.06L263.5 101.3L263.99 103.86L264.87 104.49H266.19L267.85 104.35L269.3 103.86L270.37 103.03L270.58 101.34L270.27 100.02L270.22 98.7L271 97.47L273.36 96.48L275.26 96.19L280.15 96.49L281.64 96.19L286.77 93.62L288.06 92.41L289.49 89.96L290.86 88.28L300.77 81.97L305.77 80.11L308.42 78.79L313.21 75.36L315.79 74.4L317.82 74.07L319.05 74.4L320.26 74.34L321.08 74.23L322.31 73.9L323.83 73.81L325.3 74L326.36 74.76L327.73 79.05L328.51 80.11L329.56 80.81L330.99 80.84Z" fill="#CCCCCC" stroke="white" stroke-width="0.5"/>
<path d="M216.159 409.81L213.529 403.44L209.549 398.26L204.499 394.43L201.699 397.89L201.309 401.32L202.709 407.29L202.939 411.37L202.659 414.54L201.459 417.66L199.149 421.6L200.809 423.61L202.709 425.39L203.069 421.05L205.709 419.6L208.639 420.59L209.829 423.57L208.279 424.87L200.969 428.3L198.269 429.01L196.299 429.24L195.489 429.98L195.379 431.38L195.449 433.52L196.229 434.79L197.889 434.34L199.509 433.24L200.119 432.64L206.979 433.77L209.709 433.91L211.769 432.64L214.419 433.39L217.969 433.13L221.079 431.47L222.409 428.02L221.579 425.75L219.749 423.85L217.909 421.33L216.159 409.81ZM197.369 405.31L197.079 398.39L196.499 394.82L195.449 392.62L181.559 397.03L177.829 400.04L175.719 404.17L175.939 408.14L178.839 410.75L184.789 410.73L182.099 415.33L182.389 418.75L183.899 422.02L184.789 426.21L186.109 429.33L189.119 427.44L194.639 420.69L197.189 416.73L197.919 413.11L197.369 405.31ZM173.419 401.69L175.049 399.94L175.819 398.43L174.119 396.41L169.739 392.85L164.539 392.33L160.599 395.18L159.909 401.69L155.899 399.44L154.559 398.06L153.009 400.93L150.629 401.88L148.429 403.47L146.379 412.47L143.859 414.49L140.909 415.84L138.589 418.16L137.779 417.13L137.319 416.35L137.039 415.52L136.809 414.36L138.419 414.06L141.969 412.54L138.079 411.57L133.659 413.18L129.409 416.29L126.009 419.79L129.469 426.16L135.089 432.81L141.509 437.04L147.479 436.26L148.689 438.14L149.549 438.87L152.819 439.86L151.189 436.26L154.559 430.66H156.209L155.289 433.18L155.009 435.39L155.329 437.56L156.209 439.86L161.519 437.85L166.129 438.17L170.729 437.97L176.069 434.43L174.349 432.05L175.649 428.1L176.669 423.27L174.119 418.16V416.17H177.829L174.079 410.79L172.939 408.33L172.489 404.39L173.419 401.69ZM230.489 394.24L232.819 390.79L233.089 379.77L235.869 369.92L234.489 367.19L227.739 367.26L221.579 373.12L217.489 381.58L217.599 389.67L224.029 394.43L230.489 394.24ZM278.629 372.06L279.429 367.26L275.399 366.65L268.739 366.43L262.489 368.23L259.719 373.53L259.069 374.46L257.549 374.38L255.799 374.05L254.559 374.36L254.309 375.48L254.799 378.63L254.559 379.77L249.069 385.54V387.2L253.129 388.7L252.079 390.66L249.099 392.72L247.289 394.43L247.799 398.06L249.539 401.64L252.009 403.02L254.559 400.04H256.159L257.109 400.36H257.549L258.149 400.18L259.719 400.04L260.279 401.11L261.119 402.37L261.639 403.5L262.759 399.81L263.329 395.67L263.059 391.81L261.639 388.99L264.839 387.89L265.549 388.56L266.999 390.66L268.969 388.97L270.369 387.15L272.339 383.58V381.76H270.389V379.77L274.129 380.14L276.539 383.59L278.129 386.58L279.429 385.54L279.939 380.79L278.629 372.06ZM136.809 365.29L134.869 367.26L130.879 366.88L125.839 369.45L122.239 373.64L122.599 378.14L119.989 378.8L118.239 380.6L117.259 383.2L116.949 386.37L118.149 386.45L125.119 389.81L128.479 390.45L145.539 388.99L144.409 385.17L145.569 382.68L148.119 381.06L151.189 379.77L151.419 377.77L151.119 374.29L150.369 370.84L149.239 368.91L145.489 368.2L142.099 368.7L139.159 368.4L136.809 365.29ZM277.649 316.35L279.009 314.39L278.959 313.63L277.649 312.56L273.679 315.22L272.339 316.35L270.389 314.38L269.589 316.94L268.479 319.29L266.999 321.45L265.049 323.44L263.699 323.33L261.519 322.74L259.389 323L258.109 325.41L259.479 328.2L263.189 330.1H267.399L270.389 327.22H272.339L272.669 328.22L273.939 330.7L279.659 326.03L280.939 323.9L279.429 321.8L280.739 320.05L281.019 319.25L281.209 318.01L279.539 318.15L278.669 317.68L278.189 316.96L277.649 316.35ZM137.059 328.09L137.699 326.57L138.589 325.41L140.109 324.17L147.829 315.92L148.749 313.4L147.479 310.75L142.909 309.97L135.639 310.8L128.959 312.76L126.009 315.36L124.099 319.47L119.809 322.61L115.079 325.08L111.939 327.22L115.649 328.5L118.759 328.95L124.229 328.89L132.659 330.79L134.869 330.7L136.269 329.58L137.059 328.09ZM127.429 294.21L126.959 293.4L126.009 292.62L124.509 293.57L122.769 294.18L120.829 294.46L118.889 294.44L118.379 293.47L118.399 293.14L118.169 292.99L116.949 292.62L109.889 300.68L100.019 301.99L89.2889 302.22L79.6289 307.12L80.7489 307.45L83.3489 308.93L82.0389 310.3L81.6889 311.06L83.3489 314.38L82.2089 316.19L81.4089 318.01L84.2489 317.74L86.3289 316.48L88.6789 314.38L102.309 314.54L102.899 314.38L103.939 315.1L107.329 318.99L108.889 320.05L109.889 319.49L110.739 318.43L111.939 318.01L114.569 316.71L117.239 316.7L118.849 316.07L119.369 314.64L119.619 313.07L120.649 310.75L124.929 304.96L126.919 301.03L127.759 296.23L127.429 294.21ZM208.529 293.98L206.589 291.23L206.269 287.01L202.969 286.53L197.079 292.72L192.859 294.44L190.199 296.55L187.589 301.53L185.579 307.24L184.789 311.65L183.709 311.62L177.829 318.01L168.799 323.44L169.939 326.3L178.899 332.66L181.379 336.12L183.819 335.35L186.419 333.92L188.739 331.78L190.269 328.89L191.099 329.88L192.999 331.68L193.829 332.67L194.329 331.44L195.099 330.13L195.449 328.89H197.369L199.479 334.34L205.199 332.91L211.939 329.06L217.089 327.22L214.279 321.82L213.079 315.32L213.869 308.85L217.089 303.49L214.159 301.15L214.989 294.05L211.769 290.64L210.739 294.16L208.529 293.98ZM327.559 279.75L324.859 280.06L321.509 281.7L317.579 282.89L313.189 281.73L310.799 284.86L307.579 287.47L304.969 290.4L304.459 294.44L298.369 294.29L295.089 297.57L292.709 301.57L289.279 303.49L286.059 304.73L286.759 307.18L288.979 308.92L290.229 308.02L291.499 308.54L294.459 309.37L297.979 309.74L300.929 308.93L303.409 312.1L307.069 309.7L308.059 305.55L302.529 303.49V301.68L308.339 301.99L309.639 301.68L314.719 296.97L315.119 296.23L317.519 295.9L319.779 297.57L323.049 298.05L328.029 297.31L327.779 295.38L325.329 292.69L323.839 289.74L324.579 286.44L327.439 283.38L327.559 279.75ZM357.939 270.68H361.479L359.699 267.04L361.939 266.32L361.849 265.85L358.979 264.7L354.179 263.8L352.779 263.7L349.159 264.1L340.319 266.24L339.569 266.93L339.509 266.97L339.279 269.6L336.829 274.42L334.159 278.53L332.879 282.55L329.879 284.71L328.759 286.79L330.229 289.74L332.159 292.75L332.879 295.57L333.899 297.94L336.609 299.71V294.44L337.529 295.09L339.829 296.23L339.639 293.24L339.949 290.33L340.679 287.63L341.779 285.2H343.559L343.659 289.75L345.509 292.45L347.709 292.41L348.869 288.83L352.979 290.07L354.209 290.64L352.529 285.99L349.889 281.6L348.069 277.19L348.869 272.49L354.079 280.43L357.579 284.21L361.479 287.01L363.259 283.38L360.199 280.67L358.949 277.67L357.939 270.68Z" fill="#CCCCCC" stroke="white" stroke-width="0.5"/>
<path d="M308.81 209.09L304.01 206.23L302.57 204.94L299.13 200.76L297.04 199.77L293.84 198.76L292.41 197.63L291.41 196.67L288.36 191.06L276.04 213.6L274.47 222.53L274.27 227.09L274.66 233.91L279.62 231.8L291.19 224.8L296.4 223.33L298.56 221.54L306.24 210.45L307.86 209.48L308.81 209.09Z" fill="#CCCCCC" stroke="white" stroke-width="0.5"/>
<path d="M194.3 211.92L193.79 211.12L191.89 208.82L188.1 208.51L184.68 208.68L180.93 208.79L180.42 209.21L180.39 209.39L181.38 210.45L173.62 214.33L169.75 215.7L166.29 216.23L157.05 214.8L152.02 214.63L147.48 216.23L148.62 218.91L149.13 222.39L149.24 229.78L150.28 233.11L152.82 233.71H155.99L159.02 235.23L165.5 245.03L168.8 247.1L171.15 246.76L174.06 245.62L177.11 245.22L179.78 247.1L182.9 243.36L184.43 239.1L186.72 228.78L188.75 225.06L191.35 222.07L193.39 218.82L194.3 211.92ZM286.72 185.56L285.89 184.01L277.53 173.61L267.11 179.31L266.84 179.57L266.81 179.6L266.98 179.78L266 183.04L264.1 186.88L263.28 190.65L261.01 189.59L258.74 188.98L253.58 188.68L251.04 187.64L249.67 185.3L248.68 182.79L247.29 181.23L242.73 181.09L236.93 182.55L231.43 184.79L227.74 187.01L225.59 189.37L218.86 199.57L217.14 206.04L216.13 207L214.38 207.38L212.51 208.27L210.88 209.4L209.83 210.45L208.25 214.01L204.5 228.78L199.98 238.29L198.47 243.61L199.15 248.9L200.19 251.3L201.23 252.5L202.75 252.11L205.38 249.83L207.79 248.23L213.55 246.14L215.14 245.29L216.9 240.44L217.03 235.18L218.06 230.86L222.41 228.78L220.71 238.6L221.77 241.99L226.86 243.3L229.54 241.73L237.97 225.18L238.48 220.15L239.58 215.58L243.75 212.45L248.75 212.39L254.82 217.59L259.72 217.9V219.71L256.96 219.86L254.57 219.6L252.59 218.95L251.13 217.97L244.81 218.36L240.01 227.32L234.69 248.9L239.66 247.62L252.07 241.11L254.56 238.84L257.1 237.32L273.94 234.21L274.66 233.91L274.27 227.09L274.47 222.53L276.04 213.6L288.36 191.06L286.72 185.56Z" fill="#CCCCCC" stroke="white" stroke-width="0.5"/>
</svg>
