<svg width="614" height="421" viewBox="0 0 614 421" fill="none" xmlns="http://www.w3.org/2000/svg">
<path d="M265.99 232.56L265.08 237.48L262.22 239.53V240.67L263.61 241.08L264.35 242.31L264.02 246.16L262.87 247.31L259.76 248.78L258.53 250.42L260.5 250.99L260.42 252.96L257.96 255.74L259.02 258.44L258.94 260L256.65 261.64L256.49 264.42L254.03 266.06V267.2L255.75 267.53L256.08 268.84L253.29 271.54L244.29 276.54L240.27 281.21L238.31 281.53L236.92 281.12L236.18 279.4L236.1 276.95L234.95 275.64L231.67 276.7L231.59 280.96L230.53 283.01L229.38 283.5L228.07 282.76L225.12 277.52L225.21 274.74L224.63 273.43L221.11 273.02L220.78 271.63L222.26 270.81L221.11 269.91H219.8L219.15 270.97L218.27 270.93L218.25 270.81L214.99 267.63L221.36 262.43L220.81 258.55L224.65 255.6L229.84 253.82L233.88 254.2L238.07 253.19L238.84 251.57L237.83 249.55L242.1 246.37L243.42 246.06L244.43 246.52L246.21 248.54L247.3 244.97L246.91 239.62L247.22 237.37L250.09 234.96L252.5 231.94L254.28 230.54L256.07 230.31L257.07 227.75L261.01 227.21L261.89 227.9L264.02 228.14L265.33 229.95L265.99 232.56Z" fill="#CCCCCC" stroke="white" stroke-width="0.5"/>
<path d="M300.821 243.08L301.301 242.99L301.591 240.66L299.111 236.88L298.971 232.51L303.631 232.66L304.941 228.73L307.271 228.44L307.701 227.42L306.541 226.11L307.121 223.78L309.891 221.74L311.631 219.55L313.671 218.24L318.911 217.95L321.971 220.57L324.151 221.3L326.041 221.16V219.55L328.231 219.26L330.561 222.03L337.691 225.96L337.091 230.95L336.381 232.22L336.961 244.74L333.911 250.27L331.431 252.16L329.101 253.18L325.901 250.71L324.731 253.33L324.881 255.37L327.501 258.57L326.191 259.44L325.321 261.04L322.841 259.3L320.081 259.01L319.351 255.08L315.711 254.78L314.691 261.04L312.071 260.61L309.451 259.15L303.921 253.91V252.46L303.041 251.87L301.011 252.02L299.261 247.94L301.011 244.16L300.821 243.08Z" fill="#CCCCCC" stroke="white" stroke-width="0.5"/>
<path d="M133.78 69.83H131.83L125 64.12L121.38 60.08L119.43 59.66L117.76 52.27L121.1 48.79L123.33 48.09L127.65 49.49L129.18 51.72L131.41 53.11L132.39 57.43L134.34 58.96L136.57 62.31L138.1 65.93L135.59 68.99L133.78 69.83Z" fill="#CCCCCC" stroke="white" stroke-width="0.5"/>
<path d="M44.0498 235.98V237.1L45.4498 236.96L46.1398 238.49V240.16L45.0298 241.42V242.67L43.2198 243.51L41.9598 242.39H40.8498L38.3398 240.3V239.05L39.4598 238.21L39.7298 236.68L40.8498 235.98H44.0498Z" fill="#CCCCCC" stroke="white" stroke-width="0.5"/>
<path d="M233.28 247.76L232.3 248.59L227.43 248.17L226.59 246.78L227.43 245.94V244.69L229.66 243.02L230.07 241.63H231.47L232.86 243.16L234.67 243.44L235.09 245.53L233.84 246.36L233.28 247.76Z" fill="#CCCCCC" stroke="white" stroke-width="0.5"/>
<path d="M369.59 249.89L368.47 250.32L365.81 249.89L363.66 247.14L365.55 245.34L367.61 244.56L367.96 243.62L372.08 241.56L374.15 242.5L374.66 243.79L373.8 245.6L371.74 246.97L369.59 249.89Z" fill="#CCCCCC" stroke="white" stroke-width="0.5"/>
<path d="M274.66 386.3L275.98 387.01L277.81 386.61L281.66 387.01L283.08 388.03L283.89 389.65L283.39 390.97L280.75 393.91L278.92 394.52L272.33 394.72L267.56 390.56L266.85 388.94L269.79 385.9L273.55 385.59L274.66 386.3Z" fill="#CCCCCC" stroke="white" stroke-width="0.5"/>
<path d="M308.24 369.87L310.37 371.09L312.7 371.39L314.94 372.3L318.69 375.55L318.89 376.97L317.98 378.59L314.33 379.61L313.72 381.03L315.24 382.04L316.66 382.14L318.18 383.46V385.29L315.95 385.49L314.63 389.24L316.25 391.58L317.68 392.69L321.12 393.5L321.73 394.42L321.43 395.94L320.21 397.26L316.36 399.69L315.34 398.68L312.4 398.48L311.59 397.16L310.78 396.95L310.88 398.48L309.86 399.79L301.75 399.69L300.73 400.5L298.3 400.2L297.89 401.52L296.98 401.31L295.97 397.46L294.85 396.45L294.14 396.75L294.04 398.68L291.5 400.91L290.08 401.52L289.78 399.79L290.69 399.19L291.4 397.56L291.71 393.91L287.14 392.49L286.23 390.97L286.53 389.24L287.55 388.13L289.78 387.72L290.69 386.1L291 381.53L291.5 380.62L293.33 381.13L293.73 381.94L295.36 381.74L294.44 379.71H293.13L290.08 378.39L290.49 375.95L291.6 373.42L293.23 373.93L293.83 374.94L299.42 371.59L299.72 370.68L301.14 370.78L302.26 369.87L305.3 368.85L306.72 369.06L308.24 369.87Z" fill="#CCCCCC" stroke="white" stroke-width="0.5"/>
<path d="M377.141 261.44L377.891 261.67V263.03L381.381 262.65L382.741 259.15L388.561 254.3L389.151 252.94L391.281 252.55L391.861 249.83L397.111 244.59L401.381 242.46L403.321 243.43L405.261 243.62L406.031 245.18L408.361 244.79L409.721 242.85L413.021 240.13L416.321 239.55L420.201 237.41L425.441 238.96L427.581 239.16L430.491 239.35L431.271 238.38H432.431L435.931 241.29L436.141 240.83L436.311 245.56L434.181 247.31L432.821 251.19L433.211 258.57L435.341 257.99L436.511 256.43L436.701 251.78L438.451 251.19L440.001 251.78L439.421 256.24L441.171 257.02L440.581 260.7L438.061 262.45V264.97L444.271 262.65L446.211 259.54L447.181 255.08L451.651 250.81L458.251 248.28L460.771 246.73L466.011 242.07L468.151 241.1L470.281 242.07H475.721L481.151 243.04L484.451 246.54L484.261 254.3L486.781 256.43L489.691 257.99L492.221 260.32L493.961 260.51L494.161 255.46L494.931 253.91L499.401 251.58L502.111 252.55L501.141 255.08L499.011 256.24V258.76H501.141L502.501 258.18L503.861 259.73L505.611 257.99H510.461V260.51L509.691 262.26L510.071 264L512.981 263.81L514.341 264.2L516.671 267.3L514.151 268.47L512.211 271.38L511.431 274.68L509.881 276.23H507.741L506.001 277.98L504.441 276.04H503.091L502.111 277.79L501.141 280.11L500.761 282.64L501.921 284.19L503.861 284.38L505.411 285.94L505.611 289.04H503.671L501.731 288.27L500.951 285.74L498.621 283.22L497.261 283.41V286.13L494.931 285.36L492.991 285.74L493.771 288.46L491.631 289.43L489.691 290.98L490.271 292.93L492.411 294.87L496.101 297L497.461 299.52L500.371 301.46L497.851 302.24L496.101 301.66L495.711 299.72L486.391 293.12L485.621 294.67L479.991 296.42L481.731 299.14L483.681 300.88L490.471 304.96L481.931 303.6L484.261 306.71L486.201 307.48L489.501 307.87L488.721 310.01L486.781 310.2L485.031 310.98L483.481 310.01L480.381 309.62L475.521 310.98L473.191 310.59L471.251 309.62L464.651 310.2L466.211 313.69L468.731 315.83L468.541 317.58L467.371 319.9L465.431 320.49L461.161 316.41L461.741 311.75H459.801L459.221 316.22L459.411 320.1L461.941 325.34L463.881 327.09L464.651 329.61L464.271 332.33L461.741 334.85L457.471 333.1L456.311 334.08L452.811 333.88L451.451 332.72L448.541 332.33L446.021 333.69L445.241 335.82L451.651 339.12L452.041 340.87L446.411 341.45L444.471 344.36L444.661 346.11L443.501 346.69L442.911 348.63L435.341 348.83L431.271 342.42L432.431 340.87L432.241 338.54L432.821 336.4L431.461 334.66L428.941 334.08L426.801 334.85L426.221 339.12H424.281L423.501 335.43L426.801 332.33L428.741 331.55L427.771 329.61L426.031 328.64L424.471 330.58H423.121V328.45L421.761 327.86L416.321 327.48L414.381 326.12L411.271 326.31L412.831 327.86L412.051 329.61L409.531 329.42L408.361 331.16L409.331 332.91L413.801 336.6L412.831 341.65L411.081 342.81L404.871 343.78L401.761 343.39L400.601 341.84H398.821L398.831 341.16L397.861 340.77L397.471 339.22L398.831 338.44L400.391 333.78L401.361 326.8L400.771 323.5L401.551 321.56L401.741 318.26L397.281 315.15L395.531 313.21L393.591 313.99L394.561 317.29L393.981 319.23L392.621 319.03L391.651 317.29L390.291 316.31L388.551 316.51L388.351 318.45L386.801 319.42L385.831 320.78H382.531L381.561 317.67V314.96L379.031 315.15L379.421 319.81L380.391 321.56L379.811 327.18L378.261 329.13L377.291 331.45L369.521 331.26L367.581 330.29L366.031 327.77L364.091 327.38L362.341 325.05L362.541 320.2L364.671 320L365.841 319.42L365.641 317.29L360.791 316.7L360.601 312.04L359.431 311.27L356.321 310.49L353.801 304.67V301.95L362.921 292.83L363.511 289.72L365.251 286.81V284.09L370.301 282.54L371.851 281.57L372.051 279.82L369.141 279.05L366.421 277.69L366.031 274L367.001 270.51L372.821 265.07L375.351 261.58L377.141 261.44Z" fill="#CCCCCC" stroke="white" stroke-width="0.5"/>
<path d="M217.069 272.63L216.609 276.95L215.379 277.52L212.099 278.67L209.559 276.7L209.039 275.65L209.719 273.75L212.199 271.19L214.989 271.27L217.069 272.63Z" fill="#CCCCCC" stroke="white" stroke-width="0.5"/>
<path d="M159.789 345.5L158.819 344.33L157.499 343.67L148.779 343.84L143.679 345.81L140.719 346.3L134.959 339.39L133.779 338.64L134.129 337.5L135.399 337.38L136.189 336.78L138.619 336.62H139.069L140.579 336.29L141.359 335.26L141.389 334.4L142.139 335L142.809 334.39L143.649 334.64L143.719 334.11L143.059 334.09L142.619 333L141.419 332.41L140.669 331.36L139.459 331.05L138.899 330.72L139.539 330.22L139.639 328.89L140.699 327.96L141.939 327.52L141.259 328.85L141.569 329.14L142.159 328.15L143.299 328.05L143.679 328.73V329.72L142.709 328.99L142.399 329.65L140.979 329.78L141.829 330.63L144.089 329.99L143.979 330.88L144.829 330.87L145.469 330.48L145.229 329.47L144.969 329.07L144.599 328.14L146.679 327.64L144.219 327.26L143.529 326.44L143.189 324.93L140.599 322.77L139.679 323.87L139.289 323.18L139.619 323.09L140.609 321.97L142.979 323.79L144.399 323.12L145.949 324.31L147.309 324.02L147.539 323.28L148.129 323.09L149.929 324.4L150.089 326.9L150.749 326.04L152.779 326.47L150.919 324.87L151.089 324.26L151.829 324.53L151.619 324.16L150.909 323.64L151.469 322.77L151.669 323.18L152.559 322.47L151.259 321.67L151.119 320.58H152.129L152.869 321.21L153.389 322.39L152.879 322.42L152.789 322.9L153.519 322.94L155.209 321.97L154.919 321.27L157.359 320.65L157.549 319.55L156.959 319.38L156.019 320.31L154.449 320.07L153.779 320.72L153.579 320.33L154.619 319.18L154.089 318.14L155.329 318.02L155.529 317.42L156.759 317.45L156.879 317.02L157.379 317.07L157.299 316.52L156.539 316.29L154.439 317.15L152.779 316.11L150.749 316.65L150.569 316.05L151.149 315.96L151.659 314.69L151.219 313.18L150.369 312.58L149.219 312.7L148.849 313.43L147.609 314.05L147.169 313.88L146.389 313.39L147.399 312.64L146.189 312.15L147.609 311.91L150.349 306.15L151.599 305.57L153.519 302.7L155.999 300.43L156.119 299.21L156.999 300.23L158.759 299.7L159.449 300.36L161.449 300.4L162.639 299.29L161.639 298.88L159.919 299.06L159.209 297.83L162.609 295.81L163.699 295.69L164.199 295.04L165.789 295.14L165.229 295.69L165.409 296.69L167.119 296.98L169.109 296.33L169.719 297.28L172.049 297.79L174.029 297.33L173.529 296.04L175.409 294.46L176.949 294.2L181.559 295.32L184.269 297.34L186.059 298.04L187.219 299.43L187.409 299.23L187.449 300.07L186.129 301.39L184.159 302.7L182.019 303.03L180.209 305L179.879 306.65L174.779 312.08L175.109 316.69L176.099 318L176.259 320.31L175.599 323.27L174.449 324.58L173.959 326.89L172.309 328.04L171.819 330.51L167.209 337.25L166.389 339.72L164.909 340.71L163.919 345.32L159.809 345.48L159.789 345.5Z" fill="#CCCCCC" stroke="white" stroke-width="0.5"/>
<path d="M102.369 331.77L105.449 333.05L108.039 336.6L108.639 336.76L108.849 337.72L110.439 338.92L110.629 339.65L110.259 339.99L110.859 341.27L110.469 341.71L111.229 342.26L110.999 343.01L111.539 344.1L111.129 344.98L111.729 345.82L112.859 344.82L113.489 345.5L116.149 345.98L118.829 345.87L119.719 345.1L119.019 344.64L119.919 342.65L121.609 341.09L123.159 341.61L123.359 341.04L126.579 338.86L128.139 338.98L128.279 339.49L129.329 339.69L129.679 340.55L130.949 340.87L131.449 340.28L132.599 340.12L133.199 338.88L133.779 338.64L134.959 339.39L140.719 346.3L143.679 345.81L148.779 343.84L157.499 343.67L158.819 344.33L159.789 345.5L158.159 347.13L156.349 348.61L154.379 351.57L150.259 354.86L149.599 356.83L144.829 360.78L144.729 362.9L142.639 363.3L140.669 362.98L137.129 363.83L133.679 362.92L131.569 363.68L128.699 363.54L126.879 362.34L124.579 362.18L123.149 360.82L121.949 360.59L120.419 361.89L120.119 362.7L119.319 362.68L119.419 364.05L118.829 364.57L117.959 364.12L117.619 362.87L115.629 364.44L114.119 364.4L113.179 363.86L112.979 365.24L112.329 365.18L111.679 366.07L109.999 366.17L106.789 364.82L103.189 367.28L102.059 367.45L101.599 365.97L100.159 365.14L100.449 364.13L101.789 362.75L102.439 360.25L100.349 358.35L100.039 356.63L100.519 355.71L101.859 355.39L101.869 353.64L102.399 353.14L102.189 352.6L102.819 351.78L102.829 350.62L104.309 350.13L105.379 350.41L106.119 349.81L105.449 349.62L106.079 349.03L105.879 348.51L103.619 349.46L102.569 348.83L102.039 349.15L100.809 347.98L100.459 346.7L99.6591 346.66L99.3691 345.85L99.9791 343.14L101.479 342.53L101.919 341.62L101.599 338.39L102.019 335.71L101.619 334.96L102.209 333.79L101.629 333.29L102.609 332.59L101.789 331.86L102.369 331.77Z" fill="#CCCCCC" stroke="white" stroke-width="0.5"/>
<path d="M197.019 220.27L196.979 219.98L197.679 220.76L200.239 221.92L202.879 224.17L209.839 224.25L216.119 228.05L217.209 227.2L218.679 224.87L220.699 223.4H224.889L225.359 221.07L226.829 220.22L229.389 221.07L236.529 224.72L243.749 222.78L247.159 224.25L251.739 224.56L253.839 224.02L255.629 224.56L257.649 224.02L259.589 224.18L261.139 224.8L261.039 227.2L257.109 227.74L256.099 230.3L254.319 230.53L252.539 231.93L250.139 234.96L247.269 237.36L246.959 239.61L247.349 244.96L246.259 248.53L244.479 246.51L243.469 246.04L242.149 246.35L237.879 249.53L238.889 251.55L238.109 253.18L233.919 254.19L229.889 253.8L224.689 255.59L220.859 258.54L221.399 262.42L215.039 267.62L218.299 270.8L218.459 271.96L217.119 272.62L215.049 271.27L212.259 271.19L209.779 273.75L209.099 275.64L206.829 275.84L205.589 278.24L202.099 282.12L194.029 289.8L191.699 294.84L189.529 297.01L187.279 299.41L186.119 298.01L184.339 297.31L181.629 295.29L177.019 294.16L176.329 293.61L174.669 293.56L173.469 294.15L172.889 295.49L171.539 295.73L170.899 295.59L171.029 295.09L173.229 294.17L173.149 293.34L172.169 292.42L168.409 292.6L167.069 293.16L163.769 291.49L161.269 291.68L156.189 294.7L155.739 296.12L153.659 297.14L152.299 299.7L146.709 303.83L142.739 304.43L141.839 304.98L140.709 304.25L139.499 304.47L138.879 303.14L137.779 302.49L136.789 302.75L136.139 303.81L136.199 302.69L137.209 301.2L138.549 300.5L140.149 297.99L140.939 297.91L141.179 296.94L141.669 297.09L142.179 296.04L143.009 295.7L143.069 297.32L145.299 297.46L146.969 297.04L148.359 295.93L148.499 294.82L145.849 292.45L144.459 292.31L143.899 293.7L142.849 293.81L141.779 295.15L141.649 294.17L140.179 293.13L139.069 291.34L139.749 290.92L139.839 289.63L140.529 289.09L140.909 285.54L141.229 284.8L142.229 284.26L142.409 281.79L143.669 278.89L145.339 277.59L146.819 277.2L147.869 275.49L148.519 275.88L150.739 275.6L151.689 275.21L152.049 274.81L153.499 274.85L152.999 273.26L150.899 273.41L152.539 272.73L154.469 268.71L153.019 268.54L152.359 269.24L152.149 268.47L151.029 269.44L150.499 269.35L149.709 270.33L148.919 270.12L149.469 271.5L148.489 272L147.879 271.92L148.489 271.07L147.879 270.8L147.449 272.6L146.739 272.86L145.679 274.92L145.279 274.25L146.039 273.63L146.459 272.05L145.809 271.93L145.739 272.69L144.789 273.15L144.079 272.61L143.989 273.45L143.379 273.23L143.419 274.47L142.809 275.8L141.689 275.36L141.269 276.07H140.539L140.129 275.68L139.239 276.07L139.119 275.53L140.859 271.76L140.529 270.6L139.669 271.58L139.529 272.06L138.569 273.86L139.109 274.38L138.519 275.87L138.989 276.72L138.689 278.12L137.119 278.84L137.529 279.77L137.099 282.6L136.069 283.26L135.489 283L135.029 282.86L133.829 282.99L133.949 282.55L133.309 282.42L132.069 283.58L131.139 283.26L131.169 282.45L130.569 282.31L130.259 281.49L130.429 279.85L129.499 279.73L129.169 278.39L128.979 280.04L128.489 280.17L128.169 279.18L128.699 279.08L128.479 277.41L128.969 277.59L128.929 276.3L129.649 275.9L130.019 274.96L128.809 274.97L129.079 273.82L129.459 272.97L128.829 271.88L128.539 273.07L128.029 272.8L127.179 273.44L127.869 271.89L128.539 271.59L127.309 271.13L127.109 270.29L126.909 270.03L126.279 269.73L124.469 272.97L124.639 271.35L124.019 271.84L122.409 271.79L122.779 268.04H121.999L122.369 266.29L121.649 266.24L122.569 263.84L122.079 263.39L121.429 264L119.939 262.19L120.379 261.6L119.899 260.94L116.389 258.7L116.609 257.72L118.359 256.8L118.679 255.07L120.189 254.22L120.469 250.99L120.969 250.74L121.469 251.62L122.209 251.7L122.479 250.51L123.169 249.99L122.889 248.85H122.329L122.509 248.23L124.179 247.06L124.079 245.91L121.829 244.52L121.079 244.44L120.779 245.3L119.949 245.22L119.789 244.69L118.489 244.78L118.009 245.99L116.689 245.51L116.729 244.98L118.119 244.34L118.319 243.79L118.499 242.97L118.839 242.35L118.689 241.8L117.939 242.63L116.189 242.75L116.579 242.09L117.049 242.48L118.609 241.17L118.859 240.52L118.389 238.95L117.819 240.59L115.959 240.76L116.209 239.76L115.629 239.18L114.569 239.91L115.069 240.25L114.949 240.68L114.469 240.88L114.249 240.22L113.449 241.07L112.369 239.35L108.449 243.02L109.379 243.63L110.359 243.11L110.669 243.66L109.359 244.13L108.159 243.6L107.059 243.73L105.919 244.74L103.349 242.96L105.289 243.64L105.949 243.63L106.709 242.93L106.209 241.92L105.369 242.65L104.279 242.22L105.119 241.06L103.979 239.75L103.259 240.23L102.669 239.52L99.3094 240.76L99.5194 241.87L95.8195 241.17L94.6694 240.4L91.0695 241.64L86.7595 239.94L84.7394 241.31L83.4995 240.43L80.2295 240.38L71.5795 237.61L65.7995 237.39L65.1495 237.75L64.3695 240.59L62.8595 241.9L60.2995 241.38L58.4795 240.21L54.7595 240.24L53.1795 240.7L52.5895 242.01L51.7295 242.34L51.3595 243.94L52.1095 245.24L51.4495 245.46L50.6195 246.95L50.5695 248.55L47.7295 247.72L43.6795 248.3L42.2295 249.4L41.2495 248.82L41.0695 248.09L38.2595 247.05L38.2395 246.57L35.8395 246.28L35.4095 244.77L34.5695 243.94L34.7795 243.13L32.9795 240.91L32.3695 238.22L31.5495 238.01L30.3695 236.76L28.6795 233.54L28.1895 230.45L28.3295 229.25L29.2595 230.02L31.5895 229.62L31.9595 228.55L33.1995 226.93L34.0795 226.51L35.2295 224.43L36.4895 224.94L36.9795 224.23L39.4895 223.54L40.8695 223.74L41.4495 224.15L41.1795 224.5L41.5495 225.05L43.5995 226.75L47.2795 227.79L47.0295 228.08L47.5095 228.56L51.0895 228.9L52.3895 227.41L52.9795 225.83L55.7795 225.96L55.9295 225.33L56.9495 225.16L58.0995 222.27L59.3495 220.91L62.3095 221.59L64.2794 220.78L63.3795 221.71L64.8395 222.05L65.3094 222.64L65.9194 222.48L64.1595 219.85L66.2694 218.86L67.4594 219.46L67.9194 220.94L66.9095 223.07L68.1694 223.64L68.0194 221.76L69.1595 221.28L69.8295 222.77L68.8295 224.57L69.5294 224.81L70.1495 224.9L71.5095 224.1L72.0294 224.98L72.8794 224.9L74.3195 224.17L74.7694 221.82L73.8794 219.58L73.4295 215.29L75.1795 213.31L76.4894 213.02L78.1294 213.98L81.5395 214.16L79.7794 215.84L78.9395 218.29L79.3595 219.02L78.5095 219.23L77.1495 221.82L79.1294 223L79.2694 225.14L80.7895 226.09L81.3394 225.78L81.3094 224.33L79.9695 219.57L80.4894 219.43L80.0795 218.68L83.8094 220.3L84.5594 219.97L85.5695 221.55L86.5795 221.28L86.7995 220.95L85.7295 219.83L84.4095 219.05L83.2495 219.44L82.9795 219L83.9095 215.78L85.0894 214.21L86.7794 213.58L88.5695 213.97L88.9494 214.85L89.9594 215.27L89.4395 215.87L90.2595 215.91L90.7495 216.58L91.1595 214.81L92.3595 215.02L92.9494 214.12L94.9395 213.98L95.8995 212.88L98.6694 212.03L98.6395 211.07L98.1994 211.03L97.1895 211.53L96.6994 210.9L94.2694 211.2L93.3295 210.85L93.1895 210.42L93.9295 209.92L94.4695 210.65L96.1395 208.76L97.6395 208.12L98.3295 206.85L99.8295 206.09L100.999 204.21L102.229 204.81L101.739 205.28L102.039 205.49L102.729 205.57L102.589 206.31L103.319 206.52L103.739 206.91L102.119 208.5L102.969 208.74L103.919 207.66L102.929 210.09L102.439 210.41L100.529 211.37L100.599 212.45L102.499 211.17L102.779 211.96L103.429 211.5L103.099 211.05L104.119 210.5L103.379 212.78L104.139 213.17L104.209 214.34L104.999 214.55L105.219 215.09L106.229 214.79L106.619 215.47L107.459 215.72L107.889 217.13L109.759 218.5L109.799 217.92L107.109 214.1L106.999 213.3L107.619 213.02L108.549 210.2L109.889 210.02L111.029 208.28L112.119 207.76L113.379 207.9L113.339 208.32L114.479 208.22L114.609 208.86L116.789 208.45L117.419 208.79L117.919 207.96L119.269 207.87L120.659 206.93L121.699 206.98L123.439 206.18L125.659 208.6L126.769 208.25L128.319 208.97L129.069 208.52L129.519 208.98L128.989 209.39L129.169 209.9L130.229 210V210.49L130.899 210.82L131.749 210.47L133.079 210.06L134.459 211.14L135.139 210.55L134.019 210.18L134.129 209.89L135.019 209.75L134.719 209.15H135.789L136.019 209.96L137.799 209.45L142.189 211.18L143.449 210.94L143.659 210.44L145.979 211.25L147.799 210.56L151.249 210.8L152.119 211L151.799 211.89L152.169 212.07L153.259 210.5L153.669 209.45L153.939 208.52L153.399 208.21L153.829 207.36L153.049 206.28L150.569 205.66L150.619 205.04L151.419 203.88L153.989 202.08L154.049 199.67L156.179 196.5L156.089 195.45L157.509 193.95L157.749 191.8L156.719 190.44L157.019 188.63L155.619 187.39L151.659 187.56L151.679 188.91L150.989 190.3L151.369 191.47L151.069 192.31L149.999 191.86L149.529 193.52L147.759 194.23L146.749 196.01L142.249 199.13L139.079 200.13L138.249 199.93L137.569 200L136.019 200.16L135.839 199.65L133.879 198.68L127.829 198.19L126.819 197.26L126.039 197.52L125.769 196.85L122.179 195.11L121.799 194.32L120.599 194.25L120.229 192.75L120.619 192.55L119.319 191.86L118.629 192.26L118.759 192.95L117.949 193.65L117.059 193.31L117.079 194.14L116.439 194.5L115.989 193.84L115.309 193.93L115.399 193.22L114.059 193.54L113.109 193.62L111.799 193.59L110.989 192.87L110.629 193.41L110.529 192.83L111.459 192.12L110.869 191L112.129 190.7L113.559 190.42L116.499 190.24L116.709 189.82L115.369 188.98L114.559 189.46L114.519 188.79L112.979 187.54L113.049 186.84L114.729 184.87L114.239 184.59L115.229 183.11L116.129 182.48L116.709 182.88L118.549 181.49L119.279 180.68L118.659 180.64L118.539 179.62L120.169 178.44L120.919 178.07L121.309 178.64L122.139 177.71L122.609 176.82L121.239 176.53L121.279 176.01L121.759 175.85L122.889 175.19L125.499 174.59L127.549 173.19L128.789 173.43L133.069 171.31L133.349 170.45H134.169L134.679 169.12L139.129 166.12L140.999 164.07L143.129 163.98L145.149 160.64L145.959 160.61L146.959 158.4L148.499 159.57L154.459 158.48L159.219 154.48L158.819 153.82L160.729 150.75L162.169 150.97L163.279 152.41L162.279 155.18L160.509 157.18L162.169 158.4L162.279 160.62L159.949 161.62L159.169 163.95L159.499 165.72L161.719 167.16L163.489 169.71L165.259 169.16L168.469 166.94L170.239 168.38L170.789 169.71L175.109 175.36L175.779 180.46L179.329 183.12L180.219 184.78L180.549 189.88L182.319 191.88L182.759 196.42L180.539 200.08L180.099 202.41L181.759 206.07L183.869 206.29L184.089 207.51L183.089 208.4V210.06L185.309 212.83L185.529 215.71L189.849 217.93L192.179 218.37L197.019 220.27ZM44.0495 235.98V237.1L45.4395 236.96L46.1395 238.49V240.16L45.0295 241.41V242.66L43.2195 243.5L41.9695 242.39H40.8595L38.3495 240.3V239.05L39.4695 238.21L39.7495 236.68L40.8695 235.98H44.0495ZM233.279 247.76L232.309 248.6L227.429 248.18L226.589 246.79L227.429 245.95V244.7L229.659 243.03L230.079 241.64H231.469L232.859 243.17L234.669 243.45L235.089 245.54L233.839 246.38L233.279 247.76Z" fill="#CCCCCC" stroke="white" stroke-width="0.5"/>
<path d="M192.47 193.97L190.59 200.87L191.03 203.75L196.13 213.17L196.68 218.16L197.01 220.27L192.02 218.16L189.69 217.72L185.37 215.5L185.15 212.62L182.93 209.85V208.19L183.93 207.3L183.71 206.08L181.6 205.86L179.94 202.2L180.38 199.87L182.6 196.21L182.16 191.67L180.39 189.68L180.06 184.58L179.17 182.92L175.62 180.26L174.96 175.16L170.64 169.51L170.09 168.18L168.32 166.74L165.11 168.96L163.34 169.51L161.57 166.96L159.35 165.52L159.02 163.75L159.8 161.42L162.13 160.42L162.02 158.2L160.36 156.98L162.13 154.99L163.13 152.22L162.02 150.78L160.58 150.56L158.67 153.63L157.91 153.45L154.37 155.81L153.41 155.88L148.03 153.83L145.25 155.43L145.15 154.66L144.24 154.39L145.87 153.02L145.84 151.83L145.23 152.07L144.44 151.39L143.1 149.43L142.41 148.84L142.35 147.36L140.1 146.64L139.67 147.28L140.22 148.34L140.26 150.82L139.52 150.61L138.98 151.24L138.24 151.2L138.7 149.09L137.43 147.11L137.1 144.53L135.34 143.51L134.67 144.27L135.25 145.3L135.48 147.86L134.5 148.9L134.54 150.33L133.24 151.12L132.4 153.91L131.76 153.9L131.68 155.39L130.12 156.99L129.42 156.55L128.9 156.67L128.16 157.04L128.08 155.67L126.83 156.71L127.32 155.18L126.84 154.95L126 156.12L125.12 155.55L125.03 154.27L124.79 153.34L124.3 153.05L123.68 152.09L120.93 151.7L119.72 150.94L119.54 149.71L119.29 148.88L119.88 148.13L120.69 148.22L121.49 147.26L123.57 146.1L127.5 145.65L129.94 144.61L131.29 142.51L132.37 141.88L133.69 136.83L135.65 135.25L136.4 134.02L135.79 133.82L133.23 135.86L129.79 142.18L127.52 144.36L123.91 144.87L123.11 144.66L122.31 143.91L122.76 142.84L124.79 141.77L125.53 140.82L125.63 137.7L124.96 137.95L124.42 139.84L121.6 142.24L120.79 144.1L120 143.57L119.62 141.4L118.03 140.29L117.76 140.68L118.62 142.02L118.96 144.8L116.64 146.86L115.23 147.19L114.43 146.34L114.21 143.8L115.01 140.43L114.06 138.38L113.61 135.65L112.83 134.69L112.98 132.64L110.81 127.84L110.72 131.3L111.3 132.78L111.23 134.86L112.26 137.78L111.88 141.21L109.8 143.75L108.41 141.74L108.99 138.45L107.37 131.53L106.93 131.33L106.68 132.77L107.58 137.9L106.63 142.13L106.83 143.24L107.29 143.35L106.06 145.07L103.63 143.53L103.59 141.99L103.1 140.48L102.58 140.36L102.26 136.88L101.82 136.1L102.11 134.83L104.24 131.72L104.21 129.4L102.6 131.99L101.31 132.7L100.14 130.74L99.09 130.08L98.33 130.47L98.77 130.69L98.87 133.49L100.66 137.95L100.37 140.63L101.95 147.92L100.22 146.95L98.96 146.62L99.42 145.83L97.86 143.83L95.39 143.99L94.53 142.79L93.06 143.26L93.02 142.12L94.12 141.42L94.13 140.47L95.05 139.48L94.71 139.08L95.87 138.37L98.42 134.62L96.71 133.03L95.26 133.1L94.76 130.94L94.12 130.46L94.71 135.38L94.04 135.67L92.29 138.47L91.02 139.51L90.63 135.93L89.7 134.78L89.23 132.33L88.02 135.98L88.61 136.64L87.91 137.59L88.05 138.85L87.56 139.16L87.4 140.65L85.86 142.48L83.3 142.94L81.79 141.64L78.3 141.35L77.88 137.94L78.85 136.05L78.05 136.06L75.97 138.87L76.17 139.81L75.36 140.38L74.81 141.69L76.1 146.44L74.18 149.89L72.62 150.38L66.01 149.09L65.47 147.46L64.96 146.91L64.34 146.54L64.07 145.62L63.14 145.53L63.11 146.45L61.71 146.98L64.93 148.62L64.75 148.91L62.39 148.68L59.96 150.51L58.3 150.74L56.84 151.66L55.15 151.61L53.71 152.78L51.69 152.26L51.39 151.97L49.53 151.09L49.41 151.72L50.56 152.23L49.85 153.16L49.86 154.41L48.31 155.57L47.96 157.67L46.62 159.55L42.59 159.74L37.2 160.7L33.41 159.86L32.59 158.7L33.06 156.45L33.18 155.82L33.87 154.26L33.64 152.85L33.55 152.32L29.87 151.29V152.13L30.02 152.61L31.08 154.09L30.8 154.22L25.79 150.71L20.2 148.09L17.32 147.58L16.17 148.43L7.59 148.92L4.33 149.92L2.28 149.03L1 147.81L4.22 145.57L5.07 144.47L4.89 143.45L5.53 142.42L8.58 142.17L10.13 140.85L10.55 139.15L9.87 135.1L12.63 132.06L12.49 129.69L12.92 129.21L21.96 133.45L23.37 135.09L23.91 136.89L24.94 137.43L25.7 137L27.84 139.14L29.68 140.02L31.52 139.77L33.27 140.47L33.62 141.96L37.18 145.54L39.34 146.26L40.36 144.67L43.17 143.72L41.92 142.92L40.59 143.7L37.5 143.02L36.3 140.96L33.5 137.86L32.72 137.57L31.48 135.51L30.14 135.26L26.31 129.4L25.92 128.29L26.83 127.94L34.17 128.93L34.47 129.78L36.15 131.1L40.46 132.76L40.75 133.73L42.88 135.29L40.96 131.56L38.99 131.16L37.98 129.86L35.36 127.2L33.59 126.49L32.48 125.46L30.34 124.94L28.35 123.43L27.06 121.68L26.11 118.18L25.31 116.86L23.78 110.43L23.95 108.88L25.03 106.71L28.74 107.63L29.97 108.72L32.08 109.71L33.13 110.7L35.27 112.52L38.34 113.14L40.76 116.03H41.92L44.25 117.86L45.85 118.06L48.22 119.77L49.83 120L52.66 121.78L52.9 122.57L52.25 124.47L52.53 124.74L54.01 123.46L54.7 125.95L55.84 127.43L55.96 128.67L54.41 130.95L54.93 131.82L54.68 133.81L56.16 134.32L58.29 129.41L59.27 131.17L59.82 131.32L59.67 128.69L64.03 132.19L65.53 130.46L64.13 129.8L62.9 127.28L65.77 126.77L66.98 125.72L69.17 125.53L69.9 124.72L71.62 124.18L70.76 123.79L68.68 124.44L66.83 124.27L64.62 125.18L60.89 124.05L60.52 123.46L59.1 123.12L59.01 122.26L57.42 120.86L56.26 118.45L59.88 117.2L65.13 117.04L67.52 115.71L71.05 115.54L73.93 116.32L74.14 114.66L72.55 113.46L73.44 112.46L76.13 111.23L76.16 110.6L75.31 109.68L74.53 109.46L73.24 109.91L69.89 112.46L67.77 112.22L63.06 113.45L57.71 112.88L56.3 113.72L46.63 110.4L40.3 103.47L37.78 95.94L39.27 91.94L41.19 90.79L44.68 91.78L50.36 94.3L50.8 96.12L52.21 96.59L53.17 97.55L55.23 97.62L56.53 96.33L58.49 96.26L59.53 98.33L60.97 99.47L62.72 99.36L64.15 100.12L66.82 99.73L68.54 100.85L69.41 100.67L69.97 101.31L72.1 102.08L75.68 102.24L68.31 99.43L67.35 98.23L63.4 97.98L61.82 97.13L61.17 97.54L60.94 95.21L60.34 94.61L58.64 93.55L56.84 94.2L54.06 92.97L53.11 92.22L52.08 89.99L50.62 88.96L50.12 89.06L47.11 86.42L46.55 85.06L44.45 83.66L41.96 79.7L40.98 79.14L41.19 78.17L40.17 76.02L40.28 75.35L41.81 71.56L43.46 70.26L46.37 71.9L47.83 71.55L48.98 71.97L54.69 75.37L58.36 76.28L60.59 77.49L61.46 77.37L61.65 75.63L60.7 74.38L57.57 72.62L56.75 72.16L50.03 66.49L48.75 64.49L49.27 63.53L53.43 63.12L54.84 61.53L56.29 61.68L56.75 62.31L59.08 63.25L61.25 65.84L65.45 68.37L64.1 66.68L61.2 64.56L59.15 61.45L55.31 59.97L52.52 59.94L51.99 59.45L55.53 55.09L56.74 54.78L58.11 55.21L58.89 54.77L58.55 53.14L59.24 52.52L65.68 53.18L68.6 54.15L70.61 55.14L71.62 56.22L71.84 58.19L72.28 58.67L73.37 58.94L74.22 58.46L76.88 59.87L77.7 60.8L78.8 62.57L78.91 64.23L79.55 64.8L79.64 65.84L78.6 68.85L78.57 69.42L76.01 70.91L76.62 72.1L76.57 73.52L77.05 73.66L77.47 72.23L79.11 71.15L83.01 66.05L83.86 66.04L85.92 68.01L86.46 70.07L86.42 77.04L86 76.99L83.81 79.25L80.91 84.72L81.47 84.97L83.1 83.49L83.44 84.1L84.11 82.6L83.87 82.12L87.22 78.4L88.85 72.88L90.26 77.43L90.19 78.55L89.45 79.08L88.85 81.29L89.79 84.07L90.58 84.1L89.8 81.16L92.3 76.87L91.95 74.47H93.21L93.34 78.97L91.8 83.67L86.94 90.48L86.31 92.1L86.69 92.6L89.65 88.12L92.27 85.74L94.92 79.02L95.04 79.77L95.89 80.51L95.94 81.48L95.59 87.42L93.89 91.3L93.56 93.31L93.66 95.33L94.54 94.8L97.7 86.57L97.37 84.72L98.13 81.61L97.3 79.21L98.3 72.6L98.99 71.85L100.6 74.05L101.04 74.11L101.34 73.09L103.13 73.49L104.25 77.19L105.75 78.21L106.5 77.76L107.13 80.7L108.27 81.15L107.82 81.74L108.28 83.32L109.18 83.2L108.58 86.02L109.03 86.77L108.35 90.85L108.59 91.99L105.36 99.89L105.98 100.64L104.62 103.72L105.09 104.05L105.83 103.85L107.23 101.05L107.18 98.14L108.49 96.34L108.69 94.18L109.34 93.71L109.9 92.23L109.86 89.92L110.8 89.38L111.59 87.86L111.63 84.87L112.09 82.35L112.57 82.21L113.77 85.39L113.75 87.69L114.44 87.96L115.23 87.34L114.76 86.92L115.18 86.19L116.42 88.26L115.99 90.57L116.12 94.52L117.5 93.52L117.58 92.18L116.82 90.63L117.17 89.35L117.68 89.13L118.06 92.71L117.19 95.29L117.46 96.51L115.73 99.5L114.51 103.05L112.55 106.05L108.91 109.29L111.22 108.68L111.44 108.03L112.68 107.52L114.62 105.37L115.2 103.64L117.85 101.39L118.34 98.75L119.87 95.69L119.75 93.55L120.78 92.44L121.84 92.68L122.48 92.16L121.25 90.26L120.54 89.93L120.52 90.46L119.8 84.22L118.55 80.64L115.55 76.96L114.39 76.63L114.1 75.27L114.33 74.41L114.92 74.66L115.57 73.19L115.2 71.36L119.35 68.23L120.05 66.75L119.35 66.56L117.78 67.31L116.32 68.58L115.56 69.1L112.72 68.69L109.38 66.76L108.94 65.5L108.1 64.78L104.77 63.8L99.74 60.89L98.26 60.9L97.17 59.67L94.32 59L92 57.41L89.01 54.42L87.36 52.13L86.56 48.96L87.1 47.31L90.5 46.06L92.14 46.24L91.7 45.18L92.78 44.22L95.44 43.33L98.75 43.1L103.51 45.92L106.28 46.15L106.49 45.59L107.21 45.73L109.24 48.74L110.55 49.81L111.45 49.91L111.04 47.99L109.62 46.92L109.72 45.15L112.1 46.47L112.35 44.85L116.74 44.13L118.18 42.9L119.53 42.86L120.83 41.87L119.19 41.95L118.58 41.41L113.93 42.77L109.97 42.65L109.29 42.25L110.21 40.02L112.22 39.41L113.85 37.31L115.47 36.43L113.97 36.03L113.86 34.71L114.49 33.81L113.6 33.77L112.7 32.94L112.89 35.09L111.69 37.17L108.55 39.82L104.02 39.48L101.56 38.16L103.49 33.58L103.65 30.86L106.85 29.91L107.1 28.39L102.66 29.41L100.68 33.79L98.37 35.57L94.54 36.45L94.31 35.14L94.96 32.19L97 30.91L97.58 28.38L96.15 30.62L92.56 32.53L91.95 34.1L92.13 35.19L91.11 36.31L88.28 37.62L87.33 38.79L86.78 38.25L83.96 38.64L83.26 38.23L80.77 36.12L76.47 33.93L74.86 32.04L74.43 30.8L75.35 29.63L77.47 30.75L78.92 30.94L79.86 32.05L80.48 32.13L81.82 31.56L82.17 30.52L83.87 29.95L84.43 28.43L84.09 25.58L81.97 25.39L77.66 19.74L79.81 18.56L82.58 21.08L83.27 19.53L84.15 18.8L88.04 18.91L88.92 17.91L89.36 16.44L87.72 15.25L87.75 14.45L89.17 13.78L93.93 15.35L96.08 17.76L96.6 17.47L98.12 18.26L99.95 18.41L101 21.53L102.58 21.85L103.93 21.55L105.74 18.39L106.93 17.52L106.26 14.84L107.05 14.35L108.49 14.48L111.45 16.98L111.94 19.24L113.51 19.13L113.8 20.11L115.7 19.79L116.22 19.29L116.3 17.28L114.47 14.46L115.48 14.38L118.32 15.6L118.46 16.85L119.09 17.24L119.11 21.42L120.22 22.36L120.76 24.37L121.44 24.52L121.92 25.32L123.04 25.46L123.89 26.51H124.82L125.97 27.28L125.63 28.54L127.69 29.58L126.7 30.99L127.33 32.4L128.35 32.69L130.56 31.72L130 33.28L127.9 35.97L128.28 36.99L130.02 38.15L127.86 41.86L128.58 42.99L129.49 43.27L132.36 40.52L133.01 40.6L133.35 42.56L132.21 44.78L132.38 45.4L132.78 45.25L134.21 43.04L134.44 42.48L135.4 40.84L135.57 39.41L136.53 38.68L136.04 42.77L137.17 44.2L137.83 44.24L138.75 43.41L140.27 43.62L143.26 41.32L143.06 44.72L144.4 45.72H145.45L144.66 47.76L144.91 48.56L141.28 51.05L140.47 52.35L144.46 49.85L145.89 49.86L146.05 50.86L147.29 51.38L148.3 53.12L150.22 53.13L152.28 54.15L155.55 54.19L154.21 55.67L154.11 56.75L156.6 58.02L156.66 58.47L155.09 62.39L154.53 62.18L153.72 63.11L155.47 63.68L156.24 64.71L155.12 67.35L156.16 69.04L155.86 70.32L156.39 71.48L158.02 72.53L159.77 69.99L161.55 72.47L161.03 74.56L159.05 77.1L159.34 77.5L162.07 75.73L162.94 74.07L163.04 71.45L161.82 69.62L162.39 67.71L163.66 67.98L166.36 67.17L169.11 73.19L168.4 73.44L165.66 72.13L165.03 72.81L166.44 73.87L166.26 75.37L167.86 76.54L167.92 77.44L170.44 77.37L171.78 76.35L172.45 76.69L172.6 76.09L173.05 76.5L173.52 75.71L174.56 75.53L178.98 79.1L179.18 80.67L178.62 81.21L176.31 80.95L172.58 81.82L169.84 83.3L167.74 83.15L164.26 84.78L163.37 84.64L163.17 85.27L163.83 86.18L163.51 87.04L163.92 87.54L165.22 86.71L165.92 87.04L168.29 85.52L170.44 85.9L172.66 84.66L175.19 84.37L176.2 84.86L176.05 85.87L174.6 86.99L172.09 87.72L171.49 88.33L171.58 88.9L175.61 88.44L178.88 87.44L179.58 87.62L180.89 89.43L181.04 91.83L181.53 91.95L181.33 94.62L180.71 95.65L178.94 96.83L179.15 97.39L179.79 97.11L179.91 97.68L181.58 98.85L180.58 100.64L180.68 103.02L179.85 103.62L178.39 107.34L175.85 109.61L172.29 110.1L171.55 110.94L169.83 110.62L170.97 111.57L170.93 112.18L171.81 112.59L173.75 112.29L174.57 111.27L174.9 113.51L178.11 114.45L177.88 115.93L176.26 117.33L175.7 117.32L174.2 120.24L173.35 120.48L172.79 122.14L171.17 122.44L167.9 122.08L165.76 121.57L165.61 120.76L164.47 121.74L163.76 120.11L163.47 119.32L162.15 117.73L160.99 117.11L160.86 115.66L159.31 112.3L157.1 111.19L156.95 110.3L156.36 110.71L153.72 111.1L153.3 111.91L155.84 112.68L158.98 115.35L159.11 116.31L160.09 119.85L159.29 120.16L158.21 121.72L159.63 122.65L160.14 124.56L159.8 125.42L160.86 125.98L160.7 127.38L161.2 127.57L161.6 128.31L162.59 127.91L163.64 128.81L164.61 128.56L165.51 129L168.22 129.03L169.85 127.94L174.78 130.11L174.95 131.32L174.84 132.33L174.88 133.32L173.5 134.18L171.09 137.17L170.09 138.94L170.39 139.93L171.18 140.18L173.82 137.69L175.1 135.59L175.73 135.51L176.94 133.93L177.87 134.31L180.63 134.93L180.61 142.24L179.02 146.95L175.95 149.83L175.94 150.91L170.61 155.4L171.1 155.8L171.75 155.59L175.64 153.44L179.45 150.52L181.11 149.99L182.02 151.94L181.99 153.14L183.57 154.25L183.53 155.17L183.9 155.72L184.26 155.83L185.09 155.98L184.82 156.77L185.37 157.17L185.77 156.32L186.29 156.65L185.78 158.82L185.26 159.23L186.86 161.52L186.49 164.34L187.13 169.24L186.07 173.83L186.84 175.47L187.34 176.62L187.94 178.18L189.83 181.73L189.39 182.31L191.86 186.71L191.95 193.62L192.47 193.97ZM133.78 69.83H131.83L125 64.12L121.38 60.08L119.43 59.66L117.76 52.28L121.1 48.8L123.33 48.1L127.65 49.49L129.18 51.72L131.41 53.11L132.39 57.43L134.34 58.96L136.57 62.3L138.1 65.92L135.59 68.99L133.78 69.83ZM108.28 155.8L107.17 156.64L105.22 156.5L104.66 155.53L107.59 152.88L108.7 153.44L108.84 154.69L108.28 155.8Z" fill="#CCCCCC" stroke="white" stroke-width="0.5"/>
<path d="M303.92 58.71L307.12 61.75L305.96 64.52L307.71 66.12L308.29 68.45L310.33 70.49L313.68 72.67L313.53 74.56L311.2 80.09L310.76 82.86L313.67 87.66L313.82 93.48L309.89 95.96L307.71 98.14L307.56 101.63L313.53 107.6L317.46 110.22V123.18L315.42 128.86L312.22 133.52L312.8 138.62L314.26 140.37L316.44 141.54L322.12 142.85L323.87 147.8L321.69 151.29L321.4 153.04L322.71 153.77L322.86 159.59L324.02 162.94L326.5 165.12L327.81 167.89L332.76 171.09L333.49 179.53L338.44 183.46L342.52 185.94L342.67 192.35L344.42 196.43L344.57 201.67L344.28 204.15L342.53 209.39V214.63L344.28 216.09L346.32 220.02V225.41L345.01 227.16L341.08 226.58L339.04 228.04L338.75 229.64L338.04 230.23L337.13 230.99L337.73 226L330.6 222.07L328.27 219.3L326.09 219.59V221.19L324.2 221.34L322.02 220.61L318.96 217.99L313.72 218.28L311.68 219.59L309.93 221.77L307.16 223.81L306.58 226.14L307.75 227.45L307.31 228.47L304.98 228.76L303.67 232.69L299.01 232.54L299.16 236.91L301.64 240.7L301.35 243.03L300.87 243.12L293.35 243.32L292.48 241.72L290.15 240.99L288.11 241.72H285.64L280.98 239.54L274.87 238.52L272.25 237.5H269.34L267.88 234.15L266.05 232.6L265.4 229.98L264.09 228.18L261.96 227.93L261.08 227.24L261.18 224.84L259.63 224.22L257.69 224.07L255.67 224.61L253.89 224.07L251.79 224.61L247.21 224.3L243.8 222.83L236.59 224.77L229.45 221.12L226.89 220.27L225.42 221.12L224.96 223.45H220.77L218.75 224.92L217.28 227.25L216.19 228.1L209.91 224.3L202.95 224.22L200.31 221.97L197.75 220.81L197.05 220.03L196.76 218.21L196.21 213.22L191.11 203.8L190.67 200.92L192.55 194.02L193.1 194.35L193.38 192.85L193.25 188.83L192.13 183.4L191.43 180.99L190.75 180.66L191.02 180.36L190.49 178.92L191.09 178.15L190.97 177.59L191.95 176.76L191.3 175.21L192.53 173.65L193.12 170.59L191.95 160.13L192.28 158.4L191.45 154.59L193.58 153.48L197.42 164.47L199.38 168.31L200.76 168.36L201.02 168.8L201.19 170.5L201.61 171.08L201.84 170.47L201.83 169.91L199.17 158.84L198.07 155.94L197.25 150.41L198.39 144.04L199.52 141.81L200.14 137.51L202.88 133.69L203.37 133.81L205.29 132.12L206.37 130.46L207.26 129.99L209.39 126.88L210.3 126.09L210.86 126.28L212.57 123.77L213 124.51L213.82 124.2L213.91 123.35L214.55 122.92L215.47 123.38L215.6 124.77L217.33 124.7L216.47 127.94L217.02 128.93L217.18 130.86L216.62 134.08L216.86 135.29L223.08 135.71L230.6 133.71L234.09 131.38L235.2 126.59L235.48 126.27L235.36 122.88L236.51 120.47L236.52 118.91L237.3 117.7L237.31 115.57L236.42 112.21L236.72 109.94L235.45 107.73L234.67 105.16L234.91 104.15L234.49 103.69L233.98 103.99L233.81 102.81L234.8 101.66L234.17 100.43L234.54 98.51L232.47 94.01L231.37 88.19L230.28 85.68L230.15 81.49L229.06 79.39L228.77 77.7L227.72 77.37L227.62 76.78L228.42 76.02L229.35 71.68L228.64 67.97L231.2 66.86L233.19 67.09L235.04 64.38L238.13 65.15L239.87 64.77L243.45 61.58L244.72 61.7L245 62.43L245.9 62.85L247.28 62.69L247.56 64.76L248.54 65.68L249.28 67.5L250.38 68.36L249.75 69.59L250 71.31L251.36 72.84L251.15 74.52L252.41 76.21L252.92 78.15L255.15 80.45L255.42 82.26L255.96 83.42L255.93 84.2L255.61 84.87L256.56 87.47L258.63 88.71L259.04 89.61L259.74 94.1L260.9 94.28L261.49 93.17L264.09 95.46L265.75 96.19L266.62 95.8L267.1 97.26L268.44 98.97L269.51 101.73L270.23 105.8L271.1 106.45L270.8 111.72L271.67 113.33L271.65 114.18L273.49 115.26L276.37 114.82L277 114.19L276.96 112.11L277.49 111.34L279.48 114.23L281.65 116.27L283.8 115.41L285.8 113.73L285.46 111.28L286.92 109.9L287.2 108.23L286.25 105.58L286.87 104.42L286.89 104.34L287.76 103.31L285.85 97.79L285.59 95.12L283.68 93.21L283.4 91.99L283.22 90.33L280.95 86.74L279.66 86.31L279.21 84.43L280.05 83.55L284.1 83.02L284.94 81.43L285.14 79.14L283.19 74.6L283.35 72.8L286.78 70.43L287.88 69.11L289.07 69.57L290.18 69.04L293.73 69.16L296.19 68.29L297.41 68.54L298.28 70.17L299.73 70.05L300.27 69.15L299.58 68.63L299.79 67.46L302.01 67.6L302.59 66.82L302.72 63.39L303.92 58.71Z" fill="#CCCCCC" stroke="white" stroke-width="0.5"/>
<path d="M363.431 2.98L364.411 4.55L364.221 6.93L363.601 6.94L362.461 5.37L361.871 5.29L361.591 3.51L362.411 2.45L361.991 1L363.431 2.98ZM551.011 85.8L547.151 86.4L545.401 85.43L544.041 85.82L541.321 88.15L540.541 91.26L537.051 95.34L535.891 94.18L530.841 94.57L528.711 95.93L525.801 95.15H523.861L520.371 96.32L515.711 97.1L513.961 96.91L510.861 98.27L511.441 102.93L507.951 105.65L505.431 106.62L503.881 107.79L503.101 109.54L500.381 111.29L493.201 112.84L492.041 113.81L490.291 119.83V122.16L491.261 125.85L492.231 133.81L488.931 139.25L485.441 140.03L484.471 141.58L481.171 139.64L476.711 140.03L472.051 138.87L469.921 140.42L469.141 141.78V144.89L466.231 151.3L466.041 154.79L464.491 158.28L465.071 161.39L469.731 165.08L473.031 168.57L471.671 171.09L471.281 174.2L468.561 177.11L466.811 180.22L463.711 183.13L462.741 186.82L462.931 200.21L461.571 201.57L461.961 206.42L463.511 208.17L460.411 213.22L455.951 214L454.591 215.94L452.071 218.27L450.321 221.57L443.721 224.68L440.031 227.2L439.061 229.92L437.701 237.49L436.161 240.91L435.951 241.38L432.461 238.47H431.301L430.521 239.44L427.611 239.25L425.481 239.06L420.241 237.51L416.361 239.64L413.061 240.22L409.761 242.94L408.401 244.88L406.071 245.27L405.291 243.72L403.351 243.53L401.411 242.56L397.141 244.69L391.901 249.93L391.321 252.65L389.181 253.04L388.601 254.4L382.781 259.25L381.421 262.74L377.931 263.13V261.77L377.181 261.54L377.911 261.48L375.971 258.96L372.091 255.86L364.711 256.25L362.191 255.47L359.091 253.14L358.701 250.62L356.371 245.77L355.211 243.64L353.461 242.67L350.941 242.28L348.611 242.67L347.451 243.64H344.931V241.51L345.901 239.96L345.121 238.41L339.881 233.75L337.941 232.78L338.061 230.31L338.771 229.72L339.061 228.12L341.101 226.66L345.031 227.24L346.341 225.49V220.1L344.301 216.17L342.551 214.71V209.47L344.301 204.23L344.591 201.76L344.441 196.52L342.691 192.44L342.541 186.03L338.461 183.56L333.511 179.63L332.781 171.19L327.831 167.99L326.521 165.22L324.051 163.04L322.891 159.69L322.741 153.87L321.431 153.14L321.721 151.39L323.901 147.9L322.151 142.95L316.471 141.64L314.291 140.48L312.831 138.73L312.251 133.64L315.451 128.98L317.491 123.3V110.34L313.561 107.72L307.591 101.75L307.741 98.26L309.921 96.08L313.851 93.61L313.701 87.79L310.791 82.99L311.231 80.22L313.561 74.69L313.711 72.8L310.361 70.62L308.321 68.58L307.741 66.25L305.991 64.65L307.161 61.88L303.961 58.84L304.861 57.74L306.471 57.06L309.301 53.84L311.921 53.58L313.061 54.64L313.291 55.53L313.391 56.72L312.861 57.95L312.611 58.79L312.061 60.46L312.681 60.54L315.701 56.22L316.591 53.42L315.611 51.9L316.421 52.35L317.141 51.94L319.001 52.82L319.551 52.61L321.111 54.45L321.251 56.04L320.351 57.7L319.561 61.19L320.471 61.15L321.681 58.4L324.441 56.91L325.791 57.18L327.741 59.19L329.651 63.65L329.121 64.95L326.411 67.83L326.491 68.66L327.271 69.23L331.531 66.29L332.521 66.76L333.791 68.67L334.561 72.93L334.511 75.33L335.141 75.97L333.971 83.53L335.571 84.51L338.261 84.33L340.641 86.91L342.131 86.26L343.261 86.99L345.621 87.25L346.831 90.14L346.521 90.4L346.811 91.28L348.261 92.71L348.331 94.92L349.051 96.06L349.031 98.04L349.851 99.04L351.051 97.74L352.881 99.96L352.871 107.98L353.351 108.68L354.521 109.83L355.161 111.98L354.571 112.83L355.161 114.89L354.601 116.6L356.361 118.26L357.661 121.56L358.861 121.76L359.251 122.3L359.351 122.93L358.681 123.24L358.771 124.38L359.651 124.97L360.231 124.39V122.91L358.291 113.85L358.971 110.22L360.321 107.36L359.941 106.28L360.631 104.82L359.821 103.18L360.211 101.61L358.801 96.22L356.541 92.79L356.551 91.43L355.741 91.12L356.051 92.59L354.591 92.14L354.141 92.55L352.201 90.61L352.071 88.25L353.371 86L349.991 82.52L347.671 76.81L347.721 74.87L346.621 71.28L346.841 68.29L346.391 65.28L345.441 62.6L346.081 57.66L347.411 56.74L347.881 55.66L348.541 55.02L354.751 55.77L355.401 57.94L356.201 58.35L356.971 56.6L358.161 56.44L359.231 57.48L358.911 58.74L359.691 59.71L361.841 58.4L363.281 58.15L364.851 58.42L365.951 59.32L367.131 59.27L368.171 60.63L369.311 61.2L368.891 62.36L370.431 64.86L373.191 65.41L373.841 67.28L377.421 70.68L379.211 74.35L380.651 75.99L380.611 78.97L382.001 81.42L383.761 82.25L388.231 82.74L393.391 81.86L395.061 81.02L395.371 80.12L397.201 78.75L396.861 77.48L397.331 76.24L399.511 73.84L399.261 73.01L398.021 72.98L398.961 70.07L398.011 69.87L397.961 69.43L399.251 68.94L399.641 68.18L398.351 67.16L399.171 66.75L400.911 67.01L404.471 63.65L404.391 59.84L403.331 59.02L403.341 58.23L403.931 57.27L403.681 57.01L405.291 56.23L406.791 54.2L408.211 53.68L409.201 54.64L410.901 54.63L411.671 52.81L417.001 52.25L418.771 53.64L419.441 54.98L419.911 59.33L421.421 61.64L421.001 63.13L421.391 64.79L420.881 65.95L422.021 66.61L422.501 66.94L423.391 65.89L422.231 65.29L422.601 63.38L428.261 62.85L430.981 61.87L433.771 59.42L439.991 56.58L445.151 53.56L447.711 50.97L447.761 49.98L449.491 48.55L450.291 46.93L449.961 44.74L450.641 42.25L449.331 40.91L449.641 39.62L449.071 39.07L448.331 39.19L447.811 38.23L447.381 36.77L447.561 34.94L446.591 32.62L445.391 31.72L445.281 29.98L445.751 28.75L444.991 27.74L445.631 26.36L444.651 23.5L446.151 22.99L444.071 18.56L443.651 16.11L442.181 14.54L442.961 13.3L442.671 12.9L443.491 11.69L443.551 10.47L444.031 10.16L445.421 10.86L446.271 10.17L447.271 10.95L447.291 9.67L448.941 9.48L449.631 8.9L450.361 10.04L450.041 10.85L450.421 11.75L451.981 11.08L452.221 10.16L452.961 9.9L454.411 10.65L455.611 13.22L456.981 13.29L457.191 12.8L460.011 12.06L459.591 11.37L460.171 10.75L459.761 9.56L460.551 9.3L460.461 9.9L460.831 10.89L462.211 10.25L463.121 6L463.771 7.17L465.921 6.46L467.461 6.68L468.241 7.64L469.091 7.38L470.351 9.2L470.471 7.34L472.271 7.7L472.561 6.16L472.821 5.88L474.011 8.54L475.571 8.46L475.621 9.43L476.771 9.1L476.131 10.43L476.421 11.36L477.571 10.85L478.631 11.32L478.031 12.78L479.891 12.63L480.131 13.2L479.121 13.48L479.151 14.06L477.321 15L477.481 16.43L477.961 16.42L478.271 17.1L477.581 17.45L477.721 18.16L477.061 19.31L478.641 20.09L477.631 21.3L477.711 22.21L478.491 21.92L479.511 22.99L479.461 21.63L480.081 21.21L480.721 21.42L480.451 22.31L480.811 22.62L483.171 21.43L484.071 21.61L483.001 23.99L483.281 24.52L483.751 24.73L484.931 23.89L487.191 24.98L490.241 25.37L491.401 27.22L492.081 32.9L491.761 35.04L490.481 37.47L487.281 40.86L487.501 42.35L488.941 44.46L489.591 44.47L491.291 43.27L491.501 43.66L490.961 46.1L490.401 46.76L490.391 48.73L491.041 49.42L493.961 48.84L494.101 49.53L494.841 49.83L495.951 48.55L497.121 48.04L497.461 49.85L499.261 50.54L500.591 50.35L500.811 52.52L501.561 52.8L502.181 53.98L504.651 54.12L506.091 57.8L507.601 58.21L507.831 58.12L510.391 57.51L511.111 56.73L511.711 54.65L510.611 51.71L510.631 48.22L511.471 45L512.631 44.7L513.361 45.42L514.941 45.81L517.271 45.23L520.111 43.65L520.841 43.94L522.771 43.11L524.111 41.67L523.811 39.98L525.131 40.23L527.301 38.7L527.461 37.53L529.001 35.63L529.371 31.97L530.951 31.68L533.251 28.99L534.231 28.87L536.951 27.12L538.991 26.95L539.551 28.08L540.761 28.58L542.261 30.23L544.551 30.7L547.331 30.3L550.921 28.12L555.131 27.57L553.081 30.13L547.101 32.13L543.111 34.71L541.951 34.85L539.031 38.05L537.551 39.04L536.261 38.97L535.421 39.66L534.121 39.76L533.281 40.66L532.031 40.83L529.881 44.6L531.181 45.77L533.811 49.88L533.081 54.59L525.901 60.5L523.901 61.36L521.111 61.66L519.001 64.71L519.211 65.34L520.521 66.15L520.931 67.41L523.361 67.18L525.761 66.28L526.191 66.51L525.451 68.91L525.921 70.54L523.811 74.1L524.501 74.67L527.161 73.91L528.731 74.2L529.111 75.62L530.851 75.36L530.981 75.97L531.611 76.15L534.421 75.48L535.211 77.14L535.061 78.09L536.001 78.7L537.141 78.82L538.521 78.18L539.451 76.94L539.961 74.79L541.991 74.19L542.661 72.72L543.421 72.22L544.171 71.92L545.861 73.23L546.991 73.09L548.231 76.58L548.511 79.13L550.221 80.34L551.011 85.8ZM369.591 249.89L368.471 250.32L365.811 249.89L363.661 247.14L365.551 245.34L367.611 244.57L367.951 243.63L372.081 241.57L374.141 242.52L374.661 243.81L373.801 245.62L371.741 247L369.591 249.89Z" fill="#CCCCCC" stroke="white" stroke-width="0.5"/>
<path d="M551.011 85.8L551.261 87.58L549.771 92.44L548.871 93.4L548.011 95.91L544.451 98.59L543.841 100.17L544.651 100.43L544.661 101.16L543.801 100.9L543.521 101.41L540.971 101.82L540.451 102.42L540.001 104.65L538.941 105.85L539.231 107.36L540.171 108.85L539.501 109.01L538.701 108.39L538.581 110.56L537.491 110.68L536.441 111.61L535.391 112.33L534.211 113.6L534.691 114.62L539.311 110.52L540.621 108.79L542.061 107.9L541.131 110.83L539.821 111.64L537.241 115.75L538.281 117.1L540.131 117.52L540.991 117.26L541.221 116.45L542.341 115.51L543.791 115.73L544.071 115.03L545.061 114.79L547.261 113.09L547.481 113.78L548.021 113.42L548.481 113.88L549.071 113.83L549.231 112.86L549.671 112.7L554.691 112.85L557.411 111.74L559.911 109.74L566.551 108.31L566.641 110.36L563.621 117.55L564.051 119.21L566.301 121.84L569.841 124.58L573.541 128.45L577.391 131.07L581.291 132.84L585.011 133.78L586.401 133.3L588.081 131.46L590.181 131.74L590.741 131.3L592.491 132.23L592.351 133.01L593.411 135.32L591.411 136.22L591.051 137.08L591.471 137.63L593.901 137.83L594.991 138.57L595.091 144.08L595.891 144.09L596.221 144.93L597.301 144.77L597.531 143.39L599.391 140.33L602.251 140.25L602.591 140.6L601.881 143.5L602.771 144L603.441 142.94L603.961 142.99L605.361 145.88L606.701 146.17L605.821 149.2L606.181 150.07L606.001 152.1L604.191 152.19L603.681 153.12L603.701 153.84L604.401 154.37L604.181 155.6L605.161 156.61L604.731 158.91L602.951 159.58L603.421 160.03L603.081 160.74L604.031 160.98L604.341 162.56L603.311 163.25L602.771 164.51L601.301 164.98L599.831 166.24L598.361 165.66L596.251 165.98L593.531 165.54L592.071 166.36L592.771 166.49L593.291 167.18L599.741 169.15L600.251 169.46L600.131 170.14L597.491 172.91L593.511 172.72L591.731 173.14L589.721 175.01L584.661 177.08L584.101 178.79L584.511 179.57L586.621 177.35L589.561 176.82L593.011 175.03L595.431 175.15L597.371 176.09L600.271 175.94L601.201 174.32L601.881 174.24L604.571 175.35L605.421 176.17L606.131 176.5L608.531 177.61L607.901 179.57L607.191 179.97L606.901 181.72L605.301 183.68L604.941 185.11L603.521 185.98L596.971 187.14L591.461 186.6L583.831 189L584.481 189.33L586.461 189.01L591.541 187.72L594.701 188.43L596.591 189.45L600.801 188.86L603.381 189.06L604.411 188.4L605.851 189.19L605.781 192.38L604.651 194.19L603.281 194.81L601.841 194.52L600.191 194.86L599.701 195.44V195.94L599.111 196.06L598.161 197.04L599.141 197.24L600.131 196.89L600.231 196.43L601.501 196.34L604.681 196.84L604.291 198.13L601.771 199.8L602.871 199.94L605.971 199.05L605.051 202.33L605.571 202.55L607.511 200.18L609.211 195.26L610.501 194.29L611.911 191.97L611.981 193.37L611.341 195.25V199.16L610.341 201.32L610.851 202.56L612.701 202.7L613.051 203.66L612.671 205.11L610.231 208.38L607.151 209.14L606.771 209.63L606.371 210.97L607.531 212.4L607.161 214.37L605.921 215.13L603.641 215.56L597.251 215.46L595.601 213L595.531 212.07L593.451 210.44L592.961 209.48L589.711 207.66L587.071 207.07L583.361 203.66L582.811 204.33L585.601 208.32L580.871 208.73L578.771 210.08L576.791 210.3L572.241 209.12L572.471 210.1L572.051 210.45L572.221 210.96L575.291 211.9L581.911 211.18L583.651 212.23L585.651 212.3L586.341 213.17L588.091 212.58L589.431 212.72L592.051 215.62L592.061 216.92L592.971 217.56L593.341 217.25L593.951 218.1L595.781 219.06L597.281 221.28L601.671 222.43L602.941 221.65L602.541 222.41L602.671 225.34L601.271 225.84L599.261 225.59L598.831 225.56L597.321 225.35L596.901 225.79L592.651 223.83L591.381 224.47L586.901 224.39L582.551 222.27L582.271 223.43L584.291 224.92L588.851 226.3L593.311 226.76L595.281 228.78L597.151 229.86L598.081 229.73L598.961 231.22L597.731 233.47L595.981 234.63L594.571 236.61L594.271 236.12L593.701 236.45L593.011 235.62L590.481 234.77L588.111 234.39L587.531 234.73L587.571 235.42L590.261 236.59L592.671 238.46L594.471 238.68L594.051 239.94L592.481 239.32L590.041 240.74L588.331 241.05L586.881 240.15L586.061 240.37L585.911 241.03L585.461 240.46L584.631 240.95L583.881 241.67L583.341 241.45L582.661 242.87L582.651 240.62L581.001 241.09L581.501 242.35L581.081 242.93L581.611 243.63L582.291 243.37L582.331 244.08L583.081 243.94L584.481 245.88L584.441 246.82L585.741 247.56L586.021 248.34L585.121 249.79L583.171 250.63L580.301 252.91L579.421 252.38L578.821 252.95L576.301 252.94L575.321 254.38L574.891 254.43L574.661 253.74L573.921 254.32L573.891 253.75L573.341 253.66L572.641 254.62L572.091 253.65L571.081 254.26L570.391 253.31L569.971 253.63L569.391 252.61L566.591 251.88L565.791 248.29L565.231 248.77L564.541 248.43L564.311 246.16L563.891 245.82L563.471 246.72L562.491 244.32L560.601 243.63L560.661 241.69L560.221 241.31L558.731 241.53L558.761 240.69L557.001 241.26L559.411 242.42L559.931 243.77L558.701 244.99L558.841 245.95L560.741 247.13L561.511 247.03L562.161 248.9L562.321 248.46L562.811 248.54L563.161 252.09L564.211 253.54L566.001 254.12L566.131 256.02L566.691 255.97L567.631 256.85L568.851 256.72L568.761 257.72L569.231 257.53L569.441 258.32L570.721 257.13L570.321 257.96L570.611 258.52L570.891 258.33L571.011 259.25L570.571 259.95L570.981 259.8L571.711 259.84L571.011 260.84L568.271 260.74L568.101 260.22L567.351 260.44L567.211 259.33L566.761 259.1L565.431 259.42L564.641 259.08L563.621 258.85L563.021 258.24L559.501 258.99L558.241 258.62L556.341 259.76L556.271 260.16L557.841 260.55L558.681 261.53L560.981 261.43L561.461 262.88L562.311 262.61L562.101 265.41L562.431 265.82L561.161 267.21L560.261 267.6L560.411 267.16L559.941 266.95L558.641 267.35L558.391 266.99L557.621 268.14L556.371 266.95L554.821 267.41L553.781 267L553.461 268.21L552.451 269.2L553.391 271.62L552.461 273.41L553.021 274.22L553.961 274.62L555.701 273.53L557.101 274.74L558.951 273.16L560.661 270.38L563.291 267.84L565.761 265.71L566.231 266.55L562.911 269.18L558.311 276.2L558.041 278L559.081 279.44L557.851 281.42L556.751 284.82L556.691 286.03L557.381 286.79L557.201 287.62L555.451 289.17L555.651 290.68L554.921 292.08L554.081 291.72L548.111 292.78L544.051 294.28L542.681 295.51L543.191 294.38L545.701 293.15L551.181 291.59L554.371 291.33L549.961 288.48L547.711 289.1L546.671 288.48L545.921 288.67L545.381 289.35L545.131 292.4L544.391 292.25L542.361 294.16H541.621L541.261 295.57L539.421 294.57L539.231 296.36L538.331 296.41L537.281 298.33L536.631 298.01L536.391 298.74L535.901 298.36L535.431 297.89L534.781 299.09L534.191 299.03L534.611 300.42L533.001 301.29L531.421 303.04L530.611 304.92L532.581 305.51L535.101 304.99L534.581 305.96L535.201 307.08L533.441 307.31L532.881 308.05L532.661 309.8L532.091 309.42L531.341 309.79L530.811 311.04L530.841 311.58L531.491 311.85L531.211 312.41L529.161 312.65L528.621 312.28L527.981 312.75L527.691 312.41L522.931 312.09L519.041 313.11L519.991 312.21L523.661 311.13L526.761 311.31L527.571 311.79L530.281 311.48L531.331 309.59L530.441 309.77L529.071 311.34L527.951 311.54L527.221 310.89L527.601 310.52L527.921 311.03L528.731 310.15L527.231 307.68L525.211 306.03L523.621 305.61H523.181L522.961 307.26L521.871 308.28L520.921 307.95L520.531 307.73L519.531 306.86L518.131 307.27L518.621 306.72L517.761 306.75L518.101 306.13L518.721 305.01L517.071 305.89L516.311 307.32L516.661 305.5L515.351 305.22L514.041 300.57L513.751 301.35L513.061 301.02L512.521 300.43L512.651 299.29L511.641 298.27L509.921 298.49L508.901 299.13L508.631 300.17L509.431 304.64L508.961 305.34L509.271 306.9L508.941 307.53L508.521 307.36L507.701 307.72L507.371 308.37L508.421 308.27L508.261 309.3L507.361 309.73L507.391 310.07L507.311 310.7L506.961 311.21L504.401 313.97L503.511 313.49L502.411 311.53L501.401 311.03L501.151 312L502.261 313.69L501.981 314.85L500.581 314.66L500.061 313.99L499.281 315.26L497.001 315.91L496.481 316.02L493.131 317.12L491.691 317.14L491.381 315.69L490.911 317.26L487.101 320.95L484.951 321.08L484.631 321.81L480.051 323.44L474.791 326.77L455.951 344.84L455.801 344.25L459.851 339.88L456.601 342.77L454.051 342.91L455.321 344.12L453.971 345.47L452.481 349.17L450.571 351.79L447.541 353.3L447.131 355.39L445.791 356.71L443.721 358.17L440.601 358.59L438.561 360.54L439.561 360.88L437.931 361.62L436.301 361.57L435.241 360.75H434.411L435.101 361.91L432.471 360.99L433.061 362.95L432.391 362.86L432.581 365.63L431.911 367.04L431.701 362.81L430.911 362.6L430.831 363.35L430.351 363.34L430.761 365.44L430.101 369.35L418.431 370.67L409.681 370.09L404.401 370.2L398.311 371.09L398.851 341.87H400.631L401.801 343.42L404.911 343.81L411.121 342.84L412.871 341.68L413.841 336.63L409.381 332.94L408.411 331.19L409.571 329.44L412.091 329.63L412.871 327.88L411.321 326.33L414.431 326.14L416.371 327.5L421.811 327.89L423.171 328.47V330.6H424.531L426.081 328.66L427.831 329.63L428.801 331.57L426.861 332.35L423.561 335.46L424.341 339.15H426.281L426.861 334.88L428.991 334.1L431.511 334.68L432.871 336.43L432.291 338.56L432.481 340.89L431.321 342.44L435.401 348.85L442.971 348.66L443.551 346.72L444.711 346.14L444.521 344.39L446.461 341.48L452.091 340.9L451.701 339.15L445.301 335.85L446.081 333.72L448.601 332.36L451.511 332.75L452.871 333.92L456.361 334.11L457.521 333.14L461.791 334.89L464.311 332.37L464.701 329.65L463.921 327.13L461.981 325.38L459.461 320.14L459.271 316.26L459.851 311.8H461.791L461.211 316.46L465.481 320.54L467.421 319.96L468.591 317.63L468.781 315.88L466.261 313.75L464.711 310.26L471.311 309.68L473.251 310.65L475.581 311.04L480.431 309.68L483.541 310.07L485.091 311.04L486.841 310.26L488.781 310.07L489.561 307.94L486.261 307.55L484.321 306.77L481.991 303.67L490.531 305.03L483.741 300.95L481.801 299.2L480.051 296.48L485.681 294.73L486.461 293.18L495.781 299.78L496.171 301.72L497.921 302.3L500.441 301.52L497.531 299.58L496.171 297.06L492.481 294.93L490.351 292.99L489.771 291.05L491.711 289.5L493.851 288.53L493.071 285.81L495.011 285.42L497.341 286.2V283.48L498.701 283.29L501.031 285.81L501.811 288.33L503.751 289.11H505.691L505.501 286.01L503.951 284.46L502.011 284.27L500.851 282.72L501.241 280.2L502.211 277.87L503.181 276.12H504.541L506.091 278.06L507.841 276.31H509.981L511.531 274.76L512.311 271.46L514.251 268.55L516.771 267.39L514.441 264.28L513.081 263.89L510.171 264.08L509.781 262.33L510.561 260.58V258.06H505.711L503.961 259.81L502.601 258.26L501.241 258.84H499.111V256.32L501.241 255.16L502.211 252.64L499.491 251.67L495.031 254L494.251 255.55L494.061 260.6L492.311 260.41L489.791 258.08L486.881 256.53L484.361 254.4L484.551 246.64L481.251 243.15L475.821 242.18H470.381L468.251 241.21L466.121 242.18L460.881 246.84L458.361 248.39L451.761 250.91L447.301 255.18L446.331 259.64L444.391 262.75L438.181 265.08V262.56L440.701 260.81L441.281 257.12L439.531 256.34L440.111 251.88L438.561 251.3L436.811 251.88L436.621 256.54L435.461 258.09L433.321 258.67L432.931 251.29L434.291 247.41L436.421 245.66L436.241 240.92L437.781 237.51L439.141 229.94L440.111 227.22L443.801 224.7L450.401 221.59L452.151 218.29L454.671 215.96L456.031 214.02L460.501 213.24L463.611 208.19L462.061 206.44L461.671 201.59L463.031 200.23L462.841 186.84L463.811 183.15L466.921 180.24L468.671 177.14L471.391 174.23L471.781 171.13L473.141 168.61L469.841 165.12L465.181 161.43L464.601 158.32L466.151 154.83L466.341 151.34L469.251 144.93V141.83L470.031 140.47L472.161 138.92L476.821 140.09L481.281 139.7L484.581 141.64L485.551 140.09L489.041 139.31L492.341 133.88L491.371 125.92L490.401 122.23V119.9L492.151 113.88L493.311 112.91L500.491 111.36L503.211 109.61L503.991 107.86L505.541 106.7L508.061 105.73L511.551 103.01L510.971 98.35L514.081 96.99L515.831 97.18L520.491 96.4L523.981 95.24H525.921L528.831 96.02L530.961 94.66L536.011 94.27L537.171 95.44L540.661 91.36L541.441 88.26L544.161 85.93L545.521 85.54L547.271 86.51L551.011 85.8ZM510.801 299.03L511.281 299.98L510.631 299.85L511.281 301.1L511.091 303.16L510.721 304.5L510.041 304.73L508.871 301.08L508.751 299.24L510.801 299.03ZM512.521 300.88L513.081 301.28L513.731 303.39L513.411 303.62L514.211 306.21L513.701 306.54L510.911 305.97L512.521 300.88ZM519.061 307.72L519.891 309.16L519.251 309.33L518.851 309.53L518.451 309.81L518.591 310.88L517.651 311L517.701 309.62L517.341 309.29L518.141 308.82L517.651 308.54L518.031 307.75L519.061 307.72ZM517.931 312.85L518.551 313.61L513.471 313.24L504.641 314.34L503.491 314.9L503.151 315.57L496.031 316.72L492.601 317.81L490.041 319.48L490.301 318.64L491.611 317.85L495.921 316.45L502.651 315.18L504.511 314.11L509.871 313.08L515.811 312.83L516.961 312.04L517.931 312.85ZM445.911 356.99L440.651 363.64L440.341 364.85L438.741 367.08L438.671 367.96L434.051 368.78L436.061 367.85L439.961 364.19L440.471 362.4L445.911 356.99Z" fill="#CCCCCC" stroke="white" stroke-width="0.5"/>
<path d="M398.821 341.84L398.281 371.06L395.581 371.64L388.151 374.42L382.361 377.2L379.271 379.39L376.251 382.45L368.221 399.1L361.991 406.5L352.801 411.79L345.611 413.02L333.081 416.76L327.481 418.89L322.201 420.08L315.041 418.94L309.721 417.12L306.671 417.37L305.821 418.93L302.931 418.28L300.861 418.81L300.611 419.24L299.981 418.46L295.421 416.46L292.131 414.39L284.821 411.8L273.601 406.43L267.601 404.22L258.501 402.38L251.751 402.16L247.551 402.83L247.271 403.2L241.891 402.24L236.631 398.6L227.721 389.51L216.191 379.28L208.771 373.71L206.021 372.28L201.781 367.17L199.421 365.06L198.471 364.63L197.871 364.97L197.221 364.3L193.411 363.42L190.021 361.4L185.311 357.57L184.961 358.01L182.831 357.36L180.221 357.31L177.231 357.93L175.631 359.53L176.681 361.15L176.341 361.74L175.181 362.19L171.191 361.81L169.041 362.79L164.261 363.44L161.791 364.78L160.451 364.94L158.541 364.23L157.261 363.06L155.861 360.16L153.791 359.34L151.591 359.25L151.201 360.5L148.591 362.1L146.081 362.95L144.721 362.9L144.821 360.79L149.591 356.84L150.251 354.87L154.361 351.58L156.341 348.62L158.151 347.14L159.801 345.5L163.911 345.34L164.901 340.73L166.381 339.74L167.201 337.27L171.811 330.52L172.301 328.05L173.951 326.9L174.441 324.6L175.591 323.28L176.251 320.32L176.091 318.02L175.101 316.7L174.771 312.09L179.871 306.66L180.201 305.01L182.011 303.04L184.151 302.71L186.121 301.39L187.441 300.07L187.401 299.23L189.461 297.03L191.631 294.86L193.961 289.82L202.031 282.14L205.521 278.26L206.761 275.86L209.031 275.66L209.561 276.72L212.101 278.69L215.381 277.54L216.611 276.97L217.071 272.65L218.411 271.99L218.271 270.95L219.151 270.99L219.811 269.93H221.121L222.271 270.83L220.801 271.65L221.131 273.04L224.651 273.45L225.221 274.76L225.141 277.54L228.091 282.78L229.401 283.52L230.551 283.03L231.611 280.98L231.691 276.72L234.971 275.66L236.121 276.97L236.201 279.43L236.941 281.15L238.331 281.56L240.301 281.23L244.311 276.56L253.321 271.57L256.101 268.87L255.771 267.56L254.051 267.23V266.08L256.511 264.44L256.671 261.66L258.961 260.02L259.041 258.46L257.981 255.76L260.441 252.98L260.521 251.02L258.561 250.45L259.791 248.81L262.901 247.34L264.051 246.19L264.381 242.34L263.641 241.11L262.251 240.7V239.55L265.121 237.5L266.021 232.58L267.851 234.13L269.311 237.48H272.221L274.841 238.5L280.951 239.52L285.611 241.7H288.091L290.131 240.97L292.461 241.7L293.331 243.3L300.861 243.1L301.051 244.18L299.301 247.97L301.051 252.05L303.091 251.9L303.961 252.48V253.94L309.491 259.18L312.111 260.64L314.731 261.08L315.751 254.82L319.391 255.11L320.121 259.04L322.891 259.33L325.371 261.08L326.241 259.48L327.551 258.61L324.931 255.41L324.781 253.37L325.941 250.75L329.141 253.23L331.471 252.21L333.951 250.32L337.011 244.79L336.431 232.27L337.141 231L338.051 230.24L337.931 232.71L339.871 233.68L345.111 238.34L345.891 239.89L344.921 241.44V243.57H347.441L348.611 242.6L350.941 242.21L353.461 242.6L355.211 243.57L356.381 245.7L358.711 250.55L359.101 253.07L362.211 255.4L364.731 256.18L372.111 255.79L375.991 258.9L377.931 261.42L377.201 261.48L375.411 261.62L372.891 265.11L367.001 270.51L366.031 274L366.421 277.69L369.141 279.05L372.051 279.83L371.861 281.58L370.311 282.55L365.261 284.1V286.82L363.511 289.73L362.931 292.84L353.811 301.96V304.68L356.331 310.5L359.441 311.28L360.611 312.06L360.801 316.72L365.651 317.3L365.841 319.43L364.681 320.01L362.541 320.2L362.351 325.05L364.101 327.38L366.041 327.77L367.591 330.29L369.531 331.26L377.291 331.45L378.261 329.12L379.811 327.18L380.391 321.55L379.421 319.8L379.031 315.14L381.551 314.95V317.67L382.521 320.78H385.821L386.791 319.42L388.341 318.45L388.531 316.51L390.281 316.32L391.641 317.29L392.611 319.04L393.971 319.23L394.551 317.29L393.581 313.99L395.521 313.21L397.271 315.15L401.731 318.26L401.541 321.56L400.761 323.5L401.341 326.8L400.371 333.79L398.821 338.45L397.461 339.23L397.851 340.78L398.821 341.17V341.84ZM275.981 387.01L277.811 386.6L281.661 387.01L283.081 388.02L283.891 389.64L283.381 390.96L280.741 393.9L278.911 394.51L272.321 394.71L267.551 390.55L266.841 388.93L269.781 385.89L273.531 385.59L275.981 387.01ZM310.371 371.09L312.701 371.39L314.931 372.3L318.681 375.55L318.881 376.97L317.971 378.59L314.321 379.6L313.711 381.02L315.231 382.03L316.651 382.13L318.171 383.45V385.28L315.941 385.48L314.621 389.23L316.241 391.56L317.661 392.68L321.111 393.49L321.721 394.4L321.421 395.92L320.201 397.24L316.351 399.68L315.341 398.67L312.401 398.47L311.591 397.15L310.781 396.95L310.881 398.47L309.871 399.79L301.761 399.69L300.751 400.5L298.321 400.2L297.911 401.52L297.001 401.32L295.991 397.47L294.871 396.46L294.161 396.77L294.061 398.7L291.521 400.93L290.101 401.54L289.801 399.82L290.711 399.21L291.421 397.59L291.721 393.94L287.151 392.52L286.241 391L286.551 389.28L287.561 388.16L289.791 387.75L290.701 386.13L291.001 381.56L291.511 380.65L293.341 381.16L293.751 381.97L295.371 381.77L294.461 379.74H293.141L290.101 378.42L290.511 375.99L291.631 373.45L293.251 373.96L293.861 374.97L299.441 371.62L299.741 370.71L301.161 370.81L302.281 369.9L305.321 368.89L306.741 369.09L310.371 371.09ZM239.171 414.06L238.681 415.64L236.781 416.75L237.241 417.54L236.221 419.06L235.501 419.15L235.491 418.38L236.231 418.05L235.181 416.58L234.991 414.29L234.251 413.6L234.841 413.07L237.071 412.87L238.141 412.07V413.11L239.171 414.06Z" fill="#CCCCCC" stroke="white" stroke-width="0.5"/>
</svg>
