<svg width="801" height="727" viewBox="0 0 801 727" fill="none" xmlns="http://www.w3.org/2000/svg">
<path d="M281.83 182.5L271.99 181.45L267.3 181.84L266.1 183.65L268.21 186.56L269.74 187.87L272.68 188.75L274.59 190.4L273.28 194.83L271.3 198.96L270.81 200.84L269.39 202.2L261.01 206.3L258.73 208.5L258.22 210.49L258.56 212.06L259.61 214.41L260.5 215.89L262.29 216.31L266.46 216.57L270.52 217.77L272.9 219.92L273.95 220.53L274.37 219.77V218.92L272.77 216.7L273.3 215.32L275.63 215.35L277.23 217.25L277.21 220.07L277.51 221.76L278.69 221.53L279.84 219.18L281.74 219L282.83 216.48L285.5 214.83L287.67 212.16L288.84 209.07L292.51 208.87L293.02 206.4L293.18 203.1L295.69 200.21L299.03 198.97L302.36 199.39L304.7 197.94V195.05L304.84 192.89L302.15 189.72L295.37 188.21L293.63 187.45L292.06 186L291.31 184.91L288.67 183.86L281.83 182.5Z" fill="#CCCCCC" stroke="white" stroke-width="0.5"/>
<path d="M572.92 416.25L528.51 397.12L523.23 396.18L522.33 397.55L520.43 399.61L511.82 404.48L508.9 407.6L486.92 419.22L485.08 423.15L484.55 438.4L483.93 441.76L476.92 444.86L469.11 445.93L465.72 445.23L460.42 445.03L437.16 449.16L433.52 453.23L431.61 456.87L430.69 460.38L430.8 462.76L433.11 467.14L435.56 473.58L436.54 478.37L437.87 480L439.21 480.92L438.69 496.44L439.13 499.16L439.7 501.06L439.74 502.41L438.44 503.35L434.26 503.86L433.85 504.21L432.02 505.02V505.96L433.14 509.73L436.51 516.72L436.98 518.54L437.88 520.14L438.86 521.14L440.72 522.33L450.2 523.2L452.6 524.23L460.97 545.03L464.49 545.29L471.96 547.42L475.67 550.32L477.47 552.69L479.29 553.96L481.14 554.88L483.26 554.33L491.54 548.04L496.41 545.76L497.64 545.6L498.81 547.33L499.6 565.3L498.58 568.78L499.44 573.38L503.14 578.16L506.69 581.43L510.94 584.01L515.87 584.76L518.52 584.29L523.39 581.88L527.86 577.62L529.13 576.07L531.03 574.56L533.28 574.65L537.6 576.77L537.93 577.52L537.56 582.33L539.07 589.62L539.67 590.61L540.49 591.3L541.76 591.47L543.91 592.64L545.56 594.79L546.53 596.65L548.42 598.71L550.29 601.56L550.56 603.91L549.42 604.87L548.69 606.31L549.63 607.67L550.74 608.24L551.86 610.53L553.12 614.19L554.42 631.61L555.26 634.31L568.04 641.1L570.85 643.17L572.1 643.55L574.04 641.72L575.04 640.34L576.73 639.19L579.46 639.26L582.31 640.97L585.4 643.57L587.83 646.39L589.02 648.96L588.67 649.85L586.07 648.26L585.18 648.22L585.14 649.14L586.14 652.11L586.19 653.29L585.96 654.06L585.21 654.99L584.63 656.42L583.67 665.44L583.91 666.78V668.11L583.42 670.69L582.58 671.73L582.65 672.67L588.14 672.28L591.53 672.89L593.77 672.68L595.2 672L596.66 672.34L598.24 673.06L600.83 673.46L601.6 673.96L601.54 674.46L601.15 675.3L601.25 676.2L601.67 677.22L601.79 678.66L602.49 679.9L604.19 680.29L606.25 680.36L608.02 680.14L609.24 678.85L610.45 678.55L612.06 679.18L613.18 679.17L613.78 679.67L615.47 682.22L616.29 680.21L616.54 678.5L616.51 675.65L617.02 674.45L617.58 673.71L617.5 672.21L618.28 671.26L618.95 669.48L618.59 667.71L617.16 666.01L616.39 663.32L617.42 661.19L618.74 659.61L618.71 658.03L617.38 656.82L616.71 655.76L617.87 653.76L619.04 650.24L616.86 645.81L613.71 642.18L612.86 639.02L612.99 636.03L612.83 634.29L611.84 630.39L611.82 625.78L616.59 607.07L617.14 601.72L616.86 585.49L621.63 579.25L622.91 575L621.44 572.61L618.04 570.03L616.5 567.65L618.9 566.37L623.6 564.77L633.23 559.16L635.1 557.68L636.31 556.36L636.38 554.62L635.95 552.78L634.74 550.24L634.68 546.36L634.09 543.22L634.68 540.17L638.15 534.86L639.42 530.17L639.54 526.03L638.11 515.99L636.46 511.81L634.59 510.58L633.61 509.54L633.98 505.58L642.47 466.08L625.95 441.99L620.01 437.56L572.92 416.25Z" fill="#CCCCCC" stroke="white" stroke-width="0.5"/>
<path d="M720.94 725.83L721.91 724.54L721.31 724.12L723.57 723.44L724.16 723.12L724.49 722.81L724.54 722.63V722.39L724.73 721.91L725.37 721.07L725.6 720.63L725.26 720.23L724.85 720L723.88 719.69L724.77 719L725.46 719.01L726.13 719.28L727.01 719.38L726.78 719.17L726.37 718.69L726.14 718.47L726.27 718.19L726.33 717.45L726.45 717.19L726.85 716.93L727.05 717.07L727.18 717.35L727.9 717.87L727.98 718.64L728.25 719.31V719.3L729.56 715.49L729.81 711.63L730.1 707.07L730.35 703.14L730.52 700.47L730.66 699.81L730.91 699.37L731.51 698.76L731.78 698.4L731.9 696.82L731.44 695L731.23 693.31L732.1 692.1L732.98 691.89L733.78 691.91L734.5 691.74L735.13 690.97L735.36 690.16L735.8 686.95L736.32 683.12L736.71 680.26L737.04 677.78L737.42 674.98L737.77 673.55L738.37 672.3L739.38 671.52L744.37 670.1L745.85 669.11L746.62 668.73L747.47 668.46L749.19 668.18L749.56 667.7L749.71 666.56L750.41 665.44L751.97 665.65L753.81 666.3L755.36 666.52L756.26 666.04L756.22 665.39L755.82 664.54L755.59 663.48L755.89 662.91L757.19 661.62L757.62 660.82L757.58 660.53L757.42 660.27L757.29 659.97L757.37 659.56L757.63 659.21L757.99 658.99L758.8 658.66L759.14 658.47L759.67 658.08L760.01 657.93L760.4 657.89L761.28 657.93L761.7 657.81L761.94 657.59L762.28 656.99L762.61 656.74L763 656.62L769.93 655.89L770.77 655.59L771.12 655.32L771.44 654.98L771.8 654.76L772.24 654.85L772.71 655.07L773.06 655.1L774.34 654.81L774.69 654.67L775 654.51L775.28 654.29L775.71 653.5L776.02 653.08L776.47 652.95L779.29 653.02L782.53 653.1L786.28 653.19L787.89 653.44L789.52 653.49L790.73 653.22L791.12 653.25L791.48 653.42L791.78 653.63L792.1 653.8L792.52 653.82L793.45 652.91L793.89 651.06L794.21 644.33L794.52 643.6L795.2 643.24L796.88 642.97L797.5 642.4L797.63 641.55L797.29 640.8L796.77 640.05L796.4 639.18L796.19 633.94L796.25 633.39L796.42 632.92L796.86 632.29L797.02 631.82L797.47 631.08L798.28 630.72H799.19L799.9 631L798.49 627.87L797.9 626.99L797.46 626.51L797.08 626.27L796.06 625.9L795.59 625.6L794.52 624.62L794 624.43L793.58 624.42L791.32 625.14L790.79 625.16L790.1 625.09L789 625.14L786.83 625.81L785.75 625.98L783.34 626.46L782.22 626.52L780.91 626.24L779.94 625.7L779.61 625.59L779.32 625.64L778.75 625.97L778.42 625.98L777.8 625.64L776.01 624.04L776.67 624L777.07 623.69L777.32 623.17L777.52 622.5L777.59 621.75L777.39 621.24L776.58 620.26L778.75 615.35L779 613.41L778.78 610.98L778.38 606.67L778.18 604.33L777.83 600.55L777.58 597.77L776.5 593.27L775.73 590.03L776.4 584.69L777 579.87L776.8 578.23L775.88 577.67L769.11 579.05L768.27 578.52L765.66 575.68L765.06 574.66L764.79 573.85L764.5 573.37L764.07 573.09L763.38 572.87L762.71 572.49L762.29 571.92L761.93 571.29L761.45 570.72L760.3 570.12L754.84 569.01L751.39 567.47L750.07 567.18L747.32 566.95L746.07 566.55L744.09 565.41L741.62 564.71L740.85 564.3L739.54 562.78L736.92 560.34L735.2 558.1L730.93 554.22L729.73 552.74L728.54 550.14L727.35 548.8L727.13 548.1L727.04 547.3L726.8 546.38L725.05 542.35L724.68 541.86L724.22 541.5L723.69 541.25L723.37 541L723.27 540.73L723.39 540.44L723.69 540.13L724.07 539.72L724.21 539.29L724.09 538.88L723.69 538.56L722.98 538.26L722.66 537.57L722.44 536.76L722.02 536.09L721.57 535.85L721.19 535.8L720.81 535.67L720.37 535.17L720.16 534.63L720.05 533.45L719.92 532.91L719.39 532.1L718.07 530.64L717.68 529.68V528.75L718.17 527.08L718.25 526.16L717.87 524.95L717.14 524.43L716.27 524.09L715.46 523.42L712.05 519.35L708.82 515.47L705.7 511.73L702.99 508.48L700.8 505.89L697.46 501.92L699.86 499.12L703 495.43L703.01 495.42L709.41 487.77L712.83 483.68L715.17 480.88L719.65 475.51L723.01 471.46L727.75 465.73L732.98 459.39L736.4 455.25L737.1 454.5L737 454.24L736.95 454.19L737.01 453.32L737.11 452.98L737.36 452.84L737.2 449.55L737.02 448.98L737.81 447.42L738.11 446.4L738.1 445.45L737.9 444.49L737.4 442.91L736.67 441.38L736.57 440.87L736.5 439.46L736.15 438.37L735.04 436.53L734.64 435.54L734.62 434.58L734.91 432.5L734.62 431.6L733.14 429.72L732.33 429.07L731.27 428.65L728.99 428.32L724.22 427.62L716.1 426.43L709.08 425.4L709.83 428.22L709.26 434.05L706.61 440.44L704.65 447.52L703.79 460.12L703.96 463.79L706.06 473.12L705.99 474.62L705.34 475.61L703.94 476.17L698.31 476.37L694.92 473.45L688.41 464.15L683.31 460.39L679.48 459.34L678.53 458.58L677.07 457.04L674.82 456.63L643.77 465.45L642.47 466.08L633.98 505.58L633.61 509.54L634.59 510.58L636.46 511.81L638.11 515.99L639.54 526.03L639.42 530.17L638.15 534.86L634.68 540.17L634.09 543.22L634.68 546.36L634.74 550.24L635.95 552.78L636.38 554.62L636.31 556.36L635.1 557.68L633.23 559.16L623.6 564.77L618.9 566.37L616.5 567.65L618.04 570.03L621.44 572.61L622.91 575L621.63 579.25L616.86 585.49L617.14 601.72L616.59 607.07L611.82 625.78L611.84 630.39L612.83 634.29L612.99 636.03L612.86 639.02L613.71 642.18L616.86 645.81L619.04 650.24L617.87 653.76L616.71 655.76L617.38 656.82L618.71 658.03L618.74 659.61L617.42 661.19L616.39 663.32L617.16 666.01L618.59 667.71L618.95 669.48L618.28 671.26L617.5 672.21L617.58 673.71L617.02 674.45L616.51 675.65L616.54 678.5L616.29 680.21L615.47 682.22L614.98 682.49L614.23 683.63L614.03 685.1L614.19 685.94L614.76 686.18L616.23 687.11L624.07 694.06L625.41 696.25L625.63 697.91L626.54 698.84L627.79 699.32L628.47 700.16L628.74 701.1L629.31 701.83L630 702.51L631.46 705.01L631.8 705.47L632.57 705.85L632.46 706.59L632.44 707.28L631.35 707.75L631.53 708.84L632.69 708.66L637.58 707.87L639.92 707.42L641.43 708.26L643.4 710.26L646.55 710.99L648.42 711.01L653.2 710.71L655.07 711.2L656.8 712.86L658.54 713.46L660.07 712.31L662.29 712.22L664.4 711.9L665.92 711.81L666.57 712.16L667.03 712.76L667.35 713L668.77 713.21L669.22 713.36L670.05 713.92L671.18 713.93L671.46 713.07L670.59 712.48L670.49 712.26V711.99L670.86 711.57L671.1 711.48L672.25 711.25L673.75 711.18L674.5 711.29L675.1 711.57L674.92 711.75L674.53 712.48L675.73 713.46L677.53 713.43L678.36 713.9L680.05 714.6L681.38 715.16L681.86 715.27L681.97 714.69L680.78 714.07V713.97L681.24 714.03L680.8 713.56L680.63 713.27L680.46 713.16H680.1L679.64 712.94L679.36 712.91L679.16 712.78L679 711.85L678.87 711.56L678.88 711.26L679.21 710.76L679.86 709.97L680.25 709.35L680.96 708.96L683.8 708.08L684.54 708.01L685.27 708.1L685.91 708.48L687.42 709.97L687.55 710.38L687.56 712.95L687.69 713.56L688.69 715.01L688.05 715.6L688.74 715.97L692.64 716.46L698.39 717.82L705.17 718.95L710.95 721.03L711.58 722.16L711.56 722.91L713.98 723.43L720.94 725.83Z" fill="#CCCCCC" stroke="white" stroke-width="0.5"/>
<path d="M558.91 99.2701L552.95 96.9001L551.91 95.5001L552.72 92.7301L552.83 91.8501L552.62 90.9301L551.74 89.6701L551.26 88.0901L549.9 86.6201L549.42 85.8901L548.67 84.0701L547.71 82.4401L547.54 81.9801L547.52 81.5901L547.41 81.2501L546.95 80.9501L546.06 80.6401L545.61 80.5901L545.16 80.6401L544.44 81.0001L544.08 81.3901L543.95 81.5301L543.12 82.9801L542.63 83.5101L541.29 84.4101L540.71 84.9201L539.96 85.3401L539.12 85.2101L537.48 84.5301L531.25 83.3601L530.61 83.1501L529.19 82.3301L527.57 81.0101L527.17 80.9301L525.19 81.2701L521.87 82.7301L521.21 82.8501L520.65 82.5901L520.13 82.1801L519.55 81.8201L518.84 81.6501L515.05 81.7701L513.55 82.3501L512.15 83.3301L509.54 85.7601L509.28 86.4801L510.41 87.7701L510.6 88.6901L510.46 89.6601L510.04 90.4901L509.39 90.9801L505.85 91.5701L505.17 91.4801L503.89 90.9501L504.17 94.6301L503.9 96.1201L504.01 98.0201L504.5 100.23L504.46 101.47L503.62 104.85L503.71 107.23L505.12 108.9L507.07 109.87L508.76 111.17L509.53 114.36L507.25 117.53L502.4 119.21L501.3 119.38L500.05 119.95L498.79 121.11L495.78 122.36L492.75 127.73L491.5 128.95L497.76 137.3L500.7 139.38L502.33 139.09L504.35 139.94L503.91 141.13L501.5 141.85L500.43 142.71L500.17 143.47L500.44 143.88L500.71 144.44L500.91 145.81L500.7 149.32L499.92 152.42L499.77 153.46L500.55 155.09L505.45 160.61L510.14 164.66L512.48 165.43L516.42 166.11L518.48 166.9L524.78 165.83L524.91 164.43L524.59 162.6L524.92 160.25L527.31 157.06L537.27 148.96L543.88 149.28L571.28 164.52L582.74 166.28L585.88 165.5L587.43 164.04L588.81 160.01L588.47 158.39L586.99 157.51L586.45 156.69L586.72 155.25L589.17 152.61L589.02 151.41L587.65 150.74L586.82 149.47L586.47 148.14L585.93 148.38L585.33 149.95L584.22 150.12L583.48 148.66L582.33 147.4L580.31 145.99L580.11 144.18L581.79 142.09L584.28 134.75L585.77 132.66L586.18 131.11L586.22 130.08L586.6 129.18L587.69 127.83L588.6 126.16L588.35 124.06L587.21 121.73L583.46 118.21L582.5 116.04L581.98 114.26L581.2 113.28L562.64 112.4L561.06 111.26L561.74 109.45L562.2 107.51V105.23L563.76 103.63L568.78 100.53L568.58 100.51L568.05 100.17L567.53 99.7201L566.97 99.3801L566.35 99.3701L565.73 99.5301L563.71 99.5701L561.6 98.9601L560.91 98.8701L560.21 98.9801L559.56 99.1801L558.91 99.2701Z" fill="#CCCCCC" stroke="white" stroke-width="0.5"/>
<path d="M571.48 102.14L570.86 101.88L570.61 101.55L570.24 100.76L569.95 100.47L569.6 100.39L568.93 100.54L568.78 100.53L563.76 103.63L562.2 105.23V107.51L561.74 109.45L561.06 111.26L562.64 112.4L581.2 113.28L581.98 114.26L582.5 116.04L583.46 118.21L587.21 121.73L588.35 124.06L588.6 126.16L587.69 127.83L586.6 129.18L586.22 130.08L586.18 131.11L585.77 132.66L584.28 134.75L581.79 142.09L580.11 144.18L580.31 145.99L582.33 147.4L583.48 148.66L584.22 150.12L585.33 149.95L585.93 148.38L586.47 148.14L586.82 149.47L587.65 150.74L589.02 151.41L589.17 152.61L586.72 155.25L586.45 156.69L586.99 157.51L588.47 158.39L588.81 160.01L587.43 164.04L585.88 165.5L582.74 166.28L571.28 164.52L543.88 149.28L537.27 148.96L527.31 157.06L524.92 160.25L524.59 162.6L524.91 164.43L524.78 165.83L525.59 165.6L526.91 165.65L528.59 166.66L529.61 170.71L528.49 175.52L526.82 178.72L526.21 184.31L526.99 193.93L528.33 200.12L529.46 202.98L539.27 211.02L541.98 214.14L541.35 217.7L534.15 230.1L532.39 234.19L531.13 235.18L522.39 238.48L517.69 241.28L512.35 246.17L505.7 254.41L522.61 249.99L539.06 242.17L549.48 239.49L554.08 240.7L566.15 249.98L567.57 253.16L567.01 256.39L563 260.33L546.6 271.96L543.78 277.05L538.57 292.77L538.23 301.21L540.81 315.57L542.75 318.64L550.97 319.62L561.54 317.16L563.31 319.42L564.95 322.59L568.04 343.51L570.74 349.67L574.25 351.69L575.24 352.47L577.92 353.67L581.44 355.87L584.78 361.13L585.87 361.9L586.91 360.66L588.68 357.62L590.05 351.78L595.79 343.06L608.8 334.42L610.64 332.53L612.7 329.22L612.95 327.8L614.19 325.52L607.91 320.93L607.56 319.5L607.13 318.33L606.16 317.63L605 316.49L604.81 314.38L605.43 311.55L606.49 308.99L606.65 307.02L606.21 304.82L607.08 301.14L607.47 297.84L605.85 295.23L605.62 293.92L606.23 292.49L608.45 291.64L615.04 292.47L619.28 293.77L620.41 292.95L621.59 291.64L633.88 289.81L637.72 287.6L642.03 285.99L644.26 287.9L648.32 294.54L653.74 296.47L679.49 296.39L682.72 295.85H682.74L682.67 295.18L682.91 292.94L684.08 290.59L685.38 288.89L686.83 287.38L688.8 286.33L689.44 285.62L689.16 284.55L692.08 284.38L696.29 284.12L699.37 283.94L698.9 283L695.83 279L695.18 277.69L694.77 277.11L694.27 276.66L693.26 276.19L692.89 275.84L692.54 274.64L692.27 274.3L691.92 274.1L691.48 274.03L692.08 272.98L693.11 272.44L695.38 272.14L696.41 271.85L697.22 271.29L699.1 269.14L699.31 268.74L699.58 268.41L700.13 268.09L700.71 267.99L701.25 268.04L701.73 267.92L702.17 267.35L702.33 266.12L702.2 264.82L702.25 263.63L702.99 262.76L704.3 261.73L705.11 260.28L705.34 259.45L706.61 259.02L706.94 257.36L707.12 255.58L707.09 255.14L706.91 254.2L706.87 253.68L707 253.05L707.58 252.1L707.71 251.62L707.85 250.63L708.45 248.74L708.7 246.65L709 245.92L710 244.51L709.56 244.05L709.5 243.64L709.61 243.19L709.69 242.61L709.58 242.4L708.11 240.4L707.89 239.9L708.14 239.67L708.56 239.45L708.57 238.97L708.37 238.48L708.14 238.26L708.11 237.77L708.14 236.69L708.39 235.61L708.98 235.11L709.86 235.09L710.85 234.92L711.65 234.47L711.98 233.57L711.78 230.96L711.98 229.92L712.22 229.36L713.08 228.18L713.31 227.66L713.67 226.07L714.13 225.09L715.1 223.91L715.65 222.95L715.91 221.89L715.8 220.86L715.37 218.78L715.06 218.31L714.06 216.74L713.5 215.59L713.39 214.23L713.55 213.92L714.12 213.37L714.24 213.01L714.21 212.11L714.24 211.82L714.51 210.61L714.5 210.11L714.24 209.73L714.5 208.59L714.48 207.76L714.33 206.99L714.14 205.17L713.88 204.26L713.51 203.4L713.08 202.7L712.42 201.88L711.7 201.21L710.86 200.76L709.85 200.6L709.28 200.35L709.76 199.74L710.6 199.05L711.1 198.51L711.13 198.03L710.98 197L711.1 196.38L711.37 196.14L711.75 195.98L712.11 195.73L712.26 195.17L712.28 194.71L712.35 194.2L712.48 193.75L712.69 193.39L713.12 192.82L713.2 192.51L713.14 192.24L713.03 190.7L712.41 187.51L711.81 186.51L711.67 186.01L711.65 184.82L711.58 184.29L711.41 183.75L711.24 183.44L710.98 183.13L710.66 182.87L710.26 182.7L710.37 182.34L710.43 182.2L710.57 181.99L709.98 180.52L710.21 178L711.1 173.86L710.86 173.09L710.79 172.47L710.97 171.92L711.22 171.53L711.45 171.04L711.61 170.46L711.67 169.83L711.6 169.18L711.45 168.7L711.1 167.91L710.77 166.16L709.09 165.93L707.03 165.56L702.79 165.64L697.88 165.73L689.05 165.89L683.26 165.99L676.69 166.11L675.32 165.35L674.47 163.85L673.26 160.68L672.39 159.27L668.01 153.91L666.1 150.98L664.54 147.67L663.32 146.02L661.76 145.34L658.36 144.74L656.84 143.84L654.13 141.54L648.17 139.59L647.73 139.56L647.34 139.77L646.86 140.54L646.57 140.85L646.17 140.93L645.62 140.49L645.33 139.63L645.13 138.65L644.84 137.84L644.15 137.09L643.53 136.99L642.22 137.51L641.88 137.49L641.53 137.31L641.2 137.04L640.93 136.76L640.25 136.58L640.13 136.21L640.25 135.78L640.3 135.43L640.36 135.29L640.51 135.12L640.56 134.86L640.32 134.51L639.54 133.64L636.95 131.48L636.46 130.77L635.65 127.18L635.55 126.09L635.69 125.51L635.95 125L636.12 124.53L636 124.1L635.75 123.53L635.88 122.37L635.69 121.68L634.89 120.57L634.06 119.78L633.11 119.53L630.78 120.59L629.9 120.51L624.38 116.52L623.03 115.12L622.57 114.86L621.37 114.68L620.81 114.5L620.23 114.08L618.6 113.32L615.39 112.58L612.91 111.19L612.68 111.56L612.58 112.33L612.03 113.02L611.59 113.17L611.17 113.21L610.28 113.04H609.81L609.52 113.28L609.26 113.59L608.9 113.81L607.97 113.91L607.03 113.77L605.24 113.03L603.16 111.18L602.49 110.83L601.68 110.89L601.04 111.36L600.54 112.1L600.16 112.97L599.6 113.84L598.89 114.18L595.14 114.55L594.56 114.4L593.47 113.62L592.95 113.37L589.72 112.88L589.02 112.62L588.31 112.03L588.11 111.43V110.71L588 109.75L587.86 109.36L587.2 108.14L587.17 107.73L587.26 107.36L587.25 107L586.94 106.64L586.24 106.3L585.57 106.15L584.18 106.02L581.45 105.38L574.96 102.26L573.53 101.87L572.86 101.92L572.16 102.08L571.48 102.14Z" fill="#CCCCCC" stroke="white" stroke-width="0.5"/>
<path d="M653.74 296.47L648.32 294.54L644.26 287.9L642.03 285.99L637.72 287.6L633.88 289.81L621.59 291.64L620.41 292.95L619.28 293.77L615.04 292.47L608.45 291.64L606.23 292.49L605.62 293.92L605.85 295.23L607.47 297.84L607.08 301.14L606.21 304.82L606.65 307.02L606.49 308.99L605.43 311.55L604.81 314.38L605 316.49L606.16 317.63L607.13 318.33L607.56 319.5L607.91 320.93L614.19 325.52L612.95 327.8L612.7 329.22L610.64 332.53L608.8 334.42L595.79 343.06L590.05 351.78L588.68 357.62L586.91 360.66L585.87 361.9L586.07 365.68L585.73 367.19L584.61 369.01L583.91 370.77L584.21 371.86L584.84 372.99L586.05 374.37L586.12 375.86L587.38 378.6L589.04 381.35L588.95 384.04L588.01 386.77L587.63 389.17L586.95 391.45L581.44 398.85L579.92 403.11L575.67 409.72L573.5 415.3L572.92 416.25L620.01 437.56L625.95 441.99L642.47 466.08L643.77 465.45L674.82 456.63L677.07 457.04L678.53 458.58L679.48 459.34L683.31 460.39L688.41 464.15L694.92 473.45L698.31 476.37L703.94 476.17L705.34 475.61L705.99 474.62L706.06 473.12L703.96 463.79L703.79 460.12L704.65 447.52L706.61 440.44L709.26 434.05L709.83 428.22L709.08 425.4L709.02 425.39L702.08 424.37L697.91 423.76L696.53 423.18L696.04 418.63L695.42 416.28L695.32 415.14L695.85 411.55L695.27 407.04L695.18 404.68L695.49 401.67L695.42 400.61L695.26 400.09L695.05 399.61L694.97 399.11L695.32 398.04L695.08 397.76L694.73 397.56L694.59 397.26L694.91 396.51L695.99 395.11L696.24 394.3L696.8 390.41L696.88 386.42L695.48 381.18L693.65 374.39L691.97 368.7L690.45 363.53L689.01 358.61L687.61 353.84L686.42 349.8L685.82 346.64L685.76 342.74L686.01 342.05L688.01 339.33L690.26 336.29L692.28 333.55L693.85 331.4L695.04 330.34L696.4 329.49L696.83 328.93L697.06 327.94L696.99 327.08L696.84 326.26L696.96 325.54L697.69 325.05L699.65 324.92L700.27 324.7L700.59 324.15L700.63 324.07L700.26 323.36L699.56 322.73L698.92 322.36L697.53 322L695.93 321.89L692.89 322.05L689.65 321.8L686.31 320.41L683.7 317.9L682.67 314.27L683 312.64L684.28 309.75L684.37 307.8L683.19 300.17L682.74 295.85H682.72L679.49 296.39L653.74 296.47Z" fill="#CCCCCC" stroke="white" stroke-width="0.5"/>
<path d="M175.26 214.65L174.9 213.56L174.08 212.16L173.32 211.46L161.93 204.51L161.36 203.16L162.04 201.31L163.67 199.6L164.58 195.85L164.59 190.64L163.81 187.75L163.09 187.66L162.92 187.59L162.87 187.21L163 186.87L163.17 186.54L163.23 186.19L162.97 184.95L163.05 184.49L163.48 184.09L163.09 183.52L162.63 182.52L162.23 181.37L162.07 180.38L161.78 179.83L160.48 178.38L160.34 178.15L139.49 173.99L138.29 172.78L137.28 173.1L136.06 173.85L135.88 174.86L136.18 175.72L135.96 176.52L135.24 177.93L133.49 179.96L130.37 181.34L125.68 180.93L121.38 179.74L119.8 178.64L119.09 177.86L118.26 177.16L117.68 176.38L117.37 175.76L116.89 175.35L95.48 177.34L85.07 175.85L81.45 177.29L80.53 178.47L80.47 180.95L78.48 183.98L71.75 186.15L70.51 187.52L70.02 188.34L69.12 189.27L68.54 191.77L66.25 194.39L65.57 196.06L63.95 197.68L62.54 198.53L62.52 198.56L64.12 199.15L65.65 200.57L66.18 200.9L67.3 201.12L68.54 202.25L70.46 204.98L71.51 207.61L72.02 208.28L72.77 208.49L74.33 208.02L74.79 208.12L75.46 208.58L76.31 208.52L77.11 208.12L78.12 207.26L78.54 207.28L78.96 207.41L79.39 207.46L80.72 207L83.36 207.12L84.19 206.85L84.99 206.39L85.65 206.13L86.34 206.15L87.61 206.64L87.91 206.69L88.11 206.87L88.32 207.91L88.5 208.26L88.75 208.54L89.09 208.82L89.92 209.18L90.81 209.15L92.57 208.76L93.35 208.47L94.06 207.98L94.8 207.61L95.69 207.7L96.38 208.19L96.69 208.88L96.6 209.68L96.12 210.51L95.47 211.1L94.21 211.91L93.64 212.74L93 213.36L92.13 213.46L90.51 213.37L88.43 214.48L87.58 214.67L84.69 214.58L83.84 214.88L83.31 215.47L82.98 216.27L82.84 217.17L82.83 218.01L83.24 219.96L83.12 220.67L81.86 220.28H81.66L81.47 220.33L81.83 221.36L82.29 222.33L82.45 222.54L82.51 222.75L82.46 222.96L82.29 223.16L81.97 223.42L81.75 223.75L81.65 224.16L81.66 224.63L82.2 226.1L84.85 230.35L87.14 232.4L88.13 233.55L88.42 235.04L88.34 235.25L89.48 235.63L97.34 241.84L107.29 255.46L109.06 256.69L110.01 256.62L110.18 257.69L109.85 259.17L109.91 261.15L111.28 262.66L113.76 262.39L117.49 262.83L120.29 262.42L121.88 261.58L122.07 259.92L122.88 258.83L124.23 258.61L125.11 257.6L125.12 256.14L125.65 255.04L127.39 254.45L129.89 251.84L132.46 251.58L134.08 251.7L134.92 251.21L135.17 247.94L135.6 246.96L141.52 246.56L142.94 245.26L143.08 243.54L142.33 242.04L142.78 241.07L143.98 241.17L145.61 242.57L150.35 244.73L156.71 251.92L158.49 252.18L159.77 252.14L161.03 251.45L163.57 250.73L165.07 249.91L165.54 248.49L166.31 248.29L167.64 251.57L168.54 252.06L169.91 250.84L171.37 248.51L172.19 244.73L171.05 240.05L168.69 237.7L166.99 236.64L164.97 234.16L160.5 224.18L157.62 219.9L158.26 218.61L160.44 216.18L161.39 216.08L163.34 220.16L164.62 220.5L165.98 219.9L167.17 218.74L170.12 217.74V216.45L169.63 215.36L168.42 213.78L167.68 211.74L169.17 211.32L175.26 214.65Z" fill="#CCCCCC" stroke="white" stroke-width="0.5"/>
<path d="M202.1 72.33L199.43 71.77L198.1 71.76L197.18 72.27L196.36 73.09L195.31 73.75L194.19 74.23L193.2 74.52L191.29 74.36L191.53 74.9L192.85 76.08L193.71 77.2L193.94 78.19L194.94 78.6L196.5 78.96L197.14 79.64L196.77 80.6L187.42 91.73L186.57 93.76L186.21 96.54L184.89 98.6L184.79 101.47L188.6 112.02L195.47 122.85L197.75 125.21L200.39 127.29L201.78 129.07L201.82 130.55L201.64 132.83L201.99 135.56L202.44 136.83L208.68 140.82L213.27 145.68L215.03 148.52L217.48 157.03L221.39 158.91L221.47 159.79L221.99 161.43L224.33 164.4L226.85 166.77L232.53 168.47L234.65 168.39L235.91 168.6L236.81 169.23L240.63 169.99L242.68 169.62L250.46 165.4L251.32 165.1L252.23 164.61L255.67 163.85L261.29 164.4L263.44 163.01L265.97 158.46L266.88 154.18L268.54 152.52L270.7 151.37L272.11 149.41L272.51 148.09L272.53 147.92H272.54L269.93 146.15L269.13 145.92L268.5 145.54L266.46 143.05L263.47 140.79L262.02 139.41L260.78 137.35L259.81 134.54L259.21 133.61L258.83 132.86L258.29 130.98L257.93 130.25L258.09 128.37L256.78 127.13L254.84 126.37L249.46 125.13L246.01 123.78L246.33 123.36L246.57 123.4L247.03 123.53L247.42 123.46L245.95 122.69L244.61 122.94L243.2 123.52L241.49 123.78L225.58 121.63L222.49 120.58L215.81 117.1L212.79 114.92L210 112.02L207.9 108.87L207.04 106.9L206.61 104.84L206.67 104.47L206.8 104L206.79 103.46L205.32 101.07L205.01 100.26L204.83 99.13L204.87 97.94L205.2 96.93L203.48 90.8L202.91 84.37L202.12 82.42L202.04 79.64L201.75 78.51L202.22 76.97L202.1 72.33Z" fill="#CCCCCC" stroke="white" stroke-width="0.5"/>
<path d="M109.06 256.69L107.29 255.46L97.3398 241.84L89.4798 235.63L88.3398 235.25L88.1198 235.76L87.6098 236.38L87.2398 237.02L87.3498 237.82L87.9298 238.22L89.5298 238.21L90.1598 238.73L89.9998 240.06L89.1098 241.6L88.5498 243.03L89.3998 244.03L89.0798 244.64L88.6298 244.88L88.1198 244.98L87.0598 245.33L86.3198 245.14L85.9098 245.18L84.7998 245.85L84.1898 246.42L83.5298 246.59L82.2898 246.06L81.7598 246.1L81.3298 245.92L80.4598 245.35L79.8498 245.14L79.5598 245.26L78.9898 246.2L78.9498 246.44L79.0598 247.06L78.9798 247.3L78.7298 247.43L78.1498 247.49L77.8798 247.58L77.4398 248.01L77.2398 248.6L77.2298 249.27L77.3498 249.95V249.96L77.7298 251.27L77.6198 252.22L77.2698 253.14L76.9498 254.38L76.3298 255.22L75.2098 254.83L74.7198 254.57L73.9798 254.17L73.0198 254.22L72.7498 255.19L72.8298 256.47L72.6198 257.7L71.4698 258.5L70.2898 258.62L69.7698 258.84L69.3598 259.41L69.2298 260.02L69.3298 261.04L69.1998 261.62L68.0498 262.94L67.7298 263.75L68.3498 264.45L68.6898 264.65L69.0598 264.94L69.3698 265.3L69.5098 265.72L69.6398 266.25L69.8398 266.56L70.0498 266.8L70.2298 267.15L70.3598 268.1L70.3798 269.05L70.5098 269.9L70.9698 270.56L71.0898 270.88L71.0798 271.42L70.9698 271.96L70.7998 272.28L70.5598 272.33L69.6398 272.01L66.7998 271.78L65.5198 271.47L64.0998 270.72L62.4898 270.25L62.3198 271.63L62.6598 273.66L62.5998 275.15L62.4098 275.55L62.1698 275.91L61.8998 276.22L61.5998 276.5L59.4298 276.99L59.0298 277.65L60.3098 281.77L60.8398 282.86L61.5998 283.43L62.4298 282.76H63.3498L64.2098 283.3L64.8398 284.29L65.0698 285.42L64.9898 286.66L64.4298 289.07L64.2298 289.52L63.6498 290.47L63.5598 290.93L63.7598 291.5L64.0698 291.93L64.2998 292.36V292.92L63.8798 293.48L62.2098 294.86L61.5998 295.51L60.5898 296.4L60.1298 297.51L59.7798 298.78L59.1498 300.17H59.1398L58.7998 300.53L58.3998 300.81L57.5098 301.21L58.3698 302.41L59.2998 302.94L60.3798 303.01L61.5998 302.82L61.7098 302.84L61.7998 302.88L61.8698 302.95L65.5598 309.66L66.1098 310.28L66.7498 310.82L67.2898 311.42L67.5898 312.25L67.7698 313.25L68.0498 314.13L68.4698 314.94L69.0298 315.75L69.6598 316.38L71.6098 317.78L71.7598 318.17L72.6998 317.38L73.5698 310.17L75.1498 305.2L75.5998 302L75.0198 300.09L75.7898 299.2L78.2198 299.27L84.6398 298.46L90.8398 301.01L94.1798 301.25L97.5198 302.01L100.3 303.72L103.34 306.37L113.73 309.73L118.56 310.12L125.61 308.32L132.09 308.62L132.96 306.92L133.53 303.69L132.92 302.44L131.78 300.73V299.21L138.43 297.67L139.83 297.79L140.52 298L141.24 297.49L141.83 296.52L141.67 296.14L141.63 295.6L141.75 294.67L141.67 294.09L141.46 293.69L141.18 293.39L140.93 293.06L140.83 292.57L141.08 291.86L143.46 290.68L146.42 290.53L148.43 289.49L148.67 286.69L148.29 283.98L148.41 282.86L149.21 282.33L150.41 282.01L153.26 282.4L153.97 280.98L155.5 278.67L159.6 278.37L164.25 279.37L165.51 278.32L165.4 275.99L165.86 272.67L165.44 270.62L164.65 269.42L163.7 269.63L161.79 270.47L158.26 274.16L157.2 272.55L156.59 270.47L155.47 269.88L154.11 269.61L151.07 267.94L148.97 266.24L148.57 264.24L149.16 263.45L150.48 262.93L154.62 262.45L156.57 259.58L158.21 255.89L159.57 254.31L159.79 252.9L159.77 252.14L158.49 252.18L156.71 251.92L150.35 244.73L145.61 242.57L143.98 241.17L142.78 241.07L142.33 242.04L143.08 243.54L142.94 245.26L141.52 246.56L135.6 246.96L135.17 247.94L134.92 251.21L134.08 251.7L132.46 251.58L129.89 251.84L127.39 254.45L125.65 255.04L125.12 256.14L125.11 257.6L124.23 258.61L122.88 258.83L122.07 259.92L121.88 261.58L120.29 262.42L117.49 262.83L113.76 262.39L111.28 262.66L109.91 261.15L109.85 259.17L110.18 257.69L110.01 256.62L109.06 256.69Z" fill="#CCCCCC" stroke="white" stroke-width="0.5"/>
<path d="M117.91 46.9801L119.73 46.6401L121.39 45.6701L123.96 45.3301L127.55 42.8501L128.41 41.6801L128.68 40.7101L128.84 39.6601L128.08 36.4001L127.46 35.3201L126.19 34.7001L125.62 34.0501L125.57 33.5001L125.42 33.4001L125.1 32.3401L122.62 33.7501L122.12 33.8401L121.5 33.6701L120.34 33.1501L119.69 33.1701L119.01 33.4901L119 33.5001L118.37 34.0201L117.81 34.6801L116.74 36.5301L116.51 36.8501L116.18 37.1201L115.49 37.5001L115.17 37.7601L114.67 38.5501L113.98 40.1701L113.3 40.8201L110.9 42.0501L110.14 42.6901L109.59 43.4001L108.42 45.8201L107.95 46.5901L107.38 47.2201L106.74 47.7501L106.07 48.1701L105.17 48.5401L104.43 48.5801L103.68 48.3701L99.3702 46.4401L98.8102 46.3201L98.3602 46.3801L97.3602 46.7001L95.7602 46.7701L95.2102 46.8901L94.4102 47.2801L92.2602 48.8501L91.5302 49.2001L88.7802 49.5601L88.3702 49.6201L85.9702 49.0101L83.2302 47.7701L74.5102 45.9301L73.5602 45.5501L71.4402 44.7201L67.7502 44.6801L65.3902 44.1001L64.2502 44.0601L63.9302 43.9901L63.7402 43.9501L62.8902 43.4501L62.2302 43.2701L61.9702 43.5401L57.4102 48.4201L56.4902 50.6401L55.2902 56.2701L55.8602 59.3001L56.9202 62.1001L56.9002 64.7301L55.3502 67.5301L48.2502 74.9001L45.9202 78.8501L45.4702 81.1401L46.0202 82.9001L48.6402 86.4601H48.9202V87.1901L49.1602 87.5801L49.5002 87.8601L49.7702 88.2901L50.0202 89.2301L50.0902 89.8001L49.9202 90.0601L49.7902 90.3301L49.7702 92.0801L51.2202 106.23L52.0502 107.35L52.2402 107.77L52.2902 107.98L52.6202 111.13L52.4402 111.41L52.0502 111.63L51.6702 111.95L51.4902 112.54L51.8002 113.36L52.3702 114.41L52.6402 115.36L55.4202 118.7L56.4402 121.08L55.9702 127.56L56.5402 130.37L58.1002 132.72L70.1802 140.66L75.5702 141.62L79.9902 141.69L85.7202 146.92L86.4202 148.31L91.5702 151.22L93.3502 152.88L95.2702 153.69L96.4902 152.85L97.1702 151.77L97.3002 151.31L97.9102 149.86L99.2702 148.16L101.75 146.54L103.8 146.11L104.8 146.22L105.94 145.14L107.68 143.99L109.59 144.3L110.91 145.63L112.55 146.66L114.66 147.13L115.96 148.25L116.15 149.35L115.6 150.12L117.25 154.91L117.21 158.35L118.7 160.53L122.73 161.08L132.56 159.94L132.31 158.26L132.3 155.76L133.09 154.13L139.36 147.75L141.1 144.85L142.34 143.95L145.07 142.64L147.33 140.19L148.76 139.33L150.22 138.71L163.24 137.2L167.16 137.81L169.85 137.36L179.75 138.39L182.84 137.17L184.28 136.02L184.76 135.74L184.19 135.53L183.62 135.22L183.24 135.28L182.66 134.09L182.07 133.77L180.65 133.84L180.03 134.06L179.66 134.52H179.35L179.56 133.74L179.66 133.45L177.78 131.91L176.9 131.01L174.36 129.33L173.29 126.78L172.95 123L171.86 122.04L168.82 120.45L167.89 120.27L167.63 120.42L163.59 117.92L162.35 112.2L162.72 107.44L163.65 105.44L164.08 104L163.64 103.05L160.88 100.49L157.61 96.0301L155.52 90.8401L155.26 86.6601L154.03 82.8001L151.14 81.3601L141.84 82.7201L140.63 82.5001L140.06 82.0801L138.75 80.8001L136.11 81.1201L134.12 81.9101L133.63 80.2801L133.82 77.5701L134.67 75.6401L135.72 74.2701L137.03 71.8201L140.34 69.3901L142.07 67.5101L144.89 66.6801L147.86 67.1501L149.88 65.7801L149.09 63.1801L146.92 61.9501L146.89 60.4701L148.42 58.4101L148.85 54.8601L146.46 48.8701L146.36 44.8701L145.71 43.9301L146.29 37.8801L144.65 37.2701L141.98 39.6601L139.19 41.3401L137.51 41.1901L134.39 43.3001L129.65 51.5801L130.21 52.4401L130.83 52.6801L130.32 53.3501L127.73 55.3101L126.16 57.4501L124.43 58.8501L118.24 57.0901L115.52 57.8601L112.68 59.3901L109.86 60.4201L107.74 59.2501L106.56 56.3501L107.23 53.0401L108.89 50.8501L110 50.2001L110.42 49.4401L111.96 49.2701L114.16 49.8001L114.73 49.3001L115.01 47.8301L115.03 46.2701L115.14 45.4601L116 45.4101L117.91 46.9801Z" fill="#CCCCCC" stroke="white" stroke-width="0.5"/>
<path d="M24.82 1L23.8 1.3L19.4 4.93L19.22 5.54L19.43 7.3L19.35 7.94L19.32 8.14L19.08 8.84L17.71 11.6L17.52 12.32L17.44 13.21L17.52 13.96L17.66 14.65L17.63 15.29L17.22 15.93L17.01 17.13L17.16 18.14L17.14 19.11L16.44 20.17L15.65 20.76L13.5 21.74L12.59 21.96L11.54 21.87L8.68 20.44L7.69 20.33L5.45 20.93L4.49 21.03L3.57 20.92L2.93 20.94L2.31 21.16L1.46 21.69L1 22.34L1.25 22.99L2.34 24.27L2.35 24.3L2.53 24.8L2.77 25.94L3.26 27L3.25 27.39L3.15 27.75L3.17 28.23L3.31 28.68L3.81 29.74L3.84 30.21L3.55 31.18L3.6 31.64L4.67 32.47L6.51 33.44L8.11 34.57L8.45 35.89L7.63 37.5L7.42 38.35L7.8 40.45L7.4 41.08L6.73 41.64L6.15 42.63V42.64L6.37 43.01L6.5 43.37L6.67 44.19L6.92 44.58L7.3 44.87L7.61 45.2L7.64 45.68L7.62 46.12L7.76 46.53L7.94 46.93L8.34 48.12L8.9 48.93L9.57 49.58L11.77 50.63L11.97 52.19L10.84 56.03L10.68 57.1L10.75 57.76L10.96 58.4L11.17 59.35L10.98 59.74L10.62 60.1L10.5 60.43L11.01 60.7L11.76 60.94L12.08 61.15L12.38 61.49L12.68 62.37L12.67 63.47L12.48 65.56L12.86 68.25L12.81 69.16L12.28 71.29V71.91L12.41 73.25L12.38 73.74L12.25 74.6L12.37 75.06L12.75 75.33L13.36 75.62L15.42 76L16.79 75.2L17.31 75.09L17.96 75.34L18.55 75.84L19.05 76.55L19.37 77.38L19.39 78.22L18.46 79.57L16.96 80.74L15.8 82.07L15.98 84.59L15.83 85.62L15.58 86.65L15.31 87.42L15 87.83L14.26 88.14L13.92 88.44L13.86 88.9L14.2 89.89L13.97 90.22L13.17 90.61L12.63 91.04L12.25 91.71L11.9 92.81L11.54 93.62L10.54 94.75L10.16 95.51H10.15V95.52L9.8 96.19L9.55 96.83L9.48 97.5L9.68 98.24L9.72 98.9L9.35 99.46L8.93 100L8.87 100.19L8.75 100.59L9.47 101.73L10.92 101.97L13.6 101.65L14.09 101.8L15.58 102.53L16.03 102.84L16.27 103.32L16.42 103.93L16.66 104.58L17.12 105.17L17.44 105.28L17.72 105.17L17.99 105.12L18.31 105.36L18.34 105.62L18.17 106.46L18.14 106.77L18.45 107.37L19.03 107.43L19.69 107.19L20.22 106.89L21.35 106.76L22.5 107.29L23.53 108.19L25.06 110.06L25.15 110.55L24.73 111.23L23.29 112.39L22.95 112.85L22.77 114.43L23.6 115.38L24.53 116.08L24.7 116.98L24.32 118.03L24.05 119.32L23.97 120.61L24.19 121.67V121.68L24.36 122.56L23.81 124.12L24.06 124.97L24.62 125.29L26.16 125.43L26.8 125.92L27.38 127.41L27.77 127.84L29.27 127.61L29.65 128.09L29.89 128.82L30.24 129.53L32.62 131.06L33.56 132.16L33.43 133.84L32.94 134.48L32.37 134.81L31.86 135.25L31.57 136.18L31.7 137.23L32.09 138.11L32.35 138.99L32.09 139.99L31.53 141.49L31.54 142L31.86 142.92L32.11 143.26L32.4 143.4L32.71 143.49L33.01 143.71L33.17 144.05L33.38 144.84L33.57 145.1L33.96 145.18L34.77 144.93L35.17 144.91L35.46 145.07L35.93 145.59L36.83 146.06L37.11 146.53L37.04 147.09L36.59 147.67L36.36 149.05L36.59 149.96L36.97 150.81L37.17 151.97L36.95 153.21L36.37 154.14L34.91 155.95L34.46 157.22L34.79 158.12L35.61 158.68L36.69 158.92L37.97 158.85L38.57 158.95L39.09 159.41L39.47 159.86L39.9 160.17L40.38 160.32L40.92 160.34L41.61 160.72L42.22 161.55L43.23 163.41L43.67 164.52L43.6 165.48L42.8 167.35L42.36 169.11L42.32 170.2L42.19 170.3L41.68 170.5L41.5 170.62L41.41 171.44L42.01 172.22L42.16 172.35L42.82 172.91L43.35 173.49L43.39 174.22L43.65 174.64L44.01 174.98L44.34 175.48L44.54 176.15L44.61 176.65L44.76 177.12L45.23 177.67L46.36 178.19L47.56 178.1L49.88 177.17L50.93 177.25L51.65 178.17L52.1 179.46L52.3 180.65L52.41 182.86L52.69 183.76L53.47 184.75L52.47 185.4L52.7 186.02L53.47 186.62L54.08 187.22L54.27 188.21L54.17 190.57L54.38 191.65L55.66 193.32L56.18 194.36L56.01 195.39L55.5 196.2L55 197.25L54.75 198.31L55.02 199.13V199.14H55.03V199.15L55.76 199.9L56.65 200.02L57.57 199.71L58.39 199.15V199.14H58.4L58.41 199.13L59.15 198.93L60.52 198.24L61.6 198.22L62.52 198.56L62.54 198.53L63.95 197.68L65.57 196.06L66.25 194.39L68.54 191.77L69.12 189.27L70.02 188.34L70.51 187.52L71.75 186.15L78.48 183.98L80.47 180.95L80.53 178.47L81.45 177.29L85.07 175.85L95.48 177.34L116.89 175.35L117.37 175.76L117.68 176.38L118.26 177.16L119.09 177.86L119.8 178.64L121.38 179.74L125.68 180.93L130.37 181.34L133.49 179.96L135.24 177.93L135.96 176.52L136.18 175.72L135.88 174.86L136.06 173.85L137.28 173.1L138.29 172.78L132.56 159.94L122.73 161.08L118.7 160.53L117.21 158.35L117.25 154.91L115.6 150.12L116.15 149.35L115.96 148.25L114.66 147.13L112.55 146.66L110.91 145.63L109.59 144.3L107.68 143.99L105.94 145.14L104.8 146.22L103.8 146.11L101.75 146.54L99.27 148.16L97.91 149.86L97.3 151.31L97.17 151.77L96.49 152.85L95.27 153.69L93.35 152.88L91.57 151.22L86.42 148.31L85.72 146.92L79.99 141.69L75.57 141.62L70.18 140.66L58.1 132.72L56.54 130.37L55.97 127.56L56.44 121.08L55.42 118.7L52.64 115.36L52.37 114.41L51.8 113.36L51.49 112.54L51.67 111.95L52.05 111.63L52.44 111.41L52.62 111.13L52.29 107.98L52.24 107.77L52.05 107.35L51.22 106.23L49.77 92.08L49.79 90.33L49.92 90.06L50.09 89.8L50.02 89.23L49.77 88.29L49.5 87.86L49.16 87.58L48.92 87.19V86.46H48.64L46.02 82.9L45.47 81.14L45.92 78.85L48.25 74.9L55.35 67.53L56.9 64.73L56.92 62.1L55.86 59.3L55.29 56.27L56.49 50.64L57.41 48.42L61.97 43.54L62.23 43.27L61.74 43.14L60.8 42.68L59.92 42.09L59.44 41.52L59.37 40.95L59.49 40.49L59.66 40.05L59.75 39.5L59.55 39.14L58.56 38.7L58.17 38.4L57.96 37.96L57.64 36.81L57.47 36.39L57.08 35.97L56.69 35.74L56.33 35.47L56.06 34.93L56.42 34.14L56.18 33.57L55.63 33.22L55.05 33.11L54.64 32.91L54.65 32.46L54.76 31.95L54.64 31.62L54.26 31.57L53.88 31.72L53.59 31.92L53.49 32.02L49.17 30.59L48.09 30.92L47.82 30.11L47.39 27.45L47.1 26.88L46.75 26.36L46.5 25.8L45.74 24.1L45.41 23.59L45.03 23.37L44.61 22.87L44.27 22.31L44.14 21.93L43.91 21.65L43.89 21.64L42.42 20.63L42.27 20.44L42.18 20.2L42.03 19.99L41.71 19.9L41.26 19.91L41.05 19.87L39.99 19.1L39.84 18.72L40.18 18.07L39.32 17.3L38.81 16.22L37.57 11.06L37.07 9.9L36.2 9.28L36.36 9.12L36.48 8.88L35.53 8.85L34.64 8.68L34.48 8.58L33.89 8.24L33.78 8.08L30.42 5.64L29.61 4.95L27.14 3.8L26.57 3.15L25.46 1.45L24.82 1Z" fill="#CCCCCC" stroke="white" stroke-width="0.5"/>
<path d="M232.53 168.47L226.85 166.77L224.33 164.4L221.99 161.43L221.47 159.79L221.39 158.91L217.48 157.03L214.11 158.19L209.6 161.19L207.92 165.1L208.78 168.37L211 171.14L212.33 174.49L213.71 176.58L215.76 177.61L217.02 177.69L217.82 178.13L218.6 178.98L219.68 179.59L220.45 180.99L221.12 183.53L222.43 185.68L223.38 187.8L224.03 193.24L223.08 194.64L215.53 196.68L211.36 199.05L208.82 201.93L208.6 203.95L208.66 204.52L204.88 202.77L202.17 202.58L198.42 203.63L196.11 205.33L194.61 205.64L192.84 205.7L191.54 205.99L190.68 206.57L190.8 208.16L196.05 212.89L199.13 217.43L201.06 216.58L205.59 216.66L209.04 218.64L210.61 220.62L209.35 222.54L212.18 224.7L217.47 225.61L218.63 225.29L224.51 226.79L225.53 227.5L232.79 227.3L234.03 224.44L235.77 223.15L243.05 220.93L245.2 219.86L247.47 219.2L249.38 219.09L256.8 215.85L259.27 215.71L260.5 215.89L259.61 214.41L258.56 212.06L258.22 210.49L258.73 208.5L261.01 206.3L269.39 202.2L270.81 200.84L271.3 198.96L273.28 194.83L274.59 190.4L272.68 188.75L269.74 187.87L268.21 186.56L266.1 183.65L267.3 181.84L271.99 181.45L281.83 182.5L281.79 181.48L281.31 180.08L274.61 174.96L272.32 173.72L261.29 164.4L255.67 163.85L252.23 164.61L251.32 165.1L250.46 165.4L242.68 169.62L240.63 169.99L236.81 169.23L235.91 168.6L234.65 168.39L232.53 168.47Z" fill="#CCCCCC" stroke="white" stroke-width="0.5"/>
<path d="M202.44 136.83L199.65 135.34L198.2 135.79L196.57 136.91L195.08 136.71L193.9 136.05L193.1 136.36L192.6 137.25V138.13L192.04 139.06L190.76 139.33L187.67 136.03L185.97 135.4L184.76 135.74L184.28 136.02L182.84 137.17L179.75 138.39L169.85 137.36L167.16 137.81L163.24 137.2L150.22 138.71L148.76 139.33L147.33 140.19L145.07 142.64L142.34 143.95L141.1 144.85L139.36 147.75L133.09 154.13L132.3 155.76L132.31 158.26L132.56 159.94L138.29 172.78L139.49 173.99L160.34 178.15L160.48 178.38L161.78 179.83L162.07 180.38L162.23 181.37L162.63 182.52L163.09 183.52L163.48 184.09L163.05 184.49L162.97 184.95L163.23 186.19L163.17 186.54L163 186.87L162.87 187.21L162.92 187.59L163.09 187.66L163.81 187.75L164.59 190.64L164.58 195.85L163.67 199.6L162.04 201.31L161.36 203.16L161.93 204.51L173.32 211.46L174.08 212.16L174.9 213.56L175.26 214.65L176.66 217.2L178.52 218.36L187.4 218.66L191.03 220.64L194.51 221.5L197.64 220.4L199.16 218.33L199.13 217.43L196.05 212.89L190.8 208.16L190.68 206.57L191.54 205.99L192.84 205.7L194.61 205.64L196.11 205.33L198.42 203.63L202.17 202.58L204.88 202.77L208.66 204.52L208.6 203.95L208.82 201.93L211.36 199.05L215.53 196.68L223.08 194.64L224.03 193.24L223.38 187.8L222.43 185.68L221.12 183.53L220.45 180.99L219.68 179.59L218.6 178.98L217.82 178.13L217.02 177.69L215.76 177.61L213.71 176.58L212.33 174.49L211 171.14L208.78 168.37L207.92 165.1L209.6 161.19L214.11 158.19L217.48 157.03L215.03 148.52L213.27 145.68L208.68 140.82L202.44 136.83Z" fill="#CCCCCC" stroke="white" stroke-width="0.5"/>
<path d="M175.26 214.65L169.17 211.32L167.68 211.74L168.42 213.78L169.63 215.36L170.12 216.45V217.74L167.17 218.74L165.98 219.9L164.62 220.5L163.34 220.16L161.39 216.08L160.44 216.18L158.26 218.61L157.62 219.9L160.5 224.18L164.97 234.16L166.99 236.64L168.69 237.7L171.05 240.05L172.19 244.73L171.37 248.51L169.91 250.84L168.54 252.06L167.64 251.57L166.31 248.29L165.54 248.49L165.07 249.91L163.57 250.73L161.03 251.45L159.77 252.14L159.79 252.9L159.57 254.31L158.21 255.89L156.57 259.58L154.62 262.45L150.48 262.93L149.16 263.45L148.57 264.24L148.97 266.24L151.07 267.94L154.11 269.61L155.47 269.88L156.59 270.47L157.2 272.55L158.26 274.16L161.79 270.47L163.7 269.63L164.65 269.42L165.44 270.62L165.86 272.67L165.4 275.99L165.51 278.32L164.25 279.37L159.6 278.37L155.5 278.67L153.97 280.98L153.26 282.4L154.29 282.86L156.07 284.01L156.92 285.25L174.69 296.95L183.88 298.06L185.41 298.64L186.64 298.31L188.81 296.07L189.89 295.77L192.09 295.9L194.81 295.6L206.1 300.43L210.41 296.55L211.14 295.54L211.27 294.37L210.51 291.14L210.27 288.41L209.62 285.67L206.68 279.88L206.35 274.6L205.65 271.43L203.56 270.6L202.96 269.19L204.4 268.61L208.67 269.05L210.58 269.97L211.51 269.76L210.8 265.87L210.95 262.34L212.05 260.54L212.54 258.76L212.08 255.82L213.11 254.25L220.65 253.85L224.22 254.47L225.22 255.92L224.34 257.8L224.97 260.09L226.6 262.03L227.94 263.26L229.75 263.44L230.76 261.4L229.87 255.97L228.83 253.46L226.84 251.1L224.72 250.08L220.28 248.86L218.42 247.91L217.47 246.98L217.36 246.26L218.1 245.41L219.35 245.28L221.74 244.54L223.74 242.19L223.22 239.87L221.37 236.79L220.59 233.39L221.89 231.74L223.01 231.65L223.1 232.6L223.06 233.88L223.87 235.05L225.28 235.31L226.68 233.76L226.83 231.81L225.85 230.52L225.5 228.71L225.53 227.5L224.51 226.79L218.63 225.29L217.47 225.61L212.18 224.7L209.35 222.54L210.61 220.62L209.04 218.64L205.59 216.66L201.06 216.58L199.13 217.43L199.16 218.33L197.64 220.4L194.51 221.5L191.03 220.64L187.4 218.66L178.52 218.36L176.66 217.2L175.26 214.65Z" fill="#CCCCCC" stroke="white" stroke-width="0.5"/>
<path d="M326.58 255.96L303 241.89L293.06 238.88L281.17 238.75L281.16 238.62L279.99 240.27L278.61 244.22L277.89 251.98L277.39 253.92L276.63 254.37L272.34 255.82L267.21 256.63L264.75 258.26L261.15 259.29L257.42 258.79L255.06 260.7L255 263.99L255.86 265.2L255.42 266.21L251.56 268.39L251.17 270.98L253.41 273.6L255.24 275.25L256.74 275.94L258.39 275.79L259.62 276.54L260.83 277.97L261.46 279.45L261.29 281.51L262.29 283.99L264.21 286.37L266.94 288.65L277.62 289.65L281.88 292L291.44 294.6L290.26 293.97L289.4 291.81L290.64 281.98L291.13 280.52L292.68 278.96L296.62 277.24L305.56 276.21L308.76 276.37L322.72 272.75L324.09 270.77L325.91 266.49L327.03 262.08L327.14 257.97L326.58 255.96Z" fill="#CCCCCC" stroke="white" stroke-width="0.5"/>
<path d="M277.51 221.76L277.21 220.07L277.23 217.25L275.63 215.35L273.3 215.32L272.77 216.7L274.37 218.92V219.77L273.95 220.53L272.9 219.92L270.52 217.77L266.46 216.57L262.29 216.31L260.5 215.89L259.27 215.71L256.8 215.85L249.38 219.09L247.47 219.2L245.2 219.86L243.05 220.93L235.77 223.15L234.03 224.44L232.79 227.3L225.53 227.5L225.5 228.71L225.85 230.52L226.83 231.81L226.68 233.76L225.28 235.31L223.87 235.05L223.06 233.88L223.1 232.6L223.01 231.65L221.89 231.74L220.59 233.39L221.37 236.79L223.22 239.87L223.74 242.19L221.74 244.54L219.35 245.28L218.1 245.41L217.36 246.26L217.47 246.98L218.42 247.91L220.28 248.86L224.72 250.08L226.84 251.1L228.83 253.46L229.87 255.97L230.76 261.4L229.75 263.44L227.94 263.26L226.6 262.03L224.97 260.09L224.34 257.8L225.22 255.92L224.22 254.47L220.65 253.85L213.11 254.25L212.08 255.82L212.54 258.76L212.05 260.54L210.95 262.34L210.8 265.87L211.51 269.76L210.58 269.97L208.67 269.05L204.4 268.61L202.96 269.19L203.56 270.6L205.65 271.43L206.35 274.6L206.68 279.88L209.62 285.67L210.27 288.41L210.51 291.14L211.27 294.37L211.14 295.54L210.41 296.55L206.1 300.43L205.45 301.49L205.15 303.11L205.67 304.46L205.81 305.6L204.16 309.43L203.81 310.53L203.6 311.73L204.14 312.77L206.24 314L208.98 315L213.65 315.41L214.79 315.83L218.1 313.73L218.88 312.91L220.29 308.56L222.13 307.51L224.41 306.73L226.49 305.54L228.76 306.27L230.58 308.47L231.71 310.4L231.75 311.73L231.09 313.15L230.64 314.63L231.04 315.79L232.39 316.95L235.5 318.52L236.92 320.02L238.2 321.03L239.17 320.38L239.44 319.09L240.25 317.48L241.7 316.44L242.63 317L243.28 318.18L244.62 319.22L245.51 320.14L245.45 321.6L245.74 323.01L248.39 324.44L248.75 324.84L252.18 321.99L258.75 318.08L276 313.53L278.59 311.93L280.91 309.96L283.52 309.13L285.89 309.12L286.99 307.16L290.94 297.58L291.44 294.6L281.88 292L277.62 289.65L266.94 288.65L264.21 286.37L262.29 283.99L261.29 281.51L261.46 279.45L260.83 277.97L259.62 276.54L258.39 275.79L256.74 275.94L255.24 275.25L253.41 273.6L251.17 270.98L251.56 268.39L255.42 266.21L255.86 265.2L255 263.99L255.06 260.7L257.42 258.79L261.15 259.29L264.75 258.26L267.21 256.63L272.34 255.82L276.63 254.37L277.39 253.92L277.89 251.98L278.61 244.22L279.99 240.27L281.16 238.62L284.74 227.02L284.72 223.47L283.66 221.4L281.74 219L279.84 219.18L278.69 221.53L277.51 221.76Z" fill="#CCCCCC" stroke="white" stroke-width="0.5"/>
<path d="M164.17 4.45995L164.15 4.44995L163.67 5.16995L163.24 5.56995L162.73 5.69995L159.58 5.63995L158.6 5.90995L157.8 6.46995L157.16 7.12995L155.38 8.94995L150.4 11.76L149.66 12.18L147.47 14.41L146.93 14.78L146 14.88L143.11 15.88L141.38 16.83L140.02 17.97L137.97 20.6299L137.96 20.6399L136.59 22.04L135.35 22.75L134.87 23.02L130.75 24.6399L128.77 25.85L128.36 26.3099L128.22 26.84L126.73 29.25L126.03 31.27L125.82 31.67L125.38 32.18L125.1 32.34L125.42 33.4L125.57 33.5L125.62 34.0499L126.19 34.7L127.46 35.32L128.08 36.4L128.84 39.66L128.68 40.7099L128.41 41.68L127.55 42.8499L123.96 45.33L121.39 45.6699L119.73 46.6399L117.91 46.9799L116 45.41L115.14 45.4599L115.03 46.27L115.01 47.83L114.73 49.2999L114.16 49.7999L111.96 49.27L110.42 49.4399L110 50.2L108.89 50.8499L107.23 53.04L106.56 56.3499L107.74 59.25L109.86 60.4199L112.68 59.3899L115.52 57.86L118.24 57.09L124.43 58.8499L126.16 57.45L127.73 55.31L130.32 53.3499L130.83 52.68L130.21 52.4399L129.65 51.58L134.39 43.2999L137.51 41.1899L139.19 41.34L141.98 39.66L144.65 37.27L146.29 37.88L145.71 43.93L146.36 44.8699L146.46 48.8699L148.85 54.86L148.42 58.41L146.89 60.47L146.92 61.95L149.09 63.18L149.88 65.7799L147.86 67.15L144.89 66.68L142.07 67.51L140.34 69.39L137.03 71.82L135.72 74.27L134.67 75.64L133.82 77.57L133.63 80.28L134.12 81.91L136.11 81.12L138.75 80.8L140.06 82.08L140.63 82.5L141.84 82.72L151.14 81.36L154.03 82.8L155.26 86.66L155.52 90.84L157.61 96.03L160.88 100.49L163.64 103.05L164.08 104L163.65 105.44L162.72 107.44L162.35 112.2L163.59 117.92L167.63 120.42L167.89 120.27L168.82 120.45L171.86 122.04L172.95 123L173.29 126.78L174.36 129.33L176.9 131.01L177.78 131.91L179.66 133.45L179.56 133.74L179.35 134.52H179.66L180.03 134.06L180.65 133.84L182.07 133.77L182.66 134.09L183.24 135.28L183.62 135.22L184.19 135.53L184.76 135.74L185.97 135.4L187.67 136.03L190.76 139.33L192.04 139.06L192.6 138.13V137.25L193.1 136.36L193.9 136.05L195.08 136.71L196.57 136.91L198.2 135.79L199.65 135.34L202.44 136.83L201.99 135.56L201.64 132.83L201.82 130.55L201.78 129.07L200.39 127.29L197.75 125.21L195.47 122.85L188.6 112.02L184.79 101.47L184.89 98.6L186.21 96.54L186.57 93.76L187.42 91.73L196.77 80.6L197.14 79.64L196.5 78.96L194.94 78.6L193.94 78.19L193.71 77.2L192.85 76.08L191.53 74.9L191.29 74.36L191.08 74.34L189.75 73.05L188.62 71.16L188.09 70.47L187.06 69.17L186.44 68.3L185.75 67.5299L185.07 66.47L184.4 65.86L183.87 65.1399L183.58 63.74L183.1 62.59H182.13L180.03 63.57L178.76 63.54L178.01 62.83L177.36 61.8699L175.36 60.2599L175.28 59.36L175.45 58.33L175.26 57.5499L175.15 57.11L174.63 56.6699L169.15 53.9599L166.46 51.7999L165.64 50.29L165.54 48.0999L165.92 47.49L168.09 46.15L168.21 45.7999L168.2 45.4L168.34 45.06L175.98 43.7L177.69 42.6399V42.63H177.7L178.07 42.07L178.39 41.38L178.4 41.36L178.59 40.6399L178.62 39.8899L178.4 39.22L177.15 36.54L176.52 35.93L174.16 34.9399L171.8 32.65L170.79 31.2199L170.24 29.78L170.31 27.95L171.08 26.43L172.27 25.28L173.67 24.5599L176.26 24.04L178.44 22.5599L179.51 22.2199L179.95 22.08L179.03 20.14L177.86 18.54L175.03 15.91L168.07 7.52995L165.54 5.15995L164.74 4.59995L164.17 4.45995Z" fill="#CCCCCC" stroke="white" stroke-width="0.5"/>
<path d="M457.85 688.92L457.67 688.39L457.62 687.95L457.41 687.62L456.7 687.81L456.1 688.14L456.25 688.59L456.39 688.87L456.37 689.15L456.56 689L456.95 689.38L457.19 689.24L457.53 689.21L457.85 688.92ZM437.12 687.3L437.05 686.48L436.84 686.07L435.86 686.37L435.32 686.66L435.48 687.17L436.14 687.48L436.7 687.61L437.12 687.3ZM436 671.08L436.87 669.3L436.72 668.98L436.52 668.73L436.29 668.55L436 668.42L435.59 667.96L435.2 667.88L434.85 668.06L434.59 668.42L434.42 668.95L434.44 669.38L434.54 669.84L434.59 670.45L434.81 670.72L435.3 670.97L435.78 671.12L436 671.08ZM416.21 659.9L416.3 659.63L416.39 659.35L416.35 659.06L416.31 658.8L416.2 658.71L416.03 658.55L415.74 658.39L415.73 658.38L415.69 658.06V658.01L415.7 657.59V657.58L415.67 657.49L415.59 657.29V657.28L415 657.05L413.46 656.9L412.77 656.65L411.96 656.61L411.22 656.84L410.61 657.3L410.2 657.95L411.04 659.32L412.38 659.96L412.69 659.98L415.75 660.15L416.21 659.9ZM492.42 653.89L493.01 652.9L492.93 651.81L492.61 651.32L492.21 651.4L491.54 651.92L491.01 652.95L490.91 654.02L491.58 654.39L492.42 653.89ZM400.12 651.81L399.79 651.11L399.3 650.88L398.87 650.78L398.05 650.8L397.72 651.31L398.13 651.88L398.85 652.25L399.58 652.35L400.12 651.81ZM388.65 645.58L388.31 645.27L387.76 644.78L386.8 644.4L383.7 644.17L380.21 643.09L379.81 643.12L379.48 643.24L379.18 643.31L379.02 643.51L379.39 643.94L380.69 645.03L381.24 645.38L381.33 645.44L382.06 645.75L384.42 646.16H385.21L385.96 645.73L386.46 645.61L388.05 645.75L388.65 645.58ZM512.68 643.93L513.92 642.84L513.71 641.41L512.16 641.56L511.11 642.05L510.51 642.9L510.32 644.13L511.1 644.45L512.68 643.93ZM504.08 640.77L505 639.95L507.55 639.29L508.22 638.91L508.88 638.53L508.55 637.66L508.31 637.48L507.65 636.97L506.59 636.51L505.78 636.31L504.15 636.34L498.69 637.58L494.32 640.4L492.75 640.77L486.97 638.58L485.92 639.19L486.2 639.56L486.89 640.1L487.6 640.78L487.93 641.57L488.12 643.64L487.97 644.52L487.34 645.24L487.52 645.56L487.64 645.87L487.24 646.01L486.81 646.37L486.51 646.5L486.1 646.54L485.24 646.47L484.81 646.5L482.11 647.56L481.28 648.23L479.37 649.4L479.36 649.41L479.21 649.47L478.69 649.67L477.89 649.76L472.36 651.57L470.17 652.8L470.05 652.76L469.79 652.69L469.34 652.9L467.38 652.21L466.93 652.69L467.36 654.12L467.57 654.36L467.5 654.89L467.22 655.7L467.42 656.85L467.63 657.38L467.78 657.48L467.95 657.6L468.33 657.54L468.84 657.39L469.29 657.14L469.48 656.82L469.66 656.43H470.08L470.55 656.58L470.77 656.63L470.89 656.65H470.9L471.28 656.51L472.05 656.02L473.86 655.52L476.42 655.23L477.14 654.84L478.55 653.81L480.86 652.82L483.09 651.22L483.97 650.8L484.81 650.62L486.7 650.89L487.58 650.9L488.35 650.46L489.12 649.8L491.88 648.38L492.94 649.21L493.84 650.13L494.8 650.54L496.01 649.83L498.05 647.86L498.4 647.63L498.76 647.21L500.33 646.41L500.69 646.03L500.96 645.41L502.67 643.66L503.14 642.85L504.08 640.77ZM516.93 634.3L517.19 634.17L517.48 634.02L517.87 633.58L518.03 632.99L517.89 632.41L517.87 632.32L517.48 632L517 631.81L516.56 631.52L515.83 631.67L515.07 632.73L514.97 633.9L516.28 634.41L516.93 634.3ZM479.29 553.96L477.47 552.69L475.67 550.32L471.96 547.42L464.49 545.29L460.97 545.03L463.36 552.23L463.37 553.56L462.01 554.54L462.23 556.78L474.67 568.85L475.77 571.82L475.28 577.1L473.19 584.75L472.99 586.71L473.19 588.22L476.69 591.09L478.67 594.33L478.42 596.98L477.71 598.12L476.76 598.8L475.51 599.35L473.13 599.21L469.33 600.19L463.68 603.24L462.07 605.8L460.71 609.95L458.32 612.22L453.15 613.81L442.12 612.25L438.34 613.12L436.29 614L434.33 613.31L431.81 612.99L420.77 614L416.49 615.49L414.66 617.73L414.06 621.43L413.18 623.98L413.17 624.49L413.64 625.86L412.52 627.68L408.21 629.97L395.55 627.72H394.48L391.47 628.49L390.75 628.39L390.05 628.05L386.56 625.19L385.03 624.57L375.8 623.75L372.76 620.86L371.63 618.67L369.84 619.71L369.28 619.91L367.35 619.83L365.31 619.31L364.63 619.27L361.93 619.55L361.48 619.52L360.63 619.88L360.45 619.87L360.22 620.15L359.55 621.45L361.75 622.43L363.23 623.44L366.56 626.44L368.46 627.01L369.31 627.52L369.67 628.54L370.05 629L372.51 629.62L373.03 630.26L373.47 631L374.02 631.61L374.91 631.87L375.82 631.95L389.89 636.75L391.22 637.58L391.92 638.44L392.25 639.36L392.35 641.57L392.59 642.48L393.18 643.21L397.2 646.25L400.31 648.09L402.47 649.97L402.98 650.14L403.95 649.62L404.96 649.7L406.81 650.3L407.71 650.27L409.4 649.79L411.3 649.53L414.02 648.25L414.87 648.07L415.31 648.09L415.65 648.26L416.44 648.9L416.89 649.04L417.6 649.15L420.44 649.98L421.31 650.08L424.47 649.86L425.26 649.63L426.09 649.5L426.97 649.67L428.2 650.67L428.98 652.08L429.59 653.57L430.34 654.76L431.83 655.49L435.6 655.34L437.45 655.7L438.66 656.85L439.17 658.19L439.88 659.24L441.69 659.53L445.25 659.21L445.74 659.3L446.44 659.72L446.96 659.81L447.39 659.7L447.7 659.44L447.96 659.14L448.24 658.89L452.74 656.26L456.72 653.02L457.17 652.73L459.88 650.3L460.49 650.01L462.31 649.48L463.12 649.38L464.12 649.14L464.53 648.53L464.75 647.7L465.24 646.82L466.81 646.07L468.71 646.33L472.05 647.48L473.91 647.59L475.64 647.23L477.2 646.44L478.55 645.24L479.13 644.3L479.62 642.99L479.87 641.6L479.7 640.46L479.4 640.76L479.15 640.9L478.55 641.1L480.79 638.6L481.25 638.24L481.77 637.96L483.16 636.66L483.94 636.31L484.36 636.32L485.66 636.63H487.21L487.57 636.53L488.18 636.09L488.64 636L490.03 636.04L490.47 636L492.18 635.58L494.02 635.36L494.48 635.21L495.23 634.55L495.45 634.41L495.46 634.22L496.46 633.37L499.24 631.68L499.96 631.07L500.32 630.84L500.64 630.77L500.86 630.61L500.94 630.12L501.08 629.89L501.77 629.21L502.11 628.98L503.2 628.76L505.89 628.65L506.78 628.22L507.73 627.56L509.04 627.22L511.6 627.08L512.88 627.27L515.05 628.13L516.28 628.38L518.86 628.51L520.1 628.77L521.11 629.33L521.39 628.98L522.33 629.28L526.62 629.33L527.02 629.53L527.32 629.98L527.71 630.43L528.33 630.63L529.45 630.62L529.98 630.44L530.46 629.96L530.72 631.01L531.39 631.98L532.38 632.65L533.6 632.82V633.17L533.24 633.46L532.51 634.24L532.31 634.41L531.92 634.58L531.91 634.92L532.19 635.16L532.72 635.04L532.7 635.52L532.8 635.9L533.05 636.06L533.86 635.66L534.14 635.84L534.36 636.15L534.57 636.31L534.77 636.41L534.95 636.63L535.19 636.85L535.57 636.94L535.99 636.86L537.27 636.31L537.01 636.69L536.86 637.14L536.92 637.58L537.27 637.9L536.76 638.13L536.34 638.39L535.89 638.57L535.29 638.53L535.71 638.98L536.98 639.83L536.93 640.57L537.43 641.31L538.84 642.53L539.4 643.36L542.1 654.12L542.24 656.28L541.53 662.05L541.54 662.48L541.7 663.53L541.81 663.94L542.01 664.29L542.8 665.06L543.26 665.89L543.55 666.93L543.79 669.02L544.1 669.3L543.88 670.53L546.62 673.56L547.18 675.03L546.73 675.95L545.44 677.36L545.18 678.32L545.27 678.87L545.68 679.76L545.84 680.53L546.4 682.19L546.51 682.73L546.59 682.92L546.76 682.97L547.28 682.88L547.46 682.92L548.39 684.03L548.45 684.21L548.87 684.58L549.21 685.46L549.73 687.32L550.73 689.65L550.97 691.9L551.26 692.62L551.87 692.95L557.41 693.32L557.1 693.6L559.92 694.49L560.95 694.57L561.37 694.52L562.2 694.3L562.67 694.26L563.15 694.35L564.01 694.79L564.52 694.88L566.81 694.35L567.74 694.26L568.78 694.29L569.64 694.52L570.29 695.09L570.71 696.14L570.78 696.5L570.75 696.66L570.64 696.89L570.48 697.42L570.31 699.44L570.96 699.45L571.87 698.88L573.28 697.73L574.96 696.87L576.66 696.43L578.23 696.8L579.52 698.36L580.76 700.99L581.67 702.23L582.78 702.75L584.15 702.96L585.46 703.38L586.81 703.64L588.33 703.4L589.79 702.39L590.03 702.28L590.18 702.6L590.55 702.65L590.97 702.51L591.3 702.28L591.78 701.82H591.99L592.13 702L592.41 702.12L593.04 701.96L593.99 701.16L594.55 700.87L595.88 700.6L597.09 700.53L596.8 701.26L597.57 701.63L599.79 701.78L602.37 701.37L609.88 702.75H613.43L613.9 702.9L614.13 703.26L614.27 703.72L614.53 704.16L614.91 704.34L616.36 704.31L617.97 705.05L618.99 706.28L620.9 709.35L621.44 709.8L622.14 710.1L622.96 710.27L623.91 710.32L624.29 710.21L624.67 710.04L625.03 709.95L625.33 710.14L625.64 710.44L625.99 710.51L626.86 710.32L629.22 709.2L631.53 708.84L631.35 707.75L632.44 707.28L632.46 706.59L632.57 705.85L631.8 705.47L631.46 705.01L630 702.51L629.31 701.83L628.74 701.1L628.47 700.16L627.79 699.32L626.54 698.84L625.63 697.91L625.41 696.25L624.07 694.06L616.23 687.11L614.76 686.18L614.19 685.94L614.03 685.1L614.23 683.63L614.98 682.49L615.47 682.22L613.78 679.67L613.18 679.17L612.06 679.18L610.45 678.55L609.24 678.85L608.02 680.14L606.25 680.36L604.19 680.29L602.49 679.9L601.79 678.66L601.67 677.22L601.25 676.2L601.15 675.3L601.54 674.46L601.6 673.96L600.83 673.46L598.24 673.06L596.66 672.34L595.2 672L593.77 672.68L591.53 672.89L588.14 672.28L582.65 672.67L582.58 671.73L583.42 670.69L583.91 668.11V666.78L583.67 665.44L584.63 656.42L585.21 654.99L585.96 654.06L586.19 653.29L586.14 652.11L585.14 649.14L585.18 648.22L586.07 648.26L588.67 649.85L589.02 648.96L587.83 646.39L585.4 643.57L582.31 640.97L579.46 639.26L576.73 639.19L575.04 640.34L574.04 641.72L572.1 643.55L570.85 643.17L568.04 641.1L555.26 634.31L554.42 631.61L553.12 614.19L551.86 610.53L550.74 608.24L549.63 607.67L548.69 606.31L549.42 604.87L550.56 603.91L550.29 601.56L548.42 598.71L546.53 596.65L545.56 594.79L543.91 592.64L541.76 591.47L540.49 591.3L539.67 590.61L539.07 589.62L537.56 582.33L537.93 577.52L537.6 576.77L533.28 574.65L531.03 574.56L529.13 576.07L527.86 577.62L523.39 581.88L518.52 584.29L515.87 584.76L510.94 584.01L506.69 581.43L503.14 578.16L499.44 573.38L498.58 568.78L499.6 565.3L498.81 547.33L497.64 545.6L496.41 545.76L491.54 548.04L483.26 554.33L481.14 554.88L479.29 553.96Z" fill="#CCCCCC" stroke="white" stroke-width="0.5"/>
<path d="M140.52 298L139.83 297.79L138.43 297.67L131.78 299.21V300.73L132.92 302.44L133.53 303.69L132.96 306.92L132.09 308.62L125.61 308.32L118.56 310.12L113.73 309.73L103.34 306.37L100.3 303.72L97.5198 302.01L94.1798 301.25L90.8398 301.01L84.6398 298.46L78.2198 299.27L75.7898 299.2L75.0198 300.09L75.5998 302L75.1498 305.2L73.5698 310.17L72.6998 317.38L71.7598 318.17L71.8998 318.53L71.8898 320.3L72.1698 320.65L72.8898 320.47L73.5698 320.01L74.7698 318.85L75.5298 318.53L77.5398 318.5L78.4298 318.27L78.2698 319.8L78.9998 320.55L79.8798 321.15L80.1698 322.25L79.6598 323L77.6998 324.2L77.0498 325.05L77.7598 325.66L78.9898 325.95L80.2398 325.79L81.0098 325.06L81.2098 324.94L81.4198 324.9L81.6298 324.94L81.6798 324.97L81.8398 325.06L81.9698 325.13L82.0898 325.23L83.4798 326.97L83.9598 327.83L84.2898 328.77L84.4198 329.77L84.4398 330.6L84.6498 331.32L86.0398 332.66L87.6898 335L88.9998 336.07L89.5798 336.66L89.9498 337.49L89.9598 338L89.7098 338.95L89.6798 339.36L89.8598 339.82L90.3398 340.12L90.3698 340.57L90.0698 341.2L89.4998 341.9L88.3898 343.01L87.5098 343.67L86.8398 343.8L86.1498 343.75L85.2398 343.83L84.4098 344.3L84.3698 344.9L84.9398 345.4L86.7598 345.61L87.5398 345.94L88.1398 346.47L88.3698 347.15L88.0998 347.99L87.4798 348.63L86.7998 349.18L86.2898 349.79V349.8L87.1698 351.77L89.5898 352.06L94.4698 351.52L98.8598 352.88L102.99 354.85L104.15 356.02L108.01 358.26L108.17 358.36L110.07 359.9L112.78 361.54L114.49 363.5L126.95 374.39H126.96L128.29 375.37L129.55 376.03L130.85 376.32L132.31 376.16L133.04 375.88L134.93 374.83L135.52 374.87L137.86 375.68L138.75 376.15L139.27 376.76L139.74 377.52L140.43 378.41L141.54 379.25L141.77 379.61L141.83 380.18L141.68 380.5L141.45 380.77L141.09 381.68L140.92 381.87V382.11L141.19 382.77L141.38 383.05L142.62 384.23L142.81 384.5L142.97 384.77L143.7 385.79L143.96 386.07L144.37 386.27L144.59 386.89L145.39 387.51L145.61 388.14L145.55 388.82L145.33 389.3L145.08 389.73L144.92 390.26L144.83 390.94L144.87 391.33L145.15 391.55L145.8 391.73L146.33 392.07L146.67 392.57L147.03 392.99L147.66 393.07L148.46 393.4L148.55 393.53L149.66 393.09L153.98 390.25L155.46 387.83L154.97 384.7L154.9 382.21L157.93 378.02L161.73 369.14L161.22 368.66L160.41 367.47L153.75 353.42L148.88 347L147.52 345.5L146.91 345.19L146.13 344.96L145.59 344.36L144.78 342.8L143.79 341.64L143.34 341.43L142.72 341.4L142.19 341.23L141.96 340.61L141.52 340.09L136.43 337.54L134.67 337.1L133.61 336.46L132.86 335.69V335.04L132.13 334.7L130.08 333.13L129.89 332.89L129.65 332.71L129.33 332.64L129.06 332.69L128.85 332.92L128.62 332.98L128.33 332.87L128.19 332.64L128.13 332.4L128.06 332.27L126.5 331.77L125.75 331.43L125.21 330.95L124.67 330.29L124.55 329.87L125.03 329L125.09 328.5L124.93 328.08L124.5 327.9L122.24 326.52L121.37 326.2L120.29 324.82L118.99 324.14L118.06 322.48L117.41 322.11L117.36 321.73L118 319.8L118.12 319.06L118.83 318.75L119.55 318.67L120.46 316.41L123.03 313.97L137.52 309.88L138.34 308.72L140.65 307.17L141.63 306.12L142.19 305L142.4 303.42L142.03 300.97L141.09 298.78L140.52 298Z" fill="#CCCCCC" stroke="white" stroke-width="0.5"/>
<path d="M153.26 282.4L150.41 282.01L149.21 282.33L148.41 282.86L148.29 283.98L148.67 286.69L148.43 289.49L146.42 290.53L143.46 290.68L141.08 291.86L140.83 292.57L140.93 293.06L141.18 293.39L141.46 293.69L141.67 294.09L141.75 294.67L141.63 295.6L141.67 296.14L141.83 296.52L141.24 297.49L140.52 298L141.09 298.78L142.03 300.97L142.4 303.42L142.19 305L141.63 306.12L140.65 307.17L138.34 308.72L137.52 309.88L123.03 313.97L120.46 316.41L119.55 318.67L118.83 318.75L118.12 319.06L118 319.8L117.36 321.73L117.41 322.11L118.06 322.48L118.99 324.14L120.29 324.82L121.37 326.2L122.24 326.52L124.5 327.9L124.93 328.08L125.09 328.5L125.03 329L124.55 329.87L124.67 330.29L125.21 330.95L125.75 331.43L126.5 331.77L128.06 332.27L128.13 332.4L128.19 332.64L128.33 332.87L128.62 332.98L128.85 332.92L129.06 332.69L129.33 332.64L129.65 332.71L129.89 332.89L130.08 333.13L132.13 334.7L132.86 335.04V335.69L133.61 336.46L134.67 337.1L136.43 337.54L141.52 340.09L141.96 340.61L142.19 341.23L142.72 341.4L143.34 341.43L143.79 341.64L144.78 342.8L145.59 344.36L146.13 344.96L146.91 345.19L147.52 345.5L148.88 347L153.75 353.42L160.41 367.47L161.22 368.66L161.73 369.14L163.99 365.82L169.65 350.93L171.89 349.22L182.1 348.54L185 347.64L189.4 347.31L193.7 348.59L195.82 350.66L198.4 351.45L207.57 352.38L217.21 359.03L223.02 359.58L226.06 358.94L226.03 358.46L226.29 357.28L226.84 356.28L227.79 355.67L231.09 354.57L232.98 353.14L233.73 347.29L236.11 344.49L242.26 342.75L243.25 342.16L243.34 341.24L243.57 340.08L247.75 331.65L247.65 329.52L247.82 326.82L248.75 324.84L248.39 324.44L245.74 323.01L245.45 321.6L245.51 320.14L244.62 319.22L243.28 318.18L242.63 317L241.7 316.44L240.25 317.48L239.44 319.09L239.17 320.38L238.2 321.03L236.92 320.02L235.5 318.52L232.39 316.95L231.04 315.79L230.64 314.63L231.09 313.15L231.75 311.73L231.71 310.4L230.58 308.47L228.76 306.27L226.49 305.54L224.41 306.73L222.13 307.51L220.29 308.56L218.88 312.91L218.1 313.73L214.79 315.83L213.65 315.41L208.98 315L206.24 314L204.14 312.77L203.6 311.73L203.81 310.53L204.16 309.43L205.81 305.6L205.67 304.46L205.15 303.11L205.45 301.49L206.1 300.43L194.81 295.6L192.09 295.9L189.89 295.77L188.81 296.07L186.64 298.31L185.41 298.64L183.88 298.06L174.69 296.95L156.92 285.25L156.07 284.01L154.29 282.86L153.26 282.4Z" fill="#CCCCCC" stroke="white" stroke-width="0.5"/>
<path d="M223.02 359.58L217.21 359.03L207.57 352.38L198.4 351.45L195.82 350.66L193.7 348.59L189.4 347.31L185 347.64L182.1 348.54L171.89 349.22L169.65 350.93L163.99 365.82L161.73 369.14L157.93 378.02L154.9 382.21L154.97 384.7L155.46 387.83L153.98 390.25L149.66 393.09L148.55 393.53L149.16 394.41L150.1 396.54L150.74 397.27L152.18 397.98L152.59 398.84V398.85L152.79 399.71L154.27 402.37L154.55 402.76L155.3 403.26L155.61 403.55L155.84 403.99L156.06 404.84L156.21 405.21L156.87 405.95L158.5 407.19L159.07 408.06L159.19 409.09L158.94 410.19L152.63 427.39L152.53 435.69L152.38 447.38H165.98L166.43 447.65L166.56 448.27L166.42 471.46L166.48 472.93L170.86 473.56L171.32 473.72L171.75 473.99L172.44 474.74L172.97 475.68L173.35 476.73L173.69 478.84L173.87 479.3L174.2 479.65L174.66 479.85L175.15 479.93L175.65 479.91L177.16 479.65L177.68 479.68L178.18 479.85L178.57 480.18L179.41 481.59L180.74 483.1L182.35 484.58L182.62 484.99L182.83 485.47L182.91 485.99L182.81 486.5L182.5 486.91L182.11 487.27L181.78 487.67L181.69 488.2L181.77 488.53L182.29 489.64L183.12 490.58L183.35 491.07L183.46 491.15L184.22 493.53L184.3 494.15L184.67 495.08L184.86 495.4L185.13 495.67L185.71 496.13L186.32 496.5L187.6 496.87L187.9 497L187.94 496.88L188.16 496.59V496.92L191.2 497.21L192.15 496.92L192.5 496.68L192.88 496.35L193.18 495.93L193.3 495.46L193.19 494.81L192.63 493.9L192.43 493.33L192.54 492.5L193.21 492.66L194.97 493.63L197.87 493.61L198.67 493.98L199.39 493.65L202.2 493.98L203.05 493.75L203.8 493.14L204.35 492.28L204.61 491.34L204.58 490.8L204.35 489.89L204.32 489.38L204.44 488.84L204.81 487.86L204.89 487.26L204.66 485.1L204.39 484.02L204.04 483.17L203.36 482.42L202.52 481.78L201.8 481.05L201.49 480.02L201.64 479.76L201.91 479.38L202.08 479.04L201.61 478.61L201.81 478.01L202.18 477.43L202.34 477.22L204.61 475.1L205.09 474.96L207.32 475.27L208.02 475.28L208.85 474.44L208.52 473.59L207.49 472.93L206.17 472.67L205.05 472.17L205.36 471.19L206.54 470.45L208.02 470.66L208.72 470.27L209.43 470.32L210.17 470.54L211 470.66L211.21 470.61L211.6 470.39L211.86 470.34L212.14 470.48L212.6 471.15L212.85 471.32L213.43 471.18L213.85 470.86L214.2 470.78L214.55 471.32L214.39 471.53L214.33 471.69L214.26 472.3L214.91 471.82L215.55 471.12L216.04 470.89L216.37 472.65L216.75 473.39L217.37 473.79L218.22 473.62L218.18 474.44L217.95 474.95L216.73 476.52L215.94 477.91L215.7 478.56L215.16 477.81L214.61 477.31L213.91 477.01L212.99 476.92L212.41 476.72L210.71 475.82L209.87 475.61L209.11 475.73L207.75 476.19L206.87 476.24L205.18 475.95L204.48 476.14L204.04 476.92L205.37 477.27L206.46 477.83L207.18 478.8L207.46 480.34L208.02 480.88L210.76 482.48L211.72 482.82L212.44 482.88L212.88 483.37L213.23 483.98L213.98 484.45L214.69 484.35L215.29 483.78L215.72 482.98L215.96 482.16L216.46 482.49L216.48 482.8L216.31 483.11L216.24 483.47L216.22 484.19L216.24 484.45L216.42 484.73L216.99 485.13L217.11 485.28L217.06 487.26L217.45 487.67L218.53 487.75L219.38 487.57L220.93 486.91L221.79 486.77L222.14 486.87L222.73 487.32L223.19 487.42L223.69 487.37L224.59 487.14L225.03 487.09L225.92 487.16L226.31 487.25L226.72 487.42L227.16 487.69L227.32 487.89L227.42 488.15L227.72 488.58L228.05 489.41L228.06 491.57L228.16 492.35L229.33 494.06L230.66 494.35L232.16 493.71L245.15 485.4L246.66 484.87L248.2 484.63L249.68 484.81L250.78 485.23L253.44 483.91L257.7 483.19L260.09 484.35L266.47 484.69L265.76 477.15L264.99 473.97L263.67 472.47L263.38 469.97L265.77 464.34L265.06 461.8L262.72 460.1L258.78 457.99L255.55 454.78L253.87 452.63L246.82 453.57L246.54 452.39L246.95 450.81L247.14 449.37L247.35 448.64L247.22 446.69L245.34 439.87L245.3 437.03L245.99 435.47L247.03 434.07L248.44 433L251.63 431.65L256.59 427.2L259.34 423.51L260.82 420.65L263.07 417.82L263.19 415.57L261.98 412.87L258.46 409.07L257.66 407.66L255.6 405.78L254.33 403.76L253.09 400.84L251.97 396.76L251.41 395.47L250.73 394.78L248.77 394.15L248.17 393.46L247.14 392.71L246.14 391.4L244.84 388.11L238.6 378.22L237.92 375.25L237.77 373.81L238.87 370.15L239.76 368.78L238.04 366.45L233.9 364.87L230.29 365.11L228.06 363.91L226.06 358.94L223.02 359.58Z" fill="#CCCCCC" stroke="white" stroke-width="0.5"/>
<path d="M302.93 439.2L303.35 437.53L303.46 433.77L299.68 421.23L298.76 415.71L299 413.1L300.41 412.09L302.16 411.33L302.07 409.84L300.82 408.25L300 406.76L300.18 405.25L301.83 404.11L303.14 401.53L302.38 396.45L300.22 392.51L295.41 388.88L293.23 386.67L287.97 382.58L287.56 378.74L287.8 375.18L286.89 373.76L286.54 372.33L285.91 371.62L284.82 371.34L284.41 370.14L284.01 367.91L282.39 366.5L280.6 366.81L279.69 367.81L277.98 368.39L272.54 368.56L270.92 368.85L266.3 371.86L264.42 372.27L263.15 371.84L261.12 372.29L258.42 371.96L255.9 369.86L253.36 368.47L251.52 368.86L250.23 369.51L248.74 369.77L245.92 369.4L237.77 373.81L237.92 375.25L238.6 378.22L244.84 388.11L246.14 391.4L247.14 392.71L248.17 393.46L248.77 394.15L250.73 394.78L251.41 395.47L251.97 396.76L253.09 400.84L254.33 403.76L255.6 405.78L257.66 407.66L258.46 409.07L261.98 412.87L263.19 415.57L263.07 417.82L260.82 420.65L259.34 423.51L262.27 425.31L269.53 428.23L271.71 428.11L272.98 428.27L288.38 441.98L289.79 441.96L294.54 442.59L296.78 441.42L298.83 439.61L301.52 439.1L302.93 439.2Z" fill="#CCCCCC" stroke="white" stroke-width="0.5"/>
<path d="M550.97 319.62L542.75 318.64L540.81 315.57L538.23 301.21L538.57 292.77L543.78 277.05L546.6 271.96L563 260.33L567.01 256.39L567.57 253.16L566.15 249.98L554.08 240.7L549.48 239.49L539.06 242.17L522.61 249.99L505.7 254.41L490.82 279.51L486.27 281.86L475.66 281.62L471.86 282.33L471.13 282.66V282.79L471.6 316.55L470.5 320.07L466.97 326.23L464.59 327.89L461.37 328.23L457.26 330.44L455.04 333.2L453.16 341.48L451.81 345.16L450.22 348.17L447.93 350.96L443.56 353.46L399.77 368.58L386.66 365.57L383.64 365.67L379.65 367.23L377.16 368.82L375.33 370.35L372.65 371.88L369.67 372.76L368.03 373.86L367.71 375.49L368.9 390.55L368.53 393.68L366.79 400.55L366 406.45L365.56 407.66L365.68 411.04L367.49 418.19L378.02 422.24L384.28 428.01L389.59 434.48L399.26 458.93L406.13 471.24L412.73 479.36L414.53 482.56L416.01 493.04L417.19 495.9L423.62 500.75L432.02 505.02L433.85 504.21L434.26 503.86L438.44 503.35L439.74 502.41L439.7 501.06L439.13 499.16L438.69 496.44L439.21 480.92L437.87 480L436.54 478.37L435.56 473.58L433.11 467.14L430.8 462.76L430.69 460.38L431.61 456.87L433.52 453.23L437.16 449.16L460.42 445.03L465.72 445.23L469.11 445.93L476.92 444.86L483.93 441.76L484.55 438.4L485.08 423.15L486.92 419.22L508.9 407.6L511.82 404.48L520.43 399.61L522.33 397.55L523.23 396.18L528.51 397.12L572.92 416.25L573.5 415.3L575.67 409.72L579.92 403.11L581.44 398.85L586.95 391.45L587.63 389.17L588.01 386.77L588.95 384.04L589.04 381.35L587.38 378.6L586.12 375.86L586.05 374.37L584.84 372.99L584.21 371.86L583.91 370.77L584.61 369.01L585.73 367.19L586.07 365.68L585.87 361.9L584.78 361.13L581.44 355.87L577.92 353.67L575.24 352.47L574.25 351.69L570.74 349.67L568.04 343.51L564.95 322.59L563.31 319.42L561.54 317.16L550.97 319.62Z" fill="#CCCCCC" stroke="white" stroke-width="0.5"/>
<path d="M335.93 210.73L332.66 210.54L330.63 209.81L329.39 209.07L327.91 207.36L325.52 202.85L321.29 198.28L315.66 196.07L309.31 195.53L304.84 192.89L304.7 195.05V197.94L302.36 199.39L299.03 198.97L295.69 200.21L293.18 203.1L293.02 206.4L292.51 208.87L288.84 209.07L287.67 212.16L285.5 214.83L282.83 216.48L281.74 219L283.66 221.4L284.72 223.47L284.74 227.02L281.16 238.62L281.17 238.75L293.06 238.88L303 241.89L326.58 255.96L326.75 253.79L328.01 249.74L330.13 246.45L330.65 243.34L328.78 239.93L324.11 233.71L323.79 231.55L324.05 229.24L324.83 226.19L325.39 221.51L326.08 220.78L326.85 221.13L327.35 221.64L328.24 221.95L330.71 222.08L333 224.08L340.54 228.69L343.57 229.74L346.72 229.81L356.04 232.52L359.39 232.65L364.1 231.1L368.21 228.9L374.79 222.89L376.12 218.32L375.58 213.19L374.27 207.47L370.55 204.89L368.76 204.48L367.43 205.28L365.24 205.57L362.09 204.92L357.35 202.35L353.63 201.66L350.69 200.41L347.94 200.06L344.15 203.06L338.78 209.57L335.93 210.73Z" fill="#CCCCCC" stroke="white" stroke-width="0.5"/>
<path d="M500.7 139.38L497.76 137.3L491.5 128.95L489.79 130.36L482.09 142.25L478.67 149.87L477.85 155.53L476.48 159.11L474.38 160.09L459.59 158.06L456.07 158.48L448.83 162.64L441.81 168.15L439.26 170.93L433.41 173.69L430.53 174.34L427.3 173.82L419.19 173.96L415.02 175.21L411.58 177.24L408.47 180.36L407.01 183.22L406.09 186.32L405.43 190.45L403.8 192.34L399.56 196.13L398.6 197.53L398.09 198.82L397.11 200.19L395.32 201.79L392.39 203.37L389.22 204.4L387.15 204.69L385.81 203.94L383.66 204.67L381.04 206.19L379.07 206.74L374.88 207.2L374.27 207.47L375.58 213.19L376.12 218.32L374.79 222.89L368.21 228.9L364.1 231.1L359.39 232.65L356.04 232.52L346.72 229.81L343.57 229.74L340.54 228.69L333 224.08L330.71 222.08L328.24 221.95L327.35 221.64L326.85 221.13L326.08 220.78L325.39 221.51L324.83 226.19L324.05 229.24L323.79 231.55L324.11 233.71L328.78 239.93L330.65 243.34L330.13 246.45L328.01 249.74L326.75 253.79L326.58 255.96L327.14 257.97L327.03 262.08L325.91 266.49L324.09 270.77L322.72 272.75L330.72 277.09L334.77 277.76L346.11 277.04L348.93 277.48L366.55 283.3L368.7 283.64L467.47 280.67L469.74 281.42L470.75 282.29L471.13 282.79V282.66L471.86 282.33L475.66 281.62L486.27 281.86L490.82 279.51L505.7 254.41L512.35 246.17L517.69 241.28L522.39 238.48L531.13 235.18L532.39 234.19L534.15 230.1L541.35 217.7L541.98 214.14L539.27 211.02L529.46 202.98L528.33 200.12L526.99 193.93L526.21 184.31L526.82 178.72L528.49 175.52L529.61 170.71L528.59 166.66L526.91 165.65L525.59 165.6L524.78 165.83L518.48 166.9L516.42 166.11L512.48 165.43L510.14 164.66L505.45 160.61L500.55 155.09L499.77 153.46L499.92 152.42L500.7 149.32L500.91 145.81L500.71 144.44L500.44 143.88L500.17 143.47L500.43 142.71L501.5 141.85L503.91 141.13L504.35 139.94L502.33 139.09L500.7 139.38Z" fill="#CCCCCC" stroke="white" stroke-width="0.5"/>
<path d="M402.03 156.86L401.85 156.85L400.16 156.09L399.16 154.76L399.48 154.72L400.31 154.44L398.95 154.5L398.37 154.31L398.05 153.73H400.17L402.59 154.05L403.23 153.92L404.37 153.47L405 153.38L406.1 153.72L406.7 153.82L407.22 153.55L409.11 152.97L412.05 152.6L414.4 151.78L414.49 149.81L412.47 151.52L409.5 152.23L393.21 153.16L391.36 153.47L377.63 156.56L370.79 158.67L363.7 160.79L356.64 162.23L349.27 163.64L342.15 165.4L335.35 167.9L327.69 168.92L320.32 166.78L312.67 165.4L305.29 163.25L293.74 160.96L290.27 159.38L284.31 155.14L277.78 151.58L277.17 151.05L275.95 149.72L275.37 149.46L274.51 149.26L272.54 147.92H272.53L272.51 148.09L272.11 149.41L270.7 151.37L268.54 152.52L266.88 154.18L265.97 158.46L263.44 163.01L261.29 164.4L272.32 173.72L274.61 174.96L281.31 180.08L281.79 181.48L281.83 182.5L288.67 183.86L291.31 184.91L292.06 186L293.63 187.45L295.37 188.21L302.15 189.72L304.84 192.89L309.31 195.53L315.66 196.07L321.29 198.28L325.52 202.85L327.91 207.36L329.39 209.07L330.63 209.81L332.66 210.54L335.93 210.73L338.78 209.57L344.15 203.06L347.94 200.06L350.69 200.41L353.63 201.66L357.35 202.35L362.09 204.92L365.24 205.57L367.43 205.28L368.76 204.48L370.55 204.89L374.27 207.47L374.88 207.2L379.07 206.74L381.04 206.19L383.66 204.67L385.81 203.94L387.15 204.69L389.22 204.4L392.39 203.37L395.32 201.79L397.11 200.19L398.09 198.82L398.6 197.53L399.56 196.13L403.8 192.34L405.43 190.45L406.09 186.32L407.01 183.22L408.47 180.36L411.58 177.24L415.02 175.21L419.19 173.96L417.51 171.39L413.13 166.86L403.99 161.32L402.55 158.82L402.08 157.54L402.03 156.87V156.86Z" fill="#CCCCCC" stroke="white" stroke-width="0.5"/>
<path d="M496.09 91.73L495.46 91.7L494.88 91.51L493.75 90.91L493.06 90.69L490.95 90.67L490.34 90.47L488.73 89.53L486.16 88.96H484.93L476.75 90.68L474.12 90.79L473.11 91.2L470.04 93.59L469.18 94.03L468.33 94.73L467.86 94.79L465.97 95.43L465.07 95.94L464.7 96.77L464.19 96.97L461.8 97.42L461 97.7L460.64 98.09L460.19 99.05L459.89 99.45L459.44 99.62L458.86 99.72L458.36 100L458.14 100.71L457.82 101.26L455.89 103.42L449.67 107.72L448.43 109.07L447.89 109.94L447.66 110.77L447.48 111.81L446.8 113.43L446.84 114.53L446.99 114.82L447.48 115.26L447.66 115.6L447.72 115.97L447.66 117.22L447.54 117.97L446.97 119.28L446.84 120.08L446.65 120.45L445.6 121.33L443.64 122.63L443.12 123.12L442.3 123.45L441.28 124.55L440.66 124.84L439.75 124.85L437.23 124.3L436.29 124.45L429.29 128.52L427.81 129.01H426.9L425.95 128.88L425.04 128.93L424.28 129.44L423.51 130.18L422.76 130.5L421.94 130.54L410.65 129.55L411.04 133.96L411.23 134.7L412.48 138.09L413.41 142.48L414.07 144.38L415.05 145.92L414.11 147.68L413.99 148.44L414.77 148.75L415.38 149.11L415.61 149.99L415.59 155.34L415.31 156.2L414.81 156.61L409.63 158.04L408.93 157.79L408.28 157.42L402.03 156.86V156.87L402.08 157.54L402.55 158.82L403.99 161.32L413.13 166.86L417.51 171.39L419.19 173.96L427.3 173.82L430.53 174.34L433.41 173.69L439.26 170.93L441.81 168.15L448.83 162.64L456.07 158.48L459.59 158.06L474.38 160.09L476.48 159.11L477.85 155.53L478.67 149.87L482.09 142.25L489.79 130.36L491.5 128.95L492.75 127.73L495.78 122.36L498.79 121.11L500.05 119.95L501.3 119.38L502.4 119.21L507.25 117.53L509.53 114.36L508.76 111.17L507.07 109.87L505.12 108.9L503.71 107.23L503.62 104.85L504.46 101.47L504.5 100.23L504.01 98.02L503.9 96.12L504.17 94.63L503.89 90.95L503.69 90.86L502.01 90.65L496.09 91.73Z" fill="#CCCCCC" stroke="white" stroke-width="0.5"/>
<path d="M350.22 422.29L341 420.25L339.07 418.51L338.68 414.02L338.05 412.7L337.34 412.59L331.7 415.69L330.9 416.78L329.72 417.31L324.14 421.09L321.04 421.53L317.02 420.57L316.87 422.01L317.84 424.29L319.11 425.59L320.74 426.21L322.56 426.56L324.94 428.38L326.14 431.64L325.14 434.95L324.3 439.89L320.79 448.63L320.47 452.84L320.89 455.7L320.91 457.25L319.75 457.63L316.6 458.11L317.83 464.12L317.85 466.41L317.62 466.89L316.56 467.95L314.53 469.15L312.23 469.78L307.84 468.64L306.3 467.7L305.38 466.52L304.32 466.3L299.58 463.98L296.21 463.14L295.59 463.86L296.28 467.91L297.57 471.57L297.66 472.66L297.09 473.69L297.39 474.74L298.41 476.43L298.36 478.92L297.48 480.76L286.44 487.23L284.68 487.5L277.74 487.09L273.57 488.11L273.58 488.23V490.68L274.69 494.14L276.77 496.22L279.29 501.37L281.65 502.27L290.8 502.96L296.48 504.79L299.25 507.89L301.47 513L304.39 517.63L307.06 520.43L310.36 521.66L314.02 525.03L332.6 560.06L333.56 564.31L339.62 581.48L340.66 583.18L342.49 583.91L343.87 584.73L346.99 588.38L352.6 600.96L358.06 607.7L363.36 612.71L371.63 618.67L372.76 620.86L375.8 623.75L385.03 624.57L386.56 625.19L390.05 628.05L390.75 628.39L391.47 628.49L394.48 627.72H395.55L408.21 629.97L412.52 627.68L413.64 625.86L413.17 624.49L413.18 623.98L414.06 621.43L414.66 617.73L416.49 615.49L420.77 614L431.81 612.99L434.33 613.31L436.29 614L438.34 613.12L442.12 612.25L453.15 613.81L458.32 612.22L460.71 609.95L462.07 605.8L463.68 603.24L469.33 600.19L473.13 599.21L475.51 599.35L476.76 598.8L477.71 598.12L478.42 596.98L478.67 594.33L476.69 591.09L473.19 588.22L472.99 586.71L473.19 584.75L475.28 577.1L475.77 571.82L474.67 568.85L462.23 556.78L462.01 554.54L463.37 553.56L463.36 552.23L460.97 545.03L452.6 524.23L450.2 523.2L440.72 522.33L438.86 521.14L437.88 520.14L436.98 518.54L436.51 516.72L433.14 509.73L432.02 505.96V505.02L423.62 500.75L417.19 495.9L416.01 493.04L414.53 482.56L412.73 479.36L406.13 471.24L399.26 458.93L389.59 434.48L384.28 428.01L378.02 422.24L367.49 418.19H367.41L353.29 422.28L350.22 422.29Z" fill="#CCCCCC" stroke="white" stroke-width="0.5"/>
<path d="M334.77 277.76L330.72 277.09L322.72 272.75L308.76 276.37L305.56 276.21L296.62 277.24L292.68 278.96L291.13 280.52L290.64 281.98L289.4 291.81L290.26 293.97L291.44 294.6L290.94 297.58L286.99 307.16L285.89 309.12L283.52 309.13L280.91 309.96L278.59 311.93L276 313.53L258.75 318.08L252.18 321.99L248.75 324.84L247.82 326.82L247.65 329.52L247.75 331.65L243.57 340.08L243.34 341.24L243.25 342.16L242.26 342.75L236.11 344.49L233.73 347.29L232.98 353.14L231.09 354.57L227.79 355.67L226.84 356.28L226.29 357.28L226.03 358.46L226.06 358.94L228.06 363.91L230.29 365.11L233.9 364.87L238.04 366.45L239.76 368.78L238.87 370.15L237.77 373.81L245.92 369.4L248.74 369.77L250.23 369.51L251.52 368.86L253.36 368.47L255.9 369.86L258.42 371.96L261.12 372.29L263.15 371.84L264.42 372.27L266.3 371.86L270.92 368.85L272.54 368.56L277.98 368.39L279.69 367.81L280.6 366.81L282.39 366.5L284.01 367.91L284.41 370.14L284.82 371.34L285.91 371.62L286.54 372.33L286.89 373.76L287.8 375.18L287.56 378.74L287.97 382.58L293.23 386.67L295.41 388.88L300.22 392.51L302.38 396.45L303.14 401.53L301.83 404.11L300.18 405.25L300 406.76L300.82 408.25L302.07 409.84L302.16 411.33L300.41 412.09L299 413.1L298.76 415.71L299.68 421.23L303.46 433.77L303.35 437.53L302.93 439.2L303.22 442.43L305.52 448.35L309.97 453.11L315.76 457.28L316.6 458.11L319.75 457.63L320.91 457.25L320.89 455.7L320.47 452.84L320.79 448.63L324.3 439.89L325.14 434.95L326.14 431.64L324.94 428.38L322.56 426.56L320.74 426.21L319.11 425.59L317.84 424.29L316.87 422.01L317.02 420.57L321.04 421.53L324.14 421.09L329.72 417.31L330.9 416.78L331.7 415.69L337.34 412.59L338.05 412.7L338.68 414.02L339.07 418.51L341 420.25L350.22 422.29L353.29 422.28L367.41 418.19H367.49L365.68 411.04L365.56 407.66L366 406.45L366.79 400.55L368.53 393.68L368.9 390.55L367.71 375.49L368.03 373.86L369.67 372.76L372.65 371.88L375.33 370.35L377.16 368.82L379.65 367.23L383.64 365.67L386.66 365.57L399.77 368.58L443.56 353.46L447.93 350.96L450.22 348.17L451.81 345.16L453.16 341.48L455.04 333.2L457.26 330.44L461.37 328.23L464.59 327.89L466.97 326.23L470.5 320.07L471.6 316.55L471.13 282.79L470.75 282.29L469.74 281.42L467.47 280.67L368.7 283.64L366.55 283.3L348.93 277.48L346.11 277.04L334.77 277.76Z" fill="#CCCCCC" stroke="white" stroke-width="0.5"/>
<path d="M262.2 532.81L262.47 532.09L262.35 531.27L262.54 530.45L262.09 530.19L261.34 529.85L260.89 529.66L260.41 529.96L260.71 530.52L260.97 531.45L261.38 532.5L261.79 532.87L262.2 532.81ZM304.39 517.63L301.47 513L299.25 507.89L296.48 504.79L290.8 502.96L281.65 502.27L279.29 501.37L276.77 496.22L274.69 494.14L273.58 490.68V488.23L272.86 487.55L271.31 486.43L266.47 484.69L260.09 484.35L257.7 483.19L253.44 483.91L250.78 485.23L251.12 485.37L251.72 485.79L251.97 486.29L252.19 487.08L252.74 488.05L253.39 488.92L253.97 489.38L253.73 490.63L254.68 493.34L254.23 494.96L254.79 495.24L255.03 495.58L254.88 495.86L254.23 495.94L254.38 496.44L254.42 497.32L254.54 497.9L254.68 498.11L256.29 499.78L258 500.83L258.78 501.51L259.77 502.97L261.65 506.42L262.76 508.02L263.88 509.27L264.48 510.18L264.74 511.13L265.12 511.62L267.56 512.61L268.91 513.97L269.57 514.89L269.85 515.71L270.21 516.32L272.39 518.13L273.56 519.91L273.8 520.43L273.82 519.01L274.46 519.32L275.26 520.42L275.8 521.4L276.13 522.7L276.34 524.58L276.36 526.43L276.06 527.59L276.56 528.5L276.82 528.79L277.22 528.92L277.12 529.25L276.94 531.19L276.31 530.51L275.93 530.86L275.66 531.65L275.37 532.29L275 532.86L274.89 533.44L274.96 534.59L275.33 535.91L276.24 536.72L277.39 536.86L278.49 536.21L279.24 536.07L282.47 535.87L283.46 536.04L283.61 536.3L283.7 536.7L283.75 537.5L283.9 537.71L284.24 537.6L284.62 537.4L284.87 537.34L285.38 537.77L285.66 538.26L286 539.63L286.77 539.43L287.17 540.12L287.27 541.21L287.13 542.24L286.85 542.74L286.02 543.49L285.72 543.83L285.66 544.36L285.85 544.75L285.9 545.09L285.46 545.47L285.06 544.69L284.38 543.83L283.56 543.14L282.76 542.86L281.9 543.37L281.75 544.54L281.99 545.84L282.33 546.74L284.28 549.21L284.59 550.14L284.94 550.64L285.77 550.86L287.44 550.96L289.19 551.37L290.52 552.2L291.58 553.45L292.51 555.18L293.03 557.22L293.07 563.23L293.41 564.7L295.94 570.97L296.25 571.45L297.62 572.9L299.08 575.17L299.59 575.79L301.03 577.1L301.88 578.49L301.94 579.74L301.03 582.26L301.23 583.2L302.09 584.09L302.8 584.77L304.36 587.32L304.99 589.02L305.81 590.19L306.62 592.99L307.47 592.92L307.79 591.61L308.78 592.25L309.73 593.85L310.61 594.8L312.38 595.34L313.67 595.52L313.89 595.75L314.03 596.1L314.08 596.55L314.29 596.85L314.77 596.97L318.35 597.73L319.98 597.98L322.57 597.5L324.16 597.12L325.64 597.01L326.42 597.5L327.08 597.71L329.95 597.36L331.92 597.63L333.63 598.34L335.15 599.37L340.03 603.92L341.59 604.7L348.96 606.33L350.48 606.98L351.84 608.06L354.94 611.27L355.23 611.75L355.89 613.28L356.22 613.83L356.84 614.35L358.52 615L359.18 615.57L359.55 616.66L359.04 617.12L358.14 617.22L357.37 617.19L356.5 617.27L355.81 617.58L355.42 618.17L355.49 619.13L356.34 620.03L359.54 621.45H359.55L360.22 620.15L360.45 619.87L360.63 619.88L361.48 619.52L361.93 619.55L364.63 619.27L365.31 619.31L367.35 619.83L369.28 619.91L369.84 619.71L371.63 618.67L363.36 612.71L358.06 607.7L352.6 600.96L346.99 588.38L343.87 584.73L342.49 583.91L340.66 583.18L339.62 581.48L333.56 564.31L332.6 560.06L314.02 525.03L310.36 521.66L307.06 520.43L304.39 517.63Z" fill="#CCCCCC" stroke="white" stroke-width="0.5"/>
<path d="M269.53 428.23L262.27 425.31L259.34 423.51L256.59 427.2L251.63 431.65L248.44 433L247.03 434.07L245.99 435.47L245.3 437.03L245.34 439.87L247.22 446.69L247.35 448.64L247.14 449.37L246.95 450.81L246.54 452.39L246.82 453.57L253.87 452.63L255.55 454.78L258.78 457.99L262.72 460.1L265.06 461.8L265.77 464.34L263.38 469.97L263.67 472.47L264.99 473.97L265.76 477.15L266.47 484.69L271.31 486.43L272.86 487.55L273.58 488.23L273.57 488.11L277.74 487.09L284.68 487.5L286.44 487.23L297.48 480.76L298.36 478.92L298.41 476.43L297.39 474.74L297.09 473.69L297.66 472.66L297.57 471.57L296.28 467.91L295.59 463.86L296.21 463.14L299.58 463.98L304.32 466.3L305.38 466.52L306.3 467.7L307.84 468.64L312.23 469.78L314.53 469.15L316.56 467.95L317.62 466.89L317.85 466.41L317.83 464.12L316.6 458.11L315.76 457.28L309.97 453.11L305.52 448.35L303.22 442.43L302.93 439.2L301.52 439.1L298.83 439.61L296.78 441.42L294.54 442.59L289.79 441.96L288.38 441.98L272.98 428.27L271.71 428.11L269.53 428.23Z" fill="#CCCCCC" stroke="white" stroke-width="0.5"/>
</svg>
