<svg width="611" height="794" viewBox="0 0 611 794" fill="none" xmlns="http://www.w3.org/2000/svg">
<path d="M299.99 372.87L299.88 372.76L299.78 372.79L299.61 372.83L299.45 373.09L299.42 373.15L299.48 373.23L299.54 373.21L299.8 373.27L300 373.19L300.02 373.13L299.98 373.05L299.99 372.87Z" fill="#CCCCCC" stroke="white" stroke-width="0.5"/>
<path d="M297.55 233.56L301.38 233.99L301.77 232.65L302.91 231.09L302.59 227.34L298.89 229.82L297.23 229.85L297.51 233.46L297.55 233.56Z" fill="#CCCCCC" stroke="white" stroke-width="0.5"/>
<path d="M144.419 296.38L146.499 298.13L145.879 299.79L146.799 301.62L148.019 310.75L146.619 314.1L145.639 320.08L149.419 326.6L150.159 329.36L150.619 337.03L150.029 340.92L151.449 347.01L151.179 357.96L150.909 359.34L143.869 369.65L143.959 372.26L143.109 374.83L143.579 378.77L142.959 380.22L143.679 382.43L143.589 386.06L143.309 387.41L141.859 388.42L142.699 389.92L141.759 391.3L140.959 392.67L138.569 391.87V392.68L137.189 393.44L137.529 395.54L139.099 393.48L141.649 394.4L140.399 396.61L136.829 398.56L137.389 399.46L136.579 400.67L137.569 401.03L137.389 402.14L136.459 402.65L137.069 403.07L134.229 404.55L134.439 406.27L133.889 406.82L134.199 407.18L136.409 405.53L136.109 406.52L134.129 409.74L132.019 409.9L130.849 407.99L127.589 407.87L128.889 404.57L126.379 404.46L124.819 403.62L124.079 403.31L121.939 402.45L120.779 401.18L118.699 401.41L117.189 399.56L116.439 399.01L114.729 399.45L115.289 397.46L113.649 397.66L111.879 396.85L111.629 396.13L111.219 394.38L112.019 394.06L112.059 391.87L112.789 390.99L113.539 391.82L115.189 390.54L116.259 390.64L116.739 388.99L118.449 388.31L118.339 387.61L114.699 387.21L113.149 386.04L111.589 387.03L111.239 384.2L107.759 385.54L107.639 384.34L105.289 384.26L105.379 383.6L106.609 383.83L108.969 381.8L109.239 380.4L109.919 379.38L111.079 379.39L111.689 377.96L111.929 376.73L111.419 374.51L112.679 373.65L111.619 371.77L110.679 371.94L109.639 372.08L108.369 372.78L104.409 372.63L102.659 373.76L103.449 370.93L101.889 368.86L104.749 368.62L105.809 367.64L105.069 366.51L105.359 365.61L109.829 363.05L109.339 361.96L108.389 362.1L107.409 358.73L105.319 359.54L104.659 358.1L102.899 357.18L101.289 357.64L101.949 356.58L101.509 356.02L100.099 356.43L100.259 354.65L101.489 354.13L101.289 352.29L100.529 352.34L99.7792 350.82L99.1992 350.1L107.139 348.08L105.369 345.62L104.329 345.84L103.589 344.93L102.499 345.4L102.159 344.47L103.709 343.57L103.109 342.4L101.849 342.13L100.149 343.58L100.109 341.64L99.3592 341.1L99.5792 340.31L100.699 341.02L101.079 340.05L102.749 339.82L102.579 337.75L105.129 337.82L105.799 335.78L106.399 334.11L104.799 333.44L105.719 330.87L107.969 329.47L108.599 328.03L108.369 327.09L107.759 327.14L108.759 326.09L108.849 327.71L110.269 327.01L110.489 327.87L111.999 328.25L113.119 325.76L112.679 324.87L116.009 324.46L116.619 323.02L118.279 323.04L118.869 322.29L123.609 322.19L125.929 320.8L126.439 318.67L127.239 317.08L129.229 315.91L131.409 315.56L132.989 316.39L134.209 315.65L134.739 316.69L136.049 316.87L136.629 318.01L137.429 319.81L138.139 319.72L140.499 315.6L140.379 311.5L138.679 308.84L140.259 306.56L139.319 304.18L141.339 302.51L140.709 302.13L141.219 301.05L140.269 297.63L141.149 296.71L144.419 296.38Z" fill="#CCCCCC" stroke="white" stroke-width="0.5"/>
<path d="M398.03 761.26L398.33 761.8L397 762.84L399.38 763.06L398.76 764.47L401.06 763.51L400.85 764.29L401.49 763.85L404.49 765.57L404.2 766.05L405.47 766.81L404.66 766.79L404.57 767.7L405.76 767.08L404.74 768.57L406.11 767.43L408.31 768.97L407.88 772.31L407.16 771.07L406.15 771.99L407.26 772.4L406.27 773.14L400.7 771.94L396.28 768.6L395.86 767.01L396.51 766.94L396.11 766.01L396.71 765.24L395.88 764.67L396.55 763.91L396.29 762.95L395.39 762.82L395.94 761.86L398.03 761.26ZM396.42 759.67L397.08 760.38L395.72 760.7L395.64 759.8L396.42 759.67ZM391.08 755.81L394.98 757.22L396.31 758.91L392.48 760.22L388.75 758.79L388.57 756.25L391.08 755.81Z" fill="#CCCCCC" stroke="white" stroke-width="0.5"/>
<path d="M374.961 304.76L376.321 311.1L378.561 316.61L384.831 327.79L391.841 335.5L400.081 341.65L400.951 343.98L404.621 347.51L404.951 348.86L410.511 352.56L415.671 354.39L415.881 359.24L419.311 361.67L418.141 363.52L419.051 364.36L416.211 366.32L413.911 369.16L413.091 372.26L410.731 373.92L409.011 377.65L404.251 382.78L402.211 382.41L403.001 381.77L401.931 377.48L400.831 376.41L398.391 374.79L397.341 376.11L396.771 375.89L395.791 373.7L394.551 373.83L393.611 372.57L390.701 374.95L389.271 377.17L387.051 377.32L386.631 378.22L387.881 381.77L389.401 382.66L388.981 383.69L388.131 383.56L387.881 382.55L387.211 383.79L385.221 383.84L384.591 386.48L383.801 384.41L382.641 384.5L381.771 386.9L380.441 386.95L380.161 388.41L378.291 387.43L376.191 387.95L373.701 384.68L371.741 384.87L369.341 383.46L368.311 384.11L366.981 383.71L365.231 380.4L363.911 381.13L362.841 379.95L361.061 379.46L360.001 381.55L355.951 382.9L354.471 381.97L353.741 380.16L351.901 379.73L350.421 378.3L348.691 377.6L347.291 378.96L346.291 375.33L347.571 373.04L346.571 371.63L345.561 371.81L343.581 369.53L342.681 369.9L335.031 365.41L333.001 364.69L332.981 365.93L330.601 365.29L329.191 363.04L329.341 358.12L330.121 358.48L332.201 356.7L332.251 354.31L333.981 354.18L340.541 357.71L341.781 356.94L343.471 357.56L344.541 355.33L346.041 355.04L345.511 354.33L347.341 354L345.411 352.78L345.111 351.15L342.681 350.31L340.101 347.77L339.451 344.49L335.711 342.01L337.791 339.68L333.801 335.94L336.981 333.52L336.881 331.14L335.881 329.28L336.911 328.7L337.671 325.94L340.421 326.98L341.031 326.25H342.381L342.961 327.23L344.461 326.46L346.721 326.77L348.071 325.6L348.831 322.17L346.841 321.54L345.691 320.17L346.231 318.49L347.891 318.97L349.771 317.64L350.341 318.1L350.941 315.73L353.311 315.34L353.611 312.85L354.951 311.36L355.191 309.92L357.271 311.05L359.641 309.94L360.311 310.88L361.661 310.71L363.671 309.77L364.131 307.56L364.811 307.18L367.591 307L369.701 305.59L374.691 304.52L374.961 304.76Z" fill="#CCCCCC" stroke="white" stroke-width="0.5"/>
<path d="M458.121 430.87L457.791 429.64L459.131 428.41L461.081 428.03L465.731 428.81L468.241 427.91L469.691 428.96L471.381 428.05L471.221 427.1L472.891 426.67L472.711 425.91L473.531 426.2L474.951 425.35L477.251 427L478.991 427.3L479.231 428.33L480.491 428.63L481.101 430.98L481.721 430.56L483.561 432.06L482.921 433.1L483.221 434.65L481.431 436.7L479.921 436.43L480.531 437.56L486.121 439.94L487.711 441.45L489.851 439.49L491.851 440.14L494.791 446.6L501.351 452.65L502.131 454.39L503.661 454.81L507.141 450.77L509.181 453.24L509.121 451.35L510.091 451.09L510.941 452.42L511.051 450.68L512.741 451.41L513.751 450.77L513.921 451.76L515.091 452.46L515.631 451.72L518.551 453.94L517.521 454.45L518.741 455.86L517.841 459.48L518.761 461.53L518.131 461.99L517.701 464.88L518.661 465.89L518.221 466.7L519.381 467.58L518.421 469.66L519.281 470.6L520.981 470.17L522.751 471.24L523.121 472.86L524.861 474.33L525.641 476.19L521.701 481.83L516.891 492.19L514.601 493.86L511.881 492.91L508.761 493.88L505.681 492.86L503.771 493.23L503.111 492.12L502.481 493.59L502.701 496.43L501.671 498.65L501.931 500.65L498.881 506.09L499.991 507.23L499.551 508.55L497.411 506.16L495.411 505.98L492.481 506.64L492.461 508.39L489.681 507.12L488.641 508.2L483.841 508.46L482.291 506.72L482.661 506.1L481.811 504.5L483.051 502.27L481.891 501.95L480.401 502.8L479.711 501.84L477.861 501.54L476.431 502.77L475.811 501.9L474.881 502.39L473.981 501.45L472.301 501.63L469.951 504.16L469.001 506.76L467.211 503.21L465.111 501.29L464.971 499.81L463.291 498.83L464.981 497.82L463.711 496.44L464.921 496.1L466.481 493.98L466.161 491.07L467.781 489.42L467.641 488.42L471.111 486.94L470.591 485.71L471.521 484.88L471.481 483.46L470.871 482.31L467.941 481.46L467.801 480.14L466.161 478.63L466.111 476.07L464.011 475.31L462.411 473.17L460.351 472.14L459.871 470.41L457.701 468.7L458.421 467.62L457.071 464.41L457.771 463.59L453.421 460.96L454.151 458.94L455.801 457.93L455.861 457.12L449.931 453.27L450.101 448.42L449.281 448.35L449.501 447.17L447.441 445.9L449.541 445.75L449.661 443.61L448.641 443.09L449.071 442.43L453.861 443.51L454.501 443.16L454.271 442L457.231 440.71L459.491 434.84L458.121 430.87Z" fill="#CCCCCC" stroke="white" stroke-width="0.5"/>
<path d="M468.999 506.76L469.949 504.16L472.299 501.64L473.979 501.46L474.879 502.39L475.809 501.9L476.429 502.77L477.859 501.54L479.719 501.84L480.409 502.8L481.899 501.95L483.059 502.26L481.819 504.49L482.669 506.09L482.299 506.71L483.849 508.45L488.649 508.19L489.689 507.11L492.469 508.37L492.489 506.62L495.419 505.97L497.419 506.15L499.559 508.53L499.999 507.21L498.899 506.07L501.949 500.63L501.679 498.62L502.709 496.41L502.499 493.57L503.129 492.11L503.789 493.21L505.699 492.84L508.789 493.86L511.909 492.89L514.629 493.84L512.719 496.28L512.379 498.91L513.739 504.7L509.139 510.53L506.639 515.16L506.679 518.08L508.689 520.4L508.139 523.86L513.219 526.87L521.259 526.99L525.979 532.32L530.669 535.19L534.139 536.08L534.919 538.14L537.059 540.2L540.979 541.55L538.619 547.43L538.369 551.12L540.539 554.3L538.579 560.85L540.019 562.73L539.709 563.68L540.429 564.82L543.489 566.27L541.329 568.23L541.579 571.03L537.759 575.03L537.489 573.93L536.079 573.42L533.969 574.18L531.829 572.01L527.139 572.75L521.419 574.88L512.669 580.3L509.019 586.85L510.169 588.89L511.479 602.55L511.019 605.37L505.369 611.25L498.129 614.31L490.129 624.43L489.119 631.21L486.579 636.04L484.889 638.14L481.549 638.68L477.519 637.74L469.329 638.51L465.089 636.1L462.919 632.03L463.989 630.51L462.719 627.12L463.979 624.22L462.859 620.86L462.909 618.14L467.009 616.46L468.899 616.4L471.479 614.94L472.729 612.77L473.189 609.59L474.339 608.55L475.139 605.81L476.609 604.47L477.339 602.53L478.089 597.66L472.769 592.9L473.249 591.08L475.059 589.36L479.279 587.96L481.019 586.13L483.479 585.83L486.899 586.85L488.629 586.35L491.049 584.45L493.029 577.97L492.739 572.85L489.649 571.35L486.629 565.77L485.009 558.5L484.229 548.04L481.479 538.97L477.829 533.27L475.189 531.38L473.069 524.03L472.159 523.28L470.759 514.49L469.799 512.8L470.949 510.86L468.999 506.76Z" fill="#CCCCCC" stroke="white" stroke-width="0.5"/>
<path d="M390.631 464.3L392.641 464.54L391.951 465.46L389.021 465.87L389.151 464.24L390.631 464.3ZM372.321 450.83L376.731 452.03L377.261 452.8L376.571 454.87L373.751 454.9L373.441 455.5L371.461 454.46L371.421 452.59L372.321 450.83ZM377.921 403.16L379.441 403.93L379.161 405.45L381.221 407.9L383.371 407.42L384.671 408.28L384.401 405.86L383.031 404.19L385.231 400.16L387.521 402.07L387.911 400.69L391.361 400.75L391.571 401.6L393.341 401.61L393.611 402.63L395.641 403.72L403.651 406.06L404.031 407.65L405.221 408.56L408.561 408.04L409.781 409.8L411.971 407.85L413.021 407.79L412.981 406.85L414.951 406.61L415.891 407.35L417.771 406.77L419.491 403.88L423.501 405.58L425.071 403.99L427.721 403.77L430.701 401.67L432.511 404.51L435.371 405.31L435.561 406.11L434.741 406.89L435.281 408.09L434.221 408.27L433.381 409.44L434.001 412.06L436.971 413.12L437.181 415.29L440.601 415.15L441.641 416.63L443.261 416.31L444.521 417.74L442.911 418.76L443.761 421.14L441.741 422.34L440.931 424.33L442.501 425.1L443.231 426.99L445.241 428.43L446.341 427.53L449.171 428.72L450.871 427.43L452.971 429.23L454.541 429.09L458.141 430.89L459.511 434.86L457.251 440.73L454.291 442.02L454.521 443.18L453.881 443.53L449.091 442.44L448.651 443.11L449.671 443.62L449.551 445.77L447.451 445.92L449.511 447.19L449.291 448.36L450.121 448.43L449.951 453.28L455.881 457.13L455.821 457.94L454.161 458.94L453.431 460.96L457.781 463.59L457.091 464.41L458.441 467.62L457.721 468.7L459.881 470.41L460.371 472.14L462.431 473.17L464.031 475.31L466.131 476.07L466.181 478.63L467.831 480.14L467.971 481.46L470.901 482.31L471.511 483.46L471.551 484.89L470.621 485.72L471.141 486.95L467.671 488.42L467.811 489.42L466.201 491.07L466.521 493.98L464.961 496.1L463.761 496.44L465.031 497.81L463.331 498.82L462.471 496.86L459.691 496.48L456.111 497.42L451.871 502.29L448.481 501.72L446.451 499.74L444.241 500.29L444.051 499.66L444.911 499.01L444.221 496.78L440.911 493.6L439.431 493.38L436.921 490.35L432.241 490.41L429.591 487.11L425.911 485.97L425.291 484.91L427.271 483.41L427.371 479.4L429.981 477.9L429.991 474.96L423.941 462.4L418.611 456.8L415.881 457.22L414.521 459.35L411.181 458.38L408.471 460.78L406.121 461.19L403.691 459.86L395.631 463.73L396.411 459.63L399.571 459L400.001 457.53L403.581 455.07L402.501 451.9L399.401 450.92L395.861 447.03L393.101 445.19L390.451 446.3L388.611 448.68L387.141 448.46L387.921 448.08L387.211 447.06L383.861 446.1L382.761 446.88L383.611 449.57L381.361 448.81L381.351 444.29L380.231 440.36L377.581 436.13L377.521 435.98L375.111 433.38L373.711 428.55L370.151 422.73L366.961 419.52L367.511 418.2L370.511 417.62L371.011 416.85L370.361 416.61L370.461 415.58L373.571 414.47L372.541 410L373.361 408.5L372.041 406.28L374.191 405.91L377.241 403.14L377.921 403.16Z" fill="#CCCCCC" stroke="white" stroke-width="0.5"/>
<path d="M315 228.91L313.83 232L314.06 236.13L311.54 237.12L311 239.22L308.08 238.86L308.27 237.82L307.47 237.51L306.78 235L304.06 236.13V233.99L301.79 232.67L302.92 231.11L302.6 227.36L298.9 229.84L297.24 229.88L297.52 233.48L298.73 235.7L297.11 235.69L296.77 234.87L294.78 235.66L293.77 239.13L291.17 241.22L290.97 243.39L290.93 243.36L289.29 244.25L287.26 243.88L286.43 245.85L284.88 243.54L283.44 244.34L282.03 244.18L280.31 245.08L279.2 243.81L278.28 244.06L276.82 243.16L275.76 243.58L274.13 242.53L273.92 241.56L272.57 241.38L272.05 240.09L267.39 239.88L265.39 237.47L261.81 235.47L262.08 232.41L260.26 231.19L260.59 229.56L258.42 227.48L258.67 226.33L259.34 226.42L259.14 225.33L260.82 224.69L261.25 222.7L263.28 220.51L263.62 217.82L258.15 218.92L255.5 218.56L256.95 216.46L256.76 215.42L254.16 214.89L253.13 215.89L251.93 215.63L250.2 213.66L248.81 213.28L248.47 211.14L247.14 209.94L244.68 212.33L242.19 212.59L241.99 213.66L239.71 215.73L235.72 215.87L235.61 216.81L238.54 218.51L238.79 219.59L236.25 219.75L233.16 218.86L229.82 220.31L227.06 219.99L225.51 218.84L226.13 217.8L225.73 216.89L220.87 222.35L220.21 222.05L220.53 221.1L219.85 220.19L217.57 219.69L212.6 215.66L207.03 215.53L206.03 216.76L206.1 218.11L204.43 218.53L201.01 215.48L200.77 213.93L199.03 212.33L199.08 210.95L197.86 210.28L196.19 210.57L193.24 207.53L191.64 207.5L189.45 206.27L187.07 207.46L181.44 201.51L179 202.02L174.72 199.08L173.59 197.82L174.13 195.2L173.08 194.99L172.58 193.75L170.15 192.88L164.8 193.47L161.39 198.84L157.79 200.93L156.37 197.61L153.67 195.62L152.62 196.27L151.21 195.4L150.86 196.36L148.08 196.63L147.14 197.76L146.88 196.59L145.23 196.98L146.77 192.47L148.09 192.26L148.57 188.84L147.71 186.75L144.48 185.64L143.69 183.91L141.25 185.7L138.1 183.15L137.66 184.2L135.56 183.85L135.9 183.01L135.31 182.38L133.05 182.82L133.02 177.74L133.51 177.93L135.26 177.82L134.94 175.8L136.25 178.31L139.48 177.46L138.77 176.07L139.66 175.03L139.51 173.81L137.77 172.88L137.47 171.78L141.32 167.9L140.25 164.65L139.28 163.83L138.55 164.23L136.8 162.62L138.05 160.98L137.45 159.96L139.11 159.54L140.48 155.49L142.12 153.74L142 151.56L144.05 149.72L143.94 149.05L145.17 149.23L145.49 148.42L148.33 147.7L149.9 149.56L151.03 148.53L150.4 145.8L151.13 145.68L152.73 147.82L154.01 147.28L154.66 145.37L155.58 146.62L155.43 149.12L159.61 150.91L161.23 149.49L161.73 148.48L160.98 147.39L161.85 147.12L162.68 148.66L164.53 149.61L164.9 151.47L165.83 148.26L166.83 148.29L167.84 149.77L168.72 149.38L168.92 148.22L167.79 146.63L169.59 145.17L170.32 145.78L169.94 147.97L172.82 145.76L173.71 145.85L175.59 148.3L175.15 149.79L176.67 151.02L176.74 152.24L178.23 151.89L179.03 153.63L182.36 152.07L182.89 153L185.11 152.94L188.11 155.31L189.71 155.35L192.54 157.62L194.99 156.28L196.46 159.2L201.03 161.43L204.97 161.26L206.42 160.42L209.28 156.3L209.73 157.92L211.53 155.85L212.5 158.97L216.91 159.69L217.66 160.48L218.54 160.32L218.62 161.07L219.96 160.9L219.76 161.48L221.22 160.58L222.57 160.8L222.8 159.65L225.12 158.46L228.24 158.72L229.17 157.93L231.82 158.57L233.04 160.12L233.59 159.47L237.48 159.16L237.84 158.5L239.32 159.55L240.99 157.96L247.22 158.88L247.38 160.37L253.08 160L255.18 161.41L255.61 163.03L256.32 163.28L257.56 163.16L259.58 161.26L262.77 160.37L263.51 158.15L266.43 156.79L272.7 156.87L274.91 156.09L281.61 157.16L283.9 160.24L285.38 159.27L286.19 160.32L288.34 160.49L289.8 159.2L290.88 159.19L291.71 160.27L291.08 161.51L291.41 164.4L292.05 165.35L294.04 165.86L294.64 168.04L293.99 168.21L292.8 166.37L291.61 166.01L289.88 168.29L291.14 167.79L289.48 172.16L288.89 177.14L289.37 180.45L291.33 184.28L291.22 193.12L292.99 197.88L293.2 201.27L295.25 208.42L297.01 211.95L303.72 219.77L306.24 221.46L312.21 227.89L315 228.91ZM285.58 240.22L285.31 241.35L286.68 242.94L288.86 241.82L288.56 240.72L288.35 240.25L285.58 240.22Z" fill="#CCCCCC" stroke="white" stroke-width="0.5"/>
<path d="M317.331 35.01L319.261 35.65V37.08L319.961 37.45L324.071 37.15L330.221 38.34L332.161 37.8L336.331 38.82L339.991 41.58L341.691 40.87L344.241 41.58L345.421 40.3L346.751 40.45L346.861 39.54L348.701 40.06L348.601 40.86L349.561 41.17L353.461 40.47L354.231 41.91L356.441 41.58L357.041 42.6L359.441 42.31L364.421 43.88L362.921 49.98L361.021 49.33L358.101 50.07L356.731 52.92L351.851 55.68L350.281 55.75L350.301 58.42L346.941 60.5L349.411 65.07L348.831 66.78L350.661 66.6L350.591 65.68L352.401 65.74L353.391 66.45L354.821 66.21L356.411 67.26L357.051 68.74L360.251 68.24L361.671 69.05L360.641 72.27L357.071 75.72L353.301 78.11L353.601 80.38L352.031 81.99L355.081 84.84L356.721 84.61L358.051 83.12L360.631 83.46L360.351 86.94L357.211 93L358.251 96.26L359.581 97.15L361.961 96.77L365.941 100.14L368.461 100.81L372.061 107.1L374.851 109.13L370.731 112.81L368.571 112.95L366.101 111.65L364.601 112.02L364.511 111.09L365.291 110.67L368.001 111.52L369.211 110.56L367.781 110.61L367.321 109.05L366.311 109.27L365.721 108.61L366.951 107.67L366.231 105.61L360.081 99.02L357.581 98.29L356.451 98.66L355.891 97.86L354.521 99.34L354.331 101L356.091 102.42L352.731 104.04L351.931 103.77L349.811 105.83L347.391 106.06L342.261 103.3L340.421 103H340.111L340.021 102.93L335.791 104.05L332.911 108.47L331.841 107.87L331.961 107.26L330.981 107.38L331.151 106.06L330.141 105.26L330.511 104.46L329.721 104.26L329.151 101.59L328.181 102.3L328.531 101.13L327.881 99.83L328.371 99.57L326.341 97.64L327.431 97L326.611 96.66L326.791 95.84L326.401 95.47L326.441 95.16L325.861 93.58L325.271 93.82L325.721 95.24L324.171 95.74L323.681 94.65L322.161 95.59L320.911 94.45L321.311 93.35L320.671 93.28L318.501 94.37L317.951 95.41L317.321 94.68L317.751 93.68L316.621 92.84L314.641 94.94L313.971 94.27L310.091 97.86L310.041 96.24L308.921 95.72L308.801 94.83L307.561 94.17L306.881 95.78L304.881 94.73L305.101 93.53L303.711 92.27L302.451 87.74L300.971 87.73L299.931 86.22L298.501 86.18L298.481 82.71L297.771 80.11L296.851 79.31L298.621 76.5L301.521 74.54L301.971 70.96L299.551 69.01L299.251 66.88L297.421 66.98L297.161 65.4L295.081 65.42L292.961 62.57L294.761 60.69L294.721 58.7L295.761 57.86L297.671 58.13L298.001 56.11L299.831 55.18L299.651 54.58L300.251 54.85L299.931 53.47L301.931 51.71L302.211 49.96L303.691 47.92L304.101 48.35L305.671 47.1L307.521 47.89L308.561 47.1L310.381 47.88L309.991 46.14L308.761 45.34L308.881 44.4L312.341 42.22L314.891 42.16L314.011 41L314.711 38.73L313.741 37.07L313.931 35.27L315.581 34.36L317.331 35.01Z" fill="#CCCCCC" stroke="white" stroke-width="0.5"/>
<path d="M326.06 440.36L325.81 441.68L326.38 441.87L325.38 443.02L325.2 440.2L327.44 439.19L326.06 440.36ZM377.67 401.02L378.68 401.87L377.92 403.17L377.17 403.14L374.13 405.91L371.98 406.28L373.3 408.5L372.49 410L373.52 414.47L370.41 415.59L370.31 416.62L370.96 416.86L370.46 417.63L367.46 418.21L366.91 419.53L364.1 417.51L362.88 418.11L360.07 416.96L357.12 418.62L357.23 420.08L358.13 420.68L356.09 420.75L347.15 415.54L342.81 414.5L341.17 415.5L338.85 415.38L335.93 416.31L332.62 419.46L330.21 419.27L327.28 412.54L323.62 408.65L320.02 406.66L316.65 406.32L315.84 406.95L311.02 403.72L309.32 404L309.18 404.71L308.31 404.34L304.99 398.48L297.91 390.03L294.23 386.91L288.02 384.08L287.09 378.18L283.96 372.43L279.13 369.6L277.83 367.66L275.27 366.68L274.7 365.47L272.36 363.99L268.09 364.62L266.42 360.73L263.38 356.72L263.2 354.84L261.08 350.57L258.83 347.41L253.39 342.98L248.26 340.53L250.12 336.38L256.92 336.3L256.83 332.87L254.04 330.96L255.41 329.02L254.96 327.26L255.58 326.93L256.72 327.98L257.39 327.09L258.2 327.32L259.94 326.44L260.15 325.36L261.65 324.25L262.94 324.5L263.85 322.36L265.22 322.55L266.62 321.63L266.54 320.55L265.49 320.07L265.08 317.45L266.31 317.46L267.35 315.1L263.57 312.14L264.73 309.7L265.94 310.17L266.64 311.49L267.15 309.48L268.78 308.41L271.26 308.55L272.88 312.44L275.66 314.24L274.65 316.22L272.8 317.26L274.09 319.37L278.23 321.93L281.91 320.62L282.92 321.69L283.04 320.94L283.71 321.16L285.09 319.97L286.72 320.65L288.39 322.71L288.94 327.18L290.61 327.96L290.4 329.92L291.44 330.77L290.69 331.44L292.21 332.24L291.52 332.7L293.39 332.49L294.62 333.75L296.62 332.13L298.09 332.29L297.84 334.15L298.58 334.83L297.9 335.06L297.89 337.12L300.18 337.92L299.21 339.34L302.85 338.82L302.8 340.5L303.67 341.5L308 338.14L308.22 334.26L309.41 334.18L310.3 336.04L311.51 335.99L314.5 334.02L313.13 331.98L316.19 331.1L316.36 329.77L318.41 329.87L320.26 328.24L322.35 327.57L321.73 325.02L322.31 323.85L324.33 324.84L325.13 323.87L328.38 323.91L329.09 322.38L331.15 323.46L333.95 321.74L334 320.96L335.62 321.6L336.95 320.32L337.7 315.87L340.98 316.66L341.52 315.49L342.61 315.39L346.29 318.55L345.75 320.24L346.9 321.6L348.89 322.23L348.13 325.67L346.78 326.84L344.52 326.52L343.02 327.29L342.44 326.32L341.09 326.31L340.48 327.04L337.73 326.01L336.97 328.77L335.94 329.34L336.94 331.2L337.04 333.58L333.86 336L337.85 339.74L335.76 342.08L339.5 344.55L340.15 347.84L342.73 350.38L345.15 351.21L345.45 352.84L347.39 354.06L345.56 354.39L346.08 355.09L344.59 355.38L343.52 357.61L341.83 356.99L340.59 357.76L334.03 354.23L332.3 354.36L332.25 356.76L330.17 358.54L329.4 358.18L329.25 363.1L330.65 365.35L333.04 365.99L333.06 364.75L335.09 365.47L342.74 369.96L343.63 369.59L345.61 371.87L346.63 371.68L347.63 373.09L346.35 375.38L347.35 379.01L348.75 377.65L350.48 378.35L351.96 379.78L353.8 380.21L354.54 382.02L356.02 382.95L360.07 381.59L361.14 379.5L362.91 379.99L363.98 381.17L365.31 380.44L367.06 383.75L368.39 384.15L369.41 383.49L371.81 384.91L373.77 384.72L376.27 387.99L378.26 389.71L379.66 393.3L379.76 394.67L379.08 395.31L380.45 396.82L380.23 397.77L379.38 397.95L380.6 399.01L377.67 401.02ZM300.02 373.13L299.98 373.05L299.99 372.87L299.88 372.76L299.79 372.79L299.62 372.83L299.46 373.09L299.43 373.15L299.5 373.23L299.56 373.21L299.82 373.27L300.02 373.19V373.13Z" fill="#CCCCCC" stroke="white" stroke-width="0.5"/>
<path d="M166.499 223.33L166.099 224.32L165.479 223.33H166.499ZM56.6689 222.16L57.4589 222.43L59.0089 220.76L57.6989 220.78L56.7889 219.34L57.2589 217.8L59.1989 216.73L68.1989 219.61L69.8389 218.74L71.7989 219.43L72.2389 218.7L71.6789 217.83L70.3689 217.22L72.2089 215.7L73.7389 216.72L75.1589 216.23L76.3389 214.69L76.2889 212.75L74.8289 211.47L75.5589 209.77L74.6989 208.67L75.9489 207.44L74.6789 206.13V205.13L75.1089 204.59L76.5689 205.24L76.8689 203.07L78.1589 203.23L79.1389 201.62L78.8989 199.63L82.0889 197.87L82.8389 195.94L81.4689 192.66L82.8489 192.21L82.8089 190.31L84.3589 189.07L85.3389 190.6L87.1889 190.79L90.2689 193.4L91.5789 192.69L92.1389 190.49L92.9489 190.11L94.4189 191.16L95.5589 189.45L95.9089 190.31L99.1089 190.19L100.109 190.94L102.849 187.91L102.059 187L103.289 185.07L106.849 185.27L108.469 185.51L110.259 188.45L109.959 189.35L110.819 189.31L111.199 191.51L112.469 191.05L112.109 189.57L113.849 188.11L113.829 186.64L116.109 186.35L116.989 187.53L118.429 186.76L118.129 183.04L116.689 181.48L118.249 180.22L118.889 178.56L120.499 178.32L121.219 179.34L123.499 179.09L125.099 182.52L126.539 182.23L127.999 183.08L127.949 184.56L129.579 185.77L133.099 184.31L133.039 182.85L135.299 182.41L135.899 183.04L135.559 183.88L137.659 184.23L138.099 183.18L141.249 185.73L143.689 183.94L144.479 185.67L147.709 186.78L148.569 188.87L148.089 192.29L146.769 192.5L145.229 197.01L146.879 196.62L147.139 197.79L148.079 196.66L150.859 196.39L151.209 195.43L152.629 196.3L153.679 195.65L156.379 197.64L157.799 200.96L159.119 200.77L160.129 203.35L164.159 206.48L166.749 207.54L166.839 210.11L167.649 210.81L167.219 213.54L169.299 211.79L170.769 212.81L170.019 212.87L168.779 214.85L172.709 214.72L172.909 217.08L173.849 218.47L173.359 219.7L175.139 218.2L177.509 219.67L177.239 221.05L175.019 223.6L173.439 223.33L172.249 224.2L169.299 222L169.349 221.08L167.999 221.07L166.009 219.07L164.719 219.86L166.019 221.48L165.779 222.07L166.529 221.94L165.479 223.34L160.719 220.23L158.819 217.77L156.379 216.49L155.259 217.31L153.909 214.75L151.869 213.85L150.959 212.16L148.839 211.36L147.909 209.94L145.549 209.86L144.149 208.41L143.489 208.88L141.869 206.09L134.839 202.13L133.749 203.17L133.869 205.58L130.229 203.89L130.749 202.11L130.059 201.15L119.389 198.45L118.739 197.39L118.149 197.83L118.559 198.5L114.019 197.27L115.189 197.06L114.269 196.69L111.889 196.58L112.159 197.1L110.099 196.62L108.029 197.42L106.499 198.89L104.669 199.24L103.199 200.78L97.2589 203.8L96.4889 204.81L97.1889 204.67L94.1889 207.42L94.9489 208.43L93.0289 210.98L93.4089 213.02L85.4089 217.02L83.4189 220.48L83.1489 223.82L80.0089 227.35L79.7889 228.76L80.5289 230.12L76.2389 233.01L75.3289 234.68L73.0189 235.18L68.8189 237.93L64.3789 238.83L62.9389 240.04L61.3989 239.58L58.0689 241.54L56.2589 241.24L54.7289 242.83L50.0389 241.76L48.7989 242.77L47.7789 242.55L45.6289 237.38L45.7189 235.84L46.4689 234.9L48.9189 234.15L49.2989 230.98L53.6689 228.69L54.4589 226.94L54.2089 224.82L56.3789 223.89L56.6689 222.16Z" fill="#CCCCCC" stroke="white" stroke-width="0.5"/>
<path d="M186.79 36.38L187.31 36.96L186.4 38.4L186.66 39.52L188.73 39.9L189.21 41.45L191.45 42.04L192.11 41.03L194.34 41.91L195.44 41.43L197.35 42.91L198.5 45.61L202.27 45.91L204.91 47.68L205.94 49.04L205.71 51.23L206.55 52.62L205.06 54.18L203.09 54.29L200.51 56.84L203.15 58.11L203.75 60.13L202.86 61.4L203.67 61.87L204.19 64.01L201.91 68.17L202.98 69.76L202.04 74.19L198.71 78.26L199.07 80.16L197.88 81.1L197.31 82.93L197.36 83.93L199.1 84.25L198.94 86.28L200.24 88.27L199.33 90.37L199.85 94.68L202.1 95.63L201.39 97L201.81 97.87L203.13 98L205.27 96.67L207.25 96.6L207.72 94.45L211.73 93.64L213 94.62L213.39 93.76L217.36 94.53L206.27 111.03L207.4 122.78L207 124.76L207.84 124.94L208.54 124.13L211 125.26L210.04 127.83L211 128.58L209.7 129.56L210.7 131.05L210.02 132.96L211.51 133.35L212.02 134.34L214.43 132.34L216.39 134.27L217.51 136.62L220.15 137.21L220.26 137.89L222.09 138.37L221.99 139.67L224.86 140.97L225.66 142.19L225.28 143.9L226.89 143.58L227.76 144.13L226.8 146.01L229.12 147.96L230.32 148.18L230.56 146.91L231.92 147.64L232.85 145.96L235.85 147.08L234.58 148.1L234.99 149.11L234.4 150.73L237.53 151.89L238.96 151.04L238.97 153.5L246.95 157.78L247.18 158.81L240.95 157.89L239.28 159.48L237.8 158.43L237.44 159.09L233.55 159.4L233 160.05L231.78 158.51L229.13 157.87L228.2 158.66L225.08 158.4L222.76 159.59L222.53 160.75L221.18 160.53L219.72 161.43L219.92 160.85L218.58 161.02L218.5 160.27L217.62 160.43L216.87 159.64L212.46 158.93L211.49 155.81L209.69 157.88L209.24 156.26L206.39 160.38L204.94 161.22L201 161.39L196.43 159.16L194.96 156.24L192.51 157.58L189.68 155.31L188.08 155.27L185.08 152.9L182.86 152.97L182.33 152.05L179 153.61L178.21 151.88L176.72 152.23L176.65 151.01L175.13 149.78L175.57 148.29L173.69 145.84L172.8 145.75L169.92 147.97L170.3 145.78L169.57 145.17L167.77 146.63L168.9 148.22L168.71 149.38L167.83 149.77L166.82 148.29L165.82 148.26L164.89 151.47L164.52 149.61L162.67 148.66L161.85 147.12L160.98 147.39L161.73 148.48L161.23 149.49L159.61 150.91L155.43 149.12L155.58 146.62L154.66 145.37L154.01 147.28L152.73 147.82L151.13 145.68L150.4 145.8L151.03 148.53L149.9 149.56L148.33 147.7L145.5 148.42L145.18 149.23L143.95 149.05L144.06 149.72L142.02 151.56L142.14 153.74L140.51 155.49L139.14 159.54L137.48 159.96L138.08 160.98L136.83 162.62L138.58 164.23L139.31 163.83L140.28 164.65L141.35 167.9L137.5 171.78L137.8 172.88L139.54 173.81L139.69 175.03L138.8 176.07L139.51 177.47L136.28 178.33L134.97 175.82L135.29 177.84L133.54 177.95L133.17 175.1L133.8 173.1L131.53 171.42L131.06 168.49L128.34 169.24L127.89 168.46L126.43 168.34L126.55 167.4L125.39 166.23L126.33 165.22L125.6 163.24L124.58 163.36L122.9 161.87L121.35 159.32L121.59 157.59L120.86 156.3L120.39 155.86L119.07 156.48L117.78 154.73L117.49 151.53L114.58 151.76L112.96 153.37L111.32 153.55L111.07 154.58L109.79 154.41L109.62 153.41L108.5 153.57L108.11 152.41L107.65 154.17L104.33 152.25L104.04 148.73L102.62 147.43L102.97 146.13L101.85 145.82L101.26 144.33L99.8302 143.9L99.2802 142.92L101.07 140.35L98.9002 141.31L98.4002 140.92L99.5902 140.49L98.3402 139.32L99.2802 138.47L98.7102 138.06L99.9702 137.9L98.3602 137.37L98.3402 136.88L99.3102 137.01L99.0002 135.24L96.9902 134.2L97.7202 132.71L99.0702 132.25L98.4702 130.46L99.9702 129.08L101.15 130.08L103.93 129.97V130.88L105.06 131.62L105.55 134.17L107.02 134.06L108.12 133.47L108.68 131.37L110.56 130.17L108.39 127.85L109.9 128.13L111.07 127.33L112.64 127.77L114.77 126.69L113.84 123.9L112.95 123.96L111.8 120.06L108.29 118.25L107 113.33L107.44 111.62L105.51 109.98L105.19 108.72L106.71 109.03L105.9 107.19L106.27 106.19L104.24 105.79L104.79 103.13L101.74 102.22L99.7202 98.4L99.7802 96.91L101.86 94.56L100.58 89.61L108.63 80.85L107.62 76.3L108.25 74.69L109.46 73.36L110.31 74.76L111.57 75.41L112.79 74.89L115.15 76.82L115.18 77.93L114.13 78.56L111.65 83L114 83.03L115.94 85.07L117.36 85.4L117.4 87.08L119.87 91.96L118.12 94.59L120.44 93.72L122.54 94.5L122.2 95.5L124.53 95.58L125.27 91.92L127.31 89.75L126.57 89.65L125.75 88.05L123.69 87.51L123.43 85.25L122.21 84.55L124.1 82.82L122.97 79.55L123.51 78.51L126.54 77.42L127.14 75.79L126.35 73.37L128.77 72.18L130.91 69.74L131.97 69.67L134 64.98L135.46 64.83L135.63 62.44L137.97 58.07L137.86 56.02L136.78 54.81L137.05 51.58L135.39 49.5L136.73 48.36L136.91 45.47L141.31 44.48L141.93 46.27L143.81 47.58L145.07 45.18L146.52 44.47L146.28 45.93L145.59 46.19L146.57 46.78L146.45 54.43L148.34 55.06L149.34 58.07L150.86 59.89L151.32 59.51L155.19 61.07L157.33 59.86L159.13 60.62L160.54 56.34L162.65 57.44L169.27 54.06L170.23 55.16L171.62 54.16L173.88 56.21L173.11 58.36L174.15 59.03L174.03 61.22L176.95 62.71L176.42 65.27L177.64 66.12L178.74 65.35L180.37 65.64L183.13 63.28L182.04 60.66L179.48 57.67L179.61 56.17L180.69 55.48L181.21 53.71L182.4 53.47L182.61 51.95L181.71 51.75L181.35 50.51L178.23 51.06L176.13 49.33L176.83 47.82L176.26 46.77L176.87 43.76L176.36 42.27L179.24 39.16L179.34 36.99L180.75 37.37L183.78 35.82L185.09 36.46L186.32 35.22L186.79 36.38Z" fill="#CCCCCC" stroke="white" stroke-width="0.5"/>
<path d="M359.911 258.63L357.141 257.02L355.961 254.7L353.881 252.97L353.041 254.49L350.981 254.24L343.421 250.03L322.931 232.06L317.441 229.16L315.011 228.92L313.841 232.01L314.071 236.14L311.551 237.13L311.011 239.23L308.091 238.87L308.281 237.83L307.481 237.52L306.791 235.01L304.071 236.14V234L301.801 232.68L301.401 234.03L297.581 233.6L297.541 233.5L298.751 235.72L297.131 235.71L296.791 234.89L294.801 235.68L293.791 239.15L291.191 241.24L290.991 243.41L291.121 243.51L293.271 244.37L295.561 247.45L293.461 247.47L293.761 249.65L292.841 249.59L292.231 245.87L291.791 248.99L290.561 249.65L289.101 249.37L289.301 250.18L288.361 251.23L286.051 252.06L287.501 254.29L288.211 255.46L291.301 255.42L291.651 255.98L293.731 254.3L295.611 254.18L295.101 254.96L295.581 256.4L292.661 259.1L294.021 260.52L295.451 259.79L296.721 261.52L298.141 259.43L299.131 259.56L299.961 260.98L300.881 261.03L301.171 260.17L302.081 260.59L308.441 267.88L310.571 266.59L312.801 267.41L314.121 264.72L316.201 265.28L315.831 267.29L316.731 268.13L314.931 269.82L314.981 270.66L317.251 273.62L317.631 276.53L317.011 277.23L318.891 278.57L319.561 281.99L320.951 282.68L320.811 285.58L319.191 287.13L319.861 288.67L321.931 289.09L322.501 290.8L322.261 293.57L323.011 295.68L322.141 296.34L323.081 298.29L322.521 299.78L325.211 301.39L325.411 302.26L326.521 302.39L326.641 306.43L327.851 305.07L327.871 303.36L329.171 304.13L330.571 302.74L333.581 305.04L336.081 308.98L338.751 308.37L340.001 306.55L341.411 310.17L341.161 311.99L340.241 313.89L339.861 313.12L337.941 313.9L337.691 315.9L340.971 316.69L341.511 315.52L342.601 315.42L346.281 318.58L347.951 319.07L349.831 317.74L350.391 318.2L350.991 315.82L353.361 315.43L353.661 312.94L354.991 311.46L355.241 310.01L357.321 311.15L359.681 310.04L360.351 310.99L361.701 310.82L363.711 309.88L364.171 307.67L364.851 307.29L367.631 307.1L369.751 305.69L374.741 304.62L372.541 297.92L371.001 289.79L359.741 261.88L359.911 258.63ZM298.731 255.39L297.991 255.13L297.801 255.07L298.121 254.37L298.691 254.7L298.791 255.23L298.731 255.39Z" fill="#CCCCCC" stroke="white" stroke-width="0.5"/>
<path d="M419.761 362.06L425.201 364.95L430.191 365.88L434.161 370.22L437.321 371.45L437.531 374.72L435.401 377.79L436.221 380.72L435.261 382.31L436.261 383.53L435.511 384.05L436.511 385.54L438.371 386.39L436.321 387.41L435.641 388.91L434.871 388.14L434.841 388.96L432.751 389.87L431.431 392.29L428.191 390.79L426.941 392.31L427.851 393.11L427.141 398.69L428.701 399.36L430.691 401.66L427.711 403.76L425.061 403.97L423.481 405.57L419.471 403.86L417.751 406.76L415.871 407.34L414.931 406.6L412.961 406.83L413.001 407.77L411.951 407.84L409.761 409.79L408.541 408.03L405.201 408.55L404.011 407.64L403.631 406.05L395.621 403.71L393.591 402.62L393.331 401.61L391.551 401.6L391.351 400.76L387.901 400.69L387.511 402.07L385.221 400.16L383.021 404.19L384.401 405.86L384.671 408.28L383.371 407.42L381.221 407.9L379.161 405.45L379.441 403.93L377.921 403.16L378.681 401.87L377.671 401.02L380.531 398.96L379.311 397.9L380.161 397.72L380.371 396.77L379.001 395.26L379.681 394.63L379.581 393.26L378.181 389.67L376.191 387.95L378.291 387.43L380.161 388.41L380.441 386.95L381.771 386.9L382.641 384.5L383.801 384.41L384.591 386.48L385.221 383.84L387.211 383.79L387.881 382.55L388.131 383.56L388.981 383.69L389.401 382.66L387.881 381.77L386.631 378.22L387.051 377.32L389.271 377.17L390.701 374.95L393.611 372.57L394.551 373.83L395.791 373.7L396.771 375.89L397.341 376.11L398.391 374.79L400.831 376.41L401.931 377.48L403.001 381.77L402.211 382.41L404.251 382.78L409.011 377.65L410.731 373.92L413.091 372.26L413.911 369.16L416.211 366.32L419.051 364.36L418.141 363.52L419.311 361.67L419.761 362.06Z" fill="#CCCCCC" stroke="white" stroke-width="0.5"/>
<path d="M93.94 47.87L95.49 49.44L94.87 50.96L95.61 52.93L95.25 57.67L93.3 60.22L94.8 62.71L94.14 63.89L95.56 65.16L98.61 66.16L100.81 70.15L102.29 70.78L101.98 71.84L102.74 73.22L104.55 73.16L106.57 74.71L108.21 74.58L107.58 76.19L108.59 80.74L100.54 89.5L101.82 94.46L99.74 96.81L99.68 98.31L101.7 102.13L104.75 103.04L104.2 105.69L106.23 106.09L105.86 107.09L106.67 108.94L105.14 108.62L105.46 109.89L107.39 111.52L106.95 113.23L108.24 118.15L111.75 119.96L112.9 123.86L113.79 123.8L114.72 126.59L112.59 127.67L111.01 127.24L109.84 128.04L108.33 127.75L110.5 130.07L108.62 131.27L108.06 133.37L106.96 133.96L105.49 134.07L105 131.52L103.87 130.78L103.88 129.87L101.1 129.98L99.91 128.98L98.42 130.36L99.02 132.15L97.66 132.61L96.94 134.1L98.95 135.14L99.26 136.91L98.28 136.78L98.3 137.26L99.92 137.79L98.66 137.95L99.23 138.37L98.28 139.22L99.53 140.39L98.34 140.82L98.84 141.21L101.01 140.25L99.22 142.82L99.77 143.8L101.2 144.24L101.79 145.73L102.91 146.04L102.55 147.34L103.98 148.63L104.27 152.16L107.58 154.07L108.04 152.32L108.44 153.47L109.56 153.31L109.74 154.32L111.02 154.48L111.27 153.46L112.91 153.28L114.53 151.67L117.44 151.43L117.73 154.64L119.02 156.39L120.34 155.77L120.8 156.21L121.53 157.5L121.29 159.23L122.84 161.78L124.52 163.27L125.54 163.15L126.26 165.14L125.32 166.15L126.48 167.32L126.36 168.26L127.81 168.39L128.26 169.17L130.98 168.42L131.45 171.35L133.72 173.03L133.1 175.03L133.47 177.88L132.97 177.69L133 182.77L133.06 184.22L129.54 185.69L127.92 184.48L127.97 183L126.51 182.15L125.07 182.44L123.47 179.01L121.19 179.26L120.47 178.24L118.86 178.48L118.23 180.14L116.66 181.4L118.1 182.96L118.4 186.68L116.96 187.46L116.09 186.27L113.81 186.57L113.84 188.04L112.1 189.5L112.46 190.98L111.19 191.45L110.8 189.25L109.94 189.28L110.24 188.38L108.45 185.44L106.83 185.21L103.28 185L102.05 186.93L102.84 187.84L100.1 190.88L99.1 190.13L95.89 190.25L95.55 189.39L94.41 191.1L92.94 190.06L92.14 190.44L91.58 192.64L90.27 193.35L87.19 190.74L85.34 190.55L84.36 189.03L82.81 190.27L82.85 192.16L81.47 192.62L82.84 195.89L82.09 197.82L78.91 199.58L79.14 201.58L78.16 203.19L76.87 203.03L76.57 205.21L75.11 204.56L74.69 205.1V206.1L75.96 207.41L74.71 208.64L75.57 209.74L74.83 211.45L76.29 212.72L76.34 214.66L75.16 216.21L73.74 216.7L72.21 215.68L70.37 217.19L71.68 217.81L72.24 218.68L71.81 219.41L69.84 218.72L68.21 219.6L59.21 216.72L57.27 217.8L56.8 219.34L57.71 220.78L59.02 220.76L57.47 222.43L56.67 222.16L56.73 220.67L54.29 217.38L55.19 214.27L52.71 214.17L51.83 216.08L48.93 215.6L43.75 217.79L42.2 217.44L41.88 218.74L40.24 217.81L38.41 218.5L37.69 216.32L34.43 216.7L32.61 214.49L31.28 214.71L29.73 212.39L28.41 211.95L27.46 212.47L24.42 210.41L21.74 210.8L20.48 209.94L19.86 206.77L17.91 205.64L18.09 204.62L16.41 203.07L16.18 201.73L14.36 200.9L14.64 196.67L17.5 196.11L13.89 192.48L12.77 188.85L13.9 187.15L15.5 186.98L16.68 185.82L17.56 182.64L18.49 182.56L17.51 180.16L18.22 178.43L19.51 177.45L24.09 177.74L23.61 175.86L21.76 174.77L21.21 171.55L20.15 170.39L21.31 167.92L20.45 166.78L16.87 165.13L15.57 166.43L13.17 165.97L10.09 163.88L9.93 162.99L7.4 162L7.6 159.92L7.02 159.57L8.1 158.03L6.7 155.85L7.39 155.3L7.05 154.14L3.42 153.73L2.8 149.98L1.88 149.72L1 147.53L3.38 146.05L3.78 144.97L6.95 145.15L8.26 143.59L12.34 145.3L12.43 145.94L14.69 145.25L14.7 142.95L17.39 142.85L17.81 141.34L20.22 139.22L21.51 139.43L22.74 138.69L23.71 139.82L25.85 137.2L26.58 137.3L27.11 134.67L25.84 131.39L26.82 131.21L27.23 129.67L28.55 128.98L28.56 127.51L29.8 125.71L26.06 123.7L25.44 121.25L27.21 117.69L27.57 120.54L28.47 119.86L31.54 120.93L33.93 117.92L36.73 117.85L38.61 116.96L39.57 117.63L43.11 114.79L44.04 113.22L45.27 112.83L47.12 113.3L49.2 112.17L51.21 113.42L51.34 114.29L52.75 113.63L54.72 114.93L57.04 114.55L57.72 115.16L62.61 111.69L65.25 111.49L66.26 112.14L66.99 109.1L68.19 108.86L66.37 105.13L68.03 102.3L67.67 101.1L66.05 100.5L64.34 97.4L65.04 92.35L64.34 88.29L65.06 87.61L65.16 83.98L66.63 82.4L70.78 82.52L71.89 81.35L72.01 79.83L73.17 79L72.5 76.89L73.04 74.9L76.76 74.03L77.32 72.6L79.23 71.6L79.11 70.11L79.9 68.97L78.53 65.69L77.06 63.88L75.35 63.08L78.54 59.91L79.99 60.35L82.18 59.48L82.92 57.55L84.84 56.7L84.87 55.35L87.25 54.36L87.72 52.86L86.27 52.16L87.05 50.92L88.05 50.84L90.04 48.92L93.94 47.87Z" fill="#CCCCCC" stroke="white" stroke-width="0.5"/>
<path d="M482.429 369.91L486.279 370.66L491.189 374.4L490.519 375.94L491.779 378.33L491.699 379.93L491.309 381.9L489.949 383.26L485.219 386.42L484.929 387.5L476.539 392.75L476.689 398.44L479.189 403.17L482.649 405.68L492.019 410.02L494.999 412.36L503.099 415.41L511.529 420.5L521.459 423.66L523.119 425.09L524.919 425.14L525.369 425.89L526.309 425.48L526.559 426.21L530.749 428.03L537.599 430.27L547.239 436.58L550.869 441.01L552.869 441.92L557.429 446.21L569.239 450.95L575.439 455.25L581.049 455.92L582.169 457.77L581.679 458.62L585.269 458.74L584.939 459.83L586.499 461.76L585.959 463.8L588.209 466.58L590.589 468.75L596.469 472.03L605.849 482.09L607.849 486.55L607.619 488.31L609.169 491.93L610.589 492.8L610.079 493.28L610.669 494.93L608.949 496.51L608.459 498.89L606.469 500.27L605.029 503.44L604.149 508L604.179 514L603.069 515.56L601.859 515.88L598.029 512.92L592.929 511.85L586.499 506.62L583.779 501.88L584.989 501.38L584.809 499.43L582.729 498.31L584.239 497.2L584.649 494.7L580.039 488.97L580.369 487.06L579.349 484.87L576.829 482.78L567.759 481.45L558.979 482.13L555.829 479.85L553.129 479.56L544.449 474.54L543.329 474.57L543.629 473.66L545.549 472.82L545.769 471.34L544.419 469.7L542.129 469.81L541.549 468.19L538.699 467.12L534.879 467.69L531.379 469.59L527.809 472.75L525.679 476.26L524.899 474.4L523.149 472.93L522.789 471.31L521.019 470.24L519.319 470.68L518.459 469.73L519.419 467.65L518.259 466.77L518.699 465.96L517.739 464.95L518.169 462.06L518.799 461.6L517.879 459.54L518.779 455.93L517.559 454.52L518.579 454.01L515.659 451.79L515.129 452.54L513.959 451.84L513.789 450.85L512.789 451.49L511.099 450.76L510.989 452.5L510.139 451.17L509.169 451.43L509.239 453.32L507.199 450.85L503.709 454.89L502.179 454.47L501.409 452.73L494.839 446.69L491.899 440.23L489.899 439.58L487.769 441.54L486.179 440.03L480.589 437.65L479.989 436.52L481.499 436.79L483.299 434.74L482.989 433.19L483.629 432.15L481.789 430.65L481.179 431.07L480.569 428.72L479.309 428.42L479.069 427.4L477.329 427.1L475.029 425.45L473.609 426.3L472.799 426.01L472.979 426.77L471.309 427.2L471.459 428.15L469.779 429.07L468.319 428.01L465.809 428.91L461.159 428.13L459.219 428.51L457.869 429.74L458.199 430.97L454.599 429.17L453.029 429.31L450.929 427.51L449.229 428.8L446.399 427.61L445.299 428.51L443.289 427.07L442.559 425.18L440.989 424.41L441.809 422.42L443.829 421.22L442.979 418.84L444.589 417.82L443.329 416.39L441.709 416.71L440.669 415.23L437.249 415.37L437.039 413.2L434.069 412.14L433.449 409.52L434.289 408.35L435.349 408.17L434.809 406.97L435.629 406.19L435.449 405.39L432.599 404.59L430.789 401.75L428.799 399.45L427.239 398.78L427.959 393.2L427.039 392.39L428.289 390.87L431.529 392.37L432.849 389.96L434.939 389.05L434.969 388.22L435.739 388.99L436.419 387.49L438.479 386.47L436.619 385.63L435.619 384.13L436.359 383.61L435.369 382.39L436.329 380.8L435.509 377.87L437.639 374.81L437.429 371.54L447.859 372.18L449.109 373.2L452.299 373.32L462.229 371.47L465.599 372.42L469.729 372.21L482.429 369.91Z" fill="#CCCCCC" stroke="white" stroke-width="0.5"/>
<path d="M90.4602 560.47L91.0102 561.43L93.2701 560.78L95.3902 564.35L94.2502 569.97L92.6902 570.86L89.8902 565.51L89.3302 562.66L90.4602 560.47ZM87.2701 555.94L87.1402 561.4L85.5201 561.78L84.1702 560.83L84.2202 559.14L82.6802 558.23L85.1202 555.99L87.2701 555.94ZM160.27 440.11L160.82 440.62L158.33 442.21L157.8 441.8L160.56 439.53L160.27 440.11ZM83.1502 436.22L82.5901 436.79L82.5302 435.79L83.1502 436.22ZM87.9602 426.57L88.2302 427.7L89.4702 428.53L88.7402 429.27L88.5702 431.23L85.8401 429.96L83.6602 432.99L84.3202 432.8L85.1402 434.42L84.6702 435.79L82.3702 435.5L83.3602 433.03L82.7302 432.94L82.8902 431.82L84.3702 431.2L85.2402 429.6L86.2001 429.49L85.6602 427.54L87.9602 426.57ZM147 418.24L147.86 419.77L146.62 421.85L147.48 422.08L145.18 422.43L146.27 418.11L147 418.24ZM140.27 417.59L141.24 418.2L140.18 419.14L140.27 417.59ZM134.6 417.13L137.12 419.2L136.37 421.08L137.43 422.19L139.88 422.02L140.15 420.74L141.4 420.6L141.94 422.42L142.51 422.57L144.49 422.59L143.51 423.86L144.77 424.08L145.67 425.46L145.5 428.38L146.99 426.12L146.71 424.97L149.2 425.11L149.51 423.96L150.43 425.2L149.87 425.53L150.85 425.59L150.58 426.82L151.91 426.76L152.17 427.88L151.17 429.4L150.62 428.73L150.23 429.1L150.52 430.54L149.69 431.06L148.92 434.04L149.69 434L149.86 432.65L151.62 432.12L151.09 434.37L152.41 434.43L152.37 433.61L152.83 433.91L153.32 433.12L156.87 434.95L156.17 435.69L154 434.58L152.62 435.77L153.2 436.81L151.91 438.54L152.24 439.47L149.52 439.07L148.61 439.48L149.51 439.95L151.63 440L152.49 440.35L152.11 440.76L153.08 441.9L154.56 439.85L155.82 440.09L154.34 441.97L156.58 443.08L156.05 444.44L157.72 444.07L159.82 445.52L159.09 446.08L158.09 445.72L157.68 446.69L158.25 447.46L157.37 447.92L157.23 449.18L159.59 451.52L159.43 454.24L161.43 456.75L160.82 459.31L161.46 461.86L163.3 463.58L163.58 465.39L165.24 466.43L162.1 475.6L158.16 478.96L154.92 484.5V487.93L156.29 491.98L158.31 494.69L160.37 495.89L160.35 497.55L157.98 503.37L158.14 505.49L159.37 505.8L159.58 506.55L157.75 508.4L158.49 511.57L157.12 516.24L157.57 520.9L155.93 524.93L156.46 530.44L155.21 534.88L155.93 537.56L153.46 545.06L153.77 547.17L155.25 548.38L153.69 548.9L152.62 550.54L151.62 555.17L152.47 556.45L151.39 559.43H150.37L149.45 560.56L149.58 561.86L148.58 561.02V559.57L147.63 559.21L145.21 560.03L137.97 554.06L133.53 553.13L131.4 554.42L130.92 556.13L128.36 554.07L126.23 555.01L123.69 558.17L123.64 562.32L125.11 564.37L123.86 569.1L123.31 568.55L122.58 568.92L115.49 576.06L114.23 576.01L113.23 574.7L112.58 575.55L111.3 573.51L108.52 571.92L108.35 572.96L105.59 573.64L105.88 574.68L104.79 575.23L105.29 576.56L104.43 576.85L104.72 574.84L102.67 574.95L103.4 571.65L100.86 569.34L100.43 565.08L98.7701 564.12L95.8502 564.06L96.3102 562.21L95.6002 560.66L94.9602 560.06L93.8602 560.65L93.8202 557.74L90.3401 554.01L90.2402 553.03L93.2302 550.23L93.7602 548.85L92.9902 546.14L91.6102 545.65L91.4102 543.94L90.5901 543.26L92.5702 540.13L92.5201 538.95L91.0302 537.97L91.2402 536.97L94.6502 531.93L95.5602 528.25L94.4602 526.1L94.9002 524.08L94.2802 522.95L94.7902 521.35L94.2902 518.02L94.9702 517.18L96.7502 520.25L97.5302 520.19L97.8702 518.12L99.4902 515.36L99.8902 511.08L98.3702 508.31L95.9602 508.16L94.0502 510.12L91.8602 508.05L91.6102 503.56L92.6402 500.61L90.8202 499.55L92.1202 498.47L92.6202 499.17L94.7602 498.51L96.6002 496.55L96.6802 495.04L94.9102 490.12L96.2402 482.78L95.0602 480.52L93.0802 479.37L91.1301 479.26L90.9501 477.82L92.0901 474.46L90.6602 469.08L88.8502 468.44L86.9102 462.4L84.2001 462.94L84.0602 463.86L82.0201 463.91L82.0002 462.15L82.7502 461.63L81.6602 460.49L79.8502 463.34L79.2902 463.16L79.0002 460.17L81.0502 459.23L82.1301 456.05L80.5702 455.38L78.4102 452.92L80.1602 450.57L79.8801 448.63L81.2402 447.45L83.0802 442.39L80.6802 439.05L82.0802 436.65L83.8002 437.89L83.5502 440.75L87.6802 445.18L90.7302 445.79L93.0102 445.41L94.9501 446.83L100.39 446.03L107.22 440.51L112.23 439.77L116.37 435.06L116.26 433.75L119.34 431.9L123.45 426.32L125.1 425.43L125.75 426.16L128.34 425.66L128.95 424.27L130.63 424.2L131.45 423.28L130.69 421.37L131.36 419.19L130.07 418.97L130.22 418.03L131.27 418.74L132.71 417.97L132.77 418.89L134.6 417.13ZM144.28 416.47L145.74 418.83L145.31 419.98L142.35 420.44L141.9 419.18L143.38 418.06L143.25 416.96L143.94 417.7L144.28 416.47Z" fill="#CCCCCC" stroke="white" stroke-width="0.5"/>
<path d="M303.679 790.79L308.589 791.3L308.909 792.97L302.929 791.36L303.679 790.79ZM274.259 707.81L276.599 709.01L277.199 708.64L279.209 710.34L279.329 712.7L277.919 714.36L276.039 714.23L272.719 710.16L272.809 708.6L274.259 707.81ZM299.459 643.33L298.519 640.05L299.839 639.34L299.459 643.33ZM292.359 636.17L293.149 637.66L294.279 637.25L295.369 638.03L295.359 639.18L294.629 639.36L293.689 638.34L291.229 638.62L290.399 637.22L292.359 636.17ZM279.849 633.73L281.179 636.59L278.689 635.84L277.989 633.68L279.849 633.73ZM458.949 613.73L461.369 615.35L464.109 616.01L461.349 616.77L459.839 618.02L459.069 620.91L459.909 620.74L455.789 628.33L446.029 641.06L445.999 642.71L444.339 643.84L444.539 644.76L441.239 649.02L440.859 650.14L441.589 651.86L440.569 655.44L439.349 657L439.419 660.52L436.299 663.47L434.759 666.34L435.349 676.94L438.689 679.01L440.199 679.39L440.879 678.72L443.519 681.95L442.969 682.71L442.019 682.05L441.829 683.72L441.369 681.85L440.219 682.25L439.889 685.46L440.889 687.8L442.259 687.35L442.829 688.18L442.039 687.85L441.659 688.41L442.329 690.04L443.759 690.85L445.499 690.77L445.599 693.83L444.519 693.42L444.429 695.01L445.129 695.45L446.099 694.88L447.539 697.37L445.749 696.57L444.459 697.09L443.729 699.25L441.049 699.89L438.159 703.08L435.199 710.38L437.509 717.67L437.049 718.82L436.239 718.32L434.459 720.01L431.259 716.62L428.169 717.18L425.919 715.26L424.059 714.78L419.109 716.49L417.179 715.43L414.449 715.42L411.759 712.87L409.239 711.87L404.369 711.24L402.599 709.33L401.779 705.85L398.569 700.09L392.549 693.99L387.559 691.64L382.649 690.55L377.389 690.67L374.189 691.52L372.679 691.09L369.979 688.34L366.289 688.01L361.669 685.15L360.719 683.03L356.249 679.36L354.729 679.75L353.969 678.91L350.869 678.82L348.459 676.3L344.379 674.28L343.059 672.71L341.779 672.62L340.719 670.23L336.289 665.93L331.729 665.16L328.819 665.85L325.859 661.4L323.559 660.61L316.499 660.36L311.129 661.69L307.709 656.49L305.539 655.11L303.219 655.26L300.999 652.69L300.809 649.8L298.369 646.13L300.319 645.01L301.459 641.4L300.039 639.25L302.109 636.35L301.909 634.34L303.149 633.79L301.669 632.19L303.179 631.81L305.839 628.79L307.529 629.1L309.319 628.39L310.529 627.18L310.409 626.06L312.989 626.16L314.339 624.21L313.229 622.02L314.039 620.96L314.379 621.81L315.959 621.63L316.009 623.44L317.089 624.5L317.049 626.1L318.179 628.11L322.739 631.64L327.239 630.4L331.819 627.55L330.539 624.25L331.519 624.02L332.179 622.77L331.779 622.09L333.399 620.72L337.659 622.23L339.769 621.37L340.209 620.01L341.959 620.27L344.139 618.67L344.799 620.35L346.669 621.47L347.179 623.62L346.439 624.76L347.489 626.23L350.779 627.15L353.029 626.6L353.919 625.48L355.409 625.9L355.439 628.9L356.989 630.68L364.429 634.7L367.209 635.13L372.139 633.79L376.459 631.24L380.319 630.48L382.559 631.96L384.729 632.19L386.619 631.23L393.829 632.67L398.209 632.1L400.969 630.55L403.689 630.96L411.909 628.33L417.509 622.35L419.669 623.26L424.789 621.9L426.019 620.64L428.919 623.19L432.699 623.2L433.539 624.78L435.499 625.18L439.389 623.04L441.639 620.49L442.779 617.31L441.909 615.48L442.749 615.42L443.449 616.95L442.909 619.06L445.159 619.69L450.899 618.12L457.199 613.87L458.949 613.73ZM428.269 605.98L430.159 607.43L430.459 609.14L429.419 609.32L427.719 608.23L427.149 606.4L428.199 605.05L428.709 605.55L428.269 605.98ZM428.379 599.26L428.399 601.2L429.309 601.85L428.029 602.27L427.929 604.61L425.039 601.57L425.869 599.39L428.379 599.26ZM397.599 597.12L397.539 598.54L396.669 598.59L396.549 597.44L397.599 597.12ZM421.149 595.25L423.719 595.37L423.689 598.24L422.899 598.42L419.829 596.66L420.379 595.24L421.149 595.25ZM407.159 595.11L408.579 595.39L409.459 597.05L407.429 596.85L406.699 595.67L407.159 595.11ZM434.219 591.22L434.129 592.25L433.199 592.56L433.339 591.36L434.219 591.22ZM337.739 586.75L338.169 587.04L337.429 587.9L335.719 588.05L336.069 586.83L337.099 586.29L337.739 586.75ZM441.889 580.4L442.779 581.06L441.249 582.97L439.939 581.67L441.889 580.4Z" fill="#CCCCCC" stroke="white" stroke-width="0.5"/>
<path d="M190.13 342.23L190.99 344.03L190.23 344.76L189.22 344.59L189.06 342.44L190.13 342.23ZM219.46 339.48L221.43 341.51L221.21 344.53L219.24 342.09L218.42 341.96L219.46 339.48ZM178.15 323.6L179.23 325.71L178.58 327.19L176.36 326.21L177.79 325.54L178.15 323.6ZM195.48 306.33L196.81 307.73L196.04 309.86L196.36 312.53L193.84 313.89L196.29 315.59L195.74 317.47L193.27 316.67L192.35 313.94L191.58 313.57L190.36 313.81L190.43 315.48L189.53 313.88L188.7 315.54L186.47 314.55L186.25 316.2L183.53 315.46L181.88 315.72L182.07 316.25L180.26 315.14L179.23 313.39L179.33 311.81L181.17 310.4L184.02 310.33L186.56 311.88L186.73 311.09L187.8 310.81L187.44 310.24L188.09 309.77L187.48 308.93L191.11 309.8L190.35 310.77L192.25 311.11L194.92 306.1L195.48 306.33ZM165.4 292.58L166.09 294.56L164.26 296.98L163.34 295.65L163.85 293.35L165.08 292.05L165.4 292.58ZM288.49 240.55L288.57 240.71L288.87 241.81L286.69 242.94L285.32 241.35L285.59 240.23L288.36 240.25L288.49 240.55ZM157.74 200.9L161.34 198.81L164.75 193.45L170.1 192.86L172.54 193.73L173.04 194.97L174.09 195.19L173.55 197.82L174.68 199.08L178.96 202.02L181.4 201.51L187.03 207.47L189.41 206.28L191.6 207.51L193.2 207.54L196.15 210.58L197.82 210.29L199.04 210.96L198.99 212.34L200.73 213.94L200.97 215.49L204.39 218.54L206.06 218.12L205.99 216.78L206.99 215.55L212.56 215.68L217.53 219.71L219.81 220.22L220.49 221.13L220.17 222.08L220.83 222.38L225.69 216.92L226.09 217.83L225.48 218.87L227.03 220.02L229.79 220.34L233.13 218.89L236.22 219.78L238.76 219.62L238.51 218.54L235.58 216.84L235.69 215.9L239.68 215.76L241.96 213.69L242.16 212.62L244.65 212.36L247.11 209.97L248.44 211.18L248.78 213.33L250.18 213.71L251.91 215.68L253.12 215.94L254.15 214.94L256.75 215.47L256.95 216.51L255.5 218.61L258.16 218.97L263.63 217.87L263.29 220.56L261.26 222.75L260.83 224.74L259.15 225.38L259.35 226.47L258.68 226.38L258.43 227.53L260.6 229.61L260.27 231.24L262.09 232.46L261.82 235.52L265.4 237.52L267.4 239.93L272.07 240.14L272.59 241.44L273.94 241.62L274.15 242.59L275.79 243.64L276.85 243.22L278.31 244.12L279.23 243.87L280.34 245.14L282.06 244.24L283.48 244.4L284.92 243.6L286.47 245.91L287.3 243.94L289.34 244.32L290.98 243.43L291.15 243.56L293.3 244.42L295.59 247.5L293.49 247.52L293.79 249.7L292.87 249.64L292.26 245.92L291.82 249.04L290.59 249.7L289.13 249.42L289.33 250.23L288.39 251.28L286.08 252.11L287.53 254.34L285.05 257.47L284.28 260.06L282.09 259.88L281.54 260.44L281.37 262.2L283.98 263.68L283.88 264.24L281.75 265.14L280.74 266.84L279.65 266.5L277.94 268.24L278.27 269.24L280.41 269.02L280.52 271.68L281.95 271.14L282.6 271.74L283.61 274.03L283.02 275.74L283.42 276.64L285.65 277.48L286.55 275.25L288.09 276.51L281.42 280.69L279.22 279.46L278.4 279.83L278.9 281.16L277.91 283.89L272.73 286.94L272.24 288.26L273.12 290.7L272.79 291.92L273.58 293.49L274.42 292.44L275.69 293.8L273.27 303.65L274.36 304.4L274.51 306.21L273.23 306.29L271.28 308.63L268.8 308.49L267.18 309.56L266.67 311.57L265.97 310.25L264.77 309.78L263.61 312.22L267.39 315.18L266.35 317.54L265.12 317.53L265.53 320.15L266.58 320.63L266.66 321.71L265.26 322.63L263.89 322.44L262.98 324.58L261.69 324.33L260.19 325.44L259.99 326.52L258.25 327.4L257.44 327.17L256.77 328.06L255.63 327.01L255.01 327.34L255.46 329.1L254.09 331.04L256.88 332.95L256.97 336.38L250.17 336.46L248.32 340.61L239.95 338.66L238.78 337.71L236.05 338.43L236.18 339.91L235.19 340.39L234.96 341.61L233.14 341.76L231.78 340.06L230.16 339.55L229.72 336.97L230.7 335.74L231.55 336.61L233.79 336.42L234.8 334.36L235.11 331.24L233.38 327.67L231.62 328.03L230.64 325.15L229.54 324.08L229.75 323.1L225.61 321.33L224.68 317.61L222.47 315.32L218.04 313.54L214.65 313.14L211.57 311.12L213.41 309.99L213.55 306.34L214.44 305.05L213.78 303.58L211.99 302.24L208.79 300.75L205.93 300.44L202.2 301.02L201.81 302.79L199.5 302.01L198.91 298.07L200.6 297.27L201.72 291.06L201.06 279.94L199.89 277.04L197.73 274.78L195.9 269.33L194.82 269.23L193.67 266.07L191.05 264.09L189.43 259.76L189.75 257.4L187.89 249.68L188.49 248.8L188.24 244.79L186.4 236.06L181.36 228.37L177.24 224.72L175.08 223.68L177.31 221.14L177.58 219.76L175.21 218.29L173.43 219.79L173.92 218.56L172.98 217.17L172.79 214.81L168.86 214.95L170.1 212.97L170.85 212.91L169.38 211.89L167.3 213.64L167.73 210.91L166.92 210.21L166.83 207.64L164.24 206.58L160.21 203.45L159.2 200.87L157.74 200.9Z" fill="#CCCCCC" stroke="white" stroke-width="0.5"/>
<path d="M286.92 1.44L288.65 2.8L287.49 3.62L286.95 5.79L283.98 6.1L282.66 7.37L283.51 11.17L285.11 12.69L283.81 14.61L286.08 15.04L287.52 17.36L288.89 16.29L290.65 16.7L292.23 19.92L291.1 21.77L291.04 24.09L294.66 24.74L296.03 29L301.07 31.91L298.61 32.83L296.94 34.7L296.06 34.5L296.44 35.83L295.93 36.29L294.67 36.35L293.93 35.46L290.94 36.4L289.73 35.64L286.39 38.29L286.28 36.03L284.73 35.05L283.9 35.34L279.97 32.27L280.27 34.6L278.76 37.28L278.93 38.77L276.47 42.69L275.89 41.92L274.73 41.98L273.55 43.16L271.98 42.84L267.11 45.3L266.99 46.94L270.06 47.36L270.66 48.75L268.36 51.47L268.09 55.13L267.28 54.39L264.92 55.82L267.83 58.26L268.41 59.66L267.74 61.56L268.53 62.26L270.69 61.76L271.13 63.7L271.77 63.29L272.98 63.88L272.19 65.85L274.62 68.07L274.01 69.67L272.91 69.23L271.2 73.18L267.01 74.64L264.78 74.4L264.03 75.18L263.37 74.41L260.63 75.28L260.62 77.3L261.55 78.83L259.49 79.44L260.23 80.12L259.5 80.93L260.64 82.95L259.73 84.82L255.52 84.52L254.98 81.71L253.09 81.11L250.94 81.4L248.2 83.67L244.58 83.44L244.96 86.29L243.67 86.45L242.99 87.99L243.34 88.98L240.86 87.64L240.79 86.86L240.81 88.22L238.39 88.04L237.53 92.95L235.18 95.78L235.78 98.14L234.23 97.99L234.36 101.59L231.86 104.96L230.26 104.75L228.33 102.91L226.69 103.79L226.25 102.62L224.41 105.27L223.92 104.23L222.42 105.92L220.93 104.99L221.58 103.85L219.53 102.84L217.34 102.83L219.53 98.8L218.75 97.29L220.03 96.19L217.35 94.53L213.39 93.76L213 94.63L211.73 93.64L207.72 94.45L207.24 96.6L205.27 96.66L203.12 98L201.8 97.87L201.39 97L202.08 95.61L199.83 94.65L199.31 90.34L200.22 88.24L198.92 86.25L199.08 84.22L197.34 83.9L197.29 82.9L197.86 81.07L199.06 80.12L198.7 78.22L202.03 74.15L202.96 69.73L201.9 68.14L204.17 63.98L203.66 61.85L202.85 61.38L203.73 60.11L203.13 58.09L200.49 56.82L203.08 54.28L205.05 54.16L206.54 52.6L205.7 51.22L205.93 49.02L204.9 47.66L202.26 45.89L198.49 45.59L197.35 42.9L198.35 42.01L199.24 36.94L196.96 34.86L194.67 35.17L193.83 31.52L195.37 29.61L194.62 27.86L196.81 26.12L195.59 23.55L197.03 22.75L198.49 18.61L199.61 19.51L202.41 19.31L202.04 20.19L208.13 17.35L209.49 18.12L209.48 19.13L212.65 20.42L213.1 21.23L211.35 23.87L212.69 24.1L214.32 23.28L215.72 24.8L216.9 24.31L219.38 25.76L221.04 24.89L226.29 25.45L227.23 22.59L229.52 21.39L228.9 18.95L230.33 16.33L230.19 14.53L231.09 13.23L232.4 13.41L233.58 12.53L233.72 10.58L234.97 10.21L235.89 10.82L241.66 8.59L242.51 9.17L243.58 8.7L245.97 10.65L247.84 9.86L249.84 7.14L252.77 9.26L256.97 7.02L259.25 8.54L261.65 8.6L262.52 10.02L263.55 10.31L265.33 8.66L268.12 8.53L272.14 5.43L273.75 5.35L275.18 4.2L277.41 4.39L278.41 3.29L280.24 3.48L281.38 2.04L282.45 2.43L285.83 1L286.92 1.44Z" fill="#CCCCCC" stroke="white" stroke-width="0.5"/>
<path d="M298.511 255.71L297.991 255.13L297.801 255.07L298.041 254.39L298.701 254.7L298.801 255.23L298.511 255.71ZM287.481 254.23L288.191 255.4L291.281 255.36L291.631 255.92L293.711 254.24L295.591 254.12L295.081 254.9L295.561 256.34L292.641 259.04L294.001 260.46L295.431 259.73L296.701 261.46L298.121 259.37L299.111 259.5L299.941 260.92L300.861 260.97L301.151 260.11L302.061 260.53L308.421 267.82L310.551 266.53L312.781 267.35L314.101 264.66L316.181 265.22L315.811 267.23L316.711 268.07L314.911 269.76L314.961 270.6L317.231 273.56L317.611 276.47L316.991 277.17L318.871 278.51L319.541 281.93L320.931 282.62L320.791 285.52L319.171 287.07L319.841 288.61L321.911 289.03L322.481 290.74L322.241 293.51L322.991 295.62L322.121 296.28L323.061 298.23L322.501 299.72L325.191 301.33L325.391 302.2L326.501 302.33L326.621 306.37L327.831 305.01L327.851 303.3L329.151 304.07L330.551 302.68L333.561 304.98L336.061 308.92L338.731 308.31L339.981 306.49L341.391 310.11L341.141 311.93L340.221 313.83L339.841 313.06L337.921 313.84L337.671 315.84L336.921 320.3L335.591 321.58L333.971 320.94L333.921 321.72L331.121 323.44L329.061 322.36L328.351 323.89L325.101 323.85L324.311 324.82L322.301 323.83L321.721 325L322.341 327.55L320.251 328.22L318.401 329.85L316.351 329.75L316.181 331.08L313.121 331.96L314.491 334L311.501 335.97L310.301 336.02L309.411 334.17L308.221 334.25L308.001 338.13L303.671 341.49L302.801 340.49L302.851 338.81L299.211 339.34L300.181 337.92L297.891 337.13L297.911 335.07L298.591 334.84L297.851 334.16L298.101 332.3L296.631 332.14L294.631 333.76L293.401 332.5L291.531 332.72L292.221 332.26L290.701 331.46L291.451 330.79L290.411 329.94L290.621 327.99L288.951 327.21L288.401 322.74L286.731 320.68L285.111 320L283.731 321.19L283.061 320.98L282.941 321.73L281.931 320.66L278.251 321.97L274.111 319.41L272.821 317.3L274.671 316.26L275.681 314.28L272.901 312.49L271.281 308.61L273.231 306.27L274.511 306.19L274.361 304.38L273.271 303.63L275.691 293.78L274.421 292.42L273.581 293.47L272.801 291.9L273.131 290.68L272.251 288.25L272.741 286.93L277.921 283.88L278.921 281.15L278.421 279.83L279.251 279.47L281.451 280.7L288.121 276.52L286.581 275.26L285.681 277.49L283.451 276.65L283.061 275.75L283.651 274.04L282.641 271.75L281.991 271.15L280.571 271.69L280.461 269.03L278.321 269.25L277.991 268.25L279.701 266.51L280.791 266.85L281.801 265.15L283.931 264.25L284.031 263.69L281.421 262.21L281.591 260.45L282.141 259.89L284.331 260.07L285.101 257.48L287.481 254.23Z" fill="#CCCCCC" stroke="white" stroke-width="0.5"/>
<path d="M49.7587 83.1801L50.3387 84.3501L54.1587 83.8101L55.0687 85.2901L56.3887 85.8301L57.0287 87.7601L58.6287 86.6101L61.0987 88.2201L62.2687 87.5601L64.3387 88.2901L65.0387 92.3501L64.3387 97.4001L66.0488 100.5L67.6687 101.1L68.0287 102.3L66.3688 105.13L68.1888 108.86L66.9887 109.1L66.2588 112.14L65.2487 111.49L62.6087 111.69L57.7188 115.16L57.0387 114.55L54.7188 114.93L52.7487 113.63L51.3387 114.29L51.2087 113.42L49.1987 112.17L47.1187 113.3L45.2687 112.83L44.0387 113.22L43.1087 114.79L39.5687 117.63L38.6087 116.96L36.7287 117.85L33.9287 117.92L31.5387 120.93L28.4688 119.86L27.5687 120.54L27.2087 117.69L25.4388 121.25L22.7187 120.86L22.9887 119.23L20.1988 118.47L19.9687 113.41L19.0188 112.41L20.1888 108.62L18.4488 107.57L15.8488 107.75L15.3287 106.3L12.8787 105.38L10.3587 102.47L10.7287 101.27L9.96875 98.3201L10.9787 94.1801L12.1687 93.84L13.1587 94.4801L13.8888 93.2901L15.6788 93.9101L17.1687 93.4401L17.6988 92.4101L20.0087 91.6001L20.3287 89.5401L22.3887 87.8001L25.5487 92.6001L28.1188 91.0501L29.9787 92.5501L31.2188 90.4401L33.3487 90.3801L35.1787 87.9601L39.8988 89.8001L44.3487 87.0001L44.3088 86.0101L45.6587 84.9601L47.8787 85.3801L48.1787 83.2501L49.7587 83.1801Z" fill="#CCCCCC" stroke="white" stroke-width="0.5"/>
<path d="M304.59 158.18L303.24 158.95L304.18 157.9L303.28 157.53L304.88 157.35L304.59 158.18ZM302.95 156.08L304.14 156.98L301.77 157.51L302.39 155.76L302.95 156.08ZM302.58 32L305.42 33.95L310.96 33.39L313.03 34.13L313.92 35.22L313.73 37.02L314.7 38.68L314 40.95L314.88 42.11L312.33 42.17L308.87 44.35L308.75 45.29L309.98 46.09L310.38 47.83L308.56 47.05L307.52 47.84L305.67 47.05L304.1 48.3L303.69 47.87L302.21 49.91L301.93 51.66L299.93 53.42L300.25 54.81L299.65 54.54L299.83 55.14L298 56.07L297.67 58.09L295.76 57.82L294.72 58.66L294.76 60.65L292.96 62.54L295.08 65.39L297.16 65.38L297.42 66.96L299.26 66.86L299.56 68.99L301.98 70.94L301.53 74.52L298.63 76.48L296.86 79.29L297.78 80.09L298.49 82.69L298.51 86.16L299.94 86.2L300.99 87.71L302.47 87.72L303.73 92.25L305.12 93.51L304.91 94.71L306.91 95.76L307.59 94.16L308.83 94.82L308.95 95.72L310.07 96.24L310.12 97.86L314 94.27L314.67 94.95L316.65 92.85L317.78 93.69L317.35 94.69L317.98 95.42L318.53 94.38L320.7 93.3L321.34 93.37L320.94 94.47L322.19 95.61L323.71 94.67L324.2 95.76L325.75 95.26L325.3 93.85L325.89 93.61L326.47 95.19L326.43 95.5L326.83 95.87L326.66 96.69L327.48 97.04L326.39 97.68L328.42 99.61L327.93 99.87L328.58 101.17L328.23 102.34L329.2 101.63L329.77 104.3L330.56 104.5L330.19 105.3L331.2 106.11L331.03 107.43L332.01 107.31L331.89 107.92L332.96 108.52L332.4 109.29L327.48 109.63L327.57 108.88L326.66 108.53L326.18 109.89L323.18 110.28L322.23 111.57L315.97 115.48L300.05 122.89L298.52 124.86L296.85 124.02L294.93 126.6L293.49 129.41L293.39 130.49L294.22 130.88L293.14 131.28L291.58 137.77L292.94 138.19L291.86 139.26L292.43 141.78L293.71 143.23L293.42 148.53L294.86 149.75L296.44 152.85L295.93 152.51L295.13 153.46L296.04 154.02L296.9 153.39L296.66 154.5L297.17 154.64L297.72 154.33L297.28 152.57L297.77 152.6L302.07 157.97L301.41 162.44L300.34 163.42L300.38 166.27L298.78 165.72L299.12 162.86L298.1 162.42L297.18 162.8L296.43 164.52L297.3 165.61L296.92 167.68L297.7 168.34L298.35 167.89L298.41 168.61L297.09 168.48L296.98 169.92L294.57 168L293.97 165.82L291.98 165.31L291.34 164.36L291.01 161.47L291.64 160.23L290.81 159.15L289.73 159.16L288.27 160.45L286.12 160.28L285.31 159.23L283.83 160.2L281.54 157.12L274.84 156.05L272.64 156.83L266.37 156.75L263.45 158.11L262.71 160.33L259.52 161.23L257.51 163.13L256.27 163.25L255.56 163.01L255.13 161.39L253.03 159.98L247.33 160.36L247.17 158.87L246.94 157.84L238.96 153.56V151.1L237.54 151.95L234.41 150.79L235 149.17L234.59 148.16L235.86 147.14L232.86 146.02L231.93 147.7L230.57 146.97L230.33 148.24L229.13 148.02L226.81 146.07L227.77 144.19L226.9 143.64L225.29 143.96L225.67 142.25L224.88 141.03L222.01 139.73L222.11 138.43L220.29 137.95L220.18 137.27L217.54 136.68L216.42 134.33L214.46 132.41L212.05 134.42L211.54 133.43L210.05 133.05L210.73 131.14L209.74 129.65L211.04 128.68L210.08 127.93L211.04 125.36L208.58 124.23L207.88 125.04L207.05 124.86L207.46 122.88L206.33 111.13L217.42 94.63L220.1 96.29L218.82 97.39L219.59 98.91L217.41 102.94L219.59 102.95L221.64 103.97L220.99 105.1L222.48 106.03L223.97 104.34L224.46 105.39L226.31 102.73L226.75 103.9L228.39 103.02L230.32 104.86L231.92 105.07L234.42 101.7L234.29 98.1L235.84 98.25L235.24 95.88L237.59 93.05L238.46 88.15L240.88 88.33L240.86 86.97L240.93 87.75L243.41 89.09L243.06 88.11L243.74 86.57L245.03 86.41L244.66 83.57L248.28 83.8L251.02 81.54L253.17 81.25L255.06 81.85L255.6 84.66L259.81 84.96L260.72 83.09L259.58 81.07L260.31 80.27L259.58 79.59L261.64 78.99L260.71 77.45L260.72 75.43L263.46 74.56L264.13 75.33L264.87 74.56L267.11 74.8L271.29 73.34L273 69.39L274.1 69.83L274.7 68.23L272.28 66.01L273.07 64.04L271.86 63.46L271.22 63.87L270.78 61.93L268.62 62.43L267.83 61.73L268.51 59.84L267.93 58.43L265.01 56L267.37 54.56L268.18 55.3L268.45 51.64L270.75 48.93L270.16 47.54L267.08 47.12L267.2 45.47L272.07 43.01L273.64 43.34L274.81 42.16L275.97 42.09L276.55 42.86L279.02 38.94L278.85 37.46L280.37 34.77L280.06 32.44L284 35.52L284.83 35.23L286.38 36.21L286.49 38.47L289.83 35.82L291.04 36.58L294.02 35.64L294.77 36.53L296.03 36.47L296.54 36.01L296.16 34.69L297.03 34.89L298.7 33.01L301.17 32.09L302.58 32Z" fill="#CCCCCC" stroke="white" stroke-width="0.5"/>
</svg>
