<svg width="439" height="517" viewBox="0 0 439 517" fill="none" xmlns="http://www.w3.org/2000/svg">
<path d="M260.92 278.6L260.75 278.25L261.25 276.48L260.39 275.08L260.5 273.62L260.96 272.25L260.71 271.93L259.82 272.29L258.68 271.94L257.71 270.37L257.39 269.16L257.61 266.97L259.3 264L260.58 264.15L262.24 263.65L263.72 262.52L263.7 263.09L264.88 263.96L264.85 264.61L265.35 264.82L265.26 265.3L265.53 265.62L265.85 265.77L266.15 265.56L267.09 265.95L267.61 266.66L268.46 266.49L269.38 265.76L270.01 265.75L270.76 266.22L270.69 266.46L271.53 266.51L271.51 266.82L272.5 267.32L274.22 265.92L275.02 265.84L274.7 266.67L275.34 267.48L275.33 267.99L276.59 267.73L277.44 267.18L279 267.48L279.22 267.87L280.06 267.6L279.75 268.58L280.27 269.08L279.69 269.65L279.77 270.12L279.31 270.36L277.85 272.36L277.82 273.42L276.54 275.35L273.79 276.88L273.36 278.11L273.52 280.43L270.11 281.22L266.68 282.45L264.65 282.72L264.39 282.51L265.19 280.8L265.68 280.85L265.93 281.42L268.29 280.4L269.15 279.87L269.05 279.43L269.5 279.07L269.98 279.22L270.2 279.03L270.41 277.89L269.84 277.19L268.15 276.88L267.63 277.34L267.39 278.27L266.58 277.7L264.45 277.95L263.03 276.58L263.34 275.5L262.9 275.31L262.48 275.9L262.21 278.12L263.23 279.05L263.38 279.93L261.69 279.33L260.92 278.6Z" fill="#CCCCCC" stroke="white" stroke-width="0.5"/>
<path d="M324.17 156.13L323.48 153.38L322.09 151.76L322.6 150.95L323.34 151.18L323.94 152.07L324.13 150.93L323.87 150.52L324.27 149.91L324.46 148.51L324.12 147.1L323.05 146.66L322.6 147.09L322.06 147.9L321.45 149.96L321.99 150.38L321.91 151.64L321.16 151.35L320.27 151.5L320.08 151.75L320.25 152.6L318.15 152.51L317.19 150.67L316.97 149.37L317.11 148.64L319.04 149.96L319.71 149.75L321.19 148.29L322.06 146.72L322.86 144.33L323.46 141.33L323.49 139.66L321.77 137.85L322.28 137.74L323.41 138.09L323.67 137.22L324.44 136.87L324.98 137.19L325.19 137.68L326.67 137.55L327.48 137.83L328.83 137.45L329.69 137.63L330.19 136.63L331.5 136.52L331.77 137.36H332.57L333.72 138.55L334.72 137.71L335.97 138.55L336.76 137.92L337.52 137.87L338.24 137.25L338.95 137.35L339.19 136.27L340.42 135.78L340.26 138.13L342.39 137.9L342.67 139.74L342.26 140.01L341.76 141.23L341.9 142.54L341.5 143.11L340.89 143.33L340.08 144.44L340.48 144.93L340.33 146.49L339.81 146.95L339.76 149.63L340.38 152.13L339.82 152.31L339.33 151.83L338.51 152.28L338.58 153.34L339.7 154L338.88 155.47L338.49 155.61L339.15 156.78L339.28 157.86L338.77 159.05L338.5 159.02L337.89 159.88L337.47 159.99L337.68 160.71L337.25 162.05L336.47 162.9L336.52 163.71L336.07 163.83L336.02 164.48L336.41 164.57L337.01 165.82L336.86 166.74L337.39 167.49L338.51 168.26L338.18 169.32L339.03 169.76L338.43 170.06L337.96 170.89L338.23 171.11L337.95 172.08L338.92 172.46L339.06 172.86L338.27 174.23L338.35 175.38L337.64 175.55L336 177.12L334.24 177.48L333.97 177.3L333.73 176.85L332.21 176.32L331.63 174.52L330.57 174.44L330.22 173.67L329.14 173.94L326.06 173L325.27 172.3L324.56 172.12L324.36 170.95L323.38 171.19L323.01 171.65L320.5 171.24L321.18 169.77L320.95 168.84L321.34 168.06L321.3 167.53L321.69 166.92L322.39 166.81L323.33 164.42L324.13 160.23L324.17 156.13Z" fill="#CCCCCC" stroke="white" stroke-width="0.5"/>
<path d="M345.3 126.37L346.22 125.54L346.8 124.49L347.37 122.64L347.6 120.19L348.19 119.05L347.47 116.99L346.61 115.95L345.82 115.87L344.97 117.48L343.84 118.29L342.32 117.87L341.65 118.52L339.84 118.86L338.99 119.73L338.06 119.26L338.75 114.67L339.17 114.01L339.48 112.17L340.91 110.14L340.69 109.32L340.99 108.77L342.71 110.34L344.03 110.45L344.92 110.95L346.49 112.92L347.95 113.77L348.84 113.88L349.84 113.51L351.88 111.84L350.39 118.69L350.29 123.78L350.84 129.33L352.21 134.19L353.39 135.28L354.06 134.89L354.29 135.44L356.2 137.33L355.73 137.87L354.34 138.49L354.23 139.32L353.34 140.01L352.1 139.24L351.42 139.33L349.7 140.43L349.02 139.35L347.06 140.84L345.54 141.22L344.8 141.72L344.76 142.44L344.3 142.46L343.3 143.24L342.36 143.23L341.9 142.55L341.76 141.24L342.26 140.02L342.67 139.75L342.39 137.91L340.26 138.14L340.42 135.79L339.19 136.28L338.95 137.36L338.24 137.26L337.52 137.88L336.76 137.93L335.97 138.56L334.72 137.72L333.72 138.56L332.57 137.37H331.77L331.5 136.53L330.19 136.64L329.69 137.64L328.83 137.46L327.48 137.84L326.67 137.56L325.19 137.69L324.98 137.2L324.44 136.88L323.67 137.23L323.41 138.1L322.28 137.75L321.77 137.86L322.03 136.08L321.84 134.64L321.39 133.78L320.43 133.83L320.28 133.01L322.06 131.59L323.08 129.79L323.73 129.35L324.34 129.1L325.57 129.79L327 128.72L327.81 128.62L328.23 128.01L329.25 124.4L329.32 120.6L328.63 119.85L327.93 119.77L328.1 119.38L328.98 119.61L329.36 119.18L329.76 116.23L330.85 116.92L331.52 117.91L332.16 118.27L332.83 118.08L333.83 117.07L334.92 117.45L335.57 118.17L335.46 120.44L335.85 122.96L336.58 126.24L337.51 127.43L338.84 127.32L340.03 126.04L340.25 125.48L340.03 124.24L340.36 122.79L341.85 123.33L342.53 124.29L342.35 124.84L343.08 124.83L344 125.28L344.53 126.16L345.3 126.37Z" fill="#CCCCCC" stroke="white" stroke-width="0.5"/>
<path d="M319.83 263.84L319.97 263.63L320.93 264.05L321.32 263.58L321.02 262.86L321.11 262.28L322.46 261.9L322.34 261.39L322.62 261.26L322.86 261.64L324.37 259.48L324.94 259.93L325.17 259.58L324.63 258.29L323.87 257.46L322.66 256.27L321.97 256.56L321.62 255.8L320.54 253.54L320.88 253.28L321.1 251.95L319.42 248.73L319.37 247.69L318.66 246.28L319.08 246.31L319.41 247.15L321.04 249.16L321.76 249.4L321.96 250.11L323 250.81L325.46 251.67L326.04 252.39L327.06 251.98L327.92 252.09L328.51 251.69L329.31 251.92L330.17 251.1L332.18 250.58L333.26 251.1L334.17 251.06L335.3 252.03L336.53 252.29L337.64 253.82L340.14 255.36L340.03 256.01L339.27 255.5L337.77 256L336.97 255.78L336.22 255.97L333.5 258.04L332.11 259.61L330.99 261.77L330.7 264.09L331.17 265.32L330.56 268.17L329.89 268.31L329.42 269.33L329.14 269.43L326.99 270.05L326.76 269.61L325.48 269.8L324.67 270.9L322.7 272.26L322.19 273.47L322.29 274.05L321.84 274.66L320.8 275.09L319.63 274.88L319.44 274.16L318.13 273.49L318.16 273.2L318.96 273.31L320.21 272.75L319.43 271.09L319.89 270.59L319.53 270.23L319.82 269.53L319.41 268.96L319.42 268.13L320.34 267.42L320.42 266.9L319.98 266.15L320.04 265.76L319.29 265.3L319.83 263.84Z" fill="#CCCCCC" stroke="white" stroke-width="0.5"/>
<path d="M174.75 313.49L174.98 313.06L175.33 312.8L175.68 312.84L175.7 312.64L175.41 312.51L175.03 312.35L174.56 312.51L174.28 312.74L173.84 312.49L173.64 312.87L173.24 312.74L173.1 312.51H172.64L172.77 312.06L172.94 311.93L173.08 311.83L173.39 311.71L173.36 311.54L173.32 311.29L173.02 311.32L172.8 310.95L173.15 310.66L173.08 310.3L172.81 310.23L173.16 309.91L173.32 309.87L173.54 309.6L173.63 309.14L173.4 309.27L173 309.22L173.17 308.81L172.66 308.91L172.33 308.55L172.1 308.61L171.75 308.9L170.89 309.5L170.37 309.64L170.04 310.01L168.94 310.34L168.37 310.87L168.21 311.18L167.9 311.46L167.39 311.52L167.36 311.28L167.71 311.06L167.72 310.89L167.21 310.91L166.36 311.62L165.85 311.93L165.6 311.94L167.75 310.13L168.26 309.83L168.92 309.47L169.49 309.55L169.8 309.22L170.11 309.08L170.57 309.04L170.81 308.9L170.91 308.72L172.07 308.2L172.93 307.56L173.68 307.16L173.89 306.66L174.72 305.67L175.35 305.21L176.9 304.65L178.12 303.74L178.33 303.5L178.7 302.52L179.15 302.12L178.92 301.4L178.91 300.41L179.11 299.37L179.35 298.71L179.78 298.88L180.21 298.59L180.55 297.37L180.62 296.75L182.39 295.08L183.5 294.91L183.44 294.46L183.7 294.29L183.55 293.73L183.91 293.13L184.66 294L185.64 295.41L186.36 296.89L186.74 297.49L186.87 297.92L187.37 298.28L188.32 297.96L189.7 297.62L190.07 297.52L189.95 297.06L191.15 296.86L191.39 296.6L191.77 296.65L192.14 296.98L192.84 296.68L193.52 296.78L194 296.88L194.73 297.21L195.23 297.14L195.92 296.64L196.12 296.3L196.26 295.86L196.42 295.78L196.82 295.51L197.15 295.78L198.1 295.91L198.71 296.25L198.42 296.93L198.69 297.42V298.46L198.47 299.07L198.13 299.36L197.72 299.37L197.07 299.36L196.6 299.69L196.09 299.35L195.88 299.39L195.32 300.16L195.11 300.43L194.91 300.59L192.84 300.66L192.04 300.53L190.57 300.55L190.37 300.72L190.15 301.45L189.97 301.56L189.45 301.75L189.11 301.41L188.91 301.43L188.65 302.12L188.26 302.91L187.86 303.31L187.51 303.81L187.45 304.36L187.23 304.64L186.62 304.74L186.44 305.39L186.19 306.12L186 306.58L186.29 306.87L186.33 307.39L185.97 307.66L185.4 308.54L185.39 308.81L184.19 309.15L183.98 309.02L183.32 309.1L182.02 308.89L181.61 309L181.29 309.3L181.64 309.62L181.79 310.56L181.94 310.76H182.14L182.37 311.48L182.82 311.62L183.09 311.98L183.13 312.55L183.05 312.77L182.25 313.23L181.04 313.65L180.73 314.17L180.55 315.31L180.12 315.34L179.95 315.49L179.81 315.96L179.1 316.86L178.91 316.93L177.96 316.01L177.85 315.74L177.65 315.81L177.51 316.1L177.8 316.72L177.77 316.98L178.24 317.49L178.45 317.54L178.54 317.84L178.34 318.76L178.64 319.07L178.85 320.01L178.84 321.34L178.43 321.44L178.38 321.82L178.06 321.7L177.12 322.05L176.98 321.78L176.73 321.44L176.64 321.26L176.18 321.42L175.99 321.51L175.73 321.57L175.71 321.86L175.73 321.99L175.54 322.25L175.19 322.22L174.92 322.23L174.67 322.19L174.75 321.82L174.43 321.44L174.53 321.32L174.89 321.28L175.24 321.02L174.61 320.68L174.89 320.45L175.13 320.59L175.28 320.63L175.42 320.53L175.21 320.14L175.31 319.88L175.01 319.74L174.89 319.7L174.88 318.87L174.6 318.83L174.25 319.16L173.83 318.92L173.45 319.09L173.32 319.17L173.23 319.38L173.18 319.67L172.82 319.49L173.15 319.09L173.17 318.71L173.32 318.36L173.54 318.31L173.74 318.42L173.88 318.76L174.21 318.7L174.78 318.48L174.91 318.21L174.61 318.09L174.82 317.7L175.2 317.1L175.18 316.77L174.79 316.68L174.64 316.69L174.42 316.77L174.27 316.9L174.05 316.76L174.1 316.51L173.74 316.34L173.89 316.01L174.18 315.66L173.66 315.1L174.17 315.3L174.86 315.64L175.15 315.97L175.5 315.99L175.42 315.62L175.22 315.21L175.53 314.94L176.09 314.98L176.32 314.95L176.41 314.79L176.27 314.45L175.99 314.49L175.61 314.15L176 313.94L176.04 313.63L175.24 313.68L174.75 313.49Z" fill="#CCCCCC" stroke="white" stroke-width="0.5"/>
<path d="M238.94 258.91L240.1 259.63L240.17 260.01L240.48 259.97L240.9 259.71L240.25 258.9L240.45 258.77L240.99 259.13L241.36 258.48L240.78 258.03L240.53 257.19L241.12 257.34L241.55 258.03L242.31 257.63L242.46 257.98L243.68 257.62L243.91 257.19L243.66 256.87L243.72 255.92L243.29 255.24L244.53 254.25L244.92 254.85L244.69 256.28L245.05 256.82L245.65 256.71L246.13 255.19L246.15 253.91L245.58 252.78L244.06 251.26L244.14 250.16L243.35 248.97L244.41 247.7L244.76 246.21L246.86 243.12L246.62 242.46H247.47L249 241.37L250.68 242.96L250.93 244.21L251.34 244.59L252.24 244.46L252.89 245.22L253.36 245.27L255.11 244.85L256.97 246.31L257.21 246.93L259.1 246.45L259.31 246.94L258.82 247.31L258.57 248.7L259.07 249.07L259.02 249.6L259.81 249.88L259.68 250.37L260.32 250.9L260.62 252.12L259.99 252.58L259.82 253.36L258.48 253.34L257.35 253.83L256.93 253.31L256.47 253.76L255.95 253.59L255.46 254.03L254.64 253.82L254.08 254.59L253.78 254.08L252.72 254.1L251.55 253.68L250.65 254.16L250.64 255.13L249.65 256.77L247.84 255.83L247.17 255.96L246.86 256.63L247.69 258.39L247.56 259.14L246.46 258.82L246.11 259.89L244.82 260.02L244.37 260.89L243.91 260.99L243.14 260.22L242.1 262.99L241.53 263.27L241.18 262.87L240.52 262.86L240.47 263.36L240.1 263.46L239.65 264.2L238.28 264.46L236.77 263.87L235.04 263.68L234.91 262.81L233.6 261.6L233.89 260.6L233.37 260.18L233.78 259.28L234.66 259.45L234.45 260.54L234.63 260.79L237.21 261.18L238.99 260.8L239.26 259.92L238.61 260.19L238.58 259.69L238.01 259.58L238.53 258.99L238.94 258.91Z" fill="#CCCCCC" stroke="white" stroke-width="0.5"/>
<path d="M133.82 303.8L135.06 302.45L135.2 301.85L135.08 301.49L134.75 301.5L134.69 300.82L135.25 300.77L135.5 299.96L136.35 299.44L136.27 299.05L137.05 299.02L137.3 299.32L138.34 299.21L139.02 298.81L139.73 297.87L140.83 298.32L141.28 297.98L143.07 298.37L143.5 298.95L144.24 298.67L144.56 297.9L145.72 297.14L146.12 297.45L145.4 298.8L145.57 299.76L144.78 300.46L145 300.92L145.66 300.79L146.21 303.32L147.61 305.42L148.17 305.14L149.25 305.9L149.1 306.27L149.4 307.07L149.01 307.59L149.14 308.05L147.23 308.16L146.26 307.89L145.33 308.12L143.72 309.5L143.42 311.15L142.93 311.28L142.46 311.97L142.76 312.13L143.05 313.08L142.91 313.72L142.39 313.98L142.27 314.36L142.63 314.55L142.6 315.17L143.44 315.9L142.96 317.28L142.61 317.53L141.08 317.01L140.41 316.4L139.6 316.44L139.44 316.04L138.91 317.48L137.41 317.31L135.79 318.8L135.97 319.87L133.83 319.79L134.31 318.69L133.99 317.89L133.25 317.11L133.28 316.7L132.91 316.51L133.08 315.28L133.67 314.24L135.52 312.82L136.03 311.96L136.54 311.99L136.56 309.74L136.15 309.53L135.41 309.78L134.42 310.73L133.8 310.02L133.03 309.85L131.33 308.78L130.85 309L129.99 308.76L129.3 309.08L126.67 309L126.82 308.32L128.43 308L128.97 307.36L129.16 306.81L128.74 307.11L128.59 306.66L128.32 306.5L127.87 306.74L127.65 306.34L128.84 305.99L129.13 305.61L129.01 305.23L129.86 304.93L130.01 304.32L130.6 304.72L130.35 305.09L130.53 305.51L131.35 305.65L131.46 306.35L131.94 306.27L132.1 305.93L132.76 306L133.8 305.51L133.92 304.67L134.49 304.44L134.41 303.84L133.82 303.8Z" fill="#CCCCCC" stroke="white" stroke-width="0.5"/>
<path d="M342.09 224.47L341.47 225.28L338.98 226.47L338.59 227.13L338.63 227.61L335.2 226.57L334.63 225.54L334.29 226L334.75 227.3L333.63 227.79L332.17 229.19L331.74 228.62L330.6 228.2L330.27 227.04L329.45 226.79L328.69 225.77L328.14 225.74L327.81 225.41L327.97 223.55L327.12 223.6L326.89 222.66L325.87 221.68L323.48 220.68L321.07 220.4L319.71 220.99L319.53 221.9L316.74 222.77L316.48 223.19L315.69 223.38L315.46 223.82L314.83 223.91L313.91 224.65L312.55 224.89L311.84 225.91L310.9 226.34L308.6 225.62L308.08 225.82L308.07 225.45L308.31 225.03L308.2 223.69L308.42 222.91L308 221.52L308.35 220.24L307.88 219.31L307.2 219.15L306.61 218.35L307.58 216.95L307.78 215.79L307.92 214.6L307.25 214.04L307.82 213.12L309.97 212.88L310.52 212.59L311.2 212.83L311.52 211.64L311.93 211.48L312.4 211.44L312.79 211.76L313.16 211.52L314.42 211.74L314.9 211.51L314.52 210.69L314.61 209.88L314.19 208.85L314.22 208.12L315.75 207.08L315.62 206.84L316.33 205.54L317.91 203.83L318.7 203.65L319.33 204.33L320.27 203.75L320.88 204.14L321.51 204.07L321.84 203.72L322.81 205.4L324.04 204.94L325.51 206.06L326.25 205.5L327.55 205.76L328.88 204.15L328.33 203.74L328.29 201.73L328.59 200.02L329.98 200.68L331.11 200.11L332.25 200.8L332.62 201.89L335.27 201.62L336.09 201.9L336.65 202.36L336.47 203.5L336.75 204.25L337.38 204.75L338.59 205.02L338.74 204.86L338.27 204.47L339.85 204.53L339.98 204.31L339.95 202.14L340.67 201.87L341.36 202.05L341.74 203.33L342.45 203.76L342.5 205.04L342.94 205.79L343.49 211.82V215.13L342.09 224.47ZM338.66 227.63L338.69 227.64L338.66 227.63Z" fill="#CCCCCC" stroke="white" stroke-width="0.5"/>
<path d="M252.41 267.48L251.69 266.79L252.01 266.58L252.03 265.65L252.35 265.13L252.39 263.79L252.94 263.35L252.41 262.5L252.5 261.5L251.87 260.86L252.11 259.97L251.56 259.26L251.25 259.76L250.47 259.47L250.59 257.87L249.93 257.8L249.67 256.73L250.65 255.09L250.66 254.12L251.56 253.64L252.73 254.06L253.79 254.05L254.09 254.56L254.65 253.79L255.47 254.01L255.95 253.57L256.47 253.74L256.93 253.3L257.34 253.82L258.47 253.33L259.82 253.35L259.99 252.57L260.61 252.11L260.31 250.89L259.67 250.37L259.79 249.88L259 249.6L259.05 249.07L258.56 248.7L258.8 247.31L259.3 246.94L259.09 246.45L259.59 245.36L259.36 244.62L259.97 244.39L260.91 242.72L260.87 242.33L260.11 241.9L259.86 241.32L260.44 241.24L260.73 240.18L261.5 239.62L261.75 240.21L262.1 239.85L263.02 240.36L263.36 241.13L263.1 241.86L263.44 241.94L264.83 240.72L265.08 239.57L267.16 237.55L267.71 237.53L267.96 237.97L269.42 237.28L270.01 237.33L270.05 238.21L270.26 238.25L271.61 237.45L271.89 238.23L273.02 238.58L273.73 238.24L274.57 239.06L275.51 239.13L275.64 239.64L276.67 240.3L276.76 240.83L276.67 241.61L275.28 243.42L275.66 243.97L275.61 244.49L274.86 245.2L274.85 246.01L275.31 246.51L276.03 246.76L275.64 248.33L274.64 249.09L274.27 250.01L273.83 250.11L273.31 251.17L272.89 251.24L272.56 250.91L271.41 251.26L271.06 252.32L270.47 252.57L270.36 253.11L270.65 253.5L271.69 253.51L271.74 254.02L272.97 254.39L273.77 256.18L274.55 256.88L274.12 258.16L274.51 258.61L274.44 259.71L274.75 260.26L275.82 259.94L276.39 260.48V261.39L275.74 262.09L276.45 263.07L275.58 263.36L275.84 264.63L275 265.28L275.01 265.81L274.21 265.89L272.49 267.29L271.5 266.8L271.52 266.48L270.68 266.44L270.75 266.2L270 265.72L269.37 265.74L268.45 266.47L267.6 266.64L267.08 265.93L266.14 265.54L265.84 265.75L265.52 265.6L265.25 265.28L265.34 264.79L264.85 264.59L264.88 263.94L263.7 263.07L263.72 262.51L262.23 263.63L260.57 264.13L259.3 263.98L257.61 266.96L257.39 269.15L256.31 269.03L254.62 266.53L252.41 267.48Z" fill="#CCCCCC" stroke="white" stroke-width="0.5"/>
<path d="M316.35 243.25L316.04 243.83L315.55 244.01L315.03 243.53L312.49 244.01L310.68 242.67L309.82 242.88L308.85 242.59L308.25 242.74L306.56 241.88L305.86 241.83L304.63 243.8L304.61 244.73L304.19 245.49L302.66 245.56L302.2 246.34L300.68 246.74L299.76 247.75L298.53 247.77L297.78 248.78L297.42 248.87L297.06 248.35L296.45 248.16L296.07 246.39L296.4 246.04L296.12 245.37L295.47 245.29L295.03 244.53L295.19 244.36L295.65 244.69L296.1 244.21L296.13 243.4L295.71 242.96L295.48 241.85L296.51 241.17L296.58 239.69L296.29 238.54L295.46 238.29L294.76 238.39L294.32 238.79L293.44 238.54L293.23 238.85L292.8 238.78L291.55 238.04L291.49 236.74L292.09 235.08L292.07 234.09L293.03 232.91L293.99 232.75L294 231.66L295.79 231.3L297.34 230.47L297.59 230.64L297.95 230.01L299.15 230.45L299.94 229.78L299.84 228.78L300.48 228.81L301.97 228.19L301.72 227.75L302.01 226.8L302.86 226.91L302.95 226.65L302.68 224.72L304.32 224.44L305.14 223.71L305.26 222.76L306.8 224.31L306.91 225.07L307.83 225.14L308.06 225.48L308.07 225.85L308.59 225.65L310.89 226.36L310.31 227.9L311.33 228.34L310.31 229.75L310.59 230.92L310 231.81L309.82 233.18L311.29 233.92L312.52 233.85L312.86 234.53L312.04 235.18L311.64 236.38L311.97 237.14L310.78 238.69L310.6 239.65L311.65 240.43L311.61 241.01L312.72 241.98L313.73 241.69L314.44 242.12L315.55 241.94L315.93 242.18L315.84 242.46L316.35 243.25Z" fill="#CCCCCC" stroke="white" stroke-width="0.5"/>
<path d="M213.9 278.27L212.81 279.17L211.6 278.95L211.06 277.58L209.98 276.62L209.8 276.15L210.5 274.84L209.82 273.99L210.17 273.67L210.32 272.76L210.12 272.17L211.04 271.63L211.1 270.7L211.69 270.45L211.93 269.35L212.17 269.09L212.84 269.16L212.92 268.38L212.29 267.72L212.73 266.92L213.31 267.18L214.95 266.03L214.69 264.87L214.84 264.44L214.11 263.48L214.2 262.4L213.47 262.06L212.98 260.18L213.1 259.16L212.72 258.39L212.03 257.87L214.16 257.21L215.38 256.47L216.58 256.78L217 257.25L217.82 256.58L219.2 256.78L220.48 256.49L220.93 256.82L221.91 256.76L221.93 258.78L222.79 259.58L223 260.19L223.72 260.37L225.05 259.71L225.37 260.25V262.88L224.46 263.4L223.32 262.85L222.95 263.85L222.97 265.12L224.46 265.73L225.78 266.86L226.54 266.4L227.56 266.42L227.58 267.2L228.44 268.02L228.19 268.57L228.74 268.81L229.17 268.45L229.98 268.49L230.2 268.55L230.24 269.28L231.09 269.1L232.06 269.59L232.35 270.85L231.97 271.06L231.8 271.6L231.37 271.55L231.08 271.86L231.48 272.1L231.56 273.07L231.32 273.43L232.72 274.24L233.68 274.38L232.77 274.89L233.2 275.14L232.73 277.18L233.47 278.42L233.62 279.85L233.08 281.06L232.64 280.73L232.78 280.26L232.53 279.74L231.61 280.06L231.19 279.46L230.22 279.33L228.24 280.27L228.14 280.95L225.56 281.59L221.29 279.87L219.62 278.22L213.9 278.27ZM223.3 289.35L223.52 290.12L221.46 290.96L220.48 291.78L219.14 291.97L219.13 291.52L218.54 291.21L218.6 290.71L218.17 290.55L217.63 289.54L218.3 288.58L218.68 288.82L219.15 288.58L220.48 285.76L220.88 285.3L221.29 285.31L222.24 283.81L223.19 283.38L223.96 282.26L224.51 281.97L224.95 282.8L224.35 283.52L224.2 284.29L222.42 286.62L222.41 288.16L223.3 289.35Z" fill="#CCCCCC" stroke="white" stroke-width="0.5"/>
<path d="M330.69 72.29L333.4 70.16L333.44 69.57L331.48 66.4L330.1 65.41L329.4 64.25L330.08 61.71L329.81 61.23L331.45 61.34L332.05 60.92L332.26 60.38L332.79 60.17L335.54 62.83L337.47 63.7L338.6 64.98L341.08 64.51L341.25 64.09L342.27 63.77L342.99 63.79L342.85 64.96L345.89 66.35L348.09 65.13L350.06 62.98L351.05 61.38L351.15 59.03L349.77 56.27L350.31 54.33L349.65 52.89L349.2 50.62L350.22 48.52L351.69 47.63L352.45 47.58L354.48 46.26L355.41 44.37L355.82 42.42L355.47 34.56L355.97 34.24L357.61 30.8L357.82 27.94L358.2 27.15L358.33 25.55L358.03 22.28L357.26 18.44L354.22 11.12L353.91 9.96L353.98 8.97L354.84 7.7L355.63 5.75L355.22 4.35L355.37 3.07L356.12 3.84L356.25 4.36L356.64 4.52L358.4 4.24L359.75 3.3L360.3 1.31L361.17 1L361.64 1.33L362.2 2.62L362.79 2.96L363.42 4.43L365.74 6.13L367.95 9.25L372.9 14.81L376.81 22.04L379.39 24.59L381.83 27.69L387.41 32.09L388.98 32.98L389.31 33.93L390.57 34.89L394.27 36.83L397.51 38.11L403.39 39.8L406.18 40.33L406.62 40.02L406.91 40.79L406.85 42.07L407.72 43.62L408.3 44.1L411.51 45.11L414.92 45.32L417.49 45L419.77 43.01L421.31 41.09L423.49 39.05L425.32 37.79L425.98 36.34L427.08 35.18L427.86 33.8L428.32 33.83L428.77 36.06L427.56 38.55L426.65 39.47L426.05 41.87L424.32 44L423.38 46.12L423.48 46.95L422.71 49L422.93 50.06L424.28 52.64L425.77 54.61L427.29 59.84L428.78 61.8L427.62 61.27L427.43 60.74L426.29 60.52L426.05 60.89L426.26 62.15L427.12 61.48L427.59 61.88L427.3 62.43L427.67 62.82L428.07 62.54L430.62 63.16L432.71 61.46L433.03 60.86L434.14 60.15L434.38 59.65L437.66 59.85L437.47 60.35L436.3 61.26L434.57 61.57L432.7 62.6L431.9 65.53L431.13 65.17L429.89 65.12L427.18 65.63L425.67 66.53L424.41 66.32L423.79 66.92L423.65 68.07L422.05 70.22L421.03 70.71L419.13 70.61L418.23 69.82L418.26 69.29L418.59 68.98L418.04 68.61L417.31 68.71L416.12 70.44L416.1 70.85L417.25 71.98L415.24 71.86L414.09 71.51L410.51 71.49L409.82 71.34L408.24 70.07L405.18 70.61L402.75 71.79L399.35 74.32L394.08 79.59L390 85.39L388.47 88.7L388.19 90.37L388.74 91.81L387.92 95.69L387.01 97.22V98.83L383.31 95.11L378.46 93.09L370.37 88.64L367.99 86.97L366.15 84.92L362.94 83.98L360.73 81.93L358.91 80.73L357.08 80.2L354.7 80.16L351.53 81.2L349.45 82.49L346.77 84.77L345.18 85.66L343.06 88.11L342.72 88.86L341.65 88.46L341.32 87.91L341.7 87.62L342.29 88.26L342.41 87.45L341.06 87.04L340.19 84.67L339.4 84.27L338.33 83.15L338.21 82.57L336.94 81.34L335.7 81.25L334.45 81.78L333.48 81.19L332.27 81.22L330.59 83.03L329.15 85.78L328.44 88.33L328.72 90.27L331.04 91.47L333.78 93.82L334.53 93.96L335.9 93.43L337.94 93.74L339.17 95.95L340.8 97.17L341.88 99.05L345.03 100.41L345.58 101.3L346.37 101.89L345.76 102.5L344.81 102.51L343.71 103.81L342.05 104.47L341.19 103.68L338.41 102.77L337.48 102.93L337.2 103.55L336.79 103.65L336.61 103.04L337.29 102.59L337.09 101.92L336.5 101.55L335.64 101.63L335.23 101.96L334.8 103.64L333.36 104.7L332.07 104.8L331.72 105.13L331.41 109.07L331.01 109.55L330.07 109.58L328.11 110.45L327.21 112.34L326.82 112.66L325.8 111.86L324.66 112.08L323.76 111.37L322.68 108.65L322.59 107.79L323 106.02L324.35 102.99V101.94L325.12 102.02L325.41 101.43L325.72 98.73L325.32 96.75L323.42 93.81L322.75 93.45L321.45 93.33L320.94 92L320.09 91.12L318.95 90.71L318.56 89.98L318.37 88.59L318.68 87.47L319.62 86.44L319.95 85.49L319.98 82.84L319.49 80.61L320.41 79.16L321.53 78.54L323.81 78.48L324.42 77.57L325.81 76.84L326.66 74.92L327.48 75.49L328.04 76.46L328.93 76.23L329.02 74.84L329.84 74L330.69 72.29ZM345.41 10.86L345.32 9.63L346.6 8.38L348.67 9.59L349.18 11.4L347.37 12.89L346 11.82L345.41 10.86ZM313.53 92.03L313.24 94.25L312.85 94.88L312.2 95.11L312.18 95.47L311.57 94.93L311.63 93.22L311.21 92.11L311.95 91.02L313.86 90.64L314.32 90.12L314.35 90.76L313.53 92.03ZM343.88 5.25L343.62 7.84L343.23 7.97L342.35 5L342.57 3.69L341.96 3.35L342.05 2.62L342.7 3.47L343.36 3.32L343.34 2.73L343.68 3L344.03 3.78L343.88 5.25Z" fill="#CCCCCC" stroke="white" stroke-width="0.5"/>
<path d="M177.86 291.66L177.08 290.96L175.63 292.71L175.94 293.61L176.7 293.41L177.02 293.72L176.87 293.93L176.17 294.46L175.89 294.18L174.35 294.44L174.17 293.85L175.31 293.22L175.06 292.76L175.2 292.13L175.73 291.69L175.81 290.72L175.1 288.99L175.25 288.02L173.94 287.37L171.66 288.41L171.64 288.78L169.91 290.39L169.7 290.9L169.97 291.05L169.64 291.24L168.36 290.93L167.86 289.47L167.94 288.84L167.02 288.06L166.78 286.7L166.95 285.89L166.65 285.21L166.16 284.58L166.46 283.94L167.06 283.76L167.69 283.08L167.9 281.3L168.6 280.27L168.05 279.93L168.35 279.45L169.8 278.59L170.11 277.45L170.9 277.56L171.3 278.04L171.51 277.6L172.75 277.47L173.27 277.89L173.78 277.46L173.71 277.21L174.12 277.07L174.37 277.48L176 277.61L177.47 276.55L179.23 276.41L179.22 275.54L178.53 275.33L178.15 274.86L179 273.86L180.19 273.61L182.59 270.28L182.99 270.21L184.14 270.91L184.93 270.29L185.91 271.08L187.33 270.66L187.91 270.88V271.14L190.01 270.82L190.43 271.32L191.44 272.54L190.98 273.75L190.97 275.35L192.57 277.35L192.28 278.47L192.69 280.37L192.68 281.75L193.89 283.4L194.01 285.14L193.56 286.38L192.68 286.47L192.64 287.37L192.31 287.68L189.91 287.17L189.87 286.96L190.44 286.77L190.4 286.17L189.84 285.96L189.91 286.39L189.25 286.69L187.6 287.36L186.86 287.27L186.63 288.25L185.37 288.64L184.09 288.43L182.94 288.69L182.59 289.26L182.04 289.52L181.79 288.96L181.08 289.04L180.82 289.9L180.37 289.75L180.33 290.73L179.17 290.81L177.86 291.66Z" fill="#CCCCCC" stroke="white" stroke-width="0.5"/>
<path d="M334.2 241.03L334.1 243.15L334.99 246.42L337.67 251.92L339.3 254.41L340.12 254.88L340.16 255.33L337.66 253.79L336.55 252.26L335.32 252L334.19 251.03L333.28 251.07L332.2 250.55L330.19 251.07L329.33 251.89L328.53 251.66L327.94 252.06L327.08 251.95L326.06 252.36L325.48 251.64L323.02 250.78L321.98 250.08L321.78 249.37L321.06 249.13L319.43 247.12L319.1 246.28L318.68 246.25L318.29 246.6L317.9 246.5L317.03 244.54L317.2 243.65L317.93 243.59L319.58 242.72L320.13 241.03L321.26 241.31L321.38 240.43L322.38 239.96L322.51 239.51L324.07 239.43L324.33 239.3L324.38 238.78L325.05 239.02L325.46 238.56L325.9 238.54L326.18 238.93L326.85 238.72L327.06 237.55L327.98 235.7L327.96 233.89L327.39 231.94L327.67 231.56L328.62 231.35L328.72 231.04L328.09 230.04L328.31 228.74L328.03 227.75L328.12 225.76L328.67 225.79L329.43 226.81L330.25 227.06L330.58 228.22L331.72 228.64L332.15 229.21L333.61 227.81L334.73 227.32L334.27 226.02L334.61 225.56L335.18 226.59L338.61 227.63L338.65 227.65L338.68 227.66L338.86 228.3L338.23 228.47L337.74 229.42L336.56 233.42L335.86 234.59L335.08 236.86L335.24 239.74L334.2 241.03Z" fill="#CCCCCC" stroke="white" stroke-width="0.5"/>
<path d="M258.41 221.87L258.35 220.58L258.03 220.44L257.67 220.78L257.37 220.5L257.98 218.17L258.38 217.82V216.15L258.73 215.77L260.17 214.6L261.3 214.09L262.43 214.37L265.33 212.89L265.75 212.31L266.73 211.83L268 211.66L269.32 210.95L270.35 211.08L270.82 211.74L270.58 212.21L270.99 213.02L270.38 213.31L269.37 213.27L268.84 213.63L268.56 214.8L269.16 215.85L268.5 216.83L266.71 216.78L265.82 217.28L265.25 218.77L264.09 219.63L263.53 219.1L263.04 219.02L263.21 218.41H262.86L261.4 220.58L261.94 220.81L261.77 221.43L261.26 221.55L261.38 221.98L261.12 222.37L261.68 222.46L262.24 221.89L263.37 223L264.12 222.35L264.32 221.67H264.88L264.92 225.16L263.68 225.06L262.96 225.32L261.56 226.69L260.96 230.18L260.41 230.83L260.25 231.81L260.48 232.27L259.72 233.5L259.91 234.63L260.37 235.21L259.62 238.17L260.07 240.05L259.75 240.47L259.89 241.35L260.14 241.93L260.9 242.36L260.94 242.75L260 244.43L259.4 244.66L259.62 245.39L259.12 246.48L257.23 246.96L256.99 246.34L255.13 244.88L253.38 245.3L252.91 245.25L252.26 244.49L251.36 244.62L250.95 244.24L250.7 242.99L249.02 241.4L250.12 240L251.04 239.68L252.45 238.32L256.92 232.29L258.01 230.32L259.34 226.52L259.38 224.22L258.43 222.74L258.41 221.87Z" fill="#CCCCCC" stroke="white" stroke-width="0.5"/>
<path d="M360.54 166.92L360.96 167.08L361.01 167.53L360.18 167.49L360.71 168.02L361.21 168.01L361.54 168.69L360.51 169.12L359.78 169.09L359.79 169.45L360.28 169.72L360.83 169.6L360.84 169.84L360.18 170.37L359.44 170.34L359.18 170.61L360.85 171.65L359.99 171.95L358.73 171.42L358.94 172.39L359.96 172.65L358.74 172.83L359.48 173.4L359.21 173.68L358.12 173.6L357.65 173.85L357.23 173.38L357.27 172.81L356.92 172.64L356.98 173.25L356.68 173.69L357.37 174.55L356.94 174.61L357.05 175.52L356.58 175.86L355.86 174.9L356.11 174.37L355.91 174.18L354.99 174.27L355.15 175.02L353.98 174.53L352.54 174.4L352.3 174.92L352.41 176.7L351.73 177.4L351.83 177.91L351.33 179.85L348.88 178.85L347.98 179.72L347.81 180.42L347.29 180.6L345.52 179.59L345.05 178.5L345.64 177.95L345.39 177.45L344.67 177.25L342.46 177.5L341.91 176.69L340.47 176.21L339.25 175.3L338.3 175.44L338.22 174.29L339.01 172.92L338.87 172.52L337.9 172.14L338.18 171.17L337.91 170.95L338.38 170.12L338.98 169.82L338.13 169.38L338.46 168.32L337.34 167.55L336.81 166.8L336.96 165.88L336.36 164.63L335.97 164.54L336.02 163.89L336.47 163.77L336.42 162.96L337.2 162.11L337.63 160.77L337.42 160.05L337.84 159.94L338.45 159.08L338.72 159.11L339.23 157.92L339.1 156.84L338.44 155.67L338.83 155.53L339.65 154.06L338.53 153.4L338.46 152.34L339.28 151.89L339.77 152.37L340.33 152.19L339.71 149.69L339.76 147.01L340.28 146.55L340.43 144.99L340.03 144.5L340.84 143.39L341.45 143.17L341.85 142.6L342.31 143.28L343.25 143.29L344.25 142.51L344.71 142.49L344.75 141.77L345.49 141.27L347.01 140.89L348.97 139.4L349.65 140.48L351.37 139.38L352.05 139.29L353.29 140.06L354.18 139.37L354.29 138.54L355.68 137.92L356.15 137.38L357.52 139.42L359.06 142.88L358.08 143.96L359.47 144.56L359.93 145.2L359.81 145.45L359.32 145.46L358.96 146L359.07 146.98L359.4 147.46L359.91 147.63L360.4 148.52L361.09 148.64L361.49 149.34L361.17 150.94L361.89 152.15L362.12 155.13L361.7 156.82L362.14 156.89L361.29 159.46H361.54L362.87 157.66L362.89 159.68L363.49 159.76L363.78 160.46L363.63 160.82L363.01 160.9L362.15 162.07L361.45 162.32L361.88 163.2L363.04 162.07L363.35 162.02L363.55 162.39L363.12 163.72L362 163.98L361.11 164.58L360.3 165.77L360.64 166.12L361.43 165.7L361.87 166.24L360.17 166.53L360.54 166.92Z" fill="#CCCCCC" stroke="white" stroke-width="0.5"/>
<path d="M187.19 318.38L186.95 319.41L185.94 319.06L185.34 319.5L184.9 321.09L185.24 322.75L184.1 323.23L184.08 324.33L185.11 324.96L185.44 326.44L185.13 326.49L183.45 324.99L182.68 324.88H182.33L181.12 325.92L180.53 325.56L180.25 325.76L179.34 324.7L177.75 325.58L177.66 324.74L178.34 323.73L178.29 323.37L179.45 322.11L179.21 321.73L178.38 321.8L178.43 321.42L178.84 321.32L178.85 319.99L178.34 318.74L178.54 317.82L177.78 316.96L177.51 316.08L177.85 315.71L178.9 316.89L179.09 316.82L179.94 315.44L180.54 315.27L181.03 313.61L182.24 313.19L183.13 312.52L183.09 311.95L182.38 311.44L181.3 309.26L182.03 308.85L184.2 309.11L185.4 308.77L186.34 307.35L186.02 306.55L186.64 304.71L187.47 304.33L187.53 303.78L188.28 302.88L188.93 301.4L189.47 301.73L189.99 301.54L190.58 300.53L194.92 300.57L195.89 299.37L196.6 299.67L197.07 299.34H198.13L198.5 299.88L199.84 300.4L201.65 300.23L202.3 301.13L203.09 301.45L203.7 301.25L204.12 300.44L204.51 300.31L204.76 300.77L205.46 300.6L205.97 301.86L206.07 303.86L208.04 303.91L208.27 304.71L207.8 305.25L207.9 305.72L208.68 306.91L210.79 307.13L208.91 310.71L208.26 314.28L207.52 313.07H206.91L206.79 312.34L205.81 311.34L205.38 310.31L203.97 309.63L203.46 308.55L200.23 307.95L199.78 307.4L196.63 307.9L196.38 308.37L194.05 309.54L194.07 310.18L191.88 310.59L191.33 311.66L191.08 311.08L190.16 311.38L190.24 312L189.97 312.28L190.18 312.72L189.84 313.52L190.18 313.43L190.25 313.96L189.92 314.15L190.11 314.71L189.21 315.65L189.46 316.38L189.22 316.53L189.15 316.13L188.71 316.16L187.19 318.38Z" fill="#CCCCCC" stroke="white" stroke-width="0.5"/>
<path d="M200.36 289.54L202.5 288.32L202.68 287.36L204.76 288.06L206.37 288.13L207.44 286.93L207.97 287.31L207.78 288.27L207.96 288.64L208.32 288.7L208.45 288.3L208.9 288.21L210.01 288.44L210 288.85L209.61 289.16L209.8 289.64L210.93 289.9L211.75 290.53L212.14 290.47L213.51 291.52L213.35 292.48L212.93 292.7L211.84 292.12L211.56 292.42L209.93 292.16L208.23 292.34L207.49 292.92L207.55 293.34L207.23 293.68L205.99 293.82L204.82 294.73H204.35L203.49 293.76L202.11 294.01L201.35 294.3L201.07 294.8L200.49 294.61L199.49 295.45L199.35 295.96L198.73 296.18L196.85 295.44L197.54 294.94L197.87 291.86L196.36 290.65L196.43 290.32L196.74 290.23L198.33 291.03L198.88 290.86L200.36 289.54Z" fill="#CCCCCC" stroke="white" stroke-width="0.5"/>
<path d="M140.31 340.94L139.06 340.29L138.8 339.8L138.23 339.67L137.83 338.96L137.29 339.72L136.38 340.13L135.54 340.12L134.94 340.67L133.9 340.51L133.58 339.89L133.04 339.63L133.22 338.55L134.26 337.42L135.51 334.79L137.17 333.12L137.05 332.16L136.67 332.13L136.6 331.68L137.27 331.71L137.4 331.49L136.5 330.94L138.94 328.52L138.71 328.32L137.6 328.78L134.98 328.88L134.99 328.5L137.71 326.67L137.69 325.15L137.92 324.8L137.07 323.64L136.3 323.46L136.17 322.71L134.71 322.03L134.39 320.28L133.82 319.8L135.96 319.88L135.78 318.81L137.4 317.32L138.9 317.49L139.43 316.05L139.59 316.45L140.4 316.41L141.07 317.02L142.6 317.54L142.59 317.83L143.46 318L144.06 318.79L144.69 318.84L145.09 319.47L145.47 319.48L145.96 318.85L146.14 318L145.31 316.79L145.44 316.05L146.46 315.49L147.87 315.75L148.91 316.84L149.1 318.01L149.96 318.79L150.55 320.41L150.76 322.68L152.16 323.95L150.9 324.11L150.34 325.11L150.31 326.01L149.34 326.65L149.14 327.58H148.55L148.19 328.12L147.94 329.53L147.48 329.87L146.77 329.66L146.48 330.38L146.08 330.55L145.83 331.93L146.08 333.06L146.5 333.74L146.94 333.83L147.13 334.98L147.89 335.66L147.26 336.69L146.7 336.72L146.5 337.31L147.65 338.65L147.82 339.56L146.94 339.67L145.83 339.31L145.13 340.5L144.73 340.63L143.88 340.28L142.88 340.99L140.31 340.94ZM134.29 331.16L134.76 331.09L134.53 332.37L133.99 333.13L134.27 333.22L133.71 334.07L132.88 334.45L131.69 333.93L130.79 334.01L130.73 333.63L130.22 333.46L129.83 333.86L130.33 334.26L130.38 334.7L129.95 335.69L128.09 337.04L127.86 337.9L126.8 338.61L126.85 339.57L126.38 339.74L125.72 338.64L125.97 337.77L125.24 337.56L125.89 336.14L125.45 335.56L125.43 334.84L126.62 332.43L126.8 331.3L128.19 330.65L129.6 330.5L129.84 330.78L129.69 331.7L129.95 332.73L131.57 331.92L132.17 331.2L133.04 330.93L133.61 331.3L134.29 331.16ZM129.12 338.28L129.04 337.57L129.62 336.98L129.4 337.94L130.06 339.64L129.6 339.92L129.13 341.16L128.11 340.34L128.19 339.59L127.85 339.23L127.99 338.36L129.12 338.28ZM134.79 330.33L134.26 330.6L133.9 330.44L133.68 329.57L134.64 328.68L134.97 329.56L134.65 329.98L134.79 330.33Z" fill="#CCCCCC" stroke="white" stroke-width="0.5"/>
<path d="M301.71 263.06L302.12 261.93L303.91 261.1L304.37 260.45L305.08 260.35L305.57 259.83L305.91 259.13L305.93 256.52L306.53 256.65L306.99 257.2L307.6 257.17L308.19 258.16L309.05 258L311.22 258.71L312.57 260.6L312.87 260.57L313.06 258.55L312.27 257.93L312.49 257.7L312.98 258.17L313.74 257.26L316.42 258.53L316.75 259.2L317.23 259.43L317.24 259.81L317.88 259.62H317.89H317.92H317.94L318.36 260.35L316.87 261.13L316.13 261.07L315.72 261.48L316.1 261.93L316.5 261.81L316.9 262.1L316.49 262.98L316.14 262.73L315.67 262.81L315.57 263.2L316.06 263.46L316.33 264.78L315.99 265.48L316.95 266.26L318.02 266.49L317.59 267.55L316.88 267.64L316.23 268.19L316.35 268.78L316.69 268.87L316.65 269.3L315.31 269.27L315.46 268.09L315.13 266.91L314.5 266.23L314.56 265.6L312.02 264.98L309.57 265.32L307.45 265.98L306.29 266.91L306.12 269L305.48 269.35L303.96 269.14L303.83 268.46L303.13 267.92L302.89 266.41L303.46 265.78L303.73 264.82L303.39 263.29L303.24 263.05L301.71 263.06Z" fill="#CCCCCC" stroke="white" stroke-width="0.5"/>
<path d="M131.11 356.54L132.24 354.65L132.51 352.31L132.31 351.24L129.22 348.05L130.35 345.35L130.17 344.26L129.44 342.86L130.01 341.78L129.29 341.2L129.5 340.66L130.34 340.23L130.86 340.24L131.54 340.7L132.62 340.6L133.06 339.64L133.6 339.9L133.92 340.52L134.96 340.68L135.56 340.13L136.4 340.14L137.31 339.73L137.85 338.97L138.25 339.68L138.82 339.81L139.08 340.3L140.33 340.95L139.85 341.95L140.5 342.18L141.32 342.97L141.74 344.39L142.82 344.74L143.56 345.59L143.44 346.85L143.24 346.92L143.41 347.8L144.06 347.9L144.36 348.26L145.44 348.39L145.26 349L146.05 349.19L146.21 350.76L146.76 351.73L147.26 351.15L147.97 351.79L148.93 351.68L149.4 351.97L149.7 352.89L149.45 353.51L149.64 354.35L149.02 355.01L148.9 355.73L147.73 355.31L146.74 356.09L146.04 357.18L145.96 357.98L147.73 358.59L147.75 359.02L147.1 359.73L147.28 359.91L148.07 359.63L148.19 359.88L146.92 361.01L145.91 361.04L145.7 361.88L144.91 363.05L143.15 364.03L141.71 364.28L138.97 366.33L139.33 364.97L138.82 364.57L140.62 363.18L141.06 362.06L140.81 361.34L141.51 360.45L141.78 358.52L140.84 356.46L140.38 355.86L139.71 355.58L139.82 353.64L138.47 353.67L137.6 352.85L138.28 351.94L139.33 351.74L140.07 352.36L139.96 353.19L141.02 353.28L142.15 351.22L141.66 350.12L138.99 349.34L138.15 350.01L137.93 351.2L137 352.54L137.15 353.08L136.45 354.55L136.21 354.52L136.05 355.5L136.31 356.82L137.11 358.88L138.18 359.86L139.07 360.09L138.55 361.85L137.52 362.59L136.9 362.1L136.14 362.39L135.9 362.1L135.96 361.28L135 360.43L132.88 360.45L132.02 360.08L130.16 360.49L129.98 359.01L129.34 358.78L130.06 358.23L128.52 356.75L129.06 356.09L129.32 356.57L130.35 357.08L131.11 356.54ZM135.75 378.5L137.17 379.13L137.11 379.46L138.48 379.83L139.15 380.46L138.77 382.22L137.46 383.54L136.22 383.84L134.53 383.56L134.27 382.77L134.05 382.95L134.06 382.26L133.61 381.68L133.34 380.54L133.38 380.07L134.32 379.99L135.06 379.08L135.07 378.61L135.62 378.7L135.73 378.33L135.75 378.5ZM144.61 375.83L144.43 373.77L145.25 372.47L145.55 372.48L145.7 371.14L146.76 369.87L147.27 371.01L147.03 371.57L147.19 373.15L146.68 373.87L146.76 375.02L146.28 375.65L146.32 376.12L145.63 376.54L144.89 378.06L145.03 378.34L144.81 378.59L145.24 379.11L145.01 379.58L145.28 379.93L144.95 380.05L144.94 380.51L144.13 380.5L143.13 381.18L142.83 380.6L143 379.72L142.66 378.37L143.14 378.38L144.61 375.83ZM120.48 351.48L119.71 351.95L119.3 351.66L119.17 351.1L119.54 350.89L119.93 349.77L121.25 349.28L121.68 348.04L122.04 348.21L121.99 348.7L121.36 349.85L120.76 350.03L120.87 350.44L120.49 350.85L120.75 351.17L120.48 351.48ZM122.64 346.98L122.32 346.42L122.67 345.95L123.21 346.03L123.59 346.52L124.44 346.33L124.56 346.71L124.53 347.31L123.62 347.61L123.11 347.34L123.19 347.01L122.79 346.68L122.64 346.98ZM130.46 378.34L131.15 378.83L131.14 379.09L130.74 379.02L130.07 379.41L129.69 378.96L129.77 378.48L129.27 378.61L128.74 377.86L130.46 378.34Z" fill="#CCCCCC" stroke="white" stroke-width="0.5"/>
<path d="M231.83 271.62L232 271.09L232.37 270.88L232.08 269.62L231.11 269.13L230.25 269.31L230.21 268.57L229.99 268.51L229.18 268.47L228.76 268.83L228.2 268.59L228.45 268.04L227.59 267.21L227.57 266.44L226.55 266.41L225.78 266.88L224.46 265.74L222.97 265.13L222.95 263.87L223.32 262.87L224.46 263.42L225.37 262.9L225.38 260.27L225.05 259.73L223.72 260.39L223 260.21L222.79 259.6L221.93 258.8L221.91 256.78L222.17 257.08L223.14 257.06L223.73 256.76L224.18 255.98L224.99 256.04L226.91 254.69L228.8 254.09L229.88 254.77L230.54 255.97L229.47 256.98L229.28 257.72L228.19 259.04L228.25 259.64L228.55 259.63L229.14 258.66L229.75 259L229.88 259.17L229.24 259.72L230.59 260.33L230.84 260L230.98 261.38L231.46 260.9L232.3 261.11L232.35 260.6L231.09 259.81L231.94 259.13L232.87 259.02L233.02 258.44L233.37 258.43L233.38 259L233.79 259.25L233.38 260.14L233.9 260.56L233.61 261.57L234.92 262.78L235.05 263.65L236.78 263.84L238.28 264.43L239.65 264.17L240.83 266.01L241.25 266L240.87 267.44L241.3 269.55L240.99 271.29L240.65 271.54L240.94 272.71L241.83 274.22L241.59 275.29L242.3 275.76L243.03 275.38L243.16 276.26L243.47 276.21L243.77 276.58L244.17 276.43L244.78 277.03L244.52 277.29L244.67 277.7L245.12 278.9L244.78 279.65L244.2 279.57L243.71 278.9L242.72 278.89L242.8 278.53L242.06 279.66L241.33 279.74L239.41 279.22L238.89 278L239.17 277.38L238.15 276.23L237.84 275.17L236.6 274.02V273.4L235.85 273.38L235.59 274.06L235.97 274.48L235.18 274.74L234.49 274.01L234.24 274.12L234.17 272.96L232.01 272.36L231.83 271.62Z" fill="#CCCCCC" stroke="white" stroke-width="0.5"/>
<path d="M257.92 289.59L257.73 289.72L258.39 288.52L257.82 288.19L257.16 289.6L256.06 290.34L255.69 290.39L255.42 289.6L255.14 289.69L254.91 290.53L254.82 289.84L254.12 289.83L254.4 290.77L254.18 291.01L251.23 291.73L250.82 291.62L250.18 292.17L249.63 293.18L249.98 293.79L250.4 293.73L250.05 294.42L249.44 294.52L249.07 293.98L248.66 294.09L248.84 294.41L248.14 294.65L248.32 294.97L249 294.87L249.01 295.55L249.73 295.92L249.56 297.12L248.9 297.21L248.12 298.34L247.18 298.52L246.77 299.18L246.16 299.15L245.1 301.03L244.38 303.03L243.09 302.76L241.39 300.82L241.46 298.9L242.56 297.18L243.77 296.79L244.6 295.67L246.22 295.92L246.08 294.59L246.32 294.32L246.44 292.57L246.07 291.89L246.8 290.53L246.11 289.38L246.78 289.02L245.62 287.17L246.12 286.22L248.3 285.9L248.69 284.96L248.4 284L247.75 284.26L247.29 283.25L246.47 283.52L245.43 283.01L245.17 282.6L245.61 281.6L245.56 281L245.94 280.48L245.14 278.91L244.69 277.7L246.03 277.15L245.96 276.64L246.73 276.01L246.65 275.76L246.03 275.71L245.96 275.46L246.43 275.07L246.75 275.45L247.77 275.43L249.11 276.09L251.44 274.96L251.65 274.04L252.44 272.94L252.48 271.56L253.21 269.06L252.5 268.33L252.42 267.48L254.63 266.53L256.33 269.02L257.41 269.14L257.73 270.35L258.7 271.92L257.94 272.12L257.02 272.81L256.66 273.83L256.92 274.95L254.99 277.9L254.43 279.53L254.49 280.19L255.16 280.48L254.78 281.81L256.88 282.42L257.16 283.1L258.44 283.57L259.52 284.38L260.7 284.41L260.92 285.06L261.48 285.19L261.27 285.47L261.43 285.75L262.14 285.62L262.42 285.91L262.5 286.64L261.37 287.31L261.48 287.64L262.11 287.78L261.48 288.49L261.77 288.96L261.31 290.23L260.34 290.5L258.97 290.03L260.05 289.87L260.59 290.14L260.66 289.49L260.18 289.37L259.91 289.57L258.45 289.23L257.92 289.59Z" fill="#CCCCCC" stroke="white" stroke-width="0.5"/>
<path d="M343.97 190.61L343.56 191.32L343.88 191.57L344.22 191.42L344.4 192.07L343.14 192.82L341.43 196.44L341.03 200.14L341.35 202.09L340.66 201.91L339.94 202.18L339.97 204.35L339.84 204.57L338.26 204.51L338.73 204.9L338.58 205.06L337.37 204.79L336.74 204.29L336.46 203.54L336.64 202.4L336.08 201.94L335.26 201.66L332.61 201.93L332.24 200.84L331.1 200.15L329.97 200.72L328.58 200.06L328.52 198.08L330.24 198.07L331.23 197.52L331.42 196.5L332.53 194.92L332.3 193.69L332.46 192.67L333.51 191.35L333.35 190.75L334.44 189.61L335.05 188.01L334.85 187.31L334.25 186.92L333.98 186.01L334.36 185.36L334.33 184.82L333.72 183.45L333.82 183.22L334.48 183.57L334.88 183.47L335.31 182.32L335.09 181.35L335.77 180.25L334.94 179.8L334.75 178.74L333.69 177.72L333.92 177.37L334.19 177.55L335.95 177.19L337.59 175.62L338.3 175.45L339.25 175.31L340.47 176.22L341.91 176.7L342.46 177.51L344.67 177.26L345.39 177.46L345.64 177.96L345.05 178.51L345.52 179.6L347.29 180.61L347.81 180.43L347.98 179.73L348.88 178.86L351.33 179.86L351.83 177.92L351.73 177.41L352.41 176.71L352.3 174.93L352.54 174.41L353.98 174.54L355.15 175.03L356 177.88L355.62 177.76L355.11 176.94L354.42 177.14L354.33 178.81L352.97 179.65L352.82 180.21L353.84 180.89L353.79 182.1L353.08 181.46L352.07 182.4L351.47 182.58L351.44 183.3L353.16 183.51L353.04 184.19L352.32 184.83L351.85 184.88L351.88 185.37L352.33 185.57L352.49 186.11L352.97 185.94L353.58 186.3L353.29 187.25L352.82 186.6L352.46 186.71V188.36L351.53 188.34L351.89 188.66L352.01 189.6L353.34 189.44L353.37 189.73L352.71 189.85L353.4 191.65L353.06 192.63L351.6 191.57L351.86 191.05L350.93 190.78L351.19 190.33L351.76 190.11L351.22 189.47L350.09 189.85L349.92 189.19L349.65 189.08L348.68 189.02L347.12 189.47L345.87 190.31L345.99 191.23L345.45 191.4L345.38 190.02L344.46 189.9L343.95 190.21L343.97 190.61Z" fill="#CCCCCC" stroke="white" stroke-width="0.5"/>
<path d="M155.59 342.18L154.59 345.56L154.44 347.01L155.27 348.18L154.71 349.74L154.77 351.76L153.98 352.22L153.08 354.31L153.32 355.11L152.77 355.45L152.96 356.41L152.18 357.14L152.52 357.85L152.01 357.88L151.49 357.42L150.61 357.5L149.93 355.99L148.88 355.73L149 355.01L149.62 354.35L149.43 353.51L149.68 352.89L149.38 351.97L148.91 351.68L147.95 351.79L147.24 351.15L146.74 351.73L146.19 350.76L146.03 349.19L145.24 349L145.42 348.39L144.34 348.26L144.04 347.9L143.39 347.8L143.22 346.92L143.42 346.85L143.54 345.59L142.8 344.74L141.72 344.39L141.3 342.97L140.48 342.18L139.83 341.95L140.31 340.95L142.88 341L143.88 340.29L144.73 340.64L145.13 340.51L145.83 339.32L146.94 339.68L147.82 339.57L147.65 338.66L146.5 337.32L146.7 336.73L147.26 336.7L147.89 335.67L147.13 334.99L146.94 333.84L146.5 333.75L146.08 333.07L145.83 331.94L146.08 330.56L146.48 330.39L146.77 329.67L147.48 329.88L147.94 329.54L148.19 328.13L148.55 327.59H149.14L149.34 326.66L150.31 326.02L150.34 325.12L150.9 324.12L152.16 323.96L152.64 324.54L153.02 324.55L155.04 323.85L155.87 324.71L155.69 325.18L155.88 325.47L156.78 325.77L157.3 325.33L159.53 325.35L160.02 324.77L160.17 324.03L160.97 323.88L162.61 324.5L162.35 326.06L162.91 326.07L162.68 326.59L161.12 327.56L160.53 329.23L159.45 329.76L159.05 330.63L159.28 331.26L160.01 331.79L159.35 332.33L158.45 332.5L158.64 333.05L159.23 333.4L158.31 333.76L157.14 336.54L155.59 342.18Z" fill="#CCCCCC" stroke="white" stroke-width="0.5"/>
<path d="M287.77 219.98L289.62 218.76L292.18 216.12L294.49 214.82L296.78 210.97L297.62 210.39L298.3 209.21L299.68 204.6L300.59 203.5L304.66 200.57L307.04 199.94L308.75 198.83L310.5 196.95L311.74 194.95L312.15 193.36L312.28 189.48L314.13 185.73L315.94 186.69L317.42 187.01L317.66 187.3L317.26 189.29L318.06 190.42L319.9 190.9L321.05 192.13L320.26 193.72L318.89 194.58L317.31 194.36L316.79 195.18L316.95 196.49L316.61 197.31L316.96 198.07L316.27 198.58L315.68 201.75L316.34 202.91L317 203.23L317.45 203.1L317.9 203.87L316.32 205.58L315.61 206.88L315.74 207.12L314.21 208.16L314.18 208.89L314.6 209.92L314.51 210.73L314.89 211.55L314.41 211.78L313.15 211.56L312.78 211.8L312.39 211.48L311.92 211.52L311.51 211.68L311.19 212.87L310.51 212.63L309.96 212.92L307.81 213.16L307.24 214.08L307.91 214.64L307.77 215.83L307.57 216.99L306.6 218.39L307.19 219.19L307.87 219.35L308.34 220.28L307.99 221.56L308.41 222.95L308.19 223.73L308.3 225.07L308.06 225.49L307.83 225.15L306.91 225.08L306.8 224.32L305.26 222.77L305.14 223.73L304.32 224.46L302.69 224.74L302.96 226.67L302.86 226.92L302.02 226.82L301.73 227.77L301.98 228.21L300.49 228.83L299.84 228.8L299.95 229.8L299.16 230.47L297.96 230.03L297.6 230.66L297.35 230.5L297.23 230.02L296.85 229.77L297.37 228.92L297.14 228.46L297.28 227.73L296.3 227.28L295.27 226.19L295.23 224.64L294.81 223.7L294 223.47L291.44 224.28L290.71 225.84L289.52 226.37L289.26 228.02L289.01 228.06L288.72 227.43L287.87 227.37L286.86 228.03L285.62 228.05L284.69 229.11L283.74 228.42L284.29 227.13L283.92 226.57L282.06 226.18L281.05 226.27L281.13 227.56L280.35 228.87L278.98 229.92L278.39 228.24V227.47L278 226.87L277.97 225.68L277.15 225.43L276.45 224.62L281.87 222.64L283.68 221.31L284.54 221.01L285.46 219.91L286.57 220.19L287.77 219.98ZM292.77 195.21L292.18 196.47L292.37 197.54L293.07 197.84L294.68 197.19L294.88 197.44L293.46 201.37L290.71 203.6L289.61 203.66L288.6 204.27L287.86 204.12L287.65 203.65L288.96 203.08L289.3 202.24L289.2 201.39L290.31 200.39L290.54 199.5L290.29 199.91L289.77 199.33L289.16 199.23L288.6 200.28L288.19 200.04L288.2 199.16L287.97 199.01L288.32 198.66L288.35 197.29L289.33 196.04L290.03 194.45L290.81 194.07L291.49 193.08L292.2 192.9L292.66 191.36L293.75 191.1L293.31 194.31L292.77 195.21Z" fill="#CCCCCC" stroke="white" stroke-width="0.5"/>
<path d="M275.01 265.81L275 265.28L275.84 264.63L275.58 263.36L276.45 263.07L275.74 262.09L276.39 261.39V260.48L275.82 259.94L274.75 260.26L274.44 259.71L274.51 258.61L274.12 258.16L274.55 256.88L273.77 256.18L272.97 254.39L271.74 254.02L271.69 253.51L270.65 253.5L270.36 253.11L270.47 252.57L271.06 252.32L271.41 251.26L272.56 250.91L272.89 251.24L273.31 251.17L273.83 250.11L274.27 250.01L274.64 249.09L275.64 248.33L276.03 246.76L275.31 246.51L274.85 246.01L274.86 245.2L275.61 244.49L275.66 243.97L275.28 243.42L276.67 241.61L276.76 240.83L276.67 240.3L275.64 239.64L275.51 239.13L276.41 238.27L276.83 237.46L276.81 236.71L277.2 236.18L277.81 236.01L277.69 235.52L277.48 235.56L277.59 234.79L278.77 234.09L278.97 229.91L280.34 228.86L281.12 227.55L281.04 226.26L282.05 226.17L283.91 226.56L284.28 227.12L283.73 228.42L284.68 229.11L285.61 228.05L286.85 228.02L287.86 227.37L288.71 227.43L289 228.05L289.24 228.01L289.5 226.36L290.69 225.83L291.42 224.26L293.99 223.45L294.8 223.68L295.22 224.62L295.26 226.17L296.29 227.26L297.27 227.71L297.13 228.44L297.36 228.89L296.84 229.75L297.22 229.99L297.34 230.47L295.79 231.3L294 231.66L293.99 232.75L293.03 232.91L292.07 234.09L292.09 235.08L291.49 236.74L291.55 238.04L292.8 238.78L293.23 238.85L293.44 238.54L294.32 238.79L294.76 238.39L295.46 238.29L296.29 238.54L296.58 239.69L296.51 241.17L295.48 241.85L295.71 242.96L296.13 243.4L296.1 244.21L295.65 244.69L295.19 244.36L295.03 244.53L295.47 245.29L296.12 245.37L296.4 246.04L296.07 246.39L296.45 248.16L297.06 248.35L297.42 248.87L297.78 248.78L297.68 249.24L298.2 250.29L298 250.81L297.6 250.8L296.87 251.74L295.9 251.75L295.36 250.61L293.6 250.58L293.38 250.99L292.9 251.08L292.42 250.55L292.43 249.88L291 249.3L289.23 252.01L288.51 251.39L288.31 251.51L287.34 253.48L288.22 254.34L287.22 255.44L287.95 257.21L287.37 258.85L287.01 258.71L286.45 259.36L286.78 259.62L286.37 260.18L286.79 261.49L286.05 261.75V262.42L286.58 263.09L286.44 263.81L284.79 264.44L283.58 265.45L282.3 266.09L282.09 266.52L281.58 266.53L281.12 267.46L280.05 267.57L279.21 267.83L278.99 267.44L277.44 267.14L276.58 267.7L275.33 267.96V267.45L274.7 266.64L275.01 265.81Z" fill="#CCCCCC" stroke="white" stroke-width="0.5"/>
<path d="M245.12 278.9L245.92 280.47L245.54 280.99L245.59 281.58L245.16 282.59L245.42 283L246.45 283.5L247.27 283.23L247.74 284.24L248.39 283.97L248.68 284.93L248.29 285.88L246.11 286.2L245.61 287.15L246.76 289L246.1 289.36L246.79 290.52L246.07 291.88L246.44 292.56L246.31 294.31L246.07 294.58L246.21 295.91L244.59 295.66L243.77 296.77L242.56 297.16L241.46 298.88L239.45 299.22L238.79 298.81L238.13 298.8L236.98 299.48L236.76 298.91L236.39 298.78L237.1 296.95L236.82 296.44L236.24 296.23L236.3 295.71L235.16 294.75L235.28 294.21L236.78 292.76L237.16 292.18L237.15 291.47L237.69 291.2L238.5 291.57L238.89 290.97L238.68 290.32L237.79 289.82L237.59 288.1L237.19 287.42L237.8 287.05L237.99 285.95L237.91 284.78L237.38 283.53L237.95 282.63L237.74 282.18L237.36 282.11L237.87 279.74L238.38 279.3L238.54 277.94L238.89 278L239.41 279.22L241.33 279.74L242.06 279.66L242.8 278.53L242.72 278.89L243.71 278.9L244.2 279.57L244.78 279.65L245.12 278.9Z" fill="#CCCCCC" stroke="white" stroke-width="0.5"/>
<path d="M131.04 322.96L131.99 322.82L132.48 323.18L133.36 324.89V325.99L132.75 326.79L132.98 327.1L132.77 327.59L131.16 328.19L130.5 329.04L129.23 329.51L129.26 328.83L128.46 328.34L128.54 327.47L129.95 326.35L130.01 325.74L129.54 325.49L129.73 325.07L129.47 324.78L127.61 324.75L126.53 325.46L125 325.37L124.81 326.36L123.87 327.85L122.91 328.42L122.07 329.52L120.76 330L121 329.46L121.59 329.22L122.6 326.17L121.31 324.64L121.5 324.19L120.94 324.1L120.76 324.51L119.86 323.64L119.26 321.88L118.63 321.06L118.56 320.49L119.02 319.76L119.25 318.18L120.22 317.91L120.78 318.63L120.63 319.8L121.02 319.89L121.27 319.47L122.28 320.09L122.3 321.72L121.92 321.71L122.07 322.43L121.75 323.09L122.34 323.15L122.93 323.91L123.9 322.78L125.53 323.81L126.1 323.56L124.57 321.76L124.96 320.29L124.58 319.35L123.18 318.41L121.62 318.53L120.79 318.14L120.47 316.13L120.02 316.22L120.24 317.03L119.36 317.62L119.17 316.9L119.81 316.82L119.58 316.13L118.76 316.07L118.42 315.39L117.69 314.9L117.14 314.91L117.27 314.02L117.85 313.6L117.59 312.18L117.99 311.04L118.58 311.5L119.48 310.62L119.77 310.89L119.42 311.42L119.61 311.69L120.36 311.84L121.02 311.38L121.36 311.7L121.69 311.25L121.9 312.09L121.31 313.08L122.36 314.46L122.39 315.72L123.77 316.3L124.79 316.2L125.15 317.07L125.05 317.49L124.53 317.59L124.48 317.95L125.63 318.72L127.18 320.37L129.98 321.05L129.93 321.65L129.25 321.99L128.45 322.92L129.3 323.66L131.04 322.96ZM112.72 288.66L113.07 287.52L112.51 288.23L111.19 288.18L110.69 287.88L111.21 287.74L111.49 287.3L111.62 285.31L112.29 283.96L112.7 283.78L112.68 283.36L111.9 283.25L111.87 282.88L112.24 282.44L112.54 281.01L113.98 280.94L114.37 279.98L115.08 279.63L115.73 279.92L116.04 280.53L115.49 281.99L115.56 283.23L114.8 284.44L113.5 285.67L114.07 286.64L113.81 287.76L114.3 287.82L114.41 288.11L113.53 288.85L113.56 289.25L113.94 289.41L113.27 290.04L112.66 289.91L111.75 293.37L110.38 294.46L110.18 294.01L109.46 294.02L110.22 288.58L110.7 288.88L110.58 289.49L111.43 289.21L111.45 288.82L112.72 288.66ZM103.09 326.01L103.23 327.2L104.17 328.02L104.09 328.35L102.64 328.45L102.42 328L101.68 328.25L101.53 328.83L102.04 329.1L102.15 329.49L101.72 329.93L101.34 329.8L100.99 329.13L99.39 329.52L98.28 329.01L98.55 328.19L98.75 328.49L99.71 328.08L99.27 327.41L99.1 325.51L99.43 325.06L99.9 325.1L100.44 325.78L102.44 324.65L102.43 325.12L103.09 326.01ZM108.27 318.82L107.96 320.37L108.61 320.33L109.48 319.75L109.8 319.89L109.83 320.46L108.12 321.95L108.2 323.23L107.51 323.17L107.38 324.26L107.06 324.1L107.37 322.56L106.91 321.25L106.64 321.55L106.04 321.28L106.45 320.51L107.15 320.53L107.03 319.32L108.22 318.08L108.06 317.12L108.44 316.13L108.6 317.47L108.27 318.82ZM116.54 311.07L116.85 311.17L116.91 310.83L116.36 310.84L116.51 310.46L117.14 310.38L117.3 311.04L117.11 311.3L117.43 311.61L116.96 311.82L116.93 312.24L116.48 312.34L116.7 312.7L115.35 314.98L113.5 316.02L113.09 315.74L113.16 315.2L113.54 315.64L113.98 315.61L113.7 314.73L114.62 314.21L114.17 313.62L114.94 312.36L116.23 311.06L116.54 311.07ZM103.43 323.61L104.26 324.13L103.83 325.49L103.08 325L103 323.72L103.43 323.61ZM106.37 323.23L105.84 322.97L105.44 322.31L106.15 322.41L105.78 321.87L105.98 321.54L106.88 322.36L106.77 323.59L106.37 323.23ZM109.01 313.04L108.99 313.46L109.31 313.6L108.75 313.88L108.79 314.12L107.65 313.88L107.59 313.61L108.03 313.23L108.61 313.2L108.66 312.88L109.01 313.04ZM105.03 324.63L104.87 324.22L104.52 324.14L104.5 323.72L103.68 323.19L104.01 322.83L104.58 322.99L104.84 323.73L105.21 322.92L105.39 322.99L105.52 323.42L105.08 323.96L105.28 324.25L105.03 324.63ZM114.23 311.23L114.78 309.57V311.66L114.06 311.56L114.23 311.23ZM117.56 308.67L117.11 308.96L116.01 308.9L117.18 307.97L117.72 308.32L117.56 308.67ZM107.42 315.57L107.19 315.7L106.8 315.39L107.12 314.85L107.55 315.12L108.14 314.94L107.96 315.62L107.42 315.57Z" fill="#CCCCCC" stroke="white" stroke-width="0.5"/>
<path d="M82.84 467.71L83.67 466.9L85.78 466.01L86.16 465.26L85.42 464.66L84.42 464.56L84.09 463.73L84.4 463.38L84.02 462.85L84.08 462.25L84.6 462.52L85.71 462.35L86.48 462.65L86.67 462.85L86.33 463.56L86.65 464.04L87.57 463.93L88.51 463.33L88.82 462.43L89.64 462.04L89.62 461.73L91.06 460.36L91.48 459.36L91.39 458.77L91.64 458.65L92.55 459.36L92.94 461.4L91.18 464.02L89.42 464.05L89.47 464.74L88.95 464.64L89.5 465.43L88.35 466.15L87.2 465.77L87.53 466.44L85.82 467.6L85.49 468.27L83.9 467.82L83.15 468.39L83.36 468.97L84.06 469.5L83.99 469.98L84.98 471.04L84.93 471.39L83.92 470.5L83.25 470.64L81.93 473.43L82.13 473.73L82.87 473.63L83.15 474.19L81.51 475.24L81.06 475.87L80.11 476.21L79.72 476L79.33 473.49L80.73 471.85L81.69 471.36L81.74 471.1L80.86 469L80.89 468.36L81.05 468.21L81.29 468.59L82.84 467.71ZM117.92 425.58L116.82 427.01L115.75 427.41L115.25 427.22L114.97 428.35L115.35 429.1L114.28 429.84L114.1 430.44L113.75 430.14L113.46 430.44L113.67 431.45L112.03 430.52L112.06 430.02L111.61 429.15L109.72 428.85L108.87 428.19L110.67 427.74L110.85 427.55L110.47 427.09L111.44 426.53L112.2 426.49L112.92 425.61L113.45 425.94L114 425.23L115.04 425.35L115.34 424.61L115.64 424.92L116.2 424.91L116.43 424.01L116.92 423.49L117.43 423.64L118.47 423.18L118.63 424.13L118.41 424.39L118.78 424.58L119.5 423.58L118.93 422.65L119.82 422.03L119.93 422.94L120.41 423.27L120.34 424.27L119.33 425L118.31 424.91L117.92 425.58ZM6.48 513.37L6.26 514.31L5.76 514.47L5.79 515.2L5.39 515.16L5.28 515.62L4.43 515.25L2.84 515.1L2.25 514.68L2.13 515.14L1.38 515.04L1 514.5L1.83 513.59L2.35 513.78L2.62 514.23L2.8 513.03L2.61 512.64L3.27 511.69L3.98 512.28L5.21 512.44L6.48 513.37ZM105.64 437L105.59 437.87L106.97 439.09L106 441.14L104.97 441.33L103.85 439.96L104.36 439.06L103.82 437.49L104.24 436.17L105.68 436.21L105.64 437ZM11.01 511.41L12.07 511.28L12.02 510.93L12.73 509.9L13.17 510.18L13.5 509.44L13.24 509L13.75 508.44L13.81 507.95L14.38 508.05L14.24 508.84L13.65 509.36L13.76 509.65L13.25 510.15L13.22 510.57L12.6 511.11L12.76 512.2L12.4 513.6L10.71 513.97L10.47 513.51L9.85 513.22L10.35 512.76L10.46 512.18L9.6 511.77L9.3 512.13L8.99 511.8L9.13 511.29L9.96 511.47L9.95 510.67L11.01 511.41ZM32.35 504.79L32.52 504.53L32.64 504.91L32.98 504.88L32.42 503.89L32.87 503.56L33.01 502.91L32.45 501.54L32.63 501.35L34.01 503.39L34.02 503.91L35.93 504.7L36.33 505.37L33.47 505.78L32.54 505.28L32.35 504.79ZM98.89 447.9L98.3 448.45L97.5 448.68L96.93 448.16L96.79 447.35L97 446.98L98.23 447.15L100.12 446.19L100.5 446.23L98.89 447.9ZM110.57 430.29L110.96 430.47L111.26 429.95L111.87 431.04L112.99 431.2L113.2 431.53L112.92 432.11L112.54 432.29L111.99 431.78L111.81 432.43L111.1 431.6L110.44 432.11L110.54 430.71L109.91 430.33L109.64 429.64L110.33 429.35L110.52 429.57L110.22 429.8L110.57 430.29ZM62.25 470.71L61.36 470.21L61.1 469.71L62.55 469.33L63.34 470.25L62.96 470.74L63.1 471.45L62.44 471.15L62.25 470.71ZM126.6 425.63L125.4 427.5L124.82 427.72L124.33 427.34L124.38 426.61L124.99 426.54L126.19 425.4L126.6 425.63ZM30.11 503.47L30.12 502.8L30.43 503.17L30.63 502.44L31.53 502.83L31.77 503.53L30.57 503.8L30.11 503.47ZM85.52 454.97L86.42 453.94L86.92 453.85L86.33 454.95L84.87 456.12L85.52 454.97ZM82.88 461.76L83.12 462.3L81.82 462.34L81.56 462.11L81.77 461.69L82.88 461.76ZM73.85 472.89L74.14 473.13V473.68L73.88 473.89L73.97 474.39L73.52 474.8L73.46 473.82L73.85 472.89ZM85.28 456.89L85.67 457.34L85.6 457.81L85.32 457.89L84.76 457.3L85.28 456.89ZM7.7 515.57L8.26 515.82L7.95 516.35L7.48 515.94L7.7 515.57ZM72.94 472.38L73.36 472.59L72.88 473.05L72.39 472.9L72.94 472.38Z" fill="#CCCCCC" stroke="white" stroke-width="0.5"/>
<path d="M232.82 284L233.19 283.2L232.55 283.06L232.52 282.25L232.82 281.74L233.56 281.31L233.1 281.08L233.64 279.87L233.49 278.44L232.75 277.2L233.22 275.16L232.79 274.91L233.7 274.4L232.74 274.26L231.34 273.45L231.58 273.09L231.5 272.12L231.1 271.88L231.39 271.57L231.82 271.62L232.01 272.36L234.17 272.96L234.24 274.12L234.49 274.01L235.18 274.74L235.97 274.48L235.59 274.06L235.85 273.38L236.6 273.4V274.01L237.84 275.16L238.14 276.22L239.17 277.38L238.88 278L238.53 277.94L238.38 279.3L237.87 279.74L237.36 282.11L237.74 282.19L237.95 282.64L237.38 283.54L237.91 284.8L237.99 285.96L237.8 287.06L237.19 287.43L235.9 287.61L234.7 288.41L233.08 288.27L231.02 289.01L229.39 289.1L228.16 289.89L227.12 290.07L226.69 290.03L226.56 289.15L226.29 289.06L228.86 288.21L230.7 286.53L231.67 285.04L232.82 284Z" fill="#CCCCCC" stroke="white" stroke-width="0.5"/>
<path d="M205.35 282.93L203.94 284.02L203.47 285.74L201.51 285.2L200.99 285.54L199.15 285.2L198.53 284.42L196.93 284.71L196.66 285.02L196.9 285.24L194.68 286L193.99 285.16L193.87 283.42L192.66 281.77L192.67 280.39L192.26 278.49L192.55 277.37L190.95 275.37L190.96 273.77L191.42 272.56L190.41 271.34L190.77 271.09L191.01 270.25L191.39 270.47L193.2 269.84L192.87 268.65L193.14 268.27L193.92 268.6L195.13 268.11L195.34 267.61L195.13 267.13L196.09 266.88L196.87 264.45L198.57 265.08L199.84 265.09L200.91 265.83L201.43 266.74L202.09 266.24L202.29 265.7L203.45 265.21L203.48 264.73L204.98 264.3L204.83 265.19L205.02 265.36L205.81 265.57L206.75 265.4L207.44 265.99L207.66 266.41L207.54 267.02L208.03 267.33L207.84 268.04L208.35 268.67L209.83 267.75L210.37 268.02L211.06 267.89L212.45 266.73L212.75 266.96L212.31 267.76L212.94 268.42L212.86 269.2L212.19 269.13L211.95 269.39L211.71 270.49L211.12 270.74L211.06 271.67L210.14 272.21L210.34 272.8L210.19 273.71L209.84 274.03L210.52 274.88L209.82 276.19L210 276.66L211.08 277.62L211.62 278.99L211.12 279.32L210.92 279.04L210.26 279.03L208.5 281.01L208.13 281.9L207.15 282.49L205.87 282.55L205.35 282.93ZM210.61 285.77L210.24 285.83L210.92 285.12L210.06 285.32L209.39 286.61L209.16 286.02L209.53 285.53L209.42 285.29L208.92 285L207.75 285.5L207.54 285.25L207.99 284.39L211.67 283.04L211.55 283.51L211.85 283.85L211.45 286.1L211.05 285.58L210.61 285.77Z" fill="#CCCCCC" stroke="white" stroke-width="0.5"/>
<path d="M142.59 317.55L142.94 317.3L143.42 315.92L142.58 315.19L142.61 314.57L142.25 314.38L142.37 314L142.89 313.74L143.03 313.1L142.74 312.15L142.44 311.99L142.91 311.3L143.4 311.17L143.7 309.52L145.31 308.14L146.24 307.91L147.21 308.18L149.12 308.07L148.99 307.61L149.38 307.09L149.08 306.29L149.23 305.92L149.55 305.49L151.33 306.4L153.9 306.52L153.99 306.07L154.99 305.17L155.48 304.21L157.16 303.71L158.76 304.52L160.01 306.19L160.28 307.27L160.19 309.06L159.87 309.21L159.47 310.42L158.1 310.02L157.92 310.31L158.42 310.96L158.3 311.18L157.39 311.28L157.18 311.87L156.45 311.76L156.21 311.34L155.5 311.49L155.38 312.2L155.73 313.7L157.23 314.21L159.11 313.4L160.45 314.36L163.41 313.69L162.05 315.72L161.55 316.98L162.25 317.29L163.33 316.8L163.65 317.08L162.96 317.42L162.56 318.1L163.55 318.39L163.85 318.42L164.14 317.71L164.73 318.55L165.09 318.38L165.06 317.87L165.35 317.73L165.42 318.53L164.92 318.89L163.89 318.78L163.14 320.16L163.26 320.44L163.84 320.63L164.09 321.09L164.81 320.83L165.26 321.2L166.9 321.27L166.97 321.53L164.86 321.8L165.03 322.57L165.64 322.55L164.83 323.31L165.49 324.01L164.06 325.03L163.14 324.56L162.89 326.09L162.33 326.08L162.59 324.52L160.95 323.9L160.15 324.05L160 324.79L159.51 325.37L157.28 325.35L156.76 325.79L155.86 325.49L155.67 325.2L155.85 324.73L155.02 323.87L153 324.57L152.62 324.56L152.14 323.98L150.74 322.71L150.53 320.44L149.94 318.82L149.08 318.04L148.89 316.87L147.85 315.78L146.44 315.52L145.42 316.08L145.29 316.82L146.12 318.03L145.94 318.88L145.45 319.51L145.07 319.5L144.67 318.87L144.04 318.82L143.44 318.03L142.57 317.86L142.59 317.55Z" fill="#CCCCCC" stroke="white" stroke-width="0.5"/>
<path d="M122.07 312.26L122.74 313.22L122.9 312.3L122.71 312.11L123.38 310.72L121.63 309.38L122.11 309.23L121.85 308.89L122.12 308.57L122.51 308.71L122.86 309.51L123.14 309.29L122.58 308.11L122.55 307.79L123.09 307.76L122.89 306.88L123.53 307.36L123.85 307.32L123.87 307.05L124.55 307.02L124.58 307.36L125.32 307.99L124.69 308.73L125.3 309.27L126.44 309.46L126.72 309.3L126.67 308.97L129.3 309.05L129.99 308.73L130.85 308.97L131.32 308.76L133.02 309.83L133.79 310L134.41 310.71L135.4 309.76L136.14 309.51L136.55 309.72L136.53 311.97L136.02 311.94L135.51 312.8L133.66 314.22L133.07 315.26L132.9 316.49L131.59 316.48L131.39 315.96L130.51 315.38L130.32 316.04L128.53 317.48L130.31 320.54L130.35 320.95L129.93 320.98L127.13 320.3L125.58 318.65L124.43 317.88L124.48 317.52L125 317.42L125.1 317L124.74 316.13L123.72 316.23L122.34 315.65L122.31 314.39L121.26 313.01L121.85 312.02L122.07 312.26ZM120.46 303.28L119.85 303.25L119.46 302.15L119.09 302.65L118.88 301.91L119.22 301.41L119.03 301.02L120.09 299.68L121.46 300.18L121.2 301.03L121.72 301.48L121.15 301.77L121.93 302.04L121.76 302.58L120.67 302.63L120.46 303.28ZM120.7 309.93L121.07 308.93L121.85 309.88L121.24 309.82L121.16 310.24L120.68 310.47L120.38 310.17L120.7 309.93Z" fill="#CCCCCC" stroke="white" stroke-width="0.5"/>
<path d="M252.41 267.48L252.48 268.33L253.19 269.06L252.46 271.56L252.42 272.94L251.64 274.04L251.43 274.96L249.09 276.09L247.76 275.43L246.74 275.44L246.41 275.06L245.94 275.45L246.01 275.71L246.63 275.75L246.71 276.01L245.94 276.63L246.01 277.15L244.67 277.7L244.52 277.29L244.78 277.03L244.17 276.43L243.77 276.58L243.47 276.21L243.16 276.26L243.03 275.38L242.3 275.76L241.59 275.29L241.83 274.22L240.94 272.71L240.65 271.54L240.99 271.29L241.3 269.55L240.87 267.44L241.25 266L240.83 266.01L239.65 264.17L240.1 263.43L240.47 263.33L240.53 262.83H241.18L241.53 263.23L242.1 262.95L243.14 260.19L243.91 260.96L244.37 260.86L244.83 259.98L246.12 259.86L246.47 258.79L247.57 259.11L247.71 258.36L246.88 256.6L247.19 255.93L247.86 255.8L249.67 256.73L249.93 257.8L250.59 257.87L250.47 259.47L251.25 259.76L251.56 259.26L252.11 259.97L251.87 260.86L252.5 261.5L252.41 262.5L252.94 263.35L252.39 263.79L252.35 265.13L252.03 265.65L252.01 266.58L251.69 266.79L252.41 267.48Z" fill="#CCCCCC" stroke="white" stroke-width="0.5"/>
<path d="M171.44 271.28L171.72 270.49L172.95 269.56L173.03 268.89L173.53 268.22L176.04 266.42L177.46 265.88L178.02 265.37L178.43 264.59L178.56 262.98L177.6 262.59L177.7 262.22L178.82 261.76L179.32 262.06L180.17 261.89L180.28 261.68L179.66 261.33L181.1 261.03L181.34 260.71L183.47 260.2L184.47 260.24L184.4 259.59L185.57 259.71L185.98 258.75L186.91 258.11L187.82 259.17L188.9 259L189.31 258.67L191.47 258.99L190.26 259.29L189.85 259.8L190.34 260.79L191.48 261.47L191.32 263.91L190.9 264.53L191.17 266.16L188.07 267.54L188.09 267.83L188.7 267.96L188.93 268.65L188.04 269.35L187.87 270.89L187.29 270.67L185.87 271.09L184.89 270.3L184.1 270.92L182.95 270.22L182.55 270.29L180.15 273.62L178.96 273.87L178.11 274.87L178.49 275.34L179.18 275.55L179.19 276.42L177.43 276.56L175.96 277.62L174.33 277.49L174.08 277.08L173.67 277.22L173.74 277.47L173.23 277.9L172.71 277.48L171.47 277.61L171.26 278.05L170.86 277.57L170.07 277.46L169.76 278.6L168.31 279.46L168.01 279.94L168.56 280.28L167.86 281.31L167.65 283.09L167.02 283.77L166.42 283.95L166.12 284.59L166.61 285.22L165.8 285.67L165.32 286.38L165.17 286.69L165.6 287.58L164.48 289.16L163.79 288.53L162.85 289.23L161.8 289.33L160.93 288.47L160.76 287.7L161.31 286.16L159.44 286.2L158.83 284.55L159.49 283.91L159.51 283.09L159.94 282.93L159.11 280.39L160.26 280.42L161.77 279.97L163.1 278.45L164.23 277.63L164.46 276.97L165.09 276.77L166.25 275.53L167 274.29L169.86 271.91L171.44 271.28ZM189.54 243.95L189.15 243.45L188.67 243.38L188.84 242.57L188.54 242.4L188.62 241.53L189.49 240.54L190.57 240.23L191.36 240.56L192.65 242.02L192.35 243.52L191.9 243.71L191.8 243.15L191.66 243.6L191.08 243.69L191.68 243.83L191.79 244.39L191.53 244.46L189.74 244.51L189.88 244.08L189.54 243.95ZM143.52 210.76L143.84 210.57L144.05 210.79L143.83 211.11L143.93 212.08L143.17 212.96L141.88 212.42L141.54 211.46L142.15 211.05L143.52 210.76ZM186.58 245.07L186.85 245.16L186.76 245.49L185.83 245.95L186.16 246.45L185.94 247.08L185.5 247.02L185.13 246.31L184.78 246.28L184.59 246.51L185.02 247.63L183.99 246.99L184.62 245.75L185.33 245.7L185.31 245.24L185.99 245.41L186.58 245.07ZM187.72 246.45L186.4 247.71L186.62 246.88L186.31 246.08L186.57 245.9L186.83 246.2L186.9 245.7L187.27 245.62L187.66 245.84L187.72 246.45ZM185.13 247.74L186.48 248.27L186.34 248.62L185.16 248.46L185.13 247.74Z" fill="#CCCCCC" stroke="white" stroke-width="0.5"/>
<path d="M298 250.81L298.2 250.29L297.68 249.24L297.78 248.78L298.53 247.77L299.76 247.75L300.68 246.74L302.2 246.34L302.66 245.56L304.19 245.49L304.61 244.73L304.63 243.8L305.86 241.83L306.56 241.88L308.25 242.74L308.85 242.59L309.82 242.88L310.68 242.67L312.49 244.01L315.03 243.53L315.55 244.01L316.04 243.83L316.35 243.25L317.19 243.66L317.02 244.55L317.88 246.51L318.27 246.61L318.66 246.26L319.37 247.66L319.43 248.7L321.1 251.92L320.88 253.25L320.53 253.52L319.61 253.59L319.44 253.17L318.92 253.31L318.47 253.03L318.06 253.77L316.28 253.46L315.61 254.26L315.06 253.97L314.15 254.34L313.87 253.47L312.28 254.22L311.03 254.25L310.5 253.65L309.72 253.5L309.31 252.63L307.21 252.48L306.18 251.92L304.52 251.64L303.82 251.1L302.43 251.68L302.25 252.12L301.16 252.41L300.47 251.88L299.31 251.68L299.02 251.04L298 250.81Z" fill="#CCCCCC" stroke="white" stroke-width="0.5"/>
<path d="M305.53 275.72L304.46 277.77L303.23 278.79L302.75 280.05L303.04 280.81L302.59 280.98L302.11 280.73L301.7 280.92L301.5 281.44L300.24 282.18L299.86 282.04L298.78 281.02L299.01 280.73L298.87 280.36L298.14 280.03L298.15 279.22L298.89 278.49L298.41 277.41L298.68 277.21L298.48 275.42L299.15 274.81L298.61 273.28L299.1 272.05L301.15 272.21L301.42 271.5L299.64 269.91L297.32 269.4L294.58 270.22L293.68 271.79L294.08 272.29L293.86 272.89L290.79 274.55L289.99 275.89L290.17 276.89L289.48 278.12L287.96 279.27L287.42 280.64L287.43 281.36L288.18 282.07L288.09 282.29L283.62 280.71L281.56 280.64L279.72 281.09L277.06 280.48L273.5 280.41L273.34 278.09L273.77 276.86L276.52 275.32L277.8 273.4L277.83 272.34L279.29 270.34L279.76 270.1L279.68 269.63L280.25 269.05L279.74 268.55L280.05 267.57L281.12 267.46L281.58 266.53L282.09 266.52L282.3 266.09L283.58 265.45L284.79 264.44L286.44 263.81L286.58 263.09L286.05 262.42V261.75L286.79 261.49L286.37 260.18L286.78 259.62L286.45 259.36L287.01 258.71L287.37 258.85L287.95 257.21L288.89 260.39L288.51 261.57L288.74 262.64L288.28 263.57L288.61 264.87L289.29 265.38L290.05 264.86L290.81 265.22L291.5 267.91L292.19 268.41L293.43 268.53L294.15 267.9L293.75 265.24L294.18 264.63L294.13 262.92L295.12 262.01L295.69 263.27L296.72 263.15L297.17 264.12L299.97 263.65L300.34 263.38L301.04 263.45L301.71 263.06L303.22 263.03L303.37 263.27L303.72 264.79L303.44 265.76L302.87 266.38L303.11 267.9L303.81 268.44L303.94 269.12L305.46 269.33L304.79 270.3L304.65 271.31L305.28 271.56L305.15 272.89L306.18 273.72L306.07 275.25L305.53 275.72Z" fill="#CCCCCC" stroke="white" stroke-width="0.5"/>
<path d="M328.14 225.75L328.05 227.74L328.32 228.73L328.1 230.03L328.72 231.03L328.63 231.35L327.68 231.56L327.4 231.94L327.97 233.89L327.99 235.7L327.07 237.56L326.86 238.73L326.19 238.93L325.91 238.54L325.46 238.56L325.05 239.03L324.37 238.79L324.32 239.31L324.06 239.44L322.5 239.52L322.37 239.97L321.37 240.44L321.25 241.32L320.12 241.04L319.56 242.73L317.92 243.6L317.19 243.66L316.35 243.25L315.84 242.46L315.93 242.18L315.55 241.94L314.44 242.12L313.73 241.69L312.72 241.98L311.61 241.01L311.65 240.43L310.6 239.65L310.78 238.69L311.97 237.14L311.64 236.38L312.04 235.18L312.86 234.53L312.52 233.85L311.29 233.92L309.82 233.18L310 231.81L310.59 230.92L310.31 229.75L311.33 228.34L310.31 227.9L310.89 226.36L311.83 225.93L312.54 224.91L313.89 224.67L314.81 223.92L315.44 223.83L315.67 223.4L316.46 223.2L316.72 222.79L319.52 221.92L319.7 221.01L321.06 220.42L323.48 220.7L325.87 221.7L326.89 222.68L327.12 223.61L327.97 223.56L327.81 225.42L328.14 225.75Z" fill="#CCCCCC" stroke="white" stroke-width="0.5"/>
<path d="M311.04 280.13L310.36 279.74L310.22 279.33L310.16 277.94L310.39 277.44L311.61 277.87L312.13 278.79L311.97 280.29L311.04 280.13ZM308.93 286.28L308.6 288.57L308.11 288.17L308.05 287.65L308.93 286.28ZM307.51 288.47L307.76 288.74L307.15 288.94L307.51 288.47ZM319.83 257.39L319.01 257.33L318.81 256.4L318.31 256.84L318.01 258.4L318.33 259.15L318.58 259L319.02 259.71L318.15 259.51L317.22 259.8L317.21 259.42L316.73 259.19L316.4 258.52L313.72 257.25L312.96 258.16L312.47 257.69L312.25 257.92L313.04 258.54L312.85 260.56L312.55 260.59L311.2 258.7L309.05 258L308.19 258.16L307.6 257.17L306.99 257.2L306.53 256.65L305.93 256.52L303.83 255.36L302.25 252.12L302.44 251.68L303.82 251.1L304.53 251.64L306.19 251.93L307.22 252.49L309.32 252.64L309.73 253.51L310.51 253.67L311.04 254.27L312.29 254.23L313.88 253.48L314.16 254.35L315.08 253.98L315.63 254.27L316.3 253.47L318.08 253.79L318.49 253.04L318.94 253.32L319.46 253.18L319.63 253.6L320.56 253.53L321.64 255.79L321.99 256.55L321.43 256.87L321.83 257.25L321 257.82L319.83 257.39ZM314.21 295.01L314.48 294.55L314.45 294.02L313.93 293.49L313 293.6L312.6 294.6L312.78 295.23L313.47 295.32L314.21 295.01ZM318.71 318.32L319.68 318.92L319.83 318.22L320.22 318.13L319.97 317.22L319.42 317.17L318.54 316.27L318.06 316.28L317.9 317L318.18 317.56L318.6 317.69L318.71 318.32ZM318.71 318.32L319.68 318.92L319.83 318.22L320.22 318.13L319.97 317.22L319.42 317.17L318.54 316.27L318.06 316.28L317.9 317L318.18 317.56L318.6 317.69L318.71 318.32Z" fill="#CCCCCC" stroke="white" stroke-width="0.5"/>
<path d="M219.07 300.62L216.98 301.49L216.09 302.26L215.91 302.77L214.66 303.68L213.47 304.38L212.55 304.57L211.91 306.36L211.02 306.32L210.81 306.79L211.07 306.93L210.77 307.11L208.66 306.89L207.88 305.7L207.78 305.23L208.25 304.69L208.02 303.89L206.05 303.84L205.95 301.84L205.44 300.58L204.74 300.75L204.49 300.29L204.1 300.42L203.68 301.23L203.07 301.43L202.28 301.11L201.63 300.21L199.82 300.38L198.48 299.86L198.11 299.32L198.67 298.42V297.38L198.4 296.89L198.69 296.21L199.31 295.99L199.45 295.48L200.45 294.64L201.03 294.83L201.31 294.33L202.07 294.04L203.45 293.79L204.31 294.76H204.78L205.95 293.85L207.19 293.71L207.51 293.37L207.45 292.95L208.19 292.37L209.89 292.19L211.52 292.45L211.8 292.15L212.89 292.73L213.31 292.51L213.47 291.55L216.28 290.76V291.7L217.03 292.19L216.31 295.15L216.4 296.25L216.88 296.78L217.24 296.22L217.83 297.29L218.46 297.65L217.94 298.04L218.64 298.23L218.5 298.69L217.21 299.63L217.12 299.96L217.39 300.17L219.37 300.21L219.51 300.42L219.07 300.62Z" fill="#CCCCCC" stroke="white" stroke-width="0.5"/>
<path d="M191.49 261.46L192.95 261.75L193.42 261.59L193.89 260.73L194.87 260.23L196.67 259.85L198.11 260.43L199.91 260.6L203.28 260.37L203.95 260L205.35 260.17L207.2 259.97L209.98 259.23L210.54 258.46L211.3 258.41L211.43 258.02L212.04 257.89L212.73 258.41L213.11 259.18L212.99 260.2L213.48 262.08L214.21 262.42L214.12 263.5L214.85 264.46L214.7 264.89L214.96 266.05L213.32 267.2L212.74 266.94L212.44 266.71L211.05 267.87L210.36 268L209.82 267.73L208.34 268.65L207.83 268.02L208.02 267.31L207.53 267L207.65 266.39L207.43 265.97L206.74 265.38L205.8 265.55L205.01 265.34L204.82 265.17L204.97 264.28L203.47 264.71L203.44 265.19L202.28 265.68L202.08 266.22L201.42 266.72L200.9 265.81L199.83 265.07L198.56 265.06L196.86 264.43L196.08 266.86L195.12 267.11L195.33 267.59L195.12 268.09L193.91 268.58L193.13 268.25L192.86 268.63L193.19 269.82L191.38 270.45L191 270.23L190.76 271.07L190.4 271.32L189.98 270.82L187.88 271.14V270.88L188.05 269.34L188.94 268.64L188.71 267.95L188.1 267.82L188.08 267.53L191.18 266.15L190.91 264.52L191.33 263.9L191.49 261.46Z" fill="#CCCCCC" stroke="white" stroke-width="0.5"/>
<path d="M266.22 229.41L267.53 230.09L268.51 229.86L270.45 229.95L271.62 228.84L271.98 227.83L271.95 226.62L272.32 225.91L273.66 225.2L276.44 224.6L277.14 225.41L277.96 225.66L277.99 226.86L278.38 227.46V228.23L278.97 229.91L278.77 234.09L277.59 234.79L277.48 235.56L277.69 235.52L277.81 236.01L277.2 236.18L276.81 236.71L276.83 237.46L276.41 238.27L275.51 239.13L274.57 239.06L273.73 238.24L273.02 238.58L271.89 238.23L271.61 237.45L270.26 238.25L270.05 238.21L270.01 237.33L269.42 237.28L267.96 237.97L267.71 237.53L267.16 237.55L265.08 239.57L264.83 240.72L263.44 241.94L263.1 241.86L263.36 241.13L263.02 240.36L262.1 239.85L261.75 240.21L261.5 239.62L260.73 240.18L260.44 241.24L259.86 241.32L259.71 240.43L260.03 240.01L259.58 238.12L260.33 235.17L259.87 234.59L259.68 233.46L260.45 232.23L260.22 231.77L260.38 230.8L260.93 230.15L261.53 226.66L262.93 225.29L263.66 225.03L264.9 225.13L263.57 227.42L264.99 228.98L265.68 229.48L266.22 229.41Z" fill="#CCCCCC" stroke="white" stroke-width="0.5"/>
<path d="M240.73 307.89L240.19 308.27L239.87 308.96L239.96 309.67L239.48 309.75L239.23 309.4L239.55 308.65L238.76 308.76L236.88 308.01L234.53 307.63L232.51 306.42L232.1 305.68L232.25 304.89L230.98 304.26L231.96 303.73L232.21 303.16L230.77 301.94L228.15 300.73L227.47 299.32L226.7 298.94L225.59 299.26L225.8 296.93L227.37 296.29L227.86 295.66L227.13 294.9L226.01 294.65L226.62 294.01L226.92 293.18L227.79 293.25L228.09 292.9L227.96 292.15L227.21 291.95L226.78 290.73L225.78 289.65L225.91 289.17L226.27 289.03L226.54 289.12L226.67 290L227.1 290.04L228.14 289.86L229.37 289.07L231 288.98L233.06 288.24L234.68 288.38L235.88 287.58L237.17 287.4L237.57 288.08L237.77 289.8L238.66 290.3L238.87 290.96L238.48 291.56L237.67 291.19L237.12 291.46L237.13 292.17L236.75 292.74L235.26 294.19L235.13 294.73L236.27 295.69L236.21 296.22L236.79 296.43L237.07 296.94L236.36 298.77L236.74 298.9L236.95 299.47L238.1 298.79L238.76 298.8L239.42 299.21L241.43 298.87L241.36 300.79L243.06 302.73L244.35 303L244.02 303.45L243.87 304.6L242.91 304.86L242.68 305.71L243.4 305.99L243.33 306.34L241.25 307.8L240.73 307.89Z" fill="#CCCCCC" stroke="white" stroke-width="0.5"/>
<path d="M155.68 295.88L155.09 295.47L154.74 296.35L154 296.7L153.71 296.5L153.86 295.91L153.42 295.77L152.65 297.23L150.93 298.26L148.75 297.48L148.83 296.69L146.57 295.41L145.88 295.79L145.56 296.67L143.72 298.45L143.53 297.86L143.99 296.99L143.96 295.31L142.9 293.79L143.02 293.18L143.77 293.05L144.32 291.94L144.08 290.73L143.01 289.56L143.31 289.4L143.69 288.03L146.33 287.62L146.03 287.14L144.81 286.76L145.09 285.94L146.01 286.68L147.09 286.34L147.61 286.49L148.7 287.6L151.66 287.34L152.28 286.51L153.3 286.54L154.74 284.86L154.47 284.2L154.82 283.64L155.52 283.78L156.22 283.07L156.56 282.65L156.59 281.79L157.05 281.68L157.43 280.8L157.68 280.57L158.65 280.86L159.12 280.37L159.95 282.91L159.52 283.07L159.5 283.89L158.84 284.53L159.45 286.18L161.32 286.14L160.77 287.68L160.94 288.45L161.81 289.31L162.86 289.21L163.8 288.51L164.49 289.14L165.61 287.56L165.18 286.67L165.33 286.36L165.81 285.65L166.62 285.2L166.92 285.88L166.75 286.69L166.99 288.05L167.91 288.83L167.83 289.46L168.33 290.92L169.61 291.23L169.94 291.04L170.18 291.53L169.89 292.05L170.26 292.52L169.28 293.43L169.52 296.39L168.95 297.35L167.86 297.47L167.87 299.09L168.45 299.77L168.12 300.4L167.63 299.33L166.2 298.6L165.83 298.77L162.22 296.01L161.75 296.61L161.72 297.16L160.81 296.96L161.93 295.78L160.68 295.07L160.16 294.99L158.34 295.54L156.24 296.5L155.68 295.88ZM170.82 299.5L169.92 299.36L169.4 299.82L168.82 298.95L168.76 298.16L169.94 297.21L171.3 298.34L172.28 298.4L173.54 297.55L174.64 297.61L173.38 298.57L172.67 298.56L172.48 298.87L172.67 299.7L171.8 299.8L171.7 298.98L171.26 298.88L170.72 298.97L170.82 299.5Z" fill="#CCCCCC" stroke="white" stroke-width="0.5"/>
<path d="M305.92 256.52L305.9 259.13L305.56 259.83L305.07 260.35L304.36 260.45L303.9 261.1L302.11 261.93L301.71 263.06L301.04 263.45L300.34 263.38L299.97 263.65L297.17 264.12L296.72 263.15L295.69 263.27L295.12 262.01L294.13 262.92L294.18 264.63L293.75 265.24L294.15 267.9L293.43 268.53L292.19 268.41L291.5 267.91L290.81 265.22L290.05 264.86L289.29 265.38L288.61 264.87L288.28 263.57L288.74 262.64L288.51 261.57L288.89 260.39L287.95 257.21L287.22 255.44L288.22 254.34L287.34 253.48L288.31 251.51L288.51 251.39L289.23 252.01L291 249.3L292.43 249.88L292.42 250.55L292.9 251.08L293.38 250.99L293.6 250.58L295.36 250.61L295.9 251.75L296.87 251.74L297.6 250.8L298 250.81L299.02 251.04L299.31 251.68L300.47 251.88L301.16 252.41L302.25 252.12L303.82 255.36L305.92 256.52Z" fill="#CCCCCC" stroke="white" stroke-width="0.5"/>
<path d="M328.58 200.04L328.28 201.75L328.32 203.76L328.87 204.17L327.54 205.78L326.24 205.52L325.5 206.08L324.03 204.96L322.8 205.42L321.83 203.74L321.5 204.09L320.87 204.16L320.26 203.77L319.32 204.35L318.69 203.67L317.9 203.85L317.45 203.08L317 203.21L316.34 202.89L315.68 201.73L316.27 198.56L316.96 198.05L316.61 197.29L316.95 196.47L316.79 195.16L317.31 194.34L318.89 194.56L320.26 193.7L321.05 192.11L319.9 190.88L318.06 190.4L317.26 189.27L317.66 187.28L317.42 186.99L315.94 186.67L314.13 185.71L315.3 182.63L317.04 181.12L318.18 179.62L319.31 175.54L319.92 174.5L320.62 171.86L320.44 171.28L322.95 171.69L323.32 171.23L324.3 170.99L324.5 172.16L325.21 172.34L326 173.04L329.08 173.98L330.16 173.71L330.51 174.48L331.57 174.56L332.15 176.36L333.67 176.89L333.91 177.34L333.68 177.69L334.74 178.71L334.93 179.77L335.76 180.22L335.08 181.32L335.3 182.29L334.87 183.44L334.47 183.54L333.81 183.19L333.71 183.42L334.32 184.79L334.35 185.33L333.97 185.98L334.24 186.89L334.84 187.28L335.04 187.98L334.43 189.58L333.34 190.72L333.5 191.32L332.45 192.64L332.29 193.66L332.52 194.89L331.41 196.47L331.22 197.49L330.23 198.04L328.51 198.05L328.58 200.04Z" fill="#CCCCCC" stroke="white" stroke-width="0.5"/>
</svg>
