<svg width="801" height="790" viewBox="0 0 801 790" fill="none" xmlns="http://www.w3.org/2000/svg">
<path d="M358.06 426.27L350.04 428.75L347.37 432.45L353.79 436.14L358.59 444.75L360.2 452.14L361.81 458.92V462.62L370.89 463.22L377.84 461.39L381.57 462.62L378.37 470.01L379.98 476.17L382.64 482.94V485.42H375.7L369.82 488.49L370.89 494.05V502.68L384.25 503.29L391.74 503.91L400.83 505.14L409.38 510.08L414.2 516.24L419 520.57L423.82 524.27L427.02 519.94L430.23 516.24L427.55 508.84L421.14 498.98L417.93 492.82L415.27 487.89L410.45 486.03L406.17 483.56L405.58 480.82L400.69 457.69L395.76 448.7L404.04 438.6L396.01 429.98L389.02 429.03L375.7 426.9H368.22L358.06 426.27ZM99.68 357.7L98.88 357.51L97.36 359.13L86.67 365.44L79.68 368.41L70.45 370.32L64.58 373.56L61.26 374.8L51.62 375.82L42.36 379.56L40.59 380.77L29.97 392.05L28.48 393.1L25.8 391.93L24.95 389.59L23.93 387.64L20.71 387.72L18.95 389.32L16.43 395.41L14.2 398.26L11.11 393.77H7.65L5.17 397.32L5.03 403.41L1 412.78L3.64 414.07L8.34 417.9L12.65 420.32L17.03 424.22L26.6 438.72L29.4 444.34V444.38H29.43L56.54 509.24L61.92 507.16L84.55 496.24L93.86 489.02L96.2 488.2L97.78 488.55L99.72 489.74L102.33 490.61L109 490.1L111.9 489.08L114.14 487.26L115.92 485.3L119.04 482.88L123.98 481.94L126.93 482.76L128.46 484.83L128.35 487.26L122.7 502.93L121.79 506.32L120.87 513.29V519.81L121.58 525.15L122.5 529.38L123.67 533.1L126.22 538.94L126.67 539.82L127.79 541.02L136.19 547.13L143.23 553.87L145.62 554.46L147.46 554.24L150.46 552.58L152.7 551.75L154.23 550.54L155.19 549.25L156.53 546.21L157.25 544.97L158.06 543.9L171.75 530.13L172.67 528.72L173.55 526.74L174.06 524.74L174.62 523.55L175.94 522.43L177.62 521.28L179.4 519.75L180.78 518.22L181.69 516.58L182.35 514.83L183.93 508.77L184.59 508.59L185.61 509.47L187.09 511.53L190.19 513.25L194.43 513.64L201.46 512.88L205.58 513.4L208.48 515.11L213.18 522.57L215.16 525.19L217.35 527.48L220.66 529.62H223.77L227.43 528.09L230.65 525.74L236.18 525.5L240.98 524.27L243.67 518.1L250.08 514.4L255.42 519.34L262.9 523.64L269.86 521.8L275.2 515.64L276.27 510.68L274.66 502.68L280.55 503.29L286.43 510.68L290.17 516.24L292.3 510.68L293.37 501.45L297.12 496.51L302.99 500.21L308.34 506.38H316.9H324.91L333.46 511.92L342.03 514.4L346.83 515.64L347.37 506.98L354.23 502.93L350.97 500.15L349.9 497.63L347.41 494.6L343.33 492.44L328.51 490.39L323.32 488.84L316.12 483.35L308.79 479.85L266.47 471.63L259.43 469.23L246.53 469.13L219.08 473.12L215.37 471.22L214.86 468.58L217.4 465.43L220.61 462.23L222.29 457.81L222.03 452.43L206.09 426.18L202.68 423.54L199.27 422.8L188.87 423.15L181.13 421.16L177.42 417.76L176.04 413.78L176.25 405.17L175.38 402.08L173.79 401.63L171.85 402.9L166.2 410.09L164.78 411.32L162.89 412.39L154.23 414.93L151.07 414.95L148.53 414.58L143.59 413.13L141.25 411.49L139.77 409.11L139.67 406.42L139.01 403.02L137.38 398.74L129.02 389.22L126.67 385.24L125.4 381.57L121.33 374.34L120.31 371.18L119.29 364.62L117.87 361.48L116.17 359.91L114.19 358.93L111.95 358.5L110.27 358.58L106.66 359.34L99.68 357.7Z" fill="#CCCCCC" stroke="white" stroke-width="0.5"/>
<path d="M517.142 291.9L513.532 291.61L508.802 289.86L492.542 280.83L481.792 276.78L472.572 274.7L469.322 274.47L465.642 273.03L462.432 269.99L454.292 253.38L445.362 227.79L441.492 220.11L440.382 216.36L440.222 212.65L440.432 209.29L440.172 206.67L438.852 204.63L436.712 203.35L434.322 202.59L429.112 201.66L425.902 201.53L422.602 202.05L418.882 203.12L415.422 206.56L410.212 219.35L411.282 224.93L413.892 228.66L415.062 230.76L416.082 233.09L417.812 238.73L422.342 249.83L422.392 255.72L420.872 259.55L418.272 262.66L403.952 273.49L402.372 275.21L399.632 279.6L398.612 281.53L395.352 286.69L377.572 303.31L374.352 305.08L370.172 306.75L367.632 307.1L365.802 309.07L364.272 312.25L363.052 315.85L362.282 319.06L361.932 322.61L362.282 326.31L361.422 331.88L362.032 335.11L363.102 337.51L364.982 339.69L365.952 341.29L366.812 342.26L368.902 343.16L369.562 344.72L370.122 346.67L370.892 348.11L373.532 349.28L374.702 350.92L375.572 353.78L384.032 402.65L383.632 406.57L384.092 409.87L389.022 429.03L396.012 429.98L404.042 438.6L395.762 448.7L400.692 457.69L405.582 480.82L406.172 483.56L410.452 486.03L415.272 487.89L417.932 492.82L421.142 498.98L427.552 495.28L433.962 494.66L438.782 493.42V487.89L440.392 481.7L448.402 478.63L454.812 481.7L460.702 479.87L468.722 474.94L477.272 469.38L484.762 466.92L493.312 465.69L496.512 461.39L505.842 454.25L511.392 452.16L514.602 451.97L518.922 452.14L525.612 453.69L534.772 457.3L541.082 460.94L547.152 465.51L549.492 467.82L551.222 470.28L552.192 473.12L552.452 476.44L551.842 483.66L551.992 486.75L552.752 489.14L554.282 491.15L556.112 492.62L557.542 493.29L561.692 491.39L564.122 488.86L566.212 486.16L568.552 483.82L571.682 482.35L574.812 482.53L577.892 483.52L581.032 483.88L584.342 482.13L586.902 477.42L586.022 472.65L583.932 468L584.442 467.88L587.502 467.17L594.272 467.12L599.072 468.07L603.492 469.99L621.172 484.52L626.012 486.65L631.302 487.26L638.042 486.36L643.282 484.7L648.162 482.13L653.272 476.42L655.612 472.22L656.932 468.01L659.532 444.81L661.362 441.86L664.522 440.1L671.302 441.75L682.352 446L689.082 446.71L694.002 445.46L694.172 445.41L694.222 444.38L700.352 433.09L704.502 422.39L709.832 412.94L719.372 405.36L744.642 397.51L748.342 392.79L748.272 386.55L748.782 380.66L754.142 376.95L749.462 371.1L747.212 362.09L747.222 360.6L747.072 360.57L741.642 359.61L740.222 359.89L738.792 360.59L731.002 366.55L728.972 367.78L719.792 370.57L716.582 372.17L710.482 378L708.852 378.61L705.782 377.91L703.332 376.25L698.852 371.76L696.262 367.8L692.592 360L689.022 356.75L683.772 353.65L674.002 349.63L663.652 346.59L660.652 346.55L658.052 347.18L653.152 349.73L650.202 350.51L646.942 350.66L643.182 350.37L627.022 351.21L622.602 350.9L607.672 346.14L602.432 345.42L587.802 346.47L585.512 345.89L584.242 343.39L584.042 342.11L584.192 340.74L583.462 339.59L587.752 335.44L590.452 331.14L592.182 325.53L592.792 317.81L592.032 302.2L592.532 294.45L592.552 294.41L590.752 293.89L589.382 292.52L586.942 291.3L581.592 290.13L577.662 289.68L574.252 289.74L572.262 290.5L571.142 291.82L570.072 293.54L568.342 294.53L566.152 293.52L561.322 286.92L558.662 284.9L553.972 283.2L551.072 281.45L549.902 278.67L550.672 276.28L553.972 270.26L563.412 248.49L564.582 243.39L564.472 239.52L563.002 235.79L561.372 233.23L559.572 231.73L557.232 232.49L553.672 234.94L534.772 251.25L526.222 256.07L513.122 259.08L513.382 263.13L513.942 264.51L515.362 267.02L524.642 279.37L526.882 281.45L530.602 284.27L531.922 286.1L532.272 287.44L531.262 288.81L529.372 290.19L526.932 291.06L517.142 291.9Z" fill="#CCCCCC" stroke="white" stroke-width="0.5"/>
<path d="M689.082 446.71L682.352 446L671.302 441.75L664.522 440.1L661.362 441.86L659.532 444.81L656.932 468.01L655.612 472.22L653.272 476.42L648.162 482.13L643.282 484.7L638.042 486.36L631.302 487.26L626.012 486.65L621.172 484.52L603.492 469.99L599.072 468.07L594.272 467.12L587.502 467.17L584.442 467.88L583.932 468L586.022 472.65L586.902 477.42L584.342 482.13L581.032 483.88L577.892 483.52L574.812 482.53L571.682 482.35L568.552 483.82L566.212 486.16L564.122 488.86L561.692 491.39L557.542 493.29L556.112 492.62L554.282 491.15L552.752 489.14L551.992 486.75L551.842 483.66L552.452 476.44L552.192 473.12L551.222 470.28L549.492 467.82L547.152 465.51L541.082 460.94L534.772 457.3L525.612 453.69L518.922 452.14L514.602 451.97L511.392 452.16L505.842 454.25L510.682 463.21L510.582 471.28L508.592 480.61L507.932 487.69L509.862 499.18L509.912 503.87L508.492 508.26L506.102 510.66L502.262 512.66L491.022 517.22L487.552 519.67L484.282 522.72L480.162 528.83L477.512 531.4L475.482 533.04L473.642 533.75L472.122 534.57L470.392 535.71L463.142 541.74L451.692 549.44L450.252 549.83L449.382 550.4L448.162 548.95L442.802 539.39L439.152 535.77L427.282 533.22L417.152 538.27L415.492 539.47L418.022 548.09L420.202 554.58L419.242 557.52L417.712 558.95L411.432 559.4L401.412 564.67L398.812 567.38L397.282 570.26L395.762 576.73L395.352 579.85V582.69L395.812 585.18L397.032 587.65L399.472 590.1L403.092 591.71L431.552 595.22L434.012 595.11L436.002 594.73L437.982 595.7L439.562 596.68L445.232 604.58L445.322 604.72L448.112 599.42L454.612 593.69L462.512 592.44L478.362 594.75L486.472 591.85L500.722 583.26L506.052 581.96L511.542 582.59L527.492 588.79L538.592 588.87L568.072 577.61L589.792 572.9L610.922 564.16L649.102 538.96L662.062 530.87L687.782 514.83L691.782 513.03L700.472 510.45L704.232 508.57L706.342 505.32L705.562 501.6L701.962 494.32L701.252 489L701.452 485.64L700.532 482.94L696.392 479.69L691.612 472.92L691.782 463.85L693.752 453.84L694.172 445.41L694.002 445.46L689.082 446.71Z" fill="#CCCCCC" stroke="white" stroke-width="0.5"/>
<path d="M610.591 76.67L610.521 76.6L605.561 73.58L600.391 71.63L600.081 72.5L597.131 94.61L597.441 102.7L598.101 104.79L598.861 106.03L599.631 107.04L600.441 107.86L601.151 108.84L601.361 110.14L601.051 111.86L598.961 114.65L597.341 116.19L588.361 120.23L586.781 127.75L584.041 133.35L582.921 138.49L580.371 175.22L578.061 183.01L575.621 188.54L570.731 194.11L543.541 219.22L540.061 221.8L536.911 223.12L530.541 224.64L526.881 226.8L523.161 230.16L518.161 236.03L515.621 240.83L514.391 245.51L514.141 252.47L513.121 259.08L526.221 256.07L534.771 251.25L553.671 234.94L557.231 232.49L559.571 231.73L561.371 233.23L563.001 235.79L564.471 239.52L564.581 243.39L563.411 248.49L553.971 270.26L550.671 276.28L549.901 278.67L551.071 281.45L553.971 283.2L558.661 284.9L561.321 286.92L566.151 293.52L568.341 294.53L570.071 293.54L571.141 291.82L572.261 290.5L574.251 289.74L577.661 289.68L581.591 290.13L586.941 291.3L589.381 292.52L590.751 293.89L592.551 294.41L592.531 294.45L592.031 302.2L592.791 317.81L592.181 325.53L590.451 331.14L587.751 335.44L583.461 339.59L584.191 340.74L584.041 342.11L584.241 343.39L585.511 345.89L587.801 346.47L602.431 345.42L607.671 346.14L622.601 350.9L627.021 351.21L643.181 350.37L646.941 350.66L650.201 350.51L653.151 349.73L658.051 347.18L660.651 346.55L663.651 346.59L674.001 349.63L683.771 353.65L689.021 356.75L692.591 360L696.261 367.8L698.851 371.76L703.331 376.25L705.781 377.91L708.851 378.61L710.481 378L716.581 372.17L719.791 370.57L728.971 367.78L731.001 366.55L738.791 360.59L740.221 359.89L741.641 359.61L747.071 360.57L747.221 360.6L747.321 352.42L749.701 344.51L756.621 337.41L765.881 333.32L775.661 330.28L784.311 326.46L788.041 323.66L790.791 320.31L792.321 316.1L792.091 310.65L792.711 304.73L798.781 296.01L799.981 290.52L798.971 288.34L794.591 283.98L793.131 281.68L792.791 278.96L793.101 273.2L792.791 270.91L789.471 262.78L780.301 250.29L776.711 237.04L774.231 230.66L769.721 225.57L764.581 221.65L760.901 217.14L759.231 195.51L749.261 191.31L736.131 190.96L725.301 187.66L698.231 158.95L686.931 153.75L679.531 151.77L675.191 148.79L673.291 144.02L673.191 136.65L670.181 132.89L663.111 129.52L655.371 127.38L650.591 127.66L632.541 109.09L619.341 85.74L615.131 80.63L610.591 76.67Z" fill="#CCCCCC" stroke="white" stroke-width="0.5"/>
<path d="M424.329 89.07L415.979 87.33L413.989 85.64L412.499 82.35L411.079 74.13L410.969 61.05L409.449 55.82L402.679 51.49L400.189 49.59L382.439 51.37L379.449 50.21L376.199 54.86L371.819 60.31L362.759 73.7L361.709 75.87L347.149 91.47L334.729 108.09L333.339 111.07L333.439 113.98L333.039 116.18L330.119 117.04H321.199L317.499 115.14L314.439 111.19L310.539 107.58L304.369 106.81L299.579 109.56L296.939 114.52L294.869 120.45L291.809 126.11L283.059 130.06L245.669 127.5L248.079 133.82L244.559 136.73L239.389 138.51L236.709 141.5L236.679 146.69L236.339 149.72L235.569 151.73L234.839 152.94L234.489 154.1L234.469 156.85L233.929 158.41L232.599 158.29L231.039 157.78L229.789 158.25L223.439 167.44L219.419 171.79L215.329 173.61L210.119 175.05L211.629 178.5L215.739 182.73L218.589 186.46L216.499 186.85L213.469 188.4L211.839 189.02L209.579 186.46L207.359 189.02L208.579 195.97H211.399L220.099 191.99L225.549 191.94L229.639 192.69L233.759 194.46L237.519 193.45L249.909 185.04L253.729 184.09L256.579 182.93L258.969 181.67L271.149 173.58L273.849 173.46L276.649 174.93L281.729 178.72L284.599 180.21L288.009 181.01L293.559 181.36L297.479 178.72L300.529 175.98L309.859 161.57L312.919 158.33L317.139 155.57L319.789 151.11L321.889 144.68L325.559 139.85L328.659 138.28L331.969 138.69L335.729 140.26L339.809 142.99L343.949 146.54L348.069 151.23L355.499 157.51L358.259 160.73L360.549 164.71L362.589 169.19L365.239 173.23L368.239 175.4L371.649 176.49L378.689 177.73L381.899 178.7L385.149 180.35L388.919 183.22L392.279 186.48L397.949 193.51L399.779 196.5L401.299 199.51L404.459 203.53L415.419 206.56L418.879 203.12L422.599 202.05L425.899 201.53L429.109 201.66L434.319 202.59L436.709 203.35L438.849 204.63L440.169 206.67L440.429 209.29L440.219 212.65L440.379 216.36L441.489 220.11L445.359 227.79L454.289 253.38L462.429 269.99L465.639 273.03L469.319 274.47L472.569 274.7L481.789 276.78L492.539 280.83L508.799 289.86L513.529 291.61L517.139 291.9L526.929 291.06L529.369 290.19L531.259 288.81L532.269 287.44L531.919 286.1L530.599 284.27L526.879 281.45L524.639 279.37L515.359 267.02L513.939 264.51L513.379 263.13L513.119 259.08L514.139 252.47L514.389 245.51L515.619 240.83L518.159 236.03L523.159 230.16L526.879 226.8L530.539 224.64L536.909 223.12L540.059 221.8L543.539 219.22L570.729 194.11L575.619 188.54L578.059 183.01L580.369 175.22L582.919 138.49L584.039 133.35L586.779 127.75L588.359 120.23L579.609 122.54L577.449 123.66L575.769 125.18L571.909 130.08L563.049 143.86L561.269 147.68L560.049 151.7L558.199 163.72L557.279 166.75L555.599 169.71L553.519 172.29L550.719 174.76L547.759 176.72L544.099 178.47L540.159 179.8L536.089 180.68L532.529 181.07L528.809 180.85L525.399 180.27L510.779 174.62L508.079 174.33L505.719 174.68L504.099 175.85L502.769 177.9L498.649 186.33L497.629 187.96L496.109 189.06L493.509 188.64L490.909 186.36L487.959 180.11L487.029 175.4L487.099 171.07L494.069 146.63L494.369 143.05L493.819 138.98L492.239 133.8L491.469 129.61L491.219 125.23L490.609 121.28L489.079 117.21L484.689 114.89L482.039 114.31L476.649 114.19L473.189 113.67L470.339 112.52L467.719 110.47L464.619 106.52L461.619 103.59L456.879 101.19L453.369 100.05L449.599 98.06L438.029 89.84L433.659 88.32L429.769 88.1L426.969 88.86L424.329 89.07Z" fill="#CCCCCC" stroke="white" stroke-width="0.5"/>
<path d="M536.821 1L531.941 1.62L513.241 14.37L506.731 15.95L461.021 19.01L454.301 21.83L447.921 28.25L439.031 43.6L432.721 49.36L426.111 51.92L418.511 52.92L410.941 52.11L404.321 49.17L400.191 49.59L402.681 51.49L409.451 55.82L410.971 61.05L411.081 74.13L412.501 82.35L413.991 85.64L415.981 87.33L424.331 89.07L426.971 88.86L429.771 88.1L433.661 88.32L438.031 89.84L449.601 98.06L453.371 100.05L456.881 101.19L461.621 103.59L464.621 106.52L467.721 110.47L470.341 112.52L473.191 113.67L476.651 114.19L482.041 114.31L484.691 114.89L489.081 117.21L490.611 121.28L491.221 125.23L491.471 129.61L492.241 133.8L493.821 138.98L494.371 143.05L494.071 146.63L487.101 171.07L487.031 175.4L487.961 180.11L490.911 186.36L493.511 188.64L496.111 189.06L497.631 187.96L498.651 186.33L502.771 177.9L504.101 175.85L505.721 174.68L508.081 174.33L510.781 174.62L525.401 180.27L528.811 180.85L532.531 181.07L536.091 180.68L540.161 179.8L544.101 178.47L547.761 176.72L550.721 174.76L553.521 172.29L555.601 169.71L557.281 166.75L558.201 163.72L560.051 151.7L561.271 147.68L563.051 143.86L571.911 130.08L575.771 125.18L577.451 123.66L579.611 122.54L588.361 120.23L597.341 116.19L598.961 114.65L601.051 111.86L601.361 110.14L601.151 108.84L600.441 107.86L599.631 107.04L598.861 106.03L598.101 104.79L597.441 102.7L597.131 94.61L600.081 72.5L600.391 71.63L600.131 71.53L589.891 69.68L587.171 67.59L577.641 49.52L572.791 45.42L558.231 45.03L554.771 39.77L552.401 24.42L550.391 17.08L547.411 10.89L543.031 5.6L536.821 1Z" fill="#CCCCCC" stroke="white" stroke-width="0.5"/>
<path d="M354.451 789.57L354.511 782.11L353.701 776L353.481 769.81L355.361 762.12L357.481 758.58L360.211 756.61L363.011 755.07L365.631 752.82L368.261 749.35L369.381 747.03L374.941 729.31L375.351 726.19L374.301 722.41L370.461 715.72L369.751 712.73L372.331 708.2L400.221 686.13L404.561 680.98L406.871 672.76L405.991 664.07L402.151 660.69L397.331 658.45L393.741 653.3L394.451 646.23L399.511 640.49L406.391 636.29L412.401 633.85L422.051 632.44L425.231 631.03L427.501 628.75L431.571 622.78L434.621 620.46L439.761 615.28L445.321 604.72L445.231 604.58L439.561 596.68L437.981 595.7L436.001 594.73L434.011 595.11L431.551 595.22L403.091 591.71L399.471 590.1L397.031 587.65L395.811 585.18L395.351 582.69V579.85L395.761 576.73L397.281 570.26L398.811 567.38L401.411 564.67L411.431 559.4L417.711 558.95L419.241 557.52L420.201 554.58L418.021 548.09L415.491 539.47L407.311 545.37L396.321 549.01L382.101 547.74L374.601 548.95L371.341 553.87L369.341 559.1L364.491 562.22L353.241 565.69L347.371 566.49L330.341 562.14L327.491 562.34L319.161 564.2L310.271 564.16L306.831 565.55L304.081 567.81L301.751 570.85L294.811 583.89L293.561 588.77L293.511 594.34L296.161 603.76L296.611 608.31L294.761 612.92L293.151 614.46L289.251 617.15L287.551 619.01L286.431 621.09L284.671 625.78L283.521 627.96L274.561 632.91L269.321 639.29L267.841 640.71L262.211 642.83L256.371 643.13L245.241 640.71L243.971 639.59L241.731 635.74L240.121 634.68L237.011 635.03L235.791 637.29L235.841 640.55L236.461 644.07L241.321 658.96L241.701 666.14L237.881 673.51L226.771 678.62L204.441 669.6L192.751 672.78L190.551 676.2L188.361 684.5L186.071 687.35L183.351 687.7L179.861 686.82L175.391 688.43L176.451 692.15L185.031 700.65L192.941 711.86L194.031 715.25L194.191 718.67L194.741 722.1L196.811 725.33L216.811 740.65L234.541 760.94L244.411 767.25L255.851 770.83L269.621 772.69L272.911 772.14L279.191 769.02L282.041 768.55L285.841 769.85L288.621 772.06L291.201 774.66L294.321 777.14L300.871 780.45L307.761 782.7L346.541 786.09L354.451 789.57Z" fill="#CCCCCC" stroke="white" stroke-width="0.5"/>
<path d="M449.379 550.4L450.249 549.83L451.689 549.44L463.139 541.74L470.389 535.71L472.119 534.57L473.639 533.75L475.479 533.04L477.509 531.4L480.159 528.83L484.279 522.72L487.549 519.67L491.019 517.22L502.259 512.66L506.099 510.66L508.489 508.26L509.909 503.87L509.859 499.18L507.929 487.69L508.589 480.61L510.579 471.28L510.679 463.21L505.839 454.25L496.509 461.39L493.309 465.69L484.759 466.92L477.269 469.38L468.719 474.94L460.699 479.87L454.809 481.7L448.399 478.63L440.389 481.7L438.779 487.89V493.42L433.959 494.66L427.549 495.28L421.139 498.98L427.549 508.84L430.229 516.24L427.019 519.94L423.819 524.27L418.999 520.57L414.199 516.24L409.379 510.08L400.829 505.14L391.739 503.91L384.249 503.29L370.889 502.68L365.539 508.84L356.989 511.31L354.229 502.93L347.369 506.98L346.829 515.64L342.029 514.4L333.459 511.92L324.909 506.38H316.899H308.339L302.989 500.21L297.119 496.51L293.369 501.45L292.299 510.68L290.169 516.24L286.429 510.68L280.549 503.29L274.659 502.68L276.269 510.68L275.199 515.64L269.859 521.8L262.899 523.64L255.419 519.34L250.079 514.4L243.669 518.1L240.979 524.27L236.179 525.5L230.649 525.74L227.429 528.09L223.769 529.62H220.659L217.349 527.48L215.159 525.19L213.179 522.57L208.479 515.11L205.579 513.4L201.459 512.88L194.429 513.64L190.189 513.25L187.089 511.53L185.609 509.47L184.589 508.59L183.929 508.77L182.349 514.83L181.689 516.58L180.779 518.22L179.399 519.75L177.619 521.28L175.939 522.43L174.619 523.55L174.059 524.74L173.549 526.74L172.669 528.72L171.749 530.13L158.059 543.9L157.249 544.97L156.529 546.21L155.189 549.25L154.229 550.54L152.699 551.75L150.459 552.58L147.459 554.24L145.619 554.46L143.229 553.87L136.189 547.13L127.789 541.02L126.669 539.82L126.219 538.94L123.669 533.1L122.499 529.38L121.579 525.15L120.869 519.81V513.29L121.789 506.32L122.699 502.93L128.349 487.26L128.459 484.83L126.929 482.76L123.979 481.94L119.039 482.88L115.919 485.3L114.139 487.26L111.899 489.08L108.999 490.1L102.329 490.61L99.7191 489.74L97.7791 488.55L96.1991 488.2L93.8591 489.02L84.5491 496.24L61.9191 507.16L56.5391 509.24L65.5691 530.85L71.8391 538.25L87.5891 551.62L92.2691 559.26L96.7091 577.26L98.9191 582.59L102.969 588.91L106.009 590.12L110.079 589.14H117.379L122.399 590.56L125.489 593.11L125.209 596.87L120.289 601.9L113.119 619.8L113.729 630.67L121.039 651.14L120.499 657.07L124.059 657.51L124.289 657.57L130.829 659.43L134.169 659.94L136.479 659.55L143.439 656.64L148.709 656.72L151.099 659.2L153.509 668.51L157.039 674.29L162.199 678.62L174.179 684.16L175.389 688.43L179.859 686.82L183.349 687.7L186.069 687.35L188.359 684.5L190.549 676.2L192.749 672.78L204.439 669.6L226.769 678.62L237.879 673.51L241.699 666.14L241.319 658.96L236.459 644.07L235.839 640.55L235.789 637.29L237.009 635.03L240.119 634.68L241.729 635.74L243.969 639.59L245.239 640.71L256.369 643.13L262.209 642.83L267.839 640.71L269.319 639.29L274.559 632.91L283.519 627.96L284.669 625.78L286.429 621.09L287.549 619.01L289.249 617.15L293.149 614.46L294.759 612.92L296.609 608.31L296.159 603.76L293.509 594.34L293.559 588.77L294.809 583.89L301.749 570.85L304.079 567.81L306.829 565.55L310.269 564.16L319.159 564.2L327.489 562.34L330.339 562.14L347.369 566.49L353.239 565.69L364.489 562.22L369.339 559.1L371.339 553.87L374.599 548.95L382.099 547.74L396.319 549.01L407.309 545.37L415.489 539.47L417.149 538.27L427.279 533.22L439.149 535.77L442.799 539.39L448.159 548.95L449.379 550.4Z" fill="#CCCCCC" stroke="white" stroke-width="0.5"/>
<path d="M342.319 302.2L339.809 301.58L337.769 299.36L336.749 296.55L336.499 293.11L337.209 284.8V280.95L336.909 277.42L334.509 266.71L333.439 263.59L331.969 261.32L330.239 261.24L328.199 263.28L322.089 272.48L319.229 275.81L312.409 281.24L306.199 284.66L302.619 286L292.899 287.97L288.979 287.41L285.979 286.3L266.109 274.43L260.799 272.6L257.139 272.15L253.779 272.25L247.749 273.67L245.309 274.84L243.529 276.31L242.409 278.42L241.849 280.71L241.039 283.2L239.359 284.95L234.469 285.87L229.129 283.86L219.389 281.88L214.349 279.47L206.139 273.49L203.539 272.85L201.249 273.96L197.439 279.25L194.179 282.11L190.189 283.86L182.809 285.03L179.099 284.68L176.039 283.2L174.569 280.98L173.679 278.77L173.649 277.03L173.849 275.85L175.429 271.67L175.329 270.63L174.769 269.8L173.479 269.06L171.849 268.57L170.579 267.83L169.659 267.02L168.189 264.16L167.939 263.55L154.549 267.95L149.099 271.41L148.119 274.45L147.469 283.2L146.659 286.59L143.469 290.95L140.419 292.62L137.399 293.63L134.439 296.05L133.659 298.66L134.989 300.84L136.919 303.17L137.869 306.13L137.399 310.92L136.109 313.18L133.929 314.82L120.289 329.81L116.659 335.7L115.269 342.48L113.509 344.08L105.809 343.73L104.039 345.09L103.399 349.42L101.769 353.39L99.5989 356.75L98.8789 357.51L99.6789 357.7L106.659 359.34L110.269 358.58L111.949 358.5L114.189 358.93L116.169 359.91L117.869 361.48L119.289 364.62L120.309 371.18L121.329 374.34L125.399 381.57L126.669 385.24L129.019 389.22L137.379 398.74L139.009 403.02L139.669 406.42L139.769 409.11L141.249 411.49L143.589 413.13L148.529 414.58L151.069 414.95L154.229 414.93L162.889 412.39L164.779 411.32L166.199 410.09L171.849 402.9L173.789 401.63L175.379 402.08L176.249 405.17L176.039 413.78L177.419 417.76L181.129 421.16L188.869 423.15L199.269 422.8L202.679 423.54L206.089 426.18L222.029 452.43L222.289 457.81L220.609 462.23L217.399 465.43L214.859 468.58L215.369 471.22L219.079 473.12L246.529 469.13L259.429 469.23L266.469 471.63L308.789 479.85L316.119 483.35L323.319 488.84L328.509 490.39L343.329 492.44L347.409 494.6L349.899 497.63L350.969 500.15L354.229 502.93L356.989 511.31L365.539 508.84L370.889 502.68V494.05L369.819 488.49L375.699 485.42H382.639V482.94L379.979 476.17L378.369 470.01L381.569 462.62L377.839 461.39L370.889 463.22L361.809 462.62V458.92L360.199 452.14L358.589 444.75L353.789 436.14L347.369 432.45L350.039 428.75L358.059 426.27L368.219 426.9H375.699L389.019 429.03L384.089 409.87L383.629 406.57L384.029 402.65L375.569 353.78L374.699 350.92L373.529 349.28L370.889 348.11L370.119 346.67L369.559 344.72L368.899 343.16L366.809 342.26L365.949 341.29L364.979 339.69L363.099 337.51L362.029 335.11L361.419 331.88L362.279 326.31L361.929 322.61L362.279 319.06L363.049 315.85L364.269 312.25L365.799 309.07L367.629 307.1L370.169 306.75L374.349 305.08L377.569 303.31L395.349 286.69L385.759 271.43L384.339 270.91L382.559 270.46L381.789 271.78L380.679 272.95L379.399 273.82L372.309 276.31L369.769 277.6L367.579 279.37L363.809 284.1L353.209 292.47L345.629 300.15L342.319 302.2Z" fill="#CCCCCC" stroke="white" stroke-width="0.5"/>
<path d="M415.421 206.56L404.461 203.53L401.301 199.51L399.781 196.5L397.951 193.51L392.281 186.48L388.921 183.22L385.151 180.35L381.901 178.7L378.691 177.73L371.651 176.49L368.241 175.4L365.241 173.23L362.591 169.19L360.551 164.71L358.261 160.73L355.501 157.51L348.071 151.23L343.951 146.54L339.811 142.99L335.731 140.26L331.971 138.69L328.661 138.28L325.561 139.85L321.891 144.68L319.791 151.11L317.141 155.57L312.921 158.33L309.861 161.57L300.531 175.98L297.481 178.72L293.561 181.36L288.011 181.01L284.601 180.21L281.731 178.72L276.651 174.93L273.851 173.46L271.151 173.58L258.971 181.67L256.581 182.93L253.731 184.09L249.911 185.04L237.521 193.45L233.761 194.46L229.641 192.69L225.551 191.94L220.101 191.99L211.401 195.97H208.581L208.951 198.07L201.521 212.05L182.731 235.21L180.351 236.53L176.991 237.81L173.681 239.8L171.501 243.14L171.331 246.75L173.381 255.5L173.921 259.86L170.651 262.66L167.941 263.55L168.191 264.16L169.661 267.02L170.581 267.83L171.851 268.57L173.481 269.06L174.771 269.8L175.331 270.63L175.431 271.67L173.851 275.85L173.651 277.03L173.681 278.77L174.571 280.98L176.041 283.2L179.101 284.68L182.811 285.03L190.191 283.86L194.181 282.11L197.441 279.25L201.251 273.96L203.541 272.85L206.141 273.49L214.351 279.47L219.391 281.88L229.131 283.86L234.471 285.87L239.361 284.95L241.041 283.2L241.851 280.71L242.411 278.42L243.531 276.31L245.311 274.84L247.751 273.67L253.781 272.25L257.141 272.15L260.801 272.6L266.111 274.43L285.981 286.3L288.981 287.41L292.901 287.97L302.621 286L306.201 284.66L312.411 281.24L319.231 275.81L322.091 272.48L328.201 263.28L330.241 261.24L331.971 261.32L333.441 263.59L334.511 266.71L336.911 277.42L337.211 280.95V284.8L336.501 293.11L336.751 296.55L337.771 299.36L339.811 301.58L342.321 302.2L345.631 300.15L353.211 292.47L363.811 284.1L367.581 279.37L369.771 277.6L372.311 276.31L379.401 273.82L380.681 272.95L381.791 271.78L382.561 270.46L384.341 270.91L385.761 271.43L395.351 286.69L398.611 281.53L399.631 279.6L402.371 275.21L403.951 273.49L418.271 262.66L420.871 259.55L422.391 255.72L422.341 249.83L417.811 238.73L416.081 233.09L415.061 230.76L413.891 228.66L411.281 224.93L410.211 219.35L415.421 206.56Z" fill="#CCCCCC" stroke="white" stroke-width="0.5"/>
</svg>
