<svg width="801" height="933" viewBox="0 0 801 933" fill="none" xmlns="http://www.w3.org/2000/svg">
<path d="M250.17 479.29L253.81 539.5L255.26 563.57L260.49 593.31L273.03 605.2L276.18 608.18L269.21 619.34H246.55L236.09 630.49L244.8 665.82L255.26 693.72L239.57 706.74L253.52 725.33L284.9 732.77L300.59 742.07L298.85 768.12L325 771.84L335.46 736.49L338.94 721.61L363.35 725.33L377.3 736.49L394.73 732.77L481.89 630.49L447.03 606.33L431.34 576.58L438.31 554.28L410.42 517.1L394.73 494.8L363.35 491.09L325 455.78L302.33 398.19L297.1 366.61L272.7 362.89L258.33 388.18L254.59 415.25L248.82 457.09L250.17 479.29Z" fill="#CCCCCC" stroke="white" stroke-width="0.5"/>
<path d="M395.131 385.67L401.701 340.61L396.471 270.04L384.271 247.76L354.631 255.18L318.831 249.38L310.011 247.96L304.991 279.9L277.241 308.74L261.391 315.78L263.871 326.12L272.701 362.89L297.101 366.61L328.481 355.46L349.401 364.75L382.531 381.47L395.131 385.67Z" fill="#CCCCCC" stroke="white" stroke-width="0.5"/>
<path d="M325.861 931.78L463.521 910.06L532.651 887.92L528.961 868.59L523.731 829.51L502.811 771.84L473.181 738.35L440.051 730.91L394.731 732.77L377.301 736.49L363.351 725.33L338.941 721.61L335.461 736.49L325.001 771.84L298.851 768.12L279.671 756.96L244.801 768.12L211.681 781.14L173.331 810.9L143.691 820.21V855.56L161.131 872.31L156.491 898.21L201.411 903.29L277.241 927.83L325.861 931.78Z" fill="#CCCCCC" stroke="white" stroke-width="0.5"/>
<path d="M263.87 326.12L261.39 315.78L226.25 325.91L210.66 333.51L174.73 363.64L171.42 368.98L157.95 383.34L121.09 456.83L109.99 486.97L102.46 539.36L100.88 634.88L87.8 677.15L105.5 687.16L107.35 704.91L98.89 753.54L89.12 775.96L66.92 780.19L26.76 771.87L1 782.02L8.13 805.14L28.74 829.25L122.15 913.87L156.49 898.21L161.13 872.31L143.69 855.56V820.21L173.33 810.9L211.68 781.14L244.8 768.12L279.67 756.96L298.85 768.12L300.59 742.07L284.9 732.77L253.52 725.33L239.57 706.74L255.26 693.72L244.8 665.82L236.09 630.49L246.55 619.34H269.21L276.18 608.18L273.03 605.2L260.49 593.31L255.26 563.57L253.81 539.5L250.17 479.29L248.82 457.09L254.59 415.25L258.33 388.18L272.7 362.89L263.87 326.12Z" fill="#CCCCCC" stroke="white" stroke-width="0.5"/>
<path d="M493.911 1L476.731 6.48L466.961 18.71L459.821 30.94L450.441 36.43L499.331 95.56L502.811 117.83L492.351 141.95L539.421 190.21L513.271 221.77L532.451 305.32L699.341 202.65L693.001 200.97L673.841 204.06L667.241 202.65L659.051 191.96L654.821 171.99L641.081 147.23L628.791 118.26L617.301 101.81L610.961 85.36L620.071 55.55L611.751 36.43L592.331 26.3L519.541 4.94L493.911 1Z" fill="#CCCCCC" stroke="white" stroke-width="0.5"/>
<path d="M532.448 305.32L513.268 221.77L539.418 190.21L492.348 141.95L502.808 117.83L499.328 95.5601L450.438 36.4301L428.638 38.1101L417.548 43.1701L372.758 79.4501L365.628 89.8601L355.718 108.42L335.638 170.3L311.058 215.74L310.008 247.96L318.828 249.38L354.628 255.18L384.268 247.76L396.468 270.04L401.698 340.61L395.128 385.67L410.418 390.76L438.308 379.61L471.428 357.32L495.158 356.09L497.578 340.61L525.478 322.03L532.448 305.32Z" fill="#CCCCCC" stroke="white" stroke-width="0.5"/>
<path d="M395.132 385.67L382.532 381.47L349.402 364.75L328.482 355.46L297.102 366.61L302.332 398.19L325.002 455.78L363.352 491.09L394.732 494.8L410.422 517.1L438.312 554.28L431.342 576.58L447.032 606.33L481.892 630.49L537.682 632.35L574.292 621.2L593.462 604.47L610.902 539.41L530.712 472.5L583.002 420.48L527.222 377.75L494.102 362.89L495.162 356.09L471.432 357.32L438.312 379.61L410.422 390.76L395.132 385.67Z" fill="#CCCCCC" stroke="white" stroke-width="0.5"/>
<path d="M771.6 563.59L736.41 559.85L689.35 597.03L626.59 602.61L593.46 604.47L574.29 621.2L537.68 632.35L481.89 630.49L394.73 732.77L440.05 730.91L473.18 738.35L502.81 771.84L523.73 829.51L528.96 868.59L532.65 887.92L599.6 866.48L619.94 852.52L632.36 835.03L654.16 795.55L663.01 790.48L673.31 791.04L682.56 787.8L688.24 771.87L687.05 762.42L678.33 747.62L677.15 735.36L664.59 706.75L692.21 666.02L737.39 630.37L777.02 617.12L767.91 590.64L771.6 563.59Z" fill="#CCCCCC" stroke="white" stroke-width="0.5"/>
<path d="M800.142 421.64L793.012 403.33L761.832 365.89L746.242 316.63L729.462 303.12L716.912 285.1L722.202 229.24L717.442 218.13L699.342 202.65L532.452 305.32L525.482 322.03L497.582 340.61L495.162 356.09L494.102 362.89L527.222 377.75L583.002 420.48L530.712 472.5L610.902 539.41L593.462 604.47L626.592 602.61L689.352 597.03L736.412 559.85L771.602 563.59L789.042 510.63L797.232 463.17L800.142 421.64Z" fill="#CCCCCC" stroke="white" stroke-width="0.5"/>
</svg>
