<svg width="801" height="880" viewBox="0 0 801 880" fill="none" xmlns="http://www.w3.org/2000/svg">
<path d="M517.98 706.83L518.16 706.45L593.72 538.9L396.51 539.86L395.12 539.87L371.13 559.73L369.84 560.79L368.33 572.5L368.01 575.01L353.19 566.95L339.32 576.61L309.9 595.93L302.39 604.3L288.59 619.51L301 638.94L299.21 657.9L298.29 669.4H298.52L296.69 692.52L305.5 701.83L311.98 707.31L318.28 713.35L328.77 717.27L338.07 720.22L348.33 716.61L360.2 717.64L363.02 714.01L363.07 709.53L363.58 700.01L365.28 696.2L364.21 692.43L366.82 691.3L366.48 688.7L363.84 688.07L365.8 686.82L367.87 685.51L369.89 684.96L370.32 682.88L369.35 680.99L369.71 680.55L369.68 680L369.02 678.85L367.79 677.13L365.34 674.54L364.98 673.68L362.88 670.3L364.37 670.4L361.9 665.67L360.28 662.77L359.95 662.09L358.58 660.79L359.51 658.75L361.58 657.64L361.67 654.29L365.32 654.55L365.68 652.41L367.58 652.29L371.71 652.42L373.53 652.74L374.21 652.55L374.79 653.16L376.3 653.33L377.94 652.21L381.73 650.99L383.53 651.14L384.11 649.76L386.37 646.67L384.73 645.04L386.5 643.71L388.51 641.21L390.61 639.7L395.37 637.69L397.27 637.83L399.29 636.42L392.2 676.73L413.02 682.8L440.89 690.72L480.64 688.12L481.13 688.5L517.98 706.83Z" fill="#CCCCCC" stroke="white" stroke-width="0.5"/>
<path d="M440.891 690.72L413.021 682.8L392.201 676.73L391.421 678.95L391.281 681.19L392.271 683.41L393.561 690.33L397.941 699.39L398.251 701.79L397.781 704.25L398.661 706.73L398.291 708.03L397.731 709.27L396.691 715.13L397.241 716.52L398.321 717.56L398.711 719.29L397.671 727.49L397.661 729.39L398.001 731.24L398.031 732.44L397.821 733.64L398.711 735.28L398.221 736.26L397.581 737.14L398.011 738.6L399.381 739.53L400.761 741.24L401.091 742.26L401.601 743.12L402.831 743.23L404.041 743.79L405.031 744.92L405.731 746.08L405.561 748.37L406.531 750.42L407.901 752.37L409.831 753.29L410.881 753.46L411.941 753.77L413.821 752.76L414.571 753.64L415.641 753.24L416.581 753.04L416.951 753.67L416.901 754.53L416.081 755.49L414.571 755.62L414.531 757.32L413.071 758.29L412.481 759.49L409.101 761.38L407.741 761.37L406.601 761.71L405.701 762.51L406.311 764.06L408.981 764.88L409.791 765.38L409.911 766.83L409.371 768.29L408.831 768.95L408.411 769.68L408.111 771.58L407.701 772.56L407.501 773.59L408.341 775.17L407.771 776.12L408.001 777.23L410.191 778.02L412.011 779.49L413.031 781.52L413.221 783.8L412.871 785.65L412.821 787.56L412.051 788.7V790.6L411.811 791.03L413.111 792.42L417.241 795.68L419.091 798.27L424.441 832.77L424.451 832.8L426.611 832.05L427.691 831.88L428.961 832.15L429.951 831.97L436.591 832.08L438.401 832.43L441.531 832.19L442.441 832.32L448.011 834.56H448.581L449.781 834.34L450.281 834.38L451.611 835.02L453.991 836.55L455.501 837.01L458.161 837.08L465.731 835.97L473.281 836.65L475.771 836.03L479.461 833.85L480.761 833.28L483.931 832.63L500.111 831.96L499.331 828.21L498.291 823.93L498.301 821.96L499.261 820.16L503.241 815.35L504.511 814.55L506.081 815.24L506.281 817.43L505.391 822.05L504.981 828.23H516.281L518.531 828.24H526.531H527.531L527.551 828.23L527.691 828.11L528.031 827.69L530.391 825.29L529.731 803.77L526.081 795.82L523.351 789.86L536.281 772.25L534.671 767.49L544.011 757.97L548.181 753.25L559.161 741.03L574.071 724.52L562.931 712.17L553.921 702.17L517.981 706.83L481.131 688.5L480.641 688.12L440.891 690.72Z" fill="#CCCCCC" stroke="white" stroke-width="0.5"/>
<path d="M755.31 827.47L755.35 827.22L755.42 826.89L756.641 820.31L757.86 813.74L759.081 807.17L760.31 800.59L761.5 794.17L762.69 787.75L763.88 781.33L765.07 774.91L765.44 772.9L765.38 772.47L765.31 772.03L765 771.69L764.68 771.34L762.07 769.53L759.4 767.67L756.831 765.88L753.94 763.87L751.54 762.2L748.98 760.41L748.41 759.32L747.84 758.24L747.55 755.49L746.91 749.36L746.26 743.21L745.61 737.07L744.97 730.92L744.32 724.78L743.68 718.63L743.03 712.47L742.391 706.31L741.74 700.15L741.09 693.99L740.451 687.83L739.8 681.66L739.16 675.48L738.51 669.31L737.86 663.13L737.22 656.95L736.56 650.59L735.9 644.23L735.23 637.86L734.57 631.5L733.91 625.13L733.24 618.75L732.57 612.37L731.91 605.99L731.25 599.6L730.581 593.21L729.92 586.82L729.26 580.42L728.84 576.4L728.42 572.37L728.01 568.35L727.59 564.31L726.6 554.81V554.8V554.79L725.66 546.15L724.73 537.5L723.8 528.84L722.86 520.18L721.92 511.5L720.98 502.82L720.05 494.14L719.11 485.44L718.28 477.93L717.84 473.86L716.86 464.88L715.88 455.89L715.43 451.8L714.51 443.37L713.59 434.94L712.67 426.5L711.75 418.05L710.831 409.59L709.91 401.13L708.99 392.67L708.07 384.19L707.15 375.7L706.23 367.21L705.31 358.71L704.391 350.21L703.46 341.69L702.55 333.17L701.63 324.65L700.701 316.11L699.78 307.57L699.06 300.88L699.03 300.95L698.581 302.04L594.6 536.93L593.72 538.9L518.16 706.45L517.98 706.83L553.92 702.17L562.93 712.17L574.07 724.52L559.16 741.03L548.18 753.25L544.01 757.97L534.67 767.49L536.28 772.25L523.35 789.86L526.081 795.82L529.73 803.77L530.391 825.29L528.03 827.69L527.69 828.11L527.55 828.23L527.53 828.24H533.53H537.951H542.78H547.99L553.56 828.25L562.28 828.26H571.61H581.47L591.76 828.27H602.41H613.31L624.391 828.28H635.56L646.73 828.29H657.81H668.72L679.36 828.3H689.65H699.51L702.42 828.31H708.84H717.56L722.581 828.32H727.31H731.74H735.85H744.59L754.84 828.33H754.86L754.88 828.34L754.9 828.35H754.92L754.94 828.36L754.96 828.37H754.98L755.01 828.38H755.02H755.03H755.05H755.06H755.081H755.1H755.11L755.12 828.37L755.13 828.36H755.141V828.35V828.34H755.15L755.16 828.33V828.32V828.31V828.3V828.29V828.27V828.26V828.24V828.23V828.21L755.23 827.88L755.29 827.55L755.31 827.47Z" fill="#CCCCCC" stroke="white" stroke-width="0.5"/>
<path d="M699.06 300.88L698.86 299.02L697.95 290.46L697.02 281.89L696.1 273.32L695.18 264.74L694.26 256.15L693.34 247.55L692.87 243.14L691.83 233.43L690.8 223.71L690.33 219.29L690.28 218.88L690.25 218.9L411.21 413.91L307.56 425.7L266.7 410.16L265.06 409.61L264.93 409.57L265.31 415.64L266.03 426.97H256.48H253.78H246.17H234.34L218.99 426.98H200.83L182.57 426.99L190.55 440.18L191.77 442.03L187.52 559.43L187.45 569.93L187.38 588.98H251.1L288.59 619.51L302.39 604.3L309.9 595.93L339.32 576.61L353.19 566.95L368.01 575.01L368.33 572.5L369.84 560.79L371.13 559.73L395.12 539.87L396.51 539.86L593.72 538.9L594.6 536.93L698.58 302.04L699.03 300.95L699.06 300.88Z" fill="#CCCCCC" stroke="white" stroke-width="0.5"/>
<path d="M282.52 762.92L282.21 761.71L282.24 760.53L283.51 759.38L284.22 757.84L284.25 756.53L283.21 755.68L282.73 754.15L282.46 752.51L281.44 750.45L279.45 749.38L278 748.31L277.68 746.68L277.79 743.64L278.69 740.8L279.95 738.19L278.56 735.75L278.4 738.27L275.32 742.76L274.07 745.43L273.06 748.98L271.48 752.21L265.97 754.34L259.85 754.96L256.72 758.74L256.36 764.18L255.18 765.97L228.57 773.18L225.79 774.42L225.03 777.17L224.69 780.12L223.44 781.71L221.54 782.77L220.2 783.27L219.91 784.16L220.12 784.88L220.43 785.07L221.1 785.34L221.4 785.55L221.47 785.67L221.57 785.91L221.65 786.01L221.81 786.1L222.21 786.26L222.39 786.36L222.82 786.73L222.96 786.82L223.42 786.9L223.84 786.79L225.63 785.83L226 785.75L227.23 785.74L227.46 785.71L227.95 785.56L229.93 784.7L233.36 783.96L234.25 783.6L234.61 783.49L234.98 783.47L235.41 783.56L235.53 784.51L234.44 786.57L234.32 787.62L234.98 788.08L237.36 787.14L238.34 787.17L238.66 787.53L239.19 788.44L239.51 788.84L241.3 790.05L241.69 790.54L241.86 791.06L241.92 792.25L242.01 792.77L242.92 795.06L243.34 795.76L243.83 796.41L244.4 797.01L246.05 798.27L246.43 798.79L246.57 799.35L246.53 799.93L246.28 801.08V801.63L246.42 802.09L246.7 802.5L247.88 803.88L248.46 804.93L248.77 806.08L248.79 807.39L248.65 807.96L248.43 808.53L248.28 809.11L248.37 809.69L248.71 810.15L249.16 810.51L250.16 811.1L250.68 811.51L251.12 811.98L251.86 813.07L252.14 813.64L252.22 814.13L252.1 814.63L251.12 816.18L250.88 816.73L250.81 817.33L250.9 817.9L251.52 819.58L252.5 819.56L254.45 819.21L255.4 819.26L255.87 819.45L257.08 820.33L257.55 820.52L259.05 820.93L259.87 821.41L260.57 822.06L261.04 822.85L261.19 823.81L260.82 826.35L260.83 826.94L260.95 827.52L261.18 828.14L261.55 828.43L263.55 828.94L264.48 828.82L265.47 828.21L266.33 827.51L267.29 826.97L268.31 826.83L269.35 827.32L269.76 827.82L269.96 828.41L270.22 830.28L270.44 830.74L271.09 831.6L271.38 832.11L271.51 832.63L271.52 834.9L271.76 836L272.3 837.04L273.09 837.9L276.97 840.56L277.8 841.44L278.23 842.55L277.88 843.49L276.79 843.66L274.57 843.43L273.9 843.93L274.3 844.78L275.79 846.28L276.35 846.73L276.93 846.93L277.56 846.95L278.95 846.66H279.64L280.3 846.84L280.89 847.26L281.23 847.72L281.39 848.24L281.41 848.79L281.06 850.51L281.1 851.04L281.3 851.65L281.38 851.83L283.02 852.36L283.53 852.86L286.22 843.43L288.21 838.99L293.89 829.7L297.46 825.21L298.88 824.45L299.99 823.32L300.47 820.63L302.01 817.21L313.12 807.09L314.49 805.15L315.29 803.47L316.72 802.17L319.65 801.36L322.96 801.82L327.34 799.67L331.88 798.18L330.93 795.46L331.53 790.54L330.06 790.63L328.82 790.27L328.07 789.24L325.79 786.83L322.89 785.9L322.44 786.38L322.15 786.78L321.07 786.44L320.01 785.79L317.72 785.82L316.95 784.48L316.54 779.11L315.51 778L314.02 777.65L312.99 776.96L311.84 776.66L310.52 777.03L309.33 777.71L306.89 779.9L304.32 780.13L303.97 778.1L305.3 773.43L305.19 770.67L304.83 769.57L304.63 767.24L304.13 766.16L304.21 764.01L301.75 763.27L289.34 761.14L287.71 761.71L286.26 763.11L285.32 763.3L284.49 762.92L283.38 762.85L282.52 762.92Z" fill="#CCCCCC" stroke="white" stroke-width="0.5"/>
<path d="M327.611 879.63L328.141 878.83L328.481 877.77L328.961 877.42L330.181 877.71L331.481 877.72L332.761 877.36L333.901 876.56L335.441 874.43L336.371 873.61L339.001 873.04L340.191 872.41L341.161 871.56L341.671 870.67L341.921 870.05L342.261 869.59L342.601 869.24L342.821 868.93L343.081 868.82L343.541 868.69L343.911 868.46L343.901 868.03L343.451 867.41L343.281 867.09L343.221 866.68L343.551 864.25L343.891 863.05L344.381 861.99V861.98L344.511 860.75L344.341 859.79L343.861 859.03L343.101 858.41H342.681L342.341 858.72L341.911 858.89L341.271 858.41L341.381 858.07L341.541 856.03L342.291 853.31L342.361 852.61L342.151 851.68L342.101 851.04L342.261 849.63L343.491 846.01L343.861 842.8L344.131 841.72L346.311 837.01L347.341 832.18L348.181 830.03L349.841 828.2L349.991 827.46V825.15L351.641 825.4L352.191 822.54L353.761 819.43L354.151 815.98L354.951 812.62L357.451 809.84L358.041 808.14L358.391 806.5L358.431 805.57L358.811 804.7L360.311 803.59L361.111 801.92L360.921 801.3L360.811 800.53L361.291 799.51L362.021 798.67L363.721 797.76L364.771 796.15L357.801 795.05L353.241 791.97L352.281 791.79L351.311 791.99L350.171 791.76L349.341 791.06L345.911 791.49L345.191 790.81L344.421 790.32L343.871 791.39L344.201 792.96L344.921 794.41L345.481 795.93L345.021 797.04L344.081 797.66L343.191 798.04L342.821 799.13L343.011 800.24L341.631 800.23L339.851 800.02L338.031 800.27L336.361 800.73L335.141 800.01L333.861 798.53L331.881 798.18L327.341 799.67L322.961 801.82L319.651 801.36L316.721 802.17L315.291 803.47L314.491 805.15L313.121 807.09L302.011 817.21L300.471 820.63L299.991 823.32L298.881 824.45L297.461 825.21L293.891 829.7L288.211 838.99L286.221 843.43L283.531 852.86L285.461 854.74L287.211 855.48L287.251 855.47L287.931 855.39L289.991 854.75L290.991 854.6L291.601 854.81L292.111 855.33L292.951 856.4L296.541 858.53L297.681 859.4L298.371 859.81L299.901 860.16L300.601 860.55L301.161 861.19L301.471 861.85L302.991 867.23L303.021 867.96L303.921 868.5L306.121 871.13L307.271 872.1L311.371 874.05L314.981 876.9L316.111 877.43L317.551 877.67L318.951 877.49L321.761 876.49L323.151 876.25L324.141 876.78L326.891 879.25L327.611 879.63Z" fill="#CCCCCC" stroke="white" stroke-width="0.5"/>
<path d="M392.2 676.73L399.29 636.42L397.27 637.83L395.37 637.69L390.61 639.7L388.51 641.21L386.5 643.71L384.73 645.04L386.37 646.67L384.11 649.76L383.53 651.14L381.73 650.99L377.94 652.21L376.3 653.33L374.79 653.16L374.21 652.55L373.53 652.74L371.71 652.42L367.58 652.29L365.68 652.41L365.32 654.55L361.67 654.29L361.58 657.64L359.51 658.75L358.58 660.79L359.95 662.09L360.28 662.77L361.9 665.67L364.37 670.4L362.88 670.3L364.98 673.68L365.34 674.54L367.79 677.13L369.02 678.85L369.68 680L369.71 680.55L369.35 680.99L370.32 682.88L369.89 684.96L367.87 685.51L365.8 686.82L363.84 688.07L366.48 688.7L366.82 691.3L364.21 692.43L365.28 696.2L363.58 700.01L363.07 709.53L363.02 714.01L360.2 717.64L348.33 716.61L338.07 720.22L328.77 717.27L318.28 713.35L311.98 707.31L310.96 707.85L310.23 708.6L310.12 709.85L309.51 710.59L306.96 711.06L304.84 711.91L303.63 713.16L301.62 713.41L300.17 714.63L298.44 717.83L296.72 718.62L295.35 718.96L294.15 719.59L293.42 720.12L292.61 720.51L291.8 720.31H290.93L288.03 721.18L287.45 721.81L286.72 722.41L284.75 722.88L280.09 728.31L279.38 729.55L278.85 730.96L278.95 733.39L278.56 735.75L279.95 738.19L278.69 740.8L277.79 743.64L277.68 746.68L278 748.31L279.45 749.38L281.44 750.45L282.46 752.51L282.73 754.15L283.21 755.68L284.25 756.53L284.22 757.84L283.51 759.38L282.24 760.53L282.21 761.71L282.52 762.92L283.38 762.85L284.49 762.92L285.32 763.3L286.26 763.11L287.71 761.71L289.34 761.14L301.75 763.27L304.21 764.01L304.13 766.16L304.63 767.24L304.83 769.57L305.19 770.67L305.3 773.43L303.97 778.1L304.32 780.13L306.89 779.9L309.33 777.71L310.52 777.03L311.84 776.66L312.99 776.96L314.02 777.65L315.51 778L316.54 779.11L316.95 784.48L317.72 785.82L320.01 785.79L321.07 786.44L322.15 786.78L322.44 786.38L322.89 785.9L325.79 786.83L328.07 789.24L328.82 790.27L330.06 790.63L331.53 790.54L330.93 795.46L331.88 798.18L333.86 798.53L335.14 800.01L336.36 800.73L338.03 800.27L339.85 800.02L341.63 800.23L343.01 800.24L342.82 799.13L343.19 798.04L344.08 797.66L345.02 797.04L345.48 795.93L344.92 794.41L344.2 792.96L343.87 791.39L344.42 790.32L345.19 790.81L345.91 791.49L349.34 791.06L350.17 791.76L351.31 791.99L352.28 791.79L353.24 791.97L357.8 795.05L364.77 796.15L363.72 797.76L362.02 798.67L361.29 799.51L360.81 800.53L360.92 801.3L361.11 801.92L360.31 803.59L358.81 804.7L358.43 805.57L358.39 806.5L358.04 808.14L357.45 809.84L354.95 812.62L354.15 815.98L353.76 819.43L352.19 822.54L351.64 825.4L351.91 825.45L353.66 826.01L355.4 826.15L357.3 825.15L359.63 822.66L360.71 822.03L362.45 821.51L363.21 821.15L363.79 820.49L363.94 820.15L363.99 819.8L363.94 819.46L363.79 819.12L363.52 818.95L363.29 818.78L363.12 818.58L363.01 818.29L363.2 818.23L363.79 818.16L367.51 818.94L369.04 819.59L370.69 821.02L376.73 829.85L377.95 831.25L394.42 843.47L396.55 845.54L398.35 849.06L400.77 851.46L402.91 854.77L403.49 853.63L404.49 849.78L405.06 848.7L406.81 847.02L407.55 845.88L408.18 843.39L408.64 842.29L409.7 841.25L410.41 841H411.06L411.61 840.89L412.33 839.79L413.38 839.18L413.89 838.68L414.4 837.26L414.32 834.46L414.57 833.17L415.28 832.46L416.34 832.41L420.27 833.02L422.99 833.05L424.28 832.86L424.45 832.8L424.44 832.77L419.09 798.27L417.24 795.68L413.11 792.42L411.81 791.03L412.05 790.6V788.7L412.82 787.56L412.87 785.65L413.22 783.8L413.03 781.52L412.01 779.49L410.19 778.02L408 777.23L407.77 776.12L408.34 775.17L407.5 773.59L407.7 772.56L408.11 771.58L408.41 769.68L408.83 768.95L409.37 768.29L409.91 766.83L409.79 765.38L408.98 764.88L406.31 764.06L405.7 762.51L406.6 761.71L407.74 761.37L409.1 761.38L412.48 759.49L413.07 758.29L414.53 757.32L414.57 755.62L416.08 755.49L416.9 754.53L416.95 753.67L416.58 753.04L415.64 753.24L414.57 753.64L413.82 752.76L411.94 753.77L410.88 753.46L409.83 753.29L407.9 752.37L406.53 750.42L405.56 748.37L405.73 746.08L405.03 744.92L404.04 743.79L402.83 743.23L401.6 743.12L401.09 742.26L400.76 741.24L399.38 739.53L398.01 738.6L397.58 737.14L398.22 736.26L398.71 735.28L397.82 733.64L398.03 732.44L398 731.24L397.66 729.39L397.67 727.49L398.71 719.29L398.32 717.56L397.24 716.52L396.69 715.13L397.73 709.27L398.29 708.03L398.66 706.73L397.78 704.25L398.25 701.79L397.94 699.39L393.56 690.33L392.27 683.41L391.28 681.19L391.42 678.95L392.2 676.73Z" fill="#CCCCCC" stroke="white" stroke-width="0.5"/>
<path d="M288.589 619.51L251.099 588.98H187.379H184.749L57.7689 589.3L58.1389 590.2L60.6789 599.75L60.7889 601.63L60.1989 603.27L61.3289 606.06L62.8689 614.59L66.2289 622.08L66.9489 624.53L67.5589 630.93L68.1989 630.97L85.7489 630.78L85.8189 646.45L85.7189 665.52L69.3889 665.53H69.3789L68.7789 671.45L68.2789 680.54L66.3289 688.9L60.2289 708.2L59.3089 709.46L58.9289 711.14L53.3489 723.32L50.2289 727.78L49.1089 730.03L48.1489 734.63L46.7589 736.92L41.5389 750.34L41.0189 753.31L41.0289 760.61L40.3389 762.4L39.7889 763.41L39.2489 766.82L37.4389 770.28L36.9789 771.5L36.3289 775.94L36.9789 789.61L37.0989 795.61L36.1289 807.03L37.5989 804.49L38.2389 800.75L38.3889 793.37L38.7789 792.59L39.6789 789.59L40.8089 786.86L41.0989 782.27L41.5689 780.9L42.5189 780.08L44.9289 779.5L45.9489 778.83L46.3589 778.13L46.6389 777.34L49.2989 765.84L49.6389 763.13L50.1389 761.86L51.0389 760.58L52.2389 759.41L53.6289 758.55L55.1189 758.25L57.2689 758.66L57.9989 758.72L58.7389 758.58L59.4089 758.27L61.3189 756.9L62.0689 756.55L62.8589 756.4L63.6789 756.57L64.2789 756.94L64.7589 757.44L65.5489 758.62L66.6489 759.8L67.9689 760.44L69.4389 760.61L70.9989 760.39L71.4589 760.06L71.9289 759.81L72.4089 759.73L72.9589 759.86L73.7989 760.2L74.2089 760.23L74.6889 760.14L77.2789 758.98L78.1889 758.87L80.4689 759.43H81.0189L82.6289 759.14L83.6689 759.19L86.6189 760.16L88.7289 760.28L89.2789 760.45L90.8189 761.19L91.8389 761.45L92.8389 761.39L93.8089 761.07L94.7089 760.49L96.1489 759.16L96.9189 758.68L97.9089 758.52L100.709 759.1L101.679 759L102.449 758.62L103.079 758.02L104.659 755.74L105.469 755.02L106.409 754.59L107.399 754.68L108.009 755.19L108.389 755.88L108.829 756.51L109.639 756.86L110.599 756.84L111.509 756.61L114.259 755.46L115.279 755.23L117.369 755.16L120.449 755.65L121.499 755.61L128.499 754.5L129.879 753.98L130.299 753.7L130.579 753.32L130.609 752.81L130.389 752.38L129.339 751.34L128.949 750.43L129.079 749.55L129.649 748.88L130.579 748.62L131.519 748.91L132.099 749.57L132.619 750.35L133.299 751L133.769 751.16L134.249 751.11L134.709 750.91L135.119 750.61L135.439 750.19L135.579 749.75L135.789 748.8L136.209 748.17L136.879 747.72L138.329 747.11L139.069 747.49L139.929 748.41L139.989 748.53L141.049 747.17L147.419 743L156.349 738.06L161.409 735.93L163.389 734.14L164.739 732.27L165.169 731.94L180.969 720.09L204.529 684.89L219.199 671.45L237.479 657.76L288.589 619.51Z" fill="#CCCCCC" stroke="white" stroke-width="0.5"/>
<path d="M69.3886 665.53L85.7186 665.52L85.8186 646.45L85.7486 630.78L68.1986 630.97L67.5586 630.93L69.1786 648.05L69.8986 660.48L69.3786 665.53H69.3886Z" fill="#CCCCCC" stroke="white" stroke-width="0.5"/>
<path d="M190.55 440.18L81.9203 439.74L98.9603 468.59L56.6603 548.16L53.0303 554.83L50.6703 557.76L50.2503 557.61H50.2403L48.0603 560.31L44.9003 562.15L41.2503 562.68L37.4603 561.65L36.5703 562.73L37.3203 563.76L38.5803 564.86L39.2503 566.18L39.4503 567.41L40.5403 570.33L41.0203 571.13L42.0903 571.75L44.6303 572.51L45.7403 573.25L46.2903 573.52L46.9303 573.59L47.4703 573.73L47.7003 574.21L47.9703 574.36L49.1903 575.51L53.0403 580.02L55.9003 584.81L57.7703 589.3L184.75 588.98H187.38L187.45 569.93L187.52 559.43L191.77 442.03L190.55 440.18Z" fill="#CCCCCC" stroke="white" stroke-width="0.5"/>
<path d="M45.76 547.58L48.1 544.26L49.17 542.29L49.98 541.35L51.05 540.33L51.82 539.09L51.3 538.52L50.56 538.68L48.11 542.22L45.88 546.39L45.55 547.58H45.76ZM40.33 541.66L40.74 540.68L40.91 539.29L40.87 538.58L40.37 538.47L39.47 538.92L39.09 540.27L39.42 541.76L39.91 542.2L40.33 541.66ZM49.52 529.87L48.93 528.99L48.12 530.04L46.85 532.79L45.99 531.92L45.05 532.27L44.22 533.34L43.69 534.64L43.62 535.25L43.69 537.26L43.56 537.57L41.68 540.42L41.23 541.72L41.71 542.96L42.13 543.67V544.36L41.97 545L41.95 545.55L42.17 546L43.29 547.49L45.9 543.54L47.55 539.19L49.52 529.87ZM42.27 479.94L42.38 477.66L42.1 477.29L41.54 477.14L40.9 477.53L40.57 478.57L41.02 479.82L41.87 480.18L42.27 479.94ZM182.57 426.99H180.56H158.89H136.51L114.13 427H92.46H72.19L54.03 427.01H38.68H26.85H19.24H16.54H8.98L8.36 427.59L7.23 433.66L5.97 440.36L3.21 448.36L2.77 450.59L1.25 456.94L1 459.02L2.59 466.54L3.24 465.78L3.79 464.25L4.41 461.3L4.48 460.45L4.43 459.99L3.97 458.88L3.33 458.15L3.03 457.62L3.07 457.01L3.61 456.46L5.12 456.01L5.75 455.58L6.01 454.99L6.15 452.73L6.56 450.18L6.48 448.98L5.75 449.34L5.26 448.1L5.64 447.28L6.29 446.72L9.08 442.88L10.78 439.69L11.67 439.16L12.91 440.72L13.74 442.69L14.07 443.81L14.2 444.79L14.56 445.76L16.12 447.93L16.47 448.61L16.7 449.61L17.24 450.27L17.83 450.75L18.25 451.25L18.57 452.45L18.75 453.59L19.12 454.64L20.07 455.58L20.26 455.3L20.67 454.97L20.96 454.63L21.09 455.68L21.36 456.78L21.81 457.81L22.49 458.66L22.89 459.45L23.63 462.73L24.72 463.94L24.96 464.5L24.94 465.79L25.19 466.32L26.99 467.77L27.73 468.61L28.04 469.66L28.13 470.17L28.5 470.75L28.52 471.34L28.3 471.52L27.89 471.64L27.58 471.97L27.63 472.76L28.13 473.25L30.17 474.34L30.99 474.93L31.6 475.77L32.43 477.4L32.97 478L34.62 479.05L35.47 479.81L36.13 480.89L37.03 478.26L36.52 471.52L36.98 468.49L38.36 469.07L38.8 469.39L39.73 471.34L39.25 471.82L40.14 472.93L41.19 473.16L43.49 472.76L44.84 472.94L43.97 473.35L41.02 474.19V474.71L42.36 475.62L43.48 475.09L43.76 476.35L43.85 478.08L44.38 478.95L45.34 479.33L45.98 480.29L48.43 486.77L48.71 488.09L49.14 488.94L49.32 489.23L49.45 489.62L49.18 489.8L48.81 489.94L48.63 490.18L48.8 490.86L49.24 491.3L49.81 491.7L50.41 492.34L52.24 496.91L53.28 497.56L53.54 497.85L53.74 498.51L54.04 499.16L54.66 499.46L55.59 499.51L55.99 499.73L57.86 502.62L58.29 503.67L58.46 504.93L58.24 506.3L57.68 507.68L56.24 509.93L55.86 510.28L55.44 510.45L54.97 510.49L54.46 510.45L55.27 512.34L57.24 515.85L57.53 517.56L56.98 519.62L55.89 521.31L52.06 525.24L51.66 525.83L51.3 526.6L51.06 527.51L51.09 528.35L51.56 528.67L52.63 528.01L52.8 527.46L53.28 526.44L54.11 525.85L55.31 526.6L55.61 527.58L54.67 529.28L54.86 530.38L55.21 530.03L56.24 529.44L56.29 530.15L56.15 530.79L55.82 531.34L55.31 531.8L55.77 532.28L56.1 532.81L56.26 533.43L56.24 534.17L55.94 534.58L54.79 535.84L54.66 536.11L54.25 536.3L54.05 536.83L53.97 538.21L53.82 538.86L53.46 539.24L53.02 539.52L52.63 539.88L46.41 549.38L45.44 550.22L44.57 550.75L43.94 551.46L43.69 552.9L43.34 554.08L41.64 555.9L41.02 556.98L40.94 557.55L40.92 559.25L41.02 559.8L41.14 560.21L41.12 560.4L41.16 560.54L41.47 560.75L41.82 560.83L42.25 560.81L42.64 560.69L42.8 560.49L42.96 559.83L43.52 558.52L43.49 558.09L43.18 557.29L43.3 556.47L43.69 555.7L44.14 555.05L45.07 554L47.71 551.78L48.63 551.27L45.96 556.98L47.82 555.47L51.45 551.48L51.78 551.51L51.98 551.24L52.41 551.27L52.84 551.54L53.04 552L52.91 552.47L52.32 553.38L51.95 554.72L50.41 557.4L50.24 557.61H50.25L50.67 557.76L53.03 554.83L56.66 548.16L98.96 468.59L81.92 439.74L190.55 440.18L182.57 426.99Z" fill="#CCCCCC" stroke="white" stroke-width="0.5"/>
<path d="M298.292 669.4L299.212 657.9L301.002 638.94L288.592 619.51L237.482 657.76L219.202 671.45L204.532 684.89L180.972 720.09L165.172 731.94L164.742 732.27L163.392 734.14L161.412 735.93L156.352 738.06L147.422 743L141.052 747.17L139.992 748.53L140.482 749.52L141.162 750.38L142.362 750.56L144.352 750.09L155.482 750.89L156.232 750.8L158.442 750.22L159.082 750.2L159.652 750.37L161.492 751.24L162.202 751.37L162.932 751.34L165.662 750.57L166.352 750.55L168.992 751.1L169.702 751.12L170.402 751.04L171.082 750.85L171.722 750.55L173.432 749.52L174.062 749.27L175.332 749.19L179.472 750.83L179.972 751.18L180.242 751.69L180.212 752.43L179.872 753.73L179.982 754.25L180.592 754.52L183.092 754.3L183.722 754.6L183.942 755.13L184.032 756.35L184.372 756.87L185.042 757.19L186.612 757.3L187.352 757.43L187.882 757.75L188.992 759.21L189.452 759.64L190.992 760.75L193.212 763.35L197.082 766.88L199.242 768.14L199.682 768.55L200.822 769.92L201.402 770.3L202.682 770.8L203.282 771.14L203.672 771.6L203.722 772.07L203.312 773.12L203.192 773.69L203.322 774.14L203.962 774.98L204.252 775.59L204.272 776.16L203.942 777.38L204.182 778.46L205.292 779.07L207.852 779.83L208.382 780.15L209.412 780.93L209.842 781.4L210.162 781.95L210.712 783.78L211.022 784.42L211.442 785.02L211.952 785.52L212.542 785.9L213.092 786.04L213.622 785.98L214.142 785.79L215.202 785.17L216.262 784.36L216.702 783.87L217.862 782.18L218.352 781.7L218.902 781.38L219.482 781.22L220.082 781.19L220.702 781.26L220.572 782.13L220.202 783.27L221.542 782.77L223.442 781.71L224.692 780.12L225.032 777.17L225.792 774.42L228.572 773.18L255.182 765.97L256.362 764.18L256.722 758.74L259.852 754.96L265.972 754.34L271.482 752.21L273.062 748.98L274.072 745.43L275.322 742.76L278.402 738.27L278.562 735.75L278.952 733.39L278.852 730.96L279.382 729.55L280.092 728.31L284.752 722.88L286.722 722.41L287.452 721.81L288.032 721.18L290.932 720.31H291.802L292.612 720.51L293.422 720.12L294.152 719.59L295.352 718.96L296.722 718.62L298.442 717.83L300.172 714.63L301.622 713.41L303.632 713.16L304.842 711.91L306.962 711.06L309.512 710.59L310.122 709.85L310.232 708.6L310.962 707.85L311.982 707.31L305.502 701.83L296.692 692.52L298.522 669.4H298.292Z" fill="#CCCCCC" stroke="white" stroke-width="0.5"/>
<path d="M548.451 1V2.01L548.46 4.86V9.3L548.47 15.05L548.48 21.85V29.43L548.49 37.52L548.5 45.87L548.51 54.22L548.52 62.29L548.53 69.83V76.58L548.54 82.28L548.55 86.68V89.5V90.5V93.79L548.1 94.74L546.831 95.1H541.3L534.73 95.11H528.16H521.6H515.03H508.47H501.9H495.34H488.77H482.2H475.64H469.08H462.51H455.95H449.38H442.82H436.25H429.68H423.12H416.55H409.99H403.42H396.85H390.29H383.73H377.16H370.6H364.03H357.46H350.89H344.34H337.77H331.2V100.6V106.07V111.54V117.01V122.48V127.94V133.4V138.85V144.3V149.76V155.2V160.64V166.08V171.52V176.95V182.37V187.8V193.22V198.64V204.06V209.47V214.88V220.28V225.69V231.09V236.48V241.88V247.27V252.65V258.04V263.42V268.8V274.54L330.94 276.97L330.07 278.11L323.43 279.93L309.13 286.8L306.79 287.51L295.81 289.09L291.83 290.47L287.73 293.31L280.71 298.2L272.55 303.85L266.03 308.39L264.78 310.01L259.21 317.91L257.09 322.4L256.23 327.16L256.92 331.68L260.09 340.76L260.94 345.33L262.01 362.95L263.09 380.54L264.93 409.57L265.06 409.61L266.7 410.16L307.56 425.7L411.21 413.91L690.25 218.9L690.28 218.88L689.66 213.08L689.03 207.38L688.4 201.67L687.78 195.97L687.15 190.26L686.51 184.54L685.891 178.83L685.26 173.11L684.63 167.38L699.06 167.37L713.5 167.36H727.93L742.36 167.35L756.79 167.34L771.23 167.33L785.66 167.32L800.1 167.31L788.78 159.61L777.47 151.9L766.15 144.19L754.84 136.46L746.951 131.32L745.35 130.28L736.02 124.21L725.09 117.08L714.17 109.94L703.24 102.8L690.34 94.36L677.44 85.92L664.55 77.47L651.641 69L638.74 60.53L625.85 52.05L612.951 43.57L600.05 35.07L587.15 26.57L574.25 18.05L561.35 9.53L548.451 1Z" fill="#CCCCCC" stroke="white" stroke-width="0.5"/>
</svg>
