<svg width="368" height="267" viewBox="0 0 368 267" fill="none" xmlns="http://www.w3.org/2000/svg">
<path d="M200.212 165.61L197.452 161.69L198.782 160.25L191.062 155.66L192.972 163.22L190.822 163.73L187.392 159.96L189.482 159.61L184.952 151.37L183.502 150.99L184.112 154.56L181.352 153.36L181.892 156.38L175.812 147.46L162.982 143.27L157.452 136.15L162.362 137.92L159.932 134.6L145.452 124.79L145.962 115.56L139.092 113.76L135.212 109.89L133.912 103.77L130.112 99.53L117.462 96.9L108.252 92.54L90.212 74.28L79.662 68.29L71.5819 59.35L56.252 53.72L58.5219 61.19L57.072 60.98L55.1419 57.69L47.4519 55.92L35.602 42.86L30.752 40.6V46.5H35.2319L34.1219 50.03L35.9819 53.08L32.752 53.37L30.9819 56.24L34.662 59.41L37.4819 55.97L37.382 58.82L42.1519 59.41L44.9019 62.11V66.82L41.0219 67.14L41.412 68.91L44.2719 70.79L47.012 78.86L52.9819 83.79L54.6419 83.2L60.3619 94.15L64.1819 96.15L64.0519 98.64L61.042 98.98L61.852 100.37L73.512 110.47L84.632 115.28L83.022 117.58L86.8019 120.07L85.2419 121.2L89.1119 127.77L90.3719 125.21L92.9319 127.14L95.5319 125.57L96.262 129.55L98.462 129.94L99.0319 135.9L108.532 146.23V150.73L111.302 146.23L112.922 149.8L115.972 150.23L114.632 153.36L118.612 154.41L121.532 152.42L128.922 147.75L135.212 147.68L141.912 151.2L143.142 155.96L147.372 157.76L151.662 155.76L156.872 156.69L166.662 165.35L175.162 166.02L183.042 171.82L195.902 172.34L200.212 165.61ZM49.6119 45.3L44.6819 38.77L45.1219 44.07L50.882 47.09L49.6119 45.3ZM30.222 39.18L27.3319 33.61L27.1219 39.12L29.6419 40.6L30.222 39.18ZM0.751953 1L4.63196 15.12L6.77194 13.17L0.751953 1Z" fill="#CCCCCC" stroke="white" stroke-width="0.5"/>
<path d="M315.741 265.88L316.841 260L319.611 263.05L318.761 259.52L315.421 255.72L309.651 254.61L308.551 263.65L315.741 265.88ZM261.911 244.27L258.541 242.03L256.021 246.57L259.051 247.6L258.541 245.63L261.911 244.27ZM200.211 165.61L195.901 172.34L183.041 171.82L175.161 166.02L166.661 165.35L156.871 156.69L151.661 155.76L147.371 157.76L143.141 155.96L141.911 151.2L135.211 147.68L128.921 147.75L121.531 152.42L126.541 161.98L133.291 164.78L136.051 170.15L145.991 174.24L150.021 172.67L153.381 179L164.191 184.41L166.781 183.11L167.421 186.26L171.891 182.63L174.411 190.61L177.351 188.94L179.731 194.18L178.211 194.75L183.231 194.96L193.801 203.95L198.501 197.6L199.211 202.13L204.541 203.46L204.511 207.85L206.781 209.26L202.981 209.59L205.731 213.4L202.981 212.57L202.371 215.01L204.091 216.21L206.311 214.69L210.471 217.41L211.271 220.38L215.321 221.61L220.141 219.79L219.091 222.18L221.901 224.63L221.431 227.01L225.231 222.18H228.551L228.261 224.98L230.211 225.83L225.771 226.95L229.701 228.82L228.941 234.07L235.391 227.54L238.491 228.16L239.471 231.36L244.841 231.34L250.741 234.25L251.911 237.21L255.151 237.25L254.551 240.96L261.901 240.23L259.921 238.06L261.661 233.18L262.591 237.43L264.421 235.29L266.751 239.79L268.551 239.57L265.771 241.43L274.071 237.25L277.401 227.89L270.391 221.42L271.431 217.53L269.651 214.09L264.371 210.17L256.641 208.38L255.151 205.95L249.081 205.41L251.831 202.96L247.951 200.57L247.161 201.83L240.021 196.17L228.041 181.98L222.461 180.3L221.301 177.87L223.561 177.32L214.121 173.82L202.981 164.97L200.211 165.61Z" fill="#CCCCCC" stroke="white" stroke-width="0.5"/>
<path d="M353.402 152.6L354.692 149.15L347.972 154.12L340.152 153.36L346.892 167.1L344.622 172.5L350.732 172.33L352.282 175.53L358.552 177.28L365.952 174.12L367.372 159.35L366.822 157.53L356.302 159.36L353.402 152.6ZM230.712 95.67L225.232 96.27L227.442 97.45L230.712 95.67ZM299.032 95.08L291.842 91.53L287.122 95.08L279.382 95.34L278.212 99.86L284.352 99.17L290.092 103.48L284.462 111.43L276.302 112.31L286.472 126.32L296.302 127.92L301.452 134.24L306.292 135.5L308.932 132.79L309.612 126.48L312.282 125.5L306.292 120.66L307.442 117.58L305.862 114.91L297.692 111.45L299.032 95.08ZM244.092 68.03L242.492 66.55L239.242 68.14L242.492 73.04L238.902 80.58L238.802 87.4L232.422 93.9L233.582 95.08L240.172 92.66L244.592 84.97L241.182 85.27L240.502 80.92L243.102 74.66L248.522 72.51L244.092 68.03Z" fill="#CCCCCC" stroke="white" stroke-width="0.5"/>
</svg>
