<svg width="800" height="629" viewBox="0 0 800 629" fill="none" xmlns="http://www.w3.org/2000/svg">
<path d="M330.271 434.7L327.271 404.67L328.381 396.19L328.351 395.34L328.131 394.6L327.281 394.14L319.471 392.07L319.121 391.94L318.431 391.52L314.981 388.87L314.691 388.56L314.381 388.16L313.521 386.64L313.381 386.1L302.341 359.35L302.101 358.98L297.651 353.95L286.321 345.29L259.321 328.24L258.291 327.42L257.171 326.35L250.501 317.16L241.711 309.8L241.021 309.08L240.671 308.32L239.561 302.97L239.221 302.28L238.551 301.99L233.181 301.58L232.301 301.37L231.531 300.99L231.011 300.05L230.751 299.43L230.601 298.93L230.561 298.61V297.98L230.851 297.35L232.351 294.93L232.471 294.28L231.931 287.94L231.991 287.63L232.381 286.55L232.451 286.25L232.471 285.93L232.441 285.61L232.301 285.04L232.011 284.24L231.801 283.03L231.771 282.37L231.791 282.04L231.861 281.72L232.251 280.41L238.861 266.53L234.091 265.09L207.641 264.77H206.891L206.911 271.23L206.931 277.82L206.951 284.39L206.971 290.97L206.991 297.54L207.001 300.41L207.011 304.1L207.031 310.66L207.041 317.22L207.071 323.77L207.091 330.31L207.111 336.85L207.131 343.39L207.141 346.72L207.161 352.27L206.491 352.76L205.951 352.78L205.551 352.96L205.251 353.88L205.191 354.84L205.461 360.02L205.241 360.57L204.581 361.63L204.451 362.1L204.471 365.43L204.501 372.48L204.521 377.02L204.551 382.84L204.141 384.07L203.431 384.73L201.231 385.87L200.051 386.8L199.081 387.83L198.321 389.03L193.801 400.19L193.591 401.64L193.791 403.09L194.411 404.64L194.451 404.71L194.481 404.78L194.491 404.85L194.481 404.93L194.491 405.25L194.461 405.4L194.411 405.56L191.481 408.52L190.711 409.72L190.391 410.68L189.931 415.81L189.531 417.83L188.891 419.37L189.301 420.11L200.571 452.44L200.361 459.7L200.521 461.97L200.911 463.01L208.071 474.99L211.471 477.18L212.591 478.5L216.441 486.37L216.911 488.47L218.951 506.04L219.161 506.7L223.911 514.6L226.861 523.66V523.68L236.911 521.2L238.531 521.03L239.691 521.55L240.831 522.64L241.981 523.16L244.911 523.34L250.021 522.41L257.251 522.73L258.991 522.4L259.571 522.15L261.121 521.04L261.821 520.2L262.661 518.29L263.241 517.52L264.651 516.81L272.101 515.5L273.751 515.86L288.041 521.57L302.331 527.27L302.791 527.53L303.111 527.81L303.441 527.95L303.971 527.81L306.891 526.16L307.861 525.96L310.611 526.56V526.55L310.531 525.71V522.77L310.621 521.88L310.871 521.02L311.521 520.21L313.141 518.58L313.751 517.73V516.78L313.101 514.07L313.091 513.27L313.541 512.67L314.291 512.02L317.521 509.7L318.001 509.27L318.601 508.63L318.821 508.5L319.061 508.39L319.321 508.3L321.021 507.92L321.451 507.74L322.191 507.3L322.371 507.13L322.601 506.21L323.041 500.65L322.971 498.07L322.771 497.55L322.411 496.17L322.211 494.97L322.071 494.42L320.491 490.59L320.211 489.27L320.081 487.67L323.071 463.11L323.031 462.12L323.141 461.1L330.271 434.7Z" fill="#CCCCCC" stroke="white" stroke-width="0.5"/>
<path d="M100.329 529.23L97.8989 528.68H95.9289L94.1289 529.41L93.0789 530.73L92.8789 531.91L92.9689 533.76L93.8589 535.7L95.0289 537.36L96.5589 538.84L98.2589 539.48L100.149 539.76L101.759 539.94L103.299 539.79L103.629 540.48L103.919 541.41L104.289 542.24L105.349 541.42L106.159 540.77L107.149 538.74L107.779 536.53L108.229 534.4L108.319 532.83L108.229 531.45L107.419 530.99L106.159 531.27L105.709 530.71L105.799 529.14L105.349 528.96L103.019 529.14L100.329 529.23Z" fill="#CCCCCC" stroke="white" stroke-width="0.5"/>
<path d="M174.882 628.63L177.472 627.07L178.082 626.45L178.442 625.33L178.192 624.31L177.572 623.37L176.392 622.09L176.172 621.96L176.002 621.79L175.722 621.24L175.552 620.74L175.262 617.81L175.492 616.96L176.052 616.22L176.912 615.33L177.772 613.61L177.532 611.85L176.272 608.07L176.302 605.82L177.662 599.04L177.162 586.16L177.372 585.62L188.412 577.28L191.682 574.14L199.742 561.4L201.342 550.29L201.512 549.1L201.612 536.67L204.882 536.57L206.402 536.28L207.812 535.57L215.752 527.93L218.112 526.24L220.852 525.16L226.862 523.68V523.66L223.912 514.6L219.162 506.7L218.952 506.04L216.912 488.47L216.442 486.37L212.592 478.5L211.472 477.18L208.072 474.99L207.142 481.21L205.622 482.87L204.282 483.3L203.802 483.52L203.402 483.93L202.842 485.58L202.172 486.22L201.352 486.76L197.452 488.62L197.062 488.67L195.702 488.62L194.992 488.67L194.482 488.82L193.712 489.12L193.012 489.48L186.102 495.48L184.612 497.6L184.372 498.09L184.122 498.86L182.312 506.78L181.932 507.84L181.002 509.08L171.652 517.82L170.032 518.78L161.602 522.44L161.012 522.5L160.252 522.29L155.032 520.06L154.222 519.8L153.562 519.79L153.042 520.35L152.142 521.95L151.502 523.34L150.652 527.7L150.412 528.52L150.032 529.24L149.312 529.49L148.492 529.59L144.992 529.58L144.652 529.67L144.162 529.9L143.802 530.56L142.752 532.99L142.292 533.55L141.562 533.83L140.082 534.13L139.052 534.43L138.852 534.71L138.722 534.98L138.602 536.03L138.342 537.23L137.982 538.33L137.912 538.93L137.962 539.22L138.042 539.48L138.492 540.45L138.542 540.73L138.562 541.04L138.052 543.42L137.262 545.55L136.352 547.02L136.002 547.33L135.662 547.52H135.352L135.052 547.48L134.512 547.29L133.872 546.9L133.682 546.8L133.532 546.76L132.472 546.63L131.812 546.64L130.102 547.04L125.682 550.49L125.442 550.63L124.932 550.83L124.392 551L124.092 551.05L123.472 551.09L122.862 550.99L121.712 550.69L121.412 550.66L121.042 550.71L120.642 550.84L119.972 551.19L119.492 551.6L118.862 552.32L118.532 552.83L118.322 553.22L118.252 553.53L118.242 553.81L118.302 554.13L121.402 561.15L121.532 561.23L121.782 561.28L129.472 562.06L130.262 562.29L130.832 562.66L131.082 563.55L131.022 563.96L130.852 564.24L129.982 564.8L128.232 566.26L128.022 566.4L126.842 566.99L126.102 567.53L125.382 568.17L125.052 568.56L124.852 568.92L124.782 569.21L124.692 569.84L124.702 570.5L124.802 571.11L125.672 574.45L125.752 575.06L125.762 575.71L125.652 576.7L125.392 577.9L125.352 579.24L125.642 582.78L125.792 583.75L125.992 584.37V585.77L126.162 586.29H128.202L128.242 586.41L128.502 586.56L128.812 586.52L128.952 586.1L129.022 585.8L129.182 585.42L129.392 585.07L129.612 584.85L130.092 584.7L130.552 584.87L130.892 585.34L131.022 586.1L131.042 587.41L131.222 588.86L131.772 590.04L132.902 590.53L133.982 590.76L135.792 591.87L136.902 592.31L139.322 594.49L140.352 595.04L140.862 595.59L141.252 596.23L141.572 597.39L141.982 597.82L142.542 598.12L143.142 598.34L144.812 598.53L145.242 598.66L145.422 598.93L145.922 599.89L147.972 602.93L156.652 610.89L156.812 611.17L157.492 611.69L157.652 611.96L157.772 613.07L158.022 614.24L158.392 615.18L159.552 617.13L160.272 617.97L160.692 618.37L161.322 618.8L162.022 618.98L162.692 618.66L163.402 618.23L164.002 618.35L164.542 618.67L165.102 618.85L167.372 620.26L169.222 620.92L169.782 621.32L170.192 621.71L171.882 624.14L172.222 624.44L172.502 624.61L172.722 624.82L172.912 625.22L173.172 626.04L173.362 626.43L173.462 626.89L173.632 627.28L174.062 627.52L174.532 628.33L174.882 628.63Z" fill="#CCCCCC" stroke="white" stroke-width="0.5"/>
<path d="M593.211 489.71L593.911 489.61L594.571 489.28L597.981 486.85L598.311 486.37L598.041 485.98L596.011 485.27L595.421 484.95L595.071 484.48L594.791 483.93L594.501 483.13L594.371 482.41L594.521 481.17L594.701 480.51L594.961 479.88L595.451 479.41L596.811 478.51L598.261 477.81L599.151 477.7L599.241 477.57L599.111 325.59L581.971 331.85L561.331 346.14L546.471 350.63L463.941 404.71L446.171 411.5L425.481 423.08L416.211 426.36L413.211 426.67L404.011 426.45L403.051 426.51L402.051 426.71L398.081 428.83L389.461 428.93L369.211 425.83L367.231 428.02L363.141 439.62L366.401 441.52L367.091 443.29L367.351 450.59L367.551 451.62L369.571 455.13L370.161 456.81L371.761 465.37L372.061 466.09L372.521 466.74L373.431 467.78L373.931 468.5L375.021 471.8L375.751 472.59L376.581 473.21L380.921 475.64L381.631 476.14L382.071 476.62L382.231 477.37L382.501 483.84L382.601 484.52L382.881 485.24L383.531 485.76L386.051 486.95L386.851 487.18L387.501 487.15L388.321 486.6L392.961 482.45L393.731 481.98L394.601 481.81L397.401 481.9L397.851 481.99L398.041 482.15L399.711 484.8L400.501 485.76L400.941 486.05L402.931 486.99L403.511 487.16L404.461 487.62L406.121 488.95L406.391 489.06L406.711 489.13L407.741 489.18L408.301 489.45L409.031 489.97L411.641 492.39L411.881 492.55L413.871 493.5L414.521 493.91L415.081 494.4L415.271 494.7L415.461 495.13L415.631 495.65L415.961 497.45L416.101 497.83L416.431 498.36L422.701 502.77L423.461 503.52L423.701 504.36L423.821 505.25L423.801 506.89L423.881 507.55L424.011 508.2L424.371 509.2L424.571 511.08L424.581 512.87L424.501 513.7L424.261 514.43L423.651 514.92L409.241 522.26L408.981 522.49L408.801 522.7L408.661 522.91L408.481 523.25L408.211 523.94L408.121 524.22L408.041 524.83L408.121 525.51L408.301 526L408.731 526.86L409.441 527.41L410.271 527.89L412.021 528.66L412.771 529.1L413.301 529.61V530.35L412.121 534.37V535.17L413.321 542.48V543.35L413.011 544.22L409.951 549.93L409.711 550.25L410.371 550.57L411.041 551.16L412.291 552.67L417.341 557.3L417.711 557.54L418.211 557.73L418.411 557.75L418.611 557.61L419.191 557.32L419.771 557.13L421.021 556.98H421.621L422.981 557.27L424.191 557.86L426.401 559.53L427.381 560.62L428.831 563.03L429.701 564.09L431.551 565.17L444.861 569.13L446.631 569.33L461.351 571.06H463.221L465.911 570.3L466.831 570.23L477.551 571.5L478.621 571.42L478.971 571.27L479.521 570.91L480.101 570.4L480.451 569.99L489.121 559.7L490.811 558.08L491.781 557.45L492.321 557.26L492.571 557.3L492.781 557.26L493.181 556.84L493.411 556.32L493.611 555.05L493.821 554.51L494.711 553.64L504.291 548.24L506.401 547.35L530.961 542.05L530.951 542.03L530.801 541.77L529.171 535.83L529.351 534.97L529.721 533.73L538.461 524.59L538.831 524.02L539.021 523.64L539.131 523.23L539.201 522.61L539.211 521.22L539.131 520.19L539.161 519.74L539.421 519.33L559.921 500.31L560.931 499.62L561.591 499.54L562.301 499.75L564.331 500.92L564.941 501.19L565.381 501.21L565.991 501.08L575.201 498.18L587.891 489.91L588.541 489.59L589.041 489.49L593.211 489.71Z" fill="#CCCCCC" stroke="white" stroke-width="0.5"/>
<path d="M363.141 439.62L353.021 434.13L350.341 433.92L330.271 434.7L323.141 461.1L323.031 462.12L323.071 463.11L320.081 487.67L320.211 489.27L320.491 490.59L322.071 494.42L322.211 494.97L322.411 496.17L322.771 497.55L322.971 498.07L323.041 500.65L322.601 506.21L322.371 507.13L322.191 507.3L321.451 507.74L321.021 507.92L319.321 508.3L319.061 508.39L318.821 508.5L318.601 508.63L318.001 509.27L317.521 509.7L314.291 512.02L313.541 512.67L313.091 513.27L313.101 514.07L313.751 516.78V517.73L313.141 518.58L311.521 520.21L310.871 521.02L310.621 521.88L310.531 522.77V525.71L310.611 526.55V526.56L311.511 526.76L314.881 528.71L321.971 535.47L330.221 544.55L334.321 552.14L335.581 554.46L338.571 557.92L340.401 559.63L342.041 560.85L343.581 561.45L345.261 561.63L349.021 561.61L349.931 561.46L350.221 561.41L351.301 560.88L353.691 558.76L356.761 555.12L357.891 554.91L363.151 555.88L364.961 555.89L366.541 555.38L384.911 544.24L386.631 543.47L388.361 543.3L401.161 545.13L402.561 545.67L403.141 546.12L404.321 547.25L405.711 548.12L407.421 549.47L408.161 549.82L409.651 550.23L409.711 550.25L409.951 549.93L413.011 544.22L413.321 543.35V542.48L412.121 535.17V534.37L413.301 530.35V529.61L412.771 529.1L412.021 528.66L410.271 527.89L409.441 527.41L408.731 526.86L408.301 526L408.121 525.51L408.041 524.83L408.121 524.22L408.211 523.94L408.481 523.25L408.661 522.91L408.801 522.7L408.981 522.49L409.241 522.26L423.651 514.92L424.261 514.43L424.501 513.7L424.581 512.87L424.571 511.08L424.371 509.2L424.011 508.2L423.881 507.55L423.801 506.89L423.821 505.25L423.701 504.36L423.461 503.52L422.701 502.77L416.431 498.36L416.101 497.83L415.961 497.45L415.631 495.65L415.461 495.13L415.271 494.7L415.081 494.4L414.521 493.91L413.871 493.5L411.881 492.55L411.641 492.39L409.031 489.97L408.301 489.45L407.741 489.18L406.711 489.13L406.391 489.06L406.121 488.95L404.461 487.62L403.511 487.16L402.931 486.99L400.941 486.05L400.501 485.76L399.711 484.8L398.041 482.15L397.851 481.99L397.401 481.9L394.601 481.81L393.731 481.98L392.961 482.45L388.321 486.6L387.501 487.15L386.851 487.18L386.051 486.95L383.531 485.76L382.881 485.24L382.601 484.52L382.501 483.84L382.231 477.37L382.071 476.62L381.631 476.14L380.921 475.64L376.581 473.21L375.751 472.59L375.021 471.8L373.931 468.5L373.431 467.78L372.521 466.74L372.061 466.09L371.761 465.37L370.161 456.81L369.571 455.13L367.551 451.62L367.351 450.59L367.091 443.29L366.401 441.52L363.141 439.62Z" fill="#CCCCCC" stroke="white" stroke-width="0.5"/>
<path d="M597.661 1L594.231 3.21L590.791 5.42L587.361 7.63L583.921 9.83L580.481 12.04L577.041 14.25L573.611 16.45L570.171 18.65L566.731 20.86L563.311 23.06L559.871 25.26L556.431 27.47L553.001 29.67L549.561 31.87L546.121 34.07L542.681 36.27L539.251 38.46L535.811 40.66L532.371 42.86L528.931 45.06L525.501 47.25L522.061 49.45L518.631 51.64L515.191 53.83L511.751 56.03L508.321 58.22L504.881 60.41L501.451 62.6L498.011 64.8L494.581 66.99L491.141 69.17L487.701 71.36L484.271 73.55L480.831 75.74L477.401 77.92L473.961 80.11L470.521 82.3L467.091 84.49L463.651 86.67L460.221 88.85L456.781 91.03L453.341 93.22L449.911 95.4L446.471 97.58L443.031 99.76L439.601 101.94L436.161 104.12L432.721 106.3L429.291 108.48L425.851 110.66L422.411 112.84L418.971 115.01L415.541 117.19L412.111 119.36L408.671 121.54L405.231 123.71L401.801 125.89L398.361 128.06L394.921 130.23L391.491 132.4L388.051 134.58L384.611 136.75L381.181 138.92L377.741 141.09L371.131 145.26L366.121 149.63L362.521 152.77L358.911 155.92L355.311 159.06L351.701 162.2L347.791 165.61L345.881 167.33L342.971 170L339.791 172.93L336.601 175.85L333.431 178.76L330.241 181.68L327.061 184.6L323.871 187.51L320.681 190.43L317.511 193.35L314.321 196.26L311.141 199.17L307.951 202.08L304.771 204.99L301.591 207.9L298.401 210.81L295.211 213.72L292.031 216.63L288.051 220.25L285.871 221.8L283.601 222.66L277.091 223.98L272.061 225L261.001 227.25L249.941 229.49L244.911 230.51L235.381 232.45L225.851 234.38L216.331 236.32L206.801 238.25L206.831 244.86L206.851 251.46L206.871 258.06L206.891 264.65V264.77H207.641L234.091 265.09L238.861 266.53L232.251 280.41L231.861 281.72L231.791 282.04L231.771 282.37L231.801 283.03L232.011 284.24L232.301 285.04L232.441 285.61L232.471 285.93L232.451 286.25L232.381 286.55L231.991 287.63L231.931 287.94L232.471 294.28L232.351 294.93L230.851 297.35L230.561 297.98V298.61L230.601 298.93L230.751 299.43L231.011 300.05L231.531 300.99L232.301 301.37L233.181 301.58L238.551 301.99L239.221 302.28L239.561 302.97L240.671 308.32L241.021 309.08L241.711 309.8L250.501 317.16L257.171 326.35L258.291 327.42L259.321 328.24L286.321 345.29L297.651 353.95L302.101 358.98L302.341 359.35L313.381 386.1L313.521 386.64L314.381 388.16L314.691 388.56L314.981 388.87L318.431 391.52L319.121 391.94L319.471 392.07L327.281 394.14L328.131 394.6L328.351 395.34L328.381 396.19L327.271 404.67L330.271 434.7L350.341 433.92L353.021 434.13L363.141 439.62L367.231 428.02L369.211 425.83L389.461 428.93L398.081 428.83L402.051 426.71L403.051 426.51L404.011 426.45L413.211 426.67L416.211 426.36L425.481 423.08L446.171 411.5L463.941 404.71L546.471 350.63L561.331 346.14L581.971 331.85L599.111 325.59L600.151 325.04L600.951 324.28L611.211 317.27L649.741 299.12L778.951 299.1H779.371H779.391L779.561 297.13L779.761 294.71L779.961 292.29L780.171 289.86L780.381 287.44L780.581 285.01L780.781 282.59L780.981 280.16L781.191 277.73L781.391 275.3L781.591 272.87L781.801 270.45L782.011 268.01L782.211 265.58L782.411 263.15L782.621 260.72L782.821 258.29L783.021 255.85L783.221 253.42L783.421 250.98L783.631 248.55L783.841 246.11L784.041 243.68L784.241 241.24L784.451 238.8L784.651 236.36L784.851 233.92L785.061 231.49L785.261 229.04L785.471 226.6L785.671 224.16L785.871 221.72L786.081 219.27L786.281 216.83L786.481 214.39L786.691 211.94L786.891 209.5L787.091 207.04L787.301 204.6L787.511 202.15L787.711 199.7L787.891 197.46L789.471 193.25L790.231 191.85L792.251 188.14L794.271 184.43L796.291 180.72L798.321 177.01L799.351 175.11L799.721 174.19L799.611 173.3L798.901 172.13L797.701 170.79L794.761 167.51L791.821 164.23L788.881 160.95L785.941 157.66L784.531 156.1L780.421 152.81L779.521 151.78L778.811 150.6L778.211 149.23L777.791 146.8L778.211 144.3L779.461 142.21L781.491 141.04L780.661 139.73L779.821 138.4L778.971 137.08L778.121 135.76L777.281 134.43L776.431 133.11L775.581 131.78L774.741 130.45L773.891 129.13L773.041 127.8L772.201 126.47L771.351 125.15L770.511 123.82L769.661 122.49L768.821 121.16L767.971 119.84L767.131 118.51L765.931 116.63L764.191 114.5L763.221 113.81L760.841 112.55L760.041 111.76L759.831 110.88L759.821 109.46L759.801 108.39L759.761 105.56L759.691 101.56L759.621 96.97L759.541 92.37L759.471 88.36L759.431 85.53L759.411 84.45L759.031 82.26L758.621 79.94L758.211 77.63L757.601 74.21L756.991 70.8L756.391 67.38L755.771 63.96L755.171 60.53L754.561 57.11L753.961 53.69L753.351 50.26L752.741 46.83L752.141 43.4L751.531 39.97L750.931 36.54L750.321 33.1L749.711 29.67L749.681 29.69H749.671L741.031 34.43L732.401 39.16L723.761 43.89L715.121 48.62L711.931 50.36L711.151 50.46L710.411 50.08L708.111 48.02L701.791 42.39L695.481 36.75L689.161 31.1L682.851 25.45L680.011 22.9L674.081 19.57L668.951 18.32L664.501 17.24L660.041 16.16L655.581 15.08L651.131 14L646.671 12.91L642.221 11.83L637.771 10.75L633.301 9.67L628.851 8.58L624.401 7.5L619.941 6.42L615.491 5.33L611.031 4.25L606.571 3.17L602.111 2.09L597.661 1Z" fill="#CCCCCC" stroke="white" stroke-width="0.5"/>
<path d="M779.392 299.1H779.372H778.952L649.742 299.12L611.212 317.27L600.952 324.28L600.152 325.04L599.112 325.59L599.242 477.57L599.152 477.7L598.262 477.81L596.812 478.51L595.452 479.41L594.962 479.88L594.702 480.51L594.522 481.17L594.372 482.41L594.502 483.13L594.792 483.93L595.072 484.48L595.422 484.95L596.012 485.27L598.042 485.98L598.312 486.37L597.982 486.85L594.572 489.28L593.912 489.61L593.212 489.71L589.042 489.49L588.542 489.59L587.892 489.91L575.202 498.18L565.992 501.08L565.382 501.21L564.942 501.19L564.332 500.92L562.302 499.75L561.592 499.54L560.932 499.62L559.922 500.31L539.422 519.33L539.162 519.74L539.132 520.19L539.212 521.22L539.202 522.61L539.132 523.23L539.022 523.64L538.832 524.02L538.462 524.59L529.722 533.73L529.352 534.97L529.172 535.83L530.802 541.77L530.952 542.03L530.962 542.05L532.332 541.75L537.192 541.36L546.372 542.44L570.962 542.31L586.222 546.2L591.802 548.49L598.832 552.81L601.152 554.66L602.152 555.16L605.122 555.88L606.792 555.74L607.512 555.61L608.572 554.88L609.412 554.71L611.952 555.61L612.532 555.93L612.722 556.28L612.742 556.56L612.832 556.76L613.232 556.83L613.422 556.71L613.642 556.44L613.962 556.19L614.442 556.12L614.942 556.41L615.312 556.86L615.682 557.12L616.162 556.83L616.992 557.07L618.762 557.14L620.162 557.19L621.322 557.37L622.282 557.71L623.112 557.88L623.812 557.54L624.042 556.93L624.472 554.16L624.702 553.97L625.852 553.76L626.232 553.64L626.632 553.18L626.902 552.63L627.222 551.49L626.422 551.18L626.762 550.41L627.422 549.46L627.572 548.62L629.412 546.87L629.672 546.69L629.842 546.99L630.202 546.87L630.552 546.62L630.892 546.26L630.992 545.95L631.052 545.11L631.592 545.53L632.022 545.98L632.522 546.35L633.292 546.5L633.732 546.23L634.082 545.03L634.672 544.76L635.812 544.5L636.642 543.85L637.942 542.24L638.282 541.38L638.352 541.36L638.492 541.15L638.792 541.38L639.082 541.74L639.182 541.92L639.892 541.86L639.872 541.66L639.562 541.28L639.362 540.67L639.502 540.48L640.172 540.24L640.392 540.12L640.522 540.08L640.962 540.15L641.112 540.12L641.152 539.98L641.072 539.56L641.112 539.41L642.512 537.83L643.182 537.28L642.862 536.87L642.542 536.55L642.192 536.34L641.772 536.22V535.83L642.552 536.05L643.202 536.37L643.662 536.32L643.872 535.48L645.282 535.79L646.672 535.53L651.212 533.24L652.502 532.76L653.902 532.64V532.96L653.622 533.47L654.192 533.68L655.142 533.63L655.972 533.35L655.982 533.53L655.972 534.09L656.342 533.72L656.722 532.85L657.002 532.64L657.492 532.74L657.602 533.15L657.492 533.68L657.322 534.09L658.672 533.48L660.032 533.22L661.252 532.77L662.172 531.58L661.462 531.48L661.362 531.23L661.822 530.51L662.042 530.43L662.402 530.45L662.722 530.38L662.862 529.96L662.792 529.67L662.532 529.3L662.552 529.09L662.822 528.57L663.172 528.1L665.192 526.2L665.952 525.65L665.932 524.76L666.392 524.39L667.862 524.14L667.912 524.13L680.402 524.67L680.042 523.01L679.672 521.35L679.312 519.69L678.952 518.04L678.592 516.38L678.232 514.73L677.872 513.07L677.502 511.41L677.142 509.75L676.782 508.09L676.422 506.44L676.062 504.78L675.702 503.12L675.332 501.46L674.972 499.8L674.612 498.14L674.082 495.75L673.382 493.1L672.412 489.48L672.432 486.41L674.082 484.08L675.372 483.44L677.192 482.68L679.242 482.51L680.442 482.27L681.262 482.11L682.952 480.68L683.342 479.74L683.402 478.77L683.082 476.77L682.912 476.46L682.372 475.97L682.292 475.7L682.472 475.43L683.472 474.73L685.082 472.91L685.582 472.52L686.602 472.29L687.562 472.2L688.332 471.79L688.782 470.57L688.722 469.51L688.012 467.28L687.802 466.21L687.872 465.1L688.142 464.1L688.892 462.48L690.542 458.92L691.842 456.09L693.312 454.03L694.822 451.9L696.322 449.77L697.832 447.64L699.342 445.51L700.842 443.38L702.352 441.24L703.862 439.11L705.362 436.98L706.872 434.85L708.382 432.71L709.882 430.58L711.402 428.45L712.902 426.31L714.402 424.17L715.922 422.04L717.422 419.9L718.862 417.86L721.622 414.88L724.582 411.69L726.532 409.57L729.362 406.51L732.202 403.44L735.032 400.38L737.872 397.31L740.702 394.24L743.532 391.17L746.362 388.11L749.192 385.04L752.032 381.97L754.862 378.9L757.692 375.82L760.522 372.75L763.362 369.67L766.192 366.6L769.032 363.52L771.852 360.45L773.572 358.58L774.232 357.61L774.382 357.07L774.562 356.44L774.672 355.11L774.882 352.7L775.082 350.29L775.282 347.88L775.482 345.47L775.692 343.06L775.892 340.65L776.092 338.24L776.302 335.82L776.502 333.41L776.712 331L776.912 328.58L777.122 326.16L777.322 323.75L777.522 321.33L777.732 318.92L777.922 316.5L778.132 314.08L778.342 311.66L778.542 309.24L778.742 306.82L778.952 304.4L779.152 301.98L779.352 299.56L779.392 299.1Z" fill="#CCCCCC" stroke="white" stroke-width="0.5"/>
<path d="M208.07 474.99L200.91 463.01L200.52 461.97L200.36 459.7L200.57 452.44L189.3 420.11L188.89 419.37L188.76 419.69L187.49 421.23L185.58 422.27L181.57 423.04L179.72 424.06L175.77 428.45L171.35 431.16L170.85 432.56L170.37 438.6L169.45 438.41L169.17 438.32L163.97 437.43L154.47 435.79L148.45 434.76L146.46 434.8L145.65 434.99L145.28 435.26L145.16 435.79L145.06 436.75L145.05 438.68L144.77 439.37L142.27 439.46L137.4 439.63L132.52 439.8L127.64 439.97L122.76 440.14L117.88 440.3L113 440.47L108.13 440.64L103.25 440.8L98.37 440.97L93.49 441.14L88.62 441.31L83.74 441.48L78.86 441.65L73.99 441.81L69.11 441.98L64.23 442.15L60.51 442.28L58.81 442.69L57.45 443.52L54.03 446.72L49.98 450.51L46.68 453.61L42.44 457.57L41.21 458.19L39.84 458.48L32.11 458.73L30.64 459.3L29.2 459.86L27.8 460.21L27.11 460.27L19.27 457.45L17.69 457.53L14.42 458.69L12.82 459.04L11.11 459.03L4.45 457.33L4.04 457.88L4.02 459.17L4.31 461.77L4.43 462.96L3.97 463.66L3.27 464.24L2.65 465.05L2.57 466.55L4.03 469.57L4.37 471.16L1 480.79L1.29 483.43L2.8 485.95L3.49 486.59L10.76 493.26L12.91 496.17L13.05 496.47L13 496.9L12.52 497.53L12.33 498L12.07 499.61L11.83 500.23L10.62 502.12L10.4 502.73L10.62 503.32L11.26 504.29L11.58 504.65L11.89 504.9L12.17 505.17L12.38 505.61L12.33 505.95L11.91 506.79V507.24L12.38 507.78L13.04 508.1L13.57 508.56L13.67 509.48L14.07 510.4L14.9 510.97L15.79 511.43L16.33 512.04L16.31 512.5L15.9 513.43L15.93 513.98L16.24 514.36L17.29 515.05L17.69 515.5L18.12 516.47L18.52 517.03L18.73 517.32L19.5 518.04L21.2 519.16L21.71 519.85L22.28 520.46L23.25 520.82L23.6 521.31L23.29 522.29L22.8 523.37L22.58 524.16L23.28 525.46L24.61 525.92L31.32 525.71L31.83 525.81L31.97 526.17L31.96 526.6L32 526.91L31.97 527.1L31.8 527.32L31.84 527.66L32.44 528.24L33.43 528.73L34.33 528.77L36.23 528.59L38.57 529.3L41.29 530.95L43.34 533.13L43.6 535.47L44.54 537.05L46.21 538.28L51.71 540.84L52.61 541.14L54.75 541.41L55.6 541.63L56.37 542.17L57.34 543.26L55.97 543.81L54.98 543.34L54.16 542.6L53.25 542.32L52.98 542.61L52.74 543.18L52.23 544.96L51.88 545.07L50.76 544.59L48.05 543.91L44.01 542.29L42.94 542.1L42.28 544.18L42.3 548.58L42.32 553.46L42.34 556.76V557.72L42.49 558.7L42.94 559.53L44.39 560.33L48 560.64L49.53 561.4L52.4 563.84L55.42 566.4L59.16 569.58L60.46 570.68L64.58 574.17L67.36 576.52L70.83 579.46L72.24 580.26L73.92 580.7L79.09 581.15L85.48 581.71L86.38 581.61L87.23 581.04L87.84 580.15L88.37 579.13L89.23 577.86L89.57 577.17L89.79 576.92L90.21 576.83L90.56 577.01L90.96 577.08L91.52 576.7L92.37 575.76L92.84 575.49L97.75 575.9L99.77 576.46L101.09 578.01L101.39 579.02L101.58 579.3L102.12 579.85L102.65 580.28L103.57 580.86L104.03 581.43L104.37 582.13L104.53 582.79L104.91 585.9L105.16 586.56L105.57 587.36L105.86 587.76L106.5 588.47L106.7 588.86V589.08L106.54 589.62V589.88L106.64 591.02L106.28 591.57L105.54 591.76L102.54 592.02L102.28 591.97L101.74 591.71L101.59 591.66L101.27 591.84L100.91 592.34L100.68 592.52L97.76 593.13L97 593.77L96.88 595.27L97.85 597.08L100.01 600.12L103.79 605.42L107.34 610.41L111.34 616.02L113.97 618.27L113.87 617.74L113.28 616.85L113.21 616.29L113.5 615.62L113.93 615.51L114.4 615.58L114.84 615.45L115.18 615.06L115.58 614.32L115.93 613.95L116.43 613.9L116.96 614.09L117.33 614.01L117.36 613.13L117.26 612.48L116.93 612.24L116.45 612.13L115.91 611.88L115.39 611.45L115.03 611.03L114.75 610.52L113.05 605.68L112.55 602.8L112.51 601.63L112.95 600.73L114.17 600.16L114.87 600.08L116.03 600.12L116.67 600.06L116.79 599.93L117.21 599.35L117.47 599.15L117.85 599.24L118.13 599.54L118.39 599.63L118.68 599.09L118.91 598.45L119.27 598.3L119.74 598.38L120.34 598.4L120.48 598.51L120.56 598.8L120.71 599.03L121.09 599L121.38 598.83L121.84 598.39L122.07 598.24L123.86 597.74L124.06 597.78L124.5 598.04L124.75 598.07L125.05 597.91L125.66 597.46L126.01 597.39L127.79 597.87L128.25 597.61L128.95 596.48L129.12 596.08L129.22 595.68L129.37 595.31L129.64 595L130.18 594.79L130.72 595.15L131.24 595.02L131.71 594.64L132.52 593.67L133.08 593.3L133.56 593.2L134.58 593.24L135.1 593.13L136.3 593.09L136.9 592.31L135.79 591.87L133.98 590.76L132.9 590.53L131.77 590.04L131.22 588.86L131.04 587.41L131.02 586.1L130.89 585.34L130.55 584.87L130.09 584.7L129.61 584.85L129.39 585.07L129.18 585.42L129.02 585.8L128.95 586.1L128.81 586.52L128.5 586.56L128.24 586.41L128.2 586.29H126.16L125.99 585.77V584.37L125.79 583.75L125.64 582.78L125.35 579.24L125.39 577.9L125.65 576.7L125.76 575.71L125.75 575.06L125.67 574.45L124.8 571.11L124.7 570.5L124.69 569.84L124.78 569.21L124.85 568.92L125.05 568.56L125.38 568.17L126.1 567.53L126.84 566.99L128.02 566.4L128.23 566.26L129.98 564.8L130.85 564.24L131.02 563.96L131.08 563.55L130.83 562.66L130.26 562.29L129.47 562.06L121.78 561.28L121.53 561.23L121.4 561.15L118.3 554.13L118.24 553.81L118.25 553.53L118.32 553.22L118.53 552.83L118.86 552.32L119.49 551.6L119.97 551.19L120.64 550.84L121.04 550.71L121.41 550.66L121.71 550.69L122.86 550.99L123.47 551.09L124.09 551.05L124.39 551L124.93 550.83L125.44 550.63L125.68 550.49L130.1 547.04L131.81 546.64L132.47 546.63L133.53 546.76L133.68 546.8L133.87 546.9L134.51 547.29L135.05 547.48L135.35 547.52H135.66L136 547.33L136.35 547.02L137.26 545.55L138.05 543.42L138.56 541.04L138.54 540.73L138.49 540.45L138.04 539.48L137.96 539.22L137.91 538.93L137.98 538.33L138.34 537.23L138.6 536.03L138.72 534.98L138.85 534.71L139.05 534.43L140.08 534.13L141.56 533.83L142.29 533.55L142.75 532.99L143.8 530.56L144.16 529.9L144.65 529.67L144.99 529.58L148.49 529.59L149.31 529.49L150.03 529.24L150.41 528.52L150.65 527.7L151.5 523.34L152.14 521.95L153.04 520.35L153.56 519.79L154.22 519.8L155.03 520.06L160.25 522.29L161.01 522.5L161.6 522.44L170.03 518.78L171.65 517.82L181 509.08L181.93 507.84L182.31 506.78L184.12 498.86L184.37 498.09L184.61 497.6L186.1 495.48L193.01 489.48L193.71 489.12L194.48 488.82L194.99 488.67L195.7 488.62L197.06 488.67L197.45 488.62L201.35 486.76L202.17 486.22L202.84 485.58L203.4 483.93L203.8 483.52L204.28 483.3L205.62 482.87L207.14 481.21L208.07 474.99ZM101.76 539.94L100.15 539.76L98.26 539.48L96.56 538.84L95.03 537.36L93.86 535.7L92.97 533.76L92.88 531.91L93.08 530.73L94.13 529.41L95.93 528.68H97.9L100.33 529.23L103.02 529.14L105.35 528.96L105.8 529.14L105.71 530.71L106.16 531.27L107.42 530.99L108.23 531.45L108.32 532.83L108.23 534.4L107.78 536.53L107.15 538.74L106.16 540.77L105.35 541.42L104.29 542.24L103.92 541.41L103.63 540.48L103.3 539.79L101.76 539.94Z" fill="#CCCCCC" stroke="white" stroke-width="0.5"/>
</svg>
