<svg width="800" height="904" viewBox="0 0 800 904" fill="none" xmlns="http://www.w3.org/2000/svg">
<path d="M246.001 902.9L331.601 833.87L369.651 817.85L405.751 836.75L604.121 698.7L689.331 596L732.811 555.33L799.391 530.28L745.232 420.21L609.941 44.1L597.131 20.7L473.881 6.34L413.901 1L260.761 6.34L164.481 198.05L136.731 217.76L114.991 219.82L96.5515 224.74L80.0515 251.02L76.7515 287.98L90.1415 316.31L107.421 343L115.571 371.75L13.2815 532.74L0.271484 623.11L115.571 661.31L126.051 683.91L148.181 767.72L122.561 784.57L107.421 802.23L95.1915 820.31L80.0515 836.75L140.221 828.53L193.211 831.41L231.061 853.59L246.001 902.9Z" fill="#CCCCCC" stroke="white" stroke-width="0.5"/>
</svg>
