<svg width="800" height="550" viewBox="0 0 800 550" fill="none" xmlns="http://www.w3.org/2000/svg">
<path d="M561.71 191.14L560.55 190.68L557.2 189.78L556.55 189.2H556.19L555.89 190.79L555.61 191.48L554.96 191.76L554.26 191.89L553.52 192.2L552.87 192.61L552.43 193.01L551.94 193.32L550.55 193.73L550.06 193.93L550.03 194.07L550.09 194.52L550.06 194.66L549.91 194.7L549.49 194.63L549.34 194.66L548.62 195.38L547.15 197.58L546.35 198.11L545.37 199.4L545.03 199.6L544.25 199.89L543.9 200.09L542.47 201.35L541.08 203L539.85 204.93L538.47 208.04L537.87 210.43L537.77 211.54L537.97 213.9L537.88 215.01L537.37 216.09L536.7 216.85L535.74 217.69L534.65 218.38L533.57 218.66L532.71 219.79L532.32 220.11L531.74 220.3L530.13 220.47L529.3 219.47L528.11 218.33L526.65 217.82L525.08 218.66L524.65 218.33L524.24 218.52L524.08 219.04L524.39 219.72L523.96 220.69L523.31 221.48L521.87 222.64L521.04 222.95L519.23 223.1L518.4 223.55L517.37 223.84L516.5 223.14L515.9 222L515.67 221L515.19 220.14L514.08 219.46L510.93 218.23L509.95 218.04L508.93 218.07L506.25 218.53L505.9 218.66L505.64 218.88L504.99 219.72L504.44 220L502.83 221.27L502.08 221.56L501.45 221.91L500.92 222.7L500.49 223.56L500.1 224.09L499.2 224.37L498.22 224.21L497.15 223.9L493.51 223.62L492.41 223.31L491.41 222.64L490.72 221.72L490.29 220.59L490.07 219.45L490 218.46L489.83 217.76L488.31 214.65L486.96 212.5L486.78 211.31L486.54 210.82L485.58 209.97L485.71 209.72L486.36 209.18L486.8 208.97L487.82 208.77L488.2 208.46L488.33 207.62L488.28 206.26L488.05 204.99L487.16 203.91L487.87 202.75L489.05 201.53L490 200.85L492.39 200.28L493.5 199.75L493.97 198.82L494.13 198.39L494.42 198.05L494.58 197.61L494.33 196.83L493.92 196.36L493.34 195.97L492.16 195.38L489.83 194.72L487.53 194.96L485.73 196.13L484.85 198.57L484.71 198.68L484.59 198.85L484.53 199.22L484.65 199.51L485.16 199.97L485.28 200.27L485.16 200.86L484.65 201.82L484.46 202.75L484.19 203.33L484.2 203.72L484.82 204.07L484.92 204.11L485.24 205.12L485.33 205.66L485.28 206.25L484.65 207.44L483.67 208.2L482.64 208.75L481.86 209.36L481.5 209.73L480.85 210.3L480.55 210.62L480.27 211.18L479.84 212.31L479.48 212.83L480 213.47L480.83 214.85L481.28 215.37L481.87 215.65L482.47 215.76L482.94 215.99L483.12 216.63L482.84 217.55L481.47 219.81L480.91 220.47L479.21 221.63L477.17 222.3L475.09 222.24L473.32 221.2H472.95V221.97L472.63 222.68L472.16 223.17L471.71 223.37L470.8 223.51L470.23 223.85L469.73 224.22L469.02 224.49L468.54 224.41L467.73 224.12L467.15 223.6L467.67 222.01L467.6 220.99L467.29 220.21L466.82 220.11L466.78 219.93V219.78L466.72 219.7L466.46 219.72L466.74 220.29L466.8 220.88L466.6 221.44L466.1 221.92L465.55 221.62H465.04L464.6 221.85L464.3 222.28L464.07 222.1L463.88 222L463.7 221.85L463.55 221.56L460.01 223.15L459.04 223.37L458.42 223.67L457.94 225.1L457.42 225.55L457.07 225.43L455.61 224.49L455.31 225.21L454.73 225.14L454.15 224.64L453.8 224.09L453.02 224.61L452.36 225.24L451.69 225.47L450.89 224.82L449.57 225.36L442.92 226.1L442.67 225.84L442.2 225.22L442.27 225.25L441.63 224.29L441.29 223.98L440.99 223.8L440.65 223.74L440.21 223.73L439.5 223.27L435.55 221.46L434.63 221.38L433.99 220.76L429.91 218.99L427.16 220.6L426.44 220.8L425.63 220.81L425.29 220.89L424.47 221.56L423.44 222.01L423.11 222.33L423.02 223.01L422.24 222.63L420.1 222.28L419.2 221.91L418.56 221.39L418.05 220.85L417.55 220.47L416.87 220.32L415.02 220.47L413.39 219.88L412.68 219.82L411.99 220.29L410.71 221.62L409.2 222.65L407.64 222.95L406.22 222.1L406 221.68L405.73 220.71L405.47 220.29L405 219.97L404.08 219.78L403.66 219.55L402.42 218.54L401.8 218.22L400.96 217.9L400.87 218.1L400.88 218.18L400.83 218.21L400.57 218.26L398.68 219.16L397.25 220.72L396.32 222.6L395.4 228.6L395.62 230.59L396.56 232.83L398.41 234.82L398.65 235.43L399.23 235.64L399.9 235.69L400.4 235.9L401.34 236.42L403.82 236.6L404.93 236.81L405.78 237.37L407.38 238.72L408.37 238.99L409.06 238.77L409.81 238.26L411.06 237.17L411.83 237.66L413.07 238.91L413.94 239.35L415.41 239.19L416.18 239.28L416.5 239.91L416.9 240.11L417.76 240.04L418.63 240.09L419.03 240.65L419.15 241.27L419.35 241.9L419.4 242.58L419.03 243.37L419.41 243.73L420.12 243.06L420.74 242.87L422.47 243.01L423 243.12L423.13 243.4L423.14 243.76L423.35 244.09L423.81 244.29L424.16 244.26L424.48 244.33L424.83 244.82L424.34 245.07L423.94 245.4L423.62 245.82L423.35 246.3L423.7 246.67L424.11 247L425.47 246.61L427.69 247.2L431.71 248.84L432.45 248.67L433 248.86L433.46 248.76L433.87 247.72L434.26 248.67L433.95 249.41L433.34 250.14L432.82 251.02L434.05 251.33L434.94 252.21L435.3 253.22L434.96 253.95L435.33 254.78L434.96 254.88L434.33 254.79L433.87 255.04L433.86 255.97L434.52 255.98L435.33 255.61L435.71 255.37L437.83 255.3L438.56 255.04L439.08 254.45L439.55 253.51L439.8 252.51L439.68 251.74H440.01L440.43 252.21L441.06 252.41L442.73 252.47L443.55 252.35L444.82 251.86L445.27 251.74L445.81 251.51L447.14 250.49L448 250.29L448.9 250.45L449.52 250.75L450.53 251.41L455.58 252.83L456.85 253.75L459.89 257.79L460.66 259.39L461.43 260.58L461.74 261.18L462.29 261.77L464.31 263.27L464.63 263.75L465.45 263.44L466.27 263.49L467.55 263.75L468.17 263.55L469.15 262.82L469.51 262.66L474.54 262.78L475.91 263.02L476.24 262.93L477.67 263.02L478.18 262.98L478.67 262.89L479.21 263.04L479.84 263.75L480.68 263.01L481.65 262.43L482.57 262.06L483.3 261.93L483.98 262.2L484.47 262.85L484.7 263.66L484.53 264.44L485.32 264.15L485.85 263.72L485.91 263.21L485.28 262.66L485.89 262.37L486 262.3L486.39 261.34L486.74 261.07L487.52 261.55L487.82 261.66L488.08 261.81L488.2 262.12L488.18 262.69L488.23 262.96L488.36 263.21L489.35 263.46L490.5 262.76L491.63 261.78L492.52 261.17L493.29 261.08L493.69 261.24L494.01 261.48L495.15 261.72L495.48 262.01L495.97 262.84L496.92 263.15L498.31 263.05L500.43 262.59L500.86 262.35L501 262.3L501.31 262.41L501.45 262.66L501.56 262.9L501.72 263.02L502.22 262.82L502.73 262.43L503.28 262.2L503.89 262.48L504.77 262.72L506.15 262.57L508.46 261.93L509.04 261.47L510.34 260.08L510.79 259.79L511.92 259.48L513.06 258.72L514.95 256.85L515.03 257.11L515.08 257.14H515.16L515.31 257.25L515.88 256.55L516.9 255.75L518 255.19L518.77 255.21L519.13 255.67L519.34 256.02L519.62 256.05L520.19 255.57L520.65 255.35L522.56 255.04L524.39 254.32L524.63 254.27L524.56 252.69L524.36 252.32L523.9 251.65L519.29 247.07L516.6 243.82L515.91 242.58L515.51 241.59L515.4 239.03L515.5 237.6L515.63 237.15L515.78 236.95L518.54 235.54L520.21 234.88L521.1 234.66L526.8 234.38L527.78 234.12L528.64 233.64L529.75 232.69L530.17 232.53L530.7 232.5L531.37 232.55L535.29 231.62L535.75 231.26L535.89 230.88L535.83 230.31L535.64 229.75L535.51 229.04L535.45 228.19L535.64 227.14L535.86 226.66L536.21 226.31L536.56 226.24L536.8 226.23L537.15 226.33L538.93 227.22L539.65 227.49L540.33 227.5L540.95 227.28L541.59 226.79L544.36 223.99L545.16 223.37L547.86 221.74L548.92 220.65L549.46 219.79L549.74 218.97L549.7 218.41L549.49 217.98L549.2 217.76L548.81 217.64L548.25 217.62L547.03 217.74L546.39 217.73L545.89 217.62L545.55 217.32L545.5 216.74L549.83 206.87L555 198.54L555.55 197.93L560.51 195.41L560.95 195.25L572.31 194.81L572.9 194.24L573.14 193.92L570.98 191.6L570.92 191.61L570.09 192.25L569.06 192.49L567.05 191.01L564.92 189.89L563.73 190.9L562.72 191.27L561.71 191.14ZM547.06 191.75L547.63 191.53L548.5 190.77V189.99L547.58 189.09L546.66 188.56L545.98 188.33L545.17 188.38L544.3 188.8L543.91 189.08L543.13 189.76L543.02 190.37L543.66 191.03L544.37 191.49L544.8 191.84L545.74 191.99L547.06 191.75ZM440.45 188.7L440.6 187.91L440.01 187.02L437.92 187.81L437.51 188.11L437.44 188.86L437.91 189.48L438.63 189.95L439.31 190.28L440.45 188.7ZM460.07 176.28L459.24 175.73L458.5 175.41L457.13 175.87L455.67 176.85L455.08 178.01L456.33 179.03L457.39 178.63L457.81 178.38L458.14 177.94L457.34 177.72L457.08 177.16L457.35 176.62L458.14 176.47L458.79 176.76L459.12 177.29L459.36 177.91L459.76 178.47L459.9 178.8L460.01 179.2L460.2 179.46L460.66 179.36L460.85 179.09L460.96 178.64L461.02 177.75L460.74 176.97L460.07 176.28Z" fill="#CCCCCC" stroke="white" stroke-width="0.5"/>
<path d="M377.05 354.03L325 353.82L341.31 369.12L346.26 371.96L350.06 373.7L352.41 375.36L354.84 377.83L356.85 380.79L358.12 383.79L357.19 386.77L352.38 394.04L352.09 395.64L352.02 396.62L352.15 399.13L352.46 400.05L352.92 400.73L354.52 402.53L355.43 403.97L356.27 404.9L357.02 405.55L357.95 406.19L358.78 407.02L360.75 409.5L361.36 410.09L361.83 410.47L362.14 410.95L363.97 415.14L364.46 415.82L364.99 416.19L365.57 416.23L366.1 416.11L366.5 415.91L367.07 415.43L367.39 415.38L367.72 415.52L368.37 416.08L371.17 421.01L371.78 421.83L372.27 422.29L372.66 422.56L373.11 422.73L374.12 422.89L374.68 423.09L375.48 423.76L379.78 429.86L380.21 430.8L380.39 431.76L380.25 432.56L379.73 434.11L379.6 435.07L379.72 436.12L380.44 437.71L381.2 438.47L381.97 438.93L384.3 439.47L385.01 439.79L386.66 441.09L387.88 442.28L391.07 444.63L393.97 447.23L394.82 447.79L395.51 448.02L396.12 448L396.7 447.82L397.39 447.52L398.1 447.44L398.86 447.64L402.38 450.35L404.66 451.55L406.9 453.19L407.73 453.62L409.17 454.14L409.93 454.5L411.56 455.68L411.84 455.82L412.09 455.92L412.37 455.96L412.63 455.9L413 455.72L413.49 455.33L413.84 455.11L414.17 455.02L414.54 455.11L414.73 455.32L414.78 455.59L414.73 456L414.74 456.44L414.94 457L415.39 457.25L416.04 457.3L417.65 457.28L418.43 457.41L419.12 457.7L420.37 458.46L421 458.66L421.59 458.63L422.89 458.05L424.63 457.49L425.33 457.35L428.29 457.4L428.95 457.34L429.47 457.15L429.78 456.93L430.03 456.45L430.15 455.91V454.87L430.04 454.28L429.81 453.62L428.52 451.32L428.31 450.83L428.2 450.4L428.24 449.96L428.3 449.62L428.76 449.28L428.72 447.42L428.78 447.01L429.04 446.12L429.26 445.68L429.5 445.33L429.83 444.97L430.71 444.3L431.26 444.09L431.98 443.96L433.23 443.98L434.1 444.17L435.98 444.86L436.46 444.93L452.23 440.47L454.78 439.42L455.43 439.02H455.22L454.38 438.83L454.89 438.12L453.06 437.39L453 437.3L452.33 436.66L452.1 436.61L451.5 436.7L451.25 436.66L450.99 436.45L450.44 435.82L450.14 435.56L448.72 434.83L444.97 434.17L443.04 433.27L442.2 431.34L441.97 430.2L440.96 428.13L440.73 426.92L441.13 425.62L442.88 424.13L443.28 423.24L443.4 422.15L443.89 420.37L444 419.22L444.16 418.57L445.05 416.97L445.45 416.45L446.33 416.74L447.29 416.45L448.16 415.81L448.72 414.99L448.88 413.9L448.22 413.65L447.27 413.5L446.53 412.77L447.05 412.79L447.49 412.73L448.33 412.44L447.98 412.41L447.74 412.32L447.54 412.19L447.25 412.04L447.91 411.04L448.21 410.43L448.33 409.69L448.2 409.04L447.87 408.43L447.41 408.13L446.89 408.45H446.53L446.41 407.88L446.09 407.67L445.63 407.76L445.09 408.05L443.94 407.07L439.18 407.41L438.56 405.86L437.82 406.23L437.27 406.72L436.43 407.69L436.11 407.84L435.75 407.91L435.47 408.1L435.35 408.61L435.26 408.8L435.02 408.98L434.72 409.1L431.34 409.88L429.91 409.97L428.83 409.15L428.01 409.5L426.92 409.59L425.95 409.5L425.54 409.33L425.34 409.95L424.86 410.52L424.27 410.98L423.17 411.62L422.58 411.85L421.9 411.99L421.02 412.04L418.78 412.57L418.3 412.77L417.5 412.48L415.64 412.54L411.06 411.7L409.18 410.65L407.79 408.96L406.87 406.92L406.37 404.77L406.22 404.4L405.75 403.77L405.65 403.46L405.72 403.2L406.01 402.69L406.07 402.35L405.96 402.02L405.67 401.73L405.24 401.53L404.76 401.45L404.47 400.96L403.84 397.4L403.96 393.71L403.66 392.82L402.91 391.99L402.36 391.2L401.77 389.83L401.32 389.38L399.42 388.79L399.13 388.43L398.99 387.96L398.67 387.55L398.26 387.26L397.86 387.16L397.17 386.87L396.3 386.33L395.26 386.03L394.04 386.43L393.53 385.73L391.64 384.82L390.8 384.2L390.37 383.42L390.11 382.36L390.02 381.23L390.08 380.22L390.62 378.32L390.72 377.38L390.44 376.18L388.96 372.9L389.42 371.67L389.38 370.15L389.06 368.63L388.63 367.4L387.66 365.46L387.38 363.91L386.61 362.69L385.51 357.84L385.55 356.97L385.98 356.25L385.38 356.27L384.55 356.59L384.27 356.77L382.93 356.79L382.33 356.86L381.75 357.16L381.23 356.53L380.3 356.63L379.2 356.89L378.17 356.77L377.68 356.02L377.06 354.03H377.05Z" fill="#CCCCCC" stroke="white" stroke-width="0.5"/>
<path d="M677.77 146.11L677.08 143.82L677.46 143.48L677.24 142.5L676.35 142.52L675.39 143.07L674.93 143.65L674.79 143.9L674.1 144.75L673.74 145.54L673.61 145.75L673.5 145.99L673.49 146.35L673.62 146.63L673.82 146.64L674.03 146.59L674.19 146.68L675.6 148.21L677.04 147.8L677.77 146.11ZM681.81 142.12L681.33 141.43L680.34 141.29L679.77 141.67L678.61 142.2L678.21 142.73L679.14 142.56L679.77 142.93L680.35 143.38L681.06 143.48L681.73 142.95L681.81 142.12ZM656.03 113.93L655.62 113.13L654.68 111.91L654.07 112.12L652.47 113.33L653.14 113.7L654.71 114.25L655.4 114.81L655.54 114.72L655.57 114.6L655.67 114.59L656.09 114.81L656.03 113.93ZM660.72 109.34L660.45 108.44L659.67 107.91H658.28L657.18 108.64L656.74 109.14L656.48 109.74L657.62 109.67L658.8 109.42L659.83 109.51L660.48 110.43L660.72 109.34ZM624.04 99.79L623.9 98.74L624.62 97.01L624.9 96.19L625.01 95.73L624.98 95.2L624.77 94.9L624.14 94.79L623.89 94.48L623.8 93.79L623.89 90.87L621.87 90.31L619.88 90.53L618.69 91.43L617.6 92.39L617.37 93.58L617.82 94.65L618.27 95.33L621.01 98.3L621.36 98.71L623 100.04L623.53 100.29L624.04 99.79ZM535.82 85.91L534.85 85.06L533.67 84.35L530.49 83.28L528.26 85.14L527.01 85.95L526.19 85.78L524.99 86.74L524.55 87.33L524.91 87.58L525.57 87.41L525.99 87.09L526.47 86.92L527.28 87.23L527.99 86.3L529.15 86.27L531.77 86.86H534.09L535.43 86.61L535.97 86.78L536.3 87.58L537.19 87.1L538.09 86.86L537.78 86.3L537.39 86.22L536.89 86.28L536.3 86.17L535.82 85.91ZM592.24 88.16L592.84 86.97L593.69 86.12L593.64 84.66L593.31 84L591.9 83.64L590.78 82.95L589.82 81.9L589.14 80.72L588.63 80.1L588.05 80.36L587.65 81.09L587.7 81.81H587.34L587.81 82.47L588.39 82.76L588.99 82.94L589.19 83.63L589.13 85.49L589.8 86.68L590.87 88.2L592.24 88.16ZM589.23 77.97L589.14 77.83L590.02 77.44L590.13 76.42L589.98 75.39L590.04 74.91L589.79 74.77L588.78 73.86L588.38 73.65L586.14 72.86L584.93 72.83L584.7 75.37L584.92 77.24L585.09 78.54L585.08 80.17L585.7 80.57L587.7 79.86L588.84 79.48L589.84 78.91L590.22 78.19L590 78.27L589.5 78.58L589.23 77.97ZM590.41 70.58L590.93 70.41L591.19 70.04L591.33 69.67L591.5 69.5L591.47 69.12L591.04 68.27L590.34 67.4L589.5 66.97L588.24 67.42L587.43 68.67V69.98L588.6 70.58H590.41ZM539.01 73.11L538.71 72.99L538.36 72.74L537.89 72.5L535.65 72.15L535.25 72.02L534.69 71.53L533.37 69.86L532.13 69.27L531.52 68.85L531.24 68.21L530.94 68.14L529.25 67.14L528.76 66.6L528.39 66.02L527.94 65.5L526.81 64.92L526.69 65.25L526.78 65.72L526.88 65.88L525.8 68.05L527.52 68.84L528.22 69.03L529.25 69.1L529.84 69.22L530.43 69.56L530.56 70.12L529.74 70.91L531.07 71.23L531.03 72.41L530.17 73.21L529.05 72.38L526.99 73.65L525.88 74.08L524.91 73.66L524.03 73.13L523.36 73.49L522.97 74.26L522.92 74.91L524.02 76.18L525.9 76.73L528.1 76.74L532.23 75.98L533.32 76.06L534.8 76.79L536.1 76.96L536.66 77.11L537.11 77.35L537.44 77.59L538.09 78.19L538.68 78.89L539.1 79.16L540.92 79.39L541.49 79.56L541.92 79.82L542.14 80L542.85 80.39L542.95 80.54L543.08 80.96L543.17 81.12L543.88 81.71L544.65 82.2L544.78 82.41L544.72 82.65L544.76 82.84L545.18 82.92H546.25L547.54 84.17L547.84 84.99L548.56 85.34L549.51 85.51L550.46 85.78L551.01 86.21L552.18 87.36L554.59 88.29L554.96 88.5L555.96 89.3L559.44 91.23L560.23 91.95L560.46 92.36L560.67 93.41L560.91 93.77L561.16 94.04L561.27 94.29L561.74 94.63L564.92 95.92L568.22 96.67L569.06 97.2L579.44 107.51L586.65 111.91L588.69 112.69L596.5 114.2L597.58 114.19L598.56 114.34L599.96 115.4L600.95 115.88L601.44 116.22L601.62 116.53L602.01 117.43L602.19 117.69L603.02 117.99L603.98 118.2L604.77 118.55L605.35 119.99L605.93 120.73L607.24 122.03L608.03 122.55L608.52 122.96L608.57 123.39L608.36 124.61L608.54 125.14L613 130.69L613.93 131.36L614.49 132.5L614.81 132.91L615.28 133.08L616.24 133.13L616.65 133.3L616.94 133.63L617.16 134.12L617.31 134.69L617.37 135.3L617.55 135.59L618.34 136.14L618.52 136.37L618.71 137.31L619.17 137.97L620.28 139.08L621.16 140.59L621.53 141.49L621.87 143L624.49 148.21L625.86 150L626.22 150.93L626.19 151.88L625.7 152.89L626.13 153.44L626.37 154.09L626.4 154.78L626.09 155.42L626.71 156.69L626.05 162.36L625.96 162.75L624.98 165.26L625.03 165.97L625.56 167.68L625.96 170.34L626.09 170.71L626.53 171.05L627.66 171.61L627.89 171.96L627.97 174.88L628.22 175.74L629.43 176.9L631.31 178.2L632.74 179.54L632.58 180.84L634.4 181.79L635.68 183.12L636.5 184.67L636.94 186.27L637.55 185.31L637.85 184.13L638.34 183.39L639.5 183.73L639.85 182.91L640.32 182.42L640.83 182.05L641.3 181.56L641.75 180.72L642.36 179L642.75 178.3L643.13 177.92L643.88 177.33L644.19 176.82L644.26 176.35L644.19 175.02L644.64 174.47L645.93 173.65L646.32 173.21L646.53 172.37L646.6 171.52L646.53 170.7L646.32 169.95L645.82 169.26L645.2 168.72L644.68 168.08L644.51 167.06L645.2 165.29L648.27 162.72L649.59 161.24L649.04 159.87L649.1 158.53L649.59 155.6L649.13 154.47L648.04 153.22L646.77 152.21L645.79 151.81L645.87 151.38L645.38 150.48L644.51 149.27L643.11 146.35L642.43 145.63L640.74 144.26L640.18 143.48L640.05 142.69L640.12 141.95L640.04 141.26L639.5 140.56L638.78 141.19L638.75 141.29L637.77 141.32L636.56 141.23L635.54 140.85L635.1 140.02L634.97 139.5L634.29 138.55L634.03 138.03L633.9 137.51L633.81 136.43L633.69 135.9L633.02 134.52L632.43 134.67L631.68 135.44L630.6 135.9L629.42 135.83L628.4 135.62L627.43 135.27L626.42 134.75L625.35 133.94L624.51 133.12L623.57 132.47L622.25 132.22L621.01 132.17L620.44 132.06L619.9 131.86L619.91 131.7L619.46 131.18L618.97 130.72L618.71 130.09L618.85 129.55L619.07 129.03L619.17 128.39L618.95 127.79L617.96 126.74L617.73 126.22L617.51 125.26L616.97 124.19L616.26 123.19L615.56 122.42L614.98 123.23L614.08 123.77L613.02 123.81L611.96 123.15L611.57 122.53L611.1 121.29L610.5 120.53L610.2 119.95L609.99 119.66L609.71 119.47L609.26 119.36L609.04 119.14L608.72 117.15L608.48 116.86L607.47 116.31L606.65 115.44L602.91 113.72L601.01 112.58L599.39 111.24L597.99 109.68L595.39 105.88L593.44 103.96L593.1 103.54L592.98 103.46L592.55 103.29L592.42 103.22L592.38 102.97L592.48 102.34L592.42 102.13L592.3 101.83L592.35 101.6L592.3 101.46L591.86 101.41L591.27 101.42L590.99 101.36L590.28 100.84L589.77 100.69H588.12L587.93 100.67L586.94 99.97L586.09 99.16L585.53 98.85L584.74 99.21L584.09 99.08L583.02 98.48L582.4 98.38L580.45 98.48L579.69 98.32L578.89 97.82L578.24 96.92L577.93 95.6L576.53 95.87L575.38 95.13L574.51 93.98L573.96 93.04L572.98 91.95L568.88 89.39L568.28 89.45L565.25 87.23L564.76 87.15L563.58 87.13L563.26 87.05L561.64 85.06L560.73 84.24L559.81 83.59L558.8 83.15L557.63 82.92L557.23 83.02L556.73 83.23L556.19 83.34L555.68 83.1L555.38 82.67L555.15 82.25L554.82 81.93L554.23 81.81L550.27 81.93L548.13 81.49L547.21 80.19L546.8 78.21L545.71 77.04L542.46 75.67L541.82 75.39L541.19 75.22L540.56 75.16L539.97 74.91L539.67 74.5L539.21 73.34L539.01 73.11ZM496.05 55.81L494.87 55.35L494.1 55.47L493.03 55.96L492.34 56.07L492.29 56.23L490.17 56.98L489.61 57.34L489 57.41H488.29L487.45 57.55L483.61 60.2L483.12 60.4L482.73 60.3L482.39 60L482.07 59.81L481.71 60.01L481.66 60.79L482.82 61.91L484.41 62.65L485.6 62.24L486.38 62.83L488.61 65.49L489.47 68.1L489.95 68.47L491.08 69.1L492.8 70.95L493.25 71.3L493.75 71.46L494.14 71.44L494.57 71.35L498.53 71.16L499.38 70.91L499.64 71.15L500.17 71.45L500.46 71.66L500.99 71.16L501.84 70.65L502.63 70.51L502.98 71.11L503.14 71.58L503.52 71.6L504.06 71.42L504.62 71.3L506.59 70.58L507.73 70.34L508.09 70.09L508.46 69.5L508.1 68.96L507.87 68.37L507.75 67.66L507.71 66.78L507.97 65.94L508.46 65.18L508.75 64.45L508.46 63.69L508.25 63.81L507.71 64.05L508.12 62.42L507.51 61.15L506.26 60.24L504.79 59.68L503.37 59.35L503.13 59.18L502.64 58.67L502.46 58.57L501.94 58.45L500.56 57.82L500.1 57.55L498.93 57.56L496.05 55.81ZM482.9 17.41L482.59 16.66L481.99 16L481.58 16.17L481.37 17.06L480.9 17.49L479.69 17.11L479.25 17.24V17.79L479.52 18.47L480.05 18.89L480.5 18.79L480.59 18.56L480.72 18.39L481.16 18.26L481.57 18.38L481.76 18.56L482.55 18.85L483.92 18.94L484.82 18.69L485.13 18.35L484.88 18.2L484.11 18.24L483.32 18.01L482.9 17.41ZM461.74 1L461.3 1.64L459.58 5.18L459.65 7.24L459.96 8.18L460.66 9L460.94 9.09L461.62 9.04L461.92 9.18L462.11 9.42L462.34 9.9L463.44 11.01L463.94 11.4L464.46 11.56L466.3 13.13L467.16 13.41L467.22 11.89L467.72 12.07L468.15 12.33L469.02 13L469.35 13.39L469.45 13.67L469.6 13.9L470.1 14.08L470.86 14.06L472.09 13.42L472.95 13.36L472.49 12.3L471.35 10.73L470.79 9.72L470.11 8.09L469.89 7.72L469.45 7.15L469.41 6.58L469.48 5.99L469.35 5.36L468.62 4.63L465.38 2.84L464.22 1.57L463.75 1.39L462.53 1.42L462.07 1.31L461.74 1Z" fill="#CCCCCC" stroke="white" stroke-width="0.5"/>
<path d="M337.391 429.08L336.931 429.01L336.521 428.75L335.691 428L335.181 427.71L334.561 427.61L333.931 427.81L332.021 428.89L329.801 429.56L329.331 429.75L329.021 429.95L328.811 430.2L328.691 430.46L328.701 430.82L328.871 431.26L329.281 431.8L330.711 433L330.931 432.95L331.121 432.62L331.191 432.1L331.061 431.5L330.731 431.13L329.891 430.85L329.621 430.41L330.501 430.2L331.231 430.13L331.891 430.3L332.511 430.77L332.831 431.48L333.101 433.28L333.411 433.9L334.551 434.69L336.161 435.49L337.811 436L339.041 435.92L338.441 434.86L338.621 434.41L339.271 434.45L340.111 434.83L340.581 435.12V435.02L340.541 433.04L340.131 431.19L339.631 429.87L339.061 429.13L338.521 428.98L337.391 429.08Z" fill="#CCCCCC" stroke="white" stroke-width="0.5"/>
<path d="M314.76 238.54L314.52 237.62L314.29 237.75L297.98 247.31L265.63 247.18L266.35 247.83L266.95 249.73L267.66 250.51L268.49 251.24L269.18 252.14L269.51 251.94L270.36 251.59L270.69 251.41L270.89 252.25L270.93 253.04L271.71 253.52L278.6 257.95L279.11 258.57L279.41 259.41V260.61L274.68 283.25L274.3 284.15L273.76 284.92L272.55 286.08L272.19 286.6L272.14 287.23L272.34 287.88L272.69 288.62L272.88 289.47L272.99 290.54L273.63 292.4L273.66 293.4L273.42 294.35L272.98 295.13L272.52 295.65L270.35 297.58L269.73 298.32L269.29 299.06L269.03 299.73L267.63 304.52L267.35 305.12L267.02 305.6L266.77 306.08L264.49 313.14L274.36 324.03L275.45 326.19L276.89 328.33L277.66 329.1L279.01 329.68L294.32 333.91L305.65 341.61L310.01 344.58L310.43 345.22L310.89 346.28L310.74 348L310.75 348.94L310.88 349.91L311.38 351.2L311.81 351.61L312.3 351.67L312.86 351.6L313.41 351.75L314.47 352.56L315.06 352.88L315.8 353.04L317.29 352.81L318.16 352.79L319.01 352.91L320.9 353.81L321.45 354.01L322.05 354.17L323.16 354.3L323.6 354.29L324.08 354.22L324.43 354.11L325 353.82L377.05 354.03L376.93 353.64L376.52 353.13L375.37 352.89L374.21 352.29L371.73 350.46L371.11 350.23L370.5 350.18L370 350.39L369.39 350.8L369 350.69L368.69 350.39L368.37 350.22L367.22 350.28L365.62 350.65L364.76 350.57L363.82 350.19L363.14 349.58L362.71 348.69L362.29 345.26L361.53 343.72L360.39 342.55L358.96 341.44L358.97 342.15L359.18 342.68L359.55 343.04L360.04 343.27V343.66L357.49 344.03L357.91 342.97L357.48 342.13L356.78 341.27L356.41 340.17L356.38 338.8L356.13 338.02L355.39 337.61L352.52 337.16L352.01 336.66L352.05 334.66L351.78 334.03L351.17 333.36L349.88 332.32L349.34 332.18L348.7 332.17L348.4 332.04L348.83 331.55L348.2 331.06L347.78 330.6L347.29 330.26L346.5 330.13L346.08 330.12L345.51 330.02L345.04 329.75L344.84 329.2L344.15 327.98L342.58 327.24L339.39 326.46L339.63 326.18L339.59 325.9L339.35 325.63L339.04 325.37H338.7L337.82 326.32L337.59 326.46L336.84 326.34L336.71 326.1L336.75 325.76L336.5 325.37L335.94 325.12L335.62 325.2L335.39 325.17L335.06 324.61L335.14 324.45L335.44 324.35L335.72 324.18L335.79 323.88L335.63 323.63L335.38 323.41L335.06 323.19L334.84 322.7L333.98 321.33L333.84 320.81L333.59 319.19L333.19 318.25L332.9 317.73L333.03 317.29L333.32 317.08L333.49 316.82L333.23 316.24L332.87 315.52L333.08 313L332.9 311.88L332.42 311.1L331.81 310.44L329.08 308.32L328.87 308.24L328.8 307.6L329.18 306.34L329.26 305.67L329.09 304.99L328.62 304.12L328.51 303.46L328.63 303.04L328.91 302.57L329.18 302.02L329.26 301.31L328.58 301.64L327.87 302.31L327.46 302.4L326.87 302.26L326.53 302L325.98 301.31L324.85 300.28L323.12 298.13L322.77 296.88L322.43 294.36L322.37 291.8L322.58 290.58L323.38 288.36L323.46 287.08L324.23 286.73L325.13 286.64L326.9 286.72L327.78 286.49L329.09 285.49L329.8 285.26L332.41 285.17L333.23 285.26L333.86 285.47L334.37 285.77L334.77 286.18L335.06 286.72L335.72 286.63L343.95 287.08L345.08 286.93L347.26 286.36L348.47 286.35L352 287.5L352.96 287.26L353.55 287.01L354.12 287.17L354.7 287.42L355.29 287.44L355.7 287.2L356.62 286.34L357.13 286.02L366.4 285.53L370.54 284.1L370.89 279.78L370.51 280.11L370.16 280.07L369.91 279.71L369.82 279.05L369.98 278.9L370.73 278.41L370.89 278.16L370.71 277.06L370.4 276.16L370.32 275.37L370.89 274.67L370.6 273.98L370.77 273.54L371.08 273.15L371.25 272.69L371.15 271.99L370.65 270.74L370.35 269.26L369.93 268.66L369.44 268.13L369.09 267.44L369.06 266.85L369.21 266.41L369.29 265.93L369.09 265.19L367.73 263.83L363.79 261.84L362.57 260.09L361.99 259.27L361.58 257.83L361.07 256.63L360.21 256.13L359.68 255.56L358.27 253.04L354.57 249.53L353.13 248.84L352.77 248.48L352.65 248.22L352.56 247.67L352.44 247.39L352.23 247.25L351.6 247.11L351.39 247L350.79 246.33L350.07 245.75L349.15 245.34L346.72 245.03L344.11 244.09L343.84 243.78L343.58 243.7L343.21 243.91L343.02 244.17L342.96 244.34L342.84 244.43L342.49 244.46L341.16 243.85L340.7 243.73L339.95 243.96L339.42 244.49L338.93 245.1L338.31 245.58L337.81 245.72H337.32L332.45 245.13L331.81 245.38L331.58 245.73L331.06 245.21L330.37 244.09L329.78 243.45L329.45 243.34L328.87 243.37L328.13 243.91L327.66 244.12L327.26 243.73L326.8 243.54L326.26 243.42L325.84 243.37L323.1 241.56L322.64 240.74L322.31 239.78L321.88 238.99L321.11 238.65L320.27 238.52L319.46 238.25L318.54 238.09L317.32 238.26L316.49 238.57L315.54 238.8L314.76 238.54ZM369.2 220.2L369.01 220.1L368.86 219.99L368.73 219.72L368.06 220.35L366.73 220.58L366.17 221.2L365.96 221.96L366.17 224.49L365.85 225.87V226.3L366.05 226.76L366.89 227.75L367.96 229.51L368.59 230.25L370.58 231.96L370.89 232.43L371.11 233.54L371.25 233.91L371.97 234.83L372.74 235.2L374.5 235.36L375.98 235.72L376.61 236.03L377.06 236.45L377.36 237.28L377.52 239.06L377.78 239.74L378.17 239.28L378.58 238.99L379.02 238.88L379.55 238.99L379.53 238.63L379.58 237.9L379.55 237.53L379.76 237.68L380.31 237.93L380.66 236.54L381.82 233.93L382.34 229.21L382.03 227.82L380.85 226.47L378.29 224.67L376.94 223.92L375.59 223.37L373.47 223.02L372.7 222.64L371.97 222.03L370.8 220.66L370.18 220.11L369.97 220.17L369.79 220.2L369.62 220.27L369.46 220.47L369.2 220.2ZM386.07 218.07L385.99 216.57L384.96 215.09L383.55 214.28L382.39 215.35L382.28 217.05L383.07 218.53L384.63 218.99L386.07 218.07ZM359.65 211.35L359.16 210.8L358.88 210.17L358.44 209.66L357.49 209.54L356.69 209.64L355.77 210.07L355.12 210.64V211.18L355.26 211.41V211.62L355.24 211.84L355.29 212.07L355.42 212.11L355.9 212.05L356.04 212.07L357.13 213.56L358.64 212.73L359.17 212.26L359.65 211.35Z" fill="#CCCCCC" stroke="white" stroke-width="0.5"/>
<path d="M672.161 548.77L672.721 548.45L673.311 548.22L673.481 548.12L673.901 547.65L674.191 547.49H674.471L674.651 547.81L674.931 547.86H677.271L677.681 548L678.041 548.2L678.331 548.15L678.551 547.49L679.191 547.78L679.861 547.79L680.511 547.54L681.071 547.09L681.491 547.38L681.821 547.47L682.131 547.38L682.571 547.09L682.851 547.36L683.171 547.46L683.451 547.3L683.601 546.75L683.481 546.46L683.171 546.32L682.831 546.21L682.571 546.05L682.171 545.12L681.841 544.69L680.691 544.35L680.171 543.96L679.771 543.43L679.631 542.85L679.091 542.57L673.001 540.89L671.881 540.83L671.281 540.59L668.811 538.99L665.551 537.71L664.061 536.48L663.521 536.27L662.281 536.02L661.731 535.76L660.481 534.91L659.901 534.73L659.311 534.6L658.841 534.41L658.451 533.52L657.991 533.51L657.011 533.81L655.971 533.53L653.211 531.57L652.701 532.72L652.541 533.32L652.471 533.97L652.631 534.3L652.971 534.74L653.391 535.12L653.761 535.28L654.461 535.43L654.571 535.81L654.291 536.95L654.421 537.46L654.751 537.43L655.181 537.24L655.581 537.32L656.081 537.9L656.701 538.91L657.201 539.33L657.721 539.45H658.891L659.371 539.73L659.381 540.58L657.311 541.56L657.561 542.67L658.891 541.59L659.681 541.1L660.481 540.83L660.741 541.22L661.011 541.48L661.371 541.59L661.651 541.43L661.791 541.11L662.041 540.93L662.611 541.16L662.981 541.69L662.721 542.17L662.231 542.62L661.891 543.04L661.831 543.81L662.041 544.6L662.541 544.99L663.371 544.51L665.351 545.65L665.911 545.49L666.361 545.08L666.791 544.58L667.331 544.14L667.271 544.69L667.351 545.03L667.601 545.2L668.091 545.25L667.841 545.83L667.691 546.05L668.241 546.32L668.671 546.29L669.121 546.14L669.671 546.05L669.851 546.21L670.041 546.57L670.321 546.93L670.791 547.09L671.311 546.99L671.761 546.81L672.141 546.78L672.451 547.09L672.521 547.57L672.251 547.83L671.801 547.91L671.341 547.86L671.681 548.74L672.161 548.77ZM707.071 531.47L706.591 531.23L706.091 531.33L705.671 531.49L705.211 531.53L704.611 531.23L702.411 531.57L700.951 531.56L699.921 531.23L699.981 531.75L700.201 532.17L700.531 532.48L701.001 532.7L700.841 533.05L701.011 533.34L701.371 533.59L701.761 533.81H702.091V533.41H702.481L702.751 533.93L702.741 534.33L702.411 534.46L701.761 534.14L701.371 534.54L700.251 534.06L697.921 533.91L697.041 533.41L696.801 533.11L696.621 533.03L696.281 533.07L696.771 533.93L697.041 534.14L696.561 534.32L696.161 534.56L695.821 534.88L695.561 535.28L696.081 535.36L696.691 535.56L697.191 535.85L697.401 536.2L697.601 536.96L698.061 537.21L698.841 537.15L700.251 537.6L701.371 537.62L702.151 537.02L702.481 535.61H702.811L703.031 536.91L703.801 536.99L705.661 536.02L706.761 535.83L707.931 535.92L708.901 536.34L709.331 537.15L709.931 536.83L710.401 536.43L710.771 535.92L711.131 535.28L710.711 534.99L710.361 534.42L710.131 533.76L710.051 533.25L709.831 532.77L709.301 532.43L708.221 531.96L707.571 532.22L707.301 531.93L707.071 531.47ZM655.761 527.56L654.791 527.34L652.471 525.68L649.871 525.13L649.201 524.58L648.531 524.23L647.871 524.48L647.691 525.15L648.491 526.08L650.321 527.19L650.591 527.49L650.791 527.79L651.011 527.89L651.401 527.56L652.871 528.66V529.03L652.641 529.11L652.121 529.43L652.791 529.53L653.491 529.36L654.001 529.08L654.121 528.84L654.701 529.08L655.201 528.68L655.571 528.04L655.761 527.56ZM618.811 494L618.701 494.14L618.621 494.3L618.461 494.41L618.091 494.37V494.73L620.281 496.23L623.531 496.97L626.681 498.31L628.151 498.73L629.341 498.8L629.871 498.64L630.901 498.19L631.501 498.07L633.851 497.86L634.421 497.7L635.121 497.37L635.541 496.99L635.581 496.5L635.101 495.86L634.461 495.46L632.641 494.76L632.221 494.73L630.881 494.18L629.141 494.8L627.311 495.76L625.701 496.23L625.091 495.96L623.501 494.95L622.991 494.93L622.251 495.02L618.811 494ZM538.731 493.15L538.231 492.68L537.771 492.53H534.851L533.961 492.67L533.231 492.98L532.681 493.43L532.321 494L532.081 495.02L532.201 495.79L532.721 497.3L533.211 496.86L533.231 496.25L533.161 495.52L533.371 494.73L534.321 494.9L536.621 494.89L537.081 495.3L537.511 496.35L538.401 496.81L539.161 496.73L539.181 496.23L539.471 495.97L540.001 495.39L540.291 495.13L539.081 494.97L539.191 494.46L540.651 493.29L540.411 493.32L540.341 493.24L540.351 493.08L540.291 492.9L539.921 492.66L539.761 492.84L539.581 493.17L539.181 493.29L538.731 493.15ZM527.031 489.9L526.611 489.56L526.121 489.47L525.641 489.76L525.521 490.27L525.801 490.75L529.351 493.91L529.621 494.25L529.321 494.38L528.331 494.37L527.311 494.21L526.351 493.89L525.491 493.43L524.751 492.9L524.391 493.29L524.851 493.58L525.241 494.05L525.801 495.13L526.831 494.78L528.151 494.93L529.471 495.37L530.491 495.86L531.001 495.52L531.241 495.08L531.201 494.56L530.851 494L531.031 493.47L531.051 492.7L531.241 492.16L530.851 491.79L531.521 490.98L531.381 490.35L530.791 489.88L530.131 489.56L529.451 490.06L528.741 490.21L528.011 490.22L527.281 490.33L527.031 489.9ZM595.221 482.27L595.341 481.78L594.761 481.75L594.521 482.35L595.221 482.27ZM583.051 478.71L582.581 478.9L582.641 479.28L583.051 478.71ZM582.381 474.44L582.261 474.2L581.751 474.7L581.951 474.99L582.381 474.44ZM539.251 457.3L538.011 456.63L536.701 456.13L535.771 455.57L532.321 451.69L531.121 451.05L529.681 450.49L528.471 449.76L527.971 448.56L527.641 447.41L526.821 446.43L525.771 445.63L524.241 444.84L523.901 445.53L523.721 446.59L523.671 447.48L523.771 448.45L524.061 449.16L524.511 449.72L525.081 450.23L525.401 450.36L526.221 450.47L526.521 450.55L526.661 450.81L526.731 451.2L526.921 451.54L528.001 451.81L528.521 452.15L528.901 452.67L529.051 453.35L529.221 453.72L530.311 455.2L530.491 455.57L530.431 458.24L530.491 458.68L530.651 458.87L530.911 458.98L531.141 459.17L531.241 459.59L531.811 460.63L532.961 460.6L533.881 459.75L533.771 458.35H534.091L534.891 459.37L535.411 459.93L535.771 460.18L536.311 460.45L535.951 461.08L535.261 461.81L534.851 462.34L534.191 462.61L534.091 464L534.271 465.58L534.491 466.4L535.131 466.68L535.951 466.77H537.081L539.571 467.14L544.981 468.63L545.991 469.17L547.901 470.79L548.981 471.53L548.691 470.54L549.211 468.8L548.981 468.23L549.341 467.91L550.931 464.78L551.371 462.49L552.361 460.17L552.591 459.04L551.711 456.91L549.721 456.61L547.531 457.34L546.061 458.35L544.761 459.62L544.041 460.5L544.081 460.91L544.481 461.1L544.641 461.6L544.561 462.2L544.261 462.74L543.841 463.02L543.451 463.04L542.461 462.74L541.451 462.27L539.581 460.82L539.011 460.51L538.581 459.95L538.371 458.83L538.731 458.01L539.971 458.35L539.251 457.3ZM460.661 439.18L459.651 438.97L455.441 439.02H455.431L454.781 439.42L452.231 440.47L436.461 444.93L435.981 444.86L434.101 444.17L433.231 443.98L431.981 443.96L431.261 444.09L430.711 444.3L429.831 444.97L429.501 445.33L429.261 445.68L429.041 446.12L428.781 447.01L428.721 447.42L428.761 449.28L429.681 448.93L430.681 448.66L431.611 448.54L433.041 448.51L434.701 448.64L438.181 449.24L442.221 450.61L445.181 452.1L446.001 452.81L446.861 453.73L447.911 456.1L448.141 456.53L448.451 456.67L451.311 457.1L452.241 457.48L453.081 458.1L455.481 460.35L455.811 460.57L458.511 461.74L459.951 462.67L461.401 463.84L464.401 465.23L465.591 465.63L466.401 467.06L466.751 468.11L466.901 478.83L468.841 478.75L470.601 478.93L471.711 479.46L472.831 480.26L475.741 481.17L477.131 482.03L477.651 482.59L477.941 483.1L478.401 484.42L478.571 484.62L478.811 484.74L479.021 484.92L479.121 485.34L479.131 485.85L479.221 486.27L479.441 486.64L479.841 486.99L480.281 486.47L480.511 485.6L480.641 484.79L480.731 484.42L480.941 484.31L481.281 483.78L481.501 483.66L481.891 483.72L482.511 484L483.641 484.21L484.731 484.92L485.281 485.16L486.061 485.22L486.801 485.18L487.511 485.23L488.201 485.53L487.021 485.76L486.721 485.89L486.601 486.18L486.481 487.09L486.361 487.39L485.901 487.6L483.461 488.36L481.101 487.73L479.691 488.04L479.121 487.99L478.761 487.39L478.281 487.53L477.881 487.75L477.561 488.06L477.351 488.46L478.101 488.24L478.401 488.1L478.291 489.07L477.641 489.43L476.811 489.7L476.201 490.33L476.811 490.4L477.361 490.55L477.891 490.77L478.401 491.06L478.381 490.79L478.451 490.72H478.591L478.761 490.67L478.401 489.96L479.931 490.51L480.601 490.93L480.911 491.43H481.281L481.451 491.16L482.011 490.67L481.831 491.56L481.711 491.79L482.561 492.37L483.031 492.54L483.481 492.53L483.991 491.53L484.351 491.04L484.531 491.24L484.861 491.81L485.391 492.39L485.511 492.99L484.531 493.63L485.061 493.99L485.571 494.03L486.001 493.97L486.361 494L486.751 494.27L487.451 495.13L487.951 495.21L488.161 495.04L488.371 494.9L488.881 495.13L489.141 495.41L490.001 496.57L490.801 496.03L492.141 495.52L493.411 495.31L493.971 495.67L493.811 496.1L493.501 496.46L493.291 496.78L493.431 497.13L494.681 497.99L495.051 498.43L496.081 497.52L496.621 497.18L497.181 496.97L497.151 497.12L497.471 497.37L497.931 497.59L498.291 497.7L498.311 497.59L500.761 496.32L501.851 496.09L502.721 496.48L503.371 497.7L504.021 497.48L504.921 497.34L505.851 497.39L506.591 497.7L506.581 496.98L506.861 496.52L507.191 496.24L507.351 496.05L507.611 496.12L508.181 495.6L508.691 494.96L508.791 494.73L509.611 494.15L510.031 494.03L510.791 494L512.201 493.67L512.401 493.82L512.971 494.11L519.381 491.74L520.191 491.24L520.491 490.66L520.291 490.1L519.671 489.23L519.311 487.39L518.081 486.38L511.671 484.42L510.821 483.77L510.291 483.46L508.531 483.19L507.961 483.02L507.531 482.76L506.551 482.37L504.141 482.25L503.371 481.83L503.331 482.19L503.241 482.25L502.981 482.23L502.211 480.38L503.251 478.32L505.011 476.89L506.431 476.88L507.171 477.35L508.211 477.62L510.421 477.76L511.521 478.03L513.911 478.99L514.951 478.9L515.211 479.14L515.501 479.25L516.391 479.26L518.381 478.94L520.271 478.24L526.791 474.71L528.931 474.18L529.911 473.48L530.051 472.83L528.691 472.63L527.661 472.97L526.071 474.22L525.271 474.49L521.841 474.66L518.421 475.51L517.021 475.69L516.391 475.4L516.131 474.71L514.931 473.91L514.591 473.36L514.701 473.03L515.391 472.27L515.671 471.87L513.431 471.6L512.971 471.7L512.151 472.31L511.581 472.39L510.261 471.87L508.071 471.35L507.811 471.59L507.221 471.67L506.601 471.64L506.261 471.53L505.241 471.84L504.071 471.59L501.901 470.8L499.791 470.39L499.091 470L498.111 469.17L497.291 468.05L496.901 467.82L495.231 467.3L494.661 466.37L494.281 465.88L493.791 465.67L493.251 465.78L492.281 466.26L491.801 466.4L491.071 466.46L490.691 466.39L488.841 465.26L487.811 464.94L486.691 464.78L483.641 464.94L482.691 464.82L481.651 464.53L480.691 464.12L480.021 463.65L478.381 462.02L477.541 461.68L476.201 461.58L476.321 459.45L474.661 457.43L470.791 454.29L469.381 452.62L469.151 451.7L469.681 450.55L470.501 450.1L472.991 449.37L473.681 448.73L474.721 449.15L475.961 449.04L478.001 448.4L481.711 447.67L482.751 447.28L485.601 445.8L486.411 445.61L486.781 445.65L486.841 445.5L486.721 444.7L486.471 443.86L486.111 443.64L485.701 443.57L485.281 443.24L484.531 441.6L483.941 441.16L482.561 441.01L479.201 441.48L478.001 441.41L475.441 440.42L472.951 440.11L470.881 439.38L469.681 439.22L469.181 439.32L467.911 439.81L467.371 439.91L466.621 439.61L466.081 439.53L465.561 439.75L464.641 440.37L463.811 440.45L460.661 439.18ZM538.361 442.59L538.511 442.02L538.301 441.65L538.011 441.42L537.751 441.39L537.651 441.2L537.591 440.78L537.731 440.74L537.991 440.62L538.191 439.74L538.181 439.45L538.021 439.38L537.881 438.87L537.331 438.53L536.521 438.28L535.541 438.4L534.591 438.93L534.351 439.73L535.071 440.42L536.541 441.21L536.881 441.61L537.031 441.83L537.281 442.15L537.361 442.78L537.651 443.03L538.361 442.59ZM518.541 430.29L517.121 429.31L516.141 428.04L515.441 427.4L513.671 426.9L510.591 425.29L509.241 425.37L507.821 425.87L506.711 426.77L506.261 428.03L506.441 429.63L508.071 433.33L510.601 434.82L510.981 435.36L511.021 436.49L510.941 437.24L510.421 437.84L509.151 438.49L507.371 439.81L506.591 440.64L506.791 441.01L508.531 441L510.591 440.68L512.901 440.58L514.931 441.19L516.771 442.01L518.591 442.51L519.781 442.52L523.101 442.14L525.351 442.96L526.391 443.06L526.191 442.14L527.851 442.08L528.691 442.23L529.051 442.68L528.911 443.28L528.351 444.56L528.331 445.44L530.111 443.65L531.021 443.03L531.571 443.61L532.201 443.28L532.731 442.78L533.061 442.14L533.051 441.41L532.711 440.95L532.211 440.71L531.771 440.39L531.401 439.02L530.961 438.9L530.361 438.88L529.741 438.49L529.501 437.96L529.811 437.75L530.251 437.6L530.491 437.21L530.811 435.13L530.671 434.83L530.021 434.68L529.231 434.31L528.491 433.83L527.971 433.33L527.901 433.03L528.011 432.22L527.971 431.9L527.701 431.55L526.061 430L524.001 428.58L523.231 429.61L522.261 429.92L521.211 430.07L520.191 430.59L519.481 430.69L518.541 430.29ZM503.201 426.7L502.751 425.96L502.521 424.68L501.541 422.33L500.551 421.1L499.301 420.16L496.491 418.65L495.221 418.23L493.921 418.55L492.631 419.37L491.411 420.47L490.381 421.81L489.851 423.24L489.641 424.79L489.611 426.54L489.921 426.98L491.981 428.76L492.321 429.3L492.621 429.96L492.951 430.53L493.431 430.77L495.471 431.39L496.311 431.5L496.901 431.77L497.171 432.42L497.231 433.26L497.181 434.07L497.401 433.96L497.461 433.91L497.491 433.87L497.601 433.73L498.911 434.45L500.381 435.02L501.721 435.03L502.651 434.07L502.941 433.46L503.011 433.1L502.981 432.6L502.061 432.58L501.591 432.44L501.721 432.07L502.241 431.39L503.111 429.43L503.371 428.58L503.551 428.32L503.821 428.13L503.991 427.92L503.891 427.65L503.441 427.1L503.371 427.12L503.201 426.7ZM614.441 404.52L613.421 404.28L610.901 405.67L610.051 406.75L611.281 409.02L611.791 411.7L612.091 410.95L612.131 410.31L612.091 408.21L611.961 407.23L612.031 406.28L613.381 405.36L614.511 405.94L615.661 407.23L615.931 408.05V408.45L614.061 409.19L614.441 409.63L616.271 409.3L617.831 409.94L618.681 410.48L619.321 411.09L619.801 411.4L621.121 410.89L621.931 411.74L623.121 412.59L624.641 413.84L625.721 414.38L626.331 414.68L626.741 414.95L627.261 415.48L626.971 415.61L626.631 415.66L626.251 415.91L625.971 416.4L626.271 417.19L625.051 417.12L623.891 416.21L623.551 416.99L624.161 418.14L625.051 418.64L626.541 419.19L627.591 419.63L628.401 421.15L629.241 420.17L629.311 419.19L628.061 418.94L627.921 418.14L628.531 417.59L628.841 416.92L629.211 417.39L629.621 418.1L630.401 418.78L631.141 419.12L631.951 420.07L632.391 420.85L633.241 420.78L633.611 421.12L634.661 420.81L636.761 420.61L638.221 419.46L639.301 419.42L640.011 420.17L640.291 420.98L640.631 420.95L641.071 420.37L640.761 419.49L639.741 418.64L638.761 417.9L638.621 417.49L639.131 416.85L639.471 416.57L640.111 416.95L640.521 417.39L641.061 417.69L641.601 417.52L641.841 417.08L642.041 416.78L641.771 416.44L642.141 415.83L642.981 415.2L642.111 414.78L640.921 414.07L639.631 413.63L639.771 412.28L639.261 411.7L638.011 410.96L636.991 411.47L635.271 410.96L634.321 410.38L633.371 408.73L632.731 408.49L632.251 407.78L631.481 407.41L630.461 407.27H629.341L628.401 407.24L626.741 407.54L624.811 407.24L623.491 406.86L621.191 406.63L616.881 407.03L614.441 404.52ZM543.571 376.43L543.531 376.18L541.071 376.36L539.931 376.74L539.011 377.47L538.161 378.46L537.881 378.99L537.771 379.65L537.601 380.17L536.661 381.47L537.021 382.5L537.931 382.92L540.981 383.18L541.441 383.37L542.101 383.84L543.021 384.72L543.171 384.93L543.001 385.93L541.821 388.7L539.251 392.19L539.011 392.63L539.111 392.94L542.101 394.85L543.661 397.52L544.261 398.17L544.341 397.39L544.021 396.28L543.411 395.28L542.651 394.85L542.171 394.24L542.291 392.82L544.021 385.34L544.051 383.04L542.461 381.29L542.891 380.22L543.101 379.13L543.171 376.55L543.341 376.49H543.481L543.571 376.43Z" fill="#CCCCCC" stroke="white" stroke-width="0.5"/>
<path d="M371.97 50.66L371.05 50.25L370.24 49.53L369.09 48.1H368.37L368.41 48.47L368.17 48.89L367.77 49.29L367.29 49.58L367.68 50.93L367.01 52.01L365.74 52.51L364.37 52.11L364.23 52.29L364.13 52.43L364.01 52.79L365.08 53.58L365.58 53.82L366.37 53.9H368.55L369.8 53.56L370.76 52.69L371.97 50.66ZM319.74 33.01L318.55 32.74L317.28 32.82L315.89 33.27L313.84 34.51L313.16 34.68L312.39 34.58L311.1 34.1L310.45 33.96L309.89 34L309.03 34.28L308.45 34.36L308.16 34.23L307.67 33.72L307.36 33.6L307.05 33.66L306.9 33.78L306.81 33.9L306.66 33.96L306.31 34.28L305.91 35.76L305.72 36.16L305.12 36.27L304.75 36L304.5 35.64L304.31 35.44L303.5 35.14L303.28 35.29L303.2 35.98L303.25 36.61L303.42 37.17L303.7 37.68L304.94 39.26L305.28 39.94L305.39 40.49L305.21 41.19L304.95 41.41L304.55 41.45L302.86 41.89L302.32 41.92L301.41 41.57L300.94 41.87L300.12 42.87L300.09 43.45L300.71 45.57L301.03 46.3L301.85 47.18L302.8 47.6L303.59 47.4L304.2 45.55L304.89 45.15L305.84 44.92L306.84 44.49L307.36 45.38L308.29 45.55L310.27 45.21L311.05 44.88L311.13 44.13L310.69 43.39L309.9 43.05L309.42 42.9L309.14 42.54L309.12 42.08L309.4 41.61L309.71 41.58L311 41.96H311.99L312.23 42.05L312.6 42.29L312.8 42.54L313.26 43.26L313.52 43.41L314.03 43.57L314.4 43.95L314.69 44.32L315 44.49L315.26 44.43L315.75 44.19L316.07 44.13L316.34 44.24L316.75 44.72L317 44.85L323.05 45.83L324.85 45.76L326.49 45.41L328.18 44.85L327.89 45.18L327.82 45.33V45.58L329.13 45.45L331.17 44.39L332.33 44.13L332.8 44.28L334.73 45.21L335.36 45.36L335.84 45.41L336.3 45.38L336.86 45.21L337.67 44.57L339.34 42.43L339.95 41.96L339.93 41.23L340.33 39.83L340.84 38.93L341.23 39.77H341.59L341.86 38.84L342.16 38.23L342.71 37.94L343.78 37.96L343.29 38.8L343.03 39.08L344.79 38.98L346.68 39.07L348.2 38.75L348.83 37.42L348.91 35.79L348.78 35.02L348.29 34.68L347.72 34.49L346.87 33.57L346.34 33.27L345.55 33.51L345.87 33.9L346.59 34.38L347 34.88L347.1 35.24L347.59 36.06L347.75 36.52V37.96H347.39L346.65 37.36L345.29 37.07L343.88 37.05L343.03 37.25L340.87 36.55L340.54 36.34L340.14 36.35L337.98 35.44L336.5 35.57L335.74 35.47L335.42 34.88L335.12 34.46L334.47 34.5L333.83 34.96L333.59 35.8H333.23L332.91 35.22L332.35 34.49L331.74 33.87L331.24 33.6L322.27 33.15L320.93 33.6L319.74 33.01Z" fill="#CCCCCC" stroke="white" stroke-width="0.5"/>
<path d="M601.86 151.41L601.07 150.54L600.12 149.79L599.3 148.88L598.09 149.19L597.67 150.21L597.42 151.37L596.75 152.17L596.2 152.15L594.85 151.84L594.58 151.99L594.39 152.18L593.91 152.34L593.37 152.45L592.92 152.5L591.95 152.15L590.89 151.6L589.98 151.48L589.5 152.5L589.91 153.23L590.79 154.03L591.44 154.94L591.13 155.98L589.45 158.21L588.78 158.71L587.66 158.87L585.47 158.19L584.29 157.99L583.3 157.49L582.84 156.32L582.6 154.99L582.29 153.97L581.76 153.54L579.87 152.66L579.2 152.5L576.99 152.25L575.94 152.33L575.04 152.89L575.05 151.99L574.59 151.86L573.91 152.07L573.24 152.17L572.7 152L571.76 151.58L571.05 151.44L568.96 151.53L566.05 150.99L565.25 150.69L564.2 151.8L563.62 152.61L563.51 153.47L563.83 154.69L564.45 156.17L564.52 156.7L564.42 156.95L564.24 157.32L564.1 157.78L564.16 158.31L564.52 158.84L565.45 159.69L565.63 160.32L565.67 161.38L565.77 161.84L565.96 162.32L566.57 163.12L568.19 164.4L568.88 165.26L569.41 166.45L569.61 167.49L569.6 169.79L569.82 171.06L570.34 172.03L571.44 173.54L571.94 175.56L571.67 179.84L571.77 181.92L572 182.52L572.7 183.7L572.85 184.29L572.96 184.44L573.21 184.54L573.45 184.71L573.57 185.02L573.52 185.33L573.4 185.49L573.29 185.6L573.24 185.76L573.16 187L572.93 188.07L572.57 189.02L571.59 190.77L570.92 191.61L570.98 191.6L573.14 193.92L572.9 194.24L572.31 194.81L560.95 195.25L560.51 195.41L555.55 197.93L555 198.54L549.83 206.87L545.5 216.74L545.55 217.32L545.89 217.62L546.39 217.73L547.03 217.74L548.25 217.62L548.81 217.64L549.2 217.76L549.49 217.98L549.7 218.41L549.74 218.97L549.46 219.79L548.92 220.65L547.86 221.74L545.16 223.37L544.36 223.99L541.59 226.79L540.95 227.28L540.33 227.5L539.65 227.49L538.93 227.22L537.15 226.33L536.8 226.23L536.56 226.24L536.21 226.31L535.86 226.66L535.64 227.14L535.45 228.19L535.51 229.04L535.64 229.75L535.83 230.31L535.89 230.88L535.75 231.26L535.29 231.62L531.37 232.55L530.7 232.5L530.17 232.53L529.75 232.69L528.64 233.64L527.78 234.12L526.8 234.38L521.1 234.66L520.21 234.88L518.54 235.54L515.78 236.95L515.63 237.15L515.5 237.6L515.4 239.03L515.51 241.59L515.91 242.58L516.6 243.82L519.29 247.07L523.9 251.65L524.36 252.32L524.56 252.69L524.63 254.27L525.34 254.13L525.94 253.77L526.41 252.46L526.79 251.83L527.01 251.16L526.51 249.94L526.71 249.33L527.05 248.7L527.28 248.12H527.6L529.35 249.69L530.39 250.24L530.85 249.73L531.46 249.34L535.25 248.48L538.29 249.09L539.93 248.94L540.65 247.55L541.3 246.62L542.8 245.89L545.77 244.82L545.99 245.45L546.36 245.48L547.72 244.34L547.89 243.96L547.98 243.56L548.26 243.01L549.15 242.1L551.14 240.67L551.86 239.74L552.35 239.84L553.12 239.66L554.78 238.99L555.48 238.57L557.12 236.99L557.62 236.32L558.01 235.44L558.27 234.42L558.36 233.36L558.7 232.65L559.49 231.84L560.46 231.12L561.27 230.65L562.54 230.95L563.93 230.47L564.84 229.58L564.72 228.64L563.26 227.21L562.8 227.06L561.54 227.01L561.27 226.83L561.02 226.16L560.53 225.42L560.23 224.52L560.55 223.37L561.22 222.65L562.01 222.42L563.83 222.64L567.39 222.71L568.34 223.19L568.58 223.71L568.6 224.24L568.75 224.65L569.42 224.82L569.99 224.57L571.24 222.82L572.16 222.4L573.45 222.27L574.76 222.37L575.76 222.64L576.7 223.42L578.22 225.34L579.38 225.91L580.77 225.77L581.83 224.99L582.7 224.13L583.55 223.73L584.22 223.65L585.89 223.01L587.6 222.77L588.03 222.64L590.22 220.29L590.62 219.97L593.1 218.66L593.67 218.58L594.27 218.59L594.75 218.48L594.94 218.08L595.05 217.72L595.28 217.3L595.58 216.96L595.86 216.81L597.47 213.92L597.32 212.65L596.28 210.66L596.03 209.73L593.84 207.01L592.84 206.7L592.28 206.45L592.02 206.08L591.89 205.54L591.55 205.18L588.89 203.01L588.34 202.19L588.03 200.85L587.89 194.58L588.17 193.47L589.14 192.82L590.28 193.42L590.99 193.66L591.58 193.18L592.2 193.26L593.31 193.57L594.08 193.65L596.75 194.27H597.86L599.5 193.72L601.8 193.42L602.54 193L603.63 191.76L604.56 191.19L604.94 190.89L605.79 189.12L606 188.86L606.55 188.54L609.94 183.24L610.32 180.97L611.27 177.55L611.18 175.3L610.6 173.24L609.04 169.95L608.59 168.16L608.82 166.33L611.42 160.42L611.61 159.62L611.31 158.77L610.56 158.76L608.36 159.44H607.41L604.15 159.07L603.43 158.87L602.97 158.44L602.6 157.94L602.19 157.59L601.5 157.45L601.02 157.62L600.67 157.87L600.39 157.99L599.34 157.67L598.92 157.05L598.91 155.06L598.65 153.76L598.62 153L598.91 152.5L599.48 152.46L599.75 152.94L599.87 153.56L600.03 153.97L600.39 154.14L601.31 154.34L601.64 154.37L602.39 154.2L602.51 153.78L601.86 151.41ZM615.55 152.5L616 151.45L616.26 150.44L616.1 149.46L615.23 148.55L615.06 148.31L614.51 147.8L614.09 148.55L613.67 149.05L612.31 149.96L612.93 150.28L613.26 150.72L613.39 151.28L613.42 151.99L613.69 152.08L614.89 152.37L615.23 152.5H615.55ZM594.06 147.86L594.21 147.66L594.25 147.2L594.17 146.84L593.98 146.74L593.78 146.59L593.6 146.4V146.16L593.14 146.14L592.45 146.63L592.35 146.83L592.42 146.97V147.73L592.77 148.16L593.6 148.32L593.87 148.35L594.06 147.86Z" fill="#CCCCCC" stroke="white" stroke-width="0.5"/>
<path d="M312.301 351.67L311.811 351.61L311.381 351.2L310.881 349.91L310.751 348.94L310.741 348L310.891 346.28L310.431 345.22L310.011 344.58L305.651 341.61L300.951 344.73L298.581 347.3L297.661 348.07L295.431 349.38L294.161 350.48L293.401 353.33L293.201 385V385.01L295.601 386.41L295.951 386.97L296.221 387.69L296.881 388.63L299.401 391.47L299.681 391.98L299.921 392.63L299.961 393.14L299.901 393.7V394.24L300.121 394.67L300.521 394.66L301.201 394.57L301.831 394.7L302.111 395.38L302.181 395.78L302.341 396.14L302.571 396.43L302.831 396.64L302.501 397.5L303.031 397.7L303.901 397.38L304.641 396.64L304.791 397.6L304.541 398.35L303.991 399L303.201 399.63L302.291 399.26L302.001 399.96L301.901 400.94L301.571 401.45L301.881 401.75L302.191 402.47L302.341 403.33L302.111 404.04L302.901 405.1L303.561 406.35L304.401 407.54L305.721 408.45L306.711 408.79L310.381 409.61L311.131 410.08L311.521 410.25L312.131 410.29L313.091 410.13L313.721 410.25L315.511 411.14L317.091 412.21L318.711 412.92L320.601 412.77L321.221 412.31L322.871 410.62L322.931 410.25L322.761 409.99L322.811 409.45L323.141 408.93L323.821 408.78L324.131 409.01L324.371 409.5L324.541 410.08L324.571 410.61L324.211 411.29L322.711 412.43L322.371 412.97L322.151 413.03L320.931 413.86L319.931 414.09L319.521 414.26L319.751 414.71L320.021 415.12L320.311 415.47L320.601 415.72L319.881 416.92L319.951 418.5L320.441 419.8L320.931 420.14L321.161 420.71L320.991 421.15L320.521 421.44L319.881 421.57L320.441 422.31L322.601 421.83L323.641 422.15L324.521 423.33L324.991 424.51L325.651 427.12L326.161 428.11L327.531 430.18L328.221 431.85L329.131 432.55L330.101 432.98L330.701 433H330.711L329.281 431.8L328.871 431.26L328.701 430.82L328.691 430.46L328.811 430.2L329.021 429.95L329.331 429.75L329.801 429.56L332.021 428.89L333.931 427.81L334.561 427.61L335.181 427.71L335.691 428L336.521 428.75L336.931 429.01L337.391 429.08L338.521 428.98L339.061 429.13L339.631 429.87L340.131 431.19L340.541 433.04L340.581 435.02V435.12L341.061 435.42L341.811 436.06L342.271 436.92L342.311 438.12L342.671 437.75L343.651 438.28L344.241 439.09L344.681 439.97L345.201 440.68L346.621 442.12L351.361 448.32L351.851 449.29L352.051 450.39L352.121 452.68L352.341 453.53L352.771 454.29L353.451 454.91L354.291 455.51L355.001 456.19L355.291 457.03L355.681 457.84L357.571 459.7L358.251 460.18L358.771 460.24L359.481 460.23L360.111 460.33L360.371 460.71L360.631 460.97L361.201 461.26L361.881 461.49L362.371 461.58L363.291 466.04H363.651L365.661 463.98L366.921 463.7L369.091 464.17L369.751 464.87L370.051 464.99L370.241 463.88L370.461 463.46L370.811 463.18L371.251 463.1L371.891 463.57L371.991 464.48L371.541 465.34L370.541 465.67V466.04L371.841 465.96L372.831 465.65L373.671 465.54L374.501 466.04L375.041 466.95L375.491 468.07L376.081 469.09L377.061 469.7L377.851 469.3L378.431 468.74L379.221 467.47L381.211 468.04L383.731 467.65L385.801 466.46L386.441 464.57L386.881 464.95L387.231 465.74L387.551 466.04L387.901 466.1L388.881 466.02L389.351 466.04L390.471 466.44L391.231 467.08L391.871 467.74L392.631 468.23L393.051 467.43L394.041 467.6L395.051 468.41L395.521 469.51L396.051 470.19L399.481 471.53L400.521 471.17L404.671 471.12L405.441 470.98L406.091 470.7L406.371 470.25L406.661 470.02L407.331 470.11L408.561 470.46H411.061L411.641 470.77L411.981 470.86L412.141 470.64L412.681 470.03L413.591 469.6L413.991 468.57L414.331 466.4H414.661L415.171 468.15L415.411 468.63L415.761 468.88L416.381 469.14L416.961 469.19L417.221 468.81L417.591 468.07L418.301 468.47L418.781 469.27L418.481 469.7L417.771 469.72L417.211 469.85L416.781 470.18L416.501 470.8L416.681 470.82L417.221 470.8L417.111 470.99L416.981 471.36L416.861 471.53L417.341 471.95L417.221 473.12L417.751 473.36L418.461 473.44L419.431 473.74L420.101 473.77L422.831 473.36L423.631 473.41L424.271 473.57L427.861 475.34L428.861 475.7L429.911 475.59L430.361 475.28L430.911 474.77L431.541 474.3L432.251 474.09L432.771 474.04L433.401 473.86L434.631 473.36L434.941 473.54L435.411 473.52L436.431 473.36L436.891 473.43L437.851 473.7L439.261 473.88L440.031 474.18L443.841 476.15L444.521 476.33L445.491 476.41L446.651 476.64L447.701 476.99L448.331 477.43L448.871 476.96L449.851 475.9L450.531 475.59L452.881 476.51L453.161 477.07L453.191 477.6L453.351 478L454.691 478.27L455.101 478.53L455.091 478.89L454.501 479.26L455.401 479.68L455.971 479.44L456.441 479.01L457.021 478.9L457.361 479.21L457.521 480.16L457.941 480.36H459.581V479.99L458.861 479.66L459.221 479.26L460.101 479.59L460.761 479.26L461.311 478.89L462.641 479.36L463.611 479.28L465.381 478.9L466.901 478.83L466.751 468.11L466.401 467.06L465.591 465.63L464.401 465.23L461.401 463.84L459.951 462.67L458.511 461.74L455.811 460.57L455.481 460.35L453.081 458.1L452.241 457.48L451.311 457.1L448.451 456.67L448.141 456.53L447.911 456.1L446.861 453.73L446.001 452.81L445.181 452.1L442.221 450.61L438.181 449.24L434.701 448.64L433.041 448.51L431.611 448.54L430.681 448.66L429.681 448.93L428.761 449.28L428.301 449.62L428.241 449.96L428.201 450.4L428.311 450.83L428.521 451.32L429.811 453.62L430.041 454.28L430.151 454.87V455.91L430.031 456.45L429.781 456.93L429.471 457.15L428.951 457.34L428.291 457.4L425.331 457.35L424.631 457.49L422.891 458.05L421.591 458.63L421.001 458.66L420.371 458.46L419.121 457.7L418.431 457.41L417.651 457.28L416.041 457.3L415.391 457.25L414.941 457L414.741 456.44L414.731 456L414.781 455.59L414.731 455.32L414.541 455.11L414.171 455.02L413.841 455.11L413.491 455.33L413.001 455.72L412.631 455.9L412.371 455.96L412.091 455.92L411.841 455.82L411.561 455.68L409.931 454.5L409.171 454.14L407.731 453.62L406.901 453.19L404.661 451.55L402.381 450.35L398.861 447.64L398.101 447.44L397.391 447.52L396.701 447.82L396.121 448L395.511 448.02L394.821 447.79L393.971 447.23L391.071 444.63L387.881 442.28L386.661 441.09L385.011 439.79L384.301 439.47L381.971 438.93L381.201 438.47L380.441 437.71L379.721 436.12L379.601 435.07L379.731 434.11L380.251 432.56L380.391 431.76L380.211 430.8L379.781 429.86L375.481 423.76L374.681 423.09L374.121 422.89L373.111 422.73L372.661 422.56L372.271 422.29L371.781 421.83L371.171 421.01L368.371 416.08L367.721 415.52L367.391 415.38L367.071 415.43L366.501 415.91L366.101 416.11L365.571 416.23L364.991 416.19L364.461 415.82L363.971 415.14L362.141 410.95L361.831 410.47L361.361 410.09L360.751 409.5L358.781 407.02L357.951 406.19L357.021 405.55L356.271 404.9L355.431 403.97L354.521 402.53L352.921 400.73L352.461 400.05L352.151 399.13L352.021 396.62L352.091 395.64L352.381 394.04L357.191 386.77L358.121 383.79L356.851 380.79L354.841 377.83L352.411 375.36L350.061 373.7L346.261 371.96L341.311 369.12L325.001 353.82L324.431 354.11L324.081 354.22L323.601 354.29L323.161 354.3L322.051 354.17L321.451 354.01L320.901 353.81L319.011 352.91L318.161 352.79L317.291 352.81L315.801 353.04L315.061 352.88L314.471 352.56L313.411 351.75L312.861 351.6L312.301 351.67Z" fill="#CCCCCC" stroke="white" stroke-width="0.5"/>
<path d="M157.121 382.15L157.621 381.01L157.581 380.48L157.251 380.25L156.931 380.31L156.581 380.54L156.001 380.72L155.371 381.21L155.491 381.97L156.201 382.54L157.121 382.15ZM148.081 392.58L148.621 391.53L148.631 390.3L148.191 389.12L147.381 388.23L146.291 387.88L145.211 387.52L140.141 383.3L139.601 382.34L139.231 381.85L138.721 381.65L137.571 381.49L133.141 379.89L128.471 378.84L127.681 378.2L125.721 375.97L125.111 375.92L124.401 376.09L123.601 376.18L124.111 376.76L125.221 377.49L125.841 378L127.071 379.72L127.631 380.22L129.041 380.84L132.011 381.66L135.321 384.42L135.641 385.13L135.931 385.61L136.601 385.82L137.381 385.96L137.981 386.24L139.181 387.16L145.351 390.08L146.151 390.61L146.481 391.37L146.741 392.35L147.371 392.81L148.081 392.58ZM133.451 373.43L133.141 373.12L132.711 372.88L132.001 372.9L130.881 373.68L131.601 374.85L133.071 375.95L134.191 376.55L136.531 376.92L137.671 377.25L138.551 378.27L141.081 379.49L142.151 379.73L144.881 379.79L145.901 379.62L146.401 379.17L146.451 378.48L146.091 377.67L145.241 376.27L145.081 375.5L145.041 374.16L144.461 373.76L139.741 373.21L136.171 373.27L134.501 373.63H133.871L133.451 373.43ZM150.021 376.31L150.161 375.84L149.871 375.14L149.771 374.66L149.471 373.7L148.851 372.74L147.851 371.99L145.821 371.56L143.241 371.75L142.721 372.49L145.311 373.65L147.201 375.82L148.391 376.54L149.421 376.66L150.021 376.31ZM150.511 362.01L150.601 361.1L150.061 360.27L149.171 359.65L148.701 359.38L147.991 359.09L146.551 358.88L145.811 359.72L146.571 361.22L147.631 362.6L149.371 362.75L150.511 362.01ZM151.001 358.66L150.411 357.35L149.841 356.68L148.801 355.93L146.511 354.89L144.671 354.79L143.951 355.41L144.471 356.54L144.881 357.47L146.221 358.17L148.401 358.33L149.861 358.79L150.621 359.16L151.001 358.66ZM95.6408 246.95L95.0608 244.16L93.8508 242.83L89.7308 239.79L71.9308 222.48L70.7408 220.43L70.7608 219.29L72.3708 215.89L8.84078 194.16L7.29078 193.7V194.29V194.43V204.78V211.44V213.61V227.26V237.1V247.49V259.56V265.18L7.08078 265.26L6.60078 265.87L6.33078 266.93L6.08078 267.04L6.02078 267.23L6.14078 267.55L6.65078 267.99L6.77078 268.31L6.57078 268.86L6.17078 269.23L5.88078 269.64L6.02078 270.32L5.43078 270.27L4.87078 270.3L4.36078 270.43L3.89078 270.68L4.45078 270.74L4.82078 271.02L4.98078 271.49L4.97078 272.13L5.80078 272.11L6.04078 272.91L5.88078 273.88L5.53078 274.34L4.72078 274.46L4.34078 274.82L4.22078 275.43L4.17078 276.77L4.03078 277.05L3.75078 277.21L3.32078 277.24L2.86078 277.42L3.05078 277.83L3.41078 278.31L3.49078 278.7L2.73078 279.25L1.85078 279.44L1.08078 279.71L0.610781 280.51L1.38078 280.89L1.43078 281.88L0.970781 283.63L0.680781 284.26L0.550781 284.73L0.610781 285.27L1.00078 285.83L2.11078 286.82L2.41078 287.45L2.32078 287.8L1.82078 288.5L1.69078 288.75L1.87078 289.34L2.30078 289.8L3.32078 290.55L3.59078 291.4L3.67078 292.52L4.08078 293.23L5.33078 292.89L5.52078 294.58L6.52078 295.11L7.31078 295.04L7.30078 300.79V308.9L7.29078 315.59V317.77V331.83V341.7V351.79V353.92L7.30078 362.89L7.32078 377.03L7.33078 386.44V396.43L7.31078 406.74L7.30078 412.9L8.93078 413.86L14.5908 418.91L16.5708 419.64L19.0908 419.41L20.7608 418.6L24.8908 415.36L26.7808 414.79L28.8208 414.8L30.7908 415.26L32.4608 416.09L34.6508 417.63L35.4508 418.72L36.5108 418.89L37.6208 418.91L38.2608 419.01L39.1108 418.61L39.8208 418.93L40.5108 419.46L41.3308 419.74L42.0508 419.63L42.8808 419.35L43.6308 419L44.0708 418.65L45.3908 418.73L49.8708 417.91L51.0608 418.1L53.2708 418.84L54.3808 419.01L55.6808 418.93L56.7608 418.7L59.9608 417.53L61.0208 417.31L68.4908 416.76L70.2708 416.82L70.8908 416.65L71.8908 415.9L72.4608 415.72L73.1308 415.85L75.9008 416.82L78.1908 418.12L78.9908 418.32L80.2308 418.42L81.0408 418.7L82.4208 419.41L83.9908 419.26L85.9008 420.09L87.7008 421.31L90.2308 423.49L91.8308 424.55L93.6808 425.13L95.8008 424.89L98.7208 423.24L99.0708 422.62L99.9408 422.08L105.601 419.87L107.471 418.42L109.941 417.4L111.021 416.82L111.461 416.27L111.921 415.54L112.411 414.91L113.011 414.63L113.521 414.49L114.751 413.73L116.051 412.66L116.941 412.21L121.631 410.76L122.411 410.61L122.761 410.44L123.011 410.08L123.171 409.71L123.311 409.52L123.571 409.49L124.131 409.55L124.951 409.4L126.051 409.32L126.581 409.15L126.221 408.78L127.781 408.49L130.781 408.48L132.361 408.05L133.241 407.62L133.831 407.21L135.101 406.03L135.571 405.2L135.601 404.25L135.281 402.51V395.58L135.031 394.86L134.541 394.02L132.531 391.59L130.941 388.98L127.971 385.43L121.101 379.75L119.541 378.75L117.511 378L110.891 376.65L108.851 375.85L105.451 373.58L104.331 373.27L103.781 373.01L101.971 371.41L99.8008 370.71L98.9208 371.03L94.7208 370.32L92.8308 370.93L89.3208 373.31L87.4408 373.96L85.2208 373.74L83.5008 372.78L82.3208 371.32L80.7208 366.21L80.5908 365.03L80.0308 363.88L78.7408 363.62L77.3008 363.84L75.0608 364.45L74.4008 364.49L73.5508 364.16L73.2208 364.38L72.8708 364.69L72.4608 364.85L71.6708 365.06L70.9408 365.55L69.7708 366.67L68.9608 366.32L68.7508 365.9L69.0508 365.41L69.7708 364.85L70.3408 364.63L70.9408 364.54L71.5208 364.37L72.1008 363.92L72.4908 363.45L72.8008 363.18L73.2108 363.06L75.0708 362.92L78.0608 362.29L80.3508 362.73L81.4808 364.14L82.7108 369.43L83.1908 370.38L83.9808 371.11L85.1308 371.41L87.4508 371.6L88.4808 371.53L89.6408 371.08L92.6308 369.12L93.8208 368.86L94.8108 368.77L97.4408 368.18L98.3308 367.76L98.8508 368.05L99.0708 368.11L105.781 369.2L110.961 371.6L111.931 371.81L113.121 371.72L125.511 368.49L130.011 368.16L131.471 367.26L132.001 367.03L145.421 366.72L146.501 366.58L147.381 366.11L147.691 365.09L147.301 363.75L144.251 358.33L143.721 356.21L143.101 355.5L138.801 353.59L137.841 352.83L137.441 351.85L137.241 350.53L136.671 350.07L134.521 349.85L133.981 349.68L133.531 349.42L133.231 349.06L133.111 348.59L133.381 348.29L133.971 348.4L134.531 348.65L134.721 348.79L136.101 348.8L137.081 348.96L137.841 349.49L138.521 350.57L139.391 352.55L139.981 353.23L140.901 353.49L143.901 353.71L147.301 352.86L148.531 352.82L149.551 353.31L150.061 353.64L151.901 354.22L152.371 354.56L153.271 355.38L153.701 355.68L154.681 355.96L159.611 356.02L160.701 355.83L161.601 355.3L162.421 354.22L160.431 352.2L159.501 351.67L159.051 351.55L158.151 351.46L157.701 351.3L157.341 351.03L156.941 350.44L156.621 350.22L159.701 350.36L160.581 350.57L161.391 351.3L162.111 352.33L162.891 353.2L163.861 353.49L163.951 353.36L114.271 302.57L114.091 291.87H104.321L100.301 291.46L97.2608 290.39L96.2808 287.97L95.9308 285.2L95.6408 246.95Z" fill="#CCCCCC" stroke="white" stroke-width="0.5"/>
<path d="M221.8 236.1L220.77 234.93L217.86 230.55L216.86 229.53L215.19 228.45L214.1 227.49L213.33 226.53L212.32 224.28L212.13 224L211.77 223.56L211.19 223.08L210.47 222.63L207.54 221.66L206.47 221.04L205.24 219.98L204.31 218.87L203.55 217.72L202.83 216.83L201.92 216.25L198.86 215.26L197.41 214.38L196.51 213.52L195.23 211.63L194.57 210.86L193.62 210.21L185.92 207.4L184.98 207.19L184.25 207.26L183.45 207.8L182.83 208.37L182.15 208.76L181.84 208.85L180.03 208.24L178.93 210.52L178.35 212.06L177.57 212.83L176.58 213.22L175.47 213.49L169.97 216.44L169.5 217.1V217.87L172.78 224.41L173.14 225.57L173.19 226.5L173.08 227.71L172.56 230.04L172.04 231.25L171.37 232.24L169.69 233.59L165.79 235.88L158.35 238.53L155.52 239.92L154.93 240.35L154.82 240.74L154.99 241.14L156.14 242.77L156.46 243.39L156.66 244L161.13 245.83L161.63 246.75L162.5 247.69L163.2 248.21L164.79 247.99L166.31 247.95L167.67 248.32L195.49 266.92L198.19 268.7L198.5 268.64L198.93 268.33L199.63 265.77L200.02 265.03L200.51 264.3L201.15 263.58L203.26 261.61L203.78 260.78L205.87 255.24L206.09 254.42L206.11 253.88L205.87 253.36L204.54 251.93L204.26 251.18L204.21 250.23L204.57 248.66L205.03 247.46L205.14 247.33L205.76 246.83L206.39 246.52L208.14 245.87L209 245.32L209.41 244.77L209.57 244.3L209.01 236.82L209.16 235.95L209.61 235.78L210.29 235.9L213.17 236.88L218.13 237.13L219.45 236.94L220.35 236.69L221.8 236.1Z" fill="#CCCCCC" stroke="white" stroke-width="0.5"/>
<path d="M94.8802 193.7L89.2702 193.49L86.1202 192.88L78.4202 192.61L78.5402 197.78L78.9202 200L79.6802 201.52L80.2002 202.95L79.9002 204.68L79.5402 205.77L78.2502 208.24L78.1602 208.58L78.0602 209.25L77.2902 211.41L77.2402 211.71L76.8002 212.98L75.8702 213.68L73.7602 214.71L72.3702 215.89L70.7602 219.29L70.7402 220.43L71.9302 222.48L89.7302 239.79L93.8502 242.83L95.0602 244.16L95.6402 246.95L95.9302 285.2L96.2802 287.97L97.2602 290.39L100.3 291.46L104.32 291.87H114.09L150.31 291.8L204.72 286.63L204.02 285.31L202.94 284.32L202.24 283.81L199.81 283.49L198.47 283.15L197.87 282.52L197.8 281.36L197.49 280.41L196.83 279.55L195.71 278.69L194.73 278.24L193.7 278.03L191.92 277.96L191.12 277.76L190.94 277.27L191.03 276.68L191.02 276.15L190.71 275.57L190.51 275.13L190.5 274.92L190.82 273.08L191.06 272.54L191.49 272.05L192.39 271.6L193.99 271.27L194.72 271.03L195.29 270.67L195.62 270L195.74 269.45L195.49 266.92L167.67 248.32L166.31 247.95L164.79 247.99L163.2 248.21L162.5 247.69L161.63 246.75L161.13 245.83L156.66 244L153.4 243.39L151.11 243.24L148.39 243.72L144 244.96L141.68 245.39L140.17 245.11L137.49 243.89L132.69 240.47L127.26 235.56L123.73 233.78L108.56 228.3L102.99 221.12L101.64 195.36L98.7702 193.55L98.0302 193.44L97.1202 193.41L94.8802 193.7Z" fill="#CCCCCC" stroke="white" stroke-width="0.5"/>
<path d="M737.991 219.96L736.071 218.15L733.891 216.94L732.151 217.18L732.061 218.28L734.361 220.53L734.961 221.74L735.171 222.41L735.571 223.15L735.861 223.95L735.721 224.82L735.341 225.17L734.901 224.99L733.951 224.09L733.841 224.23L733.791 224.3L733.751 224.37L733.591 224.49V224.82L734.331 225.74L734.251 226.72L733.841 227.81L733.211 232.32L732.281 234.52L732.151 235L732.231 235.37L732.421 235.79L732.861 236.45L734.141 237.71L734.721 238.6L734.961 239.74L734.871 240.36L734.641 240.86L734.311 241.37L734.361 241.91L734.591 242.96L734.641 243.55L735.091 244.61L737.071 246.07L737.531 246.82L737.761 247.49L738.352 248.19L739.081 248.79L740.421 249.67L741.911 251.41L744.411 252.54L744.801 253.03L744.941 253.3L745.852 254.32L746.631 256.49L746.861 257.63L747.021 257.97L747.511 258.47L748.051 258.8L749.231 259.24L750.411 260.25L752.321 261.3L757.581 262.87L759.331 264.22L760.381 266.68L760.561 268.91L760.391 271.52L759.861 273.98L758.931 275.79L758.501 275.54L758.091 275.43H757.131L757.881 276.84L764.271 283.86L764.931 285.02L765.421 285.62L767.051 287.02L767.991 287.6L768.852 287.84L769.352 288.13L771.591 289.98L775.641 291.98L777.991 292.78L780.241 293.25H782.621L783.251 293.36L784.211 293.87L784.801 293.97L785.901 293.77L786.561 293.22L787.881 291.47L789.161 290.3L791.111 288.95L793.071 288.49L794.371 289.98L795.921 286.55L796.361 286.02L796.821 286.61L796.731 287.95L796.181 290.38L797.121 289.56L798.031 288.47L798.741 287.25L799.091 286.02L798.901 284.68L797.602 282.61L797.291 281.43L797.181 280.89L796.671 279.69L796.541 279.05L796.591 278.49L796.852 277.47L796.901 276.87L796.411 274.88L795.341 273.31L794.061 271.9L792.901 270.32L791.771 267.88L790.951 266.76L789.861 266.28L788.852 266.12L788.051 265.64L787.391 264.95L786.801 264.11L786.151 262.85L785.691 262.21L785.161 261.93L784.641 261.87L784.102 261.69L783.691 261.4L783.151 260.19L781.881 258.9L782.071 258.31L781.631 257.92L781.511 257.67L781.581 257.48L781.711 257.25V256.85L780.901 257.51L780.781 258.3L780.501 258.9L779.191 259.06L778.031 258.59L777.481 257.71L777.091 256.87L776.471 256.49L776.011 257.06L775.521 257.43L774.831 257.58L774.541 257.43L771.871 254.66L770.081 251.04L769.871 250.45L769.321 247.7L768.891 246.98L768.131 246.1L767.551 245.11L767.231 244.82L766.971 244.77L766.361 244.87L766.121 244.82L765.701 244.52L765.491 244.3L765.331 244.05L762.721 241.19L761.801 240.96L760.911 240.5L760.071 240.22L759.261 240.47L758.761 239.6L758.271 237.69L757.852 236.81L758.141 234.95L758.051 234.44L757.861 234.22L757.461 233.55L757.251 233.35L756.841 233.2L756.581 232.99L755.741 231.82L754.621 229.36L753.271 227.79L753.021 226.58L752.731 225.91L752.551 225.89L751.491 225.55L751.261 225.38L751.341 225.03L751.661 224.49L751.621 224L751.651 223.6L751.421 223.37H750.602L750.191 223.66L749.961 224.14L749.701 224.42L749.131 224.09V223.73L749.501 223.23L748.951 223.02L745.411 223.01L744.651 222.92L744.051 222.64L743.501 223.08L743.001 223.02L742.581 223.23L742.281 223.73L741.751 222.77L740.891 221.9L739.901 221.39L739.001 221.56L737.991 219.96ZM731.791 200.09L731.651 198.59L731.031 196.78L729.871 195.36L728.151 195.02L726.631 196.11L725.001 197.83L723.771 199.79L723.461 201.6L724.921 200.42L725.681 200.65L725.941 201.75L725.971 204.63L725.811 205.52L725.451 205.92L724.861 206.26V207.02L725.271 208.27L725.481 209.73L727.602 214.98L728.541 218.66L729.201 218.12L729.511 217.37L729.871 216.72L730.671 216.45L730.352 217.57L731.551 216.98L732.021 215.53L732.151 212.07L733.521 207.15L733.591 205.52L733.291 204.61L732.821 204.16L732.291 203.85L731.791 203.35L731.451 202.53L731.461 201.72L731.791 200.09ZM772.711 182.82L772.871 182.57L772.581 182.62L772.381 182.82L772.541 183L772.711 182.82ZM705.321 165.94L704.811 166.15L704.651 166.32L704.591 166.7L704.741 166.59L704.821 166.49L704.881 166.4L704.951 166.33L705.901 166.94L707.121 168L707.951 169.29L707.681 170.53L706.991 171.37L706.631 171.41L706.041 171.04L705.701 170.59L705.261 169.39L704.951 168.87V170.25L706.011 171.62L707.441 172.09L708.571 170.71L708.591 169.22L707.951 167.75L706.811 166.57L705.321 165.94ZM703.521 164.53L703.381 162.38L703.151 161.39L702.811 160.88L702.271 161.31L702.471 162.26L702.921 163.43L703.161 164.53H703.521ZM734.141 111.79L733.021 109.22L730.331 104.79L729.081 102.29L728.321 100.41L726.631 99.6L724.391 99.32L727.571 101.16L729.291 104.1L731.251 106.91L732.352 109.73L733.821 112.79L734.141 111.79Z" fill="#CCCCCC" stroke="white" stroke-width="0.5"/>
<path d="M210.63 287.5L209.95 287.48L209.3 287.15L208.41 286.51L207.73 286.24L207.12 286.15L206.38 286.26L204.86 286.62L204.72 286.63L150.31 291.8L114.09 291.87L114.27 302.57L163.95 353.36L164.69 352.34L163.84 350.1L161.31 346.21L159.96 344.56L159.38 343.59L159.14 342.35L159.09 341.09L158.91 339.96L158.56 338.89L154.27 331.59L153.37 329.4L153.45 329.07L153.63 328.71L153.54 328.42L152.31 328.19L151.15 327.7L150.63 327.58L150.13 327.24L148.44 325.44L147.9 324.61L148.29 323.88L148.5 324.43L148.62 324.61L149.11 325.11L150.92 326.52L151.72 326.83H152.32L153.57 326.99L154.09 327.18L154.6 327.48L154.79 327.71L155.17 328.64L157.08 332.18L157.34 333.24L157.88 334.2L159.12 335.25L162.97 337.51L172.89 340.93L173.79 341.64L174.32 341.91L174.94 341.78L175.57 341.53L176.15 341.44L176.82 341.64L177.34 341.96L178.32 342.94L179.04 342.57L181.04 341.85L181.56 341.44L181.49 340.79L180.99 340.05L180.31 339.46L179.76 339.22L180.42 338.15L180.75 336.95L180.41 336.07L179.04 335.99V335.59L179.72 335.44L180.36 335.18L180.87 334.75L181.21 334.13L182.03 334.98L183.21 337.43L184.08 337.84L184.6 337.21L184.25 335.96L183.65 334.44L183.4 333.04L185.16 335.66L185.74 337.11L185.96 338.71L186.37 340.14L187.28 340.58L188.25 340.13L188.81 338.89L189.38 339.27L190.12 339.97L190.74 340.71L191.01 341.28L191.26 341.51L192.31 342.94L192.45 343.27L193.79 343.04L193.38 341.77L192.32 340.38L191.73 339.8L191.53 338.96L191.1 338.23L190.6 337.62L190.29 337.08L189.99 335.68L189.89 333.95L189.75 333.14L189.06 331.68L188.81 330.86L188.71 328.84L188.48 327.91H188.81L189.24 328.58L189.84 330.29L190.29 331.22L190.53 331.42L190.89 331.62L191.22 331.83L191.37 332.11L191.4 332.45L191.59 333.38L191.73 333.77L192.24 334.35L193.61 335.46L193.89 336.15L194.12 336.32L194.61 336.17L195.12 335.78L195.37 335.26L194.18 334.23L193.89 333.77L193.86 333.1L194.28 331.39L194.26 327.61L194.56 326.96L195.37 327.91L195.45 328.47L195.32 329.78L195.53 330.28L195.84 330.65L196.01 331.04L196.08 331.52L196.09 332.11L196.3 332.86L196.79 333.84L197.37 334.74L197.86 335.26L198.88 335.52L200.22 335.49L201.39 335.11L201.89 334.31L201.7 333.36L201.36 332.4L201.18 331.42L201.49 330.43L202.83 331.55L203.41 332.19L203.92 333.38L205.83 334.82L206.97 336.18L207.7 336.81L208.55 337.08L209.48 337.05L210.55 336.89L211.19 336.45L210.88 335.59L211.36 334.45L211.58 331.88L211.99 330.86L212.62 331.75L212.79 332.94L212.73 338.12L212.31 339.11L211.45 340.17L211.5 340.49L211.92 340.91L212.47 341.29L212.91 341.44L213.05 341.55L213.33 342.04L213.43 342.17H213.74L214.37 341.91L214.71 341.84L215.55 342.14L216.19 342.64L216.76 342.74L217.43 341.84L219.02 343.66L219.59 344.03H222.87L223.36 343.77L223.55 343.49L223.57 342.35L223.74 341.88L224.12 342.02L224.5 342.51L224.68 343.1L225.18 344.08L226.36 344.79L227.7 345.15L228.68 345.08L228.63 344.79L229.03 344L229.52 343.45L229.93 344.13L230.68 344.65L231.05 345.27L232.17 346.29L232.65 346.57L233.24 346.64L233.8 346.51L234.31 346.32L234.78 346.21L236.78 346.45L238.28 347.24L241.34 350.17L242.15 350.6L243.13 350.83L244.38 350.91L247.96 350.23L248.94 350.57V350.22L249.79 350.56L250.6 350.47L251.39 350.26L252.19 350.22L252.89 350.52L253.88 351.47L254.55 351.67L257.77 351.7L258.72 351.29L257.95 350.22L258.93 349.77L259.82 349.92L260.59 349.94L261.23 349.11H261.59L260.96 350.38L260.87 350.75L261 350.96L261.28 351.15L261.52 351.35L261.59 351.67L261.37 351.95L260.66 352.05L260.51 352.21L260.63 352.63L260.87 352.92L261.12 353.13L261.23 353.31L261.95 354.19L265.29 355.3L266.31 356.04L267.69 355.6L269.41 355.69L272.44 356.43L275.23 357.89L276.8 358.48L277.89 358.26L278.14 358.76L278.04 359.16L277.68 359.48L277.13 359.72L277.81 360.31L278.41 361.18L278.57 362.05L277.89 362.63L278.77 364.49L279.34 365.03L280.59 365.21L281.05 365.55L282.59 367.06L284.33 367.71L285.03 368.45L285.55 369.41L285.85 370.32V371.97L285.95 372.19L286.4 372.82L286.55 373.27L286.61 375.41L287.25 377.04L291.79 383.76L293.06 384.93L293.2 385.01V385L293.4 353.33L294.16 350.48L295.43 349.38L297.66 348.07L298.58 347.3L300.95 344.73L305.65 341.61L294.32 333.91L279.01 329.68L277.66 329.1L276.89 328.33L275.45 326.19L274.36 324.03L264.49 313.14L235.77 293.9L233.34 292.42L229.44 292.14L227.09 291.3L225.46 290.47L223.11 289.74L221.81 289.6L220.73 289.21L219.35 289.05L218.54 288.88L217.86 288.35L217.07 287.52L215.96 286.57L215.19 286.43L214.47 286.73L213.82 287.17L212.84 287.48L211.93 287.32L210.63 287.5Z" fill="#CCCCCC" stroke="white" stroke-width="0.5"/>
<path d="M245.801 245.48L244.001 245.15L242.881 244.74L241.991 243.88L239.781 240.4L239.061 239.92L238.261 239.85L233.851 240.59L232.501 240.5L228.581 240.71L227.901 243.6L227.721 250.77L227.961 251.83L228.331 252.57L230.201 254.08L230.721 254.38L231.811 254.77L232.271 255.01L232.751 255.6L233.041 256.55L233.741 261.03L233.681 262.51L233.521 263.35L233.221 264.15L232.771 264.83L232.291 265.26L231.151 265.99L230.481 266.58L228.981 268.59L228.441 269.15L227.821 269.44L227.061 269.53L224.551 269.42L223.731 269.27L222.981 269.25L222.361 269.42L220.131 270.59L219.641 271.03L219.071 271.88L219.061 272.73L219.441 274.76L219.821 275.2L220.251 275.46L220.941 275.59L221.721 275.84L222.511 276.18L223.711 276.89L230.431 283.19L230.771 283.39L235.871 283.76L236.201 283.91L236.531 284.24L237.581 285.62L237.871 286.19L237.821 286.76L235.771 293.9L264.491 313.14L266.771 306.08L267.021 305.6L267.351 305.12L267.631 304.52L269.031 299.73L269.291 299.06L269.731 298.32L270.351 297.58L272.521 295.65L272.981 295.13L273.421 294.35L273.661 293.4L273.631 292.4L272.991 290.54L272.881 289.47L272.691 288.62L272.341 287.88L272.141 287.23L272.191 286.6L272.551 286.08L273.761 284.92L274.301 284.15L274.681 283.25L279.411 260.61V259.41L279.111 258.57L278.601 257.95L271.711 253.52L270.931 253.04L270.891 252.25L270.691 251.41L270.361 251.59L269.511 251.94L269.181 252.14L268.491 251.24L267.661 250.51L266.951 249.73L266.351 247.83L265.631 247.18L264.131 246.3L263.031 245.32H262.261L262.081 245.29L255.191 245L254.711 244.88L254.271 244.51L253.511 243.53L252.961 243.22L251.881 242.98L250.851 242.93L249.581 243.12L248.901 243.5L248.421 244L248.071 244.6L247.601 245.21L246.891 245.45L245.801 245.48Z" fill="#CCCCCC" stroke="white" stroke-width="0.5"/>
<path d="M218.13 237.13L213.17 236.88L210.29 235.9L209.61 235.78L209.16 235.95L209.01 236.82L209.57 244.3L209.41 244.77L209 245.32L208.14 245.87L206.39 246.52L205.76 246.83L205.14 247.33L205.03 247.46L204.57 248.66L204.21 250.23L204.26 251.18L204.54 251.93L205.87 253.36L206.11 253.88L206.09 254.42L205.87 255.24L203.78 260.78L203.26 261.61L201.15 263.58L200.51 264.3L200.02 265.03L199.63 265.77L198.93 268.33L198.5 268.64L198.19 268.7L195.49 266.92L195.74 269.45L195.62 270L195.29 270.67L194.72 271.03L193.99 271.27L192.39 271.6L191.49 272.05L191.06 272.54L190.82 273.08L190.5 274.92L190.51 275.13L190.71 275.57L191.02 276.15L191.03 276.68L190.94 277.27L191.12 277.76L191.92 277.96L193.7 278.03L194.73 278.24L195.71 278.69L196.83 279.55L197.49 280.41L197.8 281.36L197.87 282.52L198.47 283.15L199.81 283.49L202.24 283.81L202.94 284.32L204.02 285.31L204.72 286.63L204.86 286.62L206.38 286.26L207.12 286.15L207.73 286.24L208.41 286.51L209.3 287.15L209.95 287.48L210.63 287.5L211.93 287.32L212.84 287.48L213.82 287.17L214.47 286.73L215.19 286.43L215.96 286.57L217.07 287.52L217.86 288.35L218.54 288.88L219.35 289.05L220.73 289.21L221.81 289.6L223.11 289.74L225.46 290.47L227.09 291.3L229.44 292.14L233.34 292.42L235.77 293.9L237.82 286.76L237.87 286.19L237.58 285.62L236.53 284.24L236.2 283.91L235.87 283.76L230.77 283.39L230.43 283.19L223.71 276.89L222.51 276.18L221.72 275.84L220.94 275.59L220.25 275.46L219.82 275.2L219.44 274.76L219.06 272.73L219.07 271.88L219.64 271.03L220.13 270.59L222.36 269.42L222.98 269.25L223.73 269.27L224.55 269.42L227.06 269.53L227.82 269.44L228.44 269.15L228.98 268.59L230.48 266.58L231.15 265.99L232.29 265.26L232.77 264.83L233.22 264.15L233.52 263.35L233.68 262.51L233.74 261.03L233.04 256.55L232.75 255.6L232.27 255.01L231.81 254.77L230.72 254.38L230.2 254.08L228.33 252.57L227.96 251.83L227.72 250.77L227.9 243.6L228.58 240.71L226.23 238.24L224.79 236.97L221.8 236.1L220.35 236.69L219.45 236.94L218.13 237.13Z" fill="#CCCCCC" stroke="white" stroke-width="0.5"/>
<path d="M14.9308 67.65L12.8108 66.96L10.7808 66.72L8.93078 67.69L7.84078 67.25L7.16078 67.28L7.17078 68.91L7.14078 78.22L7.10078 88.54L7.05078 101.67L7.10078 119.19L7.12078 130.74L7.15078 141.45L7.18078 150.52L7.23078 172.9L7.26078 182.32L7.29078 193.7L8.84078 194.16L72.3708 215.89L73.7608 214.71L75.8708 213.68L76.8008 212.98L77.2408 211.71L77.2908 211.41L78.0608 209.25L78.1608 208.58L78.2508 208.24L79.5408 205.77L79.9008 204.68L80.2008 202.95L79.6808 201.52L78.9208 200L78.5408 197.78L78.4208 192.61L77.1108 177.23L71.7008 174.08L34.6508 173.81L30.8608 173.4L27.9408 172.47L26.7808 170.26L26.3808 167.76L26.2408 158.92L26.6008 156.57L27.7608 155.04L46.3108 142.47L46.7708 142.34L47.5708 142.17L47.7908 142.25L48.7708 142.01L48.8608 143.11L49.6008 143.51L50.5608 143.8L51.3008 144.54L50.5308 145.4L50.2808 145.95L50.5808 146.35L52.0208 145.62L52.4508 145.81L53.3208 145.84L85.5008 145.32L88.4108 144.62L89.4708 142.66L89.7908 141.82L89.8108 141L90.7908 138.41L92.5108 137.38L94.0708 136.2L94.8308 134.19L95.0708 132.15L94.9708 130.9L94.8308 130.37L94.4008 129.76L94.1908 129.33L93.7808 127.84L93.3908 126.92L93.2708 126.28L93.1808 123.87L93.3708 121.72L93.1608 117.8L93.2508 116.98L93.4308 116.47L94.3208 114.86L95.1108 113.07L95.7008 112.2L96.3908 111.67L97.8308 111.32L98.5608 111.03L99.9408 110.29L100.621 110.1H101.271L101.961 110.3L102.741 110.69L104.321 111.69L114.001 115.6L115.471 115.95L116.291 116.05L117.071 116L117.721 115.45L118.291 114.27L118.651 107.29V107.09L116.901 107.25L115.701 107.22L111.461 106.13L109.921 105.23L109.211 105.13L108.461 105.11L107.771 105.01L106.021 104.08L105.411 103.93L104.241 103.8L93.8508 100.63L87.8508 98.78L82.1808 96.05L75.5708 94.11L74.0908 93.4L73.3008 93.14L72.1008 93.04L70.9408 92.65L69.7508 91.9L68.5908 91.35L66.8508 91.95L66.3608 91.8L65.0108 91.69L64.6508 91.59L64.5208 91.05L64.6908 90.43L64.9308 89.84L65.0508 89.39L64.7608 88.88L61.8808 86.31L61.3308 86.08L58.3208 86.3L56.3408 86.68L55.2808 86.5L52.9208 84.88L52.6908 84.35L52.6808 83.83L52.5008 83.43L50.8408 83.13L38.9508 77.52L28.7108 73.26L27.5708 73.11L26.3808 72.64L24.8608 71.03L24.1608 71.3L23.8808 70.94L23.3308 69.83L23.0908 69.5L22.4908 69.3L21.1408 69.24L20.5308 69.1L20.1708 68.88L19.8308 68.58L19.3808 68.29L18.7308 68.05H17.0908L14.9308 67.65ZM105.131 20.9L105.961 20.35L106.711 19.97L107.051 19.86L106.361 19.3L105.361 19.53L104.571 20.32L104.551 21.45L105.131 20.9Z" fill="#CCCCCC" stroke="white" stroke-width="0.5"/>
<path d="M337.231 216.81L337.441 216.04L337.381 215.01L337.531 213.98L338.311 213.16V212.83L337.531 212.19L336.961 211.14L336.621 209.9L336.501 208.63L336.471 207.88L336.301 207.58L335.061 207.01L334.331 206.44L332.511 204.43L331.381 204.48L330.461 205.02L329.661 205.71L328.871 206.25L326.881 206.8L326.391 207.25L325.981 208.46L325.661 210.33L325.701 211.25L325.981 212.07L326.551 212.84L328.511 214.28L330.671 216.79L332.151 217.82L333.981 217.9L335.221 217.05L335.791 216.81L336.201 216.86L336.501 217.06L336.801 217.14L337.231 216.81ZM286.531 184.82L286.251 184.2L285.461 183.04H284.511L283.841 183.48L283.461 184.2L283.331 185.02L283.841 185.96L284.881 186.53L285.671 186.48L285.461 185.58L285.731 185.56L285.791 185.51L285.781 185.39L285.851 185.18L286.191 185.42L286.551 185.58L286.531 184.82ZM270.751 181.31L272.171 180.76L274.121 179.55L274.711 179.06L274.971 178.47L275.091 177.29L275.271 176.7L275.531 176.29L275.551 174.44L275.431 173.12L275.151 172.32L273.191 170.25L272.441 169.63L271.311 169.35L270.281 169.88L267.671 172.61L267.111 173.54L266.311 175.74L266.081 176.79L266.051 177.71L266.231 178.55L266.641 179.36L266.921 179.74L268.641 181.31L269.401 181.64L270.751 181.31ZM224.891 144.23L223.961 143.82L223.451 143.62L223.061 143.79L222.151 144.54L222.031 144.41L221.641 144.28L221.221 144.41L221.041 145.06L221.091 146.03L221.321 147.05L221.821 147.83L222.681 148.15L223.801 148.12L224.571 147.93L225.081 147.49L225.401 146.68L225.541 145.68L225.401 144.85L224.891 144.23ZM223.901 160.22L222.481 159.44L220.541 156.62L219.771 156.18L219.591 155.89V153.97L219.331 153.63L218.151 152.89L216.581 151.35L215.671 150.87L213.321 150.44L212.661 149.88L212.361 149.18L212.381 148.55L212.621 148.26L213.291 147.97L213.431 147.62L213.381 147.3L213.251 147.13L213.131 147.04L213.071 146.87L212.811 146.58L211.541 145.79L209.951 145.35L209.021 144.7L207.631 143.48L205.551 142.71L198.971 141.68L198.191 141.37L197.701 141.11L197.651 141.22L196.741 166.76L190.511 176.76L169.451 192.53L167.561 193.07L165.311 193.29L165.441 194.31L165.571 194.75L165.671 194.99L166.021 195.5L166.681 196.15L169.901 198.77L171.601 199.83L172.411 200.09L172.701 200.15L173.621 200.17L173.861 200.21L174.051 200.32L175.161 201.21L175.331 201.39L175.461 201.67L175.531 202.17L175.521 202.51L175.571 202.86L175.731 203.21L176.161 203.69L176.451 204.63L176.581 205.62L176.671 205.89L176.861 206.13L177.131 206.33L177.651 206.49L178.521 206.92L180.031 208.24L181.841 208.85L182.151 208.76L182.831 208.37L183.451 207.8L184.251 207.26L184.981 207.19L185.921 207.4L193.621 210.21L194.571 210.86L195.231 211.63L196.511 213.52L197.411 214.38L198.861 215.26L201.921 216.25L202.831 216.83L203.551 217.72L204.311 218.87L205.241 219.98L206.471 221.04L207.541 221.66L210.471 222.63L211.191 223.08L211.771 223.56L212.131 224L212.321 224.28L213.331 226.53L214.101 227.49L215.191 228.45L216.861 229.53L217.861 230.55L220.771 234.93L221.801 236.1L224.791 236.97L226.231 238.24L228.581 240.71L232.501 240.5L233.851 240.59L238.261 239.85L239.061 239.92L239.781 240.4L241.991 243.88L242.881 244.74L244.001 245.15L245.801 245.48L246.891 245.45L247.601 245.21L248.071 244.6L248.421 244L248.901 243.5L249.581 243.12L250.851 242.93L251.881 242.98L252.961 243.22L253.511 243.53L254.271 244.51L254.711 244.88L255.191 245L262.081 245.29L262.261 245.32H263.031L264.131 246.3L265.631 247.18L297.981 247.31L314.291 237.75L314.521 237.62L314.251 236.64L313.811 236.35L312.601 236.09L310.801 235L307.291 234.06L300.651 228.83L300.021 228.55L298.751 228.28L298.421 227.86L298.211 227.33L297.951 226.83L296.961 226.1L295.981 226.08L294.951 226.29L293.791 226.3H294.111L293.411 226.36L292.841 226.18L292.381 225.79L292.021 225.55L291.041 224.93L290.641 224.83L290.011 224.82L289.311 224.91L288.211 225.23L287.661 225.22L287.201 224.92L286.691 224.44L286.191 224.12L285.241 224.39L284.671 224.21L283.661 223.73L282.331 223.65L281.741 223.46L281.501 222.82L281.231 222.38L280.621 222.25L279.331 222.28L278.411 221.99L276.621 221.18L276.051 221.2L275.831 220.96L275.631 220.81L275.371 220.86L274.971 221.2L273.801 220.53L272.831 220.27L271.931 219.94L271.001 218.99L270.301 219.49L269.501 219.56L268.731 219.72L268.091 220.47L267.881 220.31L267.721 220.23L267.361 220.11L267.311 220.52L267.081 221.18L267.001 221.56H266.641L265.871 219.88L264.611 219.55L261.411 220.11L259.911 219.61L258.801 218.38L258.211 216.72L258.351 215.01L259.291 213.31L259.421 212.65L259.371 212.06L259.131 211.25L259.071 210.82L259.341 209.68L261.231 207.01L261.571 206.03L261.661 205.05L261.591 202.8L261.641 202.25L261.871 201.08L261.991 199.18L261.951 199.03L262.231 198.44L262.621 197.84L262.671 197.39L262.561 196.94L262.071 196.21L261.951 195.91L261.821 194.83L261.281 192.65L261.231 191.4L261.531 189L261.911 187.87L262.511 187.38L262.671 186.94L262.121 185.96L261.341 184.96L260.871 184.46L259.071 183.94L258.891 183.71L258.061 183.15L257.071 182.75L256.251 182.03L250.481 175.56L249.361 173.07L248.541 172.15L248.241 172.14L247.871 172.27L247.431 172.28L246.921 171.96L245.811 170.46L245.361 169.63L243.461 167.42L240.221 164.71L238.051 162L236.001 161.17L233.741 161.43L231.481 161.97L229.371 162L223.901 160.22Z" fill="#CCCCCC" stroke="white" stroke-width="0.5"/>
<path d="M199.71 115.72L199.65 115.32L199.2 115L198.68 114.85L198.3 115.17L198.26 115.57L198.45 115.78L198.66 115.82L199.07 115.81L199.38 115.9L199.71 115.72ZM121.67 107.19L120.78 106.82L120.42 107.22L119.56 107.01L118.65 107.09V107.29L118.29 114.27L117.72 115.45L117.07 116L116.29 116.05L115.47 115.95L114 115.6L104.32 111.69L102.74 110.69L101.96 110.3L101.27 110.1H100.62L99.9402 110.29L98.5602 111.03L97.8302 111.32L96.3902 111.67L95.7002 112.2L95.1102 113.07L94.3202 114.86L93.4302 116.47L93.2502 116.98L93.1602 117.8L93.3702 121.72L93.1802 123.87L93.2702 126.28L93.3902 126.92L93.7802 127.84L94.1902 129.33L94.4002 129.76L94.8302 130.37L94.9702 130.9L95.0702 132.15L94.8302 134.19L94.0702 136.2L92.5102 137.38L90.7902 138.41L89.8102 141L89.7902 141.82L89.4702 142.66L88.4102 144.62L85.5002 145.32L53.3202 145.84L52.4502 145.81L52.0202 145.62L50.5802 146.35L50.2802 145.95L50.5302 145.4L51.3002 144.54L50.5602 143.8L49.6002 143.51L48.8602 143.11L48.7702 142.01L47.7902 142.25L47.5702 142.17L46.7702 142.34L46.3102 142.47L27.7602 155.04L26.6002 156.57L26.2402 158.92L26.3802 167.76L26.7802 170.26L27.9402 172.47L30.8602 173.4L34.6502 173.81L71.7002 174.08L77.1102 177.23L78.4202 192.61L86.1202 192.88L89.2702 193.49L94.8802 193.7L97.1202 193.41L98.0302 193.44L98.7702 193.55L101.64 195.36L108.91 197.53L114.23 198.24L117.53 198.13L123.77 196.64L165.31 193.29L167.56 193.07L169.45 192.53L190.51 176.76L196.74 166.76L197.65 141.22L197.7 141.11L197.23 140.85L196.43 140.24L196.09 139.66V135.14L195.86 134.09L195.41 133.19L194.81 132.39L194.09 131.67L193.31 131.48L190.58 131.36L189.89 131.49L188.1 130.95L185.72 130.64L183.34 130.66L181.56 131.13L181.7 131.67L181.45 132.39L180.99 133.11L180.49 133.66L180.29 133.97V134.19L180.16 134.33L179.58 134.38L179.16 134.23L178.9 133.87L178.5 133.1L177.73 132.74L176.42 133.45L175.6 133.1L175.03 132.68L174.52 132.43L174.04 132.11L173.64 131.49L174.26 131.55L174.85 131.46L175.35 131.2L175.79 130.77L174.46 130.75L173.86 130.85L173.3 130.77L169.86 131L168.11 130.9L166.75 130.38L164.18 126.63L162.94 126.04L162.16 125.85L159.98 124.87L159.32 124.39L157.36 121.3L156.54 120.91L155.53 120.69L153.65 120.53L152.93 120.27L152.39 119.81L151.9 119.14L152.31 118.49L152.19 118.16L151.84 118.04L151.54 118.02L150.77 118.57L150.3 118.79L150.09 118.58L148.53 118.08L148.09 117.86L147.66 117.58L146.83 117.24L146.48 116.97L146.26 116.61L145.73 115.13L142.69 112.09L141.77 111.47L139.39 110.66L128.12 108.67L127.47 108.63L126.8 108.46L125.81 107.71L125.31 107.55L121.67 107.19ZM145.06 108.44L145.86 107.86L145.52 106.86L144.2 105.88L142.82 105.17L141.77 105.03L141.4 105.36L141.34 105.95L141.01 106.32L140.94 106.8L141.78 107.51L142.36 107.77L142.69 107.86L144.18 108.45L145.06 108.44ZM174.08 100.58L173.37 99.8L172.03 98.38L170.85 98.86L170.22 99.8L171.25 101.06L173.05 101.53L174.08 100.58Z" fill="#CCCCCC" stroke="white" stroke-width="0.5"/>
<path d="M180.031 208.24L178.521 206.92L177.651 206.49L177.131 206.33L176.861 206.13L176.671 205.89L176.581 205.62L176.451 204.63L176.161 203.69L175.731 203.21L175.571 202.86L175.521 202.51L175.531 202.17L175.461 201.67L175.331 201.39L175.161 201.21L174.051 200.32L173.861 200.21L173.621 200.17L172.701 200.15L172.411 200.09L171.601 199.83L169.901 198.77L166.681 196.15L166.021 195.5L165.671 194.99L165.571 194.75L165.441 194.31L165.311 193.29L123.771 196.64L117.531 198.13L114.231 198.24L108.911 197.53L101.641 195.36L102.991 221.12L108.561 228.3L123.731 233.78L127.261 235.56L132.691 240.47L137.491 243.89L140.171 245.11L141.681 245.39L144.001 244.96L148.391 243.72L151.111 243.24L153.401 243.39L156.661 244L156.461 243.39L156.141 242.77L154.991 241.14L154.821 240.74L154.931 240.35L155.521 239.92L158.351 238.53L165.791 235.88L169.691 233.59L171.371 232.24L172.041 231.25L172.561 230.04L173.081 227.71L173.191 226.5L173.141 225.57L172.781 224.41L169.501 217.87V217.1L169.971 216.44L175.471 213.49L176.581 213.22L177.571 212.83L178.351 212.06L178.931 210.52L180.031 208.24Z" fill="#CCCCCC" stroke="white" stroke-width="0.5"/>
</svg>
