<svg width="614" height="578" viewBox="0 0 614 578" fill="none" xmlns="http://www.w3.org/2000/svg">
<path d="M52.9295 353.21L55.2895 353.28L55.5795 350.39L59.1795 349.99L59.9895 347.04L65.9395 343.45L74.8995 348.82L75.5595 342.86L77.7895 342.92L77.1295 339.84L78.8095 337.05L84.1295 338.66L84.4595 337.32L90.8295 342.94L91.2495 345.21L98.0895 338.24L98.3495 334.74L104.76 332.77L106.83 324.45L104.6 323.34L107.56 321.21L107.69 318.22L114.4 315.91L113.64 313.6L116.12 312.87L113.59 311.67L114.81 310.12L117.48 310.2L117.84 312.33L123.71 314.55L126.4 314.01L125.44 319.25L128.76 319.04L132.25 324.05L138.1 318.62L138.72 314.68L141.28 312.05L149.01 312.13L153.87 315.45L156.07 319.67L154.58 324.34L162.41 325.59L164.31 330.15L174.41 335.53L180.33 335.48L180.6 333.45L183.24 332.58L189.15 333.37L189.83 327.29L194.85 325.65L205.26 327.62L210.61 331.76V332.56L212.05 336.23L207.92 339.45L210.1 349.36L222.04 348.32L220.25 355.06L222.47 356.26L222.27 364.7L225.52 369.97L217.52 372.98L213.76 370.21L213.16 372.3L209.97 373.68L212.12 380.62L208.37 382.81L208.09 387.38L209.7 389.46L206.61 389.74L207.95 391.38L202.93 391.77L202.71 397.3L199.12 395.82L198.15 398.24L200.89 399.33L200.09 401.97L196.69 403.11L197.85 409.34L194.03 408.36L192.16 410.6L194.48 413.12L190.22 416.16L192.43 418.43L191.03 419.28L191.62 425.22L184 426.37L180.51 432.59L179.73 439.82L173.67 438.32L173.39 438.51L171.21 441.71L168.07 445.53L171.16 447.28L173.47 454.33L176.88 455.58L178.39 462.52L176.62 463.75L175.25 461.04L173.94 463.17L170.53 463.1L169.53 465.32L167.24 464.65L163.49 470.5L157.78 474.9L151.15 470.7L149.7 463.29L142.21 453.8L138.99 453.05L137.64 448.24L134.2 447.91L132.66 449.42L127.56 443.2L134.67 436.07L137.59 436.56L140.03 434L140.26 430.12L142.69 429.15L136.47 421.15L129.86 420.27L128.89 423.82L126.97 424.47L121.82 421.07L117.06 427.25L114.75 425.84L116.9 424.24L114.97 419.04L107.1 419.98L104.3 412.22L97.6095 413.97L91.4295 410.19L86.5295 410.07L81.3095 407.15L77.3595 410.1L76.9395 404.47L71.4595 399.26L71.2895 390.64L69.0995 388.74L64.9995 389.96L64.8595 386.7L62.4395 389.59L58.2795 386.42L53.6395 387.57L52.6095 389.55L55.8795 391.8L53.8995 396.07L54.6495 401.48L43.7695 401.08L52.3295 383.63L56.9295 364.83L56.6295 360.13L52.9295 353.21Z" fill="#CCCCCC" stroke="white" stroke-width="0.5"/>
<path d="M200.531 140.83L202.361 131.26L207.821 127.21L208.671 130.85L211.701 131.53L213.751 129.66L217.651 132.3L216.731 129.36L220.651 129.17L219.641 126.19L221.971 120.22L226.441 120.66L230.941 118.1L228.991 112.95L234.291 113.47L237.871 116.87L242.111 110.79L244.461 113.28L246.891 112.43L247.971 114.85L249.901 113.58V114.67L254.071 114.81L253.821 119.18L265.791 120.71L266.511 119.05L269.251 118.86L269.001 121.32L271.401 123.93L273.311 123.49L272.811 121.63L275.991 122.02L277.541 119.8L282.261 120.95L284.591 119.33L282.771 125.16L284.611 129L292.971 130.09L292.801 131.91L298.281 129.99L307.501 131.19L310.921 132.72L311.201 138.52L315.391 149.4L317.291 150.77L318.121 148.67L322.421 148.28L326.261 151.54L326.101 153.36L330.031 152.59L331.461 156.3L340.591 155.53L343.291 163.19L340.521 164.57L340.811 166.98L343.971 167.72L344.061 170.12H343.741L345.221 175.33L341.001 178.45L340.551 178.3L339.441 179.99L337.551 179.45L338.621 186.91L340.891 188.61L339.281 192.03L340.291 195.22L332.641 191.74L333.991 194.78L331.021 197.21L325.901 196.22L330.031 204.76L327.541 204.55L324.631 209.4L329.521 214.06L329.061 216.08L330.671 216.01L329.191 217.77L330.801 220.44L325.651 218.65L326.231 223.74L324.061 223.91L321.201 228.51L324.411 231.05L320.931 234.22L320.121 234.23L320.081 238.4L318.381 238.16L322.791 239.91L318.091 246.26L314.941 246.28L316.451 248L316.801 248.57L316.441 251.26L311.561 254.49L312.191 256.73L310.961 255.03L301.571 257.7L296.861 255.36L297.241 253.45L293.971 250.99L293.391 254.35L283.751 257.67L281.381 251.25L279.191 251.03L279.411 248.19L277.801 248.82L277.301 245.99L273.871 244.24L271.881 244.79L269.611 241.2L267.591 240.65L265.981 243.45L261.361 244.07L260.121 236.81L253.601 242.92L250.151 242.73L249.661 240.55L243.331 239.08L243.521 235.72L236.951 236.66L237.431 233.19L236.111 234.28L234.141 231.33L232.951 232.34L230.101 226.72L227.801 227.27L225.021 225.11L223.641 227.43L223.231 225.13L218.071 230.75L218.241 225.99L215.101 225.56L215.191 219.93L211.961 220.36L208.561 223.61L205.381 222.75L206.341 218.03L201.291 215.23L201.621 212.31L207.401 211.99L208.301 197.93L200.821 192.36L196.011 193.27L195.111 191.09L196.591 188.93L196.891 188.87L196.451 182.95L198.801 181.51L198.151 177.55L200.541 176.35L197.321 175.04L197.961 170.35L196.321 168.87L201.831 167.61L203.311 163.52L197.271 155.45L193.781 154.28L192.881 155.72L191.691 152.26L200.531 140.83Z" fill="#CCCCCC" stroke="white" stroke-width="0.5"/>
<path d="M316.439 251.26L320.379 255.98L327.029 255.16L329.899 256.68L329.669 258.49L336.979 261.41L339.529 264.88L342.079 262.89L344.939 264.21L348.629 262.16L351.399 262.63L353.959 259.46L358.089 262.07L358.659 264.59L361.839 263.37L365.099 266.68L364.609 271.5L366.869 275.34L370.469 275.49L372.099 278.3L376.709 279.65L375.949 284.36L372.519 287.09L375.859 288.81L377.119 291.65L377.419 293.34L374.499 296.2L378.769 296.12L379.239 298.54L386.049 295.66L389.569 297.99L390.659 300.91L394.359 301.1L397.579 308.41L393.769 308.74L395.219 309.44L395.339 315.59L399.939 317.82L399.949 320.64L397.639 324.52L391.459 323.2L388.229 320.34L383.609 324.12L386.219 332.62L388.359 334.19L387.289 339.41L392.289 338.52L392.819 340.7L390.359 346.75L386.349 350.92L385.929 354.46L385.069 357.47L382.449 358.44L383.739 362.43L382.369 365.62L379.989 363.61L378.269 365.24L375.589 363.49L374.499 363.83L375.869 367.83L374.429 368.82L370.729 368.47L369.139 370.19L363.019 367.75L360.149 368.99L361.459 372.05L358.939 374.37L359.039 380.46L363.709 381.92L361.919 391.15L357.719 388.98L352.469 382.84L349.569 389.91L350.449 394.25V395.22L349.599 396.62L349.509 396.61L348.479 397.69L348.009 398.04L346.969 398.16L347.049 398.4L344.609 401.76L340.039 402.85L339.669 399.85L334.809 397.34L329.229 399.32L328.129 394.1L324.069 388.18L322.779 387.34L320.379 389.25L317.949 386.28L318.469 384.06L314.579 385.34L314.989 388.07L312.299 389.71L308.669 386.77L306.939 387.54L304.879 384.3L302.859 384.88L295.689 378.71L293.709 379.04L291.529 382.76L289.969 381.19L278.309 383.27L273.309 380.42L271.159 374.96L269.419 375.19L267.579 379.72L266.089 376.94L256.349 375.51L247.459 371.58L248.929 362.15L244.649 362.72L242.789 353.97L245.549 353.46L246.629 350.68L250.059 350.3L250.829 347.38L249.389 345.41L252.189 344.62L257.599 347.78L260.949 342.27L259.489 336.59L260.739 330.57L258.979 329.89L261.009 324.94L259.299 324.2L262.829 319.7L262.399 315.7L264.029 314.03L262.869 311.49L264.759 310.2L264.469 308.05L266.379 308.51L266.569 305.45L268.409 304.84L269.169 307.07L273.999 305.9L279.699 308.04L280.259 304.06L285.939 297.35L281.879 293.6L281.059 284.03L282.979 282.85L288.169 284.62L289.039 281.92L294.309 281.79L295.319 277.9L293.149 275.9L294.359 270.18L298.319 268.6L304.159 270.23L303.099 268.11L305.129 266.74L304.839 264.3L300.579 263.75L301.569 257.7L310.959 255.03L312.189 256.73L311.559 254.49L316.439 251.26Z" fill="#CCCCCC" stroke="white" stroke-width="0.5"/>
<path d="M551.021 262.42L553.881 262.59L555.341 263.38L555.441 268.28L566.971 270.83L568.801 273.61L573.471 272.94L572.641 275.59L576.361 279.79L579.411 279.1L582.681 282.76L582.081 284.98L584.891 291.57L581.111 295.78L582.261 297.35L580.241 298.96L581.831 301.35L581.351 303.36L579.891 302.94L579.611 306.46L581.951 310.43L575.121 317.43L577.011 320.42L575.721 325.78L577.411 336.51L580.101 337.08L580.791 340.18L583.411 340.96L582.611 345.16L585.841 347.76L584.761 352.72L581.871 356.19L582.421 360.2H585.541L588.141 367.78L596.131 373.9L595.361 378.86L598.531 381.36L600.081 387.09L598.761 387.5L601.411 389.47L602.261 393.23L607.321 398.96L612.991 401.2L610.551 404L604.291 403.84L601.761 406.46L602.131 410.21L605.501 411.13L605.151 415.17L608.461 415.51L607.951 419.48L609.971 423.59L609.611 430.71L606.101 441.89L603.871 445.14L587.381 447.39L584.771 452.81L576.051 460.67L573.911 459.48L574.541 456.21L567.671 455.4L569.371 451.13H568.931L565.971 449.12L566.521 445.61L564.781 445.07L558.211 450.12L554.021 446.51L544.041 456.89L519.011 454.9L519.041 453.03L523.741 450.43L512.741 451.55L508.591 446.23L506.361 446.61L507.001 444.01L509.891 442.9L509.061 440.31L515.141 441.14L517.741 438.68L513.891 438.22L516.931 437.19L516.551 435.8L513.731 435.92L514.261 429.3L510.891 427.84L507.951 428.82L503.711 425.1L498.211 424.62L495.251 420.44L490.991 420.25L495.131 411.67L492.851 407.5L486.441 405.61L483.131 409L476.431 410.1L473.831 406.9L472.241 403.97L470.081 382.04L469.241 376.52L470.861 373.42L468.981 369.52L472.131 360.36L469.321 360.02L471.121 359.2L472.831 354.11L471.621 351.51L470.041 352.08L467.201 349.62L469.801 347.01L472.041 348.02L474.071 342.39L470.791 333.61L464.271 333.73L458.441 328.38L460.331 324.29L466.571 328.99L467.261 326.15L472.421 325.6L472.401 322.98L476.091 320.79L476.391 318.71L472.691 315.07L479.541 310.47L477.581 306.44L473.621 307.6L472.801 305.69L476.431 301.63L474.481 296.39L475.301 292.44L484.461 287.11L489.781 289.22L491.311 286.74L498.201 288.41L501.031 285.61L503.071 289L507.661 288.3L512.291 283.45L519.901 289.23L522.741 284.57L521.461 281.86L524.911 278.56L530.841 282.99L533.221 281.68L537.281 283.32L537.721 279.22L541.121 279.19L539.551 276.26L542.581 272.85L547.981 273.23L545.341 268.97L551.021 262.42Z" fill="#CCCCCC" stroke="white" stroke-width="0.5"/>
<path d="M30.1616 230.35L30.0916 226.76L32.1816 224.99L36.8916 227.55L39.1616 226.12L42.4116 214.59L46.3916 211.39L45.6016 208.38L49.4916 207.17L47.4416 205.26L49.4716 202.51L54.7516 206.88L57.3116 205.08L59.5216 207.61L74.4716 201.23L72.3116 194.75L76.8616 195.76L80.1916 191.97L88.3716 189.15L94.0716 192.33L96.7016 190.11L99.1116 191.33L101.402 190.05L100.422 187.97L103.672 186.66L101.992 184.51L104.502 184L103.972 182.04L107.062 180.67L106.642 178.31L114.762 180.25L113.262 186.59L112.662 190.75V191.09L113.132 194.17L113.302 194.29L114.092 205.03L109.822 207.09L109.002 209.56L111.602 210.69L112.242 217.88L103.572 219.9L104.732 223.3L102.482 230.05L106.752 236.19L105.322 238.67L108.532 241.87L109.562 246.22L106.462 248.21L105.072 245.5L104.292 247.25L109.842 252.03L106.882 264.87L108.412 276.41L106.562 279.82L110.832 284.3L112.112 282.59L114.362 283.63L114.892 285.9L113.062 288.46L116.712 293.3L123.122 291.45L124.002 298.13L121.792 301.25L125.472 301.45L127.862 303.61L130.612 300.1L133.612 300.9L139.072 305.5L141.282 312.05L138.722 314.68L138.102 318.62L132.252 324.05L128.762 319.04L125.442 319.25L126.402 314.01L123.712 314.55L117.842 312.33L117.482 310.2L114.812 310.12L113.592 311.67L116.122 312.87L113.642 313.6L114.402 315.91L107.692 318.22L107.562 321.21L104.602 323.34L106.832 324.45L104.762 332.77L98.3516 334.74L98.0916 338.24L91.2516 345.21L90.8316 342.94L84.4616 337.32L84.1316 338.66L78.8116 337.05L77.1316 339.84L77.7916 342.92L75.5616 342.86L74.9016 348.82L65.9416 343.45L59.9916 347.04L59.1816 349.99L55.5816 350.39L55.2916 353.28L52.9316 353.21L51.5716 342.88L38.0516 336.91L36.9316 333.84L40.1916 329.44L39.7316 324.26L34.3416 317.81L32.9416 310.95L29.5916 308.43L30.7516 305.04L35.9116 300.49L37.0916 290.48L39.8216 284.38L35.1016 279.23L37.0616 267.29L29.6516 263.56L26.1016 251.5L27.0116 247.67L32.2716 241.53L30.3616 237.65L32.4416 233.8L30.1616 230.35Z" fill="#CCCCCC" stroke="white" stroke-width="0.5"/>
<path d="M356.72 436.23L359.04 434.84L376.42 439.63L376.45 443.02L380.53 449.5L377.85 450.69L378.03 453.24L382.26 456.31L380.69 458.33L384.14 461.6L382.77 464.16L384.97 464.42L385.25 466.08L401.15 464.2L407.98 456.81L410.8 458.35L414.33 455.19L424.38 454.17L429.03 450.53L431.6 452.88L433.58 450.51L434.18 454.37L429.73 459.58L431.61 463.96L430.13 470.49L432.09 471.04L430.32 471.45L432.87 472.12L433.46 474.86L431.46 475.33L432.69 476.86L430.38 478.58L432.89 481.22L430.3 485.4L432.25 490.79L438.01 491.22L439 493.24L438.2 494.8L435.14 494.63L434.97 497.77L429.35 498.95L431.21 501.29L430.45 504.9L435.9 505.04L437.01 506.99L440.02 507.41L442.51 512.7L443.24 517.66L440.64 522.9L443.58 524.77L442.73 527.14L446.44 531.85L444.61 532.72L445.06 537.62L437.66 535.08L433.64 540.54L428.52 537.47L424.1 538.81L427.25 543.06L423.46 544.06L420.33 549.3L416.61 550.31L415.03 547.57L413.2 548.21L412.61 545.67L410.94 546.92L408.54 546.02L409.29 544.69L406.22 543.49L405.04 539.23L399.41 540.64L397.49 539.04L394.95 542.94L388.58 539.28L386.12 539.13L386.21 541.05L385.31 540.07L383.75 541.58L382.62 539.99L380.31 540.38L379.09 545.94L373.39 545.21L369.68 549.66L368.88 548.61L364.98 561.3L356.49 556.13L353.92 556.55L352.1 559.66L346.97 559.45L345.66 556.09L349.09 552.12L347.41 550.03L347.13 539.85L342.68 542.01L337.33 539.97L337.99 535.37L334.47 535.6L331.13 524.64L327.95 523.02L327.43 520.86L328.26 515.57L322.3 513.14L326.91 508.8L326.24 505.58L318.97 504.41L316.99 496.69L309.6 497.3L311.81 489.51L310.68 488.54L308.45 489.96H307.8L306.72 490H305.97L303.82 488.92L305.71 487.72L305.48 484.41L308.95 478.57L312.83 477.94L311.64 477.07L313.97 471.79H314.3L314.58 473.68L315.64 470.88L319.75 470.3L321.28 468.13L319.96 466.52L324.39 464.82L325.07 462.69L318.87 459.59L317.8 456.55L321.21 453.87L328.81 453.48L329.25 450.48L326.78 448.61L327.1 448.51L329.61 449.09L329.11 446.47L331.19 444.49L335.05 445.58L339.03 444.85L342.17 441.96L350.73 442.49L353.57 441.1L353.65 439.21L358.04 439.07L356.72 436.23Z" fill="#CCCCCC" stroke="white" stroke-width="0.5"/>
<path d="M345.221 175.33L350.391 176.11L349.731 172.12L354.841 169.1L355.121 169.65L354.571 173.1L358.741 175.87L365.981 173.91L368.401 176.14L370.591 175.07L379.111 176.85L383.451 174.28L382.791 169.59L387.631 165.84L393.571 167.96L399.891 165.28L403.651 159.06L411.721 161.08L413.041 158.03L416.221 158.26L415.231 155.47L416.851 154.17L420.661 153.82L424.091 156.74L437.571 146.86L442.911 147.9L448.041 145.78L448.341 143.4L457.331 141.85L457.671 143.35H457.211L459.811 147.34L458.991 149.19L462.511 153.41L460.621 157.05L463.001 156.67L465.711 159.07L461.551 159L461.591 158.59L460.021 161.78L460.981 164.14L458.921 163.77L462.791 168.95L461.661 169.65L463.871 174.08L463.281 176.87L465.591 179.65L470.101 179.1L473.731 184.57L478.171 183.5L477.081 185.09L478.161 186.8L475.591 186.09L474.511 189.71L481.751 194.44H481.231L483.521 196.72L481.401 198.86L484.171 205.23L494.881 204.44L495.141 201.58L498.171 201.71L498.671 205.32L500.571 204.91L499.711 206.75L496.861 206.81L499.081 212.71L501.291 212.5L502.111 214.68L505.391 212.52L505.261 210.9L509.561 211.71L510.121 225.22L505.831 229.71L509.761 232.45L513.981 238.83L513.041 242.8L515.581 244.62L514.901 248.69L517.181 251.7L524.901 251.78L526.291 254.48L527.691 252.6L533.641 255.14L539.841 253.96L542.621 257.74L545.691 258.41L546.211 262.4L549.751 260.77L551.021 262.42L545.341 268.97L547.981 273.23L542.581 272.85L539.551 276.26L541.121 279.19L537.721 279.22L537.281 283.32L533.221 281.68L530.841 282.99L524.911 278.56L521.461 281.86L522.741 284.57L519.901 289.23L512.291 283.45L507.661 288.3L503.071 289L501.031 285.61L498.201 288.41L491.311 286.74L489.781 289.22L484.461 287.11L475.301 292.44L474.481 296.39L476.431 301.63L472.801 305.69L473.621 307.6L477.581 306.44L479.541 310.47L472.691 315.07L476.391 318.71L476.091 320.79L472.401 322.98L472.421 325.6L467.261 326.15L466.571 328.99L460.331 324.29L458.441 328.38L464.271 333.73L470.791 333.61L474.071 342.39L472.041 348.02L469.801 347.01L467.201 349.62L470.041 352.08L471.621 351.51L472.831 354.11L471.121 359.2L469.321 360.02L472.131 360.36L468.981 369.52L470.861 373.42L469.241 376.52L470.081 382.04L466.891 384.88L464.071 384.64L462.071 381.12L458.191 381.28L459.321 382.36L454.051 383.93L451.961 382.99L452.261 384.94L449.121 387.33L444.191 384.61L442.291 380.29L430.131 380.73L430.801 376.04L426.351 373.6L428.101 370.44L425.871 367.77L424.391 373.29L420.711 374.51L419.901 372.44L417.621 374.57L414.461 372.06L414.231 375.53L412.221 374.75L412.151 376.33L403.651 371.87L401.711 374.05L402.421 369.62L396.771 364.73L393.581 365.71L392.671 360.06L390.051 358.2L391.361 355.3L385.931 354.46L386.351 350.92L390.361 346.75L392.821 340.7L392.291 338.52L387.291 339.41L388.361 334.19L386.221 332.62L383.611 324.12L388.231 320.34L391.461 323.2L397.641 324.52L399.951 320.64L399.941 317.82L395.341 315.59L395.221 309.44L393.771 308.74L397.581 308.41L394.361 301.1L390.661 300.91L389.571 297.99L386.051 295.66L379.241 298.54L378.771 296.12L374.501 296.2L377.421 293.34L377.121 291.65L375.861 288.81L372.521 287.09L375.951 284.36L376.711 279.65L372.101 278.3L370.471 275.49L366.871 275.34L364.611 271.5L365.101 266.68L361.841 263.37L358.661 264.59L358.091 262.07L353.961 259.46L351.401 262.63L348.631 262.16L344.941 264.21L342.081 262.89L339.531 264.88L336.981 261.41L329.671 258.49L329.901 256.68L327.031 255.16L320.381 255.98L316.441 251.26L316.801 248.57L316.451 248L314.941 246.28L318.091 246.26L322.791 239.91L318.381 238.16L320.081 238.4L320.121 234.23L320.931 234.22L324.411 231.05L321.201 228.51L324.061 223.91L326.231 223.74L325.651 218.65L330.801 220.44L329.191 217.77L330.671 216.01L329.061 216.08L329.521 214.06L324.631 209.4L327.541 204.55L330.031 204.76L325.901 196.22L331.021 197.21L333.991 194.78L332.641 191.74L340.291 195.22L339.281 192.03L340.891 188.61L338.621 186.91L337.551 179.45L339.441 179.99L340.551 178.3L341.001 178.45L345.221 175.33Z" fill="#CCCCCC" stroke="white" stroke-width="0.5"/>
<path d="M225.521 369.97L228.621 371.53L226.771 376.91L230.741 378.42L247.461 371.58L256.351 375.51L266.091 376.94L267.581 379.72L269.421 375.19L271.161 374.96L273.311 380.42L278.311 383.27L280.141 386.57L277.711 387.81L277.781 390.73L275.451 392.39L277.211 396.13L275.881 401.61L272.611 404.2L271.871 407.27L268.891 408.01L273.201 413.2L267.561 417.4L270.281 424.89L274.391 426.67L274.691 431.95L264.251 432.42L267.101 440.57L260.871 438.21L261.391 442.44L259.931 444.47L261.751 447.34L259.541 450.42L262.471 453.55L261.731 458.17L263.461 458.44L263.751 460.77L259.231 459.79L252.111 463.91L252.531 465.69L252.911 465.66L245.091 467.01L244.431 468.41L243.871 467.04L241.471 467.63L242.131 473.86L239.751 478.1L237.931 480.67L240.371 480.88L240.421 483.84L237.941 482.57L229.691 486.9L227.161 483.28L224.001 482.38L220.461 474.25L216.291 473.75L212.801 469.19L222.901 464.69L223.291 461.87L220.871 459.87L222.541 455.84L220.441 453.8L218.571 453.14L218.631 455.71L214.091 459.01L206.861 458.16L203.481 460.37L200.191 457.4L198.131 459.16L198.001 453.09L193.951 453.92L188.891 449.63L189.051 447.58L185.371 448.04L183.331 445.75L175.061 444.48L171.211 441.71L173.391 438.51L173.671 438.32L179.731 439.82L180.511 432.59L184.001 426.37L191.621 425.22L191.031 419.28L192.431 418.43L190.221 416.16L194.481 413.12L192.161 410.6L194.031 408.36L197.851 409.34L196.691 403.11L200.091 401.97L200.891 399.33L198.151 398.24L199.121 395.82L202.711 397.3L202.931 391.77L207.951 391.38L206.611 389.74L209.701 389.46L208.091 387.38L208.371 382.81L212.121 380.62L209.971 373.68L213.161 372.3L213.761 370.21L217.521 372.98L225.521 369.97Z" fill="#CCCCCC" stroke="white" stroke-width="0.5"/>
<path d="M473.832 406.9L476.432 410.1L483.132 409L486.442 405.61L492.852 407.5L495.132 411.67L490.992 420.25L495.252 420.44L498.212 424.62L503.712 425.1L507.952 428.82L510.892 427.84L514.262 429.3L513.732 435.92L516.552 435.8L516.932 437.19L513.892 438.22L517.742 438.68L515.142 441.14L509.062 440.31L509.892 442.9L507.002 444.01L506.362 446.61L508.592 446.23L512.742 451.55L523.742 450.43L519.042 453.03L519.012 454.9L544.042 456.89L554.022 446.51L558.212 450.12L564.782 445.07L566.522 445.61L565.972 449.12L568.932 451.13H569.372L567.672 455.4L574.542 456.21L573.912 459.48L576.052 460.67L560.032 474.49L521.092 528.51L524.582 531.93L527.562 544.26L527.162 554.9L525.652 556.49L527.602 557.91L525.202 561.66L525.902 562.64L528.132 560.97L527.132 563.19L530.182 563.27L532.642 567.54L536.302 568.97L534.812 571.74L536.292 577.23L533.692 577.71L528.992 572.99L523.602 574.28L517.852 568.97L512.432 569.98L507.742 568.73L504.402 564.53L501.412 565.35L495.762 563.73L495.632 560.9L493.532 561.71L484.932 557.76L483.922 551.95L479.622 545.63L476.012 545.42L472.202 541.6L469.512 542.77L469.062 545.02L464.932 539.59L461.102 539.15L459.482 536.26L449.782 539.47L445.062 537.62L444.612 532.72L446.442 531.85L442.732 527.14L443.582 524.77L440.642 522.9L443.242 517.66L442.512 512.7L440.022 507.41L437.012 506.99L435.902 505.04L430.452 504.9L431.212 501.29L429.352 498.95L434.972 497.77L435.142 494.63L438.202 494.8L439.002 493.24L438.012 491.22L432.252 490.79L430.302 485.4L432.892 481.22L430.382 478.58L432.692 476.86L431.462 475.33L433.462 474.86L432.872 472.12L430.322 471.45L432.092 471.04L430.132 470.49L431.612 463.96L429.732 459.58L434.182 454.37L433.582 450.51L433.832 450.48L434.332 450.12L439.972 444.05L448.102 440.75L448.262 437.43L457.422 434.96L461.932 426.3L467.022 422.11L468.932 423.15L473.832 406.9Z" fill="#CCCCCC" stroke="white" stroke-width="0.5"/>
<path d="M534.711 45.88L543.511 48.58L542.501 50.73L546.561 52.62L545.441 55.51L548.421 57.32L551.691 55.64L557.191 61.37L563.481 62.36L572.591 72.68L575.131 81.71L574.931 85.28L572.311 88.58L574.381 92.81L574.881 102.73L576.591 103.84L576.391 112.29L578.421 115.01L583.171 137.83L591.711 163.2L598.881 174.89L596.101 182.63L600.621 194.96L598.801 197.08L600.141 219.74L587.721 230.34L581.841 230.37L571.731 235.7L564.751 243.97L553.881 262.59L551.021 262.42L549.751 260.77L546.211 262.4L545.691 258.41L542.621 257.74L539.841 253.96L533.641 255.14L527.691 252.6L526.291 254.48L524.901 251.78L517.181 251.7L514.901 248.69L515.581 244.62L513.041 242.8L513.981 238.83L509.761 232.45L505.831 229.71L510.121 225.22L509.561 211.71L505.261 210.9L505.391 212.52L502.111 214.68L501.291 212.5L499.081 212.71L496.861 206.81L499.711 206.75L500.571 204.91L498.671 205.32L498.171 201.71L495.141 201.58L494.881 204.44L484.171 205.23L481.401 198.86L483.521 196.72L481.231 194.44H481.751L474.511 189.71L475.591 186.09L478.161 186.8L477.081 185.09L478.171 183.5L473.731 184.57L470.101 179.1L465.591 179.65L463.281 176.87L463.871 174.08L461.661 169.65L462.791 168.95L458.921 163.77L460.981 164.14L460.021 161.78L461.591 158.59L461.551 159L465.711 159.07L463.001 156.67L460.621 157.05L462.511 153.41L458.991 149.19L459.811 147.34L457.211 143.35H457.671L457.331 141.85L458.051 141.89L462.821 140.6L473.441 144.16L477.281 138.97L481.311 137.64L483.631 140.05L503.731 123.83L507.651 121.2L510.591 123.01L510.031 119.71L513.271 119.54L517.571 115.79L518.931 117.52L520.231 113.63L521.291 114.33L522.061 113.93L525.751 111.05L526.661 105.54L530.531 101.02L529.801 95.94L522.861 84.36L519.461 82.22L520.931 77.82L518.331 72.84L515.581 73.33L510.921 67.41L513.561 63.04L520.041 61.02L521.001 59.04L524.661 59.83L529.271 58.07L531.161 52.83L530.021 50.56L532.881 46.14L534.711 45.88Z" fill="#CCCCCC" stroke="white" stroke-width="0.5"/>
<path d="M255.762 1L278.602 14.61L287.872 23.08L287.132 26.66L280.682 16.77L263.462 6.04L261.752 12.21L266.462 15.92L266.362 22.48L269.252 21.6L269.062 24.88L272.312 31.1L271.112 32.48L268.552 31.62L271.832 33.13L272.152 41.18L275.962 45.34L281.952 46.2L279.872 46.84L282.502 49.43L292.472 52.37L295.242 50.29L298.872 52.55L311.542 51.66L324.622 48.54L338.312 41.61L323.832 50.32L312.452 53.47L314.572 55.88L314.772 59.93L318.482 66.52L314.082 70.14L315.392 72.35L312.332 81.13L316.782 83.15L315.642 84.89L316.792 86.74L318.732 85.8L324.032 88.55L322.412 91.63L323.892 94.81L334.962 92.4L331.972 99.93V100.26L327.932 107.36L329.192 108.43L328.122 111.38L325.982 108.17L320.322 106.71L318.112 107.92L317.132 114.54L312.422 119.57L312.262 124.74L309.972 124.89L307.052 128.28L307.502 131.2L298.282 130L292.802 131.93L292.972 130.1L284.612 129.01L282.772 125.17L284.592 119.34L282.262 120.96L277.542 119.82L275.992 122.03L272.802 121.65L273.302 123.5L271.392 123.94L269.002 121.33L269.252 118.87L266.502 119.07L265.792 120.73L253.812 119.2L254.062 114.84L249.902 114.7V113.61L247.972 114.89L246.882 112.47L244.452 113.31L242.112 110.83L237.862 116.91L234.282 113.51L228.982 112.98L230.932 118.13L226.432 120.69L221.962 120.25L219.632 126.22L220.642 129.21L216.722 129.39L217.642 132.33L213.752 129.68L211.702 131.56L208.672 130.87L207.822 127.24L202.362 131.28L200.532 140.85L197.222 139.67L196.982 139.58L195.202 136.91L191.352 136.35L190.032 136.41L186.542 137.11L182.482 135.48L179.852 138.03L176.652 138.05L176.672 134.75L173.562 135.33L170.122 123.72L167.952 114.54L173.222 109.18L168.782 105.88L168.812 102.12L170.152 100.83L174.802 101.56L175.612 98.14L169.152 94.49L169.022 90.85L166.982 88.51L165.442 87.7L164.682 90.27L163.972 90.33L163.622 85.41L164.042 84.9L165.272 80.8L163.382 78.03L164.702 76.24L159.242 66.14L160.202 64.03L167.732 61.18L168.402 58.84L165.332 55.23L164.852 50.27L167.552 49.58L167.132 41.89L165.692 38.56L162.762 37.35L159.952 29.16L170.462 26.45L179.452 18.6L192.522 11.8L234.812 1.59L255.762 1Z" fill="#CCCCCC" stroke="white" stroke-width="0.5"/>
<path d="M278.31 383.27L289.97 381.19L291.53 382.76L293.71 379.04L295.69 378.71L302.86 384.88L304.88 384.3L306.94 387.54L308.67 386.77L312.3 389.71L314.99 388.07L314.58 385.34L318.47 384.06L317.95 386.28L320.38 389.25L322.78 387.34L324.07 388.18L328.13 394.1L329.23 399.32L334.81 397.34L339.67 399.85L340.04 402.85L344.61 401.76L349.89 405.83L349.67 407.27L347.44 406.33L344.76 412.31L341.87 411.53L343.3 415.51L350.44 416.32L352.52 418.05L350.79 419.16L350.95 421.4L355.08 422.03L354.44 425L351.17 425.17L346.82 431.47L353.72 432.9L354.42 435.49L356.72 436.23L358.04 439.07L353.65 439.21L353.57 441.1L350.73 442.49L342.17 441.96L339.03 444.85L335.05 445.58L331.19 444.49L329.11 446.47L329.61 449.09L327.1 448.51L326.78 448.61L329.25 450.48L328.81 453.48L321.21 453.87L317.8 456.55L318.87 459.59L325.07 462.69L324.39 464.82L319.96 466.52L321.28 468.13L319.75 470.3L315.64 470.88L314.58 473.68L314.3 471.79H313.97L311.64 477.07L312.83 477.94L308.95 478.57L305.48 484.41L305.71 487.72L303.82 488.92L305.97 490H306.72L307.8 489.96H308.45L310.68 488.54L311.81 489.51L309.6 497.3L316.99 496.69L318.97 504.41L326.24 505.58L326.91 508.8L322.3 513.14L328.26 515.57L327.43 520.86L321.49 525.02L320.83 527.99L314.8 528.4L312.55 535.63L310.24 537.38L310.61 539.62L306.2 540.46L303.3 539.13L300.92 541.15L297.53 541.19L297.05 531.05L288.76 529.2L290.1 526.71L286.95 514.81L282.95 514.88L280.94 512.19L275.84 510.5L272.49 500.58L274.6 497.41L272.2 495.64L272.62 491.75L267.52 493.39L263.91 490.17L258.03 489.17L259.17 490.51L257.14 492.35L254.59 487.67L250.77 486.96L250.28 484.49L247.06 485.98L244.74 484.83L243.11 480.17L239.75 478.1L242.13 473.86L241.47 467.63L243.87 467.04L244.43 468.41L245.09 467.01L252.91 465.66L252.53 465.69L252.11 463.91L259.23 459.79L263.75 460.77L263.46 458.44L261.73 458.17L262.47 453.55L259.54 450.42L261.75 447.34L259.93 444.47L261.39 442.44L260.87 438.21L267.1 440.57L264.25 432.42L274.69 431.95L274.39 426.67L270.28 424.89L267.56 417.4L273.2 413.2L268.89 408.01L271.87 407.27L272.61 404.2L275.88 401.61L277.21 396.13L275.45 392.39L277.78 390.73L277.71 387.81L280.14 386.57L278.31 383.27Z" fill="#CCCCCC" stroke="white" stroke-width="0.5"/>
<path d="M385.931 354.46L391.361 355.3L390.051 358.2L392.671 360.06L393.581 365.71L396.771 364.73L402.421 369.62L401.711 374.05L403.651 371.87L412.151 376.33L412.221 374.75L414.231 375.53L414.461 372.06L417.621 374.57L419.901 372.44L420.711 374.51L424.391 373.29L425.871 367.77L428.101 370.44L426.351 373.6L430.801 376.04L430.131 380.73L442.291 380.29L444.191 384.61L449.121 387.33L452.261 384.94L451.961 382.99L454.051 383.93L459.321 382.36L458.191 381.28L462.071 381.12L464.071 384.64L466.891 384.88L470.081 382.04L472.241 403.97L473.831 406.9L468.931 423.15L467.021 422.11L461.931 426.3L457.421 434.96L448.261 437.43L448.101 440.75L439.971 444.05L434.331 450.12L433.831 450.48L433.581 450.51L431.601 452.88L429.031 450.53L424.381 454.17L414.331 455.19L410.801 458.35L407.981 456.81L401.151 464.2L385.251 466.08L384.971 464.42L382.771 464.16L384.141 461.6L380.691 458.33L382.261 456.31L378.031 453.24L377.851 450.69L380.531 449.5L376.451 443.02L376.421 439.63L359.041 434.84L356.721 436.23L354.421 435.49L353.721 432.9L346.821 431.47L351.171 425.17L354.441 425L355.081 422.03L350.951 421.4L350.791 419.16L352.521 418.05L350.441 416.32L343.301 415.51L341.871 411.53L344.761 412.31L347.441 406.33L349.671 407.27L349.891 405.83L344.611 401.76L347.051 398.4L346.971 398.16L348.011 398.04L348.481 397.69L349.511 396.61L349.601 396.62L350.451 395.22V394.25L349.571 389.91L352.471 382.84L357.721 388.98L361.921 391.15L363.711 381.92L359.041 380.46L358.941 374.37L361.461 372.05L360.151 368.99L363.021 367.75L369.141 370.19L370.731 368.47L374.431 368.82L375.871 367.83L374.501 363.83L375.591 363.49L378.271 365.24L379.991 363.61L382.371 365.62L383.741 362.43L382.451 358.44L385.071 357.47L385.931 354.46Z" fill="#CCCCCC" stroke="white" stroke-width="0.5"/>
<path d="M350.539 43.09L398.309 50.55L448.159 55.74L530.019 50.56L531.159 52.83L529.269 58.07L524.659 59.83L520.999 59.04L520.039 61.02L513.559 63.04L510.919 67.41L515.579 73.33L518.329 72.84L520.929 77.82L519.459 82.22L522.859 84.36L529.799 95.94L530.529 101.02L526.659 105.54L525.749 111.05L522.059 113.93L521.289 114.33L520.229 113.63L518.929 117.52L517.569 115.79L513.269 119.54L510.029 119.71L510.589 123.01L507.649 121.2L503.729 123.83L483.629 140.05L481.309 137.64L477.279 138.97L473.439 144.16L462.819 140.6L458.049 141.89L457.329 141.85L448.339 143.4L448.039 145.78L442.909 147.9L437.569 146.86L424.089 156.74L420.659 153.82L416.849 154.17L415.229 155.47L416.219 158.26L413.039 158.03L411.719 161.08L403.649 159.06L399.889 165.28L393.569 167.96L387.629 165.84L382.789 169.59L383.449 174.28L379.109 176.85L370.589 175.07L368.399 176.14L365.979 173.91L358.739 175.87L354.569 173.1L355.119 169.65L354.839 169.1L349.729 172.12L350.389 176.11L345.219 175.33L343.739 170.12H344.059L343.969 167.72L340.809 166.98L340.519 164.57L343.289 163.19L340.589 155.53L331.459 156.3L330.029 152.59L326.099 153.36L326.259 151.54L322.419 148.28L318.119 148.67L317.289 150.77L315.389 149.4L311.199 138.52L310.919 132.72L307.499 131.19L307.059 128.26L309.979 124.87L312.269 124.72L312.429 119.55L317.139 114.51L318.129 107.9L320.329 106.69L325.989 108.16L328.129 111.36L329.199 108.41L327.939 107.34L331.979 100.24V99.91L334.959 92.38L323.889 94.79L322.409 91.61L324.029 88.54L318.719 85.79L316.779 86.73L315.629 84.89L316.769 83.15L312.319 81.12L315.379 72.34L314.069 70.14L318.469 66.51L314.769 59.93L321.709 60.96L323.429 59L320.739 65.09L321.789 65.66L323.029 61.11L329.049 55.14L339.739 51.42L344.429 43.43L350.539 43.09Z" fill="#CCCCCC" stroke="white" stroke-width="0.5"/>
<path d="M170.13 123.7L173.56 135.31L176.68 134.72L176.66 138.02L179.86 138L182.49 135.45L186.55 137.08L190.04 136.38L191.36 136.32L195.2 136.89L196.98 139.56L197.22 139.65L200.53 140.83L191.69 152.26L192.88 155.72L193.78 154.28L197.27 155.45L203.31 163.52L201.83 167.61L196.32 168.87L197.96 170.35L197.32 175.04L200.54 176.35L198.15 177.55L198.8 181.51L196.45 182.95L196.89 188.87L196.59 188.93L195.11 191.09L196.01 193.27L200.82 192.36L208.3 197.93L207.4 211.99L201.62 212.31L201.29 215.23L206.34 218.03L205.38 222.75L208.56 223.61L211.96 220.36L215.19 219.93L215.1 225.56L218.24 225.99L218.07 230.75L223.23 225.13L223.64 227.43L225.02 225.11L227.8 227.27L230.1 226.72L232.95 232.34L234.14 231.33L236.11 234.28L237.43 233.19L236.95 236.66L243.52 235.72L243.33 239.08L249.66 240.55L250.15 242.73L253.6 242.92L260.12 236.81L261.36 244.07L265.98 243.45L267.59 240.65L269.61 241.2L271.88 244.79L273.87 244.24L277.3 245.99L277.8 248.82L279.41 248.19L279.19 251.03L281.38 251.25L283.75 257.67L293.39 254.35L293.97 250.99L297.24 253.45L296.86 255.36L301.57 257.7L300.58 263.75L304.84 264.3L305.13 266.74L303.1 268.11L304.16 270.23L298.32 268.6L294.36 270.18L293.15 275.9L295.32 277.9L294.31 281.79L289.04 281.92L288.17 284.62L282.98 282.85L281.06 284.03L281.88 293.6L285.94 297.35L280.26 304.06L279.7 308.04L274 305.9L269.17 307.07L268.41 304.84L266.57 305.45L266.38 308.51L264.47 308.05L264.76 310.2L262.87 311.49L264.03 314.03L262.4 315.7L262.83 319.7L259.3 324.2L261.01 324.94L258.98 329.89L260.74 330.57L259.49 336.59L260.95 342.27L257.6 347.78L252.19 344.62L249.39 345.41L250.83 347.38L250.06 350.3L246.63 350.68L245.55 353.46L242.79 353.97L244.65 362.72L248.93 362.15L247.46 371.58L230.74 378.42L226.77 376.91L228.62 371.53L225.52 369.97L222.27 364.7L222.47 356.26L220.25 355.06L222.04 348.32L210.1 349.36L207.92 339.45L212.05 336.23L210.61 332.56V331.76L205.26 327.62L194.85 325.65L189.83 327.29L189.15 333.37L183.24 332.58L180.6 333.45L180.33 335.48L174.41 335.53L164.31 330.15L162.41 325.59L154.58 324.34L156.07 319.67L153.87 315.45L149.01 312.13L141.28 312.05L139.07 305.5L133.61 300.9L130.61 300.1L127.86 303.61L125.47 301.45L121.79 301.25L124 298.13L123.12 291.45L116.71 293.3L113.06 288.46L114.89 285.9L114.36 283.63L112.11 282.59L110.83 284.3L106.56 279.82L108.41 276.41L106.88 264.87L109.84 252.03L104.29 247.25L105.07 245.5L106.46 248.21L109.56 246.22L108.53 241.87L105.32 238.67L106.75 236.19L102.48 230.05L104.73 223.3L103.57 219.9L112.24 217.88L111.6 210.69L109 209.56L109.82 207.09L114.09 205.03L113.3 194.29L113.13 194.17L112.66 191.09V190.75L113.26 186.59L122.71 189.98L131.74 185.65L134.79 186.44L134.06 185.41L137.63 181.93L136.53 178L139.27 176.97L140.45 172.59L141.74 174.08L144.24 171.29L146.8 172.07L147.91 167.36L149.61 167.84L149.73 166.19L154.5 168.27L153.92 162.82L158.83 158.78L154.3 154.51L149.66 153.24L146.47 150.22L144.63 150.81L142.96 142.32L143.4 141.18L145.63 142.86L155.26 141.25L159.68 137.64L161.57 127.32L165.88 125.12L167.05 126.97L170.13 123.7Z" fill="#CCCCCC" stroke="white" stroke-width="0.5"/>
<path d="M12.44 102.98L17.23 103.54L14.25 105.69L14.27 108.1L10.72 103L12.44 102.98ZM18.34 102.8L18.91 104.14L16.86 105.11L18.34 102.8ZM13.71 101.79L15.43 103.24L12.63 103.22L13.71 101.79ZM15.89 100.53L15.8 102.99L14.58 101.28L15.89 100.53ZM8.71 96.29L10.52 96.12L8.52 98.69L14.12 108.18L6.5 102.08L6.59 98.62L4.81 97.32L8.71 96.29ZM39.68 91.81L39.64 93.28L36.42 93.6L36.85 90.53L39.68 91.81ZM40.3 86.29L35.9 88.95L35.96 94.82L32.22 99.27L29.44 108.86L28.16 103.66L19.55 102.31L20.11 98.31L19.43 100.18L16.91 99.35L11.17 102.82L11.99 101.6L9.14 99.01L10.87 96.41L17.75 96.84L23.87 92.15L40.3 86.29ZM159.95 29.15L162.76 37.34L165.69 38.55L167.13 41.88L167.55 49.57L164.85 50.26L165.33 55.22L168.4 58.83L167.73 61.17L160.2 64.02L159.24 66.13L164.7 76.23L163.38 78.02L165.27 80.79L164.04 84.89L163.62 85.4L163.97 90.32L164.68 90.26L165.44 87.69L166.98 88.5L169.02 90.84L169.15 94.48L175.61 98.13L174.8 101.55L170.15 100.82L168.81 102.11L168.78 105.87L173.22 109.17L167.95 114.53L170.12 123.71L167.04 126.98L165.87 125.13L161.57 127.33L159.67 137.66L155.26 141.26L145.63 142.88L143.4 141.19L142.95 142.34L144.63 150.82L146.47 150.24L149.66 153.25L154.3 154.53L158.82 158.79L153.91 162.83L154.5 168.28L149.73 166.19L149.61 167.84L147.91 167.36L146.79 172.07L144.24 171.3L141.74 174.08L140.45 172.59L139.27 176.98L136.54 178.01L137.64 181.95L134.06 185.43L134.8 186.46L131.74 185.67L122.71 189.99L113.26 186.61L114.76 180.27L106.64 178.33L107.07 180.68L103.98 182.05L104.52 184.02L102 184.53L103.68 186.68L100.43 188L101.42 190.08L99.13 191.37L96.72 190.15L94.08 192.38L88.38 189.19L80.2 192.01L76.87 195.8L72.32 194.79L74.47 201.27L59.53 207.65L57.32 205.12L54.76 206.92L49.48 202.54L47.44 205.29L49.49 207.2L45.61 208.41L46.39 211.42L42.42 214.62L39.17 226.15L36.91 227.59L32.2 225.03L30.11 226.8L30.18 230.39L21.85 224.88L14.98 215.93L6.85 209.31L1 207.08L3.31 202.41L2.31 194.67L14.51 185.46L17.11 176.46L16.48 170.52L20.79 164.07L18.4 159.44L15.09 140.66L12.26 135.32L12.84 127.77L10.84 126.01L9.74 119.5L12.33 118.87L10.94 114.83L13.78 115.73L18.42 121.38L24.27 122.6L30.01 130L31.34 123.82L28.38 123.68L26.43 118.89L28.1 112.69L31.11 112.2L30.55 106.62L33.29 99.08L37.7 94.5L39.85 96.08L40.12 91.33L41.54 90.93L40.2 88.9L42.64 85.21L37.88 85.99L72.53 73.08L85.1 71.02L106.4 63.42L121.55 60.04L131.73 51.91L147.63 32.31L159.95 29.15Z" fill="#CCCCCC" stroke="white" stroke-width="0.5"/>
</svg>
