<svg width="794" height="388" viewBox="0 0 794 388" fill="none" xmlns="http://www.w3.org/2000/svg">
<path d="M715.449 48.89L716.679 48.48L716.819 49.2L718.219 48.91L719.129 47.87L719.549 48.9L720.199 49.12L720.289 48.62L721.079 48.29L720.259 47.9L720.459 47.35L721.389 47.78L721.639 47.32L722.229 48.61L723.519 49.49L723.709 48.59L723.159 48.21L723.219 47.37L724.839 47.86L726.519 46.21L727.469 46.81L728.319 47.15L728.519 48.41L728.199 48.5L728.399 49.06L729.359 49.13L729.079 49.8L729.669 49.63L731.589 50.45L732.679 49L732.929 49.19L732.989 50.08L731.619 51.73L731.769 53.8L732.559 55.1L731.719 55.85L730.529 55.13L729.799 55.96L728.519 55.19L727.759 55.56L728.329 56.83L727.199 59.68L725.319 60.39L725.509 61.58L726.429 62.33L726.509 64.74L728.059 65.52L726.069 66.35L726.809 68.73L727.909 69.89L725.209 70.93L725.779 72.78L724.599 74.12L724.559 75.84L724.509 76.66L723.959 76.91L723.019 76.47L722.879 77.63L721.639 77.89L721.459 79.47L720.389 78.93L719.269 79L719.069 77.96L720.489 77.97L720.609 75.07L719.869 74.48V73.56L717.729 74.47L717.659 71.8L717.369 71.21L716.389 70.94L715.859 71.76L715.749 73.39L714.869 73.3L713.639 72.03L711.039 69.5L712.049 65.28L712.119 64.54L711.679 64.4L714.259 55.81L715.449 48.89Z" fill="#CCCCCC" stroke="white" stroke-width="0.5"/>
<path d="M730.62 159.08L731.01 158.7L731.67 159.36L734.07 158.74L735.51 159.9L736.4 159.15L740.9 161.81L743.42 162.02L746.25 163.87L747.34 163.5L748.78 163.73L749.48 164.33L751.67 164.34L751.73 163.61L752.74 163.2L753.56 162.16L753.74 161.46L754.47 161.19L754.86 160.27L754.55 159.94L756.16 159.9L756.75 159.04L758.32 158.63L759.68 161.35L761.39 162.02L761.11 162.92L762.35 165.49L762.65 165.61L762.59 164.94L763.28 165.02L763.99 164.36L764.73 165.11L765.3 164.42L765.52 164.77L766.49 164.58L767.04 163.7L768.01 163.43L768.28 163.8L769.42 163.08L769.48 163.81L768.37 165.23L768.9 165.78L768.32 167.46L767.78 167.8L767.33 170.98L765.92 171.31L764.28 170.13L763.34 170.7L763.58 171.69L761.92 172.16L761.01 171.74L759.1 172.68L759.55 173.68L759.34 174.96L758.48 175.96L758.44 177.1L757.15 179.22L754.87 181.28L754.09 181.48L753.25 183.93L753.39 185.23L753 185.33L753.04 185.95L752.64 185.83L751.96 187.64L751.48 187.6L751.39 189.51L750.89 189.55L751.21 190.72L749.26 190.61L747.87 192.08L746.06 191.53L743.59 192.56L743.23 192.25L743.29 192.59L741.74 193.51L741.41 193.26L741.09 193.81L740.46 193.78L740.36 194.24L739.24 194.35L739.26 195.12L738.9 195.03L738.73 195.55L738.2 195.18L737.72 195.58L736.38 195.45L735.6 196.62L736.11 197.19L734.95 197.51L733.74 198.93L729.86 198.03L727.96 196.32L727.13 196.24L727.45 195.42L727.05 194.73L725.71 194.19L725.42 194.8L725.18 194.42L722.61 194.96L722.49 195.96L721.57 196.65L719.55 196.57L717.81 195.28L716.36 195.65L715.62 196.69L714.84 195.69L712.65 195.91L712.14 194.46L710.67 194.02L711 190.46L709.93 187.82L710.99 183.27L710.15 181.88L710.77 179.07L711.3 179.65L712.59 179.26L714.23 181.7L714.94 181.1L716.32 181.86L716.65 181.43L717.27 181.56L717.38 179.87L717.93 179.1L718.47 179.21L718.4 177.96L718.84 177.72L721.9 177.45L722.09 177.02L725.37 177.97L725.23 177.2L726.36 175.9L726.05 175.4L726.54 172.14L725.74 170.83L724.32 171L722.88 168.97L723.54 167.28L724.34 167.73L724.58 166.34L725.13 166.24L725.28 165.67L726 166.36L726.62 166.32L726.83 164.42L728.24 164.71L728.85 163.78L731.71 162.92L731.72 161.23L730.62 159.08Z" fill="#CCCCCC" stroke="white" stroke-width="0.5"/>
<path d="M734.198 15.18L733.858 17.66L733.028 19.68L732.038 20.67L734.638 20.18L736.158 20.85L735.898 24.28L739.558 24.93L740.518 23.79L741.788 25.55L741.478 26.27L740.888 26.39L740.958 27.1L740.108 27.6L740.188 28.13L739.178 28.06L738.888 29.08L737.768 29.56L737.668 31.54L736.408 33.04L736.838 33.16L736.628 33.87L736.168 35.04L734.838 36.23L733.748 35.21L733.078 35.79L732.028 35.21L731.188 34.49L731.398 33.76L730.798 33.62L730.578 32.81L729.068 32.33L728.788 33.1L728.038 33.07L727.038 34.11L726.738 35.3L725.818 34.87L725.518 33.8L723.368 34.43L723.678 33.63L723.198 33.49L722.188 34.38L721.418 33.85L719.978 34.15L719.438 35.1L716.528 35.3L716.128 33.55L716.538 33.19L717.158 32.82L716.698 32.3L715.278 32L714.658 30.93L713.678 31.06L712.258 29.95L711.328 29.84L710.238 23.91L711.908 23.82L713.808 22.71L714.838 22.64L715.248 23.11L715.498 22.13L716.728 22.98L717.578 22.62L718.038 23.43L718.738 23.11L718.528 21.76L719.338 21.08L719.438 19.12L719.968 18.59L720.428 18.54L720.468 19.07L721.238 18.85L722.408 17.8L723.968 17.25L724.738 17.69L726.128 17.63L726.518 16.8L727.228 17.21L729.618 15.47L730.528 15.68L730.598 15.23L732.848 15.66L734.198 15.18Z" fill="#CCCCCC" stroke="white" stroke-width="0.5"/>
<path d="M773.71 8L774.7 8.22L775.27 9.92999L776.03 10.21L779.35 10.09L780.4 8.92L781.62 9.89L780.94 12.47L782.69 12.97L781.81 16.91L781.01 18.38L781.42 18.64L781.87 21.04L783.2 22.02L784.53 21.62L784.94 20.85L789.43 21.82L790.94 23.04L791.53 24.13L792.61 24.65L793 25.49L791.49 27.73L790.83 28.04L791.05 28.62L790.58 28.7L790.71 29.19L790 29.51L789.33 30.74L789.5 31.62L788.45 32.39L788.94 33.43L787.84 33.74L787.4 33.1L786.67 33.47L786.55 34.09L787.07 34.53L785.86 35.01L785.15 36.8L783.6 37.38L783.87 38.03L783.3 38.44L782.47 38.04L780.93 39.57L780.29 38.89L780.03 39.38L778.5 39.21L777.14 40.8L776.58 42.35L774.72 43.93L775.16 45.21L773.43 48.03L771.55 48.43L770.04 47.95L769.56 48.33L768.37 48.04L767.65 48.51L767.46 48.02L766.02 47.71L765.55 46.93L764.18 46.2L764.16 45.19L764.75 44.3L763.28 43.81L763.77 43.26L763.69 42.07L762.22 44.29L759.51 43.5L757.78 43.73L756.1 43.38L755.06 41.4L753.75 40.75L754.31 39.18L755.16 39.34L755.03 37.61L755.96 36.85L755.54 36.41L756.15 35.71L757.46 35.41L755.98 34.3L756.26 33.81L755.81 32.19L755.86 31.13L757.97 30.12L757.87 29.15L758.43 27.97L760.16 27.67L759.23 25.97L759.22 24.79L760.8 19.7L761.96 18.33L761.99 17.27L761.27 16.75L760.75 15.41L761.06 12.64L761.92 10.97L761.41 10.02L761.54 8.72L762.93 7.94L764.63 8.67L765.12 9.67L767.2 9.64L768.05 8.64999L768.73 8.86L769.15 9.89L770.8 10.09L773.03 9.83L773.35 7.86L773.71 8Z" fill="#CCCCCC" stroke="white" stroke-width="0.5"/>
<path d="M742.689 81.47L744.219 81.18L744.979 80.19L746.679 79.66L747.849 78.59L748.169 77.6L749.039 78.11L750.429 77.84L751.129 75.74L752.009 74.66L752.809 74.37L753.269 74.99L753.949 74.78L754.939 75.24L756.039 74.76L756.499 75.2L757.049 74L757.709 74.31L758.139 73.78L758.849 74.12L758.749 76.62L757.709 78.41L756.889 78.83L757.319 79.37L759.809 80.29L760.679 79.15L762.299 79.87L763.099 79.28L763.269 78.07L763.859 77.56L764.749 79.46L766.419 79.47L766.949 78.98L768.929 80.33L768.549 81.12L766.989 81.65L766.449 83.26L766.869 83.67L766.719 85.01L767.609 86.3H769.259L770.009 88.21L770.789 88.45L771.689 90.43L770.969 91.77L771.029 93.36L770.339 94.05L770.439 96.23L769.019 98L767.799 98.71L768.129 100.25L766.899 104.42L762.609 105.13L759.449 104.57L756.859 105.63L753.009 104.75L750.289 104.7L748.999 104.95L747.259 106.37L746.179 105.3L745.179 105.81L744.579 107.58L743.549 107.78L743.079 108.76L741.339 109.86L741.799 108.51L741.419 107.75L740.089 105.74L739.219 105.53L738.509 104.5L737.149 104.79L737.279 102.53L736.759 101.36L736.119 102.05L735.609 101.43L734.639 101.26L734.089 101.75L733.979 104.36L733.379 104.9L734.069 106.59L731.559 106.84L728.349 105.46L728.579 101.04L728.139 99.99L727.429 100.4L726.809 99.33V99.3L726.559 98.77L727.219 98.33L727.119 97.39L728.629 96.83L729.179 97.04L729.929 95.79L730.489 96.04L731.099 95.63L732.059 93.63L732.179 93.03L733.199 93.1L733.089 92.35L733.729 92.79L734.029 92.17L734.769 92.54L734.819 91.55L735.269 92.11L735.649 92.05L735.379 91.36L735.889 91.82L736.529 91.37L736.969 91.86L737.299 90.82L738.909 90.81L738.469 89.58L740.099 88.54L741.339 88.84L741.869 89.46L741.929 88.04L742.239 87.75L741.579 87.78L742.539 87.4L742.969 88.29L743.929 87.14L743.659 86.82L744.279 86.57L744.139 85.81L742.239 84.29L741.839 83.45L742.689 81.47Z" fill="#CCCCCC" stroke="white" stroke-width="0.5"/>
<path d="M711.05 69.47L713.65 72L714.88 73.27L715.76 73.36L715.87 71.73L716.4 70.91L717.37 71.18L717.66 71.77L717.74 74.44L719.87 73.53V74.45L720.61 75.04L720.5 77.94L719.08 77.93L719.28 78.97L720.4 78.9L721.46 79.44L721.64 77.86L722.88 77.59L723.02 76.43L723.96 76.87L724.51 76.62L724.56 75.8L724.98 75.69L725.42 76.32L726.35 76.18L727.89 77.62L729.72 76.79L729.97 77.19L730.42 76.72L731.58 77.21L734.47 75.05L736.64 74.24L739.47 71.43L741.23 70.38L741.27 71.07L742.23 72.08L741.79 72.82L740.61 73.26L740.7 73.87L741.28 74.32L742.22 74.24L741.97 76.54L743.45 77.27L743.22 77.9L741.99 78.26L741.31 79.99L742.69 81.47L741.84 83.45L742.24 84.29L744.14 85.81L744.28 86.57L743.66 86.82L743.93 87.14L742.97 88.29L742.54 87.4L741.58 87.78L742.24 87.75L741.93 88.04L741.87 89.46L741.34 88.84L740.1 88.54L738.47 89.58L738.91 90.81L737.3 90.82L736.97 91.86L736.53 91.37L735.89 91.82L735.38 91.36L735.65 92.05L735.27 92.11L734.82 91.55L734.77 92.54L734.03 92.17L733.73 92.79L733.09 92.35L733.2 93.1L732.18 93.03L732.06 93.63L731.63 93.39L732.34 92.09L730.89 90.02L731.27 87.93L730.16 87.24L729.19 88.78L728.16 88.16L727.1 89.06L726.4 90.54L727.27 91.37L726.99 92.59L725.9 91.39L724.01 94.05L722.9 93.72L723.82 92.75L722.36 89.83L722.02 90.27L722.33 91.02L721.37 90.19L720.32 91.49L719.32 91.56L718.8 93.02L718.07 89.77L717.13 89.79L716.39 91.24L715.51 91.32L715.57 90.47L714.48 89.69L711.61 89.24L710.53 90.41L709.3 89.75L708.38 89.96L707.58 89.1L708.6 85.27L707.09 83.21L709.14 77.31L711.05 69.47Z" fill="#CCCCCC" stroke="white" stroke-width="0.5"/>
<path d="M728.62 132.2L728.91 132.57L730.29 130.85L730.65 131.08L731.01 130.6L731.62 131.2L731.68 130.76L732.53 130.77L732.7 131.17L732.01 131.53L732.56 132.94L733.06 132.65L733.09 131.44L733.59 131.05L735.38 132.44L735.11 134.08L736.23 133.94L738.19 132.71L739.13 134.46L739.7 134.67L739.73 135.39L742.45 135.9L742.59 135.44L743.64 135.4L744.25 134.15L745.35 135.23L745.81 134.54L747.26 135.27L748.31 133.56L749.56 133.61L750.27 132.98L749.93 131.99L750.55 131.35L751.2 132.26L752.07 132.18L751.98 132.68L753.09 133.13L752.67 134.68L754.04 135.59L753.89 136.66L754.62 137.8L754 137.83L754.6 138.28L755.03 139.71L755.76 139.31L756.18 139.86L757.03 139.61L757.11 138.75L757.71 138.54L758.09 138.13L758.56 138.65L759.66 137.84L760.24 138.61L760.84 138.51L760.05 140.47L760.96 141.73L759.19 142.85L758.79 146.28L759.7 146.86L757.46 151.29L757.24 152.72L757.91 152.54L757.96 153.07L756.79 154.43L757.38 154.25L758.56 155.08L758.82 156.08L762.03 160.71L762.64 160.85L763.99 164.36L763.28 165.02L762.59 164.94L762.65 165.61L762.35 165.49L761.11 162.92L761.39 162.02L759.68 161.35L758.32 158.63L756.75 159.04L756.16 159.9L754.55 159.94L754.86 160.27L754.47 161.19L753.74 161.46L753.56 162.16L752.74 163.2L751.73 163.61L751.67 164.34L749.48 164.33L748.78 163.73L747.34 163.5L746.25 163.87L743.42 162.02L740.9 161.81L736.4 159.15L735.51 159.9L734.07 158.74L731.67 159.36L731.01 158.7L730.62 159.08L729.57 158.17L727.31 157.73L727.06 157.01L725.63 156.98L726.85 155.38L726.28 154.89L726.85 154.83L726.61 154.3L725.61 154.39L726.01 153.52L724.16 150.01L722.45 151.01L721.74 150.75L720.78 151.18L719.88 149.94L719.39 150.13L719.83 151.08L719.12 151.4L719 150.72L717.73 150.58L717.65 149.92L715.63 149.86L715.18 147.34L719.99 143.18L719.68 142.36L720.31 141.33L718.55 141.24L720.01 139.47L720.96 139.97L722.23 138.39L722.58 138.25L722.9 138.84L723.89 137.49L725.03 138.2L725.67 137.38L726.02 137.96L726.31 137.03L727.59 138.02L727.38 138.35L727.89 139.02L728.79 138.58L729.58 139.45L729.34 139.8L730.33 139.73L730.2 140.24L731.34 140.86L731.85 139.63L731.06 138.97L730.76 139.5L730.56 138.63L729.89 138.26L730.8 137.09L730.07 136.56L729.25 136.76L729.17 136.35L727.22 135.43L728.15 134.19V132.76L728.62 132.2Z" fill="#CCCCCC" stroke="white" stroke-width="0.5"/>
<path d="M741.33 211.34L741.88 211.44L739.93 212.98L740.38 211.96L741.33 211.34ZM737.63 211.27L739.9 212.95L738.17 212.72L736.49 211.48L737.63 211.27ZM741.55 210.64L741.92 211L740.31 211.47L741.55 210.64ZM728.5 208.24L726.4 208.67L724.27 207.51L722.02 208.15L718.9 206.87L716.35 206.67L714.82 207.31L714.73 208.41L712.86 208.11L710.93 209.04L709.29 209.13L708.54 209.86L707.58 209.84L705.89 211.77L705.39 210.52L704.34 210.63L707.29 204.99L706.82 203.76L707.53 203.36L708.65 200.89L708.09 198.83L709.14 197.6L710.67 194L712.14 194.44L712.65 195.89L714.84 195.67L715.62 196.67L716.36 195.63L717.81 195.26L719.54 196.55L721.56 196.64L722.48 195.95L722.6 194.95L725.17 194.41L725.41 194.79L725.7 194.18L727.03 194.72L727.44 195.41L727.12 196.23L727.95 196.31L729.86 198.02L733.73 198.91L734.94 197.5L736.1 197.17L735.59 196.6L736.37 195.43L737.72 195.56L738.19 195.16L738.72 195.54L738.89 195.02L739.26 195.11L739.24 194.34L740.37 194.23L740.46 193.77L741.1 193.8L741.42 193.25L741.75 193.51L743.3 192.59L743.24 192.25L743.6 192.56L746.08 191.53L747.88 192.09L749.28 190.61L751.23 190.72L751.87 190.88L752.12 191.83L752.76 192.27L752.6 193.01L753.34 194.96L752.8 195.37L753.5 196.08L753.45 199.23L754.1 200.71L753.72 201.65L754.36 202.63L754.55 204.75L752.91 204.53L749.71 205.54L742.34 210.93L741.32 210.45L739.93 211.27L739.94 212.11L739.48 212.26L737.7 211.13L736.37 211.38L732.33 208.76L730.06 207.96L728.5 208.24Z" fill="#CCCCCC" stroke="white" stroke-width="0.5"/>
<path d="M754.198 52.81L755.428 53.66L754.808 54.54L753.798 53.95L754.198 52.81ZM757.778 43.73L759.518 43.5L762.218 44.29L763.688 42.07L763.778 43.26L763.288 43.81L764.748 44.3L764.158 45.19L764.178 46.21L765.548 46.93L766.018 47.71L767.458 48.03L767.648 48.52L768.378 48.05L769.568 48.34L769.878 49.46L771.848 51.66L772.168 53.62L773.438 54.47L773.668 55.37V56L772.878 56.22L773.198 58.02L772.748 59.86L773.918 63.66L772.298 67.61L773.708 68.26L773.888 69.87L772.168 72.35L772.648 74.16L774.338 75.94L773.928 77.43L771.808 78.62L771.508 80.15L768.968 80.35L766.988 79.01L766.468 79.5L764.788 79.49L763.898 77.59L763.298 78.1L763.128 79.31L762.328 79.9L760.718 79.18L759.848 80.32L757.358 79.4L756.928 78.85L757.748 78.43L758.788 76.64L758.888 74.14L758.178 73.81L757.738 74.33L757.078 74.03L756.528 75.22L756.068 74.79L754.968 75.27L753.988 74.8L753.308 75.01L752.858 74.39L752.058 74.68L751.178 75.75L750.478 77.85L749.088 78.12L748.218 77.61L747.908 78.59L746.728 79.67L745.028 80.2L744.268 81.19L742.728 81.48L741.358 80L742.038 78.28L743.268 77.92L743.498 77.29L742.018 76.57L742.268 74.27L741.328 74.35L740.748 73.9L740.648 73.29L741.828 72.86L742.268 72.11L741.308 71.1L741.278 70.41L746.418 67.88L749.088 67.31L748.828 66.81L749.558 64.33L750.308 63.75L750.018 63.02L750.528 62.47L748.768 61.49L748.588 60.87L749.408 60.02L747.598 58.68L748.928 55.72L749.718 54.9L751.208 55.02L753.118 57.39L754.708 54.64L755.448 55.05L755.628 53.23L756.828 52.33L757.178 50.75L755.488 49.95L755.478 49.03L756.788 48.99L756.528 47.65L757.778 43.73Z" fill="#CCCCCC" stroke="white" stroke-width="0.5"/>
<path d="M714.142 108.16L714.622 108.79L713.852 110.06L713.252 110.53L712.642 109.9L712.242 110.2L712.792 112.19L710.482 112.07L707.292 112.76L705.962 115.81L705.242 115.68L704.542 116.4L704.432 119.65L703.422 119.79L703.012 119.1L702.162 119.12L701.982 119.54L700.832 120.49L699.752 122.39L698.642 123.11L697.872 121.64L698.362 120.78L697.942 119.42L696.522 119.32L696.202 118.8L694.902 120.19L693.502 119.85L692.742 117.53L691.352 117.09L691.742 116.65L693.332 116.94L696.662 114.41L697.592 115.17L697.232 115.43L698.482 115.39L697.932 115.32L697.102 113.99L698.872 111.35L699.952 111.2L699.692 110.5L701.882 107.8L701.932 107.21L701.542 107.13L702.682 102.4L707.632 89.11L708.432 89.97L709.352 89.76L710.592 90.42L711.662 89.26L714.532 89.7L715.622 90.48L715.572 91.33L716.452 91.25L717.192 89.8L718.132 89.79L718.852 93.04L719.372 91.58L720.372 91.52L721.422 90.22L722.382 91.05L722.072 90.3L722.412 89.86L723.872 92.78L722.962 93.75L724.072 94.08L725.962 91.42L727.052 92.62L727.332 91.41L726.472 90.58L727.172 89.1L728.232 88.2L729.262 88.83L730.232 87.28L731.352 87.98L730.962 90.07L732.412 92.14L731.702 93.44L732.142 93.68L731.182 95.68L730.572 96.1L730.012 95.85L729.262 97.1L728.712 96.89L727.202 97.45L727.302 98.39L726.642 98.83L726.892 99.36L725.402 99.08L725.512 100.75L725.012 100.24L723.912 101.16L723.152 100.82L721.612 102.02L720.842 97.63L719.932 98.57L719.502 98.04L718.812 99.12L717.192 100.14L715.862 99.61L714.552 100.27L714.422 101.38L714.942 102.27L714.472 102.93L715.902 103.53L715.412 104.9L713.742 105.82L714.142 108.16Z" fill="#CCCCCC" stroke="white" stroke-width="0.5"/>
<path d="M699.661 143.6L697.421 144.15L695.371 143.86L694.021 144.89L691.861 143.73L690.771 144.24L688.891 143.48L689.341 141.8L688.441 140.56L691.041 134.02L691.291 134.2L690.741 131.61L690.921 128.68L693.331 123.47L693.471 119.87L694.871 120.21L696.181 118.82L696.501 119.34L697.921 119.45L698.351 120.81L697.871 121.67L698.641 123.14L699.751 122.42L700.831 120.52L701.981 119.57L702.171 119.15L703.021 119.13L703.431 119.82L704.441 119.68L705.051 120.07L704.861 121.59L705.451 121.36L707.061 122.19L708.211 121.55L708.631 122.38L709.561 122.67L709.761 124.18L708.061 124.16L707.031 124.75L708.471 126.52L710.661 127.82L711.171 129.36L709.851 130.59L708.691 130.56L709.291 131.04L708.161 132.94L709.001 133.23L707.721 133.97L707.091 136.24L705.271 138.74L704.611 137.71L704.971 137.09L704.451 136.43L704.431 134.1L703.661 136.25L701.611 139.01L701.041 142.54L699.661 143.6Z" fill="#CCCCCC" stroke="white" stroke-width="0.5"/>
<path d="M750.429 104.79L751.619 107.72L752.829 108.41L753.809 109.97L755.059 110.17L755.329 111.74L755.949 112.14L756.409 111.87L758.099 113.14L757.199 116.21L757.679 118.05L760.079 120.4L759.559 121.41L759.769 123.25L760.829 124.1L763.139 124.75L762.849 127.29L764.069 127.67L766.359 126.94L767.999 128.13L768.669 129.48L768.409 130.09L768.939 130.73L765.749 135.45L766.349 136.59L766.149 137.16L765.229 137.58L764.349 139.13L762.959 139.53L760.959 141.73L760.049 140.47L760.839 138.51L760.239 138.61L759.659 137.84L758.559 138.65L758.089 138.13L757.709 138.54L757.109 138.75L757.029 139.61L756.179 139.86L755.759 139.31L755.029 139.71L754.599 138.28L753.999 137.83L754.619 137.8L753.889 136.66L754.039 135.59L752.669 134.68L753.089 133.13L751.979 132.68L752.069 132.18L751.199 132.26L750.549 131.35L749.929 131.99L750.269 132.98L749.559 133.61L748.309 133.56L747.259 135.27L745.809 134.54L745.349 135.23L744.249 134.15L743.639 135.4L742.589 135.44L742.449 135.9L739.729 135.39L739.699 134.67L739.129 134.46L738.189 132.71L736.229 133.94L735.109 134.08L735.379 132.44L733.589 131.05L733.089 131.44L733.059 132.65L732.559 132.94L732.009 131.53L732.699 131.17L732.529 130.77L731.679 130.76L731.619 131.2L731.009 130.6L730.649 131.08L730.289 130.85L728.909 132.57L728.619 132.2L728.649 131.5L727.939 131.55L727.359 129.63L726.629 129.31V128.43L725.249 127.84L724.969 127.24L726.389 125.08L728.289 124.34L729.939 122.84L731.039 121.55L730.899 120.85L731.539 120.07L733.329 120.42L734.979 117.83L734.869 116.92L736.809 116.16L737.729 115.05L736.019 113.51L735.529 112.47L737.219 108.75L740.509 110.94L741.339 109.86L743.079 108.76L743.549 107.78L744.579 107.58L745.179 105.81L746.179 105.3L747.259 106.37L748.999 104.95L750.289 104.7L750.429 104.79Z" fill="#CCCCCC" stroke="white" stroke-width="0.5"/>
<path d="M714.009 42.49L713.169 41.03L712.469 35.66L710.969 32.19L711.339 29.84L712.269 29.95L713.689 31.06L714.659 30.93L715.289 32.01L716.709 32.3L717.169 32.83L716.549 33.2L716.139 33.56L716.539 35.31L719.449 35.12L719.989 34.17L721.439 33.87L722.199 34.4L723.209 33.51L723.689 33.65L723.379 34.45L725.529 33.82L725.829 34.89L726.749 35.32L727.049 34.13L728.049 33.09L728.799 33.12L729.079 32.35L730.579 32.83L730.799 33.63L731.409 33.78L731.189 34.51L732.039 35.23L733.089 35.81L733.759 35.23L734.849 36.25L736.189 35.06L736.649 33.89L736.699 34.51L737.499 34.83L736.979 35.8L738.759 36.93L738.329 37.43L738.489 38.18L739.769 39.46L738.619 44.57L737.359 44.45L734.169 45.83L732.809 45.37L731.559 46.08L729.379 45.65L727.499 46.83L726.549 46.24L724.869 47.89L723.249 47.4L723.189 48.24L723.739 48.63L723.549 49.53L722.259 48.65L721.669 47.36L721.419 47.82L720.489 47.39L720.289 47.94L721.109 48.33L720.319 48.66L720.229 49.16L719.579 48.94L719.169 47.91L718.259 48.95L716.859 49.24L716.719 48.52L715.489 48.93L714.759 43.77L714.009 42.49Z" fill="#CCCCCC" stroke="white" stroke-width="0.5"/>
<path d="M704.41 119.65L704.52 116.4L705.22 115.68L705.94 115.81L707.28 112.76L710.47 112.07L712.78 112.19L712.24 110.19L712.64 109.9L713.25 110.53L714.61 108.82L713.64 105.74L715.31 104.82L715.8 103.45L714.37 102.85L714.84 102.19L714.32 101.3L714.45 100.19L715.76 99.54L717.1 100.07L718.72 99.05L719.41 97.97L719.84 98.5L720.75 97.56L721.52 101.95L723.06 100.75L723.82 101.09L724.92 100.17L725.42 100.68L725.32 99.01L726.82 99.29L726.83 99.33L727.44 100.4L728.16 99.98L728.6 101.04L728.37 105.46L731.58 106.84L734.09 106.6L733.4 104.9L734 104.37L734.1 101.76L734.65 101.27L735.63 101.44L736.13 102.06L736.77 101.37L737.3 102.54L737.17 104.81L738.53 104.52L739.24 105.54L740.11 105.75L741.44 107.76L741.82 108.51L741.36 109.86L740.53 110.94L737.24 108.75L735.55 112.47L736.04 113.51L737.75 115.04L736.83 116.15L734.89 116.91L735 117.83L733.35 120.41L731.56 120.07L730.93 120.85L731.07 121.55L729.97 122.83L728.32 124.34L726.43 125.07L725 127.23L725.29 127.84L726.66 128.43L726.67 129.31L727.4 129.63L727.98 131.55L728.69 131.5L728.66 132.2L728.2 132.76L728.19 134.18L727.26 135.43L729.22 136.35L729.3 136.77L730.13 136.57L730.86 137.1L729.95 138.27L730.62 138.64L730.82 139.52L731.12 138.98L731.91 139.64L731.4 140.87L730.25 140.25L730.39 139.74L729.4 139.81L729.64 139.46L728.84 138.59L727.94 139.04L727.43 138.37L727.64 138.04L726.36 137.05L726.07 137.98L725.72 137.4L725.08 138.22L723.94 137.51L722.94 138.86L722.62 138.27L722.27 138.41L721 140L720.05 139.5L718.58 141.28L716.49 140.49L717.02 138.16L715.98 138.57L715.67 139.43L713.5 137.98L712.06 142.12L710.86 142.47L709.36 141.36L707.67 142.19L707.3 141.97L707.19 142.4L706.61 141.45L706.01 140.71L706.46 140.44L706.32 139.67L705.26 138.76L707.08 136.26L707.71 133.99L708.99 133.26L708.15 132.97L709.29 131.07L708.69 130.59L709.85 130.62L711.17 129.39L710.66 127.85L708.47 126.55L707.03 124.78L708.06 124.19L709.77 124.21L709.57 122.7L708.64 122.41L708.22 121.58L707.07 122.22L705.47 121.39L704.88 121.62L705.08 120.1L704.41 119.65Z" fill="#CCCCCC" stroke="white" stroke-width="0.5"/>
<path d="M711.192 155L714.592 155.11L713.702 154.16L713.032 154.21V151.24L712.462 150.93L712.372 149.45L711.712 150.77L710.902 150.13L711.122 151.26L710.202 151.48L711.902 151.64L711.962 152.39L711.192 152.97L710.602 153.11L710.722 152.42L707.432 151.04L706.472 151.51L706.312 152.32L704.832 152.69L703.322 154.02L702.202 154.47L700.812 154.14L699.992 154.69L698.892 154.67L698.032 155.48L697.182 155.3L698.482 151.61L699.672 150.87L698.472 151.18L697.542 147.6L695.922 145.28L699.612 144.25L699.602 145.16L701.062 145.84L700.212 145.71L700.882 146.98L700.842 146.1L701.612 146.02L702.632 147.65L702.162 145.85L701.342 145.41L702.912 144.63L703.022 145.34L703.572 144.98L704.392 145.75L703.932 144.48L705.212 143.79L703.232 143.77L702.692 144.21L702.832 143.17L705.432 141.5L706.592 141.39L707.172 142.34L707.282 141.91L707.652 142.14L709.342 141.32L710.842 142.43L712.042 142.08L713.482 137.94L715.652 139.4L715.962 138.54L717.002 138.13L716.472 140.46L718.562 141.25L720.322 141.34L719.692 142.37L720.002 143.19L715.192 147.35L715.642 149.88L717.662 149.94L717.742 150.6L719.012 150.74L719.132 151.42L719.842 151.1L719.402 150.15L719.892 149.97L720.792 151.21L721.752 150.78L722.462 151.04L724.172 150.04L726.032 153.55L725.632 154.42L726.632 154.33L726.872 154.86L726.302 154.92L726.872 155.41L725.642 157.01L727.072 157.04L727.332 157.76L729.592 158.2L730.642 159.11L731.742 161.26V162.96L728.882 163.82L728.272 164.74L726.872 164.45L726.652 166.35L726.002 166.36L725.282 165.68L725.142 166.24L724.592 166.35L724.342 167.73L723.542 167.28L722.882 168.97L724.332 171L725.752 170.83L726.552 172.14L726.062 175.4L726.372 175.9L725.242 177.2L725.382 177.98L722.102 177.03L721.912 177.46L718.852 177.72L718.412 177.96L718.482 179.21L717.942 179.1L717.382 179.87L717.282 181.56L716.662 181.43L716.332 181.86L714.952 181.11L714.242 181.71L712.602 179.26L711.312 179.65L710.782 179.07L710.302 174.76L708.892 174.44L708.442 173.71L707.782 173.79L709.362 171.03L710.922 166.04L711.362 162.32L711.042 158.38L709.732 155.01L707.182 152.15L709.772 154.07L710.592 156.3L710.332 154.17L711.192 155Z" fill="#CCCCCC" stroke="white" stroke-width="0.5"/>
<path d="M729.772 1.5L730.062 4.78999L732.072 4.06L732.762 4.48L733.202 6.34999L732.872 7.05L731.782 7.31L730.672 8.28L728.972 11.21L729.502 12.88L730.472 12.77L730.602 15.23L730.532 15.68L729.622 15.47L727.232 17.21L726.522 16.8L726.132 17.63L724.742 17.69L723.972 17.25L722.412 17.8L721.242 18.85L720.472 19.07L720.432 18.54L719.972 18.59L719.442 19.12L719.342 21.08L718.532 21.76L718.742 23.11L718.042 23.43L717.582 22.62L716.732 22.98L715.502 22.13L715.252 23.11L714.842 22.64L713.812 22.71L711.912 23.82L710.242 23.91L709.732 21.44L709.292 20.9L709.142 21.33L708.012 18.11L708.192 16.1L708.652 15.56L708.202 15.11L708.242 13.03L709.972 11.3L711.932 10.37L712.312 8.98999L714.902 7.44L715.052 6.26999L715.732 5.51999L718.572 5.25L719.402 4.17L721.822 4.05L722.272 4.48L723.762 4.31L724.352 3.70999L725.332 3.98999L725.802 3.12L727.652 2.39L727.802 1.75L728.742 1.89L729.542 1L729.772 1.5Z" fill="#CCCCCC" stroke="white" stroke-width="0.5"/>
<path d="M738.789 10.63L739.459 10.75L739.219 13.49L739.829 14.1L740.819 13.19L740.699 12.57L742.379 12.49L743.279 11.82L744.229 12.1L745.259 11.45L746.739 12.57L748.889 12.54L748.079 14.77L750.929 14.23L751.529 13.07L753.099 13.25L753.379 14.34L753.949 14.72L753.869 15.69L755.839 13.77L756.139 14.29L757.439 14.2L761.059 12.64L760.749 15.41L761.269 16.75L761.989 17.27L761.959 18.33L760.799 19.7L759.219 24.79L759.229 25.97L760.159 27.67L758.429 27.97L757.869 29.15L757.969 30.12L755.859 31.13L755.809 32.19L756.259 33.81L755.979 34.3L757.459 35.41L756.149 35.71L755.539 36.41L755.959 36.85L755.029 37.61L755.159 39.34L754.309 39.18L753.749 40.75L751.509 41.23L750.859 42.05L750.089 41.69L748.759 43.03L746.399 42.76L745.349 43.65L742.219 42.8L741.689 43.47L739.789 43L738.599 44.55L739.739 39.44L738.459 38.16L738.299 37.41L738.729 36.91L736.949 35.78L737.479 34.81L736.679 34.49L736.629 33.87L736.839 33.16L736.409 33.04L737.669 31.54L737.769 29.56L738.889 29.08L739.179 28.06L740.189 28.13L740.109 27.6L740.959 27.1L740.889 26.39L741.479 26.27L741.789 25.55L740.519 23.79L739.559 24.93L735.899 24.28L736.159 20.85L734.639 20.18L732.039 20.67L733.029 19.68L733.859 17.66L734.199 15.18L735.399 14.75L736.619 12.82L738.299 12.71L738.789 10.63Z" fill="#CCCCCC" stroke="white" stroke-width="0.5"/>
<path d="M753.75 40.75L755.06 41.4L756.1 43.38L757.77 43.73L756.47 47.62L756.73 48.96L755.42 49L755.43 49.92L757.12 50.72L756.78 52.3L755.58 53.2L755.4 55.02L754.67 54.61L753.08 57.36L751.17 54.99L749.68 54.87L748.89 55.69L747.56 58.65L749.37 59.99L748.55 60.84L748.73 61.46L750.5 62.44L749.99 62.99L750.28 63.72L749.53 64.3L748.8 66.78L749.06 67.28L746.39 67.85L741.25 70.38L739.48 71.43L736.65 74.24L734.48 75.05L731.59 77.21L730.43 76.72L729.98 77.19L729.73 76.79L727.9 77.62L726.36 76.18L725.43 76.32L724.99 75.7L724.57 75.81L724.61 74.09L725.79 72.75L725.22 70.9L727.92 69.86L726.82 68.7L726.08 66.33L728.07 65.5L726.52 64.72L726.44 62.31L725.52 61.56L725.33 60.37L727.21 59.66L728.34 56.81L727.77 55.54L728.53 55.17L729.81 55.94L730.54 55.11L731.73 55.83L732.57 55.08L731.78 53.78L731.63 51.71L733 50.06L732.94 49.17L732.69 48.98L731.61 50.43L729.69 49.61L729.1 49.78L729.38 49.11L728.42 49.04L728.22 48.48L728.54 48.39L728.34 47.13L727.49 46.79L729.37 45.61L731.55 46.04L732.8 45.33L734.16 45.8L737.35 44.42L738.61 44.54L739.81 42.99L741.71 43.46L742.24 42.79L745.37 43.64L746.42 42.75L748.77 43.02L750.1 41.68L750.87 42.04L751.52 41.21L753.75 40.75ZM753.8 53.95L754.81 54.54L755.43 53.66L754.2 52.81L753.8 53.95Z" fill="#CCCCCC" stroke="white" stroke-width="0.5"/>
<path d="M196.14 210.9L196.26 210.93L196.36 211.12L196.6 211.18L196.89 211.14V210.94L196.96 210.91L197.31 211.12L197.25 211.45L197.35 211.63L197.19 211.86L197.24 212.06L197.33 212.14L197.5 212.2L197.72 212.3L197.7 212.44L198.09 212.66L197.97 212.73L198.02 212.92L198.27 212.88L198.35 213.1L198.48 213.16L198.4 213.43L198.36 213.6L198.54 213.91L198.41 214.19L198.5 214.36L198.41 214.42L198.37 214.34L198.16 214.36L197.97 214.35L197.51 214.37L197.17 214.28L196.77 214.36L196.39 213.97L196.35 213.76L196.08 213.56L195.73 213.47L195.42 213.46L195.12 213.73L194.97 213.67L194.53 213.96L194.33 213.69L194.19 213.84L194.02 213.94L193.69 213.74L193.55 213.49L193.49 212.81L193.14 212.17L193.27 211.68L193.51 211.66L193.62 211.42L193.81 211.33L194.03 211.39L194.4 211.09L194.38 211.29L194.71 211.5L194.92 211.25L195.28 211.43L195.51 211.32L195.55 211.05L195.74 211.16L195.9 211.01L195.99 211.08L196.14 210.9ZM185.1 178.84L185.21 178.78L185.23 178.6H185.37L185.44 178.69L185.39 178.91L185.47 179L185.69 178.91L186.2 178.82L186.53 178.5L186.79 178.6L187.25 178.34L187.56 178.29L187.81 178.06L188.1 178.04L188.55 177.78L188.7 177.42L188.94 177.25L189 177.47L189.56 177.72H189.78L190.17 177.51L190.45 177.56L190.65 177.42L190.82 177.61L191.36 177.79L191.69 177.8L192.83 177.56L193.24 177.66L193.46 177.61L194.25 177.92L194.55 178.86L194.61 179.16L194.72 179.63L194.48 179.92L194.42 180.18L194.57 180.67L194.47 181.11L194.23 181.6L193.86 182.04L193.57 182.24L192.96 182.25L192.66 182.49L192.46 182.53L192.09 182.47L191.3 182.11H190.51L189.87 182.4L189.75 182.5L189.37 182.62L189.08 182.73L188.9 182.96L188.67 182.88L187.87 182.97L187.35 183.4L186.64 183.28L186.29 183.35L186.01 183.28L185.79 183.39L185.51 183.27L185.37 183.4L184.98 183.47L184.57 183.28L184.37 183.31L184.09 183.3L183.75 183.2L183.62 183.32L183.33 183.37L183.18 183.6L182.89 183.68L182.64 183.4L182.25 183.31L181.99 182.97L181.23 182.43L181.09 182.2L180.53 182.34L180.16 182.12L179.8 182.2L179.49 181.94L179.06 181.95L178.85 182.23L178.5 182.3L177.79 182.47L177.34 182.65L177.03 182.56L176.52 182.22L176.29 181.91L175.96 181.79L175.72 181.44L175.01 180.99L174.5 180.65L174.34 180.28L174.15 180.19L173.8 179.94L173.23 179.57L173.08 179.29L172.46 178.86L172.41 178.55L172.06 177.88L172.01 177.61L172.26 177.4L172.36 177.14L172.48 176.88L172.74 176.87L172.97 176.57L172.92 176.33L173 176.21L173.07 175.98L173.64 176.14L174.06 175.83L174.15 175.63L174.33 175.58L174.9 175.78L175.3 176.04L175.73 176.25L175.84 176.39L176.32 176.51L176.64 176.91L176.78 177.39L176.96 177.45L177.14 178.22L177.28 178.34L177.48 178.29L177.57 178.53L178.07 178.72H178.48L178.82 178.87L179.22 178.78L179.47 178.88L179.5 178.83L179.71 179.06L179.94 179.16L180.52 179.45L180.86 179.38L181.1 179.29L181.29 179.41L181.56 179.39L182.42 179.07L182.62 178.82L183.18 178.47L183.46 178.3L183.54 178.13L183.62 178.12L183.79 178.46L183.9 178.67L183.98 178.8L184.14 179.03L184.36 178.97L184.66 179.12L184.71 178.93L184.82 178.91L184.91 179.07L185.11 179.13L185.1 178.84ZM91.09 149.38L91.87 149.5L92.15 149.72L92.54 149.79L93.33 150.27L93.56 150.31L93.79 150.4L94.02 150.59L94 150.72L94.16 150.87H94.37L94.53 151.05L94.62 151.36L94.87 151.62L95.26 151.57L95.65 151.89L96.04 151.98L96.49 151.88L96.84 152.37L97.18 152.5L97.26 152.63L97.62 152.65L97.83 152.83L98.12 153.36L98.42 153.33L98.75 153.6L99.58 153.61L99.7 153.75L99.98 153.83L101.62 154.04L101.84 153.99L102.35 154.14L102.39 154.34L103.06 154.74L103.22 155L103.24 155.4L102.78 155.55H102.46L102.33 155.69L102.18 155.66L102.04 155.79L101.71 155.7L101.57 155.88H101.18L100.42 155.62L99.41 155.53L99.21 155.6L98.54 155.48L98.24 155.59L98.22 155.74L98.08 155.81L97.93 156.06L97.59 156.1L96.94 156.48L96.58 156.58L96.23 156.37L96.07 156.27V155.96L96.05 155.7L95.54 155.37L94.55 155.45L93.69 155.29L93.35 155.35L93.03 155.23L92.53 155.37L91.42 154.82L91.04 154.74L90.85 154.79L90.69 155L90.1 155.05L89.48 154.55L88.99 154.44L87.83 153.77L87.69 153.25L87.44 153.04L87.09 152.39L87.04 152.17L87.12 151.92L87.04 151.46L87.1 151.09L87.26 150.48L87.46 150.47L87.44 150.35L87.7 150.27L87.74 150.05L88.16 149.75L88.23 149.79L89.1 149.43L90.01 149.65L90.2 149.49L90.53 149.56L91.09 149.38ZM81.63 146.07H81.95L82.93 146.43L83.26 146.61L83.31 146.76L83.77 147.17L84.58 147.37L85.29 148.06L85.12 148.25L84.97 148.65L85.12 149.05L84.87 149.37L85.16 149.96L85.07 150.08L84.61 150.12L84.43 150.34V150.72L84.52 150.74L84.57 150.86L84.48 150.93L84.62 151.08L84.51 151.23L84.39 151.06L84.33 151.11L84.22 151.14L84.26 151.01L84.43 150.91L84.35 150.79L84.26 150.87L84 150.83L83.65 150.96L82.97 150.91L82.72 151.03L82.02 151.04L81.67 151.16L81.28 151.14L80.73 150.89L80.42 150.98L80.4 150.87H80.57L80.6 150.75L80.52 150.68L80.44 149.95L80.19 149.35L79.97 149.19L79.78 149.31L79.68 149.24L79.54 149.28L79.07 148.99L78.46 148.61L78.15 148.21L78.04 148.24V147.97L77.85 147.9L77.9 147.72L78.33 147.73L78.53 147.53L78.85 147.44L79.66 147.46L79.95 147.35L80.38 147.44L80.76 147.16L81.23 146.4L81.63 146.07ZM94.17 141.54L95.08 141.7L95.89 141.99L96.84 142.56L96.98 142.53L98.61 143.25L99.62 143.55L99.92 143.84L100.17 143.93L100.36 143.87L100.47 144.09L101.22 144.24L101.7 144.57L102.3 144.76L102.59 144.56L102.55 144.75L102.73 144.92L103.08 145L103.41 144.94L104.01 145.41L104.43 145.53L104.89 146.07L105.3 146.11L105.41 146.35L105.98 146.57L106.22 146.78L106.43 146.72L106.78 147.2L107.23 147.26L107.79 147.49L109.4 148.39L109.69 148.53L109.88 148.66L110.47 148.89L110.57 148.85L110.66 149.06L111.19 149.25L112 149.95L111.83 150.03L111.71 150.18L111.35 150.45L111.08 150.37L109.58 150.52L108.59 150.02L108.34 149.72L108.05 149.63L107.69 149.36L107 149.09L105.99 148.28L105.59 148.26L105.1 147.99L104.75 148.11L103.89 147.79L103.7 147.87L103.41 147.81L103.11 147.62L102.71 147.18L102.11 146.79L100.88 146.58L100.6 146.35L100.34 146.33L100.32 146.21L100.13 146.06L99.98 146.09L99.47 145.86L98.86 145.44L98.15 145.16L97.84 144.63L97.55 144.77L97.44 144.61L97.16 144.65L97.1 144.55L97.22 144.45L97.27 144.23L96.95 144.19L97.05 144.03L96.92 143.8L95.68 143.19L94.9 142.46L94.58 142L94.2 141.72L94.17 141.54ZM127.61 139.64L127.82 139.73L127.95 139.69L128.12 139.88L128.38 139.82L128.64 140.04L128.94 140.03L128.91 139.87L129 139.74L129.17 139.84L129.44 139.73L129.62 139.86L129.79 140L129.99 139.9L130.16 140.04L130.57 140.11L131.02 140.34L131.46 140.27L131.76 140.44L131.83 140.51L132.5 140.35L133.8 141.35L133.89 142L134.06 142.2L134.38 142.35L134.14 142.56L133.86 142.61L133.81 143.19L134.16 143.44L134.41 143.67L134.36 143.83L134.45 143.97L134.23 144.3L133.95 144.43L134.01 144.71L133.64 144.77L133.37 144.97L133.42 145.31L133.4 145.51L133.28 145.84L133.33 146.07L132.95 146.12L132.69 145.88L132.47 146.06L132.07 145.89L131.6 146.07L131.28 146.04L130.43 145.63L130.08 145.72L129.88 145.63L129.62 145.76L129.26 145.62L129.07 145.78L128.81 145.67L128.76 145.79L128.92 146.11L128.63 146.26L128.4 146.07L128.6 145.81L128.54 145.58L128.17 145.56L127.93 145.54L127.72 145.64H127.34L127.05 145.73L126.74 145.62L126.08 145.11L125.5 144.8L125.28 144.66L124.7 144.34L124.12 143.5L123.98 142.78L123.84 142.57L123.81 141.91L124.06 141.39L123.87 141.09L124.1 141.15L124.24 140.87L124.2 140.74L124.35 140.52H124.5L125.29 140L126.71 139.71L127.25 139.66L127.61 139.64ZM103.25 127.78L103.77 127.95L104.01 128.19L104.18 128.09L104.37 128.19L104.24 128.28L104.54 128.45L104.88 129.05L104.94 129.31L105.11 129.34L105.13 129.49V129.67L105.57 130.07L105.7 130.54L105.65 130.64L105.83 130.8V130.97L105.7 131.05L105.79 131.18H105.51L105.14 131.35L104.48 131.14L104.36 131.21L104.24 131.12L104.22 130.98L103.97 130.89L103.96 130.73L103.09 130.79L102.73 130.35L102.4 129.5L102.09 129.22L102.08 129.03L101.91 129.01L101.96 128.84L102.51 128.33L102.47 128.13L102.56 127.93L102.63 127.87L102.8 127.83L103 127.85L103.09 127.77L103.25 127.78ZM2.87 110.42L2.99 110.46L2.92 110.66L3.09 111.07L3.68 111.48L3.83 111.32L3.97 111.37L3.94 111.46L4.04 111.51L4.31 111.44L4.45 111.25L4.51 111.31L4.65 111.53L4.6 111.75L4.8 111.97L4.74 112.03L4.81 112.46L5.09 112.65L5.2 112.92L5.48 112.88L5.57 113.27L5.48 113.51L5.13 113.71L4.94 114L4.93 114.14L5.17 114.47L5 114.43L4.8 114.53L4.74 114.75L4.82 115.15L4.68 115.52L4.47 115.74L4.44 116.07L4.1 116.28L4.16 116.39L3.42 116.58L2.53 116.46L2.4 116.61L2.16 116.65L1.95 116.5L1.66 116.49L1.58 116.26L1.4 116.15L1.48 116.07L1.36 115.97L1.32 115.76L1.41 115.68L1.3 115.52L1.53 115.36L1.54 115.25L1.38 115.14L1.39 114.97L1.18 114.72L1.13 114.34L1.28 113.96L1.16 113.56L1 113.38L1.13 113.22L1.09 113.08H1.27L1.36 112.89L1.35 111.86L1.63 111.62L1.66 111.47L1.86 111.39L2.13 110.93L2.02 110.56L2.76 110.58L2.87 110.42ZM6.09 102.18L6.72 102.46L6.91 102.96L6.9 103.29L6.75 103.81L6.24 104.27L6.03 104.36L5.95 104.49L5.76 104.5L5.64 104.45L5.59 104.29L5.8 104.08L5.75 103.87L5.5 103.54L5.43 103.17L5.73 102.5L5.67 102.22L5.86 102.27L6.09 102.18Z" fill="#CCCCCC" stroke="white" stroke-width="0.5"/>
<path d="M467.72 385.59L468.05 386.54L468.54 387.37L468.03 387.12L467.86 386.81L467.58 385.97L467.72 385.59ZM467.1 382.64L467.59 383.69L467.65 384.68L466.88 382.79L466.21 382.25L466.12 381.07L466.71 381.77L467.1 382.64ZM446.36 370.02L446.86 370.81L447.63 371.55L448.24 371.58L448.63 372.01L449.95 372.27L451.07 372.01L451.9 371.45L452.72 371.59L454.61 371.18L455.24 371.58L455.88 372.31L456.75 373.06L457.18 373.77L457.95 373.98L458.58 374.16L459.63 374.24L460.18 374.39L460.78 374.37L461.08 374.51L460.94 374.86L460.1 374.9L459.6 375.02L459.28 375.58L459.02 375.69L459.11 376.04L458.73 376.66L458.11 376.87L457.79 377.7L456.91 378.54L456.32 378.69L455.42 378.35L454.55 378.3L454.2 378.49L453.28 378.81L453.01 378.49L452.03 378.13L451.07 378.09L448.88 377.08L448.29 377.13L447.21 376.19L444.87 374.93L443.84 373.58L443.9 373.26L443.64 372.51L443.18 372.02L445.27 370.01L446.36 370.02ZM473.63 361.44L473.91 361.4L473.74 361.81L474.05 362.22L473.78 362.46L473.94 362.82L473.32 362.68L472.85 362.79L471.21 364.17L471.06 363.91L470.78 363.86L470.63 363.54L470.93 363.52L471.24 363.02L471.39 362.44L471.28 362.28L471.51 361.98L471.83 361.96L472.03 361.59L472.63 361.41L473.03 361.05L473.63 361.44Z" fill="#CCCCCC" stroke="white" stroke-width="0.5"/>
</svg>
