<svg width="292" height="614" viewBox="0 0 292 614" fill="none" xmlns="http://www.w3.org/2000/svg">
<path d="M233.419 362.13L220.719 367.29L209.869 349.59L221.489 342.23L233.419 362.13ZM276.589 339.93H276.679H276.589ZM239.269 338.72L237.889 340.16L233.579 333.64L235.499 332.54L239.269 338.72ZM290.429 316.9L291.329 317.69V318.68L290.789 319.17H290.249L291.059 318.48L290.609 317.59L288.899 317.49L290.429 316.9ZM269.849 298.71L271.109 299.3L271.019 303.26L268.409 301.68L265.889 301.09L266.789 299.31L268.319 300L269.849 298.71ZM263.649 276.16L263.829 276.95L267.159 278.34L267.879 279.13L268.059 280.61H266.079L264.999 281.6L264.909 279.62L263.829 279.03L263.649 277.74L262.929 277.15L263.649 276.16ZM276.589 339.93L266.249 340.81L257.379 343.68L257.059 342.14L255.049 341.76L249.859 339.01L241.779 333.19L238.509 331.39L242.459 328.32L235.529 319.27L233.509 308.79L231.789 303.95L227.439 295.14L226.949 293.09L242.279 283.06L239.999 276.82L235.749 256.37H247.589L248.129 259.32L254.149 263.97L255.139 264.27L255.769 263.68L256.849 263.98L258.199 263.09L257.929 264.28L257.119 264.38L257.569 265.67L256.939 265.27L256.129 265.57L251.099 261.71L248.939 261.31L249.929 262.5L250.469 264.78L251.459 265.18L251.819 265.87L252.359 265.77L252.089 267.85L251.549 268.25V268.75L252.089 268.95L252.179 270.34L251.549 272.32L251.369 271.92L250.649 272.02L250.469 272.71L250.829 274.79L251.639 276.97L252.089 277.07L251.639 280.93L252.449 283.4L252.269 284.78L253.439 287.25L256.409 286.56L256.679 286.86L254.519 288.84L254.429 289.53L252.809 289.93L252.539 291.51L253.889 292.9L253.799 293.69L251.369 292.8L251.189 293.89L250.469 294.19L250.739 295.18L251.639 295.38L251.729 296.37L250.739 296.87L250.649 297.36L252.269 297.86L252.629 298.45V297.46H253.889L254.069 298.25L253.349 300.52L251.279 302.4L251.099 304.28L251.729 305.27L252.539 305.57L255.679 305.17L257.389 307.74L257.299 308.43H256.399V310.51L254.059 311.1L252.169 311L250.459 312.48L250.099 314.26L249.649 314.56L249.559 316.54L250.909 318.22L252.529 319.11L254.329 319.6L255.049 318.32L255.409 318.72L255.229 319.61L256.129 319.91L256.309 318.53L258.559 318.13L258.019 316.94L258.379 316.35L258.919 316.45L259.279 317.34L260.089 317.04L259.909 314.96L262.699 313.68L263.689 315.85L262.609 316.34L261.799 314.66L260.629 315.15L261.979 318.31L261.709 318.9L261.169 318.8L260.719 317.81L260.359 318.3H259.369V318.99L260.089 318.79L259.459 319.38L259.639 320.27L260.269 320.76L261.529 320.66L261.619 321.45L262.429 321.85L263.419 321.36L262.609 321.16L262.519 320.67L263.509 320.37L264.049 320.87L264.589 319.68L265.939 318.79L265.849 318L267.649 319.09L268.639 318.99V316.91L268.999 316.71L270.169 317.5L269.629 319.57L269.809 321.35L270.799 321.45L270.889 322.34L271.789 322.64L272.959 322.05L273.589 322.25L276.289 319.09L277.189 316.72L279.079 316.13L279.979 318.6L280.699 319.29L280.969 320.97L283.579 327.59L284.659 328.87L284.749 330.45L278.999 316.42L277.469 316.82L276.749 318.8L274.229 322.16L276.749 320.58L277.919 321.77L277.469 322.36L279.269 324.73L278.729 326.21L279.179 328.68L278.549 329.27L278.189 331.54L281.959 331.94L284.119 332.93L284.839 332.53L284.929 332.93L284.119 333.23L281.959 332.24L278.009 331.85L278.099 334.12H277.019L275.849 335.01L276.659 335.7L276.479 336.39L275.669 336.59L276.589 339.93Z" fill="#CCCCCC" stroke="white" stroke-width="0.5"/>
<path d="M267.96 153.59L267.78 154.98H267.15L267.24 153.99L267.96 153.59ZM267.61 151.81L267.16 153.4L266.8 152.21L267.61 151.81ZM273.99 151.31L274.53 151.71L272.37 153.6L270.39 154.49L270.56 153.61L271.83 153.6L273.18 151.52L273.99 151.31ZM215.22 81.0902V80.9902V81.0902ZM215.22 81.0902L217.56 82.7802L222.59 84.8702L222.68 85.2702L224.03 85.0702L224.39 85.5702L227.27 85.6702L228.26 84.5802L229.25 84.8802L230.24 84.3802L230.15 82.6902L230.87 84.2802L229.34 85.2702L239.49 83.2802L239.85 80.7002V83.3802L242.46 83.1802L242.73 83.5802L248.03 84.6702L251.18 86.7602L255.13 91.0302L258.28 92.8202L259.36 92.6202L263.31 94.3102L267.26 96.6902L268.16 96.3902L276.16 88.9402L277.24 89.0402L283.53 91.9202V92.3202H283.08L277.78 89.8402L276.25 89.5402L273.02 92.5202L272.84 93.5102L277.06 92.1202L278.23 94.0102L276.79 94.5102L276.25 93.6102L275.17 93.9102L274.54 93.5102L273.01 94.4002L269.33 97.5802V98.1802L269.96 98.5802L269.69 100.17L271.04 99.9702L280.48 95.0002L279.94 93.7102L280.75 94.8002L281.92 94.2002L282.1 93.5102L282.19 94.3102L271.05 100.27L269.07 100.47L268.26 101.07L268.44 102.96L268.08 103.16L267.63 106.74L267.9 110.81L268.8 111.8L269.16 115.77H269.97L269.61 117.76L270.42 118.06L270.87 119.45H272.67L270.96 119.75L271.77 122.63L271.68 123.92L272.13 124.52L272.31 131.87L273.12 134.25H273.48L275.28 138.02V140.11L274.47 141.2L274.02 144.38L274.56 144.68V145.57L273.48 147.06L274.2 148.35L274.11 149.44L272.31 151.33L271.95 152.92L270.51 153.12L270.06 154.71L268.89 155.31L268.11 154.34L269.34 152.33L268.35 152.43L268.17 153.13L267.9 152.14L268.71 151.05L268.44 149.56L268.98 148.77L267.36 147.28H266.1L267 148.27L264.39 152.44L264.12 155.81L262.23 159.48L260.07 159.58L258.72 158.09L256.2 156.9L256.38 159.08L257.01 159.97L258.27 159.28L259.62 160.27L260.43 162.06L263.04 163.15L263.31 163.75L264.03 163.45L265.92 164.14L266.19 164.83L266.28 162.85L267.09 161.76H268.17L268.35 160.27H269.43V160.97L270.06 161.57L271.77 162.36L271.05 163.55L273.93 166.33L274.11 167.72L273.48 168.71L273.66 170.79L273.12 170.69L271.86 172.58V173.37L272.58 173.97L270.69 174.56L269.97 175.45L270.06 176.64L271.32 176.74L270.24 176.94L270.06 177.73L271.41 177.53L270.24 178.32V180.7L269.88 181.49L268.35 182.08L268.62 183.37L266.91 181.98L266.28 182.38L265.65 181.29L264.48 180.79L259 181.29L258.37 178.91L259.18 178.61L259.9 179.21L260.26 179.01L259.45 177.62L258.82 176.33L259.09 175.93L260.71 176.33L260.8 175.93L259.54 173.85L257.92 173.16L258.01 172.47L257.11 172.97L255.67 172.77L254.32 173.76L253.6 173.66L251.54 174.95L250.64 175.05L249.56 176.14L248.93 175.25H248.21L245.61 176.64L245.25 177.24L246.6 178.83L248.22 178.93L248.94 178.24L249.21 179.43L252.36 179.33L252.63 181.11L253.44 179.72L256.67 179.92L256.13 182.5L254.78 182.7L254.15 183.99L254.42 185.18L255.68 185.88L255.5 187.67L256.31 187.77L256.85 187.18L258.56 187.38V188.37L260 187.78L260.27 188.47L261.53 188.67L261.44 190.06L260.27 191.55L260.81 196.31L259.19 197.8L259.55 198.99L251.9 196.12L241.74 195.61L230.31 190.01L226.04 192.56L223.38 193.2L216.22 200.33L213.91 200.97L211.95 200.84L215.88 221.34L184.94 223.12L167.81 212.96L160.42 200.74L165.28 185.19L165.99 174.69L165.72 172.23L170.52 166.91L119.33 166.89V146.49H76.5296L75.8096 145.14L75.1796 141.67L77.6096 140.78L78.6896 138.7L78.3296 136.91L76.6196 136.71L77.7896 133.53L77.1596 131.94L77.4296 131.05L76.5296 130.75L76.6196 129.66H75.5396L75.2696 129.16L73.5596 129.56L71.9396 129.36L70.9496 130.15L70.6796 129.26L70.0496 129.36L69.6896 128.17H68.8796L68.2496 127.57V126.38L67.3496 126.48L68.3396 125.88L68.1596 123.2L69.2396 120.8H119.34V84.4702H168.45L168.85 103.96L192.77 103.88L194.4 120.39L195.98 120.09L215.4 120.56L215.22 81.0902Z" fill="#CCCCCC" stroke="white" stroke-width="0.5"/>
<path d="M86.6309 65.49L88.2509 66.39L88.4309 67.09L87.9809 67.39L86.3609 67.09L86.0909 66L86.6309 65.49ZM109.641 38.93L109.821 39.33L109.281 39.83L109.011 39.03L109.641 38.93ZM149.981 14.74L150.161 15.14L149.081 15.34V14.74H149.981ZM162.741 10.16L165.351 11.16L165.711 11.76H166.161L165.981 10.86L166.341 11.16L167.961 10.66L168.141 11.26L166.971 11.16L167.061 12.16L166.521 11.26L166.791 13.15L169.131 13.65L169.851 14.15L169.581 14.55L171.111 15.05L171.651 16.05L174.441 16.55L176.601 17.74L177.951 17.54L182.171 19.13L183.881 20.33L184.781 21.72L187.751 22.91L188.741 24.5L189.731 24.8L190.451 24.5L190.631 25.69L192.251 27.18L193.691 27.38L195.041 28.77L197.921 29.77L198.551 31.36L197.381 36.14L197.471 37.73L198.461 40.22L197.471 41.61V43L199.811 43.1L200.171 44L198.911 43.3L197.291 43.7L197.561 47.68L199.631 51.06L200.531 51.46L201.611 54.15L205.111 57.33L204.751 57.83L204.571 57.33L203.131 56.73L202.951 57.53L204.571 59.22L211.041 63L211.491 67.97L210.951 71.05L211.671 73.44V78.41L212.391 79.6H213.381L215.261 80.99L215.271 81.09L215.421 120.55L196.001 120.08L194.421 120.38L192.791 103.87L168.871 103.96L168.471 84.47H119.361V120.72H69.2009L69.0209 119.45L68.2109 118.85L68.3009 118.06L70.4609 116.17L70.9109 115.08L70.2809 115.48V114.88L71.1809 112.89L71.7209 112.59L72.2609 112.89L71.9909 114.18L72.4409 115.57H73.6109L75.8609 114.18L76.0409 113.48L74.6909 112.19L74.6009 111.4L72.8909 110.41L72.4409 109.52L73.6109 109.02L73.7909 107.73L75.1409 107.13L74.9609 104.85L74.4209 104.35L75.7709 104.75L76.9409 104.45L78.0209 103.46L77.8409 102.67L78.8309 102.47L79.3709 100.98L79.1909 99.79L79.6409 99.69L79.1009 98.5L79.5509 98.4V97.31L80.5409 96.22L80.1809 94.13L80.7209 93.63L80.0909 92.94L79.4609 89.76L79.9109 86.38L79.2809 84.79L79.7309 83.2L79.4609 82.21L78.3809 81.81L78.4709 78.63L77.8409 78.03L77.3909 75.94L78.2909 74.95V72.86L78.8309 73.26L79.1009 72.47L79.8209 72.27L80.1809 73.26L81.0809 73.96L81.8909 73.26V73.76L80.8109 74.66V75.26L81.8909 76.35V77.64L81.2609 77.94L81.8009 78.44L81.8909 79.53L82.7009 79.33V80.42L83.2409 81.31L83.8709 81.41L83.7809 82.01L84.2309 81.71L85.0409 82.01L84.9509 81.02L85.5809 80.72V80.2H86.1209L87.1109 79.11L87.5609 79.51L89.4509 78.12L89.0009 77.52V75.73L89.8109 74.83L89.4509 71.85L89.9909 71.65L91.2509 72.44L93.1409 72.04L93.7709 71.25L93.6809 70.75L92.5109 70.15L93.0509 68.26L92.5109 67.37L92.8709 65.88L92.3309 65.38L93.4109 63.69L93.0509 62.1L94.2209 62.3L94.4909 61.9L94.5809 60.51L93.7709 59.22L94.1309 58.72L93.7709 57.53L94.4909 57.33L94.7609 56.14L94.3109 55.44L95.1209 54.64L94.6709 54.34L94.4009 52.25L92.7809 51.35L92.8709 50.95L95.1209 50.85L95.5709 50.25L96.7409 50.15L98.2709 48.96H98.9909L99.1709 48.46L103.391 47.56L105.821 46.37L107.801 44.68L107.621 43.59L109.061 42.3L109.781 40.81L111.851 41.01V41.81L113.111 42.61L115.091 41.72L115.361 40.43L116.351 40.33L117.701 37.94L119.771 38.24V38.94L120.671 39.84L120.851 41.33L122.111 41.63L123.461 41.23L124.451 40.14L126.431 39.34L131.011 36.26L131.641 35.27L131.551 33.18L132.631 31.69L132.091 30.6V29.21L132.721 26.82L136.761 23.54L138.021 23.34L138.111 22.44L139.821 21.94L140.721 20.84L141.711 20.64L142.611 18.25H141.621L140.721 16.96L141.081 16.06L141.891 15.86L142.431 14.37L143.061 14.47L143.151 17.06L143.691 17.36L146.031 16.66L149.351 16.86L150.431 16.36L150.791 15.46L151.511 15.06L152.771 15.56L153.671 16.66H155.111L157.541 15.17L158.171 13.38L159.431 11.89V11.19L161.051 10.39L162.741 10.16ZM150.701 1L151.601 2.99L152.501 3.39L154.661 3.29L158.971 1.8L160.681 2.2L162.211 3.4L159.781 2.3H158.431L156.721 2.8L156.361 3.3L153.931 3.7L152.221 4.89V6.68L151.601 5.68L151.781 3.99L150.881 3.39L151.151 2.86L150.881 2.89L150.431 2.19L150.701 1Z" fill="#CCCCCC" stroke="white" stroke-width="0.5"/>
<path d="M11.42 234.88L11.69 235.57L11.15 235.67L10.88 235.08L11.42 234.88ZM55.81 201.79L56.26 202.58H56.89L57.07 203.18L57.97 203.48L58.15 204.77L57.25 204.47L56.8 203.38L55.99 203.28L55.54 202.19L55.81 201.79ZM60.22 135.03L61.93 135.73L62.74 135.53L63.55 137.32L64.27 137.52L64.72 137.02L65.35 138.91L66.79 140.7L67.51 140.8L67.33 141.59L67.96 141.69L68.5 142.88L68.95 142.98L68.68 143.97L69.22 144.96L69.13 146.05L67.42 148.13V151.6L66.61 151.11L66.16 151.51L66.34 152.21L66.7 151.61L67.87 152.11L67.69 151.22L68.05 150.92L69.85 151.12L71.47 150.52L71.83 149.83L71.56 148.34L73.54 148.64L75.25 147.75L76.51 146.42H119.31V166.82L170.5 166.84L165.7 172.16L165.97 174.62L165.26 185.12L160.4 200.67L167.79 212.9L167.74 282.96L189.69 283.5L198.81 284.52L211.4 288.84L211.42 297.05L218.2 297.15L217.2 292.61L218.26 292.19L221.53 292.4L223.12 293.78L224.46 296.9L227.46 295.19L231.81 304L233.53 308.84L235.55 319.32L242.48 328.37L238.54 331.44L241.81 333.24L249.89 339.06L255.09 341.81L257.1 342.19L257.42 343.73L253.55 344.98L255.95 353.24L246.17 357.57L233.47 362.17L221.54 342.27L209.92 349.63L220.77 367.33L218.62 368.94L208.99 373.06L215.19 379.66L215.08 403.86L212.85 402.68L183.85 392.86L150.91 383.48L150.68 425.35H118.58L119.02 583L119.5 612.68L114.19 613L80.59 601.52L58.19 585.87L34.98 538.68L19.74 514.79L24.82 513.53L29.21 510.21L35.32 506.77L36.76 504.7L38.11 498.8L39.37 497.42L39.73 493.58L38.56 490.23L37.93 490.13L35.5 486.98L34.42 483.04L34.6 481.17L35.77 479.79L35.68 478.21L36.76 473.78V472.7L35.5 470.83L36.22 469.94L36.31 466.79L37.21 466L36.31 465.41L36.58 462.75L35.77 461.77L36.04 458.03L35.86 457.54L35.14 457.44L34.96 456.36L33.16 454.59L33.52 451.83L31.18 449.96L30.46 448.68L29.74 448.48L29.38 446.61L28.39 445.92L26.77 445.82L25.78 444.64L24.43 438.33L21.82 436.65L21.28 434.98L20.02 434.49L17.68 431.34L17.59 430.26L16.24 429.27L15.97 425.13L16.51 423.36L16.06 422.77L16.15 419.12L17.5 415.87L17.05 415.38L17.95 413.8L20.83 411.24L21.55 409.76L20.74 403.05L19.03 399.1V397.03L17.14 394.76L16.6 393.38L14.08 394.37L14.35 393.78L16.42 393.19L15.79 391.71L12.64 387.96L8.51 385.3L7.61 383.52L7.88 379.38L8.69 376.02L8.51 374.05L9.14 372.27L8.51 370.49L9.23 368.32L8.87 365.56L6.62 358.65L6.8 358.06L6.17 357.86L6.53 355.69L5.63 352.23L6.71 349.66V349.17L6.08 348.97L6.17 347.29L5.45 346.4L6.71 339.78L5.54 338.3L5.9 337.41L5.09 333.36L5.36 330.4L4.82 328.82L5.54 327.44L5.09 324.28L5.36 320.62L6.89 318.35L7.25 314.89L6.17 308.27L6.44 305.6L5.81 305.01L6.17 302.54L5.9 298.88L5.45 298.58L4.37 298.98L4.01 298.49L5 297.11L5.09 294.44L4.55 293.85L5 292.96L3.83 285.34L4.91 284.45L5.36 283.26L3.92 281.18L2.03 280.59L4.01 276.24L2.57 273.97L1.22 274.47L1 273.49V272.3L2.89 268.84L2.44 266.17L3.61 263.6L4.78 259.05L4.87 255.69L7.3 249.55L6.85 248.76L7.03 246.88L6.22 245.2L4.87 244.21L3.52 245.7L3.07 244.12L4.33 243.23L5.5 241.35L9.19 239.67L9.64 238.78L11.26 238.38L12.25 237.09L13.6 236.79L14.59 235.7L13.69 235.3L14.05 234.21L17.11 234.7L19.09 238.46L20.35 239.25L20.89 242.72L21.79 243.91L21.43 244.7L21.79 246.28L24.13 247.17L24.85 250.34L23.95 251.73L24.4 252.52L25.03 257.57L28.26 259.25L28.71 258.75L29.97 258.95L32.85 257.27L33.12 256.28L32.4 255.59L32.85 254.6L31.77 254.01L31.23 254.21L31.05 252.82L29.52 251.63L28.98 251.73L28.71 250.54L27.81 249.65L28.44 249.35L28.26 248.86L29.34 249.16L30.06 248.67L30.69 248.97L31.23 248.67L31.14 247.98L29.43 246L29.61 245.7L27.72 244.02L29.07 242.73V241.34L27.45 239.16L26.46 238.66L25.83 236.58L23.67 236.78L23.31 236.29L23.67 234.21L25.02 231.44L24.75 230.25L26.91 229.46L28.62 226.29V225.2L27.54 224.01L27.72 223.32L28.98 222.43L28.71 219.85L28.26 219.45L28.53 218.66L25.66 212.62L26.38 212.22L26.2 210.83L24.94 210.04L22.42 210.14L19.19 212.72L17.84 212.13L16.85 212.23L16.22 211.64V210.55L15.32 210.35L14.96 209.76L16.94 206.19L16.67 205.79L17.39 204.11L18.29 203.91L19.01 204.41L19.91 203.62L21.53 203.72L22.25 203.13L22.16 202.04L22.7 201.74L23.69 201.94V202.44L22.97 202.94L23.15 203.63L24.05 203.23L24.77 201.45L26.3 201.85L28.55 201.45L29.09 202.64L30.8 204.52L31.16 204.42L29.18 202.24L28.82 200.85L31.07 200.75L32.51 201.34L32.42 200.84L30.62 200.15L30.53 199.36L31.07 199.46L30.53 198.47L29.09 197.88L30.98 197.38L31.25 196.49L31.79 196.29L30.98 195.2V194.51L31.79 194.01L30.98 192.42L31.25 191.43L32.06 190.83L32.87 191.03L32.42 191.53L32.33 192.92L33.23 195.7L35.48 196L35.93 195.5L37.46 195.4L38.27 195.9L38.9 197.39L38.72 198.08L39.62 198.28L39.98 198.97H40.52L40.7 198.18L41.15 198.08L43.13 198.87L42.95 201.05L42.59 201.25L42.95 202.84L42.41 204.33L41.15 205.72L41.33 207.01L40.43 209.09L40.52 210.08L39.26 212.76L38 213.35L36.47 215.73L36.92 216.52L36.65 219.1L38.18 220.09L39.8 219.79L39.71 221.18L40.52 223.06L39.17 229.8L39.98 230.59L40.61 230L42.77 229.7L43.13 230.69L42.5 230.59L42.41 231.18L43.13 232.27L44.39 231.87L44.57 232.37L46.46 232.47L46.55 234.05L48.08 234.74L49.25 236.13L48.62 239L52.22 241.48L52.4 240.89L53.21 240.99L53.3 240.1L51.32 238.02L51.5 237.33L53.48 235.94L54.11 233.76L53.3 232.37L52.31 231.87L51.95 230.68L53.3 229.49L53.12 227.51L53.84 226.22V223.55L56 221.37L54.38 218.99L54.83 217.8L54.02 216.61L55.37 216.11L54.29 215.42H55.73L57.8 213.14L56.72 212.94L57.08 211.95L55.82 210.96L57.26 209.37L57.17 208.97L58.7 209.27L60.14 207.59L59.78 206.4L58.7 205.81L59.33 205.31L59.87 205.61L60.77 205.21L61.04 207.09L62.57 207.49L62.93 206.5L62.75 205.81L62.21 205.71L62.3 204.92L62.57 204.72L62.93 205.42L63.47 204.93L63.2 206.91L64.55 208.1L65.18 210.08L66.17 210.18L66.89 211.37L70.84 211.07L72.37 209.58L71.83 206.11L70.66 205.42L71.11 204.23L72.55 203.44L73.54 201.46L74.8 200.87L75.16 199.88L74.44 199.09L74.62 198.1L73.72 198.4L73.9 199.09L73.36 200.18L70.58 201.57L69.23 201.37L69.32 201.97L66.18 201.57L64.38 200.08L61.69 202.16L60.07 201.76L59.08 202.06L57.82 199.78L55.84 199.38L55.66 198.79L53.77 197.5L52.51 195.22L51.79 195.52L51.88 194.33L50.26 192.55L50.17 191.76L50.35 190.57H51.16L49.9 188.09L50.08 187.2L49.36 183.93L49.72 181.75L50.53 180.76L49.45 178.98L48.73 176.5L49.09 175.71L48.73 175.31L49.45 174.62L48.46 173.13L47.02 172.73L47.92 171.74L47.29 171.44V169.75L47.83 168.36L48.64 167.96L48.73 166.97L50.44 165.98L50.17 163.3L53.14 162.21L53.5 161.42L54.94 160.63L54.85 159.34L55.48 159.04L54.85 158.84V158.15L55.48 157.65L53.77 157.45L54.22 156.46L53.86 155.96H53.05L52.96 154.67L52.24 154.17L51.7 152.68L51.34 150.99L51.7 150.3L51.25 150L52.06 147.92L51.7 146.03L52.33 145.53L51.79 144.84L52.33 144.15L53.14 143.85L53.59 144.15L53.95 143.36L56.11 142.37L56.74 141.48L56.56 140.88L57.46 140.68L59.08 135.72L60.22 135.03ZM233.57 333.64L237.88 340.16L239.27 338.72L235.5 332.54L233.57 333.64Z" fill="#CCCCCC" stroke="white" stroke-width="0.5"/>
<path d="M167.771 212.88L184.901 223.04L215.841 221.25L214.121 240.31L214.411 262.99L215.471 267.97L226.931 293.11L227.421 295.15L224.421 296.86L223.081 293.74L221.491 292.36L218.221 292.15L217.161 292.57L218.171 297.12L211.381 297.02L211.371 288.81L198.781 284.5L189.661 283.48L167.721 282.94L167.771 212.88Z" fill="#CCCCCC" stroke="white" stroke-width="0.5"/>
<path d="M160.5 550.04L160.32 552.1L159.69 552L159.06 550.62L160.5 550.04ZM276.59 340.03L276.68 341.91L277.49 342.9L277.76 344.28L278.66 345.07V345.76H279.65L281.63 347.83L282.71 348.13L282.89 349.41L284.42 349.81L284.24 350.6L283.34 350.11L282.53 350.51L282.35 353.08L282.89 355.85L281.72 357.63L282.08 358.72L281.45 359.41V360.2L281.99 360.69L279.83 361.68L280.64 362.57L279.92 363.16V363.95L281.81 365.23L282.08 366.22L280.37 364.54L279.56 364.74L278.93 365.63L279.29 366.72L281.09 368L283.16 371.36L282.89 373.24L281.63 376.1L282.89 379.95L282.71 384.19L282.08 386.56L283.25 390.8L282.71 391.29L282.53 393.76L281.99 395.54L281 396.73L280.64 398.7L280.19 398.8L279.92 400.08L279.02 399.88L278.57 400.37L280.37 403.92L281.63 411.12L282.44 412.7L285.5 415.96L284.78 418.62L284.15 419.11L283.7 423.15L282.26 424.92L280.19 425.51L278.03 429.26L276.77 428.77L275.96 429.85L274.97 429.75L271.38 433.1L270.48 434.78L270.3 436.26L272.73 436.85L273.63 436.06L274.71 437.24L273.72 440.2L270.84 443.75L270.48 445.43L269.04 447.3L266.97 451.44L267.87 452.62L267.33 452.72L266.43 451.83L265.89 452.91L266.97 453.99L265.71 453.3L263.73 456.75L264.45 457.64L264.27 458.13L263.73 458.23L263.46 457.54L262.38 457.24L262.02 457.93L262.38 459.01L261.39 460.19H260.58L256.72 465.61H256.27L254.65 468.76L253.21 470.24L252.31 470.44L248.63 473.2L247.1 475.47L244.94 481.87L241.17 488.57L240.45 495.56L237.75 500.48L237.84 507.57L237.39 509.34L236.58 511.6L234.6 514.26L233.61 516.42L230.47 520.36L227.6 526.17L227.06 529.71L224.63 536.3L224.36 539.35L222.29 545.74L221.03 546.92L220.22 547.12V546.6L219.05 546.9L217.07 551.03L214.91 551.62L212.93 551.52L210.95 552.6L209.06 552.8L209.33 551.33L208.79 549.86L208.7 550.55L208.25 550.65L208.7 552.71H207.53L207.26 552.12L206.09 552.81V554.97L203.66 561.36L203.93 564.41L203.48 564.9L204.2 567.46L203.75 567.56H202.76L203.03 569.82L202.58 570.02L202.67 571.59L201.32 572.38H199.52L198.98 572.78L198.35 574.06L197.45 574.16L195.74 575.54L195.02 577.01L191.7 580.35L190.53 580.65H189.36L189.27 580.26L190.53 579.57L191.25 574.36L190.35 572.59L188.82 571.71L188.64 567.39L187.47 566.7L187.02 565.23L187.56 563.75L187.47 561.29L188.64 560.5L190.44 561.09L190.08 561.78L190.26 563.06L191.97 563.65L192.15 564.73L193.23 565.03L192.6 560.12L194.4 559.43L194.04 561.59L193.23 562.18L193.41 563.46L193.95 562.97L194.4 561.1L196.29 559.43L196.92 558.05L196.47 556.97L196.83 556.18L196.47 554.8L197.28 551.26L196.47 550.38L195.66 551.17L195.84 553.04L195.12 552.74L195.39 555.89H194.85L194.22 554.91L194.4 556.38L195.03 557.36L194.67 558.54L192.33 559.82V557.07L193.23 554.81L193.59 550.29L192.96 549.8L193.41 549.01L192.87 548.62L192.78 547.54L193.95 546.95L194.04 545.28L193.14 545.18L192.78 546.56L192.15 546.46L190.26 551.57L189.54 551.37L190.26 552.26L191.07 552.16L191.43 553.34L192.33 553.83V554.22L191.07 553.83L191.97 555.21L190.71 554.82L190.44 555.41L189.72 555.31L189.27 553.64L187.29 550.89L187.74 550.2H187.2L187.02 549.71L185.94 550.3L186.3 551.78L185.31 551.98L184.05 549.72L184.23 551.69L183.06 550.71L183.15 549.92L182.34 549.33L181.89 550.41L181.17 549.92L181.53 551.59L180.72 551.79L178.92 549.53L179.1 548.06L178.02 547.67L177.84 547.18L176.76 547.97L176.13 549.35L176.49 549.45L176.13 551.71L174.69 553.09L174.96 554.76L174.42 555.06L174.15 553.98L173.52 553.88L173.61 552.21L174.51 551.13L175.14 551.72L175.77 548.87L176.85 547.1L176.76 545.63L177.3 544.45L176.67 543.56L176.58 540.51L176.04 539.53L174.69 540.32L175.77 542.39L175.86 543.47L175.5 543.96L174.96 542.88L174.15 542.59L174.06 542.1L173.61 542.2L173.97 544.46L174.24 544.85L173.79 544.95L173.43 548.49L171.18 550.36H170.82L171.18 549.57L171 547.7L169.83 545.93H168.66L165.97 547.21L165.52 548.1L165.7 549.48L163.27 547.91L160.49 548.21L159.5 548.8L158.87 550.47L158.15 550.57L157.07 551.65L155.45 550.96V549.58L154.82 548.89L154.1 550.37L153.29 550.17L153.11 550.66L153.65 551.55L154.37 551.35L154.46 551.84L152.48 552.73L152.39 553.71L151.76 553.81L151.49 554.6V554.9H153.29L153.38 555.59L152.48 556.48V557.37L152.84 557.47L152.8 558.53L153.75 559.21L155.76 560.3L156.82 560L158.28 561.11L159.8 561.26L162.61 560.89L164.39 561.24L167.9 559.75L169.15 560.36L169.97 561.67L170.85 561.82L173.04 560.28L173.43 560.81L172.99 561.47L173.04 563.59L176.3 564.7L178.12 568.74L180.38 567.78L180.82 565.58L181.34 565.4L182.45 566.41L182.94 568.03L182.57 569.11L180.42 571L179.99 573.15L178.64 575.77L179.32 582.71L178.95 587.29L179.26 590.66L177.04 593.96L177.67 597.72L178.77 598.94L119.41 612.8L118.93 583.12L118.49 425.47H150.53L150.76 383.6L183.7 392.98L212.7 402.8L214.93 403.98L215.05 379.79L208.85 373.19L218.48 369.07L220.63 367.46L233.33 362.3L246.03 357.7L255.81 353.37L253.41 345.11L257.28 343.86L266.16 340.99L276.5 340.11H276.59V340.03Z" fill="#CCCCCC" stroke="white" stroke-width="0.5"/>
<path d="M259.34 199.71L259.43 201.39L258.8 202.98L257.9 202.58L256.1 204.17L254.94 203.67L252.69 204.86L249.9 204.66L248.38 206.55L249.1 207.94L245.95 207.64L244.78 207.84L244.51 208.43H243.52L242.81 209.72L241.55 210.21L241.28 211.8L240.38 212.69L240.29 213.88L240.92 214.18L240.74 214.87L241.1 215.27L240.56 215.47L240.02 217.05L240.38 217.65L239.48 218.24L239.93 219.73L240.74 220.22L240.29 221.41L240.74 222.01L242.18 221.41L243.61 221.71L242.72 222.9L242.54 225.87H241.37L240.83 227.16L240.56 229.73L239.12 234.78L238.49 236.07L237.41 236.37L236.07 238.94L235.98 241.32L236.52 243.89L238.4 245.28L239.3 245.38L239.84 246.76L240.92 247.36L241.1 250.82L242.09 253.3L244.33 253.89L244.78 254.59L245.95 254.98L249.81 252.9L251.61 252.41L255.65 253.5L254.67 253.89L252.24 252.71L250.53 252.9L246.4 255.18L247.57 256.39H235.73L239.98 276.83L242.26 283.07L226.93 293.11L215.47 267.97L214.41 262.99L214.12 240.31L215.84 221.25L211.92 200.76L213.88 200.88L216.19 200.25L223.35 193.11L226 192.48L230.28 189.93L241.71 195.53L251.87 196.04L259.52 198.92L259.34 199.71Z" fill="#CCCCCC" stroke="white" stroke-width="0.5"/>
</svg>
