<svg width="614" height="286" viewBox="0 0 614 286" fill="none" xmlns="http://www.w3.org/2000/svg">
<path d="M398.974 208.796L392.762 228.938L390.589 228.786L388.425 230.173L387.057 232.069L386.101 234.656L385.205 234.908L384.22 243.12L383.008 248.184L381.965 247.687L381.719 247.014L380.737 246.129L380.857 245.881L379.774 245.016L379.29 245.139L378.925 245.511H378.441L376.874 244.768L375.666 243.731L374.57 242.203L373.773 241.866L372.883 240.807L373.002 240.312L372.644 239.57L371.914 238.828L372.04 238.209L372.398 237.838L372.04 236.6L369.258 233.876L369.013 232.763L368.655 232.267L368.535 230.29L367.805 228.554V228.06L368.051 227.812L367.805 227.07L366.113 224.966L365.754 224.842L365.03 224.1L364.426 223.853L363.456 222.615L363.217 221.626L362.733 221.132L361.763 220.884L361.405 221.132L361.272 221.476L360.416 221.782L360.11 222.179L359.832 222.244L360.436 225.091L360.921 225.71L361.498 225.977L361.558 226.374L361.226 226.618L359.952 226.823L359.613 227.141L359.307 227.875L358.139 228.68L358.019 229.051L357.601 229.344L357.382 229.314L357.295 228.886L357.017 228.671L355.961 228.927L355.117 227.195L354.633 226.7V226.453L354.998 226.329L355.482 225.587L355.582 224.339L355.356 223.851L354.877 223.606L354.393 223.359L354.028 223.482L353.544 223.112V221.875L352.7 221.38H351.85L350.655 221.904L349.426 221.811L349.12 221.322L349.612 220.222L349.399 219.213L348.144 218.571L346.922 218.602L346.158 218.02L346.032 217.44L346.404 216.982L345.393 215.027L342.934 214.894L341.769 213.304L336.862 210.736L335.892 210.365H335.414L334.444 209.251L332.997 209.375L331.424 209.003L330.82 208.509L329.731 208.139L327.314 207.273L325.255 205.292L324.897 204.55L324.204 203.84L328.941 198.506L335.557 199.116L339.254 195.2L339.567 195.176L342.928 194.911L347.216 194.573L345.757 193.232L340.215 186.265L335.891 174.488L338.435 172.508L339.524 172.385L341.211 172.508L342.061 172.262L342.512 171.796L342.904 171.89L344.239 173.003L345.686 173.621L346.29 174.116L351.004 174.24L351.974 173.993L353.421 174.116L354.025 173.869L354.629 174.116H355.233L357.291 173.869L357.895 173.498L358.804 173.462L359.462 173.745L360.252 173.498L361.64 173.621L362.729 173.498L363.213 173.869L363.571 173.621L364.66 173.374L365.264 172.879H365.629L366.718 172.262L368.285 170.529L369.254 170.283L370.582 168.799L370.947 168.675L371.551 168.057L372.155 167.933L372.393 168.18L374.691 167.685L375.899 166.696L376.019 166.077L376.503 165.583L377.107 165.459L377.472 165.707L378.919 165.831L379.643 165.707L380.978 165.212L382.067 164.1L382.545 164.224L383.515 163.976L384.239 163.605L384.843 162.863L385.208 162.987L387.84 176.599L392.24 183.354L390.17 201.901L391.953 204.39L394.182 206.683L396.771 206.418L398.974 208.796ZM326.169 196.725L329.549 195.496L327.77 193.267L330.466 189.97L325.333 184.922L324.29 186.36L324.045 187.102L323.441 187.967L321.15 189.328L324.45 195.623L326.169 196.725Z" fill="#CCCCCC" stroke="white" stroke-width="0.5"/>
<path d="M305.965 181.771L307.1 183.857L306.788 184.784L306.742 185.722L305.441 187.374L305.268 187.839L305.494 188.385L305.148 188.668L304.325 187.864L303.183 187.245L302.459 187.127L300.46 185.973L299.783 184.952L299.63 184.182L299.743 183.258L299.385 182.477L298.721 181.963L297.845 182.072L297.626 181.529L297.652 181.258L298.07 180.951L301.045 180.095L301.795 180.039L303.98 179.234L304.923 179.96L305.109 180.204L305.195 181.009L305.965 181.771ZM286.019 169.341L283.828 169.635L283.43 170.064L283.397 170.857L282.846 172.018L283.092 173.423L284.712 174.461H285.323L286.067 174.06L286.844 173.38L287.574 172.036L287.514 170.509L286.019 169.341ZM345.756 193.228L340.214 186.261L335.89 174.484L335.286 174.36H335.047L334.682 174.73L334.443 175.473L333.474 176.585L332.749 177.822L332.63 178.687L332.749 178.811L332.391 179.43L330.213 181.409H329.848L327.431 182.646L325.984 183.758L325.334 184.919L330.467 189.967L327.771 193.264L329.55 195.493L326.17 196.722L324.45 195.619L321.15 189.324L320.42 190.066L319.172 190.576L319.696 191.675L319.577 194.15L320.905 195.511L321.509 197.49L322.479 199.097L322.36 199.84L322.114 200.21L322.234 200.83L321.875 201.696V202.314L322.234 202.933L324.203 203.83L328.94 198.496L335.556 199.106L339.253 195.19L339.566 195.166L342.927 194.901L347.215 194.563L345.756 193.228Z" fill="#CCCCCC" stroke="white" stroke-width="0.5"/>
<path d="M608.668 282.232L608.635 283.583L608.827 283.891L609.677 284.139L609.551 284.756L608.947 284.632L608.297 284.217L607.693 284.277L607.202 283.717L605.807 282.899L605.927 282.404L606.292 282.405L607.5 281.414L608.344 281.662L608.668 282.232ZM602.539 276.089L604.206 276.586L604.477 277.079L603.528 277.704L603.588 278.364L604.186 279.076L605.129 278.977L605.175 279.178L604.378 280.939L603.993 281.289H603.269L602.904 281.661L602.42 281.507L602.359 281.133L601.483 280.952L600.546 279.894L600.247 279.802L600.274 279.461L599.35 278.577L599.736 277.594L599.643 276.954L600.094 276.336L601.209 276.212L601.455 276.336L602.539 276.089ZM605.806 261.975L605.534 262.1L604.964 261.697L604.479 260.737L604.419 259.776L604.838 259.004L605.927 258.385L606.172 258.757L605.866 259.436L605.806 261.975ZM612.725 257.688L612.108 257.604L611.577 256.961L611.61 256.031L612.334 255.537L613.091 255.66L612.939 256.031L612.375 256.374L612.255 256.679L612.674 257.188L612.725 257.688ZM496.7 188.648L497.284 190.053L498.221 190.664L499.257 191L501.003 192.986L501.973 193.656L503.055 193.881L503.911 194.86L504.794 194.952L505.479 194.772L507.351 193.255L507.749 193.224L508.141 193.535L509.104 193.657L509.469 193.905L509.953 193.535H510.311L511.546 194.054L512.13 194.787L512.217 195.856L513.446 196.681L513.698 197.741L514.182 198.359L514.667 198.731H515.391L515.63 198.977L516.234 198.855L517.449 197.741L517.928 196.998L518.778 196.752L519.382 196.009L519.866 195.885L520.949 194.649L521.433 193.783L522.157 193.164H522.403L523.127 194.031L523.851 193.906L524.096 194.154H524.581L525.424 193.658L525.789 193.783L526.393 193.658L526.997 194.031L527.84 193.906L526.274 200.043L524.634 203.199L523.78 206.759L523.434 211.039L524.9 212.011L526.319 211.604L526.732 210.789L527.454 209.043L527.586 205.954L529.685 200.111L529.817 197.492L530.775 196.393L531.745 195.886L532.07 196.01L532.435 196.505L532.19 197.123L531.227 198.36L530.862 199.474L530.981 200.339L531.227 200.711L531.107 201.453L531.711 201.948L533.039 202.196L534.009 202.071L534.852 201.329L535.696 201.825H536.18L536.545 201.453L536.784 200.587L537.753 199.845L538.357 200.463L538.238 202.319L537.992 202.779L537.959 203.512L538.391 203.695L539.733 203.665L539.885 204.338L539.766 205.102L539.885 206.6L540.775 206.65L541.984 205.784L542.348 206.032L541 208.831L541.126 209.991L542.468 210.755L544.665 210.863L545.343 210.418L545.376 209.807L546.545 209.676L547.302 209.249L547.972 209.555L548.344 210.35L548.922 210.655L548.982 211.724L548.617 212.153L548.862 212.459L549.234 212.467L550.263 211.698L550.569 211.668L550.841 211.943L551.153 211.973L551.976 211.424L552.74 211.21L552.86 211.393L552.38 211.756L552.159 213.502L551.372 214.648L547.934 217.343L544.104 217.516L541.205 217.261L528.614 229.474L528.78 231.17L534.744 235.75L536.649 236.683L539.051 236.768L541.039 231.17L545.761 231.255L551.89 232.696L556.695 237.616L562.78 237.443L564.067 237.955L566.303 240.076H568.291L577.135 231.579L577.161 232.392L578.395 233.297L579.332 233.258L579.936 233.753L579.816 234.619L580.181 235.238L581.39 234.989L581.994 235.484L582.114 235.98L581.51 236.599V237.094L581.749 237.341L581.629 238.579L582.48 239.569L583.443 239.568L584.412 240.311L585.714 240.457L586.106 240.187L586.345 239.445H586.584L587.095 239.747L587.308 240.511L587.614 240.879L588.151 240.956L588.762 240.063L588.542 238.946L588.662 238.243L589.12 238.335L589.485 238.703L589.73 238.455L590.334 238.579L590.692 238.331L591.422 238.827L591.901 238.703L593.135 239.346L593.806 239.316L594.325 239.57L595.115 241.559L594.902 242.538L595.513 242.782L596.375 243.655L595.532 244.52L595.651 245.139L596.009 245.511H596.374L596.879 245.111H597.218L597.464 245.356L597.583 246.377L598.672 247.367L599.276 247.614L600 248.233V249.224L600.85 250.585L601.063 251.324L601.727 252.163L601.301 253.556L601.454 254.174L601.341 255.349L601.813 256.651L601.694 257.146L601.813 258.817L601.694 259.375L600.85 260.984L599.88 261.851L598.672 263.955L598.188 264.45L597.617 265.68L597.039 268.013L596.495 268.659L596.375 269.403L595.891 270.021L595.865 271.042L596.044 271.382L596.895 271.628L597.346 272.126L597.101 272.372L596.497 272.126L595.866 272.124L594.87 271.69L594.08 271.629L592.752 271.01H588.157L587.433 270.515L586.829 270.391L586.464 270.515L585.86 270.268L584.061 270.336L583.178 271.095L582.74 271.229L581.837 270.269L580.496 269.786L577.847 269.163L573.113 268.445L571.161 268.51L569.959 268.93L567.781 269.292L565.132 269.512L564.403 269.16L563.141 269.148L562.171 268.903L561.395 269.03L560.71 268.91L559.522 269.332L556.594 268.194L554.834 268.75L553.067 269.622L552.264 270.224L551.048 270.515L549.88 270.11L549.574 270.171L549.142 270.629L548.16 269.713L546.327 269.908L545.298 270.272L544.495 270.195L543.884 270.598L542.842 270.428L542.589 270.858L541.62 270.762L540.895 270.02H540.171L539.567 270.268L536.997 270.423L534.447 270.271L533.969 270.421L533.279 271.01H532.675L531.832 270.639L531.579 269.875L531.008 269.544L529.103 269.422L527.689 269.632L522.921 268.87L521.818 268.284L520.71 266.677L520.106 266.429L519.389 266.448L518.446 265.744L515.691 266.924L514.064 267.42L513.699 267.296L511.401 267.762L509.469 267.792L507.636 268.399L506.694 268.434L503.992 269.199L502.969 269.721L501.581 270.009L500.857 269.255L498.6 268.534L494.151 268.51L491.342 267.899L490.744 267.551L489.888 266.56L488.74 266.2L487.724 266.199L486.655 264.722L484.112 263.478L481.436 263.468L480.619 263.742L480.101 264.7L480.22 265.315L479.736 265.933L478.196 265.688L475.732 266.322L475.234 266.099L474.79 266.182L474.232 266.455L473.341 267.661L472.053 268.395L472.077 222.687L475.539 216.944L480.199 206.132L481.907 201.68L483.466 194.284L483.155 189.575L483.52 188.575L485.418 189.245L487.105 189.447L487.577 189.765L488.221 189.581L489.105 188.879L490.054 188.757L491.461 189.074L492.67 188.704L495.725 188.765L495.97 188.735L496.488 188.124L496.827 188.186L496.7 188.648Z" fill="#CCCCCC" stroke="white" stroke-width="0.5"/>
<path d="M252.368 58.767L255.874 61.238L256.359 61.485L257.328 61.609L257.567 61.856H258.051L259.014 62.351L260.07 63.897L259.247 64.859L258.244 64.609L258.018 64.655L257.865 65.004L259.273 67.004L261.072 68.742L261.916 70.012L262.042 70.383L261.916 71.247L262.52 72.36L262.646 73.595L263.37 74.955L263.974 78.292L264.818 79.898L264.997 81.378L265.541 81.381L266.59 82.391L266.444 83.186L265.807 84.294L265.847 84.865L265.276 85.396L265.004 86.007L265.096 86.494L266.159 87.735L267.507 88.793L267.693 89.19L267.5 90.193L268.137 91.099L268.748 91.188L269.06 91.649L269.107 93.586L269.718 95.569L272.194 99.862L273.489 101.235L274.711 101.609L275.402 102.421L275.136 103.416L274.405 103.805L274.153 104.499L274.147 105.441L273.649 105.953L273.031 107.136L271.198 108.586L270.82 109.368L268.875 110.48L268.695 110.945L268.204 111.188L267.606 111.818L267.069 111.967L266.856 113.274L265.681 114.365L265.249 115.191L264.592 115.803L264.645 116.4L265.096 117.222L264.074 118.228L262.998 118.713L262.659 119.124L262.812 119.909L263.45 120.086L263.669 121.068L262.786 121.859L262.679 122.559L263.489 123.015L264.432 123.035L265.316 123.821L265.72 124.477L265.88 125.825L265.754 126.302L264.871 127.207L262.912 128.113L261.518 129.449L259.858 130.214L258.981 131.006L257.739 131.32L256.631 132.445L255.754 132.662L255.422 132.937L256.518 135.641L256.505 136.679L256.438 136.942L254.938 138.217L254.446 139.107L254.44 139.435L255.263 140.71L255.376 141.373L255.654 141.588L255.787 142.51L258.078 145.453L258.217 147.177L258.59 148.277L258.47 150.212L259.014 151.534L258.915 152.464L258.184 153.087L257.852 153.891L258.383 155.46L258.051 157.022L257.64 157.593L255.615 158.43L255.07 158.855L242.758 142.185L240.687 136.889L235.443 136.236L203.412 86.525L220.186 51.806L248.703 52.035L250.196 52.84L251.664 53.208L252.368 54.196L252.487 55.432L252.009 56.543L252.129 57.037L252.009 57.654L252.368 58.767Z" fill="#CCCCCC" stroke="white" stroke-width="0.5"/>
<path d="M392.762 228.938L390.815 252.829L386.905 252.441L386.201 251.724L385.331 251.328L384.86 250.847L384.965 250.338L384.407 249.365L383.007 248.183L384.219 243.119L385.204 234.907L386.1 234.655L387.056 232.068L388.424 230.172L390.588 228.785L392.762 228.938ZM410.223 159.558L410.35 159.764L411.319 160.04L411.22 187.727L408.01 184.123L407.803 171.514L403.558 163.144L403.598 160.259H403.949L404.673 159.764L405.277 159.888L406.485 159.764L407.21 160.506L407.575 160.134L408.179 160.012L408.537 159.64V159.392L409.261 158.877L409.839 158.938L410.223 159.558ZM196.314 1.08002L196.978 1.09802L198.054 1.56L200.345 2.022L202.449 3.05701L202.934 3.552L204.382 4.41602L206.075 4.539L207.283 5.28L208.252 5.15604L208.611 4.785V4.41602L208.126 3.92001L205.955 2.81L204.78 2.83102L205.145 2.16L205.882 2.00702L206.433 2.19101L209.215 3.67502L210.423 4.69202L214.048 6.392L217.986 9.66202L219.32 12.196L221.365 14.438L222.78 16.468L224.639 18.572L226.146 22.042L227.667 24.797L228.484 25.642L229.991 26.731L230.675 27.725L231.093 28.823L231.969 30.015L232.892 30.836L233.988 31.347L235.203 31.218L236.053 31.836L236.471 32.496L236.305 33.839L236.717 34.7L237.288 35.131L237.188 35.819L238.098 36.417L238.828 37.991L239.518 38.509L240.428 39.725L243.343 42.022L243.463 42.621L244.027 43.417L247.414 47.08L248.091 48.815L248.097 50.408L248.701 52.038L220.184 51.809L203.41 86.528L189.888 85.214L169.863 83.353L171.414 78.046L189.773 4.91202L192.515 5.21902L192.913 5.09799L193.935 2.88303L194.845 2.448L195.668 1L196.314 1.08002Z" fill="#CCCCCC" stroke="white" stroke-width="0.5"/>
<path d="M183.4 4.043L184.582 3.80103L186.62 3.81702L188.074 4.64801L189.774 4.90799L171.415 78.042L169.864 83.349H151.848L150.599 81.64L146.671 79.961L126.998 80.173L124.72 81.232L122.235 81.02L119.75 79.961L116.437 79.749L114.573 80.385L112.709 80.596L110.224 79.961L103.157 79.315L90.2228 74.59L81.3438 70.326L82.4017 24.919L84.5718 24.176L86.0127 24.297L87.2617 24.896L88.1978 24.774L88.9678 24.366L90.2897 24.267L92.1748 25.144L93.9017 25.498L94.8508 25.956H95.5807L96.2848 25.59L98.2767 23.4L99.3528 22.641L102.899 21.518L106.039 19.877L110.222 19.353L112.765 17.569L114.339 16.735L115.474 16.446L117.998 16.439L119.412 15.675L120.819 15.69L121.364 15.781L122.898 16.818L125.68 16.971L127.539 17.611L129.159 16.777L130.6 15.689L131.357 15.432L132.891 15.531L133.8 15.373L134.73 14.858L135.015 14.181L135.991 13.483L136.509 13.36L137.731 13.483L138.74 13.119L140.646 10.98L141.244 10.659L142.804 10.414L144.358 10.718L145.46 11.793L146.682 12.647L147.598 13.174L149.046 13.625L151.403 13.523L152.751 12.816L153.355 12.712L155.015 13.449L155.858 14.041L156.356 14.027L157.458 13.444L158.195 13.532L159.47 13.35L160.559 13.678L164.323 13.431L166.183 13.555L167.391 13.06L168.308 12.193L168.825 10.018L169.801 8.241L170.173 7.017L170.207 5.94803L170.512 5.36899L171.488 5.522L172.012 5.79703L172.471 5.431L174.416 5.90799L176.621 5.41202L179.137 4.435L181.169 4.151L182.358 3.71002L183.4 4.043Z" fill="#CCCCCC" stroke="white" stroke-width="0.5"/>
<path d="M203.412 86.525L235.443 136.237L240.687 136.889L242.758 142.185L255.071 158.855L254.659 160.088L253.265 161.683L252.269 162.457L249.56 162.719L248.119 162.412L247.575 162.016L246.426 162.376L245.112 163.116L244.322 162.749L244.05 162.043L243.253 161.101L241.992 160.317L241.7 159.655L241.395 159.411L240.472 159.167L239.648 159.196L238.3 160.172L236.879 160.591L235.026 160.289L233.625 159.557L232.669 158.786L232.443 158.221L232.41 156.682L231.58 155.715L229.847 152.984L228.021 151.789L227.204 149.861L226.938 149.544L225.796 148.944L225.557 148.13L226.141 148.002L226.593 147.621L226.613 146.577L226.241 145.565L225.232 145.036L224.986 144.668L224.827 143.949L225.159 143.358L225.126 143.083L224.874 142.917L224.316 142.96L222.995 143.634L222.384 142.979L221.707 143.304L220.432 143.557L216.468 141.502L214.562 142.805L212.981 143.53L211.514 143.496L211.475 143.057L205.264 126.91L201.226 120.396L189.705 85.196L189.891 85.214L203.412 86.525ZM103.157 79.315L110.224 79.961L112.709 80.596L114.573 80.385L116.437 79.749L119.75 79.961L122.235 81.02L124.72 81.232L126.998 80.173L146.671 79.961L150.599 81.64L151.848 83.349H169.864L181.101 84.393L192.102 139.097L195.249 143.249L194.906 149.464L193.81 149.952L192.854 149.994L191.486 149.413L191.24 149.688V150.298L189.899 151.021L188.618 152.076L187.921 152.077L186.733 151.229L185.657 151.507L184.442 151.113L183.16 151.57L183.127 151.968L182.895 152.209L181.527 152.891L180.87 153.55L179.662 153.916L178.474 153.989L177.332 154.54L176.31 154.325L175.261 154.683L174.252 154.677L173.303 154.379L171.663 152.982L170.746 153.002L169.71 153.607L169.059 154.538L168.282 155.108L167.293 154.959L164.172 156.03L163.043 156.28L161.43 156.303L160.487 156.651L156.948 156.695L156.191 157.067L154.697 158.755L153.787 159.05L152.386 158.741L148.615 155.966L147.44 155.708L146.045 156.069L145.162 155.632L144.425 155.571L143.973 155.796L143.05 157.039L141.363 157.802L140.108 159.06L138.289 160.227L137.161 160.398L135.806 160.308L134.233 160.621L132.473 160.409L131.583 160.686L130.334 160.739L129.856 160.664L128.389 159.512L127.805 159.352L127.393 159.919L127.015 161.34L126.199 162.446L124.585 162.535L123.43 162.133L122.74 162.196L121.312 162.936L119.666 162.693L118.65 161.951L117.495 161.958L116.167 161.479L115.277 160.769L113.783 160.179L112.774 159.398L112.402 158.666L112.024 157.064L111.101 155.993L110.749 155.14L111.181 153.266L111.042 152.531L110.624 151.646L109.834 150.885L108.28 149.885L106.693 149.508L102.809 147.304L100.007 146.328L99.456 145.81L99.124 145.164L99.064 143.887L98.241 143.184L97.411 141.953L97.557 138.936L97.199 138.124L97.186 137.599L96.23 136.923L94.138 136.379L93.175 135.4L92.149 134.756L91.518 133.814L91.359 131.491L91.711 129.587L91.366 127.983L91.266 126.204L91.89 125.662L91.983 125.314L91.333 123.439L90.197 121.582L90.157 121.06L89.187 120.196L88.171 119.828L87.254 119.126L86.378 118.999L86.252 118.846L86.65 118.266L86.53 117.993L85.063 116.491L84.757 116.369L84.253 116.537L84.093 116.41L84.08 115.935L81.125 114.998L103.157 79.315Z" fill="#CCCCCC" stroke="white" stroke-width="0.5"/>
<path d="M209.169 149.069L208.711 149.842L207.27 151.404L206.333 151.898L204.806 151.317L202.449 151.501L201.048 151.807L199.149 151.533L198.485 151.092L197.841 149.557L196.865 149.191L195.975 149.16L194.906 149.466L195.249 143.251L192.102 139.099L181.101 84.395L189.704 85.195L201.225 120.395L205.263 126.909L211.474 143.056L211.513 143.495L210.583 144.064L210.118 145.957L209.388 146.263L209.202 146.569L209.368 147.918L209.169 149.069ZM103.157 79.315L81.1271 114.996L79.8121 114.189L78.8561 113.239L78.5771 112.624L78.5311 111.97L78.2591 111.62L75.4301 110.135L75.1781 109.642L75.1911 108.774L74.0621 107.553L72.8671 105.691L71.4661 104.589L69.8731 102.447L69.6931 100.509L69.3881 99.442L68.9301 98.861L67.9211 98.433L67.0111 97.641L66.5001 97.562L65.9561 96.514L65.6901 96.188L65.3251 96.151L64.9331 95.825L64.5951 95.209L63.6191 95.465L63.0551 95.416L62.2851 94.341L61.3351 94.189L60.6051 93.77L60.1471 93.18L60.0271 92.48L59.5291 91.479L59.0711 91.339L58.6791 90.721L58.5991 89.898L58.1871 88.837L57.6691 88.38L56.2351 88.061L55.2591 87.106L55.1061 86.831L55.5041 86.161L55.6431 84.827L55.5231 84.126L55.3511 83.779L54.4551 83.325L53.7851 82.502L53.3401 81.15L52.5161 80.661L51.3011 80.366L50.8691 80.518L49.6611 81.629L48.9371 80.888L48.9141 80.359L60.3371 59.326L81.2391 70.278L90.2231 74.591L103.157 79.315Z" fill="#CCCCCC" stroke="white" stroke-width="0.5"/>
<path d="M461.488 174.733L461.103 174.786L460.817 174.44L460.81 173.908L460.983 173.745L461.568 173.904L461.92 174.264L461.899 174.484L461.488 174.733ZM425.301 158.981L426.065 159.64L426.304 160.506L426.788 161.124L427.512 160.753H427.877L428.116 160.506L429.086 161.248L429.73 161.218L429.943 161.431L430.095 162.226L431.018 163.228L431.383 163.475L431.868 163.228L432.784 163.319L433.123 163.87L433.887 164.144L434.192 164.724L434.77 164.846L434.836 166.373L434.497 167.015L434.404 167.803L435.008 168.422H435.871L436.389 168.941L437.067 169.003L437.611 169.797L437.398 170.347L437.677 170.531L438.713 170.593L439.483 170.404L440.692 171.393L441.535 172.382L441.297 172.629L441.655 173.248L443.468 173.124L444.318 173.866L445.281 173.618L446.251 174.237H447.22L448.31 173.371L448.429 172.876L448.183 172.011L446.617 170.404L445.766 168.672L446.37 167.806H446.735L447.944 168.796L448.913 171.146L449.876 172.136L450.241 173.001L451.33 173.867L451.688 173.619L452.053 173.743L452.657 173.496L453.141 174.238V174.608L453.626 175.598L454.589 175.845L455.439 174.486L455.193 173.867L454.469 173.372L454.23 172.63L454.257 171.963L454.689 171.902L455.266 172.268L456.156 172.145L457.975 173.991L458.699 173.867H459.064L459.303 174.114L460.279 173.991L460.618 175.059L461.721 175.227L462.205 175.598L462.729 176.403L462.928 178.568L463.174 179.062L464.263 180.051L465.71 180.175L466.68 179.804L468.851 179.68L470.06 180.175L471.029 181.041L471.753 180.917L471.999 181.164L472.238 182.03L472.477 183.761L473.327 184.628L474.17 184.504L474.535 184.75H475.02L475.378 185.122L476.579 185.642L477.556 188.117L477.675 189.081L478.04 189.453L479.129 189.577L480.942 188.092L481.778 187.968L482.176 187.725L483.518 188.581L483.153 189.581L483.464 194.29L481.905 201.686L480.197 206.138L475.537 216.95L472.075 222.693L472.051 268.401L470.823 268.952L469.502 270.123L467.815 270.351L467.011 270.258L466.361 270.474L464.481 269.943L463.293 269.901L462.111 270.599L461.215 270.768L459.177 269.841L457.742 269.635L456.646 269.698L455.73 270.185L454.648 270.347L454.017 269.924L453.035 269.911L451.985 269.243L451.321 267.683L451.149 266.771L451.719 265.843L452.682 265.277L452.902 264.798L452.423 264.222L451.374 263.467L450.504 263.495L449.681 263.068L449.396 262.065L448.811 261.334L448.778 259.62L448.44 258.487L446.972 257.716L446.521 256.155L446.168 255.837L445.836 255.671L445.112 255.692L445.358 256.364L445.079 256.516L444.681 255.906L444.09 255.669L443.433 254.925L442.318 254.443L440.824 254.632L439.522 254.406L438.035 255.006L436.282 255.075L434.164 254.673L433.075 253.946L430.845 254.209L429.503 253.935L426.848 254.289L426.037 254.13L424.251 252.445L424.132 252.074L422.797 250.465L421.801 249.681L421.376 248.779L419.052 245.39L415.633 245.681L415.241 245.36L414.544 243.564L413.76 243.06L413.076 243.056L412.26 243.539L410.593 245.638L408.9 246.132L408.176 246.009L407.572 246.132L404.79 247.988L402.977 248.607L401.297 249.7L400.799 250.217L400.919 250.341L400.58 250.817L399.816 250.969L399.756 251.518L399.536 251.641L398.501 251.331L395.394 251.641L394.637 251.207L394.179 251.177L393.966 251.362L393.76 252.446L393.335 252.788L392.339 252.818L391.489 253.096L390.811 252.832L392.758 228.941L398.97 208.799L396.77 206.414L394.181 206.679L391.952 204.386L390.169 201.897L392.239 183.35L387.839 176.595L385.207 162.983L386.9 163.231L388.347 162.489H388.831L390.159 161.004L390.405 161.005L391.009 160.51L392.098 160.881L392.942 160.386L393.772 160.253L394.17 161.232L394.754 161.747L395.358 161.871L395.842 161.623H396.446L396.804 161.995L397.415 162.242H399.102L400.071 161.747L400.31 161.253L402.003 159.769H402.733L403.211 160.263L403.591 160.264L403.551 163.149L407.796 171.519L408.003 184.128L411.213 187.732L411.312 160.045L411.803 160.412L411.89 161.144L412.042 161.174L413.005 160.51L413.915 160.57L414.101 159.715L414.466 159.196L415.628 159.012L415.993 159.226L416.053 160.448L416.272 160.894L417.6 160.51L418.743 160.488L419.014 160.274L418.988 159.939L419.26 159.786L420.363 160.366L421.524 159.235L421.711 158.655H421.95L422.434 159.15L423.523 159.025L424.486 158.036H424.731L425.09 158.409L425.301 158.981Z" fill="#CCCCCC" stroke="white" stroke-width="0.5"/>
<path d="M577.136 231.577L568.292 240.074H566.304L564.068 237.953L562.781 237.441L556.696 237.614L551.891 232.694L545.762 231.253L541.04 231.168L539.052 236.766L536.65 236.681L534.745 235.748L528.781 231.168L528.615 229.472L541.206 217.259L544.105 217.514L547.935 217.341L546.972 218.963L540.511 222.238L539.393 223.447L539.548 224.21L540.417 224.401L540.775 224.964H541.14L541.498 224.716L541.863 224.839L545.124 224.716L547.22 223.339L550.323 224.221L551.293 223.726L551.412 223.478L551.047 222.984L551.147 222.67L552.861 221.994L553.963 221.073L554.919 220.633L556.732 218.282L556.971 218.157L557.575 218.405L558.059 218.282L558.544 218.652L558.663 219.024V219.518L558.152 220.843L558.271 221.392L559.991 223.108L560.117 223.478L560.834 223.424L561.445 223.12L562.328 223.211L562.634 223.578L562.541 224.006L562.727 224.097H563.83L564.348 223.602L564.706 223.974L565.277 224.052L565.396 224.265L565.31 225.03L564.102 224.964L563.623 225.212L563.139 225.211L562.368 225.984L561.445 227.686V228.058L561.929 228.552L562.773 228.677L565.435 228.429L565.92 228.8H566.278L566.762 228.429L567.486 228.677L567.971 228.305L568.336 228.429L568.694 228.182L569.298 228.305L569.544 228.058L570.44 228.139L570.898 228.383L571.177 228.995L571.906 229.269L572.338 230.248L572.896 230.004L573.235 229.179L574.112 228.75L574.264 229.147L574.019 230.492L574.257 230.779H574.616L575.784 229.584L576.561 230.099L577.085 230.191L577.136 231.577ZM527.841 193.904L528.93 194.275L529.295 194.771L529.899 195.017L530.862 195.884L531.745 195.883L530.775 196.39L529.817 197.489L529.685 200.108L527.586 205.951L527.454 209.04L526.732 210.786L526.319 211.601L524.9 212.008L523.434 211.036L523.78 206.756L524.634 203.196L526.274 200.04L527.841 193.904Z" fill="#CCCCCC" stroke="white" stroke-width="0.5"/>
<path d="M25.0268 26.418L25.9828 26.385L26.7988 26.725L28.9708 26.946L30.3118 28.524L31.5598 29.14L32.4898 30.821L35.8358 32.724L36.1748 33.345L37.3298 33.565L37.9078 34.399L39.9798 34.886L41.2008 34.495L41.6658 34.569L44.8598 35.687L46.1148 36.419L46.7258 36.175L46.8448 35.656L48.3718 35.319L48.4978 34.832L48.3128 34.252L48.8298 33.947L49.2888 34.009L49.6868 34.618L50.8488 33.947L50.8288 34.478L51.3398 34.588L52.3158 33.703L52.1638 33.216L53.0268 32.123L53.4248 31.909L54.2218 31.849L55.8618 32.543L55.6228 33.729L56.2668 34.407L58.2188 32.864L58.4378 32.186L58.6968 31.945L59.8058 31.884L60.4498 31.201L61.6718 30.43L62.9328 30.106L65.4428 31.481L65.5228 32.092L66.1398 33.204L67.8598 34.207L67.7998 34.818L69.0218 35.55L70.2968 35.21L70.9078 35.503L72.8598 35.444L73.3778 35.807L74.2808 34.822L74.6258 33.999L75.4888 33.317L75.9078 32.601L74.9178 32.407L74.4008 32.042L73.9748 30.521L74.0688 30.014L75.2698 28.68L76.5978 28.386L77.7928 28.583L78.1978 28.455L80.0378 26.963L80.6488 25.876L81.4118 25.323L82.4018 24.919L81.3438 70.326L81.2388 70.277L60.3368 59.324L48.9138 80.358L48.4188 79.687L46.4858 79.26L44.6338 78.455L43.2788 76.946L42.9538 76.196L41.2148 74.955L40.6238 74.877L39.7868 74.008L37.3168 72.632L35.2188 69.122L34.6678 68.786L34.7598 68.329L34.0698 67.169L34.0098 66.196L33.3458 65.811L32.9218 64.736L32.4958 64.401L30.9958 62.12L29.6938 61.285L28.6118 61.359L25.9758 60.353L24.7348 58.527L24.2698 58.114L22.6098 57.448L21.7658 57.644L19.9738 57.363L18.8978 56.522L15.5908 52.866L13.5528 51.226L11.3088 48.883L10.5908 48.408L10.0798 48.422L8.85184 47.863L8.24084 46.373L8.10784 44.579L7.80284 44.304L6.97984 44.17L6.55384 43.689L6.14984 41.863L6.50784 40.846L4.80084 38.973L4.17684 38.572L3.09484 37.255L1.91984 35.381L1.08984 35.123L1.12284 34.85L1.88684 33.977L3.00884 33.402L3.52684 32.609L4.50284 31.878L5.39884 30.694L5.55884 29.688L5.89084 29.261L6.07584 28.437L6.99284 28.162L6.95984 28.406L6.56084 28.682L6.59384 28.986L6.79384 29.036L8.44684 27.12L9.92684 24.424L11.1428 24.885L13.0818 24.235L13.9378 24.582L15.5048 24.697L16.1758 25.495L16.8458 25.679L17.7488 26.524L18.3468 26.686L19.1108 26.48L19.5548 25.996L19.6548 25.033L19.9938 24.246L20.8828 23.47L21.7798 23.312L22.4968 23.693L23.9178 25.788L25.0268 26.418Z" fill="#CCCCCC" stroke="white" stroke-width="0.5"/>
</svg>
