<svg width="614" height="305" viewBox="0 0 614 305" fill="none" xmlns="http://www.w3.org/2000/svg">
<path d="M213.459 142.95L213.899 142.05L215.539 141.3L216.869 139.48L218.829 138.45L219.629 138.64L219.739 140.14L220.449 140.2L220.379 141.45L222.219 141.72L223.339 142.79L224.339 142.85L225.789 141.75L228.199 142.4L231.039 142.03L231.909 140.4L233.539 139.09L234.009 135.46L231.559 133.34L231.049 132.39L230.919 130.95L231.819 129.33L230.979 125.63L231.439 125.14L232.119 125.55L233.249 125.43L234.599 123.72L235.389 120.85L237.239 120.03L237.839 120.06L238.709 120.95L240.029 121.03L240.719 120.71L242.829 121.11L247.749 120.34L248.849 120.77L250.179 120.04L251.589 120.56L253.559 118.65L257.229 117.62L259.269 118.56L259.899 120.13L259.969 122.36L258.359 123.72L258.569 124.33L265.489 123.23L267.569 118.72L272.639 112.87H279.379L281.029 112.45L284.669 110.5L287.759 110.91L289.269 109.87L290.679 110.7L292.239 110.75L294.479 111.59L295.269 112.63L298.019 114.62L299.499 115.17L302.619 117.7H305.659L310.439 115.95L311.959 117.75L313.779 116.64L314.999 116.6L317.299 115.15L319.659 115.24L320.269 116.09L321.399 116.53L326.169 115.87L334.279 116.24L336.819 114.81L338.729 116.79L344.009 117.28L345.229 118.81L354.159 120.11L356.099 118.78L357.629 116.19L359.829 118.25L361.369 118.04L362.679 118.44L365.469 121.52L366.949 121.99L365.549 122.63L364.459 126.57L360.029 130.64L360.239 134.31L359.349 135.18L360.189 135.84L360.799 138.46L358.329 140.06L358.199 141.03L358.479 143.14L359.329 143.4L359.019 145.4L359.499 146.56L361.569 146.27L365.959 150.02L367.029 152.32L368.319 153.51L369.799 156.88L371.119 157.96L370.099 159.9L370.479 163.28L371.009 164.23L370.439 164.82L370.479 165.61L372.479 166.59L374.769 166.1L375.429 167.58L376.779 167.8L376.179 171.02L373.879 175.55L373.889 177.39L373.029 179.01L371.659 180.2L371.119 183.11L372.059 184.55L371.849 186.48L372.359 187.26L372.689 186.78L373.459 187.23L374.029 187.02L374.039 188.16L374.589 188.68L374.309 189.26L377.929 189.16L380.089 188.47L381.059 187.76L382.519 185.4L383.739 185.03L384.389 187.09L385.949 187.07L387.689 186.16L388.629 186.91L388.649 187.62L389.289 189.01L388.379 189.96L387.019 190.36L386.189 192.22L383.609 194.69L383.289 196.09L383.829 197.18L383.689 198.78L382.139 200.88L382.989 202.76L382.859 203.37L380.529 205.59L380.079 206.79L378.349 208.84L378.939 209.71L378.069 211.15L375.039 214.08L374.629 214.91L374.819 216L374.499 215.66L374.079 215.93L373.789 218.36L371.809 218.28L372.329 219.61L369.519 220.09L366.789 217.96L364.689 217.1L363.229 217.61L364.099 218.52L363.349 220.01L362.109 220.44L360.629 220.22L361.099 221.75L357.889 222.2L357.159 221.67L355.539 221.82L354.519 221.16L353.419 221.42L353.209 222.11L353.929 223.05L353.189 225.96L349.919 228.51L348.359 230.56L347.349 230.41L346.479 231.31L346.269 231.8L347.369 232.34L347.319 232.68L345.439 233.62L344.669 234.93L344.139 235.09L343.429 234.07L342.349 233.62L339.499 234.42L338.319 235.03L337.939 235.87L336.569 235.43L335.379 237.37L333.989 237.61L332.439 240.64L329.389 241.23L328.449 241.84L328.769 240.02L329.939 238.33L328.399 235.39L327.169 235.6L326.269 234.8L324.289 234.69L323.779 233.37L322.509 235.89H321.569L320.189 234.68L318.689 235.97L318.589 236.97L317.289 237.21L316.109 235.54L316.719 235.01L316.899 234.05L318.509 232.5L317.789 230.78L316.649 231.04L315.859 229.68L314.169 228.8L313.689 227.75L312.139 227.35L311.019 227.49L309.799 229.47L307.849 229.73L306.629 229.25L305.019 227.75L303.959 223.59L302.889 223.24L301.609 223.77L299.819 221.96L297.369 223.86L296.699 225.09L295.819 225.46L294.319 227.17L292.899 227.57L290.889 228.98L290.049 228.51L288.529 229.52L288.739 231.58L286.509 234.36L287.029 237.74L285.159 239.61L285.489 242.22L284.219 244.68L284.619 245.94L283.579 246.83L282.529 246.76L282.379 248.56L281.729 248.68L280.869 247.48L280.829 245.89L279.619 245.74L277.409 247.94L274.939 248.64L273.399 247.23L272.139 247.5L272.029 248.02L270.499 247.51L268.739 247.96L267.649 247.43L264.519 247.86L262.669 248.93L261.849 250.06L259.419 250.73L258.869 252.64L258.059 253.28L256.619 252.75L255.659 251.77L254.559 251.66L252.329 252.47L246.579 250.2L245.789 250.27L245.059 251.51L243.609 251.62L241.679 250.35L241.009 250.46L240.679 251.15L238.609 252.5L237.289 251.15L235.979 251.54L233.839 249.62L233.819 247.07L234.909 246.56L235.289 244.93L237.499 243.35L239.329 240.53L238.919 238.14L237.549 236.05L238.349 235.51L238.649 233.53L239.719 232.57L238.959 231.77L239.899 230.73L237.529 229.1L235.929 231.04L234.609 231.47L233.459 231.04L233.149 231.51L229.179 232.86L228.209 231.96L226.909 234.1L225.949 232.52L225.029 232.25L224.389 234.04L225.179 236.38L220.729 236.13L217.319 235.19L216.359 234.21L214.019 233.46L213.409 233.81L213.529 235.11L213.179 235.36L211.439 235.03L210.879 231.93L211.899 230.59L212.669 230.76L214.339 228.8L212.219 225.56L212.289 224.76L213.149 224.71L213.199 224.29L211.779 222.55L212.469 220.63L213.649 219.64L215.369 219.07L215.309 215.89L216.429 212.89L215.779 210.68L214.469 210.52L213.739 209.29L213.549 206.71L212.079 202.68L209.739 201.43L209.209 201.64L208.269 199.42L206.219 197.52L206.409 196.43L205.209 195.37L203.659 195.42L202.109 197.71L200.249 198.99L200.509 199.57L199.709 200.55L199.019 200.64L199.159 201.97L198.109 202.36L198.189 204.49L197.459 205.24L195.379 206.62L195.049 205.78L193.209 205.37L192.489 206.28L189.749 207.66L186.869 206.65L185.199 209.26L183.719 210.6L183.209 211.87L182.689 211.47L182.809 210.6L181.899 209.6L181.749 208.49L180.679 206.78L180.539 200.34L180.849 199.09L181.879 198.19L181.949 196.99L183.689 192.74L182.869 191.69L182.679 189.61L181.219 189.53L183.689 185.8L182.449 185.95L183.179 182.21L182.439 180.86L182.109 181.13L180.989 180.58L179.459 180.57L178.539 180.94L178.309 182.01L177.129 181.82L177.569 179.72L179.059 178.29L178.949 177.29L178.159 176.23L177.959 174.22L178.459 170.57L180.149 170.5L183.199 171.32L186.999 171.28L188.079 170.33L189.289 170.2L189.759 169.04L189.629 167.33L190.419 165.98L191.809 165.05L193.779 161.15L195.439 159.45L197.459 160.49L198.959 160.85L200.039 160.59L202.159 161.57L202.339 160.25L201.849 158.11L204.709 155.79L205.799 151.02L207.009 150.03L208.729 150.6L210.159 149.63L211.629 147.32L212.829 144.26L213.469 143.77L213.459 142.95Z" fill="#CCCCCC" stroke="white" stroke-width="0.5"/>
<path d="M13.06 176.5L16.04 176.52L16.25 174.8L19.54 174.43L22.93 173.03L23.23 173.58L24.71 173.7V173.08L23.58 171.76L23.69 171.12L27.64 173.5L29.7 172.34L30.41 173.75L31.37 174.01L38.74 172.35L41.36 170.94L43.83 170.5L44.35 168.69L46.81 167.14L53.64 157.04L55.15 158.38L56.64 159.01L58 161.7L58.22 163.45L57.83 164.31L56.12 165.34L54.82 167.4L52.77 167.56L52.03 170.21L48.09 172.92L47.76 173.93L51.12 176.32L51.57 178.3L53.74 178.64L53.81 180.05L55.75 180.97L55.53 181.69L54.72 182.21L54.81 183.23L54.24 184.49L52.33 185.15L52.3 185.84L51.22 187.26L51.39 187.97L52.89 189.72L55.7 189.85L57.44 191.74L60.76 191.77L60.23 194.84L61.93 195.08L61.88 196.41L63.32 197.05L64.73 202L65.31 202.74L67.03 202.07L68.91 203.85L69.53 206.28L67.97 210.28L66.73 210.83L67.84 211.96L67.25 213.57L68.36 213.68L68.93 214.96L70.7 216.38L71.16 216.57L72.29 215.68L73.63 217.21L70.15 221.59L69.17 225.33L69.78 225.97L71.16 226.1L74.15 227.51V228.58L72.88 230.4L73.05 231.12L74.25 231.67L74.35 234.24L73.98 234.82L72.46 234.98L72.12 235.82L70.35 235.89L69.21 237.05L68.43 238.81L65.49 239.86L63.58 238.57L61.92 238.49L62.01 236.19L60.06 235.55L58.77 236.7L59.23 238.42L60.32 239.03L59.21 240.95L58.08 240.66L55.2 242.92L54.55 242.7L52.92 243.67L51.68 242.91L51.06 243.02L50.87 243.77L51.37 244.37L51.03 245.98L51.83 247.5L52.95 248.34H53.91L55 247.03L56.12 247.62L56.19 248.42L54.71 248.72L54.22 251.77L52.15 252.07L51.13 251.03L50.6 251.24L50.72 252.78L51.4 254.06L48.7 255.43L47.16 257.51L46.18 257.55L46.29 258.6L45.13 259.82L44.65 258.34L42.85 259.28L40.22 258.74L35.96 260.78L33.82 258.5L32.28 258.45L30.79 256.96L28.55 258.56L26.23 256.86L28.08 254.68L27.72 253.84L26.14 253.15L27.99 251.46L26.61 250.62L27.26 249.42L26.68 248.61L28.67 247.26L28.19 246.48L28.64 246L26.93 244.88L26.49 244.29L26.82 243.58L26.05 243.43L25.31 242.48L25.95 242.06L24.67 239.05L22.94 239.56L21.68 239.38L18.17 235.9L16.05 234.47L16.1 231.85L14.65 226.28L13.14 224.07L14.19 219.66L13.13 218.68L10.67 218.33L9.07 215.85L9.51 215.16L8.98 215.42L7.63 212.4L8.67 212.22L8.11 211.47L9 209.72L5.14 207.8L5.2 206.11L3 206.22L1.99 205.43L1.83 202.57L1 200.88L1.25 200.51L2.82 200.53L2.84 199.26L3.66 197.64L3.02 197.28L2.88 196.01L4.1 194.73L3.08 192.77L2.79 190.04L4.17 189.26L3.79 188.5L4.21 187.39L5.1 187.02L5.64 185.96L7.67 184.26L7.14 183.25L7.49 182.51L8.51 182.08L9.33 182.62L9.94 182.45L9.42 179.84L10.37 179.64L10.24 178.61L11.3 177.96L11.54 178.41L12.65 178.37L12.41 177.27L13.06 176.5Z" fill="#CCCCCC" stroke="white" stroke-width="0.5"/>
<path d="M366.949 121.99L368.729 123.43L370.219 123.02L370.459 121.5L369.919 120.89L369.889 119.82L370.649 118.68L370.689 114.57L372.099 113.7L372.259 113.15L372.159 112.21L371.049 111.38L370.809 110.49L374.399 106.76L375.649 106.32L376.319 105.33L377.819 104.39L379.759 103.89L381.359 101.86L384.939 103.34L388.089 105.58L389.269 106.94L391.149 107.67L392.009 108.61L393.679 108.66L390.229 104.26L390.709 102.9L393.159 100.55L393.819 100.97L394.979 103.31L396.969 104.99L397.229 106.08L399.699 107.41L400.959 106.66L403.369 106.48L406.999 112.25L407.949 112.45L410.079 114.07L409.729 113.16L410.039 110.78L411.249 109.74L411.229 108.22L411.699 107.8L414.969 106.7L415.759 107L416.709 108.88L418.889 107.23L419.439 107.52L419.929 108.87L420.679 108.93L421.799 108.14L421.989 107.85L420.829 106.13L420.949 104.81L419.919 103.5L420.459 103.06L421.659 103.81L422.889 103.91L425.139 105.59L428.059 104.47L427.859 105.32L426.009 106.55L426.769 107.38L428.339 107.36L428.629 108.07L434.419 106.24L436.779 106.87L438.529 108.15L439.769 110.76L440.289 110.99L443.349 108.69L445.759 112.71L447.329 113.63L447.769 116.45L452.259 116.71L455.279 117.94L458.299 118.15L459.689 116.79L460.609 117.6L462.269 118.1L463.219 120.56L464.819 122.05L466.809 119.95L469.479 121.52L469.769 120.58L471.109 120.63L471.049 122.44L473.229 121.5L473.769 123.26L472.139 128.83L473.419 130.41L475.869 131.87L477.859 130.98L477.759 129.15L479.219 127.84L480.069 127.49L481.069 128.12L482.009 127.28L485.089 127.29L485.429 126.1L486.399 125.13L486.289 122.73L486.609 122.34L485.889 120.61L486.349 120.09L488.039 119.66L490.119 121.57L490.439 118.04L491.049 118.94L491.619 121.65L493.839 122.05L494.439 121.76V121L495.679 120.81L497.539 119.38L497.609 122.29L498.889 122.62L499.499 123.31L498.469 124.48L498.629 125.9L499.859 127.47L501.429 128.25L502.319 130.03L502.099 131.82L503.399 134.05L507.189 135.04L507.939 135.76L507.839 136.73L509.789 136.67L512.049 138.02L516.269 136.72L517.389 138.41L519.109 139.78L521.539 139.4L525.749 137.09L526.729 137.19L526.739 137.94L527.309 135.46L529.259 134.84L531.329 133.1L531.529 131.37L530.409 129.69L529.719 119.72L530.089 117.49L531.189 116.71L532.919 116.92L534.009 118.93L534.639 118.67L535.249 119.11L536.029 118.56L537.889 118.33L543.289 120.43L546.129 122.37L547.989 125.5L551.659 125.89L552.409 127.29L555.949 127.31L560.379 126.29L566.549 126.4L566.999 125.58L566.699 120.14L567.509 119.25L569.489 118.46L570.439 116.29L573.529 113.15L576.929 113.58L578.079 114.39L579.129 118.72L580.159 120.21L580.419 122.6L585.549 122.42L587.749 121.53L589.409 122.42L592.909 122.59L593.639 123.1L592.709 127.88L593.639 129.9L593.919 133.52L593.079 134.42L592.479 136.13L589.739 138.88L589.259 141.48L591.149 142.98L591.189 145.05L590.089 146.29L588.869 152.23L584.989 153.48L582.399 156.06L579.449 158.19L578.719 160.73L577.219 162.23L575.549 162.28L574.059 164.21H572.849L572.769 165.19L572.099 165.31L570.019 169.97L569.259 178.74L567.299 192.46L567.529 196.3L568.009 197.48L569.009 197.44L568.599 198.69L566.569 199.42L567.099 201.09H565.859L565.459 201.54L564.559 201.24L563.339 201.84L562.819 200.98L561.829 202.45L561.539 200.99L560.729 200.16L560.379 200.96L558.959 200.82L558.549 201.6L555.569 199.2L554.269 200.5L551.399 201.33L551.029 201.8L550.839 201.22L547.049 201.43L545.479 202.66L544.849 202.6L545.319 203.33L544.769 204.14L543.809 203.93L542.839 203.01L541.839 203.61L541.569 202.79L541.519 203.98L540.979 203.91L541.199 203.06L540.649 202.76L540.009 203.54L540.519 204.63L540.019 204.86L540.039 204.09L539.649 204.01L539.229 204.98L538.409 204.65L538.059 205.37L537.539 205.1L537.269 203.65L535.269 203.64L534.879 204.14L534.799 208.3L533.689 208.89L532.999 208.92L533.139 208.22L531.689 208.03L531.239 207.35L527.709 207.59L526.829 206.7L523.389 206.14L521.919 205.22L522.129 203.4L521.349 203.43L520.749 202.74L521.359 201.67L520.899 200.8L518.729 199.52L517.519 199.78L516.549 198.53L516.409 195.27L516.109 195.4L514.409 190.51L513.599 190.12L512.929 188.87L513.179 188.28L512.189 186.94L512.489 186.14L512.069 185.92L512.229 183.09L511.889 182.21L511.369 182.3L511.169 180.26L510.279 180.62L509.009 179.62L508.219 180.01L507.549 181.28L506.199 181.08L505.639 180.05L504.869 180.62L503.669 180.63L503.419 179.62L501.919 178.29L500.759 175.57L500.789 173.88L499.899 173.56L499.839 173.01H499.219L499.069 172.18L497.749 172.43L497.119 171.41L496.429 171.52L495.069 170.1L493.779 169.8L492.649 168.09L491.589 168.25L490.909 169.1L490.669 171.81L490.089 172.37L488.409 171.6L486.089 172.43L483.009 172.14L480.159 172.56L480.019 172.02L479.539 172.8L480.619 173.13L479.349 173.59L480.099 174.35L479.639 175.57L478.909 175.46L479.509 176.63L478.229 177.47L478.379 178.19L477.409 178.33L474.749 177.37L474.269 177.74L471.299 175.54L470.609 175.6L470.549 176.36L469.309 175.83L468.859 176.71L468.019 176.47L468.039 177.47L466.609 178.03L466.259 177.72L466.149 178.22L465.669 177.9L464.879 178.91L464.119 178.21L461.729 179.25L459.829 182.88L458.649 183.19L457.479 183.04L456.429 182.14L456.339 180.15L455.749 179.11L453.849 178.49L452.739 177.63L451.379 178.35L451.369 177.53L450.549 177.79L449.389 177.5L448.639 176.78L448.249 177.16L447.279 176.68L445.019 177.63L443.819 179.07L443.049 178.16L442.139 178.62L441.239 178.24L441.109 176.52L439.599 176.21L439.449 175.12L438.739 175.73L438.059 173.51L437.009 172.58L432.939 173.67L431.499 173.58L429.969 171.52L429.479 171.61V169.43L428.559 169.68L429.259 168.43L424.999 169.88L417.649 170.7L417.179 171.37L416.589 170.73L414.899 170.7L411.799 172.18L408.989 172.26L407.909 173.54L407.519 173.13L406.809 173.83L405.409 174.11L404.699 175.07L403.169 175.06L401.939 175.68L401.599 176.39L397.529 174.81L396.459 177.45L395.309 177.02L394.589 176L393.419 176.42L392.659 177.34L392.759 178.83L393.579 179.76L393.159 180.81L393.289 183.62L391.929 183.91L390.789 186.25L388.649 187.62L388.629 186.91L387.689 186.16L385.949 187.07L384.389 187.09L383.739 185.03L382.519 185.4L381.059 187.76L380.089 188.47L377.929 189.16L374.309 189.26L374.589 188.68L374.039 188.16L374.029 187.02L373.459 187.23L372.689 186.78L372.359 187.26L371.849 186.48L372.059 184.55L371.119 183.11L371.659 180.2L373.029 179.01L373.889 177.39L373.879 175.55L376.179 171.02L376.779 167.8L375.429 167.58L374.769 166.1L372.479 166.59L370.479 165.61L370.349 165.05L371.009 164.23L370.479 163.28L370.099 159.9L371.119 157.96L369.799 156.88L368.319 153.51L367.029 152.32L365.959 150.02L361.569 146.27L359.499 146.56L359.019 145.4L359.329 143.4L358.479 143.14L358.199 141.03L358.329 140.06L360.799 138.46L360.189 135.84L359.349 135.18L360.239 134.31L360.029 130.64L364.459 126.57L365.549 122.63L366.949 121.99Z" fill="#CCCCCC" stroke="white" stroke-width="0.5"/>
<path d="M122.879 163.08L124.359 162.55L124.889 161.6L125.699 161.76L126.849 160.73L127.179 159.57L127.129 157.03L126.399 156.45L125.549 153.45L124.779 152.74L124.269 149.26L125.699 147.79L127.029 147.66L128.229 149.11L133.199 149L135.129 150.11L136.589 149.6L140.139 152.84L141.509 157.16L143.169 158.77L144.589 157.99L146.189 158.85L147.279 158.57L148.549 159.25L149.989 163.29L151.139 165L150.829 166.88L148.409 169.22L150.049 170.57L149.209 171.53L149.179 172.58L149.539 173.09L152.679 173.05L153.849 173.98L155.849 177.37L157.399 179.04L157.929 181.66L158.589 182.58L161.759 183.54L162.639 183.01L162.909 181.77L163.229 183.07L164.599 184.34L165.049 182.78L167.009 181.66L170.249 178.37L173.109 177.03L176.009 174.32L177.959 174.22L178.159 176.23L178.949 177.29L179.059 178.29L177.569 179.72L177.129 181.82L178.309 182.01L178.539 180.94L179.459 180.57L180.989 180.58L182.109 181.13L182.439 180.86L183.179 182.21L182.449 185.95L183.689 185.8L181.219 189.53L182.679 189.61L182.869 191.69L183.689 192.74L181.949 196.99L181.879 198.19L180.849 199.09L180.539 200.34L180.679 206.78L181.749 208.49L181.899 209.6L182.809 210.6L182.689 211.47L183.209 211.87L183.719 210.6L185.199 209.26L186.869 206.65L189.749 207.66L192.489 206.28L193.209 205.37L195.049 205.78L195.379 206.62L197.459 205.24L198.189 204.49L198.109 202.36L199.159 201.97L199.019 200.64L199.709 200.55L200.509 199.57L200.249 198.99L202.109 197.71L203.659 195.42L205.209 195.37L206.409 196.43L206.219 197.52L208.269 199.42L209.209 201.64L209.739 201.43L212.079 202.68L213.549 206.71L213.739 209.29L214.469 210.52L215.779 210.68L216.429 212.89L215.309 215.89L215.369 219.07L213.649 219.64L212.469 220.63L211.779 222.55L213.199 224.29L213.149 224.71L212.289 224.76L212.219 225.56L214.339 228.8L212.669 230.76L211.899 230.59L210.879 231.93L211.439 235.03L213.179 235.36L213.529 235.11L213.409 233.81L214.019 233.46L216.359 234.21L217.319 235.19L220.729 236.13L225.179 236.38L224.389 234.04L225.029 232.25L225.949 232.52L226.909 234.1L228.209 231.96L229.179 232.86L233.149 231.51L233.459 231.04L234.609 231.47L235.929 231.04L237.529 229.1L239.899 230.73L238.959 231.77L239.719 232.57L238.649 233.53L238.349 235.51L237.549 236.05L238.919 238.14L239.329 240.53L237.499 243.35L235.289 244.93L234.909 246.56L233.819 247.07L233.839 249.62L233.319 249.82L233.139 250.7L232.119 250.81L230.419 252.93L225.499 252.39L222.379 253.5L220.659 253.01L220.289 252.42L219.649 253.47L219.799 253.96L217.819 253.93L216.779 254.43L215.619 253.66L214.289 254.41L213.359 255.87L213.869 256.14L213.999 256.97L212.769 258.36L213.209 260.65L212.699 262.95L212.429 262.43L211.939 263.15L212.419 263.3L211.169 264.29L209.229 263.91L208.379 264.35L208.109 263.88L207.529 264.37L207.969 264.7L207.019 265.12L206.479 266.06L206.919 266.99L208.029 267.66L208.579 269.41L207.619 269.55L208.319 272.68L206.569 274.73L207.399 276.4L206.929 276.73L207.299 277.18L206.789 278.21L207.189 280.26L206.819 280.46L207.039 282.64L210.099 283.35L210.879 284.46L213.329 285.62L214.229 288.03L216.319 289.25L216.109 290.83L210.219 289.96L204.349 291.58L203.029 295.46L198.349 298.76L196.459 299.56L191.409 300.34L186.129 299.07L183.289 299.2L180.829 300.7L178.489 301.16L177.759 301.07L176.109 299.77L173.789 299.2L169.949 301.05L167.099 301.42L161.719 303.52L156.629 304.47L149.699 302.78L143.969 302.9L140.359 301.72L133.499 300.47L128.769 300.45L125.889 302.07L122.569 300.28L119.829 302.35L116.239 302.52L114.639 303.16L110.499 302.1L109.059 302.76L105.259 302.63L102.709 303.19L100.409 301.72L94.7092 300.43L92.9492 298.39L94.8492 296.59L95.8992 291.88L97.8292 291.83L98.2292 292.5L99.4592 292.51L100.129 293.07L100.999 291.17L103.889 289.27L104.329 287.98L103.859 284.94L105.019 282.6L107.369 281.81L109.219 279.03L112.259 277.27L113.649 275.57L111.169 273.11L112.349 271.06L111.699 267.1L112.459 263.13L111.189 260.76L111.449 258.63L111.019 257.62L112.589 256.41L112.089 255.4L112.169 253.95L111.319 252.99L109.919 252.88L108.139 251.72L109.289 250.19L108.569 248.96L105.829 251.05L104.689 250.84L104.229 248.66L105.499 245.52L105.349 243.38L102.399 239.97L98.4292 237.5L100.969 235.65L102.389 235.6L103.249 236.86L104.109 236.89L105.549 235.11L103.659 231.37L105.689 231.63L106.959 231.29L108.139 232.36L108.609 231.29L110.969 230.22L112.059 229.04L112.339 227.24L111.969 225.92L109.079 225L107.869 223.02L108.219 221.93L109.209 222.52L110.449 221.72L110.349 220.63L109.749 220.04L111.409 217.37L110.799 215.97L108.489 215.73L107.749 214.24L109.219 213.05L109.509 208.89L110.679 207.98L110.219 205.88L111.849 204.62L111.399 203.94L112.429 203.4L112.829 202.05L115.439 198.08L117.159 194.1L117.099 193.28L118.229 191.47L119.819 191.44L119.509 190.47L120.779 188.57L120.399 187.51L117.839 185.71L114.749 181.89L113.769 181.13L110.299 180.36L109.889 179.65L109.119 179.68L109.019 178.64L110.869 177.18L111.859 171.98L113.799 169.65L114.429 167.16L116.569 167.91L117.319 168.73L120.299 168.49L120.019 167.4L121.349 167.29L122.689 166.06L122.879 163.08Z" fill="#CCCCCC" stroke="white" stroke-width="0.5"/>
<path d="M478.49 28.16L481.5 27.67L482.8 27.8799L483.33 28.72L484.91 29.49L485.52 30.86L486.8 30.47L488.83 30.68L489.27 31.7599L492.14 34.08L493.58 34.05L494.77 33.45L496.59 33.74L497.94 31.42L498.48 31.22L501.3 33.12L501.68 32.71L501.23 31.83L502.51 30.3L504.7 30.62L506.2 29.29L507.16 30.16L508.82 30.55L509.36 30.09L510.14 30.27L511.39 28.83L513.3 28.21L514.52 30.98L516.11 32.2L516.14 33.25L518.59 34.23L520.52 32.9399L522.85 34.02L523.35 36.28L524.3 36.24L525.1 37.42L527.29 38.75L527.77 41.67L528.73 43.1299L530.06 43.52L529.92 41.25L530.85 39.6L532.5 38.98L533.9 37.65L535.56 37.54L536.31 38.42L536.32 39.61L537.5 41.15L538.12 41.2L538.91 40.5099L540.11 40.87L541.19 43.1299L542.22 44.22L542.61 43.73L543.76 43.68L545.21 44.89L547.78 44.3199L548.53 44.58L550.94 50.6899L552.65 52.81L556.05 55.64L555.95 58.36L557.17 59.58L556.16 64.46L557.81 65.81L563.82 67.96L567.93 68.68L568.12 69.95L571.77 71.6299L572.86 72.7L573.79 72.39L575.06 71.06L576.53 71.3L577.3 72.04L577.65 73.39L576.74 75.1899L576.76 76.25L579.16 76.4L586.63 79.08L588.27 77.39L591.86 77.64L593.1 79.77L594.15 80.29L594.35 81.7L597.71 84.99L598.32 85.12L600.05 84.2599L601.41 84.3L605.3 87.0699L605.91 87.18L607.32 86.1299L610.49 85.6899L613 87.1299L611.65 88.53L611.42 96.55L610.01 97.74L610.88 100.08L608.24 101.68L606.17 101.2L603.7 102.4L603.21 104.98L602.36 105.61L597.92 112.61L598.61 113.99L597.92 115.19L597.49 119.7L594.94 121.16L593.64 123.1L592.91 122.59L589.41 122.42L587.75 121.53L585.55 122.42L580.42 122.6L580.16 120.21L579.13 118.72L578.08 114.39L576.93 113.58L573.53 113.15L570.44 116.29L569.49 118.46L567.51 119.25L566.7 120.14L567 125.58L566.55 126.4L560.38 126.29L555.95 127.31L552.41 127.29L551.66 125.89L547.99 125.5L546.13 122.37L543.29 120.43L537.89 118.33L536.03 118.56L535.25 119.11L534.64 118.67L534.01 118.93L532.92 116.92L531.19 116.71L530.09 117.49L529.72 119.72L530.41 129.69L531.53 131.37L531.33 133.1L529.26 134.84L527.31 135.46L526.74 137.94L526.73 137.19L525.75 137.09L521.54 139.4L519.11 139.78L517.39 138.41L516.27 136.72L512.05 138.02L509.79 136.67L507.84 136.73L507.94 135.76L507.19 135.04L503.4 134.05L502.1 131.82L502.32 130.03L501.43 128.25L499.86 127.47L498.63 125.9L498.47 124.48L499.5 123.31L498.89 122.62L497.61 122.29L497.54 119.38L495.68 120.81L494.44 121V121.76L493.84 122.05L491.62 121.65L491.05 118.94L490.44 118.04L490.12 121.57L488.04 119.66L486.35 120.09L485.89 120.61L486.61 122.34L486.29 122.73L486.4 125.13L485.43 126.1L485.09 127.29L482.01 127.28L481.07 128.12L480.07 127.49L479.22 127.84L477.76 129.15L477.86 130.98L475.87 131.87L473.42 130.41L472.14 128.83L473.77 123.26L473.23 121.5L471.05 122.44L471.11 120.63L469.77 120.58L469.48 121.52L466.81 119.95L464.82 122.05L463.22 120.56L462.27 118.1L460.61 117.6L459.69 116.79L458.3 118.15L455.28 117.94L452.26 116.71L447.77 116.45L447.33 113.63L445.76 112.71L443.35 108.69L440.29 110.99L439.77 110.76L438.53 108.15L436.78 106.87L434.42 106.24L428.63 108.07L428.34 107.36L426.77 107.38L426.01 106.55L427.86 105.32L428.06 104.47L425.14 105.59L422.89 103.91L421.66 103.81L420.46 103.06L419.92 103.5L420.95 104.81L420.83 106.13L421.99 107.85L421.8 108.14L420.68 108.93L419.93 108.87L419.44 107.52L418.89 107.23L416.71 108.88L415.76 107L414.97 106.7L411.7 107.8L411.23 108.22L411.25 109.74L410.04 110.78L409.73 113.16L410.08 114.07L407.95 112.45L407 112.25L403.37 106.48L400.96 106.66L399.7 107.41L397.23 106.08L396.97 104.99L394.98 103.31L393.82 100.97L393.16 100.55L390.71 102.9L390.23 104.26L393.68 108.66L392.01 108.61L391.15 107.67L389.27 106.94L388.09 105.58L384.94 103.34L381.36 101.86L379.76 103.89L377.82 104.39L376.32 105.33L375.65 106.32L374.4 106.76L370.81 110.49L371.05 111.38L372.16 112.21L372.26 113.15L372.1 113.7L370.69 114.57L370.65 118.68L369.89 119.82L369.92 120.89L370.46 121.5L370.22 123.02L368.73 123.43L366.95 121.99L365.47 121.52L362.68 118.44L361.37 118.04L359.83 118.25L357.63 116.19L356.1 118.78L354.16 120.11L345.23 118.81L344.01 117.28L338.73 116.79L339.16 115.7L342.44 115.06L344.73 113.07L344.31 112.66L342.5 112.51L340.89 107.93L341.41 106.58L339.96 105.62L338.81 102.87L335.16 100.26L335.49 99.3799L337.34 100.01L340.61 98.58L340.6 95.5L341.68 92.75L341.5 90.03L342.95 86.1299L343.09 83.9L341.68 83.04L340.34 83.87L337.7 83.41L336.52 83.65L335.53 81.72L335.38 82.87L334.79 83.18L333.13 80.56L331.43 80.68L331.13 79.5099L328.86 80.45L328.22 80.22L329.16 77.91L328.88 77.37L329.26 76.17L326.03 71.2L325.41 69.15L325.79 68.27L328.47 66.27L328.7 63.6899L330.83 62.75L333.19 62.96L337.46 63.5099L339.88 65.6299L339.77 66.59L341.18 68.27L343.1 69.04L346.52 71.8199L348.22 71.86L348.34 67.62L349.11 65.7L349.92 65.0099L349.29 62.6299L350.15 61.54L350.39 59.58L352.48 56.6L352.85 53.0699L354.86 49.81L355.38 49.83L356.26 51.64L357.84 50.1L357.13 48.6L357.4 47.96L358.72 47.87L359.73 45.66L361.64 45.0699L362.75 43.86L363.79 44.93L364.98 44.09L367.75 44.7L368.29 44.0099L369.1 43.91L370.61 44.09L371.89 45.14H372.71L373.43 44.29L373.61 39.61L374.44 37.65L372.75 37.7599L373.5 35.75L374.85 35.41L377.69 36.24L378.9 34.72L379.62 35.56L379.67 37.29L380.86 37.5L382.82 36.75L383.06 35.3799L383.59 34.87L384.71 35.52L385.17 36.59L385.57 34.9399L384.79 34.71L385.01 33.22L386.67 34.12L387.06 33.97L386.64 33.56L389.3 33.48L391.74 35.1299L392.89 35.41L393.41 37.23L394.67 37.29L397.58 38.49L398.62 39.48L400.45 39.89L401.04 38.84L402.1 39.02L403.17 37.95L403.43 36.5699L404.5 35.16L404.9 33.0699L408.25 35.87L409.85 35.31L413.4 32.6299L415.19 32.91L416.63 33.72L418.11 33.4L418.67 34.2L418.41 35.49L419.93 36.21L418.93 37.52L420.22 38.7L420.16 40.84L422.83 40.27L423.09 40.81L422.68 42.28L424.44 42.1299L425.54 42.95L425.15 43.68L424.42 42.7L424.72 43.47L424.22 45.27L425.91 44.71L427.36 46.79L428.41 46.84L430.32 44.7599L431.34 44.66L433.4 47.75L432.37 49.11L433.65 49.14L434.17 48.31L435.56 47.98L436.15 49.02L435.87 49.86L436.42 51.0699L438.33 52.78L441.81 50.9399L444.84 51.02L445.44 50.2L444.59 47.77L446.61 46.74L447.06 44.79L447.73 44.6299L450.3 41.85L450.88 41.72L451.8 42.31L452.92 41.79L453.74 42.72L454.38 42.02L455.74 41.8199L456.94 40.09L453.24 36.8799L453.25 35.85L451.59 35.2599L450.98 33.3799L451.43 32.66L452.72 32.58L456.13 31.25L457.87 32.25L458.57 30.45L459.17 30.3199L462.02 31.71L462.47 32.81L463.31 33.05L464.95 34.62L465.08 35.74L466.36 35.8199L467.27 35.34L468.03 35.7L470 33.35L469.65 31.89L470.69 30.03L471.51 30.4399L474.11 28.29L474.75 26.29L475.55 26.1899L478.49 28.16Z" fill="#CCCCCC" stroke="white" stroke-width="0.5"/>
<path d="M39.7495 122.02L44.8995 123.18L46.3395 124.28L48.2695 124.33L49.0395 125.56L51.2995 127.28L52.9495 126.82L53.5195 128.23L56.4995 130.48L57.3795 131.77L58.8995 130.91L61.0495 131.69L60.2595 135.08L56.4295 137.07L56.2995 138.06L57.9695 139.4L59.0495 138.88L59.6195 139.25L63.2095 136.44L63.7395 137.77L63.5395 138.43L65.5995 139.59L66.2195 139.15L66.8695 140.09L68.0795 140.17L69.3295 142.59L70.7295 143.06L71.1295 144.5L70.7895 146.21L69.2795 146.74L68.2895 149.66L68.9295 150.81L68.8895 152.48L69.8795 152.64L70.7795 156.11L74.2695 162.44L75.0095 161.62L76.1195 162.1L76.3995 160.96L77.3595 160.57L78.7395 158.91L80.6595 159.77L85.1895 158.87L85.4395 158.69L84.4795 157.03L84.8395 155.59L85.6195 155.56L85.6395 156.22L86.2095 156.66L88.0495 156.8L87.9295 155.92L89.9895 154.63L90.4495 154.79L91.9195 153.4L92.6895 153.56L93.4895 152.47L95.8395 154.31L97.9595 157.54L102.38 159.67L104.18 159.37L104.58 159.93L105.18 159.46L106.43 159.56L106.65 157.27L108.29 157.43L108.74 157.56L108.54 159.09L109.27 160.54L109.73 160.57L109.99 159.64L109.89 160.61L110.21 160.64L110.75 159.59L111.89 161.14L112.44 160.83L115.74 162.05L119.3 162.31L120.91 163.73L122.88 163.08L122.69 166.06L121.35 167.29L120.02 167.4L120.3 168.49L117.32 168.73L116.57 167.91L114.43 167.16L113.8 169.65L111.86 171.98L110.87 177.18L109.02 178.64L109.12 179.68L109.89 179.65L110.3 180.36L113.77 181.13L114.75 181.89L117.84 185.71L120.4 187.51L120.78 188.57L119.51 190.47L119.82 191.44L118.23 191.47L117.1 193.28L117.16 194.1L115.44 198.08L112.83 202.05L112.43 203.4L111.4 203.94L111.85 204.62L110.22 205.88L110.68 207.98L109.51 208.89L109.22 213.05L107.75 214.24L108.49 215.73L110.8 215.97L111.41 217.37L109.75 220.04L110.35 220.63L110.45 221.72L109.21 222.52L108.22 221.93L107.87 223.02L109.08 225L111.97 225.92L112.34 227.24L112.06 229.04L110.97 230.22L108.61 231.29L108.14 232.36L106.96 231.29L105.69 231.63L103.66 231.37L105.55 235.11L104.11 236.89L103.25 236.86L102.39 235.6L100.97 235.65L98.4295 237.5L102.4 239.97L105.35 243.38L105.5 245.52L104.23 248.66L104.69 250.84L105.83 251.05L108.57 248.96L109.29 250.19L108.14 251.72L109.92 252.88L111.32 252.99L112.17 253.95L112.09 255.4L112.59 256.41L111.02 257.62L111.45 258.63L111.19 260.76L112.46 263.13L111.7 267.1L112.35 271.06L111.17 273.11L113.65 275.57L112.26 277.27L109.22 279.03L107.37 281.81L105.02 282.6L103.86 284.94L104.33 287.98L103.89 289.27L101 291.17L100.13 293.07L99.4595 292.51L98.2295 292.5L97.8295 291.83L95.8995 291.88L94.8495 296.59L92.9495 298.39L91.6695 296.92L86.5095 293.45L83.7295 290.09L80.0795 291.17L79.0195 290.76L77.1795 287.57L76.6295 285.38L74.6895 283.05L71.9995 282.81L69.0095 280.81L67.4595 280.29L64.3595 273.6L60.8795 269.62L59.1395 268.49L54.3795 262.83L53.2895 262.45L47.5795 262.59L45.7395 261.81L45.1295 259.82L46.2895 258.6L46.1795 257.55L47.1595 257.51L48.6995 255.43L51.3995 254.06L50.7195 252.78L50.5995 251.24L51.1295 251.03L52.1495 252.07L54.2195 251.77L54.7095 248.72L56.1895 248.42L56.1195 247.62L54.9995 247.03L53.9095 248.34H52.9495L51.8295 247.5L51.0295 245.98L51.3695 244.37L50.8695 243.77L51.0595 243.02L51.6795 242.91L52.9195 243.67L54.5495 242.7L55.1995 242.92L58.0795 240.66L59.2095 240.95L60.3195 239.03L59.2295 238.42L58.7695 236.7L60.0595 235.55L62.0095 236.19L61.9195 238.49L63.5795 238.57L65.4895 239.86L68.4295 238.81L69.2095 237.05L70.3495 235.89L72.1195 235.82L72.4595 234.98L73.9795 234.82L74.3495 234.24L74.2495 231.67L73.0495 231.12L72.8795 230.4L74.1495 228.58V227.51L71.1595 226.1L69.7795 225.97L69.1695 225.33L70.1495 221.59L73.6295 217.21L72.2895 215.68L71.1595 216.57L70.6995 216.38L68.9295 214.96L68.3595 213.68L67.2495 213.57L67.8395 211.96L66.7295 210.83L67.9695 210.28L69.5295 206.28L68.9095 203.85L67.0295 202.07L65.3095 202.74L64.7295 202L63.3195 197.05L61.8795 196.41L61.9295 195.08L60.2295 194.84L60.7595 191.77L57.4395 191.74L55.6995 189.85L52.8895 189.72L51.3895 187.97L51.2195 187.26L52.2995 185.84L52.3295 185.15L54.2395 184.49L54.8095 183.23L54.7195 182.21L55.5295 181.69L55.7495 180.97L53.8095 180.05L53.7395 178.64L51.5695 178.3L51.1195 176.32L47.7595 173.93L48.0895 172.92L52.0295 170.21L52.7695 167.56L54.8195 167.4L56.1195 165.34L57.8295 164.31L58.2195 163.45L57.9995 161.7L56.6395 159.01L55.1495 158.38L53.6395 157.04L46.8095 167.14L44.3495 168.69L43.8295 170.5L41.3595 170.94L38.7395 172.35L31.3695 174.01L30.4095 173.75L29.6995 172.34L27.6395 173.5L23.6895 171.12L23.5795 171.76L24.7095 173.08V173.7L23.2295 173.58L22.9295 173.03L19.5395 174.43L16.2495 174.8L16.0395 176.52L13.0595 176.5L13.3195 176.04L12.7795 175.67L12.7095 174.96L13.6395 174.43L12.7695 173.41L12.8295 172.08L11.8795 170.63L11.8695 170.28L12.5895 170.21L12.0195 169.72L12.2495 168.43L11.7695 165.6L12.4795 164.92L12.5295 162.86L14.0095 161.96L14.9895 159.32L15.6995 158.95L14.9095 158.41L16.0395 158.2L15.4295 157.53L15.4895 154.82L19.7595 150.55L18.5395 149.11L18.7195 148.13L20.1595 146.69L20.2995 145.1L23.0595 141.29L23.4695 139.32L28.2995 136.01L28.5195 134.32L30.0495 132.69L30.0895 129.96L30.5095 129.02L35.1695 126.61L38.9895 122.15L39.5195 121.73L39.7495 122.02Z" fill="#CCCCCC" stroke="white" stroke-width="0.5"/>
<path d="M160.281 49.8701L161.061 50.27L163.501 49.65L165.631 49.76L165.561 51.9301L166.391 53.17L167.321 53.6801L169.401 57.59L171.031 59.2401L170.931 60.97L172.491 62.6201L172.751 63.8101L172.411 64.7501L173.101 65.73L173.211 66.92L175.031 68.2401L175.341 70.52L176.681 71.09L180.081 74.32L182.111 75.45L183.361 75.65L183.461 77.29L186.711 78.4L186.981 81.1801L188.421 82.55L187.571 84.39L185.821 85.52L184.881 86.95L188.231 88.09L189.801 90.58L189.441 91.47L189.771 92.38L189.021 93.58L189.521 94.83L189.361 97.45L188.151 98.14L187.821 99.46L185.891 101.78L185.211 102.27L181.981 102.75L179.741 104.2L179.691 105.28L178.561 107.08L177.341 107.21L175.441 108.32L174.811 108.2V109.34L176.221 110.88L181.441 111.36L182.921 110L185.101 109.48L185.411 108.12L186.581 106.32L187.961 105.87L187.761 106.94L188.591 108.02L190.351 107.96L192.491 107.12L197.051 108.54L199.481 107.98L201.541 110.02L201.851 110.99L201.021 112.79L200.421 112.6L200.411 113.65L199.331 115.45L201.031 117.86L199.631 120.69L200.151 121.34L199.841 125.98L202.181 127.2L203.351 128.6L204.371 128.47L205.471 129.25L205.641 130.51L206.271 130.4L207.131 131.42L208.461 131.63L208.361 134.97L211.681 138.46L212.261 140.25L213.251 140.54L213.461 142.95L213.471 143.77L212.831 144.26L211.631 147.32L210.161 149.63L208.731 150.6L207.011 150.03L205.801 151.02L204.711 155.79L201.851 158.11L202.341 160.25L202.161 161.57L200.041 160.59L198.961 160.85L197.461 160.49L195.441 159.45L193.781 161.15L191.811 165.05L190.421 165.98L189.631 167.33L189.761 169.04L189.291 170.2L188.081 170.33L187.001 171.28L183.201 171.32L180.151 170.5L178.461 170.57L177.961 174.22L176.011 174.32L173.111 177.03L170.251 178.37L167.011 181.66L165.051 182.78L164.601 184.34L163.231 183.07L162.911 181.77L162.641 183.01L161.761 183.54L158.591 182.58L157.931 181.66L157.401 179.04L155.851 177.37L153.851 173.98L152.681 173.05L149.541 173.09L149.181 172.58L149.211 171.53L150.051 170.57L148.411 169.22L150.831 166.88L151.141 165L149.991 163.29L148.551 159.25L147.281 158.57L146.191 158.85L144.591 157.99L143.171 158.77L141.511 157.16L140.141 152.84L136.591 149.6L135.131 150.11L133.201 149L128.231 149.11L127.031 147.66L125.701 147.79L124.271 149.26L124.781 152.74L125.551 153.45L126.401 156.45L127.131 157.03L127.181 159.57L126.851 160.73L125.701 161.76L124.891 161.6L124.361 162.55L122.881 163.08L120.911 163.73L119.301 162.31L115.741 162.05L112.441 160.83L111.891 161.14L110.751 159.59L110.211 160.64L109.891 160.61L109.991 159.64L109.731 160.57L109.271 160.54L108.541 159.09L108.741 157.56L108.291 157.43L106.651 157.27L106.431 159.56L105.181 159.46L104.581 159.93L104.181 159.37L102.381 159.67L97.9608 157.54L95.8408 154.31L93.4908 152.47L92.6908 153.56L91.9208 153.4L90.4508 154.79L89.9908 154.63L87.9308 155.92L88.0508 156.8L86.2108 156.66L85.6408 156.22L85.6208 155.56L84.8408 155.59L84.4808 157.03L85.4408 158.69L85.1908 158.87L80.6608 159.77L78.7408 158.91L77.3608 160.57L76.4008 160.96L76.1208 162.1L75.0108 161.62L74.2708 162.44L70.7808 156.11L69.8808 152.64L68.8908 152.48L68.9308 150.81L68.2908 149.66L69.2808 146.74L70.7908 146.21L71.1308 144.5L70.7308 143.06L69.3308 142.59L68.0808 140.17L66.8708 140.09L66.2208 139.15L65.6008 139.59L63.5408 138.43L63.7408 137.77L63.2108 136.44L59.6208 139.25L59.0508 138.88L57.9708 139.4L56.3008 138.06L56.4308 137.07L60.2608 135.08L61.0508 131.69L63.1908 129.57L64.3508 129.74L65.0308 127.75L65.9808 128.02L67.0208 126.63L69.7508 127.54L73.6708 131.48L74.6608 131.85L76.1208 131.04L77.1808 131.34L78.7208 130.11L81.7508 129.91L82.6008 127.68L84.6808 127.36L85.1608 126.08L86.1808 125.19L89.7608 125.17L91.8208 124.06L93.7708 124.27L95.3508 122.18L97.3108 120.71L99.4808 117.11L101.871 115.46L102.211 113.89L109.191 113.42L111.261 114.17L112.921 113.32L114.551 108.37L114.851 104.73L115.901 102.61L116.021 99.98L117.331 98.58L118.391 97.84L122.711 98.01L124.111 97.2501L128.021 97.89L132.901 95.5001L135.971 91.91L135.881 90.5001L137.851 86.27L137.351 82.79L137.761 82.17L138.431 82.11L137.251 79.6201L137.981 78.27V76.84L139.921 75.19L139.391 73.84V70.9301L141.001 68.92L141.371 66.73L141.971 66.15L142.041 64.22L141.001 63.71L141.111 61.2501L145.241 57.2501L145.211 54.72L149.291 53.5001L153.791 53.11L157.431 51.72L157.671 51.15L160.281 49.8701Z" fill="#CCCCCC" stroke="white" stroke-width="0.5"/>
<path d="M281.981 1L283.011 2.45999L282.431 3.87L283.271 5.06L285.511 6.29001L286.891 6.38L287.621 7.5L288.851 7.88L288.791 13.49L291.161 18.26L291.391 21.3L292.671 22.85L292.991 24.29L294.431 25.96L294.681 27.05L296.181 26.7L297.801 28.26L300.831 26.65L300.501 29.13L301.701 30.27L299.691 34.69L302.841 34.74L304.951 35.69L305.681 35.59L309.041 38.26L310.341 37.39L311.611 35.18L312.461 34.54L314.331 33.86L316.821 34.48L317.011 39.38L318.171 41.43L318.021 43.4L317.341 45.07L317.771 46.87L318.741 48.13L317.321 52.29L317.561 52.88L318.951 53.24L320.231 56.09L316.931 57.86L316.621 60.38L314.241 62.88L314.501 64.44L313.661 66.32L314.461 67.52L315.491 67.77L316.341 68.73L317.441 68.7L318.471 67.67L319.771 68.84L320.771 68.32L321.891 69.14L325.411 69.15L326.031 71.2L329.261 76.17L328.881 77.37L329.161 77.91L328.221 80.22L328.861 80.45L331.131 79.51L331.431 80.68L333.131 80.56L334.791 83.18L335.381 82.87L335.531 81.72L336.521 83.65L337.701 83.41L340.341 83.87L341.681 83.04L343.091 83.9L342.951 86.13L341.501 90.03L341.681 92.75L340.601 95.5L340.611 98.58L337.341 100.01L335.491 99.38L335.161 100.26L338.811 102.87L339.961 105.62L341.411 106.58L340.891 107.93L342.501 112.51L344.311 112.66L344.731 113.07L342.441 115.06L339.161 115.7L338.731 116.79L336.821 114.81L334.281 116.24L326.171 115.87L321.401 116.53L320.271 116.09L319.661 115.24L317.301 115.15L315.001 116.6L313.781 116.64L311.961 117.75L310.441 115.95L305.661 117.7H302.621L299.501 115.17L298.021 114.62L295.271 112.63L294.481 111.59L292.241 110.75L290.681 110.7L289.271 109.87L287.761 110.91L284.671 110.5L281.031 112.45L279.381 112.87H272.641L267.571 118.72L265.491 123.23L258.571 124.33L258.361 123.72L259.971 122.36L259.901 120.13L259.271 118.56L257.231 117.62L253.561 118.65L251.591 120.56L250.181 120.04L248.851 120.77L247.751 120.34L242.831 121.11L240.721 120.71L240.031 121.03L238.711 120.95L237.841 120.06L237.241 120.03L235.391 120.85L234.601 123.72L233.251 125.43L232.121 125.55L231.441 125.14L230.981 125.63L231.821 129.33L230.921 130.95L231.051 132.39L231.561 133.34L234.011 135.46L233.541 139.09L231.911 140.4L231.041 142.03L228.201 142.4L225.791 141.75L224.341 142.85L223.341 142.79L222.221 141.72L220.381 141.45L220.451 140.2L219.741 140.14L219.631 138.64L218.831 138.45L216.871 139.48L215.541 141.3L213.901 142.05L213.461 142.95L213.251 140.54L212.261 140.25L211.681 138.46L208.361 134.97L208.461 131.63L207.131 131.42L206.271 130.4L205.641 130.51L205.471 129.25L204.371 128.47L203.351 128.6L202.181 127.2L199.841 125.98L200.151 121.34L199.631 120.69L201.031 117.86L199.331 115.45L200.411 113.65L200.421 112.6L201.021 112.79L201.851 110.99L201.541 110.02L199.481 107.98L197.051 108.54L192.491 107.12L190.351 107.96L188.591 108.02L187.761 106.94L187.961 105.87L186.581 106.32L185.411 108.12L185.101 109.48L182.921 110L181.441 111.36L176.221 110.88L174.811 109.34V108.2L175.441 108.32L177.341 107.21L178.561 107.08L179.691 105.28L179.741 104.2L181.981 102.75L185.211 102.27L185.891 101.78L187.821 99.46L188.151 98.14L189.361 97.45L189.521 94.83L189.021 93.58L189.771 92.38L189.441 91.47L189.801 90.58L188.231 88.09L184.881 86.95L185.821 85.52L187.571 84.39L188.421 82.55L186.981 81.18L186.711 78.4L183.461 77.29L183.361 75.65L182.111 75.45L180.081 74.32L176.681 71.09L175.341 70.52L175.031 68.24L173.211 66.92L173.101 65.73L172.411 64.75L172.751 63.81L172.491 62.62L170.931 60.97L171.031 59.24L169.401 57.59L167.321 53.68L166.391 53.17L165.561 51.93L165.631 49.76L163.501 49.65L161.061 50.27L160.281 49.87L164.511 48.58L165.861 47.36L167.101 44.99L168.561 44.19L168.051 43.31L169.601 41.71L169.831 40.89L168.681 36.54L169.381 35.97L171.001 37.16L172.211 37.4L173.251 37.11L173.971 35.83L176.241 34.62L176.351 33.04L177.011 31.7L177.921 31.14L177.931 30.21L179.101 30.04L179.431 28.95L181.041 28.08L181.311 26.85L182.131 26.64L183.751 25.08L182.531 22.07L182.591 21.1L183.651 20.48L183.801 19.54L186.061 18.38L189.121 18.05L189.701 18.39L189.731 20.03L191.471 20.33L192.771 19.89L193.451 20.2L194.371 19.28L198.021 18.41L199.121 19.61L201.371 19.38L204.681 21.38H206.161L209.141 18.51L210.881 18.13L211.761 17.15L214.521 16.36L216.741 16.82L218.071 16.43L218.731 17.05L221.331 17.33L225.921 16.56L226.671 17.51L228.331 18.35L228.381 19.2L229.151 19.02L229.321 19.38L228.231 22.38L228.921 23.39L228.451 23.95L228.031 27.08L229.431 27.54L230.141 29.85L231.001 30.89L230.601 32.48L228.941 34L229.341 35.92L230.081 36.82L232.071 36.26L233.341 36.85L236.001 36.75L237.241 35.65L237.061 35.16L237.851 33.71L239.791 33.97L240.171 33.22L241.951 33.43L243.981 35.39L245.251 35.56L246.251 35.21L247.031 34.22L248.361 35.26L251.001 33.79L252.611 34.31L253.401 33.5L252.841 32.77L252.931 31.4L252.341 30.84V30.07L254.311 27.62L255.711 27.98L256.411 26.95L256.711 25.52L255.791 23.88L257.121 21.8L256.651 20.98L257.441 20.3L257.401 17.72L260.101 15.26L260.381 14.41L261.581 14.44L262.601 13.88L264.081 14.23L265.381 13.66L266.181 13.97L266.351 14.77L270.841 13.74L271.431 12.67L271.241 10.95L272.161 10.06L271.981 8.54999L275.101 7.39001L275.871 6.29999L275.991 4.76001L276.611 4.23001L279.601 3.45001L279.481 2.04999L279.951 1.16L280.871 1.42001L281.981 1Z" fill="#CCCCCC" stroke="white" stroke-width="0.5"/>
</svg>
