<svg width="451" height="794" viewBox="0 0 451 794" fill="none" xmlns="http://www.w3.org/2000/svg">
<path d="M45.2291 579.64L47.8291 579.71L46.9791 583.59L48.1491 584.36L51.2191 584.02L50.5891 584.89L51.3191 585.71L53.4191 585.04L54.5791 585.95L55.8291 584.67L56.7091 585.45L58.3191 585.18L60.2991 587.51L62.6591 586.62L68.8491 588.12L70.3991 586.47L71.8591 586.86L74.4891 585.99L74.3791 587.33L75.7091 590.29L77.6791 590.54L83.7191 593.81L84.6891 592.64L86.6791 593.7L87.3691 593.08L90.4091 592.94L90.5291 587.57L91.4891 584.82L92.9191 584.32L93.6691 582.5L96.0491 581.97L96.4991 580.3L105.049 581.11L105.849 579.23L107.709 579.54L108.739 580.25L109.819 579.51L111.869 579.97L113.389 579.36L115.559 580.53L115.479 583.75L116.529 585.2L116.569 586.8L115.829 588L113.449 587.68L113.869 591.69L111.739 593.56L112.009 594.51L111.039 594.39L109.969 595.36L109.949 596.71L108.529 597.97L108.089 601.77L107.199 603.48L109.809 604.1L110.769 605.16L112.279 608.99L112.349 611.9L111.509 612.66L107.719 612.68L106.689 611.53L104.619 612.41L103.529 610.78L101.659 610.39L95.0191 614.18L96.6191 618.99L96.5091 620.71L95.7591 621.34L93.4391 620.95L91.2991 616.46L91.2391 614.67L90.2291 614.12L89.8991 612.5L88.0791 611.95L86.9591 612.38L85.2591 616.27L84.0791 617.39L81.3191 616.36L80.0891 614.62L78.8991 614.22L76.9491 617.2L74.4091 618L74.8291 618.67L73.4091 619.96L72.5691 619.89L72.3491 621.29L71.0191 621.39L67.2291 623.86L65.3091 623.32L63.3091 623.85L61.6991 622.95L61.0991 625.41L60.3891 625.83L55.3991 625.73L54.8091 625.06L55.1791 623.95L54.0291 622.61L49.0791 620.28L48.5791 621.07L50.0191 622.88L52.0891 630.72L51.8491 632.48L47.3191 621.45L43.9591 610.92L42.7991 600.5L39.5391 588.97L40.2091 584.49L40.8791 587.4L42.3891 584.15L41.9991 582.92L44.1791 582.14L45.2291 579.64Z" fill="#CCCCCC" stroke="white" stroke-width="0.5"/>
<path d="M59.6889 519.69L60.4489 520.04L60.7189 518.79L62.2989 518.55L61.3789 517.52L61.5489 516.73H62.5789L62.6689 515.98L64.5689 516.95L66.6089 516.26L67.3489 514.69L70.0289 514.03L68.8289 513.45L71.9289 511.88L72.5589 510.65L74.1989 511.84L76.6489 511.26L75.9789 512.31L77.0389 512.96L77.3189 514.19L78.7589 513.86L80.5189 514.58L82.1089 517.64L83.3789 517.76L87.5489 515.27L88.1189 513.73L91.8089 512.29L96.5789 508.36L101.399 512.22L100.399 513.71L100.879 514.68L105.419 517.98L108.449 522.66L109.509 522.2L110.539 523.17L111.529 525.72L108.509 527.9L109.049 530.61L108.599 536.09L104.229 536.31L103.139 538.23L100.799 537.28L102.539 539.83L102.469 545.26L104.169 550.17L106.579 548.13L112.269 547.98L113.519 548.96L113.389 550.64L111.659 551.89L110.579 554.81L108.859 554.73L106.509 560.8L104.609 563.25L106.609 573.1L108.289 576.15L107.689 579.56L105.829 579.25L105.029 581.13L96.4789 580.32L96.0289 581.99L93.6489 582.52L92.8989 584.34L91.4689 584.84L90.5089 587.59L90.3889 592.96L87.3489 593.1L86.6589 593.72L84.6689 592.66L83.6989 593.83L77.6589 590.56L75.6889 590.31L74.3589 587.35L74.4689 586.01L71.8389 586.88L70.3789 586.49L68.8289 588.14L62.6389 586.64L60.2789 587.53L58.2989 585.2L56.6889 585.47L55.8089 584.69L54.5589 585.97L53.3989 585.06L51.2989 585.73L50.5689 584.91L51.1989 584.04L48.1289 584.38L46.9589 583.61L47.8089 579.73L45.2089 579.66L44.9289 574.79L34.6289 534.32L35.0189 533.26L36.3589 533.04L37.3689 534.44L35.8589 538.36L37.7589 544.53L38.9889 545.71L39.0489 548.74L40.7889 550.87L40.3389 552.55L41.6289 553.5L43.0289 552.55L43.7589 549.75V551.49L44.7689 552.44L45.6689 550.7L44.5489 541.23L40.9089 534.9L38.8389 535.85L38.6289 537L38.3489 536.5L37.7289 537L37.7889 534.59L36.9489 533.25L39.1289 529.77L39.7489 520.41L41.2589 520.24L40.0789 519.86L41.4089 519.96L42.2489 519.17L43.7089 520.57L46.5889 517.91L49.1389 519.77L50.8089 519.56L51.2089 518.42L52.2989 519.47L53.2489 518.52L52.7389 521.19L54.2989 520.73L54.2489 519.27L56.2389 518.97L56.5489 518.02L59.6889 519.69Z" fill="#CCCCCC" stroke="white" stroke-width="0.5"/>
<path d="M51.8403 632.47L52.0803 630.71L50.0103 622.87L48.5703 621.06L49.0703 620.27L54.0203 622.6L55.1703 623.94L54.8003 625.05L55.3903 625.72L60.3803 625.82L61.0903 625.4L61.6903 622.94L63.3003 623.84L65.3003 623.31L67.2203 623.85L71.0103 621.38L72.3403 621.28L72.5603 619.88L73.4003 619.95L74.8203 618.66L74.4003 617.99L76.9403 617.19L78.8903 614.21L80.0803 614.61L81.3103 616.35L84.0703 617.38L85.2503 616.26L86.9503 612.37L88.0703 611.94L89.8903 612.49L90.2203 614.11L91.2303 614.66L91.2903 616.45L93.4303 620.94L95.7503 621.33L96.5003 620.7L96.6103 618.98L95.0103 614.17L101.65 610.38L103.52 610.77L104.61 612.4L106.68 611.52L107.71 612.67L107.36 613.78L108.25 616.27L110.16 618.85L110.21 623.37L112.94 628.93L112.86 629.56L111.59 629.3L111.58 630.08L113.73 633.41L114.88 637.25L116.16 637.74L117.22 639.84L120.19 641.58L121.71 644.02L122.15 646.2L121.65 647.9L122.87 650.34L123.9 651.34L128.32 652.2L132.54 656.58L134.64 661.74L133.78 661.54L130.81 663.37L133.02 666.83L132.91 667.67L146.95 687L148.46 690.83L147.37 690.27L145.68 690.57L143.5 692.24L142.41 692.07L138.68 693.88L134.44 696.77L132.08 696.66L130.07 697.65L130.66 703.63L131.16 705.36L132.38 708.06L131.64 711.17L130.74 710.88L127.09 706.33L125.52 705.99L120.87 701.39L119.27 700.65L115.04 700.1L114.34 701.83L113.3 701.65L113.35 704.28L110.01 705.28L102.7 702.77L97.9803 702.95L96.4203 702L94.0603 698.74L89.2503 695.82L85.8403 696.69L84.0203 694.46L79.4103 692.14L77.3103 692.07L76.3103 689.74L74.7203 688.89L73.0203 688.85L72.3403 690.3L71.2103 690.8L69.2703 688.09L67.3103 686.18L66.3003 683.94L66.1303 681.81L67.9803 680.24L68.0403 678.39L66.6403 674.92L67.6503 674.14L67.3203 672.35L63.2903 662.22L60.4303 652.59L55.1403 639.86L52.1203 634.43L51.8403 632.47Z" fill="#CCCCCC" stroke="white" stroke-width="0.5"/>
<path d="M185.51 482.72L186.78 483.51L187.03 486.18L188.18 486.53L189.97 488.64L191.12 488.66L192.42 490.18L195.37 491.45L197.42 493.97L200.72 495.04L203.33 497.46L206.8 497.57L212.27 496.98L213.81 495.32L213.96 491.5L215.05 489.09L212.83 482.78L218.19 479.3L219.24 479.9L219.15 481.31L220.7 481.55L223.35 484.54L224.83 484.52L225.5 485.95L227.49 486.7L228.44 488.28L230.79 488.75L233.12 486.52L234.44 486.26L234.14 484.75L236.86 482.26L240.76 481.61L242.86 479.72L245.39 479.26L248.48 481.13L250.21 479.57L252.5 479.25L254.22 482.53L254.83 481.24L256.58 481.95L257.44 479.48L259.39 477.91L259.62 476.32L262.07 476.87L264.98 476.21L267.87 476.54L268.07 488.91L266.91 491.67L268.74 493.51L269.58 495.83L268.24 501.61L276.39 527.98L274.71 531.4L269.69 532.18L267.61 535.48L262.38 534.65L256.39 534.23L252.6 534.94L249.86 538.61L248.95 537.63L248.96 535.83L246.36 536.33L245.12 535.88L243.11 536.7L234.86 535.04L233.3 533.82L233.19 529.53L230.46 527.3L229.37 525.13L228.31 524.83L224.71 520.76L223.11 519.87L222.76 520.6L223.86 523.73L223.28 524.4L224.86 526.77L226.04 527.3L225.61 529.31L226.59 530.16L225.94 531.66L226.88 535.06L220.49 542.43L218.64 543.05L216.86 547.01L212.11 552.29L210.35 556.38L208.13 556.18L205.31 554.54L202.23 554.31L200.07 555.05L199.1 557.87L197.91 559.09L187.99 560.08L186.71 558.54L184.6 559.59L183.23 558.61L180.6 560.27L180.21 562.58L182.79 561.97L184.79 565.41L184.74 566.95L187.4 569.97L189.48 571.16L190.47 573.44L193 576.19L191.25 577.95L190.33 582.16L187.95 583.27L188 586.3L185.83 586.11L185.2 587.38L183 587.08L180.37 582.75L175.49 578.67L174.92 575.75L171.7 571.08L171.78 569.82H170.09L166.93 567.55L164.92 569.35L164.42 565.54L164.99 563.47L166.47 561.92L165.18 561.88L163.06 554.65L161.36 552.13L163.38 550.45L166.31 550.4L167.94 549.36L168.69 549.92L172.4 549.26L172.8 547.95L173.56 548.12L174.37 545.02L176.76 544.45L177.49 545.51L178.24 544.49L179.27 544.73L178.19 542.46L179.02 541.58L181.68 541.44L181.99 540.91L181.37 539.03L174.96 533.09L174.83 532.11L176.8 530.63L176.82 527.75L176.07 526.47L174.4 525.6L173.09 523.02L168.17 521.9L167.45 520.67L168.41 520.08L168.54 517.61L163.74 513.29L163.22 511.92L160.19 510.74L158.44 509.22L157.48 508.01L156.59 502.98L158.3 502.44L159.85 503.58L161.58 502.69L163.05 503.98L164.18 503.96L162.54 501.9L163.94 499.14L165.46 498.6L166.74 495.37L166.21 493.95L164.69 493.17L164.73 491.89L166.23 491.46L167.01 492.71L168.59 492.61L173.72 496.85L175.95 496.17L175.65 491.55L178.2 491.6L178.48 490.28L179.93 490.81L180.65 490.04L182.68 491.16L183.69 490.5L183.39 488.96L181.91 487.72L182.2 485.66L180.71 484.44L181 483.7L183.36 484.12L183.78 483.11L185.51 482.72Z" fill="#CCCCCC" stroke="white" stroke-width="0.5"/>
<path d="M223.91 370.63L226.93 373.03L227.18 374.02L227.59 373.42L228.62 374.18L228.4 379.55L230.31 380.72L232.46 381.09L232.57 377.86L235.74 376.46L236.88 376.99L237.91 378.93L240.82 378.75L243.5 380.67L239.61 382.38L238.75 385.28L236.71 388.4L234.75 400.89L234.98 403.06L233.23 409.12L231.44 410.07L231.87 412.57L229.87 413.54L229.05 412.42L226.47 413.09L224.93 415.14L225.88 416.22L225.46 426.89L227.61 433.37L226.67 435.68L224.9 434.65L228.48 438.22L233.72 437.88L234.62 439.48L236.96 437.83L240.19 437.54L241.2 435.32L243.45 433.54L243.94 435.6L245.02 436.23L246.92 435.88L248.26 437.87L249.6 430.71L254.22 430.56L258.52 432.09L261.49 431.01L269.08 430.51L270.87 429.38L271.58 434.02L270.55 436.02L271.61 438.27L271.99 441.55L269.37 445.23L268.61 448.92L268.88 451.59L268.04 454.45L268.45 456.94L267.37 460.71L267.87 476.54L264.98 476.21L262.07 476.87L259.62 476.32L259.39 477.91L257.44 479.48L256.58 481.95L254.83 481.24L254.22 482.53L252.5 479.25L250.21 479.57L248.48 481.13L245.39 479.26L242.86 479.72L240.76 481.61L236.86 482.26L234.14 484.75L234.44 486.26L233.12 486.52L230.79 488.75L228.44 488.28L227.49 486.7L225.5 485.95L224.83 484.52L223.35 484.54L220.7 481.55L219.15 481.31L219.24 479.9L218.19 479.3L212.83 482.78L215.05 489.09L213.96 491.5L213.81 495.32L212.27 496.98L206.8 497.57L203.33 497.46L200.72 495.04L197.42 493.97L195.37 491.45L192.42 490.18L191.12 488.66L189.97 488.64L188.18 486.53L187.03 486.18L186.78 483.51L185.51 482.72L185.2 480.39L186.32 478.77L187.42 478.84L186.56 477.09L186.99 472.62L186.09 471.89L186.19 471.08L184.89 471.27L185.35 469.58L183.78 466.81L182.7 466.44L183.18 465.33L182.69 463.97L184.93 459.51L187.15 458.89L186.09 454.93L187.56 452.47L185.63 450.28L185.3 447.83L183.34 447.17L182.14 445.51L181.37 441.66L182.71 441.05L182.87 439.81L181.98 437.46L181.84 432.52L179.51 432L179.62 426.25L176.18 421.57L175.77 419.08L172.91 418.86L171.48 416.98L171.16 411.88L172.1 410.51L172.28 408.29L177.21 408.04L185.43 403.67L187.6 399.74L190.47 399.98L191.05 401.81L192.41 402.29L195.65 399.7H197.03L197.06 396.86L200.3 395.67L198.98 393.31L203.35 390.26L203.11 383.91L203.83 383.57L204.28 381.2L206.26 380.52L209.03 381.88L213.78 374.78L215.22 374.84L216.44 373.33L223.91 370.63Z" fill="#CCCCCC" stroke="white" stroke-width="0.5"/>
<path d="M164.92 569.35L166.93 567.55L170.09 569.82H171.78L171.7 571.08L174.92 575.75L175.49 578.67L180.37 582.75L183 587.08L185.2 587.38L185.83 586.11L188 586.3L187.95 583.27L190.33 582.16L191.25 577.95L193 576.19L190.47 573.44L189.48 571.16L187.4 569.97L184.74 566.95L184.79 565.41L182.79 561.97L180.21 562.58L180.6 560.27L183.23 558.61L184.6 559.59L186.71 558.54L187.99 560.08L197.91 559.09L199.1 557.87L200.07 555.05L202.23 554.31L205.31 554.54L208.13 556.18L210.35 556.38L212.11 552.29L216.86 547.01L218.64 543.05L220.49 542.43L226.88 535.06L225.94 531.66L226.59 530.16L225.61 529.31L226.04 527.3L224.86 526.77L223.28 524.4L223.86 523.73L222.76 520.6L223.11 519.87L224.71 520.76L228.31 524.83L229.37 525.13L230.46 527.3L233.19 529.53L233.3 533.82L234.86 535.04L243.11 536.7L245.12 535.88L246.36 536.33L248.96 535.83L248.95 537.63L249.86 538.61L252.6 534.94L256.39 534.23L262.38 534.65L261.71 536.03L265.51 543.39L265.39 546.4L263.61 545.81L263.21 548.89L265.03 549.38L266.2 550.68L264.64 551.93L263.48 554.63L264.19 555.49L263.86 556.89L266.27 559.4L264.89 560.11L264.36 562.34L261.43 564.12L260.86 566.44L259.04 567.38L258.99 571.03L257.09 576.91L252.85 579.66L251.47 579.41L248.1 580.38L245.54 579.48L240.13 583.99L239.12 589.21L236.26 591.38L229.33 590.89L228.3 591.96L228.54 593.16L235.01 594.9L234.69 596.42L235.91 596.95L235.37 599.32L236.49 598.88L237.83 599.99L237.13 602.9L240.56 606.32L239.36 608.62L237.92 609.33L236.38 608.91L235.8 609.67L236.51 611.53L240.48 613.02L239.9 614.86L238.07 616.8L235.92 616.29L234.67 617.03L230.59 620.66L227.6 619.78L221.64 623.82L218.96 622.79L213.87 624.49L211.41 623.65L204.76 623.08L204.4 624.57L203.29 625.25L199.58 624.82L195.48 623.6L186.95 622.69L181.23 620.33L177.82 621.86L174.63 620.08L172.48 619.73L169.99 616.1L172.75 613.71L172.43 613.1L171.39 613.28L170.7 612.2L171.48 609.01L173.06 608.22L174.6 605.83L174.18 604.76L172.37 603.85L172.32 602.2L171.27 600.94L171.89 597.88L168.27 595.55L164.24 595.21L163.17 594.01L158.79 592.5L159.07 590.82L159.7 590.69L159.72 584L161.32 582.05L161.01 580.19L158.66 577.96L158.8 576.57L159.71 575.46L162.26 575.22L165.71 571.62L165.86 570.18L165.1 570.16L164.92 569.35Z" fill="#CCCCCC" stroke="white" stroke-width="0.5"/>
<path d="M69.3105 688.06L71.2505 690.77L72.3805 690.27L73.0605 688.82L74.7505 688.86L76.3505 689.71L77.3505 692.04L79.4406 692.11L84.0506 694.43L85.8706 696.66L89.2805 695.79L94.0905 698.72L96.4505 701.98L98.0005 702.93L102.721 702.75L110.031 705.26L113.371 704.26L113.331 701.64L114.361 701.82L115.061 700.09L119.291 700.64L120.891 701.38L125.541 705.98L127.121 706.32L130.761 710.87L131.661 711.16L132.401 708.04L131.181 705.35L130.691 703.62L130.091 697.64L132.101 696.64L134.461 696.75L138.701 693.87L142.431 692.06L143.531 692.23L145.711 690.56L147.401 690.26L148.491 690.82L155.981 697.57L158.491 698.18L160.301 697.11L162.471 698.51L165.281 698.86L166.661 700.42L170.481 700.04L171.341 702.56L169.931 703.3L167.881 703.05L165.191 705.74L164.331 705.8L165.111 708.39L167.291 710.09L167.931 711.46L169.371 711.89L171.431 716.25L169.641 717.8L169.411 719.3L168.271 718.95L167.281 720.13L165.731 719.83L164.491 718.29L162.981 718.57L161.431 715.91L158.721 714.66L158.011 713.05L155.031 711.48L153.071 709.38L150.681 710.31L149.221 709.87L147.601 711.13L150.831 715.5L154.791 717.61L156.551 721.67L160.031 725.32L159.241 726.58L160.451 728.16L159.291 728.94L160.191 731.08L157.521 733.46L148.791 732.09L151.701 735.29L152.761 738.25L149.691 739.1L151.361 742.03L150.381 743.15L149.041 743.32L148.621 745.7L149.361 748.82L150.001 749.87L152.211 750.74L153.361 753.63L154.741 754.5L156.281 754.32L156.761 755.57L159.971 757.73L159.531 759.2L157.681 759.87L154.321 762.68L153.081 765.93L151.951 766.21L150.971 764.99L149.981 765.59L150.441 769.76L151.391 770.37L154.581 770.09L156.831 772.83L154.621 773.48L154.381 774.25L151.881 773.94L150.241 774.99L148.481 779.96L149.091 783.66L146.231 783.16L134.581 778.13L124.621 776.78L121.881 774.6L120.421 775.44L118.851 773.04L119.861 772.7L120.421 770.97L119.641 770.02L117.681 770.46L117.231 770.13L118.141 769.62L116.611 769.24L115.551 769.96L115.891 771.36L115.211 771.75L113.141 769.18L108.271 766.55L107.211 765.15L107.431 764.48L97.0205 756.54L96.2906 754.08L91.7005 750.22L91.4205 746.58L90.0806 745.18L89.3505 742.89L83.9706 737.69L84.4205 735.73L82.1805 730.86V729.35L78.7705 724.21L78.1506 722.47L79.1705 717.1L77.2005 713.46L77.7005 711.9L76.2505 707.42L74.6805 704.79L69.3105 688.06Z" fill="#CCCCCC" stroke="white" stroke-width="0.5"/>
<path d="M171.341 702.56L179.091 701.2L179.111 698.41L181.301 698.22L181.411 697.12L182.291 696.81L183.361 698.15L185.451 697.18L188.161 697.92L191.831 696.52L196.241 696.78L196.491 698.7L195.591 699.83L195.971 701.86L193.761 704.15L194.691 706.93L198.771 705.8L204.801 705.34L205.211 708.16L203.971 708.68L205.431 710.67L206.711 710.74L207.591 711.77L206.491 712.39L206.571 714.95L203.871 715.64L205.271 718.72L203.081 722.01L205.001 723.93L200.221 725.71L198.201 728.26L197.541 731.37L194.131 736.39L194.781 738.61L196.351 739.81L198.261 740.07L199.931 742.34L202.901 742.49L204.581 741.62L205.011 743.08L203.561 746.64L201.841 748.23L202.141 749.72L204.641 750.71L205.301 752.58L210.001 751.65L211.421 752.29L211.801 753.33L209.431 754.69L208.621 756.03L209.281 757.37L209.001 758.57L211.341 761.34L210.681 762.16L211.261 762.72L211.021 763.87L210.171 764.61L209.181 763.94L207.041 765.63L204.851 766.06L203.541 767.91L205.311 768.76L205.871 771.51L210.941 771.26L212.311 772.88L212.001 774.06L209.961 774.88L210.251 778.49L213.191 777.98L217.461 780.88L216.051 784.69L214.031 784.13V784.75L212.461 784.86L212.401 783.97L210.781 783.91L209.941 784.97L207.081 784.75L202.491 785.59L201.091 786.37L200.531 787.82L199.751 787.04L197.061 787.49L196.721 789L195.881 789.17L196.331 790.29L192.691 791.69L191.351 791.41L190.741 793L189.171 792.67L189.281 791.05L187.881 789.6L183.681 788.26L180.041 788.37L179.821 788.7L176.851 789.59L171.361 788.64L166.601 789.14L163.971 787.63L162.681 788.3L161.221 787.18L162.681 786.79L162.901 783.94L159.711 781.98L157.641 782.26L155.681 785.61L149.071 783.65L148.471 779.95L150.231 774.98L151.871 773.93L154.371 774.24L154.611 773.46L156.821 772.81L154.571 770.08L151.381 770.35L150.431 769.74L149.971 765.57L150.961 764.96L151.941 766.18L153.071 765.9L154.311 762.65L157.671 759.84L159.521 759.17L159.961 757.7L156.751 755.54L156.271 754.29L154.731 754.47L153.361 753.6L152.211 750.71L150.001 749.84L149.361 748.8L148.611 745.68L149.041 743.3L150.381 743.13L151.361 742.01L149.701 739.08L152.771 738.23L151.711 735.27L148.791 732.06L157.531 733.44L160.201 731.06L159.301 728.92L160.461 728.14L159.241 726.56L160.041 725.29L156.561 721.65L154.811 717.59L150.851 715.48L147.621 711.11L149.241 709.85L150.701 710.29L153.091 709.36L155.051 711.46L158.031 713.03L158.741 714.63L161.451 715.88L163.001 718.55L164.501 718.27L165.741 719.81L167.291 720.11L168.281 718.93L169.421 719.28L169.651 717.78L171.441 716.23L169.371 711.87L167.931 711.44L167.291 710.07L165.111 708.37L164.341 705.78L165.191 705.72L167.881 703.03L169.921 703.29L171.341 702.56Z" fill="#CCCCCC" stroke="white" stroke-width="0.5"/>
<path d="M395.619 659.99L396.639 661.27L397.799 661.52L398.189 663.02L400.129 664.65L401.649 667.38L404.259 666.83L406.799 668.02L408.709 671.39L411.209 673.1L414.789 673.21L415.349 673.67L414.899 675.46L412.769 678.43L406.609 682.74L405.769 685.04L403.929 686.83L400.739 687.83L397.039 690.35L396.819 691.81L397.819 692.59L393.909 696.23L388.309 698.91L385.619 701.32L387.129 701.66L379.629 703.56L374.979 705.69L373.469 707.31L374.139 708.65L372.799 710.44L370.559 711.45L370.109 714.08L368.429 714.25L367.259 714.97L361.769 716.76L355.439 724.49L353.319 726.22L349.569 727.23L348.449 728.07L348.169 729.35L341.619 731.54L341.109 733.61L338.539 735.4L338.479 736.51L332.489 737.02L327.339 739.48L321.629 740.04L318.609 742.28V743.45L311.219 744.4L312.949 743.56L313.399 741.05L313.849 741.77L314.459 741.44L312.729 739.54L310.379 739.81L311.099 739.14L310.489 737.63L310.429 738.42L309.589 738.53L309.709 739.87L307.859 740.49L308.979 741.21L308.419 742.78L310.099 744.79L307.689 746.81L303.429 747.93L302.259 749.27L299.289 750L298.619 751.67L299.519 752.18L293.519 752.51L292.409 753.58L284.339 754.19L283.269 755.07L276.509 755.37L272.079 756.54L268.609 759.06L262.289 759.39L260.209 760.34L260.159 761.41L259.089 761.29L253.379 763.81L251.649 763.87H251.199L246.829 764.93L246.159 767.17L245.149 768L241.849 767.33L236.419 768.12L233.619 769.29L232.329 770.91L232.779 772.37L230.819 772.81L228.749 775.5L227.409 775.33L226.789 776.11L226.059 775.61L225.669 776.45L223.769 776.22L222.309 776.95L221.699 778.35L222.479 778.85L220.629 779.19L219.909 780.2L220.129 782.26L218.949 780.75L217.449 780.86L213.189 777.96L210.239 778.47L209.949 774.86L211.999 774.04L212.309 772.87L210.929 771.25L205.869 771.5L205.309 768.75L203.539 767.9L204.849 766.05L207.039 765.62L209.179 763.92L210.159 764.6L211.009 763.86L211.249 762.71L210.669 762.16L211.319 761.34L208.979 758.57L209.259 757.37L208.599 756.03L209.409 754.69L211.789 753.33L211.409 752.29L209.989 751.66L205.299 752.59L204.639 750.72L202.129 749.73L201.829 748.24L203.549 746.65L204.999 743.09L204.569 741.63L202.889 742.5L199.919 742.35L198.239 740.08L196.329 739.82L194.759 738.62L194.109 736.41L197.529 731.38L198.189 728.27L200.209 725.72L204.999 723.94L203.069 722.03L205.269 718.74L203.869 715.65L206.559 714.96L213.399 714.87L214.979 716.02L219.129 716.87L224.639 719.98L226.899 720.28L232.349 722.81L237.719 723.14L244.429 721.82L246.699 722.88L249.279 726.98L251.409 726.43L254.999 728.65L259.169 728.25L260.909 730.69L263.529 728.51L261.469 724.67L261.219 722.1L259.949 721.96L259.359 719.23L256.919 717.02L262.029 714.16L264.209 713.41L266.599 711.06L269.539 710.47L276.729 707.17L277.609 704.31L276.089 702.34L274.569 702.24L274.729 698.5L275.729 696.84L280.519 697.79L283.029 694.66L282.949 691.64L285.479 693.75L286.629 693.24L287.349 691.24L291.019 691.17L293.469 692.35L300.649 691.79L302.209 696.53L303.389 696.23L304.679 697.53L306.349 697.42L307.349 695.46L310.199 694.93L314.049 699.4L315.589 702.64L318.279 704.54L317.619 706.2L320.489 707.84L322.589 707.44L324.159 707.95L326.079 706.89L328.179 705.08L329.179 702.26L336.039 700.06L336.949 701L339.039 699.6L339.989 700.11L341.699 699.62L343.999 698.1L347.079 697.93L348.289 696.41L350.449 696.34L352.339 693.07L353.429 693.24L353.839 694.74L357.699 694.17L359.239 692.39L361.009 692.66L361.679 692.02L363.379 693.26L365.979 693.35L367.129 694.6L368.209 694.39L369.759 692.15L369.049 686.2L371.049 683.08L369.659 681.31L369.479 678.54L370.229 676.72L375.509 673.02L378.669 671.92L380.459 668.66L383.299 668.54L386.979 664.9L390.179 665.66L391.719 663.62L393.929 663.54L395.619 659.99Z" fill="#CCCCCC" stroke="white" stroke-width="0.5"/>
<path d="M191.47 73.61L196.4 77.67L191.08 76.54L191.47 73.61ZM3.52 58.16L5.42 58.27L6.93 61.03L9.34 62.16L9.56 62.89L15.27 63.34L16.22 64.02L17.34 71.13L16 73.95L12.64 74.12L10.18 73.27L1.84 68.2L1 60.14L2.12 58.22L3.35 57.71L3.52 58.16ZM30.23 48.8L30.68 50.55L31.69 51.17L31.3 53.54L29.4 52.41L29.46 49.48L30.23 48.8ZM25.36 44.4L26.26 44.8L25.93 52.19L24.19 51.51L23.57 49.93L23.63 45.98L25.36 44.4ZM42.27 41.69L44.17 43.72L43.61 45.58L41.87 44.06L41.48 42.2L42.27 41.69ZM27.71 31.08L28.44 35.59L25.87 38.19L26.71 38.47L26.2 40.05L23.68 37.23L25.25 33.56L27.71 31.08ZM43.16 27.75L45.62 29.84L47.3 29.56L48.25 28.54L49.65 29.5L50.21 31.19L51.5 32.04L50.6 33.73L52.56 36.33L52.95 35.31L51.77 34.41L55.86 33.45L54.46 32.49L58.38 33.34L58.77 32.83V35.65L58.04 35.31L57.31 35.87L56.58 35.98L56.36 36.66L61.51 40.33L65.88 42.47L67.62 42.36L67.51 41.68L68.68 41.34L68.35 40.1L71.49 41.23L72.94 42.87L71.99 44.79L72.33 46.6L71.77 47.78L68.86 49.47L66.17 48.91L64.66 47.89L64.32 46.7L65.05 46.76L64.99 47.72L66.95 47.83L67.9 44.56L66.44 46.42L63.81 46.08L62.07 44.33L58.65 42.75L55.07 42.19L52.77 45.63L51.04 45.52L49.7 44.28L43.82 47.55L44.15 48.23L43.09 50.29L43.87 51.67L43.09 53.36L43.71 54.88L42.98 55.28L40.35 55.73L32.01 53.93L31.74 51L32.69 50.77L33.19 49.42L32.13 48.4L32.97 47.78L32.69 45.07L33.64 43.38L34.54 44.34L35.44 43.66L35.33 45.35L36.28 45.91L35.27 48.45L37.4 50.2L38.3 49.97V49.12L41.21 49.74L39.59 48.72L39.2 46.91L39.03 47.76L35.67 47.65L36.23 46.01L38.24 46.64L40.14 44.9L43.72 47.44L49.88 44.05L46.58 41.68L45.74 41.91L44.17 38.75L44.59 37.7L46.18 37.51L46.91 36.66V35.14L45.62 33.96L44 33.85L43.83 34.87L44.33 34.47L45.39 35.71L44.72 37.18L43.49 37.24L41.98 35.43L40.19 32.67L39.97 31.37L41.2 30.47L39.35 29.17L39.24 28.04L41.98 28.38L43.16 27.75ZM34.09 25.44L33.53 31.7L32.63 29.27L32.97 26.9L34.09 25.44ZM114.71 1L122.32 3.09L124.39 8.11L128.7 15.34L138.44 29.34L144.49 35.88L174.11 59.46L177.47 62.45L177.92 63.63L190.46 73.27L190.8 74.79L190.3 75.24L188.45 74.68L180.28 69.1L181.57 69.44L181.12 68.76L178.77 68.31L174.52 65.49L168.98 64.01L167.36 64.42L166.97 63.52L163.14 61.38L163.3 57.53L161.58 53.91L152.28 46.67L138.46 38.84L131.14 30.41L123.03 45.99L113.95 40.85L107.34 37.92L105.05 37.64L102.87 39.62L104.21 40.86L105.27 39.45L106.17 40.24L106.39 42.89L105.61 43.57L106.28 44.25L103.62 44L105.92 44.9L107.54 44L108.21 44.4L108.99 44.17L110.28 44.51L111.29 45.24L110.67 46.26L111.57 46.54L108.94 47.95L107.09 47.05L105.86 47.33L106.53 48.29L107.98 47.78L108.99 48.51L108.65 49.3L110.44 48.62L110.38 49.69L108.81 50.08L110.32 50.93L110.71 51.49L113.45 51.83L111.84 52.56L105.95 49.4L100.41 44.15L92.96 40.82L87.59 37.83L87.09 36.8L86.92 38.57L87.31 39.36L87.53 40.32L91.06 41.73L95.65 46.36L98.73 47.09L97.16 47.43L91.39 45.34L81.87 39.02L80.47 38.68L79.46 39.53L75.37 38.8L72.57 36.26L70.61 39.25L72.74 41.17L70.61 40.78L69.88 39.65L72.51 36.1L71.22 34.46L71.11 31.19L69.38 30.23L68.2 31.87L67.36 31.64L65.01 29.44L64.5 27.86L62.43 30.06L62.6 30.68L59.86 30.45L58.8 27.46L57.51 26.11L57.79 23.68L55.27 19.79L50.68 20.75L50.62 23.01L49.11 22.84L49.95 25.83L47.43 27.52L44.29 27.35L44.12 26.73L41.38 25.88L43.62 22.83L42.16 18.54L43.9 15.94L47.32 16.17L51.29 14.87L51.4 15.77L50.32 16.17L51 17.24L50.38 20.12L55.08 19.61L54.29 18.2L53.01 17.86L52.17 16.05L53.4 13.28L57.09 12.83L59.83 11.14L60.45 9.39L68.68 6L75.17 4.81L77.8 5.04L78.64 4.53L85.69 6L92.02 6.45L94.2 6L97.34 4.08L98.52 4.7L99.64 3.12L109.49 2.67L114.71 1Z" fill="#CCCCCC" stroke="white" stroke-width="0.5"/>
<path d="M68.4698 108.11L69.6998 110.19L69.8698 112.11L70.5998 112.62L71.0498 111.61L72.5598 112.57L72.6198 114.6L71.3298 115.78L70.5498 113.53L69.3698 112.91L67.1298 113.92L65.7298 112.96L65.5098 110.82L67.0798 110.2L68.4698 108.11ZM86.5498 105.18L88.2798 105.41L89.7398 107.44L87.4398 107.27L86.0998 105.8L86.5498 105.18ZM82.9698 99.9999L83.4198 103.78L82.1298 102.99L82.9698 99.9999ZM74.0698 72.3199L75.0698 72.9999L75.1298 73.9599L74.4598 75.9299L73.7898 76.1599L72.3898 73.0599L72.6698 72.3799L74.0698 72.3199ZM123 45.9799L131.11 30.3999L138.43 38.8299L152.25 46.6599L161.55 53.8999L163.27 57.5199L163.11 61.3699L162.24 60.0699L160.78 62.8899L158.71 62.5499L158.88 63.9599L159.61 63.8499L159.5 65.1999L160.56 65.8799L158.99 65.6499L156.36 63.3399L152.44 61.7599L154.01 64.3499L153.45 64.5199L153.39 66.5499L154.68 67.9599L155.18 67.7299L156.02 68.2399L156.52 67.4499L156.14 66.5099L159.16 68.4299L160.28 68.5999L160.67 69.3299L165.82 68.7699L167.05 69.3899L166.99 70.4099L168.61 70.7999L168.44 71.5299L169.62 70.7399L169.84 71.4699L169.06 72.2599L170.57 72.3699L171.35 73.6099L174.21 73.3299L174.71 73.8399L175.33 72.2599L175.72 73.4999L178.46 72.7699L181.32 74.2899L183.84 74.6899L183.45 76.4899L184.12 76.8299L182.67 78.1299L181.55 78.0199L183.45 79.6599L186.3 79.5999L188.15 80.3899L188.21 78.8099L189.39 78.6999L190.57 77.4599L195.38 78.4799L195.71 79.6099L195.06 80.3499L195.31 80.7399L194.37 84.3399L192.37 86.5699L191.46 85.9999L189.71 87.8599L189.23 90.4199L189.71 94.3599L189.17 95.4499L189.67 97.0999L183.96 93.9399L178.65 88.4999L178.19 94.0099L175.99 97.7299L175.58 100.6L153.71 101.82L153.44 108.21L151.12 109.63L136.27 108.12L127.81 110.29L124.75 109.25L120.01 110.36L118.62 110.84L114.56 114.56L115.9 122.3L115.48 123.22L110.16 122.57L101.54 127.88L95.1098 128.21L95.8398 125.31L95.0598 121.99L95.8398 117.59L93.9398 116.07L93.6598 114.6L94.7798 112.29L96.0098 111.54L96.0698 109.69L89.7998 104.45L88.5098 104L87.7798 104.79L85.7098 104.68L84.1998 103.5L84.3098 101.19L83.4098 99.7199L84.2498 98.1999L82.5098 96.6799L82.3398 91.4899L86.0898 88.7799L93.9298 86.2399L96.9498 83.8699L101.26 81.8999L103 79.3599L103.39 78.7399L106.08 75.8599L108.43 74.5599L109.04 72.0799L105.23 66.1599L101.2 62.0399L92.5198 55.0999L81.9898 49.1199L83.9498 46.6899L84.1798 48.6599L86.0798 48.4899L86.6398 48.7199L86.5298 49.6799L90.1098 50.3399L91.6198 51.8799L92.6798 51.4799L93.2998 53.0599L94.4798 54.0799L96.9398 53.4599L100.41 57.6899L107.3 60.6799L110.88 59.8899L110.49 61.6399L111.61 60.6199L112.17 61.6399L113.68 61.9199L114.3 63.5599L116.15 62.6599L115.31 61.3599L115.98 61.2499L121.8 66.1599L122.81 66.5599L123.37 66.6699L124.43 66.3299L126.84 68.2499L126.34 69.0399L127.91 69.7699L128.02 71.1799L127.4 70.7299L126.9 70.1099L124.32 69.3799L122.81 71.4099L126.73 73.4399L127.46 74.6799L125.72 73.9499L123.87 74.9099L122.3 74.2899L121.97 75.5899L128.18 78.4699L131.31 77.7399L132.43 77.7999L135.01 77.0099L134.17 76.7299L134.62 76.2199L135.57 76.1599L135.8 77.2299L138.15 78.3599L139.27 77.6299L139.44 75.4299L140.62 75.3699L142.52 76.2699L142.74 75.6099L144.36 75.8799L147.44 73.6799L147.66 73.2299L148.84 73.9099L150.69 73.2299L150.41 70.1299L151.47 68.3799L150.58 66.4599L153.27 66.1799L153.33 64.4899L151.71 63.9799L151.09 65.0499L149.89 64.7899L150.53 64.0399L147.84 62.7999L149.47 65.4499L148.62 65.8499L145.93 62.2399L142.51 59.3099L142.17 58.0699L137.19 54.6299L136.69 54.7999L138.09 56.3199L136.52 55.6399L131.48 51.7999L131.84 50.9999L123 45.9799Z" fill="#CCCCCC" stroke="white" stroke-width="0.5"/>
<path d="M55.4795 210.11L55.8695 208.97L54.5295 208.47L55.4795 202.22L56.7695 197.66L57.2695 197.77L57.0995 199.18L58.4395 196.14L57.9895 195.13L57.7095 197.33L57.0395 197.27L57.4895 193.84L56.7595 191.03L51.7695 183.43L53.3495 184.61L54.0695 182.53L52.7895 183.09L51.7795 182.53L52.3395 181.23L51.6095 181.46L49.5895 179.94L50.3695 179.21L50.1495 178.25L48.2495 177.8L43.4395 171.44L34.5395 164.23L29.2795 160.79L20.3795 156.74L10.4695 154.6L10.5295 152.68L9.18945 152.29L11.4795 150.04L18.9295 148.86L27.9395 150.21L43.2795 155.62L48.4895 159.9L51.8495 163.11L53.4695 165.87L56.9395 168.52L54.9295 168.69L51.7395 165.99L45.8595 163.91L46.8095 166.78L49.5495 169.65L52.1795 171.9L56.8795 174.38L56.7095 175.56L51.8395 175.22L51.3895 176.23L52.3395 176.51L50.4895 177.07L50.5995 178.65L53.0095 178.93L52.3395 181.13L55.2495 178.48L56.0895 181.35L59.7895 181.69L64.9395 176.9L68.7495 175.66L69.6995 171.61L72.3295 170.54L74.2294 168.29L77.1395 167.28L79.6595 167.39L79.2695 166.55L81.7294 163.45L83.0195 159.9L85.3195 157.42L86.2095 154.27L85.9295 151.96L87.1595 150.72L86.3795 149.14L87.1595 146.27L86.8195 145.03L88.3295 143.28L88.9995 141.03L91.0095 139.4L91.9595 137.6L92.9095 130.33L93.6395 130.61L95.0894 128.21L101.519 127.88L110.139 122.57L110.889 134.99L115.249 141.66L116.999 147.74L115.049 150.97L115.839 159.57L110.769 161.39L106.999 171.37L109.589 173.73L109.799 174.86L107.189 176.5L107.379 179.8L106.769 180.76L121.779 180.49L140.039 178.98L145.839 181.36L148.299 183.89L149.309 189.52L152.219 195.86L152.609 199.67L150.879 201.26L146.329 203.11L135.489 205L131.439 207.1L117.779 205.55L113.259 213.42L111.399 218.36L107.329 216.36L105.929 221.58L110.629 224.68L112.389 228.01L114.419 229.62L114.969 231L116.049 231.31L116.919 233.42L118.919 235.42L94.4095 241.69L88.9194 240.31L87.6195 240.84L80.4295 236.87L82.6195 244.21L81.6195 267.5L78.4395 267.06L78.0195 266.44L73.8795 265L71.6695 262.67L69.5895 263.13L66.9995 261.04L65.0995 261.57L62.8795 261.14L61.2395 259.65L58.8195 260.33L56.2195 258.69L55.2695 257.69L55.1395 253.94L57.7695 249.61L60.1795 247.36L60.9095 244.77L60.0095 240.83L61.9095 235.82L61.3495 229.63L63.4195 226.14L59.6695 219.39L57.8195 214.04L54.9695 210.94L55.9795 211.33L57.2095 210.49L55.4795 210.11Z" fill="#CCCCCC" stroke="white" stroke-width="0.5"/>
<path d="M140.061 178.97L150.291 172.47L158.941 164.59L157.421 152.25L153.001 152.27L152.931 147.33L170.521 146.83L174.341 151.69L174.891 155.15L178.331 155.25L184.361 148.9L189.401 148.2L188.761 145.13L193.131 145.06L196.961 145.56L199.331 147.17L199.931 146.26L201.811 146.95L202.941 154.82L206.161 155.52L209.021 153.82L210.901 155.58L209.841 160.4L207.921 162.29L208.001 164.25L209.621 164.44L216.151 160.23L230.141 168.62L225.851 183.47L225.121 183.63L223.291 189.9L217.841 191.36L214.991 191.24L211.021 193.11L206.061 196.74L201.721 197.42L191.511 197.09L190.901 201.51L192.361 202.5L197.901 203.7L199.941 208.09L202.781 210.53L202.801 213.15L199.281 215.28L197.231 217.93L196.171 220.81L192.691 222.48L190.291 226.99L187.131 228.08L186.391 231.39L182.501 233.88L181.441 235.57L178.371 236.98L176.261 239.82L173.651 239.89L166.041 234.52L162.481 232.99L157.731 236.91L157.011 236.74L156.551 239.16L154.261 239.67L152.021 244.82L148.311 247.31L147.891 249.44L148.661 251.29L147.831 252.21L148.101 255.01L146.011 256.78L142.421 257.23L139.561 262.65L134.701 261.71L129.661 259.71L128.901 255.53L127.891 254.84L128.311 253.68H127.611L126.721 251.59L126.831 249.5L123.851 248.07L121.891 248.45L120.021 245.87L119.321 245.85L119.691 244.16L118.571 241.17L119.481 238.89L118.961 235.44L116.961 233.43L116.091 231.33L115.011 231.01L114.461 229.63L112.431 228.02L110.661 224.69L105.961 221.58L107.361 216.36L111.431 218.36L113.291 213.43L117.811 205.56L131.461 207.1L135.511 205.01L146.351 203.11L150.901 201.26L152.631 199.67L152.241 195.86L149.331 189.52L148.321 183.89L145.861 181.36L140.061 178.97Z" fill="#CCCCCC" stroke="white" stroke-width="0.5"/>
<path d="M197.23 77.79L206.19 85.23L206.08 86.3H205.3L205.13 88.1L208.66 90.86L209.27 92.5L214.2 94.3L207.54 88.21L206.87 86.12L221.14 99.83L231.11 107.16L234.8 111.16L234.46 111.72L235.69 112.06L236.92 116.01L241.45 123.34L245.76 137.31L249.45 144.46L248.11 144.91L247.21 144.23L246.99 141.92L244.36 141.53L245.76 142.15L245.48 144.29L247.27 146.6L247.16 147.16L245.82 146.71L245.37 148.74L246.88 148.63L248.28 150.04L247.55 148.41L249.79 145.2L259.48 162.72L265.81 172.63L263.12 173.14L258.19 166.1L253.26 161.03L251.41 160.58L250.63 161.76L251.08 162.89L249.06 164.19L248.33 163.96L248.11 165.71L250.35 168.24L253.71 169.76L254.1 170.72L254.72 170.78L255 169.48L255.45 169.92L256.18 169.31L256.24 168.07L256.91 168.35L257.69 170.1L255.9 172.69L257.91 172.07H258.58L258.41 172.54L256.72 173.89L254.89 173.57L252.57 174.97L250.55 174.71L250.33 176.14L247.66 177.09L246.41 178.84L239.37 178.49L238.17 179.67L227.63 181.42L225.83 183.48L230.11 168.63L216.13 160.24L209.59 164.45L207.97 164.26L207.89 162.3L209.81 160.41L210.87 155.59L208.99 153.83L206.13 155.53L202.91 154.83L201.78 146.96L199.89 146.27L199.29 147.18L196.92 145.57L193.09 145.08L188.72 145.14L189.35 148.22L184.31 148.92L178.28 155.27L174.84 155.17L174.29 151.71L170.47 146.85L152.89 147.35L152.95 152.3L157.37 152.27L158.9 164.61L150.25 172.5L140.02 179L121.76 180.51L106.75 180.78L107.36 179.82L107.17 176.52L109.78 174.88L109.57 173.75L106.98 171.39L110.75 161.41L115.82 159.59L115.03 150.99L116.98 147.76L115.23 141.68L110.87 135.01L110.12 122.59L115.44 123.24L115.86 122.32L114.52 114.58L118.58 110.86L119.97 110.38L124.71 109.27L127.77 110.31L136.23 108.14L151.08 109.65L153.4 108.23L153.67 101.84L175.54 100.62L175.95 97.75L178.15 94.03L178.61 88.52L183.92 93.96L189.63 97.12L189.13 95.47L189.67 94.38L189.19 90.44L189.67 87.88L191.42 86.02L192.34 86.58L194.34 84.35L195.28 80.75L193.9 79.66L195.03 80.36L195.68 79.62L195.35 78.49L197.23 77.79Z" fill="#CCCCCC" stroke="white" stroke-width="0.5"/>
<path d="M413.95 433L414.4 433.79H415.52L416.02 436.32L414.17 439.13L413.05 439.58L412.04 435.88L412.49 433.8L413.95 433ZM413.33 430.79L414.68 431.49L413.78 432.67L412.1 433.12L411.15 431.55L411.82 431.94L413.33 430.79ZM412.72 422.4L415.46 425.15L415.63 426.44L425.54 441.26L430.97 452.2L435.9 471.16L435.62 473.24L436.18 474.36L434.17 475.26L433.83 479.19L431.37 478.57L428.91 476.1L429.92 474.36L430.82 476.32L431.72 476.49L431.89 473.85L430.77 473.63L430.6 474.58L429.7 473.51L428.34 474.18L428.19 473.46L428.58 471.94L430.87 470.37L430.59 468.13L429.42 466.45L429.59 464.29L428.64 462.86L429.65 460.11L429.2 458.32L430.32 457.25L428.7 456.91L427.36 455.4L423.72 445.69L420.98 446.25L418.4 442.55L419.58 440.31L415.77 431.49L416.39 427.67L415.72 427.56L412.72 422.4ZM335.54 322.03L339.19 319.65L342.27 319.92L344.14 318.9L344.95 319.52L344.49 321.14L345.49 321.64L346.44 321.18L348.44 321.96L349.18 321.15L350.72 321.74L350.73 320.79L351.95 320.16L352.7 321.56L352.29 322.41L353.69 322.74L354.49 319.91L355.94 326.92L358.24 331.3L358.35 334L360.48 337.15L360.09 340.02L361.6 344.51L361.04 345.86L362.21 348.44L361.6 349.56L361.77 352.71L360.54 353.55L359.2 352.93L355.73 346.02L354.22 341.75L353.83 334.95L353.04 333.77L352.09 334.78L350.8 333.88L349.85 336.3L350.41 336.52L350.63 335.68L351.08 336.75L349.68 339.17L350.24 339.56L350.02 342.2L350.97 343.21L350.86 344.33L352.43 345L353.04 346.29L354.66 346.18L355.39 351.52L356.4 351.74L357.69 353.71L360.55 354.1L361.17 355.39L362.51 351.23L361.84 349.99L362.57 349.26L362.51 350.83L363.13 350.32L361.67 345.43L363.41 348.97L365.76 350.82L365.14 354.13L367.21 361.6L371.58 370.03L375.55 373.68L377.34 373.85L379.47 376.27L382.32 375.71L382.77 374.59L382.83 375.83H383.67L384 374.82L383.05 374.03L384.62 375.21L384.56 376.11L382.49 377.45L381.71 380.27L383.89 384.93L381.26 386.84L378.01 386.78L376.5 389.2L377.51 391.45L376 393.02L376.61 394.25H377.45L377.39 397.68L378.79 400.04L377.39 400.15L378.06 401.33L377.33 401.72L378.5 402.28L379.9 401.83L381.86 406.55L383.37 407.9L381.91 408.29L381.07 406.83L380.17 407.11L380.34 408.23L376.37 407.28L376.54 409.69L375.42 411.09L375.31 412.49L376.88 412.43L378.5 410.75L380.07 410.58L379.68 409.51L383.32 411.59L384.1 407.1L382.14 405.02L382.76 403.78L381.64 403.89L380.8 401.93L378.9 400.47L378.62 398.39L377.67 397.38L377.56 394.01L376.44 392.77L377.34 392.83L377.79 391.93L377.12 388.73L379.02 387.89L378.07 389.35L379.92 387.67L382.1 387.78L384.17 386.66L384.62 384.81L385.4 384.64L386.3 385.43L386.41 387.73L388.76 387.79L390.61 389.14L387.81 389.59L386.63 393.07L387.64 399.47L390.38 404.97L394.13 408.68L396.59 409.18L398.1 407.83L402.19 416.14L407.4 420.57L410.93 422.03L411.43 423.71L412.55 424.33L415.46 428.48L414.9 430.5L414.12 430.95L411.99 429.72L411.15 428.09L409.58 427.87L409.64 429.05L410.7 429.84L409.97 431.75L411.71 433.38L410.98 435.34L408.74 435.4L406.95 429.23L407.57 427.04L406.05 426.25L404.55 424.12L402.54 423.67L401.98 424.29L397.39 420.36L394.42 419.29L394.03 420.02L393.08 419.91V421.93L391.74 421.82L392.07 422.61L390.95 422.67L391.62 423.72L389.94 425.14L389.72 428.73L391.85 429.01L392.3 429.85L395.88 431.31L395.94 430.52L397.07 429.9L397.23 426.93L398.07 426.82L400.98 429.23L404.45 429.96L405.68 429.51L405.29 430.74L404.56 430.68L403.33 432.08L404.39 432.36L404.5 433.93L407.41 435.67L407.52 438.14L408.81 437.52L411.27 437.97L413.57 442.57L412.51 443.75L411.84 443.41L411.45 445.94L412.79 446.11L412.12 448.19L414.3 451.84L415.2 451.9L413.97 449.54L413.86 447.63L415.04 445.61L416.44 446.96L417.45 444.83L418.57 444.21L420.19 448.81L422.21 449.03L425.29 454.3L424.06 455.87L425.4 455.93L428.42 458.01L426.35 460.87L424.62 461.66L423.72 460.93L423.16 461.32L425.4 463.56L425.96 462.27L427.36 461.93V462.88L428.42 463.78L428.2 466.7L427.19 467.2L425.4 466.7L423.33 464.51L422.1 465.3L423.11 468.33L423.78 468.44L425.24 466.98L426.25 467.6L427.54 467.26L428.72 469.62L430.68 470.01L428.1 471.75L427.71 473.83L423.74 472.48L424.86 473.6L425.2 475.45L428.17 477.47L427.89 478.59L426.27 478.37V480.16L424.48 482.63L424.09 483.17L419.16 483.2L412.28 490.11L408.98 491.52L408.22 494.09L406.87 494.58L405.6 481.96L406.26 479.69L404.96 478.18L405.03 475.86L403.74 473.63L403.32 470.85L404.06 469.06L397.92 472.49L377.29 472.29L372.75 471.06L373.73 469.77L364.23 465.5L360.49 460.01L360.51 457.81L362.34 454.19L361.97 452.64L363.32 449.96L362.38 447.1L362.93 445.45L350.39 442.48L347.25 440.35L342.79 433.26L339.36 429.8L339.33 427.69L338.48 426.75L326.16 426.5L324.39 427.5L323.77 426.45L321.73 425.83L320.89 423.96L320.96 421.52L318.85 417.38L319.44 414.52L318.43 408.78L320 404.73L319.75 401.14L319.01 399.97L319.23 398.15L320.86 395.61L320.83 389.32L324.09 385.97L326.06 385.23L328.46 385.88L331.39 383.9L333.17 384.01L335.15 385.75L336.88 385.16L339.22 386.22L341.61 385.75L341.62 381.79L334.83 367.15L336.4 324.62L335.54 322.03Z" fill="#CCCCCC" stroke="white" stroke-width="0.5"/>
<path d="M321.679 425.85L323.719 426.47L324.339 427.52L326.109 426.52L338.429 426.77L339.279 427.71L339.309 429.82L342.739 433.28L347.199 440.37L350.339 442.5L362.879 445.47L362.329 447.12L363.269 449.98L361.919 452.66L362.289 454.21L360.459 457.83L360.439 460.03L364.179 465.52L373.679 469.79L372.699 471.08L377.239 472.31L397.869 472.51L404.009 469.08L403.269 470.87L403.689 473.65L404.979 475.88L404.909 478.2L406.209 479.71L405.549 481.98L406.819 494.6L408.169 494.11L408.929 491.54L412.229 490.13L419.109 483.22L424.039 483.19L424.429 482.65L426.219 483.77L427.059 482.26L428.849 483.33L429.799 482.43L429.909 481.25L428.789 480.58L429.799 478.62L430.969 480.75L431.189 483.27L430.289 485.01L430.849 487.42L432.359 487.76L432.579 490L433.919 490.11L434.309 488.88L433.019 488.6L432.459 486.86L433.749 487.53L433.529 486.3H432.799L433.919 483.55L433.639 482.6L434.589 482.66L435.319 484.17L435.819 483.05L436.549 483.67L435.539 479.91L435.929 478.84L436.599 478.9L437.049 480.69L437.719 480.97L439.289 487.81L442.479 492.07L444.549 500.54L446.789 505.98L447.979 517.03L447.179 525.95L447.009 527.3L446.339 531.5L447.009 534.64L446.729 537.44L445.719 538L445.669 537.27H444.489L444.149 539.06L442.189 539.56L440.399 541.35L439.509 539.78V542.41L439.849 544.37L441.869 547.51L440.249 548.86L442.939 550.99L443.609 548.8L442.039 547.17L443.549 546.61L444.279 545.27L444.779 546.73L445.679 546.45L446.179 544.1H445.619L445.229 541.35L446.009 540.34L446.069 538.27L446.799 537.88L445.899 554.53L448.419 566.47L450.159 570.51L447.859 576.28L447.299 578.8L447.859 580.2L442.989 594.15L443.159 595.38L444.059 595.72L442.999 597.9L443.559 600.98L442.439 601.37L440.479 604.45L440.759 606.69L442.159 607.36L442.329 608.37L440.819 608.43L439.979 609.33L438.859 612.35L439.139 615.21L437.959 618.12L439.139 619.52L438.749 620.75L439.419 622.77L437.069 624.73L434.549 629.15L434.939 630.89L434.159 634.36L433.489 634.3L431.529 636.48L428.679 641.52L428.399 643.82L429.519 645.39L429.409 647.29L426.219 653.5L426.829 655.74L425.709 657.36L423.299 658.59L422.129 661.89L419.779 665.14L420.059 665.81L418.719 668.66L415.809 673.31L414.799 673.18L411.219 673.07L408.729 671.36L406.819 667.98L404.279 666.79L401.669 667.34L400.149 664.61L398.209 662.98L397.819 661.48L396.659 661.23L395.639 659.96L399.799 592.59L401.489 583.1L397.579 579.26L398.219 575.36L396.799 574.28L396.539 571.73L395.449 569.81L396.319 566.63L397.879 565.11L396.859 561.22L393.229 560.98L388.639 558.62L385.919 558.48L381.799 556.85L381.209 555.91L380.539 556.8L378.109 555.37L376.959 554.25L376.139 551.25L376.559 547.53L373.929 544.98L376.169 538.29L378.379 535.15L382.319 531.92L384.559 531.12L380.709 526.59L378.509 526.01L379.419 523.86L378.739 520.44L377.419 518.44L378.029 517.58L377.659 516.46L376.389 514.84L373.409 513.63L369.639 509.52L372.019 506.87L369.809 498.56L368.309 495.73L369.259 489.94L366.819 489.16L366.219 488.18L369.609 483.27L365.079 482.52L361.029 485.52L358.719 485.93L358.129 487.09L355.229 487.62L355.509 489.78L354.859 490.95L351.459 492.72L348.669 492.21L348.409 494.79L350.969 500.19L348.569 502.68L346.689 502.89L346.279 503.94L347.069 505.72L342.529 507.31L338.449 507.6L337.729 506.91L337.199 511.88L338.609 514.66L337.389 518.94L338.189 521.94L334.589 523.08L330.629 526.48L330.849 524.87L328.999 523.48L329.349 522.25L327.609 519.15L326.949 518.06L327.819 516.24L326.279 512.93L322.569 509.23L322.679 507.35L320.889 506.03L319.509 507.48L317.429 507.83L316.339 504.81L315.339 504.51L314.139 500.75L312.119 498.8L312.259 497.26L313.649 496.77L313.579 495.04L311.099 486.56L309.879 485.37L312.329 482.22L311.869 480.95L313.219 479.85L313.159 473.91L314.739 470.8L314.459 462.91L313.119 461.1L310.939 459.13L306.039 459.99L295.879 465.04L288.449 471.66L286.139 471.04L284.509 472L284.849 472.55L284.289 472.88L281.499 473.03L279.029 466.45L277.499 465.63L276.209 463.41L275.759 454.74L274.569 453.42L270.169 451.65L268.629 448.87L269.389 445.18L272.009 441.5L271.629 438.22L270.569 435.97L271.599 433.97L270.889 429.33L275.249 430.02L277.919 429.05L283.009 429.9L286.929 427.49L292.089 428.62L296.779 435.74L302.319 438.5L303.689 437.82L312.959 441.56L316.199 444.43L317.589 443.08L317.949 439.36L321.319 437.81L320.749 436.18L321.519 434.72L321.329 431.01L320.179 429.29L321.679 425.85Z" fill="#CCCCCC" stroke="white" stroke-width="0.5"/>
<path d="M258.419 172.52L256.009 174.87L257.799 176.62L259.029 176.45L258.249 178.03L255.119 176.68L253.999 177.19L254.729 179.27L254.169 181.02L255.349 180.4L255.909 183.67L257.479 183.22L257.649 184.35L258.769 183.05L260.339 185.19H261.799L262.579 183.16L261.969 182.54L260.849 183.05L261.009 182.31L263.599 180.58L264.159 181.26L265.909 180.75L265.559 178.39L264.049 176.98L266.459 173.71L272.509 182.66L273.739 183.79L274.639 183.17L275.369 184.41L275.879 188.37L274.019 190.04L275.809 189.48L276.589 190.1V187.23L279.779 193.54L285.039 198.78L286.899 199.63L287.449 201.03L288.339 199.74L287.049 199.06L289.289 197.37L288.789 198.72L289.849 199.28L290.469 198.83L290.139 200.07L291.429 201.42L291.599 204.18L297.029 212.51L296.409 213.07L297.079 213.52L297.699 212.84L300.889 217.12L302.179 217.96L302.849 217.57L305.149 222.02L308.289 224.66L307.899 225.56L306.669 225.95L305.719 228.54L308.459 225.28L314.279 236.25L318.529 240.92L317.909 243.9L318.809 245.98L317.299 247.61L317.359 250.03L319.209 254.76L320.499 256.22L321.509 256.56L322.629 255.21L322.409 256.73L321.399 256.95L321.009 257.85L322.859 259.82L322.969 262.69L321.349 263.25L319.949 264.77L318.829 264.83L318.769 263.82L319.889 262.4L318.379 263.26L317.819 262.75L320.339 259.54L319.109 257.23L318.269 256.61L315.019 258.8L315.519 257.34L317.759 255.32L317.199 254.98L314.059 258.19L314.169 256.62L313.209 256.22L313.549 257.46L311.929 257.4L313.099 258.13L311.809 259.54V261L314.499 260.61L314.439 261.45L312.259 262.07L312.369 262.8L313.429 262.63L313.989 263.3L313.209 263.86L314.499 264.7L313.599 265.04L313.709 266L314.489 266.34L315.329 266.62L314.939 268.14L315.609 268.36L315.999 270.1L314.549 269.93L313.149 270.83L311.919 270.44L311.529 269.43L310.409 269.26L311.079 265.72L310.239 264.65L309.459 264.59L309.679 265.55L308.889 266.73L306.709 264.03L304.019 262.85L302.899 264.93L303.179 265.66L300.049 269.48L297.639 270.15L298.139 272.4L300.829 274.26L302.169 273.3L303.289 270.6L307.319 269.14L311.519 270.77L312.079 274.65L313.649 277.35L312.869 278.7L313.039 279.15L313.819 279.88L314.159 279.99V278.25L317.849 279.94L319.359 279.95L319.529 279.49L324.179 279.6L324.679 279.54L329.159 279.09L331.119 275.15L329.659 270.48L333.859 270.14L335.989 269.02L336.889 266.94H338.009L339.579 269.13L344.449 272.95L344.339 275.37L345.849 279.36L349.549 295.78L350.779 298.98L352.349 300.55L351.679 301.11L350.669 299.87L349.439 300.21L347.589 296.33L348.489 298.52L348.039 299.42L349.159 300.94L348.829 302.06L349.729 300.99L351.299 300.76L351.249 306.38L354.549 319.89L353.749 322.72L352.349 322.39L352.759 321.54L352.009 320.14L350.789 320.77L350.779 321.72L349.239 321.13L348.499 321.94L346.499 321.16L345.549 321.62L344.549 321.12L345.009 319.5L344.199 318.88L342.329 319.9L339.249 319.63L335.599 322.01L331.189 320.31L329.799 321.27L329.559 322.6L328.229 323.08L328.059 324.33L326.689 324.37L327.569 325.01L327.349 325.63L325.269 326.17L324.809 327.6L323.589 327.38L323.809 330.65L322.129 333.39L321.019 333.83L322.079 336.91L320.869 337.02L320.399 337.92L319.789 341.73L319.309 341.25L317.259 341.74L315.049 343.03L312.029 342.55L312.899 340.74L315.029 339.89L316.139 336.83L314.339 335.93L313.739 333.26L314.679 329.53L314.329 327.24L313.319 326.34L310.799 327.15L307.939 325.53L306.619 325.67L301.209 320.37L298.139 319.93L294.419 321.35L288.779 318.2L283.219 318.06L280.439 316.71L276.629 316.69L272.929 317.97L270.879 317.89L269.129 309.92L265.539 307.65L263.469 307.81L261.209 303.83L259.249 303.29L257.869 304.97L258.869 300.77L258.499 297.57L259.679 294.31L261.309 292.72L263.839 284.27L265.679 281.31L267.639 280.04L267.449 278.32L269.719 278.42L271.329 277.06L270.389 275.06L268.509 274.96L265.759 274.86L265.769 272.23L262.529 270.44L261.869 261.46L256.449 254.78L256.199 250.67L251.779 247.27L252.419 245.53L251.279 244.09L251.669 242.38L252.989 239.04L255.759 236.84L255.699 235.31L255.339 233.64L251.269 226.89L251.089 222.66L249.399 221.95L248.719 220.78L248.869 217.58L249.589 213.52L253.189 207.89L255.189 206.43L255.529 203.74L254.779 203.82L251.189 199.56L250.429 197.14L247.239 194.57L243.619 193.58L235.319 187.86L229.779 186.78L223.379 189.91L225.209 183.63L225.949 183.48L227.749 181.42L238.289 179.67L239.489 178.49L246.529 178.84L247.779 177.09L250.449 176.14L250.669 174.71L252.689 174.97L255.009 173.57L256.839 173.89L258.419 172.52Z" fill="#CCCCCC" stroke="white" stroke-width="0.5"/>
<path d="M92.1795 333.44L96.7495 336.91L102.149 338L105.129 340.25L108.299 340.39L109.509 342.71L112.869 342.26L114.199 344.21L118.189 344.56L119.539 345.56L121.639 345.76L124.019 347.75L125.079 349.81L130.439 349.04L132.549 349.76L133.789 349.38L135.669 350.43L138.589 354.96L142.449 357.06L146.309 361.5L148.119 361.45L150.789 363.26L151.219 362.41L153.249 361.76L155.999 364L156.119 369.16L155.239 371.69L156.959 375.06L156.709 376.97L157.629 380.6L155.759 382.92L158.219 383.46L161.899 381.97L164.299 383.79L164.819 389.96L168.139 397.34L167.119 401.79L165.859 403.42L167.779 404.83L167.749 407.27L168.769 409L172.099 410.51L171.159 411.88L171.479 416.98L172.909 418.86L175.769 419.08L176.179 421.57L179.619 426.25L179.509 432L181.839 432.52L181.979 437.46L182.869 439.81L182.709 441.05L181.369 441.66L182.139 445.51L183.339 447.17L185.299 447.83L185.629 450.28L187.559 452.47L186.089 454.93L187.149 458.89L184.929 459.51L182.689 463.97L183.179 465.33L182.699 466.44L183.779 466.81L185.349 469.58L184.889 471.27L186.189 471.08L186.089 471.89L186.989 472.62L186.559 477.09L187.419 478.84L186.319 478.77L185.199 480.39L185.509 482.72L183.779 483.11L183.359 484.12L180.999 483.7L180.709 484.44L182.199 485.66L181.909 487.72L183.389 488.96L183.689 490.5L182.679 491.16L180.649 490.04L179.929 490.81L178.479 490.28L178.199 491.6L175.649 491.55L175.949 496.17L173.719 496.85L168.589 492.61L167.009 492.71L166.229 491.46L164.729 491.89L164.689 493.17L166.209 493.95L166.739 495.37L165.459 498.6L163.939 499.14L162.539 501.9L164.179 503.96L163.049 503.98L161.579 502.69L159.849 503.58L158.299 502.44L156.589 502.98L155.529 502.63L155.829 500.68L154.369 498.93L154.449 497.82L153.539 496.95L152.019 496.84L150.549 495.08L142.909 497.42L141.409 497.04L140.979 497.69L142.369 499.6L143.099 502.32L140.939 504.54L141.869 506.53L140.119 510.3L137.119 509.06L135.859 509.42L135.089 510.76L129.209 511.99L127.119 511.59L125.139 512.43L114.569 519.88L112.319 523.21L110.539 523.18L109.509 522.21L108.449 522.66L105.419 517.98L100.879 514.68L100.399 513.71L101.389 512.22L96.5695 508.36L91.7995 512.3L88.1095 513.74L87.5495 515.28L83.3794 517.77L82.0994 517.65L80.5194 514.59L78.7595 513.87L77.3295 514.2L77.0395 512.96L75.9894 512.32L76.6495 511.26L74.1994 511.84L72.5594 510.66L71.9295 511.89L68.8295 513.46L70.0294 514.04L67.3595 514.69L66.6195 516.26L64.5695 516.96L62.6694 515.98L62.5795 516.73H61.5594L61.3895 517.52L62.2995 518.55L60.7195 518.79L60.4494 520.05L59.6895 519.69L58.9695 505.09L52.9695 478.21L52.1294 471.8L51.4395 457.49L52.6994 455.03L52.4395 449.91L53.2495 448.42L55.3794 447.03L55.8794 444.57L58.0795 444.15L57.6495 443.11L56.2895 442.99L55.8794 442.27L57.4794 440.96L57.5395 438.57L58.5695 437.79L60.0795 438.27L60.9194 437.44L61.2995 438.63L63.5095 438.88L64.3295 436.55L62.3595 434.92L59.5194 434.88L62.4395 433.38L61.9894 431.35L62.6694 429.83L63.6795 430.32L66.4295 429.31L67.6095 427.15L71.6195 424.82L71.8595 423.59L70.7195 423.12L70.1795 421.55L71.8394 418.21L70.5395 414.37L71.0695 411.43L74.1994 410.42L72.7094 407.6L74.9194 406.53L75.4695 405.5L79.1395 404.38L79.7294 401.66L79.0994 401.52L79.9094 399.92L81.5994 399.95L82.3295 398.56L84.6594 398.75L84.6495 396.03L86.2794 395.06L85.9094 390.42L90.4094 388.96L90.0695 389.87L91.3695 390.35L91.6694 388.18L93.1594 387.46L93.1795 383.71L94.2995 383.25L95.7495 383.92L97.9594 386.43L100.549 385.65L101.439 384.68L98.2995 379.73L101.729 373.42L100.429 371.85L101.599 369.15L101.129 364.05L102.419 359.5L101.089 358.23L97.2995 357.01L94.6895 353.15V349.68L93.2595 342.8L91.5894 339.22L92.6795 336.29L92.1795 333.44Z" fill="#CCCCCC" stroke="white" stroke-width="0.5"/>
<path d="M26.7004 317.48L28.0404 319.11L27.4804 320.01L26.2504 319.11L26.7004 317.48ZM24.4104 311.89L21.9304 314.4L22.2804 315.74L21.7804 316.19L22.8404 317.26L21.3304 319.79L22.9004 319L22.5104 318.1L23.5704 317.99L23.9004 318.78L22.8404 321.08L21.9404 321.53L21.7204 322.99L20.0404 322.26L18.3604 323.33L20.8204 314.79L22.5504 311.92L24.4104 311.89ZM26.8704 296.79L28.6604 298.7L27.0404 301.06L25.5304 306.57L24.4104 307.3L24.3004 309.15L23.1804 310.11L23.6804 307.52L25.6404 303.7L25.7504 299.82L26.8704 296.79ZM28.4404 269.97L27.2104 273.51L27.8804 277.33L29.5604 278.06L28.8904 280.2L26.7104 273.23L27.4904 270.19L28.1104 269.52L28.4404 269.97ZM56.2604 258.71L58.8604 260.35L61.2804 259.67L62.9204 261.16L65.1404 261.59L67.0404 261.06L69.6304 263.15L71.7104 262.69L73.9204 265.02L78.0604 266.46L80.2104 272.42L77.7504 279.32L74.7304 283.94L71.7304 285.28L69.2404 287.7L69.7204 289.11L68.4504 289.75L67.1104 292.33L63.9004 292.43L62.5704 293.26L61.8304 298.54L66.1904 304.34L68.2004 314.83L67.7404 316.47L70.6304 321.66L71.3704 327.09L76.7704 327.5L78.9504 325.48L83.8404 328.75L87.2904 328.21L88.8704 330.51L90.8104 331.13L91.4304 333.09L92.1704 333.43L92.6704 336.28L91.5804 339.21L93.2504 342.79L94.6804 349.66V353.14L97.2904 357L101.08 358.22L102.41 359.49L101.12 364.03L101.59 369.13L100.42 371.83L101.72 373.4L98.3004 379.71L101.43 384.66L100.54 385.63L97.9504 386.41L95.7404 383.9L94.2904 383.24L93.1704 383.7L93.1504 387.45L91.6704 388.17L91.3704 390.34L90.0704 389.85L90.4004 388.94L85.9004 390.41L86.2704 395.05L84.6404 396.01L84.6504 398.73L82.3204 398.53L81.5904 399.92L79.9004 399.89L79.0904 401.5L79.7204 401.63L79.1304 404.36L75.4604 405.48L74.9104 406.5L72.7004 407.57L74.1904 410.39L71.0604 411.4L70.5204 414.33L71.8204 418.18L70.1604 421.51L70.7004 423.08L71.8404 423.56L71.6104 424.79L67.6004 427.11L66.4204 429.27L63.6704 430.28L62.6604 429.78L61.9804 431.3L62.4304 433.33L59.5104 434.83L62.3404 434.87L64.3104 436.5L63.5004 438.82L61.2804 438.58L60.9004 437.38L60.0604 438.21L58.5504 437.74L57.5204 438.52L57.4604 440.91L55.8604 442.22L56.2804 442.94L57.6304 443.06L58.0704 444.1L55.8604 444.51L55.3604 446.98L53.2304 448.37L52.4204 449.86L52.6804 454.98L51.4204 457.43L52.1104 471.74L52.9604 478.15L58.9504 505.04L59.6704 519.64L56.5504 517.96L56.2404 518.91L54.2504 519.21L54.3004 520.67L52.7404 521.13L53.2504 518.46L52.3004 519.41L51.2104 518.36L50.8104 519.5L49.1404 519.76L46.5904 517.9L43.7104 520.56L42.2504 519.16L41.4104 519.95L40.0804 519.85L39.3604 518.78L35.2704 495.23L31.6904 481.15L28.9504 465.67L28.3904 452.82L31.8104 451.25L30.9104 451.03L30.8004 433.69L27.5004 415.84L19.7204 384.79L12.3304 361.65L12.5004 353.79L11.4904 350.42L11.9904 339.3L10.3104 335.03L9.65039 330.64L10.8704 330.76L14.7304 328.79L16.0904 327.04L18.8804 326.66L24.7604 320.14L26.6704 320.47L24.2004 324.36L25.3204 327.34L25.0404 329.2L23.6404 329.37L23.5804 328.41L22.4604 327.74L18.7104 332.35L19.0504 333.81L21.0104 336L19.8304 337.46L20.4504 339.71L19.1104 341.17L18.7504 344H17.6304L16.6804 345.46L16.4604 348.21L18.4304 351.24L17.4104 356.02L18.9804 358.83L22.2304 360.35L19.4904 362.26L20.1604 366.19L18.3704 369.95L20.3304 374.27L25.0904 376.46L34.1604 377.75L36.0604 377.13L36.0004 376.4L37.5704 376.57L38.4704 373.87L38.4104 372.86L37.6304 372.97L38.3604 370.22L37.9704 368.93L35.3904 365L29.9604 359.94L29.0604 357.72L29.9004 358.65L31.1904 358.26L31.0804 357.14L29.4004 356.63L29.1804 355.51L31.7504 355.9L34.2104 353.15L35.3304 350.23L35.2704 348.26L38.1804 346.86L38.2904 344.95L37.3404 343.6L38.0104 342.59L36.7204 340.9L35.0404 340.23L34.9304 338.04L35.4304 337.82L34.4204 336.3L36.1004 336.41L35.2604 331.86L33.3604 329.61L31.0704 328.21L33.2504 327.65L31.5104 326.08L29.3804 326.64L29.0404 325.91L33.3504 325.01L35.0304 317.99L36.7004 315L37.8904 314.51L38.0004 313.27L39.3404 313.78L38.2204 311.31L38.7804 309.68L38.1104 308.5L38.7304 308.22L37.6704 307.66L39.2404 305.75L39.0704 303.28L40.5804 302.1L39.9104 287.43L40.7504 284.23L44.2804 281.53L43.6604 278.16L44.3904 276.47L44.2804 272.53L45.5504 264.54L46.2904 263.93L46.7404 264.6L48.5304 264.54L52.7304 262.23L54.5804 262.12L55.3604 259.14L56.2604 258.71Z" fill="#CCCCCC" stroke="white" stroke-width="0.5"/>
<path d="M223.29 189.9L229.69 186.77L235.23 187.85L243.54 193.58L247.16 194.57L250.35 197.14L251.1 199.56L254.7 203.82L255.45 203.74L255.11 206.44L253.11 207.89L249.51 213.52L248.79 217.58L248.64 220.79L249.32 221.96L251.01 222.67L251.18 226.9L255.25 233.65L255.62 235.32L255.67 236.85L252.91 239.06L251.58 242.39L251.19 244.1L252.33 245.54L251.69 247.29L256.1 250.68L256.36 254.8L261.77 261.48L262.43 270.46L265.68 272.24L265.66 274.87L268.42 274.97L270.21 275.04L271.23 277.07L269.62 278.43L267.35 278.33L267.55 280.05L265.59 281.32L263.75 284.28L261.22 292.73L259.59 294.32L258.41 297.58L258.79 300.78L257.79 304.98L255.21 307.1L252.74 316.31L233.64 316.81L230.3 326.36L229.82 331.85L224.57 342.68L224 352.25L224.44 359.26L225.13 359.94L228.12 359.81L224.59 364.11L224.78 365.38L222.62 368.66L223.91 370.63L216.44 373.33L215.22 374.84L213.78 374.78L209.03 381.88L206.26 380.52L204.28 381.2L203.83 383.57L203.11 383.91L203.35 390.26L198.98 393.31L200.3 395.67L197.06 396.86L197.03 399.7H195.65L192.41 402.29L191.05 401.81L190.47 399.98L187.6 399.74L185.43 403.67L177.21 408.04L172.28 408.29L172.1 410.51L168.77 409L167.75 407.27L167.78 404.83L165.86 403.42L167.12 401.79L168.14 397.34L164.82 389.96L164.3 383.79L161.9 381.97L158.22 383.46L155.76 382.92L157.63 380.6L156.71 376.97L156.96 375.06L155.24 371.69L156.12 369.16L156 364L153.25 361.76L151.22 362.41L150.79 363.26L148.12 361.45L146.31 361.5L142.45 357.06L138.59 354.96L135.67 350.43L133.79 349.38L132.55 349.76L130.44 349.04L125.08 349.81L124.02 347.75L121.64 345.76L119.54 345.56L118.19 344.56L114.2 344.21L112.87 342.26L109.51 342.71L108.3 340.39L105.13 340.25L102.15 338L96.7501 336.91L92.1801 333.44L91.4401 333.09L90.8201 331.13L88.8801 330.51L87.3001 328.21L83.8401 328.76L78.9501 325.48L76.7701 327.51L71.3701 327.1L70.6301 321.67L67.7401 316.48L68.2001 314.84L66.1901 304.35L61.8301 298.55L62.5701 293.27L63.9001 292.44L67.1201 292.34L68.4501 289.75L69.7201 289.11L69.2401 287.71L71.7401 285.29L74.7301 283.95L77.7501 279.33L80.2101 272.44L78.0601 266.48L78.4901 267.09L81.6701 267.53L82.6601 244.23L80.4701 236.89L87.6601 240.86L88.9701 240.33L94.4601 241.71L118.96 235.44L119.48 238.89L118.57 241.17L119.69 244.16L119.32 245.85L120.02 245.87L121.89 248.45L123.85 248.07L126.83 249.5L126.72 251.59L127.61 253.68H128.31L127.89 254.84L128.9 255.53L129.66 259.71L134.7 261.71L139.56 262.65L142.42 257.23L146.01 256.78L148.1 255.01L147.83 252.21L148.66 251.29L147.89 249.44L148.31 247.31L152.02 244.82L154.26 239.67L156.55 239.16L157.01 236.74L157.73 236.91L162.48 232.99L166.04 234.52L173.65 239.89L176.26 239.82L178.37 236.98L181.44 235.57L182.5 233.88L186.39 231.39L187.13 228.08L190.29 226.99L192.69 222.48L196.17 220.81L197.23 217.93L199.28 215.28L202.8 213.15L202.78 210.53L199.94 208.09L197.9 203.7L192.36 202.5L190.9 201.51L191.51 197.09L201.72 197.42L206.06 196.74L211.02 193.11L214.99 191.24L217.84 191.36L223.29 189.9Z" fill="#CCCCCC" stroke="white" stroke-width="0.5"/>
<path d="M257.791 304.98L259.171 303.3L261.141 303.84L263.401 307.82L265.471 307.65L269.061 309.92L270.811 317.89L272.861 317.98L276.561 316.69L280.371 316.72L283.151 318.06L288.711 318.2L294.351 321.35L298.081 319.93L301.151 320.37L306.561 325.67L307.871 325.53L310.731 327.15L313.261 326.34L314.271 327.24L314.621 329.53L313.671 333.26L314.281 335.93L316.081 336.83L314.971 339.89L312.831 340.74L311.961 342.55L314.981 343.03L317.191 341.74L319.241 341.26L319.721 341.73L320.331 337.92L320.801 337.02L322.011 336.92L320.951 333.84L322.061 333.4L323.731 330.66L323.511 327.4L324.741 327.61L325.191 326.18L327.281 325.64L327.501 325.02L326.621 324.38L327.991 324.34L328.161 323.09L329.491 322.62L329.731 321.29L331.121 320.33L335.541 322.03L336.371 324.64L334.791 367.17L341.581 381.81L341.571 385.77L339.191 386.24L336.841 385.18L335.111 385.77L333.131 384.03L331.351 383.92L328.421 385.9L326.021 385.26L324.051 386L320.791 389.35L320.811 395.63L319.191 398.18L318.971 400L319.711 401.17L319.951 404.76L318.391 408.81L319.391 414.54L318.801 417.4L320.911 421.54L320.841 423.98L321.681 425.85L320.171 429.33L321.311 431.05L321.501 434.76L320.741 436.22L321.301 437.85L317.931 439.4L317.571 443.13L316.181 444.48L312.951 441.61L303.681 437.88L302.301 438.56L296.771 435.8L292.081 428.67L286.921 427.54L282.991 429.96L277.911 429.1L275.231 430.07L270.871 429.38L269.081 430.51L261.491 431.01L258.521 432.09L254.221 430.56L249.601 430.71L248.261 437.87L246.921 435.88L245.021 436.23L243.941 435.6L243.451 433.54L241.201 435.32L240.191 437.54L236.961 437.83L234.621 439.48L233.721 437.88L228.481 438.22L224.901 434.65L226.671 435.68L227.611 433.37L225.461 426.89L225.881 416.22L224.931 415.14L226.471 413.09L229.051 412.42L229.871 413.54L231.871 412.57L231.441 410.07L233.231 409.12L234.981 403.06L234.751 400.89L236.711 388.4L238.751 385.28L239.611 382.38L243.501 380.67L240.821 378.75L237.911 378.93L236.881 376.99L235.741 376.46L232.571 377.86L232.461 381.09L230.311 380.72L228.401 379.55L228.621 374.18L227.591 373.42L227.181 374.02L226.931 373.03L223.911 370.63L222.621 368.66L224.781 365.38L224.591 364.11L228.121 359.81L225.131 359.94L224.441 359.26L224.001 352.25L224.571 342.68L229.821 331.85L230.301 326.36L233.641 316.81L252.741 316.31L255.211 307.1L257.791 304.98Z" fill="#CCCCCC" stroke="white" stroke-width="0.5"/>
<path d="M268.611 448.92L270.151 451.71L274.551 453.48L275.741 454.8L276.191 463.47L277.481 465.69L279.011 466.51L281.481 473.09L284.271 472.93L284.831 472.61L284.501 472.06L286.131 471.1L288.441 471.72L295.871 465.1L306.031 460.05L310.931 459.19L313.121 461.16L314.461 462.97L314.741 470.86L313.151 473.97L313.211 479.91L311.871 481.02L312.331 482.28L309.871 485.43L311.091 486.63L313.571 495.1L313.641 496.84L312.251 497.32L312.111 498.87L314.131 500.82L315.321 504.58L316.321 504.88L317.411 507.9L319.501 507.55L320.871 506.1L322.661 507.42L322.551 509.29L326.261 512.99L327.791 516.3L326.921 518.11L327.581 519.2L326.381 518.84L322.371 520.84L319.731 521.08L320.611 526.75L318.361 528.75L314.771 534.41L311.081 536.52L311.481 537.47L310.401 540.27L308.301 540.92L306.191 540.07L303.711 535.78L301.361 537.08L300.691 539.26L298.031 541.88L297.671 543.93L298.681 545.78L299.881 547.13L301.611 547.45L302.061 548.85L305.101 552.04L307.071 558.11L310.891 557.75L311.601 556L315.311 556.22L315.961 555.57L317.221 558.81L319.271 558.05L321.771 564.35L322.681 570.58L322.411 573.27L319.791 577.37L320.291 581.99L317.461 583.11L317.641 584.73L318.851 585.39L318.701 586.03L314.721 587.22L313.721 588.73L314.951 589.92L314.141 590.93L310.741 590.96L309.911 589.43L308.681 594.34L305.601 595.94L305.141 597.14L299.151 599.31L297.301 600.71L295.751 600.78L295.221 602.66L296.841 602.92L299.861 605.76L300.761 607.61L296.961 609.51L294.331 609.19L292.531 609.79L292.211 611.9L292.991 612.9L291.921 613.58L290.421 613.99L289.191 612.56L286.321 612.64L285.381 618.88L286.131 623.12L284.061 625.72L283.451 627.7L284.361 628.61L287.381 628.02L290.191 629.92L289.041 631.78L288.781 634.1L286.111 635.61L285.351 645.34L286.131 649.04L290.031 652.33L290.441 653.79L288.461 653.48L285.601 655.88L285.641 660.07L281.281 657.62L279.871 659.05L278.121 661.13L277.641 667.39L272.181 660.75L272.841 657.76L272.041 655.68L272.921 652.7L271.231 651.58L268.841 652.29L268.371 651.13L268.961 648.62L268.311 646.66L266.801 644.75L264.751 645.29L263.681 644.61L263.371 641.24L260.891 639.87L260.991 637.51L258.981 637.32L258.561 638.08L255.941 636.63L256.011 637.86L254.491 639.91L251.041 640.48L250.291 642.43L249.031 642.88L246.171 643.23L245.581 642.5L244.321 644.13L242.341 642.3L238.741 641.69L237.901 637.67L235.221 636.02L235.141 634.84L241.321 631.8L243.811 631.66L242.891 629.5L244.511 628.24L244.421 627.21L243.731 626.21L239.741 626.39L238.191 623.13L235.071 624.34L235.361 623.08L234.501 620.94L235.291 618.35L234.671 617.03L235.921 616.29L238.071 616.8L239.901 614.86L240.481 613.02L236.511 611.53L235.801 609.67L236.381 608.91L237.921 609.33L239.361 608.62L240.561 606.32L237.131 602.9L237.831 599.99L236.491 598.88L235.371 599.32L235.911 596.95L234.691 596.42L235.011 594.9L228.541 593.16L228.301 591.96L229.331 590.89L236.261 591.38L239.121 589.21L240.131 583.99L245.541 579.48L248.101 580.38L251.471 579.41L252.851 579.66L257.091 576.91L258.991 571.03L259.041 567.38L260.861 566.44L261.431 564.12L264.361 562.34L264.891 560.11L266.271 559.4L263.861 556.89L264.191 555.49L263.481 554.63L264.641 551.93L266.201 550.68L265.031 549.38L263.211 548.89L263.611 545.81L265.391 546.4L265.511 543.39L261.711 536.03L262.381 534.65L267.611 535.48L269.691 532.18L274.711 531.4L276.391 527.98L268.241 501.61L269.581 495.83L268.741 493.51L266.911 491.67L268.071 488.91L267.871 476.54L267.371 460.71L268.451 456.94L268.041 454.45L268.881 451.59L268.611 448.92Z" fill="#CCCCCC" stroke="white" stroke-width="0.5"/>
<path d="M327.581 519.2L329.331 522.31L328.981 523.54L330.831 524.92L330.601 526.54L334.561 523.14L338.161 521.99L337.351 519L338.571 514.72L337.171 511.94L337.691 506.97L338.411 507.65L342.491 507.36L347.041 505.77L346.251 503.99L346.661 502.94L348.541 502.73L350.941 500.24L348.381 494.83L348.641 492.25L351.431 492.76L354.831 490.99L355.481 489.82L355.201 487.66L358.091 487.13L358.681 485.97L360.991 485.56L365.041 482.56L369.571 483.31L366.181 488.22L366.781 489.2L369.221 489.98L368.271 495.77L369.771 498.6L371.981 506.91L369.601 509.55L373.381 513.66L376.361 514.88L377.631 516.5L378.001 517.62L377.391 518.48L378.711 520.49L379.391 523.91L378.491 526.06L380.681 526.65L384.541 531.18L382.301 531.97L378.351 535.21L376.141 538.34L373.901 545.03L376.541 547.58L376.121 551.3L376.941 554.3L378.091 555.41L380.521 556.85L381.191 555.96L381.781 556.9L385.891 558.53L388.621 558.67L393.211 561.03L396.841 561.27L397.871 565.16L396.311 566.67L395.431 569.86L396.531 571.78L396.791 574.32L398.211 575.4L397.571 579.3L401.481 583.14L399.781 592.63L395.621 659.99L393.931 663.54L391.721 663.62L390.181 665.66L386.981 664.9L383.301 668.54L380.461 668.66L378.671 671.92L375.511 673.02L370.231 676.72L369.481 678.54L369.661 681.31L371.051 683.08L369.051 686.2L369.761 692.15L368.211 694.39L367.131 694.6L365.981 693.35L363.381 693.26L361.681 692.02L361.011 692.66L359.241 692.39L357.701 694.17L353.841 694.74L353.431 693.24L352.341 693.07L350.451 696.34L348.291 696.41L347.081 697.93L344.001 698.1L341.701 699.62L339.991 700.11L339.041 699.6L336.951 701L336.041 700.06L329.181 702.26L328.181 705.08L326.081 706.89L324.161 707.95L322.591 707.44L320.491 707.84L317.621 706.2L318.281 704.54L315.591 702.64L314.051 699.4L310.201 694.93L307.351 695.46L306.351 697.42L304.681 697.53L303.391 696.23L302.211 696.53L300.651 691.79L293.471 692.35L291.021 691.17L287.351 691.24L286.631 693.24L285.481 693.75L282.951 691.64L283.031 694.66L280.521 697.79L275.731 696.84L274.731 698.5L274.571 702.24L276.091 702.34L277.611 704.31L276.731 707.17L269.541 710.47L266.601 711.06L264.211 713.41L262.031 714.16L256.921 717.02L254.231 711.74L254.781 709.62L253.391 708.65L253.511 707.34L252.311 706.25L245.931 704.7L245.351 702.13L243.931 701.26L243.481 699.34L242.271 698.82L240.571 695.68L241.701 694.62L240.401 690.6L241.371 689.19L240.051 687.88L240.891 687.65L240.681 686.1L241.431 684.73L238.371 677.88L240.701 672.58L243.561 669.48L245.571 665.87L245.011 663.71L246.251 660.98L246.071 659.89L247.361 659.38L246.781 657.18L248.201 656.96L248.591 654.49L247.991 653.59L249.931 652.07L251.001 649.4L253.641 647.87L253.651 645.53L255.471 641.25L258.561 638.08L258.981 637.32L260.991 637.51L260.891 639.87L263.371 641.24L263.681 644.61L264.751 645.29L266.801 644.75L268.311 646.66L268.961 648.62L268.371 651.13L268.841 652.29L271.231 651.58L272.921 652.7L272.041 655.68L272.841 657.76L272.181 660.75L277.641 667.39L278.121 661.13L279.871 659.05L281.281 657.62L285.641 660.07L285.601 655.88L288.461 653.48L290.441 653.79L290.031 652.33L286.131 649.04L285.351 645.34L286.111 635.61L288.781 634.1L289.041 631.78L290.191 629.92L287.381 628.02L284.361 628.61L283.451 627.7L284.061 625.72L286.131 623.12L285.381 618.88L286.321 612.64L289.191 612.56L290.421 613.99L291.921 613.58L292.991 612.9L292.211 611.9L292.531 609.79L294.331 609.19L296.961 609.51L300.761 607.61L299.861 605.76L296.841 602.92L295.221 602.66L295.751 600.78L297.301 600.71L299.151 599.31L305.141 597.14L305.601 595.94L308.681 594.34L309.911 589.43L310.741 590.96L314.141 590.93L314.951 589.92L313.721 588.73L314.721 587.22L318.701 586.03L318.851 585.39L317.641 584.73L317.461 583.11L320.291 581.99L319.791 577.37L322.411 573.27L322.681 570.58L321.771 564.35L319.271 558.05L317.221 558.81L315.961 555.57L315.311 556.22L311.601 556L310.891 557.75L307.071 558.11L305.101 552.04L302.061 548.85L301.611 547.45L299.881 547.13L298.681 545.78L297.671 543.93L298.031 541.88L300.691 539.26L301.361 537.08L303.711 535.78L306.191 540.07L308.301 540.92L310.401 540.27L311.481 537.47L311.081 536.52L314.771 534.41L318.361 528.75L320.611 526.75L319.731 521.08L322.371 520.84L326.381 518.84L327.581 519.2Z" fill="#CCCCCC" stroke="white" stroke-width="0.5"/>
<path d="M113.869 591.69L115.689 590.93L116.659 588.98L117.169 590.32L117.989 590.38L118.519 594.63L120.099 593.74L122.059 594.94L125.689 600.43L128.379 601.28L128.939 604.23L130.939 604.29L131.419 603.44L134.159 602.84L135.789 604.27L137.769 608.09L140.149 609.34L141.789 608.44L141.649 606.99L143.549 605.39L148.019 604.45L148.719 605.4L149.889 605.33L152.149 603.37L156.419 606.25L156.979 607.38L158.189 606.93L158.589 605.72L160.379 606.98L160.619 608.15L162.539 608.74L163.889 607.99L167.739 609.18L171.479 609.01L170.699 612.2L171.389 613.28L172.429 613.1L172.749 613.71L169.989 616.1L172.479 619.73L174.629 620.08L177.819 621.86L181.229 620.33L186.949 622.69L195.479 623.6L199.579 624.82L203.289 625.25L204.399 624.57L204.759 623.08L211.409 623.65L213.869 624.49L218.959 622.79L221.639 623.82L227.599 619.78L230.589 620.66L234.669 617.03L235.289 618.35L234.499 620.94L235.359 623.08L235.069 624.34L238.189 623.13L239.739 626.39L243.729 626.21L244.419 627.21L244.509 628.24L242.889 629.5L243.809 631.66L241.319 631.8L235.139 634.84L235.219 636.02L237.899 637.67L238.739 641.69L242.339 642.3L244.319 644.13L245.579 642.5L246.169 643.23L249.029 642.88L250.289 642.43L251.039 640.48L254.489 639.91L256.009 637.86L255.939 636.63L258.559 638.08L255.469 641.25L253.649 645.53L253.639 647.87L250.999 649.4L249.929 652.07L247.989 653.59L248.589 654.49L248.199 656.96L246.779 657.18L247.359 659.38L246.069 659.89L246.249 660.98L245.009 663.71L245.569 665.87L243.559 669.48L240.699 672.58L238.369 677.88L241.429 684.73L240.679 686.1L240.889 687.65L240.049 687.88L241.369 689.19L240.399 690.6L241.699 694.62L240.569 695.68L242.269 698.82L243.479 699.34L243.929 701.26L245.349 702.13L245.929 704.7L252.309 706.25L253.509 707.34L253.389 708.65L254.779 709.62L254.229 711.74L256.919 717.02L259.359 719.23L259.949 721.96L261.219 722.1L261.469 724.67L263.529 728.51L260.909 730.69L259.169 728.25L254.999 728.65L251.409 726.43L249.279 726.98L246.699 722.88L244.429 721.82L237.719 723.14L232.349 722.81L226.899 720.28L224.639 719.98L219.129 716.87L214.979 716.02L213.399 714.87L206.559 714.96L206.489 712.4L207.589 711.78L206.719 710.75L205.439 710.68L203.979 708.69L205.209 708.17L204.799 705.35L198.769 705.81L194.689 706.94L193.759 704.16L195.969 701.86L195.589 699.83L196.489 698.7L196.239 696.79L191.839 696.53L188.169 697.92L185.459 697.18L183.359 698.15L182.289 696.81L181.409 697.12L181.289 698.23L179.109 698.41L179.089 701.21L171.339 702.56L170.479 700.04L166.659 700.42L165.279 698.86L162.469 698.51L160.299 697.11L158.489 698.18L155.979 697.57L148.489 690.82L146.979 686.99L132.939 667.66L133.049 666.82L130.839 663.35L133.799 661.52L134.669 661.72L132.569 656.57L128.349 652.19L123.929 651.33L122.899 650.33L121.679 647.89L122.179 646.19L121.739 644.01L120.219 641.57L117.239 639.83L116.179 637.73L114.899 637.24L113.759 633.4L111.599 630.08L111.619 629.29L112.879 629.56L112.959 628.93L110.229 623.38L110.189 618.85L108.269 616.27L107.379 613.79L107.719 612.68L111.509 612.66L112.349 611.9L112.279 609L110.769 605.16L109.809 604.1L107.199 603.48L108.089 601.77L108.519 597.97L109.939 596.71L109.959 595.36L111.039 594.39L112.009 594.51L111.739 593.56L113.869 591.69Z" fill="#CCCCCC" stroke="white" stroke-width="0.5"/>
<path d="M110.541 523.18L112.321 523.21L114.571 519.88L125.141 512.43L127.121 511.59L129.211 511.99L135.091 510.76L135.861 509.42L137.121 509.06L140.121 510.3L141.871 506.53L140.941 504.54L143.101 502.32L142.371 499.6L140.981 497.69L141.411 497.04L142.911 497.42L150.551 495.08L152.021 496.84L153.541 496.95L154.451 497.82L154.371 498.93L155.831 500.68L155.531 502.63L156.591 502.98L157.481 508.01L158.441 509.22L160.191 510.74L163.221 511.92L163.741 513.29L168.541 517.61L168.411 520.08L167.451 520.67L168.171 521.9L173.091 523.02L174.401 525.6L176.071 526.47L176.821 527.75L176.801 530.63L174.831 532.11L174.961 533.09L181.371 539.03L181.991 540.91L181.681 541.44L179.021 541.58L178.191 542.46L179.271 544.73L178.241 544.49L177.491 545.51L176.761 544.45L174.371 545.02L173.561 548.12L172.801 547.95L172.401 549.26L168.691 549.92L167.941 549.36L166.311 550.4L163.381 550.45L161.361 552.13L163.061 554.65L165.181 561.88L166.471 561.92L164.991 563.47L164.421 565.54L164.921 569.35L165.101 570.16L165.861 570.18L165.711 571.62L162.261 575.22L159.711 575.46L158.801 576.57L158.661 577.96L161.011 580.19L161.321 582.05L159.721 584L159.701 590.69L159.071 590.82L158.791 592.5L163.171 594.01L164.241 595.21L168.271 595.55L171.891 597.88L171.271 600.94L172.321 602.2L172.371 603.85L174.181 604.76L174.601 605.83L173.061 608.22L171.481 609.01L167.741 609.18L163.891 607.99L162.541 608.74L160.621 608.15L160.381 606.98L158.591 605.72L158.191 606.93L156.981 607.38L156.421 606.25L152.151 603.37L149.891 605.33L148.721 605.4L148.021 604.45L143.551 605.39L141.651 606.99L141.791 608.44L140.151 609.34L137.771 608.09L135.791 604.27L134.161 602.84L131.421 603.44L130.941 604.29L128.941 604.23L128.381 601.28L125.691 600.43L122.061 594.94L120.101 593.74L118.521 594.63L117.991 590.38L117.171 590.32L116.661 588.98L115.691 590.93L113.871 591.69L113.451 587.68L115.821 588L116.571 586.8L116.521 585.2L115.471 583.75L115.551 580.54L113.381 579.37L111.861 579.98L109.801 579.53L108.731 580.27L107.701 579.55L108.301 576.14L106.621 573.09L104.621 563.25L106.521 560.8L108.871 554.73L110.591 554.81L111.661 551.89L113.401 550.64L113.531 548.96L112.271 547.98L106.581 548.14L104.171 550.18L102.471 545.26L102.541 539.84L100.811 537.29L103.151 538.24L104.231 536.32L108.601 536.1L109.051 530.62L108.511 527.91L111.531 525.72L110.541 523.18Z" fill="#CCCCCC" stroke="white" stroke-width="0.5"/>
</svg>
