<svg width="801" height="779" viewBox="0 0 801 779" fill="none" xmlns="http://www.w3.org/2000/svg">
<path d="M429.721 581.43L422.921 581.03L416.111 576.16L416.911 563.19L399.691 557.12V553.47L389.521 550.37L387.721 555.1L386.111 556.22L383.761 555.94L381.071 556.93L378.771 558.56L376.891 562.35L374.371 565.04L371.041 566.37L367.341 566.45L360.451 565.46L353.281 567.22L349.151 567.32L344.951 566.93L341.311 568.43L340.571 570.51L338.571 571.17L333.271 569.34L329.361 570.12L326.401 572.77L322.281 579.52L322.701 582.97L325.091 585.74L326.751 588.82L327.961 592.1L326.431 592.92L326.041 594.43L328.491 594.97L329.271 595.94L329.461 598.22L331.071 600.31L335.001 607.12L337.171 610.1L338.511 610.69L339.961 610.89L342.851 613.79L342.571 616.17L342.671 616.23L343.351 617.04L344.341 617.6L346.781 620.57L347.321 620.88L348.561 622.24L350.631 623.2L357.621 630.61L359.761 631.39L360.211 632.35L360.391 633.65L360.751 635.03L361.161 635.61L362.761 637.27L363.091 637.45L364.381 638.71L364.471 639.01L371.631 647.93L372.451 649.43L374.611 652.49L375.451 654.99L375.541 655.78L375.401 656.61L374.761 658.04L374.611 658.76L375.161 661.25L377.541 666.63L378.221 670.51L378.821 672.1L378.981 673L378.961 673.78L377.501 681.75L377.821 683.32L379.201 685.64L379.511 687L379.351 687.69L378.681 689.33L378.541 690.27L378.581 690.66L378.741 690.65L380.591 690.3L381.481 690.5L382.311 691.05L384.561 690.91L386.591 689.99L392.801 685.97L396.111 681.29L401.411 678.68L407.571 673.89L407.941 669.1L409.661 667.21L412.081 666.33L414.711 666.35L417.291 665.8L418.201 663.35L424.241 654.92L423.551 650.14L420.711 645.97L420.941 642.41L419.841 639.81L418.261 638.32L416.931 636.34L417.621 634.36L419.991 633.06L425.221 630.9L432.211 623.42L436.871 620.91L443.111 615.09L445.841 613.31L448.001 611.06L450.741 609.33L454.031 607.74L456.611 605.86L458.771 603.78L458.561 600.32L457.571 597.01L443.981 586.29L439.061 578.76L437.521 578.02L436.321 579.03L434.971 579.68L429.721 581.43Z" fill="#CCCCCC" stroke="white" stroke-width="0.5"/>
<path d="M229.99 159.93L236.19 142.85L229.92 137.59L231.74 132.13L219.22 124.85L223.05 117.56L210.93 115.54L208.71 112.51L205 111.26L202.04 109.27L197.4 106.24L191.94 103.41L189.92 101.79L188.71 99.57L188.91 97.75L188.1 96.13L186.69 94.76L186.4 92.49L185.84 88.79L184.52 84.47L180.32 86.26L175.14 86.8L174.22 88.08L174.65 90.17L174.77 91.6L174.34 92.92L173.82 93.46L173.8 94.19L170.65 95.7L167.04 99.44L162.07 99.24L147.67 92.92L144.39 92.41L140.6 93.68L135.8 94.44L133.53 93.93L122.92 112.13L115.09 115.92L112.57 123L115.85 126.54L119.39 129.57L120.26 134.11L123.28 135.31L124.96 138.5L125.04 139.62L125.58 140.49L126.16 140.74L126.5 141.29L126.65 146.72L124.65 151.88L121.93 156.08L121.79 160.06L122.42 160.81L123.3 160.82L124.33 159.6L125.69 158.74L129.46 161.53L130.27 166.71L132.1 171.71L133.42 174.19L134.96 176.49V176.47L135.06 176.66L136.29 179.1L136.06 181.77L136.37 184.05L137.03 186.53L137.19 191.47L138.93 195.98L142.96 199.82L147.3 209.37L148.56 215.25L148.16 218.75L145.78 225.4L145.58 228.95L146.17 231.16L146.46 233.44L147.32 234.51L147.55 235.78L149.08 239.51L151.46 243.29L153.1 240.77L153.84 237.74L155.69 235.42L158.61 234.62L165.54 235.37L170.5 232.92L170.1 230.9L169.24 229L167.86 228.16L167.29 226.84L168.3 224.66L171.13 220.37L170.15 215.34L171.16 210.78L175.2 204.7L181.51 199.14L189.09 195.59L196.41 194.58L202.98 194.07L203.99 188.51L202.72 181.42L201.71 174.09L203.23 169.28L206.33 165.27L208.57 163.49L211.3 162.7L213.47 164.2L214.09 166.89L215.95 168.41L218.21 168.65L219.37 166.25L221.06 164.3L223.19 162.56L227.67 160.39L229.99 159.93Z" fill="#CCCCCC" stroke="white" stroke-width="0.5"/>
<path d="M327.652 87.78L324.812 86.2L324.842 85.52L323.722 82.7L321.602 80.67L318.942 80.02L316.262 81.35L313.002 83.73L312.322 84.05L311.252 84.39L310.292 85.21L308.622 86.99L305.782 85.57L301.712 84.84L297.402 84.7L293.872 85.03L291.892 85.78L290.852 85.9L300.002 103.24L302.132 106.08L307.632 112.44L310.782 115.55L313.392 117.88L316.662 119.37L319.942 121.39L321.672 124.68L321.422 126.72L320.032 128.12L318.592 128.04L317.332 128.57L314.592 130.71L309.642 129.28L307.682 130.54L305.962 131.03L304.762 132.12L303.662 133.45L301.962 133.87L300.932 135.7L303.152 143.75L302.542 146.66L300.482 152.89L300.002 156.31L299.062 158.54L297.262 160.22L295.502 165.4L299.232 165.83L302.652 168.88L307.792 173.65L314.072 176.69L317.682 177.65L320.342 177.08L322.812 175.74L324.912 176.69L327.002 180.7L330.422 182.79L335.752 183.36L342.402 183.55L348.302 185.27L350.582 189.08L353.062 197.28L356.102 204.33L360.092 209.47L363.142 212.33L366.582 214.82L368.732 213.23L371.292 212.45L373.912 211.91L386.122 206.96L387.032 205.43L388.952 203.85L391.542 203.38L390.742 200.59L391.022 197.71L392.942 194.98L395.402 192.74L395.842 191.72L395.962 190.62L397.372 190.02L399.062 190.48L401.012 188.63L401.632 137.3L404.142 137.67L406.842 139.85L408.552 142.5L411.292 143.37L412.512 142.61L413.632 141.68L417.542 139.92L419.512 136.26L424.252 115.78L423.642 108.83L384.162 109.14L381.522 107.98L377.492 105.22L375.672 105.12L373.352 105.41L371.292 104.37L369.672 101.85L367.692 99.55L362.392 96.45L360.022 94.71L358.352 92.3L356.702 91.32L354.722 90.93L349.112 87.92L346.592 87.91L344.082 87.6L339.492 83.35L337.732 84.41L337.242 86.92L334.392 87.18L329.532 86.9L327.652 87.78Z" fill="#CCCCCC" stroke="white" stroke-width="0.5"/>
<path d="M106.371 306.99L105.911 306.91L105.421 306.47L104.441 304.89L102.161 303.45L98.8913 303.24L79.1012 303.36L76.6312 305.08L71.9912 310.34L69.1513 312.78L65.6312 313.6L50.2812 313.78L49.0112 315.4L55.5312 320.94L58.2812 327.17L62.9813 354.64L65.0312 360.56L69.3613 368.63L71.5812 374.85L74.9013 376.86L77.2113 379.5L76.4613 384.01L77.7312 386.94L77.9812 390.21L71.1813 394.88L69.0413 401.22L67.1912 403.73L50.0912 418.05L47.5312 419.8L50.6612 421.4L56.2712 426.09L66.6012 438.18L70.8913 444.86L91.2312 430.12L99.0612 427.75L114.701 426.97L120.951 429.33L124.081 438.78V445.09L127.211 449.82L137.381 450.61L149.111 451.4L153.021 456.13L153.801 464.01L155.371 475.06L156.931 485.31L166.311 486.89L178.051 488.47L194.071 491.17L192.811 488.64L194.791 482.42L197.611 476.58L200.111 472.73L207.491 469.91L210.101 464.76L212.961 456.9L213.001 449.24L229.341 443.59L233.031 441.54L234.731 434.29L235.481 426.89L235.031 419.36L235.371 411.84L237.461 405.18L241.681 399.81L243.701 398.62L245.141 396.75L245.841 395.46L246.261 394.08L245.731 393.05L245.081 392.08L244.741 390.58L243.501 389.87L233.071 388.97L230.121 387.84L227.921 385.56L225.301 381.4L224.241 380.34L223.551 380.03L221.941 379.78L220.591 378.78L218.071 377.67L217.321 377.16L216.911 376.78L216.161 375.66L216.091 375.33L216.221 374.5L216.161 374.17L215.731 373.82L214.821 373.67L214.391 373.44L213.411 372.72L209.691 370.73L207.981 369.37L206.151 367.33L204.481 364.87L203.271 362.26L202.011 357.4L201.091 356.09L200.631 354.9L200.681 351.35L200.381 349.93L199.871 349.32L198.501 348.1L197.921 347.43L197.661 346.75L197.431 345.94L197.151 345.25L196.721 344.96L195.201 344.77L191.071 343.49V342.99L189.951 343.59L188.691 343.52L185.371 342.87L183.671 342.01L183.411 342.08L183.151 342.31L182.841 342.45L182.421 342.23L181.751 341.48L181.371 341.15L180.951 341.02L178.821 341.48L177.241 342.56L175.831 343.85L174.311 344.96L172.861 345.58L172.301 345.95L171.521 346.7L171.111 347.2L171.101 347.43L170.171 347.63L167.471 348.7L166.671 349.17L165.931 349.28L160.561 347.64L159.781 347.83L159.031 348.95L157.951 348.15L156.711 348.24L155.351 348.69L153.901 348.95L152.301 348.71L150.891 348.11L148.241 346.44L146.911 346.96L143.941 346.62L142.581 347.18L141.311 347.45L140.261 346.37L138.881 343.93L137.471 343.43L136.011 343.68L134.561 344.19L133.201 344.47L132.241 344.26L132.081 343.76L132.461 342.72L132.391 342.29L132.051 341.61L131.971 341.24L132.461 339.59L132.161 338.39L131.891 337.71L131.531 337.08L131.711 336.54L131.751 336.08L131.531 335.6L131.191 335.48L130.181 335.53L129.771 335.36L125.011 331.73L124.681 331.63L124.431 331.41L123.931 330.24L123.721 329.38L123.771 328.55L125.821 327.4L126.011 325.61L124.271 319.76L123.601 318.83L122.371 317.54L122.061 317.07L121.191 315.28L120.641 314.7L120.091 314.23L119.581 313.67L119.191 312.81L118.921 309.72L118.481 308.43L117.241 307.89L115.991 308.5L114.431 311.38L113.351 312.37L111.811 311.18L109.691 308.16L107.911 306.91L107.431 306.85L106.371 306.99Z" fill="#CCCCCC" stroke="white" stroke-width="0.5"/>
<path d="M709.6 266.42L703.51 262.01L697.38 257.59L691.25 253.16L685.12 248.73L678.99 244.31L672.86 239.88L666.73 235.45L660.61 231.03L654.47 226.62L654 226.27L653.99 226.28L629.51 261.36L626.26 263.61L622.68 267.41L622.11 272.17L622.07 275.65L623.06 278.73L624.48 280.61L624.99 282.97L625.82 284.99L627.02 286.85L627.64 289.57L624.19 289.44L622.2 288.31L620.3 286.93L619.04 287L614.13 288.04L610.55 289.24L606.14 290.28L601.87 289.26L598.38 288.09H594.81L590.85 291.66L580.27 304.47L579.67 306.15L580.26 308.03L580.19 310.09L578.6 317.05L576.99 321.84L570.4 330.37L569.03 334.25L567.49 342.71L565.22 346.42L556.68 352.25L557.77 359.87L559.93 360.99L561.84 361.63L560.36 363.75L560.63 365.64L560.89 366.11L560.88 366.79L562.5 368.52L564.42 369.79L566.34 367.87L567.76 364.96L570.81 362.69L573.08 359.92L575.68 358.86L577.99 356.79L579.3 348.5L580.38 346.58L582.67 347.35L583.06 347.65L583.25 348.17L584.16 348.51L585.27 348.39L586.5 349.04L587.75 349.18L590.18 350.19L591.02 353.51L595.68 358.86L597.41 360.35L599.35 358.38L603.11 358.58L606.01 357.65L605.92 355.63L606.99 354.72L608.71 355.24L609.87 354.18L620.75 351.25L625.62 352.37L627.7 352.03L629.55 351.13L634.67 351.54L639.17 353.79L641.19 356.02L643.87 357L646.93 357.8L648.81 360.44L650.78 361.28L653.07 361.15L654.16 362.24L655.38 362.97L657.78 363.48L658.5 362.87L659.3 362.35L660.57 362.85L662.03 362.84L663.06 362.58L664 363.1L668.12 361.31L669.69 360.81L670.99 359.46L671.98 359.35L672.97 359.54L674.41 359.06L675.58 358.12L681.58 359.12L681.63 358.88L681.91 358.2L682.31 357.57L682.78 357.07L683.09 356.37L683.11 351.72L683.38 350.03L683.89 348.47L685.48 346.06L686.78 343.38L687.7 342.23L688.39 340.89L688.45 337.53L688.92 336.04L687.94 335.6L690.29 334.09L692.8 330.3L694.86 326.06L695.83 323.2L695.73 322.05L695.23 321.61L694.67 321.34L694.36 320.73L694.57 319.75L695.23 319.18L696.06 318.78L696.81 318.28L697.81 316.94L698.59 315.36L701.7 306.32L701.27 305.43L700.16 306.84L699.38 307.44L698.81 306.91L699.05 306.39L701.24 303.08L702.67 300.1L703.14 299.49L705.87 297.09L706.16 296.57L706.03 295.9L705.24 294.17L705.19 293.08L702.89 294.03L701.86 294.08L701.98 293.1L702.69 291.7L702.96 291.34L703.58 291.07L704.7 291.42L705.19 291.11L705.4 290.39L705.15 286.29L704.96 285.58L703.72 283.64L705.28 283.76L706.37 282.44L707.64 278.72L708.09 279.99L707.86 281.36L707.4 282.75L707.15 284.18L707.57 285.23L708.49 284.35L710.78 280.45L711.25 279.3L711.52 278.06L711.6 276.53L711.42 274.93L710.8 274.53L709.72 274.44L708.13 273.8L710.09 272.81L711.43 271.58L711.82 269.24L711.36 267.22L710.09 266.87L709.6 266.42Z" fill="#CCCCCC" stroke="white" stroke-width="0.5"/>
<path d="M388.553 31.63L376.923 25.14L361.503 16.53L346.093 7.92004L340.713 4.92004L338.043 4.71004L337.083 4.08004L336.943 2.20004L335.823 2.17004L335.533 2.20004H330.063H324.173H311.043H310.503H297.893H295.753H284.753H271.603H258.463H254.173H245.313H245.203L243.883 35.68L245.103 36.74L289.153 36.03L297.883 39.45L298.653 43.12L298.313 47.05L298.483 51.04L297.843 54.76L295.973 53.22L292.793 52.87L289.773 55.06L286.733 61.93L287.043 63.01L288.043 64.51L287.483 65.48L287.413 66L287.463 67.06L287.193 67.19L285.453 68.27L287.713 69.85L290.483 68.45L293.333 66.46L295.843 66.3L296.043 65.57L296.583 65.24L297.373 65.2L298.283 65.32L297.813 66.19L298.233 66.77L299.753 67.78L300.333 68.58L300.213 68.98L298.283 70.23L301.363 70.52L304.213 71.21L304.073 71.5L304.043 71.55H303.953L303.683 71.7L304.223 71.93L304.413 72.07L304.623 72.03L305.193 71.7L306.313 72.92L305.993 73.96L305.143 74.91L304.663 75.91L304.113 75.69L300.783 75.67L296.113 72.49L293.853 71.85L291.873 73.7L293.873 76.65L292.863 76.9L292.623 77.16L292.403 77.67L289.583 75.22L288.423 75.03L288.443 77.14H287.953L287.433 76.07L286.453 74.66L285.363 73.88L284.513 74.68L285.593 75.2L286.133 76.11L286.153 77.11L285.663 77.9L285.313 77.61L283.533 77.14L283.553 77.23L281.533 77.14L281.173 77.05L281.013 76.84L280.863 76.92L280.553 77.67L280.713 77.68L280.883 78.29L281.023 79.05L281.043 79.59L280.783 80.35L280.133 81.34L280.063 82.09L280.223 82.69L280.473 83.21L281.043 84.05L282.343 82.58L283.763 81.83H285.433L287.463 82.58L289.313 83.61L290.093 84.34L290.403 85.28L290.853 85.9L291.893 85.78L293.873 85.03L297.403 84.7L301.713 84.84L305.783 85.57L308.623 86.99L310.293 85.21L311.253 84.39L312.323 84.05L313.003 83.73L316.263 81.35L318.943 80.02L321.603 80.67L323.723 82.7L324.843 85.52L324.813 86.2L327.653 87.78L329.533 86.9L334.393 87.18L337.243 86.92L337.733 84.41L339.493 83.35L344.083 87.6L346.593 87.91L349.113 87.92L354.723 90.93L356.703 91.32L358.353 92.3L360.023 94.71L362.393 96.45L367.693 99.55L369.673 101.85L371.293 104.37L373.353 105.41L375.673 105.12L377.493 105.22L381.523 107.98L384.163 109.14L423.643 108.83L426.603 100.42L428.343 99.6L430.363 98.96L432.183 95.1L433.253 90.86L432.243 87.3L428.163 86.09L425.453 84.32L424.883 81.11L426.423 52.79V52.78L423.163 50.96L407.743 42.35L392.333 33.75L388.553 31.63Z" fill="#CCCCCC" stroke="white" stroke-width="0.5"/>
<path d="M582.778 140.15L582.738 140.14L579.568 139.42L573.648 136.97L571.308 135.6L568.708 135.29L567.308 135.78L566.068 135.33L562.418 135.45L559.098 137.64L554.808 141.16L552.988 143.06L550.598 144.09L545.798 145.51L544.148 150.23L544.258 153.68L544.918 157.05L546.668 158.74L548.968 159.74L553.968 163.04L556.648 167.97L556.798 181.01L558.568 180.56L560.388 180.38L562.348 180.58L564.258 178.66L565.688 178.25L567.108 178.11L568.028 179.2L568.908 180.5L570.898 181.14L572.998 181.27L574.048 182.18L573.758 183.54L575.978 188.8L579.828 193L582.478 197.52L584.608 201.27L585.878 204.47L585.628 212.46L586.268 216.1L587.138 217.57L588.718 223.03L589.148 224.98L589.218 226.97L588.138 229.6L588.088 231.84L588.248 234.16L587.848 239.72L587.988 245.24L590.368 249.32L594.068 252.36L595.728 252.59L601.978 256.08L606.958 259.89L608.688 260.52L610.328 260.26L612.968 258.6L614.578 258.38L618.908 258.53L619.898 258.93L620.618 259.4L622.048 259.68L622.798 260L624.358 261.37L626.258 263.61L629.508 261.36L653.988 226.28L653.998 226.27L648.348 222.19L642.218 217.77L636.088 213.34L629.968 208.93L623.838 204.5L617.708 200.08L611.588 195.65L607.668 192.84L606.688 191.55L605.968 190.08L604.718 185.64L604.178 184.54L603.178 183.62L601.818 182.96L600.308 182.56L598.768 182.43L595.328 182.63L595.128 181.64L595.698 180.23L595.988 179.04L595.618 178.48L594.438 178.33L593.928 177.8L593.808 177.04L593.998 176.2L594.338 175.4L594.698 174.76L595.748 173.6L597.348 172.33L599.058 171.42L600.418 171.31L600.308 170.03L600.568 169.02L601.278 168.41L602.578 168.31L601.138 159.52L600.988 158.57L599.718 150.78L598.618 149.01L592.688 145.69L582.778 140.15Z" fill="#CCCCCC" stroke="white" stroke-width="0.5"/>
<path d="M608.694 260.52L606.964 259.89L601.984 256.08L595.734 252.59L594.074 252.36L590.374 249.32L587.994 245.24L587.854 239.72L588.254 234.16L588.094 231.84L588.144 229.6L589.224 226.97L589.154 224.98L588.724 223.03L587.144 217.57L586.274 216.1L585.634 212.46L585.884 204.47L584.614 201.27L582.484 197.52L579.834 193L575.984 188.8L573.764 183.54L574.054 182.18L573.004 181.27L570.904 181.14L568.914 180.5L568.034 179.2L567.114 178.11L565.694 178.25L564.264 178.66L562.354 180.58L560.394 180.38L558.574 180.56L556.804 181.01L554.304 181.96L552.024 183.49L550.694 185.37L549.054 186.85L543.654 186.91L541.774 188.99L540.004 191.37L537.814 191.88L536.454 189.47L535.164 188.59L533.834 188.22L528.594 188.49L528.084 189.04V189.79L527.564 190.98L526.144 191.47L524.654 192.77L523.264 193.05L521.964 193.56L517.674 199.19L516.494 202.11L517.124 210.33L518.734 219.43L518.634 223.55L517.614 224.07L516.434 223.6L514.394 223.51L512.434 224.14L509.064 224.43L505.834 225.06L505.134 226.53L501.804 226.95L498.234 225.45L482.014 201.89L478.594 195.46L476.234 192.08L472.094 193.48L468.614 198.08L466.054 200.32L464.144 202.74L463.934 204.9L462.474 205.31L460.904 200.36L461.414 195.12L463.184 189.95L462.234 186.54L460.334 186.28L459.914 191.29L458.664 193.86L450.134 196.14L450.364 198.91L449.104 200.8L445.864 200.36L443.694 198.11L445.104 195.68L446.924 193.6L444.684 192.65L441.794 192.08L439.004 190.57L435.974 190.6L431.204 195.41L428.354 196.46L425.854 198.18L423.834 198.85L421.634 198.82L414.794 203.01L414.124 203.9L413.894 204.95L412.894 206.02L408.684 207.32L406.194 208.65L403.474 209.78L400.994 211.12L403.634 216.56L409.774 223.23L409.954 225.38L405.844 230.85L402.014 237.79L399.344 245.07L402.584 248.68L407.474 251.58L411.054 255.7L413.694 261.52L418.474 263.85L419.154 266.7L419.124 269.73L422.014 271.72L426.224 272.46L428.934 277.52L433.214 279.17L434.174 279.28L435.054 279.7L441.624 280.31L445.374 279.68L446.954 277.12L451.894 267.08L455.534 261.31L456.214 258.56L454.944 256.01L454.544 254.86L454.414 253.65L454.744 252.38L455.394 252.01L456.974 252.62L462.624 248.73L465.714 245.77L466.474 244.54L467.634 243.73L468.884 244.24L470.094 244.92L471.824 244.06L473.584 242.85L477.144 242.94L479.344 239.28L480.154 238.69L481.924 237.65L484.054 236.02L502.014 230.94L502.514 252.3L503.214 256.34L504.374 260.28L506.034 263.95L506.424 266.3L505.594 280.95L502.944 298.28L501.404 303.34L499.124 306.89L497.564 310.75L498.344 315.3L497.104 319.35L498.064 322.66L500.814 325.56L504.544 328.55L507.894 331.89L509.954 335.5L512.474 338.78L516.844 341.47L521.464 343.66L524.344 347.17L526.414 351.37L529.014 355.43L532.594 358.59L537.404 360.48L542.394 361.94L546.234 360.68L556.684 352.25L565.224 346.42L567.494 342.71L569.034 334.25L570.404 330.37L576.994 321.84L578.604 317.05L580.194 310.09L580.264 308.03L579.674 306.15L580.274 304.47L590.854 291.66L594.814 288.09H598.384L601.874 289.26L606.144 290.28L610.554 289.24L614.134 288.04L619.044 287L620.304 286.93L622.204 288.31L624.194 289.44L627.644 289.57L627.024 286.85L625.824 284.99L624.994 282.97L624.484 280.61L623.064 278.73L622.074 275.65L622.114 272.17L622.684 267.41L626.264 263.61L624.364 261.37L622.804 260L622.054 259.68L620.624 259.4L619.904 258.93L618.914 258.53L614.584 258.38L612.974 258.6L610.334 260.26L608.694 260.52Z" fill="#CCCCCC" stroke="white" stroke-width="0.5"/>
<path d="M582.782 140.15L577.282 137.08L561.862 128.46L546.452 119.85L531.042 111.23L515.632 102.62L500.212 94.02L484.802 85.4L469.392 76.79L453.982 68.18L438.572 59.56L426.422 52.78V52.79L424.882 81.11L425.452 84.32L428.162 86.09L432.242 87.3L433.252 90.86L432.182 95.1L430.362 98.96L428.342 99.6L426.602 100.42L423.642 108.83L424.252 115.78L419.512 136.26L417.542 139.92L413.632 141.68L412.512 142.61L411.292 143.37L408.552 142.5L406.842 139.85L404.142 137.67L401.632 137.3L401.012 188.63L399.062 190.48L397.372 190.02L395.962 190.62L395.842 191.72L395.402 192.74L392.942 194.98L391.022 197.71L390.742 200.59L391.542 203.38L396.062 207.51L400.992 211.12L403.472 209.78L406.192 208.65L408.682 207.32L412.892 206.02L413.892 204.95L414.122 203.9L414.792 203.01L421.632 198.82L423.832 198.85L425.852 198.18L428.352 196.46L431.202 195.41L435.972 190.6L439.002 190.57L441.792 192.08L444.682 192.65L446.922 193.6L445.102 195.68L443.692 198.11L445.862 200.36L449.102 200.8L450.362 198.91L450.132 196.14L458.662 193.86L459.912 191.29L460.332 186.28L462.232 186.54L463.182 189.95L461.412 195.12L460.902 200.36L462.472 205.31L463.932 204.9L464.142 202.74L466.052 200.32L468.612 198.08L472.092 193.48L476.232 192.08L478.592 195.46L482.012 201.89L498.232 225.45L501.802 226.95L505.132 226.53L505.832 225.06L509.062 224.43L512.432 224.14L514.392 223.51L516.432 223.6L517.612 224.07L518.632 223.55L518.732 219.43L517.122 210.33L516.492 202.11L517.672 199.19L521.962 193.56L523.262 193.05L524.652 192.77L526.142 191.47L527.562 190.98L528.082 189.79V189.04L528.592 188.49L533.832 188.22L535.162 188.59L536.452 189.47L537.812 191.88L540.002 191.37L541.772 188.99L543.652 186.91L549.052 186.85L550.692 185.37L552.022 183.49L554.302 181.96L556.802 181.01L556.652 167.97L553.972 163.04L548.972 159.74L546.672 158.74L544.922 157.05L544.262 153.68L544.152 150.23L545.802 145.51L550.602 144.09L552.992 143.06L554.812 141.16L559.102 137.64L562.422 135.45L566.072 135.33L567.312 135.78L568.712 135.29L571.312 135.6L573.652 136.97L579.572 139.42L582.742 140.14L582.782 140.15Z" fill="#CCCCCC" stroke="white" stroke-width="0.5"/>
<path d="M400.993 211.12L396.063 207.51L391.543 203.38L388.953 203.85L387.033 205.43L386.123 206.96L373.913 211.91L371.293 212.45L368.733 213.23L366.583 214.82L364.763 216.77L360.413 217.9L357.673 220.26L357.423 223.41L356.853 224.71L356.153 225.86L355.623 228.14L353.363 228.37L351.073 227.59L349.403 229L345.703 235.37L342.603 242.05L334.073 253.1L332.523 259.66L333.323 265.75L333.473 271.94L330.903 278.89L330.943 282.51L332.143 285.96L332.763 288.78L330.733 294.43L331.163 297.45L331.873 300.5L333.953 302.62L337.603 303.98L340.843 305.9L343.153 307.78L345.613 309.37L351.983 315.8L353.543 317.77L351.533 320.9L348.863 323.63L344.193 327.59L341.023 332.45L342.593 334.32L344.753 335.93L344.973 339.17L343.493 342.19L341.573 343.71L341.153 345L340.973 346.42L340.913 352.73L337.143 366.76L336.943 372.78L337.753 375.26L338.043 377.59L333.093 381.29L328.893 384.82L326.363 388.89L325.583 389.51L323.813 389.75L322.273 390.4L319.413 392.47L312.103 399.91L306.913 401.89L305.803 402.52L302.373 406.61L303.133 408.2L302.663 415.87L303.073 423.53L299.953 429.91L302.143 431.76L303.783 434.14L304.783 437.89L305.333 441.84L307.073 444.73L310.133 445.88L312.623 448.3L314.323 451.5L315.463 453.17L316.863 454.62L320.983 455.88L321.903 457.55L322.133 459.51L323.403 462.53L323.683 465.51L324.863 466.2L326.273 466.56L329.263 468.7L332.523 470.16L338.823 466.63L344.753 462.59L346.963 459.48L349.433 456.75L352.723 456.78L355.943 457.96L359.293 458.11L362.643 457.62L364.053 456.45L363.933 454.19L367.553 449.83L388.683 445.41L391.363 440.33L392.183 433.33L394.833 431.19L397.893 429.45L399.123 428.51L400.553 427.95L401.863 427.12L402.953 426.06L405.703 426.31L408.683 427.06L411.663 427.41L414.543 428.29L414.203 420.6L413.043 413.87L422.093 413.45L424.073 408.63L422.803 396.25L423.553 389.76L424.743 387.46L424.773 384.86L424.103 382.01L422.643 379.46L422.053 373.18L423.613 366.69L423.873 358.31L426.433 352.3L428.273 349.59L428.973 346.83L429.333 343.92L431.563 341.97L433.043 340.15L432.243 338.06L429.853 335.48L428.043 332.48L427.873 331.09L427.563 329.92L426.883 329.76L426.373 329.31L425.603 328.39L424.533 327.7L423.263 325.6L422.373 323.33L420.423 321.23L418.763 318.83L417.623 313.94L416.323 311.11L415.403 308.19L415.473 305.5L415.243 302.82L413.773 300.4L414.153 298L431.663 285.98L432.313 284.11L433.503 281.71L433.213 279.17L428.933 277.52L426.223 272.46L422.013 271.72L419.123 269.73L419.153 266.7L418.473 263.85L413.693 261.52L411.053 255.7L407.473 251.58L402.583 248.68L399.343 245.07L402.013 237.79L405.843 230.85L409.953 225.38L409.773 223.23L403.633 216.56L400.993 211.12Z" fill="#CCCCCC" stroke="white" stroke-width="0.5"/>
<path d="M520.948 778.42L525.448 777.7L526.518 777.33L528.428 777.11L528.958 776.78L529.348 776.31L530.038 775.73L532.688 774.72L533.518 774.28L534.158 773.67L536.158 770.73L539.408 766.86L540.618 766.45L541.308 766.8L542.718 766.91L544.508 768.07L545.568 768.27L552.208 767.67L552.878 767.38L553.518 766.89L554.648 766.23L555.508 768.48L557.458 770.94L559.968 773.06L562.488 774.28L568.588 775.67L571.718 776.01L574.298 775.73L574.998 775.42L575.558 775.05L576.118 774.78L576.788 774.73L577.618 775.13L578.898 776.48L579.488 776.78L583.038 777.79H584.678L586.038 777.56L586.528 777.3L587.128 776.78L587.528 776.05L587.938 775.04L588.488 774.13L589.358 773.73L590.858 773.42L593.458 772.04L595.018 771.73L597.288 771.71L598.828 771.44L600.168 770.67L603.358 768.1L608.588 765.79L610.078 764.73L610.978 763.93L611.558 762.95L611.428 762.05L610.998 761.15L610.708 760.18L611.088 758.53L612.808 755.45L612.708 754.13L613.378 753.24L614.488 749.93L614.668 748.86L615.158 748.22L619.668 745.65L620.858 745.36L623.778 745.18L624.418 745.01L625.098 744.3L629.198 743.59L630.818 743.63V743.61L625.858 726.35L623.608 711.49L620.038 704.84L618.438 703.04L617.208 701.16L616.188 697.73L614.338 694.5L613.858 692.89L613.078 691.18L611.318 688.22L609.368 686.66L607.198 685.44L603.838 682.99L563.978 673.21L546.618 666.53L543.068 663.48L543.288 658.23L543.018 652.93L543.508 648.49L545.338 644.5L551.278 639.08L556.758 633L559.898 628.47L561.618 624.23L562.598 619.88L557.248 621.46L550.858 626.26L548.548 627.3L542.888 630.9L538.118 635.21L533.978 640.17L528.208 645.21L521.568 648.88L516.688 649.01L514.878 645.55L518.788 640.41L521.038 634.52L518.138 629.21L515.908 623.67L515.978 621.3L515.048 619.26L514.238 619.67L512.748 620.09L512.778 623.36L512.138 625.18L508.958 629.7L507.108 631.65L506.688 631.98L500.748 632.83L496.368 632.09L490.108 633.71L488.188 632.56L487.808 631.94L487.148 632.13L486.618 631.58L486.828 630.65L483.668 631.56L480.418 634.41L479.758 636.38L478.558 637.9L476.018 638.07L473.428 637.69L463.428 638.06L460.308 635.64L460.768 631.22L461.918 630.27L463.508 630.18L464.888 629.03L468.058 623.99L470.528 620.92L471.028 619.39L470.358 617.85L470.648 615.55L471.738 613.31L474.648 610.65L475.758 606.99L474.518 604.57L473.708 602.01L473.458 596.83L473.128 595.35L473.108 594.15L473.578 593.47L473.328 592.78L468.718 598L464.478 601.99L461.678 603.08L458.768 603.78L456.608 605.86L454.028 607.74L450.738 609.33L447.998 611.06L445.838 613.31L443.108 615.09L436.868 620.91L432.208 623.42L425.218 630.9L419.988 633.06L417.618 634.36L416.928 636.34L418.258 638.32L419.838 639.81L420.938 642.41L420.708 645.97L423.548 650.14L424.238 654.92L418.198 663.35L417.288 665.8L414.708 666.35L412.078 666.33L409.658 667.21L407.938 669.1L407.568 673.89L401.408 678.68L396.108 681.29L392.798 685.97L386.588 689.99L384.558 690.91L382.308 691.05L381.478 690.5L380.588 690.3L378.738 690.65L378.578 690.66L378.648 691.23L378.988 692.24L379.458 693.2L380.038 694.03L380.648 694.32L381.268 694.28L381.508 694.35L381.758 694.42L381.958 695.28L381.898 696.68L382.098 697.11L383.638 698.95L384.318 700.42L384.378 702.01L383.428 703.55L383.888 704.23L384.008 704.55L384.318 704.97L384.778 705.31L385.208 705.83L385.398 706.77L384.518 707.43L384.088 708.05L384.358 709.96L383.428 714.53V717.77L383.278 718.53L381.958 721.51L381.288 722.37L379.858 724.21L379.508 726.05L379.818 727.55L380.778 730.55L380.978 732.34L381.528 733.63L384.948 736.59L385.318 737.31L385.548 737.95L385.888 738.41L387.188 738.74L387.758 739.14L388.198 739.7L388.378 740.36L388.608 742.03L389.248 743.46L390.188 744.53L391.318 745.18V745.63L390.898 745.88L390.278 746.36L389.848 746.59L391.438 749.57L391.898 750.13L392.368 750.08L393.288 749.27L393.818 749.09L394.408 749.16L397.508 750.21L399.248 751.13L400.588 752.35L401.128 753.85L401.428 754.41L402.778 755.53L403.388 757.51L404.068 758.28L404.738 758.87L405.048 759.4L405.208 759.84L405.548 760.5L405.908 761.36L406.068 762.43V766.23L406.188 766.86L436.138 767.17L439.138 767.08L439.258 767.48L439.738 767.95L440.408 768.17L442.168 768.26L442.478 768.23L443.438 767.84L443.458 767.77L443.918 767.64L444.208 767.47L444.538 767.51L445.178 768L445.558 768.55L445.748 769.06L446.078 769.47L446.888 769.73L446.978 768.48L447.768 768.42L448.918 768.88L450.098 769.18L451.788 768.23H451.868L455.738 767.21L456.458 766.75L456.968 765.24L457.568 764.23L458.358 763.25L459.228 762.68L458.668 761.08L459.998 760.29L463.598 759.63L464.868 758.63L467.108 755.78L468.058 755.13L470.998 755.68L473.028 756.55L473.488 756.68L476.198 756.65L477.158 757.12L478.398 758.63L477.718 760.27L478.358 761.65L479.698 762.36L481.088 761.95L482.118 761.89L483.618 762.56L486.238 764.18L486.948 764.47L488.528 764.89L489.218 765.18L489.828 765.66L490.288 766.15L490.778 766.53L491.438 766.68L492.588 767.24L492.988 768.61L493.158 770.27L493.638 771.73L493.178 772.83L493.388 774.34L494.038 775.67L494.858 776.24L497.818 775.73L498.688 775.89L499.798 776.57L500.538 776.78L501.588 776.67L504.208 775.92L506.458 775.57L506.958 775.23L507.328 774.89L507.668 774.73H516.058L516.618 775.13L517.048 776.85L517.498 777.23L517.898 777.39L519.708 778.29L520.948 778.42Z" fill="#CCCCCC" stroke="white" stroke-width="0.5"/>
<path d="M799.079 686.49L799.119 685.53L798.789 684.85L798.389 684.3L798.189 683.75L798.299 682.94L799.079 680.47L798.619 680.5L797.669 680.42L797.209 680.47L798.129 679.32L799.319 678.22L799.979 677.05L799.349 675.73L798.929 675.08L798.679 674.34L798.369 673.74L797.699 673.49L796.799 673.62L796.139 673.99L795.899 674.62L796.229 675.48L797.489 675.22L798.349 676.35L798.019 677.79L795.699 678.47L795.349 678.33L792.939 677.85L792.749 677.97L792.029 677.29L789.719 672.1L789.319 671.45L788.579 670.81L786.969 670.03L786.339 669.51L785.959 668.62L785.739 667.6L785.329 666.78L784.379 666.47L781.929 669.51L785.649 671.09L786.869 671.45L786.289 671.81L785.859 671.95L785.429 671.84L784.869 671.45L784.679 671.97L784.489 672.36L784.359 672.82L784.379 673.49L783.489 672.87L781.819 671.38L780.949 670.77L780.189 670.46L779.749 670.54L779.529 670.97L779.469 671.73L779.229 672.31L778.669 672.19L777.469 671.45L777.129 671.5L776.749 671.67L776.369 671.63L775.999 671.04L776.209 670.59L776.909 670.28L777.439 669.91L777.219 669.24L776.629 668.01L776.859 666.94L777.339 665.97L777.469 665.02L777.239 664.23L777.019 664.12L776.669 664.2L773.799 663.16L772.399 662.82L770.179 661.85L769.129 661.54L767.759 661.34L766.909 661.42L766.749 662.04L767.399 663.51L767.759 664.63L767.749 665.9L767.379 667.1L766.639 667.97L766.049 665.78L766.019 664.85L763.719 666.29L761.209 668.21L749.609 674.83L746.609 675.93L744.769 678.36L744.309 681.48L743.069 684.31L743.099 686.27L744.949 687.86L745.339 690.47L743.649 693.04L741.279 695.26L738.349 693.7L736.249 688.58L735.099 687.81L734.079 686.5L731.699 679.81L726.189 676.28L724.429 676.33L722.619 676.63L720.789 678.69L718.569 679.77L716.259 679.63L715.459 681.31L714.729 684.38L711.549 685.02L710.659 683.07L710.189 680.77L707.829 680.27L704.919 681.49L698.969 684.82L695.629 685.93L690.079 688.48L688.109 689.93L686.779 691.42L681.769 691.84L678.979 691.04L676.899 689.58L674.449 689.5L672.189 690.6L665.759 691.1L646.679 699.02L642.229 703.54L638.699 708.89L636.179 710.59L623.609 711.49L625.859 726.35L630.819 743.61V743.63L631.379 743.64V743.52L631.609 743.31L631.969 743.14L632.409 743.13L632.529 743.31L632.909 743.99L633.139 744.13L633.839 744.36L635.249 745.4L636.099 745.63L636.929 745.49L638.509 744.83L639.229 744.63L642.539 745.15L645.119 746.94L649.079 751.13L651.629 752.44L657.319 753.88L659.419 755.11L659.459 755.13L661.249 752.91L668.319 748.09L669.939 746.04L671.089 745.05L673.229 744.47L674.679 743.79L675.459 743.64L676.319 743.73L677.869 744.1L678.669 744.13L679.979 743.43L682.839 740.69L683.789 740.09L685.279 739.71L686.549 738.83L688.469 737.14L690.889 736.58L700.279 736.59L702.769 736.1L704.979 735.09L706.669 735.43L709.589 737.03L711.109 737.59L713.009 737.62L714.819 737.07L716.489 736.15L730.569 724.81L731.709 724.19L732.939 723.78L738.469 723.36L750.519 720.71L752.329 719.94L759.519 714.96L766.929 711.78L768.299 711.06L777.269 704.01L779.279 703.26L780.119 702.44L781.469 700.66L785.709 696.43L788.429 694.39L793.079 692.76L795.649 690.91L797.939 688.61L799.079 686.49Z" fill="#CCCCCC" stroke="white" stroke-width="0.5"/>
<path d="M740.316 584.64L739.886 583.34L736.176 581.53L736.256 582.74L737.126 583.6L738.246 585.07L739.536 585.93L740.316 584.64ZM733.626 544.8L732.856 544.03L731.916 543.43L731.056 543.26L731.396 544.63L732.426 545.57L733.786 545.83L733.626 544.8ZM662.626 542.37L661.456 539.42L660.286 532.55L654.986 527.46L651.476 525.05L644.876 519.22L640.886 517.18L632.036 515.24L623.516 512.26L619.876 510.03L609.846 502.36L609.386 502.94L608.676 504.35L608.216 504.99L607.626 505.47L605.766 506.52L604.616 507.48L603.796 508.49L602.336 511.02L601.896 511.52L601.416 511.92L601.026 512.35L600.856 513L600.846 513.73L600.746 514.24L600.516 514.71L598.696 516.85L598.146 517.81L597.916 518.94L597.436 520.06L596.306 520.65L595.006 521.02L594.006 521.47L593.446 522.09L590.956 526.04L590.096 528.14L589.036 529.61L588.696 530.63L588.346 531.15L587.816 531.52L586.786 531.87L586.356 532.16L584.976 533.93L582.936 537.66L581.696 539.34L580.236 540.82L578.786 542.69L578.216 544.82L579.456 547.05L579.736 547.97L579.706 549.51L579.486 551.12L577.826 556.69L574.716 563.08L574.256 565.19L575.276 571.78L575.236 574.19L577.136 578.91L576.516 583.44L578.646 586.56L578.126 589.4L574.136 590.69L570.826 593.44L570.216 598.06L569.366 600.23L568.196 602.23L562.596 619.88L561.616 624.23L559.896 628.47L556.756 633L551.276 639.08L545.336 644.5L543.506 648.49L543.016 652.93L543.286 658.23L543.066 663.48L546.616 666.53L563.976 673.21L603.836 682.99L607.196 685.44L609.366 686.66L611.316 688.22L613.076 691.18L613.856 692.89L614.336 694.5L616.186 697.73L617.206 701.16L618.436 703.04L620.036 704.84L623.606 711.49L636.176 710.59L638.696 708.89L642.226 703.54L646.676 699.02L665.756 691.1L672.186 690.6L674.446 689.5L676.896 689.58L678.976 691.04L681.766 691.84L686.776 691.42L688.106 689.93L690.076 688.48L695.626 685.93L698.966 684.82L704.916 681.49L707.826 680.27L710.186 680.77L710.656 683.07L711.546 685.02L714.726 684.38L715.456 681.31L716.256 679.63L718.566 679.77L720.786 678.69L722.616 676.63L724.426 676.33L726.186 676.28L731.696 679.81L734.076 686.5L735.096 687.81L736.246 688.58L738.346 693.7L741.276 695.26L743.646 693.04L745.336 690.47L744.946 687.86L743.096 686.27L743.066 684.31L744.306 681.48L744.766 678.36L746.606 675.93L749.606 674.83L761.206 668.21L763.716 666.29L766.016 664.85L765.906 661.58L761.556 654.32L759.766 652.94L758.806 652.76L757.756 652.81L756.806 652.68L755.276 651.15L753.136 651.3L752.176 650.76L750.706 650.6L747.356 654.68L745.506 655.01L746.556 654.25L747.396 653.42L747.916 652.4L748.056 651.04L747.156 649.19L747.186 648.36L749.396 647.81L751.876 646.76L752.646 646.24L752.576 645.6L750.526 644.02L749.926 643.03L752.006 643.28L753.356 642.57L753.876 641.08L753.396 639.01L752.916 638.18L752.356 637.64L751.176 636.77L750.726 636.02L750.156 634.05L749.926 633.53L749.386 633.47L746.536 633.53L745.946 633.26L746.276 632.64L747.476 631.49L748.926 630.94L749.516 630.46L748.856 629.05L749.106 627.57L748.696 626.78L747.746 625.83L747.396 625.32L747.036 624.53L747.196 623.93L747.776 623.47L747.956 623.01L746.986 622.32L746.236 621.22L745.386 617.25L744.786 615.81L743.066 614.23L742.576 613.56L742.586 612.99L742.746 612.16L742.636 611.41L741.836 611.07L741.536 611L741.296 610.8L740.836 610.32L740.126 609.96L739.766 610.27L739.596 611.07L738.106 611.14L737.286 611.29L736.646 611.61L736.416 610.2L736.406 609.18L736.766 608.51L737.666 608.09L738.806 607.98L739.506 608.08L740.136 607.94L741.096 607.09L742.066 605.86L742.306 604.99L742.086 602.58L742.176 601.87L742.576 600.41V599.6L742.256 599.05L741.716 598.45L741.296 597.85L741.346 597.34L742.476 595.05L742.136 592.8L740.906 590.71L737.816 586.78L736.776 585.82L735.916 585.88L735.116 586.54L733.956 587.28L732.726 587.87L731.706 588.09L732.006 587.36V586.81L731.476 585.64L731.336 584.84L731.616 584.32L732.036 583.84L732.246 583.14L732.076 582.71L731.756 582.48L731.416 582.35L731.266 582.17L731.316 581.91L731.706 581.18L731.726 581.06L731.706 579.69L731.546 579.42L730.896 578.92L730.726 578.65L730.816 577.03L731.236 575.59L731.226 574.58L730.006 574.19L728.606 574.06L728.046 573.64L728.286 572.89L729.236 571.7L724.906 572.12L723.816 571.7L725.276 569.62L725.566 569.42L725.986 569.3L726.796 568.97L728.176 568.78L729.266 569.42L730.726 571.21L732.106 572.5L732.246 572.65L733.296 573.46L733.806 573.64L734.666 573.69L735.666 573.41L735.236 572.75L733.216 571.21L732.426 570.04L731.596 567.49L730.986 566.48L730.056 565.83L729.196 565.45L728.406 564.91L727.776 563.72L727.476 562.19L727.436 561.29L727.006 560.86L725.566 560.75L724.786 560.53L724.496 560.02L724.286 559.44L723.866 558.99L721.356 558.27L721.756 556.85L721.886 550.79L721.596 549.15L720.966 547.28L720.066 545.6L717.666 543.13L717.446 541.09L717.926 536.88L717.836 534.67L717.516 532.65L716.926 530.75L716.346 529.57L715.326 529.19L712.656 527.06L709.066 527.18L695.136 530.25L686.196 533.26L681.716 534.22L680.506 533.8L679.826 532.73L678.446 532.3L673.436 533.43L671.586 536.46L670.056 540.47L666.716 542.5L662.626 542.37Z" fill="#CCCCCC" stroke="white" stroke-width="0.5"/>
<path d="M414.538 428.29L411.658 427.41L408.678 427.06L405.698 426.31L402.948 426.06L401.858 427.12L400.548 427.95L399.118 428.51L397.888 429.45L394.828 431.19L392.178 433.33L391.358 440.33L388.678 445.41L367.548 449.83L363.928 454.19L364.048 456.45L362.638 457.62L359.288 458.11L355.938 457.96L352.718 456.78L349.428 456.75L346.958 459.48L344.748 462.59L338.818 466.63L332.518 470.16L334.368 471.4L335.528 472.74L334.498 474.75L333.068 476.48L331.098 481.13L329.458 483.94L327.508 486.53L326.198 489.21L325.578 492.16L326.618 494.27L329.368 494.64L362.768 492.95L366.458 493.25L377.088 495.78L379.738 497.64L382.798 498.65L402.238 501.76L402.958 503.95L402.698 505.82L404.598 506.15L408.058 505.86L411.318 507.03L413.288 509.05L411.558 511.41L408.418 513.86L404.468 515.04L402.728 517.19L400.138 523.2L398.258 526.35L395.718 528.3L392.688 529.33L390.058 531.79L388.018 534.93L386.518 537.94L387.658 540.89L389.198 543.15L390.358 545.63L389.518 550.37L399.688 553.47V557.12L416.908 563.19L416.108 576.16L422.918 581.03L429.718 581.43L434.968 579.68L434.098 576.84L434.368 571.67L433.708 570.2L432.408 569.59L432.308 568.44L434.138 565.76L434.048 562.53L432.868 559.6L433.228 556.39L438.988 556.21L445.548 558.1L453.768 559.5L454.928 561.19L455.268 567.35L456.808 568.67L457.678 565.38L457.568 561.92L460.238 552.67L462.368 550.63L469.018 547.54L474.118 542.95L476.808 535.42L481.748 529.23L487.308 524.04L493.588 520.19L496.258 520.76L498.568 520.18L502.738 519.54L503.978 517.42L503.518 514.98L503.128 513.79L503.028 512.55L503.068 511.61L503.178 510.84L505.438 508.67L510.668 504.65L516.978 502.32L523.738 502.99L530.068 504.87L535.508 503.29L538.128 496.86L541.368 490.79L546.518 486.03L550.048 481.38L548.548 481.03H547.808L547.568 480.99L546.498 480.53L542.898 480.19L542.308 480.21L541.328 480.56L540.338 481.06L539.218 481.24L537.898 480.66L537.368 480L537.208 479.23L537.488 476.96L537.428 476.7L537.238 476.44L536.828 476.11L536.308 475.87L535.248 475.63L533.388 475.42L531.958 474.83L530.278 474.46L529.988 474.28L529.318 473.43L528.078 472.41L526.558 471.78L523.288 471.01L522.348 470.9L520.748 471.19L519.778 471.24L517.668 470.29L516.428 468.16L514.828 460.85L514.448 459.1L513.988 458.07L512.768 457.27L511.048 456.92L507.718 456.96L505.788 457.59L504.838 457.71L503.938 457.24L503.678 456.69L503.478 455.27L503.198 454.7L502.798 454.16L501.978 452.48L501.438 451.95L500.338 451.27L499.978 450.95L499.318 449.47L498.818 447.83L497.968 446.51L496.298 445.96L494.908 445.73L488.418 443.14L487.448 443.04L485.878 443.13L485.058 443.06L484.488 442.77L483.448 442.49L479.298 443.5L477.798 443.22L474.958 442.23L473.708 442.01L472.638 441.54L471.358 440.7L470.628 440.53L464.308 438.97L462.008 439.14L459.468 438.93L454.338 436.1L450.888 434.83L447.428 434.45L446.398 433.84L446.418 432.7L445.518 431.24L443.908 430.37L440.538 429.21L437.098 428.91L434.688 429.31H432.258L430.208 429.84L428.738 431.39L421.508 432.52L414.538 428.29Z" fill="#CCCCCC" stroke="white" stroke-width="0.5"/>
<path d="M542.389 361.94L537.399 360.48L532.589 358.59L529.009 355.43L526.409 351.37L524.339 347.17L521.459 343.66L516.839 341.47L512.469 338.78L509.949 335.5L507.889 331.89L504.539 328.55L500.809 325.56L498.059 322.66L497.099 319.35L498.339 315.3L497.559 310.75L499.119 306.89L501.399 303.34L502.939 298.28L505.589 280.95L506.419 266.3L506.029 263.95L504.369 260.28L503.209 256.34L502.509 252.3L502.009 230.94L484.049 236.02L481.919 237.65L480.149 238.69L479.339 239.28L477.139 242.94L473.579 242.85L471.819 244.06L470.089 244.92L468.879 244.24L467.629 243.73L466.469 244.54L465.709 245.77L462.619 248.73L456.969 252.62L455.389 252.01L454.739 252.38L454.409 253.65L454.539 254.86L454.939 256.01L456.209 258.56L455.529 261.31L451.889 267.08L446.949 277.12L445.369 279.68L441.619 280.31L435.049 279.7L434.169 279.28L433.209 279.17L433.499 281.71L432.309 284.11L431.659 285.98L414.149 298L413.769 300.4L415.239 302.82L415.469 305.5L415.399 308.19L416.319 311.11L417.619 313.94L418.759 318.83L420.419 321.23L422.369 323.33L423.259 325.6L424.529 327.7L425.599 328.39L426.369 329.31L426.879 329.76L427.559 329.92L427.869 331.09L428.039 332.48L429.849 335.48L432.239 338.06L433.039 340.15L431.559 341.97L429.329 343.92L428.969 346.83L428.269 349.59L426.429 352.3L423.869 358.31L423.609 366.69L422.049 373.18L422.639 379.46L424.099 382.01L424.769 384.86L424.739 387.46L423.549 389.76L422.799 396.25L424.069 408.63L422.089 413.45L413.039 413.87L414.199 420.6L414.539 428.29L421.509 432.52L428.739 431.39L430.209 429.84L432.259 429.31H434.689L437.099 428.91L440.539 429.21L443.909 430.37L445.519 431.24L446.419 432.7L446.399 433.84L447.429 434.45L450.889 434.83L454.339 436.1L459.469 438.93L462.009 439.14L464.309 438.97L470.629 440.53L471.359 440.7L472.639 441.54L473.709 442.01L474.959 442.23L477.799 443.22L479.299 443.5L483.449 442.49L484.489 442.77L485.059 443.06L485.879 443.13L487.449 443.04L488.419 443.14L494.909 445.73L496.299 445.96L497.969 446.51L498.819 447.83L499.319 449.47L499.979 450.95L500.339 451.27L501.439 451.95L501.979 452.48L502.799 454.16L503.199 454.7L503.479 455.27L503.679 456.69L503.939 457.24L504.839 457.71L505.789 457.59L507.719 456.96L511.049 456.92L512.769 457.27L513.989 458.07L514.449 459.1L514.829 460.85L517.479 458.09L518.019 454.71L517.129 451.22L516.679 447.67L517.579 444.4L520.649 437.96L526.539 434.3L526.899 431.06L526.529 418.06L528.229 412.69L529.329 411.11L529.289 409.31L528.479 408.15L528.689 407L529.709 407.29L530.719 407.44L531.539 406.14L531.969 404.61L533.479 401L535.249 393.93L538.209 392.46L542.089 386.59L540.139 369.57L540.249 365.43L542.389 361.94Z" fill="#CCCCCC" stroke="white" stroke-width="0.5"/>
<path d="M715.597 364.23L712.997 364L710.387 364.22L710.127 364.21L710.617 365.86L711.197 370.03L708.617 373.18L709.257 374.48L710.167 377.73L710.847 378.86L714.467 383.05L714.637 383.35L714.877 383.62L715.527 384.04L716.197 384.33L716.467 384.29L716.577 384.13L716.757 384.04L715.987 383.2L715.727 381.58L716.037 380.45L716.997 381.12L716.927 380.72L716.987 380.41L716.927 380.2L716.507 380.13V379.6L717.487 379.07L718.037 379.53L717.957 379.09L717.747 377.6L716.487 376.27L715.757 374.63L715.627 372.79L716.067 367.12L715.707 365.69L715.597 364.23Z" fill="#CCCCCC" stroke="white" stroke-width="0.5"/>
<path d="M712.991 351.39V349.96L712.551 349.02L713.041 348.28L712.451 347.39L712.101 346.11L712.151 345.12L711.311 345.72L711.511 347.2L711.311 349.22L711.161 350.5L711.311 351.54L712.101 351.59L712.991 351.39ZM721.581 355.43L721.361 354.32L721.381 353.2L721.891 350.16L721.461 347.62L719.261 343.66L718.421 341.46L717.111 342.77L716.611 348.1L716.021 350.38L714.841 351.76L712.271 353.9L711.071 355.85L710.861 355.45L710.311 354.71L710.091 354.32L709.791 354.86L709.591 355.59L709.521 356.44L709.601 357.32L709.281 361.37L710.131 364.21L710.391 364.22L713.001 364L715.601 364.23L720.811 363.88L723.561 362.06L723.961 361.82V361.81L722.661 359.68L722.341 358.55L722.211 357.49L721.581 355.43Z" fill="#CCCCCC" stroke="white" stroke-width="0.5"/>
<path d="M749.702 511.21L752.692 507.88L753.462 506.94L753.122 505.91L751.502 505.83L749.192 506.09L747.232 508.48L746.372 510.01L745.952 511.89L746.372 513.09L747.572 513.17L749.702 511.21ZM760.062 488.64L761.202 483.76L761.322 481.42L760.222 480.2L760.082 480.93L759.352 482.79L759.002 483.17L758.362 483.57L757.652 484.52L757.072 485.59L756.582 487.45L755.922 488.02L754.382 488.66L753.072 489.58L752.312 489.98L751.452 490.19V490.64L753.302 490.44L753.982 490.55L754.382 491.13L753.152 491.38L750.912 492.42L749.712 492.67L748.402 492.65L747.272 492.81L746.452 493.37L746.052 494.59L746.712 495.4L745.672 497.06L742.582 500.07L742.172 500.2L741.682 500.17L741.272 500.3L741.102 500.85L741.002 500.86L740.772 501.34L740.582 501.85L740.572 502.06L739.962 502.3L738.742 502.35L738.072 502.51L739.232 503.39L741.132 505.43L742.582 506.02L743.772 505.98L745.222 505.65L748.062 504.53L748.752 503.55L749.182 501.89L750.102 500.32L752.182 499.64L754.172 500.23H755.022L755.372 499.36L755.502 498.85L756.132 498L756.342 497.61L756.832 496.12L756.932 495.65L756.912 495.19L757.062 494.65L758.012 493.34L760.062 488.64ZM634.672 351.54L629.552 351.13L627.702 352.03L625.622 352.37L620.752 351.25L609.872 354.18L613.272 356.77L615.442 360.47L615.562 362.54L616.022 364.52L617.312 365.89L619.262 370.11L621.092 372.5L621.932 374.23L622.992 375.79L624.912 376.39L626.562 376.68L625.522 376.88L625.052 377.51L626.912 378.4L628.212 379.97L628.442 385.79L626.952 396.84L625.132 401.09L623.822 402.53L623.752 404.12L623.482 404.07L624.182 405.25L625.112 406.43L625.792 408.07L627.112 408.67L629.182 408.96L631.262 410.01L638.452 412.71L640.152 412.9L641.822 412.6L642.512 412L643.302 411.61L644.662 411.5L645.932 411.77L647.162 417.2L645.322 421.5L644.652 425.75L647.452 429.77L649.022 429.71L650.302 430.51L650.982 431.18L651.842 431.57L652.972 431.29L654.062 430.86L655.522 431.16L656.622 431.9L658.442 431.76L659.782 432.83L660.022 435.39L660.722 436.21L661.142 437.15L659.342 440.82L656.752 444.07L655.162 447.14L652.312 447.48L649.642 449.1L647.602 451.76L645.852 457.13L648.962 466.12L650.382 469.19L649.992 471.82L638.432 473.81L634.932 475.03L631.332 475.71L628.822 475.08L626.202 474.79L619.812 476.02L617.052 476.97L614.912 478.9L614.332 482.53L614.352 486.32L613.572 489.72L613.732 493.25L613.422 493.58L613.012 494.19L612.742 494.79L612.482 494.92L612.232 495.17L611.812 495.7L611.602 496.1L610.812 499.17L610.632 500.83L610.422 501.64L609.852 502.36L619.882 510.03L623.522 512.26L632.042 515.24L640.892 517.18L644.882 519.22L651.482 525.05L654.992 527.46L660.292 532.55L661.462 539.42L662.632 542.37L666.722 542.5L670.062 540.47L671.592 536.46L673.442 533.43L678.452 532.3L679.832 532.73L680.512 533.8L681.722 534.22L686.202 533.26L695.142 530.25L709.072 527.18L712.662 527.06L715.332 529.19L716.352 529.57L716.022 528.89L717.092 528.5L717.602 527.86L717.572 527.01L717.002 525.96L717.692 526.16L718.282 526.61L719.452 527.9L719.882 526.54L719.902 525.96L720.922 526.41L720.722 525.13L720.892 522.53L720.392 521.46L720.952 521.36L721.182 521.24L721.402 521.22L721.892 521.46L722.942 519.48L725.332 512.95L727.642 509.27L728.542 507.22L728.762 504.99L728.402 505.34L727.292 506.02L726.982 504.72L726.912 501.89L726.142 499.36L726.232 498.47L727.292 496.12L727.762 494.33L727.532 493.31L725.572 491.4L724.312 490.51L723.092 490.37L720.392 490.64L721.532 489.56L721.422 488.53L720.562 487.54L719.452 486.63L718.842 488.96L717.822 491.37L716.252 493.17L714.052 493.66L717.252 489.91L717.602 488.64L716.512 485.99L716.762 484.96L717.182 483.88L716.942 482.52L716.022 480.2L715.722 478.7L715.642 477.22L716.902 469.24L717.742 466.5L719.642 464.75L720.402 463.42L721.042 461.94L721.362 460.88L721.352 459.32L720.862 458.4L720.152 457.59L719.452 456.42L720.332 456.37L721.472 456.44L722.472 456.25L722.892 455.43L722.692 454.87L722.372 454.23L722.302 453.68L722.862 453.46L723.462 453.39L723.912 453.21L724.842 452.47L725.672 451.48L725.982 450.41L726.152 449.25L726.562 447.96L727.132 447.19L727.082 447.14L726.252 446.02L725.292 446.32L725.182 436.06L723.612 433.47L721.612 431.17L719.752 430.63L717.962 430.38L716.922 430.49L716.002 430.4L713.592 430.68L711.952 433.08L710.822 433.18L709.782 433.03L709.152 434.3L708.062 435.23L706.772 434.79L705.672 434.28L704.212 435.4L703.242 437.03L701.582 438.09L700.102 436.7L698.722 437.19L697.872 436.41L698.742 434.69L700.012 433.16L700.382 431.42L701.232 429.93L702.662 429.08L703.442 427.71L702.802 426.16L702.432 424.72L700.402 423.44L699.862 420.94L699.832 419.56L698.922 418.78L697.192 418.67L697.362 417.59L699.382 415.03L700.302 411.88L700.652 408.37L701.972 405.16L703.292 404.04L704.522 402.65L705.022 402.18V402.17L702.822 399.51L698.852 395.74L697.352 395.07L695.302 394.43L696.712 395.37L697.872 395.83L698.492 396.1L698.562 396.68L697.792 396.96L697.062 396.68L696.282 396.23L694.292 396.13L693.382 395.96L693.052 395.62L692.852 395.12L692.602 394.65L692.112 394.43L691.172 394.39L690.812 394.24L690.392 393.94L689.822 393.32L689.352 392.58L689.032 391.76L688.922 390.99L688.612 390.29L687.872 389.79L686.992 389.34L686.212 388.77L685.312 386.97L685.062 382.92L684.512 381.12L685.362 380.07L685.872 378.51L686.042 376.77L685.762 374.05L685.632 373.6L684.512 372.65L682.932 371.63L682.512 371.22L682.212 370.5L681.532 367.72L681.212 367.24L680.322 366.21L680.052 365.74L679.982 364L680.512 362.42L681.192 360.96L681.582 359.12L675.582 358.12L674.412 359.06L672.972 359.54L671.982 359.35L670.992 359.46L669.692 360.81L668.122 361.31L664.002 363.1L663.062 362.58L662.032 362.84L660.572 362.85L659.302 362.35L658.502 362.87L657.782 363.48L655.382 362.97L654.162 362.24L653.072 361.15L650.782 361.28L648.812 360.44L646.932 357.8L643.872 357L641.192 356.02L639.172 353.79L634.672 351.54Z" fill="#CCCCCC" stroke="white" stroke-width="0.5"/>
<path d="M743.286 323.97L743.446 323.09L742.736 322.17L741.646 321.87L740.506 321.45L739.666 320.15L738.906 319.1L737.856 318.43L737.226 318.1L736.766 318.94L737.526 319.99L738.366 320.87L738.996 321.79L740.086 323.09L741.356 324.1L743.286 323.97ZM752.556 303.89L752.316 302.88L752.556 301.86L751.956 301.03L749.886 300.97L749.226 301.32L749.486 302.51L748.946 303.9L749.476 304.44L748.146 304.48L745.706 304.12L745.016 303.9L744.336 304.24L743.856 304.1L743.346 303.73L742.576 303.41L743.106 304.34L743.926 305.08L744.796 305.35L745.506 304.89L748.776 306.95L750.526 307.45L751.976 306.91L751.486 308.36L750.776 308.57L749.476 307.89L748.346 307.95L746.626 308.4L745.506 308.39L745.956 309.01L746.536 309.41L747.236 309.68L748.056 309.87L747.356 310.53L746.086 310.75L744.676 310.65L743.556 310.36L743.966 311.47L745.466 313.32L746.046 314.34L743.516 313.9L742.616 314.05L743.066 314.83L742.396 315.83L742.116 316.98L742.086 319.5L742.506 320.48L743.546 320.82L746.046 320.73L746.556 321.59L747.146 321.47L747.916 320.99L748.946 320.73V321.27L748.306 321.67L748.056 322.13L748.256 322.4L748.946 322.21L749.956 321.57L750.766 320.82L751.146 320.02L750.906 319.25L751.246 318.88L751.496 318.46L751.976 317.28H752.376L752.016 318.57L752.436 319.15L753.066 318.98L753.396 318.03L753.426 316.81L753.526 316.36L753.826 316.05L754.376 315.28L756.506 308.9L757.366 307.89L756.826 307.35L757.346 306.19L757.366 302.8L755.346 303.47L753.976 304.19L752.556 303.89Z" fill="#CCCCCC" stroke="white" stroke-width="0.5"/>
<path d="M757.37 302.8V301.94L757.86 299.18L757.74 297.91L756.83 297.51L756.72 297.87L756.84 298.57L756.79 299.26L756.13 299.56L756.06 299.18L755.37 297.02L755.6 295.65L756.04 294.24L756.27 292.84L755.91 291.56L756.88 291.08L758.16 290.07L758.97 288.77L758.15 286.07L758.34 284.35V282.88L757.37 282.25L757.51 283.19L757.35 284.55L756.93 285.99L756.34 287.17L756.24 286.76L755.99 286.22L755.91 285.7L755.06 286.57L755.05 287.37L755.32 288.07L755.37 288.65L754.9 289.21L754.6 288.95L754.43 288.22L754.38 287.4L753.78 286.83L750.46 284.93L750.22 284.6L749.06 283.44L748.7 283.19L748.26 283.47L748.1 284.07L747.84 284.6L747.04 284.71L746.97 284.39L746.73 283.7L746.34 283.02L745.78 282.7L745.57 282.63L745.36 282.42L745.19 282.12L745.03 281.75L744.94 282.85L744.5 284.86L744.54 285.7L745.35 286.68L746.51 287.31L747.32 287.98L747.04 289.14L745.79 288.39L744.82 288.73L744.43 289.78L745.02 291.11L746.05 290.62L745.74 291.36L744.75 292.17L744.54 292.85L746.87 293.74L747.48 294.11L747.94 294.83L748 295.46L747.61 295.7L746.77 295.3L746.22 295.36L745.85 296.13L745.76 297.15L746.05 298L745.78 298.44L745.67 298.76L745.51 299.56L746.36 299.1L747.08 299.13L747.64 299.48L748.06 300.01L747.86 300.48L747.48 301.94L748.45 300.94L749.23 301.32L749.89 300.97L751.96 301.03L752.56 301.86L752.32 302.88L752.56 303.89L753.98 304.19L755.35 303.47L757.37 302.8Z" fill="#CCCCCC" stroke="white" stroke-width="0.5"/>
<path d="M584.162 348.51L583.253 348.17L583.062 347.65L582.672 347.35L580.383 346.58L579.302 348.5L577.992 356.79L575.682 358.86L573.083 359.92L570.812 362.69L567.763 364.96L566.342 367.87L564.422 369.79L562.503 368.52L560.883 366.79L560.893 366.11L560.633 365.64L560.362 363.75L561.842 361.63L559.932 360.99L557.773 359.87L556.682 352.25L546.232 360.68L542.393 361.94L540.253 365.43L540.143 369.57L542.092 386.59L538.212 392.46L535.253 393.93L533.482 401L531.972 404.61L531.542 406.14L530.722 407.44L529.712 407.29L528.693 407L528.482 408.15L529.292 409.31L529.333 411.11L528.232 412.69L526.532 418.06L526.902 431.06L526.542 434.3L520.652 437.96L517.583 444.4L516.682 447.67L517.133 451.22L518.023 454.71L517.482 458.09L514.833 460.85L516.432 468.16L517.672 470.29L519.782 471.24L520.753 471.19L522.352 470.9L523.292 471.01L526.562 471.78L528.083 472.41L529.323 473.43L529.992 474.28L530.282 474.46L531.962 474.83L533.393 475.42L535.253 475.63L536.312 475.87L536.833 476.11L537.242 476.44L537.432 476.7L537.492 476.96L537.212 479.23L537.372 480L537.902 480.66L539.222 481.24L540.342 481.06L541.333 480.56L542.312 480.21L542.902 480.19L546.503 480.53L547.573 480.99L547.812 481.03H548.552L550.052 481.38L546.523 486.03L541.372 490.79L538.133 496.86L535.513 503.29L530.073 504.87L523.742 502.99L516.982 502.32L510.672 504.65L505.443 508.67L503.182 510.84L503.072 511.61L503.033 512.55L503.133 513.79L503.522 514.98L503.982 517.42L502.742 519.54L498.572 520.18L496.262 520.76L493.592 520.19L487.312 524.04L481.753 529.23L476.812 535.42L474.122 542.95L469.022 547.54L462.372 550.63L460.242 552.67L457.572 561.92L457.682 565.38L456.812 568.67L455.272 567.35L454.932 561.19L453.772 559.5L445.552 558.1L438.992 556.21L433.232 556.39L432.872 559.6L434.052 562.53L434.142 565.76L432.312 568.44L432.413 569.59L433.712 570.2L434.372 571.67L434.102 576.84L434.973 579.68L436.322 579.03L437.522 578.02L439.062 578.76L443.982 586.29L457.572 597.01L458.562 600.32L458.772 603.78L461.682 603.08L464.482 601.99L468.723 598L473.332 592.78L473.582 593.47L473.112 594.15L473.133 595.35L473.462 596.83L473.712 602.01L474.522 604.57L475.762 606.99L474.652 610.65L471.742 613.31L470.652 615.55L470.362 617.85L471.033 619.39L470.533 620.92L468.062 623.99L464.892 629.03L463.512 630.18L461.922 630.27L460.772 631.22L460.312 635.64L463.432 638.06L473.432 637.69L476.022 638.07L478.562 637.9L479.762 636.38L480.422 634.41L483.672 631.56L486.832 630.65L486.622 631.58L487.152 632.13L487.812 631.94L488.193 632.56L490.112 633.71L496.372 632.09L500.753 632.83L506.693 631.98L507.112 631.65L508.962 629.7L512.142 625.18L512.782 623.36L512.753 620.09L514.242 619.67L515.052 619.26L515.982 621.3L515.912 623.67L518.143 629.21L521.042 634.52L518.792 640.41L514.883 645.55L516.693 649.01L521.573 648.88L528.212 645.21L533.982 640.17L538.122 635.21L542.893 630.9L548.552 627.3L550.862 626.26L557.253 621.46L562.602 619.88L568.203 602.23L569.372 600.23L570.222 598.06L570.833 593.44L574.143 590.69L578.133 589.4L578.652 586.56L576.523 583.44L577.143 578.91L575.242 574.19L575.282 571.78L574.263 565.19L574.722 563.08L577.833 556.69L579.492 551.12L579.712 549.51L579.742 547.97L579.462 547.05L578.222 544.82L578.792 542.69L580.242 540.82L581.703 539.34L582.943 537.66L584.982 533.93L586.362 532.16L586.792 531.87L587.823 531.52L588.352 531.15L588.703 530.63L589.042 529.61L590.102 528.14L590.962 526.04L593.453 522.09L594.013 521.47L595.013 521.02L596.312 520.65L597.443 520.06L597.922 518.94L598.152 517.81L598.703 516.85L600.523 514.71L600.753 514.24L600.852 513.73L600.862 513L601.032 512.35L601.422 511.92L601.902 511.52L602.342 511.02L603.802 508.49L604.622 507.48L605.773 506.52L607.633 505.47L608.222 504.99L608.682 504.35L609.393 502.94L609.852 502.36L610.422 501.64L610.633 500.83L610.812 499.17L611.602 496.1L611.812 495.7L612.232 495.17L612.482 494.92L612.742 494.79L613.013 494.19L613.422 493.58L613.732 493.25L613.573 489.72L614.352 486.32L614.333 482.53L614.912 478.9L617.052 476.97L619.812 476.02L626.203 474.79L628.823 475.08L631.333 475.71L634.932 475.03L638.432 473.81L649.992 471.82L650.383 469.19L648.962 466.12L645.852 457.13L647.602 451.76L649.643 449.1L652.312 447.48L655.162 447.14L656.753 444.07L659.342 440.82L661.143 437.15L660.722 436.21L660.023 435.39L659.782 432.83L658.443 431.76L656.622 431.9L655.523 431.16L654.062 430.86L652.972 431.29L651.842 431.57L650.982 431.18L650.302 430.51L649.023 429.71L647.453 429.77L644.652 425.75L645.323 421.5L647.162 417.2L645.932 411.77L644.662 411.5L643.302 411.61L642.513 412L641.823 412.6L640.152 412.9L638.453 412.71L631.263 410.01L629.182 408.96L627.112 408.67L625.792 408.07L625.112 406.43L624.182 405.25L623.482 404.07L623.753 404.12L623.823 402.53L625.133 401.09L626.953 396.84L628.443 385.79L628.212 379.97L626.912 378.4L625.052 377.51L625.523 376.88L626.562 376.68L624.912 376.39L622.992 375.79L621.932 374.23L621.092 372.5L619.263 370.11L617.312 365.89L616.023 364.52L615.562 362.54L615.443 360.47L613.273 356.77L609.872 354.18L608.712 355.24L606.992 354.72L605.922 355.63L606.013 357.65L603.112 358.58L599.352 358.38L597.412 360.35L595.682 358.86L591.023 353.51L590.182 350.19L587.753 349.18L586.503 349.04L585.273 348.39L584.162 348.51Z" fill="#CCCCCC" stroke="white" stroke-width="0.5"/>
<path d="M727.128 447.19L727.207 447.09L730.227 444.97L730.467 446.2L730.977 446.85L731.657 446.86L732.457 446.23L732.878 445.38L733.427 443.42L734.147 442.5L735.227 442.6L735.297 440.69L734.688 436.08L734.857 435.62L735.237 435.24L735.587 434.8L735.667 434.1L735.438 433.6L732.008 429.04L731.407 426.91L730.078 425.16L729.777 424.16L729.268 423.75L726.638 423.78L725.568 423.4L724.667 422.9L722.497 422.7L721.397 422.41L719.357 421.17L718.318 420.76L716.997 420.68L717.318 421.27L717.438 421.83L717.487 423.15L716.037 421.79L715.997 419.23L716.337 416.41L716.018 414.31L714.857 415.56L713.568 414.6L712.497 412.62L712.047 410.82L711.948 409.9L711.667 408.96L711.188 408.14L710.578 407.61L709.357 406.87L708.717 406.21L707.638 404.35L707.078 403.73L705.188 402.37L705.018 402.17V402.18L704.518 402.65L703.287 404.04L701.967 405.16L700.647 408.37L700.297 411.88L699.378 415.03L697.357 417.59L697.188 418.67L698.917 418.78L699.828 419.56L699.857 420.94L700.397 423.44L702.427 424.72L702.797 426.16L703.438 427.71L702.657 429.08L701.227 429.93L700.378 431.42L700.008 433.16L698.737 434.69L697.867 436.41L698.717 437.19L700.097 436.7L701.578 438.09L703.237 437.03L704.207 435.4L705.667 434.28L706.768 434.79L708.057 435.23L709.147 434.3L709.777 433.03L710.818 433.18L711.948 433.08L713.587 430.68L715.997 430.4L716.917 430.49L717.957 430.38L719.747 430.63L721.607 431.17L723.607 433.47L725.177 436.06L725.287 446.32L726.247 446.02L727.078 447.14L727.128 447.19Z" fill="#CCCCCC" stroke="white" stroke-width="0.5"/>
<path d="M123.3 160.82L122.42 160.81L121.79 160.06L121.93 156.08L124.65 151.88L126.65 146.72L126.5 141.29L126.16 140.74L125.58 140.49L125.04 139.62L124.96 138.5L123.28 135.31L120.26 134.11L113.2 140.54L111.87 142.4L110.43 144.02L108.54 145.02L108.32 145.41L106.1 147.97L105.63 149.11L105.98 150.17L107.75 151.83L108.46 152.83L108.47 153.21L108.13 154.17L108.07 154.58L108.32 155.12L109.26 155.81L109.55 156.32L109.63 157.23L109.5 158.13L108.88 159.84L107.86 161.29L107.9 161.82L108.22 163.1L108.25 163.52L107.17 165.45L105.44 166.63L103.45 166.85L101.55 165.91L101.33 166.76L100.87 167.41L100.17 167.8L99.29 167.92L97.32 168.66L95.74 169.64L94.38 170.9L93.06 172.49L93.56 172.77L95.73 173.95L95.64 175.87L93.75 177.7L90.39 179.27L89.45 180.38L88.88 180.88L88.39 181.06L86.47 181.5L86.36 181.67L86.24 182.3L86.16 182.46L84.79 182.57L84.75 182.43L84.61 182.42L83.42 182.6L83.23 182.82L82.97 183.67L82.79 183.96L80.79 185.39L80.4 186.25L80.57 187.7L80.54 189.01L80 190.35L77.04 195.01L76.54 196.31V196.36L76.46 197.7L76.76 198.91L77.17 200.02L77.39 201.14L77.15 202.4L73.95 201.36L72.13 202.52L69.37 207.29L65.6 211.16L64.74 212.63L63.49 217.82L62.38 220.51L62.19 220.97L60.5 223.89L58.34 226.53L53.45 230.6L52.7 231.67L50.87 236.06L49.97 237.21L48.37 238.11L47.64 238.7L45.18 240.1L42.61 242.52L38.79 244.31L38.16 244.53L36.96 244.32L36.18 243.93L35.42 243.83L34.25 244.55L34.12 244.8L33.97 245.98L33.6 246.59L32.37 247.17L31.92 247.59L31.65 248.61L31.62 249.54L31.4 250.35L30.57 250.99L30.24 250.87L27.31 250.64L23.78 249.8L6.97 250.02L7.2 250.94L7.46 253.8L6.77 259.89L2.42 271.76L1 277.86L1.2 283.9L2.57 289.65L2.67 290.09L5.08 295.96L10.67 306.23L13.59 317.89L20.57 334.38L21.93 340.45L21.25 346.02L18.94 350.09L13.57 357.36L12.14 361.94L12.32 364.8L14.49 372.88L15.68 381.5L16.56 384.34L18.59 387.75L23.47 394.06L27.09 403.79L28.72 406.52L30.99 408.91L40.64 416.27L47.53 419.8L50.09 418.05L67.19 403.73L69.04 401.22L71.18 394.88L77.98 390.21L77.73 386.94L76.46 384.01L77.21 379.5L74.9 376.86L71.58 374.85L69.36 368.63L65.03 360.56L62.98 354.64L58.28 327.17L55.53 320.94L49.01 315.4L50.28 313.78L65.63 313.6L69.15 312.78L71.99 310.34L76.63 305.08L79.1 303.36L98.89 303.24L102.16 303.45L104.44 304.89L105.42 306.47L105.91 306.91L106.37 306.99L107.43 306.85L107.91 306.91L109.69 308.16L111.81 311.18L113.35 312.37L114.43 311.38L115.99 308.5L117.24 307.89L118.48 308.43L118.92 309.72L119.19 312.81L119.58 313.67L120.09 314.23L120.64 314.7L121.19 315.28L122.06 317.07L122.37 317.54L123.6 318.83L124.27 319.76L126.01 325.61L131.57 324.12L136.74 322.95L138.08 320.44L135.4 309L136.03 300.68L139.52 290.96L139.21 289.03L138.35 287.91L137.89 286.71L138.34 286.47L141.91 283.74L143.56 283.19L144.06 282.87L144.38 282.39L144.66 281.25L144.94 280.77L146.22 279.97L149.52 278.42L150.1 277.55L149.32 270.01L149.69 268.73L151.04 267.8L155.04 266.3L155.68 265.59L156.79 262.31L155.51 256.85L154.85 251.46L153.98 249.69L151.99 249.89L151.49 246.63L151.46 243.29L149.08 239.51L147.55 235.78L147.32 234.51L146.46 233.44L146.17 231.16L145.58 228.95L145.78 225.4L148.16 218.75L148.56 215.25L147.3 209.37L142.96 199.82L138.93 195.98L137.19 191.47L137.03 186.53L136.37 184.05L136.06 181.77L136.29 179.1L135.06 176.66L134.96 176.47V176.49L133.42 174.19L132.1 171.71L130.27 166.71L129.46 161.53L125.69 158.74L124.33 159.6L123.3 160.82Z" fill="#CCCCCC" stroke="white" stroke-width="0.5"/>
<path d="M105.554 1L102.844 2.41L100.124 3.27L99.0837 3.81L96.5137 6.53L95.6038 7.29L93.8737 6.74L92.3138 6.57L88.6937 6.91L87.3538 7.22L86.4938 7.29L86.0837 7.1L85.7138 6.7L85.1838 6.34L84.2938 6.26L83.7138 6.73L83.6237 6.82L83.0537 7.41L82.5038 8.2L82.2738 9.01L82.5137 9.78L83.5638 10.5L83.8037 11.48L83.6438 11.9L83.3737 12.31L83.1838 12.74L83.3037 13.17L83.9338 13.59L84.5038 13.51L84.9738 13.25L85.2738 13.17L86.1538 13.81L86.4538 14.26L86.7337 16.11L87.1738 17.16L88.4837 19.32L88.9038 20.79L89.5738 21.65L89.7138 22.24L89.6438 22.46L89.4837 22.78L89.3138 23.2L89.2438 23.73L89.6237 24.88L90.5537 25.58L92.6637 26.46L93.4238 26.99L94.5038 28.02L95.1637 28.42L99.9038 30.18L101.314 30.38L102.704 31.22L103.114 33.1L102.984 34.97L102.764 35.82L102.374 36.23L102.804 37.17L103.994 38.76L104.884 39.71L105.204 40.26L105.894 42.84L106.584 44.46L107.714 45.34L109.414 44.69L109.944 46.21L109.884 48.06L108.954 53.72L108.934 54.49L109.094 54.86L109.734 55.84L109.914 56.51L109.084 58.48L109.344 59.24L109.914 62.12L109.524 63.34L108.784 64.41L108.384 65.52L108.934 66.8L107.764 67.72L107.334 68.18L106.974 68.76L109.124 69.1L109.344 71.01L108.394 75.19L109.734 74.9L111.034 75.54L112.124 76.64L112.894 77.68L113.494 79.77L111.024 87.76L110.404 90.93L110.704 95.84L110.404 97.31L109.664 98.65L108.724 99.33L107.524 99.86L106.414 100.5L105.404 100.74L104.884 101.04L104.234 101.22L103.654 101.08L99.9038 99.23L99.1338 98.98L98.2038 99.11L97.3838 99.76L96.3538 101.69L95.5537 102.36L94.0438 102.45L92.4938 102L90.9638 101.81L89.5738 102.62L87.1937 105.62L86.2337 107.14L83.5137 113.77L82.9238 116.05L82.6138 116.81L81.9238 117.71L80.2038 119.34L79.6237 120.23L79.3438 122L80.1438 122.77L81.5338 122.78L83.0537 122.28L85.6237 121.11L87.2738 120.5L86.8138 121.86L82.6838 126.2L82.1038 127.14L81.8638 128.26L81.8438 130.08L80.2738 132.2L79.4538 133.8L79.6038 135.04L81.4038 137.37L82.4938 138.39L83.8037 138.75L83.4738 139.54L83.8938 140.11L84.5137 140.72L84.8138 141.62L84.8238 141.65L85.1738 141.48L86.5938 139.52L87.4437 138.81L88.4437 138.44L89.0238 138.54L93.6937 141.33L94.6438 141.73L94.9538 141.94L95.1338 142.38L95.3337 143.55L95.5338 143.87L96.4837 144.08L97.2337 143.89L97.9538 143.61L98.8438 143.55L99.7238 143.87L101.364 144.95L102.314 145.23L103.994 145.09L107.344 144.15L109.024 144.16L108.544 145.02L110.434 144.02L111.874 142.4L113.204 140.54L120.264 134.11L119.394 129.57L115.854 126.54L112.574 123L115.094 115.92L122.924 112.13L133.534 93.93L135.804 94.44L140.604 93.68L144.394 92.41L147.674 92.92L162.074 99.24L167.044 99.44L170.654 95.7L173.804 94.19L173.824 93.46L174.344 92.92L174.774 91.6L174.654 90.17L174.224 88.08L175.144 86.8L180.324 86.26L184.524 84.47L243.884 35.68L245.204 2.2H232.174H219.024H205.884H192.734H192.354H179.594H166.444H153.304H141.694H140.154H127.014H113.864H109.234L108.084 1.64L105.554 1Z" fill="#CCCCCC" stroke="white" stroke-width="0.5"/>
<path d="M313.659 212.84L312.229 211.73L311.909 209.89L307.889 208.97L303.749 210.02L301.769 210.73H296.889L292.879 209.69L284.579 211.69L278.209 214.71L274.379 214.89L270.089 214.53L266.839 211.8L263.919 210.82L260.469 212.31L255.349 211.2L254.109 211.83L253.089 212.87L248.469 214.87L244.529 216.17L245.319 220.29L244.259 224.23L242.539 224.5L241.729 225.81L240.499 226.9L239.979 228.16L241.219 229.63L242.669 230.9L245.879 232L244.559 235.83L237.589 237.88L235.869 237.94L235.749 236.73L235.839 235.38L235.059 233.34L233.709 231.91L231.329 230.81L228.809 232.36L226.919 232.66L225.769 234.51L225.289 237.34L225.769 240.06L225.519 241.61L224.409 242.48L222.569 244.8L219.989 245.34L217.109 243.97L214.379 242.29L208.519 240.45L202.549 241.61L196.659 246.11L191.309 248.6L191.849 245.86L192.059 242.88L191.029 239.33L190.739 235.62L190.929 231.71L190.419 228L188.319 226L185.899 224.26L179.519 222.94L171.129 220.37L168.299 224.66L167.289 226.84L167.859 228.16L169.239 229L170.099 230.9L170.499 232.92L165.539 235.37L158.609 234.62L155.689 235.42L153.839 237.74L153.099 240.77L151.459 243.29L151.489 246.63L151.989 249.89L153.979 249.69L154.849 251.46L155.509 256.85L156.789 262.31L155.679 265.59L155.039 266.3L151.039 267.8L149.689 268.73L149.319 270.01L150.099 277.55L149.519 278.42L146.219 279.97L144.939 280.77L144.659 281.25L144.379 282.39L144.059 282.87L143.559 283.19L141.909 283.74L138.339 286.47L137.889 286.71L138.349 287.91L139.209 289.03L139.519 290.96L136.029 300.68L135.399 309L138.079 320.44L136.739 322.95L131.569 324.12L126.009 325.61L125.819 327.4L123.769 328.55L123.719 329.38L123.929 330.24L124.429 331.41L124.679 331.63L125.009 331.73L129.769 335.36L130.179 335.53L131.189 335.48L131.529 335.6L131.749 336.08L131.709 336.54L131.529 337.08L131.889 337.71L132.159 338.39L132.459 339.59L131.969 341.24L132.049 341.61L132.389 342.29L132.459 342.72L132.079 343.76L132.239 344.26L133.199 344.47L134.559 344.19L136.009 343.68L137.469 343.43L138.879 343.93L140.259 346.37L141.309 347.45L142.579 347.18L143.939 346.62L146.909 346.96L148.239 346.44L150.889 348.11L152.299 348.71L153.899 348.95L155.349 348.69L156.709 348.24L157.949 348.15L159.029 348.95L159.779 347.83L160.559 347.64L165.929 349.28L166.669 349.17L167.469 348.7L170.169 347.63L171.099 347.43L171.109 347.2L171.519 346.7L172.299 345.95L172.859 345.58L174.309 344.96L175.829 343.85L177.239 342.56L178.819 341.48L180.949 341.02L181.369 341.15L181.749 341.48L182.419 342.23L182.839 342.45L183.149 342.31L183.409 342.08L183.669 342.01L185.369 342.87L188.689 343.52L189.949 343.59L191.069 342.99V343.49L195.199 344.77L196.719 344.96L197.149 345.25L197.429 345.94L197.659 346.75L197.919 347.43L198.499 348.1L199.869 349.32L200.379 349.93L200.679 351.35L200.629 354.9L201.089 356.09L202.009 357.4L203.269 362.26L204.479 364.87L206.149 367.33L207.979 369.37L209.689 370.73L213.409 372.72L214.389 373.44L214.819 373.67L215.729 373.82L216.159 374.17L216.219 374.5L216.089 375.33L216.159 375.66L216.909 376.78L217.319 377.16L218.069 377.67L220.589 378.78L221.939 379.78L223.549 380.03L224.239 380.34L225.299 381.4L227.919 385.56L230.119 387.84L233.069 388.97L243.499 389.87L244.739 390.58L245.079 392.08L245.729 393.05L246.259 394.08L245.839 395.46L245.139 396.75L243.699 398.62L241.679 399.81L237.459 405.18L235.369 411.84L235.029 419.36L235.479 426.89L234.729 434.29L233.029 441.54L238.039 441.66L242.919 440.83L244.779 439.45L249.389 432.02L250.229 430.2L252.019 429.48L255.159 429.8L257.579 428.26L259.299 426.68L261.569 425.87L267.729 424.42L273.599 426.16L278.579 429.51L284.359 430.83L299.949 429.91L303.069 423.53L302.659 415.87L303.129 408.2L302.369 406.61L305.799 402.52L306.909 401.89L312.099 399.91L319.409 392.47L322.269 390.4L323.809 389.75L325.579 389.51L326.359 388.89L328.889 384.82L333.089 381.29L338.039 377.59L337.749 375.26L336.939 372.78L337.139 366.76L340.909 352.73L340.969 346.42L341.149 345L341.569 343.71L343.489 342.19L344.969 339.17L344.749 335.93L342.589 334.32L341.019 332.45L344.189 327.59L348.859 323.63L351.529 320.9L353.539 317.77L351.979 315.8L345.609 309.37L343.149 307.78L340.839 305.9L337.599 303.98L333.949 302.62L331.869 300.5L331.159 297.45L330.729 294.43L332.759 288.78L332.139 285.96L330.939 282.51L330.899 278.89L333.469 271.94L333.319 265.75L332.519 259.66L334.069 253.1L342.599 242.05L345.699 235.37L349.399 229L351.069 227.59L353.359 228.37L355.619 228.14L356.149 225.86L356.849 224.71L357.419 223.41L357.669 220.26L355.609 219.97L353.959 220.87L353.019 222.6L351.039 222.65L348.589 221.63L346.009 221.45L344.569 221.04L343.459 219.99L342.059 219.43L340.429 219.91L338.139 219.86L335.789 219.23L333.839 217.83L332.369 215.86L330.469 214.67L328.189 214.36L323.879 214.23L318.499 212.39L316.029 212.46L313.659 212.84Z" fill="#CCCCCC" stroke="white" stroke-width="0.5"/>
<path d="M242.638 177.91L239.958 177.82L234.208 174.32L231.658 172.39L231.638 168.71L232.158 164.71L231.558 162.04L229.988 159.93L227.668 160.39L223.188 162.56L221.058 164.3L219.368 166.25L218.208 168.65L215.948 168.41L214.088 166.89L213.468 164.2L211.298 162.7L208.568 163.49L206.328 165.27L203.228 169.28L201.708 174.09L202.718 181.42L203.988 188.51L202.978 194.07L196.408 194.58L189.088 195.59L181.508 199.14L175.198 204.7L171.158 210.78L170.148 215.34L171.128 220.37L179.518 222.94L185.898 224.26L188.318 226L190.418 228L190.928 231.71L190.738 235.62L191.028 239.33L192.058 242.88L191.848 245.86L191.308 248.6L196.658 246.11L202.548 241.61L208.518 240.45L214.378 242.29L217.108 243.97L219.988 245.34L222.568 244.8L224.408 242.48L225.518 241.61L225.768 240.06L225.288 237.34L225.768 234.51L226.918 232.66L228.808 232.36L231.328 230.81L233.708 231.91L235.058 233.34L235.838 235.38L235.748 236.73L235.868 237.94L237.588 237.88L244.558 235.83L245.878 232L242.668 230.9L241.218 229.63L239.978 228.16L240.498 226.9L241.728 225.81L242.538 224.5L244.258 224.23L245.318 220.29L244.528 216.17L248.468 214.87L253.088 212.87L254.108 211.83L255.348 211.2L260.468 212.31L263.918 210.82L266.838 211.8L270.088 214.53L274.378 214.89L278.208 214.71L284.578 211.69L292.878 209.69L296.888 210.73H301.768L303.748 210.02L307.888 208.97L311.908 209.89L312.228 211.73L313.658 212.84L316.028 212.46L318.498 212.39L323.878 214.23L328.188 214.36L330.468 214.67L332.368 215.86L333.838 217.83L335.788 219.23L338.138 219.86L340.428 219.91L342.058 219.43L343.458 219.99L344.568 221.04L346.008 221.45L348.588 221.63L351.038 222.65L353.018 222.6L353.958 220.87L355.608 219.97L357.668 220.26L360.408 217.9L364.758 216.77L366.578 214.82L363.138 212.33L360.088 209.47L356.098 204.33L353.058 197.28L350.578 189.08L348.298 185.27L342.398 183.55L335.748 183.36L330.418 182.79L326.998 180.7L324.908 176.69L322.808 175.74L320.338 177.08L317.678 177.65L314.068 176.69L307.788 173.65L302.648 168.88L299.228 165.83L295.498 165.4L291.578 167.77L288.758 168.6L285.678 169.02L282.988 168.37L280.498 169.26L277.768 174.59L273.028 176.81L271.338 175.82L269.928 174.44L268.588 173.83L267.118 173.64L264.898 172.51L262.558 171.8L260.628 170.29L259.478 167.65L257.458 165.71L255.238 164.04L253.158 164.47L250.798 165.22L248.938 164.7L247.488 165.56L246.408 167.82L244.288 168.82L242.218 168.69L241.708 170.67L240.708 173.38L241.038 175.65L242.718 175.92L242.638 177.91Z" fill="#CCCCCC" stroke="white" stroke-width="0.5"/>
<path d="M245.096 36.7401L243.876 35.6801L184.516 84.4701L185.836 88.7901L186.396 92.4901L186.686 94.7601L188.096 96.1301L188.906 97.7501L188.706 99.5701L189.916 101.79L191.936 103.41L197.396 106.24L202.036 109.27L204.996 111.26L208.706 112.51L210.926 115.54L223.046 117.56L219.216 124.85L231.736 132.13L229.916 137.59L236.186 142.85L229.986 159.93L231.556 162.04L232.156 164.71L231.636 168.71L231.656 172.39L234.206 174.32L239.956 177.82L242.636 177.91L242.716 175.92L241.036 175.65L240.706 173.38L241.706 170.67L242.216 168.69L244.286 168.82L246.406 167.82L247.486 165.56L248.936 164.7L250.796 165.22L253.156 164.47L255.236 164.04L257.456 165.71L259.476 167.65L260.626 170.29L262.556 171.8L264.896 172.51L267.116 173.64L268.586 173.83L269.926 174.44L271.336 175.82L273.026 176.81L277.766 174.59L280.496 169.26L282.986 168.37L285.676 169.02L288.756 168.6L291.576 167.77L295.496 165.4L297.256 160.22L299.056 158.54L299.996 156.31L300.476 152.89L302.536 146.66L303.146 143.75L300.926 135.7L301.956 133.87L303.656 133.45L304.756 132.12L305.956 131.03L307.676 130.54L309.636 129.28L314.586 130.71L317.326 128.57L318.586 128.04L320.026 128.12L321.416 126.72L321.666 124.68L319.936 121.39L316.656 119.37L313.386 117.88L310.776 115.55L307.626 112.44L302.126 106.08L299.996 103.24L290.846 85.9001L290.396 85.2801L290.086 84.34L289.306 83.6101L287.456 82.5801L285.426 81.8301H283.756L282.336 82.5801L281.036 84.0501L280.466 83.2101L280.216 82.6901L280.056 82.09L280.126 81.34L280.776 80.3501L281.036 79.59L281.016 79.0501L280.876 78.2901L280.706 77.6801L280.546 77.6701L280.856 76.9201L281.006 76.84L281.166 77.0501L281.526 77.1401L283.546 77.2301L283.526 77.1401L285.306 77.6101L285.656 77.9001L286.146 77.1101L286.126 76.1101L285.586 75.2001L284.506 74.6801L285.356 73.8801L286.446 74.6601L287.426 76.0701L287.946 77.1401H288.436L288.416 75.0301L289.576 75.2201L292.396 77.6701L292.616 77.1601L292.856 76.9001L293.866 76.6501L291.866 73.7001L293.846 71.8501L296.106 72.4901L300.776 75.6701L304.106 75.6901L304.656 75.9101L305.136 74.9101L305.986 73.9601L306.306 72.9201L305.186 71.7001L304.616 72.0301L304.406 72.0701L304.216 71.9301L303.676 71.7001L303.946 71.5501H304.036L304.066 71.5001L304.206 71.2101L301.356 70.5201L298.276 70.2301L300.206 68.9801L300.326 68.5801L299.746 67.7801L298.226 66.7701L297.806 66.1901L298.276 65.3201L297.366 65.2001L296.576 65.2401L296.036 65.5701L295.836 66.3001L293.326 66.4601L290.476 68.4501L287.706 69.8501L285.446 68.2701L287.186 67.1901L287.456 67.0601L287.406 66.0001L287.476 65.4801L288.036 64.5101L287.036 63.0101L286.726 61.9301L289.766 55.0601L292.786 52.8701L295.966 53.2201L297.836 54.7601L298.476 51.0401L298.306 47.0501L298.646 43.1201L297.876 39.4501L289.146 36.0301L245.096 36.7401Z" fill="#CCCCCC" stroke="white" stroke-width="0.5"/>
<path d="M734.932 384.98L733.602 374.42L732.962 372.37L731.712 370.72L731.562 372.3L731.902 374.45L731.882 375.95L730.732 375.65L730.642 375.93V376.06L730.552 376.1L730.232 376.15L729.872 375.26L729.292 375.32L728.822 376.02L728.762 377.09L728.052 376.46L727.502 375.65L726.862 375.21L725.822 375.65L726.072 374.84L726.432 374.25L727.292 373.18L726.782 372.3L726.492 371.49L726.352 370.62L726.312 369.46L726.472 368.49L726.782 367.6L726.962 366.71L726.802 365.74L725.282 365.5L724.842 365.25L724.042 361.94L723.962 361.81V361.82L723.562 362.06L720.812 363.88L715.602 364.23L715.712 365.69L716.072 367.12L715.632 372.79L715.762 374.63L716.492 376.27L717.752 377.6L717.962 379.09L718.042 379.53L718.672 380.05L720.922 383.55L722.792 385.53L723.202 386.64L722.892 388.03L724.892 388.77L725.242 388.38L725.332 386.76L724.892 385.77L724.222 384.82L724.212 384.04L725.822 383.55L725.662 384.63L727.072 390.78L727.772 392.23L728.742 393.5L729.782 394.43L732.422 395.21L734.992 394.35L736.802 392.18L737.132 389.05L735.202 385.63L734.932 384.98Z" fill="#CCCCCC" stroke="white" stroke-width="0.5"/>
<path d="M194.071 491.17L178.051 488.47L166.311 486.89L156.931 485.31L155.371 475.06L153.801 464.01L153.021 456.13L149.111 451.4L137.381 450.61L127.211 449.82L124.081 445.09V438.78L120.951 429.33L114.701 426.97L99.0606 427.75L91.2306 430.12L70.8906 444.86L76.2906 456.49L78.8206 465.6L79.5306 470.38L81.4606 477.21L96.7706 501.2L102.031 514.01L103.751 520.54L105.631 527.43L109.221 534.61L113.791 541.22L118.641 546.4L121.001 548.25L123.961 550.02L127.131 551.18L130.151 551.2L131.671 550.45L133.131 549.39L134.661 548.6H136.391L137.231 549.18L138.591 551.01L139.361 551.59L140.281 551.74L140.891 551.53L141.441 551.16L145.151 549.83L145.991 549.65L146.501 549.45L146.681 549.16L146.911 549.06L147.551 549.44L147.821 549.9L148.061 551.22L148.301 551.73L149.261 552.36L150.181 552.45L151.161 552.34L152.241 552.43L153.371 553.01L154.911 554.8L156.061 555.53L158.821 556.31L160.251 557.52L160.741 559.36V562.07L161.281 565.18L162.931 567.4L169.841 572.74L171.061 573.21L172.511 573.22L173.981 572.69L176.421 571.36L178.091 571.22L188.791 574.16L187.441 577.1V580.69L188.901 583.55L191.951 584.28L193.441 583.66L194.481 582.89L195.621 582.4L197.451 582.66L199.521 583.86L200.271 584.08L200.941 584.02L202.321 583.69L202.971 583.72L203.791 584.16L203.821 583.69L203.161 579.35L203.851 578.49L205.001 578.35L204.081 575.41L201.291 572.83L199.671 571.67L198.381 570.23L199.851 568.17L197.291 565.5L193.991 563.26L195.511 560.35L204.451 557.15L208.591 554.61L213.971 547.75L214.301 539.57L213.061 535.63L213.311 531.49L215.951 528.3L220.361 528.15L229.371 522.02L231.251 522.9L231.551 524.35L231.251 526.52L232.331 528.32L232.411 530.47L232.751 532.57L238.731 540.19L241.711 540.44L244.501 540.07L247.201 540.58L246.641 535.82L230.051 513.62L226.691 510.22L213.361 501.29L194.071 491.17Z" fill="#CCCCCC" stroke="white" stroke-width="0.5"/>
<path d="M284.362 430.83L278.582 429.51L273.602 426.16L267.732 424.42L261.572 425.87L259.302 426.68L257.582 428.26L255.162 429.8L252.022 429.48L250.232 430.2L249.392 432.02L244.782 439.45L242.922 440.83L238.042 441.66L233.032 441.54L229.342 443.59L213.002 449.24L212.962 456.9L210.102 464.76L207.492 469.91L200.112 472.73L197.612 476.58L194.792 482.42L192.812 488.64L194.072 491.17L213.362 501.29L226.692 510.22L230.052 513.62L246.642 535.82L247.202 540.58L244.502 540.07L241.712 540.44L238.732 540.19L232.752 532.57L232.412 530.47L232.332 528.32L231.252 526.52L231.552 524.35L231.252 522.9L229.372 522.02L220.362 528.15L215.952 528.3L213.312 531.49L213.062 535.63L214.302 539.57L213.972 547.75L208.592 554.61L204.452 557.15L195.512 560.35L193.992 563.26L197.292 565.5L199.852 568.17L198.382 570.23L199.672 571.67L201.292 572.83L204.082 575.41L205.002 578.35L203.852 578.49L203.162 579.35L203.822 583.69L203.792 584.16L204.462 584.52L207.102 587.21L208.512 588.27L209.962 588.78L211.492 588.98L220.842 588.79L223.742 589.51L226.352 591.27L227.132 592.28L228.532 595.59L229.562 597.18L230.542 597.83L233.232 598.05L239.412 599.41L244.552 599.84L245.462 600.33L246.452 601.41L246.722 601.96L246.942 603.05L247.362 603.59L247.882 603.78L249.132 603.65L249.662 603.76L252.992 605.98L258.352 608.02L259.462 608.72L260.562 607.54L261.932 606.84L263.322 606.78L264.592 607.52L268.182 611.11L272.602 614.55L273.253 614.81L275.182 615.24L277.292 616.07L277.562 616.23L278.212 616.01L279.202 615.19L279.672 614.95L280.672 614.94L282.163 615.4L283.022 615.48L283.642 615.28L284.783 614.53L285.413 614.41L286.702 614.86L290.732 617.74L292.062 619L293.302 621.7L294.163 623.06L295.272 623.85L296.663 624.28L299.642 624.49L301.872 623.94L303.562 622.95L305.312 622.22L307.742 622.48L309.932 623.17L311.822 623.5L311.852 623.51L313.682 623.27L315.582 622.19L317.883 621.55L319.852 622.78L321.682 624.64L323.542 625.86L325.232 626.56L327.262 627.78L328.992 629.24L329.772 630.69L330.612 631.3L331.792 630.01V629.51L332.852 628.81L333.443 628.07L333.693 627.12L333.753 625.79L334.253 623.59L334.383 622.32L333.052 619.07L334.122 617.24L335.812 615.83L336.682 614.83L337.852 613.79L340.342 614.7L342.572 616.17L342.852 613.79L339.962 610.89L338.512 610.69L337.172 610.1L335.003 607.12L331.072 600.31L329.462 598.22L329.272 595.94L328.492 594.97L326.042 594.43L326.432 592.92L327.962 592.1L326.753 588.82L325.092 585.74L322.702 582.97L322.283 579.52L326.402 572.77L329.362 570.12L333.272 569.34L338.572 571.17L340.572 570.51L341.312 568.43L344.952 566.93L349.152 567.32L353.283 567.22L360.452 565.46L367.342 566.45L371.042 566.37L374.372 565.04L376.892 562.35L378.772 558.56L381.072 556.93L383.762 555.94L386.112 556.22L387.723 555.1L389.522 550.37L390.362 545.63L389.202 543.15L387.663 540.89L386.522 537.94L388.022 534.93L390.062 531.79L392.693 529.33L395.723 528.3L398.262 526.35L400.142 523.2L402.732 517.19L404.473 515.04L408.422 513.86L411.562 511.41L413.292 509.05L411.322 507.03L408.062 505.86L404.602 506.15L402.702 505.82L402.962 503.95L402.242 501.76L382.802 498.65L379.742 497.64L377.092 495.78L366.462 493.25L362.772 492.95L329.372 494.64L326.622 494.27L325.582 492.16L326.202 489.21L327.512 486.53L329.462 483.94L331.102 481.13L333.072 476.48L334.503 474.75L335.533 472.74L334.372 471.4L332.522 470.16L329.262 468.7L326.272 466.56L324.862 466.2L323.682 465.51L323.402 462.53L322.133 459.51L321.902 457.55L320.982 455.88L316.862 454.62L315.462 453.17L314.322 451.5L312.622 448.3L310.133 445.88L307.072 444.73L305.332 441.84L304.783 437.89L303.783 434.14L302.142 431.76L299.952 429.91L284.362 430.83Z" fill="#CCCCCC" stroke="white" stroke-width="0.5"/>
</svg>
