<svg width="800" height="552" viewBox="0 0 800 552" fill="none" xmlns="http://www.w3.org/2000/svg">
<path d="M787.343 547.9L787.443 547.79V547.6L787.293 547.42L786.913 547.12L786.833 547.11L786.793 547.12L786.723 547.22L786.693 547.34V547.48L786.723 547.61L786.863 547.8L787.023 547.92L787.163 547.95L787.343 547.9ZM784.143 551.42L784.553 551.34L784.983 551.14L785.253 550.82L785.353 550.49L786.023 549.95L786.643 549.45L786.673 549.25L786.473 548.85L786.153 548.64L786.233 548.57L786.443 548.65L786.743 548.84L787.023 548.71L786.883 548.36L786.493 547.92L786.373 547.64L786.383 547.46L786.373 547.14L786.323 547.02L786.093 546.86L785.753 546.92L785.433 547.08L784.053 548.44L783.883 548.55L783.653 548.57L783.403 548.79L783.333 549.07L783.323 549.58L783.293 549.99L783.333 550.36L783.463 550.88L783.693 551.26L784.143 551.42ZM785.013 545.61H784.543V545.77L785.013 545.93V545.61ZM789.803 544.34H788.703L788.663 544.66L788.393 544.63L788.313 544.99L788.933 545.45L788.533 545.36L788.213 545.09L788.043 545.12L788.013 545.48L788.073 546.1L788.443 546.8L787.663 546.15L787.723 545.27L787.333 545.23L787.093 546.11L787.133 546.6L787.763 547.54L787.933 547.82L788.143 547.74L788.433 547.76L788.633 547.53L788.803 547.25L789.023 546.94L789.243 546.58L789.703 545.78L790.003 545L789.803 544.34ZM783.143 544.41L783.563 544.27L783.663 544.05L783.923 543.93L783.933 543.78L783.953 543.61L784.083 543.52L784.173 543.37L784.143 543.23L784.063 543.07L784.003 542.99L783.813 542.79L782.493 543.23L782.573 543.83L782.893 544.43L783.143 544.41ZM782.343 541.73V541.26H782.043V541.73H782.343ZM781.823 537.38L781.053 537.84V538.15L780.433 538.31V538.78L781.513 538.15V537.84H781.823V537.38ZM780.433 536.44L779.813 536.52L778.883 537.22V537.53H779.343V537.22L779.603 537.43L779.503 537.69H779.193L779.343 538.08L779.813 538.15V538.47L780.273 537.84L780.583 537.76L780.893 536.75L780.273 536.91V537.22L779.703 537.32L779.653 536.91L780.273 536.75V536.6H780.433V536.44ZM778.703 535.77L778.423 535.34L777.903 535.37L777.493 535.66L777.483 535.97L777.443 536.24L777.683 536.78L778.103 536.88L778.383 536.76L778.853 536.46L779.103 536.11L779.153 535.89L779.103 535.78L778.883 535.81L778.703 535.77ZM789.053 532.56L788.943 532.47L788.873 532.46L788.413 532.49L788.193 532.68L788.103 532.79V533.02L788.153 533.17L788.303 533.36L788.373 533.4L788.833 533.38L788.933 533.49L789.003 533.53L789.463 533.68L789.503 533.74L789.523 533.89L789.553 533.96L789.803 534.4L789.903 534.54L790.103 535L790.323 535.69L790.413 536.17L790.483 536.2L790.473 536.27L790.423 536.33L790.393 536.39L790.423 536.95L790.473 537.11L790.543 537.24L790.593 537.38L790.673 537.52L790.693 537.59V537.67L790.613 538L790.623 538.2L790.713 538.42V538.56L790.703 538.8L790.613 539.01V539.08L790.683 539.23L790.763 539.45L790.753 539.53L790.623 539.8L790.723 540.14L790.883 540.17V540.24L790.783 540.35L790.583 540.43L790.543 540.49L790.643 540.7L790.703 540.94L790.733 541.01V541.08L790.673 541.13L790.213 541.12L790.003 541.2L789.803 541.31L789.813 541.38L789.863 541.44L790.233 541.6L790.393 541.78L790.713 541.87L790.813 541.96L790.913 542.02L790.973 542.04L791.023 542.01L791.193 541.68L791.383 541.59L791.463 541.51L791.523 541.36V541.15L791.683 540.39L791.663 540.12L791.693 539.45L791.743 538.95V538.64L791.693 537.99L791.713 537.85V537.69L791.673 537.37L791.553 536.91L791.433 536.32L791.323 535.64L790.913 534.07L790.713 533.4L790.673 533.33L790.443 533.15L790.393 532.94L790.343 532.89L790.193 532.85L789.983 532.64L789.853 532.59H789.703L789.413 532.66L789.053 532.56ZM789.693 532.23L789.763 532.19L789.803 532.15L789.863 532.07L789.953 532.02L790.013 532.01L790.053 531.99L790.093 531.95L790.113 531.91V531.85L790.133 531.8L790.173 531.71L790.193 531.63L790.183 531.54L790.123 531.45L789.853 531.39H789.673L789.423 531.46L789.343 531.52H789.263L789.223 531.53L789.003 531.64L788.943 531.67L788.853 531.71L788.813 531.72L788.743 531.73H788.723L788.713 531.77L788.783 531.89L788.833 531.97L788.923 532.05L789.003 532.08L789.073 532.12L789.113 532.13L789.293 532.21L789.413 532.23H789.573L789.633 532.24L789.693 532.23ZM790.193 529.74L790.153 529.64L790.073 529.48L790.063 529.29L790.013 529.17L789.983 529.13L789.943 529.1L789.833 529.08H789.753L789.683 529.11L789.603 529.13L789.443 529.25L789.293 529.34L789.223 529.42L789.233 529.47L789.253 529.52V529.58L789.223 529.61L789.113 529.66L789.083 529.7V529.76L789.133 529.84L789.193 529.9L789.243 529.93L789.263 529.94L789.493 529.91L789.553 529.92L789.593 529.96V529.98V530.01L789.543 530.04L789.293 530.11L789.253 530.14L789.243 530.17L789.263 530.23L789.363 530.39L789.393 530.47L789.373 530.6V530.68V530.71L789.313 530.77L789.243 530.8H789.013L788.993 530.83V530.85L789.013 530.9L789.113 531.04L789.233 531.07L789.593 531.05L789.713 531.06L789.903 531.09H789.993L790.123 531.06L790.163 531.03L790.203 530.99L790.243 530.92L790.253 530.86V530.69L790.273 530.52V530.39L790.243 530.14L790.193 529.93V529.74ZM773.313 528.33L771.763 528.64L772.383 529.81H772.533L773.153 529.58V529.11H773.313V528.95H773.463L773.313 528.33ZM772.073 528.17L771.613 528.09L771.303 528.48H771.613V528.33H772.073V528.17ZM788.923 529.23L789.083 529.12L789.233 529.05L789.863 528.94L790.153 528.92L790.183 528.9L790.233 528.49L790.143 528.14L790.113 528.07L790.083 528.05L790.043 528.04L789.903 528.05L789.623 528.12L789.383 528.14L789.223 528.18L789.083 528.26L788.943 528.51L788.853 528.81L788.703 528.91L788.603 528.97L788.413 529.03L788.373 529.08V529.12L788.393 529.14L788.803 529.27L788.923 529.23ZM788.573 526.99L788.563 527.08L788.693 527.14L788.753 527.36L788.863 527.54L789.003 527.69L789.293 527.77L789.463 527.75L789.563 527.69L789.553 527.52L789.483 527.4L789.423 527.22L789.343 527.08L789.213 527.1L789.273 527.26L789.213 527.3L789.083 527.24L788.983 527.23L788.993 527.16L789.073 527.1L789.033 527.02H788.853L788.573 526.99ZM789.723 527.22L789.903 527.2L790.003 527.06L790.043 526.9L790.003 526.79L789.843 526.75L789.653 526.79L789.363 526.84L789.453 526.94L789.463 527.02L789.493 527.14L789.583 527.24L789.723 527.22ZM789.943 526.15L789.883 525.97L789.823 525.76L789.663 525.67L789.463 525.69L789.263 525.73L789.193 525.87L789.113 525.97L788.983 526.13L788.833 526.24L788.933 526.32L789.163 526.27L789.143 526.34L789.093 526.48L788.903 526.45L788.833 526.44V526.52L788.913 526.61L789.063 526.66L789.163 526.68L789.233 526.85L789.343 526.71H789.583L789.823 526.64L789.943 526.39V526.15ZM789.213 525.29L789.093 525.3L789.003 525.39L788.903 525.47L788.873 525.56L788.813 525.65L788.703 525.73L788.663 525.81L788.613 525.96L788.743 525.92L788.873 525.88L789.053 525.86L789.123 525.73L789.363 525.63L789.493 525.55L789.623 525.48L789.563 525.36L789.373 525.38L789.213 525.29ZM789.183 525.08L789.123 525.02L788.993 525.01L788.973 525.09L788.863 525.07L788.743 525.18L788.853 525.2H788.933L789.043 525.23L789.123 525.22L789.163 525.19L789.183 525.14V525.08ZM788.553 524.93L788.603 524.83L788.733 524.81L788.933 524.8L789.153 524.75L789.263 524.74L789.333 524.7L789.423 524.52L789.463 524.37L789.503 524.3L789.543 524.18L789.503 523.98L789.363 523.82L789.323 523.69L789.233 523.66H789.043L788.803 523.76L788.573 523.87L788.333 523.95L788.233 524.09L788.173 524.24L788.153 524.43V524.59L788.193 524.75L788.243 524.82L788.283 524.92L788.393 524.96L788.553 524.93ZM790.223 522.42L787.903 522.73V522.89L788.423 522.99V522.83L790.073 523.2L790.223 522.42ZM762.633 520.37H762.323V520.69H762.163V520.84L762.473 520.92L762.633 520.37ZM790.013 520.14L788.463 520.06L788.153 520.29V520.76H787.843V521.07L790.013 521.54V520.61L789.703 520.76V520.45H790.013V520.14ZM790.193 519.32L787.683 519.54L787.823 519.9L788.093 519.83L788.423 519.68L790.223 519.94L790.193 519.32ZM787.723 517.9H787.253V518.05H787.723V517.9ZM790.353 516.11L789.583 515.89L789.463 516.15L790.073 516.51L790.353 516.11ZM790.153 513.66L789.933 513.21L789.673 513.23L789.303 513.35L788.803 513.57L789.183 514.64L791.283 515.58L791.533 515.01L791.813 514.24V513.77L790.663 513.53L790.573 513.73L790.153 513.66ZM790.353 512.13V512.44L791.133 512.68L791.383 512.5L791.433 512.75H791.593V512.44L791.363 512.29L791.233 512.39L790.353 512.13ZM756.143 512.19L756.223 511.96L756.133 511.82L755.953 511.86L755.833 512.05L755.543 512.42L755.143 512.81L755.183 512.92L755.313 512.89L755.513 512.74L755.863 512.2L756.033 512.24L756.143 512.19ZM790.293 512.1L790.273 511.52L789.663 511.54L789.693 512.11L790.293 512.1ZM792.573 511.56L792.933 511.31L792.923 510.9L792.473 510.81L792.333 510.73L792.353 510.63L792.413 510.58L792.753 510.57V510.14L791.593 509.95L790.583 509.79L789.953 510.13V510.75L791.893 511.69L792.153 512.03L792.543 512.04L792.573 511.56ZM749.183 509.15L748.833 508.79L748.723 508.74L748.233 508.71L747.963 508.8L747.443 509.07L747.273 509.09L747.163 509.13L747.013 509.26L746.813 509.29L746.433 509.1L746.273 509.09L746.013 508.94L745.653 508.92L745.463 509.06L745.313 509.58L745.163 509.99L744.883 510.3L744.703 510.7L744.733 511.08L744.993 511.43L745.443 511.67L745.993 511.66L747.013 511.38L749.013 510.92L749.373 510.8L749.793 510.5L750.693 510.48L750.983 510.38L751.173 510.18L751.453 509.96L751.583 509.87L751.643 509.72L751.563 509.54L751.343 509.46L750.793 509.58L749.823 509.43L749.183 509.15ZM793.663 509.43L792.683 508.55L792.453 508.71L792.603 509.21L793.373 509.81L793.663 509.43ZM792.683 507.61H792.373V507.77L792.623 507.82L792.833 508.24L793.453 508.39L792.683 507.61ZM794.073 507.61L793.763 506.99L791.903 506.52L793.303 507.69H793.763L794.073 507.61ZM794.383 506.68H794.073V506.37L793.143 506.13L792.373 505.35L792.063 505.43V505.9L793.763 506.6L794.073 507.15H794.383V506.68ZM792.993 504.96V504.65L792.523 504.81V504.96H792.833L793.303 505.82L794.233 506.13L794.843 505.9L795.003 504.81H793.613L794.023 505.38L792.993 504.96ZM793.453 504.5H793.143L793.453 504.81V504.5ZM793.753 503.24L792.863 503.06V503.22L792.993 503.37L793.173 503.61L793.943 503.69L793.753 503.24ZM796.253 504.81L795.633 504.66L796.173 504.03L796.093 503.57L794.393 502.86L793.923 502.94V503.1L795.633 504.03L795.573 504.45L795.323 504.5V504.81H795.633V505.13L796.093 505.2L796.253 504.81ZM796.553 502.32H796.393V502.94H796.553V502.78H796.703L796.553 502.32ZM789.753 487.19L789.743 487.02L789.793 486.73L789.713 486.53L789.443 486.44L789.343 486.35L789.273 486.12L789.073 485.91L788.953 485.65L788.703 485.52L788.393 485.53L788.133 485.67L788.023 485.79L787.843 485.94L787.663 486.19L787.623 486.41L787.903 486.71L788.723 487.34L789.043 487.86L789.193 488.23L790.083 489.08L790.633 489.54L791.623 491.01L791.943 491.51L792.133 491.64L792.283 491.96L792.793 492.05L792.903 492.09L792.593 492.4L792.653 492.49L792.903 492.6L792.993 492.82L793.213 492.93L793.333 493.25L793.653 493.37L793.663 493.75L793.983 493.83L794.383 493.65L793.993 494.25L794.103 494.33L794.433 494.2H794.553L794.423 494.36L794.363 494.63L794.473 495.11L794.633 495.12H794.753L794.603 495.26L794.643 495.45L794.823 495.4L794.923 495.41L795.043 495.4L795.203 495.49L795.213 495.72L795.443 495.99L795.673 496.33L795.963 496.53L795.753 496.92L795.993 497.15L796.173 497.28L796.433 497.25L796.523 497.32L796.243 497.7L796.223 497.94L796.443 497.97L796.693 497.95L796.883 498.05L796.993 498.14L796.893 498.42L796.643 498.72L796.963 498.94L796.973 499.15L797.113 499.48L796.833 500.17L796.563 500.56L796.203 500.81L795.813 501.08L795.823 501.33L795.903 501.46L795.883 501.55L795.723 501.53L795.483 501.25L795.173 500.95L794.603 500.82H794.413L794.003 501.13L793.753 501.47L794.013 501.75L794.343 502.19L795.303 502.47H795.883L796.253 502.27L796.603 501.88L796.773 501.64L796.993 501.39L797.313 501.23L797.533 501.47L797.633 501.54L797.743 501.32L798.233 500.7L798.583 500.47L798.833 500.06L798.733 499.4L798.643 498.79L798.373 498.31L798.053 497.85L797.813 497.47L797.733 497.15L797.483 496.84L797.193 496.44L796.903 495.93L796.623 495.51L796.363 495.16L796.203 494.87L795.983 494.56L795.803 494.3L795.613 493.98L795.383 493.56L795.083 493.16L794.803 492.9L794.583 492.54L794.283 492.12L794.033 491.9L793.393 491.02L793.043 490.59L792.793 490.24L792.373 489.7L792.033 489.28L791.833 489.05L791.663 488.74L791.263 488.34L790.933 487.94L790.723 487.67L790.473 487.33L790.253 487.12L790.073 487.04L789.883 487.15L789.823 487.25L789.753 487.19ZM787.703 485.97L787.913 485.61L788.013 485.45L787.823 485.2L787.453 485.15L787.143 485.37L787.013 485.61L787.053 485.84L787.253 486.06L787.453 486.11L787.703 485.97ZM783.803 480.92L783.553 480.73L783.233 480.5L782.893 480.31L782.413 480.16L782.093 479.99L781.273 479.72L780.723 479.7L780.233 480.25L779.863 480.5L779.593 481.02L779.633 481.42L779.873 481.57L780.303 481.6L780.683 481.55L780.783 481.4L780.853 481.17L781.063 481.02L781.323 481.03L781.603 481L782.203 481.03L782.413 481.2L782.493 481.41L782.783 481.65L782.883 481.84L783.153 482.02H783.443L783.743 482.11L783.713 482.41L784.273 482.84L784.633 483.55L784.973 483.77L785.243 484.16L785.503 484.67L786.043 484.86L786.263 485.18L786.503 485.51H786.763L787.043 485.3L787.373 484.77L787.403 484.47L786.803 483.79L786.543 483.68L786.403 483.5L786.073 483.25L785.913 482.86L785.293 482.18L784.493 481.61L783.803 480.92ZM436.133 422.43L436.273 422.2L436.553 421.51L436.533 421.38L436.433 421.28L436.213 421.23L436.033 421.25L435.913 421.4L435.853 422L435.983 422.37L436.043 422.44L436.133 422.43ZM428.463 421.46L428.543 421.09L428.683 420.85L428.773 420.72L428.743 420.62L428.493 420.55L428.363 420.66L428.123 421.2L428.163 421.45L428.293 421.55L428.463 421.46ZM427.593 421.35L427.853 421.2L428.103 420.5L427.803 420.39L427.463 420.43L427.253 421.07L427.373 421.36L427.593 421.35ZM426.583 420.79L426.563 420.14L426.433 420.58L426.303 420.67L426.243 420.77L426.403 420.89L426.583 420.79ZM424.793 420.61L424.963 420.39L425.063 420.08L425.153 419.86L425.073 419.7L424.773 419.65L424.443 419.61L424.323 419.64L424.313 419.93L424.233 420.17L424.223 420.48L424.373 420.66L424.793 420.61ZM444.663 419.57H444.193V419.72H444.653L444.663 419.57ZM443.883 419.57H443.733V420.03H443.883V420.34L444.193 420.35L443.883 419.57ZM444.663 419.26H444.503V419.41H444.663V419.26ZM443.423 419.1L442.953 418.94L443.423 419.56V419.1ZM445.313 418.75L445.203 418.59L444.593 418.17L444.663 418.32L444.933 418.63L445.223 418.94L445.313 418.75ZM420.883 418.23L420.053 418.11V417.8L419.743 417.95L419.643 418.16L419.433 418.26L419.333 418.89L419.493 419.13L419.993 419.33L420.373 419.29L420.533 419.05L420.603 418.56L420.733 418.47L420.843 418.48L420.883 418.23ZM444.503 417.54L444.043 417.7V418.16H444.353V418.01H444.503V417.54ZM411.733 415.41L411.863 415.21L411.793 415.13L411.323 414.95L410.643 414.72L409.903 414.21L409.443 413.57L409.323 413.5L409.213 413.38L408.933 414.04L408.903 414.2L409.083 414.62L409.383 414.81L409.603 415.12L411.173 415.53L411.733 415.41ZM407.463 411.08L406.993 410.76L406.853 410.67L406.763 410.59L406.613 410.45L405.983 410.2L405.763 410L405.373 410.13L405.993 411.22L406.193 411.37L406.163 411.63L406.383 411.7L406.613 411.67L406.723 411.42L406.963 411.28L407.223 411.26L407.773 411.61L407.463 411.08ZM405.493 409.69L405.393 409.5L405.123 409.59L405.073 409.81L405.303 409.83L405.493 409.69ZM404.913 409.1L404.993 409.01L405.053 408.9L404.763 408.89V409.03L404.793 409.11L404.913 409.1ZM404.433 408L404.333 407.76L403.953 407.77L403.833 407.95V408.09L403.983 408.26L404.253 408.27L404.433 408ZM404.503 407.41L404.573 407.28L404.423 407.21L404.123 407.04L403.853 406.78L403.253 406.01L403.073 405.68L402.963 405.48L402.913 405.31L402.793 405.27L402.603 405.26L402.213 405.36L402.003 405.45L401.943 405.57L401.983 405.96L402.413 406.5L402.653 406.73L403.083 407.21L403.473 407.49L403.843 407.58L404.503 407.41ZM394.653 397.27V396.76H394.503L394.253 396.62L394.213 396.47L394.373 396.24L394.163 396.18L393.883 396.29L393.673 396.48L393.163 396.87L393.103 397.3L393.573 397.38L393.643 397.34L393.763 397.58L394.033 397.77L394.533 398.78L394.833 399.12L395.193 399.41L395.733 399.93L396.113 400.19L397.083 401.1L398.873 402.8L400.343 404.13L400.863 404.81L401.173 404.95L401.483 405L401.743 404.91L402.193 404.8L402.343 404.75V404.66L402.213 404.35L401.883 404.29L401.613 404.16L401.353 403.85L401.243 403.67L401.193 403.46L400.983 403.37L400.733 403.34L400.533 403.24L400.493 403.02L400.293 402.34L399.043 402.03L398.363 401.44L397.883 401.02L397.343 400.68L396.703 399.89L396.043 399.35L395.693 398.97L395.363 398.56L395.063 398.1L395.053 397.73L394.653 397.27ZM393.563 396.14L393.473 395.92H393.073L392.663 396.12L392.253 396.22L392.093 396.69H392.613L393.023 396.23L393.333 396.46L393.563 396.38V396.14ZM392.563 395.85L392.873 395.77L392.863 395.57L392.803 395.47L392.543 395.35L392.433 395.39L391.643 395.73L391.883 395.98L392.093 396.08L392.563 395.85ZM391.633 394.99L391.723 394.89L391.653 394.83L391.473 394.88L391.373 395.07L391.493 395.15L391.633 394.99ZM391.183 393.05H391.023V393.21H391.183V393.05ZM390.763 392.75L390.713 392.34L390.823 391.97L390.863 391.02L390.883 390.26L390.933 389.36L391.013 388.52L391.073 387.92L391.113 387.54L391.093 386.98L390.763 386.91L390.453 387.16L390.353 387.89L390.093 388.15L389.963 388.47L389.713 388.76L389.873 389.38L389.563 389.69L389.403 390.39L389.553 391.09L390.183 391.58L390.223 391.96L389.633 392.03L389.543 392.44L389.703 392.85L390.433 392.82L390.553 393.12H389.943L389.933 393.43L390.143 393.67L390.653 393.69L390.873 393.94L390.563 394.11L390.633 394.37L390.863 394.44L391.483 394.21L391.413 393.96L391.173 393.82L390.863 393.51L390.953 393.2L390.813 392.87L390.763 392.75ZM448.933 412.67L448.963 412.4L449.143 412.3L449.603 412.28L449.883 412.21L450.033 411.92L450.223 411.45L450.263 410.98L450.463 410.2L450.143 409.05L449.303 406.46L445.063 397.37L443.523 393.18L443.243 391.76L442.523 389.66L441.403 387.49L440.433 384.9L439.503 381.36L439.013 379.57L438.913 378.6L438.773 378.15L438.663 377.74L438.603 377.65L438.223 377.67L437.873 377.82L437.633 377.99L437.683 378.24L437.833 378.59L437.863 378.85L438.063 379.66L438.263 381.07L438.753 381.86L440.273 388.01L440.823 388.65L442.303 392.16L442.613 393.82L442.813 394.08L442.883 394.9L443.203 395.17L443.353 395.97L443.803 396.54L444.633 399.07L445.403 400.91L445.983 401.81L445.993 402.13L446.103 402.58L446.443 402.9L448.973 409.09L448.983 409.9L448.893 410.96L448.593 411.65L448.223 412.06L447.793 412.51L447.753 412.64L448.763 412.75L448.933 412.67ZM437.593 369.84L437.743 369.8L437.893 369.77L437.953 369.7L437.983 369.6L437.933 369.5L437.473 369.43L437.283 369.4L436.893 369.52L436.763 369.67L436.813 369.88L436.993 370L437.193 370.04H437.273L437.333 370.12L437.203 370.15H437.043V370.37L437.103 371.62L437.263 373.19L437.533 373.81L437.633 374.5L437.793 374.69L437.753 374.9L437.523 375.4L437.353 376.09L437.513 377.47L437.633 377.53L438.113 377.39H438.203L438.253 377.34L438.573 377.11L438.363 375.49V375.4L438.343 375.22L438.333 375.21L438.183 374.07L438.333 373.76L438.283 372.72L438.213 370.48L438.163 370.1L437.993 369.94L437.843 369.88L437.713 369.89L437.633 369.92L437.593 369.84ZM437.113 364.81L437.013 364.79L436.833 364.87L436.483 364.84L436.253 364.91L436.183 365.01L436.253 365.19L436.313 365.32L436.323 365.53L436.213 365.64L436.263 365.81L436.343 365.83L436.413 366.12L436.483 366.22L436.493 366.57L436.413 366.66L436.443 366.83L436.543 366.97L436.603 367.27L436.703 368.01L436.763 368.84L436.733 368.97L436.623 369.09L436.653 369.29H436.813L436.983 369.22L437.023 369.15L437.483 369.04L437.873 368.89V368.61L437.743 368.29L437.693 368.09L437.713 367.71L437.643 367.48L437.673 367.27L437.683 366.96L437.633 366.74L437.573 366.59L437.403 366.47V366.21L437.253 366.02L437.223 365.74L437.313 365.42V365.24L437.243 365.07L437.223 364.9L437.113 364.81ZM436.563 364.18L436.603 364.12V364.03V363.99L436.543 363.91L436.473 363.87L436.393 363.86L436.273 363.91L436.213 363.93L436.173 363.97L436.143 364.04L436.163 364.14L436.183 364.17L436.293 364.18H436.403H436.563ZM436.483 363.47L436.593 363.38L436.633 363.36L436.643 363.32L436.603 363.27L436.453 363.24H436.313L436.213 363.27L436.133 363.32L436.173 363.42L436.263 363.46L436.373 363.47H436.483ZM436.633 362.7L436.643 362.51L436.583 362.35H436.343L436.263 362.52L436.283 362.76L436.463 362.85L436.633 362.7ZM436.573 361.96L436.733 361.81L436.703 361.35L436.273 361.16L436.173 361.25L436.143 361.62L436.343 362.02L436.573 361.96ZM436.573 360.89L436.753 360.85L436.833 360.81L436.873 360.76L436.883 360.63L436.833 360.56L436.733 360.48L436.603 360.44L436.383 360.46L436.193 360.57L436.153 360.72L436.353 360.83L436.453 360.9L436.573 360.89ZM436.663 360.06L436.813 360.04L436.923 360.02L436.983 360L437.033 359.97L437.023 359.93L436.983 359.85L436.883 359.78L436.743 359.79L436.543 359.81L436.343 359.86L436.363 360.01L436.503 360.06H436.663ZM392.993 384.04L393.523 382.87L394.223 381.53L394.613 380.66L394.833 380.22L395.213 378.55L395.703 377.04L395.743 375.87L395.663 374.94L395.553 374.23L395.403 373.84L395.463 372.98L395.663 372.02L395.673 371.48L395.833 370.96L396.003 370.29L395.853 369.81L395.843 369.41L395.483 368.64L395.433 367.89L395.403 366.98L395.453 366.61L395.233 366.41L394.973 366.27L394.843 365.26L394.753 364.27L394.333 362.6L394.093 360.66L393.903 359.71L393.843 359.02L393.513 358.98L393.523 359.8L393.703 360.41L393.653 360.91L393.863 361.36L393.853 362L394.013 362.83L394.033 363.85L394.073 364.34L394.453 367.02L394.513 368.19L394.563 370.4L394.573 375.92L394.453 376.3L394.543 376.78L394.193 377.38L394.153 378.49L393.833 380.2L393.093 380.89L392.573 383.16L392.303 383.74L391.993 384.28L391.813 384.56L392.123 384.71L392.993 384.04ZM437.283 358.95L437.393 358.86L437.413 358.52L437.403 358.32L437.193 358.15L436.893 358.21L436.733 358.3L436.613 358.55L436.593 358.82L436.753 358.99L437.033 359.03L437.283 358.95ZM438.003 357.6L437.493 357.46L436.903 357.25V357.41L437.173 357.49L437.443 357.68L437.693 357.66L438.143 357.72L438.003 357.6ZM437.983 357.1H437.673V357.25H437.983V357.1ZM437.873 356.78L437.853 356.7L437.733 356.62L437.603 356.58L437.503 356.64L437.593 356.74L437.783 356.81L437.853 356.82L437.873 356.78ZM438.383 356.01L438.463 355.93L438.493 355.77L438.463 355.65L438.373 355.55L438.303 355.46L438.063 355.64L437.983 355.88L438.073 356.02L438.383 356.01ZM438.513 355.16L438.583 355.06L438.503 354.94L438.393 354.87L438.223 354.89L438.173 355.02L438.233 355.12L438.293 355.18L438.513 355.16ZM438.923 354.62L438.873 354.55L438.733 354.49L438.623 354.51L438.613 354.61L438.723 354.69L438.923 354.62ZM439.083 354.36L439.073 354.3L439.003 354.2L438.883 354.12L438.653 354.07L438.373 354.03L438.363 354.08L438.773 354.2L438.833 354.32L438.943 354.35L438.973 354.36L439.033 354.38L439.083 354.36ZM439.243 353.74L439.233 353.67L439.143 353.58H439.033V353.68L439.093 353.71L439.103 353.78L439.193 353.79L439.243 353.74ZM395.863 354.15L395.833 353.9L395.543 353.59L395.133 353.3L394.653 353.29L394.353 353.36L393.683 353.8L393.253 354.39L393.183 354.84V355.14L392.983 355.5L392.843 355.79L392.863 355.94L393.033 356.2L393.303 356.71L393.493 356.66L393.343 356.24L393.783 355.74L394.283 355.6L394.433 355.09L394.643 354.68L395.013 354.31L395.263 354.24L395.773 354.26L395.863 354.15ZM439.523 353.01L439.453 352.92L439.213 352.89L439.273 352.99L439.383 353.05L439.713 353.28L439.523 353.01ZM439.673 352.62L439.463 352.59L439.513 352.68L439.733 352.72L439.853 352.74L439.673 352.62ZM440.263 351.85L439.833 351.81L439.633 351.76L439.483 351.65L439.243 351.58L438.783 351.87L438.813 351.91L439.043 351.86L439.253 352L439.543 352.12L439.653 352.28L439.863 352.36L440.093 352.25L440.153 352.14L440.263 352.01V351.85ZM441.833 346.19L441.773 345.8L441.523 345.31L441.263 345.1L441.013 345.06L440.243 345.27L439.303 345.58L438.603 345.91L438.073 346.26L437.613 346.74L437.333 347.26L437.093 347.95L437.073 348.67L437.213 348.81L437.373 349.06L438.043 348.86L438.023 348.73L438.543 348.58L439.183 348.61L439.123 348.31L438.913 348.15L438.983 347.82L439.523 347.36L439.633 347.13L439.833 347.18L440.093 347.04L440.373 346.71L440.463 346.81L440.513 346.88V347.04L440.753 347.18V347.29L440.773 347.42L440.703 347.49L440.643 347.59L440.623 347.67L440.573 347.77L440.453 347.82L440.383 347.81L440.423 347.66L440.363 347.59L440.273 347.71L440.293 347.89L440.143 347.87L439.543 348.25L439.383 348.23L439.303 348.52L439.343 348.8L439.393 349.03L439.313 349.37L438.953 349.71L438.763 349.97L438.663 350.12L438.673 350.36L438.693 350.63L438.923 350.7L439.193 350.73L439.463 350.31L439.973 349.83L440.343 349.64V349.3L440.503 348.95L440.723 348.77L440.983 348.62L441.483 347.74L441.813 346.88L441.833 346.19ZM11.883 31.93L12.093 31.84L12.143 31.81L12.193 31.79L12.233 31.74L12.273 31.71L12.503 31.62L12.543 31.58L12.563 31.52L12.523 31.48L12.443 31.4L12.393 31.3L12.263 31.12L12.243 31.08L12.203 30.97L12.143 30.86L12.083 30.78L12.053 30.73L12.043 30.62L11.993 30.6L11.963 30.64L11.903 30.8L11.833 30.88L11.743 31.04L11.703 31.08L11.673 31.13L11.653 31.19L11.643 31.32L11.683 31.5L11.723 31.78L11.743 31.84L11.773 31.9L11.823 31.93H11.883ZM10.693 32.42L10.783 32.35L10.833 32.34L11.043 32.23L11.373 32H11.483L11.543 31.99L11.593 31.96L11.613 31.92L11.493 31.54L11.453 31.25L11.473 31.19L11.463 31.02L11.493 30.97L11.543 30.95L11.593 30.92L11.623 30.86V30.8L11.643 30.74L11.713 30.59L11.803 30.52L11.833 30.47L11.903 30.32L11.983 30.24L12.013 30.13L11.963 30.09L11.913 30.07L11.893 30.02V29.97L11.833 29.95L11.783 29.99L11.703 30.07L11.673 30.12L11.643 30.16L11.593 30.19L11.553 30.24L11.503 30.28L11.403 30.32L11.313 30.4L11.203 30.53L11.193 30.59L11.183 30.65L11.133 30.74L11.093 30.79L11.053 30.83L10.903 30.92L10.863 30.98L10.833 31.09L10.803 31.26L10.743 31.35L10.703 31.39L10.663 31.49L10.653 31.54L10.613 31.59L10.573 31.69L10.493 31.78L10.253 31.99L10.133 32.01L10.003 32.09L9.91297 32.17L9.86297 32.36L9.83297 32.41L9.78297 32.44L9.67297 32.46L9.49297 32.41L9.43297 32.44L9.34297 32.51L9.31297 32.57L9.28297 32.61L9.24297 32.65L9.19297 32.68L9.06297 32.78L9.00297 32.8L8.94297 32.78L8.91297 32.73L8.88297 32.68L8.79297 32.59L8.69297 32.52L8.60297 32.47L8.55297 32.42L8.52297 32.36L8.50297 32.25V31.84L8.54297 31.81H8.66297L8.77297 31.83H9.06297L9.24297 31.81L9.30297 31.79H9.35297V31.85L9.31297 31.89L9.27297 32L9.26297 32.12L9.30297 32.16L9.35297 32.17L9.40297 32.16L9.53297 32.04L9.58297 32.01L9.60297 31.96V31.9H9.55297H9.49297L9.52297 31.86L9.56297 31.75V31.7L9.55297 31.65L9.49297 31.63L9.44297 31.6L9.42297 31.49L9.40297 31.24L9.37297 31.19L9.32297 31.02L9.29297 30.97L9.26297 30.92L9.21297 30.81L9.20297 30.69L9.18297 30.63L9.13297 30.59L9.08297 30.56H9.02297L8.96297 30.58L8.88297 30.66L7.93297 31.52L7.69297 32.07L7.99297 32.51L8.00297 32.57L8.16297 32.69L8.21297 32.72L8.26297 32.74L8.31297 32.79L8.36297 32.83L8.42297 32.92L8.48297 32.94L8.54297 32.95L8.63297 33.01L8.80297 33.15L8.83297 33.18L8.88297 33.22L8.92297 33.24H9.25297L9.67297 33.05L9.79297 32.95L9.84297 32.93L9.96297 32.81L10.253 32.63L10.303 32.59L10.533 32.5L10.693 32.42ZM12.793 31.37L12.813 31.32L12.853 31.28L12.913 31.26L13.083 31.24L13.193 31.21L13.243 31.19L13.293 31.15L13.383 31.11L13.473 31.03L13.563 30.96L13.663 30.92L13.693 30.87L13.663 30.82L13.513 30.72L13.473 30.68L13.443 30.62L13.393 30.58L13.333 30.47L13.283 30.37L13.183 30.22L13.063 30.1L12.843 29.99L12.753 29.92L12.673 29.83L12.583 29.76L12.533 29.72L12.443 29.65L12.393 29.62H12.323L12.313 29.68V29.74L12.383 30.01V30.07V30.36L12.403 30.47V30.7L12.463 30.85L12.503 30.96L12.533 31.07L12.563 31.2L12.593 31.25L12.623 31.29L12.703 31.35L12.753 31.39L12.793 31.37ZM14.153 30.74H14.213L14.263 30.71L14.303 30.68L14.313 30.56L14.273 30.52L14.133 30.43L14.053 30.34L13.983 30.24L13.943 30.13L13.913 30.07L13.883 30.03L13.773 29.83L13.683 29.6L13.643 29.55H13.583L13.553 29.53L13.513 29.49L13.453 29.31L13.423 29.26L13.383 29.22L13.333 29.1L13.263 29.01L13.103 28.95L13.053 28.97L13.013 29.08L12.983 29.13L12.933 29.16L12.923 29.22L12.963 29.26L13.133 29.4L13.173 29.44L13.213 29.55L13.263 29.64L13.333 29.72L13.353 29.77V30L13.383 30.05L13.393 30.11L13.423 30.15L13.473 30.19L13.623 30.26L13.643 30.31L13.663 30.42L13.703 30.53L13.753 30.62L13.783 30.67L13.873 30.74L14.043 30.75L14.153 30.74ZM8.32297 29.17L8.25297 28.97L8.17297 28.75L8.01297 28.7L7.37297 28.54L6.89297 28.55L6.57297 28.63L6.53297 29.11L6.78297 29.69L7.07297 29.88L7.02297 29.92L6.92297 30.07L7.23297 30.56L7.54297 30.48L7.70297 30.1L7.93297 30.25L8.11297 30.1L8.16297 29.94L8.02297 29.77L7.85297 29.79H7.54297L7.70297 29.32H8.32297V29.17ZM15.493 30V29.89L15.433 29.79L15.403 29.74V29.67L15.393 29.62L15.303 29.48L15.283 29.43L15.273 29.32L15.213 29.16L15.093 28.99L14.993 28.79L14.913 28.73L14.883 28.62L14.803 28.47L14.763 28.44L14.703 28.42L14.653 28.43L14.743 28.57L14.793 28.74L14.833 28.78L14.923 28.86L14.963 28.92L14.983 28.97L14.993 29.03L15.003 29.09L15.053 29.2L15.093 29.24L15.183 29.4L15.203 29.46L15.213 29.52V29.64L15.233 29.76L15.253 29.81L15.313 29.91L15.443 30.02L15.493 30ZM16.393 28.74L16.363 28.63L16.303 28.53L16.193 28.47L16.083 28.42L16.093 28.47L16.183 28.54L16.223 28.57L16.293 28.72L16.323 28.76L16.363 28.78L16.393 28.74ZM14.703 30.4L14.763 30.37L14.923 30.36L14.963 30.34L15.063 30.28L15.133 30.18V30.13L15.123 30.07L14.873 29.72L14.793 29.62L14.543 29.37L14.333 29.24L14.323 29.19L14.313 29.12L14.303 29.07L14.283 29.02L14.253 28.97L14.223 28.92L14.213 28.85L14.193 28.8L14.163 28.75L14.083 28.65L14.033 28.55L13.993 28.5L13.903 28.42L13.843 28.39H13.783L13.733 28.43L13.703 28.48L13.683 28.54V28.59L13.693 28.64L13.723 28.69L13.783 28.78L13.803 28.84L13.823 28.95L13.863 29.05L13.913 29.08L13.963 29.09L14.023 29.11L14.063 29.14L14.173 29.25L14.213 29.3L14.253 29.35L14.283 29.39L14.343 29.48V29.7L14.373 29.81L14.413 29.98L14.433 30.09L14.583 30.33L14.653 30.41L14.703 30.4ZM16.173 28.9L16.033 28.66V28.49L15.983 28.38L15.883 28.23L15.793 28L15.803 27.95L15.843 27.9L15.953 27.87L15.993 27.84L16.023 27.79L16.013 27.74L15.923 27.68L15.813 27.63L15.753 27.62L15.633 27.59L15.383 27.56L15.263 27.52L15.173 27.44L15.153 27.38L15.093 27.36L15.073 27.41L15.053 27.54V27.6L15.093 27.71L15.123 27.75L15.273 27.9L15.313 27.95L15.333 27.99L15.363 28.03L15.473 28.05L15.523 28.08L15.583 28.09L15.633 28.12L15.773 28.32L15.893 28.51L15.933 28.62L15.963 28.74V28.79L15.983 28.97L16.003 29.04L16.033 29.15L16.043 29.21L16.073 29.32L16.113 29.42L16.203 29.55L16.213 29.6V29.65L16.243 29.69L16.293 29.72L16.333 29.68L16.383 29.66H16.543H16.593L16.643 29.63L16.693 29.61L16.723 29.56L16.733 29.51V29.45L16.703 29.33L16.683 29.27L16.653 29.15L16.613 29.04L16.563 29L16.513 28.97L16.463 28.96H16.273L16.173 28.9ZM14.793 27.91L14.753 27.87L14.733 27.83L14.693 27.79V27.74L14.663 27.62L14.593 27.47L14.503 27.4L14.393 27.35L14.353 27.4L14.323 27.45L14.263 27.67L14.273 27.78L14.293 27.84L14.353 27.88L14.383 27.93L14.393 28.05L14.423 28.1L14.463 28.2L14.513 28.24L14.563 28.26L14.693 28.27L14.873 28.19L14.963 28.35L15.003 28.4L15.073 28.5L15.143 28.68L15.173 28.73L15.283 28.86L15.303 28.92L15.383 29.15L15.423 29.27L15.443 29.33L15.463 29.38L15.473 29.44L15.593 29.65L15.633 29.7L15.653 29.76L15.643 29.82L15.603 29.88L15.593 29.93L15.633 29.98L15.693 30H15.753L15.923 29.94L15.973 29.91L15.993 29.86L15.963 29.81L15.803 29.58L15.693 29.4L15.663 29.36L15.583 29.23L15.533 29.11L15.503 29.06L15.473 29.02L15.433 28.98L15.363 28.84L15.303 28.75L15.283 28.69L15.123 28.46L15.073 28.36L15.023 28.2L14.903 27.96V27.91L14.843 27.92L14.793 27.91ZM18.383 28.95L18.433 28.92L18.443 28.87L18.393 28.84L18.383 28.78L18.343 28.72L18.313 28.67L18.283 28.55L18.253 28.49L18.113 27.98V27.96L18.103 27.89L18.063 27.71L18.053 27.59L18.023 27.54V27.48L18.013 27.42L17.973 27.3L17.943 27.26L17.883 27.25L17.873 27.3V27.41L17.883 27.47L17.913 27.69L17.933 27.74L17.943 27.79L17.973 27.89L17.993 27.93L18.003 27.99L18.043 28.09V28.21L18.063 28.32L18.093 28.36L18.113 28.42V28.47L18.123 28.53L18.133 28.69L18.163 28.81L18.263 28.94L18.323 28.96L18.383 28.95ZM19.613 27.71V27.6L19.593 27.55V27.32L19.603 27.26L19.583 27.2L19.563 27.16L19.513 27.12L19.453 27.1L19.433 27.15V27.27V27.33L19.383 27.43L19.393 27.48L19.443 27.5L19.493 27.53L19.523 27.57L19.533 27.68L19.563 27.72L19.613 27.75V27.71ZM17.073 27.31L17.023 27.27L16.863 27.16L16.803 27.07L16.753 27.04L16.723 27L16.673 26.96L16.613 26.94H16.543L16.493 26.95L16.443 26.99L16.413 27.04L16.313 27.11L16.243 27.2L16.233 27.26V27.38L16.313 27.51V27.56L16.293 27.62L16.263 27.67L16.253 27.78L16.273 27.84L16.313 27.88L16.373 27.96L16.483 28.15L16.553 28.23L16.643 28.3L16.693 28.29L16.713 28.34L16.723 28.45L16.763 28.56L16.773 28.62L16.803 28.66L16.813 28.72L16.913 28.99V29.11L16.973 29.34L16.993 29.39L17.053 29.4L17.083 29.36L17.073 29.3L16.913 28.8L16.873 28.61L16.863 28.49L16.843 28.38L16.813 28.32L16.683 28.11L16.653 28.06L16.583 27.96L16.503 27.77V27.71H16.553L16.593 27.67L16.583 27.62L16.613 27.69V27.75L16.643 27.8L16.653 27.87L16.723 27.96L16.793 28.05L16.843 28.08L16.943 28.13L16.973 28.19V28.42L16.983 28.47L17.063 28.57L17.083 28.61L17.153 29.01L17.183 29.11L17.193 29.17L17.213 29.22L17.243 29.27L17.293 29.28L17.343 29.26L17.423 29.18L17.473 29.16V29.03L17.453 28.97L17.423 28.92L17.353 28.83L17.283 28.73L17.223 28.64L17.153 28.46L17.133 28.41L17.113 28.36L17.093 28.25L17.063 28.13L16.993 28.03L16.853 27.83L16.803 27.73L16.723 27.64L16.703 27.58V27.53L16.743 27.49L16.793 27.5L16.833 27.53L16.913 27.62L16.933 27.68L16.973 27.84L16.993 27.9L17.043 27.99L17.093 28.08L17.133 28.13L17.153 28.17L17.183 28.22L17.323 28.49L17.523 28.76L17.643 29.13L17.743 29.03L17.533 28.59L17.343 28.29L17.263 28.08L17.193 27.99L17.143 27.89L17.153 27.59L17.123 27.54L17.073 27.31ZM18.933 28.79L18.963 28.75L19.013 28.72L19.073 28.7L19.213 28.69H19.323L19.573 28.63L19.623 28.6L19.753 28.48L19.803 28.45L19.813 28.33L19.783 28.21L19.753 28.15L19.723 28.1L19.673 28.06L19.403 27.87L19.323 27.78L19.293 27.61L19.253 27.56L19.223 27.51V27.45L19.233 27.4L19.263 27.36L19.313 27.26L19.323 27.19L19.333 27.13L19.323 27.08L19.273 26.97L19.163 26.82L19.113 26.78L18.933 26.73L18.873 26.74L18.743 26.77L18.683 26.78L18.563 26.82L18.503 26.85L18.423 26.93L18.393 26.97V27.03L18.423 27.08L18.503 27.14L18.543 27.18V27.23L18.533 27.29L18.503 27.35L18.483 27.46V27.58L18.533 27.68L18.563 27.73V27.89L18.583 27.95V28.05L18.653 28.2V28.32L18.633 28.43V28.48L18.713 28.67L18.883 28.81L18.933 28.79ZM20.133 28.41L20.273 28.33L20.263 28.27L20.233 28.23L20.143 28.07L20.093 27.87L20.073 27.82L20.043 27.7L20.053 27.64L20.063 27.52L20.043 27.46L20.013 27.41L19.963 27.38L19.913 27.35L19.843 27.18L19.833 27.06L19.823 27.01L19.793 26.96L19.753 26.91L19.683 26.81L19.693 26.66L19.673 26.61L19.633 26.56L19.573 26.59L19.543 26.63L19.553 26.8L19.573 26.85L19.603 26.9L19.673 26.97L19.733 27.06L19.753 27.12V27.17L19.773 27.22V27.55L19.763 27.61V27.67L19.783 27.72L19.803 27.77L19.863 27.87L19.873 27.93L19.903 28.03L19.913 28.08L19.963 28.24L20.023 28.35L20.033 28.4L20.073 28.43L20.133 28.41ZM21.223 27.48L21.173 27.36L21.163 27.31V27.25L21.173 27.19L21.193 27.13V27.07L21.183 27L21.173 26.94L21.163 26.88L21.153 26.83L21.113 26.71L21.093 26.65L20.983 26.51L20.963 26.45L20.923 26.48V26.54L20.903 26.6V26.65V26.7L20.893 26.76V26.81L20.863 26.87L20.833 26.91L20.803 26.96L20.713 27.03L20.673 27.07L20.643 27.12L20.623 27.17V27.23V27.28L20.633 27.34L20.653 27.39L20.663 27.45L20.683 27.49L20.703 27.55V27.61V27.67L20.723 27.79L20.743 27.89L20.753 27.95L20.763 28L20.773 28.06L20.783 28.12L20.803 28.17L20.853 28.2H20.903L20.953 28.19L21.013 28.17L21.043 28.12L21.033 28.07L21.013 27.95V27.9L21.003 27.84L20.983 27.79L20.993 27.62V27.56L21.013 27.52L21.033 27.51L21.063 27.55L21.073 27.61L21.083 27.67V27.73L21.093 27.85L21.103 27.91V27.97V28.03V28.09L21.123 28.15L21.183 28.16H21.343H21.403L21.393 28.1L21.373 28.03L21.323 27.91L21.293 27.85L21.273 27.8L21.263 27.74V27.69L21.283 27.63V27.58L21.263 27.52L21.223 27.48ZM8.82297 26.53L8.87297 26.5L8.88297 26.46L8.84297 26.42H8.78297L8.73297 26.5L8.72297 26.53L8.78297 26.55L8.82297 26.53ZM22.253 28.12H22.543L22.573 28.07V28.01L22.443 27.82L22.353 27.6L22.343 27.54L22.293 27.36L22.283 26.74L22.303 26.34L22.273 26.23L22.233 26.18L22.183 26.15H22.123L22.073 26.18L22.033 26.22L21.933 26.37L21.893 26.47L21.883 26.6L21.823 26.73L21.753 26.83L21.743 26.88V27.32L21.773 27.43L21.803 27.54L21.813 27.61L21.833 27.66V27.72L21.863 27.83V28.11L21.913 28.16L21.973 28.17L22.253 28.12ZM8.93297 26.23L8.97297 26.2L8.99297 26.16V26.09L8.93297 26.02L8.86297 26.03L8.79297 26.08L8.75297 26.13L8.74297 26.19L8.85297 26.25L8.93297 26.23ZM23.523 27.82V27.7L23.553 27.64L23.543 27.44L23.523 27.38L23.513 27.32L23.453 27.21L23.433 27.15L23.393 27.03L23.373 26.98L23.363 26.91L23.343 26.86L23.353 26.5L23.393 26.27V26.14L23.343 25.96L23.293 25.85L23.243 25.8L23.133 25.75H23.083L23.063 25.88L23.123 26.17L23.143 26.22L23.133 26.28L23.093 26.31L22.803 26.62L22.773 26.67L22.733 26.77L22.723 26.83L22.783 27.12L22.773 27.42L22.783 27.59L22.803 27.64L22.813 27.76L22.823 27.82L22.843 27.88L22.873 27.93L22.933 27.94H22.993L23.083 27.9L23.193 27.85H23.363L23.423 27.86H23.483L23.523 27.82ZM24.953 27.03V26.85L24.933 26.73L24.913 26.66L24.903 26.55L24.883 26.36L24.853 26.24L24.833 26.18L24.823 26.12L24.863 26.09L24.903 26.05L24.893 25.99L24.863 25.94L24.823 25.89L24.783 25.78L24.723 25.68L24.653 25.59L24.633 25.53L24.593 25.49L24.543 25.46L24.473 25.44L24.403 25.46L24.353 25.49L24.283 25.51L24.253 25.56L24.223 25.62L24.203 25.84L24.183 25.89L24.123 25.99L24.113 26.06V26.18L24.133 26.24L24.153 26.35L24.283 26.46L24.303 26.51L24.293 26.63V26.79L24.303 26.85L24.373 26.94L24.433 27.03L24.473 27.08L24.563 27.14L24.663 27.16L24.693 27.11L24.733 27.06L24.793 27.07L24.853 27.15L24.933 27.22L24.993 27.23L25.013 27.19L24.983 27.14L24.953 27.03ZM24.203 27.73L24.253 27.7L24.333 27.61L24.513 27.56L24.573 27.54L24.613 27.49L24.603 27.43L24.583 27.39L24.493 27.24L24.453 27.2L24.363 27.12L24.283 27.04L24.183 26.96L24.093 26.81L24.063 26.76L23.973 26.61L23.953 26.51V26.38L23.983 26.26L24.003 26.21L24.033 26.16V26.1V25.98L24.023 25.86L24.013 25.63L24.003 25.53L23.973 25.42L23.943 25.38L23.893 25.36L23.863 25.4L23.843 25.59L23.783 25.75L23.763 25.82L23.753 26V26.17L23.773 26.3L23.783 26.37V26.43L23.743 26.55L23.713 26.6V26.66L23.783 26.86L23.813 27.02L23.843 27.16L23.883 27.52L23.903 27.58V27.68L23.953 27.72L24.023 27.74L24.153 27.75L24.203 27.73ZM25.583 25.27L25.573 25.21L25.553 25.16L25.493 25.13L25.463 25.17L25.433 25.28L25.383 25.31L25.343 25.29L25.293 25.25L25.203 25.19L25.163 25.23L25.183 25.35V25.4L25.143 25.51L25.133 25.56L25.123 25.73L25.133 25.79L25.153 25.84L25.193 25.88L25.233 25.93L25.273 26.03L25.263 26.21V26.27L25.293 26.32L25.303 26.38L25.313 26.43V26.5L25.283 26.6L25.273 26.83L25.253 26.89V27L25.243 27.06L25.253 27.09V27.26L25.313 27.27H25.373L25.433 27.26L25.463 27.21V27.16L25.433 27.1V26.93L25.403 26.83V26.77L25.463 26.66L25.483 26.61L25.473 26.5L25.493 26.39L25.513 26.28L25.503 26.16L25.443 26.07L25.413 26.02L25.403 25.96L25.423 25.9L25.433 25.85V25.78L25.413 25.62V25.51L25.443 25.47L25.463 25.52L25.483 25.64L25.473 25.82L25.543 25.91L25.593 25.94L25.623 25.96L25.633 26.02L25.623 26.08L25.613 26.2L25.593 26.37L25.553 26.47L25.543 26.54V26.65L25.583 26.83V27.06V27.12L25.613 27.17L25.653 27.2L25.713 27.19L25.763 27.16L25.813 27.12V27.01L25.803 26.95L25.733 26.79L25.723 26.63L25.703 26.57L25.673 26.54V26.48L25.763 26.11V25.99L25.733 25.82L25.673 25.72L25.623 25.57L25.573 25.48V25.42L25.593 25.37V25.32L25.583 25.27ZM26.413 25.1L26.373 25.05L26.333 25.01L26.273 24.92H26.153L26.113 24.96L26.043 25.05L26.013 25.09L25.953 25.11L25.903 25.08L25.843 25.09L25.823 25.14V25.21L25.843 25.26L25.873 25.3L25.923 25.34L25.953 25.38L25.963 25.44L25.953 25.5L25.923 25.55V25.66L25.883 25.78V25.89L25.913 26.01L25.923 26.13V26.25L25.913 26.3V26.58L25.933 26.69L25.953 26.86L26.063 27.05L26.103 27.14L26.213 27.15L26.433 27.11L26.493 27.09L26.553 26.99L26.633 26.92V26.73L26.553 26.58L26.523 26.52L26.473 26.41L26.433 26.37L26.373 26.15L26.303 25.99L26.273 25.93V25.88L26.243 25.69V25.64L26.283 25.46V25.35L26.343 25.34L26.383 25.32L26.423 25.27L26.433 25.21V25.16L26.413 25.1ZM8.02297 25.98L8.12297 25.93L8.18297 25.89L8.29297 25.87L8.33297 25.81L8.44297 25.7L8.43297 25.58L8.38297 25.52L8.23297 25.46L8.12297 25.39L7.83297 24.86L7.71297 24.8L7.65297 24.78L7.32297 24.83L7.10297 24.91L6.96297 25.03L6.90297 25.2L6.91297 25.33L7.11297 25.75L7.29297 25.9L7.35297 25.93L7.54297 25.95L7.76297 26L8.02297 25.98ZM26.953 26.81L26.943 26.74L26.873 26.51L26.863 26.45V26.28L26.843 26.22L26.833 26.17L26.803 26.05V25.41L26.833 25.24L26.823 25.2L26.803 25.15L26.793 25.1L26.763 25.03L26.723 24.91L26.693 24.86L26.653 24.81L26.603 24.78L26.573 24.74L26.453 24.61L26.423 24.56L26.353 24.47L26.243 24.43V24.49L26.253 24.54L26.293 24.58L26.343 24.7L26.433 24.84L26.453 24.9L26.513 25L26.553 25.11L26.563 25.17V25.22L26.593 25.32L26.603 25.44L26.593 25.61L26.573 25.73L26.563 25.86V25.92L26.583 25.97V26.03L26.623 26.14L26.713 26.33L26.743 26.44V26.55L26.763 26.66L26.813 26.83L26.843 26.88L26.893 26.86L26.953 26.87V26.81ZM7.69297 24.51V24.46L7.58297 24.35L7.57297 24.34L7.44297 24.3H7.36297L7.29297 24.35L7.19297 24.39L7.16297 24.42V24.45V24.5L7.18297 24.55L7.20297 24.57L7.23297 24.59H7.30297L7.46297 24.54H7.54297L7.62297 24.56H7.63297L7.67297 24.55L7.69297 24.51ZM27.383 26.97L27.443 26.78L27.363 26.21L27.383 25.59L27.403 25.54V25.48L27.413 25.28V25.16L27.443 25.05L27.493 25.02L27.593 24.98L27.633 24.93V24.82L27.613 24.65L27.603 24.31L27.593 24.26L27.583 24.1L27.553 23.99L27.533 23.94L27.403 23.84L27.353 23.81L27.293 23.8L27.243 23.78H27.193L26.973 23.84L26.943 23.89L26.893 23.94V24.03V24.42L27.083 24.8L27.263 25.41L27.293 25.64L27.283 25.81L27.263 25.87L27.233 26.04L27.193 26.18L27.183 26.41V26.76L27.173 26.82L27.193 26.99L27.383 26.97ZM28.383 26.88L28.353 26.21L28.323 25.83L28.263 25.41L28.123 25.02L28.423 24.64L28.503 24.04L27.933 23.69L27.923 24.42L27.613 25.81L27.683 26.71L27.873 26.92L28.383 26.88ZM7.64297 23.09L7.40297 22.25L6.18297 21.85L5.97297 21.53L5.72297 21.54L5.58297 21.65V22.02L5.87297 23.25L5.93297 23.38L6.31297 23.46L6.93297 23.48L7.54297 23.51L7.64297 23.09ZM6.13297 20.1L6.52297 19.77L6.19297 19.52L5.99297 19.18L5.92297 18.91L5.78297 18.52L5.58297 18.27L5.33297 18.47L5.42297 18.74V18.89L5.33297 19.09L5.36297 19.66L5.57297 20.14L6.13297 20.1ZM4.97297 16.56H4.81297V16.87L5.12297 17.03L4.97297 16.56ZM5.90297 16.41H5.74297V16.56H5.90297V16.41ZM5.43297 16.1H5.28297V16.56H5.59297L5.43297 16.1ZM5.36297 15.32L4.98297 14.38L4.57297 14.52L4.48297 14.84L4.61297 15.08L4.82297 15.63L5.28297 15.78L5.36297 15.32ZM3.90297 14.22H3.74297V14.38H3.90297V14.22ZM4.67297 13.45L4.51297 12.85L4.46297 12.46L4.21297 12.37L4.11297 12.67L4.18297 13.11L4.25297 13.4L4.46297 13.55L4.67297 13.45ZM19.833 8.69H19.523V8.85H19.833V8.69ZM11.053 3.32L11.343 1.85L10.433 1.81L10.463 2.31L10.423 3.21L10.463 3.39L10.533 3.7L11.053 3.32ZM16.473 1.98L15.763 1.69L15.443 1.52L14.973 1.34L14.473 1.58L14.193 2.02L13.363 2.53L13.093 2.72L12.743 3.03L12.083 3.55L11.273 4.03L11.013 4.65L11.073 5.05L11.223 5.1L11.673 4.76L11.933 4.58L12.163 4.29L12.583 4.24L12.913 4.35L13.213 4.02L13.453 3.98L13.743 3.99L13.943 3.55V3.21L14.223 2.88L14.573 2.97L14.783 2.75L15.203 2.62L15.593 2.53L15.723 2.54L15.833 2.99L16.123 3.27L16.153 3.37L16.093 3.47L16.203 3.53V3.74L16.213 3.79L16.253 3.85L16.333 3.81L16.363 3.96H16.463L16.523 4.05L16.473 4.09L16.413 4.12L16.453 4.19L16.523 4.21L16.573 4.23L16.543 4.32L16.633 4.46L16.613 4.6L16.623 4.66L16.703 4.68L16.843 4.62L16.973 4.51L17.053 4.59L17.023 4.69L17.153 4.72L17.313 4.59L17.523 4.49L17.293 5.08L17.373 5.57L17.833 5.3L18.273 5.66L18.463 5.46L18.713 5.97H18.473L18.663 6.25L18.843 6.18L18.943 6.08L18.953 6.26L18.793 6.37L18.873 6.74L18.663 7.22L18.783 7.55L19.043 8.25L20.043 7.36L20.243 7.66L20.223 8.07L20.043 8.23L20.243 9.18L20.443 9.32L20.653 9.43L20.943 9.8L21.073 9.08L21.283 9.3L21.023 9.7L21.073 9.84L21.713 10.31L21.983 10.82L22.743 11.02L22.873 11.12L23.223 11.99L23.423 11.96L23.693 11.84L23.723 12.14L24.143 11.95L24.443 12.11L24.353 12.29V12.85L23.953 12.53L23.723 12.37L23.633 12.49L24.103 12.83L24.703 13.04L24.803 13.26L24.983 13.49L25.093 13.57L25.303 13.61L25.783 13.98L26.353 14.73L26.753 15.25L27.573 15.61L27.983 16.03L28.393 16.09L28.883 15.93L28.933 15.74L29.253 15.7L29.223 15.93L29.143 16.1L28.983 16.19L29.003 16.36L29.283 16.18L29.273 16.05L29.363 16.1L29.803 15.92L29.883 15.93L29.823 16.11L29.243 16.31L29.333 16.69L29.493 16.71L29.563 16.86L29.603 17.02L29.503 17.3L30.113 16.82L30.343 16.72L30.573 16.85L30.743 16.6L31.263 16.62L31.743 17.44L31.733 17.73L31.943 17.95L31.803 17.96L31.643 18.03L31.593 17.96L31.563 17.9V17.67L31.483 17.77L31.363 17.87L31.183 18.04L31.023 18.61L30.703 19.35L30.833 19.53L31.323 19.69L30.793 20.39L31.063 20.96L30.903 21.81L30.743 22.26L30.833 22.8L31.103 23.01L31.473 22.81L31.743 23.14L31.673 23.71L32.273 24.91L31.603 25.69L31.213 25.72L30.933 25.66L30.673 25.71L30.513 25.77L30.433 25.82V25.89L30.353 25.98L30.443 26.04L30.613 26L30.943 26.27L31.153 26.36L31.163 26.51L30.883 26.42L30.773 26.23L30.433 26.13L30.093 26.22L30.053 26.28L30.083 26.38L30.033 26.52L29.943 26.39L29.833 26.26L29.813 26.12L29.903 26.04L29.933 25.91L30.073 25.81L30.063 25.72L30.233 25.69L30.333 25.76L30.363 25.8L30.423 25.76V25.69L30.173 25.44L30.053 25.41L29.923 25.32L29.833 25.11L29.503 25.03L28.773 25.31V25.69L28.963 26L28.883 26.56L29.043 26.77L29.953 27.16L30.913 27.02L32.233 26.98L33.053 26.9L33.333 26.52L33.463 26.05L33.423 25.74L33.153 24.89L32.953 24.34L32.263 21.2L32.043 21.03L32.003 20.45L32.253 20.32L32.363 19.55L32.863 17.87L33.003 16.53L32.793 16.15L31.923 15.34L31.263 15.04L29.433 14.19L27.473 13.05L26.053 12.26L24.503 11L23.673 10.35L22.603 9.01L21.223 7.61L20.193 7.23L20.203 6.76L19.853 6.49L19.563 5.8L18.423 4.47L17.853 3.73L17.673 3.5L17.303 2.98L17.073 2.68L16.473 1.98ZM4.16297 1L3.12297 1.07L2.76297 1.12L2.34297 1.22L1.70297 1.27L1.27297 1.51L0.752969 1.68L0.622969 1.86L0.382969 1.99L0.302969 2.44L0.292969 2.95L0.732969 4.73L1.03297 5.18L1.59297 5.6L1.95297 6.13L2.03297 6.38L2.26297 6.69L2.35297 6.98L2.50297 7.24L2.72297 7.59L2.87297 7.98L2.90297 8.1L2.95297 8.29L3.47297 10.36L3.69297 10.7L3.81297 10.42L3.58297 9.13L3.24297 7.93L3.66297 7.32L3.72297 7.07L3.70297 6.96H3.64297L3.48297 6.37L3.35297 6.24L3.24297 6.2L3.14297 6.02L3.02297 5.84L2.72297 5.52L2.65297 5.33L2.46297 4.96V4.69L2.49297 4.52L2.46297 4.32L2.39297 4.26L2.44297 4.05L2.34297 3.73L2.20297 3.79L2.22297 3.98L2.17297 4.01L1.97297 4.27L1.83297 4.24L1.76297 4.11L1.84297 4.06L1.90297 3.89L1.84297 3.7L1.79297 3.41L1.90297 3.19L1.86297 3.06L2.08297 2.78L2.31297 2.95L2.57297 2.54L2.87297 2.16L3.43297 2.38L3.84297 2.39L3.97297 2.48L4.29297 2.7L4.44297 2.49L4.65297 2.59L4.68297 2.82L4.94297 2.86L5.09297 2.67L5.45297 2.89L5.62297 2.81L5.91297 2.97L6.07297 3.35L7.06297 3.41L7.28297 3.26L7.36297 2.22L7.46297 2.23L7.43297 3.46L7.42297 3.67L7.72297 3.48H7.83297L8.03297 3.08L8.23297 2.22L8.22297 2.03V1.71L7.53297 1.39L4.16297 1Z" fill="#CCCCCC" stroke="white" stroke-width="0.5"/>
</svg>
