<svg width="801" height="2291" viewBox="0 0 801 2291" fill="none" xmlns="http://www.w3.org/2000/svg">
<path d="M417.152 1930.26L415.982 1927.62L413.522 1931.1L411.152 1936.2L410.412 1938.32L407.332 1943.95L405.312 1946.57L398.962 1949.36L397.322 1953.35L397.662 1958L399.532 1961.71L396.432 1963.58L395.172 1964.08V1966.43L404.332 1973.4L408.392 1977.59L410.412 1982.8L415.392 1985.79L417.412 1982.33L417.152 1960.85L418.972 1948.19L419.142 1943L417.152 1930.26Z" fill="#CCCCCC" stroke="white" stroke-width="0.5"/>
<path d="M458.852 1577.77L459.922 1573.07L459.382 1570.88L454.372 1572.24L452.082 1572.6L450.212 1574.01L449.672 1576.39L453.172 1579.52L457.252 1580.38L458.852 1577.77ZM606.892 1428.25L608.502 1423.22L608.932 1416.54L611.462 1410.58L610.202 1409.76L606.712 1408.38L605.142 1408.04L603.862 1413.23L601.532 1417.57L598.162 1420.63L593.842 1422.18L594.872 1424.55L596.372 1426.37L598.332 1427.86L600.772 1429.13L606.892 1428.25ZM374.682 1415.33L375.262 1405.15L372.922 1395.88L367.832 1391.88L363.892 1391.66L361.022 1392.1L359.092 1394.86L357.932 1401.31L358.202 1404.68L362.092 1415.22L361.982 1416.54L362.342 1417.4L362.092 1417.54L365.772 1419.08L367.442 1420.22L369.032 1422.18L371.012 1419.64V1422.18L374.682 1415.33ZM622.372 1404.46L624.732 1400.15L625.762 1396.04L627.632 1391.93L628.592 1387.57L626.912 1382.61L622.912 1386.75L620.292 1391.41L617.102 1395.85L611.472 1398.99L612.632 1402.75L617.302 1404.95L622.372 1404.46ZM383.602 1382.66L385.482 1375.41L381.602 1371.85L378.792 1374.58L378.052 1380.32L378.842 1383.85L383.602 1382.66ZM631.202 1369.59L629.932 1366.09L625.822 1364.27L623.612 1362.78L622.022 1355.36L620.382 1352.52L615.552 1351.45L617.022 1357.68L621.242 1366.01L624.732 1371.02L629.522 1372.13L631.202 1369.59Z" fill="#CCCCCC" stroke="white" stroke-width="0.5"/>
<path d="M784.491 131.17L784.211 130.01L782.851 129.98L782.631 131.87L783.751 132.85L784.491 131.17ZM796.321 134.79L799.751 129.06L799.941 124.53L798.341 124.45L794.151 127.07L787.471 130.33L784.151 133.33L783.991 135.82L786.661 139.3L791.641 139.36L796.321 134.79ZM800.491 97.63L799.011 96.39L800.431 100.33L800.491 97.63ZM188.471 1L178.121 3.16L171.871 8.49L170.941 15.18L176.481 21.55L185.981 22.46L192.791 14.91L194.441 5.58L188.471 1Z" fill="#CCCCCC" stroke="white" stroke-width="0.5"/>
<path d="M504.683 1089.17L507.943 1086.62L509.033 1082.75L506.793 1078.64L501.763 1076.69L498.053 1079.16L497.133 1084.04L500.423 1089.47L504.683 1089.17ZM736.433 1018.27L736.073 1014.62L732.053 1011.72L730.043 1009.22L727.813 1007.06L722.993 1005.2L718.693 1004.81L712.863 1005.2L707.753 1006.43L705.563 1008.76L700.943 1017.85L691.973 1022.62L685.933 1027.64L690.103 1037.59L691.973 1037.48L693.413 1037.59L694.343 1037.2L694.663 1035.34L699.453 1037.53L700.893 1034.3L701.943 1029.28L705.563 1026.13L707.013 1027.78L708.953 1031.59L708.693 1035.53L703.583 1037.59L705.893 1045.54L708.103 1049.38L712.083 1051.62L712.073 1045.87L713.553 1040.11L716.523 1036.6L721.003 1037.59L722.723 1034.05L725.353 1030.74L722.593 1027.72L722.283 1025.2L724.083 1023.17L727.553 1021.53L733.653 1028.65L736.143 1025.25L736.433 1018.27Z" fill="#CCCCCC" stroke="white" stroke-width="0.5"/>
<path d="M3.74203 2290.04H4.76203L6.41203 2289.11L7.60203 2287.68L5.65203 2285.94L2.69203 2284.9L1.17203 2285.24L0.832031 2286.95L1.93203 2288.78L3.74203 2290.04ZM289.292 1871.79L285.832 1870.34L281.182 1865.39L283.342 1860.94L288.392 1856.57L292.362 1851.7L283.952 1854.65L276.562 1860.94L273.522 1869.26L278.112 1878.53L285.992 1889.67L289.012 1891.4L293.002 1892.12L297.522 1893.9L305.432 1898.58L307.832 1896.02L323.032 1903.65L327.232 1907.72L332.352 1917.56L335.582 1920.4L342.472 1921.99L345.972 1921.37L349.562 1920.2L352.412 1917.86L353.582 1913.79L352.952 1910.2L351.862 1906.35L351.342 1902.7L352.492 1899.75L370.642 1886.3L373.392 1883.29L373.702 1877.95L372.512 1875.27L369.032 1872.68L365.252 1871.85L360.962 1872.27L356.852 1873.46L353.582 1875.02L348.972 1879.59L347.112 1884.29L345.232 1887.89L340.492 1889.06L337.902 1888.22L332.252 1885.05L328.322 1884.38L324.982 1885.55L321.792 1887.89L318.592 1889.31L315.242 1887.97L313.922 1884.46L316.132 1881.62L320.892 1878.53L320.102 1874.77L318.072 1872.63L315.562 1871.1L313.172 1869.18L310.222 1868.34L292.132 1871.9L289.292 1871.79Z" fill="#CCCCCC" stroke="white" stroke-width="0.5"/>
</svg>
