<svg width="800" height="800" viewBox="0 0 800 800" fill="none" xmlns="http://www.w3.org/2000/svg">
<path d="M799.622 798.79L799.752 794.66L798.582 792.22L798.032 791.98L799.192 794.9L799.442 799.23L799.622 798.79ZM793.772 786.4L792.682 783.42L791.532 782.63L791.442 782.88L792.362 784.13L793.462 786.87L793.772 786.4ZM652.432 608.63L654.082 606.63L653.652 604.65L651.902 601.9L651.722 596.68L650.242 593.81L649.852 598.28L649.972 601.76L650.862 604.3L651.242 606.28L650.382 608.54L648.522 611.22L652.432 608.63ZM479.302 501.11L477.722 503.82L476.102 507.41L475.642 510.17L477.172 510.38L479.302 501.11ZM543.442 387.47L543.292 385.37L542.812 383.53L542.222 383.32L537.342 378.99L537.922 381.03L541.052 386.97L542.882 388.49L543.442 387.47ZM217.782 324.67L217.722 323.79L217.102 322.33L217.162 322.8L217.582 323.8L217.632 324.29V324.91L217.782 324.67ZM42.1622 132.25L42.2722 130.92L41.4822 131.01L40.4422 133.79L42.1622 132.25ZM260.682 94.76L260.752 93.86L259.102 93.01L256.642 92.51L256.852 93.12L257.212 93.86L258.102 95.24L260.682 94.76ZM1.47219 1L0.492188 1.35L2.60219 4.25L5.39219 7.21L3.69219 3.06L1.47219 1Z" fill="#CCCCCC" stroke="white" stroke-width="0.5"/>
</svg>
