<svg width="495" height="495" viewBox="0 0 495 495" fill="none" xmlns="http://www.w3.org/2000/svg">
<circle cx="247.5" cy="247.5" r="247.5" fill="#0C2E5C"/>
<path d="M239.089 47.2328L79.3516 147.007M239.089 47.2328L413.76 147.007M239.089 47.2328V128.867M79.3516 147.007V346.557M79.3516 147.007L239.089 128.867M79.3516 147.007L139.536 303.926M79.3516 346.557L239.089 445.878M79.3516 346.557L139.536 303.926M239.089 445.878L413.76 346.557M239.089 445.878L139.536 303.926M239.089 445.878L335.475 303.926M413.76 346.557V147.007M413.76 346.557L335.475 303.926M413.76 147.007L239.089 128.867M413.76 147.007L335.475 303.926M239.089 128.867L139.536 303.926M239.089 128.867L335.475 303.926M139.536 303.926H335.475" stroke="white" stroke-width="13"/>
</svg>
