<?xml version="1.0" encoding="utf-8" ?>
<svg xmlns="http://www.w3.org/2000/svg" xmlns:xlink="http://www.w3.org/1999/xlink" width="1827" height="1218">
	<path fill="#F2AC05" transform="scale(1.18945 1.18945)" d="M770.615 0L1536 0L1536 1024L-0 1024L0 -0L765.351 0L767.219 0L770.615 0Z"/>
	<path fill="#FFF200" transform="scale(1.18945 1.18945)" d="M1209.03 188.441C1211.66 188.207 1214.94 187.921 1217.5 188.507C1221.16 189.343 1224.81 192.309 1226.62 195.506C1228.42 198.68 1228.93 202.844 1227.77 206.3C1226.26 210.813 1223.04 213.461 1218.98 215.634C1216.13 216.158 1212.83 216.671 1209.98 215.88C1206.54 214.922 1203.39 212.301 1201.7 209.168C1199.63 205.325 1199.58 200.574 1200.87 196.486C1202.24 192.129 1205.25 190.401 1209.03 188.441Z"/>
	<path fill="#FFF200" transform="scale(1.18945 1.18945)" d="M1267.27 284.435C1269.29 284.655 1271.31 284.888 1273.22 285.624C1277.07 287.109 1280.14 289.845 1281.71 293.718C1282.99 296.861 1282.9 301.815 1281.4 304.873C1278.94 309.913 1275.2 311.495 1270.3 313.35C1267.48 313.132 1264.43 313.076 1261.9 311.694C1258.55 309.861 1256.09 306.598 1254.95 302.991C1253.78 299.309 1253.89 295.269 1255.84 291.852C1258.54 287.12 1262.36 285.767 1267.27 284.435Z"/>
	<path fill="#FFF200" transform="scale(1.18945 1.18945)" d="M269.603 288.2C272.675 288.18 275.41 288.197 278.25 289.568C281.811 291.286 284.089 294.525 285.357 298.198C286.529 301.59 286.218 306.326 284.656 309.559C282.351 314.329 278.547 316.008 273.829 317.56C270.925 317.481 267.943 317.343 265.302 315.998C261.18 313.899 258.687 310.5 257.385 306.126C256.285 302.431 256.855 298.542 258.745 295.197C261.106 291.02 265.204 289.354 269.603 288.2Z"/>
	<path fill="#FFF200" transform="scale(1.18945 1.18945)" d="M318.029 187.643C320.957 187.38 324.42 187.154 327.306 187.713C331.083 188.446 334.158 191.067 336.1 194.324C338.247 197.925 338.948 202.455 337.795 206.521C336.159 212.294 332.752 214.758 327.609 217.419C324.911 217.554 321.751 217.966 319.11 217.321C314.901 216.294 311.136 213.527 309.102 209.676C307.184 206.046 306.91 201.141 308.241 197.273C310.075 191.942 313.103 189.954 318.029 187.643Z"/>
	<path fill="#E65609" transform="scale(1.18945 1.18945)" d="M1017.9 169.769C1029.53 164.625 1043.06 162.07 1055.74 161.533C1072.28 160.832 1087.23 162.358 1103.21 156.815C1097.94 163.025 1091.08 168.333 1084.66 173.335L1047.99 200.635L1017.9 169.769Z"/>
	<path fill="#D2230E" transform="scale(1.18945 1.18945)" d="M1091.79 610.372L1111.54 568.651C1128.79 576.954 1147.19 583.881 1165.08 590.66C1170.22 592.607 1175.89 595.577 1181.22 596.532C1152.02 604.06 1121.79 607.82 1091.79 610.372Z"/>
	<path fill="#F58B09" transform="scale(1.18945 1.18945)" d="M548.705 65.1747L576.746 127.927L553.475 142.91L540.056 152.891C537.632 154.734 534.959 157.181 532.186 158.393C532.95 137.345 540.039 118.749 544.607 98.4548C547.064 87.5391 548.046 76.3184 548.705 65.1747Z"/>
	<path fill="#FDFCF5" transform="scale(1.18945 1.18945)" d="M1250.81 221.679C1253.91 221.405 1256.96 224.921 1259.48 226.871L1268.4 220.812C1270.54 222.186 1272.92 223.576 1274.87 225.222C1276.82 226.874 1277.4 228.535 1279.88 229.877C1281.22 230.603 1282.68 231.245 1283.43 232.643C1285.7 236.889 1290.45 239.888 1294.18 242.889L1269.02 265.829C1266.07 263.805 1263.47 261.203 1260.83 258.8C1257.85 259.871 1254.37 263.529 1251.86 265.584L1226.04 243.025C1228.89 240.855 1233.06 238.361 1235.34 235.683C1236.06 234.828 1236.28 233.742 1237.05 232.932C1239.05 230.842 1242.51 229.877 1244.01 227.33C1245.7 224.45 1247.98 223.216 1250.81 221.679Z"/>
	<path fill="#FDFCF5" transform="scale(1.18945 1.18945)" d="M273.317 218.678C275.561 218.012 277.932 218.025 280.255 218.23C284.106 218.571 285.372 221.179 287.625 223.922L289.875 223.613L291.514 226.049L295.875 227.647C297.415 229.639 297.499 229.678 297.389 232.182L298.179 232.366L299.25 232.641C302.93 233.37 308.564 240.042 311.757 242.736C308.276 244.951 301.886 247.84 300.65 251.686C298.687 253.322 296.944 254.862 294.499 255.746L294.018 255.907C293.515 258.362 292.417 259.43 290.625 261.108C289.805 261.219 289.248 261.321 288.438 261.06L287.939 260.86C286.204 263.501 284.696 264.488 281.965 265.915C280.017 266.143 277.804 266.524 275.854 266.29C272.703 265.912 270.194 263.822 268.519 261.276L268.149 260.689L264.375 260.812C262.41 258.969 262.145 258.805 261.644 256.188C260.371 255.701 258.797 255.642 257.625 255.039C255.505 253.947 254.668 252.974 254.001 250.778C249.933 248.318 246.382 245.028 242.768 241.958C246.743 239.841 249.895 236.266 254.133 234.674L254.625 234.505L255.106 231.432C256.968 229.6 258.992 228.897 261.375 227.999L261.859 226.18C264.123 224.414 264.937 224.402 267.693 224.128C269.389 221.576 270.5 220.082 273.317 218.678Z"/>
	<path fill="#DBE3E3" transform="scale(1.18945 1.18945)" d="M274.424 232.646C276.258 232.55 278.198 232.402 280.015 232.722C284.564 233.522 286.554 236.843 289.081 240.305C286.993 246.167 286.206 248.666 280.746 251.818C279.05 252.135 276.603 252.421 274.875 252.099C272.528 251.663 270.133 250.008 268.734 248.091C267.253 246.063 266.446 242.262 267.139 239.829C268.209 236.075 271.263 234.39 274.424 232.646Z"/>
	<path fill="#F58B09" transform="scale(1.18945 1.18945)" d="M428.002 160.95L481.619 208.947L453.361 248.944L451.608 248.993C451.24 246.275 449.616 243.332 448.575 240.782L444.126 228.265L433.973 189.719C431.703 180.251 429.062 170.633 428.002 160.95Z"/>
	<path fill="#E65609" transform="scale(1.18945 1.18945)" d="M902.971 100.007C908.632 94.6852 916.1 90.4662 922.934 86.9059C943.445 76.2205 967.101 70.493 985.906 57.034C982.236 65.1714 976.876 72.8764 972.35 80.5886L948.275 120.813L902.971 100.007Z"/>
	<path fill="#E65609" transform="scale(1.18945 1.18945)" d="M1089.75 259.553C1102.05 256.525 1114.02 256.51 1126.43 259.014C1147.54 263.272 1166.85 272.543 1188.86 269.22C1183.02 273.755 1174.29 275.233 1167.35 277.622C1147.97 284.294 1127.94 291.823 1108.06 296.676L1089.75 259.553Z"/>
	<path fill="#D2230E" transform="scale(1.18945 1.18945)" d="M767.219 0L770.615 0L820.522 78.3774C805.052 75.4032 787.659 75.26 771.95 75.0083L768.1 74.1528C766.86 68.1453 767.777 60.3828 767.787 54.2014C767.818 36.2065 768.578 17.9295 767.219 0Z"/>
	<path fill="#F58B09" transform="scale(1.18945 1.18945)" d="M421.359 567.225L443.163 613.275C442.315 614.05 442.159 614.118 441.03 614.344C439.405 613.469 436.649 613.597 434.82 613.432L417 611.848L362.885 606.215C359.497 605.86 351.373 606.143 348.75 604.588C348.348 604.349 348.142 603.877 347.838 603.522L349.392 601.637L350.026 602.099C355.719 600.972 362.821 596.297 368.157 593.783C375.849 590.16 417.874 571.678 421.359 567.225Z"/>
	<path fill="#E65609" transform="scale(1.18945 1.18945)" d="M358.598 280.458C369.471 274.283 380.419 269.695 392.197 265.506C409.964 259.186 427.814 254.699 446.722 258.143L424.416 303.816C415.09 298.833 402.794 295.991 392.75 292.644L361.473 281.62L361.367 281.329L358.598 280.458Z"/>
	<path fill="#D2230E" transform="scale(1.18945 1.18945)" d="M428.002 160.95C425.81 157.932 423.336 154.895 421.618 151.586C424.591 154.498 427.096 157.38 431.25 158.467C459.529 165.864 491.867 158.29 519.373 169.72C506.633 182.059 492.336 194.81 481.619 208.947L428.002 160.95Z"/>
	<path fill="#D2230E" transform="scale(1.18945 1.18945)" d="M548.705 65.1747L546.03 57.3039C548.83 60.2828 551.718 63.6717 555.24 65.7901C573.556 76.8078 596.156 84.1647 616.165 91.6086C620.614 93.264 626.273 96.3471 630.883 96.8671L634.589 99.3993L576.746 127.927L548.705 65.1747Z"/>
	<path fill="#F06B10" transform="scale(1.18945 1.18945)" d="M765.351 0L767.219 0C768.578 17.9295 767.818 36.2065 767.787 54.2014C767.777 60.3828 766.86 68.1453 768.1 74.1528L771.95 75.0083L767.87 75.0099C749.57 74.5344 730.308 76.1453 712.245 79.1234L710.788 78.3645C716.349 67.7551 724.869 57.5595 731.825 47.7104L765.351 0Z"/>
	<path fill="#E65609" transform="scale(1.18945 1.18945)" d="M1103.21 156.815L1112.47 150.98C1110.29 153.846 1107.91 156.701 1106.08 159.806C1097.42 188.033 1099.81 221.213 1082.36 246.161C1078.99 243.155 1076.16 237.76 1073.57 234.009L1058.89 213.779L1047.99 200.635L1084.66 173.335C1091.08 168.333 1097.94 163.025 1103.21 156.815Z"/>
	<path fill="#D2230E" transform="scale(1.18945 1.18945)" d="M1103.21 156.815L1112.47 150.98C1110.29 153.846 1107.91 156.701 1106.08 159.806C1088.43 176.16 1074.11 195.322 1058.89 213.779L1047.99 200.635L1084.66 173.335C1091.08 168.333 1097.94 163.025 1103.21 156.815Z"/>
	<path fill="#E65609" transform="scale(1.18945 1.18945)" d="M386.689 333.767L353.904 283.016C351.236 279.033 345.84 274.73 343.875 270.733C348.695 274.465 353.163 277.673 358.598 280.458L361.367 281.329L361.473 281.62L392.75 292.644C402.794 295.991 415.09 298.833 424.416 303.816L419.977 315.34L406.791 357.74L391.539 340.239L386.689 333.767Z"/>
	<path fill="#D2230E" transform="scale(1.18945 1.18945)" d="M361.473 281.62L392.75 292.644C402.794 295.991 415.09 298.833 424.416 303.816L419.977 315.34L361.473 281.62Z"/>
	<path fill="#D2230E" transform="scale(1.18945 1.18945)" d="M985.906 57.034L991.238 51.4935C985.135 77.1838 996.116 104.903 998.316 130.799C998.911 137.8 998.311 143.92 997.618 150.861L996.353 152.606L948.275 120.813L972.35 80.5886C976.876 72.8764 982.236 65.1714 985.906 57.034Z"/>
	<path fill="#A41601" transform="scale(1.18945 1.18945)" d="M397.767 520.025L404.993 509.344C409.123 529.026 414.014 548.471 421.359 567.225C417.874 571.678 375.849 590.16 368.157 593.783C362.821 596.297 355.719 600.972 350.026 602.099L349.392 601.637L395.251 524.259L397.767 520.025Z"/>
	<path fill="#A41601" transform="scale(1.18945 1.18945)" d="M1111.54 568.651L1128.77 512.996L1137.85 521.367L1142.37 526.522C1157.93 547.741 1168.9 572.059 1181.77 594.923L1181.22 596.532C1175.89 595.577 1170.22 592.607 1165.08 590.66C1147.19 583.881 1128.79 576.954 1111.54 568.651Z"/>
	<path fill="#D2230E" transform="scale(1.18945 1.18945)" d="M1188.86 269.22C1190.85 268.657 1193.38 267.567 1195.43 267.743C1179.03 280.121 1171.4 298.695 1162.21 316.43C1158.14 324.285 1153.43 331.673 1148.33 338.89C1141.87 345.911 1135.79 351.406 1127.76 356.602C1127.84 353.647 1126.25 349.466 1125.5 346.496C1121.22 329.36 1114.91 312.926 1108.06 296.676C1127.94 291.823 1147.97 284.294 1167.35 277.622C1174.29 275.233 1183.02 273.755 1188.86 269.22Z"/>
	<path fill="#54D591" transform="scale(1.18945 1.18945)" d="M852.722 84.3169C843.938 77.9158 838.108 70.0195 836.542 58.9738C835.335 50.4621 838.135 41.6132 843.4 34.9089C849.245 27.4669 857.961 22.2597 867.442 21.2717C876.114 20.3681 885.211 23.4584 891.824 29.0476C898.239 34.47 903.183 43.1361 903.782 51.5861C904.457 61.1232 901.768 70.3804 895.373 77.6268C889.08 84.757 880.055 88.1885 870.711 88.6698L868.339 88.7428C862.849 87.9369 857.874 86.2827 852.722 84.3169Z"/>
	<path fill="#FDFCF5" transform="scale(1.18945 1.18945)" d="M865.449 41.388C868.141 40.9707 871.677 40.7409 874.332 41.49C878.144 42.5654 881.173 45.4657 882.987 48.9024C884.478 51.7261 885.048 56.0753 883.941 59.167C882.283 63.8001 878.543 65.9734 874.392 68.1226C871.859 68.439 868.564 68.7242 866.068 68.1158C862.567 67.2627 859.214 64.5117 857.461 61.4028C855.682 58.2492 855.424 54.5758 856.368 51.1333C857.751 46.09 861.145 43.7496 865.449 41.388Z"/>
	<path fill="#54D591" transform="scale(1.18945 1.18945)" d="M662.473 89.1425C653.842 88.0422 647.248 86.4025 640.758 80.1462C634.69 74.2965 630.668 65.8898 630.554 57.3859C630.426 47.7974 633.293 37.7801 640.209 30.8522C646.484 24.568 655.597 20.9075 664.433 20.934C673.584 20.9614 682.742 24.3805 689.13 31.0462C695.347 37.5333 699.355 46.8406 698.977 55.8886C698.491 67.5529 692.126 75.4109 683.958 82.9123C677.119 86.7321 670.426 89.2127 662.473 89.1425Z"/>
	<path fill="#FDFCF5" transform="scale(1.18945 1.18945)" d="M661.716 40.5368C664.601 40.3899 666.95 40.4963 669.613 41.7258C673.516 43.5276 676.601 46.4572 677.991 50.5926C679.132 53.9879 678.761 58.211 677.023 61.3649C674.638 65.692 671.04 67.547 666.518 68.9281C664.407 69.0008 662.048 68.8811 660 68.2865C656.096 67.153 652.922 64.4111 651.161 60.7648C649.64 57.6146 649.26 54.3311 650.489 51.0193C652.495 45.6123 656.685 42.8032 661.716 40.5368Z"/>
	<path fill="#0DB074" transform="scale(1.18945 1.18945)" d="M1208.27 961.959C1212.72 962.356 1220.02 960.117 1224.69 959.349L1250.03 956.064C1299.99 951.018 1352.18 949.224 1401.36 961.034C1432.76 970.041 1455.24 983.036 1473.13 1010.87L1174.75 1010.64C1181.93 1008.13 1187.45 1005.51 1192.97 1000.12C1203.1 990.232 1208.1 975.874 1208.27 961.959Z"/>
	<path fill="#0A8050" transform="scale(1.18945 1.18945)" d="M1482.86 826.941L1484.01 828.202C1472.08 867.132 1449.52 904.243 1423.98 935.686C1416.87 944.441 1409.66 953.355 1401.36 961.034C1352.18 949.224 1299.99 951.018 1250.03 956.064L1224.69 959.349C1220.02 960.117 1212.72 962.356 1208.27 961.959L1207.91 954.591L1482.86 826.941Z"/>
	<path fill="#FFF200" transform="scale(1.18945 1.18945)" d="M1171.42 338.531C1182.16 337.412 1192.71 337.923 1203.46 338.068L1240.48 338.219L1270.91 338.274C1276.38 338.273 1282.47 337.79 1287.86 338.592C1294.76 339.618 1301.21 341.969 1306.65 346.413C1315.04 353.262 1320.27 362.488 1321.19 373.325L1321.42 379.462C1332.55 379.019 1342.92 378.738 1351.73 386.719C1357.8 392.22 1360.67 398.438 1360.91 406.673C1361.07 412.474 1358.32 416.842 1354.98 421.336C1363.08 418.707 1371.18 416.98 1379.56 415.511C1381.85 415.109 1384.61 414.11 1386.69 415.186C1389.21 416.489 1398.29 421.121 1399.35 423.133C1396.43 422.193 1391.83 419.442 1389.13 419.211C1387.26 419.052 1383.38 420.358 1381.38 420.763L1350.72 428.116C1366.92 426.63 1382.63 424.617 1399 425.612C1401.27 425.67 1402.65 425.469 1404.75 425.118C1407.46 424.667 1417.63 428.847 1420.53 429.945C1414.09 432.698 1406.21 436.308 1399.29 437.261C1395.27 437.817 1391.02 437.241 1387.06 437.904L1395.85 440.733L1395.01 441.75L1393.79 441.736L1351.36 434.19C1359.66 438.493 1369.42 440.687 1378.5 442.715C1382.8 443.675 1387.4 445.094 1391.83 444.359C1390.13 446.43 1388.97 447.681 1386.38 448.671C1374.56 448.277 1365.4 443.647 1354.47 440.303C1358.59 444.899 1361.41 448.952 1361.05 455.425C1360.64 462.752 1357.45 470 1351.78 474.789C1343.15 482.08 1332.32 482.584 1321.54 481.727C1321.56 494.538 1318.06 505.111 1308.75 514.326C1303.04 519.983 1295.35 524.231 1287.38 525.611C1281.35 526.656 1274.56 526.273 1268.45 526.252L1237.7 526.134L1142.37 526.522L1137.85 521.367C1155.07 521.578 1173.98 524.511 1188.97 514.434C1199.35 507.462 1203.93 497.277 1206.23 485.387C1208.48 484.861 1215.65 488.03 1218.32 488.654C1230.33 491.456 1244.1 490.997 1255.69 486.74C1271.58 480.901 1285.8 469.493 1292.88 453.842C1299.24 439.787 1299.26 422.553 1293.65 408.238C1287.85 393.458 1274.92 380.927 1260.43 374.708C1242.35 366.946 1224.15 368.748 1206.35 375.897C1205.31 369.751 1203.54 364.017 1200.19 358.725C1193.31 347.856 1183.94 341.336 1171.42 338.531Z"/>
	<path fill="#F2AC05" transform="scale(1.18945 1.18945)" d="M1372.94 430.89C1383.89 430.428 1396.61 429.554 1407.38 431.669C1405.35 432.636 1403.03 432.825 1400.83 433.177C1395.99 433.799 1390.8 434.786 1385.91 434.784C1378.83 434.781 1371.26 433.068 1364.25 431.888L1372.94 430.89Z"/>
	<path fill="#FFF200" transform="scale(1.18945 1.18945)" d="M386.689 333.767L391.539 340.239C375.55 336.616 359.55 336.632 345.174 345.661C334.177 352.568 326.915 361.179 321.807 373.033C305.066 368.419 284.834 370.437 269.727 378.993C256.274 386.613 244.208 398.963 240.074 414.194C235.66 430.459 238.172 445.419 246.614 459.943C254.907 474.213 268.597 483.947 284.421 488.1C296.682 491.317 310.316 491.425 322.684 488.849C331.852 504.365 342.587 515.752 360.68 520.388C372.935 523.529 385.649 523.724 397.767 520.025L395.251 524.259C367.386 526.216 339.155 524.522 311.234 524.472L269.654 524.385C260.502 524.358 250.956 524.962 241.961 523.11C233.333 521.334 224.705 516.106 219.877 508.568C213.13 498.033 213.323 489.596 215.837 477.775C204.738 479.879 194.086 478.126 184.651 471.743C175.411 465.493 172.839 457.729 170.73 447.299C174.596 441.821 178.928 438.756 184.561 435.268L166.15 442.564C164.241 443.397 157.378 446.973 155.706 446.84C154.741 446.764 151.786 444.789 150.75 444.315L135.879 437.884L113.368 429.272L132.417 421.444C139.294 418.64 147.532 415.931 152.57 410.329L153.245 409.567L180.268 419.907C177.77 418.059 174.465 415.966 172.643 413.424C170.92 411.022 170.155 408.053 170.639 405.148C171.838 397.95 177.393 391.822 183.099 387.676C194.32 379.52 203.166 378.892 216.471 380.941C215.795 378.105 215.366 375.319 215.283 372.398C215.014 362.937 220.488 352.605 226.875 345.939C231.721 340.882 239.098 336.655 245.932 335.17C256.719 332.825 269.344 334.503 280.392 334.36L386.689 333.767Z"/>
	<path fill="#F58B09" transform="scale(1.18945 1.18945)" d="M151.738 417.133C157.08 416.785 165.39 420.493 170.676 422.098L149.904 422.643L149.073 422.748L129.794 424.459L151.738 417.133Z"/>
	<path fill="#F2AC05" transform="scale(1.18945 1.18945)" d="M125.634 431.326L169.125 434.645L166.609 435.806L155.56 440.408L125.634 431.326Z"/>
	<path fill="#F58B09" transform="scale(1.18945 1.18945)" d="M140.759 426.432C154.916 424.751 171.175 426.414 185.295 427.978C179.604 429.325 173.273 429.184 167.437 429.503L156.226 429.692L133.101 428.971C130.488 428.912 124.568 429.582 122.935 427.979L140.759 426.432Z"/>
	<path fill="#0A8050" transform="scale(1.18945 1.18945)" d="M1087.28 669.312L1123.45 649.278C1149.99 636.689 1176.44 626.018 1204.74 617.886C1207.39 617.123 1213.65 614.498 1216.12 615.381L1215.99 618.088L1203.96 671.372C1198.54 686.532 1194.11 701.909 1187.99 716.856C1171.01 758.329 1142.71 799.89 1102.61 821.936C1085.05 805.381 1065.74 789.027 1043.39 779.407L1039 777.835C1038.54 769.81 1036.71 761.619 1035.33 753.696L1027.13 710.002L1087.28 669.312Z"/>
	<path fill="#0DB074" transform="scale(1.18945 1.18945)" d="M1087.28 669.312L1123.45 649.278C1149.99 636.689 1176.44 626.018 1204.74 617.886C1207.39 617.123 1213.65 614.498 1216.12 615.381L1215.99 618.088C1199.24 632.427 1184.01 648.825 1168.01 664.008L1084.56 741.424L1059.73 764.673C1054.5 769.649 1049.32 775.283 1043.39 779.407L1039 777.835C1038.54 769.81 1036.71 761.619 1035.33 753.696L1027.13 710.002L1087.28 669.312Z"/>
	<path fill="#0A8050" transform="scale(1.18945 1.18945)" d="M319.034 616.694L317.775 612.525L318.375 611.616L439.848 665.586L448.182 670.006L503.887 701.44L508.222 697.093L512.339 699.745C511.969 701.857 511.804 703.915 510.547 705.708L510.586 708.365L503.01 737.119L492.927 774.074L492.147 776.176C489.025 777.288 486.086 778.423 483.167 780.003L422.108 829.294L395.728 796.355C367.246 757.547 344.768 713.003 330.856 666.948L319.034 616.694Z"/>
	<path fill="#0DB074" transform="scale(1.18945 1.18945)" d="M319.034 616.694L317.775 612.525L318.375 611.616L439.848 665.586L448.182 670.006L503.887 701.44L508.222 697.093L512.339 699.745C511.969 701.857 511.804 703.915 510.547 705.708L510.586 708.365L503.01 737.119L492.927 774.074L492.147 776.176C489.025 777.288 486.086 778.423 483.167 780.003L319.034 616.694Z"/>
	<path fill="#0A8050" transform="scale(1.18945 1.18945)" d="M448.182 670.006L503.887 701.44L508.222 697.093L512.339 699.745C511.969 701.857 511.804 703.915 510.547 705.708L510.586 708.365L503.01 737.119C493.757 722.273 483.411 708.559 471.754 695.512L457.511 680.767C454.121 677.398 450.472 674.259 448.182 670.006Z"/>
	<path fill="#E65609" transform="scale(1.18945 1.18945)" d="M508.222 697.093L512.339 699.745C511.969 701.857 511.804 703.915 510.547 705.708L503.887 701.44L508.222 697.093Z"/>
	<path fill="#FDFCF5" transform="scale(1.18945 1.18945)" d="M1148.33 338.89L1171.42 338.531C1183.94 341.336 1193.31 347.856 1200.19 358.725C1203.54 364.017 1205.31 369.751 1206.35 375.897C1224.15 368.748 1242.35 366.946 1260.43 374.708C1274.92 380.927 1287.85 393.458 1293.65 408.238C1299.26 422.553 1299.24 439.787 1292.88 453.842C1285.8 469.493 1271.58 480.901 1255.69 486.74C1244.1 490.997 1230.33 491.456 1218.32 488.654C1215.65 488.03 1208.48 484.861 1206.23 485.387C1203.93 497.277 1199.35 507.462 1188.97 514.434C1173.98 524.511 1155.07 521.578 1137.85 521.367L1128.77 512.996C1128.04 510.949 1129.57 506.252 1130.01 503.954L1134.33 480.174L1136.93 422.008C1136.15 402.331 1134.53 382.783 1129.77 363.619L1127.76 356.602C1135.79 351.406 1141.87 345.911 1148.33 338.89Z"/>
	<path fill="#E65609" transform="scale(1.18945 1.18945)" d="M1129.77 363.619C1135.66 365.672 1141.07 367.951 1146.39 371.26C1160.68 380.132 1173.77 391.393 1187.31 401.359L1207.85 416.683C1209.88 418.251 1213.34 420.215 1214.52 422.399L1214.29 423.104C1208.37 421.283 1199 422.255 1192.69 422.193L1136.93 422.008C1136.15 402.331 1134.53 382.783 1129.77 363.619Z"/>
	<path fill="#F06B10" transform="scale(1.18945 1.18945)" d="M1136.93 422.008L1192.69 422.193C1199 422.255 1208.37 421.283 1214.29 423.104C1211.3 426.45 1207.4 429.222 1203.91 432.042L1183.25 448.178C1172.8 456.131 1162.27 465.075 1151.15 472.015C1146.12 475.153 1139.96 478.258 1134.33 480.174L1136.93 422.008Z"/>
	<path fill="#FDFCF5" transform="scale(1.18945 1.18945)" d="M397.767 520.025C385.649 523.724 372.935 523.529 360.68 520.388C342.587 515.752 331.852 504.365 322.684 488.849C310.316 491.425 296.682 491.317 284.421 488.1C268.597 483.947 254.907 474.213 246.614 459.943C238.172 445.419 235.66 430.459 240.074 414.194C244.208 398.963 256.274 386.613 269.727 378.993C284.834 370.437 305.066 368.419 321.807 373.033C326.915 361.179 334.177 352.568 345.174 345.661C359.55 336.632 375.55 336.616 391.539 340.239L406.791 357.74C406.438 360.397 406.327 366.289 404.803 368.3L398.913 423.394C398.324 441.253 397.907 460.299 400.67 477.973L403.163 497.601C403.707 501.12 405.296 505.871 404.993 509.344L397.767 520.025Z"/>
	<path fill="#D2230E" transform="scale(1.18945 1.18945)" d="M404.803 368.3L398.913 423.394L340.306 424.094C332.977 424.126 325.146 424.669 317.882 423.696L347.663 401.598C365.27 388.886 384.726 376.667 404.803 368.3Z"/>
	<path fill="#F58B09" transform="scale(1.18945 1.18945)" d="M317.882 423.696C325.146 424.669 332.977 424.126 340.306 424.094L398.913 423.394C398.324 441.253 397.907 460.299 400.67 477.973C394.651 475.93 388.603 472.502 382.948 469.632C362.269 459.137 343.538 445.97 325.165 431.913C322.205 429.649 318.053 427.685 315.628 424.979L317.882 423.696Z"/>
	<path fill="#0DB074" transform="scale(1.18945 1.18945)" d="M1289.67 802.465C1303.75 801.57 1317.71 799.98 1331.84 799.893C1382.52 799.578 1435.36 809.308 1482.86 826.941L1207.91 954.591C1207.22 946.674 1205.23 938.656 1202.85 931.099C1200.57 925.338 1198.19 920.188 1194.45 915.203L1193.7 913.665C1187.89 903.45 1180.69 894.792 1172.97 885.976L1166.96 879.779C1161.62 873.443 1155.43 868.061 1149.13 862.704C1180.81 838.398 1216.99 821.812 1255.28 811.01L1277.89 805.419C1281.7 804.571 1286.23 804.255 1289.67 802.465Z"/>
	<path fill="#0A8050" transform="scale(1.18945 1.18945)" d="M1172.97 885.976C1184.44 876.518 1200.62 869.503 1213.7 862.336L1295.13 817.145C1306.01 811.23 1317.91 806.852 1328.39 800.322C1307.66 841.39 1278.62 881.036 1240.67 907.637C1228.52 916.15 1214.75 922.487 1202.85 931.099C1200.57 925.338 1198.19 920.188 1194.45 915.203L1193.7 913.665C1187.89 903.45 1180.69 894.792 1172.97 885.976Z"/>
	<path fill="#0A8050" transform="scale(1.18945 1.18945)" d="M179.508 629.281L179.664 627.444C186.172 626.733 194.649 629.104 201.227 630.107C234.284 635.143 267.748 643.293 299.279 654.45L330.856 666.948C344.768 713.003 367.246 757.547 395.728 796.355L422.108 829.294L412.279 837.345L412.421 837.858C403.432 838.38 395.316 839.081 388.97 846.341C386.405 849.275 384.276 852.989 382.937 856.651C372.329 852.584 362.237 844.458 351.964 839.246C318.121 822.078 282.738 808.589 245.104 802.714C211.046 749.461 189.077 691.826 179.508 629.281Z"/>
	<path fill="#0DB074" transform="scale(1.18945 1.18945)" d="M179.508 629.281L179.664 627.444C186.172 626.733 194.649 629.104 201.227 630.107C234.284 635.143 267.748 643.293 299.279 654.45L330.856 666.948C344.768 713.003 367.246 757.547 395.728 796.355L422.108 829.294L412.279 837.345L356.627 787.979L209.77 656.213L189.544 637.864C186.772 635.257 183.087 630.492 179.508 629.281Z"/>
	<path fill="#0A8050" transform="scale(1.18945 1.18945)" d="M1203.96 671.372C1233.9 657.167 1264.11 645.794 1296.23 637.482C1303.95 635.483 1352.79 624.253 1356.52 626.45L1356.25 630.254C1349.17 691.153 1328.73 754.385 1289.67 802.465C1286.23 804.255 1281.7 804.571 1277.89 805.419L1255.28 811.01C1216.99 821.812 1180.81 838.398 1149.13 862.704L1138.8 854.131L1121.66 839.475C1120.41 838.131 1119.37 836.876 1118.41 835.311L1117.28 834.818C1112.26 831.834 1107.06 825.903 1102.61 821.936C1142.71 799.89 1171.01 758.329 1187.99 716.856C1194.11 701.909 1198.54 686.532 1203.96 671.372Z"/>
	<path fill="#0DB074" transform="scale(1.18945 1.18945)" d="M1203.96 671.372C1233.9 657.167 1264.11 645.794 1296.23 637.482C1303.95 635.483 1352.79 624.253 1356.52 626.45L1356.25 630.254L1311.88 669.724L1197.34 768.606L1147.45 811.603C1138.11 819.596 1128.63 828.489 1118.41 835.311L1117.28 834.818C1112.26 831.834 1107.06 825.903 1102.61 821.936C1142.71 799.89 1171.01 758.329 1187.99 716.856C1194.11 701.909 1198.54 686.532 1203.96 671.372Z"/>
	<path fill="#0DB074" transform="scale(1.18945 1.18945)" d="M52.5407 826.874C72.7648 818.376 95.1242 812.575 116.606 808.367C159.03 800.058 202.113 797.609 245.104 802.714C282.738 808.589 318.121 822.078 351.964 839.246C362.237 844.458 372.329 852.584 382.937 856.651L381.801 860.602C381.331 863.048 380.99 865.353 380.919 867.856L361.566 886.808L356.94 891.468C344.767 895.77 335.143 911.485 329.106 921.968C325.121 930.789 322.268 939.943 321.299 949.615C319.476 965.534 320.358 982.7 330.773 995.763C337.121 1003.72 343.44 1006.85 352.287 1011.12L62.02 1011.24C78.258 985.345 103.303 971.33 131.64 961.956C104.184 933.631 81.0694 899.556 64.6843 863.702C59.4141 852.169 55.2504 840.148 51.0386 828.202L52.5407 826.874Z"/>
	<path fill="#0A8050" transform="scale(1.18945 1.18945)" d="M329.106 921.968C325.083 918.5 319.523 916.035 315.003 913.179L294.114 898.754C270.34 881.416 247.311 859.602 229.694 836.002C221.209 824.634 214.226 812.768 207.223 800.489C228.779 810.479 249.428 822.397 270.094 834.108L325.936 865.952C337.569 872.885 350.64 878.919 361.566 886.808L356.94 891.468C344.767 895.77 335.143 911.485 329.106 921.968Z"/>
	<path fill="#0A8050" transform="scale(1.18945 1.18945)" d="M131.64 961.956C104.184 933.631 81.0694 899.556 64.6843 863.702C59.4141 852.169 55.2504 840.148 51.0386 828.202L52.5407 826.874L53.1967 827.417C56.0905 829.7 62.0653 831.133 65.5634 832.641L91.6088 844.504L243.239 916.904L285.022 936.902C295.091 941.649 305.85 946.266 315.36 952.017C316.4 952.647 319.067 953.986 319.523 955.014L247.068 952.667L189.737 953.4C170.388 954.326 150.207 956.168 131.64 961.956Z"/>
	<path fill="#7E1120" transform="scale(1.18945 1.18945)" d="M510.586 708.365L587.406 725.74C586.633 728.501 586.068 731.936 584.881 734.505L622.516 761.043C624.405 772.646 627.639 784.862 628.043 796.588C624.825 797.506 621.275 798.868 617.95 799.106L615.969 800.545L615.712 849.332L615.649 876.396L615.749 883.7L626.379 883.603C628.355 879.983 630.534 876.195 633.401 873.207C645.772 860.312 666.67 859.268 681.861 867.112C684.563 868.507 686.977 870.196 689.412 872C689.989 872.428 691.434 873.798 691.974 873.931C693.569 874.324 697.444 873.261 699.153 873.051C703.362 872.535 707.624 872.513 711.859 872.438L712.487 873.315L714 874.968L798.612 875.003L823.67 875.102C827.541 875.114 832.657 875.72 836.363 874.72L838.679 873.8C841.381 872.077 844.353 871.828 847.492 871.961C852.065 872.155 854.673 869.295 858.746 867.73C876.087 861.068 893.707 864.775 906.526 878.449C908.105 880.133 909.419 881.849 910.612 883.824L919.273 883.571L947.88 882.972C950.761 878.741 956.644 875.051 960.65 871.727L1007.54 834.326C1020.92 842.758 1034.46 850.461 1048.82 857.15L1082.46 871.462L1086.7 873.361L1086.82 874.058C1089.6 873.777 1091.38 874.732 1093.8 875.898L1105.56 883.962L1110.5 886.688C1110.92 882.081 1111.37 877.192 1113.55 873.042C1119.1 862.495 1127.87 857.628 1138.8 854.131L1149.13 862.704C1155.43 868.061 1161.62 873.443 1166.96 879.779L1172.97 885.976C1180.69 894.792 1187.89 903.45 1193.7 913.665L1194.45 915.203C1198.19 920.188 1200.57 925.338 1202.85 931.099C1205.23 938.656 1207.22 946.674 1207.91 954.591L1208.27 961.959C1208.1 975.874 1203.1 990.232 1192.97 1000.12C1187.45 1005.51 1181.93 1008.13 1174.75 1010.64L352.287 1011.12C343.44 1006.85 337.121 1003.72 330.773 995.763C320.358 982.7 319.476 965.534 321.299 949.615C322.268 939.943 325.121 930.789 329.106 921.968C335.143 911.485 344.767 895.77 356.94 891.468L361.566 886.808L380.919 867.856C380.99 865.353 381.331 863.048 381.801 860.602L382.937 856.651C384.276 852.989 386.405 849.275 388.97 846.341C395.316 839.081 403.432 838.38 412.421 837.858L412.279 837.345L422.108 829.294L483.167 780.003C486.086 778.423 489.025 777.288 492.147 776.176L492.927 774.074L503.01 737.119L510.586 708.365Z"/>
	<path fill="#F58B09" transform="scale(1.18945 1.18945)" d="M1193.7 913.665L1194.45 915.203C1199.85 937.527 1197.26 957.136 1185.19 976.953C1180.59 984.517 1171.77 996.671 1162.88 999.034C1159.96 999.809 1156.59 999.35 1154.09 997.675C1150.71 995.416 1148.43 991.998 1147.75 987.99C1147.3 985.348 1147.62 982.503 1147.83 979.845C1153.94 976.602 1159.01 967.628 1162.91 962.004L1193.7 913.665Z"/>
	<path fill="#F58B09" transform="scale(1.18945 1.18945)" d="M687.901 968.345C691.934 970.933 707.716 967.44 712.603 966.391C724.945 963.741 736.53 959.718 747.84 954.133L759.095 948.333C759.753 947.979 761.662 946.644 762.217 946.635C762.514 946.631 764.579 948.033 764.921 948.232L776.03 954.142C793.791 962.826 813.046 967.446 832.399 970.897C836.78 971.678 843.374 973.572 847.44 972C858.219 979.273 868.818 986.43 880.684 991.86L904.594 1001.55L627.532 1001.24C641.687 998.075 655.724 993.993 667.933 985.857C675.35 980.914 681.703 974.696 687.901 968.345Z"/>
	<path fill="#FFF200" transform="scale(1.18945 1.18945)" d="M382.937 856.651C384.276 852.989 386.405 849.275 388.97 846.341C395.316 839.081 403.432 838.38 412.421 837.858C423.773 841.285 433.189 845.395 439.066 856.408C440.629 859.335 441.757 862.737 442.751 865.907C443.79 870.456 444.076 874.543 443.249 879.172C440.756 884.653 437.009 887.767 431.41 889.885C429.339 890.668 426.866 891.333 424.654 891.27L424.251 892.749L419.438 892.595C420.127 900.045 420.943 908.644 419.762 916.035C418.925 921.268 416.037 926.616 413.694 931.35C408.688 941.467 402.956 952.352 395.697 961.072L393.642 963.39C391.511 964.892 389.421 966.486 387.09 967.666C385.615 969.57 386.201 972.267 386.223 974.656L386.252 990.436C386.221 991.948 386.489 994.517 386.095 995.868C385.472 998.008 382.041 999.733 380.036 999.948C376.541 1000.32 376.025 997.614 372.83 997.832C370.942 998.589 370.741 998.59 368.76 998.119C364.714 993.944 361.541 988.976 358.304 984.169C347.506 968.131 340.682 952.377 340.418 932.788C337.027 935.213 333.577 937.647 330.555 940.532C327.478 943.471 324.694 947.07 321.299 949.615C322.268 939.943 325.121 930.789 329.106 921.968C335.143 911.485 344.767 895.77 356.94 891.468L361.566 886.808L380.919 867.856C380.99 865.353 381.331 863.048 381.801 860.602L382.937 856.651Z"/>
	<path fill="#7E1120" transform="scale(1.18945 1.18945)" d="M387.57 942.051C390.09 934.661 393.271 928.613 397.753 922.222C397.352 925.979 397.097 929.981 395.961 933.603C393.47 941.549 388.881 948.778 386.055 956.654C384.992 951.512 386.332 947.052 387.57 942.051Z"/>
	<path fill="#F2AC05" transform="scale(1.18945 1.18945)" d="M345.628 921.8C345.923 926.732 345.527 931.696 345.858 936.604C346.994 953.454 353.709 969.677 362.996 983.658C364.132 985.368 364.846 987.068 366.168 988.727L365.705 989.871L364.123 988.999C364.586 991.136 368.068 995.776 369.91 997.009L370.5 997.376L371.663 996.97L372.83 997.832C370.942 998.589 370.741 998.59 368.76 998.119C364.714 993.944 361.541 988.976 358.304 984.169C347.506 968.131 340.682 952.377 340.418 932.788C340.587 929.907 341.041 927.219 341.608 924.397L342.322 925.228L343.875 925.013L345.628 921.8Z"/>
	<path fill="#AE2B38" transform="scale(1.18945 1.18945)" d="M356.94 891.468C349.018 902.226 343.628 910.728 341.608 924.397C341.041 927.219 340.587 929.907 340.418 932.788C337.027 935.213 333.577 937.647 330.555 940.532C327.478 943.471 324.694 947.07 321.299 949.615C322.268 939.943 325.121 930.789 329.106 921.968C335.143 911.485 344.767 895.77 356.94 891.468Z"/>
	<path fill="#AE2B38" transform="scale(1.18945 1.18945)" d="M382.937 856.651C384.276 852.989 386.405 849.275 388.97 846.341C395.316 839.081 403.432 838.38 412.421 837.858C423.773 841.285 433.189 845.395 439.066 856.408C440.629 859.335 441.757 862.737 442.751 865.907C443.79 870.456 444.076 874.543 443.249 879.172C440.756 884.653 437.009 887.767 431.41 889.885C429.339 890.668 426.866 891.333 424.654 891.27L424.251 892.749L419.438 892.595L419.064 890.09L420.375 888.412C422.046 886.253 422.967 884.797 423.142 882.018C423.559 875.427 421.935 870.007 417.477 865.061C413.097 860.2 406.527 857.597 400.055 857.402C391.159 857.135 386.896 862.159 380.919 867.856C380.99 865.353 381.331 863.048 381.801 860.602L382.937 856.651Z"/>
	<path fill="#7E1120" transform="scale(1.18945 1.18945)" d="M381.801 860.602L383.692 860.085L383.96 859.561C385.815 856.132 390.467 853.826 394.155 852.741C400.627 850.838 408.873 852.113 414.705 855.446C421.357 859.248 425.841 865.627 427.783 872.983C429.559 879.713 428.177 885.444 424.654 891.27L424.251 892.749L419.438 892.595L419.064 890.09L420.375 888.412C422.046 886.253 422.967 884.797 423.142 882.018C423.559 875.427 421.935 870.007 417.477 865.061C413.097 860.2 406.527 857.597 400.055 857.402C391.159 857.135 386.896 862.159 380.919 867.856C380.99 865.353 381.331 863.048 381.801 860.602Z"/>
	<path fill="#AE2B38" transform="scale(1.18945 1.18945)" d="M499.45 888.82C503.642 888.636 507.875 888.3 512.055 888.761L663.167 922.002L695.39 928.878C700.347 929.937 706.031 931.65 711.068 931.846L712.688 932.878L698.165 955.454L627.976 966.902L488.015 986.425L458.537 990.352C452.807 991.067 446.55 992.082 440.782 991.58C429.902 990.632 420.068 985.435 411.507 978.93C405.498 974.363 399.986 967.15 393.642 963.39L395.697 961.072C402.956 952.352 408.688 941.467 413.694 931.35C416.037 926.616 418.925 921.268 419.762 916.035C420.943 908.644 420.127 900.045 419.438 892.595L424.251 892.749L482.182 890.117C487.451 888.973 494.003 889.217 499.45 888.82Z"/>
	<path fill="#7E1120" transform="scale(1.18945 1.18945)" d="M499.45 888.82C503.642 888.636 507.875 888.3 512.055 888.761L663.167 922.002L662.658 923.629C652.287 925.725 498.275 895.776 482.182 890.117C487.451 888.973 494.003 889.217 499.45 888.82Z"/>
	<path fill="#AE2B38" transform="scale(1.18945 1.18945)" d="M1007.54 834.326C1020.92 842.758 1034.46 850.461 1048.82 857.15L1082.46 871.462L1086.7 873.361L1086.82 874.058C1089.6 873.777 1091.38 874.732 1093.8 875.898L1105.56 883.962L1110.5 886.688C1110.92 882.081 1111.37 877.192 1113.55 873.042C1119.1 862.495 1127.87 857.628 1138.8 854.131L1149.13 862.704C1155.43 868.061 1161.62 873.443 1166.96 879.779L1172.97 885.976C1180.69 894.792 1187.89 903.45 1193.7 913.665L1162.91 962.004C1159.01 967.628 1153.94 976.602 1147.83 979.845L1149.33 973.158C1144.03 974.328 1138.06 978.053 1132.69 979.819C1118.93 984.353 1104.5 986.927 1090.14 988.662C1074.26 990.58 1056.92 987.603 1041.02 986.316L894.264 969.421L852.058 962.646C846.333 961.665 838.841 959.117 833.247 959.671C825.455 953.29 819.001 942.141 813.256 933.849L814.539 932.619C820.455 932.485 827.036 930.51 832.836 929.204L867.091 921.304L996.509 892.593C995.736 889.979 994.57 886.809 994.706 884.062C995.044 877.245 998.972 874.113 1003.73 869.886L947.88 882.972C950.761 878.741 956.644 875.051 960.65 871.727L1007.54 834.326Z"/>
	<path fill="#7E1120" transform="scale(1.18945 1.18945)" d="M1036.84 882.733C1042.33 882.676 1048.45 882.117 1053.85 882.842C1048.52 886.815 1021.68 891.143 1014.81 890.004C1013.67 889.815 1012.72 889.461 1011.68 888.994L1036.84 882.733Z"/>
	<path fill="#0A8050" transform="scale(1.18945 1.18945)" d="M1086.82 874.058C1089.6 873.777 1091.38 874.732 1093.8 875.898L1105.56 883.962L1077.01 882.32L1086.82 874.058Z"/>
	<path fill="#F58B09" transform="scale(1.18945 1.18945)" d="M1003.73 869.886C1011.34 868.113 1020.19 867.622 1027.12 871.848C1031.27 874.371 1034.5 878.549 1036.84 882.733L1011.68 888.994L996.509 892.593C995.736 889.979 994.57 886.809 994.706 884.062C995.044 877.245 998.972 874.113 1003.73 869.886Z"/>
	<path fill="#0A8050" transform="scale(1.18945 1.18945)" d="M1007.54 834.326C1020.92 842.758 1034.46 850.461 1048.82 857.15L1082.46 871.462L1086.7 873.361L1086.82 874.058L1077.01 882.32L1068.43 882.2L1053.85 882.842C1048.45 882.117 1042.33 882.676 1036.84 882.733C1034.5 878.549 1031.27 874.371 1027.12 871.848C1020.19 867.622 1011.34 868.113 1003.73 869.886L947.88 882.972C950.761 878.741 956.644 875.051 960.65 871.727L1007.54 834.326Z"/>
	<path fill="#0DB074" transform="scale(1.18945 1.18945)" d="M1082.46 871.462L1086.7 873.361L1086.82 874.058L1077.01 882.32L1068.43 882.2C1072.26 878.152 1077.84 874.587 1082.46 871.462Z"/>
	<path fill="#F2AC05" transform="scale(1.18945 1.18945)" d="M1138.8 854.131L1149.13 862.704C1155.43 868.061 1161.62 873.443 1166.96 879.779L1172.97 885.976C1180.69 894.792 1187.89 903.45 1193.7 913.665L1162.91 962.004C1159.01 967.628 1153.94 976.602 1147.83 979.845L1149.33 973.158L1150.06 971.324C1148.67 967.866 1148.05 967.278 1145.2 964.731L1144.27 965.038C1142.39 965.586 1140.54 965.032 1138.9 964.065C1134.76 961.627 1132 955.758 1129.72 951.629C1122.2 938.042 1114.18 922.27 1111.06 907.042C1109.9 901.339 1110.28 895.565 1113.6 890.699C1114.3 889.665 1114 889.474 1113.82 888.282L1110.5 886.688C1110.92 882.081 1111.37 877.192 1113.55 873.042C1119.1 862.495 1127.87 857.628 1138.8 854.131Z"/>
	<path fill="#A41601" transform="scale(1.18945 1.18945)" d="M1145.2 964.731L1145.66 964.125C1150.34 957.766 1148.24 947.775 1147.02 940.432C1146.21 935.564 1144.56 930.84 1143.11 926.134C1150.59 934.107 1153.9 945.445 1153.59 956.199C1153.44 961.333 1151.77 966.504 1150.06 971.324C1148.67 967.866 1148.05 967.278 1145.2 964.731Z"/>
	<path fill="#FFF200" transform="scale(1.18945 1.18945)" d="M1138.8 854.131L1149.13 862.704C1155.43 868.061 1161.62 873.443 1166.96 879.779C1162.02 881.197 1156.01 880.386 1150.88 880.466C1145.12 880.557 1139.27 881.275 1133.62 882.436C1129.36 883.315 1124.93 884.453 1120.82 885.92C1118.36 886.799 1116.56 888.592 1113.82 888.282L1110.5 886.688C1110.92 882.081 1111.37 877.192 1113.55 873.042C1119.1 862.495 1127.87 857.628 1138.8 854.131Z"/>
	<path fill="#FFF200" transform="scale(1.18945 1.18945)" d="M510.586 708.365L587.406 725.74C586.633 728.501 586.068 731.936 584.881 734.505L622.516 761.043C624.405 772.646 627.639 784.862 628.043 796.588C624.825 797.506 621.275 798.868 617.95 799.106L615.969 800.545L615.712 849.332L615.649 876.396L615.749 883.7L626.379 883.603C628.355 879.983 630.534 876.195 633.401 873.207C645.772 860.312 666.67 859.268 681.861 867.112C684.563 868.507 686.977 870.196 689.412 872C689.989 872.428 691.434 873.798 691.974 873.931C693.569 874.324 697.444 873.261 699.153 873.051C703.362 872.535 707.624 872.513 711.859 872.438L712.487 873.315L714 874.968L798.612 875.003L823.67 875.102C827.541 875.114 832.657 875.72 836.363 874.72L838.679 873.8C841.381 872.077 844.353 871.828 847.492 871.961C852.065 872.155 854.673 869.295 858.746 867.73C876.087 861.068 893.707 864.775 906.526 878.449C908.105 880.133 909.419 881.849 910.612 883.824L919.273 883.571L947.88 882.972L1003.73 869.886C998.972 874.113 995.044 877.245 994.706 884.062C994.57 886.809 995.736 889.979 996.509 892.593L867.091 921.304L832.836 929.204C827.036 930.51 820.455 932.485 814.539 932.619L813.256 933.849C819.001 942.141 825.455 953.29 833.247 959.671L847.44 972C843.374 973.572 836.78 971.678 832.399 970.897C813.046 967.446 793.791 962.826 776.03 954.142L764.921 948.232C764.579 948.033 762.514 946.631 762.217 946.635C761.662 946.644 759.753 947.979 759.095 948.333L747.84 954.133C736.53 959.718 724.945 963.741 712.603 966.391C707.716 967.44 691.934 970.933 687.901 968.345L698.165 955.454L712.688 932.878L711.068 931.846C706.031 931.65 700.347 929.937 695.39 928.878L663.167 922.002L512.055 888.761C507.875 888.3 503.642 888.636 499.45 888.82C494.003 889.217 487.451 888.973 482.182 890.117L424.251 892.749L424.654 891.27C426.866 891.333 429.339 890.668 431.41 889.885C437.009 887.767 440.756 884.653 443.249 879.172C444.076 874.543 443.79 870.456 442.751 865.907C441.757 862.737 440.629 859.335 439.066 856.408C433.189 845.395 423.773 841.285 412.421 837.858L412.279 837.345L422.108 829.294L483.167 780.003C486.086 778.423 489.025 777.288 492.147 776.176L492.927 774.074L503.01 737.119L510.586 708.365Z"/>
	<path fill="#E65609" transform="scale(1.18945 1.18945)" d="M702.088 893.248L702.044 887.842C702.405 887.523 702.676 887.057 703.125 886.884C704.125 886.5 707.98 887 709.234 887.027L730.875 887.368L834.775 887.568L839.298 887.513L843.375 888.003C844.195 889.746 843.956 891.213 843.8 893.093C840.894 894.163 836.735 893.629 833.639 893.613L814.297 893.512L739.875 893.477L714.678 893.443C710.679 893.428 705.995 893.87 702.088 893.248Z"/>
	<path fill="#F2AC05" transform="scale(1.18945 1.18945)" d="M712.487 873.315L714 874.968L798.612 875.003L823.67 875.102C827.541 875.114 832.657 875.72 836.363 874.72C833.854 877.861 834.81 883.517 834.775 887.568L730.875 887.368L709.234 887.027C707.98 887 704.125 886.5 703.125 886.884C702.676 887.057 702.405 887.523 702.044 887.842L702.088 893.248C700.458 891.072 701.989 889.002 701.3 886.716C701.03 885.825 700.079 884.982 699.815 884.091C699.42 882.761 699.822 879.951 699.824 878.464C702.491 875.81 708.668 878.18 712.125 876.231L712.487 873.315Z"/>
	<path fill="#0A8050" transform="scale(1.18945 1.18945)" d="M535.308 831.675L597.295 883.958C592.699 883.948 588.445 883.737 583.91 882.91L533.934 868.856C527 866.835 519.575 863.572 512.383 862.827C510.534 862.635 508.748 863.035 507.141 863.972C503.446 866.125 502.025 870.522 501.212 874.461L499.45 888.82C494.003 889.217 487.451 888.973 482.182 890.117L424.251 892.749L424.654 891.27C426.866 891.333 429.339 890.668 431.41 889.885C437.009 887.767 440.756 884.653 443.249 879.172L535.308 831.675Z"/>
	<path fill="#FFF200" transform="scale(1.18945 1.18945)" d="M510.586 708.365L587.406 725.74C586.633 728.501 586.068 731.936 584.881 734.505L622.516 761.043C624.405 772.646 627.639 784.862 628.043 796.588C624.825 797.506 621.275 798.868 617.95 799.106L615.969 800.545L615.712 849.332L615.649 876.396L615.749 883.7L597.295 883.958L535.308 831.675L443.249 879.172C444.076 874.543 443.79 870.456 442.751 865.907C441.757 862.737 440.629 859.335 439.066 856.408C433.189 845.395 423.773 841.285 412.421 837.858L412.279 837.345L422.108 829.294L483.167 780.003C486.086 778.423 489.025 777.288 492.147 776.176L492.927 774.074L503.01 737.119L510.586 708.365Z"/>
	<path fill="#0A8050" transform="scale(1.18945 1.18945)" d="M584.881 734.505L622.516 761.043C624.405 772.646 627.639 784.862 628.043 796.588C624.825 797.506 621.275 798.868 617.95 799.106L615.969 800.545L615.712 849.332L615.649 876.396L615.749 883.7L597.295 883.958L535.308 831.675L551.056 822.247L551.718 821.383C558.194 815.07 562.178 806.144 565.391 797.855C570.215 785.409 573.741 772.539 577.121 759.639L584.881 734.505Z"/>
	<path fill="#0DB074" transform="scale(1.18945 1.18945)" d="M551.056 822.247C553.34 826.697 598.753 858.687 605.389 863.678C607.435 865.217 613.69 868.964 614.832 871.059C615.362 872.032 615.44 875.147 615.649 876.396L615.749 883.7L597.295 883.958L535.308 831.675L551.056 822.247Z"/>
	<path fill="#0DB074" transform="scale(1.18945 1.18945)" d="M584.881 734.505L622.516 761.043C624.405 772.646 627.639 784.862 628.043 796.588C624.825 797.506 621.275 798.868 617.95 799.106C614.893 797.388 611.728 793.544 609.072 791.093L577.121 759.639L584.881 734.505Z"/>
	<path fill="#F06B10" transform="scale(1.18945 1.18945)" d="M718.111 484.669C728.059 493.707 740.251 497.953 752.626 502.53C756.929 507.788 761.666 514.577 767.193 518.585L767.367 519.06C772.231 523.32 777.491 526.796 782.943 530.248C791.925 535.027 800.807 539.822 810.141 543.888C814.849 545.939 821.42 547.353 825.597 549.919L825.645 549.902C833.354 536.965 837.003 525.177 837.031 510.094L852.714 514.767L866.025 519.408C870.505 519.137 873.956 519.708 878.113 521.442L916.524 535.249L924.302 538.514C932.994 542.234 943.125 546.201 950.714 551.893C957.621 556.085 964.616 560.211 970.582 565.716L974.554 569.259C991.216 583.232 1000.23 603.264 1006.61 623.661L1016.91 658.135L1018.2 662.67C1018.01 665.934 1019.22 669.267 1020 672.416C1021.79 679.698 1024.68 688.6 1024.68 696.109L1025.68 704.735L1027.13 710.002L1035.33 753.696C1036.71 761.619 1038.54 769.81 1039 777.835L1043.39 779.407C1065.74 789.027 1085.05 805.381 1102.61 821.936C1107.06 825.903 1112.26 831.834 1117.28 834.818L1118.41 835.311C1119.37 836.876 1120.41 838.131 1121.66 839.475L1138.8 854.131C1127.87 857.628 1119.1 862.495 1113.55 873.042C1111.37 877.192 1110.92 882.081 1110.5 886.688L1105.56 883.962L1093.8 875.898C1091.38 874.732 1089.6 873.777 1086.82 874.058L1086.7 873.361L1082.46 871.462L1048.82 857.15C1034.46 850.461 1020.92 842.758 1007.54 834.326L960.65 871.727C956.644 875.051 950.761 878.741 947.88 882.972L919.273 883.571L910.612 883.824C909.419 881.849 908.105 880.133 906.526 878.449C893.707 864.775 876.087 861.068 858.746 867.73C854.673 869.295 852.065 872.155 847.492 871.961C844.353 871.828 841.381 872.077 838.679 873.8L836.363 874.72C832.657 875.72 827.541 875.114 823.67 875.102L798.612 875.003L714 874.968L712.487 873.315L711.859 872.438C707.624 872.513 703.362 872.535 699.153 873.051C697.444 873.261 693.569 874.324 691.974 873.931C691.434 873.798 689.989 872.428 689.412 872C686.977 870.196 684.563 868.507 681.861 867.112C666.67 859.268 645.772 860.312 633.401 873.207C630.534 876.195 628.355 879.983 626.379 883.603L615.749 883.7L615.649 876.396L615.712 849.332L615.969 800.545L617.95 799.106C621.275 798.868 624.825 797.506 628.043 796.588C627.639 784.862 624.405 772.646 622.516 761.043L584.881 734.505C586.068 731.936 586.633 728.501 587.406 725.74L510.586 708.365L510.547 705.708C511.804 703.915 511.969 701.857 512.339 699.745C514.201 695.821 514.91 691.384 515.869 687.168L520.437 667.279L521.869 660.33L528.483 628.444C531.366 615.47 533.165 599.051 539.32 587.248C543.653 578.939 549.509 572.999 556.518 567.014C564.234 561.869 572.978 558.647 581.554 555.243L619.558 541.236L658.383 528.608C660.023 527.128 659.646 524.104 660.709 522.127C661.935 519.847 664.833 517.494 667.335 516.837C669.82 516.183 673.389 516.531 675.627 517.758C676.606 518.295 677.335 518.731 678.431 519.012L679.401 519.248L689.209 514.874C692.399 513.051 696.183 511.797 699.583 510.367C703.79 508.06 707.889 505.139 711.358 501.838L715.65 493.218C715.847 490.626 717.353 487.225 718.111 484.669Z"/>
	<path fill="#0A8050" transform="scale(1.18945 1.18945)" d="M937.559 692.248L946.418 724.35L948.46 731.116L923.283 753.696L923.229 729.764L937.559 692.248Z"/>
	<path fill="#FFF200" transform="scale(1.18945 1.18945)" d="M970.582 565.716L974.554 569.259C991.216 583.232 1000.23 603.264 1006.61 623.661L1016.91 658.135L943.828 676.071C951.877 651.941 959.635 628.183 965.106 603.318C967.814 591.015 970.444 578.354 970.582 565.716Z"/>
	<path fill="#A41601" transform="scale(1.18945 1.18945)" d="M834.061 867.15C838.385 862.748 843.439 859.31 847.687 854.622C880.251 818.68 903.149 773.5 923.229 729.764L923.283 753.696L923.469 787.287L919.539 877.564L919.273 883.571L910.612 883.824C909.419 881.849 908.105 880.133 906.526 878.449C893.707 864.775 876.087 861.068 858.746 867.73C854.673 869.295 852.065 872.155 847.492 871.961C844.353 871.828 841.381 872.077 838.679 873.8L836.363 874.72L834.061 867.15Z"/>
	<path fill="#0A8050" transform="scale(1.18945 1.18945)" d="M948.46 731.116L957.752 762.706C963.728 782.875 970.127 807.443 986.487 821.745C991.223 825.652 996.254 828.644 1001.91 831.043L1007.54 834.326L960.65 871.727C956.644 875.051 950.761 878.741 947.88 882.972L919.273 883.571L919.539 877.564L923.469 787.287L923.283 753.696L948.46 731.116Z"/>
	<path fill="#0DB074" transform="scale(1.18945 1.18945)" d="M948.46 731.116L957.752 762.706L924.75 792.836C923.614 791.682 923.76 788.951 923.469 787.287L923.283 753.696L948.46 731.116Z"/>
	<path fill="#0DB074" transform="scale(1.18945 1.18945)" d="M986.487 821.745C991.223 825.652 996.254 828.644 1001.91 831.043L1007.54 834.326L960.65 871.727C956.644 875.051 950.761 878.741 947.88 882.972L919.273 883.571L919.539 877.564L920.292 876.868C924.537 872.397 930.218 868.975 934.957 864.968L986.487 821.745Z"/>
	<path fill="#FFF200" transform="scale(1.18945 1.18945)" d="M943.828 676.071L1016.91 658.135L1018.2 662.67C1018.01 665.934 1019.22 669.267 1020 672.416C1021.79 679.698 1024.68 688.6 1024.68 696.109L1025.68 704.735L1027.13 710.002L1035.33 753.696C1036.71 761.619 1038.54 769.81 1039 777.835L1043.39 779.407C1065.74 789.027 1085.05 805.381 1102.61 821.936C1107.06 825.903 1112.26 831.834 1117.28 834.818L1118.41 835.311C1119.37 836.876 1120.41 838.131 1121.66 839.475L1138.8 854.131C1127.87 857.628 1119.1 862.495 1113.55 873.042C1111.37 877.192 1110.92 882.081 1110.5 886.688L1105.56 883.962L1093.8 875.898C1091.38 874.732 1089.6 873.777 1086.82 874.058L1086.7 873.361L1082.46 871.462L1048.82 857.15C1034.46 850.461 1020.92 842.758 1007.54 834.326L1001.91 831.043C996.254 828.644 991.223 825.652 986.487 821.745C970.127 807.443 963.728 782.875 957.752 762.706L948.46 731.116L946.418 724.35L937.559 692.248C938.641 687.039 941.99 681.186 943.828 676.071Z"/>
	<path fill="#0DB074" transform="scale(1.18945 1.18945)" d="M1086.7 873.361C1089.13 871.566 1089.48 865.034 1090.56 861.96C1095.35 848.358 1104.46 840.724 1117.28 834.818L1118.41 835.311C1119.37 836.876 1120.41 838.131 1121.66 839.475C1111.46 843.306 1102.36 850.5 1097.74 860.589C1095.57 865.343 1094.75 870.788 1093.8 875.898C1091.38 874.732 1089.6 873.777 1086.82 874.058L1086.7 873.361Z"/>
	<path fill="#D2230E" transform="scale(1.18945 1.18945)" d="M1121.66 839.475L1138.8 854.131C1127.87 857.628 1119.1 862.495 1113.55 873.042C1111.37 877.192 1110.92 882.081 1110.5 886.688L1105.56 883.962L1093.8 875.898C1094.75 870.788 1095.57 865.343 1097.74 860.589C1102.36 850.5 1111.46 843.306 1121.66 839.475Z"/>
	<path fill="#F58B09" transform="scale(1.18945 1.18945)" d="M943.828 676.071L1016.91 658.135L1018.2 662.67C1018.01 665.934 1019.22 669.267 1020 672.416C1021.79 679.698 1024.68 688.6 1024.68 696.109L1025.68 704.735L946.418 724.35L937.559 692.248C938.641 687.039 941.99 681.186 943.828 676.071Z"/>
	<path fill="#A41601" transform="scale(1.18945 1.18945)" d="M878.113 521.442L916.524 535.249L924.302 538.514C932.994 542.234 943.125 546.201 950.714 551.893C947.591 606.333 928.665 659.763 906.585 709.221C891.353 743.341 874.005 776.512 852.019 806.822C842.978 819.286 832.672 830.711 822.189 841.962L821.302 842.081L820.502 839.428L820.462 850.335C811.688 849.402 802.155 850.184 793.302 850.246L743.722 850.3C739.288 850.282 727.079 851.499 723.666 849.155C715.196 855.339 715.531 863.599 711.859 872.438C707.624 872.513 703.362 872.535 699.153 873.051C697.444 873.261 693.569 874.324 691.974 873.931C691.434 873.798 689.989 872.428 689.412 872C686.977 870.196 684.563 868.507 681.861 867.112C666.67 859.268 645.772 860.312 633.401 873.207C630.534 876.195 628.355 879.983 626.379 883.603L615.749 883.7L615.649 876.396L615.712 849.332L615.969 800.545L617.95 799.106C621.275 798.868 624.825 797.506 628.043 796.588C657.856 787.621 687.671 776.78 715.096 761.926C733.291 752.072 750.353 740.331 766.846 727.878L767.986 727.926C772.818 727.959 776.754 724.628 779.981 721.396C786.246 715.121 786.964 709.732 787.02 701.253C787.662 703.82 786.708 707.189 787.868 709.298L803.421 693.883C828.435 670.801 850.287 639.618 863.967 608.568C867.759 599.961 871.812 590.011 872.97 580.615C876.329 575.689 877.117 566.196 877.835 560.305C879.861 555.917 879.915 552.735 879.747 547.984C880.027 543.863 880.988 538.696 879.862 534.707C879.6 533.782 880.471 531.383 880.478 530.205C880.497 527.117 879.232 524.263 878.113 521.442Z"/>
	<path fill="#FFF200" transform="scale(1.18945 1.18945)" d="M723.666 849.155L723.92 839.413L763.871 839.348L748.558 830.959L760.483 831.765L757.495 816.969C762.483 823.242 765.587 831.504 768.888 838.779L779.201 818.077C779.997 822.055 778.471 828.266 777.846 832.352C781.942 831.015 786.259 830.604 790.513 830.038L776.271 839.302C786.366 839.683 796.661 839.044 806.772 838.921C811.089 838.869 816.359 838.242 820.502 839.428L820.462 850.335C811.688 849.402 802.155 850.184 793.302 850.246L743.722 850.3C739.288 850.282 727.079 851.499 723.666 849.155Z"/>
	<path fill="#E65609" transform="scale(1.18945 1.18945)" d="M878.113 521.442L916.524 535.249L924.302 538.514C919.555 564.604 909.458 589.705 897.471 613.277C861.819 683.386 806.331 744.068 741.825 788.665C715.447 806.902 686.585 822.045 656.821 833.937L632.664 842.951C627.23 844.821 620.576 846.375 615.712 849.332L615.969 800.545L617.95 799.106C621.275 798.868 624.825 797.506 628.043 796.588C657.856 787.621 687.671 776.78 715.096 761.926C733.291 752.072 750.353 740.331 766.846 727.878L767.986 727.926C772.818 727.959 776.754 724.628 779.981 721.396C786.246 715.121 786.964 709.732 787.02 701.253C787.662 703.82 786.708 707.189 787.868 709.298L803.421 693.883C828.435 670.801 850.287 639.618 863.967 608.568C867.759 599.961 871.812 590.011 872.97 580.615C876.329 575.689 877.117 566.196 877.835 560.305C879.861 555.917 879.915 552.735 879.747 547.984C880.027 543.863 880.988 538.696 879.862 534.707C879.6 533.782 880.471 531.383 880.478 530.205C880.497 527.117 879.232 524.263 878.113 521.442Z"/>
	<path fill="#FFF200" transform="scale(1.18945 1.18945)" d="M718.111 484.669C728.059 493.707 740.251 497.953 752.626 502.53C756.929 507.788 761.666 514.577 767.193 518.585L767.367 519.06C772.231 523.32 777.491 526.796 782.943 530.248C791.925 535.027 800.807 539.822 810.141 543.888C814.849 545.939 821.42 547.353 825.597 549.919L825.645 549.902C833.354 536.965 837.003 525.177 837.031 510.094L852.714 514.767L866.025 519.408C870.505 519.137 873.956 519.708 878.113 521.442C879.232 524.263 880.497 527.117 880.478 530.205C880.471 531.383 879.6 533.782 879.862 534.707C880.988 538.696 880.027 543.863 879.747 547.984C879.915 552.735 879.861 555.917 877.835 560.305C877.117 566.196 876.329 575.689 872.97 580.615C871.812 590.011 867.759 599.961 863.967 608.568C850.287 639.618 828.435 670.801 803.421 693.883L787.868 709.298C786.708 707.189 787.662 703.82 787.02 701.253C786.964 709.732 786.246 715.121 779.981 721.396C776.754 724.628 772.818 727.959 767.986 727.926L766.846 727.878C750.353 740.331 733.291 752.072 715.096 761.926C687.671 776.78 657.856 787.621 628.043 796.588C627.639 784.862 624.405 772.646 622.516 761.043L584.881 734.505C586.068 731.936 586.633 728.501 587.406 725.74L510.586 708.365L510.547 705.708C511.804 703.915 511.969 701.857 512.339 699.745C514.201 695.821 514.91 691.384 515.869 687.168L520.437 667.279L521.869 660.33L528.483 628.444C531.366 615.47 533.165 599.051 539.32 587.248C543.653 578.939 549.509 572.999 556.518 567.014C564.234 561.869 572.978 558.647 581.554 555.243L619.558 541.236L658.383 528.608C660.023 527.128 659.646 524.104 660.709 522.127C661.935 519.847 664.833 517.494 667.335 516.837C669.82 516.183 673.389 516.531 675.627 517.758C676.606 518.295 677.335 518.731 678.431 519.012L679.401 519.248L689.209 514.874C692.399 513.051 696.183 511.797 699.583 510.367C703.79 508.06 707.889 505.139 711.358 501.838L715.65 493.218C715.847 490.626 717.353 487.225 718.111 484.669Z"/>
	<path fill="#F58B09" transform="scale(1.18945 1.18945)" d="M657.368 679.291L658.657 679.368C660.451 679.625 661.916 680.339 662.921 681.829C664.346 683.941 663.897 685.933 663.375 688.274C661.37 690.593 661.054 690.897 658.125 691.74C656.894 691.752 655.56 691.795 654.433 691.231C653.151 690.588 651.729 689.28 651.375 687.84C650.879 685.824 650.992 684.39 651.978 682.605C653.154 680.478 655.144 679.843 657.368 679.291Z"/>
	<path fill="#0E8D16" transform="scale(1.18945 1.18945)" d="M658.383 528.608C660.023 527.128 659.646 524.104 660.709 522.127C661.935 519.847 664.833 517.494 667.335 516.837C669.82 516.183 673.389 516.531 675.627 517.758C676.606 518.295 677.335 518.731 678.431 519.012L679.401 519.248C678.954 520.358 678.624 520.661 678.861 521.866C679.488 525.057 679.965 529.084 677.894 531.88C676.339 533.98 673.604 535.387 671.026 535.661C668.386 535.942 665.954 535.769 663.88 533.951L659.337 528.958L658.383 528.608Z"/>
	<path fill="#0E8D16" transform="scale(1.18945 1.18945)" d="M667.269 540.507C669.329 540.199 670.818 540.108 672.782 540.88C675.333 541.883 677.624 544.13 678.602 546.686C679.636 549.389 679.599 551.964 678.406 554.614C677.026 557.681 674.534 558.887 671.625 560.083C669.921 560.365 668.407 560.25 666.75 559.718C663.871 558.796 661.752 557.026 660.385 554.317C659.111 551.795 659.229 549.229 660.264 546.64C661.616 543.263 664.099 541.802 667.269 540.507Z"/>
	<path fill="#0E8D16" transform="scale(1.18945 1.18945)" d="M866.025 519.408C870.505 519.137 873.956 519.708 878.113 521.442C879.232 524.263 880.497 527.117 880.478 530.205C880.471 531.383 879.6 533.782 879.862 534.707C877.232 536.674 874.842 538.298 871.434 538.559C868.519 538.783 865.92 537.899 863.774 535.933C861.77 534.097 860.501 531.838 860.546 529.038C860.617 524.691 863.166 522.256 866.025 519.408Z"/>
	<path fill="#0E8D16" transform="scale(1.18945 1.18945)" d="M877.835 560.305C875.772 561.644 873.483 563.131 870.979 563.288C868.652 563.435 865.744 561.763 864.129 560.136C862.146 558.137 860.708 555.541 860.818 552.671C860.921 549.955 861.961 546.827 864.019 544.965C866.057 543.12 868.282 542.792 870.94 542.879C875.347 543.022 876.899 544.953 879.747 547.984C879.915 552.735 879.861 555.917 877.835 560.305Z"/>
	<path fill="#0E8D16" transform="scale(1.18945 1.18945)" d="M674.017 564.513C675.766 564.161 677.302 564.173 679.031 564.685C681.541 565.429 683.646 567.446 684.8 569.764C686.152 572.482 686.332 575.555 685.255 578.404C684.058 581.568 681.23 582.944 678.375 584.274C676.364 584.459 674.283 584.688 672.352 583.942C669.546 582.859 667.367 580.421 666.261 577.664C665.331 575.343 665.539 572.281 666.703 570.079C668.343 566.976 670.865 565.599 674.017 564.513Z"/>
	<path fill="#0E8D16" transform="scale(1.18945 1.18945)" d="M852.566 573.396C853.286 571.925 854.223 570.243 855.375 569.068C857.099 567.307 859.717 566.53 862.125 566.495C865.118 566.45 868.311 567.876 870.3 570.097C873.268 573.412 873.101 576.445 872.97 580.615C872.275 581.689 871.545 582.75 870.651 583.673C868.573 585.816 865.048 586.724 862.125 586.588C859.063 586.446 856.248 585.23 854.323 582.798C852.008 579.871 852.271 576.863 852.566 573.396Z"/>
	<path fill="#0E8D16" transform="scale(1.18945 1.18945)" d="M699.669 609.984C701.767 609.83 704.045 609.774 706.099 610.274C708.747 610.918 710.787 612.83 712.014 615.217C713.323 617.762 713.507 620.79 712.514 623.47C711.273 626.822 708.884 628.356 705.826 629.779C704.375 630.249 702.025 630.417 700.5 630.075C697.745 629.458 695.172 627.631 693.725 625.202C692.197 622.637 691.896 619.679 692.788 616.837C693.951 613.134 696.443 611.683 699.669 609.984Z"/>
	<path fill="#0E8D16" transform="scale(1.18945 1.18945)" d="M683.963 587.768C685.54 587.513 687.16 587.254 688.736 587.655C691.773 588.427 694.403 590.583 695.777 593.395C697.004 595.906 696.975 598.715 696.005 601.313C694.656 604.926 691.834 606.222 688.579 607.718C686.53 607.79 683.946 608.073 681.97 607.519C679.581 606.85 677.417 604.167 676.438 602.016C675.339 599.599 675.427 596.478 676.463 594.051C677.888 590.714 680.669 588.924 683.963 587.768Z"/>
	<path fill="#0E8D16" transform="scale(1.18945 1.18945)" d="M722.957 630.529C724.785 630.321 726.572 630.737 728.25 631.488C730.799 632.628 732.876 635.169 733.706 637.825C734.584 640.634 734.025 643.597 732.545 646.1C730.723 649.182 728.109 650.263 724.875 651.213C722.555 651.403 720.646 651.05 718.58 649.965C716.398 648.819 714.183 646.634 713.539 644.191C712.68 640.924 713.313 637.827 715.173 635.063C716.996 632.355 719.874 631.18 722.957 630.529Z"/>
	<path fill="#0E8D16" transform="scale(1.18945 1.18945)" d="M851.611 588.519C853.655 588.366 855.69 588.519 857.553 589.444C859.96 590.638 861.987 593.165 862.849 595.694C863.774 598.406 863.56 601.982 862.107 604.468C860.406 607.379 858.123 608.621 854.976 609.524C852.953 609.908 850.448 609.637 848.599 608.716C845.948 607.395 843.842 604.351 843.17 601.515C842.556 598.922 842.601 595.781 844.104 593.502C846.001 590.623 848.358 589.372 851.611 588.519Z"/>
	<path fill="#0E8D16" transform="scale(1.18945 1.18945)" d="M834.748 611.024C836.364 610.811 838.2 610.51 839.793 610.965C842.745 611.808 845.81 614.594 847.022 617.448C847.98 619.703 847.898 623.399 846.931 625.629C845.435 629.08 842.575 630.434 839.356 631.838C836.943 631.847 834.59 631.816 832.383 630.716C829.585 629.321 827.914 627.096 827.017 624.121C826.214 621.456 826.924 618.348 828.229 615.942C829.761 613.119 831.865 612.006 834.748 611.024Z"/>
	<path fill="#0E8D16" transform="scale(1.18945 1.18945)" d="M756.003 663.903L754.703 665.047C752.492 666.667 749.857 667.184 747.163 666.697C744.162 666.155 741.715 664.322 740.027 661.82C738.49 659.541 738.284 656.804 738.8 654.16C739.435 650.903 741.672 647.739 744.476 645.968C747.033 644.352 750.339 643.86 753.275 644.684C756.527 645.598 758.301 648.302 759.836 651.071C756.976 655.592 755.858 658.507 756.003 663.903Z"/>
	<path fill="#0E8D16" transform="scale(1.18945 1.18945)" d="M812.578 631.279C814.989 630.918 817.013 630.775 819.376 631.553C822.048 632.433 824.308 634.637 825.441 637.196C826.824 640.317 826.495 643.51 825.058 646.546C823.554 649.721 821.236 651.069 818.132 652.284C816.306 652.518 814.697 652.623 812.921 652.101C809.532 651.106 806.858 649.196 805.298 645.941C803.991 643.215 804.088 640.177 805.29 637.427C806.781 634.014 809.285 632.511 812.578 631.279Z"/>
	<path fill="#0E8D16" transform="scale(1.18945 1.18945)" d="M778.92 655.347C780.016 651.401 780.947 647.92 784.795 645.747C787.579 644.174 790.624 644.187 793.572 645.229C796.429 646.239 798.889 648.694 800.01 651.506C801.322 654.798 801.332 658.419 799.723 661.616C798.462 664.121 796.188 665.709 793.545 666.53C790.734 667.402 786.695 667.024 784.14 665.604C782.732 664.821 781.613 663.559 780.554 662.371L778.92 655.347Z"/>
	<path fill="#D2230E" transform="scale(1.18945 1.18945)" d="M764.91 648.078C769.434 648.032 772.656 648.079 776.054 651.477C777.216 652.639 778.144 653.901 778.92 655.347L780.554 662.371L777.384 667.864C773.908 670.528 771.152 672.554 766.492 671.971C764.696 671.746 762.877 670.93 761.216 670.241C758.975 668.307 757.582 666.371 756.003 663.903C755.858 658.507 756.976 655.592 759.836 651.071L764.91 648.078Z"/>
	<path fill="#F58B09" transform="scale(1.18945 1.18945)" d="M521.869 660.33L599.694 678.214L587.406 725.74L510.586 708.365L510.547 705.708C511.804 703.915 511.969 701.857 512.339 699.745C514.201 695.821 514.91 691.384 515.869 687.168L520.437 667.279L521.869 660.33Z"/>
	<path fill="#AE2B38" transform="scale(1.18945 1.18945)" d="M837.031 510.094L852.714 514.767C852.01 524.429 850.888 533.89 847.264 542.97C842.749 554.282 835.297 564.302 827.922 573.884C814.859 590.858 800.657 606.521 784.442 620.548C780.201 624.216 770.859 633.817 765.777 633.902C750.151 621.114 735.072 608.758 721.836 593.346C713.765 583.948 706.78 574.099 700.176 563.625C695.243 555.799 690.271 547.725 688.827 538.412C687.65 530.826 688.634 522.482 689.209 514.874C692.399 513.051 696.183 511.797 699.583 510.367C699.579 517.546 699.948 524.175 701.966 531.139C704.642 540.38 709.816 549.302 715.157 557.269C727.349 575.454 742.916 591.065 758.309 606.523C760.476 608.699 764.934 614.059 767.761 614.907C788.784 596.141 811.371 574.469 825.597 549.919L825.645 549.902C833.354 536.965 837.003 525.177 837.031 510.094Z"/>
	<path fill="#FFF200" transform="scale(1.18945 1.18945)" d="M718.111 484.669C728.059 493.707 740.251 497.953 752.626 502.53C756.929 507.788 761.666 514.577 767.193 518.585L767.367 519.06C772.231 523.32 777.491 526.796 782.943 530.248C791.925 535.027 800.807 539.822 810.141 543.888C814.849 545.939 821.42 547.353 825.597 549.919C811.371 574.469 788.784 596.141 767.761 614.907C764.934 614.059 760.476 608.699 758.309 606.523C742.916 591.065 727.349 575.454 715.157 557.269C709.816 549.302 704.642 540.38 701.966 531.139C699.948 524.175 699.579 517.546 699.583 510.367C703.79 508.06 707.889 505.139 711.358 501.838L715.65 493.218C715.847 490.626 717.353 487.225 718.111 484.669Z"/>
	<path fill="#F2AC05" transform="scale(1.18945 1.18945)" d="M715.65 493.218C721.977 506.126 732.109 512.112 745.386 516.65C752.11 518.948 758.666 520.162 765.75 520.567C766.69 520.015 766.84 520.079 767.367 519.06C772.231 523.32 777.491 526.796 782.943 530.248C777.234 531.13 771.197 531.509 765.426 531.029C743.929 529.239 725.051 518.057 711.358 501.838L715.65 493.218Z"/>
	<path fill="#FFF200" transform="scale(1.18945 1.18945)" d="M718.111 484.669C728.059 493.707 740.251 497.953 752.626 502.53C756.929 507.788 761.666 514.577 767.193 518.585L767.367 519.06C766.84 520.079 766.69 520.015 765.75 520.567C758.666 520.162 752.11 518.948 745.386 516.65C732.109 512.112 721.977 506.126 715.65 493.218C715.847 490.626 717.353 487.225 718.111 484.669Z"/>
	<path fill="#F2AC05" transform="scale(1.18945 1.18945)" d="M599.694 678.214L602.99 666.16L606.809 678.62C613.466 686.115 618.467 694.458 626.22 701.12C640.694 713.557 659.19 716.963 677.687 715.532C710.574 712.988 740.108 694.821 761.216 670.241C762.877 670.93 764.696 671.746 766.492 671.971C771.152 672.554 773.908 670.528 777.384 667.864L780.137 671.264C784.773 677.055 790.798 682.28 796.069 687.517C798.077 689.512 800.708 693.005 803.421 693.883L787.868 709.298C786.708 707.189 787.662 703.82 787.02 701.253C786.964 709.732 786.246 715.121 779.981 721.396C776.754 724.628 772.818 727.959 767.986 727.926L766.846 727.878C750.353 740.331 733.291 752.072 715.096 761.926C687.671 776.78 657.856 787.621 628.043 796.588C627.639 784.862 624.405 772.646 622.516 761.043L584.881 734.505C586.068 731.936 586.633 728.501 587.406 725.74L599.694 678.214Z"/>
	<path fill="#D2230E" transform="scale(1.18945 1.18945)" d="M749.109 704.95C750.63 699.032 752.606 693.261 757.713 689.459C761.83 686.394 767.703 685.712 772.63 686.491C778.578 688.836 782.878 691.419 785.529 697.481L787.02 701.253C786.964 709.732 786.246 715.121 779.981 721.396C776.754 724.628 772.818 727.959 767.986 727.926L766.846 727.878C763.583 726.761 760.994 725.444 758.122 723.537C751.948 718.155 750.122 712.928 749.109 704.95Z"/>
	<path fill="#A41601" transform="scale(1.18945 1.18945)" d="M772.63 686.491C778.578 688.836 782.878 691.419 785.529 697.481L787.02 701.253C786.964 709.732 786.246 715.121 779.981 721.396C776.754 724.628 772.818 727.959 767.986 727.926L766.846 727.878C763.583 726.761 760.994 725.444 758.122 723.537C766.307 720.377 770.675 715.478 774.268 707.642L774.659 706.806C776.572 702.384 775.795 695.198 773.948 690.82C773.389 689.496 772.971 688.331 772.705 686.918L772.63 686.491Z"/>
	<path fill="#034570" transform="scale(1.18945 1.18945)" d="M599.694 678.214L602.99 666.16L606.809 678.62L619.779 743.257L619.807 743.266L622.516 761.043L584.881 734.505C586.068 731.936 586.633 728.501 587.406 725.74L599.694 678.214Z"/>
	<path fill="#FFF200" transform="scale(1.18945 1.18945)" d="M749.109 704.95C750.122 712.928 751.948 718.155 758.122 723.537C760.994 725.444 763.583 726.761 766.846 727.878C750.353 740.331 733.291 752.072 715.096 761.926C687.671 776.78 657.856 787.621 628.043 796.588C627.639 784.862 624.405 772.646 622.516 761.043L619.807 743.266C620.089 742.812 620.171 742.135 620.653 741.904C622.491 741.023 631.839 742.723 634.497 742.756C663.286 743.122 691.231 735.773 717.014 723.088C728.158 717.606 738.365 711.092 749.109 704.95Z"/>
	<path fill="#FFF200" transform="scale(1.18945 1.18945)" d="M712.245 79.1234C730.308 76.1453 749.57 74.5344 767.87 75.0099L771.95 75.0083C787.659 75.26 805.052 75.4032 820.522 78.3774C830.776 76.451 842.758 85.7344 852.722 84.3169C857.874 86.2827 862.849 87.9369 868.339 88.7428C870.259 89.2231 872.038 89.6628 873.818 90.5559C877.246 92.2758 881.571 92.9074 885.276 93.9662C891.249 95.6734 897.171 97.7786 902.971 100.007L948.275 120.813L996.353 152.606L997.618 150.861C1000.1 159.046 1012.16 163.844 1017.9 169.769L1047.99 200.635L1058.89 213.779L1073.57 234.009C1076.16 237.76 1078.99 243.155 1082.36 246.161C1083.4 247.891 1084.5 249.593 1085.29 251.453C1086.52 254.316 1088.74 256.585 1089.75 259.553L1108.06 296.676C1114.91 312.926 1121.22 329.36 1125.5 346.496C1126.25 349.466 1127.84 353.647 1127.76 356.602L1129.77 363.619C1134.53 382.783 1136.15 402.331 1136.93 422.008L1134.33 480.174L1130.01 503.954C1129.57 506.252 1128.04 510.949 1128.77 512.996L1111.54 568.651L1091.79 610.372C1088.39 615.973 1085.3 622.91 1081.24 627.974C1085.75 642.269 1086.67 654.45 1087.28 669.312L1027.13 710.002L1025.68 704.735L1024.68 696.109C1024.68 688.6 1021.79 679.698 1020 672.416C1019.22 669.267 1018.01 665.934 1018.2 662.67L1016.91 658.135L1006.61 623.661C1000.23 603.264 991.216 583.232 974.554 569.259L970.582 565.716C964.616 560.211 957.621 556.085 950.714 551.893C943.125 546.201 932.994 542.234 924.302 538.514L916.524 535.249L878.113 521.442C873.956 519.708 870.505 519.137 866.025 519.408L852.714 514.767L837.031 510.094C837.003 525.177 833.354 536.965 825.645 549.902L825.597 549.919C821.42 547.353 814.849 545.939 810.141 543.888C800.807 539.822 791.925 535.027 782.943 530.248C777.491 526.796 772.231 523.32 767.367 519.06L767.193 518.585C761.666 514.577 756.929 507.788 752.626 502.53C740.251 497.953 728.059 493.707 718.111 484.669C717.353 487.225 715.847 490.626 715.65 493.218L711.358 501.838C707.889 505.139 703.79 508.06 699.583 510.367C696.183 511.797 692.399 513.051 689.209 514.874L679.401 519.248L678.431 519.012C677.335 518.731 676.606 518.295 675.627 517.758C673.389 516.531 669.82 516.183 667.335 516.837C664.833 517.494 661.935 519.847 660.709 522.127C659.646 524.104 660.023 527.128 658.383 528.608L619.558 541.236L581.554 555.243C572.978 558.647 564.234 561.869 556.518 567.014C549.509 572.999 543.653 578.939 539.32 587.248C533.165 599.051 531.366 615.47 528.483 628.444L521.869 660.33L520.437 667.279L515.869 687.168C514.91 691.384 514.201 695.821 512.339 699.745L508.222 697.093L503.887 701.44L448.182 670.006L439.848 665.586L453.737 633.094L453.258 632.553C453.3 630.249 451.285 628.734 450.117 626.908C447.961 623.537 445.749 619.704 443.996 616.102L443.629 615.338C441.499 615.275 439.499 615.278 437.438 614.665L441.03 614.344C442.159 614.118 442.315 614.05 443.163 613.275L421.359 567.225C414.014 548.471 409.123 529.026 404.993 509.344C405.296 505.871 403.707 501.12 403.163 497.601L400.67 477.973C397.907 460.299 398.324 441.253 398.913 423.394L404.803 368.3C406.327 366.289 406.438 360.397 406.791 357.74L419.977 315.34L424.416 303.816L446.722 258.143C447.041 257.288 447.312 256.638 447.867 255.903L450.843 251.36L451.125 250.944C451.098 249.973 451.108 249.9 451.608 248.993L453.361 248.944L481.619 208.947C492.336 194.81 506.633 182.059 519.373 169.72C520.989 166.552 529.013 160.086 532.186 158.393C534.959 157.181 537.632 154.734 540.056 152.891L553.475 142.91L576.746 127.927L634.589 99.3993L630.883 96.8671C631.857 96.7976 632.428 96.7423 633.345 97.1471C634.265 97.5536 635.031 97.813 636 98.0902C637.016 97.7563 638.292 97.5247 639.059 96.7579L639.375 96.406C640.591 96.5768 641.131 96.3314 642.176 95.7829C642.959 95.3718 643.599 95.0324 644.449 94.7491L645.188 94.5268C650.874 92.5127 657.901 93.0245 662.473 89.1425C670.426 89.2127 677.119 86.7321 683.958 82.9123C690.002 83.1707 697.089 81.0545 703.177 80.214C705.288 79.9226 707.061 79.1549 709.211 79.41C710.423 79.5537 711.062 79.5728 712.245 79.1234Z"/>
	<path fill="#A41601" transform="scale(1.18945 1.18945)" d="M767.873 75.93C770.796 83.1516 777.163 95.4863 776.387 103.321L775.749 104.399C772.477 100.038 770.272 94.7919 768.276 89.7511L766.542 83.6099C766.434 80.7397 767.01 78.6285 767.873 75.93Z"/>
	<defs>
		<linearGradient id="gradient_0" gradientUnits="userSpaceOnUse" x1="711.88983" y1="231.13141" x2="764.51587" y2="241.71643">
			<stop offset="0" stop-color="#43491E"/>
			<stop offset="1" stop-color="#306228"/>
		</linearGradient>
	</defs>
	<path fill="url(#gradient_0)" transform="scale(1.18945 1.18945)" d="M766.448 233.143L766.972 233.34C766.519 235.907 766.442 238.233 766.491 240.826L710.024 240.53L709.854 234.151L766.448 233.143Z"/>
	<path fill="#F06B10" transform="scale(1.18945 1.18945)" d="M453.737 633.094C458.867 637.281 462.729 644.326 466.736 649.672C475.005 660.706 483.647 671.704 492.881 681.945C497.571 687.147 502.585 692.907 508.222 697.093L503.887 701.44L448.182 670.006L439.848 665.586L453.737 633.094Z"/>
	<path fill="#D2230E" transform="scale(1.18945 1.18945)" d="M766.644 120.703L768.396 124.509C765.762 128.942 766.724 151.98 767.154 158.27L766.206 158.517C767.436 165.028 766.778 172.598 766.806 179.243C766.82 182.643 767.38 187.322 766.505 190.555L766.426 202.704C763.817 202.703 761.147 201.803 758.754 200.803C751.145 197.624 744.098 192.24 741.003 184.353C739.315 180.052 739.479 175.511 740.247 171.042C743.483 152.193 758.964 138.543 766.325 121.456L766.644 120.703Z"/>
	<path fill="#F06B10" transform="scale(1.18945 1.18945)" d="M766.206 158.517C767.436 165.028 766.778 172.598 766.806 179.243C766.82 182.643 767.38 187.322 766.505 190.555C761.379 188.954 757.181 186.405 754.667 181.445C752.96 178.08 753.407 173.779 754.574 170.312C756.5 164.585 761.019 161.141 766.206 158.517Z"/>
	<path fill="#E65609" transform="scale(1.18945 1.18945)" d="M1081.24 627.974C1085.75 642.269 1086.67 654.45 1087.28 669.312L1027.13 710.002L1025.68 704.735L1024.68 696.109C1032.47 690.936 1038.99 682.929 1045.09 675.922C1058.37 660.687 1070.45 645.071 1081.24 627.974Z"/>
	<path fill="#F2AC05" transform="scale(1.18945 1.18945)" d="M768.276 89.7511C770.272 94.7919 772.477 100.038 775.749 104.399L801.123 142.047C808.295 156.482 812.185 172.387 806.905 188.104C805.454 192.424 803.062 196.459 800.371 200.119C795.729 204.82 791.179 207.632 785.452 210.82C791.801 210.761 799.513 209.947 805.5 212.083C814.096 215.149 820.627 221.79 824.544 229.984L826.134 233.543L766.972 233.34L766.448 233.143C767.652 230.856 767.236 206.267 766.426 202.704L766.505 190.555C767.38 187.322 766.82 182.643 766.806 179.243C766.778 172.598 767.436 165.028 766.206 158.517L767.154 158.27C766.724 151.98 765.762 128.942 768.396 124.509L766.644 120.703C768.883 111.416 768.022 99.4267 768.276 89.7511Z"/>
	<path fill="#A41601" transform="scale(1.18945 1.18945)" d="M768.396 124.509C771.319 129.905 774.271 135.224 777.624 140.368C784.914 151.554 797.551 168.14 793.472 182.276C791.302 189.796 785.113 195.547 778.413 199.155C775.048 200.968 770.359 203.451 766.426 202.704L766.505 190.555C767.38 187.322 766.82 182.643 766.806 179.243C766.778 172.598 767.436 165.028 766.206 158.517L767.154 158.27C766.724 151.98 765.762 128.942 768.396 124.509Z"/>
	<path fill="#E65609" transform="scale(1.18945 1.18945)" d="M766.206 158.517L767.154 158.27C772.883 161.274 776.763 164.969 778.902 171.205C780.119 174.754 779.696 179.061 777.913 182.316C775.833 186.111 772.504 188.968 768.306 190.169L766.505 190.555C767.38 187.322 766.82 182.643 766.806 179.243C766.778 172.598 767.436 165.028 766.206 158.517Z"/>
	<path fill="#08BBB9" transform="scale(1.18945 1.18945)" d="M520.437 667.279C510.231 655.843 499.852 644.161 490.875 631.736C453.44 579.922 430.126 517.994 428.357 453.718C425.872 363.425 456.435 277.909 518.701 211.925C578.965 148.062 667.917 106.952 755.912 104.422C748.412 117.749 741.492 130.232 732.326 142.588C655.983 149.185 582.762 189.274 533.628 247.685C484.211 306.433 456.044 385.227 462.778 462.335C467.514 516.575 484.994 566.216 516.052 611.012C520.125 616.888 523.958 622.892 528.483 628.444L521.869 660.33L520.437 667.279Z"/>
	<path fill="#08BBB9" transform="scale(1.18945 1.18945)" d="M776.387 103.321C793.827 105.022 811.402 106.05 828.659 109.227C908.16 123.867 981.526 164.986 1033.02 227.798C1088.48 295.461 1115.08 381.679 1106.33 468.739C1098.98 541.84 1067.92 608.718 1018.2 662.67L1016.91 658.135L1006.61 623.661C1013.46 616.281 1019.22 606.3 1024.62 597.784C1053.02 553.025 1069.42 503.894 1071.55 450.73C1074.68 372.506 1047.94 296.073 994.648 238.468C954.487 195.054 904.758 166.538 847.99 150.799C833.087 146.667 816.636 142.589 801.123 142.047L775.749 104.399L776.387 103.321Z"/>
	<path fill="#1CD6DC" transform="scale(1.18945 1.18945)" d="M801.123 142.047C816.636 142.589 833.087 146.667 847.99 150.799C904.758 166.538 954.487 195.054 994.648 238.468C1047.94 296.073 1074.68 372.506 1071.55 450.73C1069.42 503.894 1053.02 553.025 1024.62 597.784C1019.22 606.3 1013.46 616.281 1006.61 623.661C1000.23 603.264 991.216 583.232 974.554 569.259L970.582 565.716C964.616 560.211 957.621 556.085 950.714 551.893C943.125 546.201 932.994 542.234 924.302 538.514L916.524 535.249L925.471 520.44C947.854 478.353 954.018 429.672 939.954 383.81C928.162 345.359 902.262 306.942 866.188 287.735C860.009 275.159 853.447 268.08 842.063 259.989C842.403 255.778 841.952 251.715 839.625 248.091C836.724 243.573 833.244 242.242 828.16 241.216L826.134 233.543L824.544 229.984C820.627 221.79 814.096 215.149 805.5 212.083C799.513 209.947 791.801 210.761 785.452 210.82C791.179 207.632 795.729 204.82 800.371 200.119C803.062 196.459 805.454 192.424 806.905 188.104C812.185 172.387 808.295 156.482 801.123 142.047Z"/>
	<path fill="#2D7EB2" transform="scale(1.18945 1.18945)" d="M800.371 200.119C813.816 201.94 827.394 203.796 840.489 207.441C888.791 220.886 934.253 251.724 964.626 291.66C1003.02 342.147 1019.48 406.081 1010.91 468.922C1005.99 505.026 993.622 538.294 974.554 569.259L970.582 565.716C964.616 560.211 957.621 556.085 950.714 551.893C943.125 546.201 932.994 542.234 924.302 538.514L916.524 535.249L925.471 520.44C947.854 478.353 954.018 429.672 939.954 383.81C928.162 345.359 902.262 306.942 866.188 287.735C860.009 275.159 853.447 268.08 842.063 259.989C842.403 255.778 841.952 251.715 839.625 248.091C836.724 243.573 833.244 242.242 828.16 241.216L826.134 233.543L824.544 229.984C820.627 221.79 814.096 215.149 805.5 212.083C799.513 209.947 791.801 210.761 785.452 210.82C791.179 207.632 795.729 204.82 800.371 200.119Z"/>
	<path fill="#1CD6DC" transform="scale(1.18945 1.18945)" d="M528.483 628.444C523.958 622.892 520.125 616.888 516.052 611.012C484.994 566.216 467.514 516.575 462.778 462.335C456.044 385.227 484.211 306.433 533.628 247.685C582.762 189.274 655.983 149.185 732.326 142.588C725.826 155.777 721.861 173.989 726.769 188.385C728.342 192.997 730.876 197.015 734.012 200.739C738.1 204.446 742.053 207.249 746.709 210.132C740.22 210.421 732.847 210.064 726.75 212.507L726.17 212.736C719.573 215.383 713.933 221.093 711.252 227.681C710.421 229.722 710.002 231.962 709.854 234.151L710.024 240.53C705.394 241.281 700.665 242.469 697.659 246.435C694.466 250.648 695.096 255.214 695.333 260.162C682.685 268.518 669.708 279.908 665.343 295.141C626.526 321.585 600.087 360.717 591.319 407.115C582.481 453.877 593.679 501.013 619.171 540.703L619.558 541.236L581.554 555.243C572.978 558.647 564.234 561.869 556.518 567.014C549.509 572.999 543.653 578.939 539.32 587.248C533.165 599.051 531.366 615.47 528.483 628.444Z"/>
	<path fill="#2D7EB2" transform="scale(1.18945 1.18945)" d="M734.012 200.739C738.1 204.446 742.053 207.249 746.709 210.132C740.22 210.421 732.847 210.064 726.75 212.507L726.17 212.736C719.573 215.383 713.933 221.093 711.252 227.681C710.421 229.722 710.002 231.962 709.854 234.151L710.024 240.53C705.394 241.281 700.665 242.469 697.659 246.435C694.466 250.648 695.096 255.214 695.333 260.162C682.685 268.518 669.708 279.908 665.343 295.141C626.526 321.585 600.087 360.717 591.319 407.115C582.481 453.877 593.679 501.013 619.171 540.703L619.558 541.236L581.554 555.243C572.978 558.647 564.234 561.869 556.518 567.014C553.201 562.897 550.744 556.715 548.268 551.967C533.016 522.714 524.304 492.715 521.588 459.829C516.204 394.639 538.987 330.887 580.889 281.326C608.615 248.531 645.68 224.938 686.164 211.352C701.603 206.171 717.741 202.112 734.012 200.739Z"/>
	<path fill="#FFF200" transform="scale(1.18945 1.18945)" d="M766.972 233.34L826.134 233.543L828.16 241.216C833.244 242.242 836.724 243.573 839.625 248.091C841.952 251.715 842.403 255.778 842.063 259.989C853.447 268.08 860.009 275.159 866.188 287.735C902.262 306.942 928.162 345.359 939.954 383.81C954.018 429.672 947.854 478.353 925.471 520.44L916.524 535.249L878.113 521.442C873.956 519.708 870.505 519.137 866.025 519.408L852.714 514.767L837.031 510.094C837.003 525.177 833.354 536.965 825.645 549.902L825.597 549.919C821.42 547.353 814.849 545.939 810.141 543.888C800.807 539.822 791.925 535.027 782.943 530.248C777.491 526.796 772.231 523.32 767.367 519.06L767.193 518.585C761.666 514.577 756.929 507.788 752.626 502.53C740.251 497.953 728.059 493.707 718.111 484.669C717.353 487.225 715.847 490.626 715.65 493.218L711.358 501.838C707.889 505.139 703.79 508.06 699.583 510.367C696.183 511.797 692.399 513.051 689.209 514.874L679.401 519.248L678.431 519.012C677.335 518.731 676.606 518.295 675.627 517.758C673.389 516.531 669.82 516.183 667.335 516.837C664.833 517.494 661.935 519.847 660.709 522.127C659.646 524.104 660.023 527.128 658.383 528.608L619.558 541.236L619.171 540.703C593.679 501.013 582.481 453.877 591.319 407.115C600.087 360.717 626.526 321.585 665.343 295.141C669.708 279.908 682.685 268.518 695.333 260.162C695.096 255.214 694.466 250.648 697.659 246.435C700.665 242.469 705.394 241.281 710.024 240.53L766.491 240.826C766.442 238.233 766.519 235.907 766.972 233.34Z"/>
	<path fill="#F58B09" transform="scale(1.18945 1.18945)" d="M768.045 430.512L778.12 422.639C779.604 425.271 780.919 427.71 781.847 430.601C776.912 432.157 771.869 433.636 767.227 435.954C762.412 433.484 757.373 433.354 752.625 431.227C752.25 429.503 752.234 428.496 753.042 426.854C753.908 425.095 754.581 424.674 756.375 424.099C759.521 426.767 762.589 429.223 766.114 431.374L768.045 430.512Z"/>
	<path fill="#D2230E" transform="scale(1.18945 1.18945)" d="M765.306 457.383C758.205 455.433 754.21 453.287 748.698 448.247C751.691 447.189 755.249 445.58 758.425 445.325C761.307 445.093 764.618 446.18 767.592 446.326L768.285 446.356C772.349 444.46 777.572 446.01 781.574 447.395C782.209 447.615 782.734 447.89 783.285 448.273C777.588 453.634 773.293 456.788 765.306 457.383Z"/>
	<path fill="#E65609" transform="scale(1.18945 1.18945)" d="M703.602 375.976C718.392 383.704 731.072 383.201 746.86 379.496L740.874 387.351C738.932 389.112 736.899 391.113 734.516 392.251C729.215 394.78 723.628 395.076 718.125 393.041C710.419 390.19 706.888 382.939 703.602 375.976Z"/>
	<path fill="#E65609" transform="scale(1.18945 1.18945)" d="M712.662 351.348C716.42 351.108 720.485 351.459 724.179 352.199C738.21 355.006 748.556 362.63 756.431 374.396L740.48 365.337L737.147 363.93C721.395 357.705 706.07 356.72 690.471 363.474C697.288 356.253 702.766 352.633 712.662 351.348Z"/>
	<path fill="#003968" transform="scale(1.18945 1.18945)" d="M695.333 260.162C718.165 250.489 743.143 253.469 766.385 259.476C766.676 275.67 765.22 293.42 767.182 309.413L766.436 309.865C756.306 300.531 743.927 296.429 730.266 297.026C716.755 297.616 705.072 304.515 696.103 314.357C683.357 328.344 681.822 343.598 682.817 361.589L685.474 389.925C677.11 379.838 672.261 366.342 667.964 354.088C660.271 334.092 659.851 315.653 665.343 295.141C669.708 279.908 682.685 268.518 695.333 260.162Z"/>
	<path fill="#034570" transform="scale(1.18945 1.18945)" d="M619.558 541.236L619.171 540.703C593.679 501.013 582.481 453.877 591.319 407.115C600.087 360.717 626.526 321.585 665.343 295.141C659.851 315.653 660.271 334.092 667.964 354.088C662.66 354.193 654.253 354.313 650.255 358.583C647.695 361.316 647.602 365.965 648.015 369.465C649.743 384.102 659.894 397.574 665.571 410.929C669.416 419.974 669.923 429.964 673.616 438.788C674.565 441.057 676.253 442.937 677.891 444.741C672.514 446.976 669.754 451.282 667.068 456.232L697.585 456.073C695.144 450.86 692.668 447.985 687.754 444.972C692.935 439.211 693.856 435.275 694.039 427.541C700.723 444.771 709.369 460.096 722.818 472.985C721.246 476.773 719.219 480.736 718.111 484.669C717.353 487.225 715.847 490.626 715.65 493.218L711.358 501.838C707.889 505.139 703.79 508.06 699.583 510.367C696.183 511.797 692.399 513.051 689.209 514.874L679.401 519.248L678.431 519.012C677.335 518.731 676.606 518.295 675.627 517.758C673.389 516.531 669.82 516.183 667.335 516.837C664.833 517.494 661.935 519.847 660.709 522.127C659.646 524.104 660.023 527.128 658.383 528.608L619.558 541.236Z"/>
	<path fill="#E65609" transform="scale(1.18945 1.18945)" d="M697.585 456.073C698.934 461.041 699.071 466.973 696.434 471.548C693.213 477.134 685.984 478.584 681.692 483.668C680.021 482.589 679.35 480.806 677.882 479.512C673 475.21 667.825 473.313 666.236 466.162C665.56 463.122 666.065 459.14 667.068 456.232L697.585 456.073Z"/>
	<path fill="#F2AC05" transform="scale(1.18945 1.18945)" d="M766.972 233.34L826.134 233.543L828.16 241.216C833.244 242.242 836.724 243.573 839.625 248.091C841.952 251.715 842.403 255.778 842.063 259.989C853.447 268.08 860.009 275.159 866.188 287.735C873.696 312.334 870.059 332.595 864.806 357.102C863.288 362.557 854.772 391.979 851.286 394.365C850.302 395.979 849.477 397.255 849.004 399.101L847.504 404.352C846.768 406.454 844.66 410.62 844.875 412.601C843.867 413.619 844.525 414.378 843.801 415.109C842.948 415.971 842.636 417.465 842.254 418.606C841.607 420.535 841.061 422.153 841.125 424.236L840.004 424.607L839.849 425.262C839.457 426.811 838.738 428.223 838.347 429.77C837.356 433.685 834.446 440.073 832.132 443.358L828 450.485C824.809 456.369 820.238 461.841 815.575 466.622C814.394 467.833 812.807 469.913 811.341 470.671L815.898 461.285L815.354 460.237L810.233 470.868C807.422 477.644 798.103 482.585 791.625 485.196C783.882 488.318 776.43 489.06 768.176 489.2L767.879 457.987L765.306 457.383C773.293 456.788 777.588 453.634 783.285 448.273C782.734 447.89 782.209 447.615 781.574 447.395C777.572 446.01 772.349 444.46 768.285 446.356C768.227 442.953 768.495 439.152 767.227 435.954C771.869 433.636 776.912 432.157 781.847 430.601C780.919 427.71 779.604 425.271 778.12 422.639L768.045 430.512C768.478 423.717 768.919 363.272 767.128 360.327C765.64 360.054 764.007 359.792 762.637 359.128C759.491 357.603 757.587 355.282 756.494 351.999C755.592 349.287 755.868 346.507 757.21 343.969C759.288 340.035 762.52 338.632 766.593 337.455C767.801 335.467 766.5 313.822 766.436 309.865L767.182 309.413C765.22 293.42 766.676 275.67 766.385 259.476C743.143 253.469 718.165 250.489 695.333 260.162C695.096 255.214 694.466 250.648 697.659 246.435C700.665 242.469 705.394 241.281 710.024 240.53L766.491 240.826C766.442 238.233 766.519 235.907 766.972 233.34Z"/>
	<path fill="#FEF2FD" transform="scale(1.18945 1.18945)" d="M766.593 337.455C770.393 337.929 773.859 338.927 776.366 342.084C778.172 344.357 778.925 347.484 778.516 350.336C778.061 353.519 776.242 356.523 773.625 358.397C771.796 359.707 769.33 360.295 767.128 360.327C765.64 360.054 764.007 359.792 762.637 359.128C759.491 357.603 757.587 355.282 756.494 351.999C755.592 349.287 755.868 346.507 757.21 343.969C759.288 340.035 762.52 338.632 766.593 337.455Z"/>
	<path fill="#D2230E" transform="scale(1.18945 1.18945)" d="M830.847 375.467L832.486 375.877C832.085 379.133 830.574 381.482 828.687 384.094C825.019 389.17 818.787 392.829 812.565 393.665C804.847 394.703 798.783 392.188 792.788 387.584L786.777 379.366L790.982 380.664C805.468 384.534 817.773 382.888 830.847 375.467Z"/>
	<path fill="#D2230E" transform="scale(1.18945 1.18945)" d="M814.265 350.565C818.622 350.055 823.802 350.175 828.116 350.995C837.527 352.785 842.658 357.261 848.015 364.94C843.955 362.731 839.676 360.02 835.116 359.079C825.265 357.046 815.491 357.736 805.684 359.685C795.288 362.122 787.476 367.707 777.833 371.457L778.728 370.201C787.473 358.226 800.005 352.817 814.265 350.565Z"/>
	<path fill="#2D101B" transform="scale(1.18945 1.18945)" d="M766.972 233.34L826.134 233.543L828.16 241.216C833.244 242.242 836.724 243.573 839.625 248.091C841.952 251.715 842.403 255.778 842.063 259.989C853.447 268.08 860.009 275.159 866.188 287.735C873.696 312.334 870.059 332.595 864.806 357.102C863.288 362.557 854.772 391.979 851.286 394.365L851.546 391.124C853.272 365.02 857.048 334.549 838.321 313.466C829.037 303.015 816.257 297.355 802.372 296.684C789.972 296.085 776.308 301.036 767.182 309.413C765.22 293.42 766.676 275.67 766.385 259.476C743.143 253.469 718.165 250.489 695.333 260.162C695.096 255.214 694.466 250.648 697.659 246.435C700.665 242.469 705.394 241.281 710.024 240.53L766.491 240.826C766.442 238.233 766.519 235.907 766.972 233.34Z"/>
	<path fill="#FFF200" transform="scale(1.18945 1.18945)" d="M766.972 233.34L826.134 233.543L828.16 241.216C833.244 242.242 836.724 243.573 839.625 248.091C841.952 251.715 842.403 255.778 842.063 259.989C820.008 249.004 789.431 251.58 766.572 258.75L766.385 259.476C743.143 253.469 718.165 250.489 695.333 260.162C695.096 255.214 694.466 250.648 697.659 246.435C700.665 242.469 705.394 241.281 710.024 240.53L766.491 240.826C766.442 238.233 766.519 235.907 766.972 233.34Z"/>
	<path fill="#00320E" transform="scale(1.18945 1.18945)" d="M766.972 233.34L826.134 233.543L828.16 241.216L766.491 240.826C766.442 238.233 766.519 235.907 766.972 233.34Z"/>
	<path fill="#034570" transform="scale(1.18945 1.18945)" d="M866.188 287.735C902.262 306.942 928.162 345.359 939.954 383.81C954.018 429.672 947.854 478.353 925.471 520.44L916.524 535.249L878.113 521.442C873.956 519.708 870.505 519.137 866.025 519.408L852.714 514.767L837.031 510.094C837.003 525.177 833.354 536.965 825.645 549.902L825.597 549.919C821.42 547.353 814.849 545.939 810.141 543.888C800.807 539.822 791.925 535.027 782.943 530.248C777.491 526.796 772.231 523.32 767.367 519.06L767.193 518.585C761.666 514.577 756.929 507.788 752.626 502.53C740.251 497.953 728.059 493.707 718.111 484.669C719.219 480.736 721.246 476.773 722.818 472.985C736.186 484.426 750.769 488.997 768.176 489.2C776.43 489.06 783.882 488.318 791.625 485.196C798.103 482.585 807.422 477.644 810.233 470.868L815.354 460.237L815.898 461.285L811.341 470.671C812.807 469.913 814.394 467.833 815.575 466.622C820.238 461.841 824.809 456.369 828 450.485L832.132 443.358C834.446 440.073 837.356 433.685 838.347 429.77C838.738 428.223 839.457 426.811 839.849 425.262L840.004 424.607L841.125 424.236C841.061 422.153 841.607 420.535 842.254 418.606C842.636 417.465 842.948 415.971 843.801 415.109C844.525 414.378 843.867 413.619 844.875 412.601C844.66 410.62 846.768 406.454 847.504 404.352L849.004 399.101C849.477 397.255 850.302 395.979 851.286 394.365C854.772 391.979 863.288 362.557 864.806 357.102C870.059 332.595 873.696 312.334 866.188 287.735Z"/>
	<path fill="#D2230E" transform="scale(1.18945 1.18945)" d="M846.389 444.832C850.087 444.62 855.712 445.252 859.067 444.495C864.722 446.738 867.191 450.949 870.066 456.079C871.315 461.267 871.014 467.786 868.116 472.403C864.633 477.953 858.515 478.291 855.375 482.946C853.672 482.582 853.987 481.666 852.75 480.854C847.974 477.716 843.144 479.132 839.352 473.247C836.266 468.456 835.547 461.714 836.455 456.191C839.618 451.005 840.81 447.824 846.389 444.832Z"/>
	<path fill="#FFF200" transform="scale(1.18945 1.18945)" d="M846.389 444.832C850.087 444.62 855.712 445.252 859.067 444.495C864.722 446.738 867.191 450.949 870.066 456.079L836.455 456.191C839.618 451.005 840.81 447.824 846.389 444.832Z"/>
	<path fill="#F58B09" transform="scale(1.18945 1.18945)" d="M864.806 357.102C870.542 356.794 878.579 355.703 883.16 359.916C885.505 362.073 886.05 364.604 886.143 367.677C886.38 375.503 881.045 384.186 877.741 391.011C873.947 398.848 870.202 406.608 867.345 414.846C863.999 424.495 863.325 435.335 859.067 444.495C855.712 445.252 850.087 444.62 846.389 444.832L845.709 444.067C840.399 438.029 842.19 433.91 841.218 426.751C833.869 444.209 826.016 459.348 811.863 472.394C818.404 487.947 819.514 502.433 836.746 509.991L837.031 510.094C837.003 525.177 833.354 536.965 825.645 549.902L825.597 549.919C821.42 547.353 814.849 545.939 810.141 543.888C800.807 539.822 791.925 535.027 782.943 530.248C777.491 526.796 772.231 523.32 767.367 519.06L767.193 518.585C761.666 514.577 756.929 507.788 752.626 502.53C740.251 497.953 728.059 493.707 718.111 484.669C719.219 480.736 721.246 476.773 722.818 472.985C736.186 484.426 750.769 488.997 768.176 489.2C776.43 489.06 783.882 488.318 791.625 485.196C798.103 482.585 807.422 477.644 810.233 470.868L815.354 460.237L815.898 461.285L811.341 470.671C812.807 469.913 814.394 467.833 815.575 466.622C820.238 461.841 824.809 456.369 828 450.485L832.132 443.358C834.446 440.073 837.356 433.685 838.347 429.77C838.738 428.223 839.457 426.811 839.849 425.262L840.004 424.607L841.125 424.236C841.061 422.153 841.607 420.535 842.254 418.606C842.636 417.465 842.948 415.971 843.801 415.109C844.525 414.378 843.867 413.619 844.875 412.601C844.66 410.62 846.768 406.454 847.504 404.352L849.004 399.101C849.477 397.255 850.302 395.979 851.286 394.365C854.772 391.979 863.288 362.557 864.806 357.102Z"/>
	<path fill="#F2AC05" transform="scale(1.18945 1.18945)" d="M752.626 502.53L767.515 505.991C767.514 510.071 767.898 514.575 767.193 518.585C761.666 514.577 756.929 507.788 752.626 502.53Z"/>
</svg>
