<svg width="1444" height="1590" viewBox="0 0 1444 1590" fill="none" xmlns="http://www.w3.org/2000/svg">
<path fill-rule="evenodd" clip-rule="evenodd" d="M1077.15 183.16L1074.41 176.01L1076.23 170.9L1071.62 159.94L1065.66 150.94L1063.47 143.15L1059.34 137.06L1057.02 136.01L1054.29 139.68L1048.56 141.91L1035.17 139.68L1024.66 142.55L1017.01 137.12L1016.05 140.73L1018.92 145.02L1018.76 147.73L1015.9 143.43L1011.6 141.05L1010.65 137.39L1012.71 136.43L1010.96 134.68L1007.46 135.16L1003.16 133.73L996.01 131.82L994.89 133.09L997.91 133.73L998.55 135.16L994.57 135.64L990.59 135.16L985.98 137.07L984.55 135.64L984.65 134.65L988.7 134.17L992.03 132.75L987.83 133.3L981.88 133.46L979.34 135.29L973.73 138.34L971.02 139.77L965.61 141.52L961.16 145.82L960.36 148H953.97L945.97 143L940.8 142.5L933.3 143L926.96 139H925.12L922.57 140.59L916.68 136.45L909.84 135.02L893.45 133.75L885.33 131.04L874.83 131.52L872.76 132.16L872.75 132.13L871.39 135.63L869.57 144.53L872 150.19V154.84L868.97 162.11L866.54 168.79L869.17 174.45L871.39 185.16L878.66 352L1128.52 350.1L1128.58 349.66L1124.99 348.23L1120.14 343.24L1118.89 340.62L1114.59 339.35L1111.93 333.8L1109.44 334.99L1105.53 334.83L1099.12 330.62L1095.91 319.67L1096.64 316.73L1096.36 311.52L1095.04 308.72L1095.47 306.83L1097.03 308.17L1103.13 308.56L1100.76 306L1098.78 305.65L1095.4 300.32L1094.04 299.28L1093.8 300.71L1091.46 297.85L1089.66 292.22L1081.42 279.96L1077.96 277.73L1077.03 271.85L1064.01 252.43L1064.17 247.97L1061.98 244.47L1061.19 236.36L1059 233.65V231.27L1051.95 223.47L1051.63 220.45L1052.41 217.11L1050.69 213.76L1038.62 203.42L1037.68 200.08L1030 190.85V186.19L1025.74 180.46L1026.22 177.59L1025.9 174.73L1026.85 173.3L1027.65 175H1029.72L1031.15 179.98L1033.06 182.2L1033.54 184.91L1041 191.76V195.89L1043.72 200.03L1049.29 202.58L1050.56 206.55L1060.59 217.22L1066.16 220.24L1066.79 221.51L1067.59 218.96L1070.45 216.26L1072.05 208.78L1070.14 206.87L1072.68 200.51L1073.16 196.05L1076.35 184.44L1077.15 183.16Z" fill="#CCCCCC" stroke="white" stroke-width="0.5" stroke-miterlimit="10"/>
<path d="M1167 437V434.11L1162.34 431.69L1158 431.53V427.42L1148.76 421.24L1145.25 420.44L1141.46 413.3L1138.6 404.28L1139.84 396.5L1138.72 388.26L1133.62 373.19L1133.07 369.35L1133.78 368.68L1135.44 370.69L1135.99 372.07L1137.01 372.02L1137.05 370.02L1133.02 365.19L1131.61 359.37L1130.74 358.19L1130.82 357.32L1130.02 356.37L1130.58 355.26L1129.47 353.68L1129.94 351.78L1130.2 350L878.39 351.9L880.19 393.05L860 394.98V402.59L859.92 402.71L861.4 485.59L858.16 486.8L854.31 489.22L850.67 487H845.8L842 490.03V495.29L844.2 498.12L841.8 502.97L835 512.07L832.8 511.86L829.2 515.5L829.4 518.54L831.8 520.96L829.6 525.41L825.4 528.03L824.6 530.86L828.4 533.09L828.8 537.33L826.6 540.77L820 547.84V553.21L822.74 555.96L827.64 552.43L830 553.01V555.88L827.55 557.51L830.41 559.55L828.78 562.21L830.82 565.88L831.02 571.39L831.84 575.47L839.79 577.51L841.83 580.78L840 583.84V586.53L839.52 587.52L842 590.07V592.8L840.88 594.32L845.35 598.07L846.16 600.2L851.74 607.71L855.39 615.92L856.91 619.07L866.1 618.08L872.78 614.33L879.47 615.58L885.31 611.42L884.48 605.17L887.4 603.08L898.67 601.83L902.43 602.67L902.85 606.42L908.27 612.67L912.03 618.92L919.55 621.83L928.73 618.5L943.76 619.33L946.69 624.33L961.3 624.75L962.55 621.83L968.81 616L978 616.42V608.92L986.77 604.75L998.88 611L1004.3 616H1012.43L1023.74 604.33L1028.34 596.83L1038.39 589.33L1036.3 586L1035.88 575.58L1030.02 570.17L1043 569.75V563.5L1054.31 563.92L1052.21 576.42L1054.31 594.33L1059.75 596.42L1069.38 608.92L1068.97 621L1081.36 621.97L1082.68 617.09L1086.11 611.74L1085.98 607.24L1084.52 604.8L1086.11 600.42L1090.62 594.94L1091.36 592.14L1093.19 591.9L1095.51 592.63L1099.66 576.93L1102.23 570.36L1108.21 566.1L1108.34 562.81L1113.46 554.41L1114.08 550.76L1118.1 549.91L1119.94 550.15L1122.26 543.46L1128 533.72V526.57L1130.36 520.12L1131.49 518.61L1130.44 518.17L1129.51 513.92L1126.92 505.09L1127.23 500.02L1129.51 497.59L1129.82 494.14L1133.23 488.97L1134.99 478.42L1137.48 471.92L1139.04 469.8L1137.9 467.97L1135.93 466.65L1138 461.78V457.52L1140.49 456H1145.56L1146.07 453.64L1145.15 451.59L1145.46 449.44L1149.65 448.52L1152.21 446.37L1156.96 446.83L1158.54 443.86L1162.12 443.19L1165.6 441.3L1168.41 437H1167Z" fill="#CCCCCC" stroke="white" stroke-width="0.5" stroke-miterlimit="10"/>
<path d="M1069.82 607.87L1060.03 595.1L1054.49 592.97L1052.36 574.67L1054.49 561.9L1043 561.47V569.75L1030.25 570.17L1036.01 575.58L1036.42 586L1038.47 589.33L1028.6 596.83L1024.08 604.33L1012.97 616H1003.92L998.57 611L986.64 604.75L978 608.92V617.38L968.86 616.97L962.63 622.76L961.38 625.66L946.85 625.24L943.94 620.28L928.99 619.45L919.85 622.76L912.37 619.86L908.63 613.66L903.23 607.45L902.82 603.72L899.08 602.9L887.86 604.14L884.96 606.21L885.79 612.41L879.97 616.55L873.32 615.31L866.68 619.04L857.53 620.01L856.53 624.44L855.11 626.36L853.7 630.39L853.9 636.73L856.83 639.25L862.18 639.35L863.69 637.34L870.06 637.54L872.07 639.15L870.56 641.97L871.17 645.8L874.8 648.62L879.55 650.63L883.08 650.84L886.31 652.75L887.42 655.57L891.56 657.59L895.09 657.89L896.81 660.1L895.9 663.13L893.17 665.34L892.67 667.05L891.05 668.87L895.19 672.5L898.82 673.5L900.44 672.7L903.87 674.41L905.39 674.21L912.25 678.13L913.87 680.76L914.16 686.81L916.23 689.02L920.57 690.33L921.68 691.94L921.48 695.97L923.35 697.99L930.36 699.75L933.6 702.27L932.99 704.28L933.75 710.68L936.07 712.39L939.96 714.81L941.57 717.23L941.55 718.08L942.22 718.33L942.9 721.65L945.17 724.3L947.52 724.98L949.94 727.55L954.19 731.1L958.35 732.69L960.7 732L962.29 729.36L964.86 728H969.86L972.58 728.15L973.19 729.29L974.93 729.36L979.32 728.15L981.14 725.89L983.41 723.17L988.1 723.39L989.77 724.45L992.35 729.74L994.69 732.46L995.83 734.27L1001.35 736.09L1003.55 738.13L1005.14 741.6L1006.43 743.26L1007.57 746.28L1008.02 748.63L1008.85 748.7L1014.04 748.57L1015.59 749.53L1015.95 748.73L1015 746.99L1015.2 743.98L1017.81 741.57L1021.84 743.17L1027.29 745.18L1030.51 744.18L1034.34 745.18L1034.74 748.39L1039.58 750H1042V746.61L1044.61 744.2L1047.22 744.8L1048.83 744H1052.25L1056.87 741.99L1064.3 741.59L1069.13 742.99L1073.75 740.78L1076.16 737.37L1081.18 734.09V734.07L1083.6 730.84L1085.21 730.18L1087.22 727.46L1091.1 723.68L1093.16 724.49L1098.35 716.61L1105.35 708.78L1104.01 701.45L1101.96 699.03L1101 691.29L1097.49 687.53L1095.8 684.27L1093.26 681H1089.91L1088.3 679.38L1088.42 677.64L1084.57 675.9L1080.36 668.44L1078.86 667.45L1078.12 664.46L1074.27 660.61L1072.16 658L1063.22 658.12L1059.38 656.75L1057.89 653.9L1061.24 649.17L1063.35 647.93L1063.6 643.21L1068.31 644.2L1072.41 643.21L1074.64 644.82L1077.25 645.32L1078.62 642.96L1081.47 640.72L1082.22 630.65L1081.72 622.19L1081.99 621.2L1069.39 620.21L1069.82 607.87Z" fill="#CCCCCC" stroke="white" stroke-width="0.5" stroke-miterlimit="10"/>
<path fill-rule="evenodd" clip-rule="evenodd" d="M1105.41 708.57L1104.06 701.19L1101.99 698.76L1101.02 690.97L1097.5 687.2L1095.8 683.91L1093.24 681H1089.23L1087.66 679.04L1087.78 677.34L1084.01 675.64L1079.88 668.33L1078.42 667.36L1077.69 664.43L1073.92 660.66L1071.86 658H1063.11L1059.34 656.89L1057.88 654.09L1061.16 649.46L1063.23 648.25L1063.47 643.63L1068.09 644.6L1072.1 643.63L1074.29 645.21L1076.84 645.69L1078.18 643.38L1080.97 641.19L1081.7 631.33L1081.21 623.06L1082.79 617.21L1086.2 611.86L1086.08 607.36L1084.62 604.92L1086.2 600.54L1090.69 595.06L1091.42 592.26L1093.24 592.02L1095.55 592.75L1099.69 577.05L1102.24 570.47L1108.19 566.21L1108.31 562.93L1113.42 554.53L1114.02 550.88L1118.03 550.03L1119.86 550.27L1122.17 543.58L1128 533.84V526.56L1130.31 520.12L1131.41 518.61L1134.22 519.8L1138.67 520L1140.19 517.47L1143.53 517.27L1149.19 505.31L1151.51 506.83L1152.73 508.96L1161.02 512H1164.96L1168.81 508.66L1172.85 508.15L1175.78 510.78L1177.3 509.16L1180.94 509.26L1187.61 514.63L1188.22 513.41L1191.66 512.71L1195.91 513.62L1199.65 517.06L1203.08 517.77L1210.47 524.35L1212.08 527.6L1218.15 528.51L1218.76 529.92L1222.8 530.33L1224.22 532.26L1229.17 535.5L1235.14 541.37L1238.98 542.18L1243.03 547.95L1243.53 552L1244.85 554.54L1247.88 554.63L1253.64 562.17L1249.6 563.35L1248.28 568.41L1246.46 572.16L1247.27 577.62L1245.25 581.37L1244.85 585.22L1241.51 589.98L1243.53 592.41L1251.42 592.11L1256.37 588.87L1262.04 587.85L1265.78 590.03L1264.46 592.31L1265.74 600.27L1269.37 611.59L1275.03 614.42L1274.22 620.48L1277.05 626.95L1284.73 628.56L1289.98 633.01L1351.81 652L1379.4 651.6L1313.42 717.02L1300.53 716.65L1287.43 717.16L1283.37 719.71L1279.71 720.01L1274.43 722.76L1272.7 727.03L1268.58 729.43L1263.05 732.48L1256.81 733.4L1250.05 736.7L1248.23 739.7L1247.47 739.94L1242.14 739.85L1234.22 741.17L1230.66 739.13L1228.12 734.56L1225.07 733.03L1215.22 734.35L1212.99 735.78L1209.74 735.57L1205.27 737.3L1203.24 740.05L1197.65 748.7L1193.49 749H1190.72L1186.97 747.69L1181.3 748.5L1176.74 746H1169.25L1165.91 745.36L1162.46 741.4L1157.3 737.85L1148.49 729.43L1144.54 727L1134.31 727.6L1129.05 726.29L1124.29 727.91L1120.24 727.1L1117 723.04V710.36L1113.35 709.86L1109.2 710.67L1106.97 706.81L1105.41 708.57Z" fill="#CCCCCC" stroke="white" stroke-width="0.5" stroke-miterlimit="10"/>
<path fill-rule="evenodd" clip-rule="evenodd" d="M1253.31 561.93L1247.58 554.43L1244.56 554.33L1243.25 551.81L1242.75 547.78L1238.73 542.03L1234.9 541.23L1228.97 535.38L1224.04 532.16L1222.62 530.24L1218.6 529.84L1218 528.43L1211.96 527.52L1210.35 524.29L1203 517.74L1199.58 517.04L1195.86 513.61L1191.63 512.71L1188.21 513.41L1187.61 514.62L1180.97 509.28L1177.35 509.18L1175.84 510.79L1172.92 508.17L1168.89 508.67L1165.07 512H1161.15L1152.89 508.98L1151.68 506.86L1149.37 505.35L1143.74 517.24L1140.42 517.44L1138.91 519.96L1134.48 519.76L1130.66 518.15L1129.75 513.91L1127.24 505.15L1127.53 500.11L1129.75 497.69L1130.05 494.26L1133.37 489.12L1135.08 478.64L1137.5 472.19L1139.01 470.07L1137.9 468.26L1135.99 466.95L1138 462.11V457.54L1140.43 456H1145.99L1146.49 453.64L1145.58 451.59L1145.89 449.44L1150.03 448.52L1152.56 446.37L1157.26 446.83L1158.82 443.86L1162.36 443.19L1165.8 441.3L1168.58 437H1168.77L1173.7 442.31L1182.44 465.63L1185.3 480.91L1186.89 481.39L1188 487.02V489.79L1190.8 490.72L1192.51 495.08L1193.6 501.45L1197.18 502.39L1196.86 496.63L1195.93 496.79L1196.24 492.59L1197.8 491.97L1201.53 497.25L1200.13 498.81L1203.57 503.99L1205.98 506.4L1207.99 505L1211.02 504.61L1212.34 505.39L1214.97 504.46L1218.77 508.73L1220.71 511.13L1226.45 512.45L1227.69 514.62L1234.67 522.37L1237.62 527.57L1241.88 529.36L1244.83 533H1246.54L1246.69 531.76L1248.09 533.7L1251.5 542.23L1254.06 542.93L1257.01 546.73L1256.23 547.97L1258.09 552H1261.22L1263.5 553.18L1265.16 551.69L1265.87 552.87L1266.97 553.39L1263.18 557.66L1259.66 558.66L1257.95 560.58L1253.31 561.93Z" fill="#CCCCCC" stroke="white" stroke-width="0.5" stroke-miterlimit="10"/>
<path fill-rule="evenodd" clip-rule="evenodd" d="M1265.96 590.43L1262.17 588.23L1256.43 589.25L1251.42 592.53L1243.44 592.84L1241.39 590.38L1244.77 585.56L1245.18 581.67L1247.22 577.87L1246.41 572.34L1248.25 568.55L1249.58 563.43L1258.38 560.86L1260.12 558.91L1263.7 557.89L1267.56 553.55L1267.64 553.59L1267.56 555.19L1272.45 560H1273.65L1273.01 561.99L1273.73 568.5L1271.58 569.37L1267.69 573.74L1264.75 573.82L1262.61 577H1257.75L1260.28 580.13L1261.84 580.48L1265.41 579L1270.69 578.92L1271.41 580.43L1266.46 589.56L1265.96 590.43Z" fill="#CCCCCC" stroke="white" stroke-width="0.5" stroke-miterlimit="10"/>
<path fill-rule="evenodd" clip-rule="evenodd" d="M1247.68 740L1248.43 739.76L1250.25 736.77L1256.98 733.48L1263.2 732.57L1268.71 729.53L1272.81 727.13L1274.53 722.88L1279.79 720.14L1283.43 719.84L1287.48 717.31L1300.53 716.8L1313.36 717.16L1379.08 652L1351.84 652.4L1290.37 633.52L1285.15 629.1L1277.52 627.49L1274.71 621.07L1275.51 615.04L1269.88 612.23L1266.27 600.98L1265 593.06L1266.81 589.94L1271.68 580.97L1272.94 583.59L1274.27 583.82L1286.95 597.76L1288.45 600.91L1290.5 601.46L1295.7 606.19L1300.81 607.45L1306.88 606.66L1308.77 604.38L1314.2 601.07L1317.59 600.99L1324.6 595.4L1326.65 595.32L1327.91 596.5L1333.58 596.27L1335.54 595.56L1339.72 597.53L1345.78 596.82L1358.46 588.94L1362.56 588.15L1366.66 589.96L1369.8 588.94L1375.45 589.2L1381.28 586.29L1387.86 585.83L1389.86 587H1392.49L1402.73 584.47L1406.62 581.37L1412.81 580.5L1414.55 582.09L1415.18 580.34L1421.64 579.57L1425.39 575.86L1426.1 576.42L1427.72 573.38L1427.21 572.86L1429.77 570.34L1431.54 570.58L1431.31 569.63L1433.83 571.41L1439.24 573.26L1441.64 573.07L1442.59 573.65L1440.42 576.89L1439.08 580.24L1438.84 583.64L1437.62 585.73L1438.65 587.58L1441.37 587.66L1441.57 588.92L1439.35 590.78L1437.46 595.16L1439.35 597.72L1440.02 601.27L1438.49 604.58L1441.33 604.19L1440.97 603.16L1442.32 603.52L1443.53 606.04L1442.19 606.76L1441.76 606H1439.08L1437.24 606.44L1434.15 611.68L1435.81 614.46L1435.02 619.46L1433.68 621.68L1433.99 627.15L1426.74 637.31L1421.77 647.78L1418.76 651.51L1417.09 651.19L1412.41 656.27L1412.1 658.64L1414.17 661.66L1411.46 664.04L1399.53 686.8L1399.05 693.49L1391.41 704.14L1391.1 707.65L1376.77 727.06L1375.34 731.51L1368.98 738.04L1357.84 751.56L1334.45 772.25L1324.42 780.84L1317.42 782.12L1311.53 786.25L1304.05 791.98L1289.73 807.1L1286.55 808.05L1274.78 821.1L1272.7 821.9L1270.96 825.08L1266.66 826.35L1262.2 830.65L1260.29 835.11L1242.94 854.31L1242.7 855.3L1228 841.81L1228.41 758.54L1247.93 740H1247.68Z" fill="#CCCCCC" stroke="white" stroke-width="0.5" stroke-miterlimit="10"/>
<path fill-rule="evenodd" clip-rule="evenodd" d="M1081.87 733.83L1084.21 730.71L1085.77 730.08L1087.72 727.45L1091.47 723.79L1093.47 724.57L1098.49 716.95L1106.77 707.69L1108.91 711.39L1112.9 710.61L1116.01 711.1V723.05L1120.25 727.11L1124.3 727.92L1129.06 726.3L1134.33 727.62L1144.56 727.01L1148.51 729.45L1157.32 737.87L1162.48 741.42L1165.93 745.38L1169.27 746.02H1176.76L1181.32 748.52L1186.99 747.71L1190.74 749.02H1193.78L1197.93 748.72L1203.5 740.1L1205.53 737.36L1209.99 735.63L1213.23 735.84L1215.46 734.42L1225.28 733.1L1228.32 734.62L1230.85 739.19L1234.4 741.22L1242.3 739.9L1247.87 740L1228 758.54L1227.59 841.63L1242.63 855.11L1242.31 856.42L1235.3 864.83L1233.61 865.38L1231.11 868.08L1232.4 870.14L1225.07 872.68L1221.2 877.99H1214.92L1212.26 878.86L1211.86 880.37L1208.8 883.86L1208.64 886.4L1210.01 887.43L1206.47 892.82L1203.01 897.03V901.79L1199.87 908.45L1192.14 919.56L1187.63 921.38L1185.77 921.32L1159.23 902.87L1157.38 900.65L1156.56 898.02L1157.59 896L1153.28 888.93L1074.9 843.86L1068.89 844.18L1074.49 823.65L1075.31 817.79L1079.41 813.95L1081.87 809.1L1085.36 805.86L1087 802.02L1089.26 799.8L1089.06 797.98H1099.18L1101.02 792.93V789.9L1105.92 784.24L1106.53 779.79L1105.1 775.35L1102.04 772.72L1103.88 770.1L1101.43 768.28L1098.58 767.07L1095.93 760.6L1091.03 755.95V751L1089.67 746.53L1086.95 745.94L1087.34 742.44L1085.4 741.27L1084.04 736.02L1082.1 733.68L1081.9 733.81L1081.87 733.83ZM1026.39 846L1034.36 845.97L1042.51 845.53L1026.91 845.95L1026.39 846Z" fill="#CCCCCC" stroke="white" stroke-width="0.5" stroke-miterlimit="10"/>
<path fill-rule="evenodd" clip-rule="evenodd" d="M1077.31 824.04L1078.13 818.09L1082.23 814.2L1084.69 809.28L1088.17 806L1089.81 802.1L1092.07 799.85L1091.86 798H1099.16L1101 792.96V789.94L1105.9 784.3L1106.51 779.86L1105.08 775.43L1102.02 772.81L1103.86 770.2L1101.41 768.38L1098.55 767.17L1095.9 760.72L1091 756.09V751.86L1089.57 747.22L1086.71 746.62L1087.12 742.99L1085.08 741.78L1083.65 736.34L1081.61 733.92L1076.31 737.35L1073.86 740.77L1069.17 742.99L1064.27 741.58L1056.72 741.98L1052.02 744H1048.94L1047.31 744.8L1044.65 744.2L1042 746.6V750H1039.55L1034.64 748.4L1034.23 745.2L1030.35 744.2L1027.08 745.2L1021.57 743.2L1017.48 741.6L1014.83 744L1014.62 747L1015.59 748.73L1015.22 749.53L1014.15 753.37L1012 756.16V763.87L1010.8 770.99L1010.35 776.24L1012.68 777.89L1014.7 780.59L1016.27 784.04L1015.89 786.36L1005.24 800.52L998.671 807.85L996.871 810.99L988.801 825.48L987.311 828.02L987.161 833.41L986.561 841.03L983.871 848.5L984.471 853.28L983.431 854.23L984.541 854.7L987.931 854L991.331 851.3L993.621 852.4L995.321 854H998.311L999.811 852.6L999.911 849.7L1003.3 849.1L1003.91 850.02L1005.1 848.4L1007 848.8L1008.79 847L1025.93 846.93L1026.45 846.88L1042.27 846.45L1071.71 844.87L1077.31 824.04Z" fill="#CCCCCC" stroke="white" stroke-width="0.5" stroke-miterlimit="10"/>
<path fill-rule="evenodd" clip-rule="evenodd" d="M839.76 587.35L842 589.9V592.91L840.641 594.43L845.1 598.19L845.911 600.31L851.47 607.82L855.12 616.04L856.641 619.18L855.63 623.64L854.21 625.57L852.791 629.63L852.99 636.02L855.931 638.55L861.301 638.66L862.82 636.63L869.2 636.83L871.22 638.45L869.7 641.29L870.311 645.14L873.96 647.99L878.72 650.02L882.26 650.22L885.5 652.14L886.62 654.99L890.771 657.01L894.311 657.32L896.031 659.55L895.12 662.59L892.391 664.82L891.88 666.55L890.26 668.37L894.411 672.03L898.061 673.04L899.681 672.23L903.12 673.95L904.641 673.75L911.531 677.7L913.151 680.34L913.44 686.44L915.521 688.67L919.87 689.99L920.99 691.61L920.781 695.67L922.661 697.69L929.69 699.47L932.931 702L932.33 704.03L933.09 710.47L935.421 712.2L939.32 714.63L940.94 717.07L940.911 717.93L940.151 717.64L936.271 715.36L931.49 714.91L924.96 717.87L923.74 717H915.84L912.88 715.13L909.771 714.6L907.71 713.46L905.281 713.69L900.801 713L898.83 711.1L895.641 711.33L895.411 712.93L896.32 714.37L893.59 718.41L891.161 718.48L888.271 719.09L883.181 719.32L880.6 721.14L878.781 721.07L877.87 718.63L876.35 718.33L875.891 716.81L873.08 716.58L864.35 720.38L861.08 721.68L859.49 723.65L850.45 724.72L847.71 725.86L845.36 723.27L841.411 722.44L837.161 722.36L834.19 726.16L830.86 729.59L831.23 731.94L833.431 733.77L832.671 735.44L827.74 736.51L825.76 735.37L820.75 734.38L816.96 732.94L814.22 732.86L811.561 734.07L808.681 733.54L803.51 733.24L799.26 730.81L794.561 731.11L793.35 729.9L787.74 725.2L784.561 723.99L778.49 718.83L776.07 718.53L772.88 716H771.12L770.46 718.16L766.46 717.67L763.12 721H761.33L759.671 722.35L759.161 725.19L757 727.59V729.84L755.171 731.33L752 731.48V733.88L755.661 738.22L754.161 740.02L753 743.01L752.75 746.38L750.021 747.01L747.791 747.81L743.561 745.7L742 744H741.1H737.62L735.37 745.53L731.98 745.23L722.87 748.9L721.12 751.14L717.44 751.96L712.11 757.06L702.59 772.83L702.07 772.37L701.151 770.94L701.25 767.57L700.641 763.29L693.87 758.08L691.311 755.63L688.141 749.41L682.911 741.76L681.58 737.27L678.2 733.08L672.051 730.13L670 728.59V720.02L669.49 715.33L667.75 709.82L668.671 704.62L666.931 699.01L666.311 694.52L668.26 691.66L670.62 690.75L674.82 684.93L677.171 679.73L681.07 672.48L683.01 668.2L686.09 666.97L689.98 661.57L689.931 660.21L692.23 662.73L693.051 667H697.141L700.62 666.19L706.34 665.98L709 661.1V657.2L711.401 654.8L713.6 656.8L715 661.6L716.801 663.4L720.6 662.8L726 658.8L731.801 656.4L737 652.8L749.401 650H754.801L757.6 646.8L763.6 642.8L762.801 640H760.83L757.391 635.55L757.801 632.1L760.63 630.28L763.87 631.09L768.73 630.49L772.171 631.9L777.63 632.71L783.5 631.9L791.401 630.89L795.45 627.86L798.891 626.03L799.901 623L799.291 619.96L800.1 616.32L803.141 614.29L802.94 611.05L805.98 607.61L807.59 608.63L809.82 608.42L813.671 602.35L816.1 601.34L815.901 598.5L816.7 595.67L821.97 592.63L825.811 590H830.87L833.5 591.62L838.97 589.19L839.76 587.35Z" fill="#CCCCCC" stroke="white" stroke-width="0.5" stroke-miterlimit="10"/>
<path fill-rule="evenodd" clip-rule="evenodd" d="M860 403.21V395.34L880.54 393.41L871.48 185.29L869.25 174.58L866.62 168.92L869.05 162.25L872 154.97V150.32L869.66 144.67L871.48 135.77L872.83 132.27L870.93 126.41L867.91 123.07L864.09 122.43L860.27 123.07L846.11 121.32L843.24 118.77L837.68 118.29L830.19 116.22L828.6 113.83L830.19 113.2L830.03 110.65L821.12 106H816.51L809.19 103.81L807.44 102.86L805.21 104.76L800.76 103H799.24L792.71 106.35L782.35 107.3L773.43 111.61L768.33 116.55L767.05 122.28L764.34 124.35L763.71 135.19L767.53 141.09L770.08 149.54L768.33 154.32L762.84 159.87L762.12 161.86L754.97 167.9L750.6 169.57L741.38 165.91L733.28 159.24L726.92 154.07L717.17 149.06L701.55 142.52L694.7 141.72L692.47 143H683.11L676.22 139.56L669.8 127.19L669.96 120.78L664.8 113.89L651.49 112.01L644.45 107.47L633.03 107.16L626.61 104.66L612.06 107.32L601.88 105.13L597.97 101.37L593.21 100.44L592.52 102.21L593.91 110.16L595.5 111.75L590.93 118.71L579 126.27V129.05L575.23 133.82L570.45 133.62L567.47 135.81L567.27 138L566.48 140.78L568.51 147.29L569.01 152.28L567.82 153.58L567.97 155.37L566.72 157.02L564.43 160.91L561.25 162.9L560 164H556.68L556.69 163.88L555 165.6V172.7L556.99 174.12L559 179.2V193.23L559.61 200.84L559.3 203.07L560.22 213.82L562.85 220L560.82 231.57L560.12 233.49L562.14 238.56L562.95 245.87L560.93 248.81L556.16 252.26L554.54 254.69L552.92 255.91L555.96 259.36L560.93 265.75L564.88 274.06L566.2 275.18L567.51 280.56L566.7 283.19L567.21 289.07L569.75 292.02L570.66 295.77L572.89 298H581.4L589.2 298.61L592.85 301.04L595.69 305.61L599.85 314.23L602.08 316.26L604.57 319.41L607.2 321.88L644.12 331.07L647.57 334.71L690.2 317.02L859.92 403.22V403.34L860 403.21Z" fill="#CCCCCC" stroke="white" stroke-width="0.5" stroke-miterlimit="10"/>
<path fill-rule="evenodd" clip-rule="evenodd" d="M556.96 164H559.26L560.53 162.71L563.77 160.68L566.1 156.72L567.37 155.04L567.22 153.22L568.43 151.9L567.92 146.83L565.85 140.2L566.66 137.37L566.86 135.14L569.89 132.92L574.74 133.12L578 128.27V125.44L590.71 117.76L595.36 110.68L593.74 109.06L592.32 100.97L593.03 99.17L590.54 98.68L584.34 94.86L583.7 92.63L583.54 89.61L580.36 87.86L579.09 88.81L579.41 90.4L577.82 91.67L574.95 90.4L574 87.22L570.98 87.85L564.3 83.23L560.96 77.18L563.02 70.97L573.53 63.65L579.58 57.6L581.17 55.69L579.42 53.3L581.65 50.92L580.85 47.89L579.26 46.77L579.42 39.93L573.21 37.54L568.12 30.7L569.07 25.13L574.16 21.63L574.47 17.81L578.99 11.61V7.63998L577.07 6.20998L569.56 13.05L567 15.75L564.92 14.48L561.72 7.31998L559.64 6.52998L560.12 2.86998L557.4 0.47998L552.77 1.42998L552.61 4.12997L550.37 1.10998L544.77 2.21998L537.1 6.03998L531.66 10.81L531.65 10.8L530.97 13.76L531.78 16.2L530.97 22.59L531.07 29.28L527.31 38.92L528.63 44.6L531.37 47.75L531.68 49.07L529.95 50.69L528.12 53.73L530.97 56.57L528.94 58.8L527.62 66.21L525.28 67.94L523.35 70.58L520.2 71.49L515.42 77.17L512.92 87.31L514.34 88.22L516.88 93.69L515.96 96.13L518.6 100.09L520.74 100.8L526.74 105.98L528.26 111.15L533.15 113.18L535.18 115.31L538.53 116.12L543.82 121.9L556.96 164ZM575.27 84.59L575.91 83H579.73L581.32 84.91L578.61 87.14L575.27 84.59Z" fill="#CCCCCC" stroke="white" stroke-width="0.5" stroke-miterlimit="10"/>
<path fill-rule="evenodd" clip-rule="evenodd" d="M607.79 321.64L605.16 319.18L602.66 316.02L600.44 313.99L596.28 305.37L593.45 300.8L589.8 298.37L582.01 298H573.5L571.27 295.53L570.36 291.78L567.83 288.84L567.32 282.95L568.13 280.32L566.82 274.94L565.5 273.82L561.55 265.51L556.59 259.12L553.55 255.67L555.17 254.45L556.79 252.02L561.55 248.57L563.58 245.63L562.77 238.33L560.74 233.25L561.45 231.33L563.47 219.77L560.84 213.58L559.93 202.83L560.23 200.6L560 192.99V179.2L556.99 174.12L555 172.7V165.6L556.69 163.88L543.62 121.79L538.36 116.01L535.02 115.19L532.99 113.07L528.13 111.04L526.61 105.87L520.64 100.69L518.51 99.98L515.88 96.03L516.79 93.59L514.26 88.12L512.84 87.2L515.33 77.06L520.09 71.38L523.23 70.47L525.16 67.83L527.48 66.11L528.8 58.7L530.83 56.47L527.99 53.63L529.81 50.59L531.53 48.96L531.23 47.65L528.5 44.5L527.18 38.82L531 29.19V22.49L531.64 16.1L530.83 13.67L531.5 10.71L530.4 9.45004L524.51 10.56L521.33 9.93004L512.42 12.47L507.8 8.49004L502.07 6.42004L501.91 8.65004L498.25 12.15L491.09 11.36L490.62 8.02003L487.59 5.79004L482.66 6.90004L482.34 9.77003L478.05 10.56L476.14 13.74L473.43 13H470.09L465.79 16H461.73L458.9 11.51L452.92 11.18L450.26 10.34L444.44 11.34L439.78 10.68L437.62 11.18L433.63 9.84003L430.8 10.51L428.64 15H426.73L422.66 13.37L417.13 18.74L413.87 18.58L408.83 15.81L404.27 17.44L395.97 17.77L391.25 17.11L380.83 25.09L374.79 25.94L371.79 26.02L366.68 29.18L366.44 32.51L363.75 36H361.4L360.02 34.7L356.94 34.78L354.67 36.41L353.45 38.11L347.36 38.52L342.25 41.11L339.57 43.55L338.84 46.15L334.7 50.61L328.13 52.72L322.35 52.98L323.78 55.22L324.92 57.81L327.41 60.93L327.92 64.87L328.65 66.43L329 73.37L328.9 80.07L329.71 83.43L331.44 99.02L334.49 105.23L335.51 109.41L338.76 110.33L340.9 112.26L343.24 112.37L345.07 113.79L342.73 119.6L343.14 120.92L340.29 125H315.37L310.32 126.04L305.25 134.16L300.78 138.02L298.75 142.89L298.95 149.59L297.13 153.65L282.5 163.81L259.97 176.8L242.74 186.94L234.4 188.78L226.36 188.98L222.7 190H217.14L206 191.98L199.83 196.24L195.78 201.61L186.05 208.51L185.73 226.44L185.66 226.54L185.54 232.41L185.62 232.57L185.63 232.39L261.95 283.62L261.9 283.71L399.73 375.06L402.16 385.17L406.61 389.22L414.29 388.82L420.37 390.84L424.15 395.52L429.2 396.93L433.25 400.57L433.04 403.8L431.02 410.27L432.44 413.5L437.49 415.32L447.19 414.11L455.01 411.63L455.07 411.69L487.21 404.01L513.29 380.15L607.75 321.63L607.79 321.64Z" fill="#CCCCCC" stroke="white" stroke-width="0.5" stroke-miterlimit="10"/>
<path fill-rule="evenodd" clip-rule="evenodd" d="M186.07 227.04L186.4 208.94L196.15 201.98L200.22 196.55L206.42 192.26L217.59 190H224.51L228.12 188.98L236.03 188.78L244.23 186.94L261.18 176.8L283.35 163.81L297.74 153.65L299.54 149.59L299.34 142.89L301.33 138.02L305.73 134.16L310.72 126.04L315.69 125H340.21L343.01 120.92L342.61 119.6L344.91 113.79L343.11 112.37L340.81 112.26L338.71 110.33L335.51 109.41L334.51 105.23L331.5 99.0202L329.8 83.4302L329 80.0702L329.1 71.8202L328.76 64.9902L328.06 63.4602L327.56 59.5902L325.16 56.5302L324.06 53.9902L322.68 51.7902L319.71 51.9302L307.95 50.9702L305.36 48.2602L304.21 44.2502L302.74 43.7602L302.62 43.8002L298.93 47.8702L292.27 49.2202L285.6 47.3902L282.15 47.1502L277.76 49.4602L271.49 50.4202L266.94 49.4602L261.21 43.2402L258.94 41.4902L258 38.1402V34.9902L258.8 33.7802L257.52 32.1802L253.46 33.6302L251.68 35.2502L248.33 34.9302L244.34 39.4302L243.45 50.9502L238.92 56.9602L237.96 65.6902L235.17 71.2202L225.54 80.1902L223.31 80.3502L218.69 83.6302L210.89 86.2702L205.08 92.5202L202.85 92.6002L194.48 98.2102L189.31 99.8902L186.36 104.46L176.73 111.42L180.07 118.79L179.5 123.92L171.04 131.63L165.61 142.88L165.29 147.53L168.8 154.6L166.09 162.47L167.84 164.24L170.24 167.29L168.8 173.4L155.55 188.5L154.11 194.44L148.04 201.03L141.33 201.67L126.64 215L106.04 218.86L100.96 226L186 227.05V227.14L186.07 227.04Z" fill="#CCCCCC" stroke="white" stroke-width="0.5" stroke-miterlimit="10"/>
<path fill-rule="evenodd" clip-rule="evenodd" d="M184.18 231.97L184.3 226L101.01 224.96L93.0003 236.35V244.47L89.1703 244.63L74.5003 252.29L73.0603 256.44L67.3203 259.78L69.0803 265.21L56.1603 284.03L55.3603 290.09L45.4703 299.34L42.4403 300.93L37.1803 312.42L37.6503 315.61L29.2003 326.77L28.8803 328.84L31.4403 330.76L27.7703 332.2L21.0703 344.47L18.5103 345.11L15.4903 348.3L15.8003 353.57L13.5703 358.03L14.0003 365L98.4503 364.22L97.6403 325.68L100.32 319.96L104.89 316.71L110.06 316H117L117.91 260.46L183.47 261.67L184.26 232.13L184.18 231.97Z" fill="#CCCCCC" stroke="white" stroke-width="0.5" stroke-miterlimit="10"/>
<path fill-rule="evenodd" clip-rule="evenodd" d="M13.9001 365L97.9801 364.22L97.1701 325.68L99.8501 319.96L104.41 316.71L109.59 316H117L117.92 261.33L184.55 262.54L185.36 232.86L261.59 284.03L261.54 284.12L261.36 284L235.89 284.41L252.06 469.96L258.53 474L251.66 493L177.65 493.33L175.41 492.3L172.96 489H170.3L166.63 493.33L164.18 490.65L163.98 484.47L159.08 482.61L148.26 487.35L143.16 497.45L140.92 496L137.24 489L136.63 483.64L131.53 483.44L125 485.7V493.74L125.2 496.62L122.96 502.6L116.43 503.01L111.37 506.96L111.33 506.92L110.31 503.63L104.59 500.12L100.92 498.68L99.7001 494.15L95.0001 493.33V488.2L90.6501 484.4L89.8601 479.2L88.0801 477.6L84.7201 478L83.3301 477L79.7701 478.4L77.0001 477.2V475.2L72.6501 469.4L67.3101 468.2L57.6101 465H54.0501L43.3701 469.2L32.2901 471L28.1401 475H23.9201L20.3301 477.75L21.4901 469.16L24.8301 456.1L29.9301 448.93L31.3601 433.81L27.2201 411.99L21.1701 402.75L23.5601 401H26.4701L27.9201 393.78L26.3101 389.29L29.0401 386.55L22.9401 377.41L20.3701 379.49L18.6101 378.53L16.8401 373.4L12.1901 378.69L11.8701 370.51L13.9601 365.85L13.9001 365Z" fill="#CCCCCC" stroke="white" stroke-width="0.5" stroke-miterlimit="10"/>
<path fill-rule="evenodd" clip-rule="evenodd" d="M111.141 506.39L116.281 502.51L122.921 502.11L125.211 496.24L125.001 493.41V485.95L131.101 483.85L135.861 484.04L136.431 489L139.861 495.48L141.961 496.81L146.721 487.48L156.821 483.09L161.391 484.81L161.581 490.52L163.871 493L167.301 489H169.771L172.061 492.05L174.161 493L252.001 492.68L258.881 473.67L252.411 469.63L236.231 284H261.721L399.731 375.06L402.161 385.17L406.611 389.22L414.291 388.82L420.371 390.84L424.151 395.52L429.201 396.93L433.251 400.57L433.041 403.8L431.021 410.27L432.441 413.5L437.491 415.32L447.191 414.11L455.011 411.63L455.071 411.69L454.061 452.31L452.651 471.32L449.221 473.34L448.611 480.61L447.191 485.26L436.681 491.13L430.421 494.36L424.151 494.76L418.091 499H413.841H404.741L399.291 501.43L394.441 501.03L379.881 502.45L375.031 501.23L374.421 502.45L372.791 500.82L369.041 500.51L363.101 498.6L357.851 499.21L347.741 500.83L341.271 504.47L336.021 508.91L319.851 517.81L308.321 525.49L306.511 529.73L295.591 532.97L293.161 532.36L286.901 532.56L286.091 535.39L283.261 536.4L278.411 544.69L278.211 547.72L273.761 553.79L267.701 564.91L262.441 568.95L258.601 571.98L260.011 575.82L260.621 581.88L256.581 582.69L256.381 586.94L258.191 590.17L256.971 595.25L254.361 597.04L250.521 602.91L243.841 600.89L242.231 598.46L243.441 597.04L237.781 596.23L230.911 597.65L230.701 599.47L228.891 601.09L220.401 600.48L215.341 598.05L212.711 598.26L206.581 601.72L206.451 598.86L204.431 596.64L199.001 596.44V594.01L198.001 591.39V587.34L194.721 587.55L192.501 590.38L188.861 590.78L190.881 585.32L195.001 580.06V577.64L190.081 576.43L187.651 574.81L189.071 568.95L186.841 564.5L182.191 560.66L181.791 558.44L177.951 559.65L176.131 561.27L170.471 558.84L166.431 559.04L162.381 564.91L159.551 565.11L155.311 568H150.741L145.961 564.77L143.051 563.55L138.281 565.58L135.791 564.36L135.771 564.17L136.831 561.53L137.041 557.89L131.431 554.86L131.231 551.63L132.471 549.2L132.681 546.78L129.771 543.54L128.731 540.71L126.241 538.69L123.961 539.1L121.261 536.87L118.981 531.62L113.791 526.76L113.171 524.14L115.451 515.65L114.001 512.61V508.77L111.141 506.39Z" fill="#CCCCCC" stroke="white" stroke-width="0.5" stroke-miterlimit="10"/>
<path fill-rule="evenodd" clip-rule="evenodd" d="M256.97 595.25L258.19 590.17L256.38 586.94L256.58 582.69L260.62 581.88L260.01 575.82L258.6 571.98L262.44 568.95L267.7 564.91L273.76 553.79L278.21 547.72L278.41 544.69L283.26 536.4L286.09 535.39L286.9 532.56L293.16 532.36L295.59 532.97L306.51 529.73L308.32 525.49L319.85 517.81L336.02 508.91L341.27 504.47L347.74 500.83L357.85 499.21L363.1 498.6L369.04 500.51L372.79 500.82L374.42 502.45L373.61 504.06L372.81 509.92L370 514.17V520.23L390.19 533.57L390.59 542.06L397.87 547.72L406.97 542.87L409.19 544.08L409.8 546.71L411.41 548.33L411.82 552.37L409.39 555.61L414.04 561.67L415 561.52V564.91L410.81 570.36L407.17 570.57L400.5 574L398.28 572.99L394.03 575.01L394.44 578.85L391 581.28L391.81 585.72L386.35 586.94L385.5 588.89L363.68 583.38L362.06 583.68L362.07 583.72L360.48 583.3L355.62 585.52L350.78 585.72L342.89 587H331.98L330.16 588H314.8L307.43 588.41L306.82 593.11L308.25 599.86L310.5 601.7L312.96 607.63L313.12 614.01L308.52 613.24L305.44 611.08L302.67 610.98L298.64 613.77L293.52 614.79L286.77 611.32L284.53 608.05L280.02 606H276.99L274.57 604H271.54L263.65 599.67L257.59 594.82L256.97 595.25Z" fill="#CCCCCC" stroke="white" stroke-width="0.5" stroke-miterlimit="10"/>
<path fill-rule="evenodd" clip-rule="evenodd" d="M20.8002 477.76L24.4002 475H28.1402L32.2902 471L43.3702 469.2L54.0502 465H57.6102L67.3102 468.2L72.6502 469.4L77.0002 475.2V477.2L79.7702 478.4L83.3302 477L84.7202 478L88.0802 477.6L89.8602 479.2L90.6502 484.4L95.0002 488.2V493.15L99.6502 493.96L100.86 498.4L104.5 499.82L110.16 503.25L111.17 506.49L114 508.91V513L115.42 516.03L113.19 524.52L113.8 527.15L118.86 532L121.09 537.25L123.72 539.48L125.95 539.07L128.38 541.09L129.39 543.93L132.23 547.16L132.03 549.59L130.81 552.01L131.02 555.24L136.49 558.28L136.28 561.92L135.25 564.55L134.86 561.31L130.41 560.91L128.38 558.68L124.33 558.48L120.89 560.5L114.2 557.67L107.72 558.07L104.07 555.24L95.5702 551L82.2002 550.8L78.1502 551.61L78.1702 551.84L72.8802 550.4L53.8402 549.99L46.1402 553.22L42.2902 558.28L28.1102 557.06L21.2302 560.5L16.0802 558.85L16.2302 554.81L14.6402 553.38L18.1502 554.33L20.3802 555.13L25.0102 552.27L17.8302 549.72L13.0402 552.27L11.9302 550.67L14.0002 548.44V543.07L16.0702 541H28.4302L31.9402 537L35.7402 536.02L40.1202 533.1L42.9502 533.78L44.1202 534.66L47.1402 532.22L49.1802 531.44L53.9502 534.56L58.2402 534.66L63.4002 536.41L70.0202 539.15L74.5002 539.34L75.8702 536.71L74.3102 534.17L72.5502 534.46L63.6902 529H63.1102L56.1602 524.72L50.5002 524.51L46.7602 523.33L40.6702 525.9L32.5402 532H30.1102L27.8702 533.32L18.2102 533.14L17.6402 531.36L20.5202 529.28L15.2402 525.92L17.0002 525.6V521.28L13.0002 520.64L8.36017 512.48L1.16016 506.72L14.4402 494.56L19.8802 484.65L20.8002 477.76Z" fill="#CCCCCC" stroke="white" stroke-width="0.5" stroke-miterlimit="10"/>
<path fill-rule="evenodd" clip-rule="evenodd" d="M14.0005 543.07L16.0705 541H28.4305L31.9405 537L35.7405 536.02L40.1205 533.1L42.9505 533.78L44.1205 534.66L47.1405 532.22L49.1805 531.44L53.9505 534.56L58.2405 534.66L63.4005 536.41L70.0205 539.15L74.5005 539.34L75.8705 536.71L74.3105 534.17L72.5505 534.46L63.6905 529H64.4605L57.5205 524.72L51.8505 524.51L48.1105 523.33L42.0205 525.9L33.9005 532H29.9505L27.6005 533.39L17.4605 533.19L18.5305 536.53L24.2405 539.38L29.2805 538.05L25.9305 541.23L19.8805 541.4L15.3405 535.69L11.4805 539.56L14.0005 542.75V543.07Z" fill="#CCCCCC" stroke="white" stroke-width="0.5" stroke-miterlimit="10"/>
<path fill-rule="evenodd" clip-rule="evenodd" d="M16.5605 558.78L21.7006 560.44L28.5706 557L42.7205 558.21L46.5605 553.16L54.2405 549.92L73.2405 550.33L78.5306 551.78L79.3005 558.21L78.2905 561.45L78.5005 568.52L80.7205 570.95L80.5206 574.79L77.0806 577.41L69.8105 578.83L64.1406 582.06L59.9006 583.07L57.3806 588.12L52.3605 589.59L51.4105 588.32L51.7205 584.82L42.8105 585.78L47.7405 580.36L45.3605 580.2L46.6306 578.29L44.7205 576.23L41.2205 575.75L39.9506 574L50.4506 573.84L52.2006 572.57L46.4705 569.38L41.3806 570.5L35.9705 572.41L33.5806 571.93L32.4705 569.7L28.1705 569.38L24.3505 565.56L28.1705 562.7L25.3105 562.38L18.3105 562.06L16.5605 558.88V558.78Z" fill="#CCCCCC" stroke="white" stroke-width="0.5" stroke-miterlimit="10"/>
<path fill-rule="evenodd" clip-rule="evenodd" d="M57.3203 587.9L59.8403 582.79L64.0703 581.77L69.7203 578.49L76.9803 577.05L80.4203 574.39L80.6203 570.49L78.4003 568.04L78.1903 560.86L79.2003 557.58L78.4003 550.82L82.4303 550H95.8803L104.37 555L108.01 557.83L114.48 557.43L121.15 560.26L124.58 558.24L128.63 558.44L130.65 560.66L135.1 561.06L135.5 564.5L137.93 565.71L142.57 563.69L145.4 564.91L150.05 568H155.31L159.55 565.11L162.38 564.91L166.43 559.04L170.47 558.84L176.13 561.27L177.95 559.65L181.79 558.44L182.19 560.66L186.84 564.5L189.07 568.95L187.65 574.81L190.08 576.43L195 577.64V580.06L190.88 585.32L188.86 590.78L192.5 590.38L194.72 587.55L198 587.34V591.39L199 594.01V596.49L204.4 596.69L206.4 598.89L206.53 601.71L204.8 602.69L197 605.69V608.97L198.57 610.79L199.37 620.49L198.16 623.53L198.97 631L201.2 632.62L203.82 636.87L203.42 639.7L199.98 639.29L198 640.71V643.11L202.11 647.64L203.55 649.49L202.94 654.01L197.18 666.57L193.47 667.8L192.44 670.27L193.89 674.38L190.38 682.41L187.3 685.7L187.9 687.7L155.09 698.52L147.11 693.14L143.87 692.98L138.36 685.21L134.8 683.58L136.42 680.51L135.75 680.14L144.91 673.98L146.35 645.58L147.18 642.08L144.71 641.05L145.12 637.35L148 636.11V634.03L143.97 630.14L144.57 626.65L139.53 617.22L137.11 613.53L134.28 608H116.53L111.08 610.25L107.85 613.94L102 619.07V621.94L95.5503 625.42L92.2203 625.64L89.1503 623.12L83.4403 620.05L81.8503 613.6L77.4003 613.44L75.5003 611.5L75.6603 608.12L77.2503 606.5L73.7503 604.89L71.8403 607.63L68.6703 606.34L63.9003 606.02L59.1403 599.4L61.0403 591.5L57.7103 587.79L57.3203 587.9Z" fill="#CCCCCC" stroke="white" stroke-width="0.5" stroke-miterlimit="10"/>
<path fill-rule="evenodd" clip-rule="evenodd" d="M105.8 669.17L105.46 666.28L103.75 664.3L101.51 663.77L100.64 665.37L101.17 667.23L104.02 669.02L105.8 669.17ZM92.6503 625.63L95.8303 625.41L102 621.97V618.94L107.85 613.87L111.08 610.22L116.53 607.99H134.28L137.11 613.46L139.53 617.11L144.57 626.44L143.96 629.89L147.99 633.74V637L145.16 638.22L144.76 641.87L147.18 642.89L146.37 646.34L144.96 674.33L135.98 680.41L133.45 679.01H124.46L113.72 673.18L109.18 671.99L110.32 669.45L107.44 666.04L104.94 663.5L106.61 659.85L106.46 658.9L102.45 660.48L98.0002 655.4V650.64L95.9503 643.99L92.1602 643.35L90.6403 640.01L93.3702 634.6L90.4902 633.01L90.7902 629.83L92.9102 625.85L92.6503 625.63Z" fill="#CCCCCC" stroke="white" stroke-width="0.5" stroke-miterlimit="10"/>
<path fill-rule="evenodd" clip-rule="evenodd" d="M128.4 679L129.17 675.78L131.38 670.37L136.38 667.96L140.79 662.95L140.19 659.75L142.2 654.14L145 652.74V649.73L146.4 645.53L151.81 643.12L153.61 643.72L162.43 640.92L166.44 642.72L169.04 647.53L173.05 649.73L172.65 657.94L171.85 662.36L177.25 668.56L179.66 667.76L185.87 663.15L188.07 663.76L191.28 666.76L192.23 668.97L191.48 670.77L192.88 674.77L189.47 682.59L186.47 685.79L187.68 689.8L191.08 691L192.68 690H196.29L198.69 693.01L201.3 692.41L203.9 693.61L205.3 697.81L208.31 699.82L211.11 700.02L212.32 704.23L209.51 706.43L210.91 709.03L209.11 711.64L208.11 715.25L209.51 718.45L207.71 723.26L209.71 726.66L209.86 731.59L189.29 724.11L173.36 712.28L168.94 711.8L156.01 698.88L147.34 693.03L144.18 692.88L138.82 685.31L135.35 683.73L136.93 680.74L133.77 679H128.4Z" fill="#CCCCCC" stroke="white" stroke-width="0.5" stroke-miterlimit="10"/>
<path fill-rule="evenodd" clip-rule="evenodd" d="M210.44 731.58L210.29 726.61L208.27 723.18L210.09 718.33L208.67 715.09L209.68 711.45L211.5 708.82L210.09 706.2L212.92 703.98L211.7 699.73L208.87 699.53L205.84 697.51L204.43 693.26L201.8 692.05L199.17 692.65L196.74 690H193.11L191.49 690.63L188.06 689.42L186.84 685.38L189.87 682.14L193.31 674.26L191.89 670.22L192.9 667.79L196.54 666.58L202.21 654.25L202.81 649.8L201.4 647.98L197 643.53V640.71L199.98 639.29L203.42 639.7L203.82 636.87L201.2 632.62L198.97 631L198.16 623.53L199.37 620.49L198.57 610.79L198 608.97V605.74L204.83 602.7L212.71 598.26L215.34 598.05L220.4 600.48L228.89 601.09L230.7 599.47L230.91 597.65L237.78 596.23L243.44 597.04L242.23 598.46L243.84 600.89L250.52 602.91L254.36 597.04L257.59 594.82L263.65 599.67L271.54 604H274.57L276.99 606H280.23L284.68 607.56L286.9 610.79L293.57 614.23L298.62 613.21L302.61 610.46L305.35 610.56L308.39 612.69L312.93 613.45L312.97 615.03L311.36 621.71L313 626.15V628.25L316 631.13L317.8 636.47L316 641.2V645.52L311.8 648.18L305.2 658.25L305.6 662.57L304 665.86L303.8 670.79L301.8 673.67L302.05 683.25L300.24 684.49L300.14 686.35L302.55 689.03L305.55 697.07L306.05 702.22L310.86 703.67L312.87 707.17L312.57 713.25L309.56 713.77L305.35 714.08L304.53 715.61L301.5 709.99L297.56 710.96L296.62 716.29L287.01 711.6L276.62 715L249.07 715.16L241.19 716.29L241.04 718.4L226.71 723.89L225.13 726H219.76L212.44 732.31L210.44 731.58Z" fill="#CCCCCC" stroke="white" stroke-width="0.5" stroke-miterlimit="10"/>
<path fill-rule="evenodd" clip-rule="evenodd" d="M304.611 715.72L305.451 714.22L309.701 713.91L312.741 713.41L313.041 707.42L311.021 703.98L306.151 702.55L305.651 697.48L302.611 689.57L300.181 686.94L300.281 685.11L302.101 683.89L301.861 674.46L303.881 671.63L304.081 666.78L305.701 663.55L305.291 659.3L311.961 649.4L316.001 646.77V642.52L318.031 637.88L316.211 632.62L313.001 629.79V626.15L311.361 621.71L312.971 615.03L312.771 607.15L310.341 601.29L308.121 599.47L306.711 592.8L307.311 588.15L314.591 588H330.161L331.981 587H342.891L350.781 585.72L355.621 585.52L360.481 583.3L362.071 583.72L363.781 589.36L365.601 591.29L366.111 594.43L370.661 598.59L372.491 601.23L376.941 604.48L375.731 610.25L375.931 617.86L378.061 619.49L379.881 620.1L380.181 627.29L378.561 630.44L378.261 633.48L380.181 635.11L380.791 639.16L379.071 641.8L380.691 644.84L380.181 652.04L381.601 655.19L382.311 667.56L380.081 671.92L379.781 674.66L378.661 680.34L380.081 685.31L381.801 690.89L384.031 691.8L386.261 694.03L388.571 697.54L377.141 699.05L367.111 703.83L356.131 713.05L343.401 714.17L325.261 722.92L316.991 719.26L305.691 717.67L304.611 715.72Z" fill="#CCCCCC" stroke="white" stroke-width="0.5" stroke-miterlimit="10"/>
<path fill-rule="evenodd" clip-rule="evenodd" d="M385.381 588.89L363.551 583.38L361.931 583.68L363.651 589.36L365.471 591.29L365.981 594.43L370.531 598.59L372.361 601.23L376.811 604.48L375.601 610.25L375.801 617.86L377.931 619.49L379.751 620.1L380.051 627.29L378.431 630.44L378.131 633.48L380.051 635.11L380.661 639.16L378.941 641.8L380.561 644.84L380.051 652.04L381.471 655.19L382.181 667.56L379.951 671.92L379.651 674.66L378.541 680.34L379.951 685.31L381.671 690.89L383.901 691.8L386.131 694.03L388.441 697.54L390.221 697.3L401.521 690.3L403.691 690.59L404.411 686.59L401.581 681.74L401.381 675.88L399.971 670.62L400.571 645.35L400.781 641.72L403.001 638.89V633.83L401.381 630.6L401.581 624.74L399.771 615.84L395.521 604.73L393.301 603.51L390.671 600.48L385.411 598.26L384.201 591.59L385.381 588.89Z" fill="#CCCCCC" stroke="white" stroke-width="0.5" stroke-miterlimit="10"/>
<path fill-rule="evenodd" clip-rule="evenodd" d="M415 561.52V564.91L410.47 570.36L406.94 570.57L400.44 574L398.28 572.99L394.15 575.01L394.54 578.85L391.2 581.28L391.98 585.72L386.67 586.94L384.7 591.59L385.88 598.26L391 600.48L393.56 603.51L395.72 604.73L399.85 615.84L401.62 624.74L401.43 630.6L403 633.83V638.89L400.84 641.72L400.64 645.35L400.05 670.62L401.43 675.88L401.62 681.74L404.38 686.59L403.67 690.59L411 691.57L425.09 686.64L425.93 686.82L425.12 682.68L426 672.03L425.41 668.58L425.61 665.53L424.62 656.61L425.41 653.46L425.22 651.03L424.42 649.61L424.92 647.99L424.42 644.44L424.13 642.91L424.53 638.35L424.92 635.31L424.62 631.46L426.2 629.02L429.46 627.7L431.82 627.29L433.79 625.67L435.56 621.82L438.42 616.65L439.5 613.6L442.36 610.97L445.12 611.17L446.21 609.24L441.87 604.37L442.17 602.45L443.74 599.81L448.18 599.51L448.97 597.07L446.9 589.57L446.8 584.39L441.18 579.83L440.29 576.48L441.18 572.12L441.65 571.72L437.23 565.71L432.51 564.7L428.77 559.45L422.08 553.79L420.31 557.63L420.9 560.05L417.16 561.27L415 561.52Z" fill="#CCCCCC" stroke="white" stroke-width="0.5" stroke-miterlimit="10"/>
<path fill-rule="evenodd" clip-rule="evenodd" d="M668.76 327.71L692.34 317.86L860.13 403.68L861.6 486.6L858.4 487.81L854.6 490.23L851 488H845.8L842 491.02V496.25L844.2 499.06L841.8 503.89L835 512.94L832.8 512.74L829.2 516.36L829.4 519.38L831.8 521.79L829.6 526.22L825.4 528.83L824.6 531.65L828.4 533.86L828.8 538.09L826.6 541.51L820 548.55V553.19L822.74 555.93L827.64 552.4L829.99 552.99V555.77L827.54 557.39L830.4 559.41L828.77 562.04L830.81 565.68L831.01 571.15L831.83 575.2L839.79 577.22L841.83 580.46L840 583.5V586.33L838.77 589.16L833.26 591.59L830.61 589.97H825.51L821.64 592.6L816.33 595.64L815.52 598.47L815.72 601.3L813.27 602.31L809.39 608.38L807.15 608.58L805.52 607.57L802.46 611.01L802.66 614.25L799.6 616.27L798.78 619.91L799.39 622.95L798.37 625.99L794.9 627.81L790.82 630.85L782.86 631.86L776.94 632.67L771.43 631.86L767.96 630.44L763.06 631.05L759.79 630.24L756.93 632.06L756.52 635.5L760 640H762.8L763.6 642.8L757.6 646.8L754.8 650H749.4L737 652.8L731.8 656.4L726 658.8L720.6 662.8L716.8 663.4L715 661.6L713.6 656.8L711.4 654.8L709 657.2V662.12L706.39 666.98L700.78 667.18L697.37 667.99H693.36L692.56 663.74L690.3 661.23L690.15 657.5L686.54 651.91L683.43 646.52L680.21 643.77L672.87 635.54L665.03 628.83L661.51 627.51L660.91 625.17L658.8 623.65L658 621.31V617.75L659.2 615.72L659.4 611.96L662.62 611.75L666.13 611.65L668.24 612.46L671.96 611.85L675.08 612.36L677.79 611.95L682.31 612.46L684.62 613.78L687.43 614.29L689.74 612.66L688.03 611.95L682.5 607.27L681.19 602.69L677.97 601.17L674.25 595.78L674.05 591.71L676.56 589.07L678.17 583.58L675.86 580.84L675.96 579.01L676.97 576.87L677.07 574.02L674.66 568.22L673.76 564.56L672.15 562.53L671.04 556.43L666.32 551.96L655.99 546.68L655.77 546.45L652.76 541.38L647.33 534.27L644.56 533.21L643.01 506.62L643.51 503.98H647.28L649.49 503.17L650.49 500.85L685.12 465.3L684.32 434.68L689.92 395.2L693.12 391.97L693.52 384.32L679.5 367.4L680.7 364.98L681.1 359.34L671.09 330.33L668.76 327.71ZM622.71 543.42L621.19 546.46L618.05 547.17L616.21 545.81L622.71 543.42Z" fill="#CCCCCC" stroke="white" stroke-width="0.5" stroke-miterlimit="10"/>
<path fill-rule="evenodd" clip-rule="evenodd" d="M442.57 571.27L438.03 565.32L433.18 564.32L429.35 559.12L422.48 553.52L420.67 557.32L421.27 559.72L417.44 560.92L413.81 561.32L409.16 555.32L411.58 552.12L411.18 548.12L409.56 546.51L408.96 543.91L406.74 542.71L397.66 547.51L390.39 541.91L389.99 533.51L370 520.31V514.5L372.65 510.22L373.47 504.31L374.9 501.45L379.79 502.67L394.48 501.25L399.37 501.65L404.88 499H414.05H418.34L424.46 494.92L430.78 494.52L437.1 491.25L447.71 485.34L449.14 480.64L449.75 473.3L453.21 471.26L454.64 452.09L455.66 411.1L488.09 403.35L514.4 379.28L609.71 320.23L646.97 329.51L650.44 333.18L669.38 325.32L671.78 327.99L681.99 357.39L681.59 363.11L680.36 365.56L694.66 382.71L694.24 390.47L690.98 393.74L685.26 433.75L686.08 464.79L650.77 500.82L649.75 503.18L647.5 504H642.22L641.72 506.61L643.28 532.87L639.39 531.4L636.97 535.22L636.26 537.83L634.23 538.73L631.1 537.43L628.37 538.13L627.15 540.64L622.71 542.25L622.19 543.26L615.71 545.62L613.3 543.85L607.33 543.65L600.56 540.44L591.25 539.33L586.7 541.55L575.68 540.84L571.23 542.05L565.87 549.47L560.71 552.89L556.87 551.99L548.37 548.87L544.03 548.27L537.25 544.56L533 542.95V541.34L529.26 538.53L525.82 538.33L525.01 539.24L519.04 540.34L515.91 541.85L512.98 542.15L510.65 544.96L508.53 545.76L504.38 543.25L499.73 536.52L497.81 534.22L491.54 531.91L488.1 531.31L485.57 529.9L479.81 529L477.48 528.19L474.04 528.39L472.22 530L465.85 529.9L464.13 530L460.79 529.8L456.55 530.7L454.93 531.7L452.6 532.61L447.89 536.33L447.28 538.49L448.09 540.3L447.79 541.5L446.98 543.11L447.89 546.87L449.35 548.58L449.57 551.48L445.72 551.58L441.38 556L442.19 558.21L440.77 560.42L443.3 566.34L445.62 566.44L445.83 568.65L442.57 571.27Z" fill="#CCCCCC" stroke="white" stroke-width="0.5" stroke-miterlimit="10"/>
<path fill-rule="evenodd" clip-rule="evenodd" d="M655.641 546.34L655.421 546.11L652.401 541.05L646.94 533.96L640.271 531.42L637.85 535.27L637.141 537.91L635.12 538.82L631.99 537.5L629.26 538.22L628.051 540.75L623.61 542.37L621.58 546.43L618.45 547.14L614.21 544L608.25 543.79L601.48 540.55L592.19 539.43L587.641 541.67L576.63 540.95L572.19 542.17L566.83 549.67L561.681 553.12L557.84 552.21L549.36 549.07L545.01 548.46L538.25 544.71L534 543.08V541.46L530.26 538.62L526.83 538.42L526.021 539.33L520.061 540.45L516.931 541.97L514 542.27L511.681 545.11L509.551 545.92L505.411 543.39L500.771 536.59L498.85 534.26L492.59 531.93L489.151 531.32L486.62 529.9L480.87 528.99L478.541 528.17L475.11 528.38L473.291 530L466.35 529.9L464.63 530L461.281 529.79L457.021 530.71L455.401 531.72L453.07 532.64L448.34 536.39L447.73 538.58L448.541 540.4L448.24 541.62L447.431 543.24L448.34 547.05L449.811 548.77L450.031 551.7L446.171 551.8L441.811 556.27L442.62 558.5L441.2 560.73L443.74 566.71L446.07 566.82L446.271 569.05L442.521 572.09L441.61 576.45L442.521 579.8L448.301 584.36L448.401 589.54L450.531 597.04L449.72 599.48L445.161 599.78L443.541 602.42L443.23 604.34L447.69 609.21L446.58 611.14L443.74 610.94L440.801 613.57L439.681 616.62L436.74 621.79L434.921 625.64L432.891 627.27L430.46 627.67L427.11 628.99L425.49 631.43L425.791 635.28L425.391 638.32L424.98 642.89L425.281 644.41L425.791 647.96L425.281 649.58L426.1 651L426.301 653.43L425.49 656.58L426.5 665.5L426.301 668.55L426.911 672L425.99 682.65L426.83 686.79L435.051 688.52L441.75 685.82L457.2 693.93L465.811 702.37L471.061 712.55L470.901 719.23L473.771 720.67L476.161 727.99L481.58 732.92L489.22 734.99L509.62 733.87L513.76 731.33L516.791 732.6L526.51 729.1L529.69 730.53L535.11 729.42L537.19 723.53L541.01 727.51L542.6 726.55L542.781 726.64L542.891 723.96L548.35 717.69L550.58 712.44L549.771 707.38L549.57 702.94L552 701.32V698.29L555.44 695.05L559.08 692.62L560.911 690.4L567.181 685.76L566.771 681.51L567.781 679.28L572.44 679.08L574.46 676.45L575.48 677.47L581.141 679.28L583.37 679.08L587.421 681.1L589.641 685.35L593.291 687.98L595.72 688.99L600.171 686.36L603 681.71V679.89L604.62 677.47L607.85 676.46L610.271 672.62L610.07 669.59L611.69 664.54L618.151 658.08L618.96 654.65L617.95 651.62L619.97 648.38L625.421 642.53L629.661 639.7L630.061 635.26L631.681 632.23L630.87 625.77L633.901 622.94L639.561 621.32L643.19 616.68L644 611.83V606.31L643.401 603.08L645.82 599.04L649.24 591.96L651.46 590.14L652.07 588.33L656.1 585.09L658.521 585.29L661.34 582.06L666.181 579.83L666.59 577.2L665.021 571.68L664.82 569.35L663.401 565.91L659.671 564.89L657.85 561.14L658.051 554.75L657.551 551.5L655.62 546.33L655.641 546.34Z" fill="#CCCCCC" stroke="white" stroke-width="0.5" stroke-miterlimit="10"/>
<path fill-rule="evenodd" clip-rule="evenodd" d="M536.351 755.45L536.651 752.26L539.391 752.03L540.981 747.16L545.461 742.6L546.911 744.04L547.361 750.05L544.321 758.27L540.301 757.66L536.351 755.45Z" fill="#CCCCCC" stroke="white" stroke-width="0.5" stroke-miterlimit="10"/>
<path fill-rule="evenodd" clip-rule="evenodd" d="M542.49 726.67L542.6 723.99L548.06 717.72L550.28 712.46L549.47 707.41L549.27 702.97L552 701.35V698.33L555.44 695.09L559.08 692.66L560.91 690.44L567.18 685.78L566.77 681.53L567.78 679.3L572.44 679.1L574.46 676.47L575.48 677.48L581.14 679.3L583.37 679.1L587.42 681.13L589.64 685.37L593.29 688.01L595.72 689.02L600.17 686.39L603 681.73V679.89L604.62 677.47L607.85 676.46L610.27 672.62L610.07 669.59L611.69 664.54L618.15 658.08L618.96 654.65L617.95 651.62L619.97 648.38L625.42 642.53L629.66 639.7L630.06 635.26L631.68 632.23L630.87 625.77L633.9 622.94L639.56 621.32L643.19 616.68L644 611.83V606.91L643.38 603.6L645.86 599.47L649.38 592.23L651.65 590.37L652.27 588.51L656.41 585.19L658.89 585.4L661.79 582.09L666.75 579.82L667.17 577.13L665.56 571.48L665.36 569.09L663.9 565.57L660.07 564.53L658.21 560.69L658.41 554.15L657.89 550.83L655.92 545.54L666.6 550.93L671.47 555.5L672.61 561.72L674.27 563.8L675.2 567.54L677.69 573.45L677.58 576.36L676.54 578.54L676.44 580.41L678.83 583.21L677.16 588.81L674.58 591.51L674.78 595.66L678.62 601.16L681.93 602.72L683.28 607.39L688.98 612.16L690.74 612.89L688.36 614.55L685.46 614.03L683.07 612.68L678.41 612.16L675.61 612.58L672.4 612.06L668.57 612.68L666.39 611.85L662.77 611.95L659.45 612.16L659.24 616L658 618.08V620.81L658.16 623.14L660.28 624.66L660.89 626.99L664.43 628.31L672.33 635L679.73 643.22L682.97 645.96L686.11 651.33L689.75 656.91L689.96 661.98L686.11 667.36L683.07 668.58L681.15 672.84L677.3 680.04L674.97 685.21L670.81 690.99L668.49 691.9L666.56 694.74L667.17 699.21L668.89 704.79L667.98 709.96L669.7 715.43L670 720.1V728.62L672.24 730.14L678.31 733.08L681.65 737.24L682.97 741.7L688.13 749.31L691.27 755.5L693.8 757.93L700.49 763.11L701.1 767.37L700.99 770.71L701.91 772.13L702.42 772.59L701.91 773.45L700.59 776.39L698.36 779.84L697.45 781.46L699.38 784.91L698.87 786.94L696.44 787.35L695.83 786.13L694.21 786.43L692.38 785.82L690.66 785H686.11L684.28 785.62L681.25 783.39L679.73 782.99L679.12 784.41L676.99 784.81L675.57 783.09L673.05 782.38L671.02 782.99L668.69 781H666.97L665.95 782.23L663.63 781.11L636.88 780.56L635.51 778.73L633.79 778.84L632.73 779.5L627.46 779.06L627.01 778H624.02L620.63 778.53L618.7 777.82L612.12 777.47L610.35 778.02L604.48 777.77L602.27 778.85L600.22 778.73L598.37 779.57L598 780.49V781H572.69L571.47 780H568.94L566.22 780.17L569.53 776.86L566.5 773.68L569.36 766.36L568.57 758.25L565 752.84V746.95L566.18 744.24L563 739.15L556.79 741.86L554.89 739.63L551.22 739.15L548.68 726.26L545.33 728.02L542.49 726.67Z" fill="#CCCCCC" stroke="white" stroke-width="0.5" stroke-miterlimit="10"/>
<path fill-rule="evenodd" clip-rule="evenodd" d="M598 780.63L598.67 779.72L600.5 778.9L602.54 779.02L604.73 777.94L610.57 778.2L612.33 777.65L618.88 778L620.79 778.7L624.16 778H627.21L627.67 778.96L632.92 779.36L633.98 778.76L635.69 778.66L637.06 780.32L636.86 780.31L635.86 784.56L637.27 788.61L636.77 793.87L637.97 797.2L637.17 799.83L639.19 800.94L642.52 799.12L645.45 799.93L650.09 798.72L654.63 797L661.29 797.1L663.62 798.72L664.02 804.99L662.51 807.62L663.82 809.84L663.22 813.78L659.38 814.59L654.93 817.08L654.67 819.96L655.73 821.23L656.74 824.16L655.43 824.36L654.37 825.57L652 826.54V828.94L653.4 830.65L654.2 832.4L656.66 833.56L657.41 835.36L660.56 838.02L661.57 840.48L663.68 842.6L663.49 846.8L661.49 855.2L656.29 870.4L657.29 874.2L657.09 878H655.09L653.88 875.2L649.68 873.4L645.29 873.6L642.88 875.2L640.29 874.6L635.29 876L632.48 872.6L629.08 864.2L625.08 863.8L623.08 866.2L623.88 871.2L622.88 874.6L615.48 875H611.73L610.72 877L608.7 878.62L604.65 876.19L600.21 876.8L598.19 878.82L599.81 881.86L599.2 885.9L602.43 884.89L605.67 884.08L607.69 885.7L611.33 888.32L611.73 898.83L611.53 902.47L605.67 898H604.05L602.84 900.05L599 900.25L596.98 901.26L596.57 904.09L593.51 908.4L592.6 907.51L588.94 906.08L588.3 902.57L580.66 898.91L578.75 894.3L569.2 886.66L563.48 880.62L565.07 879.5L559.66 875.05L557.43 870.11L554 866.93V860.57L551 855.63V851.45L548.63 849.57L544.2 840.46L544.51 838.26L549.58 839.99L553.53 836.7L554.48 825.24L555.11 819.43L557.49 821.79L566.66 819.59L560.18 818.02L556.06 811.43L560.5 810.8L560.75 805.88L563.27 806.4L565.89 804.6L568.2 804.1L569.41 805L598 805.3V780.63Z" fill="#CCCCCC" stroke="white" stroke-width="0.5" stroke-miterlimit="10"/>
<path fill-rule="evenodd" clip-rule="evenodd" d="M562.811 805.84L565.19 806.33L567.671 804.62L569.85 804.14L571 805L598 805.29V780H572.69L571.47 781H571L568.431 781.5L567.651 782.28L569.151 785.72L562.87 792.74L557.94 802.15L562.87 804.69L562.811 805.84Z" fill="#CCCCCC" stroke="white" stroke-width="0.5" stroke-miterlimit="10"/>
<path fill-rule="evenodd" clip-rule="evenodd" d="M593.66 908.43L596.67 904.18L597.07 901.39L599.07 900.39L602.86 900.19L604.06 898H605.66L611.46 902.6L611.66 899L611.26 888.6L607.66 886L605.66 884.4L602.46 885.2L599.26 886.2L599.86 882.2L598.26 879.2L600.26 877.2L604.66 876.6L608.66 879L610.66 877.4L611.66 875H615.48L622.88 874.6L623.88 871.2L623.08 866.2L625.08 863.8L629.08 864.2L632.48 872.6L635.29 876L640.29 874.6L642.88 875.2L645.29 873.6L649.68 873.4L653.88 875.2L655.09 878H657.09L657.29 874.2L656.29 870.4L661.49 855.2L663.49 846.8L663.68 842.6L661.57 840.48L660.56 838.02L657.41 835.36L656.66 833.56L654.2 832.4L653.4 830.65L652 828.94V825.75L654.32 824.81L655.35 823.63L656.63 823.43L655.65 820.56L654.61 819.33L654.86 816.52L659.21 814.09L662.95 813.29L663.55 809.44L662.26 807.27L663.74 804.7L663.35 798.58L661.08 797L654.57 796.9L650.13 798.58L645.6 799.76L642.74 798.98L639.48 800.75L637.51 799.67L638.3 797.1L637.12 793.84L637.61 788.7L636.23 784.75L637.22 780.6L663.45 781.1L665.71 782.09L666.7 781H668.69L671.02 782.99L673.05 782.38L675.57 783.09L676.99 784.81L679.12 784.41L679.73 782.99L681.25 783.39L684.28 785.62L686.11 785H690.32L692.04 785.81L693.86 786.42L695.48 786.11L696.08 787.33L698.51 786.92L699.02 784.9L697.09 781.45L698 779.83L700.22 776.4L701.54 773.46L711.45 756.96L716.7 751.9L720.34 751.09L722.06 748.86L731.05 745.22L734.39 745.52L736.61 744H740.05H742.88L744.29 745.72L748.13 747.85L750.16 747.04L752.64 746.4L752.56 747.54L754.53 751.63L754.68 760.1L750.59 762.22L749.68 766L740.61 777.66L742.42 784.92L741.21 789.46L740.91 794.15L737.88 798.08L737.28 804.28L737.88 806.85L736.67 813.21L737.58 814.42L736.97 820.32L733.95 821.69L732.13 828.64L731.98 835.75L725.33 846.75L721.24 847.89L717.6 850.78L714.94 849.87L710.02 853.28L706 858.29L705.92 863.69L699.6 870.29L697.26 874.72L698.17 880.57L699.37 882.22L698.59 893.58L697.24 899.26L697.39 903L693.93 908.53L690.17 909.43L686.86 911.67L685.51 914.81L676.94 923.03L673.93 927.52L668.97 929.61L664.04 926.78L662.84 923.25L661.78 922.28L664.19 917.7L664.57 915.68L658.02 917.85L653.72 921.53L650.94 920.7L648 921L647.92 925.51L645.51 928.28L641.59 928.2L641.75 926.33L640.54 924.15L637.45 925.65L634.89 925.43L634.27 926L634.18 922.6L632.17 919.9L629.96 918H628.15L624.64 920.9L621.62 921.5L620.42 925.2L617.1 927H615.18L613.18 931.9L611.13 933.07L608.77 930.48L608.93 926.4L605.63 922.79L605.47 919.02L599.19 915.09L597.78 912.42L593.66 908.43Z" fill="#CCCCCC" stroke="white" stroke-width="0.5" stroke-miterlimit="10"/>
<path fill-rule="evenodd" clip-rule="evenodd" d="M633.89 926L633.8 922.6L631.8 919.9L629.6 918H627.81L624.31 920.9L621.32 921.5L620.12 925.2L616.82 927H615.43L613.43 931.9L611.38 933.07L613.89 935.82L615.3 941.78L612.94 946.17L614.05 948.62L617.88 946.06L621.78 945.46L624.17 943.13L623.8 935.63L625.45 933.46L629.86 929.7L633.89 926Z" fill="#CCCCCC" stroke="white" stroke-width="0.5" stroke-miterlimit="10"/>
<path fill-rule="evenodd" clip-rule="evenodd" d="M1003.79 849.54L1005 847.9L1006.92 848.3L1008.74 847L1034.87 846.9L1077.9 844.58L1155.02 889.59L1159.26 896.66L1158.25 898.68L1159.06 901.3L1160.88 903.52L1186.99 921.95L1186.21 921.93L1187.24 923.11L1187.63 926.37L1186.21 928.42L1181.69 942.37L1178.2 951.16L1178.44 956L1184.38 961.15L1188.82 966.14L1191.59 965.74L1194.37 973.51L1193.18 975.96L1191.43 975.41L1188.9 977.07L1187.63 982.14L1188.03 989.91L1191.2 993L1190.64 997.91L1187.79 1000.29L1188.5 1004.96L1190.8 1010.51L1189.61 1010.82L1190.88 1013.36L1191.75 1017.48L1194.21 1019.62L1192.15 1023.02L1194.13 1025.4L1196.27 1031.66L1195.56 1034.83L1203.01 1042.04L1208.47 1042.83L1213 1046.67V1048.73L1213.55 1049.08L1212.81 1049.41L1211 1051.53L1207.06 1050.47L1204.64 1053.8L1201.46 1056.37L1197.07 1056.98L1194.19 1060.01L1189.34 1060.61L1187.83 1062.43L1184.5 1063.49L1181.47 1062.28L1173.6 1064.7L1171.63 1066.36L1167.84 1066.82L1164.97 1064.7L1162.09 1065.31L1158.31 1064.09L1156.79 1065.46L1157.85 1067.88L1156.34 1071.06L1150.43 1071.51L1146.04 1073.18L1143.46 1071.51L1140.74 1071.36L1140.44 1070L1138.01 1068.94L1136.35 1070.3L1134.08 1070.91L1129.53 1074.09L1123.32 1075.9L1123.93 1074.09L1121.81 1071.81L1119.09 1071.51L1116.51 1069.7L1113.79 1068.94L1113.64 1067.12L1110.61 1067.73L1109.7 1069.24L1106.22 1070L1086.08 1070.3L1082 1085.18L1082.32 1050.39L1081.23 1042.15L1073.95 1034.16L1071.6 1031.89L1069.22 1030.42L1068.28 1028.96L1066.71 1028.61L1065.26 1027.48L1062.84 1027.12L1061.51 1027.99L1060.33 1026.58L1057.71 1026.18L1056.42 1023.75L1054.35 1023.48L1053.35 1024.27L1053.25 1024H1051.53L1047.62 1019.78L1046.21 1016.34L1043.4 1015.88L1041.53 1014H1040.3L1030.46 1010.56L1026.39 1010.41L1023.74 1007.91L1023.43 1006.19L1020.3 1004H1018.48L1015.3 1003H1012.26L1005.26 999.99L1000.15 983.38L985.28 962.91L980.28 938.05L977.54 920.26L988.11 920.46L995.18 918.64L998.82 913.39L1004.28 907.32L1006.7 905.3L1009.54 902.27L1012.97 898.83L1013.37 895.8L1012.16 889.53L1009.54 889.13L1008.73 886.5L1006 884.89V882.06L1005 880.24V878.19L1005.3 879.14L1007.63 879.64L1009.85 878.32L1011.58 876.6L1012.29 873.86L1013.5 870.92L1012.89 866.76L1011.17 860.68L1009.35 857.84L1008.84 855.3L1006.21 853.17L1003.79 849.54Z" fill="#CCCCCC" stroke="white" stroke-width="0.5" stroke-miterlimit="10"/>
<path fill-rule="evenodd" clip-rule="evenodd" d="M983.11 853.24L984.25 853.72L987.75 853L991.24 850.22L993.6 851.35L995.35 853H998.48L1000.03 851.56L1000.14 848.57L1003.66 847.95L1006.77 852.59L1009.47 854.75L1009.99 857.32L1011.85 860.2L1013.62 866.38L1014.24 870.6L1012.99 873.58L1012.27 876.36L1010.5 878.11L1008.22 879.45L1005.84 878.94L1005 877.98V876.77L1002.52 875.34L1001.48 872.05L999 871.64L997.141 870H995.281L995.69 873.9L993 880.46V882.51L988.69 883.95L986.641 881.9L985.2 882.31L983.98 883.75L980.281 882.31L978.641 878.82L976.391 878H972.69L970.811 878.47L971.25 875.18L974.49 862.26L978.49 857.49L983.11 853.24Z" fill="#CCCCCC" stroke="white" stroke-width="0.5" stroke-miterlimit="10"/>
<path fill-rule="evenodd" clip-rule="evenodd" d="M977.791 920.04L988.38 920.25L995.47 918.43L999.11 913.17L1004.58 907.11L1007.01 905.09L1009.85 902.05L1013.29 898.62L1013.69 895.59L1012.48 889.32L1009.85 888.92L1009.04 886.29L1006 884.67V882.06L1005 880.24V876.77L1002.52 875.34L1001.48 872.05L999 871.64L997.141 870H995.281L995.69 873.9L993 880.46V882.51L988.661 883.95L986.59 881.9L985.141 882.31L983.901 883.74L980.171 882.31L978.51 878.82L976.24 878H972.99L971.13 878.46L970.811 880.83L973.541 885.23L974 889.93V895.38L977.791 920.04Z" fill="#CCCCCC" stroke="white" stroke-width="0.5" stroke-miterlimit="10"/>
<path fill-rule="evenodd" clip-rule="evenodd" d="M613.92 949.14L617.82 946.54L621.76 945.93L624.19 943.57L623.82 935.96L625.49 933.76L629.97 929.96L634.67 925.62L637.26 925.85L640.37 924.32L641.59 926.53L641.43 928.43L645.38 928.51L648 925.7V921.13L650.85 920.83L653.66 921.66L657.99 917.93L664.6 915.73L664.22 917.78L661.79 922.43L662.85 923.41L664.07 926.99L669.04 929.86L674.04 927.74L677.07 923.19L685.71 914.85L687.08 911.67L690.41 909.39L694.2 908.49L697.69 902.88L697.54 899.09L698.9 893.32L699.69 881.8L698.47 880.13L697.56 874.19L699.92 869.71L706 863.01L706.08 858.28L710.09 853.28L715.01 849.87L717.66 850.77L721.3 847.89L725.39 846.75L732.04 835.76L732.19 828.66L734 821.7L737.03 820.34L737.63 814.44L736.73 813.23L737.94 806.88L737.33 804.31L737.94 798.11L740.96 794.18L741.27 789.5L742.47 784.96L740.66 777.7L749.73 766.06L750.64 762.28L754.72 760.16L754.57 751.7L752.6 747.61L752.91 743.08L753.96 740.05L755.32 738.24L752 733.85V732.67L755.17 732.5L757 730.83V728.33L759.16 725.67L759.67 722.5L761.33 721H764.16L767.5 717.67L771.5 718.16L772.17 716H773.35L776.52 718.41L778.92 718.71L784.95 723.83L788.11 725.04L793.69 729.71L794.89 730.91L799.56 730.61L803.78 733.02L808.91 733.32L811.78 733.85L814.42 732.65L817.14 732.72L820.91 734.16L825.89 735.14L827.85 736.27L832.75 735.21L833.51 733.55L831.32 731.74L830.94 729.4L834.26 725.99L837.21 722.22L841.43 722.29L845.35 723.12L847.69 725.69L850.41 724.56L859.39 723.5L860.97 721.54L864.22 720.25L872.89 716.47L875.68 716.7L876.14 718.21L877.65 718.51L878.55 720.93L880.36 721.01L882.93 719.19L887.98 718.97L890.85 718.36L893.26 718.29L895.98 714.28L895.08 712.84L895.3 711.26L898.47 711.03L900.43 712.92L904.88 713.6L907.3 713.37L909.34 714.51L912.43 715.04L915.37 717H923.74L924.96 717.87L931.49 714.91L936.27 715.36L940.15 717.64L941.59 718.18L942.27 721.52L944.55 724.19L946.91 724.87L949.33 727.46L953.59 731.03L957.76 732.63L960.12 731.94L961.72 729.28L964.3 728H969.31L972.04 728.06L972.65 729.21L974.4 729.28L978.8 728.06L980.62 725.78L982.9 723.05L987.61 723.27L989.28 724.34L991.87 729.66L994.22 732.4L995.36 734.23L1000.9 736.05L1003.11 738.11L1004.7 741.6L1005.99 743.28L1007.13 746.32L1007.59 748.68L1008.42 748.76L1013.63 748.62L1015.18 749.59L1014.12 753.47L1012 756.29V762.14L1010.78 769.37L1010.32 774.69L1012.68 776.37L1014.73 779.11L1016.32 782.61L1015.94 784.96L1005.14 799.33L998.47 806.76L996.65 809.94L988.46 824.65L986.94 827.23L986.79 832.69L986.19 840.42L983.46 848L984.06 852.85L978.46 858L974.51 862.7L971.33 875.44L970.57 881.05L973.3 885.44L974 890.14V895.33L980.58 937.78L985.63 962.64L1000.64 983.11L1005.8 999.72L1002.77 998.27L968.13 1006.59L959.47 1023.03L960.62 1027.67L963 1029.87L965.07 1031.01L964.83 1033.45L963.46 1034.82L963.84 1037.71L963.46 1040.52L963.9 1043.75L963.29 1048.15L961.61 1049.06L962.37 1050.42L960.99 1052.55L956.86 1056.33L956.4 1059.21L956.71 1070.89L957.01 1076.34L959.77 1078.47L965.43 1084.53L966.66 1087.87L968.64 1090.44L977.37 1090.6L978.44 1089.99L977.21 1088.02L976.75 1085.59L981.35 1084.84L984.1 1085.9L985.17 1108.18L984.1 1110L980.58 1109.4L980.28 1108.18L978.74 1107.88L975.53 1109.09L972.01 1110H969.41L964.82 1105.91L960.69 1101.06L956.86 1097.72L952.42 1091.81L947.68 1088.78L939.88 1086.2L934.67 1083.32L934.21 1081.04L931 1077.26L931.03 1071.22L929.26 1070.68L927.34 1071.69L924.57 1072.15L922.57 1077.77L922.34 1079.85L915.88 1082H912.5L912.11 1080.77L907.12 1079.62L902.97 1078.92L897.97 1075.92L895.9 1075.69L891.75 1073.76L890.13 1073.69L890.44 1072.15L889.98 1069.15L888.9 1067.14L888.67 1062.91L887.37 1062.52L881.83 1064.22L880.45 1065.6L877.22 1065.7L874.3 1067.04L872.03 1069.16L870.61 1068.63L869.84 1067.31L869.61 1063.43L868.65 1062.08L865.19 1061H863.7L862.02 1060.07L861.99 1059.64L858.12 1060.09L854.81 1061.42L851.17 1063.17L849.19 1063.93L846.95 1064.46L845.02 1064.08L839.59 1063.91L837.31 1063.15L834.35 1062H832.3L831.16 1061.79L829.34 1062.39L828.04 1063.84L825.69 1064.14L825.08 1062.62L825.16 1058.51L826.67 1057.22L826.45 1056.15L827.66 1052.96L825.19 1050.99L824.43 1046.75L826 1045.38V1043.11L823 1040.53V1038.32L823.77 1035.55L823.46 1032.94L821.77 1032.63L820.38 1030.02L819 1029.1V1026.89L817 1024.31L816.85 1022.19L815.79 1020.37L817.45 1016.12L816.85 1008.54L815.94 1005.96L816.39 1004.45L818 1002.93V999.9L815.18 996.56L815.97 993.02L818 989.59V987.03L818.23 983.83L817.78 981.25L793.26 979.46L792.65 977.33L794.01 975.06L794.17 972.63L787.8 972.03L787.65 974L767.18 974.3L766.57 980.36L765.06 983.7L763.24 984.61L763.85 988.7L764 994.46L748.08 995.52L745.35 997.04L738.08 996.59L735.8 995.83L731.86 996.59L726.25 996.89L723.98 995.68L722.76 988.1L720.04 984.16L718.22 981.43L716.4 980.06L716.24 977.64L715.49 975.82L714.28 970.82L712 967.02V963.52L712.85 961.55L712.4 958.97L710.73 956.7L710.01 954.24L711 953.33V950L688.59 951H673.74L666.46 950.78L659.79 950.48L656.45 950.18L650.24 950.48L645.38 951H641.76L638.63 950.67L635.17 950.34L631.55 951.16L627.56 952.26L626.16 953H625.11L624.42 953.46L624.01 954H623.62V953.66L621.08 951.75L615.03 951.59L613.92 949.14Z" fill="#CCCCCC" stroke="white" stroke-width="0.5" stroke-miterlimit="10"/>
<path fill-rule="evenodd" clip-rule="evenodd" d="M1054.03 1024.34L1054.99 1023.58L1056.99 1023.84L1058.24 1026.19L1060.77 1026.57L1061.9 1027.93L1063.19 1027.1L1065.53 1027.44L1066.93 1028.54L1068.44 1028.88L1069.35 1030.28L1071.65 1031.7L1073.92 1033.89L1080.95 1041.61L1082 1049.56V1084.99L1080.48 1088.89L1083.97 1108.29L1090.64 1111.78L1093.67 1114.66L1095.19 1116.79L1097.31 1117.24L1104.44 1124.37L1105.8 1127.7L1110.65 1134.22L1112.47 1139.37L1113.83 1142.25L1113.99 1144.53L1111.26 1145.44L1110.35 1147.56L1108.07 1147.87L1107.32 1149.53L1108.38 1151.05L1107.92 1153.02L1110.05 1155.45L1109.89 1163.18L1108.53 1166.51L1105.65 1168.94L1101.4 1170.15L1099.28 1175.76L1098.67 1179.7L1096.55 1183.34L1098.07 1188.34L1097.16 1192.43L1093.07 1193.34L1092.01 1190.31L1093.37 1187.74L1090.64 1183.95L1088.21 1181.97L1085.49 1180.46L1082 1177.12L1078.36 1172.73L1077.91 1169.39L1076.09 1164.69L1075.63 1161.21L1078.36 1157.41L1079.42 1152.57L1083.82 1147.87L1084 1143.01V1137.25L1082.3 1133.92L1076.69 1132.55L1072.3 1132.71L1070.48 1135H1068.04L1066.42 1135.91L1063.02 1133.79L1062.72 1131.21L1060.95 1129.09L1060.21 1127.12L1058.88 1124.84L1053.42 1126.19L1053 1124.18L1051.22 1120.15L1048.41 1116.58L1047.74 1114.6L1049.89 1113.46L1053 1109.73V1106.76L1053.67 1104.56L1053.07 1102.81L1052.93 1099.84L1053.81 1098.17L1058.33 1094.74L1061.22 1093.38L1062.33 1091.25L1064.26 1090.71L1063.96 1089.11L1061.74 1087.67L1061.44 1085.69L1060.55 1082.95L1061.59 1081.96L1062.41 1079.76L1060.55 1076.49L1062.18 1073.75L1061.44 1071.24L1061.07 1068.04L1059.74 1064.39L1060.41 1060.89L1065 1056.02V1054.41L1066.06 1052.97L1065.83 1048.58L1064.62 1045.47L1061.07 1042.9L1060.61 1040.86L1062.96 1035.56L1063.11 1034.04L1060.54 1033.21L1057.59 1031.47L1056.61 1028.52L1055.18 1027.38L1054.03 1024.34Z" fill="#CCCCCC" stroke="white" stroke-width="0.5" stroke-miterlimit="10"/>
<path fill-rule="evenodd" clip-rule="evenodd" d="M862.14 1059.59L863.82 1061L866.24 1060.96L869.64 1062.04L870.59 1063.39L870.81 1067.28L871.57 1068.6L872.97 1069.14L875.2 1067.01L878.07 1065.67L881.25 1065.57L882.61 1064.18L888.05 1062.48L889.34 1062.87L889.57 1067.11L890.63 1069.12L891.08 1072.13L890.77 1073.67L892.36 1073.75L896.45 1075.68L898.49 1075.91L903.4 1078.92L907.48 1079.61L912.4 1080.77L912.78 1082H916.1L922.46 1079.84L922.68 1077.76L924.65 1072.13L927.37 1071.67L929.26 1070.66L931 1071.2L930.97 1077.22L934.16 1081.01L934.61 1083.29L939.78 1086.17L947.52 1088.75L952.22 1091.79L956.62 1097.71L960.42 1101.05L964.51 1105.9L969.07 1110H971.65L975.14 1109.09L978.33 1107.88L979.84 1108.18L980.15 1109.39L983.64 1110L984.7 1108.18L983.64 1085.87L980.91 1084.81L976.35 1085.56L976.81 1088L978.02 1089.97L976.96 1090.57L968.31 1090.42L966.34 1087.84L965.12 1084.5L959.51 1078.43L956.77 1076.31L956.47 1070.84L956.17 1059.15L956.62 1056.27L960.72 1052.48L962.08 1050.35L961.33 1048.99L963 1048.08L963.6 1043.67L963.16 1040.45L963.54 1037.63L963.16 1034.73L964.53 1033.36L964.76 1030.92L962.71 1029.78L960.35 1027.57L959.21 1022.93L967.8 1006.48L1002.15 998.14L1012.17 1003H1015.3L1018.48 1004H1020.3L1023.43 1006.19L1023.74 1007.91L1026.39 1010.41L1030.46 1010.56L1040.3 1014H1041.81L1043.69 1015.88L1046.5 1016.34L1047.91 1019.78L1051.81 1024H1053.53L1054.82 1027.42L1056.31 1028.59L1057.33 1031.65L1060.38 1033.46L1063.04 1034.32L1062.89 1035.88L1060.46 1041.37L1060.93 1043.49L1064.61 1046.15L1065.86 1049.37L1066.1 1053.91L1065 1055.4V1055.7L1060.07 1060.57L1059.38 1064.07L1060.75 1067.72L1061.13 1070.91L1061.89 1073.42L1060.22 1076.16L1062.12 1079.43L1061.28 1081.64L1060.22 1082.63L1061.13 1085.36L1061.44 1087.34L1063.72 1088.79L1064.02 1090.39L1062.04 1090.92L1060.9 1093.05L1057.94 1094.42L1053.31 1097.84L1052.4 1099.51L1052.55 1102.48L1053.16 1104.23L1053 1106.44V1109.4L1049.28 1113.13L1047.08 1114.27L1047.76 1116.25L1050.65 1119.83L1052.47 1123.86L1052.91 1125.86L1052.7 1125.91L1046.47 1127.96L1033.94 1133.01L1030.15 1133.77L1008.78 1143H1004.38L996.19 1146.95L994.37 1150.14L996.04 1156.66L996.18 1158.85L995.36 1158.93L993.61 1159.23L989.28 1158.62L987.08 1158.93L986.09 1157.71L980.32 1157.55L975.99 1159.15L973.18 1160.52L969.84 1161.51L963.99 1164.55L962.25 1167.67L962.86 1169.58L961.79 1171.69L962.25 1173.59L961.91 1175.11L960.12 1176.59L952.98 1179.09L940.6 1187.45L930.65 1199.8L924.46 1208.77L918.77 1210.58L914.82 1209.69L911.65 1207.27L911.21 1206.99L909.92 1206.45L908.93 1206.57L906.84 1205.58L902.17 1206.11L898.45 1208.77L896.36 1208.62L894.31 1206.95L890.51 1205.01L885.46 1204.44L883.31 1204.23L880.3 1200.61L879.31 1200.23L878.17 1199.47L875.89 1199.55L874.45 1199H873.76L872.38 1198.31L867.56 1199.54L865.34 1199.31L845.35 1203.81L844.11 1200.47L841.51 1199.25L838.91 1196.19L837.38 1193.9L834.17 1192.67L831.42 1190.23L827.14 1185.03L824.38 1183.5L822.55 1181.2L820.1 1178.91L817.2 1175.4L816.28 1172.64L817.66 1102H863.22L861.85 1099.71L862.92 1093.75L864.6 1092.06L864.44 1088.54L862 1084.57V1080.21L862.3 1072.52L860.94 1063.6L862 1062L862.19 1060.46L862.14 1059.59Z" fill="#CCCCCC" stroke="white" stroke-width="0.5" stroke-miterlimit="10"/>
<path fill-rule="evenodd" clip-rule="evenodd" d="M845.12 1202.48L843.9 1199.18L841.33 1197.97L838.77 1194.95L837.26 1192.69L834.09 1191.48L831.37 1189.07L827.15 1183.94L824.43 1182.43L822.62 1180.16L820.2 1177.9L817.34 1174.43L816.43 1171.72L817.79 1102H863.21L861.85 1099.74L862.9 1093.86L864.56 1092.2L864.41 1088.73L862 1084.81V1080.28L862.3 1072.74L860.95 1063.99L862 1062.42L862.19 1060.91L862.12 1059.62L858.26 1060.07L854.98 1061.4L851.35 1063.14L849.38 1063.9L847.15 1064.42L845.23 1064.05L839.83 1063.88L837.56 1063.12L834.61 1061H833.48L832.23 1061.76L830.23 1062.37L828.81 1063.82L826.22 1064.12L825.55 1062.6L825.63 1058.49L827.3 1057.2L827.05 1056.13L828.39 1052.94L825.67 1050.97L824.83 1046.73L826 1045.36V1043.09L823 1040.51V1038.32L823.77 1035.55L823.46 1032.94L821.77 1032.63L820.38 1030.02L819 1029.1V1026.89L817 1024.31L816.85 1022.19L815.79 1020.37L817.45 1016.12L816.85 1008.54L815.94 1005.96L816.39 1004.45L818 1002.93V999.9L815.18 996.56L815.97 993.02L818 989.59V987.03L818.23 983.83L817.78 981.25L793.26 979.46L792.65 977.33L794.01 975.06L794.17 972.63L787.8 972.03L787.65 974L767.18 974.3L766.57 980.36L765.06 983.7L763.24 984.61L763.85 988.7L764 994.46L748.08 995.52L745.35 997.04L738.08 996.59L735.8 995.83L731.86 996.59L726.25 996.89L723.98 995.68L722.76 988.1L720.04 984.16L718.22 981.43L716.4 980.06L716.24 977.64L715.49 975.82L714.28 970.82L712 967.02V963.52L712.85 961.55L712.4 958.97L710.73 956.7L710.01 954.24L711 953.33V950L688.59 951H673.74L666.46 950.78L659.79 950.48L656.45 950.18L650.24 950.48L645.38 951H641.76L638.63 950.67L635.17 950.34L631.55 951.16L627.56 952.26L626.16 953H625.11L624.42 953.46L624.01 954H623.62L617.58 957L620 959.7V962.73L631.42 975.77L631.84 992.16L638.21 1001.08L637.26 1009.36L630.57 1017.97L635 1019.88V1027.68L638 1032.48V1038.24L645.81 1051.05L645.5 1054.49L648 1057.61V1076.39L639.74 1092H637.2L627.98 1099.01L627.66 1104.12L616.22 1114.31L615.91 1121.32L614 1122.92V1139.71L608.58 1146.4L607.3 1154.37L602 1161.38V1169.03L600.61 1175.72L600.93 1185.92L599.97 1192.62L600.11 1195H600.12L603.39 1195.51L604.53 1196.35L606.34 1195.67L607.03 1193.08L608.25 1192.4L613.48 1193.16L616.37 1194.83L618.2 1193.39L618.8 1190.34L624.88 1186.08L627.61 1185.93L630.95 1187.45L631.94 1188.21L633.23 1187L634.83 1186.46L637.56 1187.91L637.87 1189.28L640.3 1190.19L639.84 1192.09L641.13 1192.85L645.76 1196.88L650.4 1198.63L653.82 1196.81L654.65 1196.96L657.54 1194.98L659.66 1194.83L660.96 1195L739.96 1194.93L741.25 1195.76L743.36 1199.77L745.02 1201.29L749.18 1203.1L753.72 1204.16L756.82 1203.63L759.16 1204.62L759.76 1205.9L762.64 1207.12L765.59 1205.22L769.29 1204.24L774.51 1205.68L777.3 1205.22L777.91 1202.8L779.04 1203.41L781.46 1203.56L786.07 1207.87L789.55 1209.39L793.94 1209.61L795.52 1208.78L795.67 1207.34L798.02 1206.66L800.14 1207.27L801.65 1208.33L803.38 1207.65L804.59 1209.16L806.26 1209.31L807.24 1209.84L809.13 1210.07L810.87 1209.84L812.21 1209.89L845.12 1202.48Z" fill="#CCCCCC" stroke="white" stroke-width="0.5" stroke-miterlimit="10"/>
<path fill-rule="evenodd" clip-rule="evenodd" d="M883.851 1204.31L886.001 1204.51L891.031 1205.08L894.821 1207.01L896.861 1208.68L898.941 1208.83L902.651 1206.18L907.301 1205.65L909.381 1206.64L910.371 1206.52L911.651 1207.05L912.091 1207.34L915.251 1209.74L919.181 1210.63L924.861 1208.83L931.021 1199.89L940.941 1187.59L953.271 1179.26L960.381 1176.77L962.161 1175.3L962.501 1173.78L962.051 1171.89L963.111 1169.78L962.501 1167.88L964.241 1164.78L970.071 1161.75L973.401 1160.76L976.201 1159.4L980.511 1157.8L986.261 1157.96L987.251 1159.17L989.441 1158.87L993.751 1159.47L995.501 1159.17L996.311 1159.09L996.781 1166.58L1004.18 1166.88L1007.2 1167.48L1008.26 1169.6L1010.68 1169.15L1012.03 1167.03L1017.77 1168.54L1023.66 1171.71L1027.29 1176.7L1031.07 1177.15L1037.56 1177.9L1041.34 1180.93L1043.6 1183.64L1048.28 1183.95L1048.59 1187.57L1046.62 1190.74L1047.23 1193.77L1046.62 1196.79L1047.08 1199.35L1046.93 1201.92L1045.26 1204.94L1044.81 1211.29L1042.55 1214.91L1044.21 1216.88L1047.68 1216.27L1046.17 1219.44L1043 1221.71V1225.36L1042.55 1229.56L1040 1230.46V1233.29L1043.29 1236.15L1044.29 1239.44L1042 1240.87V1245.34L1044.42 1247.31L1045.47 1250.32L1042.76 1254.09L1038.68 1257.26L1037.32 1259.68L1034.46 1259.98L1033.86 1262.85L1035.06 1266.31L1033.55 1268.88L1033.4 1275.21L1032.35 1277.63L1032.04 1284.72L1008.89 1307.73L1005.51 1304.92L998.481 1303.48L992.741 1304.31L989.711 1305.52L988.281 1304.16L983.821 1302.04L980.571 1302.27L979.131 1299.47L974.301 1298.63L967.271 1299.63L965.511 1297.55L964.001 1295.73V1293.3L962.041 1291.64L959.321 1291.49L955.391 1288.92L952.521 1288.77L947.091 1286.96L944.671 1287.87L939.981 1286.96L937.871 1283.49L933.941 1280.47L932.581 1276.99L932.281 1273.67L931.381 1268.83L932.431 1266.12L929.111 1263.7L925.501 1262.25L924.671 1260.2L924.901 1258.84L924.821 1257.7L922.021 1256.03L919.971 1254.14L916.341 1251.41L912.261 1248.91L906.281 1239.73L904.621 1236.86L903.631 1236.93L901.281 1235.04L900.301 1232L898.331 1229.96L897.431 1226.4L895.381 1222.83L894.251 1222.08L893.721 1219.95L892.051 1217.59L889.361 1215.84L887.891 1214.25L884.901 1211.9L884.751 1209.71L884.291 1208.15L884.861 1206.37L883.991 1204.32L883.861 1204.31H883.851Z" fill="#CCCCCC" stroke="white" stroke-width="0.5" stroke-miterlimit="10"/>
<path fill-rule="evenodd" clip-rule="evenodd" d="M883.74 1204.64L884.62 1206.7L884.05 1208.48L884.5 1210.05L884.65 1212.25L887.65 1214.61L889.13 1216.2L891.83 1217.96L893.5 1220.33L894.03 1222.46L895.17 1223.22L897.22 1226.8L898.13 1230.37L900.1 1232.42L901.09 1235.47L903.44 1237.37L904.43 1237.3L906.1 1240.18L912.1 1249.39L916.2 1251.9L919.84 1254.64L921.89 1256.54L924.7 1258.22L924.77 1259.36L924.55 1260.72L925.38 1262.78L929 1264.24L932.33 1266.66L931.27 1269.39L932.18 1274.24L932.49 1277.58L933.85 1281.07L937.79 1284.1L939.91 1287.58L944.61 1288.49L947.03 1287.58L952.49 1289.4L955.36 1289.55L959.31 1292.13L962.03 1292.29L964 1293.95V1296.22L965.52 1298.04L967.28 1300.14L964.7 1300.51L962.73 1302.03L959.08 1302.18L956.88 1304.08L957.34 1306.14L956.12 1309.41L953.09 1310.02L950.21 1312.75L946.73 1312.9L944.76 1313.36L943.4 1312.44L939.15 1313.2L934.61 1316.99L932.49 1319.12L929.91 1320.63L929 1322.6L925.97 1323.66L924.3 1325.64L922.18 1326.24L919.15 1327.61L913.54 1335.18L912.94 1340.34L914 1342.01L913.99 1345.31L911.09 1345.92L909.71 1347.67L907.42 1348.28L904.44 1350.71L903.37 1353.53L901.99 1354.52L900.7 1356.34L897.83 1356.71L894.93 1358.68L890.51 1359.44L888.68 1362.93L888.98 1368.54L887 1370.66V1373.24L885.78 1377.03L887 1378.7L882.27 1381.73L879.67 1380.67L878 1378.54L874.64 1379H869.91L865.52 1380.06L861.88 1378.85L858.54 1379.46L850.82 1375.06L848.39 1374.91L846.27 1372.18L839.15 1371.12L834 1371.72L828.39 1376.72L825.06 1385.06L821.27 1389.16L814.3 1391.88L812.79 1394.46L808.7 1397.65L804.3 1398.71L800.97 1400.98L795.97 1400.22L792.63 1401.74L787.03 1400.68L781.42 1401.43L781.57 1397.42L784.61 1390.67L784.76 1384.91L779.3 1373.09L777.18 1367.32L770.21 1362.17L770.2 1362.4L770.12 1362.19L770.15 1361.72L773.91 1295.4L792.54 1295.03L796.26 1219.42L812.05 1220.1L832.32 1215.39L838.54 1213.56L841.35 1213.26L842.26 1212.8L843.55 1213.64L844.69 1216.6L846.21 1218.12L845.07 1219.65L844.69 1222.54L846.44 1222.92L853.34 1218.05L857.37 1212.95L861.54 1208.62L866.1 1208.08L867.16 1209.76L869.81 1210.14L872.47 1208.31L879.23 1205.88L883.63 1204.66L883.61 1204.63L883.74 1204.64Z" fill="#CCCCCC" stroke="white" stroke-width="0.5" stroke-miterlimit="10"/>
<path fill-rule="evenodd" clip-rule="evenodd" d="M769.68 1361.64L769.7 1361.18L773.47 1294.74L792.14 1294.38L795.87 1218.65L811.69 1219.33L832 1214.61L838.24 1212.78L841.06 1212.48L841.97 1212.02L843.26 1212.86L844.4 1215.83L845.93 1217.35L844.78 1218.88L844.4 1221.77L846.15 1222.15L853.08 1217.28L857.11 1212.17L861.29 1207.83L865.85 1207.29L866.92 1208.97L869.58 1209.35L872.24 1207.52L879.01 1205.09L883.42 1203.87L880.38 1200.21L879.39 1199.83L878.25 1199.07L875.97 1199.14L874.53 1198H873.54L872.17 1197.27L867.39 1198.57L865.18 1198.32L812.3 1211.03L810.95 1210.97L809.21 1211.21L807.31 1210.97L806.32 1210.4L804.65 1210.24L803.43 1208.62L801.69 1209.35L800.17 1208.22L798.04 1207.57L795.69 1208.3L795.54 1209.84L793.94 1210.73L789.54 1210.48L786.04 1208.87L781.41 1204.24L778.98 1204.08L777.84 1203.43L777.23 1206.03L774.42 1206.51L769.18 1204.97L765.46 1206.03L762.5 1208.06L759.61 1206.76L759 1205.38L756.65 1204.33L753.54 1204.89L748.98 1203.75L744.8 1201.81L743.13 1200.19L741.01 1195.89L739.71 1195H660.96L659.66 1194.83L657.54 1194.98L654.65 1196.96L653.82 1196.81L650.4 1198.63L645.76 1196.88L641.13 1192.85L639.84 1192.09L640.3 1190.19L637.87 1189.28L637.56 1187.91L634.83 1186.46L633.23 1187L631.94 1188.21L630.95 1187.45L627.61 1185.93L624.88 1186.08L618.8 1190.34L618.2 1193.39L616.37 1194.83L613.48 1193.16L608.25 1192.4L607.03 1193.08L606.34 1195.67L604.53 1196.35L603.39 1195.51L600.12 1195H600.11L601.25 1212.7L613.68 1225.44L620.37 1236.91L630.79 1260.29L632.37 1269.68L643 1284.64V1290.53L654 1306.6V1315.42L651.3 1316.53L654.32 1327.33L654.96 1343.54L661.15 1360.06L660.52 1368.96L662.42 1374.99L659.4 1376.9L661.95 1380.07L663.47 1391.08L666.32 1392.58L668.22 1396.31L666 1398.05V1401.07L669.29 1404.85L669.68 1413.27L673.45 1418.71L678.47 1429.1L683.49 1434.38L684.59 1437.35L691.66 1442.68L694.67 1440.83L699 1439.89V1437.22L697.65 1435.95L699.75 1432.03L704.83 1429.98L707.22 1434.54L711.26 1434.7L709.46 1439.41L712.45 1445.86L719.48 1447.43L723.96 1449.94L727.25 1449.16L729.49 1450.1L733.08 1450.73L734.72 1449H737.86L739.36 1451.98L742.35 1451.51L744.89 1452.14L745.04 1447.59L746.83 1445.7L749.37 1444.76L751.31 1440.51L756.85 1437.53L763.42 1438H766.89L769.76 1361.86L769.68 1361.64Z" fill="#CCCCCC" stroke="white" stroke-width="0.5" stroke-miterlimit="10"/>
<path fill-rule="evenodd" clip-rule="evenodd" d="M1288.14 1379.13L1290.84 1377.38L1295.3 1377.78L1300.32 1374.77L1304.38 1370.09L1317.6 1368.82L1321.67 1369.77L1328.6 1367.07L1330.51 1363.34L1333.85 1362.86L1336.08 1356.28L1339.42 1350.89L1339.58 1347.08L1343.8 1344.54L1343.4 1338.19L1342.37 1337.32L1345.32 1335.1L1347.15 1328.11L1346.67 1327H1347.3L1351.32 1320.81L1354.3 1306.61L1356.55 1298.91L1359.85 1295.66L1361.7 1287.17L1367.49 1277.01L1373.04 1259.95L1376.98 1254.16V1246.46L1381.25 1238.76L1381.89 1235.82L1386.72 1228.21L1389.21 1216.47L1391.22 1207.9L1393.15 1205.68L1394.28 1199.49L1392.43 1196.4L1393.56 1191.08L1397.99 1185.05L1397.43 1182.11L1400.49 1178.54L1399.77 1173.46L1398 1171.8L1399.93 1168.23L1399.61 1163.07L1398 1161.96L1397.92 1157.07L1400.6 1155.77L1402.59 1157.3L1403.43 1161.51L1406.87 1166.09L1409.39 1166.7L1410.84 1164.1L1411.07 1160.59L1412.14 1159.29L1412.6 1155.7L1414.05 1154.32L1413.82 1150.2L1409.85 1144.85L1408.85 1141.18L1410 1139.35V1133.78L1408.68 1128.1L1409.61 1125.92L1410.08 1115.34L1406.97 1111.3L1406.58 1102.12L1405.02 1098.93L1403.39 1099.55L1399.81 1094.96L1399.34 1090.84L1395.76 1089.28L1397.78 1085.08L1396.38 1080.96L1391.09 1085.78L1392.41 1088.58L1388.83 1090.99L1385.33 1088.66L1383.07 1088.73L1386.41 1093.24L1386.49 1095.89L1388.98 1098.46V1099.64L1384.98 1103.34V1109.52L1382.41 1113.68L1379.61 1112.72L1376 1116.73L1375.52 1120.25L1372.8 1122.25L1370.48 1120.81L1370.08 1116.25L1368.16 1115.29L1365.43 1117.94L1365.03 1122.98L1369.28 1127.23L1370.32 1129.07L1368.72 1130.59L1366.56 1129.95L1361.83 1130.83L1362.87 1134.92L1367.04 1136.12L1367.6 1138.68L1365.76 1140.92L1363.76 1138.6L1360.55 1139.8L1359.83 1142.28L1353.98 1147.25L1353.9 1142.57L1354.84 1141.31L1353.35 1138.79L1349.5 1142.49L1351.94 1143.83L1351.07 1145.64L1346.2 1148.47L1348.09 1152.4L1350.84 1153.27L1350.6 1155.31L1348.01 1156.02L1344.63 1158.3L1344.16 1155.63L1342.19 1155.23L1344.16 1151.93L1342.35 1150.59L1334.72 1157.04L1333.54 1163.1L1334.49 1165.46L1333.31 1168.05L1330.72 1167.18L1328.99 1165.69L1329.07 1160.06L1327.08 1159.83L1322.14 1164.91L1316.72 1161.1L1315.61 1162.69L1313.7 1163.01L1314.42 1168.96L1312.75 1168.56L1311.32 1169.11L1311.24 1165.94L1309.17 1164.83L1306.86 1168.24L1304.71 1164.83L1296.35 1172.52L1294.12 1172.76L1292.45 1171.17L1288.15 1171.09L1286.24 1174.03L1287.04 1180.53L1280.75 1190.21L1280.99 1192.03L1275.01 1198.3V1201.47L1278.27 1204.17L1275.48 1208.14L1277.47 1214.16L1277.23 1219.32L1283.05 1230.51L1282.65 1233.6L1286.32 1237.65L1286.4 1239.47L1283.54 1242.41L1284.49 1245.26L1282.5 1254.94L1278.28 1257.64L1277.17 1263.12L1274.7 1263.59L1273.42 1267.16L1269.6 1270.25L1269.2 1278.11L1266.65 1280.97L1260.51 1282.39L1259 1284.38L1259.48 1291.2L1254.86 1296.04L1255.34 1301.59L1253.99 1304.92L1254.95 1307.46L1255.19 1314.13L1260.61 1320.71L1259.81 1325.48L1260.77 1328.49L1263.48 1330.08L1264.91 1329.68L1263.56 1331.03L1259.34 1332.06L1259.58 1336.42L1260.22 1343.32L1259.58 1352.13L1261.09 1353.87L1261.33 1356.73L1263.72 1358.15L1266.51 1362.43L1268.82 1363.7L1270.65 1366.55L1273.44 1369.8L1276.39 1368.77L1277.42 1370.2L1280.77 1371L1284.35 1375.68L1286.98 1376.23L1287.06 1378.05L1288.14 1379.13ZM1379.88 1102.01L1378.93 1100.27L1382.5 1096.7L1382.42 1098.21L1379.88 1102.01ZM1378.53 1108.6L1379.08 1107.41L1379.95 1109.16L1379 1110.35L1378.53 1108.6ZM1371.79 1107.49L1372.58 1106.7L1373.29 1107.57L1375.59 1108.92L1374.72 1112.89L1372.58 1110.91L1369.72 1110.75L1371.79 1107.49ZM1400.54 1191.79L1400.46 1189.03L1400.7 1186.27L1401.92 1184.26L1403.19 1184.18L1404.85 1181.7L1403.75 1185.33L1402.33 1187.82L1400.54 1191.79Z" fill="#CCCCCC" stroke="white" stroke-width="0.5" stroke-miterlimit="10"/>
<path fill-rule="evenodd" clip-rule="evenodd" d="M1008.18 1308.25L1031.83 1284.76L1032.14 1277.52L1033.22 1275.05L1033.37 1268.58L1034.91 1265.96L1033.68 1262.42L1034.3 1259.49L1037.22 1259.18L1038.61 1256.71L1042.77 1253.48L1045.54 1249.63L1044.47 1246.55L1042 1244.54V1240.87L1044.29 1239.44L1043.29 1236.15L1040 1233.29V1230.39L1042.55 1229.48L1043 1225.26V1221.63L1046.15 1219.37L1047.65 1216.2L1044.2 1216.81L1042.55 1214.85L1044.8 1211.22L1045.25 1204.88L1046.9 1201.86L1047.05 1199.3L1046.6 1196.73L1047.2 1193.71L1046.6 1190.7L1048.55 1187.53L1048.25 1183.9L1043.6 1183.6L1041.35 1180.88L1037.6 1177.87L1031.15 1177.11L1027.4 1176.66L1023.8 1171.68L1017.95 1168.51L1012.25 1167L1010.9 1169.11L1008.5 1169.57L1007.45 1167.45L1004.45 1166.85L997.1 1166.55L996.5 1156.89L994.84 1150.4L996.65 1147.22L1004.75 1143H1009.1L1030.25 1134.1L1034 1133.34L1046.4 1128.32L1052.56 1126.28L1058.3 1124.89L1059.65 1127.15L1060.4 1129.11L1062.2 1131.23L1062.5 1133.79L1065.95 1135.91L1067.6 1135H1070.11L1071.95 1133.02L1076.37 1132.87L1082.01 1134.24L1084 1137.6V1143.39L1083.54 1148.28L1079.12 1153.01L1078.05 1157.89L1075.3 1161.7L1075.76 1165.21L1077.59 1169.94L1078.05 1173.3L1081.71 1177.72L1085.22 1181.08L1087.96 1182.6L1090.41 1184.59L1093.15 1188.41L1091.78 1191L1092.85 1194.05L1096.97 1193.13L1097.88 1189.01L1096.36 1183.98L1098.49 1180.32L1099.1 1176.35L1101.24 1170.7L1105.51 1169.49L1108.41 1167.04L1109.79 1163.69L1109.94 1155.91L1107.8 1153.46L1108.26 1151.48L1107.19 1149.96L1107.95 1148.28L1110.24 1147.97L1111.16 1145.83L1113.9 1144.92L1113.75 1142.63L1112.38 1139.73L1110.55 1134.55L1105.67 1127.98L1104.29 1124.62L1097.12 1117.45L1094.99 1117L1093.46 1114.86L1090.41 1111.96L1083.69 1108.45L1080.18 1088.92L1085.37 1070H1105.8L1109.29 1069.03L1110.2 1067.52L1113.23 1066.91L1113.38 1068.73L1116.11 1069.49L1118.69 1071.31L1121.41 1071.61L1123.54 1073.88L1122.93 1075.7L1129.15 1073.88L1133.69 1070.7L1135.97 1070.09L1137.64 1068.73L1140.06 1069.79L1140.37 1071.15L1143.09 1071.31L1145.67 1072.97L1150.07 1071.31L1155.98 1070.85L1157.5 1067.67L1156.44 1065.24L1157.95 1063.87L1161.74 1065.09L1164.62 1064.48L1167.5 1066.61L1171.29 1066.15L1173.27 1064.48L1181.15 1062.06L1184.18 1063.27L1187.51 1062.21L1189.03 1060.39L1193.88 1059.78L1196.76 1056.75L1201.16 1056.15L1204.34 1053.57L1206.77 1050.23L1210.71 1051.3L1212.53 1049.17L1213.27 1048.84L1214.78 1049.77L1213.99 1054.7L1212.87 1057.25L1213.99 1058.2L1209.69 1064.41L1209.22 1066.63L1210.01 1068.23L1210.33 1069.5L1208.74 1071.09L1209.69 1078.57L1212.08 1083.02L1211 1084.3V1089.71L1211.99 1090.98L1212.15 1096.22L1209.93 1098.45L1210.72 1104L1209.22 1114.39L1208.34 1114.47L1210 1116.22V1125.66L1206.44 1126.13L1206.28 1127.33L1207.39 1128.83L1211.59 1128.99L1212.71 1129.86L1213.66 1138.04L1211.52 1141.13L1209.29 1142.24L1210.64 1144.13L1210.01 1146H1207.3L1204.28 1149.22L1205.08 1150.34L1206.03 1149.54L1208.74 1149.86L1206.83 1152.57L1206.35 1156.86L1203.65 1157.34L1199 1163.22V1165.77L1194.89 1171.5L1191.39 1171.98L1191.71 1175.95L1177.71 1183.59L1175.64 1183.76L1174.52 1186.78L1161.13 1193.89L1155.98 1193.26L1155.74 1194.37L1149.63 1197.22L1141.14 1202.78L1139.08 1201.43L1139 1204.05L1133.84 1210.31L1131.3 1211.43L1129.79 1208.1L1128.92 1213.57L1126.46 1214.2L1125.67 1217.38L1117.18 1222.37L1117.02 1224.52L1114.8 1226.42L1112.82 1227.06L1113.05 1229.99L1108.13 1230.15L1096.87 1237.7L1097.51 1242.47L1093.85 1245H1088.4L1086.31 1247.7L1082.26 1245.16L1080 1245.47V1247.23L1082.1 1249.62L1081.94 1252.96L1080.32 1255.02L1080.97 1258.21L1078.71 1261.55L1084.85 1269.66L1085.01 1272.53L1082.26 1274.75L1084.36 1275.71L1086.62 1279.37L1086.79 1284.3L1089.31 1288.93L1088.26 1302.09L1089.47 1306.7L1091 1306.46V1302.99L1093.69 1297.91L1094.01 1302.35L1095.04 1302.2L1094.8 1307.91L1093.05 1310.1L1092.73 1315.83L1093.69 1316.63L1092 1323.31V1326.81L1089.23 1329.19L1088.91 1333H1087.8L1088.6 1337.15L1091.78 1335.24L1092.5 1337.66L1089.88 1341.63L1088.61 1347.02L1080.92 1355.19L1067.27 1361.38L1048.79 1365.03L1041.72 1371.78L1036.33 1373.13L1034.74 1375.67L1032.04 1377.81L1030.54 1382.96L1028.39 1382.89L1026.41 1384.23L1027.28 1385.35L1029.35 1389.23L1029.11 1392.96L1031.01 1390.5L1034.03 1391.45L1034.98 1387.88L1036.33 1387.64L1036.48 1389.63L1035.6 1395.55L1033.54 1399.05L1033.42 1402.31L1029.24 1402.42L1021.94 1400.68L1019.97 1401.11L1019.51 1399.46L1020.5 1395.96L1020.88 1393.14L1021.56 1391.62L1019.57 1389.01L1017.4 1386.63L1015.2 1385.39L1014.84 1384.77L1014.99 1377.69L1015.3 1371.63L1017 1365.11V1348.72L1015.71 1343.93L1014.35 1339.9L1014.2 1335.86L1014 1334.65L1013.84 1325.48L1011.3 1320.23L1010.06 1314.66L1008.82 1308.79L1008.18 1308.25Z" fill="#CCCCCC" stroke="white" stroke-width="0.5" stroke-miterlimit="10"/>
<path fill-rule="evenodd" clip-rule="evenodd" d="M1015 1384.77L1015.36 1385.39L1017.57 1386.63L1019.73 1389.01L1021.73 1391.62L1021.04 1393.14L1020.66 1395.96L1019.67 1399.46L1020.13 1401.11L1018.69 1401.44L1016.18 1403.18L1016.56 1406.38L1015.49 1410.03L1012.23 1411.17L1004.1 1410.79L997.261 1406.95L994.841 1402.55L992.571 1400.43L991.351 1397.85L993.171 1392.85L998.321 1383.3L999.231 1379.21L1002.87 1377.39L1008.18 1380.42L1011.51 1383.3L1015 1384.82V1384.77Z" fill="#CCCCCC" stroke="white" stroke-width="0.5" stroke-miterlimit="10"/>
<path fill-rule="evenodd" clip-rule="evenodd" d="M692.65 1443.01L695.66 1441.23L700 1440.32V1437.22L698.59 1435.96L700.79 1432.03L706.13 1429.99L708.65 1434.55L712.89 1434.71L711 1439.42L714.14 1445.86L721.53 1447.43L726.24 1449.94L729.69 1449.16L732.05 1450.1L735.82 1450.73L737.55 1449H740.85L742.42 1451.98L745.56 1451.51L748.23 1452.14L748.39 1447.58L750.27 1445.69L752.94 1444.75L754.98 1440.5L760.8 1437.51L767.71 1437.98H766.28L769.17 1362.28L776.19 1367.4L778.32 1373.12L783.82 1384.86L783.67 1390.58L780.61 1397.28L780.46 1401.26L786.11 1400.51L791.76 1401.56L795.12 1400.05L800.16 1400.8L803.52 1398.54L807.95 1397.49L812.07 1394.33L813.6 1391.77L820.62 1389.06L824.43 1385L827.79 1376.72L833.44 1371.76L838.63 1371.16L845.8 1372.21L847.94 1374.92L850.38 1375.07L858.16 1379.44L861.52 1378.84L865.18 1380.04L869.61 1378.99H874.65L878.01 1378.54L879.69 1380.65L882.29 1381.7L887.02 1378.69L885.8 1377.03L887.02 1373.27V1370.71L889 1368.6L888.7 1363.03L890.53 1359.57L894.96 1358.82L897.86 1356.86L900.73 1356.49L902.03 1354.68L903.41 1353.7L904.48 1350.91L907.46 1348.5L909.75 1347.9L911.13 1346.16L914.03 1345.56L914.04 1341.68L912.98 1340.01L913.59 1334.84L919.22 1327.24L922.26 1325.87L924.39 1325.26L926.06 1323.28L929.1 1322.22L930.01 1320.24L932.59 1318.72L934.72 1316.59L939.28 1312.79L943.54 1312.03L944.91 1312.95L946.89 1312.49L950.38 1312.34L953.27 1309.6L956.31 1308.99L957.53 1305.71L957.07 1303.65L959.28 1301.75L962.94 1301.6L964.92 1300.07L974.59 1298.7L979.46 1299.54L980.91 1302.36L984.19 1302.13L988.68 1304.27L990.13 1305.64L993.18 1304.42L998.97 1303.58L1006.05 1305.03L1010.08 1308.39L1011.3 1314.18L1012.52 1319.67L1015.03 1324.86V1334.66L1014.23 1335.88L1014.38 1339.91L1015.74 1343.94L1017.03 1348.73V1365.12L1015.33 1371.64L1015.03 1377.7L1014.88 1384.83L1011.39 1383.31L1008.06 1380.43L1002.75 1377.4L999.11 1379.22L998.2 1383.31L993.04 1392.86L991.22 1397.86L992.43 1400.44L994.7 1402.56L997.13 1406.96L1003.97 1410.8L1012.1 1411.18L1015.36 1410.04L1016.42 1406.39L1016.04 1403.19L1018.55 1401.44L1021.97 1400.68L1029.26 1402.43L1033.44 1402.31L1033.4 1403.35L1030.85 1406.69L1032.12 1407.17L1029.57 1414.81L1028.93 1421.33L1025.79 1427.63L1023.73 1435.72L1020.71 1439.37L1019.76 1443.1L1013.97 1449.99H1012.43L1011.15 1451.81L1006.85 1453.79L1004.86 1456.25L999.76 1459.51L997.17 1464.51L993.02 1469.29V1471.36L990.62 1475.81L986.63 1475.97L983.43 1482.18L974.64 1496.83L967.89 1503.24L966.78 1509.11L962.88 1510.78L959.13 1515.23L956.98 1515.31L956.03 1516.98L933.96 1538.65L931.25 1539.12L931.33 1540.23L927.75 1544.2L913.25 1553.49L910.14 1556.9L905.04 1558.41V1559.76L896.95 1561.89L892.31 1564.73L887.56 1565.16L885.26 1563.42L878.8 1563.66L873.45 1565.28L871.19 1569.15L874.36 1571.79L874.08 1572.9L866.71 1573.06L862.39 1570.85L858.94 1570.49L855.97 1573.49L857.24 1576.13L855.89 1577.43L845.75 1575.26L842.87 1573.09L833.15 1570.63L826.78 1571.9L826.7 1573.41L823.36 1574.6L818.42 1571.98L806.85 1571.9L803.56 1573.4L802.54 1576.88L800.34 1575.85L797.76 1576.56L795.49 1578.46L794.23 1580.12L789.3 1580.44L786.08 1581.86L779.97 1579.64L774.8 1579.96L773.78 1581.46L768.76 1580.35L764.3 1585.5L760.54 1586.21L759.21 1589.22L757.02 1588.43L755.06 1589.39L744.72 1584.48L742.6 1585.75L742.36 1580.68L738.44 1578.62L735.46 1580.13L733.5 1579.26L735.23 1577.83L734.13 1573.48L729.27 1572.61L725.82 1575.69L726.06 1579.57L723.4 1577.59L723.16 1573.32L724.65 1569.76L723.71 1564.46L726.53 1559.79L722.85 1553.06L719.17 1549.74L716.04 1544.28V1538.9L718.23 1536.84L720.27 1538.98H722.15L724.58 1536.29L725.83 1529.8L723.56 1522.76L723.95 1519.6L717.97 1509.6L717.81 1505L711.99 1497.38L709.32 1485.16L704.92 1473.58L705.08 1467.71L700.68 1454.86L693.92 1449.94L692.82 1443.11L692.65 1443.01ZM916.83 1483.37L919.87 1485.95L922.07 1488.99L926.93 1490.97L930.73 1490.82L931.87 1488.69L933.31 1486.94L935.13 1481.84L938.78 1480.78L941.51 1478.95L945.16 1478.27L947.67 1479.03L951.47 1476.45L952.46 1473.1L950.79 1471.58L950.41 1469.07L954.21 1467.17L957.93 1463.9L957.7 1458.81L954.36 1450.67L949.8 1447.17L946.54 1448.08L943.5 1445.87L942.28 1446.78L940.23 1445.34L937.27 1445.19L936.51 1446.86L933.85 1448.46L932.03 1450.52L924.28 1451.81L919.57 1455.92L917.6 1461.4L912.06 1465.74L909.25 1467.72L911 1471.75L913.43 1474.19L913.96 1476.32L916.47 1479.21L916.83 1483.37Z" fill="#CCCCCC" stroke="white" stroke-width="0.5" stroke-miterlimit="10"/>
<path fill-rule="evenodd" clip-rule="evenodd" d="M916.83 1483.37L916.45 1479.18L913.94 1476.29L913.411 1474.16L910.98 1471.72L909.23 1467.69L912.051 1465.72L917.59 1461.38L919.561 1455.9L924.271 1451.8L932.021 1450.5L933.84 1448.45L936.5 1446.85L937.26 1445.18L940.22 1445.33L942.271 1446.77L943.49 1445.86L946.521 1448.07L949.791 1447.16L954.35 1450.66L957.69 1458.79L957.921 1463.89L954.2 1467.16L950.401 1469.06L950.781 1471.57L952.45 1473.1L951.46 1476.44L947.671 1479.03L945.161 1478.27L941.51 1478.95L938.781 1480.78L935.13 1481.84L933.311 1486.94L931.87 1488.69L930.73 1490.82L926.931 1490.97L922.07 1488.99L919.87 1485.95L916.83 1483.37Z" fill="#CCCCCC" stroke="white" stroke-width="0.5" stroke-miterlimit="10"/>
</svg>
