<svg width="1444" height="1591" viewBox="0 0 1444 1591" fill="none" xmlns="http://www.w3.org/2000/svg">
<path fill-rule="evenodd" clip-rule="evenodd" d="M1076.99 183.68L1074.25 176.53L1076.07 171.42L1071.46 160.46L1065.5 151.46L1063.31 143.67L1059.18 137.58L1056.86 136.53L1054.13 140.2L1048.4 142.43L1035.01 140.2L1024.5 143.07L1016.85 137.64L1015.89 141.25L1018.76 145.54L1018.6 148.25L1015.74 143.95L1011.44 141.57L1010.49 137.91L1012.55 136.95L1010.8 135.2L1007.3 135.68L1003 134.25L995.85 132.34L994.73 133.61L997.75 134.25L998.39 135.68L994.41 136.16L990.43 135.68L985.82 137.59L984.39 136.16L984.49 135.17L988.54 134.69L991.87 133.27L987.67 133.82L981.72 133.98L979.18 135.81L973.57 138.86L970.86 140.29L965.45 142.04L961 146.34L960.2 148.52H953.81L945.81 143.52L940.64 143.02L933.14 143.52L926.8 139.52H924.96L922.41 141.11L916.52 136.97L909.68 135.54L893.29 134.27L885.17 131.56L874.67 132.04L872.6 132.68L872.59 132.65L871.23 136.15L869.41 145.05L871.84 150.71V155.36L868.81 162.63L866.38 169.31L869.01 174.97L871.23 185.68L878.5 352.52L1128.36 350.62L1128.42 350.18L1124.83 348.75L1119.98 343.76L1118.73 341.14L1114.43 339.87L1111.77 334.32L1109.28 335.51L1105.37 335.35L1098.96 331.14L1095.75 320.19L1096.48 317.25L1096.2 312.04L1094.88 309.24L1095.31 307.35L1096.87 308.69L1102.97 309.08L1100.6 306.52L1098.62 306.17L1095.24 300.84L1093.88 299.8L1093.64 301.23L1091.3 298.37L1089.5 292.74L1081.26 280.48L1077.8 278.25L1076.87 272.37L1063.85 252.95L1064.01 248.49L1061.82 244.99L1061.03 236.88L1058.84 234.17V231.79L1051.79 223.99L1051.47 220.97L1052.25 217.63L1050.53 214.28L1038.46 203.94L1037.52 200.6L1029.84 191.37V186.71L1025.58 180.98L1026.06 178.11L1025.74 175.25L1026.69 173.82L1027.49 175.52H1029.56L1030.99 180.5L1032.9 182.72L1033.38 185.43L1040.84 192.28V196.41L1043.56 200.55L1049.13 203.1L1050.4 207.07L1060.43 217.74L1066 220.76L1066.63 222.03L1067.43 219.48L1070.29 216.78L1071.89 209.3L1069.98 207.39L1072.52 201.03L1073 196.57L1076.19 184.96L1076.99 183.68Z" fill="#CCCCCC" stroke="black" stroke-width="0.5" stroke-miterlimit="10"/>
<path d="M1166.84 437.52V434.63L1162.18 432.21L1157.84 432.05V427.94L1148.6 421.76L1145.09 420.96L1141.3 413.82L1138.44 404.8L1139.68 397.02L1138.56 388.78L1133.46 373.71L1132.91 369.87L1133.62 369.2L1135.28 371.21L1135.83 372.59L1136.85 372.54L1136.89 370.54L1132.86 365.71L1131.45 359.89L1130.58 358.71L1130.66 357.84L1129.86 356.89L1130.42 355.78L1129.31 354.2L1129.78 352.3L1130.04 350.52L878.23 352.42L880.03 393.57L859.84 395.5V403.11L859.76 403.23L861.24 486.11L858 487.32L854.15 489.74L850.51 487.52H845.64L841.84 490.55V495.81L844.04 498.64L841.64 503.49L834.84 512.59L832.64 512.38L829.04 516.02L829.24 519.06L831.64 521.48L829.44 525.93L825.24 528.55L824.44 531.38L828.24 533.61L828.64 537.85L826.44 541.29L819.84 548.36V553.73L822.58 556.48L827.48 552.95L829.84 553.53V556.4L827.39 558.03L830.25 560.07L828.62 562.73L830.66 566.4L830.86 571.91L831.68 575.99L839.63 578.03L841.67 581.3L839.84 584.36V587.05L839.36 588.04L841.84 590.59V593.32L840.72 594.84L845.19 598.59L846 600.72L851.58 608.23L855.23 616.44L856.75 619.59L865.94 618.6L872.62 614.85L879.31 616.1L885.15 611.94L884.32 605.69L887.24 603.6L898.51 602.35L902.27 603.19L902.69 606.94L908.11 613.19L911.87 619.44L919.39 622.35L928.57 619.02L943.6 619.85L946.53 624.85L961.14 625.27L962.39 622.35L968.65 616.52L977.84 616.94V609.44L986.61 605.27L998.72 611.52L1004.14 616.52H1012.27L1023.58 604.85L1028.18 597.35L1038.23 589.85L1036.14 586.52L1035.72 576.1L1029.86 570.69L1042.84 570.27V564.02L1054.15 564.44L1052.05 576.94L1054.15 594.85L1059.59 596.94L1069.22 609.44L1068.81 621.52L1081.2 622.49L1082.52 617.61L1085.95 612.26L1085.82 607.76L1084.36 605.32L1085.95 600.94L1090.46 595.46L1091.2 592.66L1093.03 592.42L1095.35 593.15L1099.5 577.45L1102.07 570.88L1108.05 566.62L1108.18 563.33L1113.3 554.93L1113.92 551.28L1117.94 550.43L1119.78 550.67L1122.1 543.98L1127.84 534.24V527.09L1130.2 520.64L1131.33 519.13L1130.28 518.69L1129.35 514.44L1126.76 505.61L1127.07 500.54L1129.35 498.11L1129.66 494.66L1133.07 489.49L1134.83 478.94L1137.32 472.44L1138.88 470.32L1137.74 468.49L1135.77 467.17L1137.84 462.3V458.04L1140.33 456.52H1145.4L1145.91 454.16L1144.99 452.11L1145.3 449.96L1149.49 449.04L1152.05 446.89L1156.8 447.35L1158.38 444.38L1161.96 443.71L1165.44 441.82L1168.25 437.52H1166.84Z" fill="#CCCCCC" stroke="black" stroke-width="0.5" stroke-miterlimit="10"/>
<path d="M1069.66 608.39L1059.87 595.62L1054.33 593.49L1052.2 575.19L1054.33 562.42L1042.84 561.99V570.27L1030.09 570.69L1035.85 576.1L1036.26 586.52L1038.31 589.85L1028.44 597.35L1023.92 604.85L1012.81 616.52H1003.76L998.41 611.52L986.48 605.27L977.84 609.44V617.9L968.7 617.49L962.47 623.28L961.22 626.18L946.69 625.76L943.78 620.8L928.83 619.97L919.69 623.28L912.21 620.38L908.47 614.18L903.07 607.97L902.66 604.24L898.92 603.42L887.7 604.66L884.8 606.73L885.63 612.93L879.81 617.07L873.16 615.83L866.52 619.56L857.37 620.53L856.37 624.96L854.95 626.88L853.54 630.91L853.74 637.25L856.67 639.77L862.02 639.87L863.53 637.86L869.9 638.06L871.91 639.67L870.4 642.49L871.01 646.32L874.64 649.14L879.39 651.15L882.92 651.36L886.15 653.27L887.26 656.09L891.4 658.11L894.93 658.41L896.65 660.62L895.74 663.65L893.01 665.86L892.51 667.57L890.89 669.39L895.03 673.02L898.66 674.02L900.28 673.22L903.71 674.93L905.23 674.73L912.09 678.65L913.71 681.28L914 687.33L916.07 689.54L920.41 690.85L921.52 692.46L921.32 696.49L923.19 698.51L930.2 700.27L933.44 702.79L932.83 704.8L933.59 711.2L935.91 712.91L939.8 715.33L941.41 717.75L941.39 718.6L942.06 718.85L942.74 722.17L945.01 724.82L947.36 725.5L949.78 728.07L954.03 731.62L958.19 733.21L960.54 732.52L962.13 729.88L964.7 728.52H969.7L972.42 728.67L973.03 729.81L974.77 729.88L979.16 728.67L980.98 726.41L983.25 723.69L987.94 723.91L989.61 724.97L992.19 730.26L994.53 732.98L995.67 734.79L1001.19 736.61L1003.39 738.65L1004.98 742.12L1006.27 743.78L1007.41 746.8L1007.86 749.15L1008.69 749.22L1013.88 749.09L1015.43 750.05L1015.79 749.25L1014.84 747.51L1015.04 744.5L1017.65 742.09L1021.68 743.69L1027.13 745.7L1030.35 744.7L1034.18 745.7L1034.58 748.91L1039.42 750.52H1041.84V747.13L1044.45 744.72L1047.06 745.32L1048.67 744.52H1052.09L1056.71 742.51L1064.14 742.11L1068.97 743.51L1073.59 741.3L1076 737.89L1081.02 734.61V734.59L1083.44 731.36L1085.05 730.7L1087.06 727.98L1090.94 724.2L1093 725.01L1098.19 717.13L1105.19 709.3L1103.85 701.97L1101.8 699.55L1100.84 691.81L1097.33 688.05L1095.64 684.79L1093.1 681.52H1089.75L1088.14 679.9L1088.26 678.16L1084.41 676.42L1080.2 668.96L1078.7 667.97L1077.96 664.98L1074.11 661.13L1072 658.52L1063.06 658.64L1059.22 657.27L1057.73 654.42L1061.08 649.69L1063.19 648.45L1063.44 643.73L1068.15 644.72L1072.25 643.73L1074.48 645.34L1077.09 645.84L1078.46 643.48L1081.31 641.24L1082.06 631.17L1081.56 622.71L1081.83 621.72L1069.23 620.73L1069.66 608.39Z" fill="#CCCCCC" stroke="black" stroke-width="0.5" stroke-miterlimit="10"/>
<path fill-rule="evenodd" clip-rule="evenodd" d="M1105.25 709.09L1103.9 701.71L1101.83 699.28L1100.86 691.49L1097.34 687.72L1095.64 684.43L1093.08 681.52H1089.07L1087.5 679.56L1087.62 677.86L1083.85 676.16L1079.72 668.85L1078.26 667.88L1077.53 664.95L1073.76 661.18L1071.7 658.52H1062.95L1059.18 657.41L1057.72 654.61L1061 649.98L1063.07 648.77L1063.31 644.15L1067.93 645.12L1071.94 644.15L1074.13 645.73L1076.68 646.21L1078.02 643.9L1080.81 641.71L1081.54 631.85L1081.05 623.58L1082.63 617.73L1086.04 612.38L1085.92 607.88L1084.46 605.44L1086.04 601.06L1090.53 595.58L1091.26 592.78L1093.08 592.54L1095.39 593.27L1099.53 577.57L1102.08 570.99L1108.03 566.73L1108.15 563.45L1113.26 555.05L1113.86 551.4L1117.87 550.55L1119.7 550.79L1122.01 544.1L1127.84 534.36V527.08L1130.15 520.64L1131.25 519.13L1134.06 520.32L1138.51 520.52L1140.03 517.99L1143.37 517.79L1149.03 505.83L1151.35 507.35L1152.57 509.48L1160.86 512.52H1164.8L1168.65 509.18L1172.69 508.67L1175.62 511.3L1177.14 509.68L1180.78 509.78L1187.45 515.15L1188.06 513.93L1191.5 513.23L1195.75 514.14L1199.49 517.58L1202.92 518.29L1210.31 524.87L1211.92 528.12L1217.99 529.03L1218.6 530.44L1222.64 530.85L1224.06 532.78L1229.01 536.02L1234.98 541.89L1238.82 542.7L1242.87 548.47L1243.37 552.52L1244.69 555.06L1247.72 555.15L1253.48 562.69L1249.44 563.87L1248.12 568.93L1246.3 572.68L1247.11 578.14L1245.09 581.89L1244.69 585.74L1241.35 590.5L1243.37 592.93L1251.26 592.63L1256.21 589.39L1261.88 588.37L1265.62 590.55L1264.3 592.83L1265.58 600.79L1269.21 612.11L1274.87 614.94L1274.06 621L1276.89 627.47L1284.57 629.08L1289.82 633.53L1351.65 652.52L1379.24 652.12L1313.26 717.54L1300.37 717.17L1287.27 717.68L1283.21 720.23L1279.55 720.53L1274.27 723.28L1272.54 727.55L1268.42 729.95L1262.89 733L1256.65 733.92L1249.89 737.22L1248.07 740.22L1247.31 740.46L1241.98 740.37L1234.06 741.69L1230.5 739.65L1227.96 735.08L1224.91 733.55L1215.06 734.87L1212.83 736.3L1209.58 736.09L1205.11 737.82L1203.08 740.57L1197.49 749.22L1193.33 749.52H1190.56L1186.81 748.21L1181.14 749.02L1176.58 746.52H1169.09L1165.75 745.88L1162.3 741.92L1157.14 738.37L1148.33 729.95L1144.38 727.52L1134.15 728.12L1128.89 726.81L1124.13 728.43L1120.08 727.62L1116.84 723.56V710.88L1113.19 710.38L1109.04 711.19L1106.81 707.33L1105.25 709.09Z" fill="#CCCCCC" stroke="black" stroke-width="0.5" stroke-miterlimit="10"/>
<path fill-rule="evenodd" clip-rule="evenodd" d="M1253.15 562.45L1247.42 554.95L1244.4 554.85L1243.09 552.33L1242.59 548.3L1238.57 542.55L1234.74 541.75L1228.81 535.9L1223.88 532.68L1222.46 530.76L1218.44 530.36L1217.84 528.95L1211.8 528.04L1210.19 524.81L1202.84 518.26L1199.42 517.56L1195.7 514.13L1191.47 513.23L1188.05 513.93L1187.45 515.14L1180.81 509.8L1177.19 509.7L1175.68 511.31L1172.76 508.69L1168.73 509.19L1164.91 512.52H1160.99L1152.73 509.5L1151.52 507.38L1149.21 505.87L1143.58 517.76L1140.26 517.96L1138.75 520.48L1134.32 520.28L1130.5 518.67L1129.59 514.43L1127.08 505.67L1127.37 500.63L1129.59 498.21L1129.89 494.78L1133.21 489.64L1134.92 479.16L1137.34 472.71L1138.85 470.59L1137.74 468.78L1135.83 467.47L1137.84 462.63V458.06L1140.27 456.52H1145.83L1146.33 454.16L1145.42 452.11L1145.73 449.96L1149.87 449.04L1152.4 446.89L1157.1 447.35L1158.66 444.38L1162.2 443.71L1165.64 441.82L1168.42 437.52H1168.61L1173.54 442.83L1182.28 466.15L1185.14 481.43L1186.73 481.91L1187.84 487.54V490.31L1190.64 491.24L1192.35 495.6L1193.44 501.97L1197.02 502.91L1196.7 497.15L1195.77 497.31L1196.08 493.11L1197.64 492.49L1201.37 497.77L1199.97 499.33L1203.41 504.51L1205.82 506.92L1207.83 505.52L1210.86 505.13L1212.18 505.91L1214.81 504.98L1218.61 509.25L1220.55 511.65L1226.29 512.97L1227.53 515.14L1234.51 522.89L1237.46 528.09L1241.72 529.88L1244.67 533.52H1246.38L1246.53 532.28L1247.93 534.22L1251.34 542.75L1253.9 543.45L1256.85 547.25L1256.07 548.49L1257.93 552.52H1261.06L1263.34 553.7L1265 552.21L1265.71 553.39L1266.81 553.91L1263.02 558.18L1259.5 559.18L1257.79 561.1L1253.15 562.45Z" fill="#CCCCCC" stroke="black" stroke-width="0.5" stroke-miterlimit="10"/>
<path fill-rule="evenodd" clip-rule="evenodd" d="M1265.8 590.95L1262.01 588.75L1256.27 589.77L1251.26 593.05L1243.28 593.36L1241.23 590.9L1244.61 586.08L1245.02 582.19L1247.06 578.39L1246.25 572.86L1248.09 569.07L1249.42 563.95L1258.22 561.38L1259.96 559.43L1263.54 558.41L1267.4 554.07L1267.48 554.11L1267.4 555.71L1272.29 560.52H1273.49L1272.85 562.51L1273.57 569.02L1271.42 569.89L1267.53 574.26L1264.59 574.34L1262.45 577.52H1257.59L1260.12 580.65L1261.68 581L1265.25 579.52L1270.53 579.44L1271.25 580.95L1266.3 590.08L1265.8 590.95Z" fill="#CCCCCC" stroke="black" stroke-width="0.5" stroke-miterlimit="10"/>
<path fill-rule="evenodd" clip-rule="evenodd" d="M1247.52 740.52L1248.27 740.28L1250.09 737.29L1256.82 734L1263.04 733.09L1268.55 730.05L1272.65 727.65L1274.37 723.4L1279.63 720.66L1283.27 720.36L1287.32 717.83L1300.37 717.32L1313.2 717.68L1378.92 652.52L1351.68 652.92L1290.21 634.04L1284.99 629.62L1277.36 628.01L1274.55 621.59L1275.35 615.56L1269.72 612.75L1266.11 601.5L1264.84 593.58L1266.65 590.46L1271.52 581.49L1272.78 584.11L1274.11 584.34L1286.79 598.28L1288.29 601.43L1290.34 601.98L1295.54 606.71L1300.65 607.97L1306.72 607.18L1308.61 604.9L1314.04 601.59L1317.43 601.51L1324.44 595.92L1326.49 595.84L1327.75 597.02L1333.42 596.79L1335.38 596.08L1339.56 598.05L1345.62 597.34L1358.3 589.46L1362.4 588.67L1366.5 590.48L1369.64 589.46L1375.29 589.72L1381.12 586.81L1387.7 586.35L1389.7 587.52H1392.33L1402.57 584.99L1406.46 581.89L1412.65 581.02L1414.39 582.61L1415.02 580.86L1421.48 580.09L1425.23 576.38L1425.94 576.94L1427.56 573.9L1427.05 573.38L1429.61 570.86L1431.38 571.1L1431.15 570.15L1433.67 571.93L1439.08 573.78L1441.48 573.59L1442.43 574.17L1440.26 577.41L1438.92 580.76L1438.68 584.16L1437.46 586.25L1438.49 588.1L1441.21 588.18L1441.41 589.44L1439.19 591.3L1437.3 595.68L1439.19 598.24L1439.86 601.79L1438.33 605.1L1441.17 604.71L1440.81 603.68L1442.16 604.04L1443.37 606.56L1442.03 607.28L1441.6 606.52H1438.92L1437.08 606.96L1433.99 612.2L1435.65 614.98L1434.86 619.98L1433.52 622.2L1433.83 627.67L1426.58 637.83L1421.61 648.3L1418.6 652.03L1416.93 651.71L1412.25 656.79L1411.94 659.16L1414.01 662.18L1411.3 664.56L1399.37 687.32L1398.89 694.01L1391.25 704.66L1390.94 708.17L1376.61 727.58L1375.18 732.03L1368.82 738.56L1357.68 752.08L1334.29 772.77L1324.26 781.36L1317.26 782.64L1311.37 786.77L1303.89 792.5L1289.57 807.62L1286.39 808.57L1274.62 821.62L1272.54 822.42L1270.8 825.6L1266.5 826.87L1262.04 831.17L1260.13 835.63L1242.78 854.83L1242.54 855.82L1227.84 842.33L1228.25 759.06L1247.77 740.52H1247.52Z" fill="#CCCCCC" stroke="black" stroke-width="0.5" stroke-miterlimit="10"/>
<path fill-rule="evenodd" clip-rule="evenodd" d="M1081.71 734.35L1084.05 731.23L1085.61 730.6L1087.56 727.97L1091.31 724.31L1093.31 725.09L1098.33 717.47L1106.61 708.21L1108.75 711.91L1112.74 711.13L1115.85 711.62V723.57L1120.09 727.63L1124.14 728.44L1128.9 726.82L1134.17 728.14L1144.4 727.53L1148.35 729.97L1157.16 738.39L1162.32 741.94L1165.77 745.9L1169.11 746.54H1176.6L1181.16 749.04L1186.83 748.23L1190.58 749.54H1193.62L1197.77 749.24L1203.34 740.62L1205.37 737.88L1209.83 736.15L1213.07 736.36L1215.3 734.94L1225.12 733.62L1228.16 735.14L1230.69 739.71L1234.24 741.74L1242.14 740.42L1247.71 740.52L1227.84 759.06L1227.43 842.15L1242.47 855.63L1242.15 856.94L1235.14 865.35L1233.45 865.9L1230.95 868.6L1232.24 870.66L1224.91 873.2L1221.04 878.51H1214.76L1212.1 879.38L1211.7 880.89L1208.64 884.38L1208.48 886.92L1209.85 887.95L1206.31 893.34L1202.85 897.55V902.31L1199.71 908.97L1191.98 920.08L1187.47 921.9L1185.61 921.84L1159.07 903.39L1157.22 901.17L1156.4 898.54L1157.43 896.52L1153.12 889.45L1074.74 844.38L1068.73 844.7L1074.33 824.17L1075.15 818.31L1079.25 814.47L1081.71 809.62L1085.2 806.38L1086.84 802.54L1089.1 800.32L1088.9 798.5H1099.02L1100.86 793.45V790.42L1105.76 784.76L1106.37 780.31L1104.94 775.87L1101.88 773.24L1103.72 770.62L1101.27 768.8L1098.42 767.59L1095.77 761.12L1090.87 756.47V751.52L1089.51 747.05L1086.79 746.46L1087.18 742.96L1085.24 741.79L1083.88 736.54L1081.94 734.2L1081.74 734.33L1081.71 734.35ZM1026.23 846.52L1034.2 846.49L1042.35 846.05L1026.75 846.47L1026.23 846.52Z" fill="#CCCCCC" stroke="black" stroke-width="0.5" stroke-miterlimit="10"/>
<path fill-rule="evenodd" clip-rule="evenodd" d="M1077.15 824.56L1077.97 818.61L1082.07 814.72L1084.53 809.8L1088.01 806.52L1089.65 802.62L1091.91 800.37L1091.7 798.52H1099L1100.84 793.48V790.46L1105.74 784.82L1106.35 780.38L1104.92 775.95L1101.86 773.33L1103.7 770.72L1101.25 768.9L1098.39 767.69L1095.74 761.24L1090.84 756.61V752.38L1089.41 747.74L1086.55 747.14L1086.96 743.51L1084.92 742.3L1083.49 736.86L1081.45 734.44L1076.15 737.87L1073.7 741.29L1069.01 743.51L1064.11 742.1L1056.56 742.5L1051.86 744.52H1048.78L1047.15 745.32L1044.49 744.72L1041.84 747.12V750.52H1039.39L1034.48 748.92L1034.07 745.72L1030.19 744.72L1026.92 745.72L1021.41 743.72L1017.32 742.12L1014.67 744.52L1014.46 747.52L1015.43 749.25L1015.06 750.05L1013.99 753.89L1011.84 756.68V764.39L1010.64 771.51L1010.19 776.76L1012.52 778.41L1014.54 781.11L1016.11 784.56L1015.73 786.88L1005.08 801.04L998.51 808.37L996.71 811.51L988.641 826L987.151 828.54L987 833.93L986.401 841.55L983.71 849.02L984.31 853.8L983.271 854.75L984.38 855.22L987.771 854.52L991.17 851.82L993.46 852.92L995.16 854.52H998.151L999.651 853.12L999.75 850.22L1003.14 849.62L1003.75 850.54L1004.94 848.92L1006.84 849.32L1008.63 847.52L1025.77 847.45L1026.29 847.4L1042.11 846.97L1071.55 845.39L1077.15 824.56Z" fill="#CCCCCC" stroke="black" stroke-width="0.5" stroke-miterlimit="10"/>
<path fill-rule="evenodd" clip-rule="evenodd" d="M839.6 587.87L841.84 590.42V593.43L840.48 594.95L844.94 598.71L845.75 600.83L851.31 608.34L854.96 616.56L856.48 619.7L855.47 624.16L854.05 626.09L852.63 630.15L852.83 636.54L855.77 639.07L861.14 639.18L862.66 637.15L869.04 637.35L871.06 638.97L869.54 641.81L870.15 645.66L873.8 648.51L878.56 650.54L882.1 650.74L885.34 652.66L886.46 655.51L890.61 657.53L894.15 657.84L895.87 660.07L894.96 663.11L892.23 665.34L891.72 667.07L890.1 668.89L894.25 672.55L897.9 673.56L899.52 672.75L902.96 674.47L904.48 674.27L911.37 678.22L912.99 680.86L913.28 686.96L915.36 689.19L919.71 690.51L920.83 692.13L920.62 696.19L922.5 698.21L929.53 699.99L932.77 702.52L932.17 704.55L932.93 710.99L935.26 712.72L939.16 715.15L940.78 717.59L940.75 718.45L939.99 718.16L936.11 715.88L931.33 715.43L924.8 718.39L923.58 717.52H915.68L912.72 715.65L909.61 715.12L907.55 713.98L905.12 714.21L900.64 713.52L898.67 711.62L895.48 711.85L895.25 713.45L896.16 714.89L893.43 718.93L891 719L888.11 719.61L883.02 719.84L880.44 721.66L878.62 721.59L877.71 719.15L876.19 718.85L875.73 717.33L872.92 717.1L864.19 720.9L860.92 722.2L859.33 724.17L850.29 725.24L847.55 726.38L845.2 723.79L841.25 722.96L837 722.88L834.03 726.68L830.7 730.11L831.07 732.46L833.27 734.29L832.51 735.96L827.58 737.03L825.6 735.89L820.59 734.9L816.8 733.46L814.06 733.38L811.4 734.59L808.52 734.06L803.35 733.76L799.1 731.33L794.4 731.63L793.19 730.42L787.58 725.72L784.4 724.51L778.33 719.35L775.91 719.05L772.72 716.52H770.96L770.3 718.68L766.3 718.19L762.96 721.52H761.17L759.51 722.87L759 725.71L756.84 728.11V730.36L755.01 731.85L751.84 732V734.4L755.5 738.74L754 740.54L752.84 743.53L752.59 746.9L749.86 747.53L747.63 748.33L743.4 746.22L741.84 744.52H740.94H737.46L735.21 746.05L731.82 745.75L722.71 749.42L720.96 751.66L717.28 752.48L711.95 757.58L702.43 773.35L701.91 772.89L700.99 771.46L701.09 768.09L700.48 763.81L693.71 758.6L691.15 756.15L687.98 749.93L682.75 742.28L681.42 737.79L678.04 733.6L671.89 730.65L669.84 729.11V720.54L669.33 715.85L667.59 710.34L668.51 705.14L666.77 699.53L666.15 695.04L668.1 692.18L670.46 691.27L674.66 685.45L677.01 680.25L680.91 673L682.85 668.72L685.93 667.49L689.82 662.09L689.77 660.73L692.07 663.25L692.89 667.52H696.98L700.46 666.71L706.18 666.5L708.84 661.62V657.72L711.24 655.32L713.44 657.32L714.84 662.12L716.64 663.92L720.44 663.32L725.84 659.32L731.64 656.92L736.84 653.32L749.24 650.52H754.64L757.44 647.32L763.44 643.32L762.64 640.52H760.67L757.23 636.07L757.64 632.62L760.47 630.8L763.71 631.61L768.57 631.01L772.01 632.42L777.47 633.23L783.34 632.42L791.24 631.41L795.29 628.38L798.73 626.55L799.74 623.52L799.13 620.48L799.94 616.84L802.98 614.81L802.78 611.57L805.82 608.13L807.43 609.15L809.66 608.94L813.51 602.87L815.94 601.86L815.74 599.02L816.54 596.19L821.81 593.15L825.65 590.52H830.71L833.34 592.14L838.81 589.71L839.6 587.87Z" fill="#CCCCCC" stroke="black" stroke-width="0.5" stroke-miterlimit="10"/>
<path fill-rule="evenodd" clip-rule="evenodd" d="M859.84 403.73V395.86L880.38 393.93L871.32 185.81L869.09 175.1L866.46 169.44L868.89 162.77L871.84 155.49V150.84L869.5 145.19L871.32 136.29L872.67 132.79L870.77 126.93L867.75 123.59L863.93 122.95L860.11 123.59L845.95 121.84L843.08 119.29L837.52 118.81L830.03 116.74L828.44 114.35L830.03 113.72L829.87 111.17L820.96 106.52H816.35L809.03 104.33L807.28 103.38L805.05 105.28L800.6 103.52H799.08L792.55 106.87L782.19 107.82L773.27 112.13L768.17 117.07L766.89 122.8L764.18 124.87L763.55 135.71L767.37 141.61L769.92 150.06L768.17 154.84L762.68 160.39L761.96 162.38L754.81 168.42L750.44 170.09L741.22 166.43L733.12 159.76L726.76 154.59L717.01 149.58L701.39 143.04L694.54 142.24L692.31 143.52H682.95L676.06 140.08L669.64 127.71L669.8 121.3L664.64 114.41L651.33 112.53L644.29 107.99L632.87 107.68L626.45 105.18L611.9 107.84L601.72 105.65L597.81 101.89L593.05 100.96L592.36 102.73L593.75 110.68L595.34 112.27L590.77 119.23L578.84 126.79V129.57L575.07 134.34L570.29 134.14L567.31 136.33L567.11 138.52L566.32 141.3L568.35 147.81L568.85 152.8L567.66 154.1L567.81 155.89L566.56 157.54L564.27 161.43L561.09 163.42L559.84 164.52H556.52L556.53 164.4L554.84 166.12V173.22L556.83 174.64L558.84 179.72V193.75L559.45 201.36L559.14 203.59L560.06 214.34L562.69 220.52L560.66 232.09L559.96 234.01L561.98 239.08L562.79 246.39L560.77 249.33L556 252.78L554.38 255.21L552.76 256.43L555.8 259.88L560.77 266.27L564.72 274.58L566.04 275.7L567.35 281.08L566.54 283.71L567.05 289.59L569.59 292.54L570.5 296.29L572.73 298.52H581.24L589.04 299.13L592.69 301.56L595.53 306.13L599.69 314.75L601.92 316.78L604.41 319.93L607.04 322.4L643.96 331.59L647.41 335.23L690.04 317.54L859.76 403.74V403.86L859.84 403.73Z" fill="#CCCCCC" stroke="black" stroke-width="0.5" stroke-miterlimit="10"/>
<path fill-rule="evenodd" clip-rule="evenodd" d="M556.8 164.52H559.1L560.37 163.23L563.61 161.2L565.94 157.24L567.21 155.56L567.06 153.74L568.27 152.42L567.76 147.35L565.69 140.72L566.5 137.89L566.7 135.66L569.73 133.44L574.58 133.64L577.84 128.79V125.96L590.55 118.28L595.2 111.2L593.58 109.58L592.16 101.49L592.87 99.69L590.38 99.2L584.18 95.38L583.54 93.15L583.38 90.13L580.2 88.38L578.93 89.33L579.25 90.92L577.66 92.19L574.79 90.92L573.84 87.74L570.82 88.37L564.14 83.75L560.8 77.7L562.86 71.49L573.37 64.17L579.42 58.12L581.01 56.21L579.26 53.82L581.49 51.44L580.69 48.41L579.1 47.29L579.26 40.45L573.05 38.06L567.96 31.22L568.91 25.65L574 22.15L574.31 18.33L578.83 12.13V8.16L576.91 6.73L569.4 13.57L566.84 16.27L564.76 15L561.56 7.84L559.48 7.05L559.96 3.39L557.24 1L552.61 1.95L552.45 4.64999L550.21 1.63L544.61 2.74L536.94 6.56L531.5 11.33L531.49 11.32L530.81 14.28L531.62 16.72L530.81 23.11L530.91 29.8L527.15 39.44L528.47 45.12L531.21 48.27L531.52 49.59L529.79 51.21L527.96 54.25L530.81 57.09L528.78 59.32L527.46 66.73L525.12 68.46L523.19 71.1L520.04 72.01L515.26 77.69L512.76 87.83L514.18 88.74L516.72 94.21L515.8 96.65L518.44 100.61L520.58 101.32L526.58 106.5L528.1 111.67L532.99 113.7L535.02 115.83L538.37 116.64L543.66 122.42L556.8 164.52ZM575.11 85.11L575.75 83.52H579.57L581.16 85.43L578.45 87.66L575.11 85.11Z" fill="#CCCCCC" stroke="black" stroke-width="0.5" stroke-miterlimit="10"/>
<path fill-rule="evenodd" clip-rule="evenodd" d="M607.63 322.16L605 319.7L602.5 316.54L600.28 314.51L596.12 305.89L593.29 301.32L589.64 298.89L581.85 298.52H573.34L571.11 296.05L570.2 292.3L567.67 289.36L567.16 283.47L567.97 280.84L566.66 275.46L565.34 274.34L561.39 266.03L556.43 259.64L553.39 256.19L555.01 254.97L556.63 252.54L561.39 249.09L563.42 246.15L562.61 238.85L560.58 233.77L561.29 231.85L563.31 220.29L560.68 214.1L559.77 203.35L560.07 201.12L559.84 193.51V179.72L556.83 174.64L554.84 173.22V166.12L556.53 164.4L543.46 122.31L538.2 116.53L534.86 115.71L532.83 113.59L527.97 111.56L526.45 106.39L520.48 101.21L518.35 100.5L515.72 96.5501L516.63 94.1101L514.1 88.6401L512.68 87.7201L515.17 77.5801L519.93 71.9001L523.07 70.9901L525 68.3501L527.32 66.6301L528.64 59.2201L530.67 56.9901L527.83 54.1501L529.65 51.1101L531.37 49.4801L531.07 48.1701L528.34 45.0201L527.02 39.3401L530.84 29.7101V23.0101L531.48 16.6201L530.67 14.1901L531.34 11.2301L530.24 9.97005L524.35 11.0801L521.17 10.4501L512.26 12.9901L507.64 9.01006L501.91 6.94006L501.75 9.17006L498.09 12.6701L490.93 11.8801L490.46 8.54005L487.43 6.31006L482.5 7.42006L482.18 10.2901L477.89 11.0801L475.98 14.2601L473.27 13.5201H469.93L465.63 16.5201H461.57L458.74 12.0301L452.76 11.7001L450.1 10.8601L444.28 11.8601L439.62 11.2001L437.46 11.7001L433.47 10.3601L430.64 11.0301L428.48 15.5201H426.57L422.5 13.8901L416.97 19.2601L413.71 19.1001L408.67 16.3301L404.11 17.9601L395.81 18.2901L391.09 17.6301L380.67 25.6101L374.63 26.4601L371.63 26.5401L366.52 29.7001L366.28 33.0301L363.59 36.5201H361.24L359.86 35.2201L356.78 35.3001L354.51 36.9301L353.29 38.6301L347.2 39.0401L342.09 41.6301L339.41 44.0701L338.68 46.6701L334.54 51.1301L327.97 53.2401L322.19 53.5001L323.62 55.7401L324.76 58.3301L327.25 61.4501L327.76 65.3901L328.49 66.9501L328.84 73.8901L328.74 80.5901L329.55 83.9501L331.28 99.5401L334.33 105.75L335.35 109.93L338.6 110.85L340.74 112.78L343.08 112.89L344.91 114.31L342.57 120.12L342.98 121.44L340.13 125.52H315.21L310.16 126.56L305.09 134.68L300.62 138.54L298.59 143.41L298.79 150.11L296.97 154.17L282.34 164.33L259.81 177.32L242.58 187.46L234.24 189.3L226.2 189.5L222.54 190.52H216.98L205.84 192.5L199.67 196.76L195.62 202.13L185.89 209.03L185.57 226.96L185.5 227.06L185.38 232.93L185.46 233.09L185.47 232.91L261.79 284.14L261.74 284.23L399.57 375.58L402 385.69L406.45 389.74L414.13 389.34L420.21 391.36L423.99 396.04L429.04 397.45L433.09 401.09L432.88 404.32L430.86 410.79L432.28 414.02L437.33 415.84L447.03 414.63L454.85 412.15L454.91 412.21L487.05 404.53L513.13 380.67L607.59 322.15L607.63 322.16Z" fill="#CCCCCC" stroke="black" stroke-width="0.5" stroke-miterlimit="10"/>
<path fill-rule="evenodd" clip-rule="evenodd" d="M185.91 227.56L186.24 209.46L195.99 202.5L200.06 197.07L206.26 192.78L217.43 190.52H224.35L227.96 189.5L235.87 189.3L244.07 187.46L261.02 177.32L283.19 164.33L297.58 154.17L299.38 150.11L299.18 143.41L301.17 138.54L305.57 134.68L310.56 126.56L315.53 125.52H340.05L342.85 121.44L342.45 120.12L344.75 114.31L342.95 112.89L340.65 112.78L338.55 110.85L335.35 109.93L334.35 105.75L331.34 99.5402L329.64 83.9502L328.84 80.5902L328.94 72.3402L328.6 65.5102L327.9 63.9802L327.4 60.1102L325 57.0502L323.9 54.5102L322.52 52.3102L319.55 52.4502L307.79 51.4902L305.2 48.7802L304.05 44.7702L302.58 44.2802L302.46 44.3202L298.77 48.3902L292.11 49.7402L285.44 47.9102L281.99 47.6702L277.6 49.9802L271.33 50.9402L266.78 49.9802L261.05 43.7602L258.78 42.0102L257.84 38.6602V35.5102L258.64 34.3002L257.36 32.7002L253.3 34.1502L251.52 35.7702L248.17 35.4502L244.18 39.9502L243.29 51.4702L238.76 57.4802L237.8 66.2102L235.01 71.7402L225.38 80.7102L223.15 80.8702L218.53 84.1502L210.73 86.7902L204.92 93.0402L202.69 93.1202L194.32 98.7302L189.15 100.41L186.2 104.98L176.57 111.94L179.91 119.31L179.34 124.44L170.88 132.15L165.45 143.4L165.13 148.05L168.64 155.12L165.93 162.99L167.68 164.76L170.08 167.81L168.64 173.92L155.39 189.02L153.95 194.96L147.88 201.55L141.17 202.19L126.48 215.52L105.88 219.38L100.8 226.52L185.84 227.57V227.66L185.91 227.56Z" fill="#CCCCCC" stroke="black" stroke-width="0.5" stroke-miterlimit="10"/>
<path fill-rule="evenodd" clip-rule="evenodd" d="M184.02 232.49L184.14 226.52L100.85 225.48L92.8401 236.87V244.99L89.0101 245.15L74.3401 252.81L72.9001 256.96L67.1602 260.3L68.9202 265.73L56.0001 284.55L55.2001 290.61L45.3101 299.86L42.2802 301.45L37.0201 312.94L37.4902 316.13L29.0402 327.29L28.7202 329.36L31.2802 331.28L27.6102 332.72L20.9102 344.99L18.3502 345.63L15.3301 348.82L15.6401 354.09L13.4102 358.55L13.8401 365.52L98.2902 364.74L97.4802 326.2L100.16 320.48L104.73 317.23L109.9 316.52H116.84L117.75 260.98L183.31 262.19L184.1 232.65L184.02 232.49Z" fill="#CCCCCC" stroke="black" stroke-width="0.5" stroke-miterlimit="10"/>
<path fill-rule="evenodd" clip-rule="evenodd" d="M13.74 365.52L97.8199 364.74L97.0099 326.2L99.6899 320.48L104.25 317.23L109.43 316.52H116.84L117.76 261.85L184.39 263.06L185.2 233.38L261.43 284.55L261.38 284.64L261.2 284.52L235.73 284.93L251.9 470.48L258.37 474.52L251.5 493.52L177.49 493.85L175.25 492.82L172.8 489.52H170.14L166.47 493.85L164.02 491.17L163.82 484.99L158.92 483.13L148.1 487.87L143 497.97L140.76 496.52L137.08 489.52L136.47 484.16L131.37 483.96L124.84 486.22V494.26L125.04 497.14L122.8 503.12L116.27 503.53L111.21 507.48L111.17 507.44L110.15 504.15L104.43 500.64L100.76 499.2L99.54 494.67L94.84 493.85V488.72L90.49 484.92L89.7 479.72L87.92 478.12L84.5599 478.52L83.17 477.52L79.61 478.92L76.84 477.72V475.72L72.49 469.92L67.15 468.72L57.45 465.52H53.89L43.21 469.72L32.1299 471.52L27.98 475.52H23.7599L20.17 478.27L21.33 469.68L24.67 456.62L29.77 449.45L31.2 434.33L27.0599 412.51L21.0099 403.27L23.4 401.52H26.3099L27.7599 394.3L26.15 389.81L28.8799 387.07L22.78 377.93L20.21 380.01L18.45 379.05L16.68 373.92L12.03 379.21L11.71 371.03L13.8 366.37L13.74 365.52Z" fill="#CCCCCC" stroke="black" stroke-width="0.5" stroke-miterlimit="10"/>
<path fill-rule="evenodd" clip-rule="evenodd" d="M110.98 506.91L116.12 503.03L122.76 502.63L125.05 496.76L124.84 493.93V486.47L130.94 484.37L135.7 484.56L136.27 489.52L139.7 496L141.8 497.33L146.56 488L156.66 483.61L161.23 485.33L161.42 491.04L163.71 493.52L167.14 489.52H169.61L171.9 492.57L174 493.52L251.84 493.2L258.72 474.19L252.25 470.15L236.07 284.52H261.56L399.57 375.58L402 385.69L406.45 389.74L414.13 389.34L420.21 391.36L423.99 396.04L429.04 397.45L433.09 401.09L432.88 404.32L430.86 410.79L432.28 414.02L437.33 415.84L447.03 414.63L454.85 412.15L454.91 412.21L453.901 452.83L452.49 471.84L449.06 473.86L448.45 481.13L447.03 485.78L436.521 491.65L430.26 494.88L423.99 495.28L417.93 499.52H413.68H404.58L399.13 501.95L394.28 501.55L379.72 502.97L374.87 501.75L374.26 502.97L372.63 501.34L368.88 501.03L362.94 499.12L357.69 499.73L347.58 501.35L341.11 504.99L335.86 509.43L319.69 518.33L308.16 526.01L306.35 530.25L295.43 533.49L293 532.88L286.74 533.08L285.93 535.91L283.1 536.92L278.25 545.21L278.05 548.24L273.6 554.31L267.54 565.43L262.28 569.47L258.44 572.5L259.85 576.34L260.46 582.4L256.42 583.21L256.22 587.46L258.03 590.69L256.81 595.77L254.2 597.56L250.36 603.43L243.68 601.41L242.07 598.98L243.28 597.56L237.62 596.75L230.75 598.17L230.54 599.99L228.73 601.61L220.24 601L215.18 598.57L212.55 598.78L206.42 602.24L206.29 599.38L204.271 597.16L198.84 596.96V594.53L197.84 591.91V587.86L194.56 588.07L192.34 590.9L188.7 591.3L190.72 585.84L194.84 580.58V578.16L189.92 576.95L187.49 575.33L188.91 569.47L186.68 565.02L182.03 561.18L181.63 558.96L177.79 560.17L175.97 561.79L170.31 559.36L166.27 559.56L162.22 565.43L159.39 565.63L155.15 568.52H150.58L145.8 565.29L142.89 564.07L138.12 566.1L135.63 564.88L135.61 564.69L136.67 562.05L136.88 558.41L131.27 555.38L131.07 552.15L132.31 549.72L132.52 547.3L129.61 544.06L128.57 541.23L126.08 539.21L123.8 539.62L121.1 537.39L118.82 532.14L113.63 527.28L113.01 524.66L115.29 516.17L113.84 513.13V509.29L110.98 506.91Z" fill="#CCCCCC" stroke="black" stroke-width="0.5" stroke-miterlimit="10"/>
<path fill-rule="evenodd" clip-rule="evenodd" d="M256.81 595.77L258.03 590.69L256.22 587.46L256.42 583.21L260.46 582.4L259.85 576.34L258.44 572.5L262.28 569.47L267.54 565.43L273.6 554.31L278.05 548.24L278.25 545.21L283.1 536.92L285.93 535.91L286.74 533.08L293 532.88L295.43 533.49L306.35 530.25L308.16 526.01L319.69 518.33L335.86 509.43L341.11 504.99L347.58 501.35L357.69 499.73L362.94 499.12L368.88 501.03L372.63 501.34L374.26 502.97L373.45 504.58L372.65 510.44L369.84 514.69V520.75L390.03 534.09L390.43 542.58L397.71 548.24L406.81 543.39L409.03 544.6L409.64 547.23L411.25 548.85L411.66 552.89L409.23 556.13L413.88 562.19L414.84 562.04V565.43L410.65 570.88L407.01 571.09L400.34 574.52L398.12 573.51L393.87 575.53L394.28 579.37L390.84 581.8L391.65 586.24L386.19 587.46L385.34 589.41L363.52 583.9L361.9 584.2L361.91 584.24L360.32 583.82L355.46 586.04L350.62 586.24L342.73 587.52H331.82L330 588.52H314.64L307.27 588.93L306.66 593.63L308.09 600.38L310.34 602.22L312.8 608.15L312.96 614.53L308.36 613.76L305.28 611.6L302.51 611.5L298.48 614.29L293.36 615.31L286.61 611.84L284.37 608.57L279.86 606.52H276.83L274.41 604.52H271.38L263.49 600.19L257.43 595.34L256.81 595.77Z" fill="#CCCCCC" stroke="black" stroke-width="0.5" stroke-miterlimit="10"/>
<path fill-rule="evenodd" clip-rule="evenodd" d="M20.64 478.28L24.2401 475.52H27.98L32.13 471.52L43.21 469.72L53.89 465.52H57.45L67.15 468.72L72.4901 469.92L76.84 475.72V477.72L79.61 478.92L83.17 477.52L84.56 478.52L87.92 478.12L89.7 479.72L90.4901 484.92L94.84 488.72V493.67L99.4901 494.48L100.7 498.92L104.34 500.34L110 503.77L111.01 507.01L113.84 509.43V513.52L115.26 516.55L113.03 525.04L113.64 527.67L118.7 532.52L120.93 537.77L123.56 540L125.79 539.59L128.22 541.61L129.23 544.45L132.07 547.68L131.87 550.11L130.65 552.53L130.86 555.76L136.33 558.8L136.12 562.44L135.09 565.07L134.7 561.83L130.25 561.43L128.22 559.2L124.17 559L120.73 561.02L114.04 558.19L107.56 558.59L103.91 555.76L95.41 551.52L82.04 551.32L77.9901 552.13L78.01 552.36L72.72 550.92L53.6801 550.51L45.98 553.74L42.13 558.8L27.95 557.58L21.07 561.02L15.92 559.37L16.07 555.33L14.48 553.9L17.9901 554.85L20.22 555.65L24.85 552.79L17.67 550.24L12.88 552.79L11.77 551.19L13.84 548.96V543.59L15.91 541.52H28.27L31.78 537.52L35.58 536.54L39.96 533.62L42.79 534.3L43.96 535.18L46.98 532.74L49.02 531.96L53.79 535.08L58.08 535.18L63.2401 536.93L69.86 539.67L74.34 539.86L75.71 537.23L74.15 534.69L72.39 534.98L63.53 529.52H62.95L56 525.24L50.34 525.03L46.6 523.85L40.51 526.42L32.38 532.52H29.95L27.71 533.84L18.05 533.66L17.48 531.88L20.36 529.8L15.08 526.44L16.84 526.12V521.8L12.84 521.16L8.20001 513L1 507.24L14.28 495.08L19.72 485.17L20.64 478.28Z" fill="#CCCCCC" stroke="black" stroke-width="0.5" stroke-miterlimit="10"/>
<path fill-rule="evenodd" clip-rule="evenodd" d="M13.8403 543.59L15.9103 541.52H28.2703L31.7803 537.52L35.5803 536.54L39.9603 533.62L42.7903 534.3L43.9603 535.18L46.9803 532.74L49.0203 531.96L53.7903 535.08L58.0803 535.18L63.2404 536.93L69.8604 539.67L74.3403 539.86L75.7103 537.23L74.1503 534.69L72.3903 534.98L63.5303 529.52H64.3004L57.3604 525.24L51.6903 525.03L47.9503 523.85L41.8604 526.42L33.7404 532.52H29.7903L27.4403 533.91L17.3004 533.71L18.3704 537.05L24.0803 539.9L29.1204 538.57L25.7703 541.75L19.7203 541.92L15.1804 536.21L11.3203 540.08L13.8403 543.27V543.59Z" fill="#CCCCCC" stroke="black" stroke-width="0.5" stroke-miterlimit="10"/>
<path fill-rule="evenodd" clip-rule="evenodd" d="M16.4004 559.3L21.5404 560.96L28.4104 557.52L42.5604 558.73L46.4004 553.68L54.0804 550.44L73.0804 550.85L78.3704 552.3L79.1404 558.73L78.1304 561.97L78.3404 569.04L80.5604 571.47L80.3604 575.31L76.9204 577.93L69.6504 579.35L63.9804 582.58L59.7404 583.59L57.2204 588.64L52.2004 590.11L51.2504 588.84L51.5604 585.34L42.6504 586.3L47.5804 580.88L45.2004 580.72L46.4704 578.81L44.5604 576.75L41.0604 576.27L39.7904 574.52L50.2904 574.36L52.0404 573.09L46.3104 569.9L41.2204 571.02L35.8104 572.93L33.4204 572.45L32.3104 570.22L28.0104 569.9L24.1904 566.08L28.0104 563.22L25.1504 562.9L18.1504 562.58L16.4004 559.4V559.3Z" fill="#CCCCCC" stroke="black" stroke-width="0.5" stroke-miterlimit="10"/>
<path fill-rule="evenodd" clip-rule="evenodd" d="M57.1602 588.42L59.6802 583.31L63.9102 582.29L69.5601 579.01L76.8201 577.57L80.2601 574.91L80.4601 571.01L78.2402 568.56L78.0302 561.38L79.0402 558.1L78.2402 551.34L82.2701 550.52H95.7202L104.21 555.52L107.85 558.35L114.32 557.95L120.99 560.78L124.42 558.76L128.47 558.96L130.49 561.18L134.94 561.58L135.34 565.02L137.77 566.23L142.41 564.21L145.24 565.43L149.89 568.52H155.15L159.39 565.63L162.22 565.43L166.27 559.56L170.31 559.36L175.97 561.79L177.79 560.17L181.63 558.96L182.03 561.18L186.68 565.02L188.91 569.47L187.49 575.33L189.92 576.95L194.84 578.16V580.58L190.72 585.84L188.7 591.3L192.34 590.9L194.56 588.07L197.84 587.86V591.91L198.84 594.53V597.01L204.24 597.21L206.24 599.41L206.37 602.23L204.64 603.21L196.84 606.21V609.49L198.41 611.31L199.21 621.01L198 624.05L198.81 631.52L201.04 633.14L203.66 637.39L203.26 640.22L199.82 639.81L197.84 641.23V643.63L201.95 648.16L203.39 650.01L202.78 654.53L197.02 667.09L193.31 668.32L192.28 670.79L193.73 674.9L190.22 682.93L187.14 686.22L187.74 688.22L154.93 699.04L146.95 693.66L143.71 693.5L138.2 685.73L134.64 684.1L136.26 681.03L135.59 680.66L144.75 674.5L146.19 646.1L147.02 642.6L144.55 641.57L144.96 637.87L147.84 636.63V634.55L143.81 630.66L144.41 627.17L139.37 617.74L136.95 614.05L134.12 608.52H116.37L110.92 610.77L107.69 614.46L101.84 619.59V622.46L95.3901 625.94L92.0601 626.16L88.9902 623.64L83.2802 620.57L81.6901 614.12L77.2402 613.96L75.3401 612.02L75.5001 608.64L77.0901 607.02L73.5901 605.41L71.6802 608.15L68.5101 606.86L63.7402 606.54L58.9802 599.92L60.8801 592.02L57.5502 588.31L57.1602 588.42Z" fill="#CCCCCC" stroke="black" stroke-width="0.5" stroke-miterlimit="10"/>
<path fill-rule="evenodd" clip-rule="evenodd" d="M105.64 669.69L105.3 666.8L103.59 664.82L101.35 664.29L100.48 665.89L101.01 667.75L103.86 669.54L105.64 669.69ZM92.4901 626.15L95.6701 625.93L101.84 622.49V619.46L107.69 614.39L110.92 610.74L116.37 608.51H134.12L136.95 613.98L139.37 617.63L144.41 626.96L143.8 630.41L147.83 634.26V637.52L145 638.74L144.6 642.39L147.02 643.41L146.21 646.86L144.8 674.85L135.82 680.93L133.29 679.53H124.3L113.56 673.7L109.02 672.51L110.16 669.97L107.28 666.56L104.78 664.02L106.45 660.37L106.3 659.42L102.29 661L97.8401 655.92V651.16L95.7901 644.51L92.0001 643.87L90.4801 640.53L93.2101 635.12L90.3301 633.53L90.6301 630.35L92.7501 626.37L92.4901 626.15Z" fill="#CCCCCC" stroke="black" stroke-width="0.5" stroke-miterlimit="10"/>
<path fill-rule="evenodd" clip-rule="evenodd" d="M128.24 679.52L129.01 676.3L131.22 670.89L136.22 668.48L140.63 663.47L140.03 660.27L142.04 654.66L144.84 653.26V650.25L146.24 646.05L151.65 643.64L153.45 644.24L162.27 641.44L166.28 643.24L168.88 648.05L172.89 650.25L172.49 658.46L171.69 662.88L177.09 669.08L179.5 668.28L185.71 663.67L187.91 664.28L191.12 667.28L192.07 669.49L191.32 671.29L192.72 675.29L189.31 683.11L186.31 686.31L187.52 690.32L190.92 691.52L192.52 690.52H196.13L198.53 693.53L201.14 692.93L203.74 694.13L205.14 698.33L208.15 700.34L210.95 700.54L212.16 704.75L209.35 706.95L210.75 709.55L208.95 712.16L207.95 715.77L209.35 718.97L207.55 723.78L209.55 727.18L209.7 732.11L189.13 724.63L173.2 712.8L168.78 712.32L155.85 699.4L147.18 693.55L144.02 693.4L138.66 685.83L135.19 684.25L136.77 681.26L133.61 679.52H128.24Z" fill="#CCCCCC" stroke="black" stroke-width="0.5" stroke-miterlimit="10"/>
<path fill-rule="evenodd" clip-rule="evenodd" d="M210.28 732.1L210.13 727.13L208.11 723.7L209.93 718.85L208.51 715.61L209.52 711.97L211.34 709.34L209.93 706.72L212.76 704.5L211.54 700.25L208.71 700.05L205.68 698.03L204.27 693.78L201.64 692.57L199.01 693.17L196.58 690.52H192.95L191.33 691.15L187.9 689.94L186.68 685.9L189.71 682.66L193.15 674.78L191.73 670.74L192.74 668.31L196.38 667.1L202.05 654.77L202.65 650.32L201.24 648.5L196.84 644.05V641.23L199.82 639.81L203.26 640.22L203.66 637.39L201.04 633.14L198.81 631.52L198 624.05L199.21 621.01L198.41 611.31L197.84 609.49V606.26L204.67 603.22L212.55 598.78L215.18 598.57L220.24 601L228.73 601.61L230.54 599.99L230.75 598.17L237.62 596.75L243.28 597.56L242.07 598.98L243.68 601.41L250.36 603.43L254.2 597.56L257.43 595.34L263.49 600.19L271.38 604.52H274.41L276.83 606.52H280.07L284.52 608.08L286.74 611.31L293.41 614.75L298.46 613.73L302.45 610.98L305.19 611.08L308.23 613.21L312.77 613.97L312.81 615.55L311.2 622.23L312.84 626.67V628.77L315.84 631.65L317.64 636.99L315.84 641.72V646.04L311.64 648.7L305.04 658.77L305.44 663.09L303.84 666.38L303.64 671.31L301.64 674.19L301.89 683.77L300.08 685.01L299.98 686.87L302.39 689.55L305.39 697.59L305.89 702.74L310.7 704.19L312.71 707.69L312.41 713.77L309.4 714.29L305.19 714.6L304.37 716.13L301.34 710.51L297.4 711.48L296.46 716.81L286.85 712.12L276.46 715.52L248.91 715.68L241.03 716.81L240.88 718.92L226.55 724.41L224.97 726.52H219.6L212.28 732.83L210.28 732.1Z" fill="#CCCCCC" stroke="black" stroke-width="0.5" stroke-miterlimit="10"/>
<path fill-rule="evenodd" clip-rule="evenodd" d="M304.45 716.24L305.29 714.74L309.54 714.43L312.58 713.93L312.88 707.94L310.86 704.5L305.99 703.07L305.49 698L302.45 690.09L300.021 687.46L300.12 685.63L301.94 684.41L301.7 674.98L303.72 672.15L303.92 667.3L305.54 664.07L305.13 659.82L311.8 649.92L315.84 647.29V643.04L317.87 638.4L316.05 633.14L312.84 630.31V626.67L311.2 622.23L312.81 615.55L312.61 607.67L310.18 601.81L307.96 599.99L306.55 593.32L307.151 588.67L314.43 588.52H330L331.82 587.52H342.73L350.62 586.24L355.46 586.04L360.32 583.82L361.91 584.24L363.62 589.88L365.44 591.81L365.95 594.95L370.5 599.11L372.33 601.75L376.78 605L375.57 610.77L375.771 618.38L377.901 620.01L379.72 620.62L380.021 627.81L378.401 630.96L378.1 634L380.021 635.63L380.63 639.68L378.91 642.32L380.53 645.36L380.021 652.56L381.44 655.71L382.151 668.08L379.92 672.44L379.62 675.18L378.5 680.86L379.92 685.83L381.641 691.41L383.87 692.32L386.1 694.55L388.41 698.06L376.98 699.57L366.95 704.35L355.97 713.57L343.24 714.69L325.1 723.44L316.83 719.78L305.53 718.19L304.45 716.24Z" fill="#CCCCCC" stroke="black" stroke-width="0.5" stroke-miterlimit="10"/>
<path fill-rule="evenodd" clip-rule="evenodd" d="M385.22 589.41L363.391 583.9L361.771 584.2L363.49 589.88L365.31 591.81L365.82 594.95L370.37 599.11L372.2 601.75L376.651 605L375.44 610.77L375.641 618.38L377.771 620.01L379.59 620.62L379.891 627.81L378.271 630.96L377.97 634L379.891 635.63L380.5 639.68L378.78 642.32L380.401 645.36L379.891 652.56L381.31 655.71L382.021 668.08L379.79 672.44L379.49 675.18L378.38 680.86L379.79 685.83L381.51 691.41L383.74 692.32L385.97 694.55L388.28 698.06L390.06 697.82L401.36 690.82L403.53 691.11L404.25 687.11L401.42 682.26L401.22 676.4L399.81 671.14L400.41 645.87L400.62 642.24L402.84 639.41V634.35L401.22 631.12L401.42 625.26L399.61 616.36L395.36 605.25L393.141 604.03L390.51 601L385.25 598.78L384.04 592.11L385.22 589.41Z" fill="#CCCCCC" stroke="black" stroke-width="0.5" stroke-miterlimit="10"/>
<path fill-rule="evenodd" clip-rule="evenodd" d="M414.84 562.04V565.43L410.31 570.88L406.78 571.09L400.28 574.52L398.12 573.51L393.99 575.53L394.38 579.37L391.04 581.8L391.82 586.24L386.51 587.46L384.54 592.11L385.72 598.78L390.84 601L393.4 604.03L395.56 605.25L399.69 616.36L401.46 625.26L401.27 631.12L402.84 634.35V639.41L400.68 642.24L400.48 645.87L399.89 671.14L401.27 676.4L401.46 682.26L404.22 687.11L403.51 691.11L410.84 692.09L424.93 687.16L425.77 687.34L424.96 683.2L425.84 672.55L425.25 669.1L425.45 666.05L424.46 657.13L425.25 653.98L425.06 651.55L424.26 650.13L424.76 648.51L424.26 644.96L423.97 643.43L424.37 638.87L424.76 635.83L424.46 631.98L426.04 629.54L429.3 628.22L431.66 627.81L433.63 626.19L435.4 622.34L438.26 617.17L439.34 614.12L442.2 611.49L444.96 611.69L446.05 609.76L441.71 604.89L442.01 602.97L443.58 600.33L448.02 600.03L448.81 597.59L446.74 590.09L446.64 584.91L441.02 580.35L440.13 577L441.02 572.64L441.49 572.24L437.07 566.23L432.35 565.22L428.61 559.97L421.92 554.31L420.15 558.15L420.74 560.57L417 561.79L414.84 562.04Z" fill="#CCCCCC" stroke="black" stroke-width="0.5" stroke-miterlimit="10"/>
<path fill-rule="evenodd" clip-rule="evenodd" d="M668.6 328.23L692.18 318.38L859.97 404.2L861.44 487.12L858.24 488.33L854.44 490.75L850.84 488.52H845.64L841.84 491.54V496.77L844.04 499.58L841.64 504.41L834.84 513.46L832.64 513.26L829.04 516.88L829.24 519.9L831.64 522.31L829.44 526.74L825.24 529.35L824.44 532.17L828.24 534.38L828.64 538.61L826.44 542.03L819.84 549.07V553.71L822.58 556.45L827.48 552.92L829.83 553.51V556.29L827.38 557.91L830.24 559.93L828.61 562.56L830.65 566.2L830.85 571.67L831.67 575.72L839.63 577.74L841.67 580.98L839.84 584.02V586.85L838.61 589.68L833.1 592.11L830.45 590.49H825.35L821.48 593.12L816.17 596.16L815.36 598.99L815.56 601.82L813.11 602.83L809.23 608.9L806.99 609.1L805.36 608.09L802.3 611.53L802.5 614.77L799.44 616.79L798.62 620.43L799.23 623.47L798.21 626.51L794.74 628.33L790.66 631.37L782.7 632.38L776.78 633.19L771.27 632.38L767.8 630.96L762.9 631.57L759.63 630.76L756.77 632.58L756.36 636.02L759.84 640.52H762.64L763.44 643.32L757.44 647.32L754.64 650.52H749.24L736.84 653.32L731.64 656.92L725.84 659.32L720.44 663.32L716.64 663.92L714.84 662.12L713.44 657.32L711.24 655.32L708.84 657.72V662.64L706.23 667.5L700.62 667.7L697.21 668.51H693.2L692.4 664.26L690.14 661.75L689.99 658.02L686.38 652.43L683.27 647.04L680.05 644.29L672.71 636.06L664.87 629.35L661.35 628.03L660.75 625.69L658.64 624.17L657.84 621.83V618.27L659.04 616.24L659.24 612.48L662.46 612.27L665.97 612.17L668.08 612.98L671.8 612.37L674.92 612.88L677.63 612.47L682.15 612.98L684.46 614.3L687.27 614.81L689.58 613.18L687.87 612.47L682.34 607.79L681.03 603.21L677.81 601.69L674.09 596.3L673.89 592.23L676.4 589.59L678.01 584.1L675.7 581.36L675.8 579.53L676.81 577.39L676.91 574.54L674.5 568.74L673.6 565.08L671.99 563.05L670.88 556.95L666.16 552.48L655.83 547.2L655.61 546.97L652.6 541.9L647.17 534.79L644.4 533.73L642.85 507.14L643.35 504.5H647.12L649.33 503.69L650.33 501.37L684.96 465.82L684.16 435.2L689.76 395.72L692.96 392.49L693.36 384.84L679.34 367.92L680.54 365.5L680.94 359.86L670.93 330.85L668.6 328.23ZM622.55 543.94L621.03 546.98L617.89 547.69L616.05 546.33L622.55 543.94Z" fill="#CCCCCC" stroke="black" stroke-width="0.5" stroke-miterlimit="10"/>
<path fill-rule="evenodd" clip-rule="evenodd" d="M442.41 571.79L437.87 565.84L433.02 564.84L429.19 559.64L422.32 554.04L420.51 557.84L421.11 560.24L417.28 561.44L413.65 561.84L409 555.84L411.42 552.64L411.02 548.64L409.4 547.03L408.8 544.43L406.58 543.23L397.5 548.03L390.23 542.43L389.83 534.03L369.84 520.83V515.02L372.49 510.74L373.31 504.83L374.74 501.97L379.63 503.19L394.32 501.77L399.21 502.17L404.72 499.52H413.89H418.18L424.3 495.44L430.62 495.04L436.94 491.77L447.55 485.86L448.98 481.16L449.59 473.82L453.05 471.78L454.48 452.61L455.5 411.62L487.93 403.87L514.24 379.8L609.55 320.75L646.81 330.03L650.28 333.7L669.22 325.84L671.62 328.51L681.83 357.91L681.43 363.63L680.2 366.08L694.5 383.23L694.08 390.99L690.82 394.26L685.1 434.27L685.92 465.31L650.61 501.34L649.59 503.7L647.34 504.52H642.06L641.56 507.13L643.12 533.39L639.23 531.92L636.81 535.74L636.1 538.35L634.07 539.25L630.94 537.95L628.21 538.65L626.99 541.16L622.55 542.77L622.03 543.78L615.55 546.14L613.14 544.37L607.17 544.17L600.4 540.96L591.09 539.85L586.54 542.07L575.52 541.36L571.07 542.57L565.71 549.99L560.55 553.41L556.71 552.51L548.21 549.39L543.87 548.79L537.09 545.08L532.84 543.47V541.86L529.1 539.05L525.66 538.85L524.85 539.76L518.88 540.86L515.75 542.37L512.82 542.67L510.49 545.48L508.37 546.28L504.22 543.77L499.57 537.04L497.65 534.74L491.38 532.43L487.94 531.83L485.41 530.42L479.65 529.52L477.32 528.71L473.88 528.91L472.06 530.52L465.69 530.42L463.97 530.52L460.63 530.32L456.39 531.22L454.77 532.22L452.44 533.13L447.73 536.85L447.12 539.01L447.93 540.82L447.63 542.02L446.82 543.63L447.73 547.39L449.19 549.1L449.41 552L445.56 552.1L441.22 556.52L442.03 558.73L440.61 560.94L443.14 566.86L445.46 566.96L445.67 569.17L442.41 571.79Z" fill="#CCCCCC" stroke="black" stroke-width="0.5" stroke-miterlimit="10"/>
<path fill-rule="evenodd" clip-rule="evenodd" d="M655.48 546.86L655.26 546.63L652.24 541.57L646.78 534.48L640.11 531.94L637.69 535.79L636.98 538.43L634.96 539.34L631.83 538.02L629.1 538.74L627.89 541.27L623.45 542.89L621.42 546.95L618.29 547.66L614.05 544.52L608.09 544.31L601.32 541.07L592.03 539.95L587.48 542.19L576.47 541.47L572.03 542.69L566.67 550.19L561.52 553.64L557.68 552.73L549.2 549.59L544.85 548.98L538.09 545.23L533.84 543.6V541.98L530.1 539.14L526.67 538.94L525.86 539.85L519.9 540.97L516.77 542.49L513.84 542.79L511.52 545.63L509.39 546.44L505.25 543.91L500.61 537.11L498.69 534.78L492.43 532.45L488.99 531.84L486.46 530.42L480.71 529.51L478.38 528.69L474.95 528.9L473.13 530.52L466.19 530.42L464.47 530.52L461.12 530.31L456.86 531.23L455.24 532.24L452.91 533.16L448.18 536.91L447.57 539.1L448.38 540.92L448.08 542.14L447.27 543.76L448.18 547.57L449.65 549.29L449.87 552.22L446.01 552.32L441.65 556.79L442.46 559.02L441.04 561.25L443.58 567.23L445.91 567.34L446.11 569.57L442.36 572.61L441.45 576.97L442.36 580.32L448.14 584.88L448.24 590.06L450.37 597.56L449.56 600L445 600.3L443.38 602.94L443.07 604.86L447.53 609.73L446.42 611.66L443.58 611.46L440.64 614.09L439.52 617.14L436.58 622.31L434.76 626.16L432.73 627.79L430.3 628.19L426.95 629.51L425.33 631.95L425.63 635.8L425.23 638.84L424.82 643.41L425.12 644.93L425.63 648.48L425.12 650.1L425.94 651.52L426.14 653.95L425.33 657.1L426.34 666.02L426.14 669.07L426.75 672.52L425.83 683.17L426.67 687.31L434.89 689.04L441.59 686.34L457.04 694.45L465.65 702.89L470.9 713.07L470.74 719.75L473.61 721.19L476 728.51L481.42 733.44L489.06 735.51L509.46 734.39L513.6 731.85L516.63 733.12L526.35 729.62L529.53 731.05L534.95 729.94L537.03 724.05L540.85 728.03L542.44 727.07L542.62 727.16L542.73 724.48L548.19 718.21L550.42 712.96L549.61 707.9L549.41 703.46L551.84 701.84V698.81L555.28 695.57L558.92 693.14L560.75 690.92L567.02 686.28L566.61 682.03L567.62 679.8L572.28 679.6L574.3 676.97L575.32 677.99L580.98 679.8L583.21 679.6L587.26 681.62L589.48 685.87L593.13 688.5L595.56 689.51L600.01 686.88L602.84 682.23V680.41L604.46 677.99L607.69 676.98L610.11 673.14L609.91 670.11L611.53 665.06L617.99 658.6L618.8 655.17L617.79 652.14L619.81 648.9L625.26 643.05L629.5 640.22L629.9 635.78L631.52 632.75L630.71 626.29L633.74 623.46L639.4 621.84L643.03 617.2L643.84 612.35V606.83L643.24 603.6L645.66 599.56L649.08 592.48L651.3 590.66L651.91 588.85L655.94 585.61L658.36 585.81L661.18 582.58L666.02 580.35L666.43 577.72L664.86 572.2L664.66 569.87L663.24 566.43L659.51 565.41L657.69 561.66L657.89 555.27L657.39 552.02L655.46 546.85L655.48 546.86Z" fill="#CCCCCC" stroke="black" stroke-width="0.5" stroke-miterlimit="10"/>
<path fill-rule="evenodd" clip-rule="evenodd" d="M536.19 755.97L536.49 752.78L539.23 752.55L540.82 747.68L545.3 743.12L546.75 744.56L547.2 750.57L544.16 758.79L540.141 758.18L536.19 755.97Z" fill="#CCCCCC" stroke="black" stroke-width="0.5" stroke-miterlimit="10"/>
<path fill-rule="evenodd" clip-rule="evenodd" d="M542.33 727.19L542.44 724.51L547.9 718.24L550.12 712.98L549.31 707.93L549.11 703.49L551.84 701.87V698.85L555.28 695.61L558.92 693.18L560.75 690.96L567.02 686.3L566.61 682.05L567.62 679.82L572.28 679.62L574.3 676.99L575.32 678L580.98 679.82L583.21 679.62L587.26 681.65L589.48 685.89L593.13 688.53L595.56 689.54L600.01 686.91L602.84 682.25V680.41L604.46 677.99L607.69 676.98L610.11 673.14L609.91 670.11L611.53 665.06L617.99 658.6L618.8 655.17L617.79 652.14L619.81 648.9L625.26 643.05L629.5 640.22L629.9 635.78L631.52 632.75L630.71 626.29L633.74 623.46L639.4 621.84L643.03 617.2L643.84 612.35V607.43L643.22 604.12L645.7 599.99L649.22 592.75L651.49 590.89L652.11 589.03L656.25 585.71L658.73 585.92L661.63 582.61L666.59 580.34L667.01 577.65L665.4 572L665.2 569.61L663.74 566.09L659.91 565.05L658.05 561.21L658.25 554.67L657.73 551.35L655.76 546.06L666.44 551.45L671.31 556.02L672.45 562.24L674.11 564.32L675.04 568.06L677.53 573.97L677.42 576.88L676.38 579.06L676.28 580.93L678.67 583.73L677 589.33L674.42 592.03L674.62 596.18L678.46 601.68L681.77 603.24L683.12 607.91L688.82 612.68L690.58 613.41L688.2 615.07L685.3 614.55L682.91 613.2L678.25 612.68L675.45 613.1L672.24 612.58L668.41 613.2L666.23 612.37L662.61 612.47L659.29 612.68L659.08 616.52L657.84 618.6V621.33L658 623.66L660.12 625.18L660.73 627.51L664.27 628.83L672.17 635.52L679.57 643.74L682.81 646.48L685.95 651.85L689.59 657.43L689.8 662.5L685.95 667.88L682.91 669.1L680.99 673.36L677.14 680.56L674.81 685.73L670.65 691.51L668.33 692.42L666.4 695.26L667.01 699.73L668.73 705.31L667.82 710.48L669.54 715.95L669.84 720.62V729.14L672.08 730.66L678.15 733.6L681.49 737.76L682.81 742.22L687.97 749.83L691.11 756.02L693.64 758.45L700.33 763.63L700.94 767.89L700.83 771.23L701.75 772.65L702.26 773.11L701.75 773.97L700.43 776.91L698.2 780.36L697.29 781.98L699.22 785.43L698.71 787.46L696.28 787.87L695.67 786.65L694.05 786.95L692.22 786.34L690.5 785.52H685.95L684.12 786.14L681.09 783.91L679.57 783.51L678.96 784.93L676.83 785.33L675.41 783.61L672.89 782.9L670.86 783.51L668.53 781.52H666.81L665.79 782.75L663.47 781.63L636.72 781.08L635.35 779.25L633.63 779.36L632.57 780.02L627.3 779.58L626.85 778.52H623.86L620.47 779.05L618.54 778.34L611.96 777.99L610.19 778.54L604.32 778.29L602.11 779.37L600.06 779.25L598.21 780.09L597.84 781.01V781.52H572.53L571.31 780.52H568.78L566.06 780.69L569.37 777.38L566.34 774.2L569.2 766.88L568.41 758.77L564.84 753.36V747.47L566.02 744.76L562.84 739.67L556.63 742.38L554.73 740.15L551.06 739.67L548.52 726.78L545.17 728.54L542.33 727.19Z" fill="#CCCCCC" stroke="black" stroke-width="0.5" stroke-miterlimit="10"/>
<path fill-rule="evenodd" clip-rule="evenodd" d="M597.84 781.15L598.51 780.24L600.34 779.42L602.38 779.54L604.57 778.46L610.41 778.72L612.17 778.17L618.72 778.52L620.63 779.22L624 778.52H627.05L627.51 779.48L632.76 779.88L633.82 779.28L635.53 779.18L636.9 780.84L636.7 780.83L635.7 785.08L637.11 789.13L636.61 794.39L637.81 797.72L637.01 800.35L639.03 801.46L642.36 799.64L645.29 800.45L649.93 799.24L654.47 797.52L661.13 797.62L663.46 799.24L663.86 805.51L662.35 808.14L663.66 810.36L663.06 814.3L659.22 815.11L654.77 817.6L654.51 820.48L655.57 821.75L656.58 824.68L655.27 824.88L654.21 826.09L651.84 827.06V829.46L653.24 831.17L654.04 832.92L656.5 834.08L657.25 835.88L660.4 838.54L661.41 841L663.52 843.12L663.33 847.32L661.33 855.72L656.13 870.92L657.13 874.72L656.93 878.52H654.93L653.72 875.72L649.52 873.92L645.13 874.12L642.72 875.72L640.13 875.12L635.13 876.52L632.32 873.12L628.92 864.72L624.92 864.32L622.92 866.72L623.72 871.72L622.72 875.12L615.32 875.52H611.57L610.56 877.52L608.54 879.14L604.49 876.71L600.05 877.32L598.03 879.34L599.65 882.38L599.04 886.42L602.27 885.41L605.51 884.6L607.53 886.22L611.17 888.84L611.57 899.35L611.37 902.99L605.51 898.52H603.89L602.68 900.57L598.84 900.77L596.82 901.78L596.41 904.61L593.35 908.92L592.44 908.03L588.78 906.6L588.14 903.09L580.5 899.43L578.59 894.82L569.04 887.18L563.32 881.14L564.91 880.02L559.5 875.57L557.27 870.63L553.84 867.45V861.09L550.84 856.15V851.97L548.47 850.09L544.04 840.98L544.35 838.78L549.42 840.51L553.37 837.22L554.32 825.76L554.95 819.95L557.33 822.31L566.5 820.11L560.02 818.54L555.9 811.95L560.34 811.32L560.59 806.4L563.11 806.92L565.73 805.12L568.04 804.62L569.25 805.52L597.84 805.82V781.15Z" fill="#CCCCCC" stroke="black" stroke-width="0.5" stroke-miterlimit="10"/>
<path fill-rule="evenodd" clip-rule="evenodd" d="M562.65 806.36L565.03 806.85L567.51 805.14L569.69 804.66L570.84 805.52L597.84 805.81V780.52H572.53L571.31 781.52H570.84L568.27 782.02L567.49 782.8L568.99 786.24L562.71 793.26L557.78 802.67L562.71 805.21L562.65 806.36Z" fill="#CCCCCC" stroke="black" stroke-width="0.5" stroke-miterlimit="10"/>
<path fill-rule="evenodd" clip-rule="evenodd" d="M593.5 908.95L596.51 904.7L596.91 901.91L598.91 900.91L602.7 900.71L603.9 898.52H605.5L611.3 903.12L611.5 899.52L611.1 889.12L607.5 886.52L605.5 884.92L602.3 885.72L599.1 886.72L599.7 882.72L598.1 879.72L600.1 877.72L604.5 877.12L608.5 879.52L610.5 877.92L611.5 875.52H615.32L622.72 875.12L623.72 871.72L622.92 866.72L624.92 864.32L628.92 864.72L632.32 873.12L635.13 876.52L640.13 875.12L642.72 875.72L645.13 874.12L649.52 873.92L653.72 875.72L654.93 878.52H656.93L657.13 874.72L656.13 870.92L661.33 855.72L663.33 847.32L663.52 843.12L661.41 841L660.4 838.54L657.25 835.88L656.5 834.08L654.04 832.92L653.24 831.17L651.84 829.46V826.27L654.16 825.33L655.19 824.15L656.47 823.95L655.49 821.08L654.45 819.85L654.7 817.04L659.05 814.61L662.79 813.81L663.39 809.96L662.1 807.79L663.58 805.22L663.19 799.1L660.92 797.52L654.41 797.42L649.97 799.1L645.44 800.28L642.58 799.5L639.32 801.27L637.35 800.19L638.14 797.62L636.96 794.36L637.45 789.22L636.07 785.27L637.06 781.12L663.29 781.62L665.55 782.61L666.54 781.52H668.53L670.86 783.51L672.89 782.9L675.41 783.61L676.83 785.33L678.96 784.93L679.57 783.51L681.09 783.91L684.12 786.14L685.95 785.52H690.16L691.88 786.33L693.7 786.94L695.32 786.63L695.92 787.85L698.35 787.44L698.86 785.42L696.93 781.97L697.84 780.35L700.06 776.92L701.38 773.98L711.29 757.48L716.54 752.42L720.18 751.61L721.9 749.38L730.89 745.74L734.23 746.04L736.45 744.52H739.89H742.72L744.13 746.24L747.97 748.37L750 747.56L752.48 746.92L752.4 748.06L754.37 752.15L754.52 760.62L750.43 762.74L749.52 766.52L740.45 778.18L742.26 785.44L741.05 789.98L740.75 794.67L737.72 798.6L737.12 804.8L737.72 807.37L736.51 813.73L737.42 814.94L736.81 820.84L733.79 822.21L731.97 829.16L731.82 836.27L725.17 847.27L721.08 848.41L717.44 851.3L714.78 850.39L709.86 853.8L705.84 858.81L705.76 864.21L699.44 870.81L697.1 875.24L698.01 881.09L699.21 882.74L698.43 894.1L697.08 899.78L697.23 903.52L693.77 909.05L690.01 909.95L686.7 912.19L685.35 915.33L676.78 923.55L673.77 928.04L668.81 930.13L663.88 927.3L662.68 923.77L661.62 922.8L664.03 918.22L664.41 916.2L657.86 918.37L653.56 922.05L650.78 921.22L647.84 921.52L647.76 926.03L645.35 928.8L641.43 928.72L641.59 926.85L640.38 924.67L637.29 926.17L634.73 925.95L634.11 926.52L634.02 923.12L632.01 920.42L629.8 918.52H627.99L624.48 921.42L621.46 922.02L620.26 925.72L616.94 927.52H615.02L613.02 932.42L610.97 933.59L608.61 931L608.77 926.92L605.47 923.31L605.31 919.54L599.03 915.61L597.62 912.94L593.5 908.95Z" fill="#CCCCCC" stroke="black" stroke-width="0.5" stroke-miterlimit="10"/>
<path fill-rule="evenodd" clip-rule="evenodd" d="M633.73 926.52L633.64 923.12L631.64 920.42L629.44 918.52H627.65L624.15 921.42L621.16 922.02L619.96 925.72L616.66 927.52H615.27L613.27 932.42L611.22 933.59L613.73 936.34L615.14 942.3L612.78 946.69L613.89 949.14L617.72 946.58L621.62 945.98L624.01 943.65L623.64 936.15L625.29 933.98L629.7 930.22L633.73 926.52Z" fill="#CCCCCC" stroke="black" stroke-width="0.5" stroke-miterlimit="10"/>
<path fill-rule="evenodd" clip-rule="evenodd" d="M1003.63 850.06L1004.84 848.42L1006.76 848.82L1008.58 847.52L1034.71 847.42L1077.74 845.1L1154.86 890.11L1159.1 897.18L1158.09 899.2L1158.9 901.82L1160.72 904.04L1186.83 922.47L1186.05 922.45L1187.08 923.63L1187.47 926.89L1186.05 928.94L1181.53 942.89L1178.04 951.68L1178.28 956.52L1184.22 961.67L1188.66 966.66L1191.43 966.26L1194.21 974.03L1193.02 976.48L1191.27 975.93L1188.74 977.59L1187.47 982.66L1187.87 990.43L1191.04 993.52L1190.48 998.43L1187.63 1000.81L1188.34 1005.48L1190.64 1011.03L1189.45 1011.34L1190.72 1013.88L1191.59 1018L1194.05 1020.14L1191.99 1023.54L1193.97 1025.92L1196.11 1032.18L1195.4 1035.35L1202.85 1042.56L1208.31 1043.35L1212.84 1047.19V1049.25L1213.39 1049.6L1212.65 1049.93L1210.84 1052.05L1206.9 1050.99L1204.48 1054.32L1201.3 1056.89L1196.91 1057.5L1194.03 1060.53L1189.18 1061.13L1187.67 1062.95L1184.34 1064.01L1181.31 1062.8L1173.44 1065.22L1171.47 1066.88L1167.68 1067.34L1164.81 1065.22L1161.93 1065.83L1158.15 1064.61L1156.63 1065.98L1157.69 1068.4L1156.18 1071.58L1150.27 1072.03L1145.88 1073.7L1143.3 1072.03L1140.58 1071.88L1140.28 1070.52L1137.85 1069.46L1136.19 1070.82L1133.92 1071.43L1129.37 1074.61L1123.16 1076.42L1123.77 1074.61L1121.65 1072.33L1118.93 1072.03L1116.35 1070.22L1113.63 1069.46L1113.48 1067.64L1110.45 1068.25L1109.54 1069.76L1106.06 1070.52L1085.92 1070.82L1081.84 1085.7L1082.16 1050.91L1081.07 1042.67L1073.79 1034.68L1071.44 1032.41L1069.06 1030.94L1068.12 1029.48L1066.55 1029.13L1065.1 1028L1062.68 1027.64L1061.35 1028.51L1060.17 1027.1L1057.55 1026.7L1056.26 1024.27L1054.19 1024L1053.19 1024.79L1053.09 1024.52H1051.37L1047.46 1020.3L1046.05 1016.86L1043.24 1016.4L1041.37 1014.52H1040.14L1030.3 1011.08L1026.23 1010.93L1023.58 1008.43L1023.27 1006.71L1020.14 1004.52H1018.32L1015.14 1003.52H1012.1L1005.1 1000.51L999.99 983.9L985.12 963.43L980.12 938.57L977.38 920.78L987.95 920.98L995.02 919.16L998.66 913.91L1004.12 907.84L1006.54 905.82L1009.38 902.79L1012.81 899.35L1013.21 896.32L1012 890.05L1009.38 889.65L1008.57 887.02L1005.84 885.41V882.58L1004.84 880.76V878.71L1005.14 879.66L1007.47 880.16L1009.69 878.84L1011.42 877.12L1012.13 874.38L1013.34 871.44L1012.73 867.28L1011.01 861.2L1009.19 858.36L1008.68 855.82L1006.05 853.69L1003.63 850.06Z" fill="#CCCCCC" stroke="black" stroke-width="0.5" stroke-miterlimit="10"/>
<path fill-rule="evenodd" clip-rule="evenodd" d="M982.95 853.76L984.09 854.24L987.59 853.52L991.08 850.74L993.44 851.87L995.19 853.52H998.32L999.87 852.08L999.98 849.09L1003.5 848.47L1006.61 853.11L1009.31 855.27L1009.83 857.84L1011.69 860.72L1013.46 866.9L1014.08 871.12L1012.83 874.1L1012.11 876.88L1010.34 878.63L1008.06 879.97L1005.68 879.46L1004.84 878.5V877.29L1002.36 875.86L1001.32 872.57L998.84 872.16L996.98 870.52H995.12L995.53 874.42L992.84 880.98V883.03L988.53 884.47L986.48 882.42L985.04 882.83L983.82 884.27L980.12 882.83L978.48 879.34L976.23 878.52H972.53L970.65 878.99L971.09 875.7L974.33 862.78L978.33 858.01L982.95 853.76Z" fill="#CCCCCC" stroke="black" stroke-width="0.5" stroke-miterlimit="10"/>
<path fill-rule="evenodd" clip-rule="evenodd" d="M977.63 920.56L988.22 920.77L995.31 918.95L998.95 913.69L1004.42 907.63L1006.85 905.61L1009.69 902.57L1013.13 899.14L1013.53 896.11L1012.32 889.84L1009.69 889.44L1008.88 886.81L1005.84 885.19V882.58L1004.84 880.76V877.29L1002.36 875.86L1001.32 872.57L998.84 872.16L996.98 870.52H995.12L995.53 874.42L992.84 880.98V883.03L988.5 884.47L986.43 882.42L984.98 882.83L983.74 884.26L980.01 882.83L978.35 879.34L976.08 878.52H972.83L970.97 878.98L970.65 881.35L973.38 885.75L973.84 890.45V895.9L977.63 920.56Z" fill="#CCCCCC" stroke="black" stroke-width="0.5" stroke-miterlimit="10"/>
<path fill-rule="evenodd" clip-rule="evenodd" d="M613.76 949.66L617.66 947.06L621.6 946.45L624.03 944.09L623.66 936.48L625.33 934.28L629.81 930.48L634.51 926.14L637.1 926.37L640.21 924.84L641.43 927.05L641.27 928.95L645.22 929.03L647.84 926.22V921.65L650.69 921.35L653.5 922.18L657.83 918.45L664.44 916.25L664.06 918.3L661.63 922.95L662.69 923.93L663.91 927.51L668.88 930.38L673.88 928.26L676.91 923.71L685.55 915.37L686.92 912.19L690.25 909.91L694.04 909.01L697.53 903.4L697.38 899.61L698.74 893.84L699.53 882.32L698.31 880.65L697.4 874.71L699.76 870.23L705.84 863.53L705.92 858.8L709.93 853.8L714.85 850.39L717.5 851.29L721.14 848.41L725.23 847.27L731.88 836.28L732.03 829.18L733.84 822.22L736.87 820.86L737.47 814.96L736.57 813.75L737.78 807.4L737.17 804.83L737.78 798.63L740.8 794.7L741.11 790.02L742.31 785.48L740.5 778.22L749.57 766.58L750.48 762.8L754.56 760.68L754.41 752.22L752.44 748.13L752.75 743.6L753.8 740.57L755.16 738.76L751.84 734.37V733.19L755.01 733.02L756.84 731.35V728.85L759 726.19L759.51 723.02L761.17 721.52H764L767.34 718.19L771.34 718.68L772.01 716.52H773.19L776.36 718.93L778.76 719.23L784.79 724.35L787.95 725.56L793.53 730.23L794.73 731.43L799.4 731.13L803.62 733.54L808.75 733.84L811.62 734.37L814.26 733.17L816.98 733.24L820.75 734.68L825.73 735.66L827.69 736.79L832.59 735.73L833.35 734.07L831.16 732.26L830.78 729.92L834.1 726.51L837.05 722.74L841.27 722.81L845.19 723.64L847.53 726.21L850.25 725.08L859.23 724.02L860.81 722.06L864.06 720.77L872.73 716.99L875.52 717.22L875.98 718.73L877.49 719.03L878.39 721.45L880.2 721.53L882.77 719.71L887.82 719.49L890.69 718.88L893.1 718.81L895.82 714.8L894.92 713.36L895.14 711.78L898.31 711.55L900.27 713.44L904.72 714.12L907.14 713.89L909.18 715.03L912.27 715.56L915.21 717.52H923.58L924.8 718.39L931.33 715.43L936.11 715.88L939.99 718.16L941.43 718.7L942.11 722.04L944.39 724.71L946.75 725.39L949.17 727.98L953.43 731.55L957.6 733.15L959.96 732.46L961.56 729.8L964.14 728.52H969.15L971.88 728.58L972.49 729.73L974.24 729.8L978.64 728.58L980.46 726.3L982.74 723.57L987.45 723.79L989.12 724.86L991.71 730.18L994.06 732.92L995.2 734.75L1000.74 736.57L1002.95 738.63L1004.54 742.12L1005.83 743.8L1006.97 746.84L1007.43 749.2L1008.26 749.28L1013.47 749.14L1015.02 750.11L1013.96 753.99L1011.84 756.81V762.66L1010.62 769.89L1010.16 775.21L1012.52 776.89L1014.57 779.63L1016.16 783.13L1015.78 785.48L1004.98 799.85L998.31 807.28L996.49 810.46L988.3 825.17L986.78 827.75L986.63 833.21L986.03 840.94L983.3 848.52L983.9 853.37L978.3 858.52L974.35 863.22L971.17 875.96L970.41 881.57L973.14 885.96L973.84 890.66V895.85L980.42 938.3L985.47 963.16L1000.48 983.63L1005.64 1000.24L1002.61 998.79L967.97 1007.11L959.31 1023.55L960.46 1028.19L962.84 1030.39L964.91 1031.53L964.67 1033.97L963.3 1035.34L963.68 1038.23L963.3 1041.04L963.74 1044.27L963.13 1048.67L961.45 1049.58L962.21 1050.94L960.83 1053.07L956.7 1056.85L956.24 1059.73L956.55 1071.41L956.85 1076.86L959.61 1078.99L965.27 1085.05L966.5 1088.39L968.48 1090.96L977.21 1091.12L978.28 1090.51L977.05 1088.54L976.59 1086.11L981.19 1085.36L983.94 1086.42L985.01 1108.7L983.94 1110.52L980.42 1109.92L980.12 1108.7L978.58 1108.4L975.37 1109.61L971.85 1110.52H969.25L964.66 1106.43L960.53 1101.58L956.7 1098.24L952.26 1092.33L947.52 1089.3L939.72 1086.72L934.51 1083.84L934.05 1081.56L930.84 1077.78L930.87 1071.74L929.1 1071.2L927.18 1072.21L924.41 1072.67L922.41 1078.29L922.18 1080.37L915.72 1082.52H912.34L911.95 1081.29L906.96 1080.14L902.81 1079.44L897.81 1076.44L895.74 1076.21L891.59 1074.28L889.97 1074.21L890.28 1072.67L889.82 1069.67L888.74 1067.66L888.51 1063.43L887.21 1063.04L881.67 1064.74L880.29 1066.12L877.06 1066.22L874.14 1067.56L871.87 1069.68L870.45 1069.15L869.68 1067.83L869.45 1063.95L868.49 1062.6L865.03 1061.52H863.54L861.86 1060.59L861.83 1060.16L857.96 1060.61L854.65 1061.94L851.01 1063.69L849.03 1064.45L846.79 1064.98L844.86 1064.6L839.43 1064.43L837.15 1063.67L834.19 1062.52H832.14L831 1062.31L829.18 1062.91L827.88 1064.36L825.53 1064.66L824.92 1063.14L825 1059.03L826.51 1057.74L826.29 1056.67L827.5 1053.48L825.03 1051.51L824.27 1047.27L825.84 1045.9V1043.63L822.84 1041.05V1038.84L823.61 1036.07L823.3 1033.46L821.61 1033.15L820.22 1030.54L818.84 1029.62V1027.41L816.84 1024.83L816.69 1022.71L815.63 1020.89L817.29 1016.64L816.69 1009.06L815.78 1006.48L816.23 1004.97L817.84 1003.45V1000.42L815.02 997.08L815.81 993.54L817.84 990.11V987.55L818.07 984.35L817.62 981.77L793.1 979.98L792.49 977.85L793.85 975.58L794.01 973.15L787.64 972.55L787.49 974.52L767.02 974.82L766.41 980.88L764.9 984.22L763.08 985.13L763.69 989.22L763.84 994.98L747.92 996.04L745.19 997.56L737.92 997.11L735.64 996.35L731.7 997.11L726.09 997.41L723.82 996.2L722.6 988.62L719.88 984.68L718.06 981.95L716.24 980.58L716.08 978.16L715.33 976.34L714.12 971.34L711.84 967.54V964.04L712.69 962.07L712.24 959.49L710.57 957.22L709.85 954.76L710.84 953.85V950.52L688.43 951.52H673.58L666.3 951.3L659.63 951L656.29 950.7L650.08 951L645.22 951.52H641.6L638.47 951.19L635.01 950.86L631.39 951.68L627.4 952.78L626 953.52H624.95L624.26 953.98L623.85 954.52H623.46V954.18L620.92 952.27L614.87 952.11L613.76 949.66Z" fill="#CCCCCC" stroke="black" stroke-width="0.5" stroke-miterlimit="10"/>
<path fill-rule="evenodd" clip-rule="evenodd" d="M1053.87 1024.86L1054.83 1024.1L1056.83 1024.36L1058.08 1026.71L1060.61 1027.09L1061.74 1028.45L1063.03 1027.62L1065.37 1027.96L1066.77 1029.06L1068.28 1029.4L1069.19 1030.8L1071.49 1032.22L1073.76 1034.41L1080.79 1042.13L1081.84 1050.08V1085.51L1080.32 1089.41L1083.81 1108.81L1090.48 1112.3L1093.51 1115.18L1095.03 1117.31L1097.15 1117.76L1104.28 1124.89L1105.64 1128.22L1110.49 1134.74L1112.31 1139.89L1113.67 1142.77L1113.83 1145.05L1111.1 1145.96L1110.19 1148.08L1107.91 1148.39L1107.16 1150.05L1108.22 1151.57L1107.76 1153.54L1109.89 1155.97L1109.73 1163.7L1108.37 1167.03L1105.49 1169.46L1101.24 1170.67L1099.12 1176.28L1098.51 1180.22L1096.39 1183.86L1097.91 1188.86L1097 1192.95L1092.91 1193.86L1091.85 1190.83L1093.21 1188.26L1090.48 1184.47L1088.05 1182.49L1085.33 1180.98L1081.84 1177.64L1078.2 1173.25L1077.75 1169.91L1075.93 1165.21L1075.47 1161.73L1078.2 1157.93L1079.26 1153.09L1083.66 1148.39L1083.84 1143.53V1137.77L1082.14 1134.44L1076.53 1133.07L1072.14 1133.23L1070.32 1135.52H1067.88L1066.26 1136.43L1062.86 1134.31L1062.56 1131.73L1060.79 1129.61L1060.05 1127.64L1058.72 1125.36L1053.26 1126.71L1052.84 1124.7L1051.06 1120.67L1048.25 1117.1L1047.58 1115.12L1049.73 1113.98L1052.84 1110.25V1107.28L1053.51 1105.08L1052.91 1103.33L1052.77 1100.36L1053.65 1098.69L1058.17 1095.26L1061.06 1093.9L1062.17 1091.77L1064.1 1091.23L1063.8 1089.63L1061.58 1088.19L1061.28 1086.21L1060.39 1083.47L1061.43 1082.48L1062.25 1080.28L1060.39 1077.01L1062.02 1074.27L1061.28 1071.76L1060.91 1068.56L1059.58 1064.91L1060.25 1061.41L1064.84 1056.54V1054.93L1065.9 1053.49L1065.67 1049.1L1064.46 1045.99L1060.91 1043.42L1060.45 1041.38L1062.8 1036.08L1062.95 1034.56L1060.38 1033.73L1057.43 1031.99L1056.45 1029.04L1055.02 1027.9L1053.87 1024.86Z" fill="#CCCCCC" stroke="black" stroke-width="0.5" stroke-miterlimit="10"/>
<path fill-rule="evenodd" clip-rule="evenodd" d="M861.98 1060.11L863.66 1061.52L866.08 1061.48L869.48 1062.56L870.43 1063.91L870.65 1067.8L871.41 1069.12L872.81 1069.66L875.04 1067.53L877.91 1066.19L881.09 1066.09L882.45 1064.7L887.89 1063L889.18 1063.39L889.41 1067.63L890.47 1069.64L890.92 1072.65L890.61 1074.19L892.2 1074.27L896.29 1076.2L898.33 1076.43L903.24 1079.44L907.32 1080.13L912.24 1081.29L912.62 1082.52H915.94L922.3 1080.36L922.52 1078.28L924.49 1072.65L927.21 1072.19L929.1 1071.18L930.84 1071.72L930.81 1077.74L934 1081.53L934.45 1083.81L939.62 1086.69L947.36 1089.27L952.06 1092.31L956.46 1098.23L960.26 1101.57L964.35 1106.42L968.91 1110.52H971.49L974.98 1109.61L978.17 1108.4L979.68 1108.7L979.99 1109.91L983.48 1110.52L984.54 1108.7L983.48 1086.39L980.75 1085.33L976.19 1086.08L976.65 1088.52L977.86 1090.49L976.8 1091.09L968.15 1090.94L966.18 1088.36L964.96 1085.02L959.35 1078.95L956.61 1076.83L956.31 1071.36L956.01 1059.67L956.46 1056.79L960.56 1053L961.92 1050.87L961.17 1049.51L962.84 1048.6L963.44 1044.19L963 1040.97L963.38 1038.15L963 1035.25L964.37 1033.88L964.6 1031.44L962.55 1030.3L960.19 1028.09L959.05 1023.45L967.64 1007L1001.99 998.66L1012.01 1003.52H1015.14L1018.32 1004.52H1020.14L1023.27 1006.71L1023.58 1008.43L1026.23 1010.93L1030.3 1011.08L1040.14 1014.52H1041.65L1043.53 1016.4L1046.34 1016.86L1047.75 1020.3L1051.65 1024.52H1053.37L1054.66 1027.94L1056.15 1029.11L1057.17 1032.17L1060.22 1033.98L1062.88 1034.84L1062.73 1036.4L1060.3 1041.89L1060.77 1044.01L1064.45 1046.67L1065.7 1049.89L1065.94 1054.43L1064.84 1055.92V1056.22L1059.91 1061.09L1059.22 1064.59L1060.59 1068.24L1060.97 1071.43L1061.73 1073.94L1060.06 1076.68L1061.96 1079.95L1061.12 1082.16L1060.06 1083.15L1060.97 1085.88L1061.28 1087.86L1063.56 1089.31L1063.86 1090.91L1061.88 1091.44L1060.74 1093.57L1057.78 1094.94L1053.15 1098.36L1052.24 1100.03L1052.39 1103L1053 1104.75L1052.84 1106.96V1109.92L1049.12 1113.65L1046.92 1114.79L1047.6 1116.77L1050.49 1120.35L1052.31 1124.38L1052.75 1126.38L1052.54 1126.43L1046.31 1128.48L1033.78 1133.53L1029.99 1134.29L1008.62 1143.52H1004.22L996.03 1147.47L994.21 1150.66L995.88 1157.18L996.02 1159.37L995.2 1159.45L993.45 1159.75L989.12 1159.14L986.92 1159.45L985.93 1158.23L980.16 1158.07L975.83 1159.67L973.02 1161.04L969.68 1162.03L963.83 1165.07L962.09 1168.19L962.7 1170.1L961.63 1172.21L962.09 1174.11L961.75 1175.63L959.96 1177.11L952.82 1179.61L940.44 1187.97L930.49 1200.32L924.3 1209.29L918.61 1211.1L914.66 1210.21L911.49 1207.79L911.05 1207.51L909.76 1206.97L908.77 1207.09L906.68 1206.1L902.01 1206.63L898.29 1209.29L896.2 1209.14L894.15 1207.47L890.35 1205.53L885.3 1204.96L883.15 1204.75L880.14 1201.13L879.15 1200.75L878.01 1199.99L875.73 1200.07L874.29 1199.52H873.6L872.22 1198.83L867.4 1200.06L865.18 1199.83L845.19 1204.33L843.95 1200.99L841.35 1199.77L838.75 1196.71L837.22 1194.42L834.01 1193.19L831.26 1190.75L826.98 1185.55L824.22 1184.02L822.39 1181.72L819.94 1179.43L817.04 1175.92L816.12 1173.16L817.5 1102.52H863.06L861.69 1100.23L862.76 1094.27L864.44 1092.58L864.28 1089.06L861.84 1085.09V1080.73L862.14 1073.04L860.78 1064.12L861.84 1062.52L862.03 1060.98L861.98 1060.11Z" fill="#CCCCCC" stroke="black" stroke-width="0.5" stroke-miterlimit="10"/>
<path fill-rule="evenodd" clip-rule="evenodd" d="M844.96 1203L843.74 1199.7L841.17 1198.49L838.61 1195.47L837.1 1193.21L833.93 1192L831.21 1189.59L826.99 1184.46L824.27 1182.95L822.46 1180.68L820.04 1178.42L817.18 1174.95L816.27 1172.24L817.63 1102.52H863.05L861.69 1100.26L862.74 1094.38L864.4 1092.72L864.25 1089.25L861.84 1085.33V1080.8L862.14 1073.26L860.79 1064.51L861.84 1062.94L862.03 1061.43L861.96 1060.14L858.1 1060.59L854.82 1061.92L851.19 1063.66L849.22 1064.42L846.99 1064.94L845.07 1064.57L839.67 1064.4L837.4 1063.64L834.45 1061.52H833.32L832.07 1062.28L830.07 1062.89L828.65 1064.34L826.06 1064.64L825.39 1063.12L825.47 1059.01L827.14 1057.72L826.89 1056.65L828.23 1053.46L825.51 1051.49L824.67 1047.25L825.84 1045.88V1043.61L822.84 1041.03V1038.84L823.61 1036.07L823.3 1033.46L821.61 1033.15L820.22 1030.54L818.84 1029.62V1027.41L816.84 1024.83L816.69 1022.71L815.63 1020.89L817.29 1016.64L816.69 1009.06L815.78 1006.48L816.23 1004.97L817.84 1003.45V1000.42L815.02 997.08L815.81 993.54L817.84 990.11V987.55L818.07 984.35L817.62 981.77L793.1 979.98L792.49 977.85L793.85 975.58L794.01 973.15L787.64 972.55L787.49 974.52L767.02 974.82L766.41 980.88L764.9 984.22L763.08 985.13L763.69 989.22L763.84 994.98L747.92 996.04L745.19 997.56L737.92 997.11L735.64 996.35L731.7 997.11L726.09 997.41L723.82 996.2L722.6 988.62L719.88 984.68L718.06 981.95L716.24 980.58L716.08 978.16L715.33 976.34L714.12 971.34L711.84 967.54V964.04L712.69 962.07L712.24 959.49L710.57 957.22L709.85 954.76L710.84 953.85V950.52L688.43 951.52H673.58L666.3 951.3L659.63 951L656.29 950.7L650.08 951L645.22 951.52H641.6L638.47 951.19L635.01 950.86L631.39 951.68L627.4 952.78L626 953.52H624.95L624.26 953.98L623.85 954.52H623.46L617.42 957.52L619.84 960.22V963.25L631.26 976.29L631.68 992.68L638.05 1001.6L637.1 1009.88L630.41 1018.49L634.84 1020.4V1028.2L637.84 1033V1038.76L645.65 1051.57L645.34 1055.01L647.84 1058.13V1076.91L639.58 1092.52H637.04L627.82 1099.53L627.5 1104.64L616.06 1114.83L615.75 1121.84L613.84 1123.44V1140.23L608.42 1146.92L607.14 1154.89L601.84 1161.9V1169.55L600.45 1176.24L600.77 1186.44L599.81 1193.14L599.95 1195.52H599.96L603.23 1196.03L604.37 1196.87L606.18 1196.19L606.87 1193.6L608.09 1192.92L613.32 1193.68L616.21 1195.35L618.04 1193.91L618.64 1190.86L624.72 1186.6L627.45 1186.45L630.79 1187.97L631.78 1188.73L633.07 1187.52L634.67 1186.98L637.4 1188.43L637.71 1189.8L640.14 1190.71L639.68 1192.61L640.97 1193.37L645.6 1197.4L650.24 1199.15L653.66 1197.33L654.49 1197.48L657.38 1195.5L659.5 1195.35L660.8 1195.52L739.8 1195.45L741.09 1196.28L743.2 1200.29L744.86 1201.81L749.02 1203.62L753.56 1204.68L756.66 1204.15L759 1205.14L759.6 1206.42L762.48 1207.64L765.43 1205.74L769.13 1204.76L774.35 1206.2L777.14 1205.74L777.75 1203.32L778.88 1203.93L781.3 1204.08L785.91 1208.39L789.39 1209.91L793.78 1210.13L795.36 1209.3L795.51 1207.86L797.86 1207.18L799.98 1207.79L801.49 1208.85L803.22 1208.17L804.43 1209.68L806.1 1209.83L807.08 1210.36L808.97 1210.59L810.71 1210.36L812.05 1210.41L844.96 1203Z" fill="#CCCCCC" stroke="black" stroke-width="0.5" stroke-miterlimit="10"/>
<path fill-rule="evenodd" clip-rule="evenodd" d="M883.69 1204.83L885.84 1205.03L890.87 1205.6L894.66 1207.53L896.7 1209.2L898.78 1209.35L902.49 1206.7L907.141 1206.17L909.22 1207.16L910.21 1207.04L911.49 1207.57L911.93 1207.86L915.09 1210.26L919.021 1211.15L924.7 1209.35L930.86 1200.41L940.78 1188.11L953.11 1179.78L960.22 1177.29L962 1175.82L962.34 1174.3L961.891 1172.41L962.95 1170.3L962.34 1168.4L964.08 1165.3L969.91 1162.27L973.24 1161.28L976.04 1159.92L980.35 1158.32L986.1 1158.48L987.09 1159.69L989.28 1159.39L993.59 1159.99L995.34 1159.69L996.151 1159.61L996.62 1167.1L1004.02 1167.4L1007.04 1168L1008.1 1170.12L1010.52 1169.67L1011.87 1167.55L1017.61 1169.06L1023.5 1172.23L1027.13 1177.22L1030.91 1177.67L1037.4 1178.42L1041.18 1181.45L1043.44 1184.16L1048.12 1184.47L1048.43 1188.09L1046.46 1191.26L1047.07 1194.29L1046.46 1197.31L1046.92 1199.87L1046.77 1202.44L1045.1 1205.46L1044.65 1211.81L1042.39 1215.43L1044.05 1217.4L1047.52 1216.79L1046.01 1219.96L1042.84 1222.23V1225.88L1042.39 1230.08L1039.84 1230.98V1233.81L1043.13 1236.67L1044.13 1239.96L1041.84 1241.39V1245.86L1044.26 1247.83L1045.31 1250.84L1042.6 1254.61L1038.52 1257.78L1037.16 1260.2L1034.3 1260.5L1033.7 1263.37L1034.9 1266.83L1033.39 1269.4L1033.24 1275.73L1032.19 1278.15L1031.88 1285.24L1008.73 1308.25L1005.35 1305.44L998.32 1304L992.58 1304.83L989.55 1306.04L988.12 1304.68L983.66 1302.56L980.41 1302.79L978.97 1299.99L974.141 1299.15L967.11 1300.15L965.35 1298.07L963.84 1296.25V1293.82L961.88 1292.16L959.16 1292.01L955.23 1289.44L952.36 1289.29L946.93 1287.48L944.51 1288.39L939.82 1287.48L937.71 1284.01L933.78 1280.99L932.42 1277.51L932.12 1274.19L931.22 1269.35L932.271 1266.64L928.95 1264.22L925.34 1262.77L924.51 1260.72L924.74 1259.36L924.66 1258.22L921.86 1256.55L919.81 1254.66L916.18 1251.93L912.1 1249.43L906.12 1240.25L904.46 1237.38L903.47 1237.45L901.12 1235.56L900.141 1232.52L898.17 1230.48L897.271 1226.92L895.22 1223.35L894.09 1222.6L893.56 1220.47L891.891 1218.11L889.2 1216.36L887.73 1214.77L884.74 1212.42L884.59 1210.23L884.13 1208.67L884.7 1206.89L883.83 1204.84L883.7 1204.83H883.69Z" fill="#CCCCCC" stroke="black" stroke-width="0.5" stroke-miterlimit="10"/>
<path fill-rule="evenodd" clip-rule="evenodd" d="M883.58 1205.16L884.46 1207.22L883.89 1209L884.34 1210.57L884.49 1212.77L887.49 1215.13L888.97 1216.72L891.67 1218.48L893.34 1220.85L893.87 1222.98L895.01 1223.74L897.06 1227.32L897.97 1230.89L899.94 1232.94L900.93 1235.99L903.28 1237.89L904.27 1237.82L905.94 1240.7L911.94 1249.91L916.04 1252.42L919.68 1255.16L921.73 1257.06L924.54 1258.74L924.61 1259.88L924.39 1261.24L925.22 1263.3L928.84 1264.76L932.17 1267.18L931.11 1269.91L932.02 1274.76L932.33 1278.1L933.69 1281.59L937.63 1284.62L939.75 1288.1L944.45 1289.01L946.87 1288.1L952.33 1289.92L955.2 1290.07L959.15 1292.65L961.87 1292.81L963.84 1294.47V1296.74L965.36 1298.56L967.12 1300.66L964.54 1301.03L962.57 1302.55L958.92 1302.7L956.72 1304.6L957.18 1306.66L955.96 1309.93L952.93 1310.54L950.05 1313.27L946.57 1313.42L944.6 1313.88L943.24 1312.96L938.99 1313.72L934.45 1317.51L932.33 1319.64L929.75 1321.15L928.84 1323.12L925.81 1324.18L924.14 1326.16L922.02 1326.76L918.99 1328.13L913.38 1335.7L912.78 1340.86L913.84 1342.53L913.83 1345.83L910.93 1346.44L909.55 1348.19L907.26 1348.8L904.28 1351.23L903.21 1354.05L901.83 1355.04L900.54 1356.86L897.67 1357.23L894.77 1359.2L890.35 1359.96L888.52 1363.45L888.82 1369.06L886.84 1371.18V1373.76L885.62 1377.55L886.84 1379.22L882.11 1382.25L879.51 1381.19L877.84 1379.06L874.48 1379.52H869.75L865.36 1380.58L861.72 1379.37L858.38 1379.98L850.66 1375.58L848.23 1375.43L846.11 1372.7L838.99 1371.64L833.84 1372.24L828.23 1377.24L824.9 1385.58L821.11 1389.68L814.14 1392.4L812.63 1394.98L808.54 1398.17L804.14 1399.23L800.81 1401.5L795.81 1400.74L792.47 1402.26L786.87 1401.2L781.26 1401.95L781.41 1397.94L784.45 1391.19L784.6 1385.43L779.14 1373.61L777.02 1367.84L770.05 1362.69L770.04 1362.92L769.96 1362.71L769.99 1362.24L773.75 1295.92L792.38 1295.55L796.1 1219.94L811.89 1220.62L832.16 1215.91L838.38 1214.08L841.19 1213.78L842.1 1213.32L843.39 1214.16L844.53 1217.12L846.05 1218.64L844.91 1220.17L844.53 1223.06L846.28 1223.44L853.18 1218.57L857.21 1213.47L861.38 1209.14L865.94 1208.6L867 1210.28L869.65 1210.66L872.31 1208.83L879.07 1206.4L883.47 1205.18L883.45 1205.15L883.58 1205.16Z" fill="#CCCCCC" stroke="black" stroke-width="0.5" stroke-miterlimit="10"/>
<path fill-rule="evenodd" clip-rule="evenodd" d="M769.52 1362.16L769.54 1361.7L773.31 1295.26L791.98 1294.9L795.71 1219.17L811.53 1219.85L831.84 1215.13L838.08 1213.3L840.9 1213L841.81 1212.54L843.1 1213.38L844.24 1216.35L845.77 1217.87L844.62 1219.4L844.24 1222.29L845.99 1222.67L852.92 1217.8L856.95 1212.69L861.13 1208.35L865.69 1207.81L866.76 1209.49L869.42 1209.87L872.08 1208.04L878.85 1205.61L883.26 1204.39L880.22 1200.73L879.23 1200.35L878.09 1199.59L875.81 1199.66L874.37 1198.52H873.38L872.01 1197.79L867.23 1199.09L865.02 1198.84L812.14 1211.55L810.79 1211.49L809.05 1211.73L807.15 1211.49L806.16 1210.92L804.49 1210.76L803.27 1209.14L801.53 1209.87L800.01 1208.74L797.88 1208.09L795.53 1208.82L795.38 1210.36L793.78 1211.25L789.38 1211L785.88 1209.39L781.25 1204.76L778.82 1204.6L777.68 1203.95L777.07 1206.55L774.26 1207.03L769.02 1205.49L765.3 1206.55L762.34 1208.58L759.45 1207.28L758.84 1205.9L756.49 1204.85L753.38 1205.41L748.82 1204.27L744.64 1202.33L742.97 1200.71L740.85 1196.41L739.55 1195.52H660.8L659.5 1195.35L657.38 1195.5L654.49 1197.48L653.66 1197.33L650.24 1199.15L645.6 1197.4L640.97 1193.37L639.68 1192.61L640.14 1190.71L637.71 1189.8L637.4 1188.43L634.67 1186.98L633.07 1187.52L631.78 1188.73L630.79 1187.97L627.45 1186.45L624.72 1186.6L618.64 1190.86L618.04 1193.91L616.21 1195.35L613.32 1193.68L608.09 1192.92L606.87 1193.6L606.18 1196.19L604.37 1196.87L603.23 1196.03L599.96 1195.52H599.95L601.09 1213.22L613.52 1225.96L620.21 1237.43L630.63 1260.81L632.21 1270.2L642.84 1285.16V1291.05L653.84 1307.12V1315.94L651.14 1317.05L654.16 1327.85L654.8 1344.06L660.99 1360.58L660.36 1369.48L662.26 1375.51L659.24 1377.42L661.79 1380.59L663.31 1391.6L666.16 1393.1L668.06 1396.83L665.84 1398.57V1401.59L669.13 1405.37L669.52 1413.79L673.29 1419.23L678.31 1429.62L683.33 1434.9L684.43 1437.87L691.5 1443.2L694.51 1441.35L698.84 1440.41V1437.74L697.49 1436.47L699.59 1432.55L704.67 1430.5L707.06 1435.06L711.1 1435.22L709.3 1439.93L712.29 1446.38L719.32 1447.95L723.8 1450.46L727.09 1449.68L729.33 1450.62L732.92 1451.25L734.56 1449.52H737.7L739.2 1452.5L742.19 1452.03L744.73 1452.66L744.88 1448.11L746.67 1446.22L749.21 1445.28L751.15 1441.03L756.69 1438.05L763.26 1438.52H766.73L769.6 1362.38L769.52 1362.16Z" fill="#CCCCCC" stroke="black" stroke-width="0.5" stroke-miterlimit="10"/>
<path fill-rule="evenodd" clip-rule="evenodd" d="M1287.98 1379.65L1290.68 1377.9L1295.14 1378.3L1300.16 1375.29L1304.22 1370.61L1317.44 1369.34L1321.51 1370.29L1328.44 1367.59L1330.35 1363.86L1333.69 1363.38L1335.92 1356.8L1339.26 1351.41L1339.42 1347.6L1343.64 1345.06L1343.24 1338.71L1342.21 1337.84L1345.16 1335.62L1346.99 1328.63L1346.51 1327.52H1347.14L1351.16 1321.33L1354.14 1307.13L1356.39 1299.43L1359.69 1296.18L1361.54 1287.69L1367.33 1277.53L1372.88 1260.47L1376.82 1254.68V1246.98L1381.09 1239.28L1381.73 1236.34L1386.56 1228.73L1389.05 1216.99L1391.06 1208.42L1392.99 1206.2L1394.12 1200.01L1392.27 1196.92L1393.4 1191.6L1397.83 1185.57L1397.27 1182.63L1400.33 1179.06L1399.61 1173.98L1397.84 1172.32L1399.77 1168.75L1399.45 1163.59L1397.84 1162.48L1397.76 1157.59L1400.44 1156.29L1402.43 1157.82L1403.27 1162.03L1406.71 1166.61L1409.23 1167.22L1410.68 1164.62L1410.91 1161.11L1411.98 1159.81L1412.44 1156.22L1413.89 1154.84L1413.66 1150.72L1409.69 1145.37L1408.69 1141.7L1409.84 1139.87V1134.3L1408.52 1128.62L1409.45 1126.44L1409.92 1115.86L1406.81 1111.82L1406.42 1102.64L1404.86 1099.45L1403.23 1100.07L1399.65 1095.48L1399.18 1091.36L1395.6 1089.8L1397.62 1085.6L1396.22 1081.48L1390.93 1086.3L1392.25 1089.1L1388.67 1091.51L1385.17 1089.18L1382.91 1089.25L1386.25 1093.76L1386.33 1096.41L1388.82 1098.98V1100.16L1384.82 1103.86V1110.04L1382.25 1114.2L1379.45 1113.24L1375.84 1117.25L1375.36 1120.77L1372.64 1122.77L1370.32 1121.33L1369.92 1116.77L1368 1115.81L1365.27 1118.46L1364.87 1123.5L1369.12 1127.75L1370.16 1129.59L1368.56 1131.11L1366.4 1130.47L1361.67 1131.35L1362.71 1135.44L1366.88 1136.64L1367.44 1139.2L1365.6 1141.44L1363.6 1139.12L1360.39 1140.32L1359.67 1142.8L1353.82 1147.77L1353.74 1143.09L1354.68 1141.83L1353.19 1139.31L1349.34 1143.01L1351.78 1144.35L1350.91 1146.16L1346.04 1148.99L1347.93 1152.92L1350.68 1153.79L1350.44 1155.83L1347.85 1156.54L1344.47 1158.82L1344 1156.15L1342.03 1155.75L1344 1152.45L1342.19 1151.11L1334.56 1157.56L1333.38 1163.62L1334.33 1165.98L1333.15 1168.57L1330.56 1167.7L1328.83 1166.21L1328.91 1160.58L1326.92 1160.35L1321.98 1165.43L1316.56 1161.62L1315.45 1163.21L1313.54 1163.53L1314.26 1169.48L1312.59 1169.08L1311.16 1169.63L1311.08 1166.46L1309.01 1165.35L1306.7 1168.76L1304.55 1165.35L1296.19 1173.04L1293.96 1173.28L1292.29 1171.69L1287.99 1171.61L1286.08 1174.55L1286.88 1181.05L1280.59 1190.73L1280.83 1192.55L1274.85 1198.82V1201.99L1278.11 1204.69L1275.32 1208.66L1277.31 1214.68L1277.07 1219.84L1282.89 1231.03L1282.49 1234.12L1286.16 1238.17L1286.24 1239.99L1283.38 1242.93L1284.33 1245.78L1282.34 1255.46L1278.12 1258.16L1277.01 1263.64L1274.54 1264.11L1273.26 1267.68L1269.44 1270.77L1269.04 1278.63L1266.49 1281.49L1260.35 1282.91L1258.84 1284.9L1259.32 1291.72L1254.7 1296.56L1255.18 1302.11L1253.83 1305.44L1254.79 1307.98L1255.03 1314.65L1260.45 1321.23L1259.65 1326L1260.61 1329.01L1263.32 1330.6L1264.75 1330.2L1263.4 1331.55L1259.18 1332.58L1259.42 1336.94L1260.06 1343.84L1259.42 1352.65L1260.93 1354.39L1261.17 1357.25L1263.56 1358.67L1266.35 1362.95L1268.66 1364.22L1270.49 1367.07L1273.28 1370.32L1276.23 1369.29L1277.26 1370.72L1280.61 1371.52L1284.19 1376.2L1286.82 1376.75L1286.9 1378.57L1287.98 1379.65ZM1379.72 1102.53L1378.77 1100.79L1382.34 1097.22L1382.26 1098.73L1379.72 1102.53ZM1378.37 1109.12L1378.92 1107.93L1379.79 1109.68L1378.84 1110.87L1378.37 1109.12ZM1371.63 1108.01L1372.42 1107.22L1373.13 1108.09L1375.43 1109.44L1374.56 1113.41L1372.42 1111.43L1369.56 1111.27L1371.63 1108.01ZM1400.38 1192.31L1400.3 1189.55L1400.54 1186.79L1401.76 1184.78L1403.03 1184.7L1404.69 1182.22L1403.59 1185.85L1402.17 1188.34L1400.38 1192.31Z" fill="#CCCCCC" stroke="black" stroke-width="0.5" stroke-miterlimit="10"/>
<path fill-rule="evenodd" clip-rule="evenodd" d="M1008.02 1308.77L1031.67 1285.28L1031.98 1278.04L1033.06 1275.57L1033.21 1269.1L1034.75 1266.48L1033.52 1262.94L1034.14 1260.01L1037.06 1259.7L1038.45 1257.23L1042.61 1254L1045.38 1250.15L1044.31 1247.07L1041.84 1245.06V1241.39L1044.13 1239.96L1043.13 1236.67L1039.84 1233.81V1230.91L1042.39 1230L1042.84 1225.78V1222.15L1045.99 1219.89L1047.49 1216.72L1044.04 1217.33L1042.39 1215.37L1044.64 1211.74L1045.09 1205.4L1046.74 1202.38L1046.89 1199.82L1046.44 1197.25L1047.04 1194.23L1046.44 1191.22L1048.39 1188.05L1048.09 1184.42L1043.44 1184.12L1041.19 1181.4L1037.44 1178.39L1030.99 1177.63L1027.24 1177.18L1023.64 1172.2L1017.79 1169.03L1012.09 1167.52L1010.74 1169.63L1008.34 1170.09L1007.29 1167.97L1004.29 1167.37L996.94 1167.07L996.34 1157.41L994.68 1150.92L996.49 1147.74L1004.59 1143.52H1008.94L1030.09 1134.62L1033.84 1133.86L1046.24 1128.84L1052.4 1126.8L1058.14 1125.41L1059.49 1127.67L1060.24 1129.63L1062.04 1131.75L1062.34 1134.31L1065.79 1136.43L1067.44 1135.52H1069.95L1071.79 1133.54L1076.21 1133.39L1081.85 1134.76L1083.84 1138.12V1143.91L1083.38 1148.8L1078.96 1153.53L1077.89 1158.41L1075.14 1162.22L1075.6 1165.73L1077.43 1170.46L1077.89 1173.82L1081.55 1178.24L1085.06 1181.6L1087.8 1183.12L1090.25 1185.11L1092.99 1188.93L1091.62 1191.52L1092.69 1194.57L1096.81 1193.65L1097.72 1189.53L1096.2 1184.5L1098.33 1180.84L1098.94 1176.87L1101.08 1171.22L1105.35 1170.01L1108.25 1167.56L1109.63 1164.21L1109.78 1156.43L1107.64 1153.98L1108.1 1152L1107.03 1150.48L1107.79 1148.8L1110.08 1148.49L1111 1146.35L1113.74 1145.44L1113.59 1143.15L1112.22 1140.25L1110.39 1135.07L1105.51 1128.5L1104.13 1125.14L1096.96 1117.97L1094.83 1117.52L1093.3 1115.38L1090.25 1112.48L1083.53 1108.97L1080.02 1089.44L1085.21 1070.52H1105.64L1109.13 1069.55L1110.04 1068.04L1113.07 1067.43L1113.22 1069.25L1115.95 1070.01L1118.53 1071.83L1121.25 1072.13L1123.38 1074.4L1122.77 1076.22L1128.99 1074.4L1133.53 1071.22L1135.81 1070.61L1137.48 1069.25L1139.9 1070.31L1140.21 1071.67L1142.93 1071.83L1145.51 1073.49L1149.91 1071.83L1155.82 1071.37L1157.34 1068.19L1156.28 1065.76L1157.79 1064.39L1161.58 1065.61L1164.46 1065L1167.34 1067.13L1171.13 1066.67L1173.11 1065L1180.99 1062.58L1184.02 1063.79L1187.35 1062.73L1188.87 1060.91L1193.72 1060.3L1196.6 1057.27L1201 1056.67L1204.18 1054.09L1206.61 1050.75L1210.55 1051.82L1212.37 1049.69L1213.11 1049.36L1214.62 1050.29L1213.83 1055.22L1212.71 1057.77L1213.83 1058.72L1209.53 1064.93L1209.06 1067.15L1209.85 1068.75L1210.17 1070.02L1208.58 1071.61L1209.53 1079.09L1211.92 1083.54L1210.84 1084.82V1090.23L1211.83 1091.5L1211.99 1096.74L1209.77 1098.97L1210.56 1104.52L1209.06 1114.91L1208.18 1114.99L1209.84 1116.74V1126.18L1206.28 1126.65L1206.12 1127.85L1207.23 1129.35L1211.43 1129.51L1212.55 1130.38L1213.5 1138.56L1211.36 1141.65L1209.13 1142.76L1210.48 1144.65L1209.85 1146.52H1207.14L1204.12 1149.74L1204.92 1150.86L1205.87 1150.06L1208.58 1150.38L1206.67 1153.09L1206.19 1157.38L1203.49 1157.86L1198.84 1163.74V1166.29L1194.73 1172.02L1191.23 1172.5L1191.55 1176.47L1177.55 1184.11L1175.48 1184.28L1174.36 1187.3L1160.97 1194.41L1155.82 1193.78L1155.58 1194.89L1149.47 1197.74L1140.98 1203.3L1138.92 1201.95L1138.84 1204.57L1133.68 1210.83L1131.14 1211.95L1129.63 1208.62L1128.76 1214.09L1126.3 1214.72L1125.51 1217.9L1117.02 1222.89L1116.86 1225.04L1114.64 1226.94L1112.66 1227.58L1112.89 1230.51L1107.97 1230.67L1096.71 1238.22L1097.35 1242.99L1093.69 1245.52H1088.24L1086.15 1248.22L1082.1 1245.68L1079.84 1245.99V1247.75L1081.94 1250.14L1081.78 1253.48L1080.16 1255.54L1080.81 1258.73L1078.55 1262.07L1084.69 1270.18L1084.85 1273.05L1082.1 1275.27L1084.2 1276.23L1086.46 1279.89L1086.63 1284.82L1089.15 1289.45L1088.1 1302.61L1089.31 1307.22L1090.84 1306.98V1303.51L1093.53 1298.43L1093.85 1302.87L1094.88 1302.72L1094.64 1308.43L1092.89 1310.62L1092.57 1316.35L1093.53 1317.15L1091.84 1323.83V1327.33L1089.07 1329.71L1088.75 1333.52H1087.64L1088.44 1337.67L1091.62 1335.76L1092.34 1338.18L1089.72 1342.15L1088.45 1347.54L1080.76 1355.71L1067.11 1361.9L1048.63 1365.55L1041.56 1372.3L1036.17 1373.65L1034.58 1376.19L1031.88 1378.33L1030.38 1383.48L1028.23 1383.41L1026.25 1384.75L1027.12 1385.87L1029.19 1389.75L1028.95 1393.48L1030.85 1391.02L1033.87 1391.97L1034.82 1388.4L1036.17 1388.16L1036.32 1390.15L1035.44 1396.07L1033.38 1399.57L1033.26 1402.83L1029.08 1402.94L1021.78 1401.2L1019.81 1401.63L1019.35 1399.98L1020.34 1396.48L1020.72 1393.66L1021.4 1392.14L1019.41 1389.53L1017.24 1387.15L1015.04 1385.91L1014.68 1385.29L1014.83 1378.21L1015.14 1372.15L1016.84 1365.63V1349.24L1015.55 1344.45L1014.19 1340.42L1014.04 1336.38L1013.84 1335.17L1013.68 1326L1011.14 1320.75L1009.9 1315.18L1008.66 1309.31L1008.02 1308.77Z" fill="#CCCCCC" stroke="black" stroke-width="0.5" stroke-miterlimit="10"/>
<path fill-rule="evenodd" clip-rule="evenodd" d="M1014.84 1385.29L1015.2 1385.91L1017.41 1387.15L1019.57 1389.53L1021.57 1392.14L1020.88 1393.66L1020.5 1396.48L1019.51 1399.98L1019.97 1401.63L1018.53 1401.96L1016.02 1403.7L1016.4 1406.9L1015.33 1410.55L1012.07 1411.69L1003.94 1411.31L997.1 1407.47L994.68 1403.07L992.41 1400.95L991.19 1398.37L993.01 1393.37L998.16 1383.82L999.07 1379.73L1002.71 1377.91L1008.02 1380.94L1011.35 1383.82L1014.84 1385.34V1385.29Z" fill="#CCCCCC" stroke="black" stroke-width="0.5" stroke-miterlimit="10"/>
<path fill-rule="evenodd" clip-rule="evenodd" d="M692.49 1443.53L695.5 1441.75L699.84 1440.84V1437.74L698.43 1436.48L700.63 1432.55L705.97 1430.51L708.49 1435.07L712.73 1435.23L710.84 1439.94L713.98 1446.38L721.37 1447.95L726.08 1450.46L729.53 1449.68L731.89 1450.62L735.66 1451.25L737.39 1449.52H740.69L742.26 1452.5L745.4 1452.03L748.07 1452.66L748.23 1448.1L750.11 1446.21L752.78 1445.27L754.82 1441.02L760.64 1438.03L767.55 1438.5H766.12L769.01 1362.8L776.03 1367.92L778.16 1373.64L783.66 1385.38L783.51 1391.1L780.45 1397.8L780.3 1401.78L785.95 1401.03L791.6 1402.08L794.96 1400.57L800 1401.32L803.36 1399.06L807.79 1398.01L811.91 1394.85L813.44 1392.29L820.46 1389.58L824.27 1385.52L827.63 1377.24L833.28 1372.28L838.47 1371.68L845.64 1372.73L847.78 1375.44L850.22 1375.59L858 1379.96L861.36 1379.36L865.02 1380.56L869.45 1379.51H874.49L877.85 1379.06L879.53 1381.17L882.13 1382.22L886.86 1379.21L885.64 1377.55L886.86 1373.79V1371.23L888.84 1369.12L888.54 1363.55L890.37 1360.09L894.8 1359.34L897.7 1357.38L900.57 1357.01L901.87 1355.2L903.25 1354.22L904.32 1351.43L907.3 1349.02L909.59 1348.42L910.97 1346.68L913.87 1346.08L913.88 1342.2L912.82 1340.53L913.43 1335.36L919.06 1327.76L922.1 1326.39L924.23 1325.78L925.9 1323.8L928.94 1322.74L929.85 1320.76L932.43 1319.24L934.56 1317.11L939.12 1313.31L943.38 1312.55L944.75 1313.47L946.73 1313.01L950.22 1312.86L953.11 1310.12L956.15 1309.51L957.37 1306.23L956.91 1304.17L959.12 1302.27L962.78 1302.12L964.76 1300.59L974.43 1299.22L979.3 1300.06L980.75 1302.88L984.03 1302.65L988.52 1304.79L989.97 1306.16L993.02 1304.94L998.81 1304.1L1005.89 1305.55L1009.92 1308.91L1011.14 1314.7L1012.36 1320.19L1014.87 1325.38V1335.18L1014.07 1336.4L1014.22 1340.43L1015.58 1344.46L1016.87 1349.25V1365.64L1015.17 1372.16L1014.87 1378.22L1014.72 1385.35L1011.23 1383.83L1007.9 1380.95L1002.59 1377.92L998.95 1379.74L998.04 1383.83L992.88 1393.38L991.06 1398.38L992.27 1400.96L994.54 1403.08L996.97 1407.48L1003.81 1411.32L1011.94 1411.7L1015.2 1410.56L1016.26 1406.91L1015.88 1403.71L1018.39 1401.96L1021.81 1401.2L1029.1 1402.95L1033.28 1402.83L1033.24 1403.87L1030.69 1407.21L1031.96 1407.69L1029.41 1415.33L1028.77 1421.85L1025.63 1428.15L1023.57 1436.24L1020.55 1439.89L1019.6 1443.62L1013.81 1450.51H1012.27L1010.99 1452.33L1006.69 1454.31L1004.7 1456.77L999.6 1460.03L997.01 1465.03L992.86 1469.81V1471.88L990.46 1476.33L986.47 1476.49L983.27 1482.7L974.48 1497.35L967.73 1503.76L966.62 1509.63L962.72 1511.3L958.97 1515.75L956.82 1515.83L955.87 1517.5L933.8 1539.17L931.09 1539.64L931.17 1540.75L927.59 1544.72L913.09 1554.01L909.98 1557.42L904.88 1558.93V1560.28L896.79 1562.41L892.15 1565.25L887.4 1565.68L885.1 1563.94L878.64 1564.18L873.29 1565.8L871.03 1569.67L874.2 1572.31L873.92 1573.42L866.55 1573.58L862.23 1571.37L858.78 1571.01L855.81 1574.01L857.08 1576.65L855.73 1577.95L845.59 1575.78L842.71 1573.61L832.99 1571.15L826.62 1572.42L826.54 1573.93L823.2 1575.12L818.26 1572.5L806.69 1572.42L803.4 1573.92L802.38 1577.4L800.18 1576.37L797.6 1577.08L795.33 1578.98L794.07 1580.64L789.14 1580.96L785.92 1582.38L779.81 1580.16L774.64 1580.48L773.62 1581.98L768.6 1580.87L764.14 1586.02L760.38 1586.73L759.05 1589.74L756.86 1588.95L754.9 1589.91L744.56 1585L742.44 1586.27L742.2 1581.2L738.28 1579.14L735.3 1580.65L733.34 1579.78L735.07 1578.35L733.97 1574L729.11 1573.13L725.66 1576.21L725.9 1580.09L723.24 1578.11L723 1573.84L724.49 1570.28L723.55 1564.98L726.37 1560.31L722.69 1553.58L719.01 1550.26L715.88 1544.8V1539.42L718.07 1537.36L720.11 1539.5H721.99L724.42 1536.81L725.67 1530.32L723.4 1523.28L723.79 1520.12L717.81 1510.12L717.65 1505.52L711.83 1497.9L709.16 1485.68L704.76 1474.1L704.92 1468.23L700.52 1455.38L693.76 1450.46L692.66 1443.63L692.49 1443.53ZM916.67 1483.89L919.71 1486.47L921.91 1489.51L926.77 1491.49L930.57 1491.34L931.71 1489.21L933.15 1487.46L934.97 1482.36L938.62 1481.3L941.35 1479.47L945 1478.79L947.51 1479.55L951.31 1476.97L952.3 1473.62L950.63 1472.1L950.25 1469.59L954.05 1467.69L957.77 1464.42L957.54 1459.33L954.2 1451.19L949.64 1447.69L946.38 1448.6L943.34 1446.39L942.12 1447.3L940.07 1445.86L937.11 1445.71L936.35 1447.38L933.69 1448.98L931.87 1451.04L924.12 1452.33L919.41 1456.44L917.44 1461.92L911.9 1466.26L909.09 1468.24L910.84 1472.27L913.27 1474.71L913.8 1476.84L916.31 1479.73L916.67 1483.89Z" fill="#CCCCCC" stroke="black" stroke-width="0.5" stroke-miterlimit="10"/>
<path fill-rule="evenodd" clip-rule="evenodd" d="M916.67 1483.89L916.29 1479.7L913.78 1476.81L913.25 1474.68L910.82 1472.24L909.07 1468.21L911.89 1466.24L917.43 1461.9L919.4 1456.42L924.11 1452.32L931.86 1451.02L933.68 1448.97L936.34 1447.37L937.1 1445.7L940.06 1445.85L942.11 1447.29L943.33 1446.38L946.36 1448.59L949.63 1447.68L954.19 1451.18L957.53 1459.31L957.76 1464.41L954.04 1467.68L950.24 1469.58L950.62 1472.09L952.29 1473.62L951.3 1476.96L947.51 1479.55L945 1478.79L941.35 1479.47L938.62 1481.3L934.97 1482.36L933.15 1487.46L931.71 1489.21L930.57 1491.34L926.77 1491.49L921.91 1489.51L919.71 1486.47L916.67 1483.89Z" fill="#CCCCCC" stroke="black" stroke-width="0.5" stroke-miterlimit="10"/>
</svg>
