<svg width="152" height="114" viewBox="0 0 152 114" fill="none" xmlns="http://www.w3.org/2000/svg">
<path d="M0.046875 0H151.639V113.694H0.046875V0Z" fill="white"/>
<path d="M0.046875 0H151.639V34.1083H0.046875V0Z" fill="black"/>
<path d="M0.046875 79.5859H151.639V113.694H0.046875V79.5859Z" fill="#006600"/>
<path d="M55.5195 90.6006L56.7986 91.3112L89.9831 33.7535C91.9017 33.3272 92.9676 31.4796 94.0334 29.6321C94.744 28.3531 97.5864 23.45 98.7944 17.0547C95.4232 20.0505 92.5665 23.5793 90.3384 27.5003C89.2725 29.3479 88.2066 31.1954 88.704 33.114L55.5195 90.6006Z" fill="black" stroke="black" stroke-width="0.710589"/>
<path d="M55.5195 90.6006L56.7986 91.3112L89.9831 33.7535C91.9017 33.3272 92.9676 31.4796 94.0334 29.6321C94.744 28.3531 97.5864 23.45 98.7944 17.0547C95.4232 20.0505 92.5665 23.5793 90.3384 27.5003C89.2725 29.3479 88.2066 31.1954 88.704 33.114L55.5195 90.6006Z" fill="white"/>
<path d="M96.1641 90.6006L94.885 91.3112L61.7005 33.7535C59.7819 33.3272 58.716 31.4796 57.6501 29.6321C56.9396 28.3531 54.0972 23.45 52.8892 17.0547C56.2604 20.0505 59.117 23.5793 61.3452 27.5003C62.4111 29.3479 63.477 31.1954 62.9796 33.114L96.1641 90.6006Z" fill="black" stroke="black" stroke-width="0.710589"/>
<path d="M96.1641 90.6006L94.885 91.3112L61.7005 33.7535C59.7819 33.3272 58.716 31.4796 57.6501 29.6321C56.9396 28.3531 54.0972 23.45 52.8892 17.0547C56.2604 20.0505 59.117 23.5793 61.3452 27.5003C62.4111 29.3479 63.477 31.1954 62.9796 33.114L96.1641 90.6006Z" fill="white"/>
<path d="M151.758 39.7963H89.3447C87.2129 34.1116 80.1071 22.7422 75.8435 22.7422C71.58 22.7422 64.4741 34.1116 62.3423 39.7963H0V73.9046H62.3423C64.4741 79.5893 71.58 90.9587 75.8435 90.9587C80.1071 90.9587 87.2129 79.5893 89.3447 73.9046H151.758V39.7963Z" fill="#BB0000"/>
<path d="M89.3459 73.9051C91.4777 68.2204 92.8989 62.5357 92.8989 56.851C92.8989 51.1663 91.4777 45.4816 89.3459 39.7969C87.2141 45.4816 85.793 51.1663 85.793 56.851C85.793 62.5357 87.2141 68.2204 89.3459 73.9051Z" fill="black"/>
<path d="M62.3416 73.9051C60.2098 68.2204 58.7886 62.5357 58.7886 56.851C58.7886 51.1663 60.2098 45.4816 62.3416 39.7969C64.4734 45.4816 65.8945 51.1663 65.8945 56.851C65.8945 62.5357 64.4734 68.2204 62.3416 73.9051Z" fill="black"/>
<path d="M75.8463 61.113C77.4161 61.113 78.6886 59.2042 78.6886 56.8495C78.6886 54.4948 77.4161 52.5859 75.8463 52.5859C74.2765 52.5859 73.0039 54.4948 73.0039 56.8495C73.0039 59.2042 74.2765 61.113 75.8463 61.113Z" fill="white"/>
<path d="M76.5547 60.9688C76.5547 60.9688 79.397 66.6535 79.397 75.8911C79.397 85.1288 76.5547 90.8135 76.5547 90.8135V60.9688Z" fill="white"/>
<path d="M75.1367 52.7266C75.1367 52.7266 72.2944 47.0419 72.2944 37.8042C72.2944 28.5665 75.1367 22.8818 75.1367 22.8818V52.7266Z" fill="white"/>
<path d="M75.1367 60.9688C75.1367 60.9688 72.2944 66.6535 72.2944 75.8911C72.2944 85.1288 75.1367 90.8135 75.1367 90.8135V60.9688Z" fill="white"/>
<path d="M76.5547 52.7266C76.5547 52.7266 79.397 47.0419 79.397 37.8042C79.397 28.5665 76.5547 22.8818 76.5547 22.8818V52.7266Z" fill="white"/>
</svg>
